<svg xmlns="http://www.w3.org/2000/svg" width="80" height="51" fill="none"><path fill="#000" d="m79.708 24.271-2.536-4.558L68.57 4.255 66.72.933A1.777 1.777 0 0 0 65.168 0H39.193c-.64 0-1.235.356-1.552.933l-2.07 3.719-9.087 16.337a.805.805 0 0 1-.9.382.816.816 0 0 1-.588-.798v-7.766C24.996 5.746 19.459 0 12.656 0H2.1C1.11 0 .308.832.308 1.86v10.947c0 5.108 2.93 9.672 7.464 11.632.298.127.492.43.492.758v.007c0 .336-.194.631-.492.765C3.264 27.916.334 32.453.308 37.528v11.028c0 1.027.802 1.859 1.792 1.859h10.549c6.804 0 12.34-5.746 12.34-12.807v-7.766c0-.376.246-.705.59-.799a.8.8 0 0 1 .899.39l9.675 17.384 1.481 2.665c.317.577.912.933 1.552.933h25.975c.64 0 1.236-.356 1.553-.933l2.749-4.94 6.46-11.619.091-.168 2.97-5.336.71-1.282c.33-.577.33-1.289.014-1.866Zm-27.334 10.72c-5.064 0-9.19-4.39-9.19-9.787 0-5.396 4.12-9.786 9.19-9.786 5.065 0 9.191 4.39 9.191 9.786 0 5.397-4.126 9.786-9.19 9.786Z"/></svg>