<svg xmlns="http://www.w3.org/2000/svg" width="269" height="374" fill="none"><g clip-path="url(#a)"><path fill="#4EC5D9" d="M179.173 324.168a211.606 211.606 0 0 1-7.644-12.884c-2.265-5.075-4.472-10.254-5.275-15.797-.371-2.101-.345-4.238-.397-6.365-.031-3.731.03-7.237.615-10.876.427-2.521 1.27-4.938 1.92-7.399.157-.442.301-.893.445-1.339.51-1.222.986-2.456 1.427-3.713.017 0 .034.009.052.009a.535.535 0 0 0 .144-.013c.899-.066 1.75-.377 2.592.017.113.048.2.127.279.215a89.052 89.052 0 0 0-.746 3.261c-.384 1.62-.458 3.28-.467 4.939-.201 2.644 0 5.297.349 7.885 1.257 14.465 9.11 27.092 16.367 39.263 2.967 5.122 5.449 10.542 7.592 16.05.733 2.176 1.269 4.409 2.033 6.576.873 2.771 1.278 5.656 1.579 8.537.323 2.093.969 4.142 1.183 6.248.109 1.593.135 3.209-.087 4.794-.428 1.532-.873 3.069-1.51 4.522-.825 2.067-2.928 5.412-5.45 3.687-1.741-1.555-1.968-4.024-2.317-6.2-.144-3.743-.152-7.513-.515-11.234.014-.057.027-.114.035-.171a.8.8 0 0 0-.1-.446c-.227-2.089-.572-4.159-1.126-6.204-1.012-4.251-2.871-8.244-4.695-12.197-1.876-3.84-3.844-7.649-6.278-11.169l-.005.004Zm-7.203-22.972c-.572-1.659-.747-3.449-1.1-5.153-.38-1.965-.781-3.975-.842-5.971.144-1.502-1.959-1.331-1.75.157.105 2.329.563 4.619 1.026 6.9.296 1.594.497 3.205 1.047 4.742.454 1.046 2.02.407 1.61-.67l.009-.005Zm1.487 3.341c-1.021-.617-2.068 1.2-1.047 1.804 1.021.617 2.068-1.209 1.047-1.804ZM104.728 321.283c2.783-2.872 6.287-4.833 9.839-6.585 2.766-1.278 5.467-2.705 8.264-3.914 8.255-3.695 16.463-7.744 23.85-13.011 3.913-2.89 7.339-6.379 10.546-10.031-.044.329-.079.662-.118.99-.201.81-.336 1.633-.423 2.434-.188 1.462-.11 2.942.061 4.404v.167c.004.044.013.087.021.131-.174.197-.331.442-.432.569-2.011 2.675-4.646 4.79-7.461 6.546-2.352 1.843-5.044 3.148-7.71 4.47-3.983 2.049-8.155 3.677-12.252 5.468-3.181 1.51-6.392 3.078-9.381 4.965-1.527.81-3.268 1.252-4.481 2.561-1.723 1.729-3.076 3.971-5 5.464a53.993 53.993 0 0 0-2.252 2.311.827.827 0 0 0-.296.237c-1.095.832-2.256 1.471-3.482 1.664a.876.876 0 0 0-.511-.342c-1.147-.438-1.378-1.795-1.579-2.872-.157-1.292.244-2.312.798-3.415.629-.77 1.283-1.51 1.999-2.211Zm7.579-1.974c.549.626 1.274.096 1.741-.333a15.59 15.59 0 0 1 1.78-1.239c.785-.534 2.884-1.217 1.776-2.412a.87.87 0 0 0-1.043-.066c-.716.455-1.457.871-2.182 1.318-.571.372-1.112.792-1.645 1.217-.554.315-.899.967-.427 1.515Zm-2.278 2.429a.88.88 0 0 0 1.012-.704.883.883 0 0 0-.702-1.016.88.88 0 0 0-1.012.705.882.882 0 0 0 .702 1.015Z"/><path fill="#9EF1FF" d="M146.981 28.895c.035-.013.07-.03.1-.043 0 .017-.004.03-.009.048h-.091v-.005Z"/><path fill="#4EC5D9" d="M69.995 88.57c-.397.687-.798 1.37-1.2 2.053-.776.297-1.448.958-2.142 1.291-1.832 1.033-3.888 1.567-5.938 1.953-2.047.481-4.159.302-6.227.543-.458-.01-.938.052-1.383-.066-1.915-.285-3.704-1.287-5.21-2.482-1.213-.894-2.194-1.914-2.692-3.332-.1-.311-.113-.679-.205-1.003 3.897-1.125 8.033-1.007 12.021-1.606 3.085-.399 6.148-.666 9.167-1.253 1.855-.516 3.713-1.099 5.49-1.86.152 1.103-.359 2.29-.673 3.296-.362.788-.663 1.647-1.008 2.465Zm-11.776-.592c-1.03-.78-2.134.736-1.025 1.432 1.03.784 2.129-.74 1.025-1.432Zm9.464-1.029c-.402-1.54-2.352-.197-3.36-.131-.894.236-1.71.416-2.613.517-.472.056-.803.538-.733.998.261 1.445 2.74.315 3.695.201a29.89 29.89 0 0 0 2.125-.578c.537.035.964-.49.882-1.007h.004ZM157.689 302.365a1.88 1.88 0 0 0 .401-.096c.044.171.087.342.131.508.467 2.11 1.056 4.177 1.941 6.156.851 2.333 1.885 4.614 3.221 6.707 1.754 2.885 3.298 5.831 5.345 8.493 2.639 4.181 4.847 8.529 6.894 13.021 1.173 2.71 2.242 5.494 3.063 8.345-.005.039-.014.078-.014.118-.039 2.001-.615 4.172-2.325 5.328-.358.315-.772.67-1.287.53-.053-.027-.101-.044-.149-.066a6.955 6.955 0 0 1-1.16-1.677c-1.279-3.551-1.445-7.416-3.181-10.814-3.835-8.585-9.804-15.954-13.954-24.364-1.182-2.172-2.085-4.531-2.544-6.974a5.357 5.357 0 0 1 .445-1.83c.616-1.45 1.781-2.671 3.173-3.389v.004Zm11.532 28.305c.48.07.907-.272.99-.74.083-.468-.279-.924-.737-.994-.48-.07-.908.272-.991.74-.083.468.279.924.738.994Zm-6.576-9.553c.122.551.45 1.002.829 1.405.773.906 1.414 1.922 2.103 2.894.454.622.882 1.883 1.859 1.362.401-.232.567-.793.319-1.2-.493-.797-1.03-1.567-1.562-2.338-.52-.928-1.405-1.642-1.859-2.574-.323-1.103-1.955-.661-1.689.451Z"/><path fill="#9EF1FF" d="M170.211 323.205c-.755-1.033-1.549-2.062-2.186-3.17-1.291-2.272-2.736-4.531-4.023-6.781-1.383-2.544-2.387-5.293-3.364-8.012-1.056-4.435-2.653-8.875-2.007-13.485.044-.924.1-1.847.196-2.762.463-1.436 1.021-2.921 2.082-4.028.916-.841 2.085-1.638 3.32-1.857-.144 2.588-.131 5.153-.074 7.78-.009 2.163.231 4.313.628 6.436.934 4.181 2.208 8.319 4.106 12.158.476 1.152.877 2.338 1.545 3.398 2.797 5.231 6.021 10.214 9.193 15.214 3.517 6.094 6.737 12.499 8.7 19.268.541 2.246.995 4.513 1.266 6.803-.192.521-.306 1.06-.441 1.598-.205.482-.432.902-.589 1.371-.371.542-.685 1.129-1.104 1.633-.419.359-.759.713-1.174 1.068-.436.407-.92.315-1.422.346-.995-.797-1.806-1.817-2.286-2.956-.463-1.506-.559-3.099-.69-4.667a37.571 37.571 0 0 0-1.684-7.994c-1.392-4.939-3.578-9.592-5.882-14.159a106.817 106.817 0 0 0-4.106-7.197l-.004-.005Z"/><path fill="#4EC5D9" d="M177.716 25.507c-2.491.03-5.004.67-7.426 1.138-5.118 1.366-9.569 4.216-14.045 6.913-1.554.98-3.303 1.681-4.905 2.596 2.348-4.05 3.439-8.743 5.629-12.845 1.353-2.758 3.041-5.543 5.153-7.723 2.173-2.412 4.241-4.816 6.759-6.786 1.405-1.19 3.045-2.049 4.651-2.925 2.278-1.27 4.59-2.535 7.156-3.1 3.857-1.028 16.729-2.867 14.97 4.208-.536 1.09-1.584 1.843-2.539 2.544-1.527.99-3.198 2.049-4.809 2.793-3.377 1.602-7.452 2.548-9.76 5.718-2.374 2.592-2.618 5.704-.834 7.469Zm1.414-18.922c.218.411.768.6 1.178.363.72-.412 1.497-.7 2.282-.95 1.78-.385 3.334-.963 5.149-.994.414.153.916.223 1.23-.188.589-.775-.235-1.572-1.047-1.559-1.466.035-2.932.232-4.32.718-1.016.294-5.283 1.025-4.476 2.61h.004Zm-1.392.98c.188-1.151-1.719-1.444-1.889-.293-.175 1.156 1.702 1.445 1.889.293Z"/><path fill="#9EF1FF" d="M115.871 323.266c.205-.372.436-.722.624-1.099.122-.109.236-.218.358-.323 1.2-.889 2.435-1.73 3.696-2.522.109-.062.222-.118.327-.184.039-.026.074-.057.109-.088a57.045 57.045 0 0 1 5.524-2.999c4.459-2.333 9.04-3.887 13.517-6.094 3.26-1.607 6.619-3.1 9.53-5.311a43.793 43.793 0 0 0 2.29-1.545c.144 1.576.201 3.165.467 4.724-.004.249 0 .503.022.753-.353.354-.681.77-.973.994-.921.783-1.955 1.405-2.932 2.106-2.304 1.497-4.708 2.863-7.261 3.887-3.87 1.546-8.124 2.693-11.549 5.123-2.343 1.558-4.521 3.314-6.715 5.07-1.964 1.536-3.901 3.471-6.449 3.896h-.066c-.183-.096-.397-.153-.541-.315-.663-1.077-.733-2.566-.619-3.792.148-.775.353-1.549.637-2.285l.004.004Zm26.734-12.057c.209.412.755.622 1.174.39.658-.364 1.335-.696 1.994-1.064.615-.329 1.178-.758 1.736-1.169a.917.917 0 0 0 .759-.617c.232-.688-.493-1.314-1.143-1.121-.794.258-1.365.954-2.107 1.326-.759.596-2.95.964-2.409 2.255h-.004Zm-2.505 2.189a.881.881 0 0 0 1.013-.705.883.883 0 0 0-.703-1.015.88.88 0 0 0-1.012.704.883.883 0 0 0 .702 1.016ZM163.243 252.034l.131-.21.018.171-.048.048c-.035 0-.07-.009-.105-.009h.004ZM63.822 99.536c-.289.022-.577.057-.856.022-1.597-.118-3.298-.578-4.673-1.353-.654-.315-1.3-.674-1.806-1.204-.306-.332-.463-.639-.646-.959 1.457-.074 2.94 0 4.368-.32 2.325-.371 4.668-.94 6.772-2.009-.768 1.345-1.519 2.697-2.291 4.041-.175.412-.563 1.086-.873 1.782h.005Z"/><path fill="#4EC5D9" d="M152.889 265.436A90.697 90.697 0 0 1 142.02 274c-6.833 4.794-14.665 7.683-22.253 10.997-4.991 1.949-9.987 3.984-14.686 6.568-.105.004-.205.017-.306.03-1.064.101-2.138-.066-3.189-.227-.668-.132-1.266-.342-1.82-.701 2.326-2.671 6.746-4.851 8.914-5.705 10.943-4.553 22.34-7.902 32.533-14.067 4.616-2.872 9.346-5.77 13.548-9.224 2.356-2.461 4.734-4.917 6.972-7.487.109-.135.214-.28.319-.42.057.087.1.175.148.267-1.518 2.544-3.351 4.886-5.327 7.097-1.379 1.383-2.64 2.876-3.98 4.299l-.004.009Z"/><path fill="#9EF1FF" d="M156.624 267.673c-1.737 2.312-3.98 4.146-6.135 6.038-1.684 1.493-3.382 2.99-5.184 4.338-2.639 1.997-5.48 3.713-8.368 5.307-3.181 1.856-6.358 3.73-9.696 5.284-3.255 1.756-6.715 3.065-10.035 4.671-4.093 1.922-8.12 4.006-12.003 6.336-2.125 1.339-4.228 2.74-6.244 4.242-1.48.56-3.046.328-4.573.096-.572-.14-1.174-.324-1.64-.7 1.548-2.877 5.179-5.307 7.439-6.799 1.387-1.021 2.823-1.953 4.394-2.658a87.38 87.38 0 0 1 8.32-4.124c8.797-3.8 17.903-7.005 26.232-11.795 3.958-2.329 7.671-5.052 11.227-7.959 2.051-1.681 4.067-3.406 5.746-5.473 2.505-2.6 4.918-5.328 6.873-8.366.362.306.715.63.894 1.068-2.081 3.726-4.856 7.022-7.247 10.485v.009Zm-26.983 16.768a.88.88 0 0 0-1.012.705.883.883 0 0 0 .702 1.016.881.881 0 0 0 1.013-.705.884.884 0 0 0-.703-1.016Z"/><path fill="#4EC5D9" d="M112.193 297.755c4.8-2.662 9.953-4.597 14.848-7.057 3.364-1.603 6.632-3.389 9.835-5.289 2.705-1.541 5.345-3.021 7.889-4.807 2.273-1.594 4.398-3.38 6.471-5.228 2.269-2.009 4.799-4.045 6.614-6.44 2.3-3.323 4.804-6.335 6.855-9.728.314.236.559.569.532.981a1.13 1.13 0 0 0-.039.236 44.887 44.887 0 0 1-4.254 6.996c-4.368 6.152-9.617 11.585-15.093 16.716-4.101 4.085-9.215 6.86-14.167 9.746-5.864 3.196-11.72 6.308-17.431 9.732-4.647 2.837-9.198 5.845-13.487 9.203-.9.652-1.737 1.379-2.54 2.136-.571.272-1.143.526-1.732.762-1.841.565-3.927.639-5.637-.249a.89.89 0 0 0-.297-.486c.1-.316.227-.622.375-.92.938-1.475 2.239-2.683 3.439-3.94 5.135-5.144 11.414-9.019 17.819-12.364Zm-2.352 5.451a.886.886 0 0 0 1.213.236c.742-.486 1.475-.985 2.239-1.44.589-.298 1.152-.749 1.78-.928.475-.005.838-.486.803-.941-.402-1.686-2.304-.276-3.194.21-.895.512-1.741 1.085-2.601 1.646-.397.263-.497.827-.235 1.217h-.005Zm-2.404 2.53a.88.88 0 0 0 1.012-.704.883.883 0 0 0-.702-1.016.88.88 0 0 0-1.012.705.882.882 0 0 0 .702 1.015Z"/><path fill="#9EF1FF" d="M95.9 319.646a49.581 49.581 0 0 0 3.098-3.025c.092-.084.188-.162.28-.246a.85.85 0 0 0 .148-.131c6.278-5.503 13.513-9.851 20.699-14.036 7.164-4.089 14.639-7.679 21.467-12.333 4.494-3.091 8.242-7.124 12.065-10.985 4.869-5.197 9.533-10.748 12.819-17.101.205.048.419.079.62.118.89.399 1.627 1.217 1.754 2.207l-.131.298c-.476 1.177-.838 2.39-1.222 3.598-.079.25-.161.499-.24.745-1.392 3.323-3.067 6.523-5.088 9.522-3.49 5.748-8.128 10.63-12.985 15.214-4.542 4.072-9.9 7.101-15.21 9.973-5.912 3.148-12.073 5.753-18.099 8.66-4.904 2.29-9.835 4.869-13.43 9.028a19.32 19.32 0 0 0-.646.7.99.99 0 0 0-.375.294c-.065.122-.127.249-.188.372-2.53 3.095-4.324 6.782-7.05 9.702-1.62 1.799-3.496.547-3.675-1.642-.178-1.537.402-3.017.939-4.426 1.06-2.443 2.626-4.606 4.454-6.519l-.004.013Zm49.981-29.758a.882.882 0 0 0 1.235.074c1.732-1.418 3.198-3.095 4.804-4.61.947-1.003 1.798-2.088 2.705-3.13.476-.705 1.824-1.572.925-2.448-.789-.639-1.431.302-1.885.872-.981 1.138-1.924 2.324-2.94 3.432-.856.814-1.807 1.725-2.562 2.587-.707.697-1.474 1.318-2.207 1.984a.893.893 0 0 0-.075 1.239Zm-2.085 2.325a.88.88 0 0 0 1.012-.705.883.883 0 0 0-.702-1.016.881.881 0 0 0-1.013.705.884.884 0 0 0 .703 1.016ZM66.173 103.809a59.855 59.855 0 0 1 9.87 5.977c3.037 1.943 5.646 4.461 7.84 7.315a25.41 25.41 0 0 0-2.923-2.666c-5.004-3.831-11.24-5.416-16.99-7.767-5.389-2.132-10.581-4.802-15.533-7.806a106.269 106.269 0 0 1-16-12.605 637.266 637.266 0 0 1-3.378-3.48c-.13-.254-.336-.5-.506-.727-1.898-2.522-3.73-5.18-4.965-8.104-.14-.385-.258-.775-.371-1.169 2.557 3.034 5.781 5.477 8.473 8.345 4.054 4.115 8.138 8.314 12.876 11.646 4.625 3.108 9.15 6.497 14.486 8.283 2.37.928 4.796 1.73 7.121 2.767v-.009Z"/><path fill="#9EF1FF" d="M29.19 92.96c6.973 5.718 14.355 10.933 22.305 15.188 3.87 1.97 7.906 3.665 11.96 5.214 5.345 1.887 10.99 3.065 16.179 5.35 1.82 1.003 3.49 2.338 4.974 3.783.14.184.27.372.406.561-1.833-.465-3.369-1.415-4.996-2.387-1.327-.696-2.71-1.44-4.167-1.803a2.258 2.258 0 0 0-.725-.154 87.257 87.257 0 0 1-12.605-2.872 3.231 3.231 0 0 1-.467-.267.809.809 0 0 0-.637.022c-2.614-.941-5.184-1.966-7.636-3.292-2.932-1.546-5.938-2.982-8.717-4.807-1.497-.998-2.985-2.01-4.495-2.986-8.294-5.333-16.21-11.313-23.352-18.13-.183-.276-.436-.538-.61-.788-1.419-1.629-2.361-3.507-3.561-5.28-1.052-1.611-1.994-3.297-2.657-5.11a20.656 20.656 0 0 1-.773-2.753C15.136 80.163 21.9 86.927 29.19 92.96Z"/><path fill="#4EC5D9" d="M254.256 169.984a140.775 140.775 0 0 0 5.577-9.504 90.368 90.368 0 0 0 3.961-9.777c.345.184.69.359.956.661.593.745 1.108 1.572 1.422 2.478.219.443.328 1.252.555 1.905-.062.464-.131.924-.214 1.383a33.03 33.03 0 0 1-.327 1.699c-.035.083-.07.166-.092.254-.026.101-.031.193-.026.28-1.353 5.687-4.233 10.867-7.309 15.796-3.547 5.276-7.073 11.34-13.146 13.861-.271-.223-.694-.288-1.065-.249-.449-.061-.903-.149-1.318-.346-.82-.32-1.296-1.029-1.562-1.813-.026-.122-.056-.245-.074-.367a.78.78 0 0 0 .026-.224c5.153-5.38 9.914-11.895 12.641-16.037h-.005Zm-2.858 8.954c.349.306.934.284 1.231-.088.75-.932 1.531-1.874 2.003-2.99.183-.42.336-.867.589-1.252.37-.333.48-.898.131-1.292-1.436-1.147-2.051 1.397-2.553 2.325-.24.407-.493.784-.75 1.13-.441.617-1.449 1.422-.651 2.167Zm-2.151 3.345c.463.091.943-.219 1.026-.692a.888.888 0 0 0-.69-1.029.877.877 0 0 0-1.025.692.886.886 0 0 0 .689 1.029Z"/><path fill="#9EF1FF" d="M202.111 111.178c-1.143 2.233-2.923 4.098-4.795 5.748-.476.412-1.038.92-1.505 1.283-.144.109-.314.223-.48.341a95.773 95.773 0 0 1-3.665 1.708c-4.063 1.795-8.186 3.507-12.488 4.632-5.982 1.629-12.139 2.417-18.234 3.498-5.651 1.099-11.423 1.156-17.157 1.292-7.391.179-14.673-.469-21.973-1.471-5.681-.482-11.017-2.058-16.445-3.626-3.26-1.059-6.667-2.044-10.114-2.232a24.514 24.514 0 0 1 2.099-.373c2.635-.083 5.419.294 7.984.657 5.655.709 11.288 1.603 16.952 2.251 7.107.858 14.241 1.86 21.423 1.549 12.645-.398 25.351-2.114 37.393-6.103 2.998-1.029 5.913-2.36 8.744-3.826a.753.753 0 0 0 .175-.092 135.481 135.481 0 0 0 4.917-2.697c2.832-1.567 5.76-2.999 8.456-4.803-.362.788-.772 1.554-1.291 2.259l.004.005Z"/><path fill="#9EF1FF" d="M192.367 112.246c-.706.578-1.391 1.191-2.085 1.786-.288.272-.768.534-1.126.85-4.411 2.346-9.036 4.194-13.884 5.363-7.199 2.022-14.643 3.161-22.069 3.896-5.389.386-10.83.832-16.227.464-2.932-.087-5.847-.385-8.744-.81a204.224 204.224 0 0 1-11.807-1.462c-4.041-.477-8.146-1.059-12.156-1.642a91.281 91.281 0 0 1 3.809-.004c5.772.131 11.519.429 17.261.814 5.65.237 11.209.342 16.868.167 6.445-.202 12.894-.421 19.299-1.231 9.953-1.295 19.87-3.905 28.614-8.935 1.977-1.16 4.063-2.111 5.9-3.476-.869 1.633-2.365 2.937-3.661 4.216l.008.004Z"/><path fill="#4EC5D9" d="M244.426 167.458c-4.83 6.712-10.311 13.191-17.597 17.289-2.78 1.708-5.725 3.231-8.871 4.129-1.431.197-2.858.473-4.298.573-1.038-.126-2.125-.455-2.997-1.033-.886-1.283-1.536-2.74-1.706-4.299 2.465-.937 4.821-2.172 7.099-3.489 3.473-1.8 6.78-3.779 9.883-6.156 1.557-1.125 2.914-2.491 4.341-3.774 4.747-4.102 9.638-8.292 13.33-13.406 2.404-3.016 4.071-6.527 5.873-9.916 1.732-3.384 3.495-6.791 4.603-10.442 1.278-3.734 1.885-7.644 2.313-11.558.174-1.349.279-2.706.322-4.067.847.324 1.567.919 2.195 1.563 1.1 1.296 1.61 2.964 2.125 4.553.109.302.166.705.279 1.055-.065.88-.144 1.756-.213 2.631-2.601 13.257-9.019 25.371-16.681 36.347Zm-19.993 11.265c.066 1.178 2.103 1.055 2.02-.127-.065-1.182-2.107-1.046-2.02.127Zm10.577-9.251c-.677-.022-1.056.67-1.44 1.125-.349.434-.716.85-1.104 1.252-1.182 1.165-2.387 2.312-3.691 3.337-.533.302-1.048.88-.637 1.497.898 1.108 2.046-.495 2.814-1.025a38.541 38.541 0 0 0 4.577-4.645c.593-.464.227-1.515-.519-1.532v-.009Z"/><path fill="#9EF1FF" d="M252.184 137.118c-1.234 3.691-3.08 7.132-4.843 10.586-1.435 2.68-2.849 5.517-4.669 7.938-3.857 5.411-8.857 9.675-13.827 13.997-3.473 3.375-7.526 6.151-11.763 8.449-2.361 1.235-4.625 2.654-7.077 3.709-3.063 1.173-6.31 2.653-9.648 2.237-.532-.075-1.134-.136-1.636-.267-.022-.044-.052-.079-.078-.114a.792.792 0 0 0-.075-.241c-1.749-3.874-1.627-4.921 1.275-7.99a40.297 40.297 0 0 1 8.028-6.392c4.56-3.529 9.752-6.147 14.189-9.833 4.01-3.157 7.544-6.883 10.939-10.661 2.4-2.749 4.887-5.429 6.92-8.476 1.204-1.506 2.095-3.222 3.046-4.895.772-1.265 1.57-2.508 2.216-3.844 1.981-3.918 3.338-8.191 3.548-12.6.135-3.218-.563-6.414-1.226-9.544a78.38 78.38 0 0 0-.611-2.369c.056-.096.109-.197.165-.293.384-.359.943-.447 1.375-.74.493-.258 1.043-.455 1.601-.293.838.127 1.444.683 2.116 1.121.162.341.31.687.441 1.037a24.881 24.881 0 0 1 1.724 5.14c.872 4.282.872 8.713.266 13.034-.393 3.844-1.122 7.648-2.396 11.304Zm-10.65 5.337c-.463-.092-.943.219-1.026.692a.889.889 0 0 0 .69 1.029c.462.091.942-.219 1.025-.692a.889.889 0 0 0-.689-1.029Zm4.834-9.619c-.524.902-.746 1.957-1.274 2.868-.415 1.068-.855 2.119-1.536 3.051-.393.718-1.527 1.682-.55 2.408 1.2.714 1.885-1.497 2.501-2.211.929-1.633 1.57-3.419 2.295-5.148-.018.035-.04.065-.053.092-.022.03-.048.061-.07.092.72-.889-.554-2.005-1.317-1.147l.004-.005ZM199.201 340.613c-2.91-10.442-8.609-19.803-14.142-29.014-3.263-5.766-6.296-11.698-8.408-17.999-1.522-4.649-2.325-9.391-2.744-14.233-.288-4.207-.113-8.485 1.021-12.556.057-.031.113-.057.166-.105.541-.062 1.016-.381 1.505-.6.563-.149 1.217-.223 1.632.158a47.952 47.952 0 0 0-.148 4.942c-.035 2.373-.136 4.86.174 7.207.223 4.01 1.344 7.898 2.579 11.698 1.195 3.231 2.744 6.305 4.429 9.308 1.675 3.38 3.529 6.672 5.436 9.916 5.057 7.688 9.277 15.919 12.994 24.338 1.204 2.741 2.059 5.499 3.19 8.249 1.566 4.474 2.5 9.325 2.478 14.005-.07 1.957-.393 4.208-1.654 5.762-.829.114-1.653-.298-2.238-.867-1.335-1.362-2.138-3.06-2.884-4.785-.018-.031-.035-.053-.053-.079a53.543 53.543 0 0 0-.632-2.855c-.341-2.097-.472-4.229-.93-6.308-.388-2.115-1.13-4.129-1.767-6.174l-.004-.008Zm-.65-12.719c-.659-1.769-1.767-3.305-2.784-4.855-.17-1.138-1.85-.924-1.732.219.283 1.339 1.514 2.22 2.016 3.476.318.6.663 1.186.885 1.83.17.447.716.652 1.143.473.45-.188.638-.696.472-1.143Zm1.195 3.958c-.48-.07-.907.271-.99.74-.083.468.279.924.737.994.48.07.908-.272.991-.74.083-.469-.28-.924-.738-.994Z"/><path fill="#4EC5D9" d="M245.962 124.75c-1.422 4.772-4.105 8.993-6.667 13.209-2.653 3.739-5.585 7.289-8.704 10.66a.389.389 0 0 0-.061.031c-.594.547-1.305 1.252-1.933 1.655-1.619 1.3-4.228 2.163-5.939.595-.318-.346-.558-.722-.79-1.112-.933-7.561-1.653-15.126-2.238-22.731-.266-3.638-.161-7.101-.419-10.709-.061-.77-.166-1.545-.214-2.32.083-.254 0-.582-.165-.775-.21-.25-.454-.355-.685-.363a.882.882 0 0 0-1.074-.079c-.698.446-1.597 1.029-2.195 1.532l-.157.105a1.803 1.803 0 0 1-.039-.188c-.502-1.668-1.213-3.244-1.828-4.855v-.04c.009-.311-.1-.538-.271-.692-.048-.135-.104-.271-.152-.411-.899-1.581-2.261.39-3.033 1.081-.807.749-1.675 1.423-2.552 2.084-.249-1.606-.568-3.222-1.226-4.719-.672-1.362-1.859-.202-2.64.385-1.165.819-2.4 1.541-3.644 2.228-.266-1.081-.597-2.158-1.108-3.152-.166-.315-.349-.635-.698-.775-.393-.162-.833-.009-1.178.202-.716.433-1.344.998-2.02 1.493-1.248.932-2.71 1.506-4.045 2.298-6.34 3.809-13.448 6.296-20.625 7.885-11.078 2.382-22.432 2.561-33.706 2.736-8.304.053-16.424-.753-24.696-.993-5.472-.149-11.131-.425-16.345 1.523-.655.153-1.296.346-1.925.578-1.356.416-2.644.989-3.84 1.813a24.596 24.596 0 0 0-3.93-6.962c-.118-.157-.245-.306-.367-.459l-.013-.035c-.51-1.02-1.026-1.935-1.758-2.772-1.938-2.495-4.298-4.439-6.17-6.939-3.43-4.838-6.536-10.923-4.385-16.878.659-1.987 1.627-3.887 2.605-5.73.336-.605.567-1.213.811-1.739.144-.24.31-.494.327-.77 2.02-3.91 3.901-7.89 5.542-11.992 1.584-4.05 3.242-8.09 4.385-12.29.672-2.6 1.09-5.354 1.64-7.967.38-1.97.598-4.01 1.493-5.832a.677.677 0 0 0-.048.07c.179-.263.21-.521.144-.74 1.461-4.072 3.656-7.867 6.536-11.09 8.404-9.618 22.493-12.232 32.345-3.279 3.839 3.48 6.423 8.135 7.784 13.082a.898.898 0 0 0 .397.525c.515.78 1.811.311 1.601-.652.275-1.235.829-2.377 1.327-3.533 1.745-3 5.934-8.218 9.739-5.595 1.06 1.077 1.069 2.78.541 4.124-.668.972-1.475 1.847-2.047 2.885-.445.801-1.091 1.585-1.187 2.522 0 .1.013.188.031.276.03.416.388.77.807.796a.872.872 0 0 0 .877-.578c.829-.761 1.475-1.68 2.239-2.5 1.527-1.247 3.355-2.057 5.118-2.889a76.31 76.31 0 0 1 2.792-1.598c3.827-2.522 7.898-4.772 12.322-6.042 2.404-.543 4.856-.98 7.317-1.134 4.717.294 9.133 2.168 13.278 4.3 5.803 2.915 10.567 7.412 15.337 11.746.261.236.514.473.767.71.053.083.114.161.175.236.401.608.942 1.05 1.553 1.388.986.95 1.951 1.904 2.924 2.89 1.614 1.488 3.141 3.011 4.533 4.71 4.691 5.547 8.814 11.558 12.562 17.78 2.976 5.245 5.432 10.748 8.111 16.146 3.02 6.287 5.947 12.64 7.78 19.378 1.71 6.046 2.884 12.105.964 18.247l.013.005Zm-143.8-32.135a.88.88 0 0 0 1.012-.71.882.882 0 0 0-.706-1.015.881.881 0 0 0-1.013.709.883.883 0 0 0 .707 1.016ZM90.909 81.639c-.135.626.34 1.151.576 1.694 1.117 2.237 2.592 4.317 4.398 6.05.62.6 1.296 1.13 2.064 1.533.546.376 1.361.858 1.841.114.48-.828-.322-1.292-.96-1.629-2.6-1.528-4.345-4.164-5.733-6.76-.45-.587-.384-1.681-1.283-1.738a.882.882 0 0 0-.903.736Zm15.782-54.416a.873.873 0 0 0-.65.193c-.183.149-.275.35-.314.582-.083.468.318.915.772.968a.873.873 0 0 0 .65-.193c.184-.149.275-.35.314-.582.083-.469-.318-.915-.772-.968Zm13.762-1.839c-2.985-.783-6.257-.945-9.268-.184-.872.29-2.779.298-2.312 1.673a.88.88 0 0 0 1.108.455c.768-.24 1.558-.403 2.334-.613a18.231 18.231 0 0 1 8.033.447c.105.04.218.066.297.149.353.32.907.31 1.235-.04.794-.976-.563-1.755-1.423-1.891l-.004.004Zm8.517 26.146c-.807-6.33-3.146-13.103-8.504-16.952-7.884-5.63-17.143-.057-21.794 7.058-4.08 5.932-6.284 13.051-6.912 20.2-.633 8.468.737 18.034 7.016 24.22 5.467 5.315 13.26 4.374 18.679-.433 9.316-8.306 12.798-21.952 11.511-34.093h.004Zm56.666-1.322c-1.17-.201-1.536 1.896-.354 2.089 1.17.2 1.532-1.896.354-2.089ZM180.029 88.5c.079.74 1.148 1.029 1.566.394.367-.565.712-1.142 1.017-1.742.851-1.756 1.889-3.437 2.321-5.36.764-1.155-.803-2.232-1.474-.989-.511 1.677-1.165 3.284-2.034 4.82-.371.745-.75 1.476-1.195 2.177-.149.21-.236.446-.197.7h-.004Zm-1.457 4.085c.493.061.89-.293.973-.762.083-.473-.306-.92-.76-.976-.493-.062-.89.293-.973.762-.082.472.306.919.76.976Zm-20.394 23.532a.885.885 0 0 0 .973.766c.838-.096 1.68-.175 2.513-.306 2.579-.32 5.153-.736 7.588-1.677 1.701.07 1.077-2.355-.476-1.685-2.216.853-4.529 1.282-6.868 1.558-.986.149-1.976.263-2.967.372a.89.89 0 0 0-.763.977v-.005Zm-3.011.907c.484.065.899-.281.982-.749.083-.469-.288-.924-.746-.985-.485-.066-.899.28-.982.748-.083.469.288.924.746.986Zm-17.702-43.61c-.493-.062-.89.293-.973.76-.083.474.306.92.76.977.493.062.89-.293.973-.762.082-.472-.306-.919-.76-.976Zm6.279-10.005c-.24-.398-.798-.552-1.2-.293-.519.333-.824.897-1.091 1.309-.672 1.094-1.57 2.044-2.142 3.2-.576 1.147-.82 2.408-1.222 3.617-.253.525-.279 1.243.358 1.497.428.17.977-.035 1.135-.486.314-.889.554-1.8.829-2.706.322-1.112.981-2.053 1.679-2.96.467-.621.843-1.304 1.309-1.926.406-.284.624-.8.345-1.256v.004Zm7.021-2.88c-5.751 6.343-10.171 14.18-11.528 22.713-2.653 18.476 12.2 23.672 26.21 14.33 9.377-6.23 16.515-15.98 19.382-26.904 3.944-14.82-4.608-26.514-20.163-20.227-5.354 2.19-10.005 5.854-13.906 10.087h.005Zm32.947-12.588c-.978-.998-1.942-2.075-3.268-2.605-.987-.416-4.194-2.18-4.621-.473-.127 1.117 1.056 1.02 1.815 1.17 1.195.468 2.496.94 3.482 1.79.75.534 1.514 2.194 2.565 1.357.341-.328.363-.897.031-1.239h-.004Zm-20.46-13.02c-.139 1.156 1.833 1.414 1.951.232.139-1.152-1.833-1.414-1.951-.232Zm12.601-5.088c-1.038-.796-2.33.202-3.429.368-1.314.276-2.596.714-3.831 1.244-.729.341-2.16.586-1.724 1.698.463.955 1.48.276 2.173.013.712-.328 1.44-.59 2.186-.823 1.231-.372 2.483-.656 3.705-1.046a.886.886 0 0 0 .955-.215.887.887 0 0 0-.039-1.239h.004ZM164.867 41.19c-3.761 1.283-7.256 3.31-10.302 5.858-.637.718-2.614 1.65-1.693 2.728.969.88 1.868-.727 2.57-1.182 3.063-2.605 6.602-4.654 10.411-5.889 12.365-4.155 25.237 1.918 29.229 14.478 2.178 6.686 1.65 14.085-.846 20.569-.17.446.017.954.467 1.147.427.18.973-.022 1.143-.468 1.108-2.89 1.859-5.92 2.173-9.002 2.203-19.575-13.967-34.788-33.148-28.234l-.004-.005Zm59.139 86.849c.445.105.965-.184 1.048-.653.083-.468-.171-.941-.651-1.05-.445-.105-.964.184-1.047.652-.083.469.17.941.65 1.051Zm-2.6-11.769c.462 2.29.886 4.584 1.357 6.87a.885.885 0 0 0 .999.731.88.88 0 0 0 .724-1.003c-.209-1.199-.514-2.377-.728-3.572-.184-1.134-.415-2.259-.642-3.38.21-.477.048-1.073-.467-1.261-.951-.333-1.431.845-1.243 1.62v-.005Zm2.579-48.19a59.917 59.917 0 0 0-4.94-7.004c-.562-.99-2.072-.158-1.527.845 1.815 2.316 3.556 4.675 5.07 7.206.69.906 2.077-.123 1.401-1.046h-.004Zm.89 2.474c-.476-.074-.912.263-.995.731-.083.469.266.929.729.999.475.074.911-.263.994-.731.083-.469-.266-.929-.728-.999Z"/><path fill="#9EF1FF" d="M207.674 116.821c-1.239 1.222-2.583 2.18-3.958 3.2-.274.285-.754.535-1.16.819-1.431.604-2.854 1.217-4.246 1.909-3.922 1.751-7.958 3.205-11.999 4.663-2.199 1.011-4.703 1.558-6.99 2.215-4.625 1.16-9.285 2.202-13.927 3.31-3.661.74-7.365 1.235-11.052 1.799-2.605.421-5.223.364-7.815.39-3.351.074-6.527.088-9.843-.066-5.673-.306-11.41-.473-16.965-1.777-6.724-1.239-13.068-3.818-19.438-6.222a33.493 33.493 0 0 1-2.954-1.401c-.122-.065-.245-.135-.371-.205-.52-.801-2.374-1.191-3.81-1.371.031-.004.058-.013.088-.017 5.681-.18 11.013 2.154 16.423 3.546 4.351 1.314 8.832 2.045 13.348 2.5 6.239.836 12.518 1.44 18.818 1.309 4.97-.017 9.953-.101 14.901-.63 3.526-.456 7.038-1.051 10.533-1.721 4.76-.792 9.529-1.55 14.15-2.995 3.478-.998 6.82-2.451 10.153-3.857 1.292-.569 2.579-1.16 3.858-1.777.2 0 .397-.048.519-.158.139-.096.275-.201.414-.302 5.284-2.636 10.337-5.779 14.678-9.794-.379 2.465-1.78 4.772-3.346 6.629l-.009.004ZM223.578 191.345a.863.863 0 0 0-.192-.578c-.288-.621-.367-1.313-.314-1.996.17-.083.34-.162.51-.245 2.452-1.143 4.769-2.605 7.038-4.081 8.295-5.862 14.412-14.22 19.687-22.801 3.997-6.541 7.619-13.379 9.962-20.7.445-1.471.916-2.937 1.344-4.413.349.32.667.666.859 1.117.681 1.523 1.313 3.056 1.51 4.715.078.377.022.871.022 1.34-.559 2.548-1.392 5.048-2.178 7.329-1.505 4.168-3.115 8.305-5.462 12.053-3.107 5.66-6.868 10.905-10.913 15.918-1.606 2.006-3.22 3.875-5.053 5.648-3.089 3.275-6.331 6.427-10.432 8.266-1.458.609-3.068.587-4.582.21-.824-.324-1.405-1.002-1.81-1.79l.004.008Zm36.337-41.136c.253-.552.345-1.161.598-1.708a.89.89 0 0 0-.144-1.164c-1.409-.911-1.702 1.278-2.055 2.175-.21.495-.436.981-.698 1.454-.345.455-.48 1.143.078 1.502 1.318.696 1.746-1.432 2.217-2.264l.004.005Zm-3.237 4.513c.462.092.942-.218 1.025-.691a.889.889 0 0 0-.689-1.029c-.463-.092-.943.219-1.026.692a.888.888 0 0 0 .69 1.028ZM207.042 41.325c-3.7-3.384-7.435-6.769-11.646-9.492-3.451-2.005-7.095-3.896-10.926-5.109 2.514-.35 4.97-1.138 7.492-1.414 1.881-.145 3.809-.626 5.607-1.011 4.193-.718 8.613-1.51 12.85-1.283 4.961.411 14.752 2.307 17.091 7.114.868 2.014.549 4.654-1.719 5.521a35.382 35.382 0 0 1-10.865 2.587c-2.457.381-5.341.377-7.308 2.084a2.932 2.932 0 0 0-.581 1.003h.005Zm-7.217-15.223c-.895-.976-2.265.355-1.253 1.24.899.976 2.265-.364 1.253-1.24Zm7.941-1.296h.035a.978.978 0 0 1-.109-.021h-.026c.034 0 .065.013.1.017-1.204-.145-2.435.267-3.648.298-.663.087-1.304.293-1.963.398-.472.079-.812.525-.742.99.065.464.519.823.99.744 1.039-.21 2.069-.456 3.133-.508.733-.048 1.444-.263 2.177-.201.974-.132.96-1.546.057-1.717h-.004ZM212.361 325.132a1.235 1.235 0 0 0-.14-.154c-.951-2.079-1.95-4.141-2.928-6.212-1.675-3.236-3.691-6.287-5.755-9.282-2.644-3.336-5.157-6.773-7.439-10.372-3.46-5.56-7.152-11.059-9.455-17.227-1.388-4.427-2.165-9.089-2.191-13.735a.28.28 0 0 1 .231-.1c.284.035.572.039.856.061.013.004.021.009.035.013.314 1.108.641 2.207.951 3.306.672 1.663 1.4 3.305 2.037 4.986.838 2.01 2.047 3.836 3.055 5.758.96 2.031 2.408 3.752 3.722 5.555a171.763 171.763 0 0 0 5.51 7.544c4.394 5.7 9.595 10.731 13.252 16.974 1.09 1.782 2.312 3.515 3.054 5.481 1.091 2.723 2.147 5.525 2.112 8.502-.114.924-.245 1.87-.493 2.772-.101.07-.197.166-.284.297-2.452.679-4.795-2.482-6.126-4.159l-.004-.008Zm-1.641-12.999c-1.261-1.764-2.801-3.327-4.053-5.083-.576-.985-2.069-.136-1.51.876 1.117 1.694 2.919 3.48 4.18 5.271.702.897 2.068-.149 1.383-1.064Zm1.824 3.008a.883.883 0 0 0-1.078.604c-.231.652-.519 1.633.375 1.9.445.127.965-.14 1.078-.604.205-.688.554-1.598-.375-1.9Z"/><path fill="#4EC5D9" d="M198.08 318.223c-1.82-3.187-3.587-6.405-5.66-9.439a146.73 146.73 0 0 1-5.593-10.136c-2.64-4.54-4.713-9.391-5.93-14.509-1.313-5.218-1.117-10.533-1.073-15.853.026-.42.061-.836.096-1.256.676-.119 1.466-.552 2.063-.285.446.127.555.539.699.924v.149c-.018.127-.018.254.008.381.04 1.935.092 3.866.428 5.779.428 2.74.89 5.512 1.75 8.147.82 2.26 1.81 4.466 2.958 6.572-.004-.009-.013-.022-.018-.031.014.022.022.04.035.062-.008-.014-.013-.027-.017-.035 3.085 5.735 6.623 11.238 10.323 16.597 3.303 4.295 6.571 8.664 9.155 13.441 2.421 5.017 4.956 10.017 6.654 15.341 1.213 3.41 2.172 7.136 1.915 10.752-.113 1.449-.236 3.074-.842 4.413a.923.923 0 0 0-.271.215c-.056.074-.104.149-.196.18-2.539-.079-4.189-3.323-5.127-5.372-.004-.014-.013-.022-.017-.035a52.974 52.974 0 0 0-2.099-5.977c-2.404-6.965-5.847-13.519-9.246-20.034l.005.009Zm-12.34-28.712c-.48-.07-.907.272-.99.74-.083.469.279.924.737.994.48.07.908-.271.991-.74.083-.468-.28-.924-.738-.994Zm4.651 7.736c-.562-.814-.986-1.466-1.505-2.263-.323-.521-.707-1.02-.938-1.589-.004-.534-.449-.994-.995-.92a.884.884 0 0 0-.755.977c.092.923.729 1.663 1.192 2.429a83.972 83.972 0 0 0 1.618 2.43c.271.39.86.442 1.222.162.388-.297.432-.836.161-1.226ZM184.234 260.554a5.89 5.89 0 0 1-1.575 1.581c-.999.801-2.212 1.239-3.499 1.178-1.475-.167-2.958-.272-4.438-.408-1.086-.183-2.116-.595-3.071-1.142-.585-.403-1.021-1.003-1.658-1.336-1.244-.774-1.894-2.132-2.771-3.252-.641-1.244-1.327-2.492-1.763-3.831-.113-1.235.197-2.579 1.204-3.376 2.544-1.878 5.804-2.364 8.853-2.767 3.413-.516 7.161-.63 10.163 1.331.724.587 1.522 1.187 1.95 2.032.17.49.266 1.015.345 1.519a44.388 44.388 0 0 0-1.567 3.406c-.619 1.563-1.078 3.31-1.968 4.746a.818.818 0 0 0-.209.319h.004Zm-2.858-3.117c-.48-.07-.907.272-.99.74-.083.469.279.924.737.994.48.07.908-.271.991-.74.083-.468-.279-.924-.738-.994Zm2.474-5.521c-1.077-.398-1.453 1.025-1.584 1.822-.187.691-.527 1.558.398 1.869 1.117.263 1.208-1.125 1.383-1.891.048-.228.165-.438.261-.648.21-.429-.039-.968-.458-1.152ZM230.992 70.803c-.157-.285-.31-.574-.471-.863-3.735-6.155-7.806-12.131-12.444-17.635-1.571-1.891-3.303-3.638-5.07-5.345.907.332 1.802.7 2.683 1.015 3.046 1.108 6.034 2.286 9.154 3.161 3.168 1.336 6.427 2.434 9.49 4.015 1.501.823 2.915 1.883 4.228 2.968.912.858 1.514 1.984 2.269 2.977 1.204 1.717 1.802 3.901 1.292 5.968-.733 1.817-2.998 1.782-4.652 1.904-2.007.097-4.529-.46-6.078 1.139-.161.214-.301.45-.405.7l.004-.004Zm3.037-11.392c1.754 1.248 3.294 2.876 4.394 4.733.235.332.091.8.432 1.081.667.63 1.688-.122 1.496-.954-.598-1.905-2.125-3.34-3.438-4.781-.58-.56-1.235-1.03-1.876-1.51-.384-.285-.947-.176-1.218.21-.275.385-.174.932.21 1.22Zm-1.043-2.526c-.471-1.077-2.06-.399-1.61.678.467 1.077 2.059.403 1.61-.678Z"/><path fill="#9EF1FF" d="M24.805 80.881c3.102 3.135 6.021 6.467 9.368 9.352 5.022 4.374 10.34 8.485 16.135 11.777 4.813 2.627 9.704 5.122 14.866 6.987 4.878 1.931 10.075 3.398 14.355 6.541a24.59 24.59 0 0 1 3.835 3.582c-.1-.079-.2-.154-.296-.232-2.627-2.216-6.017-3.131-9.237-4.12-3.282-1.003-6.641-2.014-9.879-3.087-4.416-1.747-8.901-3.515-13.029-5.866C40.3 99.926 30.56 92.461 21.864 83.963c-.096-.42-.454-.643-.711-.972.013.014.022.022.03.035.005.01.013.014.044.049-1.436-1.752-2.452-3.792-3.351-5.858-.75-1.703-1.484-3.406-1.929-5.21-.048-.215-.113-.43-.174-.64 1.09 1.406 2.199 2.776 3.442 4.046 1.868 1.813 3.805 3.56 5.585 5.464l.005.004Z"/><path fill="#9EF1FF" d="M8.94 176.158c1.397-4.781 3.029-6.033 2.243-11.458.035-1.169.236-2.368.842-3.384a8.942 8.942 0 0 0 1.265-4.107c-.135-3.012-.62-6.221.664-9.058.868-1.528 1.946-2.947 2.443-4.637.463-1.506.559-3.13.35-4.697-.01-.07-.018-.14-.031-.21-.03-.219-.075-.434-.118-.648-.009-.035-.013-.07-.022-.105-.013-.053-.017-.106-.03-.154a3.205 3.205 0 0 1-.053-.157c-.048-.18-.091-.359-.148-.534a2.58 2.58 0 0 0-.166-.469c-1.021-2.811-3.076-5.363-4.446-7.994-1.24-2.763-2.426-5.539-3.08-8.503-.55-1.917-1.06-3.857-1.17-5.858-.214-2.942-.785-5.91-1.008-8.839-.057-3.875-.454-7.675-.423-11.523-.166-4.588-.672-9.15-.655-13.743-.017-1.79-.126-3.577-.2-5.363a68.38 68.38 0 0 0 6.305 8.375c6.592 7.128 14.163 13.226 22.056 18.835 2.862 2.106 5.938 3.905 8.87 5.915 1.497 1.024 3.011 2.022 4.604 2.885 3.137 1.72 6.318 3.38 9.555 4.899 2.863 1.208 5.73 2.128 8.622 3.156 2.025.775 4.062 1.524 6.034 2.422 1.257.464 2.13 1.457 3.06 2.377.344 1.699.758 3.384.998 5.1.498 3.713 1.34 7.364 2.252 10.994-2.745-.377-6.14-.801-8.504.77-1.545 1.064-2.666 2.623-4.185 3.722-1.697 1.191-3.77 1.755-5.812 1.86-1.823.084-3.617-.359-5.392-.739-4.268-.727-8.356-2.321-12.222-4.234-4.058-1.997-7.409-5.179-11.571-6.974-3.605-2.093-5.284 1.247-5.747 4.417-.72 4.207 1.405 8.13 3.98 11.287 1.732 2.22 3.477 4.474 5.628 6.304 4.115 3.949 10.856 6.546 13.107 11.953.882 2.171.218 4.645-.423 6.799-1.697 3.402-5.188 4.374-4.42 9.084.572 3.963 2.723 7.434 5.332 10.385 3.835 4.759 8.604 7.005 14.25 8.927 4.407 1.681 8.862 3.231 13.3 4.838 2.133 1.007 4.468 1.939 6.366 3.332.938.674 1.797 1.44 2.605 2.263.117.171.275.315.44.451.31.337.611.683.904 1.038 1.073 1.226 1.941 2.679 3.368 3.537.707.451 1.51.718 2.3.977.204.092.444.166.676.183.266 1.489.536 2.982.82 4.466-.013.14-.009.285 0 .42.1 2.181.135 4.4-.742 6.445-1.03 2.925-2.618 6.007-5.467 7.482-.598.35-1.226.666-1.907.81-.253.035-.55.07-.824.136-3.286-.731-6.593-1.633-9.587-3.148-4.01-1.672-8.01-3.24-11.911-5.07-7.413-3.297-14.573-7.57-21.371-11.895-2.444-1.519-4.918-2.968-7.235-4.676-2.478-1.878-4.904-3.822-7.339-5.757-3.931-3.06-7.819-6.335-11.257-9.934a62.996 62.996 0 0 1-4.438-5.346c-.24-.293-.362-.678-.628-.937-.45-4.505-1.09-9.001-1.112-13.537a.937.937 0 0 0 .07-.411c-.118-.911.126-1.874.318-2.745h.017Zm30.23-65.252c2.73 1.743 5.602 3.236 8.682 4.238.44.18.96-.096 1.113-.534.388-1.427-1.964-1.418-2.82-1.948-2.102-.863-4.07-2.005-5.994-3.201-.96-.617-1.916.78-.982 1.45v-.005Zm-2.706-2.504c.454.096.955-.201 1.038-.67.083-.468-.192-.937-.667-1.042-.454-.096-.956.202-1.039.67-.083.468.192.937.668 1.042Zm14.975 112.714c.353.718.523 2.163 1.636 1.817.436-.157.702-.678.523-1.121-.353-.718-.523-2.162-1.636-1.816-.436.157-.698.683-.523 1.12Zm-13.444-6.554c1.82 1.603 4.132 2.562 6.192 3.827.702.381 1.413.74 2.112 1.121.584.35 1.418.928 1.933.153.248-.385.152-.972-.258-1.213-1.086-.635-2.212-1.199-3.32-1.795-1.772-1.094-3.735-1.953-5.358-3.262-.768-.836-2.056.316-1.3 1.174v-.005Zm-6.75-54.949c.048 1.313 1.955 1.147 1.741-.154-.043-1.313-1.967-1.147-1.74.154Zm-7.02-8.485c1.448 2.123 2.766 4.374 4.695 6.107.798.81 2.046-.372 1.265-1.208-2.003-1.799-3.316-4.181-4.856-6.361.074-1.314-1.798-1.244-1.794.022-.017.551.389 1.02.69 1.44Z"/><path fill="#4EC5D9" d="M5.668 113.621a30.26 30.26 0 0 0 1.213 6.593c.585 2.246 1.174 4.483 2.203 6.576 1.183 3.38 3.447 6.195 5.053 9.365.183.372.345.722.476 1.077.187.661.331 1.34.41 2.031.035.753 0 1.506-.153 2.242-.2.613-.113 1.519-.729 1.869-1.282.464-2.718.517-4.057.421-1.724-.272-3.033-1.353-4.11-2.667-4.032-5.069-4.892-12.144-3.788-18.388.646-3.218 1.689-6.357 3.482-9.119Zm-.022 20.52a.884.884 0 0 0 1.012-.709.886.886 0 0 0-.707-1.016.884.884 0 0 0-1.012.709.886.886 0 0 0 .707 1.016Zm-.803-3.485c1.157-.333.445-1.559.354-2.364-.227-1.769-.192-3.415-.03-5.131-.106-.46-.586-.771-1.048-.657-.624.149-.816.836-.807 1.405.07 1.235-.406 7.158 1.531 6.747ZM179.929 205.697c1.474 1.589 2.7 3.892 1.745 6.05-1.401 2.925-3.892 5.464-7.003 6.489-4.385 1.405-8.884-.732-13.038-2.058-6.898-2.758-14.787-4.308-21.999-1.848-5.485 2.163-5.057 7.364-9.333 9.991-.506-.171-1.209.232-1.746.377-1.889.604-3.913.722-5.886.665-2.334.088-4.821-.678-6.274-2.6 0-.456-.196-.732-.458-.859-.45-2.057-.886-4.119-1.292-6.186-2.74-12.101-4.852-24.412-6.981-36.618-1.641-9.54-3.648-19.014-5.498-28.515.022-.21.04-.42.083-.608.646-2.465 2.54-4.453 4.678-5.74 5.759 1.707 10.655 4.951 13.469 10.612 1.518 2.548 2.129 5.582 4.01 7.92 3.299 4.177 8.792 5.464 13.879 5.21 4.18-.039 8.513-.381 12.65.241 5.323.797 10.659 2.272 15.419 4.829 2.313 1.366 4.486 3.004 6.24 5.052 2.286 2.216 2.216 3.214.838 5.998-.873 2.286-1.144 4.79-1.174 7.229.061 2.557.938 5.03 2.077 7.294 1.409 2.688 3.634 4.794 5.594 7.07v.005Zm-60.99-48.111c-1.331-1.708-2.09-3.809-3.508-5.464-1.183-1.423-2.71-2.5-4.311-3.389-.38-.193-.759-.446-1.2-.438-.476.035-.829.495-.786.955.04.416.363.722.755.779a.704.704 0 0 1-.235-.066c1.749.828 3.399 1.971 4.616 3.49 1.335 1.72 2.033 3.638 3.382 5.31.781.832 2.037-.302 1.291-1.182l-.004.005Zm1.64 3.095a.883.883 0 0 0-1.003.722.881.881 0 0 0 .72 1.007.883.883 0 0 0 1.003-.722.881.881 0 0 0-.72-1.007Zm50.038 33.777c-.584-1.497-.755-3.073-.549-4.663.008-1.151-1.68-1.204-1.746-.057-.231 1.839.009 3.608.655 5.32.414 1.068 2.002.49 1.64-.604v.004Zm.424 2.531a.883.883 0 0 0-1.004.722.882.882 0 0 0 .72 1.007.882.882 0 0 0 1.003-.722.881.881 0 0 0-.719-1.007Z"/><path fill="#9EF1FF" d="M147.805 67.068s.013-.022.022-.03a.097.097 0 0 1-.017.026v.004h-.005ZM244.522 96.323c-.232.263-.428.569-.463.871a4.537 4.537 0 0 0-.475-.149c-1.986-5.205-4.604-10.157-7.008-15.179a139.882 139.882 0 0 0-3.364-6.917c.694.28 1.423.495 2.09.819 1.519.831 2.862 1.94 4.219 3.007 3.177 2.036 5.581 4.978 6.506 8.7.65 1.948.764 4.159.201 6.133-.249.605-.445 1.261-.899 1.747-.266.298-.641.63-.803.968h-.004Zm-4.695-14.78c-.445-.101-.96.192-1.043.66-.083.469.179.937.659 1.047.445.1.96-.193 1.043-.661.083-.469-.179-.937-.659-1.047Zm4.097 5.31a19.873 19.873 0 0 0-1.418-2.185c-.733-.875-2.051.188-1.353 1.103.659.95 1.383 1.91 1.684 3.043.053.591.24 1.31.973 1.279 1.576-.237.537-2.36.118-3.24h-.004Z"/><path fill="#4EC5D9" d="M3.037 155.725c.332.622.698 1.191 1.1 1.681.925 1.226 2.312 2.141 3.848 2.29.624 2.64 1.597 5.416.986 8.126-2.487.735-4.677-1.156-5.79-3.236-.842-1.76-.89-3.8-.772-5.704-.009-1.174.253-2.168.628-3.157Zm2.239 6.97a.884.884 0 0 0 1.012-.709.886.886 0 0 0-.707-1.016.884.884 0 0 0-1.012.709.886.886 0 0 0 .707 1.016Z"/><path fill="#9EF1FF" d="M88.487 188.863c-1.461-8.178-3.08-16.33-4.441-24.526-.969-5.114-2.12-10.359-2.902-15.477-.48-3.266-.955-6.344-1.863-9.492-.833-3.056-1.436-6.322-2.042-9.395-.157-1.786-.554-3.538-.925-5.289.76 1.217 1.636 2.364 2.697 3.328 2.286 1.996 5.384 3.226 8.434 3.016 2.775-.333 5.423-1.624 7.588-3.367l-.022.013-.044.031c.205-.158.406-.302.602-.442.218 1.02.602 2.018.812 3.043 1.025 5.236 2.365 10.455 3.106 15.721l.904 4.562c-.075.333-.175.662.078.977a.97.97 0 0 0 .144.149 4189.128 4189.128 0 0 1 4.307 22.004c2.242 11.576 3.852 23.27 6.409 34.784 1.715 7.96 3.251 15.954 5.227 23.852.677 2.955 1.384 5.902 2.191 8.826.301 1.082.702 2.167 1.056 3.236-.899 1.449-2.601 2.241-4.172 2.78-2.011.499-4.101.735-6.169.6-.838-.027-1.676.109-2.513.026a32.929 32.929 0 0 1-3.413-.933c-1.357-.674-2.74-1.475-3.918-2.425-.37-.385-.694-.814-1.043-1.217a.92.92 0 0 0-.078-.342c-.772-1.869-1.383-3.796-1.728-5.792a451.79 451.79 0 0 1-2.622-12.788.826.826 0 0 0-.114-.609c-2.199-11.567-4.005-23.217-5.554-34.85l.008-.004Zm12.187-17.044c.454.096.956-.201 1.039-.674.083-.469-.192-.937-.672-1.042-.454-.097-.956.201-1.039.674-.083.468.192.937.672 1.042Zm-2.853-10.337c.283 1.537.558 3.078.855 4.615a.883.883 0 0 0 1.02.696.886.886 0 0 0 .695-1.025c-.175-.915-.345-1.834-.515-2.749-.441-2.872-1.327-5.648-1.71-8.529-.088-.713.165-1.676-.83-1.799a.888.888 0 0 0-.942.801c-.04 2.719.964 5.333 1.427 7.99ZM9.015 145.327c.118.035.249.066.384.096a.937.937 0 0 0 .375.482c.362 1.081.62 2.185.855 3.297.38 2.193.947 4.461.59 6.689-.145.53-.228 1.165-.655 1.546-1.1.586-2.487.753-3.617.153-3.988-2.592-4.656-10.021-4.726-14.408.018-1.161.319-2.29.76-3.35 1.387 2.426 3.28 4.768 6.034 5.495Zm-3.805 4.868c.777.872 2.234-.455 1.44-1.313-.772-.867-2.234.455-1.44 1.313Z"/><path fill="#4EC5D9" d="M85.415 181.871c1.475 6.834 2.112 13.795 3.268 20.682.572 3.599 1.14 7.185 1.737 10.762-.175.205-.34.416-.58.551-.786.412-1.693.626-2.522.202a6.557 6.557 0 0 1-2.3-1.773l-.043-.027a9.667 9.667 0 0 0-.515-.499c-3.05-2.832-6.92-4.571-10.773-6.02a238.344 238.344 0 0 1-10.599-3.848c-2.792-.95-5.554-2.023-8.176-3.371-4.207-2.509-8.029-6.712-10.11-11.151-3.975-10.031 3.857-6.173 4.228-17.018.04-4.146-3.185-7.368-6.283-9.689-4.237-3.043-8.705-5.954-11.86-10.196-1.78-2.29-3.76-4.514-4.664-7.316-.776-2.522-.724-5.7 1.017-7.793.419-.394.907-.123 1.361.057 3.308 1.287 6.013 3.594 8.997 5.442 4.425 2.657 9.268 4.785 14.325 5.853 2.12.394 4.22 1.016 6.388 1.055 3.818.132 7.552-1.528 10.044-4.408.711-.688 1.44-1.423 2.339-1.839.414.013.89-.101 1.27-.097 1.95.215 3.966 1.099 5.096 2.741a11.91 11.91 0 0 1 1.348 2.137c.192.363.458.906.79 1.296.323 2.062.615 4.115 1.008 6.208 1.897 9.321 3.486 18.694 5.21 28.05v.009Zm-.829 17.145c.454.096.956-.202 1.039-.674.083-.469-.192-.937-.672-1.042-.454-.097-.956.201-1.039.674-.083.468.192.937.672 1.042Zm-3.39-15.858c.628 3.376 1.248 6.751 1.772 10.14.074.473.567.784 1.02.696.48-.092.764-.552.694-1.024-.279-1.809-.585-3.612-.912-5.416-.296-1.572-.55-3.157-.86-4.729a.88.88 0 0 0-1.02-.696c-.463.088-.79.565-.694 1.025v.004Z"/><path fill="#fff" d="M102.83 86.81c-9.604-5.377-10.594-20.105-8.613-29.82 1.282-6.252 3.835-12.368 8.102-17.162 5.402-6.235 13.862-8.424 19.687-1.485 6.968 8.752 6.532 21.935 3.181 32.066-2.932 8.949-11.676 21.269-22.357 16.4Zm15.856-28.918a3.104 3.104 0 0 1-.838.56 3.729 3.729 0 0 1-.807.24c-.559.11-1.122.032-1.654-.152a3.342 3.342 0 0 1-1.392-.96 4.242 4.242 0 0 1-.593-.875 3.176 3.176 0 0 1-.301-1.112 2.994 2.994 0 0 1 .022-.814c.013-.07.026-.14.048-.215.061-.219.131-.433.248-.63.083-.136.166-.271.258-.398.192-.268.397-.526.624-.767.227-.245.471-.494.755-.674a3.26 3.26 0 0 1 1.518-.481c-3.848-6.524-11.406-6.182-16.201.713-2.099 2.951-3.416 6.405-4.04 9.97-.1.577-.188 1.155-.249 1.737-.384 3.441-.148 6.996 1.012 10.271 1.554 4.755 5.961 8.765 11.166 6.975 8.238-3.166 11.763-14.667 10.428-23.397l-.004.009ZM179.112 52.314c9.433 7.014 3.403 23.59-2.186 31.422-5.24 7.521-12.645 14.356-21.764 16.348-11.96 2.294-16.205-7.912-13.923-18.126 1.108-5.341 3.49-10.35 6.536-14.842 4.119-5.976 9.56-11.264 16.105-14.412 4.721-2.233 10.664-3.468 15.236-.386l-.004-.004Zm-20.337 12.771c-4.8 1.27-8.635 4.912-11.349 8.958-1.881 2.867-3.325 6.129-3.923 9.526a18.958 18.958 0 0 0-.283 4.068c.166 6.72 5.192 11.067 11.798 8.83 7.007-2.513 11.907-9.25 13.936-16.238.083-.272.157-.543.227-.819-.039 0-.078-.009-.118-.013-.048-.009-.096-.013-.144-.022-.27.066-.558.057-.829 0a4 4 0 0 1-1.104-.429c-.575-.315-1.103-.797-1.348-1.423a3.216 3.216 0 0 1-.166-1.72c.014-.066.027-.136.044-.202.1-.403.236-.81.458-1.16a2.83 2.83 0 0 1 .816-.81c.153-.105.31-.201.48-.276.214-.096.423-.175.646-.236a3.43 3.43 0 0 1 .663-.105c.336-.03.689 0 1.021.079-.672-5.302-4.101-9.536-10.821-8.017l-.004.009Zm9.8 11.046a.075.075 0 0 1-.018.03c.005-.008.009-.017.018-.03Z"/><path fill="#9EF1FF" d="M119.593 231.256c.471-.788.55-1.611 1.265-2.128.384-.258.572-.459.952-.608 1.108-.324 2.186-.587 3.276-.876 3.111-.319 6.279-1.313 8.408-3.717 2.051-2.114 2.671-5.38 5.158-7.088 2.077-1.467 4.699-1.681 7.16-1.913 5.188-.39 10.223.95 15.014 2.819 4.965 1.673 10.577 4.124 15.682 1.646 3.237-1.514 6.462-4.89 7.199-8.454.524-3.612-2.343-6.291-4.547-8.734-4.738-4.908-6.392-10.831-4.132-17.364 1.043-2.009 1.846-4.645.105-6.51-1.636-1.961-3.425-3.813-5.533-5.267-5.633-3.975-13.255-5.971-20.036-6.768-4.289-.421-8.604-.031-12.902-.053-5.17.079-10.607-2.329-12.522-7.434-3.312-8.865-8.382-14.119-17.667-16.51-.938-.311-4.124-1.042-5.974-.862a79.098 79.098 0 0 0-.785-3.923c-.122-.517-.236-1.029-.35-1.545a.91.91 0 0 0 .084-.596c-.087-.534-.266-1.072-.131-1.615.157-.596.423-1.069.689-1.55.633-.959 1.641-1.511 2.679-1.892.253-.048.524-.091.76-.179 9.197 3.686 18.897 6.116 28.823 6.462 7.169.377 14.39.565 21.542-.009 4.001-.608 7.945-1.121 11.903-1.922 5.642-1.331 11.37-2.583 16.947-4.128 1.793-.381 3.434-1.191 5.148-1.804 4.259-1.524 8.5-3.1 12.606-5.009.733-.38 1.488-.718 2.247-1.042.345.014.716-.183 1.078-.446.811-.329 1.632-.644 2.443-.968 3.26-1.431 6.34-3.209 9.298-5.183.559-.39 1.078-.837 1.65-1.209a.115.115 0 0 0 .026-.017c.013.284.039.556.048.779.039 2.123-.083 4.256.091 6.375.507 7.486.171 15.056-1.583 22.372-1.165 4.947-2.514 9.877-4.743 14.452-1.471 2.977-2.98 5.937-4.905 8.651-.261.508-.964 1.007-1.335 1.541-.358.236-.711.477-1.069.709-2.046 1.528-3.918 3.288-5.676 5.14-.895 1.055-1.794 2.189-2.173 3.542-.559 2.001.506 3.962 1.213 5.784.008.021.021.039.035.061 0 .079 0 .158.017.241.798 1.383 2.544 2.036 4.005 2.517 2.614.687 5.516.188 7.702 2.045 2.443 2.863 4.699 2.644 7.915 3.743 3.992 1.528 5.955 4.956 6.863 8.944.026.232.113.473.244.675.009.761.027 1.515.057 2.263.009 1.979-.078 3.954.074 5.928a97.756 97.756 0 0 0 .266 9.172c.306 4.019-.017 8.065.52 12.075-1.41 1.112-2.854 2.154-4.551 2.776-2.47 1.199-5.049 2.145-7.693 2.889-3.036.946-5.995 2.146-9.058 2.995-2.181.56-4.376 1.046-6.584 1.493-6.575.827-13.09 1.804-19.657 2.671-6.003.634-12.016 1.059-18.033 1.51-3.936-.009-7.871.258-11.803-.031-2.744-.078-5.48-.306-8.216-.556-.44-.188-.999-.271-1.361-.42-1.348-.429-2.548-1.029-3.831-1.567-5.799-2.413-11.013-6.384-14.333-11.76.043-.184.048-.39 0-.608l-.009-.005Zm31.891-92.172a25.548 25.548 0 0 1-3.067.192c-.991.009-1.985.031-2.924.031-.65-.066-1.496-.035-1.557.797 0 1.296 1.601.893 2.452.941 1.736-.03 3.482.04 5.205-.21a.933.933 0 0 0 .607-.302c.502-.539.03-1.537-.716-1.445v-.004Zm3.844-.499c-.458-.092-.947.214-1.025.687-.083.469.209.937.685 1.029.458.092.947-.215 1.03-.687a.89.89 0 0 0-.685-1.034l-.005.005Zm48.69 22.271c.353.285.951.25 1.226-.14 2.43-3.161 3.888-6.904 5.258-10.617.205-.613.327-1.252.454-1.887.074-.394.257-.67.113-1.051-.236-.713-1.357-.753-1.619-.035-.659 3.118-1.972 6.038-3.311 8.923a26.436 26.436 0 0 1-1.519 2.544c-.414.661-1.449 1.528-.602 2.263Zm-2.618 4.059c.48.074.912-.267.995-.736.083-.468-.271-.928-.733-.998-.48-.074-.912.267-.995.735-.083.469.27.929.733.999Zm17.942 59.13a.882.882 0 0 0 1.012-.709.887.887 0 0 0-.707-1.016.884.884 0 0 0-1.012.71.886.886 0 0 0 .707 1.015Zm-.083-4.64c1.217-.031.912-1.594.986-2.43-.035-1.279-.065-2.329-.044-3.555.013-.924-.122-1.681-.065-2.509.31-.438.323-1.068-.17-1.383-.825-.517-1.51.451-1.567 1.208.005 1.918.061 3.844.096 5.766.179.946-.641 2.727.764 2.903Zm-67.251 1.606a.883.883 0 0 0 1.003-.722.882.882 0 0 0-.72-1.007.883.883 0 0 0-1.003.722.881.881 0 0 0 .72 1.007Zm-12.636-.271c.039.74 1.086 1.081 1.536.477.523-.823 1.453-1.34 2.399-1.493a18.446 18.446 0 0 1 3.212-.052c.676.1 1.566.262 1.741-.635.074-.464-.249-.941-.72-1.007-.973-.145-2.09-.175-2.985-.14-1.854-.07-3.988.617-5.004 2.228a.902.902 0 0 0-.179.618v.004Z"/><path fill="#000" d="M184.833 70.671c-2.871 10.924-10.005 20.674-19.382 26.904-14.011 9.343-28.863 4.146-26.21-14.33 1.357-8.537 5.781-16.374 11.528-22.713 3.9-4.234 8.552-7.903 13.905-10.087 15.555-6.283 24.103 5.411 20.163 20.226h-.004Zm-37.027-3.603v-.004a.1.1 0 0 1 .017-.026c-.008.008-.013.022-.022.03h.005Zm-.031.044c-3.045 4.492-5.428 9.496-6.536 14.842-2.282 10.218 1.964 20.419 13.923 18.125 9.12-1.992 16.524-8.826 21.764-16.348 5.59-7.832 11.62-24.403 2.186-31.421-4.572-3.083-10.511-1.843-15.236.385-6.545 3.143-11.986 8.437-16.105 14.413l.004.004ZM117.459 85.623c-5.419 4.811-13.212 5.752-18.68.433-6.282-6.186-7.648-15.752-7.016-24.22.629-7.149 2.832-14.268 6.912-20.2 4.651-7.115 13.906-12.688 21.794-7.058 5.359 3.849 7.693 10.626 8.504 16.952 1.288 12.14-2.194 25.787-11.51 34.093h-.004Zm4.542-47.28c-5.825-6.943-14.281-4.754-19.687 1.485-4.267 4.798-6.816 10.91-8.103 17.162-1.985 9.715-.99 24.443 8.613 29.82 10.682 4.868 19.421-7.452 22.358-16.401 3.351-10.131 3.787-23.314-3.181-32.066Z"/><path fill="#000" d="M195.845 78.43c-.17.446-.716.647-1.143.468-.45-.193-.637-.7-.467-1.147 2.496-6.484 3.024-13.879.846-20.569-3.988-12.56-16.864-18.633-29.229-14.478-3.805 1.235-7.344 3.288-10.411 5.889-.702.45-1.601 2.062-2.57 1.182-.925-1.077 1.056-2.01 1.693-2.728 3.046-2.548 6.541-4.575 10.302-5.858 19.181-6.55 35.355 8.66 33.147 28.235-.314 3.082-1.064 6.111-2.172 9.001l.004.005ZM168.575 73.018a3.439 3.439 0 0 0-.663.105c-.223.061-.432.14-.646.237-.17.074-.323.175-.48.275a2.83 2.83 0 0 0-.816.81c-.222.35-.362.758-.458 1.16-.017.066-.03.136-.043.202a3.216 3.216 0 0 0 .165 1.72c.245.627.768 1.104 1.349 1.424.344.188.72.35 1.103.428.271.053.559.066.829 0 .048.01.096.014.144.022l.118.014c-.07.275-.144.547-.227.818-2.029 6.992-6.928 13.726-13.936 16.239-6.606 2.237-11.628-2.106-11.798-8.831a19.218 19.218 0 0 1 .283-4.067c.598-3.398 2.042-6.655 3.923-9.527 2.714-4.045 6.549-7.688 11.349-8.958 6.719-1.519 10.144 2.715 10.821 8.017-.332-.08-.681-.11-1.021-.08l.004-.008Z"/><path fill="#000" d="m168.57 76.131-.017.03c.004-.008.009-.021.017-.03ZM108.253 81.288c-5.21 1.791-9.617-2.22-11.166-6.974-1.156-3.28-1.396-6.834-1.012-10.271.066-.582.148-1.16.249-1.738.628-3.564 1.942-7.023 4.04-9.97 4.8-6.89 12.357-7.232 16.201-.713a3.162 3.162 0 0 0-1.518.482c-.284.18-.528.429-.755.674-.227.245-.432.5-.624.766a7.552 7.552 0 0 0-.258.399 2.49 2.49 0 0 0-.248.63c-.018.07-.035.14-.048.215a3 3 0 0 0-.022.814c.039.385.131.762.301 1.112.157.32.362.604.593.876.376.442.856.757 1.392.958.533.184 1.095.263 1.654.154.279-.053.545-.127.807-.241a3.293 3.293 0 0 0 .838-.56c1.335 8.73-2.195 20.23-10.428 23.396l.004-.009Z"/><path fill="#000" d="M1.108 119.724c.598-2.264 1.531-4.409 2.71-6.427.418-.714.885-1.463 1.631-1.87-.375-2.771-.811-5.547-.785-8.353-.131-3.367-.388-6.76-.38-10.153-.484-7.01-.746-14.036-.881-21.063-.244-.355-.192-.714 0-.977.187-.985 1.706-.875 1.723.18v.118c.441.653.76 1.401 1.196 2.054.026.043.057.087.087.13.131-1.404.576-2.753.847-4.14.035-.736.802-1.288 1.457-.885.894.766 1.405 1.913 2.155 2.82.66.888 1.31 1.786 1.964 2.674.017-.6.074-1.142.118-1.444.104-1.178.008-2.395 0-3.577-.044-1.03.44-2.356 1.619-1.647 1.596 1.572 2.753 3.534 4.25 5.202a31.455 31.455 0 0 0 1.548 1.694c.044-1.554.183-3.104.28-4.654.048-.407.283-.775.698-.884.506-.136.885.201 1.19.556.72.832 1.336 1.747 2.043 2.587a43.043 43.043 0 0 0 2.696 2.81c1.628 1.656 3.46 3.096 5.07 4.769 2.448 2.478 4.809 5.048 7.427 7.35.392.35.79.701 1.19 1.051.197-.21.459-.39.712-.508a14.729 14.729 0 0 1 2.448-1.195c1.946-.617 3.984-.893 6.012-1.064 4.355-.376 8.688-.941 13.034-1.488 3.285-.36 6.58-1.537 9.56-3.017.929-.477 1.71-1.252 2.626-1.738.45-.902.895-1.808 1.327-2.723 3.023-6.445 5.798-13.051 7.805-19.89.716-2.762 1.118-5.468 1.71-8.274.22-1.314.442-2.64.813-3.919 0-.07.008-.144.026-.214.227-.788.48-1.568.759-2.343 1.012-2.802 2.347-5.494 4.018-7.963 9.7-14.816 29.732-18.388 41.05-3.358a28.145 28.145 0 0 1 2.286 3.607c1.497-1.633 5.485-3.603 6.349-4.01 3.39-1.765 6.916-3.384 10.651-4.238.672-.092 1.379-.324 2.064-.263.375-.867.772-1.725 1.213-2.566.72-1.41 1.514-2.907 2.426-4.338 1.291-2.001 2.91-3.656 4.511-5.42 2.383-2.776 5.092-5.39 8.264-7.246 2.945-1.598 5.825-3.441 9.102-4.264C183.92.158 188.44-.521 192.708.499c2.448.539 4.76 2.137 4.847 4.855.367 2.299-1.322 4.094-3.05 5.333-1.767 1.195-3.577 2.329-5.51 3.235-2.658 1.244-5.677 2.102-8.02 3.984-1.737 1.669-4.424 5.329-1.226 6.91 2.932.835 6.047-.11 8.94-.732 1.837-.473 3.739-.517 5.598-.858 5.158-1.121 10.433-2.11 15.73-1.98 5.799.369 17.671 2.676 19.412 9.116.633 2.277.157 5.04-1.977 6.348-2.844 1.633-6.139 2.255-9.311 2.934-1.845.442-11.052.376-9.346 3.292.118.11.24.219.358.328.305.298.611.591.916.89 1.034.503 2.234.608 3.294 1.067 3.522 1.283 6.999 2.741 10.599 3.8 1.121.307 2.199.727 3.255 1.213 2.059.81 4.154 1.524 6.139 2.518a23.056 23.056 0 0 1 6.885 4.584c.733.827 1.292 1.795 1.955 2.679 2.369 3.231 3.155 9.273-1.789 10.38-1.501.263-3.05.386-4.577.298-1.025-.013-2.308-.092-3.146.565-.275.504-.384 1.095.153 1.48.728.648 1.728.805 2.6 1.173 1.471.617 2.745 1.633 4.006 2.592.894.696 1.767 1.414 2.705 2.053 1.793 1.244 3.089 3.052 4.163 4.93 1.483 2.798 2.26 6.007 1.898 9.172-.188 1.336-.677 2.697-1.515 3.761-.466.42-.693.871-1.108 1.37-.03.035-.07.07-.105.101.402.228.751.442.982.56 2.287 1.108 4.363 2.772 5.83 4.869.401.639.767 1.3 1.117 1.97.1.153.2.307.292.469a.805.805 0 0 1 .026.175 29.652 29.652 0 0 1 1.497 3.699c.737.263 1.544 1.016 2.011 1.432 2.749 2.381 4.333 5.853 5.14 9.36.812 2.557.921 5.271.672 7.933 1.165.788 2.256 3.586 2.526 4.497 1.061 2.937.956 6.111.506 9.176.28.28.555.714.782 1.357 1.021 2.29 1.583 4.729 1.762 7.207.101.591.188 1.186.245 1.786.152.994.165 2.04-.057 3.043.013.42.131.832-.009 1.252-.131.525-.519.963-.554 1.51-.004.469-.231.85-.428 1.248-1.121 4.956-3.333 9.601-5.964 13.931-2.836 4.716-5.825 9.444-9.7 13.375-3.111 3.201-10.969 7.334-14.625 3.183-2.815 2.443-5.625 4.304-8.164 5.022-1.252.341-2.561.228-3.827.018.009.98.009 1.97.005 2.955-.105 1.952-.057 3.726-.009 5.731.079 2.272-.07 4.684.1 6.978-.052 3.021.031 6.265.297 9.321.253 2.251-.004 4.519.157 6.773-.087 1.892.349 3.757.319 5.644-.035.385-.323.665-.633.862-1.54 1.239-3.155 2.36-5.013 3.047-3.67 1.848-7.662 2.82-11.519 4.173-4.486 1.76-9.137 2.78-13.85 3.515a.862.862 0 0 1-.471.569c-.523.605-.947 1.314-1.488 1.914-2.788 3.721-4.908 7.972-6.405 12.377a10.07 10.07 0 0 1-1.126 2.333c.066 1.489.476 2.933.755 4.396.489 1.747.947 3.498 1.462 5.24.982 2.255 1.771 4.597 2.906 6.782 1.23 2.102 2.26 4.295 3.604 6.326 3.006 3.971 5.751 8.135 8.905 12.005 1.183 1.379 2.313 2.802 3.487 4.186.672.722 1.444 1.471 2.055 2.259 2.229 2.819 4.485 5.613 6.318 8.721 1.461 2.303 2.993 4.597 3.805 7.224.964 2.272 1.666 4.654 1.758 7.136.061 1.725-.288 3.678-.964 5.263-.973 1.484-2.549 2.718-4.412 2.583-.021 0-.039-.005-.061-.005.074.219.153.438.218.661.882 2.671 1.724 5.407 1.842 8.231.109 2.325.061 4.689-.663 6.961-.254.736-.454 1.577-1.052 2.115-1.558 1.09-3.272 1.581-4.957.902.122 1.313.184 2.627.166 3.94 0 1.585-.318 3.385-.99 4.886-.319.867-.729 1.734-1.488 2.299-1.458 1.453-4.071 2.342-5.96 1.252-.297 1.405-.773 2.846-1.484 4.378-2.43 6.502-8.905 7.145-10.511-.123-.445-1.703-.598-3.441-.663-5.192-2.706.346-5.646-1.195-7.444-3.161-1.392-1.41-1.95-3.31-2.186-5.227-1.069.621-3.8-.381-4.577-.924-4.983-2.413-4.372-8.629-6.157-13.095-1.771-4.194-3.988-8.192-6.427-12.031-3.294-5.013-6.405-10.206-9.075-15.586a29.521 29.521 0 0 1-1.139-3.157c-2.326 2.163-5.171 3.735-7.933 5.302-4.808 2.552-10.375 3.454-14.843 6.685-2.326 1.572-4.595 3.424-6.794 5.193-1.414 1.147-2.814 2.329-4.472 3.104-2.919 1.567-6.995.495-8.36-2.64-.188.179-.371.359-.563.53-.397.372-.808.744-1.235 1.099-.009.004-.013.013-.022.017-.925.766-1.933 1.436-3.089 1.778-1.632.542-3.465.713-5.014-.149-.99-.237-1.697-.933-2.247-1.756-1.226 1.773-2.417 3.726-4.28 4.869-3.29 1.646-5.69-1.778-5.415-4.838.288-2.526 1.252-4.882 2.61-7.014-.607-.298-1.07-.972-1.427-1.502-.93-1.217-1.484-2.78-1.431-4.321.008-2.815 1.662-4.838 3.516-6.725-.471-.376-.872-1.011-1.126-1.418a5.604 5.604 0 0 1-.658-2.894c.445-4.111 3.67-7.005 6.937-9.295-.663-.74-.772-2.522-.528-3.288.354-2.508 2.326-4.347 4.25-5.796 3.281-2.675 7.344-4.063 11.214-5.626 4.956-1.966 10.027-3.822 14.996-5.779 7.3-2.934 14.168-6.826 20.647-11.283 1.445-1.09 2.998-2.027 4.455-3.099 1.986-1.502 3.513-3.499 5.258-5.254 1.518-1.624 3.115-3.196 4.254-5.118.572-.867 1.104-1.751 1.527-2.697.109-.276.266-.6.463-.867-1.484.109-2.963.219-4.438.324-3.791 0-7.587.241-11.379.013-5.236-.153-10.437-.827-15.66-1.178-2.936-.363-5.895-.407-8.84-.661-.427-.065-1.091-.065-1.632-.214-.266.131-.602.131-.907.035-2.736 3.323-7.715 3.752-11.768 3.599-1.483.135-2.941.03-4.346-.491-1.091-.223-2.378-.696-3.36-1.339-.977-.635-2.055-1.147-2.906-1.957-.519-.478-.929-1.121-1.474-1.682-.236-.267-.28-.56-.201-.818-.087-.206-.17-.412-.249-.622a1.231 1.231 0 0 1-.353-.004c-3.059-.07-6.174-.254-9.233-.648-1.867-.136-3.67-.618-5.484-1.055-3.077-.6-6-1.743-8.819-3.087-4.08-1.629-8.128-3.314-12.19-5.197-7.274-3.31-14.146-7.421-20.883-11.707-1.65-1.016-3.185-1.948-4.874-3.038-2.57-1.655-4.904-3.634-7.322-5.499-6.859-5.425-13.949-10.919-18.901-18.239a.833.833 0 0 1-.489-.666c-.414-4.356-1.047-8.699-1.16-13.073.065-3.612-.345-7.246-.201-10.84a6.86 6.86 0 0 1-1.292-.425c-4.463-2.285-5.153-7.32-4.529-11.851.074-.959.419-1.844.834-2.697.122-.315.248-.736.44-1.069-1.41-3.9-1.859-8.896-1.387-12.232.174-1.156.733-2.215 1.208-3.266.035-.057.075-.109.114-.153-2.413-5.701-2.579-12.228-.9-18.156h.023Zm8.504-47.275c.187.92.436 1.83.772 2.754.663 1.812 1.606 3.498 2.657 5.109 1.205 1.773 2.143 3.651 3.56 5.28.175.245.428.508.612.788 7.138 6.812 15.057 12.793 23.352 18.13 1.51.976 2.993 1.987 4.494 2.986 2.78 1.821 5.781 3.257 8.718 4.807 2.448 1.326 5.018 2.355 7.636 3.292a.808.808 0 0 1 .637-.022c.148.105.305.189.466.267a87.257 87.257 0 0 0 12.606 2.872c.257.018.51.062.724.154 1.462.363 2.84 1.107 4.167 1.803 1.628.972 3.163 1.922 4.996 2.386-.135-.188-.266-.376-.406-.56-1.483-1.445-3.154-2.78-4.974-3.783-5.183-2.281-10.83-3.458-16.179-5.35-4.049-1.55-8.085-3.239-11.96-5.214-7.95-4.256-15.332-9.474-22.305-15.188-7.29-6.037-14.054-12.797-19.573-20.511Zm9.603 2.968c-1.247-1.27-2.356-2.644-3.442-4.045.065.21.126.424.174.64.445 1.803 1.178 3.506 1.929 5.209.899 2.066 1.915 4.107 3.35 5.858-.03-.035-.038-.04-.043-.048-.009-.013-.022-.022-.03-.035.257.328.615.551.71.972 8.692 8.493 18.436 15.958 29.06 21.851 4.128 2.346 8.613 4.12 13.029 5.866 3.237 1.073 6.602 2.084 9.878 3.087 3.22.99 6.606 1.905 9.237 4.12.097.079.197.153.297.232a24.824 24.824 0 0 0-3.835-3.581c-4.276-3.144-9.477-4.611-14.355-6.541-5.162-1.865-10.053-4.361-14.866-6.988-5.794-3.296-11.113-7.403-16.135-11.777-3.347-2.89-6.266-6.217-9.368-9.352-1.78-1.9-3.718-3.647-5.585-5.463l-.005-.005Zm12.475 5.696c-2.692-2.867-5.917-5.31-8.474-8.344.11.393.227.783.371 1.168 1.235 2.925 3.063 5.582 4.966 8.104.17.228.375.473.506.727 1.121 1.165 2.243 2.33 3.377 3.48a106.268 106.268 0 0 0 16 12.605c4.953 3.004 10.145 5.674 15.533 7.806 5.751 2.351 11.986 3.936 16.991 7.767a25.778 25.778 0 0 1 2.923 2.666c-2.194-2.854-4.8-5.367-7.84-7.315a59.85 59.85 0 0 0-9.87-5.976c-2.326-1.038-4.752-1.839-7.121-2.767-5.336-1.787-9.861-5.175-14.486-8.284-4.743-3.332-8.823-7.526-12.876-11.646v.01Zm35.29 12.6c-2.103 1.073-4.446 1.638-6.772 2.01-1.426.32-2.91.245-4.367.32.183.32.34.626.645.958.507.53 1.152.89 1.807 1.204 1.379.77 3.08 1.235 4.673 1.353.28.03.567 0 .855-.022.305-.692.698-1.37.873-1.782.768-1.344 1.522-2.697 2.29-4.04h-.004Zm4.695-10.905c-1.776.761-3.635 1.344-5.489 1.86-3.02.587-6.082.854-9.167 1.252-3.988.6-8.125.477-12.021 1.607.087.324.1.692.205 1.003.497 1.418 1.48 2.438 2.692 3.331 1.505 1.191 3.294 2.198 5.21 2.483.445.114.92.057 1.383.066 2.068-.241 4.18-.062 6.226-.543 2.051-.386 4.11-.92 5.939-1.953.694-.333 1.37-.994 2.142-1.292.406-.683.803-1.366 1.2-2.053.345-.819.65-1.677 1.008-2.465.31-1.002.825-2.193.672-3.296Zm75.306-53.917h.091c0-.017.005-.03.009-.048-.035.013-.07.03-.1.044v.004Zm31.568-10.858c2.304-3.17 6.383-4.115 9.761-5.718 1.605-.744 3.281-1.803 4.808-2.793.955-.7 2.003-1.453 2.539-2.543 1.759-7.075-11.113-5.241-14.97-4.208-2.57.57-4.878 1.83-7.156 3.1-1.61.88-3.246 1.734-4.651 2.925-2.518 1.965-4.586 4.373-6.759 6.786-2.112 2.184-3.8 4.964-5.153 7.723-2.19 4.102-3.281 8.79-5.628 12.845 1.601-.915 3.351-1.611 4.904-2.596 4.481-2.697 8.931-5.547 14.045-6.913 2.422-.469 4.935-1.108 7.427-1.139-1.785-1.76-1.541-4.877.833-7.469Zm36.381 20.201c3.717-.285 7.417-1.147 10.864-2.587 2.265-.867 2.583-3.507 1.72-5.521-2.339-4.808-12.13-6.699-17.091-7.115-4.237-.227-8.657.565-12.85 1.283-1.798.385-3.722.867-5.607 1.011-2.526.276-4.983 1.064-7.492 1.415 3.831 1.208 7.475 3.104 10.926 5.109 4.21 2.723 7.945 6.103 11.645 9.492a2.81 2.81 0 0 1 .581-1.003c1.968-1.707 4.852-1.703 7.308-2.084h-.004Zm22.545 30.721c1.654-.122 3.918-.092 4.651-1.904.511-2.071-.087-4.252-1.291-5.968-.755-.993-1.357-2.119-2.269-2.977-1.318-1.081-2.727-2.14-4.228-2.968-3.068-1.58-6.323-2.684-9.49-4.015-3.12-.875-6.109-2.053-9.155-3.16-.885-.312-1.78-.68-2.683-1.017 1.767 1.712 3.495 3.455 5.07 5.346 4.638 5.503 8.709 11.48 12.444 17.635.157.285.314.574.471.863.11-.25.245-.486.406-.7 1.549-1.599 4.071-1.043 6.078-1.14l-.004.005Zm8.744 24.645c.563-1.975.449-4.186-.201-6.134-.925-3.717-3.329-6.664-6.505-8.7-1.357-1.068-2.701-2.175-4.22-3.007-.663-.324-1.396-.539-2.09-.819a139.882 139.882 0 0 1 3.364 6.917c2.404 5.022 5.022 9.97 7.008 15.18.152.034.314.087.475.148.035-.306.232-.608.463-.871.161-.337.537-.67.803-.968.453-.486.65-1.142.899-1.746h.004Zm-1.222 12.897c-1.832-6.737-4.765-13.09-7.78-19.377-2.679-5.394-5.135-10.902-8.111-16.147-3.748-6.216-7.871-12.232-12.562-17.779-1.387-1.699-2.914-3.222-4.533-4.71-.973-.986-1.937-1.94-2.924-2.89-.61-.338-1.151-.78-1.553-1.388a2.306 2.306 0 0 1-.174-.237c-.258-.236-.507-.473-.768-.709-4.774-4.334-9.538-8.83-15.337-11.746-4.145-2.133-8.565-4.006-13.278-4.3-2.461.154-4.913.591-7.317 1.134-4.424 1.27-8.495 3.52-12.322 6.042a67.089 67.089 0 0 0-2.792 1.598c-1.763.832-3.591 1.642-5.118 2.89-.764.818-1.41 1.742-2.239 2.5a.878.878 0 0 1-.877.577.886.886 0 0 1-.807-.797.897.897 0 0 1-.03-.275c.096-.933.746-1.717 1.186-2.522.576-1.038 1.379-1.913 2.047-2.885.523-1.349.519-3.047-.541-4.124-3.801-2.619-7.994 2.596-9.739 5.595-.498 1.156-1.052 2.298-1.327 3.533.21.963-1.086 1.432-1.601.652a.912.912 0 0 1-.397-.525c-1.361-4.952-3.944-9.601-7.784-13.082-9.852-8.953-23.941-6.34-32.345 3.28-2.884 3.222-5.075 7.017-6.536 11.09.065.218.035.476-.144.739.017-.022.03-.048.048-.07-.895 1.826-1.113 3.861-1.492 5.831-.55 2.614-.965 5.368-1.641 7.969-1.143 4.198-2.801 8.24-4.385 12.29-1.64 4.097-3.521 8.077-5.541 11.99-.018.272-.184.526-.328.771-.244.526-.475 1.134-.811 1.738-.973 1.843-1.942 3.744-2.605 5.731-2.156 5.954.951 12.04 4.385 16.878 1.872 2.5 4.232 4.444 6.17 6.939.733.836 1.248 1.751 1.758 2.772.004.013.009.021.013.035.122.153.249.302.367.459a24.605 24.605 0 0 1 3.93 6.961c1.197-.823 2.484-1.396 3.84-1.812.629-.232 1.27-.425 1.925-.578 5.214-1.948 10.873-1.668 16.345-1.524 8.272.241 16.392 1.047 24.696.994 11.274-.175 22.632-.354 33.706-2.736 7.178-1.589 14.29-4.076 20.625-7.885 1.335-.797 2.793-1.366 4.045-2.299.676-.49 1.305-1.059 2.02-1.492.345-.211.786-.359 1.178-.202.349.14.528.46.698.775.506.994.842 2.071 1.109 3.152 1.243-.691 2.478-1.409 3.643-2.228.781-.587 1.968-1.747 2.64-.385.654 1.493.977 3.108 1.226 4.719.881-.657 1.745-1.335 2.552-2.084.773-.692 2.134-2.662 3.033-1.081.048.14.1.276.153.411.165.149.274.381.27.692v.039c.615 1.616 1.326 3.188 1.828 4.856.009.061.022.122.04.188l.157-.105c.597-.499 1.496-1.086 2.194-1.532a.884.884 0 0 1 1.074.078c.231.009.471.114.685.364a.883.883 0 0 1 .166.775c.048.775.152 1.545.213 2.32.258 3.608.153 7.071.419 10.709.585 7.605 1.305 15.17 2.239 22.731.231.385.471.766.789 1.112 1.715 1.568 4.32.701 5.939-.595.628-.403 1.339-1.108 1.933-1.655.021-.013.039-.018.061-.031 3.119-3.371 6.052-6.922 8.704-10.66 2.562-4.217 5.249-8.437 6.668-13.209 1.919-6.143.741-12.202-.965-18.248l-.013-.005Zm-50.055 7.22c-1.61.919-3.251 1.83-4.918 2.697a.747.747 0 0 1-.174.092c-2.832 1.462-5.747 2.793-8.744 3.826-12.043 3.989-24.749 5.705-37.393 6.103-7.182.311-14.316-.691-21.424-1.55-5.664-.647-11.297-1.541-16.951-2.25-2.562-.363-5.345-.735-7.985-.657-.703.092-1.4.219-2.099.373 3.443.188 6.85 1.173 10.114 2.232 5.428 1.568 10.764 3.144 16.445 3.625 7.3 1.007 14.582 1.651 21.974 1.472 5.733-.136 11.506-.197 17.156-1.292 6.096-1.081 12.248-1.869 18.234-3.498 4.302-1.121 8.426-2.837 12.488-4.632a95.773 95.773 0 0 0 3.665-1.708c.166-.118.336-.232.48-.341.467-.364 1.03-.876 1.505-1.283 1.872-1.646 3.652-3.511 4.796-5.748.514-.705.929-1.471 1.291-2.259-2.692 1.803-5.624 3.235-8.456 4.802l-.004-.004Zm1.082-5.692c-1.837 1.366-3.927 2.316-5.899 3.477-8.749 5.03-18.662 7.635-28.615 8.935-6.405.81-12.854 1.025-19.298 1.231-5.66.175-11.218.065-16.869-.167-5.746-.385-11.493-.687-17.261-.814a91.281 91.281 0 0 0-3.809.004c4.01.583 8.111 1.165 12.156 1.642 3.923.595 7.858 1.095 11.807 1.462 2.893.425 5.812.723 8.744.81 5.397.368 10.838-.079 16.227-.464 7.426-.735 14.87-1.878 22.069-3.896 4.844-1.169 9.473-3.017 13.884-5.363.358-.311.838-.578 1.126-.85.694-.6 1.375-1.208 2.086-1.786 1.296-1.274 2.792-2.583 3.661-4.216l-.009-.005Zm.318 11.957c-.135.101-.27.206-.414.302-.122.11-.319.162-.519.158a113.908 113.908 0 0 1-3.858 1.777c-3.333 1.406-6.671 2.855-10.153 3.857-4.621 1.445-9.39 2.203-14.15 2.995-3.491.67-7.003 1.265-10.533 1.721-4.948.525-9.931.612-14.9.63-6.301.131-12.584-.473-18.819-1.309-4.516-.451-8.997-1.182-13.347-2.5-5.415-1.392-10.743-3.73-16.424-3.546-.03.004-.057.013-.087.017 1.435.18 3.29.569 3.809 1.371.127.065.253.14.37.205.96.521 1.947.977 2.955 1.401 6.37 2.404 12.714 4.983 19.438 6.222 5.55 1.304 11.288 1.471 16.965 1.777 3.32.158 6.492.14 9.843.066 2.592-.022 5.21.035 7.815-.39 3.691-.569 7.391-1.059 11.052-1.799 4.638-1.108 9.298-2.15 13.927-3.31 2.287-.657 4.796-1.204 6.99-2.215 4.036-1.458 8.077-2.912 11.999-4.663 1.392-.692 2.819-1.305 4.246-1.909.406-.284.886-.534 1.161-.819 1.374-1.02 2.713-1.978 3.957-3.2 1.571-1.856 2.967-4.164 3.347-6.628-4.342 4.014-9.394 7.158-14.678 9.793l.008-.004Zm57.971-7.202a24.881 24.881 0 0 0-1.724-5.14c-.135-.35-.283-.696-.44-1.037-.672-.438-1.279-.994-2.117-1.121-.558-.162-1.104.03-1.601.293-.432.293-.99.381-1.374.74-.053.096-.109.197-.166.293.214.784.419 1.572.611 2.369.663 3.135 1.361 6.326 1.226 9.544-.21 4.409-1.567 8.682-3.548 12.6-.645 1.336-1.444 2.583-2.216 3.844-.951 1.673-1.841 3.385-3.046 4.895-2.029 3.047-4.516 5.727-6.92 8.476-3.399 3.778-6.929 7.504-10.939 10.661-4.437 3.686-9.629 6.304-14.189 9.833-2.936 1.791-5.607 3.892-8.028 6.392-2.902 3.069-3.028 4.12-1.274 7.99a.776.776 0 0 1 .074.241c.026.035.052.07.078.114.502.127 1.1.192 1.637.267 3.342.416 6.584-1.069 9.647-2.237 2.452-1.051 4.716-2.474 7.077-3.709 4.237-2.298 8.29-5.074 11.763-8.449 4.97-4.317 9.97-8.582 13.828-13.997 1.819-2.421 3.233-5.258 4.668-7.938 1.763-3.454 3.613-6.895 4.843-10.586 1.275-3.651 2.003-7.46 2.396-11.304.606-4.317.611-8.752-.266-13.034Zm6.724 14.645c-.515-1.589-1.026-3.258-2.125-4.553-.629-.644-1.349-1.239-2.195-1.563a45.29 45.29 0 0 1-.323 4.067c-.432 3.914-1.034 7.819-2.313 11.558-1.112 3.651-2.875 7.058-4.603 10.442-1.802 3.393-3.473 6.9-5.873 9.916-3.691 5.114-8.582 9.304-13.33 13.406-1.422 1.287-2.783 2.649-4.341 3.774-3.102 2.373-6.405 4.356-9.883 6.156-2.277 1.317-4.634 2.556-7.099 3.489.17 1.559.82 3.012 1.706 4.299.873.578 1.959.911 2.998 1.033 1.44-.1 2.866-.376 4.298-.573 3.146-.898 6.091-2.421 8.87-4.129 7.287-4.098 12.767-10.582 17.597-17.289 7.662-10.976 14.08-23.086 16.681-36.347.07-.871.148-1.751.214-2.631-.114-.35-.17-.749-.279-1.055Zm-19.373 59.187c.266.784.741 1.498 1.562 1.813.414.197.868.28 1.317.346.371-.035.794.026 1.065.249 6.074-2.521 9.604-8.585 13.147-13.861 3.076-4.929 5.96-10.109 7.308-15.796 0-.087 0-.184.026-.28.026-.088.057-.175.092-.254.122-.56.235-1.125.327-1.699.083-.459.153-.919.214-1.383-.231-.653-.336-1.467-.554-1.905-.319-.906-.829-1.729-1.423-2.478-.266-.302-.615-.481-.955-.661a91.33 91.33 0 0 1-3.962 9.777 141.185 141.185 0 0 1-5.576 9.504c-2.727 4.146-7.492 10.661-12.641 16.037a.76.76 0 0 1-.026.224c.022.122.048.245.074.367h.005Zm-11.694 6.309c4.102-1.834 7.343-4.986 10.433-8.266 1.832-1.773 3.447-3.642 5.052-5.647 4.045-5.013 7.811-10.263 10.913-15.919 2.343-3.748 3.957-7.885 5.463-12.053.785-2.277 1.618-4.777 2.177-7.329 0-.468.057-.963-.022-1.34-.196-1.659-.829-3.191-1.51-4.715-.192-.455-.514-.797-.859-1.116-.428 1.475-.899 2.942-1.344 4.413-2.343 7.32-5.969 14.163-9.961 20.699-5.276 8.582-11.393 16.935-19.687 22.802-2.269 1.475-4.586 2.937-7.038 4.08-.171.083-.341.162-.511.245-.052.679.026 1.375.314 1.997a.855.855 0 0 1 .192.578c.406.788.986 1.466 1.811 1.79 1.514.377 3.124.399 4.581-.21l-.004-.009Zm-43.558 62.563a45.739 45.739 0 0 1 1.566-3.406c-.079-.499-.179-1.029-.345-1.519-.432-.849-1.226-1.445-1.95-2.031-3.006-1.962-6.75-1.848-10.162-1.331-3.05.407-6.309.893-8.853 2.767-1.008.797-1.322 2.141-1.205 3.375.437 1.34 1.117 2.588 1.763 3.831.877 1.121 1.527 2.478 2.771 3.253.637.337 1.073.937 1.658 1.335.955.548 1.985.959 3.072 1.143 1.479.136 2.958.241 4.437.407 1.287.061 2.496-.376 3.499-1.178a5.82 5.82 0 0 0 1.576-1.58.757.757 0 0 1 .209-.32c.89-1.436 1.348-3.183 1.968-4.746h-.004Zm32.074 73.807a.97.97 0 0 1 .284-.298c.248-.902.375-1.848.493-2.771.034-2.978-1.021-5.779-2.112-8.503-.742-1.965-1.964-3.699-3.055-5.481-3.652-6.239-8.857-11.274-13.251-16.974a167.34 167.34 0 0 1-5.511-7.544c-1.309-1.803-2.762-3.524-3.721-5.555-1.013-1.922-2.217-3.748-3.055-5.758-.637-1.676-1.365-3.318-2.037-4.986-.31-1.099-.637-2.198-.952-3.306l-.034-.013c-.284-.022-.572-.026-.856-.061a.28.28 0 0 0-.231.101c.022 4.645.803 9.312 2.19 13.734 2.304 6.168 5.996 11.672 9.456 17.228 2.282 3.598 4.795 7.035 7.439 10.371 2.064 2.999 4.084 6.047 5.755 9.282.978 2.071 1.977 4.133 2.928 6.212.048.044.096.097.14.154 1.335 1.681 3.673 4.838 6.126 4.159l.004.009Zm-9.045 14.973c.938 2.049 2.587 5.297 5.127 5.372.091-.031.144-.105.196-.18a.975.975 0 0 1 .271-.214c.61-1.34.728-2.964.842-4.413.257-3.617-.703-7.343-1.916-10.753-1.697-5.324-4.232-10.324-6.654-15.341-2.583-4.776-5.855-9.146-9.154-13.441-3.7-5.359-7.239-10.862-10.323-16.597a47.77 47.77 0 0 1-2.959-6.572c-.864-2.64-1.322-5.411-1.749-8.147-.341-1.914-.393-3.849-.428-5.779a1.134 1.134 0 0 1-.009-.381v-.149c-.144-.386-.253-.797-.698-.924-.598-.267-1.387.166-2.064.285-.035.42-.069.836-.096 1.256-.043 5.319-.24 10.639 1.074 15.853 1.213 5.118 3.29 9.969 5.929 14.509 1.715 3.42 3.6 6.839 5.594 10.136 2.077 3.034 3.84 6.252 5.659 9.439 3.399 6.514 6.842 13.064 9.246 20.034a51.723 51.723 0 0 1 2.099 5.976c.004.013.013.022.017.035l-.004-.004Zm-6.916 11.681c.018.026.039.048.052.078.747 1.725 1.545 3.424 2.885 4.786.58.569 1.409.98 2.238.867 1.265-1.55 1.588-3.801 1.654-5.762.017-4.68-.912-9.531-2.479-14.006-1.13-2.749-1.985-5.507-3.189-8.248-3.718-8.419-7.933-16.646-12.994-24.338-1.911-3.244-3.761-6.536-5.437-9.916-1.684-2.999-3.233-6.073-4.428-9.308-1.235-3.8-2.352-7.688-2.579-11.698-.306-2.347-.205-4.83-.175-7.207-.035-1.65.013-3.297.149-4.943-.415-.381-1.069-.306-1.632-.157-.489.219-.964.538-1.506.599-.048.049-.109.075-.165.106-1.13 4.071-1.305 8.349-1.021 12.556.423 4.842 1.221 9.588 2.744 14.233 2.112 6.3 5.144 12.233 8.408 17.999 5.537 9.216 11.231 18.572 14.142 29.013.632 2.045 1.378 4.059 1.767 6.173.458 2.08.589 4.212.929 6.309.244.99.454 1.935.633 2.855l.004.009Zm-12.383-8.415c.554 2.044.899 4.115 1.126 6.204a.844.844 0 0 1 .1.446c-.004.057-.022.114-.035.171.362 3.721.371 7.491.515 11.234.345 2.176.576 4.645 2.317 6.2 2.526 1.729 4.629-1.62 5.45-3.687.641-1.453 1.082-2.994 1.509-4.522.227-1.585.197-3.201.088-4.794-.214-2.111-.86-4.16-1.183-6.248-.301-2.881-.707-5.766-1.579-8.537-.764-2.167-1.3-4.4-2.034-6.576-2.142-5.508-4.625-10.928-7.592-16.05-7.256-12.172-15.11-24.798-16.366-39.263-.345-2.588-.546-5.241-.349-7.885.013-1.66.083-3.319.467-4.939.235-1.094.471-2.18.746-3.261a.793.793 0 0 0-.28-.215c-.842-.394-1.692-.083-2.591-.017.004 0-.07.013-.144.013-.018 0-.035-.009-.053-.009a68.025 68.025 0 0 1-1.426 3.713c-.144.446-.293.893-.446 1.339-.654 2.461-1.496 4.873-1.919 7.399-.581 3.638-.646 7.145-.616 10.875.048 2.128.022 4.265.397 6.366.799 5.547 3.011 10.727 5.276 15.796a212.163 212.163 0 0 0 7.644 12.885c2.435 3.516 4.403 7.329 6.279 11.169 1.824 3.949 3.682 7.946 4.695 12.197l.004-.004Zm-9.948-2.969a37.593 37.593 0 0 1 1.684 7.995c.131 1.563.227 3.157.689 4.667.48 1.143 1.292 2.163 2.287 2.955.502-.03.986.062 1.422-.346.415-.354.755-.705 1.174-1.068.419-.503.733-1.09 1.104-1.633.157-.468.379-.889.589-1.37.135-.539.249-1.077.441-1.598-.271-2.29-.725-4.558-1.266-6.804-1.968-6.768-5.183-13.174-8.7-19.268-3.172-5.004-6.397-9.986-9.194-15.214-.671-1.059-1.069-2.246-1.544-3.397-1.898-3.844-3.172-7.977-4.106-12.158-.393-2.124-.637-4.278-.628-6.436-.061-2.627-.07-5.193.074-7.78-1.235.215-2.404 1.016-3.321 1.856-1.06 1.104-1.618 2.592-2.081 4.028a47.81 47.81 0 0 0-.196 2.763c-.642 4.614.951 9.054 2.007 13.484.977 2.724 1.977 5.469 3.364 8.012 1.287 2.251 2.731 4.51 4.023 6.782.637 1.108 1.431 2.136 2.186 3.17a105.354 105.354 0 0 1 4.106 7.197c2.304 4.567 4.49 9.221 5.881 14.159l.005.004Zm-23.584-30.007c4.15 8.41 10.119 15.779 13.954 24.364 1.732 3.398 1.903 7.263 3.181 10.814a6.987 6.987 0 0 0 1.161 1.677c.048.017.1.035.148.066.515.14.929-.211 1.287-.53 1.71-1.156 2.286-3.328 2.326-5.328 0-.044.008-.079.013-.119-.82-2.85-1.889-5.634-3.063-8.344-2.047-4.492-4.25-8.835-6.894-13.021-2.047-2.662-3.591-5.608-5.345-8.493-1.335-2.093-2.369-4.374-3.22-6.708-.886-1.978-1.475-4.041-1.942-6.155l-.131-.508a1.866 1.866 0 0 1-.401.096c-1.392.714-2.557 1.94-3.172 3.389a5.317 5.317 0 0 0-.445 1.83c.458 2.443 1.361 4.803 2.543 6.974v-.004Zm-40.761 14.789c.144.158.357.215.541.315h.065c2.548-.424 4.486-2.359 6.449-3.896 2.195-1.756 4.372-3.511 6.715-5.07 3.425-2.425 7.68-3.572 11.55-5.122 2.552-1.025 4.956-2.391 7.26-3.888.978-.705 2.012-1.327 2.932-2.106.293-.228.62-.644.973-.994a8.594 8.594 0 0 1-.021-.753c-.267-1.558-.328-3.148-.467-4.724a47.2 47.2 0 0 1-2.291 1.546c-2.91 2.211-6.27 3.704-9.529 5.31-4.477 2.207-9.059 3.761-13.518 6.095a56.946 56.946 0 0 0-5.524 2.999c-.035.03-.07.061-.109.087-.109.066-.218.123-.327.184a58.303 58.303 0 0 0-3.696 2.522c-.122.105-.24.214-.358.324-.187.376-.423.731-.623 1.099-.288.735-.489 1.51-.638 2.285-.109 1.226-.039 2.715.62 3.792l-.004-.005Zm-13.923-2.438c.2 1.072.431 2.434 1.579 2.872a.865.865 0 0 1 .511.341c1.226-.193 2.386-.832 3.481-1.664a.876.876 0 0 1 .297-.236 59.133 59.133 0 0 1 2.252-2.312c1.924-1.493 3.281-3.734 5-5.464 1.213-1.309 2.958-1.751 4.481-2.561 2.989-1.882 6.2-3.454 9.381-4.964 4.097-1.791 8.268-3.42 12.252-5.469 2.666-1.322 5.354-2.622 7.71-4.47 2.819-1.755 5.454-3.87 7.461-6.545.096-.123.258-.372.432-.569-.004-.044-.013-.088-.022-.132v-.166c-.166-1.458-.248-2.942-.061-4.404.087-.801.227-1.625.423-2.435.035-.328.075-.661.118-.989-3.207 3.651-6.632 7.141-10.546 10.03-7.387 5.272-15.594 9.317-23.849 13.012-2.797 1.208-5.498 2.631-8.264 3.914-3.552 1.751-7.056 3.713-9.84 6.585a25.15 25.15 0 0 0-1.998 2.211c-.554 1.103-.956 2.123-.798 3.415Zm-11.424 3.677c.18 2.189 2.056 3.441 3.674 1.642 2.727-2.92 4.52-6.607 7.051-9.702.066-.122.123-.249.188-.372.118-.14.244-.232.375-.293a20.3 20.3 0 0 1 .646-.701c3.6-4.163 8.526-6.738 13.43-9.028 6.026-2.907 12.191-5.512 18.099-8.659 5.31-2.868 10.668-5.902 15.21-9.974 4.861-4.584 9.499-9.465 12.985-15.214 2.021-2.999 3.696-6.199 5.088-9.522.079-.25.161-.499.24-.744.384-1.209.746-2.421 1.222-3.599.048-.096.091-.197.131-.298-.127-.989-.864-1.808-1.754-2.206-.201-.04-.419-.075-.62-.119-3.286 6.353-7.95 11.904-12.819 17.101-3.822 3.862-7.571 7.894-12.065 10.985-6.828 4.654-14.303 8.244-21.467 12.333-7.186 4.181-14.421 8.529-20.7 14.036a.897.897 0 0 1-.148.132c-.091.083-.187.162-.279.245a48.403 48.403 0 0 1-3.098 3.025c-1.828 1.913-3.395 4.076-4.455 6.519-.537 1.41-1.117 2.89-.938 4.426l.004-.013Zm.428-16.527a6.236 6.236 0 0 0-.375.919c.135.11.244.267.296.486 1.71.893 3.8.819 5.638.25.589-.237 1.16-.491 1.732-.762a25.263 25.263 0 0 1 2.54-2.137c4.293-3.358 8.84-6.365 13.486-9.202 5.716-3.424 11.567-6.541 17.432-9.733 4.952-2.885 10.07-5.661 14.167-9.746 5.476-5.126 10.725-10.564 15.093-16.715a44.82 44.82 0 0 0 4.254-6.996c0-.079.013-.158.039-.237.026-.407-.222-.74-.532-.981-2.051 3.394-4.555 6.406-6.855 9.729-1.815 2.394-4.346 4.43-6.615 6.44-2.072 1.847-4.197 3.634-6.47 5.227-2.544 1.787-5.184 3.266-7.889 4.807-3.203 1.901-6.475 3.687-9.835 5.289-4.895 2.461-10.048 4.396-14.848 7.058-6.405 3.345-12.68 7.219-17.82 12.364-1.2 1.256-2.5 2.464-3.438 3.94Zm71.113-60.287c-.105.14-.21.285-.319.421-2.238 2.57-4.616 5.026-6.972 7.486-4.198 3.454-8.932 6.357-13.548 9.225-10.193 6.164-21.59 9.513-32.533 14.067-2.168.853-6.588 3.034-8.914 5.704.554.359 1.152.57 1.819.701 1.048.162 2.125.324 3.19.227.1-.017.205-.026.305-.03 4.7-2.588 9.696-4.623 14.687-6.567 7.584-3.315 15.42-6.204 22.253-10.998a89.967 89.967 0 0 0 10.869-8.564c1.339-1.423 2.596-2.916 3.979-4.299 1.977-2.211 3.809-4.553 5.328-7.097-.048-.092-.092-.179-.149-.267l.005-.009Zm1.322-1.948-.131.21c.035 0 .07 0 .105.009a.219.219 0 0 1 .048-.048 1.983 1.983 0 0 1-.018-.171h-.004Zm-.397 4.295c-1.959 3.038-4.368 5.766-6.872 8.366-1.68 2.067-3.696 3.792-5.747 5.473-3.552 2.907-7.265 5.63-11.227 7.96-8.329 4.789-17.435 7.99-26.232 11.794a85.521 85.521 0 0 0-8.32 4.124c-1.571.705-3.007 1.642-4.394 2.658-2.26 1.493-5.89 3.923-7.44 6.799.467.372 1.07.556 1.641.701 1.532.232 3.094.464 4.573-.097 2.02-1.506 4.119-2.902 6.244-4.242 3.883-2.325 7.91-4.413 12.003-6.335 3.325-1.607 6.785-2.916 10.035-4.672 3.338-1.554 6.515-3.428 9.696-5.284 2.893-1.594 5.729-3.314 8.368-5.306 1.798-1.349 3.5-2.846 5.184-4.339 2.16-1.891 4.398-3.73 6.135-6.037 2.386-3.464 5.166-6.765 7.247-10.486-.179-.438-.532-.762-.894-1.068v-.009Zm-29.055-12.491c1.282.539 2.482 1.138 3.831 1.568.366.148.925.232 1.361.42 2.736.249 5.471.477 8.216.556 3.931.289 7.867.022 11.803.031 6.017-.451 12.034-.876 18.033-1.511 6.567-.867 13.081-1.843 19.657-2.671 2.203-.446 4.402-.936 6.584-1.493 3.067-.853 6.021-2.048 9.058-2.994 2.644-.744 5.218-1.69 7.692-2.89 1.698-.617 3.142-1.663 4.551-2.775-.536-4.006-.214-8.056-.519-12.075a95.806 95.806 0 0 1-.266-9.172c-.157-1.975-.07-3.954-.074-5.928-.027-.745-.044-1.502-.057-2.264a1.612 1.612 0 0 1-.244-.674c-.908-3.988-2.876-7.421-6.864-8.945-3.216-1.098-5.471-.88-7.915-3.743-2.186-1.856-5.087-1.357-7.701-2.044-1.457-.482-3.207-1.13-4.005-2.518a.915.915 0 0 1-.018-.241c-.013-.021-.026-.039-.035-.061-.707-1.821-1.771-3.783-1.213-5.783.375-1.353 1.279-2.487 2.173-3.542 1.763-1.852 3.635-3.608 5.677-5.14.362-.232.715-.473 1.069-.709.366-.535 1.073-1.034 1.335-1.542 1.924-2.71 3.429-5.674 4.904-8.651 2.23-4.575 3.578-9.509 4.743-14.452 1.75-7.316 2.09-14.89 1.584-22.372-.175-2.119-.048-4.251-.092-6.374-.008-.224-.035-.5-.048-.78-.008.005-.017.009-.026.018-.571.372-1.091.818-1.649 1.208-2.958 1.975-6.043 3.757-9.298 5.184-.816.324-1.632.639-2.444.967-.362.267-.733.464-1.077.447a32.46 32.46 0 0 0-2.248 1.042c-4.105 1.909-8.346 3.485-12.605 5.008-1.715.609-3.36 1.423-5.149 1.804-5.58 1.546-11.305 2.798-16.947 4.129-3.957.801-7.902 1.309-11.903 1.922-7.151.569-14.372.381-21.541.009-9.927-.351-19.626-2.781-28.824-6.463-.236.088-.506.132-.759.18-1.039.381-2.046.933-2.68 1.891-.26.482-.527.959-.689 1.55-.135.543.04 1.082.131 1.616a.931.931 0 0 1-.082.595c.113.517.226 1.033.349 1.546.3 1.3.549 2.609.785 3.922 1.854-.179 5.039.552 5.973.863 9.285 2.39 14.355 7.644 17.667 16.51 1.916 5.109 7.352 7.513 12.523 7.434 4.298.026 8.613-.364 12.902.052 6.78.797 14.403 2.798 20.036 6.769 2.112 1.449 3.901 3.305 5.533 5.267 1.745 1.865.938 4.5-.105 6.51-2.26 6.528-.607 12.451 4.132 17.364 2.203 2.438 5.07 5.122 4.546 8.734-.741 3.568-3.966 6.939-7.199 8.454-5.105 2.478-10.712.031-15.682-1.646-4.79-1.87-9.821-3.209-15.014-2.82-2.456.232-5.078.447-7.16 1.914-2.487 1.707-3.106 4.969-5.157 7.088-2.129 2.408-5.297 3.397-8.408 3.717-1.091.289-2.169.556-3.277.875-.384.149-.567.351-.951.609-.716.517-.794 1.34-1.265 2.128.048.219.043.424 0 .608 3.316 5.381 8.534 9.352 14.333 11.76l.009.004Zm39.513-59.525c1.379-2.784 1.449-3.782-.837-5.998-1.759-2.049-3.927-3.686-6.24-5.052-4.76-2.557-10.096-4.032-15.42-4.829-4.136-.626-8.469-.28-12.649-.241-5.092.254-10.581-1.037-13.879-5.21-1.876-2.338-2.492-5.372-4.01-7.92-2.819-5.661-7.71-8.905-13.47-10.612-2.138 1.287-4.031 3.275-4.677 5.739-.044.189-.061.399-.083.609 1.855 9.501 3.857 18.975 5.498 28.515 2.129 12.206 4.245 24.517 6.981 36.618.406 2.067.842 4.129 1.292 6.186.261.127.453.408.458.859 1.453 1.926 3.94 2.692 6.274 2.6 1.972.057 3.997-.057 5.886-.665.537-.145 1.239-.548 1.746-.377 4.276-2.631 3.848-7.832 9.333-9.991 7.212-2.46 15.096-.915 21.999 1.848 4.154 1.326 8.653 3.463 13.038 2.058 3.111-1.025 5.602-3.56 7.003-6.489.955-2.158-.271-4.465-1.746-6.05-1.954-2.277-4.184-4.387-5.593-7.071-1.139-2.263-2.012-4.737-2.077-7.294.03-2.439.301-4.938 1.173-7.228v-.005Zm-79.285 40.218c.82 4.277 1.689 8.541 2.623 12.788.349 1.997.955 3.923 1.728 5.792.048.123.074.237.078.342.35.403.668.832 1.043 1.217 1.178.946 2.557 1.751 3.918 2.426 1.117.367 2.26.687 3.412.932.838.083 1.671-.053 2.514-.026 2.068.135 4.162-.101 6.169-.6 1.571-.539 3.273-1.331 4.171-2.78-.353-1.064-.754-2.154-1.055-3.236-.808-2.924-1.515-5.871-2.191-8.826-1.976-7.898-3.517-15.892-5.227-23.852-2.557-11.514-4.167-23.212-6.41-34.784a4644.874 4644.874 0 0 0-4.306-22.004.753.753 0 0 1-.144-.149c-.253-.315-.153-.644-.079-.976-.301-1.52-.598-3.043-.903-4.562-.742-5.267-2.081-10.486-3.107-15.722-.205-1.025-.589-2.018-.811-3.043-.2.14-.402.28-.602.442l.043-.03c.005-.005.014-.009.022-.014-2.164 1.743-4.813 3.034-7.588 3.367-3.05.21-6.147-1.02-8.434-3.016-1.064-.963-1.937-2.106-2.696-3.328.37 1.752.763 3.503.925 5.289.606 3.074 1.208 6.34 2.042 9.396.907 3.147 1.383 6.225 1.863 9.491.78 5.118 1.937 10.363 2.901 15.477 1.366 8.196 2.98 16.348 4.442 24.526 1.554 11.633 3.356 23.287 5.555 34.85.109.175.157.389.113.608l-.009.005Zm-15.747-78.009a11.906 11.906 0 0 0-1.348-2.137c-1.13-1.642-3.146-2.526-5.096-2.741-.38-.004-.855.105-1.27.097-.903.411-1.627 1.151-2.339 1.838-2.491 2.881-6.226 4.541-10.044 4.409-2.168-.039-4.267-.665-6.388-1.055-5.057-1.073-9.9-3.196-14.324-5.853-2.985-1.848-5.69-4.155-8.997-5.442-.454-.18-.943-.451-1.362-.057-1.74 2.092-1.793 5.275-1.016 7.793.903 2.802 2.884 5.021 4.664 7.316 3.155 4.238 7.623 7.153 11.86 10.196 3.093 2.325 6.322 5.543 6.282 9.689-.37 10.84-8.203 6.987-4.227 17.018 2.08 4.435 5.903 8.638 10.11 11.151 2.626 1.348 5.383 2.421 8.176 3.371a238.385 238.385 0 0 0 10.598 3.848c3.858 1.449 7.723 3.187 10.773 6.02.18.162.345.328.515.499.013.009.03.018.044.026a6.557 6.557 0 0 0 2.3 1.774c.828.424 1.736.21 2.521-.202.24-.136.406-.35.58-.551-.593-3.577-1.165-7.163-1.736-10.762-1.156-6.887-1.793-13.848-3.268-20.682-1.724-9.356-3.312-18.73-5.21-28.051-.393-2.092-.685-4.146-1.008-6.208-.331-.394-.598-.937-.79-1.296v-.008ZM9.651 192.847c.266.263.388.643.628.937a63.684 63.684 0 0 0 4.438 5.345c3.438 3.595 7.33 6.87 11.257 9.934 2.435 1.936 4.86 3.879 7.34 5.758 2.316 1.707 4.794 3.161 7.233 4.675 6.798 4.326 13.959 8.599 21.372 11.896 3.896 1.83 7.897 3.397 11.911 5.07 2.994 1.51 6.297 2.412 9.587 3.147.274-.065.567-.1.824-.135.68-.145 1.31-.46 1.907-.81 2.85-1.471 4.437-4.558 5.467-7.482.877-2.045.842-4.265.742-6.445a2.25 2.25 0 0 1 0-.42 399.298 399.298 0 0 1-.82-4.466 2.08 2.08 0 0 1-.677-.184c-.79-.263-1.592-.525-2.3-.976-1.426-.858-2.294-2.312-3.368-3.538a25.96 25.96 0 0 0-.903-1.037 2.06 2.06 0 0 1-.44-.451 20.444 20.444 0 0 0-2.605-2.264c-1.898-1.392-4.233-2.324-6.366-3.331-4.438-1.607-8.888-3.157-13.3-4.838-5.646-1.922-10.415-4.168-14.25-8.927-2.61-2.951-4.756-6.423-5.332-10.385-.768-4.711 2.723-5.687 4.42-9.085.646-2.154 1.309-4.627.423-6.799-2.251-5.407-8.992-8.003-13.107-11.952-2.155-1.83-3.896-4.085-5.629-6.305-2.578-3.156-4.703-7.079-3.979-11.286.463-3.17 2.142-6.511 5.747-4.418 4.162 1.795 7.509 4.978 11.57 6.974 3.867 1.918 7.955 3.507 12.222 4.234 1.772.381 3.565.823 5.393.74 2.042-.105 4.115-.67 5.812-1.861 1.519-1.099 2.644-2.653 4.185-3.721 2.365-1.572 5.76-1.147 8.504-.771-.917-3.629-1.754-7.28-2.252-10.993-.235-1.721-.654-3.406-.999-5.101-.925-.919-1.802-1.913-3.059-2.377-1.972-.897-4.01-1.646-6.034-2.421-2.893-1.029-5.76-1.944-8.622-3.157-3.242-1.519-6.418-3.182-9.555-4.899-1.597-.858-3.107-1.86-4.604-2.885-2.932-2.005-6.004-3.809-8.87-5.915-7.893-5.612-15.464-11.711-22.057-18.834A68.061 68.061 0 0 1 5.2 74.712c.075 1.787.184 3.577.201 5.364-.022 4.592.489 9.154.655 13.742-.03 3.849.366 7.645.423 11.524.223 2.929.79 5.897 1.008 8.839.109 2.001.62 3.94 1.17 5.858.654 2.964 1.84 5.744 3.08 8.502 1.37 2.631 3.425 5.184 4.446 7.995.07.144.122.306.166.468.056.175.1.355.148.534l.052.158c.014.052.018.105.03.153.01.035.014.07.023.105.043.215.083.434.118.648.008.07.021.14.03.21.21 1.568.113 3.188-.349 4.698-.497 1.69-1.575 3.108-2.443 4.636-1.283 2.837-.803 6.051-.664 9.059a8.924 8.924 0 0 1-1.265 4.106c-.607 1.016-.807 2.216-.842 3.385.785 5.42-.846 6.672-2.243 11.457-.187.871-.436 1.835-.318 2.745.004.158-.022.294-.07.412.022 4.535.663 9.027 1.113 13.537H9.65Zm-6.48-28.265c1.109 2.079 3.304 3.971 5.79 3.235.612-2.71-.357-5.486-.985-8.126-1.536-.153-2.924-1.063-3.849-2.289a10.694 10.694 0 0 1-1.1-1.681c-.375.989-.636 1.983-.628 3.156-.118 1.905-.07 3.945.773 5.705Zm3.77-6.996c1.126.599 2.518.433 3.618-.154.432-.381.51-1.011.654-1.545.358-2.233-.21-4.496-.589-6.69-.231-1.112-.489-2.215-.855-3.297a.931.931 0 0 1-.375-.481 5.685 5.685 0 0 1-.384-.096c-2.754-.727-4.647-3.07-6.035-5.495-.44 1.059-.742 2.193-.759 3.349.07 4.383.737 11.817 4.725 14.409Zm-.977-16.466c1.078 1.313 2.387 2.394 4.11 2.666 1.34.096 2.775.044 4.058-.421.615-.35.528-1.256.729-1.869.152-.74.187-1.493.152-2.242a13.643 13.643 0 0 0-.41-2.031 11.86 11.86 0 0 0-.475-1.077c-1.606-3.165-3.87-5.985-5.053-9.365-1.03-2.088-1.614-4.33-2.203-6.576a30.004 30.004 0 0 1-1.213-6.593c-1.794 2.767-2.836 5.902-3.482 9.119-1.109 6.244-.249 13.319 3.787 18.389Z"/><path fill="#000" d="m187.822 288.675.017.031c.009.013.013.026.017.035-.008-.022-.021-.04-.034-.062v-.004ZM222.587 69.126c-1.514-2.53-3.255-4.89-5.07-7.206-.545-1.007.965-1.84 1.527-.845a60.159 60.159 0 0 1 4.94 7.005c.676.923-.707 1.948-1.401 1.046h.004ZM224.612 72.283c-.462-.07-.811-.53-.729-.999.083-.468.52-.805.995-.73.463.07.812.529.729.998-.083.468-.519.805-.995.73ZM222.654 114.654c.515.188.68.784.467 1.261.226 1.125.458 2.246.641 3.38.214 1.199.519 2.377.729 3.572.082.469-.262.928-.725 1.003a.885.885 0 0 1-.999-.731c-.471-2.286-.899-4.584-1.357-6.87-.188-.775.292-1.952 1.244-1.619v.004ZM224.408 126.335c.48.109.733.582.65 1.051-.083.468-.602.757-1.047.652-.48-.11-.734-.582-.651-1.051.083-.468.603-.757 1.048-.652ZM143.403 64.669c-.467.617-.847 1.305-1.309 1.926-.698.902-1.357 1.848-1.68 2.96-.271.902-.511 1.813-.829 2.706-.161.45-.711.656-1.134.486-.642-.254-.611-.977-.358-1.498.401-1.208.646-2.469 1.221-3.616.576-1.151 1.471-2.106 2.143-3.2.266-.412.571-.977 1.091-1.31.401-.258.96-.105 1.2.294.283.455.061.972-.345 1.256v-.004ZM138.224 74.393c-.083.468-.48.823-.973.762-.454-.057-.842-.504-.759-.977.083-.468.48-.823.973-.761.454.056.842.503.759.976ZM181.425 85.623c.868-1.537 1.518-3.144 2.033-4.82.672-1.24 2.238-.163 1.475.989-.432 1.922-1.466 3.603-2.322 5.359-.305.604-.65 1.177-1.016 1.742-.419.63-1.484.346-1.567-.394-.039-.258.048-.495.197-.7.445-.7.829-1.432 1.195-2.176h.005ZM178.789 90.85c.454.057.842.504.759.977-.083.468-.48.823-.973.761-.453-.057-.842-.503-.759-.976.083-.468.48-.823.973-.762ZM183.603 3.975c1.391-.481 2.857-.678 4.319-.718.812-.013 1.636.784 1.047 1.559-.314.407-.816.341-1.23.188-1.815.035-3.369.609-5.149.994-.785.25-1.562.539-2.282.95-.414.232-.964.048-1.178-.363-.807-1.585 3.456-2.316 4.477-2.61h-.004ZM175.844 7.272c.17-1.147 2.082-.858 1.89.293-.188 1.152-2.064.863-1.89-.293ZM207.696 24.793c.035.009.074.013.109.022h-.035c-.035-.004-.066-.013-.101-.017h.027v-.005Z"/><path fill="#000" d="M205.536 26.728c-1.065.053-2.095.298-3.133.508-.467.08-.921-.28-.991-.744a.888.888 0 0 1 .742-.99c.663-.1 1.301-.31 1.964-.398 1.213-.03 2.443-.442 3.647-.298.908.171.917 1.585-.056 1.717-.733-.062-1.445.153-2.178.201l.005.004ZM198.573 27.341c-1.013-.88.362-2.215 1.252-1.239 1.012.876-.354 2.216-1.252 1.24ZM235.032 57.98c.641.477 1.296.95 1.876 1.51 1.314 1.44 2.841 2.876 3.438 4.78.192.833-.829 1.581-1.496.955-.34-.28-.196-.748-.432-1.081-1.1-1.861-2.64-3.485-4.394-4.733-.384-.285-.484-.836-.209-1.221.27-.381.833-.495 1.217-.21ZM232.981 56.885c.45 1.081-1.143 1.755-1.61.678-.449-1.081 1.139-1.755 1.61-.678ZM243.806 90.093c-.733.03-.92-.688-.973-1.279-.301-1.134-1.029-2.092-1.684-3.042-.694-.92.62-1.984 1.353-1.104.515.7.999 1.423 1.418 2.185.419.884 1.462 3.003-.118 3.24h.004ZM239.443 83.254c-.48-.11-.742-.578-.659-1.046.083-.473.598-.762 1.043-.661.48.109.742.578.659 1.046-.083.473-.598.762-1.043.661ZM174.936 31.29c-1.222.39-2.474.675-3.704 1.047-.746.232-1.475.499-2.186.823-.694.263-1.711.941-2.173-.013-.437-1.112.995-1.358 1.723-1.7 1.235-.529 2.514-.967 3.831-1.242 1.1-.167 2.391-1.165 3.43-.368a.889.889 0 0 1 .039 1.239.881.881 0 0 1-.956.214h-.004ZM163.252 34.924c.117-1.182 2.09-.92 1.95.232-.118 1.182-2.09.924-1.95-.232ZM120.64 27.315c-.079-.083-.192-.11-.297-.149a18.229 18.229 0 0 0-8.033-.446c-.776.21-1.566.367-2.334.613a.875.875 0 0 1-1.108-.456c-.467-1.379 1.444-1.388 2.312-1.672 3.006-.762 6.283-.604 9.268.184.859.135 2.216.915 1.422 1.891a.88.88 0 0 1-1.235.04l.005-.005ZM107.149 28.768a.873.873 0 0 1-.65.193c-.45-.048-.856-.495-.773-.967a.93.93 0 0 1 .314-.583.874.874 0 0 1 .651-.192c.449.048.855.494.772.967a.93.93 0 0 1-.314.582ZM93.09 82.646c1.388 2.591 3.129 5.227 5.734 6.76.637.337 1.44.796.96 1.628-.48.74-1.292.263-1.842-.114-.763-.403-1.444-.932-2.063-1.532-1.807-1.73-3.282-3.813-4.399-6.05-.235-.543-.71-1.069-.576-1.695a.882.882 0 0 1 .904-.736c.898.057.833 1.156 1.282 1.739ZM102.467 90.894a.887.887 0 0 1 .707 1.016.884.884 0 0 1-1.013.709.886.886 0 0 1-.707-1.016.884.884 0 0 1 1.013-.71ZM158.94 115.14c.991-.11 1.981-.219 2.967-.372 2.339-.28 4.652-.705 6.868-1.559 1.554-.67 2.182 1.756.476 1.686-2.435.941-5.014 1.361-7.588 1.677-.833.135-1.675.21-2.513.306-.471.061-.912-.293-.973-.766a.891.891 0 0 1 .763-.976v.004ZM155.406 115.289c.458.065.829.516.746.985-.082.468-.497.814-.981.749-.458-.066-.829-.517-.746-.986.082-.468.497-.814.981-.748ZM181.12 47.827c-.982-.85-2.282-1.323-3.482-1.791-.759-.149-1.942-.057-1.815-1.17.432-1.707 3.634.053 4.62.474 1.327.53 2.291 1.606 3.269 2.605a.884.884 0 0 1-.031 1.239c-1.052.84-1.815-.819-2.566-1.357h.005ZM185.282 52.297c-1.178-.189-.816-2.29.353-2.089 1.178.188.812 2.29-.353 2.089ZM247.76 133.891c.013-.022.03-.057.052-.092-.724 1.73-1.366 3.516-2.295 5.149-.615.718-1.305 2.925-2.5 2.211-.978-.722.157-1.69.55-2.408.68-.932 1.121-1.983 1.535-3.051.528-.911.751-1.966 1.275-2.868.763-.858 2.037.258 1.317 1.147.022-.031.048-.061.07-.092l-.004.004ZM241.197 144.171a.889.889 0 0 1-.689-1.029c.083-.468.563-.779 1.025-.691.471.092.773.56.69 1.028-.083.469-.563.78-1.026.692ZM230.948 175.645c-.772.535-1.915 2.133-2.814 1.025-.41-.617.104-1.195.637-1.497 1.309-1.025 2.513-2.172 3.691-3.337.388-.398.755-.818 1.104-1.252.388-.451.768-1.147 1.44-1.125.742.018 1.113 1.064.519 1.532a38.623 38.623 0 0 1-4.577 4.646v.008ZM224.433 178.723c-.087-1.173 1.955-1.309 2.021-.127.082 1.182-1.955 1.305-2.021.127ZM257.617 150.966c.261-.473.488-.954.698-1.454.353-.901.645-3.091 2.055-2.176.34.298.388.802.144 1.165-.253.547-.345 1.156-.598 1.708-.471.831-.903 2.959-2.216 2.263-.559-.363-.424-1.051-.079-1.502l-.004-.004ZM257.019 153.002c.471.092.772.56.689 1.029-.083.468-.563.779-1.025.691a.888.888 0 0 1-.69-1.028c.083-.469.563-.78 1.026-.692ZM252.804 175.637c.502-.928 1.117-3.472 2.552-2.325.35.394.24.959-.13 1.291-.254.386-.406.828-.589 1.253-.476 1.116-1.253 2.057-2.003 2.99-.297.372-.882.394-1.231.087-.798-.748.21-1.549.65-2.167.258-.346.511-.722.751-1.129ZM249.588 180.562c.471.092.772.56.689 1.029-.083.468-.563.779-1.025.692-.471-.092-.772-.561-.689-1.029.082-.469.562-.78 1.025-.692ZM206.138 156.049c1.339-2.881 2.653-5.801 3.312-8.923.261-.713 1.378-.674 1.618.035.144.377-.039.657-.113 1.051-.127.635-.249 1.274-.454 1.887-1.37 3.713-2.827 7.46-5.258 10.617-.274.39-.872.425-1.226.14-.846-.74.188-1.607.603-2.263a25.442 25.442 0 0 0 1.518-2.544ZM201.657 163.185c.463.07.816.526.733.998-.083.469-.515.81-.995.736-.462-.07-.816-.525-.733-.998.083-.469.515-.81.995-.736ZM218.395 210.74c.057-.762.742-1.725 1.567-1.208.493.315.479.941.17 1.383-.057.828.078 1.585.065 2.509-.022 1.226.009 2.277.044 3.555-.074.836.231 2.399-.986 2.43-1.405-.18-.589-1.957-.764-2.903-.039-1.922-.092-3.848-.096-5.766ZM219.647 222.325c.467.083.79.543.707 1.016a.882.882 0 0 1-1.012.709.88.88 0 0 1-.707-1.016.882.882 0 0 1 1.012-.709ZM117.652 158.768c-1.349-1.673-2.047-3.595-3.382-5.311-1.217-1.519-2.867-2.662-4.616-3.489.078.03.153.061.235.065a.88.88 0 0 1-.754-.779c-.048-.46.309-.919.785-.954.441-.009.82.245 1.2.437 1.606.889 3.133 1.966 4.311 3.389 1.413 1.655 2.173 3.757 3.508 5.464.746.876-.511 2.014-1.292 1.182l.005-.004ZM120.299 162.406a.884.884 0 0 1-.72-1.007.883.883 0 0 1 1.004-.722.882.882 0 0 1 .72 1.007.883.883 0 0 1-1.004.722ZM168.981 195.058c-.65-1.716-.886-3.481-.655-5.319.066-1.148 1.754-1.095 1.746.056-.201 1.59-.035 3.166.55 4.663.362 1.09-1.227 1.673-1.641.604v-.004ZM170.761 198.718a.883.883 0 0 1-.72-1.007.883.883 0 0 1 1.004-.722.883.883 0 0 1 .72 1.007.883.883 0 0 1-1.004.722ZM144.555 217.898c.895-.035 2.012-.004 2.985.141.471.065.794.542.72 1.007-.17.897-1.065.735-1.741.634a18.04 18.04 0 0 0-3.211.053c-.947.153-1.877.67-2.4 1.493-.45.604-1.501.263-1.536-.477a.902.902 0 0 1 .179-.618c1.016-1.606 3.15-2.298 5.004-2.228v-.005ZM152.291 219.286a.883.883 0 0 1 .72 1.007.88.88 0 0 1-1.004.723.884.884 0 0 1-.72-1.007.884.884 0 0 1 1.004-.723ZM97.335 152.691c.995.123.742 1.086.83 1.799.383 2.881 1.273 5.657 1.71 8.529.166.919.34 1.834.515 2.749a.888.888 0 0 1-.694 1.025.885.885 0 0 1-1.021-.696c-.297-1.537-.572-3.078-.855-4.615-.463-2.662-1.462-5.271-1.427-7.99a.885.885 0 0 1 .942-.801ZM101.036 170.107c.476.105.755.569.672 1.042-.083.468-.585.771-1.038.674-.476-.105-.755-.569-.672-1.042.083-.468.584-.77 1.038-.674ZM81.89 182.129a.883.883 0 0 1 1.02.696c.31 1.572.563 3.153.86 4.729.323 1.799.633 3.603.912 5.416.07.472-.214.932-.694 1.024-.454.088-.947-.223-1.02-.696-.525-3.393-1.144-6.769-1.772-10.14-.096-.459.23-.937.693-1.024v-.005ZM84.953 197.3c.476.105.755.569.672 1.042-.083.468-.585.77-1.038.674-.476-.105-.755-.569-.672-1.042.083-.469.584-.771 1.038-.674ZM151.593 140.835c-1.724.25-3.473.18-5.206.21-.851-.048-2.452.355-2.452-.941.061-.832.912-.863 1.558-.797.938 0 1.933-.022 2.923-.031a25.565 25.565 0 0 0 3.068-.192c.746-.092 1.221.906.715 1.445-.157.183-.366.271-.606.302v.004ZM154.979 140.31a.886.886 0 0 1-.685-1.029c.083-.469.572-.78 1.026-.688a.89.89 0 0 1 .685 1.034c-.083.468-.572.779-1.03.687l.004-.004ZM39.291 213.389c1.623 1.309 3.587 2.167 5.358 3.262 1.109.595 2.234 1.16 3.32 1.795.41.241.507.823.258 1.213-.515.774-1.348.197-1.933-.154-.702-.381-1.413-.74-2.111-1.12-2.06-1.261-4.373-2.225-6.192-3.827-.755-.858.528-2.009 1.3-1.173v.004ZM51.958 219.996c1.112-.346 1.283 1.094 1.636 1.817.179.442-.087.963-.524 1.12-1.112.346-1.282-1.094-1.636-1.817-.179-.437.087-.963.524-1.12ZM25.329 149.666c1.536 2.18 2.85 4.562 4.856 6.361.781.836-.466 2.018-1.265 1.208-1.929-1.729-3.246-3.979-4.695-6.107-.301-.425-.707-.893-.69-1.44 0-1.27 1.868-1.336 1.794-.022ZM32.986 159.459c.214 1.305-1.693 1.472-1.74.154-.228-1.301 1.7-1.471 1.74-.154ZM40.151 109.457c1.929 1.2 3.892 2.338 5.995 3.2.851.53 3.203.521 2.819 1.949-.153.433-.672.713-1.113.534-3.08-.998-5.951-2.496-8.683-4.238-.933-.67.022-2.067.982-1.449v.004ZM36.83 106.686c.476.105.75.573.668 1.042-.083.468-.585.766-1.038.67-.476-.105-.75-.574-.668-1.042.083-.469.585-.767 1.038-.67ZM3.312 123.905c-.009-.569.183-1.261.807-1.406.462-.113.942.202 1.047.657-.161 1.716-.196 3.363.03 5.131.097.806.808 2.032-.353 2.364-1.941.408-1.466-5.512-1.531-6.746ZM5.951 132.411c.467.084.79.543.707 1.016a.877.877 0 0 1-1.012.709.883.883 0 0 1-.707-1.015.882.882 0 0 1 1.012-.71ZM6.654 148.882c.794.858-.66 2.185-1.44 1.313-.794-.858.663-2.184 1.44-1.313ZM5.576 160.97c.467.083.79.543.707 1.016a.882.882 0 0 1-1.012.709.884.884 0 0 1-.707-1.016.882.882 0 0 1 1.012-.709ZM66.801 87.956c-.702.215-1.405.416-2.125.578-.955.114-3.434 1.243-3.695-.201-.07-.46.257-.942.733-.998.903-.101 1.719-.28 2.613-.517 1.008-.07 2.959-1.41 3.36.131.079.517-.35 1.042-.881 1.007H66.8ZM57.194 89.414c-1.109-.696 0-2.215 1.025-1.431 1.104.691.009 2.215-1.026 1.431ZM184.047 253.711c-.175.767-.266 2.154-1.383 1.892-.925-.311-.585-1.174-.398-1.87.131-.797.507-2.219 1.584-1.821.424.18.668.718.458 1.151-.096.211-.213.421-.261.648ZM182.114 258.427c-.083.468-.506.81-.99.74-.463-.066-.821-.526-.738-.994.083-.469.506-.81.991-.74.462.066.82.525.737.994ZM170.356 301.866c-.55-1.536-.751-3.148-1.048-4.741-.462-2.277-.92-4.571-1.025-6.9-.214-1.489 1.894-1.659 1.75-.158.061 1.997.458 4.006.842 5.972.349 1.707.528 3.494 1.099 5.153.406 1.081-1.156 1.721-1.61.67l-.008.004ZM172.406 306.341c-1.021-.6.031-2.421 1.048-1.804 1.016.595-.027 2.421-1.048 1.804ZM198.08 329.037c-.428.179-.973-.027-1.144-.473-.227-.644-.571-1.23-.885-1.83-.502-1.261-1.733-2.141-2.016-3.476-.122-1.143 1.562-1.358 1.732-.219 1.017 1.55 2.125 3.086 2.784 4.855.166.447-.022.955-.471 1.143ZM199.498 333.586c-.463-.066-.821-.521-.738-.994.083-.473.506-.81.991-.74.462.066.82.521.737.994-.083.473-.506.81-.99.74ZM185.492 291.245c-.463-.066-.821-.521-.738-.994.083-.468.506-.81.991-.74.462.066.82.526.737.994-.083.469-.506.81-.99.74ZM190.23 298.473c-.362.28-.952.228-1.222-.162a96.673 96.673 0 0 1-1.619-2.43c-.462-.766-1.104-1.506-1.191-2.429a.884.884 0 0 1 .755-.977c.545-.07.99.39.995.92.231.569.615 1.072.938 1.589.519.797.942 1.449 1.505 2.263.271.394.227.929-.161 1.226ZM209.333 313.197c-1.266-1.791-3.063-3.577-4.18-5.271-.555-1.012.933-1.861 1.509-.876 1.253 1.756 2.793 3.319 4.054 5.083.685.915-.685 1.961-1.383 1.064ZM211.836 317.645c-.89-.267-.602-1.248-.375-1.9a.883.883 0 0 1 1.078-.604c.925.302.58 1.212.375 1.9-.113.464-.633.731-1.078.604ZM164.329 320.666c.454.932 1.34 1.65 1.859 2.574a49.499 49.499 0 0 1 1.562 2.338c.249.407.083.963-.319 1.2-.977.521-1.4-.74-1.858-1.362-.69-.972-1.331-1.983-2.103-2.894-.38-.403-.707-.858-.829-1.405-.267-1.112 1.365-1.554 1.688-.451ZM169.469 328.936c.463.066.821.521.738.994-.083.468-.506.81-.991.74-.462-.066-.82-.521-.737-.994.083-.468.506-.81.99-.74ZM148.159 286.665c.755-.858 1.707-1.773 2.562-2.587 1.021-1.108 1.959-2.29 2.941-3.432.449-.57 1.095-1.515 1.885-.872.894.876-.45 1.743-.926 2.448-.903 1.042-1.758 2.123-2.705 3.13-1.605 1.515-3.076 3.192-4.804 4.61a.883.883 0 0 1-1.235-.074.894.894 0 0 1 .075-1.239c.733-.666 1.501-1.292 2.207-1.984ZM144.106 290.488a.879.879 0 0 1 .702 1.015.876.876 0 0 1-1.012.705.88.88 0 0 1-.703-1.016.877.877 0 0 1 1.013-.704ZM112.733 317.794a21.416 21.416 0 0 1 1.645-1.217c.725-.447 1.466-.863 2.182-1.318a.87.87 0 0 1 1.043.066c1.104 1.195-.995 1.878-1.776 2.412-.624.368-1.209.792-1.78 1.239-.471.425-1.191.959-1.741.333-.471-.548-.127-1.2.427-1.515ZM110.343 320.018a.88.88 0 0 1 .702 1.016.878.878 0 0 1-1.012.705.88.88 0 0 1-.702-1.016.876.876 0 0 1 1.012-.705ZM145.014 308.959c.742-.372 1.317-1.068 2.107-1.327.655-.192 1.375.434 1.143 1.121a.923.923 0 0 1-.759.617c-.563.416-1.121.841-1.736 1.169-.659.368-1.331.701-1.994 1.064-.419.228-.965.022-1.174-.389-.541-1.288 1.645-1.655 2.408-2.255h.005ZM140.41 311.673a.88.88 0 0 1 .703 1.016.879.879 0 0 1-1.013.705.88.88 0 0 1-.702-1.016.878.878 0 0 1 1.012-.705ZM110.076 301.989c.86-.565 1.706-1.139 2.601-1.646.89-.482 2.792-1.896 3.194-.211.035.456-.328.937-.803.942-.628.179-1.191.63-1.78.928-.764.455-1.497.95-2.239 1.44a.886.886 0 0 1-1.213-.236c-.261-.394-.165-.955.236-1.217h.004ZM107.746 304.016a.88.88 0 0 1 .703 1.016.877.877 0 0 1-1.013.704.879.879 0 0 1-.702-1.015.876.876 0 0 1 1.012-.705ZM129.332 286.162a.88.88 0 0 1-.703-1.016.879.879 0 0 1 1.013-.705.88.88 0 0 1 .702 1.016.878.878 0 0 1-1.012.705Z"/></g><defs><clipPath id="a"><path fill="#fff" d="M269 0H0v374h269z"/></clipPath></defs></svg>