<svg xmlns="http://www.w3.org/2000/svg" width="177" height="187" fill="none"><g clip-path="url(#a)"><path fill="#9EF1FF" d="M106.309 62.416c.135.039.254.137.357.275a3.942 3.942 0 0 0 .963.365c.496.16.985.105 1.475-.013a.63.63 0 0 1 .304.092c5.052-1.564 9.997-3.41 15.059-4.94 5.316-1.58 10.675-3.01 16.034-4.444a.834.834 0 0 1 .093-.129c.165-.167.231-.397.241-.627-.043-.112-.102-.223-.152-.338-6.275-4.054-12.766-7.778-19.018-11.868-.744-.46-1.489-.93-2.226-1.4a.681.681 0 0 1-.388-.15 3.245 3.245 0 0 0-1.012-.27 6.533 6.533 0 0 0-1.561-.078c-4 1.04-8.012 2.043-11.992 3.16-3.563 1.014-7.09 2.164-10.702 3.002-2.494.62-4.955 1.343-7.423 2.053a.752.752 0 0 1-.159.167c-.298.187-.483.46-.665.726 0 .069.01.141.013.213 5.343 3.584 10.86 6.944 16.088 10.682 1.528 1.104 3.017 2.257 4.515 3.403.05.04.099.082.152.122l.004-.003ZM45.04 90.693c.01-.233.027-.463.053-.686.013-1.137 0-2.27-.033-3.393-.013-3.495.053-6.993-.076-10.488.1-3.383.314-6.764.52-10.14.072-2.322.171-4.645.323-6.964v-.003c-.135-.634-.353-1.097-.641-1.639-.222-.374-.764-.755-.937-1.16a.834.834 0 0 1-.189-.148c-5.818-4.217-11.716-8.33-17.539-12.54-.522-.003-1.148-.542-2.014.762a.348.348 0 0 1-.033.04c-.06 3.665-.09 7.324-.146 10.99.12 3.997 0 7.978-.288 11.97-.231 2.63-.367 5.268-.522 7.902.013.036.023.076.04.112.161.286.373.696.37 1.048 1.713 1.297 3.424 2.595 5.147 3.876 5.068 3.84 10.235 7.538 15.366 11.292.338-.121.483-.483.6-.824v-.007ZM41.993 69.97a.665.665 0 0 1-.71-.604.664.664 0 0 1 .608-.706c.36-.03.681.246.711.604a.664.664 0 0 1-.609.706Zm1.161-4.832c-.01.358-.344.64-.694.621a.664.664 0 0 1-.626-.693c.07-1.603.285-3.196.467-4.786-.506-1.13 1.28-1.412 1.333-.216-.136 1.694-.42 3.373-.48 5.078v-.004Z"/><path fill="#4EC5D9" d="M63.734 33.928a771.013 771.013 0 0 1 18.307 11.91c.185.01.38.075.556.16a4.061 4.061 0 0 0 2.61.06c.304-.04.599-.256.893-.237 1.237-.358 2.475-.726 3.712-1.09 2.94-.772 5.898-1.492 8.826-2.323 5.61-1.754 11.314-3.186 17.007-4.657a.583.583 0 0 1 .195-.105c.069-.109.142-.224.155-.358a.853.853 0 0 1 .03-.118c-2.203-1.456-4.396-2.93-6.606-4.382-3.371-2.125-6.666-4.428-9.95-6.648a123.472 123.472 0 0 0-3.617-2.343c-.205-.026-.38-.147-.535-.285-.493-.194-1.04-.273-1.565-.293-.242-.049-.486-.042-.728-.049-5.968 1.413-11.926 2.871-17.84 4.5-3.55.864-7.044 1.935-10.567 2.907l-2.881.73c-.301.23-.731.364-.668.81 0 .017 0 .037-.004.053.887.588 1.777 1.173 2.66 1.76l.01-.002Z"/><path fill="#9EF1FF" d="M85.597 120.377c-.103-.404-.16-.848-.298-1.13-.222-.552-.496-1.084-.718-1.636-2.13-3.978-6.9-5.985-11.28-5.265-.682.207-1.364.41-2.048.611a.658.658 0 0 1-.712-.263c-.41-.171-.777-.696-1.124-.936a32.131 32.131 0 0 0-2.898-2.329 1037.43 1037.43 0 0 1-3.874-2.927.966.966 0 0 1-.685.191c-1.277.115-2.554.19-3.83.305-4.056.395-8.168.822-12.171 1.551-.232.006-.506.095-.774.154a1.17 1.17 0 0 1-.033.24c-.338 4.979-.288 9.975-.447 14.965-.208 6.701-.413 13.424-.218 20.125.215-.033.446-.046.665-.062a33.79 33.79 0 0 1 1.376-.247l.678-.078c1.469-.247 2.938-.493 4.416-.687 3.798-.48 7.53-1.061 11.297-1.524 2.948-.398 5.942-.595 8.873-1.061 4.631-.703 9.223-1.389 13.838-2.03-.1-.273-.106-.611-.09-.88-.109-2.812.255-5.604.195-8.396.073-2.9-.092-5.797-.142-8.691h.004Zm-38.358 1.892c-.374.01-.648-.286-.675-.641-.03-.358.301-.663.645-.67.374-.01.649.286.675.641.03.358-.3.663-.645.67Zm.837-9.02c-.076 1.626-.245 3.255-.142 4.884-.046.726.37 2.3-.755 2.296-.569-.082-.645-.597-.552-1.07.017-.503-.01-1.009-.03-1.511-.08-1.738.123-3.469.192-5.203-.1-.371.04-.789.444-.904.916-.197.939.881.846 1.505l-.003.003Z"/><path fill="#9EF1FF" d="M56.862 146.155c-2.488-1.921-5.819-1.54-8.76-1.304-.165.016-.317.033-.473.049a46.71 46.71 0 0 1-2.339.371h-.026c-.321.069-.682.145-.98.109a.738.738 0 0 1-.4-.105h-.072c-.232-.02-.38-.115-.473-.25-.457-.135-.662-.844-.86-1.271-.808-1.564-1.645-3.12-2.439-4.697-1.316-2.51-2.626-5.022-3.936-7.538a1.04 1.04 0 0 1-.288-.404c-.285-.447-.546-.907-.854-1.337-.562-.884-2.388-3.561-3.566-3.042-.37.48-.73.844-.956 1.396-.076.223-.168.516-.297.765.089 4.651.165 9.306.238 13.947-.05 2.805.139 5.617.142 8.422v.246a.814.814 0 0 1 0 .283c0 .18 0 .361-.007.539 0 .17.004.341.01.515.116.736.126 1.511.404 2.211.178.295.397.568.589.857a.655.655 0 0 1 .235.24c4.386 2.138 8.713 4.273 12.967 6.651 4.45 2.326 8.912 4.576 13.392 6.829.142.069.284.135.426.201.328-5.046.172-10.14.248-15.185.067-1.124.106-2.25.14-3.377a1.28 1.28 0 0 1 .016-.473l.04-1.298c-.023-.082-.05-.154-.06-.193-.31-1.275-.953-2.428-2.051-3.173l-.01.016Zm-20.087-8.116c-.661-1.258-1.39-2.49-2.03-3.755-.444-.693.568-1.392 1.064-.775.235.309.344.69.543 1.025.668 1.146 1.28 2.322 1.909 3.488.208.516.82 1.202.162 1.643-1.02.499-1.218-1.038-1.648-1.626Zm2.16 3.636a.67.67 0 0 1-.698-.621c-.03-.358.272-.673.626-.693a.67.67 0 0 1 .698.621c.03.358-.272.673-.626.693ZM19.242 97.26c.387.469 1.003.827 1.535.466.05-.05.096-.105.146-.161-.003-.253-.01-.506-.02-.759a.594.594 0 0 1 .116-.457c.02-.502.043-1.001.08-1.504.171-4.303.4-8.6.648-12.899-.017-1.031.013-2.063.03-3.094a5.522 5.522 0 0 1-.027-.217A7.71 7.71 0 0 0 21.214 77c-.179-.574-.51-1.05-.913-1.465a14.004 14.004 0 0 0-1.234-.627c-1.965-.844-4.476-.821-6.064.755a1.161 1.161 0 0 1-.264.345c-.126 2.076-.248 4.149-.493 6.195-.093.707-.172 1.413-.156 2.126 0 .062-.01.121-.03.177.06.128.116.253.182.361.292.575.612 1.137.937 1.675 1.697 2.668 3.09 5.512 4.71 8.212.457.834.91 1.669 1.363 2.503l-.01.003Zm.47-15.879c-.056-.355.218-.693.57-.736.8-.065.806.795.8 1.354-.007 1.28.033 2.562-.05 3.843-.006.509-.01 1.205-.695 1.212a.663.663 0 0 1-.658-.66c.073-1.666.149-3.344.03-5.01l.003-.003Z"/><path fill="#9EF1FF" d="M43.743 110.434c0-.63.073-1.255.12-1.882-.004-.02-.008-.039-.01-.059-.596-1.031-1.109-2.106-1.655-3.16-.906-1.78-1.813-3.551-2.848-5.262-1.919-3.15-3.692-6.395-5.614-9.535l-.06-.086c-.043 1.3-.148 2.625-.172 3.876.03 3.048.262 5.919.272 8.931-.136 2.907.033 5.765-.11 8.662-.128 3.462-.122 6.931-.35 10.386-.013.259-.003.558-.09.795.007.033.014.062.014.095 2.193 4.142 4.36 8.297 6.503 12.466 1.099 2.131 2.243 4.237 3.322 6.382.023.039.05.085.073.128-.152-7.9.192-15.806.4-23.702.03-2.681.056-5.358.208-8.028l-.003-.007Z"/><path fill="#4EC5D9" d="M32.42 101.697c-.023-2.628-.264-5.213-.225-7.824.073-.75.05-1.501.073-2.25.083-1.061.222-2.109.023-3.124a.75.75 0 0 1 0-.243c-.473-.759-.96-1.508-1.528-2.204-.556-.815-1.055-1.665-1.548-2.52a42.976 42.976 0 0 0-2.236-2.614c-1.181-1.166-2.429-2.322-3.868-3.166l-.01.886c.04.234.053.48-.006.68-.01.98-.017 1.958-.023 2.924-.13 2.276-.328 4.552-.368 6.832-.125 2.595-.27 5.19-.37 7.788-.02.282-.033.565-.046.847 0 .04 0 .08-.004.122-.01.315-.02.627-.026.942 0 .01 0 .023.003.033.03 1.57.06 3.16.576 4.665.03.404.37.942.552 1.442 1.677 3.117 3.355 6.234 5.062 9.335a851.85 851.85 0 0 1 3.609 6.714c.287-6.412.39-12.853.36-19.265Zm-4.929 7.318a.672.672 0 0 1-.86-.338c-.53-.959-1.082-1.909-1.608-2.871-.178-.315-.347-.634-.535-.946a.675.675 0 0 1-.242-.7c.12-.496.794-.676 1.148-.305.695 1.008 1.197 2.151 1.846 3.196.278.588 1.141 1.511.248 1.964h.003Zm1.036 2.138c-.344.046-.712-.21-.741-.564-.03-.359.198-.69.569-.736.344-.046.71.21.74.565.03.358-.198.689-.568.735ZM46.407 90.775c-.004.247-.01.496-.017.743.023.338.063.67.165.988.103.27.315.575.43.874 2.875 2.08 5.793 4.106 8.668 6.188 3.199 2.31 6.252 4.809 9.448 7.128 1.475 1.17 3.083 2.26 4.518 3.485.239-.128.407-.364.52-.594.056-.138.116-.273.119-.424a.581.581 0 0 1 .083-.214c.013-.2.04-.4.076-.597.357-7.062.764-14.128 1.263-21.18.172-3.653.5-7.367.407-11-.413-.247-.827-.677-1.16-.838-1.77-1.176-3.488-2.342-5.205-3.508-5.587-3.912-11.052-8.005-16.573-12.012-.268-.2-.536-.4-.807-.598a.765.765 0 0 1-.116-.059c-.417-.115-.78.266-.973.572a.8.8 0 0 1-.043.092c.01.18-.006.351-.112.502a825.057 825.057 0 0 0-.788 16.125c.136 3.251.077 6.507.063 9.758.04 1.242.057 2.48.043 3.722.004.059.004.118 0 .177.07.155.09.332.034.503-.017.056-.03.115-.047.17l.004-.003Z"/><path fill="#9EF1FF" d="m97.88 22.027-.675.158c-.132.111-.271.216-.377.348a.784.784 0 0 0-.116.25c3.248 2.069 6.418 4.266 9.597 6.401 3.635 2.346 7.218 4.77 10.83 7.144.05 0 .103.014.159.027.635.187 1.247.338 1.902.355.212-.007.437-.076.649-.083 5.465-1.504 10.9-3.117 16.335-4.723 3.589-1.051 7.146-2.316 10.795-3.153.122-.171.301-.322.393-.52a.592.592 0 0 1-.03-.344c-5.091-2.907-10.228-5.729-15.27-8.721a488.052 488.052 0 0 1-6.044-3.564c-.407 0-.913-.226-1.373-.286-.238.04-.476.086-.711.128a.894.894 0 0 1-.655.132c-2.458.509-4.856 1.218-7.314 1.777-6.074 1.402-12.061 3.124-18.095 4.674Z"/><path fill="#4EC5D9" d="M72.567 74.864c.05-.013.1-.023.153-.026a.704.704 0 0 1 .284-.164c1.992-.545 3.97-1.14 5.948-1.738 8.836-2.844 17.58-5.755 26.412-8.54.01-.023.023-.043.036-.062.338-.31.315-.546.235-.779-2.094-1.629-4.247-3.291-6.411-4.753-4.77-3.261-9.643-6.379-14.47-9.561a.595.595 0 0 1-.433-.086c-.38-.15-.715-.276-1.052-.407-.605-.177-1.24-.312-1.872-.276-4.09 1.038-8.218 1.836-12.35 2.69-2.858.664-5.666 1.528-8.511 2.234-3.226.745-6.434 1.636-9.557 2.72-.487.167-.976.321-1.466.472-.559.293-.721.854-.5 1.456 0 .006.004.013.007.02.047.029.086.062.123.101 3.602 2.628 7.201 5.255 10.807 7.877 3.206 2.361 6.431 4.697 9.76 6.888.889.6 1.637 1.087 2.48 1.668.113.086.252.171.387.266h-.01ZM93.322 104.4l.033-.01c4.172-1.317 8.307-2.66 12.472-4.007 0 0 .003-.003.003-.007.672-.62 1.019-1.514 1.198-2.371.019-.095.046-.19.072-.282l-.01-.158a.651.651 0 0 1 .024-.549.536.536 0 0 1 .069-.102c.119-2.72.116-5.495.212-8.162.006-3.393.218-6.796.013-10.19-.202-3.918-.384-7.843-.423-11.771-.014-.148-.017-.3-.02-.447v-.013c-.275-.28-.52-.693-.92-.74a1.419 1.419 0 0 1-.245.043c-9.355 2.957-18.664 6.1-28.003 9.02a151.65 151.65 0 0 1-4.33 1.261c-.086 5.256-.377 10.485-.784 15.724-.285 5.446-.639 10.896-.93 16.342.05.226.01.466-.036.699-.013.292-.03.582-.043.871.01.098.02.193.033.292.033.453.31.818.691 1.058a.894.894 0 0 1 .219.23c.119-.017.234-.033.354-.046 1.37-.418 2.732-.848 4.102-1.272 4.237-1.33 8.267-2.828 12.458-4.22 1.27-.391 2.537-.789 3.798-1.186l-.007-.007Zm10.113-13.198a.665.665 0 0 1-.711-.604.663.663 0 0 1 .608-.706.666.666 0 0 1 .712.604.665.665 0 0 1-.609.706Zm-.754-13.099c1.042-.292 1.042 1.045 1.078 1.731.159 2.046.073 4.11.347 6.146.09.374-.095.778-.496.86-.337.073-.728-.15-.784-.505-.192-1.213-.228-2.441-.264-3.666-.04-1.19-.07-2.378-.192-3.56-.252-.333-.096-.878.311-1.003v-.003Z"/><path fill="#9EF1FF" d="M60.128 33.165c-.178-.16-.393-.236-.615-.315a7.688 7.688 0 0 0-1.459-.302c-.32-.03-.757.046-1.108-.017-.493.132-.986.263-1.475.395-4.9 1.471-9.911 2.539-14.824 3.984-3.225.844-6.484 1.573-9.676 2.552-1.333.542-2.756.87-4.155 1.238-.003.01-.01.02-.013.033-.08.155-.176.457-.172.605-.034.167.089.312.142.466a.658.658 0 0 1 .241.447c.973.713 1.945 1.419 2.925 2.122 5.015 3.514 9.983 7.091 14.94 10.688.022.013.049.026.072.043 1.168.545 2.504.568 3.735.233a.61.61 0 0 1 .506-.026c1.21-.375 2.401-.798 3.609-1.17 2.398-.88 4.916-1.38 7.384-2.02 2.805-.7 5.57-1.534 8.386-2.204 3.93-.877 7.923-1.5 11.813-2.559a.34.34 0 0 1 .053-.042c.288-.112.447-.319.532-.595a261.863 261.863 0 0 1-3.572-2.443c-5.7-3.65-11.38-7.329-17.047-11.027a.61.61 0 0 1-.218-.082l-.004-.004Zm10.55 10.002a.673.673 0 0 1 .688.63c.03.359-.288.671-.635.684a.673.673 0 0 1-.688-.63c-.03-.358.288-.67.635-.684Zm-6.047-4.493c.814.726 1.561 1.284 2.418 1.912.54.374 1.095.712 1.647 1.067.302.194.368.627.166.913a.669.669 0 0 1-.92.164c-1.522-.952-3.01-1.99-4.327-3.215-.546-.664.453-1.495 1.016-.841Z"/><path fill="#4EC5D9" d="m73.89 9.023.248.177c2.779 1.672 5.67 3.098 8.41 4.829 1.025.575 1.988 1.271 2.934 1.957 2.243 1.498 4.65 2.743 6.937 4.182.354.204.704.41 1.055.617.288-.062.629.099.953.198.602.124 1.068.154 1.65.052a.708.708 0 0 1 .321-.01l.186-.046a.695.695 0 0 1 .41-.102c6.547-1.642 13.037-3.511 19.617-5.035 2.041-.473 4.062-1.045 6.11-1.485.109-.092.218-.184.228-.315a.852.852 0 0 1-.01-.29c-5.59-3.363-11.161-6.759-16.828-9.998-1.178-.676-2.213-1.652-3.46-2.174a.993.993 0 0 1-.235-.164C93.064 3.715 83.672 5.696 74.33 8.01l-.622.148c-.09.26-.066.545.13.759.022.033.039.066.055.102l-.003.003ZM21.357 74.404c.38-.183.668-.561.741-.972a.854.854 0 0 1 .09-.23.621.621 0 0 1 .142-.44c.268-3.99.579-7.975.724-11.976-.063-5.594.023-11.18.1-16.771a.701.701 0 0 1-.034-.178c-.192-1.215-.572-2.424-1.227-3.468-.08-.145-.185-.283-.265-.424-2.378-1.767-4.753-3.547-7.162-5.24-3.655-2.541-7.387-4.87-11.062-7.344-.209 2.838.05 5.696-.13 8.54-.353 8.051-.522 16.109-.125 24.163-.006.223.023.502.02.772.513.266.91.712 1.36 1.067 1.045.86 2.193 1.59 3.301 2.368 2.842 1.958 5.455 4.221 8.25 6.244a275.377 275.377 0 0 1 5.28 3.89h-.003Zm-1.978-17.72c.73-.23 1.055.522.86 1.12a53.361 53.361 0 0 0-.444 3.357c-.05.463-.092.926-.099 1.39.056.403-.152.84-.605.873-.347.026-.698-.246-.711-.605-.007-1.806.327-3.6.575-5.383a.66.66 0 0 1 .424-.752Zm-.81 8.632c.36-.03.68.246.71.604a.664.664 0 0 1-.608.706.666.666 0 0 1-.712-.604.664.664 0 0 1 .61-.706Z"/><path fill="#9EF1FF" d="M40.02 18.102c.024.026.044.05.064.075.837.648 1.713 1.249 2.58 1.85 4.965 3.304 9.957 6.576 14.94 9.857a.628.628 0 0 1 .443.023c.589.266 1.177.24 1.776.253.331-.013.702-.148.99.02l.337-.089a.344.344 0 0 1 .072-.02c10.137-2.703 20.23-5.59 30.458-7.929a.79.79 0 0 1 .13-.128.454.454 0 0 0 .098-.4.572.572 0 0 1-.013-.224c-2.243-1.337-4.495-2.657-6.722-4.014-1.257-.887-2.352-1.695-3.659-2.427-1.746-1.075-3.546-2.063-5.326-3.081-1.227-.621-2.365-1.272-3.457-2.037-.188-.056-.38-.16-.569-.26-.549-.216-1.26-.397-1.826-.338-.297-.013-.628.105-.9.017L69 9.368c1.24.857 2.468 1.75 3.731 2.575.54.49 2.051.85 1.516 1.794a.672.672 0 0 1-.924.164 84.739 84.739 0 0 1-2.66-1.77 77.584 77.584 0 0 1-2.824-1.985.66.66 0 0 1-.189-.413C63 11.01 58.377 12.4 53.706 13.612c-4.466 1.228-8.958 2.312-13.444 3.422l-.003.004c-.076.098-.205.164-.235.292-.026.25-.109.48-.016.72a.326.326 0 0 1 .016.052h-.003Zm36.393-3.682a.673.673 0 0 1 .688.63c.03.358-.287.67-.635.684a.673.673 0 0 1-.688-.631c-.03-.355.288-.67.635-.683Z"/><path fill="#4EC5D9" d="M22.881 39.22c.308.11.632.183.933.301.764.27 1.657.151 2.392-.134a.621.621 0 0 1 .609-.02c.866-.233 1.73-.476 2.583-.746 2.918-1.021 5.932-1.737 8.939-2.463 5.425-1.534 10.923-2.805 16.338-4.375l1.132-.29a.538.538 0 0 1 .159-.164c.261-.121.433-.328.559-.581-1.694-1.11-3.384-2.217-5.078-3.33-2.253-1.43-4.436-2.96-6.663-4.435-2.024-1.268-4.032-2.582-5.895-4.083-.053-.033-.109-.062-.165-.095-.215-.112-.46-.19-.682-.276a4.726 4.726 0 0 0-.88-.22c-.314.03-.658-.063-.837-.293-2.46.625-4.919 1.275-7.37 1.971-3.702.96-7.397 2.063-11.066 3.026-4.436 1.234-8.746 2.575-13.196 3.645.791.556 1.601 1.084 2.432 1.58 5.432 3.413 10.592 7.184 15.746 10.974l.01.007ZM29.056 144.45c-.01-4.657-.142-9.295-.179-13.92-.026-.033-.056-.063-.08-.099-.257-.594-.088-1.323-.118-1.948-.14-1.248-.013-2.519-.265-3.754-.48-2.04-1.886-3.452-3.447-4.697-3.288-1.659-6.646-3.176-9.967-4.763a238.21 238.21 0 0 1-7.827-4.024c-1.833-.785-3.556-1.596-5.277-2.578-.158-.105-.344-.187-.529-.273-.02 3.029.132 6.057.036 9.082-.003 3.61.404 7.207.53 10.814.185 3.961.02 7.932.29 11.89.014.105.02.217.017.329.11.052.215.111.311.164 1.43.634 2.763 1.442 4.152 2.148 3.583 1.899 7.185 3.754 10.781 5.614 3.46 1.859 6.864 3.816 10.318 5.682.166-.013.324-.089.463-.167l-.043.019c.78-.394.88-1.333.966-2.112v-.473c0-.062 0-.128-.006-.19 0-.017.006-.03.006-.043 0-2.234-.096-4.47-.136-6.697l.004-.004ZM3.87 123.143c-.344.042-.708-.217-.737-.572a.669.669 0 0 1 .575-.732c.344-.043.708.216.738.571a.668.668 0 0 1-.576.733Zm.702-5.111c-.093.683.268 2.243-.741 2.276-.947-.066-.573-1.137-.59-1.761.024-.85-.036-1.704.057-2.555.112-.854.245-1.718.152-2.582a.63.63 0 0 1-.096-.663c.546-.907 1.502-.135 1.426.716.106 1.534-.327 3.038-.212 4.572l.004-.003Z"/><path fill="#9EF1FF" d="M145.364 96.412c-3.119.561-6.255 1.034-9.391 1.494-1.711.253-3.424.45-5.141.624-.331.178-.711.204-1.055.339-.364.197-.645.22-.89.532a3.926 3.926 0 0 0-.824 1.531v.026a.87.87 0 0 1-.01.417c-.026.805-.059 1.609-.079 2.414-.027 1.334.155 2.661.112 3.994-.208 3.298-.165 6.698-.304 9.983-.122 3.347-.027 6.694-.162 10.041-.023.67-.089 1.314-.156 1.948a.65.65 0 0 1-.016.325l.013-.043c-.007.043-.017.085-.026.128 0 .112 0 .227.019.335a2.25 2.25 0 0 0 .814 1.524c.099.05.202.102.301.161a91.715 91.715 0 0 1 3.676-.269c.089-.017.181-.03.271-.043 1.962-.154 3.903-.433 5.849-.667 3.652-.581 7.294-1.221 10.906-2.01 1.171-.236 2.362-.368 3.54-.538 1.995-.408 4-.684 6.031-.851a48.662 48.662 0 0 1 2.951-.499c.36-.079.721-.142 1.088-.178.023-.151.043-.292.066-.41.536-2.786.645-5.64 1.019-8.452.671-5.925.817-11.89 1.257-17.832.205-2.369.367-4.737.552-7.105-.36.023-.734.006-1.068.072-1.793.128-3.536.581-5.31.838-4.641.946-9.328 1.629-14.033 2.168v.003Zm16.194 11.122c.115-1.446.168-2.815.261-4.241a.662.662 0 0 1 .43-.877c.847-.197.976.828.867 1.432-.123 1.899-.235 3.758-.391 5.624.057.433-.291.841-.737.791-.344-.023-.622-.374-.586-.696.03-.68.103-1.353.156-2.03v-.003Zm-.291 3.866c.631-.647 1.849.516 1.204 1.163-.632.65-1.853-.516-1.204-1.163Z"/><path fill="#4EC5D9" d="M137.26 32.952c-4.357 1.36-8.776 2.513-13.14 3.85-1.075.315-2.153.617-3.235.913a.747.747 0 0 1-.109.088.906.906 0 0 0-.473.559c4.714 3.002 9.425 6 14.215 8.881a274.504 274.504 0 0 1 6.751 4.215c.411.318 1.218.805 1.78 1.324.288.039.579.088.86 0 .063-.01.083-.014.166-.01.016 0 .036 0 .053.003a540.396 540.396 0 0 0 8.819-2.454c2.303-.65 4.588-1.356 6.917-1.918 1.661-.414 3.229-1.107 4.853-1.63 3.229-.991 6.444-2.289 9.746-3.028-.156-.101-.311-.203-.47-.299-3.4-1.974-6.738-4.056-10.06-6.162-4.34-2.667-8.899-4.946-13.312-7.492-.38.003-.813-.095-1.131-.085-.334-.004-.741.101-1.029.187-.4.15-.909.351-1.24.148-3.368.775-6.656 1.924-9.964 2.91h.003Z"/><path fill="#9EF1FF" d="M143.337 144.835c.006-1.314-.004-2.628-.017-3.939a.719.719 0 0 1-.01-.305c0-.017.007-.03.007-.046 0-.181-.003-.362-.007-.542-.357-.618-.569-1.626-.837-2.017-.397-.512-.701-1.097-1.111-1.6-.91-.785-1.823-1.652-2.958-2.099-.711-.302-1.482-.384-2.229-.538a12.59 12.59 0 0 0-2.137-.431c-.692.05-1.38.135-2.071.201-.486.043-.973.082-1.459.128-.751.095-1.505.19-2.259.282-.672.119-1.34.27-1.992.487-1.743.758-3.507 1.846-4.807 3.225-.43.493-.708 1.077-.956 1.679.02.21-.023.44-.125.63-.07.181-.159.355-.229.536.116.446-.105.867-.168 1.3a2.518 2.518 0 0 1-.146.638c0 .006-.007.013-.01.023-.073 4.982.04 9.969-.135 14.948-.043 2.129-.05 4.26-.136 6.386.169.594-.017 1.53.179 2.013.079.401.287.71.631.92.143.029.275.088.387.164 2.151-1.383 4.288-2.779 6.448-4.145 4.764-3.075 9.6-6.037 14.407-9.043.116-.158.251-.305.364-.437.38-.456.717-.949.985-1.481.268-.68.351-1.422.391-2.145a.631.631 0 0 1 .033-.243c-.007-.247-.007-.49-.003-.726a.623.623 0 0 1 .016-.368c-.016-1.156-.05-2.312-.05-3.452l.004-.003Zm-20.613-1.557c-.017 1.491.05 2.985.112 4.477.067.578.189 1.474-.648 1.468a.664.664 0 0 1-.622-.693c-.145-1.797-.099-3.544-.208-5.312-.013-.982 1.399-.903 1.369.06h-.003Zm-.05 7.682c-.721.506-1.581-.709-.85-1.205.718-.503 1.581.706.85 1.205Z"/><path fill="#4EC5D9" d="M118.417 141.658c-.093-.45-.361-.844-.645-1.195-.689-.907-1.631-.884-2.594-.73-3.487 2.083-6.94 4.225-10.447 6.281-1.932 1.143-3.996 2.046-5.941 3.163a71.595 71.595 0 0 1-3.398 1.974c-.784.489-1.67.795-2.428 1.324.01.056.01.115.003.171-.45 7.62-.936 15.234-1.247 22.864-.182 2.901-.172 5.821-.595 8.698-.04.351-.046.703-.05 1.054a82.933 82.933 0 0 0 2.243-1.488c7.096-4.575 14.321-8.898 21.566-13.227.35-.21.701-.424 1.048-.637 1.572-1.261 1.969-2.497 2.147-4.438a.806.806 0 0 1 .076-.446c.139-2.316.186-4.632.176-6.951.172-4.033.129-8.07.115-12.107.024-1.222.047-2.451.067-3.679-.053-.204-.057-.427-.1-.631h.004Zm-11.033 31.934a.663.663 0 0 1-.711-.604.663.663 0 0 1 1.32-.102.661.661 0 0 1-.609.706Zm6.739-4.497c-1.128.769-2.375 1.495-3.427 2.336-.47.351-1.132 1.061-1.651.387-.215-.302-.123-.696.165-.913 1.436-1.156 2.968-2.099 4.499-3.114.219-.617 1.244-.46 1.261.207.059.549-.437.844-.847 1.101v-.004ZM164.121 127.748a.625.625 0 0 1-.476.555.62.62 0 0 1-.241.111c-.407.043-.814.102-1.221.165-1.661.404-3.331.778-4.969 1.251-1.862.43-3.635 1.193-5.329 2.01-1.307.664-2.584 1.341-3.593 2.408-1.866 1.619-3.179 3.541-3.596 5.975-.03.184-.043.299-.059.42.006 1.127.016 2.25.023 3.377-.023 1.905.066 3.8.059 5.692.02.237.057.467.129.693.149.289.354.601.702.647a.83.83 0 0 1 .129.053c2.054-1.353 4.019-2.743 6.116-4.08 4.394-2.778 8.896-5.38 13.365-8.031a.717.717 0 0 1 .321-.308 43.89 43.89 0 0 0 .88-5.795c.212-2.522.496-5.038.731-7.561.185-2.151.195-4.309.506-6.451.232-2.276.53-4.553.784-6.803.202-1.579.268-3.176.53-4.746-.05.03-.096.059-.139.095-.86.611-1.648 1.327-2.584 1.827a.685.685 0 0 1-.202.079c-.036.686-.073 1.369-.102 2.056-.232 3.321-.516 6.645-.95 9.949-.218 2.148-.393 4.293-.814 6.415v-.003Z"/><path fill="#9EF1FF" d="M141.931 55.908a.42.42 0 0 1-.047-.111c-.039-.135-.076-.276-.149-.398-.158-.25-.446-.38-.734-.41a.619.619 0 0 1-.149.02 673.415 673.415 0 0 0-10.182 2.772c-7.172 1.902-14.103 4.477-21.165 6.69l-.569.178c-.331.39-.569.825-.659 1.314.08 2.654.129 5.308.215 7.959.139 2.73.381 5.488.318 8.221a484.248 484.248 0 0 1-.245 12.252c-.016 1.225-.03 2.454-.102 3.676.039.299.165.568.337.817.185.106.351.257.453.424 7.324-2.24 14.738-4.234 22.072-6.431a319.944 319.944 0 0 0 7.347-2.457c.086-.178.235-.339.387-.48.271-.26.463-.578.705-.864.268-.41.45-.873.575-1.346.239-2.474.308-4.96.609-7.427.305-3.78.645-7.561.563-11.358.112-3.469.152-6.865.301-10.317.069-.894.066-1.817.119-2.724Z"/><path fill="#4EC5D9" d="M91.63 152.81a.592.592 0 0 1-.046-.164c-.231-.112-.46-.26-.698-.339-3.096-1.038-5.974-2.667-8.925-4.014-1.909-.936-3.94-1.606-5.826-2.591-2.269-1.068-4.538-2.306-6.834-3.255a1.94 1.94 0 0 1-.526-.227c-1.307.053-2.554.519-3.775.953-3.337 1.182-4.264 4.687-4.747 7.824-.066 1.78-.129 3.564-.162 5.347 0 3.377.033 6.75-.096 10.123-.07 1.331.043 2.674-.172 3.998 8.029 3.81 16.15 7.427 23.96 11.667 1.989 1.018 3.967 2.046 5.949 3.071l.016.01c.03-.949.15-1.892.288-2.835.169-3.156.367-6.319.473-9.482.159-5.171.629-10.321.837-15.484.073-1.534.195-3.065.285-4.599v-.003Zm-2.259 12.222c-.569.677-1.7-.292-1.124-.956.569-.676 1.7.293 1.124.956Zm.487-7.092c-.04.989-.126 1.978-.166 2.966-.135.671.218 2.017-.794 2.037-.946-.112-.526-1.245-.54-1.876.024-1.359.24-2.719.18-4.076-.315-.906 1.058-1.297 1.267-.378.105.437.069.884.052 1.327ZM166.645 47.513c-2.401.739-4.704 1.793-7.165 2.335-3.5.943-6.98 1.948-10.454 2.986-1.561.417-3.123.831-4.684 1.245a.777.777 0 0 1-.165.16c-.387.352-.728.776-.854 1.288-.016.178-.026.368-.073.54-.129 1.635-.092 3.287-.178 4.923-.242 4.1-.159 8.208-.301 12.314-.136 3.285-.477 6.563-.771 9.841-.096 1.186-.156 2.375-.242 3.56.02.244-.033.497.01.74.03.45.205.867.497 1.202.062.098.195.125.287.197a.552.552 0 0 1 .176.174c2.848-.989 5.696-1.97 8.571-2.897 1.945-.49 3.861-1.104 5.835-1.485a66.397 66.397 0 0 0 2.558-.525c.019-.01.036-.02.056-.027a.603.603 0 0 1 .291-.052c.883-.204 1.76-.42 2.633-.654 2.203-.637 4.38-1.37 6.557-2.095.251-.076.503-.151.754-.22.03-.03.066-.06.106-.08.943-.512 1.446-1.458 1.724-2.437.201-1.274.436-2.542.628-3.816.361-2.684.662-5.377 1.092-8.054.357-3.962.731-7.926 1.035-11.89.258-3.315.384-6.646.989-9.917-1.194.285-2.421.47-3.582.89-1.813.62-3.517 1.212-5.336 1.76l.006-.006Zm4.883 11.838c-.37.013-.655-.28-.685-.634-.03-.358.291-.667.639-.68.37-.013.655.28.684.634.03.358-.291.667-.638.68Zm1.141-10.071c-.172 1.738-.178 3.495-.112 5.239-.056.67.215 1.98-.787 1.97a.666.666 0 0 1-.596-.715c.129-1.98-.059-3.971.113-5.955.099-.48-.077-1.16.459-1.413.563-.256 1.076.332.923.877v-.003ZM126.307 127.547c.115-3.127.033-6.339.132-9.456.126-2.382.089-4.714.185-7.092.106-2.253.185-4.497.02-6.753.003-1.032.056-2.066.089-3.101-.053-.135-.099-.276-.165-.394-.209-.375-.298-.815-.612-1.13-.301-.217-.632-.43-.993-.525-.003 0-.009 0-.013-.004-.774.072-1.551.148-2.325.23-3.596.404-7.182.874-10.781 1.255-1.003.036-2.005.098-2.991.295-.232.056-.463.132-.698.155l-.708.223c-.404.141-.83.243-1.204.44-1.38.654-2.736 1.34-4.036 2.149-1.068.64-2.276 1.221-3.295 1.924-1.624 1.084-3.05 2.424-4.446 3.781-2.974 2.769-5.697 6.027-7.083 9.867-.129.362-.254.723-.357 1.091a.62.62 0 0 1-.086.469c.066 2.099.113 4.202.126 6.304.119 3.613-.354 7.203-.166 10.78.007.039.01.076.01.115.775-.105 1.549-.21 2.323-.312 5.293-.9 10.579-1.675 15.888-2.418 3.593-.44 7.146-1.064 10.739-1.497 1.257-.125 2.51-.253 3.767-.385.331-.069.665-.138.996-.203 1.307-.266 2.62-.49 3.937-.684.099-.055.192-.108.271-.161.761-.597 1.055-1.504 1.264-2.407 0-.013 0-.026.003-.043a10.762 10.762 0 0 1 0-.539.614.614 0 0 1 .096-.469c.05-.509.089-1.015.106-1.505h.007Zm-19.637 5.187a.665.665 0 0 1-.705-.611.661.661 0 0 1 1.32-.089.661.661 0 0 1-.615.7Zm10.298-1.761c-1.863.467-3.781.729-5.641 1.235-.628.132-1.27.214-1.895.365-.351.085-.711-.171-.781-.513-.152-1.07 1.591-.87 2.279-1.113 1.85-.48 3.739-.795 5.598-1.212.82-.269 1.254.929.44 1.238Z"/><path fill="#000" d="M176.619 43.65a76.363 76.363 0 0 0-1.508-1.051c-1.909-1.205-3.904-2.286-5.816-3.492-3.55-2.253-7.112-4.483-10.814-6.487-3.877-2.036-7.665-4.234-11.45-6.435-10.718-5.965-21.281-12.209-31.757-18.581-3.537-2.24-7.301-4.11-10.752-6.48-.38-.247-.751-.52-1.161-.72a.668.668 0 0 0-.734-.394c-.338.062-.675.128-1.012.207-3.368.91-6.815 1.636-10.21 2.473-9.434 2.125-18.842 4.195-28.135 6.918-8.224 2.355-16.494 4.493-24.81 6.533-7.824 1.908-15.525 4.152-23.293 6.284-4.016 1.15-8.111 2.351-12.193 3.314a1.018 1.018 0 0 0-.397.253c-.394.078-.718.423-.473.959-.235 2.887.016 5.8-.14 8.694-.27 6.51-.499 13.037-.3 19.557-.007 1.978.168 3.948.165 5.926a.59.59 0 0 0 .145.397.672.672 0 0 0 .55.467 72.716 72.716 0 0 0 5.306 3.876c1.33.959 2.603 1.993 3.893 3.005a.615.615 0 0 0-.023.27c-.4 3.439-.701 6.894-.863 10.366-.159 1.199-.245 2.407-.367 3.613-.017.282-.086.67-.076 1.018-.02.141 0 .283.066.408a.593.593 0 0 0 .317.36c.791 1.62 1.777 3.125 2.697 4.675 1.227 2.266 2.504 4.516 3.774 6.773v.03c.03.167.11.325.218.446.106.234.225.463.364.684-2.497 1.159-4.84 2.601-7.201 4.007a268.017 268.017 0 0 1-9.931 5.058c-.04 0-.08 0-.12.007-.413.065-.698.519-.532.906-.05 2.484.06 4.96.063 7.443-.02 2.027-.12 4.06.082 6.084.182 3.022.358 6.043.487 9.065 0 3.502.043 7 .225 10.495a.718.718 0 0 0 .006.266.654.654 0 0 0 .4.703c.12.036.235.089.348.144 1.025.51 1.938.9 2.96 1.502 5.254 2.841 10.626 5.459 15.846 8.359 3.004 1.646 5.962 3.37 9.008 4.93 2.726 1.429 5.436 2.628 8.211 4.073 6.977 3.689 13.94 7.401 21.05 10.833 5.084 2.493 10.278 4.753 15.379 7.236 4.284 2.135 8.508 4.392 12.77 6.566.945.5 1.898.992 2.847 1.485a.716.716 0 0 0 .44.082c.219.253.649.322.91.092.14-.121.295-.22.444-.322.777-.499 1.564-1.002 2.322-1.537 6.262-4.083 12.769-7.893 19.144-11.812 4.889-2.792 9.56-5.932 14.301-8.96 4.945-3.213 10-6.258 14.992-9.401a.628.628 0 0 0 .179-.112c2.762-1.741 5.501-3.514 8.191-5.37 5.061-3.413 10.509-6.271 15.63-9.559a.726.726 0 0 0 .152-.407.632.632 0 0 0 .345-.417c.138-.601.261-1.212.357-1.823.638-3.731.81-7.519 1.24-11.276.212-2.681.318-5.364.659-8.038.321-2.46.598-4.92.86-7.39.116-1.272.205-2.546.509-3.791.308-.939-.916-1.317-1.561-1.669-.599-.266-1.075-.722-1.648-1.028-.235-.138-.549-.295-.847-.345.242-3.544.52-7.085.761-10.622a.626.626 0 0 0-.152-.41c-.006-.034-.02-.067-.03-.1a.67.67 0 0 0-.225-.413 2.455 2.455 0 0 0-.466-.49c-.619-.798-1.247-1.616-1.948-2.378-1.006-1.097-1.433-2.526-2.333-3.725a2.104 2.104 0 0 0-.38-.45c2.537-.647 5.032-1.438 7.499-2.309.778-.25 1.651-.505 2.538-.69.099-.006.201-.022.301-.049.02.007.039.013.063.017.344.059.717-.184.76-.539.401-3.176 1.099-6.307 1.39-9.5.466-3.126.86-6.24 1.121-9.393.437-4.803.791-9.71 1.165-14.532.099-1.294.499-2.555.589-3.843a.613.613 0 0 0-.381-.529v.01Zm-28.155-13.753c.288-.085.695-.19 1.029-.187.314-.01.751.089 1.131.085 4.41 2.543 8.972 4.825 13.312 7.493 3.321 2.105 6.659 4.188 10.06 6.162.159.098.314.197.47.299-3.302.739-6.517 2.033-9.746 3.028-1.624.522-3.196 1.215-4.853 1.63-2.329.56-4.615 1.267-6.917 1.918a536.73 536.73 0 0 1-8.82 2.453c-.016 0-.033-.003-.053-.003-.082 0-.102 0-.165.01-.281.088-.572.04-.86 0-.563-.516-1.37-1.005-1.78-1.324a284.603 284.603 0 0 0-6.752-4.214c-4.79-2.88-9.501-5.88-14.215-8.882a.897.897 0 0 1 .473-.558c.04-.027.076-.06.11-.09 1.081-.295 2.16-.597 3.235-.912 4.363-1.337 8.783-2.49 13.14-3.85 3.308-.985 6.596-2.132 9.964-2.91.33.204.84 0 1.24-.148h-.003Zm-7.516 50.41c-.301 2.467-.374 4.957-.609 7.427a4.749 4.749 0 0 1-.575 1.346c-.242.283-.434.605-.705.864a1.785 1.785 0 0 0-.387.48c-2.435.84-4.88 1.668-7.347 2.457-7.334 2.194-14.745 4.191-22.072 6.431a1.28 1.28 0 0 0-.453-.424 1.865 1.865 0 0 1-.338-.817c.073-1.222.086-2.45.103-3.676.135-4.066.212-8.172.245-12.252.059-2.73-.179-5.489-.318-8.221-.086-2.651-.139-5.305-.215-7.96.089-.489.328-.922.658-1.313.189-.06.381-.118.569-.177 7.063-2.214 13.994-4.79 21.166-6.691 3.384-.96 6.781-1.873 10.182-2.773a.625.625 0 0 0 .149-.02c.291.034.575.162.734.411.073.122.109.263.149.398.013.04.027.079.046.111-.049.907-.046 1.827-.119 2.724-.149 3.452-.188 6.851-.301 10.317.08 3.797-.258 7.577-.562 11.358Zm-14.84 49.214a5.7 5.7 0 0 0 0 .539c0 .013 0 .026-.004.043-.208.903-.502 1.806-1.263 2.407-.08.053-.172.109-.272.161a69.63 69.63 0 0 0-3.936.684c-.334.065-.665.134-.996.203-1.257.128-2.511.26-3.768.385-3.592.433-7.145 1.057-10.738 1.497-5.31.743-10.6 1.518-15.889 2.418-.777.102-1.551.207-2.322.312 0-.036 0-.076-.01-.115-.188-3.58.285-7.167.165-10.78-.013-2.103-.06-4.205-.125-6.304a.603.603 0 0 0 .086-.469c.102-.368.228-.733.357-1.091 1.386-3.84 4.109-7.098 7.083-9.867 1.392-1.36 2.818-2.697 4.446-3.781 1.019-.703 2.223-1.284 3.295-1.925 1.3-.808 2.656-1.494 4.035-2.148.378-.197.801-.299 1.205-.44l.708-.223c.234-.023.466-.099.698-.155.985-.197 1.988-.259 2.99-.295 3.596-.381 7.185-.848 10.781-1.255.774-.082 1.548-.158 2.326-.23.003 0 .01 0 .013.003.364.099.691.31.992.526.315.315.404.752.612 1.13.063.118.113.259.166.394-.033 1.035-.086 2.069-.089 3.101.165 2.256.086 4.5-.02 6.753-.093 2.378-.06 4.71-.186 7.092-.102 3.117-.019 6.329-.132 9.456-.013.49-.056.992-.106 1.505a.614.614 0 0 0-.096.469h-.006Zm-40.56 7.946c-.017.269-.01.608.088.88-4.614.641-9.206 1.327-13.837 2.03-2.931.467-5.925.664-8.873 1.061-3.771.463-7.5 1.045-11.297 1.524-1.479.194-2.947.44-4.416.687l-.678.079c-.46.072-.92.154-1.377.246-.218.016-.446.03-.665.062-.195-6.7.01-13.424.219-20.125.162-4.986.109-9.985.446-14.965.017-.079.027-.158.033-.24.268-.059.543-.147.775-.154 4.002-.732 8.114-1.156 12.17-1.55 1.277-.115 2.554-.191 3.83-.306a.951.951 0 0 0 .686-.19c1.29.978 2.58 1.954 3.873 2.926a32.907 32.907 0 0 1 2.898 2.329c.344.24.715.765 1.125.936.156.22.44.342.711.263.685-.2 1.367-.404 2.048-.611 4.38-.719 9.15 1.288 11.28 5.265.222.552.497 1.084.719 1.636.139.279.195.726.297 1.13.05 2.897.215 5.794.143 8.691.062 2.789-.305 5.584-.196 8.396h-.003Zm-42.41 4.697-.074-.128c-1.078-2.142-2.223-4.247-3.32-6.382a1118.198 1118.198 0 0 0-6.505-12.465c0-.033-.006-.063-.013-.096.083-.236.073-.538.09-.795.228-3.452.221-6.924.35-10.386.142-2.897-.026-5.755.11-8.661-.01-3.013-.239-5.883-.272-8.931.023-1.252.126-2.579.172-3.876.02.03.04.059.06.085 1.922 3.14 3.695 6.385 5.613 9.535 1.036 1.712 1.942 3.482 2.849 5.262.545 1.058 1.062 2.129 1.654 3.16 0 .02.003.04.01.059-.043.628-.116 1.252-.12 1.883-.152 2.673-.181 5.35-.208 8.027-.212 7.897-.552 15.803-.4 23.703l.003.006ZM29.08 80.228c-1.727-1.28-3.437-2.578-5.147-3.876 0-.351-.209-.762-.37-1.047a3.904 3.904 0 0 1-.04-.112c.155-2.631.294-5.272.522-7.903.288-3.991.407-7.972.288-11.97.056-3.669.086-7.324.146-10.99a.348.348 0 0 0 .033-.04c.866-1.303 1.488-.765 2.014-.761 5.822 4.21 11.72 8.323 17.54 12.54.043.05.096.096.162.135.007.003.016.01.026.013.172.404.715.785.936 1.16.292.542.507 1.005.642 1.639v.003a195.723 195.723 0 0 0-.324 6.964c-.205 3.376-.42 6.756-.52 10.14.13 3.491.064 6.99.077 10.487.033 1.124.046 2.257.033 3.393a7.91 7.91 0 0 0-.053.687c-.116.341-.261.703-.599.824-5.13-3.754-10.298-7.453-15.366-11.292v.006ZM61.75 31.306l2.881-.729c3.52-.972 7.016-2.043 10.566-2.907 5.915-1.63 11.873-3.088 17.84-4.5.242.01.487 0 .728.05.53.016 1.072.098 1.565.292.152.138.331.26.536.285a117 117 0 0 1 3.616 2.342c3.285 2.22 6.58 4.523 9.951 6.649 2.206 1.451 4.399 2.926 6.606 4.381a.44.44 0 0 0-.03.119c-.01.131-.083.246-.155.358a.596.596 0 0 0-.196.105c-5.693 1.475-11.396 2.903-17.007 4.657-2.927.831-5.885 1.547-8.826 2.323-1.237.361-2.474.729-3.711 1.09-.295-.02-.59.197-.893.237a4.061 4.061 0 0 1-2.61-.06 1.496 1.496 0 0 0-.556-.16 760.804 760.804 0 0 0-18.307-11.91c-.887-.589-1.773-1.173-2.66-1.761 0-.017 0-.033.003-.053-.063-.446.367-.581.668-.811l-.01.003Zm-15.324 58.8v-.178a99.663 99.663 0 0 0-.042-3.722c.01-3.252.069-6.51-.063-9.758.201-5.361.48-10.754.787-16.125.106-.151.119-.325.112-.502a.46.46 0 0 0 .043-.093c.192-.308.556-.69.973-.571a.548.548 0 0 0 .116.06c.268.2.536.4.807.597 5.518 4.007 10.983 8.1 16.574 12.012 1.716 1.166 3.43 2.332 5.203 3.508.334.158.748.591 1.161.838.096 3.636-.231 7.35-.407 11-.5 7.052-.91 14.118-1.263 21.18a4.977 4.977 0 0 0-.076.597.581.581 0 0 0-.083.214c-.003.151-.063.282-.12.424-.112.23-.28.466-.519.594-1.435-1.225-3.043-2.316-4.518-3.485-3.193-2.319-6.246-4.818-9.448-7.128-2.875-2.082-5.79-4.109-8.667-6.188-.116-.296-.328-.601-.43-.874a4.099 4.099 0 0 1-.166-.988c.007-.247.013-.493.017-.74.016-.059.03-.118.046-.174a.692.692 0 0 0-.033-.502l-.004.003Zm23.28-17.173c-3.328-2.19-6.554-4.526-9.76-6.888-3.605-2.621-7.204-5.252-10.807-7.877a.918.918 0 0 0-.122-.102c0-.006-.004-.013-.007-.02-.222-.6-.056-1.162.5-1.454.49-.148.979-.303 1.465-.473 3.123-1.084 6.332-1.971 9.557-2.72 2.849-.71 5.654-1.57 8.512-2.234 4.132-.854 8.264-1.652 12.35-2.69.634-.036 1.266.102 1.871.276.338.132.672.256 1.053.407.132.086.287.112.433.086 4.826 3.183 9.7 6.3 14.47 9.562 2.163 1.461 4.317 3.123 6.411 4.753.079.233.102.47-.235.778a.348.348 0 0 0-.037.062c-8.829 2.786-17.576 5.696-26.412 8.54A236.191 236.191 0 0 1 73 74.677a.682.682 0 0 0-.284.164c-.05 0-.103.01-.152.027-.136-.092-.275-.181-.387-.266-.844-.585-1.591-1.068-2.481-1.67h.01Zm31.946-14.036C96.427 55.16 90.909 51.8 85.564 48.217c-.007-.072-.01-.145-.014-.214.182-.266.37-.538.665-.726a.834.834 0 0 0 .16-.167c2.467-.71 4.928-1.432 7.422-2.053 3.613-.838 7.139-1.987 10.702-3.002 3.98-1.117 7.993-2.119 11.992-3.16a6.362 6.362 0 0 1 1.561.079 3.3 3.3 0 0 1 1.013.269.683.683 0 0 0 .387.151c.738.473 1.479.94 2.226 1.4 6.252 4.092 12.743 7.814 19.018 11.867.05.112.11.227.153.338-.014.23-.08.46-.242.628a.602.602 0 0 0-.092.128c-5.356 1.435-10.719 2.864-16.035 4.444-5.058 1.53-10.007 3.377-15.058 4.94a.627.627 0 0 0-.305-.092c-.489.115-.979.17-1.475.013a4.126 4.126 0 0 1-.903-.331l-.06-.033a.741.741 0 0 0-.357-.276l-.152-.122c-1.495-1.143-2.984-2.3-4.516-3.403l-.003.004ZM77.403 44.285c1.184.824 2.375 1.639 3.572 2.444-.082.276-.241.486-.532.594-.02.014-.037.03-.053.043-3.89 1.058-7.88 1.682-11.814 2.559-2.815.67-5.58 1.504-8.385 2.204-2.468.64-4.986 1.136-7.384 2.02-1.208.371-2.402.791-3.61 1.17a.61.61 0 0 0-.506.026c-1.233.334-2.567.308-3.734-.234-.023-.016-.05-.03-.073-.042-4.956-3.597-9.924-7.174-14.94-10.689-.979-.703-1.951-1.412-2.924-2.122a.671.671 0 0 0-.241-.446c-.053-.155-.172-.3-.143-.467-.003-.15.09-.45.172-.604.004-.01.01-.02.014-.033 1.399-.368 2.822-.696 4.155-1.238 3.189-.976 6.447-1.705 9.676-2.553 4.91-1.445 9.92-2.512 14.823-3.984l1.476-.394c.35.062.787-.013 1.108.016.523.053.94.145 1.459.303.222.075.44.154.615.315.07.043.146.072.219.082a2248.267 2248.267 0 0 0 17.046 11.027l.004.003Zm-.331 65.529c-1.367.424-2.733.854-4.102 1.271-.12.014-.235.03-.354.046a.85.85 0 0 0-.219-.229c-.38-.24-.655-.602-.691-1.058-.013-.095-.023-.194-.033-.292.013-.29.03-.582.043-.871.046-.233.09-.476.036-.7.291-5.446.645-10.892.93-16.34.41-5.243.698-10.47.784-15.725 1.449-.404 2.895-.814 4.33-1.26 9.339-2.921 18.648-6.064 28.003-9.02.076-.007.159-.02.245-.043.4.049.645.46.92.739v.013c0 .148.006.299.02.447.039 3.928.221 7.85.423 11.772.208 3.393-.007 6.793-.013 10.189-.093 2.667-.093 5.44-.212 8.162a.66.66 0 0 0-.069.102.652.652 0 0 0-.024.549c0 .052.007.105.01.157-.026.092-.053.188-.072.283-.179.854-.526 1.747-1.198 2.371 0 0-.003 0-.003.007-4.165 1.343-8.3 2.69-12.472 4.007l-.033.01c-1.26.398-2.53.795-3.798 1.186-4.19 1.396-8.22 2.89-12.458 4.221l.007.006Zm46.872-94.365c.235-.046.473-.089.711-.128.46.062.963.289 1.373.285a560.887 560.887 0 0 0 6.044 3.564c5.042 2.99 10.179 5.81 15.27 8.721a.622.622 0 0 0 .03.345c-.092.197-.271.348-.393.519-3.649.838-7.206 2.102-10.795 3.153-5.435 1.603-10.87 3.22-16.335 4.724-.212.006-.44.078-.649.082-.655-.017-1.267-.168-1.902-.355a.535.535 0 0 0-.159-.026c-3.615-2.375-7.195-4.8-10.83-7.144-3.179-2.135-6.349-4.336-9.597-6.402a.784.784 0 0 1 .116-.25c.106-.131.245-.236.377-.348l.675-.158c6.037-1.55 12.021-3.271 18.095-4.674 2.455-.558 4.853-1.264 7.314-1.777.199.043.43.01.655-.131Zm-50.24-7.286.622-.147c9.342-2.316 18.734-4.3 28.086-6.596.059.056.122.102.235.164 1.247.522 2.279 1.498 3.46 2.175 5.663 3.238 11.238 6.635 16.828 9.998a.967.967 0 0 0 .01.29c-.01.13-.119.223-.228.315-2.048.443-4.069 1.011-6.11 1.484-6.58 1.524-13.07 3.393-19.617 5.036a.695.695 0 0 0-.41.102c-.06.016-.123.029-.186.046a.626.626 0 0 0-.32.01c-.58.101-1.046.072-1.651-.053-.328-.099-.665-.26-.953-.197-.35-.207-.705-.414-1.055-.618-2.283-1.438-4.691-2.68-6.937-4.181-.947-.687-1.91-1.383-2.935-1.958-2.742-1.73-5.63-3.156-8.409-4.828-.083-.06-.165-.115-.248-.178a.613.613 0 0 0-.056-.102c-.195-.213-.215-.499-.13-.758l.004-.004Zm-33.68 9.171c.03-.125.16-.194.235-.292l.004-.003c4.485-1.11 8.974-2.198 13.444-3.423 4.67-1.212 9.292-2.601 13.943-3.88.01.145.07.29.189.415a78.82 78.82 0 0 0 2.825 1.984c.873.61 1.763 1.195 2.66 1.77a.676.676 0 0 0 .923-.164c.535-.94-.976-1.304-1.516-1.794-1.263-.827-2.49-1.718-3.731-2.575l.437-.118c.27.089.602-.03.9-.017.568-.059 1.28.119 1.825.339.19.098.38.203.57.26 1.091.768 2.23 1.415 3.457 2.036 1.78 1.018 3.579 2.003 5.326 3.08 1.306.733 2.401 1.541 3.658 2.428 2.227 1.36 4.48 2.677 6.722 4.014a.563.563 0 0 0 .014.223.452.452 0 0 1-.1.401.678.678 0 0 0-.129.128c-10.228 2.339-20.321 5.226-30.457 7.93-.023.003-.05.013-.073.02l-.338.088c-.287-.17-.658-.036-.989-.02-.602-.013-1.187.013-1.776-.253a.646.646 0 0 0-.444-.023c-4.982-3.281-9.973-6.55-14.939-9.857-.867-.601-1.743-1.202-2.58-1.85-.02-.026-.043-.049-.063-.075-.003-.02-.01-.036-.017-.056-.089-.236-.01-.47.017-.72l.003.004ZM17.9 23.02c3.668-.962 7.364-2.066 11.065-3.025a261.739 261.739 0 0 1 7.37-1.971c.176.233.523.322.838.292.307.046.562.112.88.22.221.086.466.165.681.276.056.033.113.063.166.096 1.859 1.5 3.867 2.814 5.895 4.082 2.226 1.472 4.41 3.006 6.662 4.435 1.69 1.113 3.384 2.224 5.078 3.33-.126.253-.298.46-.559.582a.577.577 0 0 0-.159.164c-.377.095-.754.194-1.131.29-5.416 1.566-10.914 2.84-16.339 4.374-3.004.726-6.02 1.439-8.938 2.464-.854.27-1.717.509-2.584.745a.621.621 0 0 0-.609.02c-.734.286-1.627.404-2.392.135-.3-.118-.625-.19-.932-.302-5.154-3.79-10.318-7.562-15.747-10.974-.83-.5-1.64-1.029-2.431-1.58 4.449-1.071 8.76-2.411 13.196-3.646l-.01-.007ZM7.827 64.271c-1.109-.778-2.253-1.507-3.302-2.368-.45-.355-.847-.801-1.36-1.067 0-.27-.026-.55-.02-.772-.396-8.054-.228-16.112.126-24.163.179-2.844-.076-5.702.13-8.54 3.675 2.474 7.406 4.802 11.062 7.345 2.408 1.691 4.783 3.472 7.162 5.239.076.141.182.28.264.424.655 1.044 1.036 2.253 1.228 3.468a.73.73 0 0 0 .033.178c-.076 5.59-.162 11.177-.1 16.771-.145 4-.456 7.985-.724 11.976a.637.637 0 0 0-.142.44.758.758 0 0 0-.09.23c-.072.41-.36.788-.74.972a275.377 275.377 0 0 0-5.28-3.889c-2.796-2.023-5.41-4.29-8.25-6.244h.003Zm5.345 22.274c-.324-.539-.645-1.1-.936-1.675-.066-.112-.122-.237-.182-.362a.527.527 0 0 0 .03-.177c-.016-.713.066-1.42.155-2.125.245-2.05.371-4.123.493-6.195.11-.099.202-.217.265-.345 1.588-1.577 4.099-1.603 6.064-.756.427.184.827.404 1.234.628.407.414.737.89.913 1.465.235.525.427 1.07.536 1.635.01.073.016.145.026.217-.016 1.032-.046 2.063-.03 3.094a728.436 728.436 0 0 0-.648 12.9c-.036.499-.06 1.001-.08 1.504a.622.622 0 0 0-.115.456c.01.253.016.506.02.759-.047.053-.093.108-.146.161-.533.361-1.145.003-1.535-.466-.453-.835-.906-1.672-1.363-2.503-1.62-2.7-3.013-5.545-4.71-8.212l.01-.003Zm16.015 64.842v.473c-.086.779-.185 1.718-.966 2.113l.043-.02a1.15 1.15 0 0 1-.463.167c-3.454-1.865-6.858-3.823-10.318-5.682-3.596-1.859-7.202-3.715-10.781-5.614-1.39-.706-2.723-1.511-4.152-2.148-.096-.052-.202-.112-.31-.164 0-.112-.004-.223-.017-.329-.272-3.958-.106-7.929-.292-11.89-.122-3.607-.532-7.203-.529-10.813.1-3.029-.056-6.054-.036-9.082.185.082.37.164.53.272 1.72.982 3.443 1.794 5.276 2.579a238.856 238.856 0 0 0 7.827 4.023c3.32 1.587 6.679 3.104 9.967 4.763 1.561 1.245 2.967 2.661 3.447 4.697.251 1.235.129 2.507.264 3.755.03.624-.138 1.353.12 1.948a.49.49 0 0 0 .079.098c.036 4.625.169 9.266.179 13.921.04 2.23.132 4.463.135 6.697 0 .016-.006.026-.006.043 0 .062.003.125.006.19l-.003.003Zm-.741-37.136a1114.165 1114.165 0 0 1-5.062-9.335c-.181-.496-.522-1.035-.552-1.442-.516-1.501-.542-3.091-.576-4.664 0-.01 0-.023-.003-.033.007-.316.017-.628.027-.943a.504.504 0 0 0 .003-.121c.01-.283.023-.565.046-.848.1-2.601.245-5.193.37-7.788.04-2.28.239-4.556.368-6.832.003-.962.013-1.941.023-2.923.063-.2.046-.444.007-.68l.01-.887c1.439.844 2.686 2 3.867 3.166a42.976 42.976 0 0 1 2.236 2.615c.496.854.996 1.701 1.548 2.52.57.692 1.056 1.441 1.529 2.203a.75.75 0 0 0 0 .243c.198 1.015.06 2.063-.023 3.124-.024.749 0 1.504-.073 2.25-.043 2.615.201 5.196.225 7.824.03 6.409-.073 12.85-.36 19.265a915.23 915.23 0 0 0-3.61-6.714Zm30.49 36.575c-.03.164-.039.328-.016.473-.033 1.126-.07 2.25-.139 3.376-.076 5.046.08 10.137-.248 15.186-.142-.069-.284-.135-.427-.201-4.479-2.253-8.941-4.5-13.39-6.829-4.255-2.381-8.582-4.516-12.969-6.651a.585.585 0 0 0-.235-.24c-.191-.289-.413-.562-.588-.857-.278-.7-.288-1.475-.404-2.211l-.01-.516c.003-.18.003-.361.007-.538a.814.814 0 0 0 0-.283V151.289c0-2.805-.192-5.617-.142-8.422-.073-4.641-.146-9.296-.239-13.947.13-.249.222-.542.298-.765.225-.552.586-.916.956-1.396 1.178-.516 3 2.158 3.566 3.042.308.43.57.89.854 1.336.063.155.165.296.288.404 1.306 2.517 2.62 5.029 3.936 7.539.794 1.573 1.631 3.133 2.438 4.697.199.427.404 1.14.86 1.271.093.135.242.23.474.25h.072a.738.738 0 0 0 .4.105c.298.036.656-.04.98-.109h.026c.784-.101 1.562-.236 2.339-.371.156-.016.308-.033.473-.049 2.941-.237 6.272-.621 8.76 1.304 1.102.746 1.74 1.899 2.05 3.173.014.039.037.112.06.194l-.04 1.297.01-.016Zm31.573 22.073c-.106 3.163-.3 6.323-.473 9.483-.142.942-.261 1.885-.288 2.834l-.016-.009c-1.982-1.025-3.963-2.053-5.948-3.072-7.81-4.243-15.932-7.857-23.96-11.667.214-1.32.102-2.664.171-3.997.126-3.377.096-6.75.096-10.124.033-1.783.096-3.564.162-5.347.487-3.137 1.41-6.638 4.748-7.824 1.22-.434 2.464-.9 3.774-.953.149.099.337.171.526.227 2.296.949 4.565 2.187 6.834 3.255 1.886.985 3.914 1.659 5.826 2.592 2.95 1.346 5.832 2.972 8.925 4.013.239.079.467.227.698.339a.58.58 0 0 0 .047.164c-.086 1.534-.212 3.065-.285 4.599-.208 5.163-.681 10.317-.837 15.484v.003Zm27.825-14.817c.01 2.319-.037 4.638-.176 6.95a.811.811 0 0 0-.076.447c-.182 1.941-.579 3.176-2.147 4.437-.35.214-.698.427-1.048.638-7.248 4.329-14.47 8.651-21.566 13.227a85.21 85.21 0 0 1-2.243 1.488c0-.352.01-.703.05-1.054.423-2.878.413-5.798.595-8.698.311-7.631.798-15.244 1.248-22.865a.592.592 0 0 0-.004-.171c.758-.529 1.648-.834 2.428-1.323a68.328 68.328 0 0 0 3.398-1.975c1.945-1.12 4.009-2.023 5.941-3.163 3.507-2.056 6.96-4.198 10.447-6.28.963-.158 1.906-.177 2.594.729.284.352.552.746.645 1.196.043.2.046.424.099.631a1451.7 1451.7 0 0 1-.066 3.678c.01 4.037.056 8.074-.116 12.108h-.003Zm25.039-9.421c0 .24 0 .483.003.726a.597.597 0 0 0-.033.243c-.04.726-.122 1.465-.39 2.145a7.918 7.918 0 0 1-.986 1.481c-.113.132-.248.28-.364.437-4.807 3.006-9.643 5.972-14.407 9.043-2.16 1.366-4.297 2.766-6.447 4.145a1.126 1.126 0 0 0-.387-.164 1.318 1.318 0 0 1-.632-.92c-.195-.482-.014-1.419-.179-2.013.083-2.129.089-4.26.136-6.386.175-4.979.063-9.965.135-14.948 0-.007.007-.013.01-.023a2.51 2.51 0 0 0 .146-.637c.063-.434.284-.854.169-1.301.069-.181.158-.355.228-.535.106-.194.145-.421.125-.631.249-.598.526-1.186.957-1.679 1.3-1.379 3.063-2.466 4.806-3.225.652-.217 1.32-.371 1.992-.486.754-.092 1.505-.188 2.259-.283.486-.046.973-.085 1.459-.128.691-.069 1.379-.151 2.071-.2.718.075 1.419.226 2.137.43.748.154 1.518.237 2.23.539 1.134.446 2.051 1.314 2.957 2.099.41.502.715 1.084 1.112 1.599.267.391.476 1.4.836 2.017 0 .181.004.361.007.542 0 .016-.007.03-.007.046a.735.735 0 0 0 .01.306c.014 1.313.024 2.624.017 3.938 0 1.14.033 2.296.05 3.452a.63.63 0 0 0-.017.368l-.003.003Zm22.617-39.324a.571.571 0 0 0 .202-.079c.936-.499 1.72-1.218 2.584-1.826.046-.033.092-.066.139-.095-.262 1.57-.328 3.169-.53 4.746-.254 2.25-.552 4.523-.784 6.803-.311 2.141-.321 4.303-.506 6.451-.235 2.522-.523 5.038-.731 7.561a43.346 43.346 0 0 1-.88 5.794.737.737 0 0 0-.321.309c-4.472 2.651-8.975 5.252-13.365 8.031-2.094 1.337-4.062 2.723-6.116 4.08a.456.456 0 0 0-.129-.053c-.348-.046-.553-.361-.702-.647a3.149 3.149 0 0 1-.129-.693c.007-1.892-.082-3.784-.059-5.692-.007-1.127-.017-2.25-.023-3.377.016-.122.029-.233.059-.421.417-2.437 1.73-4.358 3.596-5.974 1.009-1.068 2.286-1.745 3.593-2.408 1.694-.818 3.47-1.58 5.329-2.01 1.638-.477 3.308-.848 4.969-1.252.407-.062.81-.118 1.221-.164a.649.649 0 0 0 .241-.112.629.629 0 0 0 .476-.555c.421-2.118.599-4.263.814-6.415.434-3.304.718-6.625.95-9.949.029-.687.066-1.37.102-2.056v.003Zm-1.283-15.924c.334-.066.708-.05 1.068-.072-.185 2.368-.35 4.736-.552 7.104-.444 5.942-.589 11.907-1.257 17.833-.377 2.812-.483 5.666-1.019 8.451-.02.119-.043.26-.066.411a8.918 8.918 0 0 0-1.089.177c-.982.142-1.998.306-2.951.5-2.031.167-4.032.44-6.03.85-1.181.171-2.369.306-3.54.539-3.612.788-7.255 1.429-10.907 2.01-1.948.23-3.887.513-5.848.667-.09.016-.182.03-.272.043a90.375 90.375 0 0 0-3.675.269 3.798 3.798 0 0 0-.301-.161 2.25 2.25 0 0 1-.814-1.524 2.354 2.354 0 0 1-.02-.335c.007-.043.02-.085.027-.128l-.013.043a.655.655 0 0 0 .016-.326c.066-.633.132-1.277.156-1.947.135-3.347.039-6.695.162-10.042.139-3.284.096-6.684.304-9.982.04-1.333-.139-2.66-.113-3.994.02-.805.053-1.609.08-2.414a.883.883 0 0 0 .01-.417v-.027a3.835 3.835 0 0 1 .824-1.53c.244-.312.526-.335.889-.532.344-.135.725-.161 1.056-.339a112.35 112.35 0 0 0 5.14-.624c3.137-.46 6.273-.933 9.392-1.494 4.701-.539 9.392-1.222 14.033-2.168 1.773-.256 3.517-.71 5.31-.838v-.003Zm9.868-38.625c-.305 3.968-.678 7.93-1.036 11.89-.426 2.678-.731 5.371-1.091 8.055-.192 1.274-.424 2.542-.629 3.817-.281.979-.784 1.925-1.723 2.437a.616.616 0 0 0-.106.079c-.252.069-.506.141-.755.22-2.176.726-4.35 1.458-6.556 2.096-.874.23-1.754.45-2.633.653a.599.599 0 0 0-.292.053.333.333 0 0 0-.056.026c-.847.19-1.7.368-2.557.525-1.975.382-3.887.993-5.835 1.485a386.754 386.754 0 0 0-8.572 2.897.55.55 0 0 0-.175-.174c-.093-.072-.225-.098-.288-.197a2.006 2.006 0 0 1-.496-1.202c-.043-.246.01-.496-.01-.74.086-1.185.142-2.374.241-3.56.292-3.278.636-6.553.771-9.84.142-4.103.056-8.216.301-12.315.086-1.636.05-3.288.179-4.924.046-.17.056-.36.073-.538.125-.513.469-.936.853-1.288a.76.76 0 0 0 .166-.16c1.561-.415 3.122-.829 4.684-1.246a397.728 397.728 0 0 1 10.453-2.986c2.462-.545 4.764-1.596 7.166-2.335 1.816-.548 3.523-1.14 5.336-1.76 1.161-.42 2.388-.605 3.582-.89-.605 3.274-.731 6.602-.989 9.916l-.006.006Z"/><path fill="#000" d="M171.29 49.819c-.172 1.984.016 3.974-.113 5.955a.667.667 0 0 0 .596.716c1.002.01.731-1.3.787-1.97-.063-1.745-.06-3.502.113-5.24.155-.542-.361-1.13-.923-.877-.54.253-.364.933-.46 1.412v.004ZM171.485 58.037c-.351.013-.668.322-.638.68.029.358.314.647.684.634.351-.013.669-.322.639-.68-.03-.358-.314-.647-.685-.634ZM102.558 82.662c.036 1.225.073 2.454.264 3.666.057.355.447.578.784.506.404-.082.586-.486.497-.86-.275-2.037-.192-4.1-.348-6.147-.036-.683-.036-2.023-1.078-1.73-.41.124-.566.673-.311 1.001.122 1.183.152 2.372.192 3.56v.004ZM103.332 89.892a.664.664 0 0 0-.609.706c.03.358.351.634.711.604a.664.664 0 0 0 .609-.706.666.666 0 0 0-.711-.604ZM42.3 60.28c-.181 1.593-.396 3.187-.466 4.786a.67.67 0 0 0 .625.693c.354.02.685-.263.695-.62.06-1.702.344-3.38.48-5.079-.056-1.192-1.843-.913-1.333.217v.003ZM41.89 68.66a.664.664 0 0 0-.608.706c.03.358.35.634.71.604a.664.664 0 0 0 .61-.706.666.666 0 0 0-.712-.604ZM19.088 63.427c.453-.033.662-.47.606-.874.006-.463.05-.93.099-1.389.116-1.127.255-2.227.443-3.357.199-.598-.126-1.35-.86-1.12a.663.663 0 0 0-.423.752c-.248 1.787-.583 3.577-.576 5.384.013.358.364.63.711.604ZM18.669 66.626a.664.664 0 0 0 .608-.706.666.666 0 0 0-.711-.604.664.664 0 0 0-.609.706c.03.358.35.634.712.604ZM76.466 15.734c.348-.014.665-.326.636-.684-.03-.358-.315-.643-.689-.63-.347.013-.664.325-.635.683a.67.67 0 0 0 .688.63ZM67.942 42.734a.675.675 0 0 0 .92-.165c.202-.285.135-.719-.166-.913-.549-.355-1.108-.696-1.647-1.067-.854-.624-1.605-1.186-2.418-1.912-.563-.654-1.562.177-1.016.84 1.317 1.226 2.802 2.264 4.327 3.217ZM70.73 44.484c.347-.013.665-.325.635-.683a.67.67 0 0 0-.688-.63c-.347.013-.665.325-.635.683a.67.67 0 0 0 .688.63ZM161.992 110.26c.449.053.797-.358.737-.792.156-1.865.268-3.724.391-5.623.109-.604-.02-1.629-.867-1.432-.367.105-.579.526-.43.877-.093 1.426-.149 2.795-.262 4.24-.052.677-.125 1.35-.155 2.03-.033.322.245.674.586.697v.003ZM162.471 112.563c.645-.647-.573-1.81-1.205-1.163-.648.647.573 1.813 1.205 1.163ZM47.23 111.745c-.4.115-.543.532-.444.903-.07 1.734-.271 3.465-.192 5.203.017.503.047 1.005.03 1.511-.093.473-.016.989.553 1.071 1.124 0 .708-1.574.754-2.296-.103-1.629.066-3.259.142-4.885.096-.624.07-1.701-.847-1.504l.004-.003ZM47.208 120.955c-.344.007-.675.315-.646.67.03.358.302.65.675.641.344-.007.675-.316.645-.671-.03-.358-.3-.65-.674-.64ZM116.528 129.732c-1.859.417-3.751.732-5.597 1.212-.688.239-2.428.042-2.279 1.113.069.342.43.595.78.513.626-.152 1.264-.234 1.896-.365 1.859-.506 3.778-.769 5.64-1.235.814-.309.381-1.508-.44-1.238ZM106.581 131.42a.665.665 0 0 0-.615.7.666.666 0 0 0 .704.611.667.667 0 0 0 .616-.7.668.668 0 0 0-.705-.611ZM20.34 87.05c.685-.006.689-.702.695-1.212.083-1.28.043-2.558.05-3.843.007-.558 0-1.415-.8-1.353-.351.046-.626.385-.57.736.12 1.665.043 3.344-.03 5.009a.663.663 0 0 0 .659.66l-.003.004ZM27.243 107.051c-.649-1.045-1.152-2.188-1.846-3.196-.354-.371-1.03-.191-1.148.305a.675.675 0 0 0 .241.7c.186.309.358.631.536.946.526.962 1.079 1.912 1.608 2.871a.672.672 0 0 0 .86.338c.893-.453.03-1.376-.248-1.964h-.003ZM28.357 109.853c-.37.046-.599.377-.57.736.03.358.398.61.742.564.37-.046.599-.377.569-.735-.03-.358-.397-.611-.741-.565ZM122.188 149.22c.84.006.718-.891.649-1.469-.063-1.491-.129-2.982-.113-4.477.033-.962-1.379-1.044-1.369-.059.109 1.767.059 3.515.208 5.312a.666.666 0 0 0 .622.693h.003ZM121.827 149.752c-.731.499.129 1.711.85 1.205.731-.499-.129-1.708-.85-1.205ZM113.71 167.791c-1.532 1.015-3.063 1.958-4.499 3.114-.285.217-.377.611-.166.913.52.677 1.181-.036 1.651-.387 1.052-.845 2.299-1.57 3.427-2.336.411-.253.903-.552.847-1.1-.016-.664-1.039-.825-1.26-.207v.003ZM107.278 172.281a.668.668 0 0 0-.608.707.67.67 0 0 0 .711.604.668.668 0 0 0 .609-.706.67.67 0 0 0-.712-.605ZM88.538 156.988c.06 1.356-.153 2.716-.179 4.076.013.634-.407 1.764.54 1.876 1.015-.02.658-1.367.793-2.037.04-.988.126-1.977.166-2.966.016-.443.053-.89-.053-1.327-.209-.92-1.582-.529-1.267.378ZM88.247 164.076c-.576.664.555 1.633 1.124.956.576-.663-.555-1.632-1.124-.956ZM38.259 138.022c-.629-1.166-1.24-2.342-1.909-3.488-.198-.332-.308-.716-.542-1.025-.497-.614-1.509.082-1.066.775.646 1.265 1.37 2.493 2.032 3.755.43.588.628 2.125 1.647 1.625.658-.44.046-1.126-.162-1.642ZM38.861 140.364c-.354.02-.651.335-.625.693a.67.67 0 0 0 .698.621c.354-.02.652-.335.625-.693a.67.67 0 0 0-.698-.621ZM4.784 113.456c.076-.851-.884-1.623-1.426-.716a.63.63 0 0 0 .096.663c.09.868-.04 1.728-.152 2.582-.093.851-.037 1.705-.057 2.556.02.624-.357 1.695.59 1.76 1.008-.029.648-1.593.74-2.276-.116-1.534.318-3.042.212-4.572l-.003.003ZM3.711 121.835c-.37.046-.605.375-.576.733.03.358.394.614.738.571.37-.046.605-.374.576-.732-.03-.358-.394-.614-.738-.572Z"/></g><defs><clipPath id="a"><path fill="#fff" d="M0 0h177v187H0z"/></clipPath></defs></svg>