<svg xmlns="http://www.w3.org/2000/svg" width="1365" height="477" fill="none"><path fill="#C7F182" stroke="#000" stroke-width="1.5" d="M20.75 20.75h1343.5v455.5H20.75z"/><path fill="#FFC2E8" stroke="#000" stroke-width="1.5" d="M10.75 10.75h1343.5v465.5H10.75z"/><path fill="#fff" d="M.75.75h1343.5v475.5H.75z"/><path stroke="#000" stroke-width="1.5" d="M.75.75h1343.5v475.5H.75z"/><rect width="973" height="135" x="310.5" y="155.5" fill="#fff" stroke="#0D0C22" rx="3.5"/><rect width="973" height="135" x="310.5" y="311.5" fill="#fff" stroke="#0D0C22" rx="3.5"/><path fill="#0D0C22" d="M328.12 70h-3.192l-2.296-5.012h-11.144L309.192 70h-3.108l9.156-19.6h3.752L328.12 70Zm-11.06-17.136-4.396 9.548h8.792l-4.396-9.548Zm20.079 17.416c-5.18 0-7.784-2.996-7.784-7.28 0-4.088 2.856-7.28 7.784-7.28 3.836 0 6.552 1.876 6.972 4.9h-2.8c-.336-1.652-1.904-2.604-3.976-2.604h-.392c-3.248 0-4.816 2.352-4.816 4.984s1.568 4.984 4.816 4.984h.392c2.072 0 3.612-1.12 3.976-2.604h2.8c-.42 2.828-3.136 4.9-6.972 4.9Zm17.281 0c-5.18 0-7.784-2.996-7.784-7.28 0-4.088 2.856-7.28 7.784-7.28 3.836 0 6.552 1.876 6.972 4.9h-2.8c-.336-1.652-1.904-2.604-3.976-2.604h-.392c-3.248 0-4.816 2.352-4.816 4.984s1.568 4.984 4.816 4.984h.392c2.072 0 3.612-1.12 3.976-2.604h2.8c-.42 2.828-3.136 4.9-6.972 4.9Zm17.422 0c-4.704 0-7.952-2.856-7.952-7.28s3.248-7.28 7.952-7.28c4.676 0 7.952 2.856 7.952 7.28s-3.276 7.28-7.952 7.28Zm-.196-2.296h.392c2.828 0 4.984-1.876 4.984-4.984s-2.156-4.984-4.984-4.984h-.392c-2.856 0-4.984 1.876-4.984 4.984s2.128 4.984 4.984 4.984Zm17.308 2.296c-3.808 0-5.824-2.184-5.824-5.544V56h2.744v8.092c0 2.52 1.036 3.892 3.416 3.892h.392c2.408 0 4.564-1.792 4.564-4.788V56h2.744v14h-2.744v-2.548c-.868 1.568-2.576 2.828-5.292 2.828Zm15.217-.28h-2.744V56h2.744v2.324c1.008-1.484 2.716-2.604 5.376-2.604 3.836 0 5.992 2.436 5.992 5.768V70h-2.744v-7.84c0-2.464-1.092-4.144-3.528-4.144h-.392c-2.436 0-4.704 1.96-4.704 4.928V70Zm25.183 0h-4.788c-1.96 0-3.08-1.12-3.08-3.08v-8.568h-3.612V56h3.612v-4.536h2.744V56h4.508v2.352h-4.508v8.092c0 .84.28 1.12 1.12 1.12h4.004V70Zm8.543.28c-4.256 0-6.58-1.792-6.748-4.62h2.8c.14 1.596 1.792 2.324 3.752 2.324h.392c2.156 0 3.5-.504 3.5-1.736 0-.868-.616-1.4-2.744-1.82l-2.324-.448c-2.912-.56-4.704-1.568-4.704-3.976 0-2.772 2.716-4.284 6.076-4.284 4.368 0 6.524 1.82 6.748 4.62h-2.8c-.14-1.288-1.4-2.324-3.752-2.324h-.392c-2.016 0-3.108.728-3.108 1.764 0 .812.504 1.26 2.772 1.708l2.184.42c2.94.56 4.816 1.68 4.816 4.172 0 2.52-2.436 4.2-6.468 4.2Z"/><path fill="#7F7F7F" d="M311.872 102h-1.6v-9.76h-4V90.8h9.6v1.44h-4V102Zm6.891.16c-2.16 0-3.84-1.68-3.84-4.16 0-2.48 1.68-4.16 3.84-4.16s3.84 1.68 3.84 4.16c0 2.48-1.68 4.16-3.84 4.16Zm-.064-1.28h.128c1.296 0 2.256-1.04 2.256-2.88 0-1.84-.96-2.88-2.256-2.88h-.128c-1.296 0-2.256 1.04-2.256 2.88 0 1.84.96 2.88 2.256 2.88Zm10.185 1.12h-1.92c-1.12 0-1.76-.64-1.76-1.76v-4.928h-1.76V94h1.76v-2.592h1.52V94h1.92v1.312h-1.92V100c0 .48.16.64.64.64h1.52V102Zm3.804.16c-1.52 0-2.64-1.008-2.64-2.368 0-1.824 1.616-2.368 2.912-2.48l2.208-.176v-.256c0-1.12-.64-1.76-1.664-1.76h-.128c-.832 0-1.552.4-1.648 1.2h-1.52c.096-1.472 1.424-2.48 3.232-2.48 2.128 0 3.248 1.408 3.248 3.04v3.36c0 .48 0 1.2.08 1.76h-1.44c-.08-.4-.08-1.2-.08-1.28-.32.72-1.28 1.44-2.56 1.44Zm.176-1.28h.128c.976 0 2.176-.8 2.176-1.76v-.816l-2 .16c-.928.08-1.6.528-1.6 1.264 0 .656.544 1.152 1.296 1.152Zm7.669 1.12h-1.52V90.8h1.52V102Zm8.468.16c-1.52 0-2.64-1.008-2.64-2.368 0-1.824 1.616-2.368 2.912-2.48l2.208-.176v-.256c0-1.12-.64-1.76-1.664-1.76h-.128c-.832 0-1.552.4-1.648 1.2h-1.52c.096-1.472 1.424-2.48 3.232-2.48 2.128 0 3.248 1.408 3.248 3.04v3.36c0 .48 0 1.2.08 1.76h-1.44c-.08-.4-.08-1.2-.08-1.28-.32.72-1.28 1.44-2.56 1.44Zm.176-1.28h.128c.976 0 2.176-.8 2.176-1.76v-.816l-2 .16c-.928.08-1.6.528-1.6 1.264 0 .656.544 1.152 1.296 1.152Zm9.508 1.28c-2.464 0-3.84-1.808-3.84-4.16 0-2.352 1.376-4.16 3.84-4.16 1.824 0 3.12 1.072 3.28 2.8h-1.52c-.144-.88-.784-1.52-1.696-1.52h-.128c-1.536 0-2.256 1.36-2.256 2.88 0 1.52.72 2.88 2.256 2.88h.128c.912 0 1.552-.64 1.696-1.52h1.52c-.16 1.728-1.456 2.8-3.28 2.8Zm8.516 0c-2.464 0-3.84-1.808-3.84-4.16 0-2.352 1.376-4.16 3.84-4.16 1.824 0 3.12 1.072 3.28 2.8h-1.52c-.144-.88-.784-1.52-1.696-1.52h-.128c-1.536 0-2.256 1.36-2.256 2.88 0 1.52.72 2.88 2.256 2.88h.128c.912 0 1.552-.64 1.696-1.52h1.52c-.16 1.728-1.456 2.8-3.28 2.8Zm8.499 0c-2.16 0-3.84-1.68-3.84-4.16 0-2.48 1.68-4.16 3.84-4.16s3.84 1.68 3.84 4.16c0 2.48-1.68 4.16-3.84 4.16Zm-.064-1.28h.128c1.296 0 2.256-1.04 2.256-2.88 0-1.84-.96-2.88-2.256-2.88h-.128c-1.296 0-2.256 1.04-2.256 2.88 0 1.84.96 2.88 2.256 2.88Zm8.454 1.28c-1.792 0-2.72-1.2-2.72-2.88V94h1.52v4.96c0 1.28.528 1.92 1.616 1.92h.128c1.024 0 2.016-.96 2.016-2.56V94h1.52v8h-1.52v-1.52c-.304.88-1.168 1.68-2.56 1.68Zm8.005-.16h-1.52v-8h1.52v1.12c.48-.72 1.28-1.28 2.56-1.28 1.84 0 2.88 1.12 2.88 2.8V102h-1.52v-5.04c0-1.12-.48-1.84-1.616-1.84h-.128c-1.136 0-2.176.88-2.176 2.4V102Zm12.211 0h-1.92c-1.12 0-1.76-.64-1.76-1.76v-4.928h-1.76V94h1.76v-2.592h1.52V94h1.92v1.312h-1.92V100c0 .48.16.64.64.64h1.52V102Zm4.316.16c-2.128 0-3.28-1.12-3.28-2.64h1.52c.08.96.832 1.36 1.776 1.36h.128c.832 0 1.488-.4 1.488-1.04 0-.512-.288-.864-1.088-1.024l-1.168-.224c-1.296-.256-2.336-.928-2.336-2.288 0-1.6 1.424-2.464 3.024-2.464 2.096 0 3.168 1.12 3.168 2.64h-1.52c-.08-.72-.528-1.36-1.568-1.36h-.128c-.896 0-1.456.464-1.456 1.024s.32.864 1.12 1.024l1.264.256c1.216.24 2.208.896 2.208 2.336s-1.296 2.4-3.152 2.4Zm13.207 0c-1.12 0-2.24-.56-2.64-1.28V102h-1.52V90.8h1.52v4.32c.4-.72 1.36-1.28 2.48-1.28 2 0 3.6 1.52 3.6 4.16s-1.44 4.16-3.44 4.16Zm-.384-1.28h.128c1.216 0 2.176-.96 2.176-2.88s-.96-2.88-2.176-2.88h-.128c-1.136 0-2.256.96-2.256 2.88s1.12 2.88 2.256 2.88Zm7.915 1.28c-1.52 0-2.64-1.008-2.64-2.368 0-1.824 1.616-2.368 2.912-2.48l2.208-.176v-.256c0-1.12-.64-1.76-1.664-1.76h-.128c-.832 0-1.552.4-1.648 1.2h-1.52c.096-1.472 1.424-2.48 3.232-2.48 2.128 0 3.248 1.408 3.248 3.04v3.36c0 .48 0 1.2.08 1.76H432c-.08-.4-.08-1.2-.08-1.28-.32.72-1.28 1.44-2.56 1.44Zm.176-1.28h.128c.976 0 2.176-.8 2.176-1.76v-.816l-2 .16c-.928.08-1.6.528-1.6 1.264 0 .656.544 1.152 1.296 1.152Zm7.668 1.12h-1.52V90.8h1.52V102Zm4.562.16c-1.52 0-2.64-1.008-2.64-2.368 0-1.824 1.616-2.368 2.912-2.48l2.208-.176v-.256c0-1.12-.64-1.76-1.664-1.76h-.128c-.832 0-1.552.4-1.648 1.2h-1.52c.096-1.472 1.424-2.48 3.232-2.48 2.128 0 3.248 1.408 3.248 3.04v3.36c0 .48 0 1.2.08 1.76h-1.44c-.08-.4-.08-1.2-.08-1.28-.32.72-1.28 1.44-2.56 1.44Zm.176-1.28h.128c.976 0 2.176-.8 2.176-1.76v-.816l-2 .16c-.928.08-1.6.528-1.6 1.264 0 .656.544 1.152 1.296 1.152Zm7.669 1.12h-1.52v-8h1.52v1.12c.48-.72 1.28-1.28 2.56-1.28 1.84 0 2.88 1.12 2.88 2.8V102h-1.52v-5.04c0-1.12-.48-1.84-1.616-1.84h-.128c-1.136 0-2.176.88-2.176 2.4V102Zm11.121.16c-2.464 0-3.84-1.808-3.84-4.16 0-2.352 1.376-4.16 3.84-4.16 1.824 0 3.12 1.072 3.28 2.8h-1.52c-.144-.88-.784-1.52-1.696-1.52h-.128c-1.536 0-2.256 1.36-2.256 2.88 0 1.52.72 2.88 2.256 2.88h.128c.912 0 1.552-.64 1.696-1.52h1.52c-.16 1.728-1.456 2.8-3.28 2.8Zm8.452 0c-1.984 0-3.776-1.376-3.776-4.176 0-2.768 1.84-4.144 3.728-4.144 2.08 0 3.392 1.44 3.392 3.52v.88h-5.6c.096 1.824 1.264 2.64 2.24 2.64h.128c.784 0 1.536-.4 1.696-1.248h1.52c-.288 1.616-1.68 2.528-3.328 2.528Zm-2.16-5.12h3.984c-.064-1.392-.896-1.92-1.808-1.92h-.128c-.832 0-1.76.496-2.048 1.92Zm7.425 4.096c0-.395.096-.672.288-.832.192-.16.421-.24.688-.24.277 0 .512.08.704.24.203.16.304.437.304.832 0 .384-.101.661-.304.832a1.02 1.02 0 0 1-.704.256.998.998 0 0 1-.688-.256c-.192-.171-.288-.448-.288-.832Zm0-6.848c0-.405.096-.688.288-.848.192-.16.421-.24.688-.24.277 0 .512.08.704.24.203.16.304.443.304.848 0 .384-.101.661-.304.832-.192.17-.427.256-.704.256a1 1 0 0 1-.688-.256c-.192-.17-.288-.448-.288-.832Z"/><path fill="#0D0C22" d="m482.028 93.568 2.848-2.768h1.472V102h-1.824v-8.512l-2.496 2.416v-2.336Zm11.066 8.592c-2.88 0-4.496-2.176-4.496-5.76 0-3.584 1.664-5.76 4.496-5.76 2.832 0 4.496 2.176 4.496 5.76 0 3.584-1.616 5.76-4.496 5.76Zm-.08-1.632h.16c1.504 0 2.528-1.36 2.528-4.128s-1.024-4.128-2.528-4.128h-.16c-1.52 0-2.528 1.36-2.528 4.128s1.008 4.128 2.528 4.128Zm10.016 1.632c-2.208 0-3.872-1.232-4.065-3.216h1.889c.176 1.008 1.024 1.584 2.112 1.584h.16c1.152 0 2-.8 2-2.016 0-1.168-.864-1.888-1.968-1.888h-.16c-.608 0-1.376.272-1.872.912h-1.776l1.376-6.736h6.176v1.664h-4.752l-.704 3.312c.496-.496 1.312-.784 2.064-.784 2.08 0 3.504 1.456 3.504 3.44 0 2.208-1.616 3.728-3.984 3.728Zm12.674-.944a12.901 12.901 0 0 1-1.712-.144c-.554-.096-1.002-.224-1.344-.384v-1.36c.363.17.827.32 1.392.448.566.128 1.12.197 1.664.208v-3.232c-.522-.15-.981-.31-1.376-.48a3.805 3.805 0 0 1-.944-.608 2.302 2.302 0 0 1-.56-.768 2.792 2.792 0 0 1-.176-1.024c0-.523.123-.97.368-1.344a2.591 2.591 0 0 1 1.072-.88c.459-.224.998-.352 1.616-.384v-1.408h1.024v1.392a6.71 6.71 0 0 1 1.536.192c.47.107.896.24 1.28.4l-.432 1.184a7.487 7.487 0 0 0-1.136-.352 6.917 6.917 0 0 0-1.248-.208v3.216c.704.203 1.291.421 1.76.656.47.224.822.507 1.056.848.246.33.368.763.368 1.296 0 .747-.277 1.355-.832 1.824-.554.459-1.338.741-2.352.848v1.776h-1.024v-1.712Zm1.024-1.312c.63-.064 1.088-.208 1.376-.432.288-.235.432-.533.432-.896 0-.267-.053-.485-.16-.656-.106-.181-.293-.336-.56-.464-.256-.128-.618-.25-1.088-.368v2.816Zm-1.024-7.408c-.384.021-.698.09-.944.208-.245.107-.432.25-.56.432-.117.181-.176.39-.176.624 0 .277.048.517.144.72.107.192.283.357.528.496.246.128.582.245 1.008.352v-2.832Zm8.389 9.504h-1.92V90.8h1.92V102Zm4.656 0h-1.92V90.8h5.04c1.984 0 3.472 1.28 3.472 3.04 0 1.424-.704 2.416-1.872 2.832 1.232 0 1.712.528 1.712 1.584V102h-1.92v-3.264c0-.832-.24-1.072-1.072-1.072h-3.44V102Zm0-9.488v3.456h2.64c1.328 0 2.032-.72 2.032-1.792 0-1.104-.704-1.664-2.032-1.664h-2.64Zm13.722 9.648c-3.12 0-5.36-2.16-5.36-5.76 0-3.6 2.24-5.76 5.36-5.76 3.136 0 5.376 2.16 5.376 5.76 0 3.6-2.24 5.76-5.376 5.76Zm-.08-1.712h.16c2.032 0 3.376-1.504 3.376-4.048s-1.344-4.048-3.376-4.048h-.16c-2.032 0-3.36 1.504-3.36 4.048s1.328 4.048 3.36 4.048Zm14.859-.992V90.8h1.92V102h-2.56l-4.752-8.704V102h-1.92V90.8h2.56l4.752 8.656Z"/><rect width="973" height="135" x="306.5" y="151.5" fill="#fff" stroke="#0D0C22" rx="3.5"/><rect width="973" height="135" x="306.5" y="307.5" fill="#fff" stroke="#0D0C22" rx="3.5"/><path fill="#7F7F7F" d="m1251.16 215.175 3.81 3.825-3.81 3.825 1.17 1.175 5-5-5-5-1.17 1.175ZM1251.16 371.175l3.81 3.825-3.81 3.825 1.17 1.175 5-5-5-5-1.17 1.175Z"/><path fill="#0D0C22" d="M468.66 187v-3.864h2.73c1.82 0 3.15-1.078 3.15-2.968s-1.33-2.968-3.15-2.968h-4.13v9.8h1.4Zm0-8.54h2.52c1.26 0 1.96.588 1.96 1.708s-.7 1.708-1.96 1.708h-2.52v-3.416Zm8.73 8.54v-3.542c0-1.4.77-2.24 2.03-2.24h.56v-1.288h-.63c-.91 0-1.75.56-2.03 1.61V180h-1.26v7h1.33Zm5.333-8.26v-1.54h-1.47v1.54h1.47Zm-.07 8.26v-7h-1.33v7h1.33Zm3.432 0v-3.92c0-1.33.91-2.1 1.764-2.1h.112c.994 0 1.414.63 1.414 1.61V187h1.33v-3.92c0-1.33.91-2.1 1.764-2.1h.112c.994 0 1.414.63 1.414 1.61V187h1.33v-4.69c0-1.47-.91-2.45-2.52-2.45-.854 0-1.764.336-2.31 1.302-.462-.91-1.302-1.302-2.31-1.302-.98 0-1.68.49-2.1 1.12V180h-1.33v7h1.33Zm13.166.14c1.12 0 1.96-.63 2.24-1.26 0 .07 0 .77.07 1.12h1.26c-.07-.49-.07-1.12-.07-1.54v-2.94c0-1.428-.98-2.66-2.842-2.66-1.582 0-2.744.882-2.828 2.17h1.33c.084-.7.714-1.05 1.442-1.05h.112c.896 0 1.456.56 1.456 1.54v.224l-1.932.154c-1.134.098-2.548.574-2.548 2.17 0 1.19.98 2.072 2.31 2.072Zm.154-1.12c-.658 0-1.134-.434-1.134-1.008 0-.644.588-1.036 1.4-1.106l1.75-.14v.714c0 .84-1.05 1.54-1.904 1.54h-.112Zm6.709.98v-3.542c0-1.4.77-2.24 2.03-2.24h.56v-1.288h-.63c-.91 0-1.75.56-2.03 1.61V180h-1.26v7h1.33Zm8.862-7-2.1 5.166-2.184-5.166h-1.414l2.94 6.86v.98c0 .42-.14.56-.56.56h-1.96v1.19h2.31c.98 0 1.47-.49 1.47-1.47v-1.274l2.87-6.846h-1.372Zm13.99 7-3.85-9.8h-1.792l-3.878 9.8h1.428l.98-2.52h4.676l.98 2.52h1.456Zm-4.774-8.512 1.848 4.732h-3.696l1.848-4.732Zm8.798 8.652c1.596 0 2.73-.938 2.87-2.45h-1.33c-.126.77-.686 1.33-1.484 1.33h-.112c-1.344 0-1.974-1.19-1.974-2.52s.63-2.52 1.974-2.52h.112c.798 0 1.358.56 1.484 1.33h1.33c-.14-1.512-1.274-2.45-2.87-2.45-2.156 0-3.36 1.582-3.36 3.64s1.204 3.64 3.36 3.64Zm7.451 0c1.596 0 2.73-.938 2.87-2.45h-1.33c-.126.77-.686 1.33-1.484 1.33h-.112c-1.344 0-1.974-1.19-1.974-2.52s.63-2.52 1.974-2.52h.112c.798 0 1.358.56 1.484 1.33h1.33c-.14-1.512-1.274-2.45-2.87-2.45-2.156 0-3.36 1.582-3.36 3.64s1.204 3.64 3.36 3.64Zm7.437 0c1.89 0 3.36-1.47 3.36-3.64s-1.47-3.64-3.36-3.64-3.36 1.47-3.36 3.64 1.47 3.64 3.36 3.64Zm-.056-1.12c-1.134 0-1.974-.91-1.974-2.52 0-1.61.84-2.52 1.974-2.52h.112c1.134 0 1.974.91 1.974 2.52 0 1.61-.84 2.52-1.974 2.52h-.112Zm7.397 1.12c1.218 0 1.974-.7 2.24-1.47V187h1.33v-7h-1.33v3.78c0 1.4-.868 2.24-1.764 2.24h-.112c-.952 0-1.414-.56-1.414-1.68V180h-1.33v4.62c0 1.47.812 2.52 2.38 2.52Zm7.005-.14v-3.92c0-1.33.91-2.1 1.904-2.1h.112c.994 0 1.414.63 1.414 1.61V187h1.33v-4.69c0-1.47-.91-2.45-2.52-2.45-1.12 0-1.82.49-2.24 1.12V180h-1.33v7h1.33Zm10.684 0v-1.19h-1.33c-.42 0-.56-.14-.56-.56v-4.102h1.68V180h-1.68v-2.268h-1.33V180h-1.54v1.148h1.54v4.312c0 .98.56 1.54 1.54 1.54h1.68ZM470.354 343.14c-2.31 0-3.78-1.12-3.85-3.29h1.4c0 1.33 1.036 2.03 2.506 2.03h.14c1.316 0 2.03-.658 2.03-1.47 0-.798-.504-1.26-1.54-1.47l-1.568-.322c-1.568-.322-2.478-1.204-2.478-2.758 0-1.54 1.386-2.8 3.5-2.8 2.17 0 3.556 1.19 3.626 3.08h-1.4c-.07-1.12-.966-1.82-2.156-1.82h-.14c-1.218 0-2.03.658-2.03 1.526 0 .756.518 1.204 1.344 1.372l1.568.308c1.694.336 2.674 1.232 2.674 2.828 0 1.722-1.456 2.786-3.626 2.786Zm8.344 0c-1.736 0-3.304-1.204-3.304-3.654 0-2.422 1.61-3.626 3.262-3.626 1.82 0 2.968 1.26 2.968 3.08v.77h-4.9c.084 1.596 1.106 2.31 1.96 2.31h.112c.686 0 1.344-.35 1.484-1.092h1.33c-.252 1.414-1.47 2.212-2.912 2.212Zm-1.89-4.48h3.486c-.056-1.218-.784-1.68-1.582-1.68h-.112c-.728 0-1.54.434-1.792 1.68Zm9.479 4.48c-2.156 0-3.36-1.582-3.36-3.64s1.204-3.64 3.36-3.64c1.596 0 2.73.938 2.87 2.45h-1.33c-.126-.77-.686-1.33-1.484-1.33h-.112c-1.344 0-1.974 1.19-1.974 2.52s.63 2.52 1.974 2.52h.112c.798 0 1.358-.56 1.484-1.33h1.33c-.14 1.512-1.274 2.45-2.87 2.45Zm7.437 0c-1.89 0-3.36-1.47-3.36-3.64s1.47-3.64 3.36-3.64 3.36 1.47 3.36 3.64-1.47 3.64-3.36 3.64Zm-.056-1.12h.112c1.134 0 1.974-.91 1.974-2.52 0-1.61-.84-2.52-1.974-2.52h-.112c-1.134 0-1.974.91-1.974 2.52 0 1.61.84 2.52 1.974 2.52Zm6.417.98h-1.33v-7h1.33v.98c.42-.63 1.12-1.12 2.24-1.12 1.61 0 2.52.98 2.52 2.45V343h-1.33v-4.41c0-.98-.42-1.61-1.414-1.61h-.112c-.994 0-1.904.77-1.904 2.1V343Zm9.395.14c-1.75 0-3.01-1.33-3.01-3.64s1.4-3.64 3.15-3.64c.98 0 1.82.49 2.17 1.12v-3.78h1.33v9.8h-1.33v-.98c-.35.63-1.33 1.12-2.31 1.12Zm.224-1.12h.112c.994 0 1.974-.84 1.974-2.52 0-1.68-.98-2.52-1.974-2.52h-.112c-1.064 0-1.904.84-1.904 2.52 0 1.68.84 2.52 1.904 2.52Zm7.402 1.12c-1.33 0-2.31-.882-2.31-2.072 0-1.596 1.414-2.072 2.548-2.17l1.932-.154v-.224c0-.98-.56-1.54-1.456-1.54h-.112c-.728 0-1.358.35-1.442 1.05h-1.33c.084-1.288 1.246-2.17 2.828-2.17 1.862 0 2.842 1.232 2.842 2.66v2.94c0 .42 0 1.05.07 1.54h-1.26c-.07-.35-.07-1.05-.07-1.12-.28.63-1.12 1.26-2.24 1.26Zm.154-1.12h.112c.854 0 1.904-.7 1.904-1.54v-.714l-1.75.14c-.812.07-1.4.462-1.4 1.106 0 .574.476 1.008 1.134 1.008Zm6.71.98h-1.33v-7h1.26v1.54c.28-1.05 1.12-1.61 2.03-1.61h.63v1.288H526c-1.26 0-2.03.84-2.03 2.24V343Zm8.862-7h1.372l-2.87 6.846v1.274c0 .98-.49 1.47-1.47 1.47h-2.31v-1.19h1.96c.42 0 .56-.14.56-.56v-.98l-2.94-6.86h1.414l2.184 5.166 2.1-5.166Zm13.989 7h-1.456l-.98-2.52h-4.676l-.98 2.52h-1.428l3.878-9.8h1.792l3.85 9.8Zm-4.774-8.512-1.848 4.732h3.696l-1.848-4.732Zm8.798 8.652c-2.156 0-3.36-1.582-3.36-3.64s1.204-3.64 3.36-3.64c1.596 0 2.73.938 2.87 2.45h-1.33c-.126-.77-.686-1.33-1.484-1.33h-.112c-1.344 0-1.974 1.19-1.974 2.52s.63 2.52 1.974 2.52h.112c.798 0 1.358-.56 1.484-1.33h1.33c-.14 1.512-1.274 2.45-2.87 2.45Zm7.452 0c-2.156 0-3.36-1.582-3.36-3.64s1.204-3.64 3.36-3.64c1.596 0 2.73.938 2.87 2.45h-1.33c-.126-.77-.686-1.33-1.484-1.33h-.112c-1.344 0-1.974 1.19-1.974 2.52s.63 2.52 1.974 2.52h.112c.798 0 1.358-.56 1.484-1.33h1.33c-.14 1.512-1.274 2.45-2.87 2.45Zm7.437 0c-1.89 0-3.36-1.47-3.36-3.64s1.47-3.64 3.36-3.64 3.36 1.47 3.36 3.64-1.47 3.64-3.36 3.64Zm-.056-1.12h.112c1.134 0 1.974-.91 1.974-2.52 0-1.61-.84-2.52-1.974-2.52h-.112c-1.134 0-1.974.91-1.974 2.52 0 1.61.84 2.52 1.974 2.52Zm7.397 1.12c-1.568 0-2.38-1.05-2.38-2.52V336h1.33v4.34c0 1.12.462 1.68 1.414 1.68h.112c.896 0 1.764-.84 1.764-2.24V336h1.33v7h-1.33v-1.33c-.266.77-1.022 1.47-2.24 1.47Zm7.004-.14h-1.33v-7h1.33v.98c.42-.63 1.12-1.12 2.24-1.12 1.61 0 2.52.98 2.52 2.45V343h-1.33v-4.41c0-.98-.42-1.61-1.414-1.61h-.112c-.994 0-1.904.77-1.904 2.1V343Zm10.685 0h-1.68c-.98 0-1.54-.56-1.54-1.54v-4.312h-1.54V336h1.54v-2.268h1.33V336h1.68v1.148h-1.68v4.102c0 .42.14.56.56.56h1.33V343ZM466.816 212.424l5.28-4.224h1.872V225h-2.352v-13.632l-4.8 3.792v-2.736Zm18.686 12.816c-4.248 0-7.656-2.76-7.656-8.64 0-5.88 3.432-8.64 7.656-8.64s7.68 2.76 7.68 8.64c0 5.88-3.432 8.64-7.68 8.64Zm-.168-2.088h.336c2.184 0 5.064-1.368 5.064-6.552 0-5.184-2.88-6.552-5.064-6.552h-.336c-2.16 0-5.04 1.368-5.04 6.552 0 5.184 2.88 6.552 5.04 6.552Zm18.356 2.088c-4.248 0-7.656-2.76-7.656-8.64 0-5.88 3.432-8.64 7.656-8.64s7.68 2.76 7.68 8.64c0 5.88-3.432 8.64-7.68 8.64Zm-.168-2.088h.336c2.184 0 5.064-1.368 5.064-6.552 0-5.184-2.88-6.552-5.064-6.552h-.336c-2.16 0-5.04 1.368-5.04 6.552 0 5.184 2.88 6.552 5.04 6.552Zm21.87.672a19.165 19.165 0 0 1-2.568-.216c-.832-.144-1.504-.336-2.016-.576v-2.04c.544.256 1.24.48 2.088.672.848.192 1.68.296 2.496.312v-4.848a17.003 17.003 0 0 1-2.064-.72c-.576-.272-1.048-.576-1.416-.912a3.445 3.445 0 0 1-.84-1.152c-.176-.448-.264-.96-.264-1.536 0-.784.184-1.456.552-2.016.384-.56.92-1 1.608-1.32.688-.336 1.496-.528 2.424-.576v-2.112h1.536v2.088c.848.016 1.616.112 2.304.288.704.16 1.344.36 1.92.6l-.648 1.776a11.254 11.254 0 0 0-1.704-.528 10.395 10.395 0 0 0-1.872-.312v4.824c1.056.304 1.936.632 2.64.984.704.336 1.232.76 1.584 1.272.368.496.552 1.144.552 1.944 0 1.12-.416 2.032-1.248 2.736-.832.688-2.008 1.112-3.528 1.272v2.664h-1.536v-2.568Zm1.536-1.968c.944-.096 1.632-.312 2.064-.648.432-.352.648-.8.648-1.344 0-.4-.08-.728-.24-.984-.16-.272-.44-.504-.84-.696-.384-.192-.928-.376-1.632-.552v4.224Zm-1.536-11.112c-.576.032-1.048.136-1.416.312-.368.16-.648.376-.84.648a1.685 1.685 0 0 0-.264.936c0 .416.072.776.216 1.08.16.288.424.536.792.744.368.192.872.368 1.512.528v-4.248ZM537.855 225h-2.472v-16.8h2.472V225Zm7.125 0h-2.472v-16.8h9.12c3.216 0 5.496 1.944 5.496 4.584 0 2.16-1.32 3.624-2.688 4.104 1.752 0 2.352.792 2.352 2.472V225h-2.472v-5.04c0-1.32-.384-1.68-1.704-1.68h-7.632V225Zm0-14.592v5.664h6.288c2.112 0 3.36-1.2 3.36-2.88 0-1.8-1.248-2.784-3.36-2.784h-6.288Zm24.533 14.832c-5.304 0-9.288-3.264-9.288-8.64 0-5.376 3.984-8.64 9.288-8.64s9.264 3.264 9.264 8.64c0 5.376-3.96 8.64-9.264 8.64Zm-.192-2.208h.384c3.576 0 6.576-2.352 6.576-6.432s-3-6.432-6.576-6.432h-.384c-3.576 0-6.6 2.352-6.6 6.432s3.024 6.432 6.6 6.432Zm26.206-.792V208.2h2.472V225h-3.408l-9.768-14.04V225h-2.472v-16.8h3.408l9.768 14.04ZM474.472 370.536c3.552 0 6.048 2.136 6.048 5.136 0 3.384-2.688 5.568-6.744 5.568-3.672 0-6.408-1.584-6.792-4.68h2.52c.432 1.68 2.112 2.592 4.104 2.592h.336c2.592 0 4.128-1.416 4.128-3.408 0-1.872-1.632-3.12-4.008-3.12h-.336c-1.32 0-2.88.456-3.648 1.536h-2.496l2.04-9.96h10.464v2.208H471.4l-1.128 5.4c1.08-.864 2.592-1.272 4.2-1.272Zm20.006 9.288a19.165 19.165 0 0 1-2.568-.216c-.832-.144-1.504-.336-2.016-.576v-2.04c.544.256 1.24.48 2.088.672.848.192 1.68.296 2.496.312v-4.848a17.003 17.003 0 0 1-2.064-.72c-.576-.272-1.048-.576-1.416-.912a3.445 3.445 0 0 1-.84-1.152c-.176-.448-.264-.96-.264-1.536 0-.784.184-1.456.552-2.016.384-.56.92-1 1.608-1.32.688-.336 1.496-.528 2.424-.576v-2.112h1.536v2.088c.848.016 1.616.112 2.304.288.704.16 1.344.36 1.92.6l-.648 1.776a11.254 11.254 0 0 0-1.704-.528 10.395 10.395 0 0 0-1.872-.312v4.824c1.056.304 1.936.632 2.64.984.704.336 1.232.76 1.584 1.272.368.496.552 1.144.552 1.944 0 1.12-.416 2.032-1.248 2.736-.832.688-2.008 1.112-3.528 1.272v2.664h-1.536v-2.568Zm1.536-1.968c.944-.096 1.632-.312 2.064-.648.432-.352.648-.8.648-1.344 0-.4-.08-.728-.24-.984-.16-.272-.44-.504-.84-.696-.384-.192-.928-.376-1.632-.552v4.224Zm-1.536-11.112c-.576.032-1.048.136-1.416.312-.368.16-.648.376-.84.648a1.685 1.685 0 0 0-.264.936c0 .416.072.776.216 1.08.16.288.424.536.792.744.368.192.872.368 1.512.528v-4.248ZM506.941 381h-2.472v-16.8h2.472V381Zm7.125 0h-2.472v-16.8h9.12c3.216 0 5.496 1.944 5.496 4.584 0 2.16-1.32 3.624-2.688 4.104 1.752 0 2.352.792 2.352 2.472V381h-2.472v-5.04c0-1.32-.384-1.68-1.704-1.68h-7.632V381Zm0-14.592v5.664h6.288c2.112 0 3.36-1.2 3.36-2.88 0-1.8-1.248-2.784-3.36-2.784h-6.288Zm24.533 14.832c-5.304 0-9.288-3.264-9.288-8.64 0-5.376 3.984-8.64 9.288-8.64s9.264 3.264 9.264 8.64c0 5.376-3.96 8.64-9.264 8.64Zm-.192-2.208h.384c3.576 0 6.576-2.352 6.576-6.432s-3-6.432-6.576-6.432h-.384c-3.576 0-6.6 2.352-6.6 6.432s3.024 6.432 6.6 6.432Zm26.206-.792V364.2h2.472V381h-3.408l-9.768-14.04V381h-2.472v-16.8h3.408l9.768 14.04Z"/><path fill="#7F7F7F" d="M469.934 257.14c-1.736 0-3.304-1.204-3.304-3.654 0-2.422 1.61-3.626 3.262-3.626 1.82 0 2.968 1.26 2.968 3.08v.77h-4.9c.084 1.596 1.106 2.31 1.96 2.31h.112c.686 0 1.344-.35 1.484-1.092h1.33c-.252 1.414-1.47 2.212-2.912 2.212Zm-1.89-4.48h3.486c-.056-1.218-.784-1.68-1.582-1.68h-.112c-.728 0-1.54.434-1.792 1.68Zm10.123 4.48c-2.422 0-3.85-1.75-3.85-5.04s1.428-5.04 3.85-5.04 3.85 1.75 3.85 5.04-1.428 5.04-3.85 5.04Zm-.07-1.19h.14c1.05 0 2.408-.826 2.408-3.85s-1.358-3.85-2.408-3.85h-.14c-1.05 0-2.408.826-2.408 3.85s1.358 3.85 2.408 3.85Zm8.36 1.19c-1.75 0-3.01-1.33-3.01-3.64s1.4-3.64 3.15-3.64c.98 0 1.82.49 2.17 1.12v-3.78h1.33v9.8h-1.33v-.98c-.35.63-1.33 1.12-2.31 1.12Zm.224-1.12h.112c.994 0 1.974-.84 1.974-2.52 0-1.68-.98-2.52-1.974-2.52h-.112c-1.064 0-1.904.84-1.904 2.52 0 1.68.84 2.52 1.904 2.52Zm9.348-2.702-2.618 2.422h5.054V257h-6.622v-1.484l3.164-3.01c.868-.826 1.946-1.554 1.946-2.758 0-.924-.728-1.498-1.652-1.498h-.14c-1.078 0-1.82.798-1.82 1.876h-1.4c.014-1.876 1.414-3.066 3.29-3.066 1.68 0 3.094.938 3.094 2.618 0 1.554-1.162 2.576-2.296 3.64Zm6.093 3.822c-1.33 0-2.31-.882-2.31-2.072 0-1.596 1.414-2.072 2.548-2.17l1.932-.154v-.224c0-.98-.56-1.54-1.456-1.54h-.112c-.728 0-1.358.35-1.442 1.05h-1.33c.084-1.288 1.246-2.17 2.828-2.17 1.862 0 2.842 1.232 2.842 2.66v2.94c0 .42 0 1.05.07 1.54h-1.26c-.07-.35-.07-1.05-.07-1.12-.28.63-1.12 1.26-2.24 1.26Zm.154-1.12h.112c.854 0 1.904-.7 1.904-1.54v-.714l-1.75.14c-.812.07-1.4.462-1.4 1.106 0 .574.476 1.008 1.134 1.008Zm7.426.98h-1.33v-5.852h-1.54V250h1.54v-1.33c0-.98.49-1.47 1.47-1.47h1.96v1.162h-1.54c-.42 0-.56.14-.56.56V250h1.75v1.148h-1.75V257Zm6.733-6.44c1.75 0 3.164 1.26 3.164 3.22 0 2.016-1.47 3.36-3.43 3.36-2.17 0-3.626-1.708-3.626-4.718 0-3.15 1.904-5.362 4.144-5.362 1.68 0 2.842.924 3.122 2.52h-1.372c-.21-.784-.784-1.316-1.652-1.316h-.168c-1.54 0-2.688 1.568-2.856 3.906.49-1.008 1.54-1.61 2.674-1.61Zm-.308 5.376h.14c1.05 0 1.96-.84 1.96-2.086 0-1.26-.91-2.1-1.96-2.1h-.14c-1.05 0-2.016.896-2.016 2.086 0 1.176.966 2.1 2.016 2.1Zm8.976-5.376c1.75 0 3.164 1.26 3.164 3.22 0 2.016-1.47 3.36-3.43 3.36-2.17 0-3.626-1.708-3.626-4.718 0-3.15 1.904-5.362 4.144-5.362 1.68 0 2.842.924 3.122 2.52h-1.372c-.21-.784-.784-1.316-1.652-1.316h-.168c-1.54 0-2.688 1.568-2.856 3.906.49-1.008 1.54-1.61 2.674-1.61Zm-.308 5.376h.14c1.05 0 1.96-.84 1.96-2.086 0-1.26-.91-2.1-1.96-2.1h-.14c-1.05 0-2.016.896-2.016 2.086 0 1.176.966 2.1 2.016 2.1Zm8.612-8.876c2.17 0 3.626 1.708 3.626 4.718 0 3.15-1.904 5.362-4.144 5.362-1.68 0-2.842-.924-3.122-2.52h1.372c.21.784.784 1.316 1.652 1.316h.168c1.54 0 2.688-1.568 2.856-3.906-.49 1.008-1.54 1.61-2.674 1.61-1.75 0-3.164-1.26-3.164-3.22 0-2.016 1.47-3.36 3.43-3.36Zm-.098 5.39h.14c1.05 0 2.016-.896 2.016-2.086 0-1.176-.966-2.1-2.016-2.1h-.14c-1.05 0-1.96.84-1.96 2.086 0 1.26.91 2.1 1.96 2.1Zm8.514 4.69c-1.806 0-3.066-1.064-3.066-2.59 0-1.12.7-1.96 1.652-2.31-.994-.252-1.848-1.218-1.848-2.408 0-1.638 1.33-2.772 3.262-2.772s3.262 1.134 3.262 2.772c0 1.19-.854 2.156-1.848 2.408.952.35 1.652 1.19 1.652 2.31 0 1.526-1.26 2.59-3.066 2.59Zm-.07-5.544h.14c1.05 0 1.82-.7 1.82-1.694 0-.98-.77-1.652-1.82-1.652h-.14c-1.05 0-1.82.672-1.82 1.652 0 .994.77 1.694 1.82 1.694Zm0 4.354h.14c.98 0 1.638-.63 1.638-1.54 0-.924-.658-1.624-1.638-1.624h-.14c-.98 0-1.638.7-1.638 1.624 0 .91.658 1.54 1.638 1.54Zm8.15 1.19c-1.904 0-3.22-1.05-3.402-2.702h1.358c.196.966.938 1.512 1.974 1.512h.126c1.036 0 1.89-.63 1.89-1.61 0-1.022-.756-1.652-1.778-1.652h-.84v-1.176h.84c1.022 0 1.708-.756 1.708-1.652 0-1.008-.784-1.61-1.82-1.61h-.126c-.938 0-1.736.658-1.82 1.54h-1.33c.084-1.568 1.484-2.73 3.29-2.73 1.75 0 3.178 1.162 3.178 2.59 0 1.26-.728 2.1-1.694 2.408.966.238 1.764 1.022 1.764 2.352 0 1.568-1.4 2.73-3.318 2.73Zm10.71-.14h-1.344v-2.226h-4.816v-1.344l4.83-6.23h1.33v6.384h1.54v1.19h-1.54V257Zm-1.344-7.924-3.5 4.508h3.5v-4.508Zm6.276 8.064c-1.33 0-2.31-.882-2.31-2.072 0-1.596 1.414-2.072 2.548-2.17l1.932-.154v-.224c0-.98-.56-1.54-1.456-1.54h-.112c-.728 0-1.358.35-1.442 1.05h-1.33c.084-1.288 1.246-2.17 2.828-2.17 1.862 0 2.842 1.232 2.842 2.66v2.94c0 .42 0 1.05.07 1.54h-1.26c-.07-.35-.07-1.05-.07-1.12-.28.63-1.12 1.26-2.24 1.26Zm.154-1.12h.112c.854 0 1.904-.7 1.904-1.54v-.714l-1.75.14c-.812.07-1.4.462-1.4 1.106 0 .574.476 1.008 1.134 1.008Zm8.292 1.12c-1.792 0-3.318-.938-3.458-2.73h1.372c.126 1.008.994 1.54 2.016 1.54h.14c1.176 0 1.988-.868 1.988-2.03 0-1.078-.84-1.862-1.918-1.862h-.14c-.63 0-1.358.322-1.75.952h-1.358l1.19-5.81h5.25v1.26h-4.228l-.686 3.178c.532-.518 1.26-.77 1.96-.77 1.82 0 3.052 1.302 3.052 2.982 0 1.932-1.498 3.29-3.43 3.29Zm8.863 0c-.98 0-1.96-.49-2.31-1.12v.98h-1.33v-9.8h1.33v3.78c.35-.63 1.19-1.12 2.17-1.12 1.75 0 3.15 1.33 3.15 3.64s-1.26 3.64-3.01 3.64Zm-.336-1.12h.112c1.064 0 1.904-.84 1.904-2.52 0-1.68-.84-2.52-1.904-2.52h-.112c-.994 0-1.974.84-1.974 2.52 0 1.68.98 2.52 1.974 2.52Zm8.018 1.12c-1.806 0-3.066-1.064-3.066-2.59 0-1.12.7-1.96 1.652-2.31-.994-.252-1.848-1.218-1.848-2.408 0-1.638 1.33-2.772 3.262-2.772s3.262 1.134 3.262 2.772c0 1.19-.854 2.156-1.848 2.408.952.35 1.652 1.19 1.652 2.31 0 1.526-1.26 2.59-3.066 2.59Zm-.07-5.544h.14c1.05 0 1.82-.7 1.82-1.694 0-.98-.77-1.652-1.82-1.652h-.14c-1.05 0-1.82.672-1.82 1.652 0 .994.77 1.694 1.82 1.694Zm0 4.354h.14c.98 0 1.638-.63 1.638-1.54 0-.924-.658-1.624-1.638-1.624h-.14c-.98 0-1.638.7-1.638 1.624 0 .91.658 1.54 1.638 1.54Zm8.038 1.19c-1.736 0-3.304-1.204-3.304-3.654 0-2.422 1.61-3.626 3.262-3.626 1.82 0 2.968 1.26 2.968 3.08v.77h-4.9c.084 1.596 1.106 2.31 1.96 2.31h.112c.686 0 1.344-.35 1.484-1.092h1.33c-.252 1.414-1.47 2.212-2.912 2.212Zm-1.89-4.48h3.486c-.056-1.218-.784-1.68-1.582-1.68h-.112c-.728 0-1.54.434-1.792 1.68Zm9.48 4.48c-2.156 0-3.36-1.582-3.36-3.64s1.204-3.64 3.36-3.64c1.596 0 2.73.938 2.87 2.45h-1.33c-.126-.77-.686-1.33-1.484-1.33h-.112c-1.344 0-1.974 1.19-1.974 2.52s.63 2.52 1.974 2.52h.112c.798 0 1.358-.56 1.484-1.33h1.33c-.14 1.512-1.274 2.45-2.87 2.45Zm7.395 0c-1.736 0-3.304-1.204-3.304-3.654 0-2.422 1.61-3.626 3.262-3.626 1.82 0 2.968 1.26 2.968 3.08v.77h-4.9c.084 1.596 1.106 2.31 1.96 2.31h.112c.686 0 1.344-.35 1.484-1.092h1.33c-.252 1.414-1.47 2.212-2.912 2.212Zm-1.89-4.48h3.486c-.056-1.218-.784-1.68-1.582-1.68h-.112c-.728 0-1.54.434-1.792 1.68Zm10.137-2.1c1.75 0 3.164 1.26 3.164 3.22 0 2.016-1.47 3.36-3.43 3.36-2.17 0-3.626-1.708-3.626-4.718 0-3.15 1.904-5.362 4.144-5.362 1.68 0 2.842.924 3.122 2.52h-1.372c-.21-.784-.784-1.316-1.652-1.316h-.168c-1.54 0-2.688 1.568-2.856 3.906.49-1.008 1.54-1.61 2.674-1.61Zm-.308 5.376h.14c1.05 0 1.96-.84 1.96-2.086 0-1.26-.91-2.1-1.96-2.1h-.14c-1.05 0-2.016.896-2.016 2.086 0 1.176.966 2.1 2.016 2.1Zm8.374 1.204c-1.904 0-3.22-1.05-3.402-2.702h1.358c.196.966.938 1.512 1.974 1.512h.126c1.036 0 1.89-.63 1.89-1.61 0-1.022-.756-1.652-1.778-1.652h-.84v-1.176h.84c1.022 0 1.708-.756 1.708-1.652 0-1.008-.784-1.61-1.82-1.61h-.126c-.938 0-1.736.658-1.82 1.54h-1.33c.084-1.568 1.484-2.73 3.29-2.73 1.75 0 3.178 1.162 3.178 2.59 0 1.26-.728 2.1-1.694 2.408.966.238 1.764 1.022 1.764 2.352 0 1.568-1.4 2.73-3.318 2.73Zm8.189 0c-1.904 0-3.22-1.05-3.402-2.702h1.358c.196.966.938 1.512 1.974 1.512h.126c1.036 0 1.89-.63 1.89-1.61 0-1.022-.756-1.652-1.778-1.652h-.84v-1.176h.84c1.022 0 1.708-.756 1.708-1.652 0-1.008-.784-1.61-1.82-1.61h-.126c-.938 0-1.736.658-1.82 1.54h-1.33c.084-1.568 1.484-2.73 3.29-2.73 1.75 0 3.178 1.162 3.178 2.59 0 1.26-.728 2.1-1.694 2.408.966.238 1.764 1.022 1.764 2.352 0 1.568-1.4 2.73-3.318 2.73Zm8.176 0c-1.806 0-3.066-1.064-3.066-2.59 0-1.12.7-1.96 1.652-2.31-.994-.252-1.848-1.218-1.848-2.408 0-1.638 1.33-2.772 3.262-2.772s3.262 1.134 3.262 2.772c0 1.19-.854 2.156-1.848 2.408.952.35 1.652 1.19 1.652 2.31 0 1.526-1.26 2.59-3.066 2.59Zm-.07-5.544h.14c1.05 0 1.82-.7 1.82-1.694 0-.98-.77-1.652-1.82-1.652h-.14c-1.05 0-1.82.672-1.82 1.652 0 .994.77 1.694 1.82 1.694Zm0 4.354h.14c.98 0 1.638-.63 1.638-1.54 0-.924-.658-1.624-1.638-1.624h-.14c-.98 0-1.638.7-1.638 1.624 0 .91.658 1.54 1.638 1.54Zm8.15 1.19c-1.904 0-3.22-1.05-3.402-2.702h1.358c.196.966.938 1.512 1.974 1.512h.126c1.036 0 1.89-.63 1.89-1.61 0-1.022-.756-1.652-1.778-1.652h-.84v-1.176h.84c1.022 0 1.708-.756 1.708-1.652 0-1.008-.784-1.61-1.82-1.61h-.126c-.938 0-1.736.658-1.82 1.54h-1.33c.084-1.568 1.484-2.73 3.29-2.73 1.75 0 3.178 1.162 3.178 2.59 0 1.26-.728 2.1-1.694 2.408.966.238 1.764 1.022 1.764 2.352 0 1.568-1.4 2.73-3.318 2.73Zm8.078 0c-1.736 0-3.304-1.204-3.304-3.654 0-2.422 1.61-3.626 3.262-3.626 1.82 0 2.968 1.26 2.968 3.08v.77h-4.9c.084 1.596 1.106 2.31 1.96 2.31h.112c.686 0 1.344-.35 1.484-1.092h1.33c-.252 1.414-1.47 2.212-2.912 2.212Zm-1.89-4.48h3.486c-.056-1.218-.784-1.68-1.582-1.68h-.112c-.728 0-1.54.434-1.792 1.68Zm9.451 4.48c-1.792 0-3.318-.938-3.458-2.73h1.372c.126 1.008.994 1.54 2.016 1.54h.14c1.176 0 1.988-.868 1.988-2.03 0-1.078-.84-1.862-1.918-1.862h-.14c-.63 0-1.358.322-1.75.952h-1.358l1.19-5.81h5.25v1.26h-4.228l-.686 3.178c.532-.518 1.26-.77 1.96-.77 1.82 0 3.052 1.302 3.052 2.982 0 1.932-1.498 3.29-3.43 3.29Zm8.457-10.08c2.17 0 3.626 1.708 3.626 4.718 0 3.15-1.904 5.362-4.144 5.362-1.68 0-2.842-.924-3.122-2.52h1.372c.21.784.784 1.316 1.652 1.316h.168c1.54 0 2.688-1.568 2.856-3.906-.49 1.008-1.54 1.61-2.674 1.61-1.75 0-3.164-1.26-3.164-3.22 0-2.016 1.47-3.36 3.43-3.36Zm-.098 5.39h.14c1.05 0 2.016-.896 2.016-2.086 0-1.176-.966-2.1-2.016-2.1h-.14c-1.05 0-1.96.84-1.96 2.086 0 1.26.91 2.1 1.96 2.1Zm9.13-1.89c1.75 0 3.164 1.26 3.164 3.22 0 2.016-1.47 3.36-3.43 3.36-2.17 0-3.626-1.708-3.626-4.718 0-3.15 1.904-5.362 4.144-5.362 1.68 0 2.842.924 3.122 2.52h-1.372c-.21-.784-.784-1.316-1.652-1.316h-.168c-1.54 0-2.688 1.568-2.856 3.906.49-1.008 1.54-1.61 2.674-1.61Zm-.308 5.376h.14c1.05 0 1.96-.84 1.96-2.086 0-1.26-.91-2.1-1.96-2.1h-.14c-1.05 0-2.016.896-2.016 2.086 0 1.176.966 2.1 2.016 2.1Zm9.214-2.618-2.618 2.422h5.054V257h-6.622v-1.484l3.164-3.01c.868-.826 1.946-1.554 1.946-2.758 0-.924-.728-1.498-1.652-1.498h-.14c-1.078 0-1.82.798-1.82 1.876h-1.4c.014-1.876 1.414-3.066 3.29-3.066 1.68 0 3.094.938 3.094 2.618 0 1.554-1.162 2.576-2.296 3.64Zm7.787 3.822c-2.422 0-3.85-1.75-3.85-5.04s1.428-5.04 3.85-5.04 3.85 1.75 3.85 5.04-1.428 5.04-3.85 5.04Zm-.07-1.19h.14c1.05 0 2.408-.826 2.408-3.85s-1.358-3.85-2.408-3.85h-.14c-1.05 0-2.408.826-2.408 3.85s1.358 3.85 2.408 3.85Zm9.591-2.632-2.618 2.422h5.054V257h-6.622v-1.484l3.164-3.01c.868-.826 1.946-1.554 1.946-2.758 0-.924-.728-1.498-1.652-1.498h-.14c-1.078 0-1.82.798-1.82 1.876h-1.4c.014-1.876 1.414-3.066 3.29-3.066 1.68 0 3.094.938 3.094 2.618 0 1.554-1.162 2.576-2.296 3.64Zm8.039 0-2.618 2.422h5.054V257h-6.622v-1.484l3.164-3.01c.868-.826 1.946-1.554 1.946-2.758 0-.924-.728-1.498-1.652-1.498h-.14c-1.078 0-1.82.798-1.82 1.876h-1.4c.014-1.876 1.414-3.066 3.29-3.066 1.68 0 3.094.938 3.094 2.618 0 1.554-1.162 2.576-2.296 3.64Zm7.801-2.758c1.75 0 3.164 1.26 3.164 3.22 0 2.016-1.47 3.36-3.43 3.36-2.17 0-3.626-1.708-3.626-4.718 0-3.15 1.904-5.362 4.144-5.362 1.68 0 2.842.924 3.122 2.52h-1.372c-.21-.784-.784-1.316-1.652-1.316h-.168c-1.54 0-2.688 1.568-2.856 3.906.49-1.008 1.54-1.61 2.674-1.61Zm-.308 5.376h.14c1.05 0 1.96-.84 1.96-2.086 0-1.26-.91-2.1-1.96-2.1h-.14c-1.05 0-2.016.896-2.016 2.086 0 1.176.966 2.1 2.016 2.1Zm8.962 1.204c-2.422 0-3.85-1.75-3.85-5.04s1.428-5.04 3.85-5.04 3.85 1.75 3.85 5.04-1.428 5.04-3.85 5.04Zm-.07-1.19h.14c1.05 0 2.408-.826 2.408-3.85s-1.358-3.85-2.408-3.85h-.14c-1.05 0-2.408.826-2.408 3.85s1.358 3.85 2.408 3.85Zm8.64 1.19c-1.736 0-3.304-1.204-3.304-3.654 0-2.422 1.61-3.626 3.262-3.626 1.82 0 2.968 1.26 2.968 3.08v.77h-4.9c.084 1.596 1.106 2.31 1.96 2.31h.112c.686 0 1.344-.35 1.484-1.092h1.33c-.252 1.414-1.47 2.212-2.912 2.212Zm-1.89-4.48h3.486c-.056-1.218-.784-1.68-1.582-1.68h-.112c-.728 0-1.54.434-1.792 1.68Zm9.479 4.48c-2.156 0-3.36-1.582-3.36-3.64s1.204-3.64 3.36-3.64c1.596 0 2.73.938 2.87 2.45h-1.33c-.126-.77-.686-1.33-1.484-1.33h-.112c-1.344 0-1.974 1.19-1.974 2.52s.63 2.52 1.974 2.52h.112c.798 0 1.358-.56 1.484-1.33h1.33c-.14 1.512-1.274 2.45-2.87 2.45Zm8.347-3.822-2.618 2.422h5.054V257h-6.622v-1.484l3.164-3.01c.868-.826 1.946-1.554 1.946-2.758 0-.924-.728-1.498-1.652-1.498h-.14c-1.078 0-1.82.798-1.82 1.876h-1.4c.014-1.876 1.414-3.066 3.29-3.066 1.68 0 3.094.938 3.094 2.618 0 1.554-1.162 2.576-2.296 3.64Zm6.807 3.822c-1.75 0-3.01-1.33-3.01-3.64s1.4-3.64 3.15-3.64c.98 0 1.82.49 2.17 1.12v-3.78h1.33v9.8h-1.33v-.98c-.35.63-1.33 1.12-2.31 1.12Zm.224-1.12h.112c.994 0 1.974-.84 1.974-2.52 0-1.68-.98-2.52-1.974-2.52h-.112c-1.064 0-1.904.84-1.904 2.52 0 1.68.84 2.52 1.904 2.52Zm8.494 1.12c-1.806 0-3.066-1.064-3.066-2.59 0-1.12.7-1.96 1.652-2.31-.994-.252-1.848-1.218-1.848-2.408 0-1.638 1.33-2.772 3.262-2.772s3.262 1.134 3.262 2.772c0 1.19-.854 2.156-1.848 2.408.952.35 1.652 1.19 1.652 2.31 0 1.526-1.26 2.59-3.066 2.59Zm-.07-5.544h.14c1.05 0 1.82-.7 1.82-1.694 0-.98-.77-1.652-1.82-1.652h-.14c-1.05 0-1.82.672-1.82 1.652 0 .994.77 1.694 1.82 1.694Zm0 4.354h.14c.98 0 1.638-.63 1.638-1.54 0-.924-.658-1.624-1.638-1.624h-.14c-.98 0-1.638.7-1.638 1.624 0 .91.658 1.54 1.638 1.54Zm7.758 1.19c-1.75 0-3.01-1.33-3.01-3.64s1.4-3.64 3.15-3.64c.98 0 1.82.49 2.17 1.12v-3.78h1.33v9.8h-1.33v-.98c-.35.63-1.33 1.12-2.31 1.12Zm.224-1.12h.112c.994 0 1.974-.84 1.974-2.52 0-1.68-.98-2.52-1.974-2.52h-.112c-1.064 0-1.904.84-1.904 2.52 0 1.68.84 2.52 1.904 2.52Zm8.508 1.12c-1.904 0-3.22-1.05-3.402-2.702h1.358c.196.966.938 1.512 1.974 1.512h.126c1.036 0 1.89-.63 1.89-1.61 0-1.022-.756-1.652-1.778-1.652h-.84v-1.176h.84c1.022 0 1.708-.756 1.708-1.652 0-1.008-.784-1.61-1.82-1.61h-.126c-.938 0-1.736.658-1.82 1.54h-1.33c.084-1.568 1.484-2.73 3.29-2.73 1.75 0 3.178 1.162 3.178 2.59 0 1.26-.728 2.1-1.694 2.408.966.238 1.764 1.022 1.764 2.352 0 1.568-1.4 2.73-3.318 2.73Zm4.606-7.49 2.52-2.45h1.05v9.8h-1.344v-7.826l-2.226 2.156v-1.68Zm8.846 7.49c-2.156 0-3.36-1.582-3.36-3.64s1.204-3.64 3.36-3.64c1.596 0 2.73.938 2.87 2.45h-1.33c-.126-.77-.686-1.33-1.484-1.33h-.112c-1.344 0-1.974 1.19-1.974 2.52s.63 2.52 1.974 2.52h.112c.798 0 1.358-.56 1.484-1.33h1.33c-.14 1.512-1.274 2.45-2.87 2.45Zm8.095 0c-2.422 0-3.85-1.75-3.85-5.04s1.428-5.04 3.85-5.04 3.85 1.75 3.85 5.04-1.428 5.04-3.85 5.04Zm-.07-1.19h.14c1.05 0 2.408-.826 2.408-3.85s-1.358-3.85-2.408-3.85h-.14c-1.05 0-2.408.826-2.408 3.85s1.358 3.85 2.408 3.85Zm8.738 1.19c-1.806 0-3.066-1.064-3.066-2.59 0-1.12.7-1.96 1.652-2.31-.994-.252-1.848-1.218-1.848-2.408 0-1.638 1.33-2.772 3.262-2.772s3.262 1.134 3.262 2.772c0 1.19-.854 2.156-1.848 2.408.952.35 1.652 1.19 1.652 2.31 0 1.526-1.26 2.59-3.066 2.59Zm-.07-5.544h.14c1.05 0 1.82-.7 1.82-1.694 0-.98-.77-1.652-1.82-1.652h-.14c-1.05 0-1.82.672-1.82 1.652 0 .994.77 1.694 1.82 1.694Zm0 4.354h.14c.98 0 1.638-.63 1.638-1.54 0-.924-.658-1.624-1.638-1.624h-.14c-.98 0-1.638.7-1.638 1.624 0 .91.658 1.54 1.638 1.54Zm8.388-8.89c2.17 0 3.626 1.708 3.626 4.718 0 3.15-1.904 5.362-4.144 5.362-1.68 0-2.842-.924-3.122-2.52h1.372c.21.784.784 1.316 1.652 1.316h.168c1.54 0 2.688-1.568 2.856-3.906-.49 1.008-1.54 1.61-2.674 1.61-1.75 0-3.164-1.26-3.164-3.22 0-2.016 1.47-3.36 3.43-3.36Zm-.098 5.39h.14c1.05 0 2.016-.896 2.016-2.086 0-1.176-.966-2.1-2.016-2.1h-.14c-1.05 0-1.96.84-1.96 2.086 0 1.26.91 2.1 1.96 2.1Zm8.472 4.69c-2.156 0-3.36-1.582-3.36-3.64s1.204-3.64 3.36-3.64c1.596 0 2.73.938 2.87 2.45h-1.33c-.126-.77-.686-1.33-1.484-1.33h-.112c-1.344 0-1.974 1.19-1.974 2.52s.63 2.52 1.974 2.52h.112c.798 0 1.358-.56 1.484-1.33h1.33c-.14 1.512-1.274 2.45-2.87 2.45Zm8.109-6.58c1.75 0 3.164 1.26 3.164 3.22 0 2.016-1.47 3.36-3.43 3.36-2.17 0-3.626-1.708-3.626-4.718 0-3.15 1.904-5.362 4.144-5.362 1.68 0 2.842.924 3.122 2.52h-1.372c-.21-.784-.784-1.316-1.652-1.316h-.168c-1.54 0-2.688 1.568-2.856 3.906.49-1.008 1.54-1.61 2.674-1.61Zm-.308 5.376h.14c1.05 0 1.96-.84 1.96-2.086 0-1.26-.91-2.1-1.96-2.1h-.14c-1.05 0-2.016.896-2.016 2.086 0 1.176.966 2.1 2.016 2.1Zm8.374 1.204c-1.904 0-3.22-1.05-3.402-2.702h1.358c.196.966.938 1.512 1.974 1.512h.126c1.036 0 1.89-.63 1.89-1.61 0-1.022-.756-1.652-1.778-1.652h-.84v-1.176h.84c1.022 0 1.708-.756 1.708-1.652 0-1.008-.784-1.61-1.82-1.61h-.126c-.938 0-1.736.658-1.82 1.54h-1.33c.084-1.568 1.484-2.73 3.29-2.73 1.75 0 3.178 1.162 3.178 2.59 0 1.26-.728 2.1-1.694 2.408.966.238 1.764 1.022 1.764 2.352 0 1.568-1.4 2.73-3.318 2.73Zm7.798 0c-1.75 0-3.01-1.33-3.01-3.64s1.4-3.64 3.15-3.64c.98 0 1.82.49 2.17 1.12v-3.78h1.33v9.8h-1.33v-.98c-.35.63-1.33 1.12-2.31 1.12Zm.224-1.12h.112c.994 0 1.974-.84 1.974-2.52 0-1.68-.98-2.52-1.974-2.52h-.112c-1.064 0-1.904.84-1.904 2.52 0 1.68.84 2.52 1.904 2.52Zm9.152 1.12c-.98 0-1.96-.49-2.31-1.12v.98h-1.33v-9.8h1.33v3.78c.35-.63 1.19-1.12 2.17-1.12 1.75 0 3.15 1.33 3.15 3.64s-1.26 3.64-3.01 3.64Zm-.336-1.12h.112c1.064 0 1.904-.84 1.904-2.52 0-1.68-.84-2.52-1.904-2.52h-.112c-.994 0-1.974.84-1.974 2.52 0 1.68.98 2.52 1.974 2.52Zm8.619 1.12c-2.422 0-3.85-1.75-3.85-5.04s1.428-5.04 3.85-5.04 3.85 1.75 3.85 5.04-1.428 5.04-3.85 5.04Zm-.07-1.19h.14c1.05 0 2.408-.826 2.408-3.85s-1.358-3.85-2.408-3.85h-.14c-1.05 0-2.408.826-2.408 3.85s1.358 3.85 2.408 3.85Zm9.34 1.19c-2.422 0-3.85-1.75-3.85-5.04s1.428-5.04 3.85-5.04 3.85 1.75 3.85 5.04-1.428 5.04-3.85 5.04Zm-.07-1.19h.14c1.05 0 2.408-.826 2.408-3.85s-1.358-3.85-2.408-3.85h-.14c-1.05 0-2.408.826-2.408 3.85s1.358 3.85 2.408 3.85Zm5.042-7.49v-1.26h6.79v1.33c-2.492 1.512-3.696 4.032-3.696 8.19v.28h-1.372v-.406c0-4.004 1.414-6.734 3.64-8.134h-5.362Zm11.494-1.4c2.17 0 3.626 1.708 3.626 4.718 0 3.15-1.904 5.362-4.144 5.362-1.68 0-2.842-.924-3.122-2.52h1.372c.21.784.784 1.316 1.652 1.316h.168c1.54 0 2.688-1.568 2.856-3.906-.49 1.008-1.54 1.61-2.674 1.61-1.75 0-3.164-1.26-3.164-3.22 0-2.016 1.47-3.36 3.43-3.36Zm-.098 5.39h.14c1.05 0 2.016-.896 2.016-2.086 0-1.176-.966-2.1-2.016-2.1h-.14c-1.05 0-1.96.84-1.96 2.086 0 1.26.91 2.1 1.96 2.1Zm4.818-3.99v-1.26h6.79v1.33c-2.492 1.512-3.696 4.032-3.696 8.19v.28h-1.372v-.406c0-4.004 1.414-6.734 3.64-8.134h-5.362Zm12.097 4.858-2.618 2.422h5.054V257h-6.622v-1.484l3.164-3.01c.868-.826 1.946-1.554 1.946-2.758 0-.924-.728-1.498-1.652-1.498h-.14c-1.078 0-1.82.798-1.82 1.876h-1.4c.014-1.876 1.414-3.066 3.29-3.066 1.68 0 3.094.938 3.094 2.618 0 1.554-1.162 2.576-2.296 3.64Zm6.807 3.822c-1.75 0-3.01-1.33-3.01-3.64s1.4-3.64 3.15-3.64c.98 0 1.82.49 2.17 1.12v-3.78h1.33v9.8h-1.33v-.98c-.35.63-1.33 1.12-2.31 1.12Zm.224-1.12h.112c.994 0 1.974-.84 1.974-2.52 0-1.68-.98-2.52-1.974-2.52h-.112c-1.064 0-1.904.84-1.904 2.52 0 1.68.84 2.52 1.904 2.52Zm9.11-5.46c1.75 0 3.164 1.26 3.164 3.22 0 2.016-1.47 3.36-3.43 3.36-2.17 0-3.626-1.708-3.626-4.718 0-3.15 1.904-5.362 4.144-5.362 1.68 0 2.842.924 3.122 2.52h-1.372c-.21-.784-.784-1.316-1.652-1.316h-.168c-1.54 0-2.688 1.568-2.856 3.906.49-1.008 1.54-1.61 2.674-1.61Zm-.308 5.376h.14c1.05 0 1.96-.84 1.96-2.086 0-1.26-.91-2.1-1.96-2.1h-.14c-1.05 0-2.016.896-2.016 2.086 0 1.176.966 2.1 2.016 2.1Zm7.982 1.204c-1.75 0-3.01-1.33-3.01-3.64s1.4-3.64 3.15-3.64c.98 0 1.82.49 2.17 1.12v-3.78h1.33v9.8h-1.33v-.98c-.35.63-1.33 1.12-2.31 1.12Zm.224-1.12h.112c.994 0 1.974-.84 1.974-2.52 0-1.68-.98-2.52-1.974-2.52h-.112c-1.064 0-1.904.84-1.904 2.52 0 1.68.84 2.52 1.904 2.52Zm8.746-8.96c2.17 0 3.626 1.708 3.626 4.718 0 3.15-1.904 5.362-4.144 5.362-1.68 0-2.842-.924-3.122-2.52h1.372c.21.784.784 1.316 1.652 1.316h.168c1.54 0 2.688-1.568 2.856-3.906-.49 1.008-1.54 1.61-2.674 1.61-1.75 0-3.164-1.26-3.164-3.22 0-2.016 1.47-3.36 3.43-3.36Zm-.098 5.39h.14c1.05 0 2.016-.896 2.016-2.086 0-1.176-.966-2.1-2.016-2.1h-.14c-1.05 0-1.96.84-1.96 2.086 0 1.26.91 2.1 1.96 2.1Zm7.674 4.55h-1.33v-5.852h-1.54V250h1.54v-1.33c0-.98.49-1.47 1.47-1.47h1.96v1.162h-1.54c-.42 0-.56.14-.56.56V250h1.75v1.148h-1.75V257Zm5.575.14c-1.75 0-3.01-1.33-3.01-3.64s1.4-3.64 3.15-3.64c.98 0 1.82.49 2.17 1.12v-3.78h1.33v9.8h-1.33v-.98c-.35.63-1.33 1.12-2.31 1.12Zm.224-1.12h.112c.994 0 1.974-.84 1.974-2.52 0-1.68-.98-2.52-1.974-2.52h-.112c-1.064 0-1.904.84-1.904 2.52 0 1.68.84 2.52 1.904 2.52Zm8.424 1.12c-1.792 0-3.318-.938-3.458-2.73h1.372c.126 1.008.994 1.54 2.016 1.54h.14c1.176 0 1.988-.868 1.988-2.03 0-1.078-.84-1.862-1.918-1.862h-.14c-.63 0-1.358.322-1.75.952h-1.358l1.19-5.81h5.25v1.26h-4.228l-.686 3.178c.532-.518 1.26-.77 1.96-.77 1.82 0 3.052 1.302 3.052 2.982 0 1.932-1.498 3.29-3.43 3.29ZM469.934 413.14c-1.736 0-3.304-1.204-3.304-3.654 0-2.422 1.61-3.626 3.262-3.626 1.82 0 2.968 1.26 2.968 3.08v.77h-4.9c.084 1.596 1.106 2.31 1.96 2.31h.112c.686 0 1.344-.35 1.484-1.092h1.33c-.252 1.414-1.47 2.212-2.912 2.212Zm-1.89-4.48h3.486c-.056-1.218-.784-1.68-1.582-1.68h-.112c-.728 0-1.54.434-1.792 1.68Zm9.479 4.48c-2.156 0-3.36-1.582-3.36-3.64s1.204-3.64 3.36-3.64c1.596 0 2.73.938 2.87 2.45h-1.33c-.126-.77-.686-1.33-1.484-1.33h-.112c-1.344 0-1.974 1.19-1.974 2.52s.63 2.52 1.974 2.52h.112c.798 0 1.358-.56 1.484-1.33h1.33c-.14 1.512-1.274 2.45-2.87 2.45Zm3.797-8.68v-1.26h6.79v1.33c-2.492 1.512-3.696 4.032-3.696 8.19v.28h-1.372v-.406c0-4.004 1.414-6.734 3.64-8.134h-5.362Zm10.736 8.68c-2.156 0-3.36-1.582-3.36-3.64s1.204-3.64 3.36-3.64c1.596 0 2.73.938 2.87 2.45h-1.33c-.126-.77-.686-1.33-1.484-1.33H492c-1.344 0-1.974 1.19-1.974 2.52s.63 2.52 1.974 2.52h.112c.798 0 1.358-.56 1.484-1.33h1.33c-.14 1.512-1.274 2.45-2.87 2.45Zm7.452 0c-2.156 0-3.36-1.582-3.36-3.64s1.204-3.64 3.36-3.64c1.596 0 2.73.938 2.87 2.45h-1.33c-.126-.77-.686-1.33-1.484-1.33h-.112c-1.344 0-1.974 1.19-1.974 2.52s.63 2.52 1.974 2.52h.112c.798 0 1.358-.56 1.484-1.33h1.33c-.14 1.512-1.274 2.45-2.87 2.45Zm3.797-8.68v-1.26h6.79v1.33c-2.492 1.512-3.696 4.032-3.696 8.19v.28h-1.372v-.406c0-4.004 1.414-6.734 3.64-8.134h-5.362Zm10.403 8.54h-1.33v-5.852h-1.54V406h1.54v-1.33c0-.98.49-1.47 1.47-1.47h1.96v1.162h-1.54c-.42 0-.56.14-.56.56V406h1.75v1.148h-1.75V413Zm6.131.14c-1.904 0-3.22-1.05-3.402-2.702h1.358c.196.966.938 1.512 1.974 1.512h.126c1.036 0 1.89-.63 1.89-1.61 0-1.022-.756-1.652-1.778-1.652h-.84v-1.176h.84c1.022 0 1.708-.756 1.708-1.652 0-1.008-.784-1.61-1.82-1.61h-.126c-.938 0-1.736.658-1.82 1.54h-1.33c.084-1.568 1.484-2.73 3.29-2.73 1.75 0 3.178 1.162 3.178 2.59 0 1.26-.728 2.1-1.694 2.408.966.238 1.764 1.022 1.764 2.352 0 1.568-1.4 2.73-3.318 2.73Zm8.189 0c-1.904 0-3.22-1.05-3.402-2.702h1.358c.196.966.938 1.512 1.974 1.512h.126c1.036 0 1.89-.63 1.89-1.61 0-1.022-.756-1.652-1.778-1.652h-.84v-1.176h.84c1.022 0 1.708-.756 1.708-1.652 0-1.008-.784-1.61-1.82-1.61h-.126c-.938 0-1.736.658-1.82 1.54h-1.33c.084-1.568 1.484-2.73 3.29-2.73 1.75 0 3.178 1.162 3.178 2.59 0 1.26-.728 2.1-1.694 2.408.966.238 1.764 1.022 1.764 2.352 0 1.568-1.4 2.73-3.318 2.73Zm10.71-.14h-1.344v-2.226h-4.816v-1.344l4.83-6.23h1.33v6.384h1.54v1.19h-1.54V413Zm-1.344-7.924-3.5 4.508h3.5v-4.508Zm7.298 8.064c-1.792 0-3.318-.938-3.458-2.73h1.372c.126 1.008.994 1.54 2.016 1.54h.14c1.176 0 1.988-.868 1.988-2.03 0-1.078-.84-1.862-1.918-1.862h-.14c-.63 0-1.358.322-1.75.952h-1.358l1.19-5.81h5.25v1.26h-4.228l-.686 3.178c.532-.518 1.26-.77 1.96-.77 1.82 0 3.052 1.302 3.052 2.982 0 1.932-1.498 3.29-3.43 3.29Zm8.821-6.58c1.75 0 3.164 1.26 3.164 3.22 0 2.016-1.47 3.36-3.43 3.36-2.17 0-3.626-1.708-3.626-4.718 0-3.15 1.904-5.362 4.144-5.362 1.68 0 2.842.924 3.122 2.52h-1.372c-.21-.784-.784-1.316-1.652-1.316h-.168c-1.54 0-2.688 1.568-2.856 3.906.49-1.008 1.54-1.61 2.674-1.61Zm-.308 5.376h.14c1.05 0 1.96-.84 1.96-2.086 0-1.26-.91-2.1-1.96-2.1h-.14c-1.05 0-2.016.896-2.016 2.086 0 1.176.966 2.1 2.016 2.1Zm8.36 1.204c-1.806 0-3.066-1.064-3.066-2.59 0-1.12.7-1.96 1.652-2.31-.994-.252-1.848-1.218-1.848-2.408 0-1.638 1.33-2.772 3.262-2.772s3.262 1.134 3.262 2.772c0 1.19-.854 2.156-1.848 2.408.952.35 1.652 1.19 1.652 2.31 0 1.526-1.26 2.59-3.066 2.59Zm-.07-5.544h.14c1.05 0 1.82-.7 1.82-1.694 0-.98-.77-1.652-1.82-1.652h-.14c-1.05 0-1.82.672-1.82 1.652 0 .994.77 1.694 1.82 1.694Zm0 4.354h.14c.98 0 1.638-.63 1.638-1.54 0-.924-.658-1.624-1.638-1.624h-.14c-.98 0-1.638.7-1.638 1.624 0 .91.658 1.54 1.638 1.54Zm4.441-7.49v-1.26h6.79v1.33c-2.492 1.512-3.696 4.032-3.696 8.19v.28h-1.372v-.406c0-4.004 1.414-6.734 3.64-8.134h-5.362Zm11.494-1.4c2.17 0 3.626 1.708 3.626 4.718 0 3.15-1.904 5.362-4.144 5.362-1.68 0-2.842-.924-3.122-2.52h1.372c.21.784.784 1.316 1.652 1.316h.168c1.54 0 2.688-1.568 2.856-3.906-.49 1.008-1.54 1.61-2.674 1.61-1.75 0-3.164-1.26-3.164-3.22 0-2.016 1.47-3.36 3.43-3.36Zm-.098 5.39h.14c1.05 0 2.016-.896 2.016-2.086 0-1.176-.966-2.1-2.016-2.1h-.14c-1.05 0-1.96.84-1.96 2.086 0 1.26.91 2.1 1.96 2.1Zm8.528 4.69c-1.904 0-3.22-1.05-3.402-2.702h1.358c.196.966.938 1.512 1.974 1.512h.126c1.036 0 1.89-.63 1.89-1.61 0-1.022-.756-1.652-1.778-1.652h-.84v-1.176h.84c1.022 0 1.708-.756 1.708-1.652 0-1.008-.784-1.61-1.82-1.61h-.126c-.938 0-1.736.658-1.82 1.54h-1.33c.084-1.568 1.484-2.73 3.29-2.73 1.75 0 3.178 1.162 3.178 2.59 0 1.26-.728 2.1-1.694 2.408.966.238 1.764 1.022 1.764 2.352 0 1.568-1.4 2.73-3.318 2.73Zm7.336-.14h-1.33v-5.852h-1.54V406h1.54v-1.33c0-.98.49-1.47 1.47-1.47h1.96v1.162h-1.54c-.42 0-.56.14-.56.56V406h1.75v1.148h-1.75V413Zm6.131.14c-1.904 0-3.22-1.05-3.402-2.702h1.358c.196.966.938 1.512 1.974 1.512h.126c1.036 0 1.89-.63 1.89-1.61 0-1.022-.756-1.652-1.778-1.652h-.84v-1.176h.84c1.022 0 1.708-.756 1.708-1.652 0-1.008-.784-1.61-1.82-1.61h-.126c-.938 0-1.736.658-1.82 1.54h-1.33c.084-1.568 1.484-2.73 3.29-2.73 1.75 0 3.178 1.162 3.178 2.59 0 1.26-.728 2.1-1.694 2.408.966.238 1.764 1.022 1.764 2.352 0 1.568-1.4 2.73-3.318 2.73Zm8.078 0c-1.736 0-3.304-1.204-3.304-3.654 0-2.422 1.61-3.626 3.262-3.626 1.82 0 2.968 1.26 2.968 3.08v.77h-4.9c.084 1.596 1.106 2.31 1.96 2.31h.112c.686 0 1.344-.35 1.484-1.092h1.33c-.252 1.414-1.47 2.212-2.912 2.212Zm-1.89-4.48h3.486c-.056-1.218-.784-1.68-1.582-1.68h-.112c-.728 0-1.54.434-1.792 1.68Zm9.451 4.48c-1.792 0-3.318-.938-3.458-2.73h1.372c.126 1.008.994 1.54 2.016 1.54h.14c1.176 0 1.988-.868 1.988-2.03 0-1.078-.84-1.862-1.918-1.862h-.14c-.63 0-1.358.322-1.75.952h-1.358l1.19-5.81h5.25v1.26h-4.228l-.686 3.178c.532-.518 1.26-.77 1.96-.77 1.82 0 3.052 1.302 3.052 2.982 0 1.932-1.498 3.29-3.43 3.29Zm7.113 0c-1.33 0-2.31-.882-2.31-2.072 0-1.596 1.414-2.072 2.548-2.17l1.932-.154v-.224c0-.98-.56-1.54-1.456-1.54h-.112c-.728 0-1.358.35-1.442 1.05h-1.33c.084-1.288 1.246-2.17 2.828-2.17 1.862 0 2.842 1.232 2.842 2.66v2.94c0 .42 0 1.05.07 1.54h-1.26c-.07-.35-.07-1.05-.07-1.12-.28.63-1.12 1.26-2.24 1.26Zm.154-1.12h.112c.854 0 1.904-.7 1.904-1.54v-.714l-1.75.14c-.812.07-1.4.462-1.4 1.106 0 .574.476 1.008 1.134 1.008Zm7.984 1.12c-1.75 0-3.01-1.33-3.01-3.64s1.4-3.64 3.15-3.64c.98 0 1.82.49 2.17 1.12v-3.78h1.33v9.8h-1.33v-.98c-.35.63-1.33 1.12-2.31 1.12Zm.224-1.12h.112c.994 0 1.974-.84 1.974-2.52 0-1.68-.98-2.52-1.974-2.52h-.112c-1.064 0-1.904.84-1.904 2.52 0 1.68.84 2.52 1.904 2.52Zm8.395 1.12c-1.736 0-3.304-1.204-3.304-3.654 0-2.422 1.61-3.626 3.262-3.626 1.82 0 2.968 1.26 2.968 3.08v.77h-4.9c.084 1.596 1.106 2.31 1.96 2.31h.112c.686 0 1.344-.35 1.484-1.092h1.33c-.252 1.414-1.47 2.212-2.912 2.212Zm-1.89-4.48h3.486c-.056-1.218-.784-1.68-1.582-1.68h-.112c-.728 0-1.54.434-1.792 1.68Zm9.522 4.48c-1.806 0-3.066-1.064-3.066-2.59 0-1.12.7-1.96 1.652-2.31-.994-.252-1.848-1.218-1.848-2.408 0-1.638 1.33-2.772 3.262-2.772s3.262 1.134 3.262 2.772c0 1.19-.854 2.156-1.848 2.408.952.35 1.652 1.19 1.652 2.31 0 1.526-1.26 2.59-3.066 2.59Zm-.07-5.544h.14c1.05 0 1.82-.7 1.82-1.694 0-.98-.77-1.652-1.82-1.652h-.14c-1.05 0-1.82.672-1.82 1.652 0 .994.77 1.694 1.82 1.694Zm0 4.354h.14c.98 0 1.638-.63 1.638-1.54 0-.924-.658-1.624-1.638-1.624h-.14c-.98 0-1.638.7-1.638 1.624 0 .91.658 1.54 1.638 1.54Zm8.794 1.19c-.98 0-1.96-.49-2.31-1.12v.98h-1.33v-9.8h1.33v3.78c.35-.63 1.19-1.12 2.17-1.12 1.75 0 3.15 1.33 3.15 3.64s-1.26 3.64-3.01 3.64Zm-.336-1.12h.112c1.064 0 1.904-.84 1.904-2.52 0-1.68-.84-2.52-1.904-2.52h-.112c-.994 0-1.974.84-1.974 2.52 0 1.68.98 2.52 1.974 2.52Zm7.948 1.12c-1.792 0-3.318-.938-3.458-2.73h1.372c.126 1.008.994 1.54 2.016 1.54h.14c1.176 0 1.988-.868 1.988-2.03 0-1.078-.84-1.862-1.918-1.862h-.14c-.63 0-1.358.322-1.75.952h-1.358l1.19-5.81h5.25v1.26h-4.228l-.686 3.178c.532-.518 1.26-.77 1.96-.77 1.82 0 3.052 1.302 3.052 2.982 0 1.932-1.498 3.29-3.43 3.29Zm8.807 0c-2.422 0-3.85-1.75-3.85-5.04s1.428-5.04 3.85-5.04 3.85 1.75 3.85 5.04-1.428 5.04-3.85 5.04Zm-.07-1.19h.14c1.05 0 2.408-.826 2.408-3.85s-1.358-3.85-2.408-3.85h-.14c-1.05 0-2.408.826-2.408 3.85s1.358 3.85 2.408 3.85Zm5.167-6.3 2.52-2.45h1.05v9.8h-1.344v-7.826l-2.226 2.156v-1.68Zm7.796 7.49c-1.33 0-2.31-.882-2.31-2.072 0-1.596 1.414-2.072 2.548-2.17l1.932-.154v-.224c0-.98-.56-1.54-1.456-1.54h-.112c-.728 0-1.358.35-1.442 1.05h-1.33c.084-1.288 1.246-2.17 2.828-2.17 1.862 0 2.842 1.232 2.842 2.66v2.94c0 .42 0 1.05.07 1.54h-1.26c-.07-.35-.07-1.05-.07-1.12-.28.63-1.12 1.26-2.24 1.26Zm.154-1.12h.112c.854 0 1.904-.7 1.904-1.54v-.714l-1.75.14c-.812.07-1.4.462-1.4 1.106 0 .574.476 1.008 1.134 1.008Zm8.292 1.12c-1.792 0-3.318-.938-3.458-2.73h1.372c.126 1.008.994 1.54 2.016 1.54h.14c1.176 0 1.988-.868 1.988-2.03 0-1.078-.84-1.862-1.918-1.862h-.14c-.63 0-1.358.322-1.75.952h-1.358l1.19-5.81h5.25v1.26h-4.228l-.686 3.178c.532-.518 1.26-.77 1.96-.77 1.82 0 3.052 1.302 3.052 2.982 0 1.932-1.498 3.29-3.43 3.29Zm7.113 0c-1.33 0-2.31-.882-2.31-2.072 0-1.596 1.414-2.072 2.548-2.17l1.932-.154v-.224c0-.98-.56-1.54-1.456-1.54h-.112c-.728 0-1.358.35-1.442 1.05h-1.33c.084-1.288 1.246-2.17 2.828-2.17 1.862 0 2.842 1.232 2.842 2.66v2.94c0 .42 0 1.05.07 1.54h-1.26c-.07-.35-.07-1.05-.07-1.12-.28.63-1.12 1.26-2.24 1.26Zm.154-1.12h.112c.854 0 1.904-.7 1.904-1.54v-.714l-1.75.14c-.812.07-1.4.462-1.4 1.106 0 .574.476 1.008 1.134 1.008Zm7.27 1.12c-1.33 0-2.31-.882-2.31-2.072 0-1.596 1.414-2.072 2.548-2.17l1.932-.154v-.224c0-.98-.56-1.54-1.456-1.54h-.112c-.728 0-1.358.35-1.442 1.05h-1.33c.084-1.288 1.246-2.17 2.828-2.17 1.862 0 2.842 1.232 2.842 2.66v2.94c0 .42 0 1.05.07 1.54h-1.26c-.07-.35-.07-1.05-.07-1.12-.28.63-1.12 1.26-2.24 1.26Zm.154-1.12h.112c.854 0 1.904-.7 1.904-1.54v-.714l-1.75.14c-.812.07-1.4.462-1.4 1.106 0 .574.476 1.008 1.134 1.008Zm9.02 1.12c-.98 0-1.96-.49-2.31-1.12v.98h-1.33v-9.8h1.33v3.78c.35-.63 1.19-1.12 2.17-1.12 1.75 0 3.15 1.33 3.15 3.64s-1.26 3.64-3.01 3.64Zm-.336-1.12h.112c1.064 0 1.904-.84 1.904-2.52 0-1.68-.84-2.52-1.904-2.52h-.112c-.994 0-1.974.84-1.974 2.52 0 1.68.98 2.52 1.974 2.52Zm8.62 1.12c-2.422 0-3.85-1.75-3.85-5.04s1.428-5.04 3.85-5.04 3.85 1.75 3.85 5.04-1.428 5.04-3.85 5.04Zm-.07-1.19h.14c1.05 0 2.408-.826 2.408-3.85s-1.358-3.85-2.408-3.85h-.14c-1.05 0-2.408.826-2.408 3.85s1.358 3.85 2.408 3.85Zm7.645 1.19c-1.33 0-2.31-.882-2.31-2.072 0-1.596 1.414-2.072 2.548-2.17l1.932-.154v-.224c0-.98-.56-1.54-1.456-1.54h-.112c-.728 0-1.358.35-1.442 1.05h-1.33c.084-1.288 1.246-2.17 2.828-2.17 1.862 0 2.842 1.232 2.842 2.66v2.94c0 .42 0 1.05.07 1.54h-1.26c-.07-.35-.07-1.05-.07-1.12-.28.63-1.12 1.26-2.24 1.26Zm.154-1.12h.112c.854 0 1.904-.7 1.904-1.54v-.714l-1.75.14c-.812.07-1.4.462-1.4 1.106 0 .574.476 1.008 1.134 1.008Zm4.392-7.56v-1.26h6.79v1.33c-2.492 1.512-3.696 4.032-3.696 8.19v.28h-1.372v-.406c0-4.004 1.414-6.734 3.64-8.134h-5.362Zm12.097 4.858-2.618 2.422h5.054V413h-6.622v-1.484l3.164-3.01c.868-.826 1.946-1.554 1.946-2.758 0-.924-.728-1.498-1.652-1.498h-.14c-1.078 0-1.82.798-1.82 1.876h-1.4c.014-1.876 1.414-3.066 3.29-3.066 1.68 0 3.094.938 3.094 2.618 0 1.554-1.162 2.576-2.296 3.64Zm7.087 3.822c-1.736 0-3.304-1.204-3.304-3.654 0-2.422 1.61-3.626 3.262-3.626 1.82 0 2.968 1.26 2.968 3.08v.77h-4.9c.084 1.596 1.106 2.31 1.96 2.31h.112c.686 0 1.344-.35 1.484-1.092h1.33c-.252 1.414-1.47 2.212-2.912 2.212Zm-1.89-4.48h3.486c-.056-1.218-.784-1.68-1.582-1.68h-.112c-.728 0-1.54.434-1.792 1.68Zm9.522 4.48c-1.806 0-3.066-1.064-3.066-2.59 0-1.12.7-1.96 1.652-2.31-.994-.252-1.848-1.218-1.848-2.408 0-1.638 1.33-2.772 3.262-2.772s3.262 1.134 3.262 2.772c0 1.19-.854 2.156-1.848 2.408.952.35 1.652 1.19 1.652 2.31 0 1.526-1.26 2.59-3.066 2.59Zm-.07-5.544h.14c1.05 0 1.82-.7 1.82-1.694 0-.98-.77-1.652-1.82-1.652h-.14c-1.05 0-1.82.672-1.82 1.652 0 .994.77 1.694 1.82 1.694Zm0 4.354h.14c.98 0 1.638-.63 1.638-1.54 0-.924-.658-1.624-1.638-1.624h-.14c-.98 0-1.638.7-1.638 1.624 0 .91.658 1.54 1.638 1.54Zm8.794 1.19c-.98 0-1.96-.49-2.31-1.12v.98h-1.33v-9.8h1.33v3.78c.35-.63 1.19-1.12 2.17-1.12 1.75 0 3.15 1.33 3.15 3.64s-1.26 3.64-3.01 3.64Zm-.336-1.12h.112c1.064 0 1.904-.84 1.904-2.52 0-1.68-.84-2.52-1.904-2.52h-.112c-.994 0-1.974.84-1.974 2.52 0 1.68.98 2.52 1.974 2.52Zm7.976 1.12c-2.156 0-3.36-1.582-3.36-3.64s1.204-3.64 3.36-3.64c1.596 0 2.73.938 2.87 2.45h-1.33c-.126-.77-.686-1.33-1.484-1.33h-.112c-1.344 0-1.974 1.19-1.974 2.52s.63 2.52 1.974 2.52h.112c.798 0 1.358-.56 1.484-1.33h1.33c-.14 1.512-1.274 2.45-2.87 2.45Zm8.347-3.822-2.618 2.422h5.054V413h-6.622v-1.484l3.164-3.01c.868-.826 1.946-1.554 1.946-2.758 0-.924-.728-1.498-1.652-1.498h-.14c-1.078 0-1.82.798-1.82 1.876h-1.4c.014-1.876 1.414-3.066 3.29-3.066 1.68 0 3.094.938 3.094 2.618 0 1.554-1.162 2.576-2.296 3.64Zm7.087 3.822c-1.736 0-3.304-1.204-3.304-3.654 0-2.422 1.61-3.626 3.262-3.626 1.82 0 2.968 1.26 2.968 3.08v.77h-4.9c.084 1.596 1.106 2.31 1.96 2.31h.112c.686 0 1.344-.35 1.484-1.092h1.33c-.252 1.414-1.47 2.212-2.912 2.212Zm-1.89-4.48h3.486c-.056-1.218-.784-1.68-1.582-1.68h-.112c-.728 0-1.54.434-1.792 1.68Zm9.479 4.48c-2.156 0-3.36-1.582-3.36-3.64s1.204-3.64 3.36-3.64c1.596 0 2.73.938 2.87 2.45h-1.33c-.126-.77-.686-1.33-1.484-1.33h-.112c-1.344 0-1.974 1.19-1.974 2.52s.63 2.52 1.974 2.52h.112c.798 0 1.358-.56 1.484-1.33h1.33c-.14 1.512-1.274 2.45-2.87 2.45Zm8.347-3.822-2.618 2.422h5.054V413h-6.622v-1.484l3.164-3.01c.868-.826 1.946-1.554 1.946-2.758 0-.924-.728-1.498-1.652-1.498h-.14c-1.078 0-1.82.798-1.82 1.876h-1.4c.014-1.876 1.414-3.066 3.29-3.066 1.68 0 3.094.938 3.094 2.618 0 1.554-1.162 2.576-2.296 3.64Zm7.438-6.258c2.17 0 3.626 1.708 3.626 4.718 0 3.15-1.904 5.362-4.144 5.362-1.68 0-2.842-.924-3.122-2.52h1.372c.21.784.784 1.316 1.652 1.316h.168c1.54 0 2.688-1.568 2.856-3.906-.49 1.008-1.54 1.61-2.674 1.61-1.75 0-3.164-1.26-3.164-3.22 0-2.016 1.47-3.36 3.43-3.36Zm-.098 5.39h.14c1.05 0 2.016-.896 2.016-2.086 0-1.176-.966-2.1-2.016-2.1h-.14c-1.05 0-1.96.84-1.96 2.086 0 1.26.91 2.1 1.96 2.1Zm8.514 4.69c-1.806 0-3.066-1.064-3.066-2.59 0-1.12.7-1.96 1.652-2.31-.994-.252-1.848-1.218-1.848-2.408 0-1.638 1.33-2.772 3.262-2.772s3.262 1.134 3.262 2.772c0 1.19-.854 2.156-1.848 2.408.952.35 1.652 1.19 1.652 2.31 0 1.526-1.26 2.59-3.066 2.59Zm-.07-5.544h.14c1.05 0 1.82-.7 1.82-1.694 0-.98-.77-1.652-1.82-1.652h-.14c-1.05 0-1.82.672-1.82 1.652 0 .994.77 1.694 1.82 1.694Zm0 4.354h.14c.98 0 1.638-.63 1.638-1.54 0-.924-.658-1.624-1.638-1.624h-.14c-.98 0-1.638.7-1.638 1.624 0 .91.658 1.54 1.638 1.54Zm8.99-2.632-2.618 2.422h5.054V413h-6.622v-1.484l3.164-3.01c.868-.826 1.946-1.554 1.946-2.758 0-.924-.728-1.498-1.652-1.498h-.14c-1.078 0-1.82.798-1.82 1.876h-1.4c.014-1.876 1.414-3.066 3.29-3.066 1.68 0 3.094.938 3.094 2.618 0 1.554-1.162 2.576-2.296 3.64Zm7.787 3.822c-2.422 0-3.85-1.75-3.85-5.04s1.428-5.04 3.85-5.04 3.85 1.75 3.85 5.04-1.428 5.04-3.85 5.04Zm-.07-1.19h.14c1.05 0 2.408-.826 2.408-3.85s-1.358-3.85-2.408-3.85h-.14c-1.05 0-2.408.826-2.408 3.85s1.358 3.85 2.408 3.85Zm7.898 1.05h-1.33v-5.852h-1.54V406h1.54v-1.33c0-.98.49-1.47 1.47-1.47h1.96v1.162h-1.54c-.42 0-.56.14-.56.56V406h1.75v1.148h-1.75V413Zm6.047.14c-1.792 0-3.318-.938-3.458-2.73h1.372c.126 1.008.994 1.54 2.016 1.54h.14c1.176 0 1.988-.868 1.988-2.03 0-1.078-.84-1.862-1.918-1.862h-.14c-.63 0-1.358.322-1.75.952h-1.358l1.19-5.81h5.25v1.26h-4.228l-.686 3.178c.532-.518 1.26-.77 1.96-.77 1.82 0 3.052 1.302 3.052 2.982 0 1.932-1.498 3.29-3.43 3.29Zm4.509-8.68v-1.26h6.79v1.33c-2.492 1.512-3.696 4.032-3.696 8.19v.28h-1.372v-.406c0-4.004 1.414-6.734 3.64-8.134h-5.362Zm11.844 8.68c-2.422 0-3.85-1.75-3.85-5.04s1.428-5.04 3.85-5.04 3.85 1.75 3.85 5.04-1.428 5.04-3.85 5.04Zm-.07-1.19h.14c1.05 0 2.408-.826 2.408-3.85s-1.358-3.85-2.408-3.85h-.14c-1.05 0-2.408.826-2.408 3.85s1.358 3.85 2.408 3.85Zm9.34 1.19c-2.422 0-3.85-1.75-3.85-5.04s1.428-5.04 3.85-5.04 3.85 1.75 3.85 5.04-1.428 5.04-3.85 5.04Zm-.07-1.19h.14c1.05 0 2.408-.826 2.408-3.85s-1.358-3.85-2.408-3.85h-.14c-1.05 0-2.408.826-2.408 3.85s1.358 3.85 2.408 3.85Zm8.668 1.19c-1.792 0-3.318-.938-3.458-2.73h1.372c.126 1.008.994 1.54 2.016 1.54h.14c1.176 0 1.988-.868 1.988-2.03 0-1.078-.84-1.862-1.918-1.862h-.14c-.63 0-1.358.322-1.75.952h-1.358l1.19-5.81h5.25v1.26h-4.228l-.686 3.178c.532-.518 1.26-.77 1.96-.77 1.82 0 3.052 1.302 3.052 2.982 0 1.932-1.498 3.29-3.43 3.29Zm8.162 0c-2.156 0-3.36-1.582-3.36-3.64s1.204-3.64 3.36-3.64c1.596 0 2.73.938 2.87 2.45h-1.33c-.126-.77-.686-1.33-1.484-1.33h-.112c-1.344 0-1.974 1.19-1.974 2.52s.63 2.52 1.974 2.52h.112c.798 0 1.358-.56 1.484-1.33h1.33c-.14 1.512-1.274 2.45-2.87 2.45Zm7.423 0c-1.792 0-3.318-.938-3.458-2.73h1.372c.126 1.008.994 1.54 2.016 1.54h.14c1.176 0 1.988-.868 1.988-2.03 0-1.078-.84-1.862-1.918-1.862h-.14c-.63 0-1.358.322-1.75.952h-1.358l1.19-5.81h5.25v1.26h-4.228l-.686 3.178c.532-.518 1.26-.77 1.96-.77 1.82 0 3.052 1.302 3.052 2.982 0 1.932-1.498 3.29-3.43 3.29Zm8.457-10.08c2.17 0 3.626 1.708 3.626 4.718 0 3.15-1.904 5.362-4.144 5.362-1.68 0-2.842-.924-3.122-2.52h1.372c.21.784.784 1.316 1.652 1.316h.168c1.54 0 2.688-1.568 2.856-3.906-.49 1.008-1.54 1.61-2.674 1.61-1.75 0-3.164-1.26-3.164-3.22 0-2.016 1.47-3.36 3.43-3.36Zm-.098 5.39h.14c1.05 0 2.016-.896 2.016-2.086 0-1.176-.966-2.1-2.016-2.1h-.14c-1.05 0-1.96.84-1.96 2.086 0 1.26.91 2.1 1.96 2.1Zm11.048 4.55h-1.344v-2.226h-4.816v-1.344l4.83-6.23h1.33v6.384h1.54v1.19h-1.54V413Zm-1.344-7.924-3.5 4.508h3.5v-4.508Zm7.621-2.016c2.17 0 3.626 1.708 3.626 4.718 0 3.15-1.904 5.362-4.144 5.362-1.68 0-2.842-.924-3.122-2.52h1.372c.21.784.784 1.316 1.652 1.316h.168c1.54 0 2.688-1.568 2.856-3.906-.49 1.008-1.54 1.61-2.674 1.61-1.75 0-3.164-1.26-3.164-3.22 0-2.016 1.47-3.36 3.43-3.36Zm-.098 5.39h.14c1.05 0 2.016-.896 2.016-2.086 0-1.176-.966-2.1-2.016-2.1h-.14c-1.05 0-1.96.84-1.96 2.086 0 1.26.91 2.1 1.96 2.1Zm9.368.868-2.618 2.422h5.054V413h-6.622v-1.484l3.164-3.01c.868-.826 1.946-1.554 1.946-2.758 0-.924-.728-1.498-1.652-1.498h-.14c-1.078 0-1.82.798-1.82 1.876h-1.4c.014-1.876 1.414-3.066 3.29-3.066 1.68 0 3.094.938 3.094 2.618 0 1.554-1.162 2.576-2.296 3.64Zm8.039 0-2.618 2.422h5.054V413h-6.622v-1.484l3.164-3.01c.868-.826 1.946-1.554 1.946-2.758 0-.924-.728-1.498-1.652-1.498h-.14c-1.078 0-1.82.798-1.82 1.876h-1.4c.014-1.876 1.414-3.066 3.29-3.066 1.68 0 3.094.938 3.094 2.618 0 1.554-1.162 2.576-2.296 3.64Zm7.185 3.822c-1.806 0-3.066-1.064-3.066-2.59 0-1.12.7-1.96 1.652-2.31-.994-.252-1.848-1.218-1.848-2.408 0-1.638 1.33-2.772 3.262-2.772s3.262 1.134 3.262 2.772c0 1.19-.854 2.156-1.848 2.408.952.35 1.652 1.19 1.652 2.31 0 1.526-1.26 2.59-3.066 2.59Zm-.07-5.544h.14c1.05 0 1.82-.7 1.82-1.694 0-.98-.77-1.652-1.82-1.652h-.14c-1.05 0-1.82.672-1.82 1.652 0 .994.77 1.694 1.82 1.694Zm0 4.354h.14c.98 0 1.638-.63 1.638-1.54 0-.924-.658-1.624-1.638-1.624h-.14c-.98 0-1.638.7-1.638 1.624 0 .91.658 1.54 1.638 1.54Zm7.758 1.19c-1.75 0-3.01-1.33-3.01-3.64s1.4-3.64 3.15-3.64c.98 0 1.82.49 2.17 1.12v-3.78h1.33v9.8h-1.33v-.98c-.35.63-1.33 1.12-2.31 1.12Zm.224-1.12h.112c.994 0 1.974-.84 1.974-2.52 0-1.68-.98-2.52-1.974-2.52h-.112c-1.064 0-1.904.84-1.904 2.52 0 1.68.84 2.52 1.904 2.52Z"/><g clip-path="url(#a)"><path fill="#7F7F7F" d="M1001 246.5h-6c-.55 0-1 .45-1 1v7h1v-7h6v-1Zm1.5 2H997c-.55 0-1 .45-1 1v7c0 .55.45 1 1 1h5.5c.55 0 1-.45 1-1v-7c0-.55-.45-1-1-1Zm0 8H997v-7h5.5v7Z"/></g><g clip-path="url(#b)"><path fill="#7F7F7F" d="M987 402.5h-6c-.55 0-1 .45-1 1v7h1v-7h6v-1Zm1.5 2H983c-.55 0-1 .45-1 1v7c0 .55.45 1 1 1h5.5c.55 0 1-.45 1-1v-7c0-.55-.45-1-1-1Zm0 8H983v-7h5.5v7Z"/></g><rect width="108" height="108" x="322.5" y="167.5" fill="url(#c)" stroke="#0D0C22" rx="3.5"/><rect width="108" height="108" x="322.5" y="323.5" fill="url(#d)" stroke="#0D0C22" rx="3.5"/><rect width="108" height="108" x="317.5" y="162.5" fill="url(#e)" stroke="#0D0C22" rx="3.5"/><rect width="108" height="108" x="317.5" y="318.5" fill="url(#f)" stroke="#0D0C22" rx="3.5"/><path fill="#0D0C22" d="m395.302 215.848-1.502-2.601-5.094-8.819-1.096-1.896a1.06 1.06 0 0 0-.919-.532h-15.383c-.379 0-.732.203-.919.532l-1.226 2.122-5.382 9.321a.483.483 0 0 1-.532.218.467.467 0 0 1-.349-.456v-4.43c0-4.029-3.279-7.307-7.308-7.307h-6.252c-.586 0-1.061.475-1.061 1.061v6.246a7.165 7.165 0 0 0 4.421 6.636.471.471 0 0 1 .291.433v.004c0 .191-.115.36-.291.436a7.17 7.17 0 0 0-4.421 6.595v6.292c0 .586.475 1.061 1.061 1.061h6.248c4.029 0 7.308-3.279 7.308-7.307v-4.431a.474.474 0 0 1 .471-.471c.169 0 .326.092.41.237l5.731 9.919.877 1.52c.187.33.54.533.919.533h15.383c.379 0 .732-.203.919-.533l1.628-2.818 3.827-6.629.053-.096 1.759-3.044.421-.732a1.06 1.06 0 0 0 .008-1.064Zm-16.188 6.115c-2.999 0-5.443-2.504-5.443-5.583s2.44-5.584 5.443-5.584c2.999 0 5.443 2.505 5.443 5.584 0 3.079-2.444 5.583-5.443 5.583ZM395.302 371.848l-1.502-2.601-5.094-8.819-1.096-1.896a1.06 1.06 0 0 0-.919-.532h-15.383c-.379 0-.732.203-.919.532l-1.226 2.122-5.382 9.321a.483.483 0 0 1-.532.218.467.467 0 0 1-.349-.456v-4.43c0-4.029-3.279-7.307-7.308-7.307h-6.252c-.586 0-1.061.475-1.061 1.061v6.246a7.165 7.165 0 0 0 4.421 6.636.471.471 0 0 1 .291.433v.004c0 .191-.115.36-.291.436a7.17 7.17 0 0 0-4.421 6.595v6.292c0 .586.475 1.061 1.061 1.061h6.248c4.029 0 7.308-3.279 7.308-7.307v-4.431a.474.474 0 0 1 .471-.471c.169 0 .326.092.41.237l5.731 9.919.877 1.52c.187.33.54.533.919.533h15.383c.379 0 .732-.203.919-.533l1.628-2.818 3.827-6.629.053-.096 1.759-3.044.421-.732a1.06 1.06 0 0 0 .008-1.064Zm-16.188 6.115c-2.999 0-5.443-2.504-5.443-5.583s2.44-5.584 5.443-5.584c2.999 0 5.443 2.505 5.443 5.584 0 3.079-2.444 5.583-5.443 5.583Z"/><g filter="url(#g)"><rect width="113" height="38" x="1114" y="175" fill="#0D0C22" rx="19" shape-rendering="crispEdges"/><rect width="111.5" height="36.5" x="1114.75" y="175.75" stroke="#0D0C22" stroke-width="1.5" rx="18.25" shape-rendering="crispEdges"/><path stroke="#fff" stroke-width="1.5" d="M1146.11 188.697c1.55 1.345 5.4 3.29 8.38.31"/><path stroke="#fff" stroke-width="1.5" d="M1154.8 197.389c-1.34-1.552-3.29-5.402-.31-8.382M1144.2 199.303l10.6-10.606"/><path fill="#fff" d="M1168.13 198.16c2.48 0 4.14-1.216 4.14-3.184 0-1.824-1.12-2.848-3.06-3.232l-1.79-.352c-.94-.192-1.53-.704-1.53-1.568 0-.992.92-1.744 2.32-1.744h.16c1.36 0 2.38.8 2.46 2.08h1.6c-.08-2.16-1.66-3.52-4.14-3.52-2.42 0-4 1.44-4 3.2 0 1.776 1.04 2.784 2.83 3.152l1.79.368c1.18.24 1.76.768 1.76 1.68 0 .928-.82 1.68-2.32 1.68h-.16c-1.68 0-2.86-.8-2.86-2.32h-1.6c.08 2.48 1.76 3.76 4.4 3.76Zm9.53 0c1.65 0 3.04-.912 3.33-2.528h-1.52c-.16.848-.91 1.248-1.7 1.248h-.12c-.98 0-2.15-.816-2.24-2.64h5.6v-.88c0-2.08-1.32-3.52-3.4-3.52-1.88 0-3.72 1.376-3.72 4.144 0 2.8 1.79 4.176 3.77 4.176Zm-2.16-5.12c.29-1.424 1.22-1.92 2.05-1.92h.13c.91 0 1.74.528 1.81 1.92h-3.99Zm8.99 4.96v-4.48c0-1.52 1.04-2.4 2.18-2.4h.13c1.13 0 1.61.72 1.61 1.84V198h1.52v-5.36c0-1.68-1.04-2.8-2.88-2.8-1.28 0-2.08.56-2.56 1.28V190h-1.52v8h1.52Zm10.74.16c1.12 0 2.24-.56 2.64-1.28V198h1.52v-11.2h-1.52v4.32c-.4-.72-1.36-1.28-2.48-1.28-2 0-3.6 1.52-3.6 4.16s1.44 4.16 3.44 4.16Zm.26-1.28c-1.22 0-2.18-.96-2.18-2.88s.96-2.88 2.18-2.88h.13c1.13 0 2.25.96 2.25 2.88s-1.12 2.88-2.25 2.88h-.13Z"/></g><g filter="url(#h)"><rect width="113" height="38" x="1114" y="331" fill="#0D0C22" rx="19" shape-rendering="crispEdges"/><rect width="111.5" height="36.5" x="1114.75" y="331.75" stroke="#0D0C22" stroke-width="1.5" rx="18.25" shape-rendering="crispEdges"/><path stroke="#fff" stroke-width="1.5" d="M1146.11 344.697c1.55 1.345 5.4 3.29 8.38.31"/><path stroke="#fff" stroke-width="1.5" d="M1154.8 353.389c-1.34-1.552-3.29-5.402-.31-8.382M1144.2 355.303l10.6-10.606"/><path fill="#fff" d="M1168.13 354.16c2.48 0 4.14-1.216 4.14-3.184 0-1.824-1.12-2.848-3.06-3.232l-1.79-.352c-.94-.192-1.53-.704-1.53-1.568 0-.992.92-1.744 2.32-1.744h.16c1.36 0 2.38.8 2.46 2.08h1.6c-.08-2.16-1.66-3.52-4.14-3.52-2.42 0-4 1.44-4 3.2 0 1.776 1.04 2.784 2.83 3.152l1.79.368c1.18.24 1.76.768 1.76 1.68 0 .928-.82 1.68-2.32 1.68h-.16c-1.68 0-2.86-.8-2.86-2.32h-1.6c.08 2.48 1.76 3.76 4.4 3.76Zm9.53 0c1.65 0 3.04-.912 3.33-2.528h-1.52c-.16.848-.91 1.248-1.7 1.248h-.12c-.98 0-2.15-.816-2.24-2.64h5.6v-.88c0-2.08-1.32-3.52-3.4-3.52-1.88 0-3.72 1.376-3.72 4.144 0 2.8 1.79 4.176 3.77 4.176Zm-2.16-5.12c.29-1.424 1.22-1.92 2.05-1.92h.13c.91 0 1.74.528 1.81 1.92h-3.99Zm8.99 4.96v-4.48c0-1.52 1.04-2.4 2.18-2.4h.13c1.13 0 1.61.72 1.61 1.84V354h1.52v-5.36c0-1.68-1.04-2.8-2.88-2.8-1.28 0-2.08.56-2.56 1.28V346h-1.52v8h1.52Zm10.74.16c1.12 0 2.24-.56 2.64-1.28V354h1.52v-11.2h-1.52v4.32c-.4-.72-1.36-1.28-2.48-1.28-2 0-3.6 1.52-3.6 4.16s1.44 4.16 3.44 4.16Zm.26-1.28c-1.22 0-2.18-.96-2.18-2.88s.96-2.88 2.18-2.88h.13c1.13 0 2.25.96 2.25 2.88s-1.12 2.88-2.25 2.88h-.13Z"/></g><g filter="url(#i)"><rect width="113.299" height="38" x="1114" y="225" fill="#0D0C22" rx="19" shape-rendering="crispEdges"/><rect width="111.799" height="36.5" x="1114.75" y="225.75" stroke="#0D0C22" stroke-width="1.5" rx="18.25" shape-rendering="crispEdges"/><path stroke="#fff" stroke-width="1.5" d="M1143.04 249.303c-1.55-1.345-5.4-3.29-8.38-.31"/><path stroke="#fff" stroke-width="1.5" d="M1134.35 240.611c1.34 1.552 3.29 5.402.31 8.382M1144.95 238.697l-10.6 10.606"/><path fill="#fff" d="M1156.34 248v-4.48h3.84c.88 0 1.12.24 1.12 1.12V248h1.6v-3.76c0-1.12-.4-1.568-1.68-1.568 1.04-.32 1.84-1.392 1.84-2.832 0-1.76-1.44-3.04-3.52-3.04h-4.8V248h1.6Zm0-9.76h2.96c1.36 0 2.16.64 2.16 1.84 0 1.12-.8 2-2.16 2h-2.96v-3.84Zm12.25 9.92c1.65 0 3.04-.912 3.33-2.528h-1.52c-.16.848-.91 1.248-1.7 1.248h-.12c-.98 0-2.15-.816-2.24-2.64h5.6v-.88c0-2.08-1.32-3.52-3.4-3.52-1.88 0-3.72 1.376-3.72 4.144 0 2.8 1.79 4.176 3.77 4.176Zm-2.16-5.12c.29-1.424 1.22-1.92 2.05-1.92h.13c.91 0 1.74.528 1.81 1.92h-3.99Zm10.84 5.12c1.82 0 3.12-1.072 3.28-2.8h-1.52c-.15.88-.79 1.52-1.7 1.52h-.13c-1.53 0-2.25-1.36-2.25-2.88 0-1.52.72-2.88 2.25-2.88h.13c.91 0 1.55.64 1.7 1.52h1.52c-.16-1.728-1.46-2.8-3.28-2.8-2.47 0-3.84 1.808-3.84 4.16 0 2.352 1.37 4.16 3.84 4.16Zm8.45 0c1.64 0 3.04-.912 3.32-2.528h-1.52c-.16.848-.91 1.248-1.69 1.248h-.13c-.98 0-2.14-.816-2.24-2.64h5.6v-.88c0-2.08-1.31-3.52-3.39-3.52-1.89 0-3.73 1.376-3.73 4.144 0 2.8 1.79 4.176 3.78 4.176Zm-2.16-5.12c.28-1.424 1.21-1.92 2.04-1.92h.13c.91 0 1.75.528 1.81 1.92h-3.98Zm9.07-4.48v-1.76h-1.68v1.76h1.68Zm-.08 9.44v-8h-1.52v8h1.52Zm5.35-1.488-2.32-6.512h-1.57l2.96 8h1.84l2.96-8h-1.55l-2.32 6.512Zm8.43 1.648c1.64 0 3.04-.912 3.32-2.528h-1.52c-.16.848-.91 1.248-1.69 1.248h-.13c-.98 0-2.14-.816-2.24-2.64h5.6v-.88c0-2.08-1.31-3.52-3.39-3.52-1.89 0-3.73 1.376-3.73 4.144 0 2.8 1.79 4.176 3.78 4.176Zm-2.16-5.12c.28-1.424 1.21-1.92 2.04-1.92h.13c.91 0 1.75.528 1.81 1.92h-3.98Z"/></g><g filter="url(#j)"><rect width="113.299" height="38" x="1114" y="381" fill="#0D0C22" rx="19" shape-rendering="crispEdges"/><rect width="111.799" height="36.5" x="1114.75" y="381.75" stroke="#0D0C22" stroke-width="1.5" rx="18.25" shape-rendering="crispEdges"/><path stroke="#fff" stroke-width="1.5" d="M1143.04 405.303c-1.55-1.345-5.4-3.29-8.38-.31"/><path stroke="#fff" stroke-width="1.5" d="M1134.35 396.611c1.34 1.552 3.29 5.402.31 8.382M1144.95 394.697l-10.6 10.606"/><path fill="#fff" d="M1156.34 404v-4.48h3.84c.88 0 1.12.24 1.12 1.12V404h1.6v-3.76c0-1.12-.4-1.568-1.68-1.568 1.04-.32 1.84-1.392 1.84-2.832 0-1.76-1.44-3.04-3.52-3.04h-4.8V404h1.6Zm0-9.76h2.96c1.36 0 2.16.64 2.16 1.84 0 1.12-.8 2-2.16 2h-2.96v-3.84Zm12.25 9.92c1.65 0 3.04-.912 3.33-2.528h-1.52c-.16.848-.91 1.248-1.7 1.248h-.12c-.98 0-2.15-.816-2.24-2.64h5.6v-.88c0-2.08-1.32-3.52-3.4-3.52-1.88 0-3.72 1.376-3.72 4.144 0 2.8 1.79 4.176 3.77 4.176Zm-2.16-5.12c.29-1.424 1.22-1.92 2.05-1.92h.13c.91 0 1.74.528 1.81 1.92h-3.99Zm10.84 5.12c1.82 0 3.12-1.072 3.28-2.8h-1.52c-.15.88-.79 1.52-1.7 1.52h-.13c-1.53 0-2.25-1.36-2.25-2.88 0-1.52.72-2.88 2.25-2.88h.13c.91 0 1.55.64 1.7 1.52h1.52c-.16-1.728-1.46-2.8-3.28-2.8-2.47 0-3.84 1.808-3.84 4.16 0 2.352 1.37 4.16 3.84 4.16Zm8.45 0c1.64 0 3.04-.912 3.32-2.528h-1.52c-.16.848-.91 1.248-1.69 1.248h-.13c-.98 0-2.14-.816-2.24-2.64h5.6v-.88c0-2.08-1.31-3.52-3.39-3.52-1.89 0-3.73 1.376-3.73 4.144 0 2.8 1.79 4.176 3.78 4.176Zm-2.16-5.12c.28-1.424 1.21-1.92 2.04-1.92h.13c.91 0 1.75.528 1.81 1.92h-3.98Zm9.07-4.48v-1.76h-1.68v1.76h1.68Zm-.08 9.44v-8h-1.52v8h1.52Zm5.35-1.488-2.32-6.512h-1.57l2.96 8h1.84l2.96-8h-1.55l-2.32 6.512Zm8.43 1.648c1.64 0 3.04-.912 3.32-2.528h-1.52c-.16.848-.91 1.248-1.69 1.248h-.13c-.98 0-2.14-.816-2.24-2.64h5.6v-.88c0-2.08-1.31-3.52-3.39-3.52-1.89 0-3.73 1.376-3.73 4.144 0 2.8 1.79 4.176 3.78 4.176Zm-2.16-5.12c.28-1.424 1.21-1.92 2.04-1.92h.13c.91 0 1.75.528 1.81 1.92h-3.98Z"/></g><g filter="url(#k)"><mask id="l" fill="#fff"><path d="M1129 64.053c0-11.627 9.43-21.053 21.05-21.053h111.9c11.62 0 21.05 9.426 21.05 21.053s-9.43 21.052-21.05 21.052h-111.9c-11.62 0-21.05-9.425-21.05-21.052Z"/></mask><path fill="#fff" d="M1129 64.053c0-11.627 9.43-21.053 21.05-21.053h111.9c11.62 0 21.05 9.426 21.05 21.053s-9.43 21.052-21.05 21.052h-111.9c-11.62 0-21.05-9.425-21.05-21.052Z" shape-rendering="crispEdges"/><path fill="#0D0C22" d="M1128 64.053c0-12.18 9.87-22.053 22.05-22.053h113.9c12.18 0 22.05 9.873 22.05 22.053h-6c0-11.075-8.08-20.053-18.05-20.053h-111.9c-11.07 0-20.05 8.978-20.05 20.053h-2Zm158 0c0 13.284-10.77 24.052-24.05 24.052h-111.9c-12.18 0-22.05-9.873-22.05-22.052l2-2c0 9.97 8.98 18.052 20.05 18.052h111.9c9.97 0 18.05-8.082 18.05-18.052h6Zm-135.95 24.052c-12.18 0-22.05-9.873-22.05-22.052v-2c0-12.18 9.87-22.053 22.05-22.053v2c-11.07 0-20.05 8.978-20.05 20.053 0 9.97 8.98 18.052 20.05 18.052v6ZM1263.95 42c12.18 0 22.05 9.873 22.05 22.053 0 13.284-10.77 24.052-24.05 24.052v-6c9.97 0 18.05-8.082 18.05-18.052 0-11.075-8.08-20.053-18.05-20.053l2-2Z" mask="url(#l)"/><g clip-path="url(#m)"><path fill="#0D0C22" d="M1159.25 64.803h-4.5v4.5h-1.5v-4.5h-4.5v-1.5h4.5v-4.5h1.5v4.5h4.5v1.5Z"/></g><path fill="#0D0C22" d="M1181.99 68.053h-1.66l-1.12-2.88h-5.35l-1.12 2.88h-1.63l4.43-11.2h2.05l4.4 11.2Zm-5.45-9.728-2.12 5.408h4.23l-2.11-5.408Zm9.67 9.888c-2 0-3.44-1.52-3.44-4.16s1.6-4.16 3.6-4.16c1.12 0 2.08.56 2.48 1.28v-4.32h1.52v11.2h-1.52v-1.12c-.4.72-1.52 1.28-2.64 1.28Zm.25-1.28h.13c1.14 0 2.26-.96 2.26-2.88s-1.12-2.88-2.26-2.88h-.13c-1.21 0-2.17.96-2.17 2.88s.96 2.88 2.17 2.88Zm9.28 1.28c-2 0-3.44-1.52-3.44-4.16s1.6-4.16 3.6-4.16c1.12 0 2.08.56 2.48 1.28v-4.32h1.52v11.2h-1.52v-1.12c-.4.72-1.52 1.28-2.64 1.28Zm.25-1.28h.13c1.14 0 2.26-.96 2.26-2.88s-1.12-2.88-2.26-2.88h-.13c-1.21 0-2.17.96-2.17 2.88s.96 2.88 2.17 2.88Zm19.61 1.12h-1.66l-1.12-2.88h-5.35l-1.12 2.88h-1.63l4.43-11.2h2.05l4.4 11.2Zm-5.45-9.728-2.12 5.408h4.23l-2.11-5.408Zm10.05 9.888c-2.46 0-3.84-1.808-3.84-4.16 0-2.352 1.38-4.16 3.84-4.16 1.82 0 3.12 1.072 3.28 2.8h-1.52c-.14-.88-.78-1.52-1.7-1.52h-.12c-1.54 0-2.26 1.36-2.26 2.88 0 1.52.72 2.88 2.26 2.88h.12c.92 0 1.56-.64 1.7-1.52h1.52c-.16 1.728-1.46 2.8-3.28 2.8Zm8.52 0c-2.47 0-3.84-1.808-3.84-4.16 0-2.352 1.37-4.16 3.84-4.16 1.82 0 3.12 1.072 3.28 2.8h-1.52c-.15-.88-.79-1.52-1.7-1.52h-.13c-1.53 0-2.25 1.36-2.25 2.88 0 1.52.72 2.88 2.25 2.88h.13c.91 0 1.55-.64 1.7-1.52h1.52c-.16 1.728-1.46 2.8-3.28 2.8Zm8.5 0c-2.16 0-3.84-1.68-3.84-4.16 0-2.48 1.68-4.16 3.84-4.16s3.84 1.68 3.84 4.16c0 2.48-1.68 4.16-3.84 4.16Zm-.07-1.28h.13c1.3 0 2.26-1.04 2.26-2.88 0-1.84-.96-2.88-2.26-2.88h-.13c-1.29 0-2.25 1.04-2.25 2.88 0 1.84.96 2.88 2.25 2.88Zm8.46 1.28c-1.8 0-2.72-1.2-2.72-2.88v-5.28h1.52v4.96c0 1.28.52 1.92 1.61 1.92h.13c1.02 0 2.02-.96 2.02-2.56v-4.32h1.52v8h-1.52v-1.52c-.31.88-1.17 1.68-2.56 1.68Zm8-.16h-1.52v-8h1.52v1.12c.48-.72 1.28-1.28 2.56-1.28 1.84 0 2.88 1.12 2.88 2.8v5.36h-1.52v-5.04c0-1.12-.48-1.84-1.62-1.84h-.12c-1.14 0-2.18.88-2.18 2.4v4.48Zm12.21 0h-1.92c-1.12 0-1.76-.64-1.76-1.76v-4.928h-1.76v-1.312h1.76V57.46h1.52v2.592h1.92v1.312h-1.92v4.688c0 .48.16.64.64.64h1.52v1.36Z"/></g><path fill="#0D0C22" d="M105.331 50.1c-5.39 0-9.148 3.93-9.148 8.95 0 5.018 3.759 8.95 9.148 8.95 5.389 0 9.147-3.93 9.147-8.95s-3.758-8.95-9.147-8.95Zm.162 15.164c-2.199.057-3.51-2.013-3.617-6.083-.117-4.48 1.093-6.288 3.263-6.346 2.255-.06 3.531 1.712 3.646 6.165.108 4.096-1.065 6.206-3.292 6.264ZM76.598 50.397h-7.12c-.395 0-.643.248-.643.644v.94c0 .42.147.569.518.716l.47.174c.519.197.692.47.692 1.012v10.334c0 .545-.173.815-.692 1.013l-.47.173c-.371.148-.518.297-.518.717v.94c0 .395.248.643.643.643h7.12c.395 0 .643-.248.643-.643v-.94c0-.42-.147-.57-.518-.717l-.47-.173c-.519-.198-.692-.47-.692-1.013V53.883c0-.544.173-.815.692-1.012l.47-.174c.371-.147.518-.296.518-.716v-.94c-.001-.397-.248-.644-.643-.644ZM95.624 65.428l-.273-.148c-.667-.37-1.162-.643-1.803-1.656l-2.325-3.732c-.123-.198-.05-.347.174-.396 1.953-.518 3.065-1.656 3.065-3.684 0-3.83-2.987-5.415-9.364-5.415l-5.667.049c-.395.05-.593.272-.593.643v.94c0 .42.147.57.47.692l.569.222c.47.198.644.446.644.94v10.334c0 .545-.174.815-.692 1.013l-.47.173c-.372.148-.52.297-.52.717v.94c0 .395.249.643.644.643h7.12c.42 0 .644-.248.644-.643v-.94c0-.42-.15-.57-.519-.717l-.47-.173c-.518-.198-.692-.47-.692-1.013v-3.831c0-.222.075-.297.248-.297.198 0 .321.148.495.446l3.387 6.131c.42.767.742 1.04 1.606 1.04h4.325c.42 0 .594-.223.594-.545v-.89c-.004-.4-.127-.57-.597-.843Zm-9.148-7.417h-.544a.338.338 0 0 1-.351-.35v-4.723c0-.204.145-.35.35-.35h.572c1.923 0 3.115.697 3.115 2.63 0 1.933-.922 2.793-3.142 2.793ZM199.807 52.869l.471-.174c.371-.147.518-.296.518-.716v-.94c0-.395-.222-.644-.643-.644h-7.12c-.396 0-.644.248-.644.644v.94c0 .42.148.569.519.716l.47.174c.518.197.692.47.692 1.013v3.115a.285.285 0 0 1-.297.296h-5.241a.285.285 0 0 1-.297-.296v-3.115c0-.545.174-.816.692-1.013l.47-.174c.372-.147.519-.296.519-.716v-.94c0-.395-.222-.644-.644-.644h-7.119c-.396 0-.644.248-.644.644v.94c0 .42.147.569.519.716l.47.174c.518.197.692.47.692 1.013v10.333c0 .545-.174.816-.692 1.013l-.47.174c-.372.147-.519.296-.519.716v.94c0 .395.248.644.644.644h7.119c.42 0 .644-.248.644-.644v-.94c0-.42-.149-.569-.519-.716l-.47-.174c-.518-.197-.692-.47-.692-1.013v-4.103c0-.174.123-.297.297-.297h5.241c.174 0 .297.123.297.297v4.103c0 .545-.174.816-.692 1.013l-.47.174c-.371.147-.519.296-.519.716v.94c0 .395.248.644.644.644h7.12c.419 0 .643-.248.643-.644v-.94c0-.42-.147-.569-.518-.716l-.471-.174c-.518-.197-.692-.47-.692-1.013V53.882c0-.543.174-.816.692-1.013ZM175.091 56.726l-3.016-.89c-1.483-.444-2.274-.964-2.274-1.83 0-.84.791-1.374 2.003-1.383 1.699-.014 3.216.766 5.391 3.115.296.32.617.445 1.063.197l.519-.296c.445-.247.513-.614.296-.989l-2.16-3.732c-.248-.44-.42-.743-.94-.743h-.239c-.593 0-.667.273-1.261.273-.766 0-1.589-.297-2.992-.297-3.881 0-6.403 1.878-6.403 5.191 0 2.768 2.003 4.326 4.475 5.143l3.214 1.063c1.581.518 2.423 1.114 2.423 2.201 0 1.162-.89 1.68-2.349 1.68-2.225 0-4.154-1.26-6.179-3.93-.321-.42-.644-.494-1.064-.296l-.815.395c-.371.174-.475.547-.246 1.013l2.276 4.673c.205.42.494.593.841.593h.295c.544 0 .914-.371 1.41-.371.914 0 1.83.445 3.881.445 4.104 0 7.021-1.904 7.021-5.562-.003-3.389-2.253-4.823-5.17-5.663ZM162.573 50.397h-7.12c-.396 0-.644.248-.644.644v.94c0 .42.148.569.519.716l.47.174c.518.197.692.47.692 1.012v10.334c0 .545-.174.815-.692 1.013l-.47.173c-.371.148-.519.297-.519.717v.94c0 .395.248.643.644.643h7.12c.395 0 .643-.248.643-.643v-.94c0-.42-.147-.57-.518-.717l-.47-.173c-.519-.198-.692-.47-.692-1.013V53.883c0-.544.173-.815.692-1.012l.47-.174c.371-.147.518-.296.518-.716v-.94c-.002-.397-.248-.644-.643-.644ZM151.834 50.47c-.164-.285-.321-.47-.692-.47h-.492c-.273 0-.424.063-.629.224-.224.171-.418.171-.903.171h-9.207c-.395 0-.643.248-.643.644v.94c0 .42.147.569.518.716l.47.174c.519.197.692.47.692 1.013v10.333c0 .545-.173.816-.692 1.013l-.47.174c-.371.147-.518.296-.518.716v.94c0 .395.248.644.643.644h7.467c.42 0 .644-.248.644-.644v-.94c0-.42-.124-.617-.519-.716l-.815-.222c-.545-.148-.692-.42-.692-.965v-4.351c0-.174.123-.297.296-.297h.42c1.929 0 3.115.989 4.326 2.399.173.197.395.272.692.123l.617-.32c.273-.148.373-.387.248-.644l-1.915-3.932c-.11-.226-.247-.36-.53-.36h-.304c-.209 0-.342.056-.532.209-.17.132-.378.227-.643.227h-2.379a.285.285 0 0 1-.296-.297V53.81c0-.89.347-1.237 1.285-1.237 1.608 0 3.807 1.41 5.092 2.696.222.221.495.272.791.098l.668-.42c.222-.147.373-.382.222-.643l-2.22-3.833ZM132.514 65.626l-.569-.198c-.519-.174-.692-.47-.692-1.013V53.662c0-.545.173-.817.692-1.013l.47-.174c.371-.147.518-.296.518-.716v-.716c0-.396-.222-.644-.643-.644h-4.747c-.396 0-.644.248-.644.644v.716c0 .42.149.569.519.716l.47.174c.518.197.692.47.692 1.013v6.056a.184.184 0 0 1-.327.118l-6.31-8.844c-.157-.238-.317-.397-.481-.475-.164-.079-.392-.118-.679-.118h-4.71c-.395 0-.643.248-.643.644v.94c0 .42.149.569.518.716l.47.174c.519.197.692.47.692 1.012V64.44c0 .545-.173.815-.692 1.013l-.47.174c-.371.147-.518.296-.518.716v.716c0 .395.248.644.643.644h4.747c.42 0 .644-.248.644-.644v-.716c0-.42-.148-.57-.519-.716l-.47-.174c-.518-.198-.692-.47-.692-1.013v-6.815a.184.184 0 0 1 .327-.118l6.987 9.602c.157.24.317.398.481.476.164.078.392.118.679.118h4.132c.419 0 .643-.248.643-.644v-.716c0-.42-.147-.593-.518-.716ZM64.06 58.802l-4.59-7.948a.633.633 0 0 0-.547-.317h-9.181a.633.633 0 0 0-.549.317l-3.943 6.831a.285.285 0 0 1-.317.13.283.283 0 0 1-.21-.272V54.9a4.366 4.366 0 0 0-4.36-4.36h-3.729a.635.635 0 0 0-.634.633v3.729a4.279 4.279 0 0 0 2.64 3.962.28.28 0 0 1 0 .518A4.263 4.263 0 0 0 36 63.34v3.728c0 .35.283.635.634.635h3.729a4.366 4.366 0 0 0 4.36-4.361v-2.644c0-.126.087-.238.21-.272a.287.287 0 0 1 .317.13l3.943 6.831a.635.635 0 0 0 .549.318h9.179a.633.633 0 0 0 .548-.318l4.589-7.948a.628.628 0 0 0 .084-.315.62.62 0 0 0-.082-.32Zm-9.659 3.65c-1.79 0-3.247-1.495-3.247-3.333 0-1.837 1.456-3.333 3.247-3.333 1.79 0 3.247 1.496 3.247 3.333 0 1.838-1.456 3.334-3.247 3.334Z"/><rect width="231" height="40" x="20" y="108" fill="#F3F3F4" rx="4"/><g clip-path="url(#n)"><path fill="#0D0C22" d="m48 121.69 5 4.5V134h-2v-6h-6v6h-2v-7.81l5-4.5Zm0-2.69-10 9h3v8h6v-6h2v6h6v-8h3l-10-9Z"/></g><path fill="#0D0C22" d="M87.06 132h-1.596l-1.148-2.506h-5.572L77.596 132h-1.554l4.578-9.8h1.876l4.564 9.8Zm-5.53-8.568-2.198 4.774h4.396l-2.198-4.774Zm10.04 8.708c-2.59 0-3.892-1.498-3.892-3.64 0-2.044 1.428-3.64 3.892-3.64 1.918 0 3.276.938 3.486 2.45h-1.4c-.169-.826-.953-1.302-1.989-1.302h-.195c-1.624 0-2.408 1.176-2.408 2.492s.784 2.492 2.408 2.492h.196c1.035 0 1.805-.56 1.987-1.302h1.4c-.21 1.414-1.568 2.45-3.486 2.45Zm8.64 0c-2.59 0-3.892-1.498-3.892-3.64 0-2.044 1.428-3.64 3.892-3.64 1.918 0 3.276.938 3.486 2.45h-1.4c-.168-.826-.952-1.302-1.988-1.302h-.196c-1.624 0-2.408 1.176-2.408 2.492s.784 2.492 2.408 2.492h.196c1.036 0 1.806-.56 1.988-1.302h1.4c-.21 1.414-1.568 2.45-3.486 2.45Zm8.711 0c-2.352 0-3.976-1.428-3.976-3.64s1.624-3.64 3.976-3.64c2.338 0 3.976 1.428 3.976 3.64s-1.638 3.64-3.976 3.64Zm-.098-1.148h.196c1.414 0 2.492-.938 2.492-2.492s-1.078-2.492-2.492-2.492h-.196c-1.428 0-2.492.938-2.492 2.492s1.064 2.492 2.492 2.492Zm8.654 1.148c-1.904 0-2.912-1.092-2.912-2.772V125h1.372v4.046c0 1.26.518 1.946 1.708 1.946h.196c1.204 0 2.282-.896 2.282-2.394V125h1.372v7h-1.372v-1.274c-.434.784-1.288 1.414-2.646 1.414Zm7.608-.14h-1.372v-7h1.372v1.162c.504-.742 1.358-1.302 2.688-1.302 1.918 0 2.996 1.218 2.996 2.884V132h-1.372v-3.92c0-1.232-.546-2.072-1.764-2.072h-.196c-1.218 0-2.352.98-2.352 2.464V132Zm12.592 0h-2.394c-.98 0-1.54-.56-1.54-1.54v-4.284h-1.806V125h1.806v-2.268h1.372V125h2.254v1.176h-2.254v4.046c0 .42.14.56.56.56h2.002V132Zm4.272.14c-2.128 0-3.29-.896-3.374-2.31h1.4c.07.798.896 1.162 1.876 1.162h.196c1.078 0 1.75-.252 1.75-.868 0-.434-.308-.7-1.372-.91l-1.162-.224c-1.456-.28-2.352-.784-2.352-1.988 0-1.386 1.358-2.142 3.038-2.142 2.184 0 3.262.91 3.374 2.31h-1.4c-.07-.644-.7-1.162-1.876-1.162h-.196c-1.008 0-1.554.364-1.554.882 0 .406.252.63 1.386.854l1.092.21c1.47.28 2.408.84 2.408 2.086 0 1.26-1.218 2.1-3.234 2.1Z"/><rect width="24" height="24" x="219" y="116" fill="#DEDFE2" rx="2"/><path fill="#000" d="M236.06 132h-1.596l-1.148-2.506h-5.572L226.596 132h-1.554l4.578-9.8h1.876l4.564 9.8Zm-5.53-8.568-2.198 4.774h4.396l-2.198-4.774Z"/><rect width="231" height="40" x="20" y="300" fill="#fff" rx="4"/><path fill="#7F7F7F" d="M87.06 324h-1.596l-1.148-2.506h-5.572L77.596 324h-1.554l4.578-9.8h1.876l4.564 9.8Zm-5.53-8.568-2.198 4.774h4.396l-2.198-4.774Zm9.956 8.708c-2.24 0-3.809-1.372-3.809-3.64 0-2.394 1.582-3.64 3.78-3.64 1.19 0 2.255.532 2.703 1.204V314.2h1.371v9.8H94.16v-1.022c-.546.714-1.666 1.162-2.674 1.162Zm-.029-1.148h.197c1.413 0 2.505-.882 2.505-2.492 0-1.61-1.092-2.492-2.506-2.492h-.196c-1.4 0-2.393.882-2.393 2.492 0 1.61.994 2.492 2.394 2.492Zm9.64 1.148c-2.24 0-3.808-1.372-3.808-3.64 0-2.394 1.582-3.64 3.78-3.64 1.19 0 2.254.532 2.702 1.204V314.2h1.372v9.8h-1.372v-1.022c-.546.714-1.666 1.162-2.674 1.162Zm-.028-1.148h.196c1.414 0 2.506-.882 2.506-2.492 0-1.61-1.092-2.492-2.506-2.492h-.196c-1.4 0-2.394.882-2.394 2.492 0 1.61.994 2.492 2.394 2.492ZM108.72 324h-1.372v-7h1.302v1.47c.364-.98.966-1.47 2.226-1.47h1.078v1.316h-1.176c-1.316 0-2.058.742-2.058 2.17V324Zm11.313-3.794v.532h-5.936c.126 1.526 1.204 2.254 2.366 2.254h.196c.966 0 1.652-.392 1.89-1.064h1.4c-.252 1.372-1.61 2.212-3.374 2.212-2.184 0-3.878-1.246-3.878-3.696 0-2.366 1.918-3.584 3.808-3.584 2.212 0 3.528 1.372 3.528 3.346Zm-5.866-.546h4.41c-.07-1.204-.952-1.652-1.974-1.652h-.196c-1.218 0-1.988.63-2.24 1.652Zm10.432 4.48c-2.128 0-3.29-.896-3.374-2.31h1.4c.07.798.896 1.162 1.876 1.162h.196c1.078 0 1.75-.252 1.75-.868 0-.434-.308-.7-1.372-.91l-1.162-.224c-1.456-.28-2.352-.784-2.352-1.988 0-1.386 1.358-2.142 3.038-2.142 2.184 0 3.262.91 3.374 2.31h-1.4c-.07-.644-.7-1.162-1.876-1.162h-.196c-1.008 0-1.554.364-1.554.882 0 .406.252.63 1.386.854l1.092.21c1.47.28 2.408.84 2.408 2.086 0 1.26-1.218 2.1-3.234 2.1Zm7.861 0c-2.128 0-3.29-.896-3.374-2.31h1.4c.07.798.896 1.162 1.876 1.162h.196c1.078 0 1.75-.252 1.75-.868 0-.434-.308-.7-1.372-.91l-1.162-.224c-1.456-.28-2.352-.784-2.352-1.988 0-1.386 1.358-2.142 3.038-2.142 2.184 0 3.262.91 3.374 2.31h-1.4c-.07-.644-.7-1.162-1.876-1.162h-.196c-1.008 0-1.554.364-1.554.882 0 .406.252.63 1.386.854l1.092.21c1.47.28 2.408.84 2.408 2.086 0 1.26-1.218 2.1-3.234 2.1Zm14.742-.14h-5.6v-9.8h5.432c1.666 0 2.954.98 2.954 2.59 0 1.12-.714 1.918-1.554 2.226 1.008.224 1.792 1.05 1.792 2.324 0 1.624-1.358 2.66-3.024 2.66Zm-4.158-8.512v2.898h3.78c1.064 0 1.708-.546 1.708-1.456 0-.91-.644-1.442-1.708-1.442h-3.78Zm0 4.186v3.038h3.878c1.134 0 1.848-.546 1.848-1.568 0-.938-.714-1.47-1.848-1.47h-3.878Zm12.635 4.466c-2.352 0-3.976-1.428-3.976-3.64s1.624-3.64 3.976-3.64c2.338 0 3.976 1.428 3.976 3.64s-1.638 3.64-3.976 3.64Zm-.098-1.148h.196c1.414 0 2.492-.938 2.492-2.492s-1.078-2.492-2.492-2.492h-.196c-1.428 0-2.492.938-2.492 2.492s1.064 2.492 2.492 2.492Zm9.34 1.148c-2.352 0-3.976-1.428-3.976-3.64s1.624-3.64 3.976-3.64c2.338 0 3.976 1.428 3.976 3.64s-1.638 3.64-3.976 3.64Zm-.098-1.148h.196c1.414 0 2.492-.938 2.492-2.492s-1.078-2.492-2.492-2.492h-.196c-1.428 0-2.492.938-2.492 2.492s1.064 2.492 2.492 2.492ZM178.027 324h-1.834l-3.01-3.29-1.162.924V324h-1.372v-9.8h1.372v5.95l3.864-3.15h2.002l-3.668 2.898 3.808 4.102Z"/><g clip-path="url(#o)"><path fill="#0D0C22" d="M57 313c-1.11-.35-2.33-.5-3.5-.5-1.95 0-4.05.4-5.5 1.5-1.45-1.1-3.55-1.5-5.5-1.5-1.95 0-4.05.4-5.5 1.5v14.65c0 .25.25.5.5.5.1 0 .15-.05.25-.05 1.35-.65 3.3-1.1 4.75-1.1 1.95 0 4.05.4 5.5 1.5 1.35-.85 3.8-1.5 5.5-1.5 1.65 0 3.35.3 4.75 1.05.1.05.15.05.25.05.25 0 .5-.25.5-.5V314c-.6-.45-1.25-.75-2-1Zm0 13.5c-1.1-.35-2.3-.5-3.5-.5-1.7 0-4.15.65-5.5 1.5V316c1.35-.85 3.8-1.5 5.5-1.5 1.2 0 2.4.15 3.5.5v11.5Z"/></g><rect width="231" height="40" x="20" y="252" fill="#fff" rx="4"/><path fill="#7F7F7F" d="M82.958 276h-5.6v-9.8h5.432c1.666 0 2.954.98 2.954 2.59 0 1.12-.714 1.918-1.554 2.226 1.008.224 1.792 1.05 1.792 2.324 0 1.624-1.358 2.66-3.024 2.66Zm-4.158-8.512v2.898h3.78c1.064 0 1.708-.546 1.708-1.456 0-.91-.644-1.442-1.708-1.442H78.8Zm0 4.186v3.038h3.878c1.134 0 1.848-.546 1.848-1.568 0-.938-.714-1.47-1.848-1.47H78.8ZM89.293 276H87.92v-7h1.302v1.47c.365-.98.967-1.47 2.227-1.47h1.078v1.316H91.35c-1.316 0-2.057.742-2.057 2.17V276Zm6.1-8.232h-1.54V266.2h1.54v1.568ZM95.307 276h-1.372v-7h1.372v7Zm5.584.14c-2.24 0-3.808-1.372-3.808-3.64 0-2.394 1.582-3.64 3.78-3.64 1.19 0 2.254.532 2.702 1.204V266.2h1.372v9.8h-1.372v-1.022c-.546.714-1.666 1.162-2.674 1.162Zm-.028-1.148h.196c1.414 0 2.506-.882 2.506-2.492 0-1.61-1.092-2.492-2.506-2.492h-.196c-1.4 0-2.394.882-2.394 2.492 0 1.61.994 2.492 2.394 2.492Zm9.471 4.088c-2.338 0-3.668-.91-3.836-2.17h1.428c.21.672 1.092 1.022 2.31 1.022h.196c1.428 0 2.548-.728 2.548-2.254v-.868c-.434.574-1.302 1.19-2.604 1.19-1.96 0-3.682-1.092-3.682-3.57 0-2.45 1.694-3.57 3.668-3.57 1.33 0 2.254.602 2.618 1.162V269h1.372v6.846c0 1.806-1.372 3.234-4.018 3.234Zm.028-4.228h.196c1.204 0 2.422-.91 2.422-2.422s-1.134-2.422-2.352-2.422h-.196c-1.246 0-2.352.7-2.352 2.422 0 1.722 1.036 2.422 2.282 2.422Zm13.088-2.646v.532h-5.936c.126 1.526 1.204 2.254 2.366 2.254h.196c.966 0 1.652-.392 1.89-1.064h1.4c-.252 1.372-1.61 2.212-3.374 2.212-2.184 0-3.878-1.246-3.878-3.696 0-2.366 1.918-3.584 3.808-3.584 2.212 0 3.528 1.372 3.528 3.346Zm-5.866-.546h4.41c-.07-1.204-.952-1.652-1.974-1.652h-.196c-1.218 0-1.988.63-2.24 1.652Z"/><path stroke="#000" stroke-width="2" d="M52.444 263.444c.156 2.185 1.592 6.556 6.088 6.556m0 0H37m21.532 0H59M43.556 281.219c-.156-2.185-1.592-6.556-6.088-6.556m0 0H59m-21.532 0H37"/><rect width="231" height="40" x="20" y="348" fill="#fff" rx="4"/><path fill="#7F7F7F" d="m81.012 366.582 3.108-4.382h1.722l-4.13 5.67V372H80.27v-4.13l-4.13-5.67h1.736l3.136 4.382Zm8.057 5.558c-2.352 0-3.976-1.428-3.976-3.64s1.624-3.64 3.976-3.64c2.338 0 3.976 1.428 3.976 3.64s-1.638 3.64-3.976 3.64Zm-.098-1.148h.196c1.414 0 2.492-.938 2.492-2.492s-1.078-2.492-2.492-2.492h-.196c-1.428 0-2.492.938-2.492 2.492s1.064 2.492 2.492 2.492Zm8.654 1.148c-1.904 0-2.912-1.092-2.912-2.772V365h1.372v4.046c0 1.26.518 1.946 1.708 1.946h.196c1.204 0 2.282-.896 2.282-2.394V365h1.372v7h-1.372v-1.274c-.434.784-1.288 1.414-2.646 1.414Zm7.609-.14h-1.372v-7h1.302v1.47c.364-.98.966-1.47 2.226-1.47h1.078v1.316h-1.176c-1.316 0-2.058.742-2.058 2.17V372Zm16.013-1.61v-8.19h1.442v9.8h-1.988l-5.698-8.19V372h-1.442v-9.8h1.988l5.698 8.19Zm7.32 1.75c-2.352 0-3.976-1.428-3.976-3.64s1.624-3.64 3.976-3.64c2.338 0 3.976 1.428 3.976 3.64s-1.638 3.64-3.976 3.64Zm-.098-1.148h.196c1.414 0 2.492-.938 2.492-2.492s-1.078-2.492-2.492-2.492h-.196c-1.428 0-2.492.938-2.492 2.492s1.064 2.492 2.492 2.492Zm9.186 1.148c-2.24 0-3.808-1.372-3.808-3.64 0-2.394 1.582-3.64 3.78-3.64 1.19 0 2.254.532 2.702 1.204V362.2h1.372v9.8h-1.372v-1.022c-.546.714-1.666 1.162-2.674 1.162Zm-.028-1.148h.196c1.414 0 2.506-.882 2.506-2.492 0-1.61-1.092-2.492-2.506-2.492h-.196c-1.4 0-2.394.882-2.394 2.492 0 1.61.994 2.492 2.394 2.492Zm13.168-2.786v.532h-5.936c.126 1.526 1.204 2.254 2.366 2.254h.196c.966 0 1.652-.392 1.89-1.064h1.4c-.252 1.372-1.61 2.212-3.374 2.212-2.184 0-3.878-1.246-3.878-3.696 0-2.366 1.918-3.584 3.808-3.584 2.212 0 3.528 1.372 3.528 3.346Zm-5.866-.546h4.41c-.07-1.204-.952-1.652-1.974-1.652h-.196c-1.218 0-1.988.63-2.24 1.652Z"/><g fill="#0D0C22" clip-path="url(#p)"><path d="M39 360c0-.55.45-1 1-1h2v-2h-2c-1.66 0-3 1.34-3 3v2h2v-2ZM39 376v-2h-2v2c0 1.66 1.34 3 3 3h2v-2h-2c-.55 0-1-.45-1-1ZM56 357h-2v2h2c.55 0 1 .45 1 1v2h2v-2c0-1.66-1.34-3-3-3ZM57 376c0 .55-.45 1-1 1h-2v2h2c1.66 0 3-1.34 3-3v-2h-2v2ZM55 370.87v-5.74c0-.72-.38-1.38-1-1.73l-5-2.88c-.31-.18-.65-.27-1-.27s-.69.09-1 .27l-5 2.87c-.62.36-1 1.02-1 1.74v5.74c0 .72.38 1.38 1 1.73l5 2.88c.31.18.65.27 1 .27s.69-.09 1-.27l5-2.88c.62-.35 1-1.01 1-1.73Zm-8 2.3-4-2.3v-4.63l4 2.33v4.6Zm1-6.33-3.96-2.31 3.96-2.28 3.96 2.28-3.96 2.31Zm5 4.03-4 2.3v-4.6l4-2.33v4.63Z"/></g><rect width="231" height="40" x="20" y="156" fill="#fff" rx="4"/><path fill="#7F7F7F" d="M81.18 180.14c-2.842 0-4.592-1.106-4.634-3.29h1.54c.056 1.33 1.19 2.002 2.968 2.002h.224c1.834 0 2.576-.602 2.576-1.498 0-.742-.602-1.218-2.142-1.47l-1.526-.252c-2.142-.35-3.094-1.078-3.094-2.8 0-1.386 1.218-2.772 4.018-2.772 2.632 0 4.2 1.176 4.396 3.08h-1.54c-.168-1.148-1.176-1.792-2.744-1.792h-.224c-1.568 0-2.45.63-2.45 1.442 0 .812.602 1.204 1.904 1.414l1.568.252c2.198.35 3.29 1.288 3.29 2.786 0 1.862-1.456 2.898-4.13 2.898Zm12.986-3.934v.532H88.23c.126 1.526 1.204 2.254 2.366 2.254h.196c.966 0 1.652-.392 1.89-1.064h1.4c-.252 1.372-1.61 2.212-3.374 2.212-2.184 0-3.878-1.246-3.878-3.696 0-2.366 1.918-3.584 3.808-3.584 2.212 0 3.528 1.372 3.528 3.346Zm-5.866-.546h4.41c-.07-1.204-.952-1.652-1.974-1.652h-.196c-1.218 0-1.988.63-2.24 1.652Zm9.018 4.34h-1.372v-7h1.372v1.162c.504-.742 1.358-1.302 2.688-1.302 1.918 0 2.996 1.218 2.996 2.884V180h-1.372v-3.92c0-1.232-.546-2.072-1.764-2.072h-.196c-1.218 0-2.352.98-2.352 2.464V180Zm11.175.14c-2.24 0-3.808-1.372-3.808-3.64 0-2.394 1.582-3.64 3.78-3.64 1.19 0 2.254.532 2.702 1.204V170.2h1.372v9.8h-1.372v-1.022c-.546.714-1.666 1.162-2.674 1.162Zm-.028-1.148h.196c1.414 0 2.506-.882 2.506-2.492 0-1.61-1.092-2.492-2.506-2.492h-.196c-1.4 0-2.394.882-2.394 2.492 0 1.61.994 2.492 2.394 2.492Z"/><path stroke="#000" stroke-width="2" d="M43.888 167c2.341 2.029 8.148 4.964 12.644.468m0 0-.012.012m.012-.012L57 167m0 13.112c-2.028-2.339-4.959-8.138-.48-12.632m0 0L41 183"/><rect width="231" height="40" x="20" y="204" fill="#fff" rx="4"/><path fill="#7F7F7F" d="M78.8 228h-1.442v-9.8h5.32c1.876 0 3.206 1.134 3.206 2.674 0 1.26-.77 2.114-1.568 2.394 1.022 0 1.372.462 1.372 1.442V228h-1.442v-2.94c0-.77-.224-.98-.994-.98H78.8V228Zm0-8.512v3.304h3.668c1.232 0 1.96-.7 1.96-1.68 0-1.05-.728-1.624-1.96-1.624H78.8Zm16.077 4.718v.532H88.94c.126 1.526 1.204 2.254 2.366 2.254h.196c.966 0 1.652-.392 1.89-1.064h1.4c-.252 1.372-1.61 2.212-3.374 2.212-2.184 0-3.878-1.246-3.878-3.696 0-2.366 1.918-3.584 3.808-3.584 2.212 0 3.528 1.372 3.528 3.346Zm-5.866-.546h4.41c-.07-1.204-.952-1.652-1.974-1.652h-.196c-1.218 0-1.988.63-2.24 1.652Zm11.09 4.48c-2.59 0-3.892-1.498-3.892-3.64 0-2.044 1.428-3.64 3.892-3.64 1.918 0 3.276.938 3.486 2.45h-1.4c-.168-.826-.952-1.302-1.988-1.302h-.196c-1.624 0-2.408 1.176-2.408 2.492s.784 2.492 2.408 2.492h.196c1.036 0 1.806-.56 1.988-1.302h1.4c-.21 1.414-1.568 2.45-3.486 2.45Zm12.084-3.934v.532h-5.936c.126 1.526 1.204 2.254 2.366 2.254h.196c.966 0 1.652-.392 1.89-1.064h1.4c-.252 1.372-1.61 2.212-3.374 2.212-2.184 0-3.878-1.246-3.878-3.696 0-2.366 1.918-3.584 3.808-3.584 2.212 0 3.528 1.372 3.528 3.346Zm-5.866-.546h4.41c-.07-1.204-.952-1.652-1.974-1.652h-.196c-1.218 0-1.988.63-2.24 1.652Zm9.116-3.892h-1.54V218.2h1.54v1.568Zm-.084 8.232h-1.372v-7h1.372v7Zm5.304-1.33 2.576-5.67h1.47l-3.22 7h-1.652l-3.192-7h1.512l2.506 5.67Zm11.997-2.464v.532h-5.936c.126 1.526 1.204 2.254 2.366 2.254h.196c.966 0 1.652-.392 1.89-1.064h1.4c-.252 1.372-1.61 2.212-3.374 2.212-2.184 0-3.878-1.246-3.878-3.696 0-2.366 1.918-3.584 3.808-3.584 2.212 0 3.528 1.372 3.528 3.346Zm-5.866-.546h4.41c-.07-1.204-.952-1.652-1.974-1.652h-.196c-1.218 0-1.988.63-2.24 1.652Z"/><path stroke="#000" stroke-width="2" d="M54.112 231c-2.341-2.029-8.148-4.964-12.644-.468m0 0 .012-.012m-.012.012L41 231m0-13.112c2.028 2.339 4.959 8.138.48 12.632m0 0L57 215"/><defs><clipPath id="a"><path fill="#fff" d="M993 246h12v12h-12z"/></clipPath><clipPath id="b"><path fill="#fff" d="M979 402h12v12h-12z"/></clipPath><clipPath id="m"><path fill="#fff" d="M1145 55.053h18v18h-18z"/></clipPath><clipPath id="n"><path fill="#fff" d="M36 116h24v24H36z"/></clipPath><clipPath id="o"><path fill="#fff" d="M36 308h24v24H36z"/></clipPath><clipPath id="p"><path fill="#fff" d="M36 356h24v24H36z"/></clipPath><filter id="g" width="135" height="60" x="1103" y="168" color-interpolation-filters="sRGB" filterUnits="userSpaceOnUse"><feFlood flood-opacity="0" result="BackgroundImageFix"/><feColorMatrix in="SourceAlpha" result="hardAlpha" values="0 0 0 0 0 0 0 0 0 0 0 0 0 0 0 0 0 0 127 0"/><feOffset dy="4"/><feGaussianBlur stdDeviation="5.5"/><feComposite in2="hardAlpha" operator="out"/><feColorMatrix values="0 0 0 0 0 0 0 0 0 0 0 0 0 0 0 0 0 0 0.04 0"/><feBlend in2="BackgroundImageFix" result="effect1_dropShadow_3211_4363"/><feBlend in="SourceGraphic" in2="effect1_dropShadow_3211_4363" result="shape"/></filter><filter id="h" width="135" height="60" x="1103" y="324" color-interpolation-filters="sRGB" filterUnits="userSpaceOnUse"><feFlood flood-opacity="0" result="BackgroundImageFix"/><feColorMatrix in="SourceAlpha" result="hardAlpha" values="0 0 0 0 0 0 0 0 0 0 0 0 0 0 0 0 0 0 127 0"/><feOffset dy="4"/><feGaussianBlur stdDeviation="5.5"/><feComposite in2="hardAlpha" operator="out"/><feColorMatrix values="0 0 0 0 0 0 0 0 0 0 0 0 0 0 0 0 0 0 0.04 0"/><feBlend in2="BackgroundImageFix" result="effect1_dropShadow_3211_4363"/><feBlend in="SourceGraphic" in2="effect1_dropShadow_3211_4363" result="shape"/></filter><filter id="i" width="135.299" height="60" x="1103" y="218" color-interpolation-filters="sRGB" filterUnits="userSpaceOnUse"><feFlood flood-opacity="0" result="BackgroundImageFix"/><feColorMatrix in="SourceAlpha" result="hardAlpha" values="0 0 0 0 0 0 0 0 0 0 0 0 0 0 0 0 0 0 127 0"/><feOffset dy="4"/><feGaussianBlur stdDeviation="5.5"/><feComposite in2="hardAlpha" operator="out"/><feColorMatrix values="0 0 0 0 0 0 0 0 0 0 0 0 0 0 0 0 0 0 0.04 0"/><feBlend in2="BackgroundImageFix" result="effect1_dropShadow_3211_4363"/><feBlend in="SourceGraphic" in2="effect1_dropShadow_3211_4363" result="shape"/></filter><filter id="j" width="135.299" height="60" x="1103" y="374" color-interpolation-filters="sRGB" filterUnits="userSpaceOnUse"><feFlood flood-opacity="0" result="BackgroundImageFix"/><feColorMatrix in="SourceAlpha" result="hardAlpha" values="0 0 0 0 0 0 0 0 0 0 0 0 0 0 0 0 0 0 127 0"/><feOffset dy="4"/><feGaussianBlur stdDeviation="5.5"/><feComposite in2="hardAlpha" operator="out"/><feColorMatrix values="0 0 0 0 0 0 0 0 0 0 0 0 0 0 0 0 0 0 0.04 0"/><feBlend in2="BackgroundImageFix" result="effect1_dropShadow_3211_4363"/><feBlend in="SourceGraphic" in2="effect1_dropShadow_3211_4363" result="shape"/></filter><filter id="k" width="176" height="64.105" x="1118" y="36" color-interpolation-filters="sRGB" filterUnits="userSpaceOnUse"><feFlood flood-opacity="0" result="BackgroundImageFix"/><feColorMatrix in="SourceAlpha" result="hardAlpha" values="0 0 0 0 0 0 0 0 0 0 0 0 0 0 0 0 0 0 127 0"/><feOffset dy="4"/><feGaussianBlur stdDeviation="5.5"/><feComposite in2="hardAlpha" operator="out"/><feColorMatrix values="0 0 0 0 0 0 0 0 0 0 0 0 0 0 0 0 0 0 0.04 0"/><feBlend in2="BackgroundImageFix" result="effect1_dropShadow_3211_4363"/><feBlend in="SourceGraphic" in2="effect1_dropShadow_3211_4363" result="shape"/></filter><linearGradient id="c" x1="317.5" x2="430.946" y1="217" y2="220.67" gradientUnits="userSpaceOnUse"><stop stop-color="#fff"/><stop offset="1" stop-color="#DE83F0"/></linearGradient><linearGradient id="d" x1="317.5" x2="430.946" y1="373" y2="376.67" gradientUnits="userSpaceOnUse"><stop stop-color="#fff"/><stop offset="1" stop-color="#CAF287"/></linearGradient><linearGradient id="e" x1="317" x2="425.976" y1="216" y2="217.605" gradientUnits="userSpaceOnUse"><stop stop-color="#F4BFFF"/><stop offset="1" stop-color="#DE83F0"/></linearGradient><linearGradient id="f" x1="317" x2="425.976" y1="372" y2="373.605" gradientUnits="userSpaceOnUse"><stop stop-color="#E0FEAE"/><stop offset="1" stop-color="#C9F286"/></linearGradient></defs></svg>