<svg xmlns="http://www.w3.org/2000/svg" width="382" height="257" fill="none"><path fill="#C7F182" stroke="#000" stroke-width=".73" d="M10.097 10.098h371.538v246.475H10.097z"/><path fill="#FFC2E8" stroke="#000" stroke-width=".73" d="M5.231 5.231h371.538v251.341H5.231z"/><path fill="#fff" d="M.365.365h371.538v256.208H.365z"/><path stroke="#000" stroke-width=".73" d="M.365.365h371.538v256.208H.365z"/><rect width="295.867" height="65.694" x="60.585" y="102.921" fill="#fff" stroke="#000" stroke-width=".487" rx="1.703"/><rect width="295.867" height="65.694" x="60.585" y="178.834" fill="#fff" stroke="#000" stroke-width=".487" rx="1.703"/><path fill="#0D0C22" d="M69.16 34.465h-1.554l-1.117-2.439h-5.423l-1.118 2.439h-1.512l4.455-9.538h1.826l4.442 9.538Zm-5.383-8.339-2.14 4.646h4.28l-2.14-4.646Zm9.771 8.475c-2.52 0-3.788-1.458-3.788-3.542 0-1.99 1.39-3.543 3.788-3.543 1.867 0 3.188.913 3.393 2.384h-1.363c-.163-.803-.926-1.267-1.935-1.267h-.19c-1.58 0-2.344 1.145-2.344 2.426 0 1.28.763 2.425 2.344 2.425h.19c1.009 0 1.758-.545 1.935-1.267h1.363c-.205 1.376-1.526 2.384-3.393 2.384Zm8.41 0c-2.521 0-3.788-1.458-3.788-3.542 0-1.99 1.39-3.543 3.787-3.543 1.867 0 3.189.913 3.393 2.384h-1.362c-.164-.803-.927-1.267-1.935-1.267h-.19c-1.581 0-2.344 1.145-2.344 2.426 0 1.28.763 2.425 2.343 2.425h.19c1.01 0 1.759-.545 1.936-1.267h1.362c-.204 1.376-1.526 2.384-3.392 2.384Zm8.477 0c-2.289 0-3.87-1.39-3.87-3.542 0-2.153 1.581-3.543 3.87-3.543 2.276 0 3.87 1.39 3.87 3.543 0 2.152-1.594 3.542-3.87 3.542Zm-.095-1.117h.19c1.377 0 2.426-.913 2.426-2.425 0-1.513-1.05-2.426-2.425-2.426h-.191c-1.39 0-2.426.913-2.426 2.426 0 1.512 1.036 2.425 2.426 2.425Zm8.422 1.117c-1.853 0-2.834-1.063-2.834-2.698v-4.25h1.336v3.937c0 1.226.504 1.894 1.662 1.894h.19c1.172 0 2.222-.872 2.222-2.33v-3.502h1.335v6.813h-1.335v-1.24c-.423.763-1.254 1.376-2.576 1.376Zm7.405-.136h-1.335v-6.813h1.335v1.131c.491-.722 1.322-1.267 2.616-1.267 1.867 0 2.916 1.185 2.916 2.807v4.142h-1.335V30.65c0-1.2-.531-2.017-1.717-2.017h-.191c-1.185 0-2.289.954-2.289 2.398v3.434Zm12.255 0h-2.33c-.954 0-1.499-.545-1.499-1.499v-4.17h-1.757v-1.144h1.757v-2.207h1.335v2.207h2.194v1.145h-2.194v3.937c0 .41.137.545.546.545h1.948v1.186Zm4.157.136c-2.071 0-3.202-.872-3.283-2.248h1.362c.068.777.872 1.13 1.826 1.13h.191c1.049 0 1.703-.244 1.703-.844 0-.422-.3-.681-1.335-.886l-1.131-.218c-1.417-.272-2.289-.762-2.289-1.934 0-1.35 1.321-2.085 2.956-2.085 2.126 0 3.175.886 3.284 2.248h-1.362c-.069-.627-.682-1.13-1.826-1.13h-.191c-.981 0-1.512.354-1.512.858 0 .395.245.613 1.349.83l1.062.205c1.431.273 2.344.818 2.344 2.03 0 1.227-1.186 2.044-3.148 2.044Z"/><path fill="#7F7F7F" d="M61.252 49.363h-.778v-4.75h-1.947v-.7H63.2v.7h-1.947v4.75Zm3.354.078c-1.051 0-1.869-.818-1.869-2.024 0-1.207.818-2.025 1.869-2.025 1.05 0 1.868.818 1.868 2.025 0 1.206-.817 2.024-1.868 2.024Zm-.031-.623h.062c.63 0 1.098-.506 1.098-1.401 0-.896-.468-1.402-1.098-1.402h-.063c-.63 0-1.097.506-1.097 1.402 0 .895.467 1.401 1.098 1.401Zm4.956.545h-.934c-.545 0-.857-.311-.857-.856v-2.398h-.856v-.639h.856V44.21h.74v1.261h.934v.639h-.934v2.28c0 .234.078.312.311.312h.74v.662Zm1.851.078c-.74 0-1.285-.49-1.285-1.152 0-.888.787-1.153 1.418-1.207l1.074-.086v-.125c0-.544-.311-.856-.81-.856h-.062c-.405 0-.755.195-.802.584h-.74c.047-.716.693-1.207 1.573-1.207 1.036 0 1.58.685 1.58 1.48v1.635c0 .233 0 .584.04.856h-.701c-.04-.195-.04-.584-.04-.623-.155.35-.622.7-1.245.7Zm.086-.623h.062c.475 0 1.059-.39 1.059-.856v-.398l-.973.078c-.452.04-.779.257-.779.615 0 .32.265.561.63.561Zm3.731.545h-.74v-5.45h.74v5.45Zm4.121.078c-.74 0-1.284-.49-1.284-1.152 0-.888.786-1.153 1.416-1.207l1.075-.086v-.125c0-.544-.311-.856-.81-.856h-.062c-.405 0-.755.195-.802.584h-.74c.047-.716.693-1.207 1.573-1.207 1.036 0 1.58.685 1.58 1.48v1.635c0 .233 0 .584.04.856h-.701c-.04-.195-.04-.584-.04-.623-.155.35-.622.7-1.245.7Zm.086-.623h.062c.475 0 1.059-.39 1.059-.856v-.398l-.973.078c-.452.04-.779.257-.779.615 0 .32.265.561.63.561Zm4.627.623c-1.2 0-1.869-.88-1.869-2.024 0-1.145.67-2.025 1.869-2.025.887 0 1.518.522 1.596 1.363h-.74c-.07-.428-.381-.74-.825-.74h-.062c-.748 0-1.098.662-1.098 1.402 0 .74.35 1.401 1.098 1.401h.062c.444 0 .755-.311.825-.74h.74c-.078.841-.709 1.363-1.596 1.363Zm4.144 0c-1.2 0-1.869-.88-1.869-2.024 0-1.145.67-2.025 1.869-2.025.887 0 1.518.522 1.596 1.363h-.74c-.07-.428-.381-.74-.825-.74h-.062c-.748 0-1.098.662-1.098 1.402 0 .74.35 1.401 1.098 1.401h.062c.444 0 .755-.311.825-.74h.74c-.078.841-.709 1.363-1.596 1.363Zm4.136 0c-1.051 0-1.869-.818-1.869-2.024 0-1.207.818-2.025 1.869-2.025 1.051 0 1.868.818 1.868 2.025 0 1.206-.817 2.024-1.868 2.024Zm-.031-.623h.062c.63 0 1.098-.506 1.098-1.401 0-.896-.467-1.402-1.098-1.402h-.062c-.631 0-1.098.506-1.098 1.402 0 .895.467 1.401 1.098 1.401Zm4.114.623c-.873 0-1.324-.584-1.324-1.402V45.47h.74v2.414c0 .623.257.934.786.934h.062c.499 0 .981-.467.981-1.246V45.47h.74v3.893h-.74v-.74c-.148.429-.568.818-1.246.818Zm3.895-.078h-.74V45.47h.74v.545c.234-.35.623-.623 1.246-.623.895 0 1.401.545 1.401 1.363v2.608h-.74V46.91c0-.545-.233-.895-.786-.895h-.062c-.553 0-1.059.428-1.059 1.168v2.18Zm5.942 0h-.934c-.545 0-.857-.311-.857-.856v-2.398h-.856v-.639h.856V44.21h.74v1.261h.934v.639h-.934v2.28c0 .234.078.312.311.312h.74v.662Zm2.1.078c-1.035 0-1.596-.545-1.596-1.285h.74c.039.467.405.662.864.662h.062c.405 0 .725-.195.725-.506 0-.25-.141-.42-.53-.498l-.568-.11c-.631-.124-1.137-.451-1.137-1.113 0-.778.693-1.199 1.472-1.199 1.019 0 1.541.545 1.541 1.285h-.74c-.038-.35-.256-.662-.763-.662h-.062c-.436 0-.708.226-.708.498 0 .273.155.42.545.499l.615.124c.591.117 1.074.436 1.074 1.137 0 .7-.63 1.168-1.534 1.168Zm6.427 0c-.545 0-1.09-.273-1.285-.623v.545h-.739v-5.45h.739v2.102c.195-.35.662-.623 1.207-.623.973 0 1.752.74 1.752 2.025 0 1.284-.701 2.024-1.674 2.024Zm-.187-.623h.063c.591 0 1.058-.467 1.058-1.401 0-.935-.467-1.402-1.058-1.402h-.063c-.553 0-1.098.467-1.098 1.402 0 .934.545 1.401 1.098 1.401Zm3.852.623c-.74 0-1.285-.49-1.285-1.152 0-.888.787-1.153 1.417-1.207l1.075-.086v-.125c0-.544-.312-.856-.81-.856h-.062c-.405 0-.755.195-.802.584h-.74c.047-.716.693-1.207 1.573-1.207 1.035 0 1.58.685 1.58 1.48v1.635c0 .233 0 .584.039.856h-.7c-.039-.195-.039-.584-.039-.623-.156.35-.623.7-1.246.7Zm.086-.623h.062c.475 0 1.059-.39 1.059-.856v-.398l-.973.078c-.452.04-.779.257-.779.615 0 .32.265.561.631.561Zm3.731.545h-.739v-5.45h.739v5.45Zm2.22.078c-.74 0-1.285-.49-1.285-1.152 0-.888.787-1.153 1.418-1.207l1.074-.086v-.125c0-.544-.311-.856-.81-.856h-.062c-.405 0-.755.195-.802.584h-.74c.047-.716.693-1.207 1.573-1.207 1.036 0 1.581.685 1.581 1.48v1.635c0 .233 0 .584.039.856h-.701c-.039-.195-.039-.584-.039-.623-.156.35-.623.7-1.246.7Zm.086-.623h.062c.475 0 1.059-.39 1.059-.856v-.398l-.973.078c-.452.04-.779.257-.779.615 0 .32.265.561.631.561Zm3.731.545h-.739V45.47h.739v.545c.234-.35.623-.623 1.246-.623.896 0 1.402.545 1.402 1.363v2.608h-.74V46.91c0-.545-.234-.895-.786-.895h-.063c-.552 0-1.059.428-1.059 1.168v2.18Zm5.412.078c-1.199 0-1.868-.88-1.868-2.024 0-1.145.669-2.025 1.868-2.025.888 0 1.519.522 1.596 1.363h-.739c-.07-.428-.382-.74-.826-.74h-.062c-.747 0-1.098.662-1.098 1.402 0 .74.351 1.401 1.098 1.401h.062c.444 0 .756-.311.826-.74h.739c-.077.841-.708 1.363-1.596 1.363Zm4.113 0c-.965 0-1.837-.67-1.837-2.032 0-1.347.895-2.017 1.814-2.017 1.012 0 1.65.7 1.65 1.713v.428h-2.725c.047.888.615 1.285 1.09 1.285h.063c.381 0 .747-.195.825-.607h.74c-.141.786-.818 1.23-1.62 1.23Zm-1.051-2.492h1.939c-.031-.677-.436-.934-.88-.934h-.062c-.405 0-.857.241-.997.934Zm3.613 1.994c0-.192.047-.327.14-.405a.508.508 0 0 1 .335-.117.52.52 0 0 1 .343.117c.098.078.148.213.148.405 0 .187-.05.321-.148.404a.5.5 0 0 1-.343.125.488.488 0 0 1-.335-.125c-.093-.083-.14-.218-.14-.404Zm0-3.333c0-.197.047-.335.14-.413a.508.508 0 0 1 .335-.116.52.52 0 0 1 .343.116c.098.078.148.216.148.413 0 .187-.05.322-.148.405a.5.5 0 0 1-.343.125.488.488 0 0 1-.335-.125c-.093-.083-.14-.218-.14-.405Z"/><path fill="#000" d="m144.055 45.26 1.386-1.347h.716v5.45h-.888v-4.142l-1.214 1.176V45.26Zm5.384 4.18c-1.401 0-2.187-1.058-2.187-2.802s.809-2.803 2.187-2.803c1.379 0 2.188 1.059 2.188 2.803s-.786 2.803-2.188 2.803Zm-.038-.793h.077c.732 0 1.231-.662 1.231-2.009s-.499-2.009-1.231-2.009h-.077c-.74 0-1.231.662-1.231 2.009s.491 2.009 1.231 2.009Zm4.873.794c-1.074 0-1.884-.6-1.977-1.565h.918c.086.49.499.77 1.028.77h.078c.561 0 .973-.389.973-.98 0-.569-.42-.919-.957-.919h-.078c-.296 0-.67.132-.911.444h-.864l.669-3.278h3.006v.81h-2.313l-.342 1.611c.241-.241.638-.381 1.004-.381 1.012 0 1.705.708 1.705 1.674 0 1.074-.786 1.814-1.939 1.814Zm6.168-.46a6.23 6.23 0 0 1-.833-.07 2.621 2.621 0 0 1-.654-.186v-.662c.177.083.402.155.677.218.276.062.545.096.81.101v-1.573a5.52 5.52 0 0 1-.669-.233 1.861 1.861 0 0 1-.46-.296 1.118 1.118 0 0 1-.272-.374 1.357 1.357 0 0 1-.086-.498c0-.255.06-.473.179-.654.125-.182.299-.325.522-.428.223-.11.485-.172.786-.187v-.686h.498v.678c.276.005.525.036.748.093.228.052.436.117.623.195l-.21.576a3.697 3.697 0 0 0-.553-.171 3.374 3.374 0 0 0-.608-.101v1.565c.343.098.629.205.857.319.228.109.4.246.514.413.119.16.179.37.179.63 0 .364-.135.66-.405.888-.27.223-.651.36-1.145.412v.865h-.498v-.834Zm.498-.638c.307-.031.53-.101.67-.21.14-.114.21-.26.21-.436a.593.593 0 0 0-.078-.32.6.6 0 0 0-.272-.225 2.692 2.692 0 0 0-.53-.18v1.371Zm-.498-3.605c-.187.01-.34.044-.459.101a.633.633 0 0 0-.273.21.547.547 0 0 0-.085.304c0 .135.023.252.07.35a.642.642 0 0 0 .257.242c.119.062.283.12.49.171v-1.378Zm4.082 4.625h-.934v-5.45h.934v5.45Zm2.266 0h-.934v-5.45h2.452c.966 0 1.69.623 1.69 1.48 0 .692-.343 1.175-.911 1.377.599 0 .833.257.833.771v1.822h-.934v-1.588c0-.405-.117-.522-.522-.522h-1.674v2.11Zm0-4.617v1.682h1.285c.646 0 .988-.35.988-.872 0-.537-.342-.81-.988-.81h-1.285Zm6.678 4.695c-1.519 0-2.609-1.051-2.609-2.803s1.09-2.803 2.609-2.803c1.526 0 2.616 1.051 2.616 2.803s-1.09 2.803-2.616 2.803Zm-.039-.833h.077c.989 0 1.643-.732 1.643-1.97s-.654-1.97-1.643-1.97h-.077c-.989 0-1.635.732-1.635 1.97s.646 1.97 1.635 1.97Zm7.23-.483v-4.212h.935v5.45h-1.246l-2.312-4.236v4.236h-.935v-5.45h1.246l2.312 4.212Z"/><rect width="254.018" height="19.273" x="58.638" y="73.724" fill="#fff" rx="1.703"/><rect width="254.018" height="19.273" x="58.638" y="73.724" stroke="#0D0C22" stroke-width=".487" rx="1.703"/><circle cx="68.614" cy="83.117" r="2.19" stroke="#000" stroke-width=".487"/><path stroke="#000" stroke-width=".487" d="m70.074 84.577 1.46 1.459"/><path fill="#7F7F7F" d="M81.438 84.928c-1.124 0-1.84-.545-1.874-1.601h.681c0 .647.504.988 1.22.988h.068c.64 0 .988-.32.988-.715 0-.389-.245-.614-.75-.716l-.763-.156c-.763-.157-1.205-.586-1.205-1.343 0-.749.674-1.362 1.703-1.362 1.056 0 1.73.579 1.764 1.499h-.681c-.034-.545-.47-.886-1.05-.886h-.067c-.593 0-.988.32-.988.743 0 .367.252.585.654.667l.763.15c.824.164 1.301.6 1.301 1.376 0 .838-.708 1.356-1.764 1.356Zm4.06 0c-.845 0-1.608-.586-1.608-1.778 0-1.179.784-1.765 1.587-1.765.886 0 1.445.614 1.445 1.5v.374h-2.385c.041.776.538 1.124.954 1.124h.055c.333 0 .654-.17.722-.531h.647c-.123.688-.715 1.076-1.417 1.076Zm-.92-2.18h1.697c-.028-.593-.382-.818-.77-.818h-.055c-.354 0-.75.212-.872.818Zm4.102 2.18c-.647 0-1.124-.43-1.124-1.008 0-.777.688-1.009 1.24-1.056l.94-.075v-.11c0-.476-.273-.749-.709-.749h-.054c-.354 0-.66.17-.702.511h-.647c.04-.626.606-1.056 1.376-1.056.906 0 1.383.6 1.383 1.295v1.43c0 .205 0 .511.034.75h-.613c-.034-.17-.034-.511-.034-.545-.136.306-.545.613-1.09.613Zm.075-.545h.054c.416 0 .927-.34.927-.75v-.347l-.852.068c-.395.034-.68.225-.68.538 0 .28.23.491.55.491Zm4.049.545c-1.05 0-1.636-.77-1.636-1.771 0-1.002.586-1.772 1.635-1.772.777 0 1.329.457 1.397 1.193h-.647c-.061-.375-.334-.648-.722-.648h-.055c-.654 0-.96.58-.96 1.227 0 .647.306 1.226.96 1.226h.055c.388 0 .66-.272.722-.647h.647c-.068.736-.62 1.192-1.397 1.192Zm2.842-.068h-.647V80.09h.647v1.84c.204-.307.545-.546 1.09-.546.783 0 1.226.477 1.226 1.193v2.282h-.647v-2.146c0-.477-.204-.784-.688-.784h-.054c-.484 0-.927.375-.927 1.022v1.908Z"/><rect width="295.867" height="65.694" x="58.638" y="100.975" fill="#fff" stroke="#000" stroke-width=".487" rx="1.703"/><rect width="295.867" height="65.694" x="58.638" y="176.888" fill="#fff" stroke="#000" stroke-width=".487" rx="1.703"/><path fill="#7F7F7F" d="m340.714 131.96 1.857 1.862-1.857 1.861.572.572 2.433-2.433-2.433-2.433-.572.571ZM340.714 207.874l1.857 1.861-1.857 1.861.572.572 2.433-2.433-2.433-2.433-.572.572Z"/><path fill="#0D0C22" d="M128.303 117.95h-.681v-4.769h2.01c.885 0 1.533.525 1.533 1.445 0 .919-.648 1.444-1.533 1.444h-1.329v1.88Zm0-4.155v1.662h1.227c.613 0 .953-.286.953-.831 0-.545-.34-.831-.953-.831h-1.227Zm4.248 4.155h-.647v-3.406h.613v.749c.137-.511.545-.783.988-.783h.307v.627h-.273c-.613 0-.988.408-.988 1.09v1.723Zm2.596-4.019h-.716v-.75h.716v.75Zm-.034 4.019h-.647v-3.406h.647v3.406Zm1.67 0h-.648v-3.406h.648v.477a1.19 1.19 0 0 1 1.022-.545c.49 0 .899.191 1.124.633.265-.47.708-.633 1.124-.633.783 0 1.226.477 1.226 1.192v2.282h-.647v-2.146c0-.477-.205-.783-.688-.783h-.055c-.415 0-.858.375-.858 1.022v1.907h-.647v-2.146c0-.477-.205-.783-.688-.783h-.055c-.415 0-.858.375-.858 1.022v1.907Zm6.406.068c-.647 0-1.124-.429-1.124-1.008 0-.776.688-1.008 1.24-1.056l.94-.075v-.109c0-.477-.272-.749-.708-.749h-.055c-.354 0-.661.17-.701.511h-.648c.041-.627.607-1.056 1.377-1.056.906 0 1.382.599 1.382 1.294v1.431c0 .204 0 .511.035.749h-.614c-.034-.17-.034-.511-.034-.545-.136.307-.545.613-1.09.613Zm.075-.545h.055c.415 0 .926-.34.926-.749v-.347l-.851.068c-.395.034-.682.225-.682.538 0 .279.232.49.552.49Zm3.265.477h-.647v-3.406h.613v.749c.137-.511.545-.783.988-.783h.307v.627h-.273c-.613 0-.988.408-.988 1.09v1.723Zm4.313-3.406h.667l-1.396 3.331v.62c0 .477-.239.716-.716.716h-1.124v-.579h.954c.204 0 .273-.069.273-.273v-.477l-1.431-3.338h.688l1.063 2.514 1.022-2.514Zm6.807 3.406h-.708l-.477-1.226h-2.275l-.477 1.226h-.695l1.887-4.769h.872l1.873 4.769Zm-2.323-4.142-.899 2.303h1.799l-.9-2.303Zm4.282 4.21c-1.049 0-1.635-.769-1.635-1.771 0-1.001.586-1.771 1.635-1.771.776 0 1.328.456 1.396 1.192h-.647c-.061-.375-.334-.647-.722-.647h-.055c-.654 0-.96.579-.96 1.226s.306 1.226.96 1.226h.055c.388 0 .661-.272.722-.647h.647c-.068.736-.62 1.192-1.396 1.192Zm3.626 0c-1.049 0-1.635-.769-1.635-1.771 0-1.001.586-1.771 1.635-1.771.776 0 1.328.456 1.396 1.192h-.647c-.061-.375-.334-.647-.722-.647h-.055c-.654 0-.96.579-.96 1.226s.306 1.226.96 1.226h.055c.388 0 .661-.272.722-.647h.647c-.068.736-.62 1.192-1.396 1.192Zm3.619 0c-.92 0-1.635-.715-1.635-1.771s.715-1.771 1.635-1.771c.919 0 1.635.715 1.635 1.771s-.716 1.771-1.635 1.771Zm-.027-.545h.054c.552 0 .961-.442.961-1.226 0-.783-.409-1.226-.961-1.226h-.054c-.552 0-.961.443-.961 1.226 0 .784.409 1.226.961 1.226Zm3.599.545c-.763 0-1.158-.511-1.158-1.226v-2.248h.647v2.112c0 .545.225.817.688.817h.055c.436 0 .858-.408.858-1.09v-1.839h.647v3.406h-.647v-.647c-.129.375-.497.715-1.09.715Zm3.409-.068h-.648v-3.406h.648v.477c.204-.307.545-.545 1.09-.545.783 0 1.226.477 1.226 1.192v2.282h-.647v-2.146c0-.477-.205-.783-.688-.783h-.055c-.484 0-.926.375-.926 1.022v1.907Zm5.199 0h-.818c-.477 0-.749-.272-.749-.749v-2.098h-.749v-.559h.749v-1.104h.647v1.104h.818v.559h-.818v1.996c0 .204.068.272.273.272h.647v.579ZM129.128 193.932c-1.125 0-1.84-.545-1.874-1.601h.681c0 .647.504.988 1.22.988h.068c.64 0 .988-.321.988-.716 0-.388-.245-.613-.75-.715l-.763-.157c-.763-.156-1.206-.586-1.206-1.342 0-.749.675-1.362 1.704-1.362 1.056 0 1.73.579 1.764 1.498h-.681c-.034-.545-.47-.885-1.049-.885h-.068c-.593 0-.988.32-.988.742 0 .368.252.586.654.668l.763.15c.824.163 1.301.599 1.301 1.376 0 .838-.708 1.356-1.764 1.356Zm4.06 0c-.845 0-1.608-.586-1.608-1.778 0-1.179.783-1.765 1.587-1.765.886 0 1.445.613 1.445 1.499v.375h-2.385c.041.776.538 1.124.954 1.124h.054c.334 0 .654-.171.723-.532h.647c-.123.689-.716 1.077-1.417 1.077Zm-.92-2.18h1.696c-.027-.593-.381-.818-.769-.818h-.055c-.354 0-.749.211-.872.818Zm4.613 2.18c-1.049 0-1.635-.77-1.635-1.771 0-1.002.586-1.772 1.635-1.772.777 0 1.328.457 1.396 1.192h-.647c-.061-.374-.334-.647-.722-.647h-.054c-.654 0-.961.579-.961 1.227 0 .647.307 1.226.961 1.226h.054c.388 0 .661-.273.722-.647h.647c-.068.735-.619 1.192-1.396 1.192Zm3.619 0c-.92 0-1.635-.716-1.635-1.771 0-1.056.715-1.772 1.635-1.772s1.635.716 1.635 1.772c0 1.055-.715 1.771-1.635 1.771Zm-.027-.545h.054c.552 0 .961-.443.961-1.226 0-.784-.409-1.227-.961-1.227h-.054c-.552 0-.961.443-.961 1.227 0 .783.409 1.226.961 1.226Zm3.122.477h-.647v-3.407h.647v.477c.205-.306.545-.545 1.09-.545.784 0 1.227.477 1.227 1.192v2.283h-.647v-2.146c0-.477-.205-.784-.689-.784h-.054c-.484 0-.927.375-.927 1.022v1.908Zm4.572.068c-.851 0-1.464-.647-1.464-1.771 0-1.125.681-1.772 1.532-1.772.477 0 .886.239 1.056.545v-1.839h.648v4.769h-.648v-.477c-.17.306-.647.545-1.124.545Zm.109-.545h.055c.484 0 .96-.409.96-1.226 0-.818-.476-1.227-.96-1.227h-.055c-.517 0-.926.409-.926 1.227 0 .817.409 1.226.926 1.226Zm3.602.545c-.647 0-1.124-.429-1.124-1.008 0-.777.688-1.009 1.24-1.056l.94-.075v-.109c0-.477-.272-.75-.708-.75h-.055c-.354 0-.661.171-.702.511h-.647c.041-.627.607-1.056 1.376-1.056.907 0 1.383.6 1.383 1.295v1.43c0 .205 0 .511.034.75h-.613c-.034-.171-.034-.511-.034-.545-.136.306-.545.613-1.09.613Zm.075-.545h.055c.415 0 .926-.341.926-.75v-.347l-.851.068c-.396.034-.682.225-.682.538 0 .28.232.491.552.491Zm3.265.477h-.647v-3.407h.613v.75c.137-.511.545-.784.988-.784h.307v.627h-.273c-.613 0-.988.409-.988 1.09v1.724Zm4.313-3.407h.667l-1.396 3.332v.62c0 .477-.239.715-.716.715h-1.124v-.579h.954c.204 0 .273-.068.273-.273v-.476l-1.431-3.339h.688l1.063 2.514 1.022-2.514Zm6.807 3.407h-.708l-.477-1.227h-2.276l-.476 1.227h-.695l1.887-4.769h.872l1.873 4.769Zm-2.323-4.142-.899 2.302h1.798l-.899-2.302Zm4.282 4.21c-1.05 0-1.635-.77-1.635-1.771 0-1.002.585-1.772 1.635-1.772.776 0 1.328.457 1.396 1.192h-.647c-.061-.374-.334-.647-.722-.647h-.055c-.654 0-.96.579-.96 1.227 0 .647.306 1.226.96 1.226h.055c.388 0 .661-.273.722-.647h.647c-.068.735-.62 1.192-1.396 1.192Zm3.626 0c-1.05 0-1.635-.77-1.635-1.771 0-1.002.585-1.772 1.635-1.772.776 0 1.328.457 1.396 1.192h-.647c-.061-.374-.334-.647-.722-.647h-.055c-.654 0-.96.579-.96 1.227 0 .647.306 1.226.96 1.226h.055c.388 0 .661-.273.722-.647h.647c-.068.735-.62 1.192-1.396 1.192Zm3.619 0c-.92 0-1.635-.716-1.635-1.771 0-1.056.715-1.772 1.635-1.772.919 0 1.635.716 1.635 1.772 0 1.055-.716 1.771-1.635 1.771Zm-.028-.545h.055c.552 0 .961-.443.961-1.226 0-.784-.409-1.227-.961-1.227h-.055c-.551 0-.96.443-.96 1.227 0 .783.409 1.226.96 1.226Zm3.6.545c-.763 0-1.158-.511-1.158-1.226v-2.249h.647v2.112c0 .545.225.818.688.818h.055c.436 0 .858-.409.858-1.09v-1.84h.647v3.407h-.647v-.648c-.129.375-.497.716-1.09.716Zm3.408-.068h-.647v-3.407h.647v.477c.205-.306.546-.545 1.091-.545.783 0 1.226.477 1.226 1.192v2.283h-.647v-2.146c0-.477-.205-.784-.688-.784h-.055c-.484 0-.927.375-.927 1.022v1.908Zm5.2 0h-.818c-.477 0-.749-.273-.749-.75v-2.098h-.75v-.559h.75v-1.103h.647v1.103h.818v.559h-.818v1.996c0 .204.068.273.273.273h.647v.579ZM127.406 130.969l2.569-2.055h.911v8.175h-1.144v-6.633l-2.336 1.845v-1.332Zm9.093 6.237c-2.067 0-3.726-1.343-3.726-4.204 0-2.862 1.671-4.205 3.726-4.205 2.056 0 3.737 1.343 3.737 4.205 0 2.861-1.67 4.204-3.737 4.204Zm-.082-1.016h.164c1.063 0 2.464-.666 2.464-3.188 0-2.523-1.401-3.189-2.464-3.189h-.164c-1.051 0-2.452.666-2.452 3.189 0 2.522 1.401 3.188 2.452 3.188Zm8.933 1.016c-2.068 0-3.726-1.343-3.726-4.204 0-2.862 1.67-4.205 3.726-4.205 2.055 0 3.737 1.343 3.737 4.205 0 2.861-1.67 4.204-3.737 4.204Zm-.082-1.016h.163c1.063 0 2.465-.666 2.465-3.188 0-2.523-1.402-3.189-2.465-3.189h-.163c-1.051 0-2.453.666-2.453 3.189 0 2.522 1.402 3.188 2.453 3.188Zm10.643.327a9.406 9.406 0 0 1-1.25-.105c-.405-.07-.732-.164-.981-.281v-.992c.265.124.603.233 1.016.327.413.093.817.144 1.215.152v-2.36a8.183 8.183 0 0 1-1.005-.35 2.75 2.75 0 0 1-.689-.444 1.681 1.681 0 0 1-.409-.56 2.047 2.047 0 0 1-.128-.748c0-.381.089-.708.268-.981.187-.272.448-.486.783-.642a3.01 3.01 0 0 1 1.18-.28v-1.028h.747v1.016c.413.008.786.054 1.121.14a5.7 5.7 0 0 1 .934.292l-.315.864a5.472 5.472 0 0 0-.829-.257 5.112 5.112 0 0 0-.911-.152v2.348c.514.148.942.308 1.285.479.342.163.599.37.77.619.18.241.269.556.269.946 0 .545-.202.989-.607 1.331-.405.335-.977.541-1.717.619v1.297h-.747v-1.25Zm.747-.958c.459-.046.794-.152 1.004-.315a.805.805 0 0 0 .316-.654.89.89 0 0 0-.117-.479c-.078-.132-.214-.245-.409-.339a4.016 4.016 0 0 0-.794-.268v2.055Zm-.747-5.407a1.83 1.83 0 0 0-.69.152.945.945 0 0 0-.408.315.816.816 0 0 0-.129.455c0 .203.035.378.105.526.078.14.207.261.386.362.179.094.424.179.736.257v-2.067Zm6.064 6.937h-1.203v-8.175h1.203v8.175Zm3.467 0h-1.203v-8.175h4.438c1.565 0 2.675.946 2.675 2.231 0 1.051-.643 1.763-1.308 1.997.852 0 1.144.385 1.144 1.203v2.744h-1.203v-2.452c0-.643-.187-.818-.829-.818h-3.714v3.27Zm0-7.101v2.757h3.06c1.028 0 1.635-.584 1.635-1.402 0-.876-.607-1.355-1.635-1.355h-3.06Zm11.939 7.218c-2.582 0-4.52-1.588-4.52-4.204 0-2.617 1.938-4.205 4.52-4.205 2.581 0 4.508 1.588 4.508 4.205 0 2.616-1.927 4.204-4.508 4.204Zm-.094-1.075h.187c1.74 0 3.2-1.144 3.2-3.129 0-1.986-1.46-3.13-3.2-3.13h-.187c-1.74 0-3.212 1.144-3.212 3.13 0 1.985 1.472 3.129 3.212 3.129Zm12.753-.385v-6.832h1.203v8.175h-1.659l-4.753-6.832v6.832h-1.203v-8.175h1.659l4.753 6.832ZM131.131 207.911c1.729 0 2.944 1.039 2.944 2.499 0 1.647-1.308 2.709-3.282 2.709-1.787 0-3.119-.77-3.305-2.277h1.226c.21.817 1.028 1.261 1.997 1.261h.164c1.261 0 2.008-.689 2.008-1.658 0-.911-.794-1.518-1.95-1.518h-.164c-.642 0-1.401.221-1.775.747h-1.214l.992-4.847h5.092v1.075h-4.227l-.549 2.628c.525-.421 1.261-.619 2.043-.619Zm9.736 4.519a9.255 9.255 0 0 1-1.25-.105c-.405-.07-.732-.163-.981-.28v-.993c.265.125.604.234 1.016.327a6.01 6.01 0 0 0 1.215.152v-2.359a8.155 8.155 0 0 1-1.004-.351 2.757 2.757 0 0 1-.689-.443 1.667 1.667 0 0 1-.409-.561 2.024 2.024 0 0 1-.129-.747c0-.382.09-.709.269-.981.187-.273.448-.487.782-.643a3.027 3.027 0 0 1 1.18-.28v-1.028h.747v1.016c.413.008.787.055 1.122.14.342.078.654.176.934.292l-.315.865a5.409 5.409 0 0 0-.83-.257 4.995 4.995 0 0 0-.911-.152v2.347c.514.148.943.308 1.285.479.343.164.6.37.771.619.179.242.269.557.269.946 0 .545-.203.989-.608 1.332-.405.334-.977.541-1.717.619v1.296h-.747v-1.25Zm.747-.957c.46-.047.795-.152 1.005-.316a.807.807 0 0 0 .315-.654.892.892 0 0 0-.117-.479c-.077-.132-.214-.245-.408-.338a4.02 4.02 0 0 0-.795-.269v2.056Zm-.747-5.408c-.28.016-.51.066-.689.152a.954.954 0 0 0-.409.315.829.829 0 0 0-.128.456c0 .202.035.378.105.525a.961.961 0 0 0 .385.362c.179.094.425.18.736.257v-2.067Zm6.064 6.938h-1.202v-8.176h1.202v8.176Zm3.468 0h-1.203v-8.176h4.438c1.565 0 2.674.946 2.674 2.231 0 1.051-.642 1.763-1.308 1.997.853 0 1.145.385 1.145 1.203v2.745h-1.203v-2.453c0-.642-.187-.818-.829-.818h-3.714v3.271Zm0-7.101v2.756h3.06c1.027 0 1.635-.584 1.635-1.401 0-.876-.608-1.355-1.635-1.355h-3.06Zm11.938 7.217c-2.581 0-4.52-1.588-4.52-4.204 0-2.616 1.939-4.205 4.52-4.205 2.581 0 4.508 1.589 4.508 4.205s-1.927 4.204-4.508 4.204Zm-.093-1.074h.186c1.741 0 3.2-1.145 3.2-3.13 0-1.986-1.459-3.13-3.2-3.13h-.186c-1.741 0-3.212 1.144-3.212 3.13 0 1.985 1.471 3.13 3.212 3.13Zm12.752-.386v-6.832h1.203v8.176h-1.658l-4.753-6.833v6.833h-1.203v-8.176h1.658l4.753 6.832Z"/><g clip-path="url(#a)"><path fill="#7F7F7F" d="M192.216 146.717h-2.919a.488.488 0 0 0-.487.487v3.406h.487v-3.406h2.919v-.487Zm.73.973h-2.676a.488.488 0 0 0-.487.487v3.406c0 .268.219.487.487.487h2.676a.488.488 0 0 0 .487-.487v-3.406a.488.488 0 0 0-.487-.487Zm0 3.893h-2.676v-3.406h2.676v3.406Z"/></g><g clip-path="url(#b)"><path fill="#7F7F7F" d="M192.216 222.631h-2.919a.488.488 0 0 0-.487.486v3.407h.487v-3.407h2.919v-.486Zm.73.973h-2.676a.488.488 0 0 0-.487.486v3.407c0 .267.219.486.487.486h2.676a.488.488 0 0 0 .487-.486v-3.407a.488.488 0 0 0-.487-.486Zm0 3.893h-2.676v-3.407h2.676v3.407Z"/></g><path fill="#7F7F7F" d="M130.204 152.014h-.654v-1.083h-2.344v-.654l2.351-3.032h.647v3.107h.749v.579h-.749v1.083Zm-.654-3.856-1.703 2.194h1.703v-2.194Zm3.552 3.924c-.872 0-1.615-.456-1.683-1.328h.668c.061.49.483.749.981.749h.068c.572 0 .967-.422.967-.988 0-.524-.409-.906-.933-.906h-.068c-.307 0-.661.157-.852.463h-.661l.579-2.827h2.555v.613h-2.057l-.334 1.547c.259-.252.613-.375.954-.375.885 0 1.485.634 1.485 1.451 0 .94-.729 1.601-1.669 1.601Zm4.292-3.202c.852 0 1.54.613 1.54 1.567 0 .981-.716 1.635-1.669 1.635-1.056 0-1.765-.831-1.765-2.296 0-1.533.927-2.609 2.017-2.609.817 0 1.383.45 1.519 1.226h-.668c-.102-.381-.381-.64-.804-.64h-.081c-.75 0-1.308.763-1.39 1.901.238-.491.749-.784 1.301-.784Zm-.15 2.616h.068c.511 0 .954-.409.954-1.015 0-.613-.443-1.022-.954-1.022h-.068c-.511 0-.981.436-.981 1.015 0 .573.47 1.022.981 1.022Zm4.538.518h-.817c-.477 0-.75-.273-.75-.749v-2.099h-.749v-.558h.749v-1.104h.648v1.104h.817v.558h-.817v1.996c0 .205.068.273.272.273h.647v.579Zm1.457 0h-.818v-.818h.818v.818Zm1.716 0h-.817v-.818h.817v.818Zm1.717 0h-.818v-.818h.818v.818Zm2.377.068c-.872 0-1.615-.456-1.683-1.328h.668c.061.49.484.749.981.749h.068c.572 0 .967-.422.967-.988 0-.524-.408-.906-.933-.906h-.068c-.307 0-.661.157-.852.463h-.66l.579-2.827h2.554v.613h-2.057l-.334 1.547c.259-.252.613-.375.954-.375.886 0 1.485.634 1.485 1.451 0 .94-.729 1.601-1.669 1.601Zm5.226-.068h-.654v-1.083h-2.344v-.654l2.351-3.032h.647v3.107h.749v.579h-.749v1.083Zm-.654-3.856-1.703 2.194h1.703v-2.194Zm3.592 3.924c-.926 0-1.567-.511-1.655-1.315h.661c.095.47.456.736.96.736h.062c.504 0 .919-.307.919-.783 0-.498-.368-.804-.865-.804h-.409v-.573h.409c.497 0 .831-.367.831-.803 0-.491-.381-.784-.885-.784h-.062c-.456 0-.845.32-.885.749h-.648c.041-.763.723-1.328 1.601-1.328.852 0 1.547.565 1.547 1.26 0 .613-.354 1.022-.825 1.172.471.116.859.497.859 1.145 0 .763-.681 1.328-1.615 1.328Zm3.795 0c-.852 0-1.465-.647-1.465-1.771 0-1.124.681-1.771 1.533-1.771.477 0 .885.238 1.056.545v-1.84h.647v4.769h-.647v-.477c-.171.307-.647.545-1.124.545Zm.109-.545h.054c.484 0 .961-.409.961-1.226 0-.818-.477-1.226-.961-1.226h-.054c-.518 0-.927.408-.927 1.226 0 .817.409 1.226.927 1.226Zm3.438.477h-.817v-.818h.817v.818Zm1.717 0h-.818v-.818h.818v.818Zm1.716 0h-.817v-.818h.817v.818Zm2.377.068c-.872 0-1.614-.456-1.682-1.328h.667c.062.49.484.749.981.749h.068c.573 0 .968-.422.968-.988 0-.524-.409-.906-.933-.906h-.069c-.306 0-.66.157-.851.463h-.661l.579-2.827h2.555v.613h-2.058l-.333 1.547c.258-.252.613-.375.953-.375.886 0 1.486.634 1.486 1.451 0 .94-.729 1.601-1.67 1.601Zm4 0c-.927 0-1.567-.511-1.656-1.315h.661c.096.47.457.736.961.736h.061c.504 0 .92-.307.92-.783 0-.498-.368-.804-.865-.804h-.409v-.573h.409c.497 0 .831-.367.831-.803 0-.491-.382-.784-.886-.784h-.061c-.457 0-.845.32-.886.749h-.647c.041-.763.722-1.328 1.601-1.328.852 0 1.546.565 1.546 1.26 0 .613-.354 1.022-.824 1.172.47.116.859.497.859 1.145 0 .763-.682 1.328-1.615 1.328Zm3.794 0c-.851 0-1.464-.647-1.464-1.771 0-1.124.681-1.771 1.532-1.771.477 0 .886.238 1.056.545v-1.84h.648v4.769h-.648v-.477c-.17.307-.647.545-1.124.545Zm.109-.545h.055c.484 0 .96-.409.96-1.226 0-.818-.476-1.226-.96-1.226h-.055c-.517 0-.926.408-.926 1.226 0 .817.409 1.226.926 1.226Zm4.1.545c-.872 0-1.615-.456-1.683-1.328h.667c.062.49.484.749.981.749h.069c.572 0 .967-.422.967-.988 0-.524-.409-.906-.933-.906h-.068c-.307 0-.661.157-.852.463h-.661l.579-2.827h2.555v.613h-2.057l-.334 1.547c.259-.252.613-.375.954-.375.885 0 1.485.634 1.485 1.451 0 .94-.729 1.601-1.669 1.601ZM128.923 227.995c-.845 0-1.608-.585-1.608-1.778 0-1.178.784-1.764 1.588-1.764.885 0 1.444.613 1.444 1.499v.374h-2.384c.04.777.538 1.124.953 1.124h.055c.334 0 .654-.17.722-.531h.647c-.122.688-.715 1.076-1.417 1.076Zm-.92-2.18h1.697c-.027-.592-.382-.817-.77-.817h-.055c-.354 0-.749.211-.872.817Zm4.613 2.18c-1.049 0-1.635-.769-1.635-1.771 0-1.001.586-1.771 1.635-1.771.777 0 1.329.456 1.397 1.192h-.647c-.062-.375-.334-.647-.722-.647h-.055c-.654 0-.961.579-.961 1.226s.307 1.226.961 1.226h.055c.388 0 .66-.272.722-.647h.647c-.068.736-.62 1.192-1.397 1.192Zm1.848-4.223v-.614h3.304v.648c-1.212.735-1.798 1.962-1.798 3.985v.136h-.668v-.197c0-1.949.688-3.277 1.771-3.958h-2.609Zm5.224 4.223c-1.049 0-1.635-.769-1.635-1.771 0-1.001.586-1.771 1.635-1.771.777 0 1.329.456 1.397 1.192h-.647c-.061-.375-.334-.647-.722-.647h-.055c-.654 0-.96.579-.96 1.226s.306 1.226.96 1.226h.055c.388 0 .661-.272.722-.647h.647c-.068.736-.62 1.192-1.397 1.192Zm2.952-.068h-.818v-.817h.818v.817Zm1.716 0h-.817v-.817h.817v.817Zm1.717 0h-.818v-.817h.818v.817Zm2.571.068c-1.178 0-1.873-.851-1.873-2.452s.695-2.453 1.873-2.453c1.179 0 1.874.852 1.874 2.453s-.695 2.452-1.874 2.452Zm-.034-.579h.068c.511 0 1.172-.402 1.172-1.873 0-1.472-.661-1.874-1.172-1.874h-.068c-.511 0-1.172.402-1.172 1.874 0 1.471.661 1.873 1.172 1.873Zm3.721.579c-.648 0-1.124-.429-1.124-1.008 0-.776.688-1.008 1.239-1.056l.941-.075v-.109c0-.477-.273-.749-.709-.749h-.054c-.355 0-.661.17-.702.511h-.647c.041-.627.606-1.056 1.376-1.056.906 0 1.383.599 1.383 1.294v1.431c0 .204 0 .511.034.749h-.613c-.034-.17-.034-.511-.034-.545-.137.307-.545.613-1.09.613Zm.075-.545h.054c.416 0 .927-.34.927-.749v-.347l-.852.068c-.395.034-.681.225-.681.538 0 .279.231.49.552.49Zm2.137-3.678v-.614h3.304v.648c-1.212.735-1.798 1.962-1.798 3.985v.136h-.668v-.197c0-1.949.688-3.277 1.771-3.958h-2.609Zm5.887 2.364-1.274 1.178h2.459v.613h-3.222v-.722l1.539-1.465c.423-.401.947-.756.947-1.342 0-.449-.354-.729-.804-.729h-.068c-.524 0-.885.389-.885.913h-.682c.007-.913.688-1.492 1.601-1.492.818 0 1.506.457 1.506 1.274 0 .757-.566 1.254-1.117 1.772Zm2.801 1.791h-.817v-.817h.817v.817Zm1.717 0h-.818v-.817h.818v.817Zm1.716 0h-.817v-.817h.817v.817Zm2.827-1.791-1.274 1.178h2.46v.613h-3.223v-.722l1.54-1.465c.422-.401.947-.756.947-1.342 0-.449-.355-.729-.804-.729h-.068c-.525 0-.886.389-.886.913h-.681c.007-.913.688-1.492 1.601-1.492.817 0 1.505.457 1.505 1.274 0 .757-.565 1.254-1.117 1.772Zm3.912 0-1.274 1.178h2.46v.613h-3.223v-.722l1.54-1.465c.422-.401.947-.756.947-1.342 0-.449-.355-.729-.804-.729h-.068c-.525 0-.886.389-.886.913h-.681c.007-.913.688-1.492 1.601-1.492.817 0 1.505.457 1.505 1.274 0 .757-.565 1.254-1.117 1.772Zm3.497 1.859c-.879 0-1.492-.517-1.492-1.26 0-.545.34-.954.803-1.124a1.223 1.223 0 0 1-.899-1.172c0-.797.647-1.349 1.588-1.349.94 0 1.587.552 1.587 1.349 0 .579-.416 1.049-.899 1.172.463.17.804.579.804 1.124 0 .743-.614 1.26-1.492 1.26Zm-.035-2.697h.069c.511 0 .885-.341.885-.825 0-.477-.374-.804-.885-.804h-.069c-.51 0-.885.327-.885.804 0 .484.375.825.885.825Zm0 2.118h.069c.476 0 .797-.306.797-.749 0-.45-.321-.79-.797-.79h-.069c-.476 0-.797.34-.797.79 0 .443.321.749.797.749Zm3.776.579c-.852 0-1.465-.647-1.465-1.771 0-1.124.681-1.771 1.533-1.771.477 0 .886.238 1.056.545v-1.84h.647v4.769h-.647v-.477c-.17.307-.647.545-1.124.545Zm.109-.545h.054c.484 0 .961-.408.961-1.226 0-.817-.477-1.226-.961-1.226h-.054c-.518 0-.927.409-.927 1.226 0 .818.409 1.226.927 1.226Z"/><rect width="52.555" height="52.555" x="66.424" y="108.761" fill="url(#c)" stroke="#000" stroke-width=".487" rx="1.703"/><rect width="52.555" height="52.555" x="66.424" y="184.674" fill="url(#d)" stroke="#000" stroke-width=".487" rx="1.703"/><rect width="52.555" height="52.555" x="63.991" y="106.327" fill="url(#e)" stroke="#000" stroke-width=".487" rx="1.703"/><rect width="52.555" height="52.555" x="63.991" y="182.241" fill="url(#f)" stroke="#000" stroke-width=".487" rx="1.703"/><path fill="#000" d="m101.851 132.288-.73-1.266-2.48-4.291-.532-.923a.516.516 0 0 0-.448-.259h-7.486a.516.516 0 0 0-.447.259l-.596 1.032-2.62 4.536a.23.23 0 0 1-.429-.115v-2.156a3.56 3.56 0 0 0-3.555-3.556h-3.042a.516.516 0 0 0-.517.516v3.04c0 1.418.845 2.685 2.151 3.229a.23.23 0 0 1 .142.211v.002a.23.23 0 0 1-.142.212 3.489 3.489 0 0 0-2.15 3.209v3.062c0 .285.23.516.516.516h3.04a3.56 3.56 0 0 0 3.556-3.556v-2.156a.23.23 0 0 1 .429-.113l2.788 4.826.427.74c.092.16.263.259.448.259h7.485a.516.516 0 0 0 .448-.259l.792-1.372 1.862-3.225.026-.047.856-1.481.205-.356a.513.513 0 0 0 .003-.518Zm-7.877 2.976c-1.46 0-2.648-1.219-2.648-2.717 0-1.499 1.187-2.717 2.648-2.717 1.46 0 2.649 1.218 2.649 2.717 0 1.498-1.19 2.717-2.649 2.717ZM101.851 208.201l-.73-1.265-2.48-4.292-.532-.923a.516.516 0 0 0-.448-.259h-7.486a.516.516 0 0 0-.447.259l-.596 1.033-2.62 4.536a.237.237 0 0 1-.258.106.227.227 0 0 1-.17-.222v-2.156a3.56 3.56 0 0 0-3.556-3.556h-3.042a.516.516 0 0 0-.517.517v3.039a3.49 3.49 0 0 0 2.151 3.23.228.228 0 0 1 .142.21v.002a.23.23 0 0 1-.142.212 3.49 3.49 0 0 0-2.15 3.209v3.062c0 .285.23.516.516.516h3.04a3.56 3.56 0 0 0 3.556-3.555v-2.156a.23.23 0 0 1 .429-.114l2.788 4.827.427.739a.514.514 0 0 0 .448.259h7.485a.514.514 0 0 0 .448-.259l.792-1.371 1.862-3.226.026-.047.856-1.481.205-.356a.513.513 0 0 0 .003-.518Zm-7.877 2.976c-1.46 0-2.648-1.219-2.648-2.717s1.187-2.717 2.648-2.717c1.46 0 2.649 1.219 2.649 2.717s-1.19 2.717-2.649 2.717Z"/><g filter="url(#g)"><rect width="54.989" height="17.84" x="273.969" y="112.41" fill="#000" rx="8.92" shape-rendering="crispEdges"/><rect width="54.259" height="17.11" x="274.334" y="112.775" stroke="#000" stroke-width=".73" rx="8.555" shape-rendering="crispEdges"/><path stroke="#fff" stroke-width=".73" d="M289.341 118.749c.755.655 2.628 1.602 4.079.151M293.571 122.979c-.655-.755-1.602-2.628-.151-4.079M288.409 123.911l5.162-5.162"/><path fill="#fff" d="M300.054 123.408c-1.285 0-2.102-.623-2.141-1.83h.778c0 .74.576 1.129 1.394 1.129h.078c.732 0 1.129-.366 1.129-.817 0-.444-.281-.701-.857-.818l-.872-.179c-.872-.179-1.378-.67-1.378-1.534 0-.856.771-1.557 1.947-1.557 1.206 0 1.977.662 2.016 1.713h-.778c-.039-.623-.538-1.012-1.199-1.012h-.078c-.678 0-1.129.366-1.129.848 0 .421.288.67.747.763l.872.172c.942.186 1.487.685 1.487 1.572 0 .958-.809 1.55-2.016 1.55Zm4.64 0c-.965 0-1.837-.67-1.837-2.032 0-1.347.895-2.017 1.814-2.017 1.012 0 1.65.701 1.65 1.713v.428h-2.725c.047.888.615 1.285 1.09 1.285h.063c.381 0 .747-.195.825-.607h.74c-.141.786-.818 1.23-1.62 1.23Zm-1.051-2.492h1.939c-.032-.677-.436-.934-.88-.934h-.062c-.405 0-.857.241-.997.934Zm4.376 2.414h-.739v-3.893h.739v.545c.234-.35.623-.623 1.246-.623.895 0 1.402.545 1.402 1.363v2.608h-.74v-2.453c0-.545-.234-.895-.787-.895h-.062c-.553 0-1.059.428-1.059 1.168v2.18Zm5.225.078c-.973 0-1.674-.74-1.674-2.025 0-1.284.779-2.024 1.752-2.024.545 0 1.012.273 1.207.623v-2.102h.74v5.45h-.74v-.545c-.195.35-.74.623-1.285.623Zm.125-.623h.062c.553 0 1.098-.467 1.098-1.402 0-.934-.545-1.401-1.098-1.401h-.062c-.592 0-1.059.467-1.059 1.401 0 .935.467 1.402 1.059 1.402Z"/></g><g filter="url(#h)"><rect width="54.989" height="17.84" x="273.969" y="188.324" fill="#000" rx="8.92" shape-rendering="crispEdges"/><rect width="54.259" height="17.11" x="274.334" y="188.689" stroke="#000" stroke-width=".73" rx="8.555" shape-rendering="crispEdges"/><path stroke="#fff" stroke-width=".73" d="M289.341 194.663c.755.654 2.628 1.601 4.079.151"/><path stroke="#fff" stroke-width=".73" d="M293.571 198.893c-.655-.756-1.602-2.629-.151-4.079M288.409 199.824l5.162-5.161"/><path fill="#fff" d="M300.054 199.321c-1.285 0-2.102-.623-2.141-1.83h.778c0 .74.576 1.129 1.394 1.129h.078c.732 0 1.129-.366 1.129-.817 0-.444-.281-.701-.857-.818l-.872-.179c-.872-.179-1.378-.669-1.378-1.534 0-.856.771-1.557 1.947-1.557 1.206 0 1.977.662 2.016 1.713h-.778c-.039-.623-.538-1.012-1.199-1.012h-.078c-.678 0-1.129.366-1.129.849 0 .42.288.669.747.763l.872.171c.942.187 1.487.685 1.487 1.573 0 .957-.809 1.549-2.016 1.549Zm4.64 0c-.965 0-1.837-.669-1.837-2.032 0-1.347.895-2.017 1.814-2.017 1.012 0 1.65.701 1.65 1.713v.429h-2.725c.047.887.615 1.284 1.09 1.284h.063c.381 0 .747-.194.825-.607h.74c-.141.786-.818 1.23-1.62 1.23Zm-1.051-2.491h1.939c-.032-.678-.436-.935-.88-.935h-.062c-.405 0-.857.242-.997.935Zm4.376 2.413h-.739v-3.893h.739v.545c.234-.35.623-.623 1.246-.623.895 0 1.402.545 1.402 1.363v2.608h-.74v-2.452c0-.545-.234-.896-.787-.896h-.062c-.553 0-1.059.429-1.059 1.168v2.18Zm5.225.078c-.973 0-1.674-.74-1.674-2.024 0-1.285.779-2.025 1.752-2.025.545 0 1.012.273 1.207.623v-2.102h.74v5.45h-.74v-.545c-.195.351-.74.623-1.285.623Zm.125-.623h.062c.553 0 1.098-.467 1.098-1.401 0-.935-.545-1.402-1.098-1.402h-.062c-.592 0-1.059.467-1.059 1.402 0 .934.467 1.401 1.059 1.401Z"/></g><g filter="url(#i)"><rect width="54.91" height="17.84" x="273.969" y="136.741" fill="#000" rx="8.92" shape-rendering="crispEdges"/><rect width="54.18" height="17.11" x="274.334" y="137.106" stroke="#000" stroke-width=".73" rx="8.555" shape-rendering="crispEdges"/><path stroke="#fff" stroke-width=".73" d="M288.1 148.242c-.755-.655-2.628-1.602-4.079-.151"/><path stroke="#fff" stroke-width=".73" d="M283.87 144.012c.655.755 1.601 2.628.151 4.079M289.032 143.08l-5.162 5.162"/><path fill="#fff" d="M294.572 147.661h-.778v-5.45h2.335c1.012 0 1.713.623 1.713 1.479 0 .701-.389 1.223-.895 1.378.623 0 .817.218.817.763v1.83h-.778v-1.635c0-.428-.117-.545-.545-.545h-1.869v2.18Zm0-4.749v1.868h1.441c.661 0 1.051-.428 1.051-.973 0-.584-.39-.895-1.051-.895h-1.441Zm5.963 4.827c-.966 0-1.838-.67-1.838-2.032 0-1.347.896-2.017 1.814-2.017 1.012 0 1.651.701 1.651 1.713v.428h-2.725c.047.888.615 1.285 1.09 1.285h.062c.382 0 .748-.195.825-.607h.74c-.14.786-.817 1.23-1.619 1.23Zm-1.051-2.492h1.938c-.031-.677-.436-.934-.88-.934h-.062c-.405 0-.856.241-.996.934Zm5.271 2.492c-1.199 0-1.868-.88-1.868-2.024 0-1.145.669-2.025 1.868-2.025.888 0 1.519.522 1.596 1.363h-.739c-.07-.428-.382-.74-.826-.74h-.062c-.747 0-1.098.662-1.098 1.402 0 .739.351 1.401 1.098 1.401h.062c.444 0 .756-.311.826-.74h.739c-.077.841-.708 1.363-1.596 1.363Zm4.113 0c-.965 0-1.837-.67-1.837-2.032 0-1.347.895-2.017 1.814-2.017 1.012 0 1.65.701 1.65 1.713v.428h-2.725c.047.888.615 1.285 1.09 1.285h.063c.381 0 .747-.195.825-.607h.74c-.141.786-.818 1.23-1.62 1.23Zm-1.051-2.492h1.939c-.031-.677-.436-.934-.88-.934h-.062c-.405 0-.857.241-.997.934Zm4.415-2.18h-.817v-.856h.817v.856Zm-.039 4.594h-.739v-3.893h.739v3.893Zm2.602-.724 1.129-3.169h.755l-1.44 3.893h-.896l-1.44-3.893h.763l1.129 3.169Zm4.102.802c-.965 0-1.837-.67-1.837-2.032 0-1.347.895-2.017 1.814-2.017 1.012 0 1.65.701 1.65 1.713v.428h-2.725c.047.888.615 1.285 1.09 1.285h.063c.381 0 .747-.195.825-.607h.74c-.141.786-.818 1.23-1.62 1.23Zm-1.051-2.492h1.939c-.031-.677-.436-.934-.88-.934h-.062c-.405 0-.857.241-.997.934Z"/></g><g filter="url(#j)"><rect width="54.91" height="17.84" x="273.969" y="212.655" fill="#000" rx="8.92" shape-rendering="crispEdges"/><rect width="54.18" height="17.11" x="274.334" y="213.02" stroke="#000" stroke-width=".73" rx="8.555" shape-rendering="crispEdges"/><path stroke="#fff" stroke-width=".73" d="M288.1 224.155c-.755-.654-2.628-1.601-4.079-.151"/><path stroke="#fff" stroke-width=".73" d="M283.87 219.925c.655.756 1.601 2.629.151 4.079M289.032 218.994l-5.162 5.161"/><path fill="#fff" d="M294.572 223.575h-.778v-5.451h2.335c1.012 0 1.713.623 1.713 1.48 0 .7-.389 1.222-.895 1.378.623 0 .817.218.817.763v1.83h-.778v-1.636c0-.428-.117-.545-.545-.545h-1.869v2.181Zm0-4.75v1.869h1.441c.661 0 1.051-.429 1.051-.974 0-.583-.39-.895-1.051-.895h-1.441Zm5.963 4.827c-.966 0-1.838-.669-1.838-2.032 0-1.347.896-2.016 1.814-2.016 1.012 0 1.651.7 1.651 1.713v.428h-2.725c.047.887.615 1.285 1.09 1.285h.062c.382 0 .748-.195.825-.608h.74c-.14.787-.817 1.23-1.619 1.23Zm-1.051-2.491h1.938c-.031-.678-.436-.934-.88-.934h-.062c-.405 0-.856.241-.996.934Zm5.271 2.491c-1.199 0-1.868-.879-1.868-2.024s.669-2.024 1.868-2.024c.888 0 1.519.521 1.596 1.362h-.739c-.07-.428-.382-.739-.826-.739h-.062c-.747 0-1.098.661-1.098 1.401s.351 1.402 1.098 1.402h.062c.444 0 .756-.312.826-.74h.739c-.077.841-.708 1.362-1.596 1.362Zm4.113 0c-.965 0-1.837-.669-1.837-2.032 0-1.347.895-2.016 1.814-2.016 1.012 0 1.65.7 1.65 1.713v.428h-2.725c.047.887.615 1.285 1.09 1.285h.063c.381 0 .747-.195.825-.608h.74c-.141.787-.818 1.23-1.62 1.23Zm-1.051-2.491h1.939c-.031-.678-.436-.934-.88-.934h-.062c-.405 0-.857.241-.997.934Zm4.415-2.18h-.817v-.857h.817v.857Zm-.039 4.594h-.739v-3.893h.739v3.893Zm2.602-.725 1.129-3.168h.755l-1.44 3.893h-.896l-1.44-3.893h.763l1.129 3.168Zm4.102.802c-.965 0-1.837-.669-1.837-2.032 0-1.347.895-2.016 1.814-2.016 1.012 0 1.65.7 1.65 1.713v.428h-2.725c.047.887.615 1.285 1.09 1.285h.063c.381 0 .747-.195.825-.608h.74c-.141.787-.818 1.23-1.62 1.23Zm-1.051-2.491h1.939c-.031-.678-.436-.934-.88-.934h-.062c-.405 0-.857.241-.997.934Z"/></g><g filter="url(#k)"><path fill="#fff" d="M320.686 90.512a2.433 2.433 0 0 0 2.433 2.433h31.144a2.434 2.434 0 0 0 2.433-2.433V75.913a2.433 2.433 0 0 0-2.433-2.433h-31.144a2.433 2.433 0 0 0-2.433 2.433v14.6Z"/><path stroke="#0D0C22" stroke-width=".487" d="M320.929 90.512c0 1.21.98 2.19 2.19 2.19h31.144a2.19 2.19 0 0 0 2.189-2.19V75.913c0-1.209-.98-2.19-2.189-2.19h-31.144c-1.21 0-2.19.981-2.19 2.19v14.6Z"/></g><path fill="#0D0C22" d="M339.869 84.887c-.883 0-1.445-.429-1.472-1.258h.535c0 .508.396.776.958.776h.054c.503 0 .776-.252.776-.562 0-.305-.193-.482-.589-.562l-.599-.123c-.6-.123-.948-.46-.948-1.055 0-.589.53-1.07 1.338-1.07.83 0 1.36.455 1.387 1.177h-.536c-.026-.428-.369-.696-.824-.696h-.053c-.466 0-.777.252-.777.584 0 .289.198.46.514.524l.6.118c.648.129 1.022.471 1.022 1.082 0 .658-.556 1.065-1.386 1.065Zm3.206 0c-.723 0-1.285-.562-1.285-1.392 0-.83.562-1.392 1.285-1.392.723 0 1.285.562 1.285 1.392 0 .83-.562 1.392-1.285 1.392Zm-.021-.429h.042c.434 0 .755-.347.755-.963s-.321-.964-.755-.964h-.042c-.434 0-.755.348-.755.964 0 .615.321.963.755.963Zm2.453.375h-.508v-2.676h.481v.589c.108-.402.429-.616.777-.616h.24v.492h-.214c-.481 0-.776.322-.776.857v1.354Zm3.014 0h-.643c-.374 0-.588-.214-.588-.589v-1.648h-.589v-.44h.589v-.867h.508v.868h.642v.439h-.642v1.568c0 .16.054.214.214.214h.509v.455Z"/><g clip-path="url(#l)"><path fill="#000" d="M334.311 85.65v-3.41h-.973v3.41h-1.46l1.946 1.942 1.947-1.941h-1.46Zm-3.406-6.817-1.947 1.942h1.46v3.411h.973v-3.411h1.46l-1.946-1.942Zm3.406 6.818V82.24h-.973v3.41h-1.46l1.946 1.942 1.947-1.941h-1.46Zm-3.406-6.818-1.947 1.942h1.46v3.411h.973v-3.411h1.46l-1.946-1.942Z"/></g><path fill="#0D0C22" d="m28.253 28.615-2.233-3.868a.308.308 0 0 0-.267-.154h-4.467a.308.308 0 0 0-.267.154l-1.92 3.324a.139.139 0 0 1-.153.063.138.138 0 0 1-.102-.132v-1.286c0-1.17-.952-2.123-2.122-2.123h-1.815a.309.309 0 0 0-.308.31v1.814c0 .846.503 1.603 1.284 1.928a.137.137 0 0 1 0 .252 2.075 2.075 0 0 0-1.284 1.925v1.815c0 .17.138.308.308.308h1.815c1.17 0 2.122-.952 2.122-2.122v-1.286c0-.062.042-.116.102-.133a.14.14 0 0 1 .154.064l1.919 3.324a.31.31 0 0 0 .267.154h4.466c.11 0 .213-.059.267-.154l2.233-3.868c.027-.047.041-.1.041-.153a.301.301 0 0 0-.04-.156Zm-4.7 1.776c-.871 0-1.58-.728-1.58-1.622 0-.894.709-1.622 1.58-1.622.871 0 1.58.728 1.58 1.622 0 .894-.709 1.622-1.58 1.622Z"/><g clip-path="url(#m)"><path fill="#0D0C22" d="M25.791 157.666a5.755 5.755 0 0 0-1.703-.243c-.949 0-1.97.195-2.677.73-.705-.535-1.727-.73-2.676-.73-.949 0-1.97.195-2.676.73v7.129c0 .122.121.243.243.243.049 0 .073-.024.122-.024.657-.316 1.605-.535 2.311-.535.949 0 1.97.194 2.677.73.656-.414 1.849-.73 2.676-.73.803 0 1.63.146 2.311.511a.222.222 0 0 0 .122.024c.122 0 .243-.122.243-.243v-7.105a3.328 3.328 0 0 0-.973-.487Zm0 6.57a5.634 5.634 0 0 0-1.703-.244c-.827 0-2.02.317-2.677.73v-5.596c.657-.414 1.85-.73 2.677-.73.584 0 1.168.073 1.703.243v5.597Z"/></g><g fill="#0D0C22" clip-path="url(#n)"><path d="M17.032 184.431c0-.268.219-.487.486-.487h.974v-.973h-.974c-.807 0-1.46.652-1.46 1.46v.973h.974v-.973ZM17.032 192.217v-.974h-.973v.974c0 .807.652 1.459 1.46 1.459h.973v-.973h-.974a.488.488 0 0 1-.486-.486ZM25.304 182.971h-.973v.973h.973c.268 0 .487.219.487.487v.973h.973v-.973c0-.808-.652-1.46-1.46-1.46ZM25.79 192.217a.488.488 0 0 1-.486.486h-.973v.973h.973c.808 0 1.46-.652 1.46-1.459v-.974h-.973v.974ZM24.818 189.72v-2.793a.963.963 0 0 0-.487-.842l-2.433-1.401a.958.958 0 0 0-.973 0l-2.434 1.396a.977.977 0 0 0-.486.847v2.793c0 .35.185.672.486.842l2.434 1.401a.958.958 0 0 0 .973 0l2.433-1.401a.963.963 0 0 0 .487-.842Zm-3.893 1.119-1.947-1.119v-2.253l1.947 1.134v2.238Zm.486-3.08-1.927-1.124 1.927-1.11 1.927 1.11-1.927 1.124Zm2.433 1.961-1.946 1.119v-2.238l1.946-1.134v2.253Z"/></g><rect width="27.251" height="19.465" x="7.786" y="52.555" fill="#F3F3F4" rx="1.946"/><g clip-path="url(#o)"><path fill="#0D0C22" d="m21.411 59.217 2.433 2.19v3.8h-.973v-2.92h-2.92v2.92h-.973v-3.8l2.433-2.19Zm0-1.309-4.866 4.38h1.46v3.893h2.92v-2.92h.973v2.92h2.92v-3.893h1.46l-4.867-4.38Z"/></g><path stroke="#000" stroke-width=".973" d="M18.924 83.7c1.14.987 3.965 2.415 6.153.227m0 0-.006.006m.006-.006.227-.228m0 6.381c-.986-1.138-2.413-3.96-.233-6.147m0 0-7.552 7.552M23.9 114.843c-1.14-.987-3.966-2.415-6.153-.228m0 0 .005-.005m-.005.005-.228.228m0-6.38c.986 1.138 2.413 3.96.233 6.147m0 0 7.553-7.553"/><path fill="#000" d="M21.36 219.468v-1.037l3.18-3.153 1.046 1.036-3.18 3.154H21.36Zm-5.301-3.066v-.876h4.417v.876H16.06Zm10.16-.716-1.045-1.036.427-.423a.42.42 0 0 1 .31-.117.42.42 0 0 1 .308.117l.427.423c.08.078.118.18.118.307 0 .126-.039.228-.117.306l-.427.423Zm-10.16-1.693v-.876h6.92v.876h-6.92Zm0-2.409v-.876h6.92v.876h-6.92Z"/><circle cx="28.711" cy="211.195" r="1.46" fill="#6A991C"/><g filter="url(#p)"><mask id="q" fill="#fff"><path d="M281.613 39.929c0-5.658 4.587-10.245 10.245-10.245h54.735c5.658 0 10.244 4.587 10.244 10.245 0 5.658-4.586 10.244-10.244 10.244h-54.735c-5.658 0-10.245-4.586-10.245-10.244Z"/></mask><path fill="#fff" d="M281.613 39.929c0-5.658 4.587-10.245 10.245-10.245h54.735c5.658 0 10.244 4.587 10.244 10.245 0 5.658-4.586 10.244-10.244 10.244h-54.735c-5.658 0-10.245-4.586-10.245-10.244Z" shape-rendering="crispEdges"/><path fill="#0D0C22" d="M281.127 39.929c0-5.927 4.804-10.732 10.731-10.732h55.708c5.927 0 10.731 4.805 10.731 10.732h-2.919c0-5.39-3.933-9.758-8.785-9.758h-54.735c-5.389 0-9.758 4.369-9.758 9.758h-.973Zm77.17 0c0 6.464-5.24 11.704-11.704 11.704h-54.735c-5.927 0-10.731-4.804-10.731-10.73l.973-.974c0 4.852 4.369 8.785 9.758 8.785h54.735a8.785 8.785 0 0 0 8.785-8.785h2.919Zm-66.439 11.704c-5.927 0-10.731-4.804-10.731-10.73v-.974c0-5.927 4.804-10.732 10.731-10.732v.974c-5.389 0-9.758 4.369-9.758 9.758 0 4.852 4.369 8.785 9.758 8.785v2.92Zm55.708-22.436c5.927 0 10.731 4.805 10.731 10.732 0 6.464-5.24 11.704-11.704 11.704v-2.92a8.785 8.785 0 0 0 8.785-8.784c0-5.39-3.933-9.758-8.785-9.758l.973-.973Z" mask="url(#q)"/><g clip-path="url(#r)"><path fill="#0D0C22" d="M296.334 40.294h-2.19v2.19h-.73v-2.19h-2.19v-.73h2.19v-2.19h.73v2.19h2.19v.73Z"/></g><path fill="#0D0C22" d="M307.4 41.929h-.809l-.546-1.402h-2.6l-.545 1.402h-.794l2.156-5.45h.997l2.141 5.45Zm-2.655-4.734-1.028 2.632h2.056l-1.028-2.632Zm4.706 4.812c-.973 0-1.674-.74-1.674-2.025 0-1.284.779-2.024 1.752-2.024.545 0 1.013.273 1.207.623v-2.102h.74v5.45h-.74v-.545c-.194.35-.739.623-1.285.623Zm.125-.623h.062c.553 0 1.098-.467 1.098-1.402 0-.934-.545-1.401-1.098-1.401h-.062c-.592 0-1.059.467-1.059 1.401 0 .935.467 1.402 1.059 1.402Zm4.514.623c-.974 0-1.674-.74-1.674-2.025 0-1.284.778-2.024 1.751-2.024.546 0 1.013.273 1.207.623v-2.102h.74v5.45h-.74v-.545c-.194.35-.739.623-1.284.623Zm.124-.623h.062c.553 0 1.098-.467 1.098-1.402 0-.934-.545-1.401-1.098-1.401h-.062c-.592 0-1.059.467-1.059 1.401 0 .935.467 1.402 1.059 1.402Zm9.541.545h-.809l-.545-1.402H319.8l-.545 1.402h-.794l2.157-5.45h.996l2.141 5.45Zm-2.655-4.734-1.027 2.632h2.055l-1.028-2.632Zm4.893 4.812c-1.199 0-1.868-.88-1.868-2.025 0-1.144.669-2.024 1.868-2.024.888 0 1.519.522 1.597 1.363h-.74c-.07-.429-.382-.74-.825-.74h-.063c-.747 0-1.097.662-1.097 1.401 0 .74.35 1.402 1.097 1.402h.063c.443 0 .755-.312.825-.74h.74c-.078.841-.709 1.363-1.597 1.363Zm4.144 0c-1.199 0-1.868-.88-1.868-2.025 0-1.144.669-2.024 1.868-2.024.888 0 1.519.522 1.597 1.363h-.74c-.07-.429-.382-.74-.825-.74h-.063c-.747 0-1.098.662-1.098 1.401 0 .74.351 1.402 1.098 1.402h.063c.443 0 .755-.312.825-.74h.74c-.078.841-.709 1.363-1.597 1.363Zm4.137 0c-1.052 0-1.869-.818-1.869-2.025 0-1.206.817-2.024 1.869-2.024 1.051 0 1.868.818 1.868 2.024 0 1.207-.817 2.025-1.868 2.025Zm-.032-.623h.063c.63 0 1.097-.506 1.097-1.402 0-.895-.467-1.401-1.097-1.401h-.063c-.63 0-1.097.506-1.097 1.401 0 .896.467 1.402 1.097 1.402Zm4.114.623c-.872 0-1.323-.584-1.323-1.402v-2.57h.739v2.415c0 .622.257.934.787.934h.062c.498 0 .981-.467.981-1.246v-2.102h.74v3.893h-.74v-.74c-.148.428-.568.818-1.246.818Zm3.896-.078h-.74v-3.893h.74v.545c.233-.35.622-.623 1.245-.623.896 0 1.402.545 1.402 1.363v2.608h-.74v-2.453c0-.545-.233-.895-.786-.895h-.063c-.552 0-1.058.428-1.058 1.168v2.18Zm5.942 0h-.935c-.545 0-.856-.312-.856-.857v-2.398h-.857v-.638h.857v-1.261h.74v1.26h.934v.64h-.934v2.28c0 .234.077.312.311.312h.74v.662Z"/></g><path stroke="#000" stroke-width=".973" d="M23.574 130.631c.076 1.064.775 3.191 2.963 3.191m0 0H16.059m10.478 0h.228M19.25 139.281c-.077-1.063-.776-3.19-2.963-3.19m0 0H26.765m-10.478 0h-.228"/><defs><clipPath id="a"><path fill="#fff" d="M188.324 146.474h5.839v5.839h-5.839z"/></clipPath><clipPath id="b"><path fill="#fff" d="M188.324 222.387h5.839v5.839h-5.839z"/></clipPath><clipPath id="l"><path fill="#fff" d="M326.525 77.373h11.679v11.68h-11.679z"/></clipPath><clipPath id="m"><path fill="#fff" d="M15.572 155.233H27.25v11.679H15.57z"/></clipPath><clipPath id="n"><path fill="#fff" d="M15.572 182.484H27.25v11.679H15.57z"/></clipPath><clipPath id="o"><path fill="#fff" d="M15.572 56.448H27.25v11.68H15.57z"/></clipPath><clipPath id="r"><path fill="#fff" d="M289.399 35.55h8.759v8.758h-8.759z"/></clipPath><filter id="g" width="65.695" height="28.545" x="268.616" y="109.004" color-interpolation-filters="sRGB" filterUnits="userSpaceOnUse"><feFlood flood-opacity="0" result="BackgroundImageFix"/><feColorMatrix in="SourceAlpha" result="hardAlpha" values="0 0 0 0 0 0 0 0 0 0 0 0 0 0 0 0 0 0 127 0"/><feOffset dy="1.946"/><feGaussianBlur stdDeviation="2.676"/><feComposite in2="hardAlpha" operator="out"/><feColorMatrix values="0 0 0 0 0 0 0 0 0 0 0 0 0 0 0 0 0 0 0.04 0"/><feBlend in2="BackgroundImageFix" result="effect1_dropShadow_3211_6282"/><feBlend in="SourceGraphic" in2="effect1_dropShadow_3211_6282" result="shape"/></filter><filter id="h" width="65.695" height="28.545" x="268.616" y="184.917" color-interpolation-filters="sRGB" filterUnits="userSpaceOnUse"><feFlood flood-opacity="0" result="BackgroundImageFix"/><feColorMatrix in="SourceAlpha" result="hardAlpha" values="0 0 0 0 0 0 0 0 0 0 0 0 0 0 0 0 0 0 127 0"/><feOffset dy="1.946"/><feGaussianBlur stdDeviation="2.676"/><feComposite in2="hardAlpha" operator="out"/><feColorMatrix values="0 0 0 0 0 0 0 0 0 0 0 0 0 0 0 0 0 0 0.04 0"/><feBlend in2="BackgroundImageFix" result="effect1_dropShadow_3211_6282"/><feBlend in="SourceGraphic" in2="effect1_dropShadow_3211_6282" result="shape"/></filter><filter id="i" width="65.615" height="28.545" x="268.616" y="133.335" color-interpolation-filters="sRGB" filterUnits="userSpaceOnUse"><feFlood flood-opacity="0" result="BackgroundImageFix"/><feColorMatrix in="SourceAlpha" result="hardAlpha" values="0 0 0 0 0 0 0 0 0 0 0 0 0 0 0 0 0 0 127 0"/><feOffset dy="1.946"/><feGaussianBlur stdDeviation="2.676"/><feComposite in2="hardAlpha" operator="out"/><feColorMatrix values="0 0 0 0 0 0 0 0 0 0 0 0 0 0 0 0 0 0 0.04 0"/><feBlend in2="BackgroundImageFix" result="effect1_dropShadow_3211_6282"/><feBlend in="SourceGraphic" in2="effect1_dropShadow_3211_6282" result="shape"/></filter><filter id="j" width="65.615" height="28.545" x="268.616" y="209.248" color-interpolation-filters="sRGB" filterUnits="userSpaceOnUse"><feFlood flood-opacity="0" result="BackgroundImageFix"/><feColorMatrix in="SourceAlpha" result="hardAlpha" values="0 0 0 0 0 0 0 0 0 0 0 0 0 0 0 0 0 0 127 0"/><feOffset dy="1.946"/><feGaussianBlur stdDeviation="2.676"/><feComposite in2="hardAlpha" operator="out"/><feColorMatrix values="0 0 0 0 0 0 0 0 0 0 0 0 0 0 0 0 0 0 0.04 0"/><feBlend in2="BackgroundImageFix" result="effect1_dropShadow_3211_6282"/><feBlend in="SourceGraphic" in2="effect1_dropShadow_3211_6282" result="shape"/></filter><filter id="k" width="46.716" height="30.171" x="315.333" y="70.074" color-interpolation-filters="sRGB" filterUnits="userSpaceOnUse"><feFlood flood-opacity="0" result="BackgroundImageFix"/><feColorMatrix in="SourceAlpha" result="hardAlpha" values="0 0 0 0 0 0 0 0 0 0 0 0 0 0 0 0 0 0 127 0"/><feOffset dy="1.946"/><feGaussianBlur stdDeviation="2.676"/><feComposite in2="hardAlpha" operator="out"/><feColorMatrix values="0 0 0 0 0 0 0 0 0 0 0 0 0 0 0 0 0 0 0.04 0"/><feBlend in2="BackgroundImageFix" result="effect1_dropShadow_3211_6282"/><feBlend in="SourceGraphic" in2="effect1_dropShadow_3211_6282" result="shape"/></filter><filter id="p" width="85.93" height="31.195" x="276.26" y="26.278" color-interpolation-filters="sRGB" filterUnits="userSpaceOnUse"><feFlood flood-opacity="0" result="BackgroundImageFix"/><feColorMatrix in="SourceAlpha" result="hardAlpha" values="0 0 0 0 0 0 0 0 0 0 0 0 0 0 0 0 0 0 127 0"/><feOffset dy="1.946"/><feGaussianBlur stdDeviation="2.676"/><feComposite in2="hardAlpha" operator="out"/><feColorMatrix values="0 0 0 0 0 0 0 0 0 0 0 0 0 0 0 0 0 0 0.04 0"/><feBlend in2="BackgroundImageFix" result="effect1_dropShadow_3211_6282"/><feBlend in="SourceGraphic" in2="effect1_dropShadow_3211_6282" result="shape"/></filter><linearGradient id="c" x1="63.991" x2="119.196" y1="132.848" y2="134.634" gradientUnits="userSpaceOnUse"><stop stop-color="#fff"/><stop offset="1" stop-color="#DE83F0"/></linearGradient><linearGradient id="d" x1="119.223" x2="64.234" y1="209.735" y2="206.815" gradientUnits="userSpaceOnUse"><stop stop-color="#C7F182"/><stop offset="1" stop-color="#fff"/></linearGradient><linearGradient id="e" x1="63.748" x2="116.778" y1="132.362" y2="133.143" gradientUnits="userSpaceOnUse"><stop stop-color="#F4BFFF"/><stop offset="1" stop-color="#DE83F0"/></linearGradient><linearGradient id="f" x1="63.748" x2="116.79" y1="212.168" y2="209.735" gradientUnits="userSpaceOnUse"><stop stop-color="#E1FFB0"/><stop offset="1" stop-color="#C7F182"/></linearGradient></defs></svg>