<svg xmlns="http://www.w3.org/2000/svg" width="294" height="203" fill="none"><g clip-path="url(#a)"><path fill="#F2B2FF" d="M97.264 172.176c-.537-1.305-1.655-2.311-2.673-3.222-.803-.8-1.525-1.668-2.57-2.165-2.002-1.287-4.021-2.613-6.285-3.386a40.18 40.18 0 0 0-3.39-1.123 3.986 3.986 0 0 1-.778.082c-.812.108-1.594.583-1.934 1.356-.068.799.275 1.789 1.036 2.143.219.108.352.263.43.436 3.2 1.231 7.579 3.525 7.489 5.97-.417.829-1.29 1.382-1.942 2.013-1.603 1.3-3.378 2.427-5.281 3.235-.683.358-1.491.678-1.697 1.304-.245.86-.052 2.082.846 2.475.353.117.79.117 1.1.316 2.239-.769 4.37-1.814 6.47-2.894 3.36-1.659 6.61-3.793 9.174-6.54h.005ZM120.041 162.224c.098-2.333-.843-4.51-2.106-6.415-.142-.298-.421-.609-.644-.924a29.798 29.798 0 0 1-.396-.402c-1.903-1.814-4.12-3.227-6.496-4.324-3.571-2.155-7.124-3.589-11.348-3.455 1.448 7.019 4.254 10.656 9.389 15.39 2.535 2.242 5.465 4.108 8.653 5.244.069-.052.142-.095.223-.134 1.865-.911 2.63-3.002 2.72-4.976l.005-.004Z"/><path fill="#CE6AE2" d="M82.801 183.018c-1.512.574-3.252 1.127-4.412 1.119l-.026.332c-.159 3.145-.206 6.566-2.17 9.192-1.645 2.359-4.662 1.698-7.128 1.776-8.542-.139-17.006 1.2-25.535 1.127l-.928-.039c-1.435.147-2.93.238-4.297.665-1.199.406-2.325 1.4-2.771 2.592-.138.289-.142.609-.215.916.051.03.103.056.163.077 2.986.825 6.278.277 9.358.484 7.794.151 15.541-.855 23.318-.915 2.858-.07 5.72.112 8.572-.087 4.134.164 5.796-2.596 5.646-6.458.017-3.576 1.182-7.243.43-10.777l-.005-.004Z"/><path fill="#F2B2FF" d="M139.161 21.377v.134a57.614 57.614 0 0 1-.056 2.54c2.329-.747 3.076-2.397.056-2.67v-.004ZM47.16 167.053c.009-2.6.052-1.819-2.08-2.32 0 .104-.004.208-.008.311-.021.825-.052 1.655-.073 2.484a71.78 71.78 0 0 0-.043 2.151c1.813-.769 1.98-.514 2.204-2.626Z"/><path fill="#F2B2FF" d="M42.49 194.793c.232-.035.481-.035.709.017 8.335.186 16.632-1.201 24.955-1.093.829 0 1.663-.026 2.492-.017 1.585.074 3.476.238 4.387-1.374 1.452-2.306 1.452-5.101 1.602-7.736.215-2.613.297-5.11.275-7.71-.107-6.592.391-13.17.357-19.762.047-2.825-.125-5.736-1.117-8.393-.657-1.568-2.252-1.248-3.566-1.412-5.784-.177-11.567.047-17.355 0-3.042-.009-6.036.462-9.066.561-3.467-.155-6.973-.263-10.419.177-8.881 1.59-8.585 2.601-8.645 11.119-.039 5.36.19 10.717.383 16.073.111 3.045.3 6.09.55 9.088.073 2.069.163 4.138.618 6.164.34 2.98 2.81 3.482 5.354 3.624 2.797.415 5.624.592 8.447.674h.047-.008Zm21.08-31.675c.816.631 1.06 1.767 1.482 2.669.382 1.015.872 1.974 1.327 2.955.537 1.447.774 3.015 1.487 4.397.039-3.118-.069-6.233-.09-9.347.021-1.128 1.688-1.141 1.718 0 .013 2.89.125 5.784.09 8.673 0 1.249.01 2.497-.025 3.745.026.899-.224 2.29-1.435 1.767-.378-.199-.46-.618-.563-.993-.267-.994-.713-1.931-1.126-2.869-1.091-2.082-1.336-4.505-2.51-6.561.117 2.907.259 5.814.164 8.73 0 .795.052 2.155-1.083 2.052-.584-.07-.97-.774-.661-1.292.094-2.16.034-4.324.017-6.484-.21-1.771-.103-3.576-.19-5.347-.02-.419-.08-.838-.09-1.257-.017-.76.851-1.274 1.487-.834v-.004Zm-7.752 10.198c.082-2.851.52-5.68.27-8.531.168-1.106 1.47-1.404 2.381-1.654.378-.346 1.07-.259 1.31.212.645 1.447-1.147 1.377-1.972 1.84.138 1.641.06 3.278-.056 4.915.688-.19 1.5-.57 1.998.035.512.738-.124 1.438-.91 1.455-.361.087-.821.251-1.216.251-.125 1.667-.228 3.335-.125 5.006.842-.22 1.676-.475 2.514-.699 1.09-.286 1.533 1.326.46 1.667-1.298.281-2.6.963-3.945.855-.846-.22-.726-1.205-.748-1.892-.09-1.153-.025-2.306.039-3.455v-.005Zm-.09-22.418c-.138 1.076-1.998.972-1.977-.13.009-1.231 2.149-1.105 1.977.13Zm-1.147 12.976a.877.877 0 0 1-.495 1.028c-.605.151-1.228.164-1.808.358-.06 1.702-.035 3.408-.022 5.115a.863.863 0 0 1 .258-.087c.03-.004.064-.008.094-.017.847-.868 2.067.432 1.26 1.279-.396.358-1.118.565-1.603.358 0 1.737-.052 3.469-.254 5.192.86-.034 2.557-.652 2.797.57.06.454-.266.929-.734.972-1.032-.004-2.028.268-3.038.346-.877-.125-.855-1.05-.752-1.732.047-.722.12-1.443.176-2.164.176-3.02.043-6.048.069-9.076 0-.656-.005-1.395.438-1.926.524-.583 1.38-.614 2.101-.773.589-.126 1.315-.173 1.517.553l-.004.004ZM47.56 150.03c.726.021 1.452.004 2.174-.052.679-.065 1.744-.242 1.86.691.056.449-.283.933-.752.963a47.53 47.53 0 0 1-3.6.143c-1.19-.251-.842-1.849.314-1.745h.004Zm-3.665 12.971c.902-.315 1.813.238 2.724.259.89-.008 1.749.489 2.028 1.37.485 1.991.49 5.386-1.84 6.164 1.359 1.326 1.715 3.291 1.986 5.101.034.907.438 3.227-.984 3.101-1.194-.241-.541-1.697-.683-2.539-.25-1.538-.434-4.16-2.144-4.73.034 1.779.133 3.559.073 5.343.09.665-.374 1.486-1.13 1.266-.494-.147-.8-.726-.589-1.206.065-1.732-.013-3.464-.064-5.196-.047-2.207.013-4.41.086-6.613.124-.773-.365-1.905.545-2.315l-.008-.005Zm-1.603 9.473c-.017.803-.009 1.607-.021 2.41.025 2.549-.688 3.702-3.378 3.404-1.572.03-2.316-.721-2.462-2.268-.167-1.896-.047-3.814-.034-5.714.202-3.046-.034-7.512 4.198-7.3.868-.121 1.34.989.657 1.542-.236.203-.593.198-.906.194-1.594-.168-1.981 1.581-2.041 2.799-.13 1.719-.25 3.417-.22 5.136.018 1.361-.145 2.561.203 3.806a6.542 6.542 0 0 0 2.028.047c.45-1.343.141-2.847.257-4.246a.797.797 0 0 1-.446-.181.784.784 0 0 1-.447-.631c-.108-.899 1.005-1.3 1.572-.886.138.026.271.065.387.113.748.272.696 1.123.649 1.779l.004-.004ZM112.298 174.051a38.831 38.831 0 0 0-8.954 8.919c-1.182 1.486-2.518 3.05-3.446 4.635-1.001 1.547-1.693 3.266-2.466 4.933 8.004 1.806 15.906-2.35 21.767-7.727a3.76 3.76 0 0 1 .287-.575c.297-.691.649-1.512.752-2.229.568-3.3-.098-8.492-2.582-10.954-1.899.786-3.652 1.857-5.354 2.998h-.004Z"/><path fill="#CE6AE2" d="M174.467 156.57c.004 1.084 0 2.168-.022 3.256 1.341.173 2.66.454 3.957.821.026-.203.035-.402.005-.579-.022-2.954.124-5.909-.606-8.781-.98-.048-1.921.06-2.892.121-.227 0-.515.026-.812.047l.013.069c.344 1.655.335 3.361.352 5.046h.005Z"/><path fill="#F2B2FF" d="M126.842 39.39c.073 2.069.163 4.138.619 6.164.339 2.98 2.81 3.481 5.354 3.624 2.797.414 5.624.592 8.447.674h.047c.232-.035.481-.035.709.017 8.336.185 16.632-1.201 24.955-1.093.829 0 1.663-.026 2.492-.017 1.586.073 3.476.237 4.387-1.374 1.452-2.306 1.452-5.101 1.603-7.736.215-2.614.296-5.11.275-7.71-.108-6.592.391-13.17.356-19.762.048-2.825-.124-5.737-1.117-8.393-.657-1.568-2.251-1.248-3.566-1.413-5.783-.177-11.567.048-17.354 0-3.042-.008-6.037.463-9.066.562-3.468-.156-6.974-.264-10.42.177-8.881 1.59-8.584 2.6-8.645 11.119-.038 5.36.189 10.716.383 16.072.112 3.046.301 6.09.55 9.089h-.009Zm33.02-33.978c-.172 1.072-2.028.907-1.972-.19.047-1.226 2.183-1.036 1.972.19Zm-.627 15.02c1.637 1.433 2.024 3.883 1.74 5.956-.443 2.756-3.51 3.935-5.994 3.93-.7.061-1.465-.354-1.413-1.148-.018-3.011.034-6.022-.026-9.032a.863.863 0 0 1-.189-.536c0-.423.313-.782.717-.851 1.951-1.123 3.833.29 5.169 1.685l-.004-.005Zm-7.511-16.143c.722.043 1.453.052 2.174.018.684-.044 1.749-.186 1.839.747.039.45-.309.924-.777.937-1.203.06-2.402.065-3.601.03-1.182-.289-.782-1.874.365-1.732Zm-6.879 24.371c.013-1.261 0-2.523.03-3.784.215-5.382-1.018-5.611 4.993-5.978.49-.458 1.375-.108 1.538.518.228 1.503-1.791 1.158-2.732 1.283-.684.065-1.371.134-2.028.324-.005.873-.018 1.75-.031 2.622.86.013 1.728.134 2.57 0 .468 0 .816.384.881.825.099.847-.765 1.114-1.44.972a45.417 45.417 0 0 0-2.032-.06c-.017 1.122-.034 2.25-.034 3.373 1.259 0 2.517.03 3.772.017.468-.013.859.402.859.864-.051 1.404-2.367.717-3.308.851-.919-.103-2.29.324-2.883-.57-.206-.372-.155-.847-.155-1.257Zm-7.678-.622c.056-1.18.086-2.57.202-3.685.077-1.209.069-2.423.073-3.632-.06-.523.254-1.037.791-1.123 1.134-.013 2.359.181 3.381.695 2.582 1.71.834 4.549-1.585 5.257.962.609 4.692 4.017 2.87 4.976-.421.177-.954-.022-1.126-.462-.58-1.296-1.671-2.376-2.831-3.166-.022 1.257-.198 2.427-.189 3.624a.87.87 0 0 1-.86.864c-1.452-.057-.653-2.493-.722-3.348h-.004ZM142.585 171.511c.447.021 1.04-.069 1.569-.065.038-2.544-.116-4.981-1.01-5.844-.49.228-.559.725-.589 1.213-.043.795-.034 1.59-.03 2.385.013.773.039 1.542.06 2.311Z"/><path fill="#CE6AE2" d="M167.88 50.495c-8.542-.138-17.006 1.2-25.535 1.128l-.928-.04c-1.435.148-2.931.238-4.297.666-1.199.406-2.325 1.4-2.771 2.591-.138.29-.142.61-.215.916.051.03.103.056.163.078 2.986.825 6.278.276 9.358.484 7.794.151 15.541-.855 23.318-.916 2.858-.069 5.719.112 8.572-.086 4.134.164 5.796-2.596 5.646-6.458.017-3.577 1.182-7.244.43-10.777-1.513.574-3.253 1.127-4.413 1.119l-.026.332c-.159 3.145-.206 6.566-2.17 9.192-1.645 2.359-4.662 1.698-7.128 1.775l-.004-.004ZM179.751 30.824a.811.811 0 0 1 .593-.22c1.908-.98 3.717-2.164 5.225-3.698-.833-1.235-2.213-1.952-3.463-2.69-1.349-.644-2.724-1.34-4.151-1.733-.116-.026-.24-.056-.365-.086-.094 3.097-.172 6.194-.154 9.295a18.6 18.6 0 0 0 1.581-.48c.24-.137.485-.271.734-.388ZM174.101 176.634c.533-.143 1.061-.29 1.581-.48.241-.138.486-.272.735-.388a.809.809 0 0 1 .593-.221c1.908-.98 3.717-2.164 5.225-3.697-.834-1.236-2.213-1.953-3.463-2.691-1.35-.644-2.725-1.339-4.151-1.732-.116-.026-.241-.057-.365-.087-.095 3.097-.172 6.194-.155 9.296Z"/><path fill="#F2B2FF" d="M155.282 21.222c.004.88.004 1.758.004 2.639v4.726c3.528-.225 4.842-2.19 3.682-5.551-.236-.873-.992-1.43-1.624-2.004-.567-.501-1.272-1.158-2.084-.89.013.358.017.721.022 1.084v-.004Z"/><path fill="#CE6AE2" d="M177.801 11.628c.004 1.085 0 2.169-.022 3.257 1.341.173 2.66.454 3.957.82a2.01 2.01 0 0 0 .005-.578c-.022-2.955.124-5.909-.606-8.782-.98-.047-1.921.061-2.892.121-.228 0-.515.026-.812.048l.013.07c.344 1.653.335 3.36.352 5.044h.005ZM77.207 110.834c.073 2.07.163 4.139.619 6.164.34 2.981 2.81 3.482 5.353 3.625 2.797.414 5.625.591 8.448.673h.047c.232-.034.481-.034.709.018 8.335.185 16.632-1.201 24.955-1.093.829 0 1.663-.026 2.492-.017 1.585.073 3.476.237 4.387-1.374 1.452-2.307 1.452-5.101 1.603-7.736a84.35 84.35 0 0 0 .274-7.711c-.107-6.591.391-13.17.357-19.761.047-2.825-.124-5.737-1.117-8.393-.657-1.568-2.251-1.249-3.566-1.413-5.784-.177-11.567.048-17.355 0-3.042-.008-6.036.462-9.066.562-3.467-.156-6.973-.264-10.419.177-8.881 1.59-8.585 2.6-8.645 11.118-.038 5.36.19 10.717.382 16.073.112 3.045.301 6.091.55 9.088h-.008Zm31.55-19.766c.177.277.185.631.202.95.061 1.236.043 2.471.043 3.711 1.01-1.291 1.856-2.708 2.909-3.97.378-1.628 2.527-.418 1.491.877-.842 1.016-1.568 2.121-2.333 3.193.361.414.593.997.894 1.425.949 1.715 2.204 3.231 3.115 4.954.417 1.046-1.104 1.707-1.586.674-.923-1.624-2.088-3.097-3.003-4.734-.193-.307-.361-.6-.533-.877-.107.13-.215.26-.326.389a2.792 2.792 0 0 1-.576.592c.047 1.101.073 2.198-.125 3.296.017.634-.073 1.494-.889 1.49-.456 0-.877-.393-.859-.864.047-1.331.33-2.64.146-3.974-.116-2.06.008-4.134-.099-6.194-.58-1.097.803-1.996 1.517-.933l.012-.005Zm-11.192 4.307c.013-1.227.219-2.436.48-3.633.091-.401.323-.799.748-.916 1.375-.431 2.742 3.625 3.253 4.648.503 1.17 1.083 2.311 1.581 3.49-.112-2.526.035-5.05.189-7.563.017-.47.378-.864.86-.864.481 0 .876.393.859.864a90.766 90.766 0 0 0-.193 8.665c0 .445 0 .89-.018 1.335-.017.587.03 1.36-.545 1.702a.887.887 0 0 1-1.096-.178c-1.684-2.889-2.797-6.107-4.27-9.114-.362 3.162.042 6.294-.233 9.456-.155 1.045-1.693.941-1.71-.117.185-2.587.022-5.183.099-7.775h-.004Zm-2.037-4.66c.223.276.28.626.275.975.008 1.275-.095 2.549-.12 3.823-.065 2.549-.254 5.089-.228 7.637-.026 1.127-1.693 1.136-1.719 0-.013-3.844.314-7.684.344-11.529-.46-.902.834-1.723 1.448-.907Zm-9.195 10.211c.176-1.694.236-3.56.361-5.175.099-1.49.168-2.98.172-4.475-.065-.596.395-1.089.98-1.145 3.501-.665 6.9 3.231 4.825 6.45-.959 1.455-2.84 1.48-4.404 1.49-.073 1.446-.177 2.893-.366 4.332-.021.527-.464 1.024-1.014.933-1.246-.255-.528-1.56-.55-2.415l-.004.005Zm-6.866-18.898c.288-1.188 1.865-.787 1.723.371a21.83 21.83 0 0 0-.022 2.186c.04.687.185 1.758-.743 1.849-.447.038-.92-.316-.932-.787a48.405 48.405 0 0 1-.026-3.62Zm.79 6.57c1.22.052 1.032 2.194-.193 1.982-1.065-.172-.902-2.038.194-1.982Z"/><path fill="#F2B2FF" d="M123.371 17.282c.098-2.332-.843-4.51-2.106-6.414-.142-.298-.421-.61-.644-.925-.133-.133-.267-.267-.396-.401-1.903-1.814-4.12-3.227-6.496-4.324-3.571-2.156-7.124-3.59-11.348-3.456 1.448 7.02 4.254 10.657 9.389 15.39 2.535 2.243 5.465 4.109 8.653 5.245.069-.052.142-.095.224-.134 1.864-.912 2.629-3.002 2.719-4.976l.005-.005ZM130.116 102.269a.804.804 0 0 1 .593-.22c1.908-.981 3.717-2.164 5.225-3.698-.834-1.235-2.213-1.952-3.463-2.69-1.349-.645-2.724-1.34-4.151-1.733-.116-.026-.24-.056-.365-.086-.095 3.097-.172 6.194-.155 9.295a18.204 18.204 0 0 0 1.581-.479c.241-.139.486-.272.735-.389Z"/><path fill="#CE6AE2" d="M72.893 111.314c.077-.203.185-.402.288-.575.296-.691.649-1.511.752-2.228.567-3.301-.099-8.493-2.583-10.955-1.899.786-3.652 1.858-5.353 2.998a38.835 38.835 0 0 0-8.954 8.92c-1.182 1.486-2.518 3.049-3.446 4.635-1.002 1.546-1.693 3.265-2.467 4.933 8.005 1.805 15.907-2.35 21.767-7.728h-.004ZM91.253 93.293c-.533-.916-1.628-1.495-2.677-1.486v.164c0 .51-.017 1.015-.043 1.525-.051.95-.107 1.9-.172 2.85.838-.051 1.775.044 2.531-.384.872-.609.743-1.805.357-2.67h.004Z"/><path fill="#F2B2FF" d="M128.165 83.073c.005 1.084 0 2.168-.021 3.257 1.34.172 2.66.453 3.957.82.026-.203.035-.401.004-.578-.021-2.955.125-5.91-.605-8.782-.98-.047-1.921.06-2.892.121-.228 0-.516.026-.812.047l.013.07c.344 1.654.335 3.36.352 5.045h.004Z"/><path fill="#CE6AE2" d="M73.74 88.727c.099-2.332-.842-4.51-2.106-6.414-.141-.298-.42-.61-.644-.925a34.545 34.545 0 0 1-.395-.401c-1.904-1.815-4.12-3.227-6.497-4.324-3.57-2.156-7.124-3.59-11.347-3.456 1.448 7.02 4.253 10.656 9.388 15.39 2.535 2.242 5.465 4.108 8.653 5.245a1.27 1.27 0 0 1 .224-.134c1.864-.912 2.63-3.002 2.72-4.977l.004-.004Z"/><path fill="#F2B2FF" d="M24.556 162.224c.098-2.333-.843-4.51-2.106-6.415-.142-.298-.42-.609-.644-.924a34.558 34.558 0 0 1-.396-.402c-1.903-1.814-4.12-3.227-6.496-4.324-3.57-2.155-7.124-3.589-11.348-3.455 1.448 7.019 4.254 10.656 9.389 15.39 2.535 2.242 5.465 4.108 8.653 5.244.069-.052.142-.095.224-.134 1.864-.911 2.63-3.002 2.72-4.976l.004-.004ZM122.524 39.873c.077-.203.185-.401.288-.574.296-.691.649-1.512.752-2.229.567-3.3-.099-8.492-2.583-10.954-1.899.786-3.652 1.857-5.353 2.997a38.849 38.849 0 0 0-8.955 8.92c-1.181 1.486-2.517 3.05-3.445 4.635-1.002 1.547-1.693 3.266-2.467 4.933 8.005 1.806 15.907-2.35 21.767-7.728h-.004Z"/><path fill="#CE6AE2" d="M78.616 176.634c.533-.143 1.061-.29 1.581-.48a9.83 9.83 0 0 1 .735-.388.81.81 0 0 1 .593-.221c1.908-.98 3.717-2.164 5.225-3.697-.834-1.236-2.213-1.953-3.463-2.691-1.35-.644-2.724-1.339-4.15-1.732-.117-.026-.242-.057-.366-.087-.095 3.097-.172 6.194-.155 9.296ZM130.752 88.865c-.812.109-1.594.584-1.934 1.357-.068.799.275 1.788 1.036 2.142a.881.881 0 0 1 .43.437c3.201 1.23 7.579 3.524 7.489 5.97-.417.829-1.289 1.381-1.942 2.012-1.603 1.3-3.378 2.428-5.281 3.235-.683.359-1.491.679-1.697 1.305-.245.859-.052 2.082.846 2.475.353.117.791.117 1.1.315 2.239-.769 4.37-1.814 6.471-2.894 3.36-1.658 6.608-3.792 9.173-6.54-.537-1.304-1.654-2.31-2.672-3.222-.804-.799-1.525-1.667-2.57-2.164-2.002-1.287-4.021-2.613-6.286-3.387a39.93 39.93 0 0 0-3.39-1.123 3.984 3.984 0 0 1-.777.082h.004Z"/><path fill="#F2B2FF" d="M118.245 121.94c-8.542-.138-17.007 1.201-25.535 1.127l-.929-.039c-1.435.147-2.93.238-4.296.666-1.199.406-2.325 1.399-2.772 2.591-.137.29-.141.609-.214.916.051.03.103.056.163.078 2.986.825 6.277.276 9.358.484 7.794.151 15.541-.856 23.318-.916 2.857-.069 5.719.112 8.572-.086 4.133.164 5.796-2.597 5.646-6.458.017-3.577 1.181-7.244.429-10.777-1.512.574-3.252 1.127-4.412 1.118l-.026.333c-.159 3.145-.206 6.566-2.17 9.192-1.646 2.358-4.662 1.697-7.128 1.775l-.004-.004ZM16.808 174.051a38.832 38.832 0 0 0-8.954 8.919c-1.181 1.486-2.518 3.05-3.446 4.635-1 1.547-1.693 3.266-2.466 4.933 8.005 1.806 15.906-2.35 21.767-7.727.077-.203.185-.402.288-.575.296-.691.648-1.512.752-2.229.567-3.3-.1-8.492-2.583-10.954-1.899.786-3.652 1.857-5.353 2.998h-.005Z"/><path fill="#CE6AE2" d="M78.981 156.57c.005 1.084 0 2.168-.021 3.256 1.34.173 2.66.454 3.957.821.026-.203.034-.402.004-.579-.021-2.954.125-5.909-.606-8.781-.98-.048-1.92.06-2.891.121-.228 0-.516.026-.812.047.004.022.008.048.013.069.343 1.655.335 3.361.352 5.046h.004ZM163.175 100.843a38.855 38.855 0 0 0-8.954 8.92c-1.182 1.486-2.518 3.05-3.446 4.635-1.001 1.546-1.693 3.266-2.466 4.933 8.004 1.806 15.906-2.35 21.767-7.728a3.75 3.75 0 0 1 .287-.574c.297-.691.649-1.512.752-2.229.568-3.3-.098-8.492-2.582-10.954-1.899.786-3.652 1.857-5.354 2.997h-.004Z"/><path fill="#F2B2FF" d="M227.298 102.554a.806.806 0 0 1 .593-.22c1.908-.981 3.717-2.164 5.225-3.698-.834-1.235-2.213-1.952-3.463-2.69-1.349-.644-2.724-1.34-4.151-1.733-.116-.026-.24-.056-.365-.086-.094 3.097-.172 6.194-.155 9.295a18.33 18.33 0 0 0 1.582-.479 9.73 9.73 0 0 1 .734-.389Z"/><path fill="#CE6AE2" d="M227.934 89.15c-.812.108-1.594.584-1.933 1.357-.069.799.275 1.788 1.035 2.142a.881.881 0 0 1 .43.436c3.201 1.232 7.579 3.525 7.489 5.97-.417.83-1.289 1.382-1.942 2.013-1.603 1.3-3.377 2.428-5.281 3.235-.683.359-1.491.678-1.697 1.305-.245.859-.052 2.082.846 2.475.353.116.791.116 1.1.315 2.239-.769 4.37-1.814 6.471-2.894 3.36-1.659 6.608-3.792 9.174-6.54-.538-1.304-1.655-2.31-2.673-3.222-.803-.8-1.525-1.667-2.569-2.164-2.003-1.287-4.022-2.613-6.286-3.387a40.032 40.032 0 0 0-3.391-1.123 3.992 3.992 0 0 1-.777.082h.004ZM273.943 155.9c.005 1.084 0 2.168-.021 3.257a27.33 27.33 0 0 1 3.957.821 2.01 2.01 0 0 0 .004-.579c-.021-2.955.125-5.909-.606-8.782-.979-.047-1.92.061-2.891.121-.228 0-.516.026-.812.048l.013.069c.343 1.654.335 3.36.352 5.045h.004ZM273.578 175.964a18.31 18.31 0 0 0 1.581-.479c.241-.139.486-.272.735-.389a.804.804 0 0 1 .593-.22c1.908-.981 3.717-2.164 5.225-3.698-.834-1.235-2.213-1.952-3.463-2.691-1.35-.644-2.725-1.339-4.151-1.732a22.762 22.762 0 0 1-.365-.086c-.095 3.097-.172 6.194-.155 9.295ZM190.575 94.662c.107-1.244-.559-2.846-1.839-3.205-.499-.082-1.006-.008-1.504.074-.009.712-.163 1.511-.176 1.978a79.481 79.481 0 0 0-.275 2.678c1.379-.242 3.08-.1 3.794-1.525Z"/><path fill="#F2B2FF" d="M215.427 122.229c-8.542-.138-17.006 1.201-25.535 1.128l-.928-.039c-1.436.147-2.931.237-4.297.665-1.199.406-2.325 1.4-2.772 2.592-.137.289-.141.609-.214.916.051.03.103.056.163.077 2.986.825 6.277.277 9.358.484 7.794.151 15.541-.855 23.318-.916 2.857-.069 5.719.113 8.572-.086 4.133.164 5.796-2.596 5.646-6.458.017-3.576 1.181-7.244.43-10.777-1.513.575-3.253 1.127-4.413 1.119l-.026.332c-.159 3.145-.206 6.566-2.17 9.192-1.645 2.359-4.662 1.698-7.128 1.776l-.004-.005ZM225.348 83.362c.004 1.085 0 2.169-.022 3.257 1.341.173 2.66.454 3.957.821a2.01 2.01 0 0 0 .005-.579c-.022-2.954.124-5.909-.606-8.781-.98-.048-1.921.06-2.892.12-.228 0-.516.026-.812.048l.013.07c.344 1.654.335 3.36.352 5.044h.005ZM236.747 167.986c.313-.756.107-2.095-.722-2.402-.344.013-.7.026-1.027.143l-.017.013c0 .155-.013.307-.013.453.004.899 0 1.797-.013 2.696.683-.251 1.504-.436 1.796-.903h-.004Z"/><path fill="#CE6AE2" d="M277.758 182.353c-1.512.574-3.252 1.127-4.412 1.119l-.026.332c-.159 3.145-.206 6.566-2.17 9.192-1.645 2.359-4.662 1.698-7.128 1.775-8.542-.138-17.006 1.201-25.535 1.128l-.928-.039c-1.435.147-2.931.237-4.297.665-1.199.406-2.324 1.4-2.771 2.592-.138.289-.142.609-.215.916.051.03.103.056.163.077 2.986.825 6.278.277 9.358.484 7.794.151 15.541-.855 23.318-.916 2.858-.069 5.719.113 8.572-.086 4.134.164 5.796-2.596 5.646-6.458.017-3.576 1.182-7.244.43-10.777l-.005-.004Z"/><path fill="#F2B2FF" d="M180.387 17.42c-.812.109-1.594.584-1.933 1.357-.069.8.275 1.788 1.035 2.142a.877.877 0 0 1 .43.437c3.201 1.23 7.579 3.524 7.489 5.97-.417.829-1.289 1.382-1.942 2.012-1.603 1.3-3.377 2.428-5.281 3.236-.683.358-1.491.678-1.697 1.304-.245.86-.051 2.082.847 2.475.352.117.79.117 1.099.316 2.239-.77 4.37-1.815 6.471-2.895 3.36-1.658 6.609-3.792 9.174-6.54-.537-1.304-1.655-2.31-2.673-3.222-.803-.799-1.525-1.667-2.569-2.164-2.003-1.287-4.022-2.613-6.286-3.386a39.93 39.93 0 0 0-3.39-1.123 4.002 4.002 0 0 1-.778.082h.004ZM237.447 194.123c.232-.034.482-.034.709.018 8.336.185 16.633-1.201 24.955-1.093.83 0 1.663-.026 2.492-.017 1.586.073 3.476.237 4.387-1.374 1.453-2.307 1.453-5.101 1.603-7.736.215-2.614.296-5.11.275-7.711-.107-6.591.391-13.17.357-19.761.047-2.825-.125-5.737-1.118-8.393-.657-1.568-2.251-1.249-3.566-1.413-5.783-.177-11.566.048-17.354 0-3.042-.008-6.037.462-9.066.562-3.467-.156-6.974-.264-10.42.177-8.881 1.589-8.584 2.6-8.644 11.118-.039 5.361.189 10.717.382 16.073.112 3.046.301 6.091.55 9.089.073 2.069.163 4.138.619 6.163.339 2.981 2.81 3.482 5.353 3.625 2.797.414 5.625.591 8.448.673h.047-.009Zm31.044-42.262c.288-1.188 1.865-.786 1.723.372-.043.725-.052 1.46-.022 2.185.039.687.185 1.758-.743 1.849-.447.039-.92-.315-.932-.786a48.037 48.037 0 0 1-.026-3.62Zm.79 6.57c1.221.052 1.032 2.195-.193 1.983-1.066-.173-.902-2.039.193-1.983Zm-11.631 14.89c.237-2.726 1.062-5.37 1.113-8.104.077-1.762 2.243-1.542 3.455-1.905.923-.142 1.392 1.227.571 1.681-.717.315-1.59.095-2.316.444-.021 1.076-.159 2.139-.331 3.197.434-.078.864-.169 1.294-.242.773-.821 1.998.376 1.344 1.222-.3.389-.833.441-1.28.519-.464.043-1.117.276-1.68.306-.206 1.124-.408 2.251-.507 3.391 1.001-.246 1.994-.535 3.021-.674.464-.077.906.286.966.739a.869.869 0 0 1-.734.972c-1.062.138-2.089.458-3.128.7-.482.112-1.13.293-1.56-.087-.627-.553-.266-1.46-.223-2.172l-.005.013Zm-7.033-4.519c.421-1.866.128-4.583 2.273-5.399.635-.19 1.551-.38 2.04.181.434.54.018 1.413-.678 1.391-.731-.168-1.371.285-1.444 1.041-.176.899-.305 1.81-.447 2.713-.275 1.784-.438 3.702-.318 5.477a21.98 21.98 0 0 0 1.517-.354c.279-1.171.567-2.341.782-3.529-1.177.056-1.259-1.693-.082-1.728.529.035 1.122-.035 1.594.242.507.307.516.929.288 1.421-.202.622-.266 1.24-.404 1.87-.374 1.037-.245 2.571-1.267 3.197-.25.155-.537.224-.817.289-.795.164-1.641.523-2.449.238-.889-.337-.898-1.408-.919-2.216-.03-1.616.086-3.231.318-4.829l.013-.005Zm-4.211 5.573c.137-1.767.365-3.573.494-5.331.073-1.404.159-2.799.361-4.19-.335-.95 1.053-1.598 1.551-.708.404.855-.086 2.026-.069 2.877-.086 1.442-.146 2.652-.292 4.034-.129 1.02-.202 2.16-.314 3.162-.064.773.052 1.974-1.057 1.883-.868-.112-.756-1.105-.67-1.727h-.004Zm-6.381-2.596c.181-2.285.237-4.622.714-6.864.262-.743 1.095-.933 1.765-1.128.718-.194 1.925-.457 2.097.562.086 1.309-1.469.855-2.298 1.309-.134 1.119-.25 2.237-.357 3.36.232 0 .46.013.653.013.571.121 1.25-.289 1.697.216.649.631.06 1.629-.79 1.542-.568-.017-1.139-.047-1.706-.034a59.583 59.583 0 0 0-.176 3.823c.691-.152 1.4-.113 2.101-.165.425-.121.881.052 1.065.48.176.415-.017.972-.455 1.132-.842.267-1.775.06-2.634.293-.554.182-1.272.242-1.611-.345-.198-.324-.181-.735-.181-1.102-.017-1.036.03-2.073.116-3.101v.009Zm-5.585 4.678a.767.767 0 0 1-.211-.247.81.81 0 0 1-.331.069c-.451 0-.881-.393-.859-.863.039-2.825.241-5.633.202-8.458 0-.475.004-.95.008-1.425a.88.88 0 0 1 .151-1.016.883.883 0 0 1 .361-.211.955.955 0 0 1 .425-.104c.997-.44 2.419-.596 3.261.233 1.41 1.309 1.697 4.082 0 5.27 1.878.989 2.007 4.164.976 5.819-.537.911-1.852 1.006-2.746 1.066-.417 0-.881.147-1.237-.133Z"/><path fill="#F2B2FF" d="M235.638 170.751c-.232-.031-.477.008-.713.021-.064 1.391-.142 2.778-.154 4.168.03-.004.055-.021.085-.021.709-.078 1.466-.009 2.114-.303.572-.963.439-2.142 0-3.131-.373-.328-.859-.579-1.336-.734h.004Z"/><path fill="#CE6AE2" d="M170.922 89.017c.099-2.333-.842-4.51-2.106-6.415-.141-.298-.421-.609-.644-.924a37.094 37.094 0 0 1-.395-.402c-1.904-1.814-4.121-3.227-6.497-4.324-3.57-2.155-7.124-3.59-11.347-3.455 1.448 7.019 4.253 10.656 9.388 15.39 2.535 2.242 5.465 4.108 8.653 5.244.069-.052.142-.095.224-.134 1.865-.911 2.629-3.002 2.72-4.976l.004-.004Z"/><path fill="#F2B2FF" d="M289.553 168.284c-.803-.799-1.525-1.667-2.569-2.164-2.003-1.287-4.022-2.613-6.286-3.387a40.382 40.382 0 0 0-3.39-1.123 3.919 3.919 0 0 1-.778.082c-.812.108-1.594.584-1.934 1.357-.068.799.275 1.788 1.036 2.142a.877.877 0 0 1 .429.436c3.201 1.232 7.58 3.525 7.49 5.97-.417.829-1.289 1.382-1.943 2.013-1.602 1.3-3.377 2.428-5.28 3.235-.683.359-1.491.678-1.697 1.305-.245.859-.052 2.082.846 2.475.352.116.791.116 1.1.315 2.239-.769 4.37-1.814 6.471-2.894 3.36-1.659 6.608-3.792 9.173-6.54-.537-1.304-1.654-2.311-2.672-3.222h.004ZM190.08 168.949c-.803-.799-1.525-1.667-2.569-2.164-2.002-1.287-4.022-2.613-6.286-3.386a39.437 39.437 0 0 0-3.39-1.123 4.073 4.073 0 0 1-.778.082c-.812.108-1.594.583-1.933 1.356-.069.799.275 1.788 1.035 2.143a.88.88 0 0 1 .43.436c3.201 1.231 7.579 3.525 7.489 5.969-.417.83-1.289 1.383-1.942 2.013-1.603 1.3-3.377 2.428-5.281 3.236-.683.358-1.491.678-1.697 1.304-.245.86-.052 2.082.846 2.475.353.117.791.117 1.1.315 2.239-.768 4.37-1.814 6.471-2.894 3.36-1.658 6.608-3.792 9.174-6.539-.537-1.305-1.655-2.311-2.673-3.223h.004Z"/><path fill="#CE6AE2" d="M186.639 98.088a163.79 163.79 0 0 0-.262 5.822c.073-.021.146-.034.223-.039 1.435-.051 2.905.104 4.293-.354 1.07-.319 1.869-1.408 1.834-2.527-.605-1.382-1.907-2.54-3.364-2.924-.902-.238-1.826.039-2.724.026v-.004ZM178.286 183.018c-1.512.574-3.252 1.127-4.412 1.119l-.026.332c-.159 3.145-.206 6.566-2.17 9.192-1.646 2.359-4.662 1.698-7.128 1.776-8.542-.139-17.006 1.2-25.535 1.127l-.928-.039c-1.436.147-2.931.238-4.297.665-1.199.406-2.325 1.4-2.771 2.592-.138.289-.142.609-.215.916.051.03.103.056.163.077 2.986.825 6.277.277 9.358.484 7.794.151 15.541-.855 23.318-.915 2.857-.07 5.719.112 8.572-.087 4.133.164 5.796-2.596 5.646-6.458.017-3.576 1.181-7.243.43-10.777l-.005-.004Z"/><path fill="#F2B2FF" d="M137.975 194.793c.232-.035.481-.035.709.017 8.335.186 16.632-1.201 24.955-1.093.829 0 1.662-.026 2.492-.017 1.585.074 3.476.238 4.387-1.374 1.452-2.306 1.452-5.101 1.602-7.736.215-2.613.297-5.11.275-7.71-.107-6.592.391-13.17.357-19.762.047-2.825-.125-5.736-1.117-8.393-.658-1.568-2.252-1.248-3.566-1.412-5.784-.177-11.567.047-17.355 0-3.042-.009-6.037.462-9.066.561-3.467-.155-6.973-.263-10.419.177-8.881 1.59-8.585 2.601-8.645 11.119-.039 5.36.189 10.717.382 16.073.112 3.045.301 6.09.55 9.088.073 2.069.164 4.138.619 6.164.339 2.98 2.81 3.482 5.354 3.624 2.797.415 5.624.592 8.447.674h.047-.008Zm23.24-18.609a38.943 38.943 0 0 1 1.362-7.148c.426-1.482.078-3.586 1.65-4.419.314-.169.645-.294.963-.441a.844.844 0 0 1 .558-.328c.576-.086 1.066.458.984 1.028-.142.998-1.482.829-1.933 1.525-.262 1.106-.344 2.246-.619 3.352-.06.203-.107.406-.163.604.288-.051.576-.09.799-.159.619-.7 1.74-.013 1.487.868-.258.833-1.47.885-2.114 1.024a1.907 1.907 0 0 1-.619.095 32.997 32.997 0 0 0-.572 3.563c1.023-.319 3.592-2.039 3.898-.155 0 .881-.916.829-1.53 1.041-1.109.367-2.161 1.136-3.364 1.105-.765-.095-.937-.907-.782-1.55l-.005-.005Zm-5.607-4.47a79.25 79.25 0 0 1 .696-3.883c.168-.834.275-1.754.774-2.467.567-.773 1.503-1.227 2.397-1.46a.87.87 0 0 1 .855.816v-.012.051c0-.013 0-.026-.004-.043.069 1.24-1.766.886-2.011 1.978-.735 3.206-1.362 6.437-1.349 9.732.296 1.205 1.139.795 1.255-.272.163-1.205.631-2.332.91-3.512-.889-.207-.812-1.58.104-1.684.305-.03.61-.052.91-.004.752.09 1.075.889.8 1.55-.237.985-.589 2.13-.868 3.058-.176 1.78-1.053 3.862-3.206 3.193-2.612-.908-1.396-4.942-1.271-7.046l.008.005Zm-8.297-3.909c-.077-1.028-.154-2.078.06-3.093.237-1.007 1.384-1.123 1.882-.229.924 1.175 1.517 2.769 1.698 4.181.266 1.43 1.087 2.678 1.271 4.134.146-2.648.181-5.257.361-7.892.168-1.114 1.818-.898 1.702.233-.241 3.301-.133 6.605-.593 9.884-.12.863-.189 1.745-.408 2.591-.091.35-.207.709-.537.903-.641.376-1.345-.186-1.375-.873-.194-1.028-.25-2.069-.546-3.075-.219-.898-.327-1.823-.602-2.704-.571-1.244-.975-2.687-1.194-3.983-.017 3.387.052 6.791-.099 10.177-.073 1.14-1.701 1.214-1.757.039.262-3.408.09-6.868.137-10.293Zm-5.177-3.607c.713-.557 1.697-.406 2.299.242 1.43 1.499 1.331 3.814 1.426 5.758.03 2.025-.168 4.047-.116 6.073-.073.812.288 2.268-.889 2.337-.46 0-.873-.393-.86-.864-.064-1.024.039-2.721.112-4.536-.494.005-.988.013-1.482.009 0 .419 0 .834-.009 1.253 0 .898 0 1.797-.009 2.691.056.678-.085 1.671-.958 1.624h.017-.034.017c-.58 0-1.022-.657-.773-1.197.051-2.574.043-5.153-.065-7.723.134-1.883-.575-4.492 1.324-5.667Zm-9.539 27.761a45 45 0 0 1-3.6-.043c-1.178-.311-.744-1.892.399-1.728.722.061 1.448.082 2.174.061.683-.026 1.753-.151 1.822.782.03.449-.331.915-.799.924l.004.004Zm.726-20.284c-.163 2.583-.215 7.477-4.034 6.535-1.233-.211-1.289-1.365-1.461-2.375-.546-2.393-.322-4.89-.245-7.326.142-1.357-.327-3.067.838-4.069.58-.424 1.908-1.218 2.47-.506.812-.229 1.629.199 2.17.799.434.553.357 1.318.404 1.979a66.253 66.253 0 0 1-.137 4.963h-.005Zm1.092 5.982c.146-.695.189-1.615.232-2.28.146-2.596.343-5.171.356-7.771-.004-.946-.146-1.905-.077-2.847.125-.583.778-.777 1.289-.842 2.548-.13 3.523 1.952 3.815 4.168.336 1.465 0 3.326-1.658 3.741 1.005 1.335 1.143 3.11 1.349 4.721.099.739.464 1.866-.58 2.048a.87.87 0 0 1-.967-.739c-.356-1.481-.133-4.544-1.65-5.283a84.464 84.464 0 0 1-.154 2.786c-.108.903 0 1.875-.327 2.722-.395.764-1.646.453-1.624-.419l-.004-.005Zm3.098 13.823c-.194 1.067-2.046.868-1.968-.233.073-1.227 2.2-.994 1.968.233Z"/><path fill="#CE6AE2" d="M182.102 74.844c-8.881 1.59-8.585 2.6-8.645 11.119-.039 5.36.189 10.716.382 16.073.112 3.045.301 6.09.55 9.088.073 2.069.164 4.138.619 6.164.34 2.98 2.81 3.481 5.354 3.624 2.797.414 5.624.592 8.447.674h.047c.232-.035.481-.035.709.017 8.336.186 16.633-1.201 24.955-1.093.83 0 1.663-.026 2.492-.017 1.586.073 3.476.237 4.387-1.374 1.453-2.306 1.453-5.101 1.603-7.736a84.33 84.33 0 0 0 .275-7.71c-.107-6.592.391-13.17.357-19.762.047-2.825-.125-5.737-1.118-8.393-.657-1.568-2.251-1.248-3.566-1.412-5.783-.178-11.566.047-17.354 0-3.042-.01-6.037.462-9.066.561-3.468-.155-6.974-.263-10.42.177h-.008Zm34.58 42.094c-.168 1.071-2.024.916-1.973-.186.043-1.227 2.179-1.045 1.973.186Zm-8.224-14.898c.064-3.443.318-6.873.481-10.31-.009-.981.765-1.681 1.676-1.876a7.507 7.507 0 0 1 1.478-.259c.515-.328 1.259.078 1.332.678.103.7-.61 1.093-1.195 1.037-.528.043-1.061.134-1.547.359-.111 1.61-.163 3.378-.292 5.002.219-.048.456-.056.666-.052.683-.583 1.727.276 1.371 1.075-.34.743-1.276.64-1.955.683a.922.922 0 0 1-.194-.022c-.042 1.599.026 3.205-.214 4.791.837-.022 1.68-.074 2.522-.091.468-.013.859.402.859.864 0 .462-.391.851-.859.864-.868.017-1.732.077-2.595.095-2.282.039-1.689-1.201-1.521-2.838h-.013Zm.081 13.801a19.23 19.23 0 0 0 2.174.008c.684-.043 1.749-.194 1.839.739.043.449-.309.924-.777.942-1.199.06-2.402.073-3.601.043-1.181-.285-.79-1.871.361-1.737l.004.005Zm-7.343-25.81c.43-.116.958.143 1.057.605.258 1.672.249 3.387.288 5.076.039 1.671.009 3.339.108 5.006.133.942-.323 3.525 1.319 2.441 1.314-.964.721-3.097.838-4.523-.022-1.775 0-3.55-.018-5.322-.017-.799-.064-1.593-.081-2.393-.022-.47.408-.864.859-.864 1.096.048.838 1.344.898 2.108.069 1.244.043 2.484.043 3.732-.168 2.514.516 5.24-.537 7.607-.696 1.171-2.282 2.056-3.609 1.456-1.779-.877-1.298-3.127-1.47-4.76-.107-3.002 0-6.03-.288-9.02-.15-.47.091-1.019.585-1.144l.008-.004Zm-6.024 0c1.861-.526 1.225 2.869 1.461 3.87.284 3.09.112 6.195.112 9.288.859-.017 1.719.121 2.574.203 1.117.177.885 1.836-.232 1.71-.787-.073-1.577-.211-2.368-.185-.412.056-.846.134-1.203-.143-.322-.229-.399-.656-.447-1.024-.09-.756-.06-1.516-.038-2.276.064-2.056.077-4.242-.031-6.276-.116-1.3-.137-2.61-.253-3.91-.193-.479-.095-1.05.417-1.265l.008.009Zm-.855 12.013c-.648 2.899-3.815 3.698-6.406 3.534-.67-.035-1.74.22-2.075-.428-.499.194-1.173-.065-1.199-.786.086-4.199.395-8.415.846-12.583.065-.613-.275-1.37.473-1.68.017 0 .03 0 .043-.005.176-.224.485-.358.932-.263 1.912-.462 3.794.199 4.697 2.017.928 1.642 1.044 3.823-.684 4.963 1.766 1.007 4.039 2.955 3.365 5.231h.008Z"/><path fill="#F2B2FF" d="M136.625 170.547c1.801-.44 2.016-.583 1.659-2.449-.219-1.002-.404-2.324-1.646-2.453.022.466.035.933.061 1.399.042.817.038 1.642-.009 2.462-.022.35-.039.696-.06 1.046l-.005-.005ZM211.77 173.385a38.855 38.855 0 0 0-8.954 8.92c-1.182 1.486-2.518 3.05-3.446 4.635-1.001 1.546-1.693 3.266-2.466 4.933 8.005 1.806 15.906-2.35 21.767-7.728.077-.203.185-.401.288-.574.296-.691.648-1.512.752-2.229.567-3.3-.099-8.492-2.583-10.954-1.899.786-3.652 1.857-5.353 2.997h-.005ZM219.513 161.554c.099-2.332-.842-4.509-2.106-6.414-.141-.298-.421-.609-.644-.925a24.769 24.769 0 0 1-.395-.401c-1.904-1.814-4.121-3.227-6.497-4.324-3.571-2.156-7.124-3.59-11.348-3.456 1.448 7.019 4.254 10.657 9.389 15.391 2.535 2.242 5.465 4.108 8.653 5.244.069-.052.142-.095.224-.134 1.864-.912 2.629-3.002 2.719-4.976l.005-.005ZM131.216 165.628a.883.883 0 0 1-.842-.234c-1.499.147-.928 1.65-1.057 2.704-.133 2.817-.305 5.663.383 8.428.171.047.348.069.528.06 1.736.16 1.543-9.334 1.457-10.803-.142-.099-.284-.242-.464-.16l-.005.005Z"/><path fill="#000" d="M100.121 49.225c1.143.26 2.299.467 3.476.518 8.056.38 16.001-4.272 21.526-10.008.129 2.324.237 4.652.83 6.92.339 1.896 1.929 3.248 3.691 3.81.571.108 1.147.203 1.722.294.005.099.013.194.026.285.121 1.07-.137 2.155.138 3.21.769 3.887 3.54 3.684 6.776 3.744 2.522-.004 5.044.056 7.566.06 8.619-.094 17.2-1.161 25.827-.928 4.972.008 9.84.376 11.034-5.71.215-1.258.129-2.527.224-3.793.159-1.84.481-3.758.545-5.624.31-1.477-.034-3.08-.202-4.557v-.039c.301-.125.568-.238.778-.328 3.884-1.836 7.833-3.71 11.064-6.605.649-.527 1.323-1.071 1.873-1.71.331-.372.765-.726.851-1.244-.21-2.38-2.419-3.81-3.927-5.43-.696-.873-1.68-1.413-2.621-1.974-2.114-1.451-4.357-2.678-6.784-3.508-.361-.133-.727-.259-1.092-.38.039-.475.009-.976.017-1.326-.013-1.736.052-3.546-.098-5.291.025-1.443-.374-2.855-.722-4.233-.357-.765-1.311-.786-2.033-.773-1.065 0-2.126.12-3.192.172h-.331c-.223-.989-.537-1.948-1.212-2.725-1.19-1.525-3.188-1.244-4.911-1.434-3.437-.126-6.892.039-10.333 0-3.506.073-7.025-.087-10.514.22-1.328.078-2.9.233-4.284.354-3.197-.043-6.402-.203-9.599 0-3.145.311-8.103 1.024-10.346 3.408-1.671 1.849-1.603 4.406-1.633 6.808-.301-.41-.588-.752-.769-.95a28.625 28.625 0 0 0-1.405-1.5 1.558 1.558 0 0 0-.494-.496c-2.015-1.922-4.305-3.533-6.858-4.67-2.015-1.127-4.043-2.28-6.294-2.967-2.123-.691-4.374-.747-6.587-.803-.7-.113-1.457.302-1.349 1.097.348 1.956.868 3.87 1.615 5.714.52 1.758 1.35 3.387 2.424 4.868 4.03 5.551 9.577 10.54 16.172 12.61-.038.012-.077.02-.116.038a.971.971 0 0 0-.214.177c-.868.324-1.715.704-2.51 1.197-2.797 1.503-5.336 3.451-7.674 5.598-1.856 1.952-3.703 3.913-5.246 6.13-2.591 2.945-4.571 6.375-5.98 10.042-.456 1.032.175 1.581 1.151 1.736l.004-.004Zm84.434-30.768c2.264.773 4.28 2.1 6.286 3.387 1.044.496 1.77 1.365 2.569 2.164 1.014.916 2.136 1.922 2.673 3.222-2.565 2.747-5.813 4.881-9.173 6.54-2.101 1.08-4.237 2.125-6.471 2.894-.31-.194-.752-.194-1.1-.315-.898-.39-1.091-1.616-.847-2.475.207-.627 1.014-.95 1.698-1.305 1.899-.812 3.678-1.935 5.28-3.235.653-.63 1.521-1.184 1.942-2.013.091-2.44-4.288-4.739-7.489-5.97a.858.858 0 0 0-.429-.436c-.761-.354-1.105-1.343-1.036-2.142.339-.77 1.121-1.244 1.934-1.357.249 0 .524-.026.777-.082 1.143.316 2.273.7 3.39 1.123h-.004Zm-7.12 13.235c-.017-3.101.061-6.198.155-9.295.129.034.254.06.365.086 1.427.393 2.797 1.089 4.151 1.732 1.25.739 2.629 1.456 3.463 2.691-1.512 1.534-3.321 2.717-5.225 3.698a.792.792 0 0 0-.593.22c-.249.117-.494.25-.734.389-.516.19-1.049.337-1.582.48Zm.813-25.226c.971-.06 1.916-.168 2.891-.12.731 2.872.585 5.83.606 8.78.03.178.017.372-.004.58a27.52 27.52 0 0 0-3.958-.821c.018-1.084.026-2.168.022-3.257-.017-1.685-.009-3.39-.352-5.045l-.013-.07c.296-.02.584-.051.812-.047h-.004Zm-1.07 33.062.025-.333c1.165.013 2.905-.544 4.413-1.118.752 3.533-.412 7.2-.43 10.777.151 3.861-1.516 6.626-5.645 6.457-2.853.2-5.715.018-8.572.087-7.777.064-15.524 1.067-23.318.915-3.081-.207-6.372.342-9.358-.483a.64.64 0 0 1-.164-.078c.073-.302.078-.622.215-.916.447-1.192 1.573-2.185 2.771-2.591 1.367-.428 2.862-.523 4.297-.666l.928.04c8.533.073 16.994-1.266 25.535-1.128 2.462-.078 5.483.583 7.129-1.776 1.963-2.626 2.01-6.047 2.169-9.192l.005.005Zm-51.268-25.3c.06-8.518-.232-9.528 8.645-11.118 3.446-.44 6.952-.328 10.419-.177 3.029-.1 6.028-.57 9.066-.562 5.788.044 11.575-.177 17.354 0 1.315.165 2.909-.155 3.567 1.413.992 2.656 1.164 5.568 1.117 8.393.038 6.591-.464 13.17-.357 19.762.026 2.6-.056 5.096-.275 7.71-.146 2.63-.146 5.43-1.603 7.736-.906 1.611-2.801 1.447-4.386 1.374-.83-.013-1.663.013-2.493.017-8.322-.112-16.619 1.278-24.955 1.093a2.055 2.055 0 0 0-.709-.017h-.047c-2.818-.083-5.65-.26-8.447-.674-2.544-.139-5.01-.64-5.354-3.624-.455-2.026-.545-4.095-.619-6.164a196.175 196.175 0 0 1-.549-9.089c-.19-5.356-.417-10.716-.383-16.073h.009Zm-5.259 8.03a1.063 1.063 0 0 0-.224.134c-3.188-1.136-6.123-2.997-8.653-5.244-5.135-4.734-7.941-8.366-9.389-15.39 4.224-.13 7.777 1.3 11.348 3.456 2.376 1.101 4.593 2.51 6.497 4.323.128.134.262.268.395.402.223.316.503.627.644.925 1.264 1.904 2.205 4.081 2.106 6.414-.091 1.974-.855 4.065-2.72 4.976l-.004.004Zm-17.428 20.41c.928-1.59 2.265-3.153 3.446-4.635a38.864 38.864 0 0 1 8.954-8.92c1.706-1.14 3.459-2.211 5.354-2.997 2.488 2.462 3.154 7.65 2.582 10.954-.103.721-.455 1.542-.751 2.229a3.08 3.08 0 0 0-.288.574c-5.861 5.378-13.763 9.534-21.767 7.728.773-1.667 1.465-3.386 2.466-4.933h.004ZM193.376 72.922c-3.197-.043-6.402-.203-9.599 0-3.145.311-8.103 1.024-10.346 3.408-1.672 1.849-1.603 4.406-1.633 6.808-.301-.41-.589-.752-.769-.95a29.036 29.036 0 0 0-1.405-1.5 1.558 1.558 0 0 0-.494-.496c-2.015-1.922-4.305-3.533-6.858-4.67-2.015-1.127-4.043-2.28-6.294-2.967-2.123-.691-4.374-.747-6.587-.804-.7-.112-1.457.303-1.349 1.098.348 1.956.868 3.87 1.615 5.714a16.015 16.015 0 0 0 2.424 4.868c4.03 5.551 9.577 10.54 16.172 12.61-.038.012-.077.02-.116.038a1.007 1.007 0 0 0-.215.177c-.867.324-1.714.704-2.509 1.197-2.797 1.503-5.336 3.451-7.674 5.598-1.856 1.952-3.703 3.913-5.246 6.129-2.591 2.946-4.572 6.376-5.981 10.043-.455 1.032.176 1.581 1.152 1.736 1.143.26 2.298.467 3.476.519 8.056.38 16-4.272 21.526-10.009.129 2.324.236 4.653.829 6.92.34 1.897 1.929 3.249 3.691 3.81.572.108 1.147.203 1.723.294.004.099.013.194.026.285.12 1.071-.138 2.155.137 3.209.769 3.888 3.541 3.685 6.776 3.745 2.522-.004 5.044.057 7.567.061 8.619-.095 17.199-1.162 25.827-.929 4.971.009 9.839.376 11.034-5.71.215-1.257.129-2.527.223-3.793.159-1.84.481-3.758.546-5.624.309-1.477-.034-3.08-.202-4.557v-.039c.301-.125.567-.237.778-.328 3.884-1.836 7.833-3.71 11.064-6.605.648-.527 1.323-1.071 1.873-1.71.331-.372.765-.726.851-1.244-.211-2.38-2.419-3.81-3.927-5.43-.697-.872-1.68-1.412-2.621-1.974-2.114-1.451-4.357-2.678-6.785-3.507-.361-.134-.726-.26-1.091-.38.038-.475.008-.976.017-1.326-.013-1.737.052-3.547-.099-5.292.026-1.442-.374-2.855-.722-4.233-.356-.764-1.31-.786-2.032-.773-1.066 0-2.127.12-3.192.173h-.331c-.224-.99-.537-1.948-1.212-2.726-1.19-1.525-3.188-1.244-4.911-1.434-3.437-.125-6.892.039-10.334 0-3.506.073-7.025-.086-10.514.22-1.327.078-2.9.233-4.283.354l.004-.004Zm-25.174 21.07a1.063 1.063 0 0 0-.224.135c-3.188-1.136-6.122-2.998-8.653-5.244-5.135-4.734-7.94-8.367-9.388-15.39 4.223-.13 7.777 1.3 11.347 3.455 2.376 1.101 4.593 2.51 6.497 4.324.129.134.262.268.395.401.223.316.503.627.644.925 1.264 1.905 2.205 4.082 2.106 6.414-.09 1.974-.855 4.065-2.72 4.976l-.004.005Zm2.917 14.808c-.103.721-.455 1.542-.752 2.229a3.143 3.143 0 0 0-.288.574c-5.86 5.378-13.762 9.534-21.767 7.728.774-1.667 1.466-3.386 2.467-4.933.928-1.589 2.264-3.153 3.446-4.635a38.855 38.855 0 0 1 8.954-8.92c1.706-1.14 3.459-2.211 5.354-2.997 2.487 2.462 3.153 7.65 2.582 10.954h.004Zm60.987-18.608c2.265.773 4.28 2.099 6.286 3.386 1.044.497 1.77 1.365 2.57 2.164 1.014.916 2.135 1.922 2.672 3.222-2.565 2.748-5.813 4.882-9.173 6.54-2.101 1.08-4.237 2.125-6.471 2.894-.309-.194-.752-.194-1.1-.315-.898-.389-1.091-1.616-.846-2.475.206-.626 1.014-.95 1.697-1.305 1.899-.812 3.678-1.935 5.28-3.235.653-.631 1.521-1.183 1.942-2.013.091-2.44-4.288-4.738-7.489-5.97a.858.858 0 0 0-.429-.436c-.761-.354-1.105-1.343-1.036-2.142.34-.769 1.122-1.244 1.934-1.357.249 0 .524-.025.777-.082 1.143.316 2.273.7 3.391 1.124h-.005Zm-7.119 13.235c-.018-3.102.06-6.199.154-9.296.129.034.254.06.366.086 1.426.393 2.797 1.089 4.15 1.733 1.25.738 2.63 1.455 3.463 2.69-1.512 1.534-3.321 2.717-5.225 3.698a.791.791 0 0 0-.592.22c-.25.117-.495.251-.735.389-.516.19-1.049.337-1.581.48Zm.812-25.226c.971-.06 1.916-.169 2.891-.121.731 2.872.585 5.831.606 8.781.03.177.017.372-.004.579a27.535 27.535 0 0 0-3.957-.82c.017-1.085.025-2.17.021-3.258-.017-1.684-.008-3.39-.352-5.045-.005-.021-.009-.047-.013-.069.296-.022.584-.052.812-.047h-.004Zm-1.07 33.061.026-.332c1.164.013 2.904-.545 4.412-1.119.752 3.533-.412 7.2-.429 10.777.15 3.862-1.517 6.626-5.646 6.458-2.853.198-5.715.017-8.572.086-7.777.065-15.524 1.067-23.318.916-3.081-.208-6.372.341-9.358-.484a.62.62 0 0 1-.164-.078c.073-.302.078-.622.215-.915.447-1.193 1.573-2.186 2.772-2.592 1.366-.428 2.861-.523 4.296-.665l.928.038c8.534.074 16.994-1.265 25.536-1.127 2.462-.078 5.482.583 7.128-1.775 1.963-2.626 2.011-6.048 2.17-9.192l.004.004Zm-5.779-37.156c1.315.164 2.909-.156 3.566 1.412.993 2.657 1.164 5.568 1.117 8.393.039 6.592-.464 13.17-.356 19.762.025 2.6-.056 5.097-.275 7.71-.147 2.631-.147 5.43-1.603 7.736-.907 1.612-2.802 1.447-4.387 1.374-.829-.013-1.663.013-2.492.017-8.323-.112-16.62 1.279-24.955 1.093a2.058 2.058 0 0 0-.709-.017h-.047c-2.819-.082-5.651-.259-8.448-.674-2.543-.138-5.01-.639-5.353-3.624-.456-2.026-.546-4.095-.619-6.164a197.63 197.63 0 0 1-.55-9.088c-.189-5.356-.417-10.717-.382-16.073.06-8.518-.232-9.53 8.645-11.119 3.445-.44 6.952-.328 10.419-.177 3.029-.1 6.028-.57 9.066-.561 5.788.043 11.575-.177 17.354 0h.009Z"/><path fill="#000" d="M50.486 120.67c1.143.259 2.299.466 3.476.518 8.056.38 16-4.272 21.526-10.008.13 2.324.237 4.652.83 6.92.339 1.896 1.929 3.248 3.69 3.81.572.108 1.148.203 1.723.293.005.1.013.195.026.286.12 1.071-.138 2.155.137 3.209.77 3.887 3.541 3.684 6.776 3.745 2.522-.004 5.045.056 7.567.06 8.619-.095 17.199-1.162 25.827-.928 4.971.008 9.84.376 11.034-5.711.215-1.257.129-2.527.223-3.792.159-1.84.482-3.758.546-5.624.309-1.478-.034-3.08-.202-4.557v-.039c.301-.125.567-.238.778-.328 3.884-1.836 7.833-3.711 11.064-6.605.649-.527 1.323-1.071 1.873-1.711.331-.371.765-.725.851-1.244-.211-2.38-2.419-3.81-3.927-5.43-.696-.872-1.68-1.412-2.621-1.973-2.114-1.452-4.357-2.678-6.785-3.508-.361-.134-.726-.259-1.091-.38.039-.475.009-.976.017-1.326-.013-1.736.052-3.546-.099-5.291.026-1.443-.374-2.855-.722-4.233-.356-.765-1.31-.787-2.032-.774-1.065 0-2.127.121-3.192.173h-.331c-.224-.989-.537-1.948-1.212-2.725-1.19-1.525-3.188-1.245-4.911-1.434-3.437-.126-6.892.038-10.333 0-3.506.073-7.025-.087-10.514.22-1.328.078-2.9.233-4.284.354-3.197-.043-6.402-.203-9.599 0-3.145.311-8.103 1.024-10.346 3.408-1.672 1.849-1.603 4.406-1.633 6.808-.3-.41-.589-.752-.77-.95a28.86 28.86 0 0 0-1.404-1.5c-.13-.203-.3-.38-.494-.496-2.015-1.922-4.306-3.534-6.858-4.67-2.015-1.127-4.043-2.28-6.294-2.967-2.123-.691-4.374-.748-6.587-.804-.7-.112-1.457.303-1.35 1.098.349 1.956.869 3.87 1.616 5.714a16.03 16.03 0 0 0 2.423 4.868c4.03 5.55 9.578 10.54 16.173 12.609-.038.013-.077.022-.116.039a.982.982 0 0 0-.215.177c-.868.324-1.714.704-2.509 1.197-2.797 1.503-5.336 3.451-7.674 5.598-1.856 1.952-3.704 3.913-5.246 6.129-2.59 2.946-4.572 6.376-5.981 10.043-.455 1.032.176 1.581 1.151 1.736l.005-.004Zm84.434-30.768c2.264.773 4.279 2.1 6.286 3.387 1.044.496 1.77 1.364 2.569 2.164 1.014.915 2.136 1.922 2.673 3.222-2.565 2.747-5.814 4.881-9.174 6.54-2.101 1.08-4.236 2.125-6.47 2.894-.31-.195-.752-.195-1.1-.315-.898-.389-1.092-1.616-.847-2.476.206-.626 1.014-.95 1.697-1.304 1.899-.812 3.678-1.935 5.281-3.235.653-.631 1.521-1.184 1.942-2.013.09-2.44-4.288-4.739-7.489-5.97a.861.861 0 0 0-.43-.436c-.76-.354-1.104-1.344-1.035-2.143.339-.769 1.121-1.244 1.933-1.356.25 0 .524-.026.778-.082 1.143.315 2.273.7 3.39 1.123h-.004Zm-7.12 13.235c-.017-3.101.06-6.198.155-9.296.129.035.253.06.365.087 1.427.393 2.797 1.088 4.151 1.732 1.25.739 2.629 1.456 3.463 2.691-1.513 1.534-3.322 2.717-5.225 3.698a.788.788 0 0 0-.593.22c-.249.116-.494.25-.735.389-.515.19-1.048.337-1.581.479Zm.812-25.226c.971-.06 1.917-.168 2.892-.12.73 2.872.584 5.83.606 8.78.03.178.017.372-.005.58a27.507 27.507 0 0 0-3.957-.821c.017-1.084.026-2.169.022-3.257-.017-1.685-.009-3.39-.353-5.045l-.013-.07c.297-.021.585-.051.813-.047h-.005Zm-1.07 33.062.026-.333c1.165.013 2.905-.544 4.413-1.119.752 3.534-.413 7.201-.43 10.778.151 3.861-1.517 6.626-5.646 6.457-2.853.199-5.714.017-8.572.087-7.777.064-15.523 1.066-23.318.915-3.08-.207-6.371.342-9.358-.483a.669.669 0 0 1-.163-.078c.073-.303.077-.622.215-.916.447-1.192 1.572-2.186 2.771-2.592 1.367-.427 2.862-.522 4.297-.665l.928.039c8.533.073 16.993-1.266 25.535-1.127 2.462-.078 5.483.583 7.128-1.776 1.964-2.626 2.011-6.047 2.17-9.192l.004.005Zm-51.267-25.3c.06-8.518-.233-9.529 8.644-11.118 3.446-.44 6.952-.329 10.42-.177 3.029-.1 6.028-.57 9.066-.562 5.787.043 11.575-.177 17.354 0 1.315.164 2.909-.155 3.566 1.413.993 2.656 1.165 5.567 1.117 8.392.039 6.592-.464 13.17-.356 19.762a81.25 81.25 0 0 1-.275 7.711c-.146 2.63-.146 5.429-1.603 7.736-.906 1.611-2.801 1.447-4.387 1.373-.829-.012-1.663.013-2.492.018-8.322-.113-16.619 1.278-24.955 1.093a2.058 2.058 0 0 0-.709-.018h-.047c-2.819-.082-5.65-.259-8.447-.674-2.544-.138-5.01-.639-5.354-3.624-.455-2.025-.546-4.095-.619-6.164-.249-2.997-.438-6.038-.55-9.088-.189-5.356-.416-10.716-.382-16.073h.008Zm-5.26 8.03a1.058 1.058 0 0 0-.223.134c-3.188-1.136-6.123-2.998-8.654-5.244-5.134-4.734-7.94-8.367-9.388-15.39 4.224-.13 7.777 1.3 11.348 3.455 2.376 1.102 4.593 2.51 6.496 4.324.13.134.262.268.396.402.223.315.502.626.644.924 1.263 1.905 2.204 4.082 2.105 6.415-.09 1.974-.855 4.064-2.72 4.976l-.004.004Zm-17.427 20.41c.928-1.59 2.264-3.153 3.446-4.635a38.857 38.857 0 0 1 8.954-8.92c1.706-1.14 3.459-2.211 5.354-2.997 2.488 2.462 3.154 7.649 2.582 10.954-.103.721-.455 1.542-.752 2.229a3.111 3.111 0 0 0-.288.574c-5.86 5.378-13.762 9.533-21.767 7.728.774-1.667 1.466-3.387 2.467-4.933h.004ZM96.319 175.416c.649-.527 1.323-1.072 1.873-1.711.331-.371.765-.726.85-1.244-.21-2.38-2.418-3.81-3.926-5.43-.696-.872-1.68-1.412-2.621-1.974-2.114-1.451-4.357-2.678-6.785-3.507-.36-.134-.726-.259-1.091-.38.039-.475.008-.976.017-1.326-.013-1.737.052-3.547-.099-5.292.026-1.442-.374-2.855-.722-4.233-.356-.764-1.31-.786-2.032-.773-1.065 0-2.127.121-3.192.173h-.331c-.224-.989-.537-1.948-1.212-2.726-1.19-1.525-3.188-1.244-4.91-1.434-3.438-.125-6.893.039-10.334 0-3.507.073-7.026-.086-10.514.22-1.328.078-2.9.234-4.284.355-3.197-.044-6.402-.203-9.599 0-3.145.311-8.103 1.023-10.346 3.408-1.672 1.848-1.603 4.406-1.633 6.807-.3-.41-.589-.751-.77-.95a29.066 29.066 0 0 0-1.404-1.499c-.13-.203-.3-.38-.494-.497-2.015-1.922-4.306-3.533-6.858-4.669-2.015-1.128-4.043-2.281-6.294-2.968-2.123-.691-4.374-.747-6.587-.803-.7-.112-1.457.302-1.35 1.097.349 1.957.869 3.87 1.616 5.715.52 1.758 1.35 3.386 2.424 4.868 4.03 5.551 9.577 10.54 16.172 12.609-.038.013-.077.021-.116.038a.984.984 0 0 0-.215.178c-.868.324-1.714.704-2.509 1.196-2.797 1.503-5.336 3.451-7.674 5.598-1.856 1.953-3.704 3.914-5.246 6.13-2.59 2.945-4.572 6.375-5.981 10.042-.455 1.033.176 1.581 1.152 1.737 1.142.259 2.298.466 3.476.518 8.056.38 16-4.272 21.526-10.008.129 2.324.236 4.652.83 6.92.339 1.896 1.928 3.248 3.69 3.81.571.108 1.147.203 1.723.293.004.1.013.195.026.285.12 1.072-.138 2.156.137 3.21.77 3.887 3.54 3.684 6.776 3.745 2.522-.004 5.044.056 7.566.06 8.62-.095 17.2-1.162 25.828-.928 4.971.008 9.84.375 11.034-5.711.215-1.257.129-2.527.223-3.792.16-1.84.481-3.758.546-5.624.31-1.478-.035-3.08-.202-4.557v-.039c.3-.126.567-.238.778-.329 3.884-1.835 7.832-3.71 11.063-6.604l.005-.004ZM21.836 167.2a1.031 1.031 0 0 0-.223.134c-3.189-1.136-6.123-2.998-8.654-5.244-5.135-4.734-7.94-8.367-9.388-15.391 4.223-.129 7.777 1.301 11.347 3.456 2.376 1.101 4.593 2.51 6.497 4.324.129.134.262.268.395.402.224.315.503.626.645.924 1.263 1.905 2.204 4.082 2.105 6.414-.09 1.974-.855 4.065-2.72 4.977l-.004.004Zm2.917 14.807c-.103.721-.455 1.542-.752 2.229a3.09 3.09 0 0 0-.287.575c-5.861 5.377-13.763 9.533-21.767 7.727.773-1.667 1.465-3.386 2.466-4.933.928-1.589 2.264-3.153 3.446-4.635a38.831 38.831 0 0 1 8.954-8.919c1.706-1.141 3.459-2.212 5.354-2.998 2.488 2.462 3.153 7.65 2.582 10.954h.004Zm54.68-30.599c.97-.061 1.916-.169 2.891-.121.731 2.872.585 5.831.606 8.781.03.177.017.372-.004.579a27.561 27.561 0 0 0-3.957-.821c.017-1.084.026-2.168.021-3.257-.017-1.684-.008-3.39-.352-5.045l-.013-.069c.297-.021.584-.052.812-.047h-.004Zm-.292 16.021c1.426.393 2.797 1.088 4.15 1.732 1.25.739 2.63 1.456 3.463 2.691-1.512 1.533-3.32 2.717-5.224 3.697a.794.794 0 0 0-.593.221c-.25.116-.494.25-.735.389-.516.19-1.048.336-1.581.479-.017-3.101.06-6.199.154-9.296.13.035.254.061.366.087Zm-50.495 23.066c-.455-2.026-.546-4.095-.619-6.164-.249-2.998-.438-6.039-.55-9.088-.189-5.356-.416-10.717-.382-16.073.06-8.518-.232-9.529 8.645-11.119 3.446-.44 6.952-.328 10.42-.177 3.029-.099 6.028-.57 9.065-.561 5.788.043 11.576-.177 17.355 0 1.314.164 2.909-.156 3.566 1.412.992 2.657 1.164 5.568 1.117 8.393.039 6.592-.464 13.17-.357 19.762a81.23 81.23 0 0 1-.275 7.71c-.146 2.631-.146 5.43-1.602 7.736-.907 1.612-2.802 1.447-4.387 1.374-.83-.013-1.663.013-2.492.017-8.323-.112-16.62 1.279-24.955 1.093a2.058 2.058 0 0 0-.71-.017h-.047c-2.818-.082-5.65-.259-8.447-.674-2.543-.138-5.01-.639-5.353-3.624h.008Zm48.08 9.762c-2.853.199-5.715.017-8.572.086-7.777.065-15.524 1.067-23.318.916-3.08-.207-6.372.341-9.358-.484a.632.632 0 0 1-.163-.077c.073-.303.077-.622.214-.916.447-1.192 1.573-2.186 2.772-2.592 1.366-.427 2.861-.522 4.296-.665l.928.039c8.534.073 16.994-1.266 25.536-1.127 2.462-.078 5.482.583 7.128-1.776 1.964-2.626 2.01-6.047 2.17-9.192l.026-.332c1.164.013 2.904-.545 4.412-1.119.752 3.533-.412 7.201-.43 10.777.15 3.862-1.516 6.626-5.645 6.458l.004.004Zm4.898-18.647c-.31-.195-.752-.195-1.1-.316-.898-.388-1.091-1.615-.846-2.475.206-.626 1.014-.95 1.697-1.304 1.9-.812 3.678-1.935 5.28-3.235.654-.631 1.522-1.184 1.943-2.013.09-2.441-4.288-4.739-7.49-5.97a.86.86 0 0 0-.43-.436c-.76-.354-1.103-1.344-1.035-2.143.34-.769 1.122-1.244 1.934-1.356a3.7 3.7 0 0 0 .778-.082c1.142.315 2.272.7 3.39 1.123 2.264.773 4.28 2.099 6.286 3.386 1.044.497 1.77 1.365 2.57 2.165 1.013.915 2.135 1.922 2.672 3.222-2.566 2.747-5.814 4.881-9.174 6.54-2.1 1.08-4.236 2.125-6.47 2.894h-.005Z"/><path fill="#000" d="M190.605 167.031c-.696-.872-1.68-1.412-2.621-1.974-2.114-1.451-4.357-2.678-6.784-3.507a32.787 32.787 0 0 0-1.092-.38c.039-.475.009-.976.017-1.326-.012-1.737.052-3.547-.098-5.292.025-1.442-.374-2.855-.722-4.233-.357-.764-1.311-.786-2.033-.773-1.065 0-2.126.121-3.192.173h-.331c-.223-.989-.537-1.948-1.212-2.726-1.19-1.525-3.188-1.244-4.911-1.434-3.437-.125-6.892.039-10.333 0-3.506.073-7.025-.086-10.514.22-1.328.078-2.9.234-4.284.355-3.197-.044-6.402-.203-9.599 0-3.145.311-8.103 1.023-10.346 3.408-1.671 1.848-1.603 4.406-1.633 6.807-.301-.41-.588-.751-.769-.95a28.849 28.849 0 0 0-1.405-1.499 1.563 1.563 0 0 0-.494-.497c-2.015-1.922-4.305-3.533-6.858-4.669-2.015-1.128-4.043-2.281-6.294-2.968-2.123-.691-4.374-.747-6.587-.803-.7-.112-1.457.302-1.35 1.097.349 1.957.869 3.87 1.616 5.715.52 1.758 1.35 3.386 2.424 4.868 4.03 5.551 9.577 10.54 16.172 12.609-.038.013-.077.021-.116.038a.998.998 0 0 0-.214.178c-.868.324-1.715.704-2.51 1.196-2.797 1.503-5.336 3.451-7.674 5.598-1.856 1.953-3.703 3.914-5.246 6.13-2.59 2.945-4.571 6.375-5.98 10.042-.456 1.033.175 1.581 1.15 1.737 1.144.259 2.3.466 3.477.518 8.056.38 16.001-4.272 21.526-10.008.129 2.324.236 4.652.829 6.92.34 1.896 1.93 3.248 3.691 3.81.572.108 1.147.203 1.723.293.005.1.013.195.026.285.12 1.072-.138 2.156.137 3.21.77 3.887 3.541 3.684 6.776 3.745 2.522-.004 5.045.056 7.567.06 8.619-.095 17.199-1.162 25.827-.928 4.971.008 9.839.375 11.034-5.711.215-1.257.129-2.527.223-3.792.159-1.84.482-3.758.546-5.624.309-1.478-.034-3.08-.202-4.557v-.039c.301-.126.567-.238.778-.329 3.884-1.835 7.833-3.71 11.064-6.604.649-.527 1.323-1.071 1.873-1.711.331-.371.765-.725.851-1.244-.211-2.38-2.419-3.809-3.927-5.429l.004-.005Zm-73.284.169a1.03 1.03 0 0 0-.224.134c-3.188-1.136-6.122-2.998-8.653-5.244-5.135-4.734-7.94-8.367-9.388-15.391 4.223-.129 7.777 1.301 11.347 3.456 2.376 1.101 4.593 2.51 6.497 4.324.129.134.262.268.395.402.224.315.503.626.645.924 1.263 1.905 2.204 4.082 2.105 6.414-.09 1.974-.855 4.065-2.72 4.977l-.004.004Zm2.917 14.807c-.103.721-.455 1.542-.752 2.229a3.118 3.118 0 0 0-.287.575c-5.861 5.377-13.763 9.533-21.767 7.727.773-1.667 1.465-3.386 2.466-4.933.928-1.589 2.264-3.153 3.446-4.635a38.831 38.831 0 0 1 8.954-8.919c1.706-1.141 3.459-2.212 5.354-2.998 2.488 2.462 3.153 7.65 2.582 10.954h.004Zm54.68-30.599c.971-.061 1.916-.169 2.891-.121.731 2.872.585 5.831.606 8.781.03.177.018.372-.004.579a27.577 27.577 0 0 0-3.957-.821c.017-1.084.026-2.168.021-3.257-.017-1.684-.008-3.39-.352-5.045l-.013-.069c.297-.021.584-.052.812-.047h-.004Zm-.292 16.021c1.426.393 2.797 1.088 4.15 1.732 1.251.739 2.63 1.456 3.463 2.691-1.512 1.533-3.321 2.717-5.224 3.697a.793.793 0 0 0-.593.221c-.25.116-.494.25-.735.389-.516.19-1.048.336-1.581.479-.017-3.101.06-6.199.154-9.296.129.035.254.061.366.087Zm-50.495 23.066c-.455-2.026-.546-4.095-.619-6.164a197.63 197.63 0 0 1-.55-9.088c-.189-5.356-.416-10.717-.382-16.073.06-8.518-.232-9.529 8.645-11.119 3.446-.44 6.952-.328 10.419-.177 3.03-.099 6.029-.57 9.066-.561 5.788.043 11.576-.177 17.355 0 1.314.164 2.908-.156 3.566 1.412.992 2.657 1.164 5.568 1.117 8.393.039 6.592-.464 13.17-.357 19.762a80.9 80.9 0 0 1-.275 7.71c-.146 2.631-.146 5.43-1.602 7.736-.907 1.612-2.802 1.447-4.387 1.374-.829-.013-1.663.013-2.492.017-8.323-.112-16.62 1.279-24.955 1.093a2.058 2.058 0 0 0-.709-.017h-.048c-2.818-.082-5.65-.259-8.447-.674-2.543-.138-5.01-.639-5.353-3.624h.008Zm48.08 9.762c-2.853.199-5.715.017-8.572.086-7.777.065-15.524 1.067-23.318.916-3.081-.207-6.372.341-9.358-.484a.629.629 0 0 1-.163-.077c.073-.303.077-.622.214-.916.447-1.192 1.573-2.186 2.772-2.592 1.366-.427 2.861-.522 4.296-.665l.929.039c8.533.073 16.993-1.266 25.535-1.127 2.462-.078 5.482.583 7.128-1.776 1.963-2.626 2.011-6.047 2.17-9.192l.025-.332c1.165.013 2.905-.545 4.413-1.119.752 3.533-.412 7.201-.43 10.777.151 3.862-1.516 6.626-5.645 6.458l.004.004Zm11.369-21.541c-2.101 1.08-4.237 2.125-6.471 2.894-.309-.195-.752-.195-1.1-.316-.898-.388-1.091-1.615-.846-2.475.206-.626 1.014-.95 1.697-1.304 1.899-.812 3.678-1.935 5.281-3.235.653-.631 1.521-1.184 1.942-2.013.09-2.441-4.288-4.739-7.489-5.97a.864.864 0 0 0-.43-.436c-.761-.354-1.104-1.344-1.036-2.143.34-.769 1.122-1.244 1.934-1.356.249 0 .524-.026.778-.082 1.142.315 2.273.7 3.39 1.123 2.264.773 4.279 2.099 6.286 3.386 1.044.497 1.77 1.365 2.569 2.165 1.014.915 2.136 1.922 2.673 3.222-2.566 2.747-5.814 4.881-9.174 6.54h-.004ZM290.077 166.362c-.696-.873-1.68-1.413-2.621-1.974-2.114-1.452-4.357-2.678-6.784-3.508a32.013 32.013 0 0 0-1.092-.38c.039-.475.009-.976.018-1.326-.013-1.736.051-3.546-.099-5.291.026-1.443-.374-2.855-.722-4.233-.357-.765-1.311-.787-2.032-.774-1.066 0-2.127.121-3.193.173h-.331c-.223-.989-.537-1.948-1.211-2.725-1.191-1.525-3.188-1.244-4.911-1.435-3.438-.125-6.892.039-10.334 0-3.506.074-7.025-.086-10.514.221-1.328.078-2.9.233-4.284.354-3.196-.043-6.402-.203-9.598 0-3.146.311-8.104 1.024-10.347 3.408-1.671 1.849-1.603 4.406-1.633 6.808-.3-.411-.588-.752-.769-.951a28.849 28.849 0 0 0-1.405-1.499 1.55 1.55 0 0 0-.494-.496c-2.015-1.922-4.305-3.534-6.857-4.67-2.015-1.127-4.044-2.28-6.295-2.967-2.123-.691-4.374-.747-6.587-.804-.7-.112-1.456.303-1.349 1.098.348 1.956.868 3.87 1.616 5.714a16.029 16.029 0 0 0 2.423 4.868c4.03 5.551 9.577 10.54 16.173 12.609-.039.013-.078.022-.116.039a.977.977 0 0 0-.215.177c-.868.324-1.715.704-2.509 1.197-2.798 1.503-5.337 3.451-7.674 5.598-1.857 1.952-3.704 3.913-5.247 6.129-2.59 2.946-4.571 6.376-5.981 10.043-.455 1.032.177 1.581 1.152 1.736 1.143.26 2.299.467 3.476.519 8.056.38 16.001-4.272 21.526-10.009.129 2.324.237 4.652.83 6.92.339 1.896 1.929 3.249 3.69 3.81.572.108 1.148.203 1.723.294.005.099.013.194.026.285.12 1.071-.137 2.155.138 3.209.769 3.888 3.54 3.685 6.776 3.745 2.522-.004 5.044.056 7.566.061 8.619-.095 17.2-1.162 25.827-.929 4.972.009 9.84.376 11.034-5.71.215-1.257.129-2.527.224-3.793.159-1.84.481-3.758.545-5.624.31-1.477-.034-3.08-.202-4.557v-.039c.301-.125.567-.237.778-.328 3.884-1.836 7.833-3.711 11.064-6.605.649-.527 1.323-1.071 1.873-1.71.331-.372.765-.726.851-1.244-.211-2.38-2.419-3.81-3.927-5.43l.004-.004Zm-73.284.168a1.04 1.04 0 0 0-.223.134c-3.188-1.136-6.123-2.998-8.654-5.244-5.134-4.734-7.94-8.367-9.388-15.39 4.224-.13 7.777 1.3 11.347 3.455 2.376 1.102 4.594 2.51 6.497 4.324.129.134.262.268.395.402.224.315.503.626.645.924 1.263 1.905 2.204 4.082 2.105 6.415-.09 1.974-.855 4.065-2.72 4.976l-.004.004Zm2.918 14.808c-.104.721-.456 1.542-.752 2.228a3.09 3.09 0 0 0-.288.575c-5.861 5.378-13.763 9.533-21.767 7.728.773-1.668 1.465-3.387 2.466-4.933.928-1.59 2.264-3.154 3.446-4.635a38.855 38.855 0 0 1 8.954-8.92c1.706-1.14 3.459-2.212 5.354-2.998 2.488 2.462 3.154 7.65 2.582 10.955h.005Zm54.679-30.6c.971-.06 1.916-.168 2.892-.121.73 2.873.584 5.832.605 8.782.031.177.018.371-.004.579a27.414 27.414 0 0 0-3.957-.821c.017-1.084.026-2.169.021-3.257-.017-1.685-.008-3.391-.352-5.045-.004-.022-.008-.048-.013-.069.297-.022.585-.052.812-.048h-.004Zm-.292 16.021c1.426.393 2.797 1.089 4.15 1.732 1.251.739 2.63 1.456 3.464 2.691-1.513 1.534-3.322 2.717-5.225 3.698a.788.788 0 0 0-.593.22 10.34 10.34 0 0 0-.735.389c-.515.19-1.048.337-1.581.479-.017-3.101.06-6.198.155-9.295.129.034.253.06.365.086Zm-50.495 23.066c-.455-2.025-.545-4.094-.618-6.164-.25-2.997-.439-6.038-.55-9.088-.189-5.356-.417-10.717-.383-16.073.06-8.518-.232-9.529 8.645-11.118 3.446-.441 6.952-.328 10.42-.177 3.029-.1 6.028-.57 9.066-.562 5.787.043 11.575-.177 17.354 0 1.315.164 2.909-.155 3.566 1.413.993 2.656 1.164 5.568 1.117 8.393.039 6.591-.464 13.17-.356 19.761a81.584 81.584 0 0 1-.275 7.711c-.147 2.63-.147 5.429-1.603 7.736-.907 1.611-2.802 1.447-4.387 1.374-.829-.013-1.663.012-2.492.017-8.323-.113-16.62 1.278-24.955 1.093a2.058 2.058 0 0 0-.709-.018h-.047c-2.819-.082-5.651-.259-8.448-.673-2.543-.139-5.01-.64-5.353-3.625h.008Zm48.08 9.763c-2.853.198-5.714.017-8.572.086-7.777.065-15.524 1.067-23.318.916-3.081-.208-6.372.341-9.358-.484a.63.63 0 0 1-.163-.078c.073-.302.077-.622.215-.916.446-1.192 1.572-2.185 2.771-2.591 1.366-.428 2.862-.523 4.297-.666l.928.039c8.533.074 16.993-1.265 25.535-1.127 2.462-.078 5.482.583 7.128-1.775 1.964-2.627 2.011-6.048 2.17-9.192l.026-.333c1.164.013 2.904-.544 4.412-1.119.752 3.534-.412 7.201-.429 10.778.15 3.861-1.517 6.626-5.646 6.457l.004.005Zm11.369-21.542c-2.101 1.08-4.236 2.125-6.471 2.894-.309-.194-.752-.194-1.1-.315-.898-.389-1.091-1.616-.846-2.475.206-.627 1.014-.951 1.697-1.305 1.899-.812 3.678-1.935 5.281-3.235.653-.631 1.521-1.184 1.942-2.013.09-2.44-4.288-4.738-7.489-5.97a.864.864 0 0 0-.43-.436c-.76-.354-1.104-1.343-1.035-2.142.339-.769 1.121-1.244 1.933-1.357.249 0 .524-.025.778-.082 1.143.316 2.273.7 3.39 1.123 2.264.774 4.279 2.1 6.286 3.387 1.044.497 1.77 1.365 2.569 2.164 1.014.916 2.136 1.922 2.673 3.222-2.565 2.748-5.814 4.881-9.174 6.54h-.004ZM137.893 31.381a.87.87 0 0 0 .86-.864c-.009-1.192.167-2.362.189-3.624 1.16.79 2.255 1.87 2.831 3.167.172.44.705.639 1.126.462 1.822-.96-1.908-4.367-2.87-4.976 2.419-.709 4.167-3.542 1.585-5.257-1.022-.514-2.247-.709-3.381-.696-.537.082-.851.6-.791 1.123-.004 1.21 0 2.424-.073 3.633-.112 1.119-.146 2.506-.202 3.685.069.855-.73 3.291.722 3.347h.004Zm1.259-8.626c.009-.414.009-.83.013-1.244v-.134c3.025.277 2.273 1.927-.056 2.67.022-.432.035-.864.043-1.296v.004ZM147.883 30.487c.941-.138 3.257.553 3.308-.85 0-.463-.391-.878-.859-.865-1.259.013-2.518-.013-3.773-.017 0-1.123.022-2.25.035-3.374a45.64 45.64 0 0 1 2.032.06c.675.143 1.543-.124 1.44-.971-.065-.436-.413-.825-.881-.825-.838.13-1.706.009-2.57 0 .013-.873.026-1.75.03-2.622.662-.194 1.35-.26 2.028-.324.941-.12 2.961.22 2.733-1.283-.167-.626-1.048-.98-1.538-.518-6.011.367-4.778.6-4.993 5.978-.026 1.261-.017 2.523-.03 3.784 0 .41-.056.885.155 1.257.597.898 1.968.466 2.883.57ZM154.07 18.747a.87.87 0 0 0-.717.85c0 .2.073.39.189.536.055 3.01.008 6.022.025 9.032-.051.79.714 1.21 1.414 1.15 2.483.004 5.551-1.171 5.994-3.931.283-2.074-.103-4.523-1.74-5.957-1.337-1.395-3.219-2.808-5.169-1.685l.004.005Zm3.274 2.28c.632.575 1.388 1.136 1.624 2.005 1.156 3.36-.159 5.321-3.682 5.55v-4.725c0-.882 0-1.758-.004-2.64 0-.362-.005-.721-.022-1.084.817-.268 1.517.389 2.084.89v.004ZM86.879 103.34c.55.091.992-.41 1.014-.933.184-1.438.292-2.885.365-4.332 1.564-.009 3.446-.035 4.404-1.49 2.075-3.219-1.323-7.12-4.825-6.45-.58.06-1.044.549-.98 1.145 0 1.495-.073 2.985-.172 4.475-.12 1.616-.18 3.482-.36 5.175.02.855-.697 2.16.55 2.414l.004-.004Zm1.654-9.848c.026-.51.039-1.016.043-1.525v-.164c1.048-.009 2.144.57 2.677 1.486.386.864.515 2.06-.357 2.669-.752.428-1.693.333-2.53.385.064-.95.12-1.901.171-2.851h-.004ZM95.45 103.15c-.025-2.549.164-5.088.228-7.637.026-1.274.13-2.548.12-3.823 0-.345-.051-.7-.275-.976-.614-.816-1.903 0-1.447.907-.03 3.845-.357 7.68-.344 11.529.026 1.136 1.693 1.127 1.719 0ZM99.176 103.267c.275-3.162-.13-6.298.232-9.456 1.474 3.002 2.586 6.22 4.271 9.114a.886.886 0 0 0 1.095.178c.576-.342.529-1.115.546-1.702.013-.445.017-.89.017-1.335a91.097 91.097 0 0 1 .194-8.665c.017-.47-.404-.864-.86-.864-.481 0-.842.393-.859.864-.155 2.514-.301 5.032-.189 7.564-.494-1.18-1.074-2.316-1.581-3.49-.512-1.02-1.878-5.08-3.253-4.648-.421.116-.657.514-.748.915-.257 1.201-.464 2.406-.48 3.633-.078 2.592.085 5.183-.1 7.775.018 1.058 1.556 1.162 1.71.117h.005ZM107.335 98.2c.185 1.334-.098 2.643-.146 3.974-.017.471.404.864.86.864.812 0 .902-.86.889-1.491.202-1.097.176-2.194.125-3.295.223-.16.421-.38.575-.592.112-.125.22-.26.327-.389.172.277.339.57.533.877.915 1.637 2.079 3.11 3.003 4.734.477 1.037 2.002.376 1.586-.674-.916-1.723-2.17-3.244-3.116-4.954-.305-.424-.537-1.01-.893-1.426.765-1.067 1.491-2.172 2.333-3.192 1.035-1.3-1.113-2.505-1.491-.877-1.057 1.262-1.904 2.678-2.909 3.97 0-1.235.017-2.475-.043-3.71-.021-.316-.026-.67-.202-.95-.713-1.059-2.097-.165-1.517.932.108 2.065-.021 4.134.099 6.194l-.013.005ZM191.64 91.846c-.902-1.819-2.784-2.48-4.696-2.017-.447-.095-.756.034-.933.263-.017 0-.03 0-.043.004-.751.311-.408 1.067-.472 1.68-.451 4.173-.761 8.389-.847 12.583.026.722.705.981 1.199.787.331.652 1.405.397 2.075.427 2.591.169 5.758-.635 6.407-3.533.674-2.277-1.599-4.225-3.364-5.231 1.731-1.14 1.611-3.326.683-4.963h-.009Zm-4.584 1.663c.012-.467.167-1.266.176-1.978.498-.083 1.005-.156 1.504-.074 1.28.354 1.946 1.961 1.839 3.205-.714 1.426-2.415 1.283-3.794 1.525.077-.89.167-1.784.275-2.678Zm5.671 7.477c.039 1.119-.765 2.207-1.835 2.527-1.387.458-2.857.302-4.292.354a.768.768 0 0 0-.223.039c.06-1.944.137-3.879.262-5.823.898.013 1.822-.263 2.724-.026 1.456.385 2.758 1.547 3.364 2.925v.004ZM195.009 95.202c.108 2.035.095 4.22.03 6.276-.026.761-.051 1.521.039 2.277.043.367.125.795.447 1.023.356.277.79.199 1.203.143.79-.026 1.581.112 2.367.186 1.122.125 1.349-1.534.232-1.711-.855-.082-1.714-.224-2.573-.203 0-3.097.171-6.198-.112-9.287-.236-1.006.404-4.397-1.461-3.87-.516.216-.61.786-.417 1.266.116 1.3.138 2.609.254 3.909l-.009-.009ZM200.904 100.195c.172 1.638-.31 3.884 1.469 4.761 1.328.6 2.913-.285 3.609-1.456 1.053-2.367.37-5.093.538-7.607 0-1.244.021-2.488-.043-3.732-.061-.76.193-2.06-.898-2.108-.452 0-.881.393-.86.864.017.8.065 1.594.082 2.393.013 1.771-.009 3.55.017 5.322-.116 1.43.477 3.559-.838 4.522-1.641 1.085-1.186-1.499-1.319-2.44-.099-1.668-.064-3.34-.107-5.007-.039-1.693-.03-3.403-.288-5.075-.095-.462-.627-.721-1.057-.605-.494.126-.735.678-.585 1.145.293 2.99.185 6.017.288 9.019l-.008.004ZM209.983 104.878c.863-.017 1.731-.078 2.595-.095a.873.873 0 0 0 .859-.864c0-.48-.391-.877-.859-.864-.842.017-1.68.069-2.522.091.245-1.586.176-3.192.214-4.79a.993.993 0 0 0 .194.021c.679-.043 1.615.06 1.955-.682.356-.795-.688-1.66-1.371-1.076a2.929 2.929 0 0 0-.666.052c.133-1.629.181-3.391.292-5.002.486-.225 1.019-.316 1.547-.359.58.052 1.298-.337 1.195-1.036-.073-.6-.812-1.003-1.332-.679a7.552 7.552 0 0 0-1.478.26c-.907.194-1.685.894-1.676 1.874-.163 3.439-.413 6.868-.481 10.311-.164 1.637-.757 2.877 1.521 2.838h.013ZM41.635 170.686a1.997 1.997 0 0 0-.387-.113c-.571-.41-1.68-.013-1.572.886.043.315.219.523.446.631a.854.854 0 0 0 .447.181c-.116 1.399.194 2.903-.258 4.246a6.536 6.536 0 0 1-2.028-.047c-.352-1.244-.184-2.445-.202-3.806-.03-1.719.09-3.417.22-5.136.06-1.218.447-2.972 2.04-2.799.319 0 .67.009.907-.194.683-.549.21-1.663-.657-1.542-4.232-.208-3.996 4.254-4.198 7.3-.009 1.9-.133 3.818.034 5.714.146 1.547.89 2.298 2.462 2.268 2.686.298 3.403-.855 3.377-3.404.013-.803 0-1.607.022-2.41.047-.657.095-1.507-.649-1.78l-.004.005ZM43.26 171.921c.05 1.732.128 3.464.064 5.196-.211.48.094 1.059.588 1.206.76.22 1.22-.601 1.13-1.266.06-1.784-.038-3.559-.073-5.343 1.71.57 1.895 3.192 2.144 4.73.138.842-.515 2.298.683 2.539 1.423.126 1.019-2.194.984-3.101-.27-1.81-.627-3.771-1.985-5.101 2.33-.778 2.33-4.173 1.84-6.164-.28-.881-1.14-1.378-2.029-1.37-.906-.021-1.822-.574-2.724-.259-.907.411-.417 1.542-.545 2.316-.074 2.203-.138 4.41-.087 6.613l.01.004Zm1.74-4.393c.02-.829.05-1.654.072-2.484 0-.103.005-.207.009-.311 2.135.506 2.088-.28 2.08 2.32-.224 2.108-.392 1.857-2.205 2.626 0-.717.022-1.434.043-2.151ZM50.52 166.016c-.026 3.024.107 6.052-.069 9.076-.051.721-.129 1.442-.176 2.164-.103.682-.124 1.607.752 1.732 1.014-.078 2.011-.35 3.038-.346.468-.047.795-.518.735-.972-.241-1.222-1.938-.604-2.797-.57.201-1.723.249-3.455.253-5.192.486.207 1.212 0 1.603-.358.807-.847-.413-2.147-1.26-1.279a1.092 1.092 0 0 0-.352.104c-.013-1.707-.038-3.417.022-5.115.58-.194 1.203-.207 1.809-.358a.873.873 0 0 0 .494-1.028c-.202-.726-.928-.678-1.517-.553-.722.16-1.577.19-2.1.773-.448.531-.444 1.27-.44 1.927l.005-.005ZM56.523 178.66c1.34.112 2.642-.575 3.944-.856 1.078-.337.632-1.952-.46-1.667-.838.225-1.675.479-2.513.7-.103-1.672 0-3.339.124-5.007.396 0 .855-.164 1.216-.25.786-.022 1.422-.722.911-1.456-.498-.605-1.31-.224-1.998-.034.116-1.637.194-3.275.056-4.916.83-.458 2.621-.389 1.972-1.84-.24-.471-.932-.557-1.31-.212-.911.255-2.213.553-2.38 1.655.249 2.85-.19 5.68-.271 8.531-.065 1.149-.13 2.302-.039 3.455.022.691-.099 1.672.748 1.892v.005ZM62.358 170.552c.017 2.16.081 4.328-.017 6.483-.31.523.077 1.223.661 1.292 1.13.104 1.083-1.257 1.083-2.052.095-2.915-.043-5.818-.163-8.73 1.177 2.052 1.418 4.475 2.509 6.562.413.941.855 1.874 1.126 2.868.107.376.189.795.563.993 1.211.523 1.46-.868 1.435-1.766.034-1.249.025-2.497.025-3.745.035-2.894-.077-5.784-.09-8.674-.03-1.14-1.697-1.127-1.718 0 .021 3.115.128 6.229.09 9.348-.713-1.383-.95-2.951-1.487-4.398-.455-.98-.945-1.939-1.328-2.954-.425-.903-.665-2.039-1.482-2.67-.636-.436-1.508.078-1.486.834.008.419.068.838.09 1.257.086 1.767-.022 3.577.189 5.348v.004Z"/><path fill="#000" d="M133.059 164.729c-.541-.596-1.358-1.024-2.17-.799-.562-.713-1.89.082-2.47.505-1.165 1.002-.696 2.717-.838 4.069-.077 2.437-.301 4.929.245 7.326.172 1.011.232 2.164 1.461 2.376 3.824.942 3.875-3.952 4.034-6.535.112-1.651.155-3.309.138-4.964-.047-.66.03-1.425-.404-1.978h.004Zm-2.831 11.861a1.666 1.666 0 0 1-.529-.06c-.687-2.76-.515-5.611-.382-8.427.124-1.059-.443-2.558 1.057-2.704a.88.88 0 0 0 .842.233c.18-.082.322.056.464.16.086 1.473.279 10.963-1.457 10.803l.005-.005ZM136.037 178.072c.322-.851.219-1.823.326-2.721.069-.899.116-1.879.155-2.786 1.517.743 1.293 3.805 1.65 5.282a.87.87 0 0 0 .967.739c1.044-.181.679-1.309.58-2.047-.206-1.612-.344-3.383-1.349-4.722 1.658-.41 1.998-2.276 1.658-3.74-.292-2.216-1.267-4.294-3.815-4.169-.507.065-1.165.264-1.289.843-.069.941.073 1.9.077 2.846-.013 2.601-.21 5.175-.357 7.771-.042.665-.085 1.585-.232 2.281-.021.872 1.229 1.183 1.625.419l.004.004Zm.662-11.032c-.026-.467-.039-.933-.061-1.4 1.242.13 1.427 1.452 1.646 2.454.357 1.866.142 2.009-1.658 2.449.021-.35.043-.695.06-1.045.047-.817.051-1.642.008-2.462l.005.004ZM140.811 169.861c.103 2.57.116 5.149.064 7.723-.249.54.189 1.196.774 1.196.872.048 1.014-.941.958-1.624.013-.898.008-1.797.008-2.691.009-.419.013-.838.009-1.252.494 0 .988-.005 1.482-.009-.073 1.819-.176 3.512-.111 4.535-.013.471.399.864.859.864 1.177-.069.816-1.524.889-2.336-.051-2.026.146-4.048.116-6.074-.094-1.943.005-4.254-1.426-5.758-.602-.648-1.59-.799-2.299-.242-1.895 1.175-1.186 3.784-1.323 5.668Zm1.744-3.05c.03-.488.099-.989.589-1.214.898.869 1.053 3.305 1.01 5.845-.533-.005-1.126.086-1.569.064-.021-.768-.051-1.542-.06-2.311 0-.794-.013-1.589.03-2.384ZM148.931 178.059c.155-3.386.086-6.786.099-10.177.219 1.296.619 2.739 1.194 3.983.275.885.383 1.806.602 2.704.292 1.006.352 2.052.546 3.075.025.683.73 1.245 1.375.873.33-.194.446-.553.537-.903.219-.846.292-1.728.408-2.591.46-3.279.352-6.583.593-9.884.116-1.136-1.534-1.347-1.702-.233-.18 2.635-.219 5.244-.361 7.892-.18-1.456-1.005-2.704-1.271-4.134-.181-1.417-.774-3.006-1.698-4.181-.498-.894-1.645-.778-1.882.229-.214 1.015-.137 2.065-.06 3.093-.043 3.425.129 6.885-.137 10.293.06 1.175 1.684 1.106 1.757-.039ZM156.88 178.755c2.153.665 3.029-1.417 3.206-3.193.279-.928.631-2.073.868-3.058.27-.661-.048-1.46-.8-1.55-.3-.048-.606-.026-.911.004-.915.104-.988 1.477-.103 1.684-.279 1.18-.743 2.307-.911 3.512-.116 1.067-.958 1.478-1.254.272-.013-3.295.614-6.526 1.349-9.731.245-1.093 2.08-.739 2.011-1.979a.87.87 0 0 0-.855-.816c-.894.237-1.831.687-2.398 1.46-.498.712-.606 1.633-.773 2.466a85.795 85.795 0 0 0-.696 3.883c-.125 2.104-1.341 6.138 1.272 7.046h-.005Z"/><path fill="#000" d="M160.331 164.703v.013c0 .013 0 .026.004.044v-.053l-.004-.004ZM161.997 177.731c1.203.03 2.256-.735 3.365-1.106.614-.212 1.525-.16 1.529-1.041-.305-1.883-2.87-.164-3.897.156.125-1.206.318-2.389.572-3.564.206.009.425-.03.618-.095.645-.138 1.856-.19 2.114-1.024.254-.877-.868-1.564-1.486-.868-.224.069-.512.108-.8.16.056-.203.104-.406.164-.605.275-1.101.356-2.246.618-3.352.452-.691 1.792-.523 1.934-1.525.086-.57-.408-1.11-.984-1.028a.843.843 0 0 0-.559.329c-.322.146-.648.272-.962.44-1.573.834-1.22 2.937-1.65 4.419a38.44 38.44 0 0 0-1.362 7.149c-.155.639.017 1.455.782 1.55l.004.005ZM238.427 175.528c1.031-1.655.902-4.834-.975-5.819 1.693-1.187 1.405-3.961 0-5.269-.843-.83-2.265-.67-3.262-.234a1.11 1.11 0 0 0-.425.104.833.833 0 0 0-.361.212.877.877 0 0 0-.15 1.015c-.005.475-.013.95-.009 1.425.039 2.825-.163 5.633-.202 8.458-.021.471.408.864.86.864.12 0 .232-.026.33-.069.052.09.116.177.211.246.361.281.825.138 1.237.134.894-.061 2.209-.156 2.746-1.067Zm-3.463-9.335c0-.146.008-.302.013-.453l.017-.013c.326-.112.683-.13 1.027-.143.833.311 1.04 1.65.722 2.402-.292.466-1.113.648-1.796.903.008-.899.017-1.797.013-2.696h.004Zm2.006 8.423c-.648.294-1.405.225-2.114.303-.03 0-.055.017-.085.021.017-1.39.09-2.777.154-4.168.237-.013.486-.056.713-.022.477.156.963.407 1.337.735.434.989.567 2.168 0 3.131h-.005ZM241.705 176.327c.859-.233 1.792-.026 2.634-.294.443-.16.632-.717.455-1.131-.18-.432-.64-.605-1.065-.48-.701.052-1.409.013-2.101.164.013-1.274.086-2.548.176-3.823.567-.013 1.139.018 1.706.035.85.091 1.435-.911.79-1.542-.447-.505-1.125-.099-1.697-.216-.193 0-.421-.017-.653-.013.103-1.123.223-2.242.357-3.361.829-.457 2.38 0 2.298-1.308-.172-1.02-1.379-.761-2.096-.562-.671.194-1.509.385-1.766 1.127-.477 2.238-.533 4.579-.714 6.864a32.485 32.485 0 0 0-.116 3.102c0 .362-.017.777.181 1.101.335.588 1.057.527 1.611.346v-.009ZM247.08 176.102c1.109.091.993-1.11 1.057-1.883.116-1.002.185-2.142.314-3.162.142-1.382.206-2.592.292-4.034-.017-.851.473-2.022.069-2.877-.499-.89-1.886-.242-1.551.708-.202 1.391-.288 2.786-.361 4.19-.129 1.758-.357 3.56-.494 5.331-.086.622-.198 1.615.67 1.727h.004ZM251.222 175.843c.808.285 1.654-.073 2.449-.237.279-.065.567-.134.817-.29 1.018-.626.893-2.159 1.267-3.196.138-.631.202-1.249.404-1.871.228-.492.223-1.114-.288-1.421-.477-.276-1.065-.211-1.594-.242-1.182.039-1.096 1.784.082 1.728-.215 1.188-.503 2.354-.782 3.529-.503.134-1.01.255-1.517.355-.12-1.78.043-3.698.318-5.478.142-.902.271-1.814.447-2.712.073-.752.713-1.21 1.443-1.041.697.021 1.113-.851.679-1.391-.494-.562-1.405-.372-2.041-.182-2.144.817-1.856 3.534-2.273 5.4a28.801 28.801 0 0 0-.317 4.829c.017.808.03 1.879.919 2.216l-.013.004ZM259.437 175.58c1.04-.247 2.067-.562 3.128-.7a.872.872 0 0 0 .735-.972c-.06-.454-.507-.816-.967-.739-1.027.134-2.019.424-3.02.674.099-1.14.301-2.268.507-3.391.563-.026 1.216-.263 1.68-.306.447-.082.984-.13 1.28-.519.658-.851-.567-2.047-1.345-1.222-.434.073-.863.168-1.293.242.176-1.058.314-2.121.331-3.197.726-.345 1.603-.125 2.316-.445.82-.457.352-1.822-.572-1.68-1.211.359-3.377.143-3.454 1.905-.052 2.734-.877 5.378-1.113 8.104-.039.712-.404 1.619.223 2.172.43.376 1.079.199 1.56.087l.004-.013ZM269.453 156.267c.928-.086.786-1.162.744-1.849-.031-.73-.026-1.46.021-2.185.142-1.158-1.435-1.56-1.723-.372a48.555 48.555 0 0 0 .026 3.62c.013.471.485.825.932.786ZM269.092 160.41c1.221.211 1.414-1.931.194-1.983-1.096-.056-1.259 1.81-.194 1.983ZM131.569 190.249c-.727.017-1.453 0-2.174-.061-1.148-.164-1.577 1.417-.4 1.728 1.199.056 2.397.078 3.601.043.468-.004.829-.475.799-.924-.069-.937-1.139-.812-1.822-.782l-.004-.004ZM135.543 191.247c-.077 1.097 1.774 1.3 1.968.233.236-1.223-1.895-1.46-1.968-.233ZM47.242 151.766a45.61 45.61 0 0 0 3.6-.142c.469-.03.804-.514.752-.964-.116-.928-1.181-.751-1.86-.691-.722.057-1.452.074-2.174.052-1.152-.103-1.504 1.495-.314 1.745h-.004ZM80.425 86.433c.928-.086.787-1.162.744-1.848-.03-.73-.026-1.46.021-2.186.142-1.158-1.435-1.56-1.723-.371a48.386 48.386 0 0 0 .026 3.62c.013.47.486.824.932.785ZM80.064 90.58c1.22.212 1.414-1.93.193-1.982-1.095-.056-1.259 1.81-.193 1.982ZM208.178 117.573a46.01 46.01 0 0 0 3.601-.043c.468-.018.821-.493.778-.942-.091-.933-1.16-.786-1.839-.739-.727.035-1.453.031-2.174-.008-1.152-.138-1.543 1.451-.361 1.736l-.005-.004ZM216.681 116.938c.206-1.231-1.929-1.412-1.972-.186-.051 1.102 1.805 1.257 1.972.186ZM151.359 6.021c1.199.035 2.402.03 3.601-.03.468-.013.82-.488.777-.937-.09-.933-1.155-.79-1.839-.748a20.27 20.27 0 0 1-2.174-.017c-1.151-.142-1.551 1.447-.365 1.732ZM159.862 5.412c.211-1.23-1.921-1.42-1.972-.19-.056 1.102 1.8 1.266 1.972.19Z"/></g><defs><clipPath id="a"><path fill="#fff" d="M0 0h294v203H0z"/></clipPath></defs></svg>