<svg xmlns="http://www.w3.org/2000/svg" width="303" height="180" fill="none"><g clip-path="url(#a)"><path fill="#fff" d="M175.995 78.182c-7.378 9.666-1.56 21.857 8.728 24.689-7.113-.519-14.136-2.137-20.84-4.55-6.737-2.48-13.512-5.533-18.908-10.352-.406-.41-.869-.785-1.205-1.257.513-.56 1.137-1.013 1.734-1.472 3.901-2.661 8.206-4.593 12.384-6.726a74.55 74.55 0 0 1 20.88-5.546 70.505 70.505 0 0 1 5.427-.382c-3.147.95-6.045 2.807-8.204 5.593l.004.003Z"/><path fill="#F2B2FF" d="M223.104 139.922c.053-.019.108-.028.161-.041h.025c.298.016.6.022.829-.068 2.253-.345 4.219-1.835 6.039-3.139 2.473-1.832 4.703-4.211 5.762-7.142.435-1.634.798-3.351.718-5.043a.567.567 0 0 0-.019-.435V52.639a.664.664 0 0 0 .037-.333 6.377 6.377 0 0 0-.152-1.72c-.18-1.646-.969-3.093-1.811-4.487-.991-1.63-2.538-2.881-4.258-3.68a12.474 12.474 0 0 0-2.908-.866c-.27-.074-.584-.1-.823-.164a9.59 9.59 0 0 0-1.522-.087c-1.532-.075-3.078 0-4.576.084-1.084.027-2.171 0-3.252.074v-7.238c.096-.342.218-.674.37-.997 1.18-2.21 3.619-3.915 6.063-4.35.407-.056.826-.068 1.227-.118a.698.698 0 0 0 .124-.031c2.622.879 5.188 1.925 7.707 3.062 5.119 2.245 9.977 5.014 14.683 8.017 2.377 1.568 4.83 3.021 7.142 4.692 3.09 2.35 6.075 4.844 8.961 7.44 3.01 2.875 6.014 5.741 8.726 8.865 2.264 2.46 4.414 5.034 6.184 7.872 1.519 2.356 2.765 4.816 3.948 7.334a71.803 71.803 0 0 1 3.607 8.633c.428 1.241.779 2.561 1.102 3.794.131.519.224 1.01.339 1.51-1.342-.097-2.684-.181-4.029-.23-.54-.007-1.081-.01-1.625-.013-.012-.028-.021-.056-.037-.084-.795-1.251-1.217-2.73-1.867-4.07-1.348-3.255-2.764-6.49-3.904-9.822-.572-1.786-1.336-3.494-2.116-5.195-.257-.444-.323-1.125-.857-1.314a.631.631 0 0 0-.658.199c-.351.528-.165 1.251-.264 1.854-.202 2.512-.519 4.9-.612 7.402-.23 2.283-.389 4.509-.587 6.754 0 .01-.007.019-.01.031-.118.584-.171 1.18-.314 1.758-.139 1.214-.658 2.627-2.009 2.875-1.078.19-2.165.494-3.253.227-.689-.093-1.416-.435-1.991-.857-1.435-2.578-2.876-5.155-4.367-7.701-.593-1.149-1.18-2.295-1.851-3.4-.522-.938-1.022-1.956-1.721-2.727-.333-.223-.814-.034-.926.345-.078.255.003.519 0 .78.003 1.564-.224 3.123-.193 4.691.025 1 .156 2.016.019 3.012a17.76 17.76 0 0 0-.099 3.267c.062 1.348-.031 2.701.059 4.05.006 1.018.046 2.036.149 3.048a.671.671 0 0 0 .018.174c-1.761.572-3.559 1.016-5.435.941-.286-.112-.625-.18-.861.1-.491.62.245 1.226.895 1.142 3.817.096 7.368-1.518 10.785-3.021 2.547-1.003 5.231-1.646 7.908-2.183 4.914-.85 9.89-1.031 14.867-1.059 4.28.134 8.533.603 12.804.876 2.034.13 4.147.22 6.163.257.034 0 .068.007.105.01-.289.615-.568 1.201-.922 1.782-1.973 3.559-4.414 6.804-6.812 10.073-5.321 6.919-11.81 12.908-18.467 18.498-3.19 2.667-6.424 5.285-9.791 7.729-4.091 2.943-8.306 5.465-12.593 8.064-7.61 4.372-15.326 8.7-23.685 11.482-2.821.938-5.607 1.919-8.471 2.609a.605.605 0 0 0-.196-.056c-.105-.025-.248-.134-.323-.171-1.363-.742-2.27-2.236-2.73-3.683-.28-1.667-.295-3.552.454-5.098 1.021-1.807 2.988-2.81 4.914-3.379l.003.01Zm48.777-73.475c.339 0 .634-.236.653-.587.018-.326-.249-.652-.587-.652-.339 0-.634.236-.653.587-.018.326.249.652.587.652Zm-3.097 14.346c.482-.037.64-.525.55-.94.221-2.705.746-5.35 1.246-8.012.143-.963.307-1.919.5-2.872a.63.63 0 0 0-.5-.724.629.629 0 0 0-.724.5c-.102.556-.221 1.102-.311 1.658-.407 2.54-.959 5.052-1.264 7.608-.046.733-.68 2.776.5 2.782h.003Zm10.183 14.073a.631.631 0 0 0 .636-.606c.007-.332-.267-.636-.605-.636a.631.631 0 0 0-.637.605c-.006.332.267.637.606.637Zm-16.184 33.327c2.628-2.223 5.507-4.108 8.278-6.145 2.212-1.642 4.234-3.558 6.213-5.459.702-.052.77-1.096.068-1.232-.652-.109-1.099.503-1.519.903-1.677 1.618-3.401 3.189-5.256 4.605-2.873 2.127-5.877 4.077-8.604 6.391-.603.531.19 1.468.82.934v.003Zm-2.302-29.738c.628-.32 1.324-.416 1.991-.614 1.752-.566 3.424-1.15 5.185-1.65 2.665-.881 5.461-1.331 8.247-1.235.339.018.627-.276.637-.609-.075-1.009-1.47-.559-2.144-.611a17.81 17.81 0 0 0-3.491.341c-2.32.435-4.607 1.214-6.809 1.935-1.32.45-2.886.798-4.097 1.291a.627.627 0 0 0-.721.435c-.186.696.677 1 1.205.714l-.003.003Zm-1.773 32.263c.338 0 .636-.233.655-.584.019-.323-.245-.655-.584-.655-.338 0-.637.233-.655.584-.019.323.245.655.584.655Zm-18.61-10.862c.339 0 .634-.242.649-.593.016-.326-.254-.649-.593-.649-.339 0-.634.242-.649.593-.016.326.255.649.593.649Zm-.87-13.02c.087 3.099.016 6.058.1 9.254-.013.813 1.193.872 1.242.055-.059-3.238-.037-6.437-.093-9.657a.628.628 0 0 0-.401-.782c-.705-.196-.919.577-.848 1.13Zm-1.161-59.7a.63.63 0 0 0 .624-.618.627.627 0 0 0-.618-.624.63.63 0 0 0-.625.618c0 .339.28.624.619.624Zm-1.352-4.381a22.757 22.757 0 0 0-1.929-1.994c-1.547-1.385-3.46-2.325-5.454-2.803-1.485-.311-3.007-.308-4.486-.441-.782.046-3.733-.243-3.311 1.086.32.708.979.19 1.531.212 1.296-.153 2.551.018 3.821.083 1.665.075 3.296.426 4.753 1.242.786.31 2.205 1.32 2.976 2.18.304.304.615.606.885.916.239.36.677.711 1.093.388.261-.195.342-.608.124-.87h-.003Z"/><path fill="#CE6AE2" d="M276.681 89.146c-1.488.155-3.181-.345-4.156-1.506-.14-.186-.196-.435-.392-.571-.021-.016-.046-.028-.071-.04.034-.41.068-.817.105-1.227.004-.031.01-.06.013-.09.009-.056.012-.112.009-.162.143-1.543.305-3.08.41-4.623.274-2.926.407-5.813.743-8.729.953 1.94 1.509 4.03 2.301 6.036.749 1.783 1.389 3.606 2.175 5.372.413 1.028.841 2.05 1.283 3.068a.75.75 0 0 0-.122.267c-.531.904-1.304 1.808-2.298 2.202v.003Z"/><path fill="#F2B2FF" d="m74.923 55.402.018-.025c.358-.878.476-1.903.799-2.77 1.255-3.089 3.386-5.558 6.771-6.2.435-.069.873-.087 1.311-.14.072.012.143.01.215-.006h24.384c.043.015.09.028.142.037.314.028.625 0 .935-.037h.588a.581.581 0 0 0 .22-.044c3.184.065 5.79-.28 7.617-3.3.528-.907.748-1.982.748-3.022.038-.571.264-1.13.196-1.705-.003-.17-.003-.341-.031-.5V9.983c.034-.133.068-.27.13-.404.084-.81.205-1.12.348-1.866a9.285 9.285 0 0 1 2.038-3.443c.798-.913 1.659-1.826 2.727-2.42a4.86 4.86 0 0 1 1.317-.462.88.88 0 0 0 .236-.065h75.706c.979.01 1.954.065 2.929.087 2.38.257 4.89.633 6.968 1.89 1.186.87 2.354 1.833 3.218 3.034.919 1.497 1.609 3.242 1.599 5.015.05.662 0 1.323.022 1.985a.94.94 0 0 0 .034.605v17.314a.628.628 0 0 0-.015.255c-.053 1.801-.553 3.568-1.494 5.096-.854 1.419-1.836 2.825-3.19 3.797-.73.522-1.56.863-2.37 1.227h-53.587c-.649-.112-1.394-.069-2.009-.031-4.396.037-8.244 1.739-10.139 5.89-.649 1.338-1.24 2.813-1.153 4.31-.105.283-.062.67-.065.981v10.12a.675.675 0 0 0-.233-.047h-10.434c-.357-.201-.845-.065-1.22.032-1.448.503-2.29 2.005-2.703 3.387-.028.246-.034.494-.046.742a.687.687 0 0 0-.059.267V78.34c.003.367-.066.891.133 1.196 0 .3.028.599.087.835.093.422.205.714.252 1.124.627 2.068 3.069 2.186 4.88 2.071a83.87 83.87 0 0 0 1.525-.04h5.001c.456.009.91.009 1.367 0h.624a.55.55 0 0 0 .189-.034c.212-.013.423-.028.634-.047v4.723h-9.406a3.5 3.5 0 0 1-.354-.062c-.183-.037-.512.043-.668.03-2.907.057-4.1.662-4.23 3.103-.069.27-.038.605-.038.876v1.816c-.046.624-.105 1.245-.102 1.885.022.823.062 1.643.078 2.465l.024.836v4.378c.019.385-.08.953.118 1.286.035.288.084.577.159.86.335 1.493 1.805 2.518 3.271 2.642.605.003 1.239.087 1.836.09a.657.657 0 0 0 .192-.065h9.117v5.713h-8.878a3.09 3.09 0 0 0-.441 0h-.199a.629.629 0 0 0-.192.035c-.196.018-.392.037-.587.034-1.103-.044-2.171.428-3.116.922-.665.335-1.267.932-1.258 1.723 0 .149 0 .326.016.5a.835.835 0 0 0-.038.472v10.825c-.003.065-.003.127-.012.192-.193 1.537.245 2.438 1.37 3.472.618.596 1.478.829 2.32.733 1.047.065 2.094.14 3.138.065a16.79 16.79 0 0 0 1.581-.081h2.537c1.187.109 2.426.121 3.601.01.021-.004.046-.007.071-.01h.584c.05 0 .099-.009.146-.018h.23c.143.068.279.139.401.245.279.279.509.578.723.81.646.808 1.178 1.87.839 2.894a3.43 3.43 0 0 1-.994.888h-9.726c-.18-.055-.394-.058-.612-.052-.472 0-1.009-.05-1.469.015-1.308.1-2.668.106-3.73.95-.768.516-1.085 1.457-1.044 2.348.037.416-.025.801.043 1.189v11.095c0 .118.031.214.078.298.186 1.211.997 2.267 2.019 2.925.587.376 1.274.525 1.941.618.432.071.758.158 1.165.18a.734.734 0 0 0 .23.047H149.6c.184.034.389.025.566 0 1.037 0 2-.593 2.708-1.314.317-.425.469-.953.497-1.472a.804.804 0 0 0 .031-.183v-9.309a7.985 7.985 0 0 1 1.122-3.087c.509-.664 1.242-1.133 1.985-1.503.416-.161.82-.332 1.242-.465a.875.875 0 0 0 .494-.087c.593.037 1.187.099 1.78.056.46-.038.913.009 1.367-.013a.648.648 0 0 0 .304-.099h53.679a.78.78 0 0 0 .233.239c.215.314.379.559.497.888v22.41a.666.666 0 0 0 .034.283c-.012.779.032 1.543-.046 2.319-.246 2.015-.239 4.124-1.283 5.922-1.622 2.667-4.141 5.039-7.101 6.083-.885.307-1.808.506-2.73.624a.58.58 0 0 0-.373.108H88.174a.53.53 0 0 0-.1-.021c-.962-.05-1.994.146-2.916-.131-1.404-.338-2.824-.748-4.038-1.527-1.858-1.447-3.448-3.059-4.554-5.118-1.062-1.897-1.264-4.126-1.51-6.238-.09-1.18-.202-2.36-.21-3.543a.585.585 0 0 0 .077-.292V55.402Zm117.488 87.333a.627.627 0 0 0 .621-.621.627.627 0 0 0-.621-.621.627.627 0 0 0-.622.621c0 .338.283.621.622.621Zm-13.559-.05c.547.289 1.211.143 1.805.168 2.979.022 5.961.146 8.943.093a.627.627 0 0 0 .621-.621.625.625 0 0 0-.621-.621c-1.013.006-2.026 0-3.035 0-2.33.025-4.653-.134-6.983-.093-.829-.339-1.441.518-.73 1.074Zm-34.458 17.653c.426-.72-.857-1.5-1.28-.761-.425.724.858 1.5 1.28.761Zm-5.268.14c.764-.01 1.528.015 2.292.046.339.01.622-.288.622-.621a.63.63 0 0 0-.622-.621c-.742-.018-1.484-.052-2.23-.043-.637-.016-1.289.04-1.92-.087-.332-.065-.655.211-.698.531-.056 1.121 1.838.702 2.559.798l-.003-.003Zm-7.859 16.376c.339 0 .603-.332.584-.655-.019-.351-.317-.584-.655-.584-.339 0-.603.333-.584.656.018.351.317.583.655.583Zm-41.425-85.5c-.444.792.755 1.394 1.115.546.448-.791-.776-1.394-1.115-.546Zm.214-2.466c-.155.795 1.016 1.053 1.215.258l-.006.022c.127-.373.307-.758.6-1.031.176-.124.378-.214.55-.354.465-.354.912-.745 1.45-.984.633-.33 1.444-.047 2.028-.463.261-.218.276-.627.06-.876a.624.624 0 0 0-.756-.136c-.609.043-1.227.083-1.792.326-.63.26-1.153.695-1.625 1.058-.854.47-1.478 1.227-1.724 2.183v-.003Zm1.82 13.039c-.027 3.537 2.01 6.757 5.871 6.44.168-.012.336-.022.5-.05h17.442c.14.028.286.034.429.013 1.677-.177 3.463-.655 4.588-2.003.258-.308.515-.624.649-1.009.103-.581.196-1.174.084-1.761a.748.748 0 0 0 .012-.115V91.124l-.006-.031c0-.016.003-.028.003-.044-.031-2.123-2.093-2.682-3.848-2.8-.855-.134-1.709-.14-2.566-.093-.211 0-.441-.02-.652.015H95.564a.64.64 0 0 0-.193.034c-1 0-2.637.935-2.966 1.407-.603.813-.556 1.906-.553 2.872a.617.617 0 0 0 .059.466v8.753a.527.527 0 0 0-.034.221v.003Zm.128 25.645c.121.783.488 1.506.975 2.124 1.106 1.422 2.588 2.609 4.374 3.003a3.1 3.1 0 0 0 .587.09.621.621 0 0 0 .376.134h17.939c.521.077 1.059.065 1.587.046 1.802-.171 3.398-1.692 3.538-3.512-.013-.155-.034-.313.009-.469a.581.581 0 0 0 .006-.186.784.784 0 0 0 .053-.239v-11.058c.211-.332.01-.866-.189-1.195-.326-.863-1.134-1.441-1.988-1.717-1.264-.348-2.6-.485-3.908-.478a.646.646 0 0 0-.314-.084h-17.29c-.266-.05-.596 0-.875 0-1.407-.013-3.075.006-4.106 1.108-.494.472-.796 1.096-.954 1.755-.044.512-.118 1.105.087 1.59v7.617c-.09.472.022 1.111.093 1.471Zm16.053-66.832c-1.457-.463-2.96-.26-4.46-.286a.629.629 0 0 0-.668.572c0 .931 1.158.646 1.77.661.702 0 1.407-.087 2.103.05.628.13 1.243.289 1.889.295.46.087 1.062.059 1.115-.531.009-.91-1.146-.652-1.749-.758v-.003Zm13.338 5.434c-.049-.578-.161-1.217-.472-1.699-.441-.757-1.106-1.602-2.056-1.568a.62.62 0 0 0-.249-.052H98.816c-.373.05-.935-.066-1.364.003-1.848.03-4.02.534-5.035 2.183-.357.71-.627 1.506-.51 2.31v.043a.941.941 0 0 0 0 .323v8.456c-.077.316-.015.704 0 1.037v.627s.004.022.004.034c.019.593.115 1.19.301 1.752.556 1.707 1.957 3.226 3.743 3.61.767.172 1.588.215 2.373.246a.715.715 0 0 0 .258.056h17.849a.951.951 0 0 0 .152.047c.177.028.354.05.531.012.376-.093.752-.037 1.125-.102.636-.218 1.267-.457 1.839-.817 1.919-1.35 1.313-4.071 1.459-6.099.016-2.375-.04-4.657.032-7.014a22.33 22.33 0 0 0-.181-3.382l.003-.006Zm.19 20.18c-.158-.065-.326-.108-.491-.161-.283-.304-.839-.24-1.016.146-.316.782.538 1.025 1.109 1.195 2.358 1.165 1.743 4.559 1.774 6.739-.05.807 1.149.913 1.239.096.053-2.782.494-6.704-2.615-8.011v-.004Zm2.087 9.356c-.338 0-.605.33-.587.656.019.353.317.586.656.586.338 0 .605-.329.587-.655-.019-.354-.317-.587-.656-.587Zm57.003-85.792c-.099-.627-.779-.537-1.248-.46-.479.04-.957.034-1.436.047-1.674.018-3.342-.003-5.013.059-.258-.093-.55-.031-.721.208-.397.618.236 1.102.848 1.034 1.737-.09 3.473-.019 5.21-.065a14.09 14.09 0 0 0 1.845-.112c.338-.034.568-.391.518-.711h-.003Zm2.318-.534c-.339 0-.612.307-.606.636a.629.629 0 0 0 .637.606c.338 0 .612-.308.605-.637a.629.629 0 0 0-.636-.605Zm-46.305 31.703a.627.627 0 0 0 .621-.62.627.627 0 0 0-.621-.622.627.627 0 0 0-.622.621c0 .339.283.621.622.621Zm-1.389-3.676c.475-.016.947.05 1.42-.025.285-.05.68-.006 1.015-.047h62.098c.357.171.761.072 1.143-.006.04-.003.077-.012.115-.021l.052-.01c1.19-.13 2.442-.09 3.479-.78 2.225-1.334 3.181-3.685 3.004-6.188a.917.917 0 0 0 .044-.198V17.233a.653.653 0 0 0-.112-.36 1.913 1.913 0 0 0-.277-.827c-.608-1.338-1.898-2.282-3.193-2.906-1.227-.562-2.553-.85-3.892-.928-.012 0-.025-.007-.04-.01h-.156a11.938 11.938 0 0 0-1-.01.674.674 0 0 1-.112.01h-.174c-.372-.012-.817-.1-1.137 0h-59.074a.728.728 0 0 0-.218.01c-1.152-.063-2.289-.2-3.448-.128-1.761.19-3.55 1.103-4.451 2.668a5.287 5.287 0 0 0-.795 2.987.59.59 0 0 0 .133.636V28.9a.588.588 0 0 0 0 .26v.497c-.028.193-.056.389-.021.581.083.255.074.512.083.78.128 1.139.112 2.313.454 3.418.683 2.059 2.979 3.183 5.06 2.972v.003Zm-5.43 1.758c.979.726 2.162 1.096 3.324 1.41a.627.627 0 0 0 .764-.435c.171-.671-.581-.83-1.068-.948-5.536-1.338-4.709-7.359-4.796-11.793.055-.45.298-.981-.258-1.226-.302-.128-.696.015-.814.332-.205.546-.186 1.133-.177 1.708.012 1.25 0 2.502.084 3.754-.003 2.683.73 5.49 2.941 7.198Zm-14.904 137.844c.774-.031 1.634-.078 2.367-.072 2.526.013 5.042.249 7.564.056.82-.028 1.594.019 2.404.016.808-.056.752-1.258-.071-1.239-1.749-.078-3.488.053-5.237.081-1.208-.059-2.417-.134-3.628-.137-1.24-.059-2.476.037-3.715.053-.398-.106-.827.211-.799.636.038.572.65.643 1.109.606h.006Zm2.414-16.846a.627.627 0 0 0-.621-.621.627.627 0 0 0-.621.621c0 .339.282.621.621.621a.627.627 0 0 0 .621-.621Zm-25.133-5.468c1.106 2.329 4.02 2.621 6.31 2.521.077-.012.164-.021.254-.031.1.094.239.156.416.162h14.587c.062-.009.131-.009.199-.013a.53.53 0 0 0 .307.059c.799-.055 1.6.047 2.395-.021 1.535-.146 3.448.084 4.355-1.46.118-.136.205-.313.246-.497a.645.645 0 0 0 .133-.385v-13.153a.946.946 0 0 0-.015-.475c.04-.776-.295-1.469-.73-2.081a5.871 5.871 0 0 0-2.939-1.496c-.689-.097-1.379-.205-2.078-.18-.301-.013-.668-.069-.941.09H96.899a.604.604 0 0 0-.506-.143c-2.115.112-3.47.258-4.193 2.481-.29.636-.33 1.344-.23 2.031v.105a.741.741 0 0 0-.062.404v8.3c-.106.189-.087.41-.066.624-.183 1.04-.167 2.233.398 3.155l.006.003Zm-2.093-34.75a.627.627 0 0 0 .621-.621.627.627 0 0 0-.621-.621.627.627 0 0 0-.622.621c0 .339.283.621.622.621Zm-.019-2.878a.627.627 0 0 0 .621-.621c-.028-1.851.63-2.77 2.349-3.413.804-.273 1.643-.397 2.478-.528.37-.037.802-.226.855-.639a.629.629 0 0 0-.531-.699c-2.029.369-4.455.649-5.74 2.496-.513.826-.625 1.829-.65 2.783a.627.627 0 0 0 .621.621h-.003ZM77.377 79.033c-.339 0-.606.329-.587.655.018.35.316.587.655.587s.606-.33.587-.656c-.019-.35-.317-.587-.655-.587Zm.463 80.122a.627.627 0 0 0 .62-.621.627.627 0 0 0-.62-.621.627.627 0 0 0-.622.621c0 .338.283.621.621.621Zm-1.06-8.62c.06 1.171-.015 2.344.096 3.512 0 .469.174 1.043.752.969.764-.127.47-.991.448-1.519-.01-2.26-.15-4.515-.162-6.775.003-2.093-.118-4.189-.05-6.282.084-.807-1.109-.978-1.23-.167-.056 3.415.019 6.846.146 10.262Zm-.255-75.114c-.018.51.016 1.022.035 1.531-.028.51-.007 1.127.658 1.124.73-.059.584-.894.572-1.413-.04-1.298.021-2.63-.062-3.918a27.957 27.957 0 0 0-.066-2.749.63.63 0 0 0-.655-.586.63.63 0 0 0-.587.655c.084 1.77.13 3.605.105 5.353v.003Z"/><path fill="#CE6AE2" d="M141.764 96.502c.012 2.64-.14 5.335-.935 7.863a6.457 6.457 0 0 1-1.116 2.061c-.124.221-.326.42-.437.646h-7.493c-.037 0-.071.007-.105.013-.305-.016-.603-.031-.932-.065-.876-.233-1.699-.786-1.88-1.718-.369-1.794-.09-3.654-.211-5.474-.003-.199-.009-.4-.015-.6v-5.517c.012-.152.021-.308.04-.46.127-1.276-.531-3.605 1.357-3.726a42.6 42.6 0 0 1 1.65-.149c.062.022.13.037.202.037h.699c.186.025.376.034.556.019.059 0 .108-.01.161-.019h5.797a.906.906 0 0 0 .369.137.475.475 0 0 1-.174-.028c2.193 1.525 2.448 4.524 2.476 6.98h-.009ZM140.686 80.116c-.382.77-.845 1.441-1.243 2.17h-.581c-1.55-.127-3.1-.036-4.65 0h-3.308a.55.55 0 0 0-.146.02c-.839-.112-1.541-.454-1.736-1.385-.106-.398-.187-.677-.246-1.056-.046-.385.016-1-.146-1.41V67.55a.807.807 0 0 0 .034-.165v.019l.007-.05c0 .013-.003.022-.003.031-.028-1.17.54-2.357 1.46-3.086.155-.112.316-.187.487-.23a.661.661 0 0 0 .18.028h8.375a.628.628 0 0 0 .202.164c2.559 3.686 2.41 9.09 1.863 13.368-.13.838-.307 1.677-.549 2.49v-.003Zm-9.245-9.952c-.068-.813-1.27-.745-1.239.069.099 1.096.04 2.307.087 3.384-.047.379.149.786.568.814.324.025.659-.233.668-.572-.031-1.3.022-2.44-.084-3.695Zm-.422 4.854c-.339 0-.606.329-.587.655.019.35.317.587.655.587.339 0 .606-.33.587-.656-.018-.35-.316-.586-.655-.586Z"/><path fill="#F2B2FF" d="M141.058 106.674c.019-.031.041-.058.059-.089-.006.028-.009.058-.015.086h-.044v.003Z"/><path fill="#CE6AE2" d="M129.422 116.037c.665-.364 1.348-.621 2.103-.705.5.043 1.003-.056 1.5-.062h.159c.13.037.251.031.354 0h6.172a.584.584 0 0 0 .168.149c.183.071.301.239.438.376 1.14 1.394 1.404 3.248 1.559 4.958.137 2.488.283 5.012-.062 7.49-.283 1.338-.957 2.593-2.05 3.441h-1.491c-.308-.019-.618-.041-.926-.056-.606-.037-1.205.006-1.808.056h-3.236a.646.646 0 0 0-.28.065l-1.025-.05c-.391.031-.805.031-1.14-.205-.569-.447-1.23-1.059-1.267-1.819.012-.227.018-.454.024-.68a.567.567 0 0 0 .019-.153v-.649a.583.583 0 0 0 0-.428v-.36a1.095 1.095 0 0 0 0-.286v-9.409a.635.635 0 0 0 .065-.239c-.102-.844-.08-1.059.724-1.428v-.006ZM255.729 78.281a685.239 685.239 0 0 0 4.339 7.806c.575.941 1.097 1.922 1.625 2.897-.109.32-.131.727-.23 1.004-.149.4-.345.81-.627 1.08-1.041.708-2.256 1.391-3.551 1.28-.584-.119-1.065-.352-1.559-.665l-.168-.14c-.022-1.276-.019-2.555-.047-3.797-.074-1.14-.015-2.258.112-3.382.103-.845.034-1.692-.022-2.54-.031-1.183.05-2.363.134-3.543h-.006Z"/><path fill="#fff" d="M221.476 79.402c3.038 1.37 5.886 3.136 8.766 4.798a20.724 20.724 0 0 1 3.14 2.273c.504.37 1.016.723 1.538 1.068-.152.12-.292.267-.416.391-1.28 1.124-2.681 2.13-4.045 3.142-2.646 1.86-5.395 3.571-8.296 5.006-3.001 1.404-6.163 2.503-9.263 3.618-6.216 2.294-12.835 3.111-19.43 3.303 10.055-2.391 16.01-13.693 10.359-23.186-2.034-3.431-5.144-5.77-8.632-6.99 5.405.364 10.841.83 16.022 2.503 3.557 1.003 6.89 2.584 10.26 4.074h-.003Z"/><path fill="#F2B2FF" d="M175.681 21.47c.307-.287.717-.386 1.115-.482-.053.72-.1 1.444-.127 2.173-.96-.223-1.852-.54-.976-1.692h-.012ZM163.392 22.481c-.049 1.767.171 3.522.168 5.285a8.324 8.324 0 0 1-1.18.035 4.19 4.19 0 0 1-.476-.063c-.015-.003-.034-.009-.052-.012-.087-2.056.127-4.065.127-6.095.857.021 1.392-.277 1.413.85Z"/><path fill="#CE6AE2" d="M130.966 30.216v-.484c.04-.295.09-.605 0-.866v-11.94a.645.645 0 0 0-.05-.242c.544-2.447 3.057-3.642 5.43-3.347.854.006 1.681.152 2.526.149.198.018.403.015.577-.034h60.464a.782.782 0 0 0 .282.003c.351.015.702.05 1.05.115 1.998.357 4.225 1.313 5.054 3.288-.012.202.031.404.124.565V29.87a.695.695 0 0 0-.056.233c.019.375.016.748.022 1.127.006 1.863-1.121 3.66-2.811 4.44-.873.398-1.851.26-2.774.435h-62.97l-.043-.003c-.025 0-.05 0-.075.003h-.444a.603.603 0 0 0-.187.03c-.627.035-1.233.07-1.848.041-.832.04-1.736-.006-2.429-.521-2.031-1.044-1.537-3.503-1.848-5.397 0-.013.003-.022.003-.038l.003-.003ZM202.289 17.3c.761.773.792 1.931.975 2.94.112.702-.164 2.289.979 2.069a.634.634 0 0 0 .376-.823c-.103-.92-.153-1.845-.345-2.758-.168-1.018-.656-2.018-1.491-2.651-.503-.327-1.209-1.171-1.793-.578-.624.903.88 1.223 1.302 1.798l-.003.003Zm-3.103 15.43c.953-.47 1.624-1.544 1.261-2.606-.245-.813-.972-1.962-1.96-1.698-1.473-.789-3.653.23-3.659 1.984.056 2.074 2.597 3.462 4.358 2.32Zm-14.699-.528c-.221 1.074.705 1.021 1.466 1.17.749.177 1.528.218 2.271.4.273.106.459.262.745.227.544-.07.6-.652.566-1.092.043-.994-.041-1.988-.078-2.982 0-1.922-.025-3.844-.137-5.763-.049-1.791-.14-3.583-.127-5.375-.006-.605-.056-1.173-.084-1.695.016-.572-.773-.845-1.109-.382-.525-.05-.966-.391-1.497-.429-.711.05-1.997-.093-2.1.867a130.261 130.261 0 0 0-.09 6.027c-.056 2.978.264 6.09.171 9.03l.003-.003Zm-11.944 1.077c2.023-.078 1.731-.19 2.299-1.99.457-1.292 1.143-2.472 1.842-3.637.034 1.258.214 2.506.208 3.767.072.655-.273 1.708.55 1.972.96.18 1.944.164 2.917.227.447.006 1 .21 1.36-.146.367-.444.165-1.09.208-1.624.007-1.081-.052-2.159-.096-3.24-.071-3.825-.609-7.66-.413-11.488-.028-.587-.755-.866-1.267-.87-.876-.077-1.777-.226-2.65-.149-3.861.007-7.505 2.683-6.927 6.838a5.418 5.418 0 0 0 2.162 2.85c-.171.261-.317.556-.469.727-.401.606-.814 1.158-1.152 1.801-.414.804-.758 1.786-1.255 2.515-.264.388-.528.777-.783 1.168-.96 1.732 2.578 1.198 3.463 1.28h.003Zm-12.633.137c2.026-.233 6.585.63 7.676-1.27.463-1.028.074-2.224.174-3.317.08-1.735-.038-3.465-.09-5.2-.327-3.006.307-7.528-4.007-7.413-.929.069-1.964-.27-2.833.121-2.224.062-2.877.51-3.066 2.789-.336 2.201-.146 4.437-.252 6.651a30.017 30.017 0 0 0-.22 3.847c-.171 2.13.021 3.841 2.618 3.792Zm-21.837-2.503c.006.559-.059 1.115-.031 1.67.016.215.183.407.373.488a.636.636 0 0 0 .484 0c1.05.273 3.035-.037 3.681.034.556-.046 1.159.078 1.681-.146.671-.58.817-1.577 1.255-2.329.444-.894 1.025-1.698 1.603-2.512.581-.903 1.164-1.816 1.91-2.596.037 2.273-.084 4.559-.065 6.822.183.752 1.022.426 1.568.566.578.17 1.171.239 1.768.31.488.09 1.006.339 1.5.162.432-.174.444-.656.395-1.053-.022-.981.009-1.956-.034-2.938-.094-3.803.055-7.613.006-11.417.4-1.314-1.709-.96-2.445-.888-.894.111-2.563-.27-2.634 1.04-1.075 1.233-2.025 2.456-2.994 3.75a25.082 25.082 0 0 0-2.529 2.867 9.358 9.358 0 0 0-.171.177c.056-2.556.289-5.093.311-7.636-.041-.26-.379-.509-.606-.5-.901-.065-1.805-.055-2.705-.111-.606-.019-1.516-.37-1.836.35-.162.867-.177 1.77-.323 2.643-.224 1.95-.243 3.779-.196 5.717-.056 1.841.022 3.682.025 5.524l.009.006ZM93.16 144.965v-1.857c.254-.41-.019-1.1.009-1.565-.031-.475.146-.907.317-1.339.149-.292.307-.587.494-.854.223-.158.494-.251.758-.326a9.75 9.75 0 0 1 1.298-.158c.096.071.22.118.373.121h19.563a.615.615 0 0 0 .292-.078c.755.041 1.482.131 2.196.413.463.271.979.476 1.345.864.131.279.301.521.373.816.006.193.009.416.04.628 0 .021-.006.043-.009.068v13.181c-.286.441-.382 1.186-2.072 1.155-.755.038-1.503.137-2.261.131l-.541-.009a.621.621 0 0 0-.214-.041H99.897a.627.627 0 0 0-.59-.236c-2.55.379-6.166.059-6.34-3.105a.612.612 0 0 0 .186-.444v-7.362l.007-.003Zm2.45 6.592a.627.627 0 0 0 .622-.621.627.627 0 0 0-.621-.621.627.627 0 0 0-.622.621c0 .338.283.621.621.621Zm-.674-3.419c.022.814 1.227.817 1.243 0-.022-1.742.006-3.484 0-5.226-.019-.814-1.224-.817-1.243 0 .01 1.742-.018 3.484 0 5.226ZM93.107 116.944c.143-.494.47-.929.888-1.208.808-.457 1.765-.485 2.669-.463.192-.009.438.006.677 0h16.876c.432.211 1.162.003 1.619.081.956.053 1.941.149 2.86.354.55.158 1.097.431 1.383.95.052.146.115.273.171.397a.712.712 0 0 0-.035.19v11.209a.762.762 0 0 0 .007.193c-.059.14-.091.301-.084.459.08 1.106-.749 2.075-1.74 2.478-.46.165-.916.174-1.379.156a.586.586 0 0 0-.258-.059H99.118c-.47-.227-1.311-.019-1.774-.267-1.867-.553-3.92-2.416-4.187-4.4v-9.819a.657.657 0 0 0-.053-.255l.003.004Zm25.22 10.302a.627.627 0 0 0 .621-.621.627.627 0 0 0-.621-.621.628.628 0 0 0-.622.621c0 .339.283.621.622.621Zm-1.982-9.346c.466.115.686.668.854 1.074.447 1.593.239 3.292.301 4.928.019.814 1.224.817 1.243 0-.13-2.217.581-6.514-2.23-7.235-.811-.084-.973 1.106-.168 1.23v.003ZM120.215 78.396c.022.345-.059.841.047 1.199v.018c-.062 1.068-.432 2.031-1.528 2.373-.271.083-.525.204-.793.294-.354-.043-.667.063-.987.072a.717.717 0 0 0-.283-.065H98.829a.706.706 0 0 0-.323-.04c-.87-.053-1.703-.06-2.52-.293-1.74-.555-2.758-2.356-2.823-4.114V67.165a.874.874 0 0 0-.025-.165v-.143c.112-1.456 1.106-2.093 2.392-2.487.736-.295 1.528-.23 2.305-.27h19.591c.112-.013.242-.01.382-.006a.6.6 0 0 0 .494.03c.217.035.435.038.655.029.196 0 .357.192.466.32.249.307.497.624.621 1 .146.723.227 1.446.268 2.176a.65.65 0 0 0-.087.317v10.436l-.01-.006ZM160.829 138.63a.586.586 0 0 0-.357.115 59.328 59.328 0 0 1-3.32-.103c-.575.031-1.125 0-1.693 0a9.623 9.623 0 0 1-1.957-.009c-1.072-.106-2.14-.224-3.138-.565-.037-.013-.071-.025-.108-.034a6.042 6.042 0 0 1-.988-.457c-3.544-2.419-5.501-6.449-5.803-10.657-.142-1.059-.152-2.13-.174-3.192a.595.595 0 0 0 .044-.223v-22.966c.196.133.401.258.587.388.801.519 1.603 1.04 2.432 1.515 2.401 1.351 4.883 2.543 7.253 3.953 4.433 2.276 9.232 3.745 14 5.139 3.498 1.103 7.129 1.655 10.763 2.078 3.849.45 7.72.645 11.593.534 7.573-.342 15.134-1.286 22.483-3.174 5.011-1.332 9.825-3.254 14.634-5.17 1.711-.832 3.522-1.481 5.259-2.267a30.765 30.765 0 0 1 3.044-1.527v22.947c0 .052.006.099.018.146-.052 1.804-.385 3.611-1.155 5.238-1.917 3.447-5.209 6.018-8.691 7.747-.494.264-.994.41-1.507.488-.267-.059-.6-.022-.935.059h-62.277l-.007-.003Zm18.324-22.901c-.916-.071-1.836-.152-2.739-.323-1.526-.217-3.001-.692-4.514-.965-.084-.022-.177-.028-.255-.072a.63.63 0 0 0-.872.106c-.541.854.667 1.205 1.313 1.264.56.118 1.109.276 1.672.378 1.432.373 2.892.643 4.367.764.687-.031 2.246.556 2.317-.49-.009-.702-.792-.631-1.295-.662h.006Zm7.915 1.599c.544 0 1.087 0 1.628-.087a.627.627 0 0 0 .54-.692c-.105-.664-.752-.546-1.245-.478-1.162.015-2.324.09-3.486-.013-.403-.04-.814.016-1.214-.037a.624.624 0 0 0-.699.531c-.075.748.786.761 1.317.733 1.056.031 2.103.102 3.159.04v.003ZM128.633 141.58a.68.68 0 0 0-.025-.168c-.009-.422-.065-.854.093-1.245.317-.624 1.044-.931 1.7-1.056.81-.121 1.615-.174 2.429-.192.052-.006.108-.006.167-.006a.775.775 0 0 0 .283.068h13.748a.683.683 0 0 0 .401-.065c.752.021 1.507.034 2.224.226.084.035.168.069.255.097l.199.052c.149.059.295.128.438.208.574.404 1.258.814 1.494 1.506.115.314.071.792.133 1.184 0 .018-.006.034-.006.052v2.696c-.028.22-.04.425-.059.664 0 .103.025.193.059.267v8.421a1.338 1.338 0 0 0-.04.401c-.103.767-.929 1.133-1.575 1.376-.149.037-.305.04-.46.037H133.1a.855.855 0 0 0-.28-.041c-.338.019-.758-.096-1.078-.146-1.214-.096-2.351-.732-2.845-1.866-.177-.375-.239-.788-.267-1.201a.541.541 0 0 0 0-.413v-10.064c.016-.1.012-.202 0-.308v-.493l.003.009ZM93.123 91.425c.043-.45.062-.95.46-1.217.245-.19.496-.35.804-.42.295-.139.58-.31.916-.334a.88.88 0 0 0 .382-.04h19.678a.68.68 0 0 0 .196-.035c.255-.012.51-.028.764-.016.677.063 1.206.112 1.83.209.621.099 1.348.173 1.78.683.192.205.223.515.282.788a.901.901 0 0 0 0 .348v11.669c-.015.143-.012.292.016.435-.028.193 0 .416.034.64-.056.276-.05.562-.096.835-.093.202-.252.37-.392.54-.773.929-1.984 1.317-3.146 1.488-.162.028-.323.062-.488.08-.015 0-.028-.003-.043-.003h-.236a.625.625 0 0 0-.473 0H98.658a.573.573 0 0 0-.553 0h-.593a.598.598 0 0 0-.286.075c-2.342-.028-3.901-1.922-4.032-4.344-.025-.165-.028-.367-.037-.569 0-.015.006-.031.006-.046V91.615a1.042 1.042 0 0 0-.037-.187l-.003-.003Z"/><path fill="#F2B2FF" d="M5.454 142.785c.761-1.485 1.61-2.885 2.355-4.351 1.056-1.648 2.171-3.26 3.184-4.937 2.858-4.673 6.023-9.188 9.778-13.187 4.259-4.931 9.04-9.409 14.047-13.57 2.295-1.748 4.476-3.58 6.837-5.232 1.547-1.04 3.06-2.13 4.619-3.155 1.165-.882 2.621-1.431 3.566-2.574.239-.304.447-.68.44-1.068 0 0 .007 0 .007-.007 3.14-3.297 2.814-8.71 1.152-12.666-1.18-3.018-3.755-5.322-6.414-7.048-1.659-1.022-3.408-1.897-5.178-2.702-1.46-.543-2.886-1.208-4.2-2.04-2.696-1.655-4.91-4.052-6.411-6.828-.845-1.751-1.314-3.649-1.979-5.465-1.544-4.357-5.02-8.099-9.586-9.247-1.941-.56-3.985-.575-5.945-1.034a1.175 1.175 0 0 0-.18-.044c-.24-.059-.479-.127-.718-.202a10.59 10.59 0 0 1-1.755-.76c-.112-.218-.366-.37-.565-.54a6.18 6.18 0 0 1-.78-.752c-.264-.33-.494-.643-.752-.972a1.587 1.587 0 0 0-.192-.286 71.63 71.63 0 0 1-1.68-4.766c-.889-2.801-1.827-5.66-2.271-8.558 1.425 1.168 3.159 1.754 4.967 2.233 3.435 1.142 7.085 1.18 10.666 1.313 5.092.255 10.155.928 15.159 1.872.77.233 1.54.466 2.314.705a.601.601 0 0 0 .143.215c.578.559 1.168 1.102 1.715 1.692 1.531 1.85 2.718 4 3.647 6.21.748 1.83 1.304 3.742 2.248 5.484 1.032 1.857 2.25 3.81 3.613 5.394 2.68 2.915 5.507 5.785 9.07 7.607 1.569.904 3.305 1.42 5.032 1.916 1.42.497 2.998.826 4.461 1.028 1.671.376 3.258.447 4.945.568.621.016 1.243.047 1.864.087a.657.657 0 0 0 .447-.124c.13.199.261.397.404.59.04.056.09.102.143.14v24.335c-.472-.062-.938.01-1.407.087.003-.246-.028-.506-.025-.711-.016-.907-.047-1.814-.053-2.724.121-1.53.068-3.067.034-4.592-.12-.658-1.1-.655-1.217-.006-.1.838.071 1.695.04 2.543-.075 1.347-.13 2.695-.056 4.043.075.41-.046 1.083.037 1.583-2.77.236-5.358 1.47-7.55 3.133-4.371 3.186-6.307 8.639-6.422 13.893-.338 2.857-.034 5.776-.667 8.598-.768 3.67-2.442 6.918-5.076 9.58-4.119 4.313-9.518 7.452-10.319 13.892-.248 1.649-.463 3.369.05 4.99.05.149.105.329.177.512a49.818 49.818 0 0 1-4.629.41c-3.836.41-7.697.367-11.533.783-2.945.099-5.809.792-8.7 1.164-2.995.674-6.139.91-8.913 2.317-1.78.816-3.768 1.273-5.302 2.549-.304.233-.593.478-.882.727.028-.848.13-1.711.314-2.516.969-3.291 2.093-6.579 3.876-9.523l.006-.006Zm7.101-98.375c-.972-.245-2.034-.67-2.656-1.481a10.628 10.628 0 0 1-1.817-3.19c-.068-.428-.217-.9-.751-.847-1.802.273 1.51 5.027 2.289 5.515.99.826 2.283 1.105 3.494 1.456.32.09.674-.096.77-.425.193-.801-.798-.842-1.329-1.025v-.003Zm21.946 21.715c-.367-.237-.627-.578-.929-.882-1.059-1.066-1.929-2.242-2.587-3.574.186-.78-.957-1.093-1.2-.326-.381 1.099 2.197 4.098 3.023 4.893.463.47 1.302 1.58 1.93.761.188-.298.064-.702-.234-.873h-.003Zm2.153 1.322a.63.63 0 0 0-.634.609.627.627 0 0 0 .609.633.63.63 0 0 0 .634-.608.627.627 0 0 0-.61-.634Zm3.55 69.214c.308.112.69-.046.795-.369.507-1.674 1.612-3.077 2.992-4.115.683-.409 1.196-1.068 1.882-1.443.457-.267.326-1.044-.205-1.131-.46-.071-.81.261-1.121.547-.299.27-.603.525-.926.764-1.1.767-2.084 1.717-2.802 2.86-.33.611-1.637 2.493-.615 2.887Zm-17.261-15.162c2.062-2.345 4.27-4.605 6.728-6.537.758-.298.326-1.443-.438-1.164a1.95 1.95 0 0 0-.63.397c-2.368 2-4.589 4.155-6.61 6.503-.513.627.4 1.409.95.798v.003Zm-2.989 2.124c.118.32.488.481.799.363.44-.099.876-.413.692-.916a.624.624 0 0 0-.798-.363c-.435.09-.879.428-.693.916ZM42.382 146.7a.862.862 0 0 0-.23-.031.623.623 0 0 1 .23.028v.003Z"/><path fill="#CE6AE2" d="M225.511 42.565c2.553.187 5.088.858 6.952 2.708.767.745 1.286 1.612 1.78 2.546.705 1.127.957 2.295 1.149 3.568.025.143.025.314.025.49a.783.783 0 0 0-.037.206V74.62c-.295-.19-.649-.348-.845-.562-2.022-1.515-4.231-2.767-6.43-4.012-5.535-3.173-11.357-6.049-17.622-7.446-4.737-1.205-9.564-1.814-14.435-2.068-2.73-.124-5.461-.4-8.197-.314-2.734.112-5.467.258-8.191.506-8.341.777-16.728 2.283-24.369 5.832-1.671.82-3.345 1.64-4.992 2.509-1.565.72-3.171 1.382-4.628 2.31-.82.376-1.55.904-2.339 1.332V52.372a.718.718 0 0 0 .065-.202c.059-.345-.037-.687-.009-1.025.224-1.55.901-3.024 1.718-4.338.823-1.149 1.826-2.223 3.109-2.841 2.094-.978 4.448-1.22 6.722-1.133a.7.7 0 0 0 .224.043h.052c.274.18.528.143.709 0h57.751c.258.016.522.006.783 0h.46c.9.016 1.801.14 2.699.047 2.665.015 5.256-.299 7.899-.355l-.003-.003Zm-71.13 21.27c-.14-.297-.525-.453-.826-.297-.622.329-1.243.658-1.867.975-1.066.627-2.131 1.254-3.197 1.878-.857.404-1.665.888-2.432 1.438a.644.644 0 0 0-.435.621c.013.348.308.596.646.596.292 0 .541-.22.768-.382.674-.512 1.438-.866 2.18-1.26 1.299-.742 2.56-1.562 3.899-2.233.494-.335 1.581-.534 1.264-1.338v.003Zm1.777-1.651c-.339 0-.609.317-.597.646a.632.632 0 0 0 .646.596c.339 0 .609-.317.597-.646a.632.632 0 0 0-.646-.596Zm69.229 3.63a.625.625 0 0 0 .615-.627.625.625 0 0 0-.628-.615.625.625 0 0 0-.615.627c0 .341.289.615.628.615Zm-11.189-5.558c-1.134-.5-1.351 1.276-.093 1.235 1.739.283 3.367 1.034 4.982 1.714 1.088.494 2.187.957 3.274 1.447.305.14.687-.043.805-.347.127-.326-.04-.668-.348-.808-1.103-.496-2.218-.96-3.314-1.465-1.718-.718-3.451-1.516-5.309-1.776h.003ZM10.229 48.919c.326-.218.817-.069 1.23-.04 2.637.602 5.464.552 7.93 1.772 3.33 1.522 5.632 4.63 6.815 8.027.777 2.22 1.383 4.714 2.718 6.639 1.516 2.313 3.47 4.366 5.824 5.828 1.619 1.097 3.408 1.814 5.2 2.55 2.905 1.388 5.79 2.888 7.993 5.257 2.88 2.922 4.286 8.011 3.04 12.07-.142.136-.263.329-.403.49-.569.534-1.348.832-2.122.876-.344-.056-.705-.01-1.043-.075a.98.98 0 0 0-.482-.068c-1.177-.693-2.31-1.447-3.497-2.167-2.156-1.466-4.157-2.867-6.101-4.55-2.727-2.248-5.595-4.372-8.21-6.747-2.22-2.195-4.277-4.552-6.352-6.881-1.606-2.164-3.25-4.307-4.824-6.493A79.293 79.293 0 0 1 9.3 50.285v-.115c.14-.55.416-.978.923-1.248l.006-.003Zm29.05 35.756c.313.602 1.046.866 1.55 1.294.708.494 1.444.948 2.18 1.398a.627.627 0 0 0 .854-.205.626.626 0 0 0-.205-.854 48.636 48.636 0 0 1-2.308-1.488c-.313-.23-.636-.444-.947-.68-.143-.26-.49-.372-.764-.27a.627.627 0 0 0-.357.801l-.003.004ZM65.79 65.187c-1.239-.174-2.46-.426-3.646-.83-6.01-1.453-9.834-4.766-13.857-9.225-1.45-1.723-2.659-3.654-3.712-5.642-.86-1.77-1.416-3.667-2.187-5.471a29.985 29.985 0 0 0-1.783-3.4.676.676 0 0 0-.034-.205c-.01-.028-.019-.056-.031-.084.224-.891 1.252-1.078 2.04-1.109.05 0 .094-.006.14-.012.274.106.547.211.818.32 4.445 2.145 8.772 4.633 12.66 7.679 3.157 2.555 5.996 5.487 8.785 8.427 2.522 2.72 4.62 5.642 6.613 8.741.28.497.553.994.84 1.488-1.073-.06-2.144-.09-3.213-.199-1.165-.044-2.295-.255-3.432-.475v-.003Zm-11.638-7.828a.63.63 0 0 0-.634.608.627.627 0 0 0 .609.634.63.63 0 0 0 .633-.609.627.627 0 0 0-.608-.633Zm6.349 3.25c-.634-.18-1.28-.328-1.901-.543-.752-.341-1.578-.599-2.262-1.059-.636-.502-1.4.426-.785.963 1.376.922 3.013 1.416 4.606 1.835.32.093.674-.1.767-.425a.628.628 0 0 0-.425-.77ZM297.545 88.683c-.947.795-2.286 1.078-3.503 1.05-1.063-.096-2.072-.702-2.833-1.413-.364-.35-.603-.795-.811-1.248a.684.684 0 0 0-.18-.308c.046-1.037.022-2.077.056-3.117.972-6.565 1.739-13.222 3.448-19.64.935 3.223 1.478 6.53 2.245 9.79.501 3.248 1.038 6.378 1.734 9.577.261 1.263.506 2.533.755 3.8-.069.137-.125.289-.181.429-.174.397-.453.764-.73 1.08Z"/><path fill="#F2B2FF" d="M143.326 76.635c.112-.627.251-1.248.413-1.856.46-1.134 1.618-1.705 2.615-2.292a.624.624 0 0 0 .317-.286 23.662 23.662 0 0 1 1.572-.813c3.259-1.454 6.34-3.289 9.673-4.574 6.911-3 14.488-4.105 21.933-4.863 2.706-.242 5.421-.385 8.132-.497 2.535-.068 5.061.174 7.589.292 2.889.19 5.778.398 8.645.823 2.808.51 5.597 1.1 8.356 1.835 5.88 1.72 11.316 4.615 16.59 7.676.364.224.727.441 1.094.659.04.152.142.291.326.381 1.037.612 1.95 1.562 2.578 2.593.87 1.767 1.37 3.758 1.221 5.735-.165 1.081-.445 2.357-1.407 3.003a.587.587 0 0 0-.05.047c-.951-.705-1.938-1.292-2.939-1.894-2.789-1.572-5.52-3.27-8.47-4.537-2.545-1.087-5.02-2.348-7.661-3.195a57.674 57.674 0 0 0-11.045-2.64c-2.765-.307-5.542-.5-8.316-.695-5.563-.326-11.17-.392-16.708.301-7.39.953-14.696 2.9-21.455 6.055-3.029 1.543-6.089 3.015-9.024 4.71-.317.206-1.034.634-1.83 1.159h-.021a1.093 1.093 0 0 0-.569-.156c-.605-.431-.95-1.117-1.211-1.797a14.249 14.249 0 0 1-.357-1.472v-3.705l.009.003Zm35.014-11.753c2.037-.332 4.1-.419 6.159-.574.665-.14 2.063.286 2.106-.711a.627.627 0 0 0-.646-.596c-.621.028-1.239.046-1.857.087-1.821.189-3.666.14-5.458.524-.435-.012-.972.143-.947.674.012.33.31.621.646.596h-.003Z"/><path fill="#F2B2FF" d="M203.997 83.094c3.498 10.232-5.37 19.907-15.739 19.103l.044.003c-11.214-.652-18.371-12.734-11.947-22.4 6.952-10.27 23.468-8.48 27.646 3.294h-.004Zm-25.766 1.963c-1.82 7.07 4.063 13.482 11.015 13.482.317 0 .64-.012.96-.04 8.06-.522 12.959-8.856 9.436-15.631a3.394 3.394 0 0 1-.146.75c-.09.253-.239.48-.413.684a2.584 2.584 0 0 1-.699.578c-.245.14-.503.242-.77.335-.255.09-.516.165-.783.214-.254.05-.525.093-.789.093h-.115a5.648 5.648 0 0 1-1.646-.347c-.587-.218-1.05-.677-1.392-1.19a5.284 5.284 0 0 1-.388-.67 4.688 4.688 0 0 1-.279-.786v.003-.006c0-.006 0-.01-.003-.016v.007c0-.007 0-.01-.004-.016v.006-.022.01a4.985 4.985 0 0 1-.115-.699c-.024-.254-.049-.515-.021-.767.028-.267.084-.521.177-.773.177-.497.45-.975.811-1.36.161-.17.344-.317.549-.425.205-.11.407-.215.603-.336.115-.068.23-.14.348-.205-6.144-2.975-14.444-.115-16.336 7.13v-.003Z"/><path fill="#CE6AE2" d="M51.834 128.724c3.864-3.685 6.051-8.911 6.21-14.227.124-3.065.124-6.242.755-9.241.91-4.854 4.324-9.058 8.93-10.865.06-.031.118-.056.177-.084.14-.028.286-.08.426-.146.702-.233 1.444-.388 2.183-.367 1.358.035 1.982.516 2.824 1.51.075.09.134.192.174.304.037.093.096.17.168.233v24.987c-.09.121-.159.264-.205.419-.923 1.767-1.889 3.462-3.147 5.012-.994 1.36-1.873 2.801-2.889 4.145-.76 1.047-1.578 2.047-2.404 3.04-.065.09-.1.18-.118.27-2.566 2.916-5.464 5.531-8.803 7.546-2.432 1.671-5.157 2.857-7.896 3.928a30.746 30.746 0 0 1-3.629 1.071 1.833 1.833 0 0 1-.285-.049c-.54-.149-1.056-.401-1.441-.792-.612-.596-.768-1.469-.808-2.286a.514.514 0 0 0-.044-.127c.13-1.475.54-2.965.938-4.242 1.703-4.244 5.834-6.818 8.881-10.039h.003Zm20.054-31.961c.339 0 .606-.33.587-.655-.018-.351-.316-.587-.655-.587s-.606.33-.587.655c.019.351.317.587.655.587ZM60.442 116.95c.248-1.466.335-2.938.267-4.419-.031-.671-.19-1.326-.177-1.997-.146-.754-1.236-.611-1.227.122 0-.016 0-.028-.003-.044v.062c0 .013 0 .025.003.037v-.055c.14 1.906.326 3.85-.037 5.75-.121.478-.1 1.025.5 1.106.341.034.63-.227.674-.562Zm-.966 3.189c.338 0 .609-.323.593-.649-.016-.348-.31-.593-.65-.593-.338 0-.608.323-.592.649.015.347.31.593.649.593Z"/><path fill="#F2B2FF" d="M232.227 101.877c-.174.258-.307.385-.485.575a7.185 7.185 0 0 1-.391.142c-6.741 2.898-13.494 5.779-20.632 7.534-3.69.813-7.399 1.558-11.154 2.015-3.035.292-6.042.574-9.086.742-5.607.214-11.217-.261-16.749-1.177-2.861-.419-5.607-1.32-8.378-2.118-2.814-.937-5.669-1.77-8.38-2.996-1.83-.689-3.495-1.711-5.2-2.652-1.631-.885-3.296-1.717-4.905-2.642a.793.793 0 0 0-.413-.283c-1.556-1.124-2.28-2.518-2.522-4.406-.274-1.27-.373-2.571-.404-3.87-.044-1.216.345-2.396 1.311-3.176l.012-.012c.364.32.739.63 1.137.913 3.619 2.745 7.62 4.959 11.788 6.753a88.438 88.438 0 0 0 13.339 4.652c1.848.382 3.671.857 5.519 1.236 1.852.379 3.737.556 5.607.807 3.61.407 7.253.407 10.881.363 7.297-.257 14.634-1.155 21.461-3.856 2.622-.988 5.25-1.894 7.782-3.062 3.556-1.736 6.973-3.872 10.123-6.247l.096-.075c.18.248.395.487.525.745.724 1.227 1.075 2.633 1.168 4.03 0 .041 0 .082.003.122-.071.789-.202 1.574-.326 2.329-.273 1.344-.891 2.555-1.73 3.614h.003Zm-77.281 1.09c-1.093-.438-2.177-.919-3.168-1.559-.727-.4-1.392-.891-2.137-1.264-.423-.226-.904-.44-1.264-.751a.638.638 0 0 0-.42-.168c-.525-.024-.841.693-.447 1.056.606.543 1.367.842 2.066 1.239.664.419 1.332.835 2.013 1.233.671.438 1.425.714 2.14 1.068.491.199 1.236.646 1.547-.04.127-.308-.022-.69-.336-.811l.006-.003Zm2.284.95a.626.626 0 0 0-.625.618c0 .339.28.624.618.624a.625.625 0 0 0 .625-.618.627.627 0 0 0-.618-.624Zm65.306-.199c-.482-.711-1.271.087-1.787.311-1.208.522-2.46.969-3.715 1.36-.804.146-.612 1.335.193 1.227 1.749-.525 3.519-1.118 5.1-2.047.299-.161.379-.574.212-.854l-.003.003Z"/><path fill="#CE6AE2" d="M115.789 43.596c-1.771 1.699-4.24 1.283-6.489 1.423H82.636a.658.658 0 0 0-.33-.004c-.739.013-1.478-.03-2.218-.034-1.565-.028-3.13.013-4.7.034.386-1.034 1.106-1.94 1.78-2.8 1.777-2.283 3.772-4.382 5.728-6.509C86.9 31.41 91.02 26.96 95.157 22.81c5.244-4.89 10.267-9.995 15.827-14.526 2.06-1.99 4.402-3.633 6.632-5.418-.037.45-.05.894-.074 1.366-.081 1.04-.047 1.944-.013 2.96a.559.559 0 0 0 .065.518v1.984a1.087 1.087 0 0 0 0 .426v26.7c.031.352-.059.858.025 1.234.013.264.038.527-.043.785-.277 1.997-.131 3.258-1.786 4.754v.003ZM98.071 23.882c-.177-.385-.637-.429-.973-.233-.72.521-1.286 1.282-2.025 1.829-1.187.972-2.159 2.155-3.2 3.273-.537.602.358 1.434.914.841 1.308-1.497 2.702-2.897 4.227-4.17.221-.214.417-.45.634-.658.376-.1.587-.528.42-.88l.003-.002Zm14.981 18.671c-.339 0-.606.33-.587.655.019.351.317.587.655.587.339 0 .606-.329.587-.655-.018-.351-.316-.587-.655-.587Zm3.168-12.914c-.037-.475.016-1.103-.615-1.165-.453-.037-.745.413-.655.826.152 1.58.155 3.158-.012 4.736-.066 1.695 0 3.415-.134 5.095-.093.587-.193 1.19-.506 1.705-.367.717.714 1.292 1.102.574.777-1.375.718-3.099.715-4.605.018-.86.062-1.717.059-2.577.14-1.53.192-3.055.046-4.586v-.003Z"/><path fill="#000" d="M130.239 34.44c-.341-1.106-.326-2.28-.453-3.42-.01-.266 0-.521-.084-.779-.034-.195-.006-.388.022-.58v-.497a.56.56 0 0 1 0-.261V18.38c-.156-.165-.233-.401-.134-.637a5.28 5.28 0 0 1 .795-2.987c.901-1.565 2.69-2.478 4.451-2.668 1.159-.07 2.296.066 3.448.128a.736.736 0 0 1 .218-.01h59.075c.317-.099.764-.012 1.137 0h.174c.04 0 .077-.006.111-.009.333-.01.668-.003 1.001.01h.155l.04.009c1.342.077 2.665.366 3.892.928 1.299.624 2.588 1.565 3.194 2.907.133.214.251.528.276.826a.645.645 0 0 1 .112.36v12.902a.757.757 0 0 1-.044.198c.178 2.503-.779 4.854-3.003 6.19-1.038.692-2.29.648-3.479.779-.016 0-.034.006-.053.009a.678.678 0 0 1-.115.022c-.379.077-.786.177-1.143.006h-62.097c-.336.04-.733 0-1.016.046-.472.072-.948.007-1.42.025-2.081.211-4.376-.913-5.06-2.971v-.003Zm2.569 1.21c.69.516 1.597.563 2.429.522.615.028 1.221-.006 1.848-.04a.585.585 0 0 1 .187-.031h.444c.025 0 .05 0 .075-.003.015 0 .031 0 .043.003h62.97c.923-.171 1.901-.038 2.774-.435 1.687-.78 2.817-2.577 2.811-4.44-.003-.376-.003-.752-.022-1.128a.753.753 0 0 1 .056-.232V17.42a.964.964 0 0 1-.124-.565c-.832-1.975-3.056-2.931-5.054-3.288a7.487 7.487 0 0 0-1.05-.115.864.864 0 0 1-.282-.003h-60.464a1.55 1.55 0 0 1-.577.034c-.848 0-1.675-.143-2.526-.15-2.373-.294-4.886.901-5.43 3.348a.66.66 0 0 1 .05.242v11.94c.09.26.04.57 0 .866v.484s-.003.025-.003.038c.311 1.897-.183 4.353 1.848 5.396l-.003.004ZM128.664 67.4v-.018c0-.012.003-.022.003-.03l-.006.048h.003Z"/><path fill="#000" d="M198.487 28.425c.988-.264 1.715.885 1.96 1.698.364 1.059-.307 2.133-1.261 2.605-1.758 1.143-4.302-.245-4.358-2.32.006-1.754 2.19-2.772 3.659-1.983ZM184.313 23.17c-.006-2.008.006-4.017.09-6.026.1-.96 1.389-.817 2.1-.867.531.038.972.376 1.497.429.333-.463 1.125-.19 1.109.382.028.521.078 1.093.084 1.695-.012 1.795.078 3.584.127 5.375.112 1.922.137 3.841.137 5.763.037.994.121 1.988.078 2.981.034.444-.022 1.022-.566 1.093-.289.035-.475-.12-.745-.226-.743-.187-1.522-.224-2.271-.4-.761-.147-1.687-.094-1.466-1.172.093-2.94-.227-6.052-.171-9.03l-.003.004ZM169.856 30.828c.501-.73.842-1.71 1.255-2.515.336-.643.752-1.199 1.153-1.801.152-.17.298-.466.469-.727a5.418 5.418 0 0 1-2.162-2.85c-.581-4.155 3.066-6.832 6.927-6.838.873-.077 1.77.072 2.65.15.512.006 1.239.282 1.267.869-.196 3.825.345 7.66.413 11.489.044 1.08.103 2.158.096 3.238-.043.531.159 1.177-.208 1.625-.36.357-.913.152-1.36.145-.973-.062-1.957-.043-2.917-.226-.823-.264-.478-1.32-.55-1.972.006-1.26-.174-2.509-.208-3.767-.696 1.165-1.385 2.345-1.842 3.637-.569 1.804-.277 1.912-2.299 1.99-.888-.084-4.426.453-3.463-1.28.255-.394.515-.782.783-1.167h-.004Zm6.809-7.67c.028-.73.075-1.45.128-2.173-.398.096-.805.195-1.115.481h.012c-.879 1.152.012 1.469.975 1.692ZM157.512 25.773c.106-2.214-.084-4.45.252-6.651.189-2.28.842-2.724 3.066-2.789.869-.391 1.904-.056 2.833-.12 4.314-.116 3.68 4.409 4.007 7.411.052 1.736.17 3.466.09 5.201-.1 1.093.289 2.289-.174 3.317-1.091 1.9-5.651 1.037-7.676 1.27-2.597.05-2.789-1.665-2.618-3.792a29.985 29.985 0 0 1 .22-3.847Zm4.34 1.953c.018.003.034.01.052.012a6.2 6.2 0 0 0 .476.063c.394.015.789.009 1.18-.034.006-1.767-.217-3.519-.168-5.285-.025-1.128-.556-.83-1.413-.851 0 2.034-.211 4.04-.127 6.095ZM138.241 19.668c.143-.876.158-1.78.323-2.642.317-.72 1.23-.373 1.836-.351.901.055 1.805.046 2.705.111.224-.009.566.24.606.5-.022 2.543-.255 5.08-.311 7.636.056-.062.112-.118.171-.177a25.268 25.268 0 0 1 2.529-2.866 63.764 63.764 0 0 1 2.994-3.751c.072-1.307 1.74-.929 2.634-1.04.737-.075 2.846-.429 2.445.888.047 3.803-.103 7.614-.006 11.417.043.982.012 1.957.034 2.938.05.397.037.879-.395 1.052-.493.174-1.012-.07-1.5-.161-.596-.075-1.19-.14-1.767-.31-.55-.14-1.386.183-1.569-.566-.022-2.263.103-4.549.065-6.822-.745.783-1.332 1.693-1.91 2.596-.575.814-1.159 1.618-1.603 2.512-.438.752-.584 1.748-1.255 2.33-.522.226-1.127.099-1.68.145-.643-.068-2.631.24-3.681-.034a.626.626 0 0 1-.485 0c-.189-.08-.357-.273-.373-.487-.028-.556.038-1.115.031-1.671-.006-1.841-.08-3.683-.024-5.524-.047-1.938-.028-3.767.195-5.717l-.009-.006ZM91.917 150.923v-8.3a.707.707 0 0 1 .062-.403v-.106c-.1-.683-.059-1.394.23-2.031.727-2.223 2.081-2.369 4.194-2.481a.604.604 0 0 1 .506.143h17.845c.274-.161.64-.102.942-.09.699-.025 1.388.084 2.078.18a5.866 5.866 0 0 1 2.938 1.497c.435.612.771 1.304.73 2.08a.948.948 0 0 1 .016.475v13.154a.616.616 0 0 1-.134.385c-.04.18-.127.36-.245.497-.907 1.54-2.821 1.313-4.355 1.459-.799.068-1.6-.034-2.395.022a.554.554 0 0 1-.308-.059c-.071 0-.136 0-.198.012H99.236a.606.606 0 0 1-.417-.161c-.09.009-.177.018-.254.031-2.29.099-5.203-.193-6.31-2.522-.568-.922-.583-2.111-.397-3.154-.022-.215-.04-.435.065-.625l-.006-.003Zm7.396 4.953a.627.627 0 0 1 .59.236h15.224a.65.65 0 0 1 .215.04l.54.01c.755.006 1.507-.093 2.261-.131 1.69.031 1.783-.714 2.072-1.155v-13.181c0-.025.006-.044.01-.068-.032-.212-.035-.435-.041-.628-.074-.295-.242-.537-.373-.816-.366-.385-.882-.59-1.345-.864-.714-.282-1.444-.372-2.196-.413a.615.615 0 0 1-.292.078H96.415a.623.623 0 0 1-.373-.121 9.748 9.748 0 0 0-1.298.158c-.264.075-.531.168-.758.326-.19.267-.348.562-.494.854-.17.432-.348.863-.317 1.339-.028.468.246 1.155-.01 1.565V152.324a.615.615 0 0 1-.186.444c.171 3.164 3.79 3.484 6.34 3.105l-.006.003ZM91.834 116.894c.155-.659.46-1.28.953-1.755 1.031-1.105 2.7-1.121 4.107-1.108.28 0 .608-.053.876 0h17.289a.65.65 0 0 1 .314.084c1.308-.007 2.646.133 3.907.478.858.276 1.665.854 1.988 1.717.199.329.398.863.19 1.195v11.058a.689.689 0 0 1-.053.239.645.645 0 0 1-.006.186c-.044.156-.022.314-.009.469-.14 1.82-1.737 3.341-3.538 3.512-.528.019-1.066.031-1.588-.046H98.326c-.14 0-.27-.05-.376-.134a2.655 2.655 0 0 1-.587-.09c-1.786-.394-3.268-1.581-4.374-3.003-.488-.618-.854-1.341-.975-2.124-.072-.36-.183-.999-.093-1.471v-7.617c-.206-.485-.128-1.078-.087-1.59Zm1.326 10.116v.007c.267 1.984 2.32 3.847 4.187 4.4.463.248 1.305.04 1.774.267h17.643c.09 0 .177.021.258.059.463.018.92.009 1.379-.156.988-.403 1.818-1.375 1.74-2.478a1.093 1.093 0 0 1 .084-.459.72.72 0 0 1-.006-.193v-11.209a.58.58 0 0 1 .034-.19c-.056-.124-.118-.248-.171-.397-.286-.519-.833-.792-1.382-.95-.92-.205-1.901-.302-2.861-.354-.454-.078-1.187.13-1.619-.081H97.344c-.24.009-.484-.006-.677 0-.904-.022-1.86.006-2.668.463a2.232 2.232 0 0 0-.889 1.208.648.648 0 0 1 .053.254V127.013l-.003-.003ZM121.551 76.567c-.143 2.028.459 4.748-1.46 6.099-.572.36-1.202.599-1.839.816-.376.066-.752.013-1.125.103-.177.037-.354.015-.531-.013a.588.588 0 0 1-.152-.046H98.595a.607.607 0 0 1-.257-.056c-.786-.028-1.606-.075-2.373-.245-1.787-.389-3.188-1.904-3.743-3.612a6.182 6.182 0 0 1-.302-1.751c0-.012-.003-.022-.003-.034V77.2c-.016-.33-.078-.72 0-1.038v-8.455a.937.937 0 0 1 0-.323v-.043c-.118-.805.152-1.6.51-2.31 1.015-1.652 3.186-2.152 5.035-2.183.428-.069.99.046 1.363-.004h19.803a.61.61 0 0 1 .248.053c.948-.034 1.616.81 2.057 1.568.31.482.422 1.124.472 1.699.133 1.108.214 2.26.18 3.381-.072 2.357-.016 4.64-.031 7.015l-.003.006Zm-1.519-11.1c-.124-.377-.373-.693-.621-1-.106-.125-.271-.32-.466-.32-.218.009-.438.006-.656-.029a.612.612 0 0 1-.494-.03 2.568 2.568 0 0 0-.382.006H97.822c-.776.04-1.569-.025-2.305.27-1.286.394-2.277 1.03-2.392 2.487v.143c.013.05.022.106.025.165V77.834c.066 1.757 1.084 3.558 2.824 4.114.817.236 1.65.243 2.519.292a.714.714 0 0 1 .323.04h17.842c.109 0 .202.029.283.066.32-.01.634-.115.988-.072.267-.09.522-.21.792-.295 1.096-.344 1.469-1.304 1.528-2.372v-.019c-.105-.357-.021-.853-.046-1.198V67.953c0-.124.037-.23.087-.316a15.348 15.348 0 0 0-.268-2.177l.01.006ZM91.858 92.487c0-.965-.05-2.058.553-2.872.33-.472 1.966-1.404 2.967-1.407a.587.587 0 0 1 .192-.034h18.818c.211-.037.441-.015.652-.015.858-.047 1.715-.04 2.566.093 1.755.118 3.818.677 3.849 2.8 0 .016-.003.029-.003.044 0 .01.006.019.006.031v12.318a.432.432 0 0 1-.013.115c.109.587.016 1.183-.083 1.761-.131.385-.389.702-.65 1.009-1.124 1.345-2.91 1.823-4.588 2.003a1.23 1.23 0 0 1-.428-.013H98.254c-.162.028-.332.038-.5.05-3.861.317-5.902-2.903-5.87-6.44a.571.571 0 0 1 .033-.22v-8.754a.619.619 0 0 1-.059-.466v-.003Zm1.296 9.75c.012.202.012.404.037.569.133 2.422 1.69 4.313 4.032 4.344a.598.598 0 0 1 .286-.075h.593a.573.573 0 0 1 .553 0h16.733a.622.622 0 0 1 .472 0h.236l.044.003c.161-.015.323-.052.488-.08 1.158-.171 2.37-.559 3.146-1.488.14-.17.295-.341.392-.54.049-.273.043-.559.096-.835-.034-.221-.062-.447-.034-.64a1.588 1.588 0 0 1-.016-.435V91.391a.865.865 0 0 1 0-.348c-.059-.276-.09-.583-.282-.788-.432-.51-1.159-.584-1.78-.683-.625-.097-1.15-.15-1.83-.209-.255-.012-.509 0-.764.016a.588.588 0 0 1-.196.034H95.682a.88.88 0 0 1-.382.04c-.335.022-.618.196-.916.336-.308.065-.56.23-.805.419-.397.267-.416.767-.46 1.217a.826.826 0 0 1 .038.187v10.576a.234.234 0 0 1-.007.046l.004.003Z"/><path fill="#000" d="M.015 154.917c.038-1.087.159-2.183.45-3.233 1.048-3.686 2.51-7.226 4.446-10.53.686-1.167 1.304-2.369 1.957-3.555.69-1.118 1.497-2.158 2.156-3.298 2.749-4.477 5.653-8.865 9.06-12.874 2.184-2.353 4.222-4.841 6.53-7.079 3.209-3.13 6.476-6.223 9.993-9.008 2.876-2.258 5.768-4.518 8.815-6.546 1.414-.988 2.861-1.935 4.315-2.86.503-.314 1.034-.63 1.301-1.183 0-.01 0-.019-.003-.028-.773-.292-1.494-.714-2.22-1.102-3.306-1.953-6.533-4.056-9.512-6.49-3.78-3.248-7.915-5.978-11.248-9.735-1.335-1.478-2.696-2.937-4.01-4.434-1.295-1.6-2.442-3.313-3.721-4.925-4.03-5.328-7.483-11.082-10.145-17.205a.666.666 0 0 1-.115-.267 69.424 69.424 0 0 1-.777-1.864c-1.273-3.145-2.572-6.29-3.541-9.545-.742-2.397-1.566-4.763-1.963-7.253-.087-.606-.31-1.193-.24-1.817.069-.298.234-.475.423-.562.13-.37.637-.593 1-.295.904.879 1.932 1.618 3.153 1.981 3.19 1.168 6.53 1.739 9.943 1.813 4.16.106 8.303.423 12.416 1.103 2.603.36 5.24.667 7.722 1.574 2.805.928 5.675 1.711 8.372 2.94 4.125 2.094 8.178 4.348 11.85 7.183 1.842 1.388 3.52 2.975 5.156 4.596 3.46 3.288 6.713 6.825 9.403 10.778l.05.074c.23.137.388.28.767.376.56.19 1.177.043 1.612-.37.1-.1.18-.214.273-.316V47.658a.63.63 0 0 1 .078-.292c.034-1.372.27-2.748 1.025-3.934 1.743-2.695 4.007-5.037 6.15-7.425 2.135-2.31 4.244-4.645 6.468-6.865 3.497-3.91 7.216-7.577 11.055-11.15 2.196-2.035 4.333-4.196 6.585-6.217 1.88-1.758 3.93-3.323 5.831-5.058 1.41-1.255 2.845-2.497 4.411-3.556 1.314-1.028 2.55-2.304 4.28-2.54.783-.124 1.569-.202 2.345-.341.329-.02.693-.072 1.044-.069.245-.04.491-.071.739-.096.05-.012.1-.022.152-.022h.063c.183-.012.369-.022.556-.015.08-.01.155 0 .223.015h75.619c.329-.177.817-.022 1.19.006.897-.009 1.783.063 2.687.075 2.401.192 4.839.652 7.032 1.68 2.526 1.49 4.799 3.72 5.579 6.62.497 1.258.578 2.618.513 3.956a2.72 2.72 0 0 0 0 .373.68.68 0 0 1 .049.242v12.483c.712.006 1.423.04 2.112.22 4.113.966 8.089 2.472 11.994 4.074 6.439 2.73 12.549 6.151 18.376 10.014 6.794 4.093 12.823 9.316 18.452 14.877 3.109 3.09 6.075 6.334 8.831 9.744 2.41 3.189 4.423 6.645 6.131 10.253 1.932 4.028 3.775 8.139 4.887 12.477.205.73.379 1.431.534 2.173.112-.8.199-1.605.304-2.406.112-.885-.006-1.916.022-2.826.099-1.661.432-3.3.671-4.946.823-5.645 1.587-11.334 3.243-16.812.081-.518.606-.822 1.065-.53.401.279.559.791.736 1.226.442 1.242.709 2.534 1.004 3.816.342 1.292.658 2.587.826 3.916.27 1.26.668 2.614.829 3.915.628 4.273 1.575 8.518 2.405 12.76.18.894.338 1.794.537 2.685.056.193.109.426.112.646.27.003.54.007.817.007.602.07 1.739-.122 1.73.763a.824.824 0 0 1-.056.205c.252.395-.133.975-.351 1.382-.286.643-.696 1.36-1.075 1.99a69.98 69.98 0 0 1-5.336 7.885c-4.893 6.964-11.177 12.839-17.56 18.426-3.979 3.406-8.151 6.818-12.412 9.902-4.318 3.055-8.844 5.803-13.388 8.502-6.974 3.915-13.969 7.909-21.558 10.523-4.504 1.544-9.042 3.227-13.785 3.851-.035.003-.069 0-.103.003v8.182a.905.905 0 0 1 .078.41c-.028.652-.081 1.307-.05 1.962.05.829-.093 1.649-.186 2.472-.094 1.788-.392 3.707-1.308 5.304-1.01 1.822-2.553 3.303-4.125 4.645-1.836 1.456-4.004 2.26-6.306 2.645-.053.013-.109.022-.165.032a.61.61 0 0 1-.354.114H87.5c-.028 0-.053-.006-.08-.009-.262-.012-.516-.031-.718 0a6.884 6.884 0 0 1-2.634-.404c-1.125-.223-2.215-.661-3.212-1.239-2.535-1.648-4.69-4.095-5.89-6.89-.882-2.155-1.022-4.502-1.248-6.837.015-.873-.19-1.764-.118-2.665-.016-.245-.016-.543.08-.782v-30.775s-.006-.007-.006-.013c-.264-.264-.466-.668-.764-.959-.686-.684-1.842-.901-2.68-.385-2.622 3.546-5.465 6.961-8.757 9.905-4.806 3.878-10.347 6.999-16.37 8.458a.846.846 0 0 1-.46.109c-.55.124-1.1.239-1.656.336-3.025.636-6.135.586-9.2.928-2.314.174-4.644.099-6.952.388-2.383.18-4.768.311-7.11.823-2.628.332-5.21.888-7.834 1.382-1.818.292-3.46 1.121-5.144 1.819-.985.398-1.998.733-2.93 1.249-.872.552-1.562 1.164-2.367 1.863-.425.428-1.149.521-1.348-.162a.644.644 0 0 1 .007-.267c-.128-.273-.125-.655-.1-.953l.006-.012Zm117.603-116.86c-.083-.379.007-.882-.024-1.233V10.12a1.087 1.087 0 0 1 0-.426V7.71a.556.556 0 0 1-.066-.518c-.034-1.016-.068-1.92.013-2.96.025-.472.04-.916.074-1.366-2.23 1.786-4.572 3.428-6.632 5.419-5.56 4.53-10.583 9.635-15.826 14.526-4.138 4.148-8.256 8.598-12.26 12.895-1.954 2.13-3.952 4.226-5.728 6.509-.677.86-1.398 1.763-1.78 2.8 1.565-.021 3.13-.062 4.7-.034.739 0 1.478.047 2.217.035a.734.734 0 0 1 .33.003H109.3c2.252-.143 4.721.276 6.489-1.422 1.655-1.497 1.509-2.761 1.786-4.755.081-.257.056-.521.043-.785Zm97.295 4.816h-.46c-.261.006-.525.016-.783 0h-57.751c-.184.143-.435.18-.709 0h-.053a.621.621 0 0 1-.223-.043c-2.274-.087-4.625.155-6.722 1.133-1.28.618-2.286 1.692-3.109 2.841-.817 1.314-1.495 2.789-1.718 4.338-.028.342.068.683.009 1.025a.718.718 0 0 1-.065.202v20.335c.792-.425 1.522-.953 2.339-1.332 1.457-.928 3.063-1.59 4.628-2.31 1.647-.87 3.321-1.69 4.992-2.509 7.641-3.55 16.025-5.055 24.369-5.831 2.724-.249 5.457-.398 8.191-.507 2.736-.084 5.467.19 8.197.314 4.871.255 9.698.863 14.435 2.068 6.262 1.4 12.083 4.276 17.622 7.446 2.199 1.242 4.408 2.494 6.43 4.012.195.211.55.373.845.562V52.08c0-.078.018-.143.037-.205 0-.177 0-.348-.025-.49-.193-1.274-.444-2.441-1.149-3.569-.491-.931-1.013-1.797-1.78-2.546-1.864-1.85-4.399-2.524-6.952-2.708-2.643.053-5.234.37-7.899.355-.901.09-1.799-.035-2.7-.047l.004.003Zm-38.562 36.93c-6.423 9.663.734 21.748 11.947 22.4l-.043-.003c10.371.804 19.237-8.871 15.739-19.103-4.175-11.774-20.691-13.563-27.646-3.294h.003Zm7.847-7.21a67.575 67.575 0 0 0-5.427.382 74.517 74.517 0 0 0-20.88 5.545c-4.178 2.133-8.483 4.068-12.385 6.726-.593.46-1.22.913-1.733 1.472.336.475.795.848 1.205 1.257 5.393 4.82 12.171 7.869 18.908 10.353 6.703 2.413 13.727 4.034 20.84 4.549-10.288-2.832-16.106-15.023-8.729-24.689 2.159-2.785 5.057-4.64 8.204-5.592l-.003-.004Zm19.631 7.222c5.651 9.493-.307 20.795-10.359 23.186 6.595-.192 13.214-1.009 19.43-3.303 3.1-1.118 6.262-2.214 9.263-3.618 2.901-1.435 5.65-3.146 8.296-5.006 1.364-1.012 2.765-2.021 4.045-3.142.124-.124.264-.27.416-.391a35.23 35.23 0 0 1-1.538-1.068 20.782 20.782 0 0 0-3.14-2.273c-2.88-1.662-5.728-3.428-8.766-4.798-3.367-1.49-6.703-3.07-10.26-4.074-5.178-1.674-10.617-2.14-16.022-2.503 3.488 1.22 6.595 3.559 8.632 6.99h.003Zm30.451 15.998c-.096-1.397-.447-2.804-1.168-4.03-.13-.258-.345-.497-.525-.746l-.096.075c-3.15 2.372-6.564 4.508-10.123 6.247-2.532 1.165-5.16 2.075-7.782 3.062-6.83 2.698-14.167 3.599-21.461 3.857-3.628.043-7.271.043-10.881-.364-1.873-.251-3.755-.431-5.607-.807-1.848-.379-3.671-.851-5.52-1.236a88.426 88.426 0 0 1-13.338-4.651c-4.168-1.795-8.166-4.01-11.788-6.754-.395-.283-.77-.593-1.137-.913l-.012.012c-.966.78-1.355 1.96-1.311 3.177.031 1.298.13 2.599.404 3.869.242 1.885.966 3.279 2.522 4.406.183.056.32.162.413.283 1.609.925 3.274 1.757 4.905 2.642 1.705.941 3.37 1.963 5.2 2.652 2.711 1.227 5.566 2.059 8.38 2.997 2.771.798 5.517 1.698 8.378 2.117 5.532.916 11.142 1.391 16.749 1.177 3.041-.168 6.048-.45 9.086-.742 3.755-.456 7.464-1.202 11.154-2.015 7.138-1.755 13.891-4.639 20.632-7.533.134-.044.264-.094.391-.143.177-.19.311-.317.485-.575.839-1.062 1.457-2.27 1.73-3.614.124-.755.255-1.543.326-2.329 0-.04 0-.08-.003-.121h-.003Zm-90.594-13.998c.261.677.606 1.366 1.212 1.798.205.003.413.052.568.155h.022c.795-.525 1.512-.953 1.829-1.158 2.936-1.696 5.995-3.168 9.024-4.71 6.759-3.156 14.065-5.103 21.455-6.056 5.538-.692 11.142-.63 16.708-.301 2.774.196 5.551.388 8.316.695 3.758.52 7.458 1.401 11.046 2.64 2.64.844 5.116 2.108 7.66 3.195 2.951 1.267 5.678 2.963 8.471 4.537 1 .602 1.988 1.19 2.938 1.894.016-.016.031-.031.05-.047.96-.645 1.242-1.919 1.407-3.002.146-1.978-.354-3.969-1.221-5.736-.627-1.03-1.541-1.98-2.578-2.592a.59.59 0 0 1-.326-.382c-.367-.218-.73-.435-1.094-.659-5.274-3.061-10.713-5.955-16.59-7.676-2.755-.735-5.548-1.325-8.356-1.835-2.864-.425-5.756-.633-8.645-.823-2.528-.118-5.057-.357-7.588-.291-2.712.111-5.43.251-8.132.496-7.446.758-15.022 1.863-21.934 4.863-3.333 1.289-6.414 3.12-9.673 4.574-.534.248-1.056.525-1.571.813a.644.644 0 0 1-.317.286c-.997.587-2.156 1.162-2.616 2.292a23.874 23.874 0 0 0-.413 1.857v3.704c.093.49.211.978.357 1.472l-.009-.003Zm154.012 1.562c-.693-3.199-1.234-6.329-1.734-9.577-.767-3.26-1.311-6.567-2.246-9.79-1.708 6.418-2.478 13.076-3.448 19.64-.034 1.04-.009 2.08-.055 3.118.086.083.149.189.18.307.208.45.45.897.81 1.248.761.711 1.771 1.317 2.833 1.413 1.218.031 2.557-.251 3.504-1.05.277-.316.556-.683.73-1.08.056-.14.109-.292.18-.428-.248-1.267-.494-2.537-.754-3.801Zm-79.962 65.025c.46 1.447 1.367 2.941 2.731 3.683.074.034.217.146.323.17a.588.588 0 0 1 .195.056c2.864-.689 5.651-1.67 8.471-2.608 8.359-2.782 16.075-7.114 23.685-11.483 4.287-2.599 8.502-5.12 12.593-8.064 3.367-2.444 6.601-5.061 9.791-7.729 6.657-5.589 13.146-11.579 18.467-18.497 2.398-3.27 4.839-6.515 6.812-10.073.351-.581.63-1.168.922-1.783l-.105-.009a137.29 137.29 0 0 1-6.163-.258c-4.268-.276-8.524-.745-12.804-.875-4.976.028-9.953.208-14.867 1.058-2.677.538-5.361 1.18-7.908 2.183-3.417 1.503-6.968 3.118-10.785 3.022-.649.084-1.386-.522-.895-1.143.239-.28.575-.208.861-.1 1.876.078 3.674-.369 5.436-.94a.631.631 0 0 1-.019-.174 32.317 32.317 0 0 1-.149-3.05c-.093-1.347 0-2.7-.059-4.048a17.848 17.848 0 0 1 .099-3.267c.137-.997.007-2.012-.018-3.012-.031-1.568.195-3.127.192-4.692 0-.26-.081-.525 0-.78.112-.381.594-.568.926-.344.699.77 1.199 1.788 1.721 2.726.674 1.106 1.258 2.255 1.851 3.4 1.491 2.547 2.932 5.124 4.368 7.701.574.422 1.301.764 1.991.857 1.087.267 2.171-.037 3.252-.226 1.351-.249 1.87-1.662 2.01-2.876.143-.577.195-1.174.313-1.757 0-.013.007-.019.01-.031.195-2.245.357-4.472.587-6.754.093-2.503.407-4.894.612-7.403.099-.602-.084-1.326.264-1.854a.64.64 0 0 1 .658-.198c.535.192.603.872.858 1.313.779 1.702 1.543 3.41 2.115 5.195 1.14 3.332 2.556 6.567 3.905 9.822.649 1.338 1.071 2.816 1.866 4.07.016.029.025.056.038.084.54 0 1.084.004 1.624.013 1.345.05 2.687.133 4.029.23-.115-.5-.205-.991-.339-1.51-.323-1.232-.674-2.552-1.102-3.794a70.906 70.906 0 0 0-3.607-8.632c-1.183-2.519-2.429-4.978-3.948-7.335-1.767-2.838-3.917-5.412-6.184-7.871-2.712-3.124-5.716-5.993-8.726-8.866a140.46 140.46 0 0 0-8.961-7.44c-2.308-1.667-4.765-3.12-7.142-4.691-4.706-3.003-9.564-5.776-14.683-8.018-2.519-1.14-5.085-2.183-7.706-3.062-.041.013-.081.025-.125.031-.4.053-.82.063-1.227.118-2.444.435-4.883 2.137-6.063 4.35a6.5 6.5 0 0 0-.37.997v7.239c1.081-.078 2.171-.047 3.252-.075 1.498-.084 3.045-.155 4.576-.084a9.97 9.97 0 0 1 1.522.087c.239.065.553.087.823.165.997.177 1.976.45 2.908.866 1.721.798 3.267 2.05 4.258 3.68.842 1.394 1.631 2.84 1.811 4.487.125.562.184 1.133.153 1.72a.704.704 0 0 1-.038.332v71.416c.059.13.075.282.019.435.084 1.692-.283 3.409-.718 5.042-1.059 2.935-3.289 5.31-5.762 7.142-1.82 1.304-3.786 2.795-6.038 3.139-.23.091-.532.084-.83.069h-.025c-.052.012-.108.022-.161.04-1.926.572-3.892 1.571-4.914 3.379-.749 1.543-.736 3.431-.454 5.098l-.003-.009ZM279.1 86.681c-.438-1.019-.869-2.04-1.283-3.068-.785-1.767-1.425-3.593-2.174-5.372-.792-2.003-1.348-4.096-2.302-6.037-.335 2.916-.469 5.804-.742 8.729-.106 1.543-.267 3.08-.41 4.624 0 .052 0 .105-.009.161-.004.031-.01.059-.013.09-.037.407-.074.817-.105 1.227.024.012.049.025.071.04.196.133.252.385.391.571.976 1.159 2.669 1.662 4.157 1.506.994-.39 1.767-1.298 2.298-2.201.022-.1.065-.19.121-.267v-.003Zm-23.48-2.314c-.127 1.124-.186 2.245-.112 3.382.028 1.242.025 2.521.047 3.797.059.044.115.094.168.14.494.314.975.547 1.559.665 1.295.112 2.51-.572 3.55-1.28.283-.267.482-.677.628-1.08.099-.277.124-.686.23-1.003-.531-.975-1.053-1.957-1.625-2.897a686.098 686.098 0 0 1-4.339-7.807c-.081 1.18-.165 2.36-.134 3.543.056.845.124 1.696.022 2.54h.006Zm-32.516 54.266c.335-.081.668-.118.935-.059a4.585 4.585 0 0 0 1.506-.487c3.482-1.73 6.775-4.301 8.692-7.748.77-1.627 1.102-3.434 1.155-5.238-.009-.047-.018-.093-.018-.146v-22.947c-.376.18-.749.366-1.119.562a23.935 23.935 0 0 1-1.926.965c-1.736.786-3.547 1.438-5.259 2.267-4.808 1.916-9.623 3.838-14.633 5.17-7.349 1.891-14.91 2.835-22.483 3.174-3.874.112-7.744-.084-11.593-.534-3.634-.423-7.268-.975-10.763-2.078-4.768-1.394-9.567-2.866-14-5.139-2.37-1.406-4.852-2.602-7.253-3.953-.829-.475-1.631-.996-2.432-1.515-.187-.13-.392-.254-.587-.388v22.966a.607.607 0 0 1-.044.223c.025 1.062.031 2.134.174 3.192.305 4.208 2.258 8.238 5.803 10.657.32.187.649.336.987.457.038.012.075.022.109.034.997.342 2.066.46 3.138.565a9.473 9.473 0 0 0 1.956.009c.569 0 1.119.031 1.693 0 1.106.059 2.215.106 3.321.103a.62.62 0 0 1 .357-.115h62.278l.006.003Zm-94.474 3.751v10.064a.541.541 0 0 1 0 .413c.028.41.09.823.267 1.202.494 1.136 1.631 1.77 2.846 1.866.319.046.736.164 1.077.146.109 0 .199.012.28.04H150.091c.155 0 .311 0 .46-.037.646-.242 1.472-.612 1.575-1.376a1.34 1.34 0 0 1 .04-.4v-8.421a.708.708 0 0 1-.059-.267c.019-.24.031-.445.059-.665v-2.695c0-.019.006-.034.006-.053-.062-.391-.015-.866-.133-1.183-.236-.693-.92-1.102-1.494-1.506a3.707 3.707 0 0 0-.438-.208c-.066-.019-.134-.034-.199-.053-.087-.031-.171-.065-.255-.096-.717-.193-1.472-.208-2.224-.227a.683.683 0 0 1-.401.065H133.28a.76.76 0 0 1-.283-.068c-.059 0-.114 0-.167.006-.814.019-1.622.072-2.429.193-.656.124-1.383.434-1.7 1.055-.155.389-.099.823-.093 1.246a.665.665 0 0 1 .025.167v.494c.013.106.016.208 0 .307l-.003-.009Zm-53.574 23.342c.246 2.111.448 4.341 1.51 6.238 1.106 2.059 2.696 3.673 4.554 5.117 1.214.78 2.634 1.189 4.038 1.528.922.276 1.954.078 2.917.13.034.003.068.013.1.022h116.431a.547.547 0 0 1 .373-.109 13.595 13.595 0 0 0 2.73-.624c2.96-1.046 5.483-3.415 7.101-6.083 1.044-1.798 1.034-3.909 1.283-5.921.078-.777.034-1.54.047-2.32a.628.628 0 0 1-.035-.282v-22.41c-.118-.329-.282-.575-.497-.888a.75.75 0 0 1-.233-.24h-53.679a.648.648 0 0 1-.304.1c-.454.025-.907-.025-1.367.012-.593.047-1.187-.018-1.78-.056a.854.854 0 0 1-.494.087c-.422.134-.826.308-1.242.466-.743.37-1.476.838-1.985 1.503a8.046 8.046 0 0 0-1.122 3.087v9.309a.648.648 0 0 1-.031.183c-.028.519-.18 1.043-.497 1.472-.708.723-1.671 1.313-2.708 1.313a1.917 1.917 0 0 1-.566 0h-16.783a.597.597 0 0 1-.23-.046c-.403-.025-.733-.109-1.164-.18-.668-.094-1.355-.243-1.942-.618-1.022-.659-1.833-1.714-2.019-2.925a.69.69 0 0 1-.078-.298v-11.095c-.068-.385-.006-.773-.043-1.189-.04-.892.276-1.833 1.044-2.348 1.062-.845 2.423-.851 3.73-.95.457-.065.997-.016 1.47-.016.217-.006.434 0 .611.053h9.726c.379-.22.73-.54.994-.888.339-1.025-.192-2.087-.839-2.894-.217-.233-.444-.531-.723-.81a1.662 1.662 0 0 0-.401-.246h-.23a.541.541 0 0 1-.146.019h-.584l-.071.009a19.86 19.86 0 0 1-3.6-.009h-2.538c-.528.043-1.059.087-1.581.081-1.044.074-2.094 0-3.138-.066-.841.097-1.702-.133-2.32-.732-1.124-1.034-1.562-1.935-1.37-3.472.006-.062.009-.127.013-.192v-10.825a.826.826 0 0 1 .037-.472c-.016-.174-.016-.348-.016-.5-.006-.792.594-1.388 1.258-1.723.945-.494 2.013-.966 3.116-.923.196.004.391-.015.587-.034a.603.603 0 0 1 .193-.034h.198a3.09 3.09 0 0 1 .441 0h8.878v-5.713h-9.117a.723.723 0 0 1-.192.065c-.597-.003-1.227-.087-1.836-.09-1.469-.124-2.936-1.149-3.271-2.643a6.216 6.216 0 0 1-.158-.86c-.199-.332-.1-.9-.118-1.285v-4.379c-.01-.28-.016-.556-.025-.835-.016-.823-.056-1.643-.078-2.465-.006-.64.056-1.261.103-1.885V92.13c0-.267-.032-.605.037-.876.127-2.44 1.32-3.043 4.231-3.102.152.01.484-.07.667-.03.118.027.236.046.355.061h9.405v-4.722c-.211.018-.422.034-.633.046a.645.645 0 0 1-.19.034h-.624c-.457.01-.91.01-1.367 0h-5.001c-.51.016-1.019.031-1.525.04-1.811.119-4.256-.002-4.88-2.07-.047-.41-.159-.702-.252-1.124a3.595 3.595 0 0 1-.087-.836c-.199-.304-.127-.829-.133-1.195v-11.06c0-.103.024-.193.059-.268.012-.248.018-.497.046-.742.413-1.385 1.255-2.888 2.703-3.388.376-.1.863-.233 1.22-.03h10.434c.087 0 .165.02.233.046v-10.12c0-.307-.04-.695.066-.981-.087-1.497.506-2.972 1.152-4.31 1.895-4.152 5.743-5.856 10.139-5.89.615-.038 1.36-.084 2.01.03h53.586c.814-.366 1.64-.705 2.37-1.226 1.354-.969 2.336-2.379 3.19-3.798.941-1.527 1.441-3.294 1.494-5.095a.646.646 0 0 1 .015-.255V13.955a.922.922 0 0 1-.034-.606c-.021-.661.031-1.323-.021-1.984.009-1.773-.681-3.518-1.6-5.015-.864-1.202-2.032-2.164-3.218-3.034-2.075-1.257-4.588-1.633-6.968-1.89-.978-.022-1.953-.078-2.929-.088H125.633a.897.897 0 0 1-.237.066 4.836 4.836 0 0 0-1.317.462c-1.068.593-1.929 1.506-2.727 2.42a9.31 9.31 0 0 0-2.038 3.443c-.143.745-.264 1.056-.348 1.866-.065.13-.099.27-.13.404v27.704c.025.155.025.33.031.5.068.574-.158 1.133-.196 1.705 0 1.043-.22 2.114-.748 3.02-1.827 3.022-4.433 3.367-7.617 3.302a.581.581 0 0 1-.22.043h-.587c-.311.034-.622.065-.935.037a.855.855 0 0 1-.143-.037H84.037a.555.555 0 0 1-.215.006c-.435.053-.876.072-1.31.14-3.383.64-5.517 3.108-6.772 6.201-.326.87-.444 1.891-.798 2.77l-.02.025v106.482a.619.619 0 0 1-.077.292c.013 1.18.124 2.363.211 3.543v-.006Zm53.574-48.019v9.409c.016.093.009.193 0 .286v.36a.575.575 0 0 1 0 .428v.649a.72.72 0 0 1-.019.153c-.006.226-.012.453-.024.68.037.76.698 1.375 1.267 1.819.335.236.749.236 1.14.205.342.019.683.034 1.025.05a.603.603 0 0 1 .28-.065h3.236c.6-.05 1.202-.094 1.808-.056.308.015.618.037.926.056h1.491c1.093-.848 1.764-2.099 2.05-3.441.345-2.475.202-4.999.062-7.49-.155-1.707-.419-3.564-1.559-4.958-.137-.137-.255-.308-.438-.376a.584.584 0 0 1-.168-.149h-6.172a.625.625 0 0 1-.354 0h-.159c-.497.006-.997.102-1.5.062-.755.087-1.438.341-2.103.705-.804.369-.823.584-.724 1.428a.606.606 0 0 1-.065.239v.006Zm10.825-28.154a.864.864 0 0 1-.369-.137h-5.797a.652.652 0 0 1-.161.019c-.18.015-.37.003-.556-.019h-.699a.629.629 0 0 1-.202-.037c-.544.04-1.068.084-1.649.15-1.889.12-1.23 2.45-1.358 3.725-.015.152-.025.305-.04.46v5.518c.006.201.012.4.015.599.122 1.82-.155 3.68.212 5.474.18.932 1.006 1.485 1.879 1.718.329.034.63.049.932.065.034-.006.068-.013.105-.013h7.493c.111-.226.313-.425.438-.646.49-.617.876-1.31 1.115-2.061.795-2.528.947-5.223.935-7.863-.031-2.456-.286-5.459-2.476-6.98a.477.477 0 0 0 .174.028h.009Zm1.6 17.125h.044c.006-.028.009-.059.015-.087-.019.031-.04.059-.059.09v-.003Zm-1.687-42.417a.639.639 0 0 1-.202-.164h-8.374a.665.665 0 0 1-.18-.028 1.485 1.485 0 0 0-.488.23c-.919.73-1.488 1.915-1.46 3.086a.645.645 0 0 1-.034.165v10.905c.162.41.096 1.025.146 1.41.059.379.14.658.245 1.056.196.931.898 1.273 1.737 1.384.046-.009.093-.015.146-.018h3.308c1.55-.037 3.1-.128 4.65 0h.581c.398-.73.86-1.404 1.242-2.17.243-.814.42-1.653.55-2.491.547-4.279.696-9.682-1.864-13.368l-.003.003ZM9.303 50.285a79.291 79.291 0 0 0 8.645 15.122c1.575 2.186 3.221 4.329 4.824 6.493 2.075 2.332 4.131 4.689 6.352 6.881 2.616 2.376 5.483 4.5 8.21 6.748 1.944 1.686 3.945 3.086 6.1 4.549 1.184.72 2.318 1.475 3.498 2.167a.991.991 0 0 1 .482.068c.335.069.699.022 1.044.075.773-.044 1.553-.339 2.121-.876.137-.158.258-.354.404-.49 1.245-4.056-.162-9.148-3.041-12.07-2.203-2.37-5.088-3.872-7.992-5.257-1.796-.736-3.585-1.453-5.2-2.55-2.355-1.462-4.312-3.514-5.825-5.828-1.335-1.925-1.941-4.418-2.718-6.639-1.183-3.397-3.485-6.505-6.815-8.026-2.466-1.224-5.29-1.171-7.93-1.774-.413-.03-.904-.177-1.23.04-.506.27-.783.7-.923 1.249v.115l-.006.003Zm62.29 14.094c-1.994-3.102-4.088-6.024-6.613-8.74-2.793-2.941-5.632-5.873-8.785-8.428-3.889-3.046-8.216-5.533-12.66-7.68-.271-.108-.544-.213-.818-.319a.518.518 0 0 1-.14.012c-.789.035-1.817.218-2.04 1.109l.03.084a.806.806 0 0 1 .035.205 30.024 30.024 0 0 1 1.783 3.4c.77 1.807 1.326 3.704 2.187 5.471 1.053 1.987 2.26 3.919 3.712 5.642 4.025 4.46 7.85 7.773 13.857 9.226 1.186.403 2.407.658 3.646.829 1.14.22 2.268.431 3.433.475 1.068.105 2.14.14 3.212.199-.286-.491-.56-.99-.84-1.488v.003Zm-29.214 82.324a.599.599 0 0 0-.23-.028.87.87 0 0 1 .23.032v-.004Zm-.327-3.564c.04.819.193 1.689.808 2.285.385.388.9.643 1.441.792.093.025.19.037.286.05a31.526 31.526 0 0 0 3.628-1.072c2.74-1.071 5.461-2.26 7.896-3.928 3.34-2.015 6.24-4.63 8.804-7.545a.642.642 0 0 1 .117-.27 57.121 57.121 0 0 0 2.405-3.04c1.016-1.345 1.898-2.786 2.889-4.146 1.258-1.549 2.224-3.245 3.146-5.011.044-.156.115-.299.205-.42V95.847a.607.607 0 0 1-.168-.233c-.04-.112-.099-.214-.174-.304-.841-.994-1.466-1.475-2.823-1.51-.743-.021-1.482.134-2.184.367-.14.065-.285.115-.425.146l-.177.084c-4.61 1.81-8.02 6.012-8.93 10.865-.635 3.003-.631 6.176-.756 9.241-.158 5.316-2.345 10.542-6.21 14.228-3.046 3.22-7.174 5.797-8.88 10.039-.4 1.276-.808 2.763-.938 4.241a.773.773 0 0 1 .044.128h-.004ZM2.143 154.103c1.532-1.276 3.52-1.733 5.303-2.549 2.774-1.407 5.917-1.643 8.912-2.317 2.895-.372 5.755-1.065 8.7-1.164 3.836-.416 7.697-.376 11.534-.783a48.9 48.9 0 0 0 4.628-.41 13.1 13.1 0 0 1-.177-.512c-.513-1.621-.301-3.341-.05-4.99.798-6.44 6.2-9.579 10.32-13.892 2.63-2.662 4.307-5.91 5.075-9.58.634-2.822.33-5.741.668-8.598.115-5.254 2.05-10.707 6.42-13.893 2.193-1.66 4.78-2.897 7.552-3.133-.084-.5.037-1.17-.038-1.583-.071-1.348-.015-2.699.056-4.043.031-.848-.14-1.702-.04-2.543.118-.65 1.096-.652 1.218.006.034 1.525.087 3.065-.035 4.592.003.91.035 1.814.053 2.724 0 .205.031.465.025.71.466-.074.935-.145 1.407-.086V67.724a.554.554 0 0 1-.143-.14 15.36 15.36 0 0 1-.404-.59.645.645 0 0 1-.447.124 46.842 46.842 0 0 0-1.864-.087c-1.683-.124-3.274-.192-4.945-.568-1.463-.202-3.044-.534-4.46-1.028-1.727-.497-3.464-1.012-5.032-1.916-3.563-1.826-6.39-4.695-9.07-7.607-1.361-1.584-2.579-3.537-3.613-5.394-.945-1.742-1.5-3.658-2.25-5.484-.928-2.21-2.115-4.36-3.646-6.21-.547-.59-1.137-1.133-1.715-1.692a.604.604 0 0 1-.143-.215l-2.314-.705c-5.007-.944-10.07-1.617-15.158-1.872-3.582-.134-7.232-.168-10.667-1.313-1.808-.479-3.541-1.062-4.967-2.233.444 2.9 1.382 5.76 2.27 8.558a68.298 68.298 0 0 0 1.681 4.766c.075.087.143.186.193.286.254.329.487.64.751.972.255.289.466.497.78.751.199.171.454.323.565.54.563.305 1.15.563 1.755.761a9.449 9.449 0 0 0 .898.246c1.96.46 4.007.475 5.945 1.034 4.567 1.148 8.043 4.89 9.586 9.247.665 1.82 1.134 3.717 1.98 5.465 1.5 2.776 3.714 5.173 6.41 6.828 1.314.832 2.74 1.497 4.2 2.04 1.774.805 3.523 1.68 5.178 2.702 2.66 1.726 5.231 4.027 6.415 7.048 1.662 3.956 1.988 9.366-1.153 12.666 0 0-.006 0-.006.007.006.388-.205.764-.441 1.068-.941 1.14-2.398 1.689-3.566 2.574-1.56 1.025-3.072 2.111-4.62 3.155-2.36 1.652-4.54 3.484-6.836 5.232-5.01 4.161-9.788 8.639-14.046 13.57-3.756 3.999-6.921 8.514-9.779 13.187-1.013 1.677-2.128 3.289-3.184 4.937-.745 1.466-1.593 2.866-2.354 4.351-1.783 2.943-2.908 6.232-3.877 9.523a13.175 13.175 0 0 0-.314 2.515c.29-.248.581-.493.882-.726l-.006.006Z"/><path fill="#000" d="M235.498 43.236c-.27-.31-.581-.608-.885-.916-.771-.86-2.19-1.869-2.976-2.18-1.46-.813-3.091-1.167-4.753-1.242-1.27-.065-2.525-.236-3.82-.083-.55-.022-1.212.493-1.532-.212-.422-1.325 2.532-1.04 3.312-1.086 1.478.133 3 .13 4.485.44 1.994.479 3.908 1.423 5.455 2.804.68.625 1.332 1.29 1.929 1.994.217.26.136.674-.125.87-.416.32-.851-.029-1.093-.389h.003ZM238.073 45.898c.338 0 .621.285.618.624a.627.627 0 0 1-.624.617.625.625 0 0 1-.619-.624c0-.338.286-.617.625-.617ZM240.076 105.712a.63.63 0 0 1 .401.783c.056 3.216.034 6.418.093 9.657-.049.813-1.255.754-1.242-.056-.084-3.192-.01-6.155-.1-9.254-.071-.549.14-1.326.848-1.13ZM240.154 118.62c.339 0 .609.323.593.649-.015.351-.31.593-.649.593-.338 0-.609-.323-.593-.649.015-.35.311-.593.649-.593ZM259.276 97.744a.631.631 0 0 1 .721-.434c1.211-.494 2.777-.842 4.097-1.292 2.202-.72 4.488-1.503 6.809-1.935a17.575 17.575 0 0 1 3.491-.341c.671.053 2.069-.398 2.144.611-.007.33-.299.628-.637.61-2.786-.1-5.582.353-8.247 1.235-1.762.503-3.433 1.084-5.185 1.649-.667.199-1.363.295-1.991.615-.525.285-1.391-.019-1.205-.715l.003-.003ZM278.995 93.624c.338 0 .615.304.605.636a.627.627 0 0 1-.636.606c-.339 0-.615-.305-.606-.637a.627.627 0 0 1 .637-.605ZM269.549 70.403c.09-.556.208-1.105.311-1.658a.63.63 0 0 1 .723-.5.63.63 0 0 1 .5.724c-.195.953-.357 1.91-.5 2.872-.503 2.661-1.025 5.307-1.245 8.011.09.416-.069.904-.55.941-1.18-.006-.547-2.05-.5-2.782.304-2.559.857-5.068 1.264-7.608h-.003ZM271.947 65.209c.338 0 .605.325.587.652-.019.35-.314.587-.653.587-.338 0-.605-.327-.587-.653.019-.35.314-.587.653-.587ZM270.567 120.872c1.855-1.416 3.576-2.988 5.256-4.605.419-.401.867-1.016 1.519-.904.705.137.634 1.177-.068 1.233-1.979 1.9-4.004 3.816-6.213 5.459-2.771 2.037-5.653 3.921-8.278 6.145-.627.534-1.423-.404-.82-.935 2.727-2.313 5.731-4.263 8.604-6.39v-.003ZM258.779 129.482c.339 0 .603.332.584.655-.018.351-.317.584-.655.584-.339 0-.603-.332-.584-.655.019-.351.317-.584.655-.584ZM180.157 10.626c-.612.075-1.227.118-1.845.112-1.737.046-3.473-.022-5.21.065-.611.068-1.245-.416-.848-1.034a.613.613 0 0 1 .721-.208c1.671-.062 3.342-.04 5.014-.06.478-.008.956-.002 1.435-.046.469-.074 1.152-.167 1.248.46.05.32-.18.677-.518.71h.003ZM183.03 10.626a.63.63 0 0 1-.637-.606c-.009-.332.268-.636.606-.636.339 0 .628.26.637.605.009.332-.267.637-.606.637ZM126.847 28.217c-.009-.575-.028-1.162.177-1.708.118-.317.513-.46.814-.332.556.245.314.773.258 1.226.09 4.434-.739 10.455 4.796 11.793.488.122 1.239.28 1.069.948a.628.628 0 0 1-.765.434c-1.161-.313-2.345-.683-3.323-1.41-2.212-1.707-2.945-4.514-2.942-7.197-.081-1.252-.071-2.503-.084-3.754ZM136.688 41.087a.621.621 0 1 1 0-1.241.621.621 0 0 1 0 1.242ZM116.115 36.802c.006 1.506.062 3.23-.715 4.605-.388.718-1.469.14-1.102-.574.313-.515.413-1.118.506-1.705.137-1.68.068-3.4.134-5.095.167-1.578.164-3.155.012-4.736-.09-.413.202-.866.655-.826.631.062.578.69.616 1.165.146 1.53.09 3.058-.047 4.586.003.86-.037 1.717-.059 2.577v.003ZM113.124 43.792c-.339 0-.634-.233-.656-.587-.018-.323.249-.655.588-.655.338 0 .633.233.655.587.019.323-.249.655-.587.655ZM97.654 24.76c-.22.212-.416.448-.633.659a37.49 37.49 0 0 0-4.228 4.17c-.556.593-1.454-.239-.913-.841 1.044-1.118 2.013-2.301 3.2-3.273.736-.547 1.304-1.304 2.025-1.83.335-.192.795-.151.972.234a.639.639 0 0 1-.42.878l-.002.004ZM202.78 16.075c.835.634 1.323 1.634 1.491 2.652.192.913.242 1.838.344 2.758a.63.63 0 0 1-.375.823c-1.14.22-.867-1.367-.979-2.069-.183-1.009-.214-2.167-.975-2.94-.423-.575-1.926-.894-1.302-1.798.584-.593 1.289.252 1.793.577l.003-.003ZM153.117 65.174c-1.342.668-2.6 1.49-3.899 2.233-.742.394-1.506.748-2.18 1.26-.227.159-.479.382-.767.382-.339 0-.634-.248-.647-.596a.636.636 0 0 1 .435-.62 15.845 15.845 0 0 1 2.433-1.439c1.068-.624 2.13-1.25 3.196-1.878.624-.317 1.246-.646 1.867-.975.301-.155.686 0 .826.298.32.804-.767 1.003-1.264 1.338v-.003ZM156.207 63.423a.632.632 0 0 1-.646-.596c-.012-.326.258-.646.597-.646.338 0 .63.248.646.596.012.326-.258.646-.597.646ZM178.644 63.615c1.792-.385 3.641-.338 5.458-.524.618-.04 1.239-.056 1.857-.087a.627.627 0 0 1 .646.596c-.043.997-1.441.571-2.106.711-2.059.155-4.118.242-6.159.574-.336.025-.634-.263-.646-.596-.025-.53.512-.686.947-.674h.003ZM222.821 63.497c.308.14.479.482.348.808-.121.304-.5.487-.804.347-1.088-.49-2.19-.95-3.274-1.447-1.616-.676-3.243-1.431-4.983-1.714-1.258.038-1.04-1.739.093-1.235 1.858.264 3.591 1.062 5.309 1.776 1.1.503 2.212.965 3.314 1.465h-.003ZM225.378 64.572c.338 0 .624.276.627.615a.629.629 0 0 1-.615.627.629.629 0 0 1-.627-.615c0-.335.276-.627.615-.627ZM153.732 103.818c-.714-.354-1.469-.63-2.14-1.068a72.161 72.161 0 0 1-2.013-1.233c-.699-.397-1.46-.699-2.066-1.239-.394-.363-.077-1.08.448-1.056.164 0 .298.066.419.168.36.31.842.528 1.264.751.743.373 1.41.864 2.137 1.264.991.643 2.072 1.121 3.169 1.559.317.121.463.503.335.81-.31.687-1.059.24-1.547.041l-.006.003ZM157.22 105.159a.629.629 0 0 1-.618-.624c0-.338.286-.618.625-.618a.63.63 0 0 1 .618.624.627.627 0 0 1-.625.618ZM178.128 116.881a25.676 25.676 0 0 1-4.367-.764c-.562-.102-1.112-.26-1.671-.378-.646-.056-1.855-.41-1.314-1.264a.63.63 0 0 1 .873-.106c.074.044.17.047.254.072 1.513.273 2.985.751 4.514.965.904.171 1.82.252 2.739.323.5.031 1.283-.04 1.296.662-.072 1.046-1.631.459-2.318.49h-.006ZM182.589 116.555a.625.625 0 0 1 .699-.531c.401.053.811-.003 1.215.038 1.158.099 2.323.028 3.485.012.497-.068 1.14-.186 1.245.478a.627.627 0 0 1-.54.693c-.538.084-1.084.087-1.628.087-1.056.062-2.106-.01-3.159-.041-.534.028-1.395.016-1.317-.733v-.003ZM222.321 104.569c-1.581.929-3.351 1.522-5.1 2.047-.805.108-.997-1.081-.193-1.227a37.511 37.511 0 0 0 3.715-1.36c.519-.223 1.308-1.025 1.786-.31.168.276.09.692-.211.854l.003-.004ZM194.566 77.927a7.887 7.887 0 0 0-.347.205c-.196.121-.401.227-.603.335a2.1 2.1 0 0 0-.55.426c-.36.388-.634.863-.811 1.36-.09.251-.146.506-.177.773-.028.252-.003.513.022.767.022.236.059.47.115.699v-.01.022c0 .006 0 .01.003.016v.006-.003a5.2 5.2 0 0 0 .28.785c.108.233.245.46.388.671.342.513.805.972 1.392 1.19a5.75 5.75 0 0 0 1.646.347h.115c.264 0 .534-.043.789-.093.267-.05.528-.124.783-.214.264-.093.525-.196.77-.335.267-.153.5-.345.699-.578a2.16 2.16 0 0 0 .413-.683c.084-.245.121-.497.146-.752 3.519 6.776-1.376 15.11-9.437 15.632-.323.028-.643.04-.96.04-6.951 0-12.835-6.412-11.014-13.483 1.891-7.244 10.191-10.104 16.335-7.129l.003.006Z"/><path fill="#000" d="M192.215 82.517V82.504c0 .007 0 .01.003.017l-.003-.004ZM179.585 141.611c2.33-.04 4.653.118 6.983.093 1.013 0 2.025.006 3.035 0 .338 0 .621.283.621.621a.629.629 0 0 1-.621.621c-2.982.056-5.964-.068-8.943-.093-.593-.025-1.258.121-1.805-.168-.711-.555-.099-1.412.73-1.074ZM192.414 142.738a.621.621 0 1 1 0-1.242.621.621 0 0 1 0 1.242ZM137.272 159.149c.63.127 1.28.074 1.919.087.746-.009 1.488.025 2.231.043a.63.63 0 0 1 .621.621c0 .333-.283.631-.621.621a51.464 51.464 0 0 0-2.293-.046c-.72-.096-2.612.323-2.559-.798.043-.32.366-.596.699-.531l.003.003ZM144.398 160.338c-.426.742-1.706-.037-1.28-.761.422-.742 1.705.038 1.28.761ZM116.516 116.667c2.811.717 2.1 5.018 2.23 7.235-.019.817-1.224.814-1.242 0-.063-1.636.146-3.335-.302-4.928-.164-.406-.388-.959-.854-1.074-.804-.124-.643-1.317.168-1.23v-.003ZM118.327 127.246a.621.621 0 1 1-.002-1.242.621.621 0 0 1 .002 1.242ZM95.909 111.171a.628.628 0 0 1 .53.699c-.052.413-.484.605-.853.639-.836.131-1.678.255-2.48.528-1.714.643-2.375 1.562-2.348 3.413a.627.627 0 0 1-.62.621.62.62 0 0 1-.622-.621c.025-.954.137-1.96.65-2.783 1.285-1.847 3.711-2.127 5.74-2.496h.003ZM90.159 119.949a.621.621 0 1 1 0-1.242.621.621 0 0 1 0 1.242ZM94.937 142.912c.018-.817 1.224-.814 1.242 0 .01 1.742-.018 3.484 0 5.226-.015.817-1.22.813-1.242 0-.022-1.739.006-3.484 0-5.226ZM95.614 151.557a.621.621 0 1 1 0-1.242.621.621 0 0 1 0 1.242ZM116.764 160.788a.621.621 0 1 1 0-1.242.621.621 0 0 1 0 1.242ZM77.868 140.44c-.069 2.093.056 4.189.05 6.282.012 2.261.151 4.515.16 6.775.023.528.318 1.392-.447 1.519-.577.074-.751-.503-.751-.969-.112-1.168-.037-2.341-.096-3.512-.128-3.416-.202-6.847-.147-10.262.125-.811 1.318-.637 1.23.167ZM77.843 159.158a.621.621 0 1 1 0-1.242.621.621 0 0 1 0 1.242ZM114.661 175.771c1.237-.016 2.476-.112 3.716-.053 1.211 0 2.419.078 3.628.137 1.745-.028 3.488-.159 5.237-.081.82-.019.876 1.183.071 1.239-.81 0-1.584-.047-2.404-.016-2.525.196-5.038-.043-7.564-.056-.736-.006-1.596.041-2.367.072-.456.037-1.071-.034-1.109-.606-.031-.425.401-.742.799-.636h-.007ZM131.199 175.615c.339 0 .637.233.656.584.018.323-.246.655-.584.655-.339 0-.637-.232-.656-.583-.019-.323.246-.656.584-.656ZM122.971 94.267c-.032-2.177.583-5.574-1.774-6.739-.575-.17-1.426-.416-1.109-1.195.177-.385.733-.45 1.016-.146.161.056.329.1.49.161 3.113 1.308 2.669 5.23 2.616 8.012-.09.816-1.289.71-1.239-.097v.004ZM123.747 96.946c-.339 0-.634-.233-.655-.587-.019-.323.248-.655.587-.655.338 0 .633.233.655.587.019.323-.248.655-.587.655ZM130.858 74.43c-.42-.027-.615-.43-.569-.813-.046-1.077.016-2.291-.087-3.384-.031-.814 1.171-.882 1.24-.069.105 1.255.049 2.397.083 3.695-.006.339-.344.597-.667.572ZM131.087 76.257c-.338 0-.633-.233-.655-.587-.019-.323.248-.656.587-.656.339 0 .634.233.655.587.019.323-.248.656-.587.656ZM108.7 62.032c-.646-.006-1.261-.162-1.888-.295-.696-.137-1.398-.047-2.103-.05-.612-.018-1.774.267-1.771-.661a.63.63 0 0 1 .668-.572c1.497.025 3.004-.177 4.461.286.602.106 1.758-.152 1.748.758-.052.59-.655.618-1.115.53v.004ZM95.204 85.317a.623.623 0 0 1 .754.137c.218.249.202.658-.059.876-.584.419-1.394.136-2.028.462-.537.243-.988.63-1.45.985-.172.14-.373.23-.55.354-.292.273-.473.658-.6 1.03l.006-.021c-.202.798-1.37.537-1.214-.258.245-.956.866-1.71 1.724-2.183.472-.363.994-.798 1.624-1.059.566-.245 1.184-.285 1.793-.326v.003ZM90.96 91.897c-.36.848-1.558.246-1.114-.546.341-.848 1.562-.249 1.115.546ZM77.01 69.413a.63.63 0 0 1 .656.587c.062.913.096 1.832.065 2.748.084 1.288.022 2.62.062 3.918.012.519.158 1.354-.572 1.413-.667.003-.686-.614-.658-1.124-.019-.509-.053-1.021-.034-1.53a85.718 85.718 0 0 0-.106-5.354.626.626 0 0 1 .587-.655v-.003ZM77.448 80.275c-.338 0-.633-.233-.655-.587-.019-.323.248-.656.587-.656.338 0 .633.233.655.587.019.323-.248.656-.587.656ZM71.82 95.524c.338 0 .633.233.655.587.019.323-.248.655-.587.655-.339 0-.634-.233-.655-.587-.019-.323.248-.655.587-.655ZM59.268 116.409c.363-1.9.177-3.844.037-5.75-.01-.733 1.08-.876 1.227-.122-.016.671.146 1.326.177 1.997a20.648 20.648 0 0 1-.267 4.419c-.047.335-.333.596-.674.562-.6-.081-.621-.627-.5-1.106Z"/><path fill="#000" d="M59.299 110.677v-.062c0 .013 0 .028.003.043v.056c0-.012 0-.025-.003-.037ZM59.42 118.897c.338 0 .633.245.649.593.015.326-.255.649-.594.649-.338 0-.633-.246-.649-.593-.015-.326.255-.649.593-.649ZM43.621 130.917c.323-.239.63-.494.926-.764.314-.289.662-.618 1.121-.547.532.084.662.864.205 1.131-.686.378-1.199 1.037-1.882 1.443-1.38 1.038-2.485 2.441-2.991 4.115-.106.323-.488.481-.796.369-1.022-.394.286-2.276.615-2.887.718-1.14 1.7-2.09 2.802-2.86ZM28.6 114.195c.182-.17.397-.304.63-.397.764-.279 1.196.863.438 1.164-2.457 1.929-4.666 4.189-6.728 6.537-.55.612-1.463-.174-.95-.798 2.021-2.348 4.242-4.503 6.61-6.502v-.004ZM20.647 122.707c.32-.112.68.043.799.363.183.503-.255.82-.693.916a.625.625 0 0 1-.799-.363c-.186-.491.261-.829.693-.916ZM32.809 66.236c-.827-.792-3.402-3.791-3.023-4.894.242-.77 1.386-.453 1.2.327.655 1.332 1.527 2.508 2.587 3.574.301.307.565.645.928.882.302.17.423.574.233.872-.624.823-1.463-.292-1.929-.76h.004ZM36.629 68.69a.625.625 0 0 1-.609-.634.627.627 0 0 1 .634-.609c.338 0 .615.298.609.634a.627.627 0 0 1-.634.608ZM60.156 61.805c-1.593-.419-3.23-.913-4.606-1.835-.616-.537.149-1.466.785-.963.684.46 1.507.718 2.262 1.06.624.214 1.267.363 1.9.543a.628.628 0 0 1 .426.77.63.63 0 0 1-.767.425ZM54.127 58.604a.625.625 0 0 1-.61-.634.627.627 0 0 1 .634-.608c.339 0 .615.298.61.633a.627.627 0 0 1-.635.609ZM13.114 45.863c-1.21-.35-2.503-.63-3.494-1.456-.78-.488-4.09-5.239-2.29-5.515.535-.05.68.42.752.848.401 1.14 1.032 2.239 1.818 3.189.62.81 1.683 1.236 2.655 1.48.532.187 1.52.224 1.33 1.026a.628.628 0 0 1-.77.425v.003ZM39.636 83.874c.273-.103.624.009.764.27.31.233.634.45.947.68a51.164 51.164 0 0 0 2.308 1.487.626.626 0 0 1 .205.854.625.625 0 0 1-.854.205 43.3 43.3 0 0 1-2.18-1.397c-.504-.429-1.24-.693-1.55-1.295a.627.627 0 0 1 .357-.801l.003-.003Z"/></g><defs><clipPath id="a"><path fill="#fff" d="M303 0H0v180h303z"/></clipPath></defs></svg>