<svg xmlns="http://www.w3.org/2000/svg" width="202" height="308" fill="none"><g clip-path="url(#a)"><path fill="#CE6AE2" d="M21.017 135.576c3.17-2.63 6.555-5.041 9.127-8.303 4.748-5.977 5.439-14.308.602-20.439-1.35-1.731-2.753-3.188-3.643-5.163-.789-1.788-1.35-3.698-1.525-5.649-.335-3.063.991-5.94 2.382-8.586.449-.907 1.064-1.752 1.266-2.756.332-2.266-1.25-4.245-2.948-5.548-3.826-2.747-8.468-4.439-11.594-8.084a1.737 1.737 0 0 1-.498-.174c-.97-.017-1.662.853-2.13 1.61-.021.037-.05.065-.074.097v65.707c.195.473.162 1.169.328 1.61.384 1.469 1.593 1.878 2.96 1.631 1.683-2.197 3.696-4.172 5.75-5.957l-.003.004Zm2.73-48.007c.234-.939.667-1.813.933-2.735.073-1.093-.23-2.278-.966-3.112-1.007-1.109-2.321-1.829-3.563-2.622-.732-.595-3.482-1.55-2.665-2.72.251-.343.785-.456 1.128-.181.623.502 1.323.894 2.01 1.303 2.892 1.715 5.953 3.552 5.678 7.384-.141 1.065-.748 2.003-.983 3.052-.27 1.023-1.795.671-1.573-.373v.004Zm-.854 2.614a.82.82 0 0 1 .789-.83c.432-.011.829.349.829.79a.82.82 0 0 1-.789.83c-.433.011-.829-.349-.829-.79Zm3.882 35.597c-.76-.882.599-1.635.995-2.355.995-1.182 1.78-2.359 2.354-3.759a9.907 9.907 0 0 0 .582-5.831c-.554-1.279 1.33-1.736 1.585-.389.263 1.51.336 3.076.02 4.581-.448 2.157-1.476 4.135-2.83 5.855-.712.639-1.57 2.829-2.71 1.898h.004Zm-2.042 1.028s0 .012-.004.016c.101-1.125 1.73-1.012 1.626.113-.045 1.319-1.901 1.166-1.618-.133l-.004.004Z"/><path fill="#F2B2FF" d="m200.932 299.559.101.012h.057a1.037 1.037 0 0 1-.352-.081c.033.012.065.028.093.041.037.008.069.02.101.028ZM165.798 228.119a.807.807 0 0 0 .263-.146l.049-.049a.884.884 0 0 1-.397.215c.029-.008.065-.016.085-.02ZM141.915 211.88s.016-.032.025-.045c-.021 0-.037-.008-.058-.008l.033.058v-.005Z"/><path fill="#CE6AE2" d="M185.5 62.25c-.202.39-.133.858-.343 1.235-.114 1.42-.457 2.816-1.096 4.095-.914 2.023-2.503 3.56-4.137 5.013-2.115 2.016-4.283 4.25-5.848 6.677-3.009 4.484-3.704 9.161-1.334 14.102 4.743 8.38 8.031 11.727 2.491 21.078-1.921 3.387-3.632 7.105-3.373 11.063.125 3.488 1.456 6.915 3.361 9.788 4.355 6.119 12.03 11.245 12.233 19.306.04.065.076.133.129.186.174.178.437.202.671.194.566.029.947-.36 1.359-.655v-89.33a8.913 8.913 0 0 0-.21-.627c-.465-1.327-1.699-3.407-3.357-2.646-.258.105-.497.287-.554.522h.008Zm-4.399 74.844a.82.82 0 0 1-.801.817c-.437 0-.817-.36-.817-.801a.82.82 0 0 1 .801-.817c.436 0 .817.36.817.801Zm-5.237-10.226c.44 1.85 1.007 3.65 2.034 5.257.259.465.485.951.784 1.396.417.405.732 1.072.178 1.513-1.302.939-2.289-2.241-2.891-3.043-1.044-1.873-1.561-4.006-1.917-6.106-.073-.433.263-.854.691-.914 1.06-.101.947 1.193 1.125 1.902l-.004-.005Z"/><path fill="#fff" d="M45.543 113.665c2.09 28.22 30.12 45.871 56.83 43.823 26.124-1.477 50.574-21.976 48.77-49.492v.008c-1.411-22.013-20.139-38.781-41.006-42.787-14.934-3.01-31.13-.182-43.784 8.356-13.24 8.74-22.031 24.04-20.81 40.096v-.004ZM101.835 73.9c10.017.26 20.163 2.655 28.571 8.243 6.215 4.046 11.452 10.812 11.452 18.383 0 .813-.06 1.635-.186 2.464-2.855 16.732-24.243 23.854-39.153 24.206-7.506.211-15.218-.752-22.319-3.31.166-.125.323-.263.473-.408.259-.247.49-.506.692-.806.182-.267.34-.55.477-.845.291-.624.465-1.279.635-1.939.085-.336.165-.671.202-1.019.028-.235.044-.47.044-.709 0-.113-.004-.222-.012-.335a4.782 4.782 0 0 0-.186-1.093 14.949 14.949 0 0 0-.307-.906c-.243-.644-.481-1.299-.857-1.878-.4-.619-.971-1.092-1.59-1.481-.562-.348-1.172-.583-1.8-.793-.36-.121-.723-.235-1.103-.279-.32-.037-.647-.037-.97-.037h-.106c-.481.008-.962.029-1.444.081-.521.061-1.023.211-1.516.373-.493.161-.999.34-1.448.611-.174.105-.34.21-.497.344-.122.105-.239.222-.356.339-.158.162-.303.332-.453.502-.445.506-.906 1.004-1.298 1.554a4.308 4.308 0 0 0-.542.947 4.028 4.028 0 0 0-.267 1.141c-6.058-4.799-10.458-12.406-8.703-20.273 4.145-17.145 26.974-23.59 42.567-23.085v.008Z"/><path fill="#CE6AE2" d="M143.698 213.548c-.182.352-.392.7-.497 1.088-.065.267-.142.587-.279.85.117 1.529.073 3.075.388 4.576.744 2.978 2.046 6.608 5.379 7.389 3.481.898 7.157.146 10.704.644 3.749.509 8.144 2.589 9.908 6.085 2.171 4.642 2.871 10.837 8.003 13.257 2.398.946 4.594 1.456 6.547 2.274.016.004.032.012.048.02l.393.17c1.512.518 2.628.133 3.894-.85.36-.336.59-.773.89-1.153-.073-.708-.15-1.42-.239-2.133-1.003-4.2-2.422-8.295-3.951-12.321-2.584-5.75-7.328-10.096-12.476-13.556-3.764-2.711-7.732-5.167-12.16-6.628-3.057-1.104-6.252-1.711-9.475-2.08a84.155 84.155 0 0 0-4.367-.493c-1.234.542-2.107 1.695-2.698 2.869l-.012-.008Zm29.461 21.66c0 .441-.316.826-.773.846-.424.02-.845-.332-.845-.773s.315-.825.772-.846c.425-.02.846.332.846.773Zm-6.58-8.425a10.593 10.593 0 0 1 4.254 3.731c.384.717 1.614 1.716.643 2.448-.364.231-.889.13-1.116-.246-.4-.624-.821-1.231-1.237-1.838a9.957 9.957 0 0 0-2.657-2.326c-.267-.146-.53-.304-.821-.397a.776.776 0 0 1-.639-.194c-.315-.283-.376-.83-.061-1.141.461-.461 1.112-.267 1.638-.032l-.004-.005ZM138.304 296.059c.521-1.368.412-2.946.396-4.354a31.705 31.705 0 0 1-.675-4.273c-.126-1.635-.211-3.274-.55-4.884-.259-1.635-.368-3.1-.745-4.674-.525-1.97-1.593-3.888-2.802-5.491-4.4-6.086-9.896-4.73-15.395-8.53-2.88-2.039-4.602-5.378-5.351-8.768-.549-2.206-.497-4.48-.695-6.726-.194-1.392-.506-2.755-.861-4.091-1.303-4.544-4.044-10.816-9.847-9.246-4.117 1.056-6.45 5.159-7.591 8.959-.716 3.363-1.52 6.701-2.803 9.898-1.6 4.965-4.068 7.041-9.01 8.42-4.5 1.4-6.729 3.371-8.399 7.838-1.8 6.531-.748 13.414-2.094 20.006-.106.401-.199.793-.292 1.178.07.246-.06.518.085.744.752 1.635 2.924 1.097 4.347.656a43.047 43.047 0 0 0 3.507-1.999c2.507-1.716 4.966-3.533 7.085-5.726 3.215-3.209 5.952-6.863 8.92-10.286 1.392-1.752 3.523-3.249 5.856-2.796 1.873.461 3.353 1.873 4.756 3.091 3.332 3.08 5.787 6.908 8.545 10.481 3.146 3.985 6.818 7.753 11.44 9.986 3.138 1.882 6.81 2.42 10.418 2.295.808-.292 1.463-.862 1.751-1.708h.004ZM86.99 264.537c-.607-.959.716-1.404 1.282-1.914 2.483-2.092 3.587-3.334 4.4-6.515.465-1.189.525-2.48.922-3.682.453-.959 1.888-.316 1.476.664-.494 2.395-1.06 4.851-2.225 7.032-.736 1.275-1.888 2.222-2.948 3.217-.687.514-2.127 2.222-2.911 1.198h.004Zm-3.94 1.926c0-.441.393-.801.826-.793a.817.817 0 0 1 .792.826c0 .441-.392.801-.825.793a.817.817 0 0 1-.792-.826Zm36.878 22.021c-1.052-.728-1.957-1.623-2.807-2.578-.926-1.027-1.69-2.197-2.483-3.326-.186-.166-.388-.303-.445-.566-.194-.652.603-1.283 1.185-.903.449.251.833.862 1.056 1.239.55.805 1.136 1.59 1.763 2.338.53.595 1.084 1.174 1.674 1.708.55.514 1.816 1.016 1.189 1.93a.813.813 0 0 1-1.132.154v.004Zm3.065 2.137c0-.442.376-.81.813-.806.441 0 .805.373.805.814a.817.817 0 0 1-.813.805.817.817 0 0 1-.805-.813ZM15.957 260.766c.033-.016.065-.033.101-.049 1.606-.797 3.361-1.274 4.918-2.181 3.498-1.853 6.45-5.135 6.899-9.189.174-1.765.17-3.557.61-5.285.417-1.651 1.12-3.225 1.982-4.69 3.583-6.11 10.094-7.486 15.29-11.528 3.684-2.784 4.946-5.71 5.82-9.546.008-.097.024-.198.044-.291.024-.425-.125-.83-.242-1.23-.51-1.558-1.933-2.732-3.426-3.29a.82.82 0 0 1-.182-.113c-4.626 1.161-9.14 2.771-13.28 5.155-2.337 1.485-4.578 3.116-6.758 4.823-5.69 4.37-10.207 10.12-12.81 16.825-1.174 2.614-1.885 5.257-2.597 8.008-.125.668-.311 1.352-.352 2.036 0 .016.004.028.004.04v.514c.004.061.008.121.016.182a.705.705 0 0 1-.016.263v8.834s.012.02.016.032c.502.413 1.165.611 1.8.708.594.057 1.245.113 1.82-.032a.884.884 0 0 1 .347 0l-.004.004Z"/><path fill="#F2B2FF" d="M84.195 17.153c-2.673 1.712-5.346 3.423-8.023 5.13a376986.062 376986.062 0 0 0-56.526 36.16.859.859 0 0 1-.13.105c-1.682.955-3.081 2.307-4.517 3.59-.259.287-.502.586-.736.894v.089c-.04.38-.307.683-.404 1.052-.72 4.6 3.752 7.708 7.133 9.877 3.353 2.06 7.554 3.646 9.305 7.434.967 1.958.663 4.204-.534 5.984-1.395 2.65-2.952 5.495-2.563 8.595a16.54 16.54 0 0 0 1.783 5.75c.76 1.319 1.78 2.448 2.73 3.63 2.685 3.374 4.303 7.655 3.95 12.001-.396 6.475-4.245 11.735-9.106 15.733-2.528 1.971-5.1 4.01-7.34 6.288-2.374 2.388-4.513 5.115-5.658 8.312a13.198 13.198 0 0 0-.74 2.597c-.012.178-.024.356-.032.534-.142 2.542-.384 5.059.352 7.507 1.035 1.096 2.16 1.821 3.445 2.533.344.251.926.506 1.343.837l5.35 3.302c8.537 5.277 17.078 10.553 25.618 15.826 8.764 5.41 17.527 10.828 26.29 16.238 1.367.846 2.742 1.684 4.109 2.538a.77.77 0 0 1 .34.068c.412.211.776.526 1.148.789.886.478 1.792.919 2.475 1.672.882.821 1.448 1.926 1.844 3.038.417.955.647 2.052.36 3.076-.348 1.133-1.367 1.97-2.402 2.468-1.719.785-3.636.465-5.46.603-3.773.117-7.578.069-11.323.036-2.794-.072-5.584-.145-8.362.162-.522.045-1.044.11-1.57.178a.885.885 0 0 1-.178.174c-2.15 1.38-2.507 3.99-2.96 6.378a1.922 1.922 0 0 1-.08.408c-.09.449-.186.886-.304 1.303-1.698 7.514-8.274 10.82-14.465 14.143-3.462 1.897-6.353 4.859-7.76 8.574-.894 2.1-.927 4.443-1.109 6.624-.53 5.56-5.087 9.784-10.09 11.678-1.354.526-2.692 1.093-3.974 1.772a31.179 31.179 0 0 0-2.678 2.149c-.279.239-.5.635-.772.907v24.663c.121.356.037.809.11 1.181.19 1.012.404 1.841.812 2.748a6.8 6.8 0 0 0 2.184 2.484c.404.219 1.076.462 1.484.822h34.467c.724-.328 2.062-.097 2.717-.166 2.1-.033 4.335-.178 6.366-.287a44.175 44.175 0 0 0 4.545-.676c.226-.166.517-.279.784-.34.615-.255 1.112-.692 1.638-1.085 1.08-.667 1.889-1.655 2.511-2.747.397-1.319.737-2.655.947-4.018 1.379-8.032-.882-17.546 4.998-24.158 2.358-2.561 5.876-3.322 9.018-4.491 2.281-.866 3.927-2.841 4.78-5.066.87-2.262 1.703-4.561 2.325-6.9.425-1.691.68-3.427 1.206-5.09 1.492-4.471 4.727-9.015 9.75-9.562 7.23-.72 10.037 7.608 11.222 13.345.582 2.813.266 5.88 1.035 8.64.954 4.091 3.623 7.53 7.635 8.946 3.13 1.324 6.693 1.736 9.406 3.921 3.203 2.501 5.565 6.009 6.515 9.947.34 1.521.42 3.099.708 4.621.4 1.885.38 3.832.622 5.733.118.996.291 1.987.514 2.967a.772.772 0 0 1 .032.145 26.374 26.374 0 0 0 1.42 4.326 6.979 6.979 0 0 0 1.722 1.711c.15.118.324.203.494.284h41.277c.291-.105.57-.243.837-.401 1.969-.914 3.299-2.99 3.514-5.115.04-.311-.045-.651.048-.934v-31.818a.833.833 0 0 1-.06-.437c.016-.064.016-.125.028-.19-.146-.239-.239-.546-.315-.829-.251-.745-.595-1.469-.959-2.161l.032.069c-1.188-2.465-2.842-3.739-4.686-4.593-.239-.069-.482-.154-.668-.291-3.114-1.255-6.664-1.583-9.426-4.367-3.434-3.455-3.899-8.643-6.228-12.742-1.824-2.254-4.622-3.601-7.417-4.2-1.706-.239-3.441-.299-5.164-.283-7.982.323-11.234-1.384-13.094-9.473-.667-4.079.562-7.211-3.627-9.821h-.013a.81.81 0 0 1-.222-.008 817.4 817.4 0 0 0-3.13-.089c-3.607-.036-7.231.032-10.834-.162-1.892-.158-3.955.154-5.706-.72-1.152-.66-1.371-2.226-.659-3.294 1.023-1.829 3.094-2.666 4.78-3.763a1.32 1.32 0 0 1 .19-.085c.02-.016.04-.036.065-.049 16.697-10.848 33.383-21.709 50.08-32.557l8.614-5.601c.162-.157.356-.279.53-.421.493-.501.905-.934 1.37-1.424 1.068-1.141 1.832-2.521 2.33-3.994l.024-.068c.291-1.178.425-2.4.388-3.61-.497-6.867-6.474-11.281-10.494-16.242-3.182-3.796-5.257-8.749-5.115-13.734.08-3.241 1.164-6.341 2.745-9.137 1.359-2.719 3.183-5.37 3.527-8.457.259-7.7-7.231-11.427-6.802-20.01.238-6.037 4.679-11.127 8.832-15.117 1.816-1.61 3.607-3.335 4.46-5.67.053-.186.105-.372.154-.554a1.178 1.178 0 0 1 .044-.675c.017-.737-.097-1.482-.052-2.226-.097-1.655-.785-3.245-1.658-4.637-.659-.806-1.363-1.522-2.103-2.242-.392-.332-.736-.733-1.169-1.016a.98.98 0 0 1-.517-.4c-1.343-.77-2.686-1.538-4.032-2.307-12.136-6.931-24.28-13.863-36.416-20.795-8.545-4.872-17.078-9.76-25.627-14.631-1.484-.85-2.972-1.696-4.456-2.546-.267-.065-.542-.222-.781-.38-1.702-.822-3.441-1.594-5.342-1.797-2.191-.141-4.428-.085-6.583.38-3.656 1.09-6.996 3.043-10.268 4.962l.008.028ZM57.198 296.022c-.425.021-.845-.331-.845-.772s.315-.826.772-.846c.425-.02.845.332.845.773s-.32.825-.772.845Zm12.055-9.594c-.291 2.121-.8 4.366-2.285 5.993-1.27 1.384-2.839 2.695-4.76 2.885-.788.065-1.9.85-2.3-.206-.268-1.372 1.807-1.23 2.676-1.501 1.61-.506 2.86-1.769 3.81-3.088.712-1.323 1.084-2.735 1.217-4.192a.816.816 0 0 1 .396-1.072c.756-.34 1.298.493 1.242 1.177l.004.004Zm-37.504-30.316c-.032.538-.368 1.109-.983 1.012-.42-.065-.76-.49-.675-.923.004-1.295 1.707-1.38 1.662-.085l-.004-.004Zm5.176-17.27c.405.182.587.676.405 1.068-.239.474-.696.781-.987 1.218-.732 1.21-1.363 2.529-1.739 3.897-.473 2.128-.404 4.378-.978 6.466-.21.631-.32 1.485-.963 1.813-.63.271-1.35-.465-1.027-1.088 1.152-2.509.756-5.386 1.508-8.008.328-1.117 2.358-6.017 3.781-5.37v.004Zm149.91 52.903c0 .441-.315.826-.772.846-.425.02-.845-.328-.845-.773s.315-.825.772-.845c.425-.021.845.331.845.772Zm.615-12.082c-.441 3.043-.477 6.033-.421 9.06-.016.441-.449.777-.873.74-.615-.044-.809-.659-.732-1.189-.101-2.922.008-5.84.412-8.737-.113-.514.376-1.003.89-.955.534.037.849.587.724 1.085v-.004Zm-58.318-15.947c-.498.886-2.083.141-1.678-.81.44-1.064 2.26-.202 1.678.81Zm-6.826-3.634a18.71 18.71 0 0 0 1.916.724c.615.186 1.606.405 1.383 1.255-.109.408-.574.712-.99.57a43.858 43.858 0 0 1-3.191-1.145c-.95-.639-.085-1.902.886-1.404h-.004Zm21.206-30.231c-.489.955-2.046.19-1.561-.781.489-.955 2.046-.194 1.561.781Zm-3.757-10.444c-.121 1.712.409 3.358.971 4.949.198.51.384 1.032.635 1.521.356.429.509 1.101-.041 1.449-1.197.591-1.577-1.21-1.945-1.995-.667-1.793-1.338-3.67-1.237-5.608-.465-1.247 1.532-1.647 1.617-.316Zm-50.125-12.52c-.23.627-.13 1.279-.145 1.926-.23 1.765-1.436 3.383-2.977 4.245-1.605.955-3.486 1.202-5.305 1.436-1.877.134-3.773.264-5.646.033a.813.813 0 0 1-.938-.652c-.113-1.019.959-1.068 1.69-.894 1.683.134 3.418.012 5.088-.133 1.512-.231 3.073-.437 4.404-1.247.934-.55 1.706-1.541 1.997-2.573.17-.822-.064-1.684.251-2.489.263-1.028 1.796-.688 1.581.352v-.004Zm-.715-3.201c0 .441-.32.826-.773.846-.424.02-.845-.332-.845-.773s.32-.825.772-.845c.425-.021.846.331.846.772Zm34.883-6.753c0 .441-.384.801-.821.797a.82.82 0 0 1-.797-.821c0-.441.384-.802.821-.798a.82.82 0 0 1 .797.822Zm15.104-9.849c.21.376.077.898-.315 1.1-1.776.955-3.422 2.226-5.128 3.242-2.362 1.537-4.873 2.832-7.021 4.613-.4.222-.865.056-1.099-.316-.364-.647.262-1.242.78-1.55 3.065-2.084 6.317-3.925 9.382-5.997.817-.396 2.742-2.282 3.401-1.092ZM87.932 57.929c1.763-.838 3.858-.672 5.758-1.032 3.773-.332 7.587-.522 11.336.085.792.206 2.357-.024 2.289 1.162-.057.416-.478.776-.91.691-1.408-.238-2.823-.46-4.246-.566-3.264-.121-6.54-.024-9.738.42-1.214.22-2.548.134-3.672.64-.93.522-1.719-.858-.817-1.4Zm21.987.955c0-.441.368-.81.809-.81.44 0 .808.369.808.81 0 .441-.368.81-.808.81a.817.817 0 0 1-.809-.81Zm-45.54 95.46c-1.07-.457-2.183-1.226-3.089-1.882-1.431-.87-2.721-1.93-3.934-3.083-.696-.38-.389-1.526.412-1.501.663.048 1.027.728 1.529 1.088 1.605 1.392 3.397 2.582 5.233 3.65.65.405 2.066.583 1.682 1.639-.397.833-1.218.384-1.828.085l-.004.004Zm3.18 1.323c0-.441.367-.809.808-.809.441 0 .809.368.809.809a.817.817 0 0 1-.809.809.817.817 0 0 1-.809-.809Zm87.203-30.64c0 .441-.368.81-.808.81a.817.817 0 0 1-.809-.81c0-.441.368-.809.809-.809.44 0 .808.368.808.809Zm1.942-12.612c.622 1.25.283 2.755.266 4.103-.072 1.481-.594 2.869-1.023 4.269-.307 1.011-1.82.603-1.561-.429.785-2.149 1.193-4.407 1.027-6.701-.012-.15-.016-.3-.105-.425a.822.822 0 0 1 .287-1.109c.377-.218.894-.093 1.109.292Zm-3.947 1.29a.35.35 0 0 1 .008-.064l-.008.109v-.045c-2.835 35.35-42.502 53.312-73.876 42.359-18.808-6.159-34.385-23.195-35.016-43.504-1.092-25.136 19.734-45.09 43.5-49.144 31.778-6.11 67.256 15.623 65.392 50.293v-.004Zm24.482-44.834a.82.82 0 0 1-.801.817c-.437 0-.817-.36-.817-.801a.82.82 0 0 1 .801-.817c.437 0 .817.36.817.8Zm-3.527-14.418c.736.409 1.432.894 2.148 1.335 2.657 1.797 5.204 4.97 4.294 8.36-.19.81-.869 3.14-2.013 2.521a.822.822 0 0 1-.316-1.1c.777-1.23 1.153-2.809.696-4.225a9.678 9.678 0 0 0-3.688-4.297c-.635-.393-1.246-.83-1.905-1.182-.388-.206-.526-.72-.316-1.1a.817.817 0 0 1 1.1-.316v.004ZM73.58 28.964c0 .442-.397.802-.83.79a.82.82 0 0 1-.788-.83c0-.441.397-.801.83-.789a.82.82 0 0 1 .788.83Zm16.67-9.933.035-.025-.08.065.04-.04a297.42 297.42 0 0 0-13.05 8.485c-.877.587-1.791-.684-.934-1.323.4-.276.785-.57 1.189-.838 3.89-2.509 7.683-5.208 11.695-7.502.813-.797 1.933.441 1.1 1.177h.004Z"/><path fill="#000" d="M11.978 57.56v-3.386a.817.817 0 0 0-.809-.81c-1.25.114-.691 1.724-.809 2.566v3.253c0 .441.368.81.81.81 1.208-.093.711-1.619.808-2.432ZM11.978 45.434v-3.707a.817.817 0 0 0-.808-.81.817.817 0 0 0-.81.81v5.175c0 .441.369.81.81.81 1.156-.073.736-1.498.808-2.279ZM11.978 32.881V28.63a.817.817 0 0 0-.808-.81.817.817 0 0 0-.81.81v5.604c0 .441.369.81.81.81 1.116-.062.752-1.405.808-2.162ZM11.978 173.925v-3.945a.817.817 0 0 0-.809-.81c-.513 0-.869.474-.808.967v4.557c0 .441.368.809.808.809.874-.02.842-.931.81-1.578ZM11.978 187.047v-3.836a.817.817 0 0 0-.809-.809c-.606 0-.885.591-.808 1.129v3.779c0 .441.368.81.808.81.57.004.886-.551.81-1.073ZM11.978 200.045v-4.176a.817.817 0 0 0-.809-.81c-.525 0-.873.49-.808.988v4.176c0 .441.368.809.808.809.522 0 .874-.486.81-.987ZM11.978 212.746v-4.127a.817.817 0 0 0-.808-.809.817.817 0 0 0-.81.809v4.815c0 .441.369.81.81.81.84-.025.845-.854.808-1.498ZM11.978 225.772v-4.277a.817.817 0 0 0-.808-.809c-.862.028-.841.89-.81 1.537v4.241c0 .441.369.809.81.809.84-.024.845-.858.808-1.497v-.004ZM189.617 173.767v4.042c0 .441.368.81.809.81a.817.817 0 0 0 .809-.81v-4.042c-.024-1.064-1.594-1.06-1.618 0ZM189.617 186.169v4.634c0 .441.368.809.809.809a.817.817 0 0 0 .809-.809v-4.634c-.024-1.064-1.594-1.06-1.618 0ZM189.617 199.247v4.083c0 .441.368.81.809.81a.817.817 0 0 0 .809-.81v-4.083c-.024-1.064-1.594-1.06-1.618 0ZM189.617 211.788v4.358c0 .441.368.809.809.809a.82.82 0 0 0 .809-.826v-4.341c-.024-1.065-1.594-1.061-1.618 0ZM189.617 225.125v4.912c0 .441.368.809.809.809a.817.817 0 0 0 .809-.809v-4.912c-.024-1.065-1.594-1.061-1.618 0ZM189.617 50.876v5.022c0 .44.368.809.809.809.825-.016.853-.858.809-1.485v-4.35c-.024-1.064-1.594-1.06-1.618 0v.004ZM189.617 38.3v4.641c0 .441.368.81.809.81.595 0 .886-.583.809-1.113v-4.626a.817.817 0 0 0-.809-.809c-.586 0-.885.57-.809 1.1V38.3ZM189.617 25.355v5.216c0 .441.368.81.809.81.607 0 .886-.591.809-1.13v-5.296a.817.817 0 0 0-.809-.81c-.655 0-.886.656-.809 1.214v-.004ZM84.268 299.409c.441 0 .809-.368.809-.809 0-.51-.473-.87-.962-.809h-4.72c-1.063.024-1.06 1.594 0 1.618h4.873ZM97.314 299.409c.44 0 .809-.368.809-.809a.817.817 0 0 0-.81-.809h-5.511c-1.064.024-1.06 1.594 0 1.618h5.512ZM105.43 299.409h5.225c1.063-.024 1.059-1.594 0-1.618h-5.69a.817.817 0 0 0-.809.809c0 .692.704.882 1.274.809ZM190.038 162.898c-.077 1.23-.02 2.311.113 3.569.021.287.057.672.025 1.012-.021.959 1.366 1.133 1.589.21.113-.716-.045-1.453-.085-2.169-.105-.89-.061-1.707-.028-2.642-.021-.441-.368-.805-.821-.797-.429.008-.817.38-.797.821l.004-.004ZM186.5 11.293s.009 0 .013.005l-.034-.013.021.008Z"/><path fill="#000" d="M.792.275C.162.696.452 1.582.335 2.23.238 4.63.384 7.045.011 9.428c-.048.369.025.765.235 1.016.255.55 1.023.457 1.634.45h8.419c-.02 1.371-.137 2.735-.093 4.13.142 1.502.073 3.015.15 4.525v.76c0 .441.368.81.809.81a.818.818 0 0 0 .809-.838v-.259c.254-1.68.036-3.444.319-5.135.21-1.004.732-1.979 1.525-2.659.497-.558 1.075-.995 1.8-1.23.011 0 .16-.068.27-.089a.89.89 0 0 0 .312-.02h69.143c.174.11.397.15.655.069a98.845 98.845 0 0 0 3.086-.069h1.888c-.667.433-1.338.854-2.01 1.283-1.933 1.238-3.87 2.476-5.807 3.714-.113.065-.226.134-.335.199a.68.68 0 0 0-.162.121c-1.597 1.02-3.19 2.044-4.788 3.063-17.523 11.21-35.041 22.418-52.564 33.626-2.709 1.736-5.427 3.46-8.132 5.204a.978.978 0 0 0-.238.223c-1.088.83-2.091 1.792-3.123 2.71-.954.988-1.795 2.303-2.37 3.578-.618 1.186-1.067 2.529-1.063 3.872a.812.812 0 0 0-.028.203v83.539a.831.831 0 0 0-.045.433c-.182.866-.06 1.76-.012 2.634V155.218c.037.437.025.882.061 1.323v.016c.028.332.089.664.222.984.874 1.752 2.41 3.112 4.052 4.135.514.304 1.032.599 1.541.907.04.036.085.068.13.101.109.069.218.133.327.202.206.15.429.308.655.405.631.392 1.266.781 1.897 1.173 2.58 1.595 5.156 3.189 7.736 4.779 8.654 5.35 17.316 10.691 25.97 16.04 7.283 4.504 14.57 9 21.854 13.499 1.302.805 2.612 1.599 3.906 2.412.15.121.336.178.518.174.7.562 1.533.931 2.28 1.412 1.15.818 1.788 1.963 2.253 3.294.502 1.165.348 2.226-.744 2.922-1.213.861-2.806.728-4.226.732-1.666.04-3.332.166-5.002.117-7.008.118-14.073-.635-20.992.899-8.028 1.311-16.12 3.868-22.675 8.841-5.754 4.042-11.12 9.003-14.437 15.308-1.868 3.536-3.389 7.251-4.404 11.128-.226.983-1.063 3.569-.865 4.94v44.289a.757.757 0 0 0-.219.615c.013.639.017 1.283.025 1.926H3.392a.79.79 0 0 0-.477.162c-.485.141-.63.7-.538 1.181-.048 1.931.174 3.853.126 5.783.137.898-.352 3.176 1.087 3.01.004 0 .009 0 .017-.004.29.093.65.085.962.065h5.856a.77.77 0 0 0 .558-.227c.445-.036.752-.42.74-.853.008-.919.069-1.837.089-2.76-.012-1.578-.008-3.16-.024-4.738h40.039a.807.807 0 0 0 .49-.17c.719-.009 1.443.028 2.163 0 3.987-.146 8.047-.336 11.954-1.303a43.897 43.897 0 0 0 10.239-3.731.842.842 0 0 0 .267-.142c6.333-3.314 11.598-8.101 16.333-14.114 1.982-2.173 3.474-4.989 6.18-6.337.63-.17 1.334-.214 1.977-.032.712.405 1.48.757 2.111 1.287 4.719 3.731 7.639 9.145 11.554 13.624 3.639 4.338 8.294 8.036 13.692 9.922 2.128.732 4.234.947 6.443.967.06.016.129.024.202.029h48.976c.255.149.595.161.886.048l.275-.048h4.117c.068 2.387.109 4.791.076 7.182a.792.792 0 0 0 .033.263.778.778 0 0 0-.069.324c0 .441.368.809.809.809h9.333a.806.806 0 0 0 .368-.093.149.149 0 0 0 .041-.008c.424-.207.764-.231 1.209-.502.279-.19.408-.506.433-.838.133-1.044.056-2.172.084-3.233.025-1.019-.121-2.035-.121-3.059-.044-.639.279-1.469-.154-1.995-.109-.259-.351-.457-.723-.469h-9.759a97.4 97.4 0 0 0-.04-1.08c0-.098-.004-.195-.004-.292a.95.95 0 0 0 .036-.461v-37.143c.041-.509-.02-1.015-.012-1.541.101-1.769-.149-3.484-.259-5.269-.04-1.982-.254-4.05-.469-6.049-.424-2.355-1.144-4.658-1.941-6.912-1.795-6.247-4.205-11.18-9.062-15.655-2.39-2.234-5.075-4.103-7.781-5.924-2.345-1.773-4.917-3.201-7.59-4.419-7.368-3.399-15.505-3.901-23.508-4.374-.793-.041-1.589-.073-2.382-.097h-.06c-6.216-.182-12.456.113-18.635-.526-1.387-.195-.768-1.287-.182-1.999 1.072-.98 2.382-1.643 3.611-2.412.122-.045.219-.101.303-.166l.057-.024c19.605-12.747 39.214-25.497 58.82-38.243.169-.045.335-.134.465-.263.74-.474 1.455-.911 2.163-1.445 2.018-1.639 3.931-3.403 5.249-5.681.506-.692 1.088-1.611 1.242-2.533.101-.328.121-.708-.025-1.016V72.602a.725.725 0 0 0 .041-.19c.012-.17-.008-.34.028-.506.194-1.64.126-3.363.174-5.03v.077a7.834 7.834 0 0 0-.21-2.064c-.057-.757-.126-1.521-.469-2.201-1.772-2.87-4.339-5.107-7.069-7.025a1.102 1.102 0 0 0-.785-.352c-.404-.239-.825-.449-1.257-.635-.668-.38-1.335-.76-1.998-1.141a27.542 27.542 0 0 0-.874-.518 1.082 1.082 0 0 0-.493-.263c-2.604-1.49-5.209-2.974-7.813-4.463-9.168-5.237-18.343-10.473-27.515-15.709-11.048-6.312-22.104-12.617-33.152-18.93l-4.566-2.61c-.069-.04-.138-.08-.21-.116.453.008.906.008 1.362-.005a.883.883 0 0 0 .146-.016h78.417c.448.15 1.039.158 1.443.373a.03.03 0 0 1 .016.004c.009 0 .017.004.025.008h.008c1.973.643 2.968 2.675 3.134 4.641v.053c-.417 1.246 1.504 1.578 1.617.275 0-.029 0-.053-.004-.081 0-.029.004-.053 0-.081v-5.2h9.213a.795.795 0 0 0 .485-.17c.809-.182.57-1.206.606-1.853-.093-1.712-.186-3.42-.392-5.123a19.035 19.035 0 0 1-.149-2.205c0-.198 0-.413-.033-.611.061-.437-.198-.923-.784-.935h-10.288c-.506.012-.769.376-.793.753-.218.348-.105.886-.077 1.327.292 2.404.837 4.77.987 7.195h-85.805c-.275-.008-.554-.017-.869-.029-4.085-.332-8.302-.323-12.42-.04-.347.032-.695.052-1.043.069H11.905c.024-1.801.093-3.598.028-5.423-.04-.874-.11-1.598-.166-2.529-.024-.32-.036-.684-.238-.947a.779.779 0 0 0-.433-.275.844.844 0 0 0-.396-.105H1.504a.803.803 0 0 0-.514.19.836.836 0 0 0-.198.085v.004Zm9.382 299.135c0 .546.008 1.092.004 1.638.053 1.769-.004 3.549-.053 5.321H4.57a4.278 4.278 0 0 0-.396-.008c-.016-.174-.033-.344-.02-.493-.037-1.983-.081-4.014-.178-6.005 0-.138.008-.284.016-.425m197.094.133h-.056l-.101-.012c-.037-.008-.069-.02-.101-.028-.029-.012-.061-.028-.093-.041a.987.987 0 0 0 .351.081Zm-.808-.161c0 2.229.202 4.479.056 6.713-.198.064-.392.157-.59.23-.012.004-.02.012-.032.016h-8.319c0-.097 0-.194-.008-.291v.053c.012-2.238-.024-4.48-.089-6.721h8.982ZM12.305 139.898c-.166-.441-.133-1.137-.327-1.61V72.581c.024-.032.052-.06.072-.097.473-.752 1.161-1.622 2.131-1.61.154.085.324.15.498.174 3.126 3.646 7.768 5.337 11.594 8.085 1.698 1.303 3.28 3.281 2.948 5.547-.202 1.004-.817 1.85-1.266 2.756-1.387 2.646-2.717 5.523-2.382 8.586.178 1.95.736 3.865 1.525 5.649.894 1.975 2.297 3.432 3.644 5.164 4.836 6.13 4.145 14.458-.603 20.438-2.572 3.262-5.96 5.673-9.127 8.304-2.055 1.784-4.068 3.759-5.75 5.956-1.368.247-2.577-.162-2.96-1.631l.003-.004Zm1.488 120.896c-.635-.097-1.294-.299-1.8-.708-.003-.012-.011-.02-.015-.032v-8.834a.81.81 0 0 0 .016-.263c-.008-.06-.008-.121-.016-.182v-.514s0-.028-.005-.04c.041-.684.227-1.364.352-2.036.712-2.747 1.428-5.393 2.597-8.008 2.608-6.704 7.121-12.454 12.81-16.825 2.18-1.703 4.425-3.338 6.758-4.823 4.137-2.383 8.654-3.994 13.28-5.155.053.04.114.081.183.113 1.492.558 2.915 1.732 3.425 3.29.117.4.267.805.243 1.23-.02.097-.037.194-.045.291-.873 3.832-2.135 6.762-5.82 9.546-5.196 4.042-11.706 5.418-15.29 11.528-.86 1.465-1.569 3.039-1.981 4.69-.44 1.728-.44 3.521-.61 5.285-.453 4.054-3.402 7.336-6.9 9.189-1.556.907-3.308 1.38-4.917 2.181-.036.012-.065.033-.101.049a.922.922 0 0 0-.348 0c-.574.141-1.225.089-1.82.032l.004-.004Zm112.346 34.674c-4.619-2.233-8.29-6.001-11.441-9.986-2.758-3.573-5.212-7.397-8.545-10.481-1.403-1.218-2.883-2.63-4.755-3.091-2.338-.453-4.465 1.048-5.856 2.796-2.968 3.423-5.706 7.077-8.92 10.286-2.116 2.193-4.575 4.01-7.086 5.726a43.545 43.545 0 0 1-3.506 1.999c-1.424.441-3.6.979-4.347-.656-.146-.23-.017-.502-.085-.744.093-.385.186-.777.29-1.178 1.347-6.592.296-13.475 2.096-20.006 1.674-4.463 3.898-6.438 8.399-7.838 4.942-1.379 7.409-3.455 9.01-8.42 1.282-3.197 2.087-6.535 2.802-9.898 1.145-3.8 3.478-7.903 7.591-8.959 5.803-1.57 8.545 4.698 9.847 9.246.352 1.336.667 2.699.861 4.091.198 2.246.146 4.52.696 6.726.744 3.391 2.467 6.729 5.35 8.768 5.5 3.804 10.996 2.444 15.395 8.53 1.21 1.599 2.277 3.521 2.803 5.491.376 1.574.485 3.039.744 4.674.336 1.61.421 3.249.55 4.884.129 1.44.352 2.869.675 4.273.016 1.408.126 2.986-.396 4.354-.291.842-.942 1.412-1.751 1.708-3.603.121-7.279-.417-10.417-2.295h-.004Zm24.623-84.295c3.223.368 6.418.975 9.475 2.079 4.433 1.461 8.396 3.917 12.161 6.628 5.148 3.464 9.891 7.806 12.475 13.556 1.529 4.026 2.948 8.121 3.951 12.322.093.716.17 1.424.239 2.132-.3.384-.526.821-.89 1.153-1.262.984-2.382 1.364-3.894.85l-.393-.17c-.016-.008-.032-.012-.048-.02-1.953-.818-4.149-1.327-6.547-2.274-5.132-2.42-5.832-8.615-8.003-13.256-1.763-3.493-6.155-5.576-9.908-6.086-3.547-.494-7.222.255-10.704-.644-3.333-.781-4.635-4.406-5.379-7.389-.315-1.497-.271-3.047-.388-4.576.137-.263.214-.587.279-.85.105-.388.315-.732.497-1.088.591-1.178 1.464-2.327 2.698-2.869 1.456.129 2.911.287 4.367.493l.012.009Zm-8.848.712-.032-.057c.02 0 .036.008.056.008a.613.613 0 0 1-.024.045v.004Zm47.497-147.51c.08.21.149.421.21.627v89.33c-.413.295-.797.684-1.359.655-.235.013-.497-.016-.671-.194-.053-.056-.089-.121-.13-.186-.202-8.064-7.877-13.191-12.233-19.306-1.908-2.873-3.235-6.296-3.36-9.788-.255-3.957 1.452-7.676 3.372-11.063 5.537-9.351 2.253-12.698-2.491-21.078-2.373-4.94-1.674-9.618 1.335-14.102 1.569-2.428 3.732-4.661 5.847-6.676 1.634-1.45 3.224-2.987 4.137-5.014.639-1.279.983-2.675 1.096-4.095.211-.376.146-.846.344-1.234.057-.235.295-.421.554-.522 1.658-.76 2.892 1.315 3.357 2.646h-.008Zm-88.365-52.567c1.901.202 3.639.975 5.342 1.796.239.158.514.316.78.38 1.485.846 2.969 1.696 4.457 2.546 8.545 4.872 17.082 9.76 25.626 14.632 12.136 6.931 24.28 13.863 36.416 20.795l4.032 2.306a.987.987 0 0 0 .518.4c.433.284.776.685 1.169 1.016.74.72 1.443 1.437 2.102 2.242.87 1.392 1.561 2.982 1.658 4.637-.048.745.065 1.49.053 2.226a1.168 1.168 0 0 0-.044.676c-.049.182-.102.368-.154.554-.853 2.335-2.645 4.059-4.461 5.67-4.153 3.989-8.593 9.08-8.832 15.117-.428 8.582 7.057 12.309 6.802 20.009-.343 3.088-2.167 5.734-3.526 8.457-1.577 2.797-2.665 5.896-2.746 9.137-.141 4.982 1.933 9.934 5.116 13.734 4.015 4.961 9.992 9.376 10.494 16.243a13.308 13.308 0 0 1-.388 3.609l-.025.069c-.501 1.473-1.265 2.852-2.329 3.994-.465.489-.882.922-1.371 1.424-.178.142-.368.267-.53.421-2.871 1.865-5.742 3.735-8.613 5.6-16.698 10.849-33.383 21.709-50.081 32.558a.889.889 0 0 0-.064.048 1.207 1.207 0 0 0-.191.085c-1.686 1.097-3.756 1.931-4.779 3.764-.712 1.068-.494 2.634.659 3.293 1.751.874 3.809.559 5.706.721 3.603.194 7.222.125 10.833.162 1.044.028 2.091.056 3.131.089a.813.813 0 0 0 .222.008h.012c4.19 2.606 2.96 5.742 3.627 9.82 1.861 8.089 5.108 9.793 13.095 9.473 1.723-.016 3.457.045 5.164.283 2.794.599 5.593 1.943 7.417 4.201 2.329 4.095 2.794 9.286 6.227 12.742 2.762 2.784 6.313 3.116 9.427 4.366.19.134.428.223.667.291 1.844.85 3.502 2.129 4.687 4.593-.012-.024-.02-.04-.032-.069.36.696.707 1.417.958 2.161.077.283.166.591.315.83-.008.064-.012.125-.028.19a.931.931 0 0 0 .061.437v31.817c-.089.283-.008.623-.049.935-.218 2.124-1.544 4.2-3.514 5.115a5.533 5.533 0 0 1-.837.4h-41.277a2.503 2.503 0 0 1-.493-.283 7.126 7.126 0 0 1-1.723-1.712 26.206 26.206 0 0 1-1.419-4.325.695.695 0 0 0-.033-.146 27.275 27.275 0 0 1-.513-2.966c-.243-1.902-.223-3.848-.623-5.734-.283-1.521-.364-3.1-.708-4.621-.95-3.937-3.316-7.445-6.514-9.946-2.714-2.185-6.273-2.598-9.407-3.921-4.011-1.416-6.68-4.856-7.635-8.947-.768-2.76-.453-5.827-1.035-8.639-1.189-5.738-3.995-14.066-11.222-13.345-5.023.546-8.254 5.086-9.75 9.561-.526 1.664-.78 3.399-1.205 5.091-.623 2.339-1.46 4.637-2.325 6.899-.854 2.226-2.5 4.2-4.78 5.066-3.142 1.166-6.66 1.93-9.018 4.492-5.88 6.612-3.616 16.125-4.999 24.157-.21 1.364-.55 2.699-.946 4.018-.623 1.093-1.431 2.076-2.511 2.748-.526.392-1.023.829-1.638 1.084a2.22 2.22 0 0 0-.785.34c-1.5.3-3.016.53-4.545.676-2.03.113-4.266.255-6.365.287-.651.069-1.994-.162-2.718.166H16.567c-.408-.356-1.08-.599-1.484-.821a6.834 6.834 0 0 1-2.183-2.485c-.409-.906-.623-1.736-.813-2.747-.073-.373.012-.826-.11-1.182v-24.663c.276-.271.498-.668.773-.906a31.179 31.179 0 0 1 2.677-2.149c1.282-.68 2.625-1.246 3.975-1.772 5.003-1.894 9.56-6.119 10.09-11.679.178-2.185.214-4.523 1.108-6.624 1.407-3.71 4.299-6.676 7.76-8.574 6.192-3.322 12.767-6.628 14.466-14.142.117-.417.214-.854.303-1.303a1.93 1.93 0 0 0 .08-.409c.454-2.387.81-4.997 2.961-6.377a.945.945 0 0 0 .178-.174 25.345 25.345 0 0 1 1.569-.178c2.778-.304 5.573-.231 8.363-.162 3.74.036 7.55.081 11.323-.037 1.824-.141 3.74.183 5.46-.602 1.035-.498 2.054-1.336 2.401-2.469.288-1.024.057-2.12-.36-3.075-.396-1.113-.962-2.218-1.844-3.039-.687-.753-1.589-1.194-2.474-1.671-.372-.263-.736-.579-1.149-.789a.717.717 0 0 0-.34-.069c-1.362-.854-2.737-1.691-4.108-2.537-8.763-5.41-17.523-10.828-26.29-16.239-8.537-5.272-17.082-10.549-25.619-15.825l-5.35-3.302c-.416-.332-.999-.587-1.342-.838-1.286-.712-2.41-1.436-3.446-2.533-.736-2.448-.497-4.965-.352-7.506.009-.178.02-.356.033-.534.166-.886.388-1.732.74-2.598 1.144-3.201 3.283-5.924 5.657-8.311 2.24-2.279 4.813-4.318 7.34-6.289 4.857-3.998 8.707-9.258 9.107-15.732.348-4.346-1.266-8.627-3.95-12.002-.951-1.178-1.97-2.311-2.73-3.63a16.446 16.446 0 0 1-1.784-5.75c-.384-3.1 1.173-5.944 2.564-8.594 1.197-1.78 1.5-4.027.534-5.985-1.751-3.788-5.953-5.378-9.305-7.433-3.381-2.17-7.854-5.277-7.134-9.878.101-.364.364-.668.405-1.052.004-.028 0-.06 0-.089.234-.307.477-.61.736-.894 1.435-1.283 2.83-2.634 4.517-3.59.048-.032.088-.068.129-.105 1.294-.825 2.588-1.65 3.878-2.48A386411.542 386411.542 0 0 1 84.2 17.177c3.271-1.918 6.612-3.872 10.267-4.96 2.156-.466 4.388-.523 6.584-.381l-.004-.028Zm90.233-6.034c-.17-1.044-.469-2.067-.542-3.127-.069-.28-.073-.66-.109-1.024h8.759c.008.085.008.166 0 .247.057 1.396.222 2.731.352 4.143.141.98.081 1.975.186 2.958 0 .097-.008.198-.012.308h-8.286c-.049-1.17-.263-2.34-.352-3.505h.004ZM10.169 1.623v.032c.05.834.163 1.853.143 2.772.109 1.63-.053 3.221-.033 4.852H1.65c.065-.405.166-.806.166-1.222.121-2.06.053-4.314.186-6.438h8.169v.004Z"/><path fill="#000" d="M11.87 237.499c.092-1.955-.066-3.921.064-5.872.125-1.056-1.428-1.279-1.602-.231-.166 2.008.025 4.075-.08 6.09.016 1.065 1.585 1.069 1.617.009v.004ZM115.75 298.584c.142.522.684.668 1.157.542 1.625 0 3.255.008 4.877.012 1.063-.02 1.059-1.59 0-1.618-1.412-.029-2.827.016-4.238-.021-.756-.036-2.026 0-1.796 1.085ZM71.691 298.382c.053 1.019 1.117.805 1.824.736.17-.004.364-.032.538.012a.817.817 0 0 0 .995-.566c.23-1.299-1.464-1.109-2.285-1.004-.522-.044-1.076.239-1.072.822ZM87.366 63.412c-23.767 4.055-44.593 24.008-43.501 49.144.63 20.309 16.204 37.345 35.017 43.504 31.373 10.953 71.04-7.009 73.875-42.359 1.864-34.67-33.614-56.403-65.391-50.293v.004Zm22.771 1.8c20.867 4.003 39.591 20.775 41.006 42.788v-.008c1.808 27.516-22.642 48.015-48.77 49.492-26.71 2.052-54.735-15.599-56.83-43.823-1.221-16.056 7.57-31.356 20.81-40.096 12.654-8.543 28.85-11.367 43.784-8.356v.004Z"/><path fill="#000" d="M152.765 113.636a.36.36 0 0 1-.008.065v.045l.008-.11ZM59.268 96.986c-1.755 7.866 2.645 15.473 8.703 20.272.008-.085.02-.166.028-.251.04-.303.134-.603.239-.89.13-.344.328-.651.542-.947.396-.55.857-1.048 1.298-1.554.15-.17.295-.339.453-.501.117-.118.23-.235.356-.34.153-.134.323-.239.497-.344.449-.271.954-.449 1.448-.611.497-.162.999-.312 1.516-.372.482-.053.963-.073 1.444-.081H75.897c.324 0 .651 0 .97.036.38.045.745.158 1.105.279.623.211 1.233.445 1.8.793.622.389 1.188.862 1.589 1.481.376.579.614 1.234.857 1.878.113.299.214.603.307.906.11.356.162.725.186 1.093.008.113.012.222.012.336 0 .238-.016.473-.044.708a7.33 7.33 0 0 1-.202 1.02c-.166.663-.344 1.319-.635 1.938-.138.291-.3.574-.477.845-.203.3-.433.559-.692.806-.15.145-.307.279-.473.408 7.101 2.558 14.813 3.521 22.319 3.31 14.914-.348 36.298-7.469 39.153-24.205.126-.83.186-1.651.186-2.465 0-7.57-5.237-14.336-11.452-18.383-8.408-5.588-18.554-7.983-28.571-8.242-15.593-.506-38.421 5.94-42.567 23.085v-.008ZM66.212 154.251c.384-1.056-1.032-1.238-1.683-1.639-1.835-1.068-3.623-2.258-5.232-3.65-.502-.364-.866-1.044-1.53-1.088-.8-.025-1.103 1.125-.412 1.501 1.214 1.149 2.504 2.213 3.935 3.083.906.66 2.022 1.425 3.09 1.882.606.299 1.431.749 1.828-.085l.004-.004ZM69.18 155.663a.809.809 0 1 0-1.617 0 .809.809 0 0 0 1.617 0ZM92.429 58.686c3.195-.445 6.474-.542 9.738-.421 1.423.105 2.838.328 4.246.566.433.085.853-.275.91-.692.068-1.185-1.497-.955-2.289-1.16-3.749-.608-7.562-.418-11.335-.086-1.901.36-3.996.198-5.759 1.032-.902.538-.113 1.922.817 1.4 1.124-.506 2.463-.425 3.672-.64ZM111.54 58.88a.809.809 0 1 0-1.618-.001.809.809 0 0 0 1.618 0ZM155.309 113.228c.089.125.093.279.105.425.166 2.294-.239 4.552-1.027 6.701-.259 1.032 1.253 1.444 1.561.429.428-1.404.95-2.792 1.023-4.269.016-1.348.356-2.853-.267-4.103-.215-.385-.732-.51-1.108-.292a.814.814 0 0 0-.287 1.109ZM154.763 125.023a.81.81 0 1 0-1.619 0 .81.81 0 0 0 1.619 0ZM77.458 25.351c-.404.267-.789.563-1.189.838-.857.635.057 1.91.934 1.323a301.234 301.234 0 0 1 13.05-8.486c.833-.736-.287-1.974-1.1-1.177-4.012 2.294-7.805 4.993-11.695 7.502ZM90.29 19.001l-.036.025c-.017.012-.025.029-.041.04l.082-.065h-.004ZM71.962 28.916c0 .441.34.817.789.83.433.012.829-.348.829-.79a.82.82 0 0 0-.789-.829c-.432-.012-.829.348-.829.789ZM25.32 87.938c.234-1.049.84-1.987.982-3.052.275-3.831-2.782-5.673-5.678-7.384-.687-.409-1.387-.797-2.01-1.303-.348-.275-.881-.162-1.128.182-.817 1.17 1.933 2.128 2.665 2.72 1.241.792 2.56 1.508 3.563 2.621.736.834 1.035 2.015.966 3.112-.27.922-.7 1.796-.934 2.735-.218 1.044 1.306 1.396 1.573.373v-.004ZM24.506 90.143c0-.441-.396-.801-.829-.79a.82.82 0 0 0-.788.83c0 .441.396.801.829.79a.82.82 0 0 0 .788-.83ZM29.48 123.878c1.355-1.72 2.383-3.698 2.831-5.855.316-1.505.243-3.071-.02-4.581-.259-1.347-2.14-.89-1.585.389a9.907 9.907 0 0 1-.582 5.831c-.579 1.4-1.36 2.577-2.354 3.759-.396.72-1.76 1.473-.995 2.355 1.14.931 1.998-1.263 2.71-1.898h-.004ZM26.346 126.937c.11-1.129-1.524-1.242-1.625-.113l.004-.016c-.283 1.295 1.573 1.453 1.617.133l.004-.004ZM88.058 206.531c-.316.809-.081 1.671-.251 2.489-.291 1.032-1.064 2.027-1.998 2.573-1.334.81-2.891 1.016-4.404 1.247-1.67.145-3.409.267-5.087.133-.732-.174-1.808-.125-1.69.894.08.441.505.725.938.652 1.868.23 3.769.101 5.645-.033 1.82-.234 3.704-.481 5.306-1.436 1.54-.862 2.746-2.476 2.976-4.245.016-.647-.08-1.303.146-1.926.214-1.036-1.319-1.38-1.581-.352v.004ZM87.301 203.755c0 .441.42.793.846.773.452-.02.772-.405.772-.846 0-.441-.42-.793-.845-.773-.453.021-.773.405-.773.846ZM174.052 125.881c.356 2.1.873 4.233 1.917 6.106.602.805 1.589 3.986 2.891 3.043.55-.441.235-1.109-.178-1.513-.295-.441-.525-.931-.784-1.396-1.027-1.607-1.589-3.403-2.034-5.257-.178-.708-.065-2.003-1.125-1.901-.424.056-.764.477-.691.914l.004.004ZM179.483 137.11c0 .441.376.805.817.801a.814.814 0 0 0 .801-.817.814.814 0 0 0-.817-.801.814.814 0 0 0-.801.817ZM172.612 54.765c-.21.38-.072.894.316 1.1.659.352 1.27.79 1.905 1.182 1.613 1.024 2.931 2.541 3.688 4.297.461 1.416.085 2.995-.696 4.225a.816.816 0 0 0 .315 1.1c1.145.62 1.824-1.711 2.014-2.52.91-3.392-1.637-6.564-4.294-8.36-.72-.446-1.412-.927-2.148-1.336a.817.817 0 0 0-1.1.316v-.004ZM175.621 68.879c0 .44.376.805.817.8a.814.814 0 0 0 .801-.817.814.814 0 0 0-.817-.8.814.814 0 0 0-.801.817ZM126.123 194.173c-.517.308-1.14.903-.78 1.55.234.376.699.538 1.1.316 2.143-1.781 4.654-3.072 7.02-4.613 1.711-1.016 3.352-2.287 5.128-3.241.392-.203.525-.725.315-1.101-.663-1.19-2.588.696-3.401 1.092-3.065 2.072-6.317 3.913-9.382 5.997ZM122.184 196.905c0 .441.352.817.797.821a.815.815 0 0 0 .821-.797.818.818 0 0 0-.797-.822.814.814 0 0 0-.821.798ZM33.153 244.208c-.753 2.622-.356 5.499-1.509 8.008-.323.623.396 1.359 1.027 1.088.643-.328.752-1.186.963-1.813.574-2.088.51-4.338.978-6.466.376-1.368 1.007-2.683 1.74-3.897.29-.441.747-.748.986-1.218a.812.812 0 0 0-.404-1.068c-1.42-.647-3.454 4.253-3.781 5.37v-.004ZM30.095 256.197c-.085.433.255.858.675.923.615.101.955-.47.983-1.012.045-1.295-1.654-1.21-1.662.085l.004.004ZM92.85 260.122c1.16-2.181 1.726-4.637 2.224-7.032.412-.98-1.024-1.623-1.477-.664-.396 1.198-.457 2.493-.922 3.682-.813 3.185-1.92 4.423-4.4 6.515-.566.51-1.888.955-1.281 1.914.784 1.024 2.224-.684 2.911-1.198 1.06-.995 2.212-1.942 2.948-3.217h-.004ZM84.668 266.491a.817.817 0 0 0-.792-.825c-.433-.008-.825.352-.825.793 0 .441.343.817.792.826.433.008.825-.353.825-.794ZM121.06 288.326c.627-.918-.639-1.416-1.189-1.93a22.302 22.302 0 0 1-1.674-1.708 29.853 29.853 0 0 1-1.763-2.338c-.223-.377-.607-.988-1.056-1.239-.582-.38-1.383.251-1.185.903.057.259.259.4.445.566.789 1.129 1.553 2.299 2.483 3.326.845.951 1.755 1.85 2.807 2.578a.817.817 0 0 0 1.132-.154v-.004ZM124.611 290.625c0-.441-.36-.81-.805-.814a.817.817 0 0 0-.813.805c0 .442.36.81.805.814a.817.817 0 0 0 .813-.805ZM121.424 261.486c1.048.421 2.111.805 3.191 1.145.42.138.881-.166.991-.57.222-.85-.769-1.069-1.383-1.255a19.18 19.18 0 0 1-1.917-.724c-.971-.498-1.836.769-.886 1.404h.004ZM127.454 262.906c-.405.951 1.18 1.696 1.678.81.582-1.012-1.238-1.874-1.678-.81ZM67.619 286.323c-.133 1.457-.51 2.869-1.217 4.192-.95 1.319-2.2 2.582-3.81 3.088-.873.267-2.944.125-2.677 1.501.405 1.056 1.513.267 2.301.206 1.917-.19 3.49-1.501 4.76-2.885 1.484-1.626 1.994-3.872 2.285-5.993.056-.683-.486-1.517-1.242-1.177a.818.818 0 0 0-.396 1.072l-.004-.004ZM57.125 294.404c-.453.02-.773.405-.773.846 0 .441.421.789.846.773.453-.021.772-.405.772-.846 0-.441-.42-.789-.845-.773ZM138.142 219.719c-.105 1.938.57 3.815 1.237 5.608.368.785.748 2.586 1.945 1.995.55-.348.397-1.02.041-1.449-.251-.485-.437-1.007-.635-1.521-.566-1.595-1.096-3.242-.971-4.949-.084-1.331-2.082-.931-1.617.316ZM141.955 229.066c-.489.971 1.072 1.736 1.561.781.485-.975-1.072-1.736-1.561-.781ZM164.998 227.957a.776.776 0 0 0 .639.194c.291.093.554.247.821.397a10 10 0 0 1 2.656 2.327c.417.611.842 1.218 1.238 1.837.226.376.752.481 1.116.246.971-.732-.259-1.727-.643-2.448a10.62 10.62 0 0 0-4.254-3.73c-.526-.235-1.177-.433-1.638.032-.311.311-.251.858.061 1.141l.004.004Zm1.063.016a.79.79 0 0 1-.263.146l-.085.02a.891.891 0 0 0 .397-.214l-.049.048ZM171.537 235.281c0 .441.42.793.845.773.457-.02.772-.405.772-.846 0-.441-.42-.793-.845-.772-.457.02-.772.404-.772.845ZM185.837 279.537c-.405 2.897-.514 5.815-.413 8.736-.077.531.117 1.142.732 1.19.425.037.853-.299.873-.74-.056-3.027-.02-6.017.421-9.06.125-.498-.19-1.048-.724-1.085-.513-.044-1.003.445-.889.955v.004ZM185.218 291.818c0 .441.42.793.845.773.457-.02.772-.405.772-.846 0-.441-.42-.793-.845-.772-.457.02-.772.404-.772.845Z"/></g><defs><clipPath id="a"><path fill="#fff" d="M0 308V0h202v308z"/></clipPath></defs></svg>