<svg width="777" height="398" viewBox="0 0 777 398" fill="none" xmlns="http://www.w3.org/2000/svg">
<circle cx="596" cy="210" r="23" fill="#DDFCED"/>
<circle cx="675" cy="210" r="23" fill="#F8FCDD"/>
<circle cx="517" cy="210" r="23" fill="#F8FCDD"/>
<circle cx="596" cy="289" r="23" fill="#F8FCDD"/>
<circle cx="596" cy="131" r="23" fill="#F8FCDD"/>
<circle cx="596" cy="52" r="23" fill="#DDE0FC"/>
<circle cx="754" cy="210" r="23" fill="#DDE0FC"/>
<circle cx="596" cy="368" r="23" fill="#DDE0FC"/>
<circle cx="438" cy="210" r="23" fill="#DDE0FC"/>
<path d="M597.701 211.773H594.127L593.324 214H592.164L595.422 205.469H596.406L599.67 214H598.516L597.701 211.773ZM594.467 210.848H597.367L595.914 206.857L594.467 210.848Z" fill="black"/>
<path d="M678.266 211.293C678.16 212.195 677.826 212.893 677.264 213.385C676.705 213.873 675.961 214.117 675.031 214.117C674.023 214.117 673.215 213.756 672.605 213.033C672 212.311 671.697 211.344 671.697 210.133V209.312C671.697 208.52 671.838 207.822 672.119 207.221C672.404 206.619 672.807 206.158 673.326 205.838C673.846 205.514 674.447 205.352 675.131 205.352C676.037 205.352 676.764 205.605 677.311 206.113C677.857 206.617 678.176 207.316 678.266 208.211H677.135C677.037 207.531 676.824 207.039 676.496 206.734C676.172 206.43 675.717 206.277 675.131 206.277C674.412 206.277 673.848 206.543 673.438 207.074C673.031 207.605 672.828 208.361 672.828 209.342V210.168C672.828 211.094 673.021 211.83 673.408 212.377C673.795 212.924 674.336 213.197 675.031 213.197C675.656 213.197 676.135 213.057 676.467 212.775C676.803 212.49 677.025 211.996 677.135 211.293H678.266Z" fill="black"/>
<path d="M518.812 210.057H515.115V213.08H519.41V214H513.99V205.469H519.352V206.395H515.115V209.137H518.812V210.057Z" fill="black"/>
<path d="M592.99 293V284.469H595.398C596.141 284.469 596.797 284.633 597.367 284.961C597.938 285.289 598.377 285.756 598.686 286.361C598.998 286.967 599.156 287.662 599.16 288.447V288.992C599.16 289.797 599.004 290.502 598.691 291.107C598.383 291.713 597.939 292.178 597.361 292.502C596.787 292.826 596.117 292.992 595.352 293H592.99ZM594.115 285.395V292.08H595.299C596.166 292.08 596.84 291.811 597.32 291.271C597.805 290.732 598.047 289.965 598.047 288.969V288.471C598.047 287.502 597.818 286.75 597.361 286.215C596.908 285.676 596.264 285.402 595.428 285.395H594.115Z" fill="black"/>
<path d="M592.99 135V126.469H595.779C596.705 126.469 597.4 126.66 597.865 127.043C598.334 127.426 598.568 127.992 598.568 128.742C598.568 129.141 598.455 129.494 598.229 129.803C598.002 130.107 597.693 130.344 597.303 130.512C597.764 130.641 598.127 130.887 598.393 131.25C598.662 131.609 598.797 132.039 598.797 132.539C598.797 133.305 598.549 133.906 598.053 134.344C597.557 134.781 596.855 135 595.949 135H592.99ZM594.115 131.01V134.08H595.973C596.496 134.08 596.908 133.945 597.209 133.676C597.514 133.402 597.666 133.027 597.666 132.551C597.666 131.523 597.107 131.01 595.99 131.01H594.115ZM594.115 130.107H595.814C596.307 130.107 596.699 129.984 596.992 129.738C597.289 129.492 597.438 129.158 597.438 128.736C597.438 128.268 597.301 127.928 597.027 127.717C596.754 127.502 596.338 127.395 595.779 127.395H594.115V130.107Z" fill="black"/>
<path d="M599.289 54.8809C599 55.2949 598.596 55.6055 598.076 55.8125C597.561 56.0156 596.959 56.1172 596.271 56.1172C595.576 56.1172 594.959 55.9551 594.42 55.6309C593.881 55.3027 593.463 54.8379 593.166 54.2363C592.873 53.6348 592.723 52.9375 592.715 52.1445V51.4004C592.715 50.1152 593.014 49.1191 593.611 48.4121C594.213 47.7051 595.057 47.3516 596.143 47.3516C597.033 47.3516 597.75 47.5801 598.293 48.0371C598.836 48.4902 599.168 49.1348 599.289 49.9707H598.164C597.953 48.8418 597.281 48.2773 596.148 48.2773C595.395 48.2773 594.822 48.543 594.432 49.0742C594.045 49.6016 593.85 50.3672 593.846 51.3711V52.0684C593.846 53.0254 594.064 53.7871 594.502 54.3535C594.939 54.916 595.531 55.1973 596.277 55.1973C596.699 55.1973 597.068 55.1504 597.385 55.0566C597.701 54.9629 597.963 54.8047 598.17 54.582V52.666H596.195V51.752H599.289V54.8809Z" fill="black"/>
<path d="M757.547 214H756.416V210.057H752.115V214H750.99V205.469H752.115V209.137H756.416V205.469H757.547V214Z" fill="black"/>
<path d="M594.197 372H593.072V363.469H594.197V372Z" fill="black"/>
<path d="M439.695 210.232H436.115V214H434.99V205.469H440.275V206.395H436.115V209.312H439.695V210.232Z" fill="black"/>
<line x1="595.5" y1="187" x2="595.5" y2="154" stroke="#0500FF"/>
<line x1="595.5" y1="266" x2="595.5" y2="233" stroke="#0500FF"/>
<line x1="595.5" y1="108" x2="595.5" y2="75" stroke="#FF8A8A"/>
<line x1="595.5" y1="345" x2="595.5" y2="312" stroke="#FF8A8A"/>
<line x1="652" y1="210.5" x2="619" y2="210.5" stroke="#0500FF"/>
<line x1="573" y1="210.5" x2="540" y2="210.5" stroke="#0500FF"/>
<line x1="494" y1="210.5" x2="461" y2="210.5" stroke="#FF8A8A"/>
<line x1="732" y1="210.5" x2="699" y2="210.5" stroke="#FF8A8A"/>
<line x1="573.835" y1="131.355" x2="517.352" y2="187.355" stroke="black"/>
<line x1="619.354" y1="130.646" x2="675.354" y2="186.646" stroke="black"/>
<path d="M608.271 175H607.182V167.775L604.996 168.578V167.594L608.102 166.428H608.271V175Z" fill="#0500FF"/>
<path d="M608.271 254H607.182V246.775L604.996 247.578V246.594L608.102 245.428H608.271V254Z" fill="#0500FF"/>
<path d="M635.271 200H634.182V192.775L631.996 193.578V192.594L635.102 191.428H635.271V200Z" fill="#0500FF"/>
<path d="M557.271 200H556.182V192.775L553.996 193.578V192.594L557.102 191.428H557.271V200Z" fill="#0500FF"/>
<path d="M610.299 92H604.709V91.2207L607.662 87.9395C608.1 87.4434 608.4 87.041 608.564 86.7324C608.732 86.4199 608.816 86.0977 608.816 85.7656C608.816 85.3203 608.682 84.9551 608.412 84.6699C608.143 84.3848 607.783 84.2422 607.334 84.2422C606.795 84.2422 606.375 84.3965 606.074 84.7051C605.777 85.0098 605.629 85.4355 605.629 85.9824H604.545C604.545 85.1973 604.797 84.5625 605.301 84.0781C605.809 83.5938 606.486 83.3516 607.334 83.3516C608.127 83.3516 608.754 83.5605 609.215 83.9785C609.676 84.3926 609.906 84.9453 609.906 85.6367C609.906 86.4766 609.371 87.4766 608.301 88.6367L606.016 91.1152H610.299V92Z" fill="#FF8A8A"/>
<path d="M610.299 333H604.709V332.221L607.662 328.939C608.1 328.443 608.4 328.041 608.564 327.732C608.732 327.42 608.816 327.098 608.816 326.766C608.816 326.32 608.682 325.955 608.412 325.67C608.143 325.385 607.783 325.242 607.334 325.242C606.795 325.242 606.375 325.396 606.074 325.705C605.777 326.01 605.629 326.436 605.629 326.982H604.545C604.545 326.197 604.797 325.562 605.301 325.078C605.809 324.594 606.486 324.352 607.334 324.352C608.127 324.352 608.754 324.561 609.215 324.979C609.676 325.393 609.906 325.945 609.906 326.637C609.906 327.477 609.371 328.477 608.301 329.637L606.016 332.115H610.299V333Z" fill="#FF8A8A"/>
<path d="M717.299 207H711.709V206.221L714.662 202.939C715.1 202.443 715.4 202.041 715.564 201.732C715.732 201.42 715.816 201.098 715.816 200.766C715.816 200.32 715.682 199.955 715.412 199.67C715.143 199.385 714.783 199.242 714.334 199.242C713.795 199.242 713.375 199.396 713.074 199.705C712.777 200.01 712.629 200.436 712.629 200.982H711.545C711.545 200.197 711.797 199.562 712.301 199.078C712.809 198.594 713.486 198.352 714.334 198.352C715.127 198.352 715.754 198.561 716.215 198.979C716.676 199.393 716.906 199.945 716.906 200.637C716.906 201.477 716.371 202.477 715.301 203.637L713.016 206.115H717.299V207Z" fill="#FF8A8A"/>
<path d="M480.299 207H474.709V206.221L477.662 202.939C478.1 202.443 478.4 202.041 478.564 201.732C478.732 201.42 478.816 201.098 478.816 200.766C478.816 200.32 478.682 199.955 478.412 199.67C478.143 199.385 477.783 199.242 477.334 199.242C476.795 199.242 476.375 199.396 476.074 199.705C475.777 200.01 475.629 200.436 475.629 200.982H474.545C474.545 200.197 474.797 199.562 475.301 199.078C475.809 198.594 476.486 198.352 477.334 198.352C478.127 198.352 478.754 198.561 479.215 198.979C479.676 199.393 479.906 199.945 479.906 200.637C479.906 201.477 479.371 202.477 478.301 203.637L476.016 206.115H480.299V207Z" fill="#FF8A8A"/>
<circle cx="214" cy="210" r="23" fill="#DDFCED"/>
<circle cx="293" cy="210" r="23" fill="#F8FCDD"/>
<circle cx="135" cy="210" r="23" fill="#F8FCDD"/>
<circle cx="214" cy="289" r="23" fill="#F8FCDD"/>
<circle cx="214" cy="131" r="23" fill="#F8FCDD"/>
<circle cx="214" cy="52" r="23" fill="#DDE0FC"/>
<circle cx="372" cy="210" r="23" fill="#DDE0FC"/>
<circle cx="214" cy="368" r="23" fill="#DDE0FC"/>
<circle cx="56" cy="210" r="23" fill="#DDE0FC"/>
<path d="M215.701 211.773H212.127L211.324 214H210.164L213.422 205.469H214.406L217.67 214H216.516L215.701 211.773ZM212.467 210.848H215.367L213.914 206.857L212.467 210.848Z" fill="black"/>
<path d="M296.266 211.293C296.16 212.195 295.826 212.893 295.264 213.385C294.705 213.873 293.961 214.117 293.031 214.117C292.023 214.117 291.215 213.756 290.605 213.033C290 212.311 289.697 211.344 289.697 210.133V209.312C289.697 208.52 289.838 207.822 290.119 207.221C290.404 206.619 290.807 206.158 291.326 205.838C291.846 205.514 292.447 205.352 293.131 205.352C294.037 205.352 294.764 205.605 295.311 206.113C295.857 206.617 296.176 207.316 296.266 208.211H295.135C295.037 207.531 294.824 207.039 294.496 206.734C294.172 206.43 293.717 206.277 293.131 206.277C292.412 206.277 291.848 206.543 291.438 207.074C291.031 207.605 290.828 208.361 290.828 209.342V210.168C290.828 211.094 291.021 211.83 291.408 212.377C291.795 212.924 292.336 213.197 293.031 213.197C293.656 213.197 294.135 213.057 294.467 212.775C294.803 212.49 295.025 211.996 295.135 211.293H296.266Z" fill="black"/>
<path d="M136.812 210.057H133.115V213.08H137.41V214H131.99V205.469H137.352V206.395H133.115V209.137H136.812V210.057Z" fill="black"/>
<path d="M210.99 293V284.469H213.398C214.141 284.469 214.797 284.633 215.367 284.961C215.938 285.289 216.377 285.756 216.686 286.361C216.998 286.967 217.156 287.662 217.16 288.447V288.992C217.16 289.797 217.004 290.502 216.691 291.107C216.383 291.713 215.939 292.178 215.361 292.502C214.787 292.826 214.117 292.992 213.352 293H210.99ZM212.115 285.395V292.08H213.299C214.166 292.08 214.84 291.811 215.32 291.271C215.805 290.732 216.047 289.965 216.047 288.969V288.471C216.047 287.502 215.818 286.75 215.361 286.215C214.908 285.676 214.264 285.402 213.428 285.395H212.115Z" fill="black"/>
<path d="M210.99 135V126.469H213.779C214.705 126.469 215.4 126.66 215.865 127.043C216.334 127.426 216.568 127.992 216.568 128.742C216.568 129.141 216.455 129.494 216.229 129.803C216.002 130.107 215.693 130.344 215.303 130.512C215.764 130.641 216.127 130.887 216.393 131.25C216.662 131.609 216.797 132.039 216.797 132.539C216.797 133.305 216.549 133.906 216.053 134.344C215.557 134.781 214.855 135 213.949 135H210.99ZM212.115 131.01V134.08H213.973C214.496 134.08 214.908 133.945 215.209 133.676C215.514 133.402 215.666 133.027 215.666 132.551C215.666 131.523 215.107 131.01 213.99 131.01H212.115ZM212.115 130.107H213.814C214.307 130.107 214.699 129.984 214.992 129.738C215.289 129.492 215.438 129.158 215.438 128.736C215.438 128.268 215.301 127.928 215.027 127.717C214.754 127.502 214.338 127.395 213.779 127.395H212.115V130.107Z" fill="black"/>
<path d="M217.289 54.8809C217 55.2949 216.596 55.6055 216.076 55.8125C215.561 56.0156 214.959 56.1172 214.271 56.1172C213.576 56.1172 212.959 55.9551 212.42 55.6309C211.881 55.3027 211.463 54.8379 211.166 54.2363C210.873 53.6348 210.723 52.9375 210.715 52.1445V51.4004C210.715 50.1152 211.014 49.1191 211.611 48.4121C212.213 47.7051 213.057 47.3516 214.143 47.3516C215.033 47.3516 215.75 47.5801 216.293 48.0371C216.836 48.4902 217.168 49.1348 217.289 49.9707H216.164C215.953 48.8418 215.281 48.2773 214.148 48.2773C213.395 48.2773 212.822 48.543 212.432 49.0742C212.045 49.6016 211.85 50.3672 211.846 51.3711V52.0684C211.846 53.0254 212.064 53.7871 212.502 54.3535C212.939 54.916 213.531 55.1973 214.277 55.1973C214.699 55.1973 215.068 55.1504 215.385 55.0566C215.701 54.9629 215.963 54.8047 216.17 54.582V52.666H214.195V51.752H217.289V54.8809Z" fill="black"/>
<path d="M375.547 214H374.416V210.057H370.115V214H368.99V205.469H370.115V209.137H374.416V205.469H375.547V214Z" fill="black"/>
<path d="M212.197 372H211.072V363.469H212.197V372Z" fill="black"/>
<path d="M57.6953 210.232H54.1152V214H52.9902V205.469H58.2754V206.395H54.1152V209.312H57.6953V210.232Z" fill="black"/>
<line x1="213.5" y1="187" x2="213.5" y2="154" stroke="black"/>
<line x1="213.5" y1="266" x2="213.5" y2="233" stroke="black"/>
<line x1="213.5" y1="108" x2="213.5" y2="75" stroke="black"/>
<line x1="213.5" y1="345" x2="213.5" y2="312" stroke="black"/>
<line x1="270" y1="210.5" x2="237" y2="210.5" stroke="black"/>
<line x1="191" y1="210.5" x2="158" y2="210.5" stroke="black"/>
<line x1="112" y1="210.5" x2="79" y2="210.5" stroke="black"/>
<line x1="350" y1="210.5" x2="317" y2="210.5" stroke="black"/>
<line x1="191.835" y1="131.355" x2="135.352" y2="187.355" stroke="black"/>
<line x1="237.354" y1="130.646" x2="293.354" y2="186.646" stroke="black"/>
</svg>
