<svg width="744" height="362" viewBox="0 0 744 362" fill="none" xmlns="http://www.w3.org/2000/svg">
<circle cx="181" cy="181" r="23" fill="#DDFCED"/>
<circle cx="563" cy="181" r="23" fill="#F8FCDD"/>
<circle cx="260" cy="181" r="23" fill="#F8FCDD"/>
<circle cx="642" cy="181" r="23" fill="#F8FCDD"/>
<circle cx="102" cy="181" r="23" fill="#F8FCDD"/>
<circle cx="484" cy="181" r="23" fill="#F8FCDD"/>
<circle cx="181" cy="260" r="23" fill="#F8FCDD"/>
<circle cx="563" cy="260" r="23" fill="#F8FCDD"/>
<circle cx="181" cy="102" r="23" fill="#F8FCDD"/>
<circle cx="563" cy="102" r="23" fill="#F8FCDD"/>
<circle cx="181" cy="23" r="23" fill="#DDE0FC"/>
<circle cx="563" cy="23" r="23" fill="#DDE0FC"/>
<circle cx="339" cy="181" r="23" fill="#DDE0FC"/>
<circle cx="721" cy="181" r="23" fill="#DDE0FC"/>
<circle cx="181" cy="339" r="23" fill="#DDE0FC"/>
<circle cx="563" cy="339" r="23" fill="#DDE0FC"/>
<circle cx="23" cy="181" r="23" fill="#DDE0FC"/>
<circle cx="405" cy="181" r="23" fill="#DDFCED"/>
<path d="M182.701 182.773H179.127L178.324 185H177.164L180.422 176.469H181.406L184.67 185H183.516L182.701 182.773ZM179.467 181.848H182.367L180.914 177.857L179.467 181.848Z" fill="black"/>
<path d="M564.701 182.773H561.127L560.324 185H559.164L562.422 176.469H563.406L566.67 185H565.516L564.701 182.773ZM561.467 181.848H564.367L562.914 177.857L561.467 181.848Z" fill="black"/>
<path d="M263.266 182.293C263.16 183.195 262.826 183.893 262.264 184.385C261.705 184.873 260.961 185.117 260.031 185.117C259.023 185.117 258.215 184.756 257.605 184.033C257 183.311 256.697 182.344 256.697 181.133V180.312C256.697 179.52 256.838 178.822 257.119 178.221C257.404 177.619 257.807 177.158 258.326 176.838C258.846 176.514 259.447 176.352 260.131 176.352C261.037 176.352 261.764 176.605 262.311 177.113C262.857 177.617 263.176 178.316 263.266 179.211H262.135C262.037 178.531 261.824 178.039 261.496 177.734C261.172 177.43 260.717 177.277 260.131 177.277C259.412 177.277 258.848 177.543 258.438 178.074C258.031 178.605 257.828 179.361 257.828 180.342V181.168C257.828 182.094 258.021 182.83 258.408 183.377C258.795 183.924 259.336 184.197 260.031 184.197C260.656 184.197 261.135 184.057 261.467 183.775C261.803 183.49 262.025 182.996 262.135 182.293H263.266Z" fill="black"/>
<path d="M645.266 182.293C645.16 183.195 644.826 183.893 644.264 184.385C643.705 184.873 642.961 185.117 642.031 185.117C641.023 185.117 640.215 184.756 639.605 184.033C639 183.311 638.697 182.344 638.697 181.133V180.312C638.697 179.52 638.838 178.822 639.119 178.221C639.404 177.619 639.807 177.158 640.326 176.838C640.846 176.514 641.447 176.352 642.131 176.352C643.037 176.352 643.764 176.605 644.311 177.113C644.857 177.617 645.176 178.316 645.266 179.211H644.135C644.037 178.531 643.824 178.039 643.496 177.734C643.172 177.43 642.717 177.277 642.131 177.277C641.412 177.277 640.848 177.543 640.438 178.074C640.031 178.605 639.828 179.361 639.828 180.342V181.168C639.828 182.094 640.021 182.83 640.408 183.377C640.795 183.924 641.336 184.197 642.031 184.197C642.656 184.197 643.135 184.057 643.467 183.775C643.803 183.49 644.025 182.996 644.135 182.293H645.266Z" fill="black"/>
<path d="M103.812 181.057H100.115V184.08H104.41V185H98.9902V176.469H104.352V177.395H100.115V180.137H103.812V181.057Z" fill="black"/>
<path d="M485.812 181.057H482.115V184.08H486.41V185H480.99V176.469H486.352V177.395H482.115V180.137H485.812V181.057Z" fill="black"/>
<path d="M177.99 264V255.469H180.398C181.141 255.469 181.797 255.633 182.367 255.961C182.938 256.289 183.377 256.756 183.686 257.361C183.998 257.967 184.156 258.662 184.16 259.447V259.992C184.16 260.797 184.004 261.502 183.691 262.107C183.383 262.713 182.939 263.178 182.361 263.502C181.787 263.826 181.117 263.992 180.352 264H177.99ZM179.115 256.395V263.08H180.299C181.166 263.08 181.84 262.811 182.32 262.271C182.805 261.732 183.047 260.965 183.047 259.969V259.471C183.047 258.502 182.818 257.75 182.361 257.215C181.908 256.676 181.264 256.402 180.428 256.395H179.115Z" fill="black"/>
<path d="M559.99 264V255.469H562.398C563.141 255.469 563.797 255.633 564.367 255.961C564.938 256.289 565.377 256.756 565.686 257.361C565.998 257.967 566.156 258.662 566.16 259.447V259.992C566.16 260.797 566.004 261.502 565.691 262.107C565.383 262.713 564.939 263.178 564.361 263.502C563.787 263.826 563.117 263.992 562.352 264H559.99ZM561.115 256.395V263.08H562.299C563.166 263.08 563.84 262.811 564.32 262.271C564.805 261.732 565.047 260.965 565.047 259.969V259.471C565.047 258.502 564.818 257.75 564.361 257.215C563.908 256.676 563.264 256.402 562.428 256.395H561.115Z" fill="black"/>
<path d="M177.99 106V97.4688H180.779C181.705 97.4688 182.4 97.6602 182.865 98.043C183.334 98.4258 183.568 98.9922 183.568 99.7422C183.568 100.141 183.455 100.494 183.229 100.803C183.002 101.107 182.693 101.344 182.303 101.512C182.764 101.641 183.127 101.887 183.393 102.25C183.662 102.609 183.797 103.039 183.797 103.539C183.797 104.305 183.549 104.906 183.053 105.344C182.557 105.781 181.855 106 180.949 106H177.99ZM179.115 102.01V105.08H180.973C181.496 105.08 181.908 104.945 182.209 104.676C182.514 104.402 182.666 104.027 182.666 103.551C182.666 102.523 182.107 102.01 180.99 102.01H179.115ZM179.115 101.107H180.814C181.307 101.107 181.699 100.984 181.992 100.738C182.289 100.492 182.438 100.158 182.438 99.7363C182.438 99.2676 182.301 98.9277 182.027 98.7168C181.754 98.502 181.338 98.3945 180.779 98.3945H179.115V101.107Z" fill="black"/>
<path d="M559.99 106V97.4688H562.779C563.705 97.4688 564.4 97.6602 564.865 98.043C565.334 98.4258 565.568 98.9922 565.568 99.7422C565.568 100.141 565.455 100.494 565.229 100.803C565.002 101.107 564.693 101.344 564.303 101.512C564.764 101.641 565.127 101.887 565.393 102.25C565.662 102.609 565.797 103.039 565.797 103.539C565.797 104.305 565.549 104.906 565.053 105.344C564.557 105.781 563.855 106 562.949 106H559.99ZM561.115 102.01V105.08H562.973C563.496 105.08 563.908 104.945 564.209 104.676C564.514 104.402 564.666 104.027 564.666 103.551C564.666 102.523 564.107 102.01 562.99 102.01H561.115ZM561.115 101.107H562.814C563.307 101.107 563.699 100.984 563.992 100.738C564.289 100.492 564.438 100.158 564.438 99.7363C564.438 99.2676 564.301 98.9277 564.027 98.7168C563.754 98.502 563.338 98.3945 562.779 98.3945H561.115V101.107Z" fill="black"/>
<path d="M184.289 25.8809C184 26.2949 183.596 26.6055 183.076 26.8125C182.561 27.0156 181.959 27.1172 181.271 27.1172C180.576 27.1172 179.959 26.9551 179.42 26.6309C178.881 26.3027 178.463 25.8379 178.166 25.2363C177.873 24.6348 177.723 23.9375 177.715 23.1445V22.4004C177.715 21.1152 178.014 20.1191 178.611 19.4121C179.213 18.7051 180.057 18.3516 181.143 18.3516C182.033 18.3516 182.75 18.5801 183.293 19.0371C183.836 19.4902 184.168 20.1348 184.289 20.9707H183.164C182.953 19.8418 182.281 19.2773 181.148 19.2773C180.395 19.2773 179.822 19.543 179.432 20.0742C179.045 20.6016 178.85 21.3672 178.846 22.3711V23.0684C178.846 24.0254 179.064 24.7871 179.502 25.3535C179.939 25.916 180.531 26.1973 181.277 26.1973C181.699 26.1973 182.068 26.1504 182.385 26.0566C182.701 25.9629 182.963 25.8047 183.17 25.582V23.666H181.195V22.752H184.289V25.8809Z" fill="black"/>
<path d="M566.289 25.8809C566 26.2949 565.596 26.6055 565.076 26.8125C564.561 27.0156 563.959 27.1172 563.271 27.1172C562.576 27.1172 561.959 26.9551 561.42 26.6309C560.881 26.3027 560.463 25.8379 560.166 25.2363C559.873 24.6348 559.723 23.9375 559.715 23.1445V22.4004C559.715 21.1152 560.014 20.1191 560.611 19.4121C561.213 18.7051 562.057 18.3516 563.143 18.3516C564.033 18.3516 564.75 18.5801 565.293 19.0371C565.836 19.4902 566.168 20.1348 566.289 20.9707H565.164C564.953 19.8418 564.281 19.2773 563.148 19.2773C562.395 19.2773 561.822 19.543 561.432 20.0742C561.045 20.6016 560.85 21.3672 560.846 22.3711V23.0684C560.846 24.0254 561.064 24.7871 561.502 25.3535C561.939 25.916 562.531 26.1973 563.277 26.1973C563.699 26.1973 564.068 26.1504 564.385 26.0566C564.701 25.9629 564.963 25.8047 565.17 25.582V23.666H563.195V22.752H566.289V25.8809Z" fill="black"/>
<path d="M342.547 185H341.416V181.057H337.115V185H335.99V176.469H337.115V180.137H341.416V176.469H342.547V185Z" fill="black"/>
<path d="M724.547 185H723.416V181.057H719.115V185H717.99V176.469H719.115V180.137H723.416V176.469H724.547V185Z" fill="black"/>
<path d="M179.197 343H178.072V334.469H179.197V343Z" fill="black"/>
<path d="M561.197 343H560.072V334.469H561.197V343Z" fill="black"/>
<path d="M24.6953 181.232H21.1152V185H19.9902V176.469H25.2754V177.395H21.1152V180.312H24.6953V181.232Z" fill="black"/>
<path d="M406.695 181.232H403.115V185H401.99V176.469H407.275V177.395H403.115V180.312H406.695V181.232Z" fill="black"/>
<line x1="180.5" y1="158" x2="180.5" y2="125" stroke="black"/>
<line x1="562.5" y1="158" x2="562.5" y2="125" stroke="black"/>
<line x1="180.5" y1="237" x2="180.5" y2="204" stroke="black"/>
<line x1="562.5" y1="237" x2="562.5" y2="204" stroke="#FF00B8"/>
<line x1="180.5" y1="79" x2="180.5" y2="46" stroke="black"/>
<line x1="562.5" y1="79" x2="562.5" y2="46" stroke="#FF00B8"/>
<line x1="180.5" y1="316" x2="180.5" y2="283" stroke="black"/>
<line x1="562.5" y1="316" x2="562.5" y2="283" stroke="#00FF38"/>
<line x1="237" y1="181.5" x2="204" y2="181.5" stroke="black"/>
<line x1="619" y1="181.5" x2="586" y2="181.5" stroke="#FF00B8"/>
<line x1="158" y1="181.5" x2="125" y2="181.5" stroke="black"/>
<line x1="540" y1="181.5" x2="507" y2="181.5" stroke="#FF8A8A"/>
<line x1="79" y1="181.5" x2="46" y2="181.5" stroke="black"/>
<line x1="461" y1="181.5" x2="428" y2="181.5" stroke="#0500FF"/>
<line x1="317" y1="181.5" x2="284" y2="181.5" stroke="black"/>
<line x1="699" y1="181.5" x2="666" y2="181.5" stroke="#00FF38"/>
<line x1="158.835" y1="102.355" x2="102.352" y2="158.355" stroke="black"/>
<line x1="540.835" y1="102.355" x2="484.352" y2="158.355" stroke="#FF8A8A"/>
<line x1="204.354" y1="101.646" x2="260.354" y2="157.646" stroke="black"/>
<line x1="586.354" y1="101.646" x2="642.354" y2="157.646" stroke="black"/>
<path d="M445.271 174H444.182V166.775L441.996 167.578V166.594L445.102 165.428H445.271V174Z" fill="#0500FF"/>
<path d="M509.299 127H503.709V126.221L506.662 122.939C507.1 122.443 507.4 122.041 507.564 121.732C507.732 121.42 507.816 121.098 507.816 120.766C507.816 120.32 507.682 119.955 507.412 119.67C507.143 119.385 506.783 119.242 506.334 119.242C505.795 119.242 505.375 119.396 505.074 119.705C504.777 120.01 504.629 120.436 504.629 120.982H503.545C503.545 120.197 503.797 119.562 504.301 119.078C504.809 118.594 505.486 118.352 506.334 118.352C507.127 118.352 507.754 118.561 508.215 118.979C508.676 119.393 508.906 119.945 508.906 120.637C508.906 121.477 508.371 122.477 507.301 123.637L505.016 126.115H509.299V127Z" fill="#FF8A8A"/>
<path d="M526.299 174H520.709V173.221L523.662 169.939C524.1 169.443 524.4 169.041 524.564 168.732C524.732 168.42 524.816 168.098 524.816 167.766C524.816 167.32 524.682 166.955 524.412 166.67C524.143 166.385 523.783 166.242 523.334 166.242C522.795 166.242 522.375 166.396 522.074 166.705C521.777 167.01 521.629 167.436 521.629 167.982H520.545C520.545 167.197 520.797 166.562 521.301 166.078C521.809 165.594 522.486 165.352 523.334 165.352C524.127 165.352 524.754 165.561 525.215 165.979C525.676 166.393 525.906 166.945 525.906 167.637C525.906 168.477 525.371 169.477 524.301 170.637L522.016 173.115H526.299V174Z" fill="#FF8A8A"/>
<path d="M600.285 169.207H601.1C601.611 169.199 602.014 169.064 602.307 168.803C602.6 168.541 602.746 168.188 602.746 167.742C602.746 166.742 602.248 166.242 601.252 166.242C600.783 166.242 600.408 166.377 600.127 166.646C599.85 166.912 599.711 167.266 599.711 167.707H598.627C598.627 167.031 598.873 166.471 599.365 166.025C599.861 165.576 600.49 165.352 601.252 165.352C602.057 165.352 602.688 165.564 603.145 165.99C603.602 166.416 603.83 167.008 603.83 167.766C603.83 168.137 603.709 168.496 603.467 168.844C603.229 169.191 602.902 169.451 602.488 169.623C602.957 169.771 603.318 170.018 603.572 170.361C603.83 170.705 603.959 171.125 603.959 171.621C603.959 172.387 603.709 172.994 603.209 173.443C602.709 173.893 602.059 174.117 601.258 174.117C600.457 174.117 599.805 173.9 599.301 173.467C598.801 173.033 598.551 172.461 598.551 171.75H599.641C599.641 172.199 599.787 172.559 600.08 172.828C600.373 173.098 600.766 173.232 601.258 173.232C601.781 173.232 602.182 173.096 602.459 172.822C602.736 172.549 602.875 172.156 602.875 171.645C602.875 171.148 602.723 170.768 602.418 170.502C602.113 170.236 601.674 170.1 601.1 170.092H600.285V169.207Z" fill="#FF00B8"/>
<path d="M683.285 171.135H684.469V172.02H683.285V174H682.195V172.02H678.311V171.381L682.131 165.469H683.285V171.135ZM679.541 171.135H682.195V166.951L682.066 167.186L679.541 171.135Z" fill="#00FF38"/>
<path d="M557.285 301.135H558.469V302.02H557.285V304H556.195V302.02H552.311V301.381L556.131 295.469H557.285V301.135ZM553.541 301.135H556.195V296.951L556.066 297.186L553.541 301.135Z" fill="#00FF38"/>
<path d="M554.285 220.207H555.1C555.611 220.199 556.014 220.064 556.307 219.803C556.6 219.541 556.746 219.188 556.746 218.742C556.746 217.742 556.248 217.242 555.252 217.242C554.783 217.242 554.408 217.377 554.127 217.646C553.85 217.912 553.711 218.266 553.711 218.707H552.627C552.627 218.031 552.873 217.471 553.365 217.025C553.861 216.576 554.49 216.352 555.252 216.352C556.057 216.352 556.688 216.564 557.145 216.99C557.602 217.416 557.83 218.008 557.83 218.766C557.83 219.137 557.709 219.496 557.467 219.844C557.229 220.191 556.902 220.451 556.488 220.623C556.957 220.771 557.318 221.018 557.572 221.361C557.83 221.705 557.959 222.125 557.959 222.621C557.959 223.387 557.709 223.994 557.209 224.443C556.709 224.893 556.059 225.117 555.258 225.117C554.457 225.117 553.805 224.9 553.301 224.467C552.801 224.033 552.551 223.461 552.551 222.75H553.641C553.641 223.199 553.787 223.559 554.08 223.828C554.373 224.098 554.766 224.232 555.258 224.232C555.781 224.232 556.182 224.096 556.459 223.822C556.736 223.549 556.875 223.156 556.875 222.645C556.875 222.148 556.723 221.768 556.418 221.502C556.113 221.236 555.674 221.1 555.1 221.092H554.285V220.207Z" fill="#FF00B8"/>
<path d="M554.285 62.207H555.1C555.611 62.1992 556.014 62.0645 556.307 61.8027C556.6 61.541 556.746 61.1875 556.746 60.7422C556.746 59.7422 556.248 59.2422 555.252 59.2422C554.783 59.2422 554.408 59.377 554.127 59.6465C553.85 59.9121 553.711 60.2656 553.711 60.707H552.627C552.627 60.0312 552.873 59.4707 553.365 59.0254C553.861 58.5762 554.49 58.3516 555.252 58.3516C556.057 58.3516 556.688 58.5645 557.145 58.9902C557.602 59.416 557.83 60.0078 557.83 60.7656C557.83 61.1367 557.709 61.4961 557.467 61.8438C557.229 62.1914 556.902 62.4512 556.488 62.623C556.957 62.7715 557.318 63.0176 557.572 63.3613C557.83 63.7051 557.959 64.125 557.959 64.6211C557.959 65.3867 557.709 65.9941 557.209 66.4434C556.709 66.8926 556.059 67.1172 555.258 67.1172C554.457 67.1172 553.805 66.9004 553.301 66.4668C552.801 66.0332 552.551 65.4609 552.551 64.75H553.641C553.641 65.1992 553.787 65.5586 554.08 65.8281C554.373 66.0977 554.766 66.2324 555.258 66.2324C555.781 66.2324 556.182 66.0957 556.459 65.8223C556.736 65.5488 556.875 65.1562 556.875 64.6445C556.875 64.1484 556.723 63.7676 556.418 63.502C556.113 63.2363 555.674 63.0996 555.1 63.0918H554.285V62.207Z" fill="#FF00B8"/>
</svg>
