<svg xmlns="http://www.w3.org/2000/svg" width="318" height="36" fill="none"><path fill="#000" d="M54.252 17.605 52.525 14.5l-5.86-10.531-1.26-2.263a1.21 1.21 0 0 0-1.058-.636H26.65a1.21 1.21 0 0 0-1.057.636l-1.41 2.533-6.19 11.13a.549.549 0 0 1-.613.26.556.556 0 0 1-.401-.544v-5.29c0-4.81-3.772-8.725-8.407-8.725H1.382c-.674 0-1.22.567-1.22 1.267v7.458c0 3.48 1.995 6.589 5.084 7.924a.562.562 0 0 1 .335.517v.004c0 .229-.132.43-.335.521C2.175 20.087.179 23.18.16 26.636v7.512c0 .7.547 1.267 1.22 1.267h7.187c4.636 0 8.407-3.914 8.407-8.725V21.4a.56.56 0 0 1 .401-.544.545.545 0 0 1 .613.265l6.591 11.843 1.01 1.815a1.21 1.21 0 0 0 1.057.636h17.695a1.21 1.21 0 0 0 1.058-.636l1.872-3.365 4.402-7.915.062-.115 2.022-3.635.485-.873c.225-.393.225-.878.009-1.271Zm-18.62 7.302c-3.45 0-6.262-2.99-6.262-6.667 0-3.676 2.807-6.667 6.261-6.667 3.45 0 6.261 2.99 6.261 6.667 0 3.677-2.81 6.667-6.26 6.667ZM133.81.196c-10.389 0-17.633 7.865-17.633 17.902 0 10.041 7.244 17.902 17.633 17.902 10.39 0 17.634-7.865 17.634-17.902S144.2.196 133.81.196Zm.313 30.335c-4.239.114-6.768-4.029-6.97-12.168-.225-8.962 2.106-12.58 6.287-12.694 4.349-.118 6.808 3.425 7.033 12.333.207 8.194-2.058 12.415-6.35 12.529ZM78.42.791H64.695c-.763 0-1.238.494-1.238 1.285v1.88c0 .84.286 1.138 1 1.435l.903.348c1 .393 1.335.937 1.335 2.026v20.672c0 1.089-.335 1.633-1.335 2.026l-.903.348c-.714.297-1 .594-1 1.435v1.88c0 .79.475 1.285 1.238 1.285H78.42c.762 0 1.238-.494 1.238-1.285v-1.88c0-.841-.286-1.138-1-1.435l-.903-.348c-1-.393-1.335-.937-1.335-2.026V7.765c0-1.089.334-1.633 1.335-2.026l.903-.348c.714-.297 1-.594 1-1.435v-1.88c0-.79-.476-1.285-1.238-1.285ZM115.098 30.861l-.524-.297c-1.287-.741-2.239-1.285-3.481-3.315l-4.481-7.467c-.238-.398-.097-.69.335-.791 3.762-1.038 5.908-3.316 5.908-7.372 0-7.659-5.754-10.832-18.052-10.832l-10.923.1c-.762.101-1.146.545-1.146 1.285v1.88c0 .841.287 1.138.904 1.385l1.097.444c.903.398 1.238.891 1.238 1.88v20.672c0 1.088-.335 1.632-1.335 2.026l-.903.347c-.714.297-1 .595-1 1.436v1.88c0 .79.475 1.284 1.237 1.284h13.726c.81 0 1.238-.494 1.238-1.285v-1.879c0-.841-.286-1.139-1-1.436l-.908-.347c-1-.394-1.335-.938-1.335-2.026v-7.668c0-.444.141-.595.476-.595.383 0 .621.297.952.892l6.53 12.264c.81 1.532 1.427 2.076 3.097 2.076h8.341c.811 0 1.146-.444 1.146-1.089v-1.778c.009-.782-.229-1.13-1.137-1.674ZM97.464 16.023h-1.048c-.392 0-.674-.293-.674-.7V5.876c0-.407.281-.7.674-.7h1.101c3.706 0 6.002 1.395 6.002 5.264 0 3.864-1.776 5.583-6.055 5.583ZM315.933 5.739l.904-.348c.713-.297 1-.594 1-1.435v-1.88c0-.79-.428-1.285-1.238-1.285h-13.726c-.762 0-1.238.494-1.238 1.285v1.88c0 .84.287 1.138 1 1.435l.904.348c1 .393 1.335.937 1.335 2.026v6.232c0 .348-.238.594-.573.594h-10.099c-.335 0-.573-.246-.573-.594V7.765c0-1.089.335-1.633 1.335-2.026l.908-.348c.714-.297 1-.594 1-1.435v-1.88c0-.79-.427-1.285-1.238-1.285h-13.725c-.763 0-1.239.494-1.239 1.285v1.88c0 .84.287 1.138 1.001 1.435l.903.348c1 .393 1.335.937 1.335 2.026v20.672c0 1.089-.335 1.633-1.335 2.026l-.903.348c-.714.297-1.001.594-1.001 1.435v1.88c0 .79.476 1.285 1.239 1.285h13.725c.811 0 1.238-.494 1.238-1.285v-1.88c0-.841-.286-1.138-1-1.435l-.908-.348c-1-.393-1.335-.937-1.335-2.026v-8.212c0-.348.238-.595.573-.595h10.103c.335 0 .573.247.573.595v8.212c0 1.089-.335 1.633-1.335 2.026l-.903.348c-.714.297-1 .594-1 1.435v1.88c0 .79.475 1.285 1.238 1.285h13.725c.811 0 1.238-.494 1.238-1.285v-1.88c0-.841-.286-1.138-1-1.435l-.903-.348c-1-.393-1.335-.937-1.335-2.026V7.765c-.005-1.089.33-1.633 1.33-2.026ZM268.285 13.453l-5.816-1.779c-2.86-.892-4.384-1.93-4.384-3.658 0-1.683 1.524-2.753 3.859-2.771 3.279-.027 6.2 1.532 10.39 6.232.573.645 1.19.892 2.049.398l1-.594c.86-.494.987-1.23.573-1.98l-4.164-7.467c-.48-.883-.81-1.486-1.811-1.486h-.458c-1.146 0-1.287.544-2.432.544-1.476 0-3.062-.595-5.768-.595-7.482 0-12.342 3.76-12.342 10.385 0 5.537 3.86 8.656 8.628 10.288l6.195 2.127c3.049 1.037 4.67 2.226 4.67 4.403 0 2.323-1.714 3.36-4.525 3.36-4.287 0-8.006-2.523-11.914-7.864-.621-.841-1.238-.988-2.049-.595l-1.573.791c-.714.348-.917 1.093-.476 2.026l4.389 9.347c.396.841.951 1.189 1.621 1.189h.569c1.048 0 1.762-.741 2.718-.741 1.763 0 3.525.891 7.482.891 7.909 0 13.536-3.809 13.536-11.125-.005-6.776-4.345-9.643-9.967-11.326ZM244.155.791H230.43c-.762 0-1.238.494-1.238 1.285v1.88c0 .84.286 1.138 1 1.435l.903.348c1.001.393 1.335.937 1.335 2.026v20.672c0 1.089-.334 1.633-1.335 2.026l-.903.348c-.714.297-1 .594-1 1.435v1.88c0 .79.476 1.285 1.238 1.285h13.725c.763 0 1.239-.494 1.239-1.285v-1.88c0-.841-.287-1.138-1.001-1.435l-.903-.348c-1-.393-1.335-.937-1.335-2.026V7.765c0-1.089.335-1.633 1.335-2.026l.903-.348c.714-.297 1.001-.594 1.001-1.435v-1.88c0-.79-.476-1.285-1.239-1.285ZM223.455.942C223.138.37 222.834 0 222.12 0h-.947c-.524 0-.815.128-1.212.448-.432.343-.806.343-1.74.343h-17.748c-.763 0-1.239.494-1.239 1.285v1.88c0 .84.287 1.138 1.001 1.435l.903.348c1 .393 1.335.937 1.335 2.025v20.673c0 1.088-.335 1.633-1.335 2.026l-.903.347c-.714.298-1.001.595-1.001 1.436v1.88c0 .79.476 1.284 1.239 1.284h14.39c.811 0 1.238-.493 1.238-1.284v-1.88c0-.841-.238-1.234-1-1.436l-1.573-.443c-1.049-.297-1.335-.841-1.335-1.93v-8.706c0-.348.238-.595.573-.595h.811c3.718 0 6.005 1.98 8.341 4.797.334.398.762.544 1.335.247l1.189-.645c.525-.297.719-.773.476-1.285l-3.692-7.864c-.212-.449-.476-.723-1.022-.723h-.586c-.401 0-.657.114-1.023.416-.33.265-.731.453-1.242.453h-4.587c-.335 0-.573-.247-.573-.595V7.61c0-1.779.665-2.474 2.476-2.474 3.098 0 7.341 2.821 9.817 5.391.428.444.952.544 1.525.197l1.287-.842c.427-.297.718-.763.427-1.284l-4.27-7.655ZM186.208 31.259l-1.097-.394c-1-.347-1.335-.941-1.335-2.03V7.321c0-1.088.335-1.632 1.335-2.026l.908-.347c.714-.297 1-.595 1-1.436V2.076c0-.79-.427-1.285-1.238-1.285h-9.152c-.762 0-1.238.494-1.238 1.285v1.436c0 .841.287 1.139 1 1.436l.904.347c1 .394 1.335.938 1.335 2.026v12.117c0 .206-.159.37-.357.37a.35.35 0 0 1-.273-.136L165.834 1.98c-.304-.48-.612-.795-.93-.951-.317-.155-.753-.233-1.308-.233h-9.077c-.762 0-1.238.494-1.238 1.285v1.88c0 .84.286 1.138 1 1.435l.903.347c1 .394 1.335.938 1.335 2.026v21.117c0 1.088-.335 1.632-1.335 2.03l-.903.347c-.714.297-1 .595-1 1.436v1.436c0 .79.476 1.285 1.238 1.285h9.152c.81 0 1.238-.494 1.238-1.285v-1.436c0-.841-.287-1.138-1-1.436l-.904-.347c-1-.398-1.335-.942-1.335-2.03V15.25c0-.206.159-.37.357-.37.11 0 .212.054.273.137l13.47 19.21c.3.48.613.795.93.95.317.156.753.234 1.308.234h7.963c.81 0 1.238-.494 1.238-1.285V32.69c0-.841-.287-1.184-1.001-1.431Z"/></svg>