<svg width="1140" height="545" viewBox="0 0 1140 545" fill="none" xmlns="http://www.w3.org/2000/svg">
<g clip-path="url(#clip0)">
<path d="M1001.14 0.835693H961.938L942.347 34.7797L961.938 68.7238H1001.14L1020.73 34.7797L1001.14 0.835693Z" stroke="#FFEBCF" stroke-width="2" stroke-miterlimit="10"/>
<path d="M996.848 8.26196H966.234L950.914 34.7799L966.234 61.2978H996.848L1012.17 34.7799L996.848 8.26196Z" stroke="#FFEBCF" stroke-width="2" stroke-miterlimit="10"/>
<path d="M992.561 15.688H970.521L959.497 34.7798L970.521 53.8717H992.561L1003.58 34.7798L992.561 15.688Z" stroke="#FFEBCF" stroke-width="2" stroke-miterlimit="10"/>
<path d="M988.281 23.114H974.8L968.064 34.7797L974.8 46.4455H988.281L995.009 34.7797L988.281 23.114Z" stroke="#FFEBCF" stroke-width="2" stroke-miterlimit="10"/>
<path d="M983.985 30.54H979.088L976.639 34.7797L979.088 39.0193H983.985L986.443 34.7797L983.985 30.54Z" stroke="#FFEBCF" stroke-width="2" stroke-miterlimit="10"/>
<path d="M942.347 102.668H903.149L883.559 136.612L903.149 170.556H942.347L961.938 136.612L942.347 102.668Z" stroke="#FFEBCF" stroke-width="2" stroke-miterlimit="10"/>
<path d="M938.06 110.094H907.437L892.125 136.612L907.437 163.13H938.06L953.371 136.612L938.06 110.094Z" stroke="#FFEBCF" stroke-width="2" stroke-miterlimit="10"/>
<path d="M933.772 117.52H911.724L900.7 136.612L911.724 155.704H933.772L944.796 136.612L933.772 117.52Z" stroke="#FFEBCF" stroke-width="2" stroke-miterlimit="10"/>
<path d="M929.484 124.937H916.012L909.284 136.612L916.012 148.278H929.484L936.229 136.612L929.484 124.937Z" stroke="#FFEBCF" stroke-width="2" stroke-miterlimit="10"/>
<path d="M925.197 132.364H920.299L917.85 136.612L920.299 140.852H925.197L927.646 136.612L925.197 132.364Z" stroke="#FFEBCF" stroke-width="2" stroke-miterlimit="10"/>
<path d="M824.763 238.444H785.57L765.971 272.388L785.57 306.323H824.763L844.352 272.388L824.763 238.444Z" stroke="#FFEBCF" stroke-width="2" stroke-miterlimit="10"/>
<path d="M820.478 245.861H789.855L774.547 272.388L789.855 298.906H820.478L835.786 272.388L820.478 245.861Z" stroke="#FFEBCF" stroke-width="2" stroke-miterlimit="10"/>
<path d="M816.186 253.287H794.14L783.117 272.388L794.14 291.48H816.186L827.209 272.388L816.186 253.287Z" stroke="#FFEBCF" stroke-width="2" stroke-miterlimit="10"/>
<path d="M811.901 260.713H798.424L791.694 272.388L798.424 284.054H811.901L818.64 272.388L811.901 260.713Z" stroke="#FFEBCF" stroke-width="2" stroke-miterlimit="10"/>
<path d="M807.617 268.139H802.717L800.262 272.388L802.717 276.628H807.617L810.063 272.388L807.617 268.139Z" stroke="#FFEBCF" stroke-width="2" stroke-miterlimit="10"/>
<path d="M648.385 136.612H609.192L589.591 170.556L609.192 204.5H648.385L667.985 170.556L648.385 136.612Z" stroke="#FFEBCF" stroke-width="2" stroke-miterlimit="10"/>
<path d="M644.1 144.038H613.476L598.169 170.556L613.476 197.074H644.1L659.407 170.556L644.1 144.038Z" stroke="#FFEBCF" stroke-width="2" stroke-miterlimit="10"/>
<path d="M639.816 151.465H617.77L606.737 170.556L617.77 189.648H639.816L650.839 170.556L639.816 151.465Z" stroke="#FFEBCF" stroke-width="2" stroke-miterlimit="10"/>
<path d="M635.523 158.881H622.055L615.316 170.556L622.055 182.222H635.523L642.262 170.556L635.523 158.881Z" stroke="#FFEBCF" stroke-width="2" stroke-miterlimit="10"/>
<path d="M631.239 166.307H626.339L623.893 170.556L626.339 174.795H631.239L633.685 170.556L631.239 166.307Z" stroke="#FFEBCF" stroke-width="2" stroke-miterlimit="10"/>
<path d="M765.971 136.612H726.778L707.178 170.556L726.778 204.5H765.971L785.571 170.556L765.971 136.612Z" stroke="#FFEBCF" stroke-width="2" stroke-miterlimit="10"/>
<path d="M761.686 144.038H731.063L715.755 170.556L731.063 197.074H761.686L776.994 170.556L761.686 144.038Z" stroke="#FFEBCF" stroke-width="2" stroke-miterlimit="10"/>
<path d="M757.393 151.465H735.347L724.323 170.556L735.347 189.648H757.393L768.416 170.556L757.393 151.465Z" stroke="#FFEBCF" stroke-width="2" stroke-miterlimit="10"/>
<path d="M753.109 158.881H739.64L732.901 170.556L739.64 182.222H753.109L759.848 170.556L753.109 158.881Z" stroke="#FFEBCF" stroke-width="2" stroke-miterlimit="10"/>
<path d="M748.825 166.307H743.924L741.47 170.556L743.924 174.795H748.825L751.27 170.556L748.825 166.307Z" stroke="#FFEBCF" stroke-width="2" stroke-miterlimit="10"/>
<path d="M530.799 0.835693H491.607L472.015 34.7797L491.607 68.7238H530.799L550.399 34.7797L530.799 0.835693Z" stroke="#FFEBCF" stroke-width="2" stroke-miterlimit="10"/>
<path d="M526.515 8.26196H495.891L480.584 34.7799L495.891 61.2978H526.515L541.822 34.7799L526.515 8.26196Z" stroke="#FFEBCF" stroke-width="2" stroke-miterlimit="10"/>
<path d="M522.23 15.688H500.183L489.16 34.7798L500.183 53.8717H522.23L533.253 34.7798L522.23 15.688Z" stroke="#FFEBCF" stroke-width="2" stroke-miterlimit="10"/>
<path d="M517.946 23.114H504.468L497.729 34.7797L504.468 46.4455H517.946L524.676 34.7797L517.946 23.114Z" stroke="#FFEBCF" stroke-width="2" stroke-miterlimit="10"/>
<path d="M513.653 30.54H508.753L506.307 34.7797L508.753 39.0193H513.653L516.107 34.7797L513.653 30.54Z" stroke="#FFEBCF" stroke-width="2" stroke-miterlimit="10"/>
<path d="M236.843 34.7798H197.65L178.05 68.7238L197.65 102.668H236.843L256.443 68.7238L236.843 34.7798Z" stroke="#FFEBCF" stroke-width="2" stroke-miterlimit="10"/>
<path d="M232.558 42.2058H201.935L186.627 68.7238L201.935 95.2417H232.558L247.866 68.7238L232.558 42.2058Z" stroke="#FFEBCF" stroke-width="2" stroke-miterlimit="10"/>
<path d="M228.265 49.6321H206.219L195.196 68.7239L206.219 87.816H228.265L239.288 68.7239L228.265 49.6321Z" stroke="#FFEBCF" stroke-width="2" stroke-miterlimit="10"/>
<path d="M223.982 57.0581H210.512L203.773 68.7239L210.512 80.3897H223.982L230.72 68.7239L223.982 57.0581Z" stroke="#FFEBCF" stroke-width="2" stroke-miterlimit="10"/>
<path d="M219.697 64.4841H214.796L212.342 68.7238L214.796 72.9634H219.697L222.142 68.7238L219.697 64.4841Z" stroke="#FFEBCF" stroke-width="2" stroke-miterlimit="10"/>
<path d="M119.257 170.556H80.0647L60.4641 204.5L80.0647 238.444H119.257L138.858 204.5L119.257 170.556Z" stroke="#FFEBCF" stroke-width="2" stroke-miterlimit="10"/>
<path d="M114.973 177.982H84.3491L69.0414 204.5L84.3491 231.018H114.973L130.28 204.5L114.973 177.982Z" stroke="#FFEBCF" stroke-width="2" stroke-miterlimit="10"/>
<path d="M110.688 185.4H88.6417L77.6187 204.501L88.6417 223.592H110.688L121.711 204.501L110.688 185.4Z" stroke="#FFEBCF" stroke-width="2" stroke-miterlimit="10"/>
<path d="M106.395 192.825H92.9267L86.1879 204.5L92.9267 216.165H106.395L113.134 204.5L106.395 192.825Z" stroke="#FFEBCF" stroke-width="2" stroke-miterlimit="10"/>
<path d="M102.111 200.251H97.2109L94.7654 204.501L97.2109 208.74H102.111L104.566 204.501L102.111 200.251Z" stroke="#FFEBCF" stroke-width="2" stroke-miterlimit="10"/>
<path d="M60.4644 136.621H21.2722L1.67154 170.565L21.2722 204.509H60.4644L80.0651 170.565L60.4644 136.621Z" stroke="#FFEBCF" stroke-width="2" stroke-miterlimit="10"/>
<path d="M56.18 144.047H25.5563L10.2489 170.565L25.5563 197.083H56.18L71.4873 170.565L56.18 144.047Z" stroke="#FFEBCF" stroke-width="2" stroke-miterlimit="10"/>
<path d="M51.8956 151.473H29.8493L18.8262 170.565L29.8493 189.657H51.8956L62.9186 170.565L51.8956 151.473Z" stroke="#FFEBCF" stroke-width="2" stroke-miterlimit="10"/>
<path d="M47.6029 158.9H34.1342L27.3954 170.565L34.1342 182.231H47.6029L54.3417 170.565L47.6029 158.9Z" stroke="#FFEBCF" stroke-width="2" stroke-miterlimit="10"/>
<path d="M43.3185 166.325H38.4183L35.9727 170.565L38.4183 174.804H43.3185L45.773 170.565L43.3185 166.325Z" stroke="#FFEBCF" stroke-width="2" stroke-miterlimit="10"/>
<path d="M119.257 306.323H80.0647L60.4641 340.268L80.0647 374.212H119.257L138.858 340.268L119.257 306.323Z" stroke="#FFEBCF" stroke-width="2" stroke-miterlimit="10"/>
<path d="M114.973 313.749H84.3491L69.0414 340.267L84.3491 366.785H114.973L130.28 340.267L114.973 313.749Z" stroke="#FFEBCF" stroke-width="2" stroke-miterlimit="10"/>
<path d="M110.688 321.176H88.6417L77.6187 340.267L88.6417 359.368H110.688L121.711 340.267L110.688 321.176Z" stroke="#FFEBCF" stroke-width="2" stroke-miterlimit="10"/>
<path d="M106.395 328.602H92.9267L86.1879 340.267L92.9267 351.942H106.395L113.134 340.267L106.395 328.602Z" stroke="#FFEBCF" stroke-width="2" stroke-miterlimit="10"/>
<path d="M102.111 336.028H97.2109L94.7654 340.267L97.2109 344.516H102.111L104.566 340.267L102.111 336.028Z" stroke="#FFEBCF" stroke-width="2" stroke-miterlimit="10"/>
<path d="M354.429 374.212H315.237L295.636 408.155L315.237 442.099H354.429L374.02 408.155L354.429 374.212Z" stroke="#FFEBCF" stroke-width="2" stroke-miterlimit="10"/>
<path d="M350.135 381.638H319.52L304.204 408.155L319.52 434.674H350.135L365.452 408.155L350.135 381.638Z" stroke="#FFEBCF" stroke-width="2" stroke-miterlimit="10"/>
<path d="M345.85 389.063H323.804L312.781 408.155L323.804 427.248H345.85L356.874 408.155L345.85 389.063Z" stroke="#FFEBCF" stroke-width="2" stroke-miterlimit="10"/>
<path d="M341.567 396.489H328.089L321.36 408.155L328.089 419.83H341.567L348.306 408.155L341.567 396.489Z" stroke="#FFEBCF" stroke-width="2" stroke-miterlimit="10"/>
<path d="M337.283 403.916H332.383L329.928 408.155L332.383 412.404H337.283L339.728 408.155L337.283 403.916Z" stroke="#FFEBCF" stroke-width="2" stroke-miterlimit="10"/>
<path d="M413.222 340.268H374.021L354.429 374.212L374.021 408.155H413.222L432.814 374.212L413.222 340.268Z" stroke="#FFEBCF" stroke-width="2" stroke-miterlimit="10"/>
<path d="M408.928 347.693H378.314L362.997 374.212L378.314 400.729H408.928L424.245 374.212L408.928 347.693Z" stroke="#FFEBCF" stroke-width="2" stroke-miterlimit="10"/>
<path d="M404.644 355.119H382.598L371.575 374.212L382.598 393.303H404.644L415.667 374.212L404.644 355.119Z" stroke="#FFEBCF" stroke-width="2" stroke-miterlimit="10"/>
<path d="M400.361 362.546H386.883L380.153 374.212L386.883 385.886H400.361L407.1 374.212L400.361 362.546Z" stroke="#FFEBCF" stroke-width="2" stroke-miterlimit="10"/>
<path d="M396.067 369.972H391.175L388.722 374.212L391.175 378.46H396.067L398.522 374.212L396.067 369.972Z" stroke="#FFEBCF" stroke-width="2" stroke-miterlimit="10"/>
<path d="M60.4644 476.043H21.2722L1.67154 509.988L21.2722 543.931H60.4644L80.0651 509.988L60.4644 476.043Z" stroke="#FFEBCF" stroke-width="2" stroke-miterlimit="10"/>
<path d="M56.18 483.469H25.5563L10.2489 509.988L25.5563 536.505H56.18L71.4873 509.988L56.18 483.469Z" stroke="#FFEBCF" stroke-width="2" stroke-miterlimit="10"/>
<path d="M51.8956 490.895H29.8493L18.8262 509.988L29.8493 529.079H51.8956L62.9186 509.988L51.8956 490.895Z" stroke="#FFEBCF" stroke-width="2" stroke-miterlimit="10"/>
<path d="M47.6029 498.322H34.1342L27.3954 509.988L34.1342 521.654H47.6029L54.3417 509.988L47.6029 498.322Z" stroke="#FFEBCF" stroke-width="2" stroke-miterlimit="10"/>
<path d="M43.3185 505.748H38.4183L35.9727 509.988L38.4183 514.227H43.3185L45.773 509.988L43.3185 505.748Z" stroke="#FFEBCF" stroke-width="2" stroke-miterlimit="10"/>
<path d="M179.558 476.043H140.366L120.766 509.988L140.366 543.931H179.558L199.159 509.988L179.558 476.043Z" stroke="#FFEBCF" stroke-width="2" stroke-miterlimit="10"/>
<path d="M175.274 483.469H144.65L129.343 509.988L144.65 536.505H175.274L190.581 509.988L175.274 483.469Z" stroke="#FFEBCF" stroke-width="2" stroke-miterlimit="10"/>
<path d="M170.981 490.895H148.935L137.912 509.988L148.935 529.079H170.981L182.004 509.988L170.981 490.895Z" stroke="#FFEBCF" stroke-width="2" stroke-miterlimit="10"/>
<path d="M166.697 498.322H153.228L146.489 509.988L153.228 521.654H166.697L173.436 509.988L166.697 498.322Z" stroke="#FFEBCF" stroke-width="2" stroke-miterlimit="10"/>
<path d="M162.412 505.748H157.512L155.058 509.988L157.512 514.227H162.412L164.858 509.988L162.412 505.748Z" stroke="#FFEBCF" stroke-width="2" stroke-miterlimit="10"/>
<path d="M589.591 442.099H550.399L530.799 476.044L550.399 509.988H589.591L609.192 476.044L589.591 442.099Z" stroke="#FFEBCF" stroke-width="2" stroke-miterlimit="10"/>
<path d="M585.307 449.526H554.684L539.375 476.044L554.684 502.561H585.307L600.615 476.044L585.307 449.526Z" stroke="#FFEBCF" stroke-width="2" stroke-miterlimit="10"/>
<path d="M581.023 456.952H558.977L547.954 476.044L558.977 495.135H581.023L592.046 476.044L581.023 456.952Z" stroke="#FFEBCF" stroke-width="2" stroke-miterlimit="10"/>
<path d="M576.73 464.378H563.261L556.522 476.044L563.261 487.709H576.73L583.469 476.044L576.73 464.378Z" stroke="#FFEBCF" stroke-width="2" stroke-miterlimit="10"/>
<path d="M572.446 471.804H567.545L565.1 476.044L567.545 480.292H572.446L574.9 476.044L572.446 471.804Z" stroke="#FFEBCF" stroke-width="2" stroke-miterlimit="10"/>
<path d="M707.177 306.323H667.985L648.384 340.268L667.985 374.212H707.177L726.778 340.268L707.177 306.323Z" stroke="#FFEBCF" stroke-width="2" stroke-miterlimit="10"/>
<path d="M702.893 313.749H672.269L656.962 340.267L672.269 366.785H702.893L718.2 340.267L702.893 313.749Z" stroke="#FFEBCF" stroke-width="2" stroke-miterlimit="10"/>
<path d="M698.609 321.176H676.553L665.53 340.267L676.553 359.368H698.609L709.632 340.267L698.609 321.176Z" stroke="#FFEBCF" stroke-width="2" stroke-miterlimit="10"/>
<path d="M694.316 328.602H680.847L674.108 340.267L680.847 351.942H694.316L701.054 340.267L694.316 328.602Z" stroke="#FFEBCF" stroke-width="2" stroke-miterlimit="10"/>
<path d="M690.031 336.028H685.131L682.685 340.267L685.131 344.516H690.031L692.476 340.267L690.031 336.028Z" stroke="#FFEBCF" stroke-width="2" stroke-miterlimit="10"/>
<path d="M883.559 0.835693H844.352L824.763 34.7797L844.352 68.7238H883.559L903.149 34.7797L883.559 0.835693Z" stroke="#FFEBCF" stroke-width="2" stroke-miterlimit="10"/>
<path d="M879.263 8.26196H848.648L833.332 34.7799L848.648 61.2978H879.263L894.582 34.7799L879.263 8.26196Z" stroke="#FFEBCF" stroke-width="2" stroke-miterlimit="10"/>
<path d="M874.983 15.688H852.936L841.912 34.7798L852.936 53.8717H874.983L885.999 34.7798L874.983 15.688Z" stroke="#FFEBCF" stroke-width="2" stroke-miterlimit="10"/>
<path d="M870.696 23.114H857.215L850.487 34.7797L857.215 46.4455H870.696L877.432 34.7797L870.696 23.114Z" stroke="#FFEBCF" stroke-width="2" stroke-miterlimit="10"/>
<path d="M866.408 30.54H861.511L859.054 34.7797L861.511 39.0193H866.408L868.857 34.7797L866.408 30.54Z" stroke="#FFEBCF" stroke-width="2" stroke-miterlimit="10"/>
<path d="M1118.72 476.043H1079.52L1059.92 509.988L1079.52 543.931H1118.72L1138.32 509.988L1118.72 476.043Z" stroke="#FFEBCF" stroke-width="2" stroke-miterlimit="10"/>
<path d="M1114.43 483.469H1083.81L1068.51 509.988L1083.81 536.505H1114.43L1129.74 509.988L1114.43 483.469Z" stroke="#FFEBCF" stroke-width="2" stroke-miterlimit="10"/>
<path d="M1110.15 490.895H1088.11L1077.08 509.988L1088.11 529.079H1110.15L1121.17 509.988L1110.15 490.895Z" stroke="#FFEBCF" stroke-width="2" stroke-miterlimit="10"/>
<path d="M1105.86 498.322H1092.39L1085.65 509.988L1092.39 521.654H1105.86L1112.59 509.988L1105.86 498.322Z" stroke="#FFEBCF" stroke-width="2" stroke-miterlimit="10"/>
<path d="M1101.57 505.748H1096.67L1094.22 509.988L1096.67 514.227H1101.57L1104.03 509.988L1101.57 505.748Z" stroke="#FFEBCF" stroke-width="2" stroke-miterlimit="10"/>
<path d="M1059.92 374.211H1020.73L1001.14 408.155L1020.73 442.099H1059.92L1079.52 408.155L1059.92 374.211Z" stroke="#FFEBCF" stroke-width="2" stroke-miterlimit="10"/>
<path d="M1020.73 374.211L1059.92 442.099" stroke="#FFEBCF" stroke-width="2" stroke-miterlimit="10"/>
<path d="M1059.92 374.211L1020.73 442.099" stroke="#FFEBCF" stroke-width="2" stroke-miterlimit="10"/>
<path d="M1001.14 408.155H1079.52" stroke="#FFEBCF" stroke-width="2" stroke-miterlimit="10"/>
<path d="M942.347 374.211H903.149L883.559 408.155L903.149 442.099H942.347L961.938 408.155L942.347 374.211Z" stroke="#FFEBCF" stroke-width="2" stroke-miterlimit="10"/>
<path d="M903.149 374.211L942.347 442.099" stroke="#FFEBCF" stroke-width="2" stroke-miterlimit="10"/>
<path d="M942.347 374.211L903.149 442.099" stroke="#FFEBCF" stroke-width="2" stroke-miterlimit="10"/>
<path d="M883.559 408.155H961.938" stroke="#FFEBCF" stroke-width="2" stroke-miterlimit="10"/>
<path d="M765.971 272.388H726.778L707.178 306.323L726.778 340.267H765.971L785.571 306.323L765.971 272.388Z" stroke="#FFEBCF" stroke-width="2" stroke-miterlimit="10"/>
<path d="M726.778 272.388L765.971 340.267" stroke="#FFEBCF" stroke-width="2" stroke-miterlimit="10"/>
<path d="M765.971 272.388L726.778 340.267" stroke="#FFEBCF" stroke-width="2" stroke-miterlimit="10"/>
<path d="M707.178 306.323H785.571" stroke="#FFEBCF" stroke-width="2" stroke-miterlimit="10"/>
<path d="M707.177 374.211H667.985L648.384 408.155L667.985 442.099H707.177L726.778 408.155L707.177 374.211Z" stroke="#FFEBCF" stroke-width="2" stroke-miterlimit="10"/>
<path d="M667.985 374.211L707.178 442.099" stroke="#FFEBCF" stroke-width="2" stroke-miterlimit="10"/>
<path d="M707.178 374.211L667.985 442.099" stroke="#FFEBCF" stroke-width="2" stroke-miterlimit="10"/>
<path d="M648.384 408.155H726.778" stroke="#FFEBCF" stroke-width="2" stroke-miterlimit="10"/>
<path d="M648.385 476.043H609.192L589.591 509.988L609.192 543.931H648.385L667.985 509.988L648.385 476.043Z" stroke="#FFEBCF" stroke-width="2" stroke-miterlimit="10"/>
<path d="M609.193 476.043L648.385 543.931" stroke="#FFEBCF" stroke-width="2" stroke-miterlimit="10"/>
<path d="M648.385 476.043L609.193 543.931" stroke="#FFEBCF" stroke-width="2" stroke-miterlimit="10"/>
<path d="M589.591 509.988H667.985" stroke="#FFEBCF" stroke-width="2" stroke-miterlimit="10"/>
<path d="M530.799 340.268H491.607L472.015 374.212L491.607 408.155H530.799L550.399 374.212L530.799 340.268Z" stroke="#FFEBCF" stroke-width="2" stroke-miterlimit="10"/>
<path d="M491.607 340.268L530.799 408.155" stroke="#FFEBCF" stroke-width="2" stroke-miterlimit="10"/>
<path d="M530.799 340.268L491.607 408.155" stroke="#FFEBCF" stroke-width="2" stroke-miterlimit="10"/>
<path d="M472.015 374.212H550.399" stroke="#FFEBCF" stroke-width="2" stroke-miterlimit="10"/>
<path d="M530.799 136.612H491.607L472.015 170.556L491.607 204.5H530.799L550.399 170.556L530.799 136.612Z" stroke="#FFEBCF" stroke-width="2" stroke-miterlimit="10"/>
<path d="M491.607 136.612L530.799 204.5" stroke="#FFEBCF" stroke-width="2" stroke-miterlimit="10"/>
<path d="M530.799 136.612L491.607 204.5" stroke="#FFEBCF" stroke-width="2" stroke-miterlimit="10"/>
<path d="M472.015 170.556H550.399" stroke="#FFEBCF" stroke-width="2" stroke-miterlimit="10"/>
<path d="M472.014 34.7798H432.813L413.222 68.7238L432.813 102.668H472.014L491.606 68.7238L472.014 34.7798Z" stroke="#FFEBCF" stroke-width="2" stroke-miterlimit="10"/>
<path d="M432.813 34.7798L472.014 102.668" stroke="#FFEBCF" stroke-width="2" stroke-miterlimit="10"/>
<path d="M472.014 34.7798L432.813 102.668" stroke="#FFEBCF" stroke-width="2" stroke-miterlimit="10"/>
<path d="M413.222 68.7239H491.606" stroke="#FFEBCF" stroke-width="2" stroke-miterlimit="10"/>
<path d="M354.429 306.323H315.237L295.636 340.268L315.237 374.212H354.429L374.02 340.268L354.429 306.323Z" stroke="#FFEBCF" stroke-width="2" stroke-miterlimit="10"/>
<path d="M315.237 306.323L354.429 374.212" stroke="#FFEBCF" stroke-width="2" stroke-miterlimit="10"/>
<path d="M354.429 306.323L315.237 374.212" stroke="#FFEBCF" stroke-width="2" stroke-miterlimit="10"/>
<path d="M295.636 340.268H374.02" stroke="#FFEBCF" stroke-width="2" stroke-miterlimit="10"/>
<path d="M354.429 238.444H315.237L295.636 272.388L315.237 306.323H354.429L374.02 272.388L354.429 238.444Z" stroke="#FFEBCF" stroke-width="2" stroke-miterlimit="10"/>
<path d="M315.237 238.444L354.429 306.323" stroke="#FFEBCF" stroke-width="2" stroke-miterlimit="10"/>
<path d="M354.429 238.444L315.237 306.323" stroke="#FFEBCF" stroke-width="2" stroke-miterlimit="10"/>
<path d="M295.636 272.388H374.02" stroke="#FFEBCF" stroke-width="2" stroke-miterlimit="10"/>
<path d="M178.051 272.388H138.858L119.257 306.323L138.858 340.267H178.051L197.651 306.323L178.051 272.388Z" stroke="#FFEBCF" stroke-width="2" stroke-miterlimit="10"/>
<path d="M138.859 272.388L178.051 340.267" stroke="#FFEBCF" stroke-width="2" stroke-miterlimit="10"/>
<path d="M178.051 272.388L138.859 340.267" stroke="#FFEBCF" stroke-width="2" stroke-miterlimit="10"/>
<path d="M119.257 306.323H197.651" stroke="#FFEBCF" stroke-width="2" stroke-miterlimit="10"/>
<path d="M236.843 170.556H197.65L178.05 204.5L197.65 238.444H236.843L256.443 204.5L236.843 170.556Z" stroke="#FFEBCF" stroke-width="2" stroke-miterlimit="10"/>
<path d="M197.65 170.556L236.843 238.444" stroke="#FFEBCF" stroke-width="2" stroke-miterlimit="10"/>
<path d="M236.843 170.556L197.65 238.444" stroke="#FFEBCF" stroke-width="2" stroke-miterlimit="10"/>
<path d="M178.05 204.5H256.443" stroke="#FFEBCF" stroke-width="2" stroke-miterlimit="10"/>
<path d="M119.257 374.211H80.0647L60.4641 408.155L80.0647 442.099H119.257L138.858 408.155L119.257 374.211Z" stroke="#FFEBCF" stroke-width="2" stroke-miterlimit="10"/>
<path d="M80.0648 374.211L119.257 442.099" stroke="#FFEBCF" stroke-width="2" stroke-miterlimit="10"/>
<path d="M119.257 374.211L80.0648 442.099" stroke="#FFEBCF" stroke-width="2" stroke-miterlimit="10"/>
<path d="M60.4641 408.155H138.858" stroke="#FFEBCF" stroke-width="2" stroke-miterlimit="10"/>
<path d="M236.843 238.444H197.65L178.05 272.388L197.65 306.323H236.843L256.443 272.388L236.843 238.444Z" stroke="#FFEBCF" stroke-width="2" stroke-miterlimit="10"/>
<path d="M178.05 272.388L236.843 238.444" stroke="#FFEBCF" stroke-width="2" stroke-miterlimit="10"/>
<path d="M197.65 238.444L256.443 272.388" stroke="#FFEBCF" stroke-width="2" stroke-miterlimit="10"/>
<path d="M236.843 238.444V306.323" stroke="#FFEBCF" stroke-width="2" stroke-miterlimit="10"/>
<path d="M197.65 306.323L256.443 272.388" stroke="#FFEBCF" stroke-width="2" stroke-miterlimit="10"/>
<path d="M236.843 306.323L178.05 272.388" stroke="#FFEBCF" stroke-width="2" stroke-miterlimit="10"/>
<path d="M197.65 238.444V306.323" stroke="#FFEBCF" stroke-width="2" stroke-miterlimit="10"/>
<path d="M119.257 442.099H80.0647L60.4641 476.044L80.0647 509.988H119.257L138.858 476.044L119.257 442.099Z" stroke="#FFEBCF" stroke-width="2" stroke-miterlimit="10"/>
<path d="M60.4641 476.044L119.257 442.099" stroke="#FFEBCF" stroke-width="2" stroke-miterlimit="10"/>
<path d="M80.0648 442.099L138.858 476.044" stroke="#FFEBCF" stroke-width="2" stroke-miterlimit="10"/>
<path d="M119.256 442.099V509.988" stroke="#FFEBCF" stroke-width="2" stroke-miterlimit="10"/>
<path d="M80.0648 509.988L138.858 476.043" stroke="#FFEBCF" stroke-width="2" stroke-miterlimit="10"/>
<path d="M119.257 509.988L60.4641 476.043" stroke="#FFEBCF" stroke-width="2" stroke-miterlimit="10"/>
<path d="M80.0648 442.099V509.988" stroke="#FFEBCF" stroke-width="2" stroke-miterlimit="10"/>
<path d="M530.799 476.043H491.607L472.015 509.988L491.607 543.931H530.799L550.399 509.988L530.799 476.043Z" stroke="#FFEBCF" stroke-width="2" stroke-miterlimit="10"/>
<path d="M472.015 509.988L530.799 476.043" stroke="#FFEBCF" stroke-width="2" stroke-miterlimit="10"/>
<path d="M491.607 476.043L550.399 509.988" stroke="#FFEBCF" stroke-width="2" stroke-miterlimit="10"/>
<path d="M530.799 476.043V543.931" stroke="#FFEBCF" stroke-width="2" stroke-miterlimit="10"/>
<path d="M491.607 543.931L550.399 509.988" stroke="#FFEBCF" stroke-width="2" stroke-miterlimit="10"/>
<path d="M530.799 543.931L472.015 509.988" stroke="#FFEBCF" stroke-width="2" stroke-miterlimit="10"/>
<path d="M491.607 476.043V543.931" stroke="#FFEBCF" stroke-width="2" stroke-miterlimit="10"/>
<path d="M707.177 34.7798H667.985L648.384 68.7238L667.985 102.668H707.177L726.778 68.7238L707.177 34.7798Z" stroke="#FFEBCF" stroke-width="2" stroke-miterlimit="10"/>
<path d="M648.384 68.7238L707.177 34.7798" stroke="#FFEBCF" stroke-width="2" stroke-miterlimit="10"/>
<path d="M667.985 34.7798L726.778 68.7238" stroke="#FFEBCF" stroke-width="2" stroke-miterlimit="10"/>
<path d="M707.177 34.7798V102.668" stroke="#FFEBCF" stroke-width="2" stroke-miterlimit="10"/>
<path d="M667.985 102.668L726.778 68.7239" stroke="#FFEBCF" stroke-width="2" stroke-miterlimit="10"/>
<path d="M707.177 102.668L648.384 68.7239" stroke="#FFEBCF" stroke-width="2" stroke-miterlimit="10"/>
<path d="M667.985 34.7798V102.668" stroke="#FFEBCF" stroke-width="2" stroke-miterlimit="10"/>
<path d="M883.559 408.155H844.352L824.763 442.099L844.352 476.044H883.559L903.149 442.099L883.559 408.155Z" stroke="#FFEBCF" stroke-width="2" stroke-miterlimit="10"/>
<path d="M824.763 442.099L883.559 408.155" stroke="#FFEBCF" stroke-width="2" stroke-miterlimit="10"/>
<path d="M844.352 408.155L903.149 442.099" stroke="#FFEBCF" stroke-width="2" stroke-miterlimit="10"/>
<path d="M883.559 408.155V476.044" stroke="#FFEBCF" stroke-width="2" stroke-miterlimit="10"/>
<path d="M844.352 476.044L903.149 442.099" stroke="#FFEBCF" stroke-width="2" stroke-miterlimit="10"/>
<path d="M883.559 476.044L824.763 442.099" stroke="#FFEBCF" stroke-width="2" stroke-miterlimit="10"/>
<path d="M844.352 408.155V476.044" stroke="#FFEBCF" stroke-width="2" stroke-miterlimit="10"/>
<path d="M1118.72 272.388H1079.52L1059.92 306.323L1079.52 340.267H1118.72L1138.32 306.323L1118.72 272.388Z" stroke="#FFEBCF" stroke-width="2" stroke-miterlimit="10"/>
<path d="M1059.92 306.323L1118.72 272.388" stroke="#FFEBCF" stroke-width="2" stroke-miterlimit="10"/>
<path d="M1079.52 272.388L1138.32 306.323" stroke="#FFEBCF" stroke-width="2" stroke-miterlimit="10"/>
<path d="M1118.72 272.388V340.267" stroke="#FFEBCF" stroke-width="2" stroke-miterlimit="10"/>
<path d="M1079.52 340.267L1138.32 306.323" stroke="#FFEBCF" stroke-width="2" stroke-miterlimit="10"/>
<path d="M1118.72 340.267L1059.92 306.323" stroke="#FFEBCF" stroke-width="2" stroke-miterlimit="10"/>
<path d="M1079.52 272.388V340.267" stroke="#FFEBCF" stroke-width="2" stroke-miterlimit="10"/>
<path d="M21.2723 0.835693L60.4646 68.7238" stroke="#FFEBCF" stroke-width="2" stroke-miterlimit="10"/>
<path d="M60.4646 0.835693L21.2723 68.7238" stroke="#FFEBCF" stroke-width="2" stroke-miterlimit="10"/>
<path d="M1.67154 34.7798H80.0651" stroke="#FFEBCF" stroke-width="2" stroke-miterlimit="10"/>
<path d="M60.4644 0.835693H21.2722L1.67154 34.7797L21.2722 68.7238H60.4644L80.0651 34.7797L60.4644 0.835693Z" stroke="#FFEBCF" stroke-width="2" stroke-miterlimit="10"/>
<path d="M1.67154 34.7797L60.4644 0.835693" stroke="#FFEBCF" stroke-width="2" stroke-miterlimit="10"/>
<path d="M21.2723 0.835693L80.0652 34.7797" stroke="#FFEBCF" stroke-width="2" stroke-miterlimit="10"/>
<path d="M60.4641 0.835693V68.7238" stroke="#FFEBCF" stroke-width="2" stroke-miterlimit="10"/>
<path d="M21.2723 68.7238L80.0652 34.7798" stroke="#FFEBCF" stroke-width="2" stroke-miterlimit="10"/>
<path d="M60.4644 68.7238L1.67154 34.7798" stroke="#FFEBCF" stroke-width="2" stroke-miterlimit="10"/>
<path d="M21.2723 0.835693V68.7238" stroke="#FFEBCF" stroke-width="2" stroke-miterlimit="10"/>
<path d="M256.444 68.7239L295.636 136.612" stroke="#FFEBCF" stroke-width="2" stroke-miterlimit="10"/>
<path d="M295.636 68.7239L256.444 136.612" stroke="#FFEBCF" stroke-width="2" stroke-miterlimit="10"/>
<path d="M236.843 102.668H315.237" stroke="#FFEBCF" stroke-width="2" stroke-miterlimit="10"/>
<path d="M295.636 68.7239H256.444L236.843 102.668L256.444 136.612H295.636L315.237 102.668L295.636 68.7239Z" stroke="#FFEBCF" stroke-width="2" stroke-miterlimit="10"/>
<path d="M236.843 102.668L295.636 68.7239" stroke="#FFEBCF" stroke-width="2" stroke-miterlimit="10"/>
<path d="M256.444 68.7239L315.237 102.668" stroke="#FFEBCF" stroke-width="2" stroke-miterlimit="10"/>
<path d="M295.636 68.7239V136.612" stroke="#FFEBCF" stroke-width="2" stroke-miterlimit="10"/>
<path d="M256.444 136.612L315.237 102.668" stroke="#FFEBCF" stroke-width="2" stroke-miterlimit="10"/>
<path d="M295.636 136.612L236.843 102.668" stroke="#FFEBCF" stroke-width="2" stroke-miterlimit="10"/>
<path d="M256.444 68.7239V136.612" stroke="#FFEBCF" stroke-width="2" stroke-miterlimit="10"/>
<path d="M138.859 136.612L178.051 204.5" stroke="#FFEBCF" stroke-width="2" stroke-miterlimit="10"/>
<path d="M178.051 136.612L138.859 204.5" stroke="#FFEBCF" stroke-width="2" stroke-miterlimit="10"/>
<path d="M119.257 170.556H197.651" stroke="#FFEBCF" stroke-width="2" stroke-miterlimit="10"/>
<path d="M178.051 136.612H138.858L119.257 170.556L138.858 204.5H178.051L197.651 170.556L178.051 136.612Z" stroke="#FFEBCF" stroke-width="2" stroke-miterlimit="10"/>
<path d="M119.257 170.556L178.051 136.612" stroke="#FFEBCF" stroke-width="2" stroke-miterlimit="10"/>
<path d="M138.859 136.612L197.651 170.556" stroke="#FFEBCF" stroke-width="2" stroke-miterlimit="10"/>
<path d="M178.05 136.612V204.5" stroke="#FFEBCF" stroke-width="2" stroke-miterlimit="10"/>
<path d="M138.859 204.5L197.651 170.556" stroke="#FFEBCF" stroke-width="2" stroke-miterlimit="10"/>
<path d="M178.051 204.5L119.257 170.556" stroke="#FFEBCF" stroke-width="2" stroke-miterlimit="10"/>
<path d="M138.859 136.612V204.5" stroke="#FFEBCF" stroke-width="2" stroke-miterlimit="10"/>
<path d="M256.444 136.612L295.636 204.5" stroke="#FFEBCF" stroke-width="2" stroke-miterlimit="10"/>
<path d="M295.636 136.612L256.444 204.5" stroke="#FFEBCF" stroke-width="2" stroke-miterlimit="10"/>
<path d="M236.843 170.556H315.237" stroke="#FFEBCF" stroke-width="2" stroke-miterlimit="10"/>
<path d="M295.636 136.612H256.444L236.843 170.556L256.444 204.5H295.636L315.237 170.556L295.636 136.612Z" stroke="#FFEBCF" stroke-width="2" stroke-miterlimit="10"/>
<path d="M236.843 170.556L295.636 136.612" stroke="#FFEBCF" stroke-width="2" stroke-miterlimit="10"/>
<path d="M256.444 136.612L315.237 170.556" stroke="#FFEBCF" stroke-width="2" stroke-miterlimit="10"/>
<path d="M295.636 136.612V204.5" stroke="#FFEBCF" stroke-width="2" stroke-miterlimit="10"/>
<path d="M256.444 204.5L315.237 170.556" stroke="#FFEBCF" stroke-width="2" stroke-miterlimit="10"/>
<path d="M295.636 204.5L236.843 170.556" stroke="#FFEBCF" stroke-width="2" stroke-miterlimit="10"/>
<path d="M256.444 136.612V204.5" stroke="#FFEBCF" stroke-width="2" stroke-miterlimit="10"/>
<path d="M374.021 204.5L413.222 272.388" stroke="#FFEBCF" stroke-width="2" stroke-miterlimit="10"/>
<path d="M413.222 204.5L374.021 272.388" stroke="#FFEBCF" stroke-width="2" stroke-miterlimit="10"/>
<path d="M354.429 238.444H432.814" stroke="#FFEBCF" stroke-width="2" stroke-miterlimit="10"/>
<path d="M413.222 204.5H374.021L354.429 238.444L374.021 272.388H413.222L432.814 238.444L413.222 204.5Z" stroke="#FFEBCF" stroke-width="2" stroke-miterlimit="10"/>
<path d="M354.429 238.444L413.222 204.5" stroke="#FFEBCF" stroke-width="2" stroke-miterlimit="10"/>
<path d="M374.021 204.5L432.814 238.444" stroke="#FFEBCF" stroke-width="2" stroke-miterlimit="10"/>
<path d="M413.222 204.5V272.388" stroke="#FFEBCF" stroke-width="2" stroke-miterlimit="10"/>
<path d="M374.021 272.388L432.814 238.444" stroke="#FFEBCF" stroke-width="2" stroke-miterlimit="10"/>
<path d="M413.222 272.388L354.429 238.444" stroke="#FFEBCF" stroke-width="2" stroke-miterlimit="10"/>
<path d="M374.021 204.5V272.388" stroke="#FFEBCF" stroke-width="2" stroke-miterlimit="10"/>
<path d="M432.813 102.668L472.014 170.556" stroke="#FFEBCF" stroke-width="2" stroke-miterlimit="10"/>
<path d="M472.014 102.668L432.813 170.556" stroke="#FFEBCF" stroke-width="2" stroke-miterlimit="10"/>
<path d="M413.222 136.612H491.606" stroke="#FFEBCF" stroke-width="2" stroke-miterlimit="10"/>
<path d="M472.014 102.668H432.813L413.222 136.612L432.813 170.556H472.014L491.606 136.612L472.014 102.668Z" stroke="#FFEBCF" stroke-width="2" stroke-miterlimit="10"/>
<path d="M413.222 136.612L472.014 102.668" stroke="#FFEBCF" stroke-width="2" stroke-miterlimit="10"/>
<path d="M432.813 102.668L491.607 136.612" stroke="#FFEBCF" stroke-width="2" stroke-miterlimit="10"/>
<path d="M472.015 102.668V170.556" stroke="#FFEBCF" stroke-width="2" stroke-miterlimit="10"/>
<path d="M432.813 170.556L491.607 136.612" stroke="#FFEBCF" stroke-width="2" stroke-miterlimit="10"/>
<path d="M472.014 170.556L413.222 136.612" stroke="#FFEBCF" stroke-width="2" stroke-miterlimit="10"/>
<path d="M432.813 102.668V170.556" stroke="#FFEBCF" stroke-width="2" stroke-miterlimit="10"/>
<path d="M550.399 34.7798L589.591 102.668" stroke="#FFEBCF" stroke-width="2" stroke-miterlimit="10"/>
<path d="M589.591 34.7798L550.399 102.668" stroke="#FFEBCF" stroke-width="2" stroke-miterlimit="10"/>
<path d="M530.799 68.7239H609.192" stroke="#FFEBCF" stroke-width="2" stroke-miterlimit="10"/>
<path d="M589.591 34.7798H550.399L530.799 68.7238L550.399 102.668H589.591L609.192 68.7238L589.591 34.7798Z" stroke="#FFEBCF" stroke-width="2" stroke-miterlimit="10"/>
<path d="M530.799 68.7238L589.591 34.7798" stroke="#FFEBCF" stroke-width="2" stroke-miterlimit="10"/>
<path d="M550.399 34.7798L609.192 68.7238" stroke="#FFEBCF" stroke-width="2" stroke-miterlimit="10"/>
<path d="M589.591 34.7798V102.668" stroke="#FFEBCF" stroke-width="2" stroke-miterlimit="10"/>
<path d="M550.399 102.668L609.192 68.7239" stroke="#FFEBCF" stroke-width="2" stroke-miterlimit="10"/>
<path d="M589.591 102.668L530.799 68.7239" stroke="#FFEBCF" stroke-width="2" stroke-miterlimit="10"/>
<path d="M550.399 34.7798V102.668" stroke="#FFEBCF" stroke-width="2" stroke-miterlimit="10"/>
<path d="M550.399 170.556L589.591 238.444" stroke="#FFEBCF" stroke-width="2" stroke-miterlimit="10"/>
<path d="M589.591 170.556L550.399 238.444" stroke="#FFEBCF" stroke-width="2" stroke-miterlimit="10"/>
<path d="M530.799 204.5H609.192" stroke="#FFEBCF" stroke-width="2" stroke-miterlimit="10"/>
<path d="M589.591 170.556H550.399L530.799 204.5L550.399 238.444H589.591L609.192 204.5L589.591 170.556Z" stroke="#FFEBCF" stroke-width="2" stroke-miterlimit="10"/>
<path d="M530.799 204.5L589.591 170.556" stroke="#FFEBCF" stroke-width="2" stroke-miterlimit="10"/>
<path d="M550.399 170.556L609.192 204.5" stroke="#FFEBCF" stroke-width="2" stroke-miterlimit="10"/>
<path d="M589.591 170.556V238.444" stroke="#FFEBCF" stroke-width="2" stroke-miterlimit="10"/>
<path d="M550.399 238.444L609.192 204.5" stroke="#FFEBCF" stroke-width="2" stroke-miterlimit="10"/>
<path d="M589.591 238.444L530.799 204.5" stroke="#FFEBCF" stroke-width="2" stroke-miterlimit="10"/>
<path d="M550.399 170.556V238.444" stroke="#FFEBCF" stroke-width="2" stroke-miterlimit="10"/>
<path d="M432.813 306.323L472.014 374.212" stroke="#FFEBCF" stroke-width="2" stroke-miterlimit="10"/>
<path d="M472.014 306.323L432.813 374.212" stroke="#FFEBCF" stroke-width="2" stroke-miterlimit="10"/>
<path d="M413.222 340.268H491.606" stroke="#FFEBCF" stroke-width="2" stroke-miterlimit="10"/>
<path d="M472.014 306.323H432.813L413.222 340.268L432.813 374.212H472.014L491.606 340.268L472.014 306.323Z" stroke="#FFEBCF" stroke-width="2" stroke-miterlimit="10"/>
<path d="M413.222 340.267L472.014 306.323" stroke="#FFEBCF" stroke-width="2" stroke-miterlimit="10"/>
<path d="M432.813 306.323L491.607 340.267" stroke="#FFEBCF" stroke-width="2" stroke-miterlimit="10"/>
<path d="M472.015 306.323V374.212" stroke="#FFEBCF" stroke-width="2" stroke-miterlimit="10"/>
<path d="M432.813 374.212L491.607 340.268" stroke="#FFEBCF" stroke-width="2" stroke-miterlimit="10"/>
<path d="M472.014 374.212L413.222 340.268" stroke="#FFEBCF" stroke-width="2" stroke-miterlimit="10"/>
<path d="M432.813 306.323V374.212" stroke="#FFEBCF" stroke-width="2" stroke-miterlimit="10"/>
<path d="M491.607 408.155L530.799 476.044" stroke="#FFEBCF" stroke-width="2" stroke-miterlimit="10"/>
<path d="M530.799 408.155L491.607 476.044" stroke="#FFEBCF" stroke-width="2" stroke-miterlimit="10"/>
<path d="M472.015 442.099H550.399" stroke="#FFEBCF" stroke-width="2" stroke-miterlimit="10"/>
<path d="M530.799 408.155H491.607L472.015 442.099L491.607 476.044H530.799L550.399 442.099L530.799 408.155Z" stroke="#FFEBCF" stroke-width="2" stroke-miterlimit="10"/>
<path d="M472.015 442.099L530.799 408.155" stroke="#FFEBCF" stroke-width="2" stroke-miterlimit="10"/>
<path d="M491.607 408.155L550.399 442.099" stroke="#FFEBCF" stroke-width="2" stroke-miterlimit="10"/>
<path d="M530.799 408.155V476.044" stroke="#FFEBCF" stroke-width="2" stroke-miterlimit="10"/>
<path d="M491.607 476.044L550.399 442.099" stroke="#FFEBCF" stroke-width="2" stroke-miterlimit="10"/>
<path d="M530.799 476.044L472.015 442.099" stroke="#FFEBCF" stroke-width="2" stroke-miterlimit="10"/>
<path d="M491.607 408.155V476.044" stroke="#FFEBCF" stroke-width="2" stroke-miterlimit="10"/>
<path d="M609.193 340.268L648.385 408.155" stroke="#FFEBCF" stroke-width="2" stroke-miterlimit="10"/>
<path d="M648.385 340.268L609.193 408.155" stroke="#FFEBCF" stroke-width="2" stroke-miterlimit="10"/>
<path d="M589.591 374.212H667.985" stroke="#FFEBCF" stroke-width="2" stroke-miterlimit="10"/>
<path d="M648.385 340.268H609.192L589.591 374.212L609.192 408.155H648.385L667.985 374.212L648.385 340.268Z" stroke="#FFEBCF" stroke-width="2" stroke-miterlimit="10"/>
<path d="M589.591 374.212L648.385 340.268" stroke="#FFEBCF" stroke-width="2" stroke-miterlimit="10"/>
<path d="M609.193 340.268L667.986 374.212" stroke="#FFEBCF" stroke-width="2" stroke-miterlimit="10"/>
<path d="M648.385 340.268V408.155" stroke="#FFEBCF" stroke-width="2" stroke-miterlimit="10"/>
<path d="M609.193 408.155L667.986 374.212" stroke="#FFEBCF" stroke-width="2" stroke-miterlimit="10"/>
<path d="M648.385 408.155L589.591 374.212" stroke="#FFEBCF" stroke-width="2" stroke-miterlimit="10"/>
<path d="M609.193 340.268V408.155" stroke="#FFEBCF" stroke-width="2" stroke-miterlimit="10"/>
<path d="M432.813 442.099L472.014 509.988" stroke="#FFEBCF" stroke-width="2" stroke-miterlimit="10"/>
<path d="M472.014 442.099L432.813 509.988" stroke="#FFEBCF" stroke-width="2" stroke-miterlimit="10"/>
<path d="M413.222 476.043H491.606" stroke="#FFEBCF" stroke-width="2" stroke-miterlimit="10"/>
<path d="M472.014 442.099H432.813L413.222 476.044L432.813 509.988H472.014L491.606 476.044L472.014 442.099Z" stroke="#FFEBCF" stroke-width="2" stroke-miterlimit="10"/>
<path d="M413.222 476.044L472.014 442.099" stroke="#FFEBCF" stroke-width="2" stroke-miterlimit="10"/>
<path d="M432.813 442.099L491.607 476.044" stroke="#FFEBCF" stroke-width="2" stroke-miterlimit="10"/>
<path d="M472.015 442.099V509.988" stroke="#FFEBCF" stroke-width="2" stroke-miterlimit="10"/>
<path d="M432.813 509.988L491.607 476.043" stroke="#FFEBCF" stroke-width="2" stroke-miterlimit="10"/>
<path d="M472.014 509.988L413.222 476.043" stroke="#FFEBCF" stroke-width="2" stroke-miterlimit="10"/>
<path d="M432.813 442.099V509.988" stroke="#FFEBCF" stroke-width="2" stroke-miterlimit="10"/>
<path d="M197.65 306.323L236.843 374.212" stroke="#FFEBCF" stroke-width="2" stroke-miterlimit="10"/>
<path d="M236.843 306.323L197.65 374.212" stroke="#FFEBCF" stroke-width="2" stroke-miterlimit="10"/>
<path d="M178.05 340.268H256.443" stroke="#FFEBCF" stroke-width="2" stroke-miterlimit="10"/>
<path d="M236.843 306.323H197.65L178.05 340.268L197.65 374.212H236.843L256.443 340.268L236.843 306.323Z" stroke="#FFEBCF" stroke-width="2" stroke-miterlimit="10"/>
<path d="M178.05 340.267L236.843 306.323" stroke="#FFEBCF" stroke-width="2" stroke-miterlimit="10"/>
<path d="M197.65 306.323L256.443 340.267" stroke="#FFEBCF" stroke-width="2" stroke-miterlimit="10"/>
<path d="M236.843 306.323V374.212" stroke="#FFEBCF" stroke-width="2" stroke-miterlimit="10"/>
<path d="M197.65 374.212L256.443 340.268" stroke="#FFEBCF" stroke-width="2" stroke-miterlimit="10"/>
<path d="M236.843 374.212L178.05 340.268" stroke="#FFEBCF" stroke-width="2" stroke-miterlimit="10"/>
<path d="M197.65 306.323V374.212" stroke="#FFEBCF" stroke-width="2" stroke-miterlimit="10"/>
<path d="M21.2723 340.268L60.4646 408.155" stroke="#FFEBCF" stroke-width="2" stroke-miterlimit="10"/>
<path d="M60.4646 340.268L21.2723 408.155" stroke="#FFEBCF" stroke-width="2" stroke-miterlimit="10"/>
<path d="M1.67154 374.212H80.0651" stroke="#FFEBCF" stroke-width="2" stroke-miterlimit="10"/>
<path d="M60.4644 340.268H21.2722L1.67154 374.212L21.2722 408.155H60.4644L80.0651 374.212L60.4644 340.268Z" stroke="#FFEBCF" stroke-width="2" stroke-miterlimit="10"/>
<path d="M1.67154 374.212L60.4644 340.268" stroke="#FFEBCF" stroke-width="2" stroke-miterlimit="10"/>
<path d="M21.2723 340.268L80.0652 374.212" stroke="#FFEBCF" stroke-width="2" stroke-miterlimit="10"/>
<path d="M60.4641 340.268V408.155" stroke="#FFEBCF" stroke-width="2" stroke-miterlimit="10"/>
<path d="M21.2723 408.155L80.0652 374.212" stroke="#FFEBCF" stroke-width="2" stroke-miterlimit="10"/>
<path d="M60.4644 408.155L1.67154 374.212" stroke="#FFEBCF" stroke-width="2" stroke-miterlimit="10"/>
<path d="M21.2723 340.268V408.155" stroke="#FFEBCF" stroke-width="2" stroke-miterlimit="10"/>
<path d="M256.444 408.155L295.636 476.044" stroke="#FFEBCF" stroke-width="2" stroke-miterlimit="10"/>
<path d="M295.636 408.155L256.444 476.044" stroke="#FFEBCF" stroke-width="2" stroke-miterlimit="10"/>
<path d="M236.843 442.099H315.237" stroke="#FFEBCF" stroke-width="2" stroke-miterlimit="10"/>
<path d="M295.636 408.155H256.444L236.843 442.099L256.444 476.044H295.636L315.237 442.099L295.636 408.155Z" stroke="#FFEBCF" stroke-width="2" stroke-miterlimit="10"/>
<path d="M236.843 442.099L295.636 408.155" stroke="#FFEBCF" stroke-width="2" stroke-miterlimit="10"/>
<path d="M256.444 408.155L315.237 442.099" stroke="#FFEBCF" stroke-width="2" stroke-miterlimit="10"/>
<path d="M295.636 408.155V476.044" stroke="#FFEBCF" stroke-width="2" stroke-miterlimit="10"/>
<path d="M256.444 476.044L315.237 442.099" stroke="#FFEBCF" stroke-width="2" stroke-miterlimit="10"/>
<path d="M295.636 476.044L236.843 442.099" stroke="#FFEBCF" stroke-width="2" stroke-miterlimit="10"/>
<path d="M256.444 408.155V476.044" stroke="#FFEBCF" stroke-width="2" stroke-miterlimit="10"/>
<path d="M256.444 476.043L295.636 543.931" stroke="#FFEBCF" stroke-width="2" stroke-miterlimit="10"/>
<path d="M295.636 476.043L256.444 543.931" stroke="#FFEBCF" stroke-width="2" stroke-miterlimit="10"/>
<path d="M236.843 509.988H315.237" stroke="#FFEBCF" stroke-width="2" stroke-miterlimit="10"/>
<path d="M295.636 476.043H256.444L236.843 509.988L256.444 543.931H295.636L315.237 509.988L295.636 476.043Z" stroke="#FFEBCF" stroke-width="2" stroke-miterlimit="10"/>
<path d="M236.843 509.988L295.636 476.043" stroke="#FFEBCF" stroke-width="2" stroke-miterlimit="10"/>
<path d="M256.444 476.043L315.237 509.988" stroke="#FFEBCF" stroke-width="2" stroke-miterlimit="10"/>
<path d="M295.636 476.043V543.931" stroke="#FFEBCF" stroke-width="2" stroke-miterlimit="10"/>
<path d="M256.444 543.931L315.237 509.988" stroke="#FFEBCF" stroke-width="2" stroke-miterlimit="10"/>
<path d="M295.636 543.931L236.843 509.988" stroke="#FFEBCF" stroke-width="2" stroke-miterlimit="10"/>
<path d="M256.444 476.043V543.931" stroke="#FFEBCF" stroke-width="2" stroke-miterlimit="10"/>
<path d="M667.985 170.556L707.178 238.444" stroke="#FFEBCF" stroke-width="2" stroke-miterlimit="10"/>
<path d="M707.178 170.556L667.985 238.444" stroke="#FFEBCF" stroke-width="2" stroke-miterlimit="10"/>
<path d="M648.384 204.5H726.778" stroke="#FFEBCF" stroke-width="2" stroke-miterlimit="10"/>
<path d="M707.177 170.556H667.985L648.384 204.5L667.985 238.444H707.177L726.778 204.5L707.177 170.556Z" stroke="#FFEBCF" stroke-width="2" stroke-miterlimit="10"/>
<path d="M648.384 204.5L707.177 170.556" stroke="#FFEBCF" stroke-width="2" stroke-miterlimit="10"/>
<path d="M667.985 170.556L726.778 204.5" stroke="#FFEBCF" stroke-width="2" stroke-miterlimit="10"/>
<path d="M707.177 170.556V238.444" stroke="#FFEBCF" stroke-width="2" stroke-miterlimit="10"/>
<path d="M667.985 238.444L726.778 204.5" stroke="#FFEBCF" stroke-width="2" stroke-miterlimit="10"/>
<path d="M707.177 238.444L648.384 204.5" stroke="#FFEBCF" stroke-width="2" stroke-miterlimit="10"/>
<path d="M667.985 170.556V238.444" stroke="#FFEBCF" stroke-width="2" stroke-miterlimit="10"/>
<path d="M726.778 68.7239L765.971 136.612" stroke="#FFEBCF" stroke-width="2" stroke-miterlimit="10"/>
<path d="M765.971 68.7239L726.778 136.612" stroke="#FFEBCF" stroke-width="2" stroke-miterlimit="10"/>
<path d="M707.178 102.668H785.571" stroke="#FFEBCF" stroke-width="2" stroke-miterlimit="10"/>
<path d="M765.971 68.7239H726.778L707.178 102.668L726.778 136.612H765.971L785.571 102.668L765.971 68.7239Z" stroke="#FFEBCF" stroke-width="2" stroke-miterlimit="10"/>
<path d="M707.178 102.668L765.971 68.7239" stroke="#FFEBCF" stroke-width="2" stroke-miterlimit="10"/>
<path d="M726.778 68.7239L785.571 102.668" stroke="#FFEBCF" stroke-width="2" stroke-miterlimit="10"/>
<path d="M765.971 68.7239V136.612" stroke="#FFEBCF" stroke-width="2" stroke-miterlimit="10"/>
<path d="M726.778 136.612L785.571 102.668" stroke="#FFEBCF" stroke-width="2" stroke-miterlimit="10"/>
<path d="M765.971 136.612L707.178 102.668" stroke="#FFEBCF" stroke-width="2" stroke-miterlimit="10"/>
<path d="M726.778 68.7239V136.612" stroke="#FFEBCF" stroke-width="2" stroke-miterlimit="10"/>
<path d="M844.352 204.5L883.559 272.388" stroke="#FFEBCF" stroke-width="2" stroke-miterlimit="10"/>
<path d="M883.559 204.5L844.352 272.388" stroke="#FFEBCF" stroke-width="2" stroke-miterlimit="10"/>
<path d="M824.763 238.444H903.149" stroke="#FFEBCF" stroke-width="2" stroke-miterlimit="10"/>
<path d="M883.559 204.5H844.352L824.763 238.444L844.352 272.388H883.559L903.149 238.444L883.559 204.5Z" stroke="#FFEBCF" stroke-width="2" stroke-miterlimit="10"/>
<path d="M824.763 238.444L883.559 204.5" stroke="#FFEBCF" stroke-width="2" stroke-miterlimit="10"/>
<path d="M844.352 204.5L903.149 238.444" stroke="#FFEBCF" stroke-width="2" stroke-miterlimit="10"/>
<path d="M883.559 204.5V272.388" stroke="#FFEBCF" stroke-width="2" stroke-miterlimit="10"/>
<path d="M844.352 272.388L903.149 238.444" stroke="#FFEBCF" stroke-width="2" stroke-miterlimit="10"/>
<path d="M883.559 272.388L824.763 238.444" stroke="#FFEBCF" stroke-width="2" stroke-miterlimit="10"/>
<path d="M844.352 204.5V272.388" stroke="#FFEBCF" stroke-width="2" stroke-miterlimit="10"/>
<path d="M785.571 306.323L824.763 374.212" stroke="#FFEBCF" stroke-width="2" stroke-miterlimit="10"/>
<path d="M824.763 306.323L785.571 374.212" stroke="#FFEBCF" stroke-width="2" stroke-miterlimit="10"/>
<path d="M765.971 340.268H844.352" stroke="#FFEBCF" stroke-width="2" stroke-miterlimit="10"/>
<path d="M824.763 306.323H785.57L765.971 340.268L785.57 374.212H824.763L844.352 340.268L824.763 306.323Z" stroke="#FFEBCF" stroke-width="2" stroke-miterlimit="10"/>
<path d="M765.971 340.267L824.763 306.323" stroke="#FFEBCF" stroke-width="2" stroke-miterlimit="10"/>
<path d="M785.571 306.323L844.352 340.267" stroke="#FFEBCF" stroke-width="2" stroke-miterlimit="10"/>
<path d="M824.763 306.323V374.212" stroke="#FFEBCF" stroke-width="2" stroke-miterlimit="10"/>
<path d="M785.571 374.212L844.352 340.268" stroke="#FFEBCF" stroke-width="2" stroke-miterlimit="10"/>
<path d="M824.763 374.212L765.971 340.268" stroke="#FFEBCF" stroke-width="2" stroke-miterlimit="10"/>
<path d="M785.571 306.323V374.212" stroke="#FFEBCF" stroke-width="2" stroke-miterlimit="10"/>
<path d="M961.938 272.388L1001.14 340.267" stroke="#FFEBCF" stroke-width="2" stroke-miterlimit="10"/>
<path d="M1001.14 272.388L961.938 340.267" stroke="#FFEBCF" stroke-width="2" stroke-miterlimit="10"/>
<path d="M942.347 306.323H1020.73" stroke="#FFEBCF" stroke-width="2" stroke-miterlimit="10"/>
<path d="M1001.14 272.388H961.938L942.347 306.323L961.938 340.267H1001.14L1020.73 306.323L1001.14 272.388Z" stroke="#FFEBCF" stroke-width="2" stroke-miterlimit="10"/>
<path d="M942.347 306.323L1001.14 272.388" stroke="#FFEBCF" stroke-width="2" stroke-miterlimit="10"/>
<path d="M961.938 272.388L1020.73 306.323" stroke="#FFEBCF" stroke-width="2" stroke-miterlimit="10"/>
<path d="M1001.14 272.388V340.267" stroke="#FFEBCF" stroke-width="2" stroke-miterlimit="10"/>
<path d="M961.938 340.267L1020.73 306.323" stroke="#FFEBCF" stroke-width="2" stroke-miterlimit="10"/>
<path d="M1001.14 340.267L942.347 306.323" stroke="#FFEBCF" stroke-width="2" stroke-miterlimit="10"/>
<path d="M961.938 272.388V340.267" stroke="#FFEBCF" stroke-width="2" stroke-miterlimit="10"/>
<path d="M1020.73 238.444L1059.92 306.323" stroke="#FFEBCF" stroke-width="2" stroke-miterlimit="10"/>
<path d="M1059.92 238.444L1020.73 306.323" stroke="#FFEBCF" stroke-width="2" stroke-miterlimit="10"/>
<path d="M1001.14 272.388H1079.52" stroke="#FFEBCF" stroke-width="2" stroke-miterlimit="10"/>
<path d="M1059.92 238.444H1020.73L1001.14 272.388L1020.73 306.323H1059.92L1079.52 272.388L1059.92 238.444Z" stroke="#FFEBCF" stroke-width="2" stroke-miterlimit="10"/>
<path d="M1001.14 272.388L1059.92 238.444" stroke="#FFEBCF" stroke-width="2" stroke-miterlimit="10"/>
<path d="M1020.73 238.444L1079.52 272.388" stroke="#FFEBCF" stroke-width="2" stroke-miterlimit="10"/>
<path d="M1059.92 238.444V306.323" stroke="#FFEBCF" stroke-width="2" stroke-miterlimit="10"/>
<path d="M1020.73 306.323L1079.52 272.388" stroke="#FFEBCF" stroke-width="2" stroke-miterlimit="10"/>
<path d="M1059.92 306.323L1001.14 272.388" stroke="#FFEBCF" stroke-width="2" stroke-miterlimit="10"/>
<path d="M1020.73 238.444V306.323" stroke="#FFEBCF" stroke-width="2" stroke-miterlimit="10"/>
<path d="M1079.52 136.612L1118.72 204.5" stroke="#FFEBCF" stroke-width="2" stroke-miterlimit="10"/>
<path d="M1118.72 136.612L1079.52 204.5" stroke="#FFEBCF" stroke-width="2" stroke-miterlimit="10"/>
<path d="M1059.92 170.556H1138.32" stroke="#FFEBCF" stroke-width="2" stroke-miterlimit="10"/>
<path d="M1118.72 136.612H1079.52L1059.92 170.556L1079.52 204.5H1118.72L1138.32 170.556L1118.72 136.612Z" stroke="#FFEBCF" stroke-width="2" stroke-miterlimit="10"/>
<path d="M1059.92 170.556L1118.72 136.612" stroke="#FFEBCF" stroke-width="2" stroke-miterlimit="10"/>
<path d="M1079.52 136.612L1138.32 170.556" stroke="#FFEBCF" stroke-width="2" stroke-miterlimit="10"/>
<path d="M1118.72 136.612V204.5" stroke="#FFEBCF" stroke-width="2" stroke-miterlimit="10"/>
<path d="M1079.52 204.5L1138.32 170.556" stroke="#FFEBCF" stroke-width="2" stroke-miterlimit="10"/>
<path d="M1118.72 204.5L1059.92 170.556" stroke="#FFEBCF" stroke-width="2" stroke-miterlimit="10"/>
<path d="M1079.52 136.612V204.5" stroke="#FFEBCF" stroke-width="2" stroke-miterlimit="10"/>
<path d="M1020.73 102.668L1059.92 170.556" stroke="#FFEBCF" stroke-width="2" stroke-miterlimit="10"/>
<path d="M1059.92 102.668L1020.73 170.556" stroke="#FFEBCF" stroke-width="2" stroke-miterlimit="10"/>
<path d="M1001.14 136.612H1079.52" stroke="#FFEBCF" stroke-width="2" stroke-miterlimit="10"/>
<path d="M1059.92 102.668H1020.73L1001.14 136.612L1020.73 170.556H1059.92L1079.52 136.612L1059.92 102.668Z" stroke="#FFEBCF" stroke-width="2" stroke-miterlimit="10"/>
<path d="M1001.14 136.612L1059.92 102.668" stroke="#FFEBCF" stroke-width="2" stroke-miterlimit="10"/>
<path d="M1020.73 102.668L1079.52 136.612" stroke="#FFEBCF" stroke-width="2" stroke-miterlimit="10"/>
<path d="M1059.92 102.668V170.556" stroke="#FFEBCF" stroke-width="2" stroke-miterlimit="10"/>
<path d="M1020.73 170.556L1079.52 136.612" stroke="#FFEBCF" stroke-width="2" stroke-miterlimit="10"/>
<path d="M1059.92 170.556L1001.14 136.612" stroke="#FFEBCF" stroke-width="2" stroke-miterlimit="10"/>
<path d="M1020.73 102.668V170.556" stroke="#FFEBCF" stroke-width="2" stroke-miterlimit="10"/>
<path d="M1079.52 0.835693L1118.72 68.7238" stroke="#FFEBCF" stroke-width="2" stroke-miterlimit="10"/>
<path d="M1118.72 0.835693L1079.52 68.7238" stroke="#FFEBCF" stroke-width="2" stroke-miterlimit="10"/>
<path d="M1059.92 34.7798H1138.32" stroke="#FFEBCF" stroke-width="2" stroke-miterlimit="10"/>
<path d="M1118.72 0.835693H1079.52L1059.92 34.7797L1079.52 68.7238H1118.72L1138.32 34.7797L1118.72 0.835693Z" stroke="#FFEBCF" stroke-width="2" stroke-miterlimit="10"/>
<path d="M1059.92 34.7797L1118.72 0.835693" stroke="#FFEBCF" stroke-width="2" stroke-miterlimit="10"/>
<path d="M1079.52 0.835693L1138.32 34.7797" stroke="#FFEBCF" stroke-width="2" stroke-miterlimit="10"/>
<path d="M1118.72 0.835693V68.7238" stroke="#FFEBCF" stroke-width="2" stroke-miterlimit="10"/>
<path d="M1079.52 68.7238L1138.32 34.7798" stroke="#FFEBCF" stroke-width="2" stroke-miterlimit="10"/>
<path d="M1118.72 68.7238L1059.92 34.7798" stroke="#FFEBCF" stroke-width="2" stroke-miterlimit="10"/>
<path d="M1079.52 0.835693V68.7238" stroke="#FFEBCF" stroke-width="2" stroke-miterlimit="10"/>
<path d="M785.571 442.099L824.763 509.988" stroke="#FFEBCF" stroke-width="2" stroke-miterlimit="10"/>
<path d="M824.763 442.099L785.571 509.988" stroke="#FFEBCF" stroke-width="2" stroke-miterlimit="10"/>
<path d="M765.971 476.043H844.352" stroke="#FFEBCF" stroke-width="2" stroke-miterlimit="10"/>
<path d="M824.763 442.099H785.57L765.971 476.044L785.57 509.988H824.763L844.352 476.044L824.763 442.099Z" stroke="#FFEBCF" stroke-width="2" stroke-miterlimit="10"/>
<path d="M765.971 476.044L824.763 442.099" stroke="#FFEBCF" stroke-width="2" stroke-miterlimit="10"/>
<path d="M785.571 442.099L844.352 476.044" stroke="#FFEBCF" stroke-width="2" stroke-miterlimit="10"/>
<path d="M824.763 442.099V509.988" stroke="#FFEBCF" stroke-width="2" stroke-miterlimit="10"/>
<path d="M785.571 509.988L844.352 476.043" stroke="#FFEBCF" stroke-width="2" stroke-miterlimit="10"/>
<path d="M824.763 509.988L765.971 476.043" stroke="#FFEBCF" stroke-width="2" stroke-miterlimit="10"/>
<path d="M785.571 442.099V509.988" stroke="#FFEBCF" stroke-width="2" stroke-miterlimit="10"/>
<path d="M726.778 476.043L765.971 543.931" stroke="#FFEBCF" stroke-width="2" stroke-miterlimit="10"/>
<path d="M765.971 476.043L726.778 543.931" stroke="#FFEBCF" stroke-width="2" stroke-miterlimit="10"/>
<path d="M707.178 509.988H785.571" stroke="#FFEBCF" stroke-width="2" stroke-miterlimit="10"/>
<path d="M765.971 476.043H726.778L707.178 509.988L726.778 543.931H765.971L785.571 509.988L765.971 476.043Z" stroke="#FFEBCF" stroke-width="2" stroke-miterlimit="10"/>
<path d="M707.178 509.988L765.971 476.043" stroke="#FFEBCF" stroke-width="2" stroke-miterlimit="10"/>
<path d="M726.778 476.043L785.571 509.988" stroke="#FFEBCF" stroke-width="2" stroke-miterlimit="10"/>
<path d="M765.971 476.043V543.931" stroke="#FFEBCF" stroke-width="2" stroke-miterlimit="10"/>
<path d="M726.778 543.931L785.571 509.988" stroke="#FFEBCF" stroke-width="2" stroke-miterlimit="10"/>
<path d="M765.971 543.931L707.178 509.988" stroke="#FFEBCF" stroke-width="2" stroke-miterlimit="10"/>
<path d="M726.778 476.043V543.931" stroke="#FFEBCF" stroke-width="2" stroke-miterlimit="10"/>
<path d="M942.347 34.7798H903.149L883.559 68.7238L903.149 102.668H942.347L961.938 68.7238L942.347 34.7798Z" stroke="#FFEBCF" stroke-width="2" stroke-miterlimit="10"/>
<path d="M933.454 58.022H912.05V79.4256H933.454V58.022Z" stroke="#FFEBCF" stroke-width="2" stroke-miterlimit="10"/>
<path d="M1001.14 136.612H961.938L942.347 170.556L961.938 204.5H1001.14L1020.73 170.556L1001.14 136.612Z" stroke="#FFEBCF" stroke-width="2" stroke-miterlimit="10"/>
<path d="M992.243 159.854H970.839V181.257H992.243V159.854Z" stroke="#FFEBCF" stroke-width="2" stroke-miterlimit="10"/>
<path d="M942.347 170.556H903.149L883.559 204.5L903.149 238.444H942.347L961.938 204.5L942.347 170.556Z" stroke="#FFEBCF" stroke-width="2" stroke-miterlimit="10"/>
<path d="M933.454 193.798H912.05V215.202H933.454V193.798Z" stroke="#FFEBCF" stroke-width="2" stroke-miterlimit="10"/>
<path d="M765.971 340.268H726.778L707.178 374.212L726.778 408.155H765.971L785.571 374.212L765.971 340.268Z" stroke="#FFEBCF" stroke-width="2" stroke-miterlimit="10"/>
<path d="M757.072 363.51H735.669V384.913H757.072V363.51Z" stroke="#FFEBCF" stroke-width="2" stroke-miterlimit="10"/>
<path d="M589.601 374.229H550.408L530.807 408.173L550.408 442.109H589.601L609.201 408.173L589.601 374.229Z" stroke="#FFEBCF" stroke-width="2" stroke-miterlimit="10"/>
<path d="M580.701 397.463H559.298V418.866H580.701V397.463Z" stroke="#FFEBCF" stroke-width="2" stroke-miterlimit="10"/>
<path d="M472.014 170.556H432.813L413.222 204.5L432.813 238.444H472.014L491.606 204.5L472.014 170.556Z" stroke="#FFEBCF" stroke-width="2" stroke-miterlimit="10"/>
<path d="M463.116 193.798H441.712V215.202H463.116V193.798Z" stroke="#FFEBCF" stroke-width="2" stroke-miterlimit="10"/>
<path d="M413.222 0.835693H374.021L354.429 34.7797L374.021 68.7238H413.222L432.814 34.7797L413.222 0.835693Z" stroke="#FFEBCF" stroke-width="2" stroke-miterlimit="10"/>
<path d="M404.323 24.0779H382.92V45.4815H404.323V24.0779Z" stroke="#FFEBCF" stroke-width="2" stroke-miterlimit="10"/>
<path d="M236.843 102.668H197.65L178.05 136.612L197.65 170.556H236.843L256.443 136.612L236.843 102.668Z" stroke="#FFEBCF" stroke-width="2" stroke-miterlimit="10"/>
<path d="M227.944 125.91H206.541V147.314H227.944V125.91Z" stroke="#FFEBCF" stroke-width="2" stroke-miterlimit="10"/>
<path d="M295.636 340.268H256.444L236.843 374.212L256.444 408.155H295.636L315.237 374.212L295.636 340.268Z" stroke="#FFEBCF" stroke-width="2" stroke-miterlimit="10"/>
<path d="M286.738 363.51H265.334V384.913H286.738V363.51Z" stroke="#FFEBCF" stroke-width="2" stroke-miterlimit="10"/>
<path d="M60.4644 272.388H21.2722L1.67154 306.323L21.2722 340.267H60.4644L80.0651 306.323L60.4644 272.388Z" stroke="#FFEBCF" stroke-width="2" stroke-miterlimit="10"/>
<path d="M51.5748 295.621H30.1712V317.025H51.5748V295.621Z" stroke="#FFEBCF" stroke-width="2" stroke-miterlimit="10"/>
<path d="M178.05 0.844238H138.857L119.265 34.7883L138.857 68.7323H178.05L197.65 34.7883L178.05 0.844238Z" stroke="#FFEBCF" stroke-width="2" stroke-miterlimit="10"/>
<path d="M197.651 34.7798C191.885 31.4416 185.191 29.5315 178.051 29.5315C156.406 29.5315 138.859 47.0792 138.859 68.7238" stroke="#FFEBCF" stroke-width="2" stroke-miterlimit="10"/>
<path d="M119.257 34.7883C125.023 38.1265 131.718 40.0365 138.858 40.0365C160.503 40.0365 178.051 22.4888 178.051 0.844238" stroke="#FFEBCF" stroke-width="2" stroke-miterlimit="10"/>
<path d="M178.051 0.835693C172.275 4.16494 167.277 9.00257 163.707 15.1881C152.88 33.9318 159.307 57.906 178.051 68.7327" stroke="#FFEBCF" stroke-width="2" stroke-miterlimit="10"/>
<path d="M138.867 68.7327C144.642 65.4035 149.64 60.5658 153.21 54.3803C164.037 35.6366 157.611 11.6624 138.867 0.835693" stroke="#FFEBCF" stroke-width="2" stroke-miterlimit="10"/>
<path d="M138.859 0.844727C138.849 7.50322 140.545 14.2599 144.116 20.4453C154.942 39.1891 178.907 45.6155 197.66 34.7888" stroke="#FFEBCF" stroke-width="2" stroke-miterlimit="10"/>
<path d="M178.059 68.7328C178.068 62.0744 176.372 55.3177 172.802 49.1323C161.975 30.3885 138.01 23.9621 119.257 34.7888" stroke="#FFEBCF" stroke-width="2" stroke-miterlimit="10"/>
<path d="M119.265 102.668H80.0639L60.4722 136.612L80.0639 170.556H119.265L138.857 136.612L119.265 102.668Z" stroke="#FFEBCF" stroke-width="2" stroke-miterlimit="10"/>
<path d="M138.867 136.612C133.101 133.274 126.406 131.364 119.266 131.364C97.6213 131.364 80.0738 148.911 80.0738 170.556" stroke="#FFEBCF" stroke-width="2" stroke-miterlimit="10"/>
<path d="M60.4641 136.62C66.23 139.958 72.9242 141.869 80.0647 141.869C101.709 141.869 119.257 124.321 119.257 102.676" stroke="#FFEBCF" stroke-width="2" stroke-miterlimit="10"/>
<path d="M119.257 102.668C113.482 105.997 108.484 110.835 104.913 117.021C94.0868 135.765 100.513 159.738 119.257 170.565" stroke="#FFEBCF" stroke-width="2" stroke-miterlimit="10"/>
<path d="M80.0738 170.565C85.8485 167.236 90.8473 162.398 94.4169 156.213C105.244 137.469 98.8173 113.494 80.0738 102.668" stroke="#FFEBCF" stroke-width="2" stroke-miterlimit="10"/>
<path d="M80.0649 102.668C80.0559 109.326 81.7518 116.083 85.322 122.268C96.1486 141.012 120.114 147.439 138.867 136.612" stroke="#FFEBCF" stroke-width="2" stroke-miterlimit="10"/>
<path d="M119.266 170.556C119.275 163.898 117.579 157.141 114.008 150.956C103.182 132.212 79.2167 125.785 60.4641 136.612" stroke="#FFEBCF" stroke-width="2" stroke-miterlimit="10"/>
<path d="M354.429 170.556H315.237L295.636 204.5L315.237 238.444H354.429L374.029 204.5L354.429 170.556Z" stroke="#FFEBCF" stroke-width="2" stroke-miterlimit="10"/>
<path d="M374.029 204.5C368.263 201.161 361.569 199.252 354.429 199.252C332.784 199.252 315.237 216.8 315.237 238.444" stroke="#FFEBCF" stroke-width="2" stroke-miterlimit="10"/>
<path d="M295.636 204.509C301.401 207.847 308.096 209.757 315.237 209.757C336.881 209.757 354.429 192.209 354.429 170.564" stroke="#FFEBCF" stroke-width="2" stroke-miterlimit="10"/>
<path d="M354.429 170.556C348.654 173.885 343.656 178.723 340.085 184.908C329.259 203.652 335.685 227.626 354.429 238.453" stroke="#FFEBCF" stroke-width="2" stroke-miterlimit="10"/>
<path d="M315.237 238.453C321.011 235.124 326.01 230.286 329.58 224.101C340.407 205.357 333.98 181.383 315.237 170.556" stroke="#FFEBCF" stroke-width="2" stroke-miterlimit="10"/>
<path d="M315.228 170.556C315.218 177.215 316.914 183.971 320.485 190.157C331.311 208.901 355.276 215.327 374.029 204.5" stroke="#FFEBCF" stroke-width="2" stroke-miterlimit="10"/>
<path d="M354.437 238.444C354.446 231.785 352.751 225.029 349.18 218.843C338.354 200.1 314.388 193.673 295.636 204.5" stroke="#FFEBCF" stroke-width="2" stroke-miterlimit="10"/>
<path d="M589.6 306.332H550.399L530.806 340.276L550.399 374.22H589.6L609.191 340.276L589.6 306.332Z" stroke="#FFEBCF" stroke-width="2" stroke-miterlimit="10"/>
<path d="M609.201 340.268C603.435 336.929 596.741 335.019 589.601 335.019C567.956 335.019 550.409 352.567 550.409 374.212" stroke="#FFEBCF" stroke-width="2" stroke-miterlimit="10"/>
<path d="M530.799 340.285C536.565 343.623 543.258 345.533 550.399 345.533C572.043 345.533 589.591 327.986 589.591 306.341" stroke="#FFEBCF" stroke-width="2" stroke-miterlimit="10"/>
<path d="M589.591 306.323C583.816 309.653 578.818 314.49 575.248 320.676C564.421 339.419 570.847 363.393 589.591 374.22" stroke="#FFEBCF" stroke-width="2" stroke-miterlimit="10"/>
<path d="M550.409 374.229C556.183 370.9 561.182 366.062 564.751 359.877C575.579 341.133 569.152 317.159 550.409 306.333" stroke="#FFEBCF" stroke-width="2" stroke-miterlimit="10"/>
<path d="M550.399 306.333C550.39 312.991 552.086 319.748 555.656 325.933C566.483 344.677 590.448 351.103 609.201 340.277" stroke="#FFEBCF" stroke-width="2" stroke-miterlimit="10"/>
<path d="M589.601 374.22C589.609 367.562 587.913 360.805 584.343 354.619C573.516 335.876 549.551 329.45 530.799 340.277" stroke="#FFEBCF" stroke-width="2" stroke-miterlimit="10"/>
<path d="M707.176 442.108H667.984L648.393 476.052L667.984 509.996H707.176L726.777 476.052L707.176 442.108Z" stroke="#FFEBCF" stroke-width="2" stroke-miterlimit="10"/>
<path d="M726.778 476.044C721.012 472.705 714.318 470.795 707.178 470.795C685.533 470.795 667.985 488.343 667.985 509.988" stroke="#FFEBCF" stroke-width="2" stroke-miterlimit="10"/>
<path d="M648.384 476.052C654.15 479.39 660.845 481.3 667.985 481.3C689.63 481.3 707.177 463.753 707.177 442.108" stroke="#FFEBCF" stroke-width="2" stroke-miterlimit="10"/>
<path d="M707.177 442.099C701.402 445.429 696.404 450.267 692.833 456.452C682.007 475.195 688.433 499.17 707.177 509.996" stroke="#FFEBCF" stroke-width="2" stroke-miterlimit="10"/>
<path d="M667.994 509.996C673.769 506.667 678.767 501.83 682.338 495.644C693.164 476.9 686.738 452.926 667.994 442.099" stroke="#FFEBCF" stroke-width="2" stroke-miterlimit="10"/>
<path d="M667.976 442.109C667.967 448.767 669.663 455.524 673.233 461.709C684.06 480.453 708.025 486.88 726.778 476.053" stroke="#FFEBCF" stroke-width="2" stroke-miterlimit="10"/>
<path d="M707.186 509.996C707.195 503.338 705.5 496.581 701.929 490.396C691.102 471.652 667.137 465.226 648.384 476.053" stroke="#FFEBCF" stroke-width="2" stroke-miterlimit="10"/>
<path d="M824.763 170.556H785.57L765.971 204.5L785.57 238.444H824.763L844.361 204.5L824.763 170.556Z" stroke="#FFEBCF" stroke-width="2" stroke-miterlimit="10"/>
<path d="M844.361 204.5C838.602 201.161 831.904 199.252 824.763 199.252C803.118 199.252 785.571 216.8 785.571 238.444" stroke="#FFEBCF" stroke-width="2" stroke-miterlimit="10"/>
<path d="M765.971 204.509C771.736 207.847 778.43 209.757 785.57 209.757C807.215 209.757 824.763 192.209 824.763 170.564" stroke="#FFEBCF" stroke-width="2" stroke-miterlimit="10"/>
<path d="M824.763 170.556C818.988 173.885 813.99 178.723 810.42 184.908C799.593 203.652 806.019 227.626 824.763 238.453" stroke="#FFEBCF" stroke-width="2" stroke-miterlimit="10"/>
<path d="M785.571 238.453C791.346 235.124 796.344 230.286 799.915 224.101C810.742 205.357 804.314 181.383 785.571 170.556" stroke="#FFEBCF" stroke-width="2" stroke-miterlimit="10"/>
<path d="M785.562 170.556C785.553 177.215 787.249 183.971 790.819 190.157C801.646 208.901 825.611 215.327 844.361 204.5" stroke="#FFEBCF" stroke-width="2" stroke-miterlimit="10"/>
<path d="M824.772 238.444C824.781 231.785 823.085 225.029 819.515 218.843C808.688 200.1 784.723 193.673 765.971 204.5" stroke="#FFEBCF" stroke-width="2" stroke-miterlimit="10"/>
<path d="M413.222 476.052H374.03L354.429 509.996L374.03 543.94H413.222L432.822 509.996L413.222 476.052Z" stroke="#FFEBCF" stroke-width="2" stroke-miterlimit="10"/>
<path d="M432.823 509.988C427.057 506.649 420.362 504.739 413.222 504.739C391.577 504.739 374.029 522.287 374.029 543.931" stroke="#FFEBCF" stroke-width="2" stroke-miterlimit="10"/>
<path d="M354.429 509.996C360.195 513.334 366.889 515.244 374.03 515.244C395.674 515.244 413.222 497.696 413.222 476.052" stroke="#FFEBCF" stroke-width="2" stroke-miterlimit="10"/>
<path d="M413.222 476.043C407.447 479.372 402.448 484.21 398.879 490.395C388.051 509.139 394.478 533.114 413.222 543.94" stroke="#FFEBCF" stroke-width="2" stroke-miterlimit="10"/>
<path d="M374.029 543.94C379.805 540.611 384.803 535.773 388.373 529.588C399.2 510.844 392.773 486.87 374.029 476.043" stroke="#FFEBCF" stroke-width="2" stroke-miterlimit="10"/>
<path d="M374.021 476.053C374.012 482.711 375.708 489.468 379.278 495.653C390.105 514.396 414.07 520.823 432.823 509.996" stroke="#FFEBCF" stroke-width="2" stroke-miterlimit="10"/>
<path d="M413.231 543.94C413.24 537.282 411.544 530.525 407.974 524.34C397.147 505.596 373.182 499.169 354.429 509.996" stroke="#FFEBCF" stroke-width="2" stroke-miterlimit="10"/>
<path d="M354.429 442.108H315.237L295.636 476.052L315.237 509.996H354.429L374.029 476.052L354.429 442.108Z" stroke="#FFEBCF" stroke-width="2" stroke-miterlimit="10"/>
<path d="M374.029 476.044C368.263 472.705 361.569 470.795 354.429 470.795C332.784 470.795 315.237 488.343 315.237 509.988" stroke="#FFEBCF" stroke-width="2" stroke-miterlimit="10"/>
<path d="M295.636 476.052C301.401 479.39 308.096 481.3 315.237 481.3C336.881 481.3 354.429 463.753 354.429 442.108" stroke="#FFEBCF" stroke-width="2" stroke-miterlimit="10"/>
<path d="M354.429 442.099C348.654 445.429 343.656 450.267 340.085 456.452C329.259 475.195 335.685 499.17 354.429 509.996" stroke="#FFEBCF" stroke-width="2" stroke-miterlimit="10"/>
<path d="M315.237 509.996C321.011 506.667 326.01 501.83 329.58 495.644C340.407 476.9 333.98 452.926 315.237 442.099" stroke="#FFEBCF" stroke-width="2" stroke-miterlimit="10"/>
<path d="M315.228 442.109C315.218 448.767 316.914 455.524 320.485 461.709C331.311 480.453 355.276 486.88 374.029 476.053" stroke="#FFEBCF" stroke-width="2" stroke-miterlimit="10"/>
<path d="M354.437 509.996C354.446 503.338 352.751 496.581 349.18 490.396C338.354 471.652 314.388 465.226 295.636 476.053" stroke="#FFEBCF" stroke-width="2" stroke-miterlimit="10"/>
<path d="M942.347 442.108H903.157L883.559 476.052L903.157 509.996H942.347L961.946 476.052L942.347 442.108Z" stroke="#FFEBCF" stroke-width="2" stroke-miterlimit="10"/>
<path d="M961.946 476.044C956.187 472.705 949.493 470.795 942.347 470.795C920.7 470.795 903.157 488.343 903.157 509.988" stroke="#FFEBCF" stroke-width="2" stroke-miterlimit="10"/>
<path d="M883.559 476.052C889.325 479.39 896.02 481.3 903.157 481.3C924.804 481.3 942.347 463.753 942.347 442.108" stroke="#FFEBCF" stroke-width="2" stroke-miterlimit="10"/>
<path d="M942.347 442.099C936.572 445.429 931.574 450.267 928.005 456.452C917.182 475.195 923.609 499.17 942.347 509.996" stroke="#FFEBCF" stroke-width="2" stroke-miterlimit="10"/>
<path d="M903.157 509.996C908.933 506.667 913.931 501.83 917.499 495.644C928.323 476.9 921.904 452.926 903.157 442.099" stroke="#FFEBCF" stroke-width="2" stroke-miterlimit="10"/>
<path d="M903.149 442.109C903.141 448.767 904.837 455.524 908.406 461.709C919.229 480.453 943.2 486.88 961.946 476.053" stroke="#FFEBCF" stroke-width="2" stroke-miterlimit="10"/>
<path d="M942.355 509.996C942.364 503.338 940.667 496.581 937.098 490.396C926.275 471.652 902.305 465.226 883.559 476.053" stroke="#FFEBCF" stroke-width="2" stroke-miterlimit="10"/>
<path d="M1118.73 340.276H1079.52L1059.93 374.22L1079.52 408.164H1118.73L1138.32 374.22L1118.73 340.276Z" stroke="#FFEBCF" stroke-width="2" stroke-miterlimit="10"/>
<path d="M1138.33 374.212C1132.56 370.873 1125.87 368.963 1118.73 368.963C1097.08 368.963 1079.54 386.511 1079.54 408.155" stroke="#FFEBCF" stroke-width="2" stroke-miterlimit="10"/>
<path d="M1059.92 374.229C1065.69 377.567 1072.39 379.477 1079.52 379.477C1101.17 379.477 1118.72 361.929 1118.72 340.285" stroke="#FFEBCF" stroke-width="2" stroke-miterlimit="10"/>
<path d="M1118.72 340.268C1112.95 343.596 1107.95 348.435 1104.38 354.62C1093.55 373.364 1099.97 397.338 1118.72 408.164" stroke="#FFEBCF" stroke-width="2" stroke-miterlimit="10"/>
<path d="M1079.54 408.173C1085.31 404.844 1090.31 400.006 1093.88 393.821C1104.71 375.078 1098.28 351.103 1079.54 340.277" stroke="#FFEBCF" stroke-width="2" stroke-miterlimit="10"/>
<path d="M1079.52 340.277C1079.51 346.935 1081.21 353.692 1084.78 359.877C1095.61 378.62 1119.57 385.048 1138.33 374.22" stroke="#FFEBCF" stroke-width="2" stroke-miterlimit="10"/>
<path d="M1118.73 408.164C1118.74 401.506 1117.04 394.749 1113.47 388.564C1102.64 369.82 1078.68 363.393 1059.92 374.22" stroke="#FFEBCF" stroke-width="2" stroke-miterlimit="10"/>
<path d="M1118.73 68.7322H1079.52L1059.93 102.668L1079.52 136.611H1118.73L1138.32 102.668L1118.73 68.7322Z" stroke="#FFEBCF" stroke-width="2" stroke-miterlimit="10"/>
<path d="M1138.33 102.668C1132.56 99.3297 1125.87 97.4199 1118.73 97.4199C1097.08 97.4199 1079.54 114.967 1079.54 136.612" stroke="#FFEBCF" stroke-width="2" stroke-miterlimit="10"/>
<path d="M1059.92 102.676C1065.69 106.014 1072.39 107.925 1079.52 107.925C1101.17 107.925 1118.72 90.3767 1118.72 68.7322" stroke="#FFEBCF" stroke-width="2" stroke-miterlimit="10"/>
<path d="M1118.72 68.7239C1112.95 72.0532 1107.95 76.8908 1104.38 83.0763C1093.55 101.82 1099.97 125.794 1118.72 136.621" stroke="#FFEBCF" stroke-width="2" stroke-miterlimit="10"/>
<path d="M1079.54 136.621C1085.31 133.291 1090.31 128.454 1093.88 122.268C1104.71 103.525 1098.28 79.5506 1079.54 68.7239" stroke="#FFEBCF" stroke-width="2" stroke-miterlimit="10"/>
<path d="M1079.52 68.7329C1079.51 75.3914 1081.21 82.1481 1084.78 88.3333C1095.61 107.077 1119.57 113.504 1138.33 102.677" stroke="#FFEBCF" stroke-width="2" stroke-miterlimit="10"/>
<path d="M1118.73 136.612C1118.74 129.953 1117.04 123.197 1113.47 117.011C1102.64 98.2673 1078.68 91.841 1059.92 102.668" stroke="#FFEBCF" stroke-width="2" stroke-miterlimit="10"/>
<path d="M295.636 0.835693H256.444L236.843 34.7797L256.444 68.7238H295.636L315.237 34.7797L295.636 0.835693Z" stroke="#FFEBCF" stroke-width="2" stroke-miterlimit="10"/>
<path d="M276.25 47.9629C269.172 47.9629 263.406 42.0452 263.406 34.7798C263.406 27.5144 269.163 21.5967 276.25 21.5967C283.337 21.5967 289.094 27.5055 289.094 34.7798C289.094 42.0452 283.337 47.9629 276.25 47.9629Z" stroke="#FFEBCF" stroke-width="2" stroke-miterlimit="10"/>
<path d="M648.385 0.835693H609.192L589.591 34.7797L609.192 68.7238H648.385L667.985 34.7797L648.385 0.835693Z" stroke="#FFEBCF" stroke-width="2" stroke-miterlimit="10"/>
<path d="M629.008 47.9629C621.929 47.9629 616.163 42.0452 616.163 34.7798C616.163 27.5144 621.921 21.5967 629.008 21.5967C636.086 21.5967 641.852 27.5055 641.852 34.7798C641.852 42.0452 636.086 47.9629 629.008 47.9629Z" stroke="#FFEBCF" stroke-width="2" stroke-miterlimit="10"/>
<path d="M765.971 0.835693H726.778L707.178 34.7797L726.778 68.7238H765.971L785.571 34.7797L765.971 0.835693Z" stroke="#FFEBCF" stroke-width="2" stroke-miterlimit="10"/>
<path d="M746.585 47.9629C739.506 47.9629 733.74 42.0452 733.74 34.7798C733.74 27.5144 739.497 21.5967 746.585 21.5967C753.662 21.5967 759.428 27.5055 759.428 34.7798C759.428 42.0452 753.671 47.9629 746.585 47.9629Z" stroke="#FFEBCF" stroke-width="2" stroke-miterlimit="10"/>
<path d="M119.257 34.7798H80.0647L60.4641 68.7238L80.0647 102.668H119.257L138.858 68.7238L119.257 34.7798Z" stroke="#FFEBCF" stroke-width="2" stroke-miterlimit="10"/>
<path d="M99.8796 81.907C92.8022 81.907 87.0362 75.9893 87.0362 68.7239C87.0362 61.4584 92.793 55.5408 99.8796 55.5408C106.958 55.5408 112.724 61.4495 112.724 68.7239C112.724 75.9893 106.958 81.907 99.8796 81.907Z" stroke="#FFEBCF" stroke-width="2" stroke-miterlimit="10"/>
<path d="M178.051 68.7239H138.858L119.257 102.668L138.858 136.612H178.051L197.651 102.668L178.051 68.7239Z" stroke="#FFEBCF" stroke-width="2" stroke-miterlimit="10"/>
<path d="M158.673 115.851C151.595 115.851 145.829 109.933 145.829 102.668C145.829 95.4022 151.587 89.4849 158.673 89.4849C165.751 89.4849 171.517 95.3938 171.517 102.668C171.508 109.933 165.751 115.851 158.673 115.851Z" stroke="#FFEBCF" stroke-width="2" stroke-miterlimit="10"/>
<path d="M432.037 101.409L428.494 95.2685L416.47 74.4451L413.891 69.9734C413.445 69.1968 412.615 68.7148 411.722 68.7148H375.422C374.529 68.7148 373.699 69.1968 373.253 69.9644L370.361 74.9716L357.66 96.9735C357.41 97.4014 356.874 97.6162 356.401 97.4908C355.919 97.3663 355.581 96.92 355.581 96.4202V85.9772C355.581 76.4623 347.842 68.7238 338.327 68.7238H323.573C322.19 68.7238 321.065 69.8484 321.065 71.2319V85.9772C321.065 92.8497 325.162 98.9994 331.499 101.641C331.91 101.811 332.186 102.213 332.186 102.668V102.677C332.186 103.132 331.919 103.533 331.499 103.703C325.207 106.327 321.11 112.432 321.065 119.269C321.065 119.279 321.065 119.341 321.065 119.35V130.123V134.113C321.065 135.496 322.19 136.621 323.573 136.621H338.318C347.833 136.621 355.571 128.883 355.571 119.367V108.907C355.571 108.407 355.911 107.961 356.401 107.827C356.491 107.8 356.588 107.791 356.687 107.791C357.088 107.791 357.454 108.005 357.651 108.344L371.174 131.756L373.244 135.353C373.69 136.13 374.52 136.612 375.413 136.612H411.713C412.606 136.612 413.436 136.13 413.882 135.353L417.721 128.704L426.753 113.057L426.887 112.834L431.037 105.649L432.037 103.926C432.483 103.15 432.483 102.186 432.037 101.409ZM393.835 115.851C386.758 115.851 380.991 109.933 380.991 102.668C380.991 95.4022 386.748 89.4849 393.835 89.4849C400.913 89.4849 406.679 95.3939 406.679 102.668C406.679 109.933 400.922 115.851 393.835 115.851Z" stroke="#FFEBCF" stroke-width="2" stroke-miterlimit="10"/>
<path d="M530.799 68.7239H491.607L472.015 102.668L491.607 136.612H530.799L550.399 102.668L530.799 68.7239Z" stroke="#FFEBCF" stroke-width="2" stroke-miterlimit="10"/>
<path d="M511.422 115.851C504.344 115.851 498.578 109.933 498.578 102.668C498.578 95.4022 504.335 89.4849 511.422 89.4849C518.499 89.4849 524.265 95.3938 524.265 102.668C524.265 109.933 518.499 115.851 511.422 115.851Z" stroke="#FFEBCF" stroke-width="2" stroke-miterlimit="10"/>
<path d="M589.591 102.668H550.399L530.799 136.612L550.399 170.556H589.591L609.192 136.612L589.591 102.668Z" stroke="#FFEBCF" stroke-width="2" stroke-miterlimit="10"/>
<path d="M570.214 149.795C563.137 149.795 557.371 143.877 557.371 136.612C557.371 129.346 563.127 123.429 570.214 123.429C577.292 123.429 583.058 129.337 583.058 136.612C583.058 143.877 577.292 149.795 570.214 149.795Z" stroke="#FFEBCF" stroke-width="2" stroke-miterlimit="10"/>
<path d="M707.177 102.668H667.985L648.384 136.612L667.985 170.556H707.177L726.778 136.612L707.177 102.668Z" stroke="#FFEBCF" stroke-width="2" stroke-miterlimit="10"/>
<path d="M687.8 149.795C680.722 149.795 674.956 143.877 674.956 136.612C674.956 129.346 680.713 123.429 687.8 123.429C694.878 123.429 700.644 129.337 700.644 136.612C700.635 143.877 694.878 149.795 687.8 149.795Z" stroke="#FFEBCF" stroke-width="2" stroke-miterlimit="10"/>
<path d="M295.636 204.5H256.444L236.843 238.444L256.444 272.388H295.636L315.237 238.444L295.636 204.5Z" stroke="#FFEBCF" stroke-width="2" stroke-miterlimit="10"/>
<path d="M276.25 251.628C269.172 251.628 263.406 245.709 263.406 238.444C263.406 231.179 269.163 225.261 276.25 225.261C283.337 225.261 289.094 231.17 289.094 238.444C289.094 245.709 283.337 251.628 276.25 251.628Z" stroke="#FFEBCF" stroke-width="2" stroke-miterlimit="10"/>
<path d="M765.971 204.5H726.778L707.178 238.444L726.778 272.388H765.971L785.571 238.444L765.971 204.5Z" stroke="#FFEBCF" stroke-width="2" stroke-miterlimit="10"/>
<path d="M746.585 251.628C739.506 251.628 733.74 245.709 733.74 238.444C733.74 231.179 739.497 225.261 746.585 225.261C753.662 225.261 759.428 231.17 759.428 238.444C759.428 245.709 753.671 251.628 746.585 251.628Z" stroke="#FFEBCF" stroke-width="2" stroke-miterlimit="10"/>
<path d="M472.014 238.444H432.813L413.222 272.388L432.813 306.323H472.014L491.606 272.388L472.014 238.444Z" stroke="#FFEBCF" stroke-width="2" stroke-miterlimit="10"/>
<path d="M452.628 285.563C445.55 285.563 439.784 279.644 439.784 272.379C439.784 265.114 445.541 259.196 452.628 259.196C459.707 259.196 465.473 265.105 465.473 272.379C465.473 279.654 459.707 285.563 452.628 285.563Z" stroke="#FFEBCF" stroke-width="2" stroke-miterlimit="10"/>
<path d="M589.591 238.444H550.399L530.799 272.388L550.399 306.323H589.591L609.192 272.388L589.591 238.444Z" stroke="#FFEBCF" stroke-width="2" stroke-miterlimit="10"/>
<path d="M570.214 285.563C563.137 285.563 557.371 279.644 557.371 272.379C557.371 265.114 563.127 259.196 570.214 259.196C577.292 259.196 583.058 265.105 583.058 272.379C583.058 279.654 577.292 285.563 570.214 285.563Z" stroke="#FFEBCF" stroke-width="2" stroke-miterlimit="10"/>
<path d="M942.347 238.444H903.149L883.559 272.388L903.149 306.323H942.347L961.938 272.388L942.347 238.444Z" stroke="#FFEBCF" stroke-width="2" stroke-miterlimit="10"/>
<path d="M922.965 285.563C915.886 285.563 910.119 279.644 910.119 272.379C910.119 265.114 915.878 259.196 922.965 259.196C930.053 259.196 935.803 265.105 935.803 272.379C935.803 279.654 930.053 285.563 922.965 285.563Z" stroke="#FFEBCF" stroke-width="2" stroke-miterlimit="10"/>
<path d="M530.799 272.388H491.607L472.015 306.323L491.607 340.267H530.799L550.399 306.323L530.799 272.388Z" stroke="#FFEBCF" stroke-width="2" stroke-miterlimit="10"/>
<path d="M511.422 319.506C504.344 319.506 498.578 313.589 498.578 306.323C498.578 299.058 504.335 293.14 511.422 293.14C518.499 293.14 524.265 299.048 524.265 306.323C524.265 313.598 518.499 319.506 511.422 319.506Z" stroke="#FFEBCF" stroke-width="2" stroke-miterlimit="10"/>
<path d="M942.347 306.323H903.149L883.559 340.268L903.149 374.212H942.347L961.938 340.268L942.347 306.323Z" stroke="#FFEBCF" stroke-width="2" stroke-miterlimit="10"/>
<path d="M922.965 353.45C915.886 353.45 910.119 347.533 910.119 340.267C910.119 333.002 915.878 327.085 922.965 327.085C930.053 327.085 935.803 332.993 935.803 340.267C935.803 347.542 930.053 353.45 922.965 353.45Z" stroke="#FFEBCF" stroke-width="2" stroke-miterlimit="10"/>
<path d="M1059.92 306.323H1020.73L1001.14 340.268L1020.73 374.212H1059.92L1079.52 340.268L1059.92 306.323Z" stroke="#FFEBCF" stroke-width="2" stroke-miterlimit="10"/>
<path d="M1040.55 353.45C1033.47 353.45 1027.71 347.533 1027.71 340.267C1027.71 333.002 1033.46 327.085 1040.55 327.085C1047.64 327.085 1053.39 332.993 1053.39 340.267C1053.39 347.542 1047.63 353.45 1040.55 353.45Z" stroke="#FFEBCF" stroke-width="2" stroke-miterlimit="10"/>
<path d="M178.051 340.268H138.858L119.257 374.212L138.858 408.155H178.051L197.651 374.212L178.051 340.268Z" stroke="#FFEBCF" stroke-width="2" stroke-miterlimit="10"/>
<path d="M158.673 387.394C151.595 387.394 145.829 381.477 145.829 374.212C145.829 366.946 151.587 361.028 158.673 361.028C165.751 361.028 171.517 366.937 171.517 374.212C171.508 381.485 165.751 387.394 158.673 387.394Z" stroke="#FFEBCF" stroke-width="2" stroke-miterlimit="10"/>
<path d="M883.559 340.268H844.352L824.763 374.212L844.352 408.155H883.559L903.149 374.212L883.559 340.268Z" stroke="#FFEBCF" stroke-width="2" stroke-miterlimit="10"/>
<path d="M864.168 387.394C857.089 387.394 851.323 381.477 851.323 374.212C851.323 366.946 857.081 361.028 864.168 361.028C871.247 361.028 877.014 366.937 877.014 374.212C877.014 381.485 871.256 387.394 864.168 387.394Z" stroke="#FFEBCF" stroke-width="2" stroke-miterlimit="10"/>
<path d="M472.014 374.212H432.813L413.222 408.155L432.813 442.099H472.014L491.606 408.155L472.014 374.212Z" stroke="#FFEBCF" stroke-width="2" stroke-miterlimit="10"/>
<path d="M452.628 421.339C445.55 421.339 439.784 415.421 439.784 408.156C439.784 400.891 445.541 394.972 452.628 394.972C459.707 394.972 465.473 400.881 465.473 408.156C465.473 415.43 459.707 421.339 452.628 421.339Z" stroke="#FFEBCF" stroke-width="2" stroke-miterlimit="10"/>
<path d="M648.385 408.155H609.192L589.591 442.099L609.192 476.044H648.385L667.985 442.099L648.385 408.155Z" stroke="#FFEBCF" stroke-width="2" stroke-miterlimit="10"/>
<path d="M629.008 455.283C621.929 455.283 616.163 449.365 616.163 442.099C616.163 434.834 621.921 428.917 629.008 428.917C636.086 428.917 641.852 434.825 641.852 442.099C641.852 449.374 636.086 455.283 629.008 455.283Z" stroke="#FFEBCF" stroke-width="2" stroke-miterlimit="10"/>
<path d="M883.559 476.043H844.352L824.763 509.988L844.352 543.931H883.559L903.149 509.988L883.559 476.043Z" stroke="#FFEBCF" stroke-width="2" stroke-miterlimit="10"/>
<path d="M864.168 523.171C857.089 523.171 851.323 517.253 851.323 509.988C851.323 502.723 857.081 496.804 864.168 496.804C871.247 496.804 877.014 502.713 877.014 509.988C877.014 517.253 871.256 523.171 864.168 523.171Z" stroke="#FFEBCF" stroke-width="2" stroke-miterlimit="10"/>
<path d="M725.992 271.129L722.448 264.989L710.426 244.166L707.846 239.693C707.4 238.917 706.57 238.436 705.678 238.436H669.377C668.485 238.436 667.655 238.917 667.208 239.685L664.317 244.692L651.615 266.694C651.365 267.122 650.83 267.337 650.357 267.211C649.874 267.087 649.535 266.64 649.535 266.14V255.688C649.535 246.174 641.797 238.436 632.282 238.436H617.537C616.154 238.436 615.029 239.56 615.029 240.944V255.688C615.029 262.561 619.126 268.711 625.463 271.353C625.873 271.522 626.15 271.924 626.15 272.379V272.388C626.15 272.844 625.883 273.245 625.463 273.414C619.17 276.039 615.073 282.144 615.029 288.981C615.029 288.99 615.029 289.053 615.029 289.061V299.834V303.824C615.029 305.207 616.154 306.332 617.537 306.332H632.282C641.797 306.332 649.535 298.594 649.535 289.079V278.618C649.535 278.118 649.874 277.672 650.366 277.538C650.454 277.511 650.553 277.502 650.651 277.502C651.053 277.502 651.419 277.717 651.615 278.056L665.137 301.468L667.208 305.064C667.655 305.841 668.485 306.323 669.377 306.323H705.678C706.57 306.323 707.4 305.841 707.846 305.064L711.684 298.415L720.717 282.768L720.851 282.545L725.002 275.36L726.001 273.638C726.438 272.861 726.438 271.906 725.992 271.129ZM687.799 285.562C680.721 285.562 674.955 279.644 674.955 272.379C674.955 265.114 680.713 259.196 687.799 259.196C694.878 259.196 700.644 265.105 700.644 272.379C700.635 279.654 694.878 285.562 687.799 285.562Z" stroke="#FFEBCF" stroke-width="2" stroke-miterlimit="10"/>
<path d="M120.043 443.358L123.586 449.498L135.609 470.322L138.189 474.794C138.635 475.57 139.465 476.052 140.358 476.052H176.658C177.551 476.052 178.381 475.571 178.827 474.802L181.719 469.795L194.42 447.793C194.67 447.366 195.206 447.152 195.679 447.276C196.16 447.401 196.5 447.848 196.5 448.348V458.799C196.5 468.313 204.238 476.052 213.753 476.052H228.498C229.881 476.052 231.006 474.928 231.006 473.544V458.799C231.006 451.926 226.909 445.777 220.572 443.135C220.161 442.965 219.885 442.563 219.885 442.108V442.099C219.885 441.644 220.152 441.243 220.572 441.073C226.864 438.449 230.961 432.343 231.006 425.507C231.006 425.497 231.006 425.436 231.006 425.426V414.653V410.663C231.006 409.28 229.881 408.155 228.498 408.155H213.753C204.238 408.155 196.5 415.893 196.5 425.409V435.869C196.5 436.369 196.16 436.816 195.67 436.949C195.58 436.976 195.482 436.985 195.384 436.985C194.983 436.985 194.617 436.77 194.42 436.432L180.897 413.02L178.827 409.423C178.381 408.646 177.551 408.164 176.658 408.164H140.358C139.465 408.164 138.635 408.646 138.189 409.423L134.35 416.072L125.318 431.719L125.184 431.942L121.034 439.127L120.034 440.85C119.596 441.617 119.596 442.582 120.043 443.358ZM158.235 428.917C165.313 428.917 171.079 434.834 171.079 442.099C171.079 449.365 165.323 455.282 158.235 455.282C151.158 455.282 145.392 449.374 145.392 442.099C145.401 434.834 151.158 428.917 158.235 428.917Z" stroke="#FFEBCF" stroke-width="2" stroke-miterlimit="10"/>
<path d="M766.755 137.862L770.299 144.003L782.322 164.826L784.902 169.298C785.348 170.074 786.178 170.556 787.071 170.556H823.371C824.264 170.556 825.093 170.074 825.54 169.307L828.432 164.299L841.134 142.298C841.385 141.869 841.92 141.655 842.388 141.78C842.873 141.905 843.216 142.351 843.216 142.851V153.303C843.216 162.818 850.955 170.556 860.466 170.556H875.209C876.597 170.556 877.717 169.431 877.717 168.048V153.303C877.717 146.43 873.621 140.28 867.286 137.638C866.868 137.469 866.601 137.068 866.601 136.612V136.603C866.601 136.148 866.868 135.746 867.286 135.577C873.579 132.952 877.675 126.848 877.717 120.01C877.717 120.002 877.717 119.939 877.717 119.93V109.157V105.167C877.717 103.784 876.597 102.659 875.209 102.659H860.466C850.955 102.659 843.216 110.398 843.216 119.912V130.373C843.216 130.873 842.873 131.319 842.38 131.453C842.296 131.48 842.196 131.489 842.096 131.489C841.694 131.489 841.327 131.275 841.134 130.935L827.611 107.524L825.54 103.926C825.093 103.15 824.264 102.668 823.371 102.668H787.071C786.178 102.668 785.348 103.15 784.902 103.926L781.064 110.576L772.031 126.222L771.897 126.446L767.747 133.631L766.747 135.353C766.309 136.13 766.31 137.094 766.755 137.862ZM804.949 123.429C812.026 123.429 817.792 129.347 817.792 136.612C817.792 143.877 812.035 149.795 804.949 149.795C797.87 149.795 792.104 143.887 792.104 136.612C792.104 129.337 797.87 123.429 804.949 123.429Z" stroke="#FFEBCF" stroke-width="2" stroke-miterlimit="10"/>
<path d="M1078.74 474.794L1075.19 468.653L1063.18 447.829L1060.59 443.358C1060.15 442.582 1059.32 442.099 1058.43 442.099H1022.12C1021.24 442.099 1020.4 442.582 1019.96 443.349L1017.07 448.357L1004.36 470.358C1004.11 470.787 1003.58 471.001 1003.11 470.876C1002.62 470.751 1002.28 470.304 1002.28 469.805V459.353C1002.28 449.838 994.541 442.099 985.03 442.099H970.287C968.9 442.099 967.78 443.224 967.78 444.608V459.353C967.78 466.226 971.875 472.375 978.21 475.017C978.62 475.187 978.896 475.588 978.896 476.044V476.053C978.896 476.507 978.628 476.909 978.21 477.079C971.917 479.703 967.822 485.808 967.78 492.645C967.78 492.654 967.78 492.717 967.78 492.726V503.499V507.489C967.78 508.872 968.9 509.996 970.287 509.996H985.03C994.541 509.996 1002.28 502.258 1002.28 492.743V482.283C1002.28 481.783 1002.62 481.337 1003.12 481.203C1003.2 481.176 1003.3 481.167 1003.4 481.167C1003.8 481.167 1004.17 481.381 1004.36 481.72L1017.88 505.132L1019.96 508.729C1020.4 509.506 1021.24 509.988 1022.12 509.988H1058.43C1059.32 509.988 1060.15 509.506 1060.59 508.729L1064.43 502.08L1073.46 486.433L1073.6 486.21L1077.75 479.025L1078.75 477.302C1079.19 476.526 1079.19 475.561 1078.74 474.794ZM1040.55 489.226C1033.47 489.226 1027.7 483.309 1027.7 476.044C1027.7 468.778 1033.46 462.861 1040.55 462.861C1047.64 462.861 1053.39 468.769 1053.39 476.044C1053.39 483.318 1047.63 489.226 1040.55 489.226Z" stroke="#FFEBCF" stroke-width="2" stroke-miterlimit="10"/>
</g>
<defs>
<clipPath id="clip0">
<rect width="1140" height="544.927" fill="white"/>
</clipPath>
</defs>
</svg>
