<svg width="41" height="26" viewBox="0 0 41 26" fill="none" xmlns="http://www.w3.org/2000/svg">
<path d="M40.8634 12.7194L39.5601 10.4748L35.1335 2.87083L34.1827 1.22804C34.0187 0.943399 33.7154 0.772614 33.3793 0.772614H20.0096C19.6817 0.772614 19.3784 0.951531 19.2062 1.22804L18.1406 3.05788L13.4599 11.101C13.3698 11.2556 13.173 11.3369 13.0009 11.2881C12.8205 11.2393 12.6976 11.0766 12.6976 10.8977V7.0754C12.6976 3.60277 9.84493 0.772614 6.3447 0.772614H0.926293C0.418061 0.772614 0 1.17924 0 1.6916V7.0754C0 9.58838 1.5083 11.833 3.84452 12.8008C3.99208 12.8577 4.09864 13.0041 4.09864 13.1749C4.09864 13.3375 4.00027 13.4839 3.84452 13.549C1.52469 14.5086 0.0163946 16.737 0 19.2337V19.2581V23.1943V24.65C0 25.1542 0.418061 25.569 0.926293 25.569H6.35289C9.85313 25.569 12.7058 22.7388 12.7058 19.2662V15.452C12.7058 15.2649 12.8287 15.1023 13.0091 15.0616C13.0419 15.0535 13.0829 15.0454 13.1156 15.0454C13.2632 15.0454 13.3944 15.1267 13.4681 15.2487L18.4439 23.8042L19.2062 25.1136C19.3702 25.3982 19.6735 25.569 20.0096 25.569H33.3793C33.7072 25.569 34.0187 25.3901 34.1827 25.1136L35.6008 22.6819L38.9289 16.9647L38.9781 16.8833L40.5028 14.2565L40.8716 13.6222C41.0274 13.3456 41.0274 12.9959 40.8634 12.7194ZM26.7969 17.9894C24.1902 17.9894 22.0671 15.8261 22.0671 13.1749C22.0671 10.5155 24.1902 8.36035 26.7969 8.36035C29.4036 8.36035 31.5267 10.5236 31.5267 13.1749C31.5267 15.8261 29.4036 17.9894 26.7969 17.9894Z" fill="#2300CE"/>
</svg>
