<svg width="186" height="21" viewBox="0 0 186 21" fill="none" xmlns="http://www.w3.org/2000/svg">
<path d="M31.6699 9.9324L30.6586 8.1807L27.2274 2.23937L26.4896 0.962355C26.3632 0.74049 26.1259 0.60376 25.8705 0.60376H15.5099C15.2545 0.60376 15.0171 0.74049 14.8907 0.962355L14.0652 2.39158L10.4405 8.67086C10.3709 8.79211 10.2161 8.85403 10.0819 8.81791C9.94263 8.7818 9.84718 8.65538 9.84718 8.51091V5.52606C9.84718 2.81209 7.63885 0.60376 4.92488 0.60376H0.71461C0.319897 0.60376 0 0.923657 0 1.31837V5.52606C0 7.4893 1.16866 9.24358 2.97712 9.99689C3.09579 10.0459 3.17318 10.162 3.17318 10.2884V10.291C3.17318 10.42 3.09579 10.5335 2.97712 10.5851C1.17898 11.3332 0.0103193 13.0772 0 15.0275C0 15.0301 0 15.0482 0 15.0508V18.1259V19.2662C0 19.6609 0.319897 19.9808 0.71461 19.9808H4.9223C7.63627 19.9808 9.8446 17.7725 9.8446 15.0585V12.0736C9.8446 11.9292 9.94263 11.8028 10.0794 11.7667C10.1052 11.7589 10.1335 11.7563 10.1619 11.7563C10.2754 11.7563 10.3812 11.8182 10.438 11.9163L14.2974 18.598L14.8882 19.6222C15.0146 19.8441 15.2519 19.9808 15.5073 19.9808H25.8679C26.1233 19.9808 26.3606 19.8441 26.487 19.6222L27.5835 17.7235L30.1607 13.2578L30.1968 13.1933L31.381 11.1423L31.6647 10.6496C31.7963 10.4277 31.7963 10.1543 31.6699 9.9324ZM20.7676 14.0524C18.7476 14.0524 17.1016 12.3652 17.1016 10.291C17.1016 8.21681 18.745 6.52961 20.7676 6.52961C22.7876 6.52961 24.4335 8.21681 24.4335 10.291C24.4335 12.3652 22.7876 14.0524 20.7676 14.0524Z" fill="white"/>
<path d="M78.2514 0.11084C72.1682 0.11084 67.927 4.54813 67.927 10.2108C67.927 15.8761 72.1682 20.3108 78.2514 20.3108C84.3346 20.3108 88.5759 15.8736 88.5759 10.2108C88.5759 4.54813 84.3346 0.11084 78.2514 0.11084ZM78.4346 17.2254C75.9528 17.2899 74.472 14.9526 74.3533 10.3605C74.2217 5.30402 75.5865 3.26338 78.0347 3.19889C80.581 3.13181 82.0205 5.13117 82.1521 10.1567C82.2734 14.7797 80.9473 17.1609 78.4346 17.2254Z" fill="white"/>
<path d="M45.8204 0.446289H37.7842C37.3379 0.446289 37.0593 0.724909 37.0593 1.17122V2.23153C37.0593 2.70621 37.227 2.8739 37.6449 3.04159L38.1738 3.23766C38.7594 3.45952 38.9554 3.76652 38.9554 4.38052V16.0439C38.9554 16.6579 38.7594 16.9649 38.1738 17.1868L37.6449 17.3828C37.227 17.5505 37.0593 17.7182 37.0593 18.1929V19.2532C37.0593 19.6995 37.3379 19.9781 37.7842 19.9781H45.8204C46.2667 19.9781 46.5453 19.6995 46.5453 19.2532V18.1929C46.5453 17.7182 46.3776 17.5505 45.9597 17.3828L45.4308 17.1868C44.8452 16.9649 44.6491 16.6579 44.6491 16.0439V4.38052C44.6491 3.76652 44.8452 3.45952 45.4308 3.23766L45.9597 3.04159C46.3776 2.8739 46.5453 2.70621 46.5453 2.23153V1.17122C46.5453 0.724909 46.2667 0.446289 45.8204 0.446289Z" fill="white"/>
<path d="M67.2948 17.4113L66.9878 17.2436C66.2345 16.8257 65.6773 16.5187 64.9497 15.3733L62.3261 11.1604C62.1868 10.936 62.2693 10.7709 62.5221 10.7141C64.7253 10.1285 65.9817 8.84375 65.9817 6.55545C65.9817 2.23424 62.6124 0.443848 55.4121 0.443848L49.0168 0.500604C48.5705 0.55736 48.346 0.807602 48.346 1.22553V2.28584C48.346 2.76053 48.5137 2.92822 48.8749 3.06753L49.5172 3.31777C50.0461 3.54221 50.2422 3.82083 50.2422 4.37808V16.0415C50.2422 16.6555 50.0461 16.9625 49.4605 17.1843L48.9316 17.3804C48.5137 17.5481 48.346 17.7158 48.346 18.1904V19.2507C48.346 19.6971 48.6246 19.9757 49.0709 19.9757H57.1071C57.5818 19.9757 57.832 19.6971 57.832 19.2507V18.1904C57.832 17.7158 57.6643 17.5481 57.2464 17.3804L56.715 17.1843C56.1293 16.9625 55.9333 16.6555 55.9333 16.0415V11.7151C55.9333 11.4648 56.0158 11.3797 56.2119 11.3797C56.4363 11.3797 56.5756 11.5474 56.7691 11.8828L60.5924 18.8019C61.0671 19.6661 61.4283 19.9731 62.406 19.9731H67.2896C67.7643 19.9731 67.9604 19.7229 67.9604 19.3591V18.3556C67.9656 17.9144 67.8263 17.7183 67.2948 17.4113ZM56.9704 9.03981H56.3564C56.1268 9.03981 55.9616 8.87471 55.9616 8.6451V3.31519C55.9616 3.08558 56.1268 2.92048 56.3564 2.92048H57.0013C59.1709 2.92048 60.515 3.70732 60.515 5.88985C60.515 8.0698 59.4754 9.03981 56.9704 9.03981Z" fill="white"/>
<path d="M184.883 3.23766L185.412 3.04159C185.83 2.8739 185.998 2.70621 185.998 2.23153V1.17122C185.998 0.724909 185.747 0.446289 185.273 0.446289H177.237C176.79 0.446289 176.512 0.724909 176.512 1.17122V2.23153C176.512 2.70621 176.679 2.8739 177.097 3.04159L177.626 3.23766C178.212 3.45952 178.408 3.76652 178.408 4.38052V7.89681C178.408 8.09288 178.268 8.23219 178.072 8.23219H172.159C171.963 8.23219 171.824 8.09288 171.824 7.89681V4.38052C171.824 3.76652 172.02 3.45952 172.606 3.23766L173.137 3.04159C173.555 2.8739 173.723 2.70621 173.723 2.23153V1.17122C173.723 0.724909 173.473 0.446289 172.998 0.446289H164.962C164.515 0.446289 164.237 0.724909 164.237 1.17122V2.23153C164.237 2.70621 164.405 2.8739 164.822 3.04159L165.351 3.23766C165.937 3.45952 166.133 3.76652 166.133 4.38052V16.0439C166.133 16.6579 165.937 16.9649 165.351 17.1868L164.822 17.3828C164.405 17.5505 164.237 17.7182 164.237 18.1929V19.2532C164.237 19.6995 164.515 19.9781 164.962 19.9781H172.998C173.473 19.9781 173.723 19.6995 173.723 19.2532V18.1929C173.723 17.7182 173.555 17.5505 173.137 17.3828L172.606 17.1868C172.02 16.9649 171.824 16.6579 171.824 16.0439V11.4105C171.824 11.2145 171.963 11.0752 172.159 11.0752H178.075C178.271 11.0752 178.41 11.2145 178.41 11.4105V16.0439C178.41 16.6579 178.214 16.9649 177.629 17.1868L177.1 17.3828C176.682 17.5505 176.514 17.7182 176.514 18.1929V19.2532C176.514 19.6995 176.793 19.9781 177.239 19.9781H185.275C185.75 19.9781 186 19.6995 186 19.2532V18.1929C186 17.7182 185.833 17.5505 185.415 17.3828L184.886 17.1868C184.3 16.9649 184.104 16.6579 184.104 16.0439V4.38052C184.101 3.76652 184.298 3.45952 184.883 3.23766Z" fill="white"/>
<path d="M156.985 7.58987L153.58 6.58632C151.905 6.08326 151.013 5.49764 151.013 4.52246C151.013 3.57309 151.905 2.96941 153.273 2.95909C155.192 2.94361 156.902 3.82333 159.356 6.47539C159.691 6.83914 160.052 6.97845 160.555 6.69983L161.141 6.36446C161.644 6.08584 161.719 5.67049 161.476 5.24739L159.038 1.03454C158.757 0.536639 158.564 0.196103 157.978 0.196103H157.71C157.039 0.196103 156.956 0.503102 156.286 0.503102C155.422 0.503102 154.493 0.167725 152.909 0.167725C148.528 0.167725 145.683 2.28834 145.683 6.0265C145.683 9.15066 147.943 10.9101 150.734 11.8311L154.361 13.0307C156.146 13.6163 157.096 14.2871 157.096 15.5151C157.096 16.8256 156.092 17.4113 154.446 17.4113C151.936 17.4113 149.759 15.9872 147.47 12.974C147.107 12.4993 146.746 12.4167 146.271 12.6386L145.35 13.0849C144.932 13.281 144.813 13.7015 145.071 14.2278L147.641 19.5009C147.873 19.9756 148.198 20.1717 148.59 20.1717H148.923C149.537 20.1717 149.955 19.7537 150.515 19.7537C151.547 19.7537 152.579 20.2568 154.895 20.2568C159.526 20.2568 162.82 18.1078 162.82 13.9801C162.818 10.1568 160.277 8.53925 156.985 7.58987Z" fill="white"/>
<path d="M142.858 0.446289H134.822C134.375 0.446289 134.097 0.724909 134.097 1.17122V2.23153C134.097 2.70621 134.264 2.8739 134.682 3.04159L135.211 3.23766C135.797 3.45952 135.993 3.76652 135.993 4.38052V16.0439C135.993 16.6579 135.797 16.9649 135.211 17.1868L134.682 17.3828C134.264 17.5505 134.097 17.7182 134.097 18.1929V19.2532C134.097 19.6995 134.375 19.9781 134.822 19.9781H142.858C143.304 19.9781 143.583 19.6995 143.583 19.2532V18.1929C143.583 17.7182 143.415 17.5505 142.997 17.3828L142.468 17.1868C141.883 16.9649 141.687 16.6579 141.687 16.0439V4.38052C141.687 3.76652 141.883 3.45952 142.468 3.23766L142.997 3.04159C143.415 2.8739 143.583 2.70621 143.583 2.23153V1.17122C143.583 0.724909 143.304 0.446289 142.858 0.446289Z" fill="white"/>
<path d="M130.737 0.531443C130.552 0.208965 130.374 0 129.956 0H129.401C129.094 0 128.924 0.0722359 128.692 0.252823C128.439 0.44631 128.22 0.44631 127.673 0.44631H117.281C116.835 0.44631 116.556 0.72493 116.556 1.17124V2.23155C116.556 2.70623 116.724 2.87392 117.142 3.04161L117.671 3.23768C118.256 3.45954 118.452 3.76654 118.452 4.38054V16.0439C118.452 16.6579 118.256 16.9649 117.671 17.1868L117.142 17.3828C116.724 17.5505 116.556 17.7182 116.556 18.1929V19.2532C116.556 19.6995 116.835 19.9781 117.281 19.9781H125.707C126.181 19.9781 126.432 19.6995 126.432 19.2532V18.1929C126.432 17.7182 126.292 17.4964 125.846 17.3828L124.925 17.1326C124.311 16.9649 124.143 16.6579 124.143 16.0439V11.1319C124.143 10.9359 124.283 10.7966 124.479 10.7966H124.953C127.131 10.7966 128.47 11.9136 129.837 13.5028C130.033 13.7272 130.283 13.8098 130.619 13.6421L131.315 13.2783C131.622 13.1107 131.736 12.8424 131.594 12.5534L129.432 8.11612C129.308 7.8633 129.153 7.70851 128.834 7.70851H128.49C128.256 7.70851 128.106 7.773 127.892 7.94327C127.698 8.0929 127.464 8.19867 127.164 8.19867H124.479C124.283 8.19867 124.143 8.05936 124.143 7.8633V4.29282C124.143 3.28927 124.533 2.89714 125.593 2.89714C127.407 2.89714 129.891 4.48889 131.341 5.93875C131.591 6.18899 131.898 6.24575 132.234 6.04968L132.987 5.575C133.237 5.40731 133.408 5.14417 133.237 4.85007L130.737 0.531443Z" fill="white"/>
<path d="M108.93 17.6356L108.288 17.4138C107.702 17.2177 107.506 16.8823 107.506 16.2683V4.13027C107.506 3.51628 107.702 3.20928 108.288 2.98741L108.819 2.79135C109.237 2.62366 109.405 2.45597 109.405 1.98128V1.17122C109.405 0.724909 109.155 0.446289 108.68 0.446289H103.322C102.876 0.446289 102.597 0.724909 102.597 1.17122V1.98128C102.597 2.45597 102.765 2.62366 103.183 2.79135L103.711 2.98741C104.297 3.20928 104.493 3.51628 104.493 4.13027V10.9668C104.493 11.0829 104.4 11.1758 104.284 11.1758C104.22 11.1758 104.163 11.1448 104.124 11.0984L97.0013 1.11704C96.8233 0.846161 96.6427 0.668153 96.457 0.580439C96.2712 0.492725 96.0158 0.448867 95.6908 0.448867H90.3763C89.93 0.448867 89.6514 0.72749 89.6514 1.1738V2.23411C89.6514 2.70879 89.8191 2.87648 90.237 3.04417L90.7659 3.24023C91.3515 3.4621 91.5476 3.7691 91.5476 4.3831V16.2967C91.5476 16.9107 91.3515 17.2177 90.7659 17.4422L90.237 17.6382C89.8191 17.8059 89.6514 17.9736 89.6514 18.4483V19.2583C89.6514 19.7047 89.93 19.9833 90.3763 19.9833H95.7346C96.2093 19.9833 96.4595 19.7047 96.4595 19.2583V18.4483C96.4595 17.9736 96.2919 17.8059 95.8739 17.6382L95.3451 17.4422C94.7594 17.2177 94.5634 16.9107 94.5634 16.2967V8.60368C94.5634 8.48759 94.6562 8.39472 94.7723 8.39472C94.8368 8.39472 94.8962 8.42568 94.9323 8.47212L102.819 19.3099C102.994 19.5808 103.177 19.7588 103.363 19.8466C103.549 19.9343 103.804 19.9781 104.129 19.9781H108.791C109.266 19.9781 109.516 19.6995 109.516 19.2532V18.4431C109.516 17.9684 109.348 17.775 108.93 17.6356Z" fill="white"/>
</svg>
