<svg width="240" height="26" viewBox="0 0 240 26" fill="none" xmlns="http://www.w3.org/2000/svg">
<g clip-path="url(#clip0)">
<path d="M40.8634 12.7194L39.5601 10.4748L35.1335 2.8708L34.1827 1.22801C34.0187 0.943368 33.7154 0.772583 33.3793 0.772583H20.0096C19.6817 0.772583 19.3784 0.951501 19.2062 1.22801L18.1406 3.05785L13.4599 11.101C13.3698 11.2555 13.173 11.3369 13.0009 11.2881C12.8205 11.2393 12.6976 11.0766 12.6976 10.8977V7.07537C12.6976 3.60274 9.84493 0.772583 6.3447 0.772583H0.926293C0.418061 0.772583 0 1.17921 0 1.69157V7.07537C0 9.58835 1.5083 11.833 3.84452 12.8007C3.99208 12.8577 4.09864 13.004 4.09864 13.1748C4.09864 13.3375 4.00027 13.4839 3.84452 13.5489C1.52469 14.5086 0.0163946 16.7369 0 19.2336V19.258V23.1942V24.65C0 25.1542 0.418061 25.569 0.926293 25.569H6.35289C9.85313 25.569 12.7058 22.7388 12.7058 19.2662V15.452C12.7058 15.2649 12.8287 15.1023 13.0091 15.0616C13.0419 15.0535 13.0829 15.0453 13.1156 15.0453C13.2632 15.0453 13.3944 15.1267 13.4681 15.2487L18.4439 23.8042L19.2062 25.1135C19.3702 25.3982 19.6735 25.569 20.0096 25.569H33.3793C33.7072 25.569 34.0187 25.39 34.1827 25.1135L35.6008 22.6819L38.9289 16.9646L38.9781 16.8833L40.5028 14.2565L40.8716 13.6221C41.0274 13.3456 41.0274 12.9959 40.8634 12.7194ZM26.7969 17.9893C24.1902 17.9893 22.0671 15.8261 22.0671 13.1748C22.0671 10.5155 24.1902 8.36032 26.7969 8.36032C29.4036 8.36032 31.5267 10.5236 31.5267 13.1748C31.5267 15.8261 29.4036 17.9893 26.7969 17.9893Z" fill="#1D0070"/>
<path d="M100.966 0.146362C93.1211 0.146362 87.6453 5.82293 87.6453 13.0772C87.6453 20.3315 93.1211 26.0081 100.966 26.0081C108.811 26.0081 114.286 20.3315 114.286 13.0772C114.286 5.82293 108.819 0.146362 100.966 0.146362ZM101.204 22.0557C97.9985 22.137 96.0885 19.1442 95.941 13.2643C95.7688 6.79072 97.5312 4.18014 100.695 4.09882C103.983 4.01749 105.835 6.57114 106.007 13.004C106.155 18.9246 104.45 21.9662 101.204 22.0557Z" fill="#1D0070"/>
<path d="M59.127 0.569275H48.7574C48.1836 0.569275 47.8229 0.92711 47.8229 1.49639V2.85454C47.8229 3.46449 48.0361 3.67594 48.5771 3.88739L49.2575 4.1395C50.0116 4.42414 50.2657 4.8145 50.2657 5.60337V20.5349C50.2657 21.3237 50.0116 21.7141 49.2575 21.9987L48.5771 22.2509C48.0361 22.4623 47.8229 22.6819 47.8229 23.2837V24.6418C47.8229 25.2111 48.1836 25.569 48.7574 25.569H59.127C59.7008 25.569 60.0615 25.2111 60.0615 24.6418V23.2837C60.0615 22.6737 59.8483 22.4623 59.3073 22.2509L58.6269 21.9987C57.8728 21.7141 57.6187 21.3237 57.6187 20.5349V5.6115C57.6187 4.82264 57.8728 4.43227 58.6269 4.14763L59.3073 3.89552C59.8483 3.68407 60.0615 3.46449 60.0615 2.86267V1.50453C60.0615 0.92711 59.7008 0.569275 59.127 0.569275Z" fill="#1D0070"/>
<path d="M86.8338 22.2915L86.4403 22.0801C85.4649 21.5433 84.7517 21.153 83.809 19.6891L80.4235 14.2972C80.2432 14.0125 80.3498 13.793 80.6777 13.7279C83.5221 12.9797 85.1452 11.3369 85.1452 8.40916C85.1452 2.87897 80.8006 0.585571 71.5049 0.585571L63.2502 0.6425C62.6764 0.715693 62.3895 1.03287 62.3895 1.56962V2.92777C62.3895 3.53771 62.6027 3.74916 63.0699 3.92808L63.8978 4.25338C64.5782 4.53803 64.8323 4.89586 64.8323 5.61153V20.543C64.8323 21.3319 64.5782 21.7223 63.8241 22.0069L63.1437 22.259C62.6027 22.4705 62.3895 22.69 62.3895 23.2919V24.65C62.3895 25.2193 62.7502 25.5771 63.324 25.5771H73.6936C74.3084 25.5771 74.6281 25.2193 74.6281 24.65V23.2919C74.6281 22.6819 74.4149 22.4705 73.8739 22.259L73.1935 22.0069C72.4394 21.7223 72.1853 21.3319 72.1853 20.543V15.0047C72.1853 14.6875 72.2918 14.5737 72.546 14.5737C72.8329 14.5737 73.0132 14.7851 73.2673 15.2162L78.2021 24.0726C78.8169 25.1786 79.2841 25.569 80.5383 25.569H86.842C87.4568 25.569 87.7027 25.2437 87.7027 24.7801V23.5033C87.6945 22.934 87.5142 22.6819 86.8338 22.2915ZM73.5132 11.5727H72.7181C72.423 11.5727 72.2099 11.3613 72.2099 11.0685V4.24525C72.2099 3.95248 72.423 3.74103 72.7181 3.74103H73.546C76.3495 3.74103 78.0791 4.74947 78.0791 7.53896C78.0873 10.3285 76.743 11.5727 73.5132 11.5727Z" fill="#1D0070"/>
<path d="M238.557 4.14761L239.238 3.8955C239.779 3.68405 239.992 3.46447 239.992 2.86266V1.50451C239.992 0.935228 239.664 0.577393 239.057 0.577393H228.688C228.114 0.577393 227.753 0.935228 227.753 1.50451V2.86266C227.753 3.47261 227.966 3.68405 228.507 3.8955L229.188 4.14761C229.942 4.43226 230.196 4.82262 230.196 5.61149V10.1088C230.196 10.3609 230.016 10.5399 229.762 10.5399H222.13C221.876 10.5399 221.695 10.3609 221.695 10.1088V5.61149C221.695 4.82262 221.95 4.43226 222.704 4.14761L223.384 3.8955C223.925 3.68405 224.138 3.46447 224.138 2.86266V1.50451C224.138 0.935228 223.81 0.577393 223.204 0.577393H212.834C212.26 0.577393 211.9 0.935228 211.9 1.50451V2.86266C211.9 3.47261 212.113 3.68405 212.654 3.8955L213.334 4.14761C214.088 4.43226 214.343 4.82262 214.343 5.61149V20.543C214.343 21.3319 214.088 21.7222 213.334 22.0069L212.654 22.259C212.113 22.4704 211.9 22.69 211.9 23.2918V24.65C211.9 25.2192 212.26 25.5771 212.834 25.5771H223.204C223.819 25.5771 224.138 25.2192 224.138 24.65V23.2918C224.138 22.6819 223.925 22.4704 223.384 22.259L222.704 22.0069C221.95 21.7222 221.695 21.3319 221.695 20.543V14.6143C221.695 14.3622 221.876 14.1833 222.13 14.1833H229.762C230.016 14.1833 230.196 14.3622 230.196 14.6143V20.543C230.196 21.3319 229.942 21.7222 229.188 22.0069L228.507 22.259C227.966 22.4704 227.753 22.69 227.753 23.2918V24.65C227.753 25.2192 228.114 25.5771 228.688 25.5771H239.057C239.672 25.5771 239.992 25.2192 239.992 24.65V23.2918C239.992 22.6819 239.779 22.4704 239.238 22.259L238.557 22.0069C237.803 21.7222 237.549 21.3319 237.549 20.543V5.61149C237.549 4.82262 237.803 4.43226 238.557 4.14761Z" fill="#1D0070"/>
<path d="M202.563 9.71848L198.169 8.43352C196.005 7.79105 194.858 7.04285 194.858 5.79042C194.858 4.57866 196.013 3.80606 197.776 3.7898C200.251 3.77353 202.456 4.89583 205.629 8.28714C206.063 8.7507 206.53 8.92961 207.178 8.57178L207.932 8.14075C208.58 7.78291 208.678 7.25429 208.367 6.70941L205.219 1.31748C204.858 0.683133 204.604 0.243971 203.85 0.243971H203.506C202.645 0.243971 202.53 0.634337 201.67 0.634337C200.555 0.634337 199.358 0.203308 197.317 0.203308C191.661 0.203308 187.988 2.9196 187.988 7.70159C187.988 11.7028 190.906 13.9556 194.505 15.1348L199.186 16.6719C201.489 17.4201 202.711 18.2821 202.711 19.8517C202.711 21.527 201.415 22.2834 199.292 22.2834C196.054 22.2834 193.243 20.4617 190.292 16.6068C189.824 15.9969 189.357 15.8911 188.742 16.1758L187.554 16.7451C187.013 16.9972 186.865 17.5339 187.193 18.2089L190.505 24.959C190.808 25.569 191.226 25.8129 191.726 25.8129H192.152C192.948 25.8129 193.489 25.2762 194.202 25.2762C195.538 25.2762 196.866 25.9187 199.858 25.9187C205.834 25.9187 210.08 23.1698 210.08 17.8836C210.088 13.0041 206.809 10.9302 202.563 9.71848Z" fill="#1D0070"/>
<path d="M184.332 0.569275H173.963C173.389 0.569275 173.028 0.92711 173.028 1.49639V2.85454C173.028 3.46449 173.241 3.67594 173.782 3.88739L174.463 4.1395C175.217 4.42414 175.471 4.8145 175.471 5.60337V20.5349C175.471 21.3237 175.217 21.7141 174.463 21.9987L173.782 22.2509C173.241 22.4623 173.028 22.6819 173.028 23.2837V24.6418C173.028 25.2111 173.389 25.569 173.963 25.569H184.332C184.906 25.569 185.267 25.2111 185.267 24.6418V23.2837C185.267 22.6737 185.054 22.4623 184.513 22.2509L183.832 21.9987C183.078 21.7141 182.824 21.3237 182.824 20.5349V5.6115C182.824 4.82264 183.078 4.43227 183.832 4.14763L184.513 3.89552C185.054 3.68407 185.267 3.46449 185.267 2.86267V1.50453C185.267 0.92711 184.906 0.569275 184.332 0.569275Z" fill="#1D0070"/>
<path d="M168.692 0.675008C168.454 0.268377 168.225 0 167.684 0H166.97C166.577 0 166.356 0.0894589 166.052 0.325305C165.724 0.577416 165.446 0.577416 164.741 0.577416H151.322C150.748 0.577416 150.387 0.935252 150.387 1.50454V2.86268C150.387 3.47263 150.6 3.68408 151.141 3.89553L151.822 4.14764C152.576 4.43228 152.83 4.82265 152.83 5.61151V20.543C152.83 21.3319 152.576 21.7222 151.822 22.0069L151.141 22.259C150.6 22.4704 150.387 22.69 150.387 23.2918V24.65C150.387 25.2193 150.748 25.5771 151.322 25.5771H162.191C162.806 25.5771 163.126 25.2193 163.126 24.65V23.2918C163.126 22.6819 162.946 22.3972 162.372 22.259L161.183 21.9337C160.388 21.7222 160.175 21.3237 160.175 20.543V14.2565C160.175 14.0044 160.355 13.8255 160.609 13.8255H161.224C164.036 13.8255 165.757 15.2568 167.528 17.29C167.782 17.5746 168.102 17.6803 168.536 17.4689L169.438 17.0053C169.831 16.7939 169.979 16.4442 169.798 16.0782L167.011 10.3935C166.856 10.0682 166.651 9.87301 166.241 9.87301H165.798C165.495 9.87301 165.298 9.95433 165.028 10.1739C164.782 10.3691 164.478 10.4992 164.093 10.4992H160.626C160.372 10.4992 160.191 10.3203 160.191 10.0682V5.49765C160.191 4.2127 160.691 3.70848 162.06 3.70848C164.405 3.70848 167.602 5.74163 169.479 7.604C169.807 7.92118 170.2 7.99437 170.635 7.75039L171.61 7.14044C171.938 6.929 172.151 6.58743 171.938 6.21333L168.692 0.675008Z" fill="#1D0070"/>
<path d="M140.559 22.5762L139.731 22.2915C138.977 22.0394 138.723 21.6165 138.723 20.8276V5.2862C138.723 4.49733 138.977 4.10697 139.731 3.82232L140.411 3.57021C140.952 3.35877 141.165 3.13918 141.165 2.53737V1.50453C141.165 0.935243 140.837 0.577408 140.231 0.577408H133.321C132.747 0.577408 132.386 0.935243 132.386 1.50453V2.53737C132.386 3.14732 132.599 3.35877 133.14 3.57021L133.821 3.82232C134.575 4.10697 134.829 4.49733 134.829 5.2862V14.0369C134.829 14.1833 134.706 14.3053 134.558 14.3053C134.476 14.3053 134.403 14.2646 134.353 14.2077L125.164 1.43133C124.935 1.08163 124.705 0.853917 124.459 0.74006C124.222 0.626203 123.885 0.569275 123.467 0.569275H116.606C116.032 0.569275 115.672 0.92711 115.672 1.49639V2.85454C115.672 3.46449 115.885 3.67594 116.426 3.88739L117.106 4.1395C117.86 4.42414 118.115 4.8145 118.115 5.60337V20.852C118.115 21.6409 117.86 22.0313 117.106 22.3159L116.426 22.568C115.885 22.7795 115.672 22.9991 115.672 23.6009V24.6337C115.672 25.203 116.032 25.5608 116.606 25.5608H123.517C124.131 25.5608 124.451 25.203 124.451 24.6337V23.6009C124.451 22.9909 124.238 22.7795 123.697 22.568L123.017 22.3159C122.262 22.0313 122.008 21.6409 122.008 20.852V11.0116C122.008 10.8652 122.131 10.7432 122.279 10.7432C122.361 10.7432 122.435 10.7839 122.484 10.8408L132.657 24.715C132.886 25.0566 133.116 25.2925 133.362 25.4063C133.599 25.5202 133.935 25.5771 134.353 25.5771H140.37C140.985 25.5771 141.305 25.2193 141.305 24.65V23.6171C141.313 22.9991 141.1 22.7551 140.559 22.5762Z" fill="#1D0070"/>
</g>
<defs>
<clipPath id="clip0">
<rect width="240" height="26" fill="white"/>
</clipPath>
</defs>
</svg>
