<svg width="294" height="32" viewBox="0 0 294 32" fill="none" xmlns="http://www.w3.org/2000/svg">
<path d="M50.61 15.64L49.02 12.88L43.62 3.52996L42.46 1.51996C42.26 1.16996 41.89 0.959961 41.48 0.959961H25.18C24.78 0.959961 24.41 1.17996 24.2 1.51996L22.9 3.76996L17.19 13.66C17.08 13.85 16.84 13.95 16.63 13.89C16.41 13.83 16.26 13.63 16.26 13.41V8.70996C16.26 4.43996 12.78 0.959961 8.51001 0.959961H1.89001C1.27001 0.959961 0.76001 1.46996 0.76001 2.08996V8.70996C0.76001 11.8 2.60001 14.56 5.45001 15.75C5.64001 15.83 5.76001 16.01 5.76001 16.21C5.76001 16.41 5.64001 16.59 5.45001 16.67C2.62001 17.85 0.78001 20.59 0.76001 23.66V23.69V28.53V30.32C0.76001 30.94 1.27001 31.45 1.89001 31.45H8.51001C12.78 31.45 16.26 27.97 16.26 23.7V19C16.26 18.77 16.41 18.57 16.63 18.52C16.67 18.51 16.72 18.5 16.76 18.5C16.94 18.5 17.1 18.6 17.19 18.75L23.26 29.27L24.19 30.88C24.39 31.23 24.76 31.44 25.17 31.44H41.48C41.88 31.44 42.26 31.22 42.46 30.88L44.19 27.89L48.25 20.86L48.31 20.76L50.17 17.53L50.62 16.75C50.81 16.42 50.81 15.99 50.61 15.64ZM33.45 22.13C30.27 22.13 27.68 19.47 27.68 16.21C27.68 12.94 30.27 10.29 33.45 10.29C36.63 10.29 39.22 12.95 39.22 16.21C39.22 19.47 36.63 22.13 33.45 22.13Z" fill="white"/>
<path d="M123.94 0.179932C114.37 0.179932 107.69 7.15993 107.69 16.0799C107.69 24.9999 114.37 31.9799 123.94 31.9799C133.51 31.9799 140.19 24.9999 140.19 16.0799C140.19 7.15993 133.51 0.179932 123.94 0.179932ZM124.23 27.1199C120.32 27.2199 117.99 23.5399 117.81 16.3099C117.6 8.34993 119.75 5.13993 123.61 5.03993C127.62 4.93993 129.88 8.07993 130.09 15.9899C130.27 23.2699 128.18 27.0199 124.23 27.1199Z" fill="white"/>
<path d="M72.8901 0.709961H60.2401C59.5401 0.709961 59.1001 1.14996 59.1001 1.84996V3.51996C59.1001 4.26996 59.3601 4.52996 60.0201 4.78996L60.8501 5.09996C61.7701 5.44996 62.0801 5.92996 62.0801 6.89996V25.26C62.0801 26.23 61.7701 26.71 60.8501 27.06L60.0201 27.37C59.3601 27.63 59.1001 27.9 59.1001 28.64V30.31C59.1001 31.01 59.5401 31.45 60.2401 31.45H72.8901C73.5901 31.45 74.0301 31.01 74.0301 30.31V28.64C74.0301 27.89 73.7701 27.63 73.1101 27.37L72.2801 27.06C71.3601 26.71 71.0501 26.23 71.0501 25.26V6.89996C71.0501 5.92996 71.3601 5.44996 72.2801 5.09996L73.1101 4.78996C73.7701 4.52996 74.0301 4.25996 74.0301 3.51996V1.84996C74.0301 1.14996 73.5901 0.709961 72.8901 0.709961Z" fill="white"/>
<path d="M106.69 27.41L106.21 27.15C105.02 26.49 104.15 26.01 103 24.21L98.8701 17.58C98.6501 17.23 98.7801 16.96 99.1801 16.88C102.65 15.96 104.63 13.94 104.63 10.34C104.63 3.53997 99.3301 0.719971 87.9901 0.719971L77.9201 0.809971C77.2201 0.899971 76.8701 1.28997 76.8701 1.94997V3.61997C76.8701 4.36997 77.1301 4.62997 77.7001 4.84997L78.7101 5.24997C79.5401 5.59997 79.8501 6.03997 79.8501 6.91997V25.28C79.8501 26.25 79.5401 26.73 78.6201 27.08L77.7901 27.39C77.1301 27.65 76.8701 27.92 76.8701 28.66V30.33C76.8701 31.03 77.3101 31.47 78.0101 31.47H90.6601C91.4101 31.47 91.8001 31.03 91.8001 30.33V28.66C91.8001 27.91 91.5401 27.65 90.8801 27.39L90.0501 27.08C89.1301 26.73 88.8201 26.25 88.8201 25.28V18.47C88.8201 18.08 88.9501 17.94 89.2601 17.94C89.6101 17.94 89.8301 18.2 90.1401 18.73L96.1601 29.62C96.9101 30.98 97.4801 31.46 99.0101 31.46H106.7C107.45 31.46 107.75 31.06 107.75 30.49V28.9C107.75 28.2 107.53 27.89 106.69 27.41ZM90.4401 14.24H89.4701C89.1101 14.24 88.8501 13.98 88.8501 13.62V5.22997C88.8501 4.86997 89.1101 4.60997 89.4701 4.60997H90.4801C93.9001 4.60997 96.0101 5.84997 96.0101 9.27997C96.0201 12.71 94.3801 14.23 90.4401 14.24Z" fill="white"/>
<path d="M291.79 5.09996L292.62 4.78996C293.28 4.52996 293.54 4.25996 293.54 3.51996V1.84996C293.54 1.14996 293.14 0.709961 292.4 0.709961H279.75C279.05 0.709961 278.61 1.14996 278.61 1.84996V3.51996C278.61 4.26996 278.87 4.52996 279.53 4.78996L280.36 5.09996C281.28 5.44996 281.59 5.92996 281.59 6.89996V12.43C281.59 12.74 281.37 12.96 281.06 12.96H271.75C271.44 12.96 271.22 12.74 271.22 12.43V6.89996C271.22 5.92996 271.53 5.44996 272.45 5.09996L273.28 4.78996C273.94 4.52996 274.2 4.25996 274.2 3.51996V1.84996C274.2 1.14996 273.8 0.709961 273.06 0.709961H260.41C259.71 0.709961 259.27 1.14996 259.27 1.84996V3.51996C259.27 4.26996 259.53 4.52996 260.19 4.78996L261.02 5.09996C261.94 5.44996 262.25 5.92996 262.25 6.89996V25.26C262.25 26.23 261.94 26.71 261.02 27.06L260.19 27.37C259.53 27.63 259.27 27.9 259.27 28.64V30.31C259.27 31.01 259.71 31.45 260.41 31.45H273.06C273.81 31.45 274.2 31.01 274.2 30.31V28.64C274.2 27.89 273.94 27.63 273.28 27.37L272.45 27.06C271.53 26.71 271.22 26.23 271.22 25.26V17.97C271.22 17.66 271.44 17.44 271.75 17.44H281.06C281.37 17.44 281.59 17.66 281.59 17.97V25.26C281.59 26.23 281.28 26.71 280.36 27.06L279.53 27.37C278.87 27.63 278.61 27.9 278.61 28.64V30.31C278.61 31.01 279.05 31.45 279.75 31.45H292.4C293.15 31.45 293.54 31.01 293.54 30.31V28.64C293.54 27.89 293.28 27.63 292.62 27.37L291.79 27.06C290.87 26.71 290.56 26.23 290.56 25.26V6.89996C290.56 5.92996 290.86 5.44996 291.79 5.09996Z" fill="white"/>
<path d="M247.87 11.95L242.51 10.37C239.87 9.58 238.47 8.66 238.47 7.12C238.47 5.63 239.88 4.68 242.03 4.66C245.05 4.64 247.74 6.02 251.61 10.19C252.14 10.76 252.71 10.98 253.5 10.54L254.42 10.01C255.21 9.57 255.33 8.92 254.95 8.25L251.11 1.62C250.67 0.839999 250.36 0.299999 249.44 0.299999H249.02C247.97 0.299999 247.83 0.779999 246.78 0.779999C245.42 0.779999 243.96 0.25 241.47 0.25C234.57 0.25 230.09 3.59 230.09 9.47C230.09 14.39 233.65 17.16 238.04 18.61L243.75 20.5C246.56 21.42 248.05 22.48 248.05 24.41C248.05 26.47 246.47 27.4 243.88 27.4C239.93 27.4 236.5 25.16 232.9 20.42C232.33 19.67 231.76 19.54 231.01 19.89L229.56 20.59C228.9 20.9 228.72 21.56 229.12 22.39L233.16 30.69C233.53 31.44 234.04 31.74 234.65 31.74H235.17C236.14 31.74 236.8 31.08 237.67 31.08C239.3 31.08 240.92 31.87 244.57 31.87C251.86 31.87 257.04 28.49 257.04 21.99C257.05 15.99 253.05 13.44 247.87 11.95Z" fill="white"/>
<path d="M225.63 0.709961H212.98C212.28 0.709961 211.84 1.14996 211.84 1.84996V3.51996C211.84 4.26996 212.1 4.52996 212.76 4.78996L213.59 5.09996C214.51 5.44996 214.82 5.92996 214.82 6.89996V25.26C214.82 26.23 214.51 26.71 213.59 27.06L212.76 27.37C212.1 27.63 211.84 27.9 211.84 28.64V30.31C211.84 31.01 212.28 31.45 212.98 31.45H225.63C226.33 31.45 226.77 31.01 226.77 30.31V28.64C226.77 27.89 226.51 27.63 225.85 27.37L225.02 27.06C224.1 26.71 223.79 26.23 223.79 25.26V6.89996C223.79 5.92996 224.1 5.44996 225.02 5.09996L225.85 4.78996C226.51 4.52996 226.77 4.25996 226.77 3.51996V1.84996C226.77 1.14996 226.34 0.709961 225.63 0.709961Z" fill="white"/>
<path d="M206.55 0.840012C206.26 0.330012 205.98 0.0100098 205.32 0.0100098H204.45C203.97 0.0100098 203.7 0.120011 203.33 0.410011C202.93 0.720011 202.59 0.720013 201.73 0.720013H185.37C184.67 0.720013 184.23 1.16001 184.23 1.86001V3.53001C184.23 4.28001 184.49 4.54001 185.15 4.80001L185.98 5.11001C186.9 5.46001 187.21 5.94001 187.21 6.91001V25.27C187.21 26.24 186.9 26.72 185.98 27.07L185.15 27.38C184.49 27.64 184.23 27.91 184.23 28.65V30.32C184.23 31.02 184.67 31.46 185.37 31.46H198.63C199.38 31.46 199.77 31.02 199.77 30.32V28.65C199.77 27.9 199.55 27.55 198.85 27.38L197.4 26.98C196.43 26.72 196.17 26.23 196.17 25.27V17.54C196.17 17.23 196.39 17.01 196.7 17.01H197.45C200.88 17.01 202.98 18.77 205.14 21.27C205.45 21.62 205.84 21.75 206.37 21.49L207.47 20.92C207.95 20.66 208.13 20.23 207.91 19.78L204.51 12.79C204.32 12.39 204.07 12.15 203.57 12.15H203.03C202.66 12.15 202.42 12.25 202.09 12.52C201.79 12.76 201.42 12.92 200.95 12.92H196.72C196.41 12.92 196.19 12.7 196.19 12.39V6.77001C196.19 5.19001 196.8 4.57001 198.47 4.57001C201.33 4.57001 205.23 7.07001 207.52 9.36001C207.92 9.75001 208.4 9.84001 208.93 9.54001L210.12 8.79001C210.52 8.53001 210.78 8.11001 210.52 7.65001L206.55 0.840012Z" fill="white"/>
<path d="M172.23 27.76L171.22 27.41C170.3 27.1 169.99 26.58 169.99 25.61V6.50996C169.99 5.53996 170.3 5.05996 171.22 4.70996L172.05 4.39996C172.71 4.13996 172.97 3.86996 172.97 3.12996V1.85996C172.97 1.15996 172.57 0.719963 171.83 0.719963H163.4C162.7 0.719963 162.26 1.15996 162.26 1.85996V3.12996C162.26 3.87996 162.52 4.13996 163.18 4.39996L164.01 4.70996C164.93 5.05996 165.24 5.53996 165.24 6.50996V17.27C165.24 17.45 165.09 17.6 164.91 17.6C164.81 17.6 164.72 17.55 164.66 17.48L153.45 1.76996C153.17 1.33996 152.89 1.05996 152.59 0.91996C152.3 0.77996 151.89 0.709961 151.38 0.709961H143.01C142.31 0.709961 141.87 1.14996 141.87 1.84996V3.51996C141.87 4.26996 142.13 4.52996 142.79 4.78996L143.62 5.09996C144.54 5.44996 144.85 5.92996 144.85 6.89996V25.65C144.85 26.62 144.54 27.1 143.62 27.45L142.79 27.76C142.13 28.02 141.87 28.29 141.87 29.03V30.3C141.87 31 142.31 31.44 143.01 31.44H151.44C152.19 31.44 152.58 31 152.58 30.3V29.03C152.58 28.28 152.32 28.02 151.66 27.76L150.83 27.45C149.91 27.1 149.6 26.62 149.6 25.65V13.55C149.6 13.37 149.75 13.22 149.93 13.22C150.03 13.22 150.12 13.27 150.18 13.34L162.59 30.4C162.87 30.82 163.15 31.11 163.45 31.25C163.74 31.39 164.15 31.46 164.66 31.46H172C172.75 31.46 173.14 31.02 173.14 30.32V29.05C173.15 28.29 172.89 27.98 172.23 27.76Z" fill="white"/>
</svg>
