<svg width="83" height="83" viewBox="0 0 83 83" fill="none" xmlns="http://www.w3.org/2000/svg">
<path fill-rule="evenodd" clip-rule="evenodd" d="M41.4999 83C64.4198 83 83 64.4198 83 41.5001C83 18.5802 64.4198 0 41.4999 0C18.5802 0 0 18.5802 0 41.5001C0 64.4198 18.5802 83 41.4999 83ZM21.8021 26.409H61.1979L41.4999 42.8661L21.8021 26.409ZM64.1363 28.8646V53.9341L49.0949 41.3995L64.1363 28.8646ZM61.4388 56.591H21.5613L36.8288 43.8354L41.4999 47.7284L46.1713 43.8354L61.4388 56.591ZM18.8637 53.9341V28.8646L33.9052 41.3995L18.8637 53.9341Z" fill="white"/>
</svg>
