<svg width="83" height="83" viewBox="0 0 83 83" fill="none" xmlns="http://www.w3.org/2000/svg">
<path fill-rule="evenodd" clip-rule="evenodd" d="M47.2643 25.2915C43.6415 26.6099 41.3519 30.0102 41.612 33.7313L41.6992 35.1672L40.2495 34.9914C34.9748 34.3177 30.3657 32.0325 26.4521 28.1923L24.539 26.2875L24.0465 27.6943C23.0034 30.8303 23.6702 34.1421 25.8434 36.3693C27.0027 37.6003 26.7412 37.7761 24.7423 37.0428C24.0465 36.8091 23.4378 36.6335 23.3797 36.7206C23.1777 36.9269 23.8722 39.5925 24.4228 40.648C25.1767 42.1143 26.7122 43.5489 28.3942 44.3995L29.815 45.0732L28.1342 45.1024C26.5116 45.1024 26.4535 45.1312 26.6278 45.7483C27.2073 47.6531 29.4969 49.6756 32.0476 50.5553L33.8446 51.1695L32.2801 52.1075C29.9617 53.4576 27.2365 54.2185 24.5113 54.2751C23.2054 54.3042 22.1333 54.4218 22.1333 54.5102C22.1333 54.8022 25.6705 56.4427 27.7275 57.0889C33.9013 58.9937 41.2358 58.172 46.7428 54.9197C50.6562 52.6041 54.5683 48.003 56.3958 43.5473C57.382 41.175 58.3669 36.8368 58.3669 34.7576C58.3669 33.4088 58.4542 33.2333 60.0767 31.6216C61.034 30.6837 61.932 29.6586 62.1062 29.3656C62.3968 28.808 62.3662 28.808 60.8888 29.306C58.425 30.1857 58.0766 30.0682 59.2951 28.7498C60.1931 27.8118 61.2666 26.1118 61.2666 25.6138C61.2666 25.5267 60.8321 25.6719 60.3384 25.9361C59.8166 26.2294 58.6575 26.6693 57.7874 26.9321L56.223 27.4314L54.8022 26.4632C54.0193 25.9361 52.9193 25.3496 52.3384 25.1739C50.8596 24.7645 48.5978 24.8225 47.2643 25.2915ZM41.4999 83C18.5809 83 0 64.4192 0 41.5001C0 18.5796 18.5809 0 41.4999 0C64.4192 0 83 18.5796 83 41.5001C83 64.4192 64.4192 83 41.4999 83Z" fill="white"/>
</svg>
