<svg preserveAspectRatio="xMidYMid meet" width="34" height="10" viewBox="0 0 34 10" fill="none" xmlns="http://www.w3.org/2000/svg">
<g clip-path="url(#clip0)">
<path d="M0 0H34L27 3L22 7.5L15.5 9L3.5 2L0 0Z" fill="#FFF"/>
<path d="M0 1C8.2895 1 8.2895 9 16.579 9C24.8685 9 24.8685 1 33.158 1C41.4475 1 41.4475 9 49.737 9C58.0265 9 58.0265 1 66.3262 1C74.6157 1 74.6157 9 82.9052 9C91.1947 9 91.1947 1 99.4842 1C107.774 1 107.774 9 116.063 9C124.353 9 124.353 1 132.652 1C140.942 1 140.942 9 149.231 9C157.521 9 157.521 1 165.81 1C174.1 1 174.1 9 182.389 9C190.679 9 190.679 1 198.979 1C207.268 1 207.268 9 215.558 9C223.847 9 223.847 1 232.137 1C240.426 1 240.426 9 248.716 9C257.005 9 257.005 1 265.305 1C273.594 1 273.594 9 281.884 9C290.173 9 290.173 1 298.463 1C306.752 1 306.752 9 315.052 9C323.342 9 323.342 1 331.641 1C339.931 1 339.931 9 348.22 9C356.51 9 356.51 1 364.81 1C373.099 1 373.099 9 381.399 9C389.688 9 389.688 1 397.978 1C406.267 1 406.267 9 414.567 9C422.857 9 422.857 1 431.156 1C439.446 1 439.446 9 447.735 9C456.025 9 456.025 1 464.325 1C472.614 1 472.614 9 480.914 9C489.203 9 489.203 1 497.503 1C505.793 1 505.793 9 514.092 9C522.382 9 522.382 1 530.681 1C538.971 1 538.971 9 547.271 9C555.56 9 555.56 1 563.86 1C572.149 1 572.149 9 580.449 9C588.739 9 588.739 1 597.028 1C605.318 1 605.318 9 613.607 9C621.897 9 621.897 1 630.186 1C638.476 1 638.476 9 646.775 9C655.065 9 655.065 1 663.354 1C671.644 1 671.644 9 679.933 9C688.223 9 688.223 1 696.512 1C704.802 1 704.802 9 713.102 9C721.391 9 721.391 1 729.681 1C737.97 1 737.97 9 746.26 9C754.549 9 754.549 1 762.849 1C771.138 1 771.138 9 779.428 9C787.717 9 787.717 1 796.017 1C804.307 1 804.307 9 812.596 9C820.886 9 820.886 1 829.175 1C837.465 1 837.465 9 845.764 9C854.054 9 854.054 1 862.343 1C870.633 1 870.633 9 878.933 9C887.222 9 887.222 1 895.512 1C903.801 1 903.801 9 912.101 9C920.39 9 920.39 1 928.69 1C936.98 1 936.98 9 945.279 9C953.569 9 953.569 1 961.869 1C970.158 1 970.158 9 978.458 9C986.747 9 986.747 1 995.047 1C1003.34 1 1003.34 9 1011.64 9C1019.93 9 1019.93 1 1028.23 1C1036.51 1 1036.51 9 1044.81 9C1053.1 9 1053.1 1 1061.4 1C1069.7 1 1069.69 9 1077.99 9C1086.28 9 1086.28 1 1094.58 1C1102.88 1 1102.88 9 1111.17 9C1119.46 9 1119.46 1 1127.76 1C1136.05 1 1136.05 9 1144.35 9C1152.64 9 1152.64 1 1160.94 1C1169.23 1 1169.23 9 1177.53 9C1185.82 9 1185.82 1 1194.12 1C1202.42 1 1202.42 9 1210.71 9C1219 9 1219 1 1227.3 1C1235.59 1 1235.59 9 1243.89 9C1252.19 9 1252.19 1 1260.47 1C1268.77 1 1268.77 9 1277.06 9C1285.35 9 1285.35 1 1293.65 1C1301.95 1 1301.95 9 1310.24 9C1318.54 9 1318.54 1 1326.83 1C1335.13 1 1335.13 9 1343.43 9C1351.73 9 1351.73 1 1360.03 1" stroke="#1D0070" stroke-width="2" stroke-miterlimit="10"/>
</g>
<defs>
<clipPath id="clip0">
<rect width="1360" height="10" fill="white"/>
</clipPath>
</defs>
</svg>
