<svg width="510" height="712" viewBox="0 0 510 712" fill="none" xmlns="http://www.w3.org/2000/svg">
<rect x="10.75" y="10.75" width="498.5" height="700.5" rx="7.25" fill="white" stroke="black" stroke-width="1.5"/>
<rect x="0.75" y="0.75" width="498.5" height="700.5" rx="7.25" fill="#DE83F0" stroke="black" stroke-width="1.5"/>
<rect x="42.75" y="82.75" width="424.5" height="254.5" rx="3.25" fill="white" stroke="black" stroke-width="1.5"/>
<rect x="32" y="72" width="426" height="256" rx="4" fill="black"/>
<path d="M197.298 139H195.698V127.8H197.298V139ZM211.528 137.32L213.208 131H214.808L212.328 139H210.648L208.888 132.744L207.128 139H205.448L202.968 131H204.568L206.328 137.32L208.088 131H209.688L211.528 137.32ZM218.305 139.16C216.785 139.16 215.665 138.152 215.665 136.792C215.665 134.968 217.281 134.424 218.577 134.312L220.785 134.136V133.88C220.785 132.76 220.145 132.12 219.121 132.12H218.993C218.161 132.12 217.441 132.52 217.345 133.32H215.825C215.921 131.848 217.249 130.84 219.057 130.84C221.185 130.84 222.305 132.248 222.305 133.88V137.24C222.305 137.72 222.305 138.44 222.385 139H220.945C220.865 138.6 220.865 137.8 220.865 137.72C220.545 138.44 219.585 139.16 218.305 139.16ZM218.481 137.88H218.609C219.585 137.88 220.785 137.08 220.785 136.12V135.304L218.785 135.464C217.857 135.544 217.185 135.992 217.185 136.728C217.185 137.384 217.729 137.88 218.481 137.88ZM226.15 139H224.63V131H226.15V132.12C226.63 131.4 227.43 130.84 228.71 130.84C230.55 130.84 231.59 131.96 231.59 133.64V139H230.07V133.96C230.07 132.84 229.59 132.12 228.454 132.12H228.326C227.19 132.12 226.15 133 226.15 134.52V139ZM238.36 139H236.44C235.32 139 234.68 138.36 234.68 137.24V132.312H232.92V131H234.68V128.408H236.2V131H238.12V132.312H236.2V137C236.2 137.48 236.36 137.64 236.84 137.64H238.36V139ZM248.157 139H246.237C245.117 139 244.477 138.36 244.477 137.24V132.312H242.717V131H244.477V128.408H245.997V131H247.917V132.312H245.997V137C245.997 137.48 246.157 137.64 246.637 137.64H248.157V139ZM253.052 139.16C250.892 139.16 249.212 137.48 249.212 135C249.212 132.52 250.892 130.84 253.052 130.84C255.212 130.84 256.892 132.52 256.892 135C256.892 137.48 255.212 139.16 253.052 139.16ZM252.988 137.88H253.116C254.412 137.88 255.372 136.84 255.372 135C255.372 133.16 254.412 132.12 253.116 132.12H252.988C251.692 132.12 250.732 133.16 250.732 135C250.732 136.84 251.692 137.88 252.988 137.88ZM265.38 139.16C263.252 139.16 262.1 138.04 262.1 136.52H263.62C263.7 137.48 264.452 137.88 265.396 137.88H265.524C266.356 137.88 267.012 137.48 267.012 136.84C267.012 136.328 266.724 135.976 265.924 135.816L264.756 135.592C263.46 135.336 262.42 134.664 262.42 133.304C262.42 131.704 263.844 130.84 265.444 130.84C267.54 130.84 268.612 131.96 268.612 133.48H267.092C267.012 132.76 266.564 132.12 265.524 132.12H265.396C264.5 132.12 263.94 132.584 263.94 133.144C263.94 133.704 264.26 134.008 265.06 134.168L266.324 134.424C267.54 134.664 268.532 135.32 268.532 136.76C268.532 138.2 267.236 139.16 265.38 139.16ZM273.816 139.16C271.832 139.16 270.04 137.784 270.04 134.984C270.04 132.216 271.88 130.84 273.768 130.84C275.848 130.84 277.16 132.28 277.16 134.36V135.24H271.56C271.656 137.064 272.824 137.88 273.8 137.88H273.928C274.712 137.88 275.464 137.48 275.624 136.632H277.144C276.856 138.248 275.464 139.16 273.816 139.16ZM271.656 134.04H275.64C275.576 132.648 274.744 132.12 273.832 132.12H273.704C272.872 132.12 271.944 132.616 271.656 134.04ZM280.65 139H279.13V131H280.65V132.12C281.13 131.4 281.93 130.84 283.21 130.84C285.05 130.84 286.09 131.96 286.09 133.64V139H284.57V133.96C284.57 132.84 284.09 132.12 282.954 132.12H282.826C281.69 132.12 280.65 133 280.65 134.52V139ZM291.387 139.16C289.387 139.16 287.947 137.64 287.947 135C287.947 132.36 289.547 130.84 291.547 130.84C292.667 130.84 293.627 131.4 294.027 132.12V127.8H295.547V139H294.027V137.88C293.627 138.6 292.507 139.16 291.387 139.16ZM291.643 137.88H291.771C292.907 137.88 294.027 136.92 294.027 135C294.027 133.08 292.907 132.12 291.771 132.12H291.643C290.427 132.12 289.467 133.08 289.467 135C289.467 136.92 290.427 137.88 291.643 137.88Z" fill="white"/>
<path d="M149.906 269H148.242L147.122 266.12H141.778L140.658 269H139.026L143.458 257.8H145.506L149.906 269ZM144.45 259.272L142.338 264.68H146.562L144.45 259.272ZM154.505 269.16C152.041 269.16 150.665 267.352 150.665 265C150.665 262.648 152.041 260.84 154.505 260.84C156.329 260.84 157.625 261.912 157.785 263.64H156.265C156.121 262.76 155.481 262.12 154.569 262.12H154.441C152.905 262.12 152.185 263.48 152.185 265C152.185 266.52 152.905 267.88 154.441 267.88H154.569C155.481 267.88 156.121 267.24 156.265 266.36H157.785C157.625 268.088 156.329 269.16 154.505 269.16ZM163.021 269.16C160.557 269.16 159.181 267.352 159.181 265C159.181 262.648 160.557 260.84 163.021 260.84C164.845 260.84 166.141 261.912 166.301 263.64H164.781C164.637 262.76 163.997 262.12 163.085 262.12H162.957C161.421 262.12 160.701 263.48 160.701 265C160.701 266.52 161.421 267.88 162.957 267.88H163.085C163.997 267.88 164.637 267.24 164.781 266.36H166.301C166.141 268.088 164.845 269.16 163.021 269.16ZM171.521 269.16C169.361 269.16 167.681 267.48 167.681 265C167.681 262.52 169.361 260.84 171.521 260.84C173.681 260.84 175.361 262.52 175.361 265C175.361 267.48 173.681 269.16 171.521 269.16ZM171.457 267.88H171.585C172.881 267.88 173.841 266.84 173.841 265C173.841 263.16 172.881 262.12 171.585 262.12H171.457C170.161 262.12 169.201 263.16 169.201 265C169.201 266.84 170.161 267.88 171.457 267.88ZM179.91 269.16C178.118 269.16 177.19 267.96 177.19 266.28V261H178.71V265.96C178.71 267.24 179.238 267.88 180.326 267.88H180.454C181.478 267.88 182.47 266.92 182.47 265.32V261H183.99V269H182.47V267.48C182.166 268.36 181.302 269.16 179.91 269.16ZM187.915 269H186.395V261H187.915V262.12C188.395 261.4 189.195 260.84 190.475 260.84C192.315 260.84 193.355 261.96 193.355 263.64V269H191.835V263.96C191.835 262.84 191.355 262.12 190.219 262.12H190.091C188.955 262.12 187.915 263 187.915 264.52V269ZM200.126 269H198.206C197.086 269 196.446 268.36 196.446 267.24V262.312H194.686V261H196.446V258.408H197.966V261H199.886V262.312H197.966V267C197.966 267.48 198.126 267.64 198.606 267.64H200.126V269ZM210.957 269H205.917V257.8H210.797C212.557 257.8 213.997 258.92 213.997 260.76C213.997 262.04 213.229 262.92 212.173 263.32C213.437 263.528 214.237 264.504 214.237 265.96C214.237 267.816 212.717 269 210.957 269ZM207.517 259.24V262.6H210.557C211.677 262.6 212.397 261.96 212.397 260.92C212.397 259.88 211.677 259.24 210.557 259.24H207.517ZM207.517 264.04V267.56H210.637C211.837 267.56 212.637 266.92 212.637 265.8C212.637 264.68 211.837 264.04 210.637 264.04H207.517ZM218.446 269.16C216.926 269.16 215.806 268.152 215.806 266.792C215.806 264.968 217.422 264.424 218.718 264.312L220.926 264.136V263.88C220.926 262.76 220.286 262.12 219.262 262.12H219.134C218.302 262.12 217.582 262.52 217.486 263.32H215.966C216.062 261.848 217.39 260.84 219.198 260.84C221.326 260.84 222.446 262.248 222.446 263.88V267.24C222.446 267.72 222.446 268.44 222.526 269H221.086C221.006 268.6 221.006 267.8 221.006 267.72C220.686 268.44 219.726 269.16 218.446 269.16ZM218.622 267.88H218.75C219.726 267.88 220.926 267.08 220.926 266.12V265.304L218.926 265.464C217.998 265.544 217.326 265.992 217.326 266.728C217.326 267.384 217.87 267.88 218.622 267.88ZM226.29 269H224.77V257.8H226.29V269ZM230.852 269.16C229.332 269.16 228.212 268.152 228.212 266.792C228.212 264.968 229.828 264.424 231.124 264.312L233.332 264.136V263.88C233.332 262.76 232.692 262.12 231.668 262.12H231.54C230.708 262.12 229.988 262.52 229.892 263.32H228.372C228.468 261.848 229.796 260.84 231.604 260.84C233.732 260.84 234.852 262.248 234.852 263.88V267.24C234.852 267.72 234.852 268.44 234.932 269H233.492C233.412 268.6 233.412 267.8 233.412 267.72C233.092 268.44 232.132 269.16 230.852 269.16ZM231.028 267.88H231.156C232.132 267.88 233.332 267.08 233.332 266.12V265.304L231.332 265.464C230.404 265.544 229.732 265.992 229.732 266.728C229.732 267.384 230.276 267.88 231.028 267.88ZM238.697 269H237.177V261H238.697V262.12C239.177 261.4 239.977 260.84 241.257 260.84C243.097 260.84 244.137 261.96 244.137 263.64V269H242.617V263.96C242.617 262.84 242.137 262.12 241.001 262.12H240.873C239.737 262.12 238.697 263 238.697 264.52V269ZM249.818 269.16C247.354 269.16 245.978 267.352 245.978 265C245.978 262.648 247.354 260.84 249.818 260.84C251.642 260.84 252.938 261.912 253.098 263.64H251.578C251.434 262.76 250.794 262.12 249.882 262.12H249.754C248.218 262.12 247.498 263.48 247.498 265C247.498 266.52 248.218 267.88 249.754 267.88H249.882C250.794 267.88 251.434 267.24 251.578 266.36H253.098C252.938 268.088 251.642 269.16 249.818 269.16ZM258.269 269.16C256.285 269.16 254.493 267.784 254.493 264.984C254.493 262.216 256.333 260.84 258.221 260.84C260.301 260.84 261.613 262.28 261.613 264.36V265.24H256.013C256.109 267.064 257.277 267.88 258.253 267.88H258.381C259.165 267.88 259.917 267.48 260.077 266.632H261.597C261.309 268.248 259.917 269.16 258.269 269.16ZM256.109 264.04H260.093C260.029 262.648 259.197 262.12 258.285 262.12H258.157C257.325 262.12 256.397 262.616 256.109 264.04ZM263.535 268.136C263.535 267.741 263.631 267.464 263.823 267.304C264.015 267.144 264.244 267.064 264.511 267.064C264.788 267.064 265.023 267.144 265.215 267.304C265.417 267.464 265.519 267.741 265.519 268.136C265.519 268.52 265.417 268.797 265.215 268.968C265.023 269.139 264.788 269.224 264.511 269.224C264.244 269.224 264.015 269.139 263.823 268.968C263.631 268.797 263.535 268.52 263.535 268.136ZM263.535 261.288C263.535 260.883 263.631 260.6 263.823 260.44C264.015 260.28 264.244 260.2 264.511 260.2C264.788 260.2 265.023 260.28 265.215 260.44C265.417 260.6 265.519 260.883 265.519 261.288C265.519 261.672 265.417 261.949 265.215 262.12C265.023 262.291 264.788 262.376 264.511 262.376C264.244 262.376 264.015 262.291 263.823 262.12C263.631 261.949 263.535 261.672 263.535 261.288ZM275.882 261.64C277.882 261.64 279.498 263.08 279.498 265.32C279.498 267.624 277.818 269.16 275.578 269.16C273.098 269.16 271.434 267.208 271.434 263.768C271.434 260.168 273.61 257.64 276.17 257.64C278.09 257.64 279.418 258.696 279.738 260.52H278.17C277.93 259.624 277.274 259.016 276.282 259.016H276.09C274.33 259.016 273.018 260.808 272.826 263.48C273.386 262.328 274.586 261.64 275.882 261.64ZM275.53 267.784H275.69C276.89 267.784 277.93 266.824 277.93 265.4C277.93 263.96 276.89 263 275.69 263H275.53C274.33 263 273.226 264.024 273.226 265.384C273.226 266.728 274.33 267.784 275.53 267.784ZM285.101 269.16C282.925 269.16 281.421 267.96 281.213 266.072H282.765C282.989 267.176 283.837 267.8 285.021 267.8H285.165C286.349 267.8 287.325 267.08 287.325 265.96C287.325 264.792 286.461 264.072 285.293 264.072H284.333V262.728H285.293C286.461 262.728 287.245 261.864 287.245 260.84C287.245 259.688 286.349 259 285.165 259H285.021C283.949 259 283.037 259.752 282.941 260.76H281.421C281.517 258.968 283.117 257.64 285.181 257.64C287.181 257.64 288.813 258.968 288.813 260.6C288.813 262.04 287.981 263 286.877 263.352C287.981 263.624 288.893 264.52 288.893 266.04C288.893 267.832 287.293 269.16 285.101 269.16ZM297.34 269H295.804V266.456H290.3V264.92L295.82 257.8H297.34V265.096H299.1V266.456H297.34V269ZM295.804 259.944L291.804 265.096H295.804V259.944ZM307.571 268.216C306.985 268.205 306.414 268.157 305.859 268.072C305.305 267.976 304.857 267.848 304.515 267.688V266.328C304.878 266.499 305.342 266.648 305.907 266.776C306.473 266.904 307.027 266.973 307.571 266.984V263.752C307.049 263.603 306.59 263.443 306.195 263.272C305.811 263.091 305.497 262.888 305.251 262.664C305.006 262.44 304.819 262.184 304.691 261.896C304.574 261.597 304.515 261.256 304.515 260.872C304.515 260.349 304.638 259.901 304.883 259.528C305.139 259.155 305.497 258.861 305.955 258.648C306.414 258.424 306.953 258.296 307.571 258.264V256.856H308.595V258.248C309.161 258.259 309.673 258.323 310.131 258.44C310.601 258.547 311.027 258.68 311.411 258.84L310.979 260.024C310.638 259.885 310.259 259.768 309.843 259.672C309.438 259.565 309.022 259.496 308.595 259.464V262.68C309.299 262.883 309.886 263.101 310.355 263.336C310.825 263.56 311.177 263.843 311.411 264.184C311.657 264.515 311.779 264.947 311.779 265.48C311.779 266.227 311.502 266.835 310.947 267.304C310.393 267.763 309.609 268.045 308.595 268.152V269.928H307.571V268.216ZM308.595 266.904C309.225 266.84 309.683 266.696 309.971 266.472C310.259 266.237 310.403 265.939 310.403 265.576C310.403 265.309 310.35 265.091 310.243 264.92C310.137 264.739 309.95 264.584 309.683 264.456C309.427 264.328 309.065 264.205 308.595 264.088V266.904ZM307.571 259.496C307.187 259.517 306.873 259.587 306.627 259.704C306.382 259.811 306.195 259.955 306.067 260.136C305.95 260.317 305.891 260.525 305.891 260.76C305.891 261.037 305.939 261.277 306.035 261.48C306.142 261.672 306.318 261.837 306.563 261.976C306.809 262.104 307.145 262.221 307.571 262.328V259.496ZM315.72 269H314.12V257.8H315.72V269ZM320.204 269H318.604V257.8H323.404C325.484 257.8 326.924 259.08 326.924 260.84C326.924 262.28 326.124 263.352 325.084 263.672C326.364 263.672 326.764 264.12 326.764 265.24V269H325.164V265.64C325.164 264.76 324.924 264.52 324.044 264.52H320.204V269ZM320.204 259.24V263.08H323.164C324.524 263.08 325.324 262.2 325.324 261.08C325.324 259.88 324.524 259.24 323.164 259.24H320.204ZM334.103 269.16C331.063 269.16 328.823 267 328.823 263.4C328.823 259.8 331.063 257.64 334.103 257.64C337.143 257.64 339.383 259.8 339.383 263.4C339.383 267 337.143 269.16 334.103 269.16ZM334.023 267.72H334.183C336.263 267.72 337.783 266.12 337.783 263.4C337.783 260.68 336.263 259.08 334.183 259.08H334.023C331.943 259.08 330.423 260.68 330.423 263.4C330.423 266.12 331.943 267.72 334.023 267.72ZM349.044 267.064V257.8H350.644V269H348.404L343.204 259.736V269H341.604V257.8H343.844L349.044 267.064Z" fill="white"/>
<path d="M114.297 216.52C105.717 216.52 99.6852 212.62 99.3732 206.484H104.833C105.457 210.072 109.305 211.996 113.829 211.996H114.557C119.913 211.996 123.605 209.5 123.605 205.86C123.605 202.22 120.381 200.036 114.921 200.036H109.721V195.512H114.921C120.485 195.512 123.345 192.808 123.345 189.48C123.345 185.736 119.965 183.604 114.557 183.604H113.829C109.357 183.604 105.925 186.048 105.509 189.22H100.049C100.205 183.5 105.873 179.08 114.297 179.08C123.085 179.08 128.649 183.084 128.649 189.012C128.649 193.9 125.269 196.396 122.253 197.592C125.633 198.58 128.909 201.388 128.909 205.86C128.909 212.516 123.085 216.52 114.297 216.52ZM143.082 216H136.062V209.656H143.082V216ZM146.069 188.752L157.509 179.6H161.565V216H156.469V186.464L146.069 194.68V188.752ZM194.824 179.6V203.364H201.948V207.836H194.824V216H189.728V207.836H168.46V202.532L189.052 179.6H194.824ZM189.728 185.424L173.556 203.364H189.728V185.424Z" fill="white"/>
<path d="M231.039 213.452C229.132 213.417 227.277 213.261 225.475 212.984C223.672 212.672 222.216 212.256 221.107 211.736V207.316C222.285 207.871 223.793 208.356 225.631 208.772C227.468 209.188 229.271 209.413 231.039 209.448V198.944C229.34 198.459 227.849 197.939 226.567 197.384C225.319 196.795 224.296 196.136 223.499 195.408C222.701 194.68 222.095 193.848 221.679 192.912C221.297 191.941 221.107 190.832 221.107 189.584C221.107 187.885 221.505 186.429 222.303 185.216C223.135 184.003 224.296 183.049 225.787 182.356C227.277 181.628 229.028 181.212 231.039 181.108V176.532H234.367V181.056C236.204 181.091 237.868 181.299 239.359 181.68C240.884 182.027 242.271 182.46 243.519 182.98L242.115 186.828C241.005 186.377 239.775 185.996 238.423 185.684C237.105 185.337 235.753 185.112 234.367 185.008V195.46C236.655 196.119 238.561 196.829 240.087 197.592C241.612 198.32 242.756 199.239 243.519 200.348C244.316 201.423 244.715 202.827 244.715 204.56C244.715 206.987 243.813 208.963 242.011 210.488C240.208 211.979 237.66 212.897 234.367 213.244V219.016H231.039V213.452ZM234.367 209.188C236.412 208.98 237.903 208.512 238.839 207.784C239.775 207.021 240.243 206.051 240.243 204.872C240.243 204.005 240.069 203.295 239.723 202.74C239.376 202.151 238.769 201.648 237.903 201.232C237.071 200.816 235.892 200.417 234.367 200.036V209.188ZM231.039 185.112C229.791 185.181 228.768 185.407 227.971 185.788C227.173 186.135 226.567 186.603 226.151 187.192C225.769 187.781 225.579 188.457 225.579 189.22C225.579 190.121 225.735 190.901 226.047 191.56C226.393 192.184 226.965 192.721 227.763 193.172C228.56 193.588 229.652 193.969 231.039 194.316V185.112ZM258.041 216H252.685V179.6H258.041V216ZM273.478 216H268.122V179.6H287.882C294.85 179.6 299.79 183.812 299.79 189.532C299.79 194.212 296.93 197.384 293.966 198.424C297.762 198.424 299.062 200.14 299.062 203.78V216H293.706V205.08C293.706 202.22 292.874 201.44 290.014 201.44H273.478V216ZM273.478 184.384V196.656H287.102C291.678 196.656 294.382 194.056 294.382 190.416C294.382 186.516 291.678 184.384 287.102 184.384H273.478ZM326.633 216.52C315.141 216.52 306.509 209.448 306.509 197.8C306.509 186.152 315.141 179.08 326.633 179.08C338.125 179.08 346.705 186.152 346.705 197.8C346.705 209.448 338.125 216.52 326.633 216.52ZM326.217 211.736H327.049C334.797 211.736 341.297 206.64 341.297 197.8C341.297 188.96 334.797 183.864 327.049 183.864H326.217C318.469 183.864 311.917 188.96 311.917 197.8C311.917 206.64 318.469 211.736 326.217 211.736ZM382.998 210.02V179.6H388.354V216H380.97L359.806 185.58V216H354.45V179.6H361.834L382.998 210.02Z" fill="#7F7F7F"/>
<g filter="url(#filter0_d_2071_5088)">
<rect x="32" y="360" width="436" height="69" rx="4" fill="white"/>
<rect x="32.5" y="360.5" width="435" height="68" rx="3.5" stroke="black"/>
</g>
<g clip-path="url(#clip0_2071_5088)">
<path d="M427 393L432 398L437 393H427Z" fill="black"/>
</g>
<path d="M58.46 385V381.568H62.444V380.272H58.46V377.884H63.044V376.6H57.02V385H58.46ZM65.3098 385V381.916C65.3098 380.824 65.8738 380.236 66.9178 380.236H67.4338V378.94H67.0258C66.1858 378.94 65.5258 379.42 65.2858 380.248V379H63.9298V385H65.3098ZM70.9515 385.12C72.6795 385.12 73.9035 383.824 73.9035 382C73.9035 380.176 72.6795 378.88 70.9515 378.88C69.2355 378.88 68.0115 380.176 68.0115 382C68.0115 383.824 69.2355 385.12 70.9515 385.12ZM70.9035 383.992C70.0155 383.992 69.3915 383.26 69.3915 382C69.3915 380.74 70.0155 380.008 70.9035 380.008H70.9995C71.8995 380.008 72.5115 380.74 72.5115 382C72.5115 383.26 71.8995 383.992 70.9995 383.992H70.9035ZM76.6184 385V381.652C76.6184 380.68 77.2784 380.044 78.0104 380.044H78.1064C78.8384 380.044 79.1504 380.512 79.1504 381.328V385H80.5304V381.652C80.5304 380.68 81.1904 380.044 81.9224 380.044H82.0184C82.7504 380.044 83.0624 380.512 83.0624 381.328V385H84.4424V381.112C84.4424 379.828 83.7824 378.88 82.2944 378.88C81.5504 378.88 80.7704 379.18 80.3144 379.948C79.9544 379.228 79.2704 378.88 78.4184 378.88C77.6744 378.88 77.0144 379.228 76.6184 379.852V379H75.2384V385H76.6184ZM96.1573 385L92.8933 376.6H91.1533L87.8293 385H89.3293L90.1213 382.948H93.8533L94.6453 385H96.1573ZM91.9813 378.1L93.3493 381.652H90.6133L91.9813 378.1ZM99.5442 385.12C101.02 385.12 102.016 384.364 102.136 382.948H100.756C100.66 383.572 100.252 383.992 99.5922 383.992H99.4962C98.4882 383.992 98.0442 383.068 98.0442 382C98.0442 380.932 98.4882 380.008 99.4962 380.008H99.5922C100.252 380.008 100.66 380.428 100.756 381.052H102.136C102.016 379.636 101.02 378.88 99.5442 378.88C97.8162 378.88 96.6642 380.152 96.6642 382C96.6642 383.848 97.8162 385.12 99.5442 385.12ZM105.978 385.12C107.454 385.12 108.45 384.364 108.57 382.948H107.19C107.094 383.572 106.686 383.992 106.026 383.992H105.93C104.922 383.992 104.478 383.068 104.478 382C104.478 380.932 104.922 380.008 105.93 380.008H106.026C106.686 380.008 107.094 380.428 107.19 381.052H108.57C108.45 379.636 107.454 378.88 105.978 378.88C104.25 378.88 103.098 380.152 103.098 382C103.098 383.848 104.25 385.12 105.978 385.12ZM112.459 385.12C114.187 385.12 115.411 383.824 115.411 382C115.411 380.176 114.187 378.88 112.459 378.88C110.743 378.88 109.519 380.176 109.519 382C109.519 383.824 110.743 385.12 112.459 385.12ZM112.411 383.992C111.523 383.992 110.899 383.26 110.899 382C110.899 380.74 111.523 380.008 112.411 380.008H112.507C113.407 380.008 114.019 380.74 114.019 382C114.019 383.26 113.407 383.992 112.507 383.992H112.411ZM118.726 385.12C119.602 385.12 120.25 384.64 120.55 384.016V385H121.93V379H120.55V382.3C120.55 383.284 119.914 383.992 119.194 383.992H119.098C118.426 383.992 118.066 383.548 118.066 382.684V379H116.686V382.888C116.686 384.184 117.346 385.12 118.726 385.12ZM124.993 385V381.652C124.993 380.68 125.665 380.008 126.433 380.008H126.529C127.237 380.008 127.597 380.488 127.597 381.292V385H128.977V381.088C128.977 379.792 128.269 378.88 126.853 378.88C126.001 378.88 125.353 379.288 124.993 379.864V379H123.613V385H124.993ZM134.127 385V383.812H133.155C132.687 383.812 132.567 383.692 132.567 383.224V380.14H133.947V379H132.567V377.056H131.187V379H129.915V380.14H131.187V383.548C131.187 384.484 131.703 385 132.639 385H134.127Z" fill="#7F7F7F"/>
<path d="M198.092 402.48C199.568 402.48 200.804 403.548 200.804 405.24C200.804 406.848 199.64 408.12 197.792 408.12C195.824 408.12 194.624 406.656 194.624 404.076C194.624 401.328 196.268 399.48 198.296 399.48C199.724 399.48 200.768 400.32 200.984 401.712H199.568C199.448 401.148 199.04 400.716 198.296 400.716H198.164C197.096 400.716 196.052 401.676 195.884 403.728C196.268 402.948 197.12 402.48 198.092 402.48ZM197.744 406.884H197.864C198.716 406.884 199.388 406.212 199.388 405.3C199.388 404.376 198.716 403.704 197.864 403.704H197.744C196.88 403.704 196.16 404.376 196.16 405.3C196.16 406.2 196.856 406.884 197.744 406.884ZM204.992 408.12C203.288 408.12 202.112 407.208 202.04 405.732H203.456C203.564 406.44 204.092 406.896 204.932 406.896H205.052C205.976 406.896 206.516 406.32 206.516 405.648C206.516 404.868 205.892 404.412 205.016 404.412H204.38V403.188H204.98C205.88 403.188 206.468 402.66 206.468 401.916C206.468 401.196 205.88 400.704 205.088 400.704H204.968C204.272 400.704 203.66 401.172 203.6 401.892H202.196C202.232 400.488 203.456 399.48 205.052 399.48C206.72 399.48 207.884 400.524 207.884 401.772C207.884 402.78 207.272 403.512 206.42 403.764C207.272 403.992 207.944 404.712 207.944 405.744C207.944 407.208 206.696 408.12 204.992 408.12ZM214.409 408H213.053V406.212H208.961V404.82L213.029 399.6H214.409V404.988H215.693V406.212H214.409V408ZM213.053 401.508L210.341 404.988H213.053V401.508ZM221.974 407.412C221.534 407.404 221.106 407.368 220.69 407.304C220.274 407.232 219.938 407.136 219.682 407.016V405.996C219.954 406.124 220.302 406.236 220.726 406.332C221.15 406.428 221.566 406.48 221.974 406.488V404.064C221.582 403.952 221.238 403.832 220.942 403.704C220.654 403.568 220.418 403.416 220.234 403.248C220.05 403.08 219.91 402.888 219.814 402.672C219.726 402.448 219.682 402.192 219.682 401.904C219.682 401.512 219.774 401.176 219.958 400.896C220.15 400.616 220.418 400.396 220.762 400.236C221.106 400.068 221.51 399.972 221.974 399.948V398.892H222.742V399.936C223.166 399.944 223.55 399.992 223.894 400.08C224.246 400.16 224.566 400.26 224.854 400.38L224.53 401.268C224.274 401.164 223.99 401.076 223.678 401.004C223.374 400.924 223.062 400.872 222.742 400.848V403.26C223.27 403.412 223.71 403.576 224.062 403.752C224.414 403.92 224.678 404.132 224.854 404.388C225.038 404.636 225.13 404.96 225.13 405.36C225.13 405.92 224.922 406.376 224.506 406.728C224.09 407.072 223.502 407.284 222.742 407.364V408.696H221.974V407.412ZM222.742 406.428C223.214 406.38 223.558 406.272 223.774 406.104C223.99 405.928 224.098 405.704 224.098 405.432C224.098 405.232 224.058 405.068 223.978 404.94C223.898 404.804 223.758 404.688 223.558 404.592C223.366 404.496 223.094 404.404 222.742 404.316V406.428ZM221.974 400.872C221.686 400.888 221.45 400.94 221.266 401.028C221.082 401.108 220.942 401.216 220.846 401.352C220.758 401.488 220.714 401.644 220.714 401.82C220.714 402.028 220.75 402.208 220.822 402.36C220.902 402.504 221.034 402.628 221.218 402.732C221.402 402.828 221.654 402.916 221.974 402.996V400.872ZM228.265 408H226.825V399.6H228.265V408ZM231.757 408H230.317V399.6H234.097C235.585 399.6 236.701 400.56 236.701 401.88C236.701 402.948 236.173 403.692 235.297 404.004C236.221 404.004 236.581 404.4 236.581 405.192V408H235.141V405.552C235.141 404.928 234.961 404.748 234.337 404.748H231.757V408ZM231.757 400.884V403.476H233.737C234.733 403.476 235.261 402.936 235.261 402.132C235.261 401.304 234.733 400.884 233.737 400.884H231.757ZM242.049 408.12C239.709 408.12 238.029 406.5 238.029 403.8C238.029 401.1 239.709 399.48 242.049 399.48C244.401 399.48 246.081 401.1 246.081 403.8C246.081 406.5 244.401 408.12 242.049 408.12ZM241.989 406.836H242.109C243.633 406.836 244.641 405.708 244.641 403.8C244.641 401.892 243.633 400.764 242.109 400.764H241.989C240.465 400.764 239.469 401.892 239.469 403.8C239.469 405.708 240.465 406.836 241.989 406.836ZM253.133 406.092V399.6H254.573V408H252.653L249.089 401.472V408H247.649V399.6H249.569L253.133 406.092Z" fill="#7F7F7F"/>
<path d="M59.04 408H57.44V396.8H62.16C64.24 396.8 65.76 398.032 65.76 400.192C65.76 402.352 64.24 403.584 62.16 403.584H59.04V408ZM59.04 398.24V402.144H61.92C63.36 402.144 64.16 401.472 64.16 400.192C64.16 398.912 63.36 398.24 61.92 398.24H59.04ZM69.0169 408H67.4969V400H68.9369V401.76C69.2569 400.56 70.2169 399.92 71.2569 399.92H71.9769V401.392H71.3369C69.8969 401.392 69.0169 402.352 69.0169 403.952V408ZM75.1125 398.56H73.4325V396.8H75.1125V398.56ZM75.0325 408H73.5125V400H75.0325V408ZM78.9544 408H77.4344V400H78.9544V401.12C79.4344 400.4 80.2344 399.84 81.3544 399.84C82.5064 399.84 83.4664 400.288 83.9944 401.328C84.6184 400.224 85.6584 399.84 86.6344 399.84C88.4744 399.84 89.5144 400.96 89.5144 402.64V408H87.9944V402.96C87.9944 401.84 87.5144 401.12 86.3784 401.12H86.2504C85.2744 401.12 84.2344 402 84.2344 403.52V408H82.7144V402.96C82.7144 401.84 82.2344 401.12 81.0984 401.12H80.9704C79.9944 401.12 78.9544 402 78.9544 403.52V408ZM94.0006 408.16C92.4806 408.16 91.3606 407.152 91.3606 405.792C91.3606 403.968 92.9766 403.424 94.2726 403.312L96.4806 403.136V402.88C96.4806 401.76 95.8406 401.12 94.8166 401.12H94.6886C93.8566 401.12 93.1366 401.52 93.0406 402.32H91.5206C91.6166 400.848 92.9446 399.84 94.7526 399.84C96.8806 399.84 98.0006 401.248 98.0006 402.88V406.24C98.0006 406.72 98.0006 407.44 98.0806 408H96.6406C96.5606 407.6 96.5606 406.8 96.5606 406.72C96.2406 407.44 95.2806 408.16 94.0006 408.16ZM94.1766 406.88H94.3046C95.2806 406.88 96.4806 406.08 96.4806 405.12V404.304L94.4806 404.464C93.5526 404.544 92.8806 404.992 92.8806 405.728C92.8806 406.384 93.4246 406.88 94.1766 406.88ZM101.845 408H100.325V400H101.765V401.76C102.085 400.56 103.045 399.92 104.085 399.92H104.805V401.392H104.165C102.725 401.392 101.845 402.352 101.845 403.952V408ZM111.973 400H113.541L110.261 407.824V409.28C110.261 410.4 109.701 410.96 108.581 410.96H105.941V409.6H108.181C108.661 409.6 108.821 409.44 108.821 408.96V407.84L105.461 400H107.077L109.573 405.904L111.973 400ZM127.961 408H126.297L125.177 405.12H119.833L118.713 408H117.081L121.513 396.8H123.561L127.961 408ZM122.505 398.272L120.393 403.68H124.617L122.505 398.272ZM132.56 408.16C130.096 408.16 128.72 406.352 128.72 404C128.72 401.648 130.096 399.84 132.56 399.84C134.384 399.84 135.68 400.912 135.84 402.64H134.32C134.176 401.76 133.536 401.12 132.624 401.12H132.496C130.96 401.12 130.24 402.48 130.24 404C130.24 405.52 130.96 406.88 132.496 406.88H132.624C133.536 406.88 134.176 406.24 134.32 405.36H135.84C135.68 407.088 134.384 408.16 132.56 408.16ZM141.076 408.16C138.612 408.16 137.236 406.352 137.236 404C137.236 401.648 138.612 399.84 141.076 399.84C142.9 399.84 144.196 400.912 144.356 402.64H142.836C142.692 401.76 142.052 401.12 141.14 401.12H141.012C139.476 401.12 138.756 402.48 138.756 404C138.756 405.52 139.476 406.88 141.012 406.88H141.14C142.052 406.88 142.692 406.24 142.836 405.36H144.356C144.196 407.088 142.9 408.16 141.076 408.16ZM149.575 408.16C147.415 408.16 145.735 406.48 145.735 404C145.735 401.52 147.415 399.84 149.575 399.84C151.735 399.84 153.415 401.52 153.415 404C153.415 406.48 151.735 408.16 149.575 408.16ZM149.511 406.88H149.639C150.935 406.88 151.895 405.84 151.895 404C151.895 402.16 150.935 401.12 149.639 401.12H149.511C148.215 401.12 147.255 402.16 147.255 404C147.255 405.84 148.215 406.88 149.511 406.88ZM157.965 408.16C156.173 408.16 155.245 406.96 155.245 405.28V400H156.765V404.96C156.765 406.24 157.293 406.88 158.381 406.88H158.509C159.533 406.88 160.525 405.92 160.525 404.32V400H162.045V408H160.525V406.48C160.221 407.36 159.357 408.16 157.965 408.16ZM165.97 408H164.45V400H165.97V401.12C166.45 400.4 167.25 399.84 168.53 399.84C170.37 399.84 171.41 400.96 171.41 402.64V408H169.89V402.96C169.89 401.84 169.41 401.12 168.274 401.12H168.146C167.01 401.12 165.97 402 165.97 403.52V408ZM178.181 408H176.261C175.141 408 174.501 407.36 174.501 406.24V401.312H172.741V400H174.501V397.408H176.021V400H177.941V401.312H176.021V406C176.021 406.48 176.181 406.64 176.661 406.64H178.181V408Z" fill="black"/>
<g filter="url(#filter1_d_2071_5088)">
<rect x="32" y="461" width="436" height="69" rx="4" fill="white"/>
<rect x="32.5" y="461.5" width="435" height="68" rx="3.5" stroke="black"/>
</g>
<g clip-path="url(#clip1_2071_5088)">
<path d="M427 494L432 499L437 494H427Z" fill="black"/>
</g>
<path d="M60.404 486H59.204V478.68H56.204V477.6H63.404V478.68H60.404V486ZM65.5721 486.12C63.9521 486.12 62.6921 484.86 62.6921 483C62.6921 481.14 63.9521 479.88 65.5721 479.88C67.1921 479.88 68.4521 481.14 68.4521 483C68.4521 484.86 67.1921 486.12 65.5721 486.12ZM65.5241 485.16H65.6201C66.5921 485.16 67.3121 484.38 67.3121 483C67.3121 481.62 66.5921 480.84 65.6201 480.84H65.5241C64.5521 480.84 63.8321 481.62 63.8321 483C63.8321 484.38 64.5521 485.16 65.5241 485.16Z" fill="#7F7F7F"/>
<path d="M59.04 509H57.44V497.8H59.04V502.68H64.72V497.8H66.32V509H64.72V504.12H59.04V509ZM72.1679 509.16C70.1839 509.16 68.3919 507.784 68.3919 504.984C68.3919 502.216 70.2319 500.84 72.1199 500.84C74.1999 500.84 75.5119 502.28 75.5119 504.36V505.24H69.9119C70.0079 507.064 71.1759 507.88 72.1519 507.88H72.2799C73.0639 507.88 73.8159 507.48 73.9759 506.632H75.4959C75.2079 508.248 73.8159 509.16 72.1679 509.16ZM70.0079 504.04H73.9919C73.9279 502.648 73.0959 502.12 72.1839 502.12H72.0559C71.2239 502.12 70.2959 502.616 70.0079 504.04ZM78 509H76.272L79.232 504.968L76.352 501H78.128L80.128 503.752L82.144 501H83.872L80.992 504.936L83.952 509H82.176L80.096 506.136L78 509ZM87.2588 509H85.6588V497.8H93.4988V499.24H87.2588V502.84H92.6988V504.28H87.2588V509ZM96.7219 499.56H95.0419V497.8H96.7219V499.56ZM96.6419 509H95.1219V501H96.6419V509ZM101.716 509.16C99.5878 509.16 98.4358 508.04 98.4358 506.52H99.9557C100.036 507.48 100.788 507.88 101.732 507.88H101.86C102.692 507.88 103.348 507.48 103.348 506.84C103.348 506.328 103.06 505.976 102.26 505.816L101.092 505.592C99.7958 505.336 98.7558 504.664 98.7558 503.304C98.7558 501.704 100.18 500.84 101.78 500.84C103.876 500.84 104.948 501.96 104.948 503.48H103.428C103.348 502.76 102.9 502.12 101.86 502.12H101.732C100.836 502.12 100.276 502.584 100.276 503.144C100.276 503.704 100.596 504.008 101.396 504.168L102.66 504.424C103.876 504.664 104.868 505.32 104.868 506.76C104.868 508.2 103.572 509.16 101.716 509.16ZM108.376 509H106.856V497.8H108.376V502.12C108.856 501.4 109.656 500.84 110.936 500.84C112.776 500.84 113.816 501.96 113.816 503.64V509H112.296V503.96C112.296 502.84 111.816 502.12 110.68 502.12H110.552C109.416 502.12 108.376 503 108.376 504.52V509Z" fill="black"/>
<g filter="url(#filter2_d_2071_5088)">
<rect x="32" y="562" width="187" height="69" rx="34.5" fill="#0D0C22"/>
<path d="M68.8877 589C71.2292 591.029 77.036 593.964 81.5316 589.468M81.5316 589.468C81.5277 589.472 81.5238 589.476 81.5199 589.48M81.5316 589.468L82 589M82 602.112C79.9725 599.773 77.0411 593.974 81.5199 589.48M81.5199 589.48L66 605" stroke="white" stroke-width="2"/>
<path d="M99.3283 601.16C101.968 601.16 103.552 599.768 103.552 597.832C103.552 596.008 102.4 595 100.48 594.616L98.7523 594.28C97.7923 594.088 97.3123 593.672 97.3123 592.872C97.3123 592.04 98.1283 591.352 99.4083 591.352H99.5683C100.8 591.352 101.728 592.04 101.808 593.256H103.728C103.696 591.112 102.144 589.64 99.5363 589.64C96.9283 589.64 95.3923 591.224 95.3923 592.936C95.3923 594.648 96.3363 595.736 98.2563 596.136L100.16 596.52C101.232 596.744 101.632 597.192 101.632 597.944C101.632 598.76 100.928 599.448 99.6003 599.448H99.4403C97.7603 599.448 96.8003 598.6 96.7523 597.304H94.8323C94.9123 599.704 96.4323 601.16 99.3283 601.16ZM108.878 601.16C110.718 601.16 112.03 600.136 112.366 598.536H110.542C110.382 599.208 109.79 599.656 109.006 599.656H108.878C107.966 599.656 106.974 598.888 106.878 597.48H112.366C112.382 597.208 112.398 596.936 112.398 596.664C112.398 594.456 111.118 592.84 108.846 592.84C106.67 592.84 105.086 594.44 105.086 597C105.086 599.704 106.878 601.16 108.878 601.16ZM106.926 596.056C107.07 594.888 107.886 594.344 108.75 594.344H108.878C109.758 594.344 110.526 594.904 110.59 596.056H106.926ZM116.062 601V596.536C116.062 595.24 116.958 594.344 117.982 594.344H118.11C119.054 594.344 119.534 594.984 119.534 596.056V601H121.374V595.784C121.374 594.056 120.43 592.84 118.542 592.84C117.406 592.84 116.542 593.384 116.062 594.152V593H114.222V601H116.062ZM126.574 601.16C127.694 601.16 128.67 600.552 129.022 599.928V601H130.862V589.8H129.022V594.072C128.67 593.448 127.774 592.84 126.654 592.84C124.462 592.84 123.07 594.632 123.07 597C123.07 599.368 124.398 601.16 126.574 601.16ZM126.894 599.656C125.774 599.656 124.91 598.68 124.91 596.984C124.91 595.304 125.774 594.344 126.894 594.344H127.022C128.062 594.344 129.022 595.304 129.022 597C129.022 598.696 128.062 599.656 127.022 599.656H126.894ZM139.853 600.216C139.266 600.205 138.695 600.157 138.141 600.072C137.586 599.976 137.138 599.848 136.797 599.688V598.328C137.159 598.499 137.623 598.648 138.189 598.776C138.754 598.904 139.309 598.973 139.853 598.984V595.752C139.33 595.603 138.871 595.443 138.477 595.272C138.093 595.091 137.778 594.888 137.533 594.664C137.287 594.44 137.101 594.184 136.973 593.896C136.855 593.597 136.797 593.256 136.797 592.872C136.797 592.349 136.919 591.901 137.165 591.528C137.421 591.155 137.778 590.861 138.237 590.648C138.695 590.424 139.234 590.296 139.853 590.264V588.856H140.877V590.248C141.442 590.259 141.954 590.323 142.413 590.44C142.882 590.547 143.309 590.68 143.693 590.84L143.261 592.024C142.919 591.885 142.541 591.768 142.125 591.672C141.719 591.565 141.303 591.496 140.877 591.464V594.68C141.581 594.883 142.167 595.101 142.637 595.336C143.106 595.56 143.458 595.843 143.693 596.184C143.938 596.515 144.061 596.947 144.061 597.48C144.061 598.227 143.783 598.835 143.229 599.304C142.674 599.763 141.89 600.045 140.877 600.152V601.928H139.853V600.216ZM140.877 598.904C141.506 598.84 141.965 598.696 142.253 598.472C142.541 598.237 142.685 597.939 142.685 597.576C142.685 597.309 142.631 597.091 142.525 596.92C142.418 596.739 142.231 596.584 141.965 596.456C141.709 596.328 141.346 596.205 140.877 596.088V598.904ZM139.853 591.496C139.469 591.517 139.154 591.587 138.909 591.704C138.663 591.811 138.477 591.955 138.349 592.136C138.231 592.317 138.173 592.525 138.173 592.76C138.173 593.037 138.221 593.277 138.317 593.48C138.423 593.672 138.599 593.837 138.845 593.976C139.09 594.104 139.426 594.221 139.853 594.328V591.496ZM148.241 601V589.8H146.321V601H148.241ZM152.897 601V596.664H156.337C157.169 596.664 157.409 596.904 157.409 597.736V601H159.329V597.256C159.329 596.2 158.849 595.672 157.617 595.672C158.785 595.256 159.489 594.264 159.489 592.84C159.489 591.08 158.001 589.8 156.017 589.8H150.977V601H152.897ZM152.897 591.512H155.537C156.865 591.512 157.569 592.072 157.569 593.176C157.569 594.248 156.865 594.968 155.537 594.968H152.897V591.512ZM166.619 601.16C169.755 601.16 171.995 599 171.995 595.4C171.995 591.8 169.755 589.64 166.619 589.64C163.499 589.64 161.259 591.8 161.259 595.4C161.259 599 163.499 601.16 166.619 601.16ZM166.539 599.448C164.507 599.448 163.179 597.944 163.179 595.4C163.179 592.856 164.507 591.352 166.539 591.352H166.699C168.731 591.352 170.075 592.856 170.075 595.4C170.075 597.944 168.731 599.448 166.699 599.448H166.539ZM181.399 598.456L176.647 589.8H174.087V601H176.007V592.296L180.759 601H183.319V589.8H181.399V598.456Z" fill="white"/>
</g>
<defs>
<filter id="filter0_d_2071_5088" x="21" y="353" width="458" height="91" filterUnits="userSpaceOnUse" color-interpolation-filters="sRGB">
<feFlood flood-opacity="0" result="BackgroundImageFix"/>
<feColorMatrix in="SourceAlpha" type="matrix" values="0 0 0 0 0 0 0 0 0 0 0 0 0 0 0 0 0 0 127 0" result="hardAlpha"/>
<feOffset dy="4"/>
<feGaussianBlur stdDeviation="5.5"/>
<feComposite in2="hardAlpha" operator="out"/>
<feColorMatrix type="matrix" values="0 0 0 0 0 0 0 0 0 0 0 0 0 0 0 0 0 0 0.04 0"/>
<feBlend mode="normal" in2="BackgroundImageFix" result="effect1_dropShadow_2071_5088"/>
<feBlend mode="normal" in="SourceGraphic" in2="effect1_dropShadow_2071_5088" result="shape"/>
</filter>
<filter id="filter1_d_2071_5088" x="21" y="454" width="458" height="91" filterUnits="userSpaceOnUse" color-interpolation-filters="sRGB">
<feFlood flood-opacity="0" result="BackgroundImageFix"/>
<feColorMatrix in="SourceAlpha" type="matrix" values="0 0 0 0 0 0 0 0 0 0 0 0 0 0 0 0 0 0 127 0" result="hardAlpha"/>
<feOffset dy="4"/>
<feGaussianBlur stdDeviation="5.5"/>
<feComposite in2="hardAlpha" operator="out"/>
<feColorMatrix type="matrix" values="0 0 0 0 0 0 0 0 0 0 0 0 0 0 0 0 0 0 0.04 0"/>
<feBlend mode="normal" in2="BackgroundImageFix" result="effect1_dropShadow_2071_5088"/>
<feBlend mode="normal" in="SourceGraphic" in2="effect1_dropShadow_2071_5088" result="shape"/>
</filter>
<filter id="filter2_d_2071_5088" x="18" y="553" width="215" height="97" filterUnits="userSpaceOnUse" color-interpolation-filters="sRGB">
<feFlood flood-opacity="0" result="BackgroundImageFix"/>
<feColorMatrix in="SourceAlpha" type="matrix" values="0 0 0 0 0 0 0 0 0 0 0 0 0 0 0 0 0 0 127 0" result="hardAlpha"/>
<feOffset dy="5"/>
<feGaussianBlur stdDeviation="7"/>
<feColorMatrix type="matrix" values="0 0 0 0 0 0 0 0 0 0 0 0 0 0 0 0 0 0 0.07 0"/>
<feBlend mode="normal" in2="BackgroundImageFix" result="effect1_dropShadow_2071_5088"/>
<feBlend mode="normal" in="SourceGraphic" in2="effect1_dropShadow_2071_5088" result="shape"/>
</filter>
<clipPath id="clip0_2071_5088">
<rect width="24" height="24" fill="white" transform="translate(420 383)"/>
</clipPath>
<clipPath id="clip1_2071_5088">
<rect width="24" height="24" fill="white" transform="translate(420 484)"/>
</clipPath>
</defs>
</svg>
