<svg xmlns="http://www.w3.org/2000/svg" width="510" height="712" fill="none"><rect width="498.5" height="700.5" x="10.75" y="10.75" fill="#fff" stroke="#000" stroke-width="1.5" rx="7.25"/><rect width="498.5" height="700.5" x=".75" y=".75" fill="#8AE1EF" stroke="#000" stroke-width="1.5" rx="7.25"/><rect width="160.5" height="160.5" x="175.25" y="160.75" fill="#fff" stroke="#000" stroke-width="1.5" rx="3.25"/><path fill="#000" d="M245.466 247.2c-4.749 0-7.595-3.026-7.595-7.214 0-4.108 2.946-7.214 7.595-7.214 4.008 0 6.353 2.124 6.734 4.609h-2.205c-.401-1.784-2.204-2.766-4.368-2.766h-.321c-3.367 0-5.351 2.365-5.351 5.371 0 3.006 1.984 5.371 5.351 5.371h.321c2.164 0 3.947-.922 4.368-2.766h2.205c-.421 2.706-2.906 4.609-6.734 4.609Zm21.392-.2h-11.764v-14.028h2.065v12.184h9.699V247Zm4.372 0h-2.064v-14.028h2.064V247Z"/><rect width="160.5" height="160.5" x="175.25" y="390.75" fill="#fff" stroke="#000" stroke-width="1.5" rx="3.25"/><path fill="#000" d="M245.466 477.2c-4.749 0-7.595-3.026-7.595-7.214 0-4.108 2.946-7.214 7.595-7.214 4.008 0 6.353 2.124 6.734 4.609h-2.205c-.401-1.784-2.204-2.766-4.368-2.766h-.321c-3.367 0-5.351 2.365-5.351 5.371 0 3.006 1.984 5.371 5.351 5.371h.321c2.164 0 3.947-.922 4.368-2.766h2.205c-.421 2.706-2.906 4.609-6.734 4.609Zm21.392-.2h-11.764v-14.028h2.065v12.184h9.699V477Zm4.372 0h-2.064v-14.028h2.064V477Z"/><rect width="160.5" height="160.5" x="165.25" y="150.75" fill="#8AE1EF" stroke="#000" stroke-width="1.5" rx="3.25"/><path fill="#000" d="m294.223 230.444-15.49-26.391a2.146 2.146 0 0 0-1.852-1.053h-30.993c-.761 0-1.473.403-1.851 1.053l-13.311 22.681a.97.97 0 0 1-1.071.434.945.945 0 0 1-.705-.905v-8.776c0-7.984-6.605-14.481-14.722-14.481h-12.587c-1.178 0-2.141.942-2.141 2.106v12.381c0 5.773 3.495 10.938 8.91 13.155a.932.932 0 0 1 .586.861.931.931 0 0 1-.586.861c-5.415 2.199-8.91 7.358-8.91 13.137v12.381c0 1.158.957 2.106 2.141 2.106h12.587c8.117 0 14.722-6.497 14.722-14.481v-8.776c0-.421.29-.793.705-.905.403-.105.863.075 1.071.434l13.311 22.681a2.153 2.153 0 0 0 1.851 1.053h30.987c.762 0 1.473-.403 1.851-1.053l15.49-26.391a2.06 2.06 0 0 0 .284-1.047 2.028 2.028 0 0 0-.277-1.065Zm-32.605 12.121c-6.045 0-10.963-4.967-10.963-11.068s4.918-11.068 10.963-11.068c6.045 0 10.963 4.967 10.963 11.068s-4.918 11.068-10.963 11.068Z"/><path stroke="#000" stroke-width="1.5" d="M164.5 230c-17.949 0-32.5 14.551-32.5 32.5v165c0 17.949 14.551 32.5 32.5 32.5m172 0c17.949 0 32.5-14.551 32.5-32.5v-165c0-17.949-14.551-32.5-32.5-32.5"/><rect width="160.5" height="160.5" x="165.25" y="380.75" fill="#8AE1EF" stroke="#000" stroke-width="1.5" rx="3.25"/><path stroke="#000" stroke-width="4.468" d="M209.5 446.87V429h26.806m44.676 17.87V429h-26.806M209.5 473.676v17.87h26.806m44.676-17.87v17.87h-26.806m-17.87-46.91v29.04h20.104"/></svg>