<svg width="510" height="712" viewBox="0 0 510 712" fill="none" xmlns="http://www.w3.org/2000/svg">
<rect x="10.75" y="10.75" width="498.5" height="700.5" rx="7.25" fill="white" stroke="black" stroke-width="1.5"/>
<rect x="0.75" y="0.75" width="498.5" height="700.5" rx="7.25" fill="#FFCD85" stroke="black" stroke-width="1.5"/>
<rect x="89.75" y="123.75" width="217.5" height="128.5" rx="3.25" fill="white" stroke="black" stroke-width="1.5"/>
<rect x="79.75" y="113.75" width="217.5" height="128.5" rx="3.25" fill="#FFCD85" stroke="black" stroke-width="1.5"/>
<path d="M110.632 210.245L115.081 203.972H117.546L111.634 212.088V218H109.57V212.088L103.658 203.972H106.143L110.632 210.245ZM122.166 218.2C118.799 218.2 116.474 216.156 116.474 212.99C116.474 209.824 118.799 207.78 122.166 207.78C125.512 207.78 127.857 209.824 127.857 212.99C127.857 216.156 125.512 218.2 122.166 218.2ZM122.025 216.557H122.306C124.33 216.557 125.873 215.214 125.873 212.99C125.873 210.766 124.33 209.423 122.306 209.423H122.025C119.981 209.423 118.458 210.766 118.458 212.99C118.458 215.214 119.981 216.557 122.025 216.557ZM134.413 218.2C131.688 218.2 130.245 216.637 130.245 214.232V207.98H132.209V213.772C132.209 215.575 132.95 216.557 134.654 216.557H134.934C136.658 216.557 138.201 215.275 138.201 213.13V207.98H140.165V218H138.201V216.176C137.579 217.299 136.357 218.2 134.413 218.2ZM145.304 218H143.34V207.98H145.204V210.084C145.725 208.681 146.587 207.98 148.39 207.98H149.933V209.864H148.25C146.366 209.864 145.304 210.926 145.304 212.97V218ZM170.544 218H168.26L166.616 214.413H158.64L156.997 218H154.773L161.326 203.972H164.011L170.544 218ZM162.628 205.736L159.482 212.569H165.775L162.628 205.736ZM176.999 218.2C173.292 218.2 171.428 216.056 171.428 212.99C171.428 210.064 173.472 207.78 176.999 207.78C179.745 207.78 181.689 209.122 181.989 211.287H179.985C179.745 210.104 178.622 209.423 177.139 209.423H176.859C174.534 209.423 173.412 211.106 173.412 212.99C173.412 214.874 174.534 216.557 176.859 216.557H177.139C178.622 216.557 179.725 215.756 179.985 214.693H181.989C181.689 216.717 179.745 218.2 176.999 218.2ZM189.368 218.2C185.66 218.2 183.796 216.056 183.796 212.99C183.796 210.064 185.841 207.78 189.368 207.78C192.113 207.78 194.057 209.122 194.358 211.287H192.354C192.113 210.104 190.991 209.423 189.508 209.423H189.227C186.903 209.423 185.78 211.106 185.78 212.99C185.78 214.874 186.903 216.557 189.227 216.557H189.508C190.991 216.557 192.093 215.756 192.354 214.693H194.358C194.057 216.717 192.113 218.2 189.368 218.2ZM201.836 218.2C198.47 218.2 196.145 216.156 196.145 212.99C196.145 209.824 198.47 207.78 201.836 207.78C205.183 207.78 207.528 209.824 207.528 212.99C207.528 216.156 205.183 218.2 201.836 218.2ZM201.696 216.557H201.977C204.001 216.557 205.544 215.214 205.544 212.99C205.544 210.766 204.001 209.423 201.977 209.423H201.696C199.652 209.423 198.129 210.766 198.129 212.99C198.129 215.214 199.652 216.557 201.696 216.557ZM214.084 218.2C211.358 218.2 209.916 216.637 209.916 214.232V207.98H211.879V213.772C211.879 215.575 212.621 216.557 214.324 216.557H214.605C216.328 216.557 217.871 215.275 217.871 213.13V207.98H219.835V218H217.871V216.176C217.25 217.299 216.028 218.2 214.084 218.2ZM224.975 218H223.011V207.98H224.975V209.643C225.696 208.581 226.919 207.78 228.822 207.78C231.568 207.78 233.111 209.523 233.111 211.908V218H231.147V212.389C231.147 210.625 230.366 209.423 228.622 209.423H228.341C226.598 209.423 224.975 210.826 224.975 212.95V218ZM242.999 218H239.572C238.169 218 237.367 217.198 237.367 215.796V209.663H234.782V207.98H237.367V204.734H239.331V207.98H242.558V209.663H239.331V215.455C239.331 216.056 239.532 216.257 240.133 216.257H242.999V218Z" fill="black"/>
<path d="M140.864 137.056C137.921 137.056 135.868 139.239 135.868 142.028C135.868 144.815 137.921 147 140.864 147C143.807 147 145.859 144.816 145.859 142.028C145.859 139.239 143.807 137.056 140.864 137.056ZM140.952 145.48C139.751 145.512 139.035 144.361 138.977 142.1C138.913 139.611 139.574 138.607 140.759 138.575C141.99 138.542 142.687 139.526 142.75 142C142.809 144.275 142.169 145.447 140.952 145.48Z" fill="#0D0C22"/>
<path d="M125.172 137.221H121.283C121.067 137.221 120.932 137.359 120.932 137.578V138.1C120.932 138.334 121.012 138.417 121.215 138.498L121.472 138.595C121.755 138.705 121.85 138.856 121.85 139.157V144.898C121.85 145.201 121.755 145.351 121.472 145.461L121.215 145.558C121.012 145.639 120.932 145.722 120.932 145.955V146.478C120.932 146.697 121.067 146.835 121.283 146.835H125.172C125.388 146.835 125.523 146.697 125.523 146.478V145.955C125.523 145.722 125.443 145.639 125.24 145.558L124.983 145.461C124.7 145.351 124.605 145.2 124.605 144.898V139.157C124.605 138.855 124.7 138.705 124.983 138.595L125.24 138.498C125.443 138.417 125.523 138.334 125.523 138.1V137.578C125.522 137.357 125.388 137.221 125.172 137.221Z" fill="#0D0C22"/>
<path d="M135.562 145.571L135.413 145.489C135.049 145.283 134.779 145.132 134.428 144.569L133.159 142.495C133.092 142.385 133.132 142.303 133.254 142.276C134.32 141.988 134.928 141.355 134.928 140.229C134.928 138.102 133.297 137.221 129.814 137.221L126.719 137.248C126.503 137.276 126.395 137.399 126.395 137.605V138.127C126.395 138.361 126.475 138.444 126.652 138.512L126.962 138.635C127.219 138.745 127.314 138.883 127.314 139.157V144.898C127.314 145.201 127.219 145.351 126.936 145.461L126.679 145.558C126.477 145.639 126.396 145.722 126.396 145.955V146.478C126.396 146.697 126.532 146.835 126.747 146.835H130.636C130.865 146.835 130.987 146.697 130.987 146.478V145.955C130.987 145.722 130.906 145.639 130.704 145.558L130.447 145.461C130.164 145.351 130.069 145.2 130.069 144.898V142.77C130.069 142.647 130.11 142.605 130.205 142.605C130.313 142.605 130.38 142.687 130.475 142.853L132.325 146.259C132.554 146.685 132.73 146.836 133.202 146.836H135.564C135.793 146.836 135.888 146.713 135.888 146.534V146.039C135.886 145.818 135.819 145.722 135.562 145.571ZM130.567 141.451H130.269C130.158 141.451 130.078 141.37 130.078 141.256V138.632C130.078 138.519 130.157 138.437 130.269 138.437H130.581C131.631 138.437 132.282 138.825 132.282 139.898C132.282 140.973 131.779 141.451 130.567 141.451Z" fill="#0D0C22"/>
<path d="M192.46 138.594L192.717 138.497C192.92 138.416 193 138.333 193 138.1V137.577C193 137.358 192.879 137.22 192.649 137.22H188.76C188.544 137.22 188.409 137.358 188.409 137.577V138.1C188.409 138.333 188.489 138.416 188.692 138.497L188.949 138.594C189.232 138.704 189.327 138.855 189.327 139.157V140.887C189.327 140.983 189.259 141.052 189.165 141.052H186.302C186.207 141.052 186.14 140.983 186.14 140.887V139.157C186.14 138.854 186.235 138.704 186.518 138.594L186.775 138.497C186.978 138.416 187.058 138.333 187.058 138.1V137.577C187.058 137.358 186.937 137.22 186.707 137.22H182.818C182.602 137.22 182.467 137.358 182.467 137.577V138.1C182.467 138.333 182.547 138.416 182.75 138.497L183.007 138.594C183.29 138.704 183.385 138.855 183.385 139.157V144.897C183.385 145.2 183.29 145.35 183.007 145.46L182.75 145.557C182.547 145.638 182.467 145.721 182.467 145.954V146.477C182.467 146.696 182.602 146.834 182.818 146.834H186.707C186.936 146.834 187.058 146.696 187.058 146.477V145.954C187.058 145.721 186.977 145.638 186.775 145.557L186.518 145.46C186.235 145.35 186.14 145.199 186.14 144.897V142.618C186.14 142.521 186.207 142.453 186.302 142.453H189.165C189.259 142.453 189.327 142.521 189.327 142.618V144.897C189.327 145.2 189.232 145.35 188.949 145.46L188.692 145.557C188.489 145.638 188.409 145.721 188.409 145.954V146.477C188.409 146.696 188.544 146.834 188.76 146.834H192.649C192.878 146.834 193 146.696 193 146.477V145.954C193 145.721 192.92 145.638 192.717 145.557L192.46 145.46C192.177 145.35 192.082 145.199 192.082 144.897V139.157C192.082 138.855 192.177 138.704 192.46 138.594Z" fill="#0D0C22"/>
<path d="M178.962 140.737L177.315 140.243C176.505 139.996 176.073 139.707 176.073 139.226C176.073 138.759 176.505 138.462 177.167 138.457C178.095 138.45 178.923 138.883 180.111 140.188C180.273 140.366 180.448 140.435 180.691 140.297L180.975 140.133C181.218 139.996 181.255 139.792 181.137 139.583L179.957 137.51C179.821 137.265 179.728 137.097 179.444 137.097H179.313C178.989 137.097 178.948 137.249 178.625 137.249C178.206 137.249 177.757 137.084 176.991 137.084C174.871 137.084 173.493 138.128 173.493 139.968C173.493 141.506 174.587 142.371 175.937 142.825L177.692 143.416C178.556 143.704 179.016 144.034 179.016 144.638C179.016 145.284 178.53 145.572 177.733 145.572C176.518 145.572 175.465 144.872 174.358 143.389C174.183 143.155 174.007 143.114 173.778 143.224L173.332 143.444C173.13 143.54 173.073 143.747 173.198 144.006L174.441 146.602C174.553 146.835 174.711 146.932 174.9 146.932H175.061C175.359 146.932 175.56 146.725 175.831 146.725C176.33 146.725 176.831 146.973 177.951 146.973C180.192 146.973 181.786 145.915 181.786 143.883C181.783 142 180.555 141.203 178.962 140.737Z" fill="#0D0C22"/>
<path d="M172.125 137.221H168.237C168.021 137.221 167.885 137.359 167.885 137.578V138.1C167.885 138.334 167.966 138.417 168.168 138.498L168.425 138.595C168.708 138.705 168.803 138.856 168.803 139.157V144.898C168.803 145.201 168.708 145.351 168.425 145.461L168.168 145.558C167.966 145.639 167.885 145.722 167.885 145.955V146.478C167.885 146.697 168.021 146.835 168.237 146.835H172.125C172.341 146.835 172.476 146.697 172.476 146.478V145.955C172.476 145.722 172.396 145.639 172.193 145.558L171.937 145.461C171.653 145.351 171.559 145.2 171.559 144.898V139.157C171.559 138.855 171.653 138.705 171.937 138.595L172.193 138.498C172.396 138.417 172.476 138.334 172.476 138.1V137.578C172.475 137.357 172.341 137.221 172.125 137.221Z" fill="#0D0C22"/>
<path d="M166.261 137.261C166.171 137.103 166.085 137 165.883 137H165.614C165.465 137 165.382 137.035 165.27 137.124C165.148 137.22 165.042 137.22 164.777 137.22H159.749C159.533 137.22 159.398 137.358 159.398 137.577V138.099C159.398 138.333 159.478 138.416 159.681 138.497L159.938 138.594C160.221 138.704 160.316 138.855 160.316 139.156V144.897C160.316 145.2 160.221 145.35 159.938 145.46L159.681 145.556C159.478 145.638 159.398 145.721 159.398 145.954V146.477C159.398 146.696 159.533 146.834 159.749 146.834H163.827C164.056 146.834 164.178 146.696 164.178 146.477V145.954C164.178 145.721 164.111 145.611 163.895 145.556L163.45 145.433C163.153 145.351 163.072 145.2 163.072 144.897V142.48C163.072 142.383 163.139 142.315 163.234 142.315H163.463C164.517 142.315 165.164 142.864 165.826 143.648C165.92 143.758 166.042 143.799 166.204 143.716L166.541 143.538C166.689 143.456 166.744 143.323 166.676 143.18L165.63 140.996C165.57 140.87 165.496 140.796 165.341 140.796H165.175C165.061 140.796 164.988 140.827 164.884 140.912C164.792 140.986 164.678 141.038 164.533 141.038H163.234C163.139 141.038 163.072 140.97 163.072 140.874V139.116C163.072 138.622 163.262 138.429 163.774 138.429C164.652 138.429 165.853 139.212 166.555 139.926C166.676 140.05 166.825 140.078 166.987 139.981L167.352 139.748C167.473 139.666 167.555 139.536 167.473 139.391L166.261 137.261Z" fill="#0D0C22"/>
<path d="M155.709 145.681L155.398 145.571C155.115 145.475 155.02 145.31 155.02 145.008V139.034C155.02 138.732 155.115 138.58 155.398 138.471L155.655 138.375C155.858 138.293 155.938 138.21 155.938 137.977V137.579C155.938 137.36 155.817 137.222 155.587 137.222H152.994C152.778 137.222 152.643 137.36 152.643 137.579V137.977C152.643 138.21 152.724 138.293 152.926 138.375L153.183 138.471C153.466 138.581 153.561 138.733 153.561 139.034V142.399C153.561 142.456 153.516 142.501 153.46 142.501C153.428 142.501 153.401 142.487 153.382 142.464L149.936 137.551C149.851 137.419 149.763 137.33 149.673 137.287C149.584 137.243 149.459 137.222 149.303 137.222H146.73C146.514 137.222 146.379 137.36 146.379 137.579V138.101C146.379 138.335 146.46 138.418 146.662 138.499L146.919 138.596C147.202 138.706 147.297 138.857 147.297 139.158V145.022C147.297 145.324 147.202 145.475 146.919 145.584L146.662 145.681C146.459 145.763 146.379 145.846 146.379 146.079V146.477C146.379 146.696 146.514 146.834 146.73 146.834H149.323C149.552 146.834 149.674 146.696 149.674 146.477V146.079C149.674 145.846 149.594 145.763 149.391 145.681L149.134 145.584C148.851 145.475 148.757 145.323 148.757 145.022V141.235C148.757 141.178 148.801 141.133 148.857 141.133C148.889 141.133 148.916 141.147 148.935 141.17L152.751 146.505C152.836 146.637 152.924 146.725 153.014 146.769C153.103 146.812 153.228 146.834 153.384 146.834H155.641C155.87 146.834 155.992 146.696 155.992 146.477V146.079C155.992 145.846 155.912 145.749 155.709 145.681Z" fill="#0D0C22"/>
<path d="M118.324 141.891L115.818 137.475C115.757 137.366 115.642 137.299 115.519 137.299H110.505C110.381 137.299 110.266 137.366 110.205 137.475L108.052 141.27C108.018 141.33 107.944 141.361 107.878 141.342C107.811 141.324 107.764 141.262 107.764 141.191V139.723C107.764 138.387 106.696 137.3 105.383 137.3H103.346C103.156 137.3 103 137.457 103 137.652V139.724C103 140.69 103.565 141.554 104.441 141.925C104.498 141.949 104.536 142.006 104.536 142.069C104.536 142.132 104.498 142.189 104.441 142.213C103.565 142.581 103 143.444 103 144.411V146.482C103 146.676 103.155 146.835 103.346 146.835H105.383C106.696 146.835 107.764 145.748 107.764 144.412V142.943C107.764 142.873 107.811 142.811 107.878 142.792C107.944 142.774 108.018 142.805 108.052 142.865L110.205 146.659C110.267 146.768 110.381 146.836 110.505 146.836H115.518C115.641 146.836 115.756 146.768 115.817 146.659L118.323 142.244C118.354 142.19 118.369 142.13 118.369 142.069C118.37 142.006 118.355 141.944 118.324 141.891ZM113.049 143.919C112.071 143.919 111.276 143.087 111.276 142.067C111.276 141.046 112.071 140.215 113.049 140.215C114.027 140.215 114.823 141.046 114.823 142.067C114.823 143.087 114.027 143.919 113.049 143.919Z" fill="#0D0C22"/>
<rect x="89.75" y="407.75" width="122.5" height="68.5" rx="3.25" fill="white" stroke="black" stroke-width="1.5"/>
<rect x="79.75" y="397.75" width="122.5" height="68.5" rx="3.25" fill="#FFCD85" stroke="black" stroke-width="1.5"/>
<rect x="89.75" y="295.75" width="122.5" height="68.5" rx="3.25" fill="#FFCD85" stroke="black" stroke-width="1.5"/>
<rect x="79.75" y="285.75" width="122.5" height="68.5" rx="3.25" fill="#FFCD85" stroke="black" stroke-width="1.5"/>
<path d="M145.691 321.216L144.453 319.978C144.941 318.647 144.688 317.541 143.694 316.659C142.7 315.778 141.622 315.553 140.459 315.984L139.222 314.747C139.541 314.541 139.897 314.391 140.291 314.297C140.684 314.203 141.088 314.156 141.5 314.156C142.831 314.156 143.961 314.62 144.889 315.548C145.817 316.477 146.281 317.606 146.281 318.938C146.281 319.35 146.23 319.758 146.127 320.161C146.023 320.564 145.878 320.916 145.691 321.216ZM149.319 324.844L148.194 323.719C149.113 323.044 149.914 322.289 150.598 321.455C151.283 320.62 151.784 319.781 152.103 318.938C151.166 316.856 149.759 315.211 147.884 314.002C146.009 312.792 143.975 312.188 141.781 312.188C140.994 312.188 140.188 312.263 139.363 312.413C138.538 312.563 137.891 312.741 137.422 312.947L136.128 311.625C136.784 311.325 137.623 311.062 138.645 310.838C139.667 310.613 140.666 310.5 141.641 310.5C144.322 310.5 146.773 311.264 148.995 312.792C151.217 314.32 152.844 316.369 153.875 318.938C153.388 320.138 152.759 321.234 151.991 322.228C151.222 323.222 150.331 324.094 149.319 324.844ZM150.95 331.2L146.225 326.559C145.569 326.822 144.828 327.023 144.003 327.164C143.178 327.305 142.344 327.375 141.5 327.375C138.763 327.375 136.278 326.611 134.047 325.083C131.816 323.555 130.175 321.506 129.125 318.938C129.5 317.963 130.02 317.011 130.686 316.083C131.352 315.155 132.163 314.269 133.119 313.425L129.575 309.881L130.756 308.672L152.047 329.963L150.95 331.2ZM134.272 314.606C133.578 315.113 132.908 315.778 132.261 316.603C131.614 317.428 131.15 318.206 130.869 318.938C131.825 321.019 133.264 322.664 135.186 323.873C137.108 325.083 139.288 325.688 141.725 325.688C142.344 325.688 142.953 325.65 143.553 325.575C144.153 325.5 144.603 325.388 144.903 325.238L143.103 323.438C142.897 323.531 142.644 323.602 142.344 323.648C142.044 323.695 141.763 323.719 141.5 323.719C140.188 323.719 139.063 323.259 138.125 322.341C137.188 321.422 136.719 320.288 136.719 318.938C136.719 318.656 136.742 318.375 136.789 318.094C136.836 317.812 136.906 317.559 137 317.334L134.272 314.606Z" fill="black"/>
<rect x="89.75" y="519.75" width="122.5" height="68.5" rx="3.25" fill="#FFCD85" stroke="black" stroke-width="1.5"/>
<rect x="79.75" y="509.75" width="122.5" height="68.5" rx="3.25" fill="#FFCD85" stroke="black" stroke-width="1.5"/>
<path d="M145.691 545.216L144.453 543.978C144.941 542.647 144.688 541.541 143.694 540.659C142.7 539.778 141.622 539.553 140.459 539.984L139.222 538.747C139.541 538.541 139.897 538.391 140.291 538.297C140.684 538.203 141.088 538.156 141.5 538.156C142.831 538.156 143.961 538.62 144.889 539.548C145.817 540.477 146.281 541.606 146.281 542.938C146.281 543.35 146.23 543.758 146.127 544.161C146.023 544.564 145.878 544.916 145.691 545.216ZM149.319 548.844L148.194 547.719C149.113 547.044 149.914 546.289 150.598 545.455C151.283 544.62 151.784 543.781 152.103 542.938C151.166 540.856 149.759 539.211 147.884 538.002C146.009 536.792 143.975 536.188 141.781 536.188C140.994 536.188 140.188 536.263 139.363 536.413C138.538 536.563 137.891 536.741 137.422 536.947L136.128 535.625C136.784 535.325 137.623 535.062 138.645 534.838C139.667 534.613 140.666 534.5 141.641 534.5C144.322 534.5 146.773 535.264 148.995 536.792C151.217 538.32 152.844 540.369 153.875 542.938C153.388 544.138 152.759 545.234 151.991 546.228C151.222 547.222 150.331 548.094 149.319 548.844ZM150.95 555.2L146.225 550.559C145.569 550.822 144.828 551.023 144.003 551.164C143.178 551.305 142.344 551.375 141.5 551.375C138.763 551.375 136.278 550.611 134.047 549.083C131.816 547.555 130.175 545.506 129.125 542.938C129.5 541.963 130.02 541.011 130.686 540.083C131.352 539.155 132.163 538.269 133.119 537.425L129.575 533.881L130.756 532.672L152.047 553.963L150.95 555.2ZM134.272 538.606C133.578 539.113 132.908 539.778 132.261 540.603C131.614 541.428 131.15 542.206 130.869 542.938C131.825 545.019 133.264 546.664 135.186 547.873C137.108 549.083 139.288 549.688 141.725 549.688C142.344 549.688 142.953 549.65 143.553 549.575C144.153 549.5 144.603 549.388 144.903 549.238L143.103 547.438C142.897 547.531 142.644 547.602 142.344 547.648C142.044 547.695 141.763 547.719 141.5 547.719C140.188 547.719 139.063 547.259 138.125 546.341C137.188 545.422 136.719 544.288 136.719 542.938C136.719 542.656 136.742 542.375 136.789 542.094C136.836 541.812 136.906 541.559 137 541.334L134.272 538.606Z" fill="black"/>
<path d="M101.181 427H99.6323V417.856H95.2707V416.472H105.543V417.856H101.181V427ZM106.959 427H105.485V419.48H106.884V421.059C107.275 420.006 107.922 419.48 109.275 419.48H110.434V420.894H109.17C107.756 420.894 106.959 421.691 106.959 423.225V427ZM114.208 427.15C112.283 427.15 111.23 426.218 111.23 424.924C111.23 423.315 112.538 422.668 114.208 422.563L117.065 422.383V422.157C117.065 421.074 116.298 420.563 115.035 420.563H114.794C113.802 420.563 113.05 420.954 112.944 421.661H111.44C111.591 420.322 112.959 419.33 114.915 419.33C117.276 419.33 118.539 420.518 118.539 422.187V425.346C118.539 425.797 118.584 426.474 118.645 427H117.246C117.171 426.624 117.141 425.887 117.141 425.812C116.795 426.489 115.697 427.15 114.208 427.15ZM114.358 425.917H114.569C115.757 425.917 117.065 425.376 117.065 424.142V423.526L114.689 423.661C113.23 423.751 112.719 424.172 112.719 424.849C112.719 425.481 113.185 425.917 114.358 425.917ZM122.308 427H120.834V419.48H122.308V420.728C122.849 419.931 123.767 419.33 125.195 419.33C127.256 419.33 128.414 420.638 128.414 422.428V427H126.94V422.789C126.94 421.465 126.353 420.563 125.045 420.563H124.834C123.526 420.563 122.308 421.616 122.308 423.21V427ZM133.697 427.15C131.411 427.15 130.162 426.188 130.072 424.669H131.576C131.651 425.526 132.539 425.917 133.591 425.917H133.802C134.96 425.917 135.682 425.646 135.682 424.985C135.682 424.518 135.351 424.233 134.208 424.007L132.96 423.766C131.396 423.466 130.433 422.924 130.433 421.631C130.433 420.142 131.892 419.33 133.697 419.33C136.043 419.33 137.201 420.307 137.321 421.811H135.817C135.742 421.119 135.065 420.563 133.802 420.563H133.591C132.509 420.563 131.922 420.954 131.922 421.51C131.922 421.947 132.193 422.187 133.411 422.428L134.584 422.653C136.163 422.954 137.171 423.556 137.171 424.894C137.171 426.248 135.863 427.15 133.697 427.15ZM141.571 427.15C139.645 427.15 138.593 426.218 138.593 424.924C138.593 423.315 139.901 422.668 141.571 422.563L144.428 422.383V422.157C144.428 421.074 143.661 420.563 142.398 420.563H142.157C141.164 420.563 140.412 420.954 140.307 421.661H138.803C138.954 420.322 140.322 419.33 142.277 419.33C144.639 419.33 145.902 420.518 145.902 422.187V425.346C145.902 425.797 145.947 426.474 146.007 427H144.609C144.533 426.624 144.503 425.887 144.503 425.812C144.157 426.489 143.059 427.15 141.571 427.15ZM141.721 425.917H141.931C143.12 425.917 144.428 425.376 144.428 424.142V423.526L142.052 423.661C140.593 423.751 140.082 424.172 140.082 424.849C140.082 425.481 140.548 425.917 141.721 425.917ZM151.896 427.15C149.114 427.15 147.715 425.541 147.715 423.24C147.715 421.044 149.249 419.33 151.896 419.33C153.957 419.33 155.416 420.337 155.641 421.962H154.137C153.957 421.074 153.115 420.563 152.002 420.563H151.791C150.047 420.563 149.204 421.826 149.204 423.24C149.204 424.654 150.047 425.917 151.791 425.917H152.002C153.115 425.917 153.942 425.316 154.137 424.518H155.641C155.416 426.037 153.957 427.15 151.896 427.15ZM162.625 427H160.053C159 427 158.398 426.398 158.398 425.346V420.743H156.458V419.48H158.398V417.044H159.872V419.48H162.294V420.743H159.872V425.09C159.872 425.541 160.023 425.692 160.474 425.692H162.625V427ZM165.8 418.156H164.145V416.472H165.8V418.156ZM165.71 427H164.236V419.48H165.71V427ZM171.873 427.15C169.346 427.15 167.602 425.616 167.602 423.24C167.602 420.864 169.346 419.33 171.873 419.33C174.385 419.33 176.145 420.864 176.145 423.24C176.145 425.616 174.385 427.15 171.873 427.15ZM171.768 425.917H171.978C173.498 425.917 174.656 424.909 174.656 423.24C174.656 421.571 173.498 420.563 171.978 420.563H171.768C170.234 420.563 169.091 421.571 169.091 423.24C169.091 424.909 170.234 425.917 171.768 425.917ZM179.501 427H178.027V419.48H179.501V420.728C180.042 419.931 180.96 419.33 182.389 419.33C184.449 419.33 185.607 420.638 185.607 422.428V427H184.133V422.789C184.133 421.465 183.547 420.563 182.238 420.563H182.028C180.719 420.563 179.501 421.616 179.501 423.21V427ZM98.008 446H96.4589V435.472H102.174C104.189 435.472 105.618 436.69 105.618 438.345C105.618 439.698 104.791 440.616 103.934 440.916C105.032 440.916 105.408 441.413 105.408 442.466V446H103.859V442.842C103.859 442.014 103.618 441.789 102.791 441.789H98.008V446ZM98.008 436.856V440.405H101.948C103.272 440.405 104.054 439.653 104.054 438.6C104.054 437.472 103.272 436.856 101.948 436.856H98.008ZM115.279 441.924V442.496H108.902C109.037 444.135 110.196 444.917 111.444 444.917H111.654C112.692 444.917 113.429 444.496 113.685 443.774H115.189C114.918 445.248 113.459 446.15 111.564 446.15C109.218 446.15 107.398 444.812 107.398 442.18C107.398 439.638 109.459 438.33 111.489 438.33C113.865 438.33 115.279 439.804 115.279 441.924ZM108.977 441.338H113.715C113.64 440.044 112.692 439.563 111.594 439.563H111.384C110.075 439.563 109.248 440.24 108.977 441.338ZM120.891 446.15C118.109 446.15 116.71 444.541 116.71 442.24C116.71 440.044 118.244 438.33 120.891 438.33C122.952 438.33 124.41 439.337 124.636 440.962H123.132C122.952 440.074 122.109 439.563 120.996 439.563H120.786C119.041 439.563 118.199 440.826 118.199 442.24C118.199 443.654 119.041 444.917 120.786 444.917H120.996C122.109 444.917 122.937 444.316 123.132 443.518H124.636C124.41 445.037 122.952 446.15 120.891 446.15ZM130.249 446.15C127.722 446.15 125.977 444.616 125.977 442.24C125.977 439.864 127.722 438.33 130.249 438.33C132.761 438.33 134.52 439.864 134.52 442.24C134.52 444.616 132.761 446.15 130.249 446.15ZM130.144 444.917H130.354C131.873 444.917 133.031 443.909 133.031 442.24C133.031 440.571 131.873 439.563 130.354 439.563H130.144C128.609 439.563 127.466 440.571 127.466 442.24C127.466 443.909 128.609 444.917 130.144 444.917ZM137.876 446H136.403V438.48H137.801V440.059C138.192 439.006 138.839 438.48 140.193 438.48H141.351V439.894H140.087C138.674 439.894 137.876 440.691 137.876 442.225V446ZM146.254 446.15C143.848 446.15 142.163 444.676 142.163 442.24C142.163 439.668 143.863 438.33 146.224 438.33C147.503 438.33 148.646 438.901 149.127 439.623V435.472H150.601V446H149.127V444.902C148.54 445.669 147.337 446.15 146.254 446.15ZM146.224 444.917H146.435C147.954 444.917 149.127 443.97 149.127 442.24C149.127 440.51 147.954 439.563 146.435 439.563H146.224C144.72 439.563 143.652 440.51 143.652 442.24C143.652 443.97 144.72 444.917 146.224 444.917ZM155.963 446.15C153.677 446.15 152.429 445.188 152.338 443.669H153.842C153.918 444.526 154.805 444.917 155.858 444.917H156.068C157.226 444.917 157.948 444.646 157.948 443.985C157.948 443.518 157.617 443.233 156.474 443.007L155.226 442.766C153.662 442.466 152.699 441.924 152.699 440.631C152.699 439.142 154.158 438.33 155.963 438.33C158.309 438.33 159.467 439.307 159.588 440.811H158.084C158.008 440.119 157.332 439.563 156.068 439.563H155.858C154.775 439.563 154.188 439.954 154.188 440.51C154.188 440.947 154.459 441.187 155.677 441.428L156.85 441.653C158.43 441.954 159.437 442.556 159.437 443.894C159.437 445.248 158.129 446.15 155.963 446.15Z" fill="black"/>
<path d="M79 319L71.5 314.67V323.33L79 319ZM80 176.25H69.5V177.75H80V176.25ZM58.75 187V309H60.25V187H58.75ZM69.5 319.75H72.25V318.25H69.5V319.75ZM58.75 309C58.75 314.937 63.5629 319.75 69.5 319.75V318.25C64.3914 318.25 60.25 314.109 60.25 309H58.75ZM69.5 176.25C63.5629 176.25 58.75 181.063 58.75 187H60.25C60.25 181.891 64.3914 177.75 69.5 177.75V176.25Z" fill="black"/>
<path d="M79 431L71.5 426.67V435.33L79 431ZM58.75 289V421H60.25V289H58.75ZM69.5 431.75H72.25V430.25H69.5V431.75ZM58.75 421C58.75 426.937 63.5629 431.75 69.5 431.75V430.25C64.3914 430.25 60.25 426.109 60.25 421H58.75Z" fill="black"/>
<path d="M79 543L71.5 538.67V547.33L79 543ZM58.75 401V533H60.25V401H58.75ZM69.5 543.75H72.25V542.25H69.5V543.75ZM58.75 533C58.75 538.937 63.5629 543.75 69.5 543.75V542.25C64.3914 542.25 60.25 538.109 60.25 533H58.75Z" fill="black"/>
<path d="M213 431.5H317.5" stroke="black" stroke-width="1.5"/>
<circle cx="265" cy="432" r="15.25" fill="white" stroke="black" stroke-width="1.5"/>
<path d="M259.739 433.058C259.293 433.058 258.91 432.906 258.591 432.6C258.272 432.294 258.113 431.928 258.113 431.5C258.113 431.072 258.272 430.706 258.591 430.4C258.91 430.094 259.293 429.942 259.739 429.942C260.186 429.942 260.568 430.094 260.887 430.4C261.206 430.706 261.365 431.072 261.365 431.5C261.365 431.928 261.206 432.294 260.887 432.6C260.568 432.906 260.186 433.058 259.739 433.058ZM259.739 437C258.145 437 256.79 436.465 255.674 435.396C254.558 434.326 254 433.028 254 431.5C254 429.972 254.558 428.674 255.674 427.604C256.79 426.535 258.145 426 259.739 426C260.887 426 261.891 426.26 262.752 426.779C263.613 427.299 264.291 428.085 264.785 429.14H273.298L276 431.729L272.007 435.235L269.902 433.769L267.798 435.235L266.004 433.86H264.785C264.386 434.777 263.761 435.53 262.908 436.118C262.055 436.706 260.999 437 259.739 437ZM259.739 435.625C260.664 435.625 261.517 435.331 262.298 434.743C263.079 434.155 263.581 433.402 263.804 432.485H266.53L267.822 433.517L269.926 432.073L271.887 433.494L273.92 431.683L272.7 430.515H263.804C263.613 429.659 263.135 428.922 262.37 428.303C261.604 427.684 260.728 427.375 259.739 427.375C258.543 427.375 257.527 427.776 256.69 428.578C255.853 429.38 255.435 430.354 255.435 431.5C255.435 432.646 255.853 433.62 256.69 434.422C257.527 435.224 258.543 435.625 259.739 435.625Z" fill="black"/>
<rect x="327.75" y="416.75" width="111.5" height="49.5" rx="3.25" fill="white" stroke="black" stroke-width="1.5"/>
<rect x="317.75" y="406.75" width="111.5" height="49.5" rx="3.25" fill="#FFCD85" stroke="black" stroke-width="1.5"/>
<path d="M339.046 434.692L343.272 425.472H344.987L340.069 436H337.978L333.045 425.472H334.79L339.046 434.692ZM347.811 427.156H346.157V425.472H347.811V427.156ZM347.721 436H346.247V428.48H347.721V436ZM357.509 431.924V432.496H351.132C351.267 434.135 352.426 434.917 353.674 434.917H353.884C354.922 434.917 355.659 434.496 355.915 433.774H357.419C357.148 435.248 355.689 436.15 353.794 436.15C351.448 436.15 349.628 434.812 349.628 432.18C349.628 429.638 351.689 428.33 353.719 428.33C356.095 428.33 357.509 429.804 357.509 431.924ZM351.207 431.338H355.945C355.87 430.044 354.922 429.563 353.824 429.563H353.614C352.305 429.563 351.478 430.24 351.207 431.338ZM367.665 434.496L369.636 428.48H371.185L368.447 436H366.778L364.778 430.21L362.762 436H361.108L358.371 428.48H359.92L361.965 434.376L363.965 428.48H365.575L367.665 434.496ZM387.032 436H384.927L380.339 430.947L378.264 432.721V436H376.715V425.472H378.264V430.826L384.521 425.472H386.792L381.528 429.954L387.032 436ZM395.006 431.924V432.496H388.629C388.765 434.135 389.923 434.917 391.171 434.917H391.382C392.419 434.917 393.156 434.496 393.412 433.774H394.916C394.645 435.248 393.186 436.15 391.291 436.15C388.945 436.15 387.125 434.812 387.125 432.18C387.125 429.638 389.186 428.33 391.216 428.33C393.593 428.33 395.006 429.804 395.006 431.924ZM388.705 431.338H393.442C393.367 430.044 392.419 429.563 391.321 429.563H391.111C389.802 429.563 388.975 430.24 388.705 431.338ZM399.435 438.782H396.307V437.474H398.954C399.405 437.474 399.555 437.324 399.555 436.872V435.684L395.795 428.48H397.465L400.337 434.045L403.015 428.48H404.684L401.029 435.624V437.203C401.029 438.256 400.488 438.782 399.435 438.782ZM408.783 436.15C406.497 436.15 405.248 435.188 405.158 433.669H406.662C406.737 434.526 407.625 434.917 408.677 434.917H408.888C410.046 434.917 410.768 434.646 410.768 433.985C410.768 433.518 410.437 433.233 409.294 433.007L408.046 432.766C406.482 432.466 405.519 431.924 405.519 430.631C405.519 429.142 406.978 428.33 408.783 428.33C411.129 428.33 412.287 429.307 412.407 430.811H410.903C410.828 430.119 410.151 429.563 408.888 429.563H408.677C407.595 429.563 407.008 429.954 407.008 430.51C407.008 430.947 407.279 431.187 408.497 431.428L409.67 431.653C411.249 431.954 412.257 432.556 412.257 433.894C412.257 435.248 410.948 436.15 408.783 436.15Z" fill="black"/>
</svg>
