<svg width="191" height="208" viewBox="0 0 191 208" fill="none" xmlns="http://www.w3.org/2000/svg">
<g clip-path="url(#clip0_1453_4902)">
<path d="M90.774 40.1575C93.4297 37.009 96.6458 34.3928 99.7155 31.6768C102.413 29.5764 104.91 27.2056 107.758 25.3007C108.331 24.9555 108.9 24.5978 109.473 24.2401C109.585 24.0654 109.744 23.8949 109.828 23.7368C110.397 22.8675 109.615 21.8402 108.858 21.391C108.281 21.0999 107.632 21.0042 106.993 21.0333C106.528 21.0957 106.056 21.208 105.65 21.4409C105.591 21.4659 105.533 21.4783 105.474 21.4825C102.292 23.3916 99.5064 26.2157 96.7629 28.5033C92.4051 32.2508 87.3739 36.0274 81.5732 36.7844C81.5356 36.9009 81.4478 37.009 81.3014 37.0797C80.6322 37.4124 80.1638 38.1861 79.8251 38.8099C79.7456 39.0013 79.6787 39.2467 79.5574 39.4255C79.5114 39.9912 79.5993 40.5776 79.8376 41.1059C80.3939 41.9543 81.3516 42.4327 82.2884 42.7488C85.2619 43.435 88.1393 41.7131 90.6444 40.3156C90.6862 40.2657 90.7322 40.2116 90.774 40.1575ZM103.751 25.1593C104.036 25.1593 104.27 25.4047 104.266 25.6875C104.266 25.9745 104.019 26.1991 103.735 26.1991C103.45 26.1991 103.216 25.9537 103.22 25.6709C103.22 25.3839 103.467 25.1593 103.751 25.1593Z" fill="#FFD8A0"/>
<path d="M97.679 77.6407C98.0429 79.2711 98.8918 80.7019 99.7617 82.1077C100.924 84.3038 102.409 86.4084 104.437 87.8849C106.328 89.4529 108.753 90.4512 111.217 90.5635C112.764 90.6924 114.282 90.8297 115.834 90.7007C118.36 90.7714 120.597 90.2307 123.031 89.7482C125.474 89.5902 127.757 88.8041 129.986 87.8641C134.386 86.1796 138.418 83.9128 142.056 80.9556C144.574 79.1172 147.121 77.1499 149.216 74.8415C153.979 69.7464 157.593 64.4101 159.245 57.5598C161.34 50.8842 160.968 43.8218 156.882 37.9739C155.761 36.41 154.678 34.7421 153.256 33.4361C151.759 32.2092 150.387 30.8075 148.722 29.8093C146.606 28.5282 144.143 28.0291 141.776 27.4135C137.552 26.7356 133.303 28.1206 129.376 29.489C127.51 30.1337 125.762 30.978 124.081 31.9554C115.524 36.1979 108.243 42.8277 102.852 50.6471C99.0382 56.2829 95.8974 62.8836 96.1483 69.8046C96.3909 72.4666 96.6795 75.1659 97.6874 77.6323L97.679 77.6407ZM122.994 62.8628C124.215 58.9407 126.16 55.3263 128.853 52.211C130.71 49.9775 132.742 47.7856 135.009 45.9139C135.043 46.0553 135.08 46.1926 135.13 46.3257C135.214 46.5627 135.327 46.7873 135.465 46.9953C135.607 47.3031 135.783 47.5901 136 47.8563C136.293 48.2098 136.649 48.5717 137.075 48.763C137.514 48.9585 137.991 49.0458 138.468 49.0624C138.556 49.0666 138.643 49.0708 138.731 49.0708C138.991 49.0708 139.25 49.0541 139.509 49.0167C140.387 48.8878 141.174 48.4302 141.717 47.7315C142.269 47.0286 142.445 46.0969 142.382 45.2235C142.353 44.8159 142.286 44.4166 142.127 44.0339C141.956 43.6138 141.68 43.2728 141.353 42.965C141.107 42.7321 140.81 42.5241 140.5 42.3827C140.496 42.3827 140.492 42.3827 140.488 42.3785C141.303 41.9959 142.144 41.659 143.014 41.3845C143.767 40.927 144.745 40.7647 145.623 40.64C146.945 40.64 148.225 41.1391 149.421 41.6631C153.026 43.0898 155.13 47.0618 155.017 50.8218C154.799 57.5848 151.663 64.0565 147.33 69.1683C145.992 70.3661 144.716 71.5682 143.29 72.6454C140.128 74.8706 136.306 76.5052 132.387 76.5052C132.337 76.5052 132.291 76.5052 132.241 76.5052C128.401 76.264 123.83 74.8124 122.145 71.0649C121.183 68.3822 122.049 65.4374 122.99 62.867L122.994 62.8628Z" fill="#FFD8A0"/>
<path d="M90.6374 40.324C90.6374 40.324 90.6241 40.3328 90.6152 40.3417C90.6241 40.3373 90.6286 40.3328 90.6374 40.3284V40.324Z" fill="#F1BC6F"/>
<path d="M96.5456 27.3262C100.41 23.9655 104.266 20.114 109.326 18.6625C110.347 18.4295 111.468 18.1592 112.467 18.6125C112.647 18.6957 112.823 18.7914 112.994 18.8954C113.082 18.8704 113.178 18.8663 113.27 18.8954C115.533 19.3487 117.866 18.4379 119.819 17.3481C121.292 16.3915 122.283 14.7819 122.906 13.2014C123.094 12.669 123.253 12.12 123.32 11.5543C122.425 10.997 121.484 10.5145 120.509 10.1485C118.983 9.61608 117.436 8.96724 115.784 9.05874C112.459 9.25007 109.251 10.606 106.482 12.3612C101.1 15.5805 97.0014 20.4052 91.7235 23.7534C88.2732 26.2073 84.3294 28.524 79.9632 28.4117C79.1017 28.4117 78.2235 28.3826 77.3536 28.2911C77.2992 28.2994 77.249 28.3036 77.1946 28.2953C76.8559 28.445 76.538 28.6239 76.2202 28.8069C71.1096 31.5187 75.5594 36.202 79.7876 35.8818C86.362 35.6987 91.7862 31.4022 96.5414 27.3179L96.5456 27.3262ZM82.7109 32.729C84.1245 32.3672 85.5757 31.9263 86.8011 31.1485C87.1566 30.899 87.6501 30.4123 88.0307 30.8948C88.2021 31.1194 88.1561 31.4563 87.9261 31.6227C86.822 32.5003 85.4963 32.9828 84.1663 33.407C83.5515 33.5651 81.3643 34.3927 81.2388 33.432C81.2053 32.65 82.2049 32.8829 82.7109 32.729ZM78.763 33.8437C78.4786 33.8437 78.2444 33.5983 78.2485 33.3155C78.2485 33.0285 78.4953 32.8039 78.7797 32.8039C79.0641 32.8039 79.2983 33.0493 79.2941 33.3321C79.2941 33.6191 79.0473 33.8437 78.763 33.8437Z" fill="#FFD8A0"/>
<path d="M105.985 146.896C109.481 137.588 113.989 128.7 119.318 120.298C120.162 118.975 121.011 117.653 121.877 116.338C121.894 116.272 121.915 116.214 121.936 116.151C121.965 115.96 121.998 115.764 122.028 115.573C122.308 112.99 121.342 110.511 120.016 108.361C118.456 105.716 115.892 103.831 112.931 103.058C110.878 102.571 108.833 102.064 106.859 101.328C105.91 101.095 104.981 100.799 104.065 100.437C103.321 100.163 102.2 99.8552 102.267 98.8778C102.292 98.3287 102.877 98.2456 103.162 98.5159C103.442 98.6157 103.726 98.8736 103.973 98.9984C104.981 99.5724 106.073 99.9051 107.147 100.313C107.193 100.329 107.235 100.35 107.281 100.363C108.728 100.704 110.209 100.912 111.689 101.061C114.404 101.456 117.151 101.644 119.891 101.456C121.325 101.39 122.768 101.444 124.194 101.265C126.339 100.924 128.439 100.313 130.559 99.8469C135.958 98.6532 141.036 96.3281 145.87 93.7286C147.819 92.6888 149.555 91.3162 151.332 90.0186C154.205 88.0887 156.71 85.564 158.96 82.9811C162.147 79.4249 164.397 75.2033 166.869 71.1605C169.755 66.4023 171.599 61.0993 173.105 55.7879C174.414 51.1545 174.602 46.2757 174.501 41.4884C174.213 38.5062 173.008 35.7112 171.578 33.1158C170.131 30.6785 168.157 28.6238 166.045 26.7355C163.958 24.8847 161.461 23.5745 159.098 22.1105C153.578 19.7813 147.882 17.4895 141.906 16.8116C138.405 16.7492 134.863 16.8116 131.421 17.5062C128.159 18.0718 124.897 18.5959 121.752 19.6399C119.242 20.7379 116.679 21.7694 114.132 22.7593C110.589 24.6767 107.089 26.748 104.111 29.4723C98.8835 33.7189 93.5512 37.9697 89.5196 43.3975C87.5498 45.918 85.8602 48.6215 84.3086 51.4165C82.6984 53.9703 81.3141 56.6447 80.0135 59.3607C76.4795 66.419 73.7528 73.993 72.8536 81.854C72.0046 88.3507 72.4354 94.889 73.0502 101.382C73.3387 103.669 73.4349 105.973 73.5437 108.274C73.9117 112.533 74.3717 116.783 74.8903 121.026C75.1245 123.58 75.5469 126.104 75.9944 128.625C76.4335 131.994 76.8267 135.371 77.1403 138.753C77.8095 144.684 77.4414 150.739 75.8062 156.492C74.6687 162.044 71.9544 167.073 68.868 171.781C65.5013 176.24 60.5831 179.301 55.2717 180.965C53.716 181.464 52.0975 181.738 50.4873 182.013C48.9985 182.258 47.5305 182.707 46.0082 182.683C44.4692 182.579 42.9009 182.67 41.3785 182.433C39.7768 181.859 38.0495 181.164 36.9454 179.817C36.0923 178.694 35.8455 177.251 35.6741 175.886C35.3228 173.69 36.1048 171.349 37.7526 169.839C38.9194 168.861 40.471 168.616 41.9431 168.487C43.3609 168.35 44.787 168.15 46.2131 168.246C48.4297 168.454 50.5919 169.019 52.6913 169.735C54.5649 170.259 56.38 170.999 57.986 172.106L58.2704 172.297C58.3958 172.276 58.5296 172.301 58.6342 172.384C58.8391 172.488 59.1737 172.401 59.3661 172.351C59.8512 172.222 60.3489 172.147 60.834 172.018C64.2718 171.053 67.5799 169.032 69.098 165.692C69.8215 163.413 69.3782 160.905 68.73 158.671C68.546 158.051 68.3201 157.54 68.0566 157.003C67.8894 156.567 67.2495 155.976 67.2704 155.498C65.769 154.657 64.2216 153.834 62.7578 153.006C55.7527 149.442 49.0361 147.687 41.1443 147.624C36.5523 147.62 31.839 147.882 27.4393 149.284C22.1824 151.105 17.5192 154.296 13.2576 157.802C11.0034 159.886 9.27197 162.423 7.48618 164.893C6.20226 166.74 5.56657 168.924 4.51266 170.891C2.32956 175.4 0.631597 180.274 1.07909 185.336C1.22965 188.88 0.823977 190.306 3.06562 193.397C3.81842 194.503 4.62139 195.589 5.75476 196.337C6.8254 197.044 7.66602 198.009 8.68647 198.775C9.88675 199.44 11.1205 199.985 12.2622 200.734C12.5341 200.858 12.8059 200.987 13.0778 201.116C13.6716 201.42 14.2195 201.778 14.7757 202.127C16.39 202.892 18.0796 203.516 19.7901 204.011C22.0318 204.281 24.286 204.465 26.5276 204.722C28.3678 204.897 30.1201 205.533 31.9268 205.874C34.3859 206.336 36.9789 206.773 39.4422 206.952C47.2838 207.097 55.2257 206.627 62.8624 204.855C69.1524 203.258 75.3504 200.759 80.5363 196.836C85.8685 192.486 89.4861 186.484 92.9071 180.628C95.5043 176.335 97.6874 171.823 99.4271 167.127C101.472 160.339 103.48 153.534 105.989 146.9L105.985 146.896ZM118.87 117.074C118.586 117.074 118.347 116.829 118.351 116.55C118.351 116.263 118.594 116.035 118.878 116.035C119.163 116.035 119.401 116.28 119.397 116.559C119.397 116.846 119.154 117.074 118.87 117.074ZM116.185 107.65C117.507 106.83 119.276 112.487 119.393 113.477C119.472 114.146 118.452 114.279 118.356 113.606C118.004 111.979 117.423 110.32 116.524 108.918C116.26 108.527 115.671 108.091 116.185 107.65ZM74.5683 95.488C74.3466 93.8783 74.3341 92.2354 74.3174 90.6133C74.3508 89.4321 74.6812 88.2675 74.7523 87.0946C74.6812 86.8201 74.8485 86.5331 75.1245 86.4582C76.2621 86.3875 75.6557 87.9265 75.6138 88.5795C75.204 90.8379 75.3545 93.1006 75.6055 95.359C75.6891 96.0287 74.6687 96.1618 74.5683 95.4838V95.488ZM76.007 99.9342C75.7644 100.076 75.434 99.9924 75.2918 99.747C75.0702 99.4434 74.9154 98.9817 75.3169 98.7488C75.5636 98.6074 75.894 98.6906 76.0321 98.936C76.2537 99.2396 76.4084 99.7013 76.007 99.9342ZM16.779 201.066C14.3826 199.977 12.0615 198.691 10.0457 196.994C9.72365 196.899 9.49363 196.566 9.65255 196.238C10.2422 195.368 11.1289 196.658 11.66 196.945C13.4165 198.255 15.2567 199.224 17.2223 200.122C17.8371 200.413 17.4021 201.345 16.779 201.066ZM20.0034 201.474C19.9323 200.775 21.1535 200.671 21.2121 201.366C21.2832 202.065 20.062 202.169 20.0034 201.474ZM33.2944 173.399C33.01 173.399 32.78 173.145 32.7842 172.867C32.7925 172.58 33.0309 172.359 33.3195 172.359C33.6081 172.359 33.8339 172.613 33.8297 172.892C33.8214 173.179 33.583 173.399 33.2944 173.399ZM34.6536 170.288C34.4069 170.134 34.3441 169.818 34.4863 169.573C35.3771 167.551 37.3637 166.345 39.3669 165.576C40.011 165.247 43.8878 164.627 43.4069 165.991C43.1685 166.52 42.5286 166.229 42.0937 166.208C39.852 166.087 37.6355 167.31 36.1174 168.857C35.6782 169.311 35.49 170.679 34.6536 170.288ZM91.711 177.421C91.4266 177.421 91.1883 177.176 91.1924 176.897C91.1924 176.61 91.435 176.381 91.7194 176.381C92.0038 176.381 92.2422 176.627 92.238 176.905C92.238 177.192 91.9954 177.421 91.711 177.421ZM102.882 114.65C104.228 113.152 106.637 112.62 108.461 113.531C112.622 116.334 109.966 122.091 105.236 121.916C103.542 121.862 101.372 120.647 101.623 118.726C100.983 117.337 101.861 115.619 102.882 114.65ZM133.558 90.6591C132.922 90.3263 133.55 89.2033 134.173 89.5444C134.813 89.8771 134.177 91.0043 133.558 90.6591ZM142.374 85.3976C141.337 86.6912 139.773 87.5521 138.388 88.4297C137.811 88.6502 136.548 89.8023 136.126 88.9746C135.904 88.4505 136.498 88.2342 136.87 88.0679C138.514 87.1903 140.145 86.2128 141.454 84.8985C141.788 84.3079 142.696 84.7945 142.374 85.3935V85.3976ZM163.21 42.628C163.954 43.0772 163.427 44.1046 162.695 43.5764C161.947 43.1313 162.478 42.0998 163.21 42.628ZM157.154 33.1325C157.334 32.8912 157.689 32.8663 157.923 33.0451C159.977 34.7671 161.236 37.2252 162.285 39.6417C162.54 40.2656 161.595 40.669 161.323 40.041C160.449 38.0279 159.487 36.1022 157.969 34.5175C157.693 34.0558 156.74 33.7688 157.158 33.1325H157.154ZM104.973 41.0226C105.621 40.2573 106.37 39.5876 107.135 38.9429C107.95 38.2484 108.728 37.4498 109.753 37.0671C110.042 36.8675 110.46 36.8716 110.627 37.2169C110.907 37.8491 110.092 38.0154 109.69 38.2484C108.548 38.9554 107.561 39.9869 106.554 40.8437C106.102 41.1848 105.684 42.2454 105.01 41.7588C104.801 41.5716 104.776 41.2347 104.969 41.0226H104.973ZM103.551 42.9026C103.693 42.9026 103.823 42.9358 103.931 43.0357C104.036 43.123 104.094 43.2519 104.103 43.3892C104.12 43.6554 103.902 43.9382 103.614 43.9382C103.471 43.9382 103.342 43.9049 103.233 43.8051C103.128 43.7178 103.07 43.5888 103.061 43.4516C103.045 43.1854 103.262 42.9026 103.551 42.9026ZM105.14 45.8931C107.005 43.6471 108.912 41.4843 111.158 39.6292C114.337 36.7094 117.808 34.1224 121.618 32.0719C124.278 30.7076 126.783 29.1687 129.648 28.3077C133.269 27.0142 137.067 25.9661 140.948 26.2489C142.738 26.4694 144.457 27.06 146.184 27.5549C148.463 28.2329 150.512 29.5971 152.223 31.2026C155.046 33.3571 157.145 36.2519 158.889 39.3048C163.285 46.8497 161.537 55.7131 158.379 63.3702C156.192 68.5984 152.474 72.9989 148.555 77.0334C145.448 79.845 142.064 82.3572 138.627 84.7529C135.105 86.9199 131.304 88.5711 127.423 89.9603C125.766 90.5967 123.885 90.6133 122.182 90.9544C119.477 91.7155 116.666 91.753 113.877 91.8029C109.368 91.6656 106.248 91.0293 102.806 87.9057C100.452 85.826 99.0424 82.9811 97.5159 80.2942C96.8216 78.7969 96.4578 77.1582 95.9016 75.6068C95.4123 73.29 95.1028 70.9026 95.0651 68.536C95.3872 60.0636 99.8746 52.3316 105.136 45.8931H105.14ZM97.5201 165.679C97.1311 166.678 96.8175 167.564 96.4996 168.554C95.9894 170.059 95.3035 171.494 94.6344 172.933C94.2914 173.449 94.0865 174.913 93.2333 174.539C92.7859 174.281 93.0451 173.773 93.2417 173.449C93.7979 172.268 94.3584 171.087 94.8602 169.88C95.3286 168.886 95.6297 167.83 95.9852 166.794C96.1901 166.029 96.6962 165.301 96.7338 164.523C96.6627 164.249 96.83 163.962 97.106 163.887C98.1098 163.783 97.8003 165.122 97.5201 165.675V165.679Z" fill="#F1BC6F"/>
<path d="M182.385 182.525C178.399 185.74 173.97 188.472 169.29 190.573C163.105 193.493 156.154 194.603 149.35 194.599C135.607 194.408 121.856 190.851 109.832 184.213C107.294 183.069 104.868 181.726 102.526 180.241C102.472 180.274 102.405 180.295 102.329 180.308C102.028 180.345 101.706 180.478 101.451 180.532C95.4581 181.585 93.2541 188.518 93.597 193.859C93.7308 194.728 93.7852 195.539 94.1407 196.3C94.1783 196.358 94.1992 196.416 94.2076 196.475C99.3433 198.629 104.759 200.164 110.179 201.345C118.477 203.283 127.042 204.377 135.569 203.716C140.132 203.583 144.603 202.734 149.048 201.828C151.8 201.245 154.527 200.547 157.158 199.548C161.867 197.685 166.467 195.481 170.758 192.794C173.799 190.806 176.651 188.56 179.465 186.28C181.837 184.388 184.037 182.342 186.169 180.22C187.357 178.993 188.52 177.7 189.277 176.178C189.465 175.812 189.808 175.5 189.908 175.121C188.637 176.498 187.458 177.958 186.174 179.314C185.07 180.582 183.685 181.489 182.38 182.52L182.385 182.525ZM116.005 199.919C115.942 200.197 115.65 200.368 115.378 200.305C113.027 199.885 110.71 199.353 108.527 198.43C107.804 198.126 107.093 197.839 106.403 197.523C106.202 197.448 106.014 197.302 105.796 197.365C105.516 197.415 105.24 197.219 105.194 196.941C105.106 196.358 105.826 196.217 106.261 196.35C108.092 197.103 109.928 197.955 111.827 198.467C113.061 198.866 114.353 199.012 115.612 199.29C115.888 199.353 116.064 199.64 116.001 199.914L116.005 199.919ZM119.455 200.871C119.171 200.871 118.924 200.655 118.916 200.368C118.908 200.093 119.138 199.831 119.422 199.831C119.706 199.831 119.953 200.047 119.961 200.334C119.97 200.609 119.74 200.871 119.455 200.871ZM143.783 197.103C143.499 197.103 143.252 196.886 143.244 196.599C143.235 196.325 143.465 196.063 143.75 196.063C144.034 196.063 144.281 196.279 144.289 196.566C144.298 196.841 144.068 197.103 143.783 197.103ZM147.953 197.498C147.279 197.477 146.619 197.352 145.954 197.282C145.669 197.319 145.402 197.14 145.351 196.857C145.305 196.583 145.498 196.296 145.778 196.258C146.539 196.238 147.292 196.471 148.057 196.466C148.735 196.541 148.63 197.56 147.953 197.502V197.498Z" fill="#F1BC6F"/>
<path d="M77.5123 27.2598C77.5123 27.2598 77.5291 27.2722 77.5374 27.2764C77.5583 27.2764 77.5834 27.2806 77.6044 27.2847C79.7833 27.4885 82.0751 27.4677 84.1369 26.7024C86.1736 26.1326 87.9845 25.0346 89.7201 23.8658C91.4975 22.6721 93.2791 21.4909 94.9395 20.135C100.928 15.2478 106.779 9.11294 114.826 8.09392C117.791 7.71543 120.689 8.984 123.286 10.2734C124.503 11.0428 125.674 11.9121 126.728 12.8979C126.799 12.9062 126.87 12.9311 126.929 12.9686C128.518 13.8295 130.475 14.4451 132.278 13.9668C133.951 13.4968 135.172 12.1866 135.841 10.6394C135.87 10.5271 135.883 10.4023 135.921 10.2942C135.302 9.65364 134.545 8.99648 133.629 8.18959C130.693 4.93289 128.2 3.63105 124.039 2.41655C118.845 0.50745 113.287 0.669661 108.122 2.49973C103.935 4.22582 100.372 7.28287 97.2564 10.4772C95.5124 12.432 93.8814 14.312 91.9158 16.009C89.1973 18.2841 85.8432 19.8022 82.3762 20.5259C79.5616 21.3245 76.6425 20.4511 73.8028 20.6257C70.9338 20.9668 70.5532 23.637 72.6987 25.3382C73.9366 26.3988 75.5467 27.0102 77.1527 27.2265C77.274 27.2057 77.3994 27.2057 77.5165 27.2598H77.5123ZM112.513 2.62451C114.215 2.24602 116.009 2.29177 117.732 2.47062C118.013 2.52053 118.217 2.77008 118.176 3.05707C118.075 3.62689 117.502 3.49379 117.08 3.4314C115.411 3.38149 113.676 3.27751 112.078 3.82653C111.601 3.94299 110.89 4.4629 110.589 3.81405C110.296 2.96141 111.957 2.85743 112.509 2.62451H112.513ZM107.879 4.37139C108.164 4.37139 108.398 4.61679 108.394 4.89962C108.394 5.18661 108.147 5.41121 107.862 5.41121C107.578 5.41121 107.344 5.16581 107.348 4.88298C107.348 4.59599 107.595 4.37139 107.879 4.37139Z" fill="#FFD8A0"/>
<path d="M137.448 15.1938C137.448 15.1938 137.443 15.198 137.439 15.2022C137.414 15.2232 137.389 15.24 137.364 15.261C137.397 15.261 137.427 15.2526 137.46 15.2526C137.46 15.2358 137.452 15.2148 137.448 15.198V15.1938Z" fill="#F1BC6F"/>
<path d="M101.619 118.726C101.368 120.643 103.538 121.862 105.232 121.916C109.958 122.091 112.614 116.334 108.456 113.531C106.633 112.62 104.228 113.153 102.877 114.65C101.857 115.619 100.979 117.337 101.619 118.726Z" fill="black"/>
<path d="M189.888 173.915C189.741 173.898 189.591 173.944 189.486 174.056C187.709 175.936 186.145 178.012 184.242 179.771C178.437 184.517 172.042 188.763 164.891 191.247C155.347 194.378 144.963 193.975 135.176 192.128C130.304 191.251 125.503 189.895 120.857 188.194C115.947 186.409 111.304 183.743 106.6 181.472C103.471 179.784 100.51 177.608 97.5033 175.695C97.3611 175.599 97.1854 175.446 96.9972 175.342C97.8378 173.67 98.6199 171.968 99.3141 170.226C100.995 166.358 101.882 162.211 103.25 158.226C105.094 152.033 107.34 145.907 109.958 139.975C112.312 134.664 114.901 129.473 117.979 124.536C119.456 122.02 120.995 119.537 122.609 117.104C122.734 117.021 122.818 116.875 122.877 116.704C124.692 113.993 126.611 111.347 128.656 108.798C129.94 107.429 131.074 105.92 132.236 104.451C134.256 102.326 136.477 100.417 138.602 98.4037C138.648 98.383 138.689 98.358 138.723 98.3289C141.169 97.2932 143.553 96.1162 145.908 94.8892C148.162 93.7454 150.14 92.1649 152.177 90.6883C155.046 88.7418 157.459 86.2587 159.734 83.6675C162.059 81.1179 163.849 78.1482 165.656 75.2284C167.413 72.2213 169.307 69.2932 170.641 66.0656C172.314 62.1309 173.665 58.0549 174.639 53.8956C175.467 49.7863 175.647 45.5688 175.526 41.3887C174.861 35.5658 171.603 30.2461 167.22 26.4154C165.459 24.6727 163.285 23.504 161.21 22.1896C159.119 20.7505 156.639 20.0268 154.318 19.0452C150.349 17.6145 146.263 16.2294 142.048 15.7927C141.136 15.7719 140.22 15.7594 139.3 15.7677C139.271 15.2936 139.174 14.8236 139.099 14.3536C138.844 13.1724 138.484 11.9787 137.853 10.9389C137.414 10.2235 136.711 9.74931 136.167 9.11711C133.926 7.14146 131.969 4.72078 129.263 3.31079C126.703 2.06302 123.926 1.2478 121.17 0.54489C117.001 -0.411738 112.659 -0.029087 108.611 1.2686C104.099 2.75345 100.372 5.93528 97.0432 9.21277C93.9484 12.5485 91 16.3001 86.6296 18.0678C84.5594 18.987 82.3805 19.64 80.0678 19.8313C78.3614 19.8771 76.6928 19.6899 74.9948 19.5443C73.3177 19.4612 71.3354 19.9478 70.5575 21.5865C69.4409 23.9698 71.6532 26.2907 73.7109 27.2473C74.3131 27.5842 74.9488 27.8171 75.6012 27.9918C75.5301 28.0375 75.4548 28.075 75.3837 28.1207C70.1435 31.1986 74.0203 36.6264 78.834 36.9259C78.8842 36.9259 78.9344 36.9259 78.9846 36.9259C77.0148 38.7684 77.4665 41.1558 79.545 43.2438C80.9502 44.5539 82.9117 45.2236 84.802 45.444C85.4419 45.444 86.1068 45.4523 86.7593 45.4107C85.5464 47.1826 84.4256 49.0168 83.3926 50.9009C80.3145 55.9586 77.709 61.3323 75.5552 66.8475C72.452 74.8125 71.1054 83.3556 71.3061 91.882C71.5361 95.5214 71.7411 99.1691 72.1425 102.792C72.5399 109.7 73.2634 116.571 74.0998 123.438C74.9111 128.517 75.6388 133.612 76.0863 138.74C76.8182 144.979 76.3038 151.322 74.4971 157.344C74.3717 157.935 74.2253 158.517 74.058 159.096C73.3136 158.501 72.5399 157.943 71.7703 157.386C70.6202 156.583 69.5747 155.618 68.3619 154.907C67.0905 154.208 65.7731 153.589 64.5435 152.807C60.8339 150.831 56.9487 149.117 52.8627 148.074C44.9291 146.139 36.4853 146.09 28.5099 147.882C22.4583 149.633 17.1093 153.243 12.3332 157.249C9.85322 159.674 7.79977 162.531 5.91779 165.43C4.98516 167.214 4.28674 169.107 3.36248 170.895C1.92799 174.023 0.598059 177.259 0.142202 180.686C-0.083636 182.766 -0.00835684 184.854 0.083651 186.933C0.150566 188.252 0.0418293 189.62 0.480958 190.885C1.21284 192.652 2.30857 194.262 3.50049 195.751C4.12363 196.512 4.95589 197.057 5.73377 197.643C6.37364 198.122 6.92151 198.704 7.53211 199.22C7.59902 199.357 7.7203 199.486 7.91268 199.586C9.04187 200.459 10.3342 201.021 11.6306 201.611C12.5465 202.165 13.4666 202.714 14.4369 203.163C15.357 203.708 16.2938 204.215 17.3309 204.531C23.3575 206.59 29.8482 207.073 36.1424 207.85C36.3013 207.875 36.456 207.821 36.569 207.713C37.4221 207.825 38.2753 207.921 39.1326 207.988C48.1661 208.171 57.3962 207.655 66.0868 205.039C70.11 203.845 74.0036 202.26 77.5752 200.056C79.3986 199.045 81.1091 197.847 82.6231 196.416C83.6895 195.435 84.6933 194.387 85.6342 193.289C86.2407 193.734 86.9851 193.979 87.6208 194.433C90.1175 196.03 92.9405 197.065 95.6715 198.205C99.2556 199.536 102.907 200.784 106.658 201.611C113.433 203.275 120.392 204.644 127.393 204.914C136.979 205.259 146.631 203.961 155.794 201.171C160.805 199.424 165.606 197.086 170.177 194.416C173.677 192.282 176.889 189.724 180.072 187.158C182.305 185.382 184.405 183.44 186.446 181.447C187.675 180.15 189.068 178.852 189.883 177.226C190.264 176.435 191.13 175.703 190.975 174.755C191.017 174.115 190.289 173.711 189.883 173.936L189.888 173.915ZM137.439 15.1979C137.439 15.1979 137.443 15.1938 137.447 15.1896C137.447 15.2062 137.456 15.227 137.46 15.2437C137.426 15.2437 137.397 15.252 137.364 15.252C137.389 15.2312 137.414 15.2146 137.439 15.1938V15.1979ZM72.6988 25.3382C70.5533 23.6371 70.9339 20.9668 73.8029 20.6258C76.6426 20.4511 79.5575 21.3203 82.3763 20.5259C85.8434 19.8022 89.1975 18.2841 91.9159 16.009C93.8815 14.312 95.5126 12.432 97.2565 10.4772C100.372 7.28288 103.935 4.22999 108.122 2.49974C113.287 0.669667 118.845 0.507456 124.039 2.41655C128.196 3.63105 130.689 4.9329 133.629 8.18959C134.545 8.99649 135.302 9.64949 135.921 10.2942C135.887 10.4023 135.875 10.5271 135.841 10.6394C135.172 12.1866 133.955 13.4968 132.278 13.9668C130.476 14.4451 128.518 13.8295 126.929 12.9686C126.866 12.927 126.795 12.9062 126.728 12.8979C125.674 11.9121 124.503 11.0428 123.286 10.2734C120.689 8.98401 117.791 7.71544 114.826 8.09393C106.775 9.11295 100.928 15.2478 94.9396 20.135C93.2793 21.4909 91.4977 22.6721 89.7202 23.8658C87.9805 25.0304 86.1696 26.1284 84.137 26.7024C82.0752 27.4636 79.7834 27.4885 77.6045 27.2847C77.5836 27.2847 77.5585 27.2806 77.5376 27.2764C77.5292 27.2722 77.5208 27.2639 77.5125 27.2598C77.3954 27.2099 77.2699 27.2057 77.1486 27.2265C75.5427 27.0102 73.9325 26.3988 72.6946 25.3382H72.6988ZM76.2285 28.8153C76.5506 28.6323 76.8684 28.4535 77.203 28.3037C77.2574 28.3121 77.3075 28.3037 77.3619 28.2996C78.2276 28.3911 79.1059 28.416 79.9716 28.4202C84.3378 28.5325 88.2816 26.2158 91.7319 23.7618C97.0098 20.4136 101.108 15.5847 106.491 12.3696C109.259 10.6103 112.467 9.25436 115.792 9.06719C117.444 8.97569 118.991 9.62038 120.518 10.1569C121.492 10.5229 122.433 11.0012 123.328 11.5627C123.261 12.1242 123.102 12.6733 122.914 13.2098C122.295 14.7903 121.3 16.4 119.828 17.3566C117.875 18.4463 115.541 19.3572 113.278 18.9038C113.186 18.8706 113.094 18.8747 113.002 18.9038C112.831 18.804 112.655 18.7083 112.475 18.621C111.476 18.1718 110.355 18.438 109.335 18.6709C104.274 20.1225 100.418 23.974 96.5539 27.3346C91.7988 31.419 86.3745 35.7155 79.8001 35.8985C75.5719 36.2188 71.1221 31.5355 76.2327 28.8236L76.2285 28.8153ZM82.2885 42.7488C81.3517 42.4327 80.3982 41.9544 79.8378 41.1059C79.5994 40.5777 79.5115 39.9912 79.5575 39.4256C79.6746 39.2467 79.7416 39.0013 79.8252 38.81C80.164 38.1861 80.6324 37.4167 81.3015 37.0798C81.4479 37.009 81.5315 36.9051 81.5734 36.7844C87.374 36.0316 92.4052 32.255 96.763 28.5034C99.5065 26.2158 102.292 23.3958 105.474 21.4826C105.529 21.4784 105.587 21.4659 105.65 21.441C106.056 21.208 106.528 21.0957 106.993 21.0334C107.632 21.0042 108.281 21.0999 108.858 21.3911C109.619 21.8403 110.397 22.8676 109.828 23.7369C109.744 23.8949 109.586 24.0613 109.473 24.2401C108.904 24.5978 108.331 24.9514 107.758 25.3008C104.91 27.2015 102.417 29.5765 99.7156 31.6769C96.6459 34.3929 93.4298 37.009 90.7741 40.1576C90.7281 40.2075 90.6863 40.2616 90.6445 40.3157C88.1436 41.7132 85.2662 43.4351 82.2885 42.7488ZM90.6361 40.324C90.6278 40.3281 90.6236 40.3323 90.6152 40.3364C90.6236 40.3323 90.632 40.3281 90.6361 40.3198V40.324ZM80.532 196.832C75.3503 200.755 69.1523 203.254 62.8581 204.851C55.2215 206.623 47.2753 207.093 39.4379 206.948C36.9746 206.765 34.3817 206.328 31.9226 205.87C30.1117 205.529 28.3593 204.893 26.5234 204.718C24.2817 204.46 22.0275 204.277 19.7859 204.007C18.0754 203.516 16.3858 202.892 14.7715 202.123C14.2152 201.774 13.6674 201.416 13.0735 201.112C12.8058 200.979 12.5298 200.854 12.258 200.73C11.1162 199.981 9.88249 199.436 8.68221 198.771C7.66175 198.009 6.82114 197.04 5.7505 196.333C4.61713 195.585 3.81415 194.499 3.06136 193.393C0.819714 190.298 1.22539 188.876 1.07483 185.332C0.631516 180.27 2.32948 175.396 4.50839 170.887C5.56648 168.92 6.19799 166.736 7.48192 164.889C9.26771 162.419 10.9991 159.882 13.2533 157.798C17.515 154.292 22.1781 151.101 27.4351 149.28C31.8306 147.878 36.548 147.616 41.1401 147.62C49.0318 147.678 55.7442 149.438 62.7536 153.002C64.2215 153.83 65.7689 154.653 67.2661 155.494C67.241 155.972 67.8809 156.563 68.0524 156.999C68.3159 157.536 68.5417 158.047 68.7257 158.667C69.3739 160.901 69.8173 163.405 69.0937 165.688C67.5756 169.024 64.2675 171.045 60.8298 172.014C60.3446 172.139 59.847 172.218 59.3618 172.347C59.1694 172.397 58.8349 172.484 58.6299 172.38C58.5254 172.297 58.3916 172.276 58.2661 172.293L57.9817 172.102C56.3799 170.995 54.5607 170.251 52.6871 169.731C50.5876 169.02 48.4254 168.454 46.2089 168.242C44.7828 168.146 43.3566 168.346 41.9389 168.483C40.4667 168.612 38.9152 168.857 37.7483 169.835C36.1006 171.349 35.3227 173.686 35.6698 175.882C35.8413 177.247 36.088 178.69 36.9412 179.813C38.0411 181.16 39.7725 181.859 41.3743 182.429C42.9008 182.666 44.4649 182.575 46.0039 182.678C47.5263 182.699 48.99 182.254 50.4831 182.009C52.0932 181.734 53.7075 181.464 55.2675 180.961C60.5788 179.297 65.4929 176.236 68.8637 171.777C71.9544 167.069 74.6644 162.04 75.802 156.488C77.4372 150.731 77.8052 144.68 77.1361 138.748C76.8224 135.367 76.4293 131.99 75.9902 128.621C75.5427 126.1 75.1203 123.576 74.8861 121.022C74.3675 116.779 73.9074 112.529 73.5394 108.269C73.4307 105.969 73.3345 103.665 73.0459 101.378C72.4269 94.885 72.0004 88.3467 72.8493 81.8499C73.7485 73.9848 76.4711 66.415 80.0092 59.3567C81.3099 56.6449 82.69 53.9705 84.3043 51.4125C85.8559 48.6175 87.5413 45.914 89.5153 43.3935C93.5427 37.9615 98.875 33.7149 104.107 29.4683C107.089 26.744 110.585 24.6685 114.127 22.7553C116.674 21.7654 119.242 20.7339 121.747 19.6359C124.892 18.596 128.154 18.0678 131.417 17.5022C134.858 16.8117 138.401 16.7452 141.901 16.8076C147.878 17.4855 153.574 19.7773 159.094 22.1064C161.453 23.5705 163.95 24.8807 166.041 26.7315C168.153 28.6157 170.127 30.6745 171.574 33.1118C173 35.7072 174.209 38.5022 174.497 41.4844C174.602 46.2759 174.409 51.1505 173.1 55.7839C171.595 61.0953 169.755 66.3983 166.865 71.1565C164.393 75.1993 162.143 79.4209 158.956 82.9771C156.706 85.56 154.201 88.0846 151.328 90.0145C149.55 91.3122 147.815 92.6848 145.866 93.7246C141.036 96.3241 135.954 98.6491 130.555 99.8429C128.435 100.309 126.335 100.92 124.19 101.261C122.764 101.44 121.317 101.386 119.886 101.452C117.147 101.64 114.399 101.452 111.685 101.057C110.209 100.908 108.724 100.7 107.277 100.359C107.231 100.342 107.189 100.325 107.143 100.309C106.068 99.9011 104.977 99.5642 103.969 98.9944C103.722 98.8737 103.438 98.6159 103.158 98.5119C102.873 98.2415 102.288 98.3247 102.263 98.8737C102.196 99.8553 103.316 100.163 104.061 100.433C104.973 100.799 105.905 101.091 106.855 101.324C108.833 102.056 110.878 102.567 112.927 103.054C115.888 103.832 118.452 105.716 120.012 108.357C121.337 110.507 122.304 112.99 122.023 115.569C121.994 115.76 121.961 115.952 121.931 116.147C121.91 116.205 121.89 116.268 121.873 116.334C121.007 117.649 120.154 118.971 119.313 120.294C113.989 128.696 109.477 137.584 105.981 146.892C103.471 153.526 101.464 160.331 99.4187 167.119C97.6789 171.815 95.4958 176.327 92.8987 180.62C89.4777 186.476 85.8601 192.478 80.5278 196.828L80.532 196.832ZM61.5533 177.014C57.8771 179.285 53.6657 180.528 49.4041 181.156C47.7521 181.555 46.0792 181.743 44.3854 181.572C43.0681 181.51 41.6921 181.676 40.5086 180.973C39.3166 180.449 38.016 179.838 37.4221 178.611C36.2846 175.949 36.1967 172.285 38.7437 170.392C39.8771 169.677 41.2363 169.598 42.5955 169.465C45.9872 168.895 49.3706 169.656 52.5951 170.787C55.8655 171.706 59.0691 173.595 61.1351 176.34C61.2396 176.477 61.3023 176.656 61.4111 176.785C61.4529 176.864 61.4989 176.939 61.5533 177.009V177.014ZM189.281 176.182C188.52 177.704 187.362 179.002 186.174 180.225C184.041 182.346 181.841 184.392 179.47 186.285C176.651 188.564 173.803 190.81 170.762 192.798C166.472 195.485 161.871 197.689 157.162 199.553C154.531 200.551 151.805 201.25 149.053 201.832C144.607 202.739 140.136 203.583 135.574 203.72C127.046 204.381 118.485 203.288 110.184 201.349C104.764 200.164 99.3476 198.633 94.2119 196.479C94.2035 196.421 94.1784 196.362 94.145 196.304C93.7937 195.543 93.7393 194.732 93.6013 193.863C93.2584 188.522 95.4624 181.589 101.455 180.536C101.711 180.487 102.033 180.349 102.334 180.312C102.409 180.299 102.476 180.274 102.53 180.245C104.872 181.73 107.298 183.074 109.837 184.217C121.86 190.856 135.611 194.412 149.354 194.603C156.158 194.607 163.109 193.497 169.294 190.577C173.97 188.476 178.403 185.744 182.389 182.529C183.694 181.497 185.078 180.591 186.182 179.322C187.466 177.962 188.645 176.506 189.917 175.129C189.812 175.508 189.469 175.824 189.285 176.186L189.281 176.182Z" fill="black"/>
<path d="M97.5159 80.2944C99.0424 82.9771 100.452 85.8221 102.806 87.9058C106.248 91.0294 109.368 91.6658 113.877 91.8031C116.67 91.7532 119.477 91.7157 122.182 90.9546C123.885 90.6094 125.771 90.5969 127.423 89.9605C131.304 88.5713 135.105 86.9243 138.627 84.7531C142.064 82.3574 145.448 79.8452 148.555 77.0336C152.474 72.9991 156.192 68.5986 158.379 63.3704C161.537 55.7132 163.281 46.8457 158.889 39.305C157.145 36.2521 155.046 33.3573 152.223 31.2028C150.512 29.5973 148.463 28.2331 146.184 27.5551C144.457 27.0602 142.738 26.4695 140.948 26.2491C137.063 25.9663 133.265 27.0144 129.648 28.3079C126.783 29.1689 124.278 30.7078 121.618 32.0721C117.808 34.1226 114.332 36.7096 111.158 39.6294C108.908 41.4844 107.005 43.6473 105.14 45.8932C99.8788 52.3318 95.3914 60.0638 95.0693 68.5362C95.1112 70.907 95.4165 73.2902 95.9058 75.6069C96.462 77.1583 96.8258 78.7971 97.5201 80.2944H97.5159ZM102.844 50.6556C108.235 42.8362 115.516 36.2064 124.073 31.9639C125.758 30.9823 127.506 30.138 129.367 29.4975C133.294 28.1291 137.544 26.7441 141.768 27.422C144.135 28.0334 146.602 28.5367 148.714 29.8177C150.379 30.816 151.75 32.2135 153.248 33.4446C154.67 34.7506 155.749 36.4185 156.874 37.9824C160.96 43.8303 161.332 50.8927 159.236 57.5683C157.589 64.4186 153.971 69.7549 149.208 74.85C147.112 77.1542 144.565 79.1215 142.048 80.9641C138.409 83.9171 134.382 86.1881 129.978 87.8726C127.749 88.8126 125.465 89.5987 123.023 89.7567C120.593 90.2392 118.352 90.7799 115.825 90.7092C114.274 90.8381 112.756 90.7009 111.208 90.5719C108.745 90.4596 106.319 89.4614 104.429 87.8934C102.397 86.4168 100.916 84.3122 99.7534 82.1162C98.8835 80.7103 98.0345 79.2796 97.6706 77.6491C96.6669 75.1827 96.3742 72.4875 96.1316 69.8214C95.8765 62.9004 99.0173 56.2997 102.836 50.6639L102.844 50.6556Z" fill="black"/>
<path d="M132.245 76.501C132.295 76.501 132.341 76.501 132.391 76.501C136.31 76.501 140.132 74.8664 143.294 72.6412C144.72 71.564 145.996 70.3619 147.334 69.1641C151.667 64.0524 154.803 57.5847 155.021 50.8176C155.134 47.0577 153.026 43.0897 149.425 41.6589C148.229 41.1307 146.949 40.6316 145.628 40.6358C144.754 40.7605 143.775 40.9228 143.018 41.3803C142.148 41.6548 141.307 41.9917 140.492 42.3743C140.496 42.3743 140.5 42.3743 140.504 42.3785C140.814 42.5199 141.115 42.7279 141.358 42.9608C141.684 43.2686 141.96 43.6096 142.131 44.0297C142.286 44.4082 142.357 44.8075 142.386 45.2193C142.449 46.0927 142.273 47.0244 141.721 47.7273C141.178 48.4219 140.392 48.8836 139.513 49.0125C139.258 49.0499 138.999 49.0666 138.735 49.0666C138.648 49.0666 138.56 49.0666 138.472 49.0583C137.995 49.0375 137.514 48.9543 137.079 48.7588C136.653 48.5675 136.301 48.2056 136.004 47.8521C135.787 47.59 135.611 47.3031 135.469 46.9911C135.335 46.7831 135.222 46.5585 135.135 46.3215C135.089 46.1884 135.047 46.0511 135.013 45.9097C132.742 47.7855 130.71 49.9774 128.857 52.2068C126.164 55.3179 124.219 58.9365 122.998 62.8587C122.057 65.4291 121.191 68.3738 122.153 71.0565C123.838 74.804 128.41 76.2556 132.249 76.4968L132.245 76.501Z" fill="black"/>
<path d="M106.554 40.8438C107.561 39.987 108.548 38.9555 109.69 38.2484C110.092 38.0155 110.907 37.8491 110.627 37.2169C110.46 36.8717 110.037 36.8675 109.753 37.0672C108.728 37.454 107.955 38.2526 107.135 38.943C106.37 39.5918 105.621 40.2615 104.973 41.0226C104.78 41.2306 104.801 41.5675 105.015 41.7588C105.684 42.2496 106.106 41.1848 106.558 40.8438H106.554Z" fill="black"/>
<path d="M103.613 43.9382C103.898 43.9382 104.12 43.6554 104.103 43.3892C104.094 43.252 104.032 43.123 103.931 43.0357C103.823 42.94 103.693 42.9026 103.551 42.9026C103.266 42.9026 103.045 43.1854 103.061 43.4516C103.07 43.5889 103.133 43.7178 103.233 43.8051C103.342 43.9008 103.471 43.9382 103.613 43.9382Z" fill="black"/>
<path d="M141.45 84.9027C140.145 86.2128 138.509 87.1944 136.866 88.072C136.494 88.2384 135.9 88.4547 136.121 88.9787C136.544 89.8064 137.807 88.6543 138.384 88.4339C139.768 87.5563 141.332 86.6912 142.37 85.4018C142.692 84.8029 141.784 84.3162 141.45 84.9068V84.9027Z" fill="black"/>
<path d="M134.168 89.5486C133.545 89.2075 132.918 90.3305 133.554 90.6633C134.173 91.0085 134.808 89.8813 134.168 89.5486Z" fill="black"/>
<path d="M157.961 34.5175C159.479 36.1022 160.445 38.0279 161.315 40.041C161.587 40.6691 162.536 40.2656 162.277 39.6417C161.227 37.2252 159.968 34.7671 157.915 33.0451C157.681 32.8663 157.325 32.8913 157.145 33.1325C156.731 33.7689 157.685 34.0558 157.957 34.5175H157.961Z" fill="black"/>
<path d="M162.691 43.5765C163.423 44.1047 163.95 43.0732 163.205 42.6282C162.473 42.1 161.942 43.1315 162.691 43.5765Z" fill="black"/>
<path d="M118.356 113.606C118.452 114.28 119.472 114.151 119.393 113.477C119.276 112.487 117.507 106.83 116.185 107.65C115.671 108.091 116.26 108.527 116.524 108.918C117.423 110.324 118.004 111.979 118.356 113.606Z" fill="black"/>
<path d="M118.882 116.031C118.598 116.031 118.36 116.259 118.355 116.546C118.355 116.829 118.585 117.07 118.874 117.07C119.163 117.07 119.397 116.842 119.401 116.555C119.401 116.272 119.171 116.031 118.882 116.031Z" fill="black"/>
<path d="M97.1061 163.891C96.83 163.966 96.6627 164.253 96.7338 164.528C96.6962 165.301 96.1943 166.033 95.9852 166.799C95.6256 167.834 95.3286 168.891 94.8602 169.885C94.3584 171.091 93.7938 172.268 93.2417 173.453C93.0452 173.778 92.7859 174.281 93.2334 174.543C94.0865 174.917 94.2873 173.458 94.6344 172.938C95.2994 171.498 95.9894 170.064 96.4996 168.558C96.8175 167.568 97.1311 166.678 97.5201 165.684C97.8003 165.131 98.1098 163.791 97.1061 163.895V163.891Z" fill="black"/>
<path d="M91.7193 176.381C91.4349 176.381 91.1966 176.61 91.1924 176.897C91.1924 177.18 91.4224 177.421 91.711 177.421C91.9995 177.421 92.2337 177.192 92.2379 176.905C92.2379 176.623 92.0079 176.381 91.7193 176.381Z" fill="black"/>
<path d="M75.6096 95.3592C75.3587 93.1007 75.2082 90.8381 75.618 88.5796C75.6598 87.9266 76.2662 86.3877 75.1287 86.4584C74.8527 86.5333 74.6854 86.8203 74.7565 87.0948C74.6854 88.2635 74.3592 89.4323 74.3215 90.6135C74.3383 92.2398 74.3508 93.8785 74.5725 95.4881C74.6728 96.1661 75.6933 96.0289 75.6096 95.3634V95.3592Z" fill="black"/>
<path d="M75.3168 98.7449C74.9153 98.9778 75.0701 99.4395 75.2917 99.7431C75.4339 99.9927 75.7643 100.072 76.0069 99.9303C76.4084 99.6974 76.2536 99.2357 76.032 98.9321C75.8898 98.6867 75.5636 98.6035 75.3168 98.7449Z" fill="black"/>
<path d="M112.078 3.8264C113.676 3.27738 115.411 3.38136 117.08 3.43127C117.502 3.49366 118.075 3.62676 118.176 3.05694C118.218 2.76995 118.013 2.52039 117.732 2.47048C116.009 2.29164 114.215 2.24588 112.513 2.62438C111.961 2.85729 110.301 2.96128 110.593 3.81392C110.89 4.45861 111.605 3.94286 112.082 3.8264H112.078Z" fill="black"/>
<path d="M107.863 5.41115C108.147 5.41115 108.39 5.18239 108.394 4.89956C108.394 4.61673 108.164 4.37134 107.879 4.37134C107.595 4.37134 107.352 4.6001 107.348 4.88293C107.348 5.16575 107.578 5.41115 107.863 5.41115Z" fill="black"/>
<path d="M84.1705 33.403C85.5005 32.9787 86.8262 32.5004 87.9303 31.6187C88.1603 31.4523 88.2022 31.1154 88.0349 30.8908C87.6543 30.4083 87.1566 30.895 86.8053 31.1445C85.5799 31.9223 84.1287 32.3632 82.7151 32.725C82.2091 32.8789 81.2095 32.646 81.243 33.4279C81.3727 34.3887 83.5599 33.5569 84.1705 33.403Z" fill="black"/>
<path d="M78.7797 32.804C78.4953 32.804 78.2527 33.0327 78.2485 33.3155C78.2485 33.5984 78.4786 33.8438 78.7629 33.8438C79.0473 33.8438 79.2899 33.615 79.2941 33.3322C79.2941 33.0493 79.0641 32.804 78.7797 32.804Z" fill="black"/>
<path d="M103.739 26.1992C104.023 26.1992 104.266 25.9705 104.27 25.6876C104.27 25.4048 104.04 25.1594 103.755 25.1594C103.471 25.1594 103.229 25.3882 103.224 25.671C103.224 25.9538 103.454 26.1992 103.739 26.1992Z" fill="black"/>
<path d="M42.0937 166.208C42.5286 166.229 43.1643 166.516 43.4069 165.991C43.8878 164.627 40.0109 165.247 39.3669 165.576C37.3636 166.345 35.3771 167.551 34.4863 169.573C34.3441 169.818 34.4068 170.138 34.6536 170.288C35.4942 170.679 35.6782 169.311 36.1173 168.857C37.6313 167.31 39.8478 166.083 42.0937 166.208Z" fill="black"/>
<path d="M33.3152 172.359C33.0308 172.359 32.7882 172.58 32.7798 172.867C32.7757 173.145 33.0057 173.399 33.2901 173.399C33.5745 173.399 33.817 173.179 33.8254 172.892C33.8296 172.613 33.5996 172.359 33.3152 172.359Z" fill="black"/>
<path d="M17.2222 200.127C15.2524 199.228 13.4164 198.259 11.6599 196.949C11.1287 196.662 10.2421 195.372 9.65242 196.242C9.49349 196.57 9.72351 196.899 10.0455 196.999C12.0614 198.696 14.3825 199.981 16.7788 201.071C17.3978 201.349 17.8369 200.418 17.2222 200.127Z" fill="black"/>
<path d="M20.0032 201.474C20.0618 202.173 21.283 202.065 21.2119 201.366C21.1533 200.671 19.9321 200.771 20.0032 201.474Z" fill="black"/>
<path d="M115.621 199.295C114.362 199.012 113.069 198.87 111.836 198.471C109.937 197.96 108.101 197.107 106.269 196.354C105.83 196.217 105.115 196.358 105.203 196.945C105.249 197.223 105.525 197.419 105.805 197.369C106.022 197.302 106.211 197.452 106.411 197.527C107.097 197.843 107.812 198.13 108.536 198.434C110.715 199.357 113.032 199.889 115.386 200.31C115.658 200.372 115.951 200.201 116.014 199.923C116.081 199.648 115.901 199.357 115.625 199.299L115.621 199.295Z" fill="black"/>
<path d="M119.426 199.831C119.142 199.831 118.912 200.089 118.92 200.368C118.929 200.659 119.175 200.871 119.46 200.871C119.744 200.871 119.974 200.613 119.966 200.335C119.957 200.043 119.711 199.831 119.426 199.831Z" fill="black"/>
<path d="M148.062 196.462C147.296 196.462 146.543 196.233 145.782 196.254C145.502 196.292 145.31 196.583 145.356 196.853C145.406 197.14 145.678 197.319 145.958 197.277C146.623 197.352 147.284 197.473 147.957 197.494C148.639 197.552 148.743 196.533 148.062 196.458V196.462Z" fill="black"/>
<path d="M143.75 196.063C143.465 196.063 143.235 196.321 143.244 196.6C143.252 196.891 143.499 197.103 143.783 197.103C144.068 197.103 144.298 196.845 144.289 196.566C144.281 196.275 144.034 196.063 143.75 196.063Z" fill="black"/>
</g>
<defs>
<clipPath id="clip0_1453_4902">
<rect width="191" height="208" fill="white"/>
</clipPath>
</defs>
</svg>
