<svg xmlns="http://www.w3.org/2000/svg" width="204" height="22" fill="none"><path fill="#0D0C22" d="M85.824.123c-6.67 0-11.323 4.804-11.323 10.939C74.5 17.194 79.153 22 85.823 22c6.67 0 11.323-4.803 11.323-10.938 0-6.135-4.652-10.939-11.323-10.939Zm.2 18.532c-2.722.071-4.345-2.46-4.476-7.434-.146-5.476 1.353-7.685 4.038-7.756C88.378 3.392 89.957 5.558 90.1 11c.134 5.006-1.318 7.585-4.075 7.655ZM50.256.486h-8.814c-.49 0-.797.303-.797.786v1.15c0 .512.183.694.642.875l.582.212c.642.241.857.574.857 1.238v12.63c0 .665-.215.996-.857 1.238l-.582.212c-.46.18-.642.362-.642.875v1.149c0 .483.308.787.797.787h8.814c.49 0 .796-.304.796-.787v-1.149c0-.513-.182-.695-.642-.875l-.581-.212c-.642-.242-.857-.575-.857-1.238V4.747c0-.666.215-.997.856-1.238l.582-.212c.46-.18.642-.363.642-.876V1.272c-.002-.485-.307-.786-.796-.786ZM73.808 18.856l-.337-.18c-.827-.454-1.439-.786-2.233-2.024L68.36 12.09c-.153-.242-.063-.424.215-.483 2.417-.634 3.793-2.025 3.793-4.503 0-4.68-3.697-6.618-11.591-6.618l-7.015.059c-.49.061-.734.333-.734.786v1.15c0 .512.182.695.582.845l.704.272c.582.241.797.544.797 1.149v12.63c0 .665-.215.996-.857 1.238l-.582.212c-.46.18-.642.362-.642.875v1.149c0 .483.307.787.797.787h8.813c.52 0 .797-.304.797-.787v-1.149c0-.513-.185-.695-.642-.875l-.582-.212c-.642-.242-.856-.575-.856-1.238v-4.683c0-.271.092-.363.307-.363.244 0 .397.18.611.545l4.194 7.494c.52.937.919 1.27 1.988 1.27h5.354c.52 0 .735-.271.735-.666v-1.087c-.005-.488-.157-.698-.74-1.03ZM62.484 9.792h-.674a.416.416 0 0 1-.434-.429V3.591c0-.249.18-.429.434-.429h.707c2.38 0 3.856.853 3.856 3.215 0 2.364-1.141 3.415-3.889 3.415ZM202.776 3.506l.582-.212c.459-.18.642-.362.642-.875v-1.15c0-.483-.275-.786-.797-.786h-8.813c-.49 0-.797.303-.797.787v1.149c0 .513.182.695.642.875l.582.212c.642.242.856.575.856 1.238v3.807a.35.35 0 0 1-.367.363h-6.488a.35.35 0 0 1-.367-.363V4.744c0-.665.215-.996.857-1.238l.581-.212c.46-.18.642-.362.642-.875v-1.15c0-.483-.274-.786-.796-.786h-8.814c-.489 0-.796.303-.796.787v1.149c0 .513.182.695.641.875l.582.212c.642.242.857.575.857 1.238v12.63c0 .666-.215.997-.857 1.238l-.582.212c-.459.18-.641.363-.641.876v1.149c0 .483.307.786.796.786h8.814c.519 0 .796-.303.796-.786v-1.15c0-.512-.184-.695-.642-.875l-.581-.212c-.642-.241-.857-.574-.857-1.238V12.36a.35.35 0 0 1 .367-.363h6.488a.35.35 0 0 1 .367.363v5.015c0 .666-.214.997-.856 1.238l-.582.212c-.46.18-.642.363-.642.876v1.149c0 .483.307.786.797.786h8.813c.52 0 .797-.303.797-.786v-1.15c0-.512-.183-.695-.642-.875l-.582-.212c-.642-.241-.857-.574-.857-1.238V4.744c0-.663.215-.996.857-1.238ZM172.18 8.221l-3.734-1.087c-1.836-.543-2.815-1.18-2.815-2.237 0-1.028.979-1.68 2.48-1.692 2.104-.016 3.981.937 6.673 3.808.367.392.765.545 1.316.241l.642-.362c.552-.301.635-.75.368-1.208l-2.674-4.562c-.307-.538-.52-.908-1.164-.908h-.296c-.734 0-.826.333-1.561.333-.949 0-1.967-.362-3.703-.362-4.805 0-7.927 2.295-7.927 6.344 0 3.384 2.48 5.287 5.539 6.286l3.979 1.3c1.958.633 2.999 1.36 2.999 2.69 0 1.42-1.101 2.053-2.907 2.053-2.755 0-5.142-1.54-7.65-4.803-.397-.513-.796-.604-1.316-.362l-1.009.483c-.459.212-.589.668-.305 1.238l2.817 5.71c.254.514.612.726 1.042.726h.364c.675 0 1.132-.454 1.746-.454 1.132 0 2.265.545 4.805.545 5.08 0 8.691-2.328 8.691-6.799-.004-4.142-2.789-5.895-6.4-6.921ZM156.683.486h-8.813c-.49 0-.797.303-.797.786v1.15c0 .512.183.694.642.875l.582.212c.642.241.857.574.857 1.238v12.63c0 .665-.215.996-.857 1.238l-.582.212c-.459.18-.642.362-.642.875v1.149c0 .483.307.787.797.787h8.813c.49 0 .797-.304.797-.787v-1.149c0-.513-.182-.695-.642-.875l-.582-.212c-.642-.242-.856-.575-.856-1.238V4.747c0-.666.214-.997.856-1.238l.582-.212c.46-.18.642-.363.642-.876V1.272c-.002-.485-.307-.786-.797-.786ZM143.39.575c-.203-.35-.397-.575-.856-.575h-.61c-.337 0-.524.078-.778.274-.277.21-.517.21-1.118.21h-11.397c-.489 0-.797.303-.797.786v1.149c0 .513.183.695.642.875l.582.212c.642.242.857.575.857 1.238v12.63c0 .666-.215.997-.857 1.238l-.582.212c-.459.18-.642.363-.642.876v1.149c0 .483.308.786.797.786h9.243c.52 0 .797-.303.797-.786v-1.15c0-.512-.153-.754-.642-.875l-1.009-.271c-.674-.18-.857-.513-.857-1.179v-5.318a.35.35 0 0 1 .367-.363h.52c2.387 0 3.856 1.208 5.354 2.932.215.242.49.333.857.15l.764-.392c.337-.18.462-.472.307-.786l-2.371-4.806c-.136-.276-.305-.44-.656-.44h-.376c-.259 0-.423.068-.658.255-.21.162-.469.278-.797.278h-2.944a.35.35 0 0 1-.367-.362V4.655c0-1.087.43-1.511 1.591-1.511 1.99 0 4.713 1.723 6.304 3.294.274.271.612.333.979.121l.826-.513c.275-.18.462-.467.275-.787L143.39.575ZM119.474 19.098l-.705-.242c-.642-.212-.856-.574-.856-1.238V4.475c0-.665.214-.998.856-1.238l.582-.212c.46-.18.642-.362.642-.875v-.876c0-.483-.275-.786-.797-.786h-5.876c-.49 0-.797.303-.797.786v.876c0 .513.185.695.642.875l.582.212c.642.242.857.575.857 1.238v7.403a.227.227 0 0 1-.229.226.225.225 0 0 1-.175-.083l-7.812-10.808c-.194-.292-.392-.486-.595-.581-.204-.096-.485-.144-.841-.144h-5.83c-.49 0-.797.303-.797.786v1.15c0 .512.185.695.642.875l.582.212c.642.242.857.574.857 1.238v12.899c0 .666-.215.996-.857 1.238l-.582.212c-.46.18-.642.362-.642.875v.876c0 .483.307.786.797.786h5.876c.52 0 .797-.303.797-.786v-.876c0-.513-.183-.695-.642-.875l-.582-.212c-.642-.242-.857-.575-.857-1.238v-8.33c0-.126.102-.226.229-.226.072 0 .134.032.176.082l8.649 11.736c.194.292.393.486.596.582.203.095.485.143.84.143h5.115c.519 0 .796-.303.796-.786v-.876c0-.513-.182-.725-.641-.875ZM34.735 10.758l-5.68-9.714a.786.786 0 0 0-.68-.387H17.012c-.28 0-.54.148-.68.387l-4.88 8.349a.354.354 0 0 1-.393.16.347.347 0 0 1-.259-.333V5.99C10.8 3.05 8.377.658 5.401.658H.785A.781.781 0 0 0 0 1.434v4.557a5.229 5.229 0 0 0 3.267 4.843c.13.052.215.178.215.316 0 .14-.085.265-.215.317A5.21 5.21 0 0 0 0 16.303v4.557a.78.78 0 0 0 .785.775h4.616c2.976 0 5.398-2.391 5.398-5.33v-3.23c0-.155.107-.292.259-.333a.358.358 0 0 1 .393.16l4.88 8.348c.142.24.4.388.68.388h11.362c.28 0 .54-.149.68-.388l5.68-9.714a.761.761 0 0 0 .103-.386.75.75 0 0 0-.101-.392ZM22.779 15.22c-2.217 0-4.02-1.828-4.02-4.074 0-2.246 1.803-4.074 4.02-4.074 2.216 0 4.02 1.828 4.02 4.074 0 2.246-1.804 4.074-4.02 4.074Z"/></svg>