<svg width="1009" height="417" viewBox="0 0 1009 417" fill="none" xmlns="http://www.w3.org/2000/svg">
<g clip-path="url(#clip0_1_62)">
<rect width="1009" height="417" fill="white"/>
<circle cx="65.0376" cy="65.0376" r="63.0376" stroke="#1E1E1E" stroke-width="4" stroke-miterlimit="0"/>
<path d="M55.4756 68.8288C54.7398 68.8288 54.1266 68.5748 53.6361 68.0668C53.1543 67.5587 52.9178 66.9368 52.9266 66.201C52.9353 65.474 53.2069 64.8652 53.7412 64.3746C54.2843 63.8754 54.915 63.6257 55.6333 63.6257C56.3515 63.6257 56.9647 63.8797 57.4728 64.3878C57.9808 64.8958 58.2173 65.5002 58.1823 66.201C58.156 66.6915 58.0158 67.1383 57.7618 67.5412C57.5165 67.9354 57.1924 68.2507 56.7895 68.4872C56.3866 68.715 55.9486 68.8288 55.4756 68.8288ZM65.2511 68.8288C64.5153 68.8288 63.9022 68.5748 63.4116 68.0668C62.9299 67.5587 62.6933 66.9368 62.7021 66.201C62.7109 65.474 62.9824 64.8652 63.5167 64.3746C64.0598 63.8754 64.6905 63.6257 65.4088 63.6257C66.1271 63.6257 66.7402 63.8797 67.2483 64.3878C67.7563 64.8958 67.9928 65.5002 67.9578 66.201C67.9315 66.6915 67.7914 67.1383 67.5373 67.5412C67.2921 67.9354 66.968 68.2507 66.565 68.4872C66.1621 68.715 65.7241 68.8288 65.2511 68.8288ZM75.0266 68.8288C74.2908 68.8288 73.6777 68.5748 73.1871 68.0668C72.7054 67.5587 72.4689 66.9368 72.4776 66.201C72.4864 65.474 72.7579 64.8652 73.2922 64.3746C73.8353 63.8754 74.466 63.6257 75.1843 63.6257C75.9026 63.6257 76.5157 63.8797 77.0238 64.3878C77.5318 64.8958 77.7683 65.5002 77.7333 66.201C77.707 66.6915 77.5669 67.1383 77.3128 67.5412C77.0676 67.9354 76.7435 68.2507 76.3405 68.4872C75.9376 68.715 75.4996 68.8288 75.0266 68.8288Z" fill="black" fill-opacity="0.8"/>
<circle cx="241.038" cy="65.0376" r="63.0376" stroke="#1E1E1E" stroke-width="4" stroke-miterlimit="0"/>
<path d="M211.159 66.017L209.188 78H205.26L208.623 57.8182H212.394L211.842 61.103H212.092C212.731 60.0256 213.603 59.1671 214.707 58.5277C215.819 57.8795 217.133 57.5554 218.648 57.5554C220.015 57.5554 221.162 57.8445 222.091 58.4226C223.028 58.992 223.69 59.8416 224.075 60.9716C224.469 62.1016 224.53 63.4987 224.259 65.163L222.104 78H218.175L220.238 65.636C220.475 64.1732 220.282 63.0301 219.66 62.2067C219.047 61.3745 218.07 60.9585 216.73 60.9585C215.819 60.9585 214.974 61.1555 214.194 61.5497C213.423 61.9439 212.771 62.522 212.237 63.2841C211.711 64.0374 211.352 64.9484 211.159 66.017ZM249.319 62.8374V66.2536H237.388V62.8374H249.319ZM273.097 51.0909V78H269.024V55.1641H268.866L262.428 59.3686V55.4794L269.142 51.0909H273.097Z" fill="black" fill-opacity="0.8"/>
<circle cx="417.038" cy="65.0376" r="63.0376" stroke="#1E1E1E" stroke-width="4" stroke-miterlimit="0"/>
<path d="M412.853 66.017L410.882 78H406.953L410.317 57.8182H414.088L413.536 61.103H413.786C414.425 60.0256 415.297 59.1671 416.4 58.5277C417.513 57.8795 418.827 57.5554 420.342 57.5554C421.709 57.5554 422.856 57.8445 423.785 58.4226C424.722 58.992 425.383 59.8416 425.769 60.9716C426.163 62.1016 426.224 63.4987 425.953 65.163L423.798 78H419.869L421.932 65.636C422.168 64.1732 421.976 63.0301 421.354 62.2067C420.741 61.3745 419.764 60.9585 418.424 60.9585C417.513 60.9585 416.668 61.1555 415.888 61.5497C415.117 61.9439 414.465 62.522 413.93 63.2841C413.405 64.0374 413.045 64.9484 412.853 66.017Z" fill="black" fill-opacity="0.8"/>
<circle cx="593.038" cy="65.0376" r="63.0376" fill="#FFC7C2" fill-opacity="0.7"/>
<path d="M559.401 66.017L557.43 78H553.502L556.865 57.8182H560.636L560.085 61.103H560.334C560.974 60.0256 561.845 59.1671 562.949 58.5277C564.061 57.8795 565.375 57.5554 566.891 57.5554C568.257 57.5554 569.405 57.8445 570.333 58.4226C571.27 58.992 571.932 59.8416 572.317 60.9716C572.711 62.1016 572.773 63.4987 572.501 65.163L570.346 78H566.418L568.481 65.636C568.717 64.1732 568.524 63.0301 567.902 62.2067C567.289 61.3745 566.313 60.9585 564.972 60.9585C564.061 60.9585 563.216 61.1555 562.436 61.5497C561.666 61.9439 561.013 62.522 560.479 63.2841C559.953 64.0374 559.594 64.9484 559.401 66.017ZM593.58 73.4801V55.7159H597.114V73.4801H593.58ZM586.471 66.3587V62.8374H604.235V66.3587H586.471ZM628.855 51.0909V78H624.782V55.1641H624.624L618.186 59.3686V55.4794L624.9 51.0909H628.855Z" fill="black" fill-opacity="0.8"/>
<circle cx="593.038" cy="209.038" r="63.0376" fill="#AFF4C6" fill-opacity="0.7"/>
<path d="M559.401 210.017L557.43 222H553.502L556.865 201.818H560.636L560.085 205.103H560.334C560.974 204.026 561.845 203.167 562.949 202.528C564.061 201.879 565.375 201.555 566.891 201.555C568.257 201.555 569.405 201.844 570.333 202.423C571.27 202.992 571.932 203.842 572.317 204.972C572.711 206.102 572.773 207.499 572.501 209.163L570.346 222H566.418L568.481 209.636C568.717 208.173 568.524 207.03 567.902 206.207C567.289 205.375 566.313 204.958 564.972 204.958C564.061 204.958 563.216 205.156 562.436 205.55C561.666 205.944 561.013 206.522 560.479 207.284C559.953 208.037 559.594 208.948 559.401 210.017ZM593.58 217.48V199.716H597.114V217.48H593.58ZM586.471 210.359V206.837H604.235V210.359H586.471ZM628.855 195.091V222H624.782V199.164H624.624L618.186 203.369V199.479L624.9 195.091H628.855Z" fill="black" fill-opacity="0.8"/>
<circle cx="769.038" cy="65.0376" r="63.0376" fill="#FFC7C2" fill-opacity="0.7"/>
<path d="M732.8 66.017L730.829 78H726.9L730.264 57.8182H734.035L733.483 61.103H733.733C734.372 60.0256 735.244 59.1671 736.347 58.5277C737.46 57.8795 738.774 57.5554 740.289 57.5554C741.656 57.5554 742.803 57.8445 743.732 58.4226C744.669 58.992 745.33 59.8416 745.716 60.9716C746.11 62.1016 746.171 63.4987 745.9 65.163L743.745 78H739.816L741.879 65.636C742.115 64.1732 741.923 63.0301 741.301 62.2067C740.688 61.3745 739.711 60.9585 738.371 60.9585C737.46 60.9585 736.615 61.1555 735.835 61.5497C735.064 61.9439 734.412 62.522 733.877 63.2841C733.352 64.0374 732.992 64.9484 732.8 66.017ZM766.978 73.4801V55.7159H770.512V73.4801H766.978ZM759.87 66.3587V62.8374H777.634V66.3587H759.87ZM792.044 78V75.0568L801.15 65.6229C802.122 64.598 802.923 63.7002 803.554 62.9293C804.194 62.1497 804.671 61.4096 804.986 60.7088C805.302 60.008 805.459 59.2635 805.459 58.4751C805.459 57.5817 805.249 56.8108 804.829 56.1626C804.408 55.5057 803.834 55.002 803.107 54.6516C802.38 54.2925 801.561 54.1129 800.65 54.1129C799.687 54.1129 798.846 54.31 798.128 54.7042C797.409 55.0984 796.858 55.6546 796.472 56.3729C796.087 57.0911 795.894 57.9321 795.894 58.8956H792.018C792.018 57.2576 792.395 55.8254 793.148 54.5991C793.901 53.3728 794.935 52.4223 796.249 51.7479C797.563 51.0646 799.056 50.723 800.729 50.723C802.42 50.723 803.909 51.0602 805.197 51.7347C806.493 52.4004 807.505 53.3114 808.232 54.4677C808.959 55.6152 809.322 56.9116 809.322 58.3569C809.322 59.3555 809.134 60.3321 808.757 61.2869C808.389 62.2417 807.746 63.306 806.826 64.4798C805.906 65.6448 804.627 67.0594 802.989 68.7237L797.642 74.321V74.5181H809.756V78H792.044Z" fill="black" fill-opacity="0.8"/>
<circle cx="769.038" cy="209.038" r="63.0376" fill="#AFF4C6" fill-opacity="0.7"/>
<path d="M732.8 210.017L730.829 222H726.9L730.264 201.818H734.035L733.483 205.103H733.733C734.372 204.026 735.244 203.167 736.347 202.528C737.46 201.879 738.774 201.555 740.289 201.555C741.656 201.555 742.803 201.844 743.732 202.423C744.669 202.992 745.33 203.842 745.716 204.972C746.11 206.102 746.171 207.499 745.9 209.163L743.745 222H739.816L741.879 209.636C742.115 208.173 741.923 207.03 741.301 206.207C740.688 205.375 739.711 204.958 738.371 204.958C737.46 204.958 736.615 205.156 735.835 205.55C735.064 205.944 734.412 206.522 733.877 207.284C733.352 208.037 732.992 208.948 732.8 210.017ZM766.978 217.48V199.716H770.512V217.48H766.978ZM759.87 210.359V206.837H777.634V210.359H759.87ZM792.044 222V219.057L801.15 209.623C802.122 208.598 802.923 207.7 803.554 206.929C804.194 206.15 804.671 205.41 804.986 204.709C805.302 204.008 805.459 203.263 805.459 202.475C805.459 201.582 805.249 200.811 804.829 200.163C804.408 199.506 803.834 199.002 803.107 198.652C802.38 198.292 801.561 198.113 800.65 198.113C799.687 198.113 798.846 198.31 798.128 198.704C797.409 199.098 796.858 199.655 796.472 200.373C796.087 201.091 795.894 201.932 795.894 202.896H792.018C792.018 201.258 792.395 199.825 793.148 198.599C793.901 197.373 794.935 196.422 796.249 195.748C797.563 195.065 799.056 194.723 800.729 194.723C802.42 194.723 803.909 195.06 805.197 195.735C806.493 196.4 807.505 197.311 808.232 198.468C808.959 199.615 809.322 200.912 809.322 202.357C809.322 203.355 809.134 204.332 808.757 205.287C808.389 206.242 807.746 207.306 806.826 208.48C805.906 209.645 804.627 211.059 802.989 212.724L797.642 218.321V218.518H809.756V222H792.044Z" fill="black" fill-opacity="0.8"/>
<circle cx="769.038" cy="353.038" r="63.0376" fill="#BDE3FF" fill-opacity="0.7"/>
<path d="M732.8 354.017L730.829 366H726.9L730.264 345.818H734.035L733.483 349.103H733.733C734.372 348.026 735.244 347.167 736.347 346.528C737.46 345.879 738.774 345.555 740.289 345.555C741.656 345.555 742.803 345.844 743.732 346.423C744.669 346.992 745.33 347.842 745.716 348.972C746.11 350.102 746.171 351.499 745.9 353.163L743.745 366H739.816L741.879 353.636C742.115 352.173 741.923 351.03 741.301 350.207C740.688 349.375 739.711 348.958 738.371 348.958C737.46 348.958 736.615 349.156 735.835 349.55C735.064 349.944 734.412 350.522 733.877 351.284C733.352 352.037 732.992 352.948 732.8 354.017ZM766.978 361.48V343.716H770.512V361.48H766.978ZM759.87 354.359V350.837H777.634V354.359H759.87ZM792.044 366V363.057L801.15 353.623C802.122 352.598 802.923 351.7 803.554 350.929C804.194 350.15 804.671 349.41 804.986 348.709C805.302 348.008 805.459 347.263 805.459 346.475C805.459 345.582 805.249 344.811 804.829 344.163C804.408 343.506 803.834 343.002 803.107 342.652C802.38 342.292 801.561 342.113 800.65 342.113C799.687 342.113 798.846 342.31 798.128 342.704C797.409 343.098 796.858 343.655 796.472 344.373C796.087 345.091 795.894 345.932 795.894 346.896H792.018C792.018 345.258 792.395 343.825 793.148 342.599C793.901 341.373 794.935 340.422 796.249 339.748C797.563 339.065 799.056 338.723 800.729 338.723C802.42 338.723 803.909 339.06 805.197 339.735C806.493 340.4 807.505 341.311 808.232 342.468C808.959 343.615 809.322 344.912 809.322 346.357C809.322 347.355 809.134 348.332 808.757 349.287C808.389 350.242 807.746 351.306 806.826 352.48C805.906 353.645 804.627 355.059 802.989 356.724L797.642 362.321V362.518H809.756V366H792.044Z" fill="black" fill-opacity="0.8"/>
<circle cx="945.038" cy="65.0376" r="63.0376" fill="#FFC7C2" fill-opacity="0.7"/>
<path d="M908.222 66.017L906.251 78H902.322L905.686 57.8182H909.457L908.905 61.103H909.155C909.794 60.0256 910.666 59.1671 911.769 58.5277C912.882 57.8795 914.196 57.5554 915.711 57.5554C917.077 57.5554 918.225 57.8445 919.153 58.4226C920.091 58.992 920.752 59.8416 921.137 60.9716C921.532 62.1016 921.593 63.4987 921.321 65.163L919.167 78H915.238L917.301 65.636C917.537 64.1732 917.345 63.0301 916.723 62.2067C916.11 61.3745 915.133 60.9585 913.793 60.9585C912.882 60.9585 912.036 61.1555 911.257 61.5497C910.486 61.9439 909.833 62.522 909.299 63.2841C908.773 64.0374 908.414 64.9484 908.222 66.017ZM942.4 73.4801V55.7159H945.934V73.4801H942.4ZM935.292 66.3587V62.8374H953.056V66.3587H935.292ZM976.834 78.3679C975.03 78.3679 973.418 78.0569 971.999 77.435C970.589 76.8131 969.472 75.9503 968.649 74.8466C967.834 73.7341 967.396 72.4465 967.335 70.9837H971.46C971.513 71.7808 971.78 72.4728 972.262 73.0597C972.752 73.6378 973.392 74.0845 974.18 74.3999C974.969 74.7152 975.845 74.8729 976.808 74.8729C977.868 74.8729 978.805 74.6889 979.62 74.321C980.443 73.9531 981.087 73.4407 981.551 72.7837C982.016 72.118 982.248 71.3516 982.248 70.4844C982.248 69.5821 982.016 68.7894 981.551 68.1062C981.096 67.4142 980.426 66.8711 979.541 66.4769C978.665 66.0827 977.605 65.8857 976.361 65.8857H974.088V62.5746H976.361C977.36 62.5746 978.236 62.395 978.989 62.0359C979.751 61.6767 980.347 61.1774 980.776 60.538C981.205 59.8898 981.42 59.1321 981.42 58.2649C981.42 57.4328 981.232 56.7101 980.855 56.0969C980.487 55.475 979.961 54.9889 979.278 54.6385C978.604 54.2881 977.807 54.1129 976.887 54.1129C976.011 54.1129 975.192 54.275 974.43 54.5991C973.677 54.9144 973.063 55.3699 972.59 55.9656C972.117 56.5524 971.863 57.2576 971.828 58.081H967.9C967.944 56.6269 968.373 55.348 969.187 54.2443C970.011 53.1406 971.097 52.2778 972.446 51.6559C973.795 51.034 975.293 50.723 976.939 50.723C978.665 50.723 980.154 51.0602 981.407 51.7347C982.668 52.4004 983.64 53.2895 984.324 54.402C985.016 55.5144 985.357 56.732 985.349 58.0547C985.357 59.5613 984.937 60.8402 984.087 61.8913C983.246 62.9425 982.125 63.6476 980.724 64.0067V64.217C982.51 64.4885 983.894 65.198 984.876 66.3455C985.865 67.493 986.356 68.9164 986.347 70.6158C986.356 72.0961 985.944 73.4232 985.112 74.5969C984.289 75.7707 983.163 76.6948 981.735 77.3693C980.307 78.035 978.674 78.3679 976.834 78.3679Z" fill="black" fill-opacity="0.8"/>
<path d="M308.075 63.5376C307.247 63.5376 306.575 64.2092 306.575 65.0376C306.575 65.866 307.247 66.5376 308.075 66.5376V63.5376ZM351.061 66.0983C351.646 65.5125 351.646 64.5627 351.061 63.9769L341.515 54.431C340.929 53.8452 339.979 53.8452 339.393 54.431C338.808 55.0168 338.808 55.9665 339.393 56.5523L347.879 65.0376L339.393 73.5229C338.808 74.1087 338.808 75.0584 339.393 75.6442C339.979 76.23 340.929 76.23 341.515 75.6442L351.061 66.0983ZM308.075 66.5376H350V63.5376H308.075V66.5376Z" fill="#1E1E1E"/>
<path d="M484.075 63.5376C483.247 63.5376 482.575 64.2092 482.575 65.0376C482.575 65.866 483.247 66.5376 484.075 66.5376V63.5376ZM527.061 66.0983C527.646 65.5125 527.646 64.5627 527.061 63.9769L517.515 54.431C516.929 53.8452 515.979 53.8452 515.393 54.431C514.808 55.0168 514.808 55.9665 515.393 56.5523L523.879 65.0376L515.393 73.5229C514.808 74.1087 514.808 75.0584 515.393 75.6442C515.979 76.23 516.929 76.23 517.515 75.6442L527.061 66.0983ZM484.075 66.5376H526V63.5376H484.075V66.5376Z" fill="#1E1E1E"/>
<path d="M660.075 63.5376C659.247 63.5376 658.575 64.2092 658.575 65.0376C658.575 65.866 659.247 66.5376 660.075 66.5376V63.5376ZM703.061 66.0983C703.646 65.5125 703.646 64.5627 703.061 63.9769L693.515 54.431C692.929 53.8452 691.979 53.8452 691.393 54.431C690.808 55.0168 690.808 55.9665 691.393 56.5523L699.879 65.0376L691.393 73.5229C690.808 74.1087 690.808 75.0584 691.393 75.6442C691.979 76.23 692.929 76.23 693.515 75.6442L703.061 66.0983ZM660.075 66.5376H702V63.5376H660.075V66.5376Z" fill="#1E1E1E"/>
<path d="M836.075 63.5376C835.247 63.5376 834.575 64.2092 834.575 65.0376C834.575 65.866 835.247 66.5376 836.075 66.5376V63.5376ZM879.061 66.0983C879.646 65.5125 879.646 64.5627 879.061 63.9769L869.515 54.431C868.929 53.8452 867.979 53.8452 867.393 54.431C866.808 55.0168 866.808 55.9665 867.393 56.5523L875.879 65.0376L867.393 73.5229C866.808 74.1087 866.808 75.0584 867.393 75.6442C867.979 76.23 868.929 76.23 869.515 75.6442L879.061 66.0983ZM836.075 66.5376H878V63.5376H836.075V66.5376Z" fill="#1E1E1E"/>
<path d="M418.538 132.075C418.538 131.247 417.866 130.575 417.038 130.575C416.209 130.575 415.538 131.247 415.538 132.075H418.538ZM527.061 210.098C527.646 209.512 527.646 208.563 527.061 207.977L517.515 198.431C516.929 197.845 515.979 197.845 515.393 198.431C514.808 199.017 514.808 199.967 515.393 200.552L523.879 209.038L515.393 217.523C514.808 218.109 514.808 219.058 515.393 219.644C515.979 220.23 516.929 220.23 517.515 219.644L527.061 210.098ZM415.538 132.075V185.038H418.538V132.075H415.538ZM441.038 210.538H526V207.538H441.038V210.538ZM415.538 185.038C415.538 199.121 426.954 210.538 441.038 210.538V207.538C428.611 207.538 418.538 197.464 418.538 185.038H415.538Z" fill="#1E1E1E"/>
<path d="M660.075 207.538C659.247 207.538 658.575 208.209 658.575 209.038C658.575 209.866 659.247 210.538 660.075 210.538V207.538ZM703.061 210.098C703.646 209.512 703.646 208.563 703.061 207.977L693.515 198.431C692.929 197.845 691.979 197.845 691.393 198.431C690.808 199.017 690.808 199.967 691.393 200.552L699.879 209.038L691.393 217.523C690.808 218.109 690.808 219.058 691.393 219.644C691.979 220.23 692.929 220.23 693.515 219.644L703.061 210.098ZM660.075 210.538H702V207.538H660.075V210.538Z" fill="#1E1E1E"/>
<path d="M594.538 276.075C594.538 275.247 593.866 274.575 593.038 274.575C592.209 274.575 591.538 275.247 591.538 276.075H594.538ZM703.061 354.098C703.646 353.512 703.646 352.563 703.061 351.977L693.515 342.431C692.929 341.845 691.979 341.845 691.393 342.431C690.808 343.017 690.808 343.967 691.393 344.552L699.879 353.038L691.393 361.523C690.808 362.109 690.808 363.058 691.393 363.644C691.979 364.23 692.929 364.23 693.515 363.644L703.061 354.098ZM591.538 276.075V329.038H594.538V276.075H591.538ZM617.038 354.538H702V351.538H617.038V354.538ZM591.538 329.038C591.538 343.121 602.954 354.538 617.038 354.538V351.538C604.611 351.538 594.538 341.464 594.538 329.038H591.538Z" fill="#1E1E1E"/>
<path d="M132.075 63.5376C131.247 63.5376 130.575 64.2092 130.575 65.0376C130.575 65.866 131.247 66.5376 132.075 66.5376V63.5376ZM175.061 66.0983C175.646 65.5125 175.646 64.5627 175.061 63.9769L165.515 54.431C164.929 53.8452 163.979 53.8452 163.393 54.431C162.808 55.0168 162.808 55.9665 163.393 56.5523L171.879 65.0376L163.393 73.5229C162.808 74.1087 162.808 75.0584 163.393 75.6442C163.979 76.23 164.929 76.23 165.515 75.6442L175.061 66.0983ZM132.075 66.5376H174V63.5376H132.075V66.5376Z" fill="#1E1E1E"/>
</g>
<defs>
<clipPath id="clip0_1_62">
<rect width="1009" height="417" fill="white"/>
</clipPath>
</defs>
</svg>
