<svg xmlns="http://www.w3.org/2000/svg" width="278" height="221" fill="none"><g clip-path="url(#a)"><path fill="#E2FFB4" d="M100.304 193.974c-1.264-.844-2.743-1.285-4.012-2.109-2-1.429-3.746-3.221-5.03-5.322-2.414-3.866-2.677-12.215-7.233-14.402-.254.039-.516-.011-.779-.011-.301.019-.516.234-.708.445-.09.199-.153.406-.2.621.04.378.27.773.294 1.124.086.145.172.285.262.43 2.7 4.256 4.501 9.024 6.51 13.605 2.833 6.72 5.667 13.487 8.924 19.958 1.256 2.366 2.473 4.772 3.937 7.021.552.39 1.198.785 1.875.882.955-.273 1.124-1.425 1.081-2.288-.004-.023-.012-.043-.016-.066a.716.716 0 0 1-.118-.461c-.321-1.136-.81-2.265-.782-3.452-.067-2.359.79-4.604 1.264-6.888.481-2.164-.838-4.132-2.063-5.768-.908-1.242-1.961-2.413-3.206-3.319Zm1.3 15.87c-.427 0-.763-.418-.736-.824.027-.442.399-.735.826-.735.427 0 .763.418.736.824-.028.442-.399.735-.826.735Zm.951-6.561c-.231.668-.387 1.39-.364 2.089.055.555-.016 1.293-.716 1.34-.407.027-.83-.297-.838-.727-.012-.562-.016-1.12.047-1.679.059-.496.223-.956.356-1.429a.782.782 0 0 1 .306-.867c.837-.519 1.514.504 1.205 1.273h.004Z"/><path fill="#A4D357" d="M110.822 192.248h-.039c-.423.187-.869.215-1.343-.117-1.593-1.8-2.705-4.018-4.2-5.912-2.078-2.652-4.059-5.381-6.055-8.091a251.389 251.389 0 0 0 5.777 9.469c2.122 3.444 4.412 6.756 6.576 10.169 1.578 2.624 3.171 5.287 4.869 7.806 1.891 2.819 3.887 5.599 6.244 8.048.387.414.782.816 1.174 1.222 1.205-.957 2.391-1.933 3.491-3.015 1.902-1.745 5.715-4.311 3.175-7.072-1.527-1.714-3.363-3.147-4.744-4.99-1.523-2.058-2.842-4.245-4.016-6.51-1.82-1.062-3.903-1.878-5.958-2.186-1.741-.121-3.385.531-4.951 1.179Zm10.666 15.506c.427 0 .763.418.736.824-.028.442-.399.735-.826.735-.427 0-.763-.418-.736-.824.028-.442.399-.735.826-.735Zm-1.648-2.85c.552.863-.697 1.722-1.292.882-.223-.363-.43-.714-.634-1.062.012.016.02.035.032.055-.865-1.488-1.824-2.905-2.67-4.401-.301-.527-.516-1.109-.818-1.636a.795.795 0 0 1-.129-1.133c.904-.878 1.667.512 1.941 1.273 1.057 2.101 2.443 4.038 3.566 6.022h.004Z"/><path fill="#E2FFB4" d="M176.725 158.556a150.814 150.814 0 0 1-1.84-3.772.81.81 0 0 1-.368-.293c-1.37-1.261-3.511-.965-5.21-1.48-2.837-.847-6.133-2.167-7.202-5.182-.329-.812-.583-1.663-.7-2.534-.141-1.129.184-2.273-.008-3.397-1.499-4.85-6.032-8.068-10.58-9.864-4.513-1.625-9.422-2.035-14.17-1.8-4.066.289-8.071.234-12.106-.235-3.296-.535-6.705-1.335-9.531-3.174-3.683-2.867-4.619-6.643-2.509-10.837 1.194-2.678 3.264-4.772 5.327-6.798 3.409-3.296 7.382-5.951 11.547-8.193 2.587-1.636 5.421-2.78 8.149-4.15 3.057-1.57 5.895-3.656 7.95-6.436 2.802-3.807 1.726-8.794 2.482-13.18.684-3.287 2.446-6.427 5.554-7.97.74-.425 1.538-.843 2.305-1.307.231-.223.572-.356.787-.574.939-.695 1.597-1.664 2.172-2.663.814-1.504 1.961-6.303.466-7.498a1.48 1.48 0 0 0-.751-.164.86.86 0 0 1-.458.078c-2.67 3.089-5.606 5.955-8.549 8.774-7.609 6.448-16.017 11.891-24.757 16.682-4.188 2.265-8.509 4.28-12.96 5.979-.654.246-1.311.492-1.98.703-.09.035-.181.074-.278.113-.235.187-.572.312-.873.437-.736.285-1.37.738-1.985 1.227-1.393 1.112-2.704 2.163-3.789 3.557-1.264 1.593-2.199 3.339-3.252 5.06-2.681 4.429-4.478 9.435-4.96 14.601.004 4.425.06 8.88.6 13.273 1.557 5.276 4.011 10.294 7.072 14.866 3.077 4.221 6.752 8.076 10.936 11.211 3.312 2.062 6.811 3.952 10.647 4.803.834.133 1.667.313 2.513.324a1.02 1.02 0 0 1 .497.008c1.902-.129 3.801-.257 5.703-.367 14.279-1.066 28.918.559 42.23 5.905a.773.773 0 0 1 .473-.028c1.104-.433 1.887-1.421 1.977-2.608-.004-.867-.231-1.664-.434-2.464a1.318 1.318 0 0 1-.141-.629l.004-.004Zm-47.702-61.624c.708-.437 1.577-.957 2.301-1.269 1.981-.953 3.981-1.898 5.887-2.995a.791.791 0 0 1 .947-.449c.905.316.568 1.449-.141 1.792-1.933 1.086-4.055 2.136-6.043 3.07-.771.351-1.487.792-2.208 1.23-.364.218-.865.043-1.06-.32-.212-.391-.043-.836.321-1.059h-.004Zm-3.609 1.754c.426 0 .775.382.763.8a.793.793 0 0 1-.802.762c-.427 0-.775-.383-.764-.801a.793.793 0 0 1 .803-.761Zm-21.696.831c-.427 0-.799-.304-.818-.745-.02-.41.32-.817.747-.817s.799.305.818.746c.02.41-.321.816-.747.816Zm1.295-3.05c-.759-.741.313-1.452.779-2.003 1.781-1.964 4.404-2.98 6.822-3.9.869-.543 1.699.722.854 1.311-.474.352-1.092.395-1.625.633-1.554.64-3.064 1.43-4.387 2.464-.685.527-1.441 2.25-2.443 1.5v-.004Zm8.694 33.314c-.427 0-.768-.403-.752-.813.02-.437.388-.749.814-.749.427 0 .767.402.752.812-.02.437-.388.75-.814.75Zm9.049 3.881c-2.231-.363-4.486-.953-6.454-2.081-.364-.219-.462-.73-.239-1.078.634-.879 1.55.16 2.282.363-.028-.012-.055-.019-.082-.031 2.082.777 4.117 1.394 6.298 1.421.426.02.767.387.751.813-.172 1.206-1.734.667-2.552.597l-.004-.004Zm26.573 22.25c-.426 0-.798-.304-.818-.745-.019-.41.321-.817.748-.817s.798.305.818.746c.02.41-.321.816-.748.816Zm10.952.863c-.137.914-.97.859-1.612.461-1.46-.691-3.046-.789-4.627-.781-.759-.109-2.172.258-2.157-.898.028-.426.427-.746.846-.715 1.37.082 2.771.028 4.114.196.939.175 1.847.503 2.72.89a.786.786 0 0 1 .72.844l-.004.003Z"/><path fill="#A4D357" d="M93.69 171.622a.855.855 0 0 1-.24-.137c-1.28-.824-2.626-1.558-4.168-1.698-1.663-.117-3.48-.137-4.943.742.849.394 1.632.988 2.29 1.569 3.373 3.495 3.651 8.685 5.581 12.938 1.35 2.448 3.347 4.646 5.8 6.021 1.097.472 2.173 1 3.183 1.632 1.628 1.164 2.936 2.73 4.063 4.358 4.372 5.686-.071 8.353.751 13.882.224.871.447 1.578.619 2.222.11.207.153.445.164.691.243 1.211.2 2.324-.567 4.108-.11.34-.169.824-.306 1.207 1.046.293 2.216.254 3.277.293 3.961-.035 8.114-.356 11.672-2.234.642-.383 1.233-.843 1.796-1.328-5.143-5.142-8.916-11.437-12.639-17.615-5.796-8.692-11.28-17.541-16.33-26.651h-.003Zm2.959 16.334c-2.153-2.19-3.715-5.021-4.31-8.032-.227-.461-.41-.984.102-1.339 1.413-.664 1.48 1.515 1.75 2.386.759 2.206 1.96 4.299 3.616 5.935.677.758-.462 1.8-1.158 1.05Zm2.94 2.23c-.427 0-.764-.418-.737-.824.028-.441.4-.734.826-.734.427 0 .764.418.736.824-.027.441-.399.734-.826.734ZM123.747 159.958c-2.631-.535-5.183-1.581-7.52-2.819-2.512-1.312-4.974-2.788-6.975-4.823-2.015-1.605-3.73-3.608-5.429-5.518-2.415-2.643-4.329-5.709-5.992-8.864-1.668-3.194-3.096-6.556-4.098-10.016-.439-2.726-.482-5.494-.552-8.251-.031-1.867-.215-3.745-.078-5.612.454-5.131 2.242-10.047 4.744-14.526 1.233-1.933 2.293-3.995 3.714-5.803 1.3-1.679 2.967-3.026 4.654-4.303.517-.422 1.112-.73 1.718-.996l.223-.113a.94.94 0 0 1 .067-.168c.051-.996-1.069-1.492-1.934-1.495a4.2 4.2 0 0 1-.587.004c-1.417.562-2.802 1.23-4.18 1.862a48.306 48.306 0 0 1-4.94 2.335.537.537 0 0 1-.094.094 19.385 19.385 0 0 0-2.787 2.523c-2.2 2.952-2.802 7.083-6 9.27-1.816 1.293-3.652 1.382-5.715.683-1.483-.519-3.041-.515-4.591-.574a21.963 21.963 0 0 0-9.84 2.269c-1.781.98-3.085 2.382-4.6 3.675-2.305 2.175-5.495 3.374-8.665 2.917-1.734-.278-3.425-.801-5.132-1.215-1.307-.504-2.748-.054-3.902.625a.788.788 0 0 1-.145.113c-5.08 6.943-6.905 15.999-7.202 24.859-.086 1.242-.008 2.398.129 3.561.192.231.176.559.117.902.055.391.11.785.169 1.188a.744.744 0 0 1-.102.492c.337 1.487.916 2.928 1.315 4.396 1.14 3.374 3.366 6.276 5.68 8.896 2.372 2.749 5.037 5.354 8.02 7.384.92.617 1.835 1.25 2.755 1.867.051 0 .106.008.157.023 2.157.508 4.497.836 6.677.356 1.089-.231 1.867-1.035 2.662-1.734.775-.766 1.534-1.558 2.192-2.421 2.799-3.671 5.19-8.685 10.54-8.47a9.482 9.482 0 0 1 4.866 1.07c1.546.675 2.787 1.913 4.384 2.464 2.548.554 5.175-.32 7.57-1.086 2.36-.886 5.092-1.734 7.55-.761 2.357 1.031 4.658 2.222 6.6 3.924 1.096.82 2.16 1.679 3.237 2.523a9.383 9.383 0 0 0 2.806 1.851c1.319.07 2.638.179 3.957.324 1.038.062 2.087.105 3.128.066.168-.031.34-.066.509-.101a.875.875 0 0 1 .215-.164c-.023.011-.043.023-.063.031-.031.023-.062.047-.097.066.023-.019.05-.039.078-.058.004 0 .012-.008.019-.012a2.316 2.316 0 0 0 .991-2.202 2.208 2.208 0 0 0-.216-.524l-.007.016Zm-36.242-17.439c-.923-1.34-1.53-2.824-2.172-4.308-.13-.218-.254-.441-.38-.663-.548.343-.88.949-1.436 1.296-1.26.875-1.554 2.417-2.552 3.499-.995 1.066-1.605 2.347-2.603 3.37-2.247 2.589-5.637 4.202-9.093 3.495-.81-.223-1.69-.395-2.321-.988-.364-.356-.724-.719-1.139-1.019-1.593-1.305-1.93-3.675-1.26-5.577-1.7.34-3.445.379-5.245-.054-2.674-.422-4.431-2.464-5.363-4.881-.399-1.332-.32-2.773-.207-4.148.336-3.073 2.959-5.248 5.844-5.951a11.587 11.587 0 0 1 1.878-.386c-2.54-1.976-3.468-5.877-2.712-8.923.806-2.542 3.738-3.659 6.22-3.249 3.123.441 5.886 2.093 8.795 3.206 1.902.824 3.793 1.804 5.855 2.156.396.136.971.078 1.429.164.059-1.547.27-3.078.728-4.573-.082-.98 1.37-1.195 1.55-.203.067.418-.098.832-.2 1.23-.677 2.374-.575 4.854-.41 7.29.133 2.55.309 5.12 1.095 7.568.658 2.531 1.93 4.834 3.175 7.111.477 1.386 1.186 2.648 1.96 3.885.412.922-.954 1.582-1.424.653h-.012Zm5.934-4.214c-.254-.105-.387-.507-.45-.718-.434-1.207-1.049-2.546-1.417-3.726-1.296-3.237-1.855-6.587-2.035-10.051-.055-1.96-.188-3.94.058-5.893a.813.813 0 0 1 .255-.89c.693-.511 1.472.25 1.307.984-.336 4.331-.07 8.802 1.073 13.004.563 1.538 1.021 3.077 1.66 4.576.25.605.48 1.211.692 1.828.208.636-.583 1.23-1.147.878l.004.008Zm1.425 3.253a.79.79 0 0 1-.779-.785c0-.426.36-.777.787-.777a.79.79 0 0 1 .779.785.79.79 0 0 1-.787.777Z"/><path fill="#E2FFB4" d="M78.068 135.798c-.399.031-.904.27-1.342.316-.435.246-.877.477-1.323.684-1.683.874-3.406 1.87-5.17 2.745-.435.406-.878.82-1.203 1.304-.692 1.129-1.123 2.374-1.37 3.667-.16.867-.12 1.827.458 2.542.067.047.118.098.165.148 2.434 1.281 5.687.407 7.683-1.335 1.194-.988 2.094-2.222 2.956-3.495.493-.66 1.092-1.246 1.503-1.964.594-1.316 1.522-2.406 2.665-3.265.106-.132.22-.257.34-.375-1.667-.73-3.538-1.175-5.358-.972h-.004Zm-2.63 8.443c-.983.57-2.345 1.948-3.542 1.437a.792.792 0 0 1-.349-1.051.79.79 0 0 1 .908-.402c.771-.316 1.44-.836 2.126-1.293.869-.542 1.698.727.853 1.309h.004Zm1.593-2.09c-.427 0-.799-.304-.818-.745-.02-.41.32-.817.748-.817.426 0 .798.305.818.746.02.41-.321.816-.748.816Z"/><path fill="#A4D357" d="M184.866 89.029c.446-1.105.924-2.21 1.472-3.269-.055-.414-.274-.773-.529-1.109a1.545 1.545 0 0 1-.418-.168c-3.406.348-6.811.727-10.22.938-.102.136-.208.265-.255.374-1.882 2.953-2.693 6.436-2.935 9.888.974-.32 2.109-.153 2.881.574.685.62 1.072 1.48 1.452 2.304.959 2.3.606 4.873 1.127 7.275.466 1.788.384 4.338 2.239 5.303.826.097 1.71-.414 2.164-1.09.599-.976.376-2.218.353-3.311-.192-1.566-.141-3.152-.145-4.725-.039-4.48 1.319-8.81 2.818-12.98l-.004-.004ZM164.528 148.864c1.225 1.152 2.681 1.82 4.22 2.331a.73.73 0 0 1 .446 0c.967-.242 1.577-1.199 1.738-2.136.184-1.183 0-2.374-.082-3.557a1.25 1.25 0 0 1-.094-.383c-4.776-12.332-8.021-25.296-10.036-38.276a178.575 178.575 0 0 1-1.523-13.6v-.013c0-.047-.004-.093-.008-.14a174.036 174.036 0 0 1-.266-4.456c0-.07.004-.136.016-.203a179.328 179.328 0 0 1-.024-15.085c-.117-.378-.047-.874-.282-1.21-.469-.793-1.002-1.765-1.914-2.097-.336-.18-.732-.273-1.092-.168-.008 0-.015 0-.027.004-.983.562-1.977 1.113-2.885 1.777-2 1.608-3.045 4.322-3.339 6.794-.54 6.26.325 10.637-4.794 15.343-3.895 4.002-9.344 5.502-14.009 8.325-4.145 2.242-8.134 4.811-11.539 8.087-2.161 2.105-4.349 4.311-5.429 7.189-1.464 3.265-.376 6.049 2.344 8.189 2.329 1.488 5.085 2.155 7.766 2.71 2.861.414 5.848.609 8.729.582 2.117-.086 4.172-.235 6.286-.25 5.992-.098 12.228 1.031 17.312 4.315 2.717 1.78 5.108 4.283 6.419 7.271.783 1.445.521 3.081.478 4.647.184 1.417.615 2.932 1.593 4.01h-.004Zm-15.633-21.422c-.427 0-.767-.403-.752-.813.02-.437.388-.749.815-.749.426 0 .767.402.751.812-.019.437-.387.75-.814.75Zm11.155 6.29c-.857-.023-1.064-1.031-1.663-1.483-1.609-1.512-3.519-2.765-5.68-3.3-.97-.324-.516-1.769.478-1.488 1.601.437 3.151 1.144 4.466 2.167 1.025.75 2.055 1.547 2.763 2.617.278.128.47.417.454.738a.789.789 0 0 1-.814.749h-.004Z"/><path fill="#E2FFB4" d="M183.324 136.282c.317.25.607.457.9.649 1.308-.25 2.302-1.367 1.781-2.753-.473-1.89-.865-4.206.521-5.811a4.636 4.636 0 0 1 1.972-1.289c1.539-.538 3.324-.035 3.339-2.276-.137-2.831-1.788-5.299-2.477-8.005-.987-3.483-1.316-7.443.274-10.797.591-1.352 1.972-2.066 3.389-2.234 1.241-.227 2.466-.258 3.562.41 2.732 1.831 2.854 5.541 4.036 8.345.966 2.401 2.348 4.608 3.699 6.806 1.017 1.859 2.567 3.397 4.07 4.846 1.1.715 2.173 1.492 3.19 2.304.944.383 1.793.871 2.701 1.297.407.269 1.053.191 1.531.32l3.264-1.008c-.337-.07-.677-.148-1.018-.246-13.19-4.162-18.475-21.723-14.827-34.031 1.155-4.23 3.738-8.189 7.242-10.567-2.365.316-4.733.59-7.128.668a363.68 363.68 0 0 1-9.437.847c-.024.031-.047.063-.078.09-.619.84-1.155 1.734-1.703 2.62-.857 1.468-1.593 3.124-2.219 4.674a24.31 24.31 0 0 0-.924 2.644c-.075.543-.384 1.187-1.033 1.047-.408-.082-.713-.504-.615-.922.481-1.93 1.26-3.874 2.125-5.635.634-1.55 1.492-2.976 2.423-4.358l-2.759.211c-.012.023-.016.047-.028.07-.25.406-.528.797-.79 1.2-2.545 4.705-4.181 9.914-4.682 15.197-.047 2.175-.07 4.362.153 6.525.055 1.406.106 2.98-.869 4.112-.787.898-1.981 1.543-3.194 1.484-3.926-.351-4-8.536-4.356-11.523-.153-1.527-1.284-5.252-3.37-3.76a1.099 1.099 0 0 1-.137.272c-.032.91-.028 1.808-.028 2.718 1.163 9.61 3.006 19.217 5.633 28.584a2.9 2.9 0 0 1 .223.414c.164.297.391.758.548 1.023 1.311 2.211 3.049 4.304 5.084 5.846l.012-.008Zm3.503-40.017a.83.83 0 0 1 .572-.196c.426 0 .755.426.728.832a.802.802 0 0 1-.259.531.828.828 0 0 1-.571.195c-.427 0-.756-.425-.728-.831a.796.796 0 0 1 .258-.531Zm-.176 27.194c.36-2.066-.752-3.952-1.069-5.932a.792.792 0 0 1 .728-.836c.787-.039.83.719.963 1.297.541 1.8 1.222 3.694.959 5.603-.129 1.164-1.385 1.558-2.203 2.171-.353.371-.983.387-1.28-.058-.642-1.183 1.295-1.574 1.906-2.242l-.004-.003Zm-3.315 3.061a.83.83 0 0 1 .571-.195c.427 0 .756.425.728.832a.797.797 0 0 1-.258.531.832.832 0 0 1-.572.195c-.426 0-.755-.426-.728-.832a.803.803 0 0 1 .259-.531ZM155.999 67.817c.036-.015.071-.027.106-.039.008-.004.016-.008.02-.016a.522.522 0 0 0-.126.055Z"/><path fill="#E2FFB4" d="M215.69 197.773c-9.257-5.541-16.721-14.108-22.812-22.886-20.428-30.9-28.851-69.04-27.246-105.77 1.499-21.457 6.18-45.188 22.639-60.39a37.002 37.002 0 0 1 3.578-2.76.76.76 0 0 1 .074-.383 1.352 1.352 0 0 0-.043-.148 2.27 2.27 0 0 1-.532-.23c-8.216 4.275-14.475 11.82-18.882 19.856-10.889 20.442-13.191 44.317-11.766 67.126a183.247 183.247 0 0 0 7.613 41.064c6.329 20.146 16.052 39.92 31.4 54.72 4.477 4.245 9.664 8.095 15.324 10.774a.806.806 0 0 1 .168-.086.687.687 0 0 1 .415-.02c.25-.168.235-.449.109-.691a.723.723 0 0 1-.035-.176h-.004ZM161.964 81.238c-.019-.671.032-1.339.051-2.007-.18-.449.09-.98.572-1.078.978-.156 1.064 1.012.97 1.71-.125 3.68.263 7.354.486 11.025.086 1.038.105 2.077.223 3.112.047.28.094.582-.082.832-.345.562-1.319.39-1.417-.274-.396-4.424-.724-8.872-.803-13.316v-.004Zm2.114 17.904a.827.827 0 0 1-.571.196c-.427 0-.756-.426-.729-.832a.802.802 0 0 1 .259-.531.828.828 0 0 1 .571-.195c.427 0 .756.425.728.832a.796.796 0 0 1-.258.53ZM49.996 109.112c3.432.917 6.497 1.937 9.813.058 1.792-.98 3.119-2.581 4.697-3.838 3.338-2.749 7.765-3.772 12.004-4.046 1.597.075 3.23-.019 4.795.348 1.401.304 2.865 1.062 4.282.461 3.182-1.281 4.09-4.6 5.562-7.47 0-.079.008-.157.024-.235l-.024.106c0 .035-.008.07-.008.101.102-.867-.536-1.167-1.15-1.511-.533.144-1.069.285-1.605.418-7.01 1.894-14.19 3.093-21.2 4.951-4.606 1.398-9.339 2.695-13.511 5.151a27.063 27.063 0 0 0-6.588 5.217 5.766 5.766 0 0 1 2.909.289Z"/><path fill="#A4D357" d="M42.441 157.701c-1.683-1.203-3.468-1.359-5.436-.894-.513.289-1.018.582-1.488.941-1.158.71-1.785 1.816-2.387 2.979-.498 1.101-1.077 2.261-1.417 3.405-.701 2.066-.87 6.303 1.068 7.709.028 0 .055.011.078.019.85-.097 1.645-.351 2.263-.753 1.397-.746 2.078-2.179 2.595-3.597.92-1.761 1.33-3.717 2.04-5.564.489-1.363 1.232-2.687 2.176-3.784.14-.114.313-.278.5-.461h.008Zm-6.936 9.38c-.426 0-.798-.305-.818-.746-.02-.41.321-.816.748-.816s.798.304.818.745c.02.41-.32.817-.748.817Z"/><path fill="#E2FFB4" d="M109.342 160.243c-1.174-.933-2.348-1.863-3.597-2.69-2.188-1.094-4.004-2.546-6.493-2.117-1.308.152-2.545.586-3.766 1.051-2.235.765-4.45 1.343-6.799 1.331-2.047.063-3.69-1.261-5.33-2.296-1.379-.793-2.893-1.421-4.506-1.425-4.423-.309-6.216 2.71-8.502 5.884-1.612 2.328-3.42 4.624-5.812 6.194a6.397 6.397 0 0 1-.458.211.9.9 0 0 1-.211.207c-.16.109-.267.277-.384.425-.568.512-.356 1.074.063 1.55 2.626.738 5.397.977 8.118.805 4.661.051 9.253-.789 13.695-2.175 4.658-1.222 9.218-2.823 13.978-3.632a65.754 65.754 0 0 1 9.633-1.081c.125-.051.25-.102.356-.188.344-.492.505-1.203.18-1.738a.787.787 0 0 1-.169-.308l.004-.008Zm-25.007.168c-.427 0-.799-.305-.818-.746-.02-.41.32-.816.747-.816s.799.305.818.746c.02.41-.32.816-.747.816Zm13.605-1.628c-.493.726-1.428.886-2.203 1.179-1.852.648-3.77 1.277-5.758 1.191-.861-.07-3.323.121-3.108-1.207.086-.41.513-.699.928-.601 2.994.754 6.063-.25 8.818-1.398.56-.89 1.887-.059 1.323.836ZM36.601 154.694a10.086 10.086 0 0 1 2.49-1.566.905.905 0 0 1 .05-.164c-.144-1.417-1.451-2.378-2.673-2.885-1.522-.328-3.162-.258-4.638.066-3.82 1.468-7.44 3.507-11.003 5.51-.274.156-.548.312-.818.472-.164.192-.368.371-.52.551-1.05 1.156-2.07 2.343-2.74 3.729-.916 2.21-1.464 4.772-.842 7.119.223.632.536 1.238 1.069 1.652 1.217.507 2.477.691 4.031.378 3.88-.535 6.29-4.065 8.271-7.091 2.082-2.901 4.235-5.869 7.323-7.771Zm-10.337 8.693c-1.159 1.569-2.681 2.776-4.536 3.416-.243.367-.744.492-1.112.239-.979-.824.317-1.746 1.143-1.945.794-.332 1.546-.785 2.16-1.39.42-.43.78-.91 1.175-1.355.689-.754 1.843.265 1.17 1.038v-.003Zm1.01-2.168c-.427 0-.799-.304-.818-.746-.02-.41.32-.816.747-.816s.799.305.819.746c.02.41-.321.816-.748.816ZM100.156 169.521c-.607.414-1.155.898-1.699 1.383.157.156.305.324.466.476 3.683 3.835 7.206 7.818 10.928 11.609.466.578.971.984 1.73 1.066 1.057.301 2.153.422 3.222.668.919.262 1.722.801 2.7.851l.118.024a31.61 31.61 0 0 0 1.569-1.824c1.053-1.21 2.408-2.069 3.684-3.014-2.028-.977-3.875-2.296-6.016-3.034-2.564-1.149-5.339-2.183-7.034-4.558-1.092-1.448-2.204-2.87-3.382-4.201-.611-.68-1.084-1.511-1.848-2.031-1.737.356-3.205 1.34-4.434 2.585h-.004Zm17.101 10.352c.426 0 .763.418.736.824-.028.441-.4.734-.826.734-.427 0-.764-.418-.736-.824.027-.441.399-.734.826-.734Zm-12.201-10.008c1.617 2.206 3.355 4.26 5.085 6.365 1.256.367 2.442.945 3.558 1.624.595.352 1.699.77 1.19 1.637a.803.803 0 0 1-1.085.238c-1.444-.941-2.888-1.609-4.485-2.168-2.145-2.221-3.953-4.81-5.891-7.216-.2-.398-.02-.835.348-1.046.517-.278 1.026.132 1.28.57v-.004Z"/><path fill="#A4D357" d="M28.292 149.868c.869-.344 1.741-.692 2.622-1.023.184-.129.407-.188.634-.235 2.09-.769 4.22-1.433 6.416-1.78-.333-.988-.627-1.984-.924-2.937-.329-1.043-.724-2.171-.497-3.268a27.707 27.707 0 0 1-.212-3.644c-3.699 1.254-7.558 1.996-11.382 2.738-4.29.464-8.627.589-12.846 1.534-1.793.356-3.625.649-5.304 1.39-1.307.614-2.775 1.125-3.668 2.32-2.015 2.839-2.176 7.712-.164 10.582 1.163 1.156 2.767 1.804 4.227 2.515 2.744 1.086 5.707.11 8.153-1.269 2.255-1.007 4.35-2.308 6.514-3.487 2.102-1.226 4.301-2.261 6.43-3.432v-.004Zm-14.882-4.526c-1.104.035-2.208.07-3.284.328-1.41.324-2.9.609-4.051 1.499-.29.43-.803.832-1.311.473-.81-.602.011-1.504.606-1.906 2.357-1.441 5.245-1.874 7.97-1.948.426-.032.798.328.818.745a.793.793 0 0 1-.744.817l-.004-.008Zm3.378-.195c-.427 0-.799-.305-.818-.746-.02-.41.32-.816.748-.816.426 0 .798.304.818.745.02.41-.321.817-.748.817Z"/><path fill="#E2FFB4" d="M44.911 162.43c-1.033.136-2.09.328-2.896 1.042-1.002.883-1.816 2.23-1.695 3.601v.043c.325.402.7.761 1.111 1.074 1.457 1.054 3.492 1.155 5.132.492 1.922-.906 2.967-2.835 3.68-4.737.035-.09.054-.191.066-.293-.626-.164-1.19-.578-1.8-.781-1.14-.441-2.392-.566-3.598-.437v-.004Zm.349 4.736c-.427 0-.799-.304-.819-.745-.02-.41.322-.816.748-.816.427 0 .799.304.818.745.02.41-.32.816-.747.816ZM69.359 138.215a3.13 3.13 0 0 1 .121-.113.804.804 0 0 1 .533-.219 254.927 254.927 0 0 0 7.237-3.877c1.613-.891 3.311-2.027 5.163-2.253a27.519 27.519 0 0 1-1.092-5.526c-2.873.773-5.84 1.125-8.807 1.34-2.356.043-4.713.031-7.07.07-3.405-.113-7.71.121-9.628 3.389-.744 1.555-.728 3.39-.434 5.053a9.13 9.13 0 0 0 1.82 2.874c1.972 1.535 4.689 1.465 7.049 1.184 1.546-.278 2.967-1.012 4.423-1.574.227-.113.458-.234.685-.348Zm1.632-5.72c.427 0 .799.304.818.745.02.41-.32.817-.747.817s-.799-.305-.818-.746c-.02-.41.32-.816.747-.816Zm-9.464 5.728c-.76-.101-2.247-.051-2.09-1.164.086-.406.512-.699.931-.601 1.358.348 2.822.262 4.145-.176 1.12-.496 2.255-.949 3.35-1.495.42-.344 1.065-.504 1.41.027.763 1.285-2.2 1.929-2.998 2.406a9.167 9.167 0 0 1-4.744 1.003h-.004ZM30.934 120.807c1.072.531 1.992.996 3.111 1.238 1.386.066 2.834-.516 3.566-1.734.529-.988.6-2.124.905-3.19-.102-.059-.2-.11-.286-.149-1.503-.867-2.822-2.065-4.584-2.421-1.272-.339-2.657-.074-3.847.438-.544.472-1.077.988-1.53 1.558a.695.695 0 0 1-.04.32c-.059 1.753 1.335 3.058 2.697 3.948l.008-.008Zm1.291-4.354c.427 0 .799.305.819.746.02.41-.321.816-.748.816s-.799-.305-.818-.746c-.02-.41.32-.816.747-.816ZM223.977 106.941c-.09.125-.188.242-.29.359a25.332 25.332 0 0 0 6.623-3.14c.462-.3.892-.64 1.307-.999a29.042 29.042 0 0 0-.34-2.093c-.087-.059-.173-.121-.267-.172-1.91-1.27-4.638-1.687-7.452-1.66 2.352 1.886 2.192 5.479.415 7.701l.004.004ZM15.833 138.852c.211 0 .434.035.622.121 2.822-.34 5.66-.547 8.494-.832.794-.152 1.59-.316 2.384-.48a.731.731 0 0 1 .227-.121c.689-.172 1.33-.469 1.976-.754 1.378-.484 2.666-1.257 3.922-1.976.728-.39 1.331-.933 1.895-1.531.278-.261.176-.706.192-1.058-.263-.144-.564-.273-.775-.457a17.702 17.702 0 0 1-1.57-.144c-1.71-.188-3.425-.305-5.135-.484-.22.011-.435 0-.623-.067a36.676 36.676 0 0 1-3.303-.511 30.875 30.875 0 0 1-2.826-.731.743.743 0 0 1-.568-.183 21.343 21.343 0 0 1-.9-.328c-2.47-1.136-4.881-2.448-7.406-3.448-2.176-.383-4.724-.543-6.658.687-.626.484-.884 1.25-1.064 1.992-.18.718-.333 1.448-.431 2.186.035.114.05.239.027.364-.105.484-.047.972.11 1.44 1.014 2.855 5.417 5.331 8.306 5.792a22.16 22.16 0 0 0 3.1.523h.004Zm9.687-6.193c.427 0 .799.304.819.745.019.41-.322.817-.748.817-.427 0-.799-.305-.818-.746-.02-.41.32-.816.747-.816Zm-9.288-2.336c.634.039 1.178.399 1.746.66 1.248.531 2.56.895 3.906 1.062 1.167-.035 1.264 1.594.086 1.586-2.066-.168-3.996-.965-5.871-1.75-1.018-.105-.896-1.612.133-1.558Z"/><path fill="#A4D357" d="M20.299 127.317c.419.304.838.613 1.24.941.008.004.012.008.02.011a24.83 24.83 0 0 0 3.828.918c.861.156 1.695.281 2.533.375.227-.012.462.016.693.027 1.612-.187 3.21-.542 4.775-.933 1.319-.316 2.74-1.589 1.78-2.976-.144-.285-.242-.441-.3-.687-1.402-.41-2.72-1.058-3.942-1.8-1.703-.988-3.323-2.113-4.948-3.218-1.123-.48-2.156-.968-3.35-1.202-1.495-.282-2.936.187-4.282.804-.587.277-1.178.566-1.636 1.039-.008.012-.02.019-.028.031a.674.674 0 0 1-.223.394c-.61 2.636 2.094 4.714 3.844 6.28l-.004-.004Zm5.746-4.499c.427 0 .798.305.818.746.02.41-.321.816-.748.816-.426 0-.798-.304-.818-.746-.02-.41.321-.816.748-.816Zm-7.284-1.484c.43-.851 1.64-.753 2.454-.804a6.417 6.417 0 0 1 2.732.636c.908.485.22 1.832-.709 1.394-1.002-.488-2.172-.577-3.24-.343-.235.117-.486.226-.764.117-.391-.141-.63-.601-.473-.996v-.004Z"/><path fill="#E2FFB4" d="M68.701 126.008h.008c.016.004.032.012.047.016l-.05-.016a.222.222 0 0 1-.052-.007c.04.007.07.019.106.031.493-.008.986-.012 1.48 0a39.05 39.05 0 0 0 4.43-.199c.29-.238.752-.207 1.085-.418a10.067 10.067 0 0 0 3.096-2.886c.387-.465.673-.992.975-1.507-1.809-.223-3.531-.953-5.19-1.679-1.406-.633-2.854-1.172-4.248-1.832-2.724-1.117-6.055-2.975-8.916-1.323-1.221.816-1.538 2.151-1.444 3.533.027.063.054.125.07.196 1.683 3.241 5.276 5.006 8.607 6.095l-.004-.004Zm4.318-3.725c.426 0 .798.305.818.746.02.41-.321.816-.748.816-.426 0-.798-.304-.818-.746-.02-.41.321-.816.748-.816Zm-7.75-1.398c.281-.418.841-.422 1.213-.129.599.344 1.225.625 1.86.902.352.149.708.289 1.064.418.317.113.689.168.885.48.426.637-.31 1.477-.995 1.129-1.323-.437-2.622-.996-3.82-1.714-.364-.227-.442-.742-.211-1.086h.004ZM113.394 188.569c.731-.542 1.428-1.14 2.207-1.616.074-.055.161-.098.247-.141-.537-.211-1.041-.511-1.621-.617-1.428-.293-2.908-.472-4.27-1.003-2.701-2.281-4.948-5.104-7.378-7.677-1.875-1.765-3.453-3.87-5.378-5.553-.145.109-.294.215-.447.32.188.215.368.437.54.664 4.29 5.955 8.909 11.68 12.968 17.806.99-.808 2.094-1.441 3.132-2.179v-.004Z"/><path fill="#A4D357" d="M190.851 128.172c-1.785.191-3.793.824-3.711 2.94a4.87 4.87 0 0 0 .083 1.258c.007.015.019.031.027.05.724 1.344 1.55 2.968 3.249 3.124.184-.039.34-.035.477 0 3.398-1.007 6.795-2.007 10.181-2.975 2.642-.812 5.288-1.621 7.938-2.425.012-.004.02-.012.031-.016.56-.777.564-1.882.145-2.722-.309-.335-.697-.652-.908-1.058a1.802 1.802 0 0 0-.661-.586c-.235-.195-.486-.456-.619-.734-1.765-1.534-3.272-3.334-4.415-5.404-1.249-1.999-2.474-4.038-3.382-6.217-.9-2.175-1.268-4.572-2.376-6.665-.88-1.687-2.434-1.765-4.102-1.355-2.431.476-2.478 3.533-2.72 5.513-.043 2.484.513 5.006 1.354 7.275.904 2.546 2.56 5.307 1.699 8.068-.384.976-1.214 1.82-2.294 1.925l.004.004Z"/><path fill="#A4D357" d="M210.688 7.911c-10.435-1.234-19.723 4.725-25.599 12.953-12.564 17.912-15.057 41.841-14.599 63.159.309-.04.618-.036.931-.028 3.66.024 7.312-.476 10.968-.765 4.795-.535 9.601-.96 14.416-1.234 3.456-.371 6.912-.71 10.388-.922 3.029-.289 6.043-.89 9.081-1.05a.76.76 0 0 1 .61-.05 12.943 12.943 0 0 1 3.456.233c8.576 1.848 14.025 10.192 16.033 18.229 1.358 5.482 1.378 11.371-.388 16.764-1.726 5.693-6.09 10.629-11.64 11.859a1274.166 1274.166 0 0 1-14.53 4.498 1 1 0 0 1-.094.055.854.854 0 0 1-.219.039 1897.292 1897.292 0 0 1-17.171 5.116c-2.494.73-4.92 1.448-7.402 2.19-.822.231-1.703.441-2.486.68-.403.058-.955.293-1.467.394 4.924 13.781 11.719 26.808 20.749 38.268 8.063 9.728 19.03 19.096 32.307 18.908 25.004-1.21 34.12-34.672 36.116-55.173 3.613-38.405-6.239-84.627-30.448-115.266-7.457-8.989-17.027-17.427-29.004-18.864l-.008.007Zm-35.106 46.231c-.427 0-.759-.418-.736-.824.027-.445.399-.734.826-.734.427 0 .759.418.736.824-.028.445-.399.734-.826.734Zm3.092-10.52c-.513 1.14-.755 2.363-1.104 3.557-.195 1.047-.462 2.07-.708 3.101a.783.783 0 0 1-.92.613c-1.069-.277-.45-1.507-.29-2.226.208-.94.415-2.073.701-2.94.243-1.289.83-2.472 1.253-3.69a.79.79 0 0 1 .825-.734.786.786 0 0 1 .736.824c-.019.538-.297 1.007-.497 1.495h.004Zm8.451 106.359c-1.19-2.324-2.372-4.674-3.128-7.185-.258-.359-.144-.945.274-1.137a.815.815 0 0 1 1.163.489c.728 2.503 1.894 4.799 3.073 7.103.465.902-.893 1.628-1.386.73h.004Zm1.98 3.186c-.426 0-.767-.402-.747-.816.019-.437.391-.746.818-.746.426 0 .767.403.747.816-.019.438-.391.746-.818.746Zm71.438 15.214c.481-1.035.947-2.085 1.331-3.159.994-3.194 1.546-6.494 2.211-9.762-.477-.891.818-1.644 1.358-.778.415.684.094 1.496-.039 2.218-.156.715-.321 1.43-.462 2.148-.551 3.144-1.264 6.303-2.618 9.208-.29.64-.623 1.753-1.538 1.285-.419-.238-.49-.77-.243-1.156v-.004Zm-.595 3.956c.434.96-.983 1.616-1.421.656-.434-.961.983-1.613 1.421-.656Zm-21.454-77.1c-.888-3.444-2.759-6.306-4.849-9.07-.916-1.016-1.863-2.012-2.999-2.77-.771-.616.153-1.8.92-1.26 2.552 1.73 4.349 4.295 5.934 6.888a21.814 21.814 0 0 1 2.517 5.842c.11.367.223.734.333 1.1.18.645-.631 1.204-1.178.832-.474-.331-.486-1.132-.678-1.57v.008Zm1.719 5.795c-.427 0-.768-.402-.748-.816.02-.437.391-.745.818-.745.427 0 .767.402.748.816-.02.437-.392.745-.818.745Zm6.063-59.92c1.021.53.289 1.979-.713 1.409-1.017-.531-.289-1.98.713-1.41Zm-9.59-12.93c.313.082.56.246.798.46 1.993 1.887 3.598 4.12 5.171 6.358.579.793 1.08 1.636 1.562 2.491.203.395.607.758.517 1.234-.102.652-1.065.863-1.413.29-1.993-3.336-4.193-6.655-7.026-9.326-.92-.304-.564-1.69.391-1.507Z"/><path fill="#A4D357" d="M210.379 100.537c.09.078.168.167.239.265 2.626-1.71 5.753-2.413 8.842-2.847 2.434-.218 5.053-.425 7.531-.078.019-.28.113-.581.152-.831.184-1.492.016-3.206-1.104-4.308a.711.711 0 0 1-.234-.191c-.494-.102-.983-.21-1.468-.363-2.431-.441-4.967-.156-7.39.172-1.758.297-3.586.55-5.194 1.253-.239.086-.474.18-.705.273a.792.792 0 0 1-.258.254c-.251.227-.411.543-.623.805-.571 1.32-.622 2.772-.332 4.162.109.504.317.973.544 1.434Z"/><path fill="#E2FFB4" d="M209.886 119.354c2.963 3.636 7.26 6.537 12.083 6.416a10.42 10.42 0 0 0 2.137-.261c.188-.063.376-.121.56-.188.078-.015.148-.019.219-.015 3.479-1.055 6.36-3.796 8.059-6.998 4.039-7.603 3.531-17.061.055-24.78-7.003-15.414-23.986-16.839-28.601.94-1.981 8.521.024 18.072 5.484 24.89l.004-.004Zm-2.501-22.863c.782-5.846 4.732-12.77 11.441-12.363 6.341.578 10.529 6.459 12.642 11.937 2.709 7.404 3.026 16.62-1.874 23.188-1.801 2.331-4.627 3.932-7.617 3.835-3.21-.067-6.103-1.894-8.248-4.167-5.429-5.939-7.48-14.573-6.341-22.43h-.003Z"/><path fill="#A4D357" d="M222.458 121.526c3.922-.114 6.736-3.566 7.993-6.963.235-.633.426-1.273.599-1.921-.486.328-.963.66-1.472.949-2.114 1.117-4.439 1.753-6.744 2.3-2.22.48-4.474.96-6.756.855-.834.027-1.632-.141-2.423-.344.114.149.219.305.333.449 2.063 2.542 5.073 4.796 8.47 4.671v.004Z"/><path fill="#A4D357" d="M224.673 113.813a18.824 18.824 0 0 0 5.566-2.483.743.743 0 0 1 .137-.328c-.035-1.34-.649-2.652-1.417-3.733a1.646 1.646 0 0 1-.27-.336c-4.266 2.222-9.139 3.264-13.942 3.081a22.054 22.054 0 0 1-2.337-.227 4.252 4.252 0 0 0-.188 1.691c-.039 1.035.192 2.054.435 3.042.791.184 1.558.473 2.36.598 3.335.347 6.502-.477 9.66-1.305h-.004Z"/><path fill="#E2FFB4" d="M217.655 108.409c-1.722-1.156-2.544-3.362-2.524-5.381.011-.445.215-.863.348-1.285.133-.57.364-1.117.72-1.574-.395.09-.779.184-1.135.278-1.691.46-3.229 1.316-4.583 2.421-.302.226-.623.421-.924.644-.223.16-.45.379-.709.508.145 1.206.36 2.405.662 3.581.184.039.372.089.54.124 1.21.321 2.603.567 3.82.664 1.265.098 2.529.102 3.785.02Z"/><path fill="#A4D357" d="M227.182 91.262c-5.456-7.638-13.754-7.556-17.148 1.363 1.222-.535 2.427-.988 3.746-1.28 4.396-.918 9.081-1.457 13.402-.083ZM222.56 100.431c-1.343-.77-4.243-.531-5.202.785-.474.929-.807 1.984-.564 3.03.262 1.211.936 2.554 2.122 3.069.191.055.34.184.434.348 1.844-.062 3.656-1.269 4.126-3.097.528-1.593.368-2.979-.92-4.135h.004Zm-.396 3.55c-.352 1.093-1.464 2.186-2.673 1.589-2.349-1.191-.685-4.854 1.812-3.721.709.421 1.041 1.351.861 2.132Z"/><path fill="#E2FFB4" d="M230.736 98.885c-.003.023-.011.047-.019.07l.047.024-.024-.094h-.004Z"/><path fill="#E2FFB4" d="M215.683 3.175h-.028c-.008 0-.012-.004-.019-.008a31.347 31.347 0 0 0-7.927-.84c-10.247.227-19.23 6.736-24.996 14.831-13.331 19.056-16.196 44.122-15.691 66.818 1.491 34.316 10.897 69.773 32.413 97.084 8.967 10.848 21.246 21.185 36.03 20.935 10.329-.184 19.308-6.662 25.125-14.796 13.359-19.13 16.185-43.868 15.731-66.626-1.444-34.38-10.87-69.973-32.425-97.327C236.58 14.39 227.01 5.85 215.686 3.18l-.003-.004Zm58.469 102.364a.797.797 0 0 1-.258.531.83.83 0 0 1-.571.195c-.427 0-.756-.426-.728-.832a.797.797 0 0 1 .258-.531.83.83 0 0 1 .571-.195c.427 0 .756.426.728.832Zm-2.493-11.2c.783-.03.869.707.885 1.316.395 2.183.888 4.347 1.182 6.549.086.668-.81 1.101-1.296.644-.164-.14-.239-.324-.266-.535-.008-.07-.004-.035 0 0-.184-1.296-.434-2.58-.665-3.87-.223-1.081-.494-2.159-.564-3.268a.785.785 0 0 1 .728-.832l-.004-.004Zm-6.188 75.612c-6.279 17.193-20.189 33.551-40.336 27.596-16.854-5.49-28.072-21.063-36.304-35.933-5.19-9.958-9.448-20.661-12.685-31.751a1.405 1.405 0 0 1-.134-.449c-7.57-26.171-9.425-54.513-4.184-80.54 2.818-12.617 7.531-25.538 17.054-34.676 8.212-7.942 19.759-10.16 30.315-5.705 13.156 5.526 22.581 17.147 29.92 28.975C270.931 73.96 280 129.48 265.471 169.955v-.004Z"/><path fill="#000" d="M219.197 8.493c-10.552-4.455-22.103-2.237-30.315 5.705-9.523 9.138-14.236 22.06-17.054 34.676-5.241 26.03-3.386 54.369 4.184 80.54.016.148.059.304.133.449 3.241 11.09 7.496 21.793 12.686 31.751 8.232 14.874 19.45 30.443 36.304 35.933 20.15 5.959 34.057-10.403 40.336-27.596 14.529-40.475 5.464-95.995-16.354-132.487-7.343-11.828-16.764-23.45-29.92-28.975v.004ZM177.691 129.41a2.962 2.962 0 0 0-.223-.414c-2.626-9.368-4.47-18.974-5.632-28.584 0-.91 0-1.808.027-2.718.055-.082.106-.172.137-.274 2.083-1.495 3.218 2.234 3.37 3.761.357 2.991.431 11.172 4.357 11.523 1.213.059 2.407-.585 3.194-1.484.978-1.132.924-2.706.869-4.111-.223-2.164-.2-4.351-.153-6.526.501-5.283 2.133-10.496 4.681-15.198.259-.402.541-.788.791-1.198.012-.024.02-.047.028-.07l2.759-.212c-.932 1.383-1.789 2.812-2.423 4.358-.865 1.761-1.644 3.71-2.125 5.635-.098.414.203.84.614.922.65.14.955-.504 1.034-1.047.242-.874.567-1.769.923-2.644.627-1.55 1.359-3.205 2.22-4.674.548-.886 1.088-1.78 1.702-2.62a.856.856 0 0 0 .079-.09c3.147-.25 6.294-.515 9.437-.847 2.391-.078 4.759-.352 7.127-.668-3.507 2.382-6.086 6.338-7.241 10.567-3.648 12.308 1.636 29.865 14.827 34.031.341.098.681.176 1.018.247l-3.265 1.007c-.477-.129-1.123-.051-1.53-.32-.908-.426-1.758-.914-2.701-1.297a40.491 40.491 0 0 0-3.19-2.304c-1.503-1.448-3.053-2.987-4.071-4.846-1.35-2.198-2.732-4.404-3.699-6.806-1.182-2.804-1.299-6.513-4.035-8.345-1.096-.668-2.321-.636-3.562-.41-1.413.164-2.795.883-3.39 2.234-1.589 3.354-1.264 7.314-.274 10.797.689 2.706 2.341 5.174 2.478 8.005-.012 2.242-1.8 1.738-3.339 2.277-.755.25-1.44.695-1.972 1.288-1.386 1.605-.995 3.921-.521 5.811.521 1.386-.478 2.499-1.781 2.753a13.132 13.132 0 0 1-.9-.648c-2.036-1.543-3.774-3.636-5.085-5.846-.16-.266-.383-.726-.548-1.023l-.012.008Zm4.506-22.68c.023 1.093.246 2.335-.353 3.311-.454.676-1.338 1.187-2.164 1.09-1.855-.965-1.773-3.511-2.239-5.303-.521-2.398-.168-4.975-1.127-7.275-.38-.824-.767-1.683-1.452-2.304-.772-.726-1.907-.894-2.881-.574.242-3.452 1.053-6.935 2.935-9.887.047-.11.153-.239.255-.375 3.413-.211 6.814-.59 10.22-.938.129.075.274.133.418.168.255.336.474.7.529 1.11a38.742 38.742 0 0 0-1.472 3.268c-1.495 4.17-2.853 8.497-2.818 12.98 0 1.574-.047 3.159.145 4.725l.004.004Zm50.806-13.203c3.472 7.72 3.984 17.178-.055 24.781-1.699 3.202-4.576 5.943-8.059 6.998-.071 0-.145 0-.22.015-.184.067-.375.125-.559.188a10.43 10.43 0 0 1-2.138.261c-4.818.121-9.12-2.78-12.083-6.416-5.464-6.818-7.464-16.369-5.483-24.89 4.611-17.779 21.594-16.353 28.601-.94l-.004.003ZM191.45 118.18c-.842-2.269-1.398-4.795-1.355-7.275.243-1.98.29-5.037 2.721-5.514 1.667-.41 3.221-.332 4.102 1.355 1.104 2.09 1.472 4.487 2.376 6.666.912 2.179 2.133 4.217 3.382 6.217 1.143 2.069 2.65 3.87 4.415 5.404.133.277.379.535.618.734.27.141.49.332.662.586.207.406.595.723.908 1.058.419.844.415 1.945-.145 2.722-.012.004-.02.012-.031.016-2.65.804-5.296 1.612-7.938 2.425a1065.66 1065.66 0 0 0-10.181 2.975 1.094 1.094 0 0 0-.478 0c-1.698-.152-2.524-1.78-3.248-3.124-.008-.019-.02-.035-.028-.05a4.902 4.902 0 0 1-.082-1.258c-.082-2.116 1.926-2.749 3.711-2.94 1.084-.106 1.91-.949 2.293-1.925.862-2.761-.794-5.522-1.698-8.068l-.004-.004Zm78.694 23.859c-1.996 20.501-11.112 53.966-36.116 55.173-13.277.188-24.24-9.18-32.307-18.908-9.027-11.465-15.825-24.487-20.749-38.268.512-.102 1.064-.336 1.467-.394.783-.239 1.664-.446 2.486-.68 2.481-.738 4.908-1.456 7.402-2.191a1999.06 1999.06 0 0 0 17.171-5.115.733.733 0 0 0 .219-.039c.035-.016.063-.039.094-.055 4.854-1.472 9.703-2.971 14.53-4.498 5.55-1.23 9.918-6.166 11.64-11.86 1.762-5.392 1.746-11.281.388-16.763-2.008-8.037-7.457-16.382-16.033-18.229a12.783 12.783 0 0 0-3.456-.234.744.744 0 0 0-.61.05c-3.038.16-6.052.762-9.081 1.051-3.472.215-6.928.555-10.389.922-4.814.273-9.621.699-14.415 1.234-3.652.289-7.304.789-10.968.765a6.736 6.736 0 0 0-.931.028c-.462-21.318 2.031-45.247 14.599-63.159 5.876-8.228 15.164-14.187 25.599-12.953 11.973 1.437 21.548 9.876 29.004 18.865 24.213 30.634 34.065 76.857 30.448 115.266l.008-.008Z"/><path fill="#000" d="M216.262 1.765a.918.918 0 0 0-.274-.121c-.857-.426-1.734-.867-2.685-1.047-.579-.113-1.163-.133-1.746-.164-2.423-.382-4.881-.523-7.331-.382-12.114.546-22.628 8.368-29.294 18.087-6.301 9.294-10.404 19.81-12.897 30.799-.246.261-.376.698-.563 1.023-.783 1.456-1.844 2.713-2.854 4.03-4.873 5.943-10.384 11.398-16.67 15.85-7.473 5.545-15.528 10.352-23.92 14.374-.732.343-1.472.68-2.219 1.007-.752-.554-1.617-.933-2.513-1.183-2.008-.293-4.13-.113-6.087.418-3.89 1.238-7.276 3.296-11.045 4.889-3.445 1.488-7.1 2.378-10.733 3.284-7.79 2.01-15.802 3.159-23.426 5.783-5.402 1.628-10.58 4.1-14.73 7.974-2.966 2.815-5.213 6.205-6.873 9.883-.176-.082-.368-.152-.56-.226-.003 0-.011-.008-.015-.012a.794.794 0 0 0-.153-.058 1.77 1.77 0 0 1-.454-.25c-1.174-.586-2.113-1.543-3.335-2.043-2.176-1.097-4.888-1.167-7.026.047-1.315 1.16-2.787 2.656-3.139 4.421-1.045-.5-2.14-.867-3.338-.984-.999-.098-2.012-.043-2.96.312-1.342.465-2.736.984-3.777 1.984-1.201 1.288-2.09 3.319-1.996 5.178a9.654 9.654 0 0 0-.47-.188c-1.405-.41-2.896-.457-4.348-.394-3.918.304-5.41 1.808-5.97 5.642-.38 2.339-.524 4.96.791 7.037.497 1.652 1.452 3.175 2.677 4.401-1.1.437-2.156.972-3.15 1.609-2.098 1.519-2.963 4.202-3.147 6.685-.18 3.112.43 6.955 3.514 8.478 1.758 1.027 3.613 2.073 5.696 2.155a9.04 9.04 0 0 0 2.18-.14c.102.882-.133 1.796-.165 2.686-.043.82.11 1.629.337 2.417.372 1.246.685 2.605 1.577 3.593a11.77 11.77 0 0 0 3.257 2.015c.14.07.286.137.442.191h.051c.329.121.658.231.994.317 3.355.413 5.746-.43 7.692-1.937.02.089.035.179.055.265.638 2.511 3.452 3.808 5.86 3.975 2.398.215 4.939-.808 6.371-2.768.556-.754.897-1.629 1.257-2.492.532.629 1.295 1.215 1.663 1.461.951.652 2.098.937 3.237.996 3.14.269 5.97-1.984 7.077-4.811.223-.598.564-1.156.709-1.777.007-.066.015-.141.027-.219.955.684 1.926 1.344 2.9 2.011 2.486 1.789 5.132 3.199 7.97 4.081.129.082.266.117.395.117 1.671.488 3.41.797 5.222.887 3.409.054 6.861.015 10.235-.528v.012c1.71 3.198 3.762 6.221 5.394 9.462 1.636 3.159 2.771 6.564 4.317 9.778 2.81 6.802 5.734 13.714 9.136 20.263 1.06 2.069 2.164 4.123 3.421 6.083.047.129.129.25.235.368.16.246.324.492.489.738 1.695 2.635 2.599 3.639 5.902 3.846 4.725.16 9.7-.129 13.986-2.288 1.836-1.055 3.241-2.656 4.943-3.89 1.335-1.183 2.619-2.429 3.965-3.592.725-.484 1.261-1.211 1.672-1.98.501-.769.884-1.632.857-2.566.039-2.905-3.875-5.092-5.523-7.317-.787-1.043-1.523-2.125-2.251-3.21-.696-1.102-1.311-2.242-1.902-3.398a.751.751 0 0 0-.266-.527c-.939-1.878-1.812-3.788-2.81-5.635l-.024-.046a4.672 4.672 0 0 0-.423-.906l-.007-.008c.094-.11.191-.219.285-.324.54-.734 1.245-1.324 1.93-1.914.802-.722 3.358-1.796 2.759-3.116-.563-.757-1.526-1.07-2.34-1.488-1.319-.765-2.599-1.612-4.047-2.12-2.506-1.16-5.379-1.984-7.112-4.272-1.186-1.554-2.388-3.097-3.684-4.561-.716-.804-1.346-1.952-2.395-2.323a.847.847 0 0 0-.078-.172c-.122-.172-.22-.414-.321-.66a11.84 11.84 0 0 1 1.154-.106c3.535-.316 7.026-.214 10.541.434 2.012.008 4.122-.09 6.138-.5a15.074 15.074 0 0 0 3.017-.437c2.306-.629 4.682-1.594 5.997-3.698.09-.121.153-.235.203-.352 2.846-.195 5.692-.367 8.545-.351 5.871-.055 11.719.507 17.516 1.402 4.685.98 9.382 1.944 13.848 3.741 2.384.808 4.693 1.827 7.003 2.846 1.593.824 3.346 1.445 4.724 2.617 0 0 .008 0 .008.007 2.45 3.823 5.1 7.517 7.977 11.059 8.325 10.005 18.98 19.025 31.955 21.965 4.431.981 9.058 1.137 13.524.313h-.012c.168-.027.333-.063.501-.094a.889.889 0 0 0 .106-.039c14.42-1.382 25.317-13.523 31.25-27.338 19.333-45.149 7.073-115.536-23.359-153.574-7.512-9.622-17.947-17.966-29.075-20.778l.008.008ZM53.675 103.602c4.173-2.457 8.909-3.753 13.512-5.15 7.014-1.86 14.189-3.058 21.2-4.952a73.764 73.764 0 0 0 1.604-.418c.615.343 1.252.644 1.15 1.511 0-.035.008-.07.008-.102l.024-.105a.99.99 0 0 0-.023.234c-1.468 2.87-2.38 6.19-5.563 7.47-1.42.602-2.884-.156-4.282-.46-1.565-.367-3.198-.27-4.795-.348-4.239.274-8.665 1.297-12.004 4.046-1.582 1.257-2.904 2.858-4.697 3.838-3.32 1.879-6.38.859-9.813-.058a5.75 5.75 0 0 0-2.908-.289 27.044 27.044 0 0 1 6.587-5.217Zm-25.403 12.937c.454-.57.987-1.086 1.53-1.558 1.19-.512 2.576-.777 3.848-.438 1.758.36 3.077 1.554 4.584 2.421.086.039.184.094.286.149-.306 1.062-.376 2.202-.905 3.19-.735 1.218-2.18 1.8-3.565 1.734-1.12-.242-2.044-.707-3.112-1.238-1.362-.89-2.756-2.195-2.697-3.948.04-.105.047-.211.04-.32l-.009.008Zm-11.817 4.498a.677.677 0 0 0 .224-.394.163.163 0 0 1 .027-.031c.454-.473 1.049-.762 1.636-1.039 1.347-.617 2.787-1.086 4.282-.805 1.19.235 2.223.723 3.35 1.203 1.625 1.105 3.245 2.23 4.948 3.218 1.221.746 2.54 1.394 3.942 1.8.059.246.156.402.301.687.96 1.387-.462 2.66-1.78 2.976-1.566.39-3.16.746-4.776.933-.231-.012-.462-.039-.693-.027a38.132 38.132 0 0 1-2.532-.375 24.83 24.83 0 0 1-3.828-.918c-.008-.004-.012-.008-.02-.011a26.766 26.766 0 0 0-1.24-.942c-1.75-1.565-4.455-3.643-3.845-6.279l.004.004Zm-12.028 11.5c-.156-.464-.215-.956-.11-1.441a.758.758 0 0 0-.027-.363c.098-.738.25-1.464.43-2.187.18-.741.44-1.507 1.065-1.991 1.934-1.23 4.482-1.074 6.658-.687 2.529.999 4.936 2.311 7.406 3.448.294.117.595.226.9.328a.75.75 0 0 0 .568.183c.927.293 1.883.535 2.826.73 1.092.227 2.196.383 3.303.512.184.07.404.078.623.066 1.71.18 3.425.297 5.135.485.52.074 1.045.117 1.57.144.211.18.512.313.775.457-.02.348.086.797-.192 1.058-.564.598-1.166 1.14-1.895 1.531-1.256.715-2.544 1.492-3.922 1.976-.645.285-1.287.582-1.976.754a.69.69 0 0 0-.227.121c-.795.167-1.59.328-2.384.48-2.83.285-5.671.492-8.494.832a1.46 1.46 0 0 0-.622-.121 21.919 21.919 0 0 1-3.1-.524c-2.889-.46-7.292-2.936-8.306-5.791h-.004Zm2.767 25.515c-1.46-.711-3.064-1.359-4.227-2.515-2.016-2.87-1.855-7.743.165-10.582.892-1.195 2.36-1.706 3.667-2.32 1.683-.738 3.511-1.034 5.304-1.39 4.22-.945 8.56-1.07 12.846-1.534 3.824-.742 7.688-1.488 11.383-2.738 0 1.219.054 2.433.21 3.644-.226 1.093.17 2.222.498 3.268.294.957.591 1.949.924 2.937-2.2.347-4.33 1.011-6.415 1.78-.228.047-.45.106-.635.235-.88.331-1.753.679-2.622 1.023-2.13 1.171-4.33 2.202-6.431 3.432-2.165 1.179-4.259 2.48-6.513 3.487-2.447 1.379-5.41 2.355-8.154 1.269v.004Zm13.814 11.504c-1.558.312-2.815.129-4.032-.379-.532-.418-.841-1.019-1.069-1.651-.626-2.351-.078-4.913.842-7.119.67-1.386 1.69-2.574 2.74-3.729.153-.18.356-.36.52-.551.274-.156.549-.312.819-.472 3.561-2.004 7.182-4.042 11.002-5.51 1.476-.324 3.116-.395 4.639-.067 1.22.508 2.528 1.469 2.673 2.886a.797.797 0 0 0-.05.164c-.897.402-1.743.918-2.49 1.566-3.092 1.906-5.241 4.869-7.324 7.771-1.98 3.026-4.391 6.556-8.27 7.091Zm16.717-2.046c-.52 1.421-1.198 2.851-2.595 3.596-.619.403-1.413.656-2.263.754-.027-.008-.05-.016-.078-.02-1.937-1.401-1.769-5.642-1.068-7.708.34-1.144.92-2.304 1.417-3.405.599-1.164 1.229-2.269 2.387-2.979.47-.36.975-.653 1.488-.942 1.968-.464 3.753-.308 5.436.895-.188.183-.36.347-.5.46-.944 1.094-1.688 2.422-2.177 3.784-.708 1.847-1.123 3.804-2.04 5.565h-.007Zm12.521-3.569c-.712 1.902-1.757 3.831-3.679 4.736-1.64.664-3.675.563-5.131-.492a6.415 6.415 0 0 1-1.112-1.073v-.043c-.121-1.371.689-2.718 1.695-3.601.806-.71 1.863-.906 2.896-1.042 1.206-.129 2.462-.004 3.598.437.61.203 1.174.617 1.8.781a1.345 1.345 0 0 1-.067.293v.004Zm55.331 39.116c-.477 2.284-1.331 4.529-1.264 6.888-.028 1.187.462 2.316.783 3.452a.734.734 0 0 0 .117.461c.004.023.012.043.016.066.043.863-.125 2.015-1.081 2.288-.673-.101-1.322-.492-1.874-.882-1.464-2.249-2.678-4.655-3.938-7.021-3.257-6.471-6.09-13.238-8.924-19.958-2.008-4.581-3.809-9.349-6.51-13.605-.09-.141-.172-.285-.262-.43-.023-.351-.258-.746-.293-1.124.047-.215.11-.422.2-.621.191-.211.406-.426.708-.445.262 0 .524.05.779.011 4.556 2.187 4.818 10.536 7.233 14.402 1.284 2.097 3.03 3.893 5.03 5.322 1.268.824 2.747 1.265 4.012 2.109 1.244.91 2.301 2.081 3.205 3.319 1.226 1.632 2.545 3.604 2.063 5.768Zm15.285 14.159c-3.558 1.878-7.711 2.198-11.672 2.234-1.061-.04-2.231 0-3.276-.293.141-.387.195-.867.305-1.207.771-1.785.814-2.897.568-4.108-.012-.246-.051-.484-.165-.691-.172-.644-.395-1.351-.618-2.222-.822-5.533 3.62-8.197-.752-13.882-1.131-1.632-2.438-3.198-4.063-4.358-1.009-.633-2.086-1.16-3.182-1.632-2.454-1.375-4.45-3.573-5.8-6.022-1.93-4.252-2.208-9.442-5.582-12.937-.658-.582-1.445-1.175-2.29-1.57 1.464-.878 3.28-.859 4.944-.742 1.538.141 2.888.875 4.168 1.699.078.063.16.106.239.137 5.05 9.106 10.533 17.959 16.33 26.651 3.722 6.174 7.495 12.472 12.639 17.615-.564.488-1.155.945-1.797 1.328h.004Zm-24.103-44.942c.152-.102.3-.207.446-.32 1.925 1.687 3.503 3.788 5.378 5.553 2.431 2.573 4.677 5.392 7.378 7.677 1.362.531 2.842.714 4.27 1.003.58.106 1.085.406 1.621.617-.086.043-.172.086-.247.141-.783.476-1.475 1.074-2.207 1.616-1.038.742-2.141 1.371-3.132 2.179-4.055-6.126-8.677-11.851-12.967-17.806a12.37 12.37 0 0 0-.54-.664v.004Zm24.976 20.977c1.174 2.265 2.493 4.452 4.016 6.51 1.381 1.843 3.217 3.276 4.744 4.99 2.54 2.757-1.272 5.327-3.175 7.072-1.1 1.082-2.286 2.058-3.491 3.015-.391-.406-.787-.812-1.174-1.222-2.357-2.453-4.353-5.233-6.243-8.049-1.695-2.518-3.292-5.181-4.87-7.806-2.164-3.412-4.454-6.724-6.575-10.168a255.283 255.283 0 0 1-5.778-9.469c1.996 2.713 3.977 5.439 6.055 8.091 1.496 1.893 2.603 4.111 4.2 5.912.474.332.916.304 1.343.117h.039c1.566-.648 3.21-1.301 4.951-1.179 2.055.308 4.138 1.124 5.958 2.186Zm-15.297-24.288c1.178 1.331 2.29 2.753 3.382 4.201 1.691 2.374 4.47 3.409 7.034 4.557 2.141.734 3.988 2.054 6.016 3.034-1.276.945-2.63 1.805-3.683 3.015-.493.637-1.03 1.23-1.57 1.824l-.117-.024c-.979-.054-1.781-.593-2.701-.851-1.069-.246-2.165-.367-3.221-.668-.76-.082-1.265-.484-1.73-1.066-3.727-3.792-7.246-7.775-10.929-11.609-.16-.152-.305-.32-.466-.477.548-.484 1.092-.972 1.699-1.382 1.233-1.242 2.697-2.23 4.435-2.585.763.519 1.241 1.351 1.847 2.031h.004Zm2.893-6.678c-.106.086-.231.137-.356.188a66.237 66.237 0 0 0-9.633 1.081c-4.76.809-9.324 2.41-13.978 3.632-4.442 1.382-9.034 2.222-13.695 2.175-2.72.172-5.492-.067-8.118-.805-.423-.476-.634-1.038-.063-1.55.117-.148.22-.32.384-.425a.902.902 0 0 0 .211-.207 5.01 5.01 0 0 0 .458-.211c2.392-1.57 4.2-3.866 5.813-6.194 2.285-3.17 4.074-6.189 8.501-5.884 1.617.004 3.127.632 4.505 1.425 1.64 1.035 3.28 2.363 5.331 2.296 2.353.012 4.564-.57 6.8-1.331 1.22-.465 2.457-.899 3.765-1.051 2.489-.429 4.305 1.027 6.493 2.117 1.249.827 2.423 1.757 3.598 2.69a.828.828 0 0 0 .168.309c.325.535.164 1.245-.18 1.737l-.004.008Zm13.637.391s.039-.024.062-.032a.92.92 0 0 0-.215.164c-.168.036-.34.071-.509.102-1.041.039-2.09 0-3.127-.066a67.042 67.042 0 0 0-3.957-.325 9.27 9.27 0 0 1-2.807-1.851c-1.08-.843-2.141-1.702-3.237-2.522-1.941-1.707-4.243-2.894-6.599-3.925-2.458-.972-5.19-.121-7.55.762-2.396.769-5.019 1.644-7.57 1.085-1.597-.55-2.842-1.788-4.384-2.464a9.492 9.492 0 0 0-4.866-1.07c-5.347-.214-7.742 4.796-10.54 8.47-.662.863-1.421 1.656-2.192 2.421-.795.703-1.574 1.508-2.662 1.734-2.18.48-4.521.152-6.678-.355-.05-.016-.105-.02-.156-.024-.924-.617-1.836-1.245-2.756-1.866-2.983-2.027-5.648-4.635-8.02-7.384-2.313-2.621-4.54-5.522-5.68-8.896-.403-1.468-.978-2.905-1.315-4.397a.744.744 0 0 0 .102-.492c-.059-.402-.113-.793-.168-1.187.059-.344.078-.672-.118-.902-.137-1.164-.211-2.32-.129-3.561.298-8.865 2.122-17.92 7.202-24.859a.788.788 0 0 0 .145-.113c1.155-.68 2.595-1.129 3.903-.625 1.706.414 3.397.937 5.131 1.214 3.17.457 6.364-.742 8.666-2.917 1.515-1.296 2.818-2.694 4.6-3.674a21.973 21.973 0 0 1 9.84-2.269c1.55.059 3.107.055 4.59.574 2.067.699 3.9.609 5.715-.683 3.198-2.183 3.801-6.315 6-9.27a19.396 19.396 0 0 1 2.788-2.523.705.705 0 0 0 .094-.094 48.25 48.25 0 0 0 4.939-2.335c1.382-.633 2.764-1.3 4.181-1.863.191.016.395.008.587-.004.865 0 1.984.496 1.933 1.496a.93.93 0 0 0-.066.168l-.223.113c-.611.266-1.202.57-1.719.996-1.683 1.277-3.354 2.624-4.654 4.303-1.424 1.804-2.481 3.866-3.714 5.803-2.501 4.479-4.286 9.395-4.744 14.526-.137 1.867.05 3.741.078 5.612.07 2.756.114 5.525.552 8.251.998 3.459 2.43 6.822 4.098 10.016 1.664 3.155 3.578 6.22 5.993 8.864 1.703 1.913 3.413 3.913 5.429 5.518 2 2.034 4.462 3.51 6.975 4.822 2.337 1.238 4.889 2.281 7.519 2.82.086.171.176.347.215.523a2.324 2.324 0 0 1-.99 2.202l.008-.011Zm52.356 1.577a.773.773 0 0 0-.474.028c-13.312-5.346-27.951-6.971-42.23-5.905-1.902.114-3.804.238-5.703.367a.931.931 0 0 0-.497-.007c-.845-.012-1.679-.192-2.513-.325-3.836-.851-7.335-2.737-10.646-4.803-4.181-3.139-7.856-6.99-10.937-11.211-3.056-4.572-5.515-9.586-7.072-14.866-.54-4.397-.595-8.852-.6-13.273.478-5.166 2.279-10.172 4.96-14.6 1.053-1.722 1.988-3.468 3.253-5.061 1.084-1.39 2.395-2.445 3.789-3.557.61-.485 1.248-.942 1.984-1.227.301-.125.638-.25.873-.437.098-.035.188-.074.278-.113.669-.211 1.327-.457 1.98-.703 4.447-1.699 8.772-3.714 12.96-5.979 8.741-4.79 17.148-10.23 24.757-16.681 2.94-2.82 5.875-5.682 8.549-8.775a.859.859 0 0 0 .458-.078c.25-.02.52.05.751.164 1.492 1.195.349 5.99-.465 7.498-.576 1-1.233 1.968-2.173 2.663-.215.218-.556.351-.787.574-.767.464-1.565.886-2.305 1.308-3.108 1.542-4.865 4.678-5.554 7.97-.756 4.389.325 9.372-2.482 13.179-2.055 2.78-4.893 4.866-7.949 6.435-2.725 1.371-5.559 2.515-8.15 4.151-4.168 2.242-8.141 4.897-11.547 8.193-2.058 2.03-4.133 4.12-5.327 6.798-2.109 4.194-1.174 7.97 2.509 10.837 2.826 1.835 6.235 2.635 9.531 3.174 4.036.469 8.04.524 12.107.235 4.752-.235 9.656.175 14.169 1.8 4.548 1.796 9.077 5.014 10.58 9.864.192 1.124-.133 2.268.008 3.397.117.871.372 1.722.701 2.534 1.068 3.015 4.364 4.335 7.202 5.182 1.702.516 3.839.219 5.209 1.48a.83.83 0 0 0 .368.293c.595 1.265 1.21 2.526 1.84 3.772a1.27 1.27 0 0 0 .141.629c.203.8.43 1.597.434 2.464-.09 1.191-.873 2.179-1.976 2.608l-.004.004Zm-12.866-24.05c-1.311-2.991-3.703-5.491-6.419-7.271-5.089-3.284-11.32-4.413-17.313-4.315-2.113.015-4.168.164-6.286.25a56.88 56.88 0 0 1-8.728-.582c-2.682-.555-5.437-1.222-7.766-2.71-2.721-2.14-3.809-4.924-2.345-8.189 1.081-2.874 3.269-5.084 5.429-7.189 3.405-3.276 7.39-5.846 11.539-8.087 4.662-2.823 10.114-4.319 14.009-8.325 5.124-4.706 4.255-9.083 4.795-15.343.293-2.472 1.342-5.186 3.339-6.794.908-.664 1.902-1.215 2.884-1.777.008 0 .016 0 .028-.004.36-.106.755-.012 1.092.168.912.332 1.44 1.3 1.914 2.097.235.336.164.835.282 1.21a179.33 179.33 0 0 0 .023 15.085.91.91 0 0 0-.016.203c.071 1.488.161 2.972.267 4.456 0 .047.004.093.007.14v.012c.333 4.55.846 9.087 1.523 13.601 2.012 12.98 5.257 25.944 10.036 38.276.012.129.043.262.094.383.082 1.179.266 2.374.082 3.557-.16.937-.771 1.89-1.738 2.136a.753.753 0 0 0-.446 0c-1.538-.511-2.994-1.179-4.219-2.331-.979-1.078-1.41-2.593-1.593-4.01.043-1.566.305-3.202-.478-4.647h.004Zm-6.459-72.394a.754.754 0 0 1 .126-.055c-.008.004-.016.008-.02.016-.035.012-.07.023-.106.039Zm59.621 130.823a.687.687 0 0 0-.415.02.914.914 0 0 0-.168.086c-5.66-2.679-10.846-6.525-15.324-10.774-15.348-14.8-25.07-34.574-31.4-54.72A183.289 183.289 0 0 1 160.7 92.18c-1.42-22.809.877-46.684 11.766-67.126 4.408-8.037 10.667-15.58 18.882-19.857.145.09.317.168.533.23.015.048.031.098.043.149a.844.844 0 0 0-.075.383 37.125 37.125 0 0 0-3.577 2.76c-16.459 15.206-21.141 38.933-22.64 60.39-1.605 36.73 6.819 74.866 27.247 105.77 6.09 8.778 13.558 17.341 22.812 22.886a.679.679 0 0 0 .035.176c.125.242.145.523-.11.691h.004Zm44.97-11.441c-5.816 8.134-14.796 14.612-25.125 14.796-14.784.25-27.063-10.087-36.03-20.935-21.516-27.311-30.922-62.772-32.413-97.084-.505-22.696 2.36-47.766 15.692-66.818 5.765-8.095 14.748-14.604 24.996-14.83 2.728-.063 5.37.241 7.926.839.008 0 .012.004.019.008h.028c11.323 2.675 20.894 11.215 28.209 20.067 21.559 27.358 30.981 62.948 32.425 97.327.454 22.758-2.372 47.496-15.731 66.626l.004.004Z"/><path fill="#000" d="M221.977 123.091c2.994.098 5.816-1.503 7.617-3.834 4.9-6.568 4.583-15.784 1.874-23.188-2.113-5.474-6.305-11.36-12.642-11.937-6.709-.41-10.659 6.517-11.441 12.363-1.136 7.857.912 16.494 6.341 22.43 2.145 2.273 5.041 4.1 8.247 4.166h.004Zm9.3-22.023c.141.691.254 1.39.34 2.093-.415.359-.845.703-1.307.999a25.492 25.492 0 0 1-6.623 3.14c.102-.113.2-.234.29-.359 1.777-2.226 1.937-5.815-.415-7.7 2.81-.032 5.542.39 7.452 1.659.09.05.177.109.267.171l-.004-.003Zm-7.797 3.498c-.47 1.828-2.282 3.031-4.126 3.097a.735.735 0 0 0-.434-.348c-1.186-.515-1.86-1.858-2.122-3.069-.246-1.046.086-2.101.564-3.03.963-1.32 3.859-1.558 5.202-.785 1.287 1.156 1.448 2.546.92 4.135h-.004Zm7.257-5.685.023.094-.047-.024c.008-.023.016-.047.02-.07h.004Zm-3.555-7.619c-4.325-1.374-9.01-.84-13.402.082-1.319.29-2.52.746-3.746 1.281 3.398-8.915 11.692-9 17.148-1.363Zm-17.011 3.679c.212-.262.372-.578.623-.805a.792.792 0 0 0 .258-.254c.231-.093.466-.183.705-.273 1.605-.703 3.436-.957 5.194-1.253 2.423-.328 4.955-.617 7.39-.172.485.152.974.261 1.468.363a.711.711 0 0 0 .234.191c1.12 1.102 1.288 2.816 1.104 4.308-.043.25-.133.55-.152.831-2.482-.347-5.101-.14-7.531.078-3.089.43-6.216 1.137-8.842 2.847a1.399 1.399 0 0 0-.239-.265c-.227-.461-.431-.93-.544-1.434-.286-1.39-.239-2.842.332-4.162Zm-.661 12.66a27.858 27.858 0 0 1-.662-3.581c.255-.129.486-.344.709-.508.305-.219.626-.418.924-.644 1.35-1.105 2.892-1.961 4.583-2.421.356-.094.74-.188 1.135-.278-.356.457-.583 1.004-.72 1.574-.133.418-.337.836-.348 1.285-.02 2.019.806 4.225 2.524 5.381a25.993 25.993 0 0 1-3.785-.02 23.134 23.134 0 0 1-3.82-.663c-.168-.036-.352-.086-.54-.125Zm2.712 3.877a4.244 4.244 0 0 1 .188-1.691c.775.114 1.55.196 2.337.227 4.799.183 9.672-.859 13.942-3.081.075.121.165.234.27.336.772 1.081 1.386 2.393 1.417 3.733a.792.792 0 0 0-.137.328 18.973 18.973 0 0 1-5.566 2.483c-3.158.828-6.321 1.652-9.66 1.305-.802-.125-1.569-.418-2.36-.598-.239-.984-.47-2.003-.434-3.042h.003Zm3.856 5.272c2.282.105 4.536-.379 6.756-.855 2.305-.547 4.634-1.184 6.744-2.3.509-.289.986-.621 1.472-.949a22.568 22.568 0 0 1-.599 1.921c-1.257 3.397-4.071 6.849-7.993 6.962-3.397.122-6.404-2.128-8.47-4.67-.118-.148-.223-.301-.333-.449.791.203 1.589.371 2.423.344v-.004Z"/><path fill="#000" d="M221.303 101.849c-2.497-1.133-4.16 2.53-1.812 3.721 1.21.598 2.317-.496 2.674-1.589.18-.781-.153-1.711-.862-2.132ZM122.87 162.75c.035-.019.062-.047.098-.066-.004 0-.012.007-.02.011-.027.02-.055.04-.078.059v-.004ZM86.965 137.985c-1.24-2.281-2.517-4.584-3.174-7.111-.787-2.452-.963-5.018-1.096-7.568-.165-2.436-.266-4.916.41-7.29.106-.399.267-.812.2-1.23-.18-.988-1.636-.773-1.55.203-.458 1.495-.67 3.026-.728 4.572-.454-.089-1.033-.027-1.428-.164-2.063-.351-3.954-1.327-5.856-2.155-2.908-1.113-5.672-2.765-8.795-3.206-2.482-.41-5.413.707-6.22 3.249-.751 3.046.172 6.947 2.713 8.923-.63.082-1.26.199-1.88.386-2.884.699-5.506 2.878-5.843 5.951-.11 1.371-.192 2.816.207 4.147.932 2.421 2.69 4.46 5.363 4.882 1.8.433 3.546.394 5.245.054-.666 1.902-.333 4.272 1.26 5.577.415.3.775.659 1.14 1.019.63.597 1.51.765 2.32.988 3.457.706 6.846-.906 9.093-3.495.998-1.027 1.609-2.308 2.603-3.37.998-1.082 1.292-2.624 2.552-3.499.556-.352.884-.953 1.436-1.297.126.223.251.446.38.664.646 1.484 1.249 2.968 2.173 4.307.47.93 1.831.27 1.424-.652-.779-1.238-1.483-2.495-1.96-3.885h.011Zm-26.87-18.072a1.047 1.047 0 0 0-.071-.195c-.094-1.387.227-2.718 1.444-3.534 2.857-1.656 6.192.207 8.917 1.323 1.393.66 2.841 1.199 4.246 1.832 1.66.726 3.382 1.456 5.19 1.679-.305.515-.587 1.047-.974 1.507-.81 1.156-1.875 2.171-3.096 2.886-.333.211-.795.18-1.084.418a38.82 38.82 0 0 1-4.431.199c-.493-.008-.987-.004-1.48 0-.035-.012-.066-.023-.105-.031.015 0 .035.004.05.008-3.33-1.09-6.928-2.855-8.607-6.096v.004Zm4.152 20.224c-2.36.281-5.077.351-7.05-1.184a9.13 9.13 0 0 1-1.82-2.874c-.293-1.663-.309-3.502.435-5.053 1.918-3.268 6.224-3.502 9.629-3.389 2.356-.039 4.713-.027 7.069-.07 2.967-.215 5.934-.563 8.807-1.34.18 1.871.536 3.737 1.092 5.526-1.852.226-3.55 1.362-5.163 2.253a255.064 255.064 0 0 1-7.237 3.877.803.803 0 0 0-.532.219c-.04.039-.083.078-.122.113-.227.117-.458.235-.685.348-1.456.562-2.877 1.296-4.423 1.574Zm18.839-2.992c-1.143.859-2.067 1.949-2.665 3.265-.412.718-1.01 1.304-1.504 1.964-.86 1.273-1.76 2.507-2.955 3.495-1.996 1.738-5.249 2.612-7.683 1.336a.86.86 0 0 0-.165-.149c-.575-.714-.618-1.675-.458-2.542.243-1.293.677-2.538 1.37-3.667.321-.484.764-.898 1.202-1.304 1.77-.875 3.488-1.87 5.17-2.745.45-.207.89-.438 1.324-.684.442-.05.943-.288 1.342-.316 1.82-.203 3.695.242 5.359.973a3.933 3.933 0 0 0-.34.374h.003Z"/><path fill="#000" d="M68.71 126.008H68.7l.052.016c-.016-.004-.032-.012-.048-.016h.004ZM236.298 29.69c2.834 2.67 5.038 5.993 7.026 9.324.349.574 1.312.363 1.413-.289.09-.476-.313-.84-.516-1.234-.482-.855-.983-1.698-1.562-2.491-1.57-2.234-3.178-4.471-5.171-6.357-.239-.215-.489-.379-.798-.461-.955-.184-1.311 1.203-.392 1.507ZM245.567 42.52c.998.571 1.73-.878.713-1.409-1.003-.57-1.731.883-.713 1.41ZM260.79 169.533c.915.468 1.248-.644 1.538-1.285 1.354-2.905 2.066-6.064 2.618-9.208.137-.718.306-1.433.462-2.147.133-.723.458-1.535.039-2.218-.536-.867-1.835-.11-1.358.777-.669 3.268-1.217 6.568-2.211 9.762-.384 1.074-.85 2.124-1.331 3.159-.247.387-.176.918.243 1.156v.004ZM259.952 172.337c-.439-.957-1.855-.305-1.421.656.442.96 1.855.304 1.421-.656ZM188.51 149.251c-1.178-2.3-2.344-4.6-3.072-7.103a.811.811 0 0 0-1.163-.489c-.419.192-.532.778-.274 1.137.752 2.511 1.934 4.858 3.128 7.185.493.898 1.847.172 1.385-.73h-.004ZM189.176 151.605c-.427 0-.799.309-.818.746-.016.41.321.816.747.816.427 0 .799-.308.818-.746.016-.41-.321-.816-.747-.816ZM240.35 95.976c-.106-.371-.224-.734-.333-1.102-.513-1.98-1.413-4.065-2.517-5.841-1.585-2.593-3.382-5.159-5.934-6.889-.767-.539-1.691.645-.92 1.262 1.139.757 2.083 1.753 2.999 2.768 2.09 2.765 3.961 5.627 4.849 9.071.192.438.204 1.238.677 1.57.544.371 1.359-.187 1.179-.832v-.007ZM240.283 99.47c-.427 0-.799.309-.818.746-.016.41.321.816.748.816.426 0 .798-.308.818-.745.015-.41-.321-.817-.748-.817ZM178.439 41.303a.788.788 0 0 0-.826.734c-.423 1.218-1.01 2.401-1.252 3.69-.286.867-.497 2-.701 2.94-.164.719-.779 1.953.29 2.226a.792.792 0 0 0 .919-.613c.247-1.03.513-2.054.709-3.1.348-1.191.595-2.418 1.104-3.558.199-.488.481-.957.497-1.495a.784.784 0 0 0-.736-.824h-.004ZM175.676 52.584c-.427 0-.803.289-.826.734-.024.406.309.824.736.824.426 0 .802-.289.826-.734.023-.406-.31-.824-.736-.824ZM272.16 102.313c-.008-.07-.004-.035 0 0a.822.822 0 0 0 .266.535c.482.457 1.382.024 1.296-.644-.294-2.202-.787-4.366-1.182-6.549-.016-.609-.102-1.343-.885-1.316a.79.79 0 0 0-.728.832c.071 1.11.341 2.187.564 3.268.235 1.29.481 2.574.665 3.87l.004.004ZM272.849 104.906a.764.764 0 0 0-.258.531c-.028.406.301.832.728.832.215 0 .411-.051.571-.195a.769.769 0 0 0 .259-.531c.027-.406-.302-.832-.728-.832-.216 0-.411.051-.572.195ZM164.184 94.828c.176-.25.125-.551.082-.832-.121-1.035-.141-2.074-.223-3.112-.223-3.671-.611-7.346-.485-11.024.094-.7.007-1.867-.971-1.71-.478.097-.752.628-.572 1.077-.019.668-.07 1.34-.05 2.007.078 4.444.407 8.892.802 13.316.098.664 1.072.836 1.417.274v.004ZM163.608 97.78c-.215 0-.411.05-.571.195a.768.768 0 0 0-.259.531c-.027.406.302.832.728.832.216 0 .411-.051.572-.195a.763.763 0 0 0 .258-.532c.028-.406-.301-.831-.728-.831ZM187.293 97.627c.215 0 .411-.05.572-.195a.771.771 0 0 0 .258-.53c.027-.407-.301-.833-.728-.833-.215 0-.411.051-.572.196a.771.771 0 0 0-.258.53c-.027.407.301.832.728.832ZM186.025 125.759c.818-.61 2.074-1.008 2.203-2.172.263-1.905-.418-3.799-.958-5.603-.134-.578-.177-1.332-.963-1.297a.793.793 0 0 0-.728.836c.317 1.98 1.428 3.866 1.068 5.932-.61.667-2.548 1.058-1.906 2.241.301.441.928.43 1.28.059l.004.004ZM183.806 127.879c.215 0 .411-.051.571-.195a.764.764 0 0 0 .258-.531c.028-.407-.301-.832-.728-.832-.215 0-.411.051-.571.195a.764.764 0 0 0-.258.531c-.028.406.301.832.728.832ZM129.763 98.307c.724-.438 1.436-.879 2.207-1.23 1.989-.93 4.11-1.984 6.044-3.07.708-.343 1.049-1.476.141-1.792a.79.79 0 0 0-.948.45c-1.906 1.096-3.902 2.041-5.887 2.994-.724.313-1.589.832-2.301 1.27-.364.222-.532.667-.321 1.058.196.363.697.538 1.061.32h.004ZM125.379 100.248c.426 0 .79-.329.802-.762.012-.418-.336-.8-.763-.8a.791.791 0 0 0-.802.761c-.012.418.336.801.763.801ZM160.411 132.245c-.705-1.07-1.738-1.867-2.764-2.617-1.311-1.019-2.865-1.726-4.466-2.167-.994-.281-1.448 1.164-.477 1.488 2.164.535 4.074 1.788 5.679 3.3.599.453.803 1.46 1.664 1.483a.79.79 0 0 0 .814-.749.785.785 0 0 0-.454-.738h.004ZM148.958 125.88c-.427 0-.799.308-.814.749-.016.41.324.813.751.813s.799-.309.814-.75c.016-.41-.325-.812-.751-.812ZM124.557 132.249c-2.176-.024-4.216-.645-6.298-1.422.027.012.055.02.082.031-.728-.203-1.648-1.237-2.282-.363-.223.348-.129.859.239 1.078 1.969 1.129 4.223 1.718 6.454 2.081.818.071 2.38.61 2.552-.597a.788.788 0 0 0-.751-.812l.004.004ZM113.769 128.219c-.426 0-.798.308-.814.749-.016.41.325.813.752.813.426 0 .798-.309.814-.75.015-.41-.325-.812-.752-.812ZM94.582 137.427a29.191 29.191 0 0 0-.693-1.828c-.638-1.499-1.096-3.038-1.66-4.577-1.146-4.201-1.408-8.672-1.072-13.003.169-.734-.614-1.496-1.307-.984a.805.805 0 0 0-.255.89c-.246 1.953-.113 3.933-.058 5.893.176 3.464.736 6.814 2.035 10.051.368 1.176.983 2.519 1.417 3.725.063.207.196.61.45.719.564.351 1.354-.242 1.147-.879l-.004-.007ZM94.872 139.996a.789.789 0 0 0-.787.777.79.79 0 0 0 .779.785.79.79 0 0 0 .787-.777.79.79 0 0 0-.78-.785ZM159.565 155.928c-.869-.386-1.781-.714-2.72-.89-1.347-.168-2.744-.113-4.114-.195-.419-.032-.818.292-.846.714-.015 1.156 1.398.789 2.157.898 1.581-.008 3.167.09 4.627.781.645.399 1.479.453 1.612-.461a.783.783 0 0 0-.72-.843l.004-.004ZM149.255 154.347c-.426 0-.763.406-.747.816.019.441.391.746.818.746.426 0 .763-.407.747-.817-.019-.437-.391-.745-.818-.745ZM113.468 91.875c.845-.59.015-1.855-.854-1.312-2.418.922-5.041 1.937-6.822 3.901-.466.55-1.538 1.258-.779 2.004 1.002.75 1.758-.973 2.443-1.5 1.323-1.035 2.837-1.824 4.387-2.464.533-.234 1.151-.277 1.625-.633v.004ZM103.643 97.955c-.426 0-.763.406-.747.817.019.44.391.745.818.745.426 0 .763-.406.747-.816-.019-.441-.391-.746-.818-.746ZM69.27 134.81c-.341-.531-.991-.371-1.41-.027-1.096.543-2.235.996-3.35 1.495-1.327.442-2.791.524-4.146.176-.414-.097-.841.195-.931.602-.157 1.112 1.33 1.062 2.09 1.163a9.23 9.23 0 0 0 4.744-1.003c.799-.477 3.761-1.121 2.998-2.406h.004ZM71.062 134.056c.426 0 .763-.406.747-.816-.02-.441-.391-.745-.818-.745-.426 0-.763.406-.747.816.02.441.391.745.818.745ZM74.585 142.932c-.69.461-1.359.977-2.126 1.293a.8.8 0 0 0-.908.402.792.792 0 0 0 .348 1.051c1.198.511 2.56-.867 3.543-1.437.845-.582.015-1.851-.854-1.309h-.003ZM76.956 140.586c-.426 0-.763.406-.747.816.02.441.391.746.818.746.427 0 .763-.407.747-.817-.02-.441-.391-.745-.818-.745ZM65.48 121.971c1.198.718 2.497 1.273 3.82 1.714.685.351 1.425-.492.995-1.129-.196-.312-.568-.363-.885-.48-.36-.129-.712-.269-1.065-.418a19.77 19.77 0 0 1-1.859-.902c-.372-.293-.935-.289-1.213.129-.231.344-.153.859.211 1.086h-.004ZM73.093 123.845c.427 0 .763-.406.748-.816-.02-.441-.392-.746-.818-.746-.427 0-.763.406-.748.816.02.442.392.746.818.746ZM96.617 157.943c-2.751 1.148-5.824 2.152-8.818 1.398-.415-.098-.842.191-.928.601-.219 1.328 2.247 1.137 3.108 1.207 1.988.082 3.906-.547 5.758-1.191.775-.289 1.71-.453 2.203-1.179.564-.895-.763-1.726-1.323-.836ZM84.26 158.849c-.426 0-.763.406-.747.816.02.441.391.746.818.746.426 0 .763-.406.747-.816-.02-.441-.391-.746-.818-.746ZM13.34 143.78c-2.725.074-5.613.507-7.97 1.948-.595.403-1.417 1.309-.606 1.906.508.359 1.021-.043 1.31-.472 1.152-.891 2.643-1.176 4.052-1.5 1.08-.258 2.184-.293 3.284-.328.427-.031.767-.383.744-.816-.02-.418-.392-.777-.818-.746l.003.008ZM16.713 143.585c-.426 0-.763.406-.747.816.02.441.391.746.818.746.427 0 .763-.407.748-.817-.02-.441-.392-.745-.819-.745ZM16.1 131.882c1.874.784 3.8 1.585 5.87 1.749 1.178.008 1.085-1.621-.086-1.585a14.714 14.714 0 0 1-3.906-1.063c-.568-.261-1.108-.62-1.746-.66-1.03-.054-1.15 1.453-.133 1.559ZM25.595 134.221c.426 0 .763-.407.747-.817-.02-.441-.391-.745-.818-.745-.426 0-.763.406-.747.816.02.441.391.746.818.746ZM19.238 122.33c.282.109.529 0 .764-.117 1.068-.234 2.238-.145 3.24.343.924.438 1.617-.909.709-1.394a6.445 6.445 0 0 0-2.732-.636c-.814.051-2.024-.047-2.454.804-.157.399.082.859.473.996v.004ZM26.12 124.38c.426 0 .763-.406.747-.816-.02-.441-.391-.746-.818-.746-.427 0-.763.406-.748.816.02.442.392.746.818.746ZM32.3 118.015c.426 0 .763-.406.747-.816-.02-.441-.391-.746-.818-.746-.426 0-.763.406-.747.816.02.442.391.746.818.746ZM25.094 162.348c-.396.449-.756.929-1.175 1.355-.614.605-1.366 1.058-2.16 1.39-.826.199-2.122 1.117-1.143 1.945.368.253.869.128 1.111-.239 1.856-.636 3.378-1.847 4.537-3.416.67-.77-.485-1.789-1.17-1.039v.004ZM27.203 159.657c-.426 0-.763.406-.747.816.02.442.391.746.818.746.427 0 .763-.406.747-.816-.02-.441-.39-.746-.818-.746ZM35.431 165.523c-.427 0-.763.406-.748.816.02.441.392.746.818.746.427 0 .764-.407.748-.817-.02-.441-.391-.745-.818-.745ZM45.189 165.608c-.427 0-.763.407-.748.817.02.441.392.745.819.745.426 0 .763-.406.747-.816-.02-.441-.391-.746-.818-.746ZM94.19 180.97c-.27-.874-.34-3.049-1.749-2.385-.513.355-.329.878-.102 1.339.595 3.011 2.157 5.846 4.31 8.032.7.75 1.835-.292 1.158-1.05-1.655-1.64-2.857-3.729-3.616-5.936ZM99.674 188.632c-.426 0-.798.293-.826.734-.023.406.31.824.736.824.427 0 .799-.293.826-.734.024-.406-.309-.824-.736-.824ZM114.333 197.609a.792.792 0 0 0 .129 1.133c.301.527.517 1.109.818 1.636.846 1.496 1.805 2.917 2.67 4.401-.012-.02-.024-.035-.032-.055.208.348.411.699.634 1.062.591.836 1.844-.019 1.292-.882-1.123-1.984-2.509-3.921-3.566-6.022-.274-.761-1.037-2.155-1.941-1.273h-.004ZM121.398 209.312c.427 0 .798-.292.826-.734.023-.406-.309-.824-.736-.824s-.799.293-.826.735c-.023.406.309.823.736.823ZM101.35 202.006a.782.782 0 0 0-.306.867c-.137.473-.297.938-.356 1.43-.066.558-.062 1.116-.047 1.679.008.425.427.753.838.726.704-.047.775-.785.716-1.339-.023-.699.133-1.422.364-2.09.309-.769-.368-1.792-1.205-1.273h-.004ZM101.694 208.282c-.427 0-.798.292-.826.734-.023.406.309.824.736.824s.798-.293.826-.734c.023-.407-.309-.824-.736-.824ZM103.773 169.295c-.368.211-.548.652-.349 1.046 1.938 2.406 3.742 4.999 5.891 7.217 1.597.558 3.041 1.226 4.486 2.167a.795.795 0 0 0 1.084-.238c.509-.867-.591-1.285-1.19-1.637-1.116-.679-2.298-1.261-3.558-1.624-1.73-2.105-3.468-4.159-5.085-6.365-.254-.437-.759-.847-1.279-.57v.004ZM117.167 181.431c.426 0 .798-.293.826-.734.023-.406-.31-.824-.736-.824-.427 0-.799.293-.826.734-.024.406.309.824.736.824Z"/></g><defs><clipPath id="a"><path fill="#fff" d="M0 0h278v221H0z"/></clipPath></defs></svg>