<svg width="208" height="18" viewBox="0 0 208 18" fill="none" xmlns="http://www.w3.org/2000/svg">
<path fill-rule="evenodd" clip-rule="evenodd" d="M99.6839 13.5952C100.361 13.2234 100.987 12.7659 101.548 12.2341L103.165 13.8724C102.808 14.2562 102.421 14.6096 102.006 14.9287C101.6 15.2369 101.164 15.5038 100.705 15.7255C100.22 15.9582 99.708 16.1309 99.1807 16.2397C98.5783 16.3592 97.9652 16.4168 97.351 16.4115C96.3524 16.4214 95.3623 16.226 94.4423 15.8374C93.575 15.4723 92.7887 14.9385 92.1291 14.2672C91.4695 13.5959 90.9498 12.8003 90.6 11.9266C90.2248 11.011 90.0357 10.0299 90.0435 9.04046V8.99946C90.0348 8.01491 90.22 7.03827 90.5885 6.12525C90.9424 5.24342 91.4671 4.44023 92.1324 3.76183C92.7977 3.08342 93.5905 2.54318 94.4653 2.17214C95.4108 1.77415 96.4282 1.57564 97.4539 1.58901C98.0538 1.58519 98.6526 1.64013 99.2418 1.75304C99.7524 1.85337 100.251 2.00803 100.728 2.21438C101.167 2.40657 101.584 2.64275 101.975 2.91929C102.358 3.19361 102.721 3.49511 103.061 3.82146L101.445 5.68196C100.899 5.17187 100.286 4.73841 99.6232 4.39351C98.9424 4.05632 98.1906 3.88756 97.431 3.90142C96.779 3.89513 96.1335 4.03189 95.5401 4.30206C94.9717 4.56004 94.4599 4.92797 94.0343 5.38466C93.6052 5.85212 93.271 6.39847 93.0501 6.99338C92.8158 7.62109 92.6982 8.28638 92.7032 8.9564V8.99741C92.6983 9.67129 92.8158 10.3405 93.0501 10.9723C93.27 11.5733 93.6042 12.126 94.0343 12.5999C94.4562 13.0647 94.9686 13.4382 95.5401 13.6977C96.1344 13.9648 96.7794 14.1001 97.431 14.0942C98.2116 14.1164 98.9856 13.945 99.6839 13.5952ZM50.1049 13.5952C50.7825 13.2242 51.409 12.7667 51.9687 12.2341L53.5848 13.8724C53.229 14.2564 52.8415 14.6098 52.4263 14.9287C52.0207 15.237 51.5852 15.5039 51.1264 15.7255C50.6408 15.9582 50.1287 16.1309 49.6013 16.2397C48.9989 16.3592 48.3857 16.4168 47.7716 16.4115C46.7729 16.4214 45.7829 16.226 44.8629 15.8374C43.9965 15.4706 43.2111 14.9363 42.5518 14.2651C41.8924 13.594 41.372 12.7993 41.0205 11.9266C40.6454 11.011 40.4562 10.0299 40.4641 9.04047V8.99946C40.4555 8.01489 40.6409 7.03827 41.0095 6.12525C41.3634 5.24349 41.888 4.44034 42.5533 3.76194C43.2185 3.08354 44.0112 2.54326 44.8859 2.17214C45.8313 1.77416 46.8488 1.57564 47.8745 1.58902C48.4757 1.58537 49.0759 1.6403 49.6665 1.75305C50.1756 1.8539 50.6725 2.00854 51.1489 2.21438C51.5873 2.40639 52.005 2.64258 52.3956 2.9193C52.7789 3.19362 53.1421 3.49512 53.4823 3.82146L51.8657 5.68196C51.3196 5.17168 50.7066 4.7382 50.0434 4.39351C49.3629 4.05633 48.6113 3.88757 47.8519 3.90142C47.1999 3.8951 46.5545 4.03186 45.9611 4.30207C45.3925 4.55984 44.8807 4.9278 44.4553 5.38466C44.026 5.85201 43.6918 6.3984 43.4711 6.99338C43.2366 7.62106 43.119 8.28637 43.1242 8.9564V8.99741C43.1191 9.67131 43.2366 10.3405 43.4711 10.9723C43.6908 11.5734 44.025 12.1262 44.4553 12.5999C44.8769 13.0649 45.3894 13.4385 45.9611 13.6977C46.5553 13.9649 47.2004 14.1001 47.8519 14.0942C48.6326 14.1163 49.4066 13.9449 50.1049 13.5952ZM3.55578 10.0611L3.55578 13.8924L11.7618 13.8924V16.1643H1.05884V1.83463L11.6601 1.83463V4.10685L3.55578 4.10685L3.55578 7.78931L10.7415 7.78931V10.0611H3.55578ZM17.2489 1.83627V13.8924L24.7811 13.8924L24.7811 16.1643H14.7519L14.7519 1.83627L17.2489 1.83627ZM29.9011 13.8924V10.0611H37.0868V7.78931L29.9011 7.78931V4.10685L38.0054 4.10685V1.83463L27.4025 1.83463V16.1643H38.1054V13.8924L29.9011 13.8924ZM55.1597 1.83463V4.16795H59.7037V16.1643H62.2425V4.16795L66.7865 4.16795V1.83463L55.1597 1.83463ZM79.102 10.1567C78.6698 10.4136 78.2042 10.6098 77.7184 10.7398L81.5903 16.1643L78.6206 16.1643L75.0858 11.1671L73.5841 8.93711H75.6197C76.3912 8.97933 77.1532 8.7501 77.7734 8.28919C78.0364 8.08027 78.2463 7.81217 78.386 7.50675C78.5258 7.20133 78.5914 6.86721 78.5775 6.53162V6.49061C78.5987 6.15383 78.5391 5.81688 78.4035 5.50785C78.268 5.19882 78.0605 4.92669 77.7984 4.71417C77.1528 4.27359 76.3789 4.06036 75.5988 4.10808L71.9237 4.10808V16.1643H69.4271V1.83545L75.8161 1.83545C76.63 1.82166 77.44 1.94945 78.2101 2.21313C78.8588 2.43595 79.4517 2.79613 79.9484 3.26907C80.3321 3.6604 80.6317 4.12609 80.8288 4.63749C81.0399 5.18687 81.1446 5.77132 81.1376 6.3598V6.39793C81.1443 6.93714 81.0578 7.47345 80.8822 7.98328C80.7207 8.4384 80.4807 8.8617 80.1731 9.234C79.8701 9.5992 79.5081 9.91107 79.102 10.1567ZM84.352 1.83463V16.1643H86.8494V1.83463L84.352 1.83463Z" fill="#28292D"/>
<path fill-rule="evenodd" clip-rule="evenodd" d="M128.465 12.2336C127.905 12.766 127.279 13.2236 126.601 13.5946C125.904 13.9448 125.131 14.1163 124.352 14.0937C123.699 14.0996 123.053 13.9643 122.457 13.6972C121.886 13.4372 121.374 13.0637 120.952 12.5994C120.521 12.1257 120.187 11.573 119.967 10.9718C119.735 10.3394 119.618 9.6706 119.621 8.99689V8.95588C119.618 8.28604 119.735 7.62112 119.967 6.99286C120.188 6.39782 120.522 5.85141 120.952 5.38414C121.378 4.92791 121.889 4.56005 122.457 4.30155C123.052 4.03132 123.699 3.89458 124.352 3.9009C125.11 3.88756 125.86 4.05631 126.54 4.39299C127.204 4.73698 127.817 5.17052 128.362 5.68144L129.978 3.82094C129.639 3.49464 129.278 3.19314 128.896 2.91877C128.504 2.64214 128.085 2.40596 127.645 2.21386C127.169 2.00802 126.672 1.85338 126.162 1.75253C125.572 1.63962 124.972 1.58468 124.371 1.5885C123.345 1.57543 122.328 1.77393 121.382 2.17162C120.507 2.54266 119.715 3.08291 119.049 3.76131C118.384 4.43972 117.859 5.24291 117.505 6.12473C117.14 7.0377 116.955 8.01307 116.962 8.99648L116.962 9.03749C116.956 10.0267 117.146 11.0075 117.519 11.9236C117.875 12.7969 118.396 13.593 119.055 14.2676C119.715 14.9364 120.5 15.4689 121.365 15.8345C122.284 16.2234 123.273 16.4189 124.27 16.4086C124.885 16.414 125.5 16.3564 126.103 16.2367C126.629 16.1268 127.14 15.9539 127.624 15.7217C128.082 15.4984 128.518 15.2316 128.924 14.9249C129.338 14.6058 129.725 14.2524 130.08 13.8686L128.465 12.2336ZM140.091 1.73145L137.757 1.73145L131.454 16.164H134.035L135.506 12.703L136.428 10.4726L138.883 4.73934L141.362 10.473L142.285 12.7034L143.737 16.1644H146.398L140.091 1.73145ZM158.466 3.14199C158.933 3.56286 159.302 4.0807 159.549 4.65927C159.81 5.28074 159.939 5.94955 159.929 6.62352V6.66453C159.944 7.39677 159.789 8.12253 159.475 8.7842C159.184 9.37836 158.764 9.89948 158.244 10.3089C157.7 10.7311 157.08 11.0467 156.418 11.2389C155.693 11.4553 154.938 11.562 154.181 11.5555H151.329V16.1639H148.832V1.83427L154.482 1.83427C155.25 1.8239 156.014 1.93716 156.746 2.16971C157.38 2.37346 157.965 2.7043 158.466 3.14199ZM157.164 7.7355C157.308 7.41474 157.378 7.06559 157.368 6.71415L157.366 6.67601C157.391 6.31152 157.328 5.94639 157.181 5.61177C157.034 5.27716 156.809 4.983 156.524 4.75441C155.866 4.29149 155.072 4.06328 154.268 4.10649L151.329 4.10649V9.28285H154.268C155.087 9.33004 155.894 9.07511 156.537 8.56645C156.806 8.34033 157.02 8.05626 157.164 7.7355ZM162.629 1.83427V16.1639H165.13V1.83427L162.629 1.83427ZM167.931 4.16759V1.83427L179.558 1.83427V4.16759L175.014 4.16759L175.014 16.1639H172.475V4.16759H167.931ZM187.666 1.73145L185.333 1.73145L179.028 16.164H181.604L183.081 12.703L184.003 10.4726L186.458 4.73934L188.935 10.473L189.854 12.7034L191.31 16.1644H193.971L187.666 1.73145ZM199.007 1.83591V13.8921H206.539V16.1639H196.51V1.83591L199.007 1.83591Z" fill="#28292D"/>
<path d="M112.235 8.17158H109.587V1.58838L106.941 9.82871H109.587V16.4119L112.235 8.17158Z" fill="#00BBF2"/>
</svg>
