<svg xmlns="http://www.w3.org/2000/svg" xmlns:xlink="http://www.w3.org/1999/xlink" id="Layer_1" x="0" y="0" version="1.1" viewBox="0 0 209.5 48" xml:space="preserve"><style>.st1{fill: black;}</style><defs><rect id="SVGID_1_" width="210" height="48" x="-.4" y="0"/></defs><clipPath id="SVGID_2_"><use overflow="visible" xlink:href="#SVGID_1_"/></clipPath><g clip-path="url(#SVGID_2_)"><path d="M110.2 29c-5.3 0-9.5 4.1-9.5 9.5s4.3 9.5 9.5 9.5c5.3 0 9.5-4.2 9.5-9.5 0-5.4-4.2-9.5-9.5-9.5zm0 3.8c3.2 0 5.6 2.4 5.6 5.7s-2.5 5.7-5.6 5.7c-3.2 0-5.6-2.4-5.6-5.7-.1-3.3 2.4-5.7 5.6-5.7zm79.1 9.1v-8.7h4.5v-3.8h-4.5v-5.1l-3.9 1.2v3.9h-3.3v3.8h3.3v8.7c0 4.7 2.4 6.4 8.4 5.6V44c-3 .2-4.5.2-4.5-2.1zm20.2 2h-8.9l8.9-10.7v-3.6h-13.8v3.6h8.9l-8.9 10.7v3.7h13.8v-3.7zm-78.8-14.7v4.2c-2.6-.2-5.6 1-5.6 5.1v9.1h-3.9V29.5h3.9v3c1.1-2.4 3.3-3.3 5.6-3.3zm9.4-.2c-5.3 0-9.5 4.1-9.5 9.5s4.3 9.5 9.5 9.5c5.3 0 9.5-4.2 9.5-9.5.1-5.4-4.1-9.5-9.5-9.5zm0 3.8c3.2 0 5.6 2.4 5.6 5.7s-2.5 5.7-5.6 5.7c-3.2 0-5.6-2.4-5.6-5.7s2.5-5.7 5.6-5.7zm35.3-3.3l-5.7 18.1h-3.8l-3.8-12.2-3.8 12.2h-3.8l-5.7-18.1h4.1l3.5 12.5 3.8-12.5h3.7l3.8 12.5 3.5-12.5h4.2zm5.2 0h-3.9v18.1h3.9V29.5zM53.7 1.2v7.5c-1.5-1.1-3.6-2-5.6-2-5.6 0-10.1 4.9-9.5 10.6.5 4.4 4.1 8 8.5 8.5 2.5.2 4.8-.5 6.6-1.8v1.4h4V0l-4 1.2zm-.1 15.1c0 3.5-3.2 6.2-6.8 5.4-2.1-.4-3.8-2.1-4.3-4.3-.7-3.6 2.1-6.8 5.6-6.8 3 0 5.5 2.5 5.5 5.7zm-38.5-9v1.2c-1.5-1.1-3.5-1.8-5.5-1.8C4 6.7-.5 11.6.1 17.3c.5 4.4 4.1 8 8.5 8.5 2.5.2 4.8-.5 6.6-1.8v1.4h4V7.3h-4.1zm0 9c0 3.5-3.2 6.2-6.8 5.4-2.1-.4-3.8-2.1-4.3-4.3-.7-3.6 2.1-6.8 5.6-6.8 3 0 5.5 2.5 5.5 5.7zm15.1-9.5c-2.5 0-4.4.9-5.6 2.8V7.2h-3.9v18.1h3.9v-9.7c0-3.7 2-5.2 4.6-5.2 2.5 0 4 1.4 4 4.2v10.7h3.9v-11c.1-4.7-2.8-7.5-6.9-7.5zM102.9 20c-.9 1.3-2.5 2.2-4.7 2.2-2.9 0-5.2-1.4-5.8-4.3h14.4c.1-.5.1-1.1.1-1.6 0-5.2-3.7-9.5-9.1-9.5-5.7 0-9.5 4.2-9.5 9.5 0 5.4 3.9 9.5 9.8 9.5 3.5 0 6.3-1.5 7.9-3.9l-3.1-1.9zm-5-9.6c2.4 0 4.6 1.3 5.2 4.4H92.4c.6-2.7 2.6-4.4 5.5-4.4zm49.7 11.9c2.2 0 3.8-1 4.7-2.2l3.2 1.9c-1.7 2.5-4.4 3.9-7.9 3.9-6 0-9.8-4.1-9.8-9.5s3.9-9.5 9.5-9.5c5.4 0 9.1 4.3 9.1 9.5 0 .2 0 .5-.1.8 0 .3-.1.5-.1.8h-14.4c.6 2.8 2.9 4.3 5.8 4.3zm4.8-7.5c-.5-3.1-2.8-4.4-5.2-4.4-2.9 0-4.9 1.7-5.5 4.4h10.7zm28.2 10.6h-3.9v-3.5h3.9v3.5zm-22.3 0h3.9v-9.7c0-3.7 2-5.2 4.6-5.2 2.4 0 4 1.5 4 4.2v10.6h3.9V14.2c0-4.7-2.9-7.4-6.9-7.4-2.5 0-4.4.9-5.6 2.8V7.3h-3.9v18.1zm-46.2-13.1c0-1.3 1.2-1.9 2.6-1.9s2.6.6 3.3 1.8l3.4-1.7c-1.3-2.3-3.7-3.7-6.7-3.7-3.7 0-6.6 2.1-6.6 5.5 0 3.8 3.2 4.7 6 5.5h.1c.1 0 .2.1.3.1 1.9.6 3.3 1 3.3 2.3 0 1.4-1.3 2-3.1 2-1.7 0-3.1-.7-3.8-2l-3.5 1.7c1.2 2.4 3.8 3.9 7.2 3.9 3.9 0 7.1-2 7.1-5.6 0-3.9-3.4-4.9-6.1-5.6-1.8-.5-3.5-1-3.5-2.3zm15.1 0c0-1.3 1.2-1.9 2.6-1.9s2.6.6 3.4 1.9l3.4-1.7c-1.3-2.3-3.8-3.7-6.7-3.7-3.7 0-6.6 2.1-6.6 5.5 0 3.8 3.2 4.7 6 5.5H129.6c1.8.6 3.4 1.1 3.4 2.4 0 1.4-1.4 2-3.1 2-1.8 0-3.1-.7-3.8-2l-3.5 1.7c1.2 2.4 3.7 3.9 7.2 3.9 4 0 7.1-2 7.1-5.6 0-3.9-3.2-4.8-6-5.6h-.1c-.2 0-.3-.1-.5-.1-1.7-.6-3.1-1-3.1-2.3zm-58.4-1.1V7c-2.3 0-4.5.9-5.6 3.3v-3h-3.9v18.1h3.9v-9.1c0-4.1 3-5.3 5.6-5.1zm17.9 10.7v9.9c1.2-1.9 3.1-2.8 5.6-2.8 4 0 6.9 2.7 6.9 7.4v11.2h-3.9V36.9c0-2.7-1.6-4.2-4-4.2-2.6 0-4.6 1.5-4.6 5.2v9.7h-3.9V25.1c-1.2.5-2.5.8-4 .8-6 0-9.8-4.1-9.8-9.5s3.9-9.5 9.5-9.5c5.4 0 9.1 4.3 9.1 9.5 0 .2 0 .5-.1.8 0 .3-.1.5-.1.8H73c.6 2.8 2.9 4.3 5.8 4.3 1.7 0 3-.6 4-1.4.3-.2.5-.5.7-.8l3.2 1.8zm-3.1-7.1c-.6-3.1-2.8-4.4-5.2-4.4-2.9 0-4.9 1.7-5.4 4.4h10.6z" class="st1"/></g></svg>
