<svg width="32" height="27" viewBox="0 0 32 27" fill="none" xmlns="http://www.w3.org/2000/svg">
<path d="M28.7106 6.98225C28.7309 7.2665 28.7309 7.55082 28.7309 7.83507C28.7309 16.5051 22.132 26.4949 10.0711 26.4949C6.35531 26.4949 2.90356 25.4188 0 23.5508C0.527937 23.6117 1.0355 23.632 1.58375 23.632C4.64969 23.632 7.47206 22.5965 9.72587 20.83C6.84262 20.7691 4.42637 18.8808 3.59387 16.2818C4 16.3426 4.40606 16.3833 4.8325 16.3833C5.42131 16.3833 6.01019 16.302 6.55837 16.1599C3.55331 15.5508 1.29944 12.9112 1.29944 9.72338V9.64219C2.1725 10.1295 3.18781 10.4341 4.26387 10.4746C2.49737 9.29694 1.34006 7.28682 1.34006 5.01269C1.34006 3.79444 1.66487 2.67769 2.23344 1.70306C5.46187 5.68275 10.3147 8.28169 15.7562 8.566C15.6547 8.07869 15.5938 7.57113 15.5938 7.0635C15.5938 3.44925 18.5177 0.505127 22.1522 0.505127C24.0405 0.505127 25.7461 1.297 26.9441 2.57619C28.4262 2.29194 29.8476 1.74369 31.1065 0.99244C30.6191 2.51532 29.5836 3.7945 28.2232 4.60663C29.5431 4.46457 30.8222 4.099 31.9999 3.59144C31.1066 4.89088 29.9898 6.04819 28.7106 6.98225Z" fill="#0D0C22"/>
</svg>
