<svg xmlns="http://www.w3.org/2000/svg" width="354" height="41" fill="none"><path fill="#000" d="m60.272 19.616-1.925-3.46-6.53-11.733L50.413 1.9a1.35 1.35 0 0 0-1.178-.708H29.516c-.486 0-.938.27-1.178.708l-1.571 2.823-6.898 12.402a.612.612 0 0 1-.683.29.62.62 0 0 1-.447-.606v-5.895c0-5.36-4.202-9.722-9.367-9.722H1.36C.609 1.192 0 1.824 0 2.604v8.31c0 3.877 2.224 7.342 5.666 8.83a.627.627 0 0 1 .373.575v.006a.634.634 0 0 1-.373.58C2.244 22.383.02 25.827 0 29.68v8.371c0 .78.609 1.412 1.36 1.412h8.008c5.165 0 9.367-4.362 9.367-9.722v-5.895c0-.285.187-.535.447-.606a.607.607 0 0 1 .682.296L27.21 36.73l1.124 2.023c.24.438.692.708 1.178.708H49.23c.486 0 .937-.27 1.178-.708l2.087-3.75 4.904-8.82.07-.128 2.253-4.05.54-.973c.25-.439.25-.979.01-1.417Zm-20.749 8.137c-3.844 0-6.977-3.332-6.977-7.428 0-4.097 3.128-7.43 6.977-7.43 3.844 0 6.977 3.333 6.977 7.43 0 4.096-3.133 7.428-6.977 7.428ZM148.921.218c-11.577 0-19.649 8.764-19.649 19.948 0 11.189 8.072 19.947 19.649 19.947 11.577 0 19.649-8.763 19.649-19.947S160.498.218 148.921.218Zm.349 33.801c-4.723.128-7.542-4.488-7.767-13.558-.251-9.986 2.346-14.016 7.006-14.144 4.846-.132 7.585 3.816 7.836 13.742.23 9.13-2.293 13.833-7.075 13.96ZM87.202.882H71.908c-.85 0-1.38.55-1.38 1.431v2.095c0 .937.32 1.268 1.115 1.6l1.006.387c1.115.438 1.488 1.044 1.488 2.257v23.035c0 1.213-.373 1.819-1.488 2.257l-1.006.387c-.796.331-1.115.663-1.115 1.6v2.094c0 .882.53 1.432 1.38 1.432h15.294c.85 0 1.38-.55 1.38-1.432v-2.094c0-.937-.32-1.269-1.115-1.6l-1.007-.387c-1.114-.438-1.487-1.044-1.487-2.257V8.652c0-1.213.373-1.82 1.487-2.257l1.007-.388c.795-.33 1.114-.662 1.114-1.6V2.314c0-.881-.53-1.431-1.38-1.431ZM128.07 34.387l-.584-.33c-1.434-.826-2.494-1.433-3.879-3.695l-4.993-8.32c-.265-.443-.108-.77.373-.882 4.193-1.156 6.584-3.694 6.584-8.213 0-8.534-6.412-12.07-20.115-12.07L93.285.989c-.85.112-1.277.606-1.277 1.432v2.094c0 .937.32 1.268 1.007 1.543l1.222.495c1.007.443 1.38.993 1.38 2.094v23.035c0 1.213-.373 1.819-1.488 2.257l-1.006.387c-.796.331-1.115.663-1.115 1.6v2.094c0 .882.53 1.432 1.38 1.432h15.294c.903 0 1.379-.55 1.379-1.432v-2.094c0-.937-.319-1.269-1.114-1.6l-1.012-.387c-1.114-.438-1.487-1.044-1.487-2.257v-8.545c0-.494.157-.662.53-.662.427 0 .692.331 1.06.993l7.277 13.666c.903 1.706 1.59 2.313 3.451 2.313h9.294c.904 0 1.277-.494 1.277-1.213v-1.982c.01-.871-.256-1.258-1.267-1.865Zm-19.649-16.533h-1.168c-.437 0-.751-.326-.751-.78V6.548c0-.454.314-.78.751-.78h1.227c4.129 0 6.687 1.554 6.687 5.865 0 4.305-1.978 6.22-6.746 6.22ZM351.854 6.395l1.007-.388c.795-.33 1.114-.662 1.114-1.6V2.314c0-.881-.476-1.431-1.379-1.431h-15.294c-.849 0-1.38.55-1.38 1.431v2.095c0 .937.32 1.268 1.115 1.6l1.006.387c1.115.438 1.488 1.044 1.488 2.257v6.944c0 .388-.265.663-.638.663H327.64c-.373 0-.639-.275-.639-.663V8.652c0-1.213.374-1.82 1.488-2.257l1.011-.388c.796-.33 1.115-.662 1.115-1.6V2.314c0-.881-.476-1.431-1.38-1.431h-15.293c-.85 0-1.38.55-1.38 1.431v2.095c0 .937.319 1.268 1.115 1.6l1.006.387c1.115.438 1.488 1.044 1.488 2.257v23.035c0 1.213-.373 1.819-1.488 2.257l-1.006.387c-.796.331-1.115.663-1.115 1.6v2.094c0 .882.53 1.432 1.38 1.432h15.293c.904 0 1.38-.55 1.38-1.432v-2.094c0-.937-.319-1.269-1.115-1.6l-1.011-.387c-1.114-.438-1.488-1.044-1.488-2.257v-9.151c0-.387.266-.662.639-.662h11.258c.373 0 .638.275.638.662v9.15c0 1.214-.373 1.82-1.488 2.258l-1.006.387c-.796.331-1.115.663-1.115 1.6v2.094c0 .882.531 1.432 1.38 1.432h15.294c.903 0 1.379-.55 1.379-1.432v-2.094c0-.937-.319-1.269-1.114-1.6l-1.007-.387c-1.114-.438-1.487-1.044-1.487-2.257V8.652c-.005-1.213.368-1.82 1.482-2.257ZM298.762 14.99l-6.481-1.982c-3.186-.994-4.885-2.15-4.885-4.076 0-1.875 1.699-3.067 4.301-3.088 3.653-.03 6.908 1.707 11.577 6.945.638.718 1.326.993 2.283.443l1.115-.662c.957-.55 1.099-1.37.638-2.206l-4.64-8.32c-.535-.984-.903-1.657-2.018-1.657h-.51c-1.277 0-1.434.607-2.71.607-1.645 0-3.413-.663-6.427-.663-8.337 0-13.752 4.188-13.752 11.571 0 6.17 4.301 9.645 9.613 11.464l6.903 2.37c3.397 1.156 5.204 2.48 5.204 4.906 0 2.588-1.91 3.745-5.042 3.745-4.777 0-8.921-2.812-13.276-8.764-.692-.937-1.38-1.1-2.283-.662l-1.753.882c-.795.387-1.021 1.217-.53 2.257l4.89 10.414c.442.938 1.061 1.325 1.807 1.325h.633c1.169 0 1.964-.825 3.029-.825 1.964 0 3.928.993 8.337.993 8.813 0 15.083-4.244 15.083-12.396-.005-7.551-4.841-10.746-11.106-12.621ZM271.875.882h-15.294c-.85 0-1.38.55-1.38 1.431v2.095c0 .937.319 1.268 1.115 1.6l1.006.387c1.115.438 1.488 1.044 1.488 2.257v23.035c0 1.213-.373 1.819-1.488 2.257l-1.006.387c-.796.331-1.115.663-1.115 1.6v2.094c0 .882.53 1.432 1.38 1.432h15.294c.849 0 1.379-.55 1.379-1.432v-2.094c0-.937-.319-1.269-1.114-1.6l-1.007-.387c-1.114-.438-1.487-1.044-1.487-2.257V8.652c0-1.213.373-1.82 1.487-2.257l1.007-.388c.795-.33 1.114-.662 1.114-1.6V2.314c0-.881-.53-1.431-1.379-1.431ZM248.809 1.05c-.354-.637-.692-1.05-1.488-1.05h-1.055c-.584 0-.909.143-1.35.5-.482.381-.899.381-1.94.381H223.2c-.849 0-1.38.55-1.38 1.432v2.094c0 .938.319 1.269 1.115 1.6l1.006.387c1.115.439 1.488 1.045 1.488 2.258v23.035c0 1.212-.373 1.819-1.488 2.257l-1.006.387c-.796.331-1.115.662-1.115 1.6v2.094c0 .881.531 1.432 1.38 1.432h16.035c.903 0 1.38-.55 1.38-1.432v-2.094c0-.938-.265-1.376-1.115-1.6l-1.753-.494c-1.168-.331-1.487-.938-1.487-2.15v-9.702c0-.387.265-.662.638-.662h.903c4.144 0 6.692 2.206 9.295 5.345.373.443.849.606 1.487.275l1.326-.718c.584-.332.8-.861.53-1.432l-4.114-8.764c-.236-.499-.531-.805-1.139-.805h-.653c-.447 0-.732.128-1.139.464-.369.295-.815.504-1.385.504h-5.111c-.373 0-.638-.275-.638-.662V8.478c0-1.982.741-2.756 2.759-2.756 3.452 0 8.18 3.144 10.939 6.007.476.494 1.06.606 1.699.22l1.433-.938c.476-.332.801-.851.476-1.432l-4.757-8.53ZM207.306 34.83l-1.222-.438c-1.115-.387-1.488-1.05-1.488-2.262V8.158c0-1.213.373-1.82 1.488-2.258l1.011-.387c.796-.331 1.115-.662 1.115-1.6v-1.6c0-.881-.476-1.431-1.38-1.431h-10.197c-.85 0-1.38.55-1.38 1.431v1.6c0 .938.319 1.269 1.115 1.6l1.006.387c1.115.439 1.488 1.045 1.488 2.258V21.66c0 .229-.177.412-.398.412a.39.39 0 0 1-.304-.152L184.604 2.206c-.339-.535-.682-.886-1.036-1.06-.353-.173-.84-.26-1.458-.26h-10.114c-.85 0-1.38.551-1.38 1.433v2.094c0 .937.319 1.268 1.115 1.6l1.006.387c1.115.438 1.488 1.044 1.488 2.257v23.53c0 1.212-.373 1.818-1.488 2.261l-1.006.388c-.796.33-1.115.662-1.115 1.6v1.6c0 .88.53 1.431 1.38 1.431h10.197c.904 0 1.38-.55 1.38-1.432v-1.6c0-.937-.319-1.268-1.115-1.6l-1.006-.387c-1.115-.443-1.488-1.05-1.488-2.262V16.992c0-.229.177-.412.398-.412.123 0 .236.061.304.153l15.009 21.404c.334.535.683.887 1.036 1.06.354.173.84.26 1.458.26h8.872c.904 0 1.38-.55 1.38-1.432v-1.6c0-.937-.319-1.32-1.115-1.594Z"/></svg>