<svg xmlns="http://www.w3.org/2000/svg" width="354" height="41" fill="none"><path fill="#000" d="m353.743 19.616-1.924-3.46-6.53-11.733-1.404-2.523a1.35 1.35 0 0 0-1.179-.708h-19.717c-.486 0-.938.27-1.179.708l-1.571 2.823-6.898 12.402a.61.61 0 0 1-.682.29.62.62 0 0 1-.447-.606v-5.895c0-5.36-4.203-9.722-9.368-9.722h-8.012c-.752 0-1.36.632-1.36 1.412v8.31c0 3.877 2.224 7.342 5.665 8.83a.627.627 0 0 1 .374.575v.006a.634.634 0 0 1-.374.58c-3.422 1.478-5.646 4.922-5.665 8.774v8.371c0 .78.608 1.412 1.36 1.412h8.007c5.165 0 9.368-4.362 9.368-9.722v-5.895c0-.285.187-.535.447-.606a.606.606 0 0 1 .682.296l7.345 13.196 1.125 2.023c.24.438.692.708 1.178.708h19.717c.486 0 .938-.27 1.179-.708l2.086-3.75 4.905-8.82.069-.128 2.253-4.05.54-.973c.251-.439.251-.979.01-1.417Zm-20.748 8.137c-3.844 0-6.977-3.332-6.977-7.428 0-4.097 3.128-7.43 6.977-7.43 3.844 0 6.976 3.333 6.976 7.43 0 4.096-3.132 7.428-6.976 7.428ZM78.393.218c-11.577 0-19.649 8.764-19.649 19.948 0 11.189 8.072 19.947 19.649 19.947 11.577 0 19.648-8.763 19.648-19.947S89.97.218 78.393.218Zm.348 33.801c-4.723.128-7.54-4.488-7.767-13.558-.25-9.986 2.347-14.016 7.006-14.144 4.846-.132 7.586 3.816 7.836 13.742.231 9.13-2.293 13.833-7.075 13.96ZM16.673.882H1.38C.53.882 0 1.432 0 2.313v2.095c0 .937.32 1.268 1.115 1.6l1.006.387c1.114.438 1.488 1.044 1.488 2.257v23.035c0 1.213-.374 1.819-1.488 2.257l-1.006.387c-.796.331-1.115.663-1.115 1.6v2.094c0 .882.53 1.432 1.38 1.432h15.293c.85 0 1.38-.55 1.38-1.432v-2.094c0-.937-.32-1.269-1.114-1.6l-1.007-.387c-1.114-.438-1.488-1.044-1.488-2.257V8.652c0-1.213.373-1.82 1.488-2.257l1.007-.388c.795-.33 1.114-.662 1.114-1.6V2.314c0-.881-.53-1.431-1.38-1.431ZM57.542 34.387l-.584-.33c-1.434-.826-2.494-1.433-3.879-3.695l-4.993-8.32c-.265-.443-.108-.77.373-.882 4.193-1.156 6.584-3.694 6.584-8.213 0-8.534-6.412-12.07-20.115-12.07L22.757.989c-.85.112-1.277.606-1.277 1.432v2.094c0 .937.32 1.268 1.007 1.543l1.223.495c1.006.443 1.38.993 1.38 2.094v23.035c0 1.213-.374 1.819-1.488 2.257l-1.007.387c-.795.331-1.114.663-1.114 1.6v2.094c0 .882.53 1.432 1.38 1.432h15.293c.903 0 1.38-.55 1.38-1.432v-2.094c0-.937-.32-1.269-1.115-1.6l-1.011-.387c-1.115-.438-1.488-1.044-1.488-2.257v-8.545c0-.494.157-.662.53-.662.427 0 .692.331 1.06.993l7.277 13.666c.903 1.706 1.59 2.313 3.451 2.313h9.294c.904 0 1.277-.494 1.277-1.213v-1.982c.01-.871-.255-1.258-1.267-1.865ZM37.894 17.854h-1.169c-.437 0-.751-.326-.751-.78V6.548c0-.454.314-.78.751-.78h1.227c4.13 0 6.688 1.554 6.688 5.865 0 4.305-1.98 6.22-6.746 6.22ZM281.326 6.395l1.007-.388c.795-.33 1.114-.662 1.114-1.6V2.314c0-.881-.476-1.431-1.38-1.431h-15.293c-.85 0-1.38.55-1.38 1.431v2.095c0 .937.319 1.268 1.115 1.6l1.006.387c1.115.438 1.488 1.044 1.488 2.257v6.944c0 .388-.265.663-.639.663h-11.253c-.373 0-.638-.275-.638-.663V8.652c0-1.213.373-1.82 1.488-2.257l1.011-.388c.796-.33 1.115-.662 1.115-1.6V2.314c0-.881-.477-1.431-1.38-1.431h-15.294c-.849 0-1.379.55-1.379 1.431v2.095c0 .937.319 1.268 1.114 1.6l1.007.387c1.114.438 1.487 1.044 1.487 2.257v23.035c0 1.213-.373 1.819-1.487 2.257l-1.007.387c-.795.331-1.114.663-1.114 1.6v2.094c0 .882.53 1.432 1.379 1.432h15.294c.903 0 1.38-.55 1.38-1.432v-2.094c0-.937-.319-1.269-1.115-1.6l-1.011-.387c-1.115-.438-1.488-1.044-1.488-2.257v-9.151c0-.387.265-.662.638-.662h11.258c.373 0 .639.275.639.662v9.15c0 1.214-.374 1.82-1.488 2.258l-1.007.387c-.795.331-1.114.663-1.114 1.6v2.094c0 .882.53 1.432 1.38 1.432h15.293c.904 0 1.38-.55 1.38-1.432v-2.094c0-.937-.319-1.269-1.115-1.6l-1.006-.387c-1.115-.438-1.488-1.044-1.488-2.257V8.652c-.005-1.213.369-1.82 1.483-2.257ZM228.234 14.99l-6.481-1.982c-3.186-.994-4.885-2.15-4.885-4.076 0-1.875 1.699-3.067 4.301-3.088 3.652-.03 6.908 1.707 11.577 6.945.638.718 1.325.993 2.283.443l1.114-.662c.958-.55 1.1-1.37.639-2.206l-4.64-8.32c-.535-.984-.904-1.657-2.018-1.657h-.511c-1.276 0-1.433.607-2.71.607-1.645 0-3.412-.663-6.427-.663-8.336 0-13.752 4.188-13.752 11.571 0 6.17 4.301 9.645 9.614 11.464l6.903 2.37c3.397 1.156 5.204 2.48 5.204 4.906 0 2.588-1.91 3.745-5.042 3.745-4.778 0-8.921-2.812-13.276-8.764-.693-.937-1.38-1.1-2.283-.662l-1.753.882c-.795.387-1.021 1.217-.53 2.257l4.89 10.414c.442.938 1.06 1.325 1.807 1.325h.633c1.168 0 1.964-.825 3.029-.825 1.964 0 3.928.993 8.337.993 8.813 0 15.082-4.244 15.082-12.396-.004-7.551-4.84-10.746-11.105-12.621ZM201.347.882h-15.294c-.849 0-1.38.55-1.38 1.431v2.095c0 .937.319 1.268 1.115 1.6l1.006.387c1.115.438 1.488 1.044 1.488 2.257v23.035c0 1.213-.373 1.819-1.488 2.257l-1.006.387c-.796.331-1.115.663-1.115 1.6v2.094c0 .882.531 1.432 1.38 1.432h15.294c.849 0 1.379-.55 1.379-1.432v-2.094c0-.937-.319-1.269-1.114-1.6l-1.007-.387c-1.114-.438-1.487-1.044-1.487-2.257V8.652c0-1.213.373-1.82 1.487-2.257l1.007-.388c.795-.33 1.114-.662 1.114-1.6V2.314c0-.881-.53-1.431-1.379-1.431ZM178.281 1.05c-.354-.637-.693-1.05-1.488-1.05h-1.056c-.584 0-.908.143-1.35.5-.481.381-.898.381-1.939.381h-19.776c-.85 0-1.38.55-1.38 1.432v2.094c0 .938.319 1.269 1.115 1.6l1.006.387c1.114.439 1.488 1.045 1.488 2.258v23.035c0 1.212-.374 1.819-1.488 2.257l-1.006.387c-.796.331-1.115.662-1.115 1.6v2.094c0 .881.53 1.432 1.38 1.432h16.035c.903 0 1.379-.55 1.379-1.432v-2.094c0-.938-.265-1.376-1.114-1.6l-1.753-.494c-1.168-.331-1.488-.938-1.488-2.15v-9.702c0-.387.266-.662.639-.662h.903c4.144 0 6.692 2.206 9.294 5.345.373.443.85.606 1.488.275l1.325-.718c.585-.332.801-.861.531-1.432l-4.115-8.764c-.235-.499-.53-.805-1.139-.805h-.653c-.446 0-.731.128-1.139.464-.368.295-.815.504-1.384.504h-5.111c-.373 0-.639-.275-.639-.662V8.478c0-1.982.742-2.756 2.76-2.756 3.451 0 8.179 3.144 10.939 6.007.476.494 1.06.606 1.698.22l1.434-.938c.476-.332.8-.851.476-1.432l-4.757-8.53ZM136.779 34.83l-1.223-.438c-1.114-.387-1.488-1.05-1.488-2.262V8.158c0-1.213.374-1.82 1.488-2.258l1.011-.387c.796-.331 1.115-.662 1.115-1.6v-1.6c0-.881-.476-1.431-1.38-1.431h-10.197c-.849 0-1.38.55-1.38 1.431v1.6c0 .938.319 1.269 1.115 1.6l1.006.387c1.115.439 1.488 1.045 1.488 2.258V21.66c0 .229-.177.412-.398.412a.39.39 0 0 1-.304-.152L114.076 2.206c-.339-.535-.682-.886-1.036-1.06-.353-.173-.839-.26-1.458-.26h-10.114c-.849 0-1.38.551-1.38 1.433v2.094c0 .937.32 1.268 1.115 1.6l1.006.387c1.115.438 1.488 1.044 1.488 2.257v23.53c0 1.212-.373 1.818-1.488 2.261l-1.006.388c-.795.33-1.115.662-1.115 1.6v1.6c0 .88.531 1.431 1.38 1.431h10.197c.904 0 1.38-.55 1.38-1.432v-1.6c0-.937-.319-1.268-1.114-1.6l-1.007-.387c-1.114-.443-1.488-1.05-1.488-2.262V16.992c0-.229.177-.412.398-.412.123 0 .236.061.305.153l15.009 21.404c.333.535.682.887 1.035 1.06.354.173.84.26 1.459.26h8.871c.904 0 1.38-.55 1.38-1.432v-1.6c0-.937-.319-1.32-1.114-1.594Z"/></svg>