<svg width="349" height="278" viewBox="0 0 349 278" fill="none" xmlns="http://www.w3.org/2000/svg">
<rect x="0.5" y="231.5" width="119" height="46" rx="1.5" fill="#C4C4C4" stroke="black"/>
<rect x="58" y="162" width="171" height="38" rx="10" fill="#FEFFDD"/>
<rect x="167.5" y="231.5" width="119" height="46" rx="1.5" fill="#C4C4C4" stroke="black"/>
<rect x="0.5" y="0.5" width="286" height="46" rx="1.5" fill="#C4C4C4" stroke="black"/>
<rect x="0.5" y="99.5" width="286" height="46" rx="1.5" fill="#C4C4C4" stroke="black"/>
<path d="M91.6309 27H89.873V18.4688H91.6309V27ZM96.7168 22.248C96.4863 22.2168 96.2832 22.2012 96.1074 22.2012C95.4668 22.2012 95.0469 22.418 94.8477 22.8516V27H93.1543V20.6602H94.7539L94.8008 21.416C95.1406 20.834 95.6113 20.543 96.2129 20.543C96.4004 20.543 96.5762 20.5684 96.7402 20.6191L96.7168 22.248ZM97.0625 23.7715C97.0625 23.1426 97.1836 22.582 97.4258 22.0898C97.668 21.5977 98.0156 21.2168 98.4688 20.9473C98.9258 20.6777 99.4551 20.543 100.057 20.543C100.912 20.543 101.609 20.8047 102.148 21.3281C102.691 21.8516 102.994 22.5625 103.057 23.4609L103.068 23.8945C103.068 24.8672 102.797 25.6484 102.254 26.2383C101.711 26.8242 100.982 27.1172 100.068 27.1172C99.1543 27.1172 98.4238 26.8242 97.877 26.2383C97.334 25.6523 97.0625 24.8555 97.0625 23.8477V23.7715ZM98.7559 23.8945C98.7559 24.4961 98.8691 24.957 99.0957 25.2773C99.3223 25.5938 99.6465 25.752 100.068 25.752C100.479 25.752 100.799 25.5957 101.029 25.2832C101.26 24.9668 101.375 24.4629 101.375 23.7715C101.375 23.1816 101.26 22.7246 101.029 22.4004C100.799 22.0762 100.475 21.9141 100.057 21.9141C99.6426 21.9141 99.3223 22.0762 99.0957 22.4004C98.8691 22.7207 98.7559 23.2188 98.7559 23.8945ZM105.67 20.6602L105.723 21.3926C106.176 20.8262 106.783 20.543 107.545 20.543C108.217 20.543 108.717 20.7402 109.045 21.1348C109.373 21.5293 109.541 22.1191 109.549 22.9043V27H107.855V22.9453C107.855 22.5859 107.777 22.3262 107.621 22.166C107.465 22.002 107.205 21.9199 106.842 21.9199C106.365 21.9199 106.008 22.123 105.77 22.5293V27H104.076V20.6602H105.67ZM119.07 23.5137H115.695V27H113.938V18.4688H119.492V19.8926H115.695V22.0957H119.07V23.5137ZM122.188 27H120.488V20.6602H122.188V27ZM120.389 19.0195C120.389 18.7656 120.473 18.5566 120.641 18.3926C120.812 18.2285 121.045 18.1465 121.338 18.1465C121.627 18.1465 121.857 18.2285 122.029 18.3926C122.201 18.5566 122.287 18.7656 122.287 19.0195C122.287 19.2773 122.199 19.4883 122.023 19.6523C121.852 19.8164 121.623 19.8984 121.338 19.8984C121.053 19.8984 120.822 19.8164 120.646 19.6523C120.475 19.4883 120.389 19.2773 120.389 19.0195ZM127.021 25.248C127.021 25.041 126.918 24.8789 126.711 24.7617C126.508 24.6406 126.18 24.5332 125.727 24.4395C124.219 24.123 123.465 23.4824 123.465 22.5176C123.465 21.9551 123.697 21.4863 124.162 21.1113C124.631 20.7324 125.242 20.543 125.996 20.543C126.801 20.543 127.443 20.7324 127.924 21.1113C128.408 21.4902 128.65 21.9824 128.65 22.5879H126.957C126.957 22.3457 126.879 22.1465 126.723 21.9902C126.566 21.8301 126.322 21.75 125.99 21.75C125.705 21.75 125.484 21.8145 125.328 21.9434C125.172 22.0723 125.094 22.2363 125.094 22.4355C125.094 22.623 125.182 22.7754 125.357 22.8926C125.537 23.0059 125.838 23.1055 126.26 23.1914C126.682 23.2734 127.037 23.3672 127.326 23.4727C128.221 23.8008 128.668 24.3691 128.668 25.1777C128.668 25.7559 128.42 26.2246 127.924 26.584C127.428 26.9395 126.787 27.1172 126.002 27.1172C125.471 27.1172 124.998 27.0234 124.584 26.8359C124.174 26.6445 123.852 26.3848 123.617 26.0566C123.383 25.7246 123.266 25.3672 123.266 24.9844H124.871C124.887 25.2852 124.998 25.5156 125.205 25.6758C125.412 25.8359 125.689 25.916 126.037 25.916C126.361 25.916 126.605 25.8555 126.77 25.7344C126.938 25.6094 127.021 25.4473 127.021 25.248ZM131.416 21.3516C131.865 20.8125 132.43 20.543 133.109 20.543C134.484 20.543 135.182 21.3418 135.201 22.9395V27H133.508V22.9863C133.508 22.623 133.43 22.3555 133.273 22.1836C133.117 22.0078 132.857 21.9199 132.494 21.9199C131.998 21.9199 131.639 22.1113 131.416 22.4941V27H129.723V18H131.416V21.3516ZM139.578 27V18.4688H142.566C143.602 18.4688 144.387 18.668 144.922 19.0664C145.457 19.4609 145.725 20.041 145.725 20.8066C145.725 21.2246 145.617 21.5938 145.402 21.9141C145.188 22.2305 144.889 22.4629 144.506 22.6113C144.943 22.7207 145.287 22.9414 145.537 23.2734C145.791 23.6055 145.918 24.0117 145.918 24.4922C145.918 25.3125 145.656 25.9336 145.133 26.3555C144.609 26.7773 143.863 26.9922 142.895 27H139.578ZM141.336 23.2852V25.5879H142.842C143.256 25.5879 143.578 25.4902 143.809 25.2949C144.043 25.0957 144.16 24.8223 144.16 24.4746C144.16 23.6934 143.756 23.2969 142.947 23.2852H141.336ZM141.336 22.043H142.637C143.523 22.0273 143.967 21.6738 143.967 20.9824C143.967 20.5957 143.854 20.3184 143.627 20.1504C143.404 19.9785 143.051 19.8926 142.566 19.8926H141.336V22.043ZM148.918 27H147.219V18H148.918V27ZM150.055 23.7715C150.055 23.1426 150.176 22.582 150.418 22.0898C150.66 21.5977 151.008 21.2168 151.461 20.9473C151.918 20.6777 152.447 20.543 153.049 20.543C153.904 20.543 154.602 20.8047 155.141 21.3281C155.684 21.8516 155.986 22.5625 156.049 23.4609L156.061 23.8945C156.061 24.8672 155.789 25.6484 155.246 26.2383C154.703 26.8242 153.975 27.1172 153.061 27.1172C152.146 27.1172 151.416 26.8242 150.869 26.2383C150.326 25.6523 150.055 24.8555 150.055 23.8477V23.7715ZM151.748 23.8945C151.748 24.4961 151.861 24.957 152.088 25.2773C152.314 25.5938 152.639 25.752 153.061 25.752C153.471 25.752 153.791 25.5957 154.021 25.2832C154.252 24.9668 154.367 24.4629 154.367 23.7715C154.367 23.1816 154.252 22.7246 154.021 22.4004C153.791 22.0762 153.467 21.9141 153.049 21.9141C152.635 21.9141 152.314 22.0762 152.088 22.4004C151.861 22.7207 151.748 23.2188 151.748 23.8945ZM159.74 25.752C160.053 25.752 160.307 25.666 160.502 25.4941C160.697 25.3223 160.799 25.0938 160.807 24.8086H162.395C162.391 25.2383 162.273 25.6328 162.043 25.9922C161.812 26.3477 161.496 26.625 161.094 26.8242C160.695 27.0195 160.254 27.1172 159.77 27.1172C158.863 27.1172 158.148 26.8301 157.625 26.2559C157.102 25.6777 156.84 24.8809 156.84 23.8652V23.7539C156.84 22.7773 157.1 21.998 157.619 21.416C158.139 20.834 158.852 20.543 159.758 20.543C160.551 20.543 161.186 20.7695 161.662 21.2227C162.143 21.6719 162.387 22.2715 162.395 23.0215H160.807C160.799 22.6934 160.697 22.4277 160.502 22.2246C160.307 22.0176 160.049 21.9141 159.729 21.9141C159.334 21.9141 159.035 22.0586 158.832 22.3477C158.633 22.6328 158.533 23.0977 158.533 23.7422V23.918C158.533 24.5703 158.633 25.0391 158.832 25.3242C159.031 25.6094 159.334 25.752 159.74 25.752ZM165.664 24.457L165.055 25.0664V27H163.361V18H165.055V22.9863L165.383 22.5645L167.006 20.6602H169.039L166.748 23.3027L169.238 27H167.293L165.664 24.457ZM172.291 25.752C172.604 25.752 172.857 25.666 173.053 25.4941C173.248 25.3223 173.35 25.0938 173.357 24.8086H174.945C174.941 25.2383 174.824 25.6328 174.594 25.9922C174.363 26.3477 174.047 26.625 173.645 26.8242C173.246 27.0195 172.805 27.1172 172.32 27.1172C171.414 27.1172 170.699 26.8301 170.176 26.2559C169.652 25.6777 169.391 24.8809 169.391 23.8652V23.7539C169.391 22.7773 169.65 21.998 170.17 21.416C170.689 20.834 171.402 20.543 172.309 20.543C173.102 20.543 173.736 20.7695 174.213 21.2227C174.693 21.6719 174.938 22.2715 174.945 23.0215H173.357C173.35 22.6934 173.248 22.4277 173.053 22.2246C172.857 22.0176 172.6 21.9141 172.279 21.9141C171.885 21.9141 171.586 22.0586 171.383 22.3477C171.184 22.6328 171.084 23.0977 171.084 23.7422V23.918C171.084 24.5703 171.184 25.0391 171.383 25.3242C171.582 25.6094 171.885 25.752 172.291 25.752ZM177.564 21.3516C178.014 20.8125 178.578 20.543 179.258 20.543C180.633 20.543 181.33 21.3418 181.35 22.9395V27H179.656V22.9863C179.656 22.623 179.578 22.3555 179.422 22.1836C179.266 22.0078 179.006 21.9199 178.643 21.9199C178.146 21.9199 177.787 22.1113 177.564 22.4941V27H175.871V18H177.564V21.3516ZM186.301 27C186.223 26.8477 186.166 26.6582 186.131 26.4316C185.721 26.8887 185.188 27.1172 184.531 27.1172C183.91 27.1172 183.395 26.9375 182.984 26.5781C182.578 26.2188 182.375 25.7656 182.375 25.2188C182.375 24.5469 182.623 24.0312 183.119 23.6719C183.619 23.3125 184.34 23.1309 185.281 23.127H186.061V22.7637C186.061 22.4707 185.984 22.2363 185.832 22.0605C185.684 21.8848 185.447 21.7969 185.123 21.7969C184.838 21.7969 184.613 21.8652 184.449 22.002C184.289 22.1387 184.209 22.3262 184.209 22.5645H182.516C182.516 22.1973 182.629 21.8574 182.855 21.5449C183.082 21.2324 183.402 20.9883 183.816 20.8125C184.23 20.6328 184.695 20.543 185.211 20.543C185.992 20.543 186.611 20.7402 187.068 21.1348C187.529 21.5254 187.76 22.0762 187.76 22.7871V25.5352C187.764 26.1367 187.848 26.5918 188.012 26.9004V27H186.301ZM184.9 25.8223C185.15 25.8223 185.381 25.7676 185.592 25.6582C185.803 25.5449 185.959 25.3945 186.061 25.207V24.1172H185.428C184.58 24.1172 184.129 24.4102 184.074 24.9961L184.068 25.0957C184.068 25.3066 184.143 25.4805 184.291 25.6172C184.439 25.7539 184.643 25.8223 184.9 25.8223ZM190.848 27H189.148V20.6602H190.848V27ZM189.049 19.0195C189.049 18.7656 189.133 18.5566 189.301 18.3926C189.473 18.2285 189.705 18.1465 189.998 18.1465C190.287 18.1465 190.518 18.2285 190.689 18.3926C190.861 18.5566 190.947 18.7656 190.947 19.0195C190.947 19.2773 190.859 19.4883 190.684 19.6523C190.512 19.8164 190.283 19.8984 189.998 19.8984C189.713 19.8984 189.482 19.8164 189.307 19.6523C189.135 19.4883 189.049 19.2773 189.049 19.0195ZM193.807 20.6602L193.859 21.3926C194.312 20.8262 194.92 20.543 195.682 20.543C196.354 20.543 196.854 20.7402 197.182 21.1348C197.51 21.5293 197.678 22.1191 197.686 22.9043V27H195.992V22.9453C195.992 22.5859 195.914 22.3262 195.758 22.166C195.602 22.002 195.342 21.9199 194.979 21.9199C194.502 21.9199 194.145 22.123 193.906 22.5293V27H192.213V20.6602H193.807Z" fill="black"/>
<path d="M113.502 123.762C113.502 123.43 113.385 123.176 113.15 123C112.916 122.82 112.494 122.633 111.885 122.438C111.275 122.238 110.793 122.043 110.438 121.852C109.469 121.328 108.984 120.623 108.984 119.736C108.984 119.275 109.113 118.865 109.371 118.506C109.633 118.143 110.006 117.859 110.49 117.656C110.979 117.453 111.525 117.352 112.131 117.352C112.74 117.352 113.283 117.463 113.76 117.686C114.236 117.904 114.605 118.215 114.867 118.617C115.133 119.02 115.266 119.477 115.266 119.988H113.508C113.508 119.598 113.385 119.295 113.139 119.08C112.893 118.861 112.547 118.752 112.102 118.752C111.672 118.752 111.338 118.844 111.1 119.027C110.861 119.207 110.742 119.445 110.742 119.742C110.742 120.02 110.881 120.252 111.158 120.439C111.439 120.627 111.852 120.803 112.395 120.967C113.395 121.268 114.123 121.641 114.58 122.086C115.037 122.531 115.266 123.086 115.266 123.75C115.266 124.488 114.986 125.068 114.428 125.49C113.869 125.908 113.117 126.117 112.172 126.117C111.516 126.117 110.918 125.998 110.379 125.76C109.84 125.518 109.428 125.188 109.143 124.77C108.861 124.352 108.721 123.867 108.721 123.316H110.484C110.484 124.258 111.047 124.729 112.172 124.729C112.59 124.729 112.916 124.645 113.15 124.477C113.385 124.305 113.502 124.066 113.502 123.762ZM118.377 118.102V119.66H119.461V120.902H118.377V124.066C118.377 124.301 118.422 124.469 118.512 124.57C118.602 124.672 118.773 124.723 119.027 124.723C119.215 124.723 119.381 124.709 119.525 124.682V125.965C119.193 126.066 118.852 126.117 118.5 126.117C117.312 126.117 116.707 125.518 116.684 124.318V120.902H115.758V119.66H116.684V118.102H118.377ZM119.965 122.771C119.965 122.143 120.086 121.582 120.328 121.09C120.57 120.598 120.918 120.217 121.371 119.947C121.828 119.678 122.357 119.543 122.959 119.543C123.814 119.543 124.512 119.805 125.051 120.328C125.594 120.852 125.896 121.562 125.959 122.461L125.971 122.895C125.971 123.867 125.699 124.648 125.156 125.238C124.613 125.824 123.885 126.117 122.971 126.117C122.057 126.117 121.326 125.824 120.779 125.238C120.236 124.652 119.965 123.855 119.965 122.848V122.771ZM121.658 122.895C121.658 123.496 121.771 123.957 121.998 124.277C122.225 124.594 122.549 124.752 122.971 124.752C123.381 124.752 123.701 124.596 123.932 124.283C124.162 123.967 124.277 123.463 124.277 122.771C124.277 122.182 124.162 121.725 123.932 121.4C123.701 121.076 123.377 120.914 122.959 120.914C122.545 120.914 122.225 121.076 121.998 121.4C121.771 121.721 121.658 122.219 121.658 122.895ZM130.576 121.248C130.346 121.217 130.143 121.201 129.967 121.201C129.326 121.201 128.906 121.418 128.707 121.852V126H127.014V119.66H128.613L128.66 120.416C129 119.834 129.471 119.543 130.072 119.543C130.26 119.543 130.436 119.568 130.6 119.619L130.576 121.248ZM134.895 126C134.816 125.848 134.76 125.658 134.725 125.432C134.314 125.889 133.781 126.117 133.125 126.117C132.504 126.117 131.988 125.938 131.578 125.578C131.172 125.219 130.969 124.766 130.969 124.219C130.969 123.547 131.217 123.031 131.713 122.672C132.213 122.312 132.934 122.131 133.875 122.127H134.654V121.764C134.654 121.471 134.578 121.236 134.426 121.061C134.277 120.885 134.041 120.797 133.717 120.797C133.432 120.797 133.207 120.865 133.043 121.002C132.883 121.139 132.803 121.326 132.803 121.564H131.109C131.109 121.197 131.223 120.857 131.449 120.545C131.676 120.232 131.996 119.988 132.41 119.812C132.824 119.633 133.289 119.543 133.805 119.543C134.586 119.543 135.205 119.74 135.662 120.135C136.123 120.525 136.354 121.076 136.354 121.787V124.535C136.357 125.137 136.441 125.592 136.605 125.9V126H134.895ZM133.494 124.822C133.744 124.822 133.975 124.768 134.186 124.658C134.396 124.545 134.553 124.395 134.654 124.207V123.117H134.021C133.174 123.117 132.723 123.41 132.668 123.996L132.662 124.096C132.662 124.307 132.736 124.48 132.885 124.617C133.033 124.754 133.236 124.822 133.494 124.822ZM137.408 122.783C137.408 121.811 137.639 121.027 138.1 120.434C138.564 119.84 139.189 119.543 139.975 119.543C140.67 119.543 141.211 119.781 141.598 120.258L141.668 119.66H143.203V125.789C143.203 126.344 143.076 126.826 142.822 127.236C142.572 127.646 142.219 127.959 141.762 128.174C141.305 128.389 140.77 128.496 140.156 128.496C139.691 128.496 139.238 128.402 138.797 128.215C138.355 128.031 138.021 127.793 137.795 127.5L138.545 126.469C138.967 126.941 139.479 127.178 140.08 127.178C140.529 127.178 140.879 127.057 141.129 126.814C141.379 126.576 141.504 126.236 141.504 125.795V125.455C141.113 125.896 140.6 126.117 139.963 126.117C139.201 126.117 138.584 125.82 138.111 125.227C137.643 124.629 137.408 123.838 137.408 122.854V122.783ZM139.102 122.906C139.102 123.48 139.217 123.932 139.447 124.26C139.678 124.584 139.994 124.746 140.396 124.746C140.912 124.746 141.281 124.553 141.504 124.166V121.5C141.277 121.113 140.912 120.92 140.408 120.92C140.002 120.92 139.682 121.086 139.447 121.418C139.217 121.75 139.102 122.246 139.102 122.906ZM147.428 126.117C146.498 126.117 145.74 125.832 145.154 125.262C144.572 124.691 144.281 123.932 144.281 122.982V122.818C144.281 122.182 144.404 121.613 144.65 121.113C144.896 120.609 145.244 120.223 145.693 119.953C146.146 119.68 146.662 119.543 147.24 119.543C148.107 119.543 148.789 119.816 149.285 120.363C149.785 120.91 150.035 121.686 150.035 122.689V123.381H145.998C146.053 123.795 146.217 124.127 146.49 124.377C146.768 124.627 147.117 124.752 147.539 124.752C148.191 124.752 148.701 124.516 149.068 124.043L149.9 124.975C149.646 125.334 149.303 125.615 148.869 125.818C148.436 126.018 147.955 126.117 147.428 126.117ZM147.234 120.914C146.898 120.914 146.625 121.027 146.414 121.254C146.207 121.48 146.074 121.805 146.016 122.227H148.371V122.092C148.363 121.717 148.262 121.428 148.066 121.225C147.871 121.018 147.594 120.914 147.234 120.914ZM155.777 126H154.078V117H155.777V126ZM160.852 126C160.773 125.848 160.717 125.658 160.682 125.432C160.271 125.889 159.738 126.117 159.082 126.117C158.461 126.117 157.945 125.938 157.535 125.578C157.129 125.219 156.926 124.766 156.926 124.219C156.926 123.547 157.174 123.031 157.67 122.672C158.17 122.312 158.891 122.131 159.832 122.127H160.611V121.764C160.611 121.471 160.535 121.236 160.383 121.061C160.234 120.885 159.998 120.797 159.674 120.797C159.389 120.797 159.164 120.865 159 121.002C158.84 121.139 158.76 121.326 158.76 121.564H157.066C157.066 121.197 157.18 120.857 157.406 120.545C157.633 120.232 157.953 119.988 158.367 119.812C158.781 119.633 159.246 119.543 159.762 119.543C160.543 119.543 161.162 119.74 161.619 120.135C162.08 120.525 162.311 121.076 162.311 121.787V124.535C162.314 125.137 162.398 125.592 162.562 125.9V126H160.852ZM159.451 124.822C159.701 124.822 159.932 124.768 160.143 124.658C160.354 124.545 160.51 124.395 160.611 124.207V123.117H159.979C159.131 123.117 158.68 123.41 158.625 123.996L158.619 124.096C158.619 124.307 158.693 124.48 158.842 124.617C158.99 124.754 159.193 124.822 159.451 124.822ZM165.885 123.604L167.057 119.66H168.873L166.324 126.984L166.184 127.318C165.805 128.146 165.18 128.561 164.309 128.561C164.062 128.561 163.812 128.523 163.559 128.449V127.166L163.816 127.172C164.137 127.172 164.375 127.123 164.531 127.025C164.691 126.928 164.816 126.766 164.906 126.539L165.105 126.018L162.885 119.66H164.707L165.885 123.604ZM172.377 126.117C171.447 126.117 170.689 125.832 170.104 125.262C169.521 124.691 169.23 123.932 169.23 122.982V122.818C169.23 122.182 169.354 121.613 169.6 121.113C169.846 120.609 170.193 120.223 170.643 119.953C171.096 119.68 171.611 119.543 172.189 119.543C173.057 119.543 173.738 119.816 174.234 120.363C174.734 120.91 174.984 121.686 174.984 122.689V123.381H170.947C171.002 123.795 171.166 124.127 171.439 124.377C171.717 124.627 172.066 124.752 172.488 124.752C173.141 124.752 173.65 124.516 174.018 124.043L174.85 124.975C174.596 125.334 174.252 125.615 173.818 125.818C173.385 126.018 172.904 126.117 172.377 126.117ZM172.184 120.914C171.848 120.914 171.574 121.027 171.363 121.254C171.156 121.48 171.023 121.805 170.965 122.227H173.32V122.092C173.312 121.717 173.211 121.428 173.016 121.225C172.82 121.018 172.543 120.914 172.184 120.914ZM179.514 121.248C179.283 121.217 179.08 121.201 178.904 121.201C178.264 121.201 177.844 121.418 177.645 121.852V126H175.951V119.66H177.551L177.598 120.416C177.938 119.834 178.408 119.543 179.01 119.543C179.197 119.543 179.373 119.568 179.537 119.619L179.514 121.248Z" fill="black"/>
<path d="M39.9941 257.588H43.7266V259H38.2363V250.469H39.9941V257.588ZM47.5469 259.117C46.6172 259.117 45.8594 258.832 45.2734 258.262C44.6914 257.691 44.4004 256.932 44.4004 255.982V255.818C44.4004 255.182 44.5234 254.613 44.7695 254.113C45.0156 253.609 45.3633 253.223 45.8125 252.953C46.2656 252.68 46.7812 252.543 47.3594 252.543C48.2266 252.543 48.9082 252.816 49.4043 253.363C49.9043 253.91 50.1543 254.686 50.1543 255.689V256.381H46.1172C46.1719 256.795 46.3359 257.127 46.6094 257.377C46.8867 257.627 47.2363 257.752 47.6582 257.752C48.3105 257.752 48.8203 257.516 49.1875 257.043L50.0195 257.975C49.7656 258.334 49.4219 258.615 48.9883 258.818C48.5547 259.018 48.0742 259.117 47.5469 259.117ZM47.3535 253.914C47.0176 253.914 46.7441 254.027 46.5332 254.254C46.3262 254.48 46.1934 254.805 46.1348 255.227H48.4902V255.092C48.4824 254.717 48.3809 254.428 48.1855 254.225C47.9902 254.018 47.7129 253.914 47.3535 253.914ZM53.4121 256.932L54.5898 252.66H56.3594L54.2207 259H52.6035L50.4648 252.66H52.2344L53.4121 256.932ZM59.9453 259.117C59.0156 259.117 58.2578 258.832 57.6719 258.262C57.0898 257.691 56.7988 256.932 56.7988 255.982V255.818C56.7988 255.182 56.9219 254.613 57.168 254.113C57.4141 253.609 57.7617 253.223 58.2109 252.953C58.6641 252.68 59.1797 252.543 59.7578 252.543C60.625 252.543 61.3066 252.816 61.8027 253.363C62.3027 253.91 62.5527 254.686 62.5527 255.689V256.381H58.5156C58.5703 256.795 58.7344 257.127 59.0078 257.377C59.2852 257.627 59.6348 257.752 60.0566 257.752C60.709 257.752 61.2188 257.516 61.5859 257.043L62.418 257.975C62.1641 258.334 61.8203 258.615 61.3867 258.818C60.9531 259.018 60.4727 259.117 59.9453 259.117ZM59.752 253.914C59.416 253.914 59.1426 254.027 58.9316 254.254C58.7246 254.48 58.5918 254.805 58.5332 255.227H60.8887V255.092C60.8809 254.717 60.7793 254.428 60.584 254.225C60.3887 254.018 60.1113 253.914 59.752 253.914ZM65.3066 259H63.6074V250H65.3066V259ZM66.8184 259V250.469H69.4434C70.1934 250.469 70.8633 250.639 71.4531 250.979C72.0469 251.314 72.5098 251.795 72.8418 252.42C73.1738 253.041 73.3398 253.748 73.3398 254.541V254.934C73.3398 255.727 73.1758 256.432 72.8477 257.049C72.5234 257.666 72.0645 258.145 71.4707 258.484C70.877 258.824 70.207 258.996 69.4609 259H66.8184ZM68.5762 251.893V257.588H69.4258C70.1133 257.588 70.6387 257.363 71.002 256.914C71.3652 256.465 71.5508 255.822 71.5586 254.986V254.535C71.5586 253.668 71.3789 253.012 71.0195 252.566C70.6602 252.117 70.1348 251.893 69.4434 251.893H68.5762ZM74.623 259V250.469H77.6113C78.6465 250.469 79.4316 250.668 79.9668 251.066C80.502 251.461 80.7695 252.041 80.7695 252.807C80.7695 253.225 80.6621 253.594 80.4473 253.914C80.2324 254.23 79.9336 254.463 79.5508 254.611C79.9883 254.721 80.332 254.941 80.582 255.273C80.8359 255.605 80.9629 256.012 80.9629 256.492C80.9629 257.312 80.7012 257.934 80.1777 258.355C79.6543 258.777 78.9082 258.992 77.9395 259H74.623ZM76.3809 255.285V257.588H77.8867C78.3008 257.588 78.623 257.49 78.8535 257.295C79.0879 257.096 79.2051 256.822 79.2051 256.475C79.2051 255.693 78.8008 255.297 77.9922 255.285H76.3809ZM76.3809 254.043H77.6816C78.5684 254.027 79.0117 253.674 79.0117 252.982C79.0117 252.596 78.8984 252.318 78.6719 252.15C78.4492 251.979 78.0957 251.893 77.6113 251.893H76.3809V254.043Z" fill="black"/>
<path d="M92.0039 185H90.2461L86.8242 179.387V185H85.0664V176.469H86.8242L90.252 182.094V176.469H92.0039V185ZM93.1641 181.771C93.1641 181.143 93.2852 180.582 93.5273 180.09C93.7695 179.598 94.1172 179.217 94.5703 178.947C95.0273 178.678 95.5566 178.543 96.1582 178.543C97.0137 178.543 97.7109 178.805 98.25 179.328C98.793 179.852 99.0957 180.562 99.1582 181.461L99.1699 181.895C99.1699 182.867 98.8984 183.648 98.3555 184.238C97.8125 184.824 97.084 185.117 96.1699 185.117C95.2559 185.117 94.5254 184.824 93.9785 184.238C93.4355 183.652 93.1641 182.855 93.1641 181.848V181.771ZM94.8574 181.895C94.8574 182.496 94.9707 182.957 95.1973 183.277C95.4238 183.594 95.748 183.752 96.1699 183.752C96.5801 183.752 96.9004 183.596 97.1309 183.283C97.3613 182.967 97.4766 182.463 97.4766 181.771C97.4766 181.182 97.3613 180.725 97.1309 180.4C96.9004 180.076 96.5762 179.914 96.1582 179.914C95.7441 179.914 95.4238 180.076 95.1973 180.4C94.9707 180.721 94.8574 181.219 94.8574 181.895ZM99.9492 181.783C99.9492 180.795 100.17 180.008 100.611 179.422C101.057 178.836 101.664 178.543 102.434 178.543C103.051 178.543 103.561 178.773 103.963 179.234V176H105.662V185H104.133L104.051 184.326C103.629 184.854 103.086 185.117 102.422 185.117C101.676 185.117 101.076 184.824 100.623 184.238C100.174 183.648 99.9492 182.83 99.9492 181.783ZM101.643 181.906C101.643 182.5 101.746 182.955 101.953 183.271C102.16 183.588 102.461 183.746 102.855 183.746C103.379 183.746 103.748 183.525 103.963 183.084V180.582C103.752 180.141 103.387 179.92 102.867 179.92C102.051 179.92 101.643 180.582 101.643 181.906ZM109.893 185.117C108.963 185.117 108.205 184.832 107.619 184.262C107.037 183.691 106.746 182.932 106.746 181.982V181.818C106.746 181.182 106.869 180.613 107.115 180.113C107.361 179.609 107.709 179.223 108.158 178.953C108.611 178.68 109.127 178.543 109.705 178.543C110.572 178.543 111.254 178.816 111.75 179.363C112.25 179.91 112.5 180.686 112.5 181.689V182.381H108.463C108.518 182.795 108.682 183.127 108.955 183.377C109.232 183.627 109.582 183.752 110.004 183.752C110.656 183.752 111.166 183.516 111.533 183.043L112.365 183.975C112.111 184.334 111.768 184.615 111.334 184.818C110.9 185.018 110.42 185.117 109.893 185.117ZM109.699 179.914C109.363 179.914 109.09 180.027 108.879 180.254C108.672 180.48 108.539 180.805 108.48 181.227H110.836V181.092C110.828 180.717 110.727 180.428 110.531 180.225C110.336 180.018 110.059 179.914 109.699 179.914ZM117.018 176.469H118.775V182.375C118.775 182.918 118.654 183.398 118.412 183.816C118.174 184.23 117.836 184.551 117.398 184.777C116.961 185.004 116.467 185.117 115.916 185.117C115.014 185.117 114.311 184.889 113.807 184.432C113.303 183.971 113.051 183.32 113.051 182.48H114.82C114.82 182.898 114.908 183.207 115.084 183.406C115.26 183.605 115.537 183.705 115.916 183.705C116.252 183.705 116.52 183.59 116.719 183.359C116.918 183.129 117.018 182.801 117.018 182.375V176.469ZM124.705 182.762C124.705 182.43 124.588 182.176 124.354 182C124.119 181.82 123.697 181.633 123.088 181.438C122.479 181.238 121.996 181.043 121.641 180.852C120.672 180.328 120.188 179.623 120.188 178.736C120.188 178.275 120.316 177.865 120.574 177.506C120.836 177.143 121.209 176.859 121.693 176.656C122.182 176.453 122.729 176.352 123.334 176.352C123.943 176.352 124.486 176.463 124.963 176.686C125.439 176.904 125.809 177.215 126.07 177.617C126.336 178.02 126.469 178.477 126.469 178.988H124.711C124.711 178.598 124.588 178.295 124.342 178.08C124.096 177.861 123.75 177.752 123.305 177.752C122.875 177.752 122.541 177.844 122.303 178.027C122.064 178.207 121.945 178.445 121.945 178.742C121.945 179.02 122.084 179.252 122.361 179.439C122.643 179.627 123.055 179.803 123.598 179.967C124.598 180.268 125.326 180.641 125.783 181.086C126.24 181.531 126.469 182.086 126.469 182.75C126.469 183.488 126.189 184.068 125.631 184.49C125.072 184.908 124.32 185.117 123.375 185.117C122.719 185.117 122.121 184.998 121.582 184.76C121.043 184.518 120.631 184.188 120.346 183.77C120.064 183.352 119.924 182.867 119.924 182.316H121.688C121.688 183.258 122.25 183.729 123.375 183.729C123.793 183.729 124.119 183.645 124.354 183.477C124.588 183.305 124.705 183.066 124.705 182.762ZM133.459 185.117C132.529 185.117 131.771 184.832 131.186 184.262C130.604 183.691 130.312 182.932 130.312 181.982V181.818C130.312 181.182 130.436 180.613 130.682 180.113C130.928 179.609 131.275 179.223 131.725 178.953C132.178 178.68 132.693 178.543 133.271 178.543C134.139 178.543 134.82 178.816 135.316 179.363C135.816 179.91 136.066 180.686 136.066 181.689V182.381H132.029C132.084 182.795 132.248 183.127 132.521 183.377C132.799 183.627 133.148 183.752 133.57 183.752C134.223 183.752 134.732 183.516 135.1 183.043L135.932 183.975C135.678 184.334 135.334 184.615 134.9 184.818C134.467 185.018 133.986 185.117 133.459 185.117ZM133.266 179.914C132.93 179.914 132.656 180.027 132.445 180.254C132.238 180.48 132.105 180.805 132.047 181.227H134.402V181.092C134.395 180.717 134.293 180.428 134.098 180.225C133.902 180.018 133.625 179.914 133.266 179.914ZM138.592 178.66L138.645 179.393C139.098 178.826 139.705 178.543 140.467 178.543C141.139 178.543 141.639 178.74 141.967 179.135C142.295 179.529 142.463 180.119 142.471 180.904V185H140.777V180.945C140.777 180.586 140.699 180.326 140.543 180.166C140.387 180.002 140.127 179.92 139.764 179.92C139.287 179.92 138.93 180.123 138.691 180.529V185H136.998V178.66H138.592ZM146.133 182.932L147.311 178.66H149.08L146.941 185H145.324L143.186 178.66H144.955L146.133 182.932ZM151.617 185H149.918V178.66H151.617V185ZM149.818 177.02C149.818 176.766 149.902 176.557 150.07 176.393C150.242 176.229 150.475 176.146 150.768 176.146C151.057 176.146 151.287 176.229 151.459 176.393C151.631 176.557 151.717 176.766 151.717 177.02C151.717 177.277 151.629 177.488 151.453 177.652C151.281 177.816 151.053 177.898 150.768 177.898C150.482 177.898 150.252 177.816 150.076 177.652C149.904 177.488 149.818 177.277 149.818 177.02ZM156.58 180.248C156.35 180.217 156.146 180.201 155.971 180.201C155.33 180.201 154.91 180.418 154.711 180.852V185H153.018V178.66H154.617L154.664 179.416C155.004 178.834 155.475 178.543 156.076 178.543C156.264 178.543 156.439 178.568 156.604 178.619L156.58 180.248ZM156.926 181.771C156.926 181.143 157.047 180.582 157.289 180.09C157.531 179.598 157.879 179.217 158.332 178.947C158.789 178.678 159.318 178.543 159.92 178.543C160.775 178.543 161.473 178.805 162.012 179.328C162.555 179.852 162.857 180.562 162.92 181.461L162.932 181.895C162.932 182.867 162.66 183.648 162.117 184.238C161.574 184.824 160.846 185.117 159.932 185.117C159.018 185.117 158.287 184.824 157.74 184.238C157.197 183.652 156.926 182.855 156.926 181.848V181.771ZM158.619 181.895C158.619 182.496 158.732 182.957 158.959 183.277C159.186 183.594 159.51 183.752 159.932 183.752C160.342 183.752 160.662 183.596 160.893 183.283C161.123 182.967 161.238 182.463 161.238 181.771C161.238 181.182 161.123 180.725 160.893 180.4C160.662 180.076 160.338 179.914 159.92 179.914C159.506 179.914 159.186 180.076 158.959 180.4C158.732 180.721 158.619 181.219 158.619 181.895ZM165.533 178.66L165.586 179.393C166.039 178.826 166.646 178.543 167.408 178.543C168.08 178.543 168.58 178.74 168.908 179.135C169.236 179.529 169.404 180.119 169.412 180.904V185H167.719V180.945C167.719 180.586 167.641 180.326 167.484 180.166C167.328 180.002 167.068 179.92 166.705 179.92C166.229 179.92 165.871 180.123 165.633 180.529V185H163.939V178.66H165.533ZM172.289 178.66L172.342 179.369C172.791 178.818 173.398 178.543 174.164 178.543C174.98 178.543 175.541 178.865 175.846 179.51C176.291 178.865 176.926 178.543 177.75 178.543C178.438 178.543 178.949 178.744 179.285 179.146C179.621 179.545 179.789 180.146 179.789 180.951V185H178.09V180.957C178.09 180.598 178.02 180.336 177.879 180.172C177.738 180.004 177.49 179.92 177.135 179.92C176.627 179.92 176.275 180.162 176.08 180.646L176.086 185H174.393V180.963C174.393 180.596 174.32 180.33 174.176 180.166C174.031 180.002 173.785 179.92 173.438 179.92C172.957 179.92 172.609 180.119 172.395 180.518V185H170.701V178.66H172.289ZM184.014 185.117C183.084 185.117 182.326 184.832 181.74 184.262C181.158 183.691 180.867 182.932 180.867 181.982V181.818C180.867 181.182 180.99 180.613 181.236 180.113C181.482 179.609 181.83 179.223 182.279 178.953C182.732 178.68 183.248 178.543 183.826 178.543C184.693 178.543 185.375 178.816 185.871 179.363C186.371 179.91 186.621 180.686 186.621 181.689V182.381H182.584C182.639 182.795 182.803 183.127 183.076 183.377C183.354 183.627 183.703 183.752 184.125 183.752C184.777 183.752 185.287 183.516 185.654 183.043L186.486 183.975C186.232 184.334 185.889 184.615 185.455 184.818C185.021 185.018 184.541 185.117 184.014 185.117ZM183.82 179.914C183.484 179.914 183.211 180.027 183 180.254C182.793 180.48 182.66 180.805 182.602 181.227H184.957V181.092C184.949 180.717 184.848 180.428 184.652 180.225C184.457 180.018 184.18 179.914 183.82 179.914ZM189.146 178.66L189.199 179.393C189.652 178.826 190.26 178.543 191.021 178.543C191.693 178.543 192.193 178.74 192.521 179.135C192.85 179.529 193.018 180.119 193.025 180.904V185H191.332V180.945C191.332 180.586 191.254 180.326 191.098 180.166C190.941 180.002 190.682 179.92 190.318 179.92C189.842 179.92 189.484 180.123 189.246 180.529V185H187.553V178.66H189.146ZM196.342 177.102V178.66H197.426V179.902H196.342V183.066C196.342 183.301 196.387 183.469 196.477 183.57C196.566 183.672 196.738 183.723 196.992 183.723C197.18 183.723 197.346 183.709 197.49 183.682V184.965C197.158 185.066 196.816 185.117 196.465 185.117C195.277 185.117 194.672 184.518 194.648 183.318V179.902H193.723V178.66H194.648V177.102H196.342ZM199.752 182.381C199.752 181.834 199.818 181.398 199.951 181.074C200.084 180.75 200.326 180.432 200.678 180.119C201.033 179.803 201.27 179.547 201.387 179.352C201.504 179.152 201.562 178.943 201.562 178.725C201.562 178.064 201.258 177.734 200.648 177.734C200.359 177.734 200.127 177.824 199.951 178.004C199.779 178.18 199.689 178.424 199.682 178.736H197.982C197.99 177.99 198.23 177.406 198.703 176.984C199.18 176.562 199.828 176.352 200.648 176.352C201.477 176.352 202.119 176.553 202.576 176.955C203.033 177.354 203.262 177.918 203.262 178.648C203.262 178.98 203.188 179.295 203.039 179.592C202.891 179.885 202.631 180.211 202.26 180.57L201.785 181.021C201.488 181.307 201.318 181.641 201.275 182.023L201.252 182.381H199.752ZM199.582 184.18C199.582 183.918 199.67 183.703 199.846 183.535C200.025 183.363 200.254 183.277 200.531 183.277C200.809 183.277 201.035 183.363 201.211 183.535C201.391 183.703 201.48 183.918 201.48 184.18C201.48 184.438 201.393 184.65 201.217 184.818C201.045 184.986 200.816 185.07 200.531 185.07C200.246 185.07 200.016 184.986 199.84 184.818C199.668 184.65 199.582 184.438 199.582 184.18Z" fill="black"/>
<path d="M200.033 259H198.275V250.469H200.033V259ZM203.115 252.66L203.168 253.393C203.621 252.826 204.229 252.543 204.99 252.543C205.662 252.543 206.162 252.74 206.49 253.135C206.818 253.529 206.986 254.119 206.994 254.904V259H205.301V254.945C205.301 254.586 205.223 254.326 205.066 254.166C204.91 254.002 204.65 253.92 204.287 253.92C203.811 253.92 203.453 254.123 203.215 254.529V259H201.521V252.66H203.115ZM208.02 255.783C208.02 254.795 208.24 254.008 208.682 253.422C209.127 252.836 209.734 252.543 210.504 252.543C211.121 252.543 211.631 252.773 212.033 253.234V250H213.732V259H212.203L212.121 258.326C211.699 258.854 211.156 259.117 210.492 259.117C209.746 259.117 209.146 258.824 208.693 258.238C208.244 257.648 208.02 256.83 208.02 255.783ZM209.713 255.906C209.713 256.5 209.816 256.955 210.023 257.271C210.23 257.588 210.531 257.746 210.926 257.746C211.449 257.746 211.818 257.525 212.033 257.084V254.582C211.822 254.141 211.457 253.92 210.938 253.92C210.121 253.92 209.713 254.582 209.713 255.906ZM217.963 259.117C217.033 259.117 216.275 258.832 215.689 258.262C215.107 257.691 214.816 256.932 214.816 255.982V255.818C214.816 255.182 214.939 254.613 215.186 254.113C215.432 253.609 215.779 253.223 216.229 252.953C216.682 252.68 217.197 252.543 217.775 252.543C218.643 252.543 219.324 252.816 219.82 253.363C220.32 253.91 220.57 254.686 220.57 255.689V256.381H216.533C216.588 256.795 216.752 257.127 217.025 257.377C217.303 257.627 217.652 257.752 218.074 257.752C218.727 257.752 219.236 257.516 219.604 257.043L220.436 257.975C220.182 258.334 219.838 258.615 219.404 258.818C218.971 259.018 218.49 259.117 217.963 259.117ZM217.77 253.914C217.434 253.914 217.16 254.027 216.949 254.254C216.742 254.48 216.609 254.805 216.551 255.227H218.906V255.092C218.898 254.717 218.797 254.428 218.602 254.225C218.406 254.018 218.129 253.914 217.77 253.914ZM223.951 254.553L225.018 252.66H226.828L225.023 255.766L226.904 259H225.088L223.957 257.008L222.832 259H221.01L222.891 255.766L221.092 252.66H222.908L223.951 254.553ZM230.443 259.117C229.514 259.117 228.756 258.832 228.17 258.262C227.588 257.691 227.297 256.932 227.297 255.982V255.818C227.297 255.182 227.42 254.613 227.666 254.113C227.912 253.609 228.26 253.223 228.709 252.953C229.162 252.68 229.678 252.543 230.256 252.543C231.123 252.543 231.805 252.816 232.301 253.363C232.801 253.91 233.051 254.686 233.051 255.689V256.381H229.014C229.068 256.795 229.232 257.127 229.506 257.377C229.783 257.627 230.133 257.752 230.555 257.752C231.207 257.752 231.717 257.516 232.084 257.043L232.916 257.975C232.662 258.334 232.318 258.615 231.885 258.818C231.451 259.018 230.971 259.117 230.443 259.117ZM230.25 253.914C229.914 253.914 229.641 254.027 229.43 254.254C229.223 254.48 229.09 254.805 229.031 255.227H231.387V255.092C231.379 254.717 231.277 254.428 231.082 254.225C230.887 254.018 230.609 253.914 230.25 253.914ZM233.754 255.783C233.754 254.795 233.975 254.008 234.416 253.422C234.861 252.836 235.469 252.543 236.238 252.543C236.855 252.543 237.365 252.773 237.768 253.234V250H239.467V259H237.938L237.855 258.326C237.434 258.854 236.891 259.117 236.227 259.117C235.48 259.117 234.881 258.824 234.428 258.238C233.979 257.648 233.754 256.83 233.754 255.783ZM235.447 255.906C235.447 256.5 235.551 256.955 235.758 257.271C235.965 257.588 236.266 257.746 236.66 257.746C237.184 257.746 237.553 257.525 237.768 257.084V254.582C237.557 254.141 237.191 253.92 236.672 253.92C235.855 253.92 235.447 254.582 235.447 255.906ZM240.891 259V250.469H243.516C244.266 250.469 244.936 250.639 245.525 250.979C246.119 251.314 246.582 251.795 246.914 252.42C247.246 253.041 247.412 253.748 247.412 254.541V254.934C247.412 255.727 247.248 256.432 246.92 257.049C246.596 257.666 246.137 258.145 245.543 258.484C244.949 258.824 244.279 258.996 243.533 259H240.891ZM242.648 251.893V257.588H243.498C244.186 257.588 244.711 257.363 245.074 256.914C245.438 256.465 245.623 255.822 245.631 254.986V254.535C245.631 253.668 245.451 253.012 245.092 252.566C244.732 252.117 244.207 251.893 243.516 251.893H242.648ZM248.695 259V250.469H251.684C252.719 250.469 253.504 250.668 254.039 251.066C254.574 251.461 254.842 252.041 254.842 252.807C254.842 253.225 254.734 253.594 254.52 253.914C254.305 254.23 254.006 254.463 253.623 254.611C254.061 254.721 254.404 254.941 254.654 255.273C254.908 255.605 255.035 256.012 255.035 256.492C255.035 257.312 254.773 257.934 254.25 258.355C253.727 258.777 252.98 258.992 252.012 259H248.695ZM250.453 255.285V257.588H251.959C252.373 257.588 252.695 257.49 252.926 257.295C253.16 257.096 253.277 256.822 253.277 256.475C253.277 255.693 252.873 255.297 252.064 255.285H250.453ZM250.453 254.043H251.754C252.641 254.027 253.084 253.674 253.084 252.982C253.084 252.596 252.971 252.318 252.744 252.15C252.521 251.979 252.168 251.893 251.684 251.893H250.453V254.043Z" fill="black"/>
<path d="M143.646 99.3536C143.842 99.5488 144.158 99.5488 144.354 99.3536L147.536 96.1716C147.731 95.9763 147.731 95.6597 147.536 95.4645C147.34 95.2692 147.024 95.2692 146.828 95.4645L144 98.2929L141.172 95.4645C140.976 95.2692 140.66 95.2692 140.464 95.4645C140.269 95.6597 140.269 95.9763 140.464 96.1716L143.646 99.3536ZM143.5 47V99H144.5V47H143.5Z" fill="black"/>
<path d="M143.646 162.354C143.842 162.549 144.158 162.549 144.354 162.354L147.536 159.172C147.731 158.976 147.731 158.66 147.536 158.464C147.34 158.269 147.024 158.269 146.828 158.464L144 161.293L141.172 158.464C140.976 158.269 140.66 158.269 140.464 158.464C140.269 158.66 140.269 158.976 140.464 159.172L143.646 162.354ZM143.5 146V162H144.5V146H143.5Z" fill="black"/>
<path d="M174.428 69.8926H171.814V77H170.057V69.8926H167.479V68.4688H174.428V69.8926ZM178.5 72.248C178.27 72.2168 178.066 72.2012 177.891 72.2012C177.25 72.2012 176.83 72.418 176.631 72.8516V77H174.938V70.6602H176.537L176.584 71.416C176.924 70.834 177.395 70.543 177.996 70.543C178.184 70.543 178.359 70.5684 178.523 70.6191L178.5 72.248ZM182.818 77C182.74 76.8477 182.684 76.6582 182.648 76.4316C182.238 76.8887 181.705 77.1172 181.049 77.1172C180.428 77.1172 179.912 76.9375 179.502 76.5781C179.096 76.2188 178.893 75.7656 178.893 75.2188C178.893 74.5469 179.141 74.0312 179.637 73.6719C180.137 73.3125 180.857 73.1309 181.799 73.127H182.578V72.7637C182.578 72.4707 182.502 72.2363 182.35 72.0605C182.201 71.8848 181.965 71.7969 181.641 71.7969C181.355 71.7969 181.131 71.8652 180.967 72.002C180.807 72.1387 180.727 72.3262 180.727 72.5645H179.033C179.033 72.1973 179.146 71.8574 179.373 71.5449C179.6 71.2324 179.92 70.9883 180.334 70.8125C180.748 70.6328 181.213 70.543 181.729 70.543C182.51 70.543 183.129 70.7402 183.586 71.1348C184.047 71.5254 184.277 72.0762 184.277 72.7871V75.5352C184.281 76.1367 184.365 76.5918 184.529 76.9004V77H182.818ZM181.418 75.8223C181.668 75.8223 181.898 75.7676 182.109 75.6582C182.32 75.5449 182.477 75.3945 182.578 75.207V74.1172H181.945C181.098 74.1172 180.646 74.4102 180.592 74.9961L180.586 75.0957C180.586 75.3066 180.66 75.4805 180.809 75.6172C180.957 75.7539 181.16 75.8223 181.418 75.8223ZM187.137 70.6602L187.189 71.3926C187.643 70.8262 188.25 70.543 189.012 70.543C189.684 70.543 190.184 70.7402 190.512 71.1348C190.84 71.5293 191.008 72.1191 191.016 72.9043V77H189.322V72.9453C189.322 72.5859 189.244 72.3262 189.088 72.166C188.932 72.002 188.672 71.9199 188.309 71.9199C187.832 71.9199 187.475 72.123 187.236 72.5293V77H185.543V70.6602H187.137ZM195.738 75.248C195.738 75.041 195.635 74.8789 195.428 74.7617C195.225 74.6406 194.896 74.5332 194.443 74.4395C192.936 74.123 192.182 73.4824 192.182 72.5176C192.182 71.9551 192.414 71.4863 192.879 71.1113C193.348 70.7324 193.959 70.543 194.713 70.543C195.518 70.543 196.16 70.7324 196.641 71.1113C197.125 71.4902 197.367 71.9824 197.367 72.5879H195.674C195.674 72.3457 195.596 72.1465 195.439 71.9902C195.283 71.8301 195.039 71.75 194.707 71.75C194.422 71.75 194.201 71.8145 194.045 71.9434C193.889 72.0723 193.811 72.2363 193.811 72.4355C193.811 72.623 193.898 72.7754 194.074 72.8926C194.254 73.0059 194.555 73.1055 194.977 73.1914C195.398 73.2734 195.754 73.3672 196.043 73.4727C196.938 73.8008 197.385 74.3691 197.385 75.1777C197.385 75.7559 197.137 76.2246 196.641 76.584C196.145 76.9395 195.504 77.1172 194.719 77.1172C194.188 77.1172 193.715 77.0234 193.301 76.8359C192.891 76.6445 192.568 76.3848 192.334 76.0566C192.1 75.7246 191.982 75.3672 191.982 74.9844H193.588C193.604 75.2852 193.715 75.5156 193.922 75.6758C194.129 75.8359 194.406 75.916 194.754 75.916C195.078 75.916 195.322 75.8555 195.486 75.7344C195.654 75.6094 195.738 75.4473 195.738 75.248ZM202.154 77C202.076 76.8477 202.02 76.6582 201.984 76.4316C201.574 76.8887 201.041 77.1172 200.385 77.1172C199.764 77.1172 199.248 76.9375 198.838 76.5781C198.432 76.2188 198.229 75.7656 198.229 75.2188C198.229 74.5469 198.477 74.0312 198.973 73.6719C199.473 73.3125 200.193 73.1309 201.135 73.127H201.914V72.7637C201.914 72.4707 201.838 72.2363 201.686 72.0605C201.537 71.8848 201.301 71.7969 200.977 71.7969C200.691 71.7969 200.467 71.8652 200.303 72.002C200.143 72.1387 200.062 72.3262 200.062 72.5645H198.369C198.369 72.1973 198.482 71.8574 198.709 71.5449C198.936 71.2324 199.256 70.9883 199.67 70.8125C200.084 70.6328 200.549 70.543 201.064 70.543C201.846 70.543 202.465 70.7402 202.922 71.1348C203.383 71.5254 203.613 72.0762 203.613 72.7871V75.5352C203.617 76.1367 203.701 76.5918 203.865 76.9004V77H202.154ZM200.754 75.8223C201.004 75.8223 201.234 75.7676 201.445 75.6582C201.656 75.5449 201.812 75.3945 201.914 75.207V74.1172H201.281C200.434 74.1172 199.982 74.4102 199.928 74.9961L199.922 75.0957C199.922 75.3066 199.996 75.4805 200.145 75.6172C200.293 75.7539 200.496 75.8223 200.754 75.8223ZM207.551 75.752C207.863 75.752 208.117 75.666 208.312 75.4941C208.508 75.3223 208.609 75.0938 208.617 74.8086H210.205C210.201 75.2383 210.084 75.6328 209.854 75.9922C209.623 76.3477 209.307 76.625 208.904 76.8242C208.506 77.0195 208.064 77.1172 207.58 77.1172C206.674 77.1172 205.959 76.8301 205.436 76.2559C204.912 75.6777 204.65 74.8809 204.65 73.8652V73.7539C204.65 72.7773 204.91 71.998 205.43 71.416C205.949 70.834 206.662 70.543 207.568 70.543C208.361 70.543 208.996 70.7695 209.473 71.2227C209.953 71.6719 210.197 72.2715 210.205 73.0215H208.617C208.609 72.6934 208.508 72.4277 208.312 72.2246C208.117 72.0176 207.859 71.9141 207.539 71.9141C207.145 71.9141 206.846 72.0586 206.643 72.3477C206.443 72.6328 206.344 73.0977 206.344 73.7422V73.918C206.344 74.5703 206.443 75.0391 206.643 75.3242C206.842 75.6094 207.145 75.752 207.551 75.752ZM213.199 69.1016V70.6602H214.283V71.9023H213.199V75.0664C213.199 75.3008 213.244 75.4688 213.334 75.5703C213.424 75.6719 213.596 75.7227 213.85 75.7227C214.037 75.7227 214.203 75.709 214.348 75.6816V76.9648C214.016 77.0664 213.674 77.1172 213.322 77.1172C212.135 77.1172 211.529 76.5176 211.506 75.3184V71.9023H210.58V70.6602H211.506V69.1016H213.199ZM217.014 77H215.314V70.6602H217.014V77ZM215.215 69.0195C215.215 68.7656 215.299 68.5566 215.467 68.3926C215.639 68.2285 215.871 68.1465 216.164 68.1465C216.453 68.1465 216.684 68.2285 216.855 68.3926C217.027 68.5566 217.113 68.7656 217.113 69.0195C217.113 69.2773 217.025 69.4883 216.85 69.6523C216.678 69.8164 216.449 69.8984 216.164 69.8984C215.879 69.8984 215.648 69.8164 215.473 69.6523C215.301 69.4883 215.215 69.2773 215.215 69.0195ZM218.15 73.7715C218.15 73.1426 218.271 72.582 218.514 72.0898C218.756 71.5977 219.104 71.2168 219.557 70.9473C220.014 70.6777 220.543 70.543 221.145 70.543C222 70.543 222.697 70.8047 223.236 71.3281C223.779 71.8516 224.082 72.5625 224.145 73.4609L224.156 73.8945C224.156 74.8672 223.885 75.6484 223.342 76.2383C222.799 76.8242 222.07 77.1172 221.156 77.1172C220.242 77.1172 219.512 76.8242 218.965 76.2383C218.422 75.6523 218.15 74.8555 218.15 73.8477V73.7715ZM219.844 73.8945C219.844 74.4961 219.957 74.957 220.184 75.2773C220.41 75.5938 220.734 75.752 221.156 75.752C221.566 75.752 221.887 75.5957 222.117 75.2832C222.348 74.9668 222.463 74.4629 222.463 73.7715C222.463 73.1816 222.348 72.7246 222.117 72.4004C221.887 72.0762 221.562 71.9141 221.145 71.9141C220.73 71.9141 220.41 72.0762 220.184 72.4004C219.957 72.7207 219.844 73.2188 219.844 73.8945ZM226.758 70.6602L226.811 71.3926C227.264 70.8262 227.871 70.543 228.633 70.543C229.305 70.543 229.805 70.7402 230.133 71.1348C230.461 71.5293 230.629 72.1191 230.637 72.9043V77H228.943V72.9453C228.943 72.5859 228.865 72.3262 228.709 72.166C228.553 72.002 228.293 71.9199 227.93 71.9199C227.453 71.9199 227.096 72.123 226.857 72.5293V77H225.164V70.6602H226.758ZM235.359 75.248C235.359 75.041 235.256 74.8789 235.049 74.7617C234.846 74.6406 234.518 74.5332 234.064 74.4395C232.557 74.123 231.803 73.4824 231.803 72.5176C231.803 71.9551 232.035 71.4863 232.5 71.1113C232.969 70.7324 233.58 70.543 234.334 70.543C235.139 70.543 235.781 70.7324 236.262 71.1113C236.746 71.4902 236.988 71.9824 236.988 72.5879H235.295C235.295 72.3457 235.217 72.1465 235.061 71.9902C234.904 71.8301 234.66 71.75 234.328 71.75C234.043 71.75 233.822 71.8145 233.666 71.9434C233.51 72.0723 233.432 72.2363 233.432 72.4355C233.432 72.623 233.52 72.7754 233.695 72.8926C233.875 73.0059 234.176 73.1055 234.598 73.1914C235.02 73.2734 235.375 73.3672 235.664 73.4727C236.559 73.8008 237.006 74.3691 237.006 75.1777C237.006 75.7559 236.758 76.2246 236.262 76.584C235.766 76.9395 235.125 77.1172 234.34 77.1172C233.809 77.1172 233.336 77.0234 232.922 76.8359C232.512 76.6445 232.189 76.3848 231.955 76.0566C231.721 75.7246 231.604 75.3672 231.604 74.9844H233.209C233.225 75.2852 233.336 75.5156 233.543 75.6758C233.75 75.8359 234.027 75.916 234.375 75.916C234.699 75.916 234.943 75.8555 235.107 75.7344C235.275 75.6094 235.359 75.4473 235.359 75.248ZM238.541 79.1387L237.656 78.6758L237.867 78.2949C238.129 77.8184 238.264 77.3438 238.271 76.8711V75.5586H239.701L239.695 76.7305C239.691 77.1641 239.582 77.6016 239.367 78.043C239.152 78.4844 238.877 78.8496 238.541 79.1387ZM250.881 75.9219C250.564 76.3008 250.117 76.5957 249.539 76.8066C248.961 77.0137 248.32 77.1172 247.617 77.1172C246.879 77.1172 246.23 76.957 245.672 76.6367C245.117 76.3125 244.688 75.8438 244.383 75.2305C244.082 74.6172 243.928 73.8965 243.92 73.0684V72.4883C243.92 71.6367 244.062 70.9004 244.348 70.2793C244.637 69.6543 245.051 69.1777 245.59 68.8496C246.133 68.5176 246.768 68.3516 247.494 68.3516C248.506 68.3516 249.297 68.5938 249.867 69.0781C250.438 69.5586 250.775 70.2598 250.881 71.1816H249.17C249.092 70.6934 248.918 70.3359 248.648 70.1094C248.383 69.8828 248.016 69.7695 247.547 69.7695C246.949 69.7695 246.494 69.9941 246.182 70.4434C245.869 70.8926 245.711 71.5605 245.707 72.4473V72.9922C245.707 73.8867 245.877 74.5625 246.217 75.0195C246.557 75.4766 247.055 75.7051 247.711 75.7051C248.371 75.7051 248.842 75.5645 249.123 75.2832V73.8125H247.523V72.5176H250.881V75.9219ZM257.443 73.3027H254.068V75.5879H258.029V77H252.311V68.4688H258.018V69.8926H254.068V71.9258H257.443V73.3027ZM265.6 69.8926H262.986V77H261.229V69.8926H258.65V68.4688H265.6V69.8926ZM265.424 79.1387L264.539 78.6758L264.75 78.2949C265.012 77.8184 265.146 77.3438 265.154 76.8711V75.5586H266.584L266.578 76.7305C266.574 77.1641 266.465 77.6016 266.25 78.043C266.035 78.4844 265.76 78.8496 265.424 79.1387ZM272.771 73.9941V77H271.014V68.4688H274.342C274.982 68.4688 275.545 68.5859 276.029 68.8203C276.518 69.0547 276.893 69.3887 277.154 69.8223C277.416 70.252 277.547 70.7422 277.547 71.293C277.547 72.1289 277.26 72.7891 276.686 73.2734C276.115 73.7539 275.324 73.9941 274.312 73.9941H272.771ZM272.771 72.5703H274.342C274.807 72.5703 275.16 72.4609 275.402 72.2422C275.648 72.0234 275.771 71.7109 275.771 71.3047C275.771 70.8867 275.648 70.5488 275.402 70.291C275.156 70.0332 274.816 69.9004 274.383 69.8926H272.771V72.5703ZM285.217 68.4688V74.0879C285.217 75.0215 284.924 75.7598 284.338 76.3027C283.756 76.8457 282.959 77.1172 281.947 77.1172C280.951 77.1172 280.16 76.8535 279.574 76.3262C278.988 75.7988 278.689 75.0742 278.678 74.1523V68.4688H280.436V74.0996C280.436 74.6582 280.568 75.0664 280.834 75.3242C281.104 75.5781 281.475 75.7051 281.947 75.7051C282.936 75.7051 283.438 75.1855 283.453 74.1465V68.4688H285.217ZM293.08 69.8926H290.467V77H288.709V69.8926H286.131V68.4688H293.08V69.8926ZM292.904 79.1387L292.02 78.6758L292.23 78.2949C292.492 77.8184 292.627 77.3438 292.635 76.8711V75.5586H294.064L294.059 76.7305C294.055 77.1641 293.945 77.6016 293.73 78.043C293.516 78.4844 293.24 78.8496 292.904 79.1387ZM298.494 77V68.4688H301.119C301.869 68.4688 302.539 68.6387 303.129 68.9785C303.723 69.3145 304.186 69.7949 304.518 70.4199C304.85 71.041 305.016 71.748 305.016 72.541V72.9336C305.016 73.7266 304.852 74.4316 304.523 75.0488C304.199 75.666 303.74 76.1445 303.146 76.4844C302.553 76.8242 301.883 76.9961 301.137 77H298.494ZM300.252 69.8926V75.5879H301.102C301.789 75.5879 302.314 75.3633 302.678 74.9141C303.041 74.4648 303.227 73.8223 303.234 72.9863V72.5352C303.234 71.668 303.055 71.0117 302.695 70.5664C302.336 70.1172 301.811 69.8926 301.119 69.8926H300.252ZM311.432 73.3027H308.057V75.5879H312.018V77H306.299V68.4688H312.006V69.8926H308.057V71.9258H311.432V73.3027ZM314.807 75.5879H318.539V77H313.049V68.4688H314.807V75.5879ZM319.881 79.1387L318.996 78.6758L319.207 78.2949C319.469 77.8184 319.604 77.3438 319.611 76.8711V75.5586H321.041L321.035 76.7305C321.031 77.1641 320.922 77.6016 320.707 78.043C320.492 78.4844 320.217 78.8496 319.881 79.1387ZM332.414 77H330.656V73.3438H327.229V77H325.471V68.4688H327.229V71.9258H330.656V68.4688H332.414V77ZM338.877 75.2422H335.795L335.209 77H333.34L336.516 68.4688H338.145L341.338 77H339.469L338.877 75.2422ZM336.27 73.8184H338.402L337.33 70.625L336.27 73.8184ZM346.559 74.7617C346.559 74.4297 346.441 74.1758 346.207 74C345.973 73.8203 345.551 73.6328 344.941 73.4375C344.332 73.2383 343.85 73.043 343.494 72.8516C342.525 72.3281 342.041 71.623 342.041 70.7363C342.041 70.2754 342.17 69.8652 342.428 69.5059C342.689 69.1426 343.062 68.8594 343.547 68.6562C344.035 68.4531 344.582 68.3516 345.188 68.3516C345.797 68.3516 346.34 68.4629 346.816 68.6855C347.293 68.9043 347.662 69.2148 347.924 69.6172C348.189 70.0195 348.322 70.4766 348.322 70.9883H346.564C346.564 70.5977 346.441 70.2949 346.195 70.0801C345.949 69.8613 345.604 69.752 345.158 69.752C344.729 69.752 344.395 69.8438 344.156 70.0273C343.918 70.207 343.799 70.4453 343.799 70.7422C343.799 71.0195 343.938 71.252 344.215 71.4395C344.496 71.627 344.908 71.8027 345.451 71.9668C346.451 72.2676 347.18 72.6406 347.637 73.0859C348.094 73.5312 348.322 74.0859 348.322 74.75C348.322 75.4883 348.043 76.0684 347.484 76.4902C346.926 76.9082 346.174 77.1172 345.229 77.1172C344.572 77.1172 343.975 76.998 343.436 76.7598C342.896 76.5176 342.484 76.1875 342.199 75.7695C341.918 75.3516 341.777 74.8672 341.777 74.3164H343.541C343.541 75.2578 344.104 75.7285 345.229 75.7285C345.646 75.7285 345.973 75.6445 346.207 75.4766C346.441 75.3047 346.559 75.0664 346.559 74.7617Z" fill="black"/>
<path d="M59.5459 230.791C59.4303 231.042 59.5399 231.339 59.7907 231.454L63.8776 233.338C64.1284 233.453 64.4254 233.344 64.541 233.093C64.6565 232.842 64.5469 232.545 64.2961 232.429L60.6634 230.755L62.3376 227.122C62.4532 226.872 62.3436 226.575 62.0928 226.459C61.842 226.343 61.545 226.453 61.4294 226.704L59.5459 230.791ZM143.827 199.531L59.8269 230.531L60.1731 231.469L144.173 200.469L143.827 199.531Z" fill="black"/>
<path d="M227.208 231.455C227.459 231.34 227.57 231.044 227.455 230.792L225.587 226.698C225.473 226.447 225.176 226.336 224.925 226.451C224.674 226.566 224.563 226.862 224.678 227.113L226.338 230.753L222.698 232.413C222.447 232.527 222.336 232.824 222.451 233.075C222.566 233.326 222.862 233.437 223.113 233.322L227.208 231.455ZM143.825 200.468L226.825 231.468L227.175 230.532L144.175 199.532L143.825 200.468Z" fill="black"/>
</svg>
