<svg width="194" height="201" viewBox="0 0 194 201" fill="none" xmlns="http://www.w3.org/2000/svg">
<g clip-path="url(#clip0_1453_5018)">
<path d="M53.6303 99.8479C53.3122 97.1176 51.6091 94.8682 50.3244 92.5268C49.1318 90.382 48.186 88.0698 47.642 85.6699C47.6295 85.6532 47.6169 85.6365 47.6086 85.6197C47.6127 85.6281 47.6211 85.6365 47.6253 85.649L47.596 85.6072C47.596 85.6072 47.6044 85.6155 47.6044 85.6197C47.5918 85.603 47.5835 85.5863 47.5793 85.5821C47.5793 85.5821 47.5793 85.5821 47.5793 85.5863C47.5793 85.5863 47.5793 85.5821 47.5751 85.5779C46.8553 84.3111 45.9263 82.9648 44.4492 82.555C43.8968 82.371 43.177 81.9989 42.6372 82.3752C42.7753 84.6706 43.6541 86.8699 44.5412 88.9813C45.7757 91.8871 47.3031 94.5881 48.7635 97.3685C49.5126 98.7357 50.3035 100.09 50.9814 101.499C52.3498 102.833 53.8813 101.537 53.6261 99.8479H53.6303Z" fill="#FFD8A0"/>
<path d="M25.8275 60.3786C26.0032 60.3493 26.179 60.3158 26.3548 60.2866C30.9955 59.3375 35.6656 58.3089 40.0511 56.4985C42.4322 55.679 44.65 54.546 46.826 53.3209C48.2153 51.4813 47.7927 48.8974 46.3573 47.225C45.3237 46.1839 44.3403 45.055 43.1854 44.248C39.4778 41.0035 35.5819 42.7094 31.7864 44.7205C28.899 46.2215 25.9279 47.71 22.6304 47.9901C21.1114 48.1782 19.5589 48.2159 18.0441 48.0277C17.7093 48.1406 17.2029 48.0152 16.8807 47.9692C16.161 47.9065 15.3868 47.7685 14.688 48.011C14.144 48.2535 13.6669 48.6005 13.5079 49.19C13.4828 49.3155 13.4661 49.4451 13.4368 49.5747C14.3155 51.013 15.2194 52.4346 16.1108 53.8603C17.069 55.4156 18.065 56.9626 19.0986 58.4887C20.8603 60.2364 23.4339 60.6838 25.8275 60.3827V60.3786ZM25.9823 48.8681C27.5474 48.5754 29.0246 47.9232 30.3929 47.1246C30.9328 46.7107 31.573 47.5218 31.0374 47.9483C30.3888 48.4416 25.2207 50.9252 25.0994 49.5329C25.024 49.0186 25.6183 48.9141 25.9823 48.8681ZM23.4381 50.2813C23.1535 50.2813 22.915 50.0388 22.9192 49.7545C22.9234 49.4702 23.1577 49.236 23.4464 49.236C23.7352 49.236 23.9695 49.4785 23.9653 49.7629C23.9611 50.0472 23.7268 50.2813 23.4381 50.2813Z" fill="#FFD8A0"/>
<path d="M44.9934 35.9486C54.1368 35.5598 59.3258 23.6605 54.6222 16.2308C54.6264 16.2391 54.6348 16.2475 54.639 16.2559C52.555 12.6936 48.0314 10.9166 44.1021 12.2086C39.1642 13.7138 35.8332 18.6098 35.3101 23.5978C34.5234 29.5683 38.4904 36.166 44.9976 35.9528L44.9934 35.9486ZM40.3317 16.2809C44.7883 11.6818 50.7891 13.5883 51.9943 19.4126C51.7725 19.3707 51.5507 19.354 51.3206 19.4C51.1574 19.4293 50.99 19.4836 50.8477 19.5589C50.5548 19.7178 50.3079 19.9268 50.107 20.186C49.7806 20.6125 49.6049 21.1226 49.5546 21.6536C49.5128 22.101 49.6132 22.632 49.9229 22.979C50.2074 23.2926 50.605 23.4347 51.0193 23.4347C51.0653 23.4347 51.1071 23.4347 51.1532 23.4305C51.2494 23.4222 51.3499 23.4096 51.4461 23.3846C51.5423 23.3846 51.6428 23.3846 51.739 23.3678C51.8687 23.3511 51.9985 23.326 52.1198 23.2842C51.4838 28.0715 48.0189 33.0846 43.1731 33.0846C42.6751 33.0846 42.1646 33.0302 41.6373 32.9215C34.7912 30.5634 35.9671 20.5247 40.3233 16.2809H40.3317Z" fill="#FFD8A0"/>
<path d="M69.5153 4.50714C70.2978 5.35171 71.5574 5.69038 72.6747 5.60258C73.1099 5.51478 73.5367 5.38934 73.9593 5.25555C74.3318 5.10085 74.7084 4.96706 75.1059 4.87926C75.5202 4.81236 75.9345 4.77473 76.3488 4.74964C76.7756 4.64512 77.261 4.61585 77.7925 4.68275C77.8762 4.69111 77.9473 4.71619 78.0059 4.75382C87.1242 5.37262 96.163 15.1479 103.097 19.9854C108.612 23.8989 114.919 27.0305 121.71 27.7287C123.066 27.7622 124.518 28.0841 125.807 27.5322C126.97 26.9761 127.908 25.7344 126.104 25.2201C123.903 24.3839 121.509 24.5009 119.229 24.0368C116.915 23.5142 114.638 22.8034 112.504 21.7582C106.348 18.5513 101.088 13.9187 95.8534 9.42406C91.9115 6.07086 87.2958 3.56222 82.3579 2.10304C78.2695 0.781823 72.6412 0.346993 68.9043 2.87235C68.9043 2.87235 68.9043 2.87653 68.9043 2.88071C69.0089 3.44934 69.1721 4.06395 69.5236 4.51969L69.5153 4.50714Z" fill="#FFD8A0"/>
<path d="M34.9209 76.8359C34.9209 76.8359 34.9552 76.8359 34.968 76.8359C34.9509 76.8273 34.938 76.8145 34.9209 76.8059C34.9209 76.8187 34.9209 76.8273 34.9209 76.8401V76.8359Z" fill="#F1BC6F"/>
<path d="M54.7015 93.8228C54.735 93.6597 54.7559 93.4966 54.7685 93.3294C54.6388 91.4856 52.6176 88.4334 52.2493 87.1414C52.0903 86.715 51.6384 85.4607 51.8099 84.8084C50.6592 84.4865 49.5209 84.1269 48.3953 83.7339C48.3994 83.8217 48.4036 83.9011 48.4036 83.9722C48.638 86.1673 49.4958 88.2871 50.3328 90.2898C50.973 91.7072 51.8643 93.0702 52.672 94.4625C52.7682 94.5043 52.8603 94.5586 52.944 94.613C53.0737 94.6715 53.2202 94.7008 53.3708 94.7133C53.9232 94.6673 54.417 94.3161 54.7015 93.8186V93.8228ZM50.6717 87.7561C49.9645 87.4927 50.3244 86.4683 51.0274 86.761C51.7346 87.0286 51.3705 88.0487 50.6717 87.7561Z" fill="#F1BC6F"/>
<path d="M123.715 28.8828C123.25 28.8744 122.786 28.841 122.334 28.8159C115.333 28.3183 108.83 25.2076 103.122 21.2774C99.9543 19.1075 97.1171 16.5152 94.0414 14.2198C90.4928 11.3223 86.7475 8.48758 82.429 6.85697C80.6923 6.22563 78.7214 5.67373 76.8383 5.71972C75.7796 5.8577 75.1895 6.53503 75.8424 7.70991C76.0014 7.78935 76.1562 7.87297 76.311 7.96077C77.3697 8.46668 78.4159 8.99767 79.4537 9.54957C79.6755 9.35306 80.0521 9.4116 80.3492 9.44086C83.0985 9.71263 85.421 11.4269 87.371 13.2707C88.2624 14.3202 89.3211 15.1898 90.3965 16.0469C92.6562 17.8908 95.0038 19.6092 97.4602 21.1645C97.8368 21.382 98.1674 21.6663 98.5064 21.9422C100.674 23.2927 102.833 24.685 105.11 25.8264C108.575 27.6828 112.098 29.4221 115.914 30.413C116.877 30.7057 117.89 30.9649 118.86 31.174C120.438 31.4625 122.217 32.1022 123.74 31.3287C124.514 30.8061 124.225 29.7608 123.811 29.0918C123.777 29.0249 123.744 28.9538 123.715 28.8828Z" fill="#F1BC6F"/>
<path d="M88.3587 106.613C88.8483 104.694 88.4257 102.737 87.9109 100.88C86.8439 96.1934 84.3582 92.0207 81.7846 88.0278C79.7802 85.0217 77.8134 82.0197 75.8843 78.9884C75.4365 78.3487 75.0139 77.6965 74.6122 77.0317C74.4866 76.9815 74.382 76.877 74.3276 76.7055C74.315 76.6345 74.3067 76.5676 74.2941 76.4965C73.7292 75.5223 73.2145 74.523 72.7625 73.4945C72.6035 73.3523 72.4612 73.1767 72.319 73.0597C71.6578 72.5203 70.7999 72.1649 69.9505 72.1147C69.2349 72.1315 67.5778 72.0186 67.741 73.0179C68.8039 75.3969 70.1346 77.6714 71.482 79.879C77.3071 88.7846 83.3204 97.8115 86.4212 108.084C86.4505 108.189 86.484 108.298 86.5175 108.415C86.5802 108.398 86.6472 108.394 86.7141 108.394C87.6097 108.126 88.1244 107.478 88.3671 106.6L88.3587 106.613ZM83.4334 96.8875C82.9773 95.8757 82.4667 94.8889 81.8976 93.9357C81.68 93.5761 81.1779 93.1622 81.6131 92.7566C82.1822 92.2967 82.6048 93.0911 82.8601 93.5092C83.4083 94.4499 83.9146 95.4158 84.3624 96.4067C84.6637 97.0171 83.7472 97.4937 83.4334 96.8875ZM85.1282 100.274C84.8436 100.274 84.6218 99.9898 84.6344 99.7222C84.6511 99.4254 84.9022 99.2289 85.1867 99.2289C85.4713 99.2289 85.6931 99.5132 85.6805 99.7808C85.6638 100.078 85.4127 100.274 85.1282 100.274Z" fill="#F1BC6F"/>
<path d="M77.6334 128.087C77.7506 128.191 77.851 128.333 77.9514 128.455C79.0897 129.726 79.9852 129.558 81.115 128.379C84.0485 124.846 82.8558 118.044 81.9687 113.867C81.3201 111.103 80.6171 108.339 79.5793 105.693C78.0854 101.825 76.0307 98.2966 73.9049 94.7636C71.4611 90.6871 69.1009 86.4767 66.3976 82.5758C64.2802 79.1892 61.9368 75.861 60.3508 72.1859C60.3341 72.1608 60.3174 72.1399 60.3006 72.1106C59.2796 70.5553 57.9907 69.1714 56.2959 68.356C55.4883 68.0216 54.2706 67.315 53.4546 67.871C53.4504 67.9129 53.442 67.9505 53.4294 67.9881C53.5341 68.4355 53.6596 68.8745 53.7977 69.3261C55.6891 74.845 59.38 79.3689 62.7235 84.035C68.7159 91.8452 74.2731 100.303 76.9346 109.874C77.8385 112.721 78.1983 115.69 78.5164 118.65C78.7256 121.598 78.7716 124.57 77.8343 127.413C77.7673 127.622 77.7004 127.848 77.6376 128.087H77.6334Z" fill="#F1BC6F"/>
<path d="M72.4318 128.446C72.4779 130.056 73.0344 134.521 75.2732 131.875C76.1897 130.206 76.4491 128.262 76.9889 126.452C77.7505 124.098 77.6166 121.723 77.4995 119.306C76.8718 108.578 71.9171 98.7106 65.8285 90.0558C63.3888 86.4475 60.5809 83.086 58.1706 79.4694C55.7561 76.1914 53.6135 72.5957 52.513 68.653C52.4878 68.6237 52.4544 68.5986 52.4376 68.561C51.5128 66.9471 50.3662 65.3792 48.8012 64.3465C47.7927 63.7193 46.621 62.8706 45.3823 63.0294C46.0142 67.3736 48.1023 71.287 50.2574 75.0583C51.9104 77.9725 53.7056 80.8157 55.6138 83.5668C57.0575 85.465 58.5891 87.2963 59.9616 89.2488C67.3057 99.3001 73.5952 110.43 72.6871 123.295C72.549 125.043 72.3733 126.707 72.4318 128.45V128.446ZM70.0215 101.106C69.7704 101.236 69.4524 101.136 69.3185 100.881C68.3476 98.9029 66.996 97.1678 65.6318 95.4535C65.318 95.2654 65.1004 94.8724 65.3724 94.5546C66.021 93.9567 66.6319 95.0354 66.9918 95.4828C68.197 97.0423 69.3854 98.6311 70.2517 100.404C70.3856 100.655 70.2768 100.981 70.0257 101.106H70.0215ZM71.0174 104.23C70.3646 103.828 70.9798 102.875 71.5907 103.343C72.2435 103.745 71.6284 104.698 71.0174 104.23Z" fill="#FFD8A0"/>
<path d="M49.9729 112.859C53.3541 112.613 51.6886 106.408 51.0483 104.347C48.8974 98.861 45.3488 94.0361 43.2272 88.5213C42.5368 86.8112 41.8881 85.0343 41.6747 83.1946C41.6747 83.1946 41.6747 83.1946 41.6705 83.1946C40.6997 81.9696 39.8963 80.7403 38.4902 79.925C37.9546 79.6156 37.4148 79.2937 36.808 79.1474C36.1677 79.0554 35.5191 79.1432 34.8831 79.2268C35.1383 82.5424 36.5862 85.7367 38.0927 88.6467C41.8965 96.5029 48.3367 103.586 49.3452 112.479C49.5628 112.554 49.7511 112.759 49.9729 112.859ZM47.6922 101.788C47.4454 101.913 47.1064 101.821 46.9892 101.562C46.6419 100.805 46.3071 100.061 45.9138 99.4046C45.6752 99.0074 45.3949 98.6436 45.1229 98.2715C44.9513 98.0415 45.0266 97.7029 45.2526 97.544C45.9975 97.1175 46.4452 98.4513 46.8218 98.8861C47.2403 99.5885 47.5793 100.341 47.9224 101.085C48.0396 101.345 47.9601 101.654 47.6964 101.788H47.6922ZM48.7886 105.053C48.5041 105.053 48.2823 104.769 48.2948 104.501C48.3116 104.204 48.5627 104.008 48.8472 104.008C49.1318 104.008 49.3535 104.292 49.341 104.56C49.3243 104.857 49.0732 105.053 48.7886 105.053Z" fill="#F1BC6F"/>
<path d="M35.7285 76.0952C40.612 79.2728 45.8093 82.0616 51.4502 83.6211C52.4797 83.9472 53.5133 84.2316 54.5762 84.3988C54.7143 84.449 54.8817 84.4824 55.0574 84.52C54.7812 84.1521 54.505 83.7884 54.2288 83.4204C50.9941 78.537 47.8598 73.5197 45.5959 68.1052C45.0268 66.3701 44.4744 64.4552 44.2819 62.6489C44.2736 62.3646 44.2903 62.0803 44.3112 61.796C44.2192 61.6873 44.1773 61.5493 44.2317 61.357C44.2527 61.2859 44.2861 61.2274 44.328 61.173C44.3322 61.0602 44.3698 60.9473 44.441 60.8553C43.8719 60.341 43.3488 59.7849 42.8843 59.1703C42.7002 58.748 43.1395 58.2547 43.5789 58.4554C44.0225 58.8442 44.3447 59.3961 44.8176 59.7849C47.1694 61.888 49.9228 63.4726 52.6554 65.0322C57.4134 67.8836 62.64 69.8236 68.1386 70.5428C71.0846 70.9191 74.085 70.9609 77.0142 70.4466C77.6754 70.317 78.3282 70.1623 78.9936 70.0578C79.1149 70.0034 79.2488 69.9951 79.3785 70.0369C79.592 70.0829 79.7677 70.2543 79.797 70.4801C79.8263 70.7811 79.6673 70.9316 79.4497 71.0194C79.3869 71.0571 79.3158 71.0905 79.2321 71.103C78.4412 71.3664 77.6963 71.7009 77.0895 72.2696C75.7756 73.2061 75.1562 74.5942 75.2985 76.1621C75.7505 76.9105 76.2233 77.6422 76.7046 78.3572C78.0102 80.5355 79.4539 82.6511 80.8808 84.7751C83.2368 85.1974 85.5886 85.6824 87.9654 85.9458C98.0253 87.0203 108.11 87.7604 118.229 87.5764C119.995 87.5053 121.756 87.405 123.518 87.2879C123.527 86.9911 123.518 86.7109 123.493 86.4308C123.464 86.3764 123.447 86.3179 123.443 86.251C123.183 81.2505 122.715 76.2583 121.949 71.3121C120.982 68.8327 119.698 67.892 117.111 66.9763C116.521 66.784 115.919 66.621 115.308 66.4663C115.245 66.4537 115.182 66.4495 115.12 66.437C115.044 66.4244 114.977 66.4035 114.919 66.3701C111.014 65.421 106.893 64.8147 104.796 60.8971C102.39 55.9258 107.139 50.3065 99.7368 48.0738C93.6942 47.0035 87.8901 50.7204 81.86 49.4034C75.5663 48.1783 75.1228 42.2078 76.8468 37.0651C77.3197 34.9871 78.4412 33.1725 79.2781 31.2325C80.3117 29.3218 80.8892 27.2271 81.4918 25.1533C82.199 23.0126 82.5254 20.6879 82.5589 18.4427C82.4794 16.7953 82.1027 15.1187 81.4332 13.5926C80.9059 12.6561 80.2782 11.7822 79.5376 11.0129C79.3869 10.8415 79.1944 10.7244 79.0061 10.5948C78.935 10.5488 78.8848 10.4903 78.8471 10.4318C78.052 10.0137 77.2527 9.60392 76.4451 9.2109C76.3154 9.19836 76.1815 9.13982 76.0601 9.02275C75.9137 8.95167 75.763 8.8806 75.6165 8.80952C75.4617 8.83042 75.2985 8.77607 75.1646 8.61719C75.1604 8.60883 75.1562 8.60465 75.1521 8.59628C74.7754 8.42068 74.3988 8.24926 74.0222 8.08201C71.9257 7.32942 69.4819 7.14964 68.6156 9.48685C68.5027 9.70008 68.4524 10.022 68.3478 10.2687C68.4566 10.7913 68.532 11.1927 68.5696 11.385C69.1806 14.3912 69.1722 17.435 68.9839 20.4788C68.7286 24.8188 67.2305 28.9246 65.5776 32.9008C63.3681 38.5117 60.623 44.0976 56.0408 48.1574C53.4631 50.503 50.5547 52.4388 47.5125 54.1405C47.3828 54.2701 47.2363 54.3621 47.0815 54.383C45.8512 55.0603 44.6042 55.7 43.3446 56.3105C38.9675 58.263 34.3602 59.6553 29.6734 60.6462C29.6148 60.6713 29.552 60.6922 29.4767 60.6964C27.648 61.3863 24.861 61.6622 24.4342 63.9618C24.4133 64.3256 24.3756 64.6935 24.4133 65.0489C24.4802 65.2914 24.5807 65.5255 24.6016 65.7806C24.6016 65.7931 24.6016 65.8015 24.6016 65.814C27.8782 69.694 31.5397 73.2228 35.7202 76.1078L35.7285 76.0952ZM109.186 84.9716C110.897 85.2225 112.525 85.2308 114.22 85.2016C114.998 84.9591 115.35 86.0545 114.53 86.2176C113.672 86.2677 112.814 86.2385 111.96 86.2635C110.96 86.2552 110.106 86.1047 109.144 86.0169C108.462 85.9751 108.504 84.9465 109.186 84.9716ZM106.855 85.0343C107.11 85.6907 105.976 86.1214 105.725 85.4608C105.47 84.8044 106.608 84.3737 106.855 85.0343ZM103.327 61.8295C103.612 61.8295 103.834 62.1138 103.817 62.3814C103.8 62.6782 103.549 62.8705 103.264 62.8705C102.98 62.8705 102.758 62.5862 102.775 62.3186C102.792 62.0218 103.043 61.8295 103.327 61.8295ZM101.997 54.0109C102.75 53.7057 102.955 54.7468 102.859 55.2903C102.779 56.599 102.44 57.8157 102.603 59.116C102.587 59.7264 103.361 60.663 102.599 61.0351C102.34 61.127 102.017 60.9849 101.934 60.7131C101.168 58.8358 101.704 56.854 101.829 54.9224C101.733 54.5879 101.599 54.2241 101.997 54.0109ZM38.3146 75.3761C38.4695 75.1419 38.8043 75.0667 39.0386 75.2256C39.7291 75.7231 40.4488 76.1705 41.2021 76.5719C42.0892 76.9858 42.9638 77.4833 43.9179 77.7175C44.5665 77.9349 44.2443 78.9174 43.5957 78.7126C41.7502 78.1648 40.0345 77.1948 38.4653 76.0994C38.231 75.9363 38.1598 75.6144 38.3146 75.3761ZM36.5697 73.62C37.302 73.6117 37.3187 74.6737 36.5906 74.6695C35.7704 74.728 35.7453 73.5448 36.5697 73.62Z" fill="#FFD8A0"/>
<path d="M27.8069 45.5359C32.9917 43.1359 38.4861 38.8127 43.8132 43.4161C44.7924 44.06 45.6335 44.9672 46.4788 45.8662C46.6211 45.9289 46.7383 46.0501 46.8429 46.1672C47.0019 46.3386 47.1525 46.5226 47.2948 46.7107C48.5125 47.9191 49.8307 48.9225 51.6678 48.9309C52.3624 48.9058 53.078 48.8849 53.7559 48.7344C56.0282 46.9073 58.0744 44.8251 59.6688 42.3834C61.9159 38.9842 63.5312 35.309 64.9917 31.5293C66.5609 27.8291 67.7954 23.9365 67.9753 19.8976C68.0213 17.6273 68.2264 15.3319 67.7745 13.0867C67.3936 10.5446 66.9626 7.94819 65.8077 5.62771C65.6779 5.43538 65.5022 5.23469 65.4436 5.02564C63.4601 4.45283 61.4682 3.92602 59.5056 3.38248C51.6385 1.30868 43.4742 0.940746 35.3937 1.20833C28.8824 1.24596 22.5887 3.16925 16.4749 5.22215C12.5246 6.86948 8.52829 8.50845 5.06759 11.038C5.04666 11.0547 5.02574 11.0714 5.00482 11.0882C8.29813 12.6728 11.06 15.1438 13.4913 17.8447C17.1863 21.6537 19.6762 26.4494 21.4588 31.4039C21.7099 32.1607 21.9861 32.9049 22.2999 33.6408C22.4087 33.9042 22.2707 34.2136 22.007 34.3181C21.7476 34.4226 21.4337 34.2888 21.3291 34.0212C20.5801 31.9642 19.7975 29.9029 18.8936 27.9044C18.8351 27.8709 18.7807 27.8249 18.7388 27.7664C15.1651 23.6146 6.54058 17.297 1.15913 15.7919C1.02522 16.8246 1.03359 17.8782 1.06707 18.9151C1.51064 22.9289 3.02967 26.696 4.35201 30.4632C6.04261 34.5564 7.69136 38.6873 9.6414 42.6635C9.66651 42.6802 9.69162 42.6969 9.71254 42.722C10.1728 43.09 10.5537 43.5708 10.9889 43.9554C13.0603 45.5526 15.5501 46.5853 18.0986 47.0076C21.3919 47.3421 24.7731 46.8445 27.8111 45.5401L27.8069 45.5359ZM55.1326 44.9672C54.8481 44.9672 54.6179 44.7038 54.6305 44.4237C54.6389 44.131 54.8858 43.922 55.1745 43.922C55.4632 43.922 55.6892 44.1854 55.6767 44.4655C55.6683 44.7582 55.4214 44.9672 55.1326 44.9672ZM59.765 37.5835C60.058 36.9689 60.9953 37.3912 60.7191 38.0183C60.1333 39.1096 59.3549 40.205 58.6687 41.2168C58.2251 41.6809 57.0408 43.8634 56.3587 43.0858C56.1035 42.8098 56.2499 42.4377 56.5136 42.2287C56.999 41.6977 57.43 41.1458 57.8108 40.6189C58.4762 39.6197 59.1876 38.6288 59.765 37.5793V37.5835ZM57.0534 19.4168C59.1415 27.5532 52.7683 37.6671 43.8425 36.9563C34.7618 36.0198 31.9665 24.9734 36.0046 17.8657C41.0806 8.20324 54.1995 8.15725 57.0534 19.421V19.4168ZM29.7863 3.27377C30.8785 3.08981 31.9706 2.83058 33.0879 2.8933C33.7742 2.93929 36.6491 2.3623 36.0339 3.71697C35.9042 3.92602 35.628 3.98873 35.4062 3.90511C34.2973 3.82149 33.1675 3.95111 32.0627 3.95529C31.3597 4.04727 30.6609 4.18106 29.962 4.30231C29.6858 4.35667 29.4055 4.1518 29.3552 3.87585C29.3092 3.59153 29.5017 3.32395 29.7821 3.26959L29.7863 3.27377ZM27.4345 3.95947C27.7191 3.95947 27.9659 4.16852 27.9785 4.46119C27.9911 4.73714 27.7609 5.00473 27.4763 5.00473C27.1918 5.00473 26.9449 4.79568 26.9323 4.503C26.9198 4.22706 27.1499 3.95947 27.4345 3.95947ZM8.64546 23.393C8.3609 23.393 8.11401 23.184 8.10145 22.8913C8.0889 22.6153 8.31905 22.3477 8.60361 22.3477C8.88816 22.3477 9.13506 22.5568 9.14761 22.8495C9.16017 23.1254 8.93001 23.393 8.64546 23.393ZM14.1232 26.8466C13.282 26.0563 12.307 25.3957 11.3404 24.7644C10.9345 24.4843 10.0515 24.317 10.3444 23.6522C10.4783 23.393 10.7922 23.301 11.0474 23.4223C12.4535 24.1456 13.7675 25.0905 14.9182 26.1734C15.3534 26.7002 14.5625 27.365 14.119 26.8466H14.1232Z" fill="#F1BC6F"/>
<path d="M42.7252 121.338C43.1144 123.224 44.4618 124.533 46.1859 122.961C47.0605 121.978 47.4371 120.728 47.7719 119.486C48.274 117.776 48.6297 115.916 48.4205 114.143C48.1652 107.043 44.0392 100.964 40.4822 95.0897C39.1808 92.9992 37.9505 90.7582 36.8792 88.5589C35.3937 85.6531 34.0755 82.5716 33.8412 79.2937C33.8035 78.7836 33.7868 78.2652 33.8035 77.7551C32.795 75.5349 30.029 72.8382 27.5977 72.3699C27.196 73.8876 27.3006 75.4931 27.4219 77.0485C27.4219 78.5913 27.7525 80.0045 28.1919 81.4595C29.1586 85.2768 30.9747 88.6927 32.9248 92.0459C32.9457 92.071 32.9666 92.0961 32.9833 92.1212C33.0503 92.2006 33.088 92.2801 33.1047 92.3637C33.8454 93.6305 34.5986 94.889 35.3309 96.1559C39.4988 102.829 43.6416 108.967 42.767 117.241C42.6499 118.625 42.4992 119.971 42.721 121.338H42.7252ZM34.0839 87.7018C33.8412 87.8272 33.4939 87.7353 33.3809 87.476C32.703 85.8371 32.1422 84.1479 31.9121 82.3835C31.7489 82.049 31.7112 81.5807 32.1339 81.4344C33.2051 81.1417 32.9959 83.5124 33.3139 84.1688C33.5943 85.097 33.9291 86.0085 34.2722 86.9158C34.427 87.1875 34.3852 87.5513 34.0839 87.7018ZM35.2347 90.5491C34.9501 90.5491 34.7283 90.2648 34.7409 89.9972C34.7576 89.7003 35.0087 89.5038 35.2933 89.5038C35.5778 89.5038 35.7996 89.7881 35.787 90.0557C35.7703 90.3526 35.5192 90.5491 35.2347 90.5491Z" fill="#FFD8A0"/>
<path d="M113.764 35.3717C112.295 34.7948 110.876 34.0882 109.495 33.3105C109.202 33.2561 108.901 33.2185 108.658 33.4234C108.282 33.7453 108.617 34.3599 108.817 34.7111C108.838 34.753 108.855 34.7906 108.868 34.8282C109.721 36.0449 110.537 37.2867 111.32 38.5535C111.412 38.541 111.512 38.541 111.625 38.5703C113.475 38.6622 114.245 37.3118 113.889 35.6268C113.818 35.5557 113.785 35.4637 113.768 35.3676L113.764 35.3717Z" fill="#F1BC6F"/>
<path d="M117.329 32.3614C116.936 32.0896 116.53 31.8513 116.132 31.5921C116.099 31.5837 116.078 31.5628 116.048 31.5461C112.094 30.4381 108.307 28.7949 104.721 26.7964C104.248 26.5664 103.783 26.3156 103.323 26.0647C103.658 26.7337 104.026 27.3859 104.52 27.9545C105.307 29.0458 106.332 29.9364 107.349 30.8018C110.203 32.6206 113.203 34.2679 116.446 35.1919C116.927 35.3132 117.316 35.2296 117.622 35.0205C117.718 34.8324 117.873 34.6484 117.944 34.4603C118.216 33.7202 118.036 32.7962 117.329 32.3655V32.3614Z" fill="#FFD8A0"/>
<path d="M107.591 33.0679C107.591 33.0679 107.6 33.081 107.604 33.0853C107.604 33.081 107.609 33.0766 107.613 33.0679C107.604 33.0679 107.6 33.0679 107.591 33.0679Z" fill="#F1BC6F"/>
<path d="M185.443 120.506C184.999 120.302 184.518 120.168 184.041 120.084C182.835 120.021 181.647 120.502 180.618 121.054C179.53 121.694 178.755 122.664 178.052 123.688C178.052 123.684 178.061 123.676 178.065 123.671C178.073 123.659 178.082 123.646 178.094 123.634C178.082 123.651 178.073 123.659 178.065 123.671C178.061 123.68 178.052 123.684 178.048 123.692C178.048 123.692 178.048 123.688 178.052 123.684C178.048 123.692 178.04 123.701 178.036 123.705C177.747 124.081 177.128 124.871 176.579 124.972C176.044 125.34 175.399 125.683 174.634 126.038C170.926 127.798 166.846 128.279 162.833 128.848C159.694 129.345 156.539 129.692 153.38 130.073C149.873 130.432 146.32 130.487 142.843 131.026C140.131 131.427 137.223 131.703 134.767 132.974C130.255 135.516 129.59 140.889 130.025 145.584C130.113 147.704 130.331 149.807 130.661 151.902C130.992 153.796 131.151 156.108 132.988 157.191C135.47 158.387 138.244 158.822 140.926 159.227C145.63 159.85 150.405 159.758 155.116 159.344C160.368 158.922 165.624 158.462 170.855 157.839C175.768 157.145 181.086 156.627 184.932 153.186C190.477 148.745 193.498 141.353 192.879 134.329C192.544 131.716 191.665 129.236 190.477 126.903C189.405 124.374 187.585 122.208 185.443 120.502V120.506ZM141.102 138.188C141.864 137.678 142.688 137.172 143.646 137.272C144.249 136.984 144.793 137.716 144.249 138.155C143.872 138.426 143.374 138.247 142.947 138.364C142.295 138.447 141.575 139.572 140.977 138.916C140.818 138.69 140.859 138.339 141.102 138.184V138.188ZM139.018 139.898C139.026 139.605 139.273 139.392 139.558 139.392C139.842 139.392 140.073 139.656 140.064 139.932C140.056 140.224 139.809 140.438 139.524 140.438C139.24 140.438 139.01 140.174 139.018 139.898ZM144.282 151.705C139.311 150.903 138.378 146.007 140.91 142.198C142.186 140.27 144.546 138.744 146.869 139.727C148.986 139.907 150.258 141.796 150.949 143.619C152.614 148.139 149.158 152.701 144.282 151.705ZM185.924 149.138C185.639 149.138 185.409 148.875 185.417 148.599C185.426 148.306 185.673 148.093 185.957 148.093C186.242 148.093 186.472 148.356 186.464 148.632C186.455 148.925 186.208 149.138 185.924 149.138ZM191.314 139.003C191.117 141.353 190.502 143.72 189.297 145.76C188.916 146.22 188.163 147.713 187.472 147.19C186.878 146.579 187.911 146.048 188.183 145.547C189.426 143.707 189.979 141.433 190.247 139.309C190.322 138.878 190.025 138.247 190.623 138.096C191.167 137.979 191.33 138.569 191.314 138.999V139.003Z" fill="#FFD8A0"/>
<path d="M84.1657 120.138C84.6846 120.251 85.1323 120.164 85.534 119.796C87.6264 117.755 86.3542 112.203 85.7349 109.598C82.8098 98.7105 76.2943 89.2446 70.2392 79.8874C69.0549 77.8638 67.8623 75.8192 66.8831 73.6869C66.8371 73.6326 66.7994 73.5698 66.7785 73.4862C66.7701 73.4569 66.7659 73.4319 66.7575 73.4026C66.678 73.227 66.5985 73.0514 66.5232 72.8758C65.477 71.818 64.0961 71.1239 62.6231 70.9441C62.1042 70.919 61.3719 70.6264 61.0037 71.0863C61.079 71.2828 61.1543 71.4751 61.238 71.6675C61.238 71.6675 61.2422 71.6758 61.2464 71.68C61.2464 71.6842 61.2464 71.6925 61.2506 71.6967C61.8615 73.1266 62.6231 74.4897 63.4349 75.8192C65.1255 78.7084 66.9166 81.5766 68.8164 84.3193C70.8543 87.4091 72.6411 90.6578 74.5493 93.8312C77.3196 98.3635 79.9643 103.021 81.5293 108.118C82.6132 111.998 83.7723 116.079 83.9732 120.151C84.0359 120.134 84.0987 120.134 84.1657 120.143V120.138ZM66.7785 78.1774C66.5567 78.3362 66.201 78.2902 66.0503 78.0477C65.2469 76.7767 64.661 75.4011 64.1547 73.9879C64.0501 73.7245 64.2133 73.4151 64.4769 73.3232C65.3138 73.0639 65.4185 74.7154 65.7574 75.2381C66.0629 75.9321 66.406 76.6136 66.791 77.2533C67.0044 77.5293 67.1258 77.9432 66.7827 78.1815L66.7785 78.1774ZM67.9878 80.9578C67.7033 80.9578 67.4815 80.6734 67.494 80.4059C67.5108 80.109 67.7619 79.9125 68.0464 79.9125C68.331 79.9125 68.5528 80.1968 68.5402 80.4644C68.5235 80.7613 68.2724 80.9578 67.9878 80.9578Z" fill="#FFD8A0"/>
<path d="M147.956 141.136C147.655 140.985 147.341 140.889 147.023 140.822C146.91 140.902 146.759 140.935 146.584 140.889C145.789 140.688 144.927 140.822 144.157 141.052C143.466 141.378 142.834 141.838 142.24 142.315C141.997 142.495 141.822 142.871 141.591 143.109C141.139 143.891 140.826 144.757 140.671 145.589C139.926 149.071 143.173 151.137 146.333 150.756C147.333 150.673 148.186 150.033 148.981 149.473C149.852 148.52 150.279 147.257 150.312 145.982C150.325 144.159 149.421 142.231 147.96 141.136H147.956ZM144.437 149.071C144.152 149.071 143.922 148.808 143.931 148.532C143.939 148.239 144.186 148.026 144.47 148.026C144.755 148.026 144.985 148.29 144.977 148.566C144.968 148.858 144.722 149.071 144.437 149.071ZM148.458 147.311C148.061 147.763 147.32 148.904 146.684 148.231C146.282 147.566 147.283 147.282 147.546 146.789C147.893 146.433 147.877 145.597 148.525 145.681C149.354 145.902 148.764 146.864 148.458 147.307V147.311Z" fill="#F1BC6F"/>
<path d="M88.3251 16.1597C87.1911 15.821 85.8269 15.7541 84.81 16.4022C84.0526 16.8621 83.7095 17.8488 83.6802 18.6809C83.7304 18.8607 83.6844 19.0154 83.5965 19.1283C83.563 21.0139 83.2157 22.9079 82.7512 24.7267C82.044 26.8507 81.5628 29.0583 80.5417 31.0652C79.3658 33.5069 78.0769 35.9779 77.5078 38.6287C74.9175 48.5921 82.973 49.9092 90.6727 47.7434C94.0832 47.1539 97.7364 46.1671 101.084 47.4005C107.826 50.436 103.758 55.2108 105.654 60.2406C107.503 63.945 111.629 64.4885 115.437 65.4251C116.722 65.6216 118.149 65.977 119.321 65.2369C119.844 64.8606 120.22 64.2711 120.317 63.6398C120.329 63.4767 120.342 63.2802 120.388 63.0962C119.974 61.3109 119.513 59.5298 119.003 57.7654C116.454 49.8674 112.809 42.3749 108.085 35.5514C102.846 27.8457 95.9872 21.4195 88.3335 16.1639L88.3251 16.1597ZM79.6713 43.1651C79.3867 43.1651 79.165 42.8808 79.1817 42.6132C79.1984 42.3164 79.4495 42.124 79.7341 42.124C80.0186 42.124 80.2404 42.4084 80.2237 42.6759C80.2069 42.9728 79.9559 43.1651 79.6713 43.1651ZM81.5753 35.6309C80.7635 37.157 79.8889 38.7708 79.9768 40.5562C79.9684 40.8405 79.7006 41.0662 79.4244 41.0453C78.4829 41.0328 79.098 38.566 79.324 38.0224C79.6085 37.2908 79.8638 36.5089 80.2948 35.8525C80.4873 35.4929 80.5961 35.0622 80.9351 34.803C81.4665 34.4309 82.0607 35.2002 81.5795 35.6267L81.5753 35.6309Z" fill="#F1BC6F"/>
<path d="M175.801 162.877C175.249 162.388 174.667 161.928 174.068 161.497C174.064 161.493 174.056 161.489 174.052 161.485C171.892 160.084 169.281 159.403 166.708 159.457C166.419 159.419 166.034 159.503 165.729 159.444C164.879 159.532 164.03 159.62 163.18 159.716C157.263 160.214 151.333 160.925 145.391 160.669C141.34 160.477 137.252 159.95 133.427 158.558C130.607 157.676 129.958 154.691 129.628 152.107C129.197 149.481 129 146.843 128.904 144.188C128.594 139.492 129.933 134.438 134.327 132.033C136.603 130.846 139.24 130.507 141.755 130.131C145.651 129.496 149.601 129.416 153.522 129.019C156.598 128.638 159.686 128.312 162.741 127.815C167.628 127.058 173.102 126.627 176.981 123.282C177.446 122.58 177.751 121.756 177.776 120.933C177.768 120.628 177.759 120.318 177.776 120.009C177.759 119.963 177.743 119.917 177.743 119.867C177.722 116.271 177.274 112.763 177.061 109.188C176.805 107.641 176.864 106.107 176.709 104.585C176.529 103.059 176.324 101.528 176.14 100.002C175.378 96.068 174.663 91.9998 172.236 88.6968C169.478 85.3561 166.113 84.0098 162.402 83.7882C162.305 83.8426 162.184 83.8677 162.042 83.8426C161.929 83.8091 161.816 83.7841 161.703 83.759C159.937 83.7213 158.1 83.9179 156.217 84.2607C150.915 85.1513 145.613 86.1923 140.269 86.8404C133.126 87.5428 125.966 88.2954 118.794 88.5923C111.186 88.8097 103.578 88.3874 95.9915 87.7519C95.845 87.8146 95.6692 87.8397 95.5144 87.8146C93.8238 87.9902 92.0328 88.3874 90.7983 89.5748C90.405 90.1142 90.0283 90.6661 89.6559 91.2305C88.4256 93.7057 88.3921 96.7202 88.8776 99.3878C89.0073 99.9271 88.978 100.483 89.0952 101.027C89.0993 101.094 89.0952 101.152 89.0784 101.207C89.8317 104.204 90.3464 108.26 86.9777 109.422C86.915 109.443 86.848 109.456 86.7811 109.464C87.7686 113.432 89.0073 121.071 84.4084 121.225C84.2745 121.225 84.1322 121.204 83.9983 121.167C84.015 122.931 83.8309 124.692 83.3664 126.427C82.8266 128.179 81.2699 130.57 79.211 130.378C78.826 130.394 77.9096 129.909 77.3196 129.349C76.7588 131.586 75.9805 134.086 73.4111 133.647C70.2433 132.171 71.7289 124.608 71.708 121.71C71.9674 112.257 68.151 103.314 63.0165 95.5621C61.2924 92.8235 59.3717 90.2229 57.4216 87.6474C57.3588 87.639 57.2919 87.6181 57.2291 87.5763C57.2417 87.5805 57.2542 87.5888 57.2668 87.593C57.2668 87.593 57.271 87.593 57.2751 87.5972C54.9987 87.3296 55.8189 91.172 55.8314 92.5099C55.8524 92.8569 55.8691 93.2207 55.8314 93.5719C55.911 94.9851 54.7141 95.8255 53.3918 95.7795C54.1701 97.3014 54.7309 98.8902 54.6723 100.642C54.597 102.16 53.1449 103.368 51.6803 103.063C51.81 103.385 51.9272 103.707 52.0402 104.033C52.5423 105.517 52.8771 107.052 52.9733 108.62C53.1784 109.661 53.124 110.714 52.7725 111.722C52.4251 113.01 51.0526 114.155 49.68 113.871C49.6089 113.842 49.5336 113.808 49.4541 113.775C49.4582 113.863 49.4624 113.955 49.4666 114.042C49.7428 116.3 49.1695 118.558 48.5083 120.703C48.0145 122.877 46.0729 125.519 43.5746 124.474C40.524 122.484 41.8798 118.336 41.7962 115.313C41.8757 113.051 41.5158 110.677 40.7793 108.561C38.8878 102.954 35.1802 98.3383 32.3807 93.1956C32.2803 93.0242 32.184 92.8486 32.0836 92.6772C28.8154 88.701 24.25 85.4774 19.0526 84.867C17.3453 84.7206 14.9056 84.5367 13.6168 85.8453C12.0685 88.1574 11.3989 91.1887 11.0558 93.9231C10.1142 99.6344 10.3067 105.488 10.7252 111.241C10.993 114.862 11.1855 118.495 11.7044 122.091C12.3488 128.066 13.0226 134.04 13.2569 140.049C13.3573 143.74 13.1774 147.428 13.0226 151.112C12.7882 158.55 11.5412 165.908 11.3445 173.346C10.8005 180.065 10.8131 187.144 16.3661 191.902C19.0526 194.294 22.5552 195.657 26.0326 196.401C31.9288 197.927 38.0467 197.367 44.0056 196.551C47.4245 196.154 50.8685 195.987 54.2999 195.753C56.6265 195.611 58.9448 195.251 61.2799 195.314C62.5478 195.272 63.8157 195.326 65.0795 195.401C65.1799 195.401 65.272 195.435 65.3515 195.485C65.4268 195.493 65.498 195.502 65.5649 195.502C66.5023 195.577 67.4396 195.636 68.377 195.636C72.4905 195.861 76.6626 196.397 80.7301 196.681C85.5047 196.986 90.292 197.312 95.0457 197.755C106.918 198.776 118.785 199.942 130.711 199.808C137.574 199.888 144.466 200.285 151.296 199.394C156.677 199.022 162.13 197.952 167.034 195.694C173.173 193.135 178.282 187.934 179.948 181.416C180.438 180.082 180.663 178.681 180.869 177.285C181.157 175.859 181.362 174.396 181.417 172.932C181.417 172.916 181.408 172.903 181.408 172.887C180.617 169.316 178.6 166.009 176.186 163.295C176.06 163.157 175.931 163.028 175.797 162.898L175.801 162.877ZM172.512 119.072C172.608 119.775 172.717 120.477 172.78 121.15C172.78 121.798 173.512 123.4 172.554 123.563C172.282 123.584 172.001 123.362 171.997 123.078C171.863 121.765 171.625 120.46 171.47 119.147C171.424 118.47 172.453 118.391 172.512 119.072ZM171.185 107.148C171.348 108.076 171.369 109.017 171.499 109.949C171.491 110.572 172.173 112.362 171.248 112.437C170.959 112.458 170.717 112.236 170.687 111.952C170.537 110.543 170.34 109.067 170.202 107.666C170.118 107.311 170.118 106.83 170.566 106.742C170.834 106.688 171.143 106.868 171.185 107.148ZM166.335 94.3579C166.959 93.7266 167.838 95.0186 168.264 95.4241C169.231 96.6324 169.813 98.0624 170.231 99.5425C170.394 100.073 170.771 101.165 169.896 101.207C169.574 101.19 169.373 100.889 169.407 100.584C168.946 98.5306 168.147 96.3858 166.398 95.098C166.172 94.9224 166.16 94.5712 166.335 94.3621V94.3579ZM164.452 93.1747C164.737 93.1747 164.959 93.459 164.946 93.7266C164.929 94.0235 164.678 94.22 164.394 94.22C164.109 94.22 163.887 93.9357 163.9 93.6681C163.917 93.3712 164.168 93.1747 164.452 93.1747ZM153.727 92.6604C154.987 92.4347 156.284 91.958 157.568 92.1629C158.221 92.3594 157.928 93.3503 157.271 93.1663C155.635 93.158 154.116 93.6973 152.53 93.9942C152.258 94.0611 151.965 93.8897 151.894 93.6137C151.764 92.7315 153.166 92.8862 153.727 92.6604ZM142.035 94.6632C143.194 94.4959 144.27 93.9942 145.42 93.7893C146.086 93.6388 146.337 94.6381 145.672 94.8053C143.989 95.2109 142.466 95.7753 140.742 95.9091C140.453 95.9927 140.123 95.8506 140.043 95.5412C139.913 94.5754 141.453 94.8806 142.031 94.6673L142.035 94.6632ZM129.385 95.8088C130.255 95.7252 131.126 95.6206 131.988 95.4785C132.657 95.3907 133.335 95.3238 134.005 95.2234C134.499 95.0771 135.197 95.1314 135.059 95.8213C134.996 96.0387 134.8 96.1809 134.595 96.1934C133.745 96.3189 132.892 96.4234 132.038 96.5279C131.197 96.6659 130.352 96.7662 129.502 96.8499C129.222 96.8833 128.954 96.6701 128.925 96.3899C128.891 96.1056 129.105 95.8464 129.385 95.813V95.8088ZM16.2657 93.6179C16.5502 93.6179 16.7804 93.8729 16.7762 94.1531C16.7678 94.4416 16.5251 94.6632 16.2405 94.6632C15.956 94.6632 15.7258 94.4081 15.73 94.128C15.7384 93.8395 15.9811 93.6179 16.2657 93.6179ZM15.9351 107.198C15.6547 107.227 15.3869 107.018 15.3576 106.734C15.1944 105.061 14.8889 103.389 14.9768 101.708C14.914 101.386 15.0772 101.031 15.4329 100.993C16.3284 100.993 15.9393 102.156 16.002 102.724C16.0355 103.376 16.1108 104.025 16.1778 104.673C16.2447 105.321 16.3284 105.969 16.3996 106.621C16.433 106.905 16.2196 107.165 15.9351 107.198ZM17.0733 113.545C17.4792 113.495 17.6842 113.896 17.6801 114.226C17.9395 115.606 18.2534 116.973 18.3998 118.37C18.4249 118.654 18.2199 118.913 17.9353 118.947C17.655 118.976 17.3871 118.767 17.3578 118.483C17.2323 117.333 17.0273 116.321 16.8138 115.221C16.7511 114.686 16.2657 113.708 17.0733 113.545ZM20.3415 147.006C20.3289 147.779 20.3289 148.553 20.2871 149.322C20.2704 149.606 20.0402 149.841 19.7515 149.832C19.4753 149.824 19.2242 149.581 19.2409 149.297C19.2744 148.657 19.2828 148.018 19.2912 147.374C19.2912 146.692 19.3456 146.023 19.2912 145.35C19.2744 145.066 19.4627 144.807 19.7556 144.773C20.7223 144.748 20.2536 146.383 20.3415 147.002V147.006ZM19.5757 157.998C19.446 158.805 19.3539 159.62 19.2326 160.431C19.1907 160.711 18.9062 160.908 18.6342 160.862C18.3496 160.816 18.1613 160.544 18.199 160.264C18.3036 159.553 18.3915 158.838 18.4961 158.127C18.5965 157.383 18.7806 156.643 18.7932 155.891C18.7932 155.606 19.0484 155.372 19.3288 155.38C20.3248 155.468 19.5715 157.346 19.5757 158.002V157.998ZM19.651 139.936C19.3623 139.927 19.1405 139.685 19.1405 139.4C19.0987 138.167 18.9103 136.929 18.9313 135.692C18.8852 135.303 18.7681 134.831 19.2702 134.697C19.5506 134.63 19.831 134.805 19.9021 135.081C20.0737 136.081 19.9398 137.109 20.1113 138.113C20.1072 138.694 20.5256 139.856 19.651 139.936ZM18.4459 129.83C18.3454 128.337 18.4333 126.832 18.1446 125.36C18.1153 125.227 18.1153 125.214 18.086 125.122C17.8516 124.482 18.8141 124.11 19.061 124.746C19.5129 126.36 19.3707 128.095 19.4878 129.717C19.5464 130.394 18.5254 130.512 18.4459 129.83ZM17.4583 174.651C17.1863 174.68 16.8934 174.471 16.8808 174.187C16.8055 172.51 16.9687 170.842 17.2825 169.199C17.3286 168.919 17.6006 168.722 17.8809 168.764C18.1613 168.806 18.358 169.082 18.3161 169.362C18.2031 170.056 18.0692 170.742 18.0023 171.406C17.927 172.284 17.8893 173.175 17.9228 174.036C17.9521 174.333 17.7721 174.617 17.4625 174.651H17.4583ZM20.1699 184.848C19.9147 184.945 19.5841 184.819 19.492 184.552C19.0903 183.327 18.4249 182.227 18.0525 180.994C17.8642 180.647 17.8475 180.124 18.3161 180.007C18.9606 179.881 18.9982 180.642 19.1824 181.06C19.5464 182.127 20.1281 183.101 20.467 184.171C20.5549 184.443 20.4419 184.74 20.1657 184.848H20.1699ZM21.4044 187.186C21.1198 187.186 20.8729 186.977 20.8604 186.684C20.852 186.408 21.078 186.14 21.3625 186.14C21.6471 186.14 21.894 186.35 21.9066 186.642C21.9149 186.918 21.689 187.186 21.4044 187.186ZM25.7104 91.1344C25.2082 91.1385 24.7019 91.0633 24.1997 91.0466C22.5803 90.825 20.9859 91.1218 19.5422 91.8786C19.0987 92.0918 18.6509 92.3092 18.2659 92.6186C18.0399 92.7942 17.701 92.7399 17.5336 92.5141C16.8766 91.565 19.8352 90.6786 20.4629 90.365C21.8061 89.809 23.2707 89.9219 24.6852 90.0306C25.1873 90.1393 26.0577 89.88 26.1749 90.5616C26.2042 90.8333 25.9949 91.1218 25.7104 91.1385V91.1344ZM34.6864 191.074C33.7156 191.087 32.7448 191.137 31.7739 191.124C30.8952 191.133 30.0373 190.928 29.192 190.715C28.9158 190.648 28.7317 190.376 28.7945 190.092C29.0665 189.251 30.1963 190.008 30.8073 190.004C32.0836 190.171 33.3683 190.025 34.653 190.029C34.9375 190.029 35.1844 190.242 35.197 190.531C35.2095 190.811 34.9794 191.07 34.6948 191.074H34.6864ZM51.3455 188.946C49.1444 189.214 46.9809 189.736 44.7631 189.841C44.3613 189.916 43.8383 189.903 43.8006 189.381C43.8173 188.645 44.7547 188.846 45.2569 188.754C46.4202 188.703 47.4622 188.473 48.592 188.29C49.4457 188.152 50.3035 188.043 51.1614 187.917C51.4418 187.876 51.7179 188.051 51.7682 188.34C51.8184 188.611 51.6259 188.904 51.3455 188.946ZM61.3301 188.014C60.0537 188.143 58.744 188.189 57.4676 188.256C57.1329 188.348 56.7144 188.26 56.6474 187.863C56.5638 187.106 57.5179 187.219 58.0242 187.177C59.1122 187.148 60.2002 187.069 61.284 186.968C61.9661 186.939 62.0122 187.972 61.3301 188.014ZM68.695 126.723C68.7745 125.808 68.8122 124.997 68.9629 124.106C69.2516 122.317 69.352 120.565 69.2767 118.775C69.2474 118.278 69.1763 117.78 69.1009 117.283C69.0633 116.998 69.2725 116.735 69.5571 116.702C70.394 116.672 70.168 117.897 70.3019 118.453C70.4944 120.853 70.1304 123.262 69.8291 125.632C69.7789 126.268 69.7161 126.899 69.691 127.539C69.6784 127.823 69.4566 128.061 69.1637 128.057C68.4649 128.041 68.6699 127.146 68.6908 126.728L68.695 126.723ZM69.4776 130.466C70.0048 130.951 69.2641 131.732 68.7578 131.226C68.2347 130.746 68.9712 129.96 69.4776 130.466ZM73.2228 187.984C72.5658 187.942 71.8921 187.905 71.2686 187.888C69.9379 187.876 68.5193 187.838 67.2179 187.821C66.5651 188.018 66.2512 187.039 66.8998 186.826C67.5484 186.688 68.2347 186.83 68.8959 186.814C70.3773 186.822 71.8419 186.834 73.3149 186.939C73.5994 186.96 73.8129 187.232 73.7877 187.508C73.7626 187.796 73.499 188.001 73.2186 187.98L73.2228 187.984ZM85.057 188.574C83.3831 188.473 81.6632 188.381 79.9977 188.356C79.3157 188.381 79.2696 187.349 79.9517 187.311C81.6842 187.345 83.4208 187.424 85.1532 187.533C85.8311 187.6 85.7391 188.628 85.057 188.574ZM89.8107 95.7753C89.5262 95.7753 89.2918 95.5245 89.296 95.2443C89.3002 94.9558 89.5429 94.7301 89.8275 94.7301C90.112 94.7301 90.3464 94.9809 90.3422 95.2611C90.338 95.5495 90.0953 95.7753 89.8107 95.7753ZM91.9616 94.705C93.0245 94.797 94.0958 94.8053 95.1629 94.7802C95.6692 94.7677 96.1923 94.6464 96.6819 94.8179C97.3347 95.0186 97.0376 96.0053 96.3848 95.8171C95.2131 95.7377 94.0079 95.9091 92.8195 95.8088C92.4722 95.792 92.1248 95.767 91.7817 95.7335C91.0912 95.6206 91.2754 94.5879 91.9616 94.7008V94.705ZM97.636 189.535C95.9998 189.448 94.3636 189.122 92.7274 189.159C92.4471 189.214 92.1709 189.013 92.1207 188.737C92.0579 187.867 93.2212 188.101 93.7778 188.131C95.0959 188.252 96.4141 188.377 97.7323 188.494C98.0168 188.519 98.2302 188.779 98.2051 189.063C98.18 189.347 97.9164 189.561 97.636 189.535ZM102.457 95.9175C102.503 95.6248 102.771 95.4534 103.051 95.4785C103.779 95.5663 104.503 95.6164 105.235 95.5914C106.009 95.629 106.788 95.6123 107.558 95.5203C108.064 95.4659 109.031 95.2778 108.972 96.068C108.93 96.3356 108.663 96.5572 108.386 96.507C107.441 96.553 106.499 96.7035 105.553 96.645C104.662 96.6533 103.775 96.6283 102.892 96.5112C102.607 96.4861 102.411 96.1851 102.453 95.9175H102.457ZM110.014 190.643C108.307 190.518 106.604 190.225 104.896 190.213C104.214 190.242 104.168 189.214 104.85 189.168C106.612 189.159 108.353 189.481 110.106 189.602C110.784 189.673 110.692 190.702 110.01 190.643H110.014ZM114.81 96.9251C114.525 96.9377 114.291 96.6659 114.295 96.3941C114.383 95.5203 115.818 95.9718 116.425 95.9008C117.869 96.0429 119.312 95.7293 120.752 95.7921C121.422 95.9049 121.271 96.9251 120.597 96.8248C119.547 96.7913 118.496 97.0046 117.442 96.9795C116.563 96.9711 115.689 96.8875 114.81 96.9209V96.9251ZM122.07 192.09C120.141 191.948 118.212 191.848 116.291 191.639C116.007 191.613 115.793 191.354 115.818 191.07C115.843 190.786 116.103 190.572 116.387 190.597C117.275 190.677 118.162 190.781 119.053 190.836C120.091 190.903 121.129 190.97 122.166 191.049C122.451 191.07 122.664 191.338 122.639 191.618C122.614 191.902 122.351 192.115 122.07 192.09ZM126.464 153.516C126.179 153.516 125.953 153.248 125.962 152.972C125.974 152.679 126.221 152.47 126.506 152.47C126.79 152.47 127.016 152.738 127.008 153.014C126.995 153.307 126.749 153.516 126.464 153.516ZM126.334 145.476C126.364 146.621 126.51 147.758 126.677 148.896C126.736 149.569 125.711 149.669 125.635 148.988C125.221 146.274 125.104 143.469 125.661 140.768C125.782 140.203 125.928 139.639 126.02 139.07C126.066 138.786 126.347 138.594 126.627 138.644C126.912 138.694 127.096 138.966 127.054 139.25C126.56 141.32 126.272 143.364 126.338 145.48L126.334 145.476ZM126.698 97.0715C126.414 97.0715 126.179 96.8206 126.184 96.5405C126.188 96.252 126.431 96.0262 126.715 96.0262C127 96.0262 127.234 96.2771 127.23 96.5572C127.226 96.8457 126.983 97.0715 126.698 97.0715ZM136.147 193.002C135.156 193.002 134.16 192.985 133.168 192.956C132.205 192.926 131.247 192.884 130.285 192.843C130.121 192.839 130.046 192.843 129.912 192.859C129.628 192.88 129.377 192.638 129.368 192.362C129.381 191.639 130.247 191.81 130.737 191.818C131.77 191.873 132.829 191.898 133.858 191.931C134.607 191.944 135.352 191.952 136.101 191.956C136.386 191.956 136.633 192.161 136.645 192.458C136.658 192.734 136.432 193.002 136.143 193.002H136.147ZM149.576 193.19C148.387 193.332 147.182 193.436 145.99 193.319C145.446 193.211 144.345 193.445 144.412 192.609C144.462 192.32 144.734 192.144 145.015 192.182C146.5 192.383 147.998 192.341 149.484 192.149C149.768 192.115 150.028 192.345 150.053 192.621C150.078 192.91 149.86 193.156 149.58 193.19H149.576ZM161.473 191.593C160.109 192.404 158.564 192.629 157.004 192.646C156.748 192.797 156.405 192.721 156.259 192.45C155.932 191.643 157.029 191.542 157.581 191.567C158.51 191.551 159.439 191.425 160.28 191.011C160.715 190.832 161.339 190.305 161.682 190.886C161.812 191.133 161.72 191.467 161.464 191.593H161.473ZM163.674 190.949C163.389 190.949 163.159 190.681 163.172 190.405C163.184 190.112 163.431 189.903 163.716 189.903C164 189.903 164.23 190.171 164.218 190.447C164.205 190.74 163.958 190.949 163.674 190.949ZM173.186 181.867C172.512 183.214 171.662 184.493 170.553 185.517C170.382 185.814 169.993 185.965 169.708 185.727C169.118 185.158 170.043 184.606 170.39 184.2C171.123 183.364 171.729 182.423 172.227 181.433C172.52 180.818 173.462 181.24 173.181 181.863L173.186 181.867ZM174.181 173.752C173.608 173.639 173.784 173.066 173.801 172.648C173.621 170.813 173.441 168.969 173.679 167.129C173.721 166.452 174.751 166.485 174.725 167.171C174.692 167.518 174.663 167.865 174.638 168.216C174.571 169.262 174.65 170.315 174.734 171.36C174.734 172.034 175.27 173.765 174.19 173.756L174.181 173.752Z" fill="#F1BC6F"/>
<path d="M186.351 119.875C186.267 119.766 186.158 119.691 186.037 119.628C185.781 119.432 185.522 119.239 185.25 119.06C183.38 117.588 181.028 116.756 178.659 116.534C178.45 112.541 177.956 108.628 177.768 104.618C177.09 99.2666 176.546 93.6264 173.65 88.9352C172.165 86.5102 169.687 84.7918 167.114 83.6629C165.381 82.9772 163.548 82.718 161.699 82.7054C159.74 82.4002 157.711 82.7514 155.727 82.5173C149.137 82.1828 142.575 81.6393 136.043 80.6651C132.097 80.0128 128.079 79.4526 124.313 78.0436C124.221 77.7091 124.071 77.3537 124.066 77.0903C123.61 73.4235 123.229 69.7191 122.146 66.1652C122.137 66.0523 122.108 65.9561 122.062 65.8767C121.263 61.8587 120.237 57.8867 118.794 54.061C116.982 49.0605 114.693 44.2021 111.956 39.6155C113.149 39.5611 114.308 38.9883 114.76 37.8051C114.931 37.4706 115.069 36.555 114.99 35.8191C115.421 35.9654 115.856 36.1034 116.296 36.2247C118.191 36.6386 119.396 35.1083 119.447 33.3397C119.455 33.0471 119.35 32.608 119.145 32.2986C119.158 32.2986 119.175 32.307 119.187 32.307C121.074 32.6958 123.941 33.3941 125.071 31.3203C125.456 30.5092 125.263 29.606 124.866 28.8409C125.564 28.7657 126.234 28.5733 126.837 28.1469C127.787 27.5699 128.619 26.2445 127.916 25.195C127.51 24.618 126.832 24.3505 126.184 24.1414C124.493 23.4975 122.677 23.4933 120.907 23.2299C118.99 23.0209 117.116 22.4481 115.287 21.8209C110.014 19.7555 105.52 16.118 101.151 12.5641C98.1635 10.1349 95.3932 7.41719 92.125 5.35175C87.2122 2.47518 81.7304 0.0668969 75.9556 0C72.5534 0.0209053 68.5529 0.844573 66.4439 3.74622C66.356 3.86748 66.2346 4.00545 66.1342 4.15179C59.9451 2.27867 53.6347 0.681512 47.1694 0.347027C40.8841 0.0209053 34.536 -0.175604 28.2967 0.827849C22.48 2.09053 16.7554 3.71696 11.3614 6.28412C8.90923 7.54262 6.33149 8.6297 4.19313 10.4025C3.96716 10.3941 3.74538 10.5404 3.67424 10.7662C3.67424 10.7746 3.66587 10.7871 3.66587 10.7955C3.60728 10.8457 3.56125 10.9084 3.52778 10.9753C3.41898 11.1174 3.37713 11.3098 3.48593 11.5188C4.41074 12.9153 4.96311 14.571 5.08446 16.2518C3.7663 15.5619 2.41048 14.8971 0.941667 14.6713C0.866344 14.6713 0.79939 14.6797 0.740805 14.7006C0.627819 14.7048 0.510649 14.7466 0.406033 14.8427C0.230278 15.0225 0.175878 15.2525 0.138216 15.4908C0.00849222 16.4859 -0.012431 17.4935 0.00849221 18.497C0.255386 22.5568 1.84555 26.4034 3.14697 30.2207C5.3481 35.7773 7.6371 41.313 10.4701 46.5811C12.8972 50.7162 15.3578 54.8471 18.0652 58.8107C18.1071 58.9612 18.2159 59.1034 18.3581 59.2372C19.5006 60.8887 20.6806 62.5151 21.9318 64.0914C23.5931 66.253 25.3758 68.3393 27.2882 70.3002C27.2338 70.3671 27.1919 70.4508 27.1752 70.5469C26.0746 72.6834 26.2127 75.1294 26.4052 77.454C26.5015 78.8672 26.7484 80.247 27.0999 81.5975C26.9283 81.5891 26.7484 81.5807 26.6019 81.5222C24.8402 81.1626 23.0742 81.1208 21.279 81.2253C20.4588 81.1919 19.6345 81.0456 18.8143 81.1835C16.111 81.7563 14.2321 83.1612 12.9097 85.0301C12.78 85.1555 12.6629 85.2977 12.5792 85.4607C12.554 85.5067 12.5415 85.5486 12.5331 85.5904C11.2945 87.5847 10.604 90.0223 10.1981 92.5434C8.1811 104.614 10.2232 116.86 11.3782 128.914C11.7548 132.506 12.0477 136.106 12.2067 139.714C12.3281 145.43 12.0226 151.233 11.6251 156.944C11.2861 161.782 10.5119 166.582 10.4031 171.436C10.1855 175.88 9.66665 180.442 10.7839 184.807C13.3491 194.348 23.024 197.776 31.9959 198.324C34.5234 198.533 37.0384 198.37 39.5492 198.111C39.6329 198.19 39.7459 198.236 39.8798 198.236C41.9763 198.893 44.1355 198.947 46.3199 199.156C48.7972 199.386 51.3164 199.645 53.823 199.804C59.4848 200.155 65.155 200.356 70.8294 200.126C75.6877 200.135 80.5419 200.402 85.4003 200.406C90.719 200.582 95.9916 199.829 101.277 199.411C101.352 199.403 101.415 199.382 101.469 199.357C107.307 199.842 113.182 200.252 119.011 200.653C126.284 200.879 133.561 200.858 140.838 201.004C144.337 201.013 147.827 200.862 151.3 200.431C157.062 200.026 162.85 198.884 168.072 196.338C172.83 194.252 176.944 190.581 179.312 185.936C181.195 182.244 182.011 178.071 182.367 173.969C182.735 171.595 182.271 169.291 181.911 166.945C181.714 163.538 180.957 160.134 181.409 156.718C181.413 156.681 181.409 156.643 181.4 156.601C186.853 154.243 190.816 149.096 192.791 143.565C194.519 138.577 194.444 133.004 192.238 128.174C190.937 124.972 189.041 122.041 186.351 119.871V119.875ZM118.995 57.7613C119.505 59.5257 119.965 61.3026 120.38 63.0921C120.338 63.2761 120.321 63.4726 120.309 63.6356C120.212 64.2712 119.836 64.8565 119.313 65.2328C118.145 65.9729 116.718 65.6175 115.429 65.421C111.621 64.4844 107.495 63.9409 105.646 60.2365C103.75 55.2066 107.817 50.4319 101.076 47.3964C97.7324 46.1672 94.0751 47.1539 90.6646 47.7393C82.9648 49.9092 74.9094 48.5922 77.4997 38.6246C78.0688 35.9738 79.3577 33.5028 80.5336 31.0611C81.5546 29.0541 82.0358 26.8465 82.743 24.7226C83.2117 22.908 83.5549 21.0098 83.5883 19.1241C83.6804 19.0113 83.7223 18.8566 83.672 18.6768C83.7055 17.8447 84.0487 16.858 84.8019 16.3981C85.8188 15.75 87.183 15.8169 88.317 16.1556C95.9707 21.4112 102.834 27.8375 108.069 35.5431C112.793 42.3666 116.438 49.8591 118.986 57.7571L118.995 57.7613ZM85.8564 14.9389C85.8564 14.9389 85.8564 14.9389 85.8522 14.9389H85.8564ZM107.591 33.068C107.591 33.068 107.604 33.068 107.612 33.068C107.612 33.0721 107.608 33.0763 107.604 33.0847C107.604 33.0805 107.596 33.0721 107.591 33.068ZM111.621 38.5744C111.508 38.5493 111.404 38.5451 111.316 38.5577C110.533 37.2908 109.717 36.049 108.864 34.8324C108.851 34.7947 108.838 34.7529 108.813 34.7153C108.613 34.3641 108.282 33.7495 108.654 33.4275C108.897 33.2227 109.203 33.2603 109.491 33.3146C110.872 34.0923 112.291 34.7947 113.76 35.3759C113.776 35.4679 113.81 35.5599 113.881 35.6351C114.237 37.3201 113.467 38.6706 111.617 38.5786L111.621 38.5744ZM117.944 34.4602C117.869 34.6484 117.718 34.8324 117.622 35.0205C117.317 35.2296 116.927 35.3132 116.446 35.1919C113.203 34.2679 110.207 32.6206 107.349 30.8018C106.332 29.9363 105.307 29.0458 104.52 27.9545C104.026 27.3859 103.658 26.7337 103.323 26.0647C103.783 26.3156 104.248 26.5664 104.721 26.7964C108.307 28.7949 112.094 30.4381 116.049 31.5461C116.078 31.5628 116.103 31.5837 116.132 31.592C116.53 31.8513 116.94 32.0938 117.329 32.3614C118.036 32.792 118.216 33.716 117.944 34.4561V34.4602ZM123.736 31.3245C122.208 32.098 120.434 31.4541 118.857 31.1698C117.886 30.9565 116.873 30.6973 115.911 30.4088C112.094 29.4179 108.571 27.6786 105.106 25.8222C102.834 24.6849 100.67 23.2885 98.5024 21.938C98.1676 21.662 97.8371 21.3819 97.4563 21.1603C94.9957 19.605 92.6523 17.8865 90.3926 16.0427C89.3213 15.1856 88.2626 14.3159 87.3671 13.2665C85.417 11.4226 83.0946 9.70841 80.3453 9.43664C80.0481 9.40737 79.6715 9.34884 79.4497 9.54535C78.4119 8.99345 77.3658 8.46245 76.3071 7.95655C76.1564 7.87293 75.9974 7.7893 75.8384 7.70568C75.1856 6.53081 75.7756 5.85348 76.8343 5.7155C78.7132 5.66951 80.6842 6.22141 82.425 6.85275C86.7436 8.48336 90.4888 11.3181 94.0374 14.2156C97.1089 16.511 99.9503 19.1032 103.118 21.2732C108.826 25.2034 115.329 28.3141 122.33 28.8116C122.782 28.8367 123.246 28.8702 123.711 28.8785C123.74 28.9496 123.773 29.0207 123.807 29.0876C124.221 29.7566 124.51 30.8018 123.736 31.3245ZM82.3497 2.09471C87.2876 3.5539 91.9074 6.06253 95.8452 9.41573C101.08 13.9145 106.34 18.543 112.496 21.7498C114.63 22.7993 116.906 23.5101 119.221 24.0285C121.501 24.4926 123.899 24.3755 126.096 25.2118C127.9 25.726 126.962 26.9678 125.799 27.5239C124.514 28.0758 123.058 27.7538 121.702 27.7204C114.91 27.018 108.6 23.8864 103.089 19.9771C96.1548 15.1396 87.116 5.36429 77.9977 4.7455C77.9391 4.71205 77.868 4.68696 77.7843 4.67442C77.257 4.60752 76.7716 4.64097 76.3405 4.74132C75.9263 4.7664 75.512 4.80403 75.0977 4.87093C74.7044 4.95873 74.3236 5.09252 73.9511 5.24722C73.5285 5.38102 73.1016 5.50645 72.6664 5.59425C71.5449 5.68623 70.2896 5.34339 69.507 4.49881C69.1555 4.04308 68.9923 3.43265 68.8877 2.85984C68.8877 2.85984 68.8877 2.85566 68.8877 2.85148C72.6246 0.326122 78.2571 0.760952 82.3413 2.08217L82.3497 2.09471ZM9.70849 42.7178C9.68338 42.6969 9.66246 42.6802 9.63735 42.6593C7.68731 38.6831 6.03856 34.5522 4.34797 30.459C3.02562 26.6877 1.50659 22.9247 1.06302 18.9109C1.02954 17.874 1.02118 16.8204 1.15508 15.7877C6.53653 17.297 15.1569 23.6104 18.7348 27.7622C18.7766 27.8207 18.831 27.8667 18.8896 27.9002C19.7977 29.8987 20.5802 31.96 21.3251 34.0171C21.4297 34.2846 21.7435 34.4143 22.003 34.3139C22.2666 34.2094 22.4047 33.9 22.2959 33.6366C21.982 32.9049 21.7059 32.1565 21.4548 31.3997C19.6721 26.4493 17.1823 21.6537 13.4872 17.8406C11.0559 15.1396 8.29408 12.6686 5.00077 11.084C5.02169 11.0673 5.04262 11.0505 5.06354 11.0338C8.52424 8.50426 12.5206 6.86529 16.4709 5.21796C22.5888 3.16506 28.8783 1.24177 35.3896 1.20414C43.4702 0.936556 51.6344 1.30449 59.5016 3.37829C61.4641 3.92183 63.4602 4.44864 65.4396 5.02145C65.4981 5.22632 65.6739 5.42701 65.8036 5.62352C66.9586 7.944 67.3896 10.5404 67.7704 13.0825C68.2223 15.3277 68.0173 17.6231 67.9713 19.8935C67.7955 23.9365 66.5569 27.8249 64.9876 31.5252C63.523 35.3048 61.9119 38.98 59.6648 42.3792C58.0662 44.8167 56.0199 46.9031 53.7519 48.7302C53.0739 48.8807 52.3625 48.9016 51.6637 48.9267C49.8267 48.9183 48.5085 47.9149 47.2908 46.7066C47.1485 46.5184 46.9978 46.3344 46.8388 46.163C46.7342 46.046 46.617 45.9247 46.4748 45.862C45.6295 44.9631 44.7883 44.0516 43.8091 43.4119C38.4821 38.8085 32.9877 43.1276 27.8029 45.5317C24.7607 46.8404 21.3836 47.3337 18.0903 46.9992C15.5461 46.5769 13.052 45.5442 10.9806 43.9471C10.5454 43.5624 10.1604 43.0816 9.70431 42.7136L9.70849 42.7178ZM19.0988 58.4846C18.0652 56.9585 17.0693 55.4157 16.111 53.8562C15.2155 52.4304 14.3116 51.0089 13.437 49.5706C13.4621 49.4451 13.483 49.3114 13.5081 49.1859C13.6672 48.5964 14.1484 48.2494 14.6882 48.0069C15.3871 47.7644 16.1612 47.9023 16.881 47.9651C17.2032 48.011 17.7095 48.1365 18.0443 48.0236C19.5591 48.2159 21.1116 48.1741 22.6307 47.986C25.9282 47.71 28.8993 46.2174 31.7867 44.7164C35.5821 42.7053 39.478 40.9994 43.1856 44.2439C44.3406 45.0509 45.324 46.1756 46.3576 47.2208C47.7971 48.8932 48.2198 51.4771 46.8263 53.3168C44.6503 54.5419 42.4324 55.6749 40.0513 56.4944C35.6658 58.3048 31 59.3333 26.355 60.2824C26.1792 60.3117 26.0035 60.3452 25.8277 60.3744C23.4341 60.6755 20.8606 60.2281 19.0988 58.4804V58.4846ZM24.61 65.8014C24.61 65.8014 24.61 65.7805 24.61 65.768C24.5891 65.5129 24.4886 65.2788 24.4217 65.0363C24.384 64.6809 24.4217 64.3088 24.4426 63.9492C24.8694 61.6538 27.6564 61.3737 29.4851 60.6838C29.5604 60.6796 29.6232 60.6587 29.6818 60.6337C34.3686 59.6427 38.9717 58.2504 43.353 56.2979C44.6084 55.6875 45.8596 55.0478 47.0899 54.3704C47.2447 54.3495 47.387 54.2617 47.5209 54.1279C50.5632 52.4262 53.4715 50.4904 56.0492 48.1448C60.6314 44.085 63.3765 38.4991 65.586 32.8882C67.239 28.9078 68.7371 24.8062 68.9923 20.4663C69.1806 17.4183 69.1932 14.3745 68.578 11.3725C68.5404 11.1801 68.4651 10.7746 68.3563 10.2561C68.4609 10.0094 68.5111 9.6875 68.6241 9.47427C69.4903 7.13706 71.9341 7.31684 74.0306 8.06943C74.4072 8.23668 74.7839 8.41228 75.1605 8.5837C75.1647 8.59207 75.1689 8.59625 75.173 8.60461C75.3028 8.76767 75.4701 8.81784 75.625 8.79694C75.7714 8.86802 75.9221 8.93909 76.0686 9.01017C76.1941 9.12724 76.328 9.18578 76.4535 9.19832C77.2612 9.59134 78.0604 9.9969 78.8555 10.4192C78.8932 10.4777 78.9434 10.5321 79.0145 10.5822C79.2029 10.7119 79.3953 10.8247 79.546 11.0004C80.2825 11.7697 80.9102 12.6477 81.4416 13.5801C82.1112 15.1103 82.4878 16.7869 82.5673 18.4301C82.5338 20.6753 82.2074 23 81.5002 25.1407C80.8976 27.2145 80.3201 29.3092 79.2865 31.2199C78.4496 33.1558 77.3281 34.9745 76.8553 37.0525C75.1312 42.1952 75.5748 48.1657 81.8685 49.3908C87.8985 50.7078 93.6984 46.9909 99.7453 48.0612C107.148 50.2981 102.398 55.9132 104.804 60.8845C106.901 64.8022 111.027 65.4084 114.927 66.3575C114.986 66.391 115.048 66.4119 115.128 66.4244C115.191 66.437 115.254 66.4453 115.316 66.4537C115.927 66.6084 116.534 66.7714 117.12 66.9638C119.706 67.8752 120.986 68.816 121.957 71.2995C122.723 76.2457 123.192 81.2379 123.451 86.2384C123.455 86.3011 123.472 86.3639 123.501 86.4182C123.522 86.7025 123.535 86.9827 123.527 87.2753C121.765 87.3924 120.003 87.4927 118.237 87.5638C108.123 87.7436 98.0337 87.0077 87.9739 85.9332C85.5928 85.6698 83.2452 85.1806 80.8893 84.7625C79.4623 82.6427 78.0186 80.5229 76.713 78.3446C76.2318 77.6296 75.7547 76.8979 75.3069 76.1495C75.1647 74.5816 75.7882 73.1935 77.098 72.257C77.7047 71.6884 78.4496 71.3539 79.2405 71.0905C79.32 71.0779 79.3912 71.0445 79.4581 71.0068C79.6757 70.9232 79.8347 70.7727 79.8054 70.4675C79.7761 70.2459 79.6004 70.0703 79.387 70.0243C79.2572 69.9825 79.1233 69.9908 79.002 70.0452C78.3366 70.1497 77.6838 70.3086 77.0226 70.434C74.0934 70.9483 71.093 70.9065 68.147 70.5302C62.6484 69.8111 57.4218 67.871 52.6638 65.0196C49.9355 63.46 47.1778 61.8754 44.826 59.7724C44.3531 59.3835 44.0309 58.8316 43.5874 58.4428C43.148 58.2421 42.7044 58.7355 42.8927 59.1577C43.3572 59.7724 43.8845 60.3284 44.4494 60.8427C44.3783 60.9305 44.3406 61.0434 44.3364 61.1605C44.2904 61.2148 44.2569 61.2775 44.2402 61.3444C44.1858 61.5326 44.2276 61.6747 44.3197 61.7834C44.2987 62.0678 44.282 62.3521 44.2904 62.6364C44.4829 64.4426 45.0394 66.3575 45.6044 68.0927C47.8682 73.5071 50.9984 78.5244 54.2373 83.4079C54.5135 83.7758 54.7896 84.1395 55.0658 84.5075C54.8901 84.474 54.7227 84.4406 54.5846 84.3862C53.5175 84.219 52.4839 83.9347 51.4587 83.6085C45.8178 82.049 40.6204 79.2561 35.737 76.0826C31.5565 73.2019 27.8949 69.6689 24.6184 65.7889L24.61 65.8014ZM78.5082 118.65C78.186 115.694 77.8303 112.721 76.9264 109.874C74.265 100.308 68.7078 91.8452 62.7154 84.035C59.3718 79.369 55.681 74.845 53.7895 69.3261C53.6514 68.8745 53.5259 68.4355 53.4213 67.9881C53.4296 67.9505 53.4422 67.9129 53.4464 67.8711C54.2624 67.315 55.4801 68.0258 56.2877 68.3561C57.9825 69.1714 59.2756 70.5511 60.2924 72.1106C60.3092 72.1399 60.3259 72.1608 60.3427 72.1859C61.9286 75.861 64.272 79.1892 66.3895 82.5758C69.0886 86.4767 71.4529 90.6871 73.8967 94.7636C76.0267 98.2966 78.0814 101.825 79.5711 105.693C80.6089 108.339 81.3161 111.103 81.9605 113.867C82.8477 118.044 84.0445 124.846 81.1069 128.379C79.977 129.558 79.0815 129.726 77.9433 128.455C77.847 128.333 77.7424 128.191 77.6252 128.087C77.688 127.848 77.7508 127.622 77.8219 127.413C78.7593 124.57 78.7132 121.598 78.504 118.65H78.5082ZM59.9577 89.2488C58.5809 87.3004 57.0494 85.4649 55.6098 83.5667C53.7016 80.8156 51.9106 77.9725 50.2535 75.0583C48.0984 71.287 46.0103 67.3777 45.3784 63.0294C46.617 62.8747 47.7887 63.7234 48.7972 64.3464C50.3623 65.3833 51.5089 66.9512 52.4337 68.5609C52.4504 68.5986 52.4839 68.6236 52.509 68.6529C53.6096 72.5956 55.7563 76.1872 58.1666 79.4693C60.5812 83.0901 63.3891 86.4517 65.8245 90.0557C71.9132 98.7105 76.8678 108.574 77.4955 119.306C77.6127 121.723 77.7424 124.098 76.985 126.452C76.4452 128.262 76.1857 130.206 75.2693 131.875C73.0263 134.517 72.4698 130.056 72.4279 128.446C72.3693 126.707 72.5451 125.039 72.6832 123.291C73.5912 110.426 67.3017 99.2959 59.9577 89.2446V89.2488ZM81.5295 108.114C79.9645 103.021 77.3198 98.3593 74.5495 93.827C72.6413 90.6536 70.8545 87.4049 68.8166 84.3151C66.9167 81.5724 65.1257 78.7042 63.4351 75.8151C62.6233 74.4855 61.8617 73.1225 61.2507 71.6925C61.2507 71.6884 61.2507 71.68 61.2465 71.6758C61.2465 71.6758 61.2424 71.6674 61.2382 71.6633C61.1587 71.4709 61.0792 71.2786 61.0038 71.0821C61.3721 70.6222 62.1044 70.9149 62.6233 70.9399C64.0921 71.1197 65.473 71.8138 66.5234 72.8716C66.5987 73.0472 66.6782 73.2228 66.7577 73.3984C66.7661 73.4277 66.7703 73.4528 66.7786 73.482C66.8037 73.5615 66.8414 73.6284 66.8833 73.6827C67.8667 75.8151 69.0551 77.8596 70.2393 79.8832C76.2945 89.2404 82.81 98.7063 85.7351 109.594C86.3502 112.199 87.6223 117.751 85.5342 119.791C85.1325 120.159 84.6889 120.247 84.1658 120.134C84.0989 120.126 84.0361 120.126 83.9733 120.143C83.7725 116.07 82.6133 111.99 81.5295 108.11V108.114ZM86.5134 108.427C86.4799 108.31 86.4465 108.202 86.4172 108.097C83.3163 97.8241 77.303 88.7972 71.478 79.8916C70.1305 77.6798 68.7998 75.4095 67.7369 73.0305C67.5737 72.0312 69.2308 72.1441 69.9464 72.1274C70.7959 72.1775 71.6537 72.5329 72.3149 73.0723C72.4572 73.1894 72.6037 73.365 72.7585 73.5071C73.2104 74.5357 73.7252 75.5349 74.2901 76.5091C74.3026 76.5802 74.3068 76.6471 74.3236 76.7182C74.378 76.8896 74.4867 76.9899 74.6081 77.0443C75.0098 77.7091 75.4367 78.3613 75.8802 79.001C77.8094 82.0323 79.772 85.0343 81.7806 88.0405C84.3541 92.0334 86.8398 96.2061 87.9069 100.893C88.4216 102.749 88.8443 104.706 88.3547 106.625C88.1119 107.503 87.6014 108.147 86.7017 108.419C86.6348 108.419 86.5678 108.419 86.505 108.44L86.5134 108.427ZM35.3394 96.1559C34.6071 94.8848 33.8539 93.6264 33.1132 92.3637C33.0965 92.2842 33.0588 92.2006 32.9918 92.1212C32.9709 92.0961 32.95 92.071 32.9333 92.0459C30.9832 88.6927 29.1671 85.2768 28.2004 81.4595C27.761 80.0045 27.4305 78.5913 27.4305 77.0485C27.3091 75.4931 27.2045 73.8876 27.6062 72.3699C30.0375 72.834 32.8035 75.5349 33.812 77.7551C33.7953 78.2693 33.812 78.7836 33.8497 79.2937C34.0882 82.5716 35.4022 85.6531 36.8877 88.5589C37.959 90.754 39.1935 92.995 40.4907 95.0897C44.0477 100.964 48.1779 107.043 48.429 114.143C48.6382 115.92 48.2783 117.776 47.7804 119.486C47.4456 120.728 47.069 121.978 46.1944 122.961C44.4703 124.533 43.1187 123.224 42.7337 121.338C42.5119 119.967 42.6667 118.621 42.7797 117.241C43.6543 108.967 39.5115 102.829 35.3436 96.1559H35.3394ZM38.0971 88.6509C36.5906 85.7409 35.1427 82.5466 34.8875 79.231C35.5236 79.1474 36.1722 79.0596 36.8124 79.1515C37.4192 79.2979 37.959 79.6198 38.4946 79.9292C39.8965 80.7445 40.7041 81.9738 41.675 83.1988C41.675 83.1988 41.675 83.1988 41.6792 83.1988C41.8884 85.0385 42.5412 86.8154 43.2317 88.5255C45.3491 94.0403 48.9019 98.8652 51.0528 104.351C51.6972 106.412 53.3585 112.617 49.9773 112.863C49.7597 112.763 49.5672 112.558 49.3496 112.483C48.3411 103.59 41.9009 96.5071 38.0971 88.6509ZM34.9251 76.8394C34.9251 76.8394 34.9251 76.8185 34.9251 76.806C34.9419 76.8143 34.9544 76.8269 34.9712 76.8352C34.9544 76.8352 34.9377 76.8352 34.9251 76.8352V76.8394ZM50.99 101.508C50.3121 100.103 49.5212 98.744 48.7721 97.3767C47.3075 94.5964 45.7843 91.8954 44.5498 88.9896C43.6627 86.8781 42.7839 84.6789 42.6458 82.3835C43.1856 82.0072 43.9054 82.3793 44.4578 82.5633C45.9349 82.9772 46.8639 84.3193 47.5837 85.5862C47.5837 85.5904 47.5962 85.6071 47.6088 85.6238C47.6213 85.6405 47.6339 85.6573 47.6423 85.674C48.1863 88.0739 49.132 90.386 50.3246 92.5309C51.6093 94.8681 53.3125 97.1217 53.6305 99.8519C53.8899 101.541 52.3542 102.837 50.9858 101.503L50.99 101.508ZM52.9442 94.6214C52.8605 94.5671 52.7685 94.5127 52.6722 94.4709C51.8646 93.0786 50.9774 91.7114 50.333 90.2982C49.4961 88.2955 48.6382 86.1799 48.4039 83.9807C48.4039 83.9096 48.3997 83.826 48.3955 83.7423C49.5212 84.1395 50.6594 84.4949 51.8102 84.8169C51.6344 85.4691 52.0864 86.7234 52.2496 87.1499C52.6178 88.446 54.639 91.494 54.7687 93.3379C54.752 93.5051 54.7311 93.6682 54.7018 93.8312C54.4172 94.3246 53.9234 94.6758 53.3711 94.726C53.2204 94.7134 53.0739 94.6842 52.9442 94.6256V94.6214ZM181.413 172.874C181.413 172.874 181.417 172.907 181.421 172.92C181.363 174.383 181.162 175.847 180.873 177.273C180.668 178.669 180.446 180.07 179.952 181.403C178.283 187.922 173.177 193.123 167.038 195.682C162.13 197.939 156.681 199.006 151.3 199.382C144.471 200.268 137.579 199.875 130.716 199.796C118.794 199.93 106.922 198.763 95.0501 197.743C90.2963 197.3 85.5091 196.978 80.7344 196.668C76.6669 196.384 72.4949 195.849 68.3814 195.623C67.444 195.623 66.5066 195.565 65.5693 195.489C65.5023 195.489 65.4312 195.481 65.3559 195.473C65.2764 195.422 65.1843 195.389 65.0839 195.389C63.8201 195.314 62.5522 195.259 61.2842 195.301C58.9492 195.238 56.6309 195.598 54.3042 195.74C50.8728 195.97 47.4289 196.142 44.01 196.539C38.0511 197.354 31.9331 197.914 26.037 196.388C22.5595 195.648 19.057 194.281 16.3704 191.889C10.8216 187.131 10.8049 180.053 11.3489 173.334C11.5456 165.896 12.7926 158.537 13.0269 151.099C13.1817 147.411 13.3617 143.724 13.2613 140.036C13.0311 134.028 12.3532 128.053 11.7088 122.078C11.1857 118.483 10.9974 114.849 10.7295 111.229C10.3111 105.475 10.1186 99.622 11.0601 93.9107C11.4033 91.1804 12.0728 88.1492 13.6211 85.8329C14.91 84.5242 17.3496 84.7082 19.057 84.8545C24.2543 85.4649 28.8239 88.6885 32.088 92.6647C32.1884 92.8361 32.2846 93.0117 32.3851 93.1832C35.1846 98.3259 38.8922 102.942 40.7836 108.549C41.5201 110.66 41.88 113.039 41.8005 115.301C41.8842 118.324 40.5284 122.476 43.579 124.462C46.073 125.507 48.0189 122.864 48.5127 120.69C49.1739 118.545 49.7472 116.288 49.471 114.03C49.471 113.942 49.4626 113.85 49.4584 113.762C49.5337 113.8 49.6091 113.829 49.6844 113.858C51.0569 114.147 52.4253 113.001 52.7768 111.709C53.1283 110.702 53.1827 109.648 52.9777 108.607C52.8814 107.039 52.5467 105.505 52.0445 104.02C51.9315 103.69 51.8144 103.368 51.6846 103.05C53.1493 103.356 54.6013 102.147 54.6767 100.63C54.7352 98.8736 54.1745 97.289 53.3962 95.7671C54.7185 95.813 55.9153 94.9726 55.8358 93.5595C55.8735 93.2082 55.8567 92.8445 55.8358 92.4975C55.8232 91.1595 55.0031 87.3171 57.2795 87.5847C57.2753 87.5847 57.2711 87.5847 57.2711 87.5805C57.2586 87.5764 57.246 87.568 57.2335 87.5638C57.3004 87.6014 57.3632 87.6224 57.426 87.6349C59.376 90.2104 61.2926 92.811 63.0208 95.5496C68.1554 103.301 71.9718 112.245 71.7123 121.698C71.7333 124.6 70.2477 132.159 73.4155 133.635C75.9849 134.074 76.7632 131.574 77.3239 129.337C77.914 129.897 78.8304 130.382 79.2154 130.365C81.2784 130.558 82.8351 128.166 83.3708 126.414C83.8352 124.679 84.0194 122.919 84.0026 121.154C84.1324 121.196 84.2788 121.213 84.4127 121.213C89.0117 121.054 87.7772 113.419 86.7854 109.452C86.8524 109.443 86.9193 109.431 86.9821 109.41C90.3507 108.247 89.836 104.192 89.0828 101.194C89.0953 101.14 89.1037 101.081 89.0995 101.014C88.9865 100.475 89.0116 99.9146 88.8819 99.3753C88.3965 96.7078 88.43 93.6932 89.6603 91.2181C90.0285 90.6578 90.4051 90.1017 90.8027 89.5624C92.0371 88.3749 93.8282 87.9819 95.5188 87.8021C95.6778 87.823 95.8493 87.8021 95.9958 87.7394C103.578 88.3708 111.19 88.7972 118.798 88.5798C125.97 88.283 133.13 87.5262 140.274 86.8279C145.617 86.1799 150.915 85.1388 156.221 84.2482C158.104 83.9054 159.941 83.7089 161.707 83.7465C161.82 83.7674 161.933 83.7967 162.046 83.8301C162.188 83.8552 162.306 83.8301 162.406 83.7758C166.114 83.9974 169.482 85.3437 172.24 88.6843C174.667 91.9874 175.378 96.0555 176.144 99.9899C176.328 101.516 176.538 103.046 176.713 104.572C176.868 106.094 176.81 107.629 177.065 109.176C177.278 112.75 177.726 116.258 177.747 119.854C177.747 119.904 177.764 119.95 177.78 119.996C177.768 120.306 177.776 120.615 177.78 120.92C177.755 121.744 177.45 122.568 176.985 123.27C173.106 126.615 167.633 127.046 162.745 127.802C159.69 128.3 156.602 128.626 153.526 129.006C149.605 129.404 145.655 129.483 141.759 130.119C139.244 130.495 136.608 130.834 134.331 132.021C129.933 134.425 128.598 139.48 128.908 144.175C129.004 146.83 129.201 149.473 129.632 152.094C129.963 154.678 130.611 157.663 133.432 158.546C137.256 159.938 141.345 160.465 145.396 160.657C151.338 160.912 157.267 160.201 163.184 159.704C164.034 159.608 164.883 159.52 165.733 159.432C166.034 159.49 166.423 159.407 166.712 159.445C169.286 159.394 171.897 160.072 174.056 161.472C174.064 161.477 174.069 161.481 174.073 161.485C174.671 161.916 175.249 162.375 175.805 162.865C175.939 162.99 176.069 163.124 176.194 163.262C178.609 165.975 180.626 169.283 181.417 172.853L181.413 172.874ZM184.936 153.198C181.091 156.639 175.768 157.157 170.859 157.852C165.624 158.475 160.372 158.934 155.121 159.357C150.409 159.771 145.634 159.863 140.93 159.24C138.244 158.834 135.474 158.399 132.992 157.203C131.155 156.121 130.996 153.808 130.666 151.914C130.335 149.82 130.117 147.717 130.03 145.597C129.594 140.902 130.26 135.533 134.771 132.987C137.223 131.716 140.135 131.44 142.847 131.038C146.324 130.495 149.877 130.445 153.384 130.085C156.543 129.709 159.699 129.358 162.837 128.86C166.85 128.287 170.926 127.806 174.638 126.05C175.404 125.695 176.048 125.348 176.584 124.984C177.132 124.888 177.751 124.094 178.04 123.717C178.044 123.709 178.052 123.701 178.057 123.696C178.76 122.672 179.534 121.702 180.622 121.062C181.651 120.511 182.84 120.03 184.045 120.092C184.522 120.18 185.003 120.314 185.447 120.515C187.589 122.221 189.41 124.382 190.481 126.916C191.673 129.253 192.552 131.728 192.883 134.341C193.502 141.366 190.477 148.758 184.936 153.198Z" fill="black"/>
<path d="M178.065 123.668C178.074 123.655 178.082 123.642 178.095 123.63C178.086 123.642 178.078 123.655 178.065 123.668Z" fill="black"/>
<path d="M178.061 123.671C178.061 123.671 178.053 123.684 178.048 123.688C178.048 123.688 178.048 123.693 178.044 123.697C178.048 123.689 178.057 123.684 178.061 123.676V123.671Z" fill="black"/>
<path d="M146.868 139.731C144.546 138.748 142.186 140.274 140.909 142.202C138.378 146.011 139.311 150.907 144.282 151.71C149.157 152.705 152.61 148.147 150.948 143.623C150.258 141.8 148.986 139.906 146.868 139.731ZM148.982 149.473C148.187 150.033 147.333 150.673 146.333 150.756C143.178 151.137 139.926 149.071 140.671 145.589C140.826 144.761 141.14 143.895 141.592 143.109C141.822 142.875 141.997 142.499 142.24 142.315C142.834 141.838 143.466 141.382 144.157 141.052C144.927 140.818 145.789 140.684 146.584 140.889C146.76 140.935 146.91 140.902 147.023 140.822C147.341 140.889 147.655 140.985 147.956 141.136C149.421 142.231 150.321 144.159 150.308 145.982C150.275 147.257 149.848 148.515 148.977 149.473H148.982Z" fill="black"/>
<path d="M47.6261 85.65C47.6261 85.65 47.6132 85.6286 47.6089 85.62C47.6089 85.6157 47.6003 85.6115 47.6003 85.6072L47.6303 85.65H47.6261Z" fill="black"/>
<path d="M47.5876 85.5911C47.5876 85.5911 47.5876 85.591 47.5876 85.5862C47.5876 85.5862 47.5876 85.5911 47.5925 85.5959L47.5876 85.5911Z" fill="black"/>
<path d="M43.8424 36.9523C52.7682 37.6672 59.1415 27.5491 57.0533 19.4128C54.1994 8.15317 41.0805 8.19498 36.0046 17.8574C31.9664 24.9652 34.7617 36.0115 43.8424 36.9481V36.9523ZM44.0977 12.2046C48.027 10.9127 52.5548 12.6896 54.6346 16.2519C54.6304 16.2435 54.6262 16.2352 54.6179 16.2268C59.3214 23.6565 54.1324 35.5558 44.989 35.9446C38.4819 36.1579 34.5148 29.5602 35.3015 23.5896C35.8246 18.6016 39.1514 13.7056 44.0935 12.2004L44.0977 12.2046Z" fill="black"/>
<path d="M41.6455 32.9216C42.1728 33.0345 42.6833 33.0847 43.1813 33.0847C48.0271 33.0847 51.492 28.0716 52.1281 23.2843C52.0067 23.3261 51.877 23.3512 51.7473 23.3679C51.651 23.3804 51.5506 23.3846 51.4543 23.3846C51.3581 23.4097 51.2577 23.4264 51.1614 23.4306C51.1154 23.4306 51.0735 23.4348 51.0275 23.4348C50.6132 23.4348 50.2157 23.2926 49.9311 22.979C49.6215 22.6362 49.521 22.101 49.5629 21.6537C49.6131 21.1227 49.7888 20.6126 50.1152 20.1861C50.3161 19.9227 50.5672 19.7136 50.8559 19.5589C51.0024 19.4795 51.1698 19.4293 51.3288 19.4001C51.559 19.3583 51.7765 19.3708 52.0025 19.4126C50.7973 13.5884 44.7924 11.6818 40.3399 16.281C35.9837 20.5248 34.8078 30.5635 41.6539 32.9216H41.6455Z" fill="black"/>
<path d="M80.931 34.8074C80.592 35.0666 80.4832 35.4972 80.2907 35.8568C79.8555 36.5132 79.6044 37.2909 79.3199 38.0268C79.0939 38.5703 78.4788 41.0371 79.4203 41.0497C79.6965 41.0664 79.9643 40.8448 79.9727 40.5605C79.8848 38.7752 80.7594 37.1613 81.5712 35.6352C82.0525 35.2087 81.4582 34.4436 80.9268 34.8115L80.931 34.8074Z" fill="black"/>
<path d="M79.7342 42.1199C79.4496 42.1199 79.1985 42.3122 79.1818 42.6091C79.1651 42.8808 79.3868 43.161 79.6714 43.161C79.956 43.161 80.207 42.9686 80.2238 42.6718C80.2405 42.4 80.0187 42.1199 79.7342 42.1199Z" fill="black"/>
<path d="M101.938 60.7088C102.022 60.9806 102.344 61.1186 102.603 61.0308C103.365 60.6586 102.595 59.7263 102.608 59.1117C102.444 57.8155 102.779 56.5947 102.863 55.286C102.959 54.7425 102.754 53.6972 102.001 54.0066C101.599 54.2198 101.737 54.5836 101.833 54.9181C101.708 56.8497 101.172 58.8315 101.938 60.7088Z" fill="black"/>
<path d="M103.264 62.8663C103.549 62.8663 103.8 62.674 103.817 62.3771C103.834 62.1053 103.612 61.8252 103.327 61.8252C103.043 61.8252 102.792 62.0175 102.775 62.3144C102.758 62.5861 102.98 62.8663 103.264 62.8663Z" fill="black"/>
<path d="M109.148 86.0128C110.111 86.1006 110.964 86.2511 111.964 86.2594C112.818 86.2344 113.68 86.2636 114.534 86.2134C115.354 86.0462 115.002 84.9508 114.224 85.1975C112.533 85.2267 110.906 85.2184 109.19 84.9675C108.508 84.9424 108.466 85.9709 109.148 86.0128Z" fill="black"/>
<path d="M106.859 85.0302C106.612 84.3695 105.474 84.8002 105.729 85.4566C105.976 86.1172 107.114 85.6824 106.859 85.0302Z" fill="black"/>
<path d="M56.3589 43.0899C57.0368 43.8676 58.221 41.6851 58.6688 41.221C59.3551 40.205 60.1334 39.1095 60.7193 38.0225C60.9955 37.3953 60.0581 36.973 59.7652 37.5876C59.1877 38.6371 58.4763 39.628 57.8109 40.6273C57.4259 41.1541 56.9991 41.706 56.5137 42.237C56.2501 42.446 56.1036 42.8181 56.3589 43.0941V43.0899Z" fill="black"/>
<path d="M55.1746 43.9177C54.89 43.9177 54.6432 44.1268 54.6306 44.4194C54.6222 44.6954 54.8482 44.963 55.1328 44.963C55.4173 44.963 55.6642 44.7498 55.6768 44.4613C55.6851 44.1853 55.4592 43.9177 55.1746 43.9177Z" fill="black"/>
<path d="M43.5999 78.7082C44.2485 78.9131 44.5707 77.9347 43.9221 77.7131C42.968 77.4748 42.0934 76.9815 41.2062 76.5675C40.4572 76.1662 39.7332 75.7188 39.0428 75.2212C38.8084 75.0582 38.4737 75.1334 38.3188 75.3718C38.1598 75.6101 38.231 75.932 38.4695 76.0951C40.0387 77.1905 41.7586 78.1647 43.5999 78.7082Z" fill="black"/>
<path d="M36.5906 74.6652C37.3229 74.6652 37.3019 73.6074 36.5696 73.6158C35.7411 73.5405 35.7704 74.7237 36.5906 74.6652Z" fill="black"/>
<path d="M31.0417 47.9483C31.5773 47.5218 30.937 46.7107 30.3972 47.1246C29.0288 47.9232 27.5517 48.5754 25.9866 48.8681C25.6267 48.9141 25.0283 49.0186 25.1037 49.5329C25.225 50.9252 30.393 48.4416 31.0417 47.9483Z" fill="black"/>
<path d="M23.4465 49.2402C23.162 49.2402 22.9234 49.4744 22.9192 49.7587C22.9151 50.043 23.1536 50.2855 23.4381 50.2855C23.7227 50.2855 23.9612 50.0514 23.9654 49.767C23.9696 49.4827 23.7311 49.2402 23.4465 49.2402Z" fill="black"/>
<path d="M29.962 4.30242C30.6608 4.18117 31.3597 4.04737 32.0627 3.95539C33.1674 3.95539 34.2973 3.8216 35.4062 3.90522C35.6238 3.98884 35.9042 3.92612 36.0339 3.71707C36.649 2.36241 33.7742 2.9394 33.0879 2.8934C31.9706 2.82651 30.8784 3.08991 29.7862 3.27388C29.5059 3.32823 29.3092 3.59164 29.3594 3.88013C29.4054 4.15608 29.69 4.36095 29.9662 4.3066L29.962 4.30242Z" fill="black"/>
<path d="M27.4847 5.00474C27.7692 5.00474 27.9952 4.73715 27.9868 4.4612C27.9743 4.16853 27.7274 3.95947 27.4428 3.95947C27.1583 3.95947 26.9323 4.22706 26.9407 4.50301C26.9532 4.79568 27.2001 5.00474 27.4847 5.00474Z" fill="black"/>
<path d="M11.0516 23.4222C10.7963 23.301 10.4783 23.3929 10.3485 23.6522C10.0514 24.3169 10.9386 24.4842 11.3445 24.7643C12.3111 25.3957 13.282 26.0563 14.1273 26.8465C14.5708 27.3649 15.3617 26.7001 14.9265 26.1733C13.7758 25.0946 12.4618 24.1497 11.0557 23.4222H11.0516Z" fill="black"/>
<path d="M8.59955 22.3477C8.31499 22.3477 8.08902 22.6152 8.09739 22.8912C8.10995 23.1839 8.35684 23.3929 8.6414 23.3929C8.92595 23.3929 9.15192 23.1253 9.14355 22.8494C9.131 22.5567 8.88411 22.3477 8.59955 22.3477Z" fill="black"/>
<path d="M33.318 84.1688C33 83.5082 33.2092 81.1417 32.1379 81.4344C31.7153 81.5807 31.753 82.049 31.9162 82.3835C32.1463 84.1479 32.7071 85.837 33.385 87.476C33.5021 87.7352 33.8453 87.8272 34.088 87.7018C34.3893 87.5512 34.4311 87.1875 34.2763 86.9157C33.9373 86.0084 33.5984 85.1011 33.318 84.1688Z" fill="black"/>
<path d="M35.2974 89.4998C35.0128 89.4998 34.7618 89.6921 34.745 89.9931C34.7283 90.2649 34.9501 90.545 35.2388 90.545C35.5276 90.545 35.7745 90.3527 35.7912 90.0517C35.8079 89.7799 35.5861 89.4998 35.2974 89.4998Z" fill="black"/>
<path d="M46.8135 98.8861C46.4369 98.4512 45.9892 97.1175 45.2443 97.544C45.0141 97.7028 44.943 98.0457 45.1146 98.2715C45.3908 98.6394 45.6669 99.0073 45.9055 99.4045C46.2988 100.065 46.6336 100.809 46.9809 101.562C47.0981 101.821 47.4412 101.913 47.6839 101.788C47.9434 101.654 48.0271 101.34 47.9099 101.085C47.5668 100.341 47.2278 99.5885 46.8094 98.8861H46.8135Z" fill="black"/>
<path d="M48.8472 104.012C48.5627 104.012 48.3116 104.205 48.2948 104.506C48.2781 104.777 48.4999 105.057 48.7886 105.057C49.0774 105.057 49.3243 104.865 49.341 104.564C49.3577 104.292 49.1359 104.012 48.8472 104.012Z" fill="black"/>
<path d="M51.0275 86.7569C50.3244 86.4642 49.9646 87.4886 50.6718 87.752C51.3706 88.0447 51.7347 87.0203 51.0275 86.7569Z" fill="black"/>
<path d="M66.9877 95.4869C66.6278 95.0396 66.0169 93.9567 65.3682 94.5587C65.0962 94.8765 65.3138 95.2695 65.6277 95.4577C66.9919 97.1719 68.3435 98.9112 69.3144 100.885C69.4483 101.14 69.7663 101.24 70.0174 101.11C70.2685 100.981 70.3773 100.659 70.2433 100.408C69.3813 98.6353 68.1929 97.0506 66.9835 95.4869H66.9877Z" fill="black"/>
<path d="M71.591 103.347C70.9758 102.879 70.3649 103.832 71.0177 104.234C71.6328 104.702 72.2438 103.749 71.591 103.347Z" fill="black"/>
<path d="M65.7532 75.238C65.4185 74.7154 65.3097 73.0638 64.4727 73.3231C64.2091 73.415 64.0501 73.7245 64.1505 73.9879C64.6527 75.3969 65.2427 76.7766 66.0461 78.0477C66.1926 78.2902 66.5483 78.332 66.7743 78.1773C67.1174 77.9431 66.9961 77.5292 66.7826 77.2491C66.4018 76.6094 66.0545 75.932 65.749 75.2338L65.7532 75.238Z" fill="black"/>
<path d="M68.0506 79.9126C67.766 79.9126 67.5149 80.1049 67.4982 80.406C67.4815 80.6777 67.7032 80.9579 67.992 80.9579C68.2807 80.9579 68.5276 80.7655 68.5444 80.4645C68.5611 80.1927 68.3393 79.9126 68.0506 79.9126Z" fill="black"/>
<path d="M82.86 93.5092C82.6048 93.0911 82.1821 92.3009 81.613 92.7567C81.182 93.1622 81.68 93.5761 81.8976 93.9357C82.4667 94.889 82.9772 95.8757 83.4333 96.8875C83.7514 97.4938 84.6636 97.0171 84.3623 96.4067C83.9146 95.4158 83.4082 94.45 82.86 93.5092Z" fill="black"/>
<path d="M85.191 99.229C84.9064 99.229 84.6553 99.4213 84.6386 99.7224C84.6218 99.9941 84.8436 100.274 85.1324 100.274C85.4211 100.274 85.668 100.082 85.6847 99.7809C85.7015 99.5091 85.4797 99.229 85.191 99.229Z" fill="black"/>
<path d="M171.466 119.143C171.62 120.456 171.855 121.761 171.993 123.074C171.997 123.358 172.277 123.579 172.549 123.559C173.508 123.395 172.775 121.794 172.775 121.146C172.713 120.473 172.604 119.77 172.508 119.068C172.445 118.387 171.42 118.462 171.466 119.143Z" fill="black"/>
<path d="M170.202 107.666C170.34 109.067 170.537 110.543 170.687 111.952C170.717 112.236 170.959 112.458 171.248 112.437C172.169 112.362 171.491 110.572 171.499 109.949C171.369 109.017 171.353 108.076 171.185 107.148C171.148 106.868 170.834 106.688 170.566 106.742C170.118 106.834 170.122 107.311 170.202 107.666Z" fill="black"/>
<path d="M169.403 100.58C169.369 100.885 169.57 101.186 169.892 101.203C170.767 101.165 170.39 100.069 170.227 99.5385C169.809 98.0625 169.231 96.6284 168.26 95.4201C167.834 95.0146 166.951 93.7226 166.331 94.354C166.151 94.563 166.168 94.9142 166.394 95.0898C168.139 96.3776 168.942 98.5225 169.403 100.575V100.58Z" fill="black"/>
<path d="M164.385 94.2201C164.67 94.2201 164.921 94.0277 164.938 93.7267C164.954 93.4549 164.733 93.1748 164.444 93.1748C164.155 93.1748 163.908 93.3671 163.892 93.6682C163.875 93.9399 164.097 94.2201 164.385 94.2201Z" fill="black"/>
<path d="M152.526 93.9943C154.112 93.6975 155.631 93.1539 157.267 93.1665C157.928 93.3504 158.217 92.3637 157.564 92.163C156.28 91.9581 154.982 92.4348 153.723 92.6606C153.162 92.8863 151.76 92.7275 151.89 93.6138C151.957 93.8898 152.254 94.0654 152.526 93.9943Z" fill="black"/>
<path d="M140.738 95.905C142.462 95.7712 143.985 95.2067 145.667 94.8012C146.328 94.6339 146.082 93.6346 145.416 93.7852C144.265 93.9942 143.19 94.4918 142.031 94.659C141.453 94.8681 139.913 94.567 140.043 95.5328C140.118 95.8464 140.453 95.9886 140.742 95.9008L140.738 95.905Z" fill="black"/>
<path d="M129.498 96.8458C130.347 96.7622 131.193 96.6618 132.034 96.5238C132.888 96.4193 133.741 96.3148 134.591 96.1893C134.796 96.1768 134.992 96.0388 135.055 95.8172C135.189 95.1232 134.494 95.0688 134.001 95.2193C133.331 95.3239 132.657 95.3866 131.984 95.4744C131.122 95.6124 130.255 95.7211 129.381 95.8047C129.096 95.8381 128.887 96.0974 128.921 96.3817C128.954 96.6618 129.222 96.8792 129.498 96.8416V96.8458Z" fill="black"/>
<path d="M126.711 96.0347C126.426 96.0347 126.184 96.2604 126.179 96.5489C126.175 96.8291 126.41 97.0799 126.694 97.0799C126.979 97.0799 127.221 96.8542 127.226 96.5657C127.23 96.2855 126.995 96.0347 126.711 96.0347Z" fill="black"/>
<path d="M120.589 96.8375C121.267 96.9379 121.417 95.9177 120.744 95.8048C119.304 95.7421 117.861 96.0557 116.417 95.9135C115.81 95.9846 114.375 95.5288 114.287 96.4069C114.278 96.6786 114.513 96.9504 114.802 96.9379C115.68 96.9044 116.555 96.988 117.434 96.9964C118.488 97.0215 119.543 96.8124 120.589 96.8417V96.8375Z" fill="black"/>
<path d="M108.378 96.5113C108.654 96.5614 108.926 96.3398 108.964 96.0722C109.023 95.282 108.056 95.4702 107.55 95.5245C106.78 95.6165 106.001 95.6332 105.227 95.5956C104.495 95.6207 103.771 95.5705 103.043 95.4827C102.758 95.4576 102.49 95.6249 102.448 95.9217C102.407 96.1893 102.603 96.4903 102.888 96.5154C103.771 96.6325 104.658 96.6576 105.549 96.6492C106.499 96.7078 107.441 96.5572 108.382 96.5113H108.378Z" fill="black"/>
<path d="M96.3764 95.8214C97.0292 96.0096 97.3264 95.0187 96.6735 94.8222C96.1839 94.6508 95.6609 94.7762 95.1545 94.7845C94.0874 94.8096 93.0162 94.7971 91.9533 94.7093C91.267 94.5964 91.087 95.6291 91.7733 95.742C92.1165 95.7755 92.468 95.8005 92.8111 95.8173C93.9996 95.9134 95.2047 95.7462 96.3764 95.8256V95.8214Z" fill="black"/>
<path d="M89.8191 94.7302C89.5345 94.7302 89.2918 94.956 89.2877 95.2445C89.2835 95.5246 89.5178 95.7755 89.8024 95.7755C90.0869 95.7755 90.3296 95.5497 90.3338 95.2612C90.338 94.9811 90.1037 94.7302 89.8191 94.7302Z" fill="black"/>
<path d="M24.681 90.0264C23.2666 89.9177 21.802 89.809 20.4587 90.3609C19.831 90.6745 16.8683 91.5609 17.5294 92.51C17.6968 92.7357 18.0358 92.7901 18.2617 92.6145C18.6467 92.3051 19.0945 92.0835 19.5381 91.8745C20.9859 91.1177 22.5761 90.8208 24.1956 91.0424C24.6977 91.0591 25.2041 91.1386 25.7062 91.1302C25.9908 91.1177 26.2 90.825 26.1707 90.5532C26.0536 89.8717 25.1831 90.131 24.681 90.0222V90.0264Z" fill="black"/>
<path d="M16.2363 94.6632C16.5209 94.6632 16.7678 94.4416 16.772 94.1531C16.7803 93.873 16.546 93.6179 16.2614 93.6179C15.9769 93.6179 15.73 93.8395 15.7258 94.128C15.7174 94.4081 15.9518 94.6632 16.2363 94.6632Z" fill="black"/>
<path d="M15.9978 102.729C15.935 102.16 16.3242 101.002 15.4287 100.998C15.073 101.031 14.9098 101.391 14.9726 101.713C14.8805 103.393 15.1902 105.066 15.3534 106.738C15.3827 107.022 15.6505 107.232 15.9309 107.202C16.2154 107.173 16.4246 106.91 16.3954 106.625C16.3242 105.977 16.2405 105.329 16.1736 104.677C16.1066 104.029 16.0313 103.381 15.9978 102.729Z" fill="black"/>
<path d="M17.9312 118.947C18.2157 118.917 18.4208 118.654 18.3957 118.37C18.2492 116.973 17.9353 115.606 17.6759 114.226C17.6759 113.892 17.4708 113.495 17.0691 113.545C16.2657 113.708 16.7469 114.686 16.8097 115.221C17.0231 116.321 17.2281 117.333 17.3537 118.483C17.3788 118.767 17.6508 118.976 17.9312 118.947Z" fill="black"/>
<path d="M18.0777 125.118C18.107 125.21 18.1112 125.223 18.1363 125.356C18.425 126.832 18.3372 128.333 18.4376 129.826C18.5129 130.507 19.5382 130.39 19.4796 129.713C19.3624 128.087 19.5047 126.351 19.0527 124.742C18.8058 124.106 17.8434 124.478 18.0777 125.118Z" fill="black"/>
<path d="M19.8937 135.082C19.8225 134.806 19.5422 134.63 19.2618 134.697C18.7596 134.831 18.8768 135.303 18.9228 135.692C18.9061 136.93 19.0902 138.163 19.1321 139.401C19.1321 139.685 19.3539 139.927 19.6426 139.936C20.513 139.856 20.0945 138.694 20.1029 138.113C19.9313 137.109 20.0653 136.081 19.8937 135.082Z" fill="black"/>
<path d="M19.7472 144.777C19.4543 144.807 19.266 145.07 19.2827 145.354C19.3371 146.023 19.2827 146.696 19.2827 147.378C19.2743 148.022 19.266 148.662 19.2325 149.301C19.2158 149.586 19.4626 149.832 19.743 149.836C20.0318 149.845 20.2619 149.611 20.2787 149.326C20.3205 148.553 20.3205 147.779 20.3331 147.01C20.2452 146.387 20.7139 144.756 19.7472 144.782V144.777Z" fill="black"/>
<path d="M19.3248 155.376C19.0444 155.368 18.7933 155.602 18.7891 155.886C18.7766 156.639 18.5925 157.379 18.492 158.123C18.3874 158.834 18.2995 159.549 18.1949 160.26C18.1531 160.544 18.3456 160.812 18.6301 160.858C18.9063 160.904 19.1909 160.707 19.2285 160.427C19.3499 159.616 19.4419 158.801 19.5717 157.994C19.5717 157.341 20.3249 155.464 19.3248 155.372V155.376Z" fill="black"/>
<path d="M17.9898 171.402C18.0567 170.742 18.1906 170.056 18.3036 169.358C18.3497 169.078 18.153 168.806 17.8684 168.76C17.5839 168.714 17.3161 168.91 17.27 169.195C16.9562 170.838 16.793 172.51 16.8683 174.183C16.8809 174.467 17.1738 174.676 17.4458 174.647C17.7596 174.613 17.9396 174.325 17.9061 174.032C17.8726 173.171 17.9061 172.28 17.9856 171.402H17.9898Z" fill="black"/>
<path d="M19.1782 181.056C18.9941 180.634 18.9564 179.877 18.312 180.003C17.8433 180.12 17.86 180.638 18.0483 180.99C18.4208 182.223 19.0861 183.323 19.4879 184.548C19.5757 184.815 19.9063 184.945 20.1658 184.845C20.442 184.74 20.5549 184.439 20.4671 184.167C20.1281 183.093 19.5423 182.123 19.1824 181.056H19.1782Z" fill="black"/>
<path d="M21.3584 186.136C21.0738 186.136 20.8436 186.404 20.8562 186.68C20.8688 186.972 21.1157 187.181 21.4002 187.181C21.6848 187.181 21.9149 186.914 21.9024 186.638C21.8898 186.345 21.6429 186.136 21.3584 186.136Z" fill="black"/>
<path d="M34.6406 190.029C33.3601 190.029 32.0712 190.171 30.7949 190.004C30.1839 190.004 29.0541 189.251 28.7821 190.092C28.7193 190.376 28.9034 190.648 29.1796 190.715C30.0249 190.924 30.8828 191.133 31.7615 191.124C32.7324 191.133 33.7032 191.087 34.6741 191.074C34.9586 191.07 35.1888 190.811 35.1762 190.531C35.1678 190.242 34.921 190.025 34.6322 190.029H34.6406Z" fill="black"/>
<path d="M51.153 187.918C50.2994 188.043 49.4373 188.152 48.5837 188.29C47.4538 188.474 46.416 188.704 45.2485 188.754C44.7505 188.842 43.809 188.641 43.7922 189.381C43.8257 189.904 44.3488 189.916 44.7547 189.841C46.9726 189.736 49.136 189.214 51.3371 188.946C51.6175 188.904 51.8058 188.612 51.7598 188.34C51.7096 188.051 51.4334 187.876 51.153 187.918Z" fill="black"/>
<path d="M61.2758 186.968C60.1919 187.069 59.1039 187.144 58.0159 187.177C57.5138 187.219 56.5555 187.106 56.6392 187.863C56.7061 188.26 57.1246 188.348 57.4594 188.256C58.7357 188.189 60.0455 188.143 61.3218 188.014C62.0039 187.972 61.9537 186.939 61.2758 186.968Z" fill="black"/>
<path d="M73.3065 186.939C71.8335 186.835 70.3689 186.822 68.8875 186.814C68.2263 186.83 67.54 186.684 66.8914 186.826C66.2428 187.039 66.5566 188.018 67.2095 187.821C68.5109 187.838 69.9295 187.876 71.2602 187.888C71.8837 187.905 72.5574 187.942 73.2144 187.984C73.4948 188.001 73.7584 187.8 73.7835 187.512C73.8086 187.236 73.5952 186.964 73.3107 186.943L73.3065 186.939Z" fill="black"/>
<path d="M85.1408 187.533C83.4084 187.424 81.6718 187.345 79.9393 187.311C79.2572 187.349 79.3033 188.382 79.9854 188.357C81.6509 188.382 83.3666 188.469 85.0446 188.574C85.7267 188.628 85.8188 187.6 85.1408 187.533Z" fill="black"/>
<path d="M97.7239 188.499C96.4057 188.386 95.0876 188.256 93.7694 188.135C93.2129 188.106 92.0495 187.871 92.1123 188.741C92.1625 189.017 92.4387 189.218 92.7191 189.163C94.3511 189.126 95.9915 189.452 97.6277 189.54C97.908 189.565 98.1717 189.352 98.1968 189.067C98.2219 188.783 98.0085 188.524 97.7239 188.499Z" fill="black"/>
<path d="M110.098 189.611C108.344 189.49 106.599 189.168 104.842 189.176C104.16 189.218 104.206 190.25 104.888 190.221C106.595 190.234 108.298 190.531 110.006 190.652C110.684 190.71 110.78 189.682 110.102 189.611H110.098Z" fill="black"/>
<path d="M122.158 191.058C121.12 190.978 120.082 190.911 119.045 190.844C118.153 190.786 117.266 190.685 116.379 190.606C116.094 190.581 115.835 190.794 115.81 191.078C115.785 191.363 115.998 191.622 116.283 191.647C118.203 191.856 120.133 191.961 122.062 192.099C122.342 192.124 122.602 191.915 122.631 191.626C122.656 191.346 122.443 191.078 122.158 191.058Z" fill="black"/>
<path d="M136.093 191.965C135.344 191.965 134.595 191.956 133.85 191.94C132.825 191.91 131.766 191.881 130.728 191.827C130.239 191.818 129.372 191.647 129.36 192.37C129.372 192.646 129.619 192.893 129.904 192.868C130.038 192.851 130.113 192.847 130.276 192.851C131.239 192.893 132.197 192.935 133.16 192.964C134.151 192.993 135.147 193.006 136.139 193.01C136.424 193.01 136.65 192.738 136.641 192.466C136.629 192.17 136.382 191.969 136.097 191.965H136.093Z" fill="black"/>
<path d="M149.471 192.157C147.986 192.345 146.488 192.391 145.002 192.191C144.718 192.153 144.45 192.328 144.4 192.617C144.337 193.453 145.437 193.219 145.977 193.328C147.17 193.445 148.375 193.34 149.563 193.198C149.848 193.165 150.061 192.918 150.036 192.63C150.011 192.354 149.752 192.124 149.467 192.157H149.471Z" fill="black"/>
<path d="M160.28 191.02C159.435 191.434 158.51 191.559 157.581 191.576C157.029 191.551 155.928 191.647 156.259 192.458C156.401 192.73 156.748 192.805 157.004 192.655C158.56 192.642 160.104 192.412 161.473 191.601C161.728 191.476 161.82 191.141 161.69 190.894C161.347 190.313 160.72 190.84 160.289 191.02H160.28Z" fill="black"/>
<path d="M163.707 189.912C163.423 189.912 163.176 190.121 163.163 190.414C163.151 190.69 163.381 190.957 163.665 190.957C163.95 190.957 164.197 190.748 164.209 190.455C164.222 190.179 163.992 189.912 163.707 189.912Z" fill="black"/>
<path d="M172.227 181.445C171.729 182.436 171.122 183.377 170.39 184.213C170.043 184.619 169.118 185.171 169.708 185.739C169.993 185.973 170.382 185.827 170.553 185.53C171.662 184.506 172.512 183.222 173.185 181.88C173.466 181.261 172.524 180.835 172.231 181.449L172.227 181.445Z" fill="black"/>
<path d="M174.625 168.225C174.654 167.874 174.68 167.527 174.713 167.18C174.738 166.494 173.709 166.456 173.667 167.138C173.428 168.973 173.612 170.821 173.788 172.657C173.771 173.075 173.596 173.648 174.169 173.761C175.249 173.769 174.713 172.038 174.713 171.365C174.629 170.32 174.55 169.27 174.617 168.221L174.625 168.225Z" fill="black"/>
<path d="M190.246 139.313C189.979 141.437 189.426 143.711 188.183 145.551C187.907 146.053 186.874 146.584 187.472 147.194C188.162 147.717 188.916 146.224 189.297 145.764C190.506 143.724 191.117 141.357 191.314 139.008C191.33 138.577 191.167 137.987 190.623 138.104C190.029 138.255 190.322 138.886 190.246 139.317V139.313Z" fill="black"/>
<path d="M185.961 148.097C185.677 148.097 185.43 148.31 185.422 148.603C185.413 148.879 185.643 149.142 185.928 149.142C186.213 149.142 186.459 148.929 186.468 148.637C186.476 148.361 186.246 148.097 185.961 148.097Z" fill="black"/>
<path d="M142.952 138.368C143.374 138.246 143.872 138.43 144.253 138.159C144.793 137.72 144.253 136.988 143.65 137.276C142.692 137.176 141.872 137.682 141.106 138.192C140.863 138.343 140.822 138.698 140.981 138.924C141.575 139.58 142.295 138.456 142.952 138.372V138.368Z" fill="black"/>
<path d="M140.064 139.936C140.073 139.66 139.842 139.396 139.558 139.396C139.273 139.396 139.026 139.609 139.018 139.902C139.01 140.178 139.24 140.442 139.524 140.442C139.809 140.442 140.056 140.228 140.064 139.936Z" fill="black"/>
<path d="M147.546 146.793C147.283 147.286 146.283 147.57 146.684 148.235C147.32 148.908 148.061 147.767 148.459 147.315C148.764 146.872 149.354 145.906 148.526 145.689C147.873 145.605 147.894 146.437 147.546 146.797V146.793Z" fill="black"/>
<path d="M144.475 148.026C144.19 148.026 143.943 148.239 143.935 148.532C143.927 148.808 144.157 149.071 144.441 149.071C144.726 149.071 144.973 148.858 144.981 148.565C144.99 148.29 144.759 148.026 144.475 148.026Z" fill="black"/>
<path d="M126.615 138.648C126.338 138.598 126.054 138.79 126.008 139.074C125.916 139.647 125.769 140.207 125.648 140.772C125.091 143.473 125.209 146.278 125.623 148.992C125.698 149.673 126.723 149.577 126.665 148.9C126.497 147.767 126.351 146.629 126.322 145.48C126.255 143.364 126.543 141.32 127.037 139.25C127.083 138.966 126.895 138.694 126.61 138.644L126.615 138.648Z" fill="black"/>
<path d="M126.502 152.479C126.217 152.479 125.97 152.688 125.958 152.98C125.945 153.256 126.175 153.524 126.46 153.524C126.744 153.524 126.991 153.315 127.004 153.022C127.016 152.746 126.786 152.479 126.502 152.479Z" fill="black"/>
<path d="M69.1554 128.049C69.4441 128.049 69.6701 127.815 69.6827 127.531C69.7078 126.895 69.7747 126.259 69.8208 125.624C70.1221 123.253 70.4861 120.845 70.2936 118.445C70.1597 117.889 70.3857 116.668 69.5488 116.693C69.2684 116.727 69.055 116.994 69.0926 117.274C69.168 117.768 69.2391 118.265 69.2684 118.767C69.3437 120.561 69.2433 122.308 68.9545 124.098C68.8039 124.984 68.7662 125.8 68.6867 126.715C68.6658 127.133 68.4566 128.028 69.1596 128.045L69.1554 128.049Z" fill="black"/>
<path d="M69.4649 130.461C68.9628 129.955 68.2221 130.741 68.7452 131.222C69.2473 131.728 69.988 130.946 69.4649 130.461Z" fill="black"/>
</g>
<defs>
<clipPath id="clip0_1453_5018">
<rect width="194" height="201" fill="white"/>
</clipPath>
</defs>
</svg>
