<svg xmlns="http://www.w3.org/2000/svg" width="185" height="284" fill="none"><g clip-path="url(#a)"><path fill="#CE6AE2" d="M115.827 123.852c-.478-1.213-.895-2.486-1.394-3.699-.602-1.152-1.352-2.227-2.271-3.132-.633-.545-1.369-1.026-2.176-1.263-.067-.007-.131.004-.198.011-.382 4.232-1.482 8.433-3.552 12.146a.668.668 0 0 1 .039.41c-.095 2.97 2.363 5.512 4.988 6.563a9.137 9.137 0 0 0 1.758.385c.029-.011.06-.011.089-.018 1.528-3.065 2.462-6.424 3.219-9.745a.599.599 0 0 1-.092-.145c-.18-.491-.241-1.025-.41-1.52v.007Z"/><path fill="#F2B2FF" d="M79.949 128.831v2.206c.4.269.7.675 1.072.979a30.458 30.458 0 0 0 4.075 2.49c2.88.891 5.27.541 7.535-1.517.177-.159.336-.265.484-.329a73.868 73.868 0 0 1-.509-1.068c-.98-1.934-1.903-3.904-2.412-6.022a48.708 48.708 0 0 1-1.345-7.404 9.031 9.031 0 0 0-1.443-1.025c-1.716-.856-3.884-.973-5.628-.184-.513.29-.864.566-1.37.82-.148.113-.304.23-.466.315 0 .018.003.035.003.049v10.686l.004.004Z"/><path fill="#CE6AE2" d="M103.166 77.659a8.525 8.525 0 0 0-1.946-.584c-.7-.198-1.465-.346-2.158-.06-2.349.74-3.594 3.31-3.721 5.633-.198 2.146.25 4.621 2.31 5.728 1.372.987 2.624 1.58 4.333 1.107 2.805-.513 4.716-3.292 4.61-6.075.042-1.018-.28-1.92-.602-2.846-.449-1.344-1.461-2.475-2.826-2.903Zm1.199 5.947c-.272 1.015-.665 2.065-1.401 2.833-1.093 1.078-2.95 1.46-4.167.374-.959-.763-1.635-2.026-1.557-3.27.014-.393.06-.806.145-1.213a1.824 1.824 0 0 0 .7.311c.46.07.995-.064 1.306-.431a1.41 1.41 0 0 0 .315-.746c.007-.057.01-.114.01-.17 0-.127-.017-.258-.035-.382-.06-.393-.24-.792-.587-1.004a1.716 1.716 0 0 0-.333-.166c.18-.156.375-.294.591-.404a.19.19 0 0 1 .032-.024l-.025.021c.135-.067.273-.127.421-.177.69-.498 1.546-.42 2.243.014 1.461.616 2.416 2.136 2.416 3.699 0 .247-.025.495-.074.739v-.004ZM60.818 110.691c1.475.266 3.088.418 4.482-.233.983-.301 1.995-.803 2.61-1.655.248-.237.46-.52.74-.721.456-2.072 1.033-4.127 1.776-6.114.226-.626.449-1.255.679-1.884-.085-.053-.17-.106-.251-.152-.874-.534-1.833-.916-2.866-.966-2.656-.13-6.042 1.397-7.797 3.366a.643.643 0 0 1-.283.305c-.693 2.365-1.202 4.784-1.588 7.22.113.049.223.095.333.124.732.233 1.425.53 2.168.707l-.003.003ZM81.873 75.856c7.373-5.566 16.715-7.765 25.817-6.64.025-.015.046-.032.071-.043.241-.1.379-.368.435-.608.184-.676-.032-1.34-.4-1.91a1.31 1.31 0 0 1-.138-.13c-1.471-.775-3.038-1.369-4.588-1.853-3.3-.552-6.657-.743-9.969-.495-2.048.053-4.054.201-5.812 1.343-.916.382-1.67 1.019-2.345 1.736-.7.729-1.514 1.34-2.094 2.178-.772.952-1.352 1.998-1.805 3.094a.665.665 0 0 1-.01.301c-.336.792-.103 1.669.19 2.433.086.321.369.466.652.604l-.004-.01Zm10.885-9.176c.4.021.669.357.669.743 0 .385-.372.69-.743.668-.4-.021-.669-.357-.669-.743 0-.385.372-.69.743-.668Zm-7.517 2.627a13.43 13.43 0 0 1 3.555-1.453c.258-.064.502-.177.754-.258.866-.191 1.21 1.103.353 1.365l.04-.01c-1.409.484-2.781.805-4.044 1.604a.713.713 0 0 1-.955-.293.715.715 0 0 1 .297-.955Z"/><path fill="#CE6AE2" d="M80.844 83.992a28.352 28.352 0 0 1 2.083-1.934c3.357-2.794 7.465-4.512 11.59-5.842 5.904-1.838 12.416-2.248 18.349-.336.838.237 1.676.492 2.494.8-.007-.478.035-1.001-.131-1.348-.563-1.736-1.914-3.45-3.708-3.97a.788.788 0 0 1-.219-.085 12.883 12.883 0 0 0-1.514-.333c-7.195-1.237-14.932-.626-21.505 2.702-2.437 1.128-4.69 2.61-6.799 4.26-.237.184-.463.354-.683.52-.053.195-.152.371-.247.552-.28.696-.478 1.294-.612 2.012.035 1.011.024 2.227.842 2.942a.813.813 0 0 1 .056.053l.004.007Z"/><path fill="#F2B2FF" d="M112.13 70.007s-.007.015-.007.022l.043.01-.036-.035v.003Z"/><path fill="#fff" d="M85.517 89.066c4.256 1.906 8.982 2.38 13.56 1.711-.719-.272-1.39-.69-2.028-1.103-.835-.541-1.662-1.15-2.161-2.033-1.716-3.08-1.27-7.822 1.27-10.424-2.805.753-5.575 1.853-8.296 3.228-2.433 1.312-4.687 3.052-6.516 5.078a9.34 9.34 0 0 0-.757.827c.354.227.718.442 1.058.654 1.245.771 2.568 1.408 3.873 2.065l-.003-.003Z"/><path fill="#CE6AE2" d="M118.19 82.542c-.729.746-1.525 1.436-2.275 2.14-2.773 2.421-6.077 4.062-9.449 5.48-7.213 3.097-15.883 3.256-22.88-.488a34.236 34.236 0 0 1-1.94-1.043c-.65 1.778.146 3.727 1.33 5.11.302.367.928.777 1.027 1.237.605.018 1.404.424 1.896.46 1.192.258 2.406.424 3.601.671 5.996.983 13.457.234 19.099-1.959 3.814-1.446 7.557-3.214 10.68-5.883.011-.01.022-.018.032-.029 0-.01-.007-.02-.007-.035-.007-.322.117-.63.18-.94.071-.446.11-.899.103-1.351-.064-1.043-.382-2.122-.976-2.96a1.854 1.854 0 0 0-.428-.413l.007.003Z"/><path fill="#F2B2FF" d="M115.873 63.318c-.011-.029-.018-.057-.029-.089a.198.198 0 0 1-.024.028c.017.018.035.04.053.057v.004Z"/><path fill="#CE6AE2" d="M126.549 46.737c1.946-.035 3.849-.487 5.487-1.552 1.291-.969 2.833-1.955 3.491-3.483-.021-2.079-.251-4.161-.534-6.226-.952-.078-2.285-.768-3.06-.75-1.496-.074-3.014.223-4.34.753-.291.142-.552.396-.814.555.209 1.394.276 2.804.191 4.215 0 2.171-.092 4.346-.425 6.488h.004Z"/><path fill="#F2B2FF" d="M154.782 63.445c.173-.135.262-.258.4-.35.357-.658.679-1.333.905-2.055.315-.77.666-1.538.949-2.32a21.864 21.864 0 0 0-.927-.95c-1.486-1.323-3.8-2.214-5.675-1.203-.237.17-.445.372-.658.57-.512 1.676-1.28 3.28-2.196 4.766-.375.58-.764 1.16-1.164 1.736.233.163.456.343.704.456 2.455 1.16 5.441.856 7.662-.65ZM43.586 75.668c.46.598.831 1.128 1.327 1.62.219.162.47.322.668.495a53.088 53.088 0 0 1 6.481-3.214 2.407 2.407 0 0 1-.148-.283 16.87 16.87 0 0 0-3.711-4.052c-.842-.683-1.787-1.369-2.788-1.775-.428-.216-1.15-.206-1.542-.47a37.471 37.471 0 0 0-2.979 1.463c.053.431.13.86.233 1.284.305 1.852 1.345 3.461 2.46 4.932ZM84.038 30.494v.02c.573.443 1.11.948 1.482 1.189 1.15.902 2.066 2.047 3.014 3.147 2.569 2.765 4.638 5.94 6.36 9.292 2.035-1.153 3.153-3.45 3.28-5.732.028-.29-.014-.594.025-.88a30.493 30.493 0 0 0-1.235-2.1c-1.924-3.02-4.1-5.92-6.544-8.532a45.83 45.83 0 0 0-2.377-2.553c-.06.028-.124.05-.184.07-2.222 1.167-3.456 3.699-3.817 6.079h-.004Zm8.345 2.814c.885-.633 1.592 1.03 2.18 1.52.25.29.166.764-.128.99-.888.627-1.606-1.018-2.18-1.52-.247-.297-.169-.764.128-.99Z"/><path fill="#CE6AE2" d="M52.006 46.677c.24.191.41.453.431.718.375-.117.757-.226 1.136-.329 2.78-.746 5.639-1.152 8.508-1.34a30.504 30.504 0 0 1 2.13-.116c.077-.414.247-.856.212-1.23.031-.998-.103-1.836-.276-2.787-.577-1.984-1.14-4.042-2.328-5.75h-.842c-3.113-.063-6.208.35-9.247.987a.608.608 0 0 1-.092.297c-.064.092-.124.18-.173.283-.287.69-.673 1.326-.97 2.008a8.503 8.503 0 0 0 .595 5.842c.261.516.555.968.912 1.41l.004.007ZM117.136 91.958a1.164 1.164 0 0 1-.471-.067c-2.236 1.368-4.645 2.472-7.1 3.394-3.965 1.641-8.246 2.39-12.52 2.582-3.024.226-6.038-.007-9.006-.563-.032.05-.064.1-.11.149-.403.742-.138 1.612.174 2.337.088.191.23.41.343.633a29.766 29.766 0 0 0 6.552 4.413c2.476.895 5.076 1.86 7.736 1.761 4.412.081 8.31-1.054 11.685-3.929 1.892-1.633 3.647-3.557 4.648-5.848-.018-.262.081-.566.163-.852.152-.972 0-2.069-.602-2.843a2.399 2.399 0 0 0-1.492-1.167Zm-8.982 7.249c-.4-.021-.669-.357-.669-.743 0-.385.372-.69.743-.668.4.021.669.357.669.742 0 .386-.372.69-.743.669Zm7.63-2.815s.007-.003.007-.007l-.014.01.004-.003c-1.564 1.167-3.499 1.765-5.36 2.288-.371.102-.764-.177-.845-.538-.085-.392.17-.739.538-.845 1.662-.466 3.378-1 4.793-2.015.718-.506 1.535.53.87 1.11h.007ZM72.976 195.613a.646.646 0 0 1-.127-.117c-1.631-.891-3.258-1.789-4.921-2.57-.676-.333-1.348-.668-2.023-1.001-2.211 1.075-4.415 2.154-6.492 3.476-2.568 1.527-5.179 2.977-7.708 4.565-3.39 1.962-6.842 3.819-10.23 5.777-.107.273-.277.556-.326.831-.124.718.548 1.245 1.022 1.68.142.113.28.24.39.375 1.694.304 3.367.739 5.083.905 1.118.078 2.239.064 3.36.064 4.04.159 8.18-.188 11.993-1.577 3.452-1.351 6.862-2.914 9.848-5.142.16-.123.322-.247.485-.374.294-.361.552-.743.764-1.143a.71.71 0 0 1 .184-.374c.835-1.878.654-3.999-1.295-5.371l-.007-.004ZM36.175 188.849c3.088-1.878 6.3-3.557 9.559-5.117.675-.364 1.358-.714 2.037-1.067-1.818-1.001-3.612-2.041-5.455-2.992-2.989-1.471-5.915-3.055-8.879-4.568-1.09.696-2.32 1.184-3.477 1.764-2.254 1.301-4.433 2.341-6.768 3.395-1.578.859-3.198 1.623-4.818 2.394-1.808.975-3.64 1.951-5.483 2.86-1.334.919-.884 2.387-.35 3.685a.724.724 0 0 1 .035.187c.941 1.202 1.9 2.39 2.848 3.571 1.532 1.757 3.304 3.264 5.136 4.689.244-.276.673-.478.959-.676 1.698-.894 3.269-1.997 4.938-2.934 3.24-1.726 6.605-3.215 9.715-5.188l.003-.003ZM73.885 178.75c-1.747-3.154-4.415-5.565-6.884-8.139a43.372 43.372 0 0 0-4.761-4.54c-.025-.015-.05-.029-.075-.046-.976.035-1.9.852-2.25 1.729a.708.708 0 0 1-.099.272c.145.513.301 1.022.46 1.527 1.493 5.191 3.311 10.269 4.733 15.474.577 1.884 1.15 3.769 1.716 5.657.007.025.01.05.014.074 1.96.98 3.92 1.97 5.862 2.992.33.18.658.364.987.544.421-.085.881 0 1.295.078.382-.134.775-.269 1.104-.389.601-.491.898-1.259 1.139-1.973a6.385 6.385 0 0 0 .431-1.552 14.696 14.696 0 0 0-.187-1.574c-.846-3.472-1.709-7.001-3.495-10.13l.01-.004Zm-10.368-3.589c-.191-1.103-.577-2.16-.825-3.253-.788-.944.814-1.778 1.277-.707.418 1.581.842 3.158 1.2 4.756.095.368-.16.764-.53.849-.935.166-.942-1.019-1.119-1.645h-.003Zm1.55 3.918a.719.719 0 0 1-.687-.728c0-.386.354-.697.729-.686a.719.719 0 0 1 .686.728c0 .386-.354.697-.729.686ZM64.302 191.133a680.752 680.752 0 0 1-13.56-6.902 49.99 49.99 0 0 1-1.474-.76c-2.993 1.619-6.103 3.037-9.081 4.699-2.49 1.33-4.84 2.914-7.351 4.211-1.25.697-2.572 1.305-3.856 1.92-1.475.746-2.894 1.591-4.305 2.451-.011.017-.015.035-.025.049-.895.785-.747 2.086-.315 3.083.127.287.371.577.485.867 3.824 2.549 7.899 4.692 12.204 6.258.018-.258.177-.509.513-.608 4.702-2.839 9.594-5.367 14.306-8.196 4.125-2.408 8.168-4.968 12.456-7.075l.003.003Zm-29.471 3.561a.72.72 0 0 1-.686-.729c0-.385.353-.696.728-.686a.72.72 0 0 1 .687.729c0 .385-.354.696-.73.686Zm8.133-4.222c-.177.375-.612.453-.941.643-.807.404-1.571.881-2.378 1.28-.477.241-.969.464-1.408.778-.31.227-.767.138-.986-.173-.704-1.142 1.779-1.74 2.465-2.238.729-.414 1.465-.82 2.222-1.178.527-.357 1.344.22 1.026.888ZM153.976 206.429a157.088 157.088 0 0 1-3.771-3.139c-2.558-2.408-5.243-4.657-8.119-6.655-1.203-.877-2.218-1.973-3.35-2.935-.297-.283-.665-.502-.955-.792-4.659 1.004-9.29 2.136-13.967 3.013 5.611 5.353 11.427 10.487 17.359 15.483 1.253.941 2.554 1.977 3.785 2.91.474.375.956.747 1.433 1.121a73.681 73.681 0 0 0 8.055-4.876c.439-.728.736-1.623.573-2.475-.216-.615-.608-1.167-1.04-1.655h-.003Zm-11.388-5.551a.712.712 0 0 1-.491.24c-.368.022-.747-.279-.747-.664 0-.188.046-.361.173-.506a.714.714 0 0 1 .492-.24c.368-.022.747.279.747.664a.732.732 0 0 1-.174.506Zm5.943 4.261c-.576.491-1.089-.177-1.538-.502-.673-.502-1.37-.969-2.049-1.461-.262-.191-.516-.389-.789-.565a.704.704 0 0 1-.534-.315c-.368-.541.198-1.255.81-1.089 1.118.477 2.024 1.386 3.057 2.037.555.445 1.818 1.089 1.043 1.895ZM116.042 210.266c-2.175-2.111-4.467-4.112-6.544-6.326-1.27-1.375-2.374-2.892-3.64-4.268-.17-.194-.396-.406-.471-.664-.831.145-1.662.297-2.494.442-.339.145-.707.236-1.022.466-1.73 1.609-1.709 4.353-1.38 6.531.043.142.05.297.032.446a31.474 31.474 0 0 0 2.14 4.101c1.826 2.309 3.665 4.583 5.936 6.464 4.543 3.932 9.799 4.883 15.332 4.699l.039-.032c.276-.145.612-.265.8-.53.428-.98.194-2.108-.354-3.02-2.887-2.691-5.713-5.42-8.374-8.309Zm-5.518-1.1c-.941-.82-1.78-1.747-2.646-2.645-.092-.077-.174-.198-.297-.219-.361-.102-.609-.438-.531-.824.746-1.775 2.621 1.012 3.332 1.616.443.591 1.78 1.142 1.139 2.009a.71.71 0 0 1-.997.067v-.004Zm2.023 1.743a.711.711 0 0 1-.491.241c-.368.021-.747-.279-.747-.665 0-.187.046-.361.174-.506a.714.714 0 0 1 .491-.24c.368-.021.747.279.747.665 0 .187-.046.36-.174.505ZM163.845 194.513c-.014-.024-.021-.053-.031-.077-1.292-.803-2.579-1.606-3.793-2.529-1.393-.993-2.738-2.082-4.248-2.895a.87.87 0 0 1-.195-.149 553.782 553.782 0 0 1-16.043 3.667c.082.067.16.134.244.201 3.11 3.059 6.927 5.258 10.047 8.31 1.373 1.287 2.82 2.485 4.277 3.673a.71.71 0 0 1 .417.305c.153.12.298.251.432.385l.789.64c.605.47 1.235.923 1.804 1.404.17.109.35.254.488.417a62.374 62.374 0 0 0 3.361-2.903 48.266 48.266 0 0 0 5.253-5.456 3.14 3.14 0 0 0 .018-.435c-.085-1.333-.768-2.602-1.603-3.617-.332-.417-.923-.506-1.22-.941h.003ZM141.035 213.063c-3.909-3.133-7.651-6.478-11.401-9.802-2.194-1.945-4.288-3.992-6.439-5.982-.375-.347-.76-.683-1.121-1.047-.463.078-.923.159-1.387.233-4.577.824-9.201 1.386-13.771 2.263 1.064 1.213 2.08 2.472 3.123 3.702 1.928 2.122 4.051 4.06 6.156 6.004 2.6 2.691 5.232 5.364 7.931 7.942h.021c.442.06.718.456 1.04.725.952.901 2.062 1.612 3.039 2.482.817.686 1.793 1.192 2.727 1.683a.884.884 0 0 1 .234.117c3.275-.63 6.463-1.747 9.491-3.133.028-.028.06-.06.099-.085.594-.647 1.231-1.379 1.249-2.305-.05-.676.021-1.376-.414-1.942-.173-.3-.46-.537-.584-.855h.007ZM12.247 184.235a.832.832 0 0 1 .23-.099c1.015-.499 2.038-.983 3.025-1.535a55.735 55.735 0 0 1 4.545-2.291c1.964-1.079 4.008-1.995 6.032-2.946.937-.466 1.846-.993 2.763-1.499 1.004-.555 2.073-.986 3.088-1.52-.156-.078-.311-.159-.467-.237-3.792-2.079-7.68-3.985-11.578-5.838-.018.007-.036.018-.054.028l.015-.003c-3.251 1.213-6.364 2.74-9.545 4.112-1.064.548-2.182.983-3.275 1.464-.153.205-.375.368-.56.537-.735.75-1.223 1.828-1.103 2.882.025.23.046.453.092.675.003.057 0 .11-.01.163 1.142 2.645 2.638 5.113 4.301 7.478.01-.007.021-.017.032-.021a31.095 31.095 0 0 1 2.405-1.301c.022-.014.04-.032.064-.046v-.003Zm1.443-11.478c.959-.491 2.088-.58 3.04-1.025.682-.619 1.626.406.954 1.043-.58.541-1.422.573-2.147.809-.46.145-.91.308-1.351.499-.874.308-1.355-.972-.492-1.326h-.004Zm-2.646 2.549a.719.719 0 0 1-.686-.728c0-.385.354-.697.729-.686a.719.719 0 0 1 .686.728c0 .386-.354.697-.729.686ZM46.335 171.279c1.008 2.369 1.79 4.823 2.639 7.249.357 1.096.785 2.171 1.16 3.26.237.152.39.435.35.714 1.005.537 2.01 1.068 3.029 1.577 3.803 2.005 7.662 3.9 11.51 5.813-.593-1.977-1.24-3.939-1.782-5.93-1.358-4.805-3.035-9.511-4.411-14.309a38.552 38.552 0 0 1-1.518-6.8.7.7 0 0 1-.1-.375c-.448-.276-.901-.548-1.361-.81a66.427 66.427 0 0 0-12.07-5.717.69.69 0 0 1-.145.011c-1.005-.089-1.804.823-2.3 1.601-.11.283-.148.686-.258 1.015l.096.304c1.386 4.268 3.382 8.278 5.157 12.386l.004.011ZM15.813 154.777c.548 1.46 1.09 2.928 1.744 4.342 1.015 2.118 1.585 4.409 2.536 6.549.107.417.506.968.672 1.467 3.864 1.842 7.716 3.691 11.455 5.771.152.074.3.152.453.229-.156-.385-.311-.774-.495-1.149-1.55-3.631-2.922-7.33-4.249-11.049-1.266-2.981-1.822-6.354-3.028-9.3-2.225-.173-4.457-.17-6.69.096-.329.021-.658.06-.983.099-.021.01-.043.017-.06.028a2.635 2.635 0 0 0-1.39 2.238c.05.223.067.463.035.679ZM32.33 168.662a139.289 139.289 0 0 0 1.56 3.692c.23.555.428 1.121.682 1.665.015.029.022.06.032.092 2.837 1.457 5.643 2.97 8.505 4.378 1.807.969 3.6 1.966 5.398 2.949-.647-1.758-1.28-3.522-1.836-5.311-1.62-4.901-4.181-9.409-5.915-14.261-.937-2.294-1.553-4.692-2.282-7.057-.084-.177-.18-.368-.23-.555-2.716-.736-5.476-1.432-8.26-1.938a.668.668 0 0 1-.12.011c-1.093.18-1.847 1.336-2.105 2.344-.117.258-.064.527-.088.795a.717.717 0 0 1-.032.117c.28.969.562 1.934.874 2.864 1.238 3.419 2.476 6.835 3.806 10.219l.01-.004Zm2.186-3.624c0 .386-.354.697-.729.686a.719.719 0 0 1-.686-.728c0-.386.354-.697.729-.686a.719.719 0 0 1 .686.728Zm-2.88-7.372a.715.715 0 0 1 .956.297c.35.958.562 1.973.923 2.935.13.76.99 2.383-.209 2.602-.414.042-.732-.276-.778-.668-.166-.973-.481-1.91-.803-2.84-.177-.442-.23-.93-.39-1.372-.19-.335-.035-.781.298-.954h.003ZM4.998 159.119a579.617 579.617 0 0 0 9.237 4.869c1.507.746 3.021 1.474 4.539 2.196-.404-.937-.782-1.881-1.072-2.857-1.153-3.197-2.632-6.266-3.764-9.473-.16-.407-.308-.813-.453-1.223-1.394.41-2.763.912-4.11 1.439-1.557.725-3.114 1.375-4.606 2.143-.294.314-.683.445-.768.937-.039.689.538 1.223.877 1.782.05.06.089.123.117.191l.003-.004ZM18.14 167.443c-.954-.453-1.913-.902-2.868-1.348-2.838-1.372-5.576-2.927-8.384-4.352a63.797 63.797 0 0 1-2.802-1.517c-.191.028-.4.007-.59-.007-.836.141-1.568.778-1.784 1.587a.553.553 0 0 1-.102.138c.028.273.05.545.053.821.138 2.033.675 3.999 1.06 5.993.411 1.69.758 3.423 1.225 5.109a18.89 18.89 0 0 1 3.438-1.679c3.58-1.584 7.11-3.292 10.751-4.742l.004-.003ZM131.42 178.687c-2.681 5.396-5.044 11.014-8.508 15.971.722-.127 1.44-.258 2.155-.392 3.339-.693 6.661-1.475 9.997-2.196.746-.173 1.493-.339 2.239-.505a.778.778 0 0 1 .05-.336 114.994 114.994 0 0 0 4.277-7.645c1.018-1.651 1.782-3.43 2.586-5.191a178.115 178.115 0 0 1 3.505-6.785c0-.014-.003-.028-.003-.046.336-1.421-1.019-2.535-2.229-2.963-.131-.046-.262-.096-.4-.113a.809.809 0 0 1-.346-.159 56.903 56.903 0 0 0-8.282-.319c-.049.089-.092.174-.138.258a.72.72 0 0 1-.021.446c-1.327 3.472-3.375 6.594-4.882 9.985v-.01Z"/><path fill="#F2B2FF" d="M128.105 102.852c.011.029.022.057.029.086.05.01.096.024.146.035l-.175-.121ZM126.62 104.051c.569.679 1.128 1.372 1.705 2.047 1.853 2.058 3.343 4.402 4.761 6.768 1.666 2.443 2.735 5.212 3.474 8.062.025.088.043.173.067.261.375.237.69.739.991 1.001 2.129 1.835 4.546 2.521 7.22 1.418a.606.606 0 0 1 .106-.103c-.007-.166-.014-.335-.025-.502-.212-2.019-.852-3.953-1.397-5.897a29.026 29.026 0 0 0-.969-3.048c-.092-.11-.174-.234-.251-.347-.45-.619-1.065-1.322-1.599-1.793-2.049-1.86-4.56-3.087-6.86-4.603-2.168-1.22-4.245-2.674-6.693-3.176a2.858 2.858 0 0 0-.523-.092l-.007.004Z"/><path fill="#fff" d="M103.063 76.103c.276.103.552.216.828.322.633.297 1.309.544 1.79 1.078 1.907 1.942 2.653 4.88 2.19 7.532-.22 1.5-.97 2.836-2.02 3.868.584-.24 1.157-.498 1.719-.778a28.385 28.385 0 0 0 10.418-7.453c.149-.184.308-.407.449-.626a3.982 3.982 0 0 1-.406-.308c-.715-.53-1.461-1.018-2.271-1.39-4.242-1.785-8.491-2.457-12.693-2.245h-.004Z"/><path fill="#F2B2FF" d="M144.41 126.101c-.018.021-.039.042-.06.064h.007c.018-.022.039-.039.057-.064h-.004Z"/><path fill="#CE6AE2" d="M111.999 187.237c-1.656 3.419-3.06 6.923-5.183 10.07l.839-.156c4.496-.781 9.084-1.442 13.609-2.21-.057-.36.212-.7.407-.983 4.651-6.598 7.326-14.327 11.256-21.335.234-.435.46-.877.679-1.323a1.83 1.83 0 0 1-.021-.191c.135-.643-.34-1.273-.75-1.729-.485-.396-1.203-.587-1.772-.682a1.789 1.789 0 0 0-.602-.018.844.844 0 0 1-.314-.042 45.884 45.884 0 0 0-6.127 1.428c-1.624.453-3.244.948-4.819 1.556a.737.737 0 0 1-.106.283l.011-.018c-2.558 5.057-4.797 10.184-7.1 15.35h-.007Zm14.132-9.547a.716.716 0 0 1 .492-.241c.368-.021.747.28.747.665a.734.734 0 0 1-.174.506.716.716 0 0 1-.491.24c-.368.021-.747-.279-.747-.665 0-.187.046-.36.173-.505Zm-2.26 6.042c.357-.848.768-1.672 1.16-2.506-.035-1.157 1.638-.913 1.447.169-.368 1.008-.934 1.956-1.334 2.956-.152.354-.612.488-.948.326-.357-.174-.477-.594-.325-.948v.003ZM145.05 179.949a32.12 32.12 0 0 1-2.048 4.084c-1.291 2.408-2.54 4.841-3.983 7.16 3.629-.774 7.269-1.503 10.864-2.411 1.705-.428 3.413-.838 5.122-1.245a.717.717 0 0 1 .046-.336c.074-.148.124-.325.244-.445.994-1.747 2.225-3.349 3.113-5.156.605-1.283 1.443-2.439 2.002-3.744.22-.446.45-.884.683-1.319a.678.678 0 0 1 .081-.509c.114-.276.28-.552.273-.856-.071-.329-.255-.619-.386-.926-.276-.718-.767-1.369-1.418-1.786a.729.729 0 0 1-.241-.233c-2.193-1.079-4.443-2.002-6.845-2.546a65.996 65.996 0 0 0-2.084-.456c.004.067 0 .141-.01.219-1.741 3.476-3.831 6.99-5.413 10.512v-.007Zm10.988-1.559c.375-.771.725-1.56 1.068-2.345.036-1.234 1.79-.792 1.391.333a66.882 66.882 0 0 1-1.189 2.634.717.717 0 0 1-.948.325.718.718 0 0 1-.326-.947h.004Zm-.966 2.394a.714.714 0 0 1 .492-.241c.368-.021.746.279.746.665 0 .187-.046.36-.173.505a.714.714 0 0 1-.492.241c-.368.021-.746-.279-.746-.665 0-.187.046-.36.173-.505Z"/><path fill="#F2B2FF" d="M99.257 79.43a.852.852 0 0 0-.082.135l.007-.007a.816.816 0 0 1 .177-.23s-.003 0-.007.004a1.254 1.254 0 0 0-.095.099Z"/><path fill="#CE6AE2" d="M156.724 187.123c3.754-.891 7.507-1.778 11.232-2.758.28-.049.559-.095.842-.145 1.266-.424 2.469-1.05 3.428-1.951.173-.7.071-1.496-.318-2.083a.73.73 0 0 1-.085-.145 17.095 17.095 0 0 1-.694-.615c-2.214-2.005-4.818-3.487-7.422-4.919-.014.043-.028.089-.053.135-1.446 2.97-3.056 5.859-4.613 8.772-.728 1.263-1.57 2.454-2.317 3.709ZM132.241 48.657c-3.145 1.677-6.127 3.703-8.886 5.93-.191.142-.379.294-.566.442a.721.721 0 0 1-.616.495c-2.009 1.662-3.828 3.575-5.49 5.559l-.043.05c.152.13.255.325.273.54.403 2.907 2.996 4.897 5.441 6.174.194.07.41.01.59.141.98-1.057 1.886-2.181 2.94-3.164 1.065-.955 2.126-1.906 3.212-2.836 4.871-4.307 10.959-7.358 17.49-7.935 6.099-.75 12.707-.01 17.443 4.233 2.013 1.718 3.74 3.854 4.787 6.29.329.746.414 1.538.456 2.334.205.23.364.548.506.795 1.341 2.43 4.404 3.476 7.029 3.087a7.979 7.979 0 0 0 1.327-.562c.021-.032.046-.064.07-.095.078-2.995-.021-6.019-.555-8.964-1.733-7.75-8.03-13.394-15.703-15.031-9.746-2.624-20.656-2.164-29.709 2.521l.004-.004Zm.354 8.809c-1.217.767-2.462 1.492-3.51 2.443-.463.452-.972.89-1.319 1.446-.085.438-.555.721-.973.552-2.108-1.188 4.054-5.081 5.062-5.65.789-.471 1.525.71.74 1.205v.003Zm1.708-.888a.712.712 0 0 1-.718-.697c0-.385.308-.71.697-.717a.712.712 0 0 1 .718.696c0 .386-.307.71-.697.718ZM169.134 185.592c-.325.11-.647.205-.966.29a.7.7 0 0 1-.385-.01c-2.126.555-4.242 1.145-6.403 1.555-1.302.329-2.607.648-3.913.969 2.671 1.701 5.105 3.762 7.871 5.325.977.573 1.896 1.238 2.83 1.874.237.184.609.365.92.573 1.189-1.807 2.282-3.674 3.534-5.449a24.508 24.508 0 0 0 1.638-3.147.888.888 0 0 0-.145-.286c-.453-.693-.867-1.436-1.663-1.75-.318-.156-.647-.297-1.001-.336-.767.138-1.535.261-2.32.389l.003.003ZM101.754 197.66c.265.188.637.16.87.386.078-.021.156-.046.234-.064.042 0 .081.011.124.018.7-.12 1.401-.248 2.101-.375-.018-.184.039-.396.223-.615 1.836-2.581 3.198-5.605 4.51-8.451 1.196-2.5 2.271-5.028 3.414-7.528a171.496 171.496 0 0 1 2.48-5.417.741.741 0 0 1 .056-.453c-.201-.883-.796-.937-1.57-.813-.184.025-.365.106-.549.149-2.992 1.909-5.829 4.14-8.055 6.916-1.864 2.383-3.665 4.851-4.818 7.652-.162.615-.364 1.22-.573 1.821.007.42-.109.912-.127 1.255-.078.887-.195 1.817-.007 2.698.258 1.068.75 2.192 1.691 2.821h-.004Z"/><path fill="#F2B2FF" d="M113.938 65.075a19.82 19.82 0 0 0-5.547-3.798c-1.394-.742-3-1.273-4.486-1.605-2.434-.721-4.98-.955-7.507-.856-1.938-.007-3.863.269-5.79.456a14.45 14.45 0 0 1-.97.12c-.82.177-1.624.428-2.402.715a21.119 21.119 0 0 0-4.574 1.962c-.138.117-.283.23-.45.269-.264.163-.53.332-.788.51-.418.264-.722.67-1.129.933-.01.003-.02.003-.031.01-.878.877-1.617 1.888-2.275 2.946-1.185 1.63-1.925 3.51-2.515 5.424-1.33 3.727-1.861 7.588-1.483 11.463.354 4.314 1.133 8.734 3.294 12.538.973 1.952 2.349 3.734 3.672 5.446 1.606 1.792 3.52 3.334 5.412 4.801 5.424 4.038 12.364 6.365 19.11 5.379 2.268-.347 4.596-.566 6.697-1.553 2.041-.962 3.905-2.28 5.586-3.783a.272.272 0 0 0 .138-.039.5.5 0 0 0 .085-.081l.092-.103c.042-.049.084-.099.13-.145l.234-.237c.014-.014.028-.032.046-.046.011-.01.018-.021.028-.032.128-.137.244-.279.357-.424.036-.046.075-.092.11-.141.057-.064.11-.128.166-.191.018-.021.036-.039.05-.06l.141-.17c3.361-4.07 5.979-8.631 5.901-14.066.223-5.636-.591-9.678-3.003-14.752a29.615 29.615 0 0 0-8.306-10.887l.007-.003Zm1.945 38.205c-3.283 2.938-7.039 4.494-11.447 4.699-1.281.046-2.491.057-3.754-.063-2.02-.248-3.951-.976-5.868-1.634-2.6-1.184-5.017-2.779-7.175-4.667a1 1 0 0 1-.268-.237 31.575 31.575 0 0 1-3.998-4.31c-1.967-2.631-3.94-5.463-4.624-8.73-.965-4.374-1.011-8.907.032-13.267.68-3.632 2.629-6.655 5.402-9.056.082-.48.626-.654.977-.912 1.029-.796 2.196-1.923 3.576-1.842a23.139 23.139 0 0 1 4.546-.516c1.783-.12 3.576-.18 5.356.014 1.376.106 2.755.205 4.121.396 1.967.406 3.813 1.266 5.607 2.128 2.968 1.528 5.243 4.099 7.301 6.665 1.331 1.641 2.378 3.476 3.4 5.319 1.921 3.79 2.788 8.129 2.749 12.361-.223 5.817-1.521 9.71-5.94 13.649l.007.003Z"/><path fill="#CE6AE2" d="M157.067 98.284c.842.148 1.706.05 2.526-.16.612-.187 1.242-.441 1.709-.887-.319-.668-.669-1.319-1.118-1.916-.018-.028-.035-.057-.053-.081-1.599.024-3.071.488-4.075 1.828.219.353.428.714.626 1.078a.727.727 0 0 1 .385.138ZM78.374 268.092v-32.177a1.552 1.552 0 0 1-.17-.746c-.13-.863-.37-1.64-.632-2.461-1.037-2.814-3.283-5.031-6.428-4.932-.029 0-.053-.011-.082-.018-.389 0-.778-.007-1.163-.021-3.41-.029-6.814-.064-10.22-.138-2.441-.113-4.925.035-7.362-.127V243.829c.403.042.8.088 1.153.116 1.603.113 3.223.131 4.815.326-.287-2.143 1.058-4.183 3.032-4.979 1.747-.626 3.7-.014 5.412.47 2.763 1.089 3.601 3.854 3.01 6.591-.29 1.581-.934 3.257-2.207 4.293.371.198.732.41 1.065.668.831.647 1.17 1.655 1.51 2.61.305.739.368 1.548.255 2.337-.053 2.786-1.967 4.897-4.677 5.406-2.674.478-5.472-1.163-6.838-3.423-2.218.018-4.355-.35-6.534-.438v15.123c-.035.269.008.626.018.972.959.068 1.917.138 2.88.17 4.333.046 8.66.269 12.993.333 1.175.014 2.346.038 3.516.063.17-.06.361-.074.556-.025 3.304-.099 5.741-2.75 6.014-5.95a.95.95 0 0 1 .081-.393l.004-.007Zm-15.858-37.873a.715.715 0 0 1-.782.626 63.692 63.692 0 0 0-2.752-.212c-1.09-.046-2.18-.117-3.273-.152-.633.01-1.698-.068-1.51-.959.099-.399.53-.622.92-.498 1.093.092 2.19.099 3.282.173 1.164.053 2.328.113 3.488.244.386.046.67.4.627.781v-.003Zm1.203.852c-.38.007-.722-.308-.722-.693 0-.385.3-.714.693-.721.379-.007.722.307.722.693 0 .385-.3.714-.694.721Zm.668 34.03c-2.342.021-4.846-.934-6.276-2.847a.71.71 0 0 1-.254-.732c.11-.435.658-.707 1.054-.445.548.512.97 1.17 1.634 1.563 1.143.633 2.49 1.096 3.81 1.05.927-.007.962 1.365.032 1.414v-.003Zm2.915-.273c-.379.007-.722-.307-.722-.693 0-.385.301-.714.694-.721.378-.007.721.308.721.693 0 .385-.3.714-.693.721Z"/><path fill="#F2B2FF" d="M73.135 120.242c2.643-1.266 5.084-2.875 7.373-4.703 1.811-1.531 3.668-2.998 5.274-4.749l.223-.233c-.598-2.719-3.46-4.862-6.074-5.431-.36-.113-.775-.092-1.135-.205a32.21 32.21 0 0 1-2.14 1.916c-2.307 1.743-4.914 3.059-7.472 4.388-4.563 2.101-9.65 3.808-14.71 2.755a25.942 25.942 0 0 1-10.17-4.473c-2.373-1.821-4.206-4.272-5.773-6.796-2.21-3.776-3.665-7.496-3.488-11.658a.975.975 0 0 1-.106-.42c-1.107-4.933-2.618-8.802-7.178-11.376-.272.68-.51 1.372-.728 2.065a28.038 28.038 0 0 0-.977 6.284c-.081 1.637-.346 3.274-.216 4.918.58 5.986 2.965 11.637 6.396 16.537 1.843 2.483 3.764 4.951 6.096 6.973 1.634 1.358 3.46 2.479 5.363 3.419 2.242 1.118 4.489 2.239 6.901 2.946 2.381.608 4.811 1.075 7.273 1.149 3.04.021 6.078-.251 9.053-.863 2.183-.541 4.256-1.488 6.212-2.454l.003.011Zm-.87-8.409c1.394-.473 2.54-1.297 3.764-2.057.79-.492 1.55.643.79 1.173-1.27.789-2.495 1.669-3.924 2.15-.846.389-1.454-.838-.63-1.266Zm-2.267 1.613c.368-.025.75.276.75.661s-.259.725-.662.75c-.368.024-.75-.276-.75-.662 0-.385.258-.724.662-.749Zm-36.982-13.72c-.576-1.654-1.348-3.33-1.312-5.112-.39-1.26 1.443-1.383 1.415-.064-.05.962.223 1.87.555 2.758.258.813.492 1.637.899 2.39.237.633 1.093 1.56.208 2.048-1.033.427-1.34-1.387-1.765-2.02Zm2.65 4.831c-.368.021-.747-.28-.747-.669s.266-.721.669-.746c.368-.021.746.28.746.668 0 .389-.265.722-.668.747Z"/><path fill="#CE6AE2" d="M127.985 86.958c.021.948.955 1.542 1.737 1.835a.61.61 0 0 1 .212.082c6.626.276 13.362-.983 19.549-3.426-.039-.011-.074-.022-.11-.029a37.024 37.024 0 0 0-3.268-.81c-6.028-1.014-12.145-.29-17.9 1.581-.153.24-.245.502-.22.767Z"/><path fill="#F2B2FF" d="M135.948 80.774c1.447.1 2.894.145 4.334-.124 1.217-.173 2.487-.382 3.502-1.124.34-.28.679-.587.987-.92a43.496 43.496 0 0 0-7.528 1.747c-.435.131-.867.273-1.295.421Z"/><path fill="#CE6AE2" d="M97.19 274.831c-2.051 1.966-4.916 2.67-7.694 2.674-2.465-.029-5.04-.106-7.368-1.001-1.1-.368-2.194-.859-2.901-1.814-.134-.173-.265-.343-.396-.509-.12.198-.227.392-.276.573-.938 2.811.76 4.985 3.201 6.198 2.095 1.259 4.521 1.754 6.948 1.623 3.594-.156 7.606-1.039 9.973-3.957.583-.82.99-1.881.735-2.885-.354-.781-.552-1.662-1.072-2.348-.261.57-.605 1.082-1.15 1.45v-.004ZM98.531 221.118c.011.18-.049.35-.155.484 0 .223-.106.445-.368.594A17.689 17.689 0 0 1 85.053 225c-2.08-.308-4.255-.47-6.088-1.598-.41-.163-.516-.552-.414-.874a.648.648 0 0 1-.017-.145v-2.991a.336.336 0 0 1-.103-.018c-.226.057-.439.17-.64.29-1.712.923-1.843 2.981-1.776 4.71.322 1.397 1.139 2.709 2.137 3.73 2.497 1.334 5.448 1.39 8.22 1.344 1.993-.003 4.083-.11 6.018-.216 1.843-.173 3.764-.021 5.515-.696.948-.573 1.575-1.715 1.946-2.716.559-1.326.195-2.846-.499-4.052-.152-.258-.488-.452-.824-.65v.007l.003-.007Z"/><path fill="#F2B2FF" d="M135.308 140.107c-1.358-1.39-3.134-2.412-4.992-2.946-.36-.053-.905-.042-1.316-.166-2.833 2.231-7.694 3.695-10.591 3.681-2.989.035-6-.912-8.416-2.67-2.391-1.899-4.468-3.981-5.985-6.594-1.525-2.596-2.073-5.583-2.47-8.529-.346-2.231-.13-4.487-.212-6.732a20.696 20.696 0 0 1-.035-.785 6.772 6.772 0 0 1-.594-.343c-1.005-.492-2.183-1.004-3.244-1.255-2.236-.513-4.627-.598-6.835.007a48.015 48.015 0 0 1-.29 1.874c-.209 1.46-.085 2.903.194 4.342a41.9 41.9 0 0 0 1.316 6.212c.475 1.68 1.288 3.222 2.049 4.788.47.983.905 1.92 1.4 2.818.004.014.011.025.015.039a.31.31 0 0 0 .05.145c.031.049.063.099.098.145l.064.11.145.24c.1.163.198.329.308.488.117.173.233.339.357.509.12.159.244.315.368.47l-.014-.014c.07.089.138.177.209.258l.024.032c.025.025.05.05.078.067 1.91 2.306 3.998 4.523 6.237 6.471 1.645 1.195 3.304 2.38 5.03 3.451 1.472.81 3.057 1.383 4.581 2.079 5.37 1.903 10.634 3.296 16.118.934 2.837-1.096 5.437-2.9 7.382-5.212.354-.474.697-.958 1.037-1.443a6.044 6.044 0 0 0-.219-.272c-.602-.743-1.196-1.492-1.851-2.189l.004-.01ZM97.81 127.508a11.44 11.44 0 0 1-1.015-4.932c.007-.566-.096-1.178.141-1.705.4-.657 1.454-.23 1.288.516 0-.007.003-.01.007-.017 0-.029.007-.06.01-.089-.088 1.358-.063 2.681.27 3.989.18.601.388 1.184.629 1.764.149.35-.078.778-.428.902-.379.134-.757-.074-.906-.428h.004Zm1.436 3.32c-.396-.017-.68-.353-.68-.739 0-.385.365-.693.737-.675.396.018.679.354.679.739s-.364.693-.736.675Z"/><path fill="#CE6AE2" d="M167.128 113.842c-.445-.159-.902-.294-1.351-.442-1.578-.393-3.279-.191-4.811.315a8.77 8.77 0 0 0-1.472.876 2.62 2.62 0 0 1-.226.206.657.657 0 0 1 .056.261c0 .28-.166.527-.403.644-.329 1.039-.778 2.051-1.224 3.048-2.303 4.678-6.877 8.373-12.183 8.751-7.921.824-16.715-7.899-21.374-13.61a63.99 63.99 0 0 1-3.644-5.006c-2.356.498-4.613 1.555-6.251 3.344-.279.294-.509.63-.735.966a1.131 1.131 0 0 1-.117.23c.12.187.233.371.329.558 1.479 2.458 3.315 4.675 5.034 6.945 2.225 3.072 4.797 5.866 7.422 8.596.088.092.18.18.272.268 1.808 1.655 3.697 3.214 5.741 4.601.899.7 1.836 1.361 2.802 1.973a48.932 48.932 0 0 0 3.562 1.895c.319.152.648.293.98.431 1.111.439 2.25.803 3.421 1.064.775.206 1.56.368 2.353.488.286.032.573.061.859.078.089.007.17.032.244.067h.015a21.014 21.014 0 0 0 8.978-1.608c7.843-3.126 10.365-10.647 11.504-18.362.145-2.048.393-4.109.262-6.16-.018-.141-.032-.286-.046-.428l.003.011Zm-15.084 16.215c-1.245.626-2.529 1.143-3.934 1.217-3.003.534-6.116.162-8.851-1.22a1.246 1.246 0 0 0-.332-.11.715.715 0 0 1-.527-.852c.219-.813 1.146-.52 1.68-.212 3.018 1.496 6.548 1.482 9.743.626.558-.212 1.086-.499 1.634-.736.852-.357 1.426.891.584 1.287h.003Zm1.656-1.782c-.375.015-.733-.297-.733-.682 0-.385.287-.718.683-.732.375-.014.732.297.732.682 0 .386-.286.718-.682.732Z"/><path fill="#F2B2FF" d="M165.904 82.74c.032.04.068.075.1.114l.021-.025c-.039-.028-.078-.06-.121-.089ZM95.174 219.774c.67-.668 1.313-1.361 1.882-2.111.018-.018.04-.028.057-.042v-63.378s-.035-.003-.053-.011c-3.025-1.856-6.134-2.56-9.576-1.463-2.586.838-5.084 1.948-7.4 3.373a.688.688 0 0 1-.139.148v62.66c.04.05.075.103.1.163.36.484.862.838 1.333 1.212 2.406 1.85 5.6 2.49 8.575 2.09 1.21-.212 2.349-.711 3.4-1.354a.844.844 0 0 1-.043-.258c.113-2.178.028-4.356-.053-6.52-.467-.764.662-1.517 1.178-.778.464.771.223 1.75.29 2.613 0 1.322.096 2.645.046 3.964.135-.103.27-.206.396-.308h.007Zm-2.122-8.96a.719.719 0 0 1-.686-.728c0-.386.353-.697.728-.686a.719.719 0 0 1 .687.728c0 .385-.354.697-.729.686Zm.997-38.973a.719.719 0 0 1-.686-.728c0-.386.354-.697.729-.686a.719.719 0 0 1 .686.728c0 .386-.354.697-.729.686Zm-.466-3.369c0-2.737-.227-5.456-.096-8.183.025-.403.074-.813.067-1.219-.155-.315-.092-.704.212-.916.903-.516 1.33.59 1.193 1.333-.244 3.012.042 6.018.039 9.023-.046.923-1.415.888-1.415-.042v.004Z"/><path fill="#F2B2FF" d="M174.182 74.01c-3.718-2.885-8.104-4.798-12.675-5.707-5.19-1.298-10.637-1.33-15.912-.675-5.388.717-10.294 2.896-14.808 5.777-1.058.644-2.041 1.362-3.028 2.08a.828.828 0 0 1-.117.261h.007c-1.295 2.214-.414 5.067 1.401 6.683.025.007.046.018.067.025.612-.347 1.224-.69 1.818-1.061 5.356-2.69 11.384-4.229 17.352-4.519 3.626-.272 7.305-.248 10.846.668 2.137.51 4.277 1.118 6.202 2.203a20.177 20.177 0 0 1 5.083 3.85c1.624 1.45 2.738 3.484 2.512 5.708-.283 5.594-6.095 8.642-10.602 10.685-6.562 2.832-13.28 1.514-19.867-.389-4.779-1.549-9.619-3.242-13.889-5.912-.07.05-.145.092-.215.138-.485.435-.871.972-1.277 1.478-.712 1.255-1.175 2.86-.556 4.225.06.114.081.23.074.343 2.162 1.952 4.72 3.406 7.122 5.057 4.644 2.768 9.735 5.07 15.055 5.997 3.556.449 7.175.767 10.751.371 3.913-.552 7.8-1.694 11.338-3.458 3.895-2.129 6.987-5.491 9.392-9.165.955-1.56 1.988-3.267 2.445-5.021.884-2.945 1.28-6.213.304-9.165-1.221-4.604-5.133-7.783-8.826-10.48l.003.003Zm-2.133 8.09a9.436 9.436 0 0 0-.605-.792c-.895-.895-1.907-1.68-2.968-2.369-1.744-1.117-3.683-1.885-5.642-2.521-.786-.45-.167-1.64.661-1.248a.275.275 0 0 1-.049-.025c-.025-.007-.05-.018-.078-.025a.612.612 0 0 1 .074.025c3.4 1.036 6.665 2.744 9.145 5.325.286.322.576.767.803 1.093.329.374.619.95.131 1.333-.69.505-1.15-.297-1.479-.8l.007.004Zm1.861 3.002c-.379.01-.726-.304-.726-.69 0-.385.294-.714.69-.724.379-.01.725.304.725.69a.714.714 0 0 1-.689.724ZM97.117 230.237c-.04.007-.078.017-.117.025.039.014.081.024.117.039v-.064Z"/><path fill="#CE6AE2" d="M161.741 81.336c-.485-.226-1.019-.233-1.536-.279-6.512 5.534-18.066 9.013-27.419 9.275 1.054 2.885 4.4 5.056 7.199 5.975 1.33.421 2.536.577 3.884.559.407.025.753.046 1.082.053a.69.69 0 0 1 .421-.06c5.077-1.146 10.082-2.716 14.678-5.145 2.437-1.227 4.853-2.55 7.107-4.098-.188-.417-.386-.834-.574-1.252-.937-2.164-2.67-4.066-4.835-5.031l-.007.003ZM93.519 232.546c-3.06-1.326-11.49-.672-13.73 2.019v37.802c.06.039.12.085.181.138 3.527 2.379 9.845 3.242 13.814 1.669.035-.018.07-.039.11-.057-.234-.099-.414-.318-.414-.658.06-1.782-.244-3.546-.319-5.321-.063-1.443.057-2.885-.017-4.328-.237-1.142 1.298-1.482 1.408-.311.042 1.414.01 2.829.003 4.243.06 1.927.407 3.836.34 5.763v.004c.757-.534 1.482-1.135 2.335-1.432a.736.736 0 0 1-.117-.393v-36.72c-.407-.163-.76-.686-1.121-.919a9.282 9.282 0 0 0-2.473-1.499Zm.438 27.41c-.7.65-1.832-.584-1.12-1.224.7-.65 1.835.584 1.12 1.224Z"/><path fill="#F2B2FF" d="M109.834 28.605c-3.233 2.932-5.688 6.595-7.86 10.354-2.236 4.296-4.437 8.79-4.95 13.662-.017.743-.07 1.503-.14 2.253.455.134.87.58 1.319.739 1.825.845 3.901 1.65 5.907 1.114 1.03-.198 2.003-.577 2.975-.959a.724.724 0 0 1 .156-.085c.237-1.753.481-3.514.895-5.208.379-1.174.75-2.355 1.164-3.518.835-1.913 1.62-3.886 2.89-5.562a29.36 29.36 0 0 1 4.606-4.767c3.017-2.11 6.417-3.847 10.018-4.685 5.077-.816 10.595-.852 15.307 1.443 2.714 1.365 4.907 3.607 6.679 6.036.117.194.358.555.63.993.435.167.891.566 1.288.69 1.411.732 3.116 1.237 4.69.923 1.178-.244 2.402-.481 3.283-1.333.018-.04.036-.071.057-.106a3.452 3.452 0 0 0-.138-.34c-1.387-2.358-2.653-4.78-4.086-7.11-1.465-2.299-3.325-4.329-5.363-6.118-3.583-2.934-7.659-5.41-12.226-6.35-2.381-.485-4.797-.622-7.22-.527-2.696.01-5.483.078-8.058.927-4.444 1.615-8.278 4.455-11.819 7.53l-.004.005Zm21.834-.551c1.9-.368 3.873-.36 5.766.06.432.16 1.012 0 1.281.467a.712.712 0 0 1-.259.965c-.491.28-1.047-.028-1.556-.099a12.898 12.898 0 0 0-4.871-.025c-.902.205-1.253-1.117-.361-1.368Zm-3.028.099c.385 0 .704.325.704.71a.712.712 0 0 1-.711.704.714.714 0 0 1-.704-.71c0-.386.325-.708.711-.704ZM35.518 87.338s-.011-.015-.019-.022c0 .01.008.022.011.029l.008-.011v.004Z"/><path fill="#CE6AE2" d="M39.111 89.147c3.336 3.395 7.74 5.551 12.222 6.927 3.39.923 7.019 1.153 10.5.98 3.025-.308 5.968-1.093 8.872-1.96.258-.095.52-.187.778-.279.053-.4.276-.799.393-1.174.431-1.69.446-3.645-.672-5.084-.644-.746-1.313-1.535-2.154-2.04a.683.683 0 0 1-.071-.075c-.407.096-.814.177-1.231.24-2.13.44-4.274.881-6.45.973-5.058-.078-10.396-.905-14.624-3.872-5.016-3.957-8.72-10.717-9.296-17.082-.128-2.164.208-4.398 1.139-6.368.021-.05.05-.095.074-.145a.632.632 0 0 1-.078-.25 9.152 9.152 0 0 0-.357-3.275c-1.143-3.306-3.148-6.29-5.667-8.688-.683 1.443-1.192 2.977-1.649 4.455-1.11 3.497-2.225 6.956-2.306 10.576-.273 5.937 1.185 11.612 3.962 16.813 1.78 3.384 3.778 6.712 6.612 9.328h.003Zm20.674.145c.368-.021.746.28.746.668 0 .39-.265.722-.669.747-.367.02-.746-.28-.746-.669s.265-.721.669-.746Zm-12.23-2.302c.22-.799.99-.59 1.536-.265.902.45 1.807.98 2.716 1.379 1.585.658 3.294.796 4.953 1.177.382.064.626.47.552.835-.078.389-.456.612-.835.552-1.266-.255-2.565-.513-3.82-.775-1.645-.41-3.053-1.4-4.582-2.082-.354-.089-.601-.464-.516-.824l-.004.003ZM67.302 36.331c.24 2.857.789 5.523 1.708 8.197.644 2.132 1.624 4.137 2.756 6.05a40.082 40.082 0 0 0 3.626 5.696c.984 1.241 1.932 2.51 3.01 3.67h.05c2.084.106 4.04-.686 5.593-2.047.255-.195.499-.403.736-.615-.831-1.408-1.737-2.783-2.094-4.413a.714.714 0 0 1 .495-.87.716.716 0 0 1 .87.491c.184.658.382 1.316.694 1.931.318.63.71 1.213 1.075 1.818.467-.513.906-1.047 1.337-1.585.021-.063.046-.116.07-.166l-.232-.428c-3.216-5.46-5.813-12.04-6.191-18.404-.053-2.171-.117-4.381.322-6.517.916-3.55 2.363-7.022 4.966-9.674 3.01-3.31 7.104-5.714 11.494-6.605 4.277-.69 8.709-.201 12.696 1.503 2.572 1.071 5.307 1.817 7.489 3.617.05-.01.099-.014.152-.01.648.024 1.277.24 1.928.19 1.656-.222 3.188-.88 4.624-1.683.767-.527 1.503-1.131 2.094-1.838-.753-.736-1.56-1.418-2.313-2.16-1.603-1.397-2.912-3.052-4.667-4.23-4.4-3.094-9.569-4.82-14.769-6-3.375-.626-6.887-1.142-10.287-.686-4.174.3-8.257 1.732-11.872 3.815a31.097 31.097 0 0 0-8.568 7.701c-2.766 3.56-5.115 7.415-6.18 11.814a31.404 31.404 0 0 0-.616 11.445l.004-.007Zm13.825 12.16c.385 0 .707.322.707.708a.714.714 0 0 1-.707.707.714.714 0 0 1-.708-.707c0-.386.322-.708.708-.708ZM74.25 16.407c1.238-1.867 2.674-3.703 4.51-5.014.732-.556 1.588.537.867 1.12-2.056 1.457-3.53 3.597-4.847 5.711-.343.502-1.206.262-1.26-.336-.01-.594.5-.972.733-1.481h-.003Zm-1.08 2.404c.386 0 .708.322.708.707a.714.714 0 0 1-.707.707.714.714 0 0 1-.708-.707c0-.385.322-.707.708-.707Z"/><path fill="#F2B2FF" d="M44.22 61.889c2.232 2.846 4.85 5.35 7.73 7.524 3.784 2.999 7.923 5.598 12.402 7.412a32.322 32.322 0 0 0 4.91 1.75c.05-.212.198-.456.488-.746-.007.007-.01.014-.018.02-.007.011-.014.019-.042.054 2.788-2.967 3.007-5.986 2.045-9.787a.749.749 0 0 1-.227-.485c-2.055-.926-4.255-1.817-6.144-3.005-5.06-3.041-9.892-6.761-13.369-11.577-2.059-3.044-3.757-6.439-4.52-10.052-.372-2.218-.323-4.487-.068-6.715.4-5.484 2.925-9.784 7.446-12.906 2.558-1.775 5.728-2.231 8.78-2.22.383 0 .761.024 1.136.06.276-.27.647-.446.902-.76.923-.892 1.313-2.193 1.504-3.43.138-1.146.194-2.33-.131-3.452a7.228 7.228 0 0 1-.145-.679.764.764 0 0 1-.096-.155 34.188 34.188 0 0 0-1.786-.23c-4.015-.198-8.207-1.368-12.148-.163-3.76 1.05-7.04 3.377-9.863 6.011-2.059 2.175-3.647 4.813-4.935 7.482-1.04 2.663-1.652 5.481-2.172 8.285-.336 2.79-.085 5.467.244 8.221.945 7.326 3.446 13.794 8.087 19.554l-.01-.011ZM41.16 45.75a.714.714 0 0 1-.708.707.714.714 0 0 1-.707-.707c0-.385.321-.707.707-.707.386 0 .708.322.708.707Zm-2.742-13.143c-.07-1.011 1.369-1.15 1.422-.13-.4 3.047-.552 6.258.06 9.274.149.424.057.965-.446 1.1-.357.099-.788-.117-.87-.492a24.83 24.83 0 0 1-.371-2.21c-.212-2.507-.191-5.05.205-7.535v-.007ZM127.568 15.7s-.025.028-.039.039c.032.007.064.017.096.028l-.057-.068Z"/><path fill="#CE6AE2" d="M93.54 136.981c-1.85.509-3.768.523-5.685.293-.923-.032-1.843-.113-2.752-.318-1.925-.357-3.895-.598-5.692-1.425-1.316-.562-2.278-1.609-3.283-2.599-1.804-1.096-3.35-2.57-4.726-4.179a19.303 19.303 0 0 1-1.705-1.694 14.767 14.767 0 0 0-.973-.919.74.74 0 0 0-.173-.025c-1.808-.339-3.711-.824-5.49-.17-2.014.746-3.538 2.182-4.97 3.709.26 1.012.572 1.998.937 2.978 2.72 7.043 9.211 12.365 15.908 15.48 4.846 1.881 10.284 2.114 15.381 1.273 3.708-.633 7.17-2.048 10.765-3.091.23-.088.453-.187.672-.29-.247-.512-.446-1.06-.771-1.516-1.907-2.985-4.312-5.775-7.436-7.507h-.007Zm-10.132 3.656a.718.718 0 0 1-.884.467c-.867-.244-1.709-.555-2.508-.86-2.692-.876-4.95-2.567-7.072-4.388-.435-.205-.654-.767-.318-1.159a.714.714 0 0 1 .966-.11c.944.665 1.779 1.474 2.71 2.153 1.234.909 2.755 1.655 4.149 2.157.82.311 1.645.616 2.49.852.372.103.577.527.467.884v.004Zm1.787 1.085c-.396-.017-.68-.353-.68-.739 0-.385.365-.693.736-.675.397.018.68.354.68.739 0 .386-.365.693-.736.675Z"/><path fill="#000" d="M115.678 71.952c-2.059-2.57-4.334-5.138-7.302-6.665-1.793-.863-3.643-1.722-5.607-2.129-1.365-.194-2.748-.29-4.12-.396-1.784-.194-3.574-.134-5.357-.014-1.528.021-3.049.195-4.545.516-1.38-.081-2.547 1.047-3.577 1.842-.354.259-.895.432-.976.913-2.774 2.4-4.723 5.424-5.402 9.055-1.044 4.364-.998 8.893-.032 13.267.683 3.267 2.657 6.096 4.624 8.73a32.184 32.184 0 0 0 3.997 4.31c.081.099.17.181.269.237 2.158 1.888 4.574 3.483 7.174 4.668 1.917.657 3.849 1.382 5.869 1.633 1.263.12 2.469.11 3.753.064 4.404-.202 8.161-1.757 11.448-4.699 4.418-3.936 5.716-7.832 5.939-13.649.043-4.236-.827-8.575-2.748-12.361-1.019-1.843-2.07-3.678-3.4-5.318l-.007-.004Zm.078 6.397c.81.37 1.556.862 2.271 1.39.124.102.262.215.407.307-.142.219-.297.442-.45.626a28.458 28.458 0 0 1-10.418 7.453c-.562.28-1.135.538-1.719.778 1.051-1.036 1.801-2.372 2.02-3.868.463-2.652-.283-5.587-2.19-7.532-.481-.534-1.153-.781-1.79-1.078-.276-.106-.552-.216-.827-.322a28.65 28.65 0 0 1 12.692 2.246h.004Zm-13.772 11.13c-1.709.474-2.96-.12-4.333-1.106-2.06-1.107-2.508-3.582-2.31-5.728.127-2.323 1.372-4.894 3.721-5.633.693-.287 1.458-.138 2.158.06a8.53 8.53 0 0 1 1.946.583c1.365.428 2.377 1.56 2.826 2.903.322.93.644 1.832.602 2.847.106 2.779-1.805 5.562-4.61 6.075Zm10.146-19.472.035.036-.042-.011c0-.007.007-.014.007-.021v-.004Zm-31.095 2.811a.664.664 0 0 0 .01-.3c.453-1.096 1.033-2.14 1.805-3.094.58-.835 1.393-1.45 2.094-2.178.675-.718 1.425-1.355 2.345-1.736 1.758-1.142 3.764-1.291 5.812-1.344 3.311-.247 6.669-.057 9.969.495 1.55.484 3.117 1.079 4.588 1.853.043.046.089.092.138.13.368.57.584 1.235.4 1.91-.057.24-.195.51-.435.608-.025.01-.046.028-.071.043-9.102-1.125-18.448 1.075-25.817 6.64-.28-.138-.562-.283-.65-.605-.294-.76-.528-1.637-.192-2.432l.004.01Zm-.481 6.167c.092-.18.194-.357.247-.552.223-.166.45-.336.683-.52 2.108-1.65 4.358-3.132 6.8-4.26 6.572-3.328 14.312-3.94 21.504-2.702.502.075 1.008.191 1.514.333a.79.79 0 0 0 .219.085c1.794.52 3.145 2.23 3.708 3.97.17.347.124.87.131 1.348a31.148 31.148 0 0 0-2.494-.8c-5.929-1.916-12.445-1.502-18.35.336-4.125 1.333-8.228 3.048-11.589 5.842a29.116 29.116 0 0 0-2.083 1.934c-.018-.018-.04-.035-.057-.053-.817-.714-.806-1.93-.842-2.942.135-.718.33-1.315.612-2.012l-.003-.007Zm.792 6.538c1.829-2.026 4.086-3.77 6.516-5.078 2.72-1.375 5.49-2.475 8.296-3.228-2.54 2.602-2.986 7.344-1.27 10.424.499.884 1.326 1.492 2.161 2.033.64.414 1.31.83 2.027 1.103-4.577.672-9.307.195-13.56-1.711-1.305-.661-2.628-1.294-3.873-2.065-.336-.212-.704-.428-1.058-.654.237-.29.489-.566.758-.828l.003.004Zm37.887 10.445c-.081.286-.18.587-.163.852-1.001 2.291-2.755 4.215-4.648 5.848-3.375 2.875-7.273 4.01-11.684 3.929-2.661.095-5.26-.87-7.737-1.761a29.764 29.764 0 0 1-6.552-4.413c-.116-.223-.254-.442-.343-.633-.311-.725-.576-1.595-.173-2.337.042-.05.078-.099.11-.149 2.971.556 5.982.785 9.006.563 4.274-.191 8.558-.937 12.52-2.582 2.455-.922 4.86-2.026 7.099-3.394.146.053.308.078.471.067.633.16 1.178.594 1.493 1.167.598.774.757 1.87.601 2.843Zm.258-8.698c-.063.31-.187.618-.18.94 0 .01.007.021.007.036-.01.01-.021.017-.032.028-3.12 2.666-6.866 4.434-10.68 5.883-5.642 2.196-13.103 2.942-19.099 1.96-1.196-.248-2.409-.414-3.601-.672-.492-.036-1.288-.446-1.896-.46-.1-.46-.725-.87-1.026-1.238-1.185-1.382-1.981-3.33-1.33-5.109a34.17 34.17 0 0 0 1.938 1.043c6.998 3.741 15.668 3.585 22.881.488 3.372-1.418 6.676-3.059 9.449-5.48.75-.704 1.546-1.394 2.275-2.14.141.1.272.216.428.414.594.838.912 1.916.976 2.96.007.452-.032.905-.102 1.35l-.008-.003Z"/><path fill="#000" d="M102.023 79.169c-.697-.435-1.553-.513-2.243-.014-.148.05-.29.11-.42.177a.812.812 0 0 0-.178.23l-.007.006a.648.648 0 0 1 .177-.23 3.009 3.009 0 0 0-.59.404c.116.042.226.102.332.166.347.216.53.615.587 1.004.018.124.035.255.035.382a1.438 1.438 0 0 1-.325.916c-.311.367-.845.502-1.305.431a1.7 1.7 0 0 1-.584-.233 2.19 2.19 0 0 1-.117-.078c-.085.41-.13.82-.145 1.213-.081 1.244.598 2.507 1.557 3.27 1.217 1.086 3.077.704 4.167-.374.736-.771 1.132-1.818 1.401-2.833.049-.247.074-.495.074-.739 0-1.563-.955-3.083-2.416-3.698ZM99.384 79.307l-.032.025s.004 0 .007-.004l.025-.021Z"/><path fill="#000" d="M178.48 75.587a9.05 9.05 0 0 0 .421-1.047c.52-1.573.842-3.154.725-4.82.007-3.8 0-7.715-1.302-11.335-1.556-4.144-4.421-7.864-8.129-10.3-2.508-1.708-5.911-2.946-9.519-3.76-.043-.427-.202-.862-.206-1.286-.049-.552-.031-1.121-.099-1.687-.194-1.91-1.563-3.405-2.419-5.053-1.893-3.8-4.38-7.312-7.599-10.109-3.368-2.857-7.224-5.243-11.483-6.499-2.512-.679-5.122-.972-7.744-1.014a.676.676 0 0 0-.145-.145c-.148-.326-.286-.658-.449-.976-1.224-2.394-3.201-4.226-5.168-5.997-1.649-1.436-3.025-3.161-4.843-4.402-3.64-2.568-7.843-4.328-12.13-5.492-8.954-2.489-17.14-2.471-25.513 1.942-3.959 2.217-7.387 5.268-10.121 8.882-.131.173-.262.35-.393.526-.202-.159-.435-.286-.658-.413-1.234-.71-2.685-.831-4.05-1.15-1.39-.328-2.83-.385-4.249-.52-2.062-.077-4.096-.582-6.19-.53-2.92-.173-5.69.676-8.307 1.949-3.127 1.729-6.18 3.85-8.391 6.693-1.475 2.076-2.915 4.219-3.898 6.577-.92 2.436-1.468 5-2.01 7.542-.534 2.924-.258 5.93.057 8.865.028.215.06.431.088.643-.024.007-.046.01-.07.018-1.093.746-1.879 1.913-2.583 3.023-1.592 2.528-2.328 5.452-3.215 8.27-.467 1.436-.917 2.921-1.217 4.413-.899 4.392-.694 8.981.233 13.352.237 1.025.53 2.037.87 3.03-1.15 1.44-2.08 3.062-2.653 4.83-1.333 3.455-1.429 7.192-1.701 10.841-.131 1.5.07 2.988.329 4.463a34.023 34.023 0 0 0 3.6 10.519c2.509 4.508 5.64 8.797 9.609 12.124 2.303 1.864 5.002 3.116 7.645 4.406 3.219 1.602 6.693 2.504 10.234 2.832a.658.658 0 0 0-.057.411c.453 2.669.902 5.349 1.907 7.878 2.858 7.506 9.912 13.319 17.132 16.502 1.252.449 2.53.795 3.824 1.06-.216.4-.088 1.061-.117 1.517v35.472c-.767-3.171-1.673-6.325-3.197-9.221-.588-.973-1.224-1.92-1.836-2.875-1.444-1.916-3.212-3.564-4.89-5.272a47.146 47.146 0 0 0-5.596-5.382.597.597 0 0 0-.102-.084 47.57 47.57 0 0 0-7.227-4.852c-6.382-3.843-13.479-6.318-20.71-8.001-5.394-1.319-10.959-2.274-16.545-1.662-.219.01-.438.035-.657.053l-.011-.007c-.269-.128-.605 0-.863.095-.007 0-.01.007-.018.007-2.494.34-4.896 1.146-7.266 1.994-1.97.81-3.895 1.726-5.795 2.691-.477.258-1.942.934-2.734 1.666a.697.697 0 0 0-.58.12.722.722 0 0 0-.259.75c-.435 1.569-.215 3.15-.031 4.738.106 2.079.583 4.091 1.018 6.117.694 3.14 1.341 6.308 2.555 9.299 2.43 6.128 6.693 11.29 10.817 16.354 2.997 3.253 6.616 5.88 10.288 8.316 6.923 4.516 14.811 7.652 23.068 8.483 5.5.184 11.193.23 16.35-1.959a53.78 53.78 0 0 0 4.327-1.931c.258-.081.52-.226.736-.346.704-.343 1.425-.647 2.083-1.082 1.423-.803 2.813-1.676 3.895-2.921.1-.092.195-.187.294-.279.852-.722 1.648-1.503 2.285-2.376.209-.244.407-.499.602-.753v18.62c-.053 0-.11 0-.163.007-.502.046-1.001.293-1.415.569-1.206.714-1.981 1.98-2.229 3.345a13.449 13.449 0 0 0-.095 2.822c.116.594.336 1.145.608 1.679a47.657 47.657 0 0 0-2.752-.021c-3.308-.089-6.615.014-9.92-.127-3.562-.16-7.135.021-10.69-.202a.668.668 0 0 0-.803.47.707.707 0 0 0-.17.449V243.8c0 .085.018.163.043.234-.439.519.106 1.329.75 1.124 1.514.187 3.031.272 4.584.315.76.07 1.387.131 2.18.208 1.093.177 1.595-.346 1.252-1.425-.315-1.63.764-3.21 2.296-3.737 1.072-.279 2.193.074 3.254.265 2.317.407 3.506 2.245 3.198 4.533-.18 1.888-.927 3.808-2.6 4.834-.315.219-.379.682-.16.986.072.096.15.159.227.205.117.106.258.191.41.244.637.357 1.409.654 1.819 1.305.343.644.58 1.351.796 2.044.12.76-.04 1.531-.149 2.28-.36 1.821-2.144 2.956-3.905 3.105-2.148.018-4.16-1.439-5.12-3.317a.712.712 0 0 0-.52-.226c-.81.071-1.63.014-2.44-.053-1.737-.11-3.538-.407-5.296-.371-.456.067-.644.438-.598.781a.887.887 0 0 0-.024.177v17.082c0 .177.07.339.184.467a.67.67 0 0 0 .435.385c1.294.06 2.596.191 3.898.219 2.904.004 5.798.191 8.699.212 3.52.142 7.043.142 10.567.255.739.011 1.475.014 2.214.025-.035.495-.017.993.053 1.471.538 1.99 1.946 3.589 3.76 4.536 1.932 1.125 4.02 1.913 6.283 1.973 4.819.326 12.856-1.418 13.864-6.994a3.661 3.661 0 0 0-.269-2.128c-.414-.973-.704-2.012-1.503-2.755a.651.651 0 0 0-.58-.216.992.992 0 0 0 .028-.187v-41.897c.148-.071.293-.148.435-.24 1.479-1.227 2.466-3.122 2.597-5.039-.089-1.651-.57-3.699-2.162-4.512-.272-.155-.566-.413-.867-.523v-13.818a25.904 25.904 0 0 0 2.045 4.54c.517 1.025 1.136 1.994 1.932 2.832 1.011 1.234 1.959 2.528 3.113 3.635 5.391 5.385 10.853 7.213 18.402 6.902 6.601-.131 13.131-1.782 18.975-4.858 4.143-1.938 8.172-4.162 11.936-6.772a.736.736 0 0 0 .382-.18c.053-.06.103-.127.152-.191a74.72 74.72 0 0 0 1.384-1.001c3.912-2.842 7.485-6.17 10.641-9.833.261-.067.488-.276.527-.555l.01-.103c.036-.042.071-.088.106-.13.018-.011.039-.018.057-.032a.814.814 0 0 0 .265-.375c1.716-2.245 3.152-4.692 4.688-7.061a22.197 22.197 0 0 0 2.317-4.066c.212-.181.304-.506.35-.856a21.653 21.653 0 0 0 1.026-3.462.665.665 0 0 0 .067-.537c-.011-.297-.18-.591-.517-.658-.845-1.68-2.288-2.85-3.732-3.996a51.697 51.697 0 0 0-2.678-2.231c-1.698-1.181-3.445-2.284-5.299-3.214-2.932-1.676-6.007-3.309-9.229-4.434-10.613-3.133-22.269-3.444-32.847-.003-3.969 1.029-7.697 2.797-11.047 5.151-2.685 1.942-5.328 4.028-7.323 6.701-1.871 2.39-3.651 4.918-4.79 7.747-.255.944-.601 1.864-.902 2.797v-41.837c.067-.318.13-.636.184-.958a.765.765 0 0 0 .057-.138c.827-.254 1.662-.491 2.49-.746 1.281-.428 2.406-1.195 3.654-1.697a.703.703 0 0 0 .259-.145c.863.59 1.736 1.163 2.631 1.697 1.309.718 2.724 1.213 4.079 1.839 4.836 1.81 10.213 3.377 15.346 1.884 3.601-.99 6.895-2.888 9.495-5.572 1.394-1.531 2.455-3.338 3.619-5.042 1.472.512 2.989.88 4.553 1.014.484.053.969.085 1.461.107.516.06 1.033.113 1.553.123.371.064.831.043 1.132-.169 4.814-.365 9.565-2.267 12.954-5.718 5.034-5.12 6.439-13.574 6.647-20.512-.031-1.573-.169-3.15-.488-4.695a6.309 6.309 0 0 0-.06-.262c2.462-.909 4.811-2.086 6.874-3.755 4.383-3.861 8.401-8.826 9.576-14.67 1.662-7.359-1.345-12.401-6.057-16.57l-.021.025ZM41.336 157.57c.495-.778 1.291-1.693 2.3-1.602.05 0 .099 0 .145-.01a66.36 66.36 0 0 1 12.07 5.717c.46.262.913.534 1.362.81 0 .131.028.262.099.375a39.006 39.006 0 0 0 1.517 6.799c1.377 4.799 3.053 9.505 4.412 14.31.541 1.994 1.185 3.953 1.783 5.93-3.85-1.913-7.705-3.808-11.511-5.813a154.575 154.575 0 0 1-3.029-1.577.748.748 0 0 0-.35-.714c-.375-1.089-.803-2.164-1.16-3.26-.85-2.426-1.631-4.88-2.64-7.249-1.775-4.109-3.77-8.118-5.157-12.386-.035-.103-.064-.205-.096-.304.11-.329.15-.729.259-1.015l-.004-.011Zm-13.655-2.104c.025-.268-.028-.537.089-.795.254-1.008 1.008-2.164 2.105-2.345a.669.669 0 0 0 .12-.01c2.784.506 5.543 1.202 8.26 1.938.05.187.145.378.23.555.725 2.365 1.34 4.763 2.282 7.057 1.733 4.852 4.294 9.36 5.914 14.261.556 1.789 1.19 3.55 1.836 5.311-1.8-.983-3.59-1.981-5.398-2.949-2.862-1.404-5.67-2.921-8.504-4.378a.472.472 0 0 0-.032-.092c-.255-.544-.456-1.11-.683-1.665a140.713 140.713 0 0 1-1.56-3.692c-1.33-3.384-2.568-6.799-3.806-10.218a70.042 70.042 0 0 1-.874-2.864.643.643 0 0 0 .032-.117l-.01.003Zm-10.513-3.606c.02-.011.042-.018.06-.029.325-.038.654-.077.983-.099 2.232-.261 4.465-.265 6.69-.095 1.206 2.945 1.761 6.319 3.028 9.299 1.327 3.717 2.699 7.419 4.249 11.05.18.375.34.76.495 1.149-.152-.074-.301-.155-.453-.23-3.74-2.079-7.592-3.928-11.455-5.77-.166-.499-.566-1.05-.672-1.468-.951-2.139-1.521-4.43-2.536-6.548-.655-1.418-1.196-2.882-1.744-4.342.035-.216.014-.46-.036-.679.014-.919.57-1.81 1.39-2.238Zm-12.4 4.352c1.493-.767 3.053-1.417 4.606-2.142 1.348-.527 2.714-1.029 4.111-1.439.145.41.294.816.453 1.223 1.132 3.207 2.61 6.276 3.764 9.473.29.976.668 1.923 1.072 2.857a425.417 425.417 0 0 1-4.539-2.196 548.311 548.311 0 0 1-9.237-4.869 1.065 1.065 0 0 0-.116-.191c-.34-.559-.917-1.093-.878-1.782.082-.488.474-.622.768-.937l-.003.003Zm-2.044 12.546c-.386-1.994-.924-3.957-1.061-5.994a9.043 9.043 0 0 0-.054-.82.554.554 0 0 0 .103-.138c.216-.809.952-1.446 1.783-1.587.191.014.4.035.59.007.924.527 1.85 1.039 2.803 1.517 2.808 1.425 5.546 2.98 8.384 4.352l2.868 1.347c-3.64 1.45-7.167 3.158-10.75 4.742a18.718 18.718 0 0 0-3.439 1.68c-.47-1.683-.817-3.42-1.224-5.11l-.003.004Zm7.022 16.845c-1.663-2.366-3.16-4.834-4.302-7.479.01-.053.014-.109.01-.162-.045-.227-.066-.449-.091-.676-.12-1.05.364-2.132 1.104-2.881.183-.17.406-.333.558-.538 1.094-.481 2.211-.916 3.276-1.464 3.184-1.372 6.293-2.899 9.545-4.112l-.015.004c.022-.007.036-.018.053-.029 3.899 1.853 7.783 3.759 11.579 5.838.155.078.311.159.467.237-1.015.534-2.084.969-3.088 1.52-.917.506-1.822 1.033-2.763 1.5-2.027.951-4.069 1.867-6.032 2.945a56.325 56.325 0 0 0-4.546 2.291c-.986.552-2.009 1.036-3.024 1.535a.83.83 0 0 0-.23.099l-.064.046c-.813.403-1.623.824-2.405 1.301l-.032.021v.004Zm10.814 12.043c-1.836-1.425-3.608-2.931-5.136-4.688-.948-1.181-1.907-2.37-2.848-3.572a.757.757 0 0 0-.036-.187c-.534-1.298-.983-2.765.35-3.685 1.844-.908 3.676-1.884 5.484-2.86 1.62-.771 3.24-1.535 4.818-2.394 2.335-1.054 4.517-2.093 6.767-3.394 1.157-.584 2.388-1.068 3.478-1.765 2.964 1.514 5.893 3.101 8.88 4.569 1.842.951 3.64 1.99 5.454 2.991-.68.354-1.362.704-2.038 1.068-3.261 1.559-6.47 3.239-9.558 5.116-3.11 1.973-6.474 3.462-9.714 5.187-1.67.937-3.24 2.044-4.939 2.935-.286.195-.718.396-.958.676l-.004.003Zm16.464 9.367c-4.305-1.567-8.384-3.709-12.205-6.259-.116-.29-.36-.58-.484-.866-.432-1.001-.58-2.298.315-3.083a.33.33 0 0 0 .024-.05c1.412-.859 2.83-1.704 4.306-2.45 1.284-.616 2.607-1.224 3.856-1.92 2.511-1.298 4.86-2.882 7.35-4.212 2.976-1.661 6.085-3.076 9.081-4.699.489.258.98.513 1.476.76a665.963 665.963 0 0 0 13.559 6.903c-4.288 2.107-8.33 4.667-12.456 7.075-4.712 2.829-9.604 5.357-14.306 8.196-.34.103-.495.35-.512.608l-.004-.003Zm37.243-6.029a.709.709 0 0 0-.184.375 6.88 6.88 0 0 1-.764 1.142l-.484.375c-2.986 2.227-6.396 3.79-9.849 5.141-3.813 1.39-7.952 1.736-11.992 1.577-1.122 0-2.243.014-3.36-.064-1.717-.166-3.39-.601-5.084-.905a2.624 2.624 0 0 0-.39-.375c-.474-.435-1.142-.961-1.022-1.679.05-.276.22-.559.326-.831 3.392-1.956 6.841-3.815 10.23-5.778 2.53-1.587 5.14-3.037 7.709-4.565 2.076-1.322 4.284-2.401 6.49-3.476.677.333 1.349.669 2.024 1.001 1.663.782 3.29 1.683 4.921 2.571a.677.677 0 0 0 .128.116c1.949 1.372 2.13 3.494 1.294 5.371l.007.004Zm2.862-8.981c-.24.718-.538 1.481-1.139 1.973-.325.12-.722.258-1.104.389-.413-.074-.873-.163-1.294-.078-.33-.18-.658-.364-.987-.545a353.721 353.721 0 0 0-5.862-2.991.536.536 0 0 0-.014-.074 811.22 811.22 0 0 0-1.716-5.658c-1.426-5.204-3.24-10.282-4.733-15.473a53.63 53.63 0 0 1-.46-1.527.705.705 0 0 0 .099-.272c.35-.877 1.274-1.694 2.25-1.73.025.018.05.032.074.046a43.43 43.43 0 0 1 4.762 4.541c2.469 2.57 5.136 4.982 6.884 8.139 1.783 3.129 2.65 6.658 3.495 10.131.095.519.145 1.046.187 1.573a6.707 6.707 0 0 1-.431 1.552l-.01.004Zm47.64 29.595c-.187.262-.523.386-.799.531-.014.01-.025.021-.039.032-5.536.183-10.789-.768-15.332-4.7-2.271-1.881-4.11-4.154-5.936-6.463a31.744 31.744 0 0 1-2.14-4.102 1.093 1.093 0 0 0-.032-.445c-.329-2.179-.35-4.926 1.38-6.531.315-.234.683-.322 1.022-.467.832-.145 1.663-.297 2.494-.442.071.258.301.47.471.665 1.266 1.375 2.37 2.892 3.64 4.268 2.076 2.213 4.369 4.214 6.544 6.325 2.661 2.889 5.487 5.619 8.374 8.31.548.912.778 2.043.353 3.019Zm16.011-3.426c-.038.028-.067.057-.099.085-3.028 1.386-6.215 2.503-9.491 3.133a.797.797 0 0 0-.233-.117c-.938-.492-1.911-1.001-2.728-1.683-.98-.87-2.091-1.581-3.039-2.482-.318-.269-.597-.665-1.04-.725h-.021c-2.699-2.578-5.331-5.251-7.931-7.942-2.105-1.945-4.224-3.886-6.155-6.004-1.044-1.23-2.056-2.493-3.124-3.702 4.57-.877 9.194-1.439 13.772-2.263.463-.074.923-.155 1.386-.233.361.36.747.7 1.122 1.046 2.147 1.991 4.245 4.042 6.438 5.983 3.75 3.324 7.489 6.669 11.402 9.802.123.321.41.555.583.855.439.566.365 1.27.414 1.942-.021.926-.658 1.658-1.248 2.305h-.008Zm13.662-7.613a73.805 73.805 0 0 1-8.055 4.876c-.477-.375-.955-.746-1.432-1.121-1.228-.933-2.533-1.969-3.785-2.91-5.929-4.996-11.745-10.13-17.359-15.483 4.68-.874 9.307-2.005 13.966-3.013.29.29.658.509.955.792 1.132.962 2.147 2.058 3.35 2.935 2.876 1.998 5.558 4.246 8.119 6.654a156.734 156.734 0 0 0 3.771 3.14c.432.488.828 1.04 1.04 1.655.163.849-.134 1.743-.573 2.475h.003Zm12.209-11.053a48.188 48.188 0 0 1-5.254 5.456 61.235 61.235 0 0 1-3.36 2.903 2.085 2.085 0 0 0-.489-.417c-.569-.481-1.195-.934-1.804-1.404l-.789-.64a4.04 4.04 0 0 0-.431-.386.732.732 0 0 0-.418-.304c-1.457-1.184-2.904-2.386-4.277-3.673-3.12-3.052-6.937-5.251-10.046-8.31-.082-.063-.163-.134-.244-.201a557.592 557.592 0 0 0 16.043-3.667.737.737 0 0 0 .194.148c1.511.814 2.855 1.903 4.249 2.896 1.213.923 2.501 1.726 3.792 2.529.011.024.018.053.032.077.293.435.884.524 1.22.941.835 1.015 1.518 2.284 1.603 3.617.007.134-.007.283-.018.435h-.003Zm7.467-12.217a.795.795 0 0 1 .145.287 24.63 24.63 0 0 1-1.637 3.147c-1.253 1.775-2.342 3.638-3.535 5.449-.311-.213-.682-.389-.919-.573-.934-.64-1.854-1.301-2.83-1.874-2.767-1.56-5.201-3.625-7.871-5.325 1.305-.322 2.61-.64 3.912-.969 2.165-.41 4.277-1.001 6.403-1.556a.743.743 0 0 0 .386.011c.315-.085.636-.181.965-.29.782-.128 1.55-.255 2.321-.389.354.039.683.18 1.001.336.793.314 1.21 1.057 1.663 1.75l-.004-.004Zm-10.411-12.782c2.604 1.432 5.204 2.914 7.422 4.919.219.212.453.417.693.615a.88.88 0 0 0 .085.145c.39.587.492 1.379.319 2.082-.962.902-2.165 1.528-3.428 1.952-.28.046-.559.096-.842.145-3.725.98-7.478 1.867-11.232 2.758.747-1.251 1.589-2.447 2.317-3.709 1.56-2.913 3.166-5.806 4.613-8.772.021-.046.039-.089.053-.135Zm-13.234-5.29c.697.142 1.391.29 2.084.457 2.402.544 4.655 1.467 6.845 2.545a.806.806 0 0 0 .241.234c.651.421 1.142 1.068 1.418 1.785.131.308.315.598.386.927.007.304-.159.58-.273.856a.696.696 0 0 0-.081.509c-.233.438-.463.877-.683 1.319-.562 1.304-1.401 2.461-2.002 3.744-.884 1.811-2.119 3.409-3.113 5.155-.12.121-.17.297-.244.446a.716.716 0 0 0-.046.336c-1.709.407-3.417.82-5.122 1.245-3.595.908-7.235 1.637-10.864 2.411 1.443-2.32 2.692-4.752 3.983-7.16a32.657 32.657 0 0 0 2.048-4.084c1.582-3.522 3.672-7.037 5.413-10.512a.786.786 0 0 0 .01-.22v.007Zm-14.15-.961c.043-.085.089-.17.138-.258a56.743 56.743 0 0 1 8.281.318c.1.078.216.134.347.159.138.021.269.067.4.113 1.21.428 2.565 1.542 2.229 2.963 0 .014.003.028.003.046a181.175 181.175 0 0 0-3.506 6.786c-.803 1.76-1.567 3.539-2.586 5.19a114.283 114.283 0 0 1-4.276 7.645.722.722 0 0 0-.05.336c-.746.162-1.493.332-2.239.505-3.333.722-6.658 1.503-9.997 2.196-.715.135-1.437.265-2.155.393 3.464-4.958 5.823-10.573 8.508-15.972 1.504-3.391 3.555-6.513 4.882-9.985a.727.727 0 0 0 .021-.446v.011Zm-17.129 3.359c1.574-.608 3.195-1.1 4.818-1.556a45.956 45.956 0 0 1 6.127-1.428c.1.035.206.049.315.042.202-.021.404-.025.602.018.569.095 1.287.286 1.772.682.41.456.888 1.086.75 1.729 0 .067.011.134.021.191-.219.446-.442.888-.679 1.322-3.93 7.009-6.605 14.738-11.257 21.336-.191.283-.459.622-.406.983-4.521.767-9.11 1.429-13.609 2.21-.28.05-.559.103-.839.156 2.123-3.147 3.527-6.651 5.183-10.071 2.303-5.162 4.542-10.293 7.1-15.349l-.011.018a.737.737 0 0 0 .106-.283h.007Zm-19.124 20.522c.018-.343.138-.838.128-1.255.205-.605.41-1.206.573-1.821 1.153-2.8 2.954-5.269 4.818-7.652 2.225-2.772 5.066-5.007 8.055-6.916.184-.042.364-.124.548-.148.775-.124 1.369-.075 1.571.813a.741.741 0 0 0-.057.452 175.738 175.738 0 0 0-2.48 5.417c-1.142 2.5-2.218 5.028-3.413 7.528-1.313 2.847-2.675 5.87-4.511 8.451-.184.219-.24.432-.223.615-.7.131-1.4.255-2.101.375-.042-.007-.081-.018-.124-.018-.078.018-.155.043-.233.064-.237-.226-.605-.198-.87-.385-.941-.63-1.433-1.751-1.691-2.822-.188-.88-.068-1.807.007-2.698h.003Zm61.876-146.004c7.673 1.637 13.969 7.28 15.703 15.03.534 2.946.633 5.97.555 8.964a.711.711 0 0 0-.071.096c-.424.226-.87.417-1.326.562-2.625.389-5.689-.658-7.029-3.087-.142-.247-.301-.566-.506-.795-.043-.796-.127-1.588-.456-2.334-1.051-2.436-2.777-4.572-4.787-6.29-4.74-4.244-11.345-4.979-17.443-4.233-6.531.577-12.619 3.628-17.49 7.935-1.083.93-2.147 1.88-3.212 2.836-1.058.983-1.964 2.107-2.94 3.164-.18-.13-.4-.07-.591-.141-2.441-1.277-5.037-3.267-5.44-6.174a.805.805 0 0 0-.273-.541c.014-.018.028-.032.043-.05 1.662-1.983 3.481-3.896 5.49-5.558a.725.725 0 0 0 .615-.495c.188-.148.375-.297.566-.442 2.763-2.224 5.742-4.254 8.887-5.93 9.052-4.681 19.959-5.144 29.708-2.52l-.003.003Zm5.957 22.626a33.476 33.476 0 0 0-5.809-1.775 39.309 39.309 0 0 0-6.919-1.093c.46-.707.859-1.45 1.287-2.17.563-.973.864-2.058 1.313-3.08.555-1.17 1.058-2.56 1.178-3.886 3.382 1.499 6.268 4.059 8.111 7.39.485.87.765 1.828.818 2.821.092.421-.015 1.16.021 1.793Zm-34.067 38.555c2.3 1.514 4.808 2.741 6.86 4.604.534.467 1.153 1.174 1.598 1.793.078.113.163.237.252.346.368.98.697 1.984.969 3.048.545 1.945 1.185 3.879 1.397 5.898.014.166.018.336.025.502-.035.032-.071.064-.106.103-2.674 1.103-5.087.417-7.22-1.418-.297-.262-.616-.764-.991-1.001-.021-.088-.039-.176-.067-.261-.739-2.85-1.808-5.619-3.474-8.062-1.422-2.366-2.911-4.714-4.761-6.768-.577-.675-1.136-1.368-1.705-2.047.18.018.357.042.523.092 2.452.502 4.525 1.952 6.693 3.175l.007-.004Zm-5.731-4.465.174.12c-.05-.011-.096-.025-.145-.036a.697.697 0 0 0-.029-.084Zm17.405 16.067c-.739-2.493-1.341-5.042-2.483-7.394-.117-.194-.212-.463-.315-.739 2.2.76 4.461 1.333 6.771 1.659 2.816.311 5.678.541 8.508.392-.007.311 0 .626-.061.926-1.163 5.902-5.578 11.199-11.55 12.217-.014-.244-.053-.495-.024-.714.141-2.154-.269-4.286-.849-6.351l.003.004Zm-1.104 7.178a.792.792 0 0 1-.056.063h-.007c.021-.021.042-.039.06-.063h.003Zm-17.397-19.363c1.623 1.807 3.021 3.801 4.273 5.88 1.175 1.892 2.367 3.777 3.067 5.909.442 1.368.913 2.747 1.132 4.172-3.612-2.383-6.693-5.512-9.502-8.787-1.549-1.874-3.028-3.783-4.351-5.844-.407-.757-.923-1.432-1.468-2.09a33.786 33.786 0 0 0 2.809-3.752c.17.265.47.502.693.7 1.249 1.15 2.236 2.532 3.347 3.809v.003Zm-1.766-16.025c.075 5.435-2.543 9.996-5.9 14.066a5.328 5.328 0 0 1-.142.17c-.017.021-.035.039-.049.06-.053.064-.11.127-.166.191-.036.046-.075.092-.11.141a5.99 5.99 0 0 1-.357.425c-.011.01-.018.021-.029.031-.014.015-.028.032-.046.046-.078.078-.155.16-.233.237-.043.05-.089.096-.131.145l-.092.103c-.025.028-.053.06-.085.081a.277.277 0 0 1-.138.039c-1.68 1.503-3.545 2.822-5.586 3.784-2.101.986-4.429 1.205-6.696 1.552-6.746.986-13.687-1.34-19.11-5.378-1.896-1.468-3.81-3.009-5.413-4.802-1.323-1.712-2.695-3.494-3.672-5.445-2.161-3.805-2.94-8.225-3.293-12.539-.379-3.875.152-7.736 1.482-11.463.59-1.913 1.33-3.794 2.515-5.424.658-1.057 1.398-2.069 2.275-2.945.01-.004.021-.004.032-.011.407-.265.71-.668 1.128-.934.262-.176.524-.346.79-.509.169-.039.314-.152.448-.268a20.944 20.944 0 0 1 4.575-1.963 17.892 17.892 0 0 1 2.401-.714c.326-.032.648-.067.97-.12 1.928-.188 3.852-.464 5.79-.456 2.527-.1 5.074.137 7.507.855 1.486.332 3.092.866 4.486 1.605a19.746 19.746 0 0 1 5.547 3.798 29.533 29.533 0 0 1 8.306 10.887c2.413 5.074 3.226 9.116 3.004 14.752l-.008.003Zm-12.133 44.549c-.029.007-.06.007-.089.018a9 9 0 0 1-1.758-.386c-2.625-1.05-5.087-3.592-4.988-6.562a.668.668 0 0 0-.039-.41c2.073-3.713 3.17-7.914 3.552-12.146.067-.007.131-.018.198-.011.807.237 1.542.718 2.176 1.263.919.905 1.669 1.983 2.271 3.132.499 1.21.916 2.486 1.394 3.699.169.495.229 1.029.41 1.52a.65.65 0 0 0 .092.145c-.754 3.321-1.688 6.683-3.219 9.745v-.007Zm3.286-4.607c.877-2.401 1.366-4.897 1.751-7.411a27.824 27.824 0 0 0 1.56 1.835c1.928 2.019 3.888 4.024 5.95 5.905.552.551 1.104 1.096 1.659 1.633.719.608 1.44 1.22 2.173 1.818-.333.558-.747 1.039-1.299 1.4-1.988 1.421-4.241 2.408-6.608 3.005a13.15 13.15 0 0 1-8.525-.7c1.648-2.178 2.497-4.915 3.339-7.485Zm-13.726-15.986c.039-.392.053-.923-.184-1.227v-.025a22.646 22.646 0 0 0 3.212-.237c.924-.152 1.89-.272 2.848-.434a.67.67 0 0 0-.198.59c.205 1.39-.025 2.779-.191 4.162-.421 3.012-1.242 5.958-2.604 8.688-.329.77-.873 1.541-1.347 2.323-.747-2.037-1.069-4.226-1.338-6.376-.272-2.478 0-4.975-.198-7.457v-.007Zm-22.728 3.423a3.4 3.4 0 0 0 .467-.315c.505-.254.856-.53 1.368-.82 1.745-.785 3.913-.672 5.629.184.52.304.937.594 1.443 1.025a49.704 49.704 0 0 0 1.344 7.404c.51 2.118 1.43 4.084 2.413 6.022l.51 1.068a1.77 1.77 0 0 0-.485.329c-2.264 2.057-4.656 2.408-7.535 1.516a30.43 30.43 0 0 1-4.076-2.489c-.37-.307-.672-.711-1.071-.979v-12.892s-.004-.035-.004-.05l-.003-.003Zm-23.39-5.29c-3.397-.258-6.69-1.492-10.001-3.454-3.665-2.281-6.212-5.997-8.101-9.813-1.27-2.478-2.066-5.24-2.013-8.04.042-.909.184-1.807.322-2.702 5.264 5.767 12.915 9.321 20.737 9.664.77.064 1.542.088 2.31.081-1.723 4.427-2.696 9.116-3.269 13.822-.025.17-.018.318.018.446l-.004-.004Zm3.356-10.169a.646.646 0 0 0 .283-.304c1.755-1.973 5.137-3.5 7.797-3.366 1.033.05 1.992.427 2.866.965.08.046.166.099.25.152-.23.626-.452 1.255-.678 1.885-.743 1.987-1.32 4.041-1.776 6.113-.28.202-.489.485-.74.721-.615.853-1.627 1.355-2.61 1.655-1.394.651-3.007.499-4.482.234-.74-.177-1.437-.478-2.169-.708-.106-.031-.216-.077-.333-.123.386-2.437.895-4.855 1.589-7.221l.003-.003Zm12.017-.644c.775-2.241 1.582-4.494 2.94-6.46a.715.715 0 0 0 .089-.48l.177-.071a25.867 25.867 0 0 0 2.292 4.214c-.152 1.128.039 2.324.056 3.501.064.438-.063.997.142 1.4-.517.495-1.05.983-1.63 1.464-1.193.987-2.537 1.726-3.885 2.493-.75.438-1.51.863-2.282 1.266.517-2.49 1.182-4.954 2.101-7.327ZM43.87 67.978c.393.265 1.118.258 1.542.47.998.407 1.946 1.093 2.788 1.775a16.743 16.743 0 0 1 3.711 4.052c.046.096.096.191.149.283a53.095 53.095 0 0 0-6.481 3.214c-.195-.173-.446-.332-.669-.495-.499-.492-.87-1.022-1.326-1.62-1.115-1.47-2.155-3.08-2.459-4.932-.106-.424-.18-.852-.233-1.284a37.452 37.452 0 0 1 2.978-1.463Zm-3.368.063c-.428.269-.944.463-1.38.743-.07-.33-.134-.654-.19-.98-.361-2.266-.12-4.657.81-6.76.138-.432.626-1.103.898-1.726.372.559.76 1.11 1.171 1.648a36.76 36.76 0 0 0 3.92 4.798c-1.79.559-3.53 1.407-5.232 2.277h.003Zm15.65 6.489a.76.76 0 0 0 .294-.202c4.04 2.465 8.36 4.547 12.962 5.735 1.022.33 2.037.658 3.063.98-.007.958.029 1.92.103 2.881a.752.752 0 0 0-.548 0c-.651.251-1.299.517-1.957.754-2.034.594-4.21.944-6.321 1.3-1.95.354-3.959.294-5.94.03-3.329-.27-6.654-1.14-9.537-2.861-1.27-.867-2.448-1.942-3.513-3.15 3.463-2.377 7.425-4.088 11.395-5.46v-.007Zm9.577-39.818c-.27-.05-.552-.067-.775-.1-1.305-.172-2.621-.2-3.94-.183-3.606-.124-7.147.523-10.663 1.237-.495.11-1.026.17-1.507.344.032-.24.064-.478.102-.722.358-2.312 1.04-4.844 2.533-6.736 2.254-2.952 5.392-5.502 9.216-5.827 1.595-.19 3.222-.247 4.821-.028.492.05.984.159 1.476.223-.135.431-.262.862-.372 1.304-.803 3.434-1.238 6.973-.891 10.491v-.003Zm-15.233 4.703c.297-.683.683-1.32.97-2.009.049-.102.109-.19.173-.283a.647.647 0 0 0 .092-.297c3.038-.636 6.134-1.05 9.247-.986.28-.004.559-.004.842 0 1.188 1.708 1.747 3.762 2.327 5.75.174.95.312 1.788.276 2.785.036.375-.134.817-.212 1.23a30.63 30.63 0 0 0-2.13.118c-2.868.187-5.727.594-8.507 1.34-.382.099-.761.208-1.136.329-.021-.266-.191-.527-.431-.718a7.958 7.958 0 0 1-.913-1.411 8.504 8.504 0 0 1-.595-5.841l-.003-.007Zm2.618 9.239a39.508 39.508 0 0 1 4.744-1.06c2.823-.376 5.702-.712 8.553-.51.443.13.885.276 1.31.392.222.078.438.085.664.156.114.078.237.138.365.17 1.142 2.584 2.61 5.031 4.142 7.397 1.57 2.242 3.244 4.423 5.133 6.41.251.216.541.584.86.835.088.145.166.297.244.445-.69.7-1.291 1.493-1.836 2.313a18.198 18.198 0 0 0-1.588 2.556c-.333-.145-.747-.23-1.03-.357-1.075-.304-2.059-.824-3.067-1.287-1.946-.838-3.877-1.7-5.688-2.81-5.763-3.533-11.402-7.95-14.554-14.053.57-.233 1.16-.417 1.748-.6v.003Zm34.739-24.25c.06-.02.123-.042.183-.07a45.83 45.83 0 0 1 2.378 2.553c2.448 2.616 4.62 5.512 6.544 8.532.442.682.842 1.386 1.235 2.1-.04.287.007.59-.025.88-.127 2.285-1.245 4.58-3.28 5.733-1.722-3.349-3.788-6.528-6.36-9.293-.948-1.103-1.864-2.245-3.014-3.147-.375-.24-.913-.746-1.482-1.188v-.021c.36-2.383 1.595-4.912 3.817-6.078h.004Zm-1.444-3.189c.244-.293.502-.58.775-.855 4.811-5.22 11.423-7.383 18.388-6.018 2.091.445 4.249 1.343 6.265 2.15 1.337.561 2.781.926 3.959 1.8 1.008.71 2.172 1.516 3.13 2.386-.81.389-1.606.813-2.387 1.237-2.625 1.436-4.928 3.363-7.228 5.255-3.187 2.775-6.346 7.011-8.844 11.583-.017-.035-.031-.07-.046-.102-.544-.987-1.068-1.984-1.627-2.96a60.753 60.753 0 0 0-7.87-10.35c-.747-.87-1.515-1.718-2.375-2.474-.693-.549-1.28-1.358-2.133-1.648l-.007-.004Zm1.674 15.279c2.048 2.192 3.636 4.795 5.09 7.411.938 1.62 1.578 3.38 2.32 5.092.146.378.224.873.507 1.107a27.242 27.242 0 0 0-.337 1.775 78.08 78.08 0 0 1-.279 3.744c-.007.01-.014.018-.018.028-.134.425-.215.856-.353 1.28a.726.726 0 0 0-.071.506 64.85 64.85 0 0 0-3.33.287c-.034-.004-.07-.011-.105-.011-.276.014-.556.042-.832.074-.222-.601-.566-1.15-.88-1.704-3.814-6.301-7.178-13.21-7.581-20.7-.032-1.343-.06-2.786.06-4.193a.72.72 0 0 0 .17-.032c2.242 1.376 3.98 3.313 5.642 5.332l-.003.004Zm36.093 15.646c-2.575 1.881-5.02 3.94-7.107 6.354a67.057 67.057 0 0 0-3.392 4.028.736.736 0 0 0-.174.283 22.964 22.964 0 0 0-5.486-3.289c.077-.87.406-1.694.488-2.563.375-3.713 1.089-7.419 2.692-10.824 1.15-3.04 3.258-5.544 5.642-7.7 1.288-1.203 2.943-2.087 4.496-2.922a25.779 25.779 0 0 1 3.595-1.563c.01.184.06.368.106.549.106.442.201.887.283 1.336.339 1.743.269 3.511.219 5.276.081 3.341-.598 6.65-1.22 9.932a4.686 4.686 0 0 1-.174.626.614.614 0 0 0 .036.474l-.004.003Zm-8.31 11.167c-.017-.018-.035-.04-.053-.057.007-.01.018-.021.025-.028.011.028.018.056.028.088v-.003Zm8.183 13.252c-.75-1.711-1.582-3.384-2.544-4.978.255-.22.474-.552.68-.789.626-.704 1.33-1.336 1.959-2.04 2.799-3.285 6.131-6.082 9.619-8.61 4.418-3.03 9.679-4.593 15.017-4.89-.885 4.367-3.683 8.058-6.502 11.424a.645.645 0 0 0-.106.135c-5.469 1.312-10.549 4.059-15.077 7.393-1.051.736-2.116 1.46-3.046 2.348v.007Zm23.525-14.667c.912-1.485 1.683-3.09 2.196-4.766.213-.198.421-.4.658-.57 1.875-1.01 4.189-.12 5.675 1.203.314.307.629.622.926.951-.283.781-.636 1.549-.948 2.32-.226.72-.548 1.396-.905 2.054-.138.092-.227.212-.4.35-2.222 1.503-5.207 1.81-7.662.65-.248-.113-.471-.293-.704-.456.399-.576.792-1.16 1.164-1.736Zm-20.798-25.865c.262-.159.524-.413.814-.555 1.326-.53 2.848-.83 4.34-.753.775-.018 2.109.672 3.06.75.283 2.064.513 4.15.535 6.226-.655 1.528-2.201 2.514-3.492 3.483-1.638 1.064-3.541 1.517-5.487 1.552.329-2.142.421-4.317.425-6.488a20.55 20.55 0 0 0-.191-4.215h-.004Zm10.146 5.551c-.021-2.026-.226-4.055-.492-6.06a365.91 365.91 0 0 0-.311-2.192c-.018-.082-.028-.17-.039-.258 2.317.307 4.571.972 6.544 2.21 2.505 1.722 4.649 4.027 6.078 6.718.177.367.379.735.524 1.12-.68.011-1.338.036-1.964.078-3.544.266-7.071.902-10.443 2.005.075-.664.036-1.41.078-1.792.021-.474.028-.948.032-1.422a.72.72 0 0 0 0-.407h-.007Zm0-20.914c4.567.94 8.642 3.415 12.226 6.35 2.034 1.79 3.895 3.819 5.363 6.117 1.436 2.327 2.702 4.752 4.086 7.111.053.113.095.226.138.34-.018.035-.039.067-.057.105-.881.853-2.105 1.09-3.283 1.334-1.574.314-3.276-.191-4.691-.923-.396-.124-.852-.524-1.287-.69-.273-.435-.513-.795-.63-.993-1.776-2.43-3.966-4.675-6.679-6.036-4.712-2.295-10.231-2.26-15.307-1.443-3.601.838-7.001 2.574-10.018 4.685a29.22 29.22 0 0 0-4.606 4.767c-1.274 1.676-2.056 3.649-2.89 5.562-.414 1.163-.782 2.34-1.164 3.518-.414 1.693-.662 3.458-.895 5.208a.671.671 0 0 0-.156.085c-.969.382-1.946.764-2.975.958-2.006.534-4.082-.272-5.908-1.114-.445-.155-.86-.604-1.32-.738.075-.75.125-1.51.142-2.253.513-4.872 2.714-9.366 4.949-13.663 2.172-3.758 4.627-7.422 7.861-10.353 3.541-3.076 7.376-5.915 11.819-7.531 2.575-.849 5.363-.916 8.058-.927 2.423-.095 4.84.043 7.22.527l.004-.003Zm-9.364-4.972.057.067c-.032-.01-.064-.02-.096-.028.014-.01.025-.028.039-.039ZM67.91 24.875c1.065-4.399 3.418-8.253 6.18-11.813a31.098 31.098 0 0 1 8.568-7.702c3.612-2.082 7.698-3.514 11.872-3.815 3.4-.456 6.913.06 10.288.686 5.203 1.185 10.368 2.907 14.769 6 1.751 1.174 3.063 2.833 4.666 4.23.75.738 1.56 1.42 2.314 2.16-.595.707-1.331 1.312-2.095 1.838-1.436.807-2.964 1.464-4.623 1.684-.655.05-1.281-.167-1.928-.191-.053 0-.103 0-.152.01-2.183-1.796-4.918-2.542-7.489-3.617-3.987-1.704-8.42-2.192-12.697-1.503-4.393.891-8.483 3.296-11.493 6.605-2.6 2.652-4.05 6.125-4.967 9.675-.442 2.135-.378 4.345-.322 6.516.375 6.368 2.975 12.949 6.19 18.405.075.145.156.286.234.427a.784.784 0 0 0-.07.167c-.432.534-.87 1.071-1.338 1.584-.364-.601-.757-1.188-1.075-1.818-.308-.611-.506-1.27-.693-1.93a.71.71 0 0 0-.87-.492.715.715 0 0 0-.496.87c.354 1.627 1.263 3.005 2.094 4.413-.237.212-.477.42-.735.615-1.557 1.358-3.51 2.153-5.593 2.047h-.05c-1.079-1.16-2.03-2.429-3.01-3.67a40.202 40.202 0 0 1-3.626-5.696c-1.132-1.913-2.116-3.915-2.756-6.05-.92-2.673-1.468-5.34-1.709-8.196a31.404 31.404 0 0 1 .616-11.446l-.004.007Zm-32.029 9.232c.52-2.804 1.132-5.622 2.172-8.284 1.292-2.67 2.88-5.308 4.935-7.482 2.823-2.635 6.102-4.961 9.863-6.011 3.944-1.206 8.133-.036 12.148.162.594.06 1.192.138 1.786.23.025.057.057.11.096.156.035.23.088.456.145.678.329 1.121.272 2.306.13 3.452-.19 1.237-.58 2.538-1.503 3.43-.254.314-.626.49-.902.76-.378-.036-.757-.06-1.135-.06-3.053-.011-6.223.445-8.78 2.22-4.521 3.122-7.044 7.425-7.447 12.906-.255 2.228-.304 4.498.067 6.715.764 3.614 2.462 7.008 4.521 10.052 3.478 4.816 8.31 8.536 13.369 11.577 1.885 1.188 4.089 2.082 6.144 3.005a.766.766 0 0 0 .227.485c.962 3.797.743 6.817-2.045 9.787l.043-.053c.007-.007.01-.014.017-.021-.29.29-.439.534-.488.746a32.08 32.08 0 0 1-4.91-1.75c-4.482-1.814-8.618-4.413-12.403-7.412-2.876-2.178-5.494-4.677-7.73-7.524-4.64-5.756-7.138-12.227-8.086-19.553-.33-2.755-.58-5.432-.244-8.221l.01.01Zm-7.354 28.889c.081-3.625 1.195-7.08 2.306-10.576.453-1.478.962-3.017 1.649-4.456 2.519 2.398 4.524 5.382 5.667 8.688a9.08 9.08 0 0 1 .357 3.274.629.629 0 0 0 .078.251l-.074.145c-.93 1.966-1.267 4.204-1.14 6.368.577 6.365 4.281 13.126 9.297 17.082 4.224 2.967 9.566 3.794 14.625 3.872 2.179-.092 4.319-.534 6.448-.972.414-.064.825-.145 1.232-.24.02.024.042.049.07.074.842.505 1.51 1.297 2.155 2.04 1.118 1.439 1.1 3.394.672 5.084-.117.375-.34.775-.393 1.175-.262.091-.52.18-.778.279-2.904.863-5.848 1.651-8.872 1.959-3.485.173-7.11-.057-10.5-.98-4.485-1.375-8.886-3.532-12.222-6.927-2.83-2.616-4.829-5.943-6.612-9.327-2.777-5.202-4.234-10.877-3.962-16.813h-.003Zm6.98 24.33s-.004.007-.008.01c0-.01-.007-.02-.01-.028.003.007.01.014.017.022v-.004Zm15.08 35.069c-2.413-.707-4.663-1.828-6.902-2.945-1.903-.941-3.728-2.062-5.363-3.42-2.331-2.022-4.252-4.49-6.095-6.972-3.435-4.901-5.816-10.552-6.396-16.538-.13-1.644.134-3.281.216-4.918a28.45 28.45 0 0 1 .976-6.284c.223-.692.457-1.385.729-2.064 4.563 2.574 6.074 6.442 7.178 11.375 0 .152.042.293.106.42-.174 4.166 1.277 7.882 3.488 11.658 1.563 2.525 3.4 4.975 5.773 6.796a25.883 25.883 0 0 0 10.17 4.473c5.06 1.05 10.146-.654 14.71-2.754 2.557-1.33 5.165-2.649 7.471-4.388a32.508 32.508 0 0 0 2.14-1.917c.361.11.775.092 1.136.205 2.614.569 5.472 2.712 6.074 5.431l-.223.234c-1.606 1.75-3.467 3.217-5.275 4.748-2.292 1.829-4.73 3.437-7.372 4.703-1.956.962-4.03 1.913-6.212 2.454-2.975.612-6.014.881-9.052.863-2.462-.074-4.893-.541-7.273-1.149l-.004-.011Zm27.936-3.663v13.984a87.314 87.314 0 0 1-1.588-.951c-.62-.594-1.239-1.191-1.875-1.761-.892-.735-1.79-1.464-2.646-2.245a35.712 35.712 0 0 1-1.313-1.644c-.453-.644-.782-1.365-1.061-2.097-.07-.262-.17-.534-.326-.732 2.215-.817 4.327-1.948 6.41-3.041a44.193 44.193 0 0 0 2.399-1.517v.004Zm-6.254 155.696a.957.957 0 0 0-.556.025c-1.17-.028-2.345-.05-3.516-.064-4.334-.063-8.66-.286-12.994-.332-.962-.032-1.92-.103-2.88-.17-.01-.346-.052-.703-.017-.972v-15.123c2.176.088 4.316.456 6.534.438 1.365 2.26 4.164 3.9 6.838 3.423 2.71-.513 4.624-2.62 4.677-5.406.113-.789.05-1.599-.255-2.338-.343-.954-.68-1.962-1.51-2.609a7.576 7.576 0 0 0-1.065-.668c1.273-1.036 1.917-2.712 2.207-4.293.594-2.737-.244-5.498-3.01-6.591-1.716-.484-3.669-1.096-5.413-.47-1.974.792-3.318 2.836-3.031 4.978-1.589-.194-3.209-.212-4.815-.325-.354-.032-.75-.074-1.153-.117v-16.357c2.437.163 4.917.018 7.361.128 3.407.074 6.814.113 10.22.137.39.015.779.018 1.164.022a.498.498 0 0 0 .082.017c3.144-.099 5.39 2.118 6.427 4.933.262.824.503 1.598.634 2.461-.004.251.05.53.17.746v32.177a.941.941 0 0 0-.082.392c-.272 3.204-2.71 5.856-6.014 5.951l-.003.007Zm27.133 1.291c.258 1.008-.149 2.068-.736 2.885-2.367 2.917-6.382 3.801-9.972 3.957-2.427.131-4.854-.364-6.948-1.623-2.441-1.213-4.14-3.388-3.202-6.199.05-.176.156-.371.276-.572.131.166.262.339.396.509.711.954 1.805 1.446 2.901 1.814 2.324.894 4.9.972 7.369 1 2.777 0 5.642-.707 7.694-2.673.545-.368.888-.88 1.15-1.45.52.683.718 1.563 1.072 2.348v.004Zm-2.296-40.769v36.72c.003.159.05.29.117.393-.853.3-1.578.901-2.335 1.432v-.004c.067-1.93-.28-3.836-.34-5.763.007-1.415.035-2.829-.003-4.243-.11-1.171-1.645-.831-1.408.311.074 1.442-.046 2.889.017 4.328.075 1.778.379 3.543.319 5.321 0 .34.18.559.414.658-.036.018-.071.039-.11.056-3.97 1.574-10.29.711-13.814-1.668a1.209 1.209 0 0 0-.18-.138V234.55c2.239-2.691 10.669-3.345 13.729-2.019.905.361 1.726.881 2.472 1.5.361.229.715.753 1.122.919Zm-.117-4.703c.039-.007.078-.018.117-.025v.064a1.777 1.777 0 0 0-.117-.039Zm2.36-8.5c.696 1.206 1.057 2.726.498 4.052-.371 1.001-.994 2.143-1.945 2.716-1.755.675-3.672.523-5.515.696-1.935.106-4.022.212-6.018.216-2.773.046-5.727-.007-8.221-1.344-.994-1.018-1.815-2.334-2.137-3.73-.067-1.729.064-3.787 1.776-4.71.202-.12.41-.23.64-.29.032.007.068.014.103.018v2.991c0 .05.007.099.018.145-.103.322.003.711.414.873 1.832 1.128 4.011 1.291 6.088 1.599a17.694 17.694 0 0 0 12.954-2.804c.259-.149.368-.372.368-.594a.714.714 0 0 0 .156-.485v-.007c.336.195.672.393.824.651l-.003.007Zm-4.624-5.643c-.067-.86.173-1.839-.29-2.614-.517-.735-1.649.015-1.178.778.081 2.161.166 4.339.053 6.521 0 .095.014.183.042.258-1.05.64-2.19 1.142-3.4 1.354-2.974.399-6.172-.24-8.574-2.09-.47-.375-.973-.728-1.334-1.213a.676.676 0 0 0-.099-.162v-62.66a.69.69 0 0 0 .138-.148c2.317-1.425 4.815-2.536 7.4-3.374 3.44-1.092 6.549-.392 9.577 1.464l.053.011v63.377c-.018.014-.04.025-.057.043-.573.753-1.213 1.442-1.882 2.111l-.396.307c.05-1.322-.046-2.645-.046-3.963h-.007Zm6.346-69.824c-3.594 1.043-7.053 2.458-10.764 3.09-5.098.842-10.532.609-15.382-1.272-6.696-3.116-13.188-8.437-15.908-15.481a30.46 30.46 0 0 1-.938-2.977c1.433-1.524 2.958-2.959 4.97-3.709 1.784-.651 3.687-.17 5.491.17.057 0 .117.014.173.024.336.294.665.598.973.92.53.604 1.107 1.16 1.705 1.693 1.376 1.609 2.922 3.08 4.726 4.18 1.005.99 1.967 2.037 3.283 2.599 1.794.827 3.768 1.068 5.692 1.425.906.201 1.826.283 2.752.318 1.918.23 3.839.216 5.685-.293 3.124 1.732 5.53 4.522 7.436 7.506.326.453.527 1.001.771 1.517a9.852 9.852 0 0 1-.672.29h.007Zm35.263-2.281c-1.946 2.316-4.546 4.116-7.383 5.212-5.483 2.362-10.747.973-16.117-.933-1.525-.693-3.11-1.27-4.581-2.079-1.727-1.072-3.386-2.256-5.031-3.451-2.243-1.949-4.326-4.166-6.236-6.471a.29.29 0 0 1-.078-.067c-.011-.011-.018-.018-.025-.032-.07-.085-.138-.173-.209-.258a.026.026 0 0 0 .014.014c-.124-.156-.247-.311-.368-.47a13.222 13.222 0 0 1-.665-.997c-.05-.082-.099-.159-.145-.241a3.51 3.51 0 0 1-.063-.109 4.27 4.27 0 0 1-.1-.145.325.325 0 0 1-.049-.145.175.175 0 0 1-.014-.039c-.495-.898-.934-1.839-1.4-2.818-.761-1.563-1.579-3.108-2.05-4.788a41.833 41.833 0 0 1-1.315-6.213c-.28-1.439-.403-2.878-.195-4.342.114-.622.202-1.248.29-1.874 2.208-.604 4.6-.519 6.835-.007 1.065.251 2.24.764 3.244 1.256.177.113.382.24.594.342.007.262.018.524.036.785.081 2.246-.135 4.502.212 6.733.396 2.945.944 5.933 2.469 8.528 1.521 2.613 3.594 4.696 5.986 6.595 2.416 1.761 5.426 2.705 8.415 2.669 2.901.015 7.758-1.446 10.592-3.68.41.127.955.116 1.316.166 1.857.53 3.633 1.556 4.991 2.945.655.697 1.253 1.446 1.85 2.189.078.088.149.18.22.272-.34.488-.683.969-1.037 1.443l-.003.01Zm30.571-23.58c-1.139 7.715-3.661 15.232-11.504 18.361a20.978 20.978 0 0 1-8.978 1.609h-.014a.707.707 0 0 0-.244-.067 22.506 22.506 0 0 1-.86-.078 23.002 23.002 0 0 1-2.353-.488 22.465 22.465 0 0 1-3.42-1.064 25.15 25.15 0 0 1-.98-.431 49.945 49.945 0 0 1-3.563-1.896 33.445 33.445 0 0 1-2.801-1.973c-2.045-1.386-3.934-2.945-5.742-4.6-.092-.092-.184-.18-.272-.269-2.629-2.729-5.197-5.523-7.422-8.595-1.719-2.27-3.555-4.487-5.034-6.945a6.99 6.99 0 0 0-.329-.558c.046-.071.089-.149.117-.23.226-.333.456-.672.736-.966 1.638-1.789 3.895-2.846 6.251-3.345a63.736 63.736 0 0 0 3.643 5.007c4.659 5.711 13.454 14.434 21.374 13.61 5.306-.382 9.881-4.073 12.183-8.751.443-.998.892-2.009 1.224-3.048a.718.718 0 0 0 .404-.644.65.65 0 0 0-.057-.262c.082-.063.159-.134.227-.205a8.725 8.725 0 0 1 1.471-.877c1.528-.505 3.233-.707 4.811-.314.45.145.906.279 1.352.442.014.145.028.286.046.428.13 2.05-.121 4.112-.262 6.159l-.004-.01Zm15.788-26.778c-.456 1.754-1.489 3.462-2.444 5.021-2.406 3.674-5.497 7.037-9.392 9.165-3.538 1.765-7.426 2.907-11.338 3.458-3.577.396-7.196.078-10.751-.371-5.324-.923-10.411-3.225-15.056-5.997-2.402-1.651-4.956-3.101-7.121-5.056a.667.667 0 0 0-.074-.343c-.619-1.365-.156-2.97.555-4.226.407-.505.793-1.043 1.277-1.478.075-.042.145-.088.216-.137 4.27 2.67 9.109 4.36 13.889 5.911 6.583 1.903 13.301 3.222 19.867.39 4.506-2.044 10.319-5.092 10.602-10.686.226-2.224-.888-4.257-2.512-5.707-1.472-1.552-3.201-2.84-5.083-3.85-1.925-1.086-4.062-1.694-6.202-2.203-3.544-.916-7.22-.944-10.846-.669-5.964.29-11.996 1.828-17.352 4.52-.59.37-1.206.713-1.818 1.06-.021-.007-.042-.018-.067-.025-1.815-1.616-2.696-4.47-1.401-6.683h-.007a.828.828 0 0 0 .117-.261c.987-.718 1.966-1.436 3.028-2.08 4.514-2.881 9.42-5.06 14.808-5.777 5.274-.65 10.722-.622 15.912.675 4.57.912 8.961 2.826 12.675 5.707 3.693 2.695 7.606 5.873 8.826 10.48.976 2.953.58 6.22-.304 9.166l-.004-.004Zm-16.124-7.287c.191.417.386.83.573 1.251-2.253 1.55-4.666 2.871-7.107 4.099-4.595 2.425-9.601 3.995-14.677 5.144a.747.747 0 0 0-.421.06c-.325-.007-.672-.032-1.082-.053-1.352.014-2.555-.138-3.885-.558-2.794-.92-6.141-3.09-7.199-5.976 9.354-.262 20.907-3.741 27.42-9.275.52.046 1.051.053 1.535.28 2.165.965 3.902 2.867 4.836 5.031l.007-.003Zm-.672-3.628.12.088-.021.025c-.032-.039-.067-.074-.099-.113Zm-9.848 14.327c1.004-1.343 2.479-1.803 4.075-1.828.017.029.035.057.053.082.449.597.799 1.248 1.118 1.916-.467.445-1.097.704-1.709.888-.824.208-1.687.304-2.526.159a.757.757 0 0 0-.385-.138 25.886 25.886 0 0 0-.626-1.079Zm.06 3.041c-2.296.244-4.649.117-7.012-.371a49.919 49.919 0 0 1-4.995-1.15c2.639-.498 5.211-1.258 7.815-2.022a45.93 45.93 0 0 0 1.666-.548c.785 1.06 1.542 2.132 2.133 3.32.134.188.258.474.393.771Zm5.048-5.894s-.021-.029-.029-.046c-.23-.35-.463-.697-.7-1.04a71.99 71.99 0 0 0 4.245-2.287c1.224-.831 5.243-3.006 6.226-4.438.096.166.188.332.269.51 1.737 4.698-2.724 8.411-6.481 10.349a21.26 21.26 0 0 1-1.486.792c-.01-.018-.017-.036-.031-.053a16.544 16.544 0 0 0-1.171-2.482 77.906 77.906 0 0 0-.842-1.309v.004Zm-5.384-11.757a51.208 51.208 0 0 1-4.472 2.231 1.294 1.294 0 0 0-.106-.039c-1.072-.537-2.282-.841-3.449-1.117a31.472 31.472 0 0 0-4.794-.707c.591-.421 1.164-.898 1.642-1.411.824-.71 1.705-1.362 2.37-2.235.219-.315.517-.573.764-.86.365-.02.729-.042 1.093-.052 3.775-.287 7.694-.07 11.352.965-1.284 1.287-2.855 2.28-4.397 3.228l-.003-.003Zm-11.993-2.928c-1.015.74-2.285.948-3.502 1.125-1.44.272-2.887.226-4.333.123.428-.148.859-.29 1.294-.42a43.517 43.517 0 0 1 7.528-1.747c-.308.329-.647.64-.987.92Zm2.321 5.085c1.1.226 2.193.484 3.269.81.035.007.07.017.109.028-6.187 2.44-12.922 3.702-19.548 3.426a.706.706 0 0 0-.213-.081c-.781-.294-1.715-.888-1.736-1.835-.025-.265.067-.527.219-.768 5.755-1.867 11.872-2.595 17.9-1.58Z"/><path fill="#000" d="M74.78 18.224c1.316-2.114 2.791-4.254 4.847-5.71.722-.58-.135-1.676-.867-1.121-1.836 1.311-3.272 3.147-4.51 5.014-.234.509-.743.884-.733 1.481.054.598.917.838 1.26.336h.003ZM73.17 20.229a.707.707 0 1 0 .001-1.415.707.707 0 0 0 0 1.415ZM81.127 49.906a.707.707 0 1 0 0-1.415.707.707 0 0 0 0 1.415ZM94.435 35.819c.294-.227.379-.7.127-.99-.587-.492-1.294-2.154-2.179-1.52-.297.229-.375.696-.127.99.573.501 1.291 2.142 2.18 1.52ZM38.588 42.357c.081.374.513.59.87.491.502-.134.59-.672.446-1.1-.612-3.016-.46-6.226-.06-9.274-.057-1.019-1.493-.88-1.423.13-.392 2.49-.413 5.029-.205 7.536.092.739.212 1.481.372 2.21v.007ZM40.452 46.458a.707.707 0 1 0 0-1.415.707.707 0 0 0 0 1.415ZM48.075 87.814c1.528.683 2.936 1.673 4.581 2.083 1.256.261 2.555.52 3.821.774.379.06.757-.163.835-.552.074-.364-.17-.77-.552-.834-1.66-.382-3.368-.52-4.953-1.177-.909-.4-1.81-.93-2.716-1.38-.545-.325-1.316-.533-1.536.266a.71.71 0 0 0 .517.824l.003-.004ZM59.862 90.707c.4-.022.669-.361.669-.747 0-.385-.375-.69-.746-.668-.4.021-.669.36-.669.746s.375.69.746.669ZM34.569 99.698c-.407-.753-.64-1.577-.899-2.39-.332-.891-.605-1.8-.555-2.758.028-1.319-1.804-1.195-1.415.064-.035 1.782.732 3.458 1.312 5.112.425.637.733 2.451 1.766 2.02.888-.488.032-1.415-.209-2.048ZM35.584 103.142c-.4.021-.668.361-.668.746 0 .386.375.69.746.669.4-.022.669-.361.669-.746 0-.386-.375-.69-.747-.669ZM72.895 113.096c1.429-.481 2.653-1.362 3.923-2.15.76-.53 0-1.665-.789-1.174-1.224.764-2.37 1.584-3.764 2.058-.82.428-.212 1.655.63 1.266ZM70.082 114.857c.404-.025.662-.365.662-.75s-.382-.686-.75-.661c-.403.025-.662.364-.662.749 0 .386.383.686.75.662ZM82.942 139.749c-.846-.236-1.67-.544-2.491-.852-1.394-.502-2.915-1.248-4.15-2.157-.933-.679-1.768-1.488-2.71-2.153a.714.714 0 0 0-.965.11c-.336.392-.117.954.318 1.159 2.126 1.818 4.38 3.512 7.072 4.388.8.308 1.645.619 2.508.86.371.102.771-.092.884-.467.11-.357-.095-.782-.466-.884v-.004ZM85.255 140.305c-.371-.015-.736.289-.736.675 0 .385.28.721.68.739.37.014.735-.29.735-.675 0-.386-.28-.722-.679-.739ZM99.144 127.031a17.236 17.236 0 0 1-.63-1.765c-.336-1.311-.361-2.63-.269-3.988 0 .032-.007.06-.01.088 0 .007-.004.011-.008.018.167-.746-.888-1.174-1.287-.516-.237.527-.135 1.142-.142 1.704a11.406 11.406 0 0 0 1.015 4.933c.149.353.528.562.906.427.35-.123.577-.551.428-.901h-.004ZM99.303 129.41c-.372-.014-.736.29-.736.676 0 .385.28.721.68.739.37.014.735-.29.735-.676 0-.385-.28-.721-.68-.739ZM151.46 128.767c-.548.237-1.075.523-1.634.735-3.198.856-6.728.87-9.742-.626-.534-.307-1.461-.597-1.681.213a.717.717 0 0 0 .527.852c.114.021.227.06.333.109 2.735 1.383 5.844 1.754 8.851 1.22 1.404-.074 2.692-.59 3.934-1.216.842-.396.269-1.644-.584-1.287h-.004ZM153.65 126.858c-.396.014-.682.346-.682.731 0 .386.36.693.732.683a.717.717 0 0 0 .683-.732c0-.385-.361-.693-.733-.682ZM173.393 81.566c-.226-.322-.516-.767-.803-1.092-2.479-2.582-5.745-4.29-9.144-5.326a.313.313 0 0 1 .049.025c-.827-.392-1.45.8-.661 1.248 1.96.637 3.898 1.404 5.642 2.521 1.061.69 2.073 1.475 2.968 2.37.22.25.414.52.605.792.326.502.789 1.3 1.479.799.488-.386.198-.959-.131-1.333l-.004-.004Z"/><path fill="#000" d="m163.371 75.124.078.025c-.024-.008-.049-.015-.074-.025h-.004ZM173.867 83.688a.717.717 0 0 0-.69.725c0 .385.351.7.726.69.392-.011.69-.34.69-.726 0-.385-.351-.7-.726-.69ZM132.029 29.422a12.9 12.9 0 0 1 4.871.025c.513.07 1.065.375 1.556.099a.717.717 0 0 0 .259-.965c-.269-.467-.846-.304-1.281-.467a14.265 14.265 0 0 0-5.766-.06c-.895.25-.545 1.573.361 1.368ZM128.636 29.567a.716.716 0 0 0 .711-.704.719.719 0 0 0-.704-.71.717.717 0 0 0-.711.704.72.72 0 0 0 .704.71ZM131.855 56.26c-1.008.569-7.17 4.462-5.062 5.65.421.17.892-.113.973-.551.347-.556.856-.994 1.319-1.447 1.044-.95 2.293-1.676 3.51-2.443.785-.495.049-1.676-.74-1.206v-.003ZM134.282 55.164a.717.717 0 0 0-.697.717c0 .386.336.704.718.697a.717.717 0 0 0 .697-.718.712.712 0 0 0-.718-.696ZM115.795 96.385s-.007.004-.007.008l-.004.003.015-.01h-.004Z"/><path fill="#000" d="M114.914 95.282c-1.415 1.015-3.131 1.549-4.793 2.015-.372.103-.627.453-.538.845.081.361.47.64.845.538 1.861-.523 3.796-1.117 5.36-2.288.661-.58-.156-1.616-.871-1.11h-.003ZM108.228 97.796c-.371-.018-.743.283-.743.668 0 .386.269.722.669.743.371.017.743-.283.743-.669 0-.385-.269-.72-.669-.742ZM85.899 70.555c1.263-.799 2.635-1.12 4.043-1.605l-.038.01c.856-.264.512-1.559-.354-1.364-.251.085-.495.198-.754.258a13.15 13.15 0 0 0-3.555 1.453.715.715 0 0 0-.297.955c.177.336.619.48.955.293ZM92.684 68.09c.371.019.743-.282.743-.668 0-.385-.269-.72-.669-.742-.371-.018-.743.283-.743.668 0 .386.27.722.669.743ZM94.959 159.49c.137-.746-.29-1.852-1.193-1.333-.304.212-.371.601-.212.916.007.407-.039.817-.067 1.22-.131 2.726.099 5.449.095 8.182 0 .93 1.37.965 1.415.042.004-3.009-.283-6.011-.038-9.023v-.004ZM94.092 170.43c-.375-.01-.729.301-.729.686a.72.72 0 0 0 .687.729c.374.01.728-.301.728-.686a.72.72 0 0 0-.686-.729ZM93.094 209.403c-.375-.011-.728.301-.728.686 0 .385.293.714.686.728.375.011.728-.3.728-.685a.72.72 0 0 0-.686-.729ZM92.836 258.732c-.711.64.421 1.875 1.121 1.224.712-.644-.42-1.874-1.12-1.224ZM64.635 176.802c.371-.085.626-.481.53-.849-.357-1.594-.782-3.175-1.199-4.755-.46-1.072-2.066-.237-1.277.707.248 1.089.633 2.146.824 3.253.18.626.184 1.814 1.118 1.644h.004ZM65.105 177.661c-.375-.01-.729.301-.729.686a.72.72 0 0 0 .687.729c.375.01.728-.301.728-.686a.72.72 0 0 0-.686-.729ZM41.938 189.584c-.757.358-1.493.764-2.222 1.178-.686.498-3.166 1.1-2.466 2.238.22.311.676.4.987.173.439-.311.927-.534 1.408-.778.807-.403 1.574-.876 2.377-1.28.33-.191.765-.268.942-.643.314-.668-.5-1.245-1.026-.888ZM34.873 193.279c-.375-.01-.728.301-.728.686a.72.72 0 0 0 .686.729c.375.01.729-.301.729-.686a.72.72 0 0 0-.687-.729ZM31.728 159.992c.322.93.637 1.867.803 2.84.05.392.365.71.779.668 1.199-.219.34-1.842.208-2.602-.36-.962-.576-1.977-.923-2.935-.191-.336-.608-.481-.955-.297-.333.173-.488.619-.297.955.159.441.212.929.389 1.371h-.004ZM33.1 164.999a.72.72 0 0 0 .687.729c.375.01.729-.301.729-.686a.72.72 0 0 0-.686-.729c-.375-.01-.73.301-.73.686ZM14.186 174.083c.442-.191.891-.354 1.351-.499.725-.24 1.567-.268 2.147-.809.672-.637-.272-1.662-.955-1.043-.951.445-2.08.534-3.038 1.025-.86.354-.383 1.634.491 1.326h.004ZM11.09 173.892c-.375-.011-.728.301-.728.686 0 .385.293.714.686.728.375.011.729-.3.729-.686a.719.719 0 0 0-.687-.728ZM110.382 207.091c-.707-.605-2.586-3.391-3.332-1.616-.078.385.17.721.531.824.123.021.205.141.297.219.866.898 1.705 1.824 2.646 2.645a.712.712 0 0 0 .997-.068c.641-.862-.696-1.417-1.139-2.008v.004ZM111.974 209.739a.719.719 0 0 0-.492.24.738.738 0 0 0-.173.506c0 .385.379.686.747.665a.713.713 0 0 0 .491-.241.731.731 0 0 0 .174-.505c0-.386-.379-.686-.747-.665ZM124.197 184.677c.336.162.792.028.948-.326.399-1.004.965-1.952 1.333-2.956.191-1.085-1.478-1.329-1.447-.169-.392.83-.803 1.658-1.16 2.506-.152.354-.032.771.326.948v-.003ZM126.708 178.86a.717.717 0 0 0 .492-.24.738.738 0 0 0 .173-.506c0-.385-.378-.686-.746-.665a.714.714 0 0 0-.492.241.735.735 0 0 0-.173.505c0 .386.378.686.746.665ZM147.491 203.244c-1.033-.647-1.938-1.56-3.056-2.037-.612-.166-1.178.552-.81 1.089a.714.714 0 0 0 .534.315c.272.173.527.374.789.565.679.492 1.376.959 2.048 1.461.449.325.962.993 1.539.502.778-.803-.488-1.45-1.044-1.895ZM142.015 199.704a.716.716 0 0 0-.492.241.735.735 0 0 0-.173.505c0 .386.379.686.747.665a.716.716 0 0 0 .491-.24.734.734 0 0 0 .174-.506c0-.386-.379-.686-.747-.665ZM156.36 179.334c.347.17.778.021.948-.325.41-.87.817-1.747 1.189-2.635.396-1.128-1.359-1.566-1.391-.332a63.333 63.333 0 0 1-1.068 2.344.72.72 0 0 0 .326.948h-.004ZM155.645 181.954a.714.714 0 0 0 .492-.241.735.735 0 0 0 .173-.505c0-.386-.378-.686-.746-.665a.717.717 0 0 0-.492.24.738.738 0 0 0-.173.506c0 .386.378.686.746.665ZM61.893 229.441a54.851 54.851 0 0 0-3.488-.244c-1.093-.074-2.193-.085-3.283-.173-.389-.124-.82.099-.92.498-.187.891.878.973 1.511.959 1.09.035 2.183.106 3.272.152.916.053 1.836.113 2.752.212a.712.712 0 0 0 .782-.626.715.715 0 0 0-.626-.781v.003ZM63.69 229.66a.714.714 0 0 0-.693.722c0 .385.343.7.721.693a.714.714 0 0 0 .694-.722c0-.385-.343-.7-.722-.693ZM64.355 263.69c-1.32.046-2.667-.417-3.81-1.05-.665-.393-1.086-1.051-1.634-1.563-.4-.258-.945.01-1.054.445-.071.28.038.566.254.732 1.43 1.913 3.934 2.868 6.276 2.847.93-.05.895-1.422-.032-1.415v.004ZM67.274 263.418a.713.713 0 0 0-.694.721c0 .385.344.7.722.693a.714.714 0 0 0 .693-.721c0-.386-.343-.701-.721-.693Z"/></g><defs><clipPath id="a"><path fill="#fff" d="M0 0h185v284H0z"/></clipPath></defs></svg>