<svg xmlns="http://www.w3.org/2000/svg" width="320" height="392" fill="none"><g clip-path="url(#a)"><path fill="#CE6AE2" d="M109.158 29.652c1.247 2.297 2.422 4.642 3.539 6.925 1.609 3.702 2.94 7.525 4.303 11.326 1.787 5.05 2.815 10.309 3.253 15.627a.86.86 0 0 1 .152.3c.353 1.11.465 2.207.965 3.245 0-.004-.004-.008-.009-.013l-.013-.027c.817 1.764 2.051 3.5 3.86 4.32 1.117.273 2.288.22 3.423.367.259.005.545.036.795.116 2.328-.125 4.638.332 6.627 1.652.969.555 1.787 1.388 2.873 1.706 2.631.326 5.263-.68 7.56-1.89 4.593-2.815 5.867-4.113 5.366-9.673-.027-3.24-.031-6.59-.344-9.803-.246-2.19-.661-4.352-.974-6.532-1.086-5.22-2.98-10.237-4.736-15.26-1.622-4.369-2.842-8.93-5.192-12.982-2.726-5.613-5.608-10.443-10.711-14.226a27.404 27.404 0 0 0-4.414-2.686c-1.457-.506-3.07-.344-4.567-.103-2.564.909-4.928 2.673-7.05 4.2-.729.563-1.515 1.105-1.975 1.924-.345.55-.407 1.2-.532 1.818-.291 1.217-.724 2.43-1.488 3.428a13.146 13.146 0 0 1-1.412 1.572.96.96 0 0 1-.17.22c-3.802 3.63-2.042 8.375-.049 12.44.161.595.8 1.351.907 2.01h.013Zm26.211 25.22c-.894.108-1.037-.76-1.153-1.432-.223-1.07-.442-2.037-.652-3.075-.398-1.59-.626-3.205-1.059-4.781-.157-.461.165-.976.616-1.106 1.131-.268 1.265 1.146 1.426 1.934.237 1.334.608 2.784.862 4.07l.532 2.484c.183.765.465 1.67-.572 1.902v.005Zm-.206-38.72c.488 0 .894.406.894.894a.903.903 0 0 1-.894.896.902.902 0 0 1-.893-.896c0-.488.406-.895.893-.895ZM127.947 6.2c.702.134 1.193.654 1.658 1.16.599.622 1.202 1.235 1.787 1.87 1.108 1.137 1.948 2.62 2.806 3.913.161.22.268.47.228.743-.071.757-1.157 1.061-1.59.425-.782-1.164-1.479-2.39-2.386-3.464-.961-.932-1.85-2.248-2.976-2.92-1.117-.34-.666-2.014.473-1.727Zm-9.258 8.94c1.627 1.262 2.569 3.137 3.82 4.731 1.466 1.683 2.427 3.635 3.361 5.64 1.881 3.277 3.623 6.617 5.013 10.135.237.605.42 1.213.621 1.777.241.694.809 1.701-.116 2.131-.429.184-1.01-.004-1.175-.465-.295-.81-.577-1.62-.858-2.436-.389-1.043-.854-2.045-1.314-3.057-1.403-3.442-3.521-6.509-5.044-9.893-.742-1.437-1.855-2.596-2.757-3.921-.747-1.035-1.408-2.154-2.364-3.013-1.22-.636-.407-2.368.809-1.638l.004.008Z"/><path fill="#F2B2FF" d="M28.986 46.246h-.01l.005.005.005-.005Z"/><path fill="#CE6AE2" d="M43.056 105.358c.344-7.184-1.327-14.356-3.342-21.191-2.4-7.767-5.791-15.149-9.929-22.123-1.783-3.366-4.012-6.473-6.43-9.36-2.095-2.834-4.803-5.175-7.98-6.675-.952-.255-1.961-.22-2.89-.618a.87.87 0 0 1-.778.117 5.923 5.923 0 0 1-.255-.099c-1.42.412-2.94.202-4.379.524-.053.023-.103.054-.156.08a4.156 4.156 0 0 1-.201.104c-2.221 1.181-3.637 3.482-3.852 5.998-.661 2.516-1.184 5.058-1.1 7.677.086 3.89.448 7.65 1.39 11.433.903 5.22 2.221 10.43 4.397 15.243 2.681 5.752 5.898 11.271 9.656 16.383 1.787 2.767 3.811 5.336 5.974 7.798 2.078 2.525 4.553 4.817 7.314 6.549 1.426.694 2.847 1.737 4.487 1.724a8.76 8.76 0 0 0 2.395-.394.835.835 0 0 1 .688-.282h.067c.085-.036.17-.063.254-.103 3.097-1.124 3.503-4.127 4.049-6.974.415-2.01.594-3.823.62-5.811Zm-18.686 1.334c-.344.327-.943.336-1.265-.031-.75-.846-1.56-1.634-2.279-2.511-.665-.806-1.228-1.693-1.76-2.588a.901.901 0 0 1-.425-.913.904.904 0 0 1 .948-.743c.732.04 1.063.832 1.394 1.392.424.667.884 1.307 1.385 1.916.648.765 1.367 1.464 2.028 2.211.327.363.331.923-.03 1.267h.004Zm1.961 2.57c-.5-.023-.858-.443-.858-.931 0-.488.456-.878.93-.86.5.022.858.443.858.931 0 .488-.456.878-.93.86Zm1.904-42.146c-.29-.65-.622-1.276-.93-1.912-1.063-2.126-2.614-3.921-3.977-5.846a.879.879 0 0 1-.563-.82c0-.47.407-.921.894-.894.59.009 1.05.519 1.327.97.443.681.956 1.304 1.47 1.926 1.095 1.495 2.087 3.08 2.878 4.758.353.708 1.103 1.809.067 2.297a.904.904 0 0 1-1.17-.475l.004-.004Zm2.627 2.166c-.728.918-2.145-.174-1.434-1.11.728-.918 2.144.175 1.434 1.11Z"/><path fill="#F2B2FF" d="M131.321 176.485h-.005v.005l.005-.005Z"/><path fill="#CE6AE2" d="M45.08 81.597c-1.166-3.451-2.475-6.849-3.736-10.264-1.313-3.546-2.56-7.172-4.36-10.47C34.62 56.197 26.397 43.6 21.317 42.821c-1.649.224-3.244.841-4.938.649-.835.148-1.675.304-2.51.47.647.139 1.201.098 1.822.278.715.21 1.328.635 1.97 1.002 2.132 1.173 4.09 2.709 5.644 4.584 1.72 2.086 3.44 4.186 5.04 6.366 1.55 2.336 2.887 4.803 4.277 7.234 3.744 6.477 6.68 13.384 8.887 20.529 1.872 6.155 3.19 12.453 3.418 18.89-.009 3.77-.335 7.525-1.273 11.183-.233 1.164-.648 2.292-1.323 3.259 1.93-.708 3.73-1.625 5.487-2.704.585-.972.885-2.086 1.162-3.178.446-1.54.866-3.089 1.032-4.687.41-3.447-.05-6.885-.737-10.265-.88-5.08-2.467-10.005-4.192-14.848l-.004.013Z"/><path fill="#F2B2FF" d="M145.753 166.592c-.777 1.079-1.604 2.117-2.565 3.026-1.349 1.423-2.747 2.793-4.039 4.275-1.01 1.173-2.077 2.458-2.104 4.087-.063 1.979.795 4.177 2.453 5.318.098.076.174.161.232.246 1.202.528 2.444.945 3.7 1.24 5.634 1.003 11.456-.282 16.89-1.768a35.289 35.289 0 0 0 2.64-.873c.099-.054.197-.107.282-.157 2.654-1.745 4.258-5.403 2.922-8.415-.603-1.245-1.716-2.127-2.618-3.143a.81.81 0 0 1-.394-.407c-4.262-3.375-8.431-6.957-13.319-9.329-.009.018-.014.036-.023.054-.071.138-.147.277-.219.42l.054-.107c-1.037 2.01-2.373 3.845-3.883 5.528l-.009.005ZM135.848 181.316v-.01h-.005s.005 0 .01.005l-.005.005Z"/><path fill="#CE6AE2" d="M139.672 196.96c5.554 1.961 11.787 2.359 17.448.873 4.728-1.159 8.727-3.706 12.833-6.159 3.163-1.907 6.376-3.743 9.709-5.341 1.917-.85 3.87-1.594 5.706-2.623.318-.179.697-.376 1.104-.595-.88-1.017-1.81-1.93-3.052-2.566a9.924 9.924 0 0 0-1.3-.568c-3.141-.134-6.318-.425-9.343.631-3.387.846-6.425 2.297-9.584 3.644-2.06.743-4.232 1.155-6.35 1.661h.014l-.063.013c-.013 0-.022.005-.036.009h.009c.009 0 .018 0 .027-.004.018 0 .036-.009.054-.014-1.788.376-3.436.752-5.246.851-.366.058-.818.112-1.197.045-3.034.282-6.068.165-8.968-.708-5.407-1.781-10.769-5.51-12.69-11.079-.353-1.638-.616-3.438-.183-5.081.156-.394.272-.783.491-1.15.291-.367.89-.466 1.256-.143.621.487.237 1.181-.018 1.754-.286.806-.134 1.657-.067 2.485-.013.667.139 1.298.358 1.907.169-.045.348-.076.522-.117 1.957-.331 3.624-1.289 5.201-2.426 3.043-1.898 5.639-4.275 8.106-6.827.156-.21.308-.425.455-.644.51-.833 1.095-1.63 1.64-2.444-.201-.264-.397-.551-.648-.73-1.358-1.262-3.168-2.095-5.04-2.014-1.036-.009-2.037.241-2.971.685-.148.094-.308.196-.478.282-.264.362-.527.725-.8 1.083-1.291 1.652-3.651 1.235-5.496 1.576-.992.286-1.854.935-2.766 1.414-.585.363-.951.967-1.425 1.455-.804.851-1.689 1.674-2.23 2.735-1.827 3.81-2.055 8.344-.795 12.36 2.39 7.171 8.927 13.026 15.826 15.775l-.013-.005Zm12.685-2.287c1.046-.023 2.073-.287 3.088-.52 2.31-.555 4.557-1.351 6.653-2.475.684-.358 1.416-.658 2.055-1.097a.892.892 0 0 1 .483-.438c.733-.291 1.474.546 1.117 1.244-.331.671-1.073.985-1.703 1.307-1.867.963-3.757 1.912-5.772 2.534-1.238.34-8.463 2.538-8.316.318.094-1.205 1.609-.788 2.391-.873h.004Zm-4.651-.582c.5.018.858.443.858.931 0 .488-.456.877-.93.859-.5-.018-.858-.443-.858-.931 0-.488.456-.877.93-.859ZM123.622 241.08c8.427 2.91 17.341 3.881 26.197 4.235 7.717.094 15.465-.013 23.119-1.092 5.428-.64 10.826-1.513 16.125-2.767 2.516-.604 4.965-1.428 7.489-1.992.393-.031.885-.17 1.354-.241a27.126 27.126 0 0 1-2.364-5.01 1.51 1.51 0 0 1-.67.094c-1.912.162-3.807.511-5.706.788-2.882.443-5.804.587-8.695.954-12.02 1.316-24.155 2.717-36.237 1.643-7.105-.735-14.111-2.377-20.889-4.62-5.809-1.741-11.041-4.965-15.719-8.743-.045.417-.063.842-.072 1.263.107 2.198.612 4.548 1.685 6.468.366.645.808 1.231 1.228 1.84.979.783 2.011 1.509 3.012 2.234 3.119 2.162 6.591 3.679 10.138 4.946h.005Zm46.246-.989c.465-.027.943.358.943.846s-.335.913-.845.945c-.464.026-.943-.359-.943-.846 0-.488.336-.914.845-.945Zm-13.825 1.853c2.891.085 5.76-.282 8.642-.416 1.166-.036 1.273 1.692.098 1.791-3.664.205-7.319.631-10.987.317-.224-.022-.443.036-.666.041-.487-.018-.862-.488-.827-.958.201-1.495 2.704-.623 3.745-.77l-.005-.005ZM109.409 94.673c.044-.054.085-.117.134-.17a.881.881 0 0 1 .572-.314c1.876-1.459 2.908-3.76 3.963-5.85 1.926-3.188 2.985-6.823 3.86-10.39.782-3 .827-6.115.796-9.195-.014-.47-.04-.944-.058-1.414v-.005a.856.856 0 0 1-.027-.649c-.13-2.704-.344-5.403-.733-8.085-.791-4.754-2.243-9.369-3.95-13.868-2.127-6.2-4.995-12.117-8.378-17.722-1.152-2.077-2.645-3.917-3.981-5.873-1.251-2.05-2.931-3.77-4.638-5.444-3.632-3.196-9.08-4.333-13.784-3.88-3.521.67-6.779 2.26-10.099 3.558-8.677 3.76-17.403 7.315-26.21 10.74-.067.049-.139.093-.228.13-6.497 1.772-4.267 10.496-7.904 14.897-.3.443-.657.85-1.041 1.217-2.614 2.856-4.544 4.857-3.267 8.994.286 1.1.742 2.148 1.207 3.182.165.38.33.748.47 1.137a.306.306 0 0 1 .008.09c4.298 6.562 6.532 14.181 9.325 21.465 1.274 3.617 2.574 7.27 3.678 10.976.218.336.348.81.536 1.15 1.153 1.782 2.538 3.582 4.008 5.04 1.706 1.612 3.543 2.902 5.697 3.77 1.698.73 3.454.775 5.187 1.258 1.292.318 2.511.833 3.74 1.32.3.094.617.269.822.515 1.43.734 2.802 1.603 4.147 2.485 3.297 1.992 6.716 1.011 10.192.429 8.954-2.153 17.864-5.031 25.96-9.485l-.004-.01Zm1.286-45.705c0 .488-.335.918-.84.945-.464.027-.942-.354-.942-.842s.335-.918.84-.944c.464-.027.942.353.942.841ZM97.112 21.881c.974.005 1.542.967 2.082 1.638 3.445 4.781 6.658 9.817 8.687 15.373a81.403 81.403 0 0 1 1.693 4.355.906.906 0 0 1-.559 1.137.907.907 0 0 1-1.134-.56 75.148 75.148 0 0 0-1.386-3.612c-1.532-4.167-3.57-8.04-6.023-11.683-1.153-1.634-2.162-3.398-3.507-4.884a.897.897 0 0 1-.697-.824.901.901 0 0 1 .84-.945l.004.005Zm-.688 73.629c1.439-.52 2.846-1.133 4.231-1.786 1.533-.886 3.392-1.37 4.643-2.641.88-.663 1.917.546 1.22 1.365-1.832 1.598-4.33 2.43-6.488 3.532-.965.425-1.94.85-2.936 1.19-.46.157-.974-.017-1.166-.487-.174-.43.027-1.012.487-1.169l.009-.004Zm-3.248 1.115c.487 0 .893.407.893.895a.903.903 0 0 1-.893.895.903.903 0 0 1-.894-.895c0-.488.407-.895.894-.895Zm-30.228-22.27c-.96.116-1.05-.784-1.206-1.46-.912-3.554-1.989-7.06-3.141-10.542-3.142-8.958-7.342-17.624-13.427-24.943-1.198-.26-.814-1.965.397-1.786.425.036.742.376 1.01.68.925 1.066 1.76 2.203 2.578 3.353a68.324 68.324 0 0 1 5.822 9.62c3.025 5.81 5.273 11.934 7.105 18.197.514 1.656.974 3.37 1.398 5.04.215.721.434 1.616-.536 1.845v-.005Zm2.458 15.031a.904.904 0 0 1-.93-.86c-.04-.966-.102-1.929-.2-2.887-.09-.882-.162-1.768-.255-2.64-.027-.148-.014-.314-.099-.444a.905.905 0 0 1 .273-1.235c1.899-.752 1.573 2.274 1.774 3.38.125 1.253.237 2.502.286 3.76a.903.903 0 0 1-.858.926h.009ZM115.762 249.102a5.677 5.677 0 0 1-.688-.336l1.877 7.239c.143.582.299 1.159.456 1.737 2.98 3.335 7.109 5.448 11.394 6.562 3.123.922 7.104 1.486 10.393.596 1.979-2.176.259-6.182-1.761-8.063-2.538-2.175-6.027-2.6-9.128-3.536-4.205-1.325-8.468-2.502-12.538-4.194l-.005-.005ZM146.781 281.324a.887.887 0 0 1 .219.488c.424 2.448.956 4.794 1.313 7.229.309 1.643.496 3.313 1.001 4.911.036.291.143.618.233.944a.92.92 0 0 1 .075.242c.97 4.835 1.984 9.835 2.95 14.652.335.599.522 1.472.938 1.884.576.564 1.331 1.079 2.118 1.285 1.179.282 2.1-.533 2.676-1.468a.863.863 0 0 1 .353-.233c5.295-9.257 12.333-18.519 3.892-27.504-1.439-1.624-3.239-2.941-4.432-4.771-3.727-5.457-1.707-11.948.603-17.696v-.134c.214-1.652-.67-3.389-1.747-4.566-.872-.873-2.212-1.357-3.383-1.589-.29-.036-.581-.108-.871-.063a.963.963 0 0 1-.357-.058c-3.615.179-7.243.201-10.849-.009 1.023 5.04 2.028 10.085 3.047 15.13.072.345.134.672.192.958.022.041.049.081.063.13.317 1.007.652 2.046.862 3.071.04.157.085.336.112.519a8.79 8.79 0 0 1 1.112 5.932c-.035.246-.076.483-.12.716Zm13.529 16.652a.902.902 0 0 1-.875-.913c0-.488.433-.886.911-.877a.903.903 0 0 1 .876.913c0 .488-.433.886-.912.877Zm-4.119-14.951c.076-.466.545-.842 1.023-.743.621.125.84.716 1.126 1.204.237.354.496.685.764 1.016 2.243 2.91 4.629 6.294 3.776 10.175-.206 1.155-1.917.891-1.765-.277.103-.766.205-1.549.067-2.315-.411-2.78-2.391-4.937-3.995-7.122a7.39 7.39 0 0 1-.701-1.132.88.88 0 0 1-.3-.806h.005Z"/><path fill="#F2B2FF" d="M119.699 248.543c6.626 2.399 13.74 3.876 20.719 4.512 7.046.421 14.115.049 21.117-.739 4.276-.447 8.521-1.047 12.703-1.965 8.499-1.992 17.055-4.118 25.044-7.699.259-.108.523-.247.791-.385a23.56 23.56 0 0 1-1.09-1.411.752.752 0 0 1-.313.099c-4.388.573-8.516 2.372-12.895 3.039-9.102 1.751-18.271 3.018-27.538 3.062-14.749.359-31.188-.832-44.177-8.411-1.001-.671-2.037-1.356-3.052-2.081.032.769.21 1.535.394 2.283.683 1.974 1.175 4.06 2.207 5.891.259.581.786 1.105 1.045 1.701 1.604.85 3.356 1.454 5.041 2.099l.004.005Zm7.694-.891c.465-.027.943.358.943.846s-.335.913-.844.944c-.465.027-.943-.358-.943-.846s.335-.913.844-.944Zm-11.304-3.962c1.278.143 2.399 1.168 3.619 1.598.831.34 1.68.64 2.538.887.791.268 2.337.205 2.149 1.414-.398 1.379-2.167.309-3.105.17-1.94-.492-3.637-1.593-5.456-2.332-.916-.309-.693-1.719.255-1.737Z"/><path fill="#CE6AE2" d="M101.478 196.374c.089.197.178.389.29.546.719 1.526 1.97 2.757 3.025 4.065 2.457 3.07 5.447 5.806 9.106 7.336 3.485 1.491 7.677 2.686 11.305 1.079 1.139-.371 2.127-1.052 2.944-1.925a4.19 4.19 0 0 0 1.269-1.674c.09-.197.166-.421.259-.635-.598-2.977-1.197-5.954-1.8-8.931-.286-.528-.393-1.316-.657-1.777-.684-1.625-1.627-3.169-2.471-4.651.018.031.022.04.04.067-2.591-4.203-4.262-9.034-4.486-13.971.036-2.337.089-4.844.072-7.145-.009-2.896.397-5.788.214-8.679l-.469-2.342a51441.79 51441.79 0 0 0-5.326-26.433c-1.56-7.709-3.115-15.466-4.665-23.161a1 1 0 0 1-.282-.265c-2.649-1.808-5.898-2.569-9.048-2.936-3.681-.345-7.287.752-10.487 2.48-3.159 1.665-6.13 3.921-8.092 6.938-.424.573-.705 1.227-1 1.876a2.495 2.495 0 0 1-.335.757l1.608 6.204 8.633 33.282c2.917 11.268 5.853 22.535 8.766 33.802.532 2.033 1.05 4.069 1.582 6.102l.005-.009Zm-12.243-56.449c-.201-.819-.456-1.624-.689-2.435-.866-3.057-1.595-6.182-2.69-9.141-.013-.953 1.364-1.217 1.761-.376.773 2.136 1.448 4.334 1.953 6.549.424 1.652.965 3.273 1.39 4.925.111.461-.144.971-.626 1.101-.46.125-.983-.152-1.1-.627v.004Zm1.653 4.772a.903.903 0 0 1-.894-.895c0-.488.407-.895.894-.895.487 0 .893.407.893.895a.903.903 0 0 1-.893.895Z"/><path fill="#F2B2FF" d="M128.073 232.656c7.015 1.969 14.199 3.424 21.492 3.581 10.987.273 21.907-.954 32.796-2.207 3.155-.242 6.287-.627 9.406-1.142 1.081-.147 2.154-.335 3.244-.376a19.26 19.26 0 0 1-.188-.694 25.81 25.81 0 0 1-.384-7.784c-6.609.877-13.284 1.679-19.951 1.755-8.842-.076-17.756-.35-26.496-1.63-9.004-1.558-18.101-3.42-26.474-7.176-5.242-2.198-10.34-4.906-14.495-8.845-2.686-2.659-5.246-5.578-6.796-9.056v.004c-.376.52-.434 1.164-.621 1.76-1.363 3.321-1.412 7.135-.43 10.564 1.931 5.914 7.217 9.728 11.958 13.349 5.044 3.881 10.853 6.285 16.939 7.897Zm-6.319-7.928c.465-.027.943.358.943.846s-.335.913-.844.944c-.465.027-.943-.358-.943-.846s.335-.913.844-.944Zm-16.889-8.653a.904.904 0 0 1-.376-1.2c.335-.658 1.207-.582 1.636-.072 2.564 2.852 5.857 4.942 9.195 6.778.97.532 1.957 1.025 2.949 1.504.438.21.603.783.385 1.204a.904.904 0 0 1-1.202.389 67.387 67.387 0 0 1-2.547-1.284c-3.016-1.612-5.912-3.47-8.485-5.73-.55-.502-1.042-1.057-1.555-1.589ZM136.839 204.266c.004.031.013.063.018.094h.049l-.067-.094Z"/><path fill="#CE6AE2" d="M139.614 220.726c4.647 1.016 9.325 1.902 14.061 2.332.791.081 1.582.152 2.373.215.138-.17.286-.336.389-.51.612-.954.643-2.149.571-3.25-.053-.721-.308-1.393-.656-2.019a3.392 3.392 0 0 1-.228-.238c-2.838-1.683-5.961-2.869-8.82-4.507-1.891-1.039-3.767-2.158-5.505-3.452a.853.853 0 0 1-.608-.112c-1.13.072-2.046 1.925-2.431 2.861-.406 1.634-.621 3.335-.469 5.018-.009.976.112 1.97.751 2.749.214.394.348.604.563.917l.009-.004Z"/><path fill="#F2B2FF" d="M261.824 299.292c-.563.623-1.126 1.254-1.685 1.871-2.913 3.277-5.79 6.594-8.386 10.135-2.056 3.098-3.95 6.285-5.952 9.414-4.45 7.391-10.353 13.85-17.1 19.209a.978.978 0 0 1-.295.64c-2.23 1.987-3.887 4.427-5.563 6.858-.049.089-.094.179-.143.273a43.12 43.12 0 0 0 1.028-.466c1.93-.926 3.74-2.081 5.567-3.196 4.513-3.129 8.588-6.75 12.373-10.685 1.778-1.612 3.57-3.295 5.143-5.094 3.016-3.34 5.808-6.876 9.088-9.961 2.645-2.511 5.054-5.255 7.949-7.493 1.814-1.58 3.552-3.026 5.246-4.692 2.48-2.52 5.594-5.188 5.598-9.024a5.193 5.193 0 0 0-.187-1.182.79.79 0 0 1-.152-.125c-.224-.381-.657-.493-1.059-.573-.599-.166-1.198-.273-1.819-.22-2.949-.304-5.581 1.281-7.855 2.982-.518.295-1.166 1.052-1.801 1.334l.005-.005Zm-16.175 26.984c-.469.027-.938-.358-.938-.846s.339-.913.844-.94c.469-.027.938.358.938.846s-.339.914-.844.94Zm8.99-12.346c-.576.981-1.457 1.755-2.02 2.753-1.264 2.221-2.319 4.58-3.807 6.666a.906.906 0 0 1-1.246.219.905.905 0 0 1-.215-1.249c.747-1.061 1.394-2.18 1.993-3.33 1.032-1.943 2.006-3.94 3.508-5.573.268-.529.782-1.026 1.403-.694a.907.907 0 0 1 .384 1.208Z"/><path fill="#CE6AE2" d="M227.709 271.176c-1.09 1.71-2.556 3.205-3.669 4.87-2.663 3.85-5.357 7.655-8.051 11.446.473-.08.956-.085 1.43.014 1.648.609 2.462 2.596 2.841 4.199.188.935.041 2.193.948 2.73 2.234.502 5.062-2.645 6.604-4.051 4.106-4.091 5.393-9.893 6.202-15.43.227-1.939.464-3.877.706-5.815.353-3.241.357-6.531.719-9.777a132.642 132.642 0 0 1-7.234 11.491.866.866 0 0 1-.496.327v-.004Zm-2.864 19.257c-.505-.022-.849-.452-.849-.935 0-.484.469-.873.934-.851.505.023.849.452.849.936 0 .483-.47.873-.934.85Zm5.067-10.475c.08-1.168 1.809-1.087 1.787.09.027 1.397-.773 2.637-1.287 3.899-.491 1.03-.956 2.077-1.666 2.977-.474.649-1.077 1.826-2.002 1.106-.541-.444-.273-1.151.134-1.567.876-1.079 1.501-2.315 2.06-3.581.366-.949.992-1.881.974-2.919v-.005ZM196.959 315.649c.009.023.022.045.031.072 1.613 1.983 4.343 2.843 6.417.931 3.203-2.583 3.699-6.862 4.723-10.578.746-3.169 1.282-6.441 2.077-9.588.148-.551.277-1.111.411-1.675-3.364 4.387-6.751 8.77-9.682 13.457a54.667 54.667 0 0 0-3.977 7.381Zm8.217-8.935c.505.023.849.452.849.936 0 .483-.469.873-.934.85-.505-.022-.849-.452-.849-.935 0-.484.469-.873.934-.851ZM262.293 314.691a2.114 2.114 0 0 1-.657.399c-.978.944-1.894 1.952-2.846 2.914-2.015 1.911-4.071 3.89-5.88 5.981-2.493 2.856-4.915 5.783-7.623 8.442-1.376 1.307-2.81 2.547-4.088 3.948-.814.797-1.64 1.585-2.485 2.359-.018.041-.035.081-.062.121-1.47 2.346-2.757 5.135-2.507 7.964.84-.448 1.676-.918 2.391-1.553 3.806-3.362 7.314-7.064 10.415-11.089 3.28-3.317 6.881-6.379 10.616-9.176.143-.108.282-.22.425-.327.009-.005.013-.014.022-.018 1.975-1.495 3.928-3.022 5.903-4.521 1.885-1.616 3.306-3.376 4.754-5.323.357-.528.545-1.155.59-1.79-2.23-1.786-6.814.443-8.972 1.665l.004.004Zm2.945 2.637c-1.189.224-1.578-1.876-.38-2.086 1.188-.224 1.577 1.871.38 2.086ZM223.567 341.47c7.06-4.737 13.155-10.927 18.195-17.745 3.23-4.871 6.063-9.974 9.45-14.732 3.499-4.463 7.261-8.711 11.095-12.888 1.791-2.167 3.847-4.091 5.464-6.397 1.086-1.737 2.426-3.124 2.949-5.094.487-2.104-.688-4.951-3.159-4.79-2.645.081-4.598 2.077-6.559 3.613-1.551 1.325-2.61 3.115-3.776 4.763-3.874 5.635-6.689 11.898-9.901 17.914-1.855 3.38-3.874 6.657-6.001 9.876-1.479 2.417-2.94 4.843-4.656 7.104-3.463 4.575-7.431 8.818-11.903 12.413-.353.282-.711.546-1.073.801a.946.946 0 0 1-.085.22l.027-.041-.04.072.013-.027c-1.121 1.75-2.144 3.657-2.707 5.649-.076.309-.126.726-.188 1.16.107-.076.228-.135.353-.175.862-.519 1.684-1.106 2.507-1.687l-.005-.009Zm33.668-49.251c1.421-2.569 3.463-4.821 5.679-6.687.568-1.025 2.1-.224 1.586.828-.375.667-1.179 1.097-1.662 1.62-1.363 1.339-2.627 2.762-3.619 4.392-.322.6-.791 1.468-1.6 1.056-.415-.215-.63-.783-.384-1.209Zm-.272 3.295c-.09 1.204-1.859 1.106-1.788-.094.09-1.204 1.859-1.106 1.788.094ZM148.211 158.095c6.005 2.154 10.88 6.478 15.839 10.359.948.81 1.917 1.612 2.905 2.373.205.098.402.255.59.452 2.542 1.911 5.254 3.576 8.261 4.651 2.869.828 5.773 1.065 8.731 1.119 1.247-.125 2.449-.412 3.655-.694.711-.192 1.479-.278 2.091-.707-.21.022-.415.022-.603-.014-3.105.318-6.278-.067-9.186-1.222-2.154-1.011-4.138-2.372-6.104-3.697-3.977-2.364-7.632-5.202-11.171-8.174-2.984-2.776-5.889-5.771-8.882-8.515-2.047-1.831-4.04-3.854-6.234-5.403-3.1-2.001-6.724-3.456-10.384-3.854-1.872-.13-3.762.237-5.295 1.365-1.501.918-2.801 2.386-3.029 4.186-.004 1.75.889 3.657 2.507 4.449 2.636 1.236 5.589.985 8.409 1.325 2.699.372 5.335 1.07 7.891 2.01l.009-.009Zm-11.443-4.798a.904.904 0 0 1-.89-.9c0-.488.416-.895.899-.891.487 0 .889.412.889.9a.904.904 0 0 1-.898.891Zm3.074-1.061a12.66 12.66 0 0 1 3.306.662c2.109.457 4.174 1.137 6.041 2.23.612.156 1.117.662.849 1.325-.549 1.101-1.774.192-2.511-.197a19.344 19.344 0 0 0-1.988-.851c-1.953-.546-3.91-1.235-5.943-1.392-1.153-.188-.929-1.907.241-1.773l.005-.004ZM282.007 368.042c-1.117.063-2.234.072-3.347.219-1.341.014-2.681-.25-4.008-.434-.849-.121-1.662-.269-2.498-.416-.013 0-.027-.009-.04-.014-.143-.018-.282-.031-.424-.053-7.614-.56-14.915-2.955-21.966-5.762-6.421-2.471-12.717-5.533-19.477-6.978-2.627-.614-5.299-.94-7.98-1.155.674.662 1.362 1.32 2.1 1.911 1.331 1.025 2.792 1.84 4.289 2.583.255.148.563.269.818.425l.053.014c3.267.895 6.319 2.372 9.393 3.764 5.245 2.033 10.026 4.168 15.419 6.147 3.101 1.078 6.256 1.983 9.348 3.084 8.999 3.227 18.413 5.067 27.935 5.806.764.072 1.515.139 2.261.201 1.233-.291 2.534-.483 3.727-.859a.881.881 0 0 0-.05.013c2.525-.676 5.635-1.911 6.31-4.718a1.145 1.145 0 0 1-.134-.228c-.867-.631-1.908-1.025-2.909-1.401-3.883-1.415-8.021-1.652-12.1-1.979-1.653-.103-3.307-.152-4.96-.219-.594.04-1.193.058-1.765.036l.005.013Zm-7.699 4.512c-.501-.022-.854-.447-.854-.935 0-.488.461-.878.934-.855.501.022.854.447.854.935 0 .488-.461.878-.934.855Zm13.217 1.272c-.045.904-1.041.926-1.729.859-1.26-.063-2.507-.264-3.745-.492-1.693-.341-3.427-.453-5.08-.985-1.104-.381-.585-2.033.55-1.706 1.349.452 2.765.546 4.159.802 1.596.304 3.177.608 4.768.608.554-.112 1.108.345 1.072.918l.005-.004Z"/><path fill="#F2B2FF" d="M252.534 355.096c-4.012-.936-7.908-2.274-11.778-3.68-3.842-1.49-7.797-2.968-11.881-3.55-.607-.044-1.22-.111-1.827-.04a.863.863 0 0 1-.465-.08c-.532.295-1.072.586-1.617.864-.179.089-.362.17-.546.255.237.291.465.6.747.841a12.728 12.728 0 0 0 2.274 1.8c.38.277.987.573 1.296.976a60.307 60.307 0 0 1 8.239 2.144c2.601.886 5.116 1.992 7.685 2.959 8.052 3.375 16.296 6.724 25.031 7.753.872.112 1.73.206 2.578.287.032 0 .063 0 .099.009 1.952.183 3.86.295 5.764.376a.091.091 0 0 0 .031-.009c3.204-.842 6.555-2.037 8.726-4.678.233-.363.492-.734.599-1.155-.018-.049-.022-.103-.031-.157-.523-.407-1.175-.761-1.93-1.047-4.098-1.281-8.472-.918-12.708-1.209-6.818-.466-13.583-1.298-20.281-2.659h-.005Zm3.436 4.982c-.5-.022-.853-.447-.853-.935 0-.488.46-.878.934-.855.5.022.853.447.853.935 0 .488-.46.878-.934.855Zm11.797 2.82c-2.972-.017-5.836-.913-8.633-1.844-.465-.143-.724-.667-.576-1.128a.9.9 0 0 1 1.126-.577c1.318.407 2.622.864 3.958 1.217 1.296.287 2.619.47 3.941.551a.903.903 0 0 1 .992.806.91.91 0 0 1-.804.975h-.004Z"/><path fill="#CE6AE2" d="M246.109 344.648c-.085-.009-.17-.018-.254-.023-.555-.022-1.247.086-1.748-.062a16.233 16.233 0 0 1-1.613-.166 1.133 1.133 0 0 1-.263-.094c-.027.027-.054.049-.081.076 1.283 2.623 3.097 5.144 5.452 6.876.37.345 1.027.658 1.398 1.07 6.296 1.759 12.793 2.668 19.298 3.272a.851.851 0 0 1 .184-.018h-.059c-.035.005-.067.009-.102.018 2.064-.6 4.361-1.092 5.822-2.784.674-.801 1.604-1.661 1.604-2.78a.999.999 0 0 1-.282-.394 7.878 7.878 0 0 0-.974-.577c-2.471-1.2-5.272-.43-7.904-.775-3.704-.062-7.462-.295-11.068-1.168-3.186-.51-6.184-1.827-9.338-2.444-.023 0-.049-.005-.072-.009v-.018Zm21.349 6.719c.501.022.854.448.854.936 0 .488-.46.877-.934.855-.501-.023-.854-.448-.854-.936 0-.488.461-.877.934-.855ZM211.373 113.277c-.599-1.482-.451-3.281.755-4.799 1.131-1.678 3.016-2.448 4.835-3.151 1.327-.658 2.703-1.213 3.981-1.97 2.163-1.54 4.754-3.268 4.763-6.186-.304-1.643-1.783-2.955-3.324-3.483a16.931 16.931 0 0 0-7.221-1.164 32.54 32.54 0 0 0-10.947 2.019c-2.386.846-4.861 1.97-7.113 2.946-2.99 1.432-6.14 2.542-9.026 4.181-1.631 1.087-3.356 2.023-5.045 3.017-2.149 1.584-4.222 3.236-6.362 4.816a.97.97 0 0 1-.224.224c-.112.085-.232.17-.344.255 11.331-2.932 23.463-2.139 35.272 3.295Zm3.177-17.82c.469-.019.925.375.925.863s-.357.909-.862.927c-.47.018-.925-.376-.925-.864s.357-.909.862-.927Zm-15.429 3.706s-.022.004-.031.009c-.045.013-.085.031-.13.049l.103-.04c.009 0 .018 0 .027-.005 4.08-1.473 7.94-3.729 12.328-4.055 1.166-.023 1.242 1.71.067 1.79-4.267.35-8.016 2.677-12.006 4.011-1.122.188-1.466-1.464-.358-1.75v-.01Z"/><path fill="#fff" d="M141.102 131.966c.84.13 1.684-.085 2.412-.497l.148-.174c4.638-5.533 9.906-10.211 15.612-13.873.134-.25.299-.497.362-.761.25-.855.326-1.737.044-2.56a2.53 2.53 0 0 0-1.255-1.321 1.636 1.636 0 0 1-.514-.139l-.348-.026c-9.719-.667-18.526 7.122-19.218 16.759a.986.986 0 0 1 .156.265c.38 1.271 1.291 2.135 2.601 2.318v.009Z"/><path fill="#CE6AE2" d="M232.213 128.202c.08.058.156.129.223.223a84.78 84.78 0 0 1 1.524 1.59.802.802 0 0 1 .179.308 73.368 73.368 0 0 1 2.52 3.407 77.805 77.805 0 0 1 1.711 2.592c.626-1.401 2.167-2.587 3.499-3.04 1.939-.479 4.021.108 5.755 1.012 1.577 1.016 3.154 1.853 5.062 1.755.938-.067 1.93-.309 2.668-.918.938-1.307 1.626-2.636 2.082-4.145.612-2.395-.693-4.924-1.546-7.037-.755-1.665-1.877-3.196-3.543-4.024-1.582-.851-3.378-1.16-5.063-1.751-1.676-.537-3.347-1.11-5.062-1.526-3.606-.6-7.306-.716-10.956-.663-4.808.099-9.549.251-14.326.188 5.255 3.071 10.072 6.876 14.41 11.147.291.286.581.582.867.873l-.004.009Zm20.151-3.42a.908.908 0 0 1 .622.313.95.95 0 0 1 .214.64c0 .488-.487.864-.947.837a.912.912 0 0 1-.621-.313.948.948 0 0 1-.215-.64c0-.488.487-.864.947-.837ZM236.297 118c3.865.716 7.882 1.011 11.532 2.578 1.01.578 4.92 1.889 3.767 3.434-.813.814-1.448-.22-2.131-.618-2.449-1.446-5.179-2.225-7.932-2.731-1.912-.349-3.851-.577-5.759-.913-.518.237-1.184.099-1.372-.492-.313-1.088 1.082-1.442 1.899-1.258h-.004ZM239.228 141.447c-.608-.868-1.631-1.714-2.739-1.316-.934.376-1.483 1.093-2.225 1.706-.179.17-.375.371-.585.537-.644 1.2-1.417 2.341-2.221 3.429-.697.819-1.394 1.63-2.02 2.507-1.108 1.365-2.355 2.69-2.895 4.405-1.81 5.372 2.136 10.117 4.79 14.418 1.3 2.252 2.1 4.88 1.814 7.499-.635 6.584-5.527 11.603-9.853 16.128-5.549 5.976-10.956 13.501-9.637 22.078 1.541 7.422 6.885 13.219 11.469 18.976 3.883 4.826 7.873 9.83 9.701 15.838.054.076.098.156.134.237.228.282.483.475.746.676.938.631 2.306.568 3.195-.072.018-.009.036-.013.054-.022 7.18-15.802 11.326-33.005 12.233-50.325.899-19.307-2.372-39.357-11.693-56.385a.767.767 0 0 1-.263-.318l-.005.004Zm-10.688 89.297a.9.9 0 0 1-1.238-.246 64.772 64.772 0 0 0-2.113-2.95c-2.225-2.762-4.419-5.573-6.278-8.604-.473-.828-.831-1.696-1.166-2.534-.255-.725-1.162-1.625-.268-2.256 1.55-.953 2.185 2.812 2.833 3.644 1.814 2.968 3.927 5.721 6.085 8.394.849 1.065 1.631 2.189 2.395 3.312a.903.903 0 0 1-.245 1.24h-.005Zm1.778 3.604c-.469.022-.938-.358-.938-.846s.34-.918.845-.94c.469-.023.938.358.938.846s-.34.917-.845.94Zm4.174-51.408c-.469.022-.939-.358-.939-.846s.34-.918.845-.94c.469-.023.938.358.938.846s-.339.913-.844.94Zm3.561-8.474c-.045 1.312-.567 2.525-1.117 3.689-.206.443-.769.613-1.198.402a.906.906 0 0 1-.402-1.199c1.622-2.861.907-5.981-.107-8.904-.581-1.271-1.224-2.511-1.863-3.756-.376-.295-.541-.841-.246-1.262 1.041-1.204 1.966.524 2.337 1.423.371.757.755 1.509 1.126 2.261.97 2.305 1.684 4.83 1.47 7.35v-.004Z"/><path fill="#CE6AE2" d="M253.106 193.974a139.172 139.172 0 0 1-2.118 21.613c.805-.631 1.922-.913 2.958-.802 1.989.22 3.637 1.648 5.036 2.982 1.144 1.267 1.448 3.012 1.926 4.597.514 2.323 2.372 4.329 4.785 4.629 2.207-.367 3.579-2.503 4.933-4.096 1.43-2.203 1.716-5.027 2.172-7.543.487-7.677-1.823-15.274-5.465-21.948-2.386-4.597-5.684-8.626-9.146-12.445-2.06-2.372-4.504-4.427-6.363-6.961.974 6.608 1.381 13.309 1.282 19.97v.004Zm16.622 19.992c-1.13.318-1.644-1.423-.518-1.763 1.126-.318 1.648 1.419.518 1.763Zm-4.245-17.118a.904.904 0 0 1 1.251-.179c.519.367.724 1.039.939 1.598.308.793.665 1.563.987 2.35a20.204 20.204 0 0 1 1.689 9.043c-.009 1.173-1.738 1.222-1.787.045a30.965 30.965 0 0 0-.094-3.017c-.165-2.283-1.055-4.437-1.948-6.523-.326-.671-.523-1.405-.867-2.063-.393-.282-.456-.869-.174-1.249l.004-.005ZM250.001 220.645c-2.426 11.312-6.242 22.333-11.376 32.687a2.578 2.578 0 0 1 1.622.112c1.725 1.007 1.461 3.385 1.85 5.099.581 3.715.938 9.262 6.139 6.025 4.647-2.842 5.983-15.873 5.688-21.026-.201-4.673-.715-9.355-1.725-13.921-.451-1.907-.991-3.792-1.385-5.717-.232-1.079-.581-2.162-.808-3.254l-.005-.005Zm.282 34.617c-.479.013-.916-.385-.916-.873s.375-.904.871-.918c.478-.013.916.385.916.873a.907.907 0 0 1-.871.918Zm1.085-13.013c1.31-.282 1.247 1.374 1.234 2.238.022.765.093 1.531.058 2.296a31.94 31.94 0 0 1-.671 4.553c-.107.474-.616.77-1.081.653-1.005-.277-.581-1.374-.433-2.104.17-1.078.321-2.162.406-3.249a60.614 60.614 0 0 0-.116-3.277.9.9 0 0 1 .608-1.11h-.005ZM250.89 168.579c.08-.161.17-.317.277-.465.885-.945 2.324-1.459 3.601-1.294 2.051.524 3.579 2.171 5.403 3.174 1.697.765 3.641 1.235 5.509 1.056 2.627-.394 4.093-3.142 4.213-5.6-.371-4.118-1.787-8.384-4.673-11.374-2.346-2.042-4.612-4.19-7.333-5.65-3.539-1.871-7.27-3.353-10.849-5.139-1.921-.971-4.11-1.522-6.032-2.506.143.259.291.514.429.774 4.518 8.492 7.601 17.628 9.46 27.024h-.005Zm9.026-15.712c.491.009.88.421.88.909a.9.9 0 0 1-.907.882.906.906 0 0 1-.88-.909.9.9 0 0 1 .907-.882Zm-11.265-5.622a.902.902 0 0 1 .952-.65c2.207.761 4.348 1.822 6.394 2.964.778.434 1.519.918 2.243 1.437.398.286.447.886.157 1.258-.55.694-1.319.156-1.85-.264-1.175-.779-2.426-1.442-3.686-2.077-1.126-.578-2.333-.981-3.468-1.545-.532-.049-.885-.622-.742-1.123Z"/><path fill="#F2B2FF" d="M261.029 326.111c-1.269.94-2.525 1.893-3.718 2.923-2.194 1.867-4.392 3.738-6.456 5.748-.018.04-.036.085-.063.125l.054-.094c-1.082 2.332-2.27 4.893-1.439 7.512.036.112.076.219.125.326.268-.17.532-.335.715-.523 3.011-3.425 6.59-6.241 10.223-8.98 1.832-1.379 3.95-2.704 5.617-4.208.978-.886 2.051-1.782 2.542-3.049a2.59 2.59 0 0 0 .081-.228.966.966 0 0 1-.117-.242c-2.341-1.36-5.299-.447-7.564.694v-.004Zm-1.649 4.467c-.469.027-.938-.358-.938-.846s.339-.913.844-.94c.469-.027.938.358.938.846s-.339.913-.844.94Z"/><path fill="#fff" d="M214.278 144.881c-.822-11.867-13.079-19.889-24.231-15.892-11.3 3.873-15.849 17.803-9.08 27.598 10.827 15.35 34.437 6.992 33.315-11.711l-.004.005Zm-7.194 5.828c-3.021 7.378-12.869 9.401-18.557 3.832-6.644-6.343-3.391-17.731 5.586-19.589 4.821-1.034 9.227 1.11 11.733 4.629-.018 0-.036-.009-.053-.009a2.693 2.693 0 0 0-2.056.488c-.518.394-.862 1.011-1.121 1.598-.09.201-.17.398-.233.609a2.32 2.32 0 0 0-.071.631c0 .425.143.832.344 1.204.165.287.366.546.617.77.236.21.509.389.79.528a3.354 3.354 0 0 0 1.756.354c.336-.027.657-.09.966-.22a2.5 2.5 0 0 0 .835-.595 4.18 4.18 0 0 0 .268-.309 11.309 11.309 0 0 1-.809 6.079h.005Z"/><path fill="#CE6AE2" d="m150.918 310.6-.067-.336c0-.009 0-.018-.004-.027-.728-3.581-1.443-7.158-2.163-10.739-.232-1.173-.473-2.345-.71-3.514-.143-.358-.21-.792-.273-1.097-.263-1.025-.545-2.054-.733-3.097-.366-2.485-.848-4.96-1.3-7.413a6.576 6.576 0 0 1-1.903 2.05c1.644 2.153 2.167 5.108 1.939 7.771-.201 1.576-.742 3.398-1.988 4.418-.948 1.102-2.167 1.979-2.793 3.326-.764 1.992-.894 4.208-2.024 6.062-1.555 2.475-4.075 4.275-5.219 7.032-.407.927-.487 1.952-.559 2.941a.752.752 0 0 1-.053.139c1.814 6.983 3.628 13.966 5.433 20.95 1.89 7.341 3.816 14.674 5.711 22.015.929 3.59 1.863 7.18 2.792 10.77.072.385.264.864.344 1.308.371.783.626 1.624 1.05 2.385 1.216 1.863 2.717 3.72 5.045 3.958 1.76.376 3.923.819 5.438-.417 1.555-1.347 2.935-3.048 3.539-5.036.281-1.253.442-2.31.536-3.532-.018-.908-.215-1.79-.411-2.672-.304-.488-.3-1.312-.452-1.795-2.35-11.688-4.74-23.493-7.068-35.091-1.377-6.836-2.748-13.622-4.098-20.346l-.009-.013Zm-6.983 40.57c-.912-2.829-1.497-5.73-2.168-8.577-1.251-5.949-3.167-11.451-4.468-17.386-.433-1.079 1.158-1.773 1.649-.694.545 1.58.702 3.268 1.166 4.875.519 1.772 1.01 3.545 1.533 5.318 1.059 3.639 1.836 7.354 2.658 11.048.358 1.674.89 3.299 1.35 4.946a.906.906 0 0 1-.626 1.101.906.906 0 0 1-1.099-.622l.005-.009Zm2.211 6.983a.902.902 0 0 1-.893-.895c0-.488.406-.895.893-.895s.894.407.894.895a.903.903 0 0 1-.894.895Z"/><path fill="#F2B2FF" d="M202.669 144.129s-.009-.013-.009-.022c-.009-.018-.022-.036-.031-.054.013.027.027.049.04.076Z"/><path fill="#F2B2FF" d="M219.085 351.286c.143-1.217-.143-2.421-.384-3.608-.174-1.759-.791-3.415-1.899-4.803-.482-.689-.925-1.49-1.667-1.929-.201-.099-.393-.242-.612-.296a.895.895 0 0 1-.299-.112c-.469.014-1.001-.08-1.399-.035-2.569.116-5.143-.067-7.689-.421-.876-.139-1.734-.363-2.592-.569-1.729-.559-3.391-1.481-4.884-2.327-3.628-2.579-5.697-7.158-5.379-11.59.294-2.74.866-5.484 1.854-8.058a140.483 140.483 0 0 1 2.243-4.883c2.676-5.238 6.086-10.077 9.611-14.755a292.417 292.417 0 0 0 11.148-15.157c1.783-2.449 3.53-4.974 5.241-7.445.997-1.584 2.342-2.909 3.387-4.454.59-.94 1.225-1.848 1.935-2.699a.93.93 0 0 1 .416-.318 130.103 130.103 0 0 0 6.327-10.354.831.831 0 0 1-.081-.26c-.022-.443-.076-.89-.107-1.32.116-14.186-11.613-22.454-18.467-33.484-4.669-7.037-5.505-14.334-1.734-22.006 2.949-5.865 7.654-10.516 12.038-15.297 3.114-3.666 6.032-8.442 5.116-13.429-.447-2.202-1.667-4.109-2.9-5.945-2.056-3.142-4.169-6.607-3.999-10.497.009-2.762 1.3-5.327 3.145-7.323 1.627-2.055 3.343-4.047 4.629-6.339.032-.076.072-.152.121-.224.076-.139.156-.278.228-.421.608-1.271.956-2.65 1.059-4.047a.837.837 0 0 1-.009-.317c-.121-1.522-.402-3.053-.961-4.477-.393-.953-1.036-1.656-1.514-2.542-4.402-4.446-9.116-8.3-14.442-11.492-19.454-11.826-42.282-10.255-60.191 3.595-4.12 3.143-7.86 6.746-11.233 10.667a.442.442 0 0 1-.031.077c-.058.067-.125.12-.188.179-.116.134-.232.273-.349.407-.102.17-.232.331-.388.47-.447.551-.773 1.056-1.175 1.612-1.949 2.757-1.609 5.416.42 7.99-.009-.009-.018-.018-.023-.027l-.013-.018c.666.954 1.64 1.567 2.596 2.189.322.202.724.412.992.676.094.045.187.09.277.135 2.886 1.548 5.196 3.899 7.582 6.065 2.181 2.001 4.299 4.042 6.426 6.102 3.136 3.29 6.809 6.043 10.446 8.733 1.345.895 2.771 1.665 4.084 2.614 1.948 1.267 3.879 2.637 6.041 3.501 1.528.488 3.074.77 4.656.94 2.145.134 4.263-.309 6.376-.551.465-.071.858.274.97.69.581.461.853 1.276.804 2.274-.196 1.992-1.649 3.581-2.877 5.054-.469.439-.983 1.37-1.631 1.477-2.172 1.786-5.241 2.999-7.382 4.051-2.515.976-4.79 2.189-7.126 3.492-5.769 3.075-11.055 7.243-17.453 8.944-6.278 1.799-13.016 1.392-19.129-.752-1.447-.515-2.819-1.204-4.137-1.997.152.506.348.999.549 1.487 1.256 3.039 3.052 5.877 5.429 8.129 3.11 2.784 6.859 4.781 10.559 6.625 1.845.891 3.748 1.746 5.527 2.789.058.027.111.062.165.098 1.363.811 2.654 1.733 3.785 2.87.715.635 2.891 3.541 2.891 5.094 2.77.116 5.545.192 8.319.269 5.049.017 9.996-.305 14.987-.847 2.533-.25 5.031-.72 7.56-.966.223-1.272.536-2.525.952-3.743.254-.716.518-1.428.773-2.144-.009-.716.902-1.218 1.465-.739.407.314.425.851.233 1.29-.291.828-.666 1.83-.93 2.587-.496 1.455-.773 3.178-.969 4.66-.134 2.404-.206 5.005.348 7.324.934 3.451 2.453 6.826 4.768 9.548 1.376 1.589 2.917 3.017 4.499 4.396.688.635 1.3 1.195 2.024 1.754.389.3.456.873.161 1.254a.897.897 0 0 1-1.251.161c-1.608-1.32-3.141-2.731-4.665-4.145a21.74 21.74 0 0 1-.724-.703c-1.827.698-3.561 1.643-5.415 2.301-3.624 1.343-7.319 2.48-11.037 3.541-7.149 1.987-14.405 3.577-21.773 4.418-1.421 7.31-7.328 14.352-4.602 22.033.996 2.731 3.369 4.436 5.245 6.482 2.9 2.901 4.795 7.024 4.419 11.178-.509 7.829-5.853 14.034-9.24 20.793-1.997 3.572-3.53 7.709-2.936 11.849a.912.912 0 0 1-.044.453l2.212 10.989c.111.112.205.242.299.367.648.878 1.22 1.813 1.894 2.673 4.352 4.973 9.884 8.523 15.621 11.639 7.922 4.163 16.166 8.102 25.076 9.405 5.969.747 10.509.026 14.968-4.262 1.511-1.764 2.757-3.921 3.025-6.263h.009Zm7.574-221.262c.666-.578 1.381.08 1.738.671.693.945 1.309 1.947 1.787 3.013.671 1.446.559 3.124.117 4.619-.371 1.446-1.377 2.588-2.346 3.676-.313.376-.903.398-1.26.085-.376-.327-.393-.887-.085-1.263 1.072-1.15 2.064-2.43 2.207-4.055.358-1.97-.929-3.694-2.002-5.211-.464-.389-.665-1.092-.156-1.535Zm-2.466 13.595c.469-.023.938.358.938.846s-.34.917-.845.94c-.469.022-.938-.358-.938-.846s.34-.918.845-.94Zm-69.941 67.115c-.76.913-1.631-.241-2.386-.55-2.538-1.093-5.166-2.171-7.1-4.217-1.109-.582-.327-2.203.795-1.625.8.568 1.43 1.361 2.279 1.876 1.157.778 2.39 1.302 3.655 1.853.911.465 3.646 1.276 2.761 2.663h-.004Zm2.551 1.939a.903.903 0 0 1-.889-.9c0-.488.415-.891.898-.891.487 0 .889.412.889.9a.906.906 0 0 1-.898.891Zm7.069-90.694c-.076.273-.335.475-.568.596-.831.51-1.666 1.025-2.462 1.584-3.856 2.579-7.122 5.882-10.388 9.146-.224.98-1.68.9-1.774-.121-.049-.439.268-.895.549-1.2 3.276-3.205 6.403-6.441 10.197-9.015 1.023-.73 2.14-1.424 3.177-2.06.665-.398 1.532.35 1.264 1.07h.005Zm2.846-1.361c-.505-.026-.845-.452-.845-.94 0-.488.474-.873.939-.846.505.027.844.452.844.94 0 .488-.473.873-.938.846Zm5.554 30.834a.903.903 0 0 1-.876-.913c0-.488.429-.886.912-.877a.902.902 0 0 1 .875.913c0 .488-.429.886-.911.877Zm3.525-14.297c-1.479 3.021-2.314 6.307-2.533 9.669-.014.479-.425.899-.912.877-.464-.009-.916-.425-.875-.913.277-3.55.96-6.871 2.555-10.014a.902.902 0 0 1 .653-1.065c.826-.211 1.318.734 1.108 1.441l.004.005Zm23.293 94.936c-.764-2.502-.804-5.031-.558-7.601.183-1.275.143-2.591.5-3.836.183-.613.451-1.204.733-1.782.04-.371.313-.716.697-.787.67-.211 1.367.492 1.112 1.155-.746 1.316-1.108 2.762-1.143 4.275-.175 1.857-.398 3.791-.143 5.644.138.86.321 1.71.549 2.552.228 1.146-1.461 1.522-1.747.38Zm2.493 4.186c-.505-.027-.844-.457-.844-.945 0-.487.478-.872.943-.846.505.027.844.457.844.945 0 .488-.478.873-.943.846Zm-20.37-76.494c-9.768-10.703-5.112-28.211 8.659-32.62 14.446-4.758 28.86 8.058 25.867 22.991-3.168 16.147-23.481 21.81-34.526 9.629Zm17.269 140.055c2.235-3.634 5.134-6.732 7.409-10.287.951-1.486 1.993-2.905 3.074-4.297.098-1.141 1.792-1.074 1.783.081-.121 1.231-1.327 2.023-1.913 3.053-2.703 4.324-6.094 8.124-8.838 12.399-.634.981-2.109.077-1.515-.944v-.005Zm-1.639 3.179a.902.902 0 0 1 .875.913c0 .488-.433.886-.911.877a.903.903 0 0 1-.876-.913c0-.488.433-.886.912-.877Zm-4.929 52.952a.905.905 0 0 1-1.13.568c-.675-.228-1.368-.403-2.051-.613-2.288-.855-4.406-1.638-6.497-2.856-1.247-.685-2.489-1.379-3.78-1.974-.442-.206-.617-.765-.407-1.2a.902.902 0 0 1 1.198-.407c3.011 1.464 5.902 3.299 9.03 4.364.996.417 2.046.659 3.07.99a.907.907 0 0 1 .567 1.132v-.004Zm2.802 1.777c-.505-.027-.84-.457-.84-.945 0-.487.478-.868.942-.841.505.027.841.456.841.944 0 .488-.479.869-.943.842ZM114.342 253.346s-.009-.009-.018-.014c.004 0 .013.009.018.014ZM305.948 380.097c-3.696-.152-7.552-.497-11.175-.85-5.376-.412-10.746-.972-16.055-1.921a279.313 279.313 0 0 0-5.692-1.213c-4.316-1.079-8.512-2.61-12.739-4.002-4.285-1.298-8.485-2.825-12.641-4.485-3.154-1.182-6.175-2.691-9.356-3.805-5.416-2.619-11.148-4.674-17.104-5.547-.47.081-1.068-.094-1.52-.143-.455-.089-1.09-.112-1.523-.318-.277.367-.568.716-.872 1.057-1.085 1.043-2.319 1.929-3.61 2.717.009 0 .014 0 .022.004 3.294.699 6.64 1.393 9.741 2.744 1.586.744 3.173 1.518 4.871 1.983 3.878 1.133 7.77 2.23 11.586 3.559 1.93.739 3.775 1.679 5.728 2.359 1.671.56 3.378 1.017 5.018 1.675 1.599.684 3.132 1.517 4.781 2.086 6.452 2.354 13.154 3.867 19.763 5.703 5.495 1.446 10.719 3.742 16.3 4.875 3.038.863 5.929 2.229 9.048 2.82 3.132.689 6.362 1.038 9.557.635 2.52-.416 8.588-1.284 8.083-4.736-1.702-5.009-7.873-4.776-12.216-5.201l.005.004Zm-73.547-14.222c-.501-.022-.854-.447-.854-.935 0-.488.461-.878.934-.855.501.022.854.447.854.935 0 .488-.461.878-.934.855Zm8.641 3.156c-1.072-.582-2.229-.98-3.4-1.334-.782-.224-1.55-.506-2.328-.752a.904.904 0 0 1-.576-1.128.904.904 0 0 1 1.126-.577c2.1.707 4.271 1.271 6.233 2.296a.9.9 0 0 1 .853.931c-.058.985-1.269 1.025-1.912.569l.004-.005Zm53.471 15.941c-.92 1.025-2.336-.403-1.269-1.271.867-.864 2.15.429 1.269 1.271Zm18.146 1.634c-3.244 1.209-6.814 1.168-10.219.846-1.662-.287-3.333-.555-4.973-.958-.474-.121-.719-.685-.576-1.128.151-.51.737-.734 1.21-.56 3.548.837 7.203 1.298 10.845.905 1.019-.238 2.082-.381 3.047-.77 1.081-.372 1.711 1.19.666 1.665Z"/><path fill="#F2B2FF" d="M198.044 216.791a.942.942 0 0 1-.299.278c.009-.005.022-.009.031-.018a.656.656 0 0 0 .09-.063h-.005c.067-.058.143-.116.183-.202v.005Z"/><path fill="#CE6AE2" d="M117.675 286.821s.04.031.062.054c.018.022.027.044.04.067 6.006 7.131 16.931 14.691 23.986 9.727 2.873-2.314 1.823-5.479.456-8.326-.21-.291-.412-.636-.465-.963-3.204.985-7.355.184-10.965-.967-4.428-1.414-8.298-4.243-11.546-7.524a32.077 32.077 0 0 1-2.882-3.179 7.98 7.98 0 0 0-1.399 1.983c-.25.797-.312 1.589-.326 2.404-.009.493-.053.985 0 1.473.085.322.148.721.112 1.074.724 1.298 1.729 2.722 2.936 4.172l-.009.005Z"/><path fill="#F2B2FF" d="M137.594 300.044v-.031a13.178 13.178 0 0 1-4.691-.43c-5.34-1.45-11.39-5.6-15.858-10.712-.518 1.079-.688 2.283-.675 3.469.072 1.925.501 3.877 1.068 5.699.148.492.3 1.003.505 1.477.085.179.206.381.322.582.147.152.299.3.456.443 2.301 1.728 4.629 3.474 7.345 4.454 2.337.6 4.822 1.151 7.19.533 2.439-.815 4.419-2.771 4.329-5.484h.009ZM135.297 285.706c2.538.412 5.621.806 7.735-.967 2.23-2.135 2.882-6.007 1.443-8.769-.21-.148-.339-.39-.411-.667-.098-.139-.192-.278-.304-.407-1.702-1.97-4.379-2.727-6.832-3.295-1.733-.524-3.53-.824-5.245-1.392-3.369-1.285-6.765-2.516-9.893-4.329a7.722 7.722 0 0 1-.496-.372c-4.196-2.565-7.484-6.54-7.404-11.549-.987 1.509-1.296 3.326-1.461 5.103-.366 6.684 2.583 13.027 7.248 17.7 4.11 4.544 9.499 8 15.611 8.944h.009Z"/><path fill="#000" d="M62.086 67.47c-1.832-6.263-4.08-12.387-7.105-18.197-1.662-3.362-3.628-6.576-5.822-9.62-.817-1.146-1.653-2.283-2.578-3.353-.268-.305-.585-.64-1.01-.68-1.21-.18-1.595 1.521-.398 1.785C51.26 44.725 55.46 53.391 58.6 62.348c1.158 3.483 2.23 6.988 3.142 10.542.156.676.245 1.576 1.206 1.46.97-.233.746-1.128.536-1.845-.424-1.67-.885-3.384-1.398-5.04v.004ZM64.2 81.315a.906.906 0 0 0-.273 1.236c.085.13.067.295.098.443.09.877.165 1.759.255 2.64.094.959.16 1.926.2 2.888a.904.904 0 0 0 .93.86.903.903 0 0 0 .858-.927 62.008 62.008 0 0 0-.286-3.76c-.2-1.106.125-4.132-1.774-3.38H64.2ZM117.88 16.782c.957.855 1.618 1.979 2.364 3.013.903 1.325 2.015 2.484 2.757 3.921 1.524 3.384 3.642 6.45 5.045 9.893.46 1.012.924 2.015 1.313 3.058.282.814.563 1.625.858 2.435.17.457.751.649 1.175.466.93-.435.362-1.442.116-2.131-.201-.564-.384-1.173-.621-1.777-1.394-3.519-3.136-6.858-5.013-10.135-.934-2.006-1.895-3.953-3.36-5.64-1.251-1.599-2.194-3.474-3.82-4.732-1.216-.73-2.029 1.003-.809 1.638l-.005-.009ZM135.409 50.486c-.254-1.285-.625-2.731-.862-4.07-.161-.787-.295-2.202-1.425-1.933-.452.13-.773.644-.617 1.105.433 1.576.661 3.192 1.059 4.781.214 1.034.429 2.006.652 3.076.116.667.259 1.535 1.153 1.432 1.037-.233.755-1.137.572-1.902-.165-.775-.353-1.643-.532-2.485v-.004Z"/><path fill="#000" d="M317.172 380.97c-2.762-2.05-6.26-2.328-9.576-2.511-.554-.041-1.103-.076-1.648-.117.487-.618.875-1.37 1.023-1.813.679-1.575.263-3.402-.635-4.803-1.076-1.683-3.016-2.516-4.816-3.178-4.035-1.518-8.351-1.76-12.605-2.104 3.574-3.631 1.407-7.736-2.922-9.213-2.882-.9-5.881-1.029-8.888-1.11.523-.546.974-1.383 1.18-1.844 1.738-3.761-1.26-6.572-4.714-7.458-1.859-.497-3.794-.152-5.688-.264-1.89-.17-3.789-.134-5.684-.22-1.738-.246-3.489-.429-5.219-.734-1.831-.434-3.695-.72-5.469-1.365l-.759-.215c.5-.385.96-.859 1.269-1.115 3.069-3.666 7.109-6.472 10.916-9.36 2.301-1.584 4.624-3.241 6.438-5.398 2.06-2.324 1.323-6.138-1.559-7.36a26.946 26.946 0 0 0 2.373-2.462c1.126-1.473 2.645-2.856 2.806-4.808.348-2.341-.818-4.897-3.057-5.756a48.64 48.64 0 0 0 1.613-1.598c2.391-2.355 4.786-5.139 4.92-8.662.214-3.756-3.092-7.633-6.872-7.324.143-.21.286-.421.429-.636 1.036-1.504 2.225-3.052 2.502-4.91.657-3.832-2.257-7.494-6.278-6.442-1.367.22-2.583.904-3.668 1.733-1.542 1.163-3.164 2.292-4.379 3.809-5.809 7.395-9.334 16.151-14.017 24.24-1.823 3.304-4.053 6.361-5.952 9.625-2.555 4.198-5.701 8.008-9.168 11.549-3.892 4.203-8.593 7.726-14.102 9.535a.811.811 0 0 0-.259.156c-.425-.152-.992-.116-1.408-.143-.987.045-1.966.099-2.953 0-2.619 0-5.264-.313-7.784-1.047-1.671-.793-3.539-1.5-4.955-2.794-3.633-3.617-4.178-8.084-2.918-12.887.282-1.482.809-3.035 1.434-4.508.689.676 1.622 1.249 2.199 1.544 5.536 2.373 9.535-3.877 10.545-8.599 1.716-6.061 2.439-12.301 4.396-18.313.59-1.496 1.922-2.959 3.647-2.874.804.452 1.13 1.517 1.483 2.327.299 1.854.474 4.423 2.802 4.714 1.604.179 3.127-.555 4.352-1.535 1.756-1.316 3.404-2.789 4.776-4.508 1.98-2.39 3.351-5.264 4.097-8.273 1.421-5.537 2.02-11.253 2.409-16.948.116-2.274.232-4.552.567-6.808.143-1.043.242-2.368 1.242-2.964.282-.085.729-.322.943-.053 1.077 3.008.684 6.455 2.051 9.4 1.89 4.159 5.997 3.008 8.789.546 1.26-1.181 2.064-2.73 2.614-4.355.934-2.4 1.622-4.88 1.997-7.427 1.238-6.549.635-13.263-.268-19.817-.737-4.597-2.051-9.078-3.096-13.613-.384-2.09.031-3.751 2.556-3.277 1.358.488 2.564 1.442 3.552 2.48 1.434 2.091 1.229 4.956 2.927 6.93 4.638 5.045 8.118 2.332 11.487-2.256 1.542-2.418 1.899-5.408 2.377-8.188.496-5.976-.898-11.925-3.038-17.471-2.641-6.997-7.176-13.117-12.216-18.582-2.252-2.691-5.268-4.83-6.877-8.004-.192-.734-.286-1.639.125-2.31.541-.416 1.287-.752 1.98-.631 1.202.429 2.198 1.28 3.248 1.987 1.618 1.249 3.566 1.889 5.568 2.18 4.137.842 7.43-1.951 8.163-5.958.286-1.038.139-2.122-.045-3.165-.303-1.893-.782-3.755-1.55-5.515-.684-1.54-1.501-3.039-2.56-4.351-1.529-1.75-3.436-3.142-5.188-4.66-2.404-1.858-5.138-3.254-7.927-4.427-2.806-1.204-5.496-2.668-8.315-3.832-1.796-.837-3.811-1.204-5.398-2.462-.33-.264-.755-.421-.683-.94l.013.013c.282-1.056 1.296-1.92 2.261-2.377 1.171-.434 2.507-.071 3.646.323 1.443.51 2.547 1.629 4.071 2.032.737.184 1.492.345 2.252.385 1.774.054 3.856-.439 4.942-1.956 1.193-1.934 2.403-4.043 2.345-6.388-.178-2.641-1.304-5.166-2.506-7.489-1.47-2.892-4.513-4.311-7.516-5.05-2.828-.823-5.59-1.983-8.53-2.345-5.866-.632-11.715-.354-17.627-.238-1.595.018-3.199.032-4.799.059-1.376-.041-2.868.138-4.16-.399-1.572-.85-1.849-3.098-.728-4.427.742-1.115 1.904-1.777 3.141-2.203 1.765-.792 3.557-1.548 5.228-2.524 4.24-2.646 8.231-7.306 3.374-11.612-3.012-2.14-6.984-2.726-10.603-2.503-6.81-.009-13.133 2.753-19.223 5.533-3.23 1.5-6.809 2.722-9.763 4.804-2.01 1.181-4.16 2.251-5.916 3.831-3.123 2.386-6.336 5.05-9.915 6.755a.873.873 0 0 0-.259.211c-.018.009-.031.018-.049.022-1.072.56-2.171 1.034-3.333 1.37a20.165 20.165 0 0 0-3.298-1.441 20.016 20.016 0 0 0-8.824-.887c-11.059 1.272-19.169 12.02-17.342 23.036a20.627 20.627 0 0 0 1.301 4.615 99 99 0 0 0-2.936 4.504c-.366.058-.733.13-1.104.224-2.895 1.06-5.786 3.285-6.331 6.49-.246 1.809.509 3.685 1.595 5.108 2.051 2.256 5.161 2.525 8.105 2.708-.795 1.034-1.604 2.064-2.395 3.098-1.121.631-2.555.439-3.802.658-1.349.112-2.466.994-3.633 1.603-1.398.908-2.354 2.363-3.516 3.55a6.477 6.477 0 0 0-.206.286c-.013-.049-.026-.098-.035-.143-.291-1.034-.327-2.127-.639-3.152-.009-.027-.023-.053-.036-.08-.174-.855-.349-1.724-.518-2.561l-.202-.998a2.28 2.28 0 0 0-.107-.524c-1.993-9.897-3.981-19.795-5.983-29.692-1.711-8.514-3.409-16.917-5.129-25.471-.384-1.907-.769-3.819-1.157-5.721.013-.117.031-.229.044-.345.018-.783.192-1.544.635-2.189 1.921-1.338 3.145-2.99 4.468-5.78 1.157-2.336 2.578-4.556 3.204-7.135.554-1.714 1.054-3.455 1.434-5.215.179-.206.348-.434.523-.613 2.064-1.611 4.472-2.672 7.024-3.25 2.015-.497 4.347-.465 6.327.255 2.091.873 3.713 3.022 6.157 2.843 4.138-.045 7.971-2.109 11.112-4.683 1.484-1.132 2.386-2.86 2.686-4.682.25-1.876-.045-3.765.009-5.65.031-4.494-.233-8.93-1.068-13.37-.791-5.547-2.851-10.825-4.665-16.102-1.269-3.541-2.453-7.113-3.816-10.614-.742-1.737-1.702-3.366-2.556-5.05-1.693-3.41-3.61-6.786-6.202-9.601a50.247 50.247 0 0 0-4.231-3.828A27.477 27.477 0 0 0 126.232.51c-2.498-.85-5.496-.649-7.802.672a38.631 38.631 0 0 0-4.406 2.744c-1.429 1.06-3.06 2.046-3.847 3.71-.366.744-.429 1.572-.634 2.36-.349 1.482-1.233 2.704-2.319 3.724a.936.936 0 0 0-.125.112 13.15 13.15 0 0 1-.979.82c-1.389 1.051-2.976 1.795-4.651 2.255-.206.059-.438.121-.666.193a30.401 30.401 0 0 0-2.525-2.632c-3.882-3.595-10.29-5.036-15.45-4.405-3.365.609-6.484 2.1-9.648 3.34-2.13.917-4.209 1.754-6.33 2.735-2.825 1.262-5.827 2.336-8.7 3.505-3.387 1.508-6.837 2.865-10.309 4.167-.612.233-1.22.48-1.827.725a1.328 1.328 0 0 0-.179.09c-2.743.761-4.339 2.852-5.264 5.488-1.121 2.776-1.108 5.95-2.435 8.63a.854.854 0 0 0-.402.52 3.592 3.592 0 0 1-.33.654c-1.926 2.229-5.126 4.4-8.092 4.552-.59-.009-1.184-.05-1.756-.192a.912.912 0 0 0-.689-.215l-.134-.134c-1.438-1.267-3.18-2.633-5.2-2.888-1.171-.022-2.28.43-3.423.605-.8.13-1.604-.027-2.404.098-.778.134-1.542.345-2.315.497-1.782.367-3.637.649-5.357 1.271a9.307 9.307 0 0 0-2.654.998c-.559.435-1.019.994-1.537 1.473a.88.88 0 0 0-.648.748c-1.55 1.652-1.863 3.88-2.297 6.007C-.362 56.78 0 61.081.25 65.24c1.332 8.295 2.882 16.733 6.77 24.267 2.43 4.803 5.13 9.486 8.329 13.823 2.024 3.053 4.217 5.985 6.67 8.711 2.118 2.557 4.594 4.79 7.387 6.59 1.228.685 2.48 1.356 3.806 1.835 1.671.443 3.557.246 5.264-.398 2.68.045 8.52-2.861 9.557-3.501 1.873-.837 2.199-3.133 2.722-4.906.34-1.034.59-2.086.781-3.151a1.02 1.02 0 0 0 .215-.269c.425-.864.827-1.768 1.336-2.592.018-.018.04-.036.054-.058.178-.242.348-.475.513-.703.514-.653 1.015-1.303 1.703-1.804 3.186-2.005 7.328-2.543 10.876-1.177 1.456.6 2.9 1.271 4.218 2.135.956.685 1.943 1.343 3.033 1.795a9.184 9.184 0 0 0 2.94.824.926.926 0 0 0 .023.313c.254.985.51 1.965.764 2.95.88 3.389 1.756 6.777 2.636 10.166 2.869 11.044 5.728 22.096 8.597 33.139 2.918 11.263 5.844 22.522 8.762 33.784.746 2.883 1.497 5.775 2.248 8.658.022.094.049.188.071.277-.062.274-.022.587.152.847.013.026.027.049.04.076-.424.367-.79.953-1.045 1.329-.465.663-.581 1.464-.81 2.225-.272.716-.575 1.423-.71 2.184-.469 2.512-.63 5.09-.089 7.61.702 3.873 2.918 7.087 5.643 9.84-.446 1.105-.04 3.303.018 4.132.273 1.96 1.202 3.719 1.989 5.506a12.375 12.375 0 0 0 1.765 2.824.78.78 0 0 0-.125.331c-.845 4.446 1.081 9.831 4.316 12.946.683.676 1.448 1.231 2.261 1.719 0 .068.013.139.031.215.29 1.124.585 2.247.876 3.371-.626.524-1.144 1.522-1.519 2.01-1.082 1.612-1.408 3.559-1.627 5.452-.237 3.134.197 6.124 1.14 8.935a.846.846 0 0 0-.327.645c-.303 1.007-.67 2.014-.893 3.107-.407 1.822-.152 3.688.098 5.515.277 1.714.867 3.455 1.689 5.179a.868.868 0 0 0-.25.743c.049.269-.009.542-.054.806-.621 2.69-.339 5.501.268 8.169.572 3.443 1.962 6.755 4.321 9.334.255.456.559.806.921.904 1.099.945 2.359 1.652 3.525 2.534 2.158 1.526 4.683 2.507 7.292 2.909.063.265.148.529.206.752.951 3.662 1.903 7.324 2.846 10.986 1.912 7.395 3.843 14.785 5.755 22.185 1.908 7.346 3.811 14.692 5.719 22.038l2.467 9.517a.874.874 0 0 0 .026.497c.072.129.139.259.206.394v.013a.713.713 0 0 0 .121.251c.393.877.688 1.799 1.193 2.623a15.48 15.48 0 0 0 2.538 3.021 6.556 6.556 0 0 0 3.302 1.558c1.689.408 3.445.667 5.169.305 1.89-.457 3.253-2.068 4.384-3.559 1.371-1.625 2.001-3.675 2.207-5.766.451-1.938-.094-3.872-.492-5.765a1.01 1.01 0 0 0-.151-.354c-.032-.166-.067-.331-.103-.501-1.591-7.915-3.168-15.749-4.772-23.694 2.475 3.03 5.652 5.483 8.798 7.775 10.174 6.402 31.366 17.879 43.641 13.08a.856.856 0 0 0 .169.103c1.319.596 2.793.717 4.192 1.07 1.827.426 3.762.931 5.639 1.585 5.46 2.704 11.452 3.93 17.193 5.873 3.468 1.433 6.908 2.914 10.523 3.935 7.73 3.729 16.117 5.604 24.352 7.852 4.481 1.047 8.744 2.82 13.158 4.109 2.391.654 4.817 1.079 7.132 1.997 4.294 1.651 8.865 2.744 13.485 2.766 3.78-.121 9.745-.801 12.073-4.114 1.573-2.426-.192-5.381-2.225-6.916v.009Zm-16.34-10.77c1 .376 2.037.769 2.908 1.401.036.08.081.156.134.228-.674 2.802-3.784 4.038-6.309 4.718l.049-.013c-1.197.376-2.493.568-3.726.859l-2.261-.201c-9.522-.739-18.941-2.579-27.935-5.806-3.092-1.101-6.251-2.006-9.348-3.084-5.393-1.979-10.174-4.114-15.42-6.147-3.074-1.387-6.13-2.865-9.392-3.764l-.053-.014c-.255-.157-.563-.277-.818-.425-1.501-.743-2.962-1.558-4.29-2.583-.737-.595-1.425-1.249-2.1-1.911 2.681.214 5.353.541 7.981 1.154 6.76 1.446 13.056 4.508 19.477 6.979 7.05 2.807 14.351 5.202 21.965 5.762l.425.053c.013 0 .027.009.04.014.836.152 1.649.3 2.498.416 1.331.184 2.667.448 4.008.434 1.112-.148 2.229-.157 3.346-.219.577.022 1.171 0 1.765-.036 1.654.063 3.307.112 4.96.219 4.08.327 8.217.564 12.1 1.979l-.004-.013Zm-15.309-11.236c.756.286 1.408.64 1.931 1.047.009.054.013.103.031.157-.107.425-.366.792-.599 1.155-2.171 2.636-5.522 3.836-8.726 4.678a.07.07 0 0 0-.031.009 112.741 112.741 0 0 1-5.764-.376c-.032 0-.067-.009-.099-.009a79.042 79.042 0 0 1-2.578-.287c-8.735-1.034-16.975-4.378-25.031-7.753-2.569-.967-5.085-2.073-7.685-2.959a60.321 60.321 0 0 0-8.24-2.144c-.308-.403-.911-.699-1.295-.976a12.42 12.42 0 0 1-2.275-1.8c-.286-.241-.509-.55-.746-.841.183-.085.367-.166.545-.255a53.105 53.105 0 0 0 1.618-.864.86.86 0 0 0 .464.08c.608-.076 1.22-.004 1.828.04 4.084.582 8.038 2.06 11.881 3.55 3.869 1.406 7.766 2.744 11.778 3.68 6.698 1.365 13.467 2.193 20.281 2.659 4.232.286 8.611-.072 12.708 1.209h.004Zm-30.004-11.868c3.606.869 7.364 1.106 11.068 1.169 2.627.349 5.434-.425 7.904.774.367.184.689.376.974.578.059.143.152.282.282.394 0 1.123-.925 1.978-1.604 2.78-1.461 1.692-3.758 2.189-5.822 2.784.036-.005.067-.009.103-.018h.058a1.22 1.22 0 0 0-.184.018c-6.505-.604-13.006-1.509-19.298-3.272-.371-.412-1.027-.726-1.398-1.07-2.36-1.733-4.169-4.253-5.452-6.876.027-.027.054-.049.081-.076.076.04.161.076.264.094.536.08 1.072.139 1.613.165.5.148 1.197.041 1.747.063.085.009.169.018.254.022.023 0 .049.005.072.009 3.154.618 6.153 1.934 9.338 2.445v.017Zm13.07-21.679c.027.085.067.166.116.242a2.293 2.293 0 0 1-.08.228c-.492 1.262-1.564 2.162-2.543 3.048-1.666 1.5-3.789 2.83-5.616 4.208-3.633 2.74-7.212 5.56-10.224 8.98-.183.188-.446.354-.714.524a2.825 2.825 0 0 1-.126-.327c-.831-2.614.358-5.175 1.439-7.511l-.053.094c.026-.041.044-.085.062-.126 2.064-2.014 4.263-3.881 6.457-5.748 1.188-1.025 2.444-1.983 3.717-2.923 2.266-1.141 5.224-2.054 7.565-.694v.005Zm2.672-12.391c-.045.64-.232 1.262-.59 1.791-1.448 1.947-2.869 3.706-4.754 5.322-1.975 1.495-3.928 3.022-5.903 4.521-.009.005-.017.014-.022.018-.143.108-.281.22-.424.327-3.736 2.793-7.337 5.86-10.617 9.177-3.101 4.024-6.608 7.731-10.415 11.088-.715.636-1.551 1.106-2.391 1.553-.25-2.829 1.037-5.618 2.507-7.963a.73.73 0 0 0 .062-.121c.84-.775 1.667-1.562 2.485-2.359 1.282-1.401 2.712-2.646 4.088-3.948 2.703-2.664 5.13-5.587 7.623-8.443 1.81-2.091 3.869-4.069 5.88-5.981.956-.962 1.872-1.969 2.846-2.914.237-.08.465-.233.657-.398 2.158-1.222 6.743-3.452 8.972-1.665l-.004-.005Zm.214-18.049c.621-.049 1.225.058 1.819.219.402.085.835.193 1.059.573.045.049.098.09.152.126.107.394.17.792.188 1.181-.005 3.837-3.124 6.5-5.599 9.025-1.698 1.67-3.436 3.111-5.246 4.691-2.895 2.239-5.304 4.983-7.949 7.494-3.284 3.084-6.072 6.616-9.088 9.96-1.569 1.8-3.36 3.483-5.143 5.094-3.785 3.935-7.86 7.557-12.373 10.686-1.827 1.114-3.632 2.274-5.567 3.196-.34.161-.684.313-1.028.465.045-.089.094-.183.143-.273 1.676-2.43 3.334-4.875 5.563-6.858a.94.94 0 0 0 .295-.64c6.747-5.354 12.65-11.818 17.1-19.208 2.002-3.129 3.896-6.317 5.952-9.414 2.591-3.537 5.473-6.858 8.387-10.135.563-.622 1.121-1.249 1.684-1.871.634-.287 1.282-1.039 1.801-1.334 2.274-1.697 4.906-3.286 7.855-2.982l-.005.005Zm-50.58 47.191c.563-1.992 1.591-3.895 2.708-5.649a.907.907 0 0 0 .085-.22 22.1 22.1 0 0 0 1.072-.801c4.473-3.595 8.441-7.843 11.904-12.413 1.715-2.261 3.181-4.687 4.655-7.104 2.127-3.215 4.142-6.496 6.001-9.876 3.213-6.016 6.028-12.274 9.902-17.914 1.166-1.643 2.225-3.438 3.775-4.763 1.966-1.536 3.919-3.532 6.56-3.613 2.475-.161 3.65 2.686 3.159 4.79-.523 1.97-1.863 3.357-2.949 5.094-1.618 2.306-3.673 4.235-5.465 6.397-3.834 4.177-7.596 8.425-11.094 12.888-3.387 4.758-6.22 9.861-9.451 14.732-5.04 6.818-11.135 13.008-18.194 17.745-.822.582-1.645 1.168-2.507 1.687a1.131 1.131 0 0 0-.353.175c.063-.434.112-.851.188-1.16l.004.005Zm-10.692-45.687c-.791 3.147-1.332 6.424-2.078 9.589-1.019 3.715-1.519 7.995-4.723 10.577-2.073 1.907-4.803 1.048-6.416-.931-.009-.026-.023-.044-.031-.071a54.228 54.228 0 0 1 3.976-7.382c2.931-4.687 6.314-9.069 9.683-13.456-.134.564-.264 1.123-.411 1.674Zm24.512-27.347a894.63 894.63 0 0 0-.706 5.815c-.813 5.538-2.1 11.339-6.201 15.431-1.542 1.41-4.37 4.552-6.604 4.051-.908-.542-.76-1.795-.948-2.731-.38-1.602-1.193-3.59-2.842-4.199a3.837 3.837 0 0 0-1.429-.013c2.694-3.792 5.384-7.597 8.051-11.447 1.117-1.665 2.579-3.16 3.669-4.87a.813.813 0 0 0 .496-.327 130.936 130.936 0 0 0 7.234-11.491c-.362 3.241-.367 6.531-.72 9.777v.004Zm17.48-39.518c1.01 4.566 1.524 9.248 1.725 13.922.299 5.152-1.037 18.183-5.688 21.026-5.206 3.236-5.563-2.31-6.14-6.026-.388-1.714-.125-4.091-1.849-5.098a2.6 2.6 0 0 0-1.622-.112c5.138-10.354 8.949-21.375 11.376-32.687.228 1.092.581 2.175.808 3.254.398 1.925.934 3.81 1.386 5.716l.004.005Zm5.992-48.646c3.463 3.823 6.76 7.847 9.146 12.445 3.642 6.674 5.952 14.271 5.465 21.948-.456 2.511-.742 5.336-2.172 7.543-1.353 1.598-2.721 3.733-4.932 4.096-2.413-.305-4.268-2.306-4.786-4.629-.478-1.58-.782-3.33-1.926-4.597-1.398-1.334-3.047-2.767-5.035-2.982-1.037-.112-2.154.17-2.958.802a140.403 140.403 0 0 0 2.118-21.613c.098-6.661-.304-13.357-1.283-19.969 1.859 2.533 4.303 4.588 6.363 6.961v-.005Zm-11.157-37.683c3.583 1.786 7.31 3.268 10.849 5.139 2.721 1.464 4.986 3.613 7.332 5.65 2.891 2.985 4.303 7.256 4.674 11.374-.121 2.458-1.587 5.206-4.214 5.6-1.868.184-3.811-.286-5.509-1.056-1.823-1.003-3.351-2.65-5.402-3.174-1.278-.17-2.721.349-3.602 1.294a3.316 3.316 0 0 0-.277.465c-1.858-9.396-4.941-18.532-9.459-27.024-.138-.26-.286-.515-.429-.775 1.922.985 4.111 1.536 6.032 2.507h.005Zm4.155 54.864c-.907 17.319-5.053 34.522-12.234 50.324-.018.009-.036.014-.053.023-.89.64-2.257.703-3.195.071-.264-.201-.518-.394-.746-.676a1.572 1.572 0 0 0-.134-.237c-1.823-6.012-5.818-11.012-9.701-15.838-4.584-5.756-9.928-11.553-11.47-18.975-1.318-8.577 4.089-16.102 9.638-22.078 4.325-4.526 9.218-9.544 9.853-16.129.286-2.619-.514-5.246-1.815-7.498-2.654-4.298-6.599-9.043-4.789-14.419.54-1.714 1.787-3.039 2.895-4.405.625-.873 1.327-1.687 2.02-2.506.808-1.088 1.581-2.23 2.22-3.429.21-.171.407-.368.586-.538.741-.613 1.291-1.329 2.225-1.705 1.108-.399 2.127.447 2.739 1.316a.775.775 0 0 0 .263.318c9.321 17.028 12.592 37.078 11.694 56.385l.004-.004Zm-19.928-82.157c3.655-.054 7.35.058 10.956.663 1.716.416 3.387.989 5.063 1.526 1.684.591 3.48.9 5.062 1.751 1.667.828 2.788 2.359 3.543 4.024.854 2.113 2.158 4.637 1.546 7.037-.455 1.508-1.144 2.838-2.082 4.145-.737.609-1.729.846-2.667.918-1.913.098-3.486-.739-5.063-1.755-1.734-.9-3.811-1.491-5.755-1.012-1.327.452-2.873 1.639-3.499 3.04a75.282 75.282 0 0 0-1.711-2.592 72.652 72.652 0 0 0-2.52-3.407.806.806 0 0 0-.179-.309c-.5-.537-1.01-1.065-1.523-1.589a.86.86 0 0 0-.224-.223c-.29-.291-.576-.582-.867-.873-4.338-4.271-9.155-8.076-14.41-11.147 4.777.063 9.518-.089 14.326-.188l.004-.009Zm-54.812-6.262a.99.99 0 0 0 .224-.224c2.14-1.58 4.213-3.232 6.363-4.817 1.689-.994 3.413-1.929 5.044-3.017 2.887-1.638 6.037-2.749 9.026-4.181 2.252-.976 4.727-2.1 7.113-2.945a32.54 32.54 0 0 1 10.947-2.02 16.874 16.874 0 0 1 7.221 1.164c1.537.529 3.021 1.84 3.324 3.483-.008 2.919-2.6 4.647-4.763 6.187-1.273.756-2.654 1.311-3.981 1.969-1.814.703-3.704 1.473-4.834 3.152-1.207 1.517-1.354 3.321-.756 4.798-11.809-5.434-23.94-6.226-35.272-3.294.117-.085.233-.166.344-.255Zm-18.887 2.891c.116.005.233.018.349.027.161.072.335.121.514.139a2.5 2.5 0 0 1 1.255 1.321c.282.828.201 1.705-.044 2.56-.063.26-.228.51-.362.761-5.702 3.662-10.974 8.34-15.612 13.873l-.148.174c-.733.412-1.577.627-2.413.497-1.309-.183-2.22-1.052-2.6-2.319a.84.84 0 0 0-.157-.264c.693-9.642 9.5-17.427 19.218-16.76v-.009Zm-25.652 42.142c-1.617-.792-2.511-2.699-2.506-4.45.227-1.799 1.528-3.263 3.029-4.185 1.533-1.133 3.418-1.5 5.295-1.366 3.659.399 7.279 1.854 10.384 3.855 2.194 1.549 4.187 3.572 6.233 5.403 2.989 2.744 5.898 5.739 8.883 8.514 3.539 2.977 7.194 5.811 11.171 8.174 1.966 1.33 3.949 2.686 6.103 3.698 2.909 1.159 6.081 1.54 9.187 1.222.183.04.388.036.603.013-.612.43-1.381.515-2.091.707-1.207.287-2.413.573-3.655.694-2.958-.053-5.867-.286-8.731-1.119-3.007-1.074-5.719-2.739-8.262-4.651a2.073 2.073 0 0 0-.59-.452 81.167 81.167 0 0 1-2.904-2.373c-4.96-3.881-9.83-8.205-15.84-10.358-2.556-.94-5.192-1.638-7.891-2.01-2.819-.34-5.773-.09-8.409-1.325l-.009.009Zm17.891 5.989s.013-.035.022-.053c4.889 2.372 9.057 5.953 13.32 9.329a.827.827 0 0 0 .393.407c.903 1.016 2.015 1.898 2.619 3.143 1.34 3.012-.268 6.669-2.923 8.415-.084.05-.183.103-.281.157-.871.327-1.747.622-2.641.873-5.429 1.486-11.255 2.775-16.89 1.768a21.382 21.382 0 0 1-3.699-1.24.87.87 0 0 0-.233-.246c-1.657-1.142-2.52-3.34-2.453-5.318.027-1.63 1.095-2.914 2.105-4.087 1.291-1.477 2.69-2.852 4.039-4.275.961-.909 1.792-1.947 2.565-3.026 1.51-1.683 2.846-3.519 3.883-5.529l-.054.108c.072-.144.148-.278.219-.421l.009-.005Zm-25.165 8.072c.541-1.061 1.421-1.881 2.23-2.736.473-.488.84-1.087 1.425-1.454.912-.479 1.774-1.129 2.766-1.415 1.845-.34 4.204.072 5.496-1.576.272-.358.531-.72.8-1.083.169-.085.33-.184.478-.282.933-.443 1.934-.694 2.971-.685 1.868-.076 3.682.752 5.04 2.014.25.18.447.466.648.73-.545.819-1.13 1.612-1.64 2.444-.147.22-.299.43-.456.645-2.466 2.551-5.062 4.928-8.105 6.826-1.573 1.138-3.244 2.095-5.201 2.427-.17.04-.348.071-.523.116-.219-.609-.371-1.235-.357-1.907-.067-.828-.219-1.679.067-2.484.255-.569.634-1.263.018-1.755-.367-.322-.965-.224-1.256.143-.214.363-.335.757-.491 1.151-.434 1.643-.17 3.442.183 5.08 1.921 5.569 7.288 9.298 12.69 11.08 2.895.873 5.933.989 8.967.707.38.072.831.018 1.198-.045 1.809-.098 3.458-.474 5.246-.85 2.117-.506 4.289-.918 6.349-1.661 3.163-1.348 6.197-2.798 9.584-3.644 3.025-1.061 6.202-.765 9.343-.631.443.157.876.345 1.3.568 1.243.636 2.168 1.549 3.052 2.565-.406.22-.786.417-1.103.596-1.832 1.029-3.789 1.772-5.706 2.623-3.329 1.598-6.546 3.433-9.71 5.34-4.106 2.454-8.105 5.001-12.832 6.16-5.662 1.482-11.895 1.088-17.449-.873-6.899-2.748-13.436-8.608-15.826-15.775-1.26-4.02-1.032-8.55.795-12.359h.009Zm11.206 12.489s-.004 0-.009-.005h.005v.009l.004-.004Zm-3.539 14.924c2.999 6.245 4.522 15.238 3.396 22.11-.098.483-.196.953-.281 1.432-.014 0-.031-.009-.045-.009l-.809-.215c-.102-1.925-.643-3.755-1.286-5.564-1.05-5.215-2.109-10.448-3.159-15.677-.429-2.144-.841-4.185-1.269-6.298.218.211.442.425.67.627.514.439 1.036.868 1.568 1.294.031.102.076.201.139.295.393.649.728 1.325 1.081 1.996l-.005.009ZM108.301 15.202a.955.955 0 0 0 .169-.22c.51-.487.988-1.002 1.412-1.57.764-.999 1.198-2.212 1.488-3.43.13-.622.188-1.266.532-1.817.46-.82 1.247-1.36 1.975-1.925 2.118-1.53 4.486-3.29 7.051-4.199 1.497-.242 3.11-.403 4.566.103 1.555.743 3.025 1.66 4.415 2.686 5.103 3.787 7.985 8.617 10.71 14.226 2.351 4.052 3.57 8.613 5.192 12.982 1.752 5.023 3.651 10.04 4.737 15.26.312 2.18.723 4.343.974 6.532.312 3.214.313 6.562.344 9.803.5 5.56-.769 6.858-5.367 9.674-2.296 1.208-4.932 2.215-7.56 1.889-1.09-.314-1.908-1.15-2.873-1.706-1.993-1.32-4.298-1.777-6.626-1.652a2.825 2.825 0 0 0-.796-.116c-1.134-.152-2.31-.094-3.422-.367-1.81-.82-3.043-2.556-3.861-4.32l.014.027c0 .004.004.009.009.013-.496-1.038-.608-2.135-.966-3.245a.898.898 0 0 0-.151-.3c-.443-5.318-1.47-10.578-3.253-15.627-1.363-3.8-2.695-7.624-4.303-11.326-1.117-2.278-2.292-4.624-3.539-6.925-.107-.658-.746-1.415-.907-2.01-1.993-4.064-3.758-8.81.049-12.44h-.013ZM28.985 46.246l-.004.005-.005-.005h.01Zm9.402 71.897c-.085.04-.17.067-.255.103h-.067a.83.83 0 0 0-.688.282 8.954 8.954 0 0 1-2.395.394c-1.64.013-3.056-1.03-4.486-1.724-2.762-1.732-5.237-4.024-7.315-6.549-2.162-2.462-4.191-5.031-5.974-7.798-3.753-5.112-6.975-10.631-9.656-16.384-2.176-4.812-3.494-10.022-4.396-15.242-.943-3.783-1.305-7.543-1.39-11.433-.085-2.619.438-5.161 1.1-7.677.214-2.511 1.635-4.812 3.85-5.998.068-.032.14-.068.202-.103l.156-.081c1.435-.322 2.954-.112 4.38-.524.084.036.169.072.254.099.268.09.558.035.777-.117.93.394 1.94.363 2.891.618 3.173 1.495 5.885 3.836 7.98 6.675 2.418 2.887 4.652 5.994 6.43 9.36 4.138 6.974 7.525 14.36 9.929 22.123 2.015 6.835 3.686 14.006 3.342 21.191a29.705 29.705 0 0 1-.621 5.811c-.55 2.847-.956 5.846-4.048 6.974Zm11.621-11.433c-.165 1.603-.585 3.147-1.032 4.687-.277 1.092-.576 2.207-1.161 3.178-1.752 1.079-3.557 1.997-5.487 2.704.674-.971 1.09-2.095 1.322-3.259.938-3.657 1.265-7.413 1.274-11.182-.228-6.437-1.546-12.74-3.419-18.89-2.207-7.15-5.138-14.057-8.887-20.53-1.39-2.435-2.73-4.897-4.276-7.234-1.6-2.18-3.32-4.28-5.04-6.365-1.555-1.876-3.512-3.412-5.643-4.584-.64-.363-1.256-.793-1.971-1.003-.621-.18-1.175-.139-1.823-.278a98.896 98.896 0 0 1 2.511-.47c1.694.193 3.284-.43 4.938-.649 5.08.78 13.301 13.376 15.665 18.04 1.8 3.304 3.047 6.925 4.361 10.47 1.265 3.416 2.574 6.81 3.735 10.266 1.73 4.843 3.311 9.767 4.192 14.848.683 3.38 1.143 6.818.737 10.264l.004-.013Zm23.248-2.981c-1.344-.878-2.716-1.751-4.146-2.485-.206-.246-.518-.421-.822-.515-1.233-.483-2.453-.998-3.74-1.32-1.734-.484-3.49-.528-5.188-1.258-2.153-.864-3.994-2.158-5.697-3.77-1.47-1.459-2.855-3.258-4.008-5.04-.187-.34-.317-.81-.536-1.15-1.103-3.707-2.404-7.36-3.677-10.976-2.793-7.28-5.027-14.903-9.325-21.465 0-.032 0-.058-.01-.09-.138-.394-.303-.756-.468-1.137-.465-1.034-.916-2.077-1.207-3.182-1.278-4.137.653-6.138 3.267-8.994a7.522 7.522 0 0 0 1.04-1.217c3.638-4.4 1.408-13.12 7.905-14.898.09-.036.16-.08.228-.13 8.806-3.424 17.533-6.979 26.21-10.739 3.32-1.303 6.577-2.887 10.098-3.559 4.705-.452 10.157.685 13.785 3.881 1.707 1.67 3.387 3.394 4.638 5.444 1.336 1.956 2.828 3.796 3.981 5.873 3.378 5.609 6.251 11.527 8.378 17.722 1.702 4.5 3.159 9.114 3.95 13.868.389 2.677.603 5.381.733 8.085a.86.86 0 0 0 .026.649v.005c.018.47.045.944.059 1.414.031 3.08-.014 6.195-.796 9.195-.871 3.567-1.935 7.202-3.86 10.39-1.055 2.09-2.087 4.391-3.964 5.85a.895.895 0 0 0-.572.314c-.049.053-.089.112-.134.17-8.101 4.454-17.01 7.328-25.96 9.485-3.476.582-6.89 1.563-10.192-.429l.005.009Zm17.873 52.737c-2.877-11.093-5.755-22.185-8.632-33.283l-1.609-6.204c.157-.228.268-.506.335-.756.295-.645.577-1.303 1.001-1.876 1.962-3.017 4.933-5.273 8.092-6.939 3.2-1.728 6.805-2.82 10.487-2.48 3.15.367 6.399 1.128 9.048 2.937a.89.89 0 0 0 .282.264c1.55 7.695 3.105 15.448 4.664 23.161 1.774 8.814 3.553 17.624 5.327 26.434l.469 2.341c.183 2.892-.224 5.788-.215 8.68.018 2.301-.04 4.808-.071 7.144.228 4.942 1.899 9.773 4.486 13.971-.018-.026-.022-.035-.04-.067.844 1.482 1.787 3.031 2.471 4.651.263.457.37 1.249.656 1.778.599 2.976 1.198 5.953 1.801 8.93-.094.215-.17.439-.259.636a4.198 4.198 0 0 1-1.269 1.674c-.818.873-1.805 1.549-2.945 1.925-3.628 1.607-7.819.412-11.304-1.079-3.66-1.531-6.653-4.266-9.106-7.337-1.055-1.307-2.302-2.543-3.025-4.065a2.472 2.472 0 0 1-.291-.546c-.532-2.032-1.05-4.069-1.582-6.101-2.917-11.267-5.848-22.535-8.766-33.802l-.005.009Zm8.048 54.94c-.988-3.429-.934-7.243.428-10.565.188-.595.246-1.24.622-1.759v-.004c1.546 3.478 4.106 6.392 6.796 9.055 4.155 3.935 9.253 6.648 14.495 8.846 8.373 3.756 17.466 5.618 26.474 7.176 8.74 1.28 17.649 1.553 26.496 1.629 6.667-.071 13.342-.873 19.951-1.755a25.81 25.81 0 0 0 .384 7.785c.058.233.125.465.188.694-1.09.04-2.167.233-3.244.376-3.119.51-6.256.895-9.406 1.141-10.889 1.258-21.809 2.48-32.796 2.207-7.292-.156-14.477-1.616-21.492-3.581-6.086-1.612-11.895-4.015-16.939-7.896-4.737-3.622-10.027-7.431-11.957-13.349Zm37.658-7.145.067.094h-.049c-.005-.031-.014-.062-.018-.094Zm1.93 7.776c.384-.936 1.296-2.784 2.431-2.861a.831.831 0 0 0 .607.112c1.734 1.294 3.611 2.413 5.505 3.452 2.86 1.638 5.983 2.824 8.82 4.507.072.081.148.162.228.238.349.622.604 1.298.657 2.019.076 1.101.04 2.296-.572 3.25-.107.174-.254.34-.389.51-.79-.067-1.581-.134-2.372-.215-4.736-.43-9.415-1.316-14.062-2.332a8.158 8.158 0 0 1-.563-.918c-.639-.779-.764-1.773-.75-2.748-.157-1.684.062-3.385.469-5.019l-.009.005Zm-28.297 21.854c-.42-.609-.863-1.195-1.229-1.84-1.072-1.92-1.577-4.27-1.684-6.468.008-.421.026-.846.071-1.263 4.683 3.778 9.91 7.002 15.719 8.743 6.778 2.243 13.785 3.885 20.889 4.62 12.082 1.069 24.218-.327 36.237-1.643 2.891-.367 5.813-.511 8.695-.954 1.899-.277 3.794-.626 5.706-.788.233.018.465-.013.671-.094a26.747 26.747 0 0 0 2.363 5.01c-.469.071-.96.214-1.354.241-2.524.564-4.977 1.388-7.488 1.992-5.3 1.254-10.697 2.127-16.126 2.767-7.654 1.079-15.402 1.186-23.119 1.092-8.856-.354-17.77-1.325-26.197-4.235-3.548-1.271-7.019-2.789-10.138-4.946-1.006-.725-2.038-1.451-3.012-2.234h-.004Zm3.141 10.846c-1.032-1.83-1.524-3.916-2.207-5.891-.184-.747-.367-1.513-.394-2.283 1.015.726 2.051 1.411 3.052 2.082 12.994 7.579 29.428 8.769 44.177 8.411 9.272-.044 18.441-1.311 27.538-3.062 4.379-.667 8.512-2.466 12.895-3.039a.94.94 0 0 0 .313-.099c.344.484.711.954 1.09 1.41-.268.135-.531.278-.791.385-7.989 3.582-16.545 5.712-25.044 7.7-4.182.918-8.427 1.518-12.703 1.965-7.006.788-14.075 1.16-21.117.739-6.979-.636-14.093-2.113-20.719-4.513-1.684-.644-3.436-1.253-5.04-2.099-.259-.591-.791-1.115-1.046-1.701l-.004-.005Zm32.176 29.93a7.057 7.057 0 0 0-.112-.519c-.21-1.025-.545-2.064-.863-3.071a1.11 1.11 0 0 0-.062-.13c-.058-.286-.121-.609-.192-.958-1.019-5.04-2.024-10.085-3.048-15.13 3.606.21 7.234.188 10.849.009a.878.878 0 0 0 .358.058c.29-.045.581.027.871.063 1.171.232 2.511.716 3.382 1.589 1.077 1.177 1.962 2.914 1.748 4.566v.134c-2.311 5.748-4.326 12.239-.604 17.696 1.193 1.83 2.994 3.146 4.433 4.771 8.445 8.985 1.403 18.247-3.892 27.504a.897.897 0 0 0-.353.233c-.576.935-1.497 1.75-2.676 1.468-.787-.206-1.542-.721-2.118-1.285-.416-.412-.604-1.285-.939-1.884-.965-4.817-1.979-9.817-2.949-14.652a.886.886 0 0 0-.076-.242c-.094-.326-.196-.653-.232-.944-.505-1.598-.693-3.268-1.001-4.911-.357-2.435-.889-4.781-1.314-7.229a.86.86 0 0 0-.219-.488c.045-.233.085-.47.121-.716a8.739 8.739 0 0 0-1.112-5.932Zm-6.6-9.772c-3.284.891-7.27.327-10.393-.595-4.285-1.115-8.414-3.223-11.394-6.563-.152-.577-.308-1.159-.456-1.737l-1.876-7.238c.223.121.451.237.688.336 4.07 1.692 8.337 2.873 12.537 4.194 3.101.936 6.591 1.361 9.129 3.536 2.02 1.881 3.74 5.887 1.761 8.063l.004.004Zm-24.848-11.554-.018-.013c.005.004.009.009.018.013Zm-1.908 5.721c.161-1.773.474-3.59 1.461-5.103-.08 5.005 3.209 8.984 7.404 11.549.161.13.326.255.496.372 3.124 1.813 6.524 3.044 9.893 4.329 1.716.568 3.512.868 5.246 1.392 2.448.568 5.129 1.32 6.831 3.294.108.13.206.269.304.408.072.277.201.519.411.667 1.439 2.766.791 6.634-1.443 8.769-2.113 1.773-5.201 1.374-7.734.967-6.113-.944-11.502-4.4-15.612-8.944-4.67-4.669-7.619-11.016-7.248-17.7h-.009Zm2.194 22.512c-.053-.492-.013-.98 0-1.472.014-.815.076-1.607.326-2.404a7.948 7.948 0 0 1 1.399-1.983 34.484 34.484 0 0 0 2.882 3.178c3.248 3.281 7.118 6.11 11.546 7.525 3.61 1.15 7.761 1.952 10.965.967.053.327.259.671.465.962 1.367 2.843 2.417 6.008-.456 8.326-7.056 4.965-17.98-2.596-23.986-9.727l-.04-.067c-.022-.022-.04-.036-.062-.054-1.211-1.446-2.212-2.874-2.936-4.172a3.06 3.06 0 0 0-.112-1.074l.009-.005Zm11.448 23.417c-2.712-.985-5.045-2.726-7.346-4.454a11.912 11.912 0 0 1-.456-.443c-.116-.206-.237-.403-.321-.582-.206-.475-.358-.985-.505-1.478-.568-1.822-1.001-3.769-1.068-5.698-.014-1.186.161-2.391.674-3.469 4.469 5.112 10.519 9.257 15.858 10.712 1.452.416 3.088.573 4.692.429v.032c.089 2.713-1.89 4.669-4.33 5.483-2.368.614-4.852.063-7.189-.532h-.009Zm36.009 61.045c.152.484.148 1.308.451 1.795.197.882.394 1.764.411 2.673a23.397 23.397 0 0 1-.536 3.532c-.607 1.987-1.988 3.693-3.539 5.036-1.514 1.24-3.677.797-5.437.416-2.328-.237-3.825-2.095-5.045-3.957-.424-.756-.684-1.598-1.05-2.386-.08-.443-.273-.922-.344-1.307-.929-3.59-1.868-7.18-2.793-10.77-1.894-7.342-3.82-14.674-5.71-22.016-1.805-6.983-3.624-13.966-5.433-20.95.017-.044.04-.089.053-.138.076-.99.157-2.015.559-2.941 1.144-2.762 3.664-4.562 5.219-7.033 1.135-1.853 1.26-4.069 2.024-6.061.625-1.348 1.845-2.22 2.792-3.326 1.247-1.021 1.788-2.838 1.989-4.418.228-2.664-.291-5.618-1.94-7.772a6.556 6.556 0 0 0 1.904-2.05c.456 2.453.934 4.929 1.3 7.413.188 1.043.474 2.073.733 3.098.067.304.13.734.273 1.097l.71 3.514c.719 3.581 1.434 7.158 2.163 10.739 0 .009 0 .018.004.027l.067.335c1.35 6.724 2.721 13.51 4.097 20.346 2.328 11.603 4.719 23.407 7.069 35.091l.009.013Zm39.008-4.225c-8.91-1.303-17.154-5.242-25.076-9.405-5.737-3.116-11.269-6.666-15.621-11.639-.675-.86-1.242-1.795-1.894-2.673a4.098 4.098 0 0 0-.3-.367l-2.212-10.99a.89.89 0 0 0 .045-.452c-.599-4.14.934-8.281 2.936-11.849 3.382-6.755 8.731-12.959 9.24-20.793.375-4.154-1.519-8.282-4.419-11.178-1.877-2.05-4.249-3.751-5.246-6.482-2.725-7.681 3.182-14.727 4.603-22.033 7.368-.842 14.624-2.431 21.773-4.418 3.718-1.061 7.408-2.198 11.037-3.541 1.849-.654 3.588-1.603 5.415-2.301.237.237.474.475.724.703 1.524 1.414 3.056 2.824 4.665 4.145.384.3.956.224 1.251-.161a.902.902 0 0 0-.161-1.254c-.724-.559-1.336-1.119-2.024-1.754-1.577-1.379-3.123-2.807-4.5-4.396-2.314-2.722-3.833-6.097-4.767-9.549-.559-2.318-.487-4.919-.349-7.323.197-1.486.474-3.205.97-4.66.268-.757.639-1.759.929-2.587.192-.439.175-.976-.232-1.29-.563-.479-1.479.023-1.466.739-.254.716-.513 1.428-.773 2.144a24.819 24.819 0 0 0-.951 3.743c-2.529.246-5.027.716-7.561.966-4.986.547-9.932.869-14.986.846a577.759 577.759 0 0 1-8.32-.268c0-1.553-2.176-4.459-2.891-5.094-1.13-1.137-2.421-2.059-3.784-2.87a1.6 1.6 0 0 0-.166-.098c-1.778-1.039-3.677-1.898-5.527-2.789-3.699-1.844-7.448-3.841-10.558-6.625-2.377-2.252-4.173-5.09-5.429-8.13-.201-.487-.398-.98-.55-1.486 1.314.793 2.686 1.478 4.138 1.997 6.117 2.144 12.851 2.551 19.128.752 6.399-1.706 11.689-5.873 17.453-8.944 2.337-1.303 4.607-2.516 7.127-3.492 2.136-1.052 5.21-2.265 7.381-4.051.644-.107 1.162-1.039 1.631-1.477 1.229-1.473 2.681-3.062 2.878-5.054.049-.998-.224-1.809-.804-2.274-.112-.417-.501-.761-.97-.69-2.113.242-4.231.681-6.376.551-1.586-.17-3.128-.457-4.656-.94-2.167-.864-4.097-2.234-6.041-3.501-1.314-.949-2.739-1.719-4.084-2.614-3.637-2.69-7.31-5.443-10.447-8.733-2.122-2.06-4.244-4.101-6.425-6.102-2.386-2.167-4.696-4.517-7.582-6.066-.094-.044-.184-.089-.278-.134-.268-.264-.67-.474-.991-.676-.957-.622-1.926-1.235-2.596-2.189.004.005.008.014.013.018.009.009.013.018.022.027-2.028-2.574-2.368-5.229-.42-7.99.402-.556.733-1.061 1.175-1.612.152-.143.286-.304.389-.47.116-.139.232-.273.349-.407.062-.063.129-.117.187-.179.014-.027.023-.054.032-.077 3.373-3.921 7.113-7.525 11.233-10.667 17.913-13.85 40.736-15.421 60.191-3.595 5.326 3.192 10.04 7.046 14.441 11.491.478.887 1.122 1.59 1.515 2.543.554 1.424.836 2.955.961 4.477a.927.927 0 0 0 .009.317 11.326 11.326 0 0 1-1.059 4.047c-.072.143-.152.278-.228.421-.049.072-.09.148-.121.224-1.282 2.292-2.998 4.284-4.629 6.338-1.845 1.997-3.137 4.562-3.146 7.324-.174 3.894 1.944 7.359 3.999 10.497 1.234 1.836 2.453 3.743 2.9 5.945.916 4.991-2.001 9.768-5.116 13.429-4.383 4.781-9.088 9.432-12.037 15.297-3.771 7.672-2.94 14.964 1.733 22.006 6.855 11.03 18.584 19.298 18.468 33.484.031.43.085.877.107 1.32.009.094.04.179.08.26a130.087 130.087 0 0 1-6.327 10.354.886.886 0 0 0-.415.318 24.41 24.41 0 0 0-1.935 2.699c-1.046 1.545-2.39 2.87-3.387 4.454-1.711 2.471-3.458 4.996-5.241 7.445a295.363 295.363 0 0 1-11.148 15.157c-3.526 4.678-6.935 9.517-9.611 14.755a140.483 140.483 0 0 0-2.243 4.883c-.988 2.574-1.56 5.318-1.855 8.058-.317 4.432 1.747 9.011 5.38 11.59 1.497.846 3.155 1.768 4.884 2.327.858.206 1.715.426 2.591.569 2.547.358 5.121.537 7.69.421.398-.045.929.049 1.399.035a.82.82 0 0 0 .299.112c.219.054.411.197.612.296.742.434 1.189 1.24 1.667 1.929 1.108 1.388 1.725 3.04 1.899 4.803.237 1.187.523 2.391.384 3.608-.268 2.342-1.515 4.499-3.025 6.263-4.459 4.288-8.999 5.009-14.968 4.262h-.009Zm-3.311-144.76s-.023.008-.032.017a.931.931 0 0 0 .3-.277c-.036.08-.116.143-.183.206h.004c-.031.013-.058.036-.089.054Zm112.299 172.984c-3.194.403-6.425.054-9.557-.636-3.119-.595-6.006-1.961-9.048-2.82-5.581-1.133-10.809-3.429-16.3-4.875-6.609-1.831-13.311-3.348-19.763-5.703-1.649-.573-3.186-1.401-4.781-2.086-1.64-.663-3.347-1.115-5.018-1.674-1.953-.681-3.798-1.621-5.728-2.359-3.816-1.33-7.708-2.427-11.586-3.559-1.698-.466-3.28-1.236-4.871-1.983-3.101-1.352-6.447-2.046-9.74-2.744-.009 0-.014 0-.023-.005 1.287-.783 2.52-1.674 3.61-2.717.304-.336.595-.689.872-1.056.433.206 1.068.223 1.523.317.447.05 1.05.229 1.52.144 5.956.873 11.688 2.932 17.104 5.546 3.186 1.115 6.202 2.623 9.356 3.805 4.156 1.656 8.356 3.183 12.641 4.485 4.227 1.393 8.423 2.919 12.739 4.002 1.944.39 3.713.77 5.692 1.214 5.313.949 10.679 1.508 16.055 1.92 3.623.358 7.479.698 11.175.85 4.343.426 10.513.193 12.216 5.202.5 3.451-5.563 4.32-8.083 4.736l-.005-.004Z"/><path fill="#000" d="M215.734 150.159c2.994-14.934-11.42-27.75-25.866-22.991-13.771 4.409-18.427 21.916-8.659 32.62 11.041 12.18 31.358 6.513 34.525-9.629Zm-34.771 6.432c-6.765-9.799-2.216-23.725 9.079-27.597 11.157-3.998 23.409 4.024 24.231 15.891 1.126 18.703-22.488 27.061-33.315 11.711l.005-.005Z"/><path fill="#000" d="M207.62 144.944c-.241.246-.518.465-.836.595-.312.13-.63.192-.965.219a3.361 3.361 0 0 1-1.756-.353 3.596 3.596 0 0 1-.791-.529 3.01 3.01 0 0 1-.616-.769c0 .008.009.013.009.022-.014-.027-.027-.054-.041-.076.009.018.023.036.032.054-.201-.372-.344-.779-.344-1.205 0-.215.018-.425.071-.631.058-.21.143-.407.232-.609.26-.586.604-1.204 1.122-1.598a2.695 2.695 0 0 1 2.055-.488c.018 0 .036.005.054.009-2.507-3.518-6.912-5.662-11.734-4.628-8.976 1.857-12.229 13.245-5.585 19.589 5.684 5.564 15.536 3.545 18.557-3.832.634-1.486.925-2.999.925-4.463 0-.546-.041-1.084-.117-1.616a4.36 4.36 0 0 1-.268.309h-.004ZM156.75 185.939s.022-.004.035-.009c-.009 0-.018 0-.027.005h-.008v.004ZM156.848 185.917h-.013c-.018 0-.036.009-.054.013l.063-.013h.004ZM223.634 336.478l-.027.041-.013.027.04-.072v.004ZM29.347 65.294c-.79-1.679-1.783-3.264-2.877-4.759-.518-.622-1.032-1.244-1.47-1.925-.277-.452-.733-.962-1.327-.971-.487-.027-.894.425-.894.895 0 .385.237.685.563.82 1.363 1.924 2.913 3.72 3.977 5.846.304.635.639 1.262.93 1.911.196.448.719.672 1.17.475 1.036-.488.286-1.59-.067-2.297l-.005.005ZM29.432 68.172c-.71.936.706 2.028 1.434 1.11.711-.935-.706-2.028-1.434-1.11ZM22.372 103.214a19.53 19.53 0 0 1-1.385-1.916c-.33-.555-.661-1.352-1.394-1.392a.904.904 0 0 0-.947.743c-.063.371.12.73.424.913.532.895 1.095 1.782 1.76 2.588.72.872 1.529 1.665 2.28 2.511.321.367.92.358 1.264.031.362-.345.358-.9.031-1.267-.666-.747-1.38-1.446-2.028-2.211h-.005ZM26.407 107.471c-.469-.018-.93.372-.93.86s.358.908.859.931c.469.018.93-.372.93-.86s-.358-.909-.859-.931ZM97.099 97.166c.996-.34 1.97-.765 2.935-1.19 2.159-1.102 4.656-1.934 6.488-3.532.697-.82-.339-2.028-1.22-1.366-1.251 1.272-3.109 1.755-4.642 2.641a48.677 48.677 0 0 1-4.231 1.787c-.46.156-.666.734-.487 1.168.192.47.706.649 1.166.488l-.01.004ZM93.176 98.415a.894.894 0 1 0-.002-1.789.894.894 0 0 0 .002 1.79ZM127.474 7.928c1.126.671 2.015 1.987 2.975 2.919.907 1.074 1.609 2.3 2.386 3.464.434.636 1.524.332 1.591-.425.045-.269-.067-.524-.228-.743-.858-1.29-1.698-2.771-2.806-3.913-.585-.635-1.188-1.248-1.787-1.87-.465-.507-.956-1.026-1.658-1.16-1.139-.291-1.595 1.383-.473 1.728ZM135.164 17.946a.894.894 0 1 0-.003-1.788.894.894 0 0 0 .003 1.788ZM90.334 140.552c.483-.13.737-.64.626-1.101-.425-1.652-.97-3.272-1.39-4.924-.505-2.22-1.184-4.414-1.953-6.549-.393-.842-1.774-.578-1.76.376 1.099 2.959 1.823 6.083 2.69 9.141.232.81.491 1.616.688 2.435.116.474.639.752 1.099.627v-.005ZM90.883 144.693a.895.895 0 1 0-.001-1.789.895.895 0 0 0 .001 1.789ZM145.655 350.7c-.461-1.647-.992-3.272-1.35-4.946-.822-3.698-1.604-7.413-2.658-11.048-.523-1.769-1.015-3.546-1.533-5.318-.465-1.607-.621-3.3-1.166-4.875-.492-1.079-2.082-.385-1.649.694 1.3 5.935 3.213 11.437 4.468 17.386.671 2.847 1.256 5.748 2.167 8.577.13.47.63.757 1.1.622a.903.903 0 0 0 .625-1.101l-.004.009ZM146.142 358.158a.895.895 0 1 0-.003-1.793.895.895 0 0 0 .003 1.793ZM117.447 224.679a.905.905 0 0 0 1.202-.39c.219-.421.054-.994-.384-1.204a56.743 56.743 0 0 1-2.949-1.504c-3.338-1.836-6.627-3.926-9.196-6.778-.433-.51-1.305-.59-1.635.072a.904.904 0 0 0 .375 1.2c.514.532 1.005 1.088 1.555 1.589 2.574 2.26 5.469 4.114 8.485 5.73.84.447 1.694.868 2.547 1.285ZM121.848 226.509c.505-.026.845-.456.845-.944 0-.488-.474-.873-.943-.846-.505.027-.845.456-.845.944 0 .488.474.873.943.846ZM153.13 243.677c.224 0 .443-.059.666-.041 3.668.314 7.328-.112 10.987-.318 1.176-.094 1.068-1.826-.098-1.79-2.882.134-5.746.501-8.641.416-1.041.143-3.544-.729-3.745.77-.036.47.34.945.827.958l.004.005ZM169.971 241.877c.505-.027.844-.457.844-.944 0-.488-.474-.873-.943-.846-.505.026-.844.456-.844.944 0 .488.473.873.943.846ZM115.839 245.427c1.814.739 3.516 1.84 5.455 2.332.939.139 2.713 1.209 3.106-.17.187-1.204-1.359-1.141-2.149-1.415a24.809 24.809 0 0 1-2.538-.886c-1.22-.434-2.342-1.459-3.62-1.598-.942.018-1.17 1.428-.254 1.737ZM127.496 249.438c.505-.027.845-.457.845-.945 0-.488-.474-.873-.943-.846-.505.027-.845.457-.845.945 0 .488.474.873.943.846ZM200.833 231.711a25.85 25.85 0 0 1-.55-2.552c-.254-1.853-.031-3.787.143-5.644.032-1.513.394-2.955 1.144-4.275.255-.663-.442-1.366-1.112-1.155-.385.071-.657.411-.697.788-.282.577-.55 1.168-.733 1.781-.358 1.245-.317 2.561-.501 3.836-.245 2.57-.205 5.099.559 7.602.286 1.145 1.975.765 1.747-.381ZM201.677 234.491c-.465-.027-.943.354-.943.846s.335.913.845.945c.465.026.943-.354.943-.847 0-.492-.335-.913-.845-.944ZM162.603 120.909c-1.037.636-2.154 1.33-3.177 2.06-3.794 2.574-6.921 5.81-10.197 9.015-.281.305-.598.761-.549 1.2.089 1.021 1.546 1.097 1.774.121 3.266-3.264 6.532-6.563 10.388-9.146a44.995 44.995 0 0 1 2.462-1.584c.228-.121.492-.323.568-.596.263-.72-.603-1.463-1.265-1.07h-.004ZM166.807 118.828c-.464-.027-.938.358-.938.846s.34.913.845.94c.464.027.938-.358.938-.846s-.34-.913-.845-.94ZM226.815 131.559c1.073 1.518 2.36 3.241 2.002 5.211-.143 1.625-1.135 2.909-2.207 4.055a.903.903 0 0 0 .085 1.263c.357.313.947.291 1.26-.085.969-1.088 1.975-2.23 2.346-3.676.442-1.495.549-3.173-.117-4.619a16.461 16.461 0 0 0-1.787-3.013c-.357-.591-1.072-1.249-1.738-.671-.509.443-.308 1.146.156 1.535ZM224.286 145.405c.505-.023.845-.452.845-.94 0-.488-.469-.873-.938-.846-.505.022-.845.452-.845.94 0 .488.469.873.938.846ZM235.457 164.855c-.371-.895-1.291-2.623-2.337-1.424-.295.421-.13.963.246 1.263.634 1.244 1.282 2.484 1.863 3.756 1.014 2.923 1.729 6.043.107 8.903-.205.443-.044.981.402 1.2.429.21.992.04 1.198-.403.545-1.164 1.072-2.377 1.117-3.689.21-2.52-.501-5.044-1.47-7.35-.371-.756-.751-1.508-1.126-2.26v.004ZM234.393 181.154c-.505.022-.844.452-.844.94 0 .488.469.873.938.846.505-.027.845-.452.845-.94 0-.488-.47-.873-.939-.846ZM226.395 226.187c-2.158-2.672-4.276-5.425-6.085-8.393-.648-.837-1.283-4.602-2.833-3.644-.894.631.013 1.531.268 2.256.34.842.693 1.71 1.166 2.534 1.859 3.03 4.053 5.841 6.278 8.603a66.74 66.74 0 0 1 2.114 2.95.899.899 0 0 0 1.237.247.9.9 0 0 0 .246-1.24c-.764-1.124-1.542-2.248-2.395-3.313h.004ZM230.22 232.562c-.505.022-.845.452-.845.94 0 .488.47.873.939.846.505-.023.844-.452.844-.94 0-.488-.469-.873-.938-.846ZM174.68 135.713a.902.902 0 0 0-.652 1.066c-1.595 3.142-2.279 6.464-2.556 10.013-.04.488.411.905.876.914.487.018.898-.399.912-.878.218-3.362 1.054-6.652 2.533-9.669.21-.707-.282-1.652-1.108-1.441l-.005-.005ZM172.299 149.662c-.478-.009-.912.389-.912.877s.384.904.876.913c.478.009.911-.389.911-.877a.906.906 0 0 0-.875-.913ZM158.277 195.228c2.016-.627 3.901-1.571 5.773-2.534.635-.322 1.372-.636 1.703-1.307.357-.698-.38-1.535-1.117-1.244a.888.888 0 0 0-.483.438c-.639.439-1.367.739-2.055 1.097-2.1 1.124-4.348 1.92-6.653 2.475-1.019.238-2.042.497-3.088.52-.782.089-2.301-.332-2.39.873-.148 2.22 7.077.022 8.315-.318h-.005ZM147.639 195.881c.473.018.929-.376.929-.859 0-.484-.357-.913-.858-.931-.473-.018-.929.376-.929.859 0 .484.357.913.858.931ZM147.532 156.256c.737.385 1.961 1.293 2.511.197.272-.663-.237-1.169-.849-1.325-1.868-1.093-3.937-1.773-6.041-2.23a12.834 12.834 0 0 0-3.307-.662c-1.17-.13-1.394 1.584-.241 1.772 2.033.157 3.986.847 5.943 1.393.661.241 1.331.532 1.988.85l-.004.005ZM136.777 151.506a.907.907 0 0 0-.899.891c0 .488.403.895.89.9a.906.906 0 0 0 .898-.891.906.906 0 0 0-.889-.9ZM199.484 100.918c3.99-1.33 7.738-3.662 12.006-4.011 1.175-.08 1.099-1.813-.067-1.79-4.388.326-8.249 2.582-12.328 4.055a.08.08 0 0 0 .031-.01c-1.108.287-.76 1.939.358 1.751v.005Z"/><path fill="#000" d="M198.965 99.221c.045-.013.085-.031.13-.05-.009 0-.018 0-.027.005l-.103.04v.005ZM214.617 97.247c.501-.018.863-.439.863-.927 0-.488-.456-.877-.925-.864-.501.018-.863.439-.863.927 0 .488.456.877.925.864ZM235.77 119.75c1.912.336 3.847.564 5.759.913 2.757.506 5.487 1.285 7.931 2.731.684.398 1.318 1.432 2.132.618 1.153-1.545-2.757-2.856-3.767-3.434-3.651-1.567-7.667-1.862-11.532-2.578-.818-.188-2.212.17-1.899 1.258.192.591.857.729 1.371.492h.005ZM251.413 125.619c0 .237.054.456.215.64a.912.912 0 0 0 .621.313c.464.032.947-.349.947-.837 0-.237-.054-.457-.215-.64a.903.903 0 0 0-.621-.313c-.464-.032-.947.349-.947.837ZM249.393 148.368c1.135.564 2.342.963 3.468 1.545 1.255.635 2.511 1.298 3.686 2.077.527.42 1.296.962 1.85.264.29-.372.241-.972-.157-1.258a22.895 22.895 0 0 0-2.243-1.437c-2.046-1.142-4.182-2.207-6.394-2.964a.898.898 0 0 0-.951.65c-.143.505.21 1.074.741 1.123ZM259.889 154.658a.9.9 0 0 0 .907-.882c0-.488-.389-.9-.88-.909a.9.9 0 0 0-.907.882c0 .488.389.9.88.909ZM265.657 198.102c.344.658.541 1.392.867 2.063.894 2.086 1.783 4.235 1.948 6.523.081 1.007.112 2.009.094 3.017.049 1.177 1.779 1.128 1.788-.045a20.227 20.227 0 0 0-1.689-9.043c-.322-.787-.68-1.557-.988-2.35-.214-.559-.42-1.231-.938-1.598-.398-.277-.952-.219-1.251.179-.282.381-.219.967.174 1.249l-.005.005ZM269.21 212.207c-1.126.34-.612 2.077.518 1.764 1.131-.345.608-2.082-.518-1.764ZM250.765 243.363c.071 1.088.103 2.185.116 3.277a41.861 41.861 0 0 1-.407 3.25c-.147.73-.572 1.826.434 2.104.464.116.974-.179 1.081-.654.34-1.495.55-3.026.67-4.552.041-.766-.031-1.531-.058-2.297.014-.868.081-2.52-1.233-2.238a.907.907 0 0 0-.608 1.11h.005ZM250.238 253.476a.905.905 0 0 0-.871.917c0 .488.438.887.916.873a.906.906 0 0 0 .871-.917c0-.488-.438-.887-.916-.873ZM226.744 288.029c.925.721 1.528-.456 2.002-1.105.71-.9 1.179-1.947 1.666-2.977.51-1.262 1.314-2.498 1.287-3.899.027-1.177-1.707-1.258-1.787-.09.018 1.043-.608 1.975-.974 2.919-.559 1.267-1.184 2.502-2.06 3.581-.407.417-.67 1.124-.134 1.567v.004ZM224.93 288.647c-.469-.022-.934.358-.934.851 0 .492.344.913.849.935.469.023.934-.358.934-.85 0-.493-.344-.913-.849-.936ZM205.086 308.5c.469.023.934-.358.934-.85 0-.493-.344-.913-.849-.936-.469-.022-.934.358-.934.851 0 .492.344.913.849.935ZM199.993 300.787c2.743-4.275 6.134-8.075 8.838-12.399.589-1.03 1.791-1.822 1.912-3.053.009-1.151-1.684-1.222-1.783-.081-1.081 1.392-2.122 2.811-3.074 4.298-2.274 3.554-5.174 6.652-7.408 10.286-.594 1.021.885 1.925 1.515.945v.004ZM196.798 304.812c.478.009.912-.39.912-.878a.903.903 0 0 0-.876-.913c-.478-.009-.912.39-.912.878s.38.904.876.913ZM157.187 284.959c1.604 2.184 3.584 4.337 3.995 7.122.134.765.036 1.549-.067 2.314-.152 1.168 1.559 1.433 1.765.278.853-3.882-1.533-7.266-3.776-10.175a14.2 14.2 0 0 1-.764-1.017c-.286-.488-.505-1.078-1.126-1.204-.478-.094-.947.278-1.023.743a.88.88 0 0 0 .299.806c.206.394.429.779.702 1.133h-.005ZM160.346 296.181c-.478-.009-.911.39-.911.878 0 .487.379.904.875.913.478.009.912-.39.912-.878a.903.903 0 0 0-.876-.913ZM191.342 354.841c-1.023-.336-2.073-.573-3.07-.989-3.127-1.066-6.018-2.897-9.03-4.365a.902.902 0 0 0-1.197.407c-.21.43-.036.994.406 1.2 1.292.6 2.538 1.294 3.78 1.974 2.091 1.218 4.209 2.001 6.497 2.856.679.211 1.372.385 2.051.613a.897.897 0 0 0 1.131-.568.91.91 0 0 0-.568-1.133v.005ZM194.814 355.96c-.465-.027-.943.354-.943.842 0 .487.335.917.84.944.465.027.943-.354.943-.842 0-.487-.335-.917-.84-.944ZM151.49 208.071c-1.264-.551-2.493-1.075-3.655-1.853-.849-.515-1.479-1.308-2.278-1.876-1.122-.582-1.904 1.043-.796 1.625 1.935 2.05 4.567 3.124 7.1 4.217.755.309 1.627 1.459 2.386.55.89-1.387-1.845-2.198-2.761-2.663h.004ZM156.812 210.882a.903.903 0 0 0-.898.891.9.9 0 0 0 .889.9.903.903 0 0 0 .898-.891.9.9 0 0 0-.889-.9ZM257.619 293.428c.813.412 1.278-.456 1.6-1.056.987-1.63 2.256-3.053 3.619-4.392.483-.524 1.287-.958 1.662-1.62.514-1.052-1.019-1.849-1.586-.828-2.216 1.866-4.258 4.118-5.679 6.687-.246.421-.031.99.384 1.209ZM256.962 295.514c.072-1.2-1.698-1.298-1.787-.094-.072 1.2 1.698 1.298 1.787.094ZM254.255 312.726c-.621-.327-1.135.166-1.403.694-1.501 1.634-2.476 3.626-3.508 5.573-.598 1.151-1.246 2.27-1.992 3.331a.91.91 0 0 0 .214 1.249.908.908 0 0 0 1.247-.22c1.488-2.086 2.542-4.445 3.807-6.665.563-.998 1.443-1.773 2.019-2.753a.91.91 0 0 0-.384-1.209ZM245.555 324.49c-.505.027-.845.452-.845.94 0 .488.47.873.939.846.505-.026.844-.452.844-.94 0-.488-.469-.872-.938-.846ZM264.858 315.246c-1.193.206-.809 2.31.379 2.086 1.198-.21.809-2.309-.379-2.086ZM259.282 328.792c-.505.027-.845.452-.845.94 0 .488.469.873.938.846.505-.027.845-.452.845-.94 0-.488-.469-.873-.938-.846ZM311.988 384.945c-.965.39-2.033.533-3.047.77-3.642.394-7.297-.063-10.844-.904-.474-.179-1.059.045-1.211.559-.143.439.102 1.008.576 1.128 1.64.403 3.311.672 4.973.958 3.405.323 6.975.363 10.219-.846 1.046-.474.416-2.036-.666-1.665ZM293.244 383.701c-1.072.868.349 2.296 1.269 1.271.881-.842-.402-2.135-1.269-1.271ZM242.097 367.532c-1.966-1.025-4.133-1.59-6.233-2.297a.904.904 0 0 0-1.126.578.904.904 0 0 0 .576 1.128c.778.246 1.546.528 2.328.752 1.166.353 2.324.752 3.4 1.334.644.461 1.855.416 1.913-.569a.901.901 0 0 0-.854-.931l-.004.005ZM232.477 364.085c-.469-.018-.934.367-.934.855s.353.913.853.935c.47.018.934-.367.934-.855s-.353-.913-.853-.935ZM277.521 371.502c-1.135-.327-1.653 1.325-.55 1.706 1.653.537 3.383.644 5.081.985 1.237.228 2.484.429 3.744.492.688.072 1.684.045 1.729-.859.031-.569-.518-1.03-1.072-.918-1.591 0-3.173-.305-4.768-.609-1.389-.255-2.81-.349-4.16-.801l-.004.004ZM274.384 370.764c-.469-.018-.934.367-.934.855s.353.913.854.935c.469.018.933-.367.933-.855s-.352-.913-.853-.935ZM267.583 361.117a25.395 25.395 0 0 1-3.941-.551c-1.336-.349-2.64-.806-3.958-1.217a.907.907 0 0 0-1.126.577.906.906 0 0 0 .576 1.128c2.797.927 5.661 1.827 8.633 1.844a.905.905 0 0 0 .804-.975.901.901 0 0 0-.992-.806h.004ZM256.051 358.288c-.469-.018-.934.367-.934.855s.353.913.854.935c.469.018.933-.367.933-.855s-.353-.913-.853-.935ZM267.382 353.153c.469.018.934-.367.934-.855s-.353-.913-.853-.935c-.469-.018-.934.367-.934.855s.353.913.853.935ZM96.974 23.65c1.345 1.48 2.354 3.245 3.507 4.883 2.449 3.64 4.491 7.516 6.023 11.684.47 1.141.934 2.34 1.386 3.612a.9.9 0 0 0 1.134.56.906.906 0 0 0 .559-1.137 79.979 79.979 0 0 0-1.693-4.356c-2.029-5.555-5.242-10.591-8.687-15.372-.545-.676-1.112-1.634-2.082-1.639a.9.9 0 0 0-.84.945.91.91 0 0 0 .697.824l-.004-.005ZM108.913 49.075c0 .488.478.869.942.842.505-.031.84-.456.84-.944 0-.488-.478-.869-.942-.842-.505.031-.84.457-.84.944Z"/></g><defs><clipPath id="a"><path fill="#fff" d="M0 0h320v392H0z"/></clipPath></defs></svg>