<svg xmlns="http://www.w3.org/2000/svg" width="110" height="58" fill="none"><g clip-path="url(#a)"><path fill="#A4D357" d="M65.018 42.143a3.26 3.26 0 0 1 .339-.09 15.08 15.08 0 0 0-.84-.414l-.367-.151c-.777-.294-1.585-.404-2.306.081a1.638 1.638 0 0 1-.202.175 1 1 0 0 0-.029.317c.039.37.027.747.099 1.11.172.75.703.901 1.306.843.005-.128.04-.263.055-.376.01-.47.145-.837.568-1.082.41-.257.921-.273 1.377-.413ZM51.033 8.303c.856-.107 1.715-.213 2.566-.337 2.384-.32 4.769-.653 7.158-.95l.402-.05c-.339-.14-.664-.325-1-.466-.517-.187-1.048-.337-1.564-.53-1.127-.439-2.248-.942-3.435-1.194-1.352-.368-2.945-.483-4.192.255-.538.48-.209 1.282-.14 1.892.08.458.278.913.208 1.378l-.003.002Zm3.887-2.95c.399.072.8.135 1.182.27.362.118.701.288 1.042.453a.297.297 0 0 1 .299.265c-.022.502-.563.295-.832.122a5.786 5.786 0 0 0-1.052-.392c-.304-.125-1.021-.006-.976-.478a.296.296 0 0 1 .337-.238v-.002Zm-1.032-.117c.159 0 .285.15.28.304a.297.297 0 0 1-.303.28c-.159 0-.286-.15-.28-.304a.297.297 0 0 1 .303-.28ZM103.781 43.9l-.035-.028c-.071-.003-.141-.023-.211-.018-.138-.003-.224.093-.307.187l.095.101c1.231 1.277 1.989 2.928 1.256 4.668-.094.305-.172.535-.269.822a.253.253 0 0 1-.074.107c-.075.15-.197.293-.278.39a2.364 2.364 0 0 1-.86.691c-.605.405-1.273.692-1.954.949-1.098.561-2.394.395-3.59.373a9.455 9.455 0 0 1-1.232-.173c.89 1.403 2.054 2.658 3.43 3.573 2.987 2.066 7.171 2.006 8.002-2.147.58-3.586-1.352-7.168-3.973-9.493v-.001Zm-1.531 11.528a5.213 5.213 0 0 1-2.907-1.731.296.296 0 0 1-.14-.364c.096-.253.42-.223.569-.033.224.232.441.469.689.674.545.465 1.233.711 1.919.886.372.095.244.647-.13.568Zm1.711.059a.298.298 0 0 1-.304-.28c-.007-.155.122-.304.281-.304.158 0 .297.119.303.28.007.155-.121.304-.28.304Z"/><path fill="#E2FFB4" d="M62.846 6.771c1.307-.148 2.614-.296 3.912-.518.95-.177 1.91-.288 2.867-.418.287-.049.574-.095.861-.137a.326.326 0 0 1 .079-.033c-.334-.134-.657-.309-.974-.47-.646-.339-1.16-.872-1.816-1.197-1.283-.678-2.654-1.188-4.016-1.65a8.475 8.475 0 0 0-1.701-.202c-.232.014-.481.019-.685.149-.195.115-.269.328-.334.53-.037.183-.022.393.012.568.222.612.768 1.032 1.125 1.565.307.457.623.957.727 1.5a.627.627 0 0 1-.056.31l-.001.003Z"/><path fill="#A4D357" d="M101.782 40.694c-.115.052-.249.09-.341.164-.192.111-.284.375-.23.583.027.08.057.157.077.235.315.127.624.272.925.432 2.97 1.636 5.172 4.608 5.98 7.886.399 1.545.349 3.101-.12 4.391.274-.281.539-.568.775-.866 0-.004.003-.005.005-.007a.288.288 0 0 1 .032-.065c.335-.688.492-1.438.532-2.19.119-4.101-2.641-8.233-6.254-10.05a7.78 7.78 0 0 0-1.383-.513h.002ZM72.538 5.385c.24-.044.481-.085.723-.117 1.3-.243 2.608-.422 3.912-.627.561-.058 1.13-.023 1.688-.116a33.198 33.198 0 0 1 2.062-.297c-.62-.223-1.222-.512-1.81-.778-.855-.4-1.696-.83-2.544-1.242-.685-.378-1.323-.836-2.062-1.11-.87-.348-3.56-1.091-3.842.232-.039.938.85 1.446 1.299 2.158.264.343.456.732.527 1.16.062.238.127.5.046.737h.001Zm1.488-3.352a.294.294 0 0 1 .387-.143c.588.286 1.17.585 1.77.843.277-.107.514.293.285.488a.438.438 0 0 1-.494.057c-.614-.258-1.204-.57-1.805-.857a.294.294 0 0 1-.143-.386v-.002Zm-.832-.656c.159 0 .286.15.28.303a.297.297 0 0 1-.303.28c-.159 0-.286-.15-.28-.303a.297.297 0 0 1 .303-.28Z"/><path fill="#fff" d="M67.87 20.184c2.048 1.49 4.503 2.373 7.022 2.388 3.742.063 6.877-2.468 5.166-6.345-1.61-3.358-5.291-5.368-8.893-5.791-4.576-.547-8.53 2.451-5.806 7.073.644 1.052 1.524 1.941 2.51 2.675Zm4.085-5.902-.011.004s.008-.004.011-.004Zm-.075-.03s-.001.007-.003.01c0 0 .003-.006.003-.01Zm-.995.604c.073.125.17.238.29.316.11.072.218.132.34.179.096.035.207.07.31.078.042.003.084.005.125.005.172 0 .344-.03.495-.12a1.14 1.14 0 0 0 .517-.66c.062-.127.102-.265.115-.405a1.108 1.108 0 0 0-.34-.882c1.931-.715 4.316.235 4.992 2.405.823 2.475-1.134 4.985-3.617 4.987-.235 0-.475-.024-.718-.07-2.704-.48-3.96-3.642-2.509-5.832v-.001Z"/><path fill="#A4D357" d="M31.84 14.824c.12-.058.227-.155.353-.143.105-.045.208-.084.275-.127.786-.386 1.581-.757 2.363-1.153.223-.122.452-.24.68-.357-.605.042-1.223-.003-1.827.065-.58.108-1.166.21-1.717.424-.345.171-.638.43-.945.66-.492.376-.718.95-.947 1.501.376-.193.752-.387 1.126-.582.207-.11.424-.2.638-.288h.001Z"/><path fill="#E2FFB4" d="M48.766 8.596c-.625-.105-1.256-.301-1.84-.475-.964-.193-1.895-.48-2.862-.628-1.28-.113-2.57-.163-3.81.182-.715.261-1.565.708-1.793 1.484-.166.514-.02 1.094-.212 1.597a4.658 4.658 0 0 1-.355 1.128c1.612-.8 3.248-1.553 4.986-2.035 1.918-.628 3.895-.978 5.887-1.254l-.001.001Zm-7.263.387c-.159 0-.286-.15-.28-.303a.297.297 0 0 1 .303-.28c.159 0 .285.15.28.303a.297.297 0 0 1-.303.28Z"/><path fill="#A4D357" d="M97.476 48.734c.229.102.48.083.723.088 1.038.13 2.11-.233 2.768-1.065.352-.443.625-.945.568-1.526a1.656 1.656 0 0 0-.077-.519c-.06-.16-.145-.235-.169-.385-.33-.385-.644-.775-1.103-1.011-.543-.407-1.204-.604-1.845-.792-.254-.048-.486.08-.697.205-.31.187-.614.382-.901.603-.52.462-1.145.904-1.396 1.567-.155.653-.057 1.423.443 1.908.505.398 1.11.65 1.688.925l-.002.002Z"/><path fill="#E2FFB4" d="M31.75 41.526c-.846.825-1.516 1.853-1.863 2.985-.129 1.016-.044 2.08.395 3.01.343.771.92 1.59 1.782 1.804a.244.244 0 0 1 .125.004c.299-.09.584-.225.85-.41.785-.605 1.481-1.392 1.817-2.335.58-1.952.494-4.003.906-5.986.059-.279.09-.582.166-.865-.144.061-.326.088-.451.141-1.321.345-2.642.8-3.73 1.652h.003ZM64.081 42.98c-.122.05-.218.146-.325.222-.109.215-.09.465-.129.7.336-.083.663-.188.935-.255.827-.215 1.635-.535 2.478-.668-.713-.81-2.032-.205-2.959 0Z"/><path fill="#A4D357" d="M82.478 46.757c-.675-.023-1.288.16-1.93.319-.221.086-.403.19-.618.256a.367.367 0 0 1-.147.05c-1.079.884-2.102 1.83-2.912 2.974-.334.401-.584.86-.803 1.333-.3.608-.595 1.198-.616 1.87-.03.838.085 1.608.365 2.385.244 1.056 1.16 1.691 2.236 1.411.075-.03.149-.063.222-.096l-.012-.096a2.274 2.274 0 0 1 .005-.69c.025-.234.11-.461.29-.624.413-.397.896-.714 1.34-1.075.67-.525 1.352-1.037 2.095-1.455.735-.445 1.373-.685 2.034.045a.5.5 0 0 1 .062.081c.612-.355 1.239-.688 1.84-1.05.623-.408 1.21-.863 1.768-1.353a2.599 2.599 0 0 0-.085-.468c-.807-2.092-2.814-3.85-5.131-3.817h-.003Zm-5.786 6.917c-.212-.357.33-.652.515-.277.212.355-.328.652-.515.277Zm2.25-3.52c-.01.128-.103.225-.186.311-.388.4-.73.837-.982 1.334-.163.245-.157.801-.563.72-.454-.164-.053-.715.054-1.007.282-.56.681-1.047 1.114-1.498.121-.317.604-.202.566.138l-.002.002ZM30.924 40.511a26.414 26.414 0 0 0-1.744-.03c-1.764.122-3.646.513-4.912 1.847-.971 1.095-1.856 2.301-2.396 3.673-.033.085-.07.168-.108.251-.03.189-.049.38-.062.569-.09 1.17.155 2.451.887 3.383.416.536.993 1.121 1.708 1.146a.291.291 0 0 1 .158.014l.264-.037c1.51-.258 2.086-1.096 2.775-2.36 1.332-2.263 1.606-4.954 2.748-7.304.094-.187.37-.729.678-1.154l.004.002Zm-7.173 8.773c-.159 0-.3-.113-.307-.277-.007-.153.118-.306.277-.306.158 0 .299.113.307.276.007.154-.119.307-.277.307Zm3.928-2.853c-.156.571-.507 1.073-.811 1.576-.33.502-.73.97-1.257 1.27-.247.132-.698.414-.852.027-.1-.352.326-.388.543-.522.843-.503 1.304-1.426 1.743-2.27.068-.21.122-.481.41-.428.154.033.263.19.226.345l-.002.002Z"/><path fill="#E2FFB4" d="M71.34 49.344c-.553.342-1.086.912-1.161 1.576a.445.445 0 0 1-.007.115c.686-.181 1.434-.551 2.094-.816a12.339 12.339 0 0 1 1.8-.603c-.082-.184-.144-.377-.219-.564-.821-.201-1.768-.12-2.51.289l.002.003ZM82.404 53.755c-.262.147-.52.303-.775.465a37.232 37.232 0 0 0-2.65 2.027c-.176.191-.173.476-.146.74 1.464-.762 2.743-1.854 4.077-2.809.219-.15.442-.293.668-.431-.34-.453-.793-.215-1.174.008Z"/><path fill="#A4D357" d="M77.185 48.636c.323-.399.738-.739.936-1.222.408-.908.36-2.1-.552-2.667a.365.365 0 0 1-.162-.108c-1.326-.207-2.668-.293-4-.447a27.513 27.513 0 0 1-1.772-.276.302.302 0 0 1-.149.06c-.272.061-.526.183-.766.295-.326.1-.603.258-.835.506-1.059 1.144-2.015 3.103-1.9 4.68.178 1.385.821 1.747 1.628 1.68-.122-.337.16-1.01.325-1.208.631-1.092 1.932-1.625 3.16-1.553.397.025.866.003 1.183.273.177.242.222.563.364.828.416-.095.835-.181 1.252-.268.169-.049.343-.074.514-.094a.41.41 0 0 1 .288-.153c.18-.075.349-.185.484-.327h.002Z"/><path fill="#E2FFB4" d="M16.361 51.8c1.983-.6 2.703-1.908 3.6-3.618.462-.86.905-1.73 1.362-2.593.003-.013.007-.028.012-.041a.283.283 0 0 1 .072-.116c.232-.434.465-.866.713-1.293a20.383 20.383 0 0 1 3.122-4.171c.187-.184.392-.349.6-.505-1.206-.325-2.468-.545-3.7-.313-.415.07-.799.215-1.17.371-.532.209-1.043.373-1.52.637-.16.085-.313.183-.465.281-1.683 1.115-3.297 2.337-4.989 3.439-.03.036-.061.071-.093.103-1.752 1.855-2.812 4.836-1.438 7.186a4.22 4.22 0 0 0 1.585.735c.382.06.763.168 1.154.163.395-.031.78-.146 1.157-.264h-.002ZM7.42 34.323c.209-.063.414-.148.631-.177.025 0 .047.002.069.007a67.09 67.09 0 0 1 2.801-1.033c1.146-.339 2.294-.647 3.436-.975a.48.48 0 0 1 .109-.032l.025-.007c.209-.075.406-.181.611-.265a8.126 8.126 0 0 0 2.885-1.915c.533-.598.882-1.326 1.217-2.048a2.73 2.73 0 0 0-.322.047c-.603.08-1.205.175-1.81.242-1.092.098-2.185.066-3.274-.025-.058 0-.117-.005-.175-.015a46.547 46.547 0 0 1-1.929-.222c-1.177-.18-2.322-.522-3.503-.677-.584-.056-1.172-.035-1.76-.053-.918-.093-1.78.113-2.653.355-1.285.35-2.265 1.143-2.63 2.456-.151.712-.261 1.33-.306 1.899.031.088.03.196.043.293.15 1.447 1.608 2.357 2.93 2.61 1.22.213 2.466-.027 3.608-.467l-.003.002ZM13.194 21.757a.496.496 0 0 1 .173.194c.584.37 1.149.774 1.81 1.004.513.199 1.034.375 1.561.527a.57.57 0 0 1 .28 0c1.32.088 2.592-.363 3.752-.95.169-.072.323-.185.48-.285a10.559 10.559 0 0 1-2.582-1.756c-.833-.752-1.527-1.67-2.51-2.235-.729-.52-1.744-.847-2.639-.635a.303.303 0 0 1-.222.143c-1.606.883-1.352 2.907-.104 3.993Z"/><path fill="#A4D357" d="M9.569 26.87c.01.005.018.013.028.018.965.202 1.924.434 2.905.537.406.045.813.087 1.22.123.675.017 1.348-.11 2.006-.253 1.626-.395 2.957-1.44 4.154-2.55-.52-.102-1.038-.213-1.563-.302-1.232-.195-2.427-.573-3.583-1.035-.76-.293-1.385-.814-2.088-1.208-1.23-.671-2.587-1.396-4.033-1.253-1.016.182-1.514.67-1.945 1.578 0 .002-.001.004-.003.005a.27.27 0 0 1-.069.165c-.57 1.967 1.283 3.585 2.97 4.175Zm1.43-.9c.054-.157.22-.223.373-.18.274.082.516.147.791.192.613.088 1.236.088 1.85.168a.299.299 0 0 1 .328.12c.185.357-.206.53-.51.445-.45-.1-3.088-.038-2.831-.745Zm-1.195-.88c.159 0 .3.113.307.277.007.153-.118.306-.277.306-.158 0-.299-.113-.307-.276-.007-.154.119-.307.277-.307ZM46.567 16.456a.314.314 0 0 1 .103.03c.913.601 2.007.806 3.07.91 1.213.19 2.215-.117 3.19-.827.02-.012.04-.023.06-.037-1.085-.445-2.07-1.106-2.999-1.815-.507-.4-.99-.838-1.551-1.165-1.063-.654-2.286-.483-2.95.36a.277.277 0 0 1-.05.127c-.037.052-.042.137-.055.182-.264.976.415 1.73 1.183 2.235h-.001Zm1.242-.949c.122-.181.352-.141.5-.018.2.117.475.202.669.258.197.095.465.01.604.205.185.342-.205.545-.5.425-.341-.111-1.574-.338-1.273-.87Zm-.746-.988c.158 0 .298.113.307.277.007.153-.119.306-.277.306-.159 0-.3-.113-.308-.276-.006-.154.119-.307.278-.307Z"/><path fill="#E2FFB4" d="M51.951 26.625a1.128 1.128 0 0 0-.139-.075 8.029 8.029 0 0 0-1.791-.608c-.49.055-.978.138-1.456.223-1.518.287-3.01.68-4.505 1.067-.035.008-.07.017-.103.027-.157.13-.441.193-.598.301a.105.105 0 0 1-.013.007c.003-.003.008-.005.011-.009-1.412.747-2.733 1.822-3.369 3.312-.047.12-.095.242-.123.367a.296.296 0 0 1 .011.108c.137.282.41.462.676.618.45.303.987.368 1.508.383.636.04 1.196-.281 1.733-.576 2.086-1.237 3.71-3.08 5.89-4.163.303-.162 1.472-.792 2.266-.985l.002.003ZM42.947 20.304l.018.005c1.67-.06 3.334.037 4.99-.128.244-.075.533-.057.769-.139.831-.22 1.676-.435 2.442-.835a4.98 4.98 0 0 0 .97-.751c.052-.045.104-.107.16-.172a2.04 2.04 0 0 0-.328.005 13.503 13.503 0 0 1-3.562-.428c-1.152-.289-2.205-.82-3.327-1.194a9.843 9.843 0 0 0-2.558-.461c-1.302-.042-2.934.498-3.238 1.92l-.006.03a.385.385 0 0 1-.002.213c.39 1.593 2.293 1.818 3.672 1.937v-.002Z"/><path fill="#A4D357" d="M50.497 28.213a8 8 0 0 0-1.135.242c-.546.327-1.072.682-1.568 1.053l-.43.342c-.048.157-.191.322-.258.462-.165.343-.245.72-.276 1.096-.008.45-.016.938.218 1.338.01.007.018.015.026.024a3.09 3.09 0 0 0 1.029.048c2.028-.435 2.69-2.63 3.915-4.031.1-.122.277-.377.476-.584-.666-.088-1.332-.118-1.997.01Zm-1.803 3.032c-.159 0-.299-.114-.307-.277-.007-.153.118-.306.277-.306.158 0 .299.113.307.276.007.154-.119.307-.277.307Zm1.825-1.307c-.25.157-.535.657-.847.345-.29-.4.453-.7.668-.958.107-.29.551-.223.566.088.015.235-.224.394-.387.524v.001Z"/><path fill="#C7F182" d="M94.951 36.38c.895.55 1.782 1.106 2.61 1.744.022-.18.08-.356.164-.518-.665-.75-.849-1.803-.969-2.778-.106-.59-.127-1.188-.17-1.787-.038-.513-.042-1.044.077-1.548-.246-.093-.46-.266-.661-.441a7.589 7.589 0 0 1-.925-.882c-.015-.018-.03-.037-.047-.055.02.37.03.737.018 1.093.007.185.012.372.01.559.052 1.405.139 2.814-.057 4.211-.01.117-.014.272-.048.403l-.002-.001Z"/><path fill="#A4D357" d="M86.919 31.53a81.564 81.564 0 0 0 3.62 2.238c.185.055.367.128.557.162a3.308 3.308 0 0 0 1.484.025c1.496-.202 1.835-1.453 1.88-2.715a18.497 18.497 0 0 0-.07-1.097c-.02-.233-.018-.47-.04-.703a.29.29 0 0 1 .012-.195c-.982-1.428-1.666-3.053-2.697-4.455-.095-.116-.227-.236-.247-.37-1.092.434-2.179.867-3.37.819-1.22.055-2.141-.607-3.173-.992-.13.008-.286-.048-.418-.078-.851-.104-1.277-.189-1.607.74a6.514 6.514 0 0 0-.209 1.665c-.005.226.072.441.085.664.217.332.564.612.925.77.878.279 1.563.105 2.19-.561.15-.217.39-.199.51-.074l.023.017a.295.295 0 0 1-.021.412c-.197.168-.3.411-.404.643-.157.378-.16.788-.166 1.192-.03.24.115.766.045 1.09.36.276.727.543 1.089.801l.002.002ZM37.888 27.115c.878.359 1.83.395 2.756.252 2.71-.388 5.327-1.352 8.021-1.817.142-.036.306-.048.423-.071.634-.132 1.254-.282 1.907-.247.387.03.69-.038 1.06-.037.03 0 .058.007.085.015-.018-.095-.038-.19-.053-.286-.089-.9-.019-1.81-.039-2.715-.015-.722.04-1.442.145-2.155-.881.282-1.79.433-2.71.522-.46.063-.911.118-1.362.166l-.043.005c-.336.035-.672.067-1.014.089-3.099.123-6.276-.307-9.063 1.366-1.053.637-1.851 1.79-1.726 3.053.119.99.73 1.507 1.614 1.862l-.001-.002Zm6.204-5.346c.74-.003 1.505-.083 2.238-.12.365-.055.743-.067 1.1-.165a.302.302 0 0 1 .446.001c.202.242-.06.5-.3.569-1.133.227-2.303.253-3.454.298-.382.005-.41-.558-.028-.583h-.002Zm-1.437.147c.158 0 .298.113.307.276.007.154-.119.307-.277.307-.159 0-.3-.113-.308-.277-.006-.153.119-.306.278-.306Z"/><path fill="#E2FFB4" d="M20.85 31.393c.54 1.237 1.166 2.41 1.996 3.473.274.355.602.675.866 1.029.08.123.227.256.304.394.207.184.326.449.5.662.353.463.79.858 1.218 1.253 1.264.99 2.915 1.319 4.473 1.525a17.18 17.18 0 0 0 6.352-.896c2.265-.857 4.466-1.904 6.807-2.548.773-.2 1.523-.489 2.314-.607 2.357-.298 4.743.093 6.997.795 2.002.66 3.862 1.696 5.836 2.421 1.129.357 2.264.695 3.384 1.079 2.046.75 4.032 1.658 6.071 2.428 1.852.565 3.742 1.013 5.669 1.235 1.616.173 3.244.268 4.838.605 2.728.456 5.223 1.66 7.719 2.793 2.29 1.123 4.565 2.278 6.924 3.256 1.737.739 3.578 1.37 5.483 1.3.788 0 1.576.037 2.266-.34.618-.246 1.252-.47 1.798-.856.284-.155.586-.3.782-.565.16-.115.228-.352.343-.492.021-.063.044-.122.062-.173 1.247-2.91-.551-4.137-2.357-6.093-1.348-1.578-2.64-3.188-4.276-4.48-2.2-1.603-4.572-2.907-6.911-4.275-.137-.025-.28-.075-.336-.198a76.777 76.777 0 0 1-1.504-.907c-1.803-1.123-3.65-2.278-5.024-3.924-.7-.892-1.387-1.792-2.065-2.7-.139-.175-.262-.359-.398-.535a.309.309 0 0 1-.1-.18c-.04-.242.272-.437.466-.272.177.17.297.392.454.58l.112.148c.04-.613.109-1.238.307-1.801.216-.91.464-1.813.81-2.683.272-.535.544-1.074.832-1.602.343-.52.724-1.018 1.12-1.502.72-.761 1.42-1.576 2.346-2.091.158-.085.337-.207.524-.163.369.078.299.638-.085.59-1.029.538-1.798 1.448-2.56 2.303l-.018.023a.25.25 0 0 1-.017.12c-.052.095-.133.217-.167.304-.352.776-.673 1.62-.52 2.476.054.443.173.927.56 1.197.14.08.26.19.36.316.41.18.814.403 1.206.563.65.297 1.386.307 2.07.267 1.826-.252 3.442-1.396 5.277-1.571.763-.037 1.518.146 2.229.411a.297.297 0 0 1 .182.37.295.295 0 0 1-.37.182c-.744-.277-1.56-.473-2.348-.342l-.007.007c-.097.113-.147.262-.215.393-.336.977 0 2.052.389 2.965.073.112.14.262.13.392.594 1.068 1.225 2.115 2.14 2.92.334.271.657.656 1.122.628.443-.029.902-.095 1.3-.302.375-.242.762-.46 1.155-.67.132-.09.32-.035.402.095.192.357-.29.508-.534.633-.678.474-1.464.83-2.3.822-.021.085-.034.173-.05.258-.116 1.187.054 2.399.243 3.57.11.547.217 1.112.537 1.582.26.285.481.6.797.791.34.177.738.069 1.102.159.372.088.249.641-.129.568-.178-.013-.345-.022-.502-.035a.285.285 0 0 1-.047.03c-.087.027-.167.065-.207.152-.122.235-.057.523.05.751a.282.282 0 0 1 .018.049c.176.173.35.348.52.526a.286.286 0 0 1 .103-.036c.805-.1 1.635.006 2.409.228.471.143.93.33 1.378.55.103-.62.067-1.255.194-1.872.043-.32.108-.638.158-.956a.304.304 0 0 1 .05-.212c.137-.21.501-.13.528.122-.012.5-.15.921-.207 1.405-.067.531-.052 1.1-.149 1.625a.442.442 0 0 1-.038.171c.2.114.397.234.591.36.032-.145.083-.291.1-.403.267-1.367.541-2.728.908-4.073a30.56 30.56 0 0 0 .775-5.08c.137-1.398.197-2.848-.314-4.181-.477-1.772-1.661-3.188-2.621-4.713-1.298-2.045-2.672-4.097-3.997-6.117-.917-1.336-1.762-2.718-2.635-4.081a46.736 46.736 0 0 0-2.815-3.712c-1.817-2.048-3.46-3.524-6.223-4.094-.93-.162-1.865-.364-2.808-.375-1.777.021-3.548.196-5.305.446-.833.192-1.686.182-2.534.252-1.343.223-2.695.398-4.032.657-.545.075-1.057.178-1.593.27-.194.005-.458.071-.685.083-.194.023-.385.052-.578.082-1.125.186-2.26.29-3.382.501-2.393.402-4.814.595-7.218.917-2.386.316-4.77.64-7.156.961-3.096.417-6.235.68-9.222 1.639-2.806.783-5.383 2.203-7.974 3.483-.63.32-1.302.65-1.935.943-.388.188-.775.378-1.162.563a.231.231 0 0 1-.094.022 1.008 1.008 0 0 1-.153.057c-.242.101-.471.223-.703.346-.566.29-1.134.58-1.698.872a.282.282 0 0 1-.242.127c-.421.218-.84.435-1.26.656-3.102 1.64-4.52 2.727-6.332 5.798-1.663 2.87-2.086 5.028-.848 8.18l.005.003Zm74.038 14.063c.45-.747 1.145-1.327 1.841-1.84.937-.647 1.415-.915 2.515-.407.731.213 1.392.647 1.965 1.14.174.182.324.39.498.57.067.052.11.128.113.218 1.152 2.022-1.078 4.423-3.182 4.285-.621-.008-1.252.003-1.798-.34-.53-.275-1.11-.505-1.536-.931-.651-.702-.78-1.827-.416-2.695Zm.386-17.038c-.463-.578-.854-1.241-1.054-1.956-.027-.31-.322-.92.127-1.022a.296.296 0 0 1 .332.245c.044.308.084.618.194.912.224.54.49 1.008.856 1.456.236.297-.212.66-.455.367v-.002Zm8.734 7.835c.158 0 .295.121.3.283a.294.294 0 0 1-.284.3.297.297 0 0 1-.3-.283.294.294 0 0 1 .284-.3Zm-7.56-6.72a.297.297 0 0 1-.3-.285.295.295 0 0 1 .286-.298c.159 0 .296.125.299.285a.294.294 0 0 1-.286.298Zm.033-15.347c.158 0 .295.12.3.283a.293.293 0 0 1-.284.3.295.295 0 0 1-.3-.283.293.293 0 0 1 .284-.3Zm-2.925-3.498a.298.298 0 0 1 .414-.01c.402.386.706.863 1.05 1.298.369.445.748.888 1.025 1.398.195.327-.294.63-.498.307-.399-.73-1.005-1.315-1.476-1.997a9.116 9.116 0 0 0-.417-.498c-.157-.118-.254-.337-.097-.498h-.002ZM70.433 41.456c-.033.15-.198.261-.35.22-1.705-.463-3.378-1.073-4.956-1.867-.182-.095-.349-.226-.548-.286-.182-.03-.35-.174-.302-.374.097-.346.471-.205.705-.093 1.115.657 2.307 1.082 3.51 1.53.569.193 1.143.367 1.722.523.154.044.258.19.22.35v-.003Zm1.531.513a.298.298 0 0 1-.304-.28c-.006-.155.122-.303.28-.303.16 0 .298.118.305.28.006.155-.122.303-.28.303Zm5.066-17.437c-.568.118-1.154.15-1.732.118-1.153-.086-2.334-.016-3.45-.368a10.82 10.82 0 0 1-1.644-.6.293.293 0 0 1-.143-.387c.21-.383.628.012.916.084.882.34 1.812.585 2.75.616.69.022 1.378.067 2.067.087a7.56 7.56 0 0 0 .949-.087c.194-.063.452-.051.506.187a.295.295 0 0 1-.219.35Zm1.42-.018c-.16 0-.286-.15-.281-.304a.297.297 0 0 1 .303-.28c.16 0 .286.15.281.303a.297.297 0 0 1-.304.28Zm-8.4-16.148c1.171.017 2.333.115 3.462.443 1.167.264 2.24.804 3.32 1.29.363.12.195.66-.174.557-.917-.38-1.795-.878-2.764-1.135-1.284-.413-2.542-.562-3.867-.572-.379-.025-.362-.59.025-.583h-.001Zm-.93-.003c.158 0 .285.15.28.303a.297.297 0 0 1-.304.28c-.159 0-.286-.15-.28-.303a.297.297 0 0 1 .303-.28Zm-1.539 1.795c2.173-.645 4.53-.367 6.634.398 3.565 1.273 7.796 4.865 6.712 9.048-.86 2.813-4.17 3.76-6.83 3.523-2.356-.183-4.659-1.07-6.559-2.462-1.763-1.306-3.31-3.168-3.611-5.4-.348-2.446 1.365-4.47 3.654-5.106v-.001Zm-31.43 13.084c.684-1.105 1.8-1.808 3.041-2.252-.721-.875-.72-2.345-.369-3.36.48-1.33 1.99-1.961 3.321-2.001a8.997 8.997 0 0 1 2.401.28 1.438 1.438 0 0 1-.073-.268c-.317-1.995 1.71-3.683 3.606-2.89.803.273 1.451.838 2.099 1.367a16.319 16.319 0 0 0 2.2 1.484c.331.18.677.334 1.027.469a.289.289 0 0 1 .16.01c.171-.285.348-.565.5-.855 0-.159.134-.292.292-.292.45.04.286.585.089.822-.663 1.015-1.144 2.151-1.483 3.311a15.311 15.311 0 0 0-.33 3.808c-.007.994-.046 1.99.231 2.955.296 1.12.703 2.207 1.154 3.272.139.35-.382.581-.538.226-.123-.293-.242-.59-.36-.886-.084.076-.18.146-.25.213-.713.835-1.371 1.803-1.95 2.763-.745 1.038-1.87 2.035-3.221 2.005-.939.043-2.603-.648-2.82-1.655-.243.167-.488.328-.742.478-.795.497-1.676.82-2.625.647a3.07 3.07 0 0 1-2.018-1.045 2.217 2.217 0 0 1-.38-1.243c.08-.888.276-1.807.724-2.587a6.705 6.705 0 0 1-1.096-.06c-.901-.175-1.838-.531-2.47-1.218-.795-.988-.735-2.433-.122-3.5l.003.002Zm-6.194-5.803c.775-.388 1.59-.69 2.381-1.042.273-.116.565-.21.809-.383.125-.12.328-.138.447.002.24.306-.17.536-.412.653-.927.417-1.879.775-2.797 1.21-.227.112-.456.218-.678.338-.2.12-.482.337-.664.069-.264-.435.64-.665.913-.849l.002.002Zm-2.033 1.22c.158 0 .299.113.307.277.007.153-.119.306-.277.306-.159 0-.299-.113-.307-.277-.007-.153.118-.306.277-.306Zm-.032 19.094a9.098 9.098 0 0 0 1.802.52c.654.063 1.317.066 1.97.051.219-.045.472-.201.61.074.161.478-.542.521-.864.52-1.007 0-2.01-.009-2.967-.354a6.128 6.128 0 0 1-.743-.261.295.295 0 0 1-.167-.15c-.115-.219.129-.495.36-.4Zm-1.065-.54c.159 0 .299.113.307.276.007.154-.119.307-.277.307-.159 0-.299-.113-.307-.277-.007-.153.118-.306.277-.306Z"/><path fill="#A4D357" d="M13.716 43.358c1.134-.75 2.246-1.535 3.37-2.31.402-.285.808-.57 1.215-.852a.486.486 0 0 1 .19-.135l.177-.115c1.258-.855 2.553-1.661 3.942-2.273.441-.17.869-.437 1.328-.535a10.82 10.82 0 0 1-.31-.422.317.317 0 0 1-.103-.131c-.673-.827-1.397-1.605-1.95-2.522-.614-1.013-1.177-2.123-1.553-3.278-1.57.625-3.154 1.238-4.775 1.722l-.52.14a1.16 1.16 0 0 1-.194.051c-3.796 1.023-7.622 2.213-10.885 4.438C1.918 38.344.356 40.373.62 42.583c.26 1.586 1.157 3.248 2.767 3.778 2.506 1.136 5.22-.005 7.448-1.244a39.963 39.963 0 0 0 2.79-1.7.248.248 0 0 1 .094-.061l-.002.002Zm2.46-3.86c.515-.319 1.026-.647 1.557-.944.807-.488 1.631-.95 2.525-1.261.217-.072.524-.227.658.05a.294.294 0 0 1-.14.388c-1.323.41-2.48 1.165-3.659 1.863-.302.129-.728.674-1.027.305-.083-.128-.051-.323.085-.403v.002Zm-1.076.59c.336.22-.072.791-.394.571-.335-.22.069-.791.394-.571Z"/><path fill="#000" d="M38.744 27.958c.366.052.732.069 1.096.06-.448.78-.645 1.7-.723 2.587-.007.44.138.876.379 1.243a3.07 3.07 0 0 0 2.018 1.045c.949.172 1.83-.152 2.625-.647.254-.151.5-.313.741-.478.217 1.005 1.882 1.698 2.82 1.655 1.351.028 2.475-.967 3.221-2.005.58-.958 1.237-1.928 1.95-2.763.07-.068.167-.138.25-.213.117.296.238.593.361.886.157.355.676.124.538-.226-.45-1.065-.858-2.152-1.154-3.272-.277-.965-.239-1.963-.232-2.955-.042-1.28.055-2.548.33-3.808.34-1.16.82-2.296 1.483-3.311.197-.237.361-.78-.088-.822a.295.295 0 0 0-.292.292c-.152.29-.33.57-.5.855a.306.306 0 0 0-.16-.01 8.27 8.27 0 0 1-1.027-.469 16.09 16.09 0 0 1-2.2-1.485c-.648-.528-1.296-1.091-2.099-1.366-1.897-.792-3.924.895-3.607 2.89.016.081.039.18.074.268a8.993 8.993 0 0 0-2.401-.28c-1.33.04-2.84.672-3.32 2.002-.352 1.014-.353 2.483.368 3.36-1.242.444-2.358 1.148-3.04 2.25-.613 1.066-.673 2.51.121 3.5.633.687 1.57 1.044 2.472 1.219l-.004-.002Zm5.05 3.813c-.538.295-1.098.617-1.734.577-.522-.015-1.06-.08-1.508-.383-.267-.157-.539-.337-.676-.619a.296.296 0 0 0-.011-.108c.028-.127.076-.247.123-.366.636-1.49 1.957-2.565 3.37-3.312.157-.108.44-.172.597-.302.035-.008.07-.016.104-.026 1.492-.389 2.987-.78 4.505-1.067a21.68 21.68 0 0 1 1.455-.223c.617.125 1.223.34 1.792.608.047.02.092.047.139.075-.795.195-1.964.825-2.266.985-2.18 1.082-3.805 2.925-5.89 4.163v-.002Zm8.224-2.986c-1.226 1.401-1.887 3.596-3.915 4.031a3.18 3.18 0 0 1-1.029-.048c-.008-.008-.017-.017-.027-.023-.235-.4-.225-.889-.217-1.339a3.15 3.15 0 0 1 .276-1.096c.067-.138.209-.303.259-.462.142-.115.285-.228.429-.341a18.728 18.728 0 0 1 1.568-1.054 8 8 0 0 1 1.135-.241c.664-.13 1.33-.1 1.997-.01-.199.208-.376.461-.476.583ZM45.385 14.22c.013-.045.016-.13.055-.182a.262.262 0 0 0 .05-.127c.664-.845 1.888-1.014 2.95-.36.56.329 1.044.765 1.551 1.165.928.709 1.913 1.37 2.999 1.815l-.06.037c-.975.712-1.977 1.018-3.19.827-1.061-.104-2.157-.309-3.07-.91a.29.29 0 0 0-.103-.03c-.769-.505-1.448-1.259-1.184-2.235h.002Zm-6.106 3.931a.202.202 0 0 1 .006-.03c.304-1.421 1.935-1.961 3.238-1.92.851.044 1.723.19 2.558.462 1.12.373 2.175.907 3.327 1.193 1.159.303 2.364.442 3.562.428.085-.013.2-.01.327-.005-.055.066-.107.127-.159.172-.3.29-.6.537-.97.752-.766.4-1.611.615-2.443.835-.235.081-.524.063-.768.138-1.656.165-3.32.068-4.99.128-.007 0-.012-.003-.019-.005-1.377-.116-3.282-.343-3.671-1.936a.386.386 0 0 0 .002-.213v.001ZM38 22.197c2.787-1.673 5.964-1.242 9.063-1.367.342-.021.678-.053 1.014-.088.015 0 .03-.003.043-.005.45-.048.902-.105 1.362-.167.92-.088 1.829-.24 2.71-.521a12.77 12.77 0 0 0-.145 2.155c.02.903-.048 1.814.038 2.715.016.096.035.191.054.286a.353.353 0 0 0-.085-.015c-.37 0-.673.067-1.06.037-.653-.035-1.271.115-1.907.246-.117.024-.28.035-.423.072-2.694.465-5.31 1.428-8.02 1.817-.927.141-1.879.106-2.757-.252-.885-.355-1.496-.872-1.615-1.861-.125-1.264.675-2.417 1.727-3.054l.001.002Z"/><path fill="#000" d="m43.37 27.555-.01.007-.013.008.024-.013-.001-.002ZM96.84 49.082c.546.343 1.177.332 1.798.34 2.104.139 4.334-2.263 3.182-4.285a.284.284 0 0 0-.113-.218c-.174-.18-.322-.388-.498-.57-.572-.493-1.234-.926-1.965-1.14-1.1-.508-1.58-.24-2.514.407-.697.513-1.391 1.093-1.842 1.84-.364.868-.235 1.993.416 2.695.425.428 1.007.658 1.536.931Zm-1.496-3.181c.25-.664.876-1.105 1.396-1.567.287-.223.59-.417.901-.603.21-.125.444-.252.697-.205.642.188 1.303.385 1.844.791.461.237.775.627 1.104 1.012.023.15.11.225.169.385.056.167.075.343.077.518.056.584-.216 1.085-.568 1.527-.658.832-1.732 1.195-2.768 1.065-.244-.005-.496.012-.723-.088-.578-.275-1.183-.527-1.688-.925-.501-.485-.6-1.255-.443-1.909l.002-.001Z"/><path fill="#000" d="M18.718 51.117c.31-.295.568-.628.802-.981.117.13.24.255.374.371.903.812 2.06 1.372 3.267 1.535 1.18 0 2.538-.14 3.476-.918a8.263 8.263 0 0 0 1.466-1.995c.693.597 2.196.897 2.962.945 2.05.082 3.8-1.63 4.403-3.485.528-1.89.47-3.863.852-5.785.108-.436.08-.963.372-1.325a.316.316 0 0 0 .067-.101c.237-.082.47-.168.705-.262 2.596-1.095 5.204-2.118 7.952-2.8 2.244-.375 4.542-.023 6.709.599 1.427.433 2.781 1.078 4.147 1.673 1.745.881 3.655 1.316 5.493 1.955-.158.118-.272.268-.4.433a1.423 1.423 0 0 0-.248.482v.003c-.108.362-.093.758-.048 1.137-.023.863.386 1.84 1.336 1.978.613.14 1.219-.052 1.798-.235.53-.13 1.055-.273 1.578-.43.836-.335 1.73-.408 2.621-.457.124.029.277.014.398.024.494.05.98.171 1.449.35-.37.153-.683.423-.948.726-1.196 1.413-2.306 3.805-1.769 5.662.252.72.808 1.444 1.621 1.514.932.074 1.809-.348 2.657-.674a16.66 16.66 0 0 1 2.61-.942c.74-.137 1.472-.323 2.217-.43-.349.45-.666.925-.937 1.433-.395.803-.853 1.633-.831 2.555a6.683 6.683 0 0 0 .45 2.613c.236.879 1.01 1.622 1.936 1.7a2.59 2.59 0 0 0 1.684-.405c1.13-.541 2.123-1.296 3.118-2.046.666-.485 1.325-1.015 2.053-1.425.79-.487 1.623-.87 2.393-1.402 1.319-.83 2.324-2.02 3.521-3.001a.268.268 0 0 0 .08-.117c.678.32 1.361.628 2.054.918 1.15.498 2.31.994 3.52 1.31-.102.282.329.673.447.918 1.494 2.147 3.667 4 6.268 4.589 2.004.42 3.54-.094 4.566-1.135.164-.055.331-.229.453-.344.419-.321.756-.763 1.145-1.13.272-.295.59-.555.788-.906a.477.477 0 0 0 .092-.164 5.942 5.942 0 0 0 .526-1.901c.347-3.705-1.751-7.703-4.837-10.005a.26.26 0 0 0 .027-.196c.042-.179.085-.357.123-.535.238-1.08.396-2.205.717-3.273.506-1.934.833-3.912.965-5.907.092-1.071.187-2.18-.03-3.244-.147-.706-.389-1.385-.641-2.06-.57-1.5-1.643-2.732-2.47-4.092-1.384-2.193-2.833-4.353-4.28-6.533-1.31-1.978-2.492-4.048-3.995-5.894-1.265-1.634-2.66-3.239-4.404-4.374-1.468-.991-3.248-1.328-4.97-1.586-1.1-.17-2.211-.055-3.315-.008-.017 0-.035.003-.052.005-.813-.015-1.6-.35-2.36-.619a98.146 98.146 0 0 1-3.75-1.81c-1.066-.68-2.235-1.296-3.502-1.5-.771-.12-1.623-.216-2.357.109-.727.388-.914 1.183-.598 1.911.285.809 1.093 1.274 1.48 2.032.126.202.166.438.221.667.008.121.125.316.007.403-.76.226-1.488-.273-2.147-.592-.526-.288-.949-.728-1.483-1.006-1.13-.642-2.336-1.135-3.566-1.55-.935-.412-1.992-.562-3.01-.5-.98.028-1.505 1.1-1.248 1.97.169.611.661.995 1.034 1.51.32.4.629.918.793 1.418-.005.193-.473.085-.603.058-.65-.192-1.212-.6-1.873-.768-1.216-.344-2.291-.923-3.517-1.29-.683-.178-1.362-.383-2.058-.503-1.243-.152-2.672-.114-3.722.64-.825.734-.34 2.226-.107 3.154a.198.198 0 0 1-.008-.03v-.001c.037.186.055.408-.012.59-.144.045-.3-.032-.446-.054-1.013-.256-2.078-.453-3.084-.768-.986-.187-1.945-.518-2.947-.618-1.374-.099-2.791-.147-4.11.306-1.217.52-2.156 1.355-2.044 2.779a4.842 4.842 0 0 1-.58 1.958c-.27.243-.66.296-.996.408-.823.23-1.733.082-2.581.185-.643.113-1.293.232-1.902.473-.75.412-1.471.967-1.88 1.734-.174.383-.297.783-.52 1.143-.048.095-.136.201-.208.311-.43.222-.863.445-1.292.672-1.366.78-2.805 1.485-3.96 2.575-.719.71-1.4 1.532-2.006 2.415a.319.319 0 0 0-.094-.02c-1.243-.518-2.344-1.367-3.284-2.333-.841-.897-1.776-1.745-2.915-2.244-.882-.291-1.905-.461-2.757 0-.539.265-1.111.537-1.467 1.044-.252.365-.491.74-.696 1.133-.094.207-.283.74-.26 1.112-.627-.179-1.271-.26-1.931-.167-.823.162-1.621.592-2.015 1.358-.935 1.417-1.065 3.257-.493 4.838a16.406 16.406 0 0 1-.28-.006c-1.23.11-2.481.418-3.548 1.056-1.415.935-1.705 2.617-1.86 4.182-.072.918-.027 1.886.384 2.728.476 1.001 1.098 1.965 1.953 2.685C1.334 38.3.357 39.656.04 41.374c-.234 1.737.506 3.559 1.773 4.75.832.723 1.96 1.042 3.024 1.248 1.339.15 2.628-.115 3.862-.586.005.788.359 1.528.738 2.208.509.942 1.347 1.642 2.217 2.238.122.13.252.248.39.357.068.083.15.153.255.193a.03.03 0 0 1 .011.002c.66.44 1.446.685 2.23.796 1.347.265 3.195-.556 4.175-1.468l.003.005Zm8.78-2.148c-.69 1.265-1.266 2.102-2.776 2.36a12.42 12.42 0 0 0-.263.036.31.31 0 0 0-.159-.013c-.715-.025-1.294-.61-1.708-1.146-.733-.932-.977-2.215-.887-3.384.014-.19.032-.38.062-.568.039-.083.075-.166.109-.252.539-1.37 1.422-2.578 2.396-3.673 1.264-1.333 3.145-1.724 4.912-1.846.59-.007 1.153-.002 1.743.03a8.913 8.913 0 0 0-.678 1.153c-1.142 2.35-1.416 5.04-2.748 7.305l-.004-.002Zm8.268-8.37c-.413 1.984-.326 4.035-.907 5.987-.336.943-1.032 1.73-1.817 2.335a3.05 3.05 0 0 1-.85.41.265.265 0 0 0-.125-.004c-.861-.215-1.439-1.033-1.781-1.805-.44-.931-.525-1.994-.396-3.01.347-1.131 1.017-2.16 1.863-2.984 1.089-.85 2.41-1.307 3.73-1.652.124-.053.308-.081.451-.142-.075.284-.107.587-.165.865h-.003Zm27.307 3.039c-.015.113-.05.25-.055.376-.602.059-1.134-.091-1.306-.843-.072-.363-.06-.74-.099-1.11a.994.994 0 0 1 .029-.317c.075-.053.145-.118.202-.175.721-.486 1.53-.375 2.306-.081l.367.151c.289.129.57.274.84.414a3.739 3.739 0 0 0-.34.09c-.455.14-.966.156-1.377.413-.422.245-.557.61-.567 1.082Zm1.487.01c-.273.066-.6.173-.935.255.039-.235.02-.485.129-.7.107-.077.204-.172.325-.224.927-.205 2.246-.811 2.96 0-.844.134-1.652.454-2.479.669Zm7.706 6.57c-.66.264-1.408.634-2.094.817a.445.445 0 0 0 .007-.114c.075-.665.608-1.237 1.16-1.577.741-.408 1.688-.492 2.51-.288.075.186.136.38.218.563a11.95 11.95 0 0 0-1.8.603l-.001-.003Zm4.147-1.102a3 3 0 0 0-.514.093c-.42.085-.837.172-1.252.268-.142-.263-.187-.585-.364-.828-.317-.27-.788-.248-1.182-.273-1.228-.072-2.53.461-3.161 1.553-.165.198-.447.872-.326 1.208-.806.067-1.447-.295-1.627-1.68-.116-1.576.841-3.536 1.9-4.68a1.86 1.86 0 0 1 .834-.506c.24-.112.495-.233.767-.295a.298.298 0 0 0 .148-.06c.588.11 1.177.205 1.772.277 1.332.153 2.675.24 4 .446.039.044.09.082.162.109.912.566.96 1.756.553 2.666-.2.485-.615.823-.937 1.222a1.404 1.404 0 0 1-.484.326.404.404 0 0 0-.287.154h-.002Zm6.497 5.063c-1.334.955-2.613 2.046-4.078 2.808-.026-.262-.03-.547.147-.74a36.85 36.85 0 0 1 2.65-2.027c.254-.161.513-.318.775-.465.382-.223.833-.461 1.174-.008a13.9 13.9 0 0 0-.668.432Zm3.015-1.784c-.6.36-1.225.695-1.84 1.05a.586.586 0 0 0-.061-.081c-.662-.73-1.3-.49-2.034-.045-.743.418-1.426.93-2.096 1.455-.444.36-.926.678-1.34 1.075-.179.161-.264.39-.29.625-.043.228-.03.46-.004.69.003.031.006.063.011.094a9.116 9.116 0 0 1-.222.097c-1.075.282-1.992-.353-2.235-1.411a6.225 6.225 0 0 1-.366-2.385c.022-.67.316-1.262.616-1.87.219-.474.468-.932.803-1.333.81-1.144 1.834-2.089 2.912-2.974a.358.358 0 0 0 .147-.05c.215-.066.397-.17.618-.256.643-.159 1.255-.342 1.93-.319 2.317-.033 4.324 1.725 5.13 3.817.046.152.07.312.086.468-.558.49-1.144.945-1.768 1.353h.003Zm21.829.997c-.831 4.155-5.015 4.213-8.002 2.147-1.376-.915-2.54-2.17-3.43-3.574.404.082.815.144 1.232.174 1.196.021 2.49.19 3.59-.373.68-.257 1.347-.544 1.954-.949.337-.166.631-.388.859-.691.082-.097.206-.242.279-.39a.253.253 0 0 0 .074-.107c.097-.287.175-.517.269-.822.733-1.74-.026-3.391-1.256-4.668a5.91 5.91 0 0 1-.095-.101c.085-.094.168-.19.307-.187.072-.003.14.015.21.018l.035.029c2.622 2.324 4.552 5.906 3.974 9.492v.002Zm1.663-2.135c-.04.754-.197 1.503-.532 2.19a.286.286 0 0 0-.032.065c0 .003-.003.005-.005.007-.236.298-.501.586-.775.866.469-1.29.519-2.846.12-4.391-.808-3.278-3.01-6.25-5.98-7.886a9.604 9.604 0 0 0-.925-.432c-.02-.08-.05-.157-.077-.235-.055-.21.038-.473.23-.583.09-.073.226-.113.341-.163a7.89 7.89 0 0 1 1.382.513c3.612 1.815 6.373 5.948 6.255 10.05h-.002ZM71.965 3.488c-.449-.711-1.337-1.218-1.299-2.158.282-1.325 2.972-.58 3.842-.232.738.275 1.378.734 2.062 1.11.848.412 1.69.842 2.545 1.242.587.265 1.19.553 1.81.778-.69.08-1.378.174-2.062.297-.558.092-1.127.058-1.689.117-1.303.205-2.613.383-3.911.626-.243.032-.483.074-.723.117.081-.237.016-.498-.046-.737a2.636 2.636 0 0 0-.527-1.16h-.002Zm-9.79 1.472c-.356-.532-.904-.953-1.126-1.565a1.619 1.619 0 0 1-.012-.568c.067-.202.14-.415.334-.53.202-.13.451-.135.685-.149.57.01 1.144.077 1.701.202 1.363.46 2.733.972 4.016 1.65.656.323 1.17.858 1.816 1.197.318.16.64.336.974.47a.254.254 0 0 0-.079.033c-.287.041-.574.088-.861.136-.957.13-1.917.242-2.867.419-1.297.221-2.605.371-3.912.518a.61.61 0 0 0 .055-.31c-.104-.545-.42-1.043-.726-1.5l.001-.003Zm-11.21.073c1.247-.738 2.84-.623 4.192-.255 1.187.252 2.307.755 3.434 1.193.516.194 1.047.342 1.565.53.335.142.663.327 1 .467-.134.017-.269.032-.402.05-2.388.297-4.772.628-7.158.95-.853.123-1.71.23-2.566.337.071-.465-.127-.922-.21-1.379-.066-.608-.397-1.411.141-1.891l.003-.002Zm-12.718 5.723c.192-.503.046-1.081.212-1.596.228-.777 1.078-1.222 1.793-1.485 1.24-.345 2.53-.295 3.81-.182.965.147 1.897.433 2.862.628.584.174 1.217.37 1.84.475-1.992.277-3.969.627-5.887 1.255-1.739.482-3.375 1.235-4.986 2.035a4.66 4.66 0 0 0 .354-1.128l.002-.002Zm-7.225 3.438c.307-.23.601-.488.945-.66.551-.213 1.137-.315 1.717-.423.604-.068 1.222-.022 1.828-.065-.229.117-.458.233-.681.357-.782.395-1.577.766-2.363 1.153-.067.043-.17.083-.276.127-.125-.012-.232.085-.352.143-.214.088-.43.178-.638.288-.374.197-.75.389-1.125.582.229-.553.452-1.127.947-1.502h-.002Zm-2.989 3.222c.418-.222.838-.44 1.26-.657.094 0 .19-.041.241-.127l1.698-.871c.23-.123.461-.245.703-.347.049-.013.102-.033.154-.056a.23.23 0 0 0 .093-.022c.39-.185.775-.375 1.162-.563a64.473 64.473 0 0 0 1.936-.944c2.59-1.28 5.167-2.7 7.974-3.483 2.989-.958 6.128-1.221 9.221-1.638 2.386-.322 4.77-.647 7.157-.962 2.402-.321 4.825-.515 7.217-.916 1.12-.212 2.258-.315 3.383-.502.192-.03.386-.058.578-.082.227-.011.49-.078.684-.083.536-.092 1.05-.193 1.593-.27 1.338-.258 2.69-.433 4.032-.656.847-.07 1.7-.06 2.535-.252 1.757-.252 3.53-.425 5.305-.447.943.012 1.88.214 2.808.375 2.763.57 4.404 2.047 6.223 4.095a46.75 46.75 0 0 1 2.815 3.711c.873 1.364 1.72 2.745 2.634 4.082 1.326 2.02 2.7 4.07 3.997 6.116.961 1.525 2.144 2.942 2.622 4.713.512 1.334.452 2.783.314 4.182a30.535 30.535 0 0 1-.775 5.08c-.367 1.344-.641 2.706-.908 4.072-.015.112-.067.259-.1.404a10.327 10.327 0 0 0-.592-.36.462.462 0 0 0 .039-.172c.097-.525.082-1.093.148-1.625.057-.483.196-.905.208-1.405-.027-.253-.391-.331-.528-.121a.306.306 0 0 0-.05.211c-.05.319-.115.637-.159.957-.127.615-.09 1.252-.193 1.871a9.3 9.3 0 0 0-1.378-.55c-.775-.221-1.604-.33-2.41-.228a.265.265 0 0 0-.103.037 26.05 26.05 0 0 0-.519-.527.278.278 0 0 0-.018-.048c-.107-.228-.172-.517-.05-.752.04-.086.12-.126.207-.151a.272.272 0 0 0 .046-.03c.157.013.324.021.503.035.377.073.499-.482.129-.569-.365-.088-.762.019-1.103-.158-.315-.192-.537-.507-.796-.792-.32-.468-.426-1.035-.538-1.581-.188-1.173-.359-2.383-.242-3.57.017-.087.03-.173.049-.258.836.01 1.623-.349 2.3-.822.244-.125.725-.277.535-.633-.08-.132-.27-.185-.403-.095-.392.21-.78.43-1.155.67-.397.206-.857.273-1.299.301-.466.029-.788-.356-1.122-.628-.917-.805-1.546-1.853-2.14-2.92.008-.13-.059-.28-.13-.391-.388-.912-.727-1.989-.39-2.965.067-.132.119-.28.216-.394.001-.001.003-.005.006-.006.788-.132 1.605.066 2.348.341a.294.294 0 0 0 .37-.181.294.294 0 0 0-.181-.37c-.712-.265-1.465-.45-2.23-.412-1.834.173-3.45 1.32-5.275 1.572-.687.04-1.423.03-2.07-.267-.393-.16-.797-.383-1.208-.563a1.227 1.227 0 0 0-.359-.317c-.387-.27-.506-.753-.561-1.197-.154-.856.169-1.7.52-2.476.034-.087.116-.208.168-.303a.25.25 0 0 0 .017-.12l.018-.024c.76-.855 1.531-1.765 2.56-2.303.385.047.455-.513.085-.59-.189-.043-.368.078-.525.163-.925.517-1.627 1.332-2.346 2.092-.395.483-.776.982-1.12 1.502-.287.528-.56 1.065-.831 1.601-.346.87-.596 1.773-.81 2.683-.199.564-.267 1.187-.307 1.802l-.112-.148c-.157-.189-.277-.41-.454-.58-.196-.167-.508.03-.466.271.01.074.047.132.1.18.135.177.259.362.397.535.678.909 1.366 1.808 2.066 2.7 1.374 1.647 3.22 2.802 5.024 3.925.497.308 1 .61 1.504.906.057.122.2.172.336.199 2.339 1.37 4.712 2.671 6.91 4.275 1.637 1.291 2.929 2.901 4.276 4.48 1.805 1.957 3.603 3.182 2.358 6.092-.018.05-.042.11-.062.174-.113.141-.184.376-.344.491-.195.265-.497.41-.781.565-.546.389-1.181.61-1.798.857-.69.377-1.478.338-2.266.34-1.905.07-3.747-.562-5.483-1.3-2.36-.977-4.634-2.132-6.924-3.257-2.496-1.133-4.99-2.336-7.72-2.793-1.594-.336-3.221-.431-4.838-.605-1.927-.221-3.817-.67-5.668-1.235-2.039-.77-4.026-1.678-6.071-2.428-1.12-.383-2.256-.721-3.385-1.078-1.973-.727-3.833-1.762-5.835-2.422-2.254-.7-4.64-1.091-6.997-.795-.792.119-1.541.409-2.315.607-2.34.645-4.541 1.692-6.807 2.548a17.18 17.18 0 0 1-6.351.897c-1.558-.208-3.21-.535-4.473-1.525-.427-.395-.865-.79-1.219-1.253-.174-.214-.294-.479-.5-.662-.076-.137-.223-.272-.303-.395-.264-.353-.593-.672-.867-1.028-.83-1.063-1.454-2.237-1.995-3.473-1.237-3.152-.815-5.31.848-8.18 1.812-3.071 3.231-4.158 6.333-5.798l-.005-.003Zm67.023 14.347c.002-.186-.001-.371-.01-.558a12.04 12.04 0 0 0-.018-1.093l.047.055c.285.316.59.618.925.881.202.175.414.349.661.442-.118.503-.114 1.033-.077 1.548.044.599.062 1.195.17 1.787.12.975.304 2.028.969 2.778-.082.163-.14.338-.164.518-.828-.638-1.716-1.196-2.61-1.745.034-.131.04-.286.05-.403.196-1.398.11-2.806.056-4.211l.001.001Zm-9.271-2.126c.005-.404.008-.814.165-1.192.104-.232.207-.475.404-.643a.295.295 0 0 0 .022-.412.201.201 0 0 0-.023-.016c-.122-.125-.361-.144-.51.073-.627.666-1.312.838-2.19.562a2.187 2.187 0 0 1-.925-.77c-.013-.224-.09-.439-.085-.665-.01-.56.071-1.12.208-1.665.331-.929.757-.844 1.608-.74.132.03.287.086.418.078 1.032.385 1.953 1.047 3.172.992 1.192.048 2.28-.387 3.371-.819.02.135.152.255.247.37 1.03 1.402 1.713 3.029 2.697 4.455a.28.28 0 0 0-.012.195c.022.233.02.47.04.703.035.365.055.73.07 1.097-.045 1.263-.384 2.515-1.88 2.715a3.31 3.31 0 0 1-1.484-.025c-.192-.033-.373-.107-.558-.162a81.564 81.564 0 0 1-3.62-2.238 38.696 38.696 0 0 1-1.088-.802c.07-.323-.075-.85-.045-1.09l-.002-.001Zm-72.49-11.871a.304.304 0 0 0 .222-.143c.895-.212 1.91.114 2.639.634.983.565 1.68 1.484 2.51 2.235.769.71 1.642 1.302 2.582 1.757-.157.1-.31.213-.48.285-1.16.587-2.432 1.038-3.751.95a.57.57 0 0 0-.28 0 18.493 18.493 0 0 1-1.562-.527c-.66-.23-1.225-.635-1.81-1.005a.496.496 0 0 0-.173-.193c-1.25-1.085-1.505-3.108.103-3.993Zm-6.697 4.93a.262.262 0 0 0 .069-.166l.003-.005c.43-.91.93-1.396 1.945-1.578 1.448-.143 2.802.582 4.033 1.254.702.393 1.329.915 2.088 1.208 1.156.461 2.351.841 3.583 1.035.523.09 1.042.2 1.563.301-1.197 1.11-2.528 2.155-4.154 2.55-.658.144-1.33.27-2.007.254a59.348 59.348 0 0 1-1.219-.124c-.982-.101-1.942-.333-2.905-.536-.01-.007-.018-.014-.028-.019-1.685-.59-3.54-2.208-2.969-4.175h-.002ZM.881 32.177c-.013-.096-.011-.203-.043-.293.045-.568.155-1.187.307-1.898.364-1.313 1.344-2.107 2.63-2.457.873-.24 1.735-.448 2.653-.355.586.019 1.174-.003 1.76.054 1.18.155 2.327.496 3.503.676.641.085 1.284.163 1.928.222.059.01.117.015.176.015 1.088.091 2.182.123 3.274.025.604-.067 1.207-.16 1.81-.242.081-.021.198-.033.322-.047-.336.722-.685 1.45-1.217 2.049a8.147 8.147 0 0 1-2.885 1.915c-.206.083-.403.19-.611.265-.009.001-.017.005-.026.006a.48.48 0 0 0-.108.032c-1.142.328-2.292.637-3.436.975a64.72 64.72 0 0 0-2.802 1.033.298.298 0 0 0-.068-.006c-.217.028-.421.113-.631.176-1.14.438-2.386.678-3.609.467-1.322-.255-2.78-1.163-2.93-2.61l.003-.002Zm9.952 12.941c-2.23 1.239-4.943 2.38-7.449 1.243-1.61-.53-2.508-2.191-2.766-3.778-.264-2.21 1.3-4.238 3.028-5.446 3.265-2.225 7.091-3.415 10.885-4.438.062-.01.125-.028.194-.052l.52-.14c1.622-.481 3.205-1.096 4.776-1.721.375 1.156.938 2.265 1.552 3.278.553.916 1.278 1.695 1.95 2.521.022.05.057.097.104.132.1.142.204.282.309.422-.46.096-.888.363-1.327.535-1.39.611-2.684 1.418-3.942 2.273l-.177.115a.498.498 0 0 0-.19.135c-.408.282-.814.566-1.216.851-1.124.775-2.234 1.56-3.37 2.31a.247.247 0 0 0-.093.062 40.403 40.403 0 0 1-2.79 1.7l.002-.002Zm1.634 6.047c-1.372-2.352-.314-5.332 1.438-7.187a1.14 1.14 0 0 0 .093-.103c1.692-1.103 3.306-2.323 4.99-3.438a6.62 6.62 0 0 1 .463-.282c.478-.261.989-.426 1.521-.636.373-.157.755-.302 1.17-.372 1.231-.232 2.492-.012 3.7.313-.21.157-.413.322-.6.505a20.49 20.49 0 0 0-3.123 4.172c-.247.426-.48.858-.712 1.293a.295.295 0 0 0-.072.115c-.004.013-.007.028-.012.041-.457.864-.898 1.734-1.362 2.594-.897 1.71-1.617 3.018-3.6 3.618-.378.118-.76.233-1.157.265-.39.005-.772-.103-1.154-.163a4.221 4.221 0 0 1-1.585-.736h.002Z"/><path fill="#000" d="M67.54 20.664c1.9 1.391 4.202 2.28 6.557 2.461 2.66.237 5.97-.71 6.831-3.523 1.085-4.183-3.147-7.774-6.712-9.047-2.104-.765-4.461-1.042-6.633-.399-2.29.635-4.003 2.66-3.655 5.106.303 2.232 1.848 4.094 3.611 5.4v.002Zm3.626-10.228c3.601.424 7.283 2.433 8.892 5.791 1.711 3.877-1.422 6.409-5.166 6.345-2.52-.015-4.974-.896-7.022-2.388-.987-.733-1.867-1.623-2.511-2.675-2.724-4.621 1.23-7.62 5.807-7.073Z"/><path fill="#000" d="M73.395 20.689c.242.046.482.07.718.07 2.48 0 4.438-2.512 3.616-4.987-.676-2.168-3.06-3.118-4.992-2.404.232.23.372.55.34.881-.013.14-.053.278-.115.405a1.16 1.16 0 0 1-.518.66.932.932 0 0 1-.494.12 1.183 1.183 0 0 1-.436-.083 1.737 1.737 0 0 1-.338-.179.96.96 0 0 1-.29-.316c-1.45 2.19-.196 5.351 2.509 5.831v.002ZM71.956 14.283l-.012.003.012-.003Z"/><path fill="#000" d="M71.879 14.252s-.004.008-.004.011l.004-.01ZM93.653 11.184c.145.16.285.329.417.499.47.681 1.077 1.266 1.476 1.996.204.324.693.02.497-.306-.277-.51-.656-.954-1.025-1.399-.344-.435-.648-.911-1.05-1.298a.296.296 0 0 0-.414.01c-.157.162-.06.382.097.498h.002ZM96.5 14.767c.16 0 .286-.146.283-.3a.297.297 0 0 0-.3-.283c-.158 0-.288.147-.285.3a.297.297 0 0 0 .301.283ZM94.873 26.595c-.11-.293-.15-.603-.194-.911a.297.297 0 0 0-.332-.245c-.45.103-.154.713-.127 1.021.199.715.591 1.378 1.054 1.957.243.295.69-.069.456-.367a5.64 5.64 0 0 1-.857-1.456v.001ZM96.436 28.948a.295.295 0 0 0-.286.299.295.295 0 0 0 .3.285c.16 0 .288-.142.285-.299a.295.295 0 0 0-.3-.285ZM104.024 36.834a.294.294 0 0 0 .284-.3.297.297 0 0 0-.3-.283.294.294 0 0 0-.284.3.297.297 0 0 0 .3.283ZM70.216 41.104a27 27 0 0 1-1.724-.523c-1.202-.448-2.394-.873-3.51-1.53-.231-.111-.607-.253-.704.093-.048.202.12.344.302.374.2.06.364.191.548.286 1.578.794 3.252 1.404 4.956 1.867.151.043.315-.068.35-.22.037-.16-.065-.307-.218-.35v.003ZM71.942 41.383c-.159 0-.287.148-.28.303.006.163.143.28.303.28s.287-.148.28-.303a.296.296 0 0 0-.303-.28ZM102.381 54.86c-.686-.173-1.374-.422-1.918-.886-.249-.205-.467-.442-.69-.674-.148-.19-.472-.22-.569.034a.295.295 0 0 0 .14.363 5.226 5.226 0 0 0 2.907 1.731c.374.079.503-.473.13-.568ZM103.939 54.904c-.158 0-.287.148-.28.303.006.163.143.28.304.28.16 0 .287-.148.28-.303a.296.296 0 0 0-.304-.28ZM78.377 50.015c-.433.452-.832.939-1.114 1.499-.107.291-.507.841-.053 1.006.407.082.4-.476.562-.72.253-.496.595-.933.982-1.333.084-.087.179-.185.187-.312.039-.34-.444-.455-.566-.138l.002-.002ZM76.692 53.673c.187.375.726.079.514-.276-.185-.373-.726-.08-.514.276ZM44.12 22.35c1.153-.045 2.322-.073 3.454-.298.24-.067.502-.325.3-.568a.302.302 0 0 0-.446-.002c-.355.098-.734.11-1.1.165-.735.037-1.498.117-2.237.12-.383.025-.354.588.028.583h.002ZM42.683 22.499c.159 0 .286-.153.277-.307-.008-.163-.147-.276-.307-.276s-.285.153-.277.306c.008.163.147.277.307.277ZM49.083 16.38c.295.12.686-.084.5-.426-.138-.195-.407-.11-.604-.205-.195-.056-.469-.142-.668-.258-.148-.123-.379-.163-.5.018-.301.532.931.758 1.272.87ZM47.09 15.104c.16 0 .286-.153.278-.307-.008-.163-.147-.276-.307-.276s-.286.153-.277.306c.008.164.147.277.307.277ZM50.34 29.325c-.215.258-.958.558-.668.958.312.31.596-.188.847-.345.162-.131.402-.288.387-.523-.015-.312-.457-.378-.566-.088v-.002ZM48.664 30.662c-.159 0-.286.153-.277.306.008.164.147.277.307.277s.285-.153.277-.307c-.008-.163-.147-.276-.307-.276ZM29.706 18.219c.222-.122.451-.227.678-.338.918-.435 1.87-.795 2.797-1.21.242-.117.653-.347.412-.654-.12-.14-.322-.121-.447-.001-.244.173-.536.265-.808.383-.792.352-1.607.653-2.381 1.042-.272.183-1.177.411-.913.848.181.268.464.052.664-.068l-.002-.002ZM27.95 19.242c.159 0 .285-.153.277-.306-.008-.164-.147-.277-.307-.277s-.286.153-.277.307c.008.163.147.276.307.276ZM27.698 38.303c.244.102.49.19.743.262.958.343 1.962.351 2.967.353.322.003 1.025-.042.863-.52-.137-.275-.392-.12-.61-.074-.652.016-1.315.012-1.97-.051a8.914 8.914 0 0 1-1.801-.52c-.232-.095-.476.181-.36.4a.3.3 0 0 0 .166.15h.002ZM26.853 37.796c.159 0 .285-.153.277-.306-.008-.164-.147-.277-.307-.277s-.285.153-.277.306c.008.164.147.277.307.277ZM17.116 39.598c1.18-.699 2.335-1.453 3.658-1.864a.294.294 0 0 0 .14-.388c-.135-.276-.442-.123-.658-.05-.893.312-1.718.773-2.524 1.262-.531.295-1.042.625-1.558.943-.137.08-.17.275-.085.403.299.369.725-.176 1.027-.305v-.001ZM14.706 40.66c.322.22.73-.352.394-.572-.324-.22-.728.351-.394.571ZM13.832 26.715c.303.085.694-.088.509-.445a.295.295 0 0 0-.327-.12c-.615-.08-1.238-.08-1.85-.168a6.134 6.134 0 0 1-.792-.192c-.153-.045-.319.024-.372.18-.257.707 2.38.647 2.832.745ZM9.833 25.672c.158 0 .285-.153.277-.307-.009-.163-.147-.276-.308-.276-.16 0-.285.153-.277.306.009.164.147.277.308.277ZM27.454 46.084c-.289-.053-.342.218-.41.428-.438.843-.9 1.765-1.744 2.27-.215.133-.643.17-.542.522.152.388.602.106.851-.027.528-.302.927-.768 1.257-1.27.304-.503.657-1.005.812-1.576a.293.293 0 0 0-.226-.345l.002-.002ZM23.722 48.7c-.158 0-.285.154-.277.307.009.163.147.277.307.277s.286-.154.278-.307c-.009-.163-.147-.277-.308-.277ZM74.17 2.422c.6.286 1.19.598 1.804.856a.435.435 0 0 0 .495-.056c.228-.195-.01-.594-.286-.489-.601-.258-1.182-.558-1.77-.843a.294.294 0 0 0-.387.143.295.295 0 0 0 .143.387v.002ZM73.17 1.961a.297.297 0 0 0 .303-.28c.007-.153-.12-.303-.28-.303a.296.296 0 0 0-.304.28c-.007.155.12.303.28.303ZM55.558 6.07c.362.095.714.228 1.051.391.27.174.81.38.832-.121a.295.295 0 0 0-.299-.265c-.34-.165-.68-.335-1.042-.454-.382-.135-.785-.198-1.182-.27a.294.294 0 0 0-.337.239c-.045.473.673.353.977.478v.002ZM53.863 5.818a.297.297 0 0 0 .304-.28c.007-.155-.12-.303-.28-.303a.296.296 0 0 0-.304.28c-.007.155.12.303.28.303ZM41.528 8.398a.297.297 0 0 0-.304.28c-.007.155.12.303.28.303.16 0 .297-.116.304-.28.007-.153-.12-.303-.28-.303ZM70.027 8.948c1.324.01 2.583.158 3.867.571.97.257 1.848.755 2.763 1.135.369.104.538-.438.174-.556-1.079-.487-2.153-1.027-3.32-1.29-1.128-.328-2.29-.427-3.46-.443-.388-.007-.405.558-.026.583h.002ZM69.095 8.944a.297.297 0 0 0 .304-.28c.007-.153-.12-.303-.28-.303a.296.296 0 0 0-.304.28c-.007.155.12.303.28.303ZM76.742 23.992a8.21 8.21 0 0 1-.948.087c-.69-.019-1.378-.065-2.067-.087-.939-.033-1.869-.277-2.75-.617-.289-.071-.706-.465-.917-.083a.295.295 0 0 0 .144.387c.527.248 1.083.438 1.643.6 1.117.351 2.297.283 3.45.368.579.032 1.165 0 1.732-.118a.294.294 0 0 0 .219-.35c-.053-.24-.312-.25-.506-.187ZM78.474 23.929a.297.297 0 0 0-.304.28c-.007.155.12.303.28.303.16 0 .297-.117.304-.28.007-.153-.12-.303-.28-.303Z"/></g><defs><clipPath id="a"><path fill="#fff" d="M0 0h110v58H0z"/></clipPath></defs></svg>