<svg xmlns="http://www.w3.org/2000/svg" width="86" height="110" fill="none"><g clip-path="url(#a)"><path fill="#A9A9A9" d="m44.377 45.66-.017.011.01.02.007-.032Z"/><path fill="#A4D357" d="M19.406 99.094a34.354 34.354 0 0 1-5.47-6.315c-2.689-3.658-4.178-7.215-4.76-11.724-.248-1.872-.39-3.775-.253-5.658.022-.29.092-.57.15-.852.068-.484.123-.969.233-1.442-.33.446-.668.89-.94 1.371-.292.683-.463 1.399-.683 2.103-.135.35-.294.687-.415 1.043-.462 1.6-1.02 3.188-1.115 4.866-.458 3.454.217 6.928 1.317 10.191.203.604.444 1.19.715 1.761a.328.328 0 0 1 .071.014c.11.032.225.1.326.147 1.23.447 2.402 1.078 3.702 1.32.247.055.5.09.751.127.281.078.256.524-.034.57-.08.013-.165-.004-.246-.014-1.466-.196-2.821-.818-4.175-1.383.11.205.224.409.34.61 1.06.608 2.22 1.024 3.379 1.413 2.294.86 4.68 1.516 7.107 1.855v-.002Zm-5.51-2.688a.305.305 0 0 1 .216-.077c.16 0 .285.16.277.313a.298.298 0 0 1-.096.2.304.304 0 0 1-.215.077c-.16 0-.286-.16-.277-.313a.298.298 0 0 1 .096-.2ZM26.466 19.742c.768 2.835 1.872 5.567 3.14 8.21.29.564.592 1.121.9 1.674.417.66.88 1.385 1.682 1.572.53.056.997-.194 1.473-.377a8.653 8.653 0 0 1 1.773-.865l.02-.012c.461-.326 1.03-.648 1.186-1.232.316-.79.03-1.614-.032-2.416.001-.013.005-.023.008-.035a43.21 43.21 0 0 0-.078-.43c-.363-2.05-.71-4.113-.954-6.17-.193-1.222-.284-2.455-.41-3.685-.223-1.57-.197-3.153-.075-4.73.01-.245.052-.623.383-.572.282.078.258.279.215.509-.07.947-.113 1.9-.106 2.85.07 1.25.252 2.49.345 3.737.28 2.4.626 4.794 1.044 7.175.103.536.193 1.071.284 1.605.01.019.018.04.022.06.182.83.473 2.114 1.33 2.472.189.093.314.187.504.256.262.058.518.134.767.235a9.082 9.082 0 0 1 2.311.71c.623.09 1.093.189 1.548-.4.196-.198.352-.497.462-.736.075-.145.115-.28.196-.406l.022-.022c.485-1.425.891-2.881 1.162-4.361.254-1.293.442-2.596.573-3.905-.032-.116 0-.262.034-.381v-.003c.1-1.1.16-2.204.18-3.31.038-2.555-.129-5.158-.975-7.585-.625-1.894-1.479-3.737-2.794-5.248-.405-.367-.844-.769-1.252-1.11-.62-.481-1.249-.972-1.959-1.313a11.97 11.97 0 0 0-1.282-.44C36.378.47 34.5.49 32.73.846c-2.872.855-4.313 2.16-5.552 4.87-.595 1.477-1.09 3.004-1.372 4.572a24.098 24.098 0 0 0-.106 5.574c.173 1.306.456 2.597.76 3.88h.005Zm1.545-10.318a.3.3 0 0 1 .304.286c.004.156-.126.304-.286.304a.3.3 0 0 1-.303-.286c-.005-.156.125-.304.285-.304Zm-1.13 5.989c.012-1.52-.026-3.069.416-4.539.044-.154.193-.257.355-.218.15.037.264.2.218.356-.11.378-.186.763-.255 1.15-.088.524-.107 1.081-.128 1.603 0 1.121-.11 2.262.159 3.363.052.226.088.403.158.616.033.071.04.154.008.232a.298.298 0 0 1-.381.168c-.278-.133-.265-.624-.355-.864a6.927 6.927 0 0 1-.197-1.866l.003-.001Z"/><path fill="#E2FFB4" d="M22.66 106.468c1.46-.091 2.877-.403 4.335-.484.652-.055 1.297-.201 1.935-.365a39.505 39.505 0 0 1-3.113-1.802 39.599 39.599 0 0 1-5.318-3.767.303.303 0 0 1-.175-.15l-.152-.128c-2.732-.266-5.41-.994-7.98-1.948-.902-.307-1.814-.62-2.677-1.024.514.794 1.075 1.559 1.66 2.303 1.381 1.826 3.009 3.463 4.72 4.978a14.566 14.566 0 0 0 2.149 1.518.58.58 0 0 1 .166-.021 35.9 35.9 0 0 1 1.315-.224c.428-.063.856-.121 1.277-.219.287-.09.862-.158.8.299-.043.199-.237.246-.413.224-.538.115-1.08.215-1.627.287-.222.031-.445.069-.666.109.277.137.556.264.837.385.022 0 .044.001.068.007.953.065 1.905-.031 2.86.022Zm-.179-1.603c.16 0 .3.113.31.28.007.155-.12.309-.28.309-.16 0-.3-.113-.31-.28-.007-.154.12-.309.28-.309ZM14.718 92.885a34.162 34.162 0 0 0 5.236 5.912c-1.224-3.834-1.945-7.803-2.708-11.749-.348-1.79-.626-3.595-1.046-5.37-.122-.534-.205-1.143-.323-1.659a11.532 11.532 0 0 1-.347-2.015.282.282 0 0 1-.037-.181c-1.227-.786-2.331-1.745-3.33-2.805-.738-.817-1.489-1.663-2.028-2.627-.206.627-.386 1.262-.43 1.924-.453 2.167-.209 4.386.04 6.562.624 4.828 2.133 8.11 4.973 12.01v-.002Zm2.305-3.92a.298.298 0 0 1-.096.201.304.304 0 0 1-.215.077c-.16 0-.285-.16-.276-.313a.298.298 0 0 1 .095-.2.305.305 0 0 1 .215-.077c.16 0 .286.16.277.313Zm-1.589-5.575c.164-.033.308.075.348.231.085.394.143.795.247 1.185.255 1.069.523 2.058.797 3.107.07.376-.486.497-.577.117-.271-1.029-.544-2.056-.793-3.084-.104-.398-.17-.806-.253-1.208-.04-.156.08-.317.231-.348ZM72.988 77.824c.692.72 1.482 1.337 2.174 2.056.199.003.287.255.492.254 1.234-.068.663-1.334.29-2.005-.318-.474-.722-.844-1.127-1.21-.673-.583-1.51-1.504-2.46-1.47-.093.022-.205.035-.273.109-.146.22-.293.45-.356.71-.1.287.122.511.302.706.315.289.644.561.958.852v-.002Zm1.254-.21c.322-.278.61.249.787.431.16.198.336.384.451.614.174.346-.327.616-.518.28-.099-.195-.296-.401-.419-.559-.159-.222-.583-.476-.302-.766Zm-.613-.961c.16 0 .291.143.288.3a.299.299 0 0 1-.3.29.299.299 0 0 1-.289-.301.298.298 0 0 1 .3-.29Z"/><path fill="#FDFFF9" d="M30.138 38.247a.404.404 0 0 1 .035.045 10.043 10.043 0 0 0 1.753 2.093c1.309 1.209 2.96 2.023 4.704 2.38-2.85-1.137-3.944-4.932-1.743-7.41.423-.484.916-.85 1.448-1.107a10.003 10.003 0 0 0-6.118 3.926.26.26 0 0 1-.08.071v.002ZM46.738 38.774l.008-.008c-1.38-2.261-3.709-3.874-6.271-4.465a4.52 4.52 0 0 1 2.22 2.438c1.052 2.632-.54 5.449-3.033 6.18a9.977 9.977 0 0 0 7.075-4.143l.001-.002Z"/><path fill="#E2FFB4" d="M44.78 29.529c-.002.097-.03.204-.055.303-.016.121-.041.237-.06.354.03.374.328.902.715.607.158-.125.307-.26.459-.393a8.62 8.62 0 0 1 .65-.642c1.765-1.74 3.597-3.401 5.453-5.043 1.547-1.392 3.178-2.695 4.805-3.986.386-.292.795-.551 1.17-.858.075-.066.158-.126.263-.119.247.003.381.348.187.51-1.79 1.334-3.526 2.699-5.205 4.164-1.393 1.247-2.81 2.467-4.176 3.742-.748.744-1.52 1.465-2.281 2.196a.472.472 0 0 1-.143.158c-.187.228-.453.423-.558.705a.407.407 0 0 0 .142.225c.105.038.218.03.327.032.189-.057.374-.122.56-.187l.102-.04c.033-.019.07-.03.108-.034.062-.022.126-.042.188-.063.141-.063.28-.12.42-.17a.358.358 0 0 1 .107-.018c.866-.309 1.75-.565 2.629-.836 3.247-.886 6.62-1.296 9.98-1.372l.234-.005c.248-.127.701-.084.893-.15.668-.11 1.315-.269 1.957-.476a6.484 6.484 0 0 0 1.782-.88c.673-.42 1.305-.916 1.814-1.526.046-.066.1-.138.158-.199a25.317 25.317 0 0 0 1.623-3.219c1.038-2.791.941-4.736-.486-7.372-1-1.504-2.312-2.848-3.959-3.656a11.81 11.81 0 0 0-1.219-.595c-.744-.261-1.535-.36-2.312-.457-.529-.047-1.124-.074-1.67-.1-1.997.138-3.903.837-5.683 1.733-1.34.647-2.562 1.498-3.697 2.456-.018.019-.035.037-.05.057-1.016 1.21-1.982 2.498-2.56 3.975-.21.513-.405 1.054-.549 1.588-.027.07-.046.159-.065.25-.206 2.288-.587 4.56-1.191 6.774-.264.857-.514 1.722-.812 2.57l.005-.003ZM65.324 13.84a.312.312 0 0 1 .21-.07c.161 0 .285.16.276.312a.3.3 0 0 1-.103.205.312.312 0 0 1-.21.07c-.161 0-.285-.16-.276-.312a.3.3 0 0 1 .103-.205Zm-6.268 5.524a.298.298 0 0 1-.305-.284c-.005-.155.123-.305.285-.305.162 0 .299.118.304.284.006.155-.122.305-.284.305Zm-.66-8.089c.578-.173 1.208-.101 1.805-.088.811.07 1.627.198 2.412.417.403.143.797.317 1.19.487.27.159.912.296.683.722a.297.297 0 0 1-.41.08c-1.607-.912-3.504-1.243-5.336-1.106-.174.057-.388.081-.48-.118-.068-.14-.01-.33.137-.394Z"/><path fill="#A4D357" d="M34.914 107.913c-1.797-.435-3.527-1.094-5.19-1.897-.103.043-.215.071-.32.1-.602.139-1.206.285-1.813.4-.597.078-1.226.09-1.82.174-1.017.115-2.028.308-3.05.368-.452-.032-.902-.019-1.355-.007 1.074.356 2.2.657 3.411.989 3.776 1.051 7.717 1.533 11.63 1.32.226-.034.452-.042.678-.047.069-.041.151-.072.227-.094.332-.139.66-.288.96-.491.082-.044.168-.087.253-.131-.471-.064-.942-.127-1.414-.198-.742-.113-1.46-.348-2.196-.486h-.001ZM45.834 41.965c.192-.734-.537-.647-.978-.402-.075.043-.157.094-.241.127-2.308 1.596-5.256 2.228-8.016 1.676-1.899-.36-3.672-1.274-5.094-2.57a.259.259 0 0 1-.115-.09c-.756-.159-.704.539-.544 1.047v.035a8.12 8.12 0 0 0 1.766 2.51c1.685 1.635 4.044 2.573 6.418 2.37 2.79-.158 5.348-1.879 6.695-4.284.03-.14.099-.29.11-.417v-.002Zm-9.37 2.835c-.961-.274-1.942-.57-2.817-1.051-.162-.087-.316-.187-.481-.27-.162-.043-.281-.178-.248-.354.143-.47.65-.103.912.05.175.1.352.195.538.276.74.345 1.51.566 2.29.792.362.134.173.673-.195.557Zm1.286.256a.306.306 0 0 1-.212.071c-.16 0-.285-.16-.275-.313a.304.304 0 0 1 .1-.204.306.306 0 0 1 .212-.071c.16 0 .286.16.275.312a.303.303 0 0 1-.1.205Z"/><path fill="#E2FFB4" d="M13.41 29.462c.045 0 .094 0 .142.006a30.511 30.511 0 0 1 3.405-.085c3.36.076 6.732.486 9.98 1.372.423.13.848.258 1.272.389h.046c.2.013.401.06.585.137.588-.314.115-.845-.147-1.195a1.354 1.354 0 0 1-.162-.215 27.896 27.896 0 0 0-3.746-3.427c-.896-.695-1.756-1.445-2.676-2.1a48.292 48.292 0 0 0-3.844-2.434c-.226-.15-.672-.165-.567-.54.225-.495.879.077 1.19.217 1.919 1.113 3.786 2.345 5.48 3.775 1.22.956 2.483 1.945 3.573 3.039.359.348.704.709 1.04 1.08.19.158.348.47.566.54.214 0 .25-.243.21-.428a1.628 1.628 0 0 1-.024-.08l-.012-.027-.003-.012c-.035-.056-.07-.114-.107-.17a.313.313 0 0 1-.071-.222 45.233 45.233 0 0 1-2.882-6.733 30.976 30.976 0 0 1-1.355-5.259c-.002-.003-.005-.006-.006-.01-.588-1.913-1.352-3.176-3.17-4.114a.62.62 0 0 1-.18-.102c-1.61-.757-3.317-1.325-5.098-1.449-.546.027-1.14.054-1.67.1-.779.098-1.57.197-2.312.458-.421.168-.82.38-1.22.595-1.644.81-2.958 2.154-3.958 3.655-1.427 2.637-1.524 4.581-.486 7.373.514 1.209 1.1 2.39 1.798 3.5.88.995 1.902 1.984 3.25 2.244.384.088.79.1 1.157.12l.001.002Zm3.148-8.908c.16 0 .299.118.305.284.006.155-.122.305-.285.305a.297.297 0 0 1-.304-.284c-.006-.155.122-.305.284-.305Zm-8.617-.422c.11-.106.312-.113.417.01.147.132.25.357.08.518-.113.107-.311.112-.417-.009-.148-.134-.25-.358-.08-.519Zm1.661 5.752c-.343-.568-.614-1.2-.87-1.8a7.884 7.884 0 0 1-.673-1.927.3.3 0 0 1 .22-.353.299.299 0 0 1 .354.22c.065.268.134.536.208.8.378.972.777 1.888 1.281 2.78.177.34-.321.616-.518.28h-.002ZM61.751 69.454c1.503-1 2.846-2.314 3.653-3.962.215-.4.427-.799.595-1.22.26-.743.359-1.536.456-2.314.047-.53.075-1.125.1-1.672-.126-1.84-.729-3.604-1.524-5.263-.517-.696-1.016-1.393-1.629-2.01-1.403-1.327-3.05-2.39-4.904-2.959l-.02-.009a32.509 32.509 0 0 1-3.285-.964 45.364 45.364 0 0 1-8.431-3.829.333.333 0 0 1-.106-.007c-.172-.038-.334-.06-.498-.013-.02.12.081.265.152.344.218.247.43.494.664.726.022.017.04.038.055.059.616.59 1.211 1.205 1.823 1.802 1.037 1.172 2.147 2.28 3.11 3.516 1.339 1.72 2.533 3.54 3.679 5.392.178.288.35.578.52.872.181.33-.317.626-.514.287-1.283-2.175-2.676-4.283-4.22-6.282-.564-.748-1.226-1.412-1.857-2.105a31.741 31.741 0 0 0-2.166-2.284c-.268-.264-.538-.548-.813-.808a.304.304 0 0 1-.046-.03l.031.021c-.413-.305-.823-.748-1.352-.818-.106.098-.232.204-.288.336 0 .024-.005.046-.01.068.048.422.197.862.284 1.18.019.06.04.127.059.198.355.96.639 1.946.94 2.922.884 3.25 1.294 6.625 1.37 9.988.006.227.01.453.012.68a.58.58 0 0 1 .047.222c.237 1.275.231 2.625.79 3.816.296.636.704 1.27 1.151 1.793.142.166.257.265.402.387.008.006.014.014.02.02.061.048.12.095.18.14 1.308.909 2.735 1.638 4.2 2.262 2.79 1.039 4.733.942 7.367-.487l.003.005Zm2.81-8.975c-.16 0-.302-.11-.31-.278-.01-.154.116-.311.278-.311.162 0 .302.11.31.278.01.154-.116.311-.278.311Zm-3.471-8.16c.113.034.197.151.27.238.293.371.65.67.983 1.002.626.665 1.162 1.43 1.616 2.221.406.764.698 1.585.84 2.438a.298.298 0 0 1-.233.345.298.298 0 0 1-.345-.234c-.256-1.624-1.143-3.067-2.22-4.279-.398-.39-.817-.76-1.163-1.197-.293-.187-.082-.648.254-.533l-.002-.002Zm-4.672 7.139c.161 0 .3.118.305.284.006.155-.122.305-.284.305a.297.297 0 0 1-.305-.284c-.006-.155.123-.305.285-.305Z"/><path fill="#A4D357" d="M46.213 53.229c-.307-1.673-.787-3.312-1.357-4.916l-.03-.035c-.528-1.31-.828-2.47-2.516-1.771-.127.042-.298.097-.442.088a8.71 8.71 0 0 1-1.736.528.249.249 0 0 1-.105.066c-.775.237-1.615.377-2.12 1.057-.286.429-.485.981-.594 1.466-.044.152-.058.382-.131.549a42.917 42.917 0 0 0-.421 3.876c-.293 3.136-.243 6.308-.217 9.452l.043 1.35c.006.161-.1.305-.267.322-.153.014-.315-.106-.32-.267-.096-3.616-.145-7.245.167-10.851.084-1.24.202-2.476.387-3.706l.049-.305c.04-.476.077-.93.109-1.412.077-.778-.094-1.47-.88-1.773a.325.325 0 0 1-.113-.087 8.646 8.646 0 0 1-1.737-.766.354.354 0 0 1-.152-.041c-1.147-.267-1.485.355-2.137 1.137-.212.283-.395.525-.564.826-.088.116-.17.306-.28.445-.212.39-.421.783-.624 1.178-1.268 2.644-2.374 5.373-3.14 8.21-.304 1.282-.586 2.573-.76 3.879a24.1 24.1 0 0 0 .106 5.574c.283 1.568.776 3.094 1.372 4.572 1.24 2.71 2.68 4.015 5.553 4.87 1.768.355 3.646.377 5.381-.217.434-.13.866-.262 1.283-.44.71-.34 1.338-.832 1.958-1.314.408-.34.847-.743 1.252-1.11 1.315-1.51 2.168-3.353 2.794-5.247.847-2.427 1.015-5.03.975-7.586a43.304 43.304 0 0 0-.788-7.598l.002-.003Zm-3.288 18.119c-.16 0-.301-.11-.31-.279-.01-.153.116-.31.278-.31.162 0 .302.11.31.278.01.153-.116.31-.278.31Zm2.047-3.761c-.228.692-.477 1.382-.832 2.023-.14.237-.244.72-.612.553-.398-.24.103-.74.203-1.04.383-.755.644-1.578.891-2.383.78-2.78.919-5.704.608-8.563-.107-.407.466-.582.572-.165.362 3.201.18 6.503-.83 9.576v-.001Z"/><path fill="#E2FFB4" d="m30.298 48.247.005-.013a.399.399 0 0 1 0-.345.952.952 0 0 0-.053-.327c-.008-.035-.041-.052-.065-.066-.144-.037-.297.066-.431.115a.718.718 0 0 1-.24.107 15.579 15.579 0 0 0-2.419 2.217c-1.146 1.19-2.297 2.427-3.25 3.776-.495.765-1.103 1.483-1.608 2.23-.164.24-.333.482-.469.74-.069.142-.238.215-.383.152-.462-.258.112-.774.263-1.07.458-.688 1.011-1.383 1.486-2.046 1.029-1.564 2.325-2.929 3.617-4.276a15.81 15.81 0 0 1 1.99-1.882.334.334 0 0 1 .105-.087c.167-.175.426-.287.523-.514-.032-.033-.073-.048-.115-.065-.08.013-.154 0-.227-.012h.017a.284.284 0 0 1-.083-.018 45.033 45.033 0 0 1-6.63 2.833c-1.405.492-2.86.902-4.339 1.193-.13.08-.324.109-.453.145-1.765.494-3.41.972-4.666 2.403a6.795 6.795 0 0 0-.573.756.377.377 0 0 1-.091.142c-.859 1.736-1.521 3.59-1.655 5.531.026.547.053 1.142.1 1.672.097.78.196 1.57.456 2.314.168.421.382.82.597 1.22.807 1.646 2.151 2.961 3.652 3.962 2.548 1.381 4.452 1.514 7.099.58a1.34 1.34 0 0 1 .275-.156c2.11-1.114 2.67-2.246 2.859-4.573 0-.089.004-.195.026-.289-.056-3.176.619-6.38 1.66-9.362a45.241 45.241 0 0 1 3.02-6.993v.006ZM12.992 64.51c-.08.236-.45.252-.542.018-.53-1.398-.986-2.879-.796-4.387.028-.283-.164-.778.26-.82.457.023.304.67.321.98-.165 1.264.252 2.573.657 3.739.052.17.16.296.1.47Zm.756 1.614a.298.298 0 0 1-.305-.285c-.006-.154.122-.305.284-.305.162 0 .3.118.305.285.006.155-.122.305-.284.305Zm6.98-7.79a.298.298 0 0 1-.306-.284c-.006-.155.123-.305.285-.305.162 0 .299.118.304.284.006.155-.122.305-.284.305Z"/><path fill="#A9A9A9" d="m45.497 43.794-.001-.013-.007.008.008.005Z"/><path fill="#A4D357" d="M15.85 50.656c1.304-.174 2.594-.457 3.876-.761 2.833-.768 5.562-1.873 8.203-3.142.299-.154.593-.311.89-.47.116-.105.282-.15.409-.24.16-.092.322-.187.478-.287.569-.376 1.217-.809 1.447-1.48.057-.284-.06-.564-.115-.841-.03-.074-.06-.16-.076-.243a9.167 9.167 0 0 1-1.303-3.34c-.324-.578-.779-.95-1.496-1.073-.187-.03-.374-.062-.561-.09-1.21-.066-2.426-.04-3.636-.02-2.181.12-4.35.378-6.523.6-1.557.142-3.124.201-4.673.418a20.82 20.82 0 0 0-1.953.345c-.324.07-.65.134-.978.193a.318.318 0 0 1-.225-.034c-.215-.121-.168-.49.082-.538.327-.06.653-.123.978-.192 1.841-.429 3.732-.548 5.611-.69 3.494-.286 7.006-.82 10.514-.712a.303.303 0 0 1 .175-.027l.158.014a.384.384 0 0 1 .116-.017c.536.02 1.1.025 1.601-.19.246-.135.438-.319.577-.56.064-.107.129-.265.214-.381.13-.796.373-1.586.738-2.35.006-.125.048-.26.09-.364.04-.315.201-.638.13-.956-.186-.48-.697-.688-1.133-.886-.413-.218-.86-.37-1.271-.59l-.07-.023c-.038-.003-.073-.006-.11-.007a.307.307 0 0 1-.141-.073 29.541 29.541 0 0 0-3.53-.893 43.198 43.198 0 0 0-7.592-.788c-.983-.015-1.972 0-2.958.073a.26.26 0 0 1-.184.034c-.053 0-.104-.004-.156-.006-1.456.129-2.898.39-4.282.874-1.893.625-3.734 1.48-5.243 2.796-.367.406-.77.845-1.11 1.253-.48.62-.971 1.25-1.311 1.96-.179.418-.311.851-.44 1.284-.593 1.737-.572 3.616-.217 5.386.854 2.874 2.159 4.317 4.866 5.557 1.475.595 3.001 1.09 4.568 1.373a24.03 24.03 0 0 0 5.57.106l-.005-.002Zm-.236-2.466c.574.032 1.15.066 1.726.041.832-.053 1.664-.106 2.49-.223a34.667 34.667 0 0 0 1.723-.448c.15-.08.332-.157.471-.006.108.114.111.31-.01.418-.249.197-.587.22-.882.315-.59.158-1.181.335-1.795.376-1.239.128-2.486.224-3.73.116-.16-.01-.292-.13-.29-.298 0-.153.136-.302.297-.291Zm-2.414.013c-.103-.388.573-.55.669-.165.103.388-.572.55-.669.165ZM60.778 29.344a43.2 43.2 0 0 0-7.592.789c-1.932.354-3.82.94-5.657 1.63-.607.308-1.259.783-1.358 1.489.031.228.06.45.095.667.032.106.057.213.08.32.154.3.294.615.418.94.051.071.088.157.103.247.209.622.4 1.272.5 1.927.025.1.04.204.056.288.139.368.386.766.782.886.595.14 1.193.146 1.794.16a83.051 83.051 0 0 1 2.9-.092c3.123-.132 6.255-.039 9.377.095 1.571.073 3.107.413 4.654.67.372.066.295.632-.095.582-1.241-.19-2.468-.488-3.721-.593-1.296-.115-2.588-.153-3.887-.181-2.986-.06-5.975-.065-8.95.103a.768.768 0 0 1-.225.015c-.08.004-.162.01-.244.016a.23.23 0 0 1-.065.018c-.725.103-1.385.218-2.027.532-.272.189-.458.448-.637.716l-.015.024a8.884 8.884 0 0 1-.738 1.888c-.02.087-.054.177-.084.256-.256.871-.325 1.228.494 1.769a.433.433 0 0 1 .157.131 54.61 54.61 0 0 0 2.701 1.492c2.642 1.269 5.37 2.376 8.203 3.142 1.281.304 2.572.587 3.876.76 1.844.182 3.73.145 5.57-.105 1.567-.283 3.091-.777 4.569-1.374 2.706-1.24 4.011-2.683 4.865-5.557.355-1.77.377-3.65-.216-5.386-.13-.434-.262-.866-.44-1.283-.34-.71-.831-1.34-1.313-1.96-.34-.409-.742-.848-1.108-1.253-1.51-1.317-3.351-2.17-5.243-2.796-2.427-.848-5.027-1.016-7.58-.976v.004Zm-.788 1.97c-1.754-.183-3.482.061-5.222.188-.426.072-.81.148-1.206.21-.15.064-.332-.026-.385-.177-.106-.354.289-.425.55-.447.882-.205 1.782-.215 2.677-.319.969-.083 1.944-.138 2.916-.095.308.065.968-.096.978.358-.008.156-.148.293-.308.281Zm1.521.086a.3.3 0 0 1-.308.282c-.16 0-.288-.153-.28-.308a.3.3 0 0 1 .307-.282c.16 0 .289.154.281.308ZM17.072 82.928c.727 3.718 1.356 7.462 2.203 11.155.3 1.341.655 2.63 1.06 3.938.114.38.235.755.358 1.13.03.12.1.27.145.415a38.494 38.494 0 0 0 5.058 3.611c1.156.733 2.313 1.42 3.522 2.031-1.248-3.29-2.04-6.724-2.748-10.167-.478-2.408-.905-4.83-1.286-7.253a46.947 46.947 0 0 0-.25-2.403c-.024-.74-.102-1.476-.171-2.2-.008-.1-.034-.212-.037-.317-.243-.113-.49-.23-.742-.346a.566.566 0 0 1-.012.075c-.094 1.232.153 2.461.258 3.686.06.382-.5.491-.58.112-.11-1.211-.332-2.421-.283-3.642.035-.152-.006-.35.038-.5-.622-.287-1.274-.588-1.966-.916a52.26 52.26 0 0 1-5.49-3.094c.064.696.23 1.343.382 2.013.15.896.354 1.782.542 2.671l-.001.001Zm7.103 4.436c.078 0 .15.019.21.07.06.052.098.127.102.205.009.153-.115.313-.275.313a.293.293 0 0 1-.312-.276c-.01-.153.114-.313.275-.313Z"/><path fill="#A9A9A9" d="m46.957 46.287-.014-.009a.02.02 0 0 0 .006.005l.029.02c-.008-.005-.014-.011-.021-.017v.001ZM42.157 97.735l.024-.028c-.008.01-.015.019-.023.026l-.001.002Z"/><path fill="#E2FFB4" d="M37.657 103.672c-.61-1.736-1.017-3.53-1.516-5.297-.498-1.65-.822-3.341-1.103-5.04-.174-1.028-.14-2.058-.35-3.072a.302.302 0 0 1-.005-.15c-.2-.23-.4-.457-.606-.682-2.985-3.334-5.399-4.77-8.524-6.268 0 .022.003.043.005.062.075.706.135 1.412.163 2.12.156.996.178 2.005.336 3 .644 3.679 1.27 7.385 2.177 11.004.444 1.707.898 3.417 1.522 5.068.086.241.177.46.268.697.053.13.134.305.155.461.193.092.387.18.585.267 1.98.923 4.094 1.495 6.226 1.934.292.045.584.087.875.128-.614-1.251-1.15-2.55-1.434-3.919-.081-.196-.11-.45.135-.535.4-.109.432.408.504.676.168.827.484 1.614.798 2.396.205.48.438.949.669 1.416.01.019.016.04.022.06l.74.102c-.559-1.484-1.136-2.945-1.643-4.435l.002.007Zm-9.073-5.322c-.346-1.28-.632-2.588-.788-3.906-.149-.8-.288-1.603-.365-2.414-.065-.38.496-.492.579-.114.224 1.732.484 3.466.857 5.172.097.384.202.765.294 1.15.068.376-.49.494-.578.112h.001Zm.592 1.464a.293.293 0 0 1-.312-.276c-.009-.153.115-.312.275-.312.078 0 .15.019.21.07.061.052.098.127.102.205.01.153-.114.313-.275.313Zm6.854 2.958a.292.292 0 0 1-.312-.276c-.009-.153.115-.312.275-.312a.31.31 0 0 1 .211.071.29.29 0 0 1 .102.204c.008.154-.115.313-.276.313Z"/><path fill="#A9A9A9" d="M38.404 36.977a.494.494 0 0 1 .042-.038l-.05.015c.004.006.005.014.008.02v.003Z"/><path fill="#A4D357" d="M45.294 36.058c.225.144.592.601.804.214.206-.24.137-.578.098-.864a.293.293 0 0 1-.017-.099 8.33 8.33 0 0 0-.32-.697.31.31 0 0 1-.057-.112 8.473 8.473 0 0 0-3.74-3.636l-.078-.012a.285.285 0 0 1-.188-.112 8.097 8.097 0 0 0-1.935-.592.308.308 0 0 1-.175-.018c-.01-.005-.021-.008-.031-.012a8.198 8.198 0 0 0-1.81-.065 8.151 8.151 0 0 0-2.15.44c-.055.035-.112.072-.17.104a.286.286 0 0 1-.199.034c-2.017.817-3.604 2.404-4.474 4.333a2.282 2.282 0 0 0-.056.693c.047.397.502.324.751.167a.292.292 0 0 1 .152-.045c.066-.053.134-.107.202-.159 3.877-3.027 9.605-2.799 13.269.395a.277.277 0 0 1 .125.043h-.001Zm-1.59-1.859a7.41 7.41 0 0 0-2.905-1.033c-.346.056-.477-.454-.142-.57.25-.06.509.045.756.082.932.164 1.82.541 2.624 1.033.316.22-.011.7-.33.487l-.002.001Zm1.079.546a.306.306 0 0 1-.212.07c-.161 0-.286-.159-.276-.312a.303.303 0 0 1 .1-.205.306.306 0 0 1 .212-.07c.16 0 .286.158.276.312a.304.304 0 0 1-.1.205ZM72.761 80.578a.28.28 0 0 1 .062-.135l.027-.032c.526-.609.274-1.161-.203-1.692-.395-.519-1.077-.871-1.663-.432-.02.01-.036.022-.053.033-1.414 1.269-2.828 2.536-4.24 3.805l-4.937 4.43c-.045.057-.11.092-.16.15-.498.55-.564.968-.165 1.597.101.123.187.258.29.378.212.194.492.281.763.353.22.005.437-.035.65-.064.129-.089.29-.095.419-.177a.315.315 0 0 1 .094-.033l.443-.398c1.75-1.57 3.501-3.14 5.25-4.712l3.423-3.071Zm-6.843 5.207a.297.297 0 0 1-.289-.3.298.298 0 0 1 .3-.29c.16 0 .292.143.29.301a.298.298 0 0 1-.301.289Zm1.734-1.571c-.226.193-.447.722-.8.471-.121-.1-.147-.294-.04-.415.447-.553.985-1.008 1.528-1.46.561-.49 1.081-1.027 1.601-1.559.298-.302.614-.592.916-.887.117-.16.326-.288.505-.137.12.1.146.295.04.415-.84.82-1.655 1.67-2.514 2.472-.4.38-.864.688-1.236 1.101v-.001Z"/><path fill="#E2FFB4" d="M61.716 89.887c-.402-.395-.797-.797-1.21-1.18-.731-.664-1.54-1.815-2.663-1.4-.479.198-.84.618-1.167 1.007-.123.242-.293.615-.054.833l.006.004c.125.012.212.112.291.2.3.303.595.608.89.916.479.507 1.004 1.02 1.455 1.545.291.302.552.632.85.928.213.25.493.482.842.462.748-.176 1.355-.778 1.704-1.443.292-.789-.443-1.389-.945-1.872h.001Zm-3.018-.476c-.234-.266-.521-.487-.807-.69-.148-.034-.262-.181-.234-.336.125-.475.625-.15.851.06.237.19.48.38.668.62.219.315-.239.65-.478.346Zm1.173 1.35a.298.298 0 0 1-.289-.3.299.299 0 0 1 .3-.29c.16 0 .292.143.29.301a.297.297 0 0 1-.301.289Z"/><path fill="#A9A9A9" d="m32.197 45.015.015-.022a.256.256 0 0 0-.021.013c.001.005.004.008.006.011v-.002Z"/><path fill="#A4D357" d="M58.336 92.628c-.113.108-.233.208-.343.326a49.274 49.274 0 0 0-2.116 1.907c-.498.398-.986.807-1.416 1.281-.278.28-.58.538-.86.817-.112.115-.31.099-.417-.015-.29-.377.342-.659.542-.914.534-.502 1.014-1.057 1.613-1.484.761-.697 1.526-1.417 2.31-2.078.142-.103.269-.3.423-.41-.251-.388-.626-.682-1.101-.77-.147-.013-.293-.038-.44-.046L54.57 93c-1.831 1.643-3.662 3.285-5.492 4.929l-4.94 4.433c-.056.196-.318.38-.445.532-.59.796-.89 1.779-1.05 2.746-.034.202-.043.37-.03.51l.09.177.027.027c.423.11.869-.04 1.265-.189.096-.049.189-.105.28-.162.066-.071.134-.136.23-.156.303-.222.581-.481.85-.739.133-.11.251-.299.43-.323l4.543-4.077c2.7-2.424 5.402-4.847 8.103-7.27 0-.003 0-.006-.002-.01a2.276 2.276 0 0 0-.095-.798l.001-.002Zm-5.92 5.202a.298.298 0 0 1-.289-.3.299.299 0 0 1 .3-.29c.16 0 .292.143.29.301a.298.298 0 0 1-.301.289Z"/><path fill="#E2FFB4" d="M38.641 109.197c.46-.028.92-.047 1.374-.137.167-.036.324-.105.482-.171a37.77 37.77 0 0 0-1.004-.158c-.257.186-.566.315-.852.466ZM84.047 91.517c-1.243-1.318-2.473-2.65-3.613-4.06-.47-.533-1.008-.997-1.52-1.488-1.172-1.217-2.356-2.423-3.533-3.636a.352.352 0 0 1-.123-.078c-1.099-.77-2.533-.26-3.567.382-1.002.604-1.988 1.38-2.544 2.429-.28.737.093.983.578 1.437.04.04.062.082.075.125.296.212.556.475.757.789.785.999 1.275 2.625-.055 3.4a4.315 4.315 0 0 1-.637.335 94.33 94.33 0 0 0 2.066 2.274c.55-.76 1.163-1.58 2.097-1.865.42-.137.903-.236 1.3.012 1.183.545 1.753 2.015 1.27 3.222-.305.737-.735 1.434-1.402 1.892-.21.192-1.206.876-1.925 1.113.74.75 1.355 1.611 2.102 2.357.22.227.446.447.677.662 1.567-1.408 3.136-2.814 4.704-4.221 1.47-1.32 2.94-2.637 4.41-3.958-.332-.429-.746-.737-1.116-1.126l-.001.003Zm-8.337 6.796a.293.293 0 0 1-.312-.276c-.01-.153.115-.312.275-.312.078 0 .15.02.21.07.061.052.098.128.102.206.01.153-.115.312-.275.312Zm2.502-3.234c-.192.577-.368 1.181-.803 1.626-.252.229-.658 1.103-1.047.787-.268-.258.044-.486.21-.685.201-.26.415-.51.618-.768.54-.945.751-2.084.37-3.126-.1-.152-.065-.367.106-.451.499-.181.522.592.617.91.098.565.1 1.158-.071 1.709v-.002Zm.275-7.223c-.885-1.166-1.982-2.15-2.877-3.308-.187-.153-.09-.471.141-.513.22-.05.337.166.445.316.882 1.063 1.888 2.015 2.729 3.111.252.288-.178.678-.44.394h.002Zm1.074 1.076c-.45.038-.511-.587-.056-.596.45-.04.51.587.056.596Z"/><path fill="#A4D357" d="M42.96 101.858c.126-.352.253-.704.382-1.055.824-1.852 1.662-3.707 2.68-5.458a90.971 90.971 0 0 1 2.827-4.66c.626-.975 1.185-1.99 1.782-2.982 2.224-3.895 4.344-8.058 4.646-12.605.053-.91.083-1.82.077-2.731-.07-.484-.16-.982-.551-1.305-.365-.25-.984-.424-1.333-.072-.115.147-.256.303-.278.497-.006.126.015.184 0 .291a.366.366 0 0 1-.037.105c.031 2.204-.34 4.385-.947 6.497-.402 1.537-.836 3.078-1.512 4.52-1.317 3.075-3.164 5.86-4.937 8.679-.686 1.104-1.358 2.217-2.043 3.324-.505.863-1.063 1.7-1.46 2.622l-.023.045a.256.256 0 0 1-.035.11v.002c-.281.814-.632 1.634-.617 2.503.03.693.094 1.645.774 2.009.086.005.142.019.214-.01.113-.09.242-.167.345-.264a.264.264 0 0 1 .048-.059l-.001-.003Zm10.185-22.177c.564-1.793.98-3.66.902-5.55a.298.298 0 0 1 .28-.38c.453.04.293.645.311.957-.009.301-.015.602-.034.903a15.048 15.048 0 0 1-.56 3.055c-.114.433-.217.868-.37 1.29-.052.151-.244.218-.385.159-.172-.07-.22-.274-.143-.432l-.001-.002Zm-.23 1.407c.16 0 .296.13.297.291a.298.298 0 0 1-.291.298.297.297 0 0 1-.298-.292.297.297 0 0 1 .292-.297Zm-8.807 14.534c.193-.364.392-.727.595-1.085.272-.523.61-1.002.957-1.475a.3.3 0 0 1 .366-.221c.387.13.163.555-.027.766-.34.419-.602.892-.864 1.362-.176.317-.35.634-.519.955-.11.229-.19.631-.533.501-.352-.165-.084-.558.025-.803Zm-.62 1.646c.16 0 .296.13.298.292a.298.298 0 0 1-.292.298.297.297 0 0 1-.297-.292.297.297 0 0 1 .291-.298Z"/><path fill="#E2FFB4" d="M34.313 38.717c.11 2.205 2.168 3.978 4.346 3.78 3.331-.23 4.966-4.244 2.758-6.738-2.583-2.9-7.34-.907-7.105 2.958h.001Zm2.013-1.57c1.127-1.792 3.904-1.33 4.39.731.4 1.493-.885 3.076-2.428 2.982-1.844-.037-2.968-2.171-1.962-3.713Z"/><path fill="#A4D357" d="M41.115 104.275a14.993 14.993 0 0 0-.546-3.702c-.505-1.862-1.337-3.616-2.293-5.28a31.077 31.077 0 0 0-2.898-4.335c.21 2.418.6 4.79 1.29 7.117.504 1.779.919 3.583 1.521 5.332.551 1.644 1.183 3.185 1.775 4.79v.006c.422.065.844.136 1.264.22.008 0 .016.004.024.006 0-.814.02-1.629-.004-2.442-.063-.569-.097-1.141-.133-1.713v.001Z"/><path fill="#000" d="M38.288 40.86c1.543.094 2.829-1.489 2.428-2.982-.486-2.06-3.262-2.523-4.39-.73-1.006 1.54.118 3.675 1.962 3.712Zm.158-3.92-.042.036v-.003a.1.1 0 0 0-.007-.019l.049-.015ZM36.658 44.244c-.78-.227-1.55-.447-2.29-.791a5.977 5.977 0 0 1-.538-.276c-.262-.155-.769-.52-.912-.05-.033.175.086.31.248.354.165.082.32.182.481.27.875.481 1.856.776 2.816 1.05.368.117.557-.423.195-.557ZM37.575 44.54c-.08 0-.15.02-.212.071a.298.298 0 0 0-.1.205c-.01.153.115.312.275.312.08 0 .15-.019.212-.07a.297.297 0 0 0 .1-.205c.01-.154-.114-.313-.275-.313ZM44.036 33.713c-.804-.492-1.692-.87-2.625-1.033-.247-.037-.505-.143-.755-.083-.336.115-.205.627.141.57a7.41 7.41 0 0 1 2.906 1.034c.321.212.648-.268.331-.487l.002-.001ZM44.607 34.229c-.08 0-.15.019-.212.07a.298.298 0 0 0-.1.205c-.01.154.115.313.276.313.08 0 .15-.02.212-.07a.298.298 0 0 0 .1-.206c.01-.153-.115-.312-.276-.312Z"/><path fill="#000" d="M85.779 92.499c-.306-.512-.803-.876-1.215-1.297-.305-.311-.602-.63-.898-.948-.616-.702-1.261-1.374-1.877-2.075-.386-.448-.729-.932-1.141-1.358-2.181-2.122-4.293-4.315-6.395-6.516a.468.468 0 0 0-.138-.15l.168-.152a.401.401 0 0 0 .087-.078l.103.087c.225.172.36.546.674.548.047.035.097.07.153.09.345.14.743.047 1.071-.1.31-.12.486-.423.569-.733.207-.741-.21-1.484-.567-2.11-.369-.508-.834-.932-1.296-1.35-.856-.752-2.16-2.03-3.352-1.273-.741.926-.738 1.488-.355 2.012-.127.11-.26.211-.376.332-.087.13-.272.256-.396.396-.183.11-.356.24-.517.378a.262.262 0 0 0-.134.209c-1.478 1.328-2.96 2.654-4.439 3.984l-4.212 3.78a.861.861 0 0 0-.123.11c-.376.337-.753.675-1.128 1.014a.295.295 0 0 0-.062.08c-.566-.493-1.203-.872-1.987-.721-.585.088-1.046.483-1.434.902-.324.293-.559.669-.622 1.106-.09.309.016.564.189.79a.281.281 0 0 0 .107.129l.052.057c.125.16.272.307.337.503a.254.254 0 0 0 .109.122l-.473.425a.245.245 0 0 0-.109.098c-.577.52-1.156 1.037-1.733 1.555a17387.58 17387.58 0 0 1-5.507 4.942l-5.038 4.522-.393.353a26.265 26.265 0 0 1 1.35-3.197c.588-1.249 1.189-2.49 1.902-3.672 2.097-3.671 4.572-7.132 6.363-10.979 1.673-3.175 2.775-6.733 2.83-10.344.029-.1.033-.22.027-.321.07-.876.014-1.735.077-2.612a8.295 8.295 0 0 0 1.73.194h.006c.68 0 1.364-.097 2.038-.322 1.126-.358 2.24-.823 3.143-1.602.798-.642 1.582-1.331 2.16-2.183a15.559 15.559 0 0 0 1.443-2.63c.33-.94.447-1.948.537-2.937.262-2.34-.51-4.646-1.492-6.742-.679-1.49-1.579-2.848-2.61-4.105 2.138.118 4.279-.066 6.351-.666 2.692-.794 5.67-1.981 6.998-4.636.544-1.049 1.003-2.166 1.09-3.357.112-1.017.178-2.06-.016-3.072a15.515 15.515 0 0 0-.838-2.88c-.431-.897-1.06-1.695-1.695-2.457-1.468-1.84-3.644-2.924-5.817-3.711a17.991 17.991 0 0 0-3.634-.92c.92-.952 1.748-1.99 2.451-3.119.007-.01.016-.019.024-.028a.285.285 0 0 0 .047-.082 16.5 16.5 0 0 0 .387-.663c1.343-2.468 2.61-5.414 1.673-8.232-.358-1.126-.822-2.242-1.602-3.146-.64-.798-1.329-1.581-2.181-2.16a15.542 15.542 0 0 0-2.628-1.445c-.94-.33-1.947-.448-2.935-.538-2.337-.262-4.642.51-6.736 1.493-1.52.693-2.903 1.619-4.181 2.678a.327.327 0 0 0-.07.047l-.04.045a30.316 30.316 0 0 0-2.535 2.407c-.041.042-.081.087-.12.13.029-2.685-.238-5.388-1.182-7.919-.786-2.175-1.87-4.353-3.708-5.821-.762-.636-1.559-1.265-2.455-1.697a15.541 15.541 0 0 0-2.878-.839c-1.01-.193-2.052-.126-3.07-.016-1.188.087-2.304.547-3.354 1.09-2.654 1.332-3.84 4.31-4.632 7.005-.54 1.869-.744 3.797-.692 5.725a17.367 17.367 0 0 0-2.688-1.542c-2.092-.982-4.399-1.755-6.734-1.493-.989.09-1.996.208-2.936.538a15.6 15.6 0 0 0-2.627 1.444c-.853.58-1.54 1.362-2.181 2.161-.78.902-1.245 2.018-1.602 3.145-.937 2.819.33 5.765 1.673 8.232.104.189.212.374.322.559.043.159.17.342.326.52.57.876 1.215 1.694 1.92 2.457-.677.16-1.346.36-2.001.606-2.174.787-4.35 1.872-5.818 3.711-.634.762-1.263 1.56-1.695 2.457-.377.927-.646 1.9-.838 2.88-.193 1.011-.126 2.053-.016 3.072.087 1.19.546 2.307 1.09 3.358 1.33 2.656 4.306 3.842 6.998 4.635 1.672.483 3.389.697 5.112.7a17.686 17.686 0 0 0-1.785 3.036c-.98 2.095-1.752 4.403-1.49 6.742.09.989.207 1.997.537 2.938.39.92.885 1.8 1.444 2.629.577.852 1.36 1.542 2.159 2.183.9.78 2.017 1.244 3.142 1.603.678.226 1.361.323 2.044.323 1.112 0 2.22-.26 3.29-.65a.498.498 0 0 0 .113-.042c.967-.363 1.902-.829 2.777-1.306.186-.102.368-.21.548-.319.068.295.144.59.23.883.793 2.695 1.979 5.675 4.631 7.004 1.049.544 2.165 1.004 3.355 1.091 1.016.112 2.058.178 3.07-.016.98-.192 1.952-.462 2.877-.839.897-.432 1.694-1.061 2.455-1.696 1.838-1.47 2.922-3.647 3.708-5.822a17.52 17.52 0 0 0 .849-3.206c.723.741 1.499 1.43 2.33 2.049.01.008.019.019.029.028.01.008.022.013.032.02.612.451 1.252.865 1.924 1.235.259.142.523.282.79.418.008.114.046.24.079.344l.011.068c.01.263.107.585.093.786.024.49.018.981.018 1.472 0 2.503-.622 4.919-1.314 7.317-.926 3.25-2.6 6.23-4.394 9.08-1.662 2.693-3.414 5.336-4.935 8.113-.38.837-.796 1.667-1.106 2.535a17.52 17.52 0 0 0-.58-1.5c-2.2-4.916-5.537-9.383-9.86-12.627-1.87-1.356-3.956-2.353-6.056-3.293-1.91-.871-3.805-1.797-5.635-2.83-1.576-.979-3.16-1.867-4.6-3.07-1.378-1.246-2.734-2.612-3.608-4.269-.078-.185-.212-.24-.332-.22-.226-.067-.408.161-.547.326-.334.385-.717.732-.99 1.166-.312.48-.718.911-.892 1.465-.333.789-.452 1.644-.82 2.418-.58 1.715-1.155 3.466-1.308 5.28a20.14 20.14 0 0 0 .342 7.06c.405 1.943.99 3.858 1.829 5.66.202.38.414.757.632 1.13a.274.274 0 0 0 .114.199c1.981 3.328 4.604 6.28 7.592 8.73 1.999 1.574 4.392 2.507 6.837 3.136 3.536 1.089 7.178 1.772 10.882 1.869a46.193 46.193 0 0 0 4.864-.221c.573-.028 1.21-.049 1.77-.228.245-.108.482-.244.756-.25.175 0 .39-.01.5-.123.155-.045.301-.213.423-.319l1.594-1.429c2.615-2.347 5.23-4.693 7.843-7.04 2.298-2.063 4.597-4.124 6.894-6.187l1.027-.922c.054-.05.116-.1.175-.153.318.336.679.625 1.152.66.437.031.852-.19 1.196-.439.531-.302.904-.816 1.188-1.347.224-.504.1-1.11-.17-1.573a3.608 3.608 0 0 0-.151-.19l1.051-.943 2.787-2.501a.26.26 0 0 0 .103-.02c.364-.153.748-.282 1.147-.21.63.073 1.26.31 1.737.74.721.768 1.714 2.384.399 3.068-.234.132-.473.264-.734.332-.277-.022-.405.307-.247.488.007.012.015.023.025.035.55.64 1.116 1.263 1.688 1.881.343.345.637.76 1.022 1.055.316.139.422-.22.57-.415.36-.51.768-1.025 1.275-1.396.367-.181.807-.402 1.227-.316 1.906.843 1.372 3.068-.024 4.133-.595.466-1.23.898-1.963 1.107a.604.604 0 0 1-.162.028.27.27 0 0 0-.175.08c-.162.056-.26.244-.114.468.716.678 1.327 1.48 1.987 2.219.45.522.996.968 1.436 1.487.196.131.45-.028.465-.243l1.495-1.341 2.526-2.269 5.331-4.784a.294.294 0 0 0 .072-.351.4.4 0 0 0-.025-.074l-.004.005ZM71.726 76.268c.064-.26.21-.49.357-.71.067-.074.18-.088.272-.11.948-.033 1.788.888 2.461 1.471.405.365.808.736 1.127 1.21.372.67.945 1.937-.29 2.005-.205.003-.292-.25-.492-.254-.693-.719-1.482-1.335-2.174-2.056-.314-.29-.644-.563-.959-.852-.181-.194-.403-.418-.302-.706v.002ZM68.358 30.32c1.892.625 3.733 1.48 5.243 2.796.367.405.769.845 1.109 1.253.482.62.972 1.25 1.312 1.96.178.417.31.85.44 1.284.593 1.736.572 3.615.217 5.386-.854 2.874-2.159 4.317-4.866 5.556-1.476.596-3.001 1.091-4.568 1.374a24.03 24.03 0 0 1-5.57.106c-1.305-.174-2.595-.457-3.876-.76-2.834-.768-5.563-1.874-8.203-3.143a53.328 53.328 0 0 1-2.701-1.491.406.406 0 0 0-.158-.132c-.819-.54-.75-.897-.493-1.768.03-.08.065-.17.084-.257.315-.597.562-1.229.737-1.888l.015-.023c.18-.269.365-.528.638-.717.64-.314 1.3-.429 2.026-.532a.237.237 0 0 0 .065-.017c.081-.005.162-.01.245-.017a.771.771 0 0 0 .225-.014c2.975-.167 5.963-.163 8.95-.104 1.299.028 2.59.067 3.886.182 1.253.104 2.48.402 3.722.592.39.05.467-.516.094-.582-1.546-.256-3.082-.597-4.654-.67-3.122-.133-6.253-.226-9.377-.095a86.77 86.77 0 0 0-2.9.093c-.599-.013-1.198-.02-1.793-.16-.396-.122-.644-.518-.782-.887-.016-.084-.031-.187-.056-.287-.1-.657-.293-1.306-.5-1.928a.573.573 0 0 0-.104-.246 9.192 9.192 0 0 0-.418-.94 4.819 4.819 0 0 0-.08-.32c-.034-.218-.063-.44-.094-.668.099-.706.751-1.18 1.358-1.489 1.836-.69 3.726-1.276 5.657-1.63a43.198 43.198 0 0 1 7.591-.788c2.554-.039 5.155.128 7.58.975v-.004ZM39.03 46.666c-2.374.203-4.735-.734-6.418-2.369a8.107 8.107 0 0 1-1.766-2.51v-.035c-.16-.509-.212-1.207.544-1.048a.26.26 0 0 0 .115.09c1.424 1.298 3.197 2.21 5.094 2.57 2.76.553 5.708-.08 8.016-1.676.082-.032.165-.082.241-.126.44-.245 1.17-.332.978.402-.012.127-.08.279-.109.417-1.347 2.405-3.904 4.126-6.695 4.283v.002Zm6.467-2.873-.007-.004.005-.008c0 .005 0 .008.002.012Zm-1.12 1.866a.298.298 0 0 1-.007.032l-.01-.02.016-.012Zm-12.166-.665-.014.022v.002a.023.023 0 0 0-.006-.01.246.246 0 0 0 .02-.014Zm-.313-9.372c-.068.051-.134.106-.202.159-.049 0-.1.013-.152.044-.248.158-.704.23-.75-.167-.02-.23.004-.465.055-.692.87-1.93 2.457-3.517 4.474-4.334a.277.277 0 0 0 .2-.033c.058-.034.114-.07.17-.105a8.15 8.15 0 0 1 2.149-.44 8.2 8.2 0 0 1 1.81.066l.03.011c.064.025.123.03.176.018.677.116 1.325.32 1.935.592.04.055.102.098.189.113l.078.011a8.487 8.487 0 0 1 3.739 3.637.3.3 0 0 0 .057.111c.117.227.224.46.32.698 0 .034.006.066.018.098.038.286.107.625-.1.864-.211.388-.578-.07-.803-.214a.283.283 0 0 0-.125-.042c-3.664-3.194-9.393-3.423-13.27-.395h.002Zm9.521.138c2.206 2.494.571 6.51-2.758 6.739-2.18.197-4.236-1.577-4.346-3.78-.236-3.865 4.52-5.858 7.105-2.959h-.001Zm-5.084-1.51a4.535 4.535 0 0 0-1.447 1.108c-2.202 2.478-1.11 6.273 1.742 7.41-1.742-.359-3.395-1.171-4.704-2.38a10.089 10.089 0 0 1-1.753-2.093c-.01-.017-.023-.032-.035-.045a.278.278 0 0 0 .08-.071 10.003 10.003 0 0 1 6.117-3.927v-.001Zm8.86 6.239a9.963 9.963 0 0 1-5.533 2.431c2.493-.73 4.085-3.547 3.034-6.18a4.531 4.531 0 0 0-2.221-2.438c2.563.592 4.892 2.206 6.27 4.465a10.147 10.147 0 0 1-1.55 1.72v.002Zm1.652-20.553c.143-.533.34-1.074.55-1.587.577-1.477 1.543-2.765 2.56-3.975.014-.021.032-.039.05-.058 1.135-.958 2.354-1.808 3.696-2.455 1.78-.898 3.686-1.595 5.683-1.734.545.027 1.14.053 1.67.1.78.098 1.57.197 2.313.457.42.168.82.38 1.219.596 1.645.81 2.959 2.153 3.959 3.655 1.427 2.637 1.524 4.581.486 7.373-.47 1.105-1 2.19-1.623 3.219-.06.06-.112.133-.158.199-.51.61-1.143 1.105-1.814 1.525a6.505 6.505 0 0 1-1.782.88c-.642.208-1.289.367-1.958.476-.193.067-.645.025-.892.15l-.234.005c-3.361.077-6.732.486-9.98 1.372-.879.27-1.764.528-2.63.836a.31.31 0 0 0-.106.02 5.45 5.45 0 0 0-.42.169c-.063.02-.126.04-.188.063a.287.287 0 0 0-.109.034 10.77 10.77 0 0 1-.661.227c-.11 0-.223.007-.327-.032a.414.414 0 0 1-.143-.226c.105-.282.371-.475.558-.705a.485.485 0 0 0 .143-.157c.761-.731 1.533-1.452 2.281-2.196 1.367-1.275 2.784-2.496 4.177-3.743 1.679-1.463 3.414-2.828 5.204-4.163.196-.163.06-.508-.187-.51-.104-.008-.188.053-.263.119-.374.306-.784.566-1.17.858-1.627 1.29-3.257 2.594-4.805 3.985-1.856 1.642-3.688 3.303-5.452 5.044a8.364 8.364 0 0 0-.65.641c-.153.133-.301.27-.459.394-.389.294-.685-.233-.716-.608.02-.116.045-.233.06-.353.026-.1.054-.207.055-.304.298-.848.548-1.711.812-2.569.604-2.215.985-4.488 1.191-6.774.02-.091.037-.18.065-.25l-.005.002Zm-21.034-9.645c.282-1.568.776-3.094 1.372-4.572 1.239-2.71 2.68-4.015 5.552-4.87 1.769-.355 3.647-.377 5.382.217.434.13.866.262 1.282.44.71.34 1.34.832 1.96 1.314.407.34.846.742 1.25 1.11 1.316 1.51 2.169 3.353 2.795 5.247.846 2.429 1.014 5.03.975 7.586-.02 1.105-.08 2.21-.18 3.309v.003c-.035.12-.066.265-.034.381a42.132 42.132 0 0 1-.573 3.905c-.27 1.48-.677 2.936-1.162 4.361-.007.008-.016.013-.022.022-.08.126-.12.261-.196.406-.112.24-.268.538-.462.737-.454.588-.925.489-1.548.4a9.161 9.161 0 0 0-2.31-.711 4.799 4.799 0 0 0-.768-.235c-.19-.069-.315-.163-.504-.256-.857-.36-1.148-1.642-1.33-2.472a.263.263 0 0 0-.022-.06c-.091-.534-.18-1.069-.284-1.605-.418-2.38-.764-4.774-1.044-7.175-.093-1.249-.275-2.488-.345-3.737-.007-.95.036-1.903.106-2.85.045-.23.067-.43-.215-.509-.33-.051-.374.327-.383.572-.122 1.577-.148 3.16.074 4.73.127 1.229.218 2.463.411 3.685.244 2.057.59 4.12.954 6.17.027.142.052.285.078.43-.003.012-.007.023-.008.035.063.802.349 1.626.032 2.416-.155.582-.725.905-1.186 1.232-.007.005-.013.009-.02.012a8.651 8.651 0 0 0-1.773.865c-.476.184-.944.433-1.473.377-.803-.188-1.265-.913-1.682-1.572-.31-.553-.611-1.11-.9-1.675-1.268-2.644-2.374-5.373-3.14-8.21-.303-1.282-.586-2.573-.76-3.879a24.1 24.1 0 0 1 .106-5.574h-.005ZM9.003 27.102c-.698-1.11-1.284-2.291-1.798-3.5-1.039-2.792-.941-4.736.486-7.373 1-1.503 2.312-2.847 3.958-3.655.4-.215.799-.427 1.22-.595.744-.261 1.534-.36 2.312-.457.529-.047 1.124-.074 1.67-.1 1.78.123 3.487.69 5.097 1.448a.66.66 0 0 0 .18.102c1.82.937 2.583 2.202 3.17 4.114 0 .003.005.007.007.01a30.823 30.823 0 0 0 1.354 5.259 45.23 45.23 0 0 0 2.883 6.733.314.314 0 0 0 .07.222c.037.056.072.112.108.17l.003.012.011.028a.55.55 0 0 0 .024.08c.04.183.003.427-.21.427-.216-.07-.373-.382-.566-.54-.336-.37-.68-.732-1.04-1.08-1.09-1.092-2.353-2.083-3.573-3.04-1.692-1.428-3.56-2.66-5.48-3.774-.31-.14-.964-.712-1.19-.217-.104.375.342.39.567.54a47.85 47.85 0 0 1 3.844 2.435c.92.654 1.78 1.403 2.676 2.099a28.008 28.008 0 0 1 3.747 3.426c.044.078.104.152.162.215.262.35.735.882.147 1.196a1.867 1.867 0 0 0-.586-.137h-.046c-.422-.131-.848-.258-1.27-.39-3.248-.885-6.62-1.295-9.982-1.372a30.876 30.876 0 0 0-3.404.086.954.954 0 0 0-.143-.006c-.368-.02-.773-.03-1.156-.12-1.35-.259-2.37-1.248-3.25-2.243l-.002-.003Zm1.277 23.45c-1.567-.282-3.092-.776-4.569-1.373-2.707-1.24-4.011-2.683-4.866-5.557-.354-1.77-.377-3.65.217-5.386.13-.434.262-.866.44-1.283.34-.71.83-1.34 1.312-1.96.34-.409.743-.848 1.11-1.254 1.509-1.316 3.35-2.17 5.242-2.795 1.385-.484 2.826-.746 4.283-.875.052.002.103.005.156.006a.258.258 0 0 0 .184-.034c.984-.073 1.974-.09 2.958-.073a43.21 43.21 0 0 1 7.591.788 29.46 29.46 0 0 1 3.53.893.314.314 0 0 0 .142.073l.109.007.07.024c.411.218.86.371 1.271.59.436.197.947.406 1.134.885.071.318-.09.641-.13.957a1.191 1.191 0 0 0-.09.364 8.692 8.692 0 0 0-.738 2.35c-.086.115-.15.272-.214.38-.14.241-.331.425-.577.56-.502.215-1.065.21-1.601.19a.39.39 0 0 0-.116.017l-.158-.014a.32.32 0 0 0-.175.028c-3.508-.111-7.02.424-10.514.711-1.88.143-3.77.261-5.611.69-.325.071-.65.134-.978.192-.25.047-.297.416-.082.538.07.043.147.048.225.034.327-.06.652-.123.978-.193a20.37 20.37 0 0 1 1.953-.345c1.549-.217 3.116-.276 4.673-.417 2.172-.223 4.341-.48 6.522-.602 1.21-.017 2.427-.044 3.637.02.187.029.374.061.56.09.716.123 1.173.496 1.497 1.074a9.154 9.154 0 0 0 1.303 3.34c.015.084.046.17.075.243.053.277.173.557.115.841-.23.671-.878 1.104-1.446 1.48a8.758 8.758 0 0 1-.479.288c-.126.087-.293.132-.409.239-.295.159-.59.316-.89.47-2.642 1.269-5.37 2.376-8.203 3.142-1.28.304-2.571.587-3.876.76-1.844.182-3.73.145-5.57-.105l.005.003Zm15.338 14.053c-.022.096-.026.2-.026.289-.189 2.327-.747 3.459-2.859 4.573-.085.039-.19.09-.275.157-2.647.933-4.551.8-7.099-.581-1.502-1.001-2.845-2.314-3.652-3.962-.215-.4-.427-.799-.597-1.22-.26-.743-.359-1.536-.456-2.315-.047-.529-.074-1.124-.1-1.671.134-1.941.796-3.795 1.655-5.532a.384.384 0 0 0 .091-.141c.17-.267.37-.514.573-.756 1.256-1.433 2.902-1.909 4.666-2.403.13-.037.324-.065.453-.146 1.479-.29 2.934-.7 4.339-1.192a45.093 45.093 0 0 0 6.63-2.833.345.345 0 0 0 .083.018h-.017c.073.012.15.025.227.012.041.017.083.03.115.064-.099.227-.358.34-.523.515a.333.333 0 0 0-.104.087c-.717.564-1.38 1.2-1.991 1.882-1.293 1.346-2.588 2.712-3.617 4.276-.474.663-1.028 1.356-1.486 2.046-.15.296-.725.812-.262 1.07.144.065.313-.01.383-.152.135-.258.304-.5.468-.74.505-.747 1.115-1.465 1.608-2.23.953-1.349 2.105-2.585 3.25-3.776a15.444 15.444 0 0 1 2.419-2.217.718.718 0 0 0 .24-.108c.134-.05.287-.153.431-.115.025.015.058.031.065.067.032.109.059.214.053.327a.398.398 0 0 0 0 .345c0 .004-.003.009-.005.013a45.27 45.27 0 0 0-3.02 6.992c-1.043 2.982-1.716 6.188-1.66 9.363v-.006Zm20.406 3.811c-.624 1.894-1.478 3.737-2.794 5.248-.404.367-.843.769-1.251 1.11-.62.481-1.25.972-1.96 1.313-.416.178-.849.31-1.282.44-1.735.593-3.612.572-5.381.217-2.872-.855-4.314-2.16-5.552-4.87-.595-1.477-1.09-3.004-1.373-4.572a24.087 24.087 0 0 1-.106-5.574c.174-1.306.457-2.597.76-3.88.767-2.835 1.872-5.567 3.14-8.21.203-.396.412-.788.624-1.177.11-.139.192-.327.28-.445.17-.3.352-.542.564-.825.653-.783.99-1.404 2.137-1.138.049.026.1.038.152.04.539.313 1.12.573 1.738.767a.296.296 0 0 0 .111.087c.788.304.96.995.881 1.773-.032.48-.069.936-.109 1.412l-.048.306a45.286 45.286 0 0 0-.388 3.705c-.313 3.608-.263 7.235-.168 10.85.006.162.168.282.321.268.167-.016.271-.161.267-.322-.015-.45-.03-.899-.043-1.35-.026-3.144-.076-6.314.217-9.452.085-1.275.21-2.547.41-3.809l.011-.067c.074-.167.087-.397.131-.549.109-.486.308-1.039.594-1.466.505-.68 1.346-.82 2.12-1.057a.261.261 0 0 0 .105-.066 8.712 8.712 0 0 0 1.736-.528c.145.009.315-.046.442-.088 1.688-.7 1.988.46 2.517 1.771.009.014.019.025.03.036.57 1.602 1.05 3.242 1.356 4.915.49 2.506.745 5.047.788 7.598.038 2.556-.128 5.159-.975 7.586l-.002.003Zm4.16-.735-.179-.14a4.01 4.01 0 0 1-.02-.02 3.173 3.173 0 0 1-.403-.388 7.988 7.988 0 0 1-1.151-1.793c-.558-1.19-.553-2.542-.79-3.816a.573.573 0 0 0-.047-.222 25.985 25.985 0 0 0-.012-.68c-.076-3.363-.486-6.737-1.37-9.989-.301-.975-.585-1.963-.94-2.92-.018-.072-.04-.14-.06-.2-.086-.317-.235-.757-.282-1.179a.259.259 0 0 0 .009-.068c.056-.132.182-.238.288-.336.53.07.939.513 1.352.818l-.03-.02c.014.011.029.022.045.03.274.258.545.543.813.807.76.727 1.482 1.486 2.167 2.284.63.693 1.291 1.356 1.857 2.105a60.408 60.408 0 0 1 4.219 6.282c.197.339.695.041.514-.287-.17-.294-.34-.584-.52-.871-1.147-1.853-2.342-3.674-3.679-5.394-.962-1.235-2.073-2.343-3.11-3.515-.61-.598-1.206-1.211-1.823-1.802a.337.337 0 0 0-.055-.06c-.234-.23-.446-.478-.664-.725-.07-.08-.171-.225-.152-.345.164-.045.327-.025.498.014.038.009.072.01.106.007a45.362 45.362 0 0 0 8.431 3.83c1.071.374 2.17.701 3.286.963.007.003.012.008.02.01 1.853.568 3.5 1.63 4.903 2.959.613.616 1.112 1.313 1.63 2.009.794 1.658 1.397 3.42 1.523 5.263-.026.547-.053 1.142-.1 1.672-.097.78-.196 1.57-.456 2.314-.168.421-.38.82-.595 1.22-.807 1.646-2.152 2.961-3.653 3.962-2.633 1.427-4.577 1.525-7.366.486-1.465-.623-2.893-1.353-4.2-2.26l-.003-.005Zm-3.242-21.4.013.009.02.018c-.008-.008-.017-.014-.027-.021l-.006-.005Zm-4.787 51.456c.008-.009.017-.016.023-.025-.008.01-.015.018-.024.026l.001-.001ZM21.637 81.341c.693.327 1.345.63 1.966.917-.044.15-.003.348-.038.5-.048 1.219.172 2.43.284 3.642.08.378.64.27.58-.112-.105-1.225-.353-2.453-.258-3.687.005-.023.008-.05.011-.075.252.117.501.233.742.347.003.103.029.216.037.316.07.724.146 1.46.171 2.201.108.797.184 1.6.25 2.403.383 2.424.809 4.844 1.286 7.253.707 3.443 1.5 6.877 2.748 10.167-1.209-.612-2.365-1.3-3.521-2.031a38.457 38.457 0 0 1-5.059-3.611c-.044-.145-.115-.295-.144-.416-.125-.374-.245-.75-.358-1.13a50.512 50.512 0 0 1-1.06-3.937c-.846-3.693-1.475-7.438-2.204-11.155-.188-.889-.391-1.775-.541-2.67-.152-.671-.319-1.318-.383-2.014a52.032 52.032 0 0 0 5.49 3.094l.001-.002ZM9.704 74.317c.044-.662.224-1.296.43-1.924.54.964 1.29 1.81 2.028 2.626.997 1.06 2.103 2.02 3.33 2.805a.291.291 0 0 0 .036.182c.064.68.165 1.356.348 2.014.12.515.2 1.124.323 1.659.42 1.776.698 3.58 1.045 5.37.763 3.948 1.483 7.917 2.709 11.75a34.228 34.228 0 0 1-5.236-5.913c-2.84-3.9-4.349-7.182-4.973-12.01-.25-2.175-.494-4.394-.04-6.561v.002ZM8.579 95.22c1.353.565 2.708 1.186 4.175 1.383.08.01.163.026.246.013.29-.046.315-.491.034-.57-.25-.036-.503-.071-.751-.127-1.3-.242-2.47-.873-3.703-1.32-.1-.047-.215-.114-.325-.147a.313.313 0 0 0-.071-.013 16.262 16.262 0 0 1-.716-1.761c-1.1-3.262-1.774-6.736-1.316-10.191.095-1.677.652-3.266 1.115-4.867.12-.355.28-.693.415-1.042.22-.705.39-1.42.683-2.103.271-.482.61-.926.94-1.371-.112.473-.165.958-.233 1.441-.059.283-.128.563-.15.852-.137 1.884.006 3.787.253 5.659.582 4.51 2.07 8.066 4.76 11.723a34.305 34.305 0 0 0 5.47 6.316c-2.427-.339-4.813-.996-7.108-1.856-1.159-.387-2.318-.803-3.378-1.413-.116-.202-.23-.404-.34-.609v.003Zm11.22 11.228a.42.42 0 0 0-.067-.007 15.024 15.024 0 0 1-.837-.385c.221-.04.444-.078.666-.109a20.87 20.87 0 0 0 1.627-.287c.177.022.37-.025.413-.224.061-.459-.513-.389-.8-.299-.421.098-.85.154-1.277.219-.44.065-.878.143-1.315.224a.617.617 0 0 0-.166.021 14.63 14.63 0 0 1-2.15-1.518c-1.71-1.515-3.338-3.15-4.72-4.978a31.344 31.344 0 0 1-1.66-2.303c.864.405 1.776.717 2.677 1.024 2.57.954 5.249 1.682 7.98 1.948l.152.129c.037.072.1.123.175.149a39.676 39.676 0 0 0 5.319 3.767 39.819 39.819 0 0 0 3.113 1.802c-.636.164-1.283.309-1.935.365-1.458.081-2.877.395-4.334.484-.955-.053-1.908.042-2.86-.022Zm18.47 2.282a5.368 5.368 0 0 1-.96.491.933.933 0 0 0-.227.094 5.487 5.487 0 0 0-.678.047c-3.913.213-7.854-.268-11.63-1.32-1.21-.332-2.335-.633-3.41-.989.452-.012.904-.025 1.354.007 1.024-.06 2.034-.253 3.05-.368.594-.084 1.223-.098 1.82-.174.607-.115 1.211-.263 1.814-.4.104-.029.216-.056.32-.1 1.662.803 3.392 1.462 5.189 1.897.738.138 1.454.373 2.196.486.47.071.942.133 1.414.198-.086.043-.171.087-.254.131h.002Zm.268-.783c-.231-.467-.465-.936-.669-1.416-.315-.78-.63-1.568-.798-2.395-.072-.268-.105-.786-.504-.677-.244.086-.216.339-.135.535.283 1.37.82 2.668 1.434 3.919a52.666 52.666 0 0 1-.875-.128c-2.132-.441-4.245-1.012-6.226-1.934a24.989 24.989 0 0 1-.585-.266c-.02-.158-.101-.333-.154-.462-.092-.237-.183-.455-.268-.697-.626-1.651-1.079-3.36-1.523-5.067-.908-3.622-1.535-7.326-2.177-11.004-.158-.995-.18-2.005-.336-3a31.911 31.911 0 0 0-.163-2.12c0-.02-.003-.042-.005-.063 3.127 1.498 5.54 2.935 8.524 6.269.205.224.407.45.606.682a.303.303 0 0 0 .004.15c.21 1.012.177 2.042.35 3.07.282 1.699.606 3.39 1.104 5.041.5 1.768.908 3.563 1.517 5.298.506 1.49 1.084 2.951 1.643 4.435a62.702 62.702 0 0 0-.74-.102.223.223 0 0 0-.023-.06l-.001-.008Zm1.477 1.115c-.454.091-.915.109-1.374.137.287-.151.595-.28.851-.466.336.049.67.1 1.005.158-.158.066-.317.135-.482.171Zm1.237-.628c-.009-.002-.016-.005-.025-.006-.42-.084-.84-.155-1.264-.22v-.006c-.592-1.606-1.223-3.148-1.774-4.79-.604-1.749-1.018-3.553-1.522-5.333-.689-2.325-1.079-4.698-1.29-7.116a31.122 31.122 0 0 1 2.899 4.335c.956 1.664 1.788 3.418 2.293 5.28.34 1.207.515 2.448.546 3.702.036.572.07 1.144.133 1.713.025.814.006 1.629.004 2.442v-.001Zm1.102-6.239c-.68-.364-.744-1.315-.775-2.009-.015-.87.336-1.69.617-2.503v-.003a.257.257 0 0 0 .035-.11l.023-.045c.397-.92.955-1.758 1.46-2.622.684-1.107 1.355-2.218 2.043-3.323 1.773-2.82 3.62-5.604 4.937-8.679.676-1.442 1.109-2.983 1.512-4.52.607-2.114.978-4.294.947-6.498a.303.303 0 0 0 .037-.104c.013-.108-.007-.165 0-.292.022-.193.163-.35.278-.497.35-.352.968-.178 1.333.073.39.322.482.82.551 1.304.006.91-.024 1.822-.077 2.731-.302 4.547-2.422 8.711-4.646 12.605-.598.992-1.156 2.008-1.782 2.982a90.549 90.549 0 0 0-2.826 4.66c-1.02 1.751-1.857 3.607-2.68 5.458-.13.351-.257.702-.382 1.056a.319.319 0 0 0-.049.059c-.103.098-.23.175-.344.263-.072.03-.128.015-.214.011l.002.003Zm16.078-8.757-8.103 7.271-4.544 4.077c-.178.022-.296.211-.43.323a8.824 8.824 0 0 1-.85.738.461.461 0 0 0-.23.156 3.21 3.21 0 0 1-.28.162c-.395.149-.842.3-1.264.189-.01-.009-.018-.016-.027-.027a7.694 7.694 0 0 1-.091-.176 2.006 2.006 0 0 1 .03-.51c.16-.966.46-1.95 1.05-2.746.128-.151.39-.336.446-.532 1.646-1.479 3.293-2.956 4.94-4.434 1.83-1.645 3.66-3.285 5.491-4.929.652-.586 1.306-1.173 1.96-1.758.147.009.293.034.44.046.476.087.852.383 1.102.77-.154.111-.281.309-.424.41-.783.662-1.548 1.381-2.31 2.079-.599.427-1.079.981-1.612 1.484-.2.253-.83.536-.542.913.106.114.303.129.417.015.28-.278.582-.536.86-.816.43-.473.916-.883 1.415-1.281a49.373 49.373 0 0 1 2.117-1.907c.111-.117.23-.219.343-.326.078.26.112.534.096.799V93.439Zm4.228-1.677c-.35.665-.956 1.267-1.704 1.443-.35.02-.628-.212-.843-.462-.297-.296-.558-.626-.85-.928-.45-.526-.976-1.038-1.455-1.545-.294-.306-.589-.613-.889-.915-.08-.089-.166-.19-.292-.2l-.005-.005c-.24-.22-.07-.591.054-.833.325-.389.686-.809 1.166-1.006 1.124-.416 1.933.735 2.663 1.398.414.385.809.786 1.21 1.18.503.484 1.238 1.084.946 1.873h-.001Zm1.425-3.398c-.147.133-.294.266-.443.398a.311.311 0 0 0-.094.033c-.13.082-.29.088-.419.177-.213.03-.432.069-.65.065-.273-.071-.553-.16-.763-.354-.104-.12-.189-.255-.29-.378-.398-.629-.333-1.048.164-1.597.05-.058.115-.093.161-.15 1.645-1.478 3.291-2.953 4.936-4.43 1.414-1.269 2.828-2.536 4.24-3.805.018-.01.036-.022.053-.033.588-.44 1.27-.087 1.663.432.477.53.73 1.083.204 1.692l-.027.032a.273.273 0 0 0-.062.135c-1.141 1.024-2.283 2.047-3.422 3.071l-5.25 4.712Zm16.666 8.238c-1.567 1.408-3.137 2.814-4.704 4.221a17.746 17.746 0 0 1-.678-.661c-.745-.746-1.36-1.608-2.101-2.357.718-.238 1.714-.921 1.925-1.113.667-.458 1.097-1.157 1.402-1.892.483-1.206-.087-2.676-1.27-3.222-.398-.247-.88-.15-1.3-.012-.934.283-1.55 1.104-2.097 1.864a91.561 91.561 0 0 1-2.067-2.274c.221-.093.435-.208.638-.335 1.33-.775.84-2.4.054-3.4a2.902 2.902 0 0 0-.757-.789.298.298 0 0 0-.075-.125c-.484-.454-.858-.701-.577-1.437.555-1.05 1.542-1.824 2.543-2.429 1.034-.641 2.469-1.153 3.567-.382a.38.38 0 0 0 .124.079c1.177 1.213 2.36 2.418 3.533 3.636.511.49 1.049.956 1.52 1.487 1.138 1.409 2.37 2.743 3.613 4.06.37.388.783.698 1.114 1.127l-4.409 3.957.002-.003Z"/><path fill="#000" d="M53.288 80.115c.143.059.333-.007.384-.16.152-.42.256-.856.371-1.289.286-.996.488-2.02.56-3.055.019-.301.025-.602.034-.903-.018-.312.142-.916-.311-.957a.3.3 0 0 0-.28.38c.077 1.89-.339 3.757-.903 5.55-.076.158-.03.365.143.432l.002.002ZM52.922 81.677c.16 0 .294-.138.292-.298a.298.298 0 0 0-.297-.291.298.298 0 0 0-.292.297.298.298 0 0 0 .297.292ZM44.083 96.427c.342.128.421-.273.533-.501.17-.32.343-.639.519-.956.262-.47.523-.943.864-1.361.19-.211.414-.634.027-.767a.3.3 0 0 0-.366.221c-.347.473-.684.952-.957 1.476-.203.358-.4.72-.595 1.085-.109.244-.377.636-.025.803ZM43.495 97.86c.161 0 .294-.14.292-.298a.298.298 0 0 0-.297-.292.297.297 0 0 0-.292.297.298.298 0 0 0 .297.292ZM58.51 88.445c-.227-.212-.726-.536-.851-.06-.028.155.084.302.234.336.287.203.574.424.807.69.238.306.696-.03.477-.345-.187-.242-.43-.43-.667-.62ZM59.884 90.17a.298.298 0 0 0-.3.289c-.004.157.128.3.288.3.16 0 .298-.125.3-.288a.297.297 0 0 0-.288-.301ZM74.962 78.937c.19.336.692.067.518-.28-.115-.23-.29-.414-.45-.613-.179-.183-.465-.707-.788-.432-.283.29.14.544.301.767.124.157.32.364.419.558ZM73.617 77.242c.16 0 .298-.125.3-.289a.297.297 0 0 0-.288-.3.298.298 0 0 0-.3.288c-.003.158.128.301.288.301ZM71.364 80.227c-.18-.15-.389-.024-.505.137-.302.295-.62.585-.916.887-.52.534-1.039 1.069-1.601 1.558-.544.453-1.081.908-1.529 1.46-.107.122-.08.316.04.416.353.251.573-.278.801-.471.371-.413.835-.72 1.236-1.101.86-.802 1.673-1.653 2.514-2.472.107-.12.08-.315-.04-.416v.002ZM65.93 85.195a.297.297 0 0 0-.3.29c-.004.157.127.3.288.3.16 0 .297-.125.3-.289a.298.298 0 0 0-.288-.3ZM52.429 97.239a.297.297 0 0 0-.3.289c-.003.157.128.3.288.3.16 0 .298-.125.3-.288a.298.298 0 0 0-.288-.301ZM76.197 84.35c-.107-.15-.225-.365-.445-.314-.23.04-.33.358-.14.512.895 1.157 1.992 2.142 2.877 3.308.26.284.69-.105.439-.394-.841-1.095-1.847-2.048-2.73-3.111ZM79.505 88.336c-.453.01-.392.634.056.596.454-.009.393-.635-.056-.596ZM77.667 92.46c-.17.083-.205.3-.106.451.381 1.042.17 2.183-.37 3.127-.203.258-.416.508-.618.767-.165.2-.479.428-.21.686.388.315.794-.559 1.048-.787.434-.445.611-1.05.802-1.626.173-.551.17-1.144.071-1.71-.094-.315-.118-1.089-.617-.91v.002ZM75.673 97.725c-.16 0-.284.16-.276.313a.3.3 0 0 0 .102.205c.06.051.133.07.21.07.161 0 .285-.159.276-.312a.299.299 0 0 0-.102-.205.312.312 0 0 0-.21-.07ZM24.213 87.952c.16 0 .284-.16.275-.313a.3.3 0 0 0-.101-.205.312.312 0 0 0-.21-.07c-.161 0-.285.159-.276.312a.3.3 0 0 0 .102.205c.06.052.132.07.21.07ZM29.161 98.237c-.094-.385-.197-.767-.294-1.15-.373-1.707-.635-3.44-.857-5.172-.083-.379-.644-.267-.579.113.077.811.216 1.614.365 2.415.156 1.317.442 2.625.788 3.906.088.381.647.263.579-.112h-.002ZM29.14 99.224c-.161 0-.285.16-.276.313a.3.3 0 0 0 .102.205c.06.051.132.07.21.07.16 0 .284-.159.276-.312a.299.299 0 0 0-.102-.205.312.312 0 0 0-.21-.07ZM35.993 102.182c-.16 0-.284.16-.275.313a.3.3 0 0 0 .102.205c.06.051.132.07.21.07.16 0 .284-.159.276-.312a.3.3 0 0 0-.102-.205.315.315 0 0 0-.21-.071ZM15.458 84.945c.249 1.027.521 2.055.792 3.083.091.38.648.26.577-.116-.274-1.05-.542-2.039-.796-3.107-.106-.39-.162-.79-.248-1.185-.04-.155-.184-.264-.347-.232-.152.031-.271.192-.232.348.084.403.15.81.254 1.209ZM16.531 88.73a.298.298 0 0 0-.095.2c-.01.154.116.313.276.313.082 0 .155-.02.215-.077a.298.298 0 0 0 .096-.2c.01-.154-.116-.313-.277-.313a.302.302 0 0 0-.215.077ZM14.076 96.919c.081 0 .155-.02.215-.077a.297.297 0 0 0 .096-.2c.01-.153-.116-.313-.277-.313a.303.303 0 0 0-.215.077.298.298 0 0 0-.096.2c-.01.154.117.313.277.313ZM22.51 105.454c.16 0 .286-.154.279-.309-.009-.167-.149-.28-.31-.28-.16 0-.287.155-.28.309.01.167.15.28.31.28ZM45.23 58.176c.311 2.86.173 5.783-.608 8.563-.247.806-.51 1.629-.89 2.383-.101.3-.602.8-.204 1.04.368.167.473-.316.613-.553.353-.641.603-1.331.832-2.024 1.011-3.075 1.193-6.375.83-9.576-.106-.417-.679-.242-.571.165l-.002.002ZM42.892 70.76c-.161 0-.288.156-.279.31.01.167.15.28.311.28.16 0 .287-.157.278-.311-.008-.167-.15-.28-.31-.28ZM60.837 52.852c.347.438.765.808 1.162 1.197 1.078 1.211 1.964 2.654 2.22 4.278.03.16.19.264.345.235a.298.298 0 0 0 .234-.345 8.009 8.009 0 0 0-.84-2.438 11.742 11.742 0 0 0-1.616-2.221c-.333-.332-.69-.631-.984-1.002-.07-.087-.156-.202-.27-.24-.335-.114-.546.347-.253.534l.002.002ZM64.529 59.891c-.16 0-.287.157-.278.311.008.167.15.279.31.279s.287-.156.279-.311c-.01-.167-.15-.279-.311-.279ZM59.32 30.674c-.972-.043-1.947.012-2.916.096-.896.103-1.795.113-2.678.318-.259.022-.653.093-.549.447.053.151.236.241.385.176.394-.06.779-.135 1.206-.209 1.74-.127 3.47-.371 5.222-.189.16.012.3-.125.308-.281-.01-.454-.67-.293-.978-.358ZM60.924 31.374c-.006.155.12.308.281.308a.3.3 0 0 0 .308-.282c.006-.154-.121-.308-.282-.308a.3.3 0 0 0-.307.282ZM58.738 11.788c1.832-.137 3.73.195 5.337 1.106a.298.298 0 0 0 .41-.08c.23-.424-.413-.563-.684-.722-.393-.17-.786-.343-1.19-.486-.784-.22-1.599-.347-2.412-.418-.596-.013-1.228-.085-1.804.089-.147.063-.205.253-.137.393.093.2.306.176.48.118ZM65.496 14.359c.079 0 .15-.018.211-.07a.3.3 0 0 0 .103-.206c.01-.153-.115-.312-.275-.312a.305.305 0 0 0-.21.07.3.3 0 0 0-.104.206c-.01.153.115.312.275.312ZM27.433 18.144a.292.292 0 0 0 .373-.4c-.07-.213-.108-.39-.158-.616-.27-1.1-.16-2.24-.16-3.363.021-.522.04-1.079.129-1.602.069-.388.145-.773.254-1.151.045-.155-.067-.319-.218-.356a.3.3 0 0 0-.354.219c-.444 1.47-.405 3.018-.416 4.538a6.923 6.923 0 0 0 .198 1.866c.09.24.076.73.354.863l-.002.002ZM28.027 10.015c.16 0 .29-.147.286-.303a.3.3 0 0 0-.303-.286c-.16 0-.29.147-.286.303a.3.3 0 0 0 .303.286ZM8.84 22.824a28.923 28.923 0 0 1-.208-.8.298.298 0 0 0-.354-.22.3.3 0 0 0-.22.353c.142.668.359 1.306.672 1.927.258.601.529 1.233.87 1.8.198.337.696.06.52-.28-.505-.892-.904-1.808-1.282-2.78h.001ZM8.437 20.66c.171-.16.068-.385-.08-.519-.104-.122-.304-.116-.416-.009-.17.162-.068.386.08.519.105.12.304.116.416.009ZM15.608 48.78c1.244.107 2.49.011 3.729-.117.614-.041 1.203-.218 1.795-.376.295-.094.633-.118.882-.315a.298.298 0 0 0 .01-.418c-.14-.151-.32-.076-.47.006-.57.162-1.146.316-1.724.448-.824.117-1.658.17-2.49.223-.576.024-1.152-.009-1.726-.041-.16-.01-.296.138-.298.292-.001.168.131.287.292.297ZM13.869 48.036c-.096-.384-.772-.222-.669.166.097.384.772.222.669-.166ZM12.235 60.3c-.017-.31.136-.957-.32-.98-.425.042-.233.536-.261.82-.19 1.508.268 2.99.796 4.387.093.236.464.22.542-.018.06-.174-.048-.302-.1-.47-.406-1.165-.822-2.473-.657-3.74ZM13.727 65.533c-.16 0-.288.15-.284.305a.3.3 0 0 0 .305.285c.159 0 .289-.15.284-.305a.3.3 0 0 0-.305-.285ZM20.705 57.744c-.16 0-.289.15-.284.305a.3.3 0 0 0 .305.284c.159 0 .288-.15.284-.305a.3.3 0 0 0-.305-.284ZM16.58 21.143c.16 0 .289-.15.284-.305a.3.3 0 0 0-.305-.284c-.159 0-.288.15-.284.305a.3.3 0 0 0 .305.284ZM59.033 18.775c-.16 0-.289.15-.285.305a.3.3 0 0 0 .305.284c.16 0 .289-.15.285-.305a.3.3 0 0 0-.305-.284ZM56.44 60.047c.161 0 .29-.15.285-.305a.3.3 0 0 0-.305-.284c-.159 0-.289.15-.284.305a.3.3 0 0 0 .305.285Z"/></g><defs><clipPath id="a"><path fill="#fff" d="M0 0h85.833v110H0z"/></clipPath></defs></svg>