<svg width="87" height="93" viewBox="0 0 87 93" fill="none" xmlns="http://www.w3.org/2000/svg">
<g clip-path="url(#clip0_2217_6389)">
<path d="M23.6269 74.5517C23.5496 73.2641 23.7536 71.9993 23.8556 70.7264C23.8375 70.6888 23.8227 70.648 23.8161 70.6006C23.7701 70.2738 23.4888 70.0336 23.2437 69.8375C22.6301 69.6561 21.9672 69.6904 21.3388 69.7689C20.8897 69.8179 20.5508 70.1251 20.2843 70.4584C20.2383 70.5026 20.2185 70.5614 20.1971 70.6186C20.1725 70.6807 20.1281 70.7281 20.0754 70.7656C20.0705 70.849 20.0672 70.9323 20.0688 71.0156C19.9915 72.0124 20.1001 72.9896 20.0606 73.9814C20.0343 75.6089 20.1823 77.2364 20.2745 78.8558C21.398 78.8035 22.5215 78.7823 23.6467 78.7806C23.6138 77.3704 23.6401 75.9619 23.6286 74.5517H23.6269Z" fill="white"/>
<path d="M27.9879 78.913C27.9731 78.645 27.9583 78.3771 27.9402 78.1107C27.8185 76.5845 27.6886 75.0583 27.6063 73.5305C27.6129 72.604 27.6228 71.6775 27.631 70.7526C27.5504 70.6709 27.506 70.5549 27.5273 70.434C27.478 70.2183 27.404 70.001 27.251 69.8343C26.7493 69.5434 26.111 69.6627 25.583 69.7869C25.152 69.9258 24.8658 70.2787 24.6536 70.6578C24.6371 70.684 24.619 70.7052 24.5993 70.7248C24.5516 71.349 24.4742 71.9716 24.4068 72.5925C24.3426 73.3377 24.3575 74.0779 24.3706 74.823C24.3673 76.1384 24.3575 77.4636 24.3838 78.7807C24.8526 78.7823 25.3198 78.7872 25.7886 78.7937C26.5223 78.8215 27.2526 78.8967 27.9879 78.9114V78.913Z" fill="white"/>
<path d="M19.5638 79.6301C19.1525 79.6563 18.7413 79.6841 18.33 79.7118C17.8875 79.7461 17.5503 79.8376 17.1374 79.8997C16.9696 79.9095 16.8051 79.9079 16.6406 79.9308C16.6456 80.2576 16.6521 80.5844 16.6637 80.9129C16.7525 82.9799 16.7722 85.0535 16.8841 87.0993C16.8841 87.1222 16.8841 87.1451 16.8857 87.1663C16.9186 87.2023 16.9449 87.248 16.963 87.3036C17.065 87.619 17.1884 87.9213 17.3743 88.1991C17.4911 88.3461 17.5733 88.5471 17.7444 88.6386C18.4879 89.0095 19.4239 88.4033 19.6345 87.6647C19.646 87.5552 19.6921 87.4752 19.7562 87.4212C19.7398 86.4735 19.7332 85.5323 19.7135 84.5698C19.7019 82.9407 19.6444 81.2707 19.5638 79.6301Z" fill="white"/>
<path d="M23.6647 79.5159C22.9392 79.5191 22.2138 79.5322 21.4949 79.5371C21.1001 79.5469 20.7053 79.5649 20.3105 79.5861C20.3122 79.6303 20.3155 79.676 20.3171 79.7201C20.3912 81.8133 20.4668 83.8935 20.48 85.9851C20.475 86.5259 20.48 87.0652 20.4948 87.6044C20.5293 87.655 20.5524 87.7171 20.5573 87.7939C20.5573 87.9132 20.5803 88.0292 20.6083 88.1453C20.684 88.3855 20.73 88.6632 20.9291 88.8381C21.439 89.1878 22.1184 89.3038 22.7221 89.1829C23.3538 89.0276 23.7831 88.5047 24.0529 87.9524C24.0414 87.1305 24.0299 86.3168 23.9739 85.5046C23.8966 83.4948 23.7321 81.511 23.668 79.5175L23.6647 79.5159Z" fill="white"/>
<path d="M2.80954 55.314C1.99691 56.1914 1.2616 57.1408 0.820748 58.2536C0.715469 58.5755 0.699019 58.984 0.850358 59.2863C1.01157 59.5952 1.15797 59.9399 1.51493 60.0641C2.25518 60.3746 3.17637 60.386 4.03834 60.2733C4.05808 60.2047 4.08769 60.136 4.12223 60.0756C4.22751 59.7831 4.19297 59.4595 4.17981 59.1556C4.13868 58.4072 3.73402 55.5395 2.80954 55.314Z" fill="#C7F182"/>
<path d="M16.9912 79.176C17.4896 79.1025 17.9864 78.9848 18.4898 78.9669C18.8352 78.9391 19.179 78.9178 19.5245 78.8966C19.5064 78.5633 19.4899 78.2283 19.4702 77.8982C19.429 76.5338 19.2596 75.1775 19.3238 73.8098C19.3484 73.1856 19.2925 72.5614 19.2974 71.9372C19.2974 71.6006 19.3139 71.2656 19.3336 70.9306C19.2119 70.8604 19.1412 70.7231 19.151 70.5777C19.1461 70.6185 19.1494 70.6381 19.1576 70.6823C19.0046 70.0973 17.7594 70.1953 17.3547 70.4535C17.1869 70.5319 17.0718 70.6577 16.9747 70.8097C16.9484 70.8408 16.9204 70.8636 16.8908 70.8832C16.8612 71.1267 16.853 71.3784 16.8053 71.5499C16.6391 72.5549 16.5997 73.5761 16.6194 74.5925C16.6655 76.1253 16.6309 77.658 16.6375 79.1907C16.7642 79.1793 16.8925 79.1793 16.9945 79.1777L16.9912 79.176ZM18.2841 76.5697C17.8614 76.2691 18.3335 75.6628 18.7381 75.9896C19.1165 76.2919 18.6773 76.854 18.2841 76.5697ZM17.9831 72.3081C17.937 71.8294 18.6493 71.7477 18.7184 72.2264C18.7283 73.1791 18.8007 74.1317 18.8105 75.086C18.85 75.5664 18.1377 75.6465 18.0752 75.1677C18.0407 74.5092 18.0653 73.8458 18.0012 73.1889C17.9502 72.8948 18.0061 72.599 17.9831 72.3081Z" fill="white"/>
<path d="M25.2884 79.5289C24.9939 79.5208 24.6995 79.5175 24.405 79.5159C24.4215 80.0322 24.4445 80.547 24.4774 81.0584C24.5202 82.5928 24.6863 84.1304 24.7176 85.637C24.7521 86.1419 24.7702 86.6485 24.7817 87.155C24.8146 87.2269 24.8327 87.307 24.8393 87.3871C24.8656 87.4344 24.8837 87.4867 24.887 87.5456C24.887 87.5652 24.887 87.5864 24.8837 87.606C24.9347 87.74 24.9939 87.8724 25.0334 88.0113C25.3739 88.7956 26.0221 89.0374 26.8363 88.8626C27.3561 88.6731 27.7592 88.3021 28.0947 87.874C28.1391 87.8152 28.1786 87.7515 28.2214 87.691C28.2214 87.5374 28.2214 87.3822 28.2214 87.2286C28.1359 84.7023 28.1391 82.1728 28.024 79.6482C27.1094 79.6335 26.2014 79.5175 25.2867 79.5289H25.2884ZM25.6305 81.1859C25.9678 81.5339 25.4595 82.0405 25.1058 81.7055C24.7258 81.3509 25.2752 80.8068 25.6305 81.1859ZM25.1634 84.0814C25.0976 83.6582 25.0762 83.2317 25.0729 82.8036C24.9364 82.2807 25.7029 82.0977 25.7983 82.632C25.8345 83.0863 25.8197 83.5454 25.8987 83.9981C25.9431 84.4768 25.2325 84.5602 25.1634 84.0798V84.0814Z" fill="white"/>
<path d="M31.9439 79.5599C30.8994 79.341 29.8268 79.4995 28.7708 79.6073C28.8514 81.511 28.8497 83.4195 28.9139 85.3232C28.9418 86.065 28.9649 86.8085 28.9632 87.5504C28.9862 87.6239 28.9945 87.704 28.9945 87.7808C29.0685 88.2269 29.4567 88.4916 29.8877 88.539C30.4453 88.5929 31.003 88.5079 31.536 88.3462C31.5722 88.2939 31.6067 88.24 31.638 88.1795C32.1265 87.0831 32.1331 85.8314 32.1545 84.6581C32.1397 83.2659 32.0311 81.908 31.9867 80.524C31.9735 80.2021 31.9587 79.8818 31.9423 79.5599H31.9439Z" fill="white"/>
<path d="M31.3715 48.6488C32.2154 52.479 30.1246 55.9644 26.9794 57.4416C30.6707 56.8223 34.2666 55.1082 36.4545 52.1669C36.4545 52.0754 36.4792 51.9823 36.5334 51.9022C36.6453 51.6032 36.7539 51.3025 36.8279 50.992C37.0779 50.1064 36.8871 49.1488 36.4463 48.3547C36.4035 48.3024 36.3772 48.2485 36.3624 48.1962C33.9459 45.3088 30.3894 43.6552 26.6685 43.0833C28.9106 43.9967 30.7579 45.9183 31.3731 48.6488H31.3715Z" fill="white"/>
<path d="M34.1155 73.2903C33.8885 71.9684 33.6845 70.6416 33.4032 69.3311C33.2272 68.6382 33.1055 67.9062 32.7353 67.2836C31.9753 66.6627 30.9653 66.8947 30.082 66.9208C28.965 66.9355 27.8547 66.862 26.7377 66.9355C24.8262 67.0826 22.9378 67.1709 21.0378 67.3865C19.7054 67.5124 18.3746 67.6692 17.057 67.9078C16.3134 68.0761 15.4909 68.0483 14.8675 68.5091C14.1898 69.5876 14.3954 70.9488 14.3296 72.1645C14.3543 73.4766 14.3411 74.7871 14.3641 76.0993C14.5286 77.9147 14.4661 79.7399 14.4414 81.5602C14.4299 82.6894 14.5714 83.7923 14.5517 84.9182C14.5599 85.9329 14.5698 86.9477 14.5401 87.9608C14.5303 88.2108 14.5303 88.4412 14.5352 88.6667C14.5451 88.7484 14.5467 88.8301 14.5418 88.9134C14.5467 89.0948 14.555 89.2762 14.5615 89.4674C14.6076 90.1063 14.6109 90.8253 15.083 91.3188C15.361 91.6407 15.8726 91.7992 16.2575 91.8858C16.9731 92.0508 17.7051 92.1031 18.4371 92.1276C19.1428 92.1832 19.8452 92.2828 20.5559 92.2632C23.6402 92.2926 26.6785 91.7403 29.7579 91.7469C31.1084 91.6619 32.5758 91.6635 33.7963 91.041C34.7225 90.4707 34.8097 89.2909 34.9429 88.317C35.1716 84.8479 34.8442 81.3805 34.581 77.9278C34.4149 76.3836 34.3112 74.8329 34.1204 73.2903H34.1155ZM32.3488 88.4134C31.7418 89.8154 30.0228 89.8399 28.7051 89.9723C27.1391 90.1684 25.5665 90.34 23.9873 90.2746C21.9261 90.2174 18.4486 90.5279 16.6967 89.4886C15.9581 88.8448 16.2394 87.6977 16.1358 86.8268C16.0157 84.6715 16.0075 82.5701 15.9071 80.454C15.8874 79.0324 15.8841 77.6091 15.9104 76.1875C15.8545 74.5093 15.8183 72.8197 16.1111 71.1579C16.1999 70.5942 16.2115 69.9242 16.751 69.5843C17.6377 69.1431 18.7053 69.0909 19.6725 69.032C20.5065 68.9585 21.3356 68.831 22.1729 68.7869C23.5695 68.6693 24.9743 68.7444 26.3692 68.6448C27.8168 68.6709 29.2677 68.4863 30.7169 68.5941C32.102 68.0565 32.181 73.1662 32.2961 74.024C32.4787 75.8346 32.5708 77.6516 32.6876 79.4605C32.7337 81.0553 32.8423 82.6469 32.8867 84.2401C32.8949 85.6339 32.8949 87.1078 32.3488 88.4134Z" fill="#99CC45"/>
<path d="M31.9061 78.8019C31.8321 77.4326 31.7367 76.0682 31.6166 74.6972C31.4636 73.3785 31.4685 71.9814 31.2103 70.666C31.1148 70.5696 31.0408 70.4274 30.9586 70.3065C30.7431 70.0206 30.4832 69.7362 30.1131 69.666C29.5784 69.5679 28.8843 69.612 28.575 70.1235C28.4977 70.2771 28.4598 70.4421 28.4401 70.6104C28.4286 70.6611 28.4039 70.7052 28.371 70.7428C28.3694 70.9454 28.3661 71.1497 28.3644 71.3523C28.3743 72.1775 28.3315 73.0027 28.3546 73.8279C28.4763 75.3541 28.5701 76.8835 28.7082 78.4097C28.7181 78.565 28.7263 78.7186 28.7346 78.8738C29.7857 78.748 30.8582 78.6336 31.9061 78.8035V78.8019ZM30.3664 71.4307C29.8696 71.2167 30.1838 70.5059 30.6691 70.7526C31.1658 70.9732 30.8517 71.6775 30.3664 71.4307Z" fill="white"/>
<path d="M24.4808 30.8164C24.9513 30.8197 25.4185 30.8376 25.884 30.8719C25.9087 30.8442 25.9366 30.8164 25.9679 30.7952C25.9679 30.7952 25.9679 30.7952 25.935 30.818C26.6983 30.2559 27.5306 29.8098 28.2988 29.2575C29.1444 28.6104 30.0343 28.0189 30.9111 27.4241C31.2516 27.0826 31.773 27.5728 31.4457 27.9323C30.9127 28.3882 30.2646 28.6823 29.7234 29.1235C28.868 29.7739 27.9665 30.3964 27.0717 30.9373C27.0421 30.9504 27.0108 30.9651 26.9796 30.9831C27.4253 31.0386 27.8678 31.1089 28.3071 31.1939C28.5209 30.9733 28.9223 30.805 29.1065 30.635C29.5013 30.354 29.8813 30.05 30.3041 29.8098C31.1282 29.2428 31.9359 28.6513 32.7781 28.1088C33.2897 27.7575 33.7717 27.3522 34.3228 27.063C34.3129 27.027 34.308 26.9895 34.3113 26.9502C34.3277 26.8261 34.3162 26.7019 34.2997 26.5793C34.1928 25.9813 33.9609 25.3669 33.5134 24.9387C33.2683 24.7279 32.9558 24.5466 32.6367 24.4894C32.5347 24.4649 32.4162 24.4698 32.306 24.46C31.4243 24.9845 30.5048 25.4616 29.6082 25.9404C28.5982 26.4747 27.6293 27.0973 26.6489 27.6709C25.7985 28.1415 24.9431 28.599 24.0893 29.0598C24.0433 29.1219 23.9923 29.1807 23.9692 29.2608C23.8459 29.6448 23.8442 30.0925 24.0926 30.421C24.2143 30.5582 24.3295 30.7102 24.4808 30.818V30.8164ZM32.4097 26.4731C32.612 26.4731 32.7831 26.6283 32.788 26.8326C32.7929 27.0287 32.6284 27.2084 32.4261 27.2084C32.2238 27.2084 32.0527 27.0532 32.0478 26.8489C32.0428 26.6528 32.2073 26.4731 32.4097 26.4731Z" fill="#99CC45"/>
<path d="M49.2904 25.1089C48.7081 25.3768 48.1159 25.6154 47.5599 25.9373C46.5318 26.4635 45.5794 27.1171 44.5463 27.6351C42.1035 29.0224 39.5488 30.2414 37.2146 31.8052C36.5023 32.2513 35.8427 32.6173 35.1469 33.065C34.9544 33.1908 34.7636 33.3167 34.5728 33.4441C36.601 34.552 38.4483 35.9818 40.0259 37.6828C40.2134 37.5668 40.4437 37.4769 40.5901 37.3936C41.536 36.9246 42.4802 36.4475 43.4211 35.9687C45.8047 34.7579 48.1291 33.418 50.6722 32.5552C52.6018 31.8035 54.3734 30.7594 56.2537 29.9064C56.3376 29.8754 56.4297 29.8263 56.5267 29.779C56.7998 29.2365 57.193 28.756 57.4052 28.1972C57.7243 27.3164 57.7095 26.3377 57.4891 25.4389C57.3788 25.0713 57.2324 24.7232 57.0021 24.4356C56.9742 24.4046 56.9561 24.3735 56.9396 24.3425C56.6123 24.0647 56.2783 23.7935 55.9477 23.5255C55.9033 23.4895 55.8589 23.4536 55.8128 23.4176C55.7355 23.4781 55.645 23.5271 55.5628 23.5729C55.3489 23.6938 55.1285 23.8065 54.9525 23.898C54.556 24.1023 54.1925 24.3621 53.8076 24.5892C53.421 24.8245 53.0229 25.0419 52.6331 25.2723C52.4636 25.3785 52.2267 25.3164 52.1248 25.1464C51.8747 24.6448 52.6034 24.4896 52.9078 24.2673C53.3059 24.0353 53.6974 23.7984 54.0823 23.5467C54.4672 23.3016 54.8209 23.1513 55.1894 22.9405C54.8752 22.715 54.5544 22.5058 54.2238 22.3081C54.0938 22.4225 53.9178 22.5156 53.7845 22.5908C53.2828 22.9045 52.7367 23.1317 52.2202 23.416C51.2628 24.0565 50.2445 24.5255 49.2872 25.1072L49.2904 25.1089ZM50.8548 26.3605C50.3761 26.2445 50.5505 25.4455 51.0407 25.5582C51.5194 25.6661 51.3401 26.4782 50.8548 26.3605Z" fill="#99CC45"/>
<path d="M47.3705 59.3908C46.5234 58.9823 45.5347 59.0379 44.6514 59.2928C44.4704 59.3157 44.2796 59.4072 44.0954 59.417C43.0228 62.1458 41.3812 64.6541 39.2739 66.7097C41.4831 65.2603 43.9523 64.2619 46.3112 63.087C47.2077 62.7292 48.0417 62.252 48.8839 61.7863C48.8987 61.739 48.9135 61.6932 48.9251 61.6458C48.9612 61.4383 48.9399 61.2128 48.8922 61.0085C48.5648 60.3484 48.022 59.7471 47.3705 59.3876V59.3908Z" fill="#99CC45"/>
<path d="M59.6324 38.7203C59.3627 38.9637 59.1439 39.168 58.9531 39.4311C58.7474 39.7121 58.1372 40.6648 57.6387 40.8445C56.5991 41.9524 55.0429 42.3152 53.5822 42.5292C52.5557 42.7335 51.5079 42.789 50.4682 42.905C49.6424 43.0341 48.8051 43.0881 47.9942 43.3005C47.7688 43.3348 47.5171 43.4345 47.2737 43.4704C47.1865 43.5227 47.0878 43.5636 46.9957 43.5897C46.5367 43.7547 46.0959 43.9639 45.6402 44.1371C45.3737 44.2482 45.1089 44.3642 44.8473 44.4884C44.6976 44.5473 44.5052 44.6633 44.3176 44.7286C44.8983 46.3463 45.2865 48.0719 45.4477 49.8857C45.7586 49.7599 46.2028 49.7206 46.4133 49.6226C47.2605 49.3677 48.0797 49.0409 48.8874 48.683C49.0437 48.6209 49.2065 48.5735 49.3628 48.5114C49.5092 48.3987 49.7181 48.3954 49.8563 48.5311C49.9961 48.6667 50.0093 48.9134 49.8629 49.0507C49.7017 49.2026 49.4779 49.2484 49.2756 49.3219C48.287 49.7386 47.2934 50.1618 46.2521 50.4315C46.0087 50.4511 45.734 50.6177 45.5004 50.6292C45.5168 50.9445 45.53 51.2615 45.5333 51.5818C45.882 51.4478 46.2275 51.3073 46.5745 51.17C47.9152 50.6717 49.2592 50.1749 50.5982 49.67C53.5953 48.4804 56.6073 47.2941 59.5206 45.9248C61.0093 45.3741 62.4503 44.6453 63.8666 43.9525C64.0426 43.8708 64.2219 43.7956 64.3996 43.7155C64.4588 43.6534 64.5394 43.6175 64.625 43.606C64.7664 42.2841 64.722 40.9458 64.6924 39.6124C64.5937 38.4506 64.444 37.2774 64.2006 36.1287C63.2975 36.5372 62.4552 37.0045 61.5883 37.4735C60.9221 37.8526 60.1786 38.1712 59.6324 38.7186V38.7203Z" fill="#99CC45"/>
<path d="M38.7082 72.3914C38.9648 72.2901 39.2214 72.1855 39.4731 72.0728C40.7052 71.442 41.9488 70.8292 43.1447 70.1348C45.9231 68.7181 48.708 67.3079 51.5094 65.9385C53.4012 65.0153 55.362 64.2179 57.2011 63.1901C57.7719 62.8241 58.4463 62.6459 59.0188 62.2979C58.9415 62.1329 58.8642 61.9695 58.7852 61.8044C58.2259 61.8616 57.665 61.8959 57.104 61.8992C55.2945 61.9155 53.4703 61.6949 51.7233 61.2129C51.6427 61.2635 51.5506 61.306 51.4568 61.3469C51.4519 61.3518 51.4469 61.3583 51.442 61.3632C51.2577 61.4939 51.0258 61.5544 50.8235 61.6606C50.7988 61.6704 50.7758 61.6819 50.7527 61.6917C50.5734 61.7962 50.3777 61.9106 50.2 61.9466C49.3709 62.3469 48.5715 62.8143 47.7605 63.2375C46.4297 63.8372 45.1236 64.4941 43.7928 65.0937C42.7219 65.6526 41.6132 66.1428 40.5736 66.7572C39.7626 67.3177 38.8973 67.7834 38.0123 68.2148C37.935 68.3863 37.8774 68.5661 37.8363 68.7491C37.7031 69.2606 37.8051 69.7998 37.8231 70.3113C37.8297 70.3505 37.8281 70.3864 37.8231 70.4224C38.1275 71.0727 38.4219 71.7296 38.7082 72.3881V72.3914Z" fill="#C7F182"/>
<path d="M61.8071 45.7694C60.7593 46.24 59.6818 46.6403 58.6455 47.1338C55.7306 48.4492 52.7646 49.6257 49.7757 50.763C48.7887 51.1241 47.8067 51.4999 46.8213 51.8643C46.392 52.0343 45.9643 52.2091 45.5316 52.3709C45.4839 54.4265 45.1171 56.4691 44.4624 58.4152C44.5002 58.4005 44.5364 58.3858 44.5677 58.3678C45.3836 58.0623 46.1337 57.6619 46.9019 57.2681C49.6589 55.8596 52.5969 54.8579 55.4789 53.737C56.7801 53.2647 57.9825 52.6111 59.2278 52.0245C60.1029 51.5571 61.0274 51.2009 61.8877 50.7058C61.9075 50.6895 61.9289 50.678 61.9502 50.6666C62.0095 50.5391 62.1016 50.4149 62.1608 50.3006C62.4306 49.8561 62.6856 49.4018 62.9372 48.9459C63.4998 47.874 63.9259 46.753 64.2434 45.5896C64.3519 45.2187 64.4375 44.8461 64.5049 44.4719C64.3338 44.5471 64.166 44.6239 64.0377 44.6843C63.2926 45.0422 62.5556 45.4164 61.8071 45.7677V45.7694ZM59.0287 48.7008C58.6175 48.3985 59.1834 47.6501 59.5897 47.9557C60.0009 48.258 59.4334 49.0064 59.0287 48.7008ZM63.2037 46.7171C63.0162 46.9818 62.6658 46.99 62.3977 47.137C61.9025 47.4116 61.409 47.6943 60.8925 47.9328C60.8037 47.9769 60.7099 47.9966 60.6145 47.9704C60.3053 47.9051 60.2345 47.441 60.5208 47.2972C61.2297 46.99 61.8581 46.5112 62.5951 46.271C62.9372 45.923 63.4735 46.3004 63.2021 46.7171H63.2037Z" fill="#C7F182"/>
<path d="M29.5046 31.2561C29.4338 31.3068 29.3614 31.3558 29.2891 31.4032C30.86 31.7806 32.38 32.3362 33.8194 33.0503C33.9246 32.9833 34.0348 32.9212 34.1171 32.8591C34.5974 32.5535 35.0663 32.23 35.563 31.9473C37.7065 30.6303 39.8268 29.2724 42.0887 28.1596C43.7501 27.2592 45.3902 26.3213 47.0319 25.3833C47.5797 25.0925 48.1225 24.7918 48.7048 24.5729C49.4928 24.1643 50.2593 23.6954 51.0473 23.2901C51.7727 22.795 52.5492 22.4339 53.319 22.0156C53.3832 21.9878 53.4473 21.9469 53.5115 21.9012C52.0622 21.1332 50.4946 20.5891 48.8973 20.1871C48.6802 20.1266 48.4268 20.1609 48.208 20.107C48.0435 20.1332 47.8642 20.0596 47.7984 19.8488L47.8067 19.875C47.1799 18.2311 47.606 16.4092 48.2294 14.8307C48.7509 13.4597 49.348 12.1035 50.1031 10.842C50.4666 10.208 50.8351 9.5805 51.2315 8.96774C51.6296 8.3419 52.0112 7.69645 52.4554 7.09839C52.4554 7.09839 52.4537 7.09839 52.4521 7.09839C51.8813 7.31081 51.3138 7.53304 50.7495 7.76835C50.4781 7.90724 50.1968 8.03143 49.909 8.12947C48.1505 8.91054 46.4528 9.82724 44.9016 10.958C43.2023 12.1688 41.638 13.5153 40.3187 15.0921C39.5521 15.9141 38.9237 16.8471 38.3908 17.8308C37.5321 19.3505 36.6372 20.8815 36.1832 22.5793C35.8065 24.014 35.3031 25.4667 35.2258 26.9504C35.1995 27.1236 35.2472 27.2413 35.16 27.3883C34.9791 27.6269 34.6517 27.6857 34.4099 27.8491C33.5891 28.4472 32.7501 29.0158 31.9079 29.5828C31.1232 30.1662 30.2843 30.6678 29.5046 31.2561ZM43.2254 13.4385C43.913 12.7522 44.7437 12.2293 45.4872 11.6067C46.1864 11.1018 46.9085 10.592 47.7129 10.2717C48.1126 10.1835 48.3396 10.7374 47.9827 10.9449C46.5055 11.6165 45.2898 12.7146 44.0183 13.695C43.7764 13.9287 43.5379 14.1656 43.2961 14.3993C43.153 14.5415 42.9211 14.5529 42.773 14.4107C42.4128 14.0251 42.9918 13.7032 43.2254 13.4385ZM42.0064 14.7849C42.2088 14.7849 42.3799 14.9402 42.3848 15.1444C42.3897 15.3405 42.2252 15.5203 42.0229 15.5203C41.8206 15.5203 41.6495 15.365 41.6445 15.1608C41.6396 14.9647 41.8041 14.7849 42.0064 14.7849Z" fill="#C7F182"/>
<path d="M56.9708 40.4704C57.7258 39.7351 58.0137 39.1763 57.5794 38.1517C57.3146 37.7742 56.9099 37.5422 56.4592 37.4229C56.4263 37.418 56.3917 37.4131 56.3588 37.4099C56.2535 37.418 56.1466 37.3968 56.0578 37.3478C55.5742 37.2906 55.0708 37.3461 54.648 37.4818C53.4291 37.9573 52.4158 38.8037 51.4304 39.6403C50.4846 40.5129 49.4861 41.3283 48.5764 42.2385C48.4777 42.3283 48.3691 42.4068 48.2622 42.4885C50.0437 42.1339 51.8779 42.1175 53.6594 41.7711C54.8405 41.5897 56.0792 41.3152 56.9724 40.4721L56.9708 40.4704ZM54.4868 39.9001C54.954 39.7171 55.4278 39.5456 55.8588 39.2857C56.1598 38.8119 56.7964 39.2792 56.4641 39.7253C55.964 40.1926 55.2402 40.3773 54.6151 40.6355C54.4276 40.7025 54.2088 40.5832 54.1496 40.3969C54.0706 40.1551 54.2582 39.9508 54.4885 39.9001H54.4868ZM52.6675 41.0767C52.4651 41.0767 52.2891 40.9361 52.2793 40.7286C52.2694 40.5358 52.429 40.343 52.6296 40.343C52.8303 40.343 53.008 40.4835 53.0179 40.691C53.0277 40.8838 52.8682 41.0767 52.6675 41.0767Z" fill="white"/>
<path d="M62.3202 3.73051C63.2052 3.35795 64.0457 2.47556 63.7447 1.45755C63.6773 1.27781 63.5013 1.16669 63.3516 1.05558C63.0867 0.905247 62.8104 0.702626 62.4929 0.7206C61.1835 0.870932 60.236 1.90038 59.2029 2.61282C58.4627 3.14879 57.678 3.62756 57.0134 4.25831C57.8919 4.22562 58.7719 4.27301 59.6471 4.17007C60.5666 4.19458 61.4648 4.03444 62.3185 3.73051H62.3202ZM61.6786 2.34811C61.9122 2.23699 62.1244 2.11771 62.33 1.97555C62.3267 1.97881 62.3251 1.98045 62.3218 1.98372C62.608 1.73698 63.0949 2.06705 62.8794 2.44778C62.6771 2.68962 62.3613 2.81544 62.0899 2.96741C61.8415 3.11611 61.5125 3.19618 61.3694 2.871C61.2723 2.6308 61.4549 2.41837 61.6803 2.34811H61.6786ZM60.4778 2.74028C60.6801 2.74028 60.8462 2.91185 60.8446 3.11121C60.8446 3.31219 60.6735 3.4756 60.4712 3.4756C60.2689 3.4756 60.1027 3.30402 60.1044 3.10467C60.1044 2.90368 60.2754 2.74028 60.4778 2.74028Z" fill="white"/>
<path d="M18.1245 45.7959C14.0894 50.6964 17.983 57.9793 24.3261 57.414C29.3877 56.963 32.38 51.4072 29.975 46.9822C27.6046 42.5213 21.324 41.9102 18.1262 45.7975L18.1245 45.7959ZM19.0885 48.6408C20.4456 44.9691 25.5121 44.3808 27.6917 47.6391C29.8401 50.783 27.5453 55.1279 23.7208 55.1623C20.3452 55.2505 17.8745 51.7716 19.0901 48.6424L19.0885 48.6408Z" fill="#C7F182"/>
<path d="M65.8634 27.377C66.936 26.2086 66.2928 25.4341 65.2202 24.622C64.6626 24.3899 63.9914 24.4569 63.4025 24.5337C62.6919 24.774 62.1112 25.2968 61.5503 25.7789C60.5699 26.5877 59.7721 27.5551 58.9693 28.5274C58.6436 28.8885 58.2965 29.23 57.9856 29.6042C59.0433 29.5127 60.0501 29.2806 61.1226 29.1581C62.7692 28.8868 64.6988 28.7038 65.8618 27.377H65.8634ZM64.9636 26.042C65.166 26.042 65.342 26.1825 65.3518 26.39C65.3617 26.5828 65.2021 26.7757 65.0015 26.7757C64.8008 26.7757 64.6231 26.6351 64.6132 26.4276C64.6034 26.2348 64.7629 26.042 64.9636 26.042ZM62.2938 27.712C62.8548 27.5273 63.3976 27.274 63.8664 26.9178C64.2875 26.6776 64.6609 27.2838 64.2513 27.5453C63.6822 27.9799 63.0061 28.2659 62.3234 28.4734C62.0454 28.5633 61.6868 28.6744 61.5651 28.3068C61.4499 27.8574 61.9895 27.8133 62.2938 27.712Z" fill="white"/>
<path d="M58.5102 38.8084C58.5102 38.8084 58.5102 38.8113 58.5102 38.8142C58.5117 38.8113 58.5146 38.8084 58.5161 38.8069C58.5132 38.8069 58.5117 38.8084 58.5088 38.8098L58.5102 38.8084Z" fill="#C7F182"/>
<path d="M59.282 27.0007C59.282 27.0007 59.2787 27.0138 59.2771 27.0203C59.2804 27.017 59.2836 27.0121 59.2885 27.0089C59.2885 27.0056 59.2852 27.004 59.2836 27.0024L59.282 27.0007Z" fill="#C7F182"/>
<path d="M57.0087 30.617C56.8722 30.6791 56.7291 30.6382 56.6287 30.5483C55.7174 30.9683 54.8275 31.4324 53.9161 31.8523C53.2779 32.2036 52.6396 32.5533 51.957 32.8131C50.687 33.3834 49.3447 33.7756 48.1011 34.403C46.086 35.3737 44.1334 36.475 42.1167 37.4456C41.5985 37.73 41.0573 37.9718 40.5342 38.2447C41.9966 39.9425 43.1974 41.887 44.0561 44.0325C44.4657 43.8707 44.8523 43.6615 45.2602 43.4981C45.711 43.3119 46.1617 43.1272 46.6157 42.9475C46.6354 42.9001 46.665 42.8592 46.7029 42.8233C46.8016 42.6909 46.9792 42.5994 47.096 42.4818C47.4053 42.2318 47.703 41.9703 48.0073 41.7138C48.0452 41.686 48.083 41.668 48.1209 41.6549C48.4729 41.2987 48.8397 40.9588 49.2181 40.632C50.6443 39.3804 52.003 37.9898 53.7039 37.1041C54.4935 36.6221 55.6615 36.4554 56.6501 36.7087C57.3903 36.8018 58.124 36.9995 58.8741 36.975C60.4303 36.8786 61.9404 36.3525 63.2893 35.5894C63.4965 35.5028 63.7515 35.2756 63.9884 35.2103C63.8782 34.7871 63.7548 34.3671 63.6133 33.957C63.4044 33.3948 63.184 32.8344 62.9455 32.2837C62.3779 31.7886 61.7775 31.3147 61.0554 31.0614C59.7575 30.6349 58.3625 30.4797 57.012 30.617H57.0087ZM47.4941 36.578C47.0894 36.2822 47.6126 35.6057 48.0073 35.9015C48.4137 36.1972 47.8873 36.8737 47.4941 36.578ZM52.3616 34.3736C51.5079 34.6923 50.7594 35.2282 49.9402 35.6204C49.6013 35.774 49.0585 36.274 48.7986 35.7675C48.713 35.5649 48.8298 35.3524 49.0256 35.274C49.5207 35.0093 50.0159 34.7478 50.511 34.4848C51.021 34.1955 51.5194 33.8802 52.0787 33.6922C52.2662 33.6171 52.485 33.7069 52.5623 33.8916C52.6396 34.0762 52.5475 34.2968 52.3616 34.372V34.3736Z" fill="#C7F182"/>
<path d="M39.7741 52.3354C39.8481 52.1409 39.9254 51.9971 39.9567 51.819C40.085 51.1915 39.955 50.5134 39.4023 50.1245C39.2707 50.0248 39.1407 49.9676 39.0091 49.9595C38.9187 49.9823 38.8364 50.033 38.7542 50.0739C38.5008 50.2601 38.338 50.5298 38.162 50.7749C35.6748 55.963 29.4781 58.4206 23.9279 58.4418C19.9257 58.4696 15.8379 57.3405 12.6466 54.8927C11.7879 54.2309 11.0066 53.4727 10.3436 52.6279C9.95541 52.1311 9.60667 51.6066 9.30729 51.0526C9.29577 51.033 9.28919 51.0118 9.28261 50.9906C9.25465 50.953 9.22504 50.917 9.19378 50.8811C9.10989 50.8419 9.04409 50.7716 9.0079 50.6899C9.00296 50.685 8.99803 50.6785 8.99145 50.6752C8.73812 50.5673 8.44531 50.4611 8.18047 50.5935C7.03556 50.9546 7.47642 52.0592 7.74455 52.8926C7.75935 52.9285 7.77251 52.9661 7.78567 53.0021C10.4571 58.7572 17.9879 61.0285 23.9213 61.0203C29.7216 61.0465 37.4744 58.6869 39.631 52.8043C39.6112 52.6524 39.6951 52.4841 39.7757 52.3354H39.7741ZM12.9674 56.6051C12.4541 56.6215 12.4377 55.8698 12.9509 55.8682C13.4642 55.8535 13.4806 56.6051 12.9674 56.6051ZM17.8678 58.9435L17.9237 58.9582C16.894 58.7245 15.8839 58.383 14.9315 57.9254C14.6157 57.6983 13.8178 57.5071 14.0843 56.9924C14.1912 56.8225 14.4232 56.7685 14.5943 56.8747C15.6175 57.5398 16.8199 57.9303 17.9895 58.2212C18.5587 58.2702 18.4172 59.0971 17.8678 58.9435ZM34.1071 57.2244C33.9064 57.231 33.7255 57.0937 33.709 56.8862C33.6926 56.695 33.8472 56.4973 34.0495 56.4907C34.2502 56.4842 34.4312 56.6215 34.4476 56.829C34.4641 57.0202 34.3094 57.2179 34.1071 57.2244ZM38.1867 53.5413C37.6866 54.3387 37.1059 55.0936 36.392 55.7146C36.0745 55.9466 35.4626 56.6885 35.0908 56.2277C34.9773 56.0692 35.0118 55.8241 35.1796 55.7162C35.4823 55.5267 35.7587 55.3044 36.0153 55.0577C36.6601 54.489 37.152 53.7799 37.6191 53.0674C37.9383 52.7063 38.4893 53.1622 38.185 53.5413H38.1867Z" fill="#99CC45"/>
<path d="M38.5848 73.9814C38.1226 72.9912 37.759 71.9601 37.2639 70.9846C36.9267 70.1479 36.4365 69.3898 36.1486 68.5597C36.142 68.357 36.2999 68.2214 36.4727 68.1953C36.4957 68.1348 36.5335 68.0792 36.5895 68.0384C37.0451 67.7002 37.486 67.3456 37.8775 67.0024C39.863 65.2654 41.452 63.2147 42.6315 60.8976C47.2391 51.8679 44.2814 40.6633 35.8361 35.0323C35.1781 34.5944 34.5069 34.2022 33.8292 33.8509C33.719 33.8509 33.6104 33.8003 33.5397 33.7039C30.5984 32.2365 27.5042 31.5551 24.4692 31.5584C24.4018 31.5698 24.331 31.5698 24.2603 31.5584C14.2292 31.6678 4.91856 39.222 4.10264 50.4218C3.78516 54.9138 5.01561 59.4368 7.55053 63.1412C8.22827 64.1363 9.02115 65.0939 9.8749 65.9599C9.92425 65.9779 9.96537 66.004 9.99169 66.0367C10.199 66.2573 10.4375 66.455 10.6398 66.6789C10.6793 66.7214 10.7188 66.7638 10.7583 66.8063C10.8208 66.8619 10.8816 66.9207 10.9441 66.9746C11.186 67.1854 11.4311 67.3962 11.6844 67.5939C11.7601 67.6528 11.8028 67.723 11.8193 67.7949C12.0693 68.0188 12.321 68.241 12.571 68.4649C12.7059 68.5842 12.7388 68.7525 12.7158 68.9175C12.724 68.9404 12.7322 68.9649 12.7355 68.9927C12.7799 69.192 12.6747 69.3832 12.5924 69.5597C12.4427 69.8783 12.3243 70.2117 12.1762 70.532C11.7485 71.5156 11.4179 72.5369 10.931 73.4961C9.93576 75.7429 8.85172 77.9505 7.86144 80.2006C6.90405 82.2235 5.88745 84.2203 4.91527 86.2335C4.42835 87.2466 3.98256 88.1976 3.50551 89.2009C3.24725 89.7434 3.00215 90.2941 2.7373 90.8349C2.93635 90.8611 3.13539 90.9183 3.33608 90.9265C4.77051 90.8415 6.20329 90.9608 7.63772 90.9755C9.09682 90.9885 10.6546 91.1046 11.9739 90.3741C12.3342 90.147 12.7273 89.946 13.0037 89.6143C13.2603 89.1976 13.609 88.8316 13.7949 88.3773C13.8048 87.776 13.8311 87.1992 13.8163 86.7253C13.8475 85.0586 13.7587 83.3951 13.6978 81.7415C13.7159 80.6777 13.7209 79.6123 13.7357 78.5486C13.7242 77.2234 13.5876 75.9063 13.6024 74.5811C13.6238 72.9961 13.5301 71.4045 13.6666 69.826C13.8064 69.0777 13.9429 68.1577 14.6635 67.7394C15.1438 67.4894 15.7327 67.3864 16.2558 67.2998C17.2625 67.0759 18.2906 66.9991 19.3007 66.8129C21.75 66.5514 24.2077 66.3651 26.662 66.2017C27.8447 66.1217 29.0225 66.1985 30.2053 66.1838C33.4936 65.8341 33.6449 66.9109 34.2454 69.7689C34.9083 72.9078 35.1748 76.1089 35.4248 79.3019C35.5926 81.4098 35.7258 83.5373 35.7637 85.6273C35.7522 86.0684 35.7489 86.5129 35.7407 86.9574C35.7999 87.3038 35.8542 87.6437 36.0022 87.9688C36.2325 88.7597 36.7145 89.4525 37.2573 90.0669C37.5633 90.3905 37.8906 90.701 38.2657 90.9444C38.3512 90.9967 38.4467 91.0474 38.5305 91.1111C38.9698 91.1225 39.4073 91.134 39.8465 91.1405C40.5966 91.1634 41.3468 91.1242 42.0969 91.0882C43.3224 91.0817 44.5627 91.1176 45.7849 91.0882C44.5528 88.1486 43.1793 85.2694 42.0179 82.3003C40.9372 79.5012 39.6755 76.7773 38.5865 73.983L38.5848 73.9814ZM30.4504 41.2695C31.4818 41.5391 32.4309 42.0162 33.3686 42.5114C33.9526 42.8676 34.6105 43.1111 35.1205 43.5751C35.1501 43.5931 35.1731 43.6225 35.2077 43.629C35.4051 43.6732 35.5334 43.8709 35.489 44.067C35.4462 44.2631 35.2406 44.3905 35.0481 44.3464C34.706 44.2696 34.4987 43.9706 34.2026 43.8039C32.8948 43.1078 31.6381 42.3382 30.1954 41.9591C29.743 41.7907 29.9832 41.1175 30.4487 41.2679L30.4504 41.2695ZM29.6608 41.3087C29.8121 41.7711 29.0669 42.0277 28.909 41.5587C28.761 41.0963 29.5045 40.8414 29.6608 41.3087ZM15.1504 42.2646C15.7574 42.0244 16.3627 41.7809 16.9911 41.5996C17.6573 41.3643 18.3383 41.1567 19.0408 41.0636C19.2382 41.0227 19.4356 41.1616 19.4734 41.3561C19.5112 41.5554 19.3763 41.745 19.1789 41.7858C18.6789 41.8577 18.1903 41.9705 17.71 42.1323C17.228 42.2989 16.7361 42.4362 16.2607 42.6225C15.884 42.7025 15.2343 43.232 14.9776 42.7548C14.8937 42.5816 14.9645 42.3414 15.1504 42.2646ZM13.8755 43.2434C14.0778 43.2369 14.2538 43.3856 14.2654 43.5898C14.2769 43.7859 14.119 43.9722 13.9166 43.9771C13.7143 43.9836 13.5383 43.8349 13.5268 43.6307C13.5153 43.4346 13.6732 43.2483 13.8755 43.2434ZM11.9097 83.735C11.9443 83.1664 11.9229 82.5977 11.9147 82.0291C11.9278 81.248 11.8884 80.4686 11.9147 79.6908C11.8752 79.4979 11.9788 79.2921 12.1828 79.2414C12.7207 79.1466 12.6895 79.815 12.6434 80.1712C12.6039 80.6892 12.6796 81.1565 12.6615 81.6663C12.6681 82.6369 12.6533 83.6076 12.6451 84.5782C12.6451 84.7792 12.4658 84.9426 12.2684 84.9393C11.6975 84.8821 11.9591 84.1207 11.9097 83.735ZM12.0726 86.6305C11.6778 86.209 12.2996 85.6665 12.6368 86.1436C13.03 86.5652 12.4098 87.1093 12.0726 86.6305ZM23.9889 61.7522C17.7313 61.7571 10.2039 59.4613 7.21989 53.5444C7.13764 53.3712 7.06197 53.1947 6.99124 53.0166C6.97479 52.9741 6.96821 52.93 6.96985 52.8859C6.95011 52.8254 6.93202 52.7666 6.91886 52.7143C6.71982 52.2078 6.63428 51.6653 6.72968 51.126C6.88267 50.3613 7.67884 49.8548 8.42402 49.791C8.68228 49.8025 8.95042 49.8548 9.19223 49.961C9.58374 49.0884 10.0986 48.273 10.7089 47.5328C16.2739 41.0652 27.1489 40.5195 34.0529 45.1291C35.2011 45.9085 36.2424 46.8448 37.0863 47.9168C37.481 48.4201 37.8364 48.9544 38.139 49.5165C38.3381 49.3727 38.5684 49.2681 38.8382 49.2158C38.9007 49.2109 38.9615 49.2126 39.0224 49.2158C39.029 49.2158 39.0339 49.2142 39.0405 49.2142C39.0964 49.2109 39.1507 49.2207 39.2001 49.2404C39.789 49.3596 40.2742 49.8613 40.544 50.3825C40.8302 50.9643 40.7743 51.7045 40.5818 52.3025C40.5489 52.3761 40.516 52.4676 40.4799 52.5624C40.4782 52.595 40.4733 52.631 40.4618 52.6669C38.3282 59.19 30.2859 61.7375 23.9872 61.7555L23.9889 61.7522ZM41.1707 85.3936C40.8516 84.7204 40.6361 84.0046 40.3302 83.3249C39.9239 82.3771 39.6574 81.3722 39.2132 80.4392C38.978 79.877 39.7791 79.6565 39.9387 80.2382C40.5078 81.6369 41.0079 83.0634 41.5754 84.4638C41.6429 84.7514 41.8995 85.0096 41.8485 85.3102C41.7745 85.6125 41.3122 85.6746 41.1707 85.3919V85.3936ZM42.1117 86.7776C42.3864 86.8234 42.6792 86.9655 42.5953 87.2923C42.5394 87.4884 42.3288 87.5979 42.138 87.5456C41.8633 87.4999 41.5705 87.3577 41.656 87.0309C41.7119 86.8364 41.9176 86.7253 42.1133 86.7776H42.1117Z" fill="#C7F182"/>
<path d="M59.8446 75.9488C59.0287 76.3949 58.1848 76.7593 57.3574 77.1662C56.6649 77.4995 56.0348 77.9423 55.3686 78.3198C53.0294 79.6254 50.6673 80.8934 48.3593 82.253C47.3888 82.8428 46.3936 83.387 45.4197 83.972C44.9147 84.2841 44.4048 84.5831 43.8652 84.8331C44.538 86.3985 45.2388 87.9509 45.9215 89.5114C46.0876 89.9379 46.2899 90.3496 46.4643 90.7729C46.7078 90.6242 47.0269 90.5147 47.1963 90.4117C48.0797 89.9738 48.9153 89.4526 49.7691 88.9623C52.1296 87.6061 54.3635 86.0488 56.6616 84.5962C58.1322 83.6468 59.5716 82.6222 61.0257 81.6631C62.2891 80.8967 63.5129 80.0666 64.6858 79.1711C65.0576 78.8819 65.4261 78.5862 65.8093 78.3116C65.8307 78.2969 65.8521 78.2806 65.8751 78.2643C65.4162 77.0044 65.0477 75.7299 64.4999 74.5092C64.3864 74.238 64.2713 73.9683 64.1561 73.6987C63.8206 73.9422 63.3994 74.0844 63.0474 74.3001C61.9897 74.872 60.876 75.3328 59.843 75.9504L59.8446 75.9488ZM59.9664 77.511C59.764 77.511 59.6012 77.3312 59.6045 77.1351C59.6094 76.9309 59.7821 76.7756 59.9828 76.7756C60.1835 76.7756 60.348 76.9554 60.3447 77.1515C60.3398 77.3557 60.167 77.511 59.9664 77.511ZM63.9176 75.0223C64.0821 75.3409 63.7794 75.5354 63.5245 75.6547C63.1198 75.9112 62.6872 76.122 62.2743 76.3622C61.9502 76.5632 61.6064 76.7266 61.2774 76.9211C61.1047 77.0191 60.8695 76.9439 60.7773 76.7691C60.6803 76.5877 60.7543 76.3704 60.9303 76.2724C61.2231 76.1057 61.5192 75.9472 61.812 75.7854C62.2151 75.5387 62.6411 75.3344 63.0046 75.1122C63.2777 74.9455 63.6873 74.6285 63.9176 75.0239V75.0223Z" fill="#99CC45"/>
<path d="M10.6825 51.8414C12.89 54.866 16.435 56.657 20.1247 57.3596C15.6733 55.1814 14.2669 49.2417 17.5503 45.3298C18.4106 44.3003 19.4371 43.5634 20.5376 43.0977C16.7327 43.7219 12.9295 45.552 10.7269 48.7367C10.6907 48.8479 10.6232 48.9508 10.592 49.0668C10.49 49.4427 10.4193 49.8038 10.3962 50.1894C10.3683 50.7417 10.5311 51.2777 10.6792 51.8022C10.6808 51.8153 10.6808 51.8284 10.6825 51.8414Z" fill="white"/>
<path d="M67.2255 54.069C66.5757 54.0429 65.9309 53.8795 65.3272 53.6605C64.3402 53.319 63.3483 52.8811 62.6377 52.0967C62.4945 51.9366 62.2248 51.6964 62.057 51.448C61.7855 51.5902 61.5158 51.7356 61.246 51.881C59.7869 52.5085 58.3936 53.2847 56.946 53.935C55.329 54.6246 53.661 55.1834 52.0308 55.8403C50.7461 56.3518 49.4482 56.8436 48.2046 57.4433C47.7752 57.6459 47.3524 57.8633 46.9297 58.0789C47.0695 58.1803 47.2077 58.2832 47.3492 58.3829C47.8098 58.7538 48.3312 59.0447 48.8527 59.3208C51.1803 60.5006 53.781 61.1019 56.39 61.1542C58.9447 61.2572 61.496 60.7049 63.8714 59.7931C65.7039 59.0447 67.4262 58.074 69.0926 57.0201C70.1388 56.4024 71.1406 55.7129 72.1243 55.0004C72.9928 54.3484 73.8745 53.7291 74.6378 52.9758C74.8582 52.7961 75.077 52.6147 75.2942 52.4317C74.4388 52.8304 73.562 53.185 72.6704 53.4922C70.9103 54.0069 69.0515 54.1883 67.2239 54.0674L67.2255 54.069ZM59.9366 59.9859C59.7342 59.9859 59.5763 59.7914 59.5878 59.5986C59.5994 59.3911 59.7754 59.2522 59.9777 59.2522C60.18 59.2522 60.338 59.4466 60.3264 59.6395C60.3149 59.847 60.1389 59.9859 59.9366 59.9859ZM66.7912 57.6427C65.6151 58.3028 64.4093 58.9221 63.0966 59.2653C62.6196 59.4058 62.1392 59.5398 61.649 59.6378C61.4549 59.6721 61.2526 59.5561 61.2114 59.3535C61.1522 58.9515 61.5158 58.9107 61.8168 58.8469C62.1228 58.7832 62.4238 58.6983 62.7215 58.6116C64.0869 58.2538 65.3387 57.6427 66.5428 56.9286C66.6843 56.7864 66.9344 56.8077 67.066 56.9498C67.3045 57.2113 67.0627 57.5315 66.7912 57.6443V57.6427Z" fill="#99CC45"/>
<path d="M58.1208 63.5314C57.2012 64.0314 56.2833 64.5363 55.3259 64.9612C51.5359 66.7031 47.8149 68.5773 44.1022 70.4712C43.1382 70.9614 42.2105 71.5219 41.235 71.9925C40.605 72.316 39.9897 72.669 39.3301 72.9337C39.2314 72.968 39.1162 73.0252 38.9978 73.0742C39.2791 73.7425 39.5505 74.4158 39.8104 75.0922C40.197 75.9926 40.5803 76.893 40.9619 77.795C40.9817 77.7835 41.003 77.7721 41.0244 77.7639C41.434 77.6119 41.8354 77.4142 42.2286 77.2279C42.954 76.8832 43.6597 76.4992 44.3802 76.1446C46.953 74.8553 49.4895 73.4942 52.0557 72.1918C53.6119 71.2866 55.3177 70.6248 56.9232 69.8421C57.2637 69.6819 57.5664 69.4875 57.8888 69.2963C58.5781 68.9417 59.2854 68.628 59.9253 68.1884C60.3398 67.9498 60.8021 67.8208 61.2314 67.6116C61.2742 67.556 61.3301 67.5152 61.3926 67.489C61.2725 67.2668 61.159 67.0397 61.0636 66.8044C60.7922 66.1818 60.5586 65.5396 60.2625 64.9285C59.9368 64.2781 59.6341 63.6294 59.3331 62.9807C58.9383 63.185 58.5238 63.3516 58.1158 63.5314H58.1208ZM51.4339 68.6035C51.2316 68.6035 51.0687 68.4237 51.072 68.2276C51.0769 68.0234 51.2497 67.8681 51.4503 67.8681C51.651 67.8681 51.8155 68.0479 51.8122 68.244C51.8073 68.4482 51.6346 68.6035 51.4339 68.6035ZM55.247 66.7145C54.9394 66.8387 54.7222 66.9482 54.4393 67.0887C54.1152 67.2358 53.7994 67.4008 53.4901 67.574C53.1907 67.7113 52.7532 68.074 52.5114 67.6639C52.4176 67.489 52.485 67.2586 52.6643 67.1671C53.0427 66.9841 53.4046 66.775 53.7796 66.5854C54.2353 66.355 54.7074 66.1589 55.1647 65.9334C55.3259 65.8207 55.5677 65.8534 55.6812 66.02C55.9099 66.3763 55.548 66.6001 55.247 66.7145Z" fill="#99CC45"/>
<path d="M85.4126 44.2418C84.6938 44.2059 84.0473 44.6389 83.5193 45.0785C82.1342 46.1667 81.1505 47.6586 80.1865 49.0982C82.3793 48.4054 84.7053 47.5034 86.1529 45.6438C86.3338 45.2762 86.2845 44.7941 86.0525 44.4592C85.893 44.2892 85.6314 44.2713 85.4126 44.2402V44.2418ZM84.832 45.853C84.7547 45.9216 84.6625 45.9461 84.5622 45.9461C84.3599 45.9461 84.2036 45.7452 84.2167 45.5556C84.2233 45.4592 84.2677 45.3693 84.3401 45.3056C84.4174 45.237 84.5095 45.2125 84.6099 45.2125C84.8122 45.2125 84.9685 45.4134 84.9553 45.603C84.9488 45.6994 84.9043 45.7893 84.832 45.853Z" fill="white"/>
<path d="M58.6239 69.7408C58.165 69.9696 57.7504 70.2718 57.2915 70.481C56.1646 71.0415 55 71.5186 53.865 72.0628C52.2315 72.9451 50.5701 73.7703 48.9251 74.6315C46.8804 75.7296 44.7978 76.759 42.7268 77.8048C42.4422 77.9404 42.1625 78.0793 41.8763 78.2084C41.6954 78.2787 41.4568 78.4225 41.2446 78.4568C41.7908 79.7591 42.3287 81.0631 42.8485 82.3769C43.0837 82.9733 43.3288 83.5648 43.5772 84.1563C43.6249 84.1318 43.6726 84.1089 43.722 84.091C45.2683 83.2462 46.7685 82.3148 48.2967 81.4373C50.9204 79.88 53.656 78.514 56.2601 76.9224C57.5497 76.1969 58.9381 75.6642 60.2113 74.9027C61.0552 74.4354 61.9517 74.0743 62.7923 73.602C63.1558 73.4092 63.5309 73.236 63.8615 72.9974C63.2611 71.5856 62.6607 70.1754 62.0882 68.7506C61.9879 68.5414 61.8744 68.3371 61.7592 68.1345C61.7017 68.1933 61.6326 68.2424 61.5586 68.2767C60.8808 68.5545 60.2047 68.8257 59.6076 69.2571C59.2918 69.4418 58.9578 69.5872 58.6256 69.7408H58.6239ZM50.0239 79.55C49.8496 79.6578 49.6702 79.7542 49.486 79.8441C48.9909 80.1186 48.4859 80.3768 47.9743 80.6219C47.7966 80.7085 47.5712 80.6529 47.4742 80.4699C47.3821 80.2983 47.4446 80.0598 47.6272 79.9732C47.9562 79.8065 48.2917 79.6529 48.6175 79.4813C48.9432 79.2885 49.2886 79.13 49.616 78.9372C49.8742 78.7738 50.2937 78.5123 50.4993 78.8816C50.6753 79.2836 50.3052 79.3915 50.0256 79.5483L50.0239 79.55Z" fill="#C7F182"/>
<path d="M32.6874 79.4589C32.5722 77.65 32.4801 75.8346 32.2958 74.0224C32.179 73.1646 32.1017 68.0549 30.7167 68.5925C29.2674 68.4847 27.8165 68.6693 26.369 68.6432C24.974 68.7428 23.5692 68.6677 22.1726 68.7853C21.3353 68.8294 20.5062 68.9569 19.6722 69.0304C18.705 69.0893 17.6374 69.1415 16.7507 69.5827C16.2112 69.9226 16.1997 70.5926 16.1108 71.1563C15.818 72.8181 15.8542 74.5077 15.9101 76.1859C15.8838 77.6075 15.8871 79.0308 15.9069 80.4524C16.0072 82.5685 16.0138 84.6699 16.1355 86.8252C16.2391 87.6961 15.9578 88.8432 16.6964 89.487C18.4484 90.5263 21.9259 90.2174 23.987 90.273C25.5662 90.3384 27.1388 90.1684 28.7048 89.9707C30.0208 89.8383 31.7415 89.8138 32.3485 88.4118C32.8946 87.1062 32.8946 85.6323 32.8864 84.2385C32.8403 82.6453 32.7334 81.0537 32.6874 79.4589ZM16.6158 74.5911C16.5961 73.5747 16.6356 72.5534 16.8017 71.5485C16.8511 71.3753 16.8593 71.1253 16.8873 70.8818C16.9169 70.8622 16.9448 70.8393 16.9712 70.8083C17.0682 70.6563 17.1834 70.5288 17.3511 70.452C17.7558 70.1939 19.0011 70.0958 19.1541 70.6808C19.1458 70.6367 19.1442 70.6171 19.1475 70.5762C19.1376 70.7217 19.2083 70.8589 19.3301 70.9292C19.3103 71.2642 19.2939 71.5991 19.2939 71.9358C19.2889 72.56 19.3449 73.1842 19.3202 73.8084C19.256 75.1744 19.4255 76.5323 19.4666 77.8967C19.4863 78.2268 19.5028 78.5618 19.5209 78.8952C19.1754 78.9148 18.8316 78.9376 18.4862 78.9654C17.9828 78.9834 17.486 79.1027 16.9876 79.1746C16.8856 79.1746 16.759 79.1746 16.6306 79.1876C16.6241 77.6549 16.6586 76.1222 16.6125 74.5894L16.6158 74.5911ZM19.6344 87.6667C19.4238 88.4053 18.4878 89.0132 17.7443 88.6406C17.5732 88.5491 17.491 88.3481 17.3742 88.201C17.1899 87.9232 17.0649 87.6209 16.9629 87.3056C16.9465 87.25 16.9185 87.2043 16.8856 87.1683C16.8856 87.1454 16.8856 87.1242 16.884 87.1013C16.7721 85.0555 16.7524 82.9819 16.6635 80.9148C16.652 80.588 16.6455 80.2612 16.6405 79.9328C16.805 79.9099 16.9695 79.9115 17.1373 79.9017C17.5485 79.8396 17.8858 79.7465 18.3299 79.7138C18.7412 79.686 19.1524 79.6582 19.5637 79.6321C19.6443 81.2743 19.7035 82.9427 19.7133 84.5718C19.7331 85.5359 19.7397 86.4771 19.7561 87.4232C19.692 87.4772 19.6459 87.5572 19.6344 87.6667ZM20.0588 73.9816C20.0983 72.9897 19.9881 72.0126 20.067 71.0158C20.067 70.9325 20.0687 70.8491 20.0736 70.7658C20.1262 70.7298 20.1707 70.6808 20.1953 70.6187C20.2167 70.5599 20.2381 70.5027 20.2825 70.4586C20.549 70.1236 20.8879 69.818 21.3369 69.769C21.9653 69.6906 22.6283 69.6579 23.2418 69.8376C23.4869 70.0337 23.7682 70.2739 23.8143 70.6007C23.8209 70.6481 23.8357 70.6906 23.8538 70.7266C23.7518 71.9995 23.5478 73.2642 23.6251 74.5519C23.6366 75.962 23.6103 77.3706 23.6432 78.7808C22.518 78.7824 21.3945 78.8036 20.271 78.8559C20.1789 77.2366 20.0308 75.6091 20.0572 73.9816H20.0588ZM22.7204 89.1831C22.115 89.3024 21.4373 89.1864 20.9273 88.8383C20.7283 88.6651 20.6822 88.3857 20.6066 88.1455C20.5786 88.0311 20.5556 87.9134 20.5556 87.7942C20.5506 87.7174 20.526 87.6553 20.4931 87.6046C20.4799 87.0654 20.4733 86.5261 20.4783 85.9853C20.4651 83.8921 20.3894 81.8136 20.3154 79.7203C20.3138 79.6762 20.3105 79.6305 20.3088 79.5864C20.7036 79.5651 21.0984 79.5471 21.4932 79.5373C22.2121 79.5324 22.9375 79.5194 23.663 79.5161C23.7271 81.5113 23.8916 83.4934 23.9689 85.5032C24.0249 86.3153 24.038 87.1291 24.0479 87.951C23.7781 88.5033 23.3504 89.0262 22.7171 89.1815L22.7204 89.1831ZM24.3719 74.8231C24.3588 74.078 24.344 73.3361 24.4081 72.5926C24.4756 71.9717 24.5529 71.3491 24.6006 70.7249C24.6203 70.7053 24.6384 70.6841 24.6549 70.6579C24.8687 70.2788 25.155 69.9259 25.5843 69.787C26.1107 69.6628 26.7506 69.5452 27.2523 69.8344C27.4037 70.001 27.4793 70.2184 27.5287 70.4341C27.5073 70.555 27.5517 70.671 27.6323 70.7527C27.6241 71.6792 27.6142 72.6057 27.6076 73.5306C27.6899 75.0584 27.8198 76.5846 27.9416 78.1108C27.9597 78.3788 27.9745 78.6468 27.9893 78.9131C27.2556 78.8984 26.5252 78.8216 25.7899 78.7955C25.3211 78.7889 24.8539 78.784 24.3851 78.7824C24.3588 77.4654 24.3687 76.1385 24.3719 74.8247V74.8231ZM28.2212 87.6928C28.1784 87.7533 28.139 87.817 28.0945 87.8759C27.759 88.304 27.356 88.6749 26.8361 88.8645C26.0219 89.0393 25.3737 88.7975 25.0332 88.0131C24.9938 87.8742 24.9362 87.7419 24.8835 87.6079C24.8868 87.5883 24.8885 87.567 24.8868 87.5474C24.8835 87.4886 24.8654 87.4347 24.8391 87.3889C24.8325 87.3088 24.8128 87.2288 24.7815 87.1569C24.77 86.6503 24.7519 86.1438 24.7174 85.6389C24.6861 84.1306 24.52 82.5946 24.4772 81.0603C24.4443 80.5488 24.4213 80.0341 24.4048 79.5177C24.7009 79.5194 24.9954 79.5226 25.2882 79.5308C26.2028 79.5194 27.1125 79.6354 28.0255 79.6501C28.1406 82.1747 28.1373 84.7042 28.2229 87.2304C28.2229 87.384 28.2229 87.5392 28.2229 87.6928H28.2212ZM28.7081 78.4098C28.57 76.8836 28.4762 75.3558 28.3545 73.828C28.3314 73.0028 28.3742 72.1776 28.3643 71.3524C28.366 71.1498 28.3693 70.9455 28.3709 70.7429C28.4038 70.7053 28.4285 70.6612 28.44 70.6105C28.4597 70.4422 28.4976 70.2772 28.5749 70.1236C28.8825 69.6122 29.5783 69.568 30.1129 69.6661C30.4831 69.7363 30.743 70.0207 30.9585 70.3066C31.0407 70.4275 31.1131 70.5697 31.2102 70.6661C31.4668 71.9815 31.4635 73.3786 31.6165 74.6973C31.7365 76.0683 31.832 77.431 31.906 78.802C30.8581 78.6321 29.7856 78.7465 28.7344 78.8723C28.7262 78.717 28.718 78.5634 28.7081 78.4082V78.4098ZM31.6378 88.1814C31.6082 88.2403 31.5737 88.2958 31.5359 88.3481C31.0045 88.5099 30.4452 88.5948 29.8876 88.5409C29.4566 88.4935 29.0684 88.2272 28.9944 87.7827C28.9944 87.7059 28.9861 87.6258 28.9631 87.5523C28.9631 86.8088 28.9417 86.067 28.9138 85.3251C28.8496 83.4215 28.8512 81.5129 28.7706 79.6092C29.8267 79.503 30.8993 79.3429 31.9438 79.5618C31.9586 79.8821 31.9751 80.204 31.9882 80.5259C32.0326 81.9116 32.1412 83.2678 32.156 84.6601C32.1346 85.8333 32.1281 87.085 31.6395 88.1814H31.6378Z" fill="black"/>
<path d="M18.001 73.1888C18.0652 73.8473 18.0405 74.5091 18.075 75.1676C18.1392 75.6464 18.8515 75.5663 18.8103 75.0859C18.8005 74.13 18.7281 73.179 18.7182 72.2263C18.6491 71.7476 17.9368 71.8293 17.9829 72.3081C18.0059 72.5989 17.95 72.8947 18.001 73.1888Z" fill="black"/>
<path d="M18.738 75.9878C18.3333 75.6626 17.8612 76.2688 18.2839 76.5679C18.6771 76.8506 19.1163 76.2884 18.738 75.9878Z" fill="black"/>
<path d="M25.6289 81.1874C25.2735 80.8083 24.7241 81.3524 25.1041 81.707C25.4561 82.042 25.9661 81.5354 25.6289 81.1874Z" fill="black"/>
<path d="M25.0712 82.805C25.0745 83.2331 25.0958 83.6596 25.1616 84.0828C25.2307 84.5632 25.9414 84.4799 25.897 84.0011C25.8163 83.5485 25.8328 83.0893 25.7966 82.635C25.7012 82.0991 24.9346 82.2837 25.0712 82.8066V82.805Z" fill="black"/>
<path d="M30.669 70.7525C30.1837 70.5074 29.8712 71.2166 30.3663 71.4306C30.85 71.6774 31.1642 70.9731 30.669 70.7525Z" fill="black"/>
<path d="M12.2701 84.9409C12.4691 84.9442 12.6484 84.7808 12.6468 84.5798C12.655 83.6092 12.6698 82.6385 12.6632 81.6679C12.6813 81.1581 12.604 80.6908 12.6451 80.1728C12.6912 79.8165 12.7224 79.1482 12.1845 79.243C11.9805 79.292 11.8753 79.4979 11.9164 79.6924C11.8884 80.4685 11.9295 81.2496 11.9164 82.0307C11.9246 82.5993 11.946 83.168 11.9114 83.7366C11.9624 84.1222 11.6992 84.8837 12.2701 84.9409Z" fill="black"/>
<path d="M12.0726 86.6303C12.4115 87.1091 13.03 86.5649 12.6368 86.1433C12.298 85.6662 11.6762 86.2071 12.0726 86.6303Z" fill="black"/>
<path d="M41.8486 85.3136C41.8996 85.013 41.643 84.7548 41.5755 84.4672C41.008 83.0668 40.5079 81.6403 39.9388 80.2416C39.7792 79.6582 38.9781 79.8788 39.2133 80.4425C39.6591 81.374 39.924 82.3789 40.3303 83.3283C40.6346 84.008 40.8501 84.7237 41.1709 85.397C41.3123 85.6797 41.7746 85.6192 41.8486 85.3153V85.3136Z" fill="black"/>
<path d="M41.6543 87.0325C41.5704 87.3593 41.8616 87.5031 42.1363 87.5473C42.3271 87.5995 42.5377 87.4901 42.5936 87.294C42.6775 86.9672 42.3863 86.8234 42.11 86.7793C41.9159 86.727 41.7086 86.8381 41.6527 87.0325H41.6543Z" fill="black"/>
<path d="M76.8521 50.7991C76.3274 51.0915 75.7845 51.384 75.24 51.6586C73.3697 52.5181 71.422 53.2779 69.3329 53.3236C68.4183 53.3972 67.4642 53.4021 66.5331 53.2534C65.6317 53.0132 64.7039 52.7174 63.9061 52.2076C63.5014 51.9265 63.151 51.5916 62.8204 51.2288C62.7529 51.1487 62.697 51.0474 62.6378 50.9559C62.7003 50.8595 62.7562 50.7533 62.8089 50.6618C63.077 50.2059 63.3435 49.7516 63.5968 49.2876C64.4983 47.5277 65.1513 45.6191 65.3668 43.6501C65.5823 41.4621 65.4787 39.2447 65.1365 37.0747C64.7335 34.4864 63.7893 32.0255 62.4947 29.7395C62.4864 29.7248 62.4766 29.7101 62.4684 29.6954C62.6822 29.6578 62.896 29.6169 63.1083 29.5696C64.2762 29.3048 65.5626 28.8538 66.367 27.9322C66.9476 27.2917 67.4 26.46 67.0431 25.5939C66.9049 25.2148 66.645 24.9174 66.3604 24.638C66.0051 24.29 65.6382 23.9076 65.1266 23.8079C64.3502 23.7017 63.4948 23.6478 62.7677 23.9942C61.6245 24.6298 60.6819 25.5008 59.8035 26.4436C59.583 26.0645 59.333 25.7067 59.0418 25.375C58.1486 24.3096 57.0366 23.4615 55.9608 22.5905C54.7073 21.6346 53.3074 20.896 51.8253 20.3568C50.7347 19.9287 49.6062 19.5006 48.43 19.4025C48.379 19.2571 48.3281 19.1117 48.2968 18.9613C48.152 17.7963 48.3396 16.6181 48.759 15.5249C49.5124 13.3941 50.5685 11.3532 51.8023 9.45447C52.3599 8.56228 52.8995 7.64558 53.6068 6.85797C53.7894 6.65535 54.0773 6.48704 54.0871 6.18638C54.102 5.89388 53.8486 5.75009 53.6331 5.7893C53.4522 5.75989 53.2515 5.83996 53.0788 5.88571C52.2184 6.23867 51.4009 6.64881 50.5636 7.04752C50.4073 7.11288 50.2494 7.17988 50.0931 7.24687C49.9582 7.3057 49.825 7.36616 49.6901 7.42662C49.57 7.46583 49.4499 7.50668 49.3627 7.57205C47.3559 8.48711 45.4164 9.58682 43.6777 10.9463C42.2959 11.997 41.0013 13.1539 39.8794 14.4792C39.3793 15.0543 38.8694 15.6246 38.4664 16.2733C37.4629 17.9041 36.5105 19.5741 35.7966 21.3519C35.7768 21.4059 35.7587 21.4598 35.739 21.5137C35.7324 21.517 35.7258 21.5202 35.7192 21.5235C34.5529 22.0693 33.5265 22.8536 32.4358 23.5269C31.3205 24.2295 30.1394 24.8079 28.9896 25.4485C27.9533 25.9959 26.9251 26.6806 25.8806 27.2639C24.1435 28.1921 22.4064 29.1218 20.6923 30.0957C20.4686 30.2264 20.2366 30.3506 20.0014 30.4699C19.9537 30.4781 19.906 30.4961 19.8632 30.5255C19.8056 30.5614 19.7481 30.5941 19.6905 30.6284C19.021 30.9601 18.3285 31.2771 17.6754 31.6415C17.2263 31.8474 16.7789 32.0582 16.3462 32.2951C16.1867 32.3834 15.9432 32.5108 15.7623 32.6072C15.6027 32.6677 15.4547 32.7412 15.3806 32.8556C14.6651 33.1939 13.9577 33.5762 13.2586 34.006C6.11114 38.4293 2.75702 46.1763 3.40843 53.6635C3.29493 53.7583 3.18636 53.858 3.08272 53.9626C2.86559 54.1881 2.64845 54.4136 2.43295 54.6407C2.40334 54.6619 2.38032 54.6897 2.36058 54.7175C1.91314 55.1963 1.4838 55.6897 1.1071 56.229C0.59386 56.9872 0.0131805 57.8156 2.06247e-05 58.7601C-0.0230092 59.3353 0.278023 59.8582 0.602085 60.3141C1.12848 60.8762 1.94933 61.02 2.68793 61.0592C3.38376 61.1017 4.08287 61.0151 4.77212 60.9154C4.93004 60.8746 5.15212 60.8468 5.33142 60.7765C6.45659 63.1508 8.05716 65.3584 10.1446 67.2539C10.2384 67.3536 10.3355 67.4532 10.4358 67.5447C10.8948 68.0562 11.306 68.6232 11.334 69.3389C11.3554 69.8063 11.3142 70.2785 11.1909 70.7311C11.153 70.906 11.0576 71.1282 11.0625 71.3145C10.7352 72.125 10.4029 72.9322 10.0098 73.7165C8.29075 77.5565 6.5191 81.354 4.63066 85.1189C3.97595 86.5029 3.30151 87.8788 2.65832 89.2694C2.4494 89.7122 2.24378 90.1566 2.03322 90.5978C1.91972 90.8103 1.75687 91.1142 1.87201 91.325C1.88682 91.5603 2.13028 91.7711 2.39841 91.6469C3.74236 91.7858 5.09783 91.6779 6.44507 91.7237C7.93214 91.74 9.40769 91.9018 10.8931 91.9606C12.14 91.9802 13.3836 91.8871 14.6305 91.8969C15.657 92.8528 17.3431 92.7695 18.6772 92.8839C19.401 92.9819 20.1314 93.0113 20.8601 93.0031C23.8375 92.9917 26.7475 92.4819 29.7331 92.4852C30.7234 92.4476 31.7614 92.3855 32.7402 92.1763C33.1909 92.1061 33.6219 91.9688 34.0019 91.7613C34.0216 91.7645 34.0397 91.7678 34.0611 91.7678C36.0417 91.7433 38.0173 91.8593 39.9978 91.8822C41.5047 91.8691 43.0082 91.8103 44.515 91.8299C44.8884 91.8299 45.2634 91.8266 45.6385 91.8332C45.9642 91.8136 46.4396 91.9704 46.6173 91.606C46.6271 91.5832 46.6321 91.5586 46.637 91.5341C46.8048 91.472 46.9759 91.3397 47.1256 91.2645C47.6224 91.0276 48.1372 90.7629 48.6192 90.4884C50.5471 89.3658 52.4899 88.2644 54.3109 86.9719C56.5859 85.5748 58.7918 84.0715 60.9961 82.5698C61.8071 82.0338 62.6921 81.5256 63.4833 80.9472C64.5525 80.256 65.5264 79.4161 66.5677 78.684C66.7387 78.5582 66.7568 78.3016 66.6137 78.148C65.9771 76.2901 65.3323 74.4159 64.4999 72.625C63.7235 71.0007 63.2267 69.2523 62.3466 67.6787C61.7363 66.7048 61.4123 65.5953 60.9089 64.5675C60.4286 63.6426 60.0223 62.6589 59.5534 61.7177C61.3053 61.4612 63.026 60.9563 64.6512 60.2765C67.1467 59.1686 69.4859 57.7323 71.7313 56.193C72.9502 55.3368 74.1626 54.4675 75.24 53.438C75.9523 52.8825 76.6383 52.2795 77.2008 51.5752C77.2485 51.4968 77.2716 51.4216 77.2782 51.3497C77.4081 51.0785 77.1679 50.7222 76.8521 50.8072V50.7991ZM64.2433 45.5914C63.9258 46.7548 63.4998 47.8774 62.9372 48.9477C62.6838 49.4019 62.4305 49.8562 62.1607 50.3023C62.1015 50.4167 62.0094 50.5409 61.9502 50.6683C61.9288 50.6798 61.9091 50.6928 61.8877 50.7075C61.0273 51.2027 60.1012 51.5572 59.2277 52.0262C57.9825 52.6112 56.78 53.2665 55.4788 53.7387C52.5968 54.858 49.6588 55.8613 46.9019 57.2699C46.132 57.6637 45.3835 58.064 44.5676 58.3696C44.5364 58.3876 44.5002 58.4023 44.4623 58.417C45.1154 56.4708 45.4839 54.4299 45.5316 52.3726C45.9642 52.2109 46.3919 52.036 46.8212 51.8661C47.8066 51.5001 48.7903 51.1259 49.7756 50.7647C52.7646 49.6291 55.7305 48.4526 58.6454 47.1355C59.6834 46.642 60.7592 46.2417 61.8071 45.7711C62.5555 45.4198 63.2908 45.0456 64.0377 44.6877C64.166 44.6273 64.3321 44.5505 64.5048 44.4753C64.4374 44.8495 64.3519 45.2237 64.2433 45.593V45.5914ZM37.8232 70.3128C37.8051 69.7997 37.7031 69.2621 37.8363 68.7507C37.8775 68.5676 37.9367 68.3879 38.0124 68.2163C38.8974 67.7833 39.7626 67.3192 40.5736 66.7588C41.6149 66.146 42.7219 65.6541 43.7928 65.0953C45.1236 64.4956 46.4281 63.8387 47.7605 63.239C48.5715 62.8142 49.3693 62.3485 50.2 61.9481C50.3777 61.9138 50.5735 61.7978 50.7528 61.6932C50.7758 61.6834 50.8005 61.672 50.8235 61.6622C51.0242 61.556 51.2561 61.4955 51.442 61.3648C51.4486 61.3599 51.4519 61.3533 51.4568 61.3484C51.5506 61.3092 51.6427 61.2651 51.7233 61.2144C53.4703 61.6965 55.2929 61.9171 57.1041 61.9007C57.665 61.8975 58.2259 61.8632 58.7852 61.806C58.8642 61.971 58.9415 62.1344 59.0188 62.2995C58.4464 62.6459 57.7719 62.8256 57.2011 63.1916C55.362 64.2195 53.4028 65.0169 51.5095 65.9401C48.708 67.3078 45.9231 68.7196 43.1447 70.1363C41.9488 70.8308 40.7035 71.4436 39.4731 72.0743C39.2214 72.1871 38.9648 72.2916 38.7082 72.3929C38.4236 71.7328 38.1275 71.0775 37.8232 70.4272C37.8281 70.3912 37.8298 70.3553 37.8232 70.3161V70.3128ZM48.9252 61.6458C48.9137 61.6916 48.8989 61.739 48.8841 61.7864C48.0435 62.2521 47.2078 62.7292 46.3113 63.0871C43.9524 64.2619 41.4849 65.2603 39.2741 66.7097C41.3813 64.6541 43.023 62.1459 44.0955 59.417C44.2797 59.4072 44.4706 59.3157 44.6515 59.2928C45.5349 59.0363 46.5235 58.9823 47.3707 59.3909C48.0221 59.7503 48.5633 60.35 48.8923 61.0118C48.9383 61.2161 48.9614 61.4416 48.9252 61.6491V61.6458ZM64.694 39.6108C64.7236 40.9441 64.768 42.2824 64.6266 43.6044C64.541 43.6158 64.4604 43.6534 64.4012 43.7138C64.2236 43.7939 64.0459 43.8691 63.8682 43.9508C62.4519 44.6436 61.0109 45.3724 59.5222 45.9231C56.6106 47.294 53.5969 48.4803 50.5998 49.6683C49.2608 50.1732 47.9168 50.67 46.5761 51.1683C46.2291 51.3056 45.8836 51.4461 45.5349 51.5801C45.5316 51.2599 45.5184 50.9428 45.502 50.6275C45.7339 50.6144 46.0103 50.4494 46.2537 50.4298C47.295 50.1618 48.2902 49.7386 49.2772 49.3202C49.4795 49.2467 49.7033 49.201 49.8645 49.049C50.0109 48.9117 49.9994 48.665 49.8579 48.5294C49.7197 48.3937 49.5108 48.397 49.3644 48.5098C49.2081 48.5718 49.0453 48.6192 48.889 48.6813C48.0813 49.0392 47.2637 49.3676 46.4149 49.6209C46.2044 49.7189 45.7602 49.7582 45.4493 49.884C45.2865 48.0702 44.8983 46.3463 44.3192 44.7269C44.5068 44.6616 44.6976 44.5472 44.8489 44.4867C45.1105 44.3626 45.3753 44.2465 45.6418 44.1354C46.0975 43.9622 46.5383 43.7531 46.9973 43.588C47.0894 43.5602 47.1881 43.521 47.2753 43.4687C47.5187 43.4328 47.7704 43.3331 47.9958 43.2988C48.8067 43.0864 49.644 43.0324 50.4698 42.9034C51.5095 42.7857 52.5573 42.7318 53.5838 42.5275C55.0462 42.3135 56.6023 41.9523 57.6403 40.8428C58.1387 40.6631 58.749 39.7104 58.9547 39.4294C59.1471 39.1663 59.3659 38.962 59.634 38.7186C60.1802 38.1695 60.9237 37.8509 61.5899 37.4734C62.4568 37.0061 63.2991 36.5388 64.2022 36.1286C64.444 37.2773 64.5953 38.4506 64.694 39.6124V39.6108ZM48.2623 42.4834C48.3692 42.4017 48.4777 42.3249 48.5764 42.2334C49.4861 41.3232 50.4846 40.5078 51.4305 39.6353C52.4142 38.8003 53.4292 37.9522 54.6481 37.4767C55.0708 37.3411 55.5742 37.2855 56.0578 37.3427C56.145 37.3917 56.2536 37.413 56.3589 37.4048C56.3918 37.4081 56.4263 37.4146 56.4592 37.4179C56.9099 37.5372 57.3146 37.7708 57.5795 38.1466C58.0154 39.1712 57.7259 39.73 56.9708 40.4654C56.0776 41.3085 54.8389 41.583 53.6578 41.7644C51.8763 42.1092 50.0421 42.1272 48.2606 42.4818L48.2623 42.4834ZM58.5122 38.8052C58.5122 38.8052 58.5171 38.8035 58.5204 38.8019C58.5187 38.8052 58.5154 38.8084 58.5138 38.8101C58.5138 38.8084 58.5138 38.8068 58.5138 38.8035L58.5122 38.8052ZM62.9438 32.2821C63.1823 32.8327 63.4011 33.3932 63.6116 33.9553C63.7531 34.3671 63.8765 34.7854 63.9867 35.2086C63.7498 35.274 63.4948 35.5011 63.2876 35.5877C61.9387 36.3492 60.4286 36.877 58.8724 36.9734C58.1223 36.9979 57.3886 36.8002 56.6484 36.7071C55.6598 36.4538 54.4902 36.6205 53.7022 37.1025C52.0013 37.9881 50.6442 39.3804 49.2163 40.6304C48.838 40.9572 48.4712 41.2971 48.1191 41.6533C48.0813 41.6664 48.0435 41.6844 48.0056 41.7121C47.703 41.9687 47.4036 42.2318 47.0943 42.4801C46.9775 42.5978 46.8015 42.6893 46.7012 42.8216C46.6633 42.8576 46.6337 42.9001 46.614 42.9458C46.16 43.1239 45.7092 43.3102 45.2585 43.4965C44.8489 43.6599 44.4623 43.8691 44.0544 44.0308C43.1957 41.8853 41.9949 39.9408 40.5325 38.2431C41.0556 37.9702 41.5968 37.7283 42.1149 37.444C44.1317 36.4734 46.0843 35.372 48.0994 34.4014C49.343 33.7739 50.687 33.3818 51.9552 32.8115C52.6379 32.5517 53.2762 32.2004 53.9144 31.8507C54.8257 31.4307 55.7157 30.965 56.627 30.5467C56.7273 30.6366 56.8721 30.6774 57.007 30.6153C58.3575 30.4797 59.7525 30.6349 61.0504 31.0598C61.7725 31.3131 62.3729 31.7869 62.9405 32.2821H62.9438ZM59.2853 26.9992C59.2853 26.9992 59.2886 27.0041 59.2902 27.0057C59.2869 27.009 59.2837 27.0139 59.2787 27.0172C59.2804 27.0106 59.282 27.0041 59.2837 26.9976L59.2853 26.9992ZM58.9728 28.5238C59.7755 27.5515 60.5733 26.5842 61.5537 25.7753C62.113 25.2949 62.6954 24.772 63.406 24.5302C63.9949 24.4517 64.6661 24.3847 65.2237 24.6184C66.2946 25.4305 66.9378 26.2051 65.8669 27.3734C64.7039 28.6986 62.7743 28.8833 61.1277 29.1545C60.0535 29.2771 59.0484 29.5091 57.9907 29.6006C58.3016 29.2264 58.6487 28.8849 58.9744 28.5238H58.9728ZM54.2286 22.3046C54.5576 22.5023 54.88 22.7115 55.1942 22.937C54.8257 23.1478 54.4721 23.2981 54.0871 23.5432C53.7022 23.7932 53.3091 24.0318 52.9126 24.2638C52.6083 24.486 51.8812 24.6413 52.1296 25.1429C52.2316 25.3129 52.4685 25.375 52.6379 25.2687C53.0278 25.04 53.4259 24.8227 53.8124 24.5857C54.1974 24.3586 54.5593 24.1004 54.9573 23.8945C55.135 23.8046 55.3538 23.6903 55.5676 23.5693C55.6499 23.5236 55.7404 23.4729 55.8177 23.4141C55.8621 23.4501 55.9081 23.4844 55.9526 23.522C56.2849 23.7916 56.6188 24.0612 56.9445 24.339C56.9609 24.37 56.979 24.4011 57.007 24.4321C57.2373 24.7197 57.3837 25.0678 57.4939 25.4354C57.7143 26.3341 57.7291 27.3146 57.41 28.1937C57.1995 28.7525 56.8047 29.2313 56.5316 29.7754C56.4362 29.8228 56.3424 29.8702 56.2585 29.9029C54.3783 30.7559 52.6067 31.8 50.6771 32.5517C48.1339 33.4128 45.8096 34.7544 43.426 35.9652C42.4834 36.444 41.5408 36.9211 40.595 37.3901C40.4486 37.4734 40.2183 37.5617 40.0307 37.6793C38.4532 35.9783 36.6059 34.5468 34.5776 33.4406C34.7701 33.3148 34.9609 33.189 35.1517 33.0615C35.8476 32.6154 36.5072 32.2477 37.2195 31.8017C39.5537 30.2395 42.1067 29.0189 44.5512 27.6316C45.5842 27.1136 46.5367 26.46 47.5648 25.9338C48.1208 25.6119 48.713 25.3717 49.2953 25.1053C50.2527 24.5236 51.2709 24.0546 52.2283 23.4141C52.7448 23.1298 53.291 22.901 53.7927 22.5889C53.9243 22.5137 54.102 22.4206 54.2319 22.3062L54.2286 22.3046ZM35.1616 27.3848C35.2471 27.2378 35.2011 27.1201 35.2274 26.9469C35.3047 25.4632 35.8097 24.0105 36.1848 22.5758C36.6388 20.8781 37.5337 19.347 38.3923 17.8273C38.9253 16.842 39.5537 15.9106 40.3203 15.0886C41.6412 13.5118 43.2039 12.1653 44.9032 10.9545C46.4544 9.82376 48.152 8.90543 49.9105 8.12599C50.1984 8.02958 50.4797 7.90539 50.7511 7.76486C51.3153 7.52956 51.8829 7.30733 52.4537 7.09491C52.4537 7.09491 52.4553 7.09491 52.457 7.09491C52.0128 7.69297 51.6312 8.33841 51.2331 8.96425C50.8367 9.57865 50.4682 10.2045 50.1046 10.8385C49.3496 12.1 48.7525 13.4562 48.231 14.8272C47.6076 16.4057 47.1815 18.2293 47.8082 19.8715L47.8 19.8454C47.8658 20.0561 48.0451 20.1297 48.2096 20.1035C48.4284 20.1591 48.6817 20.1231 48.8989 20.1836C50.4961 20.5856 52.0638 21.1297 53.513 21.8977C53.4489 21.9418 53.3831 21.9827 53.3206 22.0121C52.5507 22.4288 51.7743 22.7899 51.0489 23.2866C50.2609 23.6919 49.4943 24.1609 48.7064 24.5694C48.1241 24.7883 47.5812 25.089 47.0335 25.3799C45.3918 26.3178 43.7533 27.2557 42.0903 28.1561C39.8284 29.2689 37.708 30.6268 35.5646 31.9438C35.0695 32.2265 34.6007 32.55 34.1187 32.8556C34.0364 32.9177 33.9262 32.9798 33.8209 33.0468C32.3816 32.3327 30.8616 31.7788 29.2906 31.3997C29.363 31.3523 29.4354 31.3049 29.5061 31.2526C30.2859 30.6644 31.1264 30.1627 31.9095 29.5794C32.7517 29.0107 33.5906 28.4437 34.4115 27.8456C34.6533 27.6822 34.979 27.6234 35.1616 27.3848ZM23.9708 29.2558C23.9954 29.1774 24.0448 29.1169 24.0908 29.0548C24.9446 28.5957 25.8 28.1365 26.6504 27.6659C27.6308 27.0923 28.5997 26.4698 29.6098 25.9354C30.5063 25.455 31.4258 24.9779 32.3075 24.455C32.4178 24.4648 32.5362 24.4615 32.6382 24.4844C32.9573 24.5416 33.2715 24.7213 33.515 24.9338C33.9624 25.3619 34.1943 25.9763 34.3013 26.5743C34.3177 26.6985 34.3292 26.8211 34.3128 26.9453C34.3095 26.9845 34.3144 27.0221 34.3243 27.058C33.7732 27.3456 33.2912 27.7509 32.7797 28.1038C31.9374 28.6463 31.1297 29.2378 30.3056 29.8049C29.8828 30.0451 29.5012 30.349 29.108 30.63C28.9254 30.8 28.5224 30.9683 28.3086 31.1889C27.8694 31.1056 27.4269 31.0337 26.9811 30.9781C27.0123 30.9601 27.0419 30.9454 27.0732 30.9323C27.9697 30.3915 28.8695 29.7673 29.7249 29.1186C30.2661 28.679 30.9142 28.3832 31.4472 27.9273C31.7746 27.5678 31.2515 27.0793 30.9126 27.4191C30.0342 28.0139 29.1459 28.6055 28.3004 29.2525C27.5321 29.8049 26.6998 30.2509 25.9365 30.8131C25.9711 30.7885 25.9711 30.7902 25.9694 30.7902C25.9365 30.8114 25.9102 30.8392 25.8855 30.867C25.42 30.8327 24.9512 30.8147 24.4823 30.8114C24.3327 30.7019 24.2159 30.5516 24.0941 30.4144C23.8457 30.0843 23.8474 29.6365 23.9708 29.2542V29.2558ZM4.12235 60.0772C4.08781 60.1376 4.0582 60.2062 4.03846 60.2749C3.17649 60.3876 2.2553 60.3762 1.51505 60.0657C1.15974 59.9415 1.01333 59.5967 0.850478 59.2879C0.69914 58.9856 0.715589 58.5771 0.820868 58.2552C1.26172 57.1424 1.99703 56.193 2.80966 55.3155C3.73414 55.5427 4.1388 58.4088 4.17993 59.1572C4.19309 59.4611 4.22763 59.7847 4.12235 60.0772ZM34.9395 88.3151C34.8063 89.289 34.7191 90.4687 33.793 91.039C32.5724 91.6616 31.1051 91.66 29.7545 91.7449C26.6751 91.7384 23.6368 92.2907 20.5525 92.2613C19.8418 92.2809 19.1411 92.1812 18.4337 92.1257C17.7017 92.1011 16.9697 92.0489 16.2541 91.8838C15.8692 91.7989 15.3576 91.6404 15.0796 91.3168C14.6091 90.8233 14.6058 90.1044 14.5581 89.4654C14.5516 89.2743 14.545 89.0912 14.5384 88.9115C14.545 88.8298 14.5433 88.7465 14.5318 88.6648C14.5285 88.4393 14.5285 88.2105 14.5368 87.9588C14.5647 86.9441 14.5565 85.9294 14.5483 84.9163C14.568 83.7904 14.4249 82.6874 14.4381 81.5583C14.4611 79.738 14.5252 77.9144 14.3607 76.0973C14.3377 74.7852 14.3509 73.4747 14.3262 72.1625C14.392 70.9468 14.1864 69.5857 14.8641 68.5072C15.4876 68.0464 16.3101 68.0742 17.0536 67.9059C18.3712 67.6673 19.7004 67.5104 21.0345 67.3846C22.9344 67.1689 24.8229 67.0823 26.7343 66.9336C27.8513 66.8601 28.9616 66.9336 30.0786 66.9189C30.9619 66.8911 31.972 66.6607 32.7319 67.2817C33.1021 67.9042 33.2238 68.6363 33.3998 69.3291C33.6811 70.6412 33.8851 71.9665 34.1121 73.2884C34.3029 74.8293 34.4065 76.38 34.5727 77.9258C34.8359 81.3769 35.1632 84.8444 34.9346 88.3151H34.9395ZM42.0952 91.0864C41.3467 91.1224 40.5966 91.1616 39.8449 91.1387C39.4057 91.1322 38.9681 91.1224 38.5289 91.1093C38.4466 91.0456 38.3496 90.9933 38.264 90.9426C37.889 90.6991 37.5616 90.3887 37.2557 90.0651C36.7145 89.4524 36.2308 88.7579 36.0005 87.967C35.8525 87.6418 35.7982 87.302 35.739 86.9556C35.7488 86.5111 35.7521 86.0666 35.762 85.6254C35.7242 83.5355 35.5909 81.408 35.4231 79.3C35.1731 76.1071 34.9066 72.906 34.2437 69.767C33.6433 66.9091 33.4919 65.8323 30.2036 66.1819C29.0209 66.1966 27.8414 66.1198 26.6603 66.1999C24.206 66.3633 21.7484 66.5496 19.299 66.811C18.289 66.999 17.2609 67.0741 16.2541 67.298C15.731 67.383 15.1421 67.4859 14.6618 67.7376C13.9429 68.1559 13.8047 69.0742 13.6649 69.8242C13.53 71.4027 13.6238 72.9943 13.6008 74.5793C13.586 75.9045 13.7225 77.2215 13.734 78.5468C13.7208 79.6105 13.7143 80.6759 13.6962 81.7397C13.757 83.3917 13.8459 85.0568 13.8146 86.7235C13.8278 87.1957 13.8031 87.7742 13.7932 88.3755C13.6073 88.8298 13.2586 89.1942 13.002 89.6125C12.7273 89.9442 12.3325 90.1452 11.9722 90.3723C10.6529 91.1028 9.0935 90.9867 7.63604 90.9737C6.20162 90.959 4.76719 90.8397 3.33441 90.9246C3.13372 90.9165 2.93467 90.8576 2.73563 90.8331C3.00047 90.2923 3.24393 89.7416 3.50384 89.1991C3.98089 88.1958 4.42832 87.2431 4.91359 86.2317C5.88413 84.2185 6.90074 82.2217 7.85976 80.1988C8.85004 77.9503 9.93409 75.7427 10.9293 73.4943C11.4162 72.5351 11.7469 71.5138 12.1746 70.5301C12.321 70.2099 12.4394 69.8781 12.5907 69.5579C12.673 69.3798 12.7799 69.1902 12.7339 68.9909C12.7289 68.9647 12.7223 68.9386 12.7141 68.9157C12.7371 68.749 12.7026 68.5824 12.5694 68.4631C12.3193 68.2408 12.0676 68.017 11.8176 67.7931C11.8011 67.7212 11.7584 67.6509 11.6827 67.5921C11.4294 67.3944 11.1843 67.1836 10.9425 66.9728C10.88 66.9173 10.8191 66.8601 10.7566 66.8045C10.7171 66.762 10.6776 66.7195 10.6381 66.6771C10.4358 66.4532 10.1989 66.2555 9.99002 66.0349C9.9637 66.0006 9.92093 65.9761 9.87322 65.9581C9.02112 65.0904 8.22659 64.1345 7.54886 63.1394C5.01394 59.435 3.78184 54.9119 4.10097 50.42C4.91524 39.2202 14.2275 31.6677 24.2586 31.5565C24.3294 31.568 24.4001 31.5696 24.4675 31.5565C27.5025 31.5549 30.5968 32.2347 33.538 33.702C33.6104 33.7985 33.7173 33.8475 33.8275 33.8491C34.5052 34.2004 35.1764 34.5926 35.8344 35.0305C44.2797 40.6614 47.2374 51.8644 42.6298 60.8958C41.4504 63.2129 39.8597 65.262 37.8758 67.0006C37.4843 67.3421 37.0435 67.6983 36.5878 68.0366C36.5319 68.0774 36.494 68.133 36.471 68.1934C36.2983 68.2196 36.142 68.3552 36.1469 68.5578C36.4348 69.3879 36.9267 70.1478 37.2622 70.9828C37.7574 71.9583 38.1209 72.9894 38.5832 73.9796C39.6738 76.7722 40.9355 79.4978 42.0146 82.2969C43.176 85.2659 44.5495 88.1468 45.7816 91.0848C44.5594 91.1142 43.3191 91.0766 42.0936 91.0848L42.0952 91.0864ZM64.4999 74.509C65.0477 75.7297 65.4145 77.0059 65.8751 78.2641C65.8521 78.2804 65.8307 78.2967 65.8093 78.3115C65.426 78.5876 65.0576 78.8817 64.6858 79.171C63.5129 80.0664 62.289 80.8949 61.0257 81.6629C59.5715 82.6204 58.1322 83.645 56.6616 84.596C54.3619 86.0487 52.128 87.6059 49.7691 88.9622C48.9153 89.4524 48.0797 89.9736 47.1963 90.4115C47.0269 90.5145 46.7077 90.624 46.4643 90.7727C46.2916 90.3495 46.0876 89.9377 45.9214 89.5112C45.2388 87.9507 44.538 86.3983 43.8652 84.8329C44.4048 84.5845 44.9147 84.2839 45.4197 83.9718C46.3935 83.3868 47.3888 82.8443 48.3593 82.2528C50.6656 80.8916 53.0278 79.6236 55.3686 78.3196C56.0348 77.9405 56.6648 77.4977 57.3574 77.166C58.1832 76.7591 59.027 76.3947 59.8446 75.9486C60.8776 75.331 61.9913 74.8702 63.049 74.2982C63.4011 74.0825 63.8222 73.9404 64.1577 73.6969C64.2729 73.9665 64.388 74.2378 64.5016 74.5074L64.4999 74.509ZM61.7577 68.133C61.8729 68.3356 61.9847 68.5399 62.0867 68.749C62.6575 70.1723 63.2596 71.5841 63.86 72.9959C63.5294 73.2361 63.1543 73.4093 62.7908 73.6005C61.9502 74.0727 61.0537 74.4339 60.2098 74.9012C58.9366 75.6627 57.5498 76.1954 56.2585 76.9209C53.6545 78.5124 50.9189 79.8801 48.2952 81.4357C46.767 82.3149 45.2667 83.2463 43.7204 84.0894C43.6711 84.1074 43.6217 84.1287 43.5757 84.1548C43.3273 83.5649 43.0822 82.9717 42.847 82.3753C42.3288 81.0615 41.7909 79.7576 41.2431 78.4552C41.4553 78.4193 41.6922 78.2771 41.8748 78.2069C42.1626 78.0778 42.4423 77.9389 42.7252 77.8033C44.7963 76.7575 46.8788 75.728 48.9235 74.63C50.5685 73.7688 52.23 72.9453 53.8634 72.0612C54.9985 71.5171 56.1615 71.04 57.2899 70.4795C57.7489 70.2687 58.1651 69.968 58.6224 69.7393C58.9547 69.5857 59.2886 69.4402 59.6044 69.2556C60.2016 68.8242 60.8777 68.5529 61.5554 68.2752C61.6311 68.2408 61.7001 68.1918 61.7561 68.133H61.7577ZM60.2657 64.927C60.5618 65.5381 60.7938 66.1803 61.0668 66.8029C61.1606 67.0398 61.2741 67.2653 61.3958 67.4875C61.335 67.5137 61.2774 67.5545 61.2346 67.6101C60.8053 67.8176 60.343 67.9467 59.9285 68.1869C59.2869 68.6281 58.5796 68.9402 57.892 69.2948C57.5696 69.486 57.2669 69.6804 56.9264 69.8406C55.3209 70.6233 53.615 71.2851 52.0589 72.1903C49.4927 73.4943 46.9561 74.8538 44.3834 76.1431C43.6629 76.4977 42.9572 76.8817 42.2317 77.2264C41.8386 77.4127 41.4389 77.6105 41.0276 77.7624C41.0046 77.7706 40.9848 77.7804 40.9651 77.7935C40.5835 76.8915 40.2002 75.9911 39.8136 75.0908C39.5537 74.4143 39.2823 73.741 39.001 73.0727C39.1178 73.0237 39.2329 72.9665 39.3333 72.9322C39.9913 72.6691 40.6081 72.3145 41.2382 71.991C42.2136 71.5187 43.1414 70.9599 44.1054 70.4697C47.8181 68.5758 51.5391 66.7016 55.3291 64.9597C56.2865 64.5332 57.2044 64.0299 58.1239 63.5299C58.5319 63.3501 58.9448 63.1835 59.3412 62.9792C59.6439 63.6279 59.9449 64.2766 60.2707 64.927H60.2657ZM74.638 52.9756C73.8747 53.7305 72.993 54.3482 72.1244 55.0002C71.1407 55.7126 70.1406 56.4022 69.0927 57.0199C67.4247 58.0738 65.7024 59.0444 63.8715 59.7928C61.4962 60.7046 58.9448 61.2569 56.3901 61.154C53.7812 61.1017 51.1805 60.5004 48.8528 59.3206C48.3313 59.0428 47.8099 58.7536 47.3493 58.3827C47.2078 58.283 47.0696 58.1817 46.9298 58.0787C47.3526 57.863 47.7753 57.6457 48.2047 57.4431C49.4499 56.8434 50.7462 56.3515 52.0309 55.8401C53.6611 55.1848 55.3291 54.6243 56.9461 53.9348C58.3937 53.2844 59.7887 52.5099 61.2461 51.8808C61.5159 51.7354 61.7857 51.5899 62.0571 51.4478C62.2232 51.6961 62.4947 51.9363 62.6378 52.0965C63.3484 52.8808 64.3403 53.3171 65.3273 53.6603C65.931 53.8792 66.5759 54.0426 67.2257 54.0688C69.0516 54.1897 70.9121 54.0083 72.6722 53.4936C73.5638 53.1864 74.4406 52.8318 75.296 52.4331C75.0805 52.6177 74.86 52.7975 74.6396 52.9772L74.638 52.9756Z" fill="black"/>
<path d="M65.0016 26.7752C65.2039 26.7752 65.3635 26.5824 65.352 26.3896C65.3421 26.182 65.1661 26.0415 64.9638 26.0415C64.7614 26.0415 64.6019 26.2343 64.6134 26.4271C64.6232 26.6347 64.7993 26.7752 65.0016 26.7752Z" fill="black"/>
<path d="M54.6135 40.6355C55.2403 40.3757 55.9624 40.1927 56.4625 39.7253C56.7948 39.2792 56.1598 38.8119 55.8571 39.2858C55.4262 39.5456 54.9524 39.7172 54.4852 39.9002C54.2566 39.9508 54.069 40.1534 54.1464 40.3969C54.2056 40.5848 54.4244 40.7025 54.6119 40.6355H54.6135Z" fill="black"/>
<path d="M52.6298 40.343C52.4274 40.343 52.2679 40.5358 52.2794 40.7287C52.2893 40.9362 52.4653 41.0767 52.6676 41.0767C52.8699 41.0767 53.0295 40.8839 53.018 40.6911C53.0081 40.4835 52.8321 40.343 52.6298 40.343Z" fill="black"/>
<path d="M62.3235 28.4714C63.0062 28.2639 63.6823 27.9779 64.2514 27.5432C64.661 27.2818 64.286 26.6756 63.8665 26.9158C63.3977 27.272 62.8532 27.5253 62.2939 27.7099C61.9896 27.8112 61.45 27.8553 61.5652 28.3047C61.6869 28.6707 62.0472 28.5613 62.3235 28.4714Z" fill="black"/>
<path d="M56.1796 4.92511C56.2421 4.9774 56.3227 5.00845 56.4099 5.00845C57.4742 4.96106 58.5451 5.02642 59.6061 4.90714C60.6967 4.91694 61.8268 4.76334 62.822 4.30254C64.0229 3.7633 64.9556 2.34005 64.3716 1.04916C64.0788 0.560578 63.5294 0.27462 63.0145 0.0638285C61.5587 -0.289125 60.2641 0.911897 59.1833 1.71585C58.045 2.55901 56.7915 3.29433 55.8522 4.37117C55.696 4.6032 55.9098 4.94308 56.1796 4.92348V4.92511ZM59.2031 2.61457C60.2361 1.90213 61.182 0.87268 62.4931 0.722348C62.8105 0.704374 63.0869 0.906995 63.3517 1.05733C63.5014 1.16681 63.6774 1.27792 63.7449 1.4593C64.0459 2.47731 63.2053 3.36133 62.3203 3.73226C61.4666 4.03619 60.5668 4.19633 59.6489 4.17182C58.7737 4.27639 57.8937 4.22901 57.0153 4.26005C57.6798 3.62931 58.4645 3.15054 59.2047 2.61457H59.2031Z" fill="black"/>
<path d="M62.0884 2.96763C62.3598 2.81566 62.6757 2.69148 62.878 2.448C63.0935 2.06727 62.6066 1.73719 62.3204 1.98393C62.3236 1.98067 62.3253 1.9774 62.3286 1.97576C62.1246 2.11793 61.9124 2.23721 61.6772 2.34833C61.4518 2.41696 61.2692 2.62938 61.3663 2.87122C61.5094 3.19803 61.84 3.11633 62.0868 2.96763H62.0884Z" fill="black"/>
<path d="M60.4696 3.47726C60.672 3.47726 60.8414 3.31386 60.843 3.11287C60.843 2.91352 60.6785 2.74194 60.4762 2.74194C60.2739 2.74194 60.1044 2.90535 60.1028 3.10634C60.1028 3.30569 60.2673 3.47726 60.4696 3.47726Z" fill="black"/>
<path d="M84.5341 43.6309C83.7873 43.8809 83.1754 44.3793 82.5996 44.8989C81.685 45.7208 80.9135 46.6784 80.2473 47.7062C80.2572 47.6915 80.2605 47.6882 80.2769 47.6653C80.0252 48.0477 79.7587 48.4186 79.5038 48.7977C79.3936 48.9791 79.1517 49.1735 79.2488 49.4137C79.1698 49.5167 79.1501 49.6589 79.1978 49.7781C79.3968 50.2095 79.915 49.9187 80.2522 49.8484C81.7722 49.3974 83.2741 48.8288 84.618 47.9807C85.4603 47.4006 86.7121 46.5689 86.9687 45.5378C87.2286 43.9217 86.0064 43.1782 84.5374 43.6325L84.5341 43.6309ZM86.1528 45.644C84.7069 47.5035 82.3808 48.4055 80.1864 49.0984C81.1504 47.6588 82.1341 46.1669 83.5192 45.0786C84.0472 44.6391 84.6937 44.2044 85.4126 44.242C85.633 44.273 85.8929 44.291 86.0525 44.461C86.2828 44.7959 86.3337 45.278 86.1528 45.6456V45.644Z" fill="black"/>
<path d="M84.6081 45.2124C84.5078 45.2124 84.414 45.2369 84.3383 45.3055C84.2659 45.3693 84.2215 45.4608 84.215 45.5556C84.2034 45.7451 84.3597 45.9461 84.5604 45.9461C84.6607 45.9461 84.7545 45.9216 84.8302 45.8529C84.9026 45.7892 84.947 45.6977 84.9536 45.6029C84.9651 45.4134 84.8088 45.2124 84.6081 45.2124Z" fill="black"/>
<path d="M61.812 75.7853C61.5192 75.9487 61.2215 76.1072 60.9303 76.2722C60.756 76.3719 60.6819 76.5892 60.7773 76.769C60.8695 76.9422 61.1047 77.019 61.2774 76.9209C61.6048 76.7265 61.9502 76.5631 62.2743 76.3621C62.6888 76.1219 63.1198 75.9111 63.5245 75.6546C63.7778 75.5353 64.0805 75.3424 63.9176 75.0222C63.6873 74.6267 63.2777 74.9437 63.0047 75.1104C62.6411 75.331 62.2151 75.5369 61.812 75.7836V75.7853Z" fill="black"/>
<path d="M59.9827 76.7756C59.7804 76.7756 59.6093 76.9309 59.6044 77.1351C59.5994 77.3312 59.7639 77.511 59.9663 77.511C60.1686 77.511 60.3397 77.3557 60.3446 77.1515C60.3495 76.9554 60.185 76.7756 59.9827 76.7756Z" fill="black"/>
<path d="M49.6145 78.939C49.2871 79.1318 48.9433 79.2887 48.616 79.4831C48.2903 79.6547 47.9547 79.8083 47.6257 79.975C47.4447 80.0632 47.3806 80.3001 47.4727 80.4717C47.5698 80.6547 47.7951 80.7103 47.9728 80.6237C48.4844 80.3786 48.9877 80.122 49.4845 79.8459C49.6688 79.756 49.8481 79.6596 50.0224 79.5518C50.3037 79.3949 50.6722 79.2887 50.4962 78.8851C50.2906 78.5158 49.8711 78.7772 49.6128 78.9406L49.6145 78.939Z" fill="black"/>
<path d="M55.1646 65.9337C54.7073 66.1608 54.2351 66.3569 53.7795 66.5857C53.4044 66.7752 53.0425 66.9844 52.6642 67.1674C52.4849 67.2605 52.4174 67.4893 52.5112 67.6641C52.753 68.0726 53.1906 67.7099 53.49 67.5743C53.7992 67.401 54.1151 67.2344 54.4391 67.0889C54.7204 66.95 54.9392 66.8389 55.2468 66.7147C55.5478 66.6004 55.9097 66.3765 55.6811 66.0203C55.5676 65.8536 55.3258 65.8209 55.1646 65.9337Z" fill="black"/>
<path d="M51.4519 67.8682C51.2496 67.8682 51.0785 68.0234 51.0736 68.2277C51.0687 68.4237 51.2332 68.6035 51.4355 68.6035C51.6378 68.6035 51.8089 68.4483 51.8138 68.244C51.8188 68.0479 51.6543 67.8682 51.4519 67.8682Z" fill="black"/>
<path d="M66.5429 56.9283C65.3404 57.6424 64.0869 58.2519 62.7216 58.6114C62.4222 58.6996 62.1212 58.7829 61.8168 58.8467C61.5158 58.9104 61.1523 58.9513 61.2115 59.3532C61.2526 59.5558 61.4549 59.6719 61.649 59.6375C62.1376 59.5411 62.6179 59.4055 63.0966 59.265C64.411 58.9218 65.6151 58.3025 66.7913 57.6424C67.0627 57.5313 67.3045 57.211 67.066 56.9479C66.9344 56.8058 66.6843 56.7845 66.5429 56.9267V56.9283Z" fill="black"/>
<path d="M59.9761 59.2539C59.7738 59.2539 59.5978 59.3928 59.5863 59.6003C59.5748 59.7931 59.7343 59.9876 59.935 59.9876C60.1357 59.9876 60.3134 59.8487 60.3249 59.6412C60.3364 59.4484 60.1768 59.2539 59.9761 59.2539Z" fill="black"/>
<path d="M62.5966 46.2728C61.8596 46.5114 61.2312 46.9901 60.5222 47.299C60.236 47.4428 60.3051 47.9085 60.616 47.9722C60.7114 47.9984 60.8052 47.9787 60.894 47.9346C61.4089 47.6961 61.9024 47.4134 62.3992 47.1388C62.6673 46.9918 63.0177 46.9836 63.2052 46.7189C63.4766 46.3022 62.942 45.9247 62.5982 46.2728H62.5966Z" fill="black"/>
<path d="M59.5897 47.9577C59.1834 47.6521 58.6175 48.4005 59.0288 48.7028C59.4351 49.0083 60.001 48.26 59.5897 47.9577Z" fill="black"/>
<path d="M52.0785 33.6941C51.5192 33.882 51.0208 34.1974 50.5109 34.4866C50.0157 34.7497 49.5206 35.0111 49.0254 35.2759C48.8297 35.3543 48.7129 35.5651 48.7984 35.7693C49.0583 36.2775 49.6012 35.7759 49.9401 35.6223C50.7593 35.2301 51.5077 34.6925 52.3615 34.3755C52.549 34.3003 52.6395 34.0797 52.5622 33.8951C52.4848 33.7088 52.2661 33.6206 52.0785 33.6957V33.6941Z" fill="black"/>
<path d="M48.0089 35.9017C47.6141 35.6059 47.091 36.2841 47.4957 36.5782C47.8889 36.874 48.4153 36.1975 48.0089 35.9017Z" fill="black"/>
<path d="M51.0406 25.558C50.5504 25.4436 50.376 26.2443 50.8547 26.3603C51.34 26.478 51.5193 25.6675 51.0406 25.558Z" fill="black"/>
<path d="M43.296 14.3992C43.5378 14.1656 43.7763 13.9286 44.0181 13.695C45.2897 12.7145 46.5053 11.6165 47.9825 10.9449C48.3395 10.7374 48.1125 10.1834 47.7128 10.2716C46.9067 10.5919 46.1862 11.1034 45.4871 11.6067C44.7452 12.2309 43.9128 12.7521 43.2252 13.4384C42.9917 13.7031 42.4126 14.0234 42.7729 14.4107C42.9209 14.5512 43.1529 14.5398 43.296 14.3992Z" fill="black"/>
<path d="M42.0244 15.5217C42.2267 15.5217 42.3896 15.342 42.3863 15.1459C42.3814 14.9416 42.2086 14.7864 42.0079 14.7864C41.8073 14.7864 41.6428 14.9661 41.646 15.1622C41.651 15.3665 41.8237 15.5217 42.0244 15.5217Z" fill="black"/>
<path d="M32.4277 27.2085C32.63 27.2085 32.7929 27.0287 32.7896 26.8326C32.7847 26.6284 32.6119 26.4731 32.4113 26.4731C32.2106 26.4731 32.0461 26.6529 32.0494 26.849C32.0543 27.0532 32.227 27.2085 32.4277 27.2085Z" fill="black"/>
<path d="M40.4633 52.6637C40.4748 52.6261 40.4797 52.5918 40.4814 52.5591C40.5176 52.4643 40.5505 52.3744 40.5834 52.2993C40.7758 51.6996 40.8301 50.961 40.5455 50.3793C40.2757 49.8596 39.7905 49.358 39.2016 49.2371C39.1522 49.2175 39.0979 49.2077 39.042 49.2109C39.0354 49.2109 39.0305 49.2126 39.0239 49.2126C38.9631 49.2093 38.9022 49.2077 38.8397 49.2126C38.5699 49.2648 38.3396 49.3711 38.1406 49.5132C37.8379 48.9511 37.4826 48.4168 37.0878 47.9135C36.2439 46.8416 35.2026 45.9053 34.0544 45.1258C27.1504 40.5162 16.2754 41.0619 10.7104 47.5295C10.1001 48.2697 9.58526 49.0851 9.19375 49.9577C8.95194 49.8515 8.6838 49.7992 8.42554 49.7877C7.68036 49.8515 6.88254 50.358 6.73121 51.1228C6.6358 51.662 6.72134 52.2045 6.92038 52.711C6.93354 52.7617 6.95163 52.8222 6.97137 52.8826C6.97137 52.9267 6.97631 52.9709 6.99276 53.0133C7.06349 53.1915 7.13916 53.3679 7.22141 53.5411C10.2054 59.458 17.7329 61.7538 23.9904 61.7489C30.2874 61.731 38.3314 59.1835 40.4649 52.6604L40.4633 52.6637ZM36.3607 48.1962C36.3738 48.2485 36.4002 48.3024 36.4446 48.3547C36.8871 49.1488 37.0763 50.1064 36.8262 50.992C36.7522 51.3025 36.6453 51.6032 36.5318 51.9022C36.4775 51.9823 36.4512 52.077 36.4528 52.1669C34.265 55.1066 30.669 56.8223 26.9777 57.4416C30.1229 55.9661 32.2137 52.479 31.3698 48.6488C30.7546 45.9183 28.9073 43.9951 26.6651 43.0833C30.3861 43.6552 33.9426 45.3088 36.359 48.1962H36.3607ZM29.9732 46.9805C32.3782 51.4054 29.3859 56.9612 24.3243 57.4122C17.9829 57.9792 14.0892 50.6946 18.1227 45.7941C21.3206 41.9067 27.6011 42.5179 29.9716 46.9788L29.9732 46.9805ZM10.3962 50.1913C10.4193 49.8057 10.49 49.4446 10.592 49.0688C10.6232 48.9544 10.6907 48.8514 10.7269 48.7387C12.9295 45.5523 16.7344 43.7222 20.5376 43.0996C19.4371 43.5653 18.4106 44.3023 17.5503 45.3317C14.2669 49.2436 15.6733 55.1817 20.1247 57.3615C16.435 56.6589 12.89 54.868 10.6825 51.8434C10.6825 51.8303 10.6825 51.8189 10.6792 51.8042C10.5328 51.2813 10.3683 50.7437 10.3962 50.1913ZM23.9197 61.0185C17.9862 61.0267 10.4555 58.7537 7.784 53.0003C7.77084 52.9643 7.75768 52.9267 7.74287 52.8908C7.47474 52.0574 7.03388 50.9528 8.17879 50.5917C8.44364 50.4577 8.73644 50.5655 8.98977 50.6734C8.99471 50.6783 8.99964 50.6832 9.00622 50.6881C9.04241 50.7714 9.10821 50.8417 9.1921 50.8793C9.22171 50.9152 9.25132 50.9512 9.28093 50.9888C9.28751 51.01 9.29574 51.0312 9.30561 51.0509C9.605 51.6048 9.95373 52.1293 10.3419 52.6261C11.0032 53.4692 11.7862 54.2291 12.6449 54.8909C15.8378 57.3387 19.924 58.4678 23.9262 58.44C29.4764 58.4188 35.6731 55.9612 38.1603 50.7731C38.338 50.528 38.4992 50.2583 38.7525 50.0721C38.8347 50.0312 38.917 49.9806 39.0075 49.9577C39.1391 49.9659 39.269 50.023 39.4006 50.1227C39.9533 50.51 40.0833 51.1897 39.955 51.8172C39.9237 51.9953 39.8464 52.1408 39.7724 52.3336C39.6901 52.4806 39.6062 52.6506 39.6276 52.8026C37.471 58.6835 29.7182 61.0447 23.918 61.0185H23.9197Z" fill="black"/>
<path d="M37.6208 53.0673C37.152 53.7781 36.6618 54.4889 36.017 55.0575C35.7604 55.3043 35.484 55.5249 35.1813 55.716C35.0135 55.8255 34.979 56.069 35.0925 56.2275C35.4643 56.6883 36.0762 55.9464 36.3937 55.7144C37.1076 55.0935 37.6883 54.3385 38.1884 53.5411C38.491 53.162 37.94 52.7061 37.6225 53.0673H37.6208Z" fill="black"/>
<path d="M34.0495 56.4904C33.8472 56.4969 33.6942 56.693 33.709 56.8858C33.7254 57.0933 33.9048 57.229 34.1071 57.2241C34.3094 57.2175 34.4624 57.0214 34.4476 56.8286C34.4311 56.6211 34.2518 56.4855 34.0495 56.4904Z" fill="black"/>
<path d="M17.9878 58.2208C16.8166 57.9283 15.6141 57.5394 14.5926 56.8744C14.4215 56.7682 14.1895 56.8221 14.0826 56.992C13.8178 57.5068 14.614 57.6963 14.9298 57.9251C15.8822 58.3826 16.8923 58.7258 17.922 58.9578L17.8661 58.9431C18.4139 59.0967 18.5553 58.2699 17.9878 58.2208Z" fill="black"/>
<path d="M12.951 55.8679C12.4378 55.8679 12.4542 56.6212 12.9675 56.6048C13.4807 56.6048 13.4643 55.8532 12.951 55.8679Z" fill="black"/>
<path d="M30.197 41.9606C31.6397 42.3397 32.8948 43.1093 34.2042 43.8054C34.5003 43.9704 34.7076 44.2695 35.0497 44.3479C35.2422 44.3904 35.4478 44.2646 35.4906 44.0685C35.5334 43.8724 35.4051 43.673 35.2093 43.6306C35.1748 43.624 35.1501 43.5962 35.1221 43.5766C34.6122 43.1109 33.9542 42.8691 33.3702 42.5129C32.4342 42.0177 31.4834 41.5422 30.452 41.271C29.9865 41.1207 29.748 41.7939 30.1987 41.9622L30.197 41.9606Z" fill="black"/>
<path d="M29.6607 41.3086C29.5044 40.8429 28.7592 41.0978 28.9089 41.5586C29.0668 42.0259 29.812 41.771 29.6607 41.3086Z" fill="black"/>
<path d="M16.2607 42.6241C16.7361 42.4379 17.2279 42.3006 17.7099 42.1339C18.1903 41.9722 18.6788 41.8594 19.1789 41.7875C19.3763 41.7467 19.5112 41.5571 19.4733 41.3578C19.4355 41.1633 19.2381 41.0244 19.0407 41.0653C18.3383 41.16 17.6573 41.3659 16.9911 41.6012C16.3627 41.781 15.7573 42.0244 15.1503 42.2663C14.9644 42.3447 14.8937 42.5833 14.9776 42.7565C15.2342 43.2336 15.8856 42.7042 16.2607 42.6241Z" fill="black"/>
<path d="M13.9166 43.9788C14.1189 43.9722 14.2768 43.7859 14.2653 43.5915C14.2538 43.3872 14.0761 43.2385 13.8755 43.2451C13.6731 43.2516 13.5152 43.4379 13.5267 43.6323C13.5382 43.8366 13.7159 43.9853 13.9166 43.9788Z" fill="black"/>
<path d="M23.719 55.1605C27.5436 55.1262 29.84 50.7829 27.69 47.6374C25.512 44.3807 20.4454 44.9674 19.0867 48.6391C17.8727 51.7683 20.3435 55.2471 23.7173 55.1589L23.719 55.1605Z" fill="black"/>
</g>
<defs>
<clipPath id="clip0_2217_6389">
<rect width="87" height="93" fill="white"/>
</clipPath>
</defs>
</svg>
