<svg width="46" height="72" viewBox="0 0 46 72" fill="none" xmlns="http://www.w3.org/2000/svg">
<g clip-path="url(#clip0_1157_5033)">
<path d="M4.78593 31.6932C5.50792 31.0783 6.27872 30.5145 6.86441 29.7521C7.94555 28.355 8.10302 26.4073 7.00163 24.9743C6.69404 24.5694 6.37449 24.2289 6.17189 23.7673C5.99232 23.3492 5.86431 22.9027 5.82471 22.4468C5.74828 21.7307 6.05033 21.0581 6.36712 20.4395C6.46934 20.2276 6.60932 20.0299 6.65537 19.7953C6.73088 19.2656 6.37081 18.8031 5.98403 18.4985C5.11285 17.8562 4.05566 17.4608 3.3438 16.6085C3.30512 16.6019 3.26644 16.5868 3.23053 16.5678C3.00951 16.5641 2.85204 16.7674 2.74521 16.9443C2.74061 16.9528 2.73416 16.9595 2.72864 16.967L2.72864 32.3269C2.77284 32.4376 2.76547 32.6003 2.80323 32.7034C2.89072 33.0468 3.16607 33.1423 3.47733 33.0846C3.86043 32.571 4.31904 32.1094 4.78685 31.6922L4.78593 31.6932ZM5.40754 20.4707C5.46096 20.2513 5.55949 20.0469 5.62027 19.8313C5.63685 19.5759 5.56778 19.2987 5.40018 19.1039C5.17087 18.8447 4.87158 18.6763 4.58886 18.4909C4.42218 18.3519 3.79596 18.1286 3.98199 17.8552C4.03908 17.7748 4.16064 17.7484 4.23892 17.8127C4.38074 17.93 4.54005 18.0217 4.69661 18.1173C5.35505 18.5183 6.05217 18.9478 5.98955 19.8436C5.95732 20.0924 5.81919 20.3118 5.76577 20.5568C5.70407 20.7961 5.35689 20.7138 5.40754 20.4698L5.40754 20.4707ZM5.21323 21.0818C5.21323 20.9787 5.29059 20.8907 5.39281 20.8879C5.49134 20.885 5.58159 20.9692 5.58159 21.0723C5.58159 21.1754 5.50424 21.2634 5.40202 21.2662C5.30348 21.2691 5.21323 21.1849 5.21323 21.0818ZM6.0973 29.4031C5.92417 29.1969 6.23359 29.0209 6.32384 28.8526C6.55038 28.5763 6.72904 28.3011 6.85981 27.9738C7.0357 27.5443 7.08451 27.0657 6.99242 26.6107C6.86625 26.3118 7.29539 26.2049 7.35341 26.5199C7.41327 26.8727 7.42985 27.2388 7.35801 27.5907C7.25579 28.0949 7.02189 28.5574 6.71338 28.9594C6.5513 29.1089 6.35607 29.6207 6.09638 29.4031L6.0973 29.4031ZM5.63224 29.6434C5.63224 29.6434 5.63224 29.6462 5.63132 29.6471C5.65434 29.3842 6.02547 29.4107 6.00153 29.6736C5.9914 29.982 5.5687 29.946 5.63316 29.6424L5.63224 29.6434Z" fill="#CE6AE2"/>
<path d="M45.7568 70.0268C45.7642 70.0278 45.7725 70.0287 45.7799 70.0297C45.7836 70.0297 45.7882 70.0297 45.7928 70.0297C45.7624 70.0278 45.7329 70.0202 45.7126 70.0107C45.72 70.0135 45.7274 70.0173 45.7338 70.0202C45.7421 70.0221 45.7495 70.0249 45.7568 70.0268Z" fill="#F2B2FF"/>
<path d="M37.756 53.3265C37.7781 53.3189 37.7984 53.3075 37.8159 53.2923C37.8196 53.2885 37.8233 53.2847 37.8269 53.281C37.8002 53.3066 37.768 53.3236 37.7367 53.3312C37.7431 53.3293 37.7514 53.3274 37.756 53.3265Z" fill="#F2B2FF"/>
<path d="M32.3176 49.5304C32.3176 49.5304 32.3215 49.5225 32.3234 49.5195C32.3186 49.5195 32.3147 49.5175 32.3098 49.5175C32.3127 49.5225 32.3147 49.5264 32.3176 49.5314L32.3176 49.5304Z" fill="#F2B2FF"/>
<path d="M42.2427 14.5521C42.1966 14.6429 42.2123 14.7526 42.1644 14.8406C42.1386 15.1726 42.0603 15.499 41.9148 15.7979C41.7067 16.2708 41.3448 16.6303 40.9728 16.9699C40.4911 17.441 39.9975 17.9631 39.6411 18.5307C38.956 19.5787 38.7976 20.6722 39.3372 21.8272C40.4175 23.7862 41.1662 24.5685 39.9045 26.7545C39.4671 27.5463 39.0775 28.4156 39.1365 29.3407C39.165 30.1561 39.468 30.9573 39.9018 31.6289C40.8936 33.0591 42.6414 34.2576 42.6875 36.1419C42.6967 36.157 42.705 36.1731 42.717 36.1854C42.7566 36.227 42.8164 36.2327 42.8698 36.2308C42.9987 36.2374 43.0853 36.1466 43.1792 36.0776L43.1792 15.2029C43.1792 15.2029 43.1792 15.1982 43.1792 15.1953C43.1654 15.1471 43.1498 15.0988 43.1314 15.0487C43.0255 14.7384 42.7446 14.2522 42.367 14.4301C42.3081 14.4547 42.2537 14.4972 42.2408 14.5521L42.2427 14.5521ZM41.2407 32.0479C41.2407 32.151 41.1588 32.2381 41.0584 32.239C40.959 32.239 40.8724 32.1548 40.8724 32.0517C40.8724 31.9486 40.9543 31.8616 41.0547 31.8606C41.1542 31.8606 41.2407 31.9448 41.2407 32.0479ZM40.0482 29.6576C40.1486 30.0899 40.2775 30.5108 40.5114 30.8863C40.5703 30.9951 40.6219 31.1086 40.69 31.2127C40.7849 31.3073 40.8567 31.4633 40.7306 31.5664C40.434 31.7859 40.2093 31.0424 40.0721 30.8551C39.8345 30.4171 39.7167 29.9186 39.6356 29.4277C39.619 29.3265 39.6955 29.2281 39.7931 29.2139C40.0344 29.1903 40.0086 29.493 40.0491 29.6585L40.0482 29.6576Z" fill="#CE6AE2"/>
<path d="M10.3712 26.571C10.8473 33.1679 17.2301 37.294 23.3126 36.8154C29.2617 36.4701 34.8294 31.6781 34.4187 25.2458L34.4187 25.2477C34.0973 20.1019 29.8326 16.182 25.0808 15.2455C21.6799 14.5417 17.9917 15.2029 15.1102 17.1988C12.0951 19.242 10.0931 22.8186 10.3712 26.572L10.3712 26.571ZM23.1902 17.2754C25.4712 17.336 27.7818 17.896 29.6963 19.2023C31.1118 20.1482 32.3043 21.7298 32.3043 23.4996C32.3043 23.6898 32.2905 23.8818 32.262 24.0757C31.6118 27.9871 26.7412 29.6519 23.3458 29.7342C21.6366 29.7834 19.8804 29.5583 18.2633 28.9604C18.3011 28.9311 18.337 28.899 18.3711 28.8649C18.43 28.8072 18.4825 28.7467 18.5285 28.6767C18.57 28.6142 18.6059 28.548 18.6372 28.479C18.7035 28.3333 18.7431 28.1801 18.7818 28.0259C18.8011 27.9474 18.8196 27.8689 18.8278 27.7875C18.8343 27.7326 18.838 27.6778 18.838 27.622C18.838 27.5955 18.8371 27.5699 18.8352 27.5435C18.8297 27.4574 18.8177 27.3713 18.7928 27.2881C18.7717 27.2171 18.7486 27.1462 18.7229 27.0762C18.6676 26.9258 18.6133 26.7725 18.5276 26.6373C18.4365 26.4925 18.3066 26.3819 18.1657 26.291C18.0377 26.2097 17.8987 26.1548 17.7559 26.1056C17.674 26.0773 17.5911 26.0508 17.5045 26.0404C17.4318 26.0319 17.3572 26.0319 17.2835 26.0319C17.277 26.0319 17.2706 26.0319 17.2641 26.0319L17.2595 26.0319C17.15 26.0338 17.0404 26.0385 16.9308 26.0508C16.812 26.065 16.6978 26.1 16.5854 26.1378C16.4731 26.1756 16.358 26.2173 16.2558 26.2806C16.2162 26.3052 16.1784 26.3298 16.1425 26.361C16.1149 26.3856 16.0882 26.4131 16.0615 26.4405C16.0255 26.4783 15.9924 26.5181 15.9583 26.5578C15.857 26.676 15.752 26.7924 15.6627 26.921C15.6139 26.9901 15.5697 27.0629 15.5393 27.1424C15.5144 27.2095 15.4942 27.2795 15.485 27.3505C15.4822 27.3704 15.4804 27.3893 15.4785 27.4091C14.099 26.2873 13.0971 24.5089 13.4967 22.6701C14.4407 18.6622 19.6392 17.1553 23.1902 17.2736L23.1902 17.2754Z" fill="white"/>
<path d="M32.7233 49.9202C32.6819 50.0025 32.634 50.0839 32.61 50.1747C32.5953 50.2371 32.5778 50.3118 32.5465 50.3733C32.5732 50.7309 32.5631 51.0922 32.6349 51.4432C32.8044 52.1394 33.1009 52.9879 33.8597 53.1704C34.6526 53.3804 35.4897 53.2045 36.2973 53.3208C37.151 53.44 38.152 53.9262 38.5536 54.7435C39.0481 55.8285 39.2074 57.2767 40.376 57.8423C40.9221 58.0637 41.4222 58.1829 41.867 58.374C41.8706 58.3749 41.8743 58.3768 41.878 58.3787C41.9075 58.3919 41.9379 58.4052 41.9673 58.4184C42.3118 58.5395 42.5659 58.4496 42.8542 58.2198C42.9361 58.1413 42.9886 58.0391 43.0568 57.9502C43.0402 57.7846 43.0227 57.6182 43.0024 57.4517C42.7741 56.4698 42.4508 55.5125 42.1027 54.5713C41.5143 53.2272 40.434 52.2113 39.2617 51.4025C38.4044 50.7687 37.501 50.1945 36.4926 49.8531C35.7964 49.5948 35.0689 49.4529 34.3349 49.3669C34.0034 49.3186 33.6719 49.2817 33.3403 49.2515C33.0595 49.3782 32.8605 49.6478 32.7261 49.9221L32.7233 49.9202ZM39.4321 54.9838C39.4321 55.0869 39.3603 55.1767 39.2562 55.1815C39.1595 55.1862 39.0637 55.1039 39.0637 55.0008C39.0637 54.8977 39.1356 54.8078 39.2396 54.8031C39.3363 54.7984 39.4321 54.8807 39.4321 54.9838ZM37.9338 53.0143C38.3243 53.2054 38.6659 53.5147 38.9026 53.8865C38.9901 54.0539 39.27 54.2876 39.049 54.4588C38.9661 54.5127 38.8464 54.489 38.7948 54.4011C38.7037 54.2554 38.6079 54.1135 38.513 53.9716C38.3445 53.756 38.1401 53.5696 37.908 53.4277C37.8472 53.3937 37.7874 53.3568 37.7211 53.335C37.6704 53.3426 37.6179 53.3284 37.5756 53.2896C37.5037 53.2234 37.4899 53.0957 37.5617 53.0229C37.6667 52.915 37.815 52.9604 37.9347 53.0153L37.9338 53.0143Z" fill="#CE6AE2"/>
<path d="M31.4949 69.2086C31.6137 68.8889 31.5888 68.52 31.5851 68.1908C31.5114 67.8616 31.4608 67.5277 31.4313 67.1919C31.4028 66.8097 31.3834 66.4266 31.3061 66.0502C31.2471 65.668 31.2223 65.3256 31.1366 64.9576C31.0169 64.497 30.7738 64.0486 30.4984 63.674C29.4965 62.2513 28.245 62.5682 26.9926 61.68C26.3369 61.2032 25.9446 60.4229 25.7742 59.6302C25.649 59.1146 25.6609 58.583 25.6158 58.058C25.5716 57.7326 25.5007 57.4139 25.4197 57.1017C25.1231 56.0394 24.4988 54.5733 23.1773 54.9403C22.2398 55.1872 21.7084 56.1463 21.4487 57.0346C21.2857 57.8206 21.1025 58.601 20.8106 59.3483C20.4459 60.5089 19.8841 60.9942 18.7588 61.3168C17.7338 61.644 17.2264 62.1047 16.8461 63.149C16.4363 64.6757 16.6757 66.2848 16.369 67.8257C16.3451 67.9193 16.3239 68.0111 16.3027 68.1009C16.3184 68.1586 16.2889 68.222 16.3221 68.275C16.4934 68.6571 16.9879 68.5313 17.312 68.4282C17.5846 68.2854 17.8508 68.1303 18.1105 67.9609C18.6814 67.5599 19.2413 67.1351 19.7239 66.6224C20.456 65.8723 21.0795 65.0182 21.7554 64.2179C22.0722 63.8083 22.5575 63.4583 23.0889 63.5643C23.5152 63.6721 23.8523 64.0022 24.1718 64.287C24.9307 65.0068 25.4897 65.9017 26.1177 66.7369C26.8342 67.6686 27.6704 68.5493 28.7229 69.0714C29.4376 69.5113 30.2737 69.6371 31.0952 69.6078C31.2794 69.5397 31.4286 69.4063 31.4939 69.2086L31.4949 69.2086ZM19.8095 61.8399C19.6714 61.6157 19.9725 61.5116 20.1015 61.3924C20.6669 60.9034 20.9183 60.613 21.1034 59.8695C21.2093 59.5914 21.2231 59.2896 21.3134 59.0087C21.4165 58.7845 21.7434 58.9349 21.6495 59.1638C21.5371 59.7238 21.4082 60.298 21.143 60.8078C20.9754 61.1058 20.7129 61.3272 20.4717 61.5599C20.3151 61.68 19.9873 62.0792 19.8086 61.8399L19.8095 61.8399ZM18.9126 62.2901C18.9126 62.187 19.0019 62.1028 19.1004 62.1047C19.2027 62.1066 19.2809 62.1946 19.2809 62.2977C19.2809 62.4008 19.1916 62.485 19.0931 62.4831C18.9908 62.4812 18.9126 62.3932 18.9126 62.2901ZM27.3103 67.4378C27.0708 67.2676 26.8646 67.0585 26.6712 66.8353C26.4603 66.595 26.2862 66.3216 26.1057 66.0577C26.0634 66.0189 26.0173 65.9868 26.0044 65.9253C25.9602 65.773 26.1417 65.6254 26.2743 65.7144C26.3765 65.773 26.464 65.9158 26.5146 66.0038C26.6399 66.1921 26.7734 66.3756 26.9161 66.5506C27.0368 66.6896 27.1629 66.8249 27.2974 66.9497C27.4226 67.0699 27.7109 67.1872 27.5681 67.4009C27.5074 67.4832 27.3904 67.4993 27.3103 67.4369L27.3103 67.4378ZM28.0083 67.9373C28.0083 67.8342 28.094 67.7481 28.1934 67.749C28.2938 67.749 28.3767 67.8361 28.3767 67.9392C28.3767 68.0423 28.291 68.1284 28.1916 68.1274C28.0912 68.1274 28.0083 68.0404 28.0083 67.9373Z" fill="#CE6AE2"/>
<path d="M3.6339 60.9582C3.64126 60.9545 3.64863 60.9507 3.65692 60.9469C4.02252 60.7605 4.42219 60.6489 4.77674 60.437C5.57332 60.0038 6.24558 59.2367 6.3478 58.2888C6.38739 57.8764 6.38647 57.4574 6.48685 57.0535C6.5817 56.6675 6.74194 56.2996 6.93809 55.9571C7.75401 54.5288 9.23667 54.2072 10.42 53.2622C11.259 52.6114 11.5463 51.9275 11.7452 51.0308C11.747 51.0081 11.7507 50.9844 11.7553 50.9627C11.7609 50.8633 11.7268 50.7687 11.7001 50.6751C11.584 50.3109 11.2599 50.0366 10.9201 49.9061C10.9044 49.8985 10.8906 49.89 10.8786 49.8796C9.82512 50.1511 8.7974 50.5275 7.85439 51.0847C7.32211 51.4318 6.81193 51.813 6.31556 52.2122C5.01985 53.2338 3.99121 54.578 3.39814 56.1454C3.13108 56.7564 2.969 57.3741 2.80692 58.0174C2.77838 58.1734 2.73602 58.3333 2.72681 58.4932C2.72681 58.497 2.72773 58.4998 2.72773 58.5026L2.72773 58.6228C2.72865 58.6369 2.72957 58.6511 2.73141 58.6653C2.73417 58.6871 2.73233 58.7079 2.72773 58.7268L2.72773 60.7918C2.72773 60.7918 2.73049 60.7965 2.73141 60.7993C2.8456 60.8958 2.99663 60.9422 3.14121 60.9649C3.27659 60.9781 3.42485 60.9914 3.55562 60.9573C3.58417 60.9516 3.61087 60.9526 3.63482 60.9573L3.6339 60.9582Z" fill="#CE6AE2"/>
<path d="M19.1732 4.00976C18.5645 4.40989 17.9558 4.81002 17.3461 5.2092C13.3494 7.83319 9.35362 10.4572 5.3569 13.0821C5.06313 13.276 4.76845 13.469 4.47376 13.662C4.46547 13.6705 4.45534 13.679 4.44429 13.6866C4.06119 13.9098 3.74256 14.2258 3.41564 14.5256C3.3567 14.5928 3.30145 14.6628 3.24804 14.7347C3.24804 14.7413 3.24804 14.7479 3.24804 14.7555C3.23883 14.8444 3.17805 14.9153 3.15594 15.0014C2.99202 16.0769 4.01054 16.8034 4.78042 17.3104C5.54385 17.7919 6.50066 18.1627 6.89941 19.0481C7.11951 19.5059 7.05044 20.0309 6.77785 20.4471C6.46014 21.0667 6.1056 21.7317 6.194 22.4562C6.24834 22.9235 6.38555 23.3842 6.60012 23.8004C6.77325 24.1088 7.00532 24.3727 7.22173 24.6489C7.83321 25.4378 8.20157 26.4386 8.12145 27.4545C8.0312 28.968 7.1545 30.1977 6.04758 31.1323C5.47202 31.5929 4.88632 32.0697 4.37614 32.6022C3.83557 33.1603 3.34841 33.7979 3.0878 34.5452C3.00768 34.7476 2.95703 34.9453 2.91927 35.1524C2.91651 35.1941 2.91375 35.2357 2.91191 35.2773C2.87968 35.8713 2.82442 36.4597 2.99203 37.032C3.22778 37.2883 3.48379 37.4577 3.77663 37.6241C3.85491 37.6828 3.98752 37.7424 4.08237 37.82C4.48849 38.0772 4.89461 38.3345 5.30073 38.5918C7.24475 39.8253 9.1897 41.0588 11.1346 42.2913C13.1302 43.556 15.1258 44.8226 17.1214 46.0873C17.4327 46.285 17.7458 46.4808 18.0571 46.6804C18.0838 46.6804 18.1096 46.6842 18.1344 46.6965C18.2284 46.7457 18.3112 46.8195 18.396 46.881C18.5976 46.9926 18.8039 47.0957 18.9596 47.2716C19.1603 47.4637 19.2892 47.7219 19.3795 47.982C19.4743 48.2053 19.5268 48.4616 19.4614 48.7009C19.3822 48.9658 19.1502 49.1616 18.9144 49.2779C18.523 49.4615 18.0865 49.3867 17.6712 49.4189C16.812 49.4463 15.9454 49.435 15.0927 49.4274C14.4563 49.4104 13.8209 49.3933 13.1883 49.4652C13.0695 49.4756 12.9507 49.4908 12.8309 49.5069C12.8199 49.521 12.807 49.5352 12.7904 49.5475C12.3005 49.8701 12.2195 50.4802 12.1163 51.0383C12.1126 51.0714 12.108 51.1036 12.0979 51.1338C12.0777 51.2388 12.0555 51.341 12.0288 51.4384C11.6421 53.195 10.1447 53.9678 8.73477 54.7444C7.94648 55.1881 7.28804 55.8805 6.96756 56.7489C6.76404 57.2398 6.75668 57.7875 6.71523 58.2973C6.5946 59.597 5.55674 60.5846 4.41758 61.0273C4.10908 61.1502 3.80426 61.2827 3.51234 61.4416C3.295 61.6033 3.09148 61.7679 2.9027 61.9439C2.83916 61.9997 2.78851 62.0924 2.72681 62.1558L2.72681 67.9212C2.75443 68.0044 2.73509 68.1104 2.75167 68.1974C2.79495 68.4339 2.84376 68.6278 2.93677 68.8397C3.05465 69.0714 3.22317 69.2729 3.43406 69.4205C3.52615 69.4715 3.67902 69.5283 3.77203 69.6125L10.5554 69.6125C10.9109 69.6125 11.2654 69.6125 11.6209 69.6125C11.7857 69.5359 12.0905 69.5898 12.2397 69.5737C12.7177 69.5661 13.2269 69.5321 13.6892 69.5065C14.0373 69.4725 14.3827 69.4195 14.7243 69.3486C14.7759 69.3098 14.8422 69.2833 14.903 69.2691C15.043 69.2095 15.1562 69.1074 15.2759 69.0156C15.5218 68.8595 15.706 68.6287 15.8478 68.3733C15.9381 68.065 16.0154 67.7528 16.0633 67.434C16.3773 65.5564 15.8626 63.3325 17.2016 61.7869C17.7384 61.1881 18.5396 61.0102 19.2552 60.7369C19.7746 60.5344 20.1494 60.0728 20.3437 59.5526C20.5417 59.0238 20.7314 58.4865 20.8732 57.9398C20.9699 57.5444 21.0279 57.1386 21.1476 56.7498C21.4874 55.7046 22.2242 54.6423 23.3679 54.5146C25.0145 54.3462 25.6536 56.2929 25.9234 57.6342C26.056 58.2917 25.9842 59.0087 26.1592 59.6538C26.3765 60.6101 26.9843 61.4142 27.8978 61.7452C28.6106 62.0545 29.4219 62.151 30.0399 62.6618C30.7692 63.2464 31.307 64.0665 31.5234 64.9869C31.6008 65.3426 31.6192 65.7115 31.6846 66.0672C31.7758 66.508 31.7712 66.963 31.8264 67.4075C31.8531 67.6402 31.8927 67.872 31.9434 68.1009C31.947 68.1113 31.9489 68.1227 31.9507 68.135C32.0299 68.4802 32.1377 68.8189 32.274 69.1461C32.3799 69.3032 32.518 69.4394 32.6663 69.5463C32.7003 69.5737 32.7399 69.5936 32.7786 69.6125L42.1783 69.6125C42.2446 69.5879 42.3081 69.5557 42.3689 69.5188C42.8174 69.3051 43.1204 68.8198 43.1692 68.3232C43.1784 68.2504 43.159 68.1709 43.1802 68.1047C43.1802 65.6254 43.1802 63.1461 43.1802 60.6669C43.1682 60.6385 43.1618 60.6044 43.1664 60.5647C43.1701 60.5496 43.1701 60.5354 43.1728 60.5203C43.1397 60.4644 43.1185 60.3926 43.101 60.3263C43.0439 60.1523 42.9656 59.983 42.8828 59.8212C42.8855 59.8278 42.8874 59.8316 42.8901 59.8373C42.6194 59.2612 42.2427 58.9633 41.8228 58.7637C41.7685 58.7476 41.7132 58.7277 41.6709 58.6956C40.9618 58.4023 40.1532 58.3257 39.5242 57.6749C38.7424 56.8671 38.6365 55.6544 38.106 54.6962C37.6907 54.1693 37.0535 53.8543 36.4171 53.7143C36.0285 53.6585 35.6334 53.6443 35.2411 53.6481C33.4233 53.7238 32.6828 53.3246 32.2592 51.4337C32.1073 50.4802 32.3872 49.7481 31.4332 49.1379C31.4323 49.1379 31.4313 49.1379 31.4304 49.1379C31.412 49.1398 31.3954 49.1389 31.3798 49.1361C31.1422 49.1285 30.9046 49.1219 30.667 49.1152C29.8455 49.1067 29.0204 49.1228 28.1999 49.0774C27.7689 49.0405 27.2992 49.1134 26.9005 48.909C26.638 48.7548 26.5883 48.3888 26.7504 48.1391C26.9834 47.7115 27.4549 47.5157 27.8389 47.2593C27.8536 47.2508 27.8674 47.2452 27.8822 47.2395C27.8868 47.2357 27.8914 47.231 27.8969 47.2281C31.6993 44.6921 35.499 42.1532 39.3014 39.6172C39.9552 39.1811 40.6091 38.7441 41.2629 38.3081C41.2997 38.2712 41.3439 38.2428 41.3835 38.2097C41.4959 38.0924 41.5898 37.9912 41.6957 37.8767C41.9388 37.61 42.1129 37.2874 42.2262 36.9431C42.228 36.9384 42.2298 36.9327 42.2317 36.927C42.298 36.6517 42.3284 36.3661 42.3201 36.0832C42.2068 34.478 40.8457 33.446 39.9303 32.2863C39.2056 31.399 38.7332 30.2412 38.7654 29.0758C38.7838 28.3181 39.0306 27.5936 39.3907 26.9399C39.7001 26.3043 40.1154 25.6847 40.1937 24.9629C40.2527 23.1628 38.5472 22.2917 38.6448 20.2853C38.6991 18.874 39.7103 17.6841 40.656 16.7514C41.0695 16.3749 41.4775 15.9719 41.6718 15.4261C41.6837 15.3826 41.6957 15.3391 41.7068 15.2965C41.6948 15.2464 41.6985 15.1896 41.7169 15.1386C41.7206 14.9664 41.6948 14.7924 41.7049 14.6183C41.6828 14.2314 41.5263 13.8597 41.3274 13.5343C41.1772 13.346 41.017 13.1786 40.8485 13.0102C40.7592 12.9327 40.6809 12.839 40.5823 12.7728C40.5335 12.7567 40.4921 12.7227 40.4645 12.6792C40.1587 12.4994 39.853 12.3197 39.5463 12.14C36.7827 10.5196 34.0172 8.89925 31.2536 7.27888C29.3077 6.13999 27.3646 4.99731 25.4178 3.85842C25.0799 3.65977 24.741 3.46208 24.403 3.26343C24.3422 3.2483 24.2796 3.21141 24.2253 3.17452C23.8376 2.9825 23.4416 2.80183 23.0088 2.75452C22.5096 2.72142 22.0004 2.73466 21.5095 2.84344C20.677 3.0979 19.9164 3.55478 19.1714 4.00314L19.1732 4.00976ZM13.0253 69.2001C12.9286 69.2048 12.8328 69.1225 12.8328 69.0194C12.8328 68.9163 12.9046 68.8264 13.0087 68.8217C13.1054 68.817 13.2012 68.8993 13.2012 69.0024C13.2012 69.1055 13.1284 69.1953 13.0253 69.2001ZM15.7705 66.9573C15.7042 67.4529 15.5881 67.9779 15.2502 68.3582C14.961 68.6817 14.6037 68.9882 14.1663 69.0326C13.9867 69.0478 13.7334 69.2313 13.6423 68.9844C13.5815 68.6637 14.0539 68.6968 14.2519 68.6335C14.6184 68.5152 14.903 68.2201 15.1194 67.9117C15.2815 67.6024 15.3662 67.2723 15.3966 66.9317C15.3551 66.8381 15.3957 66.7236 15.4868 66.6811C15.659 66.6016 15.7824 66.7965 15.7696 66.9563L15.7705 66.9573ZM7.23002 59.8704C7.22265 59.9962 7.14622 60.1296 7.00624 60.1069C6.91047 60.0918 6.83311 59.9924 6.85245 59.8912C6.85337 59.5885 7.24107 59.5687 7.23094 59.8714L7.23002 59.8704ZM8.40877 55.8332C8.50086 55.8758 8.54231 55.9912 8.50086 56.0829C8.44653 56.1936 8.34247 56.2655 8.27616 56.3677C8.10948 56.6505 7.96582 56.9589 7.88018 57.2786C7.77243 57.7761 7.78809 58.3021 7.65732 58.7902C7.60943 58.9377 7.58457 59.1373 7.43814 59.2139C7.29448 59.2773 7.13056 59.1052 7.20423 58.9595C7.46669 58.373 7.37644 57.7005 7.54773 57.0875C7.62232 56.8264 8.08462 55.6809 8.40877 55.8323L8.40877 55.8332ZM42.5466 68.2002C42.5466 68.3033 42.4748 68.3932 42.3707 68.3979C42.274 68.4026 42.1783 68.3213 42.1783 68.2172C42.1783 68.1132 42.2501 68.0243 42.3542 68.0195C42.4509 68.0148 42.5466 68.0971 42.5466 68.2002ZM42.6866 65.3757C42.5862 66.087 42.5779 66.7861 42.5908 67.4936C42.5872 67.5967 42.4886 67.6752 42.3919 67.6667C42.2519 67.6563 42.2077 67.5125 42.2252 67.3886C42.2022 66.7057 42.2271 66.0236 42.3192 65.3464C42.2934 65.2262 42.4048 65.1118 42.5218 65.1231C42.6433 65.1316 42.7152 65.2603 42.6866 65.3766L42.6866 65.3757ZM29.4063 61.6478C29.293 61.855 28.932 61.6809 29.0241 61.4586C29.1245 61.2098 29.5389 61.4113 29.4063 61.6478ZM27.8518 60.7984C27.9936 60.8627 28.14 60.9194 28.2883 60.9677C28.4283 61.0112 28.6539 61.0623 28.6032 61.2609C28.5784 61.3565 28.4725 61.4274 28.3776 61.3943C28.1317 61.3148 27.8896 61.225 27.651 61.1266C27.4346 60.9771 27.6317 60.682 27.8527 60.7984L27.8518 60.7984ZM32.681 53.7314C32.5696 53.9546 32.215 53.7758 32.3255 53.5488C32.437 53.3256 32.7915 53.5034 32.681 53.7314ZM31.8255 51.2899C31.7979 51.6901 31.9185 52.075 32.0465 52.4468C32.0916 52.566 32.134 52.688 32.1911 52.8025C32.2721 52.9027 32.3071 53.0598 32.1819 53.1411C31.9093 53.2792 31.8227 52.8583 31.7389 52.6748C31.587 52.2557 31.4341 51.8168 31.4571 51.3637C31.3512 51.0724 31.8061 50.9787 31.8255 51.2899ZM20.4109 48.3632C20.3584 48.5099 20.3814 48.6621 20.3777 48.8135C20.3253 49.2259 20.0508 49.6043 19.7 49.8058C19.3344 50.029 18.9061 50.0867 18.4917 50.1416C18.0644 50.1728 17.6325 50.2031 17.2062 50.1491C17.1076 50.1662 17.01 50.1 16.9925 49.9968C16.9667 49.7585 17.2108 49.7471 17.3774 49.7878C17.7605 49.819 18.1556 49.7906 18.5359 49.7566C18.8804 49.7027 19.2358 49.6544 19.5388 49.4652C19.7515 49.3366 19.9274 49.1048 19.9937 48.8636C20.0324 48.6716 19.979 48.4701 20.0508 48.2819C20.1107 48.0416 20.4597 48.1211 20.4109 48.3642L20.4109 48.3632ZM20.2479 47.615C20.2479 47.7181 20.1751 47.808 20.072 47.8127C19.9753 47.8174 19.8795 47.7351 19.8795 47.632C19.8795 47.5289 19.9523 47.4391 20.0554 47.4343C20.1521 47.4296 20.2479 47.5119 20.2479 47.615ZM28.1916 46.0363C28.1916 46.1394 28.1041 46.2236 28.0047 46.2226C27.9034 46.2207 27.8232 46.1337 27.8232 46.0306C27.8232 45.9275 27.9107 45.8433 28.0102 45.8442C28.1115 45.8461 28.1916 45.9332 28.1916 46.0363ZM31.6312 43.7339C31.6791 43.8218 31.6487 43.9439 31.5593 43.9912C31.1551 44.2144 30.7803 44.5114 30.3916 44.7489C29.8538 45.1083 29.282 45.411 28.793 45.8272C28.7018 45.8792 28.5959 45.8405 28.5425 45.7534C28.4596 45.6021 28.6023 45.463 28.7202 45.3911C29.4182 44.904 30.1587 44.4736 30.8567 43.9893C31.0427 43.8966 31.4811 43.4558 31.6312 43.7339ZM20.0241 13.5419C20.4256 13.346 20.9027 13.3848 21.3355 13.3006C22.1947 13.2231 23.0631 13.1786 23.9168 13.3205C24.0973 13.3687 24.4537 13.3148 24.438 13.592C24.4251 13.6894 24.3293 13.7736 24.2308 13.7537C23.9103 13.6979 23.588 13.6459 23.2639 13.6213C22.5207 13.5929 21.7748 13.6156 21.0463 13.7197C20.77 13.7708 20.4662 13.7509 20.2101 13.8691C19.9983 13.9912 19.8188 13.6686 20.0241 13.5419ZM25.0311 13.7651C25.0311 13.662 25.1149 13.5759 25.2152 13.5759C25.3156 13.5759 25.3994 13.662 25.3994 13.7651C25.3994 13.8682 25.3156 13.9543 25.2152 13.9543C25.1149 13.9543 25.0311 13.8682 25.0311 13.7651ZM14.6608 36.0804C14.4167 35.9735 14.1635 35.7938 13.9572 35.6405C13.6312 35.4372 13.3374 35.1893 13.0612 34.9197C12.9028 34.8308 12.9728 34.5631 13.1551 34.5688C13.3061 34.5802 13.389 34.7391 13.5032 34.8233C13.8688 35.1487 14.2768 35.4268 14.6949 35.6765C14.8431 35.7711 15.1654 35.8127 15.0779 36.0596C14.9877 36.2544 14.8008 36.1495 14.6617 36.0795L14.6608 36.0804ZM15.3846 36.3897C15.3846 36.2866 15.4684 36.2005 15.5688 36.2005C15.6692 36.2005 15.753 36.2866 15.753 36.3897C15.753 36.4928 15.6692 36.5789 15.5688 36.5789C15.4684 36.5789 15.3846 36.4928 15.3846 36.3897ZM35.243 29.2272C35.243 29.3303 35.1592 29.4164 35.0588 29.4164C34.9584 29.4164 34.8746 29.3303 34.8746 29.2272C34.8746 29.1241 34.9584 29.038 35.0588 29.038C35.1592 29.038 35.243 29.1241 35.243 29.2272ZM35.685 26.2787C35.8268 26.571 35.7494 26.9229 35.7458 27.2379C35.7292 27.5841 35.6104 27.9086 35.5128 28.2358C35.4428 28.4723 35.0984 28.3768 35.1573 28.1356C35.336 27.6333 35.429 27.1055 35.3912 26.5691C35.3885 26.5341 35.3875 26.4991 35.3673 26.4698C35.3185 26.379 35.3452 26.2636 35.4327 26.2106C35.5183 26.1595 35.6362 26.1889 35.685 26.2787ZM34.7862 26.5805C34.7862 26.5757 34.7871 26.5701 34.788 26.5653L34.7862 26.5909C34.7862 26.5871 34.7862 26.5843 34.7862 26.5805C34.1406 34.8441 25.1075 39.043 17.9631 36.4824C13.68 35.0427 10.1327 31.0604 9.98904 26.3128C9.7404 20.4367 14.483 15.7723 19.8952 14.8245C27.1316 13.3962 35.2107 18.4767 34.7862 26.5814L34.7862 26.5805ZM40.3613 16.0996C40.3613 16.2027 40.2794 16.2898 40.179 16.2907C40.0795 16.2907 39.993 16.2065 39.993 16.1034C39.993 16.0003 40.0749 15.9133 40.1753 15.9123C40.2748 15.9123 40.3613 15.9965 40.3613 16.0996ZM39.5583 12.7293C39.7259 12.8248 39.8843 12.9384 40.0473 13.0415C40.6523 13.4614 41.2325 14.2031 41.0253 14.9957C40.982 15.1849 40.8273 15.7298 40.5667 15.585C40.4792 15.5349 40.447 15.4176 40.4949 15.3278C40.6717 15.0402 40.7573 14.6713 40.6533 14.3402C40.481 13.9297 40.1808 13.574 39.8134 13.3356C39.6688 13.2439 39.5298 13.1417 39.3796 13.0594C39.2912 13.0112 39.2599 12.8911 39.3078 12.8021C39.3566 12.7104 39.4699 12.6801 39.5583 12.7284L39.5583 12.7293ZM16.7558 6.77092C16.7558 6.87403 16.6656 6.95821 16.567 6.95538C16.4648 6.95254 16.3875 6.86457 16.3875 6.76146C16.3875 6.65836 16.4777 6.57417 16.5763 6.57701C16.6785 6.57984 16.7558 6.66782 16.7558 6.77092ZM20.5518 4.44868C20.5518 4.44868 20.5573 4.44489 20.5601 4.443L20.5417 4.45813C20.5417 4.45813 20.5481 4.45151 20.5509 4.44868C19.5434 5.08528 18.5525 5.74271 17.5791 6.43228C17.3793 6.56944 17.1712 6.27242 17.3664 6.12296C17.4576 6.05864 17.545 5.98959 17.6371 5.92716C18.523 5.34068 19.3869 4.70975 20.3004 4.17342C20.4855 3.98707 20.7406 4.27652 20.5509 4.44868L20.5518 4.44868Z" fill="#F2B2FF"/>
<path d="M2.72766 13.4558C2.72766 13.1919 2.72766 12.928 2.72766 12.6641C2.72766 12.5609 2.64386 12.4749 2.54348 12.4749C2.25892 12.5014 2.38601 12.8778 2.3593 13.0746C2.3593 13.3281 2.3593 13.5816 2.3593 13.8351C2.3593 13.9382 2.4431 14.0243 2.54348 14.0243C2.81883 14.0025 2.70556 13.6459 2.72766 13.4558Z" fill="black"/>
<path d="M2.72774 10.6208L2.72774 9.75436C2.72774 9.65125 2.64393 9.56518 2.54356 9.56518C2.44318 9.56518 2.35937 9.65126 2.35937 9.75436L2.35937 10.9642C2.35937 11.0673 2.44318 11.1534 2.54356 11.1534C2.80693 11.1364 2.71116 10.8034 2.72774 10.6208Z" fill="black"/>
<path d="M2.72774 7.68659L2.72774 6.69242C2.72774 6.58932 2.64393 6.50324 2.54356 6.50324C2.44318 6.50324 2.35937 6.58932 2.35937 6.69242L2.35937 8.00253C2.35937 8.10563 2.44318 8.19171 2.54356 8.19171C2.79772 8.17752 2.71484 7.86347 2.72774 7.68659Z" fill="black"/>
<path d="M2.72768 40.6577C2.72768 40.3503 2.72768 40.0429 2.72768 39.7354C2.72768 39.6323 2.64388 39.5462 2.5435 39.5462C2.42655 39.5462 2.34551 39.6569 2.35932 39.7723L2.35932 40.8374C2.35932 40.9405 2.44312 41.0266 2.5435 41.0266C2.74242 41.0219 2.73505 40.809 2.72768 40.6577Z" fill="black"/>
<path d="M2.72777 43.7253C2.72777 43.4264 2.72777 43.1275 2.72777 42.8286C2.72777 42.7255 2.64397 42.6394 2.54359 42.6394C2.40545 42.6394 2.34191 42.7775 2.35941 42.9033C2.35941 43.1975 2.35941 43.4926 2.35941 43.7868C2.35941 43.8899 2.44321 43.976 2.54359 43.976C2.67344 43.977 2.74527 43.8474 2.72777 43.7253Z" fill="black"/>
<path d="M2.72767 46.7637C2.72767 46.4383 2.72767 46.1129 2.72767 45.7875C2.72767 45.6844 2.64386 45.5983 2.54348 45.5983C2.42377 45.5983 2.34457 45.7128 2.3593 45.8291C2.3593 46.1545 2.3593 46.4799 2.3593 46.8053C2.3593 46.9084 2.44311 46.9945 2.54348 46.9945C2.66228 46.9945 2.7424 46.881 2.72767 46.7637Z" fill="black"/>
<path d="M2.72774 49.733C2.72774 49.4113 2.72774 49.0897 2.72774 48.7681C2.72774 48.665 2.64393 48.5789 2.54356 48.5789C2.44318 48.5789 2.35937 48.665 2.35937 48.7681L2.35937 49.8938C2.35937 49.9969 2.44318 50.0829 2.54356 50.0829C2.7351 50.0773 2.73602 49.8834 2.72774 49.733Z" fill="black"/>
<path d="M2.72773 52.7778C2.72773 52.4449 2.72773 52.111 2.72773 51.778C2.72773 51.6749 2.64393 51.5888 2.54355 51.5888C2.34739 51.5954 2.352 51.7969 2.35937 51.9483C2.35937 52.2784 2.35937 52.6085 2.35937 52.9396C2.35937 53.0427 2.44317 53.1288 2.54355 53.1288C2.73509 53.1231 2.73602 52.9282 2.72773 52.7788L2.72773 52.7778Z" fill="black"/>
<path d="M43.1802 40.6208L43.1802 41.5658C43.1802 41.6689 43.264 41.755 43.3644 41.755C43.4647 41.755 43.5485 41.6689 43.5485 41.5658L43.5485 40.6208C43.543 40.3721 43.1857 40.373 43.1802 40.6208Z" fill="black"/>
<path d="M43.1802 43.5201L43.1802 44.6032C43.1802 44.7063 43.264 44.7924 43.3644 44.7924C43.4647 44.7924 43.5485 44.7063 43.5485 44.6032L43.5485 43.5201C43.543 43.2713 43.1857 43.2723 43.1802 43.5201Z" fill="black"/>
<path d="M43.1802 46.5773L43.1802 47.5318C43.1802 47.6349 43.264 47.7209 43.3644 47.7209C43.4647 47.7209 43.5485 47.6349 43.5485 47.5318L43.5485 46.5773C43.543 46.3285 43.1857 46.3295 43.1802 46.5773Z" fill="black"/>
<path d="M43.1802 49.5087L43.1802 50.5275C43.1802 50.6306 43.264 50.7167 43.3644 50.7167C43.4657 50.7167 43.5504 50.6278 43.5485 50.5237L43.5485 49.5087C43.543 49.26 43.1857 49.2609 43.1802 49.5087Z" fill="black"/>
<path d="M43.1802 52.6265L43.1802 53.7749C43.1802 53.878 43.264 53.9641 43.3644 53.9641C43.4647 53.9641 43.5485 53.878 43.5485 53.7749L43.5485 52.6265C43.543 52.3777 43.1857 52.3787 43.1802 52.6265Z" fill="black"/>
<path d="M43.1802 11.8931L43.1802 13.067C43.1802 13.1701 43.264 13.2562 43.3644 13.2562C43.5522 13.2524 43.5587 13.0556 43.5485 12.909L43.5485 11.8921C43.543 11.6434 43.1857 11.6443 43.1802 11.8921L43.1802 11.8931Z" fill="black"/>
<path d="M43.1802 8.95319C43.1802 9.31454 43.1802 9.67683 43.1802 10.0382C43.1802 10.1413 43.264 10.2274 43.3644 10.2274C43.4997 10.2274 43.5661 10.0911 43.5486 9.96723L43.5486 8.88604C43.5486 8.78293 43.4648 8.69685 43.3644 8.69685C43.2308 8.69685 43.1627 8.83022 43.1802 8.95414L43.1802 8.95319Z" fill="black"/>
<path d="M43.1802 5.92715C43.1802 6.3339 43.1802 6.7397 43.1802 7.14645C43.1802 7.24955 43.264 7.33563 43.3644 7.33563C43.5025 7.33563 43.5661 7.19752 43.5486 7.07172L43.5486 5.8335C43.5486 5.7304 43.4648 5.64432 43.3644 5.64432C43.2152 5.64432 43.1627 5.79756 43.1802 5.9281L43.1802 5.92715Z" fill="black"/>
<path d="M19.1898 69.9918C19.2902 69.9918 19.374 69.9057 19.374 69.8026C19.374 69.6834 19.2662 69.5993 19.1548 69.6135C18.7966 69.6135 18.4383 69.6135 18.0801 69.6135C17.8379 69.6191 17.8388 69.9861 18.0801 69.9918L19.1898 69.9918Z" fill="black"/>
<path d="M22.1606 69.9918C22.261 69.9918 22.3448 69.9057 22.3448 69.8026C22.3448 69.6995 22.261 69.6135 22.1606 69.6135L20.9054 69.6135C20.6632 69.6191 20.6641 69.9861 20.9054 69.9918L22.1606 69.9918Z" fill="black"/>
<path d="M24.0088 69.9918C24.4057 69.9918 24.8027 69.9918 25.1986 69.9918C25.4408 69.9861 25.4399 69.6191 25.1986 69.6134L23.9029 69.6134C23.8026 69.6134 23.7187 69.6995 23.7187 69.8026C23.7187 69.9643 23.879 70.0088 24.0088 69.9918Z" fill="black"/>
<path d="M43.276 38.0801C43.2585 38.3676 43.2714 38.6202 43.3017 38.9144C43.3064 38.9815 43.3146 39.0714 43.3073 39.1509C43.3027 39.375 43.6185 39.4157 43.6692 39.2C43.695 39.0326 43.6591 38.8605 43.6498 38.693C43.6259 38.4849 43.636 38.2938 43.6434 38.0753C43.6388 37.9722 43.5596 37.8871 43.4565 37.889C43.3588 37.8909 43.2704 37.9779 43.275 38.081L43.276 38.0801Z" fill="black"/>
<path d="M42.4708 2.63992C42.4708 2.63992 42.4729 2.63992 42.4739 2.64099C42.4708 2.63992 42.4687 2.63885 42.4656 2.63779L42.4708 2.63992Z" fill="black"/>
<path d="M0.180041 0.0644913C0.0363801 0.162872 0.102685 0.370026 0.0759789 0.52137C0.0538772 1.08231 0.0870297 1.64703 0.00230674 2.20417C-0.00874409 2.29025 0.00783217 2.38296 0.0557191 2.4416C0.113736 2.57024 0.288707 2.54849 0.427764 2.5466C1.02911 2.5466 1.62954 2.5466 2.23181 2.5466L2.34508 2.5466C2.34048 2.86726 2.31377 3.18604 2.3239 3.51238C2.35613 3.86332 2.34048 4.2171 2.35798 4.56993L2.35798 4.74776C2.35798 4.85088 2.44178 4.93695 2.54216 4.93695C2.64438 4.93695 2.73002 4.84708 2.72634 4.74114L2.72634 4.6806C2.78435 4.28805 2.73462 3.87562 2.79909 3.48022C2.84697 3.24564 2.96577 3.01767 3.14627 2.85875C3.25954 2.72822 3.39123 2.62605 3.55607 2.57119C3.55883 2.57119 3.59291 2.55511 3.61777 2.55038C3.64171 2.55321 3.66658 2.55132 3.68868 2.54565L19.4343 2.54565C19.4739 2.57119 19.5245 2.58065 19.5835 2.56173C19.8164 2.56078 20.0504 2.55416 20.2861 2.54565L20.7162 2.54565C20.5642 2.64686 20.4113 2.74524 20.2585 2.8455C19.8183 3.13496 19.3772 3.42441 18.9361 3.71387C18.9103 3.729 18.8845 3.74509 18.8596 3.76022C18.8458 3.76779 18.8338 3.77724 18.8228 3.7886C18.459 4.02697 18.0962 4.26629 17.7324 4.50466C13.7422 7.12488 9.75282 9.74508 5.76255 12.3653C5.14555 12.7711 4.5267 13.1741 3.91062 13.5818C3.8876 13.5978 3.8701 13.6149 3.85628 13.6338C3.60856 13.8277 3.38018 14.0528 3.14535 14.2675C2.92801 14.4984 2.73647 14.8058 2.6057 15.1037C2.4648 15.3809 2.36258 15.695 2.3635 16.009C2.35982 16.0241 2.35706 16.0393 2.35706 16.0563L2.35706 35.5849C2.34508 35.6171 2.3414 35.6521 2.34693 35.6861C2.30549 35.8885 2.33311 36.0976 2.34416 36.3019C2.34416 36.2991 2.34416 36.2972 2.34416 36.2943C2.34416 36.2915 2.34416 36.2877 2.34416 36.2849C2.35245 36.3871 2.34969 36.4911 2.35798 36.5942L2.35798 36.5952C2.35798 36.5952 2.35798 36.597 2.35798 36.598C2.36442 36.6756 2.37824 36.7531 2.40863 36.8279C2.60754 37.2374 2.95748 37.5553 3.33137 37.7946C3.44833 37.8655 3.5662 37.9346 3.68223 38.0065C3.69144 38.015 3.70157 38.0226 3.7117 38.0301C3.73657 38.0462 3.76143 38.0613 3.7863 38.0774C3.83326 38.1124 3.88391 38.1493 3.93548 38.172C4.07914 38.2638 4.22373 38.3546 4.36739 38.4463C4.95492 38.819 5.54154 39.1917 6.12907 39.5635C8.0998 40.814 10.0724 42.0626 12.0431 43.3131C13.7017 44.3659 15.3611 45.4168 17.0197 46.4687C17.3162 46.657 17.6146 46.8424 17.9093 47.0325C17.9433 47.0609 17.9857 47.0741 18.0271 47.0732C18.1864 47.2046 18.3762 47.2907 18.5465 47.4033C18.8081 47.5944 18.9536 47.8621 19.0595 48.1733C19.1737 48.4457 19.1387 48.6935 18.89 48.8562C18.6137 49.0577 18.2509 49.0265 17.9277 49.0274C17.5483 49.0369 17.1689 49.0662 16.7885 49.0549C15.1926 49.0823 13.5838 48.9064 12.0081 49.2649C10.1801 49.5713 8.3374 50.1692 6.84461 51.3317C5.53417 52.2767 4.31213 53.4364 3.55699 54.9101C3.13154 55.7369 2.78528 56.6052 2.55413 57.5114C2.50256 57.7413 2.31193 58.3457 2.35706 58.6664L2.35706 69.0196C2.32206 69.0574 2.30088 69.1075 2.30733 69.1633C2.31009 69.3128 2.31101 69.4632 2.31285 69.6136L0.772184 69.6136C0.731664 69.6136 0.693907 69.6278 0.663518 69.6514C0.553009 69.6845 0.519857 69.8151 0.541038 69.9276C0.529987 70.3789 0.580637 70.8282 0.569586 71.2794C0.600896 71.4894 0.489467 72.0219 0.817308 71.9831C0.818229 71.9831 0.81915 71.9831 0.820992 71.9822C0.887297 72.004 0.969257 72.0021 1.04017 71.9973C1.48404 71.9973 1.92884 71.9973 2.37363 71.9973C2.42889 71.9964 2.47125 71.9756 2.50072 71.9444C2.60202 71.9358 2.67201 71.846 2.66924 71.7448C2.67109 71.53 2.6849 71.3153 2.6895 71.0996C2.68674 70.7307 2.68766 70.3609 2.68398 69.992L11.8018 69.992C11.8433 69.992 11.882 69.9768 11.9133 69.9522C12.0772 69.9504 12.242 69.9589 12.4059 69.9522C13.314 69.9182 14.2385 69.8737 15.1281 69.6477C15.9754 69.4462 16.7471 69.152 17.4599 68.7755C17.4838 68.767 17.5041 68.7566 17.5206 68.7424C18.9628 67.9677 20.1618 66.8487 21.2402 65.443C21.6914 64.9351 22.0312 64.2767 22.6473 63.9617C22.791 63.922 22.9512 63.9116 23.0976 63.9541C23.2597 64.0487 23.4347 64.131 23.5783 64.2549C24.653 65.1271 25.3179 66.3927 26.2094 67.4399C27.0382 68.4539 28.0981 69.3185 29.3275 69.7593C29.8119 69.9305 30.2917 69.9806 30.7945 69.9853C30.8083 69.9891 30.824 69.991 30.8406 69.992L41.9936 69.992C42.0516 70.027 42.129 70.0298 42.1953 70.0033C42.2165 69.9995 42.2367 69.9958 42.2579 69.992L43.1954 69.992C43.2111 70.5501 43.2203 71.1119 43.2129 71.671C43.212 71.6927 43.2147 71.7126 43.2203 71.7325C43.2101 71.7561 43.2046 71.7807 43.2046 71.8081C43.2046 71.9113 43.2884 71.9973 43.3888 71.9973L45.5142 71.9973C45.5446 71.9973 45.5722 71.9888 45.598 71.9756C45.6008 71.9756 45.6045 71.9746 45.6072 71.9737C45.7039 71.9254 45.7813 71.9198 45.8826 71.8564C45.9461 71.8119 45.9756 71.7381 45.9811 71.6606C46.0115 71.4165 45.994 71.1526 46.0005 70.9048C46.006 70.6664 45.9728 70.429 45.9728 70.1897C45.9627 70.0402 46.0364 69.8463 45.9378 69.7233C45.913 69.6628 45.8577 69.6164 45.773 69.6136L43.5509 69.6136C43.5481 69.5294 43.5453 69.4452 43.5417 69.361C43.5417 69.3383 43.5407 69.3156 43.5407 69.2929C43.5509 69.2617 43.5555 69.2258 43.549 69.1851L43.549 60.5025C43.5582 60.3833 43.5444 60.265 43.5463 60.1421C43.5693 59.7287 43.5122 59.3276 43.4873 58.9105C43.4781 58.447 43.4293 57.9636 43.3805 57.4963C43.2838 56.9458 43.1199 56.4075 42.9385 55.8807C42.5296 54.4202 41.9807 53.2671 40.8747 52.2209C40.3305 51.6987 39.719 51.2617 39.1029 50.836C38.5688 50.4217 37.9831 50.0878 37.3744 49.8031C35.6965 49.0085 33.8436 48.8912 32.0212 48.7806C31.8407 48.7711 31.6593 48.7635 31.4788 48.7579C31.4741 48.7579 31.4695 48.7579 31.4649 48.7579C30.0495 48.7153 28.6286 48.7843 27.2214 48.6349C26.9056 48.5895 27.0465 48.3341 27.18 48.1676C27.424 47.9387 27.7224 47.7836 28.0023 47.6038C28.03 47.5934 28.0521 47.5802 28.0714 47.565C28.076 47.5631 28.0797 47.5613 28.0843 47.5594C32.5488 44.5797 37.0143 41.5991 41.4788 38.6194C41.5175 38.609 41.5553 38.5882 41.5847 38.5579C41.7533 38.4473 41.9163 38.3451 42.0774 38.2203C42.537 37.8372 42.9725 37.4247 43.2728 36.8922C43.3879 36.7304 43.5205 36.5157 43.5555 36.3C43.5785 36.2234 43.5831 36.1345 43.5499 36.0626L43.5499 16.9719C43.5545 16.9578 43.5582 16.9426 43.5592 16.9275C43.5619 16.8878 43.5573 16.848 43.5656 16.8092C43.6098 16.4261 43.5941 16.0232 43.6052 15.6335L43.6052 15.6514C43.6116 15.5039 43.5951 15.3383 43.5573 15.169C43.5444 14.9921 43.5288 14.8133 43.4505 14.6544C43.0471 13.9838 42.4624 13.4607 41.8407 13.0123C41.7883 12.9556 41.7229 12.931 41.6621 12.93C41.57 12.8742 41.4742 12.825 41.3757 12.7815C41.2237 12.6926 41.0718 12.6037 40.9208 12.5147C40.8545 12.4731 40.7872 12.4315 40.7219 12.3937C40.6887 12.3625 40.65 12.3416 40.6095 12.3322C40.0164 11.9841 39.4234 11.6369 38.8303 11.2888C36.7426 10.0648 34.6531 8.84078 32.5645 7.61675C30.0486 6.1411 27.5308 4.66736 25.0149 3.19172C24.6687 2.98834 24.3215 2.78497 23.9752 2.5816C23.9596 2.57213 23.9439 2.56268 23.9274 2.55417C24.0305 2.55606 24.1336 2.55606 24.2377 2.55322C24.2487 2.55322 24.2598 2.55132 24.2708 2.54943L42.1281 2.54943C42.2303 2.58443 42.3647 2.58632 42.4568 2.63646C42.4578 2.63646 42.4587 2.63646 42.4605 2.6374C42.4624 2.6374 42.4642 2.63835 42.466 2.6393C42.466 2.6393 42.466 2.6393 42.467 2.6393C42.467 2.6393 42.467 2.6393 42.4679 2.6393C42.9173 2.78969 43.1438 3.26455 43.1816 3.72427L43.1816 3.73657C43.0867 4.02791 43.5242 4.10548 43.5499 3.80089C43.5499 3.79427 43.5499 3.7886 43.549 3.78197C43.549 3.77535 43.5499 3.76967 43.549 3.76305L43.549 2.54754L45.6468 2.54754C45.6883 2.54754 45.726 2.5324 45.7573 2.50781C45.9415 2.46525 45.8872 2.22593 45.8955 2.07458C45.8743 1.67445 45.8531 1.27527 45.8062 0.877035C45.7841 0.707716 45.7748 0.533667 45.7721 0.361509C45.7721 0.315153 45.7721 0.265028 45.7647 0.218679C45.7785 0.116514 45.7196 0.00300398 45.5861 0.000165854L43.2433 0.000165956C43.1282 0.0030041 43.0683 0.0881405 43.0628 0.176107C43.0131 0.25746 43.0388 0.383261 43.0453 0.486372C43.1116 1.04825 43.2359 1.60161 43.27 2.16823L23.7303 2.16823C23.6677 2.16634 23.6041 2.16444 23.5323 2.1616C22.6022 2.08404 21.6417 2.08594 20.7042 2.15214C20.625 2.15971 20.5458 2.16444 20.4666 2.16823L2.71068 2.16823C2.71621 1.74729 2.73186 1.3273 2.71713 0.900688C2.70792 0.696365 2.69226 0.527046 2.67937 0.309486C2.67384 0.234756 2.67108 0.149628 2.62504 0.0881423C2.60017 0.0550307 2.56426 0.0332793 2.5265 0.0238189C2.50164 0.00962819 2.47217 0.000167739 2.43625 -0.000778305L0.34212 -0.000778213C0.297916 -0.000778211 0.257397 0.0162506 0.225165 0.0436783C0.210431 0.0484085 0.194775 0.0540848 0.180041 0.0635452L0.180041 0.0644913ZM2.31654 69.992C2.31654 70.1197 2.31838 70.2474 2.31746 70.3751C2.32943 70.7884 2.31654 71.2046 2.30549 71.619L1.04017 71.619C1.01162 71.6171 0.981229 71.6161 0.949918 71.6171C0.946235 71.5764 0.942551 71.5367 0.945314 71.5017C0.937026 71.0382 0.926896 70.5633 0.904794 70.0979C0.904794 70.0658 0.906636 70.0317 0.908478 69.9986M45.7914 70.0298C45.7914 70.0298 45.7831 70.0298 45.7785 70.0298C45.7712 70.0289 45.7629 70.0279 45.7555 70.027C45.7472 70.0251 45.7398 70.0222 45.7325 70.0203C45.726 70.0175 45.7187 70.0137 45.7113 70.0109C45.7306 70.0203 45.7601 70.0279 45.7914 70.0298ZM45.6072 69.992C45.6072 70.5132 45.6533 71.0391 45.6201 71.5613C45.575 71.5764 45.5308 71.5982 45.4857 71.6152C45.4829 71.6161 45.4811 71.618 45.4783 71.619L43.584 71.619C43.584 71.5963 43.584 71.5736 43.5822 71.5509L43.5822 71.5632C43.5849 71.0401 43.5767 70.516 43.5619 69.992L45.6072 69.992ZM2.80185 32.7036C2.76409 32.6005 2.77146 32.4378 2.72726 32.3271L2.72726 16.9672C2.73278 16.9597 2.73923 16.953 2.74383 16.9445C2.85158 16.7686 3.00813 16.5652 3.22915 16.568C3.26414 16.5879 3.30282 16.603 3.34242 16.6087C4.05428 17.461 5.11147 17.8564 5.98265 18.4987C6.36943 18.8033 6.7295 19.2658 6.65399 19.7955C6.60794 20.0301 6.46796 20.2278 6.36574 20.4397C6.04987 21.0583 5.7469 21.7309 5.82333 22.447C5.86385 22.9029 5.99094 23.3503 6.17051 23.7675C6.37403 24.2291 6.69358 24.5696 7.00025 24.9745C8.10164 26.4075 7.94417 28.3543 6.86303 29.7523C6.27734 30.5148 5.50562 31.0785 4.78455 31.6934C4.31674 32.1105 3.85813 32.5721 3.47503 33.0858C3.16377 33.1435 2.88842 33.0479 2.80093 32.7046L2.80185 32.7036ZM3.14075 60.965C2.99616 60.9423 2.84606 60.895 2.73094 60.7995C2.73002 60.7966 2.72818 60.7947 2.72726 60.7919L2.72726 58.727C2.73186 58.7071 2.73279 58.6872 2.73094 58.6655C2.7291 58.6513 2.7291 58.6371 2.72726 58.6229L2.72726 58.5028C2.72726 58.5028 2.72726 58.4961 2.72634 58.4933C2.73555 58.3335 2.77791 58.1745 2.80646 58.0175C2.96854 57.3752 3.13154 56.7566 3.39768 56.1455C3.99166 54.5781 5.01939 53.234 6.3151 52.2124C6.81146 51.8141 7.32256 51.432 7.85392 51.0848C8.79601 50.5277 9.82465 50.1512 10.8782 49.8797C10.8901 49.8892 10.904 49.8986 10.9196 49.9062C11.2594 50.0367 11.5836 50.3111 11.6996 50.6752C11.7263 50.7689 11.7604 50.8635 11.7549 50.9628C11.7503 50.9855 11.7466 51.0082 11.7447 51.0309C11.5458 51.9267 11.2585 52.6116 10.4196 53.2623C9.2362 54.2073 7.75354 54.5289 6.93763 55.9573C6.74147 56.2997 6.58032 56.6677 6.48638 57.0536C6.38601 57.4575 6.38601 57.8766 6.34733 58.289C6.24419 59.2368 5.57285 60.004 4.77627 60.4372C4.42172 60.6491 4.02297 60.7597 3.65645 60.947C3.64816 60.9499 3.64172 60.9546 3.63343 60.9584C3.60948 60.9537 3.5837 60.9527 3.55423 60.9584C3.42346 60.9915 3.2752 60.9792 3.13982 60.966L3.14075 60.965ZM28.7243 69.0706C27.6727 68.5485 26.8365 67.6678 26.1191 66.7361C25.491 65.9008 24.9321 65.0069 24.1732 64.2862C23.8537 64.0014 23.5166 63.6713 23.0903 63.5635C22.558 63.4575 22.0736 63.8085 21.7568 64.2171C21.0808 65.0174 20.4574 65.8715 19.7253 66.6216C19.2436 67.1343 18.6837 67.5591 18.1119 67.9601C17.8531 68.1285 17.586 68.2846 17.3134 68.4274C16.9893 68.5305 16.4938 68.6563 16.3235 68.2742C16.2903 68.2203 16.3198 68.1569 16.3041 68.1001C16.3253 68.0103 16.3465 67.9185 16.3704 67.8249C16.6771 66.2839 16.4377 64.6749 16.8475 63.1482C17.2287 62.1049 17.7352 61.6432 18.7602 61.316C19.8855 60.9934 20.4473 60.5081 20.8119 59.3475C21.1039 58.6002 21.2871 57.8198 21.4501 57.0337C21.7107 56.1455 22.2421 55.1864 23.1787 54.9395C24.5002 54.5725 25.1245 56.0377 25.4211 57.1009C25.5012 57.4131 25.573 57.7318 25.6172 58.0572C25.6623 58.5822 25.6504 59.1138 25.7756 59.6294C25.9451 60.4221 26.3374 61.2024 26.994 61.6792C28.2464 62.5684 29.4979 62.2505 30.4998 63.6732C30.7752 64.0468 31.0183 64.4961 31.138 64.9568C31.2237 65.3248 31.2485 65.6672 31.3075 66.0494C31.3839 66.4258 31.4032 66.8089 31.4327 67.1911C31.4622 67.5278 31.5128 67.8617 31.5865 68.19C31.5902 68.5192 31.615 68.8881 31.4963 69.2078C31.4299 69.4046 31.2817 69.5379 31.0975 69.607C30.277 69.6354 29.4399 69.5095 28.7253 69.0706L28.7243 69.0706ZM34.3317 49.3651C35.0657 49.4512 35.7932 49.5931 36.4894 49.8513C37.4987 50.1928 38.4012 50.767 39.2585 51.4008C40.4308 52.2105 41.5111 53.2255 42.0995 54.5696C42.4476 55.5108 42.7709 56.4681 42.9992 57.45C43.0204 57.6174 43.0379 57.7829 43.0536 57.9485C42.9854 58.0383 42.9339 58.1405 42.851 58.218C42.5637 58.4479 42.3086 58.5368 41.9642 58.4167C41.9347 58.4034 41.9052 58.3902 41.8748 58.377C41.8711 58.3751 41.8675 58.3741 41.8638 58.3722C41.419 58.1812 40.9189 58.062 40.3728 57.8406C39.2042 57.275 39.0449 55.8267 38.5504 54.7418C38.1489 53.9254 37.1487 53.4383 36.2942 53.3191C35.4865 53.2037 34.6494 53.3787 33.8565 53.1687C33.0977 52.9861 32.8012 52.1386 32.6317 51.4414C32.5599 51.0915 32.57 50.7292 32.5433 50.3716C32.5746 50.3101 32.5921 50.2344 32.6069 50.173C32.6308 50.0821 32.6787 50.0017 32.7201 49.9185C32.8546 49.6432 33.0535 49.3746 33.3344 49.2478C33.6659 49.2781 33.9974 49.315 34.3289 49.3632L34.3317 49.3651ZM32.3168 49.5316C32.3168 49.5316 32.3122 49.5231 32.3094 49.5184C32.314 49.5184 32.3177 49.5203 32.3223 49.5203C32.3205 49.5241 32.3186 49.5278 32.3168 49.5307L32.3168 49.5316ZM43.1328 15.0489C43.1512 15.0981 43.1668 15.1473 43.1807 15.1955C43.1807 15.1983 43.1807 15.2002 43.1807 15.2031L43.1807 36.0777C43.0867 36.1468 42.9992 36.2376 42.8712 36.231C42.8178 36.2338 42.758 36.2272 42.7184 36.1856C42.7064 36.1723 42.6981 36.1572 42.6889 36.1421C42.6429 34.2568 40.895 33.0583 39.9032 31.629C39.4685 30.9574 39.1664 30.1572 39.1379 29.3409C39.0799 28.4157 39.4685 27.5464 39.9059 26.7547C41.1666 24.5687 40.4189 23.7864 39.3387 21.8274C38.7981 20.6724 38.9574 19.5789 39.6426 18.5308C39.9999 17.9633 40.4925 17.4411 40.9742 16.9701C41.3462 16.6314 41.7081 16.272 41.9163 15.7981C42.0618 15.4991 42.14 15.1728 42.1658 14.8408C42.2137 14.7528 42.199 14.6431 42.2441 14.5523C42.257 14.4974 42.3113 14.4539 42.3703 14.4302C42.7478 14.2524 43.0287 14.7377 43.1346 15.0489L43.1328 15.0489ZM23.0101 2.76037C23.443 2.80767 23.8389 2.98834 24.2266 3.18037C24.281 3.21726 24.3436 3.25415 24.4044 3.26929C24.7424 3.46699 25.0803 3.66563 25.4192 3.86427C27.3651 5.00317 29.3091 6.14583 31.255 7.28473C34.0186 8.9051 36.7841 10.5255 39.5477 12.1458C39.8534 12.3256 40.1592 12.5053 40.4658 12.685C40.4935 12.7285 40.5349 12.7626 40.5837 12.7787C40.6823 12.8449 40.7605 12.9385 40.8499 13.0161C41.0184 13.1845 41.1786 13.3519 41.3287 13.5401C41.5267 13.8655 41.6842 14.2373 41.7063 14.6242C41.6952 14.7982 41.721 14.9723 41.7183 15.1444C41.6998 15.1955 41.6962 15.2513 41.7081 15.3024C41.6971 15.345 41.6851 15.3885 41.6731 15.432C41.4788 15.9778 41.0709 16.3807 40.6574 16.7572C39.7116 17.6899 38.7005 18.8799 38.6461 20.2912C38.5485 22.2975 40.2531 23.1687 40.1951 24.9688C40.1168 25.6905 39.7015 26.3092 39.3921 26.9458C39.0329 27.5994 38.7852 28.324 38.7668 29.0817C38.7345 30.2461 39.207 31.4039 39.9317 32.2921C40.8462 33.4518 42.2073 34.4838 42.3215 36.0891C42.3297 36.371 42.3003 36.6566 42.2331 36.9328C42.2312 36.9385 42.2294 36.9433 42.2275 36.9489C42.1133 37.2932 41.9393 37.6158 41.6971 37.8826C41.5912 37.997 41.4963 38.0982 41.3849 38.2155C41.3444 38.2486 41.3011 38.278 41.2643 38.3139C40.6104 38.75 39.9566 39.187 39.3027 39.6231C35.5003 42.1591 31.7007 44.6979 27.8983 47.234C27.8928 47.2378 27.8882 47.2415 27.8836 47.2453C27.8697 47.25 27.855 47.2567 27.8403 47.2652C27.4563 47.5215 26.9848 47.7164 26.7518 48.1449C26.5897 48.3946 26.6394 48.7607 26.9019 48.9149C27.3006 49.1192 27.7694 49.0454 28.2013 49.0833C29.0218 49.1287 29.846 49.1126 30.6684 49.1211C30.906 49.1277 31.1445 49.1343 31.3811 49.1419C31.3968 49.1447 31.4143 49.1457 31.4318 49.1438C31.4327 49.1438 31.4336 49.1438 31.4346 49.1438C32.3886 49.753 32.1087 50.4861 32.2606 51.4395C32.6842 53.3305 33.4237 53.7287 35.2425 53.654C35.6348 53.6502 36.0299 53.6644 36.4185 53.7202C37.0548 53.8602 37.6921 54.1742 38.1074 54.702C38.6379 55.6593 38.7438 56.8729 39.5256 57.6808C40.1546 58.3316 40.9631 58.4091 41.6722 58.7014C41.7155 58.7326 41.7698 58.7534 41.8242 58.7695C42.2441 58.9682 42.6217 59.2671 42.8915 59.8431C42.8887 59.8375 42.8869 59.8337 42.8841 59.8271C42.9661 59.9898 43.0453 60.1581 43.1024 60.3322C43.1199 60.3984 43.1401 60.4703 43.1742 60.5261C43.1724 60.5412 43.1715 60.5554 43.1678 60.5706C43.1641 60.6103 43.1705 60.6434 43.1816 60.6727C43.1816 63.152 43.1816 65.6313 43.1816 68.1105C43.1613 68.1767 43.1797 68.2562 43.1705 68.329C43.1208 68.8256 42.8187 69.3109 42.3703 69.5247C42.3086 69.5606 42.2459 69.5937 42.1796 69.6183L32.78 69.6183C32.7404 69.5994 32.7017 69.5795 32.6676 69.5521C32.5203 69.4452 32.3822 69.309 32.2753 69.152C32.139 68.8256 32.0313 68.487 31.9521 68.1408C31.9503 68.1285 31.9484 68.1171 31.9447 68.1067C31.8932 67.8778 31.8545 67.647 31.8278 67.4134C31.7725 66.9688 31.7771 66.5138 31.686 66.073C31.6215 65.7173 31.6031 65.3484 31.5248 64.9928C31.3084 64.0724 30.7697 63.2523 30.0412 62.6677C29.4233 62.1569 28.6129 62.0604 27.8992 61.7511C26.9857 61.42 26.3779 60.616 26.1605 59.6596C25.9856 59.0145 26.0574 58.2975 25.9248 57.6401C25.654 56.2988 25.0149 54.3521 23.3693 54.5204C22.2255 54.6481 21.4897 55.7095 21.149 56.7556C21.0293 57.1444 20.9713 57.5502 20.8746 57.9456C20.7327 58.4924 20.5421 59.0296 20.345 59.5584C20.1507 60.0787 19.7759 60.5403 19.2565 60.7427C18.541 61.0151 17.7398 61.1939 17.2029 61.7927C15.8639 63.3383 16.3796 65.5622 16.0647 67.4399C16.0168 67.7586 15.9394 68.0708 15.8492 68.3792C15.7074 68.6346 15.5232 68.8644 15.2773 69.0215C15.1576 69.1132 15.0443 69.2154 14.9044 69.275C14.8445 69.2891 14.7773 69.3156 14.7257 69.3544C14.384 69.4244 14.0387 69.4783 13.6906 69.5124C13.2283 69.5389 12.7191 69.572 12.2411 69.5795C12.0928 69.5956 11.7871 69.5417 11.6223 69.6183C11.2668 69.6183 10.9122 69.6183 10.5568 69.6183L3.77248 69.6183C3.67947 69.5351 3.5266 69.4783 3.43451 69.4263C3.22363 69.2778 3.0551 69.0773 2.93723 68.8455C2.84421 68.6336 2.79541 68.4397 2.75212 68.2032C2.73555 68.1162 2.75489 68.0103 2.72726 67.927L2.72726 62.1616C2.78988 62.0982 2.84053 62.0055 2.90315 61.9497C3.09194 61.7738 3.29546 61.6092 3.51279 61.4474C3.80472 61.2885 4.11046 61.1561 4.41804 61.0331C5.55719 60.5904 6.59505 59.6029 6.71569 58.3032C6.75621 57.7924 6.7645 57.2456 6.96802 56.7547C7.28849 55.8873 7.94693 55.1939 8.73523 54.7503C10.1451 53.9737 11.6425 53.2009 12.0293 51.4443C12.056 51.3469 12.0781 51.2447 12.0984 51.1397C12.1085 51.1094 12.1131 51.0773 12.1168 51.0442C12.2199 50.4861 12.301 49.8759 12.7909 49.5534C12.8075 49.5411 12.8204 49.5269 12.8314 49.5127C12.9502 49.4957 13.0699 49.4805 13.1887 49.4711C13.8214 49.4001 14.4577 49.4172 15.0931 49.4332C15.945 49.4418 16.8125 49.4522 17.6717 49.4247C18.087 49.3916 18.5235 49.4673 18.9149 49.2838C19.1506 49.1674 19.3827 48.9716 19.4619 48.7068C19.5273 48.4675 19.4748 48.2111 19.3799 47.9879C19.2897 47.7277 19.1608 47.4695 18.96 47.2775C18.8035 47.1015 18.5981 46.9984 18.3964 46.8868C18.3117 46.8253 18.2288 46.7515 18.1349 46.7024C18.11 46.6901 18.0833 46.6853 18.0575 46.6863C17.7472 46.4867 17.4341 46.2909 17.1219 46.0932C15.1263 44.8285 13.1316 43.5619 11.1351 42.2972C9.19107 41.0646 7.24521 39.8312 5.30118 38.5977C4.89506 38.3404 4.48895 38.0831 4.08283 37.8258C3.98797 37.7482 3.85536 37.6886 3.77709 37.63C3.48424 37.4635 3.22823 37.2942 2.99248 37.0378C2.82487 36.4656 2.87921 35.8772 2.91236 35.2832C2.9142 35.2415 2.91696 35.1999 2.91973 35.1583C2.95748 34.9511 3.00813 34.7534 3.08825 34.551C3.34887 33.8028 3.83603 33.1662 4.37659 32.6081C4.88677 32.0755 5.47247 31.5988 6.04803 31.1381C7.15404 30.2035 8.03074 28.9738 8.1219 27.4604C8.2011 26.4444 7.83366 25.4436 7.22218 24.6548C7.00577 24.3795 6.7737 24.1146 6.60057 23.8063C6.38508 23.39 6.24879 22.9294 6.19446 22.4621C6.10697 21.7375 6.46152 21.0725 6.77831 20.4529C7.05089 20.0367 7.11996 19.5118 6.89987 19.0539C6.50112 18.1685 5.5443 17.7968 4.78087 17.3163C4.011 16.8092 2.99248 16.0828 3.1564 15.0073C3.17942 14.9221 3.23928 14.8512 3.24849 14.7613C3.24941 14.7547 3.24849 14.7471 3.24849 14.7405C3.3019 14.6686 3.35715 14.5977 3.41609 14.5315C3.74301 14.2316 4.06072 13.9157 4.44474 13.6924C4.45579 13.6849 4.465 13.6763 4.47421 13.6678C4.7689 13.4749 5.06359 13.2819 5.35736 13.088C9.35407 10.463 13.3499 7.83904 17.3466 5.21505C17.9562 4.81586 18.5649 4.41574 19.1737 4.01562C19.9187 3.56724 20.6793 3.11037 21.5118 2.85592C22.0027 2.74714 22.511 2.73389 23.0111 2.767L23.0101 2.76037ZM43.5582 1.35C43.5196 1.10595 43.4514 0.866636 43.4348 0.618803C43.4192 0.553534 43.4183 0.464613 43.41 0.379477L45.4046 0.379476C45.4065 0.399343 45.4065 0.418264 45.4046 0.437185C45.4175 0.763533 45.4553 1.07568 45.4848 1.40581C45.517 1.63473 45.5032 1.86742 45.5271 2.09728C45.5271 2.11999 45.5253 2.14364 45.5244 2.16917L43.6374 2.16917C43.6264 1.8958 43.5776 1.62243 43.5573 1.35L43.5582 1.35ZM2.31561 0.379478C2.31561 0.379478 2.31561 0.385155 2.31561 0.387047C2.32666 0.581909 2.35245 0.82029 2.34785 1.03501C2.37271 1.41622 2.33587 1.78796 2.34048 2.16917L0.375272 2.16917C0.390007 2.07458 0.413029 1.98093 0.413029 1.88351C0.440656 1.40203 0.425001 0.875153 0.455391 0.37854L2.31561 0.37854L2.31561 0.379478Z" fill="black"/>
<path d="M2.70283 55.5192C2.72401 55.0623 2.6881 54.6026 2.71757 54.1466C2.74612 53.8997 2.39249 53.8477 2.35289 54.0927C2.31513 54.5619 2.35842 55.0452 2.33447 55.5163C2.33816 55.7651 2.69547 55.766 2.70283 55.5182L2.70283 55.5192Z" fill="black"/>
<path d="M26.3589 69.7988C26.3912 69.9209 26.5146 69.9549 26.6223 69.9256C26.9925 69.9256 27.3636 69.9275 27.7329 69.9284C27.9751 69.9237 27.9742 69.5567 27.7329 69.5501C27.4115 69.5434 27.0892 69.5538 26.7678 69.5453C26.5956 69.5368 26.3064 69.5453 26.3589 69.7988Z" fill="black"/>
<path d="M16.3258 69.7515C16.3378 69.9899 16.58 69.9398 16.7411 69.9237C16.7798 69.9228 16.824 69.9161 16.8636 69.9265C16.9603 69.9549 17.0635 69.8925 17.0902 69.7941C17.1427 69.4905 16.7568 69.5349 16.5698 69.5595C16.4511 69.5491 16.3249 69.6153 16.3258 69.7515Z" fill="black"/>
<path d="M19.8951 14.8236C14.483 15.7714 9.74033 20.4357 9.98897 26.3118C10.1326 31.0594 13.679 35.0418 17.9631 36.4815C25.1074 39.0421 34.1406 34.8431 34.7861 26.5795C35.2106 18.4748 27.1316 13.3943 19.8951 14.8226L19.8951 14.8236ZM25.0807 15.2445C29.8326 16.18 34.0964 20.1009 34.4187 25.2467L34.4187 25.2448C34.8303 31.6771 29.2625 36.4692 23.3126 36.8144C17.23 37.294 10.8482 33.1679 10.3711 26.5701C10.093 22.8166 12.0951 19.2401 15.1101 17.1969C17.9916 15.2 21.6798 14.5398 25.0807 15.2436L25.0807 15.2445Z" fill="black"/>
<path d="M34.788 26.5643C34.788 26.569 34.7871 26.5747 34.7861 26.5795C34.7861 26.5833 34.7861 26.5862 34.7861 26.59L34.788 26.5643Z" fill="black"/>
<path d="M13.4968 22.6719C13.0971 24.5108 14.0991 26.2891 15.4786 27.411C15.4804 27.3911 15.4832 27.3722 15.485 27.3523C15.4942 27.2814 15.5154 27.2114 15.5393 27.1442C15.5688 27.0638 15.6139 26.9919 15.6627 26.9229C15.753 26.7942 15.858 26.6779 15.9584 26.5597C15.9924 26.5199 16.0256 26.4802 16.0615 26.4424C16.0882 26.4149 16.114 26.3875 16.1425 26.3629C16.1775 26.3317 16.2162 26.3071 16.2558 26.2825C16.358 26.2191 16.4731 26.1775 16.5855 26.1397C16.6988 26.1018 16.813 26.0668 16.9308 26.0526C17.0404 26.0403 17.15 26.0356 17.2596 26.0337L17.2642 26.0337C17.2706 26.0337 17.2771 26.0337 17.2835 26.0337C17.3572 26.0337 17.4318 26.0337 17.5046 26.0422C17.5911 26.0526 17.674 26.0791 17.756 26.1075C17.8978 26.1567 18.0368 26.2116 18.1658 26.2929C18.3076 26.3837 18.4365 26.4944 18.5277 26.6391C18.6133 26.7744 18.6677 26.9276 18.7229 27.078C18.7487 27.148 18.7717 27.219 18.7929 27.2899C18.8178 27.3731 18.8297 27.4592 18.8353 27.5453C18.8371 27.5718 18.838 27.5973 18.838 27.6238C18.838 27.6796 18.8343 27.7345 18.8279 27.7894C18.8196 27.8707 18.8012 27.9483 18.7818 28.0277C18.7441 28.1829 18.7036 28.3361 18.6373 28.4808C18.606 28.5489 18.5691 28.6151 18.5286 28.6785C18.4826 28.7485 18.4301 28.8091 18.3711 28.8668C18.337 28.9008 18.3011 28.932 18.2634 28.9623C19.8805 29.5601 21.6366 29.7853 23.3458 29.7361C26.7421 29.6547 31.6119 27.9899 32.262 24.0775C32.2906 23.8836 32.3044 23.6916 32.3044 23.5015C32.3044 21.7316 31.1118 20.1501 29.6964 19.2041C27.7818 17.8978 25.4713 17.3378 23.1902 17.2773C19.6392 17.1591 14.4407 18.6659 13.4968 22.6738L13.4968 22.6719Z" fill="black"/>
<path d="M15.0779 36.0587C15.1654 35.8118 14.8431 35.7692 14.6948 35.6756C14.2767 35.4258 13.8697 35.1477 13.5032 34.8223C13.389 34.7372 13.3061 34.5783 13.1551 34.5679C12.9727 34.5622 12.9036 34.8308 13.0611 34.9188C13.3374 35.1875 13.6312 35.4362 13.9572 35.6396C14.1634 35.7938 14.4176 35.9726 14.6607 36.0795C14.7989 36.1495 14.9867 36.2545 15.077 36.0596L15.0779 36.0587Z" fill="black"/>
<path d="M15.7539 36.3888C15.7539 36.2843 15.6714 36.1996 15.5697 36.1996C15.468 36.1996 15.3855 36.2843 15.3855 36.3888C15.3855 36.4932 15.468 36.5779 15.5697 36.5779C15.6714 36.5779 15.7539 36.4932 15.7539 36.3888Z" fill="black"/>
<path d="M21.0481 13.7187C21.7757 13.6147 22.5225 13.592 23.2657 13.6203C23.5898 13.6449 23.9122 13.697 24.2326 13.7528C24.3312 13.7726 24.4269 13.6885 24.4398 13.591C24.4555 13.3139 24.0991 13.3678 23.9186 13.3195C23.0649 13.1777 22.1965 13.2221 21.3373 13.2997C20.9045 13.3839 20.4275 13.346 20.0259 13.5409C19.8206 13.6667 20.0002 13.9902 20.212 13.8682C20.468 13.7499 20.7728 13.7689 21.0481 13.7187Z" fill="black"/>
<path d="M25.4003 13.7641C25.4003 13.6596 25.3179 13.5749 25.2162 13.5749C25.1144 13.5749 25.032 13.6596 25.032 13.7641C25.032 13.8686 25.1144 13.9533 25.2162 13.9533C25.3179 13.9533 25.4003 13.8686 25.4003 13.7641Z" fill="black"/>
<path d="M35.3672 26.4689C35.3875 26.4982 35.3884 26.5341 35.3912 26.5682C35.4289 27.1045 35.3368 27.6323 35.1573 28.1346C35.0983 28.3758 35.4427 28.4723 35.5127 28.2349C35.6103 27.9067 35.7291 27.5822 35.7457 27.2369C35.7494 26.922 35.8268 26.5701 35.6849 26.2778C35.6361 26.1879 35.5183 26.1586 35.4326 26.2097C35.3442 26.2626 35.3175 26.3781 35.3672 26.4689Z" fill="black"/>
<path d="M35.243 29.2262C35.243 29.1217 35.1605 29.037 35.0588 29.037C34.9571 29.037 34.8746 29.1217 34.8746 29.2262C34.8746 29.3307 34.9571 29.4154 35.0588 29.4154C35.1605 29.4154 35.243 29.3307 35.243 29.2262Z" fill="black"/>
<path d="M17.639 5.92618C17.5469 5.98861 17.4594 6.05767 17.3682 6.12199C17.173 6.2705 17.3811 6.56847 17.5809 6.43131C18.5543 5.74268 19.5452 5.08431 20.5527 4.4477C20.7424 4.27554 20.4873 3.98609 20.3022 4.17244C19.3887 4.70878 18.5249 5.33971 17.639 5.92618Z" fill="black"/>
<path d="M20.5619 4.44125C20.5619 4.44125 20.5561 4.44524 20.5532 4.44723C20.5493 4.45023 20.5473 4.45422 20.5435 4.45721L20.5629 4.44125L20.5619 4.44125Z" fill="black"/>
<path d="M16.3875 6.75957C16.3875 6.86267 16.4648 6.95064 16.567 6.95348C16.6656 6.95632 16.7558 6.87214 16.7558 6.76903C16.7558 6.66593 16.6785 6.57795 16.5762 6.57511C16.4777 6.57227 16.3875 6.65646 16.3875 6.75957Z" fill="black"/>
<path d="M5.76572 20.5568C5.81913 20.3118 5.95727 20.0924 5.9895 19.8436C6.05212 18.9478 5.35592 18.5174 4.69655 18.1173C4.54 18.0218 4.38068 17.931 4.23886 17.8127C4.15967 17.7484 4.03811 17.7749 3.98193 17.8553C3.79591 18.1286 4.42212 18.3528 4.58881 18.4909C4.87152 18.6763 5.17174 18.8438 5.40012 19.1039C5.56773 19.2988 5.63587 19.575 5.62022 19.8313C5.55852 20.047 5.4609 20.2513 5.40749 20.4708C5.35776 20.7148 5.70494 20.7971 5.76572 20.5578L5.76572 20.5568Z" fill="black"/>
<path d="M5.58064 21.0724C5.58064 20.9693 5.49039 20.8851 5.39186 20.8879C5.28964 20.8908 5.21228 20.9787 5.21228 21.0818C5.21228 21.1849 5.30253 21.2691 5.40107 21.2663C5.50329 21.2634 5.58064 21.1755 5.58064 21.0724Z" fill="black"/>
<path d="M6.71335 28.9585C7.02185 28.5565 7.25576 28.094 7.35798 27.5898C7.42981 27.2379 7.41323 26.8718 7.35337 26.519C7.29444 26.204 6.86622 26.3109 6.99238 26.6098C7.08447 27.0648 7.03566 27.5434 6.85977 27.9729C6.72808 28.3002 6.55035 28.5754 6.3238 28.8516C6.23356 29.02 5.92321 29.196 6.09726 29.4022C6.35696 29.6197 6.55219 29.107 6.71427 28.9585L6.71335 28.9585Z" fill="black"/>
<path d="M5.99962 29.6737C6.02449 29.4097 5.65244 29.3833 5.62942 29.6472C5.62942 29.6462 5.63034 29.6443 5.63034 29.6434C5.56588 29.9461 5.98857 29.983 5.9987 29.6746L5.99962 29.6737Z" fill="black"/>
<path d="M20.0526 48.28C19.9808 48.4692 20.0342 48.6707 19.9955 48.8617C19.9292 49.103 19.7533 49.3357 19.5406 49.4634C19.2367 49.6525 18.8822 49.7008 18.5378 49.7547C18.1574 49.7888 17.7614 49.8171 17.3793 49.7859C17.2126 49.7452 16.9676 49.7566 16.9943 49.995C17.0127 50.0981 17.1094 50.1643 17.208 50.1473C17.6334 50.2012 18.0663 50.1709 18.4936 50.1397C18.908 50.0848 19.3371 50.0271 19.7018 49.8039C20.0526 49.6024 20.3271 49.225 20.3796 48.8116C20.3832 48.6603 20.3611 48.507 20.4127 48.3614C20.4615 48.1192 20.1125 48.0388 20.0526 48.2791L20.0526 48.28Z" fill="black"/>
<path d="M19.8805 47.6311C19.8805 47.7342 19.9763 47.8165 20.073 47.8118C20.1761 47.807 20.2489 47.7172 20.2489 47.6141C20.2489 47.511 20.1531 47.4287 20.0564 47.4334C19.9532 47.4381 19.8805 47.528 19.8805 47.6311Z" fill="black"/>
<path d="M39.6356 29.4268C39.7167 29.9177 39.8345 30.4162 40.0721 30.8542C40.2093 31.0424 40.434 31.7859 40.7306 31.5655C40.8558 31.4624 40.784 31.3063 40.69 31.2117C40.6228 31.1086 40.5703 30.9942 40.5114 30.8854C40.2775 30.5099 40.1495 30.0899 40.0482 29.6566C40.0077 29.4911 40.0334 29.1884 39.7922 29.2121C39.6955 29.2253 39.6181 29.3237 39.6347 29.4258L39.6356 29.4268Z" fill="black"/>
<path d="M40.8724 32.0517C40.8724 32.1548 40.9581 32.24 41.0585 32.239C41.1598 32.239 41.2408 32.151 41.2408 32.0479C41.2408 31.9448 41.1552 31.8597 41.0548 31.8606C40.9535 31.8606 40.8724 31.9486 40.8724 32.0517Z" fill="black"/>
<path d="M39.3078 12.8021C39.2599 12.891 39.2912 13.0112 39.3796 13.0594C39.5297 13.1417 39.6688 13.2439 39.8133 13.3356C40.1808 13.5749 40.481 13.9297 40.6532 14.3402C40.7582 14.6713 40.6725 15.0402 40.4948 15.3277C40.446 15.4176 40.4782 15.5349 40.5666 15.585C40.8273 15.7298 40.982 15.1849 41.0253 14.9957C41.2325 14.203 40.6523 13.4614 40.0473 13.0414C39.8833 12.9374 39.7259 12.8248 39.5583 12.7293C39.4698 12.681 39.3566 12.7113 39.3078 12.8031L39.3078 12.8021Z" fill="black"/>
<path d="M39.9929 16.1015C39.9929 16.2046 40.0786 16.2898 40.1789 16.2888C40.2802 16.2888 40.3613 16.2008 40.3613 16.0977C40.3613 15.9946 40.2756 15.9095 40.1753 15.9104C40.074 15.9104 39.9929 15.9984 39.9929 16.1015Z" fill="black"/>
<path d="M28.7211 45.3912C28.6032 45.4631 28.4614 45.6021 28.5434 45.7534C28.5968 45.8414 28.7027 45.8793 28.7939 45.8272C29.2819 45.411 29.8538 45.1093 30.3925 44.7489C30.7821 44.5115 31.156 44.2144 31.5602 43.9912C31.6496 43.9439 31.68 43.8219 31.6321 43.7339C31.481 43.4558 31.0427 43.8966 30.8576 43.9893C30.1596 44.4736 29.4191 44.904 28.7211 45.3912Z" fill="black"/>
<path d="M27.8241 46.0296C27.8241 46.1327 27.9042 46.2207 28.0055 46.2216C28.105 46.2235 28.1925 46.1384 28.1925 46.0353C28.1925 45.9322 28.1123 45.8442 28.011 45.8433C27.9116 45.8414 27.8241 45.9265 27.8241 46.0296Z" fill="black"/>
<path d="M7.5496 57.0875C7.37832 57.7005 7.46856 58.373 7.20611 58.9595C7.13243 59.1052 7.29636 59.2773 7.44002 59.214C7.58644 59.1373 7.6113 58.9368 7.65919 58.7902C7.78996 58.3021 7.77522 57.7762 7.88205 57.2786C7.96769 56.9589 8.11135 56.6515 8.27804 56.3677C8.34434 56.2646 8.4484 56.1927 8.50274 56.083C8.54418 55.9903 8.50274 55.8749 8.41065 55.8332C8.08741 55.6819 7.6242 56.8274 7.5496 57.0885L7.5496 57.0875Z" fill="black"/>
<path d="M6.85333 59.8903C6.83399 59.9915 6.91134 60.0908 7.00712 60.106C7.14709 60.1296 7.22445 59.9962 7.2309 59.8695C7.24103 59.5668 6.85425 59.5866 6.85241 59.8893L6.85333 59.8903Z" fill="black"/>
<path d="M21.144 60.8078C21.4083 60.298 21.5372 59.7238 21.6505 59.1638C21.7444 58.9349 21.4175 58.7845 21.3143 59.0087C21.2241 59.2887 21.2103 59.5914 21.1044 59.8695C20.9193 60.6139 20.6669 60.9034 20.1024 61.3924C19.9735 61.5116 19.6724 61.6156 19.8105 61.8398C19.9891 62.0792 20.317 61.68 20.4735 61.5598C20.7148 61.3271 20.9773 61.1058 21.1449 60.8078L21.144 60.8078Z" fill="black"/>
<path d="M19.281 62.2967C19.281 62.1936 19.2027 62.1056 19.1005 62.1037C19.0019 62.1018 18.9126 62.186 18.9126 62.2891C18.9126 62.3922 18.9909 62.4802 19.0931 62.4821C19.1916 62.484 19.281 62.3998 19.281 62.2967Z" fill="black"/>
<path d="M27.5681 67.4009C27.7109 67.1862 27.4226 67.0699 27.2974 66.9497C27.1629 66.8249 27.0368 66.6896 26.9161 66.5505C26.7734 66.3755 26.6399 66.192 26.5146 66.0038C26.464 65.9158 26.3765 65.773 26.2743 65.7143C26.1417 65.6254 25.9593 65.773 26.0044 65.9253C26.0173 65.9858 26.0634 66.0189 26.1057 66.0577C26.2853 66.3216 26.4594 66.595 26.6712 66.8353C26.8637 67.0576 27.0709 67.2676 27.3103 67.4378C27.3904 67.5003 27.5074 67.4832 27.5681 67.4019L27.5681 67.4009Z" fill="black"/>
<path d="M28.3767 67.9382C28.3767 67.8351 28.2947 67.749 28.1934 67.7481C28.093 67.7481 28.0083 67.8332 28.0083 67.9363C28.0083 68.0394 28.0903 68.1255 28.1916 68.1265C28.2919 68.1265 28.3767 68.0413 28.3767 67.9382Z" fill="black"/>
<path d="M27.651 61.1266C27.8895 61.225 28.1317 61.3148 28.3776 61.3943C28.4734 61.4265 28.5783 61.3555 28.6032 61.2609C28.6539 61.0623 28.4282 61.0112 28.2883 60.9677C28.14 60.9195 27.9945 60.8627 27.8518 60.7984C27.6307 60.682 27.4337 60.9781 27.6501 61.1266L27.651 61.1266Z" fill="black"/>
<path d="M29.024 61.4586C28.9319 61.6809 29.2929 61.8549 29.4062 61.6478C29.5388 61.4113 29.1244 61.2098 29.024 61.4586Z" fill="black"/>
<path d="M15.3984 66.9327C15.368 67.2732 15.2823 67.6034 15.1212 67.9127C14.9048 68.2211 14.6202 68.5162 14.2537 68.6344C14.0548 68.6969 13.5833 68.6637 13.644 68.9854C13.7361 69.2322 13.9885 69.0478 14.168 69.0336C14.6045 68.9891 14.9628 68.6827 15.2519 68.3592C15.5899 67.9789 15.7059 67.4539 15.7722 66.9582C15.7851 66.7984 15.6617 66.6035 15.4895 66.683C15.3984 66.7265 15.3578 66.84 15.3993 66.9337L15.3984 66.9327Z" fill="black"/>
<path d="M13.0087 68.8217C12.9055 68.8264 12.8328 68.9163 12.8328 69.0194C12.8328 69.1225 12.9285 69.2039 13.0252 69.2001C13.1284 69.1953 13.2011 69.1055 13.2011 69.0024C13.2011 68.8993 13.1053 68.8179 13.0087 68.8217Z" fill="black"/>
<path d="M31.458 51.3628C31.434 51.8159 31.5878 52.2548 31.7398 52.6738C31.8236 52.8573 31.9101 53.2783 32.1827 53.1401C32.308 53.0588 32.273 52.9018 32.1919 52.8015C32.1348 52.688 32.0925 52.566 32.0474 52.4458C31.9184 52.0731 31.7978 51.6882 31.8263 51.289C31.807 50.9778 31.3521 51.0714 31.458 51.3628Z" fill="black"/>
<path d="M32.3264 53.5478C32.215 53.7749 32.5705 53.9536 32.6819 53.7304C32.7924 53.5024 32.4378 53.3246 32.3264 53.5478Z" fill="black"/>
<path d="M37.5737 53.2887C37.6161 53.3274 37.6686 53.3416 37.7192 53.3341C37.7855 53.3558 37.8454 53.3918 37.9062 53.4268C38.1373 53.5687 38.3427 53.755 38.5112 53.9707C38.606 54.1135 38.7027 54.2554 38.793 54.4001C38.8446 54.4881 38.9643 54.5127 39.0472 54.4578C39.2682 54.2866 38.9882 54.0539 38.9007 53.8855C38.6641 53.5138 38.3224 53.2054 37.9319 53.0134C37.8122 52.9585 37.664 52.9122 37.559 53.021C37.4881 53.0938 37.5019 53.2215 37.5728 53.2877L37.5737 53.2887ZM37.8159 53.2924C37.7984 53.3076 37.7782 53.3189 37.7561 53.3265C37.7524 53.3274 37.7441 53.3293 37.7367 53.3312C37.768 53.3237 37.8003 53.3066 37.827 53.2811C37.8233 53.2849 37.8196 53.2887 37.8159 53.2924Z" fill="black"/>
<path d="M39.0629 55.0008C39.0629 55.1039 39.1586 55.1862 39.2553 55.1814C39.3594 55.1767 39.4312 55.0869 39.4312 54.9837C39.4312 54.8806 39.3355 54.7983 39.2388 54.8031C39.1347 54.8078 39.0629 54.8977 39.0629 55.0008Z" fill="black"/>
<path d="M42.3191 65.3464C42.2271 66.0237 42.2022 66.7057 42.2252 67.3886C42.2077 67.5125 42.2519 67.6554 42.3919 67.6667C42.4886 67.6752 42.5862 67.5967 42.5908 67.4936C42.5779 66.7861 42.5862 66.087 42.6866 65.3757C42.7151 65.2593 42.6433 65.1307 42.5217 65.1222C42.4048 65.1118 42.2934 65.2262 42.3191 65.3454L42.3191 65.3464Z" fill="black"/>
<path d="M42.1782 68.2173C42.1782 68.3204 42.274 68.4027 42.3707 68.3979C42.4748 68.3932 42.5466 68.3033 42.5466 68.2002C42.5466 68.0971 42.4508 68.0148 42.3541 68.0196C42.2501 68.0243 42.1782 68.1142 42.1782 68.2173Z" fill="black"/>
</g>
<defs>
<clipPath id="clip0_1157_5033">
<rect width="72" height="46" fill="white" transform="translate(0 72) rotate(-90)"/>
</clipPath>
</defs>
</svg>
