<svg xmlns="http://www.w3.org/2000/svg" width="72" height="59" fill="none"><g clip-path="url(#a)"><path fill="#F2B2FF" d="M34.4081 47.284a5.369 5.369 0 0 1 .218-.3555c.0387-.0454.0755-.0917.1142-.1362a22.1942 22.1942 0 0 1 1.9436-1.986 21.7042 21.7042 0 0 1 2.6439-2.0333c.0954-.0203.1973-.0647.2747-.0782 1.8586-.2966 3.4208.2077 4.7196 1.6112a.203.203 0 0 0 .0623.0869c.7363 1.4161 1.8936 2.6042 3.3085 3.3171 3.6219 1.8565 7.7081.424 9.7262-2.6496a.3747.3747 0 0 0 .0907-.1092c.1699-.1941.3398-.3873.5153-.5757.6202-.6887 1.4631-1.1253 2.3089-1.4499.8127-.2704 1.7019-.2646 2.4863.0793.0028 0 .0057 0 .0094.0009a21.7386 21.7386 0 0 1 3.872 3.3731c.3153.3468.6183.7051.9109 1.0722a.2216.2216 0 0 0 .0557.0493 2.387 2.387 0 0 0 .1246.1342c-.1284.2299-.2577.4598-.387.6897-1.2045 2.1473-2.408 4.2956-3.6124 6.4429-.1605.2878-.3219.5757-.4833.8626a.2332.2332 0 0 0-.0274.0463c-.4823.8018-.9496 1.646-1.6311 2.2835-.3842.3912-.8977.6385-1.4385.6211a.198.198 0 0 0-.0491-.0067h-.0557a.7388.7388 0 0 1-.0444-.0039.2268.2268 0 0 0-.0453.0039H43.8068c-.051-.0039-.1086-.0049-.1615.0038-1.0458-.0569-2.0926-.0975-3.0536-.5592-.5776-.3265-.9986-.8733-1.3885-1.4026-.1605-.256-.337-.5062-.4776-.7728-.0179-.0434-.0444-.0743-.0755-.0936-1.5056-2.6574-3.0121-5.3137-4.5177-7.9701.001-.0029.0029-.0058.0038-.0096.0897-.1749.1841-.3169.2709-.4859h.001Zm29.2976 6.213c.0963.0463.202 0 .2511-.0937.1586-.3053.3002-.5632.4568-.8578a8.7542 8.7542 0 0 1 .3502-.596c.0557-.0888.0302-.2106-.0566-.2676-.0859-.0569-.2058-.0309-.2615.058-.2095.3246-.4106.7071-.5861 1.0365a26.8137 26.8137 0 0 0-.2455.4627c-.0481.0927.0019.2134.0916.2569v.001Zm-.303.7901c.0991.0039.1973-.0792.1973-.1845 0-.1053-.0746-.197-.1803-.2019-.0991-.0038-.1973.0792-.1973.1845 0 .1053.0746.1971.1803.2019Zm-6.4008-7.3595c.1057-.0039.1831-.0937.1831-.199s-.0943-.1903-.1944-.1874c-.1057.0038-.1831.0937-.1831.199s.0944.1903.1944.1874Zm-2.2314 1.8005c.0849.0473.1925.0193.2463-.0609.2502-.1352.522-.2279.7495-.4047.3106-.2164.5768-.4878.8496-.7486.0726-.0744.0679-.2019-.0048-.2734-.1349-.1304-.2784.0039-.3747.1101-.1029.0947-.2029.1923-.3049.2889-.201.1787-.3974.3351-.6268.4607-.2076.1159-.8929.3053-.5342.6279Zm-9.1486-1.2828c.1057-.0039.1831-.0937.1831-.199s-.0943-.1903-.1944-.1874c-.1057.0039-.1831.0937-.1831.199s.0944.1903.1944.1874Zm-1.4857-1.6537c.1784.2541.32.5361.5125.7795.1256.1343.303.4289.4994.2454.0708-.0754.0698-.2009-.0047-.2734-.3795-.3593-.5768-.8655-.91-1.2654-.4399-.5622-.9486-1.1002-1.5792-1.4354-.3313-.17-.6862-.2782-1.0449-.3622-.0925-.0454-.2058-.0184-.2558.0773-.0472.0898-.017.2163.0755.2627.4229.1343.8665.228 1.2479.4743.5786.3941 1.06.9186 1.4593 1.4972Zm-2.1069 11.9662c.1058-.0039.1813-.0957.1813-.201 0-.1053-.0963-.1893-.1964-.1854-.1057.0038-.1812.0956-.1812.2009 0 .1053.0963.1893.1963.1855Zm-4.0164-3.9962c.4994 1.0346 1.0214 2.0585 1.7387 2.951.3568.4337.8647.7022 1.3621.9321.118.0725.2813.0783.338-.0743.0726-.228-.2002-.2763-.3474-.3497-.3351-.1884-.6938-.3564-.9619-.6424-.5512-.6336-.9817-1.39-1.363-2.1328-.1359-.2617-.2719-.5235-.4012-.7882-.033-.1043-.135-.1719-.2416-.1372-.0944.031-.1586.1449-.1227.2425l-.001-.001Z"/><path fill="#fff" d="M61.2402 4.8664a2.562 2.562 0 0 0-.488.3671c-.3625.34-.5447.881-.5098 1.3774.0623.4347.2615.8066.5352 1.1292-.436-.0879-.8608-.2289-1.2658-.4308-.3587-.1883-.7334-.398-1.0147-.6887a.1877.1877 0 0 0-.0623-.0531 5.641 5.641 0 0 1 .0057-.4733.1805.1805 0 0 0 .1151-.0619c.219-.1941.4824-.4085.7335-.5428.6107-.3352 1.2733-.538 1.9501-.624l.001.001Z"/><path fill="#F2B2FF" d="M30.3067 38.5374a.1936.1936 0 0 0 .0358-.1188.1924.1924 0 0 1 .035-.0695c.0859-.0947.1765-.1961.2926-.2522.1595-.0502.3766-.0241.4691.1343.0378.0551.0869.141.1095.198.0104.0232.0189.0464.0283.0686a8.78 8.78 0 0 0 .0038.5458c.0236 1.135-.0189 2.2786.0859 3.4098a.1768.1768 0 0 0-.0189.0434c-.0085.0194-.0151.0425-.0245.0619-.1039.1931-.321.3776-.5456.3545-.2473-.0454-.3427-.2753-.4399-.4811-.0132-.4231-.0302-.8462-.0321-1.2683-.0038-.8751.0208-1.7512.0019-2.6254l-.0009-.001Z"/><path fill="#CE6AE2" d="M60.5162 10.0285c.4625.0956.9241.1053 1.3913.1256.5796.0038 1.163-.001 1.7359-.1015a6.4092 6.4092 0 0 0 .3729-.0966c.0302.0474.0632.0928.0689.1507.0104.0744.0255.1507.017.2261-.0066.0521-.0161.1062-.0028.1565-.3956.3245-.8581.5708-1.3933.7061-.8627.1584-1.616-.0377-2.239-.456-.0255-.1178-.0859-.2289-.0802-.3545-.0019-.1033.0151-.2115.0755-.2965.0179-.0203.0378-.0396.0547-.0599h-.0009ZM59.4599 7.715c.522.2395 1.0855.3922 1.6434.4704 1.3658.1874 2.761-.114 4.0202-.6588.2246.2753.2888.6742.2114 1.0133-.0038.1516-.0746.2753-.1312.4105a.2086.2086 0 0 0-.0066.0889c-.0047.0048-.0094.0087-.0142.0145-.4719.2646-.9883.4656-1.5102.6027-.8099.145-1.6831.1343-2.4901.0725-.6636-.0164-1.2677-.286-1.8699-.542-.0255-.0743-.0661-.1496-.0831-.2173-.0604-.2395-.0321-.4897-.0076-.7321.0293-.1903.1199-.373.2379-.5217v-.001Z"/><path fill="#CE6AE2" d="M62.707 7.514c-.185.0918-.3775.173-.5795.2145-.3011.0763-.6249.1275-.8968-.0647-.3332-.3159-.6022-.7409-.6201-1.2171.034-.367.1642-.739.4502-.9775.4106-.3787.9912-.6028 1.5339-.4386.7778.2347.8524.877.8684 1.6006-.0217.4327-.4247.6955-.7551.8838l-.001-.001Zm-.1755-1.9299c-.2539-.1333-.5532-.0734-.8033.086a.1943.1943 0 0 1 .0236.025c.0491.059.0906.1276.1067.2039.0188.0898.016.196-.0463.2695-.0623.0734-.1529.1256-.2511.1236a.3504.3504 0 0 1-.2095-.0396.3737.3737 0 0 1-.0831-.0599c-.0463.1044-.0727.2126-.0727.3188 0 .2028.0963.396.3313.538.3946.2695.9761.1005 1.263-.2588.3464-.457.2388-.937-.2586-1.2046v-.0019Z"/><path fill="#F2B2FF" d="M29.7309 36.8479c.0019.1662-.0217.3294-.0368.4936-.1104 1.108-.5758 2.0614-1.7321 2.27-.3398.0531-.6334.0444-.9647.0396-.0679.0048-.1416-.0183-.2039.0097h-7.8468a.2095.2095 0 0 0-.0812-.0184c-.3634.0019-.7703.0019-1.1242.03-.069.0048-.1567.0009-.2341.0144a.2026.2026 0 0 0-.0963-.0521c-.1888-.2888-.4937-.5873-.6089-.68-.6305-.5516-1.3573-1.0172-1.9954-1.5523-.3927-.3333-.7297-.6955-1.0648-1.0809-.5644-.6588-1.1204-1.3523-1.4423-2.1734-.2851-.6375-.4455-1.3137-.5786-1.9985-.1227-.5526-.2351-1.1089-.2898-1.6731-.1208-1.1262-.1803-2.2381-.1284-3.3672-.0075-.9206.0359-1.8663.2209-2.7617.0793-.4656.2105-.9418.2832-1.4025.0963-.3797.101-.8056.3115-1.1418a.1512.1512 0 0 1 .0547-.0435c.1728-.0251.3483-.0309.523-.0357.2378-.0019.4738-.0309.7117-.0348a4.647 4.647 0 0 0 .3294.0116.184.184 0 0 0 .101.0309h7.3032a.1602.1602 0 0 0 .0472.0107c.0255-.0039.051-.0068.0755-.0107h.5767a.1687.1687 0 0 0 .0661-.0135c.3917.028.7825.1063 1.1676.1662 1.617.31 3.1584 1.0712 4.3261 2.2564.4446.4376.8014.9457 1.0798 1.5078.3021.6028.5805 1.2249.7797 1.872.4748 1.4963.4993 3.092.4361 4.6501-.0434.7679-.0444 1.5388-.0708 2.3067-.0113.3912-.0113.7911.017 1.1871a.2023.2023 0 0 0-.0189.1102c.0283.3013.067.6027.1086.9031-.0038.057-.0019.1169-.0029.1671l.0019.0029Zm-17.255-6.9731a10.4985 10.4985 0 0 1-.1132-.5738c-.0652-.6868-.0208-1.3533-.0265-2.0382.0161-.4066.0208-.8143.0548-1.2199-.0104-.2126.1642-.6289-.1445-.6714-.2888.0116-.1774.4067-.2274.6037-.0803.9476-.0557 1.8991-.0661 2.8496-.0047.3854.0736.764.1567 1.1388.0236.1024.1284.1671.2275.144.1-.0242.1633-.1295.1397-.2328h-.001Zm.1463.6191c-.2303-.1111-.4398.3169-.201.4279.2312.1111.4389-.3177.201-.4279Zm16.0883-2.9732c-.0708-.2598-.1378-.5206-.2425-.7688-.27-.6946-.6778-1.3485-1.1885-1.8846-.0953-.1546-.3417-.084-.3464.0995-.0075.1062.0878.1835.1529.2531.4031.4182.6627.9166.9364 1.4209.0718.1932.1473.3854.2124.5805.0784.1835.0548.5728.3342.5313.0962-.0232.1689-.1314.1397-.2328l.0018.0009Zm.0095.5999c-.1001-.0039-.1954.0811-.1954.1864s.0755.1961.1822.2c.1.0038.1954-.0812.1954-.1864 0-.1053-.0756-.1961-.1822-.2Z"/><path fill="#CE6AE2" d="M31.8198 37.3493c.2964-.7564.8194-1.3852 1.2696-2.0459.1841-.2463.3389-.5129.4984-.7757a9.787 9.787 0 0 1 .32-.3149c1.6094-1.5407 3.7257-2.3926 5.8854-2.6882a.6068.6068 0 0 1 .0632-.0048h22.054a.1897.1897 0 0 0 .0387.0222c1.5848.0608 3.1282.5757 4.4987 1.3823.7665.4279 1.5141.9022 2.1399 1.532.1105.1139.2011.2038.2889.3129.6484 1.1437 1.296 2.2874 1.9445 3.4311a.2107.2107 0 0 0 .0726.0705c.3871.6423.8685 1.3301.7023 2.1183-.1321.6539-.4842 1.2287-.7674 1.8208-.0623.1536-.2077.2859-.2435.4463-.2992.5332-.5985 1.0673-.8977 1.6005-.2067.369-.4134.738-.6202 1.1061-.0962.0579-.184.1709-.2709.2241-.4512.3206-1.0364.3747-1.5631.2598-.3804-.0493-.7061-.2637-.9874-.5197-.1293-.0889-.2152-.2656-.3568-.3284-1.8699-1.7918-4.0438-3.2524-6.4007-4.2792a21.2309 21.2309 0 0 0-.8099-.3332c-.2134-5.0075-5.0774-8.5409-9.7848-7.0649-3.0036.8964-5.2001 3.7855-5.3832 6.95-.033-.0068-.0699-.0039-.1095.0115-2.6779.9969-5.1595 2.5414-7.2645 4.5081a.2.2 0 0 0-.0736.0425c-.3039.2347-.5909.5013-.9392.6656-.8335.4114-1.8784.1835-2.4892-.5226-.0453-.0445-.0943-.1082-.1481-.1623-.3059-.5931-.5305-1.2248-.6919-1.873-.1152-.8732-.1209-1.7628-.1265-2.6409.0141-.9804-.1218-1.9966.1519-2.95v-.0009Zm36.8661-.908c.0982.0058.1992-.0763.1992-.1816s-.0708-.1971-.1775-.2038c-.0982-.0058-.1992.0763-.1992.1816 0 .1052.0708.197.1775.2038Zm-3.1046-2.7771a.187.187 0 0 0 .1907.0801c.3625.1565.7013.37 1.0251.596.2294.1884.4644.371.6768.5796.235.2502.4304.5361.6419.8075.1444.2039.4483-.0058.3115-.2183-.321-.4221-.6249-.8655-1.0497-1.1861-.4653-.3961-.9855-.7554-1.5556-.966-.1708-.0551-.3492.1468-.2407.3072Zm-3.064 7.9613c.1001.0039.1954-.0811.1954-.1864s-.0764-.1961-.1822-.2c-.1-.0038-.1954.0812-.1954.1865 0 .1052.0765.196.1822.1999Zm-2.4325-1.389c.0189.083.0925.1439.1728.1487.5135.172.9543.5303 1.4074.824.1935.1555.4285-.1401.2378-.3004-.2577-.1922-.5323-.3555-.8033-.5284-.2699-.1555-.5522-.3806-.874-.3767-.1001.0251-.1652.1314-.1407.2328ZM33.837 35.8163c.0774.0657.202.0589.2662-.0241.1293-.1681.2709-.3265.3974-.4637.5664-.5718 1.2375-1.0374 1.9096-1.4673.4398-.311.9137-.5448 1.4187-.7119.2766.0271.3455-.3506.0604-.3912-.1491-.0096-.287.0667-.4257.114-.3153.1304-.6343.2608-.9241.4443-.4286.284-.8637.5419-1.2658.8655-.5484.3787-1.0534.8269-1.4612 1.363-.0633.0821-.0567.2028.0236.2724l.0009-.001Zm-.4719.9215c.101.0029.1935-.0831.1935-.1883 0-.1053-.0784-.1952-.1841-.1981-.101-.0029-.1935.0831-.1935.1884 0 .1053.0783.1951.1841.198ZM62.7042 28.7408c-.2067.142-.4087.2366-.6343.3187-.0774.0377-.1935.0551-.2888.0918H40.4096a.135.135 0 0 0-.0283-.0155c-.3785-.1043-.7372-.2811-1.0487-.5274-.523-.395-.9364-.9485-1.1007-1.5986-.0849-.4221.0482-.8568.1785-1.2557.1321-.2483.2322-.512.3634-.7612a.2299.2299 0 0 0 .0198-.0638c.3502-.6249.7004-1.2489 1.0506-1.8739a.1364.1364 0 0 0 .0113-.027 1.385 1.385 0 0 1 .0179-.0348c.3663-.711 1.1214-1.1331 1.8426-1.3726.3115-.058.6324-.143.9515-.1816h16.7349a.1858.1858 0 0 0 .1321-.057c.2435-.0058.4871.0038.725.0657.3671.0753.74.198 1.0307.4482.3861.3641.691.8123.9902 1.2518.051.058.0916.1227.1303.1894a.1688.1688 0 0 0 .0217.0589c.353.6221.7051 1.2441 1.0581 1.8672a.2892.2892 0 0 0 .0312.0589c.167.3429.2982.7128.3266 1.0973-.0048.9051-.4229 1.7918-1.1431 2.3202l-.001.001Zm-23.4594-3.5402c0 .1053.0915.1912.1925.1893.1048-.0019.1851-.0918.1851-.1971 0-.1052-.0916-.1912-.1926-.1893-.1048.0019-.185.0918-.185.1971Zm1.3413-2.2671c-.0774.0705-.1312.1681-.1897.255-.2209.3139-.4267.6385-.6013.9814-.0859.171-.3776.3825-.1624.5651.084.0618.202.0406.2634-.0445.169-.2125.2964-.452.4229-.6916.1642-.2579.3303-.5148.5059-.764.185-.1681-.0406-.4589-.2388-.3014Zm20.1944-.5989c-.1227-.2473-.472-.0502-.3313.1864.1217.2473.4719.0512.3313-.1864Zm2.1267 2.751c-.035-.1082-.118-.2415-.169-.3284-.2105-.3748-.4399-.7409-.6494-1.1137-.2228-.3652-.4182-.7168-.7344-1.0017-.1869-.1613-.4304.1265-.2454.2936.5012.4936.7712 1.163 1.1506 1.7436.0944.1787.2124.3458.2898.5332.0878.2357.4333.1149.3568-.1266h.001Z"/><path fill="#F2B2FF" d="M47.8439 47.3555c-2.5589-1.2934-4.1778-4.2057-3.9493-7.1094.1831-3.2485 2.6439-6.1105 5.757-6.722 4.6545-.9775 8.9748 2.8978 8.6407 7.7392-.3474 5.2615-5.8627 8.4617-10.4493 6.0922h.0009Zm9.7537-7.5962c-.5919-4.197-4.9245-6.8051-8.7984-5.3069-2.5316.9341-4.3222 3.5682-4.2817 6.324-.0302 3.4388 2.6884 6.4535 6.0421 6.6921 4.192.3738 7.6845-3.4542 7.038-7.7082v-.001Z"/><path fill="#fff" d="M51.5394 47.0879c-3.7313.2966-6.9058-2.9519-6.6311-6.7577.0869-1.3794.6391-2.7308 1.5311-3.7605.7042-.8181 1.6169-1.4479 2.6241-1.8043-.0019 0-.0028.0009-.0047.0019l.017-.0058h-.0029c-.0028.001-.0066.0019-.0094.0029 3.5133-1.2606 7.3749.993 8.1036 4.7235.7627 3.7218-1.9303 7.3508-5.6286 7.6h.0009Zm-3.7785-5.7966c.6551.5969 1.1903 1.3195 1.852 1.9087.1906.1584.4304-.1333.2416-.2965-.3549-.312-.6673-.6733-.9892-1.0191-.2568-.2937-.5239-.5777-.8118-.8394-.0727-.085-.1982-.1072-.2822-.0261-.0727.0695-.0831.199-.0104.2724Zm-.151-1.701c.6258.792 1.3082 1.5416 1.9595 2.3134.6278.7167 1.3046 1.3871 1.9389 2.0971.1689.1806.4446-.0754.2765-.2628-.8136-.8983-1.6698-1.7561-2.4485-2.6872-.4635-.5583-.9515-1.0983-1.4046-1.6634-.1321-.1932-.4313-.0087-.3209.2019l-.0009.001Zm1.0874-.142c.5758.5824 1.1421 1.1736 1.6934 1.7812.286.3149.571.6356.9005.9041.1906.1574.4304-.1333.2416-.2966-.4314-.3583-.7646-.7717-1.144-1.1765-.4635-.4994-.9364-.9901-1.414-1.475-.1699-.1816-.4437.0763-.2766.2628h-.0009Zm2.4013-1.2876c-.1265-.2116-.4389-.0339-.3294.1893.083.1613.2275.2762.353.4018.3162.2995.6485.6134.9553.9099.4049.3999.7853.824 1.1903 1.2249.184.1758.4455-.1034.2586-.2811-.7127-.7409-1.4461-1.4972-2.2012-2.1879-.0784-.0821-.1709-.1546-.2266-.2569Zm2.6326 1.189c-.3228-.3226-.656-.6075-.9524-.9244-.1142-.3864-.69-.0376-.1378.4086.2001.1922.4333.4086.6211.5912.1265.1101.2813.3574.4597.197.0717-.0685.084-.1999.0104-.2724h-.001Zm.136 3.4079c-1.4461-1.1669-2.5581-2.6989-3.8777-4.0039-.2662-.2781-.5985-.5071-.8099-.8326-.1019-.2222-.4323-.085-.3483.1468.2152.4067.6202.6675.9298.995 1.144 1.1707 2.1748 2.4525 3.3679 3.5749a5.314 5.314 0 0 0 .5362.4463c.2086.1314.4087-.1816.2029-.3255l-.0009-.001Z"/><path fill="#F2B2FF" d="M41.8396 31.1335h-1.6698a.1493.1493 0 0 0-.0746-.0107c-.0377.0029-.0745.0078-.1113.0107h-6.0846c-.0935-.0116-.2011.0029-.2841-.0194-.2379-.057-.471-.3197-.4597-.5757-.017-.3854.1822-.7563.5352-.9109a4.4556 4.4556 0 0 1 .5871-.1333c.0831-.0183.1963.0029.3096.0203a.182.182 0 0 0 .085.0222h32.0982c.0529.0039.1058.0078.1586.0097.455.0618.9949.0145 1.364.3352.1992.2251.2728.5544.1661.8404-.0689.2057-.1888.4375-.4342.4086-.0094 0-.0179.0019-.0274.0029h-26.159.0009Zm10.3313-1.1901c-.0991-.0039-.1973.0792-.1973.1845 0 .1053.0746.1971.1803.2019.0991.0039.1973-.0792.1973-.1845 0-.1053-.0746-.1971-.1803-.2019Zm5.7448-.0048c-.439-.0831-.8939.0154-1.3395-.0309-.7429.0251-1.4819.0048-2.2248-.0049-.3398 0-.6796-.0116-1.0195-.0125-.2076.0241-.6786-.1169-.673.2115.0132.1536.1652.1893.2841.172.169-.0039.3361.0038.5041.0048.7325.0029 1.4631.0212 2.1956.029.4191.0058.8372-.029 1.2554-.002.2954.0145.5928-.0367.8863-.0029.2398.0889.3729-.2753.1303-.3641h.001Z"/><path fill="#CE6AE2" d="M53.7756 14.752c.017.4627.0368.9263.0585 1.389-.0056.0502-.0028.1111.0085.1806 0 .0194.0019.0387.0028.057-.0377.7283-.7136 1.2152-1.3233 1.4518-.3257.1304-.6702.2174-1.0157.2695-.4248-.0009-.8382-.056-1.2441-.1584-.6239-.1555-1.2196-.3439-1.7501-.7022-.352-.2512-.6994-.5158-1.0024-.8278-.0453-.0483-.0897-.1073-.1444-.143-.0114-.2492-.0208-.4984-.0217-.7476-.0246-1.7465-.2134-3.4968-.0755-5.2422.066-.9428.1935-1.8923.5673-2.7636.2643-.5883.5588-1.1137.9241-1.6247a8.9441 8.9441 0 0 1 1.2686-1.1765c.8816-.712 1.9558-1.1543 3.0848-1.1814h-.0029c-.0038 0-.0075 0-.0113.001.0802-.0145.1765.0029.2549-.0203h2.4853c.0217.0434.051.085.0746.1246.5796 1.023.8788 2.3096.741 3.4832-.0718.654-.1775 1.3195-.5088 1.8952-.0887.1371-.169.283-.2624.4076-2.0087.4704-2.1286 3.604-2.1078 5.3291v-.0009Zm-4.6602-8.2173c-.1066.0058-.1774.0985-.1774.2038s.101.1874.1991.1816c.1067-.0058.1775-.0985.1775-.2038s-.101-.1874-.1992-.1816ZM52.0435 4.28c-.1227-.0724-.2577.0252-.3842.0435-.5701.2029-1.0893.5458-1.5528.937-.1802.169-1.0534.8558-.7211 1.0934.2039.1324.3124-.139.4163-.2685.403-.4646.9014-.8404 1.4281-1.1456.1964-.1053.3965-.2125.6126-.2676.0954-.0212.2049-.0338.2615-.1255.0547-.088.0283-.2106-.0604-.2667Zm-.0425 12.7515c-.1067.0058-.1775.0985-.1775.2038s.101.1874.1992.1816c.1067-.0058.1775-.0985.1775-.2038s-.101-.1874-.1992-.1816Zm1.0185-2.7829c-.0859.1401-.0066.3072-.0255.4608.0095.3255-.0207.6926-.0255 1.0094.018.2724-.0698.5467-.1944.7776-.0567.0859-.102.1806-.1661.2598-.119.0831-.2294.2096-.119.3526.1897.198.4191-.0937.5135-.2589.2228-.3371.3681-.7438.3427-1.1543.0047-.4279.0538-.8578.0113-1.2837.0585-.2048-.2171-.342-.337-.1633Z"/><path fill="#F2B2FF" d="M57.1803 20.7882c-.1104.1014-.2378.1767-.3728.2395a.258.258 0 0 0-.0576.0251H45.974a.2749.2749 0 0 0-.0264-.0183c-.4956-.1527-.6674-.7496-.6843-1.2229.0226-.482.3105-.7428.6871-.8858a4.5208 4.5208 0 0 1 .5758-.1198h8.6559a.1754.1754 0 0 0 .1236 0h.2596c.4719.0116.8495.0425 1.162.1111a.1816.1816 0 0 0 .0849.0338c.2945.1159.6022.3516.7136.6656.1152.4086-.033.8935-.3455 1.1717Zm-9.1504-1.4277c-.1067.0058-.1775.0985-.1775.2038s.101.1874.1992.1816c.1067-.0058.1775-.0985.1775-.2038s-.101-.1874-.1992-.1816Zm2.8762-.1662c-.5428.0338-1.0837-.0357-1.6274.0116-.1784.03-.5097-.0396-.5106.2309.0056.1043.0962.1893.1991.1826.3002-.0261.6023-.0445.9034-.0503.3369.0242.672.0348 1.0081.0107.1029.0038.1944-.0706.202-.1787.0075-.1015-.0718-.2029-.1746-.2068Z"/><path fill="#fff" d="M63.0535 7.7556c.3672-.2338.7258-.5497.7749-1.0123.0302-.7419-.0774-1.389-.5654-1.791.2926.062.5805.143.8618.2464.6249.2318 1.1431.6742 1.5811 1.1765.0349.0387.0642.0889.0963.1314 0 .03-.0019.0609-.0028.0908a.1869.1869 0 0 0-.069.0889c-.5644.4482-1.2223.7109-1.9086.8935a7.1599 7.1599 0 0 1-.7693.1748l.001.001Z"/><path fill="#F2B2FF" d="M59.3665 1.478C60.5558.3612 62.3691.0424 63.8114.821c2.7016 1.4577 3.5048 5.1611 2.5562 7.9546-.9241 2.8612-3.8607 4.7312-6.5405 2.8988-1.8067-1.2769-2.5939-3.6522-2.4381-5.8217.1132-1.6354.7683-3.2784 1.9784-4.3738l-.0009-.001ZM58.1101 7.174c.1633 1.3765.7608 2.7443 1.8218 3.6349 1.4338 1.2344 3.4604 1.0528 4.7347-.3256 1.9511-2.0922 2.0257-5.7184.2587-7.9516-.0633-.0812-.1322-.1585-.202-.2348l-.0057-.0058c-.7164-.7737-1.7557-1.2895-2.795-1.2055-2.7949.2338-4.1617 3.5325-3.8134 6.0894l.0009-.001Z"/><path fill="#CE6AE2" d="M65.1782 4.1864c.3276.3584.5626.9592.2974 1.4084-.2596-.2357-.5428-.4444-.8534-.5921-.8174-.424-2.188-.6569-3.2442-.5516-.7099.0628-1.4046.285-2.0493.5912-.0085.0038-.017.0087-.0255.0125-.0396-.055-.0934-.1043-.1321-.1555-.1105-.1864-.1709-.4067-.1511-.625.0255-.1468.0557-.2482.1029-.3806a.196.196 0 0 0 .0727-.1265c.0472-.0319.0925-.0628.1359-.0802.3946-.1806.8099-.3216 1.2337-.4124 1.516-.3545 3.3444-.0464 4.613.9109v.001Z"/><path fill="#F2B2FF" d="M6.3366 39.7216c.0415-.0077.083-.0116.1255-.0184a.297.297 0 0 0 .0066.031c.0359.1603.1435.2868.271.3786.1264.1179.2888.1835.4606.1739.2152.0222.621-.1333.472-.4105a5.3344 5.3344 0 0 0-.0076-.1227c.084-.0049.167-.0155.251-.0184-.0075.1922 0 .3825-.0113.5294.0133.2038.0236.4192.0661.623-.0982.0193-.1963.0377-.2954.0425-.2823-.0068-.5607.0657-.8439.0174-.3408-.0551-.8137-.1874-.8731-.5941.0075-.1449-.019-.3294.0868-.4424.0878-.0753.1822-.1526.2917-.1893Z"/><path fill="#CE6AE2" d="M8.5445 39.2599c.1359-.0444.2803-.0347.4219-.0405a.1959.1959 0 0 0 .0415.0058h5.3984a.1758.1758 0 0 0 .0547.0096c.1671.0213.3625.0473.5381.1111v.0019c-.0303.1179-.1369.1787-.203.2657-.118.1903-.1699.4279-.1454.652l-.0018-.0261c.0075.2656.049.5429.2473.7322a.656.656 0 0 0 .1161.1101c-.3427.1575-.7448.1884-1.1195.2029a.1999.1999 0 0 0-.0831-.0194H9.4261a.4985.4985 0 0 0-.1255.002c-.0793 0-.1624.0174-.2407.0029-.707.0483-.7165-.3101-.776-.909-.0075-.3149-.0028-.624.051-.9273.0114-.1275.0982-.1613.2096-.1739Zm3.2546 1.562c.1369.2685.4947.0946.3502-.1671-.1359-.2657-.4946-.0957-.3502.1671Zm-2.7543.1304c.1802.0743.3766-.0087.5644 0 .5267-.0039 1.0553-.0174 1.5811.0096.1029.0039.1916-.0821.1945-.1864.0009-.2202-.2294-.2028-.3842-.2115-.6023 0-1.2073-.0271-1.8077.0338-.2256-.086-.3662.2492-.1481.3545Z"/><path fill="#F2B2FF" d="M15.5361 39.8946c.3247-.0097.6494-.0048.9741.0039l.2152.0087c.017.0512.0321.1024.0331.1497-.0359.1169-.0736.2376-.1426.34-.0453.0164-.0755.0512-.0925.0918l-.6852.0202c-.3125 0-.7439.1198-.607-.3776.0538-.1169.1737-.2328.3049-.2377v.001Z"/><path fill="#CE6AE2" d="M7.0643 41.7501c-.0019-.0425 0-.085.001-.1285.0066-.0087.0141-.0174.0198-.027.0604-.0271.1303-.059.1973-.0445.1293.0532.1652.227.2784.2628.1784.4742.4767.9041.6428 1.3851.1001.2927.3116.5806.2124.9032-.2086.6906-.6862.9128-1.3573.8732-.1246-.0125-.2455-.1169-.3257-.1999-.1472-.1478-.318-.284-.3247-.5139-.0123-.1468.0481-.2869.0982-.4212.1217-.3622.2614-.7177.3993-1.0741.1198-.3439.1387-.6646.1576-1.0162l.001.001ZM64.2598 3.1934a.2183.2183 0 0 0-.051.0097 6.0556 6.0556 0 0 0-1.0364-.3081c-.9288-.2125-1.8945-.197-2.8157.029-.1473-.1334-.2209-.344-.1992-.543.0076-.0443.0104-.0907.0255-.1332a.1835.1835 0 0 0 .0264-.0715c.4805-.3902 1.0525-.6491 1.7076-.7051.9732-.0812 1.8576.3796 2.5156 1.076.0434.2203.0226.513-.1718.6462h-.001ZM7.3013 39.8965c-.116.0193-.2322.0068-.32-.0773a.0168.0168 0 0 1 .0066.0049l-.0122-.0097c-.002-.0019-.0048-.0039-.0066-.0058a.1158.1158 0 0 0 .0122.0106c-.1973-.1149-.169-.3564-.1916-.5583-.0444-.2849-.1293-.5651-.2445-.8288-.169-.3496-.319-.7109-.5097-1.049-.1567-.3641-.4276-.6984-.4578-1.106.049-.9833.978-1.0345 1.6915-.7158.5626.2976.8156 1.0278.656 1.6393-.1425.6172-.4408 1.189-.6097 1.7995-.0755.2946-.0482.5979-.0132.8954l-.001.001ZM17.2852 40.8016s.0038-.0048.0057-.0077c.808.0145 1.6141.0831 2.4221.113.0982-.0019.168.0271.2473-.0299.1331-.0908.0821-.3284-.0793-.3468-.1529-.0126-.3058-.0126-.4587-.0251-.6409-.0242-1.28-.0744-1.9209-.0927a1.1829 1.1829 0 0 0 .0708-.343c.2756-.0212.5512-.0309.8269-.0347a.209.209 0 0 0 .0679.0135h8.8984a.2959.2959 0 0 0 .0925.0058c.1841.0048.338.0154.505.0232.8515.0222 1.5802.4694 1.8086 1.3368.0661.3787.0774.7602.1293 1.1389.0199.0966.0425.1922.0689.2869.0048.3062.0038.6124-.0103.9205-.0057.0358-.0104.0705-.017.1063-.135.7563-.0151 1.5271-.0321 2.2902-.0406 2.0015.05 4.0203-.3191 5.9966-.202.9167-.5201 1.9232-1.1459 2.6168-1.0034 1.3726-2.2805 2.2477-3.8182 2.894-.9071.3158-1.8076.6974-2.7468.8954-.303.0386-.6023-.0087-.9024.0019a.2214.2214 0 0 0-.1123.0145h-6.8898c-.067-.0087-.1425-.0019-.201.028-.0312 0-.0633 0-.0944.001-.7165-.0116-1.2555-.3043-1.6094-.9505-.1831-.3584-.186-.7766-.2388-1.1688-.0935-.9003-.1105-1.8073-.1322-2.7124-.0132-1.3967-.0179-2.7945.0208-4.1912-.0029-.5912.0528-1.1785.1246-1.7648.0755-.5786.1236-1.2016.3086-1.7484.1199-.3728.2596-.7428.4569-1.0799.1482-.2183.3257-.4163.4729-.6356.4833-.7235 1.0987-1.3427 1.8435-1.7764.8033-.5641 1.7217-.992 2.356-1.7734l.0019-.002Zm11.5037 11.9449c.0963.0309.2086-.0261.236-.1275.0509-.1874.0887-.3786.1198-.5709a9.4595 9.4595 0 0 0 .135-2.0787c-.0028-.1584-.0368-.3178-.0179-.4752.0453-.1072-.0019-.2386-.1152-.2743-.0981-.031-.2057.027-.2359.1275-.0708.2318-.0057.5051-.0038.735.0179.5796-.0151 1.163-.1086 1.7358-.0311.1894-.0613.3777-.1038.5651-.0463.1304-.0717.3111.0925.3642l.0019-.001Zm-.3228.6772c.1.0038.1944-.0822.1944-.1874 0-.1053-.0774-.1961-.1831-.199-.1001-.0039-.1945.0821-.1945.1874s.0774.1961.1832.199Zm-8.0281-12.425c.1.0038.1963-.0802.1963-.1855s-.0755-.1961-.1812-.2009c-.1001-.0039-.1964.0802-.1964.1855s.0755.1961.1813.2009Zm-7.9253 12.2916c-.1-.0038-.1944.0822-.1944.1874 0 .1053.0774.1961.1831.199.1001.0039.1945-.0821.1945-.1874s-.0774-.1961-.1832-.199Zm.2407 2.894c-.0377-.2646-.0434-.5322-.0774-.7969-.0122-.3255-.0859-.6491-.101-.9708.0189-.1033-.0557-.2047-.1548-.2221-.3124-.0193-.2218.3893-.1822.5882.0529.4366.0859.8781.1228 1.3166.0528.2.0066.6752.3086.624.2445-.0715.101-.3603.085-.538l-.001-.001Z"/><path fill="#000" d="m6.9755 39.8133.0124.0096c-.0029-.001-.0048-.0029-.0067-.0048-.0038-.0038-.0086-.0067-.0125-.0105.002.0019.0048.0038.0068.0057Z"/><path fill="#000" d="M6.4148 39.3159c-.0066-.0579-.0151-.1169-.0312-.1739-.1104-.4839-.3747-.9408-.5786-1.3919-.2077-.4221-.488-.8259-.588-1.2924-.0737-.4753.1415-.9834.5229-1.2616.5248-.3091 1.2082-.2173 1.7377.0397.6457.3641.9808 1.1861.842 1.9193-.1199.6568-.4342 1.2567-.6267 1.8932-.033.1053-.0454.2126-.0473.3217h.017c.102-.0048.1992-.0299.3021-.0203.0387-.1516.1048-.284.2218-.367.2502-.1478.5522-.1391.8326-.1517a.1523.1523 0 0 1 .0557.0087h5.3445a.1851.1851 0 0 1 .0642.0126.5073.5073 0 0 1 .1444.0154c.2983.0425.606.1198.8505.3081.0981.059.219.1952.2699.3265.1303.002.2606.0097.388.0029.2331.0029.4653.0116.6985.0232h.0047c-.8892-.8983-2.0266-1.4895-2.9016-2.4091-.7061-.8094-1.4829-1.6372-1.9124-2.6515-.3681-.7689-.5503-1.6044-.7165-2.438-.2728-1.2094-.3681-2.4526-.3955-3.6938-.0075-.9659.0029-1.9387.068-2.9075.1142-1.0355.3644-2.0333.5569-3.0572.0802-.3738.1633-.9196.606-.9949.4135-.0445.8307-.0425 1.2451-.0725.2237.0058.4521.0377.6739-.0029.0708-.0116.1492.0058.2049.0473H21.2571c.5579-.1217 1.9181.171 2.2229.229 1.8785.4298 3.654 1.4721 4.8377 3.0417.622.9563 1.0902 2.0266 1.4064 3.1287.3682 1.3562.4078 2.781.3606 4.1816-.0462.9949-.067 2.0005-.0897 2.9993-.0066.4356.0199.8906.1086 1.3243.0868.3564.0727.8365.4021 1.0606.2917.1855.5494-.1043.7117-.3294.219-.226.4569-.4356.6419-.6955.202-.2695.4182-.5274.6173-.8007.0038-.086.0567-.1787.1048-.2521.3823-.682.7646-1.363 1.1459-2.045.2417-.4298.4824-.8606.724-1.2905.0491-.1342.1293-.2598.2162-.3786h-.7372s-.0038.001-.0057.0019a1.0725 1.0725 0 0 1-.0557-.0019h-.135a.1664.1664 0 0 1-.0538-.0097c-.0849-.0077-.1689-.0212-.2501-.0502-.2804-.0966-.4908-.3535-.6117-.6211-.0755-.2734-.0377-.5767.0406-.8452.0859-.2444.2709-.4337.4616-.597.2936-.1999.6768-.255 1.0223-.2907.1472 0 .2907.0319.437.0396a.2357.2357 0 0 1 .0906.0058h1.1205c.0991-.1874.2105-.3661.3115-.5516a.1958.1958 0 0 1 .0188-.0367c.3521-.6298.7052-1.2596 1.0591-1.8884.6806-1.2132 1.3602-2.4265 2.0408-3.6397a.1733.1733 0 0 1 .0227-.057c.1132-.1729.1897-.3709.3237-.5312.6985-.8597 1.7737-1.279 2.8469-1.3852a.1973.1973 0 0 1 .0538-.0087h.034a5.6586 5.6586 0 0 1 .3804-.0184c.0283-.0492.0623-.0966.0887-.1371.1407-.2299.2851-.4579.4267-.6878.556-.8577 1.3659-1.4035 2.2824-1.6633.1407-.0522.2898-.0908.4399-.1198a.1937.1937 0 0 1 .0406-.0077 3.4487 3.4487 0 0 1 .6447-.0512c.016.0019.0311 0 .0472.0019-.0057-.084.0066-.1777.0019-.2531-.0085-.5032-.0123-1.0065-.0491-1.5088-.0463-1.5928-.1237-3.1847-.1633-4.7776.0037-1.049.0434-2.1096.2454-3.1402.1652-.8453.4946-1.6402.942-2.3685.4125-.767 1.0619-1.3572 1.7331-1.8846.9467-.7718 2.1012-1.2548 3.3179-1.2876a.742.742 0 0 0 .0746-.0039c.0934-.0309.2199-.0154.3133-.0164h4.2439c.7741-1.6653 2.1569-2.9548 4.0646-3.118 1.9558-.1604 3.7304 1.2257 4.5677 2.9634.8901 1.79 1.0204 3.9479.404 5.8498-1.7935 5.1794-7.055 5.0471-9.0306.8742a.1866.1866 0 0 1-.0717.0145h-1.129a.2289.2289 0 0 1-.0679.002c-.2775.0376-.5683.082-.8241.2076-1.65.7872-1.5225 4.3979-1.4215 5.9937l.0056.1256c.0066.0231.0066.0483.0038.0753a.2.2 0 0 0 .0009.0232v-.0029c.0095.0753.0114.1497.0095.2231.0226.4733.0453.9476.0727 1.4209.0141.2087.0273.4164.0472.624v.0107h.9165a.3538.3538 0 0 1 .1152-.0029 3.4705 3.4705 0 0 1 .3898.0029h.1275a.189.189 0 0 1 .0707.0145c.1832.0173.3653.0405.5485.0608 1.5065.1333 1.9548 1.2683 2.4901 2.5153a6.8363 6.8363 0 0 1 .4436-.0077c.7778-.0299 1.6415.1449 2.2135.7206a9.3337 9.3337 0 0 1 1.1752 1.5977.2383.2383 0 0 1 .0227.0599c.1595.282.3199.5641.4795.8461.1463.2589.2926.5168.4398.7757a.1972.1972 0 0 1 .0567.0995c.757 1.3359 1.514 2.6718 2.2711 4.0067.1302 0 .269.0203.3539.0203.0784.0097.1605.0174.2445.0232h.4418a.1837.1837 0 0 1 .1057.0338c.5003.0357 1.0072.114 1.3385.454.2813.3381.3804.8095.2209 1.2277-.102.2656-.2624.5815-.5673.623-.0623.0155-.135.0281-.203.0242a.1864.1864 0 0 1-.0406.0048h-.5276c.1765.312.3539.624.5305.936.3955.6974.79 1.3949 1.1855 2.0923.0038.0048.0085.0096.0132.0145a.2019.2019 0 0 1 .0359.0714l1.7274 3.0486c.0274.0212.0491.0521.0632.0937.9968 1.5165 1.3518 2.2342.4663 3.9594-.1548.2743-.2822.5622-.437.8365a.16.16 0 0 1-.0189.0502c-.1397.2492-.2794.4994-.42.7486-1.1327 2.0198-2.2645 4.0396-3.3972 6.0584-.8005 1.4287-1.6019 2.8573-2.4023 4.285-.3398.6056-.6787 1.2122-1.0185 1.8179a.1996.1996 0 0 1-.0538.1024c-.1888.369-.4427.7273-.657 1.0876-.2832.4531-.572.91-.9515 1.2867-.521.595-1.2412 1.0248-2.037.9495H43.8944a.1693.1693 0 0 1-.0736.0145c-1.1658-.0676-2.3948-.0908-3.4624-.6453-.7192-.4549-1.2601-1.1417-1.7094-1.8729a.1892.1892 0 0 1-.0765-.0725A62487.453 62487.453 0 0 0 32.2756 45.27a.2504.2504 0 0 1-.0199-.0464c-.1434-.1932-.3105-.3738-.4587-.566-.2605-.3139-.4597-.6694-.7457-.965-.3436-.3371-.6608-.4974-.7183.085-.0019.0348-.0029.0696-.0048.1034a.2118.2118 0 0 1-.0292.1004c-.0944.5738-.0066 1.1543-.0227 1.7329.0236.767-.0292 1.534-.0075 2.3009.0123.7428-.0283 1.4827-.0718 2.2236-.05.8134-.1453 1.6296-.3369 2.4207a3.3085 3.3085 0 0 1-.1671.509c-.0812.2106-.1142.4386-.2171.6453-.2719.6568-.7287 1.1891-1.1714 1.73-1.1016 1.3021-2.6157 2.1744-4.2015 2.7095-.7315.2511-1.4555.5573-2.2201.6868-.2426.0299-.4899.0067-.7381 0a.1914.1914 0 0 1-.0737.0154h-6.8576a.1899.1899 0 0 1-.1067.0396c-.5493-.0077-1.1327-.0231-1.6179-.3226-.3653-.2666-.6881-.6279-.8495-1.0606-.1491-.4781-.168-.9882-.2228-1.4847-.0981-1.3909-.1123-2.7867-.1-4.1806-.0038-1.417-.0189-2.8428.1595-4.2501.0859-.7409.1756-1.4663.4588-2.1647.1548-.4115.3492-.8066.6399-1.136.3276-.4453.64-.9051 1.0318-1.2963.8957-.8838 2.0842-1.3349 3.0205-2.1695.0246-.0212.0482-.0415.0708-.0628-.3124.001-.6249.0213-.9363.03-.2389.6452-1.3961.7708-1.9663.7727a.1977.1977 0 0 1-.0887-.0222H9.3712a.264.264 0 0 1-.1237.0097c-.3578-.002-.7702.0212-1.0468-.255a.9037.9037 0 0 1-.101-.1498c-.0387.0078-.0784.0136-.1152.0203a2.1062 2.1062 0 0 1-.1538.0251c.0019.058.0019.1169.0103.1671.1775.568.5324 1.0597.726 1.6228.0811.2319.2444.5004.251.7641.0132.3516-.1406.6607-.3341.9447-.3342.4791-.9836.6153-1.5254.5496-.2162-.0454-.3965-.1893-.5418-.3535-.1775-.1497-.3455-.3613-.3729-.6105-.068-.2994.0755-.5834.169-.8587.0594-.1807.1312-.3574.1982-.5352.2332-.5196.32-1.1156.2624-1.6826-.538-.0899-1.0289-.3574-1.0959-.9486.0047-.227 0-.482.1482-.6675.1775-.2115.422-.339.6872-.3777l.0019.0039ZM59.826 11.6744c2.6798 1.8324 5.6164-.0367 6.5405-2.8988.9486-2.7935.1453-6.497-2.5562-7.9546-1.4414-.7785-3.2546-.4598-4.4449.6569-1.2102 1.0953-1.8652 2.7394-1.9785 4.3738-.1548 2.1695.6315 4.5447 2.4382 5.8217l.0009.001Zm-3.9437-2.2516c.0934-.1246.1737-.2705.2624-.4077.3313-.5747.437-1.2412.5088-1.8952.1378-1.1736-.1615-2.4592-.741-3.4832-.0246-.0395-.0529-.081-.0746-.1246H53.3525c-.0792.0223-.1746.0058-.2548.0203.0038 0 .0075 0 .0113-.001h.0028c-1.1289.0271-2.2031.4695-3.0847 1.1814a8.9503 8.9503 0 0 0-1.2687 1.1765c-.3643.511-.6598 1.0365-.9241 1.6248-.3738.8712-.5002 1.8208-.5673 2.7635-.1378 1.7455.051 3.4958.0756 5.2422.0009.2492.0103.4985.0217.7477.0547.0357.0981.0946.1444.1429.302.312.6503.5767 1.0024.8278.5305.3584 1.1261.5468 1.7501.7023.4059.1014.8193.1565 1.2441.1584.3455-.0522.69-.1391 1.0156-.2695.6108-.2357 1.2857-.7225 1.3234-1.4518 0-.0193-.0019-.0387-.0028-.057-.0104-.0696-.0142-.1304-.0085-.1806a167.854 167.854 0 0 1-.0585-1.3891c-.0208-1.7261.1-4.8587 2.1078-5.3291v.001Zm1.6424 10.1936c-.1123-.3149-.4191-.5496-.7136-.6655a.1943.1943 0 0 1-.085-.0338c-.3124-.0686-.69-.0995-1.1619-.1111h-.2596a.1762.1762 0 0 1-.1237 0h-8.6558a4.4883 4.4883 0 0 0-.5758.1197c-.3766.143-.6636.4038-.6872.8858.018.4743.1888 1.0713.6844 1.2229.0094.0058.0179.0126.0264.0184h10.7759a.3357.3357 0 0 1 .0576-.0252c.135-.0627.2614-.1381.3728-.2395.3125-.2782.4607-.7631.3455-1.1717Zm5.9949 5.7068a.3457.3457 0 0 1-.0312-.0589c-.353-.6221-.7051-1.2451-1.0581-1.8672a.2186.2186 0 0 1-.0217-.0589c-.0387-.0667-.0793-.1314-.1303-.1893-.2992-.4395-.6031-.8877-.9902-1.2519-.2907-.2502-.6635-.3729-1.0307-.4482-.2379-.0618-.4814-.0715-.725-.0657a.1854.1854 0 0 1-.1321.057H42.6654c-.3191.0386-.64.1236-.9515.1816-.7212.2396-1.4763.6617-1.8425 1.3726-.0057.0116-.0114.0232-.018.0348-.0038.0087-.0066.0183-.0113.027-.3502.625-.7004 1.249-1.0506 1.874a.2173.2173 0 0 1-.0198.0637c-.1322.2483-.2313.5129-.3634.7612-.1303.3989-.2634.8336-.1784 1.2557.1642.6501.5786 1.2036 1.1006 1.5987.3115.2453.6702.423 1.0487.5274.0104.0048.0189.0106.0283.0154h21.3734c.0953-.0357.2114-.0531.2888-.0917.2256-.0831.4276-.1778.6343-.3188.7203-.5284 1.1375-1.4151 1.1431-2.3202-.0283-.3845-.1595-.7544-.3266-1.0973l-.0009-.001Zm4.477 5.8111c.0085-.0009.018-.0029.0274-.0029.2454.029.3653-.2018.4342-.4085.1067-.286.0331-.6154-.1661-.8404-.3691-.3207-.91-.2724-1.364-.3352-.0528-.0029-.1057-.0058-.1586-.0097H34.6703a.1825.1825 0 0 1-.0849-.0222c-.1133-.0183-.2275-.0386-.3096-.0203a4.2194 4.2194 0 0 0-.5872.1333c-.353.1536-.5522.5245-.5352.9109-.0104.256.2228.5178.4597.5757.0831.0222.1907.0078.2841.0193h6.0846c.0368-.0029.0746-.0077.1114-.0106a.1774.1774 0 0 1 .0746.0106h27.8307-.0019ZM38.649 55.7505c.0311.0193.0576.0493.0755.0937.1406.2666.3171.5168.4776.7728.3899.5293.8108 1.076 1.3885 1.4025.961.4618 2.0078.5014 3.0536.5593.0529-.0087.1105-.0077.1615-.0038h16.2119a.2268.2268 0 0 1 .0453-.0039.7388.7388 0 0 0 .0444.0039h.0557c.0179 0 .034.0028.0491.0067.5399.0174 1.0543-.2289 1.4385-.6211.6815-.6366 1.1488-1.4818 1.6311-2.2835a.2339.2339 0 0 1 .0274-.0464c.1614-.2878.3228-.5747.4833-.8625 1.2044-2.1473 2.4079-4.2946 3.6124-6.4429.1293-.2299.2577-.4598.387-.6897a3.325 3.325 0 0 1-.1246-.1343.1893.1893 0 0 1-.0557-.0492 21.6784 21.6784 0 0 0-.9109-1.0722 21.7386 21.7386 0 0 0-3.872-3.3731c-.0028 0-.0056 0-.0094-.001-.7854-.3439-1.6736-.3496-2.4863-.0792-.8467.3246-1.6896.7612-2.3089 1.4499-.1755.1884-.3454.3816-.5153.5757a.3747.3747 0 0 1-.0907.1092c-2.0181 3.0736-6.1043 4.5061-9.7262 2.6495-1.4159-.7128-2.5722-1.9009-3.3085-3.317a.2357.2357 0 0 1-.0623-.0869c-1.2988-1.4036-2.861-1.9078-4.7196-1.6112-.0774.0135-.1794.0579-.2747.0782a21.7042 21.7042 0 0 0-2.6439 2.0333 22.719 22.719 0 0 0-1.9436 1.986c-.0387.0454-.0764.0908-.1142.1362-.0765.1159-.151.2328-.218.3555-.0869.169-.1813.312-.2709.4858-.001.0029-.0029.0068-.0038.0097 1.5055 2.6564 3.0121 5.3137 4.5176 7.97h-.0009Zm11.0024-22.2264c-3.1131.6114-5.5748 3.4726-5.757 6.722-.2294 2.9046 1.3904 5.8169 3.9494 7.1094 4.5865 2.3694 10.1019-.8298 10.4493-6.0922.3341-4.8414-3.9853-8.7167-8.6408-7.7392h-.0009Zm-17.9847 6.7761c.0057.8781.0123 1.7677.1265 2.6409.1605.6491.3861 1.2809.6919 1.873.0538.0541.1029.1178.1482.1623.6107.7051 1.6557.9331 2.4892.5225.3492-.1642.6352-.4308.9392-.6655a.1979.1979 0 0 1 .0736-.0425c2.105-1.9657 4.5856-3.5103 7.2645-4.5081a.2013.2013 0 0 1 .1095-.0116c.1831-3.1634 2.3796-6.0536 5.3832-6.95 4.7073-1.4769 9.5714 2.0575 9.7847 7.065.2719.1053.5419.2163.8099.3332 2.358 1.0268 4.5318 2.4873 6.4008 4.2792.1425.0628.2275.2395.3568.3284.2813.256.607.4704.9874.5197.5267.1159 1.1119.0618 1.5631-.2599.0868-.0531.1756-.1661.2709-.2241.2067-.369.4135-.7379.6202-1.106.2992-.5332.5984-1.0673.8976-1.6005.0359-.1604.1803-.2927.2436-.4463.2841-.5921.6352-1.1669.7674-1.8208.1661-.7892-.3153-1.477-.7023-2.1183a.1818.1818 0 0 1-.0727-.0706c-.6484-1.1436-1.296-2.2873-1.9445-3.431-.0877-.1091-.1784-.199-.2888-.313-.6258-.6298-1.3734-1.104-2.1399-1.532-1.3706-.8065-2.9139-1.3214-4.4988-1.3822a.1726.1726 0 0 1-.0387-.0222H39.8553a.4316.4316 0 0 0-.0632.0048c-2.1597.2956-4.276 1.1466-5.8854 2.6882a10.5386 10.5386 0 0 0-.32.3149c-.1605.2628-.3143.5294-.4984.7757-.4503.6607-.9732 1.2895-1.2696 2.0458-.2737.9544-.1387 1.9696-.152 2.95v.001Zm-1.3318 2.1319c.0962.2057.1925.4356.4398.481.2247.0232.4427-.1613.5456-.3545.0095-.0184.0161-.0425.0246-.0618a.2231.2231 0 0 1 .0188-.0435c-.1047-1.1311-.0623-2.2748-.0859-3.4098a8.7001 8.7001 0 0 1-.0037-.5457c-.0085-.0232-.017-.0464-.0284-.0686-.0226-.057-.0717-.143-.1095-.198-.0915-.1585-.3086-.1845-.4691-.1343-.1161.056-.2067.1574-.2926.2521-.017.0193-.0274.0444-.0349.0695a.1942.1942 0 0 1-.0359.1189c.0189.8741-.0066 1.7503-.0019 2.6254.0019.4221.0189.8452.0321 1.2683l.001.001Zm-.7118-6.6544a.2048.2048 0 0 1 .0189-.1102c-.0283-.396-.0283-.7959-.017-1.1871.0264-.7679.0274-1.5397.0708-2.3067.0633-1.5581.0387-3.1538-.4361-4.6501-.1991-.6471-.4776-1.2692-.7797-1.872-.2784-.5621-.6352-1.0702-1.0798-1.5078-1.1677-1.1852-2.7091-1.9464-4.326-2.2565-.3852-.0589-.7759-.1381-1.1677-.1661a.1882.1882 0 0 1-.0661.0135h-.5767a.9592.9592 0 0 0-.0755.0106.1295.1295 0 0 1-.0472-.0106h-7.3032a.184.184 0 0 1-.101-.0309 5.3053 5.3053 0 0 1-.3294-.0116c-.2369.0049-.4739.0329-.7117.0348-.1747.0048-.3502.0116-.523.0357a.1512.1512 0 0 0-.0547.0435c-.2105.3362-.2162.7621-.3115 1.1418-.0727.4607-.2039.9369-.2832 1.4025-.185.8954-.2294 1.8411-.2209 2.7616-.0528 1.1292.0066 2.241.1284 3.3673.0548.5641.1671 1.1205.2898 1.6731.134.6838.2936 1.361.5786 1.9985.3219.821.8779 1.5146 1.4423 2.1734.3351.3864.6721.7476 1.0648 1.0809.6381.5341 1.3659.9997 1.9955 1.5522.1151.0928.42.3913.6088.6801a.2022.2022 0 0 1 .0963.0521c.0774-.0135.1652-.0096.2341-.0145.353-.028.7598-.027 1.1242-.0299a.1775.1775 0 0 1 .0812.0184h7.8468c.0633-.0281.136-.0049.2039-.0097.3313.0048.6249.0135.9647-.0396 1.1563-.2077 1.6217-1.162 1.7321-2.27.0161-.1642.0387-.3274.0368-.4936 0-.0502-.0018-.1101.0029-.1671-.0416-.3004-.0812-.6008-.1086-.9032l-.0019-.0028Zm-14.696 6.7973c-.7447.4337-1.3611 1.0529-1.8435 1.7764-.1472.2193-.3247.4173-.4729.6356-.1973.3371-.337.7071-.4568 1.0799-.1851.5477-.2332 1.1698-.3087 1.7484-.0717.5853-.1274 1.1736-.1246 1.7648-.0396 1.3967-.034 2.7935-.0208 4.1912.0208.9051.0387 1.8121.1322 2.7124.0528.3921.0557.8104.2388 1.1688.354.6462.8929.9379 1.6094.9505a.9905.9905 0 0 1 .0944-.001c.0585-.0299.134-.0367.201-.028h6.8898a.2214.2214 0 0 1 .1123-.0145c.3002-.0106.5994.0367.9024-.0019.9392-.1981 1.8407-.5796 2.7468-.8955 1.5377-.6462 2.8139-1.5213 3.8182-2.8939.6249-.6946.943-1.7011 1.1459-2.6168.3691-1.9763.2785-3.9951.3191-5.9966.017-.7631-.1029-1.5339.0321-2.2902a1.9143 1.9143 0 0 0 .017-.1063 15.804 15.804 0 0 0 .0104-.9205 3.7531 3.7531 0 0 1-.069-.2869c-.0519-.3777-.0632-.7602-.1293-1.1389-.2284-.8674-.9571-1.3146-1.8085-1.3369-.1671-.0067-.32-.0183-.505-.0231a.329.329 0 0 1-.0925-.0058h-8.8985a.1883.1883 0 0 1-.0679-.0136c-.2756.0039-.5513.0136-.8269.0348a1.2085 1.2085 0 0 1-.0708.3429c.64.0184 1.28.0686 1.9209.0928.1529.0125.3068.0125.4587.0251.1615.0183.2124.2559.0793.3467-.0792.057-.1491.0281-.2473.03-.807-.03-1.6141-.0985-2.4221-.113-.0019.0029-.0038.0048-.0057.0077-.6343.7815-1.5527 1.2094-2.356 1.7735l-.0019.0019Zm.909-2.0652c.2275-.0067.4559-.0125.6853-.0203.017-.0405.0472-.0753.0925-.0917.068-.1024.1057-.2232.1425-.34 0-.0474-.016-.0986-.033-.1498a201.4548 201.4548 0 0 0-.2152-.0087c-.3247-.0096-.6494-.0135-.9741-.0038-.1312.0048-.2511.1207-.3049.2376-.1369.4975.2945.3787.6069.3777v-.001Zm-7.5542-.1487c.0594.5989.0689.9563.7759.9089.0783.0135.1614-.0029.2407-.0029a.4985.4985 0 0 1 .1255-.0019h4.3836a.1855.1855 0 0 1 .0831.0193c.3747-.0145.7759-.0454 1.1195-.2028a.6562.6562 0 0 1-.1161-.1102c-.1982-.1902-.2398-.4675-.2473-.7321l.0019.026c-.0246-.2241.0273-.4617.1453-.652.0661-.0869.1728-.1478.203-.2656v-.0019c-.1756-.0628-.3719-.0889-.5381-.1111a.1759.1759 0 0 1-.0547-.0097H9.0059a.1476.1476 0 0 1-.0416-.0058c-.1416.0058-.286-.0048-.422.0406-.1113.0135-.199.0464-.2095.1739-.0538.3033-.0576.6124-.051.9273Zm-.3597-3.1606c.1595-.6124-.0934-1.3427-.656-1.6392-.7127-.3188-1.6424-.2676-1.6915.7157.0302.4077.301.7409.4578 1.1061.1916.338.3407.6993.5097 1.049.1152.2637.2001.5438.2445.8288.0226.2009-.0057.4424.1916.5583.0878.084.2039.0966.32.0772-.034-.2975-.0623-.6008.0132-.8954.169-.6105.4672-1.1823.6098-1.7995l.001-.001Zm-1.4168 6.6389c-.05.1343-.1105.2744-.0982.4212.0066.2299.1775.3661.3247.5139.0803.083.202.1874.3257.1999.6711.0387 1.1478-.1825 1.3574-.8732.099-.3226-.1124-.6105-.2124-.9032-.1662-.481-.4644-.9099-.6428-1.3851-.1143-.0358-.1501-.2096-.2785-.2628-.067-.0144-.1369.0174-.1973.0445-.0056.0096-.0132.0183-.0198.027a1.4597 1.4597 0 0 0-.001.1285c-.0188.3506-.0377.6713-.1576 1.0162-.1378.3564-.2775.7119-.3993 1.0741l-.001-.001Zm.3238-2.893c.2822.0483.5606-.0241.8438-.0174.0991-.0048.1983-.0231.2955-.0425-.0434-.2038-.0529-.4192-.066-.623.0112-.1468.0037-.3371.0112-.5293-.084.0029-.167.0135-.251.0183.0028.0416.0056.0821.0075.1227.1482.2772-.2568.4337-.472.4105-.1718.0097-.3341-.057-.4606-.1738-.1274-.0928-.236-.2193-.271-.3787-.0027-.0106-.0046-.0213-.0065-.0309-.0415.0058-.083.0106-.1256.0183-.1094.0358-.2039.114-.2916.1894-.1048.113-.0793.2975-.0869.4424.0595.4066.5324.539.8732.594ZM2.037 42.7915c.167-.0145.3342-.0348.5012-.0435.5664-.0522 1.0129.3815 1.5462.4888.318.0627.6466-.0194.9335-.1623.0737-.0338.1369-.0985.2219-.0985.1028 0 .1887.0879.1887.1931.0029.1314-.1198.1816-.2142.2348-.5437.3071-1.2064.311-1.7557.0193-.2086-.0947-.406-.2193-.6315-.2685-.2455-.0512-.4946 0-.74.0173-.102.0087-.1983-.057-.2125-.1651-.0132-.1005.0586-.2087.1615-.2174l.001.002Z"/><path fill="#000" d="M5.3615 38.3133c.2105.2753-.2218.4134-.422.4627-.3482.1004-.7116.085-1.0609 0-.2331-.0377-.4568-.1391-.6966-.1285-.2483-.0058-.2473-.3796 0-.3864.2501-.0125.4852.0773.7268.1275.3493.085.7127.1043 1.0553-.0222.1322-.0406.2653-.1884.3965-.0531h.001ZM.1633 40.2317c.3096-.0425.6164-.1044.9298-.1073.386.0049.7816-.028 1.1572.0764.2304.0676.44.1951.675.2501.2661.0493.5455.057.808-.0164.034-.0541.0934-.0908.1595-.0908.303.0396.2095.4154-.0472.4608a2.0618 2.0618 0 0 1-1.2224-.0416c-.1954-.0734-.3823-.1738-.5871-.2183-.371-.0512-.7495-.0347-1.1224-.026-.234.0202-.4663.0637-.6994.0965-.102.0145-.1992-.0608-.2124-.1651-.0142-.1024.0595-.2038.1614-.2174v-.0009ZM2.3485 38.6833c-.1043 0-.1888-.0865-.1888-.1932 0-.1067.0845-.1932.1888-.1932.1043 0 .1888.0865.1888.1932 0 .1067-.0845.1932-.1888.1932ZM4.662 40.6692c-.1042 0-.1887-.0865-.1887-.1932 0-.1067.0845-.1932.1887-.1932.1043 0 .1888.0865.1888.1932 0 .1067-.0845.1932-.1888.1932ZM1.028 43.2416c-.1043 0-.1888-.0865-.1888-.1932 0-.1067.0845-.1932.1887-.1932.1043 0 .1888.0865.1888.1932 0 .1067-.0845.1932-.1887.1932ZM50.5596 47.4675c-3.3537-.2376-6.0722-3.2523-6.042-6.6921-.0416-2.7558 1.75-5.3899 4.2816-6.324 3.8739-1.4972 8.2065 1.1108 8.7984 5.3069.6466 4.255-2.846 8.0821-7.038 7.7082v.001Zm6.6085-7.9797c-.7287-3.7305-4.5913-5.984-8.1036-4.7234.0028-.001.0066-.002.0094-.0029h.0028l-.017.0058s.0029-.001.0048-.002c-1.0072.3565-1.92.9872-2.6242 1.8054-.892 1.0297-1.4451 2.381-1.531 3.7604-.2756 3.8058 2.8997 7.0543 6.6311 6.7578 3.6983-.2493 6.3913-3.8783 5.6286-7.6001l-.0009-.001ZM61.9226 1.0857c1.0384-.085 2.0786.4308 2.795 1.2055l.0057.0058c.0698.0763.1387.1545.202.2347 1.7661 2.2333 1.6924 5.8594-.2587 7.9517-1.2743 1.3784-3.3009 1.56-4.7347.3255-1.0619-.8906-1.6594-2.2584-1.8218-3.6349-.3492-2.5568 1.0176-5.8555 3.8135-6.0893l-.001.001Zm2.509 1.4624c-.6579-.6955-1.5424-1.1572-2.5156-1.076-.656.056-1.2271.3158-1.7075.7051a.1972.1972 0 0 1-.0265.0715c-.0151.0425-.017.0888-.0254.1333-.0218.199.0519.4095.1991.5428.9213-.226 1.8869-.2414 2.8158-.029a6.0335 6.0335 0 0 1 1.0364.3082.2164.2164 0 0 1 .051-.0097c.1944-.1333.2152-.426.1718-.6462h.0009Zm1.3678 4.0502.0028-.0908c-.0331-.0434-.0623-.0927-.0963-.1313-.437-.5033-.9553-.9457-1.5811-1.1765a6.4042 6.4042 0 0 0-.8618-.2464c.488.4019.5956 1.05.5654 1.7909-.0491.4627-.4077.7776-.7749 1.0123a7.218 7.218 0 0 0 .7693-.1748c.6862-.1826 1.3432-.4453 1.9086-.8935a.1868.1868 0 0 1 .0689-.0889l-.0009-.001Zm-3.2066-1.5687c-.5418-.1642-1.1232.06-1.5339.4386-.285.2386-.4162.6105-.4502.9775.0179.4762.2869.9022.6202 1.2171.2718.1932.5956.141.8967.0647.2029-.0415.3945-.1227.5796-.2144.3303-.1884.7334-.4511.7551-.8838-.017-.7245-.0906-1.3659-.8684-1.6006l.0009.001Zm-2.1276 5.7107c.623.4192 1.3763.6144 2.239.4559.5352-.1352.9977-.3815 1.3933-.7061-.0133-.0502-.0038-.1033.0028-.1564.0085-.0754-.0066-.1517-.017-.2261-.0057-.0579-.0387-.1043-.0689-.1507a6.4094 6.4094 0 0 1-.3729.0966c-.5729.0995-1.1563.1044-1.7359.1015-.4672-.0213-.9288-.031-1.3913-.1256-.017.0212-.0359.0405-.0547.0599-.0605.085-.0775.1932-.0756.2965-.0047.1256.0548.2367.0803.3545h.0009Zm-1.2365-1.7706c.017.0677.0575.143.083.2174.6023.256 1.2064.5255 1.87.5419.8061.0618 1.6792.0715 2.49-.0725.522-.1371 1.0384-.338 1.5103-.6027.0047-.0058.0095-.0087.0142-.0145a.224.224 0 0 1 .0066-.0889c.0566-.1352.1274-.2589.1312-.4105.0774-.339.0132-.739-.2114-1.0133-1.2592.5448-2.6544.8462-4.0202.6588-.5588-.0782-1.1224-.2309-1.6434-.4704-.118.1487-.2086.3323-.2379.5216-.0245.2424-.0528.4926.0076.7322v.001Zm-.7882-2.8746a5.6408 5.6408 0 0 0-.0057.4733.1982.1982 0 0 1 .0623.0531c.2813.2908.6561.5004 1.0147.6887.404.202.8298.343 1.2659.4309-.2738-.3227-.472-.6946-.5353-1.1292-.0339-.4965.1482-1.0375.5098-1.3775.1453-.14.3105-.2646.488-.367-.6778.086-1.3404.2888-1.9502.624-.2511.1333-.5135.3477-.7334.5428a.183.183 0 0 1-.1152.0618l-.0009-.001Zm.7542-2.327a.188.188 0 0 1-.0727.1265c-.0472.1324-.0765.2338-.1029.3806-.0198.2183.0406.4386.151.625.0378.0512.0925.1005.1322.1555.0085-.0038.017-.0087.0255-.0125.6447-.3062 1.3394-.5284 2.0492-.5912 1.0563-.1053 2.4278.1275 3.2443.5516.3106.1478.5938.3564.8533.592.2653-.449.0312-1.0499-.2973-1.4083-1.2686-.9572-3.097-1.2653-4.613-.9108-.4238.0907-.8391.2318-1.2337.4124-.0434.0174-.0897.0483-.1359.0802v-.001Z"/><path fill="#000" d="M61.5271 7.0476c-.235-.142-.3313-.3352-.3313-.538 0-.1063.0264-.2145.0727-.3188a.3983.3983 0 0 0 .0831.0599.3492.3492 0 0 0 .2095.0396c.0982.002.1888-.0502.2511-.1237.0623-.0734.0661-.1787.0463-.2694-.0161-.0764-.0576-.145-.1067-.2039-.0076-.0087-.0151-.0173-.0236-.025.2501-.1585.5484-.2184.8033-.086.4974.2675.605.7476.2586 1.2045-.2869.3593-.8684.5293-1.263.2589v.0019ZM51.8415 4.6732c-.2162.056-.4163.1623-.6127.2676-.5267.3052-1.0251.68-1.4281 1.1456-.1039.1294-.2124.4009-.4163.2685-.3323-.2376.5409-.9244.7212-1.0934.4634-.3922.9826-.7351 1.5527-.937.1275-.0174.2615-.116.3842-.0435.0878.056.1142.1778.0604.2666-.0566.0928-.1661.1044-.2614.1256ZM49.1362 6.921c-.0982.0058-.1992-.0763-.1992-.1816s.0708-.198.1775-.2038c.0982-.0058.1992.0763.1992.1816 0 .1052-.0708.198-.1775.2038ZM53.3452 15.6976c.0255.4105-.1199.8172-.3427 1.1543-.0944.1652-.3237.4569-.5135.2589-.1104-.1439 0-.2695.119-.3526.0641-.0801.1095-.1738.1661-.2598.1236-.2309.2124-.5052.1944-.7776.0048-.3168.035-.6839.0255-1.0094.018-.1536-.0604-.3217.0255-.4608.1199-.1787.3965-.0415.337.1633.0434.426-.0057.8568-.0113 1.2837ZM52.0218 17.4189c-.0982.0058-.1992-.0763-.1992-.1816s.0708-.198.1774-.2038c.0982-.0058.1992.0763.1992.1816s-.0708.198-.1774.2038ZM50.8787 19.5797c-.3361.0241-.6721.0135-1.0081-.0106a13.4304 13.4304 0 0 0-.9034.0502c-.1029.0068-.1935-.0782-.1991-.1826 0-.2704.3322-.1999.5106-.2308.5428-.0474 1.0846.0212 1.6274-.0116.1028.0038.1821.1043.1746.2067-.0076.1082-.0991.1826-.202.1787ZM48.0506 19.7459c-.0981.0058-.1991-.0763-.1991-.1816s.0708-.198.1774-.2038c.0982-.0058.1992.0763.1992.1816s-.0708.198-.1775.2038ZM62.5494 25.2131c-.0774-.1864-.1964-.3545-.2898-.5332-.3785-.5805-.6485-1.2509-1.1507-1.7435-.1859-.1672.0586-.455.2455-.2937.3162.285.5116.6366.7343 1.0017.2096.3728.4399.7389.6495 1.1137.0509.087.1331.2203.1689.3284.0765.2415-.269.3632-.3568.1266h-.0009ZM60.4482 22.5221c-.1406-.2367.2086-.4337.3313-.1865.1407.2377-.2095.4337-.3313.1865ZM40.318 23.9998c-.1265.2396-.2539.4782-.4229.6917-.0613.085-.1793.1062-.2633.0444-.2152-.1826.0764-.3941.1623-.5651.1747-.3429.3814-.6674.6013-.9814.0585-.0869.1123-.1845.1897-.255.1983-.1565.4239.1333.2389.3014-.1756.2492-.3427.5061-.506.764ZM39.6223 25.1929c0 .1053-.0802.1951-.185.1971-.101.0019-.1926-.0841-.1926-.1894 0-.1053.0803-.1951.1851-.197.101-.002.1925.084.1925.1893ZM57.7863 30.3027c-.2945-.0338-.5909.0174-.8863.0029-.4182-.027-.8363.0078-1.2554.002-.7325-.0078-1.4631-.0261-2.1956-.029-.168 0-.3361-.0087-.5041-.0049-.1189.0174-.2709-.0193-.2841-.1719-.0057-.3284.4654-.1874.673-.2115.3398.0009.6797.0125 1.0195.0125.7428.0097 1.481.0309 2.2248.0049.4446.0463.9005-.0522 1.3394.0309.2436.0888.1105.453-.1302.3641h-.001ZM52.1548 30.3307c-.1057-.0049-.1803-.0966-.1803-.2019 0-.1053.0973-.1893.1973-.1845.1057.0048.1803.0966.1803.2019 0 .1053-.0972.1893-.1973.1845ZM35.2765 34.1819c.4012-.3236.8363-.5815 1.2658-.8655.2898-.1835.6088-.3139.9241-.4443.1388-.0464.2766-.1227.4257-.114.2841.0406.2162.4192-.0604.3912-.505.1671-.9789.4019-1.4187.7119-.6712.4299-1.3423.8955-1.9096 1.4673-.1265.1362-.2681.2956-.3974.4637-.0642.083-.1888.0898-.2662.0241-.0802-.0686-.0868-.1903-.0236-.2724.4078-.5361.9128-.9843 1.4612-1.3629l-.0009.0009ZM33.3764 36.3524c.1047.0029.184.0928.184.1981s-.0934.1903-.1935.1883c-.1048-.0029-.184-.0927-.184-.198s.0934-.1903.1935-.1884ZM65.823 33.358c.571.2106 1.0911.5699 1.5555.966.4248.3207.7288.764 1.0497 1.1861.1369.2125-.1671.4222-.3115.2183-.2105-.2714-.4059-.5573-.6419-.8075-.2124-.2077-.4474-.3912-.6768-.5796-.3237-.227-.6636-.4404-1.0251-.5959a.188.188 0 0 1-.1907-.0802c-.1085-.1604.0699-.3622.2408-.3072ZM68.7076 36.0559c.1076.0068.1774.0986.1774.2038 0 .1053-.101.1884-.1992.1816-.1076-.0067-.1774-.0985-.1774-.2038s.101-.1883.1992-.1816ZM60.2273 40.0037c.3228-.0039.6041.2202.8741.3767.27.1729.5456.3362.8033.5284.1906.1603-.0444.4559-.2379.3004-.4531-.2936-.8948-.651-1.4074-.8239-.0812-.0049-.1539-.0657-.1727-.1488-.0246-.1014.0406-.2077.1406-.2328ZM62.5324 41.2391c.1057.0039.1822.0946.1822.1999 0 .1053-.0963.1894-.1954.1865-.1057-.0039-.1822-.0947-.1822-.2s.0963-.1893.1954-.1864ZM41.3535 43.5574c.051-.0956.1633-.1236.2558-.0773.3587.0841.7136.1932 1.0449.3623.6306.3352 1.1394.8722 1.5792 1.4354.3332.4008.5305.906.91 1.2654.0745.0724.0764.198.0047.2733-.1963.1835-.3738-.1111-.4994-.2453-.1925-.2444-.3341-.5255-.5125-.7796-.3993-.5776-.8807-1.1021-1.4593-1.4972-.3814-.2463-.825-.3409-1.2479-.4742-.0925-.0454-.1236-.173-.0755-.2628ZM45.6106 47.058c.1001-.0039.1945.0821.1945.1874s-.0774.1951-.1832.199c-.1.0038-.1944-.0821-.1944-.1874s.0774-.1951.1831-.199ZM55.3048 48.0992c.2284-.1265.4257-.282.6267-.4607.102-.0966.202-.1932.3049-.2888.0963-.1073.2398-.2406.3748-.1102.0726.0715.0774.199.0047.2734-.2719.2608-.5381.5332-.8496.7486-.2284.1768-.4993.2695-.7494.4048-.0538.0801-.1614.1081-.2464.0608-.3596-.3217.3257-.5119.5343-.6279ZM56.9906 46.5403c.1001-.0039.1945.0821.1945.1874s-.0774.1951-.1832.199c-.1.0038-.1944-.0821-.1944-.1874s.0774-.1951.1831-.199ZM38.1366 53.5183c.1057-.0348.2086.0338.2416.1372.1293.2646.2653.5264.4012.7882.3813.7437.8118 1.4991 1.363 2.1328.2691.2859.6268.4549.9619.6423.1472.0734.42.1217.3474.3497-.0567.1526-.22.1459-.338.0744-.4965-.2289-1.0053-.4985-1.3621-.9322-.7173-.8925-1.2393-1.9154-1.7387-2.9509-.0358-.0976.0283-.2116.1227-.2425l.001.001ZM42.0142 57.3705c.1001-.0039.1964.0802.1964.1854 0 .1053-.0755.1971-.1813.201-.1.0038-.1963-.0802-.1963-.1855s.0755-.197.1812-.2009ZM63.6141 53.2392c.0803-.1556.1624-.3091.2454-.4627.1756-.3294.3767-.7129.5862-1.0365a.1882.1882 0 0 1 .2615-.0579c.0868.0569.1123.1787.0566.2675a9.1438 9.1438 0 0 0-.3502.596c-.1567.2946-.2983.5516-.4568.8578-.0482.0927-.1539.14-.2511.0937-.0897-.0435-.1397-.1642-.0916-.257v-.0009ZM63.4188 53.9007c.1057.0048.1803.0966.1803.2019 0 .1053-.0982.1893-.1973.1845-.1057-.0048-.1803-.0966-.1803-.2019 0-.1053.0982-.1893.1973-.1845ZM48.0535 41.0441c.2888.2617.555.5457.8118.8394.3218.3467.6343.707.9892 1.019.1878.1633-.051.455-.2416.2966-.6627-.5892-1.1969-1.3118-1.852-1.9087-.0727-.0734-.0633-.2038.0104-.2724.084-.0812.2105-.059.2822.0261ZM51.7839 43.7381c.168.1874-.1086.4433-.2766.2627-.6343-.71-1.3102-1.3813-1.9388-2.0971-.6513-.7727-1.3328-1.5213-1.9596-2.3134-.1104-.2106.1888-.3951.3209-.2019.4541.5651.9421 1.105 1.4046 1.6634.7787.9311 1.6349 1.7889 2.4485 2.6872l.001-.0009ZM48.9738 39.1865c.4776.4849.9505.9756 1.414 1.475.3795.4047.7127.8182 1.144 1.1765.1888.1633-.0509.454-.2416.2966-.3294-.2695-.6145-.5893-.9005-.9042-.5513-.6075-1.1176-1.1987-1.6934-1.7812-.1671-.1864.1076-.4443.2766-.2627h.0009ZM53.6633 43.085c-.1888-.1362-.3653-.2859-.5362-.4462-1.1931-1.1225-2.2239-2.4033-3.3679-3.575-.3096-.3275-.7146-.5883-.9298-.9949-.0831-.2319.2473-.369.3483-.1469.2124.3256.5437.5535.8099.8327 1.3196 1.304 2.4316 2.837 3.8777 4.0038.2067.1449.0056.4569-.203.3256l.001.0009ZM53.5254 40.6064c.1869.1777-.0746.4569-.2586.2811-.405-.4009-.7854-.8249-1.1903-1.2248a155.4757 155.4757 0 0 0-.9553-.9099c-.1255-.1256-.2709-.2406-.353-.4019-.1095-.2221.2029-.4008.3294-.1893.0548.1024.1482.1748.2266.2569.7551.6907 1.4886 1.447 2.2012 2.1879ZM53.2612 39.426c-.1879-.1826-.421-.3989-.6212-.5911-.5521-.4463.0227-.795.1379-.4086.2964.3168.6296.6017.9524.9244.0746.0724.0623.2047-.0104.2724-.1784.1603-.3332-.0879-.4597-.1971h.001ZM12.3352 30.1066c-.0991.0242-.2039-.0415-.2275-.1439-.083-.3738-.1604-.7525-.1566-1.1388.0103-.9505-.0142-1.902.066-2.8496.0501-.197-.0613-.5921.2275-.6037.3087.0425.134.4588.1444.6713-.0339.4057-.0387.8134-.0547 1.22.0057.6849-.0387 1.3514.0264 2.0382.0321.1922.0708.3835.1133.5737.0226.1024-.0397.2087-.1397.2328h.0009ZM12.4202 30.9219c-.2388-.1111-.0302-.539.2011-.4279.2388.111.0302.5399-.2011.4279ZM28.5699 27.7516c-.2794.0415-.2558-.3477-.3342-.5313-.0651-.196-.1406-.3873-.2124-.5805-.2746-.5052-.5333-1.0036-.9363-1.4209-.0652-.0695-.1605-.1468-.153-.2531.0048-.1835.2511-.254.3465-.0995.5106.5361.9184 1.1901 1.1884 1.8846.1047.2482.1718.509.2426.7689.0292.1014-.0444.2096-.1397.2328l-.0019-.001ZM28.7049 28.5051c-.1057-.0039-.1822-.0947-.1822-.1999 0-.1053.0963-.1894.1954-.1865.1057.0039.1822.0947.1822.2s-.0963.1893-.1954.1864ZM20.453 40.6132c.1058.0048.1813.0956.1813.2009 0 .1053-.0963.1893-.1964.1854-.1057-.0048-.1812-.0956-.1812-.2009 0-.1053.0963-.1893.1963-.1854ZM28.8002 51.8181c.0934-.5728.1265-1.1562.1085-1.7358-.0019-.2299-.067-.5032.0038-.735.0302-.1005.1378-.1585.236-.1275.1123.0347.1605.1661.1151.2743-.0188.1574.0151.3168.018.4752.0302.6955-.0132 1.3939-.135 2.0787-.0321.1923-.0689.3835-.1199.5709-.0274.1014-.1406.1584-.236.1275-.1642-.0521-.1387-.2337-.0925-.3641.0425-.1874.0727-.3758.1039-.5651l-.0019.0009ZM28.4783 53.0372c.1057.0038.1831.0937.1831.199s-.0944.1903-.1944.1874c-.1057-.0039-.1831-.0937-.1831-.199s.0944-.1903.1944-.1874ZM12.6694 56.7223c-.302.0512-.2558-.424-.3086-.624-.0368-.4385-.0699-.88-.1227-1.3166-.0397-.199-.1303-.6066.1821-.5882.0991.0174.1747.1188.1548.2221.0151.3217.0897.6453.101.9708.034.2657.0387.5332.0774.7969.0161.1778.1596.4666-.0849.5381l.0009.0009ZM12.5014 53.6776c-.1057-.0039-.1831-.0937-.1831-.199s.0944-.1903.1944-.1874c.1058.0039.1832.0937.1832.199s-.0944.1903-.1945.1874ZM9.1939 40.5978c.6003-.0609 1.2054-.0348 1.8076-.0338.1548.0077.3851-.0087.3842.2115-.0038.1053-.0925.1913-.1945.1865-.5267-.0271-1.0543-.0136-1.581-.0097-.1879-.0097-.3842.0734-.5645 0-.218-.1053-.0774-.4405.1482-.3545ZM12.1502 40.6548c.1445.2608-.2142.4347-.3502.1671-.1444-.2628.2153-.4328.3502-.1671Z"/></g><defs><clipPath id="a"><path fill="#fff" d="M72 0H0v59h72z"/></clipPath></defs></svg>