<svg xmlns="http://www.w3.org/2000/svg" width="110" height="110" fill="none"><g clip-path="url(#a)"><path fill="#9EF1FF" d="M58.035 10.674c-17.557-1.165-33.47 8.088-41.683 22.44l-.487.895c.009.111-.058.198-.145.245a44.247 44.247 0 0 0-5.124 17.959C8.951 76.777 27.584 97.862 51.722 99.676a.252.252 0 0 1 .14-.009c.032.007.063.016.096.025 1.005.069 2.02.112 3.042.114a43.097 43.097 0 0 0 4.718-.228c1.997-.257 3.941-.835 5.9-1.288 1.268-.31 2.538-.593 3.767-1.03 1.505-.518 2.882-1.226 4.359-1.766 2.015-.893 4.055-1.783 5.852-3.073.401-.281.872-.531 1.231-.855a.311.311 0 0 1 .212-.107c6.577-4.69 11.906-11.138 15.093-18.762 12.022-28.31-7.44-59.932-38.1-62.02l.003-.003Zm3.32 22.732c.153 0 .282.119.287.273a.28.28 0 0 1-.273.285.284.284 0 0 1-.285-.272.28.28 0 0 1 .272-.286Zm-5.944-.006c.421 0 .841-.003 1.26-.016 1.127-.054 2.255-.114 3.384-.152.361-.007.377.542.01.558-1.588.05-3.175.174-4.766.172a.282.282 0 0 1-.377-.058c-.219-.328.199-.54.486-.505h.003ZM22.058 45.823c-.118-.118-.143-.314-.009-.43.357-.261.585.25.6.546.375.889.875 1.743 1.567 2.422.263.265.5.522.759.77a.295.295 0 0 1 .096.194c.024.234-.288.395-.46.23-1.038-.967-1.964-2.067-2.48-3.401-.037-.108-.055-.22-.073-.33Zm20.828 50.35c-.151 0-.272-.148-.265-.293a.284.284 0 0 1 .292-.265c.152 0 .272.147.266.292a.284.284 0 0 1-.293.266Zm7.18 1.613c-1.741-.31-3.53-.39-5.218-.96-.248-.087-.719-.107-.62-.48a.285.285 0 0 1 .35-.18c.801.24 1.598.495 2.428.605.714.129 1.435.196 2.154.3.37.039.747.2 1.12.14a.285.285 0 0 1 .332.211c.06.313-.31.389-.546.364Zm35.57-43.21-.042.096a2.912 2.912 0 0 1-.114.292c-.105.427-.533 1.018-.618 1.228-.158.274-.31.551-.464.828-.32.696-.634 1.392-1.018 2.055-1.055 2.042-2.274 3.997-3.499 5.939-.748 1.214-1.462 2.452-2.285 3.62-.373.58-.77 1.144-1.2 1.687-1.072 1.504-3.074 1.236-4.745 1.211-.737.03-1.471.043-2.2.065-.527-.009-1.052-.015-1.579-.022-2.459.06-4.916.156-7.375.127-1.743 0-3.482-.063-5.214-.275-1.522-.113-2.537-.361-3.55-1.584-.81-.824-1.408-1.792-1.977-2.78-.777-1.141-1.458-2.353-2.18-3.536-.045-.067-.088-.134-.135-.2-.35-.554-.788-1.04-1.058-1.643a12.495 12.495 0 0 0-.238-.395c-.511-.766-1.045-1.509-1.583-2.265-.52-.659-.957-1.59-1.812-1.835a7.686 7.686 0 0 0-.473 1.438c-.167.83-.357 1.655-.489 2.492-.17.699-.196 1.42-.316 2.127-.161.618-.288 1.243-.445 1.861-.933 2.962-2.838 4.624-5.994 4.736-1.212.127-2.43-.007-3.644.031-1.92.04-3.832-.16-5.74-.254-.61-.054-1.219-.123-1.826-.185a.246.246 0 0 1-.107-.038c-.018 0-.038-.005-.058-.01-1.651-.443-1.5-2.93-1.522-4.3.052-1.457.072-2.914.25-4.363.234-2.093.417-4.445 1.913-6.065.64-.737 1.437-1.288 2.287-1.757.882-.482 2.087-1.1 1.803-2.292 0-.004 0-.009-.002-.01a.247.247 0 0 1-.071-.15c-.17-.221-.377-.4-.587-.58-.833-.728-1.877-1.174-2.634-1.996-.91-.85-1.622-1.932-1.952-3.135-.375-2.036 0-4.115.303-6.135.288-1.018.426-3.29 1.634-3.54.393-.044.788-.071 1.183-.089.25-.049.5-.09.738-.132 1.607-.134 3.194.277 4.8.21.782.05 1.578.092 2.335.27.16.01.335.052.475.092.04 0 .078.009.114.024.208.027.417.052.625.083 1.922.252 3.961.587 5.483 1.883 1.69 1.44 2.152 3.866 2.198 5.981.018.48.03.958.032 1.435.026.447-.181 1.647.27 1.817 1.243.11 2.002-1.022 2.667-1.955.029-.212.26-.453.368-.607.14-.219.303-.422.446-.638.284-.395.574-.781.866-1.17.2-.294.404-.589.6-.888.37-.542.766-1.067 1.165-1.589.13-.2.255-.404.375-.61.685-1.057 1.368-2.226 2.355-3.03.486-.529 1.06-.948 1.825-1.064.757-.072 1.516-.132 2.274-.19.02-.005.043-.007.063-.011 2.25-.308 4.519-.344 6.786-.348 1.201-.034 2.402-.056 3.602-.063.87-.02 1.741-.004 2.61.014.488 0 1.012.009 1.528.029.051 0 .1 0 .152.002.8-.011 1.622.002 2.38.279.128.035.237.078.32.123.779.303 1.299.982 1.776 1.644.438.594.92 1.152 1.35 1.75 1.478 2.147 2.92 4.287 4.5 6.35 1.428 1.807 3.068 3.438 4.427 5.304.219.317.398.658.563 1.002a.3.3 0 0 1 .03.131c.081.237.104.496.104.741-.01.784-.277 1.502-.585 2.203a9.312 9.312 0 0 1-.237.529h-.006Zm-60.175-4.392c-.009-.143.108-.294.262-.294.153 0 .285.1.294.26.009.143-.107.295-.261.295-.154 0-.286-.1-.295-.26Zm60.966 6.376a.282.282 0 0 1-.284-.275.282.282 0 0 1 .275-.283c.151 0 .28.12.283.275a.282.282 0 0 1-.274.283Zm1.017-5.137c-.131-.39.469-.558.536-.13 0-.013-.005-.027-.007-.04.23 1.044-.174 2.105-.482 3.09-.154.287-.18 1.079-.64.938a.283.283 0 0 1-.156-.361c.145-.38.272-.766.388-1.116.22-.763.506-1.585.36-2.381h.001Z"/><path fill="#9EF1FF" d="M69.763 49.887c-.241-.462-.563-.9-.869-1.314-2.577-2.988-7.451-3.227-10.252-.42-.346.511-.734 1.011-.993 1.574-.281.662-.43 1.401-.513 2.109-.206 1.336.093 2.675.56 3.918.297.768.977 1.357 1.598 1.862 1.096.899 2.51 1.332 3.905 1.325 2.127-.044 4.345-.667 5.695-2.403.947-1.038 1.86-2.457 1.572-3.91-.11-.935-.4-1.855-.701-2.74h-.002Zm-7.106 4.435c-1.031-.652-.935-2.156-.214-3.01.671-.876 1.97-.746 2.725-.05 1.669 1.455-.77 4.2-2.511 3.06Z"/><path fill="#4EC5D9" d="M85.862 51.41c-.027-.224-.205-.385-.245-.603-.373-.672-.873-1.264-1.368-1.85-1.031-1.301-2.19-2.489-3.225-3.783-2.163-2.78-4-5.8-6.189-8.556a2.945 2.945 0 0 0-1.667-1.304 4.256 4.256 0 0 0-.801-.134 25.67 25.67 0 0 0-1.85-.12c-.156 0-.31 0-.464-.005-.252-.006-.505-.008-.755-.015-1.332 0-2.666.047-3.996.058-.646-.01-1.288-.014-1.933-.016-2.381.043-4.758.212-7.133.375-1.44.212-2.602.29-3.63 1.049-.728.808-1.275 1.78-1.958 2.627-.274.339-.54.685-.803 1.035a33.57 33.57 0 0 1-.382.594c-.4.611-.848 1.185-1.29 1.76-.538.784-1.071 1.572-1.624 2.346-.494.64-.904 1.402-1.618 1.828-.596.41-1.522.806-2.145.248-.366-.494-.306-1.221-.292-1.781.02-.804-.005-1.605-.06-2.406-.016-1.319-.396-2.602-.983-3.767-.71-1.24-2.006-1.982-3.33-2.388-2.17-.553-4.407-.761-6.636-.895-1.505-.1-2.993-.212-4.497-.196-.237.004-.471.006-.708.013h-.006c-.35.094-.735.208-1 .46-.226.274-.422.584-.525.928-.662 1.752-.988 3.627-1.084 5.488-.031.995.085 2.015.39 2.96.29.662.76 1.227 1.235 1.762.685.674 1.468 1.223 2.249 1.774.884.52 2.013 1.478 1.49 2.616-.162.303-.83 1.294-1.302 1.375-.612.4-1.324.71-1.86 1.1-1.182.828-2.073 2.046-2.392 3.457-.531 2.136-.66 4.36-.743 6.554 0 1.388-.279 3.417.578 4.569.158.118.295.254.498.28.029.01.053.023.078.036h.018c2.727.275 5.472.48 8.214.422.342.002.694.011 1.05.018.158-.076.408-.038.564-.047.73-.091 1.473.005 2.198-.132.679-.127 1.324-.444 1.913-.794.38-.145.698-.386 1.015-.632 1.076-1.278 1.263-3.035 1.692-4.597.152-.881.384-1.75.589-2.61.103-.505.364-.96.484-1.456.014-.063.025-.127.038-.19.011-.067.02-.134.023-.203.02-.125.049-.243.082-.36.036-.207.08-.412.116-.62.07-.395.065-.932.482-1.138.41-.165.893.056 1.216.31.956.893 1.574 2.045 2.335 3.08.174.246.337.498.497.752a65.384 65.384 0 0 1 1.53 2.388c.31.471.606.951.919 1.417.43.744.917 1.384 1.29 2.152.046.091.095.18.145.27.415.576.886 1.089 1.327 1.645.48.535 1.003 1.033 1.587 1.455.35.22.732.388 1.127.522 2.915.469 5.876.373 8.822.45 1.531 0 3.06.03 4.59.039 1.038-.027 2.076-.05 3.114-.054.183 0 .37 0 .555.005a53.745 53.745 0 0 0 1.797-.094c1.928-.036 2.506-.645 3.602-2.125.092-.123.179-.248.268-.373.852-1.379 1.66-2.785 2.54-4.144.923-1.53 1.78-3.102 2.664-4.655.475-.955 1.056-1.857 1.598-2.779.138-.294.275-.59.406-.888.29-.535.59-1.071.848-1.624.065-.157.134-.308.206-.462.285-.681.493-1.386.53-2.14-.066-.108-.062-.208-.02-.284l.005.002Zm-31.28 17.683a.282.282 0 0 1-.363.154c-1.027-.357-1.803-1.138-2.5-1.944a7.485 7.485 0 0 1-.57-.703.283.283 0 0 1-.155-.321c.132-.35.493-.25.638.04.63.784 1.306 1.611 2.174 2.13.259.184.895.211.777.644Zm.724.451a.284.284 0 0 1-.286-.272.28.28 0 0 1 .272-.286c.152 0 .282.118.286.272a.28.28 0 0 1-.272.286Zm15.753-15.99c-.256 1.825-1.544 3.338-2.921 4.481-1.716 1.261-4.024 1.623-6.106 1.37-.011 0-.022-.004-.031-.004a.258.258 0 0 1-.232.018c-1.35-.406-2.801-.84-3.734-1.964a9.058 9.058 0 0 1-1.44-2.888c-.307-1.415-.158-2.87.186-4.265.346-1.381 1.283-2.508 2.352-3.407.69-.507 1.509-.81 2.328-1.043 1.214-.314 2.495-.314 3.72-.067 1.538.188 3.006.944 3.943 2.192.826.81 1.409 1.785 1.567 2.944.257.848.453 1.75.368 2.633Z"/><path fill="#4EC5D9" d="M99.12 23.513c-2.233-2.961-4.563-5.885-7.248-8.447-2.861-2.75-6.166-5.006-9.572-7.01C80.98 7.291 79.656 6.51 78.3 5.8a53.846 53.846 0 0 0-4.675-1.966c-1.728-.542-3.475-.997-5.19-1.578-.113-.049-.236-.073-.338-.11A54.429 54.429 0 0 0 51.284.679C13.99 3.386-9.567 41.594 4.852 76.098c8.393 20.126 28.405 33.369 50.195 33.315 30.036-.033 54.413-24.47 54.391-54.491-.02-10.058-2.763-19.443-7.508-27.49a63.326 63.326 0 0 0-2.81-3.919ZM3.297 68.566c-.361-.921-.58-1.879-.667-2.863-.176-.147-.078-.46.152-.482.263-.053.4.21.404.438.082.946.283 1.82.625 2.693.133.337-.375.551-.516.215h.002Zm.627 1.159a.28.28 0 1 1 .01-.558.28.28 0 0 1-.01.558ZM72.938 5.398a.284.284 0 0 1 .344-.194c.395.087.792.177 1.176.31.397.132.748.35 1.125.512.361.013.355.562-.009.558-.232-.014-.466-.17-.66-.262-.556-.296-1.17-.45-1.784-.58-.147-.033-.232-.203-.194-.344h.002Zm-1.212-.475a.28.28 0 0 1 .275.284.282.282 0 0 1-.283.274.28.28 0 0 1-.275-.283.282.282 0 0 1 .284-.275ZM18.072 25.865c.264-.48.614-.9.94-1.336.31-.422.658-.878 1.102-1.157.38-.098.498.518.132.592-.674.654-1.225 1.437-1.72 2.232-.21.236-.364.906-.775.718-.393-.283.205-.743.321-1.049Zm-1.151 2.022c.152 0 .279.127.279.28a.282.282 0 0 1-.28.278.282.282 0 0 1-.278-.279c0-.152.127-.279.279-.279Zm53.036 78.067a.28.28 0 0 1-.275-.283.283.283 0 0 1 .284-.275.28.28 0 0 1 .274.283.282.282 0 0 1-.283.275Zm3.294-.616c-.467.156-.933.308-1.41.429a.283.283 0 0 1-.338-.204.284.284 0 0 1 .204-.339c.495-.12.977-.283 1.459-.446.241-.083.489-.147.719-.259.127-.125.346-.15.457.007.29.54-.765.658-1.091.812Zm27.012-48.948c-.556 23.058-18.643 41.733-40.95 43.791a37.66 37.66 0 0 1-4.766.283h.013-.02.005c-.764-.029-1.547-.051-2.299-.152-.114-.022-.263-.033-.4-.067-11.31-.783-21.76-5.911-29.382-13.856a.26.26 0 0 1-.085-.036l-.03-.02c.008.007.017.011.026.016-4.08-4.058-7.4-8.93-9.415-14.344-1.152-2.999-2.143-6.09-2.511-9.288-.112-.631-.134-1.274-.174-1.91-.005-.022-.002-.045 0-.067-1.192-9.5.727-18.838 5.037-26.863.04-.127.13-.254.19-.364a53.638 53.638 0 0 1 2.443-4.204c1.4-2.078 3.044-4.064 4.738-5.89 1.672-1.756 3.633-3.195 5.541-4.68 3.158-2.461 6.644-4.541 10.366-6.025 3.312-1.281 6.825-1.993 10.329-2.486 2.339-.284 4.702-.438 7.052-.241a.349.349 0 0 1 .118.036c24.428.495 44.873 20.977 44.17 46.367h.004Zm5.222 14.18c.208-.618.38-1.271.534-1.9.087-.537.203-1.032.279-1.559-.038-.185.113-.377.31-.348.223.03.274.268.239.458-.061.366-.132.74-.203 1.1-.101.672-.295 1.321-.487 1.97-.134.293-.141.985-.602.858-.257-.11-.157-.384-.07-.579Zm-.27 1.168c.152 0 .279.127.279.279a.282.282 0 0 1-.279.279.282.282 0 0 1-.279-.28c0-.151.128-.278.279-.278Z"/><path fill="#606060" d="M23.312 68.57s0 .005.005.005c.002 0 .004.003.006.005l.012.007-.012-.007a.041.041 0 0 0-.01-.01Z"/><path fill="#000" d="M105.249 32.638a.268.268 0 0 0-.018-.272c-.594-1.203-1.17-2.419-1.814-3.595-.322-.556-.661-1.1-1.014-1.636A55.557 55.557 0 0 0 78.464 5.253c-1.317-.687-2.667-1.307-4.08-1.776-.176-.054-.354-.105-.53-.159A54 54 0 0 0 58.637.114C19.967-2.341-9.081 34.712 2.62 71.67c6.74 21.542 26.72 37.023 49.256 38.211 33.51 1.941 61.068-26.66 57.872-60.082a54.136 54.136 0 0 0-4.499-17.16v-.002Zm-50.202 76.775c-21.79.054-41.8-13.19-50.195-33.315C-9.568 41.594 13.99 3.385 51.282.678a54.36 54.36 0 0 1 16.811 1.469c.103.036.226.06.34.11 1.716.582 3.463 1.037 5.188 1.577A53.836 53.836 0 0 1 78.297 5.8c1.356.712 2.68 1.49 4.001 2.256 3.408 2.007 6.71 4.26 9.572 7.01 2.684 2.564 5.017 5.486 7.248 8.447a64.493 64.493 0 0 1 2.81 3.919c4.742 8.047 7.485 17.432 7.507 27.49.023 30.02-24.354 54.458-54.39 54.491h.002Z"/><path fill="#000" d="M56.093 10.018a.27.27 0 0 0-.118-.036c-2.35-.196-4.713-.042-7.052.241-3.504.494-7.014 1.205-10.328 2.486-3.725 1.485-7.208 3.564-10.366 6.026-1.909 1.484-3.87 2.924-5.542 4.68-1.694 1.825-3.338 3.812-4.738 5.89a53.622 53.622 0 0 0-2.443 4.204c-.06.11-.148.239-.19.364-4.31 8.025-6.229 17.362-5.037 26.863-.002.022-.004.044 0 .066.04.636.063 1.28.174 1.91.368 3.199 1.36 6.292 2.51 9.289 2.016 5.414 5.335 10.286 9.416 14.343.03.018.06.034.09.04 7.62 7.945 18.072 13.073 29.382 13.857.134.033.286.044.4.067.752.098 1.535.123 2.298.152a37.477 37.477 0 0 0 4.767-.284c22.306-2.058 40.394-20.732 40.949-43.79.703-25.39-19.741-45.873-44.17-46.368h-.002Zm40.041 62.677c-3.186 7.624-8.513 14.07-15.092 18.762a.306.306 0 0 0-.212.107c-.36.324-.83.571-1.232.855-1.797 1.29-3.837 2.18-5.852 3.073-1.48.54-2.854 1.247-4.358 1.765-1.23.438-2.5.72-3.767 1.031-1.96.453-3.904 1.033-5.901 1.288-1.56.16-3.136.239-4.718.227a44.25 44.25 0 0 1-3.042-.113 1.532 1.532 0 0 0-.096-.025.25.25 0 0 0-.14.009C27.586 97.86 8.95 76.774 10.598 52.21a44.292 44.292 0 0 1 5.124-17.958.255.255 0 0 0 .145-.245c.161-.3.324-.596.487-.895 8.212-14.35 24.127-23.603 41.683-22.44 30.657 2.089 50.122 33.71 38.1 62.02l-.002.003Z"/><path fill="#000" d="M69.122 47.977c-.94-1.248-2.406-2.002-3.943-2.192-1.226-.247-2.509-.247-3.72.067-.82.232-1.639.536-2.328 1.043-1.07.899-2.004 2.026-2.352 3.407-.344 1.393-.494 2.85-.186 4.265a9.059 9.059 0 0 0 1.44 2.888c.935 1.125 2.386 1.558 3.733 1.964A.258.258 0 0 0 62 59.4c.01 0 .022.004.03.004 2.083.252 4.39-.109 6.107-1.37 1.377-1.142 2.664-2.656 2.921-4.481.087-.886-.11-1.788-.368-2.634-.159-1.158-.741-2.133-1.567-2.943Zm-.23 8.56c-1.348 1.74-3.568 2.36-5.695 2.404-1.395.007-2.81-.426-3.906-1.326-.62-.504-1.3-1.093-1.597-1.86-.467-1.244-.766-2.583-.56-3.92.082-.705.231-1.446.513-2.108.256-.563.645-1.063.993-1.574 2.8-2.807 7.675-2.569 10.252.42.308.415.627.852.868 1.314.302.884.592 1.803.701 2.74.288 1.451-.625 2.87-1.571 3.91h.002Z"/><path fill="#000" d="M65.168 51.264c-.755-.698-2.054-.826-2.725.05-.721.852-.817 2.356.214 3.01 1.738 1.143 4.18-1.605 2.51-3.06Z"/><path fill="#000" d="M86.355 51.103a.279.279 0 0 0-.031-.131 7.12 7.12 0 0 0-.562-1.002c-1.36-1.866-3-3.495-4.428-5.305-1.578-2.062-3.02-4.204-4.5-6.35-.43-.597-.912-1.155-1.35-1.749-.477-.663-.997-1.341-1.776-1.645a1.643 1.643 0 0 0-.319-.122c-.759-.277-1.58-.29-2.381-.28-.051 0-.1 0-.152-.002-.513-.02-1.04-.026-1.529-.029a59.85 59.85 0 0 0-2.608-.013c-1.201.007-2.402.027-3.602.063-2.268.004-4.535.038-6.787.348l-.062.01c-.76.059-1.518.121-2.275.19-.765.119-1.339.536-1.825 1.065-.986.801-1.672 1.97-2.355 3.03-.12.208-.247.41-.374.61-.4.522-.795 1.047-1.165 1.589-.197.299-.4.594-.6.888-.29.386-.58.775-.867 1.17-.14.218-.305.42-.446.638-.105.154-.34.395-.368.607-.665.933-1.422 2.064-2.667 1.955-.45-.17-.243-1.368-.27-1.817 0-.48-.013-.957-.031-1.435-.047-2.115-.51-4.544-2.198-5.98-1.523-1.297-3.562-1.632-5.484-1.884-.207-.032-.415-.056-.625-.083a.383.383 0 0 0-.114-.024 2.267 2.267 0 0 0-.475-.092c-.756-.178-1.553-.22-2.334-.27-1.607.07-3.194-.341-4.8-.21-.24.045-.492.083-.74.132-.394.018-.79.045-1.182.09-1.207.25-1.346 2.521-1.634 3.539-.3 2.02-.676 4.102-.303 6.135.33 1.203 1.042 2.285 1.953 3.135.756.82 1.8 1.268 2.633 1.995.21.183.417.36.587.58a.241.241 0 0 0 .071.15c0 .005 0 .009.003.011.283 1.192-.922 1.81-1.804 2.292-.85.469-1.644 1.02-2.287 1.756-1.495 1.62-1.678 3.975-1.913 6.066-.18 1.449-.198 2.906-.25 4.363.02 1.37-.131 3.857 1.522 4.3.02.005.04.01.058.01.032.02.07.033.108.037.607.063 1.216.132 1.825.186 1.908.093 3.823.292 5.74.254 1.214-.04 2.433.096 3.644-.031 3.156-.112 5.06-1.774 5.995-4.736.156-.618.285-1.245.444-1.86.12-.708.15-1.43.317-2.128.131-.837.321-1.662.488-2.492.116-.492.261-.974.473-1.438.855.246 1.293 1.176 1.813 1.835.538.756 1.07 1.5 1.582 2.265.083.131.163.261.239.395.27.602.71 1.089 1.057 1.642l.134.201c.721 1.183 1.402 2.393 2.18 3.535.57.989 1.168 1.957 1.978 2.78 1.013 1.224 2.029 1.47 3.55 1.585 1.732.215 3.471.277 5.214.275 2.46.029 4.916-.067 7.376-.127.526.006 1.053.013 1.578.022.73-.022 1.466-.036 2.2-.065 1.671.025 3.673.293 4.744-1.212.431-.542.826-1.106 1.201-1.687.821-1.165 1.538-2.405 2.285-3.62 1.226-1.943 2.444-3.896 3.5-5.938.383-.663.696-1.361 1.017-2.055.154-.277.306-.554.465-.828.084-.21.513-.8.618-1.228a2.73 2.73 0 0 0 .114-.292l.042-.096c.085-.174.163-.35.237-.529.307-.7.575-1.42.584-2.203a2.38 2.38 0 0 0-.102-.74h.006ZM23.321 68.58l-.007-.005s0-.004-.004-.004l.011.009.011.007c-.009-.005-.009-.007-.01-.007Zm62.03-14.747a7.12 7.12 0 0 0-.205.462c-.261.551-.56 1.089-.848 1.624-.132.3-.268.594-.407.889-.54.921-1.122 1.825-1.598 2.778-.883 1.553-1.74 3.127-2.664 4.655-.88 1.36-1.69 2.766-2.54 4.145-.089.125-.176.25-.268.372-1.093 1.48-1.671 2.09-3.602 2.125-.598.044-1.198.071-1.796.094-.185-.005-.37-.007-.556-.005a144.93 144.93 0 0 0-3.113.054c-1.529-.007-3.06-.036-4.59-.038-2.946-.078-5.908.018-8.822-.451a5.231 5.231 0 0 1-1.127-.522 9.908 9.908 0 0 1-1.587-1.455c-.442-.556-.91-1.07-1.328-1.645-.05-.09-.098-.179-.145-.27-.373-.766-.86-1.408-1.29-2.151-.315-.467-.61-.947-.92-1.417-.495-.804-1-1.605-1.528-2.388-.16-.255-.326-.507-.498-.752-.76-1.036-1.381-2.188-2.334-3.08-.326-.257-.808-.476-1.216-.31-.42.203-.413.74-.483 1.138-.035.207-.078.413-.116.62a2.637 2.637 0 0 0-.082.36c-.002.069-.011.136-.022.203-.014.062-.025.127-.038.19-.119.497-.38.95-.485 1.454-.205.862-.437 1.73-.589 2.611-.428 1.563-.618 3.319-1.691 4.598-.317.245-.639.486-1.016.631-.591.35-1.234.667-1.912.795-.726.136-1.469.04-2.199.131-.156.01-.406-.029-.564.047-.355-.007-.708-.015-1.05-.018-2.742.056-5.487-.147-8.214-.421h-.018a.32.32 0 0 0-.078-.036c-.203-.03-.34-.163-.498-.281-.857-1.152-.578-3.18-.578-4.569.083-2.193.212-4.418.744-6.554.319-1.413 1.21-2.629 2.392-3.457.535-.39 1.247-.7 1.859-1.1.473-.08 1.14-1.071 1.303-1.375.523-1.138-.607-2.096-1.49-2.616-.782-.55-1.567-1.1-2.25-1.774-.478-.535-.944-1.102-1.234-1.763-.306-.944-.422-1.964-.39-2.959.095-1.861.421-3.736 1.084-5.488.1-.343.299-.654.524-.928.268-.252.652-.366 1-.46h.007c.236-.006.473-.009.707-.013 1.504-.016 2.993.098 4.497.196 2.23.134 4.466.34 6.637.895 1.324.406 2.62 1.147 3.33 2.388.587 1.163.966 2.446.982 3.767.058.801.08 1.605.06 2.406-.016.56-.074 1.29.292 1.78.623.559 1.55.166 2.145-.247.712-.426 1.123-1.187 1.618-1.828.553-.774 1.087-1.56 1.625-2.345.442-.576.89-1.15 1.29-1.761.129-.196.256-.395.381-.594.261-.348.527-.696.804-1.035.68-.846 1.23-1.819 1.957-2.627 1.029-.759 2.191-.839 3.63-1.049 2.377-.163 4.752-.335 7.133-.375.643 0 1.288.007 1.933.016 1.33-.011 2.665-.06 3.997-.058.252.004.504.007.754.016.154.002.31.004.464.004.616.02 1.234.056 1.85.12.27.02.54.059.802.134.649.21 1.225.592 1.667 1.304 2.191 2.754 4.026 5.775 6.188 8.556 1.036 1.294 2.196 2.482 3.225 3.783.495.587.995 1.178 1.368 1.85.04.216.219.38.246.602-.043.076-.047.175.02.284-.038.752-.246 1.46-.532 2.14l-.004-.002ZM22.384 86.353l-.005-.004-.026-.016.03.02ZM105.554 71.146c.465.13.469-.564.603-.857.192-.65.386-1.3.487-1.97.071-.36.142-.732.203-1.1.035-.19-.016-.429-.239-.458-.197-.029-.348.163-.31.348-.076.527-.195 1.022-.279 1.558a23.63 23.63 0 0 1-.534 1.901c-.087.194-.189.469.069.578ZM105.215 72.293a.279.279 0 1 0 0-.558.279.279 0 0 0 0 .558ZM50.28 97.21c-.37.06-.75-.1-1.12-.138-.719-.103-1.44-.17-2.154-.301-.832-.11-1.63-.364-2.428-.605a.283.283 0 0 0-.35.18c-.099.373.372.393.62.48 1.687.57 3.475.65 5.218.96.238.025.609-.051.546-.364a.285.285 0 0 0-.332-.212ZM42.915 95.615c-.151 0-.285.107-.292.265-.007.145.112.292.266.292.154 0 .285-.107.292-.265.007-.145-.112-.292-.266-.292ZM17.75 26.914c.41.188.566-.48.775-.718.498-.795 1.047-1.578 1.72-2.232.367-.076.249-.692-.13-.591-.445.28-.79.734-1.103 1.155-.326.438-.676.855-.94 1.337-.116.306-.716.768-.321 1.05ZM16.92 28.443a.279.279 0 1 0 0-.558.279.279 0 0 0 0 .558ZM55.299 33.962c1.591 0 3.178-.123 4.767-.172.366-.016.348-.565-.011-.558-1.127.038-2.254.098-3.383.152-.42.013-.842.018-1.261.016-.288-.038-.708.176-.487.504a.282.282 0 0 0 .377.058H55.3ZM61.367 33.964a.28.28 0 0 0 .272-.286.284.284 0 0 0-.285-.272.28.28 0 0 0-.273.286.284.284 0 0 0 .286.272Z"/><path fill="#000" d="M53.806 68.448c-.868-.518-1.544-1.345-2.174-2.129-.142-.29-.504-.39-.638-.04-.038.127.036.266.154.321.174.248.368.48.571.703.697.806 1.473 1.587 2.5 1.944a.282.282 0 0 0 .364-.154c.118-.435-.518-.462-.777-.645ZM55.292 68.986a.28.28 0 0 0-.272.286.284.284 0 0 0 .286.272.28.28 0 0 0 .272-.286.284.284 0 0 0-.286-.272ZM24.611 49.555c.172.167.484.004.46-.23a.295.295 0 0 0-.096-.194c-.261-.248-.498-.507-.759-.77-.692-.679-1.192-1.536-1.567-2.422-.015-.297-.243-.808-.6-.547-.134.119-.11.315.01.431.017.112.035.223.073.33.515 1.337 1.441 2.438 2.48 3.402ZM26.017 50.148c-.009-.158-.143-.26-.294-.26-.152 0-.27.151-.262.294.01.158.143.26.295.26s.27-.15.261-.294ZM86.699 54.922a.28.28 0 0 0 .156.361c.46.141.487-.651.64-.937.308-.989.712-2.046.483-3.09l.006.04c-.069-.427-.67-.262-.535.129.147.799-.139 1.62-.36 2.381-.116.35-.243.734-.388 1.116H86.7ZM86.418 56.002a.282.282 0 0 0-.275.283.282.282 0 0 0 .284.275.282.282 0 0 0 .274-.283.282.282 0 0 0-.283-.275ZM73.132 5.742c.614.13 1.226.284 1.784.58.194.092.428.25.66.262.364.004.37-.545.01-.558-.378-.161-.728-.38-1.126-.511-.383-.134-.78-.221-1.176-.31a.284.284 0 0 0-.343.194c-.04.14.044.31.194.343h-.003ZM71.718 5.483c.151 0 .28-.12.283-.274a.28.28 0 0 0-.274-.284.282.282 0 0 0-.284.275.28.28 0 0 0 .275.283ZM73.885 104.517c-.228.111-.478.176-.72.259-.481.163-.963.323-1.459.446a.283.283 0 0 0-.203.339.28.28 0 0 0 .337.203c.478-.12.944-.272 1.41-.428.329-.154 1.382-.272 1.092-.813-.111-.156-.33-.131-.457-.006ZM69.966 105.394a.282.282 0 0 0-.284.274.28.28 0 0 0 .275.284.282.282 0 0 0 .283-.275.28.28 0 0 0-.274-.283ZM3.812 68.352a9.549 9.549 0 0 1-.625-2.694c-.005-.227-.14-.49-.404-.437-.23.022-.328.335-.152.482.085.984.304 1.942.667 2.863.141.337.65.125.516-.214h-.002ZM3.93 69.167a.284.284 0 0 0-.283.274c0 .152.122.284.274.284a.284.284 0 0 0 .284-.275.282.282 0 0 0-.275-.283Z"/></g><defs><clipPath id="a"><path fill="#fff" d="M0 0h110v109.973H0z"/></clipPath></defs></svg>