<svg width="72" height="61" viewBox="0 0 72 61" fill="none" xmlns="http://www.w3.org/2000/svg">
<g clip-path="url(#clip0_1157_5693)">
<path d="M70.5582 21.0811C70.3183 19.9053 69.9095 18.6595 69.0577 17.8006C68.1406 16.9911 66.9427 16.6166 65.7353 16.6619C65.5758 16.6756 65.4177 16.6989 65.2597 16.7195C65.2092 16.7346 65.1534 16.7414 65.0961 16.7428C65.0307 16.7675 64.9612 16.7757 64.8958 16.7675C64.8467 16.7744 64.7963 16.7799 64.7473 16.7812C64.9544 17.3863 65.2133 17.9735 65.5145 18.5347C66.4276 20.605 67.7849 22.4833 68.405 24.6772C68.9351 26.7544 69.1613 29.8442 67.3434 31.3507C67.3406 31.3521 67.3393 31.3534 67.3365 31.3562C67.3338 31.3603 67.3325 31.3631 67.3284 31.3672C67.2888 31.4097 67.2739 31.4509 67.2534 31.4865C67.2166 31.8131 67.4319 32.0957 67.5873 32.3633C67.7931 32.7625 68.1092 33.1357 68.5385 33.288C68.6094 33.3086 68.6625 33.3415 68.7034 33.3827C68.7797 33.3662 68.8547 33.3484 68.9296 33.325C69.5047 33.1508 69.9872 32.7982 70.4519 32.4291C70.6931 32.237 70.828 31.9517 70.982 31.691C71.8501 29.9444 71.0897 27.6408 70.9711 25.7693C70.798 24.2121 70.9234 22.6151 70.5568 21.0839L70.5582 21.0811Z" fill="#4EC5D9"/>
<path d="M55.5839 37.5343C55.1833 36.8511 54.7267 36.1486 54.5891 35.3569C54.5659 35.2911 54.5537 35.2197 54.5523 35.1498C54.5455 35.1319 54.54 35.1127 54.5346 35.0949C54.5114 35.04 54.4882 34.9769 54.4719 34.911C54.4269 34.9069 54.3833 34.9014 54.3383 34.8918C53.4157 34.6572 52.6553 33.9657 52.1824 33.1521C52.0747 32.9477 52.0271 32.7268 52.0066 32.5018C51.9766 32.403 51.9412 32.3083 51.8853 32.2191C51.6945 31.931 51.332 31.754 51.0009 31.7128C50.9327 31.7074 50.8782 31.6854 50.8346 31.6552C50.5348 31.6785 50.2241 31.6662 49.8997 31.6099C48.3394 31.3465 46.9888 30.1474 46.2829 28.7657C45.979 28.28 45.7569 27.7601 45.5525 27.2305C45.3658 26.9259 45.1968 26.517 44.7934 26.5294C44.5004 26.5458 44.2387 26.6405 43.9948 26.7736C44.0016 26.7695 44.0084 26.764 44.0152 26.7598C44.0152 26.7598 44.0152 26.7599 44.0234 26.7544C43.973 26.79 43.9226 26.8079 43.8735 26.8147C43.7999 26.8888 43.725 26.9629 43.6446 27.0315C42.1142 28.2787 40.0754 29.106 38.0858 28.8549C36.152 28.4941 34.3681 27.2195 33.4237 25.4784C33.3283 25.3165 33.2452 25.1491 33.1716 24.9776C33.023 25.1011 32.8499 25.2026 32.7014 25.311C31.8865 25.8296 31.0197 26.3181 30.0712 26.5307C28.3459 26.8408 26.5552 26.6117 24.8763 26.1685C24.2699 26.019 23.7111 25.724 23.1796 25.4016C22.7694 25.1683 22.3592 24.9543 21.9763 24.6812C21.0523 24.1269 20.2837 23.36 19.3625 22.8029C18.4767 22.2706 17.4873 21.9674 16.4734 21.8C15.4785 21.6779 14.4728 21.837 13.5011 22.0511C12.4395 22.4284 11.2566 22.6712 10.3858 23.4204C10.3531 23.4601 10.3177 23.4931 10.2781 23.5191C10.2482 23.548 10.2182 23.574 10.1882 23.6042C9.0789 24.8061 8.33482 26.2851 7.81287 27.8245C7.464 29.3008 7.19144 30.8101 7.16146 32.3303C7.10967 33.1864 7.01837 34.0851 7.14102 34.9302C7.27048 35.8769 7.3577 36.8456 7.13693 37.7854C7.10831 37.9514 6.93251 38.0584 6.77443 38.0241C6.60681 37.9885 6.50869 37.8238 6.53731 37.6592C6.60136 37.3258 6.65723 36.9951 6.66268 36.6549C6.67222 35.8714 6.53322 35.1635 6.47734 34.4006C6.43237 33.7517 6.49915 33.1041 6.54276 32.4578C6.57274 30.8457 6.84529 29.2418 7.2187 27.675C7.73928 26.0944 8.63327 24.2724 9.86114 23.0828C9.90338 23.0225 9.95381 22.969 9.97697 22.8949C10.0587 22.7069 10.0628 22.4888 10.0206 22.2898C9.98651 22.0456 9.77119 21.8631 9.73167 21.6244C9.29422 21.1538 9.09253 20.5199 8.94262 19.6843C8.89083 19.3016 8.87721 18.9201 8.89083 18.5387C8.85949 18.4879 8.84314 18.4303 8.82542 18.3727C8.67279 18.1285 8.35799 18.0667 8.09769 18.0681C7.96687 18.1051 7.81151 18.1065 7.69158 18.0571C7.2991 18.1847 6.89027 18.2712 6.48552 18.3453C4.87062 18.5922 3.35112 19.2618 2.56343 20.7792C2.19411 21.3706 2.10962 22.0854 1.95699 22.7549C1.81662 24.26 2.0333 25.783 1.89021 27.2908C1.75666 29.2981 0.692323 31.1421 0.613281 33.148C0.633723 33.6872 0.643263 34.2332 0.750923 34.7615C0.783629 34.7903 0.813611 34.8246 0.843592 34.8589C0.952615 34.9769 1.05619 35.0866 1.18838 35.1731C1.6817 35.5188 2.4435 35.619 2.90276 35.1731C2.97226 35.0345 3.03359 34.8918 3.0772 34.7409C3.17804 34.3567 3.22438 33.9588 3.23937 33.5623C3.03086 31.4892 3.27344 30.6907 3.96301 28.7644C4.24101 27.9 4.56127 27.0507 4.68937 26.1466C4.81066 25.0366 4.71799 23.8814 4.34731 22.8276C4.20831 22.6452 4.09383 22.3872 4.33232 22.2281C5.02598 21.8823 5.18133 23.7455 5.28763 24.1695C5.48932 25.6334 5.22494 27.1111 4.69346 28.479C4.40727 29.4531 3.98754 30.3916 3.82536 31.4C3.66592 32.5649 4.02433 33.7009 3.68363 34.8438C3.64275 34.9975 3.5896 35.1456 3.52691 35.2897C3.50511 35.3899 3.45878 35.479 3.39609 35.5586C3.22846 35.8783 3.02541 36.1815 2.83326 36.4847C2.64519 36.7852 2.36173 37.0184 2.22409 37.3518C2.01422 37.9363 1.73349 38.6031 1.95971 39.2178C1.96244 39.2192 1.96516 39.2205 1.96653 39.2219C2.12461 39.3742 2.25271 39.5553 2.44895 39.6596C2.5716 39.7172 2.70107 39.7858 2.81418 39.8366C3.53373 40.17 4.42363 40.1261 5.02734 39.58C5.25629 39.237 5.72781 39.5635 5.56019 39.8956C5.49478 40.2331 5.22494 40.5665 5.12001 40.8628C4.82974 41.5228 4.72208 42.2472 4.703 42.9648C4.69891 45.278 5.79868 47.9699 8.12359 48.7602C9.39098 49.1389 10.8328 48.8905 11.7704 47.9205C11.938 47.7545 12.0975 47.5816 12.2515 47.4046C12.5717 46.9834 12.8688 46.5581 13.2013 46.1396C13.4712 45.7184 13.7151 45.2794 13.9318 44.8266C13.9386 44.747 13.9808 44.6702 14.0353 44.6002C14.5246 43.5232 14.8694 42.3762 15.0806 41.2237C15.0806 41.1894 15.0833 41.1565 15.0929 41.1263C15.1569 40.7531 15.7184 40.7682 15.7061 41.1894C15.7034 41.2113 15.6993 41.2333 15.6966 41.2552C15.6966 41.2882 15.6939 41.3211 15.6857 41.3527C15.6407 41.6106 15.623 41.8726 15.6107 42.1333C15.5876 42.6808 15.6393 43.2378 15.916 43.7194C15.9201 43.729 15.9214 43.7386 15.9242 43.7496C16.517 44.2243 17.0839 44.7333 17.7108 45.1586C20.236 46.7104 22.9493 46.4483 25.6095 45.4193C26.6779 44.9995 27.6577 44.3958 28.624 43.7798C29.2958 43.3448 29.8764 42.8591 30.6095 42.5422C32.5583 41.4912 34.1051 41.2841 35.6096 43.1596C36.3646 43.9677 37.1523 44.8664 38.3679 44.5042C39.3177 44.2805 40.0386 43.5287 40.9708 43.2639C41.9656 42.9936 43.0381 43.1527 43.9049 43.7194C44.4363 44.0693 44.8602 44.5618 45.4094 44.8897C45.7501 45.1628 46.1875 45.0022 46.5541 44.876C46.704 44.8431 46.7871 44.7141 46.9357 44.6798C47.1347 44.6441 47.32 44.8293 47.2914 45.031C47.2123 45.433 46.4737 45.5387 46.1357 45.632C44.6462 45.9448 43.8803 43.515 41.7312 43.7647C40.78 43.7866 40.0673 44.4507 39.2496 44.8376C38.496 45.2025 37.5597 45.3548 36.7843 44.9693C35.4202 44.3423 34.8246 42.4873 33.2152 42.3529C32.4984 42.3309 31.8333 42.6273 31.1996 42.9332C30.5278 43.2474 29.9268 43.5822 29.3694 44.024C28.8706 44.3642 28.35 44.6688 27.839 44.9899C27.8076 45.0626 27.7654 45.1381 27.749 45.2163C27.5882 45.9352 28.0761 46.6596 28.673 47.0232C28.7139 47.0438 28.7548 47.063 28.7957 47.0795C28.8202 47.0918 28.842 47.1055 28.8611 47.1206C30.3765 47.8053 32.4656 46.9766 34.1105 47.2935C35.0563 47.465 35.9912 47.7133 36.9015 48.0207C38.2002 48.5338 39.4717 49.121 40.8304 49.4681C43.3243 50.0348 45.9163 49.9827 48.3789 49.3186C51.1917 48.4913 53.7796 46.8668 55.6057 44.5426C56.02 43.9609 56.5024 43.3928 56.7041 42.6931C56.8459 41.8973 56.7927 41.1194 56.6319 40.3566C56.4616 39.3564 56.0445 38.422 55.5866 37.5261L55.5839 37.5343ZM51.6346 43.6467C51.471 43.9224 50.9 44.7237 50.5607 44.3244C50.4149 44.1502 50.5184 43.917 50.6942 43.8168C50.8387 43.7043 50.9614 43.5657 51.0608 43.4121C51.2584 43.0553 51.4233 42.6725 51.5174 42.2746C51.561 41.9248 51.486 41.5722 51.4261 41.2292C51.3102 40.6584 51.1603 40.5541 50.622 40.3977C49.9597 40.1713 49.2511 40.3278 48.5819 40.4403C47.3391 40.7545 46.5596 40.5898 45.9218 39.3989C45.6097 38.8034 45.4721 38.1202 45.0659 37.5755C44.589 36.7811 43.4647 36.7056 42.7492 37.205C41.8252 37.8869 41.1834 39.0367 39.9323 39.0751C38.6091 39.1382 37.5161 38.0886 37.1659 36.8593C36.8511 35.833 35.7949 34.8685 34.7197 35.5051C34.2822 35.737 33.9211 36.0772 33.5395 36.3873C32.9222 36.8593 32.2163 37.3052 31.4218 37.3477C30.645 37.404 29.9431 36.9142 29.5629 36.257C29.4225 35.9963 29.2481 35.7562 29.0519 35.5353C28.2792 34.6503 27.3225 34.9261 26.3726 35.3171C25.063 35.9496 24.0491 36.1047 22.9098 35.6547C22.8839 35.6547 22.8566 35.6547 22.8308 35.6519C22.4887 35.6601 22.1753 35.7685 21.9068 35.9826C21.6479 36.1993 21.4121 36.4737 21.3658 36.8209C21.3603 36.8483 21.3589 36.8758 21.3589 36.9032C21.4639 37.5439 21.5457 38.1888 21.5416 38.8405C21.5838 39.676 21.6043 40.5116 21.4244 41.3348C21.4012 41.5022 21.2527 41.6284 21.0864 41.6078C20.9256 41.59 20.7907 41.4336 20.8152 41.2676C20.8711 40.9054 20.946 40.5459 20.961 40.1782C20.9719 39.1753 20.9147 38.1586 20.777 37.1598C20.7416 37.0829 20.7334 36.991 20.7402 36.9046C20.7171 36.7523 20.6912 36.6 20.6639 36.4491C20.6312 36.3901 20.6217 36.3173 20.6271 36.2419C20.5917 36.0553 20.5522 35.8701 20.5099 35.6862C20.3219 34.804 20.112 33.9081 19.5478 33.1836C18.0215 31.3342 15.5385 31.4014 13.6524 32.6499C13.3144 32.8942 13.0214 33.196 12.8075 33.5568C12.4232 34.225 12.0566 34.9055 11.7554 35.6149C11.4924 36.3475 11.2866 37.1049 11.1026 37.8609C11.0236 38.352 10.9623 38.8446 10.856 39.3303C10.8205 39.4949 10.6447 39.5965 10.4853 39.5567C10.131 39.4565 10.2918 39.0614 10.3354 38.8021C10.4144 38.3232 10.4635 37.8389 10.5848 37.3697C10.8819 36.2446 11.213 35.1264 11.7963 34.1125C12.3332 33.0012 12.9846 32.1341 14.1648 31.6731C15.3927 31.0749 16.7854 30.9678 17.9983 31.3753C18.001 31.3753 18.0038 31.3753 18.0079 31.3753C18.1578 31.3479 18.2995 31.2779 18.4262 31.1928C18.6634 31.0406 18.7342 30.7675 18.8691 30.5425C18.7697 30.1405 18.6974 29.733 18.6538 29.3187C18.5666 28.7808 19.2984 28.7507 19.2671 29.3022C19.3706 30.2558 19.6473 31.1681 20.0561 32.0339C20.4432 32.8105 20.8861 33.5953 21.5688 34.1454C22.0117 34.4829 22.501 34.8109 23.0229 35.0331C23.1183 35.04 23.2042 35.0647 23.2641 35.1264C23.6498 35.2623 24.0545 35.3322 24.4715 35.3007C25.9311 35.1155 27.4111 33.7256 28.8802 34.6147C29.3476 34.874 29.691 35.302 29.9799 35.7452C30.183 36.1321 30.4801 36.5122 30.8984 36.6672C33.0244 37.2064 34.1269 33.7283 36.4 34.9371C37.1196 35.3089 37.5475 36.0539 37.7996 36.8017C38.0585 37.5947 38.6895 38.2985 39.5344 38.4344C41.2869 38.7307 41.7898 36.2734 43.6691 36.2817C44.6312 36.1856 45.4366 36.8209 45.8441 37.6605C46.1398 38.2203 46.2761 38.8597 46.6291 39.392C47.2014 40.2441 47.8856 39.9354 48.7237 39.794C49.6381 39.6088 50.6261 39.5965 51.456 40.0822C51.9167 40.373 52.0121 40.9712 52.0952 41.4706C52.2669 42.2349 52.0039 42.984 51.64 43.6508L51.6346 43.6467Z" fill="#4EC5D9"/>
<path d="M66.3486 32.1465C66.2804 32.0779 66.2014 32.0244 66.1319 31.9585C65.3919 32.1794 64.5851 32.226 63.826 32.3125C61.9086 32.344 59.9816 32.5979 58.2168 33.3977C57.3774 33.7696 56.6414 34.3527 55.7638 34.6463C55.5485 34.7245 55.325 34.8054 55.0974 34.8603C55.1846 35.1237 55.2732 35.3501 55.3209 35.6245C55.3209 35.6177 55.3168 35.6108 55.3155 35.6026C55.325 35.6424 55.3264 35.6794 55.3223 35.7151C55.3836 35.8729 55.4558 36.0279 55.5349 36.1816C55.8946 36.9129 56.3485 37.5934 56.6592 38.3507C56.9317 39.0285 57.1525 39.7392 57.2792 40.465C57.3787 40.6187 57.436 40.8423 57.515 40.9727C57.7508 41.4213 57.9606 41.8508 58.2768 42.2432C58.5657 42.4929 58.8832 42.7508 59.2594 42.8427C59.3684 42.8757 59.5047 42.8729 59.6273 42.8935C61.2436 42.9662 62.8735 42.6465 63.9296 41.3349C64.6451 40.4568 65.0498 39.2069 64.0918 38.3425C64.0223 38.2547 63.9501 38.1724 63.8737 38.0914C63.8451 38.0708 63.822 38.0475 63.8015 38.0215C63.2796 37.496 62.6213 37.1159 61.959 36.7976C61.3553 36.5109 60.6985 36.3901 60.0634 36.1994C59.9053 36.1445 59.8236 35.9607 59.8794 35.8043C59.9489 35.6081 60.1711 35.5614 60.3455 35.6424C60.9669 35.8056 61.5938 35.9497 62.1798 36.2227C62.789 36.4875 63.6175 36.9869 64.2635 37.6044C64.7228 37.7717 65.1929 37.8115 65.6767 37.721C66.1932 37.6441 66.6456 37.3944 66.9986 37.0103C67.2098 36.6988 67.3707 36.3544 67.4715 35.9854C67.6814 35.1923 67.5437 34.3952 67.3856 33.6104C67.2112 33.03 66.7669 32.5677 66.3499 32.1478L66.3486 32.1465Z" fill="#4EC5D9"/>
<path d="M8.88535 18.1888C8.84719 18.2478 8.82403 18.3192 8.83357 18.3905C8.82948 18.3219 8.84719 18.252 8.88535 18.1888Z" fill="#4EC5D9"/>
<path d="M38.8925 49.5024C38.7617 49.4558 38.6309 49.4078 38.5 49.357C37.7355 49.0483 36.9955 48.682 36.2024 48.4501C35.1898 48.1647 34.1841 47.8478 33.1266 47.8464C31.5757 47.8464 29.8954 48.3801 28.4481 47.6145C28.395 47.5857 28.3418 47.5542 28.2901 47.5212C27.2148 46.9121 27.3661 46.0546 25.6285 46.0738C25.6245 46.0738 25.6217 46.071 25.619 46.071C25.048 46.2878 24.4647 46.4675 23.8665 46.5979C22.8853 46.8174 21.8632 46.9697 20.8588 46.8544C19.5764 46.7364 18.3172 46.2864 17.2338 45.5881C16.8386 45.3123 16.4706 45.0022 16.1013 44.6935C15.965 44.677 15.8383 44.6084 15.6966 44.6208C15.3886 44.6016 15.0492 44.5879 14.774 44.747C14.7058 44.7937 14.6404 44.8623 14.575 44.9295C14.3651 45.4522 14.0858 45.942 13.7655 46.4017C13.4371 46.9272 13.0691 47.4266 12.6535 47.8889C12.4763 48.1263 12.291 48.3568 12.0784 48.5667C11.7881 48.8933 11.3983 49.1471 11.3043 49.5902C11.2457 49.829 11.2444 50.0375 11.2512 50.2763C11.2525 50.2914 11.2539 50.3051 11.2539 50.3202C11.3861 50.4299 11.5237 50.5328 11.6668 50.6248C12.1765 50.9431 12.7284 51.2106 13.1468 51.6538C13.8554 52.3864 14.3011 53.3208 14.7126 54.2441C15.0547 55.2457 15.424 56.2391 15.8819 57.194C16.2676 57.917 16.6423 58.6634 17.3115 59.1656C18.5557 60.1178 20.206 60.4868 21.7405 60.3537C23.8011 60.1191 25.2688 59.2534 26.8237 57.9335C27.6196 57.2475 28.335 56.4709 29.1527 55.8096C30.7158 54.6695 32.4874 53.6748 34.4389 53.484C35.4215 53.3633 36.4859 53.3057 37.4303 53.0656C38.1812 52.9119 38.9048 52.6156 39.4472 52.0558C39.5167 51.9858 39.5903 51.9076 39.6652 51.8239C39.6748 51.7855 39.6884 51.7484 39.7116 51.7169C39.7306 51.6922 39.7497 51.673 39.7715 51.6551C39.995 51.0789 39.7088 50.4917 39.3872 50.0156C39.2809 49.8427 39.0111 49.6877 38.8925 49.5024Z" fill="#9EF1FF"/>
<path d="M6.33694 16.7962C6.35602 16.8525 6.40508 16.8909 6.4446 16.9348C6.74305 17.1873 7.15462 17.2559 7.53483 17.2463C7.71336 17.238 7.89188 17.2216 8.06495 17.1749C8.12219 17.1543 8.18215 17.1447 8.24075 17.1434C8.42882 17.0267 8.60598 16.8923 8.77088 16.7441C8.94804 16.5726 9.1143 16.3901 9.28192 16.2104C9.49452 15.4462 9.76571 14.6957 10.0355 13.9658C10.9268 11.8487 12.4627 10.0198 14.267 8.62723C15.1582 7.93848 16.1981 7.46513 17.2474 7.07685C17.5172 7.00825 17.7898 6.95062 18.0637 6.9026C18.5911 6.62957 18.7696 5.96963 18.7942 5.40847C18.7942 5.0737 18.726 4.71286 18.4957 4.45903C18.4289 4.35339 18.3076 4.24637 18.2136 4.13524C18.0119 4.09545 17.8089 4.06526 17.6031 4.05017C17.0348 4.07212 16.4624 4.20384 15.9609 4.4755C15.5753 4.71148 15.1801 4.94061 14.8339 5.23285C14.3365 5.75148 13.8459 6.28656 13.4152 6.86281C12.7993 7.81774 12.077 8.70955 11.1517 9.3791C10.4008 9.96632 9.49997 10.3025 8.69456 10.7978C7.33587 11.588 6.15161 12.8325 5.94446 14.4556C5.8368 15.1855 5.94855 15.925 6.17477 16.6234C6.24836 16.6549 6.31105 16.7153 6.33967 16.7962H6.33694Z" fill="#4EC5D9"/>
<path d="M14.6527 9.10745C12.9355 10.4314 11.4719 12.1616 10.6134 14.1716C9.98648 15.8317 9.40048 17.5687 9.50269 19.3674C9.64033 19.9354 9.68258 20.5583 10.0342 21.044C10.4744 21.5791 11.1803 21.9111 11.8726 21.8028C13.0418 21.5969 13.884 20.8355 14.6322 19.9011C14.6554 19.8668 14.6799 19.8353 14.7072 19.8078C16.0223 18.134 17.0716 15.9579 19.1539 15.3899C20.728 14.8905 22.9179 15.4819 24.2916 16.3366C24.7645 16.6165 25.1025 17.0583 25.4132 17.5028C25.5113 17.6387 25.4623 17.8404 25.3273 17.9309C25.1843 18.027 25.0003 17.9803 24.9022 17.8445C24.7291 17.6016 24.5519 17.3615 24.3434 17.1475C23.9891 16.8292 23.5585 16.6042 23.1264 16.4162C18.9918 14.8439 17.738 16.5301 15.5248 19.7475C15.4185 19.8915 15.3068 20.0383 15.1896 20.1851C15.1446 20.2702 15.0683 20.3402 15.0451 20.4376C14.9579 20.7367 15.1923 21.0193 15.4417 21.151C17.1411 21.0879 18.8528 21.6683 20.236 22.6479C20.6612 22.9415 21.0591 23.2722 21.4611 23.596C22.1766 24.1023 22.9275 24.5701 23.6906 24.9927C25.3178 25.9833 28.9469 26.4265 30.7035 25.6897C30.7812 25.654 30.8589 25.617 30.9366 25.5799C31.066 25.4578 31.2609 25.3618 31.3658 25.2438C32.4683 24.3794 32.5106 23.1281 32.1862 21.8659C32.144 21.6793 32.0745 21.5009 32.0227 21.3171C31.9941 21.2361 31.9655 21.1538 31.9369 21.0728C31.8333 20.6832 32.3975 20.5131 32.5256 20.9C32.5297 20.9109 32.5338 20.9233 32.5378 20.9343C32.5733 21.0001 32.5951 21.077 32.6142 21.1524C33.0489 22.3927 33.2887 23.703 33.8107 24.9076C34.6365 26.6144 36.3019 27.8739 38.1457 28.243C39.0969 28.3912 40.0727 28.1813 40.9748 27.8712C41.9451 27.4761 42.9195 26.9698 43.6295 26.1767C44.6067 24.9351 44.9201 23.3367 44.9705 21.7918C45.0768 19.7159 44.9106 17.6551 44.439 15.6424C44.266 15.0167 43.9825 14.4268 43.7181 13.8354C43.59 13.5391 43.1635 13.1357 43.5491 12.8668C43.7495 12.7323 44.0479 12.8997 44.0288 13.1439C44.4445 13.8437 44.747 14.6147 45.006 15.3844C45.2881 16.552 45.4666 17.7402 45.562 18.9393C45.6328 20.5158 45.6846 22.1252 45.3698 23.6769C45.3153 23.9527 45.2472 24.2285 45.1654 24.5015C45.2853 24.7951 45.3739 25.0819 45.4952 25.3727C45.6342 25.7157 45.7814 26.0546 45.9054 26.4031C45.9381 26.4484 45.9531 26.4992 45.9558 26.5486C46.167 27.2236 46.4764 27.9028 46.8239 28.4845C47.0202 28.8673 47.2109 29.1664 47.4821 29.4723C48.6555 30.8348 50.4653 31.5729 52.1251 30.6221C53.5138 29.8181 54.2838 28.291 54.8017 26.8202C55.1451 25.6677 55.1941 24.4645 55.2486 23.2708C55.2159 21.0138 54.7281 18.7994 54.3002 16.5932C54.1789 16.1198 54.1339 15.6191 53.9077 15.1828C53.7959 14.9564 53.5833 14.7053 53.7291 14.4487C53.8722 14.1688 54.3329 14.2923 54.3015 14.6147C54.6381 15.1581 54.7553 15.7823 54.8848 16.3984C55.0783 17.3162 55.2473 18.2396 55.4163 19.1616C55.6152 20.3951 55.8088 21.634 55.8646 22.8839C55.8333 24.1297 55.7979 25.3947 55.4912 26.6076C55.0797 28.2211 54.1121 30.0239 52.7002 30.9829C52.7806 31.1846 52.6103 31.4522 52.6062 31.6717C52.5885 31.9008 52.5967 32.1313 52.6089 32.3604C52.6321 32.4345 52.6512 32.5114 52.6634 32.5909C52.752 32.9038 52.9305 33.1768 53.1445 33.4183C53.1663 33.4402 53.1827 33.4635 53.1963 33.4869C53.2413 33.5335 53.2849 33.5788 53.3285 33.6241C53.6269 33.941 54.014 34.155 54.4269 34.284C54.927 34.3814 55.4817 34.0823 55.9191 33.9259C56.4724 33.6803 56.9807 33.3456 57.5122 33.0574C58.6433 32.4839 59.878 32.1272 61.1209 31.8981C62.3392 31.7183 63.5793 31.765 64.7977 31.5921C65.52 31.5016 66.294 31.3589 66.8855 30.9281C66.8882 30.9253 66.8896 30.9239 66.8909 30.9212C66.9005 30.913 66.91 30.9075 66.9209 30.9006C67.0899 30.773 67.2439 30.6221 67.3761 30.441C68.1924 29.3351 68.2278 27.8451 68.1338 26.5211C67.9866 25.6005 67.8162 24.6058 67.451 23.762C67.0654 22.9127 66.6592 22.0717 66.2068 21.2567C65.7925 20.5117 65.4082 19.7488 65.0457 18.9764C64.3452 17.6208 63.702 16.0965 63.6925 14.5475C63.7184 14.3815 63.8969 14.2745 64.055 14.3074C64.0877 14.3156 64.1163 14.328 64.1422 14.3417C64.2362 14.3691 64.3166 14.4432 64.3452 14.5722C64.3752 14.8562 64.502 15.1183 64.6887 15.3296C65.1329 15.6685 65.8375 15.807 66.2259 15.3158C66.279 15.2116 66.3117 15.0908 66.3117 14.9742C66.3172 14.9276 66.3322 14.885 66.354 14.8466C65.9124 14.3143 65.3564 13.845 64.9803 13.277C64.0291 12.0559 62.6295 10.8513 61.0119 11.5606C60.5226 11.7211 60.0552 11.9818 59.6436 12.2809C59.4964 12.3619 59.3247 12.5457 59.1517 12.6486C59.337 12.9025 59.4978 13.1755 59.6245 13.4677C59.7963 13.8176 59.9693 14.103 60.1083 14.4556C60.3305 15.1567 60.5472 15.8633 60.7039 16.5836C61.0732 17.7237 61.3744 18.8845 61.7478 20.0232C62.0857 21.0797 62.5177 22.1307 63.0206 23.1117C63.0819 23.2818 63.2087 23.4121 63.1719 23.5932C63.1215 23.8512 62.7344 23.9198 62.6104 23.681C62.1716 22.7865 61.7396 21.8851 61.4139 20.9411C60.9424 19.661 60.6276 18.3329 60.1983 17.0405C59.9939 16.2694 59.8017 15.486 59.555 14.7272C59.3166 14.1661 59.029 13.6228 58.7278 13.1069C58.5289 12.805 58.2781 12.5444 58.0015 12.3139C57.361 11.7788 56.6864 11.2807 55.9505 10.8897C54.7022 10.1817 52.7111 9.50122 51.4097 10.3574C51.0404 10.6551 50.7337 10.9446 50.3753 11.2423C49.9897 11.5785 49.7117 12.0093 49.3791 12.3948C49.3696 12.4044 49.3601 12.414 49.3519 12.425C49.2946 12.5032 49.2674 12.5512 49.2224 12.6253C49.2088 12.6514 49.1952 12.6788 49.1815 12.7063C49.0957 12.8832 49.0125 13.0616 48.939 13.2304C48.9321 13.2606 48.9226 13.2907 48.9131 13.3196C48.9689 13.4211 49.0248 13.5226 49.0766 13.6269C49.5318 14.6696 49.9065 15.7494 50.2309 16.8402C50.7351 18.7281 51.1153 20.6969 51.024 22.6589C50.9859 23.0774 51.0663 24.5948 50.423 24.3959C50.0782 24.2477 50.3045 23.9074 50.3399 23.6467C50.4326 22.8084 50.4653 21.9509 50.3944 21.136C50.2227 19.1712 49.788 17.238 49.1161 15.3886C48.9144 14.8466 48.7141 14.3005 48.4674 13.7778C47.9973 12.8778 47.369 12.0669 46.7149 11.2945C45.6737 10.1406 44.5821 9.01415 43.2698 8.17036C42.0474 7.3348 40.6968 6.86694 39.2237 7.26071C38.3569 7.48024 37.5706 7.97828 36.9069 8.57099C36.7025 8.75896 36.494 8.94418 36.3114 9.1541C36.2037 9.27072 36.0797 9.46692 35.938 9.58491C36.4463 10.1872 36.9015 10.8348 37.2408 11.5455C37.8663 12.8709 38.2493 14.2841 38.609 15.7C38.7344 16.3545 38.8993 16.9993 39.0465 17.6483C39.0969 17.983 39.1269 18.3206 39.2059 18.6512C39.4989 19.8325 39.5821 21.1016 39.488 22.3049C39.4785 22.7426 39.4512 23.1432 39.3886 23.5713C39.3681 23.7387 39.2168 23.8649 39.052 23.8471C38.8884 23.8306 38.7576 23.6756 38.778 23.5082C38.8203 23.2077 38.8557 22.9059 38.8652 22.6026C38.8911 21.8878 38.9457 21.1867 38.8843 20.4733C38.7876 19.4429 38.5327 18.5181 38.3937 17.5124C38.1866 16.8251 38.1007 16.1116 37.8936 15.4256C37.711 14.612 37.4561 13.8217 37.2013 13.0273C36.9056 12.3221 36.6235 11.5702 36.1969 10.9391C35.6273 10.131 34.9881 9.36676 34.2386 8.72603C34.1677 8.68075 34.1078 8.63136 34.0642 8.57922C33.9606 8.49553 33.857 8.41321 33.7494 8.335C32.3825 7.32383 31.0701 6.59117 29.3394 7.05903C28.6675 7.26894 27.9861 7.5214 27.3852 7.89596C27.3524 7.92477 27.3197 7.95358 27.2898 7.9824C27.1439 8.11411 27.054 8.32814 27.0663 8.51885C27.0622 8.82482 27.3034 9.05669 27.4615 9.27484C28.5926 9.98417 29.4866 11.0269 30.2593 12.1094C30.4351 12.3317 30.6259 12.5402 30.7553 12.7954C30.942 13.1727 31.0483 13.5844 31.2473 13.9562C31.3304 14.1963 31.5294 14.5201 31.3086 14.7368C31.1846 14.8466 30.9843 14.8343 30.8766 14.7067C30.7758 14.5818 30.7799 14.4117 30.7144 14.2704C30.461 13.8121 30.3669 13.2756 30.063 12.8448C29.5751 12.2494 29.1445 11.6073 28.6226 11.0393C28.136 10.6071 27.6891 10.1159 27.1235 9.7866C26.2322 9.33795 25.2701 8.90714 24.3584 8.5216C22.8866 7.91791 21.3276 7.4967 19.744 7.35813C18.9836 7.37047 18.2313 7.48847 17.49 7.65311C16.4883 8.01121 15.5058 8.46809 14.6513 9.11157L14.6527 9.10745Z" fill="#9EF1FF"/>
<path d="M20.5685 6.83126C21.4706 6.97121 22.3646 7.15369 23.2314 7.44593C23.7247 7.60783 24.2112 7.79168 24.6923 7.98788C24.7045 7.98788 24.7182 7.98925 24.7304 7.99199C24.9921 8.08117 25.2646 8.12233 25.5386 8.15389C25.7198 8.2074 25.8956 8.17996 26.066 8.09901C26.1436 8.06745 26.2145 8.02766 26.2826 7.98376C26.299 7.96455 26.3153 7.94534 26.329 7.92751C26.4966 7.76698 26.6778 7.62292 26.8686 7.4912C26.9327 7.43495 27.0063 7.38007 27.0826 7.34165C27.1058 7.32793 27.1289 7.31559 27.1535 7.30598C27.5228 7.08371 27.9193 6.90398 28.3241 6.75031C28.3459 6.71601 28.3745 6.68446 28.4099 6.66113C28.9755 6.02726 28.399 5.45787 28.4985 4.75677C28.4999 4.70738 28.5122 4.66347 28.5312 4.62506C28.5708 4.18738 28.7479 3.7744 29.1145 3.46707C29.3503 3.25166 29.586 3.0294 29.8899 2.91689C30.3465 2.77694 30.848 2.7495 31.3209 2.79204C32.1263 2.91415 32.9003 3.23383 33.7207 3.25441C34.8368 3.27636 35.9093 3.03488 37.0159 2.98412C37.8172 2.88671 38.6008 3.06507 39.379 3.23932C39.886 3.3724 40.3534 3.61799 40.8195 3.85535C41.1711 3.88142 41.2051 4.4069 40.8454 4.46727C40.705 4.48648 40.5878 4.42886 40.4651 4.36712C40.0985 4.17092 39.7224 3.99393 39.3272 3.86496C38.8039 3.74422 38.2751 3.62211 37.7396 3.57272C36.5185 3.58232 35.3165 3.81145 34.0982 3.87593C33.4618 3.89788 32.8349 3.7991 32.2271 3.6125C31.6793 3.49314 31.0756 3.31889 30.5209 3.41905C30.1325 3.41219 29.8 3.63995 29.5451 3.90337C29.0314 4.32321 29.0505 5.00236 29.3053 5.56626C29.3557 5.62251 29.4034 5.68288 29.4688 5.72679C29.8313 6.01628 30.2647 6.13976 30.6844 6.29343C30.8521 6.30029 31.0197 6.31676 31.1846 6.34557C32.4451 6.62272 33.5504 7.354 34.5438 8.17721C34.8682 8.33637 35.2089 8.47494 35.5823 8.46122C35.7908 8.44887 35.9775 8.33774 36.1751 8.27874C36.25 8.23347 36.3345 8.19779 36.4163 8.1827C37.1427 7.5159 37.9781 6.97395 38.9225 6.69132C40.1517 6.34831 41.5131 6.45533 42.6401 7.07548C44.3136 7.9426 45.7064 9.24053 46.9602 10.6345C47.3159 11.0324 47.662 11.4454 47.985 11.8748C48.049 11.8995 48.109 11.9407 48.154 11.9969C48.2248 12.034 48.3202 12.0504 48.3775 12.0669C48.5778 12.1218 48.7904 12.1039 48.9362 11.942C48.9812 11.8844 49.0316 11.8268 49.0861 11.7788C49.4173 11.3534 49.7566 10.9281 50.1818 10.5906C50.5307 10.3285 50.8196 9.98828 51.1916 9.76052C51.4137 9.63704 51.6086 9.55061 51.8199 9.47789C51.8308 9.39282 51.8716 9.30776 51.9098 9.23093C52.0488 8.93869 52.0815 8.61214 52.1115 8.29384C52.0365 7.56667 51.7994 6.79285 51.5105 6.13291C51.2584 5.64584 50.8264 5.29323 50.4421 4.91592C49.5822 3.89926 48.3734 3.3134 47.1932 2.75774C45.5115 1.88925 43.6322 1.44746 41.7829 1.17443C41.7911 1.1758 41.7993 1.17717 41.8088 1.17854C41.8116 1.17854 41.8143 1.17854 41.8184 1.17991C39.1323 0.750471 36.4054 0.466463 33.688 0.685986C31.4612 0.910998 29.3121 1.82751 27.0485 1.57643C25.9011 1.50645 24.7699 1.38572 23.6252 1.58878C22.9316 1.78223 22.2815 2.11838 21.6901 2.52861C21.0741 2.95394 20.6789 3.61525 20.2373 4.20659C19.9443 4.56606 19.7154 4.97629 19.6186 5.43317C19.5886 5.73228 19.5791 6.03412 19.5287 6.33185C19.5246 6.36478 19.5137 6.39633 19.5001 6.42515C19.4973 6.49375 19.4932 6.56372 19.4919 6.63232C19.496 6.66799 19.4946 6.70367 19.4919 6.73797C19.5409 6.73522 19.59 6.73248 19.6391 6.73111C19.9566 6.71876 20.2659 6.75855 20.5753 6.8244L20.5685 6.83126Z" fill="#4EC5D9"/>
<path d="M52.7044 8.10454C52.7139 8.13198 52.7207 8.16079 52.7248 8.18823C52.9074 8.73155 53.1091 9.21999 53.7114 9.37777C53.7796 9.39012 53.8327 9.41207 53.8763 9.44226C54.5768 9.57809 55.2609 9.83603 55.8933 10.1475C56.6769 10.5577 57.4237 11.0379 58.1078 11.6032C58.1514 11.6361 58.1923 11.6704 58.2359 11.7033C58.2659 11.6924 58.2986 11.6841 58.3367 11.6828C58.4471 11.6828 58.5548 11.7075 58.6652 11.6992C59.198 11.6361 59.6873 11.4564 60.1411 11.1737C60.5962 10.9295 61.1005 10.6345 61.2463 10.1008C61.2531 10.072 61.2654 10.0418 61.2626 10.013C61.2626 9.99381 61.2626 9.9746 61.2667 9.95539C60.8306 8.92089 60.1029 7.96185 58.9936 7.6504C57.5409 7.31014 56.899 8.00438 55.9614 8.95656C55.8292 9.05946 55.6275 9.01693 55.5335 8.88247C55.449 8.75762 55.4667 8.6506 55.5267 8.55182C55.5103 8.45029 55.5498 8.34327 55.618 8.26232C55.7379 7.9838 55.7161 7.65314 55.618 7.37051C55.5103 6.76682 55.2446 6.19057 54.8099 5.75564C54.8099 5.75564 54.8099 5.7529 54.8071 5.75152C54.1462 5.57042 53.4157 5.57042 52.7602 5.67469C52.5681 5.70487 52.3827 5.76662 52.2042 5.84619C52.162 5.87089 52.1156 5.89284 52.0679 5.90931C52.3364 6.44988 52.4877 7.05769 52.6267 7.64217C52.6662 7.79309 52.6907 7.94813 52.703 8.10317L52.7044 8.10454Z" fill="#4EC5D9"/>
<path d="M70.9615 20.1218C70.5895 18.8157 69.9544 17.4862 68.7279 16.807C68.3968 16.5916 68.0315 16.4256 67.6527 16.3021C67.6554 16.2335 67.65 16.1649 67.635 16.1045C67.4987 15.0673 66.7301 14.3045 66.0296 13.5979C65.1806 12.5455 64.3016 11.3203 62.9524 10.8909C62.684 10.7866 62.406 10.7372 62.1252 10.729C62.1089 10.1596 61.6156 9.24445 61.4575 8.97004C60.5267 7.29481 58.7919 6.54706 57.2587 7.15486C57.0093 6.6431 56.7123 6.13545 56.2489 5.79245C55.3754 5.10506 54.2293 4.89789 53.1431 5.01451C52.8842 5.02549 52.0802 5.1229 51.7504 5.38907C51.6577 5.26559 51.5568 5.14622 51.441 5.03646C50.9954 4.61662 50.5852 4.16111 50.1273 3.75362C49.7253 3.40925 49.2606 3.13759 48.7945 2.87828C47.6634 2.27459 46.4982 1.72166 45.2839 1.30731C44.255 0.990376 43.1934 0.780457 42.1305 0.613071C40.228 0.304366 38.2547 0.0395666 36.3168 0.00389405C34.9527 -0.0180583 33.5817 0.0148702 32.2394 0.278298C31.1042 0.506053 29.9812 0.81613 28.8297 0.953332C27.9194 1.04388 27.0008 0.978028 26.0932 0.897079C25.2251 0.813386 24.3407 0.85729 23.4794 0.99312C22.659 1.21127 21.8986 1.62151 21.2104 2.11406C20.7824 2.42139 20.4745 2.85769 20.1515 3.26656C19.9852 3.51352 19.7999 3.74676 19.6268 3.98824C19.4197 3.85927 19.2003 3.75088 18.9659 3.68365C18.4902 3.56566 17.9983 3.41885 17.5022 3.43257C16.8549 3.46962 16.2008 3.62877 15.6338 3.95119C14.9783 4.32576 14.3515 4.75245 13.8786 5.35203C13.2067 6.04627 12.6889 6.85576 12.1097 7.62409C11.5441 8.31559 10.8832 8.86302 10.1146 9.33226C8.81993 10.0004 7.46668 10.6659 6.50319 11.7978C4.94826 13.6404 5.04774 15.7272 5.95399 17.8196C5.48519 17.9156 5.02185 18.0295 4.58303 18.2298C3.29929 18.7114 2.4162 19.6251 1.82476 20.8531C1.57537 21.4568 1.45544 22.1112 1.33688 22.752C1.17743 24.6605 1.53039 26.6087 1.0834 28.4953C0.723626 30.0004 0.0899311 31.4314 0.00271289 33.0023C-0.0204544 33.9902 0.096745 34.9177 0.414274 35.8534C0.501492 36.1539 0.711361 36.3871 0.899425 36.6272C1.06296 36.9318 1.32461 37.15 1.54266 37.4093C1.50723 37.5135 1.47316 37.6178 1.44318 37.7221C0.678654 39.798 2.42166 41.1604 4.25187 41.5596C3.50371 44.8909 5.41297 49.4556 9.14427 49.5379C9.38412 49.5503 9.62124 49.5407 9.85428 49.5118C9.88426 49.7547 10.1514 50.0222 10.2849 50.2088C10.9213 51.0883 12.0266 51.3819 12.7638 52.1393C13.576 53.0571 14.0857 54.2138 14.4496 55.3759C15.0097 56.7163 15.4894 58.1748 16.4965 59.2518C17.6698 60.4386 19.3924 60.9572 21.025 60.9984C22.3415 60.9915 23.6716 60.6554 24.849 60.0641C25.7294 59.5811 26.5416 58.976 27.3047 58.3257C28.1578 57.5862 28.8978 56.7424 29.8204 56.0728C30.9706 55.3018 32.1917 54.587 33.5449 54.2522C35.3179 53.8913 37.2176 54.0121 38.8857 53.2259C39.8464 52.7347 41.0825 51.3627 41.1261 50.1704C42.08 50.368 43.0517 50.4435 44.037 50.486C47.9209 50.5642 51.8308 49.1373 54.6831 46.4673C55.3113 45.8156 55.9477 45.1639 56.4588 44.4134C56.7422 44.0197 57.0189 43.6053 57.1933 43.1498C57.2492 43.1704 57.3092 43.1882 57.3718 43.2033C57.3909 43.2129 57.4114 43.2198 57.4332 43.2239C58.0614 43.3638 58.7006 43.442 59.3411 43.4818C59.3915 43.4887 59.4419 43.4955 59.4923 43.4983C59.5564 43.5175 59.6232 43.5148 59.6845 43.4983C59.8344 43.5038 59.9829 43.5093 60.1328 43.512C61.3784 43.5079 62.7358 43.239 63.7224 42.3979C64.5728 41.6831 65.2814 40.6596 65.2678 39.5002C65.2719 39.3438 65.2501 39.1888 65.2092 39.0351C65.3509 38.9843 65.4968 38.9048 65.614 38.8677C65.9928 38.7182 66.3853 38.5769 66.6701 38.2695C66.9658 38.0226 67.2302 37.7358 67.4524 37.4202C67.4973 37.3722 67.5368 37.3201 67.56 37.2583C68.0125 36.5504 68.2564 35.7148 68.1774 34.8628C68.1569 34.576 68.1338 34.3154 68.0983 34.0725C68.2891 34.0602 68.5153 34.0533 68.7007 34.008C69.5061 33.8708 70.2011 33.4167 70.8307 32.9063C72.5601 31.2708 71.9223 28.6654 71.6784 26.5689C71.3649 24.4245 71.5952 22.2128 70.9574 20.1191L70.9615 20.1218ZM52.2042 5.84595C52.3813 5.765 52.5667 5.70326 52.7602 5.67445C53.4157 5.57018 54.1461 5.57018 54.8071 5.75128C54.8071 5.75128 54.8071 5.75403 54.8098 5.7554C55.2445 6.19033 55.5103 6.76658 55.6179 7.37027C55.7161 7.6529 55.7392 7.98356 55.6179 8.26208C55.5512 8.34303 55.5116 8.45005 55.5266 8.55158C55.4653 8.64899 55.4476 8.75738 55.5334 8.88223C55.6275 9.01532 55.8278 9.05785 55.9614 8.95632C56.899 8.00414 57.5395 7.3099 58.9936 7.65016C60.1029 7.96161 60.8306 8.91928 61.2667 9.95515C61.264 9.97436 61.2626 9.99357 61.2626 10.0128C61.2653 10.0416 61.2531 10.0718 61.2462 10.1006C61.0991 10.6343 60.5948 10.9293 60.141 11.1735C59.6872 11.4575 59.198 11.6372 58.6651 11.699C58.5547 11.7086 58.4471 11.6825 58.3367 11.6825C58.2985 11.6839 58.2658 11.6921 58.2358 11.7031C58.1936 11.6702 58.1514 11.6345 58.1077 11.6029C57.4236 11.039 56.6768 10.5588 55.8932 10.1472C55.2623 9.83579 54.5781 9.57785 53.8763 9.44202C53.8341 9.41183 53.7795 9.38988 53.7114 9.37753C53.1091 9.21975 52.9074 8.73131 52.7248 8.18799C52.7207 8.15918 52.7125 8.13174 52.7043 8.1043C52.692 7.94926 52.6675 7.79422 52.628 7.6433C52.489 7.05745 52.3377 6.45101 52.0692 5.91044C52.1169 5.89397 52.1633 5.87202 52.2055 5.84733L52.2042 5.84595ZM19.4851 6.63898C19.4851 6.57038 19.4905 6.50041 19.4933 6.43181C19.5069 6.40299 19.5178 6.37144 19.5219 6.33851C19.5723 6.04078 19.5818 5.73894 19.6118 5.43984C19.7086 4.98158 19.9375 4.57135 20.2305 4.21325C20.6721 3.62191 21.0673 2.9606 21.6833 2.53527C22.2747 2.12504 22.9247 1.78889 23.6184 1.59544C24.7631 1.39238 25.8956 1.51174 27.0417 1.58309C29.3067 1.83417 31.4544 0.917659 33.6812 0.692648C36.4 0.473125 39.1269 0.757133 41.8116 1.18657C41.8088 1.18657 41.8061 1.18657 41.802 1.1852C41.7939 1.18383 41.7843 1.18246 41.7761 1.18109C43.6254 1.45275 45.5047 1.89591 47.1864 2.7644C48.3652 3.32007 49.574 3.90729 50.4353 4.92258C50.8196 5.29989 51.2516 5.6525 51.5037 6.13957C51.794 6.80088 52.0297 7.57333 52.1047 8.3005C52.0747 8.6188 52.042 8.94672 51.903 9.23759C51.8648 9.31442 51.824 9.39948 51.813 9.48455C51.6018 9.55589 51.4069 9.64371 51.1848 9.76719C50.8114 9.99494 50.5225 10.3352 50.175 10.5973C49.7498 10.9348 49.4105 11.3601 49.0793 11.7854C49.0234 11.8334 48.973 11.8911 48.9294 11.9487C48.7822 12.1106 48.571 12.1284 48.3707 12.0736C48.3134 12.0571 48.2167 12.0406 48.1472 12.0036C48.1022 11.9473 48.0422 11.9048 47.9782 11.8815C47.6552 11.452 47.3104 11.039 46.9534 10.6412C45.6996 9.24582 44.3068 7.94926 42.6333 7.08214C41.5063 6.46336 40.1449 6.35497 38.9157 6.69798C37.9726 6.98061 37.1359 7.52119 36.4095 8.18936C36.3277 8.20446 36.2432 8.23876 36.1683 8.2854C35.9707 8.3444 35.784 8.45553 35.5755 8.46788C35.2021 8.4816 34.8614 8.34303 34.537 8.18388C33.5449 7.36066 32.4383 6.62938 31.1778 6.35223C31.0115 6.32342 30.8439 6.30695 30.6776 6.30009C30.2579 6.14643 29.8259 6.02294 29.462 5.73345C29.398 5.68954 29.3489 5.62917 29.2985 5.57292C29.045 5.00902 29.0246 4.32987 29.5383 3.91003C29.7932 3.64661 30.1257 3.41885 30.5141 3.42571C31.0674 3.32418 31.6711 3.49843 32.2203 3.61917C32.8281 3.80576 33.455 3.90455 34.0914 3.88259C35.3097 3.81811 36.5117 3.58898 37.7328 3.57938C38.2683 3.6274 38.7971 3.74951 39.3204 3.87162C39.7156 3.99922 40.0931 4.17758 40.4583 4.37378C40.5796 4.43552 40.6968 4.49451 40.8385 4.47393C41.1983 4.41357 41.1643 3.88808 40.8127 3.86201C40.3466 3.62603 39.8791 3.37906 39.3722 3.24598C38.594 3.07173 37.8104 2.89337 37.0091 2.99078C35.9025 3.04155 34.83 3.28302 33.7139 3.26107C32.8949 3.23912 32.1208 2.92081 31.314 2.7987C30.8412 2.75754 30.3397 2.78498 29.8831 2.92355C29.5792 3.03606 29.3448 3.25832 29.1077 3.47373C28.7411 3.78106 28.5639 4.19404 28.5244 4.63172C28.5053 4.66876 28.4944 4.71267 28.4917 4.76343C28.3936 5.46453 28.9687 6.03392 28.4031 6.66779C28.3677 6.69112 28.3391 6.72267 28.3173 6.75697C27.9125 6.91064 27.516 7.09038 27.1467 7.31264C27.1235 7.32225 27.1003 7.3346 27.0758 7.34832C26.9995 7.38673 26.9259 7.44161 26.8618 7.49787C26.6724 7.62958 26.4912 7.77364 26.3222 7.93417C26.3085 7.952 26.2922 7.97121 26.2758 7.99042C26.2077 8.0357 26.1368 8.07549 26.0592 8.10567C25.8902 8.18662 25.713 8.21406 25.5318 8.16055C25.2578 8.13037 24.9853 8.08783 24.7236 7.99865C24.7114 7.99591 24.6977 7.99454 24.6855 7.99454C24.2044 7.79697 23.7192 7.61311 23.2246 7.45259C22.3578 7.16035 21.4638 6.97787 20.5617 6.83792C20.251 6.77207 19.9416 6.73228 19.6254 6.74463C19.5764 6.746 19.5273 6.74874 19.4783 6.75149C19.4824 6.71581 19.4824 6.68014 19.4783 6.64584L19.4851 6.63898ZM19.7454 7.35243C21.3289 7.49101 22.888 7.91222 24.3598 8.5159C25.2715 8.90144 26.2336 9.33363 27.1248 9.78091C27.6904 10.1102 28.1374 10.6014 28.6239 11.0336C29.1445 11.6016 29.5765 12.2437 30.0644 12.8391C30.3669 13.27 30.4623 13.805 30.7158 14.2647C30.7812 14.406 30.7771 14.5761 30.878 14.701C30.9856 14.8299 31.1859 14.8409 31.31 14.7312C31.5294 14.5157 31.3318 14.1906 31.2486 13.9505C31.0497 13.5787 30.9434 13.1671 30.7567 12.7897C30.6272 12.5345 30.4364 12.326 30.2606 12.1037C29.4879 11.0226 28.5953 9.97985 27.4628 9.26914C27.3047 9.05099 27.0635 8.82049 27.0676 8.51316C27.0553 8.32245 27.1453 8.10841 27.2911 7.9767C27.3197 7.94652 27.3524 7.91908 27.3865 7.89026C27.9875 7.5157 28.6689 7.26462 29.3407 7.05333C31.0728 6.58547 32.3838 7.31813 33.7507 8.32931C33.8584 8.40751 33.9619 8.48984 34.0655 8.57353C34.1091 8.62704 34.1691 8.67643 34.2399 8.72034C34.9895 9.36244 35.6286 10.1253 36.1983 10.9334C36.6248 11.5645 36.9069 12.3164 37.2026 13.0216C37.4575 13.8146 37.7123 14.6049 37.8949 15.4199C38.1021 16.1059 38.1866 16.8194 38.3951 17.5067C38.5341 18.5111 38.7889 19.4372 38.8857 20.4676C38.947 21.1796 38.8925 21.8821 38.8666 22.5969C38.8571 22.9002 38.8216 23.202 38.7794 23.5025C38.7589 23.6685 38.8898 23.8235 39.0533 23.8414C39.2196 23.8592 39.3708 23.7343 39.3899 23.5656C39.4526 23.1375 39.4798 22.7369 39.4894 22.2992C39.5834 21.096 39.4989 19.8268 39.2073 18.6455C39.1283 18.3162 39.0983 17.9774 39.0478 17.6426C38.9007 16.9936 38.7344 16.3488 38.6104 15.6943C38.252 14.277 37.869 12.8638 37.2422 11.5398C36.9028 10.8291 36.4463 10.1815 35.9393 9.57922C36.0824 9.46123 36.2051 9.26365 36.3127 9.14841C36.4953 8.93986 36.7039 8.75326 36.9083 8.5653C37.5719 7.97258 38.3596 7.47591 39.225 7.25502C40.6995 6.86125 42.0487 7.32911 43.2711 8.16467C44.5835 9.00983 45.6751 10.1349 46.7162 11.2888C47.369 12.0612 47.9986 12.8707 48.4688 13.7721C48.7154 14.2949 48.9158 14.8409 49.1175 15.3829C49.7893 17.2337 50.224 19.1669 50.3957 21.1303C50.4666 21.9452 50.4339 22.8014 50.3412 23.641C50.3044 23.9031 50.0796 24.242 50.4244 24.3902C51.0676 24.5891 50.9858 23.0717 51.0254 22.6532C51.1167 20.6912 50.7365 18.7224 50.2322 16.8345C49.9092 15.7423 49.5345 14.6639 49.0779 13.6212C49.0262 13.5169 48.9703 13.4154 48.9144 13.3139C48.9253 13.285 48.9335 13.2549 48.9403 13.2247C49.0139 13.0545 49.097 12.8776 49.1829 12.7006C49.1965 12.6731 49.2101 12.6457 49.2238 12.6196C49.2687 12.5469 49.296 12.4975 49.3532 12.4193C49.3628 12.4097 49.3709 12.3987 49.3805 12.3891C49.7116 12.0036 49.9896 11.5714 50.3767 11.2366C50.7351 10.9375 51.0417 10.6494 51.411 10.3517C52.7125 9.49553 54.7035 10.1774 55.9518 10.884C56.6891 11.275 57.3637 11.7731 58.0028 12.3082C58.2795 12.5387 58.5302 12.7993 58.7292 13.1012C59.0304 13.6171 59.3193 14.1604 59.5564 14.7215C59.8031 15.4789 59.9952 16.2637 60.1996 17.0348C60.6289 18.3272 60.9451 19.6553 61.4152 20.9354C61.7396 21.8807 62.1729 22.7808 62.6118 23.6753C62.7358 23.9141 63.1228 23.8469 63.1732 23.5875C63.21 23.4064 63.0833 23.2775 63.0219 23.106C62.5191 22.125 62.0871 21.074 61.7491 20.0175C61.3757 18.8788 61.0745 17.7167 60.7052 16.5779C60.5471 15.8576 60.3304 15.1524 60.1097 14.4499C59.9707 14.0987 59.7976 13.8119 59.6259 13.462C59.4991 13.1698 59.3383 12.8968 59.153 12.6429C59.3261 12.54 59.4992 12.3562 59.645 12.2752C60.0565 11.9761 60.524 11.7155 61.0132 11.5549C62.6308 10.8456 64.0304 12.0502 64.9816 13.2713C65.3578 13.8393 65.9138 14.3086 66.3553 14.8409C66.3335 14.8793 66.3185 14.9219 66.3131 14.9685C66.3131 15.0851 66.2804 15.2059 66.2272 15.3101C65.8375 15.8013 65.1343 15.6628 64.69 15.3239C64.5033 15.1112 64.3766 14.8505 64.3466 14.5665C64.318 14.4375 64.2375 14.3635 64.1435 14.336C64.1176 14.3223 64.089 14.3099 64.0563 14.3017C63.8982 14.2702 63.7197 14.3758 63.6938 14.5418C63.7033 16.0908 64.3466 17.6151 65.047 18.9707C65.4082 19.7431 65.7925 20.506 66.2081 21.251C66.6619 22.066 67.0667 22.907 67.4524 23.7563C67.8176 24.6001 67.9879 25.5948 68.1351 26.5154C68.2291 27.8394 68.1937 29.3294 67.3774 30.4353C67.2452 30.6178 67.0912 30.7673 66.9222 30.8949C66.9127 30.9018 66.9032 30.9073 66.8923 30.9155C66.8895 30.9182 66.8882 30.9196 66.8868 30.9224C66.2954 31.3518 65.5213 31.4959 64.799 31.5864C63.5807 31.7593 62.3406 31.714 61.1222 31.8924C59.878 32.1229 58.6447 32.4782 57.5136 33.0517C56.9821 33.3399 56.4738 33.6746 55.9205 33.9202C55.483 34.0766 54.9284 34.3757 54.4282 34.2783C54.0153 34.1493 53.6296 33.9353 53.3298 33.6184C53.2862 33.5731 53.2412 33.5278 53.1976 33.4812C53.184 33.4578 53.1677 33.4345 53.1459 33.4126C52.9319 33.1711 52.7534 32.8994 52.6648 32.5852C52.6525 32.5057 52.6321 32.4288 52.6103 32.3547C52.5966 32.1256 52.5898 31.8951 52.6076 31.666C52.6116 31.4478 52.7806 31.1803 52.7016 30.9772C54.1134 30.0182 55.0796 28.2167 55.4926 26.6019C55.7992 25.389 55.8346 24.124 55.866 22.8782C55.8115 21.6283 55.6166 20.3894 55.4176 19.1559C55.2486 18.2339 55.081 17.3106 54.8861 16.3927C54.7553 15.7753 54.6381 15.1524 54.3029 14.609C54.3342 14.2866 53.8736 14.1631 53.7305 14.443C53.586 14.6996 53.7973 14.9507 53.909 15.1771C54.1366 15.6147 54.1816 16.1155 54.3015 16.5875C54.728 18.7937 55.2159 21.0081 55.25 23.2651C55.1968 24.4588 55.1464 25.6634 54.803 26.8145C54.2851 28.284 53.5152 29.811 52.1265 30.6164C50.468 31.5658 48.6568 30.8291 47.4835 29.4666C47.2136 29.1607 47.0215 28.8616 46.8253 28.4788C46.4791 27.8971 46.1684 27.2179 45.9572 26.5429C45.9544 26.4921 45.9394 26.4427 45.9067 26.3974C45.7827 26.0489 45.6355 25.7101 45.4965 25.367C45.3753 25.0762 45.2867 24.7894 45.1667 24.4958C45.2499 24.2228 45.318 23.947 45.3712 23.6712C45.686 22.1181 45.6342 20.5101 45.5633 18.9336C45.4679 17.7345 45.2894 16.5477 45.0073 15.3787C44.747 14.609 44.4458 13.838 44.0302 13.1382C44.0493 12.8954 43.7508 12.7266 43.5505 12.8611C43.1648 13.1314 43.5927 13.5334 43.7195 13.8297C43.9839 14.4197 44.2673 15.011 44.4404 15.6367C44.9119 17.6494 45.0782 19.7102 44.9719 21.7861C44.9214 23.331 44.6094 24.928 43.6309 26.1711C42.9209 26.9627 41.9465 27.4704 40.9762 27.8655C40.0754 28.1756 39.0996 28.3855 38.147 28.2373C36.3032 27.8682 34.6379 26.6101 33.812 24.9019C33.2901 23.6973 33.0502 22.3857 32.6155 21.1467C32.5951 21.0726 32.5746 20.9944 32.5392 20.9286C32.5351 20.9176 32.531 20.9052 32.5269 20.8943C32.3988 20.5074 31.8346 20.6775 31.9382 21.0671C31.9668 21.1495 31.9954 21.2304 32.0241 21.3114C32.0745 21.4952 32.144 21.6736 32.1876 21.8602C32.5106 23.1224 32.4683 24.3751 31.3672 25.2381C31.2623 25.3561 31.0674 25.4521 30.9379 25.5742C30.8602 25.6113 30.7826 25.6469 30.7049 25.684C28.9469 26.4208 25.3192 25.9776 23.692 24.987C22.9288 24.5644 22.1779 24.0966 21.4625 23.5903C21.0605 23.2665 20.6625 22.9358 20.2373 22.6422C18.8527 21.6626 17.1425 21.0822 15.4431 21.1453C15.1937 21.0136 14.9593 20.731 15.0465 20.4319C15.0697 20.3345 15.146 20.2645 15.1909 20.1794C15.3081 20.0326 15.4199 19.8858 15.5262 19.7418C17.738 16.523 18.9931 14.8382 23.1278 16.4105C23.5598 16.5985 23.9904 16.8235 24.3448 17.1418C24.5533 17.3558 24.7304 17.5959 24.9035 17.8388C25.0016 17.9746 25.1856 18.0213 25.3287 17.9252C25.4636 17.8347 25.5127 17.6343 25.4146 17.4971C25.1038 17.0526 24.7672 16.6108 24.293 16.3309C22.9193 15.4762 20.7293 14.8848 19.1553 15.3842C17.073 15.9509 16.025 18.1283 14.7085 19.8021C14.6813 19.8296 14.6567 19.8611 14.6336 19.8954C13.884 20.8298 13.0432 21.5912 11.8739 21.7971C11.1816 21.9054 10.4757 21.5734 10.0355 21.0383C9.68257 20.5526 9.64169 19.9297 9.50404 19.3617C9.40184 17.563 9.98783 15.8247 10.6147 14.1659C11.4733 12.1559 12.9369 10.4271 14.654 9.10176C15.5085 8.45828 16.491 8.0014 17.4927 7.6433C18.234 7.47866 18.9863 7.35929 19.7467 7.34832L19.7454 7.35243ZM5.94173 14.4554C6.14887 12.8323 7.33313 11.5879 8.69183 10.7976C9.49859 10.3023 10.3994 9.96613 11.1489 9.37891C12.0743 8.71073 12.7952 7.81892 13.4125 6.86262C13.8432 6.28637 14.3338 5.75128 14.8312 5.23266C15.1773 4.94042 15.5725 4.71129 15.9582 4.47531C16.4597 4.20227 17.0321 4.07056 17.6003 4.04998C17.8061 4.06507 18.0092 4.09526 18.2109 4.13505C18.3049 4.24755 18.4262 4.35457 18.493 4.45884C18.7233 4.71129 18.7914 5.07351 18.7914 5.40828C18.7669 5.96944 18.5897 6.62938 18.061 6.90241C17.7871 6.95043 17.5145 7.00805 17.2447 7.07666C16.1953 7.46494 15.1555 7.93828 14.2643 8.62704C12.4599 10.0183 10.9241 11.8472 10.0328 13.9656C9.76297 14.6955 9.49178 15.446 9.27919 16.2102C9.11156 16.3899 8.9453 16.5738 8.76814 16.7439C8.60324 16.8921 8.42608 17.0265 8.23802 17.1432C8.17942 17.1445 8.11946 17.1555 8.06222 17.1747C7.88915 17.2214 7.71062 17.2378 7.5321 17.2461C7.15052 17.2557 6.73896 17.1871 6.44187 16.9346C6.40235 16.8921 6.35329 16.8523 6.33421 16.796C6.30423 16.7151 6.2429 16.6547 6.16931 16.6232C5.94445 15.9248 5.8327 15.1853 5.939 14.4554H5.94173ZM8.8867 18.1886C8.84855 18.2518 8.83083 18.3217 8.83492 18.3903C8.82538 18.319 8.84855 18.2476 8.8867 18.1886ZM39.7715 51.6536C39.7497 51.67 39.7306 51.6906 39.7115 51.7153C39.6884 51.7469 39.6734 51.7839 39.6652 51.8223C39.5902 51.9074 39.5166 51.9856 39.4471 52.0542C38.9048 52.614 38.1811 52.9103 37.4302 53.064C36.4858 53.3041 35.4215 53.3617 34.4389 53.4825C32.486 53.6732 30.7158 54.6679 29.1527 55.808C28.335 56.4694 27.6195 57.2446 26.8237 57.9319C25.2674 59.2518 23.801 60.1176 21.7405 60.3522C20.206 60.4853 18.5543 60.1162 17.3114 59.164C16.6423 58.6618 16.2662 57.9155 15.8819 57.1924C15.4253 56.2361 15.0547 55.2428 14.7126 54.2426C14.2997 53.3192 13.8554 52.3862 13.1468 51.6522C12.7284 51.209 12.1765 50.9415 11.6668 50.6232C11.5237 50.5313 11.3861 50.4284 11.2539 50.3186C11.2539 50.3035 11.2539 50.2898 11.2511 50.2747C11.2443 50.036 11.2443 49.8274 11.3043 49.5887C11.3983 49.1469 11.7881 48.8917 12.0783 48.5652C12.2909 48.3566 12.4763 48.1247 12.6534 47.8874C13.0691 47.425 13.437 46.9256 13.7655 46.4001C14.0857 45.9405 14.3651 45.4507 14.575 44.9279C14.6417 44.8607 14.7058 44.7921 14.7739 44.7455C15.0492 44.5863 15.3899 44.6 15.6965 44.6192C15.8383 44.6069 15.965 44.6755 16.1013 44.6919C16.472 45.0006 16.8399 45.3107 17.2338 45.5865C18.3172 46.2862 19.5764 46.7349 20.8588 46.8529C21.8645 46.9681 22.8852 46.8158 23.8664 46.5963C24.4647 46.466 25.0493 46.2862 25.619 46.0695C25.6231 46.0695 25.6258 46.0722 25.6285 46.0722C27.3674 46.053 27.2148 46.9105 28.29 47.5197C28.3418 47.5526 28.3936 47.5842 28.4481 47.613C29.8954 48.3772 31.5757 47.8435 33.1265 47.8448C34.1841 47.8462 35.1884 48.1632 36.2024 48.4485C36.9955 48.6804 37.7355 49.0481 38.5 49.3554C38.6295 49.4048 38.7617 49.4529 38.8925 49.5009C39.0097 49.6847 39.2795 49.8411 39.3872 50.014C39.7088 50.4887 39.995 51.076 39.7715 51.6536ZM56.7027 42.7011C56.501 43.4009 56.02 43.9675 55.6043 44.5506C53.7782 46.8735 51.1903 48.4993 48.3775 49.3266C45.9149 49.9907 43.3229 50.0428 40.829 49.4762C39.4717 49.1291 38.1988 48.5418 36.9001 48.0287C35.9884 47.7227 35.0549 47.473 34.1091 47.3015C32.4629 46.9846 30.3737 47.8133 28.8597 47.1287C28.8406 47.1136 28.8188 47.0985 28.7943 47.0875C28.752 47.071 28.7111 47.0504 28.6716 47.0312C28.0747 46.6677 27.5882 45.9432 27.7476 45.2243C27.7626 45.1461 27.8062 45.072 27.8376 44.9979C28.3486 44.6769 28.8692 44.3723 29.368 44.032C29.9254 43.5902 30.5264 43.2541 31.1982 42.9412C31.8319 42.6353 32.4969 42.3389 33.2138 42.3609C34.8232 42.4953 35.4188 44.3489 36.7829 44.9773C37.557 45.3615 38.4946 45.2106 39.2482 44.8456C40.0658 44.4587 40.7786 43.7946 41.7298 43.7727C43.8789 43.523 44.6448 45.9528 46.1343 45.64C46.4723 45.5467 47.2123 45.4411 47.29 45.0391C47.3186 44.8374 47.1332 44.6522 46.9343 44.6878C46.7857 44.7208 46.7026 44.8511 46.5527 44.884C46.1847 45.0103 45.7487 45.1708 45.408 44.8977C44.8588 44.5698 44.4349 44.0773 43.9034 43.7274C43.0367 43.1608 41.9642 43.0016 40.9694 43.2719C40.0372 43.5367 39.3163 44.2886 38.3665 44.5122C37.1508 44.8744 36.3632 43.9744 35.6082 43.1676C34.1037 41.2921 32.5569 41.4993 30.6081 42.5502C29.8749 42.8672 29.2944 43.3529 28.6225 43.7878C27.6563 44.4038 26.6765 45.0075 25.6081 45.4273C22.9479 46.4564 20.2346 46.7184 17.7094 45.1667C17.0825 44.7413 16.5156 44.2323 15.9228 43.7576C15.92 43.748 15.9187 43.7384 15.9146 43.7274C15.6379 43.2458 15.5862 42.6888 15.6093 42.1414C15.6216 41.8807 15.6379 41.6186 15.6843 41.3607C15.6924 41.3278 15.6952 41.2962 15.6952 41.2633C15.6979 41.2413 15.702 41.2194 15.7047 41.1974C15.7183 40.7762 15.1555 40.7611 15.0915 41.1343C15.0819 41.1659 15.0778 41.1988 15.0792 41.2317C14.868 42.3842 14.5232 43.5312 14.0339 44.6083C13.9794 44.6769 13.9385 44.7551 13.9304 44.8346C13.7137 45.2874 13.4697 45.7264 13.1999 46.1477C12.8674 46.5661 12.5703 46.9915 12.2501 47.4127C12.0947 47.5897 11.9366 47.7625 11.769 47.9285C10.8314 48.8986 9.38957 49.1469 8.12218 48.7682C5.79727 47.9779 4.6975 45.2874 4.70159 42.9728C4.72067 42.2552 4.82833 41.5308 5.11861 40.8709C5.22218 40.5759 5.49337 40.2411 5.55878 39.9036C5.72641 39.5716 5.25488 39.245 5.02594 39.588C4.42222 40.1341 3.53232 40.1766 2.81277 39.8446C2.69966 39.7938 2.5702 39.7252 2.44755 39.6676C2.25131 39.5633 2.12457 39.3822 1.96512 39.2299C1.9624 39.2286 1.95967 39.2272 1.95831 39.2258C1.73209 38.6125 2.01282 37.9444 2.22269 37.3599C2.36033 37.0265 2.64379 36.7932 2.83185 36.4928C3.02401 36.1895 3.22706 35.8863 3.39468 35.5666C3.45737 35.4871 3.50234 35.3979 3.52551 35.2977C3.5882 35.1537 3.64271 35.0055 3.68223 34.8518C4.02156 33.7089 3.66315 32.5743 3.82396 31.4081C3.98613 30.3996 4.40587 29.4612 4.69205 28.487C5.22354 27.1205 5.48792 25.6415 5.28623 24.1775C5.17993 23.7536 5.02457 21.8917 4.33092 22.2361C4.09107 22.3953 4.2069 22.6546 4.34591 22.8357C4.71658 23.8894 4.80789 25.0446 4.68797 26.1546C4.55986 27.0588 4.23961 27.9094 3.9616 28.7724C3.27203 30.7001 3.02946 31.4972 3.23796 33.5704C3.22297 33.9669 3.17664 34.3648 3.07579 34.7489C3.03218 34.8998 2.97086 35.0425 2.90136 35.1811C2.4421 35.627 1.68166 35.5282 1.18697 35.1811C1.05478 35.0947 0.951211 34.9849 0.842188 34.8669C0.812207 34.8326 0.782225 34.7983 0.749519 34.7695C0.641859 34.2426 0.632319 33.6952 0.611877 33.156C0.690919 31.1501 1.75525 29.3061 1.88881 27.2989C2.0319 25.791 1.81522 24.2681 1.95558 22.763C2.10685 22.0934 2.19134 21.3786 2.56202 20.7872C3.34971 19.2698 4.86922 18.6002 6.48412 18.3533C6.88886 18.2792 7.2977 18.1928 7.69018 18.0652C7.8101 18.1146 7.96546 18.1132 8.09629 18.0761C8.35658 18.0748 8.67138 18.1365 8.82402 18.3807C8.84173 18.4383 8.85809 18.496 8.88943 18.5467C8.8758 18.9268 8.88943 19.3096 8.94122 19.6924C9.09112 20.5279 9.29281 21.1618 9.73027 21.6324C9.76979 21.8698 9.98511 22.0536 10.0192 22.2978C10.0614 22.4954 10.0573 22.7149 9.97557 22.9029C9.9524 22.977 9.90198 23.0305 9.85973 23.0909C8.63186 24.2804 7.73924 26.1025 7.21729 27.683C6.84253 29.2485 6.56997 30.8524 6.54135 32.4659C6.49911 33.1135 6.43233 33.7597 6.47594 34.4087C6.53045 35.1701 6.67082 35.8795 6.66128 36.6629C6.65583 37.0031 6.59995 37.3352 6.5359 37.6672C6.50728 37.8332 6.6054 37.9979 6.77303 38.0322C6.93111 38.0665 7.10691 37.9594 7.13553 37.7934C7.3563 36.8536 7.26908 35.8849 7.13961 34.9383C7.0156 34.0931 7.10827 33.1944 7.16006 32.3383C7.19004 30.8181 7.46259 29.3089 7.81147 27.8326C8.33341 26.2932 9.07886 24.8141 10.1868 23.6122C10.2154 23.5821 10.2468 23.556 10.2767 23.5272C10.3163 23.5011 10.3517 23.4682 10.3844 23.4284C11.2552 22.6779 12.4381 22.435 13.4997 22.0591C14.4714 21.8451 15.4771 21.6859 16.472 21.808C17.4859 21.9754 18.4753 22.2773 19.3611 22.811C20.2823 23.368 21.0509 24.135 21.9749 24.6893C22.3578 24.9623 22.768 25.1763 23.1782 25.4096C23.7111 25.7306 24.2685 26.027 24.8749 26.1765C26.5552 26.6197 28.3445 26.8488 30.0698 26.5388C31.0197 26.3261 31.8851 25.8377 32.7 25.319C32.8485 25.2106 33.0216 25.1077 33.1702 24.9856C33.2437 25.1571 33.3269 25.3245 33.4223 25.4864C34.3667 27.2275 36.1506 28.5035 38.0844 28.863C40.0727 29.1154 42.1127 28.2881 43.6432 27.0395C43.7222 26.9696 43.7985 26.8969 43.8721 26.8228C43.9212 26.8173 43.9716 26.7994 44.022 26.7624C44.0152 26.7679 44.0138 26.7679 44.0138 26.7679C44.007 26.772 44.0002 26.7775 43.9934 26.7816C44.2373 26.6485 44.499 26.5552 44.792 26.5374C45.1954 26.5237 45.3644 26.9339 45.5511 27.2385C45.7555 27.7667 45.9776 28.2881 46.2815 28.7738C46.9888 30.1568 48.3379 31.3559 49.8983 31.618C50.2213 31.6742 50.532 31.6866 50.8332 31.6632C50.8768 31.6934 50.9313 31.7154 50.9995 31.7209C51.3293 31.762 51.6918 31.939 51.8839 32.2271C51.9384 32.315 51.9752 32.411 52.0052 32.5098C52.027 32.7348 52.0733 32.9557 52.181 33.1601C52.6552 33.9737 53.4143 34.6652 54.3369 34.8998C54.3819 34.9094 54.4255 34.9136 54.4705 34.919C54.4882 34.9849 54.51 35.048 54.5332 35.1029C54.54 35.1207 54.5454 35.1399 54.5509 35.1578C54.5509 35.2278 54.5645 35.2991 54.5877 35.365C54.7267 36.1566 55.1818 36.8591 55.5825 37.5424C56.0404 38.4383 56.4574 39.374 56.6278 40.3728C56.7886 41.137 56.8417 41.9136 56.7 42.7094L56.7027 42.7011ZM55.2868 35.5173C55.2977 35.5365 55.3059 35.557 55.3113 35.5776C55.3045 35.557 55.2963 35.5365 55.2868 35.5173ZM67.4728 35.9824C67.372 36.3528 67.2112 36.6972 66.9999 37.0073C66.6483 37.3928 66.1945 37.6411 65.678 37.718C65.1942 37.8085 64.7254 37.7687 64.2648 37.6013C63.6189 36.9826 62.7916 36.4845 62.1811 36.2197C61.5951 35.9481 60.9682 35.8026 60.3468 35.6394C60.1724 35.5584 59.9502 35.6051 59.8807 35.8013C59.8249 35.9577 59.9066 36.1415 60.0647 36.1964C60.6998 36.3871 61.3566 36.5078 61.9603 36.7946C62.6227 37.1129 63.2809 37.493 63.8028 38.0184C63.8233 38.0445 63.8464 38.0678 63.875 38.0884C63.9514 38.168 64.0236 38.2517 64.0931 38.3395C65.0498 39.2052 64.6464 40.4538 63.9309 41.3319C62.8748 42.6435 61.2435 42.9632 59.6286 42.8905C59.506 42.8713 59.3697 42.8726 59.2607 42.8397C58.8845 42.7492 58.5656 42.4899 58.2781 42.2401C57.9633 41.8477 57.7534 41.4183 57.5163 40.9697C57.4359 40.8379 57.38 40.6157 57.2805 40.462C57.1538 39.7376 56.933 39.0255 56.6605 38.3477C56.3498 37.5904 55.8959 36.9112 55.5362 36.1786C55.4571 36.0249 55.3849 35.8699 55.3236 35.7121C55.329 35.6764 55.3263 35.638 55.3168 35.5996C55.3181 35.6064 55.3209 35.6133 55.3222 35.6215C55.2745 35.3485 55.1859 35.1207 55.0987 34.8573C55.3263 34.8024 55.5498 34.7215 55.7651 34.6433C56.6428 34.3497 57.3787 33.7652 58.2181 33.3947C59.9829 32.5962 61.9099 32.341 63.8274 32.3095C64.5864 32.223 65.3932 32.1764 66.1332 31.9555C66.2027 32.02 66.2817 32.0749 66.3499 32.1435C66.7682 32.5633 67.2112 33.0243 67.3856 33.606C67.545 34.3908 67.6813 35.188 67.4714 35.981L67.4728 35.9824ZM70.9847 31.6866C70.8307 31.9473 70.6958 32.2326 70.4546 32.4247C69.9899 32.7938 69.5074 33.1464 68.9323 33.3206C68.8574 33.344 68.7824 33.3632 68.7061 33.3783C68.6652 33.3385 68.6107 33.3056 68.5412 33.2836C68.1133 33.1313 67.7958 32.7567 67.59 32.3589C67.4346 32.0913 67.218 31.8101 67.2561 31.4821C67.2766 31.4465 67.2915 31.4053 67.3311 31.3628C67.3338 31.3587 67.3365 31.3559 67.3392 31.3518C67.342 31.3504 67.3433 31.3491 67.3461 31.3463C69.1654 29.8398 68.9392 26.75 68.4077 24.6728C67.7876 22.4789 66.4303 20.6007 65.5172 18.5303C65.216 17.9691 64.9571 17.3819 64.75 16.7768C64.799 16.7768 64.8494 16.77 64.8985 16.7631C64.9639 16.7727 65.0321 16.7631 65.0988 16.7384C65.1561 16.7384 65.2119 16.7302 65.2624 16.7151C65.4204 16.6931 65.5799 16.6712 65.738 16.6575C66.9454 16.6122 68.1433 16.9868 69.0604 17.7962C69.9122 18.6551 70.321 19.9009 70.5609 21.0767C70.9275 22.6079 70.8021 24.2063 70.9752 25.7622C71.0937 27.6323 71.8542 29.9372 70.9861 31.6838L70.9847 31.6866Z" fill="black"/>
<path d="M51.4506 40.078C50.6206 39.5923 49.6326 39.6047 48.7182 39.7899C47.8814 39.9312 47.1973 40.2399 46.6236 39.3879C46.2706 38.8555 46.1343 38.2176 45.8386 37.6564C45.4311 36.8167 44.6257 36.1815 43.6636 36.2775C41.7843 36.2693 41.2801 38.7266 39.5289 38.4302C38.684 38.2944 38.053 37.5905 37.7941 36.7975C37.542 36.0511 37.1141 35.3061 36.3945 34.9329C34.1214 33.7242 33.0189 37.2023 30.893 36.6631C30.4732 36.5066 30.1761 36.128 29.9744 35.7411C29.6855 35.2979 29.3421 34.8698 28.8747 34.6105C27.4056 33.7228 25.9256 35.1127 24.4661 35.2965C24.0491 35.3295 23.6457 35.2581 23.2586 35.1223C23.1973 35.0605 23.1128 35.0345 23.0174 35.029C22.4941 34.8067 22.0062 34.4788 21.5633 34.1413C20.8806 33.5911 20.4377 32.8063 20.0506 32.0297C19.6432 31.1654 19.3665 30.2516 19.2616 29.2981C19.2943 28.7465 18.5611 28.7767 18.6483 29.3145C18.6919 29.7289 18.7655 30.1364 18.8637 30.5384C18.7287 30.7647 18.6579 31.0364 18.4208 31.1887C18.294 31.2724 18.1509 31.3424 18.0024 31.3712C17.9997 31.3712 17.9969 31.3712 17.9928 31.3712C16.78 30.9623 15.3886 31.0707 14.1593 31.6689C12.9792 32.1299 12.3277 32.997 11.7908 34.1084C11.2089 35.1223 10.8764 36.2405 10.5793 37.3655C10.458 37.8361 10.4089 38.3205 10.3299 38.7979C10.2849 39.0572 10.1241 39.4524 10.4798 39.5525C10.6379 39.5923 10.8151 39.4908 10.8505 39.3261C10.9568 38.8405 11.0181 38.3479 11.0971 37.8567C11.2825 37.1007 11.4869 36.3434 11.7499 35.6107C12.0511 34.9014 12.4177 34.2209 12.802 33.5527C13.0159 33.1918 13.3089 32.89 13.6469 32.6458C15.5344 31.3986 18.016 31.3314 19.5423 33.1795C20.1065 33.9039 20.3164 34.8012 20.5044 35.6821C20.5467 35.8659 20.5862 36.0511 20.6216 36.2377C20.6162 36.3146 20.6257 36.3859 20.6584 36.4449C20.6857 36.5958 20.7116 36.7481 20.7348 36.9004C20.7279 36.9882 20.7348 37.0788 20.7716 37.1556C20.9092 38.1544 20.9664 39.1711 20.9555 40.1741C20.9405 40.5418 20.8656 40.9012 20.8097 41.2634C20.7852 41.4295 20.9201 41.5859 21.0809 41.6037C21.2472 41.6229 21.3957 41.4981 21.4189 41.3307C21.5988 40.5075 21.5783 39.6733 21.5361 38.8363C21.5415 38.1846 21.4598 37.5398 21.3535 36.899C21.3535 36.8716 21.3535 36.8442 21.3603 36.8167C21.4066 36.4696 21.6424 36.1952 21.9013 35.9784C22.1698 35.7644 22.4832 35.6546 22.8253 35.6478C22.8512 35.6505 22.8771 35.6505 22.9043 35.6505C24.045 36.1005 25.0589 35.9455 26.3671 35.313C27.3156 34.922 28.2737 34.6462 29.0464 35.5311C29.2426 35.752 29.4171 35.9921 29.5574 36.2528C29.9376 36.9114 30.6395 37.3998 31.4163 37.3436C32.2108 37.301 32.9167 36.8551 33.534 36.3832C33.9156 36.0731 34.2768 35.7328 34.7142 35.501C35.7894 34.8643 36.8456 35.8289 37.1604 36.8551C37.5106 38.0831 38.6036 39.1341 39.9269 39.071C41.1765 39.0325 41.8198 37.8828 42.7437 37.2009C43.4606 36.7015 44.5849 36.7769 45.0605 37.5713C45.4666 38.116 45.6042 38.7993 45.9163 39.3948C46.5541 40.5857 47.3336 40.7517 48.5765 40.4361C49.2456 40.3236 49.9542 40.1672 50.6165 40.3936C51.1548 40.55 51.3047 40.6529 51.4206 41.225C51.4819 41.568 51.5569 41.9206 51.5119 42.2705C51.4179 42.6684 51.253 43.0512 51.0554 43.4079C50.9559 43.5616 50.8332 43.7001 50.6888 43.8127C50.513 43.9142 50.4094 44.1474 50.5552 44.3203C50.8945 44.7196 51.4656 43.9183 51.6291 43.6425C51.993 42.9757 52.2573 42.2266 52.0843 41.4624C52.0011 40.9616 51.9057 40.3648 51.4451 40.0739L51.4506 40.078Z" fill="black"/>
</g>
<defs>
<clipPath id="clip0_1157_5693">
<rect width="72" height="61" fill="white"/>
</clipPath>
</defs>
</svg>
