<svg xmlns="http://www.w3.org/2000/svg" width="66" height="73" fill="none"><path fill="#FFCD85" d="M33.177 35.817v35.817l31.34-17.61v-33.13l-.895-2.09-30.445 17.013Z"/><path fill="#FFDEAF" d="M32.58 35.817v35.817L1.24 54.024v-33.13l.896-2.09 30.445 17.013Z"/><path fill="#FFEED6" d="M2.136 18.207 33.177.298 64.22 18.207l-31.34 17.61-30.743-17.61Z"/><path fill="#000" d="M27.517 21.28c.382.377.825.697 1.285.972.455.267.94.484 1.436.67 1.01.377 2.08.578 3.156.664 1.087.086 2.183.029 3.254-.152a10.29 10.29 0 0 0 3.095-1.026c.931-.492 1.797-1.19 2.33-2.114.264-.455.411-.96.448-1.485a3.35 3.35 0 0 0-.053-.784 3.549 3.549 0 0 0-.259-.788c-.213-.476-.55-.903-.919-1.268A6.489 6.489 0 0 0 39.997 15a8.967 8.967 0 0 0-1.424-.656 10.877 10.877 0 0 0-1.56-.44 12.788 12.788 0 0 0-2.593-.258c-.131 0-.259 0-.39.004h-.062l-.303.012c-.189.013-.382.025-.57.046-.009 0-.017 0-.025.004-.017 0-.033.004-.05.004-.016 0-.037.004-.053.004-.008 0-.02.004-.029.004-.024.004-.049.004-.074.008h-.016a11.9 11.9 0 0 0-2.508.575 9.922 9.922 0 0 0-1.116.476c-.23.115-.451.242-.665.382a6.681 6.681 0 0 0-.636.46c-.07.057-.14.114-.21.176a4.514 4.514 0 0 0-1.014 1.268 3.42 3.42 0 0 0-.393 1.457c-.024.537.12 1.063.34 1.547.202.46.522.858.87 1.206Zm13.658-.912c-.25.308-.533.579-.841.825-.5.378-1.05.677-1.625.924a11.14 11.14 0 0 1-2.623.693c-1.1.144-2.216.144-3.32.004.02.005.041.005.062.009l-.074-.013c-.008 0-.013 0-.02-.004h.016a11.13 11.13 0 0 1-2.689-.718 7.658 7.658 0 0 1-1.58-.907 5.19 5.19 0 0 1-.841-.829 3.76 3.76 0 0 1-.43-.73c0-.005 0-.005-.005-.009a.41.41 0 0 0 .156-.135c.033-.045.066-.095.098-.14l.037-.049.046-.057c.004-.005.004-.005.004-.009.016-.02.032-.037.045-.057.004-.004.004-.008.008-.008.222-.259.472-.489.739-.702a7.692 7.692 0 0 1 1.576-.903 10.943 10.943 0 0 1 2.741-.722 12.992 12.992 0 0 1 3.28.012c.003 0 .012 0 .016.004h-.017a11.2 11.2 0 0 1 2.652.706 7.69 7.69 0 0 1 1.596.911c.312.246.6.521.85.833.102.136.192.275.279.423.04.07.102.115.172.144-.09.176-.189.344-.308.504Zm-14.15-2.064c.036-.234.102-.455.188-.677.115-.255.259-.488.423-.714.246-.308.53-.583.837-.825.008-.008.017-.012.025-.02.004-.005.008-.009.012-.009a.125.125 0 0 1 .029-.02c.008-.005.016-.013.02-.017l.025-.016c.008-.008.016-.013.029-.02.008-.005.012-.009.02-.013l.033-.025c.004-.004.008-.008.017-.012.012-.008.02-.016.032-.025l.017-.012c.012-.008.024-.016.033-.024.004-.005.012-.009.016-.013l.033-.02c.008-.005.012-.009.02-.013.009-.008.02-.012.03-.02a.086.086 0 0 0 .024-.017c.008-.004.016-.012.024-.016.009-.008.02-.012.029-.02.004-.005.012-.009.016-.013l.037-.024c.005 0 .005-.005.009-.005a8.31 8.31 0 0 1 1.038-.541 9.69 9.69 0 0 1 .895-.325h.008a.494.494 0 0 1 .074-.02l.016-.004c.02-.008.045-.012.066-.02.008-.005.016-.005.02-.009.02-.004.041-.012.062-.016.008-.004.016-.004.029-.008.02-.005.037-.013.057-.017.008-.004.02-.004.029-.008a.3.3 0 0 0 .057-.017c.008-.004.02-.004.029-.008.02-.004.041-.012.062-.016.008-.004.016-.004.024-.008.02-.004.041-.013.066-.017.008 0 .012-.004.02-.004.025-.004.045-.012.07-.016.004 0 .008-.004.012-.004.025-.005.054-.013.078-.017h.009a12.67 12.67 0 0 1 1.046-.193c.09-.012.18-.02.27-.033h.017c.03-.004.058-.004.082-.008.013 0 .025-.004.037-.004.02-.004.041-.004.066-.004.017 0 .033-.004.053-.004.017 0 .033-.004.05-.004.02 0 .04-.004.065-.004.013 0 .029-.004.041-.004.025 0 .05-.005.074-.005.013 0 .02 0 .033-.004.029 0 .053-.004.082-.004h.025c.029 0 .057-.004.086-.004h.02c.03 0 .058-.004.09-.004h.021c.029 0 .062-.004.09-.004h.017c.029 0 .062 0 .09-.004H34.367c.29 0 .578.008.87.024h.028c.017 0 .033.005.05.005.02 0 .037.004.057.004h.02a10.777 10.777 0 0 1 .821.09c.874.131 1.732.357 2.553.694a7.638 7.638 0 0 1 1.572.898c.316.25.603.526.853.838.169.221.308.46.423.71.086.217.152.443.189.673.025.225.025.451 0 .68-.008.046-.02.087-.029.132-.533-.788-1.305-1.391-2.134-1.838-.878-.476-1.847-.792-2.823-.99a12.833 12.833 0 0 0-2.984-.237c-1.05.032-2.101.192-3.11.492a9.45 9.45 0 0 0-2.065.882 6.01 6.01 0 0 0-1.547 1.256c-.005.008-.013.012-.017.02a.206.206 0 0 1-.029.034c-.012.016-.024.032-.04.049a2.19 2.19 0 0 1 0-.464ZM12.94 45.785c0 .004.004.004.004.008.435.964.997 1.867 1.65 2.7.652.837 1.415 1.58 2.277 2.204.427.312.887.579 1.367.8a5.736 5.736 0 0 0 1.555.476 3.91 3.91 0 0 0 1.646-.086 3.192 3.192 0 0 0 1.387-.82c.398-.395.67-.891.862-1.412.193-.517.275-1.084.304-1.634a7.97 7.97 0 0 0-.111-1.711c-.086-.554-.23-1.1-.406-1.63a12.89 12.89 0 0 0-1.457-2.983c-.6-.915-1.318-1.76-2.139-2.487-.84-.743-1.805-1.359-2.872-1.716-.48-.16-.994-.25-1.502-.25-.054 0-.107 0-.16.004a3.45 3.45 0 0 0-1.527.423c-.443.242-.804.607-1.096 1.018-.3.426-.492.931-.611 1.436a6.44 6.44 0 0 0-.16 1.535c.004.55.073 1.1.18 1.637.156.858.443 1.691.809 2.488Zm3.024-7.806c.435.061.854.188 1.26.353a8.249 8.249 0 0 1 1.7 1.01c.73.574 1.374 1.239 1.945 1.97a13.02 13.02 0 0 1 1.617 2.761c.348.841.607 1.72.734 2.623.074.599.086 1.206.013 1.81a5.034 5.034 0 0 1-.296 1.116c-.041.09-.086.176-.131.262a.334.334 0 0 0-.165-.049h-.151a205.27 205.27 0 0 0-.247-.025h-.032c-.009 0-.02-.004-.03-.004a6.317 6.317 0 0 1-.27-.053c-.008 0-.016-.004-.025-.004-.008-.004-.02-.004-.028-.008-.009 0-.017-.004-.02-.004-.005 0-.01 0-.013-.004-.012-.005-.02-.005-.033-.009h-.004c-.012-.004-.025-.008-.037-.008h-.008a9.425 9.425 0 0 1-.324-.094c-.033-.013-.066-.02-.099-.033-.123-.041-.242-.09-.365-.14a8.236 8.236 0 0 1-1.634-.976 11.445 11.445 0 0 1-1.957-1.978 13.245 13.245 0 0 1-1.625-2.775 10.75 10.75 0 0 1-.73-2.618 7.354 7.354 0 0 1-.013-1.802c.057-.381.152-.755.295-1.116.033-.07.066-.14.103-.21.189-.02.381-.02.57.005Zm5.032 11.474c-.004 0-.008-.004-.012-.004.004 0 .008 0 .012.005Zm-8.298-8.667A5.02 5.02 0 0 1 13 39.633c.111-.243.238-.472.398-.686.14-.172.296-.328.468-.468a3.08 3.08 0 0 1 .538-.316c.049-.02.102-.032.156-.049-.242.677-.333 1.4-.32 2.122.008.484.065.973.152 1.449.09.492.221.976.381 1.452.328.981.792 1.921 1.346 2.795a12.69 12.69 0 0 0 1.93 2.36c.754.722 1.62 1.35 2.58 1.769a6.597 6.597 0 0 0 .505.197c.005 0 .009.004.017.004.004 0 .008.004.012.004l.078.025c.004 0 .008.004.012.004a3.69 3.69 0 0 0 .312.09c.004 0 .009 0 .013.004h.008c.004 0 .008.004.012.004a.146.146 0 0 0 .041.008c.025.005.045.013.07.017.004 0 .008 0 .012.004.008 0 .012.004.02.004.075.017.148.029.226.045h.009c.008 0 .02.004.028.004h.005c.004 0 .008 0 .012.005.004 0 .012 0 .016.004h.029c.008 0 .012.004.02.004.009 0 .017 0 .025.004.02.004.041.004.062.008.004 0 .012 0 .02.004.008 0 .012 0 .02.004h.009l.131.012c-.09.095-.18.185-.283.267a2.864 2.864 0 0 1-.554.32c-.218.087-.44.144-.669.181a3.831 3.831 0 0 1-.92-.008 5.74 5.74 0 0 1-1.267-.366 8.165 8.165 0 0 1-1.646-.985 11.595 11.595 0 0 1-1.958-1.978 13.152 13.152 0 0 1-1.617-2.766 15.835 15.835 0 0 1-.18-.464c-.004-.016-.013-.028-.017-.045l-.012-.032a10.81 10.81 0 0 1-.464-1.716c0-.008-.004-.016-.004-.024 0-.013-.004-.021-.004-.033a7.519 7.519 0 0 1-.062-2.085ZM54.657 37.737a3.246 3.246 0 0 0-1.317-.862 3.455 3.455 0 0 0-.788-.164 3.101 3.101 0 0 0-.34-.02c-.177 0-.358.011-.534.036-.27.033-.534.09-.796.164a6.317 6.317 0 0 0-.805.304c-.492.217-.952.5-1.383.813-.451.328-.87.693-1.264 1.083a12.075 12.075 0 0 0-1.53 1.888c-.234.349-.452.71-.649 1.08a12.465 12.465 0 0 0-.804 1.825 10.43 10.43 0 0 0-.57 2.598c-.021.226-.03.452-.03.681 0 .534.062 1.08.193 1.597.005.02.013.041.017.066.004.024.012.045.02.07.136.48.35.947.649 1.35.316.426.718.771 1.194 1.005.497.242 1.047.34 1.592.333a4.812 4.812 0 0 0 1.626-.337 7.629 7.629 0 0 0 1.444-.743c.907-.59 1.703-1.354 2.385-2.191a13.13 13.13 0 0 0 1.707-2.713c.472-.997.817-2.056.985-3.148.168-1.096.164-2.249-.197-3.308a3.912 3.912 0 0 0-.805-1.407ZM44.611 48.009c-.004-.045-.012-.09-.017-.131v-.009c0-.012-.004-.028-.004-.04 0-.009 0-.017-.004-.025 0-.009 0-.017-.004-.029 0-.012-.004-.025-.004-.037v-.008a8.402 8.402 0 0 1 .041-1.605c.127-.91.386-1.801.735-2.651 0-.004.004-.008.004-.012s.004-.004.004-.009c.373-.87.841-1.699 1.391-2.47a.596.596 0 0 0 .045-.066c.013-.016.02-.028.033-.045l.012-.02.148-.197c.34-.436.706-.846 1.104-1.228.017-.016.033-.028.05-.045l.02-.02c.008-.008.02-.017.029-.029a.492.492 0 0 1 .049-.045l.004-.004c.205-.189.419-.374.636-.546.5-.382 1.038-.71 1.617-.965a5.398 5.398 0 0 1 1.231-.348c.263-.029.526-.033.788-.008.099.155.185.316.263.484.152.37.246.755.304 1.149 0 .012.004.02.004.033 0 .008 0 .016.004.024 0 .013.004.025.004.037 0 .013.004.025.004.037 0 .008 0 .017.004.025 0 .016.004.033.004.05v.011c0 .02.004.037.004.058v.004c.041.525.02 1.05-.04 1.576-.017.11-.033.226-.054.336 0 .005 0 .009-.004.013l-.012.061c-.005.013-.005.025-.009.037-.004.013-.004.025-.008.037l-.012.062v.012a11.667 11.667 0 0 1-.686 2.24 13.498 13.498 0 0 1-1.682 2.882 11.647 11.647 0 0 1-1.958 1.986 7.863 7.863 0 0 1-1.645.981 5.287 5.287 0 0 1-1.178.328 3.49 3.49 0 0 1-.357.03h-.14c-.004-.005-.008-.013-.016-.017a3.756 3.756 0 0 1-.407-.706 4.196 4.196 0 0 1-.18-.542c-.037-.217-.082-.427-.115-.636Zm10.379-5.824c-.131.92-.398 1.814-.755 2.668-.431.997-.981 1.937-1.642 2.795a11.136 11.136 0 0 1-1.855 1.875 7.934 7.934 0 0 1-1.633.977 5.51 5.51 0 0 1-1.194.34 3.727 3.727 0 0 1-.883.009 3.287 3.287 0 0 1-.681-.185 2.736 2.736 0 0 1-.242-.127 5.867 5.867 0 0 0 1.662-.57c.853-.427 1.62-1.035 2.302-1.7a13.049 13.049 0 0 0 1.88-2.36 13.682 13.682 0 0 0 1.35-2.831c.263-.776.447-1.58.525-2.397.074-.755.054-1.539-.123-2.278a4.603 4.603 0 0 0-.226-.697c.124.065.243.135.353.221.173.144.329.3.472.472.165.222.3.46.41.714.157.386.255.788.313 1.195a8.461 8.461 0 0 1-.033 1.88Z"/><path fill="#000" d="m2.897 54.928.046.02.046.021a.806.806 0 0 1 .216.136l.154.09.153.09.125.074.108.061.167.103c.153.094.307.185.461.275l.146.09.083.05.02.012c.175.106.35.209.529.303l.278.144.208.11 1.792 1.03 1.78 1.022 4.46 2.565 4.462 2.56.35.205c.42.246.84.497 1.26.747l.477.283c.175.103.345.201.52.3l.162.094.162.09.191.111c.225.131.45.258.674.382l.566.3c2.282 1.312 4.569 2.625 6.851 3.938l.649.373 1.031.595c.087.045.175.09.266.128.104.04.196.102.246.135.07.05.145.094.245.144l.075.037.075.036c.054.025.104.05.158.078l.062.03c.029.011.058.024.087.04l.034.02.037.021c.025.017.05.033.075.045.033.017.062.037.095.054l.021.012.187.123.046.033.154.103.07.045.071.045-.037-.054.037.05c.046-.008.083-.025.112-.037l.038-.017.041-.016.042-.016c.033-.013.067-.03.1-.046l.079-.037c.095-.04.191-.094.332-.18.13-.074.233-.14.341-.205l.183-.115c.22-.131.441-.267.657-.402l.096-.062.075-.045.187-.115c.1-.057.203-.115.303-.168l.146-.078c.112-.062.224-.127.332-.193l.096-.057c.129-.078.262-.148.4-.222l.157-.082a10.247 10.247 0 0 0 .844-.484 8.06 8.06 0 0 1 .508-.308.351.351 0 0 0 .153-.156l1.555-.87 1.252-.701 1.625-.911.724-.402c1.343-.751 2.665-1.49 3.983-2.232l6.931-3.886.075-.04 4.598-2.578 1.24-.693 1.218-.681a.457.457 0 0 0 .062-.033c1.006-.562 2.012-1.128 3.018-1.69l.021-.013.038-.02.037-.02a.372.372 0 0 0 .15-.382c.004-.017.004-.041.008-.062.004-.008.004-.02.008-.033l-.016.029.02-.05c.009-.044.017-.085.017-.13 0-.042 0-.087.004-.124l-.02.02c.024-.048.029-.106.033-.16.004-.06.008-.122.016-.18l.013-.119.004-.024c.02-.206.025-.403.017-.608.008-.123.016-.25.02-.373l.005-.11.004-.066c.004-.09.004-.177.008-.263.004-.107.008-.213.008-.32v-.172a7.308 7.308 0 0 0-.012-.534v-.033a7.323 7.323 0 0 1-.013-.426 9.296 9.296 0 0 0-.025-.591 27.488 27.488 0 0 1-.045-.607l-.009-.128v-9.014l.013-.291c.008-.345.008-.69.008-1.034v-.238c0-.242 0-.48.008-.723 0-.098.005-.2.005-.303v-.041c.004-.222.004-.447.02-.669.025-.291.038-.611.046-1.018a9.43 9.43 0 0 0 .004-.344v-.156c0-.16 0-.32.004-.48.005-.099.005-.185.009-.271l.004-.135.004-.136.013-.365c.004-.164.008-.328.008-.488 0-.173.004-.345.008-.517l.013-.32c.008-.234.02-.472.02-.706v-.205c0-.168.005-.34 0-.509l-.008-.238a17.69 17.69 0 0 1-.008-.472l-.004-.267c-.004-.377-.013-.75-.03-1.111v-.025l-.004-.029v-.04l-.004-.103-.004-.099-.008-.148-.008-.147-.005-.062-.012-.381-.004-.144c-.009-.234-.013-.46-.025-.69 0-.036-.004-.073-.004-.11l-.005-.033c0-.066-.004-.131-.008-.197l-.012-.176-.009-.095c-.008-.115-.02-.234-.029-.349v-7.664c0-.107-.05-.21-.133-.279a.35.35 0 0 0-.179-.316l-.15-.086-.149-.086-.112-.066-.1-.057c-.744-.427-1.484-.854-2.228-1.28-2.878-1.654-5.747-3.3-8.611-4.949L41.635 4.69l-2.782-1.6L34.38.52c-.083-.057-.162-.119-.245-.176-.104-.078-.2-.164-.312-.234a.635.635 0 0 0-.237-.086.229.229 0 0 0-.075 0c-.008 0-.02-.004-.029-.004A.386.386 0 0 0 33.377 0h-.004c-.1 0-.12.008-.216.041-.037.012-.075.029-.112.041.029-.008.058-.02.087-.029-.112.037-.216.082-.324.123-.03.013-.058.017-.092.03a9.673 9.673 0 0 0-.648.278l-.179.082-.254.111c-.224.098-.436.193-.632.295-.228.12-.486.271-.806.468l-.03.02-.058.038-.153.094-.046.029-.038.024c-.536.333-1.06.702-1.559 1.096l-.307.242-.063.05-.129.102-.785.443-.79.443-4.241 2.376-.08.037-.058.028-.045.02-.042.017c-.066.033-.133.062-.2.099-.232.119-.465.23-.723.349l-.033.016-.03.012-.199.09c-.137.062-.274.136-.407.206l-.025.012-.038.02c-.066.037-.128.066-.187.099-.087.045-.174.09-.262.14-.324.18-.623.344-.931.508-.137.07-.274.144-.412.218l-.091.045-.083.045-.042.025-.332.172c-.204.103-.408.201-.607.304l-.395.192c-.113.054-.22.111-.333.165a18.17 18.17 0 0 0-2.308 1.321l-.108.07-.045.028c-.113.074-.23.148-.341.218l-.358.221-.332.205-.109.07-.029.02-.141.087c-.191.115-.378.23-.57.34-.075.041-.145.087-.216.128l-.083.049-.058.033c-.15.09-.295.176-.445.262l-.391.218-.037.02c-.362.201-.74.41-1.098.632l-.025.017-.02.016-.026.012-.02.02-.088.046-.1.061.092-.032a3.03 3.03 0 0 0-.366.205l-.07.045-.071.045-.038.025c-.12.073-.237.147-.35.221l-.036.025-.096.061-.279.177c-1.87 1.046-3.742 2.092-5.608 3.143a2.532 2.532 0 0 0-.366.115l-.13.053-.19.078c-.092.037-.183.09-.25.131l-.066.041a2.096 2.096 0 0 0-.225.148l-.067.045c-.15.099-.303.218-.345.39a1.435 1.435 0 0 0-.029.447.361.361 0 0 0-.012.09v.51c-.004.077-.004.16 0 .237v33.555l-.004.045v.05l.004.024v.041l.004.078v.054c0 .098.004.197.004.3v.159l.12.086c.038.029.076.054.117.078l.046.025.095.053.084.05.029.016.062.033c.046.028.08.045.117.07l.61.352.616.349ZM62.32 20.503l.042.012c.166.05.308.103.437.173.174.11.307.213.411.316.092.098.196.209.275.336.091.168.158.332.207.492.017.07.03.136.038.197l.008.05c.009.04.013.07.017.098.012.074.029.148.041.218 0 .152.009.311.017.467.008.165.025.329.038.489l.012.143.02.267c.047.624.092 1.235.155 1.834.016.148.029.296.045.447V39.931c-.008.136-.02.271-.033.407-.017.205-.033.393-.046.586a66.49 66.49 0 0 0-.079 1.998c-.008.341 0 .67.013 1.096v.033c.008.287.012.558.012.833 0 .324.005.652.017.968.012.259.012.517.012.776v.184c0 .37.013.71.034 1.03v.029l.016.221.017.238v.99c0 .081 0 .167-.004.25v.18c0 .057-.004.115-.004.172 0 .054 0 .111.004.164.004.041.004.083.004.12v.652l-.017.16a15.44 15.44 0 0 0-.062.599l.004.025-.008.057-.004.045-.005.053v.03c-.004.011-.004.024-.004.04a.767.767 0 0 1-.016.115 3.283 3.283 0 0 1-.062.394l-.009.045c-.037.185-.067.34-.116.496a2.315 2.315 0 0 1-.237.448c-.017.029-.03.045-.038.061l-.066.103c-.117.16-.258.316-.433.484-.037.033-.07.066-.108.099-.05.045-.1.09-.145.135-.084.082-.17.164-.258.246-.058.053-.117.11-.175.168a3.586 3.586 0 0 1-.179.177l-.037.033-.042.028-.062.05a.63.63 0 0 0-.054.049l-.017.016-.037.037-.037.033c-.017.012-.038.029-.059.041l-.02.016c-.034.02-.067.041-.096.066a2.4 2.4 0 0 1-.179.127c-.096.058-.22.131-.332.222l-3.194 1.789-5.87 3.29-5.825 3.262-3.164 1.773c-2.516 1.407-5.031 2.815-7.543 4.226-.378.213-.744.419-1.105.62l-.395.221-.574.32c.012-.032.012-.074.012-.098 0-.033 0-.07.004-.103l.005-.057c.004-.062 0-.127 0-.193 0-.053.004-.107.008-.16l.004-.086c.004-.111 0-.222-.004-.333v-.221c.004-.107 0-.21-.004-.316a4.058 4.058 0 0 1 0-.316c.004-.053.004-.107.004-.16 0-.057 0-.115.004-.176a8.205 8.205 0 0 0-.004-.78l-.013.09c.009-.279.013-.562.017-.84v-.112a24.12 24.12 0 0 0 0-.78c-.004-.299.004-.619.025-1.013l.004-.094.004-.094c.004-.107.009-.21.017-.317.017-.188.029-.373.033-.562.004-.147.004-.295.008-.447 0-.119 0-.238.005-.353.004-.168.004-.336.008-.504v-.255c0-.127 0-.254-.004-.381-.004-.156-.004-.296-.004-.435 0-.25-.005-.5-.017-.743l-.004-.082-.004-.099v-.032l-.005-.041v-.136a21.307 21.307 0 0 0-.012-.213l-.004-.062-.013-.373-.004-.14c-.004-.164-.008-.328-.016-.492-.009-.238-.025-.476-.042-.714l-.008-.127c-.009-.119-.017-.234-.021-.349l-.017.029c.013-.086.009-.176.009-.263l-.005-.09a33.458 33.458 0 0 0-.045-.89l-.009-.115V36.214l.075-.045.08-.045c1.114-.624 2.215-1.24 3.317-1.86l1.776-.992 1.026-.575c1.41-.791 2.824-1.58 4.233-2.371.32-.156.64-.316.96-.476.146-.074.291-.148.437-.226.033-.016.07-.037.104-.057l.025-.012.029-.017.038-.02.054-.03c.054-.028.108-.06.166-.09.145-.073.287-.147.432-.225l.038-.02.045-.025.05-.025c.112-.061.225-.119.337-.18.241-.123.478-.255.72-.386l.028-.016.146-.082.02-.013c.15-.082.292-.16.437-.234.154-.078.308-.151.462-.234a23.2 23.2 0 0 0 .927-.525l.279-.164.07-.04.133-.079c.142-.082.279-.164.42-.246.52-.296 1.135-.648 1.759-1.046l.736-.456.07-.045c.217-.131.433-.262.645-.394l2.154-1.206 2.008-1.124.981-.55 2.295-1.288.087-.038.08-.036c.054-.025.112-.05.17-.07.05-.02.096-.037.145-.058a2.24 2.24 0 0 1 .291-.11h-.004s.005 0 .005-.005a1.53 1.53 0 0 1 .307-.032c.13 0 .237.012.329.037l.02.02ZM33.507.025l.054.012a.145.145 0 0 0-.054-.012Zm0 0 .034.008c-.013-.004-.025-.008-.034-.008Zm0 0c.005 0 .009 0 .017.004-.008-.004-.013-.004-.017-.004ZM33.502.02h-.017.017Zm-.008 0c-.004 0-.008 0-.013-.005h-.004c.004 0 .009.005.017.005ZM3.94 17.857c.004-.013.012-.025.016-.033.071-.095.162-.193.27-.296l.055-.032c.1-.07.203-.136.303-.201.067-.046.133-.09.196-.136l.074-.045c.208-.123.416-.246.624-.373a38.62 38.62 0 0 0 1.713-1.12 23.048 23.048 0 0 1 .894-.583l.083-.05.25-.155.029-.02.083-.054 1.36-.763 1.347-.755c1.65-.923 3.3-1.847 4.951-2.774l.316-.177.965-.541.067-.037.024-.012 1.668-.936 2.137-1.198 1.035-.583.224-.11c.092-.045.192-.086.287-.132l.025-.008.154-.07.104-.049.345-.156.45-.205.448-.2.187-.083.03-.012c.22-.099.47-.214.706-.333.32-.16.632-.34.894-.5a15.69 15.69 0 0 0 1.643-1.15c.108-.081.212-.167.316-.25.07-.036.137-.077.207-.114l.088-.05.087-.049 1.21-.677.777-.435.03-.016.079-.045.095-.045.03-.013c.103-.049.199-.086.294-.119l.1-.028c.059-.017.113-.033.17-.054l.113-.04.054-.021a2.62 2.62 0 0 1 .457-.103l.096-.016c.087-.017.179-.029.266-.037.025 0 .046 0 .067-.004.095-.004.187-.009.282-.009.12 0 .229.005.333.017.062.008.125.012.187.02.15.017.308.033.457.058.18.037.375.09.612.164.062.02.129.045.19.066l.175.061.104.033c.054.016.108.033.158.053.042.017.084.033.121.05.046.02.092.037.137.053l.1.037.033.016.212.107.108.053s.005 0 .005.004v-.004l.016.008a.032.032 0 0 0 .013.005l.025.008v.004l.087.045.037.016.067.033-.008-.004.079.05c.025.012.045.028.07.04.067.037.133.07.2.103l-.021-.012.162.086.083.04.025.013.042.02.029.013v.004l.054.029.02.012.05.025-.033-.025.117.062.087.04.038.017v.004l.045.025.046.025c.025.016.05.032.07.049l.026.016.037.029.137.098c.117.082.237.164.362.242.25.16.495.329.728.489.22.152.461.303.731.463l.05.03-.02-.034c.133.103.282.185.411.259l.179.106c.087.054.179.111.27.156.137.074.275.152.408.226.162.09.328.185.49.27.191.103.383.194.611.3l.088.041.258.123c.091.046.187.095.278.144l.07.037.138.074.287.148.166.086c.092.049.187.098.279.152l.046.024.137.074c.108.062.212.115.32.172l.12.062c.154.082.308.168.458.254l.058.033c.129.074.25.14.37.205.166.09.333.173.499.259l.096.049.328.168.166.09.03.017c.07.04.14.078.216.115l.353.184.087.046c.162.086.325.176.487.266l.041.025.034.016.266.148c.262.144.524.291.781.435.237.135.491.275.782.418.125.066.254.128.383.19l.087.04.3.148c.444.226.889.455 1.33.69l.091.044.083.046.158.082c.275.143.553.287.832.426.254.12.507.259.732.378l.045.024.059.03c.108.057.216.118.324.18l.087.045.046.024c.12.07.233.128.345.19l.125.065.037.02c.22.12.445.238.665.37l-.025-.037c.175.127.362.25.545.369l.046.033.166.11c.146.099.295.19.445.28l.042.024.045.029c.096.057.192.119.283.176l.067.045c.237.152.474.304.706.464.196.131.383.267.574.406l.287.206.166.119.025.016c.254.18.524.373.794.55.055.037.109.073.163.106l.045.033.275.185c.112.07.224.14.337.205l.025.016.14.082.022.013.311.193a25.183 25.183 0 0 0 1.643.923c.091.05.183.094.274.143.046.046.092.095.13.144.045.07.086.148.124.234.029.086.05.189.066.303l.005.05c.004.057.004.119 0 .176-.017.07-.042.144-.071.218-.038.07-.083.131-.13.197l-.066.09-.025.037c-.02.029-.045.061-.066.09-.03.033-.063.062-.096.095l-.033.036-.02.02c-.017.021-.038.038-.055.058a1.597 1.597 0 0 1-.129.107.431.431 0 0 0-.066.058.767.767 0 0 1-.07.061 1.527 1.527 0 0 0-.063.05l-.03.02-.09.07-.026.016-.041.024-.025.017-.05.033-.054.029c-.063.036-.113.065-.162.102l-.034.025c-.1.053-.2.102-.295.16-.403.23-.836.439-1.214.623l-.062.03-.404.196c-.1.05-.2.094-.303.136a17.813 17.813 0 0 0-.665.308l-.08.036-.053.029c-.113.053-.22.107-.329.164a4.99 4.99 0 0 0-.253.144l-.042.024-.025.017-.129.073-.337.197-.515.3-.12.074c-.109.061-.213.123-.321.188a71.882 71.882 0 0 0-.848.57l-.075.05-.224.156c-.304.201-.608.386-.828.525l-.258.16-.025.017-.066.04-.108.07-.137.087-.092.053-8.88 4.973c-.2.11-.4.226-.604.336l-.981.485-.486.242-.375.184-.553.271a22.22 22.22 0 0 1-.923.427c-.29.127-.627.275-.964.439-.266.127-.528.258-.794.39l-.133.065-.262.127-.054.03c-.225.106-.424.204-.62.311a35.83 35.83 0 0 0-.678.373l-.062.037-.12.07c-.287.16-.562.324-.861.509l-.058.037-.063.037c-.141.086-.287.172-.432.258l-.175.107-.029.016c-.05.029-.1.058-.145.086l-.063.037-.112.062c-.075.04-.145.082-.22.123-.254.152-.466.283-.661.414l-.021.017-.03.02-.166.115-.1.062c-.045.024-.09.049-.133.078a2.455 2.455 0 0 1-.249.147c-.05.03-.1.054-.154.078l-.029.017a1.662 1.662 0 0 0-.195.119l-.038.024c-.062-.008-.1-.032-.137-.057-.07-.05-.133-.09-.2-.127a4.318 4.318 0 0 1-.29-.185c-.05-.037-.109-.07-.163-.102l-.045-.03-.034-.02-.054-.032a15.43 15.43 0 0 0-.607-.39c-.174-.099-.34-.222-.495-.325l-.037-.028c-.062-.041-.12-.086-.183-.127a20.49 20.49 0 0 1-.49-.337l-.005-.033c-.353-.242-.719-.492-1.089-.73l-.736-.472c-.333-.213-.665-.427-.998-.644l-.075-.05-.058-.036c-.1-.066-.2-.127-.3-.193a12.017 12.017 0 0 1-.24-.16l-.063-.041-.095-.066a34.689 34.689 0 0 0-.724-.455l-.033-.02a21.54 21.54 0 0 0-.748-.436l-.104-.057c-.287-.16-.57-.32-.853-.48l-.145-.082-.042-.025-.05-.024c-.212-.12-.42-.234-.632-.35-.174-.09-.353-.176-.528-.254l-.037-.016c-.112-.05-.22-.103-.333-.156-.083-.041-.166-.086-.25-.127l-.153-.082-.12-.058-.059-.028a4.734 4.734 0 0 1-.287-.148c-.133-.074-.266-.14-.399-.21l-.029-.016c-.133-.07-.27-.14-.403-.213-.142-.078-.283-.156-.428-.23l-.2-.098-.025-.013a4.23 4.23 0 0 1-.191-.094l-.108-.053-.054-.03-.034-.016a6.987 6.987 0 0 1-.25-.127 7.59 7.59 0 0 0-.407-.209c-.295-.143-.598-.279-.898-.414a45.524 45.524 0 0 1-.79-.361c-.44-.21-.873-.456-1.26-.673l-.041-.025-.087-.05-.395-.22c-.113-.062-.225-.12-.341-.181l-.054-.029-.034-.016c-.141-.074-.287-.144-.424-.222a9.568 9.568 0 0 0-.287-.152l-3.554-2.043-5.36-3.077-.216-.123-.112-.066a5.076 5.076 0 0 1-.137-.152c-.092-.107-.167-.226-.233-.328-.021-.037-.046-.07-.063-.107l-.05-.086c-.033-.05-.062-.103-.091-.156a1.155 1.155 0 0 1-.083-.238c-.008-.037-.025-.074-.038-.11a.882.882 0 0 1-.037-.12.95.95 0 0 1-.017-.205.88.88 0 0 1 .034-.176ZM2.053 53.012a3.808 3.808 0 0 1-.183-.566l-.037-.16-.021-.078.02-.214c.017-.147.03-.27.038-.394l.004-.049.009-.082.02-.332.025-.353.05-.718c.03-.398.054-.796.08-1.194.012-.168.016-.337.024-.505l.004-.082c.004-.131.009-.262.017-.39.004-.07.004-.135.008-.205v-.07c0-.082.004-.16.009-.242.004-.07.004-.14.008-.213v-.14l.004-.176c.008-.3.004-.615-.004-.944l-.004-.156c-.009-.279-.017-.558-.038-.837l-.008-.13-.008-.136-.004-.054-.005-.073-.05-.776c-.008-.127-.02-.254-.033-.382-.012-.135-.025-.254-.033-.373h-.004c-.009 0-.009.008-.009.02v-.147a6.76 6.76 0 0 1-.008-.41c0-.103 0-.206-.004-.304a9.164 9.164 0 0 1 .004-.76c.004-.065.004-.13.004-.192 0-.045 0-.094.004-.14 0-.024 0-.045.005-.07v-.081c.004-.058.004-.103.008-.152v-.287a2.85 2.85 0 0 0 0-.267 6.326 6.326 0 0 0-.03-.43l-.003-.05-.009-.078v-.029l-.004-.065c-.012-.288-.025-.546-.025-.817v-.156c0-.107 0-.21.004-.316v-.11c0-.062 0-.12.005-.181l.012-.238a.353.353 0 0 0-.03-.16.223.223 0 0 0 .022-.107l-.013-.365a7.596 7.596 0 0 1-.008-.308c0-.078-.004-.156-.008-.23v-.061c-.005-.127-.013-.275-.005-.419a8.04 8.04 0 0 0-.008-.553v-.054l-.012-.279c0-.066-.004-.135-.009-.2l-.004-.095a5.69 5.69 0 0 1-.012-.357l-.004-.201-.005-.197c.005-.115.005-.23.009-.345v-.024c.004-.267.025-.513.041-.739l.021-.287.004-.05c.025-.328.046-.66.05-.98 0-.115.004-.23.008-.345.005-.217.013-.435.009-.652 0-.34-.004-.677-.009-1.018 0-.209-.008-.418-.016-.628l-.004-.09-.013-.308a21.823 21.823 0 0 1-.008-.525c0-.176 0-.353-.008-.529-.017-.427-.009-.862 0-1.346v-.123c.004-.205.008-.41.008-.62v-.488c.004-.398.008-.935-.008-1.428l-.009-.266v-.082c-.004-.136-.008-.271-.016-.407-.009-.176-.025-.352-.038-.529l-.012-.184-.009-.025.005-.029v-.029c0-.008 0-.037-.005-.065-.004-.029-.008-.029-.012-.029l.008-.025.004-.114.013-.206c0-.02.004-.053.008-.09l.004-.066.005-.057.004-.05-.004.009.008-.041c0-.029.004-.053.004-.082l.004-.053c.004-.054.017-.107.025-.16L1.878 21l.017-.103c.017-.102.037-.205.07-.304.05-.127.105-.238.163-.328.054-.066.1-.119.145-.16a.694.694 0 0 1 .117-.074c.137-.053.278-.082.39-.102.059-.008.117-.013.175-.017l.025-.004c.042-.004.08-.008.12-.008.03.004.063.012.092.02l.063.017c.058.012.112.029.166.045l.179.062c.116.045.228.098.345.151.108.062.216.128.324.19l.025.016.025.012c.129.074.262.148.387.226.137.086.274.172.407.262l.046.029.046.029c.12.078.245.16.37.233l.19.115c.08.046.155.09.234.14.15.094.3.189.449.275.191.115.386.225.586.332l.27.152c.146.082.291.176.429.267l.033.02c.137.09.262.173.39.246.433.259.882.505 1.273.723l.495.274c.299.169.607.34.923.493.195.09.39.184.586.279l.042.02.299.144c.233.11.47.217.707.324l.033.012.058.025c.279.123.57.254.848.394l6.79 3.902.07.04 3.314 1.905 1.248.714 3.675 2.113 3.663 2.105.046.024.046.025c-.005.16-.005.332 0 .5.004.078.004.156.008.234 0 .078.004.156.008.234v.033c0 .053.004.103.008.148l.005.102.004.082.004.099.004.053.004.09.013.226.004.09.004.09c.004.058.004.111.008.169l.013.349.008.217c.013.316.013.636.008.944v.517c.005.143.005.287-.004.427l-.004.065c-.008.111-.012.222-.017.328v.714a9.585 9.585 0 0 0 .046 1.038l.004.066.005.09.012.345c.004.135.012.27.017.402.004.099.012.197.02.292l.005.07c.012.126.02.245.024.364l.005.078.008.03c0 .147-.004.294-.008.446v.575c0 .336-.005.673 0 1.01.004.34.012.68.016 1.017.005.184 0 .365-.004.55-.004.164-.004.32-.004.467.004.34.004.681.012 1.022.005.21 0 .422-.004.632v.04c-.004.103-.004.198-.004.292-.004.218-.008.435-.017.652V51.502c-.008.365-.02.78-.008 1.173.008.193.013.382.017.575.008.287.012.57.029.85l.004.06c.008.23.02.522.013.793-.009.283 0 .574.008.82l.012.316.005.07c.008.197.016.398.029.595l.008.102.008.103v14.23l-.1-.074-.112-.066-.05-.033-.05-.033-.087-.061-.22-.156c-.063-.045-.133-.094-.2-.152a2.004 2.004 0 0 0-.216-.164l-.1-.07-.054-.037-.046-.032-.02-.013a4.464 4.464 0 0 0-.375-.25c-.133-.082-.27-.156-.407-.234l-.191-.107a6.637 6.637 0 0 0-.337-.176c-.046-.02-.087-.045-.133-.07l-.08-.045c-.04-.025-.082-.045-.124-.07l-.303-.16-.092-.049c-.12-.066-.245-.127-.366-.193-.166-.09-.328-.184-.49-.279l-.067-.037-.295-.168-.154-.086-.125-.07c-.17-.094-.34-.193-.511-.287-.17-.094-.341-.189-.507-.283-.12-.066-.241-.136-.362-.201a16.074 16.074 0 0 1-.453-.263c-.15-.086-.304-.176-.453-.258l-.22-.124-.221-.123c-.407-.23-.836-.471-1.264-.689-.179-.09-.353-.18-.524-.275-.12-.065-.241-.127-.357-.189l-.055-.028-1.064-.612-1.064-.611-.944-.542-1.497-.857a80.622 80.622 0 0 1-.62-.37l-.124-.073c-.229-.136-.453-.271-.678-.402a12.337 12.337 0 0 0-.507-.283l-.4-.222c-.195-.11-.386-.222-.581-.337l-.32-.184-.312-.177-.042-.024a51.495 51.495 0 0 1-1.45-.854c-.284-.172-.57-.336-.857-.5-.117-.066-.233-.127-.35-.193a8.734 8.734 0 0 1-.578-.328l-.461-.283-.05-.03c-.141-.085-.283-.167-.424-.253-.154-.095-.308-.185-.462-.28a37.396 37.396 0 0 1-1.28-.796c-.258-.168-.549-.32-.782-.443l-.029-.016-.066-.037c-.425-.222-.861-.439-1.281-.652l-.079-.041-.067-.033-.386-.193-.025-.017-.03-.012-1.055-.607-1.086-.624a6.094 6.094 0 0 1-.274-.168l-.042-.029-.045-.032-.083-.058c-.08-.057-.158-.11-.242-.168l-.024-.013-.1-.07a3.846 3.846 0 0 1-.37-.307l-.058-.053-.075-.066c-.071-.062-.167-.144-.25-.234-.029-.037-.054-.078-.083-.115-.025-.037-.046-.07-.075-.102-.066-.107-.12-.189-.162-.271Z"/></svg>