<svg xmlns="http://www.w3.org/2000/svg" width="72" height="63" fill="none"><g clip-path="url(#a)"><path fill="#F1BC6F" d="M69.794 16.109a4.438 4.438 0 0 0-1.222-.86c-1.036-.459-2.19-.26-3.243.019-.998.245-1.889.803-2.605 1.533-.376.311-.612.733-.801 1.17.777-.206 1.584-.163 2.38-.166.818.033 1.651.032 2.465.03.481.012.895-.032 1.345-.152.74-.205 1.436-.73 1.793-1.423a.262.262 0 0 1-.05-.071c-.03-.038-.038-.052-.062-.081Zm-3.935 1.096c-.427-.024-.802.1-1.213.168-.294.207-.62-.24-.327-.456.177-.128.412-.112.615-.17.313-.073.63-.115.94-.103.366.017.353.56-.015.56Zm1.147-.091a.282.282 0 0 1-.273-.288.284.284 0 0 1 .286-.273c.153 0 .278.137.273.287a.284.284 0 0 1-.287.274ZM19.012 42.37l.017-.005.017-.007c-.011.004-.023.007-.034.012ZM57.09 9.007c-.1.478-.223.954-.386 1.419-.169.548-.372 1.082-.615 1.599.732-.194 1.395-.555 2.033-.963.63-.43 1.227-.935 1.69-1.544.332-.562.643-1.141.91-1.737.281-.548.508-1.12.756-1.683.184-.548.416-1.018.445-1.59.13-1.065-.473-2.612-1.443-3.116-.133-.047-.262-.105-.405-.111A.316.316 0 0 1 60 1.259c-1.255.392-1.758 1.858-2.12 3.003-.26 1.08-.38 2.184-.538 3.277.003.499-.087.993-.252 1.467l.002.001Zm1.545-2.196c.372.054.273.69-.098.631-.373-.055-.272-.691.098-.63ZM57.48 9.534c.122-.203.24-.406.32-.63.143-.272.101-.92.544-.833.142.04.237.202.191.348-.077.244-.138.493-.23.733-.083.238-.216.454-.344.671a.281.281 0 0 1-.383.097.285.285 0 0 1-.098-.384v-.002Z"/><path fill="#FFD8A0" d="M13.725 43.39a5.217 5.217 0 0 1 .078-3.35c1.327-3.688 5.786-4.568 8.472-2.328-.279-.44-.567-.875-.896-1.281-.806-.983-1.792-1.817-2.861-2.498-1.734-1.244-3.798-1.802-5.89-1.993-.128.146-.136.35-.17.531a10.11 10.11 0 0 0-.22 1.55c-.232 1.734-.1 3.499.1 5.228.242 1.432.677 2.847 1.377 4.123l.013.019h-.003Z"/><path fill="#F1BC6F" d="M56.39 9.26c.047-.107.092-.216.134-.33.105-.492.19-.989.267-1.487a2.193 2.193 0 0 0-.249-.97 7.097 7.097 0 0 0-.7-.738 3.698 3.698 0 0 0-.86-.369c-.527-.032-1.09.124-1.552.38-.595 1.361.44 2.433.828 3.849.138.607.13 1.237.053 1.854.912-.477 1.6-1.28 2.08-2.19h-.002Zm-2.387-2.27a.282.282 0 0 1-.273-.287.284.284 0 0 1 .287-.273c.152 0 .277.137.273.287a.284.284 0 0 1-.287.274ZM68.56 9.328c-1.024.128-1.952.6-2.786 1.196-1.012.881-2.04 1.745-3.02 2.663l-.09.09c-.597.665-1.102 1.398-1.413 2.249a3.963 3.963 0 0 0-.119 1.052c.344-.228.692-.45 1.046-.664.51-.286 1.029-.562 1.562-.802.554-.218 1.13-.374 1.698-.553.967-.384 2.006-.529 2.991-.831.92-.28 1.886-.63 2.487-1.4.447-.58.584-1.218.506-1.852-.68-.85-1.79-1.27-2.863-1.146v-.002Zm.555 1.775c-.213.123-.592-.018-.82.01-.431.004-.854.16-1.197.416-.24.265-.65-.075-.43-.358.54-.511 1.341-.682 2.065-.594.087.008.173.015.259.024.24.024.32.37.123.503v-.001Zm.903.196a.282.282 0 0 1-.273-.287.284.284 0 0 1 .287-.274c.152 0 .277.138.273.288a.284.284 0 0 1-.287.273ZM14.512 39.789c-1.575 3.304 1.054 7.125 4.693 6.843 3.963-.298 5.858-5.048 3.217-7.998-2.273-2.552-6.471-1.928-7.909 1.155h-.001Zm7.248.984c.442 1.231.068 2.472-.73 3.303l.029-.122c.012-.071.02-.14.02-.213 0-.065-.006-.13-.015-.195-.008-.087-.011-.172-.032-.258a1.027 1.027 0 0 0-.084-.23 1.242 1.242 0 0 0-.388-.407 2.32 2.32 0 0 0-.712-.316 1.474 1.474 0 0 0-.272-.025c-.087-.001-.173-.003-.26 0a.857.857 0 0 0-.288.056 1.563 1.563 0 0 0-.195.086c-.006.002-.013.007-.018.01l-.013.006.007-.002a1.462 1.462 0 0 0-.37.276 2.231 2.231 0 0 0-.25.314 1.29 1.29 0 0 0-.122.224 1.32 1.32 0 0 0-.063.22c-.012.066-.025.133-.04.198a1.681 1.681 0 0 0-.04.22c-.007.09 0 .18.012.27.012.09.028.177.053.264.026.087.07.17.117.248.045.072.1.134.163.192.054.05.115.098.176.138l.064.041a3.237 3.237 0 0 1-.649-.113c-2.335-.618-3.166-3.62-1.48-5.351 1.633-1.74 4.617-1.092 5.38 1.166ZM58.933 13.817c.16.101.302.22.458.321.162.145.305.306.484.432.116.1.227.279.323.387.125-.12.257-.233.325-.321.6-.597 1.184-1.208 1.789-1.798.512-.551 1.07-1.054 1.576-1.51.473-.412.972-.832 1.498-1.21a59.344 59.344 0 0 0 1.681-1.51c1.047-.882 2.194-1.689 2.929-2.862.725-1.229 1.164-2.884.233-4.125-.378-.504-.992-.763-1.565-.983-.866-.19-1.75-.026-2.512.409-.765.4-1.313 1.073-1.845 1.736-.324.401-.619.823-.884 1.264-1.227 2.016-2.113 4.213-3.316 6.243-.618 1.047-1.229 2.115-2.17 2.9.23.12.436.3.659.435.102.085.215.145.338.194l-.001-.002Zm4.499-8.184c.059-.2.292-.319.467-.178.117.092.135.25.06.372-.134.365-.669.17-.527-.193v-.001Zm-2.635 4.477c.286-.285.492-.639.68-.993.29-.56.56-1.131.857-1.688.133-.232.29-.452.443-.674.078-.127.255-.178.383-.097.353.25-.085.596-.217.848-.48.784-.806 1.667-1.299 2.436a3.671 3.671 0 0 1-.457.572c-.264.252-.648-.143-.39-.402v-.002ZM31.148 32.413a.452.452 0 0 1-.003-.045c0 .015 0 .03.003.045Z"/><path fill="#D19C4F" d="M3.44 53.292c1.024-.127 1.952-.6 2.786-1.195 1.012-.882 2.04-1.745 3.02-2.663l.09-.091c.597-.665 1.102-1.398 1.413-2.248.078-.335.134-.704.119-1.053-.344.229-.691.451-1.046.665-.51.285-1.028.562-1.562.801-.554.219-1.13.374-1.698.554-.967.384-2.006.528-2.991.83-.92.28-1.886.63-2.488 1.401a2.454 2.454 0 0 0-.505 1.851c.68.851 1.79 1.27 2.863 1.147v.001Zm-.555-1.774c.213-.123.592.018.82-.011.431-.003.854-.16 1.197-.415.24-.265.65.074.43.357-.54.512-1.341.683-2.065.595l-.259-.024c-.24-.024-.32-.37-.123-.504v.002Zm-.903-.196c.153 0 .277.137.273.287a.284.284 0 0 1-.287.273.282.282 0 0 1-.273-.287.284.284 0 0 1 .287-.273ZM13.067 48.803c-.16-.1-.302-.22-.458-.32-.162-.145-.305-.306-.484-.432-.116-.101-.227-.28-.323-.387-.125.12-.256.233-.325.32-.6.598-1.184 1.209-1.789 1.799-.512.55-1.07 1.054-1.576 1.51-.473.411-.972.832-1.498 1.21-.568.495-1.132.994-1.681 1.51-1.047.881-2.194 1.689-2.928 2.861C1.279 58.104.84 59.76 1.77 61c.378.505.992.764 1.565.984.866.19 1.75.025 2.512-.41.765-.4 1.313-1.073 1.845-1.736.324-.4.619-.822.884-1.264 1.227-2.015 2.113-4.213 3.316-6.242.618-1.047 1.229-2.115 2.17-2.9-.23-.12-.436-.301-.659-.436a1.254 1.254 0 0 0-.338-.193l.001.001Zm-4.499 8.185c-.059.2-.292.318-.467.178a.283.283 0 0 1-.06-.373c.134-.364.669-.17.527.194v.001Zm2.635-4.478c-.286.286-.492.64-.68.994-.29.56-.56 1.13-.857 1.687-.133.233-.29.453-.443.674-.078.128-.254.178-.383.097-.353-.25.085-.596.217-.848.48-.783.806-1.666 1.299-2.436a3.67 3.67 0 0 1 .457-.571c.264-.253.649.142.39.402v.001ZM15.61 53.36a5.364 5.364 0 0 0-.134.33c-.105.492-.19.99-.267 1.487.013.34.087.672.249.971.207.265.456.505.7.738.267.16.561.281.86.368.527.032 1.09-.123 1.552-.38.595-1.36-.44-2.433-.828-3.848-.138-.607-.13-1.238-.053-1.854-.912.476-1.6 1.28-2.08 2.189h.002Zm2.387 2.27c.153 0 .277.137.273.287a.284.284 0 0 1-.287.273.282.282 0 0 1-.273-.287.284.284 0 0 1 .287-.273ZM14.91 53.613c.1-.478.223-.953.386-1.418.169-.548.372-1.082.616-1.6-.733.194-1.396.556-2.034.964-.63.43-1.227.934-1.69 1.544a17.64 17.64 0 0 0-.91 1.737c-.281.548-.508 1.12-.756 1.683-.184.548-.415 1.017-.445 1.59-.13 1.064.473 2.611 1.443 3.116.133.046.262.105.405.11a.317.317 0 0 1 .075.023c1.256-.392 1.759-1.858 2.121-3.003.26-1.08.38-2.184.538-3.277a4.382 4.382 0 0 1 .252-1.467l-.002-.002Zm-1.545 2.196c-.372-.053-.273-.69.098-.63.373.054.272.69-.098.63Zm1.155-2.723c-.122.203-.24.407-.32.631-.143.272-.101.92-.544.833a.284.284 0 0 1-.191-.348c.077-.244.138-.493.23-.733.083-.238.216-.454.344-.671a.281.281 0 0 1 .383-.097c.133.08.172.25.098.384v.001Z"/><path fill="#FFD8A0" d="M58.275 19.229a5.216 5.216 0 0 1-.078 3.35c-1.328 3.688-5.786 4.568-8.472 2.328.279.44.567.875.896 1.282.806.982 1.792 1.816 2.861 2.497 1.734 1.244 3.798 1.802 5.89 1.993.128-.146.136-.35.17-.531.117-.51.182-1.026.22-1.549.232-1.735.1-3.5-.1-5.229-.242-1.432-.677-2.846-1.377-4.123l-.013-.018h.003Z"/><path fill="#F1BC6F" d="M57.488 22.832c1.575-3.305-1.054-7.125-4.693-6.844-3.963.299-5.858 5.049-3.217 7.999 2.273 2.552 6.471 1.928 7.909-1.155h.001Zm-7.248-.984c-.442-1.232-.069-2.472.73-3.303l-.029.122c-.012.071-.02.14-.02.213 0 .064.006.13.015.195.008.086.011.172.032.257.02.077.046.16.084.23.09.166.235.301.388.408a2.322 2.322 0 0 0 .712.315c.09.019.18.024.272.026.087.001.173.002.26 0a.859.859 0 0 0 .288-.056c.07-.026.138-.056.203-.092l-.008.006.018-.01.013-.007-.007.003c.136-.076.264-.161.37-.276a2.23 2.23 0 0 0 .25-.314 1.29 1.29 0 0 0 .122-.224c.028-.07.047-.146.063-.22.012-.066.025-.133.04-.198.017-.073.032-.146.04-.22.007-.09 0-.18-.012-.27a1.869 1.869 0 0 0-.053-.264 1.088 1.088 0 0 0-.117-.248.889.889 0 0 0-.163-.192 1.388 1.388 0 0 0-.24-.18c.214.016.43.053.649.114 2.335.618 3.166 3.619 1.48 5.351-1.633 1.74-4.617 1.092-5.38-1.166Z"/><path fill="#F1BC6F" d="m52.988 20.249-.017.006-.017.007.034-.013Z"/><path fill="#D19C4F" d="M57.248 13.518a6.731 6.731 0 0 0-.433-.205c-.942-.509-1.972-.798-3.015-1.023-.94-.19-1.883-.383-2.844-.376-.713.018-1.428-.018-2.14.04-.767.127-1.528.3-2.287.469-.631.171-1.23.443-1.845.664a21.969 21.969 0 0 0-3.113 1.737c-.663.42-1.309.869-1.89 1.399a24.604 24.604 0 0 0-4.508 5.257c-.426.718-.833 1.447-1.256 2.17-.402.74-.718 1.525-1.108 2.272-.909 1.98-1.802 3.976-2.253 6.116-.198.984-.418 2.023-.235 3.012.078.205.281.34.469.438a.312.312 0 0 0 .127.028c.508-.062.927-.404 1.294-.722.64-.74 1.07-1.65 1.545-2.5.68-1.203 1.158-2.51 1.87-3.695a24.317 24.317 0 0 1 2.138-3.108c1.023-1.368 2.693-2.167 4.397-2.145.786.041 1.658.226 2.24.792.903.85 1.17 2.102 1.202 3.298-.017 1.247-.373 2.461-.774 3.634-.898 2.744-1.862 5.47-3.146 8.06a33.383 33.383 0 0 1-3.656 5.927c-.738.935-1.55 1.81-2.327 2.713-.894 1.015-1.913 1.968-2.53 3.189-.392.765.257 1.338 1.008 1.39.821-.087 1.509-.638 2.218-1.017.546-.328 1.093-.66 1.565-1.092.769-.87 1.551-1.738 2.222-2.69.718-1.05 1.317-2.105 1.903-3.22 1.82-3.48 3.135-7.172 4.438-10.865.36-.926.548-1.958 1.187-2.745.378-.476.856-.994 1.495-1.057 1.321-.171 1.397 1.153 1.364 2.134-.043.834-.127 1.674-.425 2.46-.728 1.93-1.373 3.896-2.195 5.788-1.237 2.681-2.86 5.172-4.572 7.571-.471.63-.985 1.267-1.392 1.937-.184.313-.359.634-.467.981-.026.13-.068.289.026.4.44.437 1.684-.267 2.09-.575.627-.433 1.052-1.08 1.654-1.546.553-.552 1.001-1.195 1.42-1.853a32.465 32.465 0 0 0 2.126-3.68c.85-1.59 1.507-3.266 2.182-4.933.627-1.552 1.257-3.1 1.823-4.673.226-.776 1.345-1.487 1.966-.719.307.495.262 1.133.237 1.693-.06.87-.347 1.696-.634 2.512-.301.874-.802 1.656-1.169 2.501-.746 1.653-1.43 3.354-2.405 4.887-.558 1.042-1.345 2.017-1.859 3.057-.09.228-.21.48-.143.73.276.28.705.142 1.008-.02.87-.474 1.519-1.227 2.112-2.005.768-.854 1.353-1.902 1.841-2.938.966-2.248 1.814-4.543 2.715-6.818.272-.586.65-1.62 1.392-1.666.27-.013.54.136.657.385.298.732.235 1.588.042 2.34-.65 2.132-1.821 4.057-2.873 6.008-.225.402-.375.82-.533 1.248-.218.558-.45 1.14-.393 1.75.014.053.002.117.051.15.156.051.33-.005.478-.061.322-.139.637-.301.887-.55.557-.605 1.001-1.317 1.403-2.033.735-1.215 1.288-2.517 1.891-3.8.658-1.541 1.106-3.158 1.61-4.753.873-2.787 1.268-5.699 1.327-8.613.018-1.223-.199-2.437-.295-3.646-.223-1.678-.591-3.337-1.195-4.921-.313-.852-.508-1.771-.985-2.55-.148-.247-.46-.474-.547-.734-.597-.572-1.257-1.089-1.985-1.487h-.007a.267.267 0 0 1-.182-.1l-.004-.003ZM32.953 29.05a29.347 29.347 0 0 0-.931 2.246c-.1.387-.288.758-.326 1.15-.077.297-.507.253-.546-.026-.05-.198.057-.393.116-.578a14.21 14.21 0 0 1 .537-1.532c.205-.505.404-1.016.647-1.503.07-.204.238-.372.46-.251.191.108.148.339.044.493l-.001.002Zm.561-1.372a.284.284 0 0 1-.281-.279c0-.152.126-.281.278-.281.153 0 .28.126.282.279a.283.283 0 0 1-.279.281Zm6.023 19.261c-.173.233-.35.461-.532.688a14.582 14.582 0 0 1-1.404 1.566c-.572.531-1.184 1.019-1.86 1.407-.126.085-.306.04-.386-.087a.283.283 0 0 1 .087-.387c1.161-.671 2.141-1.618 2.977-2.663.225-.279.448-.56.662-.848a.283.283 0 0 1 .39-.065c.122.087.157.269.066.39Zm.294-1.142c-.367-.084-.215-.708.146-.617.367.084.218.707-.146.617Zm7.797-2.32c-.133.228-.274.45-.399.682-.225.457-.476.9-.82 1.28-.185.228-.378.45-.554.685a.282.282 0 0 1-.359.155.283.283 0 0 1-.162-.361c.295-.5.756-.899 1.06-1.38.242-.444.471-.896.741-1.324a.282.282 0 0 1 .378-.115c.13.07.194.247.115.379Zm.262-1.05c-.414-.041-.277-.819.124-.722.357.074.234.768-.124.723Zm2.25 4.907a.284.284 0 0 1-.288-.273.282.282 0 0 1 .273-.287c.153 0 .283.118.287.273a.282.282 0 0 1-.273.288Zm-3.114-22.642c-.12.082-.31.057-.389-.073-.158-.258-.383-.552-.554-.78-.41-.523-.832-1.048-1.355-1.462-.424-.065-.256-.676.14-.558.399.192.687.565.995.874.365.412.703.848 1.025 1.294.137.199.414.5.137.705h.001Zm.612 1.519c-.153 0-.274-.144-.269-.291a.286.286 0 0 1 .291-.27c.152 0 .275.145.27.292a.286.286 0 0 1-.292.269Zm11.103 6.674a9.851 9.851 0 0 1-.858-.125c-.116-.022-.225-.05-.297-.154-.15-.216.101-.519.34-.41.292.064.577.1.874.131.364.046.308.586-.057.558h-.002Zm.911.049a.284.284 0 0 1-.287-.273.282.282 0 0 1 .273-.288c.153 0 .283.118.287.274a.282.282 0 0 1-.273.287Zm.76-7.341c.094 1.312-.01 2.635-.176 3.927-.16.698-.136 1.992-1.2 1.678-.463-.087-.937-.086-1.4-.185-1.626-.337-3.203-.946-4.556-1.925-1.219-.786-2.334-1.766-3.191-2.943-.437-.566-.78-1.197-1.169-1.794-.686-1.002-1.383-2.02-2.314-2.811-1.384-.963-3.116-1.382-4.789-1.228-.445.073-.876.206-1.304.346-.297.098-.612.18-.867.369-.19.17-.432.342-.695.23-.377-.194-.518-.585-.314-.969.151-.438.477-.772.743-1.134.384-.515.875-.825 1.318-1.264.814-.688 1.667-1.372 2.609-1.872.71-.456 1.495-.774 2.237-1.175 1.342-.623 2.843-.776 4.308-.758 2.808.087 5.695 1.067 7.677 3.118.638.617 1.227 1.305 1.635 2.1.256.541.473 1.099.681 1.66.514 1.488.725 3.059.766 4.627l.002.003Zm-.908-7.626c.153 0 .274.145.269.292a.286.286 0 0 1-.291.269c-.151 0-.275-.144-.27-.292a.286.286 0 0 1 .292-.269Zm-.508-.93c.09.123.05.305-.073.39-.277.179-.445-.156-.59-.341-.434-.516-.881-1.055-1.463-1.409-.307-.2-.007-.665.302-.47.736.456 1.303 1.147 1.824 1.83Z"/><path fill="#FFD8A0" d="M53.579 15.432h.004a12.029 12.029 0 0 0-4.286-.788h.036c-1.227.013-2.489.162-3.621.652-.874.437-1.805.869-2.625 1.385-.883.492-1.657 1.154-2.419 1.816-.23.224-.497.427-.726.638-.205.208-.394.46-.57.685-.199.256-.402.531-.472.848l.045.046c.287-.252.6-.47.979-.518.558-.183 1.117-.372 1.702-.449 1.435-.11 2.902.143 4.19.796.929.43 1.636 1.15 2.259 1.947-1.207-3.536 1.62-7.376 5.506-7.058h-.002Z"/><path fill="#D19C4F" d="M2.206 46.51a4.44 4.44 0 0 0 1.222.86c1.036.46 2.19.26 3.243-.019.999-.245 1.889-.803 2.605-1.533.376-.311.612-.733.801-1.169-.777.205-1.584.163-2.38.166a55.525 55.525 0 0 0-2.465-.03 4.52 4.52 0 0 0-1.345.152c-.74.204-1.436.73-1.793 1.422.02.021.038.044.05.072.03.037.038.051.062.08Zm3.935-1.096c.427.024.802-.1 1.214-.168.294-.207.618.24.326.456-.177.129-.412.112-.615.17a3.48 3.48 0 0 1-.94.103c-.366-.017-.353-.56.015-.56Zm-1.146.091c.152 0 .277.138.272.288a.284.284 0 0 1-.287.273.282.282 0 0 1-.272-.287.284.284 0 0 1 .287-.274Z"/><path fill="#F1BC6F" d="M14.752 49.103c.142.073.286.142.433.205.942.508 1.972.797 3.015 1.023.94.19 1.883.383 2.845.375.712-.018 1.427.019 2.138-.039.768-.127 1.529-.3 2.288-.47.631-.17 1.23-.442 1.845-.664a21.968 21.968 0 0 0 3.113-1.736c.663-.42 1.309-.869 1.89-1.399a24.601 24.601 0 0 0 4.508-5.257c.426-.719.833-1.448 1.256-2.17.402-.74.718-1.526 1.108-2.273.909-1.98 1.802-3.976 2.253-6.116.199-.984.418-2.022.235-3.012-.078-.204-.281-.339-.469-.437a.312.312 0 0 0-.127-.028c-.508.062-.927.404-1.294.722-.64.74-1.07 1.65-1.545 2.5-.68 1.203-1.158 2.509-1.87 3.695a24.338 24.338 0 0 1-2.138 3.108c-1.023 1.368-2.693 2.167-4.396 2.144-.787-.04-1.66-.225-2.242-.791-.902-.85-1.17-2.103-1.2-3.298.016-1.248.372-2.461.774-3.634.897-2.744 1.861-5.47 3.145-8.06a33.384 33.384 0 0 1 3.656-5.927c.738-.935 1.55-1.811 2.327-2.714.894-1.014 1.913-1.967 2.53-3.188.392-.765-.257-1.339-1.008-1.39-.821.086-1.508.637-2.218 1.017-.546.328-1.093.66-1.565 1.092-.769.87-1.551 1.738-2.222 2.69-.718 1.05-1.317 2.104-1.903 3.22-1.82 3.48-3.135 7.171-4.438 10.864-.36.927-.548 1.958-1.187 2.746-.378.475-.856.994-1.495 1.057-1.321.17-1.397-1.154-1.364-2.135.043-.834.127-1.673.425-2.46.728-1.93 1.373-3.895 2.195-5.788 1.237-2.68 2.86-5.171 4.572-7.57.471-.631.985-1.268 1.393-1.937.183-.313.358-.634.466-.981.026-.13.068-.29-.026-.4-.44-.437-1.683.266-2.09.575-.627.433-1.052 1.08-1.654 1.546-.553.552-1 1.195-1.42 1.852a32.457 32.457 0 0 0-2.126 3.68c-.85 1.59-1.507 3.266-2.182 4.934-.627 1.552-1.257 3.099-1.823 4.673-.226.776-1.345 1.487-1.966.719-.307-.495-.262-1.133-.237-1.693.06-.87.347-1.696.634-2.512.301-.874.802-1.656 1.17-2.502.745-1.652 1.43-3.353 2.404-4.887.559-1.04 1.345-2.016 1.859-3.056.09-.229.21-.481.143-.73-.276-.28-.704-.142-1.008.02-.87.474-1.519 1.227-2.112 2.005-.768.853-1.353 1.901-1.841 2.937-.966 2.248-1.814 4.544-2.714 6.819-.273.585-.651 1.62-1.393 1.666a.693.693 0 0 1-.657-.385c-.298-.732-.235-1.588-.042-2.341.65-2.132 1.821-4.056 2.873-6.007.225-.402.375-.821.533-1.249.218-.557.45-1.139.393-1.75-.014-.052-.003-.116-.052-.149-.155-.052-.328.005-.477.06-.322.14-.637.302-.887.55-.557.605-1.001 1.317-1.403 2.034-.735 1.215-1.288 2.517-1.891 3.8-.658 1.54-1.106 3.158-1.61 4.753-.873 2.786-1.268 5.699-1.327 8.612-.018 1.224.199 2.438.296 3.647.222 1.678.59 3.337 1.194 4.92.313.853.508 1.772.985 2.55.148.248.46.475.547.734A9.482 9.482 0 0 0 14.56 49h.007a.267.267 0 0 1 .182.1l.005.004ZM39.047 33.57c.345-.733.649-1.485.931-2.245.1-.387.289-.758.326-1.15.077-.298.507-.253.546.026.05.198-.057.392-.116.577a14.18 14.18 0 0 1-.537 1.532c-.205.506-.404 1.016-.647 1.504-.07.203-.238.371-.46.251-.191-.108-.148-.34-.044-.493l.001-.002Zm-.561 1.372c.153 0 .28.126.281.28a.283.283 0 0 1-.278.28.284.284 0 0 1-.281-.278c0-.153.126-.282.278-.282Zm-6.023-19.26c.173-.233.35-.462.532-.689.434-.548.894-1.085 1.404-1.565.572-.531 1.184-1.02 1.86-1.407.126-.086.306-.04.386.087a.283.283 0 0 1-.087.386c-1.161.672-2.141 1.62-2.977 2.663-.225.28-.448.56-.662.848a.283.283 0 0 1-.39.066.283.283 0 0 1-.066-.391v.001Zm-.294 1.142c.367.084.215.707-.146.616-.367-.084-.218-.706.146-.616Zm-7.797 2.32c.133-.228.274-.45.399-.682.225-.457.476-.901.82-1.281.185-.227.378-.45.554-.684a.282.282 0 0 1 .359-.155.284.284 0 0 1 .162.361c-.295.5-.756.899-1.06 1.38-.242.444-.471.896-.741 1.324a.282.282 0 0 1-.378.114c-.13-.07-.193-.246-.115-.378Zm-.262 1.049c.415.042.277.82-.125.723-.356-.074-.233-.768.125-.723Zm-2.25-4.907c.153 0 .283.118.288.274a.282.282 0 0 1-.273.287.284.284 0 0 1-.287-.274.282.282 0 0 1 .273-.287Zm3.114 22.643c.12-.083.31-.058.389.073.158.258.384.552.554.78.41.523.832 1.047 1.355 1.462.424.065.256.676-.14.558-.399-.192-.687-.565-.995-.874a16.55 16.55 0 0 1-1.025-1.294c-.137-.2-.414-.5-.137-.705h-.001Zm-.612-1.52c.153 0 .274.145.269.292a.286.286 0 0 1-.291.27c-.151 0-.275-.145-.27-.292a.286.286 0 0 1 .292-.27ZM13.26 29.737c.287.028.574.071.858.124.116.023.225.05.297.155.15.215-.101.518-.339.41a7.715 7.715 0 0 0-.875-.131c-.364-.047-.308-.586.058-.558Zm-.911-.05c.152 0 .282.118.287.274a.282.282 0 0 1-.273.287.284.284 0 0 1-.287-.273.282.282 0 0 1 .273-.287Zm-.76 7.342c-.094-1.312.01-2.635.176-3.927.16-.698.136-1.992 1.2-1.678.463.087.937.086 1.4.185 1.626.337 3.203.946 4.556 1.924 1.219.787 2.334 1.766 3.191 2.944.437.566.78 1.196 1.169 1.794.686 1.002 1.383 2.02 2.314 2.81 1.384.964 3.116 1.383 4.789 1.229.445-.073.876-.206 1.304-.346.297-.099.612-.18.867-.37.19-.169.432-.341.695-.229.377.193.518.584.314.969-.151.438-.477.772-.743 1.133-.384.516-.875.826-1.317 1.264-.815.689-1.668 1.373-2.61 1.873-.71.455-1.495.773-2.237 1.174-1.342.624-2.843.777-4.308.758-2.808-.086-5.695-1.066-7.677-3.118-.638-.617-1.227-1.305-1.635-2.1a20.887 20.887 0 0 1-.681-1.659c-.514-1.488-.726-3.06-.766-4.627l-.002-.003Zm.908 7.625c-.153 0-.274-.144-.269-.291a.286.286 0 0 1 .291-.27c.152 0 .275.145.27.292a.286.286 0 0 1-.292.27Zm.508.93a.283.283 0 0 1 .073-.389c.277-.18.445.156.59.34.435.517.881 1.056 1.463 1.41.307.2.007.665-.302.47-.736-.457-1.303-1.148-1.824-1.83Z"/><path fill="#FFD8A0" d="M18.421 47.189h-.004c1.366.524 2.82.785 4.286.787h-.036c1.227-.012 2.489-.16 3.621-.651.874-.438 1.805-.87 2.625-1.385.883-.492 1.657-1.155 2.419-1.816.23-.225.497-.428.726-.638.205-.209.394-.46.57-.685.199-.257.402-.532.472-.848a.725.725 0 0 0-.045-.047c-.287.253-.6.47-.979.519-.558.182-1.117.371-1.702.449-1.435.11-2.902-.144-4.19-.797-.929-.43-1.636-1.149-2.259-1.946 1.207 3.536-1.62 7.376-5.506 7.058h.002Z"/><path fill="#F1BC6F" d="m40.852 30.207.003.044c0-.015 0-.03-.003-.044Z"/><path fill="#000" d="M36.024 43.255c.794-.991 1.454-2.073 2.066-3.182.448-.73.84-1.492 1.184-2.277.815-1.63 1.547-3.3 2.14-5.027.495-1.437 1.147-3.932.783-5.403-.69-1.357-1.922-.757-2.787.052-.305.281-.508.65-.722 1-.458.725-.85 1.485-1.253 2.24-.19.346-.354.703-.513 1.066-.573 1.307-1.3 2.541-2.112 3.712-.935 1.386-2.037 2.793-3.764 3.147-.962.22-2.066.2-2.907-.365-1.114-.935-1.29-2.544-1.112-3.906.276-1.754 1.014-3.454 1.544-5.156 1.614-4.57 3.773-9.044 7.046-12.663.89-1.065 1.87-2.052 2.752-3.124.45-.61 1.002-1.222 1.125-1.994.16-.965-.829-1.65-1.702-1.657-.524.018-.998.273-1.453.513-.487.262-.963.547-1.434.838-.515.313-1.024.659-1.434 1.104-.238.282-.47.57-.723.841-2.23 2.482-3.635 5.556-5.015 8.562-.993 2.33-1.82 4.729-2.682 7.111-.328.843-.526 1.71-.95 2.516-.398.585-1.052 1.498-1.854 1.123-.463-.722-.2-1.835-.152-2.653.191-1.11.692-2.136 1.06-3.194.282-.787.56-1.576.86-2.355 1.004-2.649 2.53-5.048 4.085-7.4.93-1.508 2.302-2.766 2.913-4.455.197-.534-.072-1.117-.639-1.248-.616-.113-1.219.17-1.766.424-.493.283-.968.625-1.346 1.052-.271.34-.607.616-.929.906-1.088 1.104-1.845 2.487-2.66 3.795-1.279 2.24-2.325 4.6-3.261 7.002-.463 1.176-.956 2.34-1.397 3.523-.25.544-.298 1.281-.841 1.623-.163.095-.405.157-.54-.012l.01.004c-.288-.78-.103-1.67.075-2.46.179-.575.36-1.15.592-1.707.364-.8.808-1.558 1.135-2.375.603-1.328 1.18-2.68 1.902-3.949a74.74 74.74 0 0 1 1.64-2.625c.368-.646 1.042-1.502.63-2.259-.353-.45-.997-.468-1.488-.252-.979.444-1.746 1.243-2.382 2.092-1.093 1.213-1.861 2.683-2.453 4.197-.488 1.118-.906 2.263-1.357 3.395-.34.878-.675 1.758-1.029 2.63-.193.465-.949 1.928-1.076.622-.14-1.026.252-2.004.633-2.935.434-.916.876-1.83 1.359-2.722.362-.677.753-1.337 1.103-2.02.36-.86 1.81-3.947-.153-3.663-.932.222-1.639.918-2.125 1.717-.385.52-.679 1.08-1.002 1.64-.432.681-.717 1.44-1.078 2.158-.568 1.127-1.027 2.304-1.425 3.503-.824 2.594-1.652 5.206-1.922 7.928-.126.984-.165 1.977-.215 2.968-.06 1.559.187 3.098.355 4.643a22.72 22.72 0 0 0 1 4.142c.047-.01.094-.023.141-.031a.275.275 0 0 1 .18.03c.14.033.257.165.218.329l-.006.02c-.018.072-.04.144-.063.214.193.076.2.343.105.532a.27.27 0 0 1 .063.167c.014-.003.027-.003.04-.003a.284.284 0 0 1 .353.103c.058.09.055.196.007.283.037.209.012.426.019.636-.002.107-.01.212-.02.317.18-.065.393.084.372.283.04.007.077.024.114.048a.276.276 0 0 1 .036.01c.115.064.167.137.18.212.073.094.142.191.21.251.107.167.25.293.41.41.158.196.372.313.564.47.38.162.685.452 1.041.658a.734.734 0 0 0 .237.064c-.727-.398-1.389-.916-1.985-1.487-.088-.259-.4-.486-.548-.734-.477-.778-.672-1.699-.985-2.55-.602-1.583-.97-3.243-1.194-4.92-.098-1.21-.315-2.422-.296-3.647.06-2.914.454-5.826 1.328-8.612.503-1.595.951-3.212 1.61-4.754.604-1.282 1.155-2.584 1.89-3.8.402-.716.846-1.428 1.403-2.033.252-.25.565-.41.887-.55.149-.054.322-.112.478-.06.049.033.038.097.052.149.056.61-.175 1.192-.394 1.75-.16.428-.308.847-.533 1.249-1.051 1.95-2.224 3.875-2.873 6.007-.193.753-.256 1.607.043 2.34.117.25.386.397.656.386.742-.046 1.12-1.08 1.393-1.667.9-2.274 1.748-4.57 2.714-6.818.487-1.036 1.072-2.085 1.84-2.938.593-.777 1.242-1.53 2.113-2.005.304-.161.73-.299 1.008-.02.067.248-.053.5-.143.73-.515 1.04-1.302 2.014-1.859 3.057-.974 1.535-1.659 3.235-2.405 4.887-.366.845-.869 1.627-1.168 2.502-.287.816-.574 1.641-.635 2.511-.023.561-.07 1.2.237 1.694.622.768 1.74.057 1.967-.72.565-1.573 1.195-3.122 1.822-4.672.675-1.668 1.333-3.344 2.183-4.933a32.457 32.457 0 0 1 2.124-3.68c.419-.658.868-1.301 1.421-1.854.602-.465 1.028-1.112 1.653-1.545.408-.309 1.65-1.012 2.092-.575.093.11.052.269.025.4-.108.347-.283.668-.466.98-.408.67-.921 1.307-1.393 1.937-1.712 2.4-3.334 4.889-4.572 7.571-.821 1.894-1.467 3.859-2.195 5.788-.298.787-.383 1.626-.425 2.46-.034.983.043 2.306 1.365 2.135.637-.064 1.117-.582 1.495-1.057.636-.79.824-1.82 1.187-2.746 1.304-3.693 2.619-7.384 4.437-10.864.587-1.116 1.186-2.17 1.904-3.22.67-.952 1.453-1.82 2.221-2.69.472-.432 1.02-.763 1.565-1.092.708-.38 1.397-.93 2.219-1.018.75.052 1.4.625 1.008 1.39-.616 1.221-1.637 2.175-2.531 3.19-.777.902-1.589 1.776-2.327 2.712a33.455 33.455 0 0 0-3.656 5.927c-1.284 2.59-2.248 5.316-3.145 8.06-.4 1.172-.758 2.386-.774 3.635.03 1.195.298 2.448 1.2 3.297.582.565 1.454.752 2.242.792 1.702.023 3.373-.776 4.396-2.144a24.22 24.22 0 0 0 2.138-3.109c.712-1.185 1.19-2.491 1.87-3.694.475-.85.906-1.76 1.546-2.5.366-.32.785-.66 1.293-.722a.312.312 0 0 1 .127.028c.187.098.39.233.47.437.183.99-.039 2.028-.236 3.012-.45 2.139-1.342 4.135-2.252 6.116-.39.747-.707 1.532-1.109 2.273-.421.722-.83 1.451-1.256 2.17a24.643 24.643 0 0 1-4.507 5.257c-.582.531-1.227.978-1.89 1.399a22.02 22.02 0 0 1-3.114 1.736c-.615.222-1.214.493-1.845.665-.759.168-1.52.342-2.287.469-.711.057-1.427.021-2.14.04-.96.005-1.904-.187-2.844-.376-1.042-.226-2.071-.515-3.015-1.023a7.168 7.168 0 0 1-.432-.205.283.283 0 0 1 .064.21.277.277 0 0 1-.134.206c.176.087.378.227.656.231.128.009.256 0 .384-.015.176-.02.29.116.303.26.08-.016.16-.033.24-.047.305-.062.44.306.262.475.049 0 .098.003.144.011.288-.03.669-.308.924-.09.068.083.09.16.08.226l.128-.056a.285.285 0 0 1 .353.042c.007.006.011.014.017.021.12.073.136.202.12.345.857.186 1.722.325 2.604.342.954-.028 1.926.074 2.867-.129.589-.127 1.181-.237 1.768-.376 1.216-.354 2.409-.826 3.5-1.477 1.224-.657 2.42-1.407 3.48-2.31 1.306-1.098 2.463-2.372 3.511-3.718l-.004-.01ZM6.226 52.097c.308-.22.602-.456.885-.698.763-.642 1.552-1.305 2.226-2.055l-.091.091c-.98.918-2.008 1.782-3.02 2.663v-.001ZM9.542 57.85c.068-.444.206-.88.376-1.29.232-.643.519-1.268.816-1.883.422-.845.782-1.764 1.462-2.44.252-.25.521-.49.801-.716a.279.279 0 0 1-.088-.288c.024-.134.157-.182.235-.277.248-.276.48-.565.708-.858v-.001a.29.29 0 0 1 .185-.257.974.974 0 0 1 .242-.32 1.273 1.273 0 0 1-.212-.086c-.943.785-1.551 1.853-2.171 2.9-1.203 2.03-2.089 4.227-3.317 6.242-.266.441-.56.863-.883 1.264-.532.663-1.08 1.336-1.845 1.737-.761.434-1.646.6-2.512.409-.573-.22-1.188-.478-1.565-.984-.931-1.239-.493-2.896.233-4.125.735-1.174 1.883-1.981 2.929-2.861a57.034 57.034 0 0 1 1.68-1.51c-.577.416-1.19.783-1.843 1.032.136.329-.476.536-.672.713-.257.192-.526.454-.832.548.082.046.138.12.134.25-.011.148-.151.278-.3.259a3.256 3.256 0 0 1-.43-.1c-.032.032-.064.063-.096.097-1.344 1.284-2.416 3.528-1.63 5.354.234.562.62 1.07 1.16 1.366.604.359 1.268.64 1.983.592 2.082.025 3.65-1.65 4.867-3.583.014-.36.053-.721.097-1.078a.284.284 0 0 1 .491-.106h-.003ZM11.68 47.528c-.08.104-.176.18-.265.182-.113.182-.236.443-.481.451h-.04c-.314.582-.74 1.121-1.205 1.623.607-.59 1.19-1.2 1.79-1.798.068-.088.2-.199.324-.32l-.024-.027a5.247 5.247 0 0 0-.098-.11l-.001-.001Z"/><path fill="#000" d="M12.103 47.15c-.014-.078-.066-.15-.18-.214l-.037-.01c.078.052.15.137.217.224ZM3.064 54.831a.735.735 0 0 1-.3-.053c-.41-.101-2.309-.858-2.01-1.4a.303.303 0 0 1-.082-.355c-.048-.04-.097-.077-.141-.12-.213-.21-.686-.536-.378-.84a.282.282 0 0 1 .393.044l.032.039a2.454 2.454 0 0 1 .505-1.852c.604-.769 1.57-1.12 2.488-1.4.985-.304 2.024-.448 2.991-.83.569-.18 1.144-.336 1.698-.554.534-.24 1.053-.515 1.562-.802.355-.213.702-.436 1.046-.664a2.155 2.155 0 0 0-.04-.331.33.33 0 0 1-.05-.108.456.456 0 0 1-.21.073c-.179.255-.775 1.06-1.152.92a7.487 7.487 0 0 1-1.27.89l.012-.006.015-.009a.322.322 0 0 1-.327.046 7.285 7.285 0 0 1-3.473.66c.071.146.003.34-.16.392-.126.043-.252-.009-.373-.042-.128.1-.311.058-.464.054-.16-.004-.317.002-.477.006.018.193-.175.398-.406.283a1.502 1.502 0 0 1-.199-.12 5.335 5.335 0 0 0-1.244.756c-1.335 1.196-1.327 3-.372 4.43.249.327.57.58.933.767.33.209.686.387 1.06.5.127-.129.257-.255.393-.374ZM11.399 45.61l.004.032a.274.274 0 0 0-.007-.284.281.281 0 0 0-.353-.102c.168 0 .314.178.356.355Z"/><path fill="#000" d="M3.4 55.047c.004-.132-.05-.205-.134-.25a.757.757 0 0 1-.202.034c-.136.12-.266.245-.393.374.14.044.284.078.43.1.15.02.29-.112.3-.258ZM2.61 48.592a.27.27 0 0 1-.229-.152c-.323-.117-.432-.476-.637-.723-.112-.195-.344-.41-.236-.65.056-.118.19-.168.31-.145-.211-.23-.308-.466-.037-.626a.281.281 0 0 1 .313.066c.357-.693 1.053-1.218 1.793-1.423.45-.12.864-.164 1.345-.151a57.852 57.852 0 0 1 2.464.03c.797-.003 1.604.039 2.381-.166.056-.129.108-.26.157-.388a.362.362 0 0 1 .132-.075.692.692 0 0 1 .015-.05c.005-.013.014-.021.02-.032-.012-.037-.026-.072-.038-.107-.34.075-.674.18-1.02.23-.433.045-.813.016-1.262.025-.95-.007-1.9-.04-2.851-.028-.66-.02-1.347.08-1.966.327-.78.39-1.486.995-1.794 1.834-.114.257-.19.54-.12.819.134.59.439 1.195.944 1.547.13-.057.26-.11.39-.161h-.073v-.001ZM10.685 43.998a.284.284 0 0 0-.18-.03c-.049.008-.095.021-.142.03.012.037.026.072.039.107a.258.258 0 0 1 .283-.109v.002Z"/><path fill="#000" d="M2.899 48.589c-.071.001-.141.003-.213.003-.131.05-.262.103-.39.16.063.044.128.085.198.121.231.115.423-.09.406-.283L2.9 48.59ZM15.21 55.177c.077-.497.164-.995.267-1.487-.172.468-.286.987-.267 1.487ZM15.82 51.45c.146-.11.275-.23.395-.372-.238 0-.365-.327-.186-.485.02-.015.04-.03.063-.043l-.18.044a12.008 12.008 0 0 0-.616 1.6c-.163.466-.286.94-.387 1.418.22-.628.57-1.217 1.011-1.723-.155-.074-.217-.3-.1-.44ZM14.509 56.968a.298.298 0 0 1 .092-.127c-.127-.254.087-.55.367-.435a1.733 1.733 0 0 1-.207-.456 3.828 3.828 0 0 1-.104-.87c-.156 1.095-.277 2.198-.537 3.277-.363 1.145-.865 2.611-2.12 3.004.27.119.174.574-.16.53a1.997 1.997 0 0 1-.524-.143c-.225.141-.68-.012-.921-.013-.279-.062-.823-.011-.794-.425-.14-.098-.16-.33-.022-.44a.294.294 0 0 1-.025-.258c-.265-.088-.265-.406-.12-.602-.17-.19-.225-.373-.06-.59-.205-.206-.19-.726.14-.76a3.424 3.424 0 0 1 .003-.575c-.178.319-.365.637-.561.948-.022.598.027 1.194.258 1.76a1.52 1.52 0 0 0 1.065 1.24c.785.215 1.983-.044 2.652-.501 1.154-.967 1.638-2.425 1.907-3.88a3.204 3.204 0 0 1-.26-.386.291.291 0 0 1-.069-.299v.001ZM16.53 50.423l-.004.004h.003v-.004Z"/><path fill="#000" d="M9.542 57.85a.284.284 0 0 0-.49.106 13.82 13.82 0 0 0-.098 1.078c.196-.311.384-.628.562-.947.007-.08.015-.159.026-.237ZM18.115 50.98c-.147.056-.288.12-.424.19-.077.617-.086 1.248.053 1.855.386 1.415 1.42 2.489.827 3.848l.04-.021c.3-.21.624.229.331.451a1.814 1.814 0 0 1-.375.206.267.267 0 0 1-.174.283c-.302.103-.62.15-.932.208-.295.083-.584.256-.893.268-.074-.012-.134-.055-.195-.096a.305.305 0 0 1-.12-.152c-.329-.086-.598-.292-.899-.436a1.383 1.383 0 0 1-.445-.348 21.41 21.41 0 0 1-.071.415c.358.46.851.817 1.425.946 1.726.26 2.96-.866 3.063-2.575.005-.884-.474-1.68-.812-2.47-.308-.7-.373-1.44-.279-2.2-.003-.124.044-.285.06-.432l-.1-.022a.233.233 0 0 1-.077.08l-.003.002Z"/><path fill="#000" d="M18.174 50.578a.293.293 0 0 1 .02.323l.1.021c.015-.143 0-.272-.12-.344ZM14.653 56.92a.388.388 0 0 1-.052-.08.299.299 0 0 0-.092.128.29.29 0 0 0 .07.299c.075.134.162.265.259.387.025-.14.05-.278.071-.415-.09-.101-.175-.21-.256-.317v-.001ZM10.832 44.19c.018.137-.03.218-.107.27a.381.381 0 0 1-.001.08c.042 0 .078.008.11.02.023-.07.044-.14.064-.214-.006.016-.01.033-.019.05a.321.321 0 0 0 .026-.07c.039-.165-.079-.296-.217-.33.072.038.13.108.146.195h-.002Z"/><path fill="#000" d="m10.896 44.348.006-.021a.325.325 0 0 1-.007.02h.001ZM10.903 44.327l-.005.02.005-.02ZM8.96 46.852c-.339.258-.715.481-1.116.668.103.046.231.029.328-.047l-.015.009-.012.007a7.432 7.432 0 0 0 1.27-.89.283.283 0 0 1-.09-.056c-.12.106-.243.21-.366.31h.001ZM10.402 44.105c-.007.01-.014.02-.021.033l-.015.05a.238.238 0 0 1 .061-.011l-.025-.07v-.002Z"/><path fill="#000" d="m10.402 44.105.025.07c.154-.01.281.121.298.285.077-.052.126-.132.107-.27a.28.28 0 0 0-.147-.194.258.258 0 0 0-.283.11ZM10.164 45.836c.213-.134.423-.274.631-.416a.3.3 0 0 1 .037-.06l-.14-.432c-.15.335-.345.648-.573.936.015-.01.03-.02.046-.028h-.001Z"/><path fill="#000" d="M10.83 45.361a.286.286 0 0 1 .17-.1.262.262 0 0 0-.062-.168c.095-.189.088-.456-.105-.532-.04.126-.09.248-.143.368l.14.432ZM10.794 45.42c-.209.142-.417.282-.632.416-.015.01-.03.02-.046.028-.21.265-.445.51-.701.733.377.14.973-.665 1.152-.92a.449.449 0 0 0 .21-.073.285.285 0 0 1 .015-.184h.002Z"/><path fill="#000" d="M10.118 45.864c.228-.288.424-.6.572-.936a4.975 4.975 0 0 0-.052-.154c-.17.476-.45.887-.785 1.254l.265-.164Z"/><path fill="#000" d="M10.664 44.707c-.007.022-.017.044-.026.067l.052.154c.053-.12.102-.242.143-.369a.3.3 0 0 0-.11-.02.402.402 0 0 1-.06.168ZM10.118 45.864c-.088.055-.175.11-.265.164-.165.181-.343.35-.526.513a.266.266 0 0 0 .09.056 5.78 5.78 0 0 0 .7-.733ZM1.955 46.987c.184.146.377.275.577.395.46.283.972.468 1.49.615.113-.03.23.024.303.114.272-.065.542-.123.808-.184.734-.185 1.439-.476 2.17-.68.152-.046.3-.098.449-.152a.812.812 0 0 1 .272-.18c.232-.15.469-.302.68-.46a4.554 4.554 0 0 0 1.366-1.547c.063-.095.112-.197.154-.302-.049.015-.098.03-.148.042-.19.436-.426.857-.801 1.169-.717.73-1.606 1.288-2.605 1.533-1.053.279-2.207.478-3.243.02a4.42 4.42 0 0 1-1.222-.861c-.024-.028-.033-.044-.062-.081a.285.285 0 0 0-.05-.072 2.193 2.193 0 0 0-.208.583.233.233 0 0 1 .068.045l.002.003Z"/><path fill="#000" d="M7.711 47.388a.253.253 0 0 1 .041-.292 7.363 7.363 0 0 1-.45.152c-.729.204-1.436.496-2.169.68-.266.061-.538.12-.808.184l.009.01a.288.288 0 0 1 .038.058 7.27 7.27 0 0 0 3.472-.66.259.259 0 0 1-.133-.132ZM10.366 44.188a.348.348 0 0 0-.132.074c-.05.13-.1.26-.157.389.05-.013.098-.027.149-.042.055-.138.099-.28.14-.42ZM2.095 46.359a.281.281 0 0 0-.313-.066c-.27.16-.174.397.038.627a.282.282 0 0 1 .068.022c.04-.205.112-.4.207-.583Z"/><path fill="#000" d="M9.52 46.014c.221-.172.437-.434.588-.657.09-.153.192-.3.265-.462.042-.114.098-.246.2-.313l-.016-.044-.002-.01c-.083.022-.168.034-.24.053-.03.01-.06.016-.09.025a1.664 1.664 0 0 1-.153.302c-.33.614-.801 1.141-1.367 1.546-.211.159-.448.31-.68.462a.813.813 0 0 0-.271.179 10.14 10.14 0 0 0 1.48-.702c-.043-.208.122-.297.287-.38v.001Z"/><path fill="#000" d="m10.559 44.54.015.043a.252.252 0 0 1 .136-.043h.014a.38.38 0 0 0 .001-.08.575.575 0 0 1-.17.07c0 .003.004.006.004.01ZM9.327 46.541a.424.424 0 0 1-.088-.117l-.006-.029c-.477.27-.969.513-1.48.703a.248.248 0 0 0-.042.291.27.27 0 0 0 .133.132c.4-.187.777-.408 1.116-.667.123-.101.246-.205.367-.311v-.002Z"/><path fill="#000" d="M10.315 44.582c.072-.018.158-.03.24-.052-.045-.118-.086-.235-.128-.353a.25.25 0 0 0-.061.011 4.492 4.492 0 0 1-.142.42c.03-.01.06-.015.09-.025l.001-.001Z"/><path fill="#000" d="M10.725 44.46c-.016-.164-.143-.294-.298-.285.042.118.084.237.128.354a.525.525 0 0 0 .169-.07l.001.001ZM10.373 44.894c-.073.163-.175.31-.265.463a3.034 3.034 0 0 1-.588.657c-.165.083-.33.173-.287.38.209-.118.416-.241.62-.366.335-.365.616-.776.786-1.254a7.722 7.722 0 0 0-.066-.192c-.103.066-.159.197-.2.312Z"/><path fill="#000" d="m10.573 44.582.065.192.026-.067a.396.396 0 0 0 .06-.167h-.014a.256.256 0 0 0-.136.043l-.001-.001ZM9.239 46.423c.026.051.056.089.088.118.183-.162.361-.332.526-.513-.204.125-.411.248-.62.366.001.01.003.018.006.028v.002ZM1.891 46.994c.079.538.37 1.12.861 1.38.069.038.11.09.13.145.412-.145.834-.26 1.26-.365a3.825 3.825 0 0 1-1.487-.567c-.142-.108-.506-.342-.764-.593Z"/><path fill="#000" d="M4.142 48.156c-.424.104-.848.22-1.26.364a.307.307 0 0 1 .017.069c.16-.004.318-.011.477-.006.152.004.335.047.464-.054.121.033.249.084.373.042.164-.052.231-.247.16-.391-.046-.003-.094-.005-.14-.009l-.091-.014v-.001ZM2.752 48.376c-.491-.262-.782-.843-.86-1.38a3.348 3.348 0 0 1-.074-.075c-.12-.024-.254.027-.31.144-.108.242.124.457.236.65.204.249.314.606.637.724a.27.27 0 0 0 .23.151h.074c.064-.025.13-.047.196-.071a.273.273 0 0 0-.13-.145l.001.002Z"/><path fill="#000" d="M2.686 48.592c.072 0 .142 0 .213-.003a.236.236 0 0 0-.017-.069c-.066.024-.131.046-.196.072ZM4.022 47.999c-.518-.149-1.03-.334-1.49-.615-.2-.121-.393-.25-.576-.396a.256.256 0 0 0-.068-.044c0 .005-.002.01-.004.014a.358.358 0 0 0 .007.037c.258.251.622.485.764.593.453.288.957.49 1.487.568l.185-.045c-.074-.088-.19-.144-.304-.114L4.022 48Z"/><path fill="#000" d="m4.325 48.11-.184.046.09.014c.047.004.094.005.14.008a.29.29 0 0 0-.037-.057l-.009-.01ZM1.891 46.994c-.001-.013-.006-.025-.007-.038 0-.006.003-.01.004-.014a.246.246 0 0 0-.068-.022c.022.025.046.05.072.074ZM9.688 49.782l-.087.085c-.97.907-1.985 1.763-2.986 2.635a20.74 20.74 0 0 0 1.498-1.211c.506-.456 1.064-.959 1.576-1.51h-.001ZM1.058 52.884c.307.29.8.401 1.168.537.525.153 1.089.171 1.628.105.271-.033.603-.293.85-.1.008.008.012.015.017.023.493-.46.997-.91 1.507-1.352-.835.597-1.763 1.07-2.786 1.195-1.072.124-2.182-.295-2.863-1.146.031.254.1.506.195.754.074-.053.175-.069.287-.014l-.003-.002ZM10.75 47.096c-.31.85-.816 1.583-1.413 2.248.445-.446.891-.89 1.334-1.338-.07-.139-.038-.33.143-.393a3.78 3.78 0 0 0 .36-.692c.026-.104.062-.212.146-.279a6.803 6.803 0 0 1-.295-.705l-.158.105c.015.35-.04.72-.12 1.053l.002.001Z"/><path fill="#000" d="M11.31 45.746c-.093.066-.19.127-.284.191.087.241.184.477.296.705.01-.008.016-.017.028-.024.015-.01.033-.015.05-.022.011-.105.018-.21.02-.317-.006-.212.02-.427-.019-.636a.284.284 0 0 1-.092.103h.001ZM11.008 45.274c.011-.007.022-.012.034-.018-.014 0-.027 0-.041.003v.02l.007-.005ZM9.688 49.782c.465-.5.89-1.042 1.204-1.623a.268.268 0 0 1-.221-.155c-.444.448-.89.893-1.334 1.339-.674.75-1.463 1.413-2.226 2.054-.283.243-.577.48-.885.698a57.32 57.32 0 0 0-1.506 1.353c.022.03.04.057.05.084.653-.248 1.266-.615 1.844-1.032 1-.871 2.016-1.728 2.986-2.634.03-.028.059-.058.087-.086l.001.002ZM10.882 45.52a.492.492 0 0 1-.104.084c.01.037.026.074.05.108.022.106.034.217.04.33l.158-.105c-.05-.137-.096-.276-.143-.416h-.001ZM.771 52.9a3.25 3.25 0 0 1-.194-.754c-.01-.013-.023-.025-.033-.04a.281.281 0 0 0-.393-.043c-.308.304.165.63.378.84.045.042.094.08.141.12a.287.287 0 0 1 .1-.123H.77Z"/><path fill="#000" d="M11.001 45.28a.392.392 0 0 1-.119.24c.046.141.094.28.143.417.095-.064.19-.125.284-.19a.326.326 0 0 0 .092-.104c-.001-.01-.001-.021-.004-.031-.042-.177-.187-.355-.355-.355l-.034.019-.007.004ZM10.839 45.39l-.01-.03a.268.268 0 0 0-.037.06l.045-.03h.002Z"/><path fill="#000" d="m10.83 45.361.01.03.162-.111v-.02a.286.286 0 0 0-.17.101h-.002ZM10.839 45.39c-.016.009-.031.02-.045.03a.285.285 0 0 0-.016.184.597.597 0 0 0 .104-.083c-.014-.044-.03-.087-.043-.132Z"/><path fill="#000" d="M11.001 45.28c-.053.038-.108.073-.162.11l.043.132a.385.385 0 0 0 .119-.24v-.002ZM2.895 53.87a3.758 3.758 0 0 1-1.996-.673c.063.129.131.258.208.383.412.515 1.033.827 1.631 1.054.113.063.28.075.419.117.447-.388.923-.744 1.371-1.13a4.772 4.772 0 0 1-1.633.249Z"/><path fill="#000" d="M3.156 54.751c.04.011.076.027.11.045.306-.094.576-.356.833-.548.196-.177.807-.384.671-.713-.08.03-.16.06-.242.087-.448.386-.925.742-1.372 1.13Z"/><path fill="#000" d="M2.738 54.633c-.598-.227-1.22-.538-1.63-1.053a4.428 4.428 0 0 1-.21-.383 3.038 3.038 0 0 1-.226-.174.303.303 0 0 0 .083.355c-.3.542 1.6 1.3 2.008 1.4a.76.76 0 0 0 .301.053l.093-.08c-.139-.04-.306-.054-.419-.117Z"/><path fill="#000" d="M3.064 54.831a.822.822 0 0 0 .202-.035.594.594 0 0 0-.11-.045l-.092.08ZM3.854 53.526c-.54.066-1.105.048-1.628-.105-.369-.134-.861-.246-1.168-.536a.273.273 0 0 0-.287.014c.038.099.08.198.128.297a3.76 3.76 0 0 0 1.996.672 4.71 4.71 0 0 0 1.633-.25l.105-.09c.03-.027.06-.053.087-.081-.006-.009-.01-.016-.017-.024-.247-.194-.58.066-.85.1v.003ZM4.633 53.53c-.035.031-.07.06-.105.092.082-.027.163-.056.242-.087a.333.333 0 0 0-.05-.084c-.03.026-.059.053-.087.081v-.001Z"/><path fill="#000" d="M.771 52.9a.295.295 0 0 0-.1.123c.074.062.15.12.228.174A3.646 3.646 0 0 1 .77 52.9ZM11.461 47.197a.237.237 0 0 1 .047-.21 5.278 5.278 0 0 1-.13-.229 3.845 3.845 0 0 1-.177.708l.26-.267v-.002Z"/><path fill="#000" d="M11.508 46.985a.352.352 0 0 1 .05-.053.276.276 0 0 1 .214-.053c.021-.2-.194-.35-.372-.283a2.98 2.98 0 0 1-.021.161c.04.077.084.154.129.228ZM11.415 47.71c.089-.003.185-.078.265-.182-.092-.101-.19-.215-.218-.33l-.26.267c-.083.238-.188.47-.31.695.014 0 .026.003.04 0 .245-.008.369-.27.482-.451l.001.001ZM11.173 46.921c-.1.24-.213.478-.36.692-.18.063-.212.254-.142.393.177-.18.354-.359.53-.54a3.86 3.86 0 0 0 .178-.708 4.553 4.553 0 0 1-.057-.114c-.086.067-.12.176-.147.279l-.002-.002Z"/><path fill="#000" d="M11.322 46.642c.02.04.037.077.057.115.008-.053.015-.108.02-.161-.016.005-.033.011-.05.022-.01.007-.018.017-.027.024ZM10.67 48.006c.041.083.118.146.222.154.122-.226.225-.457.31-.695l-.531.54ZM14.57 49.004h-.008l.19.1a.27.27 0 0 0-.183-.099v-.001ZM14.11 49.395a9.92 9.92 0 0 1-1.476-1.077 3.112 3.112 0 0 1-.544-.514.329.329 0 0 1-.116-.202 1.836 1.836 0 0 1-.052-.059c-.036.041-.077.082-.118.12.097.107.208.285.324.386.179.126.322.288.484.432.155.1.298.221.458.32.122.05.236.109.339.194.222.135.428.316.659.436l.03-.026.013-.012-.001.002ZM11.809 46.921a.29.29 0 0 1 .077.006.307.307 0 0 0-.114-.048v.003a.162.162 0 0 1 .037.04Z"/><path fill="#000" d="m11.92 47.545.051.059a.329.329 0 0 0 .116.201c.156.198.347.36.545.515.46.398.95.77 1.475 1.076.15-.143.354-.07.437.072.045.01.09.03.136.053a.277.277 0 0 0 .134-.206.283.283 0 0 0-.064-.21 6.424 6.424 0 0 1-.19-.101.733.733 0 0 1-.236-.065c-.354-.207-.66-.497-1.041-.657-.19-.157-.406-.276-.564-.471a1.56 1.56 0 0 1-.41-.41c-.07-.06-.136-.156-.21-.25.023.126-.062.262-.183.395l.003-.001Z"/><path fill="#000" d="M11.778 47.637a.436.436 0 0 1 .024.027c.04-.04.08-.079.117-.12a3.324 3.324 0 0 1-.144-.17.948.948 0 0 1-.095.154c.035.04.07.075.098.11ZM14.11 49.395l-.013.01-.03.027c.068.035.138.064.212.086l.021-.015a8.766 8.766 0 0 1-.19-.108ZM14.547 49.465c-.083-.142-.287-.215-.437-.072.063.037.126.073.19.108a.285.285 0 0 1 .247-.036Z"/><path fill="#000" d="M11.809 46.921c.075.107.045.289-.035.453.046.059.094.115.144.17.119-.131.206-.268.183-.394a.998.998 0 0 0-.217-.223.286.286 0 0 0-.077-.006h.002ZM11.462 47.197l.107-.11-.061-.1a.237.237 0 0 0-.046.21Z"/><path fill="#000" d="M11.558 46.934a.357.357 0 0 0-.05.053l.061.1.003-.003a.295.295 0 0 1 .238-.163.192.192 0 0 0-.036-.04v-.002a.276.276 0 0 0-.214.053l-.002.002Z"/><path fill="#000" d="M11.68 47.528a.86.86 0 0 0 .095-.154 3.46 3.46 0 0 1-.206-.288 7.419 7.419 0 0 1-.108.111c.028.116.127.23.219.33Z"/><path fill="#000" d="M11.809 46.921a.297.297 0 0 0-.238.163l-.003.002c.063.099.133.195.206.288.08-.163.11-.346.035-.453ZM11.519 61.229c-.969-.506-1.573-2.053-1.443-3.117.03-.572.262-1.04.445-1.59.248-.563.474-1.136.756-1.682a17.64 17.64 0 0 1 .91-1.737c.463-.608 1.06-1.114 1.69-1.544.638-.408 1.301-.77 2.033-.963.034-.072.066-.145.102-.216a.229.229 0 0 1 .046-.067 15.787 15.787 0 0 1-.158-.063c-.005.002-.01.007-.015.01-.38.135-.757.23-1.133.375-.27.072-.53.276-.814.25-.203.196-.53.789-.839.693a.302.302 0 0 1-.07-.035c-.748 1.135-1.362 2.353-1.989 3.561-.411.816-.887 1.828-1.449 2.843.006.02.01.04.012.061-.021.218-.042.435-.06.652h.036c.189.027.276.231.217.4.183.165.259.411.08.613a.544.544 0 0 1 .105.453c.218.027.463.186.401.436.139.042.27.113.304.26.011.05.01.101-.003.15a.292.292 0 0 1 .098.247c.238.037.626-.05.657.275.14-.025.283-.057.427-.093.044-.01.088-.026.131-.04a.303.303 0 0 0-.075-.023c-.143-.005-.272-.064-.405-.11l.003.001Z"/><path fill="#000" d="M15.9 50.25c.053.02.105.043.158.063.133-.14.412-.093.47.108.179-.17.043-.537-.262-.475-.08.014-.16.03-.24.047a.266.266 0 0 1-.126.255v.002ZM11.042 55.105c.627-1.209 1.24-2.426 1.989-3.562a.29.29 0 0 1-.034-.024 10.31 10.31 0 0 0-.8.717c-.68.675-1.04 1.595-1.463 2.44-.297.615-.584 1.24-.816 1.882-.17.41-.308.846-.376 1.29.023.027.04.06.05.097.56-1.014 1.037-2.026 1.45-2.842v.002ZM11.44 61.495c0 .012.003.021.003.033a.28.28 0 0 1-.128.22c.165.071.34.12.523.144.336.043.431-.412.16-.531-.044.014-.086.03-.132.04a6.806 6.806 0 0 1-.427.093l.002.001ZM15.912 50.596c.06-.016.12-.032.18-.045a.837.837 0 0 1 .307-.115c-.114-.04-.227-.08-.34-.122a.259.259 0 0 0-.047.067c-.036.072-.068.143-.102.216l.002-.001ZM9.545 58.661c.018-.217.04-.434.06-.651a.269.269 0 0 0-.01-.062l-.078.14c-.017.19-.02.383-.004.575h.034l-.002-.002Z"/><path fill="#000" d="M16.06 50.313c.112.043.225.084.34.122a.766.766 0 0 1 .126-.012l.003-.002c-.056-.202-.336-.248-.47-.108ZM9.542 57.85c-.01.078-.02.158-.026.237a4.48 4.48 0 0 0 .077-.14.264.264 0 0 0-.05-.097ZM10.38 60.96c-.43-.601-.775-1.327-.852-2.065-.01.167-.02.334-.025.502-.004.356.058.704.188 1.033.133.898.624 1.141 1.26 1.121a1.55 1.55 0 0 1-.06-.04c-.19-.164-.348-.365-.511-.553v.002Z"/><path fill="#000" d="M9.692 60.431a2.69 2.69 0 0 1-.187-1.032c.004-.167.012-.335.025-.502a3.263 3.263 0 0 1-.016-.202l-.001-.034c-.329.034-.344.553-.14.76-.164.217-.11.4.06.59-.144.196-.144.514.12.603a.299.299 0 0 0 .026.258c-.136.112-.118.342.022.44-.03.413.515.364.794.424.24.002.696.154.921.013a2.33 2.33 0 0 1-.363-.196c-.635.02-1.126-.223-1.26-1.121Z"/><path fill="#000" d="M10.38 60.96c.165.188.323.388.512.552l.06.04c.155-.005.32-.024.489-.055-.031-.325-.418-.24-.657-.275a.29.29 0 0 0-.098-.248.282.282 0 0 0 .003-.149c-.035-.147-.165-.218-.304-.26.062-.25-.183-.408-.402-.436a.543.543 0 0 0-.105-.453c.18-.202.104-.448-.08-.612.06-.17-.029-.373-.216-.401h-.037c-.007.078-.011.157-.017.235.077.736.423 1.462.853 2.065v-.003Z"/><path fill="#000" d="m11.443 61.528-.002-.033c-.17.031-.334.052-.489.056.116.076.237.143.363.197a.285.285 0 0 0 .128-.22ZM9.528 58.897l.017-.236h-.033l.001.034c.003.067.008.135.015.202ZM13.738 50.552c-.224.285-.431.58-.632.879.742-.579 1.574-1.05 2.468-1.319a15.93 15.93 0 0 1-.738-.347 5.98 5.98 0 0 1-.257-.12.29.29 0 0 1-.07.14c-.281.23-.536.49-.77.767h-.001Z"/><path fill="#000" d="M14.579 49.646c.085.04.17.08.257.119.244.123.489.24.738.347.15-.044.3-.084.452-.117-.012-.145-.128-.28-.303-.261a1.85 1.85 0 0 1-.384.015c-.279-.004-.48-.144-.657-.23a.265.265 0 0 1-.102.037.268.268 0 0 1-.001.088v.002ZM13.738 50.552a5.95 5.95 0 0 1 .77-.768.279.279 0 0 0 .07-.138 5.383 5.383 0 0 1-.2-.103 1.147 1.147 0 0 1-.1-.025c-.077.057-.155.158-.242.321a.29.29 0 0 0-.185.257c-.228.292-.46.583-.708.859-.077.095-.212.143-.236.277a.279.279 0 0 0 .089.287l.109-.088c.2-.298.409-.593.631-.879h.002Z"/><path fill="#000" d="M14.379 49.543c.066.035.133.07.2.102a.268.268 0 0 0 .001-.088.314.314 0 0 1-.072.004.972.972 0 0 1-.13-.018Z"/><path fill="#000" d="M14.58 49.557a.288.288 0 0 0 .102-.038.8.8 0 0 0-.135-.053.261.261 0 0 1 .033.093v-.002ZM14.3 49.503l-.02.015c.032.01.065.02.099.025l-.079-.04Z"/><path fill="#000" d="M14.3 49.503c.027.014.052.028.079.04a.972.972 0 0 0 .13.019c.024.002.049 0 .073-.005a.282.282 0 0 0-.034-.092.285.285 0 0 0-.246.036l-.002.002ZM13.03 51.543a.294.294 0 0 0 .07.035c.309.096.636-.497.84-.692.282.025.544-.178.814-.25.374-.147.75-.24 1.132-.377.006-.002.01-.007.016-.01a9.54 9.54 0 0 1-.326-.137c-.895.27-1.726.74-2.468 1.32-.025.037-.052.073-.076.111h-.001Z"/><path fill="#000" d="M15.9 50.25a.266.266 0 0 0 .126-.255 6.13 6.13 0 0 0-.452.117c.108.048.217.094.326.138ZM13.106 51.431l-.109.088a.29.29 0 0 0 .034.024l.075-.112ZM17.017 57.254a3.638 3.638 0 0 1-.86-.368c-.241-.233-.492-.471-.699-.738a2.212 2.212 0 0 1-.25-.97c-.064.418-.124.839-.184 1.258.976.729.725 1.006 2.147 1.02.387-.007.755-.127 1.127-.203.023 0 .042.003.062.008.085-.132.154-.259.208-.385-.462.256-1.024.412-1.552.38l.001-.002ZM14.657 55.08c.072-.491.15-.982.252-1.467-.165.474-.256.97-.252 1.468ZM17.57 50.754c-.084.08-.2.145-.297.202-.29.19-.565.4-.795.661-.127.14-.275.327-.481.298-.01 0-.017-.006-.027-.007-.207.583-.364 1.18-.493 1.784.043-.114.087-.223.135-.33.479-.91 1.167-1.712 2.08-2.189.015-.126.034-.25.055-.374a7.446 7.446 0 0 1-.175-.044h-.002Z"/><path fill="#000" d="M17.57 50.754c.06.014.116.03.175.044l.007-.043a.28.28 0 0 1 .332-.215c.035.01.064.023.09.039-.006-.007-.01-.014-.017-.021a.283.283 0 0 0-.353-.042l-.127.056a.327.327 0 0 1-.107.183ZM15.21 55.177c-.02-.5.095-1.02.267-1.487.13-.604.286-1.202.493-1.784-.017-.004-.035-.008-.05-.015a5.37 5.37 0 0 0-1.01 1.722c-.103.485-.181.976-.253 1.468.002.29.035.58.104.868.046.167.119.317.207.457.018.009.038.017.057.03.06-.42.12-.84.185-1.259ZM18.567 57.51c.13-.054.256-.121.375-.205.293-.223-.03-.662-.332-.452-.012.008-.026.014-.039.021a2.68 2.68 0 0 1-.209.386.274.274 0 0 1 .206.25h-.001ZM17.69 51.172c.138-.072.278-.136.425-.19a.22.22 0 0 0 .077-.08c-.15-.034-.298-.068-.448-.104-.021.124-.04.25-.055.374h.002Z"/><path fill="#000" d="m17.752 50.754-.007.042.448.104a.293.293 0 0 0-.02-.324.353.353 0 0 0-.089-.04.282.282 0 0 0-.332.217v.001ZM16.78 57.771c-.48-.165-.978-.355-1.298-.769a3.255 3.255 0 0 1-.464-.52l-.012.084-.04.294a.353.353 0 0 1 .107.142c.293.513.78.96 1.376 1.06.518.042 1.083-.048 1.506-.356-.024.007-.047.012-.071.02-.359.093-.744.15-1.106.047l.001-.002Z"/><path fill="#000" d="M14.967 56.86c.014-.098.028-.196.04-.294l.013-.084c-.017-.025-.035-.049-.05-.076-.28-.117-.495.18-.367.435.105-.083.256-.067.365.02h-.001Z"/><path fill="#000" d="M16.45 58.062c-.596-.1-1.083-.547-1.375-1.06a.351.351 0 0 0-.108-.142c-.019.125-.037.251-.058.379.128.141.27.268.445.348.301.144.57.35.9.435.02.06.062.115.12.153.061.04.12.086.194.095.308-.01.596-.185.893-.267.312-.06.63-.105.932-.208a.264.264 0 0 0 .174-.283 4.48 4.48 0 0 1-.61.194c-.423.308-.989.398-1.506.356Z"/><path fill="#000" d="M14.601 56.84c.014.027.03.055.052.08.083.109.165.216.256.317.02-.126.04-.252.058-.378-.11-.085-.26-.1-.366-.02v.002ZM15.482 57.002c.319.413.819.604 1.297.77.363.105.748.046 1.106-.048l.072-.02c.103-.075.197-.162.281-.266.045-.06.085-.12.123-.18a.432.432 0 0 0-.061-.008c-.373.076-.74.198-1.127.203-1.422-.014-1.172-.291-2.148-1.02l-.007.046c.132.19.292.36.464.52v.003Z"/><path fill="#000" d="M15.025 56.436a.557.557 0 0 0-.057-.03l.05.076.007-.046ZM18.361 57.26c-.038.059-.078.119-.123.18-.083.102-.178.19-.281.266a4.7 4.7 0 0 0 .61-.194.274.274 0 0 0-.206-.25v-.002ZM16.257 51.179c-.088.2-.17.402-.245.605.374-.409.808-.76 1.276-1.029l.096-.047-.11-.028a7.83 7.83 0 0 1-.744-.202c.007.247-.2.468-.273.7Z"/><path fill="#000" d="m17.274 50.681.11.028c.097-.049.193-.094.293-.137.008-.067-.013-.142-.081-.227-.255-.217-.636.062-.924.091a.692.692 0 0 0-.145-.011c.003.018.002.036.003.054.244.079.49.148.744.202Z"/><path fill="#000" d="M16.093 50.55a.713.713 0 0 0-.063.043c-.179.158-.051.483.187.485-.122.141-.25.262-.396.371-.117.14-.055.367.1.44l.094-.105a9.75 9.75 0 0 1 .245-.605c.073-.231.281-.454.273-.7l-.057-.02a.32.32 0 0 1-.09.034 4.864 4.864 0 0 0-.291.056h-.002Z"/><path fill="#000" d="M16.474 50.46c.02.005.038.012.058.018 0-.018 0-.036-.003-.055h-.003a.28.28 0 0 1-.052.037ZM16.385 50.495a.322.322 0 0 0 .09-.034l-.076-.025a.837.837 0 0 0-.307.115c.097-.021.193-.04.291-.056h.002Z"/><path fill="#000" d="M16.525 50.423a.756.756 0 0 0-.126.012l.075.025a.28.28 0 0 0 .052-.037h-.001ZM16.014 51.786c-.016.04-.03.08-.044.12.009.002.017.006.027.007.206.03.354-.158.482-.297.228-.26.505-.47.794-.661.097-.056.215-.122.297-.202l-.184-.047c-.033.017-.066.031-.097.048-.468.268-.9.62-1.275 1.029v.003Z"/><path fill="#000" d="M17.57 50.754a.313.313 0 0 0 .107-.183 7.92 7.92 0 0 0-.293.137l.185.046h.001ZM15.92 51.89c.015.008.034.012.05.016.014-.04.028-.08.044-.12l-.094.105ZM10.813 52.107a3.466 3.466 0 0 0-.457.571c-.493.768-.82 1.651-1.3 2.436-.13.253-.569.599-.216.848.13.081.305.03.383-.097.153-.221.31-.441.443-.674.298-.556.566-1.127.858-1.687.187-.355.394-.708.679-.994.259-.26-.126-.654-.39-.402v-.001ZM8.042 56.795a.283.283 0 0 0 .06.372c.174.14.409.021.468-.178.141-.363-.394-.559-.528-.193v-.001ZM3.264 52.045h.003a.23.23 0 0 1 .032.003l-.035-.003Z"/><path fill="#000" d="m3.008 52.021.26.024h-.004l.035.003a.23.23 0 0 1-.032-.003c.724.087 1.526-.083 2.065-.594.22-.285-.19-.623-.43-.358-.341.255-.766.41-1.197.415-.228.03-.607-.112-.82.011-.199.134-.118.48.123.504v-.002ZM1.968 51.882a.284.284 0 0 0 .287-.273.282.282 0 0 0-.273-.287.284.284 0 0 0-.287.273c-.004.15.12.287.273.287ZM14.422 52.702a.281.281 0 0 0-.383.097c-.128.217-.26.432-.345.671-.09.24-.152.49-.23.733a.283.283 0 0 0 .192.348c.441.087.4-.56.543-.833.08-.224.2-.427.321-.63a.282.282 0 0 0-.098-.384v-.002ZM13.462 55.18c-.371-.06-.469.576-.098.63.37.062.47-.575.098-.63ZM17.983 56.19a.284.284 0 0 0 .287-.274.282.282 0 0 0-.273-.287.284.284 0 0 0-.287.273c-.004.15.12.287.273.287ZM6.128 45.975c.31.014.626-.03.94-.104.203-.057.438-.04.614-.17.291-.215-.032-.664-.326-.455-.412.069-.787.192-1.214.168-.368.002-.38.544-.014.561ZM4.982 46.066a.284.284 0 0 0 .287-.273.282.282 0 0 0-.273-.288.284.284 0 0 0-.287.274c-.004.15.12.287.273.287ZM13.038 43.314c.407.794.996 1.482 1.635 2.099 1.982 2.053 4.867 3.032 7.676 3.118 1.466.019 2.966-.134 4.309-.758.742-.4 1.524-.719 2.237-1.174.942-.5 1.794-1.183 2.609-1.873.442-.438.935-.748 1.317-1.264.266-.361.592-.695.743-1.134.205-.384.063-.775-.313-.968-.265-.112-.507.06-.696.23-.255.189-.57.27-.866.368-.429.142-.86.274-1.305.346-1.673.153-3.406-.264-4.789-1.227-.93-.792-1.628-1.811-2.313-2.812-.39-.597-.733-1.227-1.17-1.794-.857-1.175-1.973-2.155-3.19-2.943-1.353-.977-2.93-1.586-4.557-1.924-.46-.1-.935-.1-1.4-.185-1.064-.314-1.039.98-1.2 1.678-.166 1.293-.27 2.615-.176 3.927.04 1.57.25 3.14.766 4.627.21.561.427 1.119.681 1.66l.002.003Zm-.802-9.294c.037-.521.102-1.038.22-1.549.034-.182.043-.386.169-.53 2.094.19 4.156.748 5.89 1.992 1.071.683 2.055 1.515 2.861 2.498.33.406.618.84.896 1.28a5.418 5.418 0 0 1 1.653 2.418c.622.798 1.329 1.517 2.258 1.947 1.288.652 2.756.907 4.191.796.584-.078 1.144-.266 1.702-.448.38-.05.693-.267.979-.519l.045.046c-.072.317-.275.592-.472.848-.178.226-.367.477-.57.686-.23.21-.497.413-.726.637-.76.662-1.536 1.325-2.42 1.817-.82.515-1.752.947-2.624 1.384-1.132.49-2.393.64-3.621.652h.036a12.02 12.02 0 0 1-4.286-.788c-2.279-.166-4.068-1.781-4.692-3.796l-.013-.019c-.7-1.276-1.135-2.69-1.377-4.123-.202-1.73-.333-3.495-.1-5.229Z"/><path fill="#000" d="M13.803 40.04a5.216 5.216 0 0 0-.078 3.35c.886 1.374 2.11 2.467 3.518 3.272.382.199.774.373 1.173.525h.004c3.886.318 6.713-3.522 5.507-7.058-.4-.511-.763-1.054-1.126-1.574-.176-.281-.35-.564-.527-.845-2.687-2.24-7.144-1.36-8.472 2.328l.001.002Zm8.617-1.407c2.643 2.95.747 7.7-3.216 7.998-3.64.282-6.267-3.539-4.694-6.844 1.438-3.083 5.636-3.707 7.91-1.154Z"/><path fill="#000" d="M13.725 43.39c.624 2.016 2.413 3.63 4.692 3.797a11.52 11.52 0 0 1-1.173-.525c-1.41-.805-2.633-1.898-3.518-3.271h-.001ZM23.928 40.13a5.42 5.42 0 0 0-1.653-2.418c.178.281.351.564.528.846.364.52.728 1.063 1.125 1.574v-.001ZM16.38 39.607c-1.686 1.732-.855 4.732 1.48 5.35.218.062.435.099.65.114-.022-.014-.043-.028-.065-.04a1.404 1.404 0 0 1-.176-.14 1.032 1.032 0 0 1-.28-.44 1.515 1.515 0 0 1-.053-.263 1.165 1.165 0 0 1 .028-.49c.015-.066.026-.132.04-.198a1.073 1.073 0 0 1 .185-.444c.073-.112.157-.218.25-.314.107-.115.234-.2.37-.276l-.007.002.013-.007c.007-.002.012-.007.018-.01-.003.002-.006.003-.008.006a1.76 1.76 0 0 1 .203-.09c-.006 0-.012.003-.017.005l.033-.013-.017.007c.037-.013.073-.024.111-.033.059-.014.118-.019.178-.023a3.23 3.23 0 0 1 .26 0c.091.002.182.007.272.025a2.387 2.387 0 0 1 .712.315c.153.108.298.243.388.409.038.07.064.152.084.23.021.085.024.17.032.257.007.065.017.13.016.195a1.355 1.355 0 0 1-.05.335c.798-.831 1.172-2.072.73-3.303-.763-2.258-3.747-2.904-5.38-1.166ZM20.14 44.467v-.001l-.003.001h.002Z"/><path fill="#000" d="M19.522 44.09v.002h.001l-.001-.002ZM39.092 34.064c.221.12.39-.05.46-.251.243-.488.442-.998.646-1.504.213-.499.38-1.013.538-1.532.058-.185.166-.38.116-.577v.005c.003.016.004.03.003.045 0-.015 0-.03-.003-.045l-.006-.032c.003.009.003.017.006.025-.04-.279-.47-.323-.546-.026-.038.392-.228.764-.326 1.15-.283.76-.585 1.512-.931 2.246-.104.155-.147.385.045.493l-.002.003Z"/><path fill="#000" d="M40.852 30.207V30.2c-.003-.008-.003-.017-.006-.025a.258.258 0 0 1 .006.032v-.001ZM38.489 35.503c.153 0 .28-.129.279-.282a.283.283 0 0 0-.282-.279.282.282 0 0 0-.278.282c0 .153.128.279.28.279ZM26.138 39.926c.308.31.597.684.996.875.397.117.564-.495.14-.558-.523-.415-.945-.94-1.355-1.462-.172-.23-.396-.523-.555-.78-.078-.132-.268-.156-.389-.073-.277.204 0 .506.137.705.322.447.66.881 1.025 1.293h.001ZM24.341 36.969c.153 0 .286-.11.291-.27.006-.146-.115-.29-.269-.29a.282.282 0 0 0-.29.268c-.006.148.114.292.268.292ZM15.133 46.94c-.582-.352-1.029-.89-1.464-1.408-.143-.185-.312-.52-.59-.34a.283.283 0 0 0-.072.39c.52.682 1.088 1.374 1.824 1.83.31.194.609-.27.302-.471ZM12.523 44.091a.283.283 0 0 0-.292.27c-.005.147.115.291.27.291.153 0 .285-.11.29-.27.006-.146-.114-.29-.268-.29ZM13.203 30.292c.297.031.58.067.875.132.238.108.49-.196.338-.41-.07-.104-.18-.133-.296-.155a10.465 10.465 0 0 0-.858-.125c-.367-.028-.423.512-.058.558h-.001ZM12.366 30.246c.152 0 .276-.139.273-.287a.284.284 0 0 0-.287-.274c-.153 0-.276.14-.273.288a.284.284 0 0 0 .287.273ZM32.53 16.071c.124.09.298.058.39-.066.215-.288.437-.569.663-.848.835-1.044 1.815-1.991 2.977-2.662a.285.285 0 0 0 .087-.387c-.08-.127-.26-.173-.387-.087-.676.39-1.287.877-1.86 1.407-.508.48-.969 1.016-1.404 1.565-.182.227-.358.456-.532.688a.284.284 0 0 0 .066.392v-.002ZM32.023 17.439c.361.091.512-.533.146-.617-.365-.09-.512.533-.146.617ZM24.488 19.52a.282.282 0 0 0 .378-.115c.27-.427.498-.88.742-1.323.304-.482.764-.88 1.06-1.38a.283.283 0 0 0-.163-.362.282.282 0 0 0-.358.156c-.177.234-.37.455-.554.684-.346.378-.595.822-.82 1.28-.125.232-.267.455-.4.682-.077.131-.015.31.115.378ZM23.987 20.915c.402.096.539-.681.125-.723-.359-.047-.48.647-.125.723ZM21.878 15.845c.152 0 .275-.138.272-.287a.284.284 0 0 0-.287-.273c-.152 0-.275.139-.273.287a.284.284 0 0 0 .288.273Z"/><path fill="#000" d="M61.315 18.623c-.138-.034-.256-.165-.217-.33.002-.006.005-.013.006-.02.018-.072.04-.143.063-.213-.193-.076-.2-.344-.105-.533a.27.27 0 0 1-.063-.167.198.198 0 0 1-.04.003.284.284 0 0 1-.353-.102.274.274 0 0 1-.007-.283c-.037-.209-.011-.426-.018-.637 0-.106.01-.211.02-.316-.18.064-.394-.084-.373-.283a.306.306 0 0 1-.114-.048.276.276 0 0 1-.036-.01c-.115-.064-.167-.137-.18-.213-.073-.094-.142-.19-.21-.25a1.56 1.56 0 0 0-.41-.41c-.157-.196-.372-.314-.563-.47-.381-.162-.686-.452-1.042-.658a.732.732 0 0 0-.236-.065c.726.398 1.388.917 1.985 1.487.088.26.398.487.547.735.477.778.672 1.698.985 2.55.602 1.583.97 3.242 1.194 4.92.098 1.21.315 2.422.296 3.646-.06 2.914-.454 5.827-1.327 8.613-.504 1.595-.952 3.212-1.61 4.754-.605 1.282-1.156 2.584-1.891 3.8-.402.715-.846 1.427-1.403 2.033-.252.25-.565.41-.887.55-.149.054-.322.111-.478.06-.049-.033-.038-.097-.051-.15-.056-.61.175-1.192.393-1.75.16-.427.308-.846.533-1.248 1.051-1.951 2.224-3.876 2.873-6.007.193-.753.256-1.608-.042-2.34a.696.696 0 0 0-.657-.386c-.742.046-1.12 1.08-1.393 1.666-.9 2.275-1.748 4.57-2.714 6.819-.487 1.035-1.072 2.085-1.84 2.937-.593.778-1.242 1.53-2.113 2.006-.304.16-.73.298-1.008.02-.067-.249.053-.501.143-.73.515-1.04 1.302-2.015 1.859-3.058.974-1.534 1.659-3.234 2.405-4.887.367-.845.869-1.627 1.169-2.501.287-.816.573-1.641.634-2.512.023-.56.07-1.2-.237-1.693-.621-.768-1.74-.057-1.967.72-.565 1.573-1.195 3.122-1.822 4.672-.675 1.668-1.333 3.344-2.182 4.933a32.465 32.465 0 0 1-2.125 3.68c-.419.658-.868 1.301-1.421 1.853-.602.465-1.027 1.113-1.653 1.546-.408.308-1.65 1.012-2.091.575-.094-.111-.052-.27-.026-.4.108-.347.283-.668.466-.98.408-.67.922-1.307 1.393-1.938 1.712-2.4 3.334-4.888 4.572-7.57.822-1.894 1.467-3.859 2.195-5.789.298-.786.383-1.626.425-2.46.034-.982-.043-2.305-1.364-2.134-.637.063-1.117.582-1.495 1.057-.637.789-.825 1.819-1.188 2.745-1.304 3.693-2.618 7.385-4.437 10.865-.586 1.115-1.185 2.17-1.904 3.22-.67.952-1.453 1.82-2.221 2.69-.472.432-1.02.762-1.565 1.092-.708.38-1.397.93-2.219 1.017-.75-.052-1.4-.625-1.008-1.39.616-1.22 1.637-2.174 2.531-3.189.777-.902 1.59-1.777 2.327-2.713a33.455 33.455 0 0 0 3.656-5.927c1.284-2.59 2.248-5.316 3.145-8.06.4-1.172.758-2.385.775-3.634-.031-1.195-.299-2.448-1.202-3.298-.58-.565-1.453-.75-2.24-.792-1.703-.022-3.374.777-4.397 2.145a24.22 24.22 0 0 0-2.138 3.108c-.712 1.186-1.19 2.492-1.87 3.695-.475.85-.906 1.76-1.545 2.5-.367.32-.786.66-1.294.722a.312.312 0 0 1-.127-.028c-.186-.098-.39-.233-.47-.438-.182-.989.039-2.028.236-3.011.45-2.14 1.342-4.135 2.252-6.117.39-.747.707-1.531 1.109-2.273.421-.722.83-1.45 1.256-2.17a24.643 24.643 0 0 1 4.507-5.256c.582-.532 1.227-.979 1.891-1.4a22.036 22.036 0 0 1 3.113-1.736c.615-.221 1.214-.493 1.845-.664.759-.168 1.52-.342 2.287-.47.712-.057 1.427-.02 2.14-.039.961-.005 1.904.187 2.844.376 1.043.226 2.071.514 3.015 1.023.147.063.29.132.432.205a.283.283 0 0 1-.064-.21.277.277 0 0 1 .134-.207c-.176-.087-.378-.227-.656-.23a2.07 2.07 0 0 0-.384.015c-.176.02-.29-.117-.303-.261-.08.017-.16.034-.24.048-.305.061-.44-.306-.262-.476a.812.812 0 0 1-.144-.01c-.288.03-.669.308-.924.09-.068-.084-.09-.16-.08-.227l-.128.056a.286.286 0 0 1-.353-.042c-.007-.005-.011-.014-.017-.02-.12-.074-.136-.203-.12-.346-.857-.186-1.722-.325-2.604-.341-.954.028-1.926-.075-2.867.129-.589.127-1.18.236-1.767.375-1.217.355-2.41.827-3.5 1.477-1.225.658-2.42 1.407-3.481 2.31-1.306 1.099-2.462 2.373-3.51 3.718-.795.991-1.455 2.073-2.067 3.182-.448.73-.84 1.492-1.184 2.277-.815 1.63-1.547 3.3-2.14 5.027-.495 1.437-1.147 3.932-.783 5.403.69 1.357 1.922.757 2.787-.052.305-.282.508-.65.722-1 .458-.725.85-1.485 1.253-2.24.189-.346.354-.704.512-1.067.574-1.306 1.3-2.54 2.113-3.71.935-1.387 2.036-2.794 3.764-3.149.961-.218 2.066-.199 2.907.366 1.114.935 1.29 2.544 1.112 3.906-.276 1.753-1.014 3.453-1.544 5.156-1.614 4.57-3.773 9.044-7.046 12.663-.89 1.065-1.87 2.052-2.752 3.124-.45.61-1.002 1.222-1.125 1.994-.161.965.829 1.65 1.702 1.657.524-.018.998-.273 1.453-.513.487-.262.963-.547 1.434-.838.515-.313 1.024-.659 1.434-1.105.238-.281.47-.57.723-.84 2.23-2.483 3.635-5.556 5.015-8.562.992-2.331 1.82-4.729 2.682-7.112.328-.842.526-1.71.95-2.515.398-.585 1.052-1.498 1.854-1.123.463.722.2 1.835.152 2.653-.191 1.11-.693 2.136-1.06 3.194-.282.786-.56 1.575-.86 2.355-1.004 2.649-2.53 5.048-4.085 7.4-.93 1.508-2.302 2.766-2.913 4.455-.197.534.072 1.117.639 1.247.616.114 1.219-.17 1.766-.423.493-.283.967-.625 1.345-1.052.272-.341.608-.616.93-.906 1.088-1.104 1.845-2.487 2.66-3.795 1.279-2.241 2.325-4.6 3.261-7.002.463-1.176.956-2.34 1.397-3.523.25-.544.298-1.281.841-1.623.163-.096.405-.157.54.012l-.01-.004c.288.78.103 1.67-.075 2.46a19.83 19.83 0 0 1-.592 1.707c-.364.8-.808 1.558-1.135 2.375-.603 1.328-1.18 2.68-1.902 3.948a74.74 74.74 0 0 1-1.641 2.625c-.367.646-1.041 1.503-.63 2.26.354.45.998.468 1.49.252.978-.444 1.745-1.243 2.38-2.092 1.094-1.213 1.862-2.683 2.454-4.197.487-1.118.906-2.263 1.357-3.396.34-.877.675-1.757 1.029-2.629.193-.465.949-1.928 1.076-.622.14 1.026-.252 2.004-.633 2.935-.434.916-.876 1.83-1.359 2.721-.362.677-.753 1.337-1.103 2.02-.36.86-1.81 3.948.153 3.664.932-.222 1.639-.918 2.125-1.717.385-.52.679-1.08 1.002-1.64.432-.681.717-1.44 1.078-2.158.568-1.127 1.027-2.304 1.425-3.503.824-2.594 1.651-5.206 1.922-7.928.126-.984.165-1.977.215-2.968.06-1.559-.187-3.098-.355-4.644a22.718 22.718 0 0 0-1-4.141c-.047.01-.094.022-.141.03a.276.276 0 0 1-.18-.029l.003.01ZM62.663 13.276l.091-.09c.98-.919 2.008-1.782 3.02-2.663-.308.22-.602.455-.885.697-.763.642-1.552 1.305-2.226 2.055v.001ZM60.32 15.093c.08-.104.176-.18.265-.182.113-.182.236-.443.481-.452h.04c.314-.581.74-1.12 1.205-1.623-.606.59-1.19 1.201-1.79 1.799-.068.088-.2.199-.324.32l.024.027.098.11h.001ZM62.458 4.77c-.068.445-.206.88-.375 1.292-.233.641-.52 1.266-.817 1.882-.422.845-.782 1.764-1.462 2.44-.252.25-.521.49-.801.716.08.069.117.175.088.287-.024.135-.157.182-.235.278-.248.276-.48.565-.708.858a.29.29 0 0 1-.185.257.974.974 0 0 1-.242.321c.074.023.144.05.213.086.942-.785 1.55-1.853 2.17-2.9 1.203-2.03 2.09-4.227 3.317-6.242.266-.442.56-.864.883-1.264.532-.663 1.08-1.336 1.845-1.737.761-.434 1.646-.6 2.513-.41.572.22 1.187.479 1.564.985.931 1.239.493 2.895-.233 4.124-.735 1.175-1.883 1.982-2.929 2.862a57.28 57.28 0 0 1-1.68 1.51c.577-.417 1.19-.784 1.843-1.032-.136-.33.476-.537.672-.713.257-.192.526-.454.832-.548-.082-.046-.138-.12-.134-.251.011-.147.151-.278.3-.258.145.022.288.058.43.1.032-.033.064-.063.096-.097 1.344-1.284 2.416-3.528 1.63-5.354-.234-.562-.62-1.07-1.16-1.366-.604-.36-1.268-.64-1.983-.592-2.082-.025-3.65 1.65-4.867 3.582-.014.36-.053.722-.097 1.078a.284.284 0 0 1-.491.107h.003Z"/><path fill="#000" d="M59.897 15.471c.014.077.066.15.18.213l.037.01a.996.996 0 0 1-.217-.223ZM70.389 7.914a4.366 4.366 0 0 0-1.06-.5 7.621 7.621 0 0 1-.393.374.736.736 0 0 1 .3.053c.41.101 2.31.858 2.01 1.4.116.101.13.244.082.355.048.04.097.077.141.12.213.21.686.536.378.84a.282.282 0 0 1-.393-.043l-.032-.04a2.454 2.454 0 0 1-.505 1.852c-.604.77-1.57 1.12-2.488 1.4-.985.304-2.024.448-2.991.831-.569.18-1.144.335-1.698.554-.534.24-1.053.514-1.562.801-.354.213-.702.436-1.046.665.006.112.017.222.04.33.023.034.04.07.05.108a.455.455 0 0 1 .21-.073c.179-.255.775-1.06 1.151-.92a7.488 7.488 0 0 1 1.27-.89l-.011.007c-.006.002-.01.005-.015.008a.322.322 0 0 1 .327-.046 7.287 7.287 0 0 1 3.473-.66c-.071-.146-.003-.34.16-.391.126-.044.252.008.373.042.128-.101.311-.06.464-.055.16.004.317-.001.477-.005-.018-.194.175-.399.406-.284.07.035.136.076.199.12a5.336 5.336 0 0 0 1.244-.756c1.335-1.195 1.327-3 .373-4.43a2.749 2.749 0 0 0-.934-.767ZM60.602 17.009c-.003-.01-.003-.021-.005-.031a.274.274 0 0 0 .007.283.281.281 0 0 0 .353.102c-.168 0-.313-.178-.355-.354Z"/><path fill="#000" d="M68.6 7.572c-.004.132.05.205.134.251a.76.76 0 0 1 .202-.035 8.27 8.27 0 0 0 .393-.374 2.987 2.987 0 0 0-.43-.1c-.15-.02-.29.113-.3.258ZM69.39 14.029a.27.27 0 0 1 .229.151c.323.118.433.477.637.724.112.194.344.41.237.65-.056.118-.19.168-.311.144.211.232.308.467.037.627a.281.281 0 0 1-.313-.066c-.357.692-1.053 1.218-1.793 1.422a4.52 4.52 0 0 1-1.345.152c-.815.003-1.648.003-2.464-.03-.797.003-1.604-.039-2.381.166-.056.129-.108.259-.157.388a.362.362 0 0 1-.131.074l-.016.05c-.005.013-.014.022-.02.033l.038.106c.34-.074.674-.179 1.02-.23.433-.044.813-.015 1.262-.025.95.007 1.9.04 2.851.028.66.02 1.347-.08 1.966-.326.78-.39 1.486-.995 1.794-1.835.114-.256.19-.54.12-.818-.134-.59-.439-1.196-.944-1.547-.129.057-.26.11-.39.16h.073v.002ZM61.315 18.623c.055.028.117.04.18.03.049-.009.095-.021.142-.031-.012-.037-.026-.072-.039-.107a.258.258 0 0 1-.283.11v-.002Z"/><path fill="#000" d="m69.101 14.03.213-.002c.131-.05.262-.104.39-.161a1.876 1.876 0 0 0-.198-.121c-.231-.115-.423.09-.406.283l.001.002ZM56.79 7.442c-.077.498-.164.995-.267 1.487.172-.468.286-.987.267-1.487ZM56.18 11.17c-.146.11-.275.23-.395.371.238 0 .365.327.186.485a.712.712 0 0 1-.063.044c.062-.014.12-.03.18-.045.245-.517.447-1.051.617-1.6.162-.466.285-.94.386-1.418a5.312 5.312 0 0 1-1.01 1.723c.154.074.216.301.1.44ZM57.491 5.652a.299.299 0 0 1-.092.128c.127.253-.087.55-.367.434.088.14.161.292.207.457.069.289.102.579.104.87.156-1.095.277-2.198.537-3.278.363-1.145.865-2.61 2.121-3.003-.272-.12-.175-.575.16-.531.183.024.358.074.523.144.225-.141.68.011.921.013.279.061.823.011.794.424.14.099.16.33.022.44a.294.294 0 0 1 .025.258c.265.089.265.407.12.603.17.19.225.373.061.59.204.206.189.726-.14.76.015.192.013.384-.004.574.178-.318.365-.636.561-.947.023-.599-.026-1.194-.257-1.76A1.52 1.52 0 0 0 61.72.588c-.785-.215-1.983.044-2.652.501-1.154.967-1.638 2.425-1.907 3.88.095.123.184.252.26.386a.29.29 0 0 1 .07.299v-.002ZM55.471 12.197l.004-.004h-.004v.004Z"/><path fill="#000" d="M62.458 4.77c.128.16.418.135.49-.106.043-.356.083-.717.097-1.078-.196.312-.383.628-.56.948-.008.08-.016.158-.027.237ZM53.885 11.64c.147-.057.289-.121.424-.191.077-.617.086-1.248-.053-1.854-.386-1.416-1.42-2.49-.827-3.849l-.04.021c-.3.21-.624-.228-.331-.451.117-.086.243-.151.375-.206a.267.267 0 0 1 .174-.283c.302-.103.62-.15.932-.208.295-.082.584-.256.893-.267.074.01.134.054.194.095.058.038.1.092.12.153.33.085.599.291.9.436.176.08.317.206.445.347.022-.139.046-.276.071-.415-.358-.46-.851-.817-1.425-.946-1.726-.26-2.96.866-3.063 2.575-.005.884.474 1.68.812 2.47.308.7.373 1.44.279 2.2.003.124-.044.286-.06.433l.1.02a.233.233 0 0 1 .077-.08h.003Z"/><path fill="#000" d="M53.826 12.043a.293.293 0 0 1-.02-.324l-.1-.02c-.015.142 0 .271.12.344ZM57.347 5.7a.388.388 0 0 1 .052.08.299.299 0 0 0 .092-.128.29.29 0 0 0-.07-.298 2.957 2.957 0 0 0-.259-.387c-.025.139-.05.277-.071.415.09.1.175.21.256.317ZM61.104 18.273c-.001.007-.004.014-.006.02a.322.322 0 0 1 .007-.02h-.001ZM61.097 18.294l.005-.021-.005.02Z"/><path fill="#000" d="M61.168 18.428c-.018-.136.03-.217.107-.269a.381.381 0 0 1 .001-.08.332.332 0 0 1-.11-.02c-.023.07-.044.141-.063.214.005-.016.01-.032.018-.05a.321.321 0 0 0-.026.07c-.039.165.079.297.218.33a.281.281 0 0 1-.148-.195h.003ZM63.04 15.768c.339-.258.715-.48 1.116-.667a.323.323 0 0 0-.328.046c.006-.002.01-.005.015-.008l.012-.007a7.428 7.428 0 0 0-1.27.89c.03.011.062.03.09.056.12-.106.243-.21.366-.311l-.001.001ZM61.598 18.515a.322.322 0 0 0 .021-.032.694.694 0 0 1 .016-.05.238.238 0 0 1-.062.01l.025.07v.002Z"/><path fill="#000" d="M61.275 18.16c-.077.051-.126.131-.107.268a.28.28 0 0 0 .147.195c.101.024.212-.004.283-.11l-.025-.07c-.154.01-.281-.12-.298-.284ZM61.31 17.691c.15-.335.344-.647.572-.936a23.532 23.532 0 0 0-.677.444.3.3 0 0 1-.037.06l.14.432h.002Z"/><path fill="#000" d="M61.17 17.26a.286.286 0 0 1-.17.1c-.001.056.019.114.062.167-.095.19-.088.457.105.533.04-.126.09-.248.143-.369l-.14-.431ZM61.206 17.2a21.221 21.221 0 0 1 .678-.445c.21-.265.445-.509.701-.733-.377-.14-.973.666-1.152.92a.45.45 0 0 0-.21.074.285.285 0 0 1-.015.183h-.002Z"/><path fill="#000" d="M61.361 17.845c.171-.476.451-.887.786-1.254l-.265.164a4.34 4.34 0 0 0-.572.936c.017.052.033.104.051.154Z"/><path fill="#000" d="M61.336 17.914c.007-.022.017-.045.026-.067l-.052-.154c-.053.12-.102.242-.143.368a.3.3 0 0 0 .11.02.402.402 0 0 1 .06-.167ZM61.882 16.755c.089-.055.175-.11.265-.164a7 7 0 0 1 .526-.513.266.266 0 0 0-.09-.056 5.78 5.78 0 0 0-.7.733ZM70.044 15.632a5.396 5.396 0 0 0-.576-.395c-.46-.283-.972-.468-1.49-.615-.113.03-.23-.024-.303-.114-.272.065-.542.124-.808.184-.734.185-1.439.476-2.17.681a7.054 7.054 0 0 0-.45.152.812.812 0 0 1-.27.179c-.233.15-.47.303-.68.461a4.553 4.553 0 0 0-1.367 1.546 1.664 1.664 0 0 0-.154.303c.049-.016.098-.03.148-.043.19-.435.426-.857.8-1.168.718-.73 1.607-1.288 2.606-1.534 1.053-.278 2.207-.478 3.243-.02.445.204.871.517 1.222.861.024.028.032.044.062.082.013.026.03.05.05.071.096-.184.167-.378.208-.583a.233.233 0 0 1-.068-.045l-.002-.003Z"/><path fill="#000" d="M64.288 15.233a.253.253 0 0 1-.04.291c.148-.054.298-.106.45-.15.729-.206 1.435-.497 2.169-.682.266-.06.537-.12.808-.184l-.009-.01a.29.29 0 0 1-.038-.057 7.27 7.27 0 0 0-3.472.66.26.26 0 0 1 .132.132ZM69.904 16.262a.281.281 0 0 0 .314.066c.27-.16.174-.397-.038-.627a.281.281 0 0 1-.068-.022c-.04.204-.112.399-.207.583ZM61.635 18.433a.348.348 0 0 0 .131-.075c.049-.129.1-.259.157-.388a3.428 3.428 0 0 0-.149.042c-.056.137-.099.279-.14.42Z"/><path fill="#000" d="M62.48 16.606a3.04 3.04 0 0 0-.588.658c-.09.152-.192.3-.265.462-.041.114-.097.245-.2.313.006.014.01.03.016.043 0 .003.003.006.003.01.082-.021.168-.034.239-.052.03-.01.06-.017.09-.025.041-.105.09-.207.154-.303.328-.614.8-1.14 1.366-1.546.211-.158.448-.31.68-.46a.813.813 0 0 0 .272-.18c-.513.19-1.004.431-1.481.702.043.207-.122.297-.287.38l.001-.002Z"/><path fill="#000" d="M61.427 18.037a.252.252 0 0 1-.135.044h-.014a.381.381 0 0 0-.002.08.575.575 0 0 1 .17-.07c0-.003-.003-.006-.003-.01l-.016-.044ZM62.673 16.078c.032.03.062.067.088.118l.006.028c.477-.27.968-.513 1.48-.702a.248.248 0 0 0 .041-.292.27.27 0 0 0-.132-.132c-.4.187-.777.408-1.116.667-.123.101-.246.205-.367.312v.001Z"/><path fill="#000" d="M61.685 18.037c-.072.019-.158.031-.24.052.045.118.086.236.128.353a.25.25 0 0 0 .062-.01c.041-.142.085-.284.14-.421-.029.01-.06.015-.089.025l-.001.001Z"/><path fill="#000" d="M61.573 18.444c-.042-.118-.084-.237-.127-.353a.525.525 0 0 0-.17.07c.017.164.143.294.298.284l-.001-.001ZM61.427 18.037c.102-.066.159-.197.2-.312.073-.163.175-.31.265-.463.151-.223.367-.485.588-.657.165-.083.33-.172.287-.38-.209.118-.416.241-.62.366-.335.366-.616.776-.785 1.254.02.065.043.13.065.192ZM61.427 18.037a7.584 7.584 0 0 1-.066-.192 49.09 49.09 0 0 1-.025.068.396.396 0 0 0-.06.166h.014a.256.256 0 0 0 .136-.043l.001.001Z"/><path fill="#000" d="M62.761 16.197a.422.422 0 0 0-.088-.117 6.961 6.961 0 0 0-.526.512c.204-.124.411-.248.62-.365a.198.198 0 0 0-.006-.028v-.002ZM70.109 15.625c-.078-.538-.37-1.12-.861-1.38a.277.277 0 0 1-.13-.144c-.412.144-.834.26-1.26.364.53.079 1.034.28 1.487.568.142.107.506.342.764.592Z"/><path fill="#000" d="M67.858 14.465c.424-.104.848-.22 1.26-.364a.309.309 0 0 1-.017-.07c-.16.005-.318.012-.477.006-.151-.004-.335-.046-.464.055-.121-.034-.249-.084-.373-.042-.164.052-.231.247-.16.391.046.003.094.004.14.008l.09.015v.001ZM69.248 14.245c.491.262.782.842.86 1.38l.074.075c.12.024.254-.027.31-.145.108-.24-.124-.457-.236-.65-.204-.248-.314-.605-.637-.723a.27.27 0 0 0-.23-.152h-.074c-.064.026-.13.048-.196.072a.273.273 0 0 0 .13.144l-.001-.001Z"/><path fill="#000" d="M69.314 14.03c-.071 0-.141 0-.213.002a.234.234 0 0 0 .017.069c.066-.024.132-.047.196-.072ZM67.978 14.622c.518.149 1.03.334 1.49.615.2.12.393.25.576.395.022.02.044.034.068.045 0-.005.003-.01.004-.014-.001-.012-.004-.025-.007-.038-.258-.25-.622-.485-.764-.592a3.827 3.827 0 0 0-1.487-.568l-.185.045c.074.088.19.144.304.113l.001-.001ZM67.675 14.508l.184-.044-.09-.014c-.047-.005-.094-.006-.14-.009.01.02.022.04.037.058l.009.01Z"/><path fill="#000" d="M70.109 15.625c.001.013.005.026.007.038 0 .006-.003.01-.004.014a.246.246 0 0 0 .068.023.906.906 0 0 0-.073-.075h.002ZM61.25 15.524c.31-.849.816-1.582 1.413-2.247-.445.445-.891.89-1.334 1.338.07.139.038.33-.142.392-.147.215-.26.453-.36.693-.027.103-.063.211-.147.279.112.227.208.463.295.704l.158-.105a3.95 3.95 0 0 1 .12-1.052l-.002-.002ZM70.942 9.735c-.307-.29-.8-.4-1.168-.537-.525-.153-1.089-.17-1.628-.105-.271.034-.603.293-.85.1-.008-.008-.012-.015-.018-.023-.492.461-.996.91-1.506 1.353.835-.598 1.763-1.07 2.786-1.196 1.072-.123 2.182.296 2.862 1.146-.03-.253-.099-.505-.194-.754-.074.054-.175.07-.287.014l.003.002ZM62.312 12.838c.03-.028.057-.058.087-.086.97-.907 1.985-1.763 2.986-2.635-.527.379-1.025.8-1.498 1.211-.506.456-1.064.959-1.577 1.51h.002ZM60.992 17.345a.396.396 0 0 1-.034.018c.014 0 .027 0 .041-.003v-.02l-.007.005Z"/><path fill="#000" d="M60.69 16.874c.093-.066.19-.126.284-.19a6.91 6.91 0 0 0-.295-.706c-.01.009-.017.017-.029.024-.015.01-.033.016-.05.023-.011.105-.018.21-.02.317.006.211-.02.427.019.636a.284.284 0 0 1 .092-.104h-.001ZM62.312 12.838c-.465.5-.89 1.041-1.204 1.623.104.008.18.071.221.154.444-.447.89-.893 1.334-1.338.674-.75 1.463-1.413 2.226-2.055.283-.243.577-.48.885-.698A57.302 57.302 0 0 0 67.28 9.17a.392.392 0 0 1-.05-.084c-.653.248-1.266.616-1.844 1.032-1 .872-2.016 1.728-2.986 2.635a5.43 5.43 0 0 0-.087.085l-.001-.001ZM61.118 17.1a.492.492 0 0 1 .103-.083.304.304 0 0 0-.05-.108 2.296 2.296 0 0 1-.04-.33l-.157.104c.05.138.096.277.143.417ZM71.229 9.72c.095.249.162.501.194.755.01.013.023.025.032.04a.281.281 0 0 0 .394.043c.308-.305-.165-.63-.378-.84-.045-.042-.094-.08-.142-.12a.286.286 0 0 1-.099.123h-.001Z"/><path fill="#000" d="M60.999 17.34a.392.392 0 0 1 .119-.24c-.046-.14-.094-.28-.143-.417-.095.065-.19.125-.284.191a.324.324 0 0 0-.092.104c.001.01.001.02.004.03.042.177.187.355.355.355a.396.396 0 0 0 .034-.018l.007-.004ZM61.206 17.2l-.045.03.01.03a.266.266 0 0 0 .037-.06h-.002Z"/><path fill="#000" d="m61.17 17.26-.01-.03-.162.11v.02a.286.286 0 0 0 .17-.1h.002ZM61.161 17.23l.045-.03a.285.285 0 0 0 .015-.184.602.602 0 0 0-.103.082c.014.044.03.087.043.132Z"/><path fill="#000" d="M60.999 17.34c.053-.037.108-.072.162-.11l-.043-.132a.385.385 0 0 0-.119.241v.002ZM69.105 8.751a3.76 3.76 0 0 1 1.996.673 4.427 4.427 0 0 0-.208-.383c-.412-.516-1.033-.827-1.631-1.054-.113-.063-.28-.075-.418-.117-.448.388-.924.744-1.372 1.13a4.774 4.774 0 0 1 1.633-.249Z"/><path fill="#000" d="M68.843 7.87a.54.54 0 0 1-.109-.045c-.306.093-.576.356-.833.548-.196.176-.807.384-.672.713.08-.03.161-.06.243-.087.448-.387.925-.743 1.371-1.131v.001Z"/><path fill="#000" d="M69.262 7.986c.598.227 1.22.538 1.63 1.054.078.124.146.253.21.382.078.055.153.112.226.174a.303.303 0 0 0-.082-.354c.3-.543-1.6-1.301-2.01-1.4a.76.76 0 0 0-.3-.054l-.093.08c.14.04.306.055.419.118Z"/><path fill="#000" d="m68.843 7.87.093-.08a.82.82 0 0 0-.202.035.59.59 0 0 0 .11.044ZM67.472 9l-.105.09c-.03.027-.06.053-.087.081.005.009.01.016.017.024.248.194.58-.066.85-.1.541-.066 1.105-.048 1.629.104.368.135.86.247 1.167.537.11.055.212.038.287-.014a3.68 3.68 0 0 0-.127-.297 3.76 3.76 0 0 0-1.996-.673 4.707 4.707 0 0 0-1.634.25l-.001-.003Z"/><path fill="#000" d="M67.367 9.09 67.472 9a4.977 4.977 0 0 0-.242.087.361.361 0 0 0 .05.084c.03-.027.059-.053.087-.081v.001ZM71.229 9.72a.295.295 0 0 0 .1-.123 3.035 3.035 0 0 0-.228-.173c.048.098.09.197.128.297ZM60.538 15.424a.237.237 0 0 1-.046.21c.045.075.089.151.13.228.035-.24.096-.478.177-.707l-.26.267v.002Z"/><path fill="#000" d="M60.492 15.634a.352.352 0 0 1-.05.053.276.276 0 0 1-.214.053c-.021.2.194.35.372.283a2.98 2.98 0 0 1 .021-.16 4.599 4.599 0 0 0-.129-.23ZM60.585 14.91c-.089.003-.185.08-.265.183.093.1.19.214.218.33l.26-.267c.083-.238.188-.47.31-.695-.014 0-.026-.003-.04 0-.245.008-.369.269-.482.451l-.001-.001Z"/><path fill="#000" d="M60.621 15.864c.02.037.04.077.057.114.086-.067.12-.176.147-.278.1-.24.213-.478.36-.693.18-.063.213-.253.143-.392-.178.18-.354.359-.53.54-.082.23-.142.466-.178.707l.001.002Z"/><path fill="#000" d="M60.678 15.979c-.02-.04-.037-.077-.057-.115a3.188 3.188 0 0 0-.02.16.199.199 0 0 0 .05-.022c.01-.007.018-.016.027-.023ZM61.108 14.46a4.873 4.873 0 0 0-.31.696l.531-.54a.268.268 0 0 0-.22-.154v-.001ZM57.43 13.617h.008l-.19-.1a.27.27 0 0 0 .183.099v.001ZM57.89 13.226a9.913 9.913 0 0 1 1.475 1.076c.198.156.39.316.545.515a.33.33 0 0 1 .116.201l.052.06c.036-.041.077-.082.117-.12-.096-.108-.207-.286-.323-.386-.179-.127-.322-.288-.484-.432-.155-.101-.298-.222-.458-.321a1.235 1.235 0 0 1-.339-.194c-.222-.134-.428-.315-.659-.435-.01.008-.02.016-.03.026-.005.004-.01.007-.013.011l.001-.001Z"/><path fill="#000" d="M60.08 15.076c-.017-.02-.033-.04-.051-.059a.329.329 0 0 0-.116-.202 3.158 3.158 0 0 0-.545-.514c-.46-.398-.95-.77-1.475-1.076-.15.143-.354.07-.437-.072a.716.716 0 0 1-.136-.053.277.277 0 0 0-.134.206.283.283 0 0 0 .064.21c.063.032.126.066.19.101a.731.731 0 0 1 .236.064c.354.208.66.498 1.041.658.19.157.406.276.564.47.16.117.303.243.41.41.07.06.136.157.21.25-.023-.125.062-.261.182-.394l-.002.001ZM60.191 15.7a.29.29 0 0 1-.077-.006c.037.024.074.04.114.048v-.003a.162.162 0 0 1-.037-.04Z"/><path fill="#000" d="m57.89 13.226.013-.011.03-.027a1.266 1.266 0 0 0-.212-.085.2.2 0 0 1-.021.015c.064.035.127.072.19.108ZM60.222 14.983a.407.407 0 0 1-.024-.026c-.04.04-.08.078-.117.119.05.056.098.112.144.171a.948.948 0 0 1 .095-.154c-.035-.04-.07-.076-.098-.11Z"/><path fill="#000" d="M57.453 13.155c.083.141.287.214.437.071a8.37 8.37 0 0 0-.19-.108.285.285 0 0 1-.247.037ZM60.191 15.7c-.075-.107-.044-.289.035-.453a3.316 3.316 0 0 0-.144-.171c-.119.132-.206.27-.183.395a.996.996 0 0 0 .217.223c.025.006.052.007.077.006h-.002ZM60.538 15.424l-.107.11.061.1a.238.238 0 0 0 .047-.21Z"/><path fill="#000" d="M60.442 15.687a.362.362 0 0 0 .05-.053 2.369 2.369 0 0 0-.061-.1l-.003.003a.295.295 0 0 1-.238.163c.01.014.022.028.036.039v.003c.066.012.136 0 .215-.054ZM60.32 15.093a.854.854 0 0 0-.095.154c.073.092.143.188.206.287l.107-.11c-.028-.117-.126-.23-.218-.331Z"/><path fill="#000" d="M60.191 15.7c.1-.009.192-.07.238-.163l.003-.003a3.71 3.71 0 0 0-.206-.287c-.08.162-.11.346-.035.453ZM60.481 1.392c.969.506 1.573 2.053 1.443 3.117-.03.571-.261 1.04-.445 1.589-.248.563-.474 1.137-.756 1.683a17.646 17.646 0 0 1-.91 1.737c-.463.608-1.06 1.114-1.69 1.544-.637.408-1.301.77-2.033.963-.034.071-.066.144-.102.216a.23.23 0 0 1-.047.067l.159.063.015-.01c.38-.136.757-.23 1.133-.375.27-.072.53-.276.814-.251.203-.195.53-.788.839-.692a.298.298 0 0 1 .07.035c.749-1.136 1.362-2.354 1.989-3.562.411-.815.887-1.827 1.449-2.842a.3.3 0 0 1-.012-.062c.021-.217.042-.434.06-.651h-.036c-.189-.027-.276-.232-.217-.401-.183-.164-.259-.41-.08-.613a.544.544 0 0 1-.105-.452c-.218-.027-.463-.187-.401-.436-.139-.042-.27-.114-.304-.26a.315.315 0 0 1 .003-.15.292.292 0 0 1-.098-.247c-.238-.037-.626.05-.657-.275-.14.025-.282.057-.427.092-.044.012-.088.027-.131.041.022.01.047.018.075.022.143.006.272.065.405.111l-.003-.001Z"/><path fill="#000" d="M56.1 12.37c-.053-.021-.105-.044-.158-.063-.133.14-.412.092-.47-.108-.178.17-.043.537.262.475.08-.014.16-.031.24-.048a.266.266 0 0 1 .126-.255v-.001ZM60.958 7.515c-.627 1.208-1.24 2.426-1.989 3.561a.29.29 0 0 1 .034.024c.281-.226.549-.467.8-.716.68-.676 1.04-1.595 1.463-2.44.297-.615.584-1.24.816-1.882.17-.411.308-.847.376-1.291a.265.265 0 0 1-.05-.097c-.56 1.015-1.037 2.027-1.45 2.842v-.001ZM62.455 3.96c-.018.217-.04.434-.06.651a.269.269 0 0 0 .01.062l.078-.14c.017-.191.02-.383.004-.575h-.034l.002.001ZM60.56 1.124c0-.011-.003-.021-.003-.032a.28.28 0 0 1 .128-.22 1.946 1.946 0 0 0-.523-.145c-.336-.043-.431.412-.16.532.044-.014.086-.03.132-.041.145-.037.288-.067.427-.093l-.002-.001Z"/><path fill="#000" d="M56.088 12.025c-.06.015-.12.032-.18.045a.835.835 0 0 1-.307.115c.114.039.227.08.34.122a.262.262 0 0 0 .047-.068c.036-.071.068-.143.102-.215l-.002.001Z"/><path fill="#000" d="M55.94 12.307a7 7 0 0 0-.34-.122.766.766 0 0 1-.126.01l-.003.004c.056.201.336.248.47.108ZM62.458 4.77c.01-.078.02-.158.026-.236a4.484 4.484 0 0 0-.077.14c.011.038.028.07.05.097ZM61.62 1.66c.43.6.775 1.327.852 2.064.01-.167.02-.334.025-.502a2.71 2.71 0 0 0-.188-1.033c-.133-.898-.624-1.14-1.26-1.121l.06.04c.19.165.348.365.512.553l-.002-.002Z"/><path fill="#000" d="M62.308 2.19c.13.33.193.677.187 1.032a10.03 10.03 0 0 1-.025.502c.007.067.013.134.016.202l.001.033c.329-.033.344-.552.14-.76.164-.217.11-.399-.06-.59.144-.196.144-.514-.12-.602a.299.299 0 0 0-.026-.258c.136-.112.118-.342-.022-.44.03-.413-.515-.364-.794-.425-.24-.001-.696-.154-.92-.012.125.053.245.12.362.196.635-.021 1.127.223 1.26 1.121Z"/><path fill="#000" d="M61.62 1.66c-.165-.188-.323-.389-.512-.553l-.06-.04c-.155.005-.32.025-.489.056.031.325.418.24.657.274a.289.289 0 0 0 .098.248.282.282 0 0 0-.003.149c.035.147.165.219.304.26-.062.25.183.408.402.436a.543.543 0 0 0 .105.453c-.18.202-.104.449.08.613-.06.17.029.372.216.4h.037c.007-.078.011-.157.017-.235-.077-.736-.423-1.462-.853-2.064v.002Z"/><path fill="#000" d="m62.472 3.724-.017.235h.033l-.001-.033a3.262 3.262 0 0 0-.015-.202ZM60.557 1.092l.002.032c.17-.03.334-.052.489-.056a2.328 2.328 0 0 0-.363-.196.285.285 0 0 0-.128.22ZM58.262 12.067c.224-.284.432-.579.632-.879-.742.58-1.574 1.05-2.468 1.319.25.11.494.226.738.348.086.037.172.077.257.119a.291.291 0 0 1 .07-.139c.282-.23.536-.49.77-.768h.001Z"/><path fill="#000" d="M57.421 12.975c-.085-.04-.17-.081-.257-.119-.244-.123-.489-.24-.738-.348-.15.045-.3.085-.452.118.012.145.129.279.304.26a1.85 1.85 0 0 1 .383-.015c.279.005.48.145.657.232a.264.264 0 0 1 .102-.038.268.268 0 0 1 .001-.088v-.002ZM58.262 12.067a5.955 5.955 0 0 1-.77.768.279.279 0 0 0-.07.139c.068.032.135.067.2.102.034.007.068.015.1.025.077-.057.155-.158.242-.32a.29.29 0 0 0 .185-.257v-.001c.228-.292.46-.582.708-.858.077-.095.212-.143.235-.278a.279.279 0 0 0-.088-.287l-.109.088c-.2.299-.409.593-.631.879h-.002Z"/><path fill="#000" d="M57.621 13.077a5.383 5.383 0 0 0-.2-.102.268.268 0 0 0-.001.088.314.314 0 0 1 .072-.004c.045.003.089.01.13.018Z"/><path fill="#000" d="M57.42 13.063a.288.288 0 0 0-.102.038.797.797 0 0 0 .135.053.262.262 0 0 1-.033-.092v.001ZM57.7 13.118l.02-.015a.795.795 0 0 0-.099-.026l.079.041Z"/><path fill="#000" d="M57.7 13.118c-.027-.014-.052-.028-.079-.04a.956.956 0 0 0-.13-.019.255.255 0 0 0-.073.004.282.282 0 0 0 .034.093.284.284 0 0 0 .246-.037h.002ZM58.97 11.078a.292.292 0 0 0-.07-.035c-.309-.096-.636.497-.84.692-.282-.025-.544.178-.814.25-.374.147-.75.24-1.132.376l-.016.01c.11.044.219.09.326.137.895-.269 1.726-.74 2.468-1.318l.076-.112h.001Z"/><path fill="#000" d="M56.1 12.37a.266.266 0 0 0-.126.255 6.13 6.13 0 0 0 .452-.118 9.342 9.342 0 0 0-.326-.137ZM58.894 11.19l.109-.089a.29.29 0 0 0-.034-.024l-.075.113ZM54.43 11.867c.084-.08.2-.145.297-.202.29-.19.565-.4.795-.662.127-.139.275-.326.481-.297.01 0 .017.006.027.007.207-.583.364-1.18.492-1.784a5.388 5.388 0 0 1-.134.33c-.479.909-1.167 1.712-2.08 2.188-.015.127-.034.251-.055.375l.175.043.002.002ZM54.983 5.366c.298.086.592.21.86.369.241.233.492.47.699.737.162.3.235.632.25.971.063-.419.124-.84.184-1.258-.976-.729-.725-1.006-2.147-1.02-.387.007-.755.127-1.127.203a.218.218 0 0 1-.062-.009c-.085.132-.154.26-.208.386.462-.257 1.024-.412 1.552-.38l-.001.001ZM57.343 7.539c-.072.492-.15.982-.252 1.467.165-.474.256-.97.252-1.467Z"/><path fill="#000" d="M54.43 11.867c-.06-.014-.117-.03-.175-.044l-.007.042a.28.28 0 0 1-.332.216.353.353 0 0 1-.09-.04c.006.008.01.015.017.022.09.095.242.112.353.042l.127-.056a.327.327 0 0 1 .107-.184v.002ZM56.79 7.442c.02.5-.095 1.02-.268 1.487a14.035 14.035 0 0 1-.492 1.784c.017.004.035.009.05.016a5.37 5.37 0 0 0 1.01-1.723c.103-.485.181-.975.253-1.467a3.828 3.828 0 0 0-.104-.87 1.713 1.713 0 0 0-.207-.456c-.018-.009-.038-.017-.057-.03-.06.42-.12.84-.185 1.259ZM54.31 11.449a3.749 3.749 0 0 1-.425.19.221.221 0 0 0-.077.08c.15.034.298.068.448.104.021-.125.04-.25.055-.374h-.002ZM53.433 5.109c-.13.054-.256.121-.375.206-.293.222.03.661.332.45l.039-.02c.054-.126.124-.255.208-.386a.274.274 0 0 1-.205-.25h.001Z"/><path fill="#000" d="m54.248 11.865.007-.042-.448-.104a.293.293 0 0 0 .02.324c.025.016.054.03.09.04a.282.282 0 0 0 .33-.216v-.002ZM55.22 4.85c.48.165.978.355 1.298.769.172.16.332.33.464.52l.012-.085.04-.294a.354.354 0 0 1-.107-.141c-.293-.513-.78-.96-1.376-1.06-.518-.042-1.084.048-1.506.356l.071-.02c.358-.093.743-.15 1.106-.047l-.001.001Z"/><path fill="#000" d="M57.033 5.76c-.014.098-.028.196-.04.294l-.013.085c.017.025.035.049.05.075.28.118.495-.18.367-.434-.105.082-.256.067-.365-.02h.001ZM55.55 4.559c.596.1 1.083.547 1.376 1.06a.35.35 0 0 0 .107.141c.019-.125.037-.25.058-.378a1.365 1.365 0 0 0-.445-.348c-.301-.144-.57-.35-.899-.436a.305.305 0 0 0-.12-.152c-.062-.041-.12-.086-.195-.096-.308.011-.596.185-.893.268-.312.059-.63.105-.932.207a.264.264 0 0 0-.174.283c.197-.082.405-.14.61-.193.423-.308.989-.398 1.507-.356Z"/><path fill="#000" d="M57.399 5.78a.388.388 0 0 0-.052-.08 5.059 5.059 0 0 0-.256-.317c-.02.126-.04.252-.058.379.11.085.26.1.366.02V5.78ZM56.518 5.619c-.319-.414-.819-.604-1.297-.77-.363-.105-.748-.046-1.106.048-.024.005-.048.012-.072.02a1.485 1.485 0 0 0-.28.266c-.046.06-.086.12-.124.18l.061.008c.373-.076.741-.198 1.127-.204 1.422.014 1.172.292 2.148 1.02l.007-.046a3.244 3.244 0 0 0-.464-.52V5.62Z"/><path fill="#000" d="m56.975 6.185.057.03-.05-.076-.007.046ZM53.639 5.36c.038-.06.078-.12.123-.18.083-.102.178-.19.281-.266-.205.054-.413.11-.61.193.01.114.083.223.206.251v.001ZM55.743 11.44c.088-.2.17-.402.245-.605-.374.41-.808.761-1.276 1.029a2.97 2.97 0 0 1-.096.047l.11.029c.252.054.5.123.744.201-.007-.246.2-.468.273-.7Z"/><path fill="#000" d="m54.727 11.94-.111-.029a5.565 5.565 0 0 1-.293.138c-.008.067.013.141.082.227.254.217.635-.062.923-.091a.699.699 0 0 0 .145.01c-.003-.017-.002-.036-.003-.054a7.74 7.74 0 0 0-.743-.202Z"/><path fill="#000" d="M55.907 12.07a.712.712 0 0 0 .063-.044c.179-.158.051-.483-.187-.485a2.42 2.42 0 0 1 .396-.37c.117-.141.055-.368-.1-.441l-.094.105a9.772 9.772 0 0 1-.245.605c-.073.232-.281.455-.273.701l.057.018a.322.322 0 0 1 .09-.033c.098-.015.196-.035.291-.056h.002Z"/><path fill="#000" d="m55.526 12.16-.058-.019c0 .018 0 .037.003.055h.003a.285.285 0 0 1 .052-.037Z"/><path fill="#000" d="M55.615 12.126a.322.322 0 0 0-.09.034l.076.025a.845.845 0 0 0 .307-.115c-.097.02-.193.04-.291.056h-.002Z"/><path fill="#000" d="M55.475 12.196a.766.766 0 0 0 .126-.011 22.34 22.34 0 0 0-.075-.026.28.28 0 0 0-.052.037h.001ZM55.986 10.835c.016-.04.03-.08.044-.12l-.027-.008c-.206-.029-.354.159-.481.298a3.84 3.84 0 0 1-.796.661c-.096.056-.214.122-.296.202l.184.046c.033-.017.066-.03.097-.047.468-.268.9-.62 1.275-1.03v-.002Z"/><path fill="#000" d="M54.43 11.867a.312.312 0 0 0-.107.183c.098-.043.196-.09.293-.137l-.185-.046h-.001ZM56.08 10.73c-.015-.007-.033-.011-.05-.016-.014.041-.028.08-.044.121.033-.035.063-.07.094-.105ZM61.187 10.513c.172-.175.326-.365.457-.572.493-.768.82-1.651 1.3-2.436.13-.252.569-.598.216-.848a.283.283 0 0 0-.383.097c-.153.221-.31.441-.443.674-.298.556-.567 1.127-.858 1.687-.187.355-.395.708-.679.994-.259.26.126.655.39.402v.002ZM63.958 5.826a.283.283 0 0 0-.06-.373c-.174-.138-.409-.02-.468.178-.14.363.394.56.528.194v.001ZM68.736 10.576h-.003a.23.23 0 0 1-.032-.003l.035.003Z"/><path fill="#000" d="M68.992 10.598c-.087-.008-.174-.015-.26-.024h.004l-.035-.002a.23.23 0 0 1 .032.002c-.724-.086-1.526.083-2.065.595-.22.284.19.622.43.357.341-.255.766-.41 1.197-.415.228-.03.607.112.82-.011.199-.133.118-.48-.123-.503v.001ZM70.032 10.738a.284.284 0 0 0-.287.274c-.004.15.12.287.273.287a.284.284 0 0 0 .287-.273.282.282 0 0 0-.273-.288ZM57.578 9.917a.281.281 0 0 0 .383-.097c.128-.217.26-.431.345-.67.09-.24.152-.49.23-.734a.283.283 0 0 0-.193-.348c-.44-.086-.4.561-.543.833-.08.224-.198.427-.32.63a.282.282 0 0 0 .098.385v.001ZM58.538 7.44c.371.06.469-.575.098-.63-.37-.062-.47.576-.098.63ZM54.017 6.43a.284.284 0 0 0-.287.273c-.004.15.12.288.273.288a.284.284 0 0 0 .287-.274.282.282 0 0 0-.273-.287ZM65.872 16.644a3.43 3.43 0 0 0-.94.104c-.203.057-.438.04-.614.17-.291.216.032.664.326.455.412-.069.787-.192 1.214-.168.368-.002.38-.544.014-.56ZM67.018 16.553a.284.284 0 0 0-.287.273c-.004.15.12.288.273.288a.284.284 0 0 0 .287-.274.282.282 0 0 0-.273-.287ZM58.962 19.307c-.407-.794-.996-1.483-1.635-2.1-1.982-2.053-4.867-3.03-7.676-3.118-1.466-.018-2.966.135-4.309.758-.742.401-1.524.72-2.237 1.175-.942.499-1.794 1.183-2.609 1.872-.442.44-.935.749-1.317 1.265-.266.361-.592.695-.743 1.133-.205.384-.063.775.313.969.265.112.507-.06.696-.23.255-.19.57-.27.866-.369.429-.141.86-.273 1.305-.346 1.673-.153 3.406.265 4.789 1.228.93.792 1.628 1.81 2.313 2.811.39.597.733 1.228 1.17 1.794.857 1.176 1.973 2.156 3.19 2.943 1.353.977 2.93 1.587 4.557 1.925.46.1.935.1 1.4.185 1.064.314 1.039-.98 1.2-1.678.166-1.294.27-2.615.176-3.927-.04-1.57-.25-3.14-.766-4.628-.21-.56-.427-1.118-.681-1.66l-.002-.002Zm.802 9.294a10.149 10.149 0 0 1-.22 1.548c-.034.182-.043.387-.169.531-2.094-.19-4.156-.748-5.89-1.993-1.071-.682-2.055-1.515-2.861-2.497-.33-.407-.618-.841-.896-1.281a5.417 5.417 0 0 1-1.653-2.418c-.622-.797-1.329-1.516-2.258-1.946-1.288-.652-2.757-.907-4.191-.796-.584.078-1.144.266-1.702.448-.38.05-.693.266-.979.519l-.045-.047c.072-.316.275-.591.472-.848.178-.225.367-.476.57-.685.23-.21.497-.413.726-.638.76-.661 1.536-1.324 2.42-1.816.82-.516 1.752-.947 2.624-1.385 1.132-.49 2.393-.639 3.621-.651h-.036c1.467.002 2.92.263 4.286.787 2.279.167 4.068 1.782 4.692 3.797.004.006.008.013.013.018.7 1.277 1.135 2.691 1.377 4.123.202 1.73.333 3.496.1 5.23Z"/><path fill="#000" d="M58.197 22.58a5.216 5.216 0 0 0 .078-3.351c-.886-1.374-2.11-2.467-3.518-3.271a11.21 11.21 0 0 0-1.173-.526h-.004c-3.886-.318-6.713 3.522-5.507 7.058.4.512.763 1.054 1.126 1.574.176.282.35.565.528.845 2.686 2.24 7.143 1.36 8.471-2.328l-.001-.001Zm-8.617 1.407c-2.643-2.95-.747-7.7 3.216-7.999 3.64-.281 6.267 3.54 4.694 6.844-1.438 3.083-5.636 3.707-7.91 1.155Z"/><path fill="#000" d="M48.072 22.49a5.417 5.417 0 0 0 1.653 2.418c-.178-.28-.351-.564-.528-.846-.364-.52-.728-1.062-1.125-1.574v.002ZM58.275 19.229c-.624-2.016-2.413-3.63-4.692-3.797.399.153.79.328 1.173.526 1.41.804 2.633 1.897 3.518 3.27h.001ZM55.62 23.013c1.686-1.733.855-4.733-1.48-5.351a3.242 3.242 0 0 0-.65-.114 1.397 1.397 0 0 1 .24.18 1.033 1.033 0 0 1 .28.44c.028.085.043.173.054.263a1.165 1.165 0 0 1-.028.49c-.015.067-.026.132-.04.198a1.07 1.07 0 0 1-.185.445 2.153 2.153 0 0 1-.25.314c-.107.114-.234.2-.37.276l.007-.003-.013.007-.018.01.008-.006a1.744 1.744 0 0 1-.203.091c.006-.001.012-.004.017-.006l-.033.013.016-.007a1.49 1.49 0 0 1-.11.034 1.083 1.083 0 0 1-.178.022 3.228 3.228 0 0 1-.26 0 1.474 1.474 0 0 1-.272-.025 2.397 2.397 0 0 1-.712-.315 1.254 1.254 0 0 1-.388-.408 1.028 1.028 0 0 1-.084-.23c-.021-.086-.024-.171-.032-.258-.007-.064-.017-.13-.016-.195a1.357 1.357 0 0 1 .05-.335c-.798.831-1.172 2.072-.73 3.304.763 2.258 3.747 2.904 5.38 1.166ZM51.861 18.154l.002-.002-.002.002ZM31.148 32.413v.005l.006.026a.258.258 0 0 1-.006-.033v.002Z"/><path fill="#000" d="M32.908 28.556c-.221-.12-.39.049-.46.25-.243.488-.442.998-.646 1.504-.213.5-.38 1.014-.537 1.532-.06.185-.167.38-.117.578v-.006c.002.011.005.021.006.032-.003-.008-.003-.017-.006-.025.04.279.47.324.546.027.038-.393.228-.764.326-1.151.283-.76.585-1.512.931-2.245.104-.156.147-.386-.045-.494l.002-.002ZM33.511 27.118a.282.282 0 0 0-.278.282c0 .152.128.278.28.278.154 0 .28-.129.28-.281a.283.283 0 0 0-.282-.28ZM45.862 22.693c-.308-.31-.597-.684-.996-.874-.397-.118-.564.494-.14.558.523.414.945.939 1.355 1.461.173.23.396.523.555.78.078.133.268.157.389.074.277-.205 0-.506-.137-.705-.322-.447-.66-.882-1.025-1.294h-.001ZM47.659 25.652a.283.283 0 0 0-.291.269c-.006.147.114.291.268.291.154 0 .286-.11.292-.269.005-.147-.115-.291-.27-.291ZM56.867 15.679c.582.353 1.029.891 1.464 1.408.143.185.312.52.59.34a.283.283 0 0 0 .072-.389c-.52-.683-1.088-1.375-1.824-1.83-.31-.195-.609.27-.302.47ZM59.477 18.53c.153 0 .286-.111.292-.27.005-.147-.115-.291-.27-.291a.282.282 0 0 0-.29.269c-.006.147.114.291.268.291ZM58.797 32.328a7.743 7.743 0 0 1-.875-.131c-.238-.108-.49.196-.338.41.07.104.18.132.296.155.284.051.571.096.858.124.367.028.423-.511.058-.558h.001ZM59.634 32.375c-.152 0-.276.139-.273.287a.284.284 0 0 0 .287.273c.153 0 .276-.138.273-.287a.284.284 0 0 0-.287-.273ZM39.47 46.548a.283.283 0 0 0-.39.066c-.215.289-.437.57-.663.848-.835 1.044-1.815 1.991-2.977 2.663a.285.285 0 0 0-.087.387c.08.126.26.172.387.087.676-.39 1.288-.878 1.86-1.408.508-.48.969-1.016 1.404-1.565.182-.227.358-.456.532-.688a.283.283 0 0 0-.066-.391v.001ZM39.977 45.18c-.361-.09-.512.533-.146.617.365.09.512-.533.146-.617ZM47.512 43.1a.282.282 0 0 0-.378.114c-.27.428-.498.88-.742 1.323-.304.482-.764.88-1.06 1.38a.283.283 0 0 0 .163.362.282.282 0 0 0 .358-.155c.176-.235.37-.456.554-.684.346-.379.595-.823.82-1.281.125-.232.267-.454.4-.681.077-.132.015-.31-.115-.379ZM48.013 41.706c-.402-.097-.539.681-.125.723.359.046.48-.647.125-.723ZM50.123 46.775c-.153 0-.276.139-.273.288a.284.284 0 0 0 .287.273c.152 0 .275-.139.273-.287a.284.284 0 0 0-.287-.274Z"/></g><defs><clipPath id="a"><path fill="#fff" d="M0 0h72v62.621H0z"/></clipPath></defs></svg>