<svg width="24" height="24" viewBox="0 0 24 24" fill="none" xmlns="http://www.w3.org/2000/svg">
<circle cx="12" cy="12" r="12" fill="#F9E3DE"/>
<path d="M17.7496 11.7208C17.9894 12.0978 18.125 12.5 18.125 12.9862C18.125 14.1038 17.1073 15.1592 15.7784 15.1592H14.7809C14.9154 15.4844 15.0229 15.8734 15.0229 16.3408C15.0229 18.1891 13.9923 19 12.4178 19C10.7332 19 10.8293 16.5896 10.4556 16.2426C9.83364 15.665 9.09896 14.5554 8.57547 14.125H5.875C5.39175 14.125 5 13.7612 5 13.3125V7.21875C5 6.77002 5.39175 6.40625 5.875 6.40625H7.625C8.03223 6.40625 8.37444 6.66457 8.47205 7.01436C9.6891 6.98894 10.5245 6.00025 13.3338 6.00025C13.5312 6.00025 13.75 6 13.9414 6C16.0501 6 17.0035 7.00097 17.0296 8.42049C17.3938 8.88831 17.5847 9.51538 17.5037 10.1214C17.7732 10.5899 17.8774 11.1457 17.7496 11.7208ZM16.0611 10.354C16.4045 9.81748 16.0955 9.09943 15.6799 8.89225C15.8905 7.65369 15.1985 7.219 14.2274 7.219H13.1933C11.2344 7.219 9.96593 8.17928 8.5 8.17928V12.9062H8.79859C9.57406 12.9062 10.6574 14.7062 11.3837 15.3808C12.1591 16.1009 11.9007 17.3011 12.4178 17.7812C13.7104 17.7812 13.7104 16.9439 13.7104 16.3408C13.7104 15.3463 12.9349 14.9007 12.9349 13.9404H15.7784C16.3556 13.9404 16.81 13.4603 16.8125 12.9801C16.815 12.5003 16.462 12.0201 16.2036 12.0201C16.5724 11.6506 16.6512 10.8715 16.0611 10.354ZM7.40625 8.03125C7.40625 7.6947 7.11244 7.42188 6.75 7.42188C6.38756 7.42188 6.09375 7.6947 6.09375 8.03125C6.09375 8.3678 6.38756 8.64062 6.75 8.64062C7.11244 8.64062 7.40625 8.3678 7.40625 8.03125Z" fill="#BD4965"/>
</svg>
