<svg width="24" height="24" viewBox="0 0 24 24" fill="none" xmlns="http://www.w3.org/2000/svg">
<circle cx="12" cy="12" r="12" fill="#E6F6F6"/>
<path d="M17.7496 12.2792C17.9894 11.9022 18.125 11.5 18.125 11.0138C18.125 9.8962 17.1073 8.84084 15.7784 8.84084H14.7809C14.9154 8.51559 15.0229 8.1266 15.0229 7.65916C15.0229 5.81088 13.9923 5 12.4178 5C10.7332 5 10.8293 7.41041 10.4556 7.75742C9.83364 8.33498 9.09896 9.44455 8.57547 9.875H5.875C5.39175 9.875 5 10.2388 5 10.6875V16.7812C5 17.23 5.39175 17.5938 5.875 17.5938H7.625C8.03223 17.5938 8.37444 17.3354 8.47205 16.9856C9.6891 17.0111 10.5245 17.9997 13.3338 17.9997C13.5312 17.9997 13.75 18 13.9414 18C16.0501 18 17.0035 16.999 17.0296 15.5795C17.3938 15.1117 17.5847 14.4846 17.5037 13.8786C17.7732 13.4101 17.8774 12.8543 17.7496 12.2792ZM16.0611 13.646C16.4045 14.1825 16.0955 14.9006 15.6799 15.1078C15.8905 16.3463 15.1985 16.781 14.2274 16.781H13.1933C11.2344 16.781 9.96593 15.8207 8.5 15.8207V11.0938H8.79859C9.57406 11.0938 10.6574 9.29381 11.3837 8.61918C12.1591 7.8991 11.9007 6.69889 12.4178 6.21875C13.7104 6.21875 13.7104 7.05613 13.7104 7.65916C13.7104 8.65371 12.9349 9.09932 12.9349 10.0596H15.7784C16.3556 10.0596 16.81 10.5397 16.8125 11.0199C16.815 11.4997 16.462 11.9799 16.2036 11.9799C16.5724 12.3494 16.6512 13.1285 16.0611 13.646ZM7.40625 15.9688C7.40625 16.3053 7.11244 16.5781 6.75 16.5781C6.38756 16.5781 6.09375 16.3053 6.09375 15.9688C6.09375 15.6322 6.38756 15.3594 6.75 15.3594C7.11244 15.3594 7.40625 15.6322 7.40625 15.9688Z" fill="#47C0C1"/>
</svg>
