<svg xmlns="http://www.w3.org/2000/svg" width="258" height="201" fill="none"><g clip-path="url(#a)"><path fill="#A4D357" d="M174.027 81.353c.161-.128.341-.294.526-.403a39.88 39.88 0 0 0-.488-.436c-1.85-1.431-3.374-3.218-4.577-5.213-2.025 1.403-4.212 2.516-6.441 3.568-1.453.849-2.925 1.294-4.449 1.9-4.118 1.664-8.434 3.071-11.89 5.915-2.39 1.985-4.302 4.72-4.335 7.914.194 3.014 1.581 5.947 3.971 7.809 1.363.958 3.02 1.73 4.681 1.82 2.731-.142 5.249-1.531 7.398-3.094 5.585-4.232 8.334-10.857 12.485-16.297.971-1.209 1.969-2.436 3.124-3.483h-.005Zm-27.555 8.866a9.367 9.367 0 0 0-1.217 2.317c-.364 1.787-.582 4.01.521 5.55.525.563-.322 1.369-.861.81-.753-.701-.876-1.815-1.037-2.782-.331-2.213.171-4.544 1.482-6.374.312-.469.88-1.37 1.495-.791.436.502-.113.877-.383 1.265v.005Zm1.798-1.63a.595.595 0 0 1-.577-.607.598.598 0 0 1 .606-.578c.322 0 .587.294.577.607a.598.598 0 0 1-.606.578Z"/><path fill="#E2FFB4" d="M176.602 84.874c-1.803.18-3.488.81-4.875 1.938-1.377 1.308-2.57 2.767-3.625 4.331-.351.555-.701 1.109-1.056 1.663a36.236 36.236 0 0 0-2.04 4.062c-.303.8-.667 1.582-.984 2.379-.256 2.615.781 5.26 2.693 7.16.189.147.374.36.62.384.028 0 .047.019.071.028 4.667.081 6.437-2.928 6.654-7.392.275-2.654.497-5.317.971-7.938.364-2.53 1.704-4.715 3.346-6.615-.592.004-1.188.009-1.78.009l.005-.01Zm-5.045 18.083c-.322.465-.488 1.502-1.259 1.175-.838-.559.232-1.507.421-2.165.312-1.185.369-2.446.464-3.668.052-.768 1.216-.702 1.183.07-.166 1.555-.085 3.185-.809 4.593v-.005Zm.511-6.435a.606.606 0 0 1-.753-.37c-.18-.389-.251-.948.251-1.118.294-.1.663.061.748.374.18.389.256.943-.251 1.114h.005ZM151.763 82.182c2.329-1.029 4.733-1.943 7.052-2.948 1.932-.82 3.924-1.687 5.372-3.213 1.368-1.308 1.813-3.127 2.334-4.876-.284.118-.563.242-.847.35-1.965.91-4.132 1.02-6.262.858-4.586-.677-9.447-2.108-13.996-.526-3.265 1.142-5.036 3.161-5.178 6.696.048.394.114.782.199 1.17.123.115.218.271.27.442 1.335 1.61 3.469 2.412 5.49 2.63 1.898.312 3.758-.067 5.566-.588v.005Zm3.247-8.464c.322 0 .573.322.559.626-.019.336-.303.559-.625.559s-.573-.322-.559-.626c.019-.336.303-.559.625-.559Zm-5.178-.758c1.084-.014 2.121.374 3.204.426.767.057.706 1.223-.066 1.18-.871-.052-1.713-.246-2.565-.398-.89-.07-1.794.062-2.679.119a9.055 9.055 0 0 0-1.178.28.605.605 0 0 1-.696.018c-1.363-1.582 3.166-1.563 3.99-1.635l-.01.01Z"/><path fill="#A4D357" d="M184.066 87.077c-1.008-.104-2.101.043-3.114.223-1.827.379-3.607 1.843-3.825 3.772-.132 2.545 1.155 5.132 3.153 6.668.156.147.378.203.544.317.199-.005.397-.014.596-.028 1.804-.161 3.204-1.654 3.498-3.398.246-1.877-.705-3.65-.819-5.511-.014-.64-.099-1.37-.038-2.048l.005.005Zm-2.357 6.17c-.568-.734.454-1.55.956-.74.573.73-.45 1.55-.956.74Z"/><path fill="#E2FFB4" d="M166.833 69.728c-.028.01-.052.019-.08.024v.005c.028-.01.052-.024.08-.034v.005Z"/><path fill="#A4D357" d="M156.794 126.287a209.084 209.084 0 0 1-1.954-1.721c-3.096-2.919-6.399-5.572-9.414-8.539-5.064-4.602-9.731-9.62-14.578-14.449-10.412-10.857-20.584-22.23-27.342-35.793-3.105-6.18-5.969-12.5-8.023-19.112-.932-2.54-1.723-5.137-1.898-7.852-.426-3.203-.53-6.464-.099-9.663.071-1.61.246-3.184.554-4.71-.029-.232 0-.488.023-.697.119-.398.043-.815.105-1.222-.029-1.024-.767-2.024-1.624-2.521-.913-.498-2.03-.171-2.882.256-.014.014-.033.028-.048.042a.476.476 0 0 1-.094.076c-1.25 1.038-2.495 2.08-3.74 3.113-4.458 3.611-8.49 7.706-12.22 12.06a.036.036 0 0 1-.01.02c-.037.042-.075.08-.108.118a151.325 151.325 0 0 0-6.783 8.592C57.25 57.042 50.165 71.396 43.965 85.93c-3.796 8.905-6.93 18.06-10.015 27.225-3.365 9.734-5.94 19.676-8.453 29.656-1.988 7.914-3.806 15.871-5.23 23.903-.833 5.753-1.515 11.544-1.903 17.344-.18 3.465-.223 6.834-.085 10.284-.01.317-.024.635-.029.952.772 1.323 1.94 2.398 3.39 2.929 1.168.246 2.404-.322 3.37-.948a4.34 4.34 0 0 0 .553-.512c.213-2.459.715-4.914 1.349-7.293 2.035-9.724 7.374-18.382 13.65-25.94 4.79-5.332 9.963-10.45 15.888-14.511 9.244-6.487 19.666-11.06 30.566-13.866.071-.024.137-.038.208-.052 1.874-.479 3.758-.91 5.656-1.284 9.883-2.498 20.078-3.019 30.216-3.502 10.687-.55 21.601-.289 32.089 1.966.166-.061.355-.085.521-.094.506-.214 1.051-.489 1.368-.929.861-1.294.97-3.062.118-4.379-.099-.194-.274-.393-.402-.597l.004.005Zm-135.538 55.98a.598.598 0 0 1-.592-.592.6.6 0 0 1 .592-.593.6.6 0 0 1 .591.593c0 .322-.27.592-.591.592Zm2.026-11.814a15.748 15.748 0 0 0-.45 2.659c-.109 1.085-.402 2.118-.497 3.198-.17.654.203 2.019-.8 2.005a.592.592 0 0 1-.506-.664c.075-1.535.393-3.056.615-4.539.043-1.223.43-2.394.592-3.597a.6.6 0 0 1 .591-.593c.805.048.587 1 .46 1.531h-.005Zm21.762-80.011a.598.598 0 0 1-.592-.593c0-.322.27-.592.592-.592.322 0 .592.27.592.592 0 .323-.27.593-.592.593Zm5.126-9.91c-.398.958-1.184 1.863-1.619 2.759-.587 1.184-1.046 2.43-1.59 3.634a.593.593 0 0 1-.776.313c-.29-.123-.45-.483-.313-.777.729-1.578 1.269-3.256 2.215-4.725.341-.55.753-1.061.999-1.668a.597.597 0 0 1 .776-.313.6.6 0 0 1 .312.778h-.004Zm23.163 56.711a.62.62 0 0 1-.43.147c-.323 0-.573-.322-.555-.626a.589.589 0 0 1 .2-.407.62.62 0 0 1 .43-.147c.322 0 .573.322.554.625a.59.59 0 0 1-.2.408Zm1.065-97.209a.598.598 0 0 1-.592-.592c0-.322.27-.593.592-.593.322 0 .592.27.592.593 0 .322-.27.592-.592.592Zm2.73-4.895c.848-.839 1.686-1.701 2.613-2.45.554-.498 1.255-.853 1.756-1.398a.599.599 0 0 1 .777-.313c1.022.659-.38 1.588-.957 1.986a19.218 19.218 0 0 0-1.935 1.616c-.739.744-1.52 1.474-2.225 2.236-.288.37-.695.944-1.207.55-.762-.725.772-1.663 1.179-2.227Zm7.895 98.607c-.227.213-.549.218-.837.246-1.97.175-3.872.791-5.727 1.403-.587.241-1.146.455-1.718.725a.6.6 0 0 1-.79-.27c-.138-.285-.02-.659.274-.792 1.439-.658 2.967-1.237 4.5-1.559 1.18-.374 2.377-.644 3.612-.706.601-.351 1.212.488.691.957l-.005-.004Zm39.478-35.281c-.213.232-.61.26-.837.033-2.49-2.626-5.036-5.175-7.09-8.151-.266-.337-.739-.65-.407-1.123.7-.801 1.419.512 1.765 1 1.619 2.18 3.403 4.165 5.296 6.08.294.308.573.625.857.928.331.318.838.768.421 1.233h-.005Zm2.239 2.819a.602.602 0 0 1-.611-.573c-.009-.313.251-.611.573-.611.322 0 .601.246.611.573.009.313-.251.611-.573.611Z"/><path fill="#E2FFB4" d="M123.157 131.495s0 .009.005.019c.014-.005.029-.014.038-.019h-.043Z"/><path fill="#A4D357" d="M159.98 70.922c1.723.048 3.422-.616 4.581-1.905.327-.346.677-.668.999-1.014-.947-.17-2.087-.673-2.617-.858-1.368-.597-2.58-1.412-3.844-2.108-.918-.574-1.86-1.18-2.967-1.256-1.444-.232-2.741.35-3.81 1.25-.038.205-.18.39-.213.607-.118.9.279 1.849.809 2.56 1.524 2.203 4.601 2.653 7.062 2.729v-.005Zm-4.317-5.293c.322 0 .573.322.559.625-.019.337-.303.56-.625.56s-.573-.323-.558-.626c.018-.336.302-.56.624-.56Z"/><path fill="#E2FFB4" d="M107.586 132.689c-.171-.052-.289-.114-.455-.123-1.798.184-3.592.398-5.367.663-4.989.858-9.934 1.972-14.843 3.227-.53.199-1.05.446-1.5.716-.966.659-2.002 1.365-2.608 2.388-.16.308-.383.65-.478.962a1.087 1.087 0 0 1-.151.436c-.147.953-.592 1.953-.805 2.796-.275 1.204-.852 2.455-.691 3.697 1.089 2.72 4.572 3.492 7.038 2.217 3.228-1.54 5.987-3.852 8.742-6.094 3.568-2.933 7.109-5.871 11.032-8.317.034-.019.067-.042.095-.061.156-.176.407-.304.549-.493.426-.436.331-1.057.137-1.583-.146-.223-.459-.294-.686-.426l-.009-.005Zm-22.18 15.491c-.321 0-.572-.312-.558-.625.02-.337.299-.559.625-.559.327 0 .573.312.559.625-.02.337-.299.559-.625.559Zm8.53-4.312c-.961.768-6.314 5.89-7.147 3.872-.114-.588.497-.74.946-.801 1.5-.474 2.599-1.621 3.801-2.578.525-.45 1.05-.896 1.576-1.341a.572.572 0 0 1 .473-.199c.53.019.753.715.35 1.052v-.005Z"/><path fill="#A4D357" d="M148.711 132.348c-7.128-1.01-14.384-1.232-21.588-1.014-1.964.407-3.814 1.308-5.476 2.407a.12.12 0 0 0 .029-.019h.004c-.79.45-1.424 1.104-2.11 1.682a.914.914 0 0 1-.261.275c-.975 1.246-2.177 2.332-3.105 3.611-.941 1.332-1.907 2.858-2.016 4.521.133 1.474 1.278 2.763 2.509 3.497 2.144 1.318 4.685-.194 6.711-.947 3.379-1.308 6.124-3.744 9.315-5.403 4.439-2.322 10.01-4.857 15.633-6.411.033-.024.056-.057.099-.076.128-.052.222-.071.336-.142.53-.413.852-1.266.246-1.754a.843.843 0 0 0-.331-.227h.005Zm-22.113 10.449c-.322 0-.573-.313-.558-.626.018-.336.298-.559.624-.559.327 0 .573.313.559.626-.019.336-.298.559-.625.559Zm8.164-4.616c-.298.266-.695.308-1.046.465-1.401.606-2.683 1.436-3.9 2.35-.53.341-1.415 1.318-1.935.498-.327-.749.7-.943 1.102-1.346 1.524-1.161 3.162-2.237 4.989-2.848.582-.502 1.363.365.79.881Z"/><path fill="#E2FFB4" d="m63.489 46.683-.02.014.005.005c0-.005.01-.014.015-.02Z"/><path fill="#fff" d="M230.714 27.395c-.161-.303-.506-.464-.501-.829-2.13-2.37-4.8-4.331-7.857-5.288-4.463-1.095-9.187-.256-13.125 2.075-5.372 3.076-10.469 7.63-11.913 13.876-1.429 5.53.512 11.32 3.881 15.747 2.977 3.971 6.806 6.151 11.857 5.526 6.001-.726 11.595-3.417 15.694-7.881 2.707-2.464 4.927-5.431 5.798-9.037 1.15-3.772-.374-7.668-1.94-11.066a43.556 43.556 0 0 0-1.894-3.123Zm-2.134 11.919c-.298 1.739-1.477 3.09-2.726 4.213-1.865 1.838-4.582 2.843-7.209 2.843-.478 0-.956-.033-1.42-.1-1.969-.331-3.261-1.957-4.463-3.412-.923-1.132-1.548-2.459-1.903-3.862.18.071.365.128.554.17-.009 0-.023 0-.033-.004.019 0 .033.005.052.01h-.005c.218.038.431.056.649.056a2.83 2.83 0 0 0 1.264-.284c.407-.199.795-.483 1.05-.867.114-.17.199-.346.279-.53.09-.21.18-.427.213-.655.053-.317.071-.649-.033-.957a2.583 2.583 0 0 0-.288-.569 3.805 3.805 0 0 0-.781-.848 3.291 3.291 0 0 0-1.212-.644 2.733 2.733 0 0 0-.809-.076c-.28.01-.564.057-.819.17a1.638 1.638 0 0 0-.152.08l-.146.048c.009-.042.014-.085.019-.132.762-3.01 3.024-5.507 5.94-6.554.852-.389 1.916-.654 2.811-.299 5.485.104 10.209 6.971 9.177 12.203h-.009Z"/><path fill="#A4D357" d="M71.61 35.883c.36-.223.691-.815 1.08-1.1 2.574-2.976 5.281-5.847 8.15-8.534.023-.247.203-.427.317-.65.246-.625.009-1.317-.232-1.904-.17-.2-.256-.489-.53-.574a.884.884 0 0 0-.37-.09.367.367 0 0 1-.104-.019c-2.811.573-5.646 1.043-8.477 1.488-3.128.27-6.257.597-9.328 1.28-4.137.71-8.24 2.004-11.615 4.554-2.002 1.526-4.27 3.672-3.876 6.44 1.505 5.506 9.494 2.383 13.46 2.213.029 0 .057 0 .08.005h.02c2.361.01 4.78.123 7.01-.711 1.575-.55 3.166-1.303 4.415-2.398Zm-16.05-5.734a.598.598 0 0 1-.591-.593c0-.322.27-.592.592-.592.321 0 .591.27.591.593 0 .322-.27.592-.591.592Zm6.906-1.929c-1.292.218-2.542.659-3.848.792-.606.047-1.453.767-1.832-.005-.317-1.048 1.6-1.09 2.267-1.266.961-.066 1.97-.516 2.897-.62.412-.034.857-.384 1.212-.01.473.545-.119 1.08-.696 1.114v-.005Z"/><path fill="#E2FFB4" d="m173.72 136.168.024-.039c-.01.015-.02.024-.024.039Z"/><path fill="#E2FFB4" d="M255.506 21.903c-.412-.407-.781-.91-1.283-1.18-1.131-.516-2.319-.83-3.545-.682-1.993.17-3.763 1.014-5.575 1.763-.663.132-3.086 1.317-4.251 1.237-.397 0-.691-.143-.752-.593 0-.317.255-.578.568-.592a.614.614 0 0 1 .227-.033c.767-.138 1.505-.408 2.258-.621 1.945-.716 3.772-1.74 5.163-3.294 1.307-1.194 2.372-2.725 2.788-4.459a.67.67 0 0 1 .085-.185c-1.817-2.402-4.075-4.478-6.55-6.203-2.433-1.62-5.292-2.436-8.018-3.436-4.709-1.436-9.669-2.8-14.615-2.388-10.91.938-20.74 6.544-29.085 13.335-2.991 2.72-5.826 5.706-8.628 8.606-.374.422-.738.848-1.098 1.28-3.143 4.492-5.727 9.41-7.748 14.51-.341.83-.648 1.73-.913 2.545a1.36 1.36 0 0 1-.152.426.566.566 0 0 1-.345.517c-.346.142-.743-.11-.805-.474-2.428-5.16-6.186-9.549-9.537-14.127-5.339-7.681-12.235-14.392-20.522-18.794-4.743-2.464-9.774-4.483-15.155-4.862-6.981-.446-16.017 1.64-21.99 5.279-2.063 1.374-3.824 2.928-5.575 4.63-1.368 1.568-2.395 3.402-3.479 5.175-.033.061-.066.127-.104.19-1.68 3.369-2.026 7.207-2.32 10.89-.288 2.487-.188 4.99.115 7.468.194 1.857.369 3.724.941 5.51 1.61 4.958 3.3 9.9 5.458 14.654 3.592 7.852 7.695 15.486 12.864 22.42 8.481 11.169 18.458 21.068 28.313 31.001 7.132 6.819 14.497 13.345 22.022 19.704 2.551 2.256 5.377 4.199 7.739 6.644.123-.142.274-.275.397-.407.346-.341.715-.673 1.089-.995.094-.095.189-.19.288-.28a.472.472 0 0 1 .209-.152c.123-.109.246-.218.369-.322 3.928-3.748 8.174-7.103 12.06-10.885a1037.758 1037.758 0 0 0 18.458-17.212c3.029-2.938 6.309-5.592 9.296-8.577 3.256-3.37 6.697-6.601 9.84-10.066 3.502-4.08 7.142-7.99 10.54-12.098 3.36-4.213 6.461-8.648 9.442-13.131 6.991-10.203 12.978-21.89 12.836-34.542.137-2.37-.312-4.644-1.06-6.838-.09-.128-.18-.247-.265-.365l.005.01ZM99.511 46.285a.593.593 0 0 1-.757-.356c-.478-1.289-2.812-9.293-1.515-9.833.843-.218.866.654.82 1.247.127 2.374.742 4.587 1.372 6.852.08.654.932 1.668.08 2.085v.005Zm1.311 3.762c-.322 0-.577-.312-.563-.62.019-.337.298-.564.62-.564s.577.313.563.62c-.019.337-.298.564-.62.564Zm77.342 28.965c.237-.285.639-.261.899-.024 1.704 1.199 3.597 2.199 5.618 2.734.232-.057.502.024.634.232.408.688-.421 1.166-1.027.891-1.897-.511-3.677-1.417-5.324-2.478-.44-.308-1.288-.72-.805-1.356h.005Zm-1.477-2.308c.322 0 .582.303.568.616a.601.601 0 0 1-.615.568c-.322 0-.582-.303-.568-.616a.601.601 0 0 1 .615-.568Zm-22.746-56.137c.899.019.889 1.298-.019 1.203-.9-.014-.89-1.293.019-1.203Zm-9.249-7.293c.81-1.531 6.404 3.53 7.275 4.331.525.564-.327 1.365-.866.806-1.785-1.602-3.531-3.152-5.661-4.175-.45-.105-.989-.427-.743-.962h-.005Zm28.498 119.903c-.322 0-.583-.303-.568-.616a.602.602 0 0 1 .615-.569c.322 0 .582.304.568.616a.602.602 0 0 1-.615.569Zm8.827-7.483c-.833.413-1.43 1.033-2.107 1.616-.823.678-1.656 1.337-2.409 2.095-.577.398-1.401 1.876-2.153 1.218-.213-.228-.223-.626.019-.839 1.164-1.043 2.243-2.208 3.483-3.128.677-.459 2.712-2.862 3.408-1.763a.595.595 0 0 1-.246.801h.005Zm5.116-38.489c-.615-.1-1.221-.232-1.822-.384-.365 2.322.587 4.55.852 6.82.198 3.203-2.485 5.833-5.67 5.634-1.761-.085-3.503-.346-5.126-1.028-.095.928-.185 1.853-.298 2.758-.261 4.668-3.943 7.554-8.534 6.937-2.811-.459-7.573-2.165-8.467-5.127-.133.09-.265.185-.403.27-2.167 1.308-4.624 2.46-7.203 2.294-7.715-1.005-12.178-11.042-6.939-17.108.161-.199.332-.383.497-.573-2.144-1.18-3.289-3.701-4.217-5.876-.663-1.82-1.013-3.777-.369-5.654.596-2.587 2.683-4.369 5.102-5.241 1.496-.668 3.11-.92 4.743-.962-.303-1.227-.124-2.659.459-3.753 1.325-2.024 3.526-3.843 6.067-3.64 1.397.02 2.684.635 3.796 1.398 1.269.716 2.485 1.512 3.82 2.104.752.275 1.5.612 2.295.744.19.034.379.038.568.053-.019-.209-.038-.413-.042-.621-.587-.749.686-1.44 1.069-.597.142.379.128.815.175 1.208.246 3.436 2.135 6.464 3.943 9.26 1.022 1.44 2.324 2.635 3.682 3.744 2.263 2.293 5.022 3.947 8.046 5.032 1.368.564 2.779.924 4.236 1.161.743.17.492 1.327-.265 1.152l.005-.005Zm15.614-65.145c.27-.38.79-.72 1.169-.28a.591.591 0 0 1-.019.787c-.776.8-1.675 1.483-2.546 2.175-.762.564-1.477 1.028-2.116 1.663-.535.393-1.017 1.65-1.798 1.09-1.226-1.019 4.567-4.497 5.31-5.435Zm-7.478 7.33c-.133-.833 1.093-1.018 1.174-.175.132.834-1.094 1.02-1.174.176Zm27.058 31.936c-.321 0-.605-.223-.624-.56-.019-.307.236-.625.558-.625.322 0 .606.223.625.56.019.307-.237.625-.559.625Zm8.061-5.966c-.904.616-4.804 5.298-5.562 3.966-.421-.767.673-1.047 1.117-1.44.796-.612 1.453-1.375 2.197-2.048.497-.469 1.008-.924 1.476-1.379.213-.294.634-.379.914-.128.341.304.184.787-.142 1.024v.005Zm4.752-11.762c-.999 3.232-3.384 5.805-5.784 8.09-2.655 2.804-5.864 4.994-9.471 6.368-3.043 1-6.209 1.896-9.447 1.687-4.951-.142-8.926-3.786-11.368-7.838-3.583-5.222-4.464-12.155-1.884-17.994 2.745-6.35 10.086-11.86 16.65-13.728 1.804-.483 3.673-.744 5.519-.47 1.695-.013 3.408.295 4.932 1.034 1.453.625 2.854 1.365 4.013 2.46 1.075.91 2.462 1.776 3.053 3.075a26.505 26.505 0 0 1 4.454 9.591c.653 2.588.293 5.299-.667 7.725Zm16.655-.09c-.322 0-.606-.223-.625-.56-.019-.307.237-.625.559-.625.322 0 .606.223.625.56.018.307-.237.625-.559.625Zm3.138-11.52a25.637 25.637 0 0 1-1.283 7.435c-.146.521-.213 1.455-.979 1.232-.341-.114-.464-.483-.355-.806.203-.81.473-1.7.7-2.478.492-1.872.677-3.744.743-5.658-.26-.522.421-1.095.9-.754.345.223.293.678.274 1.033v-.005Z"/><path fill="#A4D357" d="M71.861 142.025c-.246-.057-.549 0-.824 0a88.824 88.824 0 0 0-16.3 9.762c-.928.976-1.481 2.677-.402 3.71a.642.642 0 0 1 .137.218c1.122.583 2.224 1.308 3.37 1.853 3.815 1.398 7.26-3.44 9.239-6.08 1.84-2.27 3.365-4.796 5.107-7.137-.043-.256.132-.469.284-.668.25-.569.028-1.455-.606-1.668l-.005.01Zm-12.812 13.61c-.322 0-.573-.313-.559-.626.02-.336.298-.559.625-.559s.573.313.558.625c-.018.337-.298.56-.624.56Zm8.628-6.986c-1.254 1.82-2.371 3.811-3.976 5.346-.568.445-1.87 2.005-2.508 1.033-.18-.36.057-.749.416-.872 1.756-1.085 2.878-2.9 4.01-4.563.307-.498.7-.934.988-1.446a.598.598 0 0 1 .786-.284.595.595 0 0 1 .284.786Z"/><path fill="#E2FFB4" d="M51.864 66.112a.524.524 0 0 1 .152-.118 164.053 164.053 0 0 1 8.315-14.577c.048-.204.123-.398.08-.616-.193-.488-.392-.882-.799-1.223-.374-.412-1.003-.469-1.52-.417a1.232 1.232 0 0 1-.492.029c-.265.095-.525.19-.776.284-3.994 1.758-8.202 3.076-12.083 5.038-3.914 1.895-7.535 4.392-10.29 7.795-1.713 1.952-3.426 3.966-4.17 6.497-.865 3.379.701 6.213 4.398 6.09 2.025.123 3.753-.579 5.485-1.508 1.344-.473 2.641-1.222 4.009-1.62.374-.318 1.112-.427 1.467-.668 1.415-.593 2.854-1.356 3.962-2.412.89-.816 1.699-1.536 2.262-2.569v-.005Zm-14.133-3.88a.598.598 0 0 1-.591-.593c0-.323.27-.593.591-.593.322 0 .592.27.592.593 0 .322-.27.592-.592.592Zm10.304-6.92c-.241.427-.8.536-1.169.83-2.21 1.407-4.714 2.345-6.73 4.047-.322.327-.795.796-1.23.355-1.231-1.332 6.095-4.469 7.08-5.246.54-.242 1.117-.929 1.737-.758.298.128.44.479.317.777l-.005-.005ZM23.807 144.617c.014-.029.038-.043.052-.067 1.803-7.492 3.73-14.96 5.982-22.329.45-1.469.904-2.934 1.368-4.398-.061-.194-.033-.426-.004-.635-.166-.426-.635-.649-1.07-.573-.246.113-.52.317-.79.412-6.182 6.919-13.329 13.207-16.793 21.993-.7 1.806-1.363 3.649-1.628 5.578-.237 1.398-.242 2.838.535 4.08 1.268 2.113 3.346 1.682 5.447 1.232.232-.185.625-.232.9-.332 2.631-.682 5.007-2.369 6-4.966v.005Zm-8.382 3.469a.6.6 0 0 1-.592-.593c0-.322.27-.592.592-.592.322 0 .591.27.591.592 0 .322-.27.593-.591.593Zm2.863-1.043a.6.6 0 0 1-.771-.327c-.246-.668.525-.839.98-1.047 1.093-.488 1.765-1.498 2.352-2.498.658-1.104 1.212-2.217 1.481-3.459.01-.772 1.179-.772 1.184 0-.01.63-.29 1.223-.526 1.791-.932 2.251-2.243 4.739-4.704 5.535l.004.005Z"/><path fill="#A4D357" d="M36.255 101.976c.265-.289.411-.858.676-1.204a311.665 311.665 0 0 1 6.684-17.04.595.595 0 0 1-.024-.384c.076-.455-.071-.882-.464-1.138l.01.01c.004 0 .009.01.014.014-.379-.341-.805-.697-1.345-.682a3.225 3.225 0 0 0-1.24.37h-.004c-2.201 1.62-4.558 3.023-6.75 4.667-5.655 3.867-10.668 8.61-14.98 13.923-1.339 1.715-2.664 3.625-2.546 5.905-.104 2.824 2.812 5.155 5.533 4.307 3.323-.644 5.921-2.834 8.974-4.123.104-.042.208-.075.317-.113.019-.01.033-.029.057-.038a19.318 19.318 0 0 0 1.552-.877 13.974 13.974 0 0 0 3.54-3.597h-.004Zm-17.063 3.616a.598.598 0 0 1-.591-.592c0-.323.27-.593.591-.593.322 0 .592.27.592.593 0 .322-.27.592-.592.592Zm7.677-10.004c-.255.687-.994 1.005-1.443 1.536-1.595 1.867-4.004 3.16-4.984 5.487-.076.332-.407.574-.748.474-1.893-.967 3.299-5.165 4.104-5.99a32.776 32.776 0 0 1 1.945-1.876c.26-.683 1.316-.351 1.121.364l.005.005Z"/><path fill="#000" d="M231.349 26.282c-.592-1.299-1.979-2.166-3.053-3.076-1.16-1.094-2.561-1.834-4.014-2.46-1.524-.734-3.237-1.046-4.932-1.032-1.845-.275-3.72-.014-5.518.469-6.56 1.872-13.906 7.378-16.651 13.728-2.584 5.839-1.699 12.772 1.884 17.994 2.442 4.052 6.418 7.691 11.368 7.838 3.233.209 6.404-.687 9.447-1.687 3.607-1.374 6.816-3.564 9.471-6.369 2.4-2.284 4.785-4.857 5.784-8.09.965-2.426 1.32-5.136.667-7.724a26.474 26.474 0 0 0-4.453-9.591Zm3.199 15.306c-.871 3.602-3.091 6.569-5.798 9.038-4.099 4.464-9.693 7.155-15.694 7.88-5.051.626-8.88-1.554-11.857-5.525-3.369-4.426-5.305-10.217-3.881-15.748 1.444-6.245 6.541-10.8 11.913-13.875 3.938-2.332 8.662-3.17 13.125-2.076 3.057.958 5.731 2.92 7.857 5.289 0 .365.336.526.501.83a44.62 44.62 0 0 1 1.894 3.122c1.566 3.398 3.09 7.293 1.94 11.065Z"/><path fill="#000" d="M219.402 27.116c-.894-.35-1.959-.085-2.811.299-2.915 1.047-5.178 3.544-5.94 6.553-.009.043-.014.09-.019.133.048-.014.1-.033.147-.047.052-.029.099-.057.151-.08.256-.12.54-.162.819-.171.27-.01.549 0 .81.075.459.123.847.346 1.211.645.298.237.568.526.781.848.118.18.218.365.289.569.104.308.09.64.033.957a2.939 2.939 0 0 1-.213.654c-.08.185-.166.365-.279.53-.256.385-.644.669-1.051.868-.407.199-.833.284-1.264.284-.213 0-.43-.019-.648-.057h.005c-.019 0-.033-.004-.052-.01a3.237 3.237 0 0 1-.521-.166c.355 1.404.984 2.73 1.903 3.863 1.202 1.45 2.489 3.08 4.463 3.412.468.067.942.1 1.42.1 2.627 0 5.343-1.005 7.208-2.843 1.25-1.128 2.428-2.474 2.726-4.213 1.032-5.232-3.691-12.099-9.177-12.203h.009ZM187.393 86.053c-1.457-.236-2.863-.597-4.236-1.16-3.024-1.086-5.788-2.735-8.046-5.033-1.358-1.114-2.66-2.303-3.682-3.744-1.808-2.8-3.697-5.829-3.943-9.26-.047-.393-.033-.83-.175-1.208-.383-.844-1.656-.157-1.069.597.004.208.028.417.042.62-.189-.013-.383-.018-.568-.051-.795-.133-1.543-.47-2.295-.744-1.335-.593-2.547-1.389-3.82-2.104-1.112-.764-2.399-1.375-3.796-1.398-2.546-.204-4.747 1.615-6.067 3.639-.583 1.095-.762 2.526-.459 3.753-1.633.048-3.243.294-4.743.962-2.419.872-4.506 2.654-5.102 5.241-.644 1.877-.294 3.834.369 5.654.928 2.175 2.073 4.696 4.217 5.876-.165.19-.336.374-.497.573-5.235 6.066-.771 16.103 6.939 17.108 2.579.166 5.036-.986 7.203-2.294.138-.085.27-.18.403-.27.894 2.962 5.651 4.668 8.467 5.128 4.591.616 8.269-2.27 8.534-6.938.113-.905.203-1.83.298-2.758 1.628.682 3.365.943 5.126 1.028 3.185.2 5.868-2.43 5.67-5.634-.265-2.27-1.217-4.502-.852-6.82.601.152 1.207.29 1.822.384.757.176 1.003-.98.265-1.151l-.005.004Zm-20.56-16.32a.577.577 0 0 0-.08.033v-.005c.028-.005.052-.019.08-.023v-.005Zm-14.729-4.095c.028-.218.17-.398.213-.606 1.065-.9 2.367-1.488 3.81-1.251 1.108.075 2.05.682 2.968 1.256 1.263.696 2.475 1.516 3.843 2.108.53.185 1.671.687 2.617.858-.317.35-.672.673-.998 1.014-1.16 1.29-2.859 1.953-4.582 1.905-2.466-.076-5.542-.521-7.062-2.73-.53-.71-.932-1.658-.809-2.558v.004ZM140.702 80.14a1.058 1.058 0 0 0-.269-.44 14.025 14.025 0 0 1-.199-1.17c.142-3.536 1.912-5.555 5.178-6.697 4.548-1.578 9.409-.147 13.995.526 2.13.156 4.293.052 6.262-.858.279-.113.563-.232.847-.35-.516 1.748-.965 3.563-2.333 4.876-1.449 1.526-3.441 2.393-5.372 3.213-2.319 1.005-4.729 1.914-7.052 2.947-1.813.517-3.668.9-5.566.588-2.017-.218-4.156-1.019-5.491-2.63v-.005Zm17.711 20.998c-2.153 1.564-4.671 2.953-7.397 3.095-1.662-.085-3.314-.858-4.681-1.82-2.395-1.862-3.777-4.796-3.971-7.81.033-3.198 1.945-5.933 4.335-7.913 3.46-2.844 7.772-4.251 11.889-5.915 1.524-.602 2.996-1.047 4.449-1.9 2.225-1.052 4.411-2.166 6.442-3.568 1.207 1.995 2.726 3.781 4.577 5.212.165.143.326.29.487.436-.189.114-.369.275-.525.403-1.155 1.047-2.154 2.275-3.124 3.483-4.151 5.44-6.901 12.066-12.486 16.297h.005Zm16.613-9.648c-.473 2.625-.701 5.289-.97 7.938-.218 4.459-1.988 7.468-6.655 7.392-.024-.009-.047-.023-.071-.028-.246-.024-.431-.237-.62-.384-1.912-1.9-2.949-4.545-2.693-7.16.317-.797.682-1.579.984-2.38a36.814 36.814 0 0 1 2.04-4.06c.355-.555.706-1.11 1.056-1.664 1.055-1.56 2.248-3.023 3.625-4.331 1.387-1.133 3.072-1.758 4.875-1.938.592 0 1.184 0 1.78-.01-1.642 1.9-2.982 4.085-3.346 6.615l-.005.01Zm9.887 3.151c-.293 1.744-1.699 3.237-3.497 3.398a12.55 12.55 0 0 1-.597.029c-.166-.114-.388-.171-.544-.318-1.997-1.535-3.285-4.123-3.152-6.668.217-1.928 1.997-3.393 3.824-3.772 1.013-.18 2.106-.327 3.114-.222-.061.677.019 1.407.038 2.047.109 1.862 1.065 3.635.819 5.511l-.005-.005Z"/><path fill="#000" d="M145.355 89.75c-1.311 1.829-1.813 4.156-1.482 6.374.161.966.284 2.08 1.037 2.781.54.56 1.387-.246.861-.81-1.102-1.54-.885-3.763-.52-5.55a9.167 9.167 0 0 1 1.216-2.317c.27-.388.819-.762.383-1.265-.615-.583-1.183.322-1.495.791v-.004ZM148.299 87.404a.598.598 0 0 0-.606.578.595.595 0 0 0 .577.607.598.598 0 0 0 .606-.578.598.598 0 0 0-.577-.607ZM146.543 74.571a7.89 7.89 0 0 1 1.178-.28c.89-.056 1.789-.194 2.679-.118.852.152 1.699.346 2.566.398.771.043.837-1.128.066-1.18-1.084-.052-2.121-.44-3.204-.426-.819.066-5.349.047-3.99 1.635a.603.603 0 0 0 .695-.02l.01-.009ZM154.944 74.903c.322 0 .606-.218.625-.56.019-.307-.232-.625-.559-.625-.326 0-.606.218-.625.56-.019.307.232.625.559.625ZM155.592 66.814c.322 0 .606-.218.625-.56.019-.308-.232-.625-.558-.625-.327 0-.606.218-.625.56-.019.307.232.625.558.625ZM171.188 98.299c-.095 1.222-.152 2.478-.464 3.668-.19.658-1.259 1.611-.422 2.165.772.332.938-.706 1.259-1.175.725-1.403.649-3.037.81-4.592.033-.772-1.131-.839-1.183-.071v.005ZM171.571 95.038c-.502.171-.431.73-.251 1.119.104.303.45.474.753.37.506-.171.43-.726.25-1.114-.085-.313-.454-.47-.747-.374h-.005ZM181.709 93.247c.502.81 1.524-.01.956-.74-.502-.81-1.519.006-.956.74ZM178.964 80.362c1.647 1.066 3.427 1.967 5.324 2.479.606.274 1.435-.204 1.027-.891a.584.584 0 0 0-.634-.233c-2.021-.535-3.914-1.535-5.618-2.734-.26-.237-.662-.26-.899.024-.483.635.364 1.047.805 1.355h-.005ZM176.64 77.888a.601.601 0 0 0 .615-.568c.01-.313-.246-.616-.568-.616a.602.602 0 0 0-.615.568c-.009.313.246.616.568.616ZM254.654 30.954c-.474-.34-1.16.233-.899.754-.067 1.915-.251 3.786-.744 5.658-.227.777-.497 1.668-.7 2.479-.109.322.014.691.355.805.767.223.833-.71.98-1.232a25.975 25.975 0 0 0 1.282-7.435c.019-.356.071-.806-.274-1.033v.005ZM251.719 42.318c-.321 0-.572.318-.558.626.019.336.303.559.625.559.321 0 .572-.318.558-.626-.019-.336-.303-.559-.625-.559ZM199.23 26.4c.639-.635 1.354-1.1 2.116-1.663.876-.692 1.77-1.374 2.546-2.175a.59.59 0 0 0 .019-.787c-.383-.44-.899-.1-1.169.28-.747.938-6.541 4.412-5.31 5.435.781.56 1.268-.696 1.798-1.09ZM196.438 29.215c-.085-.843-1.311-.659-1.174.176.085.843 1.311.658 1.174-.176ZM229.612 54.46c-.469.459-.985.91-1.477 1.378-.743.673-1.401 1.436-2.196 2.047-.44.394-1.534.673-1.117 1.441.752 1.332 4.657-3.355 5.561-3.966.331-.237.483-.725.142-1.024-.279-.251-.7-.166-.913.128v-.005ZM222.256 60.141c-.321 0-.572.318-.558.626.019.336.303.559.625.559s.572-.318.558-.626c-.019-.336-.303-.559-.625-.559ZM145.431 14.236c2.129 1.023 3.876 2.573 5.66 4.175.54.559 1.392-.242.866-.806-.871-.8-6.465-5.862-7.274-4.331-.242.535.298.857.743.962h.005ZM153.917 21.77c.909.095.918-1.184.019-1.203-.909-.09-.918 1.19-.019 1.203ZM98.058 37.342c.043-.592.024-1.464-.819-1.246-1.301.54 1.037 8.544 1.515 9.833a.601.601 0 0 0 .757.356c.852-.417 0-1.431-.08-2.085-.63-2.266-1.245-4.479-1.373-6.853v-.005ZM100.879 48.863c-.322 0-.601.227-.62.564-.014.308.237.62.563.62.327 0 .601-.227.62-.563.014-.309-.236-.621-.563-.621ZM178.85 126.661c-1.24.924-2.319 2.085-3.483 3.128-.246.213-.237.611-.019.838.752.659 1.576-.819 2.153-1.217.753-.759 1.586-1.417 2.409-2.095.677-.588 1.274-1.208 2.107-1.616a.596.596 0 0 0 .246-.801c-.696-1.099-2.731 1.303-3.408 1.763h-.005ZM173.227 131.992a.602.602 0 0 0-.615.569c-.009.313.246.616.568.616a.602.602 0 0 0 .615-.569c.01-.312-.246-.616-.568-.616Z"/><path fill="#000" d="M254.966 17.311c-2.366-5.16-6.451-9.482-11.387-12.255-6.584-2.82-13.754-5.264-20.996-5.042-11.369.744-21.677 6.55-30.362 13.606-3.124 2.815-6.02 5.871-8.927 8.909-.222.246-.44.497-.653.744a.554.554 0 0 0-.17.19 1.03 1.03 0 0 0-.066.09c-1.808 2.136-3.38 4.406-4.97 6.738-1.836 2.488-3.583 5.09-4.908 7.895-2.594-4.284-5.779-8.15-8.732-12.188-5.164-7.275-11.89-13.54-19.737-17.81-4.832-2.53-9.958-4.667-15.448-5.112-6.963-.593-13.996 1.142-20.385 3.838a56 56 0 0 0-.796.393c-2.054.72-3.947 1.82-5.812 2.934-4.165 2.44-8.079 5.279-11.809 8.345-.833.47-1.68.915-2.55 1.303-2.75 1.128-5.765 1.53-8.657 2.18-4 .82-8.037 1.355-12.098 1.758-5.39.81-11 1.716-15.619 4.805-2.134 1.446-4.32 3.2-5.192 5.715-1.486 4.322 2.49 7.166 6.49 6.858 1.206-.057 2.408-.233 3.61-.356 1.785-.28 3.56-.872 5.387-.597 1.154.242 2.792.384 3.412 1.54 1.278 3.848-4.832 5.365-7.516 6.322-3.73 1.53-7.393 2.952-11.141 4.488-4.766 2.199-9.324 5.023-12.604 9.207-1.96 2.232-3.957 4.725-4.388 7.753-.535 3.573 1.737 6.578 5.434 6.511 1.273.02 2.58-.033 3.79-.46 1.53-.601 2.95-1.445 4.516-1.961 3.446-1.848 7.28-1.052 3.29 2.867-1.35 1.431-3.176 2.175-4.705 3.355-.223.185-.454.36-.682.54a.549.549 0 0 0-.326.26c-2.56 1.958-5.367 3.593-7.942 5.54C26.77 90.11 21.81 94.888 17.602 100.2c-1.628 2.005-2.83 4.474-2.423 7.118.369 2.9 3.251 5.118 6.148 4.725 3.625-.522 6.508-2.768 9.76-4.28.837-.312 2.337-.677 2.81.351-.378 1.772-1.504 3.322-2.546 4.772-5.74 7.099-12.93 13.018-17.587 20.974-2.055 3.815-5.746 11.27-3.351 15.35.833 1.573 2.584 2.478 4.345 2.227 1.921.028 3.739-1.062 5.655-.626.734.218 1.68.593 1.496 1.55a.642.642 0 0 0 .028.365c-1.798 7.293-3.033 14.709-3.928 22.164-.142-.014-.293 0-.435.014a31.4 31.4 0 0 0-4.307.602c-2.466.497-4.667 1.786-6.811 3.047-2.23 1.459-4.634 3.113-5.737 5.639-1.117 2.753-.908 6.161.696 8.682 4.572 5.777 12.244 7.824 19.325 8.113 3.171.042 6.361-.038 9.475-.678 2.826-.265 5.614-1.066 8.274-2.047 3.46-1.265 7.412-2.9 9.068-6.435.435-1.218.819-2.503.79-3.811-.042-.966-.142-1.876-.113-2.857.028-1.616-.52-3.142-1.732-4.241-1.165-1.413-2.722-2.379-4.369-3.138-2.078-1.118-4.373-1.767-6.626-2.435-.511-.142-1.037-.228-1.552-.346 4.004-6.905 9.134-13.103 15.055-18.463a.878.878 0 0 0 .17-.081c1.155-.587 2.495-.72 3.72-.194 2.135.839 3.929 2.739 6.338 2.791 6.868-.417 11.657-12.667 16.542-16.965 1.164-1.085 2.253-2.568 3.857-3.028.483-.232.824.246 1.14.54.659.773.025 1.976-.222 2.82-.435 1.535-.993 3.094-1.098 4.691.294 2.294 2.528 3.981 4.743 4.251 5.111.967 12.51-6.829 16.584-9.752 2.225-1.882 4.615-3.593 7.076-5.171 2.177-1.478 4.473-2.743 7-3.506 1.529-.583 5.088-2.133 4.26 1.014-1.321 2.009-3.266 3.573-4.544 5.639-2.092 3.374-2.272 5.895 1.112 8.473 1.861 1.455 4.312 1.005 6.328.147 1.6-.607 3.181-1.279 4.686-2.09 1.903-1.104 3.63-2.464 5.566-3.526 6.783-3.757 14.152-6.781 21.833-8.051a31.025 31.025 0 0 1 4.232-.289c1.368.355 2.731.735 4.084 1.166 2.939.938 5.741 2.393 8.671 3.402.104.024.208.01.303-.023a.538.538 0 0 0 .199.085c.554.464 1.136-.138 1.59-.493.398-.36.772-.739 1.131-1.133 1.278-1.108 2.518-2.35 3.772-3.506 4.506-3.649 8.638-7.767 12.969-11.63 4.174-3.81 8.287-7.686 12.377-11.581 3.038-3.005 6.29-5.772 9.414-8.677 3.625-3.422 7.056-7.042 10.583-10.568 3.464-3.81 6.735-7.672 10.194-11.54 3.697-4.283 6.958-8.927 10.134-13.6 4.108-6.032 8.117-12.283 10.701-19.16 2.849-6.714 4.033-14.164 3.389-21.428-.374-2.91-1.661-5.602-2.864-8.241l-.014-.01ZM60.185 38.991h-.02c-.028 0-.056 0-.08-.004-3.961.175-11.95 3.298-13.46-2.213-.398-2.763 1.87-4.914 3.876-6.44 3.37-2.55 7.478-3.844 11.615-4.554 3.072-.678 6.2-1.01 9.329-1.28 2.83-.445 5.665-.915 8.476-1.488a.4.4 0 0 0 .104.019c.128.01.256.024.37.09.274.085.36.374.53.574.241.587.482 1.274.232 1.904-.114.218-.294.399-.317.65-2.869 2.687-5.58 5.559-8.15 8.534-.389.285-.72.877-1.08 1.1-1.25 1.095-2.84 1.848-4.416 2.398-2.224.834-4.643.72-7.01.71Zm3.303 7.697-.014.018-.005-.004c.005 0 .015-.01.02-.014ZM45.64 71.098c-.355.241-1.093.35-1.467.668-1.368.403-2.665 1.151-4.009 1.62-1.732.93-3.464 1.63-5.485 1.507-3.697.119-5.264-2.71-4.397-6.089.743-2.53 2.456-4.55 4.17-6.497 2.75-3.403 6.37-5.9 10.289-7.796 3.881-1.957 8.089-3.274 12.083-5.037.251-.1.511-.194.776-.284.157.023.332.01.493-.029.516-.052 1.15 0 1.519.417.407.341.606.735.8 1.223.043.218-.033.412-.08.616a162.215 162.215 0 0 0-8.316 14.577.524.524 0 0 0-.152.118c-.563 1.033-1.372 1.754-2.262 2.569-1.108 1.056-2.542 1.82-3.962 2.412v.005Zm-12.926 34.48c-.496.322-1.022.606-1.552.876-.024.01-.038.029-.057.038a3.25 3.25 0 0 0-.317.114c-3.053 1.289-5.651 3.478-8.974 4.123-2.716.848-5.637-1.488-5.532-4.308-.119-2.279 1.206-4.189 2.546-5.904 4.312-5.313 9.324-10.052 14.98-13.923 2.191-1.64 4.548-3.043 6.749-4.668h.005a3.252 3.252 0 0 1 1.24-.37c.54-.014.965.341 1.344.683-.005 0-.01-.01-.014-.014l-.01-.01c.398.256.54.682.464 1.137a.593.593 0 0 0 .024.384 311.58 311.58 0 0 0-6.683 17.041c-.265.346-.412.915-.677 1.204a14.131 14.131 0 0 1-3.54 3.597h.004Zm-14.909 44.01c-.274.099-.667.147-.899.332-2.096.45-4.179.886-5.447-1.233-.781-1.241-.772-2.682-.535-4.08.265-1.928.927-3.772 1.628-5.577 3.47-8.791 10.611-15.075 16.793-21.994.265-.094.544-.298.79-.412.44-.076.909.147 1.07.574-.029.208-.052.44.004.635-.459 1.464-.918 2.933-1.367 4.397-2.253 7.369-4.18 14.838-5.983 22.33-.019.024-.043.038-.052.066-.994 2.597-3.37 4.284-6.002 4.967v-.005Zm54.667-5.891c-.152.199-.327.413-.284.669-1.742 2.341-3.266 4.866-5.107 7.136-1.979 2.64-5.424 7.474-9.24 6.08-1.14-.545-2.243-1.27-3.369-1.853a.662.662 0 0 0-.137-.218c-1.08-1.033-.52-2.739.402-3.71a88.38 88.38 0 0 1 16.3-9.762c.275 0 .578-.062.824 0 .634.213.857 1.099.606 1.668l.005-.01Zm35.672-8.994c-.142.19-.388.317-.549.493-.033.019-.066.042-.095.061-3.923 2.446-7.464 5.384-11.032 8.317-2.755 2.242-5.519 4.55-8.742 6.094-2.466 1.275-5.95.503-7.038-2.217-.156-1.242.416-2.493.691-3.697.213-.848.658-1.848.805-2.796a1.02 1.02 0 0 0 .151-.436c.095-.312.317-.654.478-.962.606-1.023 1.642-1.729 2.608-2.388.45-.27.97-.517 1.5-.716 4.908-1.251 9.854-2.369 14.843-3.227 1.775-.265 3.569-.478 5.367-.663.166.009.284.071.455.123.227.128.544.204.686.426.194.522.289 1.147-.137 1.583l.009.005Zm40.656-.37c-.113.071-.208.086-.336.142-.037.019-.066.053-.099.076-5.623 1.555-11.193 4.09-15.633 6.412-3.19 1.659-5.94 4.094-9.315 5.402-2.03.754-4.567 2.266-6.711.948-1.231-.739-2.376-2.023-2.508-3.497.104-1.663 1.074-3.189 2.016-4.521.927-1.28 2.13-2.365 3.105-3.611a.899.899 0 0 0 .26-.275c.686-.578 1.32-1.232 2.111-1.682h-.005c-.009.004-.019.014-.028.019 1.661-1.1 3.512-2 5.476-2.408 7.203-.218 14.459 0 21.587 1.014a.879.879 0 0 1 .331.228c.606.488.284 1.341-.246 1.753h-.005Zm-25.638-2.829h.042c-.014.005-.028.014-.037.019 0-.005 0-.009-.005-.019Zm33.926-.232c-.322.441-.861.716-1.368.929a1.988 1.988 0 0 0-.521.095c-10.488-2.261-21.402-2.517-32.089-1.967-10.138.483-20.333 1-30.216 3.502-1.898.374-3.781.806-5.656 1.284-.07.014-.137.033-.208.052-10.9 2.811-21.322 7.379-30.565 13.866-5.926 4.062-11.1 9.18-15.89 14.511-6.275 7.558-11.619 16.216-13.649 25.941-.634 2.383-1.136 4.833-1.349 7.293-.17.18-.355.355-.554.511-.965.626-2.2 1.19-3.37.948-1.448-.53-2.617-1.606-3.388-2.928l.028-.953c-.137-3.455-.095-6.819.085-10.283.388-5.801 1.075-11.587 1.903-17.345 1.43-8.032 3.242-15.993 5.23-23.903 2.508-9.98 5.088-19.922 8.453-29.656 3.086-9.169 6.22-18.32 10.015-27.224 6.2-14.535 13.285-28.889 22.695-41.646a151.29 151.29 0 0 1 6.782-8.591c.038-.043.076-.081.109-.119 0-.005.005-.014.01-.019 3.729-4.355 7.761-8.45 12.22-12.06 1.245-1.033 2.49-2.076 3.739-3.114.033-.024.066-.047.095-.076.014-.014.033-.028.047-.042.847-.427 1.964-.754 2.882-.256.857.497 1.595 1.497 1.624 2.52-.057.409.019.825-.104 1.224-.024.208-.052.464-.024.696a30.781 30.781 0 0 0-.554 4.71c-.43 3.2-.326 6.46.1 9.663.17 2.716.965 5.313 1.898 7.853 2.054 6.61 4.912 12.932 8.022 19.111 6.759 13.563 16.93 24.936 27.342 35.793 4.847 4.825 9.514 9.848 14.578 14.449 3.015 2.967 6.319 5.621 9.414 8.54.648.578 1.302 1.147 1.955 1.72.127.204.303.403.402.597.852 1.317.748 3.085-.118 4.379l-.005-.005Zm16.636 4.905c.01-.014.019-.024.024-.038a.112.112 0 0 0-.024.038Zm83.107-107.066c.142 12.653-5.85 24.339-12.836 34.542-2.982 4.483-6.077 8.918-9.442 13.131-3.399 4.109-7.038 8.018-10.541 12.099-3.142 3.464-6.588 6.696-9.839 10.065-2.987 2.981-6.267 5.639-9.296 8.577a1056.703 1056.703 0 0 1-18.459 17.212c-3.886 3.782-8.136 7.137-12.059 10.885-.123.109-.247.214-.37.323a.493.493 0 0 0-.208.151c-.099.09-.194.185-.289.28-.373.322-.738.654-1.088.995-.123.128-.27.261-.398.408-2.357-2.446-5.187-4.389-7.738-6.644-7.526-6.36-14.89-12.885-22.023-19.705-9.854-9.932-19.831-19.837-28.312-31.002-5.169-6.932-9.272-14.567-12.865-22.42-2.158-4.752-3.848-9.69-5.457-14.652-.573-1.786-.748-3.654-.942-5.511-.303-2.479-.402-4.98-.113-7.469.293-3.682.639-7.516 2.319-10.89.033-.061.066-.128.104-.19 1.084-1.772 2.11-3.605 3.479-5.174 1.751-1.701 3.512-3.256 5.575-4.63 5.973-3.64 15.008-5.73 21.99-5.28 5.381.38 10.412 2.399 15.155 4.863 8.287 4.402 15.183 11.113 20.522 18.794 3.346 4.578 7.109 8.962 9.537 14.127.057.365.454.611.804.474a.56.56 0 0 0 .346-.517c.076-.137.128-.284.151-.426.266-.815.573-1.716.914-2.545 2.021-5.104 4.605-10.023 7.748-14.51.36-.432.729-.858 1.098-1.28 2.797-2.895 5.637-5.886 8.628-8.606 8.349-6.79 18.175-12.397 29.084-13.335 4.946-.412 9.906.953 14.616 2.388 2.726 1 5.585 1.81 8.018 3.436 2.475 1.725 4.732 3.8 6.55 6.203a.551.551 0 0 0-.085.185c-.421 1.735-1.486 3.265-2.788 4.46-1.396 1.554-3.218 2.573-5.164 3.293-.747.218-1.486.488-2.257.62a.709.709 0 0 0-.227.034.594.594 0 0 0-.568.592c.056.45.355.598.752.593 1.164.08 3.588-1.1 4.25-1.237 1.813-.749 3.583-1.592 5.576-1.763 1.226-.147 2.414.161 3.545.682.502.27.875.773 1.282 1.18.09.119.18.237.265.365.744 2.194 1.198 4.47 1.061 6.838l-.005-.009Z"/><path fill="#000" d="M61.95 27.116c-.928.104-1.936.554-2.897.62-.672.176-2.584.223-2.267 1.266.384.772 1.226.057 1.832.005 1.302-.133 2.556-.574 3.848-.792.577-.033 1.17-.568.696-1.113-.355-.375-.8-.02-1.212.01v.004ZM55.56 30.149a.592.592 0 1 0 0-1.184.592.592 0 0 0 0 1.184ZM47.713 54.535c-.615-.17-1.197.517-1.737.758-.984.778-8.31 3.915-7.08 5.246.435.441.908-.028 1.23-.355 2.017-1.701 4.525-2.64 6.73-4.047.37-.294.928-.403 1.17-.83a.602.602 0 0 0-.318-.776l.005.004ZM37.727 62.231a.592.592 0 1 0-.001-1.184.592.592 0 0 0 0 1.184ZM25.747 95.228a32.715 32.715 0 0 0-1.945 1.877c-.804.829-5.997 5.023-4.103 5.99.34.094.672-.143.747-.474.98-2.327 3.39-3.62 4.984-5.488.45-.535 1.188-.853 1.444-1.535.194-.716-.861-1.048-1.122-.365l-.005-.005ZM19.197 105.597a.592.592 0 1 0 0-1.184.592.592 0 0 0 0 1.184ZM23.514 139.717c-.005-.773-1.174-.773-1.184 0-.27 1.241-.823 2.355-1.481 3.459-.587 1-1.26 2.009-2.352 2.497-.455.204-1.226.38-.98 1.048.123.308.473.44.771.327 2.461-.801 3.773-3.289 4.705-5.535.237-.569.511-1.161.525-1.792l-.005-.004ZM15.425 148.086a.593.593 0 1 0-.002-1.185.593.593 0 0 0 .002 1.185ZM77.157 36.816c.7-.763 1.486-1.492 2.225-2.236a20.456 20.456 0 0 1 1.935-1.616c.578-.398 1.979-1.332.957-1.986a.599.599 0 0 0-.777.313c-.501.545-1.202.9-1.756 1.398-.932.749-1.765 1.611-2.612 2.45-.407.564-1.94 1.502-1.179 2.227.511.393.918-.175 1.207-.55ZM74.398 40.034a.592.592 0 1 0 0-1.184.592.592 0 0 0 0 1.184ZM49.853 79.755a.597.597 0 0 0-.777.313c-.241.602-.653 1.119-.998 1.668-.947 1.47-1.486 3.147-2.215 4.725a.6.6 0 0 0 .312.777.602.602 0 0 0 .776-.313c.545-1.203 1.004-2.45 1.59-3.634.436-.896 1.222-1.801 1.62-2.758a.598.598 0 0 0-.313-.778h.005ZM45.044 89.257a.598.598 0 0 0-.592.592c0 .323.27.593.592.593.322 0 .592-.27.592-.593a.598.598 0 0 0-.592-.592ZM22.823 168.918a.595.595 0 0 0-.592.592c-.161 1.204-.55 2.37-.592 3.597-.222 1.483-.54 3.004-.615 4.54a.598.598 0 0 0 .506.663c1.004.014.63-1.35.8-2.004.095-1.081.388-2.114.497-3.199.076-.9.227-1.787.45-2.659.132-.53.345-1.488-.46-1.53h.006ZM21.256 182.267a.592.592 0 1 0 0-1.184.592.592 0 0 0 0 1.184ZM84.337 132.788c-1.235.062-2.433.332-3.611.707-1.534.322-3.062.9-4.501 1.559-.294.132-.412.507-.275.791a.594.594 0 0 0 .79.27c.569-.27 1.132-.478 1.719-.725 1.855-.611 3.753-1.227 5.727-1.403.293-.028.615-.038.837-.246.526-.474-.085-1.308-.69-.957l.004.004ZM72.978 136.205a.628.628 0 0 0-.43.147.59.59 0 0 0-.2.408c-.019.308.228.625.554.625a.627.627 0 0 0 .43-.147.589.589 0 0 0 .2-.407c.019-.308-.227-.626-.554-.626ZM124.08 97.233c-.284-.304-.563-.621-.857-.93-1.888-1.914-3.677-3.9-5.296-6.08-.345-.487-1.065-1.795-1.765-1-.332.475.142.787.407 1.124 2.054 2.976 4.6 5.526 7.09 8.15.227.228.625.195.838-.032.416-.465-.09-.915-.422-1.233h.005ZM126.712 100.1c-.322 0-.583.293-.573.611a.598.598 0 0 0 .61.573c.322 0 .583-.293.573-.611a.598.598 0 0 0-.61-.573ZM133.972 137.3c-1.827.611-3.46 1.682-4.989 2.848-.407.403-1.429.597-1.102 1.346.52.815 1.405-.157 1.935-.498 1.217-.914 2.499-1.744 3.9-2.35.355-.157.753-.199 1.046-.465.573-.516-.208-1.383-.79-.881ZM126.66 141.612c-.322 0-.606.228-.625.559-.014.313.236.626.558.626.322 0 .606-.228.625-.559.014-.313-.237-.626-.558-.626ZM93.585 142.811a.575.575 0 0 0-.473.199c-.525.446-1.05.896-1.576 1.341-1.202.958-2.296 2.104-3.8 2.578-.45.062-1.066.213-.947.801.833 2.019 6.186-3.109 7.147-3.872.402-.336.18-1.033-.35-1.052v.005ZM85.473 146.996c-.322 0-.606.227-.625.559-.014.313.237.625.559.625.322 0 .606-.227.625-.559.014-.313-.237-.625-.559-.625ZM67.388 147.853a.603.603 0 0 0-.785.285c-.284.512-.682.948-.99 1.445-1.13 1.663-2.252 3.478-4.008 4.564-.36.123-.597.507-.417.872.639.971 1.94-.588 2.509-1.033 1.604-1.536 2.721-3.526 3.975-5.346a.6.6 0 0 0-.284-.787ZM59.11 154.445c-.322 0-.605.228-.624.559-.015.313.236.626.558.626.322 0 .606-.228.625-.559.014-.313-.237-.626-.559-.626Z"/></g><defs><clipPath id="a"><path fill="#fff" d="M0 0h258v201H0z"/></clipPath></defs></svg>