<svg xmlns="http://www.w3.org/2000/svg" width="303" height="302" fill="none"><g clip-path="url(#a)"><path fill="#E2FFB4" d="M146.224 98.535c-1.188-.856-1.978-2.052-1.978-3.574 0-.576.113-1.205.364-1.876 1.567-3.168 5.352-4.52 8.811-4.24a2.101 2.101 0 0 0-.374.803l-.028.137c-.009.052-.019.104-.024.16a2 2 0 0 0-.014.232v.062c.01.255.038.515.128.751.099.27.251.506.435.719.194.227.421.406.686.544.256.137.549.189.833.217.507.047.994-.109 1.453-.312.45-.198.819-.492 1.088-.898.038-.057.071-.114.1-.17a1.59 1.59 0 0 0 .184-.676c3.634 2.737 1.86 7.69-3.061 9.18a7.633 7.633 0 0 1-.98.297c1.935-.25 3.809-.921 5.414-2 3.449-2.192 5.049-6.75 2.096-10.025-5.139-5.88-18.777-3.366-18.857 5.308.151 2.387 1.722 4.212 3.714 5.356l.01.005ZM209.727 142.052c-2.389.151-4.216 1.72-5.361 3.71.857-1.186 2.054-1.975 3.577-1.975a5.37 5.37 0 0 1 1.879.364c3.17 1.564 4.524 5.346 4.245 8.801a2.093 2.093 0 0 0-.805-.373l-.137-.029a1.89 1.89 0 0 0-.161-.023 1.806 1.806 0 0 0-.232-.014h-.061a2.357 2.357 0 0 0-.753.127c-.269.1-.506.251-.719.435a2.25 2.25 0 0 0-.544.686c-.137.255-.189.548-.218.832-.047.505.109.992.312 1.451.199.449.493.818.9 1.087.052.038.108.066.165.099.218.114.445.18.682.185-2.74 3.63-7.699 1.857-9.19-3.059a7.587 7.587 0 0 1-.298-.978c.251 1.933.923 3.805 2.002 5.407 2.195 3.446 6.757 5.044 10.036 2.094 5.887-5.133 3.369-18.756-5.314-18.837l-.005.01ZM87.959 141.116c-5.887 5.133-3.37 18.757 5.314 18.837 2.39-.151 4.216-1.721 5.361-3.711-.856 1.187-2.054 1.976-3.577 1.976a5.37 5.37 0 0 1-1.879-.364c-3.17-1.564-4.524-5.346-4.245-8.802.242.185.516.308.805.374l.137.028a2.003 2.003 0 0 0 .393.038h.061c.256-.009.516-.038.753-.128.27-.099.506-.25.719-.434.227-.194.407-.421.544-.686.137-.255.19-.548.218-.832.047-.506-.109-.993-.313-1.451a2.462 2.462 0 0 0-.898-1.087c-.053-.038-.11-.066-.166-.1a1.54 1.54 0 0 0-.682-.184c2.74-3.63 7.7-1.858 9.19 3.059.118.307.218.638.298.978-.25-1.933-.923-3.805-2.002-5.408-2.195-3.446-6.757-5.043-10.036-2.094l.005-.009Z"/><path fill="#fff" d="M158.683 101.848c10.922-5.535 10.879-21.229-.047-26.707-10.24-5.205-22.482 2.93-21.649 14.356.629 10.621 12.27 17.197 21.696 12.351Zm-16.505-12.46c3.189-5.739 11.352-7.365 17.035-4.6 3.876 1.759 6.19 6.33 4.117 10.3-1.741 3.447-5.47 5.418-9.161 5.943-6.847 1.243-15.677-3.962-11.986-11.648l-.005.005ZM144.312 200.147c-10.921 5.535-10.879 21.229.047 26.708 10.24 5.204 22.482-2.931 21.649-14.356-.629-10.622-12.27-17.197-21.696-12.352Zm16.505 12.46c-3.189 5.739-11.352 7.365-17.035 4.6-3.875-1.759-6.189-6.33-4.117-10.3 1.742-3.446 5.47-5.418 9.161-5.942 6.848-1.244 15.678 3.961 11.987 11.647l.004-.005Z"/><path fill="#E2FFB4" d="M187.236 189.676c-.27-.17-.681-.321-.956-.538-1.192-.676-2.389-1.348-3.582-2.028-4.112-2.321-8.229-4.652-12.336-6.973-4.25-2.401-8.504-4.802-12.753-7.208-.861-.487-1.732-.974-2.593-1.466-.057-.028-.095-.075-.137-.118-1.387-.813-2.679-1.867-4.297-2.018-1.67.071-3.147.841-4.581 1.555-.473.255-.922.539-1.386.803-.005 0-.009.01-.014.015-9.474 5.559-18.947 11.113-28.416 16.667a.568.568 0 0 1-.322.08c-1.003.568-1.907 1.286-2.853 1.943.014-.014.024-.019.038-.033-1.103.738-1.283 1.612-1.278 2.647a.59.59 0 0 1 .081.303v41.635a.93.93 0 0 1 0 .298v.383c0 .057-.01.109-.024.161-.005.794.142 1.621.714 2.179 1.098 1.205 2.471 2.094 3.852 2.921.303.27.914.449 1.25.752 3.478 1.966 6.96 3.928 10.438 5.899 4.212 2.383 8.423 4.76 12.635 7.143.156.061.303.17.402.298.298.222.62.468.866.699.781.719 1.85 1.144 2.394 2.094.275.643.606 1.499.067 2.094-1.084 1.078-2.802.823-4.188.969h.076c-3.36.076-6.677.227-10.028.397-2.787.09-5.602.067-8.262 1.007-4.58 1.598-8.588 6.292-9.733 10.962-.422 1.763-.445 3.579-.474 5.38 0 .019.01.033.01.047v16.214c.005.028.019.047.019.075-.01.104-.014.208-.019.317v.232s-.01.037-.014.061c-.01.482.033.969.099 1.451.033.591.019 1.045.147 1.579.416.69 1.32 1.049 2.115 1.03 2.617.317 5.229.275 7.846.213 3.378-.047 6.743-.104 10.112-.373 2.134-.156 4.353-.411 6.331-1.225 2.603-1.039 4.704-2.996 6.422-5.124 1.519-1.82 2.631-3.942 4.49-5.388 1.188-.728 2.466-.648 3.237.614 2.872 3.654 5.953 7.322 9.904 9.842 3.033 1.716 6.568 2.264 9.98 2.571 2.735.161 5.489.128 8.219-.075.483-.128 1.018-.043 1.515-.109 1.358-.151 2.692-.274 4.012-.515 1.174-.275 2.442-.275 3.545-.785.284-.227.407-.558.577-.87.114-.444.09-.77.161-1.172a.571.571 0 0 1-.043-.203v-17.084c0-.057.019-.109.033-.161-.009-.137-.019-.269-.019-.387-.104-7.025-4.575-13.326-10.613-16.653-5.163-2.189-10.898-2.217-16.402-2.312-1.684-.014-3.369-.033-5.044-.208-.729-.014-1.505-.076-2.082-.572-.629-.525-.653-1.536-.27-2.212.639-.851 1.533-1.286 2.371-1.877.246-.127.62-.383.989-.553a.524.524 0 0 1 .085-.061c5.953-3.494 11.906-6.987 17.859-10.475 1.746-1.021 3.487-2.052 5.233-3.068a.601.601 0 0 1 .142-.062c.545-.298 1.084-.609 1.638-.888-.01 0-.015.009-.024.009 1.041-.548 2.021-1.215 2.991-1.881 1.239-.752 2.342-1.693 2.763-3.115.227-.643.293-1.319.355-1.995v-.01c0-.023-.005-.042-.009-.066v-38.535a2.552 2.552 0 0 1 .014-.571v-.052c.255-2.818-1.122-3.305-3.28-4.524l.005.004Zm-66.91 51.709c-.436.657-1.15-.009-1.623-.274-1.231-.666-2.48-1.352-3.469-2.359-.298-.118-.426-.486-.308-.77.374-.728 1.112-.189 1.467.246.909.832 1.992 1.342 3.043 1.952.435.269 1.249.558.89 1.21v-.005Zm1.301 1.433a.598.598 0 0 1-.592-.591c0-.322.27-.591.592-.591.322 0 .591.269.591.591a.597.597 0 0 1-.591.591Zm2.584-55.217c-1.898.889-3.545 2.307-5.395 3.267-.596.189-1.363 1.134-1.912.496-.52-.837.767-1.172 1.297-1.508 1.94-1.007 3.573-2.444 5.546-3.347.71-.293 1.173.771.459 1.088l.005.004Zm1.907-1.215a.597.597 0 0 1-.592-.59c0-.322.27-.591.592-.591.321 0 .591.269.591.591 0 .321-.27.59-.591.59Zm2.498 77.306c-.336-.019-.558-.302-.558-.624 0-.321.317-.572.624-.558.336.019.559.303.559.624 0 .322-.317.572-.625.558Zm2.219-.184c-.331.075-.709 0-.837-.359a.6.6 0 0 1 .359-.757c1.676-.104 3.341-.061 5.026-.236.766-.052.861 1.111.09 1.177-1.529.09-3.109.265-4.638.175Zm8.376 33.169c-1.046.738-2.271 1.173-3.516 1.437-.781.052-4.074.908-3.563-.581a.573.573 0 0 1 .336-.303c.785-.07 1.59-.014 2.375-.17 1.344-.179 2.717-.662 3.819-1.427.682-.35 1.23.676.549 1.044Zm.98-1.229c-.336-.019-.559-.302-.559-.624 0-.321.317-.572.625-.557.336.018.558.302.558.624 0 .321-.317.572-.624.557Zm48.432-2.028c.336.019.558.303.558.624 0 .322-.317.572-.625.558-.336-.019-.558-.302-.558-.624 0-.321.317-.572.625-.558Zm-4.297 4.505c1.046-.123 2.163-.137 3.133-.586.123-.075.175-.227.236-.354.142-.355.171-.648.213-1.007.147-.757 1.297-.539 1.164.217-.123 2.51-1.978 2.643-4.031 2.836-.284.033-.644.081-.9.071-.35.137-.795.1-.941-.307-.223-.676.605-.922 1.126-.879v.009ZM159.459 196.62c.313-.014.615.246.615.568 0 .321-.231.6-.567.614-.313.014-.616-.246-.616-.567a.6.6 0 0 1 .568-.615Zm-9.218-1.834c1.335-.278 2.731-.321 4.07-.066 1.117.194 2.191.511 3.246.931a.595.595 0 0 1 .345.762c-.421.902-1.66-.138-2.351-.218-1.032-.232-2.092-.482-3.138-.468-.634 0-1.249.08-1.869.199a.602.602 0 0 1-.577.099c-.663-.26-.374-1.201.274-1.239Zm-.08 37.906c-.828-.075-1.566-.066-2.371-.212-2.091-.43-4.202-1.13-5.792-2.614-.639-.104-.634-1.078.019-1.168.435-.076.752.265 1.051.534.709.601 1.429.974 2.262 1.319 1.13.444 2.399.771 3.596.879.629.118 1.912-.217 1.893.747-.038.331-.336.539-.658.515Zm2.574-.198a.598.598 0 0 1-.601-.582.6.6 0 0 1 .582-.6c.322 0 .601.26.601.582a.6.6 0 0 1-.582.6Zm5.645 21.541a.595.595 0 0 1-.582-.6c0-.322.28-.587.601-.582.327 0 .582.279.582.6a.594.594 0 0 1-.601.582Zm5.797-3.64c.043-.009.076-.028.118-.052-.866.388-1.618 1.078-2.399 1.551-.009.004-.019.014-.033.018-.009.005-.019.01-.024.019-.492.298-.932.577-1.391.903l.043-.028c-.625.581-1.486-.303-.828-.865.648-.463 1.363-.884 2.03-1.324.71-.468 1.358-1.044 2.158-1.356.724-.194 1.055.893.331 1.134h-.005Zm2.712-33.618.004-.038c-2.569 12.583-18.35 17.253-27.346 8.064-8.669-8.745-4.505-23.838 7.425-26.911 11.512-3.058 22.368 7.242 19.912 18.88l.005.005Zm20.603-23.168c-.365-.898-1.089-1.479-1.921-1.919-.862-.473-1.695-1.049-2.608-1.404-.752-.17-.497-1.323.256-1.153 1.192.411 2.366 1.234 3.435 1.825 1.439.822 2.253 2.344 2.182 3.984.047.832.08 1.664.137 2.496a.598.598 0 0 1-.568.615.595.595 0 0 1-.615-.567c-.128-1.291-.024-2.615-.303-3.881l.005.004Zm.97 6.647c-.313.014-.615-.246-.615-.568 0-.321.231-.6.567-.614.313-.014.616.246.616.567a.6.6 0 0 1-.568.615Z"/><path fill="#A4D357" d="M156.776 203.465c1.188.856 1.978 2.052 1.978 3.574 0 .576-.113 1.205-.364 1.876-1.567 3.168-5.352 4.519-8.811 4.241.184-.242.307-.516.374-.804l.028-.137c.009-.052.019-.104.024-.161.009-.075.014-.156.014-.231v-.062a2.373 2.373 0 0 0-.128-.751 2.322 2.322 0 0 0-.435-.719 2.25 2.25 0 0 0-.686-.544c-.256-.137-.549-.189-.833-.217-.507-.047-.994.109-1.453.312a2.464 2.464 0 0 0-1.088.898 1.789 1.789 0 0 0-.1.17 1.596 1.596 0 0 0-.184.676c-3.634-2.737-1.86-7.691 3.061-9.18.308-.118.639-.217.98-.297-1.935.25-3.809.921-5.414 1.999-3.449 2.193-5.049 6.75-2.096 10.026 5.139 5.88 18.777 3.366 18.857-5.308-.151-2.388-1.722-4.212-3.714-5.356l-.01-.005Z"/><path fill="#E2FFB4" d="m191.108 112.248-.058.043c0 .005.005.01.01.014.014-.019.033-.038.048-.057ZM115.764 112.324c.27.17.681.321.956.538 1.192.676 2.389 1.348 3.582 2.028 4.112 2.321 8.229 4.652 12.336 6.973 4.25 2.401 8.504 4.802 12.753 7.208.861.487 1.732.974 2.593 1.466.057.028.095.075.137.118 1.387.813 2.679 1.867 4.297 2.018 1.67-.071 3.147-.841 4.581-1.555.473-.255.922-.539 1.386-.803.005 0 .01-.01.014-.015 9.474-5.559 18.947-11.113 28.416-16.667a.57.57 0 0 1 .322-.08c1.003-.568 1.907-1.286 2.853-1.943-.014.014-.024.019-.038.033 1.103-.738 1.283-1.612 1.278-2.647a.59.59 0 0 1-.081-.303V67.058a.928.928 0 0 1 0-.298v-.383c0-.057.01-.109.024-.16.005-.795-.142-1.622-.714-2.18-1.098-1.205-2.47-2.094-3.852-2.921-.303-.27-.914-.45-1.25-.752-3.478-1.966-6.96-3.928-10.438-5.9l-12.635-7.142a.973.973 0 0 1-.402-.298c-.298-.222-.62-.468-.866-.7-.781-.718-1.85-1.143-2.394-2.093-.275-.643-.606-1.499-.067-2.094 1.084-1.078 2.802-.823 4.188-.97h-.075c3.359-.075 6.676-.226 10.027-.396 2.787-.09 5.602-.067 8.262-1.007 4.58-1.598 8.588-6.292 9.733-10.962.422-1.763.445-3.579.474-5.38 0-.018-.01-.033-.01-.047V7.157c-.005-.029-.019-.048-.019-.076.01-.104.014-.208.019-.317v-.231s.01-.038.014-.062a9.315 9.315 0 0 0-.099-1.45c-.033-.592-.019-1.046-.147-1.58-.416-.69-1.32-1.05-2.115-1.03-2.617-.317-5.229-.274-7.846-.213-3.378.047-6.743.104-10.112.374-2.134.155-4.353.41-6.331 1.224-2.603 1.04-4.704 2.997-6.422 5.124-1.519 1.82-2.631 3.942-4.49 5.389-1.188.728-2.466.647-3.237-.615-2.872-3.654-5.953-7.322-9.904-9.841-3.033-1.716-6.568-2.265-9.98-2.572a61.932 61.932 0 0 0-8.219.076c-.483.127-1.018.042-1.515.108-1.358.152-2.692.275-4.012.516-1.174.274-2.442.274-3.545.784-.284.227-.407.558-.577.87-.113.444-.09.77-.161 1.172a.57.57 0 0 1 .043.204v17.083c0 .057-.019.109-.033.16.009.138.019.27.019.388.104 7.025 4.575 13.326 10.613 16.654 5.163 2.188 10.898 2.217 16.402 2.311 1.684.014 3.369.033 5.044.208.729.014 1.505.076 2.082.572.629.525.653 1.536.27 2.212-.639.851-1.533 1.286-2.371 1.877-.246.128-.62.383-.989.553a.545.545 0 0 1-.085.062 35246.08 35246.08 0 0 1-17.859 10.475c-1.746 1.02-3.487 2.051-5.233 3.067a.634.634 0 0 1-.142.062c-.54.293-1.07.6-1.614.874-1.041.549-2.016 1.215-2.986 1.882-1.24.751-2.342 1.692-2.763 3.115-.227.643-.294 1.319-.355 1.995v.01c0 .023.004.042.009.065v38.535c.01.18.019.383-.014.572v.052c-.255 2.817 1.122 3.304 3.279 4.524l-.009.005Zm66.91-51.71c.436-.656 1.15.01 1.624.275 1.23.666 2.479 1.352 3.468 2.359.298.118.426.486.308.77-.374.728-1.112.19-1.467-.246-.909-.832-1.992-1.342-3.043-1.952-.435-.27-1.249-.558-.89-1.21v.005Zm-1.301-1.432c.322 0 .592.27.592.591 0 .322-.27.591-.592.591a.597.597 0 0 1-.591-.59c0-.322.269-.592.591-.592Zm-2.584 55.217c1.898-.889 3.545-2.307 5.395-3.267.596-.189 1.363-1.134 1.912-.496.52.837-.767 1.172-1.297 1.508-1.94 1.007-3.573 2.444-5.546 3.347-.71.293-1.173-.771-.459-1.088l-.005-.004Zm-1.907 1.215c.322 0 .592.269.592.59 0 .322-.27.591-.592.591a.597.597 0 0 1-.591-.591c0-.321.27-.59.591-.59Zm-2.498-77.306c.336.019.558.302.558.624 0 .321-.317.572-.624.558-.336-.02-.559-.303-.559-.624 0-.322.317-.572.625-.558Zm-2.219.184c.331-.075.709 0 .837.36a.6.6 0 0 1-.359.756c-1.676.104-3.341.061-5.026.236-.766.052-.861-1.11-.09-1.177 1.529-.09 3.109-.265 4.638-.175Zm-8.376-33.17c1.046-.737 2.271-1.172 3.516-1.436.781-.052 4.074-.908 3.563.581a.57.57 0 0 1-.336.303c-.785.07-1.59.014-2.375.17-1.344.18-2.717.662-3.819 1.427-.681.35-1.23-.676-.549-1.044Zm-.98 1.23c.336.019.559.302.559.624 0 .321-.317.572-.625.557-.336-.018-.558-.302-.558-.624 0-.321.317-.572.624-.557ZM114.377 8.58c-.336-.02-.558-.303-.558-.624 0-.322.317-.572.625-.558.336.019.558.302.558.624 0 .321-.317.572-.625.558Zm4.297-4.505c-1.046.123-2.162.137-3.133.586-.123.075-.175.227-.236.354-.142.355-.171.648-.213 1.007-.147.757-1.297.54-1.164-.217.123-2.51 1.978-2.643 4.032-2.836.283-.034.643-.08.899-.071.35-.137.795-.1.941.307.223.676-.605.922-1.126.88v-.01Zm24.867 101.305c-.313.014-.615-.246-.615-.568 0-.321.231-.6.567-.614.313-.014.616.246.616.567a.6.6 0 0 1-.568.615Zm9.218 1.834c-1.335.279-2.731.321-4.07.066a16.265 16.265 0 0 1-3.246-.931.595.595 0 0 1-.345-.761c.421-.903 1.661.137 2.351.217 1.032.232 2.092.482 3.138.468.634 0 1.249-.08 1.869-.199a.602.602 0 0 1 .577-.099c.663.26.374 1.201-.274 1.239Zm.08-37.906c.828.075 1.566.066 2.371.212 2.091.43 4.202 1.13 5.792 2.614.639.104.634 1.078-.019 1.168-.435.076-.752-.265-1.051-.534-.709-.6-1.429-.974-2.261-1.319-1.131-.444-2.4-.77-3.597-.88-.629-.117-1.912.218-1.893-.746.038-.331.336-.539.658-.515Zm-2.574.198c.322 0 .601.26.601.582a.6.6 0 0 1-.582.6.598.598 0 0 1-.601-.582.6.6 0 0 1 .582-.6Zm-5.645-21.54c.326 0 .582.278.582.6 0 .32-.28.586-.601.58a.594.594 0 0 1-.582-.6c0-.32.279-.586.601-.58Zm-5.797 3.639c-.043.01-.076.028-.118.052.866-.388 1.618-1.078 2.399-1.55.009-.005.019-.015.033-.02.009-.004.019-.009.024-.018.492-.298.932-.577 1.391-.903l-.043.028c.625-.581 1.486.303.828.865-.648.463-1.363.884-2.03 1.324-.71.468-1.358 1.044-2.158 1.356-.724.194-1.055-.893-.331-1.134h.005Zm-2.712 33.619-.004.037c2.569-12.583 18.35-17.253 27.346-8.064 8.669 8.745 4.505 23.838-7.424 26.911-11.513 3.058-22.369-7.242-19.913-18.885h-.005Zm-20.603 23.167c.365.898 1.089 1.479 1.922 1.919.861.473 1.694 1.049 2.607 1.404.752.17.497 1.323-.256 1.153-1.192-.411-2.366-1.234-3.435-1.824-1.439-.823-2.253-2.345-2.182-3.985-.047-.832-.08-1.664-.137-2.496a.598.598 0 0 1 .568-.615.595.595 0 0 1 .615.567c.128 1.291.024 2.615.303 3.881l-.005-.004Zm-.97-6.647c.313-.014.615.246.615.568 0 .321-.231.6-.567.614-.313.014-.616-.246-.616-.567a.6.6 0 0 1 .568-.615Z"/><path fill="#fff" d="M213.404 136.535c-10.633.629-17.215 12.257-12.365 21.674 5.542 10.91 21.252 10.867 26.736-.048 5.21-10.229-2.934-22.458-14.371-21.626Zm4.713 22.203c-1.76 3.872-6.336 6.183-10.311 4.113-3.449-1.74-5.423-5.465-5.948-9.152-1.244-6.84 3.966-15.66 11.66-11.973 5.744 3.186 7.372 11.34 4.604 17.017l-.005-.005Z"/><path fill="#A4D357" d="M112.981 185.711c.677-1.192 1.349-2.388 2.03-3.579 2.324-4.108 4.657-8.22 6.98-12.323 2.404-4.245 4.808-8.495 7.216-12.739.488-.861.975-1.731 1.467-2.591.029-.057.076-.094.119-.137.814-1.385 1.869-2.675 2.02-4.292-.071-1.669-.842-3.144-1.557-4.576-.255-.473-.539-.922-.804-1.385 0-.005-.009-.009-.014-.014-5.565-9.464-11.125-18.927-16.685-28.386a.576.576 0 0 1-.081-.321c-.568-1.002-1.287-1.905-1.945-2.851.015.014.019.024.034.038-.739-1.101-1.614-1.281-2.65-1.276a.59.59 0 0 1-.303.08h-2.267a1.344 1.344 0 0 1-.364 0H67.128a.902.902 0 0 1-.298 0h-.383a.608.608 0 0 1-.161-.023c-.795-.005-1.623.141-2.181.713-1.207 1.097-2.097 2.468-2.925 3.848-.27.303-.45.912-.752 1.248-1.969 3.474-3.933 6.954-5.906 10.428-2.385 4.207-4.765 8.414-7.15 12.621a.974.974 0 0 1-.298.402c-.222.298-.468.619-.7.865-.72.78-1.146 1.848-2.097 2.392-.643.274-1.5.605-2.096.066-1.079-1.083-.823-2.798-.97-4.183v.075c-.076-3.356-.227-6.67-.397-10.016-.09-2.785-.067-5.597-1.008-8.254-1.6-4.576-6.299-8.579-10.974-9.723-1.765-.421-3.582-.445-5.385-.473-.019 0-.033.009-.047.009H7.164c-.028.005-.047.019-.075.019a7.864 7.864 0 0 0-.318-.019H6.54l-.062-.014a9.336 9.336 0 0 0-1.453.1c-.591.033-1.045.018-1.58.146-.691.416-1.05 1.319-1.032 2.113-.317 2.614-.274 5.223-.213 7.837.048 3.371.104 6.736.374 10.102.156 2.132.412 4.349 1.226 6.325 1.04 2.6 3 4.699 5.13 6.414 1.821 1.518 3.946 2.629 5.394 4.486.729 1.187.648 2.463-.615 3.234-3.658 2.869-7.33 5.946-9.852 9.893-1.718 3.03-2.267 6.561-2.575 9.97a61.733 61.733 0 0 0 .076 8.21c.128.483.043 1.017.109 1.513.151 1.357.274 2.69.516 4.009.274 1.172.274 2.439.785 3.54.227.284.559.407.87.577.446.113.772.09 1.174.161a.571.571 0 0 1 .204-.043h17.101c.057 0 .11.019.161.033.138-.009.27-.019.388-.019 7.032-.104 13.34-4.571 16.671-10.602 2.191-5.158 2.22-10.887 2.314-16.384.014-1.683.033-3.366.208-5.039.014-.728.076-1.504.573-2.08.525-.629 1.538-.653 2.215-.27.851.638 1.287 1.532 1.878 2.369.128.245.383.619.554.988a.503.503 0 0 1 .061.085c3.497 5.946 6.994 11.893 10.486 17.839 1.023 1.745 2.054 3.484 3.072 5.228a.634.634 0 0 1 .061.142c.293.539.6 1.069.875 1.612.55 1.04 1.216 2.019 1.884 2.988.752 1.238 1.694 2.34 3.118 2.76.644.227 1.32.293 1.997.355h.01c.023 0 .042-.005.066-.01h38.575a2.63 2.63 0 0 1 .573.014h.052c2.82.256 3.307-1.12 4.528-3.275.171-.27.322-.681.54-.955l.004.005ZM5.333 138.691c-.738-1.045-1.174-2.269-1.439-3.512-.052-.78-.908-4.07.582-3.56.138.071.26.185.303.336.071.785.015 1.588.17 2.373.18 1.342.663 2.713 1.43 3.815.35.68-.677 1.229-1.046.548Zm1.789 1.602c-.322 0-.573-.316-.559-.624.02-.335.303-.557.625-.557s.572.316.558.624c-.019.335-.303.557-.624.557Zm-1.306 48.206c-2.513-.122-2.646-1.975-2.84-4.027-.033-.284-.08-.643-.07-.898-.138-.35-.1-.794.307-.941.677-.222.923.605.88 1.125.123 1.045.137 2.161.587 3.13.076.122.227.174.355.236.355.142.648.17 1.008.213.757.146.54 1.29-.218 1.162h-.01Zm2.153.109c-.322 0-.573-.317-.559-.624.02-.335.303-.558.625-.558s.573.317.558.624c-.019.336-.303.558-.624.558Zm30.384-60.501c.019-.336.303-.558.624-.558.322 0 .573.317.559.624-.019.336-.303.558-.625.558s-.572-.317-.558-.624Zm.36 6.849c-.09-1.526-.265-3.105-.175-4.632-.076-.331 0-.709.36-.837a.6.6 0 0 1 .756.36c.104 1.673.062 3.337.237 5.02.052.765-1.112.86-1.178.089Zm9.899 23.489a.594.594 0 0 1-.582-.6c0-.326.28-.582.6-.582.323 0 .588.279.583.601 0 .326-.28.581-.601.581Zm3.057 5.195c.01.043.028.076.052.118-.388-.865-1.08-1.616-1.552-2.396-.005-.01-.014-.019-.02-.033-.004-.01-.009-.019-.018-.024a21.93 21.93 0 0 0-.904-1.39l.029.043c-.583-.624.302-1.485.865-.828.464.648.885 1.362 1.325 2.028.469.709 1.046 1.357 1.358 2.156.194.723-.894 1.054-1.135.331v-.005Zm8.167-41.919a.598.598 0 0 1-.591-.591c0-.321.27-.591.591-.591.322 0 .592.27.592.591 0 .321-.27.591-.592.591Zm4.008-5.824c-.833.908-1.344 1.99-1.954 3.04-.27.434-.558 1.248-1.212.888-.657-.435.01-1.148.275-1.621.667-1.229 1.353-2.477 2.361-3.465.119-.298.488-.425.772-.307.728.373.189 1.111-.246 1.465h.004Zm52.488 9.123c.321 0 .591.27.591.591 0 .322-.27.591-.591.591a.598.598 0 0 1-.592-.591c0-.321.27-.591.592-.591Zm-5.579-8.608c.837-.52 1.173.766 1.509 1.296 1.008 1.938 2.447 3.568 3.35 5.54.294.709-.771 1.172-1.088.458-.89-1.895-2.309-3.54-3.27-5.389-.189-.595-1.135-1.361-.497-1.909l-.004.004Zm-4.827 38.611c.232-1.031.483-2.09.468-3.134 0-.634-.08-1.248-.198-1.867a.6.6 0 0 1-.1-.577c.261-.662 1.202-.374 1.24.274.279 1.333.322 2.727.066 4.065a16.174 16.174 0 0 1-.932 3.243.597.597 0 0 1-.762.345c-.903-.421.138-1.659.218-2.349Zm-.426 3.904c.014.312-.246.615-.568.615-.321 0-.601-.232-.615-.568-.014-.311.246-.614.568-.614.322 0 .601.232.615.567Zm-35.31-6.131a.6.6 0 0 1-.601-.581c0-.322.26-.6.582-.6a.6.6 0 0 1 .6.581c0 .321-.26.6-.581.6Zm.464-4.386c-.119.628.217 1.909-.748 1.89-.331-.037-.54-.335-.516-.657.076-.827.066-1.564.213-2.368.43-2.089 1.131-4.197 2.617-5.786.104-.638 1.079-.633 1.169.019.075.435-.265.752-.535 1.05-.601.709-.975 1.427-1.32 2.259-.445 1.13-.772 2.397-.88 3.593Zm14.669 17.943.038.005c-12.597-2.567-17.272-18.331-8.073-27.317 8.754-8.66 23.863-4.5 26.939 7.416 3.062 11.501-7.25 22.345-18.9 19.892l-.004.004Zm17.153 22.118c-.321 0-.601-.232-.615-.567-.014-.312.246-.615.568-.615.322 0 .601.232.615.568.014.312-.246.614-.568.614Zm4.699-.189c-.833.047-1.665.08-2.498.137a.597.597 0 0 1-.615-.567.595.595 0 0 1 .567-.615c1.292-.127 2.617-.023 3.885-.302.9-.364 1.482-1.087 1.922-1.919.473-.861 1.05-1.693 1.405-2.605.17-.752 1.325-.496 1.155.255-.412 1.192-1.235 2.364-1.827 3.432-.823 1.437-2.347 2.25-3.989 2.179l-.005.005ZM289.287 149.899c3.657-2.87 7.329-5.947 9.852-9.894 1.717-3.03 2.266-6.561 2.574-9.969a61.638 61.638 0 0 0-.076-8.211c-.128-.482-.042-1.016-.109-1.513-.151-1.356-.274-2.69-.515-4.008-.275-1.173-.275-2.439-.786-3.541-.227-.284-.558-.411-.871-.577-.445-.113-.771-.089-1.173-.16a.598.598 0 0 1-.204.042h-17.101c-.057 0-.109-.019-.161-.033-.137.01-.27.019-.388.019-7.032.104-13.34 4.571-16.671 10.603-2.191 5.157-2.219 10.886-2.314 16.384-.014 1.682-.033 3.365-.208 5.039-.014.728-.076 1.503-.573 2.08-.525.628-1.538.652-2.214.269-.852-.638-1.287-1.532-1.879-2.368-.128-.246-.383-.62-.554-.988-.023-.029-.042-.052-.061-.085-3.497-5.947-6.994-11.893-10.486-17.84-1.022-1.744-2.054-3.484-3.071-5.228a.584.584 0 0 1-.062-.142c-.293-.539-.601-1.068-.875-1.612-.549-1.04-1.216-2.018-1.884-2.987-.752-1.239-1.694-2.34-3.118-2.761-.643-.227-1.32-.293-1.997-.354h-.009c-.024 0-.043.004-.067.009h-38.575a2.62 2.62 0 0 1-.572-.014h-.053c-2.82-.255-3.307 1.12-4.528 3.276-.17.269-.322.68-.54.954-.676 1.192-1.348 2.388-2.03 3.579-2.323 4.108-4.656 8.22-6.979 12.323-2.404 4.245-4.808 8.495-7.217 12.739-.487.861-.974 1.731-1.466 2.591-.029.057-.076.094-.119.137-.814 1.385-1.869 2.675-2.02 4.292.071 1.669.842 3.144 1.556 4.576.256.473.54.922.805 1.385 0 .005.009.009.014.014 5.565 9.464 11.125 18.927 16.685 28.386a.576.576 0 0 1 .081.321c.567 1.002 1.287 1.905 1.944 2.851-.014-.015-.018-.024-.033-.038.739 1.101 1.614 1.281 2.65 1.276a.59.59 0 0 1 .303-.08h41.68a.901.901 0 0 1 .298 0h.383c.057 0 .109.009.161.023.795.005 1.623-.141 2.181-.713 1.207-1.097 2.097-2.468 2.925-3.848.27-.303.449-.912.752-1.248 1.969-3.474 3.932-6.954 5.906-10.428 2.385-4.207 4.765-8.414 7.15-12.621a.967.967 0 0 1 .298-.402c.222-.298.468-.619.7-.865.72-.78 1.145-1.848 2.097-2.392.643-.274 1.5-.605 2.096-.066 1.079 1.083.823 2.798.97 4.183v-.075c.076 3.356.227 6.67.397 10.016.09 2.785.067 5.597 1.008 8.254 1.6 4.576 6.299 8.579 10.974 9.723 1.765.421 3.582.445 5.385.473.019 0 .033-.009.047-.009h16.231c.028-.005.047-.019.076-.019.104.009.208.014.317.019h.232l.061.014a9.34 9.34 0 0 0 1.453-.1c.591-.033 1.046-.018 1.58-.146.691-.416 1.051-1.319 1.032-2.113.317-2.614.274-5.223.213-7.837-.047-3.371-.104-6.736-.374-10.102-.156-2.132-.412-4.349-1.226-6.325-1.041-2.6-3-4.699-5.129-6.414-1.822-1.518-3.947-2.629-5.395-4.486-.728-1.187-.648-2.463.616-3.234v-.004Zm7.893-36.403c2.512.123 2.645 1.976 2.839 4.027.033.284.08.643.071.898.137.35.099.794-.308.941-.676.222-.923-.605-.88-1.125-.123-1.045-.137-2.16-.587-3.129-.075-.123-.227-.175-.355-.237-.355-.141-.648-.17-1.008-.212-.757-.147-.539-1.291.218-1.163h.01Zm-2.153-.109c.321 0 .572.317.558.624-.019.336-.303.558-.625.558s-.572-.317-.558-.624c.019-.336.303-.558.625-.558Zm-62.217 35.821c.322 0 .596.26.601.582 0 .321-.26.6-.582.6a.6.6 0 0 1-.601-.581c0-.322.26-.601.582-.601Zm-32.291-35.674c.322 0 .601.231.615.567.014.312-.246.614-.568.614-.322 0-.601-.231-.615-.567-.014-.312.246-.614.568-.614Zm-13.855 63.441a.598.598 0 0 1-.592-.591c0-.321.27-.591.592-.591.321 0 .591.27.591.591 0 .322-.27.591-.591.591Zm5.579 8.608c-.838.52-1.174-.766-1.51-1.295-1.008-1.938-2.446-3.569-3.35-5.54-.294-.709.771-1.173 1.088-.459.89 1.896 2.309 3.541 3.27 5.389.189.596 1.136 1.361.497 1.91l.005-.005Zm.321-68.599c-.473.861-1.05 1.693-1.405 2.605-.17.752-1.325.496-1.155-.255.412-1.192 1.235-2.364 1.827-3.432.823-1.437 2.347-2.25 3.989-2.179.833-.048 1.666-.081 2.498-.137a.599.599 0 0 1 .616.567.594.594 0 0 1-.568.614c-1.292.128-2.617.024-3.885.303-.899.364-1.481 1.087-1.921 1.919l.004-.005Zm4.505 29.989c-.232 1.03-.482 2.089-.468 3.134 0 .633.08 1.248.198 1.867a.599.599 0 0 1 .1.576c-.26.662-1.202.374-1.24-.274-.279-1.333-.322-2.727-.066-4.065.194-1.116.511-2.189.932-3.243a.597.597 0 0 1 .762-.345c.904.421-.137 1.659-.218 2.35Zm.426-3.905c-.014-.312.246-.614.568-.614.322 0 .601.231.615.567.014.312-.246.614-.568.614-.322 0-.601-.231-.615-.567Zm1.273 12.47c-3.062-11.496 7.235-22.331 18.885-19.896h.019-.037c12.596 2.567 17.271 18.331 8.072 27.317-8.754 8.66-23.863 4.5-26.939-7.416v-.005Zm34.624-.813c-.431 2.089-1.131 4.197-2.617 5.786-.104.638-1.079.633-1.169-.019-.075-.435.265-.752.535-1.05.601-.709.975-1.427 1.32-2.259.445-1.13.772-2.397.881-3.593.118-.628-.218-1.909.747-1.89.331.037.54.335.516.657-.076.827-.066 1.564-.213 2.368Zm8.645 29.066c-.667 1.229-1.353 2.477-2.361 3.465-.118.298-.487.426-.771.308-.729-.374-.189-1.111.246-1.466.833-.907 1.344-1.99 1.954-3.039.27-.435.559-1.248 1.212-.889.657.435-.01 1.149-.275 1.621h-.005Zm1.113-2.335a.598.598 0 0 1-.592-.591c0-.321.27-.591.592-.591.321 0 .591.27.591.591 0 .322-.27.591-.591.591Zm9.719-38.591c-.464-.648-.885-1.362-1.325-2.028-.468-.709-1.046-1.357-1.358-2.156-.194-.723.894-1.054 1.136-.331-.01-.042-.029-.075-.052-.118.388.865 1.079 1.617 1.552 2.397.004.009.014.019.019.033.004.009.009.019.019.024.298.491.577.931.903 1.389l-.028-.042c.582.624-.303 1.484-.866.827v.005Zm1.495 1.867a.596.596 0 0 1-.582-.6c0-.327.28-.582.601-.582.322 0 .587.279.582.601a.594.594 0 0 1-.601.581Zm8.736 22.397c-.052-.766 1.112-.861 1.178-.09.09 1.527.265 3.105.175 4.632.076.331 0 .709-.36.837a.6.6 0 0 1-.757-.359c-.104-1.674-.061-3.338-.236-5.02Zm.913 7.317c-.322 0-.573-.317-.558-.624.018-.336.302-.558.624-.558s.573.317.559.624c-.019.336-.303.558-.625.558Zm33.645-11.142c.738 1.045 1.173 2.269 1.438 3.513.052.78.909 4.07-.582 3.559a.573.573 0 0 1-.303-.336c-.071-.784-.014-1.588-.17-2.373-.18-1.342-.663-2.713-1.429-3.814-.35-.681.676-1.229 1.046-.549Zm-1.789-1.602c.322 0 .572.317.558.624-.019.336-.303.558-.624.558-.322 0-.573-.317-.559-.624.019-.336.303-.558.625-.558Z"/><path fill="#E2FFB4" d="m111.903 189.743-.01.01.01-.01Z"/><path fill="#fff" d="M75.225 143.839c-5.21 10.229 2.934 22.458 14.37 21.626 10.634-.629 17.216-12.258 12.366-21.674-5.542-10.91-21.252-10.867-26.736.048Zm14.262 16.44c-5.745-3.186-7.372-11.34-4.604-17.017 1.76-3.872 6.336-6.183 10.31-4.113 3.45 1.74 5.424 5.465 5.949 9.152 1.244 6.84-3.965 15.66-11.66 11.973l.005.005Z"/><path fill="#000" d="M104.223 146.453c-3.072-11.917-18.18-16.077-26.94-7.417-9.199 8.986-4.528 24.751 8.073 27.317l-.038-.004c11.655 2.448 21.966-8.391 18.9-19.892l.005-.004Zm-14.627 19.012c-11.437.832-19.581-11.397-14.371-21.626 5.48-10.915 21.194-10.958 26.736-.048 4.855 9.417-1.732 21.045-12.365 21.674Z"/><path fill="#000" d="M95.194 139.149c-3.975-2.07-8.55.237-10.311 4.113-2.768 5.677-1.14 13.831 4.604 17.017 7.694 3.687 12.899-5.138 11.66-11.973-.53-3.692-2.504-7.412-5.949-9.152l-.004-.005Zm4.5 8.49c-1.486-4.916-6.445-6.689-9.19-3.058a1.596 1.596 0 0 1 .847.283c.407.275.7.643.9 1.088.203.453.36.94.312 1.451-.024.283-.076.576-.218.832a2.53 2.53 0 0 1-.544.685c-.218.184-.45.336-.72.435-.236.09-.496.118-.752.128h-.061c-.076 0-.156-.005-.232-.015-.052-.004-.109-.014-.161-.023-.047-.01-.09-.014-.137-.029a2.087 2.087 0 0 1-.805-.373c-.279 3.455 1.07 7.232 4.245 8.802.672.25 1.301.364 1.879.364 1.519 0 2.72-.785 3.577-1.976-1.15 1.99-2.977 3.559-5.361 3.711-8.688-.081-11.201-13.699-5.314-18.838 3.279-2.949 7.836-1.352 10.036 2.094 1.079 1.603 1.746 3.48 2.002 5.408a7.132 7.132 0 0 0-.298-.978l-.005.009ZM114.519 123.706c.317.714 1.382.251 1.089-.458-.904-1.972-2.343-3.602-3.351-5.54-.336-.53-.672-1.811-1.509-1.296-.639.544.312 1.314.497 1.91.96 1.848 2.38 3.493 3.27 5.389l.004-.005ZM116.327 126.202a.59.59 0 1 0 0-1.182.59.59 0 0 0 0 1.182ZM111.836 182.406c-.355.913-.932 1.745-1.405 2.605-.44.827-1.017 1.555-1.921 1.919-1.268.279-2.593.17-3.885.303a.603.603 0 0 0-.568.614.6.6 0 0 0 .615.567c.833-.056 1.666-.089 2.499-.137 1.642.071 3.165-.742 3.989-2.179.596-1.068 1.419-2.24 1.826-3.432.171-.751-.984-1.007-1.154-.255l.004-.005ZM102.424 187.285c-.321 0-.577.302-.568.614a.602.602 0 0 0 .616.567c.321 0 .577-.302.567-.614a.6.6 0 0 0-.615-.567ZM105.708 157.367a.598.598 0 0 0 .762-.345c.421-1.054.743-2.127.932-3.242.256-1.338.213-2.733-.066-4.066-.038-.643-.984-.936-1.24-.274a.59.59 0 0 0 .1.577c.118.619.198 1.234.198 1.867.019 1.049-.236 2.104-.468 3.134-.08.69-1.121 1.929-.218 2.349ZM104.312 158.974a.603.603 0 0 0 .616.568c.321 0 .577-.303.567-.615a.6.6 0 0 0-.615-.567c-.322 0-.577.303-.568.614ZM73.384 141.499c-.09-.648-1.065-.657-1.169-.019-1.486 1.588-2.186 3.696-2.617 5.786-.141.803-.132 1.536-.213 2.368-.023.321.185.619.516.657.966.019.63-1.262.748-1.891.109-1.201.44-2.463.88-3.592.34-.837.72-1.551 1.32-2.26.265-.302.61-.614.535-1.049ZM70.171 151.61a.595.595 0 0 0-.582.6.592.592 0 0 0 1.183-.019.595.595 0 0 0-.601-.581ZM64.086 114.432c-.284-.123-.658.009-.772.307-1.012.988-1.699 2.231-2.361 3.465-.265.473-.932 1.186-.275 1.621.654.36.938-.453 1.212-.888.61-1.05 1.121-2.132 1.954-3.04.436-.354.975-1.092.246-1.465h-.004ZM59.836 120.539a.598.598 0 0 0-.591.591c0 .321.27.591.591.591.322 0 .592-.27.592-.591a.598.598 0 0 0-.592-.591ZM51.446 161.154c-.44-.662-.865-1.381-1.325-2.028-.563-.657-1.448.203-.866.827a27.462 27.462 0 0 1 .875 1.347s.01.014.02.024c.005.009.014.019.019.033.473.78 1.164 1.531 1.552 2.397-.019-.043-.038-.076-.052-.119.241.724 1.33.393 1.136-.331-.313-.798-.89-1.446-1.359-2.155v.005ZM48.626 157.263a.601.601 0 0 0-.6.582c0 .321.26.6.581.6a.6.6 0 0 0 .601-.581.598.598 0 0 0-.582-.601ZM38.897 129.492c-.364.128-.43.506-.36.837-.09 1.527.086 3.101.175 4.632.067.771 1.23.676 1.179-.09-.175-1.678-.133-3.342-.237-5.02a.6.6 0 0 0-.757-.359ZM39.536 128.173c.019-.307-.237-.624-.559-.624-.321 0-.605.222-.624.558-.019.307.236.624.558.624.322 0 .606-.222.625-.558ZM4.95 134.328c-.156-.78-.1-1.589-.17-2.373-.043-.151-.171-.265-.304-.336-1.49-.51-.634 2.78-.582 3.56.265 1.243.7 2.467 1.439 3.512.37.685 1.4.137 1.046-.549-.772-1.101-1.254-2.472-1.43-3.814ZM7.188 139.112c-.322 0-.606.222-.625.557-.019.308.237.624.559.624.321 0 .605-.222.624-.557.02-.308-.236-.624-.558-.624ZM6.033 187.341c-.36-.037-.657-.071-1.008-.212-.123-.067-.274-.114-.354-.237-.45-.969-.464-2.084-.587-3.129.047-.52-.204-1.347-.88-1.125-.407.142-.445.591-.308.941-.005.255.038.614.071.898.194 2.051.331 3.9 2.84 4.027.756.133.979-1.016.217-1.163h.01ZM8.035 187.431c-.322 0-.606.222-.625.558-.019.307.237.624.559.624.321 0 .605-.222.624-.558.02-.307-.236-.624-.558-.624ZM156.019 104.113c11.929-3.068 16.094-18.162 7.425-26.911-8.996-9.19-24.777-4.524-27.347 8.064l.005-.038c-2.451 11.643 8.399 21.943 19.912 18.885h.005Zm2.622-28.968c10.926 5.474 10.968 21.173.047 26.708-9.426 4.85-21.067-1.73-21.696-12.352-.833-11.425 11.409-19.56 21.649-14.356Z"/><path fill="#000" d="M154.164 101.035c3.696-.529 7.42-2.5 9.161-5.941 2.073-3.971-.236-8.542-4.117-10.3-5.683-2.766-13.845-1.14-17.035 4.599-3.691 7.686 5.144 12.886 11.986 11.647l.005-.005Zm7.198-13.17c2.952 3.277 1.353 7.829-2.097 10.027-1.604 1.078-3.483 1.744-5.413 2 .341-.08.667-.175.979-.298 4.922-1.485 6.696-6.438 3.062-9.18-.01.231-.071.463-.185.676a1.487 1.487 0 0 1-.099.17c-.274.406-.644.7-1.088.898-.455.203-.942.36-1.453.312-.284-.024-.577-.076-.833-.217a2.55 2.55 0 0 1-.686-.544 2.36 2.36 0 0 1-.435-.719 2.35 2.35 0 0 1-.128-.751v-.062a2 2 0 0 1 .038-.392c.009-.047.014-.09.028-.137.066-.288.189-.563.374-.804-3.459-.278-7.24 1.069-8.811 4.24a5.36 5.36 0 0 0-.364 1.877c0 1.518.785 2.718 1.978 3.574-1.993-1.149-3.564-2.974-3.715-5.356.08-8.679 13.713-11.189 18.857-5.308l-.009-.005ZM179.248 115.491c1.974-.903 3.606-2.34 5.546-3.347.53-.336 1.813-.671 1.297-1.508-.544-.638-1.316.312-1.912.496-1.85.96-3.497 2.378-5.394 3.267-.715.316-.251 1.38.459 1.087l.004.005ZM176.883 116.795a.59.59 0 1 0 0-1.182.59.59 0 0 0 0 1.182ZM114.581 103.952a.6.6 0 0 0-.568.614c.057.832.09 1.664.137 2.496-.071 1.641.743 3.163 2.182 3.985 1.069.596 2.243 1.418 3.435 1.825.753.17 1.008-.983.256-1.154-.914-.354-1.746-.931-2.608-1.403-.828-.44-1.557-1.017-1.921-1.92-.279-1.266-.17-2.59-.303-3.881-.009-.321-.303-.576-.615-.567l.005.005ZM114.581 102.931a.601.601 0 0 0 .568-.615c0-.321-.303-.576-.615-.567a.6.6 0 0 0-.568.615c0 .321.303.576.615.567ZM153.028 105.98a.588.588 0 0 0-.577.099 9.933 9.933 0 0 1-1.869.199c-1.05.019-2.106-.237-3.137-.468-.691-.081-1.931-1.121-2.352-.218a.598.598 0 0 0 .345.761c1.056.421 2.13.742 3.246.931 1.34.256 2.736.213 4.07-.066.644-.038.937-.983.274-1.238ZM143.484 104.202a.603.603 0 0 0-.568.615c0 .321.303.577.615.567a.6.6 0 0 0 .568-.614c0-.322-.303-.577-.615-.568ZM154.065 70.575c1.202.108 2.465.44 3.596.879.838.34 1.552.718 2.262 1.319.303.264.615.61 1.051.534.648-.09.657-1.064.018-1.168-1.59-1.484-3.7-2.184-5.792-2.614-.804-.142-1.537-.132-2.37-.213-.322-.023-.62.185-.658.516-.019.964 1.263.628 1.893.746ZM150.274 70.697a.591.591 0 1 0-.018-1.181.591.591 0 0 0 .018 1.181ZM183.564 61.825c1.051.61 2.134 1.12 3.043 1.952.355.435 1.093.974 1.467.246.123-.284-.01-.657-.308-.77-.989-1.012-2.233-1.698-3.468-2.36-.474-.264-1.188-.93-1.623-.274-.36.653.454.936.889 1.21v-.004ZM181.368 60.364c.322 0 .592-.27.592-.59 0-.322-.27-.592-.592-.592a.598.598 0 0 0-.591.591c0 .322.27.591.591.591ZM139.145 52.744c.799-.312 1.448-.889 2.158-1.357.662-.44 1.381-.865 2.03-1.323.657-.563-.204-1.447-.829-.865l.043-.029c-.459.322-.899.6-1.391.903l-.024.014c-.009.005-.019.015-.033.02-.781.472-1.533 1.162-2.399 1.55.042-.02.076-.038.118-.052-.724.24-.393 1.328.331 1.134l-.004.005ZM144.596 49.156c.322 0 .601-.26.601-.581a.6.6 0 0 0-.582-.6.598.598 0 0 0-.601.581.6.6 0 0 0 .582.6ZM167.617 39.849c1.68-.175 3.346-.132 5.026-.236a.599.599 0 0 0 .359-.757c-.127-.364-.506-.43-.837-.36-1.529-.089-3.104.086-4.638.176-.771.066-.676 1.229.09 1.177ZM174.318 39.494c.307.02.624-.236.624-.557 0-.322-.222-.606-.558-.624-.308-.02-.625.236-.625.557 0 .322.223.605.559.624ZM164.338 6.377c1.103-.77 2.475-1.253 3.819-1.428.78-.156 1.59-.1 2.375-.17.152-.043.265-.17.336-.303.511-1.489-2.782-.633-3.563-.581-1.245.265-2.47.7-3.516 1.437-.686.369-.137 1.4.549 1.045ZM162.743 7.738c.308.02.625-.236.625-.558 0-.321-.223-.605-.559-.624-.307-.019-.624.237-.624.558 0 .322.222.605.558.624ZM118.854 2.898c-.256-.005-.615.038-.899.07-2.054.194-3.904.332-4.032 2.837-.132.756 1.017.978 1.164.217.038-.359.071-.657.213-1.007.066-.122.114-.274.237-.354.97-.45 2.087-.463 3.132-.586.521.047 1.349-.204 1.127-.88-.142-.406-.592-.444-.942-.307v.01ZM114.444 7.402c-.308-.018-.625.237-.625.558 0 .322.222.605.558.624.308.02.625-.236.625-.558 0-.321-.222-.605-.558-.624ZM241.356 118.156s-.009-.014-.009-.023c0 .009.009.014.014.023h-.005ZM118.589 61.574s-.014.01-.024.01c.01 0 .014-.01.024-.015v.005Z"/><path fill="#000" d="M291.794 149.454c3.034-2.685 6.209-5.308 8.343-8.811 3.166-5.795 3.057-12.744 2.669-19.163 0-.052-.014-.1-.024-.142-.151-2.156-.393-4.302-.818-6.424-.223-1.593-.426-3.243-2.163-3.824-.511-.171-1.05-.152-1.58-.256a.639.639 0 0 0-.294.048h-16.193a.64.64 0 0 0-.232-.052c-7.964-.237-15.312 4.528-18.984 11.496-2.504 6.022-2.229 12.777-2.39 19.196-.09 1.144 0 2.728-.393 3.796-.042.057-.104.099-.156.147-.204.009-.445.056-.62-.067-.847-.855-1.476-1.942-2.039-3.011a.6.6 0 0 0-.251-.378l-13.117-22.316a.702.702 0 0 0-.076-.142c-1.306-2.368-2.607-4.869-4.439-6.906-1.216-1.172-2.896-1.683-4.552-1.773a.803.803 0 0 0-.506 0h-36.598c-.463-.118-.974-.104-1.391-.383-1.893-.955-2.768-2.94-3.43-4.854-.086-.223-.152-.459-.218-.691V66.92c.412-3.304-1.921-4.736-4.429-6.428-.355-.204-.705-.421-1.056-.634a.977.977 0 0 0-.34-.227c-3.824-2.155-7.642-4.325-11.466-6.48-3.71-2.095-7.42-4.198-11.13-6.292-.336-.123-.747-.482-1.145-.667-.023-.019-.047-.042-.075-.061-.545-.373-.994-.86-1.543-1.23-.705-.538-1.68-1.006-1.694-2.018.79-.595 1.831-.401 2.773-.524 1.736-.1 3.449-.109 5.224-.175 2.039-.09 4.041-.19 6.085-.298 3.076 0 6.242-.222 9.067-1.536 4.798-2.274 8.92-7.573 9.521-12.9.189-.998.17-2.156.203-3.191.019-.378.038-.766.019-1.149 0-.014-.005-.023-.005-.033V6.533s-.004-.024-.009-.038c.019-1.125-.109-2.222-.26-3.356-.228-.795-1.013-1.262-1.713-1.617-.824-.364-1.747-.26-2.617-.392-3.298-.322-6.611-.062-9.923-.067-11.518.374-16.037.11-23.026 10.263-.767.898-1.652 2.543-3.019 2.184-.686-.69-1.164-1.603-1.85-2.321-2.688-3.03-5.314-6.202-8.821-8.334C135.312-.307 128.356-.199 121.93.189c-.053 0-.1.014-.142.024-2.158.15-4.307.392-6.431.817-1.595.223-3.246.426-3.828 2.16-.171.516-.152 1.05-.256 1.58a.635.635 0 0 0 .047.293v16.175a.683.683 0 0 0-.052.232c-.236 7.956 4.534 15.297 11.509 18.965 6.028 2.5 12.79 2.226 19.212 2.387 1.145.09 2.73 0 3.799.392.057.043.1.104.147.156.009.204.057.445-.066.62-.857.846-1.945 1.474-3.015 2.037a.598.598 0 0 0-.378.25l-22.34 13.104a.69.69 0 0 0-.142.075c-2.371 1.305-4.874 2.605-6.913 4.434-1.174 1.215-1.685 2.893-1.775 4.548a.803.803 0 0 0 0 .505v36.616c-.09 1.834-.426 3.616-2.508 4.131-.624.204-1.344.289-2.006.426a3.309 3.309 0 0 0-.421.052H66.996c-3.308-.411-4.742 1.919-6.436 4.424-.203.355-.421.705-.634 1.054a.983.983 0 0 0-.227.341c-2.158 3.819-4.33 7.634-6.488 11.453-2.096 3.706-4.202 7.412-6.298 11.118-.123.336-.483.747-.667 1.144-.02.024-.043.048-.062.076-.373.544-.86.993-1.23 1.541-.54.704-1.008 1.678-2.02 1.692-.597-.789-.403-1.829-.526-2.77-.1-1.735-.109-3.446-.175-5.218a660.97 660.97 0 0 0-.298-6.079c0-3.073-.223-6.235-1.538-9.057-2.276-4.794-7.58-8.911-12.914-9.511-.998-.189-2.157-.17-3.194-.203a11.587 11.587 0 0 0-1.15-.019c-.014 0-.023.004-.033.004H6.54s-.024.005-.038.01c-1.127-.019-2.224.109-3.36.26-.795.227-1.264 1.011-1.618 1.711-.365.823-.26 1.744-.393 2.614-.322 3.295-.062 6.604-.066 9.913.373 11.505.108 16.02 10.273 23.001.899.766 2.546 1.65 2.186 3.016-.69.686-1.604 1.163-2.323 1.848-3.034 2.685-6.209 5.309-8.343 8.812-3.166 5.795-3.057 12.744-2.669 19.163 0 .052.014.099.024.142.151 2.155.393 4.301.818 6.424.223 1.593.426 3.243 2.163 3.824.511.17 1.05.151 1.58.255a.623.623 0 0 0 .294-.047H21.26a.684.684 0 0 0 .232.052c7.964.236 15.312-4.529 18.985-11.496 2.503-6.022 2.228-12.777 2.39-19.197.09-1.144 0-2.727.392-3.795.043-.057.104-.1.156-.147.204-.009.445-.057.62.066.847.856 1.476 1.943 2.04 3.011a.595.595 0 0 0 .25.378c4.373 7.441 8.745 14.876 13.117 22.317a.717.717 0 0 0 .076.142c1.306 2.368 2.607 4.868 4.439 6.906 1.216 1.172 2.896 1.683 4.552 1.772a.804.804 0 0 0 .506 0h36.626c.203.09.445.076.658.171 2.195.836 3.847 2.675 4.358 4.963v38.823c-.412 3.304 1.921 4.736 4.429 6.429.355.203.705.42 1.055.633a.985.985 0 0 0 .341.227c3.823 2.156 7.642 4.325 11.466 6.481 3.71 2.094 7.419 4.197 11.129 6.291.336.123.748.483 1.145.667.024.019.048.043.076.061.544.374.994.861 1.543 1.229.705.539 1.68 1.007 1.694 2.019-.79.596-1.831.402-2.773.525-1.737.099-3.45.108-5.224.174-2.04.09-4.041.19-6.086.298-3.075 0-6.241.222-9.066 1.537-4.798 2.273-8.92 7.572-9.521 12.9-.189.997-.17 2.155-.203 3.19-.019.379-.038.766-.019 1.149 0 .014.004.024.004.033v16.559s.005.024.01.038c-.019 1.125.109 2.221.26 3.356.227.794 1.013 1.262 1.713 1.617.824.364 1.746.26 2.617.392 3.298.321 6.611.061 9.923.066 11.518-.373 16.037-.109 23.026-10.262.767-.898 1.651-2.543 3.019-2.184.686.69 1.164 1.602 1.85 2.321 2.688 3.03 5.314 6.202 8.821 8.333 5.801 3.163 12.757 3.054 19.183 2.667.052 0 .1-.015.142-.024 2.158-.151 4.306-.392 6.431-.818 1.595-.222 3.246-.425 3.828-2.16.171-.515.152-1.05.256-1.579a.634.634 0 0 0-.048-.293v-16.176a.64.64 0 0 0 .052-.232c.237-7.955-4.533-15.296-11.508-18.964-6.028-2.501-12.79-2.227-19.212-2.387-1.145-.09-2.73 0-3.8-.393-.056-.042-.099-.104-.146-.156-.01-.203-.057-.444.066-.619.856-.846 1.945-1.475 3.014-2.037a.601.601 0 0 0 .379-.251l22.34-13.103a.73.73 0 0 0 .142-.076c2.37-1.305 4.874-2.604 6.913-4.434 1.174-1.215 1.685-2.893 1.775-4.547a.81.81 0 0 0 0-.506v-36.738c.156-.265.037-.577.156-.865.605-1.419 1.717-2.775 3.279-3.172.407-.156.724-.26 1.169-.374a.505.505 0 0 0 .151-.08h39.55c3.308.411 4.742-1.919 6.436-4.425.203-.354.421-.704.634-1.054a.972.972 0 0 0 .227-.34c2.158-3.819 4.33-7.634 6.488-11.454 2.096-3.706 4.202-7.412 6.298-11.118.123-.335.483-.746.667-1.144.019-.023.043-.047.062-.075.374-.544.861-.993 1.23-1.541.54-.705 1.008-1.678 2.021-1.692.596.789.402 1.829.525 2.77.099 1.734.109 3.446.175 5.218.09 2.038.189 4.037.298 6.079 0 3.073.222 6.235 1.538 9.057 2.276 4.793 7.581 8.911 12.914 9.511.998.189 2.157.17 3.194.203.378.019.766.038 1.15.019.014 0 .023-.005.033-.005h16.576s.024-.004.038-.009c1.126.019 2.224-.109 3.36-.26.795-.227 1.263-1.012 1.618-1.711.364-.823.26-1.745.393-2.614.321-3.295.061-6.604.066-9.913-.374-11.505-.109-16.02-10.273-23.002-.899-.765-2.546-1.649-2.186-3.015.69-.686 1.604-1.163 2.323-1.849l-.01-.014Zm-179.31-41.706c.029-.189.024-.397.015-.572V68.641c0-.024-.005-.043-.01-.066v-.01c.057-.676.128-1.352.355-1.995.417-1.422 1.519-2.368 2.764-3.115.97-.661 1.949-1.328 2.985-1.88-.009 0-.014.008-.023.013.009 0 .014-.01.023-.01.549-.273 1.079-.58 1.614-.874a.615.615 0 0 0 .142-.061c1.746-1.021 3.488-2.047 5.234-3.068L143.441 47.1c.033-.019.057-.043.085-.062.37-.17.743-.425.989-.553.838-.59 1.732-1.03 2.371-1.876.383-.676.36-1.688-.27-2.212-.577-.497-1.348-.558-2.082-.572-1.675-.175-3.359-.194-5.044-.208-5.503-.095-11.238-.123-16.401-2.312-6.038-3.328-10.51-9.629-10.614-16.653 0-.118-.009-.25-.019-.388.014-.052.033-.104.033-.16V5.01a.616.616 0 0 0-.042-.204c.075-.402.047-.723.16-1.172.166-.312.289-.643.578-.87 1.102-.51 2.371-.506 3.544-.785 1.316-.24 2.65-.363 4.013-.515.492-.066 1.031.014 1.514-.108a61.946 61.946 0 0 1 8.22-.076c3.411.307 6.951.855 9.979 2.571 3.952 2.52 7.032 6.193 9.904 9.842.772 1.262 2.049 1.342 3.237.615 1.865-1.442 2.977-3.57 4.491-5.39 1.718-2.126 3.819-4.083 6.421-5.123 1.973-.809 4.193-1.064 6.332-1.225 3.364-.27 6.733-.326 10.112-.373 2.617-.062 5.229-.104 7.846.213.795-.02 1.698.335 2.115 1.03.132.534.113.988.146 1.579.067.482.105.969.1 1.451 0 .02-.014.038-.014.062v.231c-.005.104-.01.208-.019.317 0 .028.014.047.019.076V23.37s.009.033.009.047c-.028 1.801-.052 3.617-.473 5.38-1.145 4.67-5.153 9.364-9.734 10.962-2.659.94-5.475.917-8.262 1.007-3.345.165-6.663.316-10.027.397h.076c-1.387.146-3.105-.109-4.188.969-.535.595-.208 1.451.066 2.094.544.955 1.618 1.376 2.394 2.094.247.232.573.477.866.7.1.132.246.236.403.297 4.211 2.383 8.427 4.76 12.634 7.143 3.478 1.971 6.961 3.933 10.439 5.9.331.306.946.481 1.249.75 1.382.828 2.749 1.717 3.852 2.922.568.563.719 1.385.715 2.18a.545.545 0 0 0-.024.16v.383a.901.901 0 0 0 0 .298v41.635a.59.59 0 0 0 .08.303c.01 1.03-.17 1.91-1.277 2.647.014-.009.023-.019.038-.033-.947.657-1.851 1.375-2.854 1.943a.594.594 0 0 0-.322.08c-9.473 5.559-18.947 11.113-28.415 16.668-.005 0-.01.009-.015.014-.463.264-.908.548-1.386.803-1.434.714-2.91 1.485-4.581 1.555-1.623-.146-2.91-1.205-4.296-2.018-.043-.042-.081-.09-.137-.118-.862-.492-1.732-.974-2.594-1.466-4.249-2.406-8.498-4.807-12.752-7.208-4.113-2.326-8.229-4.652-12.337-6.973-1.192-.676-2.389-1.351-3.582-2.027-.274-.218-.686-.369-.956-.539-2.158-1.22-3.53-1.707-3.279-4.524v-.052l.009.005Zm78.623 4.495-.048.057c0-.005-.004-.01-.009-.014l.057-.043Zm-4.609 73.023c-.208.619-.8.912-1.415 1.073-.421.137-.961.057-1.405-.038-3.043-1.72-6.086-3.446-9.133-5.162-4.216-2.387-8.437-4.764-12.654-7.152-1.84-1.044-3.691-2.08-5.531-3.124a.524.524 0 0 0-.218-.142c-.502-.336-1.055-.61-1.59-.936-3.975-3.058-7.051-1.106-10.85 1.064l-.043.028c-1.136.667-2.271 1.338-3.412 2-7.245 4.249-14.494 8.499-21.739 12.753a.67.67 0 0 0-.222-.024c-1.103.317-1.902-.836-2.044-1.81a3.609 3.609 0 0 1 .104-1.475.532.532 0 0 0 .109-.35c1.509-2.661 3.019-5.327 4.523-7.993 2.39-4.212 4.77-8.428 7.16-12.64 1.046-1.839 2.082-3.687 3.128-5.526a.54.54 0 0 0 .142-.217c.336-.502.61-1.055.937-1.589 3.061-3.97 1.107-7.043-1.065-10.839l-.028-.042c-.668-1.135-1.34-2.269-2.002-3.409-4.003-6.806-8.002-13.613-12.005-20.42v-.128c-.1-.586.061-1.177.265-1.73.44-.851 1.462-1.357 2.427-1.253.138.005.336.104.526.142 2.664 1.508 5.328 3.016 7.992 4.514 4.216 2.388 8.437 4.765 12.653 7.152 1.841 1.045 3.691 2.08 5.532 3.125a.544.544 0 0 0 .218.142c.501.335 1.055.61 1.59.936 3.975 3.058 7.05 1.106 10.85-1.064l.043-.028c1.135-.667 2.271-1.338 3.412-2 7.604-4.462 15.213-8.924 22.817-13.387.024.005.043.019.067.024.317.033.648-.071.955.057.971.378 1.094 1.489.862 2.387a2.109 2.109 0 0 0-.119.416c-1.774 3.134-3.553 6.263-5.323 9.397-2.39 4.212-4.77 8.428-7.16 12.64-1.045 1.839-2.082 3.687-3.128 5.526a.525.525 0 0 0-.141.218c-.336.501-.611 1.054-.937 1.588-3.062 3.971-1.108 7.043 1.064 10.839l.029.042c.667 1.135 1.339 2.269 2.001 3.409l12.919 21.971a.628.628 0 0 0-.043.274c.047.26-.024.515-.128.752l.01.009Zm-78.585 4.67h-.052a2.984 2.984 0 0 0-.572-.014H68.713c-.023 0-.042.005-.066.01h-.01c-.676-.057-1.353-.128-1.996-.355-1.425-.416-2.371-1.517-3.119-2.76-.662-.97-1.33-1.948-1.883-2.988 0 .01.01.014.014.024 0-.01-.01-.014-.01-.024-.274-.544-.581-1.078-.875-1.612a.634.634 0 0 0-.061-.142c-1.022-1.744-2.05-3.483-3.071-5.228-3.497-5.946-6.99-11.893-10.486-17.84-.02-.033-.043-.056-.062-.085-.17-.368-.426-.742-.553-.988-.592-.836-1.032-1.73-1.88-2.368-.676-.383-1.688-.359-2.214.27-.497.576-.558 1.347-.572 2.08-.175 1.673-.194 3.356-.209 5.039-.094 5.497-.122 11.226-2.313 16.383-3.332 6.032-9.64 10.499-16.671 10.603-.119 0-.251.01-.388.019-.052-.014-.105-.033-.161-.033H5.016a.617.617 0 0 0-.204.042c-.402-.075-.724-.047-1.173-.16-.313-.166-.644-.289-.87-.577-.512-1.101-.507-2.368-.786-3.541-.242-1.314-.365-2.647-.516-4.008-.066-.492.014-1.031-.109-1.513a61.746 61.746 0 0 1-.076-8.211c.308-3.408.857-6.943 2.574-9.969 2.523-3.947 6.2-7.024 9.853-9.893 1.263-.771 1.343-2.047.615-3.234-1.444-1.862-3.573-2.968-5.395-4.486-2.13-1.716-4.088-3.814-5.13-6.414-.808-1.971-1.064-4.188-1.225-6.325-.27-3.361-.326-6.727-.374-10.102-.061-2.614-.104-5.223.213-7.837-.019-.794.336-1.697 1.032-2.113.534-.132.989-.113 1.58-.147a9.99 9.99 0 0 1 1.453-.099c.019 0 .038.014.062.014h.231c.104.005.209.01.317.019.029 0 .048-.014.076-.019h16.23s.034-.009.048-.009c1.803.028 3.62.052 5.385.473 4.675 1.144 9.374 5.147 10.974 9.723.941 2.657.918 5.469 1.008 8.253.165 3.342.317 6.656.397 10.017v-.076c.147 1.385-.109 3.101.97 4.184.596.534 1.453.208 2.097-.066.955-.544 1.377-1.617 2.096-2.392.232-.246.478-.572.7-.865a.94.94 0 0 0 .298-.402c2.385-4.207 4.765-8.419 7.15-12.621 1.974-3.475 3.937-6.954 5.906-10.428.307-.331.483-.945.752-1.248.828-1.376 1.718-2.746 2.925-3.848.563-.567 1.386-.718 2.181-.714a.546.546 0 0 0 .161.024h.383a.903.903 0 0 0 .298 0h39.049c.118.019.241.014.364 0h2.267a.59.59 0 0 0 .303-.08c1.031-.01 1.912.17 2.65 1.276a.28.28 0 0 0-.033-.038c.657.946 1.377 1.848 1.944 2.851a.593.593 0 0 0 .081.321c5.565 9.464 11.125 18.927 16.685 28.386 0 .005.009.009.014.014.265.463.549.908.805 1.385.714 1.432 1.485 2.907 1.556 4.576-.146 1.621-1.206 2.907-2.02 4.292-.043.042-.09.08-.118.137-.493.86-.975 1.73-1.467 2.59-2.409 4.245-4.813 8.49-7.217 12.74-2.328 4.107-4.656 8.22-6.979 12.323-.677 1.191-1.354 2.387-2.03 3.578-.218.275-.37.686-.54.955-1.221 2.156-1.708 3.527-4.528 3.276l.004-.005Zm3.989-.193-.009.009.009-.009Zm78.613 4.504a2.984 2.984 0 0 0-.014.572v38.535c0 .024.005.043.01.066v.01c-.057.676-.128 1.352-.355 1.995-.417 1.422-1.519 2.368-2.764 3.115-.97.661-1.949 1.328-2.99 1.881.009 0 .014-.009.023-.009-.553.278-1.093.59-1.637.888a.584.584 0 0 0-.142.062c-1.746 1.021-3.488 2.046-5.234 3.068-5.953 3.493-11.905 6.981-17.858 10.475-.033.018-.057.042-.085.061-.37.17-.743.425-.989.553-.838.591-1.732 1.031-2.371 1.877-.383.676-.36 1.687.27 2.212.577.496 1.348.558 2.082.572 1.675.175 3.359.194 5.044.208 5.503.094 11.238.123 16.401 2.311 6.038 3.328 10.51 9.629 10.614 16.654 0 .118.009.25.019.387-.014.052-.033.104-.033.161v17.084c0 .07.019.137.042.203-.075.402-.047.723-.16 1.172-.166.312-.289.643-.578.87-1.102.51-2.371.506-3.544.785-1.316.241-2.65.364-4.013.515-.492.066-1.031-.014-1.514.109-2.73.203-5.484.236-8.22.075-3.411-.307-6.951-.855-9.979-2.571-3.952-2.52-7.032-6.193-9.904-9.842-.772-1.262-2.049-1.342-3.237-.615-1.865 1.442-2.977 3.569-4.491 5.389-1.718 2.127-3.819 4.084-6.421 5.124-1.973.809-4.193 1.064-6.332 1.225-3.364.269-6.733.326-10.112.373-2.617.062-5.229.104-7.846-.213-.795.019-1.698-.335-2.115-1.03-.132-.534-.113-.988-.146-1.579a9.83 9.83 0 0 1-.1-1.451c0-.019.014-.038.014-.062v-.231c.005-.104.01-.208.019-.317 0-.028-.014-.047-.019-.076v-16.213s-.009-.033-.009-.047c.028-1.801.052-3.617.473-5.38 1.145-4.67 5.153-9.364 9.734-10.962 2.659-.94 5.475-.917 8.262-1.007 3.345-.165 6.663-.316 10.027-.397h-.076c1.387-.146 3.105.109 4.188-.969.535-.595.208-1.451-.066-2.094-.544-.955-1.618-1.375-2.394-2.094-.247-.232-.573-.477-.866-.7a.935.935 0 0 0-.403-.297c-4.211-2.383-8.427-4.76-12.634-7.143-3.478-1.971-6.961-3.933-10.439-5.899-.331-.307-.946-.482-1.249-.752-1.382-.827-2.749-1.716-3.852-2.921-.568-.563-.719-1.385-.715-2.179a.549.549 0 0 0 .024-.161v-.383a.903.903 0 0 0 0-.298v-41.635a.59.59 0 0 0-.08-.303c-.01-1.03.17-1.91 1.277-2.647-.014.01-.023.019-.038.033.947-.657 1.851-1.375 2.854-1.943a.594.594 0 0 0 .322-.08c9.473-5.559 18.947-11.113 28.415-16.667.005 0 .01-.01.015-.015.463-.264.908-.548 1.386-.803 1.434-.714 2.91-1.485 4.581-1.555 1.623.146 2.91 1.205 4.296 2.018.043.043.081.09.137.118.862.492 1.732.974 2.594 1.466 4.249 2.406 8.498 4.807 12.752 7.208 4.113 2.326 8.229 4.652 12.337 6.973 1.192.676 2.389 1.352 3.582 2.027.274.218.686.369.956.539 2.158 1.22 3.53 1.707 3.279 4.524v.052l-.005-.005Zm98.156-41.115c1.444 1.862 3.573 2.973 5.395 4.486 2.129 1.716 4.088 3.814 5.129 6.414.81 1.971 1.065 4.188 1.226 6.325.27 3.361.326 6.727.374 10.102.061 2.614.104 5.223-.213 7.837.019.794-.336 1.697-1.032 2.113-.534.132-.989.114-1.58.147-.483.066-.97.104-1.453.099-.019 0-.038-.014-.061-.014h-.232c-.104-.005-.209-.01-.317-.019-.029 0-.048.014-.076.019H279.6s-.033.009-.047.009c-1.803-.028-3.62-.052-5.385-.473-4.675-1.143-9.374-5.147-10.974-9.723-.941-2.657-.918-5.469-1.008-8.253-.165-3.342-.317-6.656-.397-10.017v.076c-.147-1.385.109-3.101-.97-4.184-.596-.534-1.453-.208-2.097.066-.955.544-1.377 1.617-2.096 2.392-.232.246-.478.572-.7.865a.932.932 0 0 0-.298.402c-2.385 4.207-4.765 8.419-7.15 12.621-1.974 3.475-3.937 6.954-5.906 10.428-.307.331-.483.945-.752 1.248-.828 1.376-1.718 2.746-2.925 3.848-.563.567-1.386.718-2.181.714a.544.544 0 0 0-.161-.024h-.383a.903.903 0 0 0-.298 0h-41.68a.59.59 0 0 0-.303.08c-1.031.01-1.912-.17-2.65-1.276a.28.28 0 0 0 .033.038c-.657-.946-1.377-1.848-1.944-2.851a.593.593 0 0 0-.081-.321c-5.565-9.463-11.125-18.927-16.685-28.386 0-.004-.009-.009-.014-.014-.265-.463-.549-.908-.805-1.385-.714-1.432-1.485-2.907-1.556-4.576.146-1.621 1.206-2.907 2.02-4.292.043-.042.09-.08.118-.137.493-.86.975-1.73 1.467-2.59 2.409-4.245 4.813-8.49 7.217-12.74 2.328-4.107 4.656-8.22 6.979-12.323.677-1.191 1.354-2.387 2.03-3.578.218-.275.37-.686.54-.955 1.221-2.156 1.708-3.527 4.528-3.276h.052c.19.028.398.024.573.014h38.575c.024 0 .043-.005.067-.009h.009c.677.056 1.353.127 1.997.354 1.424.416 2.371 1.518 3.118 2.761.663.969 1.33 1.947 1.884 2.987 0-.009-.01-.014-.014-.023 0 .004.009.014.009.023.274.544.582 1.078.875 1.612a.674.674 0 0 0 .062.142c1.022 1.744 2.049 3.484 3.071 5.228 3.497 5.947 6.989 11.893 10.486 17.84.019.033.043.057.062.085.17.369.426.742.553.988.592.837 1.032 1.73 1.879 2.368.677.383 1.689.359 2.214-.269.497-.577.559-1.348.573-2.08.175-1.674.194-3.356.208-5.039.095-5.498.123-11.227 2.314-16.384 3.332-6.032 9.639-10.499 16.671-10.603.118 0 .251-.009.388-.019.052.014.104.033.161.033h17.101a.619.619 0 0 0 .204-.042c.402.075.724.047 1.173.161.313.165.644.288.871.576.511 1.102.507 2.369.786 3.541.241 1.314.364 2.647.515 4.008.067.492-.014 1.031.109 1.513a61.64 61.64 0 0 1 .076 8.211c-.308 3.408-.856 6.944-2.574 9.969-2.522 3.947-6.199 7.024-9.852 9.894-1.264.77-1.344 2.047-.615 3.233l.004.005Z"/><path fill="#000" d="M61.653 183.862s-.01-.014-.014-.023c0 .009.01.014.01.023h.004ZM217.639 135.647h.019c-11.645-2.435-21.942 8.4-18.885 19.896 3.071 11.916 18.18 16.076 26.939 7.416 9.199-8.986 4.529-24.75-8.073-27.317v.005Zm-16.6 22.562c-4.855-9.417 1.732-21.045 12.365-21.674 11.437-.832 19.581 11.397 14.371 21.626-5.479 10.915-21.194 10.958-26.736.048Z"/><path fill="#000" d="M213.513 141.721c-7.694-3.687-12.899 5.138-11.66 11.973.53 3.692 2.504 7.412 5.948 9.152 3.975 2.07 8.551-.236 10.312-4.113 2.768-5.677 1.14-13.831-4.605-17.017l.005.005Zm1.528 19.163c-3.279 2.95-7.836 1.352-10.036-2.094-1.079-1.602-1.746-3.479-2.002-5.408.081.341.175.667.298.979 1.486 4.916 6.445 6.689 9.19 3.058a1.598 1.598 0 0 1-.847-.283 2.516 2.516 0 0 1-.899-1.088c-.204-.453-.36-.94-.313-1.451.024-.283.076-.576.218-.832a2.54 2.54 0 0 1 .544-.685c.218-.184.45-.336.72-.435.236-.09.496-.118.752-.128h.061c.076 0 .157.005.232.015.052.004.109.014.161.023.048.01.09.014.137.029.289.066.564.189.805.373.279-3.455-1.07-7.232-4.245-8.802-.672-.25-1.301-.364-1.878-.364-1.519 0-2.721.785-3.578 1.976 1.15-1.99 2.977-3.559 5.362-3.711 8.688.081 11.2 13.699 5.314 18.838l.004-.01ZM188.476 178.289c-.317-.714-1.382-.25-1.088.459.903 1.971 2.342 3.606 3.35 5.54.336.529.672 1.81 1.509 1.295.639-.544-.312-1.314-.497-1.91-.96-1.848-2.38-3.493-3.269-5.389l-.005.005ZM186.668 176.975a.592.592 0 1 0 0-1.183.592.592 0 0 0 0 1.183ZM198.938 114.153a.6.6 0 0 0-.615-.567c-.833.056-1.665.089-2.498.137-1.642-.071-3.166.742-3.989 2.179-.597 1.068-1.42 2.24-1.827 3.432-.17.751.984 1.007 1.155.255.355-.912.932-1.744 1.405-2.605.44-.827 1.017-1.555 1.921-1.919 1.268-.279 2.593-.17 3.885-.302a.605.605 0 0 0 .568-.615l-.005.005ZM200.576 114.715c.321 0 .577-.302.567-.614a.6.6 0 0 0-.615-.567c-.321 0-.577.302-.568.614a.602.602 0 0 0 .616.567ZM197.292 144.628a.6.6 0 0 0-.762.345 15.852 15.852 0 0 0-.932 3.243c-.256 1.338-.213 2.732.066 4.065.038.643.984.936 1.24.274a.589.589 0 0 0-.1-.576 9.923 9.923 0 0 1-.199-1.868c-.018-1.049.237-2.103.469-3.134.08-.69 1.121-1.928.218-2.349ZM198.683 143.026a.601.601 0 0 0-.615-.568c-.322 0-.578.303-.568.615a.6.6 0 0 0 .615.567c.322 0 .577-.303.568-.614ZM233.094 151.704c-.965-.019-.629 1.262-.748 1.891-.108 1.201-.44 2.463-.88 3.593-.34.836-.719 1.55-1.32 2.259-.265.303-.61.615-.535 1.05.09.647 1.065.657 1.169.018 1.486-1.588 2.186-3.696 2.617-5.785.142-.804.132-1.537.213-2.369.024-.321-.185-.619-.516-.657ZM232.824 150.39a.594.594 0 0 0 .582-.6.595.595 0 0 0-.601-.582.592.592 0 0 0-.582.601c0 .321.275.581.601.581ZM242.321 182.17c-.653-.359-.936.454-1.211.889-.61 1.049-1.121 2.132-1.954 3.039-.436.355-.975 1.092-.246 1.466.284.122.657-.01.771-.308 1.013-.988 1.699-2.231 2.361-3.465.265-.472.932-1.186.275-1.621h.004ZM243.164 180.279a.598.598 0 0 0-.592.591c0 .321.27.591.592.591.322 0 .591-.27.591-.591a.597.597 0 0 0-.591-.591ZM253.745 142.042l.028.043a27.023 27.023 0 0 1-.904-1.39s-.009-.014-.019-.024c-.005-.009-.014-.018-.019-.033-.473-.78-1.164-1.531-1.552-2.396.019.042.038.075.052.118-.241-.723-1.329-.392-1.135.331.312.799.889 1.446 1.358 2.155.44.662.866 1.381 1.325 2.028.563.657 1.448-.203.866-.827v-.005ZM254.388 143.55a.601.601 0 0 0-.601.582c0 .321.26.6.582.6a.6.6 0 0 0 .601-.581.598.598 0 0 0-.582-.601ZM264.103 172.508c.364-.128.43-.506.359-.837.09-1.527-.085-3.101-.175-4.632-.066-.771-1.23-.676-1.178.09.175 1.678.133 3.342.237 5.02a.6.6 0 0 0 .757.359ZM264.089 173.264c-.322 0-.606.222-.625.558-.019.307.237.624.558.624.322 0 .606-.222.625-.558.019-.307-.236-.624-.558-.624ZM298.046 167.667c.156.78.099 1.589.17 2.373.043.152.17.265.303.336 1.49.511.634-2.779.582-3.559-.265-1.244-.701-2.468-1.439-3.513-.369-.685-1.4-.137-1.045.549.771 1.101 1.253 2.472 1.429 3.814ZM295.807 162.888c.322 0 .606-.222.625-.557.019-.308-.237-.624-.558-.624-.322 0-.606.222-.625.557-.019.308.237.624.558.624ZM296.967 114.659c.359.037.657.071 1.008.212.123.067.274.114.354.237.45.969.464 2.084.587 3.129-.047.52.204 1.347.88 1.125.407-.142.445-.591.308-.941.005-.255-.038-.614-.071-.898-.194-2.051-.331-3.9-2.839-4.027-.757-.133-.98 1.016-.218 1.163h-.009ZM294.96 114.569c.322 0 .606-.222.625-.558.019-.307-.237-.624-.559-.624-.321 0-.605.222-.624.558-.019.307.236.624.558.624ZM146.981 197.887c-11.93 3.068-16.094 18.162-7.425 26.911 8.996 9.19 24.777 4.524 27.347-8.064l-.005.038c2.451-11.643-8.399-21.943-19.912-18.88l-.005-.005Zm-2.622 28.968c-10.926-5.474-10.968-21.173-.047-26.708 9.426-4.85 21.067 1.73 21.696 12.352.833 11.425-11.409 19.56-21.649 14.356Z"/><path fill="#000" d="M148.831 200.96c-3.695.529-7.42 2.501-9.161 5.942-2.073 3.97.237 8.542 4.117 10.3 5.683 2.765 13.846 1.139 17.035-4.599 3.691-7.687-5.144-12.886-11.986-11.648l-.005.005Zm-7.197 13.169c-2.953-3.275-1.354-7.828 2.096-10.026 1.604-1.077 3.483-1.744 5.414-1.999-.341.08-.668.175-.98.298-4.921 1.484-6.696 6.438-3.062 9.18a1.57 1.57 0 0 1 .185-.676c.028-.057.061-.114.099-.171a2.53 2.53 0 0 1 1.089-.898c.454-.203.941-.359 1.452-.312.284.024.578.076.833.218.26.142.488.321.686.543.185.218.336.449.436.719.09.236.118.496.127.751v.062c0 .076-.004.156-.014.232-.004.052-.014.108-.023.16-.01.047-.015.09-.029.137a2.07 2.07 0 0 1-.374.804c3.459.279 7.24-1.068 8.811-4.24.251-.671.365-1.3.365-1.877 0-1.517-.786-2.718-1.978-3.573 1.992 1.148 3.563 2.973 3.714 5.355-.08 8.679-13.713 11.189-18.857 5.309l.01.004ZM123.751 186.509c-1.973.903-3.605 2.34-5.545 3.347-.53.336-1.813.671-1.297 1.508.544.638 1.316-.312 1.912-.496 1.85-.96 3.497-2.378 5.394-3.267.715-.316.251-1.38-.459-1.087l-.005-.005ZM126.118 186.382a.592.592 0 1 0-.001-1.183.592.592 0 0 0 .001 1.183ZM188.414 198.048a.6.6 0 0 0 .568-.614c-.057-.832-.09-1.664-.137-2.496.071-1.641-.743-3.163-2.182-3.985-1.069-.596-2.242-1.418-3.435-1.825-.752-.17-1.008.983-.255 1.154.913.354 1.746.931 2.607 1.403.828.44 1.557 1.017 1.921 1.92.279 1.266.17 2.59.303 3.881.009.321.303.576.615.567l-.005-.005ZM188.419 199.064a.602.602 0 0 0-.568.615c0 .321.303.577.615.567a.6.6 0 0 0 .568-.614c0-.322-.303-.577-.615-.568ZM149.972 196.015a.588.588 0 0 0 .577-.099 9.932 9.932 0 0 1 1.869-.198c1.05-.019 2.106.236 3.137.468.691.08 1.931 1.12 2.352.217a.598.598 0 0 0-.345-.761 15.903 15.903 0 0 0-3.247-.931c-1.339-.255-2.735-.213-4.069.066-.644.038-.937.983-.274 1.238ZM159.516 197.797a.601.601 0 0 0 .568-.614c0-.321-.303-.577-.615-.567a.6.6 0 0 0-.568.614c0 .322.303.577.615.567ZM148.93 231.421c-1.201-.109-2.465-.44-3.596-.879-.837-.341-1.552-.719-2.262-1.319-.303-.265-.615-.61-1.05-.534-.649.089-.658 1.063-.019 1.167 1.59 1.484 3.7 2.184 5.792 2.614.804.142 1.538.133 2.371.213.321.024.619-.184.657-.515.019-.965-1.263-.629-1.893-.747ZM152.726 231.303a.594.594 0 0 0-.582.6.591.591 0 1 0 .582-.6ZM119.431 240.175c-1.05-.61-2.134-1.12-3.042-1.952-.355-.435-1.094-.974-1.467-.246-.123.284.009.657.307.771.989 1.011 2.234 1.697 3.469 2.359.473.264 1.188.931 1.623.274.359-.653-.454-.936-.89-1.21v.004ZM121.632 241.636a.598.598 0 0 0-.592.591c0 .321.27.591.592.591.321 0 .591-.27.591-.591a.597.597 0 0 0-.591-.591ZM163.855 249.251c-.8.312-1.448.889-2.158 1.357-.662.439-1.381.865-2.03 1.323-.657.563.204 1.447.828.865l-.042.029c.459-.322.899-.601 1.391-.903l.024-.014c.009-.005.019-.014.033-.019.781-.473 1.533-1.163 2.399-1.551-.043.019-.076.038-.118.052.724-.241.392-1.328-.332-1.134l.005-.005ZM158.399 252.839c-.321 0-.601.26-.601.581 0 .322.261.596.582.601.322 0 .601-.26.601-.582a.6.6 0 0 0-.582-.6ZM135.383 262.151c-1.68.175-3.346.133-5.026.237a.599.599 0 0 0-.359.756c.128.364.506.43.837.359 1.529.09 3.105-.085 4.638-.175.771-.066.676-1.229-.09-1.177ZM128.682 262.506c-.307-.019-.624.236-.624.558 0 .321.222.605.558.624.308.018.625-.237.625-.558 0-.322-.223-.605-.559-.624ZM138.662 295.623c-1.102.771-2.475 1.253-3.819 1.428-.78.156-1.59.099-2.375.17-.152.043-.265.17-.336.303-.511 1.489 2.782.633 3.563.581 1.245-.265 2.47-.7 3.516-1.437.686-.369.137-1.399-.549-1.045ZM140.257 294.257c-.308-.019-.625.236-.625.558 0 .321.222.605.558.624.308.019.625-.236.625-.558 0-.321-.222-.605-.558-.624ZM184.141 299.102c.256.005.616-.037.899-.071 2.054-.193 3.904-.33 4.032-2.836.133-.756-1.017-.978-1.164-.217-.038.359-.071.657-.213 1.007-.066.123-.113.274-.236.354-.971.449-2.087.463-3.133.586-.521-.047-1.349.204-1.126.88.142.406.591.444.941.307v-.01ZM188.556 294.593c.308.019.625-.237.625-.558 0-.321-.222-.605-.558-.624-.308-.019-.625.236-.625.558 0 .321.222.605.558.624Z"/></g><defs><clipPath id="a"><path fill="#fff" d="M0 0h303v302H0z"/></clipPath></defs></svg>