<svg xmlns="http://www.w3.org/2000/svg" width="262" height="214" fill="none"><g clip-path="url(#a)"><path fill="#A4D357" d="M173.094 116.62c1.185.588 2.441.955 3.669 1.43.397.193 1.166.344 1.511.697.246.08.486.155.727.24 1.837.606 3.65 1.312 5.185 2.521.259.254.812.579 1.208.941 1.521-2.536 3.301-4.907 5.525-6.873.406-.362.831-.696 1.265-1.016-.514-.997-.845-2.079-1.208-3.138-.699-2.216-1.526-4.394-2.248-6.605a2.62 2.62 0 0 1-.161-.466.565.565 0 0 1-.08-.286 47.298 47.298 0 0 1-.51-1.741c-1.336-3.862-2.734-7.692-4.297-11.47-1.714-3.316-3.371-6.66-5.236-9.902-2.536-4.615-5.227-9.31-8.556-13.384-1.242-1.529-2.757-2.959-3.867-4.572-2.937-3.237-6.558-5.796-10.298-8.03-2.621-1.285-5.369-2.583-8.055-3.689-6.209-2.37-13.037-2.902-19.614-2.343-14.435 1.896-24.841 10.585-33.25 21.885-2.097 2.983-4.1 6.026-6.2 9.004-2.994 4.949-5.964 9.893-8.566 15.04-2.724 5.429-5.08 11.027-7.413 16.625-.69 1.519-1.128 3.128-1.728 4.681-.175.437-.364.87-.562 1.298a.57.57 0 0 1-.189.217c1.332.898 2.611 1.877 3.787 2.963 2.342-2.164 5.265-3.744 8.254-4.873.174-.08.349-.16.529-.226.037-.01.075-.01.108-.014.052-.019.104-.043.156-.057.458-.103.92-.197 1.388-.287a.676.676 0 0 1 .24-.056c.34-.118.671-.24.945-.325 6.19-2.074 11.899-6.473 14.501-12.537.089-.212.174-.437.283-.644 3.027-7.41 6.776-14.55 11.729-20.855 5.364-6.501 13.971-10.217 22.404-9.625 4.307.71 8.33 2.79 11.885 5.25 2.304 1.84 4.335 4.13 6.171 6.394 3.088 3.49 5.449 7.456 7.508 11.61 1.662 3.51 3.267 7.094 4.302 10.839.118.169.188.399.259.597 1.681 5.283 3.622 8.035 8.513 10.768l-.014.014Zm7.144-28.17a.593.593 0 0 1-.595.584.595.595 0 0 1-.585-.593c0-.324.274-.583.595-.583.321 0 .59.278.585.593Zm-3.711-7.385c1.029 1.553 1.865 3.227 2.734 4.874.363.672-.652 1.237-1.034.569-.803-1.552-1.624-3.1-2.545-4.591-1.02-.72.123-1.802.84-.852h.005ZM78.825 104.62c-.51 1.105-.897 2.262-1.422 3.363.005.461-.576.739-.94.457-.41-.302-.24-.824-.018-1.191.58-1.406 1.185-2.803 1.738-4.219a.59.59 0 0 1 .764-.334c.808.395.043 1.336-.118 1.924h-.004Zm1.09-4.733c-.297-.856.926-1.275 1.138-.376.298.851-.92 1.275-1.138.376Zm47.161-47.575c-1.827.315-3.801.494-5.486 1.19a.601.601 0 0 1-.831.07c-1.436-1.697 5.26-2.172 6.223-2.431.765-.057.859 1.096.09 1.171h.004Zm2.956-.005c-.321 0-.571-.315-.557-.62.019-.334.302-.556.623-.556s.571.316.557.621c-.019.334-.302.555-.623.555Z"/><path fill="#E2FFB4" d="M83.258 116.625c-.217.075-.43.16-.646.245-3.4 1.811-5.128 6.068-4.07 9.733.06.188.084.414.047.612.09.428.047.766-.236.922-.279.141-.661.037-.794-.259-1.803-5.227-6.77-8.557-11.35-11.215-2.975-1.614-6.04-3.303-9.454-3.75a20.906 20.906 0 0 0-6.889-.164c-3.4.724-6.695 2.135-9.457 4.205l.01-.009c-.232.179-.459.362-.68.55-.204.193-.407.381-.6.584-.156.136-.312.277-.463.414-.822.837-1.573 1.745-2.3 2.662a.31.31 0 0 0-.037.043l-.085.164c-.605 1.101-1.526 1.981-2.111 3.091a18.019 18.019 0 0 1-1.643 2.7.604.604 0 0 1-.817.179c-.264-.169-.359-.55-.18-.814.213-.296.43-.602.633-.912.024-.104.062-.203.109-.297.141-.541.25-1.086.326-1.642.647-3.725-1.304-7.635-4.462-9.606-.147-.075-.312-.127-.449-.207-2.786-.776-5.822-.767-8.764.047-5.146 1.807-9.632 5.429-12.767 9.818-3.159 4.173-4.708 9.399-4.967 14.574.051 3.383 1.218 6.666 2.984 9.527 1.251 1.801 2.89 3.208 4.622 4.525 4.793 3.265 10.79 4.286 16.48 3.585.098-.132.24-.254.363-.381.51-.72 1.204-1.299 1.62-2.094 2.082-3.443.372-9.145-4.165-9.093-.652-.01-1.294.037-1.917.207-.038.019-.08.037-.118.052a.53.53 0 0 1-.199.084c-.642.235-1.161-.743-.453-1.082.01 0 .019-.009.028-.014.133-.099.288-.165.463-.207.92-.423 1.785-.974 2.682-1.439 1.88-.984 3.914-1.609 5.964-2.131 6.45-2.052 12.97-1.186 18.825 2.116 2.134 1.078 4.382 1.929 6.634 2.729 2.744.743 5.657.48 8.39-.165 3.178-.851 6.181-2.38 9.364-3.232a.495.495 0 0 1 .123-.032 17.809 17.809 0 0 1 2.748-.513c4.25-.348 8.886.687 12.154 3.519l.009.009c.061.042.123.085.18.122.24.123.457.363.66.504.071.037.128.094.18.15.16.061.297.193.35.367a.598.598 0 0 1-.388.739c-.6.15-1.067-.405-1.487-.748-.08-.075-.17-.146-.25-.221-.222-.156-.444-.306-.661-.471-1.38-.814-2.933-1.51-4.557-1.406-2.98.075-6.256 1.171-8.079 3.627-1.926 3.453-.019 7.569 2.616 10.053 4.448 1.27 9.052 1.994 13.679 1.665 7.956-.348 14.599-3.848 16.814-11.874 2.177-7.371 1.02-15.434-1.771-22.486-.717-1.52-1.421-3.105-2.611-4.319-2.271-2.065-5.246-3.138-8.154-3.98-3.64-.917-7.428-.075-11.03.621l.004.019ZM4.92 140.561c-.69-.776.213-1.694.85-.889.685.776-.208 1.698-.85.889Zm1.426-10.185c-.373.771-.595 1.66-.817 2.474-.236 1.186-.444 2.451-.297 3.651.075.762-1.082.894-1.176.127-.33-.988.68-8.303 2.28-7.362.435.272.265.776.01 1.11Zm50.102 12.41c-2.686.108-5.198-1.251-7.375-2.696-.741-.277-.297-1.35.392-1.101-.005 0-.01-.004-.019-.009.028.014.062.019.085.033-.023-.009-.047-.019-.07-.024 1.647 1.026 3.422 2.042 5.316 2.531.69.259 2.167-.352 2.271.697-.01.31-.288.592-.609.569h.01Zm2.763-.179c-.321 0-.581-.292-.572-.607a.596.596 0 0 1 .61-.569c.32 0 .58.292.57.607a.596.596 0 0 1-.608.569Zm2.096-24.608c-1.445-.635-2.819-1.247-4.306-1.689-.586.268-1.124-.541-.638-.974.42-.404 1.063-.15 1.535.019 1.322.461 2.616.988 3.89 1.566.7.32.223 1.379-.48 1.073v.005Zm2.229 1.232c-.321 0-.581-.291-.572-.607a.596.596 0 0 1 .61-.569c.32 0 .58.292.57.607a.596.596 0 0 1-.608.569Zm12.838 32.644c.08.31-.075.639-.396.734-.298.089-.657-.085-.737-.396-.43-1.434-.647-2.954-.024-4.37.175-.39.265-1.002.827-.936 1.17.282-.048 1.703-.02 2.456-.136.87.17 1.698.35 2.512Zm.789 2.7a.6.6 0 0 1-.61-.569c-.009-.311.25-.607.572-.607.321 0 .6.244.609.569.01.311-.25.607-.571.607Zm27.027-24.867c.009.31-.25.607-.571.607a.6.6 0 0 1-.609-.57c-.01-.31.25-.606.571-.606.321 0 .6.244.609.569Zm-3.683-8.256c.444.131.751.498.992.875.953 1.458 1.619 3.058 2.153 4.709.217.729-.893 1.072-1.129.338-.415-1.204-.826-2.413-1.492-3.509-.288-.437-.472-1.073-.958-1.312-.713-.287-.288-1.365.434-1.097v-.004Z"/><path fill="#fff" d="M223.565 156.25c-.977-4.521-3.263-7.57-7.512-9.475-2.12-.706-4.599-.936-6.648.075-.827.264-1.455.791-2.026 1.421-.642.536-1.044 1.251-1.407 1.99-.907 1.308-1.577 2.907-1.983 4.399-2.191 6.708 1.279 15.133 8.777 16.173 3.183.518 6.365-1.091 8.268-3.566.487-.583.638-1.406 1.181-1.929 1.241-2.855 2.181-6.031 1.345-9.088h.005Zm-6.79 12.941c-.954.856-2.158 1.237-3.385 1.237a6.65 6.65 0 0 1-2.276-.418c-3.598-1.327-5.171-5.65-4.495-9.211.481-2.564 2.71-4.14 4.976-5.128a2.9 2.9 0 0 0-.028.39c-.175.325-.279.678-.222 1.059.057.4.217.781.453 1.11.18.259.421.494.69.654.335.198.722.296 1.105.358.174.028.344.042.514.042.326 0 .643-.052.959-.179a2.941 2.941 0 0 0 1.171-.828c.274-.324.477-.705.637-1.101.133-.324.241-.654.293-.997.014-.056.024-.113.033-.169 1.672 1.035 2.791 2.794 3.183 4.756.557 3.175-.85 6.68-3.598 8.421l-.01.004Z"/><path fill="#E2FFB4" d="M212.124 100.141c-1.548-4.337-3.102-8.665-4.873-12.918-.901-1.976-1.492-4.079-2.36-6.069-1.19-2.375-1.993-4.925-3.24-7.272-2.091-4.249-4.041-8.638-6.426-12.726-5.123-7.818-10.86-15.411-18.089-21.404-4.259-3.609-9.061-6.309-14.042-8.746-2.503-1.293-5.142-2.29-7.772-3.26-2.711-.955-5.463-1.961-8.32-2.357-2.573-.22-5.09-.649-7.663-.512-1.809.037-3.617-.142-5.388.098-4.561.499-9.245.833-13.669 2.094-2.866.823-5.695 1.769-8.339 3.161-3.796 1.614-7.38 3.66-10.732 6.05-2.097 1.369-3.849 2.921-5.633 4.629-2.475 2.028-4.68 4.342-6.861 6.666-4.486 4.52-8.528 9.48-11.918 14.86-.836 1.196-1.78 2.31-2.64 3.487-1.898 2.686-3.394 5.63-5.17 8.392-1.803 2.884-3.404 5.876-5.212 8.755-1.601 3.209-3.405 6.262-4.963 9.465-1.629 3.317-3.343 6.624-4.91 9.983v.127c.368 3.947 2.766 7.757 6.35 9.554 5.364 2.823 11.02-2.131 13.518-6.633a.55.55 0 0 1 .227-.376c3.716-8.9 8.287-17.383 13.358-25.582 3.159-4.578 6.152-9.282 9.722-13.558 8.249-9.837 18.264-16.705 31.248-18.328 8.179-.626 16.593.489 23.926 4.309 3.385 1.392 6.483 3.302 9.419 5.476 2.357 1.806 4.661 3.782 6.38 6.219 4.627 4.831 8.121 10.57 11.28 16.423 1.898 3.232 3.522 6.605 5.274 9.912 1.676 3.933 3.126 7.95 4.519 11.991.222.743.453 1.477.689 2.211.028.075.061.151.09.226 1.582 2.677 3.829 5.193 6.993 5.871 2.327.546 4.787.536 7.082 1.181a.767.767 0 0 1 .161.098c1.577.17 3.163.48 4.703.941a.692.692 0 0 1 .193 0c.312 0 .619-.084.902-.183 2.951-1.327 3.858-5.128 3.14-8.04v.024c0 .014 0 .033.005.047v.009a15.754 15.754 0 0 0-.114-.673 525.131 525.131 0 0 1-.835-3.622h-.01ZM93.15 48.224c-.986.918-1.912 1.793-2.8 2.78-1.015 1.125-1.855 2.409-2.771 3.604-.614.87-1.473 1.576-1.993 2.512a.603.603 0 0 1-.746.372c-1.388-.645 1.407-2.851 1.79-3.576 1.69-2.39 3.532-4.647 5.746-6.576.58-.494 1.35.367.774.889v-.005Zm3.608-2.799c-.321 0-.604-.216-.623-.55-.02-.306.231-.621.552-.621.321 0 .605.216.623.55.02.306-.231.621-.552.621Zm88.108 6.403c-1.214-1.303-2.352-2.748-3.768-3.834-.633-.372-.123-1.346.543-1.04 1.572 1.082 2.757 2.672 4.07 4.05.529.556-.298 1.37-.841.824h-.004Zm2.625 3.302a.592.592 0 0 1-.59-.588c0-.32.269-.588.59-.588.321 0 .59.263.59.588 0 .32-.269.588-.59.588Z"/><path fill="#A4D357" d="M227.758 142.466c-.935-.301-1.922-.442-2.857-.729a34.26 34.26 0 0 1-3.423-.64c-8.216-1.821-17.027-2.418-25.011.687-1.53.564-3.046 1.232-4.571 1.886-.08.057-.17.108-.259.146-1.441 1.044-3.098 1.614-4.67 2.409-2.229 1.082-4.075 3.081-4.391 5.579.07 2.028.255 4.055.613 6.022 1.677 6.811 4.529 13.332 7.89 19.457 2.29 4.196 4.477 8.58 7.763 12.099.382.419.784.823 1.195 1.209h.07c.421-.037.869-.207 1.233-.414.368-.348.642-.823.802-1.275.553-1.383.458-2.818.704-4.224.331-1.962.907-3.938 2.04-5.589 0 0 0 .01-.005.014.26-.503 1.119-.343 1.105.273.104.362-.123.696-.302.997-2.725 4.427-1.398 10.181 1.043 14.41 1.601 2.098 3.768 3.58 5.879 5.104.283.179.566.348.854.527.794-1.524 1.837-2.874 2.848-4.253 1.818-2.479 3.617-4.949 5.156-7.588 2.729-5.043 5.288-10.19 7.064-15.632 2.54-7.857 3.64-16.188 3.706-24.411.005-.221 0-.447 0-.668-.425-2.573-1.733-4.634-4.471-5.377l-.005-.019Zm-43.105 16.164c-.562-2.296-.751-4.742-.099-7.009a.594.594 0 0 1 .543-.603c.727-.004.727.697.519 1.186-.505 2.018-.297 4.173.189 6.172.161.748-.972 1.007-1.152.254Zm1.195 3.754c-.321 0-.576-.31-.557-.621.018-.334.302-.555.623-.555s.576.31.557.621c-.019.334-.302.555-.623.555Zm36.943-15.67c.321 0 .576.306.566.612-.014.329-.292.564-.614.564-.321 0-.576-.306-.566-.612.014-.329.293-.564.614-.564Zm-9.798 25.333c-8.811-.983-12.73-10.637-9.939-18.38.906-2.667 2.29-5.368 4.5-7.179 3.154-2.098 7.484-1.915 10.628.094 2.059 1.2 3.867 2.875 4.982 4.996.987 2.169 1.827 4.526 1.879 6.93.066 3.222-1.129 6.407-2.8 9.088-2.049 2.955-5.61 4.879-9.25 4.451Zm9.453 9.705c-.321 0-.576-.311-.557-.621.019-.334.302-.555.623-.555s.576.31.557.621c-.019.334-.302.555-.623.555Zm3.083-5.951c-.481 1.256-.85 2.564-1.463 3.768a.607.607 0 0 1-.789.278.591.591 0 0 1-.279-.786c.406-.814.704-1.642 1.001-2.493.218-.645.454-1.247.695-1.835.217-.4.099-1.073.708-1.12 1.209.099.368 1.567.132 2.188h-.005Zm.727-22.082c-.311.028-.623-.217-.637-.537-.194-1.392-.935-2.625-1.752-3.74a.593.593 0 0 1 .156-.818c.77-.433 1.138.71 1.53 1.171.368.692 2.082 3.712.708 3.924h-.005ZM28.779 112.575a5.85 5.85 0 0 1 1.143.804 15.49 15.49 0 0 1 5.085 3.486c.444.433.822.922 1.204 1.407.128.169.288.357.425.555 2.134-2.385 4.547-4.22 7.182-5.476.09-.047.18-.094.255-.141.85-.546 1.62-1.2 2.38-1.863 3.324-2.531 4.584-6.563 6.643-10.016a.712.712 0 0 1 .118-.174c1.558-3.274 3.24-6.496 4.835-9.742 3.3-6.572 6.979-12.947 10.846-19.208 2.002-3.425 4.07-6.934 6.6-9.983 3.457-5.372 7.376-10.448 11.895-14.978 2.347-2.46 4.637-4.973 7.28-7.118 1.781-1.68 3.585-3.321 5.643-4.662 3.046-2.136 6.309-4.206 9.727-5.66 2.947-1.453 5.945-2.775 9.127-3.631 4.104-1.233 8.386-1.807 12.65-2.127 5.331-.72 10.751-.39 16.073.269 11.762 2.756 24.907 9.187 33.515 17.697 3.621 3.312 6.662 7.18 9.599 11.093 1.903 2.437 3.706 4.959 5.317 7.598 1.987 3.467 3.725 7.07 5.415 10.693a79.383 79.383 0 0 1 3.216 7.075c1.468 2.93 2.389 6.083 3.702 9.08 1.511 3.556 2.715 7.211 4.103 10.81.477 1.26.793 2.564 1.072 3.876.019.043.042.075.052.123.085.437.17.879.25 1.321.09.424.175.847.269 1.271.486 2.084 1.129 4.13 1.568 6.228.425 1.618.864 3.227 1.279 4.846.005.018.014.037.019.056.038.113.076.226.109.339.066.353.326.856.354 1.265.113.113.231.226.345.339 1.086 1.101 2.252 2.145 3.347 3.246 1.129-1.618 6.058-4.281 6.913-4.521.491-.23.987-.442 1.487-.644.208-.118.425-.236.642-.254a32.467 32.467 0 0 1 2.347-.786.649.649 0 0 1 .184-.127c.373-.268.85-.466 1.185-.706 1.308-.757 1.828-2.267 2.593-3.486 1.752-2.996 1.501-6.6 1.086-9.898-.01-.573-.605-1.712-.43-2.347-.08-.372-.151-.748-.198-1.134-.161-3.744-1.152-7.367-2.323-10.914-2.201-7.55-5.123-14.851-7.782-22.251-2.62-6.596-4.769-13.45-8.433-19.58-1.827-2.827-3.829-5.589-6.091-8.087-1.379-1.321-2.705-2.817-4.042-4.13-1.128-1.03-2.342-1.971-3.362-3.114-1.666-1.783-3.522-3.256-5.382-4.813-3.518-3.203-7.451-6.153-11.55-8.533a151.23 151.23 0 0 0-7.673-3.604c-2.12-.705-4.089-1.76-6.124-2.672-3.432-1.444-6.752-3.086-10.302-4.173-3.787-1.326-7.692-2.018-11.602-2.799-6.53-1.496-13.244-1.684-19.916-1.444-3.674.056-7.442.23-11.087.607-3.796.847-7.654 1.402-11.337 2.69a60.48 60.48 0 0 0-15.369 6.526c-3.919 2.658-7.857 5.306-11.597 8.204-9.098 6.464-17.782 13.727-24.765 22.454-2.857 3.533-5.515 7.207-7.88 11.078-1.488 2.056-2.886 4.169-4.146 6.37-1.455 2.404-2.98 4.761-4.099 7.344-2.81 5.094-5.491 10.283-7.673 15.684-1.024 2.14-2.19 4.206-2.856 6.501a122.217 122.217 0 0 0-3.442 9.24l-.118.287a.758.758 0 0 1-.076.183c-.01.023-.019.052-.033.075-.76 3.115-2.04 6.201-1.776 9.456 0 1.877.671 3.693 2.37 4.62h.015Zm203.838-27.69c.014.306-.241.616-.562.616-.321 0-.6-.226-.619-.56-.014-.305.241-.616.562-.616.321 0 .6.226.619.56Zm-4.628-11.239c1.091-.583 1.252 1.694 1.667 2.334.68 1.881 1.341 3.777 1.969 5.678.236.724-.864 1.1-1.119.371-.689-2.037-1.374-4.102-2.139-6.11-.236-.462-.321-.998-.548-1.459-.189-.259-.089-.644.17-.814Zm-62.879-65.7c.321 0 .604.216.623.55.019.306-.231.621-.552.621-.321 0-.605-.216-.624-.55-.018-.306.232-.621.553-.621Zm-10.888-2.889c2.611.583 5.316.908 7.814 1.891.727.259.354 1.355-.378 1.115-1.463-.644-3.045-.865-4.594-1.218-1.223-.221-2.441-.63-3.688-.659a.597.597 0 0 1-.623-.555c-.009-.786.935-.644 1.469-.574ZM61.298 41.704c.32 0 .604.216.623.55.019.306-.231.621-.553.621-.32 0-.604-.216-.623-.55-.019-.306.232-.621.553-.621Zm-7.612 9.564a47.21 47.21 0 0 0 1.52-2.216c.803-1.425 1.766-2.747 2.772-4.027a.6.6 0 0 1 .817-.17c.264.175.354.556.17.815-.684.978-1.516 1.844-2.082 2.898-.708 1.256-1.573 2.413-2.38 3.608.005.475-.623.743-.973.418a.603.603 0 0 1-.198-.489c0-.315.184-.593.359-.842l-.005.005Zm-5.5 53.662c.32 0 .604.216.623.55.019.306-.232.621-.553.621-.32 0-.604-.216-.623-.55-.019-.306.231-.621.552-.621Zm-6.894 6.332c1.374-.771 2.81-1.477 3.904-2.634.525-.377.954-1.59 1.72-1.045.783.711-1.172 2.056-1.644 2.574-1.327 1.138-2.975 1.806-4.448 2.728-.651.217-1.275 1.435-1.964.781-.737-.95 1.808-1.966 2.432-2.404Z"/><path fill="#E2FFB4" d="M239.293 106.196v.057h.014c0-.019-.009-.038-.009-.057h-.005Z"/><path fill="#A4D357" d="M68.158 144.315a.846.846 0 0 1-.444-.038c-3.513 1.284-7.044 2.442-10.86 1.952-4.372-.621-8.296-2.944-12.252-4.774-3.027-1.228-6.351-1.708-9.61-1.473a.414.414 0 0 1-.131.024c-2.796.164-5.463 2.328-6.077 5.047a7.738 7.738 0 0 0-.062 1.143c0 .024 0 .048-.004.071 1.714 6.257 5.24 11.949 8.527 17.5 1.1 1.741 2.106 3.538 3.419 5.133a.553.553 0 0 1 .037.574c-.004.023 0 .047-.014.07a.6.6 0 0 1-.699.381c-5.496-.564-10.6 2.112-15.147 4.883-8.386 5.236-13.438 13.558-15.728 22.995-1.015 3.467-1.922 10.011-4.948 12.118 1.42.057 2.828.301 4.25.358 1.043-.019 2.077-.188 3.116-.254 4.192-.118 8.281-1.124 12.14-2.7 8.54-3.651 15.86-10.021 21.355-17.416 1.814-2.371 3.334-4.958 4.434-7.72a.593.593 0 0 1 .543-.39c.416-.066.827.372.642.875-.203 3.608.227 7.372 1.69 10.674a31.203 31.203 0 0 0 2.06 3.575c3.366 3.806 7.71 6.775 12.465 8.492 5.028 1.881 10.51 1.773 15.68 3.095 1.214.325 2.456.668 3.537 1.322 1.162.692 2.007 1.774 2.923 2.733.468-1.769 1.204-3.542 1.251-5.372.241-5.015-.727-10.091-2.97-14.56-3.3-7.005-8.055-13.379-14.104-18.248a38.962 38.962 0 0 0-6.577-4.432c-.873-.315-1.586-.997-2.488-1.213a.595.595 0 0 1-.345-.25c-.864-.47.78-2.258 1.02-2.921 1.001-1.774 1.983-3.552 2.842-5.396 1.634-3.312 2.796-6.826 3.622-10.42.123-1.021.156-2.07-.288-2.997-.5-1.143-1.478-2.366-2.79-2.446l-.015.005Zm-31.621 12.988a.595.595 0 0 1-.808-.211c-1.076-1.99-2.318-3.905-3.23-5.984-.594-.485.119-1.393.728-.927.642.706.855 1.731 1.398 2.526.66 1.289 1.444 2.517 2.124 3.792.17.273.057.649-.212.804Zm1.497 2.72a.596.596 0 0 1-.59-.589c0-.319.268-.588.59-.588.32 0 .59.269.59.588 0 .32-.27.589-.59.589ZM10.76 201.077a.599.599 0 0 1-.604-.574.592.592 0 0 1 .575-.602c.322 0 .596.249.605.574a.593.593 0 0 1-.576.602Zm4.32-11.45c-1.048 1.853-1.577 4.003-2.195 6.003-.34.611-.048 2.098-.987 2.06-.307-.033-.571-.329-.524-.649.18-1.449.765-2.78 1.081-4.178.614-1.745 1.209-3.598 2.488-4.991.33-.781 1.322-.626 1.223.212-.245.635-.76.964-1.086 1.533v.01Zm40.517 5.081c-.656-1.073-1.402-2.108-1.794-3.312-.448-1.421-.736-2.912-1.006-4.347.062-.541.827-.682 1.105-.221.284.461.218 1.035.34 1.548.364 2.088 1.124 4.022 2.37 5.744.383.658-.618 1.251-1.02.592l.005-.004Zm2.791 3.227a.595.595 0 0 1-.59-.588c0-.32.269-.588.59-.588.321 0 .59.268.59.588 0 .32-.269.588-.59.588Z"/><path fill="#E2FFB4" d="M253.897 118.272c-2.12-1.275-4.419-2.273-6.78-2.851-2.007-.358-4.113-.598-6.129-.569-2.804.216-5.623.644-8.319 1.453-.85.311-1.696.64-2.536.979-3.098 1.717-5.118 5.278-4.613 8.806.023.231.047.518-.01.753.185.503.194.945-.212 1.143a.6.6 0 0 1-.803-.4c-.222-.673-.566-1.289-.963-1.877-1.596-2.653-4.065-4.62-6.228-6.793-4.245-4.427-10.614-6.384-16.649-6.271-4.15.184-7.98 2.442-10.652 5.528-1.761 1.783-3.074 3.918-4.292 6.097-.685 1.524-1.124 3.142-1.785 4.676-.255.635-.562 1.251-.722 1.919-.048.296-.1.574-.137.814-.048.277-.019.607-.189.833-.142.461-.397.79-.916.653-.68-.319-.161-1.058-.085-1.585.033-.353.104-.696.193-1.03.095-.475.203-.946.307-1.426.619-2.446-.174-5-1.501-7.056-.572-.748-1.209-1.369-2.026-1.825a.704.704 0 0 1-.175-.146c-8.437-2.95-17.39-2.047-23.094 5.927-1.265 1.699-1.803 3.891-2.205 5.918-.552 4.916 1.577 9.818 4.401 13.728 2.876 3.843 6.36 7.447 10.855 9.314 2.673 1.115 5.567 1.741 8.457 2.014.123-.085.255-.165.392-.231 1.459-1.035 2.611-2.423 3.178-4.135.646-1.684-.51-3.392-1.762-4.441-1.671-1.515-3.876-2.22-5.713-3.495-1.223-.753-2.172-1.84-3.201-2.828a3.062 3.062 0 0 1-.298-.272c-.08-.057-.156-.118-.236-.174-.562-.48.099-1.365.723-.927.136.066.264.169.382.287 1.195.922 2.29 2.089 3.612 2.766 2.479 1.209 5.317 1.698 8.027 1.632 3.754-.023 7.12-1.83 10.539-3.133 7.668-3.688 16.403-4.427 24.723-2.912 2.493.395 4.986 1.049 7.479 1.43.062 0 .123.01.189.029.165.023.331.051.496.07 5.373.579 10.817-.296 15.025-3.848.571-.508 1.18-1.002 1.69-1.557 0 0 0-.005.005-.01-.033-.823 1.223-.785 1.218.015 0 .014-.01.028-.014.047 0 .24-.095.447-.241.639-.383.763-1.048 1.412-1.634 2.009-2.545 2.559-6.709 4.093-7.474 7.96-.133 1.35.108 2.827.802 3.999.482.752 1.237 1.293 1.898 1.853.213.207.543.32.803.48 10.525-.442 21.862-7.075 23.071-18.022.179-2.912-.336-5.923-1.039-8.722-1.029-2.959-3.23-5.532-5.836-7.24l.004.005Zm-97.707 15.834c.322 0 .586.287.577.602a.59.59 0 0 1-1.181-.028.597.597 0 0 1 .604-.574Zm1.748 9.099c-.586-.758-3.395-6.111-1.776-6.342.335-.033.6.207.652.522.302 1.995 1.199 3.91 2.365 5.495.133.804-.878.955-1.241.325Zm35.871-24.355c-.321 0-.6-.24-.609-.569-.01-.311.25-.607.571-.607.321 0 .599.24.609.569.009.311-.25.607-.571.607Zm7.833-3.236c-1.195-.179-2.3.056-3.414.447-.59.23-1.152.517-1.7.832a.6.6 0 0 1-.812-.183c-.434-.927 1.03-1.167 1.596-1.539 1.431-.611 3.003-.959 4.561-.71 1.077-.038.794 1.43-.231 1.157v-.004Zm55.811 20.746a.595.595 0 0 1-.59-.588c0-.32.269-.588.59-.588.321 0 .59.268.59.588 0 .32-.269.588-.59.588Zm.614-2.922c-.302-.042-.567-.348-.505-.663.354-2.465-.336-5.038-1.37-7.245-.897-.616.265-1.623.893-.795.845 1.586 1.445 3.364 1.619 5.156.057.776.59 3.618-.637 3.547Z"/><path fill="#000" d="M252.594 116.216c-3.348-1.731-7.134-2.55-10.912-2.526.236-1.049-.439-3.355-.585-4.46-.647-2.95-.964-6.04-1.998-8.896-.741-2.32-.746-4.742-1.09-7.146-.798-3.401-1.813-6.741-2.904-10.062-.874-2.832-1.728-5.664-2.862-8.407-1.926-5.283-3.838-10.57-5.902-15.802a70.494 70.494 0 0 0-3.381-8.44c-3.333-8.27-9.287-15.204-15.95-21.018-2.653-2.917-5.812-5.288-8.73-7.922a90.183 90.183 0 0 0-7.758-5.636c-4.037-2.442-8.466-4.159-12.796-5.989-4.622-2.187-9.292-4.323-14.179-5.857-3.768-1.218-7.682-1.89-11.554-2.667C145.769.028 139.376-.136 133.03.08c-3.928.061-7.895.198-11.795.654-2.417.583-4.877.955-7.304 1.505-2.314.63-4.599 1.37-6.908 2.023-4.08 1.388-8.07 3.058-11.79 5.24-2.796 1.59-5.298 3.628-7.975 5.397-1.776 1.138-3.41 2.474-5.095 3.74-8.613 6.139-16.819 12.998-23.585 21.15-3.433 4.102-6.526 8.468-9.359 13.003-2.04 2.681-3.617 5.66-5.406 8.51-.595.946-1.157 1.906-1.639 2.922-.812 1.867-1.874 3.598-2.842 5.386-1.317 2.635-2.616 5.288-3.92 7.932a124.623 124.623 0 0 1-3.8 8.317c-.869 2.587-1.97 5.085-2.918 7.644a119.654 119.654 0 0 1-3.046 8.082c-.784 2.033-1.733 4.107-2.464 6.22-.6 1.331-.572 2.911-1.365 4.144a.622.622 0 0 0-.113.263 18.28 18.28 0 0 0-8.905 3.486c-5.294 3.496-9.628 8.788-11.45 14.894-.903 3.058-1.63 6.295-1.257 9.494 1.228 10.363 10.067 16.639 20.096 17.227 3.017.014 6.086-.085 8.995-.95.491-.137.987-.278 1.492-.363a4.17 4.17 0 0 0 .68-.122c.812 1.538 1.7 3.039 2.545 4.559 1.624 2.752 3.225 5.645 5.128 8.251-4.6-.146-9.028 1.712-12.924 4.017-4.707 2.602-8.844 6.243-11.946 10.637-3.092 4.389-5 9.465-6.313 14.635-.514 2.065-.953 4.027-1.638 6.073-.553 1.576-.996 3.298-2.224 4.512-.486.626-2.181.983-1.827 1.947.141.297.472.414.774.466 1.808.179 3.622.348 5.44.485 5.023-.25 10.061-.734 14.77-2.663 9.797-3.834 17.942-11.22 23.962-19.706.283-.419.552-.847.812-1.285.227.885.534 1.75.855 2.607 1.072 2.639 2.7 4.986 4.59 7.108.051.07.094.15.146.221.07.099.15.165.24.202.803.87 1.644 1.698 2.508 2.498 3.768 3.463 8.494 5.824 13.447 7.075 5.08 1.21 10.501 1.017 15.355 3.101 1.558.715 2.356 2.361 3.75 3.264.769.438 1.218-.334 1.312-.992.165-.649.364-1.284.567-1.924.883-2.446.83-5.081.68-7.64-.284-5.358-2.357-10.359-5.01-14.993-4.91-8.707-12.352-16.343-21.517-20.525.335-.593.684-1.181 1.015-1.773 1.785-3.11 3.4-6.328 4.66-9.687.02.005.038.019.057.024 4.788 1.661 9.665 3.175 14.76 3.477 15.865.945 24.35-6.624 23.708-22.675-.331-5.796-1.889-13.761-5.926-18.145-1.582-1.43-3.513-2.409-5.5-3.152a18.827 18.827 0 0 0-.978-.376c.788-2.282 1.464-4.606 2.332-6.859 3.48-10.12 8.051-20.116 15.053-28.325 5.171-5.447 12.801-8.5 20.337-7.978 4.009.7 7.862 2.672 11.205 4.981 2.261 1.807 4.183 3.98 6.001 6.215 3.867 4.356 6.601 9.578 8.99 14.86 1.015 2.32 1.837 4.724 2.668 7.114.009.052.024.103.033.155 0 .014 0 .033.005.047 0 .014.009.024.009.038.331 1.59.666 3.175 1.039 4.761.467 2.192.949 4.375 1.412 6.567.075.221.104.494.212.705-2.12.433-4.164 1.233-6.015 2.489-2.588 1.609-4.746 3.923-6.238 6.567-.996 2.315-1.723 4.822-1.615 7.367.388 5.024 2.649 9.776 5.874 13.61 1.96 2.366 4.066 4.69 6.686 6.341 4.911 3.312 10.974 4.197 16.786 4.229.222.01.444-.032.666-.009h.014c.486 2.178 1.242 4.309 1.95 6.407 1.643 4.634 3.787 9.066 6.148 13.375 3.952 7.611 7.947 14.296 16.044 18.102a.565.565 0 0 0 .288.113c1.932 2.155 4.387 3.815 6.823 5.363.43.31.883-.033.935-.428.227-.292.378-.739.562-1.016 1.643-2.719 3.777-5.109 5.473-7.805 1.312-1.858 2.549-3.9 3.517-5.974 2.286-4.22 4.302-8.699 5.803-13.271 2.083-6.455 3.206-13.215 3.594-19.994.103.014.207.019.302.029 1.072.094 2.148.136 3.22.192 10.789-.061 23.014-6.67 25.025-17.97.538-3.128-.108-6.28-.656-9.357-1.114-4.375-4.486-8.03-8.542-9.926h.019Zm-13.306-10.02s.01.037.01.056h-.014v-.056h.004ZM28.179 98.499c.01-.023.02-.051.033-.075a.605.605 0 0 0 .076-.183l.118-.287a122.277 122.277 0 0 1 3.442-9.24c.67-2.295 1.832-4.356 2.857-6.501 2.181-5.396 4.863-10.59 7.672-15.684 1.12-2.583 2.645-4.944 4.099-7.344 1.26-2.201 2.658-4.314 4.146-6.37 2.365-3.876 5.023-7.55 7.88-11.078 6.984-8.727 15.667-15.99 24.766-22.454 3.74-2.902 7.677-5.551 11.596-8.204a60.81 60.81 0 0 1 15.37-6.525c3.683-1.29 7.54-1.844 11.336-2.691 3.641-.376 7.409-.55 11.087-.607 6.672-.235 13.386-.047 19.916 1.444 3.91.781 7.815 1.473 11.602 2.8 3.551 1.086 6.87 2.723 10.303 4.172 2.03.913 3.999 1.971 6.124 2.672a145.836 145.836 0 0 1 7.673 3.604c4.103 2.38 8.031 5.33 11.549 8.533 1.86 1.557 3.716 3.03 5.383 4.813 1.02 1.148 2.228 2.089 3.362 3.114 1.336 1.317 2.663 2.809 4.041 4.13 2.262 2.494 4.264 5.26 6.091 8.087 3.669 6.125 5.813 12.984 8.433 19.58 2.659 7.4 5.582 14.696 7.782 22.251 1.171 3.547 2.162 7.17 2.323 10.914.047.381.118.758.198 1.134-.174.635.421 1.774.43 2.348.42 3.297.666 6.901-1.086 9.897-.765 1.219-1.289 2.729-2.592 3.486-.335.245-.812.438-1.185.706a.64.64 0 0 0-.185.127c-.788.231-1.572.489-2.346.786-.222.014-.439.131-.642.254a31.66 31.66 0 0 0-1.488.644c-.854.24-5.784 2.903-6.912 4.521-1.101-1.101-2.267-2.145-3.348-3.246-.113-.118-.231-.226-.345-.339-.028-.414-.288-.912-.354-1.265-.033-.113-.071-.226-.109-.339-.004-.019-.014-.037-.018-.056-.416-1.619-.855-3.227-1.28-4.846-.439-2.098-1.081-4.144-1.568-6.228a65.341 65.341 0 0 1-.269-1.27c-.08-.443-.165-.885-.25-1.322-.009-.047-.033-.08-.052-.123-.283-1.312-.6-2.615-1.072-3.876-1.388-3.599-2.592-7.259-4.103-10.81-1.308-2.997-2.233-6.15-3.702-9.08a77.977 77.977 0 0 0-3.215-7.075c-1.691-3.623-3.428-7.221-5.416-10.693-1.61-2.64-3.419-5.16-5.317-7.598-2.937-3.914-5.978-7.78-9.599-11.093-8.608-8.51-21.753-14.94-33.515-17.697-5.321-.659-10.742-.993-16.073-.268-4.264.315-8.546.893-12.649 2.126-3.183.856-6.181 2.178-9.128 3.632-3.418 1.453-6.681 3.523-9.726 5.659-2.064 1.336-3.867 2.983-5.643 4.662-2.644 2.145-4.93 4.657-7.28 7.118-4.52 4.53-8.443 9.606-11.895 14.978-2.53 3.044-4.599 6.558-6.6 9.983-3.863 6.261-7.541 12.636-10.847 19.208-1.596 3.25-3.276 6.468-4.835 9.742-.042.052-.085.104-.118.174-2.058 3.453-3.32 7.485-6.643 10.016-.76.663-1.53 1.317-2.38 1.863-.075.042-.165.089-.255.141-2.635 1.256-5.047 3.091-7.182 5.476-.137-.198-.302-.386-.425-.555-.382-.485-.765-.974-1.204-1.407a15.538 15.538 0 0 0-5.085-3.486 5.993 5.993 0 0 0-1.143-.804c-1.7-.932-2.37-2.743-2.37-4.62-.27-3.251 1.015-6.341 1.775-9.456h-.014Zm184.894 5.923s0-.033-.005-.047v-.023c.713 2.912-.188 6.713-3.14 8.039-.283.099-.59.188-.901.184a.63.63 0 0 0-.194 0 26.156 26.156 0 0 0-4.703-.941.542.542 0 0 0-.16-.099c-2.295-.644-4.755-.635-7.083-1.181-3.164-.677-5.411-3.194-6.993-5.871a4.614 4.614 0 0 0-.09-.226c-.231-.733-.467-1.472-.689-2.211-1.388-4.04-2.842-8.058-4.519-11.99-1.751-3.308-3.376-6.681-5.274-9.913-3.159-5.857-6.653-11.596-11.28-16.423-1.719-2.437-4.023-4.408-6.379-6.219-2.932-2.173-6.035-4.083-9.42-5.476-7.333-3.82-15.747-4.94-23.925-4.309-12.99 1.618-23 8.491-31.249 18.328-3.57 4.276-6.563 8.98-9.722 13.558-5.07 8.195-9.641 16.682-13.357 25.582a.55.55 0 0 0-.227.377c-2.503 4.506-8.155 9.455-13.519 6.633-3.583-1.797-5.982-5.608-6.35-9.555v-.127c1.572-3.359 3.281-6.666 4.91-9.983 1.559-3.203 3.362-6.256 4.963-9.465 1.808-2.874 3.409-5.87 5.213-8.754 1.775-2.762 3.272-5.707 5.17-8.393.86-1.176 1.804-2.29 2.64-3.486 3.39-5.386 7.431-10.34 11.917-14.86 2.182-2.32 4.387-4.64 6.86-6.667 1.786-1.703 3.538-3.255 5.634-4.629 3.352-2.39 6.936-4.436 10.732-6.05 2.645-1.392 5.478-2.338 8.339-3.16 4.424-1.257 9.108-1.596 13.669-2.094 1.771-.24 3.584-.061 5.388-.1 2.573-.136 5.09.288 7.663.514 2.862.395 5.61 1.401 8.32 2.356 2.63.97 5.27 1.972 7.772 3.26 4.981 2.437 9.784 5.133 14.043 8.746 7.229 5.998 12.965 13.586 18.089 21.405 2.384 4.088 4.334 8.477 6.426 12.725 1.246 2.347 2.049 4.897 3.239 7.273.869 1.99 1.459 4.093 2.361 6.068 1.77 4.258 3.324 8.586 4.873 12.918.273 1.205.552 2.414.835 3.623.043.221.085.447.114.673v-.01h.009ZM71.237 149.758c-.827 3.594-1.988 7.103-3.622 10.42-.86 1.844-1.846 3.622-2.842 5.396-.236.663-1.88 2.451-1.02 2.921.07.108.18.202.344.249.902.217 1.615.899 2.489 1.214a38.667 38.667 0 0 1 6.577 4.432c6.049 4.869 10.808 11.243 14.104 18.248 2.248 4.469 3.21 9.545 2.97 14.56-.042 1.825-.784 3.603-1.251 5.372-.921-.96-1.761-2.042-2.923-2.733-1.081-.654-2.318-1.002-3.537-1.322-5.17-1.322-10.652-1.209-15.68-3.096-4.755-1.712-9.095-4.685-12.466-8.491a31.232 31.232 0 0 1-2.059-3.575c-1.463-3.303-1.888-7.066-1.69-10.674.184-.504-.227-.937-.642-.875a.592.592 0 0 0-.543.39c-1.096 2.762-2.62 5.344-4.434 7.72-5.496 7.39-12.815 13.765-21.356 17.415-3.858 1.576-7.947 2.583-12.14 2.701-1.039.065-2.073.235-3.116.254-1.421-.057-2.829-.301-4.25-.358 3.027-2.107 3.933-8.651 4.949-12.118 2.29-9.437 7.342-17.754 15.728-22.995 4.547-2.771 9.646-5.448 15.147-4.883.283.07.6-.094.699-.381.01-.024.005-.047.014-.071a.553.553 0 0 0-.038-.574c-1.312-1.594-2.318-3.391-3.418-5.132-3.287-5.556-6.814-11.243-8.528-17.5 0-.024.005-.047.005-.071 0-.381 0-.767.061-1.143.61-2.719 3.282-4.883 6.077-5.048.048 0 .09-.009.133-.023 3.258-.235 6.582.249 9.608 1.472 3.957 1.83 7.88 4.154 12.253 4.775 3.815.485 7.352-.668 10.86-1.952.123.047.27.066.444.038 1.317.079 2.29 1.303 2.79 2.446.444.922.411 1.971.289 2.996l.014-.004Zm31.196-29.774c1.19 1.214 1.894 2.799 2.611 4.319 2.791 7.051 3.948 15.115 1.771 22.486-2.214 8.026-8.858 11.526-16.814 11.874-4.627.329-9.231-.395-13.679-1.665-2.635-2.484-4.547-6.6-2.616-10.053 1.823-2.451 5.1-3.552 8.08-3.628 1.623-.108 3.177.589 4.556 1.407.217.165.439.32.66.471.086.075.175.145.25.221.421.343.884.898 1.488.748a.596.596 0 0 0 .387-.739.587.587 0 0 0-.349-.367.603.603 0 0 0-.18-.15c-.203-.142-.424-.386-.66-.504a21.754 21.754 0 0 0-.18-.122l-.01-.01c-3.267-2.832-7.904-3.866-12.153-3.518-.935.094-1.851.277-2.748.512a.546.546 0 0 0-.123.033c-3.178.852-6.18 2.381-9.363 3.232-2.73.64-5.643.908-8.39.165-2.253-.8-4.496-1.651-6.635-2.729-5.855-3.297-12.38-4.163-18.825-2.117-2.05.523-4.085 1.148-5.964 2.131-.902.466-1.761 1.017-2.682 1.44-.17.042-.33.108-.462.207-.01 0-.02.009-.029.014-.708.334-.189 1.317.453 1.082a.549.549 0 0 0 .199-.085c.038-.018.08-.037.118-.051.628-.17 1.265-.221 1.917-.207 4.537-.052 6.247 5.645 4.164 9.093-.415.795-1.11 1.374-1.62 2.094-.122.131-.264.249-.363.381-5.685.701-11.686-.32-16.479-3.585-1.733-1.317-3.37-2.724-4.622-4.526-1.761-2.86-2.932-6.143-2.984-9.526.26-5.179 1.808-10.406 4.967-14.574 3.135-4.389 7.616-8.011 12.768-9.818 2.946-.818 5.977-.823 8.763-.047.137.085.307.132.449.207 3.163 1.971 5.108 5.881 4.462 9.606a13.859 13.859 0 0 1-.326 1.642c-.047.094-.08.193-.109.297-.203.31-.42.616-.632.912-.185.264-.085.645.179.814a.6.6 0 0 0 .817-.179 18.538 18.538 0 0 0 1.643-2.7c.586-1.11 1.506-1.99 2.11-3.091.024-.056.057-.108.086-.164l.037-.043c.732-.922 1.483-1.825 2.3-2.662.156-.137.312-.273.463-.414.193-.203.396-.396.6-.584.221-.188.443-.376.68-.55l-.01.009c2.762-2.07 6.053-3.481 9.457-4.205a20.771 20.771 0 0 1 6.89.164c3.413.442 6.478 2.131 9.452 3.75 4.58 2.658 9.552 5.988 11.351 11.215.133.291.52.4.794.258.283-.155.326-.494.236-.922a1.278 1.278 0 0 0-.047-.611c-1.063-3.665.67-7.922 4.07-9.733.217-.08.43-.17.647-.245 3.602-.692 7.39-1.534 11.03-.621 2.908.842 5.883 1.915 8.154 3.98l-.005-.019Zm62.143-14.132c-.066-.197-.137-.428-.26-.597-1.034-3.745-2.644-7.325-4.301-10.839-2.059-4.154-4.42-8.12-7.508-11.61-1.841-2.268-3.867-4.559-6.171-6.394-3.555-2.465-7.578-4.54-11.885-5.25-8.433-.588-17.04 3.124-22.404 9.625-4.953 6.3-8.702 13.445-11.729 20.855-.104.207-.189.433-.283.644-2.602 6.064-8.31 10.463-14.5 12.537-.27.085-.605.207-.945.325a.698.698 0 0 0-.241.056 29.77 29.77 0 0 0-1.388.287l-.156.057c-.038 0-.07 0-.109.014-.179.066-.354.146-.528.226-2.99 1.129-5.912 2.709-8.254 4.873-1.176-1.086-2.455-2.065-3.787-2.963a.56.56 0 0 0 .189-.217c.198-.428.387-.861.562-1.298.6-1.553 1.039-3.161 1.728-4.681 2.333-5.603 4.689-11.201 7.413-16.625 2.607-5.146 5.572-10.09 8.565-15.04 2.106-2.978 4.104-6.021 6.2-9.004 8.409-11.3 18.816-19.989 33.251-21.884 6.577-.56 13.405-.029 19.614 2.342 2.686 1.106 5.43 2.4 8.055 3.689 3.74 2.234 7.366 4.793 10.298 8.03 1.11 1.614 2.625 3.044 3.867 4.572 3.329 4.08 6.02 8.77 8.556 13.384 1.86 3.242 3.518 6.586 5.236 9.903 1.563 3.778 2.966 7.607 4.297 11.469.156.583.331 1.162.51 1.741 0 .094.024.188.08.287.029.141.085.296.161.465.718 2.211 1.544 4.39 2.247 6.605.364 1.059.699 2.141 1.209 3.138-.434.32-.859.654-1.265 1.016-2.224 1.967-4.004 4.342-5.525 6.873-.396-.367-.949-.687-1.208-.941-1.535-1.209-3.348-1.91-5.185-2.521-.241-.085-.486-.16-.727-.24-.34-.353-1.11-.499-1.511-.696-1.228-.475-2.488-.842-3.669-1.43-4.891-2.734-6.832-5.486-8.513-10.769l.014-.014Zm67.644 42.664c-.066 8.223-1.171 16.554-3.707 24.411-1.77 5.442-4.334 10.589-7.064 15.632-1.539 2.639-3.333 5.114-5.156 7.588-1.01 1.383-2.054 2.729-2.847 4.253-.283-.174-.571-.348-.854-.527-2.111-1.524-4.278-3.006-5.879-5.104-2.441-4.225-3.768-9.983-1.044-14.41.18-.301.407-.635.303-.997.009-.611-.85-.776-1.105-.273 0 0 0-.009.004-.014-1.133 1.651-1.709 3.627-2.039 5.589-.251 1.406-.156 2.841-.704 4.224-.16.452-.434.927-.803 1.275-.368.207-.812.377-1.232.414h-.071c-.411-.39-.812-.79-1.194-1.209-3.287-3.523-5.473-7.903-7.763-12.099-3.362-6.125-6.209-12.646-7.89-19.457-.359-1.967-.538-3.994-.614-6.022.321-2.493 2.163-4.497 4.391-5.579 1.573-.791 3.23-1.365 4.67-2.409.09-.038.18-.089.26-.146 1.525-.654 3.041-1.322 4.571-1.886 7.984-3.105 16.79-2.508 25.011-.687 1.119.268 2.266.484 3.423.64.935.287 1.922.428 2.857.729 2.738.743 4.046 2.804 4.471 5.377v.668l.005.019Zm28.543-14.283c-1.209 10.943-12.546 17.581-23.071 18.023-.259-.16-.585-.273-.802-.48-.661-.56-1.422-1.096-1.899-1.854-.694-1.171-.934-2.648-.802-3.998.769-3.872 4.929-5.406 7.474-7.96.586-.593 1.252-1.247 1.634-2.009.142-.188.236-.4.241-.64 0-.014.009-.028.014-.047.005-.799-1.251-.837-1.218-.014 0 0 0 .005-.005.01-.515.555-1.124 1.053-1.69 1.557-4.207 3.552-9.652 4.427-15.025 3.848l-.496-.071a.71.71 0 0 0-.189-.028c-2.493-.381-4.986-1.03-7.479-1.43-8.32-1.515-17.055-.781-24.723 2.912-3.423 1.303-6.79 3.11-10.539 3.133-2.71.066-5.548-.423-8.027-1.632-1.327-.678-2.417-1.844-3.612-2.766a1.424 1.424 0 0 0-.382-.287c-.624-.438-1.285.447-.723.926.081.057.156.118.236.174.099.099.203.193.298.273 1.029.988 1.978 2.075 3.201 2.828 1.837 1.279 4.042 1.98 5.713 3.495 1.252 1.054 2.409 2.761 1.762 4.441-.567 1.712-1.719 3.1-3.178 4.135a3.433 3.433 0 0 0-.392.23c-2.89-.272-5.784-.903-8.457-2.013-4.495-1.872-7.979-5.471-10.855-9.315-2.823-3.909-4.953-8.811-4.401-13.727.406-2.027.94-4.22 2.205-5.918 5.709-7.974 14.657-8.877 23.095-5.927a.691.691 0 0 0 .174.145c.817.452 1.455 1.073 2.026 1.826 1.327 2.056 2.12 4.605 1.501 7.056-.104.48-.212.95-.307 1.426-.089.338-.16.677-.193 1.03-.076.527-.595 1.265.085 1.585.519.132.769-.197.916-.654.17-.225.137-.555.189-.832.042-.236.089-.518.137-.814.16-.668.467-1.284.722-1.92.661-1.533 1.105-3.151 1.785-4.676 1.218-2.173 2.531-4.309 4.292-6.096 2.672-3.086 6.502-5.345 10.652-5.528 6.035-.113 12.404 1.844 16.649 6.271 2.163 2.173 4.632 4.14 6.228 6.793.392.588.737 1.204.963 1.877a.6.6 0 0 0 .803.4c.406-.198.397-.64.212-1.143.057-.236.034-.518.01-.753-.505-3.528 1.516-7.094 4.613-8.807a72.376 72.376 0 0 1 2.536-.978c2.696-.809 5.515-1.237 8.319-1.454 2.012-.023 4.122.212 6.129.57 2.356.578 4.656 1.575 6.781 2.85 2.606 1.708 4.806 4.281 5.836 7.24.703 2.799 1.223 5.805 1.038 8.722l-.004-.005Z"/><path fill="#000" d="M225.043 158.503c-.052-2.404-.892-4.761-1.879-6.929-1.115-2.122-2.918-3.792-4.982-4.996-3.144-2.009-7.474-2.193-10.628-.095-2.215 1.812-3.594 4.512-4.5 7.179-2.791 7.744 1.128 17.397 9.939 18.38 3.64.423 7.201-1.496 9.25-4.45 1.671-2.682 2.866-5.867 2.8-9.089Zm-4.004 8.764c-1.903 2.475-5.085 4.084-8.268 3.566-7.498-1.044-10.973-9.465-8.778-16.173.406-1.496 1.072-3.091 1.984-4.399.363-.739.764-1.454 1.407-1.99.571-.63 1.194-1.157 2.025-1.421 2.049-1.011 4.528-.781 6.648-.075 4.255 1.905 6.54 4.949 7.513 9.475.84 3.062-.099 6.233-1.346 9.088-.543.523-.699 1.346-1.18 1.929h-.005Z"/><path fill="#000" d="M217.191 156.014c-.01.057-.019.113-.033.17-.052.343-.166.668-.293.997a4.087 4.087 0 0 1-.638 1.101 2.934 2.934 0 0 1-1.171.828 2.604 2.604 0 0 1-.958.179c-.17 0-.34-.014-.515-.043-.377-.061-.769-.16-1.105-.357a2.23 2.23 0 0 1-.689-.654 2.662 2.662 0 0 1-.453-1.11c-.057-.381.047-.734.222-1.059 0-.132.014-.263.028-.39-2.266.988-4.495 2.568-4.977 5.127-.675 3.562.893 7.885 4.495 9.212a6.56 6.56 0 0 0 2.276.418c1.228 0 2.432-.376 3.386-1.237 2.748-1.741 4.16-5.245 3.598-8.421-.397-1.961-1.511-3.721-3.183-4.756l.01-.005ZM53.536 197.752l-.015-.024.015.024ZM257.085 124.735c-.628-.823-1.79.184-.893.795 1.039 2.207 1.724 4.78 1.37 7.245-.062.315.203.621.505.663 1.227.071.694-2.766.637-3.547-.174-1.792-.774-3.57-1.619-5.156ZM257.453 136.355a.589.589 0 1 0 0-1.176.589.589 0 1 0 0 1.176ZM201.873 114.456c-1.553-.244-3.125.099-4.561.711-.566.371-2.03.616-1.596 1.538.175.282.538.343.812.184.548-.316 1.11-.598 1.7-.833 1.114-.395 2.219-.626 3.414-.447 1.025.273 1.308-1.195.231-1.157v.004ZM193.771 117.674c-.321 0-.581.292-.571.607a.596.596 0 0 0 .609.569c.321 0 .58-.291.571-.607a.596.596 0 0 0-.609-.569ZM156.157 136.863c-1.624.231 1.19 5.584 1.776 6.342.368.63 1.374.479 1.242-.325-1.167-1.585-2.064-3.505-2.366-5.495-.052-.315-.316-.555-.652-.522ZM156.162 135.282a.6.6 0 0 0 .605-.573.593.593 0 0 0-.576-.603.6.6 0 0 0-.605.574.592.592 0 0 0 .576.602ZM225.402 173.609c-.605.047-.491.715-.708 1.119-.241.588-.477 1.19-.695 1.835-.297.856-.59 1.679-1.001 2.493a.591.591 0 0 0 .279.786.6.6 0 0 0 .789-.278c.613-1.204.982-2.512 1.463-3.768.236-.621 1.077-2.089-.132-2.187h.005ZM222.512 180.571c-.321 0-.604.221-.623.555-.019.306.236.621.557.621.321 0 .604-.221.623-.555.019-.306-.236-.621-.557-.621ZM185.805 158.376c-.491-1.999-.694-4.154-.189-6.172.208-.485.208-1.19-.519-1.186a.597.597 0 0 0-.543.603c-.656 2.267-.463 4.713.099 7.009.18.753 1.313.494 1.152-.254ZM185.914 161.208c-.321 0-.605.221-.623.555-.019.306.236.621.557.621.321 0 .604-.221.623-.555.019-.306-.236-.621-.557-.621ZM224.028 148.624a.596.596 0 0 0-.156.818c.817 1.115 1.558 2.348 1.752 3.74.014.32.325.565.637.537 1.379-.207-.335-3.232-.708-3.924-.392-.461-.76-1.604-1.53-1.171h.005ZM222.743 147.89c.322 0 .6-.23.614-.564.014-.311-.241-.612-.566-.612-.326 0-.6.231-.614.565-.014.31.241.611.566.611ZM228.367 75.918c.765 2.01 1.45 4.07 2.139 6.111.255.73 1.355.353 1.119-.371-.628-1.9-1.289-3.792-1.969-5.678-.415-.64-.576-2.912-1.667-2.334-.259.17-.359.555-.17.814.227.461.312.993.548 1.459ZM231.441 84.941c.019.334.297.56.618.56s.576-.31.562-.616c-.019-.334-.297-.56-.618-.56s-.576.31-.562.616ZM153.372 6.186c1.246.024 2.46.438 3.687.659 1.549.353 3.131.574 4.595 1.218.731.245 1.104-.856.377-1.115-2.498-.978-5.203-1.308-7.814-1.89-.534-.071-1.478-.213-1.469.573a.6.6 0 0 0 .624.555ZM165.176 9.122c.321 0 .571-.315.552-.621-.018-.334-.302-.55-.623-.55s-.571.315-.552.62c.019.334.302.55.623.55ZM54.494 52.18c.807-1.19 1.671-2.347 2.38-3.608.566-1.058 1.402-1.924 2.082-2.898.184-.263.094-.64-.17-.813a.6.6 0 0 0-.817.169c-1.01 1.275-1.97 2.601-2.772 4.027a43.895 43.895 0 0 1-1.52 2.215c-.175.25-.36.527-.36.843a.603.603 0 0 0 .2.489c.349.324.981.056.972-.419l.005-.005ZM61.364 42.88c.32 0 .571-.315.552-.621-.019-.334-.302-.55-.623-.55s-.571.315-.553.62c.02.335.303.551.624.551ZM40.82 112.895c1.473-.918 3.12-1.591 4.447-2.729.472-.517 2.427-1.863 1.643-2.573-.764-.546-1.199.668-1.718 1.044-1.096 1.157-2.531 1.863-3.905 2.635-.623.437-3.168 1.453-2.432 2.403.694.659 1.313-.564 1.965-.78ZM48.247 106.111c.32 0 .571-.315.552-.621-.019-.334-.302-.55-.623-.55s-.571.315-.553.62c.02.334.303.551.624.551ZM92.376 47.34c-2.214 1.928-4.06 4.187-5.746 6.576-.383.725-3.173 2.927-1.79 3.576a.595.595 0 0 0 .746-.372c.52-.936 1.374-1.642 1.993-2.512.916-1.195 1.761-2.48 2.772-3.604.887-.983 1.813-1.862 2.8-2.78.576-.517-.194-1.383-.775-.889v.005ZM96.687 44.254c-.321 0-.571.315-.552.62.018.335.302.551.623.551s.571-.315.552-.62c-.019-.335-.302-.551-.623-.551ZM181.641 46.954c-.666-.306-1.176.673-.543 1.04 1.416 1.086 2.554 2.53 3.768 3.834.543.545 1.374-.269.84-.824-1.308-1.378-2.498-2.968-4.07-4.05h.005ZM187.486 53.954a.595.595 0 0 0-.59.588c0 .32.269.588.59.588.321 0 .59-.268.59-.588a.595.595 0 0 0-.59-.588ZM175.682 81.912c.921 1.491 1.742 3.039 2.545 4.591.382.668 1.397.104 1.034-.569-.869-1.647-1.705-3.316-2.734-4.874-.722-.955-1.86.132-.84.852h-.005ZM179.053 88.437c0 .315.26.593.586.593.325 0 .59-.26.595-.584a.596.596 0 0 0-.586-.593.593.593 0 0 0-.595.584ZM126.982 51.136c-.963.259-7.664.734-6.223 2.432a.597.597 0 0 0 .831-.07c1.685-.697 3.654-.875 5.486-1.19.77-.076.675-1.228-.089-1.172h-.005ZM130.093 51.127c-.321 0-.604.22-.623.555-.019.305.236.62.557.62.321 0 .605-.22.624-.554.019-.306-.236-.621-.558-.621ZM78.938 102.696a.592.592 0 0 0-.765.334c-.548 1.42-1.152 2.817-1.737 4.219-.222.363-.392.889.018 1.191.364.282.945.004.94-.457.524-1.096.911-2.258 1.421-3.363.16-.588.926-1.529.118-1.924h.005ZM79.91 99.887c.213.899 1.436.475 1.139-.376-.213-.894-1.436-.475-1.138.376ZM100.073 122.548c.486.24.67.875.958 1.312.661 1.096 1.072 2.305 1.492 3.51.241.734 1.346.39 1.129-.339-.539-1.651-1.2-3.251-2.153-4.709-.241-.372-.548-.743-.992-.875-.722-.268-1.147.809-.434 1.096v.005ZM103.01 129.741a.596.596 0 0 0 .609.569c.321 0 .58-.292.571-.607a.596.596 0 0 0-.609-.569c-.321 0-.581.292-.571.607ZM76.044 146.907c-.567-.066-.652.546-.827.936-.623 1.416-.406 2.935.024 4.37.08.311.44.485.737.395.316-.094.472-.423.396-.733-.18-.81-.486-1.642-.35-2.513-.028-.757 1.195-2.178.02-2.455ZM77.13 153.399c-.321 0-.581.291-.572.607.01.329.288.569.61.569.32 0 .58-.292.57-.607a.596.596 0 0 0-.608-.569ZM61.789 116.926a46.498 46.498 0 0 0-3.891-1.566c-.472-.17-1.114-.424-1.535-.019-.486.433.052 1.237.638.974 1.487.442 2.861 1.053 4.306 1.688.704.306 1.185-.752.482-1.072v-.005ZM63.569 118.055a.6.6 0 0 0-.61.569c-.009.311.25.607.572.607.321 0 .6-.244.61-.569.009-.31-.251-.607-.572-.607ZM54.782 141.52c-1.894-.489-3.67-1.505-5.317-2.531-.694-.249-1.133.828-.392 1.101 2.177 1.444 4.689 2.804 7.375 2.696.317.023.6-.259.61-.569-.104-1.045-1.582-.438-2.272-.697h-.004ZM49.45 138.98l.02.01c.023.009.047.014.07.023-.023-.014-.056-.024-.084-.033h-.005ZM59.244 141.431a.6.6 0 0 0-.61.569c-.009.311.25.607.572.607a.6.6 0 0 0 .609-.569c.01-.311-.25-.607-.571-.607ZM6.337 129.266c-1.601-.941-2.612 6.374-2.281 7.362.094.762 1.251.63 1.176-.127-.147-1.195.061-2.461.297-3.651.222-.814.444-1.698.817-2.474.255-.334.43-.838-.01-1.11ZM4.92 140.561c.637.809 1.535-.113.85-.889-.637-.805-1.535.112-.85.889ZM34.62 152.707c-.543-.795-.756-1.816-1.398-2.526-.609-.466-1.317.447-.727.927.911 2.079 2.148 3.994 3.23 5.984a.6.6 0 0 0 .807.211c.27-.16.383-.531.213-.804-.685-1.28-1.469-2.503-2.125-3.792ZM38.034 160.023a.59.59 0 1 0 .001-1.175.59.59 0 0 0-.001 1.175ZM54.243 188.376c-.122-.513-.061-1.087-.34-1.548-.278-.461-1.043-.32-1.105.221.27 1.435.558 2.926 1.006 4.347.392 1.204 1.138 2.239 1.794 3.312.402.658 1.403.065 1.02-.593-1.246-1.722-2.006-3.655-2.37-5.744l-.005.005ZM58.39 197.939a.589.589 0 1 0 0-1.176.589.589 0 1 0 0 1.176ZM14.949 187.882c-1.275 1.392-1.87 3.246-2.488 4.991-.317 1.397-.902 2.728-1.082 4.177-.051.315.218.612.524.649.94.038.647-1.448.987-2.06.619-1.999 1.148-4.154 2.196-6.003.326-.574.84-.898 1.086-1.533.1-.838-.892-.998-1.223-.212v-.009ZM10.732 199.901a.592.592 0 0 0-.575.602.59.59 0 0 0 1.18-.028.596.596 0 0 0-.604-.574Z"/></g><defs><clipPath id="a"><path fill="#fff" d="M0 0h262v214H0z"/></clipPath></defs></svg>