<svg xmlns="http://www.w3.org/2000/svg" width="231" height="208" fill="none"><g clip-path="url(#a)"><path fill="#4EC5D9" d="M131.88 100.261c4.459 13.263 17.927 22.213 31.79 21.105 17.063-1.07 30.336-16.386 29.115-33.4909-.977-17.2724-16.332-30.7367-33.412-29.4325-20.574 1.3502-34.284 22.3011-27.498 41.8224l.005-.004Zm25.029 18.844c-.424-1.033 1.313-1.731 1.72-.694.424 1.033-1.309 1.731-1.72.694Zm10.726.021c-.329.639-1.151.589-1.758.731-1.114.163-2.236.36-3.362.268-.819-.134-2.427.117-2.323-1.133.071-.451.503-.761.952-.694 1.874.343 3.798.121 5.626-.343.615-.087 1.147.598.869 1.171h-.004Zm-.973-58.7145c1.11.1505 5.93.8068 5.86 2.1778-.009.719-.865 1.0284-1.413.648-1.625-.7734-3.404-1.0367-5.17-1.229-.81-.1588-2.298.3511-2.356-.8904.12-1.3502 2.182-.7022 3.079-.7106v.0042Zm11.723 26.6986c1.954 11.0774-6.84 20.2399-16.88 20.2399-2.414 0-4.895-.526-7.322-1.684-7.991-3.821-11.216-12.6494-9.093-20.2823.312.4807.752.8904 1.218 1.2081.482.3344 1.014.5601 1.579.7148.362.1003.727.1421 1.097.1713.104.0084.212.0126.32.0126.216 0 .436-.0167.644-.046.69-.1003 1.376-.2842 2.012-.5727.328-.1463.64-.3218.922-.5392a5.768 5.768 0 0 0 .815-.7733c.411-.4808.777-1.0158 1.072-1.576.345-.6562.602-1.3669.565-2.1193-.033-.673-.129-1.3544-.349-1.9897-.224-.648-.594-1.2583-1.06-1.7557-.403-.4347-.872-.7901-1.375-1.0952-.428-.255-.873-.4682-1.347-.6228.1-.0753.2-.1463.299-.2216 10.119-7.4365 24.735-1.4839 26.879 10.9353l.004-.0042Zm-17.777-26.6108c.452 0 .822.4096.81.8569-.008.464-.399.8151-.852.8151-.453 0-.823-.4096-.81-.8569.008-.464.399-.8151.852-.8151Z"/><path fill="#9EF1FF" d="M152.537 77.0109s.013.0084.017.0126c.012.0041.021.0125.033.0167-.017-.0084-.033-.0209-.05-.0293Z"/><path fill="#fff" d="M142.414 119.402c.121-.038.245-.055.374-.038.47.08.985-.188 1.247-.581-.054-.313-.229-.577-.42-.819-.054-.08-.091-.167-.12-.255-4.854-3.185-8.902-7.612-11.482-12.854-8.578-17.2057-.802-36.5765 14.362-44.4895.087-.1547.191-.3093.199-.4933.046-.7273-.74-.6437-1.218-.8652-5.934 1.2791-11.702 3.2897-17.121 6.0612-10.651 5.3631-19.997 13.5478-26.234 23.7976-.021.0334-.046.0585-.071.0877-.112.4808-.133.974-.025 1.4422.449.7315.906 1.438 1.338 2.0901 9.134 13.6402 23.492 22.8362 39.163 26.9202l.008-.004Zm-15.322-43.0767c.969-2.5499 2.286-4.9953 3.969-7.123.74-1.0743 2.207-.234 1.504.8444-1.338 1.4756-2.206 3.1644-3.096 4.8866-.307.7357-.556 1.2624-.814 1.9647-.154.4306-.648.6563-1.064.5016-.424-.1547-.652-.6437-.499-1.0701v-.0042Zm-.328 2.621c.453 0 .852.3135.877.7858.025.4348-.328.882-.781.882s-.852-.3135-.877-.7858c-.025-.4348.328-.882.781-.882Z"/><path fill="#9EF1FF" d="M82.8055 144.006c-1.0721-.865-1.9822-1.935-2.7676-3.072-.3657-.556-.9517-1.505-1.3382-2.467-.108-.096-.1911-.213-.2368-.355-1.6374-1.643-4.8455-1.555-7.0272-1.471-.4779.075-.9184.334-1.2841.643-.2411.276-.4488.623-.7356.849.8145 2.843 2.269 5.463 4.1183 7.771 1.5542 2.295 3.5738 4.142 5.7555 5.802.7647.552 1.5127 1.074 2.2898 1.542.1745-.175.4239-.209.6441-.309.4364-.272.7771-.405 1.0556-.757.5485-1.099.5818-2.407.7978-3.603.158-1.212.2909-2.508-.3947-3.578-.2286-.372-.5569-.681-.8686-.995h-.0083Z"/><path fill="#9EF1FF" d="M67.2881 136.223c-2.5225 1.877-5.0492 3.749-7.5716 5.63-8.5814 6.388-17.167 12.767-25.7443 19.154-8.2988 6.174-16.6018 12.352-24.9006 18.526-1.5002 1.116-3.0004 2.232-4.5006 3.349-.0166.025-.025.054-.0457.079-.1371.209-.3823.267-.5776.397-.5652.518-.989 1.183-1.4794 1.772-.6857 1.183-.827 2.58-.8062 3.917.1745 3.808 1.7786 7.178 3.7858 10.325 1.5791 2.278 6.4578 8.264 9.4873 6.672.32-.172.6109-.381.8935-.594.1537-.15.32-.221.4862-.238 1.8742-1.388 3.7442-2.784 5.6143-4.176 8.091-6.028 16.1904-12.043 24.2814-18.067 8.4069-6.249 16.8054-12.507 25.2123-18.756 3.7941-2.826 7.5924-5.647 11.3907-8.473-7.3223-3.277-14.2789-11.592-15.5255-19.526v.009Zm-52.9305 43.64c-.453 0-.8353-.367-.8395-.827-.0041-.452.3699-.845.8228-.845.453 0 .8353.368.8395.828.0041.452-.3699.844-.8228.844Zm13.5183-10.433c-.8685 1.204-2.3313 1.818-3.4035 2.826-1.7744 1.337-3.5822 2.633-5.3441 3.992-.6857.439-1.6083 1.663-2.3937.769-.2701-.356-.2161-.907.1538-1.171.8352-.606 1.629-1.262 2.4643-1.868 2.3645-1.777 4.808-3.491 7.077-5.376.5569-.94 1.9615-.142 1.4462.828Zm34.8326-1.083c-.4529 0-.8353-.368-.8394-.828-.0042-.451.3698-.844.8228-.844.453 0 .8353.368.8395.828.0041.451-.3699.844-.8229.844Zm14.2539-12.423c1.1262.815-.2493 1.776-.9516 2.27-1.1595.898-2.3563 1.764-3.4617 2.729-1.6415 1.346-3.391 2.542-5.074 3.829-.5361.389-.9558.594-1.4213.966-.3532.28-.8934.201-1.1636-.155-.669-1.032.8021-1.572 1.4587-2.052.9682-.744 1.9573-1.463 2.9463-2.174 2.1984-1.672 4.3136-3.449 6.5244-5.108.241-.38.7397-.539 1.1428-.309v.004ZM218.816 99.8805c-.748-.5643-1.733-.8152-2.61-.464-.15.0878-.308.1964-.474.2759-14.628 16.7246-37.754 25.2436-59.787 23.5886l.112.008c-4.151-.259-8.295-.878-12.359-1.831-.191.005-.374-.029-.532-.129-13.855-3.357-26.795-10.668-36.27-21.4151-.021-.0251-.042-.0502-.067-.0752-.365-.0669-.652-.3512-1.03-.4097-1.451-.0752-2.893 1.078-3.25 2.483-.179.761-.158 1.551-.15 2.328.981 4.904 2.593 9.799 4.896 14.593 10.472 21.862 33.856 35.502 57.884 33.722 26.567-1.622 49.394-21.721 54.617-47.892.1-.481.192-.962.279-1.443a1.1354 1.1354 0 0 1-.025-.184c.195-1.182-.42-2.336-1.234-3.1514v-.0041Zm-96.864 16.7415c-2.24-1.129-4.222-2.479-6.275-3.892-.686-.61-2.901-1.617-2.103-2.721.515-.623 1.213-.205 1.633.293 1.047.852 2.14 1.605 3.271 2.269 1.288.966 2.721 1.794 4.147 2.521.985.477.328 1.956-.673 1.53ZM107.644 77.3996c.374-.0125.769 0 1.105-.1672.059-.0251.121-.0376.183-.0502 23.941-25.0599 65.888-28.4542 94.242-8.9915 3.678 2.4914 7.114 5.3465 10.231 8.5192.154.1547.304.3135.453.4723 1.737.1714 4.202-1.1119 4.206-3.0138a.9057.9057 0 0 1 0-.4515c-8.208-25.0391-32.448-43.3272-61.009-41.3751-25.799 1.8393-45.463 19.2036-52.748 41.187.017.1463 0 .3051-.067.4682-.137 1.8643 1.497 3.6534 3.396 3.4026h.008Zm92.55-15.4874c.453 0 .819.4138.807.8611-.013.464-.404.8109-.856.8109-.453 0-.819-.4138-.807-.8611.013-.464.403-.8109.856-.8109Zm-14.391-7.0101c3.72 1.1704 7.327 2.7589 10.56 4.9618.382.2466.519.7524.278 1.1495-.232.3846-.764.5267-1.142.2843-3.204-2.1653-6.787-3.7705-10.46-4.8699-.516 0-1.027-.3135-1.006-.8862.067-.9572 1.093-.8862 1.766-.6354l.004-.0041Z"/><path fill="#4EC5D9" d="M90.1773 132.456c-.8103.46-2.3063 2.429-3.1666 1.371-.7189-1.116 1.0348-1.642 1.6374-2.303 1.5043-1.233 3.1915-2.27 4.6501-3.549-.0041 0-.0083.009-.0124.013-.0125.008-.025.021-.0333.029 1.0805-.882 2.1693-1.76 3.3079-2.567-.1662-.137-.3366-.267-.5194-.376-.1206-.042-.2286-.108-.3242-.192-1.7163 1.275-3.4284 2.554-5.1405 3.829-2.51 1.869-5.02 3.733-7.5259 5.601-.7854.586-1.575 1.171-2.3604 1.756.0166.18.0125.364-.0083.527-.0083 2.052 1.4461 3.682 2.9048 4.941.7064.668 1.5874.898 2.5308.953.1662-.088.349-.096.5153-.063.5319-.397 1.0638-.794 1.5999-1.191 2.2939-1.71 4.5878-3.411 6.8776-5.117 1.7578-1.304 3.5115-2.608 5.2649-3.917.096-2.152-1.1259-4.059-2.5679-5.588-2.6014 1.876-5.02 3.975-7.6298 5.843Zm-4.5546 3.411c-.4529 0-.8352-.367-.8394-.827-.0042-.452.3699-.845.8228-.845.453 0 .8353.368.8395.828.0041.451-.3699.844-.8229.844Z"/><path fill="#fff" d="M178.905 59.4166c-.574.2174-1.363.2801-1.584.8946.183.3051.495.5392.682.8444 9.371 5.5178 15.962 15.5961 16.46 26.8992.723 11.462-4.683 21.9542-13.206 28.4162-.067.356-.32.69-.196 1.058.358.828 1.343 1.028 2.141.924.033.008.058.025.087.033 11.918-3.691 22.889-10.421 31.134-19.8387 1.729-1.973 3.341-4.0631 4.796-6.2326.585-.8778 1.146-1.7724 1.691-2.6795.025-.0376.05-.0752.079-.1128-.008-.1631-.017-.3261-.025-.4891-9.388-15.6003-24.942-25.641-42.064-29.725l.005.0083Zm13.705 49.1584c-.453 0-.852-.313-.877-.786-.025-.434.328-.882.781-.882s.852.314.877.786c.025.435-.328.882-.781.882Zm1.018-2.892c-.382-.268-.453-.782-.208-1.167.408-.618.79-1.245 1.089-1.923.673-1.697 1.376-3.5026 1.43-5.3419.095-1.0325 1.604-.9948 1.658.0251.237 1.2415-2.178 9.7728-3.969 8.4068Z"/><path fill="#4EC5D9" d="M156.464 24.0191c-44.76 3.1143-74.3318 48.1721-59.7995 90.7719 9.8575 29.132 38.7555 48.385 69.2375 46.069 30.195-1.91 56.126-24.8 62.039-54.592 9.018-44.4645-26.521-85.3254-71.477-82.253v.0041Zm-7.767 3.6619c2.61-.8152 5.245-1.4213 7.979-1.3753.661.0794 1.376.0251 1.974.3428.628.4765.258 1.5257-.532 1.5048-.361-.0292-.715-.1379-1.08-.1547-2.319-.1421-4.522.3554-6.691.903-.611.2006-1.163.3595-1.683.5308-.744.2174-1.953.9322-2.302-.1839-.237-1.2039 1.567-1.2081 2.335-1.5759v.0084Zm-5.003 1.0116c.453 0 .827.3887.823.8443 0 .4557-.387.8277-.84.8277-.453 0-.827-.3887-.822-.8444 0-.4556.386-.8276.839-.8276ZM97.612 102.305c-.453 0-.8477-.322-.8685-.794-.0208-.439.3366-.874.7895-.874.453 0 .8478.322.8686.794.0208.439-.3366.874-.7896.874Zm.5901-17.8785c-.5278 3.2647-.8145 6.5879-.6275 9.8902.0374 1.0241.1205 2.0441.2036 3.0641.0374.4556-.349.8527-.7895.8736-.4572.0251-.8353-.3386-.8686-.7942-.3615-3.7078-.3407-7.4323.1247-11.1276.1247-.9781.2618-1.8894.4571-2.8341.1704-.6145.2826-1.555 1.122-1.4882 1.3215.2425.4738 1.6094.3824 2.412l-.0042.0042ZM122.28 144.42c-1.916-.953-3.453-2.462-5.045-3.867-.561-.719-2.352-1.709-1.359-2.696.357-.297.873-.234 1.172.113 1.791 1.873 3.715 3.733 6.009 4.97.948.544.195 1.973-.777 1.48Zm3.773 1.927c-.453 0-.839-.351-.852-.815-.012-.447.358-.857.811-.857.453 0 .839.351.852.815.012.447-.358.857-.811.857Zm70.788 1.083c-1.567 1.204-3.113 2.403-4.908 3.239-.782.331-2.194 1.296-2.598.03-.162-.732.532-.991 1.081-1.167.856-.384 1.687-.823 2.506-1.279.927-.656 1.936-1.409 2.805-2.065.835-.706 1.911.498 1.114 1.242Zm2.867-2.684c-.453 0-.815-.426-.798-.869.021-.469.412-.803.864-.803.453 0 .815.426.798.869-.02.469-.411.803-.864.803Zm-41.536 9.539c-23.305-.874-45.076-16.323-53.853-38.01-14.0583-33.8174 4.293-72.7053 39.213-83.1599 34.849-10.605 71.743 12.1183 78.159 48.1763.462 2.4913.765 4.9702.919 7.4323a.8442.8442 0 0 1 .021.3469c2.044 35.8744-27.698 67.1454-64.459 65.2184v-.004Zm64.741-83.3813c1.014 2.5959 2.099 5.2252 2.319 8.0342.166.4766-.096 1.0242-.598 1.1329-.437.1003-.89-.1882-.994-.6313-.257-2.7797-1.25-5.3923-2.289-7.9631-.354-1.0325 1.155-1.5968 1.562-.5727Zm-5.668-11.8047c1.222 2.0524 2.502 4.2177 3.37 6.3956.303.6395.802 1.5926-.116 1.9688-.42.1589-.902-.071-1.068-.4974-.964-2.4997-2.282-4.8114-3.661-7.0937-.487-.9782.939-1.7306 1.475-.7692v-.0041Z"/><path fill="#000" d="M177.259 24.0693c-34.006-8.3352-69.84 11.0439-81.7 44.1716-6.6989 18.2505-5.2611 37.2071 2.0778 53.3051a.8771.8771 0 0 0-.3158.088c-4.3676 3.177-8.6687 6.454-13.0155 9.664-1.7703 1.317-3.5406 2.638-5.3151 3.955-.6316-.201-1.3921-.117-2.0321-.234-2.3812-.272-4.7873-.218-7.1643-.514-.5361-.046-1.0556-.101-1.5875-.197-.108-.017-.2078-.008-.2992.009-.2826-.163-.6483-.147-.9267.058-2.1734 1.618-4.351 3.235-6.5244 4.853-8.5772 6.379-17.1462 12.762-25.7234 19.141-8.3487 6.212-16.6974 12.419-25.042 18.631-2.1734 1.618-4.351 3.235-6.5243 4.853-.0416.029-.0748.063-.108.1-.6608.444-1.118 1.209-1.6333 1.806-1.8617 2.425-1.5957 5.823-.935 8.645.4322 2.42 1.6166 4.602 2.8425 6.696.802 1.451 1.816 2.776 2.9131 4.013 1.8576 1.936 4.2886 4.557 7.0604 4.866 1.3091.163 2.5225-.359 3.5199-1.183.1371-.021.2701-.071.3865-.155.7272-.539 1.4544-1.082 2.1817-1.621 2.7178-2.028 5.4439-4.051 8.1617-6.074 8.0578-5.995 16.1114-11.989 24.1692-17.983 8.4194-6.258 16.8304-12.528 25.2497-18.786 1.4005-1.045 2.8051-2.086 4.2014-3.127 1.3049-.969 2.6222-1.931 3.9188-2.913.3615-.276.4238-.815.1496-1.171.0581-.376.1537-.886.1953-1.3.3948-2.7.615-5.409.9142-8.134.0125-.251.0374-.548.0291-.832.9392-.698 1.8784-1.396 2.8134-2.094a9629.031 9629.031 0 0 1 6.8277-5.079c2.4643-1.835 4.9366-3.666 7.3966-5.505a.4759.4759 0 0 1 .054-.034c11.217 16.591 29.377 28.471 51.231 30.436 40.073 3.938 75.687-28.082 76.256-68.5839.869-32.7054-22.033-62.397-53.715-69.7499l.012-.0209ZM71.423 164.221c-8.4069 6.25-16.8055 12.507-25.2123 18.757-8.0911 6.023-16.1904 12.043-24.2815 18.066a6510.619 6510.619 0 0 1-5.6143 4.176c-.1662.017-.3324.088-.4862.238-.2826.214-.5735.423-.8934.594-3.0295 1.593-7.9082-4.393-9.4874-6.671-2.0072-3.144-3.6112-6.513-3.7858-10.325-.0208-1.342.1205-2.738.8062-3.917.4904-.59.9143-1.254 1.4794-1.773.1953-.129.4447-.188.5777-.397.0207-.025.029-.054.0457-.079l4.5005-3.348c8.303-6.175 16.6019-12.353 24.9007-18.527 8.5814-6.387 17.167-12.766 25.7442-19.153 2.5225-1.881 5.045-3.758 7.5716-5.631 1.2467 7.934 8.2033 16.248 15.5255 19.526-3.7941 2.825-7.5965 5.647-11.3906 8.473v-.009Zm12.6456-15.638c-.2161 1.196-.2493 2.504-.7979 3.604-.2784.351-.6192.48-1.0555.756-.2202.105-.4654.134-.6441.31-.773-.469-1.5251-.995-2.2898-1.543-2.1817-1.664-4.2013-3.511-5.7556-5.802-1.8492-2.307-3.2995-4.924-4.1182-7.771.2909-.23.4987-.573.7355-.848.3657-.31.8062-.569 1.2841-.644 2.1818-.084 5.3899-.172 7.0272 1.471a.7809.7809 0 0 0 .2369.356c.3865.961.9724 1.91 1.3381 2.466.7854 1.141 1.6955 2.211 2.7677 3.072.3158.314.6441.623.8685.995.6857 1.07.5569 2.366.3948 3.578h.0083Zm16.3064-16.377c-1.7533 1.304-3.5111 2.612-5.2648 3.916-2.2939 1.706-4.5879 3.411-6.8776 5.117-.5319.397-1.0639.794-1.5999 1.191-.1704-.037-.3491-.025-.5153.063-.9434-.054-1.8202-.289-2.5308-.953-1.4628-1.258-2.9173-2.889-2.9048-4.941.0249-.163.0291-.347.0083-.527.7854-.585 1.575-1.17 2.3604-1.755 2.51-1.865 5.02-3.733 7.5259-5.602 1.7121-1.275 3.4242-2.554 5.1405-3.829.0914.084.2036.146.3241.192.1829.109.3533.239.5195.377-1.1386.806-2.2274 1.684-3.3079 2.566.0125-.008.0249-.021.0332-.029.0042 0 .0084-.008.0125-.013-1.4586 1.28-3.15 2.316-4.6502 3.549-.5984.661-2.3521 1.188-1.6373 2.304.8602 1.057 2.3521-.912 3.1666-1.371 2.6098-1.865 5.0284-3.963 7.6298-5.844 1.442 1.53 2.6638 3.436 2.5678 5.589Zm127.566-25.93c-5.909 29.792-31.844 52.678-62.039 54.593-30.482 2.316-59.38-16.938-69.2376-46.07C82.1321 72.1995 111.7 27.1417 156.464 24.0275c44.956-3.0724 80.495 37.7885 71.477 82.2525v-.004Z"/><path fill="#000" d="M151.207 76.4006c.474.1546.919.3678 1.347.6228-.004 0-.013-.0083-.017-.0125.017.0083.033.0209.05.0292a.1252.1252 0 0 0-.033-.0167c.503.3052.972.6647 1.375 1.0952.466.5016.836 1.1119 1.06 1.7557.22.6354.316 1.3209.349 1.9897.037.7525-.22 1.4631-.565 2.1194-.295.5601-.661 1.0952-1.072 1.5759a5.51 5.51 0 0 1-.815.7733c-.287.2174-.594.3929-.922.5392-.636.2885-1.322.4724-2.012.5727-.207.0293-.428.046-.644.046-.108 0-.216 0-.32-.0125-.37-.0293-.739-.0711-1.097-.1714-.565-.1547-1.097-.3804-1.579-.7148-.465-.3219-.91-.7274-1.218-1.2081-2.119 7.633 1.102 16.4613 9.093 20.2823 2.427 1.158 4.908 1.689 7.322 1.684 10.04 0 18.829-9.1625 16.88-20.2399-2.144-12.4192-16.755-18.3717-26.878-10.9353-.1.0711-.2.1463-.3.2216l-.004.0042Z"/><path fill="#000" d="M222.634 89.0622a.8264.8264 0 0 0-.02-.3469 62.041 62.041 0 0 0-.919-7.4323c-6.42-36.0538-43.31-58.7813-78.159-48.1762-34.916 10.4545-53.2672 49.3424-39.213 83.1602 8.777 21.686 30.553 37.136 53.853 38.01 36.761 1.931 66.503-29.345 64.458-65.2148ZM104.248 73.9928a.9476.9476 0 0 0 .067-.4682c7.289-21.9834 26.953-39.3477 52.748-41.187 28.561-1.9521 52.801 16.3318 61.009 41.3751-.038.1338-.046.2801 0 .4515-.005 1.9019-2.469 3.1852-4.206 3.0139-.15-.1589-.299-.3177-.453-.4724-3.117-3.1727-6.558-6.0236-10.231-8.5191-28.35-19.4628-70.297-16.0685-94.242 8.9915a.6985.6985 0 0 0-.183.0501c-.336.1672-.735.1505-1.105.1672-1.899.2508-3.537-1.5341-3.395-3.4026h-.009Zm88.541 13.8739c1.221 17.1053-12.052 32.4253-29.115 33.4913-13.863 1.108-27.332-7.842-31.791-21.106-6.786-19.5208 6.924-40.4675 27.498-41.8219 17.076-1.3042 32.435 12.16 33.412 29.4324l-.004.0042Zm-90.851 1.0785c.025-.0293.05-.0544.07-.0878 6.238-10.2497 15.584-18.4345 26.235-23.7976 5.419-2.7714 11.191-4.7821 17.121-6.0612.478.2215 1.264.1379 1.218.8653-.008.1839-.108.3386-.2.4932-15.163 7.9172-22.939 27.2881-14.361 44.4889 2.58 5.242 6.628 9.673 11.482 12.854a.886.886 0 0 0 .12.255c.187.243.362.506.42.82-.262.393-.777.66-1.247.581-.129-.017-.257 0-.374.037-15.675-4.084-30.033-13.28-39.163-26.9198a66.6004 66.6004 0 0 1-1.338-2.0901c-.108-.4681-.087-.9614.025-1.4421l-.008.0042Zm118.141 14.2668c-.088.481-.179.961-.279 1.442-5.223 26.172-28.05 46.27-54.617 47.892-24.028 1.781-47.412-11.859-57.884-33.721-2.303-4.795-3.915-9.69-4.896-14.593-.008-.778-.029-1.568.15-2.328.357-1.405 1.799-2.5586 3.25-2.4834.382.0627.664.3428 1.03.4097.021.0251.042.0501.067.0752 9.475 10.7475 22.415 18.0585 36.27 21.4145.158.101.341.134.532.13 4.064.953 8.208 1.572 12.359 1.831l-.112-.008c22.029 1.655 45.159-6.864 59.787-23.589.162-.0794.32-.1881.474-.2759.877-.3511 1.866-.1003 2.61.464.818.8149 1.429 1.9689 1.234 3.1519 0 .067.012.125.025.184v.004Zm.835-13.4768c-.54.9071-1.105 1.7975-1.691 2.6795-1.455 2.1653-3.071 4.2596-4.796 6.2326-8.245 9.4177-19.216 16.1477-31.134 19.8387-.029-.012-.054-.025-.087-.033-.802.1-1.787-.1-2.14-.924-.125-.364.128-.698.195-1.058 8.527-6.462 13.934-16.9542 13.206-28.4162-.502-11.3031-7.089-21.3815-16.46-26.8992-.187-.3052-.499-.5393-.682-.8444.221-.6145 1.01-.6772 1.584-.8946 17.121 4.084 32.676 14.1247 42.063 29.725.009.1631.017.3261.025.4891a.7886.7886 0 0 0-.079.1129l-.004-.0084ZM66.345 163.515c-.6566.481-2.1277 1.02-1.4587 2.052.2743.356.8145.439 1.1636.155.4655-.372.8852-.577 1.4212-.966 1.6831-1.287 3.4368-2.483 5.0741-3.829 1.1096-.965 2.3022-1.831 3.4616-2.729.7024-.494 2.0779-1.455.9517-2.27-.4031-.234-.9018-.071-1.1428.309-2.2108 1.656-4.326 3.432-6.5244 5.108-.9932.711-1.9781 1.43-2.9463 2.174v-.004ZM62.6881 166.675c-.453 0-.827.393-.8228.844.0041.46.3864.828.8394.828s.827-.393.8228-.844c-.0041-.46-.3864-.828-.8394-.828ZM26.43 168.606c-2.269 1.881-4.7125 3.595-7.0771 5.376-.8311.606-1.629 1.262-2.4643 1.868-.3698.268-.4239.82-.1537 1.171.7854.894 1.7079-.33 2.3936-.769 1.762-1.359 3.5656-2.655 5.3442-3.992 1.0721-1.008 2.5349-1.622 3.4035-2.826.5153-.97-.8894-1.764-1.4462-.828ZM14.337 178.191c-.453 0-.827.393-.8228.845.0042.46.3865.827.8394.827.453 0 .827-.392.8229-.844-.0042-.46-.3865-.828-.8395-.828ZM85.6022 134.195c-.453 0-.827.393-.8229.845.0042.46.3865.827.8395.827.4529 0 .8269-.393.8228-.844-.0042-.46-.3865-.828-.8394-.828Z"/><path fill="#000" d="M127.591 77.3996c.415.1547.91-.0711 1.063-.5016.258-.6981.507-1.2248.815-1.9647.893-1.718 1.758-3.411 3.096-4.8866.702-1.0785-.765-1.9187-1.504-.8444-1.683 2.1277-3.001 4.5731-3.969 7.123-.154.4264.075.9196.499 1.0701v.0042ZM126.86 80.6183c.452 0 .806-.4473.781-.882-.025-.4723-.424-.7859-.877-.7859s-.806.4473-.781.8821c.025.4723.424.7858.877.7858ZM195.939 97.2511c-.05 1.8393-.757 3.6449-1.43 5.3419-.299.678-.686 1.305-1.089 1.923-.245.385-.174.895.208 1.167 1.791 1.366 4.206-7.1653 3.969-8.4068-.054-1.0199-1.563-1.0576-1.658-.0251ZM192.514 106.907c-.453 0-.806.448-.781.882.025.473.424.786.877.786s.806-.447.781-.882c-.025-.472-.424-.786-.877-.786ZM166.766 117.955c-1.829.464-3.757.686-5.627.343-.449-.067-.881.243-.951.694-.1 1.25 1.508.999 2.323 1.133 1.126.092 2.248-.105 3.361-.268.607-.142 1.434-.092 1.758-.731.279-.569-.253-1.258-.868-1.171h.004ZM156.909 119.101c.411 1.036 2.14.338 1.72-.694-.407-1.037-2.144-.343-1.72.694ZM165.935 62.0083c1.766.1881 3.545.4515 5.169 1.229.549.3846 1.405.0752 1.413-.6479.071-1.3711-4.745-2.0274-5.859-2.1779-.898.0084-2.959-.6395-3.079.7106.058 1.2415 1.546.7316 2.356.8904v-.0042ZM160.566 62.1713c.453 0 .839-.3553.852-.8151.008-.4473-.358-.8569-.811-.8569-.453 0-.839.3553-.851.8151-.009.4473.357.8569.81.8569ZM97.8241 82.0104c-.8394-.0669-.9475.8694-1.122 1.4881-.1953.9447-.3325 1.856-.4571 2.8341-.4655 3.6953-.4862 7.4198-.1247 11.1276.0374.4556.4114.8193.8685.7942.4405-.0209.827-.4222.7896-.8736-.0831-1.02-.1621-2.04-.2036-3.0641-.187-3.3065.0997-6.6255.6275-9.8902.0914-.8026.9392-2.1695-.3823-2.412l.0041-.0041ZM97.537 100.633c-.4529 0-.8103.435-.7896.874.0208.472.4156.794.8686.794.4529 0 .8103-.435.7895-.874-.0207-.472-.4155-.794-.8685-.794ZM148.664 29.4366c.52-.1714 1.068-.3303 1.683-.5309 2.17-.5476 4.372-1.045 6.691-.9029.366.0167.719.1254 1.08.1547.79.0209 1.16-1.0284.532-1.5049-.598-.3177-1.313-.2675-1.974-.3428-2.734-.046-5.369.5602-7.978 1.3753-.769.3678-2.573.3678-2.336 1.5759.349 1.1161 1.558.4013 2.302.1839v-.0083ZM143.686 30.3646c.453 0 .835-.372.839-.8276 0-.4557-.37-.8444-.823-.8444-.453 0-.835.372-.839.8276 0 .4557.37.8444.823.8444ZM223.649 79.4354c.103.4472.556.7357.993.6312.503-.1129.764-.6605.598-1.1329-.22-2.809-1.305-5.4383-2.319-8.0342-.407-1.0241-1.915-.4598-1.562.5727 1.039 2.5708 2.032 5.1834 2.29 7.9632ZM219.439 66.9576c.166.4306.648.6563 1.068.4974.918-.3762.42-1.3292.116-1.9688-.868-2.1779-2.148-4.3432-3.37-6.3956-.536-.9615-1.961-.2049-1.475.7691 1.379 2.2824 2.697 4.594 3.661 7.0937v.0042ZM195.735 146.188c-.868.656-1.878 1.409-2.805 2.065-.819.456-1.65.895-2.506 1.279-.548.176-1.242.439-1.08 1.167.403 1.266 1.816.305 2.597-.03 1.795-.836 3.341-2.035 4.908-3.239.798-.749-.279-1.948-1.114-1.242ZM199.778 143.07c-.452 0-.843.334-.864.802-.016.439.345.87.798.87.453 0 .844-.335.864-.803.017-.439-.345-.869-.798-.869ZM123.061 142.94c-2.293-1.237-4.218-3.097-6.009-4.97-.299-.343-.814-.405-1.172-.113-.993.982.798 1.977 1.359 2.696 1.592 1.405 3.13 2.91 5.045 3.867.973.493 1.725-.936.777-1.48ZM126.016 144.675c-.453 0-.819.414-.81.857.012.464.399.815.852.815.453 0 .818-.414.81-.857-.013-.464-.399-.815-.852-.815ZM122.625 115.092c-1.426-.727-2.859-1.555-4.147-2.521-1.131-.668-2.224-1.421-3.271-2.269-.424-.494-1.118-.912-1.633-.293-.798 1.103 1.417 2.115 2.103 2.721 2.052 1.409 4.035 2.763 6.275 3.892 1.001.43 1.658-1.049.673-1.53ZM185.043 56.4278c3.673 1.0952 7.26 2.7004 10.459 4.8699.379.2425.911.1045 1.143-.2842.237-.3972.104-.903-.278-1.1496-3.233-2.1987-6.845-3.7914-10.56-4.9618-.677-.2508-1.704-.3219-1.766.6354-.021.5726.491.8861 1.006.8861l-.004.0042ZM200.148 63.5842c.453 0 .844-.3469.856-.8109.013-.4473-.353-.8611-.806-.8611-.453 0-.843.3469-.856.8109-.012.4473.353.8611.806.8611ZM162.781 15.4373c-.1.4222-.025.9113.374 1.1286a7.4593 7.4593 0 0 0-.025.1464.82.82 0 0 0-.424.6897c-.038.9405 1.238 1.1412 1.729.4598.511-.7692.424-1.7891.486-2.6795 0-1.2833-.258-2.5541-.594-3.7872-.341-1.5257-1.176-3.0264-.877-4.64.44-1.5968 1.159-3.1434 1.035-4.8447-.038-.6438.103-1.6178-.665-1.8686-.732-.2215-1.23.5225-1.077 1.1872.071.8653-.008 1.7306-.22 2.575-1.625 4.9869-.765 5.0705.204 9.8108.095.6019.104 1.2164.054 1.8225ZM151.64 10.1745c.224.6605.415 1.3335.531 2.0232.221.7273-.182 1.8811.682 2.228-.05.4724-.27.9405.108 1.3627.378.4055 1.143.3428 1.363-.209.262-1.2749.499-2.6669.079-3.9335-.291-.8109-.773-1.5132-1.255-2.2155-.307-.8527-.532-1.7264-.598-2.6335-.021-.5643-.512-1.07-1.093-.9238-.802.1881-.89 1.275-.84 1.948.033.8903.524 1.6511 1.023 2.3576v-.0042ZM136.043 7.332c.877 1.5174.457 3.3734 1.135 4.9618.723 1.8518 2.742 2.6837 3.723 4.3724.345.5644.624 1.1621.873 1.7766.17.4222.64.6521 1.072.4891.058.1254.058.2466.037.3804-.02.4264.3.7942.699.8569 2.335-.0292 0-3.6743-.703-4.5522-1.072-1.4129-2.481-2.5331-3.54-3.946-1.102-1.5968-.162-3.9795-1.8-5.2837-.332-.23-.49-.6229-.806-.882-.44-.4515-1.267-.5853-1.641.0125-.491.79.369 1.4254.96 1.8142h-.009ZM171.828 17.1679c1.047.2633 1.504-1.0701 1.941-1.7808 1.604.3679 2.169-4.7611 2.397-5.8814.1-.5894.487-1.0869.578-1.6679.025-.535-.511-1.0032-1.026-.857-.503.1464-.827.6522-1.089 1.0785-.81 1.2248-1.139 2.6461-1.359 4.0799-.278 1.0617-.731 2.0775-1.276 3.0264-1.159-.0334-1.076 1.693-.162 2.0065l-.004-.0042ZM180.688 20.5036c1.72.0669 5.024-3.5782 5.768-5.1081 1.595-1.601 2.576-3.6577 3.332-5.7686.262-.6563.636-1.5467 1.118-2.1528.644-.485 1.334-.9071 2.049-1.2875.441-.234 1.06-.4347 1.135-1.0116.024-1.7139-2.153-.8402-2.951-.2174-1.7 1.321-3.187 2.9387-4.068 4.9284-.761 1.4714-1.259 3.0557-1.987 4.5438-.951 1.0827-1.99 2.0859-2.979 3.1352-.129.1379-.191.3176-.196.5016-.299.2341-.606.4598-.922.6688-.046.0251-.087.0502-.133.0752-1.18-.1295-1.322 1.5425-.166 1.693Z"/></g><defs><clipPath id="a"><path fill="#fff" d="M0 0h231v208H0z"/></clipPath></defs></svg>