<svg xmlns="http://www.w3.org/2000/svg" width="227" height="289" fill="none"><g clip-path="url(#a)"><path fill="#A9A9A9" d="m117.359 119.959-.042.03c.008.02.019.035.027.054a1 1 0 0 1 .015-.084Z"/><path fill="#A4D357" d="M51.322 260.348c-5.464-4.937-10.36-10.486-14.465-16.593-7.112-9.611-11.05-18.955-12.588-30.801-.658-4.918-1.032-9.917-.67-14.866.058-.759.241-1.495.397-2.238.18-1.27.324-2.544.616-3.788-.873 1.17-1.769 2.336-2.485 3.602-.775 1.793-1.227 3.675-1.807 5.526-.359.917-.78 1.804-1.099 2.737-1.223 4.206-2.695 8.376-2.948 12.787-1.212 9.073.572 18.2 3.482 26.774a42.122 42.122 0 0 0 1.893 4.627c.058.004.12.016.187.035.292.085.595.263.86.387 3.256 1.174 6.353 2.831 9.792 3.466.654.147 1.324.24 1.986.337.744.205.678 1.375-.09 1.495-.213.035-.435-.008-.65-.035-3.879-.515-7.462-2.149-11.041-3.632.288.538.591 1.072.9 1.599 2.803 1.599 5.869 2.691 8.934 3.714 6.068 2.257 12.378 3.984 18.796 4.875v-.008Zm-14.57-7.063a.809.809 0 0 1 .569-.201c.424 0 .755.418.732.82a.779.779 0 0 1-.253.527.81.81 0 0 1-.57.201c-.424 0-.755-.418-.731-.82a.779.779 0 0 1 .253-.527ZM69.994 51.867c2.03 7.45 4.95 14.626 8.304 21.569a149.501 149.501 0 0 0 2.38 4.399c1.102 1.735 2.325 3.64 4.448 4.132 1.402.147 2.636-.511 3.895-.992a22.934 22.934 0 0 1 4.689-2.273c.02-.011.039-.023.055-.03 1.219-.856 2.722-1.704 3.135-3.238.837-2.076.082-4.24-.086-6.347.004-.035.016-.062.024-.093-.067-.375-.137-.755-.207-1.13-.962-5.387-1.877-10.805-2.524-16.21-.51-3.21-.751-6.448-1.086-9.681-.588-4.124-.518-8.283-.195-12.427.023-.643.136-1.638 1.013-1.502.743.205.681.732.568 1.336-.187 2.49-.3 4.991-.28 7.489.183 3.284.666 6.54.911 9.816A327.085 327.085 0 0 0 97.8 65.536c.272 1.41.51 2.815.751 4.217.028.05.047.105.059.159.479 2.18 1.25 5.553 3.517 6.494.498.244.829.492 1.332.674.693.15 1.371.352 2.029.615 2.107.349 4.168.976 6.111 1.867 1.648.236 2.89.496 4.094-1.05.518-.522.93-1.308 1.223-1.936.198-.38.303-.735.518-1.065l.058-.058c1.281-3.744 2.356-7.57 3.073-11.458.67-3.396 1.168-6.82 1.515-10.258-.086-.306 0-.69.09-1.003v-.008c.265-2.889.424-5.789.475-8.693.101-6.715-.339-13.553-2.579-19.931-1.651-4.976-3.91-9.817-7.388-13.786-1.071-.964-2.232-2.021-3.311-2.916-1.639-1.266-3.303-2.556-5.18-3.45-1.102-.469-2.247-.817-3.392-1.158-4.588-1.557-9.554-1.503-14.232-.57C78.968 4.47 75.155 7.9 71.879 15.018c-1.573 3.88-2.882 7.892-3.63 12.012a62.881 62.881 0 0 0-.28 14.646c.46 3.43 1.207 6.823 2.01 10.192h.015ZM74.08 24.76a.79.79 0 0 1 .802.751c.012.41-.33.798-.755.798a.79.79 0 0 1-.803-.751c-.011-.41.331-.798.756-.798Zm-2.987 15.733c.03-3.992-.07-8.062 1.098-11.923.117-.406.51-.677.939-.573.397.097.697.527.576.933-.288.996-.49 2.006-.674 3.025-.233 1.375-.284 2.838-.339 4.21 0 2.946-.292 5.943.421 8.836.136.592.234 1.057.417 1.619a.75.75 0 0 1 .023.608c-.152.39-.623.6-1.009.441-.736-.348-.7-1.638-.938-2.27a18.073 18.073 0 0 1-.522-4.902l.008-.004Z"/><path fill="#E2FFB4" d="M59.93 279.722c3.86-.24 7.607-1.061 11.463-1.274 1.725-.144 3.431-.527 5.117-.957a104.457 104.457 0 0 1-8.233-4.736 104.353 104.353 0 0 1-14.065-9.898.793.793 0 0 1-.463-.391c-.133-.112-.269-.224-.401-.337-7.225-.7-14.31-2.613-21.106-5.119-2.384-.805-4.795-1.626-7.077-2.691 1.359 2.087 2.843 4.097 4.39 6.052 3.652 4.798 7.956 9.097 12.482 13.077a38.563 38.563 0 0 0 5.683 3.989 1.51 1.51 0 0 1 .44-.054 95.664 95.664 0 0 1 3.478-.589c1.13-.166 2.263-.317 3.377-.577.76-.236 2.278-.414 2.115.786-.113.523-.627.647-1.09.589a56.003 56.003 0 0 1-4.305.755c-.588.081-1.176.182-1.76.287.732.36 1.468.693 2.212 1.01.059 0 .117.004.18.02 2.52.17 5.04-.082 7.563.058Zm-.475-4.213c.424 0 .794.298.818.735.02.407-.316.813-.74.813-.425 0-.795-.298-.818-.735-.02-.407.315-.813.74-.813ZM38.925 244.034c3.98 5.704 8.658 10.893 13.846 15.532-3.236-10.072-5.145-20.5-7.162-30.867-.92-4.705-1.656-9.445-2.766-14.111-.323-1.402-.541-3.001-.853-4.356-.483-1.735-.751-3.505-.919-5.294a.736.736 0 0 1-.097-.476c-3.245-2.064-6.166-4.585-8.806-7.369-1.952-2.146-3.938-4.368-5.364-6.901-.545 1.646-1.02 3.315-1.137 5.054-1.2 5.692-.553 11.524.105 17.239 1.652 12.686 5.64 21.306 13.153 31.553v-.004Zm6.096-10.297a.783.783 0 0 1-.254.527.809.809 0 0 1-.568.201c-.425 0-.756-.418-.732-.821a.778.778 0 0 1 .253-.526.805.805 0 0 1 .568-.202c.425 0 .756.418.733.821Zm-4.203-14.649c.432-.085.814.197.92.608.225 1.034.377 2.087.654 3.113.673 2.808 1.382 5.406 2.107 8.163.187.988-1.286 1.305-1.527.306-.717-2.703-1.437-5.402-2.096-8.101-.276-1.045-.447-2.118-.67-3.175-.105-.411.21-.833.612-.914ZM193.029 204.466c1.831 1.89 3.918 3.512 5.749 5.402.526.008.76.67 1.301.666 3.264-.178 1.753-3.505.767-5.267-.841-1.246-1.908-2.218-2.979-3.179-1.78-1.533-3.996-3.953-6.509-3.864-.245.058-.541.093-.72.286-.386.581-.775 1.185-.943 1.867-.265.755.324 1.343.799 1.854.833.759 1.706 1.476 2.535 2.239v-.004Zm3.315-.554c.853-.728 1.612.655 2.084 1.135.424.519.888 1.007 1.191 1.611.46.91-.864 1.618-1.371.735-.261-.511-.782-1.053-1.106-1.467-.42-.585-1.542-1.251-.798-2.014Zm-1.62-2.525c.424 0 .771.376.763.79-.008.43-.374.759-.795.759-.42 0-.771-.375-.763-.79.008-.43.374-.759.795-.759Z"/><path fill="#FDFFF9" d="M79.704 100.485a.964.964 0 0 1 .094.12 26.423 26.423 0 0 0 4.635 5.498c3.462 3.176 7.828 5.313 12.44 6.25-7.537-2.985-10.43-12.957-4.608-19.466a11.985 11.985 0 0 1 3.829-2.908c-6.458 1.281-12.34 5.01-16.18 10.316a.699.699 0 0 1-.21.186v.004ZM123.607 101.871s.016-.016.02-.023c-3.65-5.94-9.807-10.177-16.584-11.73 2.57 1.274 4.724 3.443 5.873 6.405 2.781 6.916-1.429 14.316-8.023 16.237a24.661 24.661 0 0 0 2.442-.376 26.46 26.46 0 0 0 12.191-6.013 26.085 26.085 0 0 0 4.077-4.496l.004-.004Z"/><path fill="#E2FFB4" d="M118.427 77.58c-.004.255-.078.537-.144.797-.043.317-.109.623-.16.93.082.983.869 2.37 1.893 1.595.417-.33.81-.686 1.211-1.034a22.802 22.802 0 0 1 1.722-1.685c4.666-4.573 9.511-8.937 14.419-13.251 4.093-3.656 8.405-7.079 12.708-10.471 1.021-.767 2.104-1.448 3.093-2.254.199-.174.421-.333.697-.313.654.007 1.009.913.495 1.34-4.736 3.504-9.324 7.09-13.765 10.939-3.684 3.276-7.431 6.482-11.045 9.832-1.979 1.956-4.02 3.85-6.034 5.77a1.243 1.243 0 0 1-.377.414c-.495.6-1.196 1.112-1.477 1.851.039.24.203.434.378.593.277.1.577.081.865.085.498-.151.989-.322 1.48-.492.09-.035.175-.07.269-.105a.754.754 0 0 1 .288-.089c.164-.058.331-.112.495-.166.373-.167.744-.318 1.114-.445a.948.948 0 0 1 .28-.05c2.29-.81 4.631-1.484 6.952-2.196 8.588-2.328 17.508-3.404 26.396-3.606l.619-.011c.654-.333 1.854-.22 2.36-.395a35.242 35.242 0 0 0 5.177-1.251c1.682-.503 3.279-1.332 4.712-2.312 1.78-1.103 3.451-2.404 4.799-4.008.121-.174.261-.364.417-.522 1.643-2.7 3.049-5.55 4.292-8.458 2.746-7.334 2.488-12.442-1.286-19.37-2.644-3.95-6.115-7.48-10.469-9.603-1.056-.565-2.111-1.123-3.225-1.564-1.967-.686-4.058-.945-6.115-1.2-1.398-.125-2.972-.195-4.417-.264-5.281.364-10.321 2.2-15.03 4.554-3.544 1.7-6.773 3.934-9.776 6.451-.047.05-.093.097-.132.151-2.688 3.18-5.243 6.564-6.77 10.444-.557 1.348-1.071 2.769-1.452 4.17a4.659 4.659 0 0 0-.172.659c-.545 6.01-1.554 11.981-3.151 17.797-.697 2.25-1.359 4.523-2.146 6.75l.012-.008Zm54.333-41.218a.83.83 0 0 1 .557-.186c.425 0 .752.422.728.82a.788.788 0 0 1-.272.539.83.83 0 0 1-.557.186c-.425 0-.752-.422-.729-.821a.789.789 0 0 1 .273-.538Zm-16.576 14.513c-.425 0-.791-.31-.807-.747-.015-.407.324-.802.752-.802s.791.31.806.748c.016.406-.323.801-.751.801Zm-1.745-21.251c1.526-.457 3.193-.268 4.771-.233 2.146.186 4.304.52 6.38 1.096 1.067.376 2.107.833 3.147 1.278.716.418 2.411.778 1.807 1.898-.234.356-.728.44-1.083.209-4.253-2.394-9.27-3.265-14.115-2.905-.459.151-1.024.213-1.27-.31-.179-.367-.027-.867.363-1.033Z"/><path fill="#A4D357" d="M92.335 283.517c-4.752-1.143-9.328-2.874-13.725-4.984-.273.112-.569.186-.846.263-1.593.364-3.19.748-4.794 1.05-1.581.205-3.245.236-4.814.457-2.692.302-5.363.809-8.066.968-1.196-.085-2.388-.051-3.584-.02 2.84.937 5.82 1.727 9.02 2.599 9.987 2.761 20.41 4.027 30.758 3.469.596-.089 1.196-.112 1.792-.124.183-.108.401-.189.6-.247.88-.364 1.749-.755 2.539-1.29.219-.116.444-.228.67-.345a252.877 252.877 0 0 1-3.739-.518c-1.963-.299-3.86-.914-5.807-1.278h-.004ZM121.216 110.255c.506-1.929-1.422-1.7-2.587-1.058-.198.113-.416.248-.638.333-6.104 4.194-13.901 5.856-21.2 4.403-5.02-.944-9.71-3.345-13.472-6.753a.69.69 0 0 1-.304-.236c-1.998-.415-1.862 1.417-1.437 2.753v.093c1.114 2.486 2.722 4.713 4.67 6.595 4.455 4.294 10.695 6.757 16.973 6.223 7.377-.415 14.143-4.934 17.706-11.254.078-.368.261-.762.289-1.096v-.003Zm-24.783 7.446c-2.54-.72-5.134-1.498-7.447-2.761-.429-.228-.838-.492-1.274-.708-.428-.113-.744-.469-.654-.93.377-1.235 1.717-.271 2.41.132.464.263.931.511 1.422.724 1.96.906 3.992 1.487 6.057 2.079.958.353.46 1.77-.514 1.464Zm3.404.674c-.16.139-.35.186-.561.186-.425 0-.756-.418-.728-.821a.794.794 0 0 1 .264-.538c.16-.14.35-.186.561-.186.425 0 .756.418.729.821a.799.799 0 0 1-.265.538Z"/><path fill="#E2FFB4" d="M35.462 77.405c.121 0 .25 0 .378.016 2.991-.252 6.006-.306 9.005-.225 8.888.201 17.804 1.278 26.396 3.605 1.117.341 2.24.678 3.36 1.023h.121c.53.034 1.064.158 1.55.36 1.555-.825.305-2.22-.389-3.14a3.542 3.542 0 0 1-.428-.566c-3.026-3.284-6.33-6.316-9.909-9.003-2.368-1.824-4.642-3.795-7.077-5.515-3.29-2.273-6.672-4.441-10.165-6.397-.596-.395-1.776-.434-1.5-1.417.596-1.301 2.325.201 3.147.569 5.075 2.924 10.014 6.161 14.493 9.917 3.225 2.513 6.567 5.112 9.449 7.985a59.25 59.25 0 0 1 2.75 2.838c.506.415.923 1.236 1.5 1.418.564 0 .657-.64.552-1.123a4.14 4.14 0 0 1-.062-.21c-.012-.026-.02-.05-.031-.073-.004-.011-.004-.02-.008-.03-.093-.148-.187-.299-.284-.446a.82.82 0 0 1-.187-.585A118.438 118.438 0 0 1 70.5 58.717c-1.566-4.457-2.82-9.104-3.584-13.817-.004-.007-.011-.015-.015-.027-1.554-5.026-3.576-8.345-8.386-10.807a1.65 1.65 0 0 1-.475-.268c-4.257-1.99-8.771-3.481-13.48-3.806-1.445.07-3.015.14-4.417.263-2.06.256-4.152.515-6.115 1.2-1.114.442-2.17 1-3.225 1.565-4.35 2.126-7.824 5.657-10.47 9.603-3.773 6.928-4.03 12.036-1.285 19.37 1.36 3.175 2.91 6.277 4.756 9.197 2.325 2.614 5.028 5.212 8.596 5.894 1.013.232 2.088.263 3.058.313l.003.008Zm8.328-23.404c.424 0 .79.31.806.747.016.407-.323.801-.752.801-.428 0-.79-.31-.806-.747-.016-.407.323-.801.752-.801ZM21 52.893c.293-.279.827-.298 1.103.023.39.349.662.941.21 1.363-.296.283-.821.295-1.102-.023-.39-.352-.662-.94-.21-1.363Zm4.394 15.11c-.907-1.49-1.624-3.152-2.302-4.728a20.62 20.62 0 0 1-1.78-5.061.786.786 0 0 1 .585-.93.791.791 0 0 1 .934.581c.172.701.355 1.406.55 2.099 1 2.556 2.056 4.96 3.388 7.303.468.895-.849 1.619-1.37.736h-.005ZM163.311 182.474c3.973-2.629 7.525-6.079 9.659-10.409.569-1.049 1.13-2.098 1.574-3.206.689-1.952.95-4.035 1.207-6.079.125-1.391.199-2.955.265-4.392-.335-4.836-1.928-9.468-4.031-13.828-1.367-1.828-2.687-3.659-4.308-5.278-3.711-3.489-8.066-6.281-12.969-7.776a.506.506 0 0 1-.051-.023 86.268 86.268 0 0 1-8.69-2.533c-7.758-2.579-15.232-5.971-22.298-10.06a.883.883 0 0 1-.28-.019c-.456-.101-.884-.155-1.316-.035-.055.317.214.697.401.906.576.647 1.137 1.297 1.756 1.905a.771.771 0 0 1 .144.155c1.632 1.553 3.206 3.168 4.822 4.736 2.742 3.078 5.679 5.99 8.226 9.235 3.541 4.52 6.699 9.302 9.729 14.17.472.755.927 1.518 1.375 2.288.479.868-.837 1.646-1.359.755-3.392-5.715-7.077-11.253-11.159-16.504-1.491-1.967-3.244-3.71-4.911-5.53a83.638 83.638 0 0 0-5.729-6.002c-.709-.693-1.422-1.44-2.15-2.122a.772.772 0 0 1-.121-.077l.082.054c-1.095-.802-2.178-1.967-3.576-2.149-.28.255-.615.534-.763.883 0 .062-.012.12-.024.178.125 1.107.518 2.265.748 3.098.051.158.109.337.156.522.939 2.521 1.69 5.112 2.485 7.675 2.341 8.539 3.424 17.407 3.626 26.244.016.596.023 1.188.031 1.785.082.182.121.387.125.585.627 3.349.611 6.896 2.087 10.025a21.123 21.123 0 0 0 3.046 4.709c.374.438.678.697 1.064 1.018.019.016.035.035.054.055.16.124.316.247.475.368 3.459 2.385 7.233 4.302 11.108 5.94 7.377 2.73 12.515 2.474 19.482-1.278l.008.011Zm7.432-23.578c-.425 0-.799-.291-.822-.732-.024-.403.308-.817.736-.817s.798.29.822.731c.023.403-.308.818-.736.818Zm-9.181-21.442c.3.093.522.399.713.627.775.976 1.722 1.759 2.602 2.634 1.655 1.746 3.073 3.756 4.273 5.835 1.075 2.006 1.846 4.163 2.224 6.405a.783.783 0 0 1-.62.906.787.787 0 0 1-.911-.615c-.678-4.268-3.022-8.059-5.874-11.242-1.051-1.022-2.157-1.998-3.073-3.144-.775-.492-.218-1.704.67-1.402l-.004-.004Zm-12.354 18.758c.425 0 .791.31.806.747.016.407-.323.802-.751.802-.429 0-.791-.31-.807-.747-.015-.407.324-.802.752-.802Z"/><path fill="#A4D357" d="M122.217 139.847c-.81-4.395-2.08-8.701-3.587-12.914-.028-.031-.055-.058-.078-.093-1.398-3.443-2.193-6.49-6.656-4.655-.335.113-.787.256-1.169.233a23.21 23.21 0 0 1-4.592 1.386.662.662 0 0 1-.277.174c-2.048.624-4.272.992-5.608 2.777-.756 1.127-1.281 2.579-1.57 3.853-.117.399-.152 1.003-.346 1.44-.008.058-.02.12-.032.178-.525 3.319-.856 6.657-1.082 10.007-.775 8.24-.643 16.573-.573 24.833.04 1.181.074 2.362.113 3.547.016.422-.265.802-.705.844-.405.039-.833-.278-.849-.7-.253-9.499-.382-19.033.444-28.509.222-3.257.534-6.506 1.024-9.735l.129-.802c.105-1.25.203-2.443.288-3.709.203-2.045-.25-3.865-2.329-4.659a.86.86 0 0 1-.296-.228 23.006 23.006 0 0 1-4.596-2.014.956.956 0 0 1-.401-.108c-3.034-.701-3.926.933-5.651 2.989-.561.744-1.044 1.379-1.492 2.169-.234.306-.452.805-.74 1.169a156.459 156.459 0 0 0-1.652 3.094c-3.353 6.947-6.278 14.119-8.303 21.569-.803 3.369-1.55 6.761-2.01 10.192a62.89 62.89 0 0 0 .28 14.646c.748 4.12 2.053 8.128 3.63 12.012 3.276 7.117 7.089 10.548 14.684 12.794 4.677.934 9.643.992 14.232-.569 1.149-.341 2.29-.689 3.392-1.158 1.877-.894 3.54-2.184 5.18-3.45 1.079-.895 2.24-1.952 3.311-2.916 3.478-3.969 5.733-8.81 7.388-13.786 2.24-6.378 2.684-13.216 2.579-19.931-.113-6.703-.787-13.379-2.084-19.962l.004-.008Zm-8.693 47.603c-.425 0-.799-.29-.822-.731-.024-.403.307-.818.736-.818.428 0 .798.291.822.732.023.403-.308.817-.736.817Zm5.413-9.882c-.603 1.82-1.262 3.632-2.2 5.317-.37.623-.647 1.894-1.62 1.452-1.052-.631.272-1.944.537-2.73 1.013-1.987 1.702-4.147 2.356-6.262 2.065-7.303 2.431-14.986 1.609-22.498-.284-1.069 1.231-1.53 1.511-.434.958 8.411.479 17.085-2.196 25.159l.003-.004Z"/><path fill="#E2FFB4" d="m80.129 126.759.012-.035c-.144-.263-.133-.612 0-.906.015-.298-.055-.577-.14-.86-.02-.093-.11-.135-.172-.174-.382-.097-.787.174-1.141.302a1.91 1.91 0 0 1-.635.283c-2.337 1.688-4.448 3.667-6.395 5.824-3.03 3.128-6.076 6.377-8.596 9.921-1.309 2.009-2.917 3.895-4.253 5.859-.433.631-.88 1.266-1.239 1.944-.183.371-.631.565-1.013.398-1.223-.677.296-2.033.694-2.811 1.21-1.808 2.675-3.632 3.93-5.375 2.722-4.108 6.15-7.694 9.565-11.234a41.691 41.691 0 0 1 5.266-4.945.878.878 0 0 1 .277-.228c.44-.461 1.125-.755 1.382-1.352-.085-.085-.194-.124-.303-.17-.21.035-.41 0-.6-.031h.043a.764.764 0 0 1-.219-.046 119.535 119.535 0 0 1-17.534 7.442c-3.716 1.294-7.564 2.37-11.474 3.133-.343.213-.857.287-1.2.383-4.666 1.298-9.017 2.552-12.339 6.312-.537.635-1.071 1.282-1.515 1.987a1 1 0 0 1-.242.372c-2.27 4.561-4.023 9.433-4.377 14.533.07 1.436.14 3.001.264 4.391.258 2.049.518 4.128 1.208 6.08.444 1.107 1.009 2.157 1.577 3.206 2.135 4.325 5.69 7.78 9.66 10.409 6.738 3.628 11.774 3.977 18.773 1.526.226-.175.498-.31.728-.411 5.581-2.927 7.062-5.901 7.56-12.016 0-.232.012-.511.07-.759-.148-8.345 1.636-16.763 4.39-24.597a118.478 118.478 0 0 1 7.988-18.371v.016ZM34.36 169.483c-.21.619-1.191.662-1.433.046-1.402-3.671-2.61-7.563-2.107-11.524.074-.743-.432-2.045.69-2.153 1.207.058.802 1.758.849 2.571-.437 3.323.666 6.761 1.737 9.824.136.446.424.779.265 1.236Zm1.999 4.24c-.425 0-.791-.31-.807-.747-.015-.407.324-.802.752-.802s.79.31.806.747c.016.407-.323.802-.751.802Zm18.457-20.466c-.424 0-.79-.309-.806-.747-.015-.407.323-.802.752-.802.428 0 .79.31.806.748.016.406-.323.801-.752.801Z"/><path fill="#A9A9A9" d="M120.323 115.056s0-.019-.003-.031c-.004.008-.012.012-.016.02.008.003.012.007.019.011Z"/><path fill="#A4D357" d="M41.917 133.086c3.45-.457 6.862-1.2 10.25-1.998 7.495-2.018 14.712-4.922 21.695-8.256.79-.403 1.57-.817 2.353-1.235.307-.275.748-.395 1.082-.628.425-.244.853-.491 1.266-.755 1.504-.987 3.218-2.126 3.825-3.888.152-.747-.16-1.483-.304-2.211a3.291 3.291 0 0 1-.198-.639 23.978 23.978 0 0 1-3.447-8.775c-.857-1.518-2.06-2.497-3.957-2.819-.495-.077-.99-.162-1.484-.236-3.202-.174-6.415-.104-9.617-.054-5.768.317-11.505.995-17.25 1.58-4.117.372-8.261.526-12.358 1.096a55.26 55.26 0 0 0-5.165.906c-.857.186-1.722.352-2.586.507-.207.035-.41.023-.596-.089-.569-.317-.444-1.286.218-1.413a84.936 84.936 0 0 0 2.586-.504c4.869-1.127 9.87-1.44 14.84-1.812 9.238-.751 18.527-2.157 27.805-1.87a.807.807 0 0 1 .463-.074c.137.016.277.027.417.039a1.02 1.02 0 0 1 .308-.047c1.418.055 2.91.066 4.233-.5a3.856 3.856 0 0 0 1.527-1.467c.168-.283.34-.697.565-1.003a22.648 22.648 0 0 1 1.951-6.172c.016-.33.129-.686.238-.957.109-.829.534-1.677.347-2.513-.495-1.259-1.847-1.809-3-2.327-1.09-.573-2.274-.972-3.36-1.55-.063-.019-.125-.042-.188-.061-.097-.008-.19-.016-.288-.02a.813.813 0 0 1-.374-.19c-3.065-.96-6.18-1.77-9.336-2.346-6.621-1.29-13.336-1.96-20.078-2.072-2.598-.038-5.215 0-7.82.194a.69.69 0 0 1-.487.089c-.14 0-.277-.012-.413-.016-3.852.337-7.665 1.027-11.327 2.297-5.005 1.642-9.873 3.888-13.865 7.346-.97 1.065-2.033 2.219-2.933 3.291-1.274 1.63-2.57 3.284-3.47 5.15-.472 1.096-.822 2.235-1.165 3.373-1.566 4.562-1.511 9.499-.572 14.15 2.259 7.551 5.71 11.342 12.868 14.599 3.903 1.564 7.938 2.865 12.082 3.609 4.86.658 9.854.755 14.73.279l-.011-.008Zm-.624-6.478c1.52.085 3.042.174 4.565.108 2.2-.139 4.401-.279 6.586-.585a91.856 91.856 0 0 0 4.557-1.177c.398-.213.877-.414 1.247-.015.284.298.292.813-.027 1.095-.659.519-1.555.581-2.333.829-1.562.414-3.124.879-4.748.988-3.276.336-6.575.588-9.862.305-.425-.027-.775-.34-.771-.782 0-.402.362-.794.786-.766Zm-6.383.034c-.273-1.018 1.515-1.444 1.768-.433.273 1.018-1.511 1.444-1.768.433ZM160.737 77.095c-6.742.113-13.457.782-20.078 2.072-5.11.93-10.103 2.47-14.96 4.283-1.605.81-3.33 2.056-3.591 3.911.082.6.159 1.181.249 1.754.086.279.152.558.21.84.409.79.779 1.615 1.106 2.471.137.186.234.41.273.647.553 1.634 1.06 3.342 1.324 5.065.067.26.106.534.148.755.366.968 1.021 2.014 2.069 2.327 1.573.368 3.154.384 4.743.422 2.559-.139 5.118-.193 7.669-.244 8.261-.344 16.542-.1 24.799.252 4.156.19 8.218 1.084 12.308 1.758.985.174.783 1.661-.25 1.53-3.283-.5-6.527-1.282-9.842-1.557-3.427-.302-6.843-.403-10.278-.476-7.899-.159-15.802-.171-23.669.271a2.085 2.085 0 0 1-.596.039c-.215.011-.429.027-.647.042a.635.635 0 0 1-.171.047c-1.916.271-3.661.573-5.36 1.398-.72.495-1.211 1.177-1.686 1.881l-.039.062a23.28 23.28 0 0 1-1.951 4.961c-.051.228-.144.465-.222.674-.678 2.288-.861 3.225 1.304 4.647.191.096.324.216.417.344a144.55 144.55 0 0 0 7.143 3.919c6.988 3.334 14.201 6.242 21.695 8.256 3.388.798 6.8 1.541 10.251 1.998a63.9 63.9 0 0 0 14.73-.279c4.144-.743 8.176-2.04 12.082-3.609 7.159-3.256 10.61-7.047 12.869-14.599.938-4.65.997-9.588-.573-14.15-.343-1.142-.693-2.276-1.164-3.372-.9-1.867-2.197-3.52-3.471-5.15-.899-1.073-1.963-2.227-2.932-3.292-3.993-3.458-8.861-5.7-13.866-7.346-6.419-2.226-13.293-2.668-20.047-2.563l.004.011Zm-2.084 5.174c-4.639-.48-9.207.162-13.811.495-1.126.19-2.142.388-3.19.55-.393.17-.876-.065-1.016-.464-.281-.93.763-1.116 1.452-1.174 2.333-.538 4.713-.565 7.081-.836 2.563-.22 5.141-.364 7.712-.252.814.17 2.559-.251 2.586.941-.019.41-.389.77-.814.74Zm4.024.228c-.02.434-.39.74-.814.74-.425 0-.764-.403-.744-.81.019-.433.389-.74.814-.74.424 0 .763.404.744.81ZM45.15 217.876c1.923 9.766 3.586 19.602 5.826 29.306.794 3.524 1.733 6.909 2.804 10.347.3.995.62 1.983.947 2.966.078.318.264.713.381 1.092a101.683 101.683 0 0 0 13.38 9.488c3.056 1.924 6.114 3.729 9.312 5.336-3.3-8.643-5.395-17.666-7.268-26.712a487.525 487.525 0 0 1-3.4-19.056c-.176-2.11-.378-4.213-.662-6.312-.063-1.944-.27-3.88-.452-5.781-.02-.264-.09-.558-.098-.833-.642-.298-1.297-.604-1.963-.91-.007.07-.015.136-.03.198-.25 3.237.404 6.467.68 9.685.16 1.003-1.32 1.289-1.53.294-.292-3.183-.88-6.362-.752-9.569.094-.399-.015-.921.102-1.313-1.644-.755-3.37-1.545-5.2-2.408-5.016-2.401-9.838-5.15-14.52-8.128.171 1.827.611 3.527 1.013 5.289.397 2.355.934 4.682 1.433 7.017l-.004.004Zm18.784 11.652c.206 0 .397.05.557.186.16.135.257.333.269.538.023.403-.304.821-.729.821a.826.826 0 0 1-.557-.186.767.767 0 0 1-.268-.538c-.024-.403.303-.821.728-.821Z"/><path fill="#A9A9A9" d="m124.183 121.608-.035-.023a.055.055 0 0 0 .016.012c.027.019.051.035.074.054-.02-.015-.035-.031-.055-.046v.003ZM111.49 256.775c.024-.024.043-.047.063-.071-.02.024-.039.047-.059.067l-.004.004Z"/><path fill="#E2FFB4" d="M99.591 272.376c-1.612-4.562-2.69-9.274-4.011-13.917-1.317-4.337-2.174-8.779-2.918-13.244-.46-2.699-.37-5.406-.927-8.07a.788.788 0 0 1-.011-.391 78.493 78.493 0 0 0-1.601-1.793c-7.895-8.759-14.279-12.535-22.543-16.469 0 .058.007.112.011.162.199 1.855.359 3.71.433 5.573.412 2.614.47 5.266.888 7.88 1.702 9.665 3.357 19.401 5.756 28.911 1.176 4.484 2.376 8.976 4.027 13.314.226.635.468 1.208.71 1.831.14.341.354.802.408 1.212.51.24 1.025.473 1.547.701 5.238 2.424 10.827 3.927 16.467 5.081.771.12 1.542.228 2.314.337-1.625-3.288-3.042-6.7-3.794-10.297-.214-.515-.288-1.181.358-1.406 1.056-.286 1.142 1.073 1.332 1.778.444 2.172 1.282 4.24 2.111 6.292.542 1.263 1.157 2.494 1.769 3.722.027.05.042.104.058.158l1.959.268c-1.48-3.9-3.007-7.737-4.346-11.652l.003.019Zm-23.996-13.983c-.915-3.365-1.67-6.8-2.084-10.262-.393-2.103-.763-4.213-.965-6.343-.172-.999 1.312-1.293 1.53-.298.592 4.55 1.282 9.104 2.267 13.588.257 1.007.534 2.01.779 3.02.18.988-1.297 1.298-1.53.295h.003Zm1.566 3.845a.826.826 0 0 1-.557-.186.767.767 0 0 1-.269-.538c-.023-.403.304-.821.729-.821.206 0 .397.05.557.186.16.135.257.333.268.538.024.403-.303.821-.728.821Zm18.127 7.772a.826.826 0 0 1-.557-.186.767.767 0 0 1-.27-.538c-.022-.403.305-.821.73-.821.206 0 .397.05.556.186.16.135.257.333.269.538.023.403-.304.821-.728.821Z"/><path fill="#A9A9A9" d="M101.566 97.146a1.27 1.27 0 0 1 .109-.096c-.043.011-.085.027-.128.038.008.016.012.035.019.05v.008Z"/><path fill="#A4D357" d="M119.786 94.734c.596.38 1.566 1.58 2.127.562.545-.628.362-1.518.261-2.27a.765.765 0 0 1-.047-.259 21.566 21.566 0 0 0-.845-1.832.813.813 0 0 1-.152-.294 22.338 22.338 0 0 0-9.889-9.553c-.07-.012-.14-.02-.207-.031a.755.755 0 0 1-.498-.294 21.527 21.527 0 0 0-5.118-1.557.819.819 0 0 1-.463-.047c-.028-.011-.055-.019-.082-.03a21.832 21.832 0 0 0-4.787-.171 21.679 21.679 0 0 0-5.683 1.154c-.148.093-.3.19-.451.275a.757.757 0 0 1-.526.089c-5.336 2.145-9.53 6.316-11.833 11.385a5.962 5.962 0 0 0-.148 1.82c.125 1.041 1.328.852 1.987.437a.778.778 0 0 1 .4-.116c.176-.14.355-.282.534-.418 10.255-7.954 25.403-7.354 35.093 1.038.117.011.23.046.331.112h-.004Zm-4.202-4.883a19.688 19.688 0 0 0-7.685-2.715c-.915.148-1.262-1.192-.374-1.498.662-.159 1.344.12 1.998.217 2.466.43 4.814 1.42 6.941 2.714.833.577-.031 1.84-.876 1.278l-.004.004Zm2.851 1.433c-.16.14-.351.186-.561.186-.425 0-.756-.418-.729-.821a.8.8 0 0 1 .265-.538c.16-.14.351-.186.561-.186.425 0 .756.418.729.82a.8.8 0 0 1-.265.539ZM192.429 211.699a.73.73 0 0 1 .164-.352l.07-.085c1.39-1.599.724-3.052-.538-4.446-1.044-1.363-2.847-2.288-4.397-1.134-.051.027-.094.058-.14.085-3.739 3.334-7.478 6.664-11.214 9.998-4.35 3.881-8.705 7.757-13.055 11.637-.121.151-.292.244-.425.395-1.316 1.444-1.491 2.544-.436 4.198.269.321.495.677.767.991.561.511 1.301.74 2.018.929.58.012 1.157-.093 1.721-.17.339-.232.764-.248 1.107-.465a.846.846 0 0 1 .249-.085l1.172-1.045c4.627-4.125 9.258-8.253 13.885-12.38l9.052-8.071Zm-18.099 13.682c-.425 0-.772-.376-.764-.79.008-.43.374-.759.795-.759.42 0 .771.375.763.79a.785.785 0 0 1-.794.759Zm4.588-4.128c-.6.507-1.184 1.897-2.119 1.239-.319-.264-.386-.775-.105-1.092 1.184-1.452 2.605-2.649 4.043-3.838 1.484-1.285 2.858-2.695 4.233-4.093.787-.794 1.625-1.557 2.423-2.331.308-.422.861-.755 1.336-.36.315.263.385.774.105 1.092-2.224 2.153-4.378 4.387-6.648 6.494-1.06.999-2.287 1.808-3.268 2.892v-.003Z"/><path fill="#E2FFB4" d="M163.218 236.157c-1.063-1.037-2.107-2.094-3.201-3.101-1.932-1.743-4.071-4.767-7.042-3.675-1.266.519-2.22 1.622-3.085 2.645-.327.635-.775 1.614-.144 2.188l.015.011c.331.031.561.294.772.527.794.794 1.573 1.595 2.352 2.405 1.266 1.332 2.656 2.679 3.848 4.058.771.794 1.461 1.661 2.247 2.439.565.655 1.305 1.267 2.228 1.212 1.979-.46 3.584-2.044 4.507-3.791.771-2.071-1.173-3.647-2.501-4.918h.004Zm-7.98-1.25c-.62-.697-1.379-1.278-2.135-1.813-.393-.089-.693-.476-.619-.882.331-1.247 1.651-.395 2.251.158.627.5 1.27.996 1.764 1.631.581.824-.63 1.707-1.261.906Zm3.1 3.547c-.425 0-.771-.376-.764-.79.008-.43.374-.759.795-.759.421 0 .771.375.763.79a.784.784 0 0 1-.794.759Z"/><path fill="#A9A9A9" d="M85.15 118.267c.011-.019.027-.039.038-.059a.65.65 0 0 0-.054.036c.004.011.011.019.015.027v-.004Z"/><path fill="#A4D357" d="M154.279 243.36c-.3.283-.615.546-.907.856-1.967 1.638-3.739 3.276-5.597 5.011-1.317 1.045-2.606 2.118-3.743 3.365-.736.735-1.535 1.413-2.275 2.145-.296.302-.822.259-1.102-.039-.767-.991.904-1.731 1.433-2.401 1.41-1.32 2.68-2.776 4.265-3.899 2.014-1.832 4.035-3.721 6.107-5.46.378-.271.713-.786 1.122-1.077-.666-1.018-1.655-1.793-2.913-2.025-.39-.031-.775-.097-1.165-.12l-5.184 4.62c-4.841 4.318-9.683 8.631-14.524 12.949-4.354 3.88-8.709 7.764-13.063 11.648-.148.515-.842.999-1.177 1.398-1.561 2.091-2.356 4.674-2.777 7.214-.089.531-.112.972-.081 1.34.081.155.159.31.241.465.024.027.047.046.07.07 1.118.29 2.298-.105 3.346-.496.253-.128.498-.275.74-.426.175-.186.354-.356.608-.41.802-.581 1.538-1.263 2.247-1.941.354-.29.666-.786 1.137-.848 4.004-3.57 8.012-7.14 12.016-10.711a91997.83 91997.83 0 0 1 21.429-19.102c0-.008 0-.016-.004-.023a5.922 5.922 0 0 0-.253-2.099l.004-.004Zm-15.657 13.666c-.425 0-.771-.376-.764-.79.008-.43.374-.759.795-.759.421 0 .771.375.763.79-.007.429-.374.759-.794.759Z"/><path fill="#E2FFB4" d="M102.193 286.89c1.216-.074 2.435-.124 3.634-.36.44-.093.857-.275 1.274-.45-.884-.151-1.768-.286-2.656-.414-.678.488-1.496.829-2.252 1.224ZM222.276 240.44c-3.288-3.462-6.54-6.962-9.555-10.668-1.242-1.398-2.667-2.618-4.019-3.907-3.1-3.199-6.232-6.367-9.344-9.554a.927.927 0 0 1-.327-.205c-2.906-2.021-6.699-.681-9.433 1.003-2.649 1.588-5.258 3.625-6.727 6.382-.744 1.936.246 2.583 1.527 3.775a.785.785 0 0 1 .199.329 7.599 7.599 0 0 1 2.002 2.072c2.076 2.626 3.373 6.897-.144 8.934-.538.337-1.099.635-1.687.879a248.81 248.81 0 0 0 5.465 5.975c1.452-1.998 3.077-4.151 5.546-4.899 1.11-.36 2.387-.619 3.439.031 3.128 1.433 4.635 5.294 3.357 8.465-.806 1.937-1.943 3.768-3.708 4.973-.556.503-3.189 2.3-5.09 2.923 1.959 1.971 3.583 4.233 5.558 6.192.584.596 1.18 1.173 1.791 1.739 4.145-3.698 8.293-7.393 12.441-11.091 3.887-3.465 7.774-6.927 11.661-10.397-.876-1.127-1.971-1.936-2.949-2.959l-.003.008Zm-22.049 17.856a.831.831 0 0 1-.557-.186.77.77 0 0 1-.269-.538c-.023-.403.304-.821.728-.821.207 0 .398.05.557.186.16.135.257.333.269.538.023.403-.304.821-.728.821Zm6.617-8.496c-.506 1.514-.974 3.102-2.123 4.271-.666.6-1.741 2.897-2.769 2.068-.709-.678.117-1.278.553-1.801.534-.681 1.099-1.34 1.636-2.017 1.43-2.483 1.986-5.476.978-8.214-.261-.399-.172-.964.28-1.185 1.32-.476 1.383 1.557 1.632 2.39.261 1.487.265 3.043-.187 4.492v-.004Zm.728-18.979c-2.34-3.063-5.242-5.65-7.61-8.689-.495-.403-.238-1.24.374-1.348.58-.132.892.434 1.176.829 2.333 2.792 4.993 5.293 7.217 8.174.666.755-.471 1.782-1.16 1.034h.003Zm2.84 2.827c-1.188.101-1.352-1.541-.148-1.564 1.188-.105 1.347 1.541.148 1.564Z"/><path fill="#A4D357" d="M113.617 267.609c.331-.926.666-1.851 1.009-2.773 2.177-4.864 4.393-9.739 7.088-14.339 2.345-4.148 4.892-8.26 7.475-12.245 1.655-2.559 3.135-5.227 4.712-7.834 5.882-10.23 11.49-21.17 12.289-33.116.14-2.389.218-4.783.202-7.176-.183-1.27-.424-2.579-1.456-3.427-.966-.658-2.602-1.115-3.525-.19-.304.388-.678.798-.736 1.305-.016.334.038.485 0 .767a.96.96 0 0 1-.098.275c.082 5.789-.9 11.521-2.504 17.07-1.064 4.039-2.212 8.085-4 11.876-3.482 8.078-8.366 15.393-13.056 22.801-1.815 2.9-3.591 5.824-5.402 8.732-1.336 2.269-2.812 4.469-3.864 6.889l-.058.12a.67.67 0 0 1-.094.287v.007c-.743 2.138-1.67 4.291-1.632 6.576.078 1.82.25 4.321 2.049 5.278.226.011.374.05.565-.027.3-.237.639-.438.911-.694a.736.736 0 0 1 .129-.154l-.004-.008Zm26.933-58.264c1.492-4.713 2.59-9.619 2.387-14.583-.151-.477.23-1 .74-1 1.196.109.776 1.697.822 2.518-.023.789-.039 1.579-.089 2.369-.195 2.723-.729 5.41-1.48 8.028-.304 1.138-.577 2.281-.982 3.388-.136.399-.642.573-1.016.418-.456-.182-.581-.72-.378-1.134l-.004-.004Zm-.608 3.694c.425 0 .783.341.787.767a.784.784 0 0 1-.771.782.784.784 0 0 1-.787-.767.784.784 0 0 1 .771-.782Zm-23.291 38.186c.51-.957 1.036-1.909 1.574-2.85.72-1.375 1.612-2.634 2.531-3.877a.793.793 0 0 1 .966-.58c1.025.344.433 1.459-.07 2.013-.9 1.1-1.593 2.343-2.286 3.578-.464.833-.927 1.665-1.371 2.51-.292.6-.503 1.657-1.41 1.316-.931-.433-.222-1.467.066-2.11Zm-1.64 4.325c.425 0 .783.341.787.767a.784.784 0 0 1-.771.782.784.784 0 0 1-.787-.767.784.784 0 0 1 .771-.782Z"/><path fill="#E2FFB4" d="M90.746 101.72c.292 5.793 5.733 10.451 11.494 9.932 8.81-.604 13.133-11.152 7.295-17.704-6.832-7.617-19.412-2.382-18.793 7.772h.004Zm5.324-4.124c2.98-4.71 10.326-3.493 11.611 1.92 1.055 3.923-2.341 8.082-6.423 7.834-4.876-.097-7.848-5.704-5.188-9.754Z"/><path fill="#A4D357" d="M108.736 273.96c-.081-3.292-.545-6.556-1.445-9.728-1.336-4.891-3.536-9.499-6.064-13.871a81.61 81.61 0 0 0-7.665-11.388c.557 6.35 1.59 12.585 3.412 18.696 1.332 4.674 2.43 9.413 4.023 14.01 1.457 4.318 3.128 8.368 4.694 12.585v.016c1.117.17 2.231.356 3.341.577.024 0 .043.011.067.015 0-2.138.05-4.279-.012-6.416-.168-1.495-.257-2.998-.351-4.5v.004Z"/><path fill="#000" d="M101.259 107.35c4.081.248 7.482-3.911 6.422-7.834-1.285-5.413-8.627-6.629-11.61-1.92-2.66 4.05.311 9.658 5.188 9.754Zm.416-10.3-.109.097v-.008a.259.259 0 0 0-.019-.05c.043-.012.085-.028.128-.04ZM96.947 116.241c-2.065-.596-4.098-1.173-6.057-2.079-.49-.213-.958-.465-1.421-.724-.694-.407-2.033-1.367-2.411-.132-.09.461.226.817.654.929.436.217.845.481 1.274.709 2.313 1.266 4.907 2.041 7.447 2.761.973.306 1.472-1.111.514-1.464ZM99.373 117.02a.84.84 0 0 0-.56.185.78.78 0 0 0-.266.539c-.027.402.304.821.729.821.21 0 .397-.051.56-.186a.782.782 0 0 0 .266-.539c.027-.402-.304-.82-.729-.82ZM116.46 88.573c-2.126-1.293-4.475-2.285-6.94-2.714-.655-.097-1.336-.376-1.998-.217-.889.302-.542 1.645.373 1.498a19.684 19.684 0 0 1 7.685 2.715c.849.557 1.714-.705.876-1.278l.004-.004ZM117.971 89.928a.84.84 0 0 0-.561.186.78.78 0 0 0-.264.539c-.028.402.303.82.728.82a.84.84 0 0 0 .561-.185.78.78 0 0 0 .265-.539c.027-.402-.304-.82-.729-.82Z"/><path fill="#000" d="M226.856 243.019c-.81-1.343-2.123-2.3-3.213-3.407a132.699 132.699 0 0 1-2.376-2.49c-1.628-1.844-3.334-3.609-4.962-5.453-1.021-1.177-1.928-2.447-3.019-3.566-5.768-5.576-11.353-11.338-16.911-17.12a1.24 1.24 0 0 0-.366-.395c.148-.132.296-.263.444-.399.089-.058.163-.128.23-.205.089.077.183.151.272.228.596.454.951 1.437 1.784 1.441.125.093.257.182.405.236.911.368 1.963.124 2.832-.263.821-.314 1.285-1.111 1.503-1.925.549-1.947-.553-3.899-1.499-5.545-.974-1.332-2.205-2.447-3.428-3.547-2.263-1.975-5.71-5.332-8.865-3.342-1.959 2.432-1.951 3.907-.938 5.286-.335.286-.686.554-.993.871-.23.341-.721.674-1.048 1.042-.483.29-.943.631-1.367.991a.69.69 0 0 0-.355.55c-3.91 3.489-7.828 6.974-11.739 10.467-3.712 3.311-7.427 6.618-11.139 9.929a2.266 2.266 0 0 0-.327.29c-.993.887-1.991 1.774-2.984 2.665a.775.775 0 0 0-.163.213c-1.496-1.298-3.182-2.293-5.254-1.898-1.547.232-2.766 1.27-3.794 2.37-.857.771-1.476 1.758-1.644 2.908-.237.809.043 1.479.499 2.072a.744.744 0 0 0 .284.341c.047.05.09.1.137.151.331.418.72.805.891 1.32a.677.677 0 0 0 .289.322l-1.251 1.115a.646.646 0 0 0-.288.259c-1.527 1.363-3.057 2.723-4.584 4.086-4.853 4.329-9.71 8.658-14.563 12.984-4.44 3.961-8.884 7.919-13.324 11.88-.347.31-.694.62-1.04.926 1.02-2.87 2.177-5.685 3.571-8.399 1.554-3.28 3.144-6.541 5.029-9.647 5.546-9.646 12.093-18.738 16.829-28.845 4.425-8.341 7.338-17.689 7.482-27.176a2.57 2.57 0 0 0 .074-.845c.183-2.3.035-4.557.203-6.861 1.515.321 3.046.511 4.576.511h.016c1.799 0 3.607-.256 5.39-.848 2.976-.941 5.925-2.161 8.312-4.21 2.111-1.684 4.183-3.496 5.71-5.735 1.476-2.176 2.789-4.488 3.817-6.908.872-2.471 1.184-5.119 1.421-7.718.694-6.145-1.347-12.205-3.945-17.712-1.796-3.915-4.175-7.481-6.902-10.785 5.652.31 11.315-.174 16.795-1.75 7.12-2.087 14.995-5.204 18.508-12.179 1.437-2.757 2.653-5.692 2.882-8.821.296-2.672.472-5.41-.042-8.07-.507-2.579-1.219-5.135-2.217-7.567-1.141-2.358-2.804-4.453-4.483-6.455-3.883-4.832-9.635-7.683-15.384-9.75-3.12-1.158-6.341-1.929-9.609-2.417 2.434-2.501 4.623-5.227 6.481-8.194.02-.027.043-.05.063-.073a.757.757 0 0 0 .124-.217 43.77 43.77 0 0 0 1.025-1.743c3.552-6.482 6.901-14.223 4.424-21.627-.946-2.959-2.173-5.89-4.238-8.264-1.69-2.098-3.513-4.155-5.768-5.677-2.189-1.467-4.514-2.772-6.948-3.795-2.485-.867-5.149-1.177-7.763-1.413-6.181-.69-12.276 1.34-17.815 3.923-4.019 1.82-7.676 4.252-11.057 7.036a.846.846 0 0 0-.187.124l-.101.116c-2.361 1.967-4.592 4.1-6.707 6.324-.109.112-.215.228-.32.34.078-7.051-.627-14.153-3.123-20.802-2.08-5.716-4.947-11.44-9.808-15.296-2.013-1.669-4.12-3.323-6.492-4.457-2.45-.991-5.02-1.7-7.611-2.204-2.672-.507-5.425-.333-8.117-.042-3.143.228-6.095 1.437-8.872 2.865-7.019 3.497-10.154 11.323-12.25 18.402-1.43 4.91-1.967 9.975-1.83 15.04-2.244-1.545-4.604-2.916-7.108-4.05-5.535-2.58-11.634-4.612-17.812-3.923-2.613.236-5.277.546-7.762 1.413-2.434 1.023-4.756 2.328-6.948 3.796-2.255 1.521-4.074 3.578-5.769 5.676-2.064 2.37-3.29 5.302-4.237 8.264-2.477 7.404.876 15.145 4.424 21.627.277.496.561.984.853 1.468.113.418.452.898.861 1.367a48.599 48.599 0 0 0 5.079 6.455c-1.792.422-3.56.945-5.293 1.592-5.749 2.068-11.506 4.918-15.385 9.75-1.679 2.002-3.342 4.097-4.483 6.456-.997 2.435-1.71 4.991-2.216 7.566-.51 2.657-.335 5.395-.043 8.07.23 3.125 1.445 6.061 2.882 8.822 3.517 6.978 11.389 10.095 18.509 12.178 4.42 1.27 8.962 1.832 13.519 1.84-1.82 2.497-3.424 5.146-4.72 7.977-2.595 5.502-4.636 11.567-3.942 17.712.237 2.598.549 5.247 1.421 7.718 1.028 2.42 2.341 4.728 3.817 6.908 1.527 2.238 3.599 4.051 5.71 5.735 2.384 2.049 5.336 3.268 8.312 4.213 1.791.593 3.599.848 5.406.848 2.94 0 5.87-.681 8.7-1.707a1.33 1.33 0 0 0 .297-.113c2.559-.952 5.032-2.176 7.345-3.431.491-.267.974-.55 1.45-.836.178.774.381 1.549.607 2.319 2.1 7.079 5.235 14.909 12.25 18.402 2.772 1.429 5.725 2.637 8.872 2.866 2.687.294 5.44.468 8.117-.043 2.594-.503 5.164-1.212 7.61-2.203 2.372-1.135 4.479-2.789 6.493-4.457 4.861-3.861 7.727-9.581 9.807-15.296 1.032-2.742 1.753-5.561 2.244-8.423a52.138 52.138 0 0 0 6.161 5.383c.028.023.051.05.078.073.027.024.059.035.086.055a45.79 45.79 0 0 0 5.087 3.245c.685.371 1.382.739 2.091 1.095.02.303.121.632.207.907.011.062.019.12.031.178.023.689.28 1.537.245 2.064.062 1.285.047 2.579.047 3.868 0 6.576-1.644 12.922-3.474 19.223-2.45 8.538-6.875 16.368-11.623 23.854-4.393 7.078-9.028 14.022-13.051 21.317-1.005 2.2-2.104 4.38-2.925 6.661a46.016 46.016 0 0 0-1.535-3.942c-5.819-12.915-14.64-24.652-26.072-33.175-4.947-3.563-10.466-6.18-16.02-8.651-5.051-2.289-10.06-4.72-14.901-7.435-4.168-2.571-8.359-4.906-12.164-8.066-3.646-3.272-7.233-6.862-9.542-11.215-.207-.488-.561-.631-.88-.577-.597-.178-1.08.422-1.446.856-.884 1.011-1.896 1.921-2.62 3.063-.823 1.259-1.898 2.393-2.357 3.849-.88 2.072-1.196 4.318-2.17 6.351-1.534 4.508-3.053 9.108-3.458 13.875-.818 6.184-.48 12.461.903 18.545 1.071 5.107 2.618 10.138 4.838 14.87a79.55 79.55 0 0 0 1.67 2.97c.02.197.114.383.304.523 5.239 8.743 12.176 16.5 20.078 22.936 5.286 4.135 11.615 6.587 18.08 8.24 9.352 2.862 18.984 4.655 28.78 4.91 4.295.02 8.591-.151 12.864-.581 1.515-.073 3.202-.127 4.682-.6.646-.282 1.273-.639 1.998-.654.463 0 1.032-.027 1.324-.325.409-.117.795-.558 1.118-.837 1.406-1.251 2.808-2.505 4.214-3.756a96718.54 96718.54 0 0 0 20.744-18.495c6.076-5.421 12.156-10.835 18.232-16.256l2.715-2.42c.144-.132.307-.263.463-.403.841.883 1.796 1.642 3.046 1.735 1.157.081 2.255-.5 3.162-1.154 1.407-.794 2.392-2.145 3.144-3.539.592-1.325.264-2.916-.448-4.132-.125-.171-.261-.333-.401-.5.927-.828 1.854-1.653 2.78-2.478 2.454-2.192 4.912-4.38 7.37-6.572a.684.684 0 0 0 .272-.05c.962-.403 1.979-.743 3.034-.554 1.667.194 3.334.814 4.592 1.944 1.909 2.018 4.534 6.266 1.056 8.063-.619.344-1.25.693-1.94.871-.732-.058-1.071.805-.654 1.282a.665.665 0 0 0 .066.093 180.283 180.283 0 0 0 4.464 4.941c.907.906 1.686 1.998 2.703 2.772.837.364 1.117-.577 1.507-1.092.954-1.339 2.033-2.691 3.373-3.667.97-.476 2.134-1.057 3.244-.828 5.04 2.215 3.63 8.058-.062 10.858-1.574 1.223-3.252 2.358-5.192 2.908-.14.042-.28.07-.428.073a.719.719 0 0 0-.464.21c-.428.147-.685.642-.3 1.231 1.893 1.781 3.51 3.888 5.254 5.828 1.192 1.371 2.633 2.544 3.798 3.907.518.345 1.188-.073 1.231-.639 1.316-1.177 2.633-2.346 3.953-3.524 2.228-1.986 4.452-3.973 6.68-5.959l14.099-12.57c.277-.225.335-.616.191-.922a1.077 1.077 0 0 0-.066-.193l-.012.011Zm-37.165-42.642c.168-.682.557-1.286.943-1.867.179-.193.475-.228.72-.286 2.509-.089 4.729 2.331 6.509 3.864 1.071.957 2.138 1.933 2.979 3.179.986 1.759 2.501 5.089-.767 5.267-.541.008-.771-.655-1.301-.666-1.83-1.89-3.918-3.509-5.749-5.402-.829-.763-1.702-1.479-2.535-2.238-.479-.512-1.067-1.1-.799-1.855v.004Zm-8.907-120.718c5.005 1.642 9.873 3.888 13.865 7.346.97 1.065 2.034 2.219 2.933 3.291 1.274 1.63 2.571 3.284 3.471 5.15.471 1.097.821 2.235 1.164 3.374 1.566 4.561 1.511 9.498.573 14.149-2.259 7.551-5.71 11.342-12.869 14.599-3.903 1.564-7.938 2.866-12.082 3.609a64.009 64.009 0 0 1-14.73.279c-3.451-.457-6.863-1.201-10.251-1.998-7.494-2.018-14.711-4.922-21.695-8.256a141.314 141.314 0 0 1-7.143-3.919 1.068 1.068 0 0 0-.417-.345c-2.165-1.421-1.982-2.358-1.304-4.647.077-.209.171-.445.222-.673a23.599 23.599 0 0 0 1.951-4.961c.012-.023.027-.042.039-.062.475-.705.966-1.386 1.686-1.882 1.695-.825 3.439-1.127 5.36-1.398a.6.6 0 0 0 .171-.046c.214-.012.428-.027.647-.043.194.016.405.004.595-.038 7.868-.438 15.771-.426 23.67-.272 3.435.074 6.851.175 10.278.477 3.315.275 6.559 1.057 9.842 1.556 1.032.132 1.235-1.355.25-1.529-4.09-.674-8.152-1.568-12.308-1.758-8.257-.353-16.538-.597-24.799-.252-2.551.05-5.114.109-7.669.244-1.585-.035-3.17-.054-4.744-.422-1.047-.318-1.702-1.36-2.068-2.327-.043-.221-.082-.492-.148-.755-.265-1.728-.775-3.431-1.324-5.066a1.495 1.495 0 0 0-.273-.646 24.017 24.017 0 0 0-1.106-2.47 12.293 12.293 0 0 0-.21-.841c-.09-.573-.168-1.154-.249-1.754.261-1.855 1.986-3.102 3.591-3.911 4.857-1.813 9.854-3.354 14.96-4.283 6.621-1.29 13.336-1.96 20.078-2.072 6.754-.1 13.632.337 20.047 2.564l-.004-.012Zm-77.562 42.945c-6.279.534-12.522-1.929-16.974-6.223-1.948-1.878-3.556-4.109-4.67-6.595v-.093c-.425-1.336-.561-3.171 1.437-2.753.082.112.187.19.304.236 3.766 3.412 8.456 5.809 13.472 6.753 7.299 1.453 15.097-.209 21.2-4.402.218-.086.436-.217.639-.333 1.164-.643 3.092-.872 2.586 1.057-.031.333-.214.732-.288 1.096-3.564 6.319-10.326 10.838-17.706 11.253v.004Zm17.102-7.548-.02-.011c.004-.008.012-.012.016-.02 0 .012 0 .02.004.031Zm-2.964 4.903c-.004.027-.008.054-.016.085-.007-.019-.019-.035-.027-.054l.043-.031Zm-32.172-1.747c-.011.02-.027.039-.039.058v.004a.066.066 0 0 0-.015-.027.483.483 0 0 0 .054-.035Zm-.83-24.624c-.178.135-.354.279-.533.418a.778.778 0 0 0-.401.116c-.658.415-1.862.604-1.986-.437a5.969 5.969 0 0 1 .148-1.82c2.302-5.07 6.496-9.24 11.832-11.385.18.03.366.011.526-.09.156-.088.304-.181.452-.274a21.677 21.677 0 0 1 5.682-1.154 21.816 21.816 0 0 1 4.787.17c.027.012.055.02.082.031a.786.786 0 0 0 .463.047c1.792.306 3.506.84 5.118 1.556a.754.754 0 0 0 .499.295l.206.03a22.373 22.373 0 0 1 9.889 9.554.8.8 0 0 0 .152.294c.308.597.592 1.208.845 1.832 0 .089.016.174.047.26.101.75.284 1.641-.261 2.268-.561 1.019-1.53-.182-2.126-.561a.751.751 0 0 0-.331-.112c-9.691-8.392-24.842-8.992-35.093-1.038h.004Zm25.181.364c5.835 6.552 1.511 17.1-7.295 17.704-5.764.519-11.202-4.143-11.494-9.932-.623-10.154 11.957-15.39 18.793-7.772h-.004Zm-13.445-3.965a11.986 11.986 0 0 0-3.829 2.908c-5.823 6.51-2.933 16.481 4.608 19.466-4.608-.941-8.978-3.074-12.44-6.25a26.548 26.548 0 0 1-4.635-5.499c-.027-.046-.062-.085-.094-.12a.72.72 0 0 0 .21-.186c3.841-5.305 9.722-9.034 16.18-10.316v-.003Zm23.431 16.387a26.406 26.406 0 0 1-12.19 6.014c-.807.167-1.621.291-2.443.376 6.594-1.921 10.805-9.321 8.024-16.237-1.153-2.962-3.307-5.13-5.874-6.405 6.777 1.553 12.939 5.793 16.585 11.73a.085.085 0 0 0-.02.023 27.622 27.622 0 0 1-1.678 2.11 26.888 26.888 0 0 1-2.4 2.386l-.004.003Zm4.37-53.996c.378-1.402.896-2.823 1.453-4.17 1.527-3.88 4.082-7.265 6.77-10.444.038-.055.085-.101.132-.152 3.003-2.517 6.228-4.75 9.776-6.45 4.709-2.36 9.749-4.19 15.03-4.555 1.441.07 3.015.14 4.417.264 2.06.255 4.152.515 6.115 1.2 1.114.441 2.169 1 3.225 1.564 4.35 2.126 7.825 5.658 10.469 9.604 3.774 6.928 4.031 12.035 1.286 19.37-1.243 2.904-2.645 5.754-4.293 8.457a4.024 4.024 0 0 0-.416.523c-1.348 1.603-3.023 2.904-4.799 4.008-1.437.98-3.03 1.808-4.713 2.311a35.242 35.242 0 0 1-5.176 1.251c-.51.174-1.706.066-2.36.395l-.619.012c-8.888.201-17.804 1.278-26.396 3.605-2.321.709-4.662 1.386-6.952 2.196a.83.83 0 0 0-.281.05c-.366.128-.74.279-1.113.445-.164.055-.332.109-.495.167a.754.754 0 0 0-.288.089c-.09.03-.179.07-.269.104a28.94 28.94 0 0 1-1.48.492c-.292 0-.588.02-.865-.085-.175-.159-.335-.352-.378-.593.277-.74.982-1.246 1.477-1.85a1.28 1.28 0 0 0 .377-.415c2.014-1.92 4.055-3.814 6.033-5.77 3.615-3.35 7.362-6.556 11.046-9.832 4.44-3.845 9.029-7.43 13.765-10.94.518-.425.159-1.331-.495-1.339-.276-.02-.498.14-.697.314-.989.805-2.072 1.487-3.093 2.253-4.303 3.393-8.615 6.816-12.709 10.471-4.907 4.314-9.752 8.678-14.418 13.252a21.919 21.919 0 0 0-1.722 1.684c-.401.349-.794.709-1.211 1.034-1.028.775-1.811-.612-1.893-1.595.055-.306.117-.612.16-.93.066-.26.14-.542.144-.797.787-2.227 1.449-4.496 2.146-6.75 1.597-5.82 2.606-11.791 3.151-17.797.05-.24.097-.473.171-.659l-.012.008Zm-55.63-25.341c.748-4.12 2.053-8.128 3.63-12.012C75.171 7.907 78.984 4.477 86.58 2.23c4.678-.934 9.644-.992 14.232.569 1.149.34 2.29.69 3.392 1.158 1.877.894 3.541 2.184 5.18 3.45 1.079.894 2.24 1.952 3.311 2.916 3.478 3.969 5.733 8.81 7.388 13.786 2.24 6.381 2.684 13.216 2.579 19.93a118.373 118.373 0 0 1-.475 8.694v.008c-.094.314-.176.697-.09 1.003a110.076 110.076 0 0 1-1.515 10.258c-.717 3.888-1.792 7.714-3.073 11.458-.02.02-.043.035-.059.058-.214.33-.315.686-.518 1.065-.296.631-.708 1.414-1.223 1.936-1.199 1.546-2.445 1.286-4.093 1.05a24.344 24.344 0 0 0-6.111-1.867 12.773 12.773 0 0 0-2.029-.615c-.503-.182-.834-.43-1.332-.674-2.267-.945-3.038-4.314-3.517-6.494a.697.697 0 0 0-.059-.159c-.241-1.402-.479-2.807-.751-4.217a326.994 326.994 0 0 1-2.762-18.85c-.245-3.28-.728-6.537-.911-9.817-.02-2.498.093-5 .28-7.49.117-.604.175-1.13-.569-1.335-.872-.136-.989.86-1.012 1.502-.323 4.144-.394 8.302.195 12.427.334 3.23.576 6.47 1.086 9.68.647 5.406 1.562 10.824 2.524 16.21.07.376.136.752.206 1.131-.007.031-.019.062-.023.093.168 2.107.923 4.271.086 6.347-.41 1.53-1.916 2.378-3.136 3.237-.019.012-.035.023-.054.031a22.941 22.941 0 0 0-4.69 2.273c-1.258.484-2.496 1.139-3.894.992-2.123-.496-3.346-2.401-4.448-4.132a133.026 133.026 0 0 1-2.38-4.4c-3.353-6.946-6.278-14.118-8.304-21.569-.802-3.368-1.55-6.76-2.01-10.192a62.886 62.886 0 0 1 .28-14.645h-.015ZM23.81 71.206c-1.846-2.92-3.396-6.022-4.755-9.197-2.746-7.335-2.49-12.442 1.285-19.37 2.645-3.95 6.115-7.482 10.47-9.604 1.055-.565 2.11-1.123 3.224-1.564 1.967-.686 4.059-.945 6.115-1.2 1.398-.124 2.972-.194 4.417-.264 4.709.325 9.223 1.816 13.48 3.807.14.112.308.205.475.267 4.814 2.463 6.832 5.785 8.386 10.808 0 .008.012.02.015.027.764 4.713 2.014 9.36 3.584 13.817a118.434 118.434 0 0 0 7.622 17.689.82.82 0 0 0 .187.584c.097.147.19.295.284.446 0 .011.004.019.008.03.012.024.02.051.031.074.016.07.035.14.063.21.105.483.007 1.122-.553 1.122-.573-.182-.99-1.003-1.5-1.417a61.193 61.193 0 0 0-2.75-2.839c-2.882-2.869-6.224-5.471-9.449-7.984-4.475-3.753-9.417-6.99-14.492-9.917-.822-.368-2.552-1.87-3.148-.57-.276.984.904 1.023 1.5 1.417 3.494 1.956 6.874 4.12 10.166 6.398 2.434 1.72 4.709 3.686 7.077 5.514 3.579 2.691 6.882 5.72 9.908 9.003.117.206.277.4.428.566.694.917 1.944 2.315.39 3.14a4.97 4.97 0 0 0-1.55-.36H74.607c-1.119-.345-2.244-.678-3.362-1.022-8.588-2.328-17.508-3.404-26.396-3.605-2.999-.078-6.013-.028-9.005.224a2.571 2.571 0 0 0-.377-.015c-.974-.05-2.045-.082-3.058-.314-3.567-.682-6.267-3.28-8.596-5.894l-.004-.007Zm3.377 61.609c-4.144-.743-8.175-2.041-12.082-3.609-7.158-3.257-10.61-7.048-12.868-14.599-.939-4.651-.997-9.588.572-14.15.343-1.142.694-2.276 1.165-3.372.9-1.867 2.197-3.52 3.47-5.15.9-1.073 1.963-2.227 2.933-3.292 3.992-3.458 8.86-5.7 13.866-7.346 3.66-1.27 7.474-1.96 11.326-2.296.136.003.273.011.413.015a.687.687 0 0 0 .487-.089c2.601-.194 5.219-.236 7.82-.194 6.743.113 13.457.783 20.079 2.072 3.158.577 6.27 1.386 9.335 2.347a.832.832 0 0 0 .374.19c.098.007.191.011.289.019l.187.062c1.086.573 2.27.976 3.36 1.549 1.154.519 2.505 1.069 3 2.327.187.836-.238 1.685-.347 2.513-.109.271-.222.628-.237.957a22.731 22.731 0 0 0-1.952 6.172c-.226.306-.397.717-.565 1.003a3.856 3.856 0 0 1-1.526 1.468c-1.328.565-2.816.554-4.234.5-.105 0-.206.015-.308.046-.14-.012-.276-.027-.416-.039a.845.845 0 0 0-.464.074c-9.277-.29-18.567 1.115-27.805 1.87-4.97.376-9.971.686-14.84 1.812-.86.186-1.721.353-2.586.504-.662.124-.787 1.092-.218 1.413.187.113.39.128.596.089a74.273 74.273 0 0 0 2.586-.507 54.3 54.3 0 0 1 5.165-.906c4.097-.569 8.241-.724 12.358-1.096 5.745-.585 11.482-1.262 17.25-1.58 3.202-.046 6.42-.116 9.617.054.495.074.99.159 1.484.237 1.893.321 3.1 1.301 3.957 2.819a23.953 23.953 0 0 0 3.447 8.774c.039.221.12.446.199.639.14.728.455 1.464.303 2.212-.607 1.761-2.321 2.9-3.824 3.887-.413.268-.838.515-1.266.756-.335.228-.775.348-1.083.627-.779.418-1.562.832-2.353 1.235-6.987 3.334-14.2 6.242-21.694 8.256-3.388.798-6.8 1.541-10.251 1.998a63.96 63.96 0 0 1-14.73-.279l.011.008Zm40.565 36.919c-.058.252-.07.527-.07.759-.498 6.115-1.975 9.089-7.56 12.016a3.675 3.675 0 0 0-.728.411c-7 2.451-12.035 2.103-18.773-1.526-3.973-2.629-7.525-6.079-9.66-10.409-.568-1.049-1.13-2.099-1.577-3.206-.69-1.952-.95-4.035-1.207-6.08-.125-1.39-.195-2.954-.265-4.391.354-5.1 2.107-9.971 4.377-14.533.106-.101.187-.229.242-.372.448-.701.978-1.351 1.515-1.986 3.322-3.764 7.673-5.015 12.339-6.312.343-.097.857-.171 1.2-.384 3.91-.763 7.758-1.839 11.474-3.132a119.72 119.72 0 0 0 17.534-7.443.881.881 0 0 0 .219.046h-.043c.19.031.393.066.6.031.109.047.218.082.303.171-.26.596-.946.89-1.382 1.351a.88.88 0 0 0-.277.229 41.691 41.691 0 0 0-5.266 4.945c-3.42 3.535-6.843 7.125-9.565 11.233-1.255 1.743-2.72 3.563-3.93 5.375-.398.779-1.917 2.134-.694 2.812.382.17.83-.024 1.013-.399.358-.678.806-1.313 1.239-1.944 1.336-1.963 2.948-3.849 4.253-5.859 2.52-3.543 5.566-6.792 8.596-9.921 1.943-2.157 4.054-4.136 6.395-5.824a1.91 1.91 0 0 0 .635-.283c.354-.132.76-.403 1.141-.302.066.039.152.081.171.174.086.287.156.562.14.86-.132.294-.143.643 0 .906 0 .012-.007.023-.011.035a118.476 118.476 0 0 0-7.988 18.371c-2.758 7.833-4.538 16.256-4.39 24.597v-.016Zm53.967 10.014c-1.651 4.976-3.91 9.817-7.388 13.786-1.071.964-2.232 2.022-3.311 2.916-1.64 1.266-3.303 2.556-5.18 3.45-1.102.469-2.247.817-3.392 1.158-4.589 1.557-9.555 1.503-14.232.569-7.595-2.246-11.408-5.676-14.684-12.794-1.573-3.88-2.882-7.892-3.63-12.012a62.879 62.879 0 0 1-.28-14.645c.46-3.431 1.207-6.824 2.01-10.193 2.029-7.45 4.95-14.626 8.303-21.569.538-1.041 1.09-2.071 1.652-3.094.288-.364.506-.859.74-1.169.448-.79.93-1.425 1.491-2.169 1.726-2.056 2.618-3.686 5.652-2.989.128.069.265.1.401.108a22.95 22.95 0 0 0 4.596 2.014c.07.089.167.17.296.228 2.084.798 2.535 2.614 2.33 4.659a228.576 228.576 0 0 1-.29 3.71l-.128.801c-.49 3.23-.802 6.479-1.024 9.735-.83 9.48-.697 19.01-.444 28.509.016.422.444.739.849.701.44-.043.717-.422.705-.845-.039-1.181-.078-2.362-.113-3.547-.07-8.259-.203-16.589.573-24.833.225-3.35.557-6.692 1.082-10.006.012-.059.024-.117.031-.179.195-.437.23-1.041.347-1.44.288-1.278.814-2.73 1.57-3.853 1.336-1.785 3.56-2.153 5.608-2.777a.684.684 0 0 0 .277-.174 23.144 23.144 0 0 0 4.592-1.386c.382.023.833-.12 1.168-.233 4.464-1.835 5.258 1.212 6.657 4.655.023.035.05.066.078.093 1.507 4.209 2.777 8.519 3.587 12.914 1.297 6.583 1.971 13.259 2.084 19.963.101 6.714-.339 13.553-2.579 19.931l-.004.007Zm11.003-1.932c-.159-.12-.319-.248-.475-.368l-.054-.054c-.386-.325-.69-.585-1.064-1.018a20.982 20.982 0 0 1-3.046-4.709c-1.476-3.129-1.46-6.68-2.087-10.026a1.505 1.505 0 0 0-.125-.585 70.595 70.595 0 0 0-.031-1.785c-.203-8.837-1.285-17.7-3.626-26.243-.795-2.563-1.546-5.158-2.485-7.675-.047-.186-.105-.364-.156-.523-.23-.832-.623-1.99-.748-3.098a.66.66 0 0 0 .024-.178c.148-.348.483-.627.763-.883 1.398.182 2.481 1.348 3.576 2.15l-.082-.055a.607.607 0 0 0 .121.078c.724.681 1.441 1.429 2.15 2.122a83.678 83.678 0 0 1 5.729 6.002c1.667 1.82 3.416 3.563 4.911 5.53 4.082 5.251 7.771 10.788 11.159 16.504.522.891 1.838.108 1.359-.755a73.722 73.722 0 0 0-1.375-2.289c-3.034-4.867-6.192-9.65-9.729-14.169-2.543-3.245-5.484-6.157-8.226-9.236-1.612-1.572-3.19-3.183-4.822-4.735a.829.829 0 0 0-.144-.155c-.619-.608-1.18-1.259-1.756-1.906-.187-.213-.452-.592-.402-.906.433-.12.865-.066 1.317.035a.908.908 0 0 0 .28.02c7.066 4.089 14.54 7.481 22.298 10.06a86.53 86.53 0 0 0 8.69 2.533c.019.007.031.019.05.023 4.904 1.494 9.259 4.286 12.97 7.776 1.621 1.618 2.941 3.45 4.308 5.278 2.103 4.356 3.696 8.987 4.031 13.828-.07 1.436-.14 3.001-.265 4.391-.257 2.049-.518 4.128-1.207 6.08-.444 1.107-1.005 2.157-1.574 3.206-2.134 4.326-5.69 7.78-9.659 10.409-6.964 3.749-12.105 4.008-19.482 1.278-3.875-1.638-7.649-3.555-11.108-5.94l-.008-.012Zm-8.576-56.223.035.023.054.047c-.023-.02-.046-.035-.074-.055-.004-.003-.007-.007-.015-.011v-.004Zm-12.659 135.189c.02-.023.043-.043.059-.066-.02.027-.039.046-.062.07l.003-.004Zm-54.263-43.077c1.83.86 3.556 1.654 5.2 2.409-.117.395-.008.914-.101 1.313-.129 3.202.455 6.385.751 9.568.21.996 1.69.709 1.531-.294-.276-3.218-.93-6.444-.681-9.685.015-.062.023-.131.03-.197.667.306 1.325.612 1.964.91.007.271.074.569.097.832.183 1.902.386 3.834.452 5.782.284 2.095.487 4.201.662 6.312a493.91 493.91 0 0 0 3.4 19.056c1.87 9.046 3.969 18.068 7.268 26.712-3.198-1.607-6.255-3.416-9.313-5.337a101.683 101.683 0 0 1-13.379-9.487c-.116-.379-.303-.774-.381-1.092a97.996 97.996 0 0 1-.947-2.966c-1.07-3.439-2.01-6.819-2.804-10.347-2.236-9.701-3.899-19.54-5.827-29.306-.498-2.335-1.036-4.663-1.433-7.017-.401-1.762-.841-3.462-1.013-5.29 4.686 2.982 9.508 5.731 14.52 8.128l.004-.004Zm-31.56-18.455c.117-1.739.592-3.404 1.138-5.054 1.429 2.533 3.412 4.755 5.363 6.901 2.637 2.784 5.562 5.305 8.806 7.369a.76.76 0 0 0 .098.476c.167 1.789.436 3.563.919 5.294.315 1.351.53 2.95.853 4.356 1.11 4.666 1.846 9.406 2.765 14.111 2.018 10.37 3.922 20.799 7.163 30.867-5.184-4.639-9.866-9.828-13.847-15.532-7.513-10.247-11.501-18.87-13.152-31.552-.659-5.716-1.305-11.548-.106-17.24v.004Zm-2.975 54.922c3.579 1.483 7.162 3.117 11.042 3.632.214.027.432.07.65.035.767-.12.834-1.29.09-1.495-.663-.097-1.329-.19-1.987-.337-3.435-.635-6.531-2.292-9.791-3.466-.265-.124-.57-.302-.861-.387a.862.862 0 0 0-.187-.035 42.572 42.572 0 0 1-1.893-4.627c-2.91-8.57-4.693-17.697-3.482-26.774.253-4.407 1.725-8.581 2.948-12.787.32-.933.74-1.82 1.099-2.737.58-1.851 1.032-3.733 1.807-5.526.716-1.266 1.612-2.432 2.485-3.602-.296 1.244-.436 2.518-.616 3.788-.155.743-.338 1.479-.397 2.238-.362 4.949.016 9.948.67 14.866 1.538 11.85 5.476 21.194 12.588 30.801 4.105 6.111 9.001 11.656 14.466 16.593-6.419-.89-12.729-2.618-18.797-4.875-3.065-1.019-6.13-2.111-8.935-3.714a64.378 64.378 0 0 1-.9-1.599v.008Zm29.674 29.499a1.07 1.07 0 0 0-.179-.019 40.067 40.067 0 0 1-2.212-1.011 45.46 45.46 0 0 1 1.76-.286 56.003 56.003 0 0 0 4.304-.755c.468.058.978-.066 1.091-.589.163-1.204-1.355-1.022-2.115-.786-1.114.259-2.247.407-3.377.577-1.164.17-2.321.376-3.478.589-.148 0-.3.015-.44.054a38.563 38.563 0 0 1-5.683-3.989c-4.525-3.981-8.83-8.275-12.483-13.077-1.546-1.955-3.03-3.969-4.39-6.052 2.283 1.065 4.694 1.886 7.078 2.691 6.796 2.505 13.881 4.418 21.106 5.119l.401.337c.098.19.265.325.464.391a104.72 104.72 0 0 0 14.064 9.898 106.034 106.034 0 0 0 8.234 4.736c-1.683.43-3.393.809-5.118.957-3.856.213-7.607 1.037-11.463 1.274-2.523-.14-5.044.108-7.564-.059Zm48.846 5.995c-.791.534-1.66.925-2.54 1.289a2.566 2.566 0 0 0-.6.248c-.6.016-1.195.035-1.79.124-10.35.558-20.772-.705-30.759-3.469-3.201-.872-6.177-1.662-9.02-2.599 1.196-.031 2.391-.066 3.583.02 2.707-.159 5.379-.667 8.066-.969 1.57-.22 3.233-.255 4.814-.457 1.605-.302 3.202-.689 4.795-1.049.276-.077.573-.147.845-.263 4.397 2.11 8.974 3.841 13.726 4.984 1.951.363 3.844.979 5.807 1.277 1.242.186 2.493.349 3.739.519-.226.113-.452.229-.67.345h.004Zm.709-2.056c-.612-1.228-1.231-2.459-1.768-3.722-.834-2.048-1.668-4.12-2.112-6.292-.19-.705-.276-2.064-1.332-1.778-.646.225-.572.891-.358 1.406.748 3.597 2.17 7.009 3.794 10.297-.771-.109-1.543-.217-2.314-.337-5.64-1.158-11.229-2.661-16.467-5.081a60.96 60.96 0 0 1-1.546-.701c-.055-.414-.27-.875-.41-1.212-.241-.623-.482-1.196-.708-1.831-1.656-4.338-2.851-8.829-4.028-13.314-2.399-9.514-4.058-19.245-5.756-28.911-.417-2.614-.475-5.266-.888-7.88a83.38 83.38 0 0 0-.433-5.573c0-.05-.007-.108-.011-.162 8.269 3.934 14.648 7.71 22.543 16.469a79.286 79.286 0 0 1 1.601 1.793.79.79 0 0 0 .012.391c.557 2.66.467 5.367.927 8.07.743 4.461 1.6 8.907 2.917 13.244 1.324 4.643 2.403 9.359 4.012 13.917 1.339 3.915 2.866 7.753 4.346 11.652-.654-.093-1.305-.182-1.959-.267a.62.62 0 0 0-.058-.159l-.004-.019Zm3.906 2.927c-1.199.24-2.418.287-3.634.36.76-.395 1.574-.735 2.252-1.223.888.127 1.772.263 2.656.414-.417.174-.837.356-1.274.449Zm3.272-1.649c-.023-.004-.043-.012-.066-.016a74.286 74.286 0 0 0-3.342-.577v-.015c-1.566-4.221-3.237-8.272-4.693-12.586-1.597-4.596-2.692-9.336-4.024-14.01-1.823-6.111-2.855-12.345-3.412-18.696a81.823 81.823 0 0 1 7.666 11.389c2.527 4.372 4.728 8.98 6.064 13.871.9 3.171 1.363 6.432 1.445 9.727.093 1.503.183 3.005.35 4.5.067 2.137.016 4.279.012 6.416v-.003Zm2.913-16.392c-1.799-.957-1.967-3.454-2.048-5.278-.039-2.285.888-4.442 1.632-6.576v-.007a.682.682 0 0 0 .093-.287l.059-.12c1.051-2.42 2.527-4.62 3.863-6.889 1.807-2.908 3.583-5.828 5.402-8.732 4.69-7.408 9.574-14.723 13.056-22.801 1.788-3.787 2.933-7.837 4-11.876 1.605-5.553 2.586-11.281 2.504-17.07a.79.79 0 0 0 .098-.275c.035-.282-.02-.433 0-.767.058-.507.432-.917.736-1.305.923-.925 2.559-.468 3.525.19 1.032.848 1.273 2.157 1.456 3.427.016 2.393-.062 4.787-.202 7.176-.799 11.946-6.407 22.886-12.288 33.116-1.582 2.607-3.058 5.275-4.713 7.834-2.586 3.985-5.13 8.101-7.474 12.245-2.696 4.6-4.912 9.476-7.089 14.339-.343.922-.678 1.844-1.009 2.773a.978.978 0 0 0-.128.155c-.273.259-.612.461-.912.693-.191.077-.339.039-.565.027l.004.008Zm42.521-23.006c-7.144 6.37-14.287 12.736-21.43 19.102-4.004 3.571-8.012 7.141-12.016 10.711-.471.059-.782.554-1.137.848-.709.678-1.449 1.356-2.247 1.941-.257.058-.436.228-.608.41a9.38 9.38 0 0 1-.74.426c-1.048.391-2.228.786-3.346.496-.023-.024-.046-.043-.07-.07-.081-.155-.163-.31-.241-.465-.035-.368-.008-.809.082-1.34.42-2.536 1.215-5.123 2.777-7.214.335-.395 1.028-.883 1.176-1.398 4.354-3.884 8.709-7.764 13.063-11.648 4.842-4.322 9.683-8.631 14.524-12.949 1.726-1.541 3.455-3.083 5.184-4.62.39.023.775.089 1.165.12 1.258.229 2.251 1.007 2.913 2.025-.409.291-.744.81-1.122 1.077-2.072 1.739-4.093 3.628-6.107 5.46-1.585 1.123-2.855 2.579-4.265 3.899-.529.666-2.196 1.41-1.433 2.401.281.299.802.337 1.102.039.74-.732 1.539-1.409 2.275-2.145 1.137-1.243 2.423-2.32 3.743-3.365 1.854-1.735 3.63-3.369 5.597-5.011.296-.306.611-.573.907-.856a6.03 6.03 0 0 1 .254 2.099c0 .008 0 .015.003.023l-.003.004Zm11.182-4.407c-.923 1.747-2.528 3.33-4.507 3.791-.923.054-1.659-.557-2.228-1.212-.786-.778-1.476-1.646-2.247-2.439-1.192-1.383-2.582-2.727-3.848-4.059-.779-.805-1.558-1.611-2.352-2.404-.211-.233-.441-.5-.772-.527l-.015-.012c-.631-.577-.183-1.553.144-2.188.861-1.022 1.815-2.126 3.085-2.644 2.971-1.092 5.11 1.932 7.041 3.674 1.095 1.011 2.139 2.064 3.202 3.102 1.328 1.27 3.272 2.846 2.501 4.918h-.004Zm3.77-8.926c-.39.349-.779.697-1.172 1.046a.832.832 0 0 0-.25.085c-.342.217-.767.232-1.106.465-.565.077-1.145.182-1.721.17-.721-.186-1.461-.418-2.018-.929-.273-.314-.499-.67-.767-.992-1.052-1.653-.88-2.753.436-4.197.132-.151.304-.244.425-.395 4.35-3.88 8.705-7.757 13.055-11.637 3.739-3.334 7.478-6.664 11.213-9.998.047-.027.094-.058.141-.085 1.554-1.154 3.357-.229 4.397 1.134 1.262 1.39 1.928 2.846.537 4.446 0 0-.035.046-.07.085a.717.717 0 0 0-.163.352c-3.019 2.692-6.037 5.379-9.052 8.07-4.627 4.128-9.258 8.252-13.885 12.38Zm44.074 21.643c-4.144 3.698-8.296 7.392-12.44 11.091a48.212 48.212 0 0 1-1.792-1.739c-1.971-1.96-3.599-4.225-5.558-6.192 1.901-.624 4.534-2.42 5.091-2.924 1.764-1.204 2.902-3.04 3.708-4.972 1.277-3.167-.23-7.028-3.358-8.465-1.051-.647-2.329-.391-3.439-.031-2.469.744-4.097 2.901-5.546 4.899a241.185 241.185 0 0 1-5.464-5.975 12.047 12.047 0 0 0 1.686-.879c3.517-2.037 2.22-6.309.144-8.934a7.658 7.658 0 0 0-2.002-2.072.775.775 0 0 0-.199-.329c-1.281-1.193-2.27-1.843-1.526-3.775 1.468-2.758 4.078-4.794 6.726-6.382 2.734-1.685 6.528-3.028 9.433-1.003.098.093.211.159.328.205 3.112 3.187 6.243 6.355 9.343 9.553 1.352 1.29 2.774 2.513 4.02 3.908 3.011 3.702 6.267 7.206 9.554 10.668.978 1.018 2.072 1.832 2.948 2.958l-11.661 10.398.004-.008Z"/><path fill="#000" d="M140.928 210.483c.378.155.88-.019 1.016-.418.401-1.107.678-2.25.982-3.388.755-2.618 1.289-5.309 1.48-8.028.051-.79.066-1.58.089-2.369-.046-.821.378-2.409-.821-2.518a.787.787 0 0 0-.74 1c.202 4.968-.896 9.87-2.388 14.583-.202.414-.078.956.378 1.135l.004.003ZM139.962 214.588a.784.784 0 0 0 .771-.782.784.784 0 0 0-.787-.767.784.784 0 0 0-.771.783.784.784 0 0 0 .787.766ZM116.585 253.339c.903.337 1.114-.716 1.41-1.316.448-.841.907-1.677 1.371-2.51.693-1.235 1.382-2.478 2.286-3.578.502-.553 1.094-1.665.07-2.013a.792.792 0 0 0-.966.581c-.919 1.243-1.811 2.501-2.531 3.876-.538.941-1.06 1.893-1.574 2.85-.288.643-.997 1.673-.066 2.11ZM115.03 257.103a.784.784 0 0 0 .772-.782.785.785 0 0 0-.787-.767.783.783 0 0 0-.771.782.784.784 0 0 0 .786.767ZM154.739 232.37c-.6-.557-1.92-1.409-2.252-.159-.074.407.222.794.62.883.759.535 1.519 1.116 2.134 1.813.631.805 1.842-.078 1.262-.906-.495-.636-1.137-1.131-1.764-1.631ZM158.373 236.901a.785.785 0 0 0-.795.759c-.008.414.339.79.764.79a.784.784 0 0 0 .794-.759c.008-.415-.339-.79-.763-.79ZM198.248 207.39c.503.882 1.831.174 1.371-.736-.304-.604-.767-1.088-1.192-1.611-.471-.48-1.227-1.859-2.083-1.135-.748.763.374 1.429.798 2.014.327.414.845.956 1.106 1.468ZM194.692 202.936a.785.785 0 0 0 .795-.759c.008-.414-.339-.79-.764-.79a.784.784 0 0 0-.794.759c-.008.415.339.79.763.79ZM188.733 210.778c-.475-.395-1.028-.062-1.336.36-.798.774-1.639 1.537-2.422 2.331-1.375 1.402-2.746 2.808-4.234 4.093-1.437 1.189-2.859 2.386-4.043 3.838-.284.317-.214.828.105 1.092.935.658 1.515-.732 2.119-1.239.982-1.085 2.208-1.89 3.268-2.893 2.274-2.107 4.424-4.341 6.648-6.494.285-.314.215-.829-.105-1.092v.004ZM174.361 223.832a.784.784 0 0 0-.794.759c-.008.414.338.789.763.789a.784.784 0 0 0 .794-.758c.008-.415-.338-.79-.763-.79ZM138.657 255.473a.785.785 0 0 0-.795.759c-.007.414.339.79.764.79a.784.784 0 0 0 .794-.759c.008-.414-.338-.79-.763-.79ZM201.516 221.613c-.284-.395-.596-.961-1.176-.829-.612.105-.873.941-.374 1.348 2.368 3.04 5.27 5.626 7.61 8.689.69.748 1.827-.275 1.161-1.034-2.224-2.877-4.884-5.382-7.217-8.174h-.004ZM210.264 232.084c-1.2.023-1.036 1.665.148 1.564 1.199-.023 1.04-1.669-.148-1.564ZM205.403 242.919c-.452.217-.541.786-.28 1.185 1.008 2.737.452 5.735-.978 8.213-.537.678-1.102 1.336-1.636 2.017-.436.527-1.266 1.123-.553 1.801 1.025.829 2.1-1.468 2.769-2.068 1.149-1.169 1.617-2.757 2.123-4.271.456-1.448.448-3.005.187-4.492-.249-.829-.312-2.862-1.632-2.389v.004ZM200.129 256.751c-.424 0-.751.418-.728.821a.785.785 0 0 0 .269.538c.16.135.35.186.557.186.424 0 .752-.418.728-.821a.783.783 0 0 0-.269-.538.824.824 0 0 0-.557-.186ZM64.035 231.073c.425 0 .752-.418.729-.821a.783.783 0 0 0-.269-.538.826.826 0 0 0-.557-.186c-.425 0-.752.418-.728.821a.783.783 0 0 0 .268.538c.16.136.351.186.557.186ZM77.122 258.095c-.25-1.011-.522-2.014-.779-3.021-.985-4.484-1.679-9.038-2.267-13.588-.218-.995-1.702-.701-1.53.298.202 2.13.572 4.24.965 6.343.413 3.462 1.169 6.897 2.084 10.262.234 1.003 1.71.693 1.53-.294h-.003ZM77.064 260.689c-.425 0-.752.418-.729.821a.782.782 0 0 0 .269.538c.16.136.35.186.557.186.424 0 .752-.418.728-.821a.783.783 0 0 0-.268-.538.826.826 0 0 0-.557-.186ZM95.19 268.461c-.424 0-.751.418-.728.821a.783.783 0 0 0 .269.538c.16.136.35.186.557.186.424 0 .752-.418.728-.821a.783.783 0 0 0-.269-.538.826.826 0 0 0-.556-.186ZM40.88 223.173c.658 2.699 1.38 5.398 2.096 8.101.241.999 1.714.682 1.526-.306-.724-2.757-1.433-5.355-2.107-8.163-.28-1.026-.428-2.075-.654-3.113-.105-.406-.487-.693-.92-.608-.4.081-.716.504-.61.914.221 1.057.393 2.126.67 3.175ZM43.72 233.118a.779.779 0 0 0-.254.526c-.027.403.308.821.733.821a.803.803 0 0 0 .568-.201.78.78 0 0 0 .253-.527c.028-.403-.307-.821-.732-.821a.8.8 0 0 0-.568.202ZM37.227 254.632a.803.803 0 0 0 .569-.201.779.779 0 0 0 .253-.527c.027-.402-.308-.821-.733-.821a.804.804 0 0 0-.568.202.779.779 0 0 0-.253.527c-.027.402.307.82.732.82ZM59.53 277.057c.424 0 .759-.406.74-.813-.024-.437-.394-.735-.819-.735-.424 0-.76.406-.74.813.024.437.394.735.818.735ZM119.619 152.843c.822 7.516.455 15.195-1.609 22.499-.654 2.118-1.347 4.279-2.356 6.261-.265.786-1.589 2.099-.538 2.73.974.442 1.251-.828 1.621-1.452.934-1.684 1.596-3.497 2.2-5.317 2.676-8.077 3.155-16.748 2.197-25.159-.281-1.095-1.796-.635-1.511.434l-.004.004ZM113.434 185.906c-.425 0-.76.41-.737.817.024.437.398.731.822.731.425 0 .76-.41.736-.817-.023-.437-.397-.731-.821-.731ZM160.893 138.856c.919 1.15 2.025 2.122 3.073 3.144 2.851 3.183 5.195 6.975 5.873 11.242a.789.789 0 0 0 .911.616.784.784 0 0 0 .62-.907c-.378-2.242-1.149-4.399-2.224-6.404-1.2-2.084-2.618-4.09-4.273-5.836-.88-.871-1.823-1.658-2.602-2.633-.187-.229-.413-.531-.712-.628-.888-.302-1.445.91-.67 1.402l.004.004ZM170.657 157.351c-.424 0-.759.41-.736.817.023.437.397.732.822.732.424 0 .759-.411.736-.818-.023-.437-.397-.731-.822-.731ZM156.881 80.588c-2.571-.112-5.149.031-7.712.252-2.368.271-4.748.298-7.081.836-.685.058-1.729.244-1.453 1.174.141.399.624.635 1.017.464 1.044-.158 2.06-.356 3.19-.55 4.604-.332 9.176-.975 13.811-.495.425.03.795-.33.814-.74-.027-1.192-1.772-.77-2.586-.94ZM161.123 82.428c-.016.406.319.809.744.809.424 0 .794-.306.814-.74.015-.406-.32-.809-.744-.809-.425 0-.795.306-.814.74ZM155.342 30.971c4.846-.36 9.862.512 14.115 2.905.355.228.849.147 1.083-.21.608-1.115-1.09-1.479-1.807-1.897-1.04-.445-2.08-.902-3.147-1.278-2.076-.577-4.23-.91-6.38-1.096-1.577-.035-3.248-.224-4.771.233-.39.166-.541.666-.362 1.034.245.522.81.46 1.269.31ZM173.216 37.725c.206 0 .397-.047.557-.186a.788.788 0 0 0 .272-.538c.028-.403-.303-.821-.728-.821-.206 0-.397.046-.557.186a.789.789 0 0 0-.273.538c-.027.403.304.82.729.82ZM72.55 47.669c.385.159.856-.05 1.008-.442a.764.764 0 0 0-.023-.607c-.183-.562-.285-1.027-.417-1.62-.713-2.892-.42-5.885-.42-8.836.054-1.37.105-2.835.338-4.21.183-1.018.386-2.028.674-3.024.117-.406-.18-.836-.576-.933-.429-.1-.822.17-.94.573-1.171 3.865-1.07 7.93-1.097 11.923-.043 1.65.116 3.3.522 4.903.237.631.202 1.917.938 2.269l-.008.004ZM74.123 26.313c.424 0 .767-.388.755-.798a.79.79 0 0 0-.802-.751c-.424 0-.767.387-.755.797a.79.79 0 0 0 .802.752ZM23.377 59.964a75.379 75.379 0 0 1-.55-2.099c-.089-.41-.521-.674-.934-.58a.786.786 0 0 0-.584.929c.378 1.754.95 3.43 1.78 5.06.681 1.58 1.398 3.242 2.302 4.73.522.886 1.838.158 1.37-.737-1.331-2.343-2.387-4.747-3.388-7.303h.004ZM22.313 54.28c.452-.423.18-1.011-.21-1.364-.276-.321-.806-.305-1.102-.023-.452.426-.18 1.015.21 1.363.28.318.806.306 1.102.023ZM41.278 128.157c3.29.282 6.586.031 9.861-.306 1.624-.109 3.182-.573 4.748-.988.78-.248 1.675-.31 2.333-.828.316-.283.312-.798.027-1.096-.37-.399-.849-.202-1.246.015-1.507.426-3.03.829-4.557 1.177-2.181.306-4.386.446-6.586.585-1.523.062-3.046-.023-4.565-.108-.424-.027-.783.364-.787.766-.004.442.347.756.772.783ZM36.678 126.205c-.253-1.011-2.041-.585-1.768.434.257 1.01 2.04.584 1.768-.434ZM32.358 158.423c-.046-.813.359-2.513-.849-2.571-1.121.108-.615 1.405-.69 2.153-.502 3.961.71 7.853 2.108 11.524.245.62 1.227.577 1.433-.046.16-.457-.128-.794-.264-1.236-1.075-3.059-2.174-6.498-1.738-9.824ZM36.304 172.174c-.425 0-.764.395-.752.802.016.433.386.747.806.747.42 0 .764-.395.752-.802-.016-.433-.386-.747-.806-.747ZM54.758 151.708c-.425 0-.764.395-.752.802.016.434.386.747.806.747.421 0 .764-.395.752-.801-.016-.434-.386-.748-.806-.748ZM43.849 55.55c.424 0 .763-.395.751-.802-.015-.434-.385-.747-.806-.747-.42 0-.763.395-.752.801.016.434.386.747.806.747ZM156.122 49.327c-.425 0-.764.395-.752.801.016.434.386.748.806.748.421 0 .764-.395.752-.802-.016-.434-.386-.747-.806-.747ZM149.266 157.761c.425 0 .764-.395.752-.802-.015-.433-.385-.747-.806-.747-.421 0-.763.395-.752.802.016.433.386.747.806.747Z"/></g><defs><clipPath id="a"><path fill="#fff" d="M0 0h227v289H0z"/></clipPath></defs></svg>