<svg xmlns="http://www.w3.org/2000/svg" width="136" height="239" fill="none"><g clip-path="url(#a)"><path fill="#A4D357" d="M96.054 137.122c10.017-1.177 27.571-3.502 35.352-9.859.17-.157.351-.362.546-.519-1.19-1.484-3.223-2.629-4.68-3.4-6.595-3.107-13.652-4.76-20.785-5.922 1.985 4.61 3.443 9.936 1.642 14.805-.358.797-.503 2.154-1.679 1.861a89.547 89.547 0 0 1-3.273-.431c-3.024-.761-5.897-2.256-8.356-4.19-1.147-.95-2.384-1.813-3.422-2.891a24.658 24.658 0 0 1-2.724-3.583c-.922-1.587-1.914-3.184-2.228-5.023a19.58 19.58 0 0 1-.503-2.851c-.872-.055-1.744-.106-2.62-.154.008.304-.02.614-.032.856.008.255-.01.526-.086.756v21.602c.159-.033.322-.051.473-.055h.116a.792.792 0 0 1 .246-.051c1.14-.055 2.312-.135 3.44-.208 2.862-.194 5.72-.436 8.57-.746l.003.003Z"/><path fill="#E2FFB4" d="M85.502 139.459c-.531 1.041-1.146 2.573-.318 3.589.065.11.098.22.109.322 7.799-.475 15.565-1.29 23.255-2.698 6.519-1.298 20.492-4.054 24.008-9.899.474-1.002.463-1.923.142-2.761-8.006 7.323-29.073 9.82-39.711 10.884-2.572.237-4.981.413-7.488.563h.004ZM88.237 119.089c1.429 3.133 3.382 6.134 6.171 8.185 2.45 2.164 5.354 3.805 8.432 4.829 1.176.249 2.402.362 3.589.519 2.159-4.719.665-10.042-1.23-14.586-.123-.271-.304-.581-.373-.878-.843-.127-1.686-.248-2.528-.369.032.084.065.168.094.249.926 2.299 1.613 4.763 1.656 7.264.062 1.107.091 2.222-.021 3.326-.029.56-.156 1.357-.876 1.309-1.157-.307-2.373-.395-3.476-.921-3.085-1.291-5.35-4.007-7.043-6.833-1.107-1.674-2.065-3.465-2.575-5.417a.712.712 0 0 1-.134-.355c-.843-.069-1.682-.132-2.525-.19 0 .022 0 .044.007.066.192 1.279.427 2.566.832 3.798v.004Z"/><path fill="#FDFFF9" d="M93.873 120.43c.238.414.495.823.766 1.225a2.495 2.495 0 0 1 0-1.009c.047-.457-.014-.928.116-1.374.434-1.28 1.751-2.194 3.075-2.249 1.27-.051 2.597.487 3.549 1.375-.149-.41-.308-.815-.482-1.218-.079-.193-.206-.409-.296-.625-1.107-.15-2.214-.292-3.317-.435-1.921-.215-3.845-.405-5.77-.577l.015.076c.455 1.737 1.367 3.316 2.34 4.808l.004.003ZM26.504 76.73c.025-1.492.593-2.99 1.718-3.956 1.462-1.158 3.683-1.29 5.343-.424-2.076-3.476-5.451-6.17-9.401-6.95-.08 2.735.303 5.48 1.143 8.08a12.346 12.346 0 0 0 1.197 3.25Z"/><path fill="#E2FFB4" d="M10.23 85.102c.336-.187.676-.37 1.02-.541 2.934-1.467 6.041-2.523 9.188-3.411.022-.242.094-.498.152-.724.101-.954-.188-1.843-.673-2.629a6.155 6.155 0 0 0-.655-.819c-5.986 2.08-9.245 4.132-10.533 6.084-.185.753-.16 1.762.6 2.087.3.088.615-.044.901-.047ZM20.286 64.68c-.022.373-.185.801-.214 1.145-.076 1.07-.163 2.307.007 3.341.485 4.34 1.632 8.895 4.59 12.166 2.316 2.453 5.047 4.563 8.093 5.992 1.913 1.071 4.037 1.568 6.113 2.197.145-2.983.763-5.893.832-8.872.166-4.153-.463-8.628-2.912-12.068-1.744-2.27-4.033-4.006-6.547-5.326-1.411-.852-2.872-1.623-4.42-2.183a.72.72 0 0 1-.413-.607c-.13-.566.59-.87.984-1.286 1.244-1.269 2.246-2.804 2.702-4.544-.01-.037-.025-.073-.032-.11-.116-2.252-1.484-3.422-3.498-4.087-2.699-1.324-6.381-.702-6.928 2.42-.014.333-.007.665.044.998.036.22.083.435.144.65.145.567-.499 1.072-1.012.816-.026-.011-.047-.03-.07-.044a.729.729 0 0 1-.466-.303c-2.232-2.475-5.777-2.885-8.916-2.808-2.366.19-5.148 1.152-6.75 2.965 2.376 3.4 5.534 6.266 9.296 7.977 1.632.91 3.422 1.444 5.296 1.312 1.013-.073 1.979-.245 2.908-.6.282-.266.698-.347 1.017-.076.293.365.31.672.152.932v.004Zm2.43.688c.073-.362.008-.782.304-1.057.221-.27.521-.497.89-.395 7.456 1.02 13.153 8.416 13.305 15.86.123 1.567-.246 3.106-.623 4.616-.206.794-1.117.636-1.743.578h-.01.01c-3.784-.516-6.855-3.422-8.978-6.467-.894-1.397-1.592-2.917-1.932-4.552-.423-1.392-.825-2.87-.977-4.31a25.585 25.585 0 0 1-.245-4.273ZM9.89 61.05c-1.855-.867-3.418-2.26-4.8-3.751a.746.746 0 0 1-.228-1.01c.366-.573 1.075-.321 1.422.132 1.19 1.331 2.586 2.534 4.207 3.298.854.42.268 1.707-.604 1.33h.003Zm2.923 1.144c-.394 0-.709-.377-.69-.764.018-.41.361-.699.755-.699.395 0 .71.377.691.764-.018.41-.361.699-.756.699Z"/><path fill="#FDFFF9" d="M98.868 125.797a3.561 3.561 0 0 1-.27-.029c1.193.808 2.531 1.367 4.007 1.546.098-1.247.08-2.493-.043-3.725a1.027 1.027 0 0 1-.29.044c-.3 1.502-1.982 2.343-3.404 2.16v.004ZM35.312 83.548c.5-1.806.58-3.674.311-5.495-.09.311-.21.61-.343.896-.999 1.601-2.796 2.475-4.634 2.595 1.382 1.072 2.959 1.854 4.666 2.004Z"/><path fill="#A9A9A9" d="M87.955 180.483a.704.704 0 0 1-.094.007c.029 0 .058 0 .084-.003h.01v-.004ZM58.898 139.726v-.052h-.015c.007.019.01.037.015.052Z"/><path fill="#A4D357" d="M58.868 114.848c-2.177.092-4.351.201-6.525.344-11.909.892-23.947 2.277-35.298 6.087-4.771 1.721-7.694 3.41-9.232 5.03.275.343.58.662.908.958 7.984 6.525 26.486 8.883 36.778 10.009 2.42.241 4.843.442 7.27.607 2.04.135 4.084.23 6.128.332v-22.011a14.169 14.169 0 0 1-.025-1.352l-.004-.004Z"/><path fill="#E2FFB4" d="M75.081 162.533c2.442-.687 4.713-1.55 6.677-3.093v-40.589c-.282-.168-.524-.402-.802-.578-6.183-3.418-12.9-4.218-18.988-.102-.448.241-1.056.888-1.62 1.163v40.114c1.233.786 2.394 1.703 3.74 2.296 3.44 1.502 7.412 1.857 10.997.789h-.004Zm3.375-40.695a.733.733 0 0 1 .647-.801c.391-.04.753.256.793.654-.073 2.823-.058 5.711-.047 8.515.025.979.036 1.959.061 2.943.004.398-.369.716-.749.705-1.013-.102-.63-1.393-.73-2.098-.033-1.744-.051-3.459-.026-5.199a75.829 75.829 0 0 1 .05-4.716v-.003Zm.524 13.142c.395 0 .71.369.699.757a.736.736 0 0 1-.75.705c-.394 0-.708-.369-.697-.756a.737.737 0 0 1 .748-.706ZM7.792 128.312l-.044.011c-.658.439-1.081 1.265-1.063 2.062 1.794 4.65 13.651 8.284 21.4 9.753 9.488 1.934 19.182 2.91 28.822 3.389.113-.267.33-.53.427-.804.409-.965.503-2.205-.069-3.118-12.631-.629-40.264-3.111-49.473-11.289v-.004Z"/><path fill="#A4D357" d="M56.788 165.615c-.883.066-1.664.329-2.033 1.287-.224.826-.134 1.853-.062 2.636.073.365.011.903.373 1.104.39.288.955.219 1.353.307.015 0 .022.007.036.007.03 0 .058-.007.087-.007h28.493c.21-.015.427.022.626-.037.793-.091.868-.969.912-1.612.083-1.064.192-2.23-.239-3.221-.184-.384-.542-.446-.911-.464H56.788Zm12.208 3.17c-.394 0-.741-.275-.763-.688-.022-.38.286-.771.68-.771.395 0 .742.274.763.687.022.38-.285.772-.68.772Zm12.882-.801c.072.376-.185.801-.576.855-3.107.048-6.156.158-9.249.136-.94-.092-.846-1.507.109-1.459 2.195.077 4.507-.135 6.688-.095.72-.011 1.454.026 2.156-.018.398-.07.796.16.875.577l-.003.004ZM83.206 214.053c.1.381.014.881.065 1.258.068 1.956.741 3.813 1.44 5.615.647 1.104 1.83 1.773 2.94 2.318.778.354 1.639.603 2.402.958.138.025.282.051.42.087h38.911c.138 0 .293-.011.445-.007v-26.614H111.688c-.416 5.868-4.149 9.542-10.229 8.599-5.723-1.207-7.781-7.732-3.708-11.998 1.197-1.423 2.796-2.468 4.59-2.94.224-.029.467-.098.709-.153v-10.73H88.074c-.032.011-.065.026-.1.033-2.887.907-4.056 4.212-4.349 6.979-.101.709-.206 1.426-.267 2.102 0 .281-.033.607-.152.855v23.638Zm43.176-2.741c.069-1.726.069-3.261.097-4.943-.032-.976.257-1.941.214-2.906-.148-.947 1.23-1.199 1.425-.26.127.633-.04 1.28-.108 1.908-.134 1.291-.109 2.505-.113 3.777a332.658 332.658 0 0 1-.101 3.136.731.731 0 0 1-.781.666c-.756-.092-.669-.848-.633-1.382v.004Zm.289 3.103c.394 0 .738.285.756.698.018.384-.296.765-.691.765-.394 0-.738-.286-.756-.699-.018-.384.297-.764.691-.764Zm-33.276-9.801c-.394 0-.737-.285-.755-.698-.019-.384.296-.764.69-.764.395 0 .738.285.756.698.019.384-.296.764-.69.764Zm-1.302-3.038c0-.855.033-1.711.185-2.555a13.198 13.198 0 0 1 2.637-6.098c.347-.837 1.573-.523 1.41.395-.047.216-.166.377-.296.534-.582.735-.959 1.404-1.353 2.215-.564 1.192-.828 2.3-1.035 3.557-.097.709-.094 1.43-.112 2.142-.018.399-.401.699-.781.666-.434-.037-.702-.439-.658-.856h.003ZM58.416 77.384c-3.505.146-7.007.366-10.501.666-2.25.19-4.504.409-6.746.687a33.98 33.98 0 0 1-.127 3.846c-.195 2.562-.72 5.14-.763 7.67v.061c.123.49-.268 1.094-.905.9-2.626-.83-5.245-1.415-7.661-2.778-3.201-1.576-6.088-3.857-8.468-6.533-.004 0-.007.003-.011.003-3.643.936-7.267 2.022-10.678 3.634-.684.325-1.353.676-2.008 1.06-.014.022-.025.044-.043.066-.141.172-.33.26-.51.37-.188.259-.518.478-.735.698l-.036.032c3.245 3.755 12.686 6.76 20.579 8.284 9.59 1.88 19.32 2.95 29.09 3.407V77.373c-.097 0-.191-.01-.289-.022-.062.015-.123.03-.195.03l.007.003ZM57.03 232.551a.758.758 0 0 1-.23-.022c-.247.059-.46.19-.565.465-.167.391-.156.811-.174 1.228.167-.029.344-.029.51 0 .745 0 1.545-.048 2.276-.044 1.75.037 3.328-.033 5.046-.007.401.007.796.044 1.168.051.373-.051.767.08.897.482.21.838-.582 1.072-1.251.969-1.932-.109-3.932.011-5.839-.033-.933.008-1.86.066-2.792.026a.257.257 0 0 1-.08-.015c0 .399.015.797.145 1.17.065.223.246.373.456.453.173.081.387.121.6.165.014 0 .029-.004.043-.007h27.89c.141 0 .275.043.387.117 1.016-.03 1.259-.732 1.118-1.883-.134-.684 0-1.4-.275-2.058-.275-.373-.575-.775-.999-.984-.289-.051-.586-.058-.879-.073H57.031Zm11.283 3.173c-.394 0-.742-.274-.763-.687-.022-.38.285-.771.68-.771.394 0 .741.274.763.687.022.38-.286.771-.68.771Z"/><path fill="#E2FFB4" d="M66.975 229.89c3.212.899 6.8.848 9.973-.066 1.591-.446 3.27-1.016 4.196-2.467.246-.472.445-.969.611-1.477v-50.493s-.04-.029-.054-.048c-.319-.234-.67-.413-1.024-.585-1.548-.584-3.194-.87-4.836-1.034-4.323-.333-8.848-.706-12.976.91-.578.245-1.219.494-1.7.899-.253.212-.539.483-.828.637v49.761a.745.745 0 0 1 .134.106c1.725 1.938 3.972 3.298 6.496 3.853l.008.004Zm-4.301-33.57c.025-1.481.08-2.965.058-4.446-.058-2.007 0-4.017.086-6.021-.097-.526-.05-1.192.608-1.265 1.328.019.695 2.037.77 2.892-.028 1.466-.064 2.936-.017 4.401.025 1.477-.03 2.958-.055 4.435a38.59 38.59 0 0 1-.112 2.332c-.032.399-.343.72-.749.706-.38-.015-.73-.358-.698-.757.062-.757.098-1.513.112-2.274l-.003-.003Zm.217 5.008c.394 0 .709.369.698.757a.736.736 0 0 1-.749.705c-.394 0-.709-.369-.698-.757a.736.736 0 0 1 .749-.705Z"/><path fill="#A9A9A9" d="M32.755 77.805c.061-.136.101-.278.116-.428-.018.015-.033.033-.051.047a4.403 4.403 0 0 1-.062.38h-.003Z"/><path fill="#E2FFB4" d="M76.242 92.932s.032-.011.05-.015h-.007c2.192-.614 4.612-1.608 5.444-3.911.008-.019.018-.03.03-.048V49.842a.872.872 0 0 1 .115-.387.734.734 0 0 1 .72-.71H99.07c.195-.076.423-.102.64-.073 1.758.15 3.523-.07 5.27-.274a42.33 42.33 0 0 0 9.883-1.568c3.986-1.053 7.303-3.897 9.141-7.593 1.223-2.026 1.693-4.329 1.942-6.654.17-3.15-.209-6.284-.387-9.424a60.6 60.6 0 0 1-.065-4.43c-.072-1.62-.311-3.232-.463-4.848-.134-1.437-.416-2.84-.962-4.179-.539-2.062-1.729-3.857-3.465-5.085-1.693-1.126-3.705-1.627-5.618-2.234-2.286-.563-4.67-.767-7.014-.837-2.196.055-4.381-.289-6.537.106a.71.71 0 0 1-.314.077H37.971a.7.7 0 0 1-.337-.007c-1.682.208-3.39.278-5.06.581-1.954.31-3.864.731-5.755 1.265-2.637.702-5.44 1.502-7.43 3.44-6.7 6.975-5.925 13.223-5.69 22.113.068 2.936.499 5.853 1.085 8.723.354 2.252.875 4.646 2.445 6.354 1.53 1.85 3.816 2.694 6.08 3.217.59.16 1.162.387 1.74.584 1.213.337 2.334.348 3.538.417 1.711.011 3.412.337 5.119.209.322-.019.611.084.926.095.036 0 .069.01.105.018h22.456c.695-.322 2.109.026 2.554.457.655.567.633 1.459.586 2.263.01.055.018.11.022.172v43.024c.35.417.727.811 1.128 1.18.011-1.546.12-3.092.246-4.62-.043-.954 1.353-1.057 1.444-.099-.113 1.941-.3 3.904-.236 5.857 1.274.833 2.71 1.396 4.236 1.55 2.174.296 4.873-.487 5.893-2.596.155-.64.123-1.36.485-1.927.166-.197.383-.321.622-.409.495-.42 1.591-.439 2.12-.684l-.044.011-.007.015ZM17.587 16.641a.76.76 0 0 1-.528-.183.75.75 0 0 1-.242-.497c-.026-.377.278-.779.672-.779a.76.76 0 0 1 .529.183.75.75 0 0 1 .242.497c.025.377-.279.779-.673.779Zm7.474-9.315c-.337.23-.724.38-1.042.643a18.964 18.964 0 0 0-3.65 4.102c-.452.574-.785 1.228-1.085 1.897-.17.362-.63.498-.973.322a.743.743 0 0 1-.319-.983c.34-.753.724-1.485 1.234-2.128 1.346-1.926 2.897-3.864 4.966-5.023.789-.614 1.683.574.869 1.174v-.004Zm53.203 46.46c-.134-1.231.062-2.515-.069-3.721-.162-.896 1.082-1.203 1.382-.402-.007-.018-.01-.037-.018-.055a.662.662 0 0 1 .047.143c-.007-.033-.022-.059-.033-.088.275.746.022 1.627.08 2.413.01 1.392.148 2.778.166 4.175.08.888.015 1.776-.01 2.668.057.523-.011 1.214-.662 1.254-.384.026-.76-.281-.77-.68.02-1.904.039-3.806-.117-5.707h.004Zm.948 9.542a.754.754 0 0 1-.528-.183.75.75 0 0 1-.243-.497c-.025-.377.279-.779.673-.779a.76.76 0 0 1 .528.183.75.75 0 0 1 .243.497c.025.377-.279.779-.673.779Zm35.902-45.437a.752.752 0 0 1 .242.497c.025.377-.279.779-.673.779a.754.754 0 0 1-.528-.183.747.747 0 0 1-.242-.497c-.026-.377.278-.779.672-.779.199 0 .377.048.529.183Zm-2.717-5.955c1.107.943 2.203 2.073 2.42 3.582.174.936-1.197 1.232-1.418.29-.163-1.353-1.346-2.106-2.167-3.039-.376-.782.648-1.385 1.165-.833ZM62.536 89.229a.76.76 0 0 1-.528-.183.75.75 0 0 1-.243-.497c-.025-.377.279-.779.673-.779a.76.76 0 0 1 .528.183.75.75 0 0 1 .243.497c.025.377-.279.779-.673.779Zm-23.87-51.93c-.022 0-.04-.003-.062-.007-.21.062-.445.066-.655.007-1.729-.332-3.545-.2-5.234-.764-3.954-1.287-5.108-3.893-5.582-7.812-.242-4.643-1.248-10.642 3.144-13.676 2.297-1.85 5.346-2.106 8.15-2.512.766-.021 1.53-.208 2.3-.16a.73.73 0 0 1 .405.025h56.394c.326-.135.774-.106 1.118-.135 1.335-.048 2.669.128 4.004.186 1.704.146 3.422.296 5.104.607 1.35.333 2.601 1.079 3.6 2.047 2.503 2.702 1.439 7.239 1.823 10.664.007 1.707-.047 3.462-.666 5.067-.886 1.948-2.304 3.798-4.236 4.763-1.906 1.002-4.066 1.287-6.185 1.404-1.686.146-3.415.296-5.1.285-.037.008-.073.011-.113.015h-58.21v-.004ZM91.699 97.736c0-.527-.022-1.053-.076-1.576-.217-2.194-1.133-4.186-2.11-6.123-.95 1.041-1.811 2.167-2.34 3.49-.64 1.236-1.081 2.523-1.248 3.912-.115.648.232 1.243.232 1.854.828-.044 1.657-.088 2.485-.139.861-.055 1.892-.128 3.053-.227.025-.329.04-.654-.029-.98 0-.073.015-.146.033-.219v.008Z"/><path fill="#E2FFB4" d="M123.867 77.147c-12.233-4.066-25.136-5.407-37.88-6.223-.17-.01-.34-.018-.51-.025-.112.22-.308.42-.445.614-.481.888-.474 1.941-.448 2.928.025.48.097.962.365 1.368.108.098.195.226.253.358 8.79.534 17.595 1.506 26.197 3.272 5.317 1.122 10.642 2.482 15.587 4.796 2.123 1.035 4.261 2.256 5.798 4.098.698-.68 1.244-1.4 1.599-2.164 1.382-4.716-7.162-7.765-10.516-9.026v.004ZM84.352 98.39c-.818-1.14-1.881-2.22-3.162-2.797-.557-.226-1.193-.387-1.75-.555-.648-.161-1.299-.351-1.968-.373-.955.036-1.79.23-2.706.438.069 1.73.865 3.346 2.073 4.552 2.637-.059 5.274-.154 7.904-.282a4.59 4.59 0 0 1-.13-.45c-.134-.109-.236-.28-.261-.53v-.003Z"/><path fill="#A4D357" d="M86.899 77.735a330.286 330.286 0 0 0-2.583-.16c-.307-.044-.73-.012-1.11-.044v16.465c.007.329.036.746-.07 1.064a9.34 9.34 0 0 1 1.162 1.012c.105.117.213.238.322.355.224-1.221.65-2.373 1.226-3.477.658-1.652 1.765-3.052 2.999-4.302.662-.775 1.425-.454 1.79.405.467.954.948 1.905 1.371 2.881a15.14 15.14 0 0 1 1.133 5.85c.065.325.021.72.007 1.037 10.899-.976 30.801-3.63 38.531-9.523-7.386-8.134-33.901-10.777-44.775-11.548l-.003-.015Z"/><path fill="#E2FFB4" d="M48.316 76.55c2.883-.24 5.774-.423 8.664-.562.166-.395.474-.816.575-1.174.456-1.261.242-2.72-.3-3.922-3.914.212-7.8.5-11.699.917a199.9 199.9 0 0 0-5.328.636c.47 1.561.745 3.184.872 4.822 2.402-.296 4.81-.523 7.22-.724l-.004.008Z"/><path fill="#000" d="M122.822 119.904c-27.177-9.022-77.504-8.931-104.83-.486-3.707 1.272-7.585 2.646-10.57 5.29-.354.135-.705.475-1.012.877a.789.789 0 0 0-.264.373 7.938 7.938 0 0 0-.376.636c-2.67 4.299 1.953 8.09 5.947 9.951 6.163 2.968 12.913 4.463 19.598 5.699 9.108 1.627 18.343 2.431 27.579 2.833v19.05c-.67.011-1.36-.018-2.033.026h-.13a.667.667 0 0 0-.192.029c-.905.095-1.755.355-2.446 1.06-1.342 1.477-.98 3.817-.622 5.619.347 1.199 1.718 1.455 2.79 1.543.071.007.14 0 .205-.011.167.033.34.04.503.018h1.744c-.015.446.057.936.072 1.283.022.468-.004 1.009.109 1.492v55.786c-.438 0-.88.018-1.317.048-.619.011-1.292.007-1.83.358-1.317.932-1.176 2.756-1.183 4.197-.174 2.025.824 3.22 2.832 3.385a.724.724 0 0 0 .33-.07H84.54l.047.022c2.941.523 3.87-1.404 3.411-4.058a3.706 3.706 0 0 0-2.062-3.571c-.086-.029-.177-.051-.267-.073a.712.712 0 0 0-.398-.125h-.546c-.434-.022-.872-.014-1.299-.044a.645.645 0 0 0-.282-.047.714.714 0 0 0 .058-.285v-4.599c.029-.121.058-.241.08-.366.021 0 .04.008.065.008h46.815a.709.709 0 0 0 .423-.143.703.703 0 0 0 .691-.716v-27.568c-.007-.337-.181-.549-.405-.651-.138-.358-.554-.53-.944-.472h-18.691a.725.725 0 0 0-.629.384.756.756 0 0 0-.33.662 9.67 9.67 0 0 1-.238 1.758c-.384 2.234-1.617 4.464-3.77 5.389-2.203.786-4.869.866-6.844-.567-1.146-.724-1.891-1.908-2.239-3.217-.662-2.913 1.27-5.542 3.589-7.063.785-.42 1.617-.778 2.503-.917.488.029.922-.23 1.034-.596a.722.722 0 0 0 .181-.483v-11.365c.008-.377-.195-.611-.452-.706-.119-.336-.481-.541-.846-.49h-19.99v-6.58h1.798c.025 0 .047-.004.069-.007.163.014.33.011.488 0 .923-.059 1.834-.607 2.178-1.506.456-1.92.883-5.579-1.263-6.573-.397-.088-1.005-.253-1.483-.172H83.12c.007-.077.014-.154.018-.234a.819.819 0 0 0 .068-.311v-18.644c.17.029.351.015.518-.04.217 0 .466.003.694-.037 1.31-.073 2.54-.15 3.882-.248 10.067-.765 20.152-2.011 29.918-4.654 5.046-1.51 12.144-3.543 15.323-8.014 3.73-6.488-6.019-10.353-10.721-12.063l.003-.004Zm-65.488 22.815c-.1.274-.314.538-.426.805-9.64-.479-19.335-1.452-28.823-3.389-7.748-1.466-19.602-5.1-21.4-9.754a2.479 2.479 0 0 1 1.063-2.062c.015 0 .03-.007.044-.011 9.206 8.182 36.842 10.664 49.474 11.289.571.914.477 2.154.068 3.119v.003Zm1.563-2.994-.014-.051h.014v.051Zm0-1.513c-2.044-.103-4.087-.198-6.128-.333-2.423-.164-4.85-.365-7.27-.607-10.292-1.122-28.798-3.484-36.778-10.009a8.096 8.096 0 0 1-.908-.958c1.538-1.619 4.46-3.305 9.232-5.03 11.35-3.813 23.386-5.195 35.297-6.087 2.175-.139 4.349-.252 6.526-.344-.018.45 0 .885.026 1.353v22.011l.003.004Zm1.447 12.952V119.33c.564-.274 1.172-.921 1.62-1.163 6.088-4.116 12.806-3.315 18.988.103.282.175.52.409.803.577v40.59c-1.964 1.543-4.236 2.405-6.678 3.093-3.584 1.067-7.556.712-10.996-.79-1.342-.592-2.507-1.513-3.74-2.296v-8.28h.003Zm24.138 81.384c.297.014.59.025.88.073.423.208.723.61.998.983.275.655.14 1.375.275 2.058.14 1.152-.102 1.854-1.118 1.883a.711.711 0 0 0-.387-.117H57.24l-.043.007c-.214-.044-.43-.084-.6-.164-.21-.081-.391-.23-.456-.453-.127-.37-.149-.768-.145-1.17.025.003.054.011.08.014.933.041 1.859-.018 2.792-.025 1.907.044 3.91-.077 5.839.033.665.106 1.46-.132 1.251-.969-.13-.399-.524-.534-.897-.483-.369-.007-.763-.044-1.168-.051-1.719-.029-3.296.04-5.047.007-.73 0-1.53.044-2.275.044a1.616 1.616 0 0 0-.51 0c.018-.416.007-.833.174-1.228.105-.274.318-.402.564-.464a.986.986 0 0 0 .232.022h27.451Zm-24.138-6.621v-49.762c.29-.153.575-.424.828-.636.482-.409 1.118-.658 1.7-.899 4.128-1.616 8.65-1.243 12.976-.91 1.639.161 3.288.449 4.836 1.034.355.172.706.348 1.024.585.014.019.036.03.054.048v50.493a9.771 9.771 0 0 1-.611 1.477c-.926 1.454-2.605 2.021-4.196 2.467-3.173.914-6.761.965-9.973.066-2.525-.556-4.771-1.916-6.497-3.853a1.25 1.25 0 0 0-.134-.106l-.007-.004Zm27.607-45.448h-.01c-.026 0-.055 0-.084.004.033 0 .065 0 .094-.007v.003Zm-4.597 9.077c.061-.676.166-1.392.267-2.102.293-2.767 1.462-6.072 4.348-6.978a.556.556 0 0 0 .102-.033h14.975v10.729c-.242.055-.481.124-.709.154-1.794.471-3.393 1.517-4.59 2.939-4.073 4.266-2.015 10.792 3.708 11.998 6.08.943 9.817-2.731 10.229-8.598H129.825v26.613c-.155 0-.307.008-.445.008H90.469c-.137-.037-.282-.062-.42-.088-.763-.355-1.627-.603-2.402-.958-1.11-.548-2.297-1.214-2.94-2.318-.698-1.805-1.371-3.659-1.44-5.615-.047-.376.04-.877-.065-1.257v-23.635c.12-.252.155-.577.152-.855v-.004Zm2.062-23.948c.372.014.727.077.911.464.43.991.322 2.157.239 3.221-.044.647-.123 1.52-.912 1.612-.195.058-.416.025-.626.036H56.535a.637.637 0 0 0-.087.008c-.01 0-.022-.008-.036-.008-.398-.087-.962-.018-1.353-.307-.362-.201-.3-.738-.372-1.104-.076-.782-.167-1.809.061-2.635.365-.958 1.147-1.225 2.033-1.287h28.635Zm16.853-41.979c.108 0 .202-.022.289-.044.123 1.232.141 2.479.043 3.725-1.475-.175-2.814-.738-4.008-1.546.09.011.181.022.272.029 1.421.179 3.103-.658 3.404-2.16v-.004Zm-4.985-7.516c1.103.143 2.21.285 3.317.435.094.216.217.431.297.625.173.402.332.808.481 1.217-.952-.888-2.28-1.425-3.549-1.374-1.324.055-2.64.969-3.075 2.248-.126.446-.065.918-.115 1.375-.076.343-.065.68 0 1.009a20.807 20.807 0 0 1-.767-1.225c-.973-1.488-1.885-3.071-2.34-4.807-.004-.026-.011-.051-.015-.077 1.924.168 3.849.358 5.77.578l-.004-.004Zm-7.361-.706c.01.125.054.249.134.355.51 1.952 1.472 3.743 2.575 5.418 1.693 2.829 3.957 5.546 7.043 6.832 1.103.527 2.319.611 3.476.922.716.047.847-.75.876-1.309.112-1.104.083-2.223.021-3.327-.043-2.5-.73-4.961-1.656-7.264-.029-.08-.062-.164-.094-.248.842.117 1.685.241 2.528.369.069.292.25.603.373.877 1.895 4.544 3.385 9.867 1.23 14.587-1.187-.154-2.41-.271-3.589-.52a24.434 24.434 0 0 1-8.432-4.829c-2.789-2.051-4.742-5.056-6.17-8.185-.406-1.232-.641-2.519-.833-3.798 0-.022-.004-.044-.007-.066.843.058 1.686.121 2.525.19v-.004Zm-5.882 22.662a.693.693 0 0 0-.246.051h-.116c-.152 0-.314.019-.474.055v-21.601c.076-.227.094-.501.087-.757.011-.241.04-.552.033-.856.872.048 1.743.099 2.619.154.094.961.267 1.912.502 2.851.315 1.839 1.306 3.437 2.229 5.023a24.442 24.442 0 0 0 2.724 3.583c1.038 1.075 2.275 1.938 3.422 2.892 2.46 1.93 5.332 3.429 8.356 4.189 1.088.168 2.181.3 3.273.431 1.176.293 1.321-1.063 1.679-1.86 1.801-4.87.343-10.2-1.643-14.806 7.134 1.163 14.191 2.811 20.785 5.922 1.458.775 3.491 1.916 4.681 3.4-.195.157-.376.362-.546.519-7.784 6.358-25.336 8.683-35.352 9.86-2.85.31-5.708.552-8.57.745-1.128.074-2.296.154-3.44.209l-.003-.004Zm48.515-7.304c-3.516 5.846-17.493 8.602-24.008 9.9-7.69 1.407-15.457 2.222-23.255 2.698a.79.79 0 0 0-.109-.322c-.832-1.013-.213-2.548.318-3.59 2.507-.15 4.916-.325 7.488-.563 10.639-1.064 31.706-3.561 39.711-10.883.318.837.333 1.758-.141 2.76h-.004ZM96.875 37.3c.04 0 .076-.008.112-.015 1.686.01 3.418-.14 5.1-.285 2.12-.117 4.276-.399 6.186-1.404 1.935-.969 3.35-2.815 4.236-4.764.619-1.608.673-3.36.666-5.066-.384-3.426.68-7.963-1.824-10.664-.998-.969-2.25-1.715-3.599-2.047-1.682-.311-3.4-.461-5.104-.607-1.335-.062-2.67-.234-4.004-.187-.344.03-.792 0-1.118.136h-56.39a.73.73 0 0 0-.405-.026c-.767-.048-1.53.139-2.3.16-2.804.407-5.857.666-8.15 2.512-4.392 3.035-3.386 9.034-3.144 13.676.47 3.923 1.624 6.53 5.581 7.813 1.69.566 3.505.431 5.235.764.21.062.448.058.654-.008.022 0 .04.008.062.008h58.206v.003Zm-58.206-1.463a.764.764 0 0 0-.21.033h-.047c-2.481-.417-5.332-.117-7.408-1.831-2.04-1.456-2.283-4.117-2.503-6.471-.127-2.194-.265-4.416-.04-6.606.618-5.44 5.69-6.53 10.233-6.993.579-.008 1.15-.128 1.73-.143.06.018.126.03.19.03h57.183c.138 0 .264-.04.373-.11.604-.026 1.208-.055 1.816-.004 1.664.091 3.317.19 4.974.391.842.117 1.725.172 2.568.366.977.26 1.866.815 2.637 1.466 1.498 1.4 1.378 3.619 1.472 5.512-.116 2.702.413 5.385-.231 8.061-.615 2.077-2.135 4.003-4.102 4.91-2.106 1.005-4.45 1.009-6.721 1.206-1.346.117-2.684.194-4.037.168a.89.89 0 0 0-.243.011H38.665l.004.004Z"/><path fill="#000" d="M132.05 79.402c-5.361-3.443-11.669-4.993-17.804-6.397-9.93-2.117-19.979-3.126-30.118-3.645-.036 0-.072-.004-.108-.007h-.015c-.239-.011-.474-.007-.72-.03a.553.553 0 0 0-.076-.014V50.208h16.542c.09 0 .174-.018.253-.051.163.014.326.025.489.033 1.635.029 3.255-.19 4.876-.359 1.961-.124 3.932-.234 5.86-.654 2.879-.618 5.896-1.18 8.378-2.873 3.197-2.055 5.48-5.283 6.804-8.84 1.168-3.21 1.165-6.723.864-10.093-.101-1.887-.231-3.77-.318-5.652-.043-1.96.033-3.916-.264-5.86-.232-2.165-.34-4.383-1.179-6.416-.467-1.404-.941-2.848-1.925-3.985-1.805-2.354-4.579-3.407-7.314-4.215C112.958.187 109.438.135 105.998.055c-1.555-.084-3.132-.113-4.677.139-.13.018-.264.044-.39.08H37.982a.66.66 0 0 0-.224-.022c-.344.011-.688.095-1.031.121-1.454.11-3.035.267-4.496.512a49.46 49.46 0 0 0-5.86 1.294c-2.768.738-5.785 1.638-7.904 3.703-3.053 3.056-5.296 7.037-5.998 11.348-.63 3.502-.3 7.092-.242 10.627-.04 2.902.347 5.761.796 8.62.586 2.837.868 5.922 2.745 8.255.926 1.246 2.138 2.157 3.48 2.83-.608.665-1.107 1.93-1.41 2.394-.326.859-.565 1.773-.63 2.694-.015.088-.025.175-.036.263a20.024 20.024 0 0 0-.442-.336c-2.496-1.623-5.556-1.949-8.464-1.868C5.47 50.95 2.428 52.02.51 54.185c-.343.377-.745.921-.354 1.408 2.452 3.546 5.654 6.69 9.56 8.547 1.91 1.045 3.972 1.894 6.186 1.744.452 0 1.675-.088 2.728-.351-.123 1.016-.073 2.208-.105 2.68.202 2.354.575 4.755 1.27 7.04-2.305.75-4.584 1.587-6.747 2.69-2.525 1.313-4.221 2.633-5.242 3.934-.21.117-.35.355-.44.63-3.04 4.865 3.15 9.358 10.417 11.796 13.717 4.647 28.31 5.948 42.684 6.665 12.52.489 24.967.179 37.45-1.163 8.165-.914 16.332-2.208 24.211-4.603 4.333-1.429 8.956-2.964 12.226-6.317 3.299-3.506 1.154-7.27-2.311-9.486l.007.003ZM19.118 63.83c-.93.355-1.892.527-2.909.6-1.873.131-3.664-.403-5.295-1.313-3.759-1.71-6.917-4.577-9.297-7.977 1.603-1.813 4.384-2.774 6.75-2.964 3.14-.077 6.681.332 8.917 2.807a.72.72 0 0 0 .466.304c.022.014.044.032.07.044.513.255 1.153-.25 1.012-.816a5.62 5.62 0 0 1-.145-.65 4.86 4.86 0 0 1-.043-.998c.546-3.126 4.229-3.744 6.927-2.42 2.015.661 3.379 1.835 3.498 4.087a.55.55 0 0 0 .033.11c-.456 1.736-1.455 3.275-2.703 4.543-.39.417-1.11.717-.983 1.287.021.256.166.5.412.607 1.548.56 3.01 1.33 4.42 2.182 2.514 1.32 4.8 3.053 6.548 5.327 2.449 3.44 3.078 7.914 2.912 12.067-.07 2.98-.691 5.89-.832 8.873-2.073-.629-4.197-1.126-6.114-2.197-3.05-1.43-5.78-3.543-8.092-5.992-2.959-3.272-4.109-7.827-4.59-12.166-.174-1.035-.083-2.27-.007-3.342.029-.343.195-.771.213-1.144.16-.256.138-.563-.152-.932-.318-.27-.734-.19-1.016.077v-.004ZM8.728 83.065c1.289-1.952 4.548-4.006 10.534-6.083.247.249.456.53.655.82.485.785.774 1.677.673 2.628-.058.226-.13.482-.152.723-3.147.885-6.254 1.945-9.188 3.411-.344.172-.684.355-1.02.541-.286.008-.6.136-.9.048-.764-.322-.786-1.335-.601-2.088Zm50.173 16.396c-9.77-.457-19.5-1.528-29.09-3.407-7.897-1.528-17.338-4.533-20.58-8.284.012-.01.026-.018.037-.032.217-.224.542-.44.734-.699.177-.11.37-.197.51-.369.018-.022.03-.044.044-.066a25.71 25.71 0 0 1 2.007-1.06c3.411-1.608 7.036-2.698 10.678-3.634.004 0 .008-.003.011-.003 2.38 2.676 5.267 4.957 8.469 6.532 2.416 1.368 5.035 1.949 7.661 2.779.637.194 1.027-.413.904-.9v-.062c.044-2.526.565-5.107.764-7.67a35.81 35.81 0 0 0 .126-3.845 173.52 173.52 0 0 1 6.746-.688c3.495-.3 6.996-.519 10.502-.665a.813.813 0 0 0 .195-.03c.094.016.192.023.29.023v22.084l-.008-.004ZM40.228 72.45c1.773-.237 3.549-.446 5.329-.636 3.9-.417 7.784-.705 11.698-.917.543 1.202.756 2.66.3 3.922-.1.358-.408.779-.575 1.174-2.89.135-5.777.318-8.663.563-2.41.2-4.822.427-7.22.723-.127-1.637-.402-3.26-.872-4.821l.003-.008ZM58.901 51.71v17.65a.594.594 0 0 0-.116-.01c-2.282.113-4.442.237-6.746.412-2.713.205-5.419.45-8.12.76-1.394.158-2.783.333-4.172.52a16.8 16.8 0 0 0-1.182-2.439c-2.384-3.79-6.345-6.068-10.212-8.053a12.762 12.762 0 0 0-.858-.38c.532-.56 1.013-1.232 1.285-1.532.654-.885 1.114-1.901 1.522-2.921.236-.673.974-3.97.717-5.692.712.066 1.425.143 2.138.11.48-.07.835-.015 1.338.05h.047a.727.727 0 0 0 .184.026h23.166a.768.768 0 0 0 .369-.102c1.009.132.52.994.64 1.601Zm14.646 42.297c-.361.57-.329 1.287-.484 1.927-1.02 2.109-3.715 2.888-5.893 2.595-1.526-.15-2.962-.713-4.236-1.55-.061-1.952.123-3.915.235-5.856-.094-.958-1.49-.86-1.443.098-.127 1.532-.235 3.075-.246 4.621-.401-.369-.781-.764-1.128-1.18V51.636a.637.637 0 0 0-.022-.172c.05-.8.072-1.692-.586-2.263-.445-.43-1.86-.778-2.554-.456H34.734a.756.756 0 0 0-.105-.019c-.315-.01-.604-.113-.926-.095-1.708.128-3.408-.197-5.119-.208-1.2-.07-2.322-.08-3.537-.417-.58-.197-1.15-.424-1.74-.585-2.265-.523-4.55-1.367-6.081-3.217-1.566-1.707-2.09-4.102-2.445-6.353-.586-2.874-1.017-5.787-1.086-8.723-.235-8.89-1.009-15.138 5.69-22.113 1.99-1.938 4.797-2.739 7.43-3.44a50.149 50.149 0 0 1 5.756-1.265c1.67-.304 3.378-.373 5.06-.582.112.033.224.03.337.008h63.147c.112 0 .221-.03.315-.077 2.156-.395 4.337-.051 6.536-.106 2.348.07 4.732.27 7.014.837 1.914.607 3.925 1.108 5.618 2.234 1.736 1.228 2.926 3.023 3.465 5.085.55 1.334.832 2.742.962 4.178.152 1.612.391 3.225.463 4.848a60.075 60.075 0 0 0 .066 4.43c.177 3.14.557 6.27.387 9.425-.25 2.325-.72 4.628-1.943 6.653-1.834 3.696-5.155 6.54-9.141 7.593a42.314 42.314 0 0 1-9.882 1.569c-1.747.204-3.513.424-5.27.274a1.308 1.308 0 0 0-.641.073H82.587a.731.731 0 0 0-.72.71.872.872 0 0 0-.116.387v39.116c-.01.014-.021.029-.028.047-.832 2.303-3.252 3.298-5.445 3.912-.531.241-1.627.263-2.12.684a1.432 1.432 0 0 0-.621.409l.01-.011Zm3.296 5.644c-1.208-1.206-2.004-2.822-2.073-4.55.915-.21 1.75-.403 2.706-.44.67.026 1.32.212 1.968.373.557.168 1.197.33 1.75.556 1.281.578 2.348 1.656 3.162 2.797.025.248.127.42.26.53.037.153.08.303.13.45-2.63.127-5.266.222-7.903.28v.004Zm14.856-.72c-1.161.095-2.192.172-3.053.227-.828.051-1.657.095-2.485.139 0-.61-.347-1.206-.231-1.854.17-1.389.607-2.676 1.247-3.911.529-1.327 1.39-2.45 2.34-3.491.978 1.937 1.893 3.93 2.11 6.123.054.523.072 1.05.076 1.576a.868.868 0 0 0-.033.219c.073.325.058.65.03.98v-.008Zm1.45-.124c.015-.318.059-.71-.007-1.038.022-2-.38-4-1.132-5.85-.423-.975-.904-1.922-1.37-2.88-.366-.86-1.13-1.18-1.791-.406-1.234 1.25-2.337 2.654-3 4.303-.574 1.108-1.001 2.255-1.225 3.476-.109-.117-.221-.237-.322-.354a9.615 9.615 0 0 0-1.161-1.013c.105-.314.072-.73.068-1.064V77.516c.38.033.803 0 1.11.044a329.719 329.719 0 0 1 2.584.16c10.873.772 37.388 3.415 44.775 11.55-7.731 5.892-27.629 8.546-38.532 9.522l.004.015Zm41.238-12.638c-.354.764-.901 1.48-1.599 2.164-1.537-1.842-3.675-3.063-5.798-4.098-4.945-2.317-10.27-3.674-15.587-4.796-8.602-1.766-17.407-2.738-26.197-3.272a1.075 1.075 0 0 0-.253-.358c-.268-.406-.34-.888-.365-1.367-.026-.987-.033-2.04.448-2.929.141-.193.333-.394.445-.614.17.007.34.015.51.026 12.747.819 25.647 2.157 37.88 6.222 3.354 1.261 11.898 4.31 10.516 9.026v-.004Z"/><path fill="#000" d="M23.94 73.955c.343 1.63 1.037 3.155 1.93 4.552 2.124 3.045 5.195 5.951 8.979 6.467.622.062 1.537.215 1.744-.578.372-1.51.745-3.052.622-4.617-.149-7.44-5.85-14.839-13.305-15.859-.365-.102-.665.125-.89.395-.296.27-.231.695-.303 1.057-.04 1.425.047 2.862.245 4.273.149 1.444.554 2.918.977 4.31Zm11.34 4.994c.133-.285.253-.585.343-.896.268 1.82.192 3.689-.311 5.495-1.707-.15-3.285-.932-4.666-2.003 1.834-.121 3.635-.995 4.633-2.596Zm-2.522-1.144c.03-.125.047-.253.062-.38.018-.015.036-.03.05-.048-.01.146-.054.293-.115.428h.003Zm-8.591-12.4c3.95.782 7.325 3.472 9.401 6.95-1.66-.871-3.881-.736-5.342.423-1.129.962-1.693 2.464-1.719 3.956a12.423 12.423 0 0 1-1.197-3.25 24.255 24.255 0 0 1-1.143-8.08ZM76.293 92.914l-.05.014.043-.01h.007v-.004ZM79.147 60.173c.655-.044.723-.735.662-1.254.025-.892.09-1.78.01-2.668-.014-1.393-.155-2.782-.166-4.175-.061-.782.196-1.663-.08-2.413-.3-.804-1.544-.493-1.381.402.13 1.207-.065 2.49.069 3.722.155 1.9.137 3.802.115 5.706.011.399.387.706.77.68ZM79.56 49.612s.01.036.017.054c.011.029.026.054.033.087-.011-.05-.03-.094-.047-.141h-.004ZM79.114 61.866c-.394 0-.698.402-.673.778.015.19.102.373.243.498.152.135.329.182.528.182.394 0 .698-.402.673-.778a.742.742 0 0 0-.243-.498.76.76 0 0 0-.528-.182ZM62.434 87.767c-.394 0-.698.402-.672.778.014.19.101.373.242.497a.76.76 0 0 0 .528.183c.395 0 .698-.402.673-.778a.742.742 0 0 0-.242-.498.76.76 0 0 0-.529-.182ZM24.189 6.153c-2.07 1.158-3.621 3.092-4.967 5.023-.51.647-.893 1.378-1.233 2.127-.166.362-.04.8.318.984.344.175.803.036.973-.322.3-.665.633-1.32 1.085-1.897a18.962 18.962 0 0 1 3.65-4.102c.319-.26.706-.413 1.042-.644.81-.6-.08-1.787-.868-1.173v.004ZM17.49 15.182c-.395 0-.698.402-.673.779.014.19.101.373.242.497a.76.76 0 0 0 .528.183c.395 0 .698-.402.673-.779a.742.742 0 0 0-.242-.497.76.76 0 0 0-.528-.183ZM113.395 15.804c.217.94 1.592.647 1.418-.29-.217-1.509-1.309-2.639-2.42-3.582-.513-.552-1.541.051-1.165.834.818.932 2.004 1.681 2.167 3.038ZM113.909 18.483a.74.74 0 0 0 .243.497.752.752 0 0 0 .528.183c.394 0 .698-.402.673-.778a.745.745 0 0 0-.243-.498.753.753 0 0 0-.528-.182c-.394 0-.698.402-.673.778ZM10.49 59.723c-1.62-.764-3.017-1.966-4.207-3.297-.35-.453-1.06-.706-1.421-.132a.746.746 0 0 0 .228 1.01c1.381 1.49 2.944 2.887 4.8 3.75.872.38 1.458-.91.604-1.33h-.004ZM12.874 60.732c-.394 0-.738.29-.756.699-.014.384.297.764.691.764.394 0 .738-.29.756-.699.015-.383-.296-.764-.69-.764ZM78.43 131.752c.102.706-.282 1.996.731 2.099.38.014.752-.307.749-.706-.03-.98-.036-1.959-.062-2.943-.014-2.804-.029-5.692.047-8.514a.731.731 0 0 0-.792-.654.735.735 0 0 0-.647.8 75.854 75.854 0 0 0-.051 4.716 155.68 155.68 0 0 0 .025 5.199v.003ZM78.93 136.443a.737.737 0 0 0 .748-.706c.015-.388-.303-.757-.698-.757a.737.737 0 0 0-.749.706c-.014.387.304.757.699.757ZM63.26 199.35c.405.015.716-.307.748-.705.062-.775.098-1.554.112-2.333.026-1.477.08-2.957.055-4.434-.044-1.466-.007-2.936.018-4.402-.076-.855.557-2.873-.77-2.891-.655.073-.703.735-.608 1.265-.09 2.007-.149 4.014-.087 6.021.021 1.48-.033 2.964-.058 4.445-.015.76-.05 1.517-.112 2.274-.033.398.318.746.698.757l.004.003ZM62.84 202.79a.736.736 0 0 0 .748-.705c.015-.388-.303-.757-.698-.757a.736.736 0 0 0-.748.705c-.015.388.303.757.698.757ZM78.846 167.425c-2.177-.041-4.492.171-6.688.095-.951-.048-1.05 1.367-.109 1.458 3.093.019 6.143-.087 9.25-.135.39-.055.647-.479.575-.855-.08-.417-.477-.648-.875-.578-.698.044-1.433.004-2.156.018l.003-.003ZM68.913 167.326c-.394 0-.705.391-.68.771.022.417.37.688.764.688s.705-.392.68-.772c-.022-.417-.37-.687-.764-.687ZM68.23 234.266c-.395 0-.706.391-.68.771.022.417.369.687.763.687s.705-.391.68-.771c-.022-.417-.369-.687-.763-.687ZM92.751 202.432c.38.033.767-.267.782-.665.018-.717.014-1.433.112-2.143.206-1.257.47-2.365 1.034-3.557.395-.811.77-1.48 1.353-2.215.127-.157.25-.322.297-.534.163-.917-1.064-1.228-1.41-.395a13.202 13.202 0 0 0-2.638 6.098c-.152.841-.188 1.7-.184 2.555-.047.417.224.819.658.856h-.004ZM93.33 203.148c-.394 0-.705.384-.69.764.017.414.364.699.755.699.39 0 .706-.384.691-.764-.018-.413-.365-.699-.756-.699ZM127.015 212.693a.73.73 0 0 0 .781-.665c.04-1.071.065-2.011.101-3.137.004-1.272-.021-2.486.112-3.776.069-.629.236-1.279.109-1.908-.195-.94-1.574-.684-1.425.259.047.965-.243 1.931-.214 2.907-.029 1.685-.032 3.217-.097 4.942-.036.534-.123 1.291.633 1.382v-.004ZM126.74 215.878c.394 0 .705-.384.691-.764-.018-.414-.366-.699-.756-.699-.391 0-.706.384-.691.764.018.413.365.699.756.699Z"/></g><defs><clipPath id="a"><path fill="#fff" d="M0 0h136v239H0z"/></clipPath></defs></svg>