<svg xmlns="http://www.w3.org/2000/svg" width="303" height="243" fill="none"><g clip-path="url(#a)"><path fill="#A4D357" d="M93.89 84.457c3.162.39 6.295 1.213 9.318 2.387.794-.03 1.501-.525 1.676-1.345.246-1.075-.355-2.114-.871-3.024a1.366 1.366 0 0 1-.256-.445c-1.68-1.75-3.671-3.276-6.032-3.9-2.126-.517-4.333-.4-6.485-.703-1.497-.295-2.877-.965-4.227-1.647a14.912 14.912 0 0 1-3.558-2.324c-.007.575.022 1.155.084 1.727 1.179 4.875 5.454 7.725 10.347 9.27l.004.004Z"/><path fill="#E2FFB4" d="M59.178 100.611c-1.72-.303-3.341-.951-4.98-1.535-.952-.123-.813-1.526.142-1.45 1.058.197 2.017.75 3.045 1.06.787.237 1.6.394 2.412.533.29-.813.468-1.662.549-2.511a6.502 6.502 0 0 1-.706 0c-.806-.055-1.596-.2-2.383-.386-1.453-.401-3.023-.463-4.363-1.196-2.145-1.388-4.11-3.22-5.208-5.557.059 2.507.666 4.996 1.435 7.372 1.153 2.514 2.657 4.734 4.611 6.669.25.244.513.473.776.696.476-.172.952-.347 1.406-.576 1.438-.66 2.518-1.786 3.257-3.123l.007.004Zm-7.217-2.475c-.399 0-.743-.298-.754-.707-.015-.386.311-.75.71-.75.399 0 .743.299.754.707.015.386-.311.75-.71.75ZM112.435 77.23c.047.07.084.147.106.23 2.251 2.216 6.332-1.909 8.308-3.148 2.032-1.457 4.312-2.81 5.34-5.156.443-.824.611-1.735.82-2.624a18.606 18.606 0 0 0-1.215-2.962c-1.329-2.074-2.924-4.042-4.817-5.627-2.368-1.694-5.131-2.448-7.795-3.498-1.468-.54-2.936-1.075-4.352-1.745-1.676-.758-3.433-1.414-4.919-2.526a42.968 42.968 0 0 1-2.987-2.518c-1.65-1.629-2.836-3.633-3.854-5.699-1.101-2.015-2.29-4.041-2.81-6.293-.623-2.372-.784-4.861-.835-7.27-2.163 3.316-3.261 7.106-3.323 11.03-.355 3.258.428 6.607 1.526 9.672 1.811 4.558 5.589 8.224 10.032 10.228 5.428 2.209 9.351 6.756 10.5 12.507.315 1.785.242 3.603.279 5.407l-.004-.007ZM98.597 54.599c-1.798-1.487-3.448-3.301-4.535-5.36-.586-.758.541-1.651 1.145-.911.579 1.024 1.208 2.022 2.002 2.9.736.751 1.413 1.564 2.255 2.198.761.572-.099 1.73-.871 1.173h.004Zm3.586 2.441c-.399 0-.743-.298-.754-.706-.014-.387.311-.751.71-.751.399 0 .743.299.754.707.015.386-.311.75-.71.75Z"/><path fill="#A9A9A9" d="M169.728 57.921c-.011.026-.018.05-.029.076l-.022.083a.673.673 0 0 1 .051-.159Z"/><path fill="#A4D357" d="M135.991 63.318c1.727 1.421 4.172.46 6.101.004 2.394-.79 4.864-1.717 6.683-3.524.19-.222.403-.445.545-.7a11.983 11.983 0 0 0-1.877-3.509c-2.687-3.18-6.251-5.407-9.388-8.104-3.953-3.447-6.771-8.199-7.657-13.377-1.742 3.057-2.042 6.69-1.727 10.116a32.318 32.318 0 0 0 3.041 8.778c1.768 2.707 3.166 5.721 3.404 8.953.209.489.483 1.02.875 1.36v.003Zm.157-9.186c.399 0 .717.371.706.754-.014.408-.358.703-.757.703s-.718-.371-.707-.754c.015-.408.359-.703.758-.703Zm-2.291-2.168c-.824-.911-1.72-1.79-2.295-2.89-.443-.689-.388-1.771.67-1.593.296.088.49.354.516.645.168.503.604 1.046.886 1.407.413.503.871.958 1.303 1.443.633.71-.429 1.68-1.08.984v.004ZM167.251 150.985c.216-.284.392-.59.564-.903.728-1.327.699-2.861 1.057-4.297.926-4.901-1.903-7.113-6.547-7.397-8.85-.444-17.019 4.271-23.329-4.515-2.112-2.838-3.419-6.22-5-9.339-1.749-3.243-3.111-6.68-5.029-9.828-1.39-2.591-2.638-5.266-4.326-7.689a67.781 67.781 0 0 0-3.041-4.03c-2.496-3.276-5.252-6.33-8.455-8.895a38.348 38.348 0 0 0-6.511-3.728c-2.738-1.363-5.519-2.74-8.458-3.597a.954.954 0 0 1-.399-.116 34.883 34.883 0 0 0-3.759-.725.758.758 0 0 1-.359-.015c-.062-.018-.12-.04-.179-.058-3.623-.43-7.298-.244-10.87.769-12.411 3.578-20.62 14.517-28.021 24.374-1.332 2.07-2.91 3.965-4.527 5.816-2.917 3.484-5.838 7.164-9.875 9.416-7.745 4.136-11.895-5.072-18.886-6.191-5.058-1.09-9.717 1.665-12.444 5.812-1.698 2.5-2.631 5.393-3.663 8.203a122.63 122.63 0 0 0-1.27 4.981.5.5 0 0 1 0 .128c-.04.113-.073.226-.11.342-.205.9-.395 1.804-.571 2.711-.08.532-.157 1.064-.249 1.593-.091.594-.19 1.188-.3 1.778a31.294 31.294 0 0 0-.311 2.544c-.114.951-.11 1.924-.319 2.856h165.187ZM9.465 133.443c-.315.609-.571 1.254-.816 1.891-.212.784-.633 1.575-.644 2.387.19.937-1.19 1.254-1.428.325-.117-.467-.022-.944.117-1.392.275-.944.575-1.881.97-2.784.363-.682.685-2.263 1.746-1.753.516.313.366.922.055 1.326Zm1.537-2.889c-.399 0-.72-.365-.71-.751a.743.743 0 0 1 .754-.707c.399 0 .721.364.71.751a.743.743 0 0 1-.754.707Zm85.146-41.823c2.958.85 6.003 1.699 8.565 3.455.794.536.033 1.727-.787 1.232-2.5-1.691-5.46-2.537-8.349-3.306-.457.073-.951-.167-.984-.666-.04-.842.944-.89 1.552-.711l.003-.004Zm4.034 59.576c-.787 0-1.57-.047-2.357-.062-2.57-.069-5.026.109-7.573-.018-.209 0-.414.011-.618.055a.74.74 0 0 1-.853-.583c-.132-.959 1.057-.962 1.73-.922 1.373.036 2.578.062 3.92.025 1.893-.12 3.785.029 5.681.044.959-.015 1.032 1.396.073 1.457l-.003.004Zm4.34.685c-.399 0-.746-.28-.765-.692-.018-.383.297-.762.696-.762.399 0 .746.281.765.693.018.382-.297.761-.696.761Zm1.819-53.884c-.399 0-.713-.382-.691-.765.018-.412.369-.689.768-.689s.714.383.692.766c-.018.411-.37.688-.769.688ZM90.958 153.711c-1.153.642-2.152 1.516-3.195 2.318-.696.481-3.122 2.758-3.759 1.596-.494-.995.926-1.235 1.497-1.705 1.171-.842 2.258-1.793 3.43-2.635-3.093-.452-7.368-.394-10.289.459-1.098.554-2.119 1.283-3.14 1.939-2.317 1.366-4.883 2.376-7.55 2.747-.019 0-.037.008-.056.008-.355.047-.71.083-1.068.109 2.496 1.949 5.482 3.502 8.714 3.589 3.283-.065 6.58-.79 9.523-2.219 2.087-1.228 3.939-2.973 6.014-4.249.201-.222.487-.404.706-.521.267-.186.546-.357.824-.517-.44-.372-.908-.704-1.479-.868-.055-.018-.117-.032-.172-.051ZM221.895 92.022c.852-.288 1.57-.864 2.39-1.225.014-.014.033-.025.051-.04a18.38 18.38 0 0 0 1.98-2.536c.893-1.228 1.702-2.543 2.086-4.026.743-2.671.154-5.415.033-8.12.318-4.627 1.424-10.184 4.502-13.792-5.915 2-8.543 5.11-11.646 10.302-1.117 1.884-1.695 4.034-2.943 5.845-.132.182-.274.36-.417.535-1.226 1.848-2.251 3.852-2.255 6.093.011 3.276 2.592 7.292 6.215 6.96l.004.004Zm-3.324-9.606c.425-.747.849-1.395 1.212-2.153.585-1.152 1.076-2.373 1.361-3.622.121-.948 1.534-.813 1.457.138-.388 1.899-1.23 3.75-2.207 5.408-.377.586-.761 1.833-1.665 1.282-.363-.251-.396-.732-.154-1.053h-.004Z"/><path fill="#E2FFB4" d="M105.408 167.081c-1.292-1.68-2.892-3.502-4.864-4.369-1.248-.241-2.562-.139-3.807.069-.267.04-.53.16-.798.222-.084.048-.164.091-.245.139-.19.171-.399.32-.615.368a19.02 19.02 0 0 0-4.85 4.318c-1.416 1.581-2.43 3.447-3.557 5.233-1.167 1.949-2.543 3.764-3.982 5.524-2.566 2.868-5.38 5.634-8.901 7.306-2.16 1.101-4.381 2.132-6.764 2.649-2.693.623-5.395.886-8.143.871 1.182.897 2.529 1.553 3.861 2.234 3.415 1.673 7.079 2.718 10.834 3.305 5.987 1.068 12.663-.339 16.843-4.941 3.653-4.388 6.01-10.105 11.163-13.068a14.77 14.77 0 0 1 3.905-1.592.769.769 0 0 1 .341-.204c1.548-.754 2.082-2.678 1.69-4.267-.402-1.447-1.215-2.617-2.104-3.794l-.007-.003Zm-17.294 9.259c-.399 0-.746-.277-.768-.688-.019-.379.292-.766.691-.766.4 0 .747.277.769.689.018.379-.293.765-.692.765Zm9.194-9.656c-.567.594-1.361.889-2.002 1.392-1.321.922-2.368 2.139-3.21 3.502-.534.615-1.054 2.426-2.1 1.832-.315-.211-.44-.696-.198-1.013.461-.597.827-1.26 1.251-1.884 1.22-1.993 3.02-3.52 5.037-4.671.618-.867 1.885-.018 1.222.842ZM198.46 71.878c1.347.922 2.734 1.793 4.282 2.24 1.358.216 2.939.387 4.22-.181.113-.062.223-.135.34-.19.337-.397.648-.816.948-1.235 1.673-1.931 2.617-4.304 3.188-6.763.915-4.07.315-8.29 1.19-12.372 1.065-5.754 3.645-11.1 7.012-15.858 2.306-3.01 5.168-5.547 8.36-7.602-2.464-.106-4.868.54-7.211 1.235-1.76.532-3.491 1.152-5.054 2.14-4.692 3.45-8.985 7.994-10.962 13.54-1.01 2.828-1.537 5.79-2.36 8.67-1.025 3.589-3.28 6.632-5.864 9.295-.157.35-.49.7-.578 1.068-.425 1.37-.146 2.89.523 4.129.494.769 1.259 1.308 1.958 1.884h.008Zm9.959-29.003c1.229-2.135 2.624-4.354 4.666-5.797.875-.387 1.482.885.626 1.319-1.343 1.13-2.463 2.554-3.356 4.056-.406.55-.707 1.822-1.625 1.402-.341-.174-.513-.64-.311-.983v.003ZM157.669 54.908c.322 1.971 1.065 4.332 3.155 5.036 2.972.656 7.137.984 8.908-2.026.018-.04.04-.077.062-.113 1.179-6.833-2.448-13.046-4.619-19.587-2.521-6.37-3.407-13.33-2.646-20.13.564-5.808 2.079-11.164 5.406-16.033-2.983 1.447-4.941 4.165-6.844 6.767-1.918 2.267-3.126 4.996-4.44 7.627-2.302 5.182-3.755 10.728-3.846 16.39.055 3.645.896 7.044 2.038 10.44 1.296 3.637 2.738 7.394 2.734 11.279.044.102.081.211.099.346l-.007.004Zm2.825-3.484c-.025.416-.377.685-.776.685s-.71-.393-.688-.772c.026-.416.377-.686.776-.686s.71.394.688.773ZM154.54 34.2c.387-.937 1.584-.496 1.445.485.476 3.731 2.156 7.069 3.532 10.502.351.969.516 1.982.608 3.002a.739.739 0 0 1-.681.78.746.746 0 0 1-.783-.678c-.103-2.175-1.135-4.107-1.969-6.049-1.007-2.565-2.098-5.269-2.152-8.042Z"/><path fill="#A9A9A9" d="m229.193 145.202-.033-.018c0 .007.003.015.007.022.011 0 .018 0 .029-.004h-.003ZM222.586 94.277l-.025.022c.003.003.007.007.01.014.004-.01.011-.021.015-.032v-.004Z"/><path fill="#A4D357" d="M227.996 141.544c.11.532.329 1.031.585 1.505.451.415 1.033.787 1.757 1.089 1.457.569 2.745.74 4.315.601a.67.67 0 0 1 .436.062 30.55 30.55 0 0 1 1.149-.087c2.401-.113 4.78.302 7.152.645 1.991-.037 3.166-1.516 4.136-3.094.944-1.439 1.196-3.221 1.515-4.886.256-1.068.64-2.11 1.068-3.12.769-1.548 2.149-2.769 3.62-3.644-1.197-.167-2.459-.237-3.634.106a21.069 21.069 0 0 0-5.164 2.984c-1.893 1.36-4.136 2.216-6.431 2.595-.187.029-.37.055-.556.076a.615.615 0 0 1-.246.051c-1.251.164-2.521.197-3.777.044a5.791 5.791 0 0 0-1.939-.091l-.099.033c-1.27.295-2.313 1.133-2.965 2.241-.52.871-1.087 1.833-.922 2.886v.004ZM125.732 187.794c-.465-2.001-2.569-3.061-4.085-4.235-2.093-1.352-3.462-2.088-5.779-.645-.022.015-.04.026-.058.04-2.09 1.961-3.031 4.596-3.423 7.857-.208 3.003-.603 5.998-1.412 8.906-.458 1.825-1.406 3.436-2.526 4.93a16.089 16.089 0 0 1-2.741 3.367c1.014-.164 2.046.051 3.049-.156 2.221-.748 4.509-1.374 6.606-2.435 3.06-1.858 5.937-4.201 7.789-7.299 1.046-1.698 1.559-3.644 2.119-5.538.153-.547.351-1.185.593-1.841-.048-.298-.019-.641 0-.911.036-.67.047-1.403-.128-2.04h-.004Zm-13.604 15.494c-.399 0-.747-.277-.769-.689-.018-.379.293-.765.692-.765.399 0 .746.277.768.689.019.379-.292.765-.691.765Zm2.1-3.021a.74.74 0 0 1-.929.452c-1.047-.463-.062-1.644.047-2.405.096-.288.022-.609.246-.842.395-.485 1.281-.186 1.281.445-.033.82-.377 1.585-.645 2.35Z"/><path fill="#A9A9A9" d="m178.908 61.369-.008.018c.008.011.019.023.026.034-.007-.019-.014-.034-.018-.052Z"/><path fill="#A4D357" d="M179.709 57.849c.136.51.191 1.03.227 1.56.187 1.362.688 2.769 1.819 3.636 1.263 1.017 2.885 1.808 4.539 1.516.578-.08 1.061-.634 1.541-.882.34-.219.633-.521.86-.838a.764.764 0 0 1 .208-.197c.418-1.01.703-2.07.835-3.155.472-4.534-1.757-8.71-3.872-12.554-.63-1.505-1.303-3.057-1.779-4.65-.223.667-.395 1.33-.567 2.023-.487 1.825-.937 3.698-.941 5.597-.135.79.41 2.5-.805 2.521a.74.74 0 0 1-.685-.772c-.08-2.591.293-5.28 1.025-7.744.392-1.311.604-2.81 1.446-3.913 0 0 .007 0 .007-.004a11.085 11.085 0 0 1-.091-2.518c-1.058 1.115-2.028 2.288-2.544 3.757-1.288 2.922-1.742 6.111-1.804 9.281-.063 2.132.424 4.555.461 6.855a.84.84 0 0 1 .124.48h-.004Zm2.12-4.344c.399 0 .71.394.688.773-.026.415-.377.685-.776.685s-.71-.394-.688-.773c.025-.415.377-.685.776-.685ZM297.645 223.355c-4.659-5.404-13.875-4.981-20.412-6.016-5.054-.889-10.098-4.292-11.521-9.394-1.34-4.438-.912-9.128-.89-13.698-.022-2.252.128-4.497.205-6.741.136-4.158.059-8.316-.109-12.466-.264-3.342-1.186-6.581-2.09-9.795-.736-2.482-1.409-5.004-2.515-7.35-.834-1.633-2.009-3.054-3.188-4.446-3.129-3.451-7.521-5.513-12.07-6.337-.612-.095-1.226-.197-1.841-.295a6.359 6.359 0 0 1-.568-.047 1.122 1.122 0 0 1-.172-.07c-2.232-.35-4.479-.63-6.734-.484-7.898.623-14.933 4.846-20.807 9.897a103.328 103.328 0 0 0-10.962 10.801c-.033.032-.062.069-.095.102a57.789 57.789 0 0 1-1.779 1.927c-3.751 4.082-7.448 8.236-10.917 12.525-3.591 4.587-6.995 9.31-10.578 13.902-6.731 9.871-13.926 19.59-23.204 27.257-4.279 3.884-12.14 9.449-16.821 3.257-2.277-3.731-6.995-7.189-11.387-4.773-2.909 1.516-5.321 3.921-7.228 6.544-.89 1.403-1.687 2.857-2.522 4.297-.586 1.322-1.329 2.576-1.808 3.942-.377 1.13-.673 2.293-.955 3.448-.114.645-.48 1.297-.417 1.953.01.011.025.018.036.029.245.087.513.091.765.142a.44.44 0 0 1 .073.004c.03 0 .055-.008.084-.008h183.538c.022-.032.044-.069.073-.098.425-2.179.784-4.533.677-6.741-.062-1.582-.49-3.262-.794-4.752-.582-2.427-1.369-4.69-3.074-6.505l.007-.011Zm-166.317 2.296c-2.789 0-5.373 3.32-6.991 5.277-.223.309-.505.597-.64.958-.081.405-.48.689-.879.598-1.317-.496-.014-1.961.505-2.624 1.666-2.063 3.525-4.187 5.992-5.298.754-.248 2.554-.871 2.715.331.019.386-.3.758-.699.762l-.003-.004Zm2.144.663c-.398 0-.746-.287-.764-.696-.019-.382.3-.761.699-.761.399 0 .746.288.765.696.018.382-.301.761-.7.761Zm68.589 12.062c-1.417.08-2.753-.051-4.081-.04-1.878.036-3.759.138-5.64.106-.637 0-1.267.032-1.903.08a.74.74 0 0 1-.776-.685.738.738 0 0 1 .688-.773c1.259-.109 2.525-.076 3.788-.08 2.342-.091 4.644-.128 6.976-.036.618 0 1.555-.212 1.636.652a.738.738 0 0 1-.688.772v.004Zm2.931-66.663c-.582.594-1.171 1.18-1.734 1.789a66.497 66.497 0 0 0-3.95 4.777c-.53.7-1.189 1.334-1.54 2.147-.125.378-.524.615-.904.502-1.256-.554.084-1.96.563-2.645 1.395-1.731 2.712-3.52 4.22-5.156.74-.853 1.537-1.651 2.328-2.46.278-.284.765-.266 1.036.014a.736.736 0 0 1-.011 1.032h-.008Zm1.651 66.944a.776.776 0 0 1-.534-.186.724.724 0 0 1-.242-.499c-.022-.379.286-.773.688-.773a.78.78 0 0 1 .535.186c.142.127.23.306.241.499.022.379-.285.773-.688.773Zm-.146-68.697c-.901-.375-.257-1.851.633-1.461.904.39.26 1.84-.633 1.461Zm61.81 46.352a.74.74 0 0 1-1.032-.051c-1.395-1.629-2.833-3.236-3.832-5.146-.919-1.563-1.399-3.316-1.937-5.032-.329-1.05-.362-2.146-.468-3.232-.11-.398.029-.828.446-.973.937-.252 1.047.75 1.073 1.428.263 3.393 1.669 6.771 3.678 9.456.706.842 1.409 1.68 2.123 2.518a.732.732 0 0 1-.051 1.028v.004Zm1.445 2.015c-.399 0-.713-.383-.691-.766.018-.411.369-.688.768-.688s.714.382.692.765c-.018.412-.37.689-.769.689Z"/><path fill="#E2FFB4" d="M38.829 202.486c.223.259.574.39.911.386 2.298-.247 2.672-2.999 3.085-4.799.213-.987.483-1.96.74-2.937-1.069 1.192-2.006 2.496-3.034 3.724-.787.973-2.39 2.26-1.702 3.63v-.004ZM141.751 191.149c.121.048.213.11.286.186a62.997 62.997 0 0 0 6.072 1.531 66.483 66.483 0 0 0 11.141 1.282c.483-.142 1.112-.138 1.475-.28 3.883-.98 7.667-2.347 11.284-4.009 3.074-1.523 6.156-3.075 9.036-4.941 4.93-3.403 9.787-7.047 14.106-11.191 1.782-1.807 3.671-3.516 5.449-5.327.784-.86 1.567-1.72 2.354-2.576.157-.197.326-.405.512-.554a827.338 827.338 0 0 1 3.84-4.133c1.947-1.905 3.974-3.822 6.093-5.641a.49.49 0 0 1 .096-.134c.721-.777 1.339-1.411 2.002-2.187 1.31-1.505 2.708-3.05 3.901-4.631 4.367-5.915 7.668-12.911 8.048-20.327.008-.24 0-.502.059-.739a65.785 65.785 0 0 0-.135-3.593c-1.351-22.899-15.738-44.282-36.329-54.412-22.151-11.242-49.7-8.622-69.368 6.18-.114.23-.326.44-.575.58-.659.524-1.189 1.202-1.658 1.898-2.269 3.804-3.228 8.385-2.943 12.743.187 2.864 1.625 5.437 3.386 7.63a.846.846 0 0 1 .069.142 60.28 60.28 0 0 1 2.442 2.996c2.789 3.352 5.241 6.978 7.093 10.928.721 1.425 1.588 2.777 2.32 4.198a326.24 326.24 0 0 0 4.03 8.181c1.53 3.166 2.891 6.482 5.223 9.168 2.913 3.367 6.222 4.005 10.507 3.564 4.488-.215 9.055-1.439 13.51-.335 2.968.696 5.486 3.053 5.398 6.253a11.678 11.678 0 0 1-.337 3.247c-.172 1.155-.293 2.332-.787 3.407a7.543 7.543 0 0 1-.94 1.621 1.54 1.54 0 0 1-.161.179.738.738 0 0 1-.644.39h-40.147c-.355.222-.941.098-1.358.197-1.544.273-3.114.335-4.545.991-2.445 1.108-4.491 2.922-6.365 4.803-3.104 3.035-5.132 7.798-3.338 12.014 1.215 2.5 3.341 4.384 5.084 6.482.179.172.369.368.468.583a66.945 66.945 0 0 0 18.414 11.577c1.994.616 3.996 1.243 5.925 2.059h.007Zm79.001-56.259c.33-1.021.648-2.063.853-3.072.26-1.436.37-2.894.491-4.348.073-1.089.263-2.284.065-3.323-.362-.882.937-1.447 1.347-.576.421 1.374.099 2.872.022 4.282-.168 1.957-.307 3.932-.885 5.82-.315.706-.271 2.306-1.373 2.106-.37-.099-.64-.514-.52-.893v.004Zm-1.647 3.655c.399 0 .74.32.743.717a.737.737 0 0 1-.721.74.74.74 0 0 1-.743-.718.737.737 0 0 1 .721-.739ZM146.85 69.283c-2.086.383-4.22.641-6.204 1.41-2.628 1.01-5.344 2.077-7.668 3.633-1.339.944-2.737 1.8-4.051 2.78-.575.398-1.208 1.499-1.944.751-.56-.692.337-1.271.798-1.701.805-.623 1.651-1.192 2.489-1.764 1.263-.787 2.43-1.727 3.759-2.412 1.248-.627 2.536-1.174 3.81-1.75 2.844-1.322 5.918-1.96 9.007-2.408 1.014-.037 1.032 1.45.011 1.465l-.007-.004Zm4.739-.295a.759.759 0 0 1-.523.175c-.399 0-.71-.394-.688-.773a.72.72 0 0 1 .253-.506.759.759 0 0 1 .523-.175c.399 0 .71.393.688.772a.724.724 0 0 1-.253.507Zm5.82 85.656c1.134.033 2.254-.11 3.385-.197 1.874-.055 3.741-.339 5.615-.31.71.139.739 1.221.04 1.407-2.826.153-5.658.419-8.484.557-.765 0-1.53.037-2.291.066a.74.74 0 0 1-.75-.711c.047-1.137 1.724-.681 2.488-.812h-.003Zm-6.833.003a.74.74 0 0 1 .75.711c.011.39-.315.747-.714.747a.74.74 0 0 1-.75-.711c-.011-.389.315-.747.714-.747ZM17.36 172.634c2.733-.674 2.803-4.566 3.333-6.821.227-1.29.381-2.475.49-3.695-1.174 1.435-2.224 2.904-3.319 4.383-1.248 1.607-4.249 5.674-.505 6.133Z"/><path fill="#A4D357" d="M174.007 201.797c.348-.353.681-.728 1.051-1.06 1.932-2.587 3.619-5.324 5.607-7.867a68.094 68.094 0 0 1-19.336 2.776c-.077.288-.161.576-.242.864-.19.583-.336 1.166-.439 1.745.008.044.015.088.019.135a.736.736 0 0 1-.118.551c-.234 2.098.187 4.121 1.486 5.885 1.808 1.435 4.396.965 6.475.492 2.196-.514 3.945-1.957 5.501-3.513l-.004-.008Zm-8.831-.881a.735.735 0 0 1-.725-.737c0-.397.34-.721.739-.721.399 0 .729.339.725.736 0 .397-.34.722-.739.722Z"/><path fill="#E2FFB4" d="M42.463 171.622c-.56 1.045-1.46 2.649.443 2.758 1.215-.124 2.075-1.312 2.467-2.365.743-1.924 1.263-3.928 2.013-5.848-1.907 1.617-3.675 3.305-4.923 5.455ZM131.196 211.461c.022.062.037.128.048.197.801 4.027 3.777 8.301 8.125 8.833 2.101.241 4.355-.371 5.83-1.913.191-.211.399-.499.633-.692.315-.736.557-1.505.758-2.238.769-2.412.871-4.963 1.076-7.466.011-.736-.04-1.469-.055-2.201.029-2.121.747-4.224 1.859-6.024.059-2.824-1.431-4.566-3.982-5.626-2.701-1.213-5.9-1.221-8.604-.157-1.106.419-2.101 1.09-2.98 1.87a1.224 1.224 0 0 1-.183.204 16.828 16.828 0 0 0-1.456 3.301c-1.157 2.81-1.278 5.867-1.245 8.866-.055 1.013.044 2.033.172 3.05l.004-.004Zm12.228-6.07c.004-1.815.567-3.528 1.142-5.219.157-.943 1.563-.743 1.449.208-.062.565-.318 1.071-.523 1.596-.326.951-.476 1.946-.578 2.944-.052.795-.055 1.589-.121 2.38-.033.394-.45.67-.831.619-1.061-.204-.439-1.763-.542-2.528h.004Zm-.34 4.646c.399 0 .728.338.724.736 0 .397-.34.721-.739.721a.736.736 0 0 1-.725-.736c0-.397.341-.721.74-.721ZM11.354 203.503c-.945 1.184-2.409 3.327.117 3.589 2.075-.19 2.269-2.766 2.807-4.333.333-1.148.761-2.266.984-3.447-1.423 1.261-2.781 2.697-3.905 4.191h-.003ZM234.43 120.416c.385.036.754-.037 1.127-.026 4.652-2.153 8.371-5.896 11.445-9.915 2.595-3.371 3.532-7.649 4.25-11.734.406-2.325 1.116-4.584 1.723-6.865.912-2.966 2.672-5.557 4.327-8.151 2.979-4.716 7.528-8.349 12.967-9.814-3.946-.67-8.209-.812-11.976.692-3.524 1.728-6.807 4.03-9.585 6.79-1.903 1.982-3.349 4.103-4.765 6.398-1.863 3.058-3.426 6.326-5.666 9.14a17.251 17.251 0 0 1-6.636 4.704c-.263.164-.552.309-.787.473-.944.511-1.863 1.097-2.554 1.928-2.222 2.576-1.318 6.14-.776 9.147.951 3.986 2.573 6.635 6.903 7.244l.003-.011Zm13.733-26.743c.732-2.886 2.042-5.59 3.509-8.174.817-1.29 1.808-2.452 2.687-3.699.124-.36.582-.532.93-.408.574.2.592.926.215 1.323-2.126 2.657-3.934 5.553-5.098 8.76-.344.827-.6 1.677-.823 2.544-.22.641-.33 1.847-1.289 1.556-.852-.346-.293-1.283-.131-1.902Zm-.967 4.558c.399 0 .751.273.773.685.022.38-.29.77-.689.77-.398 0-.75-.274-.772-.686-.022-.379.289-.769.688-.769Z"/><path fill="#000" d="M293.257 218.669c-5.168-2.07-10.793-1.979-16.217-2.842-4.176-.908-8.312-3.601-9.761-7.755-1.366-4.096-1.069-8.468-1.007-12.721-.022-2.62.114-5.236.216-7.853.132-3.965.059-7.933-.08-11.894-.165-3.607-1.15-7.109-2.127-10.567-.791-2.664-1.49-5.39-2.716-7.893-1.339-2.427-3.114-4.661-5.222-6.472-1.358-1.141-2.899-2.059-4.455-2.897-1.756-.911-3.671-1.461-5.603-1.88 1.255-.879 2.203-2.271 2.983-3.71.772-1.665.933-3.527 1.416-5.28.282-.787.556-1.775 1.04-2.558 1.09-1.505 2.584-2.504 4.296-3.236.473-.186.645-.791.319-1.188-.714-.623-1.805-.598-2.698-.787-1.317-.171-2.686-.171-3.971.197-.739.24-1.398.663-2.111.969-1.761.721-3.093 2.139-4.751 3.028-3.408 1.866-7.69 2.281-11.214.627a.79.79 0 0 0-.249-.208c-.707-.448-1.274-1.199-1.592-1.968-1.556-4.857 1.826-7.696 5.943-9.427.948-.448 1.615-1.115 2.537-1.647.194-.08.37-.215.494-.379 4.663-2.882 8.901-7.576 11.291-11.945 2.998-6.304 2.555-13.727 6.024-19.856 2.621-4.537 5.366-8.73 10.065-11.365 1.201-.576 2.398-1.192 3.668-1.593.757-.211 1.53-.43 2.221-.813 1.354-.688.597-1.825-.556-2.091-4.344-.922-9.037-1.097-13.267.412-5.959 2.696-11.226 7.058-14.651 12.648-2.398 3.535-4.008 7.623-6.885 10.819a15.96 15.96 0 0 1-5.168 3.575c-.234.011-.45.127-.662.269a14.754 14.754 0 0 1-3.975.904c-.037-.011-.07-.025-.11-.033a16.696 16.696 0 0 1-1.537-.324c-2.233-.456-2.163-2.613-1.76-4.41.325-1.785 1.281-3.334 2.346-4.773.274-.4.534-.813.808-1.213.172-.248.385-.474.432-.766.139-.196.278-.397.41-.6 3.316-4.151 2.972-8.036 2.467-12.977.077-2.135.447-4.278 1.05-6.384.458-2.012 1.23-4.02 2.416-5.732.641-.798 1.263-1.633 2.079-2.26.278-.226.6-.404.856-.656.396-.419.132-1.151-.431-1.242-1.047-.055-2.006.554-2.994.83-1.552.584-3.115 1.17-4.561 2.001-3.385 1.815-5.735 5.01-7.73 8.195-1.731 2.468-2.247 5.667-4.425 7.828-1.017 1.082-2.232 1.873-3.63 2.277a.768.768 0 0 0-.344-.014c-1.051.13-2.215-.408-2.829-1.272-.959-1.603-.879-3.998.12-5.681.494-.845.937-1.716 1.435-2.555.117-.24.249-.499.286-.743 2.078-3.91 2.346-8.621 2.368-13.009.457-7.332 3.429-14.397 7.901-20.191 1.249-1.41 2.489-2.806 3.979-3.98 1.233-1.115 2.701-1.916 3.993-2.951.256-.223.56-.412.758-.693.406-.623-.194-1.311-.835-1.402-2.606-.369-5.248.138-7.755.845-2.211.63-4.44 1.305-6.416 2.518-4.14 2.85-7.69 6.628-10.234 10.954-1.522 2.704-2.313 5.746-3.041 8.738-.644 2.944-1.457 5.889-3.247 8.396-1.383 1.862-2.851 3.648-4.589 5.182a.705.705 0 0 0-.418.135c-.801.473-1.69.903-2.642.907-.209-.026-.501-.062-.571-.295-.179-.653-.285-1.345-.168-2.02.241-.83.475-1.668.622-2.52 1.358-5.306-1.171-10.648-3.85-15.415-.956-2.383-2.006-4.817-2.149-7.412-.036-1.162.26-2.288.447-3.414a.755.755 0 0 0-.696-.685c-.318-.018-.563.167-.776.382-.468.485-.918.984-1.361 1.49-.414.522-.89.985-1.332 1.48-.721.878-1.212 1.91-1.647 2.955-1.644 3.878-2.094 8.174-1.757 12.36.117 2.227.71 4.494.091 6.691-.088.284-.186.58-.3.868a.628.628 0 0 0-.307.196c-.257.263-.564.5-.923.736-.893.46-1.98.022-2.843-.32-1.153-.649-1.713-1.92-1.889-3.181-.04-.594.007-1.218-.161-1.786.443-4.803-1.446-9.493-3.173-13.91-1.003-2.787-2.086-5.553-2.972-8.38-1.805-6.104-1.955-12.623-.908-18.887.388-2.39.974-4.694 1.859-6.978.974-2.34 2.368-4.497 3.745-6.643.369-.522.377-1.258-.308-1.502-.582-.182-1.178.102-1.698.343-.681.31-1.34.681-1.973 1.075-1.793 1.151-3.286 2.678-4.524 4.398-2.104 2.61-4.007 5.295-5.372 8.37-2.423 4.68-3.917 9.795-4.553 15.014-.487 3.68-.125 7.444.849 11.023.977 3.957 2.84 7.634 3.495 11.679.3 2.135.252 4.413-.311 6.544-.494 1.1-1.164 1.957-2.504 1.975-1.024-.098-1.698-.947-2.305-1.72a.543.543 0 0 0-.037-.065c-1.932-5.86-8.059-8.913-12.418-12.91-2.218-2.202-4.118-4.724-5.249-7.657-.787-2.059-1.68-4.519-1.197-6.81.18-.81-.841-1.25-1.357-.638-.897 1.108-1.168 2.423-1.911 3.651-.999 1.928-1.263 4.165-1.501 6.297-.369 4.424 1.241 8.75 3.097 12.7 1.511 2.514 3.056 5.028 3.352 8.027.066.736.132 1.556.121 2.372a.668.668 0 0 0-.025.372c-.341 1.264-1.109 2.645-2.5 2.93a2.519 2.519 0 0 1-2.624-.926.859.859 0 0 0-.242-.342c-.706-2.129-1.812-4.118-3.334-5.787-1.007-1.203-2.024-2.427-3.313-3.345-1.251-.904-2.668-1.545-4.102-2.1-4.122-1.625-8.4-2.958-12.25-5.174-2.277-1.603-4.327-3.443-5.769-5.863-1.262-2.55-2.931-4.974-3.744-7.743a26.465 26.465 0 0 1-.86-5.758c-.08-1.006.275-4.8-1.654-3.782-.882.78-1.395 1.92-1.991 2.918-.677 1.382-1.391 2.77-1.797 4.257-.7 2.558-.842 5.207-.963 7.842.253 5.75 2.288 11.711 6.767 15.548 2.182 2.242 4.974 3.499 7.749 4.821 2.335 1.382 4.432 3.16 5.779 5.547.926 1.669 1.661 3.476 1.969 5.364.311 3.046.187 6.1.051 9.168-.015.386-.051.769-.095 1.148a5.428 5.428 0 0 1-.329.769c-.626.973-1.819 1.545-2.939 1.348a9.526 9.526 0 0 0-.344-.787c-1.776-3.298-4.949-5.995-8.462-7.296-2.332-.688-4.788-.564-7.174-.874-2.675-.71-7.097-2.711-8.33-5.291-.136-.219-.212-.485-.392-.67-.787-.65-1.471.156-1.24.998.054.433.142.86.23 1.286a13.216 13.216 0 0 0 .3 3.006c.022.409.066.817.165 1.217.454 2.22 1.263 4.37 2.577 6.228.406.587.86 1.144 1.346 1.665-3.733.46-7.4 1.633-10.859 3.688-3.77 2.074-7.09 4.796-10.123 7.824a2.699 2.699 0 0 0-.37-.208c-1.698-.936-3.649-.393-5.475-.514-.784-.098-1.548-.273-2.32-.455-1.37-.346-2.866-.386-4.02-1.32-1.346-1.082-2.708-2.182-3.568-3.734-.348-.598-.673-1.305-1-1.932-.211-.408-.438-.95-.943-1.042-1.999-.277-1.11 4.763-.934 5.936.385 1.859.71 3.783 1.541 5.506 1.739 3.549 4.312 6.687 7.646 8.851-.663.85-1.318 1.702-1.954 2.57-1.373 2.102-2.921 4.084-4.583 5.968-3.166 3.674-6.215 7.893-10.804 9.872-3.503 1.213-6.032-.754-8.762-2.689-2.646-2.059-5.556-3.932-8.978-4.3-5.366-.747-10.204 2.274-13.059 6.65-2.291 3.575-3.649 7.682-4.674 11.774a52.5 52.5 0 0 1-.512 2.245c-.25.626-.359 1.293-.461 1.964-.107.492-.202.991-.279 1.49-.128.787-.237 1.582-.35 2.372a60.757 60.757 0 0 1-.517 2.66c-.274 1.221-.527 2.446-.787 3.67a.66.66 0 0 0 .088.499c.03.372.348.671.725.671H76.56l-.044.043c-1.365 1.279-2.917 2.398-4.604 3.214-1.702.572-3.415 1.374-5.245 1.352-.783.07-2.815-.546-2.906.594-.026.39.245.674.57.838.528.325.974.755 1.465 1.13 2.705 2.139 5.947 3.819 9.457 3.976 3.679-.026 7.448-.809 10.713-2.522 3.77-2.365 7.946-7.029 12.569-5.269.26.269.479.568.666.896.443.507.64 1.031.53 1.727-.113.831-.984 1.21-1.654 1.549a18.36 18.36 0 0 0-2.313 1.206c-.293.248-.805.554-1.157.915a24.93 24.93 0 0 0-2.28 1.556c-3.03 2.358-5.102 5.63-7.064 8.866-1.855 3.053-4.18 5.867-6.815 8.337-2.957 2.799-6.686 4.683-10.54 5.947-3.466.948-7.119 1.381-10.699 1.01-.267-.004-.46.098-.585.247-.308.175-.502.551-.304.959 1.358 1.618 3.214 2.74 5.132 3.6 4.977 2.602 10.624 4.008 16.243 4.14 5.058-.04 10.226-1.892 13.68-5.659 5.59-6.738 7.654-14.456 18.114-14.839.201 0 .399.004.6.011.15.088.333.128.516.109.794.135 1.644.128 2.372.518 1.457.747 2.792 2.39 2.211 4.088-.092.256-.224.62-.44.839a.706.706 0 0 0-.077.174c-.058.044-.117.081-.175.128a.788.788 0 0 0-.15.211c-2.043 2.132-2.998 4.847-3.415 8.174-.234 2.89-.553 5.783-1.321 8.589a11.87 11.87 0 0 1-2.226 4.471 18.716 18.716 0 0 1-2.36 3.079c-.465.445-1.01.795-1.545 1.152-.252.167-.476.382-.494.703-.033.543.469.838.933.94 1.011.226 2.028-.047 3.045-.044 1.358.142 2.654-.218 3.906-.714 1.822-.587 3.55-1.122 5.266-2.037 2.416-1.505 4.755-3.185 6.53-5.429 2.661-2.759 3.404-6.53 4.557-10.032.179-.387.351-.787.538-1.177a.963.963 0 0 0 .117-.186c.94-1.181 2.496-1.236 3.759-.55 1.112.553 2.258 1.464 2.368 2.78.04.364.007.729-.03 1.089a.726.726 0 0 0-.095.263 15.856 15.856 0 0 0-1.31 1.898 1.336 1.336 0 0 0-.088.15c-1.036 1.796-1.779 3.797-2.405 6.009-.314 1.865-.629 3.757-.527 5.655-.033 1.8-.051 3.611.286 5.39.216 1.694.52 3.487.022 5.185a2.223 2.223 0 0 0-.022.077c-.395.331-.535 1.093-.802 1.519-.062.128-.142.248-.219.368-.948.423-1.893 1.01-2.848 1.749-1.398.951-2.492 2.234-3.66 3.437-1.391 1.464-2.346 3.243-3.345 4.977-1.296 2.256-2.511 4.584-3.192 7.135-.241.857-.446 1.717-.669 2.577-.348 1.024-.707 2.55.446 3.173.154.07.304.081.439.048 1.168.324 3.1.182 3.723.24.201.04.402.004.574-.076H301.28c.37 0 .677-.284.721-.642a1.36 1.36 0 0 0 .249-.648c.377-1.815.593-3.659.725-5.503.036-3.531-.795-7.062-2.054-10.352-1.456-3.251-4.275-5.962-7.686-7.099l.022.015Zm-61.374-82.249.099-.033a5.664 5.664 0 0 1 1.939.092c1.256.153 2.526.12 3.778-.044a.692.692 0 0 0 .245-.051c.183-.022.369-.044.556-.077 2.295-.379 4.538-1.235 6.431-2.594a21.072 21.072 0 0 1 5.164-2.985c1.171-.342 2.437-.273 3.634-.105-1.471.874-2.851 2.095-3.619 3.644-.429 1.009-.813 2.051-1.069 3.119-.319 1.662-.571 3.443-1.515 4.886-.967 1.578-2.145 3.054-4.136 3.094-2.372-.342-4.751-.754-7.152-.645-.384.022-.768.051-1.149.088a.658.658 0 0 0-.436-.062c-1.566.138-2.858-.037-4.315-.602-.724-.298-1.306-.67-1.757-1.089-.256-.474-.475-.973-.585-1.505-.165-1.05.402-2.015.922-2.886.652-1.112 1.695-1.95 2.965-2.241v-.004Zm-2.69 8.782s-.019.004-.03.004a.047.047 0 0 0-.007-.022l.033.018h.004Zm-.89-41.177c.692-.834 1.611-1.417 2.555-1.928.234-.164.523-.306.787-.473a17.249 17.249 0 0 0 6.635-4.705c2.24-2.813 3.803-6.082 5.666-9.139 1.417-2.296 2.862-4.416 4.765-6.399 2.775-2.755 6.058-5.061 9.586-6.788 3.762-1.505 8.03-1.363 11.975-.693-5.438 1.465-9.988 5.098-12.967 9.813-1.651 2.595-3.415 5.19-4.326 8.152-.611 2.278-1.318 4.54-1.724 6.865-.721 4.085-1.654 8.363-4.249 11.734-3.075 4.023-6.793 7.762-11.445 9.915-.373-.011-.743.062-1.127.026-4.33-.609-5.951-3.258-6.903-7.244-.542-3.007-1.446-6.571.776-9.147l-.004.011Zm-10.372-25.06c.143-.175.285-.353.417-.535 1.248-1.808 1.826-3.961 2.943-5.845 3.1-5.193 5.731-8.301 11.646-10.302-3.078 3.608-4.184 9.165-4.502 13.793.121 2.703.706 5.447-.033 8.118-.384 1.48-1.193 2.799-2.086 4.027a18.073 18.073 0 0 1-1.98 2.536c-.018.015-.037.026-.051.04-.817.358-1.534.937-2.39 1.225-3.627.331-6.208-3.684-6.215-6.96 0-2.241 1.028-4.246 2.255-6.093l-.004-.004Zm4.655 15.309s-.011.022-.014.032a.037.037 0 0 1-.011-.014l.025-.022v.004Zm-26.604-28.409c.088-.368.417-.718.578-1.068 2.584-2.663 4.839-5.706 5.863-9.295.82-2.88 1.351-5.842 2.361-8.67 1.98-5.55 6.27-10.09 10.962-13.54 1.563-.988 3.294-1.604 5.054-2.14 2.339-.7 4.747-1.34 7.21-1.235-3.191 2.055-6.053 4.591-8.359 7.602-3.371 4.759-5.947 10.104-7.012 15.858-.875 4.081-.275 8.297-1.19 12.372-.575 2.46-1.515 4.832-3.188 6.763-.3.419-.611.838-.948 1.235-.117.058-.23.128-.34.19-1.281.568-2.862.397-4.22.182-1.548-.448-2.935-1.32-4.282-2.241-.699-.572-1.464-1.112-1.958-1.884-.67-1.236-.945-2.759-.524-4.129h-.007Zm-15.05-24.64c.516-1.47 1.49-2.642 2.544-3.758-.07.85-.03 1.688.091 2.518 0 0-.007 0-.007.004-.842 1.104-1.054 2.602-1.446 3.914-.732 2.463-1.109 5.156-1.025 7.743a.74.74 0 0 0 .685.773c1.211-.022.67-1.731.805-2.522.007-1.898.454-3.771.941-5.597.172-.692.344-1.356.567-2.022.476 1.592 1.149 3.144 1.779 4.65 2.115 3.844 4.348 8.02 3.872 12.553a11.935 11.935 0 0 1-.835 3.155.809.809 0 0 0-.208.197c-.227.317-.516.62-.86.838-.476.248-.959.798-1.541.882-1.658.292-3.279-.495-4.539-1.516-1.134-.867-1.632-2.27-1.819-3.636-.036-.525-.091-1.05-.226-1.56a.84.84 0 0 0-.125-.481c-.036-2.3-.523-4.723-.461-6.854.062-3.17.516-6.36 1.804-9.282h.004Zm-2.024 20.14s.015.033.018.05c-.007-.01-.018-.021-.025-.032 0-.007.003-.01.007-.018ZM154.84 43.276c-1.146-3.393-1.984-6.796-2.039-10.44.092-5.663 1.545-11.209 3.847-16.39 1.314-2.632 2.522-5.361 4.44-7.628 1.903-2.601 3.861-5.32 6.844-6.767-3.324 4.869-4.842 10.222-5.406 16.034-.761 6.8.124 13.76 2.646 20.13 2.17 6.544 5.797 12.753 4.619 19.586-.022.036-.044.07-.062.113-1.768 3.006-5.937 2.682-8.909 2.026-2.09-.703-2.833-3.065-3.155-5.036a1.273 1.273 0 0 0-.098-.346c.003-3.888-1.439-7.642-2.734-11.278l.007-.004Zm14.892 14.638a.686.686 0 0 0-.029.076c.011-.025.018-.05.029-.076Zm-38.02-4.912a32.352 32.352 0 0 1-3.041-8.779c-.315-3.425-.015-7.058 1.727-10.115.886 5.174 3.708 9.93 7.657 13.377 3.137 2.696 6.698 4.923 9.388 8.104a12.057 12.057 0 0 1 1.878 3.51c-.143.254-.355.477-.546.699-1.815 1.807-4.289 2.73-6.683 3.524-1.929.455-4.374 1.417-6.101-.004-.392-.335-.666-.867-.875-1.36-.238-3.231-1.636-6.249-3.404-8.953v-.003Zm-30.055 6.308c-4.444-2.005-8.22-5.67-10.032-10.23-1.099-3.06-1.878-6.409-1.527-9.67.059-3.925 1.16-7.718 3.323-11.03.048 2.412.213 4.9.835 7.27.52 2.251 1.71 4.277 2.81 6.292 1.022 2.063 2.204 4.067 3.855 5.7.951.889 1.958 1.723 2.986 2.517 1.486 1.112 3.239 1.768 4.919 2.526 1.417.67 2.885 1.206 4.352 1.745 2.665 1.05 5.428 1.804 7.796 3.498 1.892 1.586 3.492 3.553 4.817 5.627a18.8 18.8 0 0 1 1.215 2.962c-.209.89-.377 1.8-.82 2.624-1.029 2.35-3.309 3.699-5.34 5.156-1.977 1.24-6.057 5.368-8.308 3.149a.745.745 0 0 0-.106-.23c-.037-1.807.04-3.626-.279-5.407-1.149-5.75-5.072-10.298-10.5-12.507l.004.008ZM83.54 75.18a16.084 16.084 0 0 1-.085-1.728 14.91 14.91 0 0 0 3.558 2.325c1.35.681 2.73 1.352 4.227 1.647 2.149.306 4.36.186 6.486.703 2.36.623 4.351 2.15 6.031 3.9.055.156.139.313.257.444.512.907 1.116 1.946.871 3.024-.176.82-.882 1.316-1.677 1.345-3.023-1.173-6.156-1.997-9.318-2.387-4.897-1.549-9.172-4.395-10.347-9.27l-.004-.004Zm-29.024 29.126a13.01 13.01 0 0 1-.776-.696c-1.955-1.935-3.459-4.154-4.612-6.669-.768-2.376-1.376-4.868-1.434-7.372 1.097 2.336 3.063 4.165 5.208 5.557 1.34.733 2.91.795 4.362 1.196.784.185 1.578.331 2.383.386.234.014.472.01.706 0a10.67 10.67 0 0 1-.549 2.51c-.808-.138-1.625-.298-2.412-.531-1.028-.31-1.983-.868-3.045-1.06-.959-.077-1.094 1.326-.142 1.45 1.64.583 3.26 1.231 4.98 1.534-.738 1.337-1.818 2.463-3.257 3.123-.45.233-.93.404-1.405.575l-.007-.003Zm37.27 50.837c-.22.12-.506.303-.707.521-2.075 1.279-3.927 3.025-6.013 4.249-2.943 1.429-6.24 2.154-9.524 2.219-3.231-.087-6.218-1.64-8.714-3.589.359-.026.714-.058 1.069-.109.018 0 .036-.008.055-.008 2.668-.371 5.233-1.381 7.55-2.747 1.021-.656 2.042-1.385 3.14-1.939 2.918-.853 7.192-.915 10.289-.459-1.168.842-2.258 1.793-3.43 2.635-.574.47-1.99.71-1.497 1.705.637 1.162 3.064-1.115 3.76-1.596 1.042-.805 2.041-1.676 3.194-2.318.059.019.118.033.172.051.571.168 1.04.496 1.479.868-.282.164-.556.331-.823.517Zm14.036 19.995a.753.753 0 0 0-.341.204 14.824 14.824 0 0 0-3.905 1.592c-5.153 2.963-7.507 8.68-11.163 13.068-4.18 4.602-10.856 6.008-16.843 4.941-3.755-.587-7.42-1.633-10.834-3.305-1.332-.682-2.679-1.338-3.861-2.234 2.748.015 5.45-.248 8.143-.871 2.383-.514 4.605-1.549 6.764-2.649 3.52-1.676 6.335-4.439 8.901-7.306 1.438-1.76 2.815-3.575 3.982-5.525 1.127-1.785 2.141-3.647 3.558-5.232a19.027 19.027 0 0 1 4.85-4.319c.215-.047.424-.196.614-.368.08-.047.165-.091.245-.138.267-.062.531-.182.798-.222 1.24-.212 2.558-.31 3.807-.07 1.972.868 3.572 2.693 4.864 4.37.889 1.177 1.702 2.346 2.104 3.793.392 1.589-.143 3.513-1.691 4.267l.008.004ZM2.064 150.985c.209-.933.202-1.906.319-2.857a33.04 33.04 0 0 1 .31-2.543c.107-.59.21-1.184.301-1.778.092-.529.168-1.061.249-1.593.176-.907.366-1.807.57-2.711.037-.113.07-.23.11-.343v-.127a122.21 122.21 0 0 1 1.27-4.981c1.033-2.81 1.97-5.703 3.664-8.203 2.727-4.147 7.386-6.902 12.444-5.812 6.995 1.118 11.141 10.327 18.886 6.191 4.037-2.252 6.958-5.929 9.875-9.416 1.617-1.851 3.195-3.746 4.527-5.816 7.4-9.857 15.61-20.796 28.02-24.375 3.577-1.01 7.248-1.195 10.871-.769l.18.059a.758.758 0 0 0 .358.014c1.263.172 2.514.416 3.759.725a.954.954 0 0 0 .399.117c2.939.856 5.72 2.237 8.458 3.597a38.348 38.348 0 0 1 6.511 3.727c3.203 2.566 5.959 5.62 8.455 8.896a67.781 67.781 0 0 1 3.041 4.03c1.688 2.423 2.939 5.098 4.326 7.689 1.918 3.152 3.28 6.584 5.029 9.827 1.585 3.12 2.888 6.501 5 9.34 6.313 8.786 14.479 4.07 23.329 4.515 4.644.284 7.473 2.496 6.547 7.397-.358 1.436-.333 2.97-1.057 4.297a7.182 7.182 0 0 1-.564.903H2.064Zm123.796 39.76a27.442 27.442 0 0 0-.593 1.84c-.56 1.895-1.072 3.841-2.119 5.539-1.852 3.097-4.729 5.441-7.788 7.299-2.098 1.06-4.385 1.687-6.607 2.434-1.003.208-2.035-.011-3.049.157a16.223 16.223 0 0 0 2.742-3.367c1.12-1.494 2.071-3.105 2.525-4.931.809-2.907 1.204-5.903 1.413-8.905.392-3.262 1.336-5.896 3.422-7.857.018-.015.037-.025.059-.04 2.316-1.443 3.685-.707 5.779.645 1.515 1.173 3.619 2.234 4.084 4.234.176.634.165 1.37.128 2.041-.014.27-.044.612 0 .911h.004Zm-8.451-13.228c-.099-.215-.285-.412-.468-.583-1.739-2.099-3.869-3.983-5.084-6.482-1.793-4.217.238-8.979 3.338-12.015 1.874-1.88 3.92-3.695 6.365-4.803 1.427-.655 3.001-.721 4.545-.991.418-.098 1.003.026 1.358-.196h40.147a.743.743 0 0 0 .644-.39 1.54 1.54 0 0 0 .161-.179c.38-.492.688-1.053.94-1.622.495-1.075.615-2.252.787-3.407.268-1.06.37-2.153.337-3.246.084-3.2-2.43-5.561-5.398-6.254-4.455-1.104-9.022.121-13.509.336-4.286.441-7.595-.197-10.508-3.564-2.335-2.689-3.697-6.002-5.223-9.168a326.24 326.24 0 0 1-4.03-8.181c-.732-1.421-1.599-2.77-2.32-4.198-1.852-3.954-4.304-7.576-7.093-10.928a58.106 58.106 0 0 0-2.442-2.996.843.843 0 0 0-.069-.142c-1.757-2.194-3.199-4.766-3.386-7.63-.281-4.359.678-8.936 2.943-12.743.469-.697.999-1.374 1.658-1.9.253-.138.461-.349.575-.579 19.672-14.801 47.217-17.421 69.368-6.18 20.591 10.13 34.978 31.51 36.329 54.412.08 1.192.117 2.391.135 3.593-.062.237-.051.5-.058.74-.381 7.416-3.682 14.409-8.049 20.326-1.193 1.582-2.591 3.127-3.901 4.632-.663.78-1.281 1.41-2.002 2.186a.539.539 0 0 0-.096.135c-2.122 1.819-4.146 3.735-6.093 5.641a827.141 827.141 0 0 0-3.84 4.132 3.883 3.883 0 0 0-.512.554c-.787.857-1.57 1.717-2.354 2.577-1.778 1.811-3.663 3.52-5.449 5.327-4.319 4.143-9.176 7.787-14.106 11.191-2.88 1.866-5.962 3.418-9.036 4.941-3.62 1.662-7.401 3.028-11.284 4.008-.359.143-.988.139-1.475.281a66.94 66.94 0 0 1-11.141-1.283 63.064 63.064 0 0 1-6.072-1.53.764.764 0 0 0-.286-.186c-1.932-.813-3.934-1.439-5.925-2.059a66.939 66.939 0 0 1-18.414-11.577h-.007Zm31.762 27.272c.194-.984.497-1.946.878-2.872.981-1.811 2.075-3.706 3.814-4.908a45.372 45.372 0 0 1 1.654-1.028c1.804-.528 3.364.051 3.667 2.22-.432 2.747.011 5.112 1.625 7.408a.62.62 0 0 0 .194.266 15.385 15.385 0 0 0 1.816 2.015c1.12 1.064 2.305 2.095 3.034 3.484.11.167.128.433.143.637a.664.664 0 0 0 .047.175c-2.053 2.311-4.213 4.526-6.522 6.592-3.148 2.795-6.226 5.834-10.113 7.598-2.188.984-4.981 1.301-6.858-.474-.352-.39-.681-.798-1.003-1.213a.554.554 0 0 0 .069-.11c.403-.328.838-.615 1.248-.936 3.375-2.547 4.608-5.036 5.527-9.066.483-2.176.604-4.431.747-6.651.018-1.049-.147-2.102.033-3.144v.007Zm12.864.036c-1.299-1.763-1.72-3.786-1.486-5.885a.713.713 0 0 0 .118-.55c-.008-.044-.011-.087-.019-.135.103-.579.249-1.162.44-1.745.084-.284.168-.572.241-.864a68.06 68.06 0 0 0 19.336-2.777c-1.988 2.544-3.678 5.277-5.607 7.868-.37.335-.699.707-1.051 1.06-1.555 1.556-3.305 2.999-5.501 3.513-2.079.474-4.666.947-6.474-.492l.003.007Zm-29.766-5.273c.38-1.18.863-2.281 1.456-3.301a1.07 1.07 0 0 0 .183-.204c.882-.78 1.874-1.45 2.98-1.869 2.708-1.061 5.907-1.057 8.604.156 2.548 1.061 4.037 2.803 3.982 5.627-1.112 1.8-1.83 3.906-1.859 6.023.015.736.062 1.469.055 2.201-.205 2.507-.311 5.054-1.076 7.467a17.241 17.241 0 0 1-.758 2.237c-.234.193-.443.481-.633.692-1.479 1.542-3.729 2.154-5.83 1.914-4.352-.532-7.324-4.807-8.125-8.834a.97.97 0 0 0-.048-.196c-.132-1.017-.227-2.037-.172-3.05-.033-2.996.088-6.057 1.244-8.866l-.003.003Zm168.572 41.804c-.03.03-.052.066-.073.099H117.23a.549.549 0 0 0-.084.007c-.026 0-.048 0-.074-.004-.252-.051-.519-.054-.765-.142-.011-.011-.025-.018-.036-.029-.062-.656.304-1.308.417-1.953.286-1.159.578-2.318.955-3.447.48-1.367 1.223-2.624 1.808-3.943.835-1.436 1.633-2.89 2.522-4.296 1.903-2.628 4.315-5.029 7.229-6.545 4.388-2.416 9.109 1.046 11.386 4.774 4.681 6.187 12.543.626 16.821-3.258 9.278-7.667 16.474-17.386 23.205-27.257 3.583-4.592 6.986-9.318 10.577-13.902 3.47-4.289 7.166-8.443 10.918-12.524.607-.631 1.2-1.272 1.778-1.928.033-.033.063-.069.096-.102a103.032 103.032 0 0 1 10.961-10.801c5.875-5.05 12.909-9.27 20.807-9.897 2.255-.146 4.502.138 6.735.485a.727.727 0 0 0 .172.069c.194.025.38.04.567.047.615.099 1.23.201 1.841.295 4.549.824 8.941 2.886 12.071 6.337 1.178 1.396 2.353 2.817 3.188 4.446 1.105 2.347 1.778 4.868 2.514 7.35.908 3.214 1.83 6.453 2.09 9.795.168 4.154.249 8.312.11 12.466-.077 2.248-.227 4.493-.205 6.742-.026 4.569-.45 9.259.889 13.697 1.424 5.106 6.467 8.505 11.522 9.395 6.536 1.034 15.756.612 20.412 6.016 1.705 1.814 2.488 4.077 3.074 6.504.307 1.491.736 3.171.794 4.752.106 2.208-.252 4.562-.677 6.741l-.007.011Z"/><path fill="#000" d="M22.198 160.383c-.15-.616-1.01-.718-1.332-.189-1.025 1.268-2.057 2.536-3.009 3.859-1.855 2.551-6.452 7.681-1.775 9.766 1.135.539 2.448.211 3.349-.612 2.2-2.005 2.27-5.244 2.851-7.97.187-1.177.296-2.361.406-3.546.106-.499.128-1.162-.486-1.308h-.004Zm-1.504 5.43c-.535 2.252-.6 6.147-3.335 6.821-3.744-.459-.743-4.529.505-6.132 1.098-1.48 2.145-2.948 3.32-4.384a44.611 44.611 0 0 1-.49 3.695ZM45.541 191.805c-.534-.331-.937.07-1.237.485-1.182 1.137-2.302 2.336-3.297 3.64-1.036 1.513-2.508 2.715-3.393 4.319-.988 1.698-.227 3.95 1.903 4.073 3.609.019 4.337-3.895 4.897-6.683.348-1.381.717-2.762 1.12-4.128a.772.772 0 0 0 .007-.408c.373-.354.483-.988 0-1.298Zm-2.715 6.268c-.414 1.8-.787 4.551-3.086 4.799-.337 0-.688-.127-.911-.386-.688-1.37.915-2.657 1.702-3.63 1.028-1.228 1.965-2.528 3.034-3.724-.253.977-.524 1.95-.74 2.937v.004ZM16.61 197.643c.083-.845-1.168-1.097-1.425-.284-.735.842-1.698 1.494-2.452 2.336-2.042 2.117-7.016 7.204-1.929 8.778 3.448.612 4.32-3.17 4.989-5.714a28.125 28.125 0 0 0 1-3.615c.134-.459.446-1.198-.188-1.505l.004.004Zm-2.332 5.116c-.542 1.567-.732 4.144-2.808 4.333-2.521-.262-1.061-2.405-.117-3.589a29.344 29.344 0 0 1 3.905-4.191c-.223 1.177-.65 2.296-.984 3.447h.004ZM47.85 163.947c-2.345 1.618-11.155 9.551-5.965 11.708 1.618.642 3.287-.488 4.183-1.789.418-.645.707-1.355.96-2.08.383-.54.56-1.502.808-1.946.26-.758.567-1.491.864-2.234.124-.263.238-.576.238-.86a3.34 3.34 0 0 0 .04-.186c.146-.685.45-1.345.48-2.044a.707.707 0 0 0-.165-.419c-.063-.711-1.058-1.108-1.442-.15Zm-2.477 8.072c-.392 1.053-1.252 2.241-2.467 2.365-1.903-.113-1.003-1.713-.443-2.759 1.252-2.15 3.016-3.837 4.923-5.455-.75 1.921-1.27 3.925-2.013 5.849ZM95.58 90.112c2.888.77 5.849 1.615 8.349 3.306.82.499 1.581-.693.787-1.232-2.562-1.756-5.61-2.606-8.564-3.455-.608-.178-1.592-.13-1.552.711.033.5.527.74.984.667l-.003.004ZM106.414 93.654c-.399 0-.746.28-.768.689-.019.383.293.765.692.765.398 0 .746-.28.768-.689.018-.382-.293-.765-.692-.765ZM100.108 146.853c-1.896-.018-3.784-.164-5.68-.044-1.343.037-2.548.011-3.92-.025-.67-.04-1.863-.037-1.731.922.073.39.46.656.852.583a2.68 2.68 0 0 1 .619-.055c2.547.128 5.003-.055 7.572.018.787.019 1.57.066 2.358.062.958-.062.885-1.472-.074-1.457l.004-.004ZM104.449 147.542c-.399 0-.714.379-.695.762.018.411.366.692.765.692s.713-.379.695-.762c-.018-.411-.366-.692-.765-.692ZM9.41 132.117c-1.065-.507-1.387 1.071-1.746 1.752-.395.904-.696 1.841-.97 2.784-.14.452-.238.93-.117 1.392.238.93 1.618.609 1.427-.324.011-.813.432-1.603.644-2.387.246-.641.502-1.282.817-1.891.31-.404.46-1.013-.055-1.326ZM11.05 129.096c-.4 0-.743.299-.754.707-.011.386.31.75.71.75.399 0 .743-.299.754-.707.01-.386-.311-.75-.71-.75ZM146.836 67.819c-3.09.448-6.16 1.085-9.008 2.408-1.273.576-2.562 1.123-3.81 1.75-1.328.684-2.492 1.625-3.759 2.412-.841.572-1.687 1.14-2.488 1.764-.462.43-1.355 1.012-.798 1.701.732.747 1.369-.35 1.943-.75 1.318-.977 2.716-1.833 4.052-2.78 2.32-1.557 5.04-2.624 7.667-3.634 1.984-.765 4.122-1.028 6.204-1.41 1.025-.015 1.007-1.498-.011-1.465l.008.004ZM151.151 67.709a.78.78 0 0 0-.524.175.723.723 0 0 0-.252.506c-.022.38.289.773.688.773a.776.776 0 0 0 .523-.175.724.724 0 0 0 .253-.507c.022-.378-.29-.772-.688-.772ZM221.269 135.779c1.101.2 1.057-1.403 1.372-2.106.578-1.888.717-3.863.886-5.82.073-1.41.399-2.908-.022-4.281-.406-.871-1.709-.307-1.347.575.194 1.042.007 2.238-.066 3.324-.121 1.45-.231 2.911-.49 4.347-.205 1.009-.524 2.048-.853 3.072-.121.379.15.794.52.893v-.004ZM219.12 139.999a.738.738 0 0 0 .721-.74.737.737 0 0 0-.742-.718.739.739 0 0 0-.722.74.738.738 0 0 0 .743.718ZM155.663 156.164c.765-.03 1.526-.066 2.291-.066 2.829-.138 5.662-.404 8.484-.558.699-.182.67-1.268-.04-1.406-1.87-.029-3.741.259-5.615.31-1.127.087-2.25.226-3.385.196-.769.132-2.445-.328-2.489.813a.74.74 0 0 0 .75.711h.004ZM150.605 156.105c.399 0 .725-.357.714-.747a.741.741 0 0 0-.751-.711c-.398 0-.724.358-.713.747a.74.74 0 0 0 .75.711ZM96.086 165.842c-2.017 1.151-3.817 2.674-5.036 4.671-.425.623-.79 1.287-1.252 1.884-.241.317-.117.802.198 1.013 1.047.594 1.57-1.217 2.1-1.833.842-1.359 1.893-2.58 3.21-3.501.641-.503 1.435-.802 2.002-1.392.663-.86-.603-1.71-1.222-.842ZM88.041 174.883c-.399 0-.714.382-.692.765.019.412.37.689.769.689s.714-.383.692-.765c-.019-.412-.37-.689-.769-.689ZM113.592 197.472c-.224.233-.151.554-.246.842-.109.761-1.094 1.942-.047 2.405a.738.738 0 0 0 .929-.452c.268-.765.612-1.531.645-2.351 0-.63-.883-.929-1.281-.444ZM112.051 201.834c-.399 0-.714.383-.692.765.018.412.37.689.769.689s.713-.383.691-.765c-.018-.412-.369-.689-.768-.689ZM143.962 207.919c.377.055.795-.222.831-.619.066-.791.07-1.585.121-2.38.099-.998.249-1.993.578-2.944.205-.525.461-1.031.524-1.596.117-.951-1.292-1.152-1.45-.208-.574 1.691-1.138 3.404-1.142 5.218.103.762-.519 2.325.542 2.529h-.004ZM143.073 211.494a.74.74 0 0 0 .739-.721.737.737 0 0 0-.725-.736.74.74 0 0 0-.739.721c0 .397.326.736.725.736ZM165.183 199.458a.74.74 0 0 0-.74.722c0 .397.326.736.725.736a.74.74 0 0 0 .739-.722.737.737 0 0 0-.724-.736ZM51.917 96.675c-.4 0-.721.365-.71.751a.74.74 0 0 0 .754.707c.399 0 .72-.364.71-.75a.74.74 0 0 0-.754-.708ZM99.464 53.428c-.842-.634-1.523-1.45-2.255-2.197-.794-.878-1.423-1.877-2.002-2.9-.604-.74-1.73.149-1.145.91 1.087 2.06 2.737 3.874 4.535 5.36.772.558 1.632-.597.87-1.173h-.003ZM102.136 55.585c-.399 0-.721.365-.71.751a.74.74 0 0 0 .754.707c.398 0 .721-.364.71-.75a.74.74 0 0 0-.754-.708ZM134.937 50.983c-.432-.485-.89-.944-1.303-1.443-.282-.364-.718-.907-.886-1.407a.736.736 0 0 0-.516-.645c-1.058-.178-1.116.904-.67 1.593.575 1.1 1.471 1.978 2.295 2.89.651.696 1.716-.274 1.08-.984v-.004ZM136.093 55.59c.399 0 .743-.296.758-.704.014-.386-.308-.754-.707-.754-.399 0-.743.295-.757.703-.015.386.307.754.706.754ZM159.444 48.964a.739.739 0 0 0 .681-.78c-.092-1.02-.256-2.036-.608-3.002-1.376-3.433-3.056-6.77-3.532-10.502.139-.98-1.054-1.421-1.445-.485.054 2.773 1.149 5.48 2.152 8.042.834 1.943 1.866 3.874 1.969 6.05a.742.742 0 0 0 .783.677ZM159.034 51.333c-.022.379.289.773.688.773.399 0 .751-.27.776-.686.022-.379-.289-.772-.688-.772-.399 0-.75.27-.776.685ZM181.744 54.959c.399 0 .751-.27.776-.686.022-.379-.289-.772-.688-.772-.399 0-.75.27-.776.685-.022.379.289.773.688.773ZM208.73 43.86c.918.418 1.219-.853 1.625-1.404.896-1.505 2.013-2.93 3.356-4.056.856-.433.249-1.705-.626-1.319-2.046 1.443-3.437 3.659-4.666 5.798-.202.343-.033.805.311.984v-.004ZM218.725 83.47c.904.55 1.288-.696 1.665-1.283.977-1.658 1.819-3.51 2.207-5.408.077-.954-1.336-1.09-1.457-.138-.281 1.25-.775 2.47-1.361 3.622-.359.758-.787 1.41-1.212 2.153a.74.74 0 0 0 .154 1.054h.004ZM248.294 95.571c.959.292 1.069-.915 1.288-1.556.22-.867.476-1.716.824-2.543 1.167-3.207 2.972-6.104 5.098-8.76.377-.398.355-1.123-.216-1.323-.348-.124-.801.043-.93.408-.878 1.246-1.87 2.412-2.686 3.698-1.471 2.58-2.778 5.288-3.51 8.174-.161.62-.721 1.552.132 1.902ZM247.28 99.685c.399 0 .71-.39.688-.769-.022-.411-.373-.685-.772-.685s-.71.39-.688.77c.022.411.373.684.772.684ZM203.972 170.671c-.791.805-1.589 1.603-2.328 2.459-1.508 1.636-2.826 3.426-4.22 5.156-.476.686-1.819 2.092-.564 2.646.381.113.78-.124.904-.503.352-.812 1.01-1.45 1.541-2.146a67.29 67.29 0 0 1 3.949-4.777c.564-.609 1.153-1.196 1.735-1.79a.734.734 0 0 0 .011-1.031c-.271-.28-.758-.299-1.036-.014h.008ZM207.13 168.499c-.889-.39-1.53 1.086-.633 1.461.889.375 1.534-1.075.633-1.461ZM266.235 212.769c-2.013-2.685-3.418-6.063-3.678-9.456-.026-.678-.132-1.68-1.072-1.428-.418.146-.557.576-.447.973.106 1.086.135 2.182.468 3.232.538 1.716 1.018 3.469 1.937 5.032.999 1.913 2.437 3.517 3.832 5.146a.74.74 0 0 0 1.032.051c.3-.27.314-.729.051-1.028-.714-.834-1.416-1.676-2.123-2.518v-.004ZM269.826 216.873c-.399 0-.747.28-.769.688-.018.383.293.766.692.766.399 0 .747-.281.769-.689.018-.383-.293-.765-.692-.765ZM129.311 224.561c-2.463 1.116-4.322 3.236-5.991 5.299-.52.659-1.823 2.124-.505 2.624.402.091.801-.194.878-.598.135-.361.417-.649.641-.958 1.617-1.957 4.201-5.277 6.99-5.277.399 0 .717-.375.699-.762-.161-1.198-1.962-.579-2.716-.331l.004.003ZM133.407 224.856c-.399 0-.718.379-.699.762.018.408.366.696.765.696s.717-.379.699-.762c-.019-.408-.366-.696-.765-.696ZM201.113 236.947c-2.335-.091-4.634-.054-6.976.037-1.263.007-2.529-.026-3.788.08a.74.74 0 0 0-.688.772.742.742 0 0 0 .776.686 27.412 27.412 0 0 1 1.903-.081c1.881.03 3.759-.069 5.64-.105 1.329-.011 2.664.12 4.081.04a.741.741 0 0 0 .688-.773c-.081-.867-1.021-.656-1.636-.652v-.004ZM206.555 237.202c-.399 0-.71.394-.688.773a.73.73 0 0 0 .242.499c.15.135.333.186.534.186.399 0 .71-.394.688-.773a.736.736 0 0 0-.241-.499.767.767 0 0 0-.535-.186Z"/></g><defs><clipPath id="a"><path fill="#fff" d="M0 0h303v243H0z"/></clipPath></defs></svg>