<svg xmlns="http://www.w3.org/2000/svg" width="254" height="184" fill="none"><g clip-path="url(#a)"><path fill="#A4D357" d="M85.915 102.658c.027-.008.05-.019.076-.027.02 0 .039-.004.058-.008 2.182-.576 4.372-1.111 6.623-1.367.71-.046 3.132-.47 4.479-.168-.153-1.127-.214-2.266-.237-3.408a46.785 46.785 0 0 1-.13-3.886c-1.167.26-2.38.16-3.567.294-1.121.119-2.25.245-3.376.164-.248-.011-.492-.034-.736-.05a.727.727 0 0 1-.222-.015 54.58 54.58 0 0 1-1.716-.152c-3.201-.337-6.383-.91-9.588-1.181-2.396-.191-4.894-.45-7.191.401-1.92.707-3.247 2.549-3.506 4.543.023 2.147.84 4.302 2.403 5.792 1.64 1.658 4.208 1.723 6.398 1.601 2.06-.237 4.037-.925 6.04-1.421 1.403-.348 2.8-.738 4.2-1.108l-.008-.004Zm-13.154-1.227a.77.77 0 0 1-.77-.756.77.77 0 0 1 .755-.772.77.77 0 0 1 .77.757.77.77 0 0 1-.755.771Zm2.999.413c-.996-.015-1.023-1.498-.02-1.528.619.004 1.244-.015 1.855-.13 2.868-.783 5.695-1.73 8.664-2.056 2.14-.378 4.326-.764 6.47-.313.984.15.82 1.62-.18 1.517-2.925-.596-5.833.382-8.728.726-2.709.508-5.265 1.876-8.065 1.78l.004.004ZM87.155 104.01c-.148.05-.305.065-.461.073-1.748.481-3.506 1.07-4.994 2.09-2.114 1.36-3.907 3.817-3.388 6.43.107.229.248.439.267.676.034.042.069.084.103.123 1.564 1.761 4.006 1.665 6.116 1.199 1.453-.332 2.647-1.295 3.761-2.231.992-.73 1.992-1.444 2.927-2.25 1.773-1.426 3.761-2.778 5.974-3.397-3.178-1.7-6.657-3.179-10.308-2.72l.003.007Zm-5.032 7.523c-.541-.878.973-1.807 1.507-.921.538.872-.973 1.804-1.507.921Zm7.276-1.872c-.798.317-1.64.524-2.404.929-.671.32-1.877 1.073-2.262.019-.157-.539.297-.948.797-1.024a25.59 25.59 0 0 1 3.254-1.326c.927-.378 1.519.978.61 1.402h.005Z"/><path fill="#fff" d="M134.687 87.146c2.148 1.528 4.88 2.01 7.451 2.243 3.014.03 5.746-1.525 8.092-3.282 3.277-2.82 4.555-7.32 4.097-11.508a10.529 10.529 0 0 0-1.491-4.096c-1.053-1.05-1.763-2.369-2.98-3.225-1.896-1.501-4.181-2.223-6.501-2.754a.769.769 0 0 1-.82.156.771.771 0 0 1-.481-.06c-4.387.637-7.55 3.044-9.808 6.788-1.053 2.327-1.568 4.815-1.759 7.329.057 1.31.068 2.678.584 3.904.888 1.77 2.14 3.248 3.616 4.505Zm3.934-10.939c.03.035.064.065.099.1.446.439 1.049.66 1.648.66s1.152-.206 1.591-.626c.477-.458.755-1.054.721-1.727a2.168 2.168 0 0 0-.466-1.223 2.227 2.227 0 0 0-.259-.553 2.837 2.837 0 0 0-.706-.742c.66-.626 1.427-1.2 2.354-1.272.465-.225.969-.348 1.507-.279 2.037.34 3.609 2.06 4.319 3.931.362 1.235.671 2.606.339 3.875-.408 1.192-.988 2.43-2.056 3.167-1.099.638-2.365 1.184-3.647 1.184-.306 0-.615-.03-.92-.099-3.952-.825-5.276-3.565-4.517-6.4l-.007.004Z"/><path fill="#E2FFB4" d="M195.584 69.38a.767.767 0 0 1 .435 0c8.668-5.449 20.872-4.203 29.334 1.463.141-.023.29-.03.435-.042.355-.05.564-.424.644-.734.016-.053.035-.106.054-.16-2.293-3.847-7.501-6.484-11.182-8.241.019.007.034.015.053.019-.553-.218-1.087-.443-1.636-.642a.771.771 0 0 1-.889-.608c-.676-3.644-2.27-7.014-3.235-10.583-2.599-8.382-6.421-16.33-11.007-23.791-2.804-4.302-6.131-8.264-10.015-11.627-4.333-4.114-9.461-7.37-14.985-9.643-4.12-1.524-8.519-2.216-12.849-2.854-3.236-.657-6.646-.432-9.836.057-2.38.428-4.612 1.406-6.821 2.354-2.93 1.318-5.742 3.049-8.164 5.131-2.289 1.98-3.914 4.394-5.437 6.969-.805 1.486-1.419 3.076-1.968 4.677-.82 2.338-1.778 4.653-2.285 7.083-.145 2.235-.76 4.398-.714 6.633-.065.286-.008.63 0 .947.584.295 1.03.745.836 1.318-.172.379-.588.589-.988.432-.26-.133-.47-.355-.741-.477-.824-.352-1.964-.107-2.35.764-.152.382-.335.775-.313 1.192.077.359.214.703.279 1.066.133.955-1.267 1.219-1.496.275a.656.656 0 0 1-.351-.03h-.103c-4.234-.081-8.236 1.455-12.101 3.021-3.922 1.594-7.886 3.038-11.472 5.288-3.338 1.922-6.577 3.966-9.652 6.282-3.247 2.64-6.127 5.654-8.817 8.833a157.165 157.165 0 0 0-8.702 11.764c-1.709 2.162-3.151 4.275-4.887 6.357-2.396 2.831-4.578 6.113-7.966 7.84-2.358 1.12-5.177 1.376-7.718.856-1.331-.355-2.464-1.112-3.567-1.91-1.621-1.116-2.834-2.969-3.78-4.627-1.37-1.945-1.87-4.256-2.553-6.495-1.747-6.728-.576-13.747-.893-20.597-.217-3.76-.889-7.462-1.552-11.15-.37-4.106-1.71-8.095-3.827-11.63-2.163-4.095-5.684-7.503-9.923-9.38-2.796-1.543-5.795-2.085-8.885-2.6-3.373-.345-6.772.14-10.064.878 1.701 1.46 2.174 3.82 2.766 5.887.85 2.97-.87 5.647-2.377 8.058-.695 1.59-1.87 2.938-2.404 4.593-.251 1.31-.477 2.487-.343 3.778a11.155 11.155 0 0 0 1.099 3.053c1.041 1.681 2.418 3.19 3.166 5.04.653 1.933.412 4.122-.004 6.09-.362 1.734-1.693 3.16-1.816 4.936-.015 4.608 4.91 6.098 5.265 10.293.214 1.903-.149 3.859-.908 5.609-.63 1.333-1.74 2.334-2.247 3.721-.48 1.402-.13 3.034.485 4.344.965 1.685 2.983 2.14 4.433 3.24 4.07 2.728 6.31 7.657 6.096 12.505-.19 2.629-1.243 4.558-3.2 6.289-1.37 1.337-2.873 2.506-4.434 3.611-1.106.878-2.254 1.833-2.8 3.178-1.083 2.858-.679 5.861 1.084 8.356 1.136 2.018 1.556 4.658.606 6.824-1.171 2.418-4.067 3.698-4.586 6.495-.412 1.674.092 3.416.367 5.078.412 1.826 1.453 3.423 1.903 5.226.489 3.095-1.095 6.209-3.117 8.456-.377.515-.537 1.15-.618 1.776-.148 1.345-.21 2.766.386 4.012.374.986 1.06 1.799 1.58 2.701 1.8 3.114 2.46 6.935 1.006 10.316-.576 1.819-1.575 3.484-3.006 4.761-.023.022-.05.049-.072.076.602.244 1.186.539 1.812.714 1.32.344 2.605.337 3.933.382 2.865.127 5.677-.542 8.348-1.528 2.2-.921 4.112-2.407 6.05-3.778 3.678-2.553 6.318-6.301 7.619-10.565 2.674-6.72 2.941-14.09 4.04-21.159a30.04 30.04 0 0 0 .26-3.209c.282-3.595 1.083-7.133 2.056-10.595.542-2.491 1.442-4.875 2.422-7.221 1.408-3.285 3.186-6.499 5.902-8.883 1.873-1.723 3.926-3.442 6.47-4.004 2.164-.558 4.655-.348 6.616.753 4.693 2.766 7.13 7.947 9.854 12.451 2.988 5.609 6.658 11.054 11.575 15.149 8.836 6.48 15.238 7.405 25.683 9.002 11.781 1.899 23.898 2.525 35.564-.26 5.132-1.425 10.297-3.064 14.94-5.712a50.322 50.322 0 0 0 8.149-5.884c.195-.16.389-.321.584-.485.057-.141.137-.279.24-.397.412-.443.496-1.055.641-1.62.176-.89.264-1.834.023-2.721-.393-2.04-2.052-3.618-4.006-4.126-1.27-.252-2.521-.302-3.796-.34a94.345 94.345 0 0 1-5.528.061c-7.088-.668-14.276-2.311-20.38-6.117-1.77-1.322-3.62-2.766-5.219-4.264-1.167-1.104-2.205-2.338-3.361-3.457-1.583-1.643-2.339-3.985-2.476-6.232.111-5.903 7.913-2.842 10.575-.504 5.147 4.348 6.601 6.732 13.62 8.394 3.579.959 7.329.478 10.942-.019 4.597-.619 8.973-2.021 13.139-3.985 3.361-1.624 6.608-3.572 9.374-6.098.694-.607 1.434-1.158 2.102-1.796.824-.764 1.469-1.696 2.296-2.456.508-.428 1.042-.871 1.614-1.246a.688.688 0 0 1-.011-.122c.023-.226.034-.49-.122-.673-4.204-1.058-6.547 3.924-9.748 5.689-.774.344-2.384 1.735-2.983.6-.157-.367.007-.859.397-1.005.85-.321 1.64-.783 2.399-1.283 2.335-1.8 4.121-4.398 6.989-5.388a5.373 5.373 0 0 1 1.919-.332c.081-.122.165-.244.248-.36.168-.408.069-.855-.019-1.271a3.813 3.813 0 0 1 .142-1.884c.366-1.081.854-2.155 1.594-3.03.225-.252.454-.5.683-.752.263-1.246-.595-2.148-1.923-2.113-1.102.118-2.14.707-3.17 1.035-.397.126-.786.294-1.198.344-1.858.734-3.903 1.028-5.879.757-4.109-.692-8.298-2.92-10.106-6.832-1.347-2.915-.492-6.342.584-9.212 1.594-3.874 4.108-6.83 8.023-8.47 1.484-.7 2.972-1.475 4.639-1.612.603-.123 1.411-.222 1.881.183 2.098.172 4.047 1.112 5.581 2.522.24-.245.53-.466.721-.669 1.976-2.315.141-4.394-2.152-5.387-1.831-.734-3.811-.94-5.688-1.184-1.137-.165-2.293-.233-3.441-.138-2.182.126-4.368.65-6.077 2.033-.535.4-1.008.878-1.45 1.375-.271.29-.706.378-1.045.145a.769.769 0 0 1-.275-.332c-.336-.386-.145-.864.141-1.211.141-.306.279-.65.397-.906.702-1.792.5-3.98-.378-5.666-.229-.378-.462-.756-.74-1.096a.82.82 0 0 1-.248-.264 44.898 44.898 0 0 0-2.892-2.136c-5.284-3.557-11.384-5.689-17.5-7.274-2.659-.772-5.409-1.261-8.133-1.609a.755.755 0 0 1-.641-.141.955.955 0 0 1-.187-.046c-.977-.47-.153-1.574-.065-2.315.153-1.028-.256-2.144-1.209-2.629-.264-.183-.565-.222-.866-.191a.884.884 0 0 0 .011.065c.271.871-.939 1.46-1.408.592-.198-.5-.252-1.043-.244-1.582.088-1.566.572-3.19.984-4.672.649-2.541 1.378-5.063 2.179-7.562.416-1.084.812-2.173 1.312-3.22 1.049-2.044 2.575-3.787 4.082-5.502 3.262-3.416 7.615-5.616 12.041-7.11 4.982-1.704 10.483-1.498 15.577-.39 2.098.413 4.051 1.253 5.982 2.143 1.03.337 2.048.96 2.945 1.517 1.625.94 3.239 1.956 4.673 3.156 1.702 1.345 3.484 2.392 5.17 3.721 3.311 3.064 6.359 6.408 9 10.072 2.819 4.046 5.543 8.302 7.256 12.944 1.053 2.22 1.816 4.558 2.613 6.881 1.248 3.462 2.522 6.973 3.174 10.583a.8.8 0 0 1-.053.444c.004.03.011.057.015.091 0 .463-.488.806-.923.707-.721.126-1.37.459-2.037.734-3.693 1.318-6.86 3.905-9.29 6.953-.218.276-.424.55-.618.826.114.355.198.73.404 1.039.191.11.416.153.63.187v.008ZM7.138 160.587c-.416 0-.782-.283-.805-.718-.023-.398.302-.807.717-.807.416 0 .783.283.805.719.023.397-.301.806-.717.806Zm3.216-7.641c-.488 1.054-1.01 2.097-1.633 3.079-.194.478-.66.913-1.182.646-1.065-.654.198-1.765.519-2.514.637-1.364 1.537-2.709 1.606-4.253-.023-1.623-.801-3.098-1.473-4.535-.889-1.815-1.4-3.878-1.186-5.907.114-.668.152-1.826 1.106-1.677.4.08.69.493.599.898-1.492 5.36 4.605 8.948 1.648 14.263h-.004ZM5.12 42.15a.8.8 0 0 1 .34-.718c.358-.237.808-.123 1.056.21.294.508.02.932.065 1.444-.065 1.582.53 3.213 1.328 4.52 1.457 2.582 3.689 5.139 3.288 8.298.016.608-.053 1.402-.846 1.368a.77.77 0 0 1-.71-.814c.072-1.085.16-2.2-.286-3.224-1.61-3.619-4.94-6.813-4.235-11.088v.004Zm4.101 18.098c-.023-.397.302-.806.717-.806.416 0 .782.283.805.718.023.398-.301.807-.717.807s-.782-.283-.805-.719Zm9.748 39.09c-.05-5.643-5.727-7.87-8.668-11.818-.538-.745-1.69-3.89-.21-4.03a.769.769 0 0 1 .805.718c-.088 2.667 2.339 4.29 4.132 5.865 2.117 1.753 4.177 3.87 5.032 6.544.236.86.378 1.743.43 2.629a.775.775 0 0 1-.716.81.771.771 0 0 1-.805-.718Zm1.716 4.691c-.415 0-.782-.282-.804-.718-.023-.397.3-.806.717-.806.416 0 .782.283.805.718.023.398-.302.806-.717.806ZM32.41 45.841c-.988-3.126-1.865-6.3-3.414-9.212-1.938-2.934-4.288-5.957-7.402-7.645-1.033-.07-.995-1.567.05-1.536 2.938.703 6.661 5.395 8.332 7.874 1.366 2.354 2.4 4.944 3.083 7.58.233.833.599 1.62.801 2.457a.782.782 0 0 1-.038.573c-.263.6-1.24.55-1.412-.095v.003Zm1.275 4.81c-.416 0-.783-.283-.805-.719-.023-.397.3-.806.717-.806.416 0 .782.283.805.719.023.397-.302.806-.718.806Zm2.72 73.2c-.416 0-.783-.283-.805-.718-.023-.398.301-.806.717-.806s.782.282.805.718c.023.397-.302.806-.717.806Zm9.415-12.448a.733.733 0 0 1-.244.424c-.9.7-1.854 1.219-2.629 2.045-1.453 1.39-2.487 2.896-3.49 4.577-.37.6-.561 1.803-1.526 1.394-.374-.176-.53-.653-.351-1.024.454-1.1 1.133-2.082 1.785-3.072 1.133-1.631 2.38-2.987 3.907-4.16.454-.333.938-.619 1.377-.971.526-.397 1.328.153 1.171.784v.003Zm98.025 16.987c.416 0 .77.329.778.749.008.413-.336.779-.748.779a.776.776 0 0 1-.778-.748c-.008-.413.336-.78.748-.78Zm-15.272-5.509c.351-.619 1.087-.371 1.534-.008 2.445 1.792 5.249 3.049 8.103 4.031.988.256 1.934.657 2.941.852.965.26.611 1.7-.366 1.482-3.678-.909-7.23-2.346-10.453-4.344-.477-.263-.882-.638-1.339-.921-.447-.137-.649-.695-.42-1.096v.004Zm50.325-30.975c.415 0 .77.329.778.75.008.412-.336.779-.748.779a.775.775 0 0 1-.778-.75c-.008-.412.336-.779.748-.779Zm-16.073-5.375c.347.172.564.515.866.756 1.377 1.112 2.708 2.304 4.28 3.064 1.9 1.223 4.178 1.85 6.436 1.815.447.008.893.02 1.339-.007.615-.111 1.568-.172 1.599.683.008.509-.462.841-.946.784-.637.076-1.278.091-1.915.069-3.495.114-6.807-1.41-9.565-3.462-.927-.783-1.946-1.463-2.792-2.338a.726.726 0 0 1-.344-.604c-.034-.527.523-.99 1.046-.764l-.004.004Zm-70.64-31.047c.416 0 .778.286.805.722.023.397-.305.806-.721.806s-.778-.286-.805-.722c-.023-.397.305-.806.72-.806Zm-15.608 77.502c-1.457-.298-.797-2.334.458-1.459.927.332.488 1.712-.458 1.459Zm19.862 11.852c-5.784-1.456-11.72-3.289-16.2-7.423-.678-.585-1.357-1.166-1.987-1.808-.507-.428-1.293-.985-.656-1.673.71-.646 1.377.325 1.9.749 2.983 3.01 6.592 5.322 10.58 6.697 2.147.711 4.318 1.364 6.5 1.93 1.21-.027 1.064 1.692-.137 1.528Zm6.459-31.792c-.348.245-.805.145-1.065-.187-.805-1.181-1.453-2.434-2.182-3.63a10.689 10.689 0 0 1-.61-1.264c-.008 0-.012.004-.02.007-1.96.211-3.67 1.296-5.291 2.342-2.201 1.659-4.265 3.527-6.6 4.994-1.793 1.028-3.983 1.246-6.013 1.058-4.25-.653-6.302-5.528-5.577-9.421.015-.077.034-.149.05-.218-.844.08-1.69.088-2.55-.015-1.605-.165-3.288-.623-4.524-1.712-1.167-1.089-2.155-2.392-2.606-3.943-.42-1.31-.759-2.732-.454-4.1.927-4.034 4.41-5.796 8.298-5.838a40.77 40.77 0 0 1 2.16.077c-.695-1.574-.618-3.393-.36-5.074.13-1.448.703-2.766 1.348-4.05 1.343-2.193 4.635-3.48 7.126-3.064 1.656.283 3.094 1.287 4.368 2.327 1.221 1.203 2.354 2.521 3.827 3.43 1.21.86 2.754 1.303 4.124 1.7.393.196.965.173 1.37.356.519-1.742 1.278-3.408 2.38-4.925.534-1.138 2.099-.359 1.378.692-3.991 5.406-3.297 12.459-2.793 18.775.168 1.035.553 2.009.843 3.01.294 1.04.504 2.109.961 3.095.641 1.421 1.442 2.541 2.175 3.874.343.543.935 1.158.237 1.704Zm-.195-7.886a.77.77 0 0 1-.763-.764.77.77 0 0 1 .763-.764.77.77 0 0 1 .763.764.77.77 0 0 1-.763.764Zm1.446-18.018c-1.576 3.443-2.095 7.217-1.873 10.962.084 1 .328 1.979.374 2.984.026.416-.367.764-.763.764a.75.75 0 0 1-.538-.226c-.18-.176-.225-.412-.229-.653-.176-1.525-.496-3.037-.393-4.581-.065-3.26.591-6.468 1.854-9.472.21-.523.511-1.004.771-1.505.148-.458.606-.814 1.091-.6 1.037.535.019 1.632-.29 2.327h-.004ZM107.7 48.74c-2.995.887-5.898 2.136-8.645 3.622-.977.596-1.92 1.25-2.87 1.892-.335.24-.838.107-1.056-.23-.557-1.062 1.103-1.509 1.717-2.047 3.143-2.094 6.608-3.515 10.194-4.616 1.076-.802 1.896.887.656 1.383l.004-.004Zm9.015 64.192a.771.771 0 0 1-.763-.765.77.77 0 0 1 .763-.764.77.77 0 0 1 .763.764.771.771 0 0 1-.763.765Zm10.617-11.271c-.374.103-.729-.092-.893-.417-.587-.225-1.182-.443-1.77-.672-1.045-.317-2.171-.184-3.25-.203-2.675.474-4.277 3.16-4.788 5.64-.149 1.253.019 2.521.015 3.782.012.416-.355.764-.763.764-.408 0-.752-.348-.763-.764.019-1.471-.237-2.961.092-4.409.354-1.402.869-2.785 1.831-3.886.938-1.207 2.186-2.212 3.7-2.556 1.088-.198 2.221-.099 3.32-.053.904.084 1.716.493 2.559.798.928.172 1.931 1.456.706 1.979l.004-.003Zm1.629-12.765a.77.77 0 0 1-.763-.764.77.77 0 0 1 .763-.764.77.77 0 0 1 .763.764.77.77 0 0 1-.763.764Zm26.13-.004c-2.457 2.197-5.372 3.924-8.401 5.219-2.015.66-4.162.65-6.261.63-3.38-.19-6.84-1.02-9.37-3.4-.469-.397-1.14-1.066-.564-1.662.286-.287.797-.306 1.079 0 .306.397.729.672 1.095 1.005 2.53 2.097 6.001 2.552 9.187 2.53 1.427.007 2.861-.1 4.235-.51 1.575-.668 3.117-1.44 4.555-2.368 1.072-.795 2.243-1.49 3.235-2.373.626-.771 1.812.127 1.21.937v-.008Zm-24.444-17.736c2.625-4.852 6.925-7.81 12.441-8.168.969.046 1.927.4 2.854.691 1.797.367 3.403 1.372 4.872 2.43a9.074 9.074 0 0 1 2.136 2.254c.443.57 1.027 1.024 1.366 1.666 2.732 4.677 1.896 11.34-1.457 15.493-1.408 1.918-3.522 3.22-5.662 4.188-1.785.959-3.838 1.333-5.852 1.172-5.074-.668-8.023-1.818-10.9-6.243-2.647-3.98-1.293-9.299.202-13.479v-.004Zm32.478-65.712c-6.344-.542-12.902.505-18.74 3.057-.53.267-1.102.485-1.568.856a.775.775 0 0 1-1.091.26c-2.14-1.842 6.646-4.218 7.837-4.47 4.444-1.2 9.068-1.643 13.657-1.223.992.095.908 1.574-.099 1.524l.004-.004Zm3.994.562c-.156.141-.347.191-.557.191-.415 0-.736-.416-.713-.81a.754.754 0 0 1 .252-.52c.156-.14.347-.19.557-.19.416 0 .736.416.713.81a.75.75 0 0 1-.252.52Zm38.941 42.918c-.759-2.614-1.53-5.227-2.59-7.74-.065-.157-.176-.284-.271-.421-.245-.336-.142-.833.194-1.062.584-.398 1.122.149 1.374.66 1.171 2.664 1.983 5.468 2.788 8.257.18.978-1.259 1.291-1.495.306Zm.816 2.995c.023-.431.39-.722.805-.722.416 0 .744.405.721.806-.022.432-.389.722-.805.722-.415 0-.744-.405-.721-.806Z"/><path fill="#A4D357" d="M214.682 68.424c-1.034-.477-2.148-.527-3.251-.71-.522-.058-.95.21-1.411-.012-3.094 1.315-4.8 5.636-2.915 8.547.95 1.334 3.014 1.773 4.567 1.689 2.399-.08 3.654-2.151 4.665-4.054.893-1.891.206-4.432-1.655-5.456v-.004Zm-.756 5.246c-.541.998-1.728 1.64-2.869 1.64-.19 0-.377-.02-.56-.054-1.618-.386-1.885-1.777-1.412-3.026.069.057.145.107.229.145.172.08.359.122.545.122.13 0 .264-.023.393-.068.386-.142.672-.425.779-.826.099-.37-.111-.771-.443-.936a.222.222 0 0 0-.027-.046.978.978 0 0 0-.099-.149c.447-.298.958-.47 1.5-.447 2.048-.16 2.704 2.052 1.968 3.65l-.004-.005Z"/><path fill="#fff" d="M219.244 69.387a31.196 31.196 0 0 0-2.063-.703c1.308 1.865 1.453 4.535.186 6.48-.797 1.505-1.709 2.675-2.868 3.416 1.438-.145 2.872-.397 4.261-.661 3.071-.596 6.276-1.326 8.481-3.68-.603-.515-1.21-1.169-1.9-1.581-1.862-1.364-3.972-2.419-6.097-3.27Z"/><path fill="#A9A9A9" d="M206.117 59.435Z"/><path fill="#A4D357" d="M182.299 103.093c-1.03 1.215-2.27 2.216-3.487 3.236-2.346 2.155-5.055 3.863-7.855 5.361-7.397 3.882-15.916 5.945-24.267 5.498-4.308-.661-8.729-2.071-12.06-4.986-2.941-2.514-5.612-5.674-9.538-6.579-3.181-.742-3.826.649-3.006 3.564.24.761.466 1.532.885 2.216.58.955 1.458 1.662 2.209 2.476.668.714 1.252 1.391 1.912 1.991 1.941 1.742 3.944 3.473 6.176 4.829a41.94 41.94 0 0 0 13.036 4.409c2.182.344 4.361.791 6.577.772a97.02 97.02 0 0 0 3.663-.054.864.864 0 0 1 .347-.015c-.027 0-.053-.008-.08-.008h-.118.114c.084 0 .164 0 .248.004 4.319-.176 8.592-.695 12.792-1.838 3.647-1.157 7.214-2.877 10.335-5.077 1.663-1.475 3.292-3.003 4.693-4.742 2.025-2.434 3.906-5.081 4.692-8.184.042-.481.141-.852.206-1.318-.118-.986-.294-1.971-.61-2.911-.344-.203-.744-.497-.71-.932-.362-.6-1.179-.566-1.801-.646-1.766.191-3.246 1.65-4.356 2.942l.003-.008Zm3.033 3.24c.264.894-.724 1.555-1.232 2.163-1.278 1.31-2.541 2.64-3.834 3.931-2.583 2.193-5.452 4.123-8.565 5.471-7.378 3.275-15.573 3.538-23.516 3.584-5.856-.114-10.587-1.803-15.348-5.165-2.197-1.429-4.357-2.977-6.138-4.91-.309-.279-.306-.787-.027-1.081.694-.661 1.343.229 1.797.718 1.522 1.528 3.43 2.831 5.207 4 2.125 1.41 4.338 2.786 6.761 3.592 4.261 1.505 8.832 1.432 13.268 1.184 7.299-.195 14.883-1.307 21.132-5.334 1.969-1.222 3.914-2.548 5.467-4.286 1.175-1.303 2.583-2.438 3.617-3.848.198-.626 1.19-.63 1.411-.019Z"/><path fill="#fff" d="M183.875 68.577c-.824-.817-1.656-1.616-2.655-2.22-1.362-.86-3.01-.89-4.533-1.176-1.354.122-2.605.653-3.799 1.272-1.195.512-2.351 1.12-3.4 1.891-2.525 1.827-4.04 4.768-4.959 7.687-1.042 3.489-.805 6.725 2.14 9.181 1.034 1.066 2.434 1.685 3.773 2.24 1.347.592 2.789.932 4.258.943 2.163.035 4.105-.913 6.092-1.612 1.206-.642 2.202-1.647 3.247-2.514 3.544-4.027 4.616-9.285 1.431-13.866-.363-.74-.996-1.28-1.599-1.822l.004-.004Zm-5.749 13.487a4.56 4.56 0 0 1-1.29.184 4.724 4.724 0 0 1-2.636-.818c-2.018-1.097-2.468-3.286-2.007-5.391.019.011.035.027.054.038.183.126.385.23.599.294.331.1.675.157 1.018.16h.054c.358 0 .744-.041 1.053-.232.32-.199.618-.44.766-.803a2.02 2.02 0 0 0 .142-.443c.026-.168.019-.332.007-.5-.042-.608-.454-1.07-.877-1.46-.294-.267-.748-.378-1.137-.344a1.731 1.731 0 0 0-.141.02 6.18 6.18 0 0 1 1.079-1.086c.878-.726 2.068-1.356 3.205-.852 2.735-.511 5.425 2.958 5.368 5.48.011 2.872-2.434 5.467-5.261 5.757l.004-.004Z"/><path fill="#A4D357" d="M78.56 89.217c1.133 2.063 3.777 2.468 5.887 2.865.77.15 1.549.272 2.327.37.332.039.664.073.995.104.05-.011.1-.02.157-.02.683-.022 1.297-.24 1.957-.362 1.797-.493 3.361-1.525 4.803-2.636.572-.516 1.087-.986 1.541-1.517-.312-.103-.606-.21-.816-.264-1.48-.374-2.9-.932-4.154-1.815-2.343-1.49-3.83-4.057-6.452-5.146-1.911-.814-3.987-.119-5.604 1-.763.44-1.148 1.388-1.469 2.118-.061.122-.11.248-.16.374.034.24-.004.512-.084.745-.08.164-.03.336-.05.508-.076.317-.13.62-.026.94.312.936.717 1.853 1.152 2.736h-.004Zm8.233-5.032c.896.489 1.514 1.345 2.438 1.792a.767.767 0 0 1 .679.454c.297.738-.47 1.28-1.091 1.044-1.057-.417-1.782-1.311-2.71-1.918-.194-.115-.354-.268-.415-.493-.198-.615.542-1.223 1.103-.88h-.004Zm-3.62-1.116c.984-.577 1.823.784.808 1.322-.462.28-1.118.168-1.278-.401-.145-.55.294-.867.47-.92Z"/><path fill="#E2FFB4" d="M225.406 78.9c.007-.118.049-.22.076-.336-.13-.244-.343-.485-.641-.473a.667.667 0 0 1-.351-.142c-1.652.7-3.479 1.047-5.211 1.418-2.671.52-5.383.982-8.111.837-5.631-.467-11.361-1.651-16.222-4.608-.095-.061-.187-.13-.282-.191-.065.011-.13.015-.198.015-.401.141-1.088.348-1.175.81.015.374.167.806.076 1.173.446.955 1.072 1.91 1.888 2.858 2.873 2.499 6.639 3.737 10.354 4.153 5.982.672 15.306-.573 19.793-5.517l.004.004Z"/><path fill="#fff" d="M206.861 78.152c-2.918-2.3-2.636-7.328.149-10.102a6.09 6.09 0 0 1 .587-.623c-3.239.145-6.432.906-9.343 2.419-1.675.856-3.079 1.948-4.685 2.85 1.248.963 2.495 1.918 3.918 2.61 2.98 1.367 6.143 2.288 9.37 2.842l.004.004Z"/><path fill="#000" d="M220.859 83.822c6.749-3.007 10.342-8.528 7.157-14.29a.704.704 0 0 0-.107-.187c-.591-1.024-1.396-2.055-2.442-3.083-1.564-1.59-3.491-2.77-5.413-3.87-1.847-1.063-3.781-2.04-5.795-2.778-.092-.428-.241-.871-.287-1.219-1.19-3.706-2.437-7.45-3.643-11.16-1.4-4.188-3.033-8.291-5.063-12.211-1.949-3.92-4.009-7.798-6.493-11.409-2.495-3.595-5.349-6.946-8.645-9.83-1.385-1.18-2.651-2.503-4.09-3.61-2.205-1.521-4.394-3.065-6.748-4.353-2.011-1.134-4.136-2.078-6.299-2.896-2.98-.909-6.043-1.547-9.114-2.067-2.133-.294-4.254-.748-6.41-.86a39.304 39.304 0 0 0-5.444.295c-2.689.256-5.234 1.223-7.699 2.292-4.2 1.758-8.198 4.253-11.307 7.619-1.805 1.99-3.266 4.31-4.472 6.705-1.106 2.487-1.995 5.07-2.865 7.65-.236.855-.561 1.688-.79 2.544-.297 1.42-.309 2.888-.633 4.31-.225 1.214-.225 2.448-.286 3.679a2.354 2.354 0 0 0-.03.298c-1.988-.145-3.4 1.578-3.484 3.4-.351-.023-.74.027-1.068.03-1.949.047-3.884.322-5.73.967-2.854.76-5.597 1.96-8.336 3.057-2.426 1.028-4.899 2.002-7.249 3.217-5.028 2.953-10.216 5.88-14.531 9.873C77.48 61.547 72.616 68.29 67.97 75.08c-1.927 2.407-3.682 4.963-5.712 7.294-1.66 2.078-3.38 4.21-5.65 5.65-2.12 1.23-4.734 1.49-7.126 1.105-1.542-.432-2.87-1.403-4.079-2.419-1.487-1.64-2.59-3.488-3.597-5.471-.427-1.246-.752-2.518-1.175-3.764-.328-1.42-.542-2.865-.855-4.29-.343-4.26-.057-8.566 0-12.845.054-5.013-.74-9.968-1.66-14.882-.358-4.115-1.724-8.126-3.792-11.699-1.4-2.693-3.273-5.123-5.623-7.053-2.216-2.082-5.044-3.328-7.817-4.485-2.16-.845-4.487-1.146-6.753-1.559-4.154-.378-8.408.233-12.387 1.437-.641.256-.58 1.23.042 1.455 2.499.96 2.922 3.985 3.529 6.285.408 2.266-1.011 4.218-2.122 6.056-.885 1.93-2.369 3.607-2.846 5.704-.217 1.303-.454 2.629-.293 3.95.24 1.388.755 2.752 1.484 3.96 1.14 1.917 3.075 3.64 3.143 5.998.004 1.562-.042 3.163-.652 4.626-.443 1.143-1.164 2.19-1.438 3.393-.454 2.434.686 4.84 2.22 6.671.809 1.02 1.759 1.937 2.465 3.037.915 1.953.545 4.257-.16 6.217-1.706 3.217-3.51 4.065-2.442 8.21.755 3.775 4.73 4.138 7.073 6.599 1.988 1.872 3.231 4.393 3.678 7.106.854 5.173-1.153 7.023-4.91 10.106-2.671 1.903-5.41 3.775-5.776 7.328-.454 1.914-.096 3.943.66 5.731.72 1.467 1.8 2.774 1.896 4.478.358 1.738-.32 3.37-1.626 4.55-2.186 1.953-3.998 4.604-3.502 7.68.237 1.475.34 2.976.878 4.378.644 2.071 2.17 4.004 1.4 6.27-.351 1.268-.851 2.51-1.622 3.588-.48.607-1.045 1.15-1.419 1.833-.786 1.636-.84 3.63-.56 5.395.35 1.532 1.182 2.87 2.06 4.15 2.2 3.855 2.174 7.19.118 11.137-.634 1.138-1.606 2.021-2.518 2.93-.267.264-.332.673-.13.986.027.157.1.317.237.455.766.378 1.613.638 2.403.997 1.404.516 2.919.584 4.399.623 4.89.233 9.87-1.185 13.795-4.134 5.52-3.603 8.44-7.141 10.48-13.426 2.541-7.061 2.873-14.588 3.976-21.969.156-3.76.762-7.492 1.777-11.114 1.213-4.994 2.96-9.969 5.937-14.202 1.69-2.086 3.7-3.92 5.99-5.334 6.718-3.4 11.158 1.938 14.283 7.306 2.17 3.259 3.735 6.873 6.001 10.067 3.88 5.995 8.271 10.568 14.738 13.754 3.944 2.148 8.278 3.508 12.708 4.192 4.364.814 8.755 1.478 13.162 2.032 6.844.94 13.826 1.158 20.704.539 2.098-.302 4.204-.489 6.295-.848 3.846-.642 7.554-1.888 11.22-3.179 8.168-2.651 18.022-9.685 22.746-16.872 1.011-1.494 1.861-3.11 2.327-4.86.191-.52.744-1.36.725-1.99a37.612 37.612 0 0 0 7.035-4.012c2.216-1.937 4.25-4.073 6.02-6.43 1.732-2.232 3.231-4.799 3.769-7.604.359-1.257.038-2.51-.233-3.759-.084-.386-.221-.757-.354-1.127-.237-.363-.626-.845-.912-1.204-.576-.936-1.702-1.039-2.694-1.173a3.981 3.981 0 0 0-1.51.218c-.1-.688-.508-1.146-1.069-1.421.088-.195.153-.39.199-.554.19-.726-.073-1.433-.099-2.155.122-1.054.656-2.04 1.217-2.923.721-.852 1.583-1.62 2.098-2.62.412-1.044.626-2.255.393-3.363-.26-.844-.912-1.662-1.725-2.09 2.514-3.565 3.4-8.44 1.336-12.352-.473-.894-.958-1.796-1.538-2.621-.397-.455-.843-.86-1.289-1.265.19-.18.366-.374.534-.512 2.01-1.845 1.9-5.123-.363-6.713-2.251-1.94-5.333-2.223-8.16-2.598-2.453-.386-4.964-.198-7.352.455a.67.67 0 0 0-.095-.417c-.496-1-1.202-2.01-1.95-2.865-7.195-7.955-18.293-11.523-28.513-13.655-1.172-.256-2.358-.428-3.549-.58a4.59 4.59 0 0 1 .126-.429c.481-1.868-.423-3.977-2.239-4.722a2.854 2.854 0 0 0-1.332-.222c.092-.733.31-1.467.462-2.17.408-1.402.782-2.923 1.171-4.367 1.088-3.542 1.946-7.298 4.327-10.236 3.597-4.993 9.163-7.989 14.966-9.681 6.001-1.345 12.643-.803 18.259 1.815 2.476.959 4.716 2.41 6.905 3.897 1.294 1.024 2.572 2.025 3.98 2.938 2.754 1.834 5.081 4.226 7.244 6.717 2.419 2.712 4.514 5.677 6.501 8.722 2.892 4.532 4.956 9.537 6.692 14.61 1.236 3.535 2.594 7.065 3.311 10.744-.362.088-.717.226-.976.325-2.839 1.077-5.624 2.506-7.848 4.62-2.587 2.3-4.937 5.157-5.795 8.577-.763 3.037.343 6.128 2.11 8.604.831 1.276 2.148 2.082 3.422 2.854 3.254 1.987 7.134 2.762 10.915 2.907 4.498.119 9.022-.492 13.177-2.273l.008-.011Zm-2.099-5.907c-1.388.263-2.819.516-4.261.66 1.16-.74 2.072-1.91 2.869-3.415 1.263-1.945 1.118-4.611-.187-6.48.698.21 1.385.443 2.064.703 2.125.852 4.238 1.907 6.096 3.27.691.417 1.298 1.07 1.9 1.582-2.209 2.354-5.41 3.084-8.481 3.68Zm-7.092.015c-1.553.088-3.617-.351-4.567-1.689-1.884-2.911-.179-7.232 2.915-8.546.462.225.889-.046 1.412.011 1.106.183 2.216.237 3.25.71 1.862 1.025 2.549 3.565 1.656 5.457-1.011 1.902-2.266 3.973-4.666 4.053v.004Zm-25.011 22.217c.625.081 1.442.046 1.8.646-.034.436.366.734.71.932.316.94.492 1.926.61 2.912-.065.466-.164.836-.206 1.318-.786 3.102-2.666 5.75-4.692 8.184-1.397 1.738-3.026 3.266-4.693 4.741-3.124 2.201-6.688 3.92-10.335 5.078-4.196 1.142-8.469 1.662-12.792 1.838-.084 0-.164 0-.248-.004.027 0 .054.007.08.007a.86.86 0 0 0-.347.016 89.258 89.258 0 0 1-3.662.053c-2.217.023-4.399-.428-6.578-.772-4.559-.733-8.957-2.239-13.036-4.409-2.231-1.36-4.234-3.091-6.176-4.829-.656-.6-1.244-1.276-1.912-1.991-.751-.813-1.629-1.52-2.209-2.475-.419-.684-.644-1.456-.885-2.216-.82-2.916-.171-4.306 3.007-3.565 3.925.905 6.596 4.065 9.537 6.579 3.331 2.915 7.749 4.325 12.06 4.986 8.351.447 16.87-1.616 24.267-5.498 2.801-1.498 5.506-3.205 7.856-5.36 1.217-1.02 2.457-2.018 3.487-3.236 1.114-1.292 2.594-2.751 4.357-2.942v.007Zm-1.183-29.748c3.189 4.582 2.113 9.839-1.431 13.866-1.045.87-2.041 1.872-3.246 2.514-1.988.699-3.93 1.65-6.093 1.612-1.469-.011-2.911-.355-4.258-.944-1.339-.554-2.739-1.172-3.773-2.239-2.945-2.456-3.182-5.692-2.14-9.18.916-2.92 2.434-5.862 4.96-7.688 1.049-.772 2.205-1.38 3.399-1.891 1.194-.619 2.445-1.15 3.8-1.272 1.522.286 3.166.313 4.532 1.176.999.604 1.827 1.407 2.655 2.22.603.547 1.236 1.082 1.599 1.823l-.004.004Zm9.69-3.075c2.43-3.049 5.593-5.636 9.29-6.954.667-.275 1.32-.607 2.037-.733.431.099.923-.245.923-.707 0-.035-.011-.061-.015-.092a.766.766 0 0 0 .053-.443c-.652-3.614-1.926-7.122-3.174-10.583-.797-2.323-1.56-4.658-2.613-6.881-1.713-4.642-4.437-8.899-7.256-12.945-2.644-3.66-5.692-7.007-9-10.071-1.69-1.33-3.468-2.38-5.169-3.721-1.439-1.2-3.052-2.216-4.674-3.156-.896-.558-1.915-1.18-2.945-1.517-1.927-.894-3.884-1.73-5.982-2.144-5.093-1.108-10.595-1.314-15.577.39-4.426 1.494-8.779 3.699-12.04 7.11-1.511 1.716-3.037 3.458-4.083 5.502-.503 1.047-.896 2.136-1.312 3.221a129.238 129.238 0 0 0-2.178 7.561c-.416 1.483-.901 3.106-.985 4.673-.007.539.046 1.077.244 1.582.466.867 1.679.275 1.408-.593-.007-.023-.007-.045-.011-.065.301-.026.603.008.866.191.954.486 1.362 1.601 1.209 2.63-.088.74-.912 1.848.065 2.315.065.022.13.034.187.045.179.138.42.199.641.142 2.724.347 5.475.836 8.134 1.608 6.115 1.582 12.212 3.718 17.499 7.275.985.676 1.961 1.379 2.892 2.136a.779.779 0 0 0 .248.263c.279.34.511.718.74 1.097.878 1.685 1.08 3.878.378 5.666-.114.256-.252.6-.397.905-.286.348-.477.83-.141 1.211.057.13.149.249.275.333.339.233.774.145 1.045-.145.446-.497.916-.975 1.45-1.376 1.709-1.383 3.895-1.903 6.077-2.032 1.149-.096 2.301-.027 3.441.137 1.877.245 3.857.451 5.689 1.184 2.293.994 4.128 3.072 2.151 5.388-.19.202-.48.424-.721.668-1.533-1.413-3.487-2.353-5.581-2.521-.473-.41-1.282-.31-1.881-.184-1.663.138-3.155.913-4.639 1.613-3.918 1.639-6.428 4.596-8.023 8.47-1.076 2.87-1.931 6.296-.584 9.212 1.808 3.912 5.997 6.14 10.106 6.831 1.976.271 4.021-.023 5.879-.756.416-.046.801-.214 1.198-.344 1.03-.329 2.068-.921 3.171-1.036 1.323-.034 2.182.871 1.922 2.113-.225.252-.457.5-.683.753-.74.875-1.228 1.948-1.594 3.03a3.798 3.798 0 0 0-.141 1.883c.087.417.187.864.019 1.273-.08.114-.168.233-.248.359a5.37 5.37 0 0 0-1.919.332c-2.869.99-4.655 3.591-6.989 5.387-.76.501-1.549.963-2.4 1.284-.389.145-.553.638-.397 1.005.599 1.134 2.209-.256 2.983-.6 3.201-1.765 5.544-6.751 9.748-5.69.156.184.141.448.122.673 0 .042.008.084.011.123-.568.378-1.106.821-1.613 1.245-.828.76-1.473 1.693-2.297 2.457-.668.638-1.408 1.188-2.102 1.796-2.766 2.529-6.013 4.477-9.374 6.097-4.166 1.968-8.542 3.366-13.139 3.985-3.613.501-7.363.982-10.941.019-7.02-1.658-8.474-4.046-13.62-8.394-2.663-2.334-10.465-5.398-10.576.505.138 2.242.893 4.588 2.476 6.231 1.156 1.116 2.194 2.35 3.361 3.458 1.595 1.494 3.449 2.942 5.219 4.264 6.105 3.801 13.292 5.448 20.381 6.117 1.842.03 3.685.015 5.528-.061 1.274.038 2.525.088 3.796.34 1.953.508 3.612 2.086 4.005 4.126.245.886.153 1.83-.022 2.72-.145.566-.229 1.177-.641 1.62a1.417 1.417 0 0 0-.241.398c-.194.164-.389.324-.583.485a50.47 50.47 0 0 1-8.149 5.884c-4.643 2.647-9.809 4.283-14.94 5.712-11.667 2.789-23.783 2.158-35.564.259-10.446-1.593-16.848-2.521-25.683-9.001-4.918-4.092-8.584-9.536-11.575-15.149-2.72-4.508-5.158-9.685-9.855-12.452-1.96-1.1-4.456-1.31-6.615-.752-2.545.565-4.597 2.281-6.47 4.004-2.717 2.384-4.498 5.593-5.902 8.883-.98 2.346-1.885 4.73-2.423 7.221-.977 3.465-1.778 7.003-2.056 10.595a29.104 29.104 0 0 1-.26 3.209c-1.098 7.068-1.362 14.438-4.04 21.159-1.297 4.264-3.937 8.012-7.619 10.564-1.938 1.372-3.845 2.854-6.05 3.779-2.675.985-5.482 1.654-8.348 1.528-1.327-.046-2.613-.038-3.933-.382-.626-.176-1.21-.47-1.812-.715.023-.026.05-.053.072-.076 1.431-1.276 2.43-2.942 3.007-4.761 1.457-3.385.797-7.201-1.008-10.315-.518-.906-1.205-1.716-1.579-2.702-.599-1.245-.534-2.666-.385-4.011.08-.627.24-1.261.618-1.777 2.022-2.246 3.605-5.364 3.117-8.455-.45-1.803-1.492-3.4-1.904-5.227-.275-1.662-.778-3.404-.366-5.077.515-2.797 3.414-4.077 4.585-6.496.947-2.166.53-4.806-.606-6.823-1.763-2.491-2.167-5.494-1.084-8.356.546-1.345 1.694-2.3 2.8-3.179 1.56-1.104 3.064-2.273 4.434-3.61 1.957-1.731 3.01-3.661 3.2-6.289.218-4.849-2.025-9.781-6.096-12.505-1.454-1.1-3.468-1.56-4.433-3.24-.614-1.315-.965-2.942-.485-4.344.508-1.387 1.618-2.388 2.247-3.722.76-1.75 1.122-3.706.908-5.608-.354-4.196-5.28-5.686-5.264-10.293.126-1.78 1.453-3.206 1.816-4.937.415-1.964.656-4.153.003-6.09-.743-1.85-2.125-3.358-3.166-5.04a11.28 11.28 0 0 1-1.099-3.052c-.133-1.291.092-2.468.344-3.779.534-1.654 1.709-3.003 2.403-4.592 1.507-2.411 3.228-5.085 2.377-8.058-.591-2.067-1.065-4.428-2.766-5.888 3.289-.737 6.692-1.222 10.064-.878 3.094.515 6.089 1.058 8.885 2.602 4.243 1.88 7.76 5.284 9.923 9.38 2.118 3.533 3.457 7.522 3.827 11.63.664 3.686 1.335 7.385 1.553 11.148.316 6.85-.855 13.87.892 20.597.683 2.24 1.183 4.555 2.553 6.495.946 1.663 2.155 3.512 3.78 4.627 1.103.799 2.236 1.555 3.568 1.91 2.544.52 5.36.264 7.717-.855 3.388-1.727 5.57-5.009 7.966-7.84 1.736-2.082 3.178-4.2 4.887-6.358a157.187 157.187 0 0 1 8.703-11.764c2.69-3.178 5.57-6.193 8.816-8.833 3.071-2.32 6.314-4.363 9.652-6.281 3.587-2.25 7.55-3.695 11.472-5.288 3.865-1.567 7.867-3.102 12.102-3.022h.103c.118.042.236.05.351.03.229.944 1.629.68 1.495-.275-.065-.363-.202-.703-.278-1.066-.023-.416.16-.81.313-1.192.389-.87 1.526-1.115 2.35-.764.274.122.48.34.74.478.4.16.816-.054.988-.432.194-.573-.256-1.02-.836-1.318-.007-.317-.065-.661 0-.948-.045-2.235.569-4.397.714-6.632.507-2.43 1.465-4.746 2.285-7.084.549-1.6 1.164-3.186 1.969-4.676 1.522-2.572 3.151-4.99 5.436-6.97 2.423-2.082 5.234-3.812 8.164-5.13 2.209-.948 4.445-1.926 6.822-2.354 3.189-.485 6.6-.715 9.835-.057 4.33.642 8.729 1.333 12.849 2.854 5.524 2.273 10.652 5.528 14.986 9.643 3.887 3.359 7.21 7.32 10.014 11.626 4.586 7.466 8.409 15.41 11.007 23.792.965 3.568 2.56 6.938 3.235 10.583a.771.771 0 0 0 .889.608c.553.198 1.083.427 1.637.641-.02-.007-.035-.015-.054-.019 3.682 1.758 8.885 4.39 11.182 8.242-.019.053-.038.106-.053.16-.08.31-.29.684-.645.734-.145.011-.294.019-.435.042-8.462-5.666-20.666-6.912-29.334-1.464a.802.802 0 0 0-.435 0c-.214-.034-.439-.076-.629-.187-.21-.313-.29-.684-.405-1.04.191-.274.397-.55.618-.825v-.007Zm10.789-8.134a.895.895 0 0 0 .16.24.62.62 0 0 1-.16-.24Zm-7.699 10.656c2.911-1.517 6.104-2.274 9.343-2.419a6.078 6.078 0 0 0-.587.623c-2.789 2.774-3.067 7.802-.149 10.102-3.227-.554-6.39-1.475-9.37-2.843-1.423-.691-2.674-1.647-3.918-2.61 1.606-.901 3.01-1.994 4.685-2.85l-.004-.004Zm7.356 14.568c-3.716-.417-7.485-1.655-10.354-4.153-.817-.948-1.442-1.903-1.889-2.858.092-.367-.061-.799-.076-1.173.088-.462.774-.672 1.175-.81.065 0 .134-.004.198-.015.096.06.187.13.283.19 4.86 2.958 10.59 4.139 16.221 4.608 2.728.146 5.441-.317 8.111-.836 1.736-.37 3.56-.719 5.212-1.418a.636.636 0 0 0 .351.142c.297-.012.511.229.641.473-.031.111-.069.218-.077.337-4.486 4.944-13.814 6.189-19.792 5.517l-.004-.004Z"/><path fill="#000" d="M211.958 70.018c-.538-.023-1.049.149-1.5.447a.805.805 0 0 1 .1.149c.007.015.015.03.026.046.336.164.546.565.443.936a1.215 1.215 0 0 1-.778.825c-.13.046-.26.069-.393.069-.187 0-.374-.046-.546-.123a1.019 1.019 0 0 1-.229-.145c-.473 1.25-.206 2.64 1.412 3.026.183.035.37.054.56.054 1.141 0 2.331-.638 2.869-1.64.737-1.596.081-3.809-1.968-3.648l.004.004ZM178.019 70.832c-1.137-.505-2.327.126-3.205.852a6.18 6.18 0 0 0-1.079 1.085c.045-.008.091-.016.141-.02.389-.034.843.077 1.137.345.423.39.839.852.877 1.459a2.15 2.15 0 0 1-.008.5c-.026.157-.08.299-.141.444-.148.363-.442.603-.766.802-.31.191-.695.233-1.053.233h-.054a3.674 3.674 0 0 1-1.018-.16 2.177 2.177 0 0 1-.653-.333c-.462 2.105-.011 4.295 2.007 5.391a4.705 4.705 0 0 0 2.636.818 4.68 4.68 0 0 0 1.29-.184c2.83-.29 5.272-2.884 5.261-5.757.057-2.522-2.633-5.991-5.368-5.48l-.004.005ZM130.453 84.632c2.876 4.424 5.825 5.574 10.899 6.243 2.011.16 4.067-.214 5.853-1.173 2.14-.963 4.253-2.266 5.661-4.188 3.354-4.153 4.189-10.816 1.458-15.492-.344-.646-.928-1.1-1.366-1.666a9.15 9.15 0 0 0-2.137-2.254c-1.465-1.059-3.075-2.064-4.872-2.43-.927-.29-1.88-.642-2.853-.692-5.521.36-9.816 3.316-12.441 8.169-1.492 4.183-2.85 9.498-.202 13.479v.004Zm1.793-13.224c2.258-3.744 5.417-6.15 9.808-6.789a.765.765 0 0 0 .481.061.768.768 0 0 0 .82-.157c2.324.532 4.605 1.254 6.501 2.755 1.217.856 1.927 2.174 2.98 3.225a10.506 10.506 0 0 1 1.491 4.096c.458 4.187-.82 8.688-4.097 11.507-2.35 1.758-5.082 3.313-8.092 3.282-2.567-.233-5.303-.714-7.451-2.242-1.476-1.261-2.727-2.74-3.616-4.505-.512-1.23-.527-2.594-.584-3.904.191-2.515.702-5.002 1.759-7.329Z"/><path fill="#000" d="M143.138 82.61c.305.07.614.1.919.1 1.286 0 2.549-.55 3.647-1.184 1.069-.738 1.648-1.972 2.057-3.168.332-1.272.019-2.64-.34-3.874-.709-1.876-2.281-3.591-4.319-3.931-.534-.07-1.037.053-1.506.279-.928.076-1.694.645-2.354 1.272.274.198.515.45.705.741.107.164.199.355.26.554.275.348.442.78.465 1.223.035.668-.244 1.268-.721 1.727a2.284 2.284 0 0 1-1.591.626 2.4 2.4 0 0 1-1.648-.66l-.099-.1c-.759 2.839.565 5.574 4.517 6.4l.008-.004ZM180.304 110.2c-1.553 1.738-3.498 3.064-5.467 4.287-6.249 4.031-13.829 5.138-21.131 5.333-4.437.253-9.008.321-13.269-1.184-2.423-.806-4.636-2.182-6.761-3.591-1.774-1.173-3.681-2.476-5.207-4.001-.454-.489-1.107-1.379-1.797-.718-.282.294-.282.802.027 1.081 1.777 1.933 3.937 3.481 6.138 4.91 4.761 3.358 9.492 5.047 15.348 5.165 7.939-.045 16.134-.309 23.516-3.583 3.113-1.349 5.982-3.279 8.565-5.472 1.297-1.291 2.556-2.624 3.834-3.931.508-.608 1.496-1.269 1.232-2.163-.221-.611-1.213-.607-1.411.019-1.034 1.41-2.442 2.549-3.617 3.848ZM222.224 60.008c.912.022 1.641-.78 2.068-1.51.572-.84.492-1.933 1.038-2.766.576-.871 1.568-1.288 2.38-1.887 1.171-.795 2.045-2.174 2.068-3.61-.076-.757-1.164-.895-1.457-.207-.164.57-.378 1.127-.699 1.631-.835 1.12-2.468 1.177-3.235 2.388-.763.803-.805 1.922-1.129 2.923-.202.539-.595.97-.889 1.456-.328.149-.725.218-.79.722-.057.401.237.817.649.863l-.004-.004ZM193.527 56.18c.481.374.862.878 1.316 1.29.847.833.164 2.488 1.378 3 .396.122.827-.13.942-.527.355-.833.217-1.754-.328-2.469-.473-.748-1.004-1.455-1.69-2.02-.386-.46-.79-.94-1.397-1.082-.557-.164-1.209-.02-1.701-.355-.572-.402-.962-1.059-1.168-1.72-.061-.386.027-.79-.095-1.169-.233-.665-1.232-.626-1.453.027-.653 1.85.492 3.94 2.308 4.57.633.16 1.278.156 1.884.454h.004ZM253.176 62.307c-.801-.439-1.69-.4-2.556-.27-1.687-.108-3.182.695-4.334 1.879-.744.619-1.16 1.624-2.121 1.952-2.263 1.154-4.834-1.058-7.016.371-.897.504-1.473 1.36-2.175 2.078-.469.356-1.045.5-1.614.608-.702.095-1.579-.585-2.094.115a.766.766 0 0 0 .206 1.058c.419.195.862.386 1.335.374 1.877.21 3.266-1.02 4.624-2.12.599-.527 1.255-1.036 2.091-1.02 1.858.347 3.834.886 5.623-.038 1.179-.558 2.178-1.414 3.071-2.354.908-.864 2.285-1.605 3.583-1.284.793.344 2.411.806 2.178-.638-.114-.348-.485-.562-.801-.71ZM240.224 86.576c-1.332-.412-1.675-1.917-2.678-2.716-.76-.546-1.637-.902-2.537-1.138-1.763-.249-2.175.118-3.56-1.319-.107-.752-1.244-.848-1.469-.114-.244 1.1 1.126 2.101 2.011 2.495 1.129.718 2.503.527 3.712 1.043 1.476.92 2.106 3.064 4.002 3.32.427.06.95.133 1.301-.168.637-.692.027-1.383-.782-1.399v-.004ZM230.644 104.175c-.519-.554-1.015-1.131-1.331-1.869-.359-.901-.248-1.899-.5-2.827a9.612 9.612 0 0 0-1.499-3.206c-1.58-2.162-5.41-2.938-5.273-6.101.195-.367-.004-.845-.366-1.016-.423-.203-.893.038-1.057.454-.637.57-.03 1.628.141 2.32.809 2.391 3.194 3.556 4.96 5.127.881.901 1.03 2.189 1.251 3.369.336 1.666.42 3.47 1.66 4.769.866.89 2.094 1.352 2.995 2.189.194.481.37.97.458 1.482.057.275.152.505.392.673.283.198.664.137.92-.073.69-.794.038-2.105-.45-2.865-.439-1.074-1.507-1.639-2.297-2.423l-.004-.003ZM210.535 96.675c-.569-1.051-1.259-2.11-.969-3.351.038-.141.076-.279.133-.413.244-.305.176-.787-.118-1.035-.328-.279-.793-.222-1.076.084-.53.71-.496 1.65-.595 2.491-.237 1.819 1.37 3.187 1.316 4.994.05.794-.267 1.543-.355 2.315.096.993.401 2.082 1.011 2.877.397.355 1.065.16 1.225-.348.145-.538-.324-.951-.435-1.452-.027-.859.702-1.543.653-2.414.026-1.28-.218-2.594-.794-3.74l.004-.008ZM199.021 90.588c-.675.337-.637 1.307-.965 1.918-.95 2.12-.962 4.428-.752 6.717.107 1.475-.542 2.9-1.247 4.168-1.381 2.243-2.843 4.707-2.568 7.451.126.707.061 2.09.931 2.292 1.385.08.725-1.448.763-2.269a8.421 8.421 0 0 1 1.198-4.513c.534-.863.923-1.818 1.576-2.605.896-1.487 1.587-3.129 1.602-4.89-.149-2.049-.771-4.215.069-6.186a6.19 6.19 0 0 1 .747-1.36c.367-.352.527-.929.096-1.3-.569-.481-1.16.058-1.446.574l-.004.003ZM100.496 107.464c-.457-.986-.667-2.055-.96-3.095-.29-1.001-.676-1.979-.844-3.01-.504-6.32-1.198-13.369 2.793-18.775.721-1.05-.844-1.83-1.378-.692-1.102 1.517-1.865 3.183-2.38 4.925-.405-.18-.973-.156-1.37-.355-1.37-.394-2.915-.837-4.124-1.7-1.476-.913-2.606-2.228-3.827-3.431-1.274-1.043-2.716-2.048-4.368-2.327-2.491-.417-5.78.871-7.126 3.064-.645 1.284-1.217 2.602-1.347 4.05-.263 1.681-.336 3.5.359 5.074a40.63 40.63 0 0 0-2.16-.077c-3.887.043-7.37 1.804-8.297 5.838-.306 1.368.034 2.79.453 4.1.45 1.551 1.439 2.854 2.606 3.943 1.236 1.089 2.915 1.547 4.525 1.712.858.103 1.709.091 2.548.015-.019.069-.034.141-.05.218-.724 3.893 1.325 8.768 5.578 9.421 2.03.184 4.22-.03 6.013-1.058 2.335-1.467 4.399-3.335 6.6-4.993 1.625-1.047 3.33-2.132 5.291-2.343a.028.028 0 0 0 .02-.007c.179.435.377.859.61 1.264.729 1.196 1.381 2.449 2.182 3.63.256.332.717.432 1.065.187.698-.546.103-1.161-.237-1.704-.732-1.333-1.534-2.453-2.175-3.874ZM77.434 85.541c.02-.176-.03-.348.05-.508.08-.233.118-.5.084-.745.05-.126.103-.252.16-.374.32-.73.706-1.674 1.469-2.117 1.617-1.12 3.693-1.815 5.604-1.001 2.617 1.089 4.105 3.656 6.451 5.146 1.26.883 2.675 1.44 4.155 1.815.214.053.504.16.817.264-.454.53-.97 1-1.542 1.516-1.442 1.108-3.006 2.14-4.803 2.637-.66.122-1.274.34-1.957.363a.705.705 0 0 0-.156.019l-.996-.103a36.9 36.9 0 0 1-2.327-.37c-2.11-.398-4.754-.803-5.887-2.866-.435-.883-.84-1.8-1.152-2.736-.103-.317-.046-.623.026-.94h.004Zm-1.762 19.646c-2.19.122-4.758.057-6.398-1.601-1.564-1.49-2.377-3.649-2.404-5.792.26-1.998 1.587-3.836 3.506-4.543 2.3-.852 4.796-.592 7.192-.401 3.208.271 6.386.844 9.587 1.18.202.023.4.043.6.062.373.034.743.065 1.117.091a.735.735 0 0 0 .221.016c.244.015.492.038.736.05 1.126.08 2.259-.043 3.377-.165 1.186-.134 2.4-.034 3.567-.294a46.883 46.883 0 0 0 .13 3.885c.022 1.143.084 2.285.236 3.409-1.346-.302-3.77.122-4.479.168-2.247.256-4.44.791-6.623 1.367-.019 0-.038.004-.057.008-.027.008-.05.019-.076.027-1.4.37-2.797.76-4.2 1.108-2.007.5-3.983 1.184-6.04 1.421l.008.004Zm15.817 4.936c-.935.806-1.934 1.517-2.926 2.251-1.114.94-2.312 1.899-3.762 2.231-2.11.462-4.551.562-6.115-1.2-.035-.038-.069-.084-.103-.122-.02-.237-.16-.447-.267-.676-.52-2.617 1.274-5.074 3.387-6.43 1.488-1.021 3.247-1.609 4.994-2.09.157-.012.31-.023.462-.073 3.651-.458 7.126 1.02 10.308 2.72-2.209.619-4.196 1.972-5.974 3.397l-.004-.008Z"/><path fill="#000" d="M104.449 84.811c-.484-.21-.942.142-1.091.6-.259.5-.561.982-.771 1.506-1.259 3.003-1.915 6.212-1.854 9.471-.103 1.544.218 3.057.393 4.581.008.241.05.478.229.653.145.142.34.226.538.226.397 0 .79-.348.763-.764-.046-1.005-.29-1.983-.374-2.984-.221-3.745.298-7.52 1.873-10.962.313-.695 1.328-1.792.29-2.327h.004ZM102.713 105.156a.763.763 0 1 0 0-1.526.763.763 0 0 0 0 1.526ZM126.634 99.681c-.844-.305-1.656-.714-2.56-.798-1.099-.046-2.232-.145-3.319.053-1.519.34-2.766 1.345-3.701 2.556-.961 1.101-1.48 2.484-1.831 3.886-.328 1.448-.073 2.938-.092 4.409.012.417.34.764.763.764a.757.757 0 0 0 .763-.764c0-1.261-.164-2.525-.015-3.782.511-2.48 2.113-5.166 4.788-5.64 1.079.019 2.205-.114 3.25.203.588.229 1.179.447 1.77.672.164.329.515.52.893.417 1.229-.524.221-1.807-.706-1.98l-.003.004ZM116.722 112.932a.765.765 0 0 0 0-1.529.764.764 0 0 0 0 1.529ZM153.889 87.952c-.992.886-2.163 1.582-3.235 2.373-1.439.928-2.984 1.7-4.556 2.368-1.373.413-2.807.516-4.234.509-3.186.023-6.654-.432-9.187-2.53-.37-.332-.79-.607-1.095-1.004-.282-.306-.793-.287-1.08 0-.572.592.096 1.264.565 1.662 2.529 2.384 5.99 3.213 9.37 3.4 2.098.02 4.246.03 6.26-.63 3.03-1.296 5.944-3.023 8.401-5.22.603-.806-.583-1.703-1.209-.936v.008ZM128.969 88.892a.764.764 0 1 0-.002-1.528.764.764 0 0 0 .002 1.528ZM162.133 87.895c.847.874 1.869 1.555 2.793 2.338 2.758 2.051 6.069 3.576 9.564 3.461.641.023 1.282.008 1.915-.068.485.053.954-.276.946-.784-.03-.855-.984-.794-1.598-.683-.447.03-.893.019-1.339.007-2.259.035-4.536-.592-6.436-1.815-1.572-.76-2.904-1.952-4.281-3.064-.301-.24-.519-.585-.866-.756-.519-.23-1.076.236-1.045.764a.725.725 0 0 0 .343.603l.004-.003ZM178.931 93.435c.416 0 .755-.367.747-.78a.773.773 0 0 0-.778-.749c-.416 0-.755.367-.748.78.008.42.363.749.779.749ZM128.999 123.977c.458.287.862.657 1.339.921 3.228 1.998 6.776 3.435 10.453 4.344.977.218 1.332-1.223.367-1.482-1.008-.195-1.95-.596-2.942-.852-2.853-.986-5.661-2.243-8.103-4.031-.443-.363-1.179-.611-1.534.007-.229.402-.026.959.42 1.097v-.004ZM143.878 129.918c.416 0 .755-.366.748-.779a.775.775 0 0 0-.779-.749c-.415 0-.755.367-.747.78.007.42.362.748.778.748ZM96.59 143.306a103.046 103.046 0 0 1-6.5-1.93c-3.987-1.375-7.6-3.687-10.58-6.697-.519-.428-1.19-1.395-1.9-.749-.64.688.145 1.249.656 1.673.63.642 1.305 1.223 1.988 1.808 4.479 4.134 10.42 5.967 16.199 7.423 1.206.161 1.35-1.555.137-1.528ZM77.046 131.527c-1.256-.879-1.916 1.157-.458 1.459.946.256 1.385-1.127.458-1.459ZM92.554 99.338c1 .099 1.163-1.368.18-1.517-2.145-.451-4.331-.07-6.471.313-2.972.325-5.795 1.272-8.664 2.056-.61.114-1.236.137-1.854.129-1.004.031-.977 1.513.019 1.529 2.8.091 5.356-1.276 8.065-1.781 2.895-.344 5.806-1.322 8.729-.726l-.004-.003ZM72.742 99.903a.773.773 0 0 0-.755.772c.004.42.359.756.77.756.412 0 .76-.363.756-.771a.773.773 0 0 0-.77-.757ZM84.737 110.612c.381 1.055 1.59.302 2.262-.019.763-.409 1.606-.615 2.403-.928.908-.424.317-1.781-.61-1.402-1.118.37-2.198.81-3.254 1.325-.5.077-.954.486-.798 1.024h-.003ZM82.127 111.533c.534.883 2.045-.049 1.507-.92-.534-.887-2.049.045-1.507.92ZM86.106 85.556c.927.608 1.652 1.502 2.709 1.919.622.236 1.392-.306 1.091-1.043a.762.762 0 0 0-.679-.455c-.923-.447-1.541-1.303-2.438-1.792-.557-.348-1.3.263-1.102.879.06.225.22.378.415.493h.004ZM83.985 84.391c1.015-.539.176-1.899-.809-1.322-.175.053-.614.37-.469.92.16.57.817.68 1.278.402ZM107.051 47.357c-3.586 1.1-7.05 2.526-10.194 4.616-.614.538-2.274.986-1.717 2.048.218.336.718.473 1.057.229.95-.642 1.892-1.295 2.87-1.891 2.746-1.487 5.649-2.732 8.644-3.622 1.24-.497.42-2.182-.656-1.384l-.004.004ZM92.275 57.008c.416 0 .744-.405.721-.806-.022-.432-.389-.722-.805-.722-.415 0-.743.405-.72.806.022.432.388.722.804.722ZM163.22 3.92c-4.586-.42-9.209.023-13.658 1.223-1.19.252-9.98 2.628-7.836 4.47a.776.776 0 0 0 1.091-.26c.466-.37 1.038-.588 1.568-.856 5.837-2.552 12.395-3.599 18.74-3.056 1.007.046 1.091-1.433.099-1.525l-.004.004ZM166.658 4.677c-.21 0-.401.05-.557.19a.757.757 0 0 0-.252.52c-.027.398.297.81.713.81.21 0 .401-.05.557-.19a.762.762 0 0 0 .252-.52c.027-.398-.298-.81-.713-.81ZM207.555 48.618c-.805-2.789-1.617-5.593-2.789-8.256-.251-.512-.789-1.059-1.373-.661-.336.233-.443.726-.195 1.062.096.137.206.264.271.42 1.061 2.514 1.828 5.127 2.591 7.74.236.983 1.678.673 1.495-.305ZM208.398 52.003c.023-.397-.305-.806-.721-.806s-.778.287-.805.722c-.023.398.305.806.721.806s.779-.286.805-.722ZM33.824 45.936a.824.824 0 0 0 .038-.573c-.206-.84-.572-1.628-.8-2.457-.683-2.636-1.717-5.223-3.083-7.58-1.667-2.483-5.395-7.171-8.332-7.874-1.046-.03-1.084 1.467-.05 1.535 3.113 1.69 5.463 4.711 7.401 7.646 1.55 2.907 2.427 6.086 3.415 9.211.172.642 1.148.692 1.411.096v-.004ZM33.6 49.126c-.417 0-.74.409-.718.806.027.436.393.719.805.719.412 0 .74-.41.717-.807-.027-.435-.393-.718-.805-.718ZM9.645 56.458a.77.77 0 0 0 .71.814c.793.034.857-.76.846-1.368.397-3.16-1.831-5.716-3.289-8.298-.797-1.307-1.392-2.938-1.327-4.52-.046-.512.229-.94-.065-1.444-.248-.337-.702-.451-1.057-.21a.8.8 0 0 0-.34.718c-.705 4.275 2.625 7.47 4.235 11.087.447 1.02.359 2.14.287 3.225v-.004ZM10.03 60.967c.416 0 .74-.41.717-.807-.027-.435-.393-.718-.805-.718-.412 0-.74.409-.717.806.026.436.393.719.805.719ZM20.494 99.246a12.775 12.775 0 0 0-.43-2.629c-.855-2.674-2.912-4.79-5.033-6.545-1.789-1.578-4.22-3.198-4.132-5.864a.771.771 0 0 0-.804-.719c-1.485.146-.332 3.286.21 4.031 2.94 3.947 8.618 6.175 8.667 11.818a.774.774 0 0 0 .805.718.775.775 0 0 0 .717-.81ZM20.601 102.505c-.416 0-.74.409-.717.806.027.436.393.718.805.718.412 0 .74-.408.717-.806-.026-.435-.393-.718-.805-.718ZM8.702 138.679c.092-.405-.198-.818-.599-.898-.95-.149-.992 1.009-1.106 1.677-.21 2.029.297 4.092 1.186 5.907.672 1.441 1.45 2.912 1.473 4.535-.069 1.548-.973 2.889-1.606 4.253-.324.749-1.583 1.86-.519 2.514.526.267.992-.172 1.183-.646.625-.982 1.144-2.025 1.633-3.079 2.956-5.315-3.14-8.903-1.649-14.263h.004ZM7.046 159.059c-.415 0-.74.408-.717.806.027.435.393.718.805.718.412 0 .74-.409.717-.806-.026-.436-.392-.718-.804-.718ZM44.651 110.62c-.438.352-.927.638-1.377.971-1.522 1.172-2.773 2.529-3.907 4.16-.648.99-1.327 1.972-1.785 3.072a.777.777 0 0 0 .351 1.024c.962.409 1.152-.799 1.526-1.395 1.003-1.681 2.041-3.186 3.49-4.577.775-.821 1.73-1.341 2.63-2.044a.757.757 0 0 0 .244-.424c.156-.634-.645-1.18-1.172-.783v-.004ZM36.32 122.323c-.416 0-.74.409-.718.806.027.435.393.718.805.718.412 0 .74-.409.717-.806-.026-.436-.393-.718-.805-.718Z"/></g><defs><clipPath id="a"><path fill="#fff" d="M0 0h254v184H0z"/></clipPath></defs></svg>