<svg xmlns="http://www.w3.org/2000/svg" width="184" height="282" fill="none"><g clip-path="url(#a)"><path fill="#A4D357" d="M78.552 40.876c3.267 1.683 6.18 3.929 9.24 5.857 6.547 4.489 12.887 9.702 17.178 16.468.898 1.346 1.762 2.73 2.412 4.213.053.085.107.177.152.272 2.056-.15 3.065-2.327 3.306-4.182 0-.057.004-.103.008-.145-1.013-1.496-2.11-2.933-3.23-4.332a171.124 171.124 0 0 0-10.176-9.963c-1.812-1.584-3.764-2.983-5.668-4.45-1.257-.936-2.273-2.159-3.554-3.064-1.375-.835-2.923-1.476-3.882-2.84-.979-1.285-1.372-2.971-1.166-4.57a13.773 13.773 0 0 0-1.91-.816c-2.187-.905-7.472-2.553-7.19 1.445.341 3.025 2.164 4.458 4.48 6.103v.004Zm26.223 18.4c.314-.295.78-.257 1.082.03.481.422 1.119.99.516 1.614-.314.296-.78.261-1.082-.03-.481-.422-1.12-.99-.516-1.614Zm-6.65-8.15c.93.702 1.79 1.76 2.626 2.488.902.824 1.865 1.583 2.645 2.534.665.755-.413 1.77-1.112 1.054-.841-1.027-1.919-1.817-2.867-2.737-.775-.69-1.429-1.514-2.258-2.143-.757-.66.172-1.813.963-1.192l.004-.004ZM99.842 238.035c-2.125-3.956-4.158-7.851-6.546-11.627-1.086-1.752-2.355-3.373-3.581-5.029-1.22-1.833-2.69-3.45-4.193-5.045-2.549-3.182-5.53-5.984-8.502-8.759a63.864 63.864 0 0 1-1.514-1.369c-.091.042-.18.088-.263.138-2.121 1.388-1.67 5.348-.314 7.13.47.69 1.028 1.307 1.598 1.905 1.33.959 2.64 1.932 3.657 3.251 1.081 1.2 2.396 2.189 3.317 3.531 1.146 1.675 2.534 3.162 3.672 4.841 1.95 2.584 3.604 5.417 5.03 8.323.699 1.966 1.47 3.917 2.174 5.88.734 2.043 1.64 4.109 3.344 5.528.944.858 1.64.625 2.702.157 1.177-.395 2.075-1.3 2.419-2.492a.985.985 0 0 1 .084-.126 12.531 12.531 0 0 1-.348-.556c-.921-1.84-1.762-3.895-2.736-5.677v-.004Zm-17.105-20.992c-.845-1.016-1.938-1.79-2.92-2.66-.994-.817-1.838-1.791-2.859-2.569-.844-.544-.045-1.824.807-1.303 1.364 1.031 2.5 2.331 3.844 3.389.784.667 1.594 1.311 2.255 2.108.661.748-.447 1.771-1.127 1.035Zm2.8 3.485c-1.08-.349-.622-1.883.452-1.488 1.085.349.619 1.882-.451 1.488Z"/><path fill="#E2FFB4" d="M88.763 232.223c-.848-1.598-1.888-3.074-2.973-4.519-1.38-1.863-2.836-3.673-4.23-5.528-1.457-1.349-2.748-2.86-4.166-4.244a19.279 19.279 0 0 0-.409-.318 1.056 1.056 0 0 0-.157.249c-.81 1.672-.657 3.769.13 5.417.03.084.042.165.046.242.443.475.902.939 1.35 1.41a14.886 14.886 0 0 1 1.635 2.055c.772 1.154 1.838 2.101 2.526 3.308.47 1.096.951 2.181 1.502 3.243.558 1.116.73 2.369 1.177 3.527.206.556.435 1.108.542 1.698.222 1.169.757 2.246 1.074 3.389.524 1.338 1.422 2.492 2.488 3.438 1.17.97 3.073.947 4.261.031.26-.218.485-.544.745-.744-1.25-2.3-1.926-5.052-2.946-7.367-.566-1.906-1.586-3.588-2.591-5.287h-.004Zm-.661 6.95c-.921-1.506-1.208-3.266-1.892-4.872-.31-.659-.34-1.522-1.001-1.943-.76-.645.199-1.81.974-1.181.89.571 1.078 1.625 1.441 2.545.688 1.557.933 3.282 1.835 4.742.447.889-.856 1.591-1.357.705v.004Zm1.754 3.125c-1.196-.112-1.047-1.779.149-1.549 1.2.107 1.043 1.782-.15 1.549ZM72.938 44.916c5.121 2.181 10.334 4.55 14.824 7.893 1.85 1.54 3.81 2.982 5.396 4.807.543.571 1.127 1.093 1.7 1.63 1.17 1.118 2.003 2.521 2.962 3.817a51.858 51.858 0 0 1 1.8 3.416c.061.119.126.237.188.356.301-.142.615-.272.848-.502.47-.425.841-.74 1.215-1.211.207-.418.344-.878.409-1.342a7.897 7.897 0 0 0-.011-1.725v-.084c-4.047-5.428-9.363-9.883-14.939-13.705-2.549-1.556-4.899-3.42-7.478-4.918-2.198-1.093-4.277-2.56-5.851-4.462a.759.759 0 0 1-.134.015c-2.178-.16-3.902.341-3.978 2.833.023.08.034.161.026.238.268 1.518 1.766 2.296 3.027 2.944h-.004Zm10.284 1.825c1.09-.073 1.177 1.53.08 1.537-1.089.077-1.177-1.526-.08-1.537Zm-10.215-5.256c.787-.84 1.57.445 2.247.82.963.729 2.071 1.193 3.157 1.702.688.315 1.322.706 1.96 1.112a.78.78 0 0 1 .252 1.054c-.214.353-.703.476-1.05.253-1.678-1.169-3.715-1.683-5.324-2.963-.562-.495-1.869-1.077-1.238-1.978h-.004ZM43.929 141.218c-.436.51-.791 1.104-.936 1.768-.016.061-.027.122-.046.187.24.652.485 1.304.733 1.952.146-.61.367-1.185.68-1.695.28-.525.59-.82.883-.962a24.923 24.923 0 0 1-.596-1.782c-.263.161-.55.314-.718.532Z"/><path fill="#A4D357" d="M84.192 238.867c-.428-1.3-.901-2.584-1.242-3.914-.378-1.028-.966-1.959-1.38-2.971-.343-1.158-1.169-2.028-1.93-2.925-.729-.874-1.317-1.882-2.07-2.729-.501-.537-1.013-1.062-1.517-1.595a1.912 1.912 0 0 1-.119-.015c-1.104 1.019-1.597 2.484-1.578 3.967-.191 1.476 0 2.871.714 4.163a.823.823 0 0 1 .092.307c.138.234.279.46.443.667 1.965 2.618 2.649 5.911 4.292 8.698 1.341 1.917 4.628 4.355 6.596 2.219a13.175 13.175 0 0 1-1.097-2.02c-.393-1.288-.955-2.526-1.2-3.856l-.004.004Zm-7.322-7.391c-.13-.196-.248-.418-.45-.545a.774.774 0 0 1-.245-1.054c.623-.885 1.597.062 1.953.721.546.847-.665 1.69-1.254.878h-.004Zm1.731 2.637c-.416 0-.749-.387-.737-.793.015-.43.374-.74.791-.74.416 0 .749.387.737.793-.015.43-.374.74-.79.74Z"/><path fill="#E2FFB4" d="M89.317 40.458c.834.582 1.54 1.337 2.286 2.028 2.45 2.077 5.159 3.83 7.513 6.03 4.616 4.347 9.493 8.644 13.001 13.965a.76.76 0 0 1 .202.318c.428.663.841 1.341 1.223 2.04 1.059 1.74 2.003 3.56 2.622 5.508 1.8 1.897 4.139-.982 4.238-2.883.076-.284.107-.648.218-.943-.845-1.92-1.923-3.75-3.012-5.532-1.36-1.836-2.709-3.691-4.161-5.458-3.23-3.611-6.795-6.9-10.104-10.435-1.09-1.204-2.335-2.239-3.49-3.381-2.487-2.634-4.708-5.451-7.272-7.977a6.058 6.058 0 0 1-1.471-1.867c-1.674-.314-3.524-.886-5.148-.061-.898.759-1.38 2.035-1.307 3.2.03 3.209 2.354 3.999 4.659 5.444l.003.004Zm6.237.115c.417 0 .75.39.734.797-.02.43-.378.736-.795.736-.416 0-.749-.391-.734-.797.02-.43.379-.736.795-.736Zm-5.006-5.8c.887 1.518 2.201 2.68 3.432 3.906.68.728-.41 1.771-1.109 1.054-1.38-1.35-2.805-2.68-3.76-4.39-.466-1.023 1.005-1.605 1.437-.574v.004Z"/><path fill="#A4D357" d="M112.155 29.648c5.174 5.991 10.272 12.098 14.472 18.833 2.939 5.21 5.668 10.592 7.62 16.254.963 2.74 1.663 5.593 1.968 8.483.008.119.023.253.039.391 1.249-.56 2.419-1.365 3.321-2.407.389-.51.745-1.055.97-1.656a.887.887 0 0 1 .061-.123 75.33 75.33 0 0 0-.626-4.332c-1.655-8.3-5.236-16.115-9.845-23.146-2.407-3.791-5.017-7.448-7.975-10.833-2.091-2.373-4.72-4.412-6.027-7.364a7.25 7.25 0 0 1-.149-.449c-.252-.168-.5-.36-.745-.452-1.918-1.058-3.004-1.506-5.102-.62-1.28.425-1.02 1.31-.894 2.407.298 1.958 1.823 3.446 2.916 5.017l-.004-.003Zm24.213 31.062c.417 0 .749.39.734.797-.019.43-.378.736-.795.736-.416 0-.749-.391-.734-.797.02-.43.379-.736.795-.736Zm-6.317-13.015c.31-.295.784-.264 1.082.03.722.768 1.089 1.799 1.601 2.707 1.074 2.281 2.113 4.585 3.023 6.939.336.935-1.07 1.472-1.433.533-1.212-3.029-2.415-5.889-3.982-8.714a2.21 2.21 0 0 0-.317-.406c-.295-.295-.268-.805.026-1.085v-.004Z"/><path fill="#E2FFB4" d="M93.425 215.199c-3.206-3.868-6.745-7.452-10.34-10.952-1.717-1.687-3.257-3.553-5.144-5.056-.792-.679-1.579-1.361-2.389-2.005-.363.475-.516 1.108-.6 1.694-.023.2-.038.399-.05.598.027.453.077.905.115 1.338.149 1.488.749 2.691 1.555 3.91l.115.127c.02.03.034.057.05.088.294.36.626.69.886 1.081.016.023.027.046.038.069 3.31 2.998 6.535 6.176 9.333 9.603 1.158 1.192 2.289 2.415 3.233 3.791 3.821 4.884 7.066 10.342 9.856 15.805 1.012 1.844 1.991 3.703 2.87 5.612.932 2.354 2.464 4.914 5.075 5.574 1.07.218 2.147-.012 3.141-.418.321-.276.634-.525.856-.886.107-.203.222-.452.363-.667-1.88-2.714-3.31-6.095-4.716-8.326-4.253-7.31-8.896-14.429-14.25-20.98h.003Zm8.068 18.699c-.849-1.671-1.655-3.415-2.633-5.006-.746-1.257-1.655-2.457-2.266-3.772-.115-.721.833-1.158 1.322-.625.684 1.024 1.276 2.128 1.972 3.151 1.131 1.771 2.021 3.673 2.961 5.543.444.893-.86 1.595-1.356.706v.003Zm2.713 3.757c-.417 0-.749-.387-.738-.793a.776.776 0 0 1 .791-.74c.417 0 .75.387.738.793-.015.43-.374.74-.791.74ZM74.276 218.99c-.451-1.943-.97-3.856-1.739-5.692-1.704-3.991-4.127-7.598-6.06-11.47-2.336-4.063-4.606-8.18-6.742-12.355-1.693-3.04-3.363-6.083-4.861-9.231-2.878-6.221-5.813-12.504-8.411-18.837-1.991-4.412-3.837-8.901-5.228-13.543-1.781-5.85-3.218-11.849-3.623-17.964-.279 8.721 1.318 15.606 4.165 25.086 3.218 11.286 7.391 22.311 12.11 33.04 4.457 10.657 10.724 20.463 15.18 31.12.7 1.648 1.449 3.235 2.156 4.834.221.061.424.214.557.414.276.172.715.214 1.01.207 2.567-.514 1.876-3.73 1.486-5.616v.007Zm-18.71-29.751c-.719-1.587-1.521-3.131-2.232-4.722-.321-.725-.539-1.495-.917-2.197a.773.773 0 0 1 .34-1.027c1.25-.495 1.463 1.667 1.9 2.434.714 1.629 1.535 3.209 2.277 4.83.424.909-.902 1.579-1.365.686l-.003-.004ZM66.132 160.133a.924.924 0 0 1-.375-.449c-.29-.448-.734-.767-1.184-1.035-.65-.249-1.372-.241-2.045-.433-.7-.012-1.154.736-1.242 1.365-.076.356-.252.559-.153.87.02.099.02.188.008.272.05.18.107.356.172.533 1.811 3.592 4.402 6.731 7.33 9.464 4.52 4.493 9.607 8.181 14.87 11.719 5.87 3.96 11.697 7.974 17.143 12.516 6.97 5.605 13.325 12.121 19.386 18.661 3.161 3.412 6.161 6.969 9.21 10.481 2.79 3.373 5.316 6.957 7.869 10.511 1.643 2.388 3.306 4.761 4.769 7.268 1.609 2.649 2.966 5.413 4.51 8.073 1.085 2.055 2.442 3.945 3.34 6.099 1.009 1.913 1.425 4.083 2.124 6.103.986 2.365 2.507 7.517 5.545 7.279 1.162-.364 1.686-1.552 1.659-2.706.019-1.721-.16-3.412-.374-5.106-1.181-6.547-3.524-12.869-6.474-18.814-2.954-6.122-6.848-11.765-11.06-17.059-2.667-3.58-5.679-6.678-8.789-9.829-2.396-2.33-4.739-4.726-7.288-6.892-5.117-4.55-10.475-8.526-16.028-12.466-3.829-2.856-7.734-5.601-11.652-8.33-3.863-2.776-7.753-5.528-11.407-8.576a152.23 152.23 0 0 0-5.778-4.86c-1.796-1.507-3.672-2.918-5.522-4.355-1.678-1.422-3.18-3.04-4.735-4.589-1.024-1.246-2.182-2.403-2.97-3.825a22.313 22.313 0 0 1-.855-1.894l-.004.004Zm81.98 84.633c.416 0 .749.388.737.794-.015.429-.374.74-.791.74-.416 0-.749-.387-.737-.794.015-.429.374-.74.791-.74Zm-10.609-16.391c3.787 4.182 7.009 8.92 9.829 13.804.443.889-.856 1.595-1.357.705-2.724-4.746-5.839-9.242-9.446-13.332-.757-.641.198-1.817.974-1.181v.004ZM104.668 32.415a254.57 254.57 0 0 1 5.224 4.999c2.676 2.998 5.354 5.988 7.793 9.188 1.337 1.764 2.449 3.627 3.749 5.41 2.151 3.706 4.176 7.524 5.85 11.473 1.208 2.856 2.339 5.788 2.782 8.874.031-.023.065-.042.096-.069.99-.778 1.72-1.82 2.327-2.91.44-.732.638-1.571.818-2.391.008-.039.023-.073.034-.112-1.092-3.653-2.663-7.183-4.333-10.584-1.754-3.553-3.547-7.091-5.859-10.32-3.424-4.937-7.173-9.648-11.166-14.13a43.502 43.502 0 0 1-2.954-3.898c-.726-1.03-1.269-2.192-1.349-3.465a6.694 6.694 0 0 1-.05-.383.768.768 0 0 1-.309-.1c-1.732-1.273-6.061-2.699-7.88-1.227-1.392 1.633-.803 4.156.481 5.674 1.414 1.522 3.149 2.672 4.746 3.979v-.008Zm7.491 2.94c.416 0 .749.391.733.798-.019.429-.378.736-.795.736-.416 0-.749-.391-.733-.798.019-.429.378-.736.795-.736Zm-9.971-11.519c1.254-.797 2.022 2.097 2.561 2.864.428.686 1.001 1.25 1.586 1.797 1.215 1.204 2.35 2.488 3.485 3.765.271.318.286.786-.027 1.085-.29.276-.81.287-1.081-.027-1.078-1.208-2.156-2.42-3.287-3.573a9.98 9.98 0 0 1-2.774-3.826c-.26-.674-1.288-1.414-.459-2.081l-.004-.004Z"/><path fill="#A4D357" d="M112.843 228.773c-7.636-9.526-15.6-18.803-24.145-27.508-4.551-4.696-9.309-9.212-14.586-13.087-1.212-.894-2.412-1.794-3.63-2.68-.62 1.077-.513 2.392-.097 3.538.93 1.472 1.778 2.994 2.465 4.6.104.008.218.031.34.077 2.829 1.648 5.293 3.845 7.701 6.053 3.32 3.523 6.875 6.823 10.161 10.385 3.337 3.595 6.34 7.475 9.195 11.461 2.759 4.041 5.431 8.143 7.937 12.348 2.267 3.691 3.876 7.816 6.658 11.167.852.931 1.815 1.817 3.072 2.123 1.647.088 3.634-.18 4.403-1.851a.699.699 0 0 1 .194-.23c-1.157-1.974-2.128-4.064-3.103-6.138-1.865-3.603-4.119-7.015-6.554-10.254l-.011-.004Zm-24.26-24.234a93.87 93.87 0 0 0-7.837-7.28 40.189 40.189 0 0 0-1.685-1.411.778.778 0 0 1-.184-1.146c.642-.721 1.38.165 1.915.567 3.034 2.573 6.041 5.187 8.766 8.089.753.659-.19 1.809-.974 1.181Zm2.978 3.369c-.417 0-.75-.387-.738-.793.016-.43.375-.74.791-.74.417 0 .75.387.738.793-.016.43-.375.74-.791.74ZM94.373 33.393c2.095 2.104 3.952 4.416 5.954 6.6 1.078 1.19 2.331 2.197 3.447 3.343 1.109 1.174 2.175 2.377 3.367 3.47 2.847 2.936 5.855 5.742 8.434 8.924.956 1.269 1.907 2.55 2.882 3.81 1.196 1.61 2.01 3.447 3.023 5.168 1.219 2.41 1.941 5.048 2.438 7.697v.023c.088-.08.172-.16.248-.245.669-.698 1.131-1.572 1.51-2.457.581-1.296.741-2.707.833-4.11 0-.015.004-.027.007-.038-.989-2.454-2.182-4.838-3.332-7.2-1.039-1.84-1.93-3.767-3.05-5.554a146.675 146.675 0 0 1-2.174-3.17c-2.904-4.251-6.355-8.108-9.86-11.864-1.475-1.388-2.919-2.806-4.402-4.187-1.846-1.54-3.99-2.829-5.423-4.795a7.245 7.245 0 0 1-.91-2.02c-1.26-.276-2.575-.35-3.863-.108-.623.13-1.295.445-1.536 1.078-.172.931-.023 1.94.221 2.848.402 1.15 1.392 1.92 2.19 2.79l-.004-.003Zm27.619 26.224c.416 0 .749.39.733.797-.019.43-.378.736-.794.736-.417 0-.749-.39-.734-.797.019-.43.378-.736.795-.736Zm-7.586-11.052c1.024-.115 1.391 1.158 1.937 1.802 1.51 1.928 2.821 3.998 4.162 6.049.455.886-.837 1.599-1.349.72-1.227-1.79-2.312-3.68-3.688-5.362-.443-.571-.806-1.2-1.238-1.779a.75.75 0 0 1-.405-.514c-.088-.398.172-.835.581-.916Z"/><path fill="#E2FFB4" d="M108.746 213.501c-7.739-8.79-16.65-16.491-25.742-23.817-6.554-5.125-13.857-9.281-19.94-15.012-5.076-4.37-8.038-8.307-9.769-14.881-.382-1.591-.412-3.231-.393-4.861a.744.744 0 0 1-.237-.398c-.123-.744-.612-1.342-1.12-1.867-.443-.491-.963-.441-1.456-.338-.566 2.35-.531 4.892.554 7.073.688 1.453 1.67 2.741 2.381 4.182.15.276.367.614.466.94a65.123 65.123 0 0 0 2.545 3.741c2.186 3.308 4.518 6.517 6.814 9.748a.723.723 0 0 1 .398.372c1.803 1.886 4.146 3.136 6.301 4.573 3.18 2.277 6.333 4.6 9.382 7.05 3.722 3.074 7.185 6.432 10.548 9.894 4.811 4.941 9.596 9.967 13.983 15.253 5.186 6.122 10.654 12.075 14.87 18.941 2.915 4.32 4.329 9.534 7.723 13.539 1.211 1.668 2.721 3.105 4.639 3.914 2.354 1.173 2.752-2.25 3.073-3.841.065-.23.103-.475.164-.709-1.517-3.599-3.871-6.739-6.084-9.932-5.896-8.223-12.149-16.196-19.104-23.553l.004-.011Zm12.03 19.93c-.298.276-.814.276-1.081-.046-.921-1.17-1.743-2.419-2.58-3.65-.947-1.338-2.014-2.491-2.923-3.841-.894-1.104-1.64-2.438-2.714-3.369-.168-.123-.294-.273-.34-.483-.168-.629.612-1.2 1.151-.821 1.394 1.093 2.27 2.703 3.363 4.079 1.031 1.487 2.17 2.668 3.129 4.167.639.928 1.273 1.855 1.946 2.76.332.326.424.866.053 1.2l-.004.004Zm1.238 3.212c-1.077-.475-.485-1.986.581-1.453 1.086.483.486 1.982-.581 1.453Z"/><path fill="#A4D357" d="M140.675 242.823c-3.256-5.402-6.997-10.469-10.796-15.487-4.559-5.666-9.431-11.106-14.415-16.396-3.523-3.584-7.035-7.184-10.772-10.542-2.989-2.729-6.046-5.064-9.157-7.586-8.105-6.329-17.185-11.343-24.92-18.147-3.913-3.558-7.83-7.272-10.295-12.029-.784-1.311-.96-2.852-1.128-4.359a.744.744 0 0 1-.344-.479c-.195-1.744-2.522-2.967-4.12-2.331a1.108 1.108 0 0 0-.305.222c0 1.197.1 2.381.32 3.558.643 1.966 1.151 3.994 2.149 5.819 1.715 3.262 4.283 5.915 7.035 8.315 5.797 5.462 12.676 9.545 19.024 14.302 9.443 7.567 18.679 15.46 26.712 24.557 7.078 7.467 13.437 15.575 19.433 23.932 2.377 3.431 4.907 6.8 6.451 10.714 1.494 4.228 3.798 10.764 9.118 10.722.676-.103.967-.87 1.345-1.361.386-.667.772-1.353 1.07-2.07-.642-1.112-1.345-2.193-1.922-3.308-1.536-2.66-2.901-5.413-4.483-8.046Zm-32.452-35.478c-1.395-1.277-2.653-2.692-3.967-4.049-1.949-1.663-3.841-3.427-5.862-4.994-.834-.556-.058-1.821.806-1.304 2.14 1.645 4.131 3.485 6.172 5.252 1.276 1.303 2.476 2.683 3.825 3.91.764.64-.214 1.825-.974 1.181v.004Zm2.663 2.714c-.416 0-.749-.388-.737-.794.015-.429.374-.74.791-.74.416 0 .749.387.737.794-.015.429-.374.74-.791.74ZM26.896 214.294c-2.866-8.433-6.084-16.774-7.926-25.515-1.215-5.002-1.624-10.124-1.88-15.253-.398-6.068-.539-12.255.393-18.274 1.227-9.414 3.921-18.576 7.582-27.316 1.636-3.964 3.203-7.958 5.48-11.608 1.694-2.852 3.578-5.639 5.855-8.046.023-.188.012-.36-.126-.506-3.726 3.105-6.871 6.942-9.508 10.971-2.358 4.014-4.196 8.315-5.973 12.612-1.605 3.615-2.82 7.395-4.02 11.163-1.426 4.113-2.607 8.33-3.738 12.516-1.628 6.432-2.908 13.003-2.992 19.661.05 13.486 4.452 26.393 8.388 39.139 3.367 10.534 7.238 20.904 10.005 31.626a117.229 117.229 0 0 1 2.113 10.266c.444 3.469.578 6.984.604 10.48 0 .134-.004.272-.007.407.042.076.076.16.095.26.558 2.139.906 6.912 3.852 6.804 3.168-.471 3.398-7.226 3.871-9.779.646-5.159.268-10.361-.875-15.421-2.64-11.734-7.284-22.84-11.19-34.179l-.003-.008Zm-13.28-24.913c-.783-2.859-1.647-5.784-1.51-8.782.062-.924.379-1.832.291-2.76-.057-.414.176-.817.6-.901 1.823-.126.474 3.27.604 4.282.069 2.687.787 5.29 1.51 7.858.179.982-1.266 1.288-1.499.299l.004.004Zm1.533 4.746a.806.806 0 0 1-.547-.18.783.783 0 0 1-.267-.533c-.027-.399.294-.813.714-.813.203 0 .39.046.547.18.156.135.252.33.267.533.027.395-.294.813-.714.813ZM48.832 163.153c3.26 7.375 6.424 14.728 10.173 21.858 3.19 5.762 6.217 11.615 9.485 17.331.848 1.671 1.792 3.297 2.713 4.933h.145c.55-.138.937-.613 1.284-1.031.975-1.207.979-2.794.864-4.343a8.438 8.438 0 0 1-.134-1.698l-.015-.28c-.21-1.576-.791-3.097-1.414-4.543a32.415 32.415 0 0 0-2.19-4.462.769.769 0 0 1-.347-.337 8.175 8.175 0 0 1-.379-.855c-.42-.655-.86-1.299-1.318-1.928-5.04-7.782-10.758-15.108-15.78-22.905-1.486-2.595-3.244-5.029-4.62-7.686-1.853-3.442-3.286-7.099-4.727-10.725-.218-.56-.436-1.124-.65-1.691.444 1.564.918 3.12 1.414 4.658 1.514 4.673 3.623 9.196 5.496 13.708v-.004Zm20.422 33.584c.027.395-.294.813-.715.813a.806.806 0 0 1-.546-.18.783.783 0 0 1-.267-.533c-.027-.395.294-.813.714-.813.203 0 .39.046.547.181a.78.78 0 0 1 .267.532Zm-6.267-11.408c.336-.234.837-.149 1.062.2.806 1.291 1.54 2.625 2.293 3.948.764 1.426 1.567 2.84 2.148 4.355.145.391-.092.839-.478.973-.39.138-.825-.08-.97-.479-1.15-2.771-2.73-5.355-4.258-7.931-.225-.349-.149-.828.199-1.066h.004Z"/><path fill="#E2FFB4" d="M40.677 132.003c-.363 1.261-.004 2.607.783 3.676.867-.747 1.861-1.368 2.308-1.518.084-1.242.26-2.472.5-3.695-.324.034-.649.038-.974.073-.52.076-.944.417-1.387.674-.393.253-.879.468-1.23.794v-.004Z"/><path fill="#A4D357" d="M44.227 139.179s.015 0 .019-.008a25.434 25.434 0 0 1-.524-3.097v-.161c-.622.36-1.169.797-1.662 1.315-.015.031-.034.065-.05.096-.324.778-.13 2.576.677 3.005.424-.491.94-.897 1.54-1.15Z"/><path fill="#E2FFB4" d="M42.125 230.659c-2.473-7.977-5.056-15.92-8.002-23.736-3.314-9.384-6.887-18.738-8.755-28.548-.868-5.048-1.063-10.166-1.392-15.264-.152-5.183-.229-10.392.207-15.564.684-6.183 2.155-12.247 3.902-18.212 1.34-4.631 2.961-9.196 5.101-13.521.769-1.284 1.483-2.606 2.3-3.856a.724.724 0 0 1-.007-.203 51.562 51.562 0 0 0-6.244 10.331c-2.098 4.47-3.791 9.12-5.576 13.723-2.33 6.793-3.944 13.874-4.845 20.984-.707 5.448-.562 10.96-.215 16.43.264 5.172.654 10.343 1.896 15.388 1.215 5.596 2.893 10.994 4.792 16.372a2151.785 2151.785 0 0 0 6.952 19.757c3.45 9.638 7.12 19.355 8.346 29.583.29 2.273.29 4.561.141 6.842.05.092.092.2.111.326.47 1.737 1.063 3.573 2.572 4.616 1.3.195 3.088.184 3.997-.901 1.48-2.603 1.193-5.815 1.135-8.71-.516-8.939-3.741-17.384-6.408-25.833l-.008-.004Zm-.921 10.546a57.751 57.751 0 0 0-.952-3.32c-.837-2.963-2.067-5.8-2.927-8.752-.222-.759-.29-1.552-.504-2.3-.061-.732.928-1.096 1.38-.536.232.253.24.628.29.95.084.529.195 1.047.328 1.561.639 2.258 1.586 4.42 2.286 6.658.569 1.802 1.138 3.608 1.605 5.44.164.632-.642 1.169-1.166.79-.18-.115-.279-.292-.332-.495l-.008.004Zm.822 4.462c-.746-.92.603-1.951 1.23-.932.745.917-.6 1.955-1.23.932Z"/><path fill="#E2FFB4" d="M23.972 235.421c-3.168-9.906-6.748-19.677-9.638-29.671-2.075-6.927-4.05-13.904-5.105-21.072-.512-4.508-.936-9.058-.566-13.593.635-8.545 2.874-16.852 5.331-25.021 2.152-6.716 4.311-13.486 7.357-19.845 1.723-4.083 3.699-8.077 6.428-11.585 1.532-2.181 3.427-4.075 5.228-6.034 2.617-2.35 5.338-4.677 8.567-6.118.2-.084.402-.161.604-.234.073-.084.138-.168.191-.268.405-.659.272-1.476-.06-2.14-.23-.214-.532-.344-.796-.509a.852.852 0 0 1-.076-.05c-1.047.353-2.01.913-2.989 1.426-1.907.901-3.657 2.078-5.346 3.339-1.62 1.254-3.443 2.247-4.872 3.738-3.405 3.622-6.157 7.793-8.756 12.021-1.62 2.845-3.026 5.8-4.536 8.702-4.945 9.664-8.744 19.895-10.98 30.533-2.258 9.587-2.865 19.554-2.17 29.372.826 9.414 2.92 18.703 5.786 27.696 2.454 6.747 5.312 13.283 8.174 19.845 1.8 4.198 3.814 8.3 5.347 12.608 1.36 4.363 2.644 8.779 3.03 13.337.241 3.266-.084 6.478-.37 9.729-.111 2.699-.6 5.478.145 8.119.24.472.856.817 1.341.702 1.307-.288 1.712-1.802 2.346-2.814.776-1.211 1.052-2.457 1.357-3.814.294-1.112.493-2.243.5-3.397.138-2.461.26-4.93.112-7.391-.15-9.472-2.916-18.599-5.591-27.604l.007-.007Zm-3.993 3.005c-.36.18-.86.042-1.028-.341-1.158-2.335-2.117-4.754-3.195-7.123-1.04-2.158-1.804-4.42-2.492-6.708-.183-.686-.233-1.411-.462-2.082-.275-.337-.184-.862.172-1.104.932-.556 1.414.686 1.49 1.43.711 3.975 2.637 7.471 4.124 11.174.535 1.266 1.165 2.481 1.73 3.73.17.384.047.836-.34 1.028v-.004Zm1.227 4.588a.805.805 0 0 1-.547-.18.78.78 0 0 1-.267-.533c-.027-.394.294-.812.714-.812.203 0 .39.046.547.18.156.134.252.33.267.533.027.395-.294.812-.715.812Z"/><path fill="#A4D357" d="M45.064 145.918c-.164 1.166.053 2.419.386 3.469.355 1.311 1.39 2.534 2.648 3.048.233-.84.593-2.143 1.185-2.683a.812.812 0 0 1 .122-.211 23.128 23.128 0 0 1-3.497-5.486c-.39.56-.684 1.2-.848 1.867l.004-.004ZM56.093 240.047c-1.468-5.052-3.635-10.013-5.557-14.877-4.276-10.009-8.51-20.011-12.19-30.25-2.064-6.374-3.665-12.884-5.018-19.443-1.907-8.993-2.263-18.212-2.4-27.378-.058-8.92-.145-18.009 2.24-26.676.897-2.818 1.99-5.612 3.358-8.254a40.537 40.537 0 0 0-3.726 7.246c-1.501 3.453-2.587 7.057-3.626 10.672-1.387 4.719-2.396 9.388-3.187 14.218-.673 4.604-.589 9.265-.581 13.904.126 5.865.47 11.737 1.253 17.553 1.56 9.48 4.972 18.48 8.136 27.504 2.886 7.817 5.626 15.683 8.071 23.652 2.794 9.181 6.5 18.316 7.158 27.961.054.019.111.046.16.081.582.555.776 1.41 1.113 2.123.5 1.058 1.05 2.212 2.067 2.856 1.3.821 3.317.755 4.345-.464.302-.356.49-1.004.6-1.395.428-1.625.872-3.281.574-4.972-.753-4.673-1.468-9.522-2.79-14.053v-.008Zm-29.19-76.928c.016-1.522.154-3.052.39-4.554.108-.733.367-1.453.318-2.201-.16-.487-.015-1.089.546-1.2.914-.149 1.013.928.99 1.595-.298 2.02-.695 4.037-.718 6.095.019 1.096.195 2.177.229 3.274-.02 1.974.153 3.734.485 5.627.168.985-1.284 1.288-1.502.299-.57-2.951-.454-5.953-.737-8.932v-.003Zm1.732 13.041a.806.806 0 0 1-.547-.18.785.785 0 0 1-.267-.533c-.027-.395.294-.813.715-.813.202 0 .39.046.546.18.157.134.252.33.268.533.026.395-.295.813-.715.813Z"/><path fill="#E2FFB4" d="M62.016 226.308c-2.278-6.317-5.048-12.424-7.86-18.511-2.699-6.724-5.84-13.11-8.58-19.754-3.898-9.92-6.998-20.152-9.034-30.621-1.43-6.85-2.228-13.815-1.927-20.819.245-7.18.6-14.475 2.82-21.34a.823.823 0 0 1-.137-.211c-3.282 6.601-4.505 14.041-4.689 21.375-.31 6.179-.202 12.332.015 18.504.245 7.387.925 14.758 2.561 21.973 1.983 9.518 4.685 18.841 8.522 27.761 2.163 5.524 4.437 10.998 6.745 16.461 2.553 6.007 5.14 12.029 7.047 18.277.921 3.117 1.536 6.302 2.083 9.503.141.077.26.192.328.349.772 1.541 2.018 3.22 3.711 3.761.76-.016 1.747.034 2.32-.529 2.553-3.286.772-8.924.088-12.651-1.032-4.669-2.373-9.077-4.013-13.531v.003Zm-10.823-10.664c-1.876-4.742-4.906-8.982-6.439-13.865-.31-.951 1.09-1.442 1.449-.495 1.555 4.872 4.59 9.116 6.439 13.865.313.943-1.109 1.446-1.449.495Zm2.034 3.925a.806.806 0 0 1-.547-.18.783.783 0 0 1-.267-.533c-.027-.398.294-.812.714-.812.203 0 .39.046.547.18a.781.781 0 0 1 .267.533c.027.394-.294.812-.715.812ZM78.732 63.124c.512.606 1.12 1.112 1.567 1.771.27.445.508.848.76 1.25.306-.142.661-.234.902-.376 1.464-.563 2.396-2.127 2.415-3.672-.008-.337-.122-.778-.118-1.165-1.311-1.127-2.587-2.3-3.952-3.366-1.123-.72-2.308-1.346-3.477-1.986-3.023-1.414-6.249-2.285-9.306-3.6a16.059 16.059 0 0 1-1.097-.528.75.75 0 0 1-.409.188c-.944.023-2.082.532-2.159 1.594-.034.863.13 1.833.826 2.408.997.755 2.06 1.49 3.233 1.94 1.116.294 2.212.64 3.267 1.11 2.794.94 5.404 2.39 7.548 4.428v.004Zm-1.965-4.914c.417 0 .75.39.738.794-.015.429-.374.74-.791.74-.417 0-.75-.392-.738-.794.016-.43.375-.74.791-.74Zm-9.236-3.308c-.902-.434-.302-1.79.626-1.4 1.502.894 3.272 1.189 4.732 2.151.84.548.065 1.813-.8 1.307-1.413-.9-3.114-1.184-4.558-2.054v-.004Z"/><path fill="#A4D357" d="M71.452 228.758c-1.112-3.32-2.69-6.444-4.078-9.614-2.121-4.876-4.334-9.576-6.925-14.199-1.727-3.37-3.558-6.693-5.17-10.12-1.98-4.075-3.635-8.273-5.457-12.39a255.086 255.086 0 0 1-10.326-29.873c-1.651-5.425-2.89-11.025-3.31-16.676-.118 3.193-.145 6.383.107 9.561.302 4.347 1.17 8.633 1.995 12.903 1.636 8.111 3.906 16.073 6.715 23.847 2.235 6.521 5.315 12.681 8.01 19.01 2.633 6.433 5.759 12.647 8.334 19.102 2.393 5.93 4.498 11.991 5.958 18.22a.829.829 0 0 1 .413.364c.638 1.101 1.873 2.312 3.24 1.952.566-.204 1.22-.499 1.564-1.005.745-1.522.607-3.346.428-4.987-.276-2.081-.883-4.09-1.49-6.095h-.008Zm-5.068-.341c-.516-1.695-1.387-3.423-2.021-4.999-.226-.694-1.135-1.683-.21-2.216a.77.77 0 0 1 1.024.341c.944 2.124 1.922 4.175 2.652 6.375.298.959-1.1 1.442-1.449.495l.004.004ZM70.045 66.467c.165.119.264.26.31.407.898-.273 1.888-.48 2.507-1.197 1.307-1.912-.015-3.99-1.781-5.002-.36-.192-.718-.38-1.074-.575a.769.769 0 0 1-.386-.192h-.004c-.92.334-1.417 1.4-1.666 2.296-.187 1.63.97 3.194 2.09 4.263h.004ZM75.839 53.487c2.308.986 4.631 2.143 6.538 3.8 1.445 1.291 2.981 2.422 4.25 3.86.97.989 1.85 2.066 2.595 3.224.26.46.397.97.6 1.452.474-.103.982-.126 1.421-.314 1.64-.916 2.568-2.821 2.484-4.677-.011-.184-.038-.383-.05-.582-.378-.391-.768-.77-1.188-1.127-2.243-2.454-4.853-4.57-7.582-6.467-1.632-1.02-3.325-1.944-5.002-2.887-2.037-.862-3.936-2.005-6.011-2.771-1.583-.648-3.253-1.361-4.445-2.626a4.027 4.027 0 0 1-.917-1.683c-.008 0-.016 0-.023-.004a11.803 11.803 0 0 0-3.348-.058c-1.49.135-3.19.828-3.741 2.324.577 1.993 2.427 3.166 4.1 4.186 3.13 2.096 6.883 2.91 10.323 4.347l-.004.003Zm13.857 7.077c.164-.372.638-.567 1.008-.387.52.2 1.143.602.853 1.246-.165.371-.642.57-1.01.387-.519-.203-1.142-.602-.851-1.246Zm-7.307-7.019c.497-.36 1.13.008 1.578.284 1.345.85 2.706 1.713 3.868 2.817.512.644 2.086 1.403 1.26 2.335a.775.775 0 0 1-1.08-.03c-1.526-1.592-3.165-2.838-5.05-3.93-.255-.138-.58-.123-.756-.407a.775.775 0 0 1 .176-1.069h.004Z"/><path fill="#A9A9A9" d="M74.292 61.737s-.004 0-.009-.004c0 0 0 .004.005.009l.004-.005Z"/><path fill="#E2FFB4" d="M76.374 238.479c-.157-.41-.337-.805-.532-1.196-.466.184-.714.664-.97 1.074-.54 1.039-.89 2.246-.658 3.412.03.149.02.279-.015.394a4.498 4.498 0 0 0 2.24 1.331c.71.13 1.345-.173 1.979-.449-.061-.1-.122-.195-.18-.299-.726-1.376-1.238-2.848-1.864-4.27v.003Zm-.89 3.884c-.417 0-.75-.387-.738-.794.015-.429.374-.74.79-.74.417 0 .75.388.738.794-.015.429-.374.74-.79.74ZM128.867 12.248c2.992 2.79 5.843 5.6 8.556 8.648 2.346 2.484 4.253 5.328 6.222 8.111 3.871 5.524 6.81 11.746 8.434 18.3.886 3.393 1.677 6.82 2.132 10.297.539 5.214.172 10.466-.21 15.679-.145 1.924-.413 3.845-.86 5.72a.992.992 0 0 1-.092.39c-.034.135-.072.265-.107.4.031.072.058.149.073.24.092.33.191.675.355.982.352.33.822.56 1.25.782.982.43 2.102.004 2.836-.698.313-.291.481-.858.745-1.242.94-2.902 1.337-5.984 1.605-9 .757-5.892-.382-11.819-1.533-17.588-1.119-6.268-2.667-12.562-5.361-18.335-2.205-4.727-4.513-9.453-7.617-13.662-2.892-4.436-6.519-8.346-10.314-12.014-2.098-2.013-4.162-4.045-6.638-5.582-1.192-.805-2.415-1.625-3.841-1.92-3.538-.836-4.543.858-2.384 3.802 1.953 2.527 4.395 4.566 6.752 6.686l-.003.004Zm11.457 5.432c.416 0 .749.39.733.797-.019.43-.378.736-.795.736-.416 0-.749-.391-.733-.797.019-.43.378-.736.795-.736Zm-12.13-10.857c.669-.931 1.647.196 2.239.667 1.949 2.013 4.395 3.477 6.218 5.612.535.621 1.04 1.265 1.517 1.932.573.813-.642 1.706-1.238.898-1.937-3.021-5.075-4.857-7.567-7.353-.481-.51-1.662-.874-1.169-1.756ZM96.43 87.528c-1.625-1.756-2.6-4.03-4.296-5.72-1.984-2.143-5.255-2.626-7.854-1.506a.715.715 0 0 1-.21.172c-.58.476-.852 1.196-1.074 1.894-.4 1.46.153 3.094.979 4.309 1.288 1.51 2.881 2.714 4.597 3.676 2.908 1.648 7.219.406 9.707-1.568-.677-.33-1.319-.724-1.85-1.257Zm-8.576-3.972c-.417 0-.784-.287-.807-.72-.023-.399.302-.81.719-.81.416 0 .783.288.806.722.023.398-.302.808-.718.808Zm3.867 2.58c-.524-.318-.806-.935-1.257-1.35-.283-.306-.214-.82.091-1.08.856-.64 1.445.59 1.953 1.111.768.545.058 1.733-.783 1.323l-.004-.004ZM88.014 104.525c-5.985-1.28-11.793-3.695-18.011-3.549-3.634-.081-7.211 1.498-9.435 4.412-3.1 3.833-4.227 10.821 1.368 12.926 5.258 1.99 11.036.828 16.413 0 3.635-.567 7.41-1.303 11.064-.625-.172-4.374.409-8.771 1.513-13.01-.975.057-1.949 0-2.912-.15v-.004Zm-15.195 10.91c-.416 0-.783-.287-.806-.721-.023-.398.302-.808.718-.808.417 0 .784.287.807.72.023.399-.302.809-.719.809Zm11.763-.97c-1.452.142-2.908.28-4.333.644-.895.203-1.8.326-2.702.483a.77.77 0 0 1-.89-.613.774.774 0 0 1 .61-.893c1.178-.184 2.351-.384 3.513-.66 1.158-.268 2.346-.337 3.52-.467.408-.088.817.211.89.613.08.418-.207.805-.612.893h.004Z"/><path fill="#A9A9A9" d="m83.746 119.107.035.012v-.015h-.035v.003Z"/><path fill="#E2FFB4" d="M82.201 139.183c-.053.993-.007 1.989.215 2.959a.47.47 0 0 1 .06.111c.085.085.169.169.264.242 1.204.69 2.664 1.368 4.047.832 3.214-.729 4.269-4.16 5.618-6.751.271-.422.948-1.514 1.655-2.189a2.262 2.262 0 0 1-.356-.49c-.317-.368-.722-.629-1.15-.848-5.03-3.392-9.565 1.047-10.349 6.13l-.004.004Zm7.311-4.202c.436-.417.963-1.196 1.632-.747.638.468.237 1.196-.287 1.556-.577.499-.948 1.572-1.803 1.051-.788-.61.003-1.342.458-1.863v.003Zm-2.182 2.783c.416 0 .783.288.806.721.023.399-.302.809-.718.809-.417 0-.784-.288-.806-.721-.023-.398.301-.809.718-.809Z"/><path fill="#A4D357" d="M127.475 22.962c1.674 1.675 3.191 3.504 4.747 5.286 3.156 3.676 6.038 7.61 8.357 11.872 2.033 3.45 3.765 7.07 4.831 10.945 2.071 6.451 3.466 13.317 2.709 20.106v-.004c0-.02.004-.038.008-.058a60.622 60.622 0 0 1-1.181 7.441c-.099.315-.149.648-.199.981.562.556 1.246 1.438 3.474.552.57-.283 1.028-.74 1.391-1.26.359-1.496.589-3.03.753-4.505.447-5.639.906-11.34.26-16.982-1.487-9.852-4.525-19.65-10.46-27.754-3.733-5.677-8.422-10.645-13.348-15.28a64.277 64.277 0 0 0-1.823-1.67.76.76 0 0 1-.314-.116 8.144 8.144 0 0 0-1.471-.567c-2.033-.87-4.716-.326-4.67 2.327.371 3.726 4.536 6.187 6.929 8.686h.007Zm21.642 35.65c-.749-.755.39-1.836 1.108-1.053.68.732-.413 1.77-1.108 1.054ZM146.3 45.484c.424-.977 1.418-.51 1.678.334 1.108 2.767 1.678 5.715 2.193 8.64.188.99-1.257 1.315-1.494.338-.497-2.837-1.051-5.693-2.105-8.38-.161-.295-.406-.56-.276-.932h.004Z"/><path fill="#fff" d="M177.87 100.105c-2.22-1.916-5.193-3.082-8.113-3.04a.778.778 0 0 1-.791-.272c-1.078-.061-2.148.192-3.157.548-1.33.365-2.644.779-3.867 1.342-2.511 1.166-4.38 3.343-5.748 5.689-2.728 5.003-3.233 11.504.184 16.303 2.816 4.194 7.264 5.785 12.171 5.521 1.517-.085 2.931-.614 4.28-1.289 1.055-.498 2.144-.927 3.107-1.59 1.246-.924 2.32-2.063 3.371-3.197 3.008-3.7 3.997-9.124 2.419-13.632-.845-2.342-1.972-4.704-3.856-6.383Zm-12.313 7.357c-.019.023-.042.042-.057.061l.057-.061Zm3.6 12.297h-.138c-6.599-.759-7.792-4.381-5.365-10.174.057-.157.118-.314.187-.475.138.429.348.863.722 1.135.398.291.791.494 1.277.59.183.035.378.054.573.054.317 0 .638-.05.921-.173.248-.107.485-.207.707-.364.229-.161.417-.356.596-.567.635-.736.803-1.821.466-2.726a2.78 2.78 0 0 0-1.792-1.69 2.53 2.53 0 0 0-.481-.096c1.287-.974 2.805-1.518 4.329-1.15 2.022-.111 3.512 1.583 4.628 3.059 4.047 6.298.845 12.573-6.634 12.573l.004.004Z"/><path fill="#A9A9A9" d="M103.321 154.575s-.009-.009-.013-.009l.009.009h.004Z"/><path fill="#E2FFB4" d="M170.452 131.156c-.477-.56-.959-1.139-1.574-1.553-1.85-1.215-3.997-1.598-6.057-2.265-.413-.142-.845-.273-1.189-.549-.026-.023-.046-.046-.068-.069-3.555-1.391-6.325-4.178-8.01-7.981-1.972-4.972-1.174-10.756 1.444-15.341 1.754-3.028 4.38-5.585 7.731-6.693.099-.088.21-.165.321-.23.447-.395.78-.893 1.066-1.41 1.231-2.542 1.678-5.551.623-8.208-.516-1.066-1.628-1.668-2.621-2.174-.211-.103-.428-.187-.639-.295a.988.988 0 0 1-.168-.13 19.098 19.098 0 0 0-2.981-.445c-5.571-.433-8.667 2.212-11.988 5.858-.294.655-.695 1.288-1.31 1.376-.692.345-1.506-.571-.872-1.23.291-.257.554-.537.807-.829 1.979-3.883-.811-8.579-4.151-10.787a2.813 2.813 0 0 0-.237-.145c-.29-.146-.584-.288-.871-.426-2.832-1.487-6.061-2.166-9.16-2.733-7.066-.702-14.484 1.755-20.384 5.55-4.965 3.435-9.126 7.959-12.58 12.892-3.513 5.202-5.565 11.316-6.268 17.542-.826 5.148-.41 10.523 1.02 15.525 1.296 3.933 3.455 7.675 6.523 10.477 3.616 3.032 7.938 5.286 12.585 6.045 2.297.349 4.655.472 6.967.464 2.808-.341 5.736-.755 8.499-1.257 1.349-.25 2.602-.79 3.859-1.323a.77.77 0 0 1 1.002.41.78.78 0 0 1-.409 1.005c-2.966 1.445-6.256 1.801-9.485 2.257-1.628.188-3.245.568-4.892.445l-.5-.023a.651.651 0 0 1-.318.054c-.642-.046-1.284.103-1.926.065-1.647.019-3.313.031-4.922.425-1.513.265-2.82.89-4.077 1.718-.822.594-1.755 1.039-2.42 1.817-1.1 1.119-.951 2.775-.359 4.109.145.564.44 1.085.86 1.491 3.91 1.86 8.071 3.175 12.382 3.642 9.175 1.327 18.382-.874 26.812-4.397 3.439-1.479 6.581-3.197 9.825-4.964 2.683-1.349 5.331-2.963 8.419-2.994 2.186-.268 4.815-.257 6.451-1.928a.828.828 0 0 0 .103-.633.746.746 0 0 1-.13-.195c-1.873-3.143-5.69-4.543-9.191-4.236a3.18 3.18 0 0 0-1.207.295c-.321.15-.639.295-.96.441-2.182 1.008-4.585 1.553-6.993 1.487-5.492-.187-10.597-4.105-12.401-9.273-.256-.92-.504-1.84-.772-2.752a.773.773 0 0 1 .547-.935.77.77 0 0 1 .932.548c.42 1.338.661 2.737 1.284 3.998 1.548 2.818 4.024 5.164 7.085 6.233 3.654 1.33 7.181.437 10.529-1.058a.78.78 0 0 1 .198-.115c.081-.034.161-.057.241-.084.367-.169.73-.345 1.093-.525 2.274-1.108 4.781-1.538 7.295-1.35 2.117.184 4.189 1.139 6.34.629 1.3-.238 3.065-1.108 2.947-2.649a3.845 3.845 0 0 1-1.269-.567c-.925-.51-1.735-1.25-2.427-2.032l-.004-.015Zm-75.468-13.413c-.416 0-.783-.284-.81-.721-.023-.399.302-.813.719-.813.416 0 .783.284.81.721.023.399-.302.813-.719.813Zm5.786-21.506c-2.216 3.73-3.92 7.851-4.693 12.137-.13 1.269-.149 2.549-.359 3.81-.053.418-.397.74-.821.706-.398-.031-.76-.411-.704-.825.104-.766.2-1.529.241-2.303.214-3.815 1.61-7.483 3.214-10.91.73-1.319 1.204-2.822 2.251-3.933.986-.832 1.899.563.871 1.315v.003Zm14.022 59.863a.776.776 0 0 1-.78-.752c-.008-.41.336-.782.749-.782s.772.33.78.752c.007.41-.337.782-.749.782Zm16.268-.759c-1.303.203-2.599.421-3.894.659-2.672.468-5.385.859-8.102.698-.741-.15-2.159.107-2.109-1.009a.765.765 0 0 1 .844-.67c3.145.46 6.329-.035 9.432-.591 1.192-.226 2.396-.418 3.596-.602a.77.77 0 0 1 .871.641.771.771 0 0 1-.638.874Zm11.235-29.012a.774.774 0 0 1-.852-.67c.008-1.706-1.353-2.806-2.721-3.569-1.892-.813-4.047-.564-6.03-.295-1.495.226-2.595 1.307-3.539 2.399-.485 1.254-.375 2.73-.122 4.033.229.974-1.208 1.357-1.479.387-.333-1.721-.585-4.312.672-5.696 1.239-1.373 2.763-2.557 4.67-2.703 3.528-.54 7.116-.234 9.359 2.898.417.706 1.326 3.021.042 3.216Zm7.257-11.277c-.848-.618.1-1.86.929-1.219.787.624-.115 1.805-.929 1.219Zm1.422-3.297c-.038.414-.447.721-.848.671-.619-.073-.742-.709-.642-1.231.026-1.104.103-2.208.424-3.273.535-2.496 1.456-4.915 2.832-7.069.374-.602.848-1.135 1.226-1.737a.782.782 0 0 1 1.032-.498c.39.16.566.61.417 1-.715 1.273-1.735 2.369-2.328 3.726-.928 1.829-1.46 3.815-1.899 5.808-.164.943-.13 1.698-.206 2.599l-.008.004ZM94.293 94.72c-2.412-.59-4.708-1.645-6.875-2.845-3.264-2.108-8.748-7.115-12.776-6.08-1.998.568-3.164 2.323-4.356 3.891-.222.368-.424.752-.608 1.147a.802.802 0 0 1-.11.414c-.035.69.084 1.391.27 2.054.933 3.416 5.844 5.953 9.039 6.843 4.108 1.414 8.583-.127 11.969-2.588 1.162-.759 2.155-1.736 3.206-2.637a4.24 4.24 0 0 1 .24-.203v.004ZM75.33 90.683c-.416 0-.783-.288-.806-.72-.023-.4.302-.81.719-.81.416 0 .783.288.806.721.023.399-.302.81-.719.81Zm10.448 2.844c-.496.418-1.173.142-1.685-.069a23.156 23.156 0 0 1-2.648-1.337c-.822-.51-1.62-1.127-2.618-1.22-.447-.015-.848-.356-.81-.831.214-1.327 2.098-.449 2.85-.104 1.369.817 2.714 1.714 4.235 2.235a.774.774 0 0 1 .768.25.779.779 0 0 1-.092 1.08v-.004ZM117.513 22.985c.726 2.208 2.939 3.987 4.414 5.654 3.282 3.385 6.045 7.23 8.64 11.163 5.813 8.69 10.353 18.523 11.496 29.011.298 2.308.435 4.643.347 6.97-.026.23-.026.51-.042.797.642-.13 1.277-.3 1.812-.717.795-.495 1.505-1.12 1.952-1.936a.846.846 0 0 1 .146-.176c.328-2.216.542-4.447.523-6.682-.095-6.904-2.002-13.65-4.402-20.064-3.428-7.79-8.423-14.762-14.167-21-1.555-1.9-3.535-3.441-5.315-5.143-1.028-.43-2.026-.997-3.184-1.02-.783.096-1.651.322-2.232.882-.217.337-.206.759-.221 1.146.015.199.046.395.088.586.122.161.179.334.141.53h.004Zm16.234 14.479c.737-.644 1.299.291 1.746.801.673.74-.42 1.779-1.108 1.054-.413-.513-1.295-1.188-.634-1.855h-.004Zm-11.732-15.046c1.074.437 1.845 1.364 2.675 2.123 2.132 1.764 3.691 4.118 5.514 6.119a27.333 27.333 0 0 1 2.419 3.204c.226.35.176.817-.172 1.07-.324.234-.84.176-1.066-.173-1.12-1.82-2.679-3.415-3.993-5.056-.948-1.138-1.846-2.346-2.943-3.304-1.024-.847-1.85-2.009-3.065-2.588-.902-.421-.302-1.782.627-1.395h.004ZM81.95 120.212c-2.645-.334-5.34.387-7.785 1.341-2.717 1.028-5.037 3.132-6.416 5.685-.283.637-.501 1.231-.677 1.875a.785.785 0 0 1-.046.398c.176 2.243.872 4.371 2.312 5.889 1.388 1.893 4.082 2.583 6.218 1.633 1.567-.851 3.222-1.603 4.57-2.787 1.457-1.008 2.962-1.925 4.27-3.136 1.776-1.254 3.656-2.3 5.766-2.837-.524-.797-.83-1.763-1.357-2.553-1.597-2.514-3.775-5.014-6.856-5.516v.008Zm-10.88 14.045c-.417 0-.784-.287-.807-.72-.023-.399.302-.809.719-.809.416 0 .783.287.806.72.023.399-.302.809-.718.809Zm7.715-1.874c-1.44 1.092-2.912 2.568-4.846 2.511-1.004.038-1.08-1.469-.083-1.53.86.058 1.628-.41 2.315-.878.837-.667 1.709-1.299 2.523-1.997.26-.383.745-.598 1.157-.311.971.825-.431 1.718-1.066 2.205Z"/><path fill="#A4D357" d="M106.656 143.269s.015-.011.019-.019a30.538 30.538 0 0 1-7.83-4.42 21.78 21.78 0 0 1-3.501-3.504 9.071 9.071 0 0 0-1.063 1.17c-1.207 1.591-1.609 3.626-2.847 5.198-1.402 2.127-3.947 3.649-6.538 3.312-3.417-.817-4.422-2.189-5.511-5.432-.107-.46-.398-1.599-.478-2.614-.237.13-.474.26-.718.383-1.395.82-2.87 1.667-4.536 1.648h.011-.103.092c-1.644.039-3.321-.513-4.56-1.606-1.127-1.1-2.178-2.388-2.79-3.853-.974-2.744-1-5.696-.58-8.556.122-.674.558-2.744 1.253-4.09-4.33-.195-9.27-1.729-10.322-6.421-1.173-5.957 2.928-12.282 8.534-14.26.898-.31 1.815-.51 2.744-.629-.726-1.2-.814-2.591-.856-3.967-.172-1.641.302-3.228.932-4.723.375-1.223 1.112-2.27 1.926-3.24 1.135-1.694 2.832-3.062 4.861-3.46 1.445-.2 2.893.083 4.319.635-.092-1.958 1.303-3.637 2.701-4.853 2.886-2.18 7.208-2.51 10.154-.276 1.315.928 2.343 2.174 3.199 3.52 1.005 1.341 1.739 3.032 3.23 3.906.47.257.95.483 1.352.651.05.012.1.031.149.05a62.226 62.226 0 0 1 2.496-2.748c3.362-3.481 7.226-6.529 11.644-8.541a52.365 52.365 0 0 1 4.379-1.668c-.611-.647-1.177-1.345-1.899-1.874-.864-.564-1.907-.748-2.855-1.123-2.522-1.093-5.224-1.676-7.929-2.086-3.948-.686-7.915-1.345-11.924-1.449-1.777-.138-3.554-.345-5.342-.306-3.784.015-7.563-.108-11.35-.062-2.675-.111-5.308.345-7.926.824-1.69.276-3.24.997-4.827 1.603-2.338.832-4.746 1.483-7.008 2.526-4.242 2.085-8.297 5.087-11.049 8.959-1.99 3.174-2.59 6.861-2.568 10.538.314 2.86.776 5.73 1.514 8.514.848 2.813 1.803 5.604 2.182 8.533.825 4.6.844 9.288.053 13.896-.267 2.054-1.035 4.136-1.483 6.118-.424 2.139-.787 4.305-.764 6.494.444 4.358 2.21 8.537 4.808 12.033 2.209 2.656 5.094 4.527 8.067 6.21a47.923 47.923 0 0 0 8.625 2.729c11.518 1.729 23.835-2.005 33.359-8.456 1.685-1.12 3.294-2.396 4.83-3.696.604-.49 1.166-.981 1.72-1.518h.004ZM53.261 81.536c-.417 0-.784-.287-.806-.72-.023-.4.301-.81.718-.81.416 0 .783.288.806.721.023.4-.302.81-.718.81Zm1.64 68.078a.776.776 0 0 1-.78-.752c-.008-.41.336-.782.749-.782.412 0 .772.33.78.752.007.41-.337.782-.75.782Zm1.398-72.551c.615-.491 1.25-.951 1.922-1.357a21.345 21.345 0 0 1 7.609-3.255c.92-.445 1.605.913.684 1.373-.539.226-1.12.295-1.685.425-1.9.633-3.807 1.384-5.454 2.534-.458.303-.932.579-1.383.9-.508.376-1.196 1.124-1.785.453-.263-.31-.237-.82.092-1.081v.008Zm16.234 77.745c-4.028-.142-8.106-.422-11.916-1.867-.833-.318-1.624-.725-2.434-1.096-.382-.154-.592-.606-.432-.993.512-1.066 1.678-.023 2.385.226 1.892.885 3.79 1.276 5.805 1.664 1.574.306 3.175.402 4.78.425.94-.011 1.907.219 2.805.069a.776.776 0 0 1 .876.64c.103 1.024-1.166.97-1.87.936v-.004Z"/><path fill="#000" d="M172.99 95.927v-.02c.198-2.234-1.147-4.063-2.007-6.014-.324-.958-.997-1.717-1.681-2.438-.466-.552-.887-1.154-1.418-1.644-2.511-2.093-5.702-3.24-8.954-3.504.145-.372.252-.763.401-1.123 1.514-3.872 1.778-8.027 2.175-12.164.397-6.003-.967-11.952-2.068-17.817-1.15-6.1-2.843-12.16-5.533-17.768-2.893-6.363-6.489-12.409-10.88-17.848-3.069-3.57-6.248-6.862-9.764-10.028-1.2-1.17-2.541-2.159-3.944-3.063-1.414-.993-2.912-1.929-4.628-2.266-3.963-1.023-6.703 1.503-4.421 5.31 1.089 1.71 2.461 3.173 3.928 4.557a6.152 6.152 0 0 0-.523-.072c-3.952-.269-5.756 3.626-3.963 6.88.29.533.623 1.032.978 1.507-1.341-.245-2.767.115-3.887.885-.687.506-.989 1.277-1.054 2.097-1.2-.61-2.484-1.318-3.864-1.192-1.12.188-2.274.445-3.229 1.093-.474.283-.753.693-.906 1.165-.684-.433-1.372-.847-2.155-1.077-2.354-.667-5.557-1.557-7.437.537-.76.95-1.07 2.1-1.043 3.265-2.454-.444-6.092-.356-6.71 2.504a7.578 7.578 0 0 0 .102 2.51c-2.17-.486-4.838-.716-6.263 1.212a5.555 5.555 0 0 0-.688 1.242c-2.04-.947-4.2-1.817-6.466-1.936-4.597-.276-5.278 3.373-3.921 6.632-.233.011-.462.03-.646.034-1.334.096-2.782.564-3.458 1.81a4.566 4.566 0 0 0-.662 1.94c-1.983-.238-4.062-.165-5.915.624-1.166.656-2.645 1.883-2.595 3.343.283 1.453 1.292 2.726 2.37 3.695.752.54 1.513 1.078 2.296 1.58-2.515.855-2.881 4.044-1.288 6.022 1.303 1.246 2.924 2.277 4.663 2.79-.673.68-1.189 1.653-1.384 2.35-.608 2.124.688 4.29 2.186 5.793-1.12.226-2.224.514-3.275.981-3.669 1.518-7.67 2.335-11.09 4.462-2.45 1.369-4.64 3.182-6.68 5.099a17.033 17.033 0 0 0-4.552 7.302c-.607 1.856-.753 3.822-.902 5.758-.168 1.886.253 3.738.554 5.59.031.268.073.536.115.804-.042.027-.088.046-.126.08-1.678.235-3.225.944-4.689 1.776-3.348 1.564-6.206 3.936-9.233 6.018-2.61 2.101-4.658 4.819-6.565 7.556-2.34 3.12-4.372 6.597-6.195 10.062-3.527 6.954-7.009 13.942-9.588 21.322-1.487 4.32-2.702 8.728-3.715 13.187C1.67 161.996.75 166.738.405 171.533c-.703 8.23-.54 16.518.745 24.68 1.464 7.785 3.114 15.594 5.93 23.015 2.294 5.885 4.77 11.688 7.315 17.477 1.884 4.377 3.998 8.663 5.526 13.183 1.51 5.006 2.882 10.243 2.782 15.544-.18 2.829-.489 5.654-.622 8.491-.15 1.526-.188 3.052.011 4.577.046 1.618.822 3.228 2.568 3.477 2.026.295 3.283-1.591 4.047-3.205 1.303-2.158 1.88-4.573 2.155-7.045.665 1.809 1.743 3.312 3.826 3.484 3.86.042 4.689-4.531 5.281-7.548.142-.966.275-1.936.394-2.909.623 1.318 1.502 2.472 2.92 2.905 1.639.158 3.553.112 4.86-1.019.44-.422.792-.916 1.025-1.484.749-1.886.947-3.941.955-5.968.084.172.168.348.26.521.818 1.602 2.194 2.971 4.032 3.235 2.476.41 4.887-.924 5.358-3.469.576-2.005.978-4.102.527-6.176-.05-.291-.096-.586-.145-.877.44.479.936.908 1.475 1.284.592.51 1.31.843 2.102.862 6.301.292 5.216-8.084 4.356-12.255-.05-.268-.103-.533-.156-.801.619.49 1.39.805 2.162.912.83-.011 1.521-.157 2.09-.414.215.36.448.709.723 1.024a5.982 5.982 0 0 0 3.107 1.943c1.028.242 2.064-.061 2.977-.521.126-.031.248-.077.363-.138 1.139 1.28 2.633 2.273 4.273 2.683 1.2.326 2.587.019 3.535-.786.076-.08.168-.164.26-.256.928 1 2.082 1.74 3.466 1.859 1.303.092 2.655-.196 3.672-1.051.168-.153.382-.345.562-.559.734 1 1.635 1.859 2.828 2.461.928.429 1.93.096 2.812-.284 1.38-.456 2.622-1.411 3.211-2.745 1.345 1.476 3.114 2.542 5.174 2.458.776.015 1.517-.299 2.266-.483.619-.184 1.07-.675 1.521-1.116.126-.18.302-.41.466-.655 1.265 1.502 2.733 2.625 4.498 2.947 1.708.02 3.749-.134 4.915-1.548.179-.161.39-.387.565-.64a23.96 23.96 0 0 0 2.098 2.756 11.691 11.691 0 0 0 4.804 3.668c2.694 1.127 4.081-1.077 4.639-3.342 1.667 4.366 4.265 9.138 9.264 9.457 1.494.21 2.503-1.009 3.168-2.185.199-.361.409-.721.604-1.085.084.18.164.356.24.54 1.124 2.051 1.514 4.37 2.32 6.54 1.235 2.99 2.419 7.096 5.958 8 2.587.491 4.307-2.192 4.112-4.538-.034-4.727-1.162-9.354-2.694-13.801-3.592-11.331-10.189-21.413-17.694-30.517-5.503-6.337-11.568-12.191-18.034-17.53-3.634-3.117-7.563-5.85-11.43-8.656-5.675-4.286-11.61-8.208-17.32-12.447-4.455-3.105-8.441-6.793-12.668-10.186-1.762-1.476-3.604-2.844-5.407-4.262-1.846-1.775-3.696-3.435-5.32-5.444-1.288-1.338-2.148-2.955-2.767-4.7a1.342 1.342 0 0 1-.103-.31 21.66 21.66 0 0 0 2.278.238c8.652.67 17.357-1.584 25.145-5.271.635-.338 1.262-.683 1.888-1.032.21.169.455.296.688.434.83.44 1.582 1 2.404 1.453 6.409 3.691 13.727 5.669 21.114 5.776 8.266.119 16.406-2.238 23.931-5.566 3.84-1.763 7.379-3.864 11.178-5.75 3.573-2.185 8.285-.816 11.808-3.155 2.19-1.571 1.208-3.404-.233-5.06-.577-.747-.462-1.759-.436-2.649.023-.08.035-.164.039-.249 1.016.2 2.037.387 3.084.368 1.597-.061 3.324-.494 4.494-1.652.928-.87 1.551-2.357.883-3.553-.184-.273-.448-.434-.734-.556a1.162 1.162 0 0 0-.153-.089 3.217 3.217 0 0 1-.703-.264l-.138-.069c-1.055-.813-1.662-2.269-1.544-3.611a2.348 2.348 0 0 0-.275-1.277 13.184 13.184 0 0 0 1.724-.77c2.346-.889 4.364-2.365 6.034-4.236 2.358-2.258 3.672-5.436 4.177-8.629.779-4.819-.94-9.81-4.013-13.52-1.815-1.97-4.23-3.282-6.81-3.926l.012-.019ZM122.113 5.559c-2.159-2.945-1.154-4.639 2.385-3.803 1.429.295 2.652 1.115 3.841 1.92 2.476 1.538 4.54 3.57 6.638 5.582 3.795 3.668 7.421 7.578 10.314 12.014 3.103 4.209 5.411 8.935 7.616 13.662 2.691 5.773 4.242 12.067 5.362 18.335 1.15 5.77 2.285 11.696 1.533 17.588-.268 3.017-.665 6.099-1.606 9-.263.384-.431.951-.745 1.243-.733.701-1.853 1.123-2.835.697-.428-.226-.898-.452-1.25-.782-.164-.303-.26-.651-.355-.981a1.067 1.067 0 0 0-.073-.242c.034-.134.076-.264.107-.398.057-.135.088-.269.092-.391.447-1.875.714-3.796.86-5.72.386-5.213.749-10.461.21-15.678-.455-3.477-1.246-6.904-2.133-10.297-1.624-6.555-4.563-12.777-8.434-18.3-1.968-2.784-3.875-5.632-6.221-8.112-2.71-3.051-5.564-5.857-8.557-8.648-2.358-2.124-4.8-4.163-6.752-6.686l.003-.003Zm-1.566 8.713c-.046-2.649 2.636-3.193 4.67-2.327a8.173 8.173 0 0 1 1.471.567c.095.066.202.1.313.115a84.29 84.29 0 0 1 1.823 1.672c4.926 4.63 9.615 9.602 13.349 15.28 5.938 8.103 8.973 17.902 10.459 27.753.646 5.643.184 11.34-.26 16.982-.164 1.476-.393 3.01-.752 4.505-.363.52-.818.977-1.391 1.26-2.228.886-2.916 0-3.474-.551.049-.334.099-.667.198-.982a61.006 61.006 0 0 0 1.174-7.383v.004c.753-6.789-.639-13.658-2.71-20.106-1.066-3.876-2.797-7.494-4.83-10.944-2.324-4.263-5.205-8.196-8.358-11.872-1.555-1.787-3.072-3.611-4.746-5.287-2.396-2.499-6.558-4.964-6.929-8.686h-.007Zm-3.042 6.452c.581-.56 1.448-.786 2.231-.882 1.158.019 2.156.586 3.184 1.02 1.781 1.702 3.76 3.243 5.316 5.144 5.743 6.237 10.742 13.21 14.166 21 2.4 6.413 4.307 13.16 4.402 20.063.02 2.235-.191 4.466-.523 6.682a.952.952 0 0 0-.145.176c-.447.817-1.158 1.441-1.953 1.936-.539.418-1.17.587-1.812.717.016-.284.016-.567.042-.797.085-2.327-.053-4.662-.347-6.97-1.143-10.492-5.683-20.32-11.495-29.01-2.595-3.93-5.358-7.775-8.641-11.164-1.475-1.667-3.688-3.446-4.414-5.654a.67.67 0 0 0-.141-.529 4.217 4.217 0 0 1-.088-.586c.015-.387 0-.81.221-1.146h-.003Zm-7.372 1.498c2.098-.885 3.183-.433 5.102.621.244.092.493.284.745.453.046.153.095.306.149.448 1.307 2.952 3.94 4.991 6.026 7.364 2.958 3.385 5.568 7.042 7.976 10.833 4.609 7.03 8.186 14.847 9.844 23.146.249 1.438.463 2.883.627 4.332-.023.038-.042.08-.061.123-.226.602-.581 1.146-.971 1.656-.898 1.043-2.067 1.848-3.321 2.407-.015-.138-.03-.272-.038-.39-.306-2.891-1.005-5.743-1.968-8.484-1.953-5.662-4.681-11.044-7.62-16.254-4.2-6.735-9.294-12.842-14.472-18.833-1.093-1.568-2.618-3.06-2.916-5.018-.126-1.093-.386-1.982.894-2.408l.004.004Zm-10.689.545c1.819-1.476 6.153-.046 7.88 1.226a.758.758 0 0 0 .31.1c.011.13.03.257.049.383.08 1.273.623 2.438 1.349 3.466.914 1.35 1.888 2.664 2.954 3.898 3.994 4.482 7.743 9.197 11.167 14.13 2.312 3.228 4.108 6.766 5.858 10.32 1.67 3.4 3.241 6.93 4.334 10.584-.012.034-.027.069-.034.11-.18.821-.375 1.657-.818 2.393-.608 1.093-1.338 2.131-2.328 2.91-.03.022-.065.045-.095.069-.443-3.086-1.575-6.019-2.782-8.875-1.678-3.948-3.703-7.766-5.851-11.473-1.299-1.779-2.411-3.646-3.749-5.41-2.438-3.2-5.113-6.19-7.792-9.188a259.664 259.664 0 0 0-5.224-4.998c-1.594-1.308-3.333-2.458-4.746-3.98-1.285-1.518-1.873-4.04-.482-5.673v.008Zm-7.479 4.987c.237-.633.914-.947 1.536-1.077 1.288-.242 2.607-.169 3.864.107.199.72.512 1.41.91 2.02 1.433 1.967 3.58 3.255 5.422 4.796 1.483 1.38 2.928 2.802 4.403 4.186 3.504 3.757 6.959 7.613 9.859 11.864a182.626 182.626 0 0 0 2.175 3.17c1.123 1.79 2.014 3.719 3.049 5.555 1.151 2.361 2.343 4.746 3.333 7.2 0 .014-.008.026-.008.037-.092 1.404-.252 2.814-.833 4.11-.378.882-.841 1.76-1.509 2.457a3.882 3.882 0 0 1-.249.245v-.023c-.493-2.648-1.219-5.286-2.438-7.697-1.013-1.721-1.827-3.561-3.023-5.167-.97-1.262-1.922-2.538-2.881-3.81-2.584-3.182-5.591-5.989-8.434-8.925-1.189-1.089-2.259-2.296-3.367-3.47-1.116-1.145-2.373-2.154-3.447-3.342-2.003-2.185-3.86-4.497-5.954-6.601-.799-.87-1.785-1.637-2.19-2.79-.245-.91-.394-1.917-.222-2.849l.004.004Zm-5.996 4.06c1.62-.82 3.474-.253 5.148.06.359.702.848 1.339 1.471 1.868 2.56 2.526 4.78 5.343 7.273 7.977 1.15 1.139 2.396 2.177 3.489 3.381 3.305 3.534 6.875 6.823 10.104 10.434 1.452 1.768 2.801 3.623 4.161 5.46 1.09 1.782 2.171 3.61 3.012 5.53-.111.296-.142.66-.218.944-.099 1.901-2.438 4.776-4.238 2.883-.619-1.948-1.563-3.769-2.622-5.509a32.936 32.936 0 0 0-1.223-2.04.737.737 0 0 0-.202-.318c-3.508-5.316-8.388-9.617-13.001-13.965-2.354-2.2-5.064-3.952-7.513-6.03-.745-.69-1.452-1.445-2.285-2.027-2.305-1.446-4.628-2.235-4.659-5.444-.073-1.165.409-2.442 1.307-3.2l-.004-.005Zm-4.704 1.517c.657.227 1.295.495 1.91.817-.206 1.598.188 3.285 1.166 4.57.96 1.364 2.507 2.004 3.883 2.84 1.28.909 2.297 2.127 3.554 3.063 1.903 1.468 3.86 2.863 5.667 4.45a172.191 172.191 0 0 1 10.177 9.963c1.116 1.4 2.217 2.841 3.229 4.332 0 .042-.004.088-.007.146-.241 1.859-1.25 4.033-3.306 4.182a3.544 3.544 0 0 0-.153-.272c-.65-1.487-1.509-2.867-2.411-4.213-4.292-6.77-10.632-11.983-17.178-16.468-3.061-1.932-5.973-4.175-9.24-5.858-2.316-1.644-4.14-3.078-4.48-6.102-.282-3.995 5.003-2.35 7.189-1.446v-.004Zm-7.399 5.574c.046 0 .088-.007.134-.015 1.578 1.898 3.657 3.366 5.85 4.462 2.58 1.499 4.93 3.358 7.48 4.918 5.575 3.822 10.891 8.277 14.938 13.705v.084c.065.575.073 1.15.012 1.725-.065.464-.203.92-.409 1.342-.375.471-.746.786-1.216 1.211-.233.23-.546.36-.848.502-.061-.119-.126-.237-.187-.356a51.856 51.856 0 0 0-1.8-3.416c-.956-1.295-1.792-2.699-2.962-3.818-.573-.54-1.158-1.062-1.7-1.63-1.586-1.824-3.547-3.261-5.397-4.806-4.49-3.343-9.702-5.712-14.823-7.893-1.261-.648-2.76-1.426-3.027-2.944a.642.642 0 0 0-.027-.238c.077-2.492 1.8-2.994 3.978-2.833h.004Zm-12.446 6.05c.55-1.496 2.25-2.19 3.74-2.324a11.806 11.806 0 0 1 3.371.062c.165.613.467 1.188.918 1.683 1.196 1.26 2.862 1.978 4.444 2.625 2.075.767 3.978 1.91 6.011 2.772 1.678.943 3.371 1.867 5.003 2.886 2.728 1.898 5.339 4.014 7.582 6.467.42.357.81.736 1.188 1.128.012.199.038.398.05.582.084 1.86-.845 3.76-2.484 4.677-.44.188-.948.21-1.422.314-.202-.483-.344-.993-.6-1.453a20.337 20.337 0 0 0-2.595-3.223c-1.272-1.438-2.805-2.569-4.25-3.86-1.906-1.657-4.23-2.814-6.538-3.8-3.44-1.437-7.192-2.254-10.322-4.347-1.674-1.02-3.52-2.196-4.1-4.186l.004-.004Zm6.5 12.634c-1.177-.448-2.236-1.184-3.233-1.94-.7-.575-.86-1.544-.825-2.407.08-1.062 1.219-1.572 2.159-1.594a.748.748 0 0 0 .409-.188c.359.188.726.368 1.096.529 3.058 1.315 6.287 2.185 9.306 3.6 1.17.64 2.354 1.264 3.478 1.985 1.364 1.062 2.636 2.239 3.951 3.366 0 .387.11.828.118 1.165-.019 1.545-.955 3.105-2.415 3.672-.24.142-.596.234-.902.376-.252-.403-.489-.801-.76-1.25-.447-.659-1.055-1.165-1.567-1.77-2.148-2.036-4.754-3.49-7.548-4.428-1.054-.476-2.151-.82-3.267-1.112v-.004Zm6.378 4.152s0-.004-.004-.008c0 0 .004 0 .008.004l-.004.004Zm-6.34.468c.245-.901.745-1.963 1.666-2.297h.004c.107.1.241.165.386.192.356.2.715.383 1.074.575 1.766 1.012 3.088 3.093 1.78 5.002-.618.717-1.604.924-2.506 1.197a.816.816 0 0 0-.31-.407c-1.12-1.07-2.277-2.63-2.09-4.263h-.004Zm-24.66 68.33c.325-.035.65-.039.974-.073a30.11 30.11 0 0 0-.5 3.695c-.451.15-1.441.771-2.309 1.518-.787-1.069-1.146-2.415-.783-3.676.352-.326.837-.54 1.23-.793.444-.257.868-.598 1.388-.675v.004Zm-.723 15.943c1.441 3.63 2.878 7.283 4.728 10.726 1.376 2.656 3.13 5.094 4.62 7.686 5.021 7.797 10.735 15.122 15.78 22.904.458.629.897 1.273 1.318 1.928.114.296.24.579.378.855a.776.776 0 0 0 .348.338 32.538 32.538 0 0 1 2.19 4.462c.619 1.449 1.203 2.967 1.413 4.542 0 .092.008.184.016.28-.012.571.03 1.139.133 1.698.115 1.549.111 3.132-.863 4.344-.352.417-.738.893-1.284 1.031h-.145c-.921-1.637-1.865-3.262-2.714-4.934-3.267-5.715-6.294-11.569-9.485-17.331-3.749-7.13-6.913-14.478-10.173-21.858-1.872-4.512-3.986-9.035-5.495-13.708-.497-1.537-.97-3.093-1.414-4.657.214.567.432 1.13.65 1.69v.004Zm-.565-9.158a.748.748 0 0 0 .05-.096 7.415 7.415 0 0 1 1.662-1.315v.161c.11 1.035.287 2.07.523 3.098-.007 0-.015 0-.019.007-.6.253-1.115.66-1.54 1.15-.806-.429-1-2.227-.676-3.005Zm7.276 12.428c-.596.54-.951 1.844-1.184 2.683-1.258-.51-2.293-1.733-2.649-3.047-.332-1.051-.55-2.304-.386-3.47a5.652 5.652 0 0 1 .849-1.866c.91 1.985 2.078 3.848 3.496 5.485a.77.77 0 0 0-.122.211l-.004.004Zm-4.922-6.321a5.987 5.987 0 0 0-.68 1.694c-.249-.648-.493-1.3-.734-1.951.015-.062.03-.127.046-.188.149-.66.5-1.254.936-1.767.168-.219.455-.372.719-.533.18.602.374 1.196.596 1.782-.294.138-.608.437-.883.963ZM29.456 270.419c-.011 1.154-.206 2.285-.5 3.397-.306 1.357-.585 2.603-1.357 3.814-.634 1.016-1.04 2.526-2.347 2.814-.485.119-1.104-.23-1.341-.702-.749-2.637-.256-5.42-.145-8.119.286-3.251.611-6.463.37-9.729-.386-4.554-1.67-8.97-3.03-13.336-1.532-4.309-3.546-8.411-5.346-12.608-2.863-6.563-5.721-13.099-8.175-19.846-2.866-8.997-4.964-18.281-5.785-27.696-.696-9.818-.092-19.784 2.17-29.372 2.236-10.637 6.034-20.869 10.98-30.533 1.505-2.902 2.915-5.857 4.536-8.702 2.595-4.228 5.35-8.395 8.755-12.021 1.433-1.491 3.252-2.484 4.872-3.738 1.69-1.257 3.44-2.434 5.347-3.339.978-.513 1.941-1.073 2.988-1.426.027.016.05.035.077.05.263.165.565.295.794.51.33.659.463 1.476.062 2.139-.054.1-.119.188-.191.268a7.326 7.326 0 0 0-.604.234c-3.23 1.442-5.954 3.769-8.568 6.118-1.8 1.959-3.696 3.853-5.228 6.034-2.729 3.508-4.704 7.502-6.428 11.585-3.05 6.359-5.205 13.129-7.356 19.845-2.458 8.169-4.697 16.476-5.331 25.021-.371 4.539.053 9.085.565 13.593 1.051 7.168 3.03 14.145 5.106 21.072 2.889 9.994 6.47 19.765 9.638 29.671 2.679 9.008 5.441 18.132 5.59 27.604.15 2.465.027 4.93-.11 7.391l-.008.007Zm9.504-6.52c-.474 2.553-.703 9.303-3.87 9.779-2.947.107-3.295-4.665-3.853-6.804a.88.88 0 0 0-.096-.261c0-.134.004-.272.008-.406-.027-3.497-.16-7.012-.604-10.481-.55-3.45-1.253-6.881-2.113-10.266-2.767-10.722-6.638-21.091-10.005-31.625-3.936-12.743-8.342-25.65-8.388-39.139.084-6.659 1.364-13.226 2.992-19.662 1.131-4.186 2.312-8.403 3.738-12.516 1.2-3.768 2.415-7.548 4.02-11.163 1.777-4.297 3.615-8.594 5.973-12.612 2.637-4.028 5.782-7.866 9.508-10.971.137.146.153.322.126.506-2.281 2.408-4.162 5.195-5.855 8.047-2.277 3.649-3.844 7.647-5.48 11.607-3.66 8.744-6.355 17.902-7.582 27.317-.932 6.018-.79 12.205-.393 18.274.26 5.125.669 10.25 1.88 15.253 1.838 8.736 5.06 17.081 7.926 25.515 3.905 11.339 8.545 22.444 11.19 34.178 1.142 5.064 1.52 10.266.874 15.422l.004.008Zm8.442 1.303c-.91 1.085-2.698 1.093-3.997.901-1.51-1.043-2.102-2.883-2.572-4.615a.908.908 0 0 0-.111-.326c.153-2.281.15-4.57-.141-6.843-1.227-10.224-4.896-19.945-8.347-29.582a2283.386 2283.386 0 0 1-6.951-19.757c-1.9-5.375-3.577-10.776-4.792-16.373-1.242-5.045-1.632-10.216-1.896-15.387-.351-5.47-.493-10.983.214-16.43.906-7.107 2.519-14.188 4.846-20.984 1.788-4.604 3.478-9.254 5.576-13.724a51.68 51.68 0 0 1 6.244-10.331.72.72 0 0 0 .008.203c-.822 1.25-1.537 2.573-2.3 3.857-2.14 4.324-3.758 8.89-5.103 13.52-1.746 5.965-3.217 12.029-3.901 18.213-.436 5.171-.363 10.381-.207 15.563.329 5.103.524 10.22 1.391 15.265 1.869 9.806 5.442 19.163 8.755 28.547 2.947 7.817 5.53 15.759 8.003 23.737 2.671 8.448 5.896 16.893 6.408 25.833.058 2.894.348 6.11-1.135 8.709l.008.004Zm10.91-6.129c-.11.387-.297 1.038-.6 1.395-1.027 1.219-3.045 1.284-4.345.464-1.016-.644-1.566-1.794-2.067-2.856-.336-.713-.531-1.568-1.112-2.124-.053-.034-.107-.057-.16-.08-.654-9.645-4.365-18.78-7.158-27.961-2.446-7.966-5.186-15.832-8.071-23.652-3.165-9.02-6.577-18.025-8.136-27.505-.784-5.815-1.128-11.688-1.254-17.553-.011-4.638-.092-9.3.581-13.904.791-4.83 1.8-9.499 3.187-14.218 1.04-3.615 2.125-7.218 3.627-10.672 1.012-2.545 2.232-4.953 3.726-7.245-1.372 2.641-2.465 5.436-3.36 8.253-2.384 8.664-2.292 17.757-2.239 26.677.138 9.166.493 18.385 2.4 27.378 1.357 6.559 2.954 13.068 5.018 19.443 3.68 10.239 7.914 20.24 12.19 30.249 1.923 4.865 4.09 9.825 5.557 14.878 1.326 4.531 2.037 9.38 2.79 14.053.298 1.691-.145 3.347-.573 4.972v.008Zm7.629-6.579c-.574.564-1.56.514-2.32.529-1.69-.54-2.935-2.219-3.711-3.76a.73.73 0 0 0-.329-.349c-.546-3.201-1.161-6.386-2.082-9.503-1.907-6.248-4.495-12.271-7.047-18.278-2.305-5.462-4.578-10.94-6.745-16.46-3.841-8.92-6.539-18.243-8.522-27.762-1.636-7.214-2.316-14.586-2.56-21.973-.219-6.171-.326-12.32-.016-18.503.183-7.334 1.402-14.774 4.689-21.375.038.08.084.149.137.21-2.22 6.87-2.575 14.165-2.82 21.341-.306 7.004.493 13.969 1.926 20.819 2.037 10.469 5.133 20.7 9.034 30.621 2.74 6.644 5.882 13.03 8.58 19.754 2.813 6.087 5.583 12.194 7.86 18.511 1.64 4.455 2.978 8.863 4.013 13.532.684 3.726 2.465 9.365-.088 12.65v-.004Zm6.576-12.65c-.344.506-.993.801-1.563 1.005-1.368.36-2.598-.851-3.24-1.952a.848.848 0 0 0-.413-.364c-1.456-6.229-3.562-12.286-5.958-18.22-2.572-6.455-5.702-12.669-8.335-19.102-2.69-6.329-5.77-12.489-8.01-19.01-2.808-7.774-5.075-15.736-6.714-23.847-.826-4.27-1.693-8.556-1.995-12.903-.252-3.178-.225-6.368-.107-9.561.42 5.651 1.655 11.251 3.31 16.675a255.018 255.018 0 0 0 10.325 29.874c1.823 4.117 3.478 8.315 5.458 12.39 1.616 3.427 3.443 6.75 5.17 10.12 2.591 4.623 4.804 9.323 6.925 14.199 1.387 3.17 2.965 6.294 4.077 9.614.612 2.001 1.216 4.013 1.49 6.095.18 1.645.318 3.465-.427 4.987h.007Zm.272-15.234c-.295.004-.73-.034-1.01-.207a1.021 1.021 0 0 0-.557-.414c-.703-1.602-1.456-3.189-2.155-4.834-4.456-10.656-10.72-20.458-15.18-31.119-4.72-10.73-8.892-21.755-12.11-33.04-2.847-9.48-4.445-16.369-4.166-25.086.405 6.114 1.839 12.114 3.623 17.963 1.391 4.643 3.237 9.132 5.228 13.544 2.599 6.333 5.534 12.619 8.411 18.837 1.498 3.144 3.168 6.191 4.861 9.231 2.136 4.175 4.407 8.292 6.741 12.355 1.934 3.872 4.353 7.479 6.061 11.469.769 1.841 1.288 3.75 1.74 5.693.385 1.882 1.077 5.102-1.487 5.616v-.008Zm3.653 18.887a4.56 4.56 0 0 1-2.24-1.33.798.798 0 0 0 .016-.395c-.233-1.161.118-2.369.657-3.411.256-.41.508-.893.97-1.074.192.391.372.786.532 1.196.627 1.423 1.135 2.895 1.865 4.271.057.099.118.199.18.299-.635.276-1.27.579-1.98.448v-.004Zm3.45-.973c-1.642-2.787-2.33-6.08-4.29-8.698a6.291 6.291 0 0 1-.444-.667.821.821 0 0 0-.092-.307c-.714-1.288-.905-2.683-.714-4.163-.02-1.483.474-2.952 1.578-3.968.042.008.08.012.118.016.505.533 1.017 1.058 1.518 1.595.752.847 1.345 1.851 2.07 2.729.765.897 1.59 1.767 1.93 2.925.413 1.012.998 1.943 1.38 2.971.344 1.326.818 2.61 1.242 3.914.245 1.33.807 2.568 1.2 3.856.295.675.661 1.369 1.097 2.02-1.968 2.132-5.254-.303-6.596-2.219l.004-.004Zm13.663 3.097c-1.189.913-3.096.936-4.261-.03-1.066-.951-1.964-2.101-2.488-3.439-.317-1.142-.852-2.22-1.074-3.389-.107-.59-.336-1.138-.542-1.698-.447-1.158-.62-2.411-1.177-3.527a50.626 50.626 0 0 1-1.502-3.243c-.688-1.207-1.754-2.154-2.526-3.308a14.87 14.87 0 0 0-1.636-2.055c-.447-.471-.902-.935-1.349-1.41a.82.82 0 0 0-.046-.242c-.787-1.652-.944-3.749-.13-5.416.038-.092.096-.173.157-.25.138.104.275.211.409.319 1.418 1.383 2.71 2.894 4.165 4.243 1.395 1.852 2.851 3.661 4.23 5.528 1.086 1.445 2.126 2.921 2.974 4.519 1.005 1.695 2.03 3.382 2.59 5.287 1.021 2.319 1.698 5.071 2.947 7.368-.256.199-.485.525-.745.743h.004Zm9.283-1.223a3.695 3.695 0 0 1-2.42 2.492c-1.066.472-1.761.702-2.701-.157-1.705-1.418-2.61-3.485-3.344-5.528-.703-1.963-1.472-3.914-2.175-5.88-1.425-2.906-3.08-5.735-5.029-8.323-1.139-1.679-2.526-3.166-3.672-4.841-.921-1.342-2.236-2.331-3.317-3.531-1.013-1.318-2.328-2.292-3.658-3.25-.573-.599-1.127-1.212-1.597-1.906-1.357-1.786-1.808-5.742.313-7.13.084-.05.176-.096.264-.138.5.46 1.001.924 1.513 1.369 2.974 2.775 5.954 5.577 8.503 8.759 1.502 1.595 2.973 3.212 4.192 5.045 1.223 1.656 2.496 3.277 3.581 5.029 2.389 3.776 4.422 7.675 6.547 11.627.974 1.786 1.819 3.837 2.736 5.677.107.188.225.372.348.556a.622.622 0 0 0-.084.127v.003Zm9.19.779c-.221.36-.535.609-.856.885-.993.406-2.067.636-3.141.418-2.614-.656-4.143-3.22-5.075-5.574-.883-1.909-1.857-3.768-2.87-5.612-2.79-5.459-6.034-10.921-9.856-15.805-.948-1.372-2.075-2.595-3.233-3.791-2.797-3.427-6.023-6.601-9.332-9.603-.015-.023-.023-.046-.038-.069-.26-.391-.593-.721-.887-1.081a1.03 1.03 0 0 0-.05-.088c-.034-.046-.076-.084-.114-.127-.806-1.223-1.406-2.422-1.555-3.91-.039-.433-.088-.885-.115-1.338.011-.199.027-.398.05-.598.084-.586.236-1.219.6-1.694.81.644 1.597 1.326 2.388 2.005 1.888 1.506 3.424 3.373 5.144 5.056 3.596 3.5 7.135 7.084 10.34 10.952 5.355 6.548 9.998 13.67 14.251 20.98 1.407 2.231 2.84 5.612 4.716 8.327-.141.214-.256.463-.363.667h-.004Zm10.276.226c-.768 1.671-2.755 1.939-4.402 1.851-1.257-.306-2.22-1.196-3.072-2.123-2.783-3.347-4.391-7.476-6.658-11.167-2.503-4.205-5.178-8.307-7.937-12.348-2.855-3.986-5.858-7.87-9.195-11.461-3.286-3.562-6.836-6.858-10.161-10.385-2.408-2.212-4.869-4.405-7.7-6.053a1.083 1.083 0 0 0-.34-.077c-.689-1.606-1.533-3.128-2.466-4.6-.412-1.146-.52-2.461.096-3.538 1.215.882 2.419 1.786 3.63 2.68 5.278 3.875 10.036 8.387 14.587 13.087 8.545 8.705 16.509 17.982 24.145 27.508 2.434 3.239 4.689 6.651 6.554 10.255.974 2.073 1.949 4.163 3.103 6.137a.804.804 0 0 0-.195.23l.011.004Zm11.461 2.296c-.321 1.587-.718 5.014-3.072 3.841-1.915-.809-3.428-2.246-4.64-3.914-3.397-4.006-4.807-9.219-7.723-13.539-4.215-6.862-9.684-12.819-14.87-18.941-4.387-5.283-9.171-10.312-13.983-15.253-3.363-3.462-6.825-6.82-10.547-9.894-3.054-2.45-6.203-4.773-9.382-7.05-2.155-1.438-4.498-2.687-6.302-4.573a.734.734 0 0 0-.397-.372c-2.297-3.232-4.628-6.436-6.814-9.748a63.83 63.83 0 0 1-2.545-3.742c-.1-.326-.321-.663-.466-.939-.711-1.441-1.693-2.729-2.381-4.182-1.086-2.181-1.12-4.723-.554-7.073.493-.103 1.008-.153 1.456.338.508.525 1 1.123 1.12 1.866a.746.746 0 0 0 .236.399c-.019 1.629.012 3.27.394 4.861 1.735 6.578 4.697 10.515 9.768 14.881 6.08 5.727 13.383 9.886 19.94 15.012 9.088 7.325 18 15.03 25.743 23.816 6.951 7.357 13.203 15.33 19.104 23.553 2.212 3.193 4.566 6.336 6.083 9.932-.061.234-.099.479-.164.709l-.004.012Zm12.241 8.548c-.379.491-.669 1.258-1.345 1.361-5.32.042-7.624-6.494-9.119-10.722-1.544-3.914-4.07-7.283-6.45-10.714-5.996-8.357-12.356-16.465-19.433-23.932-8.033-9.097-17.27-16.986-26.713-24.557-6.347-4.757-13.226-8.836-19.023-14.302-2.752-2.4-5.32-5.049-7.036-8.315-.997-1.824-1.51-3.852-2.148-5.819a19.15 19.15 0 0 1-.32-3.557c.091-.088.187-.173.305-.223 1.598-.632 3.925.587 4.12 2.331a.744.744 0 0 0 .344.479c.168 1.507.344 3.048 1.127 4.359 2.465 4.753 6.382 8.472 10.295 12.029 7.739 6.808 16.819 11.818 24.92 18.147 3.111 2.523 6.173 4.857 9.157 7.587 3.738 3.358 7.25 6.961 10.773 10.541 4.98 5.291 9.856 10.73 14.415 16.396 3.799 5.018 7.54 10.086 10.796 15.487 1.582 2.633 2.946 5.386 4.483 8.046.577 1.116 1.28 2.197 1.922 3.308-.298.717-.68 1.4-1.07 2.07Zm-76.05-90.391c1.556 1.549 3.058 3.166 4.736 4.588 1.85 1.438 3.726 2.849 5.522 4.355a153.123 153.123 0 0 1 5.778 4.861c3.653 3.047 7.548 5.8 11.407 8.575 3.921 2.73 7.827 5.474 11.652 8.33 5.553 3.945 10.911 7.916 16.028 12.466 2.549 2.166 4.892 4.562 7.288 6.893 3.107 3.151 6.122 6.248 8.789 9.829 4.212 5.294 8.106 10.936 11.06 17.058 2.95 5.946 5.293 12.267 6.473 18.815.214 1.694.394 3.384.375 5.106.027 1.154-.497 2.342-1.659 2.706-3.038.234-4.559-4.914-5.545-7.28-.699-2.02-1.119-4.189-2.124-6.102-.898-2.155-2.255-4.045-3.34-6.099-1.544-2.661-2.901-5.428-4.51-8.073-1.464-2.507-3.122-4.88-4.769-7.268-2.553-3.558-5.075-7.138-7.869-10.512-3.046-3.515-6.049-7.068-9.21-10.48-6.061-6.54-12.416-13.057-19.386-18.661-5.446-4.539-11.274-8.556-17.144-12.516-5.262-3.538-10.349-7.226-14.87-11.719-2.927-2.733-5.518-5.873-7.33-9.465a6.602 6.602 0 0 1-.171-.532.831.831 0 0 0-.008-.273c-.1-.31.077-.517.153-.87.088-.628.543-1.376 1.242-1.364.673.191 1.395.184 2.044.433.451.268.895.59 1.185 1.035a.884.884 0 0 0 .375.448c.26.644.538 1.281.856 1.894.787 1.418 1.945 2.58 2.97 3.826l.003-.004Zm-3.217-8.913a47.606 47.606 0 0 1-8.625-2.729c-2.973-1.683-5.858-3.554-8.067-6.21-2.595-3.496-4.365-7.675-4.808-12.033-.019-2.189.344-4.355.764-6.494.447-1.982 1.216-4.067 1.483-6.118a40.124 40.124 0 0 0-.053-13.896c-.379-2.929-1.334-5.72-2.182-8.533-.738-2.783-1.197-5.655-1.514-8.514-.023-3.677.577-7.364 2.568-10.538 2.752-3.872 6.806-6.874 11.048-8.959 2.263-1.043 4.67-1.694 7.01-2.526 1.585-.606 3.137-1.327 4.826-1.603 2.618-.479 5.25-.935 7.926-.824 3.787-.046 7.566.077 11.35.062 1.788-.039 3.565.164 5.342.306 4.009.104 7.98.767 11.923 1.45 2.71.41 5.408.992 7.93 2.085.948.375 1.991.56 2.855 1.123.722.525 1.288 1.227 1.899 1.874-1.49.483-2.95 1.05-4.379 1.668-4.422 2.012-8.282 5.06-11.645 8.54a67.761 67.761 0 0 0-2.495 2.75c-.05-.02-.1-.035-.15-.05a17.566 17.566 0 0 1-1.352-.652c-1.49-.874-2.22-2.565-3.23-3.906-.859-1.346-1.883-2.592-3.198-3.52-2.95-2.234-7.272-1.9-10.154.276-1.398 1.216-2.793 2.895-2.702 4.854-1.425-.556-2.873-.836-4.318-.637-2.03.399-3.726 1.767-4.86 3.462-.815.97-1.552 2.016-1.927 3.239-.63 1.495-1.1 3.082-.932 4.723.042 1.38.133 2.767.856 3.967-.929.12-1.846.322-2.744.629-5.606 1.974-9.707 8.303-8.534 14.26 1.055 4.692 5.996 6.226 10.322 6.421-.695 1.346-1.127 3.416-1.253 4.09-.42 2.856-.394 5.812.58 8.557.616 1.464 1.663 2.752 2.79 3.852 1.239 1.096 2.916 1.648 4.56 1.606 1.666.019 3.14-.828 4.536-1.648.24-.123.481-.249.718-.383.08 1.012.367 2.15.478 2.614 1.085 3.243 2.094 4.615 5.51 5.432 2.588.337 5.133-1.185 6.54-3.312 1.237-1.572 1.639-3.607 2.846-5.198a9.005 9.005 0 0 1 1.063-1.169 21.979 21.979 0 0 0 3.5 3.503 30.54 30.54 0 0 0 7.831 4.42c-.008.008-.016.012-.02.019a29.214 29.214 0 0 1-1.719 1.518c-1.537 1.3-3.149 2.576-4.831 3.696-9.523 6.455-21.84 10.185-33.358 8.456h-.004Zm17.652-25.822c-1.307 1.212-2.813 2.124-4.269 3.136-1.353 1.185-3.004 1.936-4.57 2.787-2.137.951-4.827.261-6.218-1.633-1.44-1.518-2.132-3.646-2.312-5.888a.751.751 0 0 0 .046-.399c.176-.644.393-1.242.676-1.874 1.38-2.553 3.7-4.662 6.417-5.685 2.445-.955 5.14-1.675 7.784-1.342 3.084.506 5.262 3.002 6.856 5.516.527.79.833 1.752 1.357 2.553-2.114.537-3.99 1.58-5.767 2.837v-.008Zm8.155 1.936c.428.219.837.479 1.15.848.084.161.21.337.356.49-.711.675-1.384 1.767-1.655 2.189-1.349 2.591-2.404 6.022-5.618 6.751-1.383.536-2.84-.142-4.047-.832a2.572 2.572 0 0 1-.263-.242 1.653 1.653 0 0 0-.061-.111c-.218-.97-.264-1.966-.215-2.959.788-5.083 5.32-9.526 10.35-6.13l.003-.004Zm-8.805-13.946h.035v.016l-.035-.012v-.004Zm5.668-1.422c-3.654-.674-7.43.058-11.064.625-5.377.828-11.151 1.99-16.413 0-5.595-2.101-4.472-9.093-1.369-12.926 2.225-2.917 5.802-4.493 9.436-4.412 6.218-.142 12.026 2.269 18.01 3.549.968.15 1.938.207 2.913.15-1.105 4.243-1.685 8.64-1.513 13.01v.004Zm1.429-20.129c-3.386 2.457-7.861 4.002-11.97 2.588-3.194-.89-8.105-3.427-9.037-6.843-.188-.663-.306-1.369-.272-2.055a.767.767 0 0 0 .111-.414c.184-.394.386-.778.608-1.146 1.192-1.568 2.354-3.323 4.356-3.89 4.028-1.036 9.512 3.974 12.776 6.079 2.167 1.2 4.464 2.254 6.875 2.844-.084.066-.164.13-.24.204-1.052.9-2.05 1.874-3.207 2.637v-.004Zm-2.274-7.207c-1.712-.962-3.31-2.166-4.597-3.676-.826-1.215-1.384-2.844-.979-4.309.222-.694.493-1.414 1.074-1.893a.725.725 0 0 0 .21-.173c2.6-1.12 5.87-.632 7.854 1.507 1.697 1.69 2.675 3.963 4.295 5.72.531.532 1.173.927 1.85 1.256-2.488 1.975-6.803 3.217-9.707 1.568Zm14.751 64.221-.007-.007s.007.007.011.007h-.004Zm69.564-21.386c.378.257.799.452 1.269.567.122 1.541-1.644 2.415-2.947 2.649-2.151.51-4.223-.441-6.34-.629-2.514-.184-5.025.242-7.295 1.35-.363.18-.726.352-1.093.525-.08.03-.164.05-.241.084a.953.953 0 0 0-.199.115c-3.347 1.495-6.874 2.384-10.528 1.058-3.061-1.069-5.533-3.415-7.085-6.233-.627-1.261-.868-2.66-1.284-3.998a.77.77 0 0 0-.933-.548.773.773 0 0 0-.546.935c.271.912.52 1.832.772 2.752 1.804 5.164 6.913 9.082 12.401 9.273 2.407.065 4.811-.479 6.993-1.487.321-.146.642-.291.96-.441a3.256 3.256 0 0 1 1.207-.295c3.501-.307 7.322 1.092 9.191 4.236a.83.83 0 0 0 .13.195.828.828 0 0 1-.103.633c-1.636 1.671-4.265 1.66-6.451 1.928-3.088.031-5.736 1.645-8.419 2.994-3.244 1.767-6.39 3.484-9.825 4.964-8.434 3.523-17.637 5.723-26.812 4.397-4.311-.471-8.473-1.782-12.382-3.642a3.14 3.14 0 0 1-.86-1.491c-.592-1.334-.741-2.99.359-4.109.665-.782 1.598-1.227 2.419-1.817 1.258-.828 2.565-1.449 4.078-1.718 1.609-.394 3.275-.406 4.922-.425.642.038 1.284-.111 1.926-.065a.741.741 0 0 0 .317-.054l.501.023c1.647.123 3.264-.257 4.892-.445 3.225-.456 6.519-.812 9.485-2.258a.779.779 0 0 0 .409-1.004.77.77 0 0 0-1.002-.41c-1.253.533-2.51 1.073-3.859 1.322-2.763.499-5.691.917-8.499 1.258-2.313.007-4.674-.115-6.967-.464-4.651-.759-8.969-3.009-12.584-6.045-3.07-2.802-5.232-6.544-6.524-10.477-1.425-5.003-1.842-10.377-1.02-15.525.7-6.226 2.755-12.34 6.267-17.542 3.455-4.933 7.616-9.457 12.581-12.891 5.9-3.796 13.318-6.253 20.384-5.551 3.099.567 6.328 1.245 9.16 2.733.29.138.581.28.871.425.081.046.161.092.237.146 3.34 2.208 6.13 6.904 4.15 10.787a8.579 8.579 0 0 1-.806.828c-.638.66.18 1.576.871 1.23.616-.084 1.017-.72 1.311-1.375 3.321-3.646 6.417-6.291 11.988-5.858.986.073 1.991.215 2.981.445.046.046.1.092.168.13.211.108.428.192.639.295.993.506 2.105 1.108 2.621 2.174 1.055 2.656.608 5.666-.623 8.207-.286.521-.619 1.02-1.066 1.41a1.752 1.752 0 0 0-.321.23c-3.351 1.109-5.977 3.666-7.731 6.694-2.618 4.585-3.416 10.369-1.445 15.341 1.69 3.803 4.456 6.586 8.01 7.981.023.023.042.046.069.069.344.276.78.407 1.189.549 2.056.663 4.203 1.05 6.057 2.265.619.418 1.097.993 1.574 1.553.696.782 1.502 1.521 2.427 2.031l.004.016Zm6.424-13.068c-1.051 1.134-2.125 2.273-3.371 3.197-.963.667-2.056 1.096-3.107 1.591-1.349.674-2.763 1.203-4.28 1.288-4.903.264-9.351-1.327-12.171-5.521-3.421-4.799-2.912-11.3-.184-16.303 1.364-2.346 3.237-4.527 5.748-5.689 1.223-.56 2.537-.977 3.867-1.341 1.013-.357 2.079-.606 3.157-.549a.774.774 0 0 0 .791.273c2.923-.046 5.893 1.123 8.113 3.039 1.884 1.679 3.011 4.041 3.856 6.383 1.578 4.508.585 9.932-2.419 13.632Z"/><path fill="#000" d="M171.167 104.13c-1.528-.372-3.046.173-4.33 1.15.161.019.321.05.482.096a2.773 2.773 0 0 1 1.792 1.691c.336.904.168 1.989-.466 2.725a3.339 3.339 0 0 1-.596.568c-.222.157-.459.256-.707.364a2.398 2.398 0 0 1-.921.172c-.195 0-.39-.019-.573-.053-.486-.092-.879-.299-1.277-.591-.37-.272-.581-.709-.722-1.134-.069.161-.13.318-.187.475-2.431 5.792-1.239 9.415 5.365 10.174h.138c7.478 0 10.681-6.276 6.634-12.574-1.12-1.476-2.61-3.166-4.628-3.059l-.004-.004Z"/><path fill="#000" d="M165.562 107.461a.809.809 0 0 0-.058.062l.058-.062ZM132.902 120.216c-1.907.145-3.432 1.33-4.67 2.702-1.257 1.388-1.005 3.975-.673 5.696.275.974 1.712.587 1.479-.387-.252-1.303-.367-2.779.123-4.032.943-1.093 2.048-2.174 3.538-2.4 1.984-.268 4.139-.518 6.031.295 1.368.763 2.728 1.863 2.721 3.569a.778.778 0 0 0 .852.671c1.288-.196.378-2.511-.042-3.216-2.243-3.132-5.832-3.435-9.359-2.898ZM73.676 138.991h-.011c-.031 0-.062.004-.093 0h.104ZM129.363 8.58c2.488 2.499 5.625 4.331 7.567 7.352.596.805 1.811-.085 1.238-.897a27.476 27.476 0 0 0-1.517-1.932c-1.823-2.14-4.269-3.6-6.218-5.612-.592-.472-1.571-1.595-2.239-.667-.493.885.688 1.245 1.169 1.755ZM140.263 19.213c.416 0 .775-.307.794-.736.016-.402-.317-.797-.733-.797-.417 0-.776.306-.795.736-.015.402.317.797.734.797ZM148.677 54.795c.237.977 1.682.651 1.495-.338-.516-2.928-1.086-5.872-2.194-8.64-.26-.843-1.253-1.311-1.678-.334-.13.372.115.637.276.932 1.054 2.69 1.612 5.543 2.105 8.38h-.004ZM149.117 58.613c.699.717 1.788-.322 1.108-1.054-.718-.782-1.861.302-1.108 1.054ZM121.384 23.817c1.215.579 2.041 1.736 3.065 2.587 1.097.959 1.995 2.166 2.943 3.305 1.314 1.644 2.873 3.235 3.993 5.056.226.349.741.406 1.066.173.348-.253.398-.721.172-1.07a26.586 26.586 0 0 0-2.419-3.205c-1.826-2-3.382-4.354-5.514-6.118-.833-.763-1.605-1.69-2.675-2.123-.933-.388-1.533.973-.627 1.395h-.004ZM135.489 38.265c-.443-.506-1.005-1.445-1.746-.801-.661.667.225 1.341.634 1.855.688.72 1.785-.314 1.108-1.054h.004ZM130.338 49.187c1.567 2.829 2.771 5.684 3.982 8.713.363.939 1.769.406 1.433-.533-.909-2.354-1.949-4.658-3.023-6.938-.512-.909-.879-1.94-1.601-2.707a.774.774 0 0 0-1.081-.03c-.295.28-.325.79-.027 1.084.126.12.221.265.317.407v.004ZM136.307 62.243c.417 0 .776-.307.795-.736.015-.403-.317-.797-.734-.797-.416 0-.776.306-.795.736-.015.402.317.797.734.797ZM105.421 29.744c1.135 1.153 2.209 2.365 3.287 3.572.271.319.791.307 1.081.027.314-.295.302-.767.027-1.085-1.139-1.272-2.27-2.56-3.485-3.764-.585-.548-1.162-1.116-1.586-1.798-.539-.767-1.307-3.66-2.56-2.864-.83.664.198 1.403.458 2.082a10.026 10.026 0 0 0 2.775 3.826l.003.004ZM112.098 36.889c.416 0 .775-.307.794-.736.016-.403-.317-.797-.733-.797-.417 0-.776.306-.795.736-.015.402.317.797.734.797ZM114.23 49.991c.428.58.795 1.208 1.238 1.779 1.376 1.683 2.461 3.573 3.688 5.363.512.878 1.807.165 1.349-.72-1.342-2.052-2.652-4.118-4.162-6.05-.55-.648-.913-1.92-1.937-1.801-.409.084-.669.517-.581.916a.758.758 0 0 0 .405.513ZM121.931 61.147c.416 0 .775-.307.794-.736.016-.403-.317-.798-.733-.798-.417 0-.776.307-.795.736-.015.403.317.798.734.798ZM92.867 39.733c.7.717 1.789-.325 1.109-1.054-1.23-1.227-2.542-2.388-3.432-3.906-.436-1.035-1.903-.449-1.437.575.952 1.71 2.377 3.04 3.76 4.39v-.005ZM95.493 42.106c.417 0 .776-.307.795-.736.015-.402-.317-.797-.734-.797-.416 0-.776.306-.795.736-.015.402.317.797.734.797ZM99.418 54.465c.947.924 2.025 1.71 2.866 2.737.699.72 1.777-.299 1.112-1.054-.78-.947-1.743-1.71-2.645-2.534-.837-.728-1.697-1.786-2.625-2.488-.791-.621-1.72.533-.963 1.192.825.629 1.479 1.453 2.258 2.143l-.004.004ZM105.291 60.89c.302.291.768.325 1.082.03.604-.62-.035-1.192-.516-1.614-.298-.287-.764-.33-1.082-.03-.603.62.035 1.192.516 1.614ZM74.245 43.46c1.613 1.28 3.65 1.79 5.323 2.962.348.223.837.1 1.051-.253a.78.78 0 0 0-.252-1.054c-.634-.406-1.273-.797-1.96-1.112-1.086-.506-2.194-.973-3.157-1.702-.676-.375-1.46-1.66-2.247-.82-.63.9.676 1.484 1.238 1.978h.004ZM83.302 48.278c1.093-.008 1.009-1.61-.08-1.537-1.097.011-1.01 1.614.08 1.537ZM82.966 55.02c1.88 1.093 3.523 2.343 5.048 3.93a.775.775 0 0 0 1.082.03c.825-.93-.75-1.69-1.261-2.334-1.162-1.104-2.519-1.967-3.868-2.818-.447-.276-1.081-.644-1.578-.283a.776.776 0 0 0-.176 1.07c.176.283.5.268.757.406h-.004ZM90.548 61.81c.367.183.844-.016 1.008-.388.287-.644-.336-1.046-.852-1.246-.374-.184-.844.016-1.009.388-.286.644.337 1.042.853 1.245ZM72.889 55.653c-1.46-.958-3.23-1.253-4.731-2.15-.93-.387-1.53.966-.627 1.4 1.44.87 3.141 1.153 4.559 2.054.864.506 1.64-.76.799-1.307v.003ZM76.71 59.747c.416 0 .776-.31.79-.74.016-.406-.32-.793-.737-.793-.416 0-.776.31-.79.74-.016.406.32.793.737.793ZM155.418 99.623a.774.774 0 0 0-.416-1.001.778.778 0 0 0-1.032.498c-.378.598-.848 1.131-1.227 1.737-1.375 2.154-2.293 4.573-2.831 7.069-.318 1.062-.398 2.169-.425 3.273-.099.518.023 1.154.642 1.231.402.05.814-.257.849-.671.076-.897.042-1.656.206-2.599.44-1.993.971-3.979 1.899-5.808.597-1.357 1.617-2.453 2.328-3.726l.007-.004ZM150.489 113.836c-.829-.64-1.777.598-.929 1.219.814.587 1.716-.594.929-1.219ZM130.827 153.827c-1.2.187-2.4.379-3.596.601-3.103.552-6.287 1.051-9.432.591a.768.768 0 0 0-.844.671c-.054 1.115 1.368.858 2.109 1.008 2.717.161 5.434-.23 8.102-.698 1.295-.238 2.595-.456 3.894-.659a.773.773 0 0 0 .638-.874.766.766 0 0 0-.871-.64ZM114.769 154.566c-.417 0-.757.368-.749.782a.772.772 0 0 0 .779.752c.417 0 .757-.368.749-.782a.772.772 0 0 0-.779-.752ZM73.53 153.232c-.898.153-1.865-.08-2.805-.069-1.6-.019-3.202-.119-4.78-.425-2.014-.384-3.914-.779-5.805-1.664-.711-.249-1.873-1.288-2.385-.226-.16.387.05.843.432.993.81.371 1.601.778 2.434 1.096 3.81 1.445 7.888 1.721 11.916 1.867.707.034 1.972.088 1.868-.936a.773.773 0 0 0-.875-.64v.004ZM54.874 148.08c-.417 0-.757.368-.75.782a.772.772 0 0 0 .78.751c.417 0 .757-.368.75-.782a.773.773 0 0 0-.78-.751ZM99.903 94.922c-1.047 1.112-1.521 2.615-2.25 3.933-1.606 3.427-3.005 7.1-3.215 10.91a29.05 29.05 0 0 1-.24 2.304c-.058.414.305.794.703.824.424.035.768-.291.821-.705.21-1.261.233-2.542.36-3.81.771-4.29 2.476-8.407 4.692-12.137 1.028-.751.115-2.147-.871-1.315v-.004ZM94.893 116.213c-.417 0-.741.414-.719.813.027.437.394.721.81.721.417 0 .742-.414.72-.813-.028-.437-.394-.721-.811-.721ZM57.992 77.688c.45-.323.925-.599 1.383-.901 1.651-1.154 3.554-1.902 5.454-2.534.565-.13 1.146-.2 1.685-.426.921-.46.237-1.817-.684-1.372a21.277 21.277 0 0 0-7.609 3.255c-.672.402-1.307.862-1.922 1.357-.329.256-.355.77-.092 1.08.589.671 1.277-.076 1.785-.452v-.007ZM53.173 80.007c-.416 0-.741.41-.718.809.023.433.39.72.806.72.417 0 .741-.41.719-.808-.023-.434-.39-.721-.807-.721ZM84.303 112.963c-1.177.13-2.361.195-3.52.467-1.161.276-2.334.476-3.511.66a.774.774 0 0 0-.612.893c.077.418.49.686.89.613.902-.157 1.808-.28 2.702-.483 1.422-.36 2.878-.498 4.334-.644a.778.778 0 0 0 .611-.893c-.072-.402-.485-.701-.89-.613h-.004ZM72.732 113.906c-.417 0-.742.41-.719.809.023.433.39.72.807.72.416 0 .741-.41.718-.809-.023-.433-.39-.72-.806-.72ZM79.851 130.179c-.413-.288-.902-.073-1.158.31-.814.698-1.685 1.33-2.522 1.997-.688.468-1.456.936-2.316.878-.997.065-.92 1.572.084 1.53 1.934.057 3.409-1.419 4.846-2.511.634-.487 2.04-1.38 1.066-2.204ZM70.981 132.728c-.416 0-.741.41-.718.808.023.434.39.721.806.721.417 0 .742-.41.719-.809-.023-.433-.39-.72-.807-.72ZM89.053 136.845c.856.521 1.231-.552 1.804-1.051.524-.36.925-1.088.287-1.556-.669-.449-1.2.33-1.632.748-.455.521-1.246 1.249-.459 1.863v-.004ZM87.418 139.298c.416 0 .741-.41.718-.809-.023-.433-.39-.72-.806-.72-.417 0-.741.41-.718.808.022.434.39.721.806.721ZM85.106 92.2c-1.521-.52-2.866-1.418-4.234-2.234-.757-.345-2.637-1.227-2.851.103-.039.476.363.817.81.832.997.092 1.796.71 2.617 1.22.853.501 1.74.95 2.649 1.337.512.21 1.188.487 1.685.069a.778.778 0 0 0 .092-1.081.774.774 0 0 0-.768-.25v.005ZM75.243 89.153c-.417 0-.742.41-.719.81.023.432.39.72.806.72.417 0 .742-.41.719-.809-.023-.433-.39-.72-.806-.72ZM92.508 84.818c-.504-.522-1.093-1.752-1.953-1.112-.305.26-.374.775-.091 1.081.45.414.733 1.031 1.257 1.35.84.41 1.555-.775.783-1.323l.004.004ZM87.77 82.03c-.417 0-.742.41-.72.81.024.433.39.72.807.72.417 0 .742-.41.719-.809-.023-.433-.39-.72-.807-.72ZM18.592 233.665c-1.487-3.7-3.409-7.199-4.124-11.175-.076-.74-.561-1.982-1.49-1.43-.355.242-.443.767-.172 1.104.23.671.279 1.396.462 2.082.688 2.288 1.453 4.55 2.492 6.708 1.078 2.369 2.037 4.788 3.195 7.123.168.383.669.521 1.028.341.386-.195.508-.648.34-1.027-.562-1.25-1.196-2.465-1.731-3.73v.004ZM21.106 241.481c-.416 0-.737.418-.714.813.015.207.11.402.267.532a.822.822 0 0 0 .547.181c.416 0 .737-.418.714-.813a.767.767 0 0 0-.267-.533.826.826 0 0 0-.547-.18ZM15.114 189.078c-.722-2.572-1.445-5.171-1.51-7.858-.133-1.012 1.22-4.408-.603-4.282-.425.084-.658.487-.6.901.088.928-.23 1.836-.29 2.76-.138 2.994.725 5.923 1.509 8.782.233.989 1.681.683 1.498-.299l-.004-.004ZM15.05 192.594c-.417 0-.738.418-.715.812.015.207.11.403.267.533a.82.82 0 0 0 .547.18c.416 0 .737-.417.714-.812a.767.767 0 0 0-.267-.533.827.827 0 0 0-.547-.18ZM42.702 240.906c-.463-1.832-1.036-3.634-1.605-5.44-.7-2.238-1.644-4.4-2.286-6.658a16.96 16.96 0 0 1-.328-1.56c-.05-.322-.057-.698-.29-.951-.452-.56-1.441-.196-1.38.537.218.747.286 1.541.504 2.3.86 2.951 2.094 5.788 2.928 8.751.366 1.131.642 2.139.951 3.32a.81.81 0 0 0 .333.495c.523.379 1.33-.158 1.165-.79l.008-.004ZM42.026 245.667c.63 1.024 1.975-.015 1.23-.932-.623-1.019-1.975.012-1.23.932ZM29.143 171.751c-.332-1.893-.508-3.653-.485-5.627-.035-1.096-.21-2.177-.23-3.274.023-2.058.421-4.075.72-6.095.022-.667-.077-1.744-.99-1.594-.566.107-.708.713-.547 1.199.05.748-.207 1.469-.317 2.201a31.387 31.387 0 0 0-.39 4.554c.286 2.978.172 5.98.737 8.932.214.989 1.667.686 1.502-.299v.003ZM28.54 174.63c-.417 0-.738.418-.715.813.015.207.11.403.267.533.157.13.344.18.547.18.416 0 .737-.418.715-.813a.765.765 0 0 0-.268-.532.822.822 0 0 0-.546-.181ZM52.642 215.149c-1.85-4.749-4.884-8.993-6.44-13.865-.355-.947-1.757-.456-1.448.494 1.533 4.884 4.563 9.124 6.44 13.866.34.95 1.758.444 1.448-.495ZM53.13 218.04c-.416 0-.737.418-.714.812.016.207.111.403.268.533a.822.822 0 0 0 .546.181c.417 0 .738-.418.715-.813a.767.767 0 0 0-.268-.533.826.826 0 0 0-.546-.18ZM65.18 221.547a.766.766 0 0 0-1.024-.341c-.924.533-.015 1.522.21 2.216.631 1.575 1.506 3.304 2.022 4.999.348.947 1.743.464 1.449-.495-.73-2.196-1.709-4.247-2.653-6.375l-.003-.004ZM54.652 183.727c-.436-.767-.646-2.925-1.9-2.434a.774.774 0 0 0-.34 1.027c.379.702.596 1.472.918 2.197.71 1.591 1.509 3.139 2.231 4.723.467.893 1.789.222 1.365-.687-.738-1.617-1.563-3.197-2.278-4.83l.004.004ZM67.045 194.326c.146.395.581.617.971.479.386-.13.623-.582.478-.973-.581-1.514-1.384-2.929-2.148-4.355-.753-1.323-1.487-2.657-2.293-3.948-.225-.349-.726-.43-1.062-.2-.348.238-.425.717-.199 1.066 1.529 2.576 3.107 5.16 4.257 7.931h-.004ZM67.73 196.837c.014.207.11.403.267.533.156.13.344.18.546.18.417 0 .738-.418.715-.813a.765.765 0 0 0-.268-.532.822.822 0 0 0-.546-.181c-.417 0-.738.418-.715.813ZM145.972 242.888c.5.889 1.8.184 1.356-.706-2.82-4.883-6.041-9.621-9.829-13.804-.779-.636-1.731.541-.974 1.181 3.607 4.09 6.722 8.587 9.447 13.333v-.004ZM148.058 246.299c.417 0 .776-.31.791-.739.016-.407-.321-.794-.737-.794-.417 0-.776.311-.791.74-.015.406.321.793.737.793ZM105.372 202.254c-2.041-1.767-4.032-3.607-6.172-5.252-.864-.517-1.64.748-.806 1.304 2.021 1.567 3.913 3.327 5.862 4.994 1.318 1.357 2.572 2.768 3.967 4.049.764.64 1.738-.541.974-1.181-1.349-1.227-2.549-2.611-3.825-3.91v-.004ZM110.936 208.525c-.417 0-.776.311-.791.74-.016.407.321.794.737.794.417 0 .776-.311.791-.74.015-.406-.321-.794-.737-.794ZM118.782 229.467c-.96-1.499-2.098-2.679-3.13-4.167-1.093-1.376-1.968-2.986-3.363-4.078-.539-.38-1.319.191-1.15.82.045.207.171.36.34.483 1.073.931 1.823 2.262 2.713 3.369.906 1.354 1.976 2.508 2.923 3.842.837 1.23 1.659 2.48 2.58 3.649.267.322.783.322 1.081.046.371-.337.279-.878-.053-1.2-.673-.905-1.307-1.832-1.945-2.76l.004-.004ZM122.599 235.187c-1.07-.529-1.658.981-.581 1.452 1.066.529 1.666-.969.581-1.452ZM80.791 195.27c-.535-.407-1.272-1.292-1.914-.568a.784.784 0 0 0 .183 1.146c.577.453 1.131.932 1.685 1.411a93.87 93.87 0 0 1 7.838 7.28c.784.628 1.728-.518.975-1.181-2.725-2.902-5.732-5.512-8.767-8.088ZM91.61 206.375c-.416 0-.775.31-.79.74-.016.406.32.793.737.793.416 0 .776-.31.791-.74.015-.406-.321-.793-.738-.793ZM99.892 227.646c-.696-1.023-1.284-2.127-1.972-3.151-.49-.536-1.437-.099-1.323.625.612 1.315 1.521 2.515 2.267 3.772.978 1.591 1.78 3.335 2.633 5.006.496.886 1.8.185 1.356-.705-.94-1.871-1.83-3.776-2.961-5.543v-.004ZM104.259 236.126a.776.776 0 0 0-.791.74c-.015.406.321.793.738.793.416 0 .776-.31.791-.74.015-.406-.321-.793-.738-.793ZM81.605 213.903c-1.345-1.054-2.484-2.357-3.844-3.388-.852-.525-1.651.755-.806 1.303 1.02.778 1.868 1.752 2.858 2.569.986.87 2.075 1.644 2.92 2.66.68.736 1.784-.288 1.127-1.035-.661-.797-1.471-1.438-2.255-2.109ZM85.985 219.044c-1.07-.395-1.529 1.139-.451 1.488 1.07.398 1.532-1.139.45-1.488ZM89.459 238.464c-.902-1.464-1.15-3.189-1.835-4.742-.359-.92-.55-1.974-1.44-2.545-.776-.629-1.74.54-.975 1.181.661.417.692 1.284 1.001 1.943.684 1.606.971 3.366 1.892 4.872.5.882 1.804.184 1.357-.705v-.004ZM90.005 240.745c-1.196-.23-1.345 1.437-.149 1.549 1.193.233 1.35-1.438.15-1.549ZM78.124 230.594c-.351-.659-1.326-1.606-1.953-.721a.774.774 0 0 0 .245 1.055c.206.126.325.349.45.544.59.813 1.8-.035 1.254-.878h.004ZM78.651 232.576c-.416 0-.775.31-.79.74-.016.406.32.793.737.793.416 0 .776-.31.791-.74.015-.406-.321-.793-.738-.793ZM75.54 240.829c-.416 0-.775.311-.79.74-.016.407.32.794.737.794s.776-.311.791-.74c.015-.406-.32-.794-.737-.794Z"/></g><defs><clipPath id="a"><path fill="#fff" d="M0 0h184v282H0z"/></clipPath></defs></svg>