<svg xmlns="http://www.w3.org/2000/svg" width="215" height="330" fill="none"><g clip-path="url(#a)"><path fill="#A9A9A9" d="M173.791 135.447s.012-.003.019-.007c0-.012-.007-.024-.007-.035 0 .015-.008.027-.012.039v.003Z"/><path fill="#E2FFB4" d="M98.348 298.644c-.82-2.251-2.173-4.112-3.124-6.278-1.455-3.564-3.395-6.964-4.236-10.75-.175-.796-.187-1.604-.164-2.415 0-.077.015-.146.034-.215.07-5.815 2.533-11.637 5.225-16.69 2.441-4.579 5.867-8.598 8.048-13.288 2.055-4.475 3.51-9.314 3.999-14.225.184-5-.218-10.053-1.688-14.842-.951-2.913-2.597-5.505-4.324-8.004-1.379-2.512-2.723-5.05-3.842-7.691-2.403-5.582-3.854-11.622-3.526-17.724-.045-6.133 1.612-12.189 4.362-17.644.6-1.064 1.207-2.132 1.929-3.12.63-1.003 1.184-2.052 1.769-3.086.24-.555.485-1.106.653-1.68 1.909-6.213 1.642-9.004.531-13.965a22.127 22.127 0 0 1-.776-3.361v-.023a1.935 1.935 0 0 1-.057-.364c-.714-4.161-.611-8.41-.015-12.583.08-.513.164-1.022.248-1.535-.05-.26-.011-.57.038-.865.115-.969.184-2.021.298-2.978.233-2.294.176-4.606-.325-6.864-.378-1.627-1.229-3.074-1.909-4.583a1.21 1.21 0 0 1-.199-.547c-1.111-1.527-2.097-3.12-2.654-4.946a.991.991 0 0 1-.092-.13c-1.921.053-3.854-.077-5.749-.31-1.91-.41-3.746-1.107-5.584-1.761-.962-.41-1.886-.9-2.81-1.382.034.475.087.949.183 1.416.37 1.543.935 3.04 1.608 4.475.233.471.492.927.767 1.375.042.069.092.13.134.199.252.356.497.727.722 1.114.5.731 1.02 1.447 1.516 2.182 1.15 1.565 2.162 3.238 3.43 4.716 2.9 3.698 5.351 7.84 6.63 12.388 2.797 9.287 2.09 16.507-2.6 25.001-1.475 2.711-3.067 5.356-4.519 8.078-.905 1.753-1.531 3.633-2.265 5.459-.779 2.373-1.348 4.812-1.558 7.304a58.327 58.327 0 0 0-.58 11.656c.614 8.055 3.59 12.721 7.432 19.482 3.755 6.753 7.066 13.976 7.689 21.778.187 2.557.347 5.141.023 7.694-.734 4.61-2.147 9.18-4.324 13.296-2.666 4.88-6.272 9.306-8.013 14.646-1.066 3.162-1.853 6.542-2.07 9.857-.13 2.045-.337 4.227.06 6.233.486 3.031 1.739 5.826 3.251 8.475.768 1.57 1.822 3.139 2.777 4.548 1.127 1.646 2.3 3.216 3.456 4.839 1.52 2.22 2.739 4.636 3.786 7.116.065.146.118.295.179.444a33.046 33.046 0 0 0-.676-2.32c-.638-2.683-2.036-5.08-3.098-7.602Zm6.952-73.309c.462.674.47 1.558.542 2.243.195 1.884.699 3.748.577 5.654-.149.797.141 2.829-1.035 2.749-.405-.038-.745-.417-.691-.831.095-.777.179-1.55.217-2.331.027-1.16-.191-2.262-.351-3.399-.248-1.065-.122-2.236-.535-3.247-.531-.849.707-1.665 1.28-.838h-.004Zm-2.269-2.806c-.416 0-.779-.306-.794-.735-.016-.402.317-.796.733-.796s.779.306.794.735c.016.402-.317.796-.733.796ZM103.329 113.408c.015.043.031.088.038.134 1.234 1.593 2.533 3.143 3.53 4.877a47.58 47.58 0 0 1 1.646-2.905c.901-1.562 2.02-2.971 3.166-4.36.057-.203.13-.406.145-.598.096-2.086-.962-4.264-3.258-4.241-.565.222-1.123.467-1.665.75-1.96.953-3.801 2.569-3.655 4.931.045.471-.039.949.057 1.412h-.004ZM170.22 125.543c-1.913-2.986-3.728-6.174-5.63-9.179-.023.011-.046.026-.069.034-.668.574-1.145 1.336-1.669 2.037-1.05 1.378-2.173 2.702-3.12 4.157a32.66 32.66 0 0 0-1.91 2.745c-1.868 3.843-.92 8.234 2.735 10.634a.291.291 0 0 1 .061.031c.993.172 2.001.279 3.014.341.714.072 1.436.122 2.154.149.47-.207 1.149-.245 1.531-.471 1.265-.387 2.044-1.424 2.899-2.354 1.177-2.247 1.146-5.076.344-7.438-.114-.23-.221-.46-.344-.686h.004Z"/><path fill="#A4D357" d="M121.128 255.987c-1.142-1.57-2.25-3.166-3.155-4.885-1.52-2.611-3.105-5.195-4.385-7.913-1.802-3.43-1.799-7.461-1.978-11.247.271-9.336 4.854-17.697 9.27-25.675 4.423-7.465 6.417-16.063 6.222-24.699a36.609 36.609 0 0 0-.283-3.782.815.815 0 0 1-.072-.253v.008-.008c-.016-.191-.027-.383-.042-.578-.531-3.606-1.547-7.135-2.827-10.546-1.807-4.755-4.205-9.257-6.096-13.969a38.418 38.418 0 0 1-2.292-9.995c-.408-4.46-.007-8.993 1.085-13.33.97-3.315 2.487-6.408 4.102-9.425a40.996 40.996 0 0 1 5.057-7.407c.562-.632 1.181-1.21 1.811-1.776-.275.003-.55.011-.825.019-3.995-.23-7.635-.153-10.962-1.543a.773.773 0 0 1-.355.237c-.272.245-.516.517-.696.716-1.818 2.163-3.693 4.303-5.102 6.764-1.341 2.213-2.46 4.567-3.381 6.983-.783 2.339-1.138 4.601-1.535 6.99-.592 3.939-.714 8.028-.099 11.974a.669.669 0 0 1 .084.322c.214 1.106.431 2.102.634 3.024a26.247 26.247 0 0 0 1.978 5.092c1.154 2.055 2.368 4.28 3.69 6.178.653.996 1.421 1.888 2.055 2.891 2.387 3.652 4.667 7.388 6.306 11.442 1.359 4.027 2.158 8.295 2.177 12.552.092 3.162-.042 6.328-.776 9.417-.679 3.928-2.394 7.546-4.094 11.113-.901 2.121-2.024 4.123-3.212 6.083-2.662 5.21-4.347 9.605-4.095 15.577v.027c.252 2.186.344 4.387.363 6.554.122.543-.03 1.293-.023 1.768-.08 3.047-.202 6.163.512 9.115.413 1.581 1.146 3.047 1.856 4.502.386.551.772 1.098 1.142 1.642 3.128 4.372 7.105 8.188 9.328 13.165 1.68 3.652 3.112 7.53 3.376 11.572.29 6.807-1.501 13.705-5.305 19.371-2.846 4.291-6.516 8.081-8.655 12.801.072-.126.141-.26.217-.387a56.684 56.684 0 0 1 5.023-6.967c1.333-1.531 2.7-3.039 3.823-4.735 1.188-1.811 2.533-3.53 3.423-5.516a77.93 77.93 0 0 0 2.1-5.329c1.479-5.241.894-10.746-.179-15.979-1.108-4.207-2.827-8.357-5.214-11.97l.004.015Zm-9.251-108.478c-.195.617-1.161.678-1.405.069-1.375-3.005-1.933-6.278-2.216-9.551-.091-1.439.165-2.864.21-4.299-.015-.597-.21-1.382.585-1.539a.774.774 0 0 1 .886.62c.195 1.432-.153 2.875-.168 4.311.023 2.055.431 4.088.806 6.106.309 1.27.775 2.488 1.279 3.69.077.195.103.39.027.589l-.004.004Zm1.91 5.379c-.416 0-.779-.307-.794-.735-.016-.402.317-.797.733-.797s.779.307.794.735c.016.402-.317.797-.733.797Z"/><path fill="#A9A9A9" d="M162.192 168.752c-.016-.023-.035-.046-.05-.069l.023.081a.08.08 0 0 0 .023-.016l.004.004Z"/><path fill="#E2FFB4" d="M132.778 293.771c-1.249-2.588-2.323-5.321-3.025-8.135a1.131 1.131 0 0 0-.302 0c-.649.191-1.2.72-1.562 1.282a3.779 3.779 0 0 1-.26.421c.535 1.524 1.467 2.879 2.334 4.234 1.161 1.857 2.41 3.652 3.804 5.34 1.78 2.374 3.525 4.782 5.168 7.255l-.023-.046c-2.082-3.426-4.282-6.784-6.134-10.348v-.003ZM125.742 114.702a45.51 45.51 0 0 0-3.388 5.092 1.322 1.322 0 0 1-.241.432c-1.168 2.496-2.383 5.31-1.825 8.12.179.777.55 1.336 1.146 1.791.297.234.584.525.973.594.031.007.058.019.085.03a25.486 25.486 0 0 1 5.771-.084.936.936 0 0 1 .153-.046c.275-.019.53-.119.798-.184 3.013-1.041 2.681-5.195 1.73-7.641-.092-.199-.187-.398-.279-.593-1.027-1.906-2.078-3.786-3.277-5.589a17.51 17.51 0 0 0-1.654-1.922h.008Z"/><path fill="#E2FFB4" d="M129.859 116.402c.123.486.073.995.222 1.47a.967.967 0 0 1 .046.218c.462.796.901 1.6 1.344 2.4 1.142 2.052 2.036 4.23 3.01 6.367.917 1.875 1.402 3.893 1.723 5.941a.703.703 0 0 1 .11.762.1.1 0 0 0 .004.034c1.799 7.457.825 15.416-2.253 22.41a59.98 59.98 0 0 1-1.448 2.986c-.149.314-.321.62-.416.861-.562 1.692-1.448 3.388-2.124 5.007-.981 2.29-1.623 4.74-1.803 7.228-.114 1.535-.179 3.112-.065 4.647.508 3.495.604 7.048.222 10.581 0 .015 0 .031-.004.046 0 .023.012.046.012.073-.012.475-.126.93-.126 1.405-.02 2.599-.249 5.195-.13 7.794-.054 1.478.175 2.936.63 4.341.351 1.413.752 2.802 1.283 4.153.199.448.543.827.703 1.291a.722.722 0 0 1 .023.122c1.562 2.182 3.033 4.429 4.549 6.646 1.818 2.63 3.415 5.424 4.255 8.533 2.158 7.671 2.265 13.207.008 20.855-.929 3.04-1.937 6.095-3.476 8.847-1.727 3.342-3.999 6.286-6.108 9.379-.229.375-.477.743-.721 1.106a.798.798 0 0 1-.084.127l-.062.091c-.156.326-.294.667-.416 1.007-.936 2.339-.672 5.386 1.234 7.167.133.126.305.241.477.359a28.4 28.4 0 0 1 1.261-3.204c1.581-3.273 3.009-6.611 4.873-9.739 2.812-4.582 5.355-9.325 7.284-14.351 1.001-2.408 1.62-5.103 2.055-7.595.497-2.871.848-5.796.626-8.686-.572-4.38-1.902-8.545-3.884-12.465-3.732-7.43-8.162-14.508-10.393-22.566-1.291-5.75-.508-11.829 1.054-17.449 1.44-5.543 4.668-10.382 7.364-15.366 1.039-1.692 1.914-3.476 2.941-5.172 1.02-1.65 2.048-3.315 2.617-5.183 1.02-3.162 1.279-6.539 1.161-9.796-.015-2.634.072-5.387-.344-8.005a.811.811 0 0 1-.034-.195c-.08-.475-.176-.95-.298-1.413-.745-3.231-1.853-6.358-3.102-9.425-1.119-2.986-2.364-5.949-3.918-8.735a.692.692 0 0 1-.329-.154c-.046-.053-.134-.076-.199-.103-.359-.088-.721-.134-1.084-.184-4.129-.735-8.648.506-8.266 5.532h-.004Zm11.726 12.3c.795-.356 1.161.566 1.391 1.156.508 1.523.653 3.147.806 4.739.183 2.419.263 4.873-.272 7.258-.16.823-.359 1.639-.538 2.458a.774.774 0 0 1-.913.582c-1.165-.368-.244-1.834-.183-2.661.68-2.783.58-5.547.309-8.361-.202-1.397-.26-2.897-.959-4.153-.194-.368-.007-.846.359-1.022v.004Zm-.58 19.217c.416 0 .779.306.794.735.016.402-.317.796-.733.796s-.779-.306-.795-.735c-.015-.402.317-.796.734-.796Z"/><path fill="#A4D357" d="M153.216 110.419c-.86.069-1.501.673-2.242 1.033-1.578 2.267-2.624 4.95-2.873 7.706-.301 2.446-.42 4.858-.137 7.278.13 1.244.367 2.473.577 3.709.038.226.061.49.03.731.283 1.73.428 3.484.382 5.252.015 3.235.142 6.52-.374 9.716-.034.268-.092.548-.103.796-.344 2.512-.852 4.988-1.455 7.446-.321 2.002-.107 4.058.305 6.033.317 1.252.665 2.512 1.234 3.668.775 1.018 1.463 2.097 2.173 3.162 1.249 1.535 2.406 3.135 3.388 4.858 1.215 2.4 2.024 5.03 2.593 7.656.451 1.918.505 4.027.356 5.922-.1 3.216-.23 6.458-.921 9.612-.733 3.082-2.131 5.953-3.472 8.805-.317.662-.68 1.298-1.065 1.922-.275 1.412-1.02 2.714-1.628 3.996-1.161 2.381-1.902 4.916-2.276 7.538-.176 2.002-1.031 6.649 1.73 7.074.275.031.432.058.627.077.202-.417.412-.835.645-1.256 1.555-3.062 3.258-6.037 5.195-8.858 1.104-1.604 2.268-3.154 3.254-4.839a56.587 56.587 0 0 0 1.596-2.496c-.053-.471.329-1.045.436-1.508a25.6 25.6 0 0 0 1.417-8.051c-.145-5.478-.615-10.975-.531-16.461 0-.47.015-.941.038-1.408-.248-5.103-.741-10.275-3.174-14.823a.708.708 0 0 1-.294-.578c-1.772-2.496-3.502-5.045-4.709-7.863-3.262-7.315-3.312-15.783-1.146-23.417.745-2.771 1.959-5.378 3.411-7.84.11-.187.236-.367.355-.551.298-.708.676-1.474 1.176-1.68.397-.544.799-1.088 1.161-1.658.978-1.474 2.166-2.783 3.186-4.222a13.559 13.559 0 0 0-1.005-1.761c-2.028-2.247-4.614-4.851-7.856-4.724l-.004.004Zm6.203 88.368c.416 0 .779.306.794.735.015.402-.317.796-.733.796-.417 0-.779-.306-.795-.735-.015-.402.317-.796.734-.796Zm-1.349 4.502a78.684 78.684 0 0 1-1.046 2.664 31.627 31.627 0 0 1-3.006 5.532c-.229.348-.726.429-1.062.195a.775.775 0 0 1-.195-1.064c.791-1.213 1.52-2.347 2.116-3.637a43.154 43.154 0 0 0 1.795-4.337.777.777 0 0 1 .512-.896c.932-.249 1.211.854.886 1.543ZM46.182 255.355c-1.356-2.082-2.838-4.077-4.278-6.102-1.077-2.09-2.342-4.084-3.316-6.224-1.363-3.626-2.398-7.484-1.959-11.385.6-7.779 3.697-15.129 7.227-21.997 1.795-3.609 4.11-7.066 5.576-10.795 2.525-6.611 3.193-13.406 2.3-20.098-.004-.019-.012-.034-.016-.057l-.023-.233c-.58-4.123-1.75-8.204-3.445-12.178-1.352-3.453-2.819-6.856-4.316-10.251-1.822-5.027-3.4-10.229-3.732-15.592-.573-8.702 1.792-17.698 7.49-24.405 1.223-1.81 2.77-3.369 4.412-4.804.195-.176.393-.348.592-.517a31.649 31.649 0 0 1-3.186-.387c-1.768-.26-3.582-.39-5.293-.953-.848-.245-1.582-.693-2.242-1.24-.256.283-.596.524-.84.789-.952.922-1.754 1.975-2.53 3.047-.156.272-.297.574-.526.742a78.15 78.15 0 0 1-.925 1.298c-1.294 1.987-2.226 4.161-3.311 6.232-.86 1.757-1.658 3.549-2.322 5.39-.669 1.93-.944 3.894-1.38 5.85-.931 3.656-1.374 7.308-1.218 11.052.077 2.476.883 4.804 1.86 7.055 1.398 3.537 3.48 6.749 5.432 9.995 1.115 1.929 2.284 3.824 3.426 5.735a74.369 74.369 0 0 1 5 11.66c2.287 6.133 2.563 13.019.53 19.263-1.008 3.12-2.803 5.892-4.32 8.774-2.096 3.943-4.22 7.886-5.763 12.086-2.33 5.504-3.41 11.499-3.098 17.46.172 2.465 1.207 4.754 2.006 7.066 2.57 7.213 8.124 12.729 11.504 19.509.768 1.523 1.589 3.016 2.406 4.513 2.044 3.943 2.284 8.51 2.185 12.87-.16 3.388-.978 6.734-2.18 9.896-.67 1.497-1.437 2.948-2.24 4.375.112-.153.219-.31.33-.463 2.165-3.223 3.803-6.703 4.686-10.474.611-1.979 1-4.023 1.176-6.082.046-1.042.069-2.083.1-3.124a29.215 29.215 0 0 0-1.356-8.208c-1.13-3.143-2.77-6.213-4.42-9.088h-.003ZM34.586 146.326c-.417 0-.78-.306-.795-.735-.015-.402.317-.796.734-.796.416 0 .779.306.794.735.015.402-.317.796-.733.796Zm1.191-17.609c-1.195 2.802-2.18 5.949-1.917 9.015.187 1.298.447 2.584.653 3.878a.773.773 0 0 1-.619.884.775.775 0 0 1-.886-.62c-.233-1.611-.653-3.208-.737-4.838 0-2.385.539-4.755 1.33-6.994.267-.762.614-1.49.897-2.244a.77.77 0 0 1 .523-.838c1.127-.222 1.173 1.026.756 1.761v-.004Zm-.932 111.008c-.416 0-.779-.306-.794-.735-.015-.402.317-.796.733-.796.417 0 .78.306.795.735.015.402-.317.796-.734.796Zm.44-12.273c-.329 1.505-.589 2.994-.684 4.475-.023.938.153 1.872.363 2.783.149.643-.672 1.152-1.188.762a.79.79 0 0 1-.317-.498c-.741-2.568-.214-5.237.32-7.794.096-.467.207-.93.306-1.393a.779.779 0 0 1 .531-.785c.401-.13.829.1.963.494.133.655-.218 1.305-.294 1.952v.004ZM162.562 286.608c-.42-.176-.897-.321-1.341-.138-.179.199-.401.379-.637.452a25.102 25.102 0 0 1-2.754 5.945c-1.54 2.098-2.773 4.334-4.481 6.29-2.731 3.15-5.106 6.592-6.794 10.416a26.243 26.243 0 0 0-.749 1.826c3.013-4.498 7.047-8.326 10.282-12.61 2.693-3.48 5.313-7.143 6.944-11.258-.134-.318-.157-.701-.47-.919v-.004Z"/><path fill="#E2FFB4" d="M55.563 121.953a60.268 60.268 0 0 0-2.422-3.25.77.77 0 0 1-.298-.36 31.448 31.448 0 0 0-2.536-2.749 4.133 4.133 0 0 1-.23-.168 18.048 18.048 0 0 0-1.252 1.654c-.795.926-1.517 1.948-2.189 3.001-.183.452-.6.93-.706 1.351-.936 2.347-1.013 5.172.309 7.377.287.364.546.769.917 1.056 1.753.973 3.46 2.06 5.477 2.347.176-.038.359-.042.523-.015 1.05-.149 2.132-.475 2.895-1.252.737-.773 1.513-1.493 1.857-2.523.26-.819.187-1.696-.077-2.507a34.729 34.729 0 0 0-2.269-3.955v-.007Z"/><path fill="#A9A9A9" d="M29.945 125.486s.008.012.011.02l.012-.035c-.008.004-.015.011-.023.015ZM28.574 319.71c.087-.387-.05-.773-.027-1.168-.061.387-.015.781.027 1.168Z"/><path fill="#A4D357" d="M172.978 59.24c-.783 2.948-1.287 6.01-.978 9.065.371 3.132 1.341 6.263 3.197 8.84 2.968 3.64 6.909 6.519 11.294 8.176 3.384 1.233 7.043 1.52 10.282 3.097a.707.707 0 0 1 .344.035c.394.1.779.1 1.165.015.607-.207 1.154-.697 1.253-1.355.019-.214.015-.448.061-.65-.118-.384-.241-.766-.351-1.153-.547-1.796-1.272-3.534-1.792-5.34-.645-2.443-1.413-4.67-2.276-7.01-1.532-3.824-3.22-7.468-5.053-11.128-2.327-4.636-5.164-8.973-7.701-13.486a45.301 45.301 0 0 0-2.333-3.484 1.702 1.702 0 0 1-.424-.119c-.581.004-1.452-.115-1.78.475a22.528 22.528 0 0 1-.245 1.489c-.332 1.914-1.298 3.618-1.875 5.455-.951 2.35-1.99 4.667-2.788 7.075v.003Zm11.856 20.002c1.149.287.79 1.888-.348 1.524-1.146-.287-.794-1.887.348-1.524Zm-8.648-10.7c.096 1.578.695 3.079 1.524 4.41.604 1.184 1.398 2.24 2.41 3.102.485.424.986.838 1.463 1.274.691.716-.351 1.773-1.085 1.08-1.279-1.133-2.662-2.19-3.536-3.69-.814-1.375-1.658-2.76-2.025-4.334-.248-.75-.214-1.554-.328-2.312a.774.774 0 0 1 .554-.93c.909-.176 1.096.677 1.019 1.397l.004.004ZM87.597 7.599c.023.08.026.153.026.226.745.807 1.425 1.684 2.063 2.557 2.727 3.851 4.904 8.13 7.948 11.745 2.269 2.545 5.302 4.226 8.258 5.849 3.544 1.497 5.439 1.236 8.747-.586 3.918-2.109 7.245-5.145 10.522-8.111 1.715-1.494 3.465-2.944 5.21-4.399 1.692-1.21 3.342-2.48 5.046-3.671a14.735 14.735 0 0 1 1.913-.8c.1-.234.268-.464.401-.686.241-.47.325-.987.31-1.508-.061-.184-.092-.41-.248-.536-.012-.007-.02-.015-.031-.023a95.685 95.685 0 0 0-8.273-3.055c-3.529-.846-7.078-1.63-10.679-2.09-6.02-.945-12.013-1.183-18.055-.792-3.67.318-7.292.919-10.901 1.6a.788.788 0 0 1-.531.23c-.134.026-.374.141-.432.157-.412.176-.718.245-1.084.448-.7.497-1.211 1.515-.837 2.35.206.368.531.67.627 1.095ZM17.723 79.859a.778.778 0 0 1 .378-.134c2.055-1.26 4.335-2.198 6.611-2.883 3.965-1.301 8.193-2.052 11.776-4.314 2.288-1.447 4.11-3.553 5.084-6.022.347-.482.569-1.052.664-1.665.05-.318.042-.632.012-.946.038-.302.068-.612.08-.922.409-3.48-.997-6.81-.7-10.267.077-4.135 2.48-8.024 6.192-9.862 2.22-1.014 4.435-1.81 4.958-4.528.645-3.893-1.272-7.568-1.83-11.354-.183-1.057-.328-2.148-.324-3.231-.325-.372-.844-.582-1.333-.49-.386.137-.81.222-1.169.413-.023.015-.05.027-.076.042-1.696 1.593-3.316 3.266-4.992 4.881-1.704 1.826-3.236 3.81-4.851 5.708-1.154 1.654-2.185 3.392-3.369 5.026-1.115 1.604-1.83 3.212-2.83 4.839-1.272 2.002-2.605 3.962-3.79 6.018-2.978 4.796-5.663 9.746-8.15 14.8-1.639 3.391-3.365 6.787-4.545 10.37a.791.791 0 0 1 .046.532c-.126.375-.107.785-.134 1.167-.096.598-.05 1.206.218 1.754.336.746 1.264 1.282 2.074 1.068ZM33.02 69.462c1.951-.651 3.326-2.493 4.178-4.288.657-1.615.604-3.388.608-5.103-.073-.455.19-.96.687-.995.397-.035.821.275.829.693.019.75.011 1.504-.02 2.258-.018 1.574-.324 3.162-1.084 4.552-.79 1.347-1.799 2.615-3.07 3.537-.711.394-2.048 1.42-2.587.333-.14-.383.058-.85.455-.984l.004-.004Zm-3.64 1.358c.416 0 .745.399.726.8-.02.43-.383.728-.799.728-.416 0-.745-.398-.726-.8.02-.429.382-.728.799-.728Z"/><path fill="#E2FFB4" d="M94.724 125.953c-.1-.188-.145-.402-.287-.566a.69.69 0 0 1-.08-.188 45.272 45.272 0 0 0-2.246-3.308c-1.245-1.447-2.314-3.02-3.403-4.578-.355.456-.886.877-1.146 1.267-1.321 2.079-2.85 4.043-3.972 6.244a79.424 79.424 0 0 0-.99 1.791c-.11.318-.343.594-.431.931-.443 1.466-.74 3.001-.668 4.536.099 2.239.538 3.495 2.272 4.954.271.088.5.256.749.386a.656.656 0 0 1 .16.1c1.352.034 2.708-.111 4.053-.215a33.809 33.809 0 0 0 2.131-.425c.287-.241.775-.333 1.123-.509.982-.528 1.906-1.232 2.578-2.128a6.605 6.605 0 0 0 1.02-5.696c-.252-.877-.416-1.784-.863-2.592v-.004ZM72.31 102.892c-2.218.877-4.178 2.27-6.31 3.327-.935.593-1.718 1.317-2.57 1.956.394.521.726 1.145.929 1.386 1.084 1.788 2.169 3.575 3.23 5.378.59 1.13 1.1 2.297 1.67 3.438.901-1.634 2.716-3.598 3.147-4.226.7-.934 1.26-1.822 1.837-2.772.436-.742.875-1.485 1.307-2.228.932-1.688 1.71-3.395 2.322-5.259.187-.575.317-1.16.454-1.75-1.94-.329-3.895.008-6.011.743l-.004.007Z"/><path fill="#A4D357" d="M84.503 260.738s0-.039-.004-.058a76.586 76.586 0 0 0-1.337-1.849c-2.1-3.02-4.16-6.087-5.878-9.34-1.291-2.282-2.433-4.721-3.289-7.247-.684.042-1.29.321-1.814.743.057.157.1.321.137.463.596 1.722 1.36 3.376 2.346 4.907.534.839-.719 1.669-1.28.839-.981-1.528-1.768-3.193-2.376-4.908a9.746 9.746 0 0 0-.706 1.221 3.93 3.93 0 0 0-.18 2.542c.94 2.025 2.445 3.656 3.904 5.31 1.298 1.856 3.094 3.277 4.343 5.168 2.444 2.947 4.487 6.263 5.557 9.968.92 3.051 1.004 6.271.981 9.433.066 4.012-.294 8.046-1.436 11.905-1.535 5.467-4.835 10.095-8.3 14.444-1.863 2.477-3.307 5.198-4.392 8.092 1.39-2.117 2.834-4.191 4.24-6.305 2.25-2.989 4.713-5.811 6.879-8.858a.763.763 0 0 1 .06-.153c.364-.723.7-1.252 1.047-1.941l.13-.233c.05-.169.134-.337.237-.498.21-.475.413-.961.588-1.351.822-1.941 1.52-3.924 1.86-5.995.612-4.364.906-8.782 1.074-13.177.145-4.008.045-8.184-1.754-11.836-.179-.448-.45-.839-.626-1.286h-.011Zm-8.132-7.592c-.416 0-.78-.306-.794-.735-.016-.402.317-.796.733-.796s.779.306.794.735c.016.402-.317.796-.733.796ZM86.378 113.971c-.32-.475-.626-.953-.917-1.447-1.913-2.745-4.831-5.467-7.34-4.739-.02.011-.039.015-.058.026-.118.322-.332.636-.512.869-.088.154-.172.303-.26.452a39.183 39.183 0 0 1-2.104 3.648c-2.563 4.579-4.003 8.342-2.162 14.758.138.72.252 1.439.351 2.167.08.241.1.516.05.761.126.64.245 1.279.344 1.926.348 3.973.546 8.05-.267 11.978-.554 3.851-1.841 7.649-2.265 11.507-.165 1.953.068 3.959.954 5.72.188.245.329.562.337.853.657 1.176 1.459 2.102 2.196 3.224.867 1.389 1.742 2.63 2.597 3.992 2.54 3.924 3.98 8.445 4.801 13.016.585 3.12.37 6.316-.126 9.433-.344 2.312-.867 4.605-1.711 6.787-1.627 4.157-3.95 7.981-6.539 11.603-.065.111-.138.222-.206.329a23.074 23.074 0 0 0-1.12 2.151c-.599 1.574-1.092 3.247-.935 4.95.027 1.459.737 6.209 2.998 4.9.5-.199.776-.608 1.108-1.007.107-.187.252-.363.42-.482 2.563-4.525 5.76-8.64 8.433-13.088.1-.418.394-.862.52-1.218.569-1.225 1.077-2.377 1.386-3.686.692-2.328.428-4.774.249-7.155a112.734 112.734 0 0 1-.447-7.702 78.753 78.753 0 0 1 .103-6.581c0-2.855-.138-5.719-.37-8.563-.234-2.887-.967-5.754-2.445-8.257-.279-.502-.611-.961-.879-1.467a.747.747 0 0 1-.282-.49c-.986-1.362-1.925-2.756-2.762-4.226-6.627-11.607-4.14-21.793 1.417-32.455.05-.103.1-.199.153-.291a106.62 106.62 0 0 1 1.67-3.047c1.512-2.324 2.856-4.72 4.728-6.756a.769.769 0 0 1-.191-.448c-.195-.563-.512-1.233-.92-1.949l.003.004Zm-4.201 58.551c.416 0 .779.306.794.735.015.402-.317.796-.733.796-.417 0-.78-.306-.795-.735-.015-.402.317-.796.734-.796Zm-5.894-12.728c.714.716.905 1.787 1.436 2.633 1.268 2.033 2.59 4.047 3.575 6.24a.776.776 0 0 1-.359 1.022c-.366.176-.848.019-1.02-.359-1.222-2.856-3.319-5.337-4.503-8.189a.634.634 0 0 0-.149-.207.771.771 0 0 1-.057-1.079.768.768 0 0 1 1.077-.058v-.003Z"/><path fill="#E2FFB4" d="M59.218 297.277c-5.248-8.345-6.792-16.855-3.4-26.253 1.284-3.867 3.056-7.557 4.813-11.224 2.769-5.134 5.748-10.191 8.055-15.539 4.171-8.647 3.766-19.083-.405-27.654-1.367-3.25-3.403-6.075-4.93-9.237-1.292-2.527-2.766-4.992-4.015-7.53-.844-1.899-1.543-3.867-2.257-5.819-1.058-3.464-1.085-7.143-.741-10.719.172-3.035.958-5.975 1.902-8.85 1.298-3.982 3.38-7.618 5.305-11.312 2.315-4.548 4.992-9.004 6.875-13.724.585-1.734 1.18-3.48 1.574-5.268.019-.172.042-.348.057-.52a.75.75 0 0 1 .15-.533c.102-.604.182-1.213.224-1.829.184-3.365.199-6.719-.385-10.015-.738-3.939-2.051-7.721-3.705-11.362-.661-1.175-1.226-2.392-1.772-3.625a175.862 175.862 0 0 0-2.548-4.326.828.828 0 0 1-.279-.191c-.462-.356-.985-.559-1.535-.704-1.429-.249-2.953-.372-4.37-.131-3.159.846-4.243 3.557-3.628 6.596.019.046.026.096.042.142.39.486.775.976 1.157 1.466 1.268 1.596 2.326 3.296 3.25 5.069a.806.806 0 0 1 .203.222c.19.359.347.738.466 1.125a51.214 51.214 0 0 1 1.577 3.702c1.203 2.978 1.67 6.182 1.784 9.379.053 1.542.13 3.089.122 4.632-.008 2.898-.787 5.723-1.684 8.456-1.035 2.802-2.277 5.467-3.847 7.982l-.045.076c-.145.368-.382.709-.528 1.072-.511 1.332-1.306 2.58-1.795 3.882-.897 2.802-1.654 5.792-1.791 8.709-.141 1.65-.057 3.311.107 4.942.42 3.07.53 6.179.302 9.26.011.05.023.1.023.153-.031.234-.035.464-.042.701-.073 3.981-.886 8.085-.073 12.013.409 2.082 1.062 4.207 2.322 5.922a.901.901 0 0 1 .1.291c.114.157.233.31.343.467 1.375 1.715 2.857 3.342 4.297 4.995 1.234 1.945 2.445 3.928 3.37 6.041 2.241 5.034 3.192 10.619 3.085 16.113-.229 3.525-1.333 6.898-2.742 10.11-1.692 4.092-4.194 7.687-6.543 11.385-1.157 2.178-2.28 4.425-2.99 6.779-.944 3.369-1.112 6.895-1.192 10.378 0 .49-.008.98-.03 1.47-.005.211-.008.425-.012.636-.035 4.758-1.65 9.57-.516 14.283.065.26.141.52.222.777 1.653 4.092 4.281 7.759 7.111 11.143 2.124 2.5 4.645 4.705 6.463 7.442a15.48 15.48 0 0 0-.978-1.631c-2.07-3.353-4.438-6.477-6.516-9.811l-.007-.004Zm8.288-158.534c-.416 0-.78-.306-.795-.735-.015-.402.317-.796.734-.796.416 0 .779.306.794.735.015.402-.317.796-.733.796Zm-5.065-19.014c-.409-.912.925-1.558 1.38-.659 1.256 2.879 2.688 5.704 3.738 8.667.508 1.903.512 3.709.737 5.627.027.996-1.45 1.072-1.527.062-.176-1.624-.256-3.22-.554-4.809-.982-3.066-2.494-5.941-3.774-8.888Zm-4.255 85.677c-1.13-1.482-1.867-3.189-2.368-4.977-.282-.964 1.127-1.416 1.455-.467.455 1.658 1.15 3.231 2.193 4.606.538.838-.714 1.669-1.28.838Zm3.083 4.575c-.417 0-.78-.307-.795-.735-.015-.402.317-.797.734-.797.416 0 .779.307.794.735.015.402-.317.797-.733.797ZM143.896 103.735c-1.027 1.144-2.509 1.987-3.923 2.48-.412.222-.813.46-1.214.705a44.632 44.632 0 0 1 1.768 2.672c1.692 2.97 3.105 6.079 4.312 9.272.401-1.425 1.081-2.776 1.899-3.997 1.253-2.289 2.731-4.479 4.48-6.42a13.124 13.124 0 0 1-2.219-1.19 16.215 16.215 0 0 1-5.111-3.526l.008.004Z"/><path fill="#A4D357" d="M162.39 263.456c-2.081-3.97-5.347-7.331-7.536-11.232-2.127-3.415-4.022-6.753-5.301-10.129-1.459.038-2.727 1.19-3.468 2.381-.543.965-.531 2.182-.287 3.231a.854.854 0 0 1 .115.467c.924 2.002 2.269 3.774 3.732 5.424.874.858 1.661 1.792 2.475 2.711a28.623 28.623 0 0 1 3.2 3.476c1.112 1.171 2.124 2.446 2.85 3.897 1.344 2.859 2.627 5.799 3.2 8.927.05.26.088.524.13.785.344-.364.634-.77.871-1.214.474-1.06.497-2.239.676-3.369.241-1.401-.08-2.802-.34-4.18-.061-.364-.282-.789-.321-1.171l.004-.004Z"/><path fill="#E2FFB4" d="M181.732 119.587c-1.195-2.461-2.528-4.885-3.701-7.331a72.022 72.022 0 0 0-2.643-4.395 4.826 4.826 0 0 0-1.085-.424c-.397.03-.794.068-1.192.114-1.905.176-3.743.72-5.633.988-1.979.268-3.934.574-5.905.754.592.796 1.13 1.639 1.719 2.443a55.727 55.727 0 0 1 3.483 5.229c1.451 2.553 3.078 5.003 4.587 7.518a.748.748 0 0 1 .294.375c.107.238.207.483.298.724 1.601 3.2 2.59 6.68 3.518 10.125.244.976.428 1.968.6 2.959.355 2.029.015 4.085-.199 6.11-.435 2.798-.833 5.696-2.127 8.246-1.475 2.396-2.938 4.808-4.244 7.304-4.736 10.294-6.776 22.061-4.916 33.286.436 4.356 2.12 8.391 3.908 12.338 1.558 3.625 3.292 7.162 5.11 10.665 1.99 4.651 3.212 9.716 3.346 14.78.153 4.958-.382 9.969-2.12 14.639-.607 2.236-1.661 4.284-2.738 6.32-.875 2.251-2.372 4.158-3.407 6.328-1.57 3.468-2.766 7.094-3.48 10.838-1.642 6.99-.718 14.393 2.521 20.756 1.696 3.544 4.018 6.729 5.844 10.198 1.36 2.362 2.311 4.923 3.365 7.43l.378 1.022c-.023-.099-.042-.203-.065-.302-.535-2.136-1.123-4.272-2.021-6.29-1.172-2.921-2.436-5.868-3.513-8.789-1.001-2.354-2.059-4.713-2.395-7.277-1.349-6.746-.673-13.774 1.806-20.178 1.467-4.41 3.984-8.311 6.635-12.09 1.046-1.282 1.646-2.817 2.234-4.348.841-1.941 1.371-3.986 1.83-6.049.928-3.943 1.585-7.802 1.199-11.825-.508-3.526-1.268-6.994-2.441-10.344-.893-2.281-1.783-4.563-2.75-6.814-.981-2.055-1.936-4.123-2.658-6.289-2.551-6.412-4.316-13.173-4.606-20.087a52.656 52.656 0 0 1 .779-11.358c1.027-4.318 3.006-8.337 5.076-12.234 2.949-5.023 6.233-9.934 8.078-15.508.764-2.929 1.444-5.964 1.727-8.958.011-2.699-.291-5.175-.684-7.786-.626-4.433-2.047-8.717-3.808-12.817l-.004.004Zm-7.456 135.554c-.416 0-.779-.306-.794-.735-.015-.402.317-.796.733-.796.417 0 .78.306.795.735.015.402-.317.796-.734.796Zm4.175-13.777c-.168-.931 1.169-1.287 1.478-.383.165 1.286-.355 2.599-.664 3.836-.352 1.102-.516 2.262-.97 3.33-.436 1.037-.994 2.014-1.536 2.994a.774.774 0 0 1-1.031.329c-1.009-.636.16-1.7.451-2.439.798-1.347 1.184-2.982 1.569-4.459.31-1.053.619-2.121.703-3.208Zm-1.325-118.852c-1.093-2.446-2.105-4.981-3.793-7.086-.642-.754.489-1.757 1.161-.999 1.452 1.787 2.448 3.878 3.365 5.975a66.562 66.562 0 0 1 2.597 6.654c.485 1.485.845 3.02 1.07 4.563.134.528-.092 1.129-.699 1.156-.428.019-.76-.318-.795-.735-.393-3.342-1.676-6.447-2.906-9.532v.004Zm3.93 15.224c-.416 0-.779-.306-.794-.735-.016-.402.317-.796.733-.796s.779.306.794.735c.016.402-.317.796-.733.796Z"/><path fill="#FDFFF9" d="M121.208 58.704c.275 7.92-4.874 14.712-11.798 17.265a89.503 89.503 0 0 0 17.023-2.637c4.263-.85 8.224-2.676 12.177-4.426 2.131-.811 4.163-1.826 6.149-2.902.134-.206.363-.375.611-.478.417-.345.852-.72 1.238-1.076 3.013-2.37 3.04-7.005.344-9.624-.126-.16-.298-.29-.44-.436-2.704-1.86-5.504-3.556-8.467-5.007-7.72-3.694-16.26-5.574-24.701-6.554a68.9 68.9 0 0 0-3.652-.364c6.249 2.362 11.233 8.131 11.52 16.24h-.004Z"/><path fill="#A4D357" d="M87.967 53.736c-3.87 11.002 4.862 22.509 16.439 21.732 11.619-.681 18.815-13.345 13.529-23.7-6.593-12.832-25.121-11.584-29.968 1.968Zm6.55 3.043c.088.145.188.283.302.417a3.785 3.785 0 0 0 .73.686c.08.057.16.107.244.156.13.077.264.142.401.192.272.1.546.16.825.187.16.07.329.127.5.165.21.046.44.077.673.077.39 0 .783-.077 1.115-.238.348-.176.653-.36.928-.64a3.59 3.59 0 0 0 .524-.684c.198-.337.332-.705.443-1.08.076-.268.114-.547.122-.823.011-.455.008-.896-.077-1.347a3.1 3.1 0 0 0-.664-1.463 2.199 2.199 0 0 0-.267-.264c-.092-.076-.184-.153-.283-.222-.008-.008-.015-.011-.023-.019-.115-.08-.233-.16-.348-.241l-.007-.008c-.107-.115-.21-.23-.329-.33a2.64 2.64 0 0 0-.32-.233c5.114-2.79 12.084.046 13.318 6.194 1.268 5.735-3.369 11.075-8.926 11.075a8.86 8.86 0 0 1-1.956-.222C96.08 67 93.295 61.537 94.518 56.78Z"/><path fill="#FDFFF9" d="M60.535 66.667c.119.091.191.199.241.306 3.254 1.654 6.615 3.058 10.022 4.368 5.355 2.186 10.94 3.71 16.669 4.483 3.61.41 7.238.509 10.87.478-11.562-3.357-16.722-17.563-9.43-27.624 2.066-2.806 4.602-4.762 7.34-5.956-.587.069-1.18.134-1.768.218-5.74.811-11.412 2.033-16.76 4.23-2.822 1.236-5.523 2.74-8.09 4.444-2.734 1.578-5.312 3.396-7.826 5.306a.706.706 0 0 1-.309.326c-2.242 1.864-3.674 5.424-2.192 8.134.347.483.84.846 1.241 1.287h-.008Z"/><path fill="#E2FFB4" d="M211.883 108.596c-1-1.592-2.444-2.821-3.834-4.054-1.272-1.068-2.216-2.519-3.69-3.334-1.425-.77-2.742-1.8-4.224-2.255a4.25 4.25 0 0 1-.623-.05c-.89.119-1.726-.214-2.49-.624-.818-.562-.023-1.791.832-1.282.348.153.657.283.951.379h.367c.019-.012.038-.02.057-.027a5.635 5.635 0 0 0 1.314-2.262 3.679 3.679 0 0 0-.103-.843c-.229-.995-.699-1.982-1.497-2.63-1.719-1.619-4.041-2.323-6.226-3.085-3.067-.67-6.184-1.317-9.01-2.745-3.556-1.7-6.703-4.207-9.297-7.162-3.487-4.414-4.656-10.462-3.716-15.952.557-4.651 2.88-8.77 4.404-13.13a15.6 15.6 0 0 0 1.26-4.307c-.023-.16 0-.337.061-.51.153-1.435.103-2.882-.187-4.267-.134-.475-.267-.958-.47-1.405a.89.89 0 0 1-.133-.234c-.963-1.267-1.971-2.496-3.121-3.602a37.09 37.09 0 0 1-2.639-2.944c-2.307-2.79-4.847-5.31-7.441-7.798-2.184-2.343-4.774-4.471-7.287-6.393-3.113-2.37-6.287-4.666-9.686-6.607-.367-.062-.711-.295-1.1-.314-2.384-.482-4.802.157-7.074.876-1.879.701-3.243 2.27-4.946 3.289-4.026 3.028-7.639 6.561-11.512 9.773-.157.115-.317.233-.482.352-.08.153-.195.295-.332.406-.233.306-.611.616-.875.846-.699.64-1.699.953-2.005 1.906-.344 1.578 1.104 2.305 2.403 2.6a.8.8 0 0 1 .546.222c3.013.681 5.985 1.554 8.934 2.457 3.277.846 6.313 2.416 9.487 3.568 4.603 2.443 9.518 4.51 13.269 8.246.592.67 2.456 1.49 1.704 2.465a.773.773 0 0 1-1.077.088c-1.345-1.121-2.712-2.43-4.068-3.506-3.228-2.416-6.959-4.004-10.489-5.91-3.643-1.421-7.211-3.021-11.004-4.028-4.018-1.168-8.162-2.316-12.302-2.833-13.155-1.504-26.68.597-38.806 5.888-2.766 1.175-5.401 2.614-8.037 4.058-1.653.876-3.315 1.745-4.816 2.87-1.161.881-2.307 1.78-3.533 2.566-.86.425-2.238 2.052-2.975 1.075-.23-.329-.165-.846.19-1.068 1.685-1.083 3.35-2.205 4.928-3.437 1.6-1.29 3.418-2.251 5.225-3.216 5.27-3.017 10.824-5.513 16.622-7.335 5.535-1.638 11.264-2.73 17.035-3.18a.733.733 0 0 1 .367-.165c.187-.023.37-.073.542-.146.699-.433 1.089-1.482.524-2.167-.207-.29-.589-.57-.841-.88-1.535-1.003-3.02-2.079-4.235-3.468-3.03-3.453-5.199-7.565-7.735-11.374-1.639-2.24-3.384-4.659-6.008-5.784-.802-.08-1.6-.295-2.41-.276-.608.092-1.024.15-1.6.207-.218.023-.463.05-.692.03a96.965 96.965 0 0 0-5.806 2.052c-3.449 1.608-6.905 3.205-10.156 5.191-2.83 1.486-5.504 3.262-8.059 5.164-.405.44-.836.873-1.096 1.432-.561 1.03-.959 2.247-1.012 3.438.011.053.019.11.023.168-.004.046-.023.088-.035.13 0 .184.012.368.03.548.18 2.829.99 5.558 1.735 8.28.867 3.426 1.058 7.787-2.189 10.026-1.24.842-2.715 1.248-3.987 2.048-2.074 1.351-3.717 3.442-4.263 5.884-.691 2.932-.122 5.842.34 8.751.39 3.441-.053 7.27-2.009 10.171-2.402 3.649-6.382 5.789-10.465 7.002-7.3 2.163-16.096 4.042-18.8 12.223.015.18-.015.372-.08.544.114 1.585.974 3.158 2.284 4.05.149.02.267.069.363.138.233-.084.466-.161.71-.222.944-.119 1.207 1.275.28 1.504a.609.609 0 0 0 .117-.038c-2.46.731-4.27 2.63-6.294 4.115-2.135 2.025-4.106 4.223-5.47 6.856-.928 1.524-1.703 3.109-2.15 4.843-.947 3.066-1.241 6.741.554 9.555 1.394 1.757 3.823 2.561 5.886 3.108 1.799.238 3.582.51 5.332 1.003 2.36.406 4.805.414 7.096 1.172.058.015.111.038.168.057.123.004.252.031.39.088 1.096.207 2.273.299 3.361.284 1.623-.131 3.19-.82 4.442-1.838 1.245-1.083 1.872-2.664 2.731-4.042.294-.502.554-1.026.833-1.539a.918.918 0 0 1 .095-.131c.023-.042.042-.084.065-.126 1.05-2.124 2.074-4.272 3.541-6.148.176-.249.351-.498.53-.746.104-.157.203-.322.26-.506.367-1.029.41-2.186.524-3.238-.1-3.017-2.544-4.667-5.198-5.44a1.225 1.225 0 0 1-.467-.123c-2.238-.183-4.514.414-6.367 1.834-2.543 1.696-5.511 2.565-8.334 3.656-1.23.574-2.421 1.328-3.548 2.033-1.219.899-2.173 2.144-2.28 3.702-.317 3.391 5.27 4.168 7.757 4.214 1.012.1.867 1.581-.122 1.528-3.678-.054-9.858-1.42-9.098-6.232.206-1.899 1.436-3.43 2.945-4.514.947-.631 1.967-1.156 2.937-1.753 1.497-.758 3.254-1.221 4.763-1.849 2.013-.716 3.804-1.861 5.61-2.967 3.255-1.776 7.254-1.57 10.458.218 1.643.919 2.903 2.362 4.255 3.645.982 1.167 2.105 2.289 3.633 2.656 1.757.483 3.636.601 5.42.896 3.422.509 7.047.544 10.247-.938 2.132-.846 3.553-2.802 5.669-3.69 1.944-1.064 3.811-2.312 5.923-3.02 2.384-.747 4.867-1.076 7.319-.452.74.187 1.417.559 2.089.915 1.245.67 2.56 1.194 3.793 1.879 2.448 1.348 5.145 2.255 7.864 2.856 5.046.609 10.301.165 14.896-2.09.313-.134.63-.26.951-.379-.065-.057-.126-.115-.187-.172-.527-.475-1.52-1.229-.775-1.937.458-.383 1-.1 1.295.333.359.348.741.677 1.111 1.022 2.051 1.937 4.194 4.031 6.963 4.812 3.033.766 6.214.758 9.32.942 1.623-.081 3.277.023 4.862-.387 2.673-.75 5.015-2.301 7.371-3.709 1.249-.464 2.46-1.061 3.419-2.003.092-.099.187-.206.286-.31-.519-.627-1.012-1.278-1.527-1.91-.253-.333-.245-.796.087-1.08.306-.26.825-.244 1.078.089.805.976 1.543 2.017 2.433 2.92 1.39 1.52 3.116 2.539 4.957 3.396 1.009.578 2.021 1.179 3.151 1.493 2.823.643 5.775.448 8.64.272 2.315-.295 4.629-.574 6.929-.965a36.261 36.261 0 0 1 4.965-.834.923.923 0 0 1 .294-.111c.206-.023.409 0 .611.038.302-.019.604-.035.909-.046 1.498-.038 3.002-.058 4.488.153 1.429.172 2.788.678 4.194.953 1.406.283 2.811.578 4.137 1.141.053.023.103.054.156.077.099.038.195.084.279.137 1.81.904 3.472 2.133 4.969 3.492 1.035.861 1.914 1.875 2.796 2.886 1.65 1.761 3.25 3.997 2.884 6.527-.107.643-.378 1.493-1.158 1.447-.416-.019-.733-.417-.699-.823a.736.736 0 0 1 .268-.517c.642-2.997-2.185-5.172-3.881-7.243-1.711-1.676-3.59-3.211-5.714-4.341a.802.802 0 0 1-.317-.138c-1.436-.31-3.086-.367-4.385.395-1.05.589-1.906 1.508-2.322 2.641-.091.705-.176 1.466.035 2.148a.85.85 0 0 1 .03.183c.015.039.027.077.046.111 1.199 2.385 2.559 4.686 3.877 7.006.821 1.573 1.447 3.265 2.631 4.621 1.391 1.879 3.74 2.798 6.02 2.798a1.45 1.45 0 0 1 .279-.023c2.154-.287 4.316-.195 7.337-.345a23.583 23.583 0 0 0 3.457-.581c1.936-.544 4.045-.992 5.511-2.477 3.19-3.028 3.491-6.098 2.968-10.263-.302-2.424-.267-5.008-1.398-7.232h-.008ZM127.465 29.4c-.417 0-.741-.414-.718-.812.026-.436.393-.72.809-.72.417 0 .741.414.718.812-.026.437-.393.72-.809.72Zm21.752 8.498c-.264.31-.772.368-1.077.088a13.633 13.633 0 0 0-3.121-2.323c-1.7-1.08-3.491-1.987-5.424-2.577-2.379-1.052-4.896-1.71-7.459-2.163-.974-.21-.703-1.669.29-1.504 2.372.463 4.843.957 7.032 1.983 1.448.54 2.945.984 4.301 1.746.962.646 6.661 3.445 5.454 4.75h.004ZM83.483 11.511a.774.774 0 0 1 1.058-.222c2.357 1.504 3.506 4.012 4.763 6.393.336.83 2.116 2.454.94 3.15-.36.184-.852.043-1.028-.336-.504-.954-1.13-1.796-1.623-2.753-.917-1.818-1.853-3.667-3.522-4.923-.481-.252-.955-.758-.588-1.313v.004Zm-1.73-2.65c.416 0 .748.399.73.801-.02.429-.383.731-.799.731-.416 0-.749-.398-.73-.8.02-.429.383-.731.799-.731Zm-63.82 85.276c-.417 0-.783-.287-.806-.723-.023-.398.305-.808.722-.808.416 0 .783.287.806.724.022.398-.306.807-.722.807Zm25.43 8.702c-2.116-1.122-3.598-3.136-5.71-4.253-1.417-.969-2.972-.923-4.568-1.24-1.337-.18-2.62.336-3.938.42-.997-.065-.936-1.55.069-1.53 1.653-.284 3.342-.701 5.01-.238 1.444.141 2.861.406 4.103 1.217 2.112 1.06 3.583 3.009 5.614 4.2.974.405.398 1.852-.58 1.424Zm4.774 1.573c-.416 0-.745-.398-.725-.8.019-.429.382-.727.798-.727.416 0 .745.398.726.8-.02.428-.382.727-.799.727Zm4.779-40.938c-.165-.486.21-.88.649-1.152.668-.582 1.253-1.252 1.898-1.857 4.461-4.54 9.797-8.043 15.202-11.331 9.774-6.095 21.515-7.99 32.848-8.449 6.497.015 12.967.808 19.307 2.125 5.664 1.156 11.245 2.89 16.432 5.459 3.957 2.002 7.681 4.429 11.225 7.086 1.41 1.09 2.754 2.025 3.824 3.445.389.46 1.088 1.053.737 1.642a.758.758 0 0 1-.081.268c-.191.371-.477.678-.771.972-2.349 2.04-5.08 3.668-7.78 5.15-2.464 1.4-5 2.637-7.639 3.663-2.827 1.248-5.649 2.526-8.598 3.46a141.035 141.035 0 0 1-12.127 2.692c-6.127.853-12.314 1.056-18.49 1.182-6.318.077-12.658-.156-18.815-1.707-3.273-.635-6.398-1.822-9.518-2.978-2.57-1.045-5.046-1.907-7.536-3.078-2.498-1.152-5-2.396-7.349-3.817-1.054-.543-1.96-.96-2.888-1.615-.439-.207-.767-.716-.546-1.164l.016.004ZM66.75 87.251c-.416 0-.741-.414-.718-.812.026-.436.393-.72.81-.72.416 0 .74.414.718.812-.027.436-.394.72-.81.72Zm33.959 4.865a63.99 63.99 0 0 1-7.066.088c-2.425-.15-4.862-.092-7.276-.417-3.182-.322-6.299-1.091-9.454-1.608a50.726 50.726 0 0 1-6.928-1.757.772.772 0 0 1-.485-.969c.458-1.133 1.963-.015 2.792.077 4.236 1.198 8.61 1.772 12.921 2.603 3.549.425 7.17.502 10.73.597 1.55-.034 3.112-.007 4.659-.145.989-.058 1.115 1.424.111 1.527l-.004.004Zm40.941.873c-.416 0-.748-.39-.733-.796.019-.43.378-.735.794-.735.417 0 .749.39.734.796-.019.429-.378.735-.795.735Zm-2.177-13.177c-.936.437-1.925.743-2.887 1.107-1.658.6-3.052 1.363-4.679 1.94a147.224 147.224 0 0 1-6.138 1.869c-3.09.765-6.23 1.366-9.373 1.853-5.195.658-10.443.807-15.676.853-5.343.065-10.652-.509-15.912-1.428-7.356-1.156-14.705-2.928-21.595-5.761-2.391-.965-4.755-1.998-7.059-3.154-.794-.406-1.604-.808-2.356-1.287a.774.774 0 0 1-.222-1.06.775.775 0 0 1 1.058-.226c.165.103.333.203.5.303 1.941 1.087 3.97 1.99 5.997 2.894 7.819 3.48 16.096 5.62 24.54 6.871 3.587.613 7.189 1.091 10.829 1.233 6.149.218 12.15 0 18.246-.582 4.877-.601 9.717-1.612 14.403-3.105 2.204-.597 4.27-1.554 6.367-2.442 1.979-.712 3.953-1.436 5.749-2.561 1.669-.95 3.353-1.868 4.85-3.082 1.215-1.045 2.621-1.81 3.969-2.66 1.719-1.218 3.258-2.672 4.9-3.985.619-.72 1.826.172 1.161.991-.447.479-.989.858-1.505 1.26-.863.7-1.68 1.454-2.543 2.151-1.161.95-2.502 1.635-3.743 2.462-2.728 2.2-5.741 3.992-8.877 5.546h-.004Zm15.385 23.563c-1.963-.402-3.827-1.206-5.435-2.408-1.05-.632-2.066-1.306-2.945-2.167a20.968 20.968 0 0 1-2.754-2.645c-.359-.28-.489-.796-.172-1.164.974-.923 1.757.823 2.426 1.355.431.406.89.777 1.34 1.16a14.988 14.988 0 0 0 2.903 2.155c1.517 1.126 3.262 1.93 5.13 2.244.554 0 1.26-.012 1.333.704.046.999-1.142.9-1.826.769v-.003Z"/><path fill="#A9A9A9" d="m164.063 198.999.023-.031c-.004-.02-.012-.039-.015-.062 0 .031 0 .062-.004.093h-.004Z"/><path fill="#000" d="M209.599 103.861c-1.061-.869-1.97-1.895-2.933-2.864-.623-.562-1.333-1.002-2.055-1.427-.038-.682-.168-1.363-.248-2.04-.321-2.527-1.341-4.866-2.154-7.255-1.016-4.701-2.922-9.038-4.141-13.705-1.837-5.654-4.358-11.07-7.073-16.365-1.987-3.905-4.347-7.534-6.513-11.343-1.463-2.714-3.346-5.168-5.194-7.622-1.219-1.672-2.384-3.388-3.713-4.976-1.959-2.155-4.006-4.23-5.832-6.508-2.739-3.093-5.775-5.903-8.693-8.82a109.582 109.582 0 0 0-12.387-9.322c-5.718-3.632-11.97-6.281-18.402-8.387a110.969 110.969 0 0 0-8.644-1.853C114.914.241 108.104-.276 101.313.15c-4.847.322-9.626 1.29-14.396 2.167-3.927.739-7.72 1.998-11.52 3.2-3.647 1.168-7.047 2.975-10.469 4.667a347.278 347.278 0 0 0-7.689 4.417c-1.199.816-2.383 1.65-3.556 2.512a1.05 1.05 0 0 0-.382.256c-.026.027-.05.058-.08.084-2.6 1.934-5.106 4-7.406 6.29-2.185 2.17-4.488 4.23-6.36 6.692-1.199 1.431-2.486 2.798-3.456 4.406-1.05 1.75-2.326 3.35-3.361 5.106-1.073 1.968-2.097 3.802-3.4 5.693a185.454 185.454 0 0 0-10.404 18.41c-1.669 3.529-3.56 7.009-4.732 10.745-1.39 4.678-2.254 9.44-3.56 14.156-.481 1.505-.619 3.082-.928 4.625-.424 1.466-.993 2.886-1.387 4.36a.672.672 0 0 0 .016.348c-.608.605-1.184 1.237-1.795 1.838-1.918 2.044-3.247 4.548-4.565 7.001-1.722 3.951-2.769 8.786-.84 12.844 1.035 2.278 3.476 3.445 5.722 4.211 2.127.773 4.396.685 6.554 1.378 2.494.563 5.087.448 7.528 1.282 1.36.456 2.574 1.222 3.884 1.788 1.333.593 2.777.819 4.164 1.248-1.146 5.16-2.143 10.474-1.123 15.722 1.299 5.141 4.049 9.743 6.772 14.233 2.616 4.265 5.187 8.506 7.024 13.196 1.134 2.959 2.227 5.937 2.952 9.038 1.177 6.412.256 13.291-3.197 18.903-4.72 8.698-9.728 17.621-10.74 27.647-.214 2.446-.31 4.942.034 7.381.29 1.718.936 3.342 1.51 4.98 1.53 4.674 4.185 8.866 6.985 12.87 1.822 2.37 3.384 4.919 4.782 7.557 1.146 2.373 2.586 4.486 3.518 6.979 1.848 5.979 1.49 12.567-.535 18.455-1.108 3.131-2.998 5.903-4.625 8.774-1.7 3.139-3.587 6.186-5.012 9.467-.779 1.742-1.294 3.583-1.894 5.39-.16.452-.325.9-.592 1.302a.886.886 0 0 0-.141.21 2.299 2.299 0 0 0-.237-.08c-1.608-.433-3.289.417-4.557 1.359-3.151 2.362-4.331 8.781.084 10.42 1.345.498 2.907.877 4.27.222 3.01-1.55 5.065-5.62 3.354-8.805a5.6 5.6 0 0 0-1.371-1.845 5.59 5.59 0 0 0-.333-.406c.34-.329.63-.93.89-1.627.482-.195.715-.961.905-1.477.295-.823.68-1.608 1.013-2.416 1.21-2.794 2.933-5.348 4.488-7.962 2.425-4.089 5.653-7.737 7.44-12.193a27.046 27.046 0 0 0 1.066 3.3c.099.318.206.635.336.949a.814.814 0 0 0 .195.318c1.768 3.954 4.361 7.538 7.176 10.822 1.937 2.194 4.053 4.238 5.825 6.569 1.349 1.887 2.177 4.249 2.445 6.596-.925.314-1.773.835-2.414 1.547-1.024 1.125-1.876 2.496-2.135 4.011-.15 1.528.504 3.151 1.466 4.315.611.62 1.494.899 2.33 1.068 3.755.811 7.303-1.355 7.868-5.249.447-1.917-.473-3.962-1.986-5.156a5.108 5.108 0 0 0-1.944-.785c.084-.218.164-.425.256-.586 1.195-2.078 2.528-4.061 3.942-6.029 1.673-2.634 3.666-4.992 5.649-7.415 1.764-2.136 3.262-4.479 4.763-6.806.909-1.505 1.913-2.952 2.708-4.518.214-.432.45-.868.668-1.316.325.754.692 1.493 1.104 2.208.879 1.673 1.715 3.377 2.827 4.908 1.753 2.798 3.914 5.26 5.56 8.15 1.597 2.898 3.007 5.949 3.793 9.176.096.582.211 1.16.321 1.742a3.14 3.14 0 0 0-.24.161c-1.314.98-2.239 2.435-2.812 3.958-.733 1.746-.397 3.698 1.307 4.716 1.424.862 3.059 1.512 4.724 1.639 3.759-.069 6.914-2.033 6.562-6.167-.068-.785-.084-1.604-.359-2.351-.24-.662-.733-1.148-1.077-1.745a2.001 2.001 0 0 0-.107-.123 4.042 4.042 0 0 1-.011-.276 2.813 2.813 0 0 1-.038-.405.65.65 0 0 0 .16-.318c.031-.257.034-.517.122-.762 1.173-3.193 2.747-6.224 4.771-8.973 1.829-2.775 4.213-5.111 6.207-7.767 1.035-1.509 2.093-2.998 3.074-4.54.692-1.13 1.238-2.336 1.742-3.561.038.104.08.211.118.314 2.869 5.57 7.135 10.195 10.573 15.401 2.494 3.637 4.805 7.526 5.366 11.963a3.077 3.077 0 0 0-.412.141c-2.304.904-4.549 3.825-4.496 6.344.298 2.071 2.322 3.567 4.32 3.778 3.625.513 6.34-2.086 6.05-5.731-.076-1.091-.336-2.247-.94-3.166a5.247 5.247 0 0 0-2.047-1.271c.031-.088.057-.172.084-.248a8.903 8.903 0 0 1 .753-1.662c1.459-2.618 3.346-4.984 5.301-7.243 4.205-4.857 8.541-9.708 11.634-15.392.825-1.398 1.479-2.891 2.025-4.418a31.563 31.563 0 0 0 2.047 4.54c1.478 3.059 3.499 5.807 5.099 8.793 1.585 2.737 2.727 5.693 3.907 8.617 1.062 3.032 2.208 6.152 2.055 9.414-1.489.214-2.979 1.24-3.949 2.492-1.001 1.24-1.891 2.756-1.94 4.387.087 1.55.802 3.15 2.287 3.813 2.838 1.527 6.795.302 8.147-2.661.677-1.432.627-3.154-.21-4.509-.126-.762-.473-1.486-.947-2.094-.447-.59-.959-.984-1.505-1.214 0-.475-.015-.949.016-1.424.351-7.3-2.403-14.244-5.241-20.829-1.039-3.039-2.666-6.09-3.453-9.26-1.929-8.855-.687-16.182 2.949-24.366.993-1.972 2.097-3.882 3.376-5.681 1.043-1.719 2.433-3.239 3.22-5.103 1.746-3.809 2.724-7.882 3.476-11.993.607-3.055.741-6.221.359-9.314-.546-3.174-1.199-6.359-2.231-9.41-1.447-4.069-3.292-7.97-4.976-11.936-2.403-6.071-4.366-12.307-4.989-18.853-.378-4.969-.29-10.099.978-14.942.955-3.116 2.284-6.132 3.835-9 2.899-5.443 6.612-10.535 8.659-16.418.634-1.857.989-3.786 1.363-5.708.306-1.482.638-2.975.673-4.494.015-2.29-.222-4.583-.535-6.849.141.038.29.038.435-.011.925-.318 1.761-.846 2.674-1.199 1.165-.486 2.322-.853 3.564-1.041h.08a1.22 1.22 0 0 0 .45-.069l.126-.015c2.403-.299 4.909-.023 7.322-.318 2.418-.264 4.794-.888 7.051-1.784 2.853-1.328 4.985-4.165 5.825-7.166.489-2.412.164-4.889-.08-7.308-.405-5.16-1.054-7.097-5.069-10.516l.019.008ZM28.574 319.71c-.042-.387-.088-.781-.027-1.168-.023.395.111.781.027 1.168ZM177.886 45.218c.325-.59 1.199-.467 1.78-.475.137.057.283.1.424.119.825 1.13 1.616 2.277 2.334 3.483 2.536 4.514 5.374 8.851 7.7 13.487 1.833 3.656 3.521 7.304 5.053 11.128.859 2.343 1.631 4.567 2.276 7.01.52 1.806 1.246 3.54 1.792 5.34.114.386.233.77.351 1.152-.046.203-.042.436-.061.65-.099.663-.645 1.15-1.253 1.356a2.55 2.55 0 0 1-1.165-.015.809.809 0 0 0-.343-.035c-3.239-1.577-6.898-1.864-10.283-3.097-4.384-1.657-8.326-4.536-11.294-8.177-1.856-2.576-2.826-5.707-3.197-8.839-.309-3.055.195-6.117.978-9.065.798-2.408 1.837-4.727 2.788-7.074.577-1.838 1.543-3.541 1.876-5.455.095-.486.175-.988.244-1.49v-.003ZM87.811 4.15c.366-.203.668-.272 1.084-.448.054-.016.298-.13.432-.157a.787.787 0 0 0 .53-.23c3.61-.681 7.227-1.282 10.902-1.6 6.046-.394 12.039-.157 18.055.792 3.601.464 7.15 1.248 10.679 2.09a96.969 96.969 0 0 1 8.273 3.055c.011.008.019.016.031.023.156.127.191.353.248.536.015.52-.069 1.038-.31 1.509-.137.222-.301.451-.401.685-.657.226-1.298.486-1.913.8-1.704 1.19-3.354 2.461-5.046 3.671-1.745 1.459-3.495 2.906-5.21 4.399-3.277 2.97-6.607 6.002-10.522 8.111-3.308 1.826-5.202 2.087-8.747.586-2.952-1.623-5.985-3.304-8.258-5.85-3.044-3.613-5.225-7.893-7.948-11.744-.638-.877-1.318-1.75-2.063-2.557a.957.957 0 0 0-.026-.226c-.092-.425-.417-.731-.627-1.095-.374-.834.138-1.853.837-2.35ZM15.43 77.037c.027-.383.008-.792.134-1.167a.77.77 0 0 0-.046-.532c1.18-3.58 2.91-6.98 4.545-10.37 2.487-5.054 5.168-10.004 8.15-14.8 1.189-2.056 2.518-4.02 3.79-6.018 1-1.627 1.719-3.235 2.83-4.839 1.184-1.635 2.215-3.373 3.369-5.026 1.616-1.9 3.143-3.882 4.85-5.708 1.678-1.612 3.297-3.285 4.993-4.88.026-.016.05-.024.076-.043.363-.192.783-.272 1.169-.413.489-.088 1.008.118 1.333.49-.004 1.079.141 2.174.325 3.23.557 3.787 2.475 7.462 1.83 11.355-.524 2.718-2.74 3.514-4.959 4.528-3.708 1.838-6.115 5.727-6.191 9.862-.298 3.46 1.111 6.787.699 10.267-.015.31-.042.616-.08.922.03.314.038.628-.012.946a3.847 3.847 0 0 1-.664 1.665c-.97 2.47-2.792 4.575-5.084 6.022-3.583 2.262-7.81 3.016-11.776 4.314-2.276.685-4.556 1.623-6.611 2.883a.792.792 0 0 0-.378.134c-.81.214-1.738-.322-2.074-1.069-.271-.547-.317-1.156-.218-1.753Zm36.423 198.741a28.73 28.73 0 0 1-1.177 6.083c-.882 3.767-2.52 7.247-4.686 10.474-.11.153-.218.31-.329.463.803-1.428 1.57-2.879 2.239-4.375 1.199-3.162 2.02-6.508 2.18-9.896.1-4.364-.137-8.927-2.184-12.87-.817-1.497-1.639-2.99-2.407-4.514-3.38-6.779-8.937-12.296-11.504-19.508-.798-2.312-1.83-4.597-2.005-7.066-.313-5.965.768-11.96 3.098-17.461 1.547-4.199 3.666-8.142 5.763-12.085 1.517-2.883 3.312-5.654 4.32-8.774 2.032-6.244 1.753-13.131-.53-19.263a73.869 73.869 0 0 0-5-11.661c-1.143-1.91-2.315-3.805-3.427-5.734-1.951-3.246-4.033-6.458-5.431-9.995-.974-2.251-1.784-4.579-1.86-7.056-.16-3.747.286-7.399 1.218-11.051.436-1.953.71-3.917 1.38-5.85.664-1.841 1.462-3.633 2.321-5.39 1.085-2.071 2.013-4.245 3.312-6.232.313-.429.619-.861.924-1.298.23-.168.37-.471.527-.742.772-1.076 1.578-2.125 2.529-3.048.244-.264.584-.505.84-.788.66.547 1.394.995 2.242 1.24 1.711.563 3.526.693 5.294.953 1.05.18 2.116.314 3.186.387-.2.168-.398.341-.593.517-1.638 1.435-3.189 2.993-4.411 4.804-5.699 6.703-8.063 15.699-7.49 24.404.336 5.364 1.91 10.566 3.732 15.592 1.497 3.396 2.96 6.799 4.316 10.252 1.696 3.974 2.868 8.054 3.445 12.177l.023.234c0 .019.011.038.015.057.894 6.692.23 13.483-2.3 20.098-1.466 3.729-3.78 7.181-5.576 10.795-3.53 6.872-6.627 14.218-7.226 21.997-.44 3.901.596 7.759 1.96 11.385.973 2.139 2.237 4.138 3.314 6.224 1.44 2.021 2.922 4.016 4.278 6.102 1.65 2.875 3.289 5.945 4.42 9.088a29.214 29.214 0 0 1 1.355 8.208c-.026 1.041-.053 2.086-.099 3.123h.004ZM29.94 125.486l.023-.015c0 .011-.007.023-.011.034a.082.082 0 0 1-.012-.019Zm27.963 2.932c-.344 1.03-1.115 1.746-1.856 2.523-.764.777-1.849 1.106-2.895 1.252a1.42 1.42 0 0 0-.524.015c-2.02-.283-3.724-1.37-5.477-2.346-.367-.288-.63-.693-.917-1.057-1.321-2.205-1.245-5.03-.309-7.377.107-.421.52-.896.707-1.351.668-1.057 1.394-2.079 2.188-3.001a18.91 18.91 0 0 1 1.253-1.654c.073.061.149.119.23.168a30.884 30.884 0 0 1 2.535 2.749.766.766 0 0 0 .298.36 59.836 59.836 0 0 1 2.422 3.25 34.138 34.138 0 0 1 2.269 3.954c.263.812.336 1.688.076 2.508v.007Zm2.88 6.259c.31 2.091.397 4.15.447 6.336.427 5.539-1.547 10.868-4.01 15.741-1.685 2.971-3.713 5.746-5.42 8.713-.203.387-.822 1.363-1.303 2.37-.11-.291-.225-.578-.34-.866-1.612-4.165-3.43-8.238-5.145-12.361-1.86-5.462-3.518-11.113-3.342-16.943a32.765 32.765 0 0 1 .863-7.832c.455.038.955.023 1.299.191.855.26 1.646.655 2.421 1.087.054.035.104.065.157.088 1.111.628 2.196 1.313 3.38 1.784 2.563 1.168 5.397.854 8.113 1.042.966.16 1.91.451 2.872.65h.008Zm-8.907 128.564c-.016.042-.027.081-.042.123-.764-2.087-1.788-4.058-2.838-6.014a21.17 21.17 0 0 0-2.22-3.813c-1.45-2.377-3.517-4.556-4.667-7.151-.874-1.543-1.84-3.059-2.417-4.751-1.047-3.058-1.906-6.243-1.574-9.52.443-6.96 3.105-13.59 6.088-19.83 1.895-4.012 4.465-7.783 6.215-11.886.175.497.366.987.508 1.477.45 1.313 1.333 2.412 2.089 3.56.886 1.268 1.791 2.527 2.81 3.687 1.116 1.424 2.392 2.718 3.538 4.111a35.781 35.781 0 0 1 6.027 21.304c-.481 5.133-2.712 9.995-5.221 14.47-1.043 1.765-2.204 3.453-3.323 5.168-.13.1-.23.234-.275.387-.065.103-.123.21-.184.318a46.475 46.475 0 0 0-1.86 3.116c-.932 1.73-1.99 3.38-2.654 5.244Zm8.368 38.04c-2.83-3.384-5.454-7.055-7.112-11.143a9.094 9.094 0 0 1-.221-.777c-1.135-4.717.481-9.529.516-14.283l.01-.636c.024-.49.031-.98.031-1.47.08-3.483.249-7.009 1.192-10.378.707-2.358 1.834-4.601 2.99-6.779 2.35-3.702 4.855-7.293 6.544-11.385 1.41-3.208 2.513-6.585 2.742-10.11.107-5.498-.844-11.079-3.086-16.113-.924-2.113-2.135-4.1-3.369-6.041-1.44-1.65-2.922-3.28-4.297-4.995-.11-.157-.229-.31-.344-.467a.75.75 0 0 0-.099-.291c-1.26-1.715-1.913-3.84-2.322-5.922-.818-3.924 0-8.032.072-12.013.012-.234.012-.467.042-.701a.677.677 0 0 0-.023-.153c.23-3.081.123-6.19-.301-9.26-.16-1.631-.248-3.292-.107-4.942.137-2.921.894-5.911 1.791-8.709.49-1.306 1.284-2.554 1.795-3.882.15-.364.382-.708.527-1.072l.046-.076c1.57-2.512 2.811-5.18 3.846-7.982.894-2.733 1.673-5.558 1.685-8.456.008-1.547-.069-3.09-.122-4.632-.115-3.193-.58-6.401-1.784-9.379a52.969 52.969 0 0 0-1.578-3.702 6.286 6.286 0 0 0-.465-1.126.983.983 0 0 0-.203-.222c-.924-1.772-1.986-3.468-3.25-5.068-.382-.49-.764-.98-1.158-1.466-.011-.046-.022-.096-.042-.142-.615-3.036.466-5.75 3.629-6.596 1.417-.241 2.94-.118 4.37.13.55.146 1.073.349 1.535.705.08.084.176.145.279.191a183.319 183.319 0 0 1 2.547 4.326c.546 1.229 1.112 2.45 1.772 3.625 1.654 3.641 2.968 7.423 3.706 11.362.584 3.296.569 6.653.385 10.015a18.238 18.238 0 0 1-.225 1.829.715.715 0 0 0-.15.533c-.014.172-.033.348-.056.52-.398 1.788-.99 3.533-1.574 5.268-1.883 4.72-4.56 9.176-6.875 13.723-1.929 3.695-4.01 7.331-5.305 11.313-.944 2.875-1.73 5.818-1.902 8.85-.344 3.58-.317 7.258.74 10.719.715 1.952 1.414 3.92 2.258 5.819 1.249 2.534 2.723 5.003 4.014 7.53 1.528 3.158 3.567 5.987 4.931 9.237 4.171 8.567 4.576 19.003.405 27.654-2.307 5.348-5.286 10.405-8.055 15.539-1.757 3.667-3.53 7.357-4.813 11.224-3.392 9.398-1.845 17.904 3.4 26.253 2.073 3.334 4.441 6.458 6.515 9.812.363.524.688 1.068.978 1.63-1.818-2.737-4.339-4.942-6.462-7.442l.007.004Zm34.319-167.036c-.669.896-1.593 1.6-2.579 2.128-.347.18-.836.268-1.123.509-.706.165-1.413.314-2.13.425-1.345.104-2.701.249-4.053.215a1.038 1.038 0 0 0-.16-.1c-.249-.13-.478-.295-.75-.387-1.733-1.458-2.173-2.714-2.272-4.953-.073-1.539.225-3.07.668-4.536.088-.341.321-.613.432-.931.32-.593.646-1.19.99-1.791 1.122-2.201 2.65-4.169 3.972-6.244.26-.39.79-.811 1.145-1.267 1.089 1.558 2.158 3.131 3.404 4.578a46.151 46.151 0 0 1 2.245 3.308c.02.065.046.126.08.187.142.161.188.379.287.567.443.808.611 1.715.863 2.592a6.604 6.604 0 0 1-1.02 5.696v.004Zm4.243 2.201c1.765 8.005.195 14.493-4.09 21.805-1.254 2.385-2.716 4.651-3.923 7.063-.726 1.397-1.219 2.894-1.818 4.349-1.51-2.542-3.514-4.675-5.233-7.09-6.615-8.9-7.876-16.817-5.619-25.204 2.136.765 4.294 1.657 6.589 1.703 1.952-.042 3.93-.1 5.844-.521 2.758-.662 5.473-1.539 8.254-2.101l-.004-.004Zm-16.046-13.322a106.373 106.373 0 0 0-1.669 3.047 3.453 3.453 0 0 0-.153.291c-5.553 10.665-8.04 20.852-1.417 32.455.84 1.47 1.776 2.863 2.762 4.226a.78.78 0 0 0 .282.49c.272.506.604.965.879 1.466 1.478 2.504 2.212 5.371 2.445 8.258.232 2.844.37 5.707.37 8.563-.13 2.19-.16 4.387-.103 6.581.06 2.576.21 5.137.447 7.702.18 2.381.443 4.827-.249 7.155-.309 1.309-.817 2.461-1.386 3.686-.126.356-.42.804-.52 1.218-2.673 4.448-5.87 8.563-8.433 13.088a1.598 1.598 0 0 0-.42.482c-.336.398-.607.808-1.108 1.007-2.26 1.309-2.971-3.441-2.998-4.9-.157-1.703.336-3.372.936-4.95.336-.731.706-1.454 1.119-2.151.069-.107.141-.218.206-.329 2.59-3.622 4.912-7.45 6.54-11.603.843-2.182 1.366-4.479 1.71-6.788.497-3.116.714-6.312.126-9.432-.82-4.571-2.26-9.096-4.8-13.016-.856-1.363-1.731-2.603-2.598-3.992-.737-1.122-1.54-2.052-2.196-3.224-.004-.291-.15-.608-.337-.853-.886-1.761-1.122-3.767-.954-5.72.424-3.862 1.71-7.656 2.265-11.507.81-3.928.61-8.005.267-11.978a40.7 40.7 0 0 0-.344-1.926c.05-.245.027-.52-.05-.762-.099-.723-.213-1.447-.35-2.166-1.842-6.416-.406-10.175 2.161-14.758a40.63 40.63 0 0 0 2.105-3.648c.084-.149.171-.299.26-.452a3.6 3.6 0 0 0 .511-.869.363.363 0 0 0 .057-.026c2.51-.728 5.428 1.994 7.342 4.739.29.49.595.972.916 1.447.409.712.722 1.386.92 1.948a.79.79 0 0 0 .192.448c-1.872 2.033-3.216 4.433-4.729 6.757l-.004-.004Zm-3.85 53.169.035.096c1.577 4.701 2.59 9.738 1.661 14.703-.584 5.769-3.136 11.048-6.256 15.853a36.196 36.196 0 0 1-1.647 2.423.71.71 0 0 0-.213.268l-.103.168c-.562.758-1.131 1.509-1.693 2.263a15.47 15.47 0 0 0-1.657 2.545c-.573-1.217-1.177-2.419-1.918-3.544-1.485-2.404-2.673-4.977-4.03-7.454-1.275-2.209-2.528-4.452-3.36-6.875-.852-2.109-1.67-4.245-1.891-6.531-.539-5.126.176-10.37 1.841-15.251 2.12-6.083 5.63-11.553 8.472-17.307.29.857.68 1.68 1.142 2.458.806 1.274 1.65 2.526 2.368 3.862 2.727 3.92 5.592 7.829 7.26 12.357 0-.011-.007-.023-.01-.034Zm-1.046-72.39c-.611 1.864-1.39 3.568-2.323 5.26-.431.743-.87 1.485-1.306 2.228-.577.949-1.138 1.841-1.837 2.771-.432.628-2.246 2.592-3.147 4.227-.57-1.141-1.081-2.309-1.67-3.438a481.322 481.322 0 0 0-3.23-5.379c-.2-.245-.536-.865-.929-1.385.852-.64 1.635-1.363 2.57-1.956 2.132-1.061 4.091-2.454 6.31-3.327 2.113-.735 4.072-1.072 6.012-.743a20.304 20.304 0 0 1-.454 1.75l.004-.008Zm-8.41 207.619c-.322-.992-.727-1.968-1.09-2.937-1.424-2.683-3.227-5.156-4.907-7.686-4.53-6.309-8.594-13.652-7.85-21.706.34-4.885 2.178-9.505 4.164-13.931 1.558-3.667 3.483-7.15 5.439-10.626a109.643 109.643 0 0 0 3.3-6.386c.844 2.075 2.368 3.886 3.854 5.524 1.138 1.409 2.246 2.841 3.567 4.085 1.31 1.749 2.681 3.372 3.877 5.225 2.104 3.354 3.365 7.247 3.51 11.217.317 6.856-.084 13.938-3.315 20.159-2.472 5.064-6.784 8.961-9.236 14.045-.435.991-.92 1.991-1.31 3.013l-.004.004Zm17.431-37.654c-.168 4.395-.462 8.816-1.073 13.177-.34 2.071-1.039 4.054-1.86 5.994-.176.391-.378.873-.588 1.352-.103.16-.187.329-.237.497l-.13.234c-.348.689-.684 1.217-1.047 1.941a.73.73 0 0 0-.06.153c-2.166 3.047-4.63 5.868-6.88 8.858-1.405 2.113-2.853 4.188-4.24 6.305 1.086-2.894 2.53-5.616 4.393-8.093 3.468-4.348 6.765-8.977 8.3-14.443 1.142-3.855 1.505-7.894 1.436-11.906.023-3.165-.06-6.381-.981-9.432-1.07-3.702-3.113-7.021-5.558-9.969-1.249-1.894-3.04-3.311-4.343-5.168-1.459-1.653-2.963-3.284-3.903-5.309a3.98 3.98 0 0 1 .18-2.542c.194-.402.431-.823.706-1.221.607 1.715 1.394 3.38 2.376 4.907.561.831 1.814 0 1.28-.838-.986-1.527-1.75-3.185-2.346-4.908-.038-.145-.08-.306-.137-.463.527-.417 1.13-.7 1.814-.742.86 2.526 2.001 4.961 3.288 7.246 1.72 3.254 3.778 6.32 5.879 9.341.458.612.901 1.229 1.337 1.849 0 .019 0 .038.003.057.176.448.447.839.627 1.287 1.802 3.652 1.902 7.832 1.753 11.836h.011Zm-3.613-17.548c-5.26-7.886-10.817-17.093-9.018-26.992.333-1.574 1.085-3.036 1.734-4.498.883-1.826 1.826-3.656 2.957-5.36 1.692-2.66 3.472-5.34 5.29-7.935 1.73-2.714 3.422-5.402 4.625-8.415.149-.386.36-.788.535-1.198 1.47 3.166 3.319 6.16 5.202 9.651 3.617 6.477 6.535 13.498 6.963 21.001.168 2.691.241 5.421-.344 8.074-.813 3.732-1.929 7.392-3.724 10.787-2.227 4.138-5.122 7.947-7.12 12.22-.389.911-.748 1.837-1.073 2.771-.298-.976-.645-1.933-1.168-2.817-1.356-2.6-3.213-4.873-4.855-7.289h-.004Zm18.674 51.814c-1.047-2.477-2.265-4.893-3.785-7.117-1.158-1.619-2.33-3.189-3.457-4.839-.955-1.412-2.005-2.978-2.777-4.547-1.512-2.649-2.765-5.44-3.25-8.476-.397-2.006-.191-4.184-.061-6.232.221-3.315 1.004-6.695 2.07-9.857 1.741-5.341 5.343-9.766 8.013-14.647 2.177-4.115 3.59-8.69 4.324-13.295.324-2.553.164-5.137-.023-7.695-.623-7.801-3.934-15.029-7.689-21.778-3.846-6.764-6.818-11.427-7.433-19.481-.202-3.897 0-7.802.581-11.657.214-2.492.783-4.934 1.558-7.304.734-1.83 1.36-3.705 2.265-5.459 1.452-2.722 3.044-5.367 4.519-8.077 4.69-8.491 5.397-15.715 2.6-25.002-1.279-4.547-3.73-8.693-6.63-12.387-1.268-1.478-2.28-3.151-3.43-4.717-.496-.735-1.016-1.454-1.516-2.182-.225-.383-.47-.754-.722-1.114-.042-.069-.092-.13-.134-.199-.27-.444-.53-.899-.767-1.374-.673-1.436-1.242-2.932-1.608-4.475a11.9 11.9 0 0 1-.184-1.417c.925.487 1.849.973 2.811 1.382 1.838.655 3.671 1.352 5.585 1.761 1.894.23 3.827.364 5.748.31.027.043.053.088.092.131.557 1.826 1.543 3.422 2.654 4.946.023.195.088.39.199.547.68 1.508 1.531 2.959 1.91 4.582.496 2.259.557 4.571.324 6.864-.114.961-.183 2.01-.298 2.978-.049.295-.091.605-.038.865-.088.51-.168 1.023-.248 1.536-.596 4.168-.703 8.421.015 12.583.008.126.027.248.057.363v.023c.168 1.149.436 2.267.776 3.361 1.111 4.962 1.379 7.752-.531 13.965-.164.575-.413 1.13-.653 1.681-.581 1.034-1.139 2.079-1.769 3.085-.722.988-1.329 2.056-1.929 3.12-2.75 5.455-4.407 11.508-4.362 17.644-.328 6.102 1.123 12.147 3.526 17.724 1.119 2.642 2.464 5.18 3.842 7.691 1.727 2.5 3.373 5.092 4.324 8.005 1.471 4.789 1.872 9.842 1.688 14.841-.489 4.908-1.944 9.751-3.999 14.226-2.181 4.693-5.607 8.709-8.047 13.287-2.69 5.053-5.157 10.876-5.226 16.691a.811.811 0 0 0-.034.214c-.023.812-.011 1.619.164 2.416.84 3.786 2.78 7.185 4.236 10.749.955 2.167 2.303 4.031 3.125 6.278 1.061 2.523 2.459 4.923 3.097 7.603.256.766.474 1.543.676 2.32-.061-.146-.114-.295-.179-.444Zm1.325-196.131c-.145-2.365 1.696-3.977 3.655-4.93.543-.284 1.1-.529 1.666-.751 2.295-.023 3.357 2.159 3.258 4.242-.016.195-.088.398-.146.597-1.142 1.39-2.264 2.799-3.166 4.36-.58.946-1.13 1.918-1.646 2.906-.993-1.73-2.296-3.285-3.529-4.877a.516.516 0 0 0-.039-.134c-.099-.463-.015-.942-.057-1.413h.004Zm2.032 49.448c1.012-1.895 2.139-3.744 2.823-5.788.256.421.515.842.779 1.26 1.18 1.86 2.524 3.472 3.686 5.42 2.123 3.189 4.006 6.546 5.423 10.114 3.006 9.429 2.831 20.148-1.596 29.117-1.245 2.607-2.288 5.145-3.831 7.645-.088.157-.18.31-.271.463a.733.733 0 0 0-.18.268c-.038.073-.069.141-.107.214-1.226 2.021-2.601 3.947-3.697 6.052a.794.794 0 0 0-.096.226c-.21.456-.588 1.034-.653 1.532l-.118.394a23.387 23.387 0 0 0-1.058-2.389c-1.154-2.327-2.853-4.318-3.976-6.657-2.712-5.057-5.053-10.458-5.821-16.189-.543-3.12-.378-6.297-.24-9.444.27-4.135 1.477-8.166 3.09-11.959.828-2.079 2.046-3.947 3.272-5.8.363-.654.73-1.309 1.1-1.96.134-.153.241-.363.329-.574.374-.651.749-1.298 1.131-1.941l.011-.004Zm3.839 148.566c-.359 1.183-.463 2.454-.665 3.675-1.23-.532-2.655-.624-3.839-.031-.026.016-.053.035-.08.05-.076-.93-.164-1.86-.302-2.783-.481-2.174-1.103-4.314-1.718-6.458-1.062-2.905-2.506-5.665-3.705-8.517-.493-1.019-1.146-2.01-1.704-3.097-.664-1.436-1.29-2.887-1.936-4.33-1.1-2.649-2.498-5.187-2.842-8.089a.945.945 0 0 0-.008-.099.67.67 0 0 0 .05-.276c-.153-2.335.214-4.467.829-6.753 1.344-5.198 3.823-9.999 6.722-14.516 3.247-4.533 6.161-9.413 7.758-14.8 1.417 3.411 6.115 9.375 6.986 10.455 4.938 5.421 8.62 12.173 9.617 19.52.359 5.118-.542 10.385-2.666 15.098-2.284 4.892-6.046 8.885-9.01 13.36-1.589 2.312-2.639 4.915-3.495 7.583l.008.008Zm17.378-26.073a78.52 78.52 0 0 1-2.1 5.328c-.894 1.987-2.239 3.706-3.423 5.517-1.123 1.696-2.49 3.204-3.823 4.735a56.99 56.99 0 0 0-5.023 6.967c-.076.127-.145.257-.217.387 2.139-4.72 5.805-8.51 8.655-12.801 3.804-5.666 5.595-12.564 5.305-19.371-.264-4.042-1.696-7.924-3.376-11.572-2.223-4.977-6.2-8.793-9.328-13.165a84.897 84.897 0 0 0-1.142-1.642c-.71-1.459-1.444-2.921-1.856-4.502-.714-2.952-.592-6.068-.512-9.115-.007-.478.149-1.225.023-1.768-.019-2.167-.111-4.368-.363-6.554v-.038.038-.027c-.252-5.972 1.433-10.367 4.095-15.577 1.188-1.96 2.311-3.958 3.212-6.083 1.703-3.567 3.418-7.185 4.094-11.113.734-3.089.867-6.255.776-9.417-.015-4.257-.818-8.525-2.177-12.552-1.639-4.058-3.919-7.794-6.306-11.442-.638-1.003-1.406-1.899-2.055-2.891-1.322-1.898-2.533-4.126-3.69-6.178a25.8 25.8 0 0 1-1.978-5.092c-.203-.922-.417-1.921-.634-3.024a.68.68 0 0 0-.084-.322c-.615-3.95-.497-8.035.099-11.974.397-2.389.749-4.651 1.535-6.99.921-2.416 2.04-4.77 3.381-6.983 1.413-2.457 3.284-4.601 5.102-6.764.176-.199.424-.475.696-.716a.762.762 0 0 0 .355-.237c3.327 1.39 6.967 1.309 10.962 1.543.275-.008.55-.012.825-.019-.63.566-1.249 1.144-1.811 1.776a40.996 40.996 0 0 0-5.057 7.407c-1.612 3.017-3.132 6.11-4.102 9.425-1.092 4.337-1.493 8.87-1.085 13.33a38.704 38.704 0 0 0 2.292 9.995c1.891 4.712 4.286 9.218 6.096 13.969 1.28 3.411 2.296 6.94 2.827 10.546.015.192.022.383.042.578a.848.848 0 0 0 .072.253c.157 1.252.256 2.515.283 3.782.191 8.636-1.799 17.23-6.222 24.699-4.419 7.978-9.003 16.335-9.27 25.675.176 3.786.176 7.817 1.978 11.247 1.28 2.722 2.865 5.302 4.385 7.913.905 1.723 2.013 3.319 3.155 4.885 2.387 3.614 4.102 7.763 5.214 11.97 1.073 5.234 1.657 10.738.179 15.979l-.004-.015Zm47.675-146.993c.516 2.178.623 4.41.272 6.631-.34 2.775-.738 5.615-1.818 8.207-.585 1.29-1.498 2.381-2.166 3.621-.814 1.57-1.799 3.048-2.536 4.655a64.84 64.84 0 0 0-3.457 9.601c-.397-.918-1.001-1.753-1.612-2.545-3.285-4.054-6.485-8.357-8.303-13.311-1.925-5.382-2.185-11.296-1.161-16.901.057-.348.118-.697.187-1.045.072.015.141.027.21.038.836.257 1.661.559 2.517.751 1.115.191 2.211.459 3.307.738.172.039.344.073.52.108a.824.824 0 0 0 .355.061c1.219.199 2.46.272 3.69.371 3.143.295 6.375.061 9.415-.815.172-.054.374-.107.573-.169l.007.004Zm-.404-1.493.011-.038c0 .011.008.023.008.034-.008 0-.012.004-.019.008v-.004Zm-11.596 33.309s-.016.007-.023.015l-.023-.08c.015.023.034.046.049.069l-.003-.004Zm8.028-35.089c-.855.934-1.635 1.972-2.899 2.355-.382.222-1.062.264-1.531.47a30.293 30.293 0 0 1-2.155-.149 27.15 27.15 0 0 1-3.013-.341c-.023-.011-.038-.023-.061-.03-3.659-2.401-4.607-6.791-2.735-10.635a33.283 33.283 0 0 1 1.91-2.745c.947-1.454 2.07-2.779 3.12-4.157.523-.7.997-1.462 1.669-2.036l.069-.035c1.902 3.005 3.716 6.194 5.63 9.18.118.226.229.455.344.685.802 2.358.832 5.191-.344 7.438h-.004Zm-11.329-12.537c-.362.57-.76 1.114-1.161 1.658-.496.206-.874.968-1.176 1.68-.118.184-.244.364-.355.551-1.456 2.462-2.666 5.069-3.411 7.84-2.166 7.634-2.116 16.102 1.146 23.417 1.207 2.818 2.937 5.367 4.709 7.863 0 .218.092.433.294.578 2.433 4.548 2.93 9.72 3.174 14.823-.023.471-.042.941-.038 1.408-.084 5.486.386 10.983.531 16.461a25.58 25.58 0 0 1-1.417 8.051c-.107.463-.493 1.037-.435 1.508a53.969 53.969 0 0 1-1.597 2.496c-.985 1.681-2.15 3.235-3.254 4.839-1.937 2.821-3.64 5.796-5.195 8.858a25.81 25.81 0 0 0-.645 1.256c-.195-.019-.352-.046-.627-.077-2.761-.421-1.909-5.072-1.73-7.074.374-2.622 1.115-5.157 2.277-7.538.611-1.282 1.356-2.584 1.627-3.996.382-.624.745-1.26 1.065-1.922 1.341-2.852 2.739-5.723 3.472-8.805.692-3.154.821-6.393.921-9.612.149-1.895.091-4.004-.355-5.922-.57-2.63-1.379-5.256-2.594-7.656-.978-1.727-2.139-3.323-3.388-4.858-.71-1.068-1.398-2.144-2.173-3.162-.573-1.16-.917-2.416-1.234-3.668-.412-1.975-.626-4.027-.305-6.033.603-2.458 1.111-4.934 1.455-7.446.011-.248.072-.528.103-.796.516-3.196.39-6.481.374-9.716a27.317 27.317 0 0 0-.382-5.252 2.733 2.733 0 0 0-.03-.731c-.21-1.233-.447-2.462-.577-3.709-.283-2.42-.164-4.832.138-7.278.248-2.756 1.294-5.44 2.872-7.706.745-.36 1.386-.964 2.242-1.033 3.243-.127 5.828 2.476 7.857 4.724.385.555.71 1.152 1.004 1.76-1.02 1.44-2.211 2.753-3.185 4.223l.003-.004Zm-11.366 43.951a.779.779 0 0 0 .309.356c.565.831 1.138 1.654 1.707 2.477 1.257 1.554 2.418 3.15 3.396 4.919 1.306 2.905 2.269 6.002 2.635 9.176.115 1.853-.065 3.587-.103 5.508-.103 1.976-.256 3.955-.561 5.911-.489 2.798-1.62 5.417-2.796 7.986a24.723 24.723 0 0 1-1.692 3.284.746.746 0 0 0-.256.421c-.81 1.309-1.692 2.573-2.559 3.84-1.18 1.688-2.651 3.384-3.384 5.336-1.899-3.947-4.194-7.736-6.016-11.71a42.62 42.62 0 0 1-3.025-6.764c-.611-1.493-1.142-3.013-1.513-4.586-1.153-5.945-.11-12.201 1.643-17.943.997-2.921 2.429-5.677 4.007-8.322 1.256-2.538 2.734-4.958 4.121-7.427.97 2.511 2.353 4.82 3.846 7.063.092.18.183.36.279.54l-.038-.077v.012Zm-.783-50.206c-.818 1.225-1.498 2.572-1.899 3.996-1.21-3.192-2.624-6.301-4.312-9.271a40.056 40.056 0 0 0-1.654-2.515c-.038-.05-.076-.104-.114-.157.397-.245.802-.486 1.214-.705 1.414-.497 2.895-1.34 3.923-2.48a16.154 16.154 0 0 0 5.11 3.525c.757.502 1.49.889 2.22 1.191-1.75 1.941-3.228 4.131-4.481 6.42l-.007-.004Zm-7.536-3.813c.061.027.149.054.198.103.096.081.21.131.329.154 1.558 2.786 2.803 5.749 3.919 8.735 1.249 3.067 2.36 6.194 3.101 9.425.119.463.214.938.298 1.413 0 .069.015.134.034.195.417 2.618.329 5.371.344 8.005.119 3.261-.137 6.634-1.161 9.796-.569 1.868-1.597 3.533-2.616 5.183-1.028 1.696-1.902 3.48-2.941 5.172-2.697 4.984-5.924 9.823-7.364 15.366-1.566 5.62-2.346 11.699-1.055 17.449 2.231 8.058 6.662 15.136 10.393 22.566 1.983 3.92 3.316 8.085 3.885 12.465.221 2.89-.126 5.815-.627 8.686-.435 2.492-1.054 5.187-2.055 7.595-1.928 5.026-4.472 9.769-7.283 14.352-1.864 3.123-3.297 6.461-4.874 9.738a28.708 28.708 0 0 0-1.26 3.204c-.172-.118-.344-.233-.478-.359-1.906-1.78-2.169-4.828-1.234-7.167.126-.34.26-.677.417-1.006.019-.031.042-.062.061-.092a.595.595 0 0 0 .084-.127c.244-.367.493-.731.722-1.106 2.108-3.089 4.381-6.033 6.107-9.379 1.536-2.749 2.548-5.803 3.476-8.847 2.257-7.648 2.15-13.184-.008-20.855-.84-3.109-2.433-5.907-4.255-8.533-1.516-2.213-2.987-4.46-4.549-6.646-.007-.042-.011-.08-.023-.122-.16-.46-.504-.843-.702-1.29-.531-1.352-.932-2.745-1.284-4.154-.458-1.405-.687-2.863-.63-4.341-.118-2.599.111-5.195.13-7.794 0-.475.114-.93.126-1.405 0-.027-.008-.046-.012-.073 0-.015 0-.03.004-.046.382-3.533.287-7.086-.221-10.581-.115-1.535-.05-3.108.065-4.647.179-2.488.821-4.938 1.803-7.228.676-1.615 1.562-3.315 2.123-5.007.096-.245.268-.547.416-.861.508-.984.997-1.975 1.448-2.986 3.079-6.994 4.053-14.953 2.254-22.41 0-.011 0-.023-.004-.034a.702.702 0 0 0-.111-.762c-.321-2.048-.806-4.062-1.723-5.941-.974-2.136-1.867-4.315-3.009-6.367-.447-.796-.887-1.604-1.345-2.4a.796.796 0 0 0-.046-.218c-.149-.475-.099-.98-.221-1.47-.382-5.026 4.136-6.267 8.265-5.532.363.054.726.096 1.085.184h.004Zm-12.521 152.555c-.015.038-.022.08-.034.122a41.178 41.178 0 0 0-.481-1.278c-1.375-3.522-3.277-6.776-5.512-9.808-2.269-3.855-4.652-7.61-6.424-11.745-.905-2.989-1.02-6.163-1.085-9.298.39-8.79 4.702-16.714 8.9-24.274.996-1.911 2.047-3.794 2.948-5.75.161-.402.313-.804.462-1.21.963 2.649 2.586 5.004 4.271 7.251 2.238 3.288 4.541 6.538 6.6 9.945 1.035 2.025 1.772 4.165 2.295 6.382.665 3.043 1.31 6.194 1.115 9.356-.217 5.24-1.902 10.358-3.823 15.197-1.913 4.184-4.679 7.867-7.265 11.642.008-.016.02-.027.027-.043 0 0 0-.007.004-.007-.703 1.137-1.6 2.22-2.005 3.525l.007-.007Zm1.2-99.424c-.298.451-1.314 1.853-2.021 3.215-.107-.294-.21-.593-.321-.884-1.779-4.808-4.125-9.375-6.138-14.084a38.793 38.793 0 0 1-2.436-10.535 39.571 39.571 0 0 1 .244-8.1c.176-.08.344-.168.5-.233 3.526-1.394 7.303-1.765 11.081-1.294 2.058.245 4.175.413 6 1.473.058.341.115.682.18 1.019 1.753 7.637.221 15.684-3.27 22.635a.71.71 0 0 0-.267.353c-.13.333-.267.662-.405.987-.936 1.88-2.093 3.633-3.147 5.448Zm2.784-41.976.279.594c.951 2.446 1.283 6.599-1.73 7.641-.268.065-.524.16-.799.183a.672.672 0 0 0-.152.046 25.56 25.56 0 0 0-5.772.084.589.589 0 0 0-.084-.03c-.389-.065-.676-.356-.974-.594a2.955 2.955 0 0 1-1.145-1.791c-.558-2.81.657-5.62 1.825-8.12a1.34 1.34 0 0 0 .241-.432 45.373 45.373 0 0 1 3.388-5.092 17.808 17.808 0 0 1 1.654 1.922c1.199 1.803 2.249 3.679 3.277 5.589h-.008Zm3.094 174.701c-1.394-1.688-2.643-3.48-3.804-5.34-.871-1.356-1.799-2.711-2.334-4.234.096-.134.18-.28.26-.421.363-.563.913-1.092 1.562-1.283.103-.011.202-.008.302 0 .702 2.814 1.776 5.547 3.025 8.135 1.852 3.564 4.052 6.921 6.134 10.347a.657.657 0 0 0 .023.046c-1.643-2.469-3.388-4.877-5.168-7.254v.004Zm10.691 13.708c-.107.368-.443 1.256-.737 2.247-.329-1.309-.806-2.584-1.223-3.87-.55-1.772-1.252-3.495-2.024-5.183-1.188-2.132-2.551-4.165-3.816-6.252-2.433-3.935-4.384-8.104-5.526-12.606-.44-2.086-.768-4.299-.738-6.484.352-4.709 1.979-9.081 4.095-13.295 2.02-4.51 4.698-8.729 7.1-13.047.864-1.562 1.616-3.185 2.323-4.827.057.168.122.337.191.502 1.329 3.743 4.216 6.523 6.787 9.424 1.184 1.145 2.33 2.313 3.334 3.622.951 1.018 1.753 1.971 2.433 3.235 1.215 2.511 2.357 5.095 3.006 7.817 1.299 5.719.818 11.955-1.589 17.337-.737 1.738-1.948 3.334-2.975 4.919-1.589 2.569-3.541 4.701-5.397 7.105-2.227 2.814-3.877 6.045-5.244 9.36v-.004Zm11.63-11.829c-3.239 4.284-7.268 8.112-10.282 12.61.222-.605.47-1.21.749-1.826 1.684-3.824 4.064-7.266 6.795-10.416 1.711-1.956 2.944-4.192 4.48-6.29a25.26 25.26 0 0 0 2.754-5.945c.237-.073.458-.252.638-.452.443-.179.92-.038 1.34.138.313.222.336.601.47.919-1.627 4.115-4.251 7.779-6.944 11.259v.003Zm6.963-29.982c-.179 1.13-.202 2.309-.676 3.369a5.88 5.88 0 0 1-.871 1.214c-.042-.264-.08-.525-.13-.785-.573-3.128-1.856-6.068-3.2-8.927-.726-1.455-1.738-2.726-2.85-3.897a28.779 28.779 0 0 0-3.2-3.476c-.814-.915-1.601-1.853-2.476-2.711-1.462-1.649-2.811-3.422-3.731-5.424a.858.858 0 0 0-.115-.467c-.244-1.049-.256-2.266.287-3.231.741-1.191 2.009-2.343 3.468-2.381 1.283 3.376 3.178 6.714 5.301 10.129 2.189 3.901 5.455 7.262 7.536 11.232.038.383.26.808.321 1.171.26 1.375.581 2.776.34 4.181l-.004.003Zm-4.492-13.743c-2.013-2.771-3.701-5.761-5.377-8.747-2.663-4.915-4.695-10.65-3.461-16.296.569-2.879 1.998-5.509 3.354-8.078 1.921-3.946 4.675-7.395 7.005-11.105 1.524-2.262 3.025-4.64 4.086-7.17.111-.39.505-1.21.833-2.071 1.528 3.985 3.377 7.851 5.175 11.718.906 1.753 1.88 3.472 2.617 5.31 1.585 4.398 2.685 9.045 2.631 13.742.153 6.359-1.237 12.79-4.27 18.433-.928 2.117-2.047 4.104-3.269 6.071-1.245 2.508-2.345 5.107-3.056 7.821-.023.077-.046.153-.072.234a11.92 11.92 0 0 0-.497-1.133c-1.478-3.159-3.716-5.873-5.71-8.713l.011-.016Zm5.508-56.066c0-.031.004-.062.004-.092.004.019.011.038.015.061-.007.012-.015.019-.023.031h.004Zm20.434-49.846c-1.844 5.573-5.129 10.485-8.078 15.507-2.07 3.901-4.048 7.917-5.076 12.235a52.399 52.399 0 0 0-.779 11.358c.29 6.914 2.055 13.674 4.606 20.086.722 2.167 1.677 4.234 2.659 6.29.97 2.251 1.86 4.532 2.75 6.814 1.172 3.35 1.932 6.818 2.44 10.344.386 4.023-.271 7.886-1.199 11.825-.458 2.059-.985 4.107-1.83 6.048-.588 1.531-1.187 3.066-2.234 4.349-2.651 3.778-5.168 7.679-6.634 12.089-2.479 6.405-3.155 13.433-1.807 20.178.336 2.561 1.394 4.919 2.395 7.277 1.077 2.921 2.341 5.869 3.514 8.79.897 2.017 1.485 4.153 2.02 6.289.023.1.042.203.065.303-.126-.341-.252-.685-.378-1.022-1.054-2.508-2.005-5.069-3.365-7.431-1.826-3.468-4.148-6.657-5.844-10.198-3.239-6.362-4.163-13.766-2.521-20.756.715-3.744 1.91-7.369 3.48-10.837 1.035-2.171 2.532-4.077 3.407-6.328 1.077-2.037 2.131-4.085 2.738-6.32 1.738-4.671 2.273-9.682 2.12-14.639-.13-5.065-1.352-10.129-3.346-14.781-1.818-3.499-3.552-7.036-5.11-10.665-1.791-3.947-3.472-7.981-3.907-12.338-1.861-11.224.179-22.992 4.915-33.285 1.307-2.496 2.769-4.912 4.244-7.304 1.295-2.554 1.692-5.448 2.127-8.246.218-2.025.554-4.081.199-6.11-.172-.991-.355-1.983-.6-2.959-.928-3.445-1.921-6.925-3.518-10.126a9.638 9.638 0 0 0-.298-.723.732.732 0 0 0-.294-.375c-1.512-2.515-3.135-4.965-4.587-7.519a55.727 55.727 0 0 0-3.483-5.229c-.588-.804-1.127-1.642-1.719-2.442 1.971-.184 3.93-.49 5.905-.754 1.891-.268 3.728-.812 5.634-.988.397-.046.794-.084 1.191-.115a4.44 4.44 0 0 1 1.085.425 73.262 73.262 0 0 1 2.643 4.395c1.169 2.446 2.506 4.869 3.701 7.331 1.761 4.103 3.182 8.383 3.808 12.816.394 2.615.696 5.092.684 7.787-.283 2.993-.962 6.033-1.726 8.957l.003-.003Zm25.817-23.061c-1.467 1.485-3.576 1.933-5.512 2.477a23.084 23.084 0 0 1-3.457.582c-3.021.149-5.183.061-7.337.344-.088 0-.179 0-.279.023-2.28 0-4.633-.919-6.019-2.798-1.184-1.355-1.811-3.047-2.632-4.621-1.322-2.32-2.677-4.62-3.877-7.005-.019-.035-.03-.077-.046-.111a.66.66 0 0 0-.03-.184c-.21-.681-.126-1.443-.035-2.148.417-1.133 1.272-2.051 2.323-2.641 1.298-.762 2.952-.704 4.385-.394a.845.845 0 0 0 .317.138c2.123 1.125 3.999 2.66 5.714 4.341 1.695 2.071 4.522 4.241 3.88 7.242a.747.747 0 0 0-.267.517c-.035.406.282.804.699.823.779.046 1.05-.804 1.157-1.447.367-2.53-1.237-4.766-2.884-6.527-.882-1.01-1.76-2.025-2.796-2.886-1.497-1.359-3.158-2.588-4.969-3.491a1.51 1.51 0 0 0-.279-.138c-.053-.023-.103-.054-.156-.077-1.326-.562-2.735-.857-4.137-1.141-1.405-.279-2.765-.784-4.194-.953-1.485-.21-2.99-.191-4.487-.153-.302.012-.604.027-.909.046a1.937 1.937 0 0 0-.612-.038.815.815 0 0 0-.294.111 36.44 36.44 0 0 0-4.965.834c-2.303.391-4.614.674-6.929.965-2.864.176-5.813.371-8.639-.272-1.131-.31-2.143-.915-3.151-1.493-1.841-.857-3.568-1.876-4.958-3.395-.89-.904-1.627-1.945-2.433-2.921-.252-.333-.772-.348-1.077-.088-.329.28-.34.746-.088 1.079.515.632 1.008 1.283 1.528 1.911-.1.103-.191.21-.287.31-.962.945-2.169 1.542-3.418 2.002-2.361 1.409-4.698 2.963-7.372 3.709-1.585.41-3.239.306-4.862.387-3.105-.18-6.291-.172-9.32-.942-2.769-.777-4.915-2.875-6.963-4.812-.37-.341-.748-.67-1.111-1.022-.294-.432-.837-.716-1.295-.333-.745.708.248 1.462.775 1.937.065.057.126.115.188.172-.317.123-.638.245-.952.379-4.594 2.259-9.85 2.699-14.896 2.09-2.72-.604-5.416-1.512-7.864-2.855-1.234-.686-2.551-1.214-3.793-1.88-.672-.356-1.352-.727-2.089-.915-2.456-.624-4.935-.295-7.318.452-2.112.712-3.98 1.956-5.924 3.02-2.116.888-3.537 2.845-5.668 3.691-3.201 1.485-6.826 1.45-10.248.937-1.788-.294-3.663-.413-5.42-.895-1.532-.368-2.654-1.486-3.632-2.657-1.352-1.282-2.617-2.726-4.255-3.644-3.205-1.788-7.204-1.995-10.458-.219-1.807 1.107-3.598 2.251-5.61 2.967-1.513.624-3.267 1.087-4.764 1.849-.97.597-1.986 1.122-2.937 1.753-1.509 1.084-2.739 2.615-2.945 4.514-.76 4.812 5.424 6.178 9.098 6.232.99.054 1.135-1.428.122-1.527-2.482-.046-8.07-.823-7.757-4.215.11-1.558 1.062-2.802 2.28-3.702 1.127-.704 2.322-1.462 3.549-2.033 2.822-1.091 5.79-1.96 8.334-3.656 1.856-1.424 4.129-2.017 6.367-1.833.145.072.305.115.466.122 2.654.77 5.099 2.423 5.198 5.44-.118 1.053-.156 2.213-.523 3.239a2.126 2.126 0 0 1-.26.505c-.18.249-.355.498-.53.746-1.467 1.876-2.491 4.02-3.541 6.148-.023.043-.042.085-.065.127a.86.86 0 0 0-.096.13c-.279.513-.538 1.033-.832 1.539-.856 1.378-1.482 2.955-2.731 4.042-1.257 1.019-2.82 1.708-4.442 1.838a17.312 17.312 0 0 1-3.362-.283 1.18 1.18 0 0 0-.39-.089c-.057-.019-.11-.042-.167-.057-2.292-.762-4.736-.766-7.097-1.171-1.75-.494-3.533-.766-5.332-1.003-2.063-.548-4.496-1.352-5.886-3.109-1.795-2.813-1.5-6.488-.554-9.555.443-1.734 1.223-3.319 2.15-4.842 1.364-2.634 3.335-4.828 5.47-6.856 2.02-1.486 3.835-3.385 6.295-4.116-.038.012-.08.03-.119.038.925-.23.665-1.619-.278-1.504a7.001 7.001 0 0 0-.71.222.81.81 0 0 0-.364-.138c-1.31-.892-2.17-2.469-2.284-4.05.065-.168.096-.36.08-.544 2.705-8.184 11.505-10.06 18.8-12.223 4.087-1.217 8.063-3.353 10.465-7.001 1.956-2.906 2.4-6.734 2.01-10.172-.463-2.905-1.032-5.818-.34-8.75.546-2.443 2.188-4.533 4.262-5.885 1.272-.8 2.743-1.206 3.988-2.048 3.25-2.24 3.055-6.6 2.188-10.026-.744-2.721-1.554-5.45-1.734-8.28a5.2 5.2 0 0 1-.03-.547c.011-.042.03-.08.034-.13 0-.058-.015-.111-.023-.169.054-1.19.455-2.408 1.012-3.438.26-.558.692-.987 1.096-1.431 2.56-1.903 5.233-3.679 8.06-5.164 3.25-1.987 6.707-3.583 10.156-5.191a96.965 96.965 0 0 1 5.805-2.052c.23.019.474-.008.692-.03.573-.058.993-.116 1.6-.207.81-.02 1.608.195 2.41.275 2.624 1.126 4.37 3.545 6.008 5.784 2.536 3.81 4.706 7.92 7.735 11.374 1.214 1.39 2.704 2.465 4.236 3.468.252.31.637.59.84.88.565.686.179 1.735-.523 2.167a1.903 1.903 0 0 1-.543.146.746.746 0 0 0-.366.164c-5.772.452-11.505 1.543-17.035 3.182-5.795 1.822-11.352 4.318-16.623 7.334-1.806.965-3.625 1.926-5.225 3.216-1.581 1.236-3.243 2.354-4.927 3.438-.355.221-.42.738-.191 1.068.737.976 2.116-.651 2.975-1.076 1.23-.785 2.372-1.684 3.533-2.565 1.501-1.125 3.163-1.994 4.817-2.871 2.635-1.443 5.27-2.883 8.036-4.058 12.127-5.29 25.652-7.396 38.806-5.888 4.137.521 8.285 1.666 12.303 2.833 3.793 1.007 7.36 2.603 11.004 4.027 3.529 1.903 7.261 3.492 10.488 5.911 1.352 1.076 2.723 2.389 4.068 3.507a.77.77 0 0 0 1.077-.088c.752-.977-1.112-1.796-1.704-2.466-3.75-3.736-8.666-5.803-13.268-8.245-3.174-1.153-6.207-2.722-9.488-3.568-2.949-.908-5.92-1.78-8.934-2.458a.8.8 0 0 0-.546-.222c-1.299-.299-2.746-1.022-2.403-2.6.306-.953 1.31-1.266 2.006-1.906.263-.23.641-.54.874-.846.138-.11.252-.252.333-.405l.481-.353c3.877-3.212 7.486-6.749 11.512-9.773 1.703-1.018 3.067-2.584 4.946-3.288 2.273-.72 4.687-1.355 7.074-.877.389.02.733.253 1.1.314 3.399 1.945 6.573 4.242 9.686 6.607 2.513 1.922 5.107 4.05 7.288 6.393 2.597 2.485 5.137 5.004 7.44 7.798a37.77 37.77 0 0 0 2.639 2.944c1.15 1.11 2.162 2.335 3.121 3.602.03.084.076.165.134.234.202.452.336.93.469 1.405.291 1.386.34 2.833.188 4.268a1.09 1.09 0 0 0-.062.51 15.567 15.567 0 0 1-1.26 4.306c-1.524 4.36-3.846 8.483-4.404 13.13-.936 5.49.233 11.542 3.717 15.952 2.597 2.956 5.74 5.467 9.296 7.163 2.823 1.427 5.943 2.075 9.01 2.744 2.181.762 4.507 1.467 6.226 3.086.795.647 1.264 1.635 1.497 2.63.069.28.1.559.104.842a5.684 5.684 0 0 1-1.314 2.262c-.019.008-.039.016-.058.027-.122 0-.244-.004-.366 0a10.345 10.345 0 0 1-.951-.379c-.852-.509-1.647.72-.833 1.283.764.41 1.6.742 2.49.624.207.034.417.046.623.05 1.482.455 2.8 1.481 4.224 2.254 1.478.816 2.418 2.263 3.69 3.334 1.39 1.233 2.834 2.462 3.835 4.054 1.126 2.221 1.096 4.809 1.398 7.232.523 4.169.221 7.239-2.968 10.263h.008Z"/><path fill="#000" d="M17.849 92.61c-.417 0-.745.406-.722.808.023.432.39.723.806.723.416 0 .744-.406.721-.808-.023-.432-.39-.723-.805-.723ZM56.345 66.257c2.35 1.42 4.847 2.664 7.349 3.817 2.49 1.171 4.97 2.029 7.536 3.078 3.12 1.156 6.245 2.342 9.518 2.978 6.157 1.546 12.498 1.78 18.815 1.707 6.176-.126 12.364-.325 18.49-1.183 4.076-.715 8.132-1.619 12.127-2.69 2.949-.935 5.771-2.217 8.598-3.462a58.113 58.113 0 0 0 7.639-3.663c2.7-1.481 5.431-3.108 7.78-5.149.294-.295.581-.6.772-.972a.852.852 0 0 0 .08-.268c.351-.59-.351-1.183-.737-1.642-1.07-1.42-2.414-2.359-3.824-3.446-3.544-2.657-7.272-5.08-11.225-7.086-5.191-2.565-10.771-4.302-16.432-5.459-6.344-1.316-12.81-2.109-19.307-2.124-11.333.46-23.074 2.358-32.848 8.449-5.408 3.288-10.74 6.79-15.202 11.33-.645.606-1.23 1.28-1.898 1.858-.435.271-.813.662-.65 1.152-.224.448.108.957.547 1.163.924.659 1.83 1.076 2.888 1.616l-.016-.004ZM113.34 42.83c8.441.98 16.981 2.86 24.701 6.554 2.964 1.45 5.767 3.146 8.468 5.007.141.15.313.28.439.436 2.7 2.619 2.673 7.255-.344 9.624-.386.356-.821.731-1.238 1.076-.248.103-.477.272-.611.478-1.986 1.076-4.014 2.094-6.149 2.902-3.953 1.75-7.914 3.576-12.177 4.425a89.715 89.715 0 0 1-17.023 2.638c6.925-2.553 12.073-9.344 11.798-17.265-.286-8.108-5.271-13.877-11.519-16.239 1.218.092 2.437.207 3.651.364h.004Zm4.595 8.939c5.286 10.355-1.91 23.018-13.529 23.7-11.577.78-20.308-10.73-16.439-21.733 4.847-13.547 23.375-14.8 29.968-1.967ZM61.49 57.246a.726.726 0 0 0 .31-.326c2.509-1.91 5.09-3.728 7.826-5.306a53.604 53.604 0 0 1 8.09-4.444c5.35-2.197 11.019-3.419 16.76-4.23.588-.08 1.176-.15 1.768-.218-2.739 1.194-5.275 3.15-7.341 5.956-7.292 10.06-2.128 24.267 9.43 27.624-3.628.03-7.257-.069-10.87-.478-5.73-.774-11.314-2.297-16.668-4.483-3.407-1.305-6.769-2.714-10.023-4.368a.745.745 0 0 0-.24-.306c-.402-.437-.89-.8-1.242-1.287-1.482-2.71-.05-6.27 2.193-8.134h.007Z"/><path fill="#000" d="M152.089 71.804c.867-.697 1.68-1.45 2.544-2.151.515-.402 1.058-.781 1.504-1.26.665-.819-.542-1.71-1.161-.991-1.642 1.313-3.181 2.768-4.9 3.985-1.348.85-2.754 1.615-3.969 2.66-1.497 1.214-3.181 2.133-4.85 3.082-1.792 1.126-3.766 1.85-5.749 2.561-2.097.888-4.163 1.845-6.367 2.442-4.683 1.493-9.526 2.504-14.403 3.105-6.092.582-12.097.8-18.246.582-3.64-.142-7.242-.62-10.828-1.233-8.441-1.255-16.718-3.391-24.54-6.871-2.029-.904-4.057-1.807-5.997-2.894-.168-.1-.336-.195-.5-.303a.768.768 0 0 0-1.059.226.775.775 0 0 0 .222 1.06c.756.48 1.562.881 2.357 1.287 2.303 1.156 4.67 2.193 7.058 3.154 6.89 2.833 14.24 4.61 21.596 5.761 5.255.92 10.564 1.493 15.912 1.428 5.232-.046 10.48-.195 15.675-.853 3.143-.486 6.283-1.087 9.373-1.853 2.055-.59 4.106-1.194 6.138-1.868 1.627-.574 3.021-1.336 4.679-1.941.962-.364 1.952-.67 2.887-1.106 3.136-1.555 6.146-3.35 8.877-5.547 1.245-.827 2.582-1.512 3.743-2.462h.004ZM100.598 90.589c-1.547.134-3.109.111-4.66.145-3.56-.095-7.18-.172-10.729-.597-4.312-.834-8.685-1.409-12.921-2.603-.833-.092-2.334-1.213-2.792-.077-.13.391.088.843.485.97a50.896 50.896 0 0 0 6.928 1.756c3.155.517 6.272 1.286 9.454 1.608 2.414.325 4.85.264 7.276.417 2.353.107 4.72.065 7.066-.088 1.008-.103.878-1.585-.111-1.527l.004-.004ZM66.841 85.723c-.416 0-.783.283-.81.72-.022.398.302.811.719.811.416 0 .783-.283.81-.72.022-.397-.302-.81-.719-.81ZM143.762 33.144c-1.356-.762-2.853-1.206-4.3-1.746-2.189-1.026-4.66-1.523-7.032-1.983-.993-.164-1.264 1.294-.29 1.505 2.559.451 5.08 1.11 7.459 2.163 1.929.59 3.724 1.496 5.424 2.576a13.65 13.65 0 0 1 3.12 2.324c.306.28.814.222 1.077-.088 1.204-1.306-4.491-4.104-5.454-4.751h-.004ZM127.556 27.869c-.416 0-.783.283-.809.72-.023.398.301.81.718.81.416 0 .783-.282.809-.719.023-.398-.301-.811-.718-.811ZM101.446 68.114a8.86 8.86 0 0 0 1.956.222c5.557 0 10.194-5.344 8.926-11.075-1.234-6.148-8.205-8.985-13.319-6.194.11.069.218.145.321.233.118.1.222.215.329.33 0 0 .007 0 .007.007.115.08.233.157.348.242.007.007.015.011.023.019.099.069.191.145.282.222a2.2 2.2 0 0 1 .268.264c.351.417.565.926.664 1.462.08.448.088.892.077 1.348-.008.28-.046.555-.123.823-.11.375-.244.742-.443 1.08a3.4 3.4 0 0 1-.523.685c-.275.279-.584.463-.928.639-.329.165-.726.237-1.115.237a2.939 2.939 0 0 1-1.173-.241 3.3 3.3 0 0 1-.825-.188 2.398 2.398 0 0 1-.401-.191c-.084-.05-.168-.1-.245-.157 0 0-.007-.004-.01-.008a3.902 3.902 0 0 1-1.02-1.094c-1.223 4.758 1.565 10.22 6.924 11.335ZM35.151 70.116c1.272-.919 2.28-2.186 3.07-3.537.761-1.39 1.063-2.978 1.086-4.552.026-.75.038-1.504.019-2.258-.008-.417-.436-.728-.83-.693-.496.034-.76.54-.687.995 0 1.715.05 3.488-.607 5.103-.855 1.795-2.227 3.64-4.178 4.288-.398.134-.593.6-.455.983.539 1.088 1.875.062 2.586-.333l-.004.004ZM29.307 72.348c.416 0 .78-.299.798-.728.02-.402-.309-.8-.725-.8-.417 0-.78.299-.799.728-.019.402.31.8.726.8ZM43.943 101.415c-2.028-1.191-3.502-3.14-5.614-4.2-1.242-.812-2.655-1.076-4.102-1.217-1.673-.46-3.358-.046-5.012.237-1.008-.02-1.065 1.462-.068 1.531 1.314-.084 2.6-.6 3.938-.42 1.596.317 3.15.271 4.568 1.24 2.112 1.117 3.598 3.131 5.71 4.253.974.428 1.554-1.019.58-1.424ZM48.21 102.885c-.417 0-.78.298-.799.727-.019.402.31.8.726.8s.78-.298.798-.727c.02-.402-.309-.8-.725-.8ZM155.351 101.905c-1.868-.318-3.614-1.118-5.13-2.244a15.239 15.239 0 0 1-2.903-2.155c-.45-.383-.913-.754-1.34-1.16-.669-.532-1.452-2.278-2.426-1.355-.317.368-.187.884.172 1.164.84.965 1.753 1.845 2.754 2.645.882.861 1.898 1.535 2.945 2.167 1.608 1.202 3.472 2.006 5.435 2.408.687.13 1.872.229 1.826-.77-.073-.716-.779-.708-1.333-.704v.004ZM141.708 91.458c-.417 0-.776.306-.795.735-.015.402.317.796.733.796.417 0 .776-.306.795-.735.015-.402-.317-.796-.733-.796ZM84.071 12.824c1.665 1.256 2.601 3.105 3.522 4.923.492.957 1.119 1.8 1.623 2.753.176.378.665.52 1.027.336 1.177-.696-.603-2.32-.94-3.15-1.256-2.381-2.406-4.889-4.762-6.393a.77.77 0 0 0-1.058.222c-.363.555.107 1.06.588 1.313v-.004ZM81.688 10.394c.416 0 .779-.303.798-.732.015-.402-.313-.8-.73-.8-.416 0-.779.303-.798.731-.015.402.314.8.73.8ZM175.166 67.142a.774.774 0 0 0-.554.93c.115.758.081 1.562.329 2.312.367 1.573 1.211 2.96 2.024 4.334.879 1.5 2.258 2.553 3.537 3.69.733.693 1.776-.36 1.085-1.08-.481-.436-.978-.85-1.463-1.274-1.012-.862-1.803-1.922-2.41-3.101-.825-1.332-1.429-2.833-1.524-4.41.076-.724-.111-1.574-1.02-1.398l-.004-.003ZM184.49 80.766c1.138.364 1.493-1.233.347-1.524-1.142-.363-1.493 1.237-.347 1.524ZM180.831 132.779c.607-.031.832-.632.699-1.156a27.673 27.673 0 0 0-1.07-4.564 66.053 66.053 0 0 0-2.597-6.653c-.92-2.098-1.914-4.192-3.365-5.976-.672-.758-1.803.242-1.161 1 1.684 2.105 2.7 4.639 3.793 7.085 1.23 3.086 2.509 6.19 2.906 9.532.035.418.371.755.795.735v-.003ZM180.995 136.209c-.416 0-.749.394-.734.796.02.429.379.735.795.735.416 0 .749-.394.733-.796-.019-.429-.378-.735-.794-.735ZM156.672 202.642a44.11 44.11 0 0 1-1.795 4.337c-.596 1.294-1.325 2.424-2.116 3.637a.775.775 0 0 0 .195 1.064c.336.234.833.153 1.062-.195a31.917 31.917 0 0 0 3.006-5.532c.363-.88.718-1.768 1.046-2.664.325-.685.046-1.788-.886-1.543a.773.773 0 0 0-.512.896ZM159.48 200.318c.416 0 .748-.394.733-.796-.019-.429-.378-.735-.795-.735-.416 0-.748.394-.733.796.019.429.378.735.795.735ZM142.185 133.877c.271 2.814.37 5.574-.309 8.361-.058.823-.978 2.293.183 2.661a.775.775 0 0 0 .913-.582c.179-.819.382-1.635.538-2.458.535-2.385.455-4.839.271-7.258-.156-1.593-.297-3.216-.805-4.739-.23-.59-.596-1.512-1.391-1.156-.366.176-.554.65-.359 1.022.699 1.255.756 2.756.959 4.153v-.004ZM141.066 149.45c.416 0 .748-.394.733-.796-.019-.429-.378-.735-.794-.735-.417 0-.749.394-.734.796.019.429.378.735.795.735ZM175.728 251.47a.775.775 0 0 0 1.031-.329c.542-.98 1.1-1.957 1.535-2.994.459-1.068.619-2.228.971-3.33.309-1.237.828-2.55.664-3.836-.309-.904-1.646-.548-1.478.383-.084 1.083-.397 2.155-.703 3.208-.385 1.477-.771 3.112-1.57 4.459-.286.739-1.455 1.803-.45 2.439ZM174.215 253.614c-.416 0-.748.394-.733.796.019.429.378.735.794.735.417 0 .749-.395.734-.796-.019-.429-.378-.735-.795-.735ZM110.571 143.226c-.375-2.018-.783-4.051-.806-6.106.019-1.436.363-2.879.168-4.311a.767.767 0 0 0-.886-.62c-.795.157-.6.942-.585 1.539-.045 1.435-.301 2.86-.21 4.299.283 3.273.841 6.546 2.216 9.551.244.609 1.214.551 1.405-.069a.8.8 0 0 0-.027-.589c-.504-1.202-.97-2.42-1.279-3.691l.004-.003ZM113.726 151.356c-.417 0-.749.395-.734.797.02.428.379.735.795.735.416 0 .749-.395.733-.797-.019-.428-.378-.735-.794-.735ZM104.559 229.416c.164 1.133.378 2.239.351 3.399a29.933 29.933 0 0 1-.217 2.332c-.054.413.286.792.691.83 1.176.081.886-1.952 1.035-2.748.122-1.907-.382-3.771-.577-5.654-.072-.686-.08-1.566-.542-2.244-.573-.827-1.81-.011-1.279.839.408 1.01.286 2.186.534 3.246h.004ZM103.765 221.729c-.019-.429-.379-.735-.795-.735-.416 0-.748.394-.733.796.019.429.378.735.794.735.417 0 .749-.394.734-.796ZM75.263 160.931c.065.057.111.13.15.206 1.187 2.856 3.28 5.333 4.502 8.189.172.383.654.536 1.02.36a.776.776 0 0 0 .36-1.022c-.986-2.194-2.308-4.208-3.576-6.24-.527-.846-.722-1.918-1.436-2.634a.767.767 0 0 0-1.077.057c-.275.307-.256.808.057 1.08v.004ZM82.242 174.053c.416 0 .748-.394.733-.796-.02-.429-.378-.735-.795-.735-.416 0-.748.395-.733.796.02.429.378.735.794.735ZM76.31 251.615c-.416 0-.749.395-.733.796.019.429.378.735.794.735.416 0 .749-.394.734-.796-.02-.429-.379-.735-.795-.735ZM66.769 133.426c.076 1.01 1.55.934 1.528-.062-.23-1.914-.23-3.721-.737-5.627-1.05-2.963-2.483-5.788-3.74-8.667-.454-.899-1.787-.249-1.379.659 1.28 2.947 2.796 5.822 3.774 8.889.298 1.588.378 3.185.554 4.808ZM67.441 137.212c-.416 0-.749.394-.733.796.019.429.378.735.794.735.417 0 .749-.394.734-.796-.02-.429-.379-.735-.795-.735ZM57.27 199.966c-.333-.949-1.738-.498-1.456.467.505 1.788 1.242 3.495 2.368 4.977.562.83 1.819 0 1.28-.839-1.043-1.374-1.738-2.947-2.192-4.605ZM61.204 208.453c-.416 0-.749.394-.733.796.019.429.378.735.794.735.416 0 .749-.394.733-.796-.019-.429-.378-.735-.794-.735ZM35.017 126.952a.77.77 0 0 0-.523.839c-.283.754-.63 1.481-.898 2.243-.794 2.239-1.329 4.609-1.329 6.994.084 1.631.5 3.227.737 4.839a.768.768 0 0 0 .886.62.771.771 0 0 0 .62-.884c-.207-1.294-.467-2.581-.654-3.878-.26-3.067.722-6.217 1.917-9.016.417-.735.37-1.983-.756-1.761v.004ZM34.52 144.795c-.416 0-.748.394-.733.796.02.429.379.735.795.735.416 0 .748-.394.733-.796-.019-.429-.378-.735-.794-.735ZM34.612 225.002a.776.776 0 0 0-.53.785c-.104.463-.215.926-.306 1.393-.535 2.557-1.062 5.222-.321 7.794a.79.79 0 0 0 .317.498c.516.39 1.337-.123 1.188-.762-.21-.911-.386-1.841-.363-2.783.096-1.481.359-2.971.684-4.475.076-.647.424-1.298.294-1.952a.773.773 0 0 0-.963-.494v-.004ZM34.78 238.19c-.416 0-.748.394-.733.796.02.429.378.735.795.735.416 0 .748-.394.733-.796-.02-.429-.378-.735-.794-.735ZM41.304 189.81a.767.767 0 0 0 .86-.654c.24-1.505.229-3.028.095-4.544-.237-2.745-.993-5.425-2.01-7.978-.213-.758-1.187-1.581-1.787-.705a.779.779 0 0 0 .256 1.038c.23.463.394.961.57 1.451 1.038 2.917 1.66 6.014 1.52 9.122.026.754-.6 2.048.492 2.27h.004ZM38.936 194.871a.765.765 0 1 0-.002-1.53.765.765 0 0 0 .002 1.53ZM60.642 226.855c.29 1.428.401 2.886.302 4.341-.069.896-.195 1.78-.313 2.672a.772.772 0 0 0 .653.861c1.207.065.874-1.619 1.092-2.411.401-3.09-.198-6.198-.94-9.188-.091-.406-.553-.643-.939-.536-.978.325-.355 1.432-.233 2.125.13.643.252 1.393.382 2.14l-.004-.004ZM59.477 239.648a.765.765 0 1 0-.002-1.532.765.765 0 0 0 .002 1.532ZM119.299 278.519c2.104.689 1.588-9.042 1.145-10.232-.286-.965-1.711-.567-1.474.406.5 2.538.439 5.271.057 7.882-.13.666-.668 1.642.268 1.944h.004ZM116.892 284.361a.765.765 0 1 0-.002-1.53.765.765 0 0 0 .002 1.53ZM140.756 169.199c-.576-.084-.851.441-.943.927-1.726 3.422-2.674 7.178-2.612 11.025 0 .417.351.765.763.765 1.173-.107.654-1.619.814-2.415.168-2.664.764-5.298 1.963-7.695.321-.758 1.303-2.277.012-2.61l.003.003ZM138.308 186.767a.765.765 0 1 0-.002-1.53.765.765 0 0 0 .002 1.53ZM175.273 187.284c.035 1.01 1.517.999 1.528 0-.153-2.665-.046-5.352.497-7.967.122-.876 1.111-3.679-.375-3.809-1.184.088-.573 1.489-.855 2.27a31.562 31.562 0 0 0-.799 9.506h.004ZM177.229 193.087a.765.765 0 1 0-.002-1.53.765.765 0 0 0 .002 1.53ZM151.711 265.419c.191-.815-.512-1.619-.844-2.331-1.047-1.837-2.323-3.545-3.148-5.497-.477-1.581-2.62-.306-1.356.708 1.02 2.531 2.934 4.594 3.938 7.124.218.617 1.181.605 1.406 0l.004-.004ZM152.952 271.686a.765.765 0 1 0-.002-1.53.765.765 0 0 0 .002 1.53ZM181.511 300.642c-.654-2.289-1.353-4.601-2.334-6.776-.203-.383-.615-.643-1.051-.559-.744.065-.893 1.191-.206 1.451a55.91 55.91 0 0 1 2.116 6.294c.287.964 1.711.566 1.475-.41ZM182.32 305.148c-.114-.609-.313-1.398-1.111-1.21-.776.23-.535 1.037-.363 1.616.286.964 1.711.566 1.474-.41v.004ZM42.565 289.204c.806-1.532 1.65-3.174 1.73-4.931-.023-1.007-1.505-1.003-1.528 0-.13 1.596-.947 3.078-1.692 4.471-.279.701-1.337 1.688-.42 2.312 1.127.513 1.405-1.183 1.91-1.849v-.003ZM38.29 294.536a.765.765 0 1 0-.001-1.53.765.765 0 0 0 .002 1.53Z"/></g><defs><clipPath id="a"><path fill="#fff" d="M0 0h215v330H0z"/></clipPath></defs></svg>