<svg width="468" height="408" viewBox="0 0 468 408" fill="none" xmlns="http://www.w3.org/2000/svg">
<path d="M237 205.5C278.145 205.5 311.5 172.145 311.5 131C311.5 89.8548 278.145 56.5 237 56.5C195.855 56.5 162.5 89.8548 162.5 131C162.5 172.145 195.855 205.5 237 205.5Z" fill="#DAEAD4" stroke="black"/>
<path d="M215.426 133.979C215.426 132.768 215.728 131.539 216.333 130.291C216.939 129.043 217.998 127.889 219.511 126.83C221.024 125.771 222.858 125.26 225.014 125.298C227.359 125.298 229.061 125.808 230.121 126.83C231.18 127.851 231.728 128.986 231.766 130.234C231.766 131.444 231.444 132.333 230.801 132.901C230.158 133.468 229.44 133.771 228.645 133.808C228.154 133.808 227.7 133.657 227.284 133.355C226.868 133.052 226.641 132.56 226.603 131.879C226.603 131.274 226.773 130.745 227.113 130.291C227.454 129.837 227.775 129.496 228.078 129.269C228.381 129.043 228.626 128.929 228.816 128.929C228.853 128.929 228.872 128.91 228.872 128.872C228.872 128.759 228.74 128.589 228.475 128.362C228.21 128.135 227.738 127.927 227.057 127.738C226.376 127.548 225.638 127.435 224.844 127.397C223.028 127.397 221.704 127.889 220.872 128.872C220.04 129.856 219.605 130.858 219.567 131.879C219.567 132.825 219.927 133.487 220.645 133.865C221.364 134.243 222.404 134.565 223.766 134.83C225.128 135.095 226.111 135.378 226.716 135.681C229.213 136.778 230.461 138.593 230.461 141.128C230.461 142.187 230.253 143.246 229.837 144.305C229.421 145.364 228.797 146.423 227.965 147.482C227.132 148.541 225.941 149.373 224.39 149.979C222.839 150.584 221.061 150.905 219.057 150.943C216.144 150.943 214.083 150.395 212.872 149.298C211.662 148.201 211.038 146.915 211 145.44C211 143.965 211.397 142.905 212.191 142.262C212.986 141.619 213.818 141.298 214.688 141.298C215.255 141.298 215.785 141.468 216.277 141.808C216.768 142.149 217.033 142.735 217.071 143.567C217.071 144.551 216.73 145.383 216.05 146.064C215.369 146.745 214.783 147.085 214.291 147.085C214.215 147.123 214.158 147.142 214.121 147.142C214.083 147.142 214.064 147.18 214.064 147.255C214.102 147.369 214.253 147.52 214.518 147.709C214.783 147.898 215.369 148.144 216.277 148.447C217.184 148.749 218.225 148.882 219.397 148.844C220.759 148.844 221.931 148.636 222.915 148.22C223.898 147.804 224.617 147.274 225.071 146.631C225.525 145.988 225.846 145.402 226.035 144.872C226.225 144.343 226.319 143.87 226.319 143.454C226.319 142.395 225.922 141.6 225.128 141.071C224.333 140.541 223.426 140.22 222.404 140.106C221.383 139.993 220.267 139.709 219.057 139.255C217.846 138.801 216.957 138.139 216.39 137.269C215.747 136.324 215.426 135.227 215.426 133.979Z" fill="black"/>
<path d="M241.468 113.667C241.468 113.288 241.544 112.853 241.695 112.362C241.846 111.87 242.073 111.624 242.376 111.624C242.414 111.624 243.775 111.53 246.461 111.34C249.147 111.151 250.527 111.038 250.603 111C251.057 111 251.284 111.151 251.284 111.454C251.284 111.719 250.338 115.671 248.447 123.312C246.555 130.801 245.61 134.678 245.61 134.943C246.329 134.565 246.877 134.206 247.255 133.865C248.163 133.184 249.468 131.993 251.17 130.291C252.872 128.589 254.196 127.435 255.142 126.83C256.655 125.809 258.092 125.298 259.454 125.298C260.589 125.298 261.477 125.657 262.121 126.376C262.764 127.095 263.104 128.116 263.142 129.44C263.142 130.385 263.009 131.18 262.745 131.823C262.48 132.466 262.121 132.939 261.667 133.241C261.213 133.544 260.816 133.752 260.475 133.865C260.135 133.979 259.794 134.035 259.454 134.035C258.697 134.035 258.092 133.827 257.638 133.411C257.184 132.995 256.957 132.447 256.957 131.766C256.957 130.82 257.26 130.045 257.865 129.44C258.47 128.835 259.076 128.437 259.681 128.248L260.589 128.078C260.135 127.624 259.681 127.397 259.227 127.397H259C257.79 127.511 256.598 127.983 255.425 128.816C254.253 129.648 252.872 130.858 251.284 132.447C249.695 134.035 248.447 135.189 247.539 135.908C247.615 135.946 247.898 136.002 248.39 136.078C248.882 136.154 249.336 136.267 249.752 136.418C250.168 136.57 250.66 136.721 251.227 136.872C251.794 137.024 252.305 137.288 252.759 137.667C253.213 138.045 253.629 138.385 254.007 138.688C254.385 138.991 254.707 139.482 254.972 140.163C255.236 140.844 255.35 141.468 255.312 142.035C255.312 142.678 255.217 143.454 255.028 144.362C254.839 145.27 254.726 146.026 254.688 146.631C254.688 148.144 255.199 148.901 256.22 148.901C258.035 148.901 259.511 146.65 260.645 142.149C260.721 141.846 261.099 141.695 261.78 141.695H262.007C262.612 141.695 262.915 141.865 262.915 142.206C262.915 142.395 262.858 142.66 262.745 143C261.194 148.333 258.962 151 256.05 151C254.347 151 252.967 150.508 251.908 149.525C250.849 148.541 250.319 147.123 250.319 145.27C250.319 144.589 250.376 144.002 250.489 143.511C250.603 143.019 250.66 142.565 250.66 142.149C250.66 141.317 250.395 140.598 249.865 139.993C249.336 139.388 248.674 138.953 247.879 138.688C247.085 138.423 246.442 138.215 245.95 138.064C245.459 137.913 245.118 137.856 244.929 137.894H244.816C244.362 139.482 243.964 141.014 243.624 142.489C243.284 143.965 243.019 145.061 242.83 145.78C242.641 146.499 242.47 147.199 242.319 147.879C242.168 148.56 242.035 149.014 241.922 149.241C241.808 149.468 241.676 149.714 241.525 149.979C241.373 150.243 241.165 150.414 240.901 150.489C240.409 150.83 239.879 151 239.312 151C238.669 151 238.177 150.811 237.837 150.433C237.496 150.054 237.326 149.733 237.326 149.468C237.326 149.09 238.026 146.064 239.425 140.39C240.825 134.716 242.206 129.137 243.567 123.652L245.667 115.426C245.704 114.934 245.572 114.631 245.269 114.518C244.967 114.404 244.229 114.31 243.057 114.234H242.773C242.395 114.234 242.149 114.234 242.035 114.234C241.922 114.234 241.79 114.177 241.638 114.064C241.487 113.95 241.43 113.818 241.468 113.667Z" fill="black"/>
<path d="M165.688 263.656C165.688 265.719 164.943 267.344 163.453 268.531C161.974 269.719 159.911 270.312 157.266 270.312C154.828 270.312 152.672 269.854 150.797 268.938V264.438C152.339 265.125 153.641 265.609 154.703 265.891C155.776 266.172 156.755 266.312 157.641 266.312C158.703 266.312 159.516 266.109 160.078 265.703C160.651 265.297 160.938 264.693 160.938 263.891C160.938 263.443 160.812 263.047 160.562 262.703C160.312 262.349 159.943 262.01 159.453 261.688C158.974 261.365 157.99 260.849 156.5 260.141C155.104 259.484 154.057 258.854 153.359 258.25C152.661 257.646 152.104 256.943 151.688 256.141C151.271 255.339 151.062 254.401 151.062 253.328C151.062 251.307 151.745 249.719 153.109 248.562C154.484 247.406 156.38 246.828 158.797 246.828C159.984 246.828 161.115 246.969 162.188 247.25C163.271 247.531 164.401 247.927 165.578 248.438L164.016 252.203C162.797 251.703 161.786 251.354 160.984 251.156C160.193 250.958 159.411 250.859 158.641 250.859C157.724 250.859 157.021 251.073 156.531 251.5C156.042 251.927 155.797 252.484 155.797 253.172C155.797 253.599 155.896 253.974 156.094 254.297C156.292 254.609 156.604 254.917 157.031 255.219C157.469 255.51 158.495 256.042 160.109 256.812C162.245 257.833 163.708 258.859 164.5 259.891C165.292 260.911 165.688 262.167 165.688 263.656ZM176.688 255.594C175.677 255.594 174.885 255.917 174.312 256.562C173.74 257.198 173.411 258.104 173.328 259.281H180.016C179.995 258.104 179.688 257.198 179.094 256.562C178.5 255.917 177.698 255.594 176.688 255.594ZM177.359 270.312C174.547 270.312 172.349 269.536 170.766 267.984C169.182 266.432 168.391 264.234 168.391 261.391C168.391 258.464 169.12 256.203 170.578 254.609C172.047 253.005 174.073 252.203 176.656 252.203C179.125 252.203 181.047 252.906 182.422 254.312C183.797 255.719 184.484 257.661 184.484 260.141V262.453H173.219C173.271 263.807 173.672 264.865 174.422 265.625C175.172 266.385 176.224 266.766 177.578 266.766C178.63 266.766 179.625 266.656 180.562 266.438C181.5 266.219 182.479 265.87 183.5 265.391V269.078C182.667 269.495 181.776 269.802 180.828 270C179.88 270.208 178.724 270.312 177.359 270.312ZM195.453 270.312C190.016 270.312 187.297 267.328 187.297 261.359C187.297 258.391 188.036 256.125 189.516 254.562C190.995 252.99 193.115 252.203 195.875 252.203C197.896 252.203 199.708 252.599 201.312 253.391L199.906 257.078C199.156 256.776 198.458 256.531 197.812 256.344C197.167 256.146 196.521 256.047 195.875 256.047C193.396 256.047 192.156 257.807 192.156 261.328C192.156 264.745 193.396 266.453 195.875 266.453C196.792 266.453 197.641 266.333 198.422 266.094C199.203 265.844 199.984 265.458 200.766 264.938V269.016C199.995 269.505 199.214 269.844 198.422 270.031C197.641 270.219 196.651 270.312 195.453 270.312ZM214.578 252.203C215.224 252.203 215.76 252.25 216.188 252.344L215.828 256.812C215.443 256.708 214.974 256.656 214.422 256.656C212.901 256.656 211.714 257.047 210.859 257.828C210.016 258.609 209.594 259.703 209.594 261.109V270H204.828V252.531H208.438L209.141 255.469H209.375C209.917 254.49 210.646 253.703 211.562 253.109C212.49 252.505 213.495 252.203 214.578 252.203ZM226.594 255.594C225.583 255.594 224.792 255.917 224.219 256.562C223.646 257.198 223.318 258.104 223.234 259.281H229.922C229.901 258.104 229.594 257.198 229 256.562C228.406 255.917 227.604 255.594 226.594 255.594ZM227.266 270.312C224.453 270.312 222.255 269.536 220.672 267.984C219.089 266.432 218.297 264.234 218.297 261.391C218.297 258.464 219.026 256.203 220.484 254.609C221.953 253.005 223.979 252.203 226.562 252.203C229.031 252.203 230.953 252.906 232.328 254.312C233.703 255.719 234.391 257.661 234.391 260.141V262.453H223.125C223.177 263.807 223.578 264.865 224.328 265.625C225.078 266.385 226.13 266.766 227.484 266.766C228.536 266.766 229.531 266.656 230.469 266.438C231.406 266.219 232.385 265.87 233.406 265.391V269.078C232.573 269.495 231.682 269.802 230.734 270C229.786 270.208 228.63 270.312 227.266 270.312ZM245.625 266.516C246.458 266.516 247.458 266.333 248.625 265.969V269.516C247.438 270.047 245.979 270.312 244.25 270.312C242.344 270.312 240.953 269.833 240.078 268.875C239.214 267.906 238.781 266.458 238.781 264.531V256.109H236.5V254.094L239.125 252.5L240.5 248.812H243.547V252.531H248.438V256.109H243.547V264.531C243.547 265.208 243.734 265.708 244.109 266.031C244.495 266.354 245 266.516 245.625 266.516ZM279.234 270H273.734L267.75 260.375L265.703 261.844V270H260.859V247.156H265.703V257.609L267.609 254.922L273.797 247.156H279.172L271.203 257.266L279.234 270ZM288.969 255.594C287.958 255.594 287.167 255.917 286.594 256.562C286.021 257.198 285.693 258.104 285.609 259.281H292.297C292.276 258.104 291.969 257.198 291.375 256.562C290.781 255.917 289.979 255.594 288.969 255.594ZM289.641 270.312C286.828 270.312 284.63 269.536 283.047 267.984C281.464 266.432 280.672 264.234 280.672 261.391C280.672 258.464 281.401 256.203 282.859 254.609C284.328 253.005 286.354 252.203 288.938 252.203C291.406 252.203 293.328 252.906 294.703 254.312C296.078 255.719 296.766 257.661 296.766 260.141V262.453H285.5C285.552 263.807 285.953 264.865 286.703 265.625C287.453 266.385 288.505 266.766 289.859 266.766C290.911 266.766 291.906 266.656 292.844 266.438C293.781 266.219 294.76 265.87 295.781 265.391V269.078C294.948 269.495 294.057 269.802 293.109 270C292.161 270.208 291.005 270.312 289.641 270.312ZM298.141 252.531H303.359L306.656 262.359C306.938 263.214 307.13 264.224 307.234 265.391H307.328C307.443 264.318 307.667 263.307 308 262.359L311.234 252.531H316.344L308.953 272.234C308.276 274.057 307.307 275.422 306.047 276.328C304.797 277.234 303.333 277.688 301.656 277.688C300.833 277.688 300.026 277.599 299.234 277.422V273.641C299.807 273.776 300.432 273.844 301.109 273.844C301.953 273.844 302.688 273.583 303.312 273.062C303.948 272.552 304.443 271.776 304.797 270.734L305.078 269.875L298.141 252.531ZM133.938 296.531C133.938 297.99 133.526 299.182 132.703 300.109C131.891 301.036 130.734 301.656 129.234 301.969V302.094C131.068 302.323 132.427 302.906 133.312 303.844C134.198 304.781 134.641 306.01 134.641 307.531C134.641 309.708 133.885 311.385 132.375 312.562C130.865 313.729 128.719 314.312 125.938 314.312C124.729 314.312 123.62 314.219 122.609 314.031C121.609 313.854 120.635 313.536 119.688 313.078V310.609C120.677 311.099 121.729 311.474 122.844 311.734C123.969 311.984 125.031 312.109 126.031 312.109C129.979 312.109 131.953 310.562 131.953 307.469C131.953 304.698 129.776 303.312 125.422 303.312H123.172V301.078H125.453C127.234 301.078 128.646 300.688 129.688 299.906C130.729 299.115 131.25 298.021 131.25 296.625C131.25 295.51 130.865 294.635 130.094 294C129.333 293.365 128.297 293.047 126.984 293.047C125.984 293.047 125.042 293.182 124.156 293.453C123.271 293.724 122.26 294.224 121.125 294.953L119.812 293.203C120.75 292.464 121.828 291.885 123.047 291.469C124.276 291.042 125.568 290.828 126.922 290.828C129.141 290.828 130.865 291.339 132.094 292.359C133.323 293.37 133.938 294.76 133.938 296.531ZM153.109 314H138.094V311.766L144.109 305.719C145.943 303.865 147.151 302.542 147.734 301.75C148.318 300.958 148.755 300.188 149.047 299.438C149.339 298.688 149.484 297.88 149.484 297.016C149.484 295.797 149.115 294.833 148.375 294.125C147.635 293.406 146.609 293.047 145.297 293.047C144.349 293.047 143.448 293.203 142.594 293.516C141.75 293.828 140.807 294.396 139.766 295.219L138.391 293.453C140.495 291.703 142.786 290.828 145.266 290.828C147.411 290.828 149.094 291.38 150.312 292.484C151.531 293.578 152.141 295.052 152.141 296.906C152.141 298.354 151.734 299.786 150.922 301.203C150.109 302.62 148.589 304.411 146.359 306.578L141.359 311.469V311.594H153.109V314ZM173.875 296.594C176.125 296.594 177.87 297.365 179.109 298.906C180.359 300.438 180.984 302.609 180.984 305.422C180.984 308.234 180.354 310.422 179.094 311.984C177.844 313.536 176.104 314.312 173.875 314.312C172.76 314.312 171.74 314.109 170.812 313.703C169.896 313.286 169.125 312.651 168.5 311.797H168.312L167.766 314H165.906V289.688H168.5V295.594C168.5 296.917 168.458 298.104 168.375 299.156H168.5C169.708 297.448 171.5 296.594 173.875 296.594ZM173.5 298.766C171.729 298.766 170.453 299.276 169.672 300.297C168.891 301.307 168.5 303.016 168.5 305.422C168.5 307.828 168.901 309.552 169.703 310.594C170.505 311.625 171.792 312.141 173.562 312.141C175.156 312.141 176.344 311.562 177.125 310.406C177.906 309.24 178.297 307.568 178.297 305.391C178.297 303.161 177.906 301.5 177.125 300.406C176.344 299.312 175.135 298.766 173.5 298.766ZM182.812 296.875H185.594L189.344 306.641C190.167 308.87 190.677 310.479 190.875 311.469H191C191.135 310.938 191.417 310.031 191.844 308.75C192.281 307.458 193.698 303.5 196.094 296.875H198.875L191.516 316.375C190.786 318.302 189.932 319.667 188.953 320.469C187.984 321.281 186.792 321.688 185.375 321.688C184.583 321.688 183.802 321.599 183.031 321.422V319.344C183.604 319.469 184.245 319.531 184.953 319.531C186.734 319.531 188.005 318.531 188.766 316.531L189.719 314.094L182.812 296.875ZM207.188 312.172C207.646 312.172 208.089 312.141 208.516 312.078C208.943 312.005 209.281 311.932 209.531 311.859V313.844C209.25 313.979 208.833 314.089 208.281 314.172C207.74 314.266 207.25 314.312 206.812 314.312C203.5 314.312 201.844 312.568 201.844 309.078V298.891H199.391V297.641L201.844 296.562L202.938 292.906H204.438V296.875H209.406V298.891H204.438V308.969C204.438 310 204.682 310.792 205.172 311.344C205.661 311.896 206.333 312.172 207.188 312.172ZM220.203 314.312C217.672 314.312 215.672 313.542 214.203 312C212.745 310.458 212.016 308.318 212.016 305.578C212.016 302.818 212.693 300.625 214.047 299C215.411 297.375 217.24 296.562 219.531 296.562C221.677 296.562 223.375 297.271 224.625 298.688C225.875 300.094 226.5 301.953 226.5 304.266V305.906H214.703C214.755 307.917 215.26 309.443 216.219 310.484C217.188 311.526 218.547 312.047 220.297 312.047C222.141 312.047 223.964 311.661 225.766 310.891V313.203C224.849 313.599 223.979 313.88 223.156 314.047C222.344 314.224 221.359 314.312 220.203 314.312ZM219.5 298.734C218.125 298.734 217.026 299.182 216.203 300.078C215.391 300.974 214.911 302.214 214.766 303.797H223.719C223.719 302.161 223.354 300.911 222.625 300.047C221.896 299.172 220.854 298.734 219.5 298.734ZM247.062 296.562C247.823 296.562 248.505 296.625 249.109 296.75L248.75 299.156C248.042 299 247.417 298.922 246.875 298.922C245.49 298.922 244.302 299.484 243.312 300.609C242.333 301.734 241.844 303.135 241.844 304.812V314H239.25V296.875H241.391L241.688 300.047H241.812C242.448 298.932 243.214 298.073 244.109 297.469C245.005 296.865 245.99 296.562 247.062 296.562ZM262.844 314L262.328 311.562H262.203C261.349 312.635 260.495 313.365 259.641 313.75C258.797 314.125 257.74 314.312 256.469 314.312C254.771 314.312 253.438 313.875 252.469 313C251.51 312.125 251.031 310.88 251.031 309.266C251.031 305.807 253.797 303.995 259.328 303.828L262.234 303.734V302.672C262.234 301.328 261.943 300.339 261.359 299.703C260.786 299.057 259.865 298.734 258.594 298.734C257.167 298.734 255.552 299.172 253.75 300.047L252.953 298.062C253.797 297.604 254.719 297.245 255.719 296.984C256.729 296.724 257.74 296.594 258.75 296.594C260.792 296.594 262.302 297.047 263.281 297.953C264.271 298.859 264.766 300.312 264.766 302.312V314H262.844ZM256.984 312.172C258.599 312.172 259.865 311.729 260.781 310.844C261.708 309.958 262.172 308.719 262.172 307.125V305.578L259.578 305.688C257.516 305.76 256.026 306.083 255.109 306.656C254.203 307.219 253.75 308.099 253.75 309.297C253.75 310.234 254.031 310.948 254.594 311.438C255.167 311.927 255.964 312.172 256.984 312.172ZM281.844 314V302.922C281.844 301.526 281.526 300.484 280.891 299.797C280.255 299.109 279.26 298.766 277.906 298.766C276.115 298.766 274.802 299.25 273.969 300.219C273.135 301.188 272.719 302.786 272.719 305.016V314H270.125V296.875H272.234L272.656 299.219H272.781C273.312 298.375 274.057 297.724 275.016 297.266C275.974 296.797 277.042 296.562 278.219 296.562C280.281 296.562 281.833 297.062 282.875 298.062C283.917 299.052 284.438 300.641 284.438 302.828V314H281.844ZM301.438 311.703H301.297C300.099 313.443 298.307 314.312 295.922 314.312C293.682 314.312 291.938 313.547 290.688 312.016C289.448 310.484 288.828 308.307 288.828 305.484C288.828 302.661 289.453 300.469 290.703 298.906C291.953 297.344 293.693 296.562 295.922 296.562C298.245 296.562 300.026 297.406 301.266 299.094H301.469L301.359 297.859L301.297 296.656V289.688H303.891V314H301.781L301.438 311.703ZM296.25 312.141C298.021 312.141 299.302 311.661 300.094 310.703C300.896 309.734 301.297 308.177 301.297 306.031V305.484C301.297 303.057 300.891 301.328 300.078 300.297C299.276 299.255 297.99 298.734 296.219 298.734C294.698 298.734 293.531 299.328 292.719 300.516C291.917 301.693 291.516 303.359 291.516 305.516C291.516 307.703 291.917 309.354 292.719 310.469C293.521 311.583 294.698 312.141 296.25 312.141ZM324.188 305.422C324.188 308.214 323.484 310.396 322.078 311.969C320.672 313.531 318.729 314.312 316.25 314.312C314.719 314.312 313.359 313.953 312.172 313.234C310.984 312.516 310.068 311.484 309.422 310.141C308.776 308.797 308.453 307.224 308.453 305.422C308.453 302.63 309.151 300.458 310.547 298.906C311.943 297.344 313.88 296.562 316.359 296.562C318.755 296.562 320.656 297.359 322.062 298.953C323.479 300.547 324.188 302.703 324.188 305.422ZM311.141 305.422C311.141 307.609 311.578 309.276 312.453 310.422C313.328 311.568 314.615 312.141 316.312 312.141C318.01 312.141 319.297 311.573 320.172 310.438C321.057 309.292 321.5 307.62 321.5 305.422C321.5 303.245 321.057 301.594 320.172 300.469C319.297 299.333 318 298.766 316.281 298.766C314.583 298.766 313.302 299.323 312.438 300.438C311.573 301.552 311.141 303.214 311.141 305.422ZM350.578 314V302.859C350.578 301.495 350.286 300.474 349.703 299.797C349.12 299.109 348.214 298.766 346.984 298.766C345.37 298.766 344.177 299.229 343.406 300.156C342.635 301.083 342.25 302.51 342.25 304.438V314H339.656V302.859C339.656 301.495 339.365 300.474 338.781 299.797C338.198 299.109 337.286 298.766 336.047 298.766C334.422 298.766 333.229 299.255 332.469 300.234C331.719 301.203 331.344 302.797 331.344 305.016V314H328.75V296.875H330.859L331.281 299.219H331.406C331.896 298.385 332.583 297.734 333.469 297.266C334.365 296.797 335.365 296.562 336.469 296.562C339.146 296.562 340.896 297.531 341.719 299.469H341.844C342.354 298.573 343.094 297.865 344.062 297.344C345.031 296.823 346.135 296.562 347.375 296.562C349.312 296.562 350.76 297.062 351.719 298.062C352.688 299.052 353.172 300.641 353.172 302.828V314H350.578ZM191.594 358V346.922C191.594 345.526 191.276 344.484 190.641 343.797C190.005 343.109 189.01 342.766 187.656 342.766C185.865 342.766 184.552 343.25 183.719 344.219C182.885 345.188 182.469 346.786 182.469 349.016V358H179.875V340.875H181.984L182.406 343.219H182.531C183.062 342.375 183.807 341.724 184.766 341.266C185.724 340.797 186.792 340.562 187.969 340.562C190.031 340.562 191.583 341.062 192.625 342.062C193.667 343.052 194.188 344.641 194.188 346.828V358H191.594ZM201.969 340.875V351.984C201.969 353.38 202.286 354.422 202.922 355.109C203.557 355.797 204.552 356.141 205.906 356.141C207.698 356.141 209.005 355.651 209.828 354.672C210.661 353.693 211.078 352.094 211.078 349.875V340.875H213.672V358H211.531L211.156 355.703H211.016C210.484 356.547 209.745 357.193 208.797 357.641C207.859 358.089 206.786 358.312 205.578 358.312C203.495 358.312 201.932 357.818 200.891 356.828C199.859 355.839 199.344 354.255 199.344 352.078V340.875H201.969ZM241.016 358V346.859C241.016 345.495 240.724 344.474 240.141 343.797C239.557 343.109 238.651 342.766 237.422 342.766C235.807 342.766 234.615 343.229 233.844 344.156C233.073 345.083 232.688 346.51 232.688 348.438V358H230.094V346.859C230.094 345.495 229.802 344.474 229.219 343.797C228.635 343.109 227.724 342.766 226.484 342.766C224.859 342.766 223.667 343.255 222.906 344.234C222.156 345.203 221.781 346.797 221.781 349.016V358H219.188V340.875H221.297L221.719 343.219H221.844C222.333 342.385 223.021 341.734 223.906 341.266C224.802 340.797 225.802 340.562 226.906 340.562C229.583 340.562 231.333 341.531 232.156 343.469H232.281C232.792 342.573 233.531 341.865 234.5 341.344C235.469 340.823 236.573 340.562 237.812 340.562C239.75 340.562 241.198 341.062 242.156 342.062C243.125 343.052 243.609 344.641 243.609 346.828V358H241.016ZM256.938 340.594C259.188 340.594 260.932 341.365 262.172 342.906C263.422 344.438 264.047 346.609 264.047 349.422C264.047 352.234 263.417 354.422 262.156 355.984C260.906 357.536 259.167 358.312 256.938 358.312C255.823 358.312 254.802 358.109 253.875 357.703C252.958 357.286 252.188 356.651 251.562 355.797H251.375L250.828 358H248.969V333.688H251.562V339.594C251.562 340.917 251.521 342.104 251.438 343.156H251.562C252.771 341.448 254.562 340.594 256.938 340.594ZM256.562 342.766C254.792 342.766 253.516 343.276 252.734 344.297C251.953 345.307 251.562 347.016 251.562 349.422C251.562 351.828 251.964 353.552 252.766 354.594C253.568 355.625 254.854 356.141 256.625 356.141C258.219 356.141 259.406 355.562 260.188 354.406C260.969 353.24 261.359 351.568 261.359 349.391C261.359 347.161 260.969 345.5 260.188 344.406C259.406 343.312 258.198 342.766 256.562 342.766ZM275.828 358.312C273.297 358.312 271.297 357.542 269.828 356C268.37 354.458 267.641 352.318 267.641 349.578C267.641 346.818 268.318 344.625 269.672 343C271.036 341.375 272.865 340.562 275.156 340.562C277.302 340.562 279 341.271 280.25 342.688C281.5 344.094 282.125 345.953 282.125 348.266V349.906H270.328C270.38 351.917 270.885 353.443 271.844 354.484C272.812 355.526 274.172 356.047 275.922 356.047C277.766 356.047 279.589 355.661 281.391 354.891V357.203C280.474 357.599 279.604 357.88 278.781 358.047C277.969 358.224 276.984 358.312 275.828 358.312ZM275.125 342.734C273.75 342.734 272.651 343.182 271.828 344.078C271.016 344.974 270.536 346.214 270.391 347.797H279.344C279.344 346.161 278.979 344.911 278.25 344.047C277.521 343.172 276.479 342.734 275.125 342.734ZM294.375 340.562C295.135 340.562 295.818 340.625 296.422 340.75L296.062 343.156C295.354 343 294.729 342.922 294.188 342.922C292.802 342.922 291.615 343.484 290.625 344.609C289.646 345.734 289.156 347.135 289.156 348.812V358H286.562V340.875H288.703L289 344.047H289.125C289.76 342.932 290.526 342.073 291.422 341.469C292.318 340.865 293.302 340.562 294.375 340.562Z" fill="black"/>
</svg>
