<svg width="84" height="52" viewBox="0 0 84 52" fill="none" xmlns="http://www.w3.org/2000/svg">
<g clip-path="url(#clip0)">
<path d="M82.4998 31.9C82.4998 31.8 82.4998 31.6 82.4998 31.5V31.4C82.4998 31.3 82.4998 31.2 82.4998 31.1C82.4998 31 82.4998 30.9 82.4998 30.8V30.6C82.4998 30.4 82.4998 30.2 82.4998 30.1V30.2C82.4998 29.6 82.3998 28.9 82.3998 28.4V28.2C82.3998 28 82.3998 27.7 82.2998 27.5C82.2998 27.4 82.2998 27.3 82.2998 27.1C82.2998 26.9 82.2998 26.8 82.1998 26.6C82.1998 26.2 82.0998 25.7 82.0998 25.3C82.0998 25.2 82.0998 25 82.0998 24.9V24.6C82.0998 24.4 82.0998 24.2 82.0998 24C82.0998 23.7 82.0998 23.5 82.0998 23.2V23.1C82.0998 22.7 82.0998 22.4 81.9998 22C81.9998 21.8 81.9998 21.6 81.8998 21.4C81.8998 21.2 81.8998 21 81.8998 20.8C81.8998 20.7 81.8998 20.6 81.8998 20.5C81.8998 20.3 81.8998 20.1 81.8998 19.9V19.6C81.8998 19 81.7998 18.4 81.7998 17.9C81.7998 17.8 81.7998 17.7 81.7998 17.7C81.7998 17.5 81.7998 17.3 81.6998 17.1C81.6998 16.8 81.5998 16.5 81.5998 16.3C81.4998 15.7 81.3998 15.1 81.1998 14.5C81.1998 14.3 81.0998 14.1 81.0998 13.9C80.9998 13.6 80.8998 13.2 80.8998 12.9C80.7998 12.6 80.7998 12.3 80.7998 12C80.7998 11.7 80.6998 11.5 80.6998 11.2C80.5998 10.8 80.5998 10.3 80.5998 9.9V9.6C80.5998 9.3 80.4998 9 80.4998 8.8C80.4998 8.6 80.3998 8.3 80.3998 8.1C80.3998 8 80.3998 7.9 80.3998 7.7C80.3998 7.6 80.3998 7.4 80.3998 7.3C80.3998 7 80.2998 6.7 80.2998 6.5C80.2998 6.3 80.1998 6.1 80.1998 5.9V5.8V5.7C80.1998 5.5 80.0998 5.2 79.9998 5V4.9C79.8998 4.6 79.8998 4.4 79.7998 4.1C79.6998 3.8 79.5998 3.5 79.4998 3.3C79.3998 3.1 79.1998 2.9 78.9998 2.9C78.8998 2.9 78.7998 2.9 78.7998 2.9C78.6998 2.9 78.5998 3 78.5998 3.1C78.4998 3 78.3998 3 78.1998 3C78.0998 3 77.8998 2.9 77.6998 2.9H77.5998C77.4998 2.9 77.3998 2.9 77.2998 2.9C77.1998 2.9 77.0998 2.9 76.9998 2.9C76.8998 2.9 76.8998 2.9 76.7998 2.9H76.6998H76.5998C76.4998 2.9 76.4998 2.9 76.3998 2.9C76.1998 2.9 76.0998 2.9 75.8998 3C75.7998 3 75.6998 3 75.6998 3C74.8998 3 74.7998 3 74.5998 3H74.3998C74.1998 3 74.0998 3.1 73.8998 3.1C73.7998 3.1 73.7998 3.1 73.6998 3.1C73.3998 3.2 72.9998 3.2 72.6998 3.2C72.4998 3.2 72.3998 3.2 72.1998 3.2C71.9998 3.2 71.7998 3.2 71.4998 3.3C71.3998 3.3 71.2998 3.3 71.0998 3.4C70.8998 3.5 70.6998 3.6 70.5998 3.9C70.4998 4 70.4998 4.2 70.4998 4.3V4.4C70.4998 4.6 70.3998 4.8 70.3998 5C70.2998 5.2 70.2998 5.4 70.2998 5.6C70.2998 5.7 70.2998 5.8 70.1998 6C70.1998 6.1 70.1998 6.2 70.0998 6.3C70.0998 6.6 70.0998 6.8 70.0998 7.1C70.0998 7.2 70.0998 7.4 70.0998 7.5V7.6C70.0998 7.7 70.0998 7.8 70.0998 7.9C70.0998 8 70.0998 8.1 70.0998 8.2V8.3V8.4H69.9998C69.8998 8.4 69.6998 8.4 69.5998 8.4C69.4998 8.4 69.3998 8.4 69.2998 8.4C69.0998 8.4 68.7998 8.4 68.5998 8.4C68.3998 8.4 68.1998 8.4 67.9998 8.4H67.8998H67.7998H67.6998H67.5998H67.3998C67.2998 8.4 67.0998 8.4 66.9998 8.4C66.6998 8.4 66.3998 8.3 66.0998 8.3C65.9998 8.3 65.7998 8.3 65.6998 8.3C65.2998 8.3 64.7998 8.2 64.3998 8.1C64.1998 8.1 63.9998 8 63.7998 8C63.4998 8 63.2998 8 62.9998 7.9C62.8998 7.9 62.7998 7.9 62.6998 7.9C62.5998 7.9 62.4998 7.9 62.2998 7.9C62.1998 7.9 62.0998 7.9 61.8998 7.9C61.7998 7.9 61.6998 7.9 61.5998 7.9C61.1998 7.9 60.7998 7.8 60.2998 7.8C60.0998 7.8 59.8998 7.7 59.6998 7.7C59.4998 7.7 59.3998 7.6 59.1998 7.6C59.0998 7.5 58.8998 7.5 58.7998 7.4C58.6998 7.4 58.5998 7.3 58.4998 7.3H58.3998C58.2998 7.3 58.1998 7.2 58.0998 7.2C57.9998 7.2 57.8998 7.1 57.7998 7.1L57.6998 7C57.3998 7.1 57.2998 7 57.1998 7C57.0998 6.9 56.9998 6.9 56.7998 6.8C56.6998 6.7 56.4998 6.7 56.3998 6.6C56.2998 6.6 56.1998 6.5 56.0998 6.5C55.7998 6.4 55.5998 6.3 55.2998 6.2C55.0998 6.1 54.8998 6 54.5998 5.9C54.2998 5.8 54.0998 5.7 53.8998 5.6C53.6998 5.5 53.3998 5.4 53.1998 5.3C53.1998 5.2 53.1998 5 53.1998 4.9C53.0998 4.7 52.9998 4.7 52.8998 4.6C52.4998 4.4 52.1998 4.2 51.7998 4.1L51.3998 3.9C51.0998 3.7 50.6998 3.6 50.2998 3.4C50.0998 3.3 49.9998 3.3 49.7998 3.2C49.4998 3.1 49.2998 3 48.9998 2.8C48.6998 2.7 48.3998 2.6 48.0998 2.6C47.8998 2.6 47.5998 2.5 47.3998 2.5C47.1998 2.5 46.9998 2.4 46.7998 2.4H46.6998C46.5998 2.4 46.3998 2.3 46.2998 2.3C46.1998 2.3 46.1998 2.3 46.0998 2.2C45.8998 2.1 45.6998 2.1 45.4998 2C45.1998 1.9 44.8998 1.9 44.5998 1.8C44.3998 1.8 44.0998 1.8 43.8998 1.8H43.7998C43.6998 1.8 43.5998 1.8 43.3998 1.8C42.8998 1.8 42.5998 1.8 42.2998 1.9C42.1998 1.9 42.1998 1.9 42.0998 1.9H41.9998C41.8998 1.9 41.8998 1.9 41.7998 1.9H41.6998C41.4998 1.9 41.2998 2 41.1998 2C40.9998 2.1 40.7998 2.1 40.5998 2.2C40.3998 2.3 40.2998 2.4 40.0998 2.4C39.8998 2.5 39.7998 2.6 39.5998 2.7L39.4998 2.8L39.3998 2.9C39.3998 2.9 39.2998 2.9 39.2998 3C39.2998 3 39.1998 3 39.1998 3.1C38.9998 3.2 38.8998 3.3 38.7998 3.4C38.5998 3.6 38.3998 3.7 38.1998 3.9C38.0998 4 37.8998 4 37.7998 4.1C37.6998 4.2 37.5998 4.2 37.4998 4.2C37.3998 4.2 37.3998 4.2 37.2998 4.3C37.0998 4.4 36.9998 4.4 36.8998 4.5H36.7998C36.6998 4.6 36.5998 4.6 36.4998 4.7C36.3998 4.7 36.2998 4.7 36.1998 4.7C36.0998 4.7 36.0998 4.7 35.9998 4.7C35.8998 4.7 35.8998 4.7 35.7998 4.7H35.6998H35.4998C35.2998 4.7 35.0998 4.6 34.8998 4.6C34.7998 4.6 34.6998 4.6 34.6998 4.6C34.4998 4.6 34.3998 4.6 34.1998 4.6C33.8998 4.6 33.5998 4.6 33.3998 4.7C32.9998 4.8 32.5998 4.9 32.1998 5.1C32.0998 5.1 32.0998 5.1 31.9998 5.2C31.8998 5.3 31.7998 5.3 31.6998 5.3H31.5998C31.4998 5.4 31.2998 5.4 31.1998 5.5H31.0998C30.7998 5.6 30.5998 5.7 30.2998 5.8C30.0998 5.9 29.8998 5.9 29.7998 6C29.6998 6.1 29.4998 6.1 29.3998 6.2C28.8998 6 28.7998 6 28.6998 6C28.5998 6 28.3998 6.1 28.2998 6.1C28.1998 6.1 27.9998 6.2 27.8998 6.2H27.7998C27.6998 6.2 27.5998 6.2 27.4998 6.3C27.2998 6.3 27.0998 6.4 26.9998 6.5C26.8998 6.5 26.7998 6.6 26.6998 6.6C26.3998 6.7 26.1998 6.7 25.9998 6.8C25.8998 6.8 25.7998 6.9 25.6998 6.9C25.5998 7 25.4998 7 25.3998 7C25.2998 7 25.1998 7.1 25.0998 7.1C24.7998 7.2 24.4998 7.3 24.1998 7.3C24.0998 7.3 23.8998 7.3 23.7998 7.4C23.6998 7.4 23.5998 7.5 23.4998 7.5H23.3998C23.1998 7.6 22.8998 7.6 22.6998 7.6C22.5998 7.6 22.4998 7.6 22.2998 7.6C22.1998 7.6 22.0998 7.6 22.0998 7.6C21.9998 7.6 21.8998 7.6 21.7998 7.6C21.5998 7.6 21.4998 7.6 21.2998 7.6C21.0998 7.6 20.9998 7.6 20.7998 7.7C20.6998 7.7 20.4998 7.8 20.3998 7.8H20.2998C20.0998 7.8 19.9998 7.9 19.7998 7.9H19.6998C19.5998 7.9 19.4998 7.9 19.4998 7.9C19.3998 7.9 19.1998 7.9 19.0998 7.9H18.9998C18.7998 7.9 18.5998 7.9 18.4998 7.9C18.3998 7.9 18.2998 8 18.1998 8C18.1998 8 18.0998 8 18.0998 8.1H17.9998C17.8998 8.1 17.7998 8.1 17.6998 8.1H17.5998C17.5998 8 17.5998 8 17.4998 7.9C17.3998 7.6 17.3998 7.4 17.2998 7.1C17.1998 6.7 17.0998 6.4 16.9998 6C16.8998 5.8 16.8998 5.6 16.8998 5.4C16.8998 5.2 16.8998 5.1 16.8998 4.9C16.8998 4.8 16.8998 4.7 16.8998 4.6C16.8998 4.4 16.8998 4.2 16.7998 4C16.7998 3.8 16.6998 3.6 16.6998 3.3C16.6998 2.9 16.5998 2.5 16.4998 2C16.4998 1.9 16.3998 1.9 16.3998 1.8C16.0998 2.1 15.9998 2 15.7998 2C15.6998 2 15.6998 2 15.4998 2C15.3998 2 15.3998 2 15.2998 2C15.1998 2 15.0998 2 15.0998 2.1H14.9998C14.9998 2.1 14.8998 2 14.8998 1.9C14.7998 1.8 14.6998 1.7 14.4998 1.6H14.3998H14.2998C14.1998 1.6 14.0998 1.5 13.9998 1.5C13.8998 1.5 13.7998 1.4 13.6998 1.4H13.5998H13.4998C13.2998 1.4 13.0998 1.4 12.8998 1.3C12.7998 1.3 12.6998 1.3 12.5998 1.3C12.2998 1.3 11.9998 1.2 11.6998 1.2H11.4998C11.3998 1.2 11.2998 1.2 11.0998 1.2C10.9998 1.2 10.9998 1.2 10.8998 1.2C10.7998 1.2 10.6998 1.2 10.6998 1.2C10.5998 1.2 10.4998 1.2 10.3998 1.2C10.2998 1.2 10.0998 1.2 9.9998 1.2C9.9998 1 9.89981 1 9.7998 1C9.7998 1 9.69981 1 9.5998 1C9.4998 1 9.4998 1 9.3998 1H9.2998H9.1998H9.0998C8.9998 1 8.8998 1 8.6998 1C8.5998 1 8.5998 1 8.4998 1H8.3998C8.2998 1 8.1998 1 8.0998 1C7.89981 1 7.5998 1.1 7.4998 1.3C7.4998 1.3 7.4998 1.3 7.3998 1.3C7.1998 1.5 7.0998 1.5 6.9998 1.6C6.9998 1.6 6.8998 1.7 6.8998 1.8C6.7998 1.9 6.7998 1.9 6.6998 2V2.1C6.4998 2.3 6.3998 2.6 6.2998 2.8C6.0998 3.2 5.8998 3.7 5.6998 4.2C5.5998 4.5 5.4998 4.7 5.3998 5V5.1C5.1998 5.4 5.0998 5.7 4.9998 5.9C4.7998 6.2 4.6998 6.5 4.6998 6.8C4.6998 6.9 4.6998 6.9 4.5998 7V7.1V7.2V7.3C4.5998 7.4 4.5998 7.4 4.5998 7.5C4.5998 7.7 4.7998 7.9 4.9998 8C4.9998 8.1 4.8998 8.2 4.8998 8.3C4.7998 8.4 4.6998 8.6 4.6998 8.8C4.6998 9 4.5998 9.1 4.5998 9.3C4.4998 9.5 4.3998 9.7 4.3998 10C4.3998 10.2 4.2998 10.3 4.2998 10.5C4.2998 10.7 4.1998 10.8 4.1998 11V11.1C4.0998 11.3 3.9998 11.6 3.9998 11.8C3.9998 12 3.8998 12.3 3.8998 12.5C3.8998 12.7 3.7998 13 3.7998 13.3C3.7998 13.4 3.7998 13.6 3.7998 13.7C3.7998 13.8 3.7998 13.9 3.7998 14C3.7998 14.5 3.6998 15 3.5998 15.6C3.4998 15.9 3.4998 16.2 3.3998 16.5C3.2998 16.7 3.2998 17 3.1998 17.2C3.0998 17.6 3.0998 18 2.9998 18.3C2.9998 18.6 2.9998 19 2.9998 19.3V19.4C2.9998 19.8 2.9998 20.2 2.9998 20.6V20.8C2.9998 21.1 2.9998 21.3 3.0998 21.6V21.7C3.0998 21.9 3.0998 22.1 3.0998 22.2C3.0998 22.4 3.0998 22.6 3.1998 22.8C3.1998 22.9 3.1998 23 3.1998 23.1C3.1998 23.4 3.2998 23.7 3.2998 24C3.2998 24.4 3.2998 24.7 3.2998 25C3.2998 25.3 3.1998 25.5 3.1998 25.8C3.1998 25.9 3.1998 26 3.0998 26.1C3.0998 26.5 2.9998 26.8 2.9998 27C2.9998 27.1 2.9998 27.2 2.9998 27.3V27.5C2.9998 27.7 2.8998 28 2.8998 28.2C2.7998 28.5 2.6998 28.8 2.4998 29.2C2.3998 29.5 2.1998 29.7 2.0998 30C1.9998 30.2 1.8998 30.4 1.7998 30.7C1.7998 30.8 1.6998 30.9 1.6998 31C1.5998 31.2 1.5998 31.3 1.4998 31.5L1.3998 31.7C1.2998 31.9 1.2998 32.1 1.1998 32.3C0.999805 32.8 0.799805 33.3 0.799805 33.9C0.799805 34.1 0.799805 34.3 0.899805 34.6C0.999805 34.9 0.999805 35.2 1.2998 35.4C1.3998 35.5 1.4998 35.6 1.6998 35.7C1.7998 35.8 1.8998 35.8 1.9998 35.9C2.0998 35.9 2.0998 36 2.1998 36C2.4998 36.2 2.7998 36.4 3.1998 36.5C3.4998 36.6 3.8998 36.7 4.2998 36.8C4.3998 36.8 4.3998 36.8 4.4998 36.8C4.5998 36.8 4.5998 36.8 4.6998 36.8C4.8998 36.8 4.9998 36.8 5.1998 36.8C5.3998 36.8 5.6998 36.8 5.8998 36.7H5.9998C6.1998 36.7 6.4998 36.6 6.6998 36.6C6.8998 36.6 7.1998 36.5 7.4998 36.4C7.5998 36.4 7.7998 36.3 7.8998 36.3C7.9998 36.3 8.1998 36.2 8.2998 36.2C8.4998 36.2 8.5998 36.1 8.7998 36C8.89981 36 8.9998 35.9 8.9998 35.9C9.0998 35.9 9.0998 35.9 9.1998 35.8C9.2998 35.8 9.3998 35.7 9.3998 35.7C9.5998 35.6 9.7998 35.6 9.9998 35.5C10.1998 35.4 10.4998 35.2 10.6998 35C10.9998 34.8 11.1998 34.5 11.3998 34.2C11.4998 34.1 11.5998 34 11.6998 33.8C11.7998 33.7 11.8998 33.5 11.9998 33.4C12.0998 33.3 12.1998 33.1 12.2998 33V32.9C12.3998 32.7 12.4998 32.6 12.4998 32.4C12.5998 32.1 12.6998 31.9 12.7998 31.5C12.8998 31.2 12.8998 31 12.9998 30.7C12.9998 30.6 12.9998 30.6 12.9998 30.5C12.9998 30.3 13.0998 30.1 13.1998 30C13.3998 30.1 13.5998 30.1 13.6998 30.2C13.7998 30.2 13.8998 30.3 13.9998 30.3H14.0998C14.1998 30.4 14.3998 30.4 14.5998 30.4C14.6998 30.4 14.7998 30.4 14.7998 30.4C14.8998 30.4 14.8998 30.4 14.9998 30.4L15.0998 30.5L15.2998 30.6C15.3998 30.7 15.4998 30.7 15.5998 30.8C15.6998 30.8 15.6998 30.9 15.7998 30.9C15.8998 30.9 15.8998 31 15.9998 31C16.1998 31.1 16.4998 31.3 16.6998 31.5C16.7998 31.6 16.7998 31.6 16.8998 31.7C16.9998 31.7 16.9998 31.8 17.0998 31.8L17.1998 31.9C17.2998 32 17.2998 32 17.3998 32.1L17.4998 32.2C17.4998 32.2 17.4998 32.2 17.4998 32.3C17.3998 32.4 17.2998 32.6 17.2998 32.7L17.1998 32.9C17.0998 33.1 16.9998 33.2 16.9998 33.4C16.9998 33.5 16.8998 33.6 16.8998 33.7V33.8C16.7998 34.1 16.6998 34.4 16.5998 34.7C16.4998 34.9 16.4998 35.2 16.4998 35.5C16.4998 35.7 16.4998 35.9 16.4998 36C16.4998 36.2 16.5998 36.3 16.6998 36.5C16.7998 36.6 16.8998 36.8 16.9998 36.9C17.0998 37 17.2998 37.1 17.3998 37.2C17.7998 37.5 18.1998 37.7 18.7998 37.9C19.0998 38 19.4998 38.1 19.9998 38.1C20.1998 38.1 20.3998 38.1 20.6998 38V38.1C20.6998 38.3 20.6998 38.4 20.6998 38.6C20.6998 38.7 20.6998 38.8 20.7998 38.9C20.7998 39 20.7998 39 20.7998 39C20.7998 39.1 20.7998 39.2 20.7998 39.3C20.7998 39.5 20.7998 39.7 20.7998 39.9C20.7998 40.1 20.8998 40.3 20.8998 40.5C20.9998 40.7 20.9998 40.9 21.0998 41C21.1998 41.1 21.1998 41.2 21.2998 41.3L21.3998 41.4C21.3998 41.4 21.3998 41.4 21.3998 41.5C21.4998 41.7 21.6998 42 21.7998 42.2C21.8998 42.3 21.8998 42.4 21.9998 42.5C22.0998 42.7 22.2998 42.8 22.3998 42.9C22.4998 43 22.5998 43 22.6998 43.1C22.7998 43.2 22.9998 43.3 23.1998 43.3C23.2998 43.3 23.3998 43.4 23.4998 43.4H23.5998C23.7998 43.4 23.8998 43.5 24.0998 43.5C24.2998 43.6 24.4998 43.6 24.7998 43.6C24.9998 43.6 25.0998 43.6 25.2998 43.6H25.4998C25.4998 43.6 25.4998 43.6 25.5998 43.6C25.7998 43.6 25.9998 43.6 26.1998 43.5H26.2998C26.4998 43.5 26.6998 43.4 26.8998 43.4H27.0998C27.1998 43.4 27.1998 43.4 27.2998 43.4C27.2998 43.7 27.2998 43.9 27.2998 44.2C27.2998 44.4 27.3998 44.7 27.4998 45C27.4998 45.1 27.5998 45.2 27.5998 45.3C27.5998 45.4 27.6998 45.5 27.7998 45.6V45.7V45.8V45.9C27.8998 46.1 27.9998 46.2 28.0998 46.4C28.2998 46.6 28.4998 46.8 28.7998 47C28.8998 47.1 29.0998 47.1 29.1998 47.2C29.2998 47.2 29.2998 47.3 29.3998 47.3H29.4998C29.7998 47.4 30.0998 47.5 30.2998 47.5C30.4998 47.5 30.6998 47.5 30.8998 47.5C30.9998 47.5 30.9998 47.5 31.0998 47.5C31.2998 47.5 31.4998 47.5 31.6998 47.5C31.8998 47.5 31.9998 47.5 32.1998 47.5C32.2998 47.5 32.3998 47.5 32.4998 47.5C32.6998 47.5 32.9998 47.5 33.1998 47.5C33.2998 47.5 33.4998 47.5 33.5998 47.5H33.6998C33.6998 47.6 33.6998 47.7 33.7998 47.9C33.7998 48 33.8998 48 33.8998 48.1V48.2C33.8998 48.3 33.9998 48.3 33.9998 48.4C33.9998 48.4 33.9998 48.5 34.0998 48.5C34.2998 48.9 34.3998 49.1 34.5998 49.3C34.7998 49.5 34.9998 49.7 35.2998 49.9C35.4998 50 35.6998 50.1 35.8998 50.2C35.9998 50.2 35.9998 50.3 36.0998 50.3C36.2998 50.4 36.5998 50.5 36.6998 50.6C36.7998 50.6 36.8998 50.7 36.9998 50.7C37.0998 50.8 37.2998 50.8 37.3998 50.9C37.4998 50.9 37.6998 51 37.8998 51C37.9998 51 38.0998 51 38.2998 51H38.3998C38.4998 51 38.6998 51 38.8998 50.9C39.0998 50.9 39.1998 50.8 39.3998 50.8C39.5998 50.8 39.7998 50.7 39.9998 50.6C40.0998 50.5 40.2998 50.5 40.3998 50.4C40.4998 50.4 40.4998 50.3 40.5998 50.3L40.6998 50.2C40.8998 50.1 40.9998 50 41.1998 49.9C41.3998 49.8 41.4998 49.7 41.6998 49.6C41.7998 49.5 41.8998 49.5 41.9998 49.4C42.0998 49.3 42.2998 49.2 42.3998 49.1C42.4998 49.2 42.5998 49.3 42.7998 49.3C42.8998 49.3 43.0998 49.3 43.1998 49.3H43.2998C43.3998 49.3 43.3998 49.3 43.4998 49.3C43.5998 49.3 43.6998 49.4 43.7998 49.4C43.8998 49.4 43.9998 49.5 43.9998 49.5C44.0998 49.5 44.0998 49.5 44.1998 49.6C44.2998 49.6 44.2998 49.6 44.3998 49.7C44.4998 49.7 44.4998 49.7 44.5998 49.8C44.6998 49.8 44.6998 49.9 44.7998 49.9C44.8998 49.9 45.0998 50 45.2998 50C45.5998 50.1 45.7998 50.1 46.0998 50.2C46.4998 50.3 46.7998 50.3 47.1998 50.3C47.2998 50.3 47.3998 50.3 47.3998 50.3C47.4998 50.3 47.5998 50.3 47.6998 50.3C47.8998 50.3 48.1998 50.3 48.4998 50.2C48.6998 50.2 48.7998 50.1 48.8998 50C48.9998 49.9 49.0998 49.9 49.2998 49.8H49.3998C49.4998 49.8 49.4998 49.7 49.5998 49.7C49.6998 49.6 49.7998 49.6 49.8998 49.5C50.0998 49.4 50.1998 49.3 50.2998 49.1L50.3998 49C50.4998 48.9 50.5998 48.8 50.6998 48.6C50.7998 48.5 50.8998 48.3 50.8998 48.2V48.1C50.8998 48.1 50.8998 48 50.9998 48C50.9998 47.9 51.0998 47.9 51.0998 47.8H51.1998C51.2998 47.8 51.3998 47.8 51.5998 47.8C51.6998 47.8 51.7998 47.8 51.8998 47.8C51.9998 47.8 52.0998 47.8 52.2998 47.8C52.4998 47.8 52.5998 47.8 52.7998 47.8H52.8998C53.1998 47.8 53.4998 47.7 53.6998 47.6C53.7998 47.6 53.9998 47.5 54.0998 47.4C54.1998 47.4 54.2998 47.3 54.3998 47.3C54.5998 47.2 54.8998 47.1 55.0998 47C55.2998 46.8 55.4998 46.6 55.6998 46.4C55.8998 46.1 56.0998 45.8 56.1998 45.6C56.2998 45.4 56.3998 45.1 56.4998 44.8C56.4998 44.7 56.4998 44.7 56.4998 44.6C56.5998 44.4 56.5998 44.2 56.6998 44C56.7998 44 56.8998 44 57.0998 44H57.1998C57.2998 44 57.4998 44 57.5998 44C57.7998 44 57.9998 43.9 58.0998 43.9C58.2998 43.9 58.3998 43.8 58.5998 43.7C58.6998 43.7 58.7998 43.6 58.8998 43.6H58.9998C59.1998 43.5 59.3998 43.4 59.5998 43.3C59.6998 43.3 59.7998 43.2 59.7998 43.2C59.7998 43.2 59.8998 43.2 59.8998 43.1C59.9998 43 60.1998 42.9 60.2998 42.9L60.3998 42.8C60.4998 42.7 60.5998 42.7 60.6998 42.6C60.8998 42.5 60.9998 42.3 61.1998 42.2C61.3998 42 61.4998 41.7 61.6998 41.5C61.7998 41.3 61.9998 41 62.0998 40.7C62.2998 40.3 62.3998 39.9 62.4998 39.5V39.4V39.3V39.2V39.1C62.4998 39 62.5998 38.9 62.5998 38.8L62.6998 38.7C62.7998 38.7 62.8998 38.7 62.9998 38.7C63.0998 38.7 63.1998 38.7 63.3998 38.7C63.6998 38.6 63.9998 38.5 64.2998 38.4C64.5998 38.2 64.8998 38.1 65.0998 37.9C65.2998 37.8 65.3998 37.7 65.4998 37.6C65.5998 37.5 65.6998 37.5 65.7998 37.4C65.8998 37.3 65.9998 37.3 66.0998 37.2C66.1998 37.1 66.2998 37 66.4998 36.8C66.6998 36.5 66.7998 36.2 66.8998 36C66.9998 35.8 67.0998 35.5 67.1998 35.2C67.2998 35 67.2998 34.8 67.3998 34.5V34.3C67.4998 34 67.4998 33.7 67.4998 33.5C67.4998 33.4 67.4998 33.3 67.4998 33.2C67.4998 33 67.4998 32.9 67.5998 32.7C67.5998 32.7 67.5998 32.7 67.5998 32.6C67.7998 32.5 67.9998 32.4 68.1998 32.4C68.5998 32.3 68.8998 32.3 69.2998 32.2C69.3998 32.2 69.5998 32.2 69.6998 32.1C69.7998 32.1 69.9998 32 70.0998 32C70.1998 32 70.1998 32 70.2998 32C70.3998 32 70.5998 31.9 70.6998 31.9C70.8998 31.9 70.9998 31.9 71.2998 32H71.3998C71.3998 32.1 71.4998 32.1 71.4998 32.2C71.5998 32.5 71.5998 32.7 71.6998 33V33.1C71.6998 33.2 71.6998 33.4 71.7998 33.5C71.7998 33.7 71.8998 33.8 71.8998 34C71.8998 34.1 71.9998 34.3 71.9998 34.4C71.9998 34.5 71.9998 34.6 72.0998 34.7C72.0998 34.8 72.0998 35 72.1998 35.1C72.1998 35.2 72.1998 35.4 72.2998 35.5C72.2998 35.7 72.3998 35.8 72.3998 36C72.3998 36.1 72.4998 36.3 72.4998 36.4C72.5998 36.7 72.5998 37 72.6998 37.3C72.6998 37.4 72.7998 37.5 72.7998 37.6C72.8998 37.8 72.9998 38 73.1998 38.1C73.3998 38.3 73.5998 38.4 73.8998 38.5C73.9998 38.6 74.1998 38.6 74.2998 38.6H74.3998C74.4998 38.6 74.6998 38.6 74.7998 38.7H74.8998C74.9998 38.7 75.1998 38.7 75.3998 38.7C75.4998 38.7 75.5998 38.7 75.6998 38.7H75.7998C76.0998 38.7 76.3998 38.7 76.6998 38.6C76.8998 38.6 77.1998 38.5 77.3998 38.5C77.4998 38.5 77.6998 38.5 77.7998 38.4C77.8998 38.4 78.0998 38.4 78.1998 38.3H78.2998C78.3998 38.3 78.4998 38.3 78.5998 38.3C78.6998 38.3 78.8998 38.2 78.9998 38.2C79.2998 38.1 79.5998 38 79.8998 37.9C80.1998 37.8 80.3998 37.7 80.6998 37.5L80.7998 37.4H80.8998C80.9998 37.4 80.9998 37.3 81.0998 37.3C81.0998 37.3 81.1998 37.3 81.1998 37.2C81.2998 37.1 81.4998 37 81.5998 36.9C81.7998 36.7 81.9998 36.5 82.0998 36.3C82.1998 36.1 82.3998 35.9 82.3998 35.6C82.4998 35.1 82.5998 34.6 82.5998 34C82.5998 33.6 82.5998 33.2 82.5998 32.9C82.5998 32.8 82.5998 32.7 82.5998 32.6C82.4998 32.6 82.4998 32.2 82.4998 31.9Z" fill="#FFC2EB"/>
<path d="M73.1996 12.5C73.0996 12.5 73.0996 12.5 73.1996 12.5C73.0996 12.5 73.0996 12.5 73.0996 12.4C73.0996 12.5 73.0996 12.5 73.1996 12.5Z" fill="black"/>
<path d="M23.3002 36.4C23.2002 36.5 23.2002 36.5 23.2002 36.5C23.3002 36.4 23.3002 36.4 23.3002 36.4Z" fill="black"/>
<path d="M83.7002 31.5C83.6002 30.9 83.5002 30.3 83.4002 29.7C83.4002 29.4 83.3002 29.2 83.3002 28.9C83.2002 28.6 83.2002 28.2 83.2002 27.9C83.1002 27.3 83.0002 26.7 82.9002 26.1C82.8002 25.8 82.8002 25.4 82.7002 25.1C82.6002 24.6 82.6002 24.1 82.5002 23.5C82.4002 23 82.3002 22.5 82.3002 22C82.2002 21.3 82.2002 20.6 82.1002 19.9C82.1002 19.6 82.0002 19.2 81.9002 18.9C81.8002 18.6 81.8002 18.2 81.8002 17.9C81.8002 17.4 81.7002 16.8 81.7002 16.3C81.6002 15.7 81.6002 15.2 81.5002 14.6C81.4002 14 81.3002 13.5 81.3002 12.9C81.3002 12.8 81.3002 12.7 81.3002 12.6C81.3002 12.5 81.3002 12.4 81.3002 12.2C81.3002 11.9 81.3002 11.6 81.2002 11.3C81.2002 11 81.1002 10.7 81.1002 10.4C81.1002 10.2 81.1002 10 81.1002 9.8C81.1002 9.6 81.1002 9.4 81.1002 9.1C81.1002 8.8 81.1002 8.5 81.0002 8.2C81.0002 7.9 80.9002 7.7 80.9002 7.4C80.9002 7.4 80.9002 7.4 80.9002 7.5C80.9002 7.4 80.9002 7.3 80.9002 7.2C80.9002 7 80.9002 6.8 80.9002 6.6C80.9002 6.5 80.9002 6.3 80.9002 6.2C80.9002 6.1 80.9002 6.1 80.9002 6V5.9C80.9002 5.8 80.9002 5.7 80.9002 5.6C80.9002 5.5 80.9002 5.4 80.9002 5.3V5.2C80.9002 5 80.9002 4.9 80.9002 4.7C80.9002 4.3 80.8002 4 80.7002 3.7C80.6002 3.4 80.4002 3.2 80.2002 3C80.1002 2.9 80.0002 2.8 79.8002 2.7C79.6002 2.6 79.4002 2.5 79.2002 2.5C79.1002 2.5 79.0002 2.5 78.9002 2.5C78.8002 2.4 78.7002 2.4 78.5002 2.4C78.4002 2.4 78.3002 2.4 78.3002 2.4H78.2002C78.1002 2.4 78.1002 2.4 78.0002 2.4C77.8002 2.4 77.5002 2.4 77.3002 2.5C77.2002 2.5 77.1002 2.5 77.0002 2.5C76.8002 2.5 76.7002 2.5 76.5002 2.6C76.3002 2.6 76.1002 2.6 75.9002 2.6C75.8002 2.6 75.8002 2.6 75.7002 2.6C75.5002 2.6 75.3002 2.6 75.0002 2.6C74.8002 2.6 74.6002 2.6 74.4002 2.6C74.2002 2.6 74.1002 2.6 73.9002 2.6C73.7002 2.6 73.4002 2.5 73.2002 2.5C73.0002 2.5 72.8002 2.5 72.7002 2.5C72.5002 2.5 72.3002 2.5 72.2002 2.6C71.9002 2.7 71.6002 2.7 71.3002 2.8C71.1002 2.9 71.0002 2.9 70.8002 3C70.7002 3 70.7002 3.1 70.6002 3.1C70.6002 3.1 70.5002 3.1 70.4002 3.2C70.2002 3 70.0002 3.2 70.0002 3.3C70.0002 3.4 69.9002 3.5 69.9002 3.6C69.8002 3.8 69.7002 3.9 69.6002 4.1C69.5002 4.3 69.4002 4.5 69.4002 4.7C69.4002 4.9 69.3002 5.2 69.3002 5.4C69.3002 5.6 69.4002 5.8 69.4002 6C69.5002 6.5 69.6002 7 69.7002 7.5C69.7002 7.6 69.7002 7.6 69.7002 7.7C69.6002 7.7 69.5002 7.7 69.5002 7.7C69.4002 7.7 69.3002 7.7 69.3002 7.7C69.2002 7.7 69.1002 7.7 69.0002 7.7C68.9002 7.7 68.7002 7.7 68.6002 7.7C68.4002 7.7 68.3002 7.7 68.1002 7.7C67.9002 7.7 67.8002 7.7 67.6002 7.7C67.4002 7.7 67.3002 7.7 67.1002 7.7C66.9002 7.7 66.7002 7.7 66.5002 7.7C66.1002 7.7 65.8002 7.7 65.4002 7.8C65.2002 7.8 65.0002 7.8 64.7002 7.8C64.6002 7.8 64.5002 7.8 64.3002 7.8C64.2002 7.8 64.0002 7.8 63.9002 7.8C63.6002 7.8 63.3002 7.8 63.1002 7.8C63.0002 7.8 62.8002 7.8 62.7002 7.8C62.6002 7.8 62.6002 7.8 62.5002 7.8C61.9002 7.6 61.3002 7.4 60.7002 7.2C60.3002 7.1 59.9002 6.9 59.5002 6.7C59.1002 6.5 58.8002 6.4 58.4002 6.2C57.9002 6 57.5002 5.7 57.0002 5.5C56.5002 5.2 56.0002 4.9 55.5002 4.6C55.0002 4.3 54.5002 4.1 53.9002 3.9C53.7002 3.8 53.4002 3.7 53.2002 3.6C52.9002 3.5 52.7002 3.4 52.4002 3.3C51.9002 3.1 51.4002 3 50.9002 2.8C50.5002 2.7 50.0002 2.5 49.6002 2.4C49.4002 2.3 49.2002 2.3 49.0002 2.2C48.7002 2.1 48.5002 2 48.2002 1.9C47.9002 1.8 47.6002 1.7 47.3002 1.7H47.2002C47.1002 1.7 46.9002 1.6 46.8002 1.6C46.5002 1.5 46.2002 1.5 45.9002 1.4C45.6002 1.3 45.3002 1.3 45.0002 1.3C44.6002 1.2 44.3002 1.2 43.9002 1.1C43.5002 1 43.0002 1 42.6002 1C42.5002 1 42.5002 1 42.4002 1C42.1002 1 41.8002 1 41.5002 1.1C41.3002 1.1 41.2002 1.1 41.0002 1.2C40.9002 1.2 40.7002 1.3 40.6002 1.3H40.5002C40.3002 1.3 40.2002 1.4 40.0002 1.4C39.7002 1.5 39.4002 1.6 39.2002 1.7C38.9002 1.9 38.6002 2.1 38.3002 2.3L38.4002 2.2C38.3002 2.3 38.2002 2.4 38.0002 2.5L38.1002 2.4C37.9002 2.5 37.7002 2.7 37.5002 2.8C37.3002 2.9 37.2002 3 37.0002 3.1C36.8002 3.2 36.6002 3.4 36.4002 3.6C36.3002 3.6 36.2002 3.6 36.1002 3.5C35.8002 3.5 35.5002 3.4 35.2002 3.4C35.1002 3.4 35.0002 3.4 34.9002 3.4C34.4002 3.4 34.0002 3.4 33.5002 3.5C32.9002 3.6 32.3002 3.7 31.7002 3.9C31.2002 4 30.7002 4.2 30.2002 4.4C29.8002 4.5 29.5002 4.7 29.1002 4.8C28.7002 4.9 28.4002 5.1 28.0002 5.3C27.2002 5.6 26.4002 5.9 25.5002 6.1H25.4002C25.3002 6.1 25.2002 6.2 25.1002 6.2C24.6002 6.3 24.1002 6.4 23.6002 6.5C23.1002 6.6 22.6002 6.7 22.0002 6.7C21.4002 6.8 20.9002 6.8 20.3002 6.9C19.8002 6.9 19.3002 7 18.8002 7C18.3002 7 17.8002 7 17.4002 7C17.3002 7 17.3002 7 17.2002 7C17.2002 6.9 17.2002 6.7 17.2002 6.6C17.2002 6.1 17.3002 5.6 17.3002 5C17.3002 4.7 17.3002 4.4 17.3002 4.2C17.3002 4 17.3002 3.7 17.3002 3.5C17.3002 3.1 17.2002 2.6 17.1002 2.2C17.1002 2 17.0002 1.9 17.0002 1.7C17.0002 1.6 16.9002 1.5 16.9002 1.4C16.9002 1.3 16.8002 1.2 16.7002 1.1C16.7002 1 16.6002 1 16.6002 1C16.5002 0.9 16.5002 0.9 16.4002 0.8C16.3002 0.7 16.1002 0.7 15.9002 0.7C15.8002 0.7 15.7002 0.7 15.7002 0.7H15.6002C15.4002 0.8 15.3002 0.8 15.1002 1C15.0002 1.1 14.9002 1.1 14.9002 1.2C14.7002 1.2 14.5002 1.1 14.4002 1C14.1002 1.1 13.9002 1 13.7002 1C13.2002 0.9 12.7002 0.8 12.3002 0.7C12.4002 0.7 12.4002 0.7 12.5002 0.7C12.4002 0.7 12.3002 0.7 12.2002 0.7C11.9002 0.7 11.7002 0.6 11.4002 0.6C11.3002 0.6 11.3002 0.6 11.2002 0.6C11.1002 0.6 10.9002 0.5 10.8002 0.5C10.6002 0.4 10.3002 0.4 10.1002 0.3C9.80021 0.2 9.50021 0.1 9.20021 0.1C9.10021 0.1 8.90021 0.1 8.80021 0.1H8.70021C8.50021 0 8.40021 0 8.20021 0C8.20021 0 8.20021 0 8.10021 0C8.00021 0 7.80021 0 7.60021 0.1C7.30021 0.1 7.00021 0.2 6.80021 0.4C6.60021 0.5 6.50021 0.6 6.40021 0.7C6.30021 0.8 6.20021 0.9 6.10021 1C6.00021 1.2 5.80021 1.4 5.60021 1.6C5.50021 1.8 5.30021 2 5.20021 2.3C5.00021 2.7 4.80021 3.2 4.60021 3.7C4.40021 4.2 4.30021 4.7 4.20021 5.2C4.10021 5.8 4.00021 6.4 3.90021 7C3.90021 6.9 3.90021 6.9 3.90021 6.8C3.70021 8 3.50021 9.2 3.30021 10.4C3.20021 11 3.10021 11.6 3.10021 12.2C3.10021 12.5 3.00021 12.8 3.00021 13.1C3.00021 13.4 3.00021 13.7 2.90021 14C2.90021 14.3 2.80021 14.6 2.80021 14.9C2.80021 15.2 2.70021 15.5 2.70021 15.8C2.70021 16.1 2.60021 16.4 2.60021 16.6C2.60021 16.9 2.60021 17.2 2.50021 17.5C2.50021 17.8 2.50021 18.1 2.50021 18.4C2.50021 18.7 2.50021 19 2.40021 19.3C2.40021 19.9 2.30021 20.5 2.30021 21.1C2.30021 21.4 2.30021 21.7 2.20021 21.9C2.20021 22.1 2.20021 22.4 2.10021 22.6C2.10021 23.2 2.00021 23.7 1.90021 24.3C1.90021 24.8 1.80021 25.2 1.80021 25.7C1.80021 25.8 1.80021 26 1.80021 26.1C1.80021 26.3 1.80021 26.4 1.80021 26.6C1.80021 26.7 1.80021 26.9 1.70021 27C1.70021 27.1 1.70021 27.2 1.70021 27.3C1.70021 27.4 1.70021 27.5 1.60021 27.6C1.60021 27.7 1.60021 27.7 1.60021 27.8C1.60021 28 1.50021 28.1 1.50021 28.3V28.4C1.50021 28.5 1.50021 28.6 1.50021 28.6V28.7C1.50021 28.8 1.50021 28.8 1.50021 28.9C1.50021 29 1.50021 29 1.50021 29.1C1.50021 29.2 1.50021 29.2 1.50021 29.3V29.4C1.50021 29.5 1.50021 29.5 1.50021 29.6V29.7C1.20021 30 1.10021 30.1 1.00021 30.3C0.900206 30.5 0.800206 30.8 0.700206 31C0.600206 31.2 0.600206 31.3 0.500206 31.5C0.500206 31.6 0.400206 31.8 0.400206 31.9C0.300206 32.2 0.200206 32.4 0.200206 32.7C0.200206 33 0.100206 33.3 0.200206 33.6C0.200206 33.8 0.200206 33.9 0.300206 34.1C0.400206 34.2 0.400206 34.4 0.500206 34.5C0.500206 34.6 0.600206 34.7 0.600206 34.8C0.600206 35 0.700206 35.3 0.800206 35.5C0.900206 35.8 1.20021 36 1.40021 36.2C1.60021 36.4 1.90021 36.5 2.20021 36.6C2.40021 36.7 2.60021 36.8 2.90021 36.9C3.20021 37 3.40021 37 3.70021 37.1C4.10021 37.1 4.50021 37.1 4.90021 37.1C5.10021 37.1 5.30021 37.1 5.40021 37.1C5.60021 37.1 5.80021 37.1 6.00021 37.1C6.30021 37.1 6.70021 37.1 7.00021 37C7.30021 37 7.60021 36.9 7.90021 36.8H8.00021C8.10021 36.8 8.10021 36.8 8.20021 36.8C8.70021 36.7 9.10021 36.6 9.60021 36.5C9.80021 36.5 10.0002 36.4 10.1002 36.3C10.2002 36.2 10.4002 36.2 10.5002 36.1C10.8002 36 11.0002 35.8 11.2002 35.6C11.4002 35.4 11.6002 35.3 11.8002 35.1C12.0002 34.9 12.2002 34.6 12.4002 34.4C12.6002 34.1 12.7002 33.9 12.8002 33.6C12.9002 33.3 13.0002 33 13.0002 32.7C13.0002 32.5 13.1002 32.2 13.1002 32C13.1002 31.9 13.1002 31.8 13.1002 31.8C13.5002 31.9 13.8002 31.9 14.2002 32C14.6002 32.1 15.0002 32.3 15.4002 32.5C15.7002 32.6 16.0002 32.8 16.2002 33C16.1002 33.1 16.1002 33.2 16.1002 33.2C16.0002 33.4 15.9002 33.6 15.9002 33.8C15.9002 34 15.8002 34.1 15.8002 34.3C15.8002 34.5 15.8002 34.7 15.8002 34.9C15.8002 35 15.8002 35 15.8002 35.1V35.2V35.3C15.9002 35.7 15.9002 36 16.0002 36.4C16.1002 36.6 16.1002 36.8 16.2002 37C16.3002 37.3 16.5002 37.6 16.7002 37.8C16.9002 38 17.1002 38.2 17.4002 38.4C17.7002 38.5 17.9002 38.7 18.2002 38.7C18.4002 38.8 18.6002 38.8 18.9002 38.8C19.0002 38.8 19.2002 38.8 19.3002 38.8C19.5002 38.8 19.7002 38.7 19.9002 38.7C19.9002 38.9 19.8002 39.1 19.8002 39.3C19.8002 39.6 19.8002 39.9 19.8002 40.2C19.8002 40.5 19.9002 40.8 19.9002 41C20.1002 41.5 20.3002 42 20.6002 42.5C20.7002 42.6 20.7002 42.7 20.8002 42.8C20.9002 42.9 21.0002 43.1 21.1002 43.2C21.2002 43.4 21.4002 43.5 21.6002 43.7C21.7002 43.8 21.8002 43.9 21.9002 44C22.0002 44.1 22.1002 44.2 22.2002 44.3C22.3002 44.4 22.5002 44.5 22.7002 44.6C22.8002 44.7 22.9002 44.7 23.1002 44.7C23.4002 44.8 23.8002 44.9 24.1002 44.9C24.5002 44.9 24.9002 44.8 25.3002 44.7C25.4002 44.7 25.6002 44.6 25.7002 44.5C25.8002 44.5 25.9002 44.4 26.0002 44.4C26.1002 44.4 26.2002 44.3 26.2002 44.3C26.2002 44.4 26.2002 44.6 26.2002 44.7C26.2002 44.9 26.2002 45.1 26.3002 45.4C26.4002 45.8 26.5002 46.3 26.6002 46.7C26.7002 47 26.8002 47.2 27.0002 47.5C27.1002 47.7 27.3002 48 27.5002 48.1C27.7002 48.3 28.0002 48.5 28.3002 48.6C28.6002 48.7 28.8002 48.8 29.1002 48.9C29.4002 49 29.6002 49 29.9002 49.1C30.2002 49.1 30.5002 49.2 30.8002 49.1C31.1002 49.1 31.3002 49.1 31.6002 49C31.9002 48.9 32.2002 48.9 32.5002 48.8C32.8002 48.7 33.1002 48.6 33.3002 48.5C33.3002 48.6 33.3002 48.7 33.4002 48.9C33.4002 49.1 33.5002 49.2 33.6002 49.4C33.7002 49.6 33.7002 49.9 33.9002 50.1C34.0002 50.2 34.0002 50.3 34.1002 50.5C34.2002 50.6 34.3002 50.7 34.4002 50.9C34.5002 51 34.6002 51.1 34.7002 51.2L34.8002 51.3C35.0002 51.5 35.3002 51.8 35.5002 51.9C35.6002 52 35.8002 52.1 35.9002 52.2C36.0002 52.3 36.2002 52.3 36.4002 52.4C36.5002 52.4 36.7002 52.4 36.8002 52.4C37.1002 52.4 37.4002 52.4 37.7002 52.4C38.0002 52.4 38.3002 52.4 38.5002 52.3C38.8002 52.2 39.1002 52.1 39.4002 52C39.7002 51.9 40.0002 51.8 40.2002 51.7C40.4002 51.6 40.7002 51.5 40.9002 51.3H41.0002C41.3002 51.2 41.6002 51 41.9002 50.9C42.1002 50.8 42.4002 50.8 42.6002 50.8C42.9002 50.8 43.2002 50.9 43.4002 50.9C43.6002 50.9 43.9002 51 44.1002 51C44.2002 51.1 44.3002 51.1 44.4002 51.1C44.8002 51.3 45.2002 51.4 45.7002 51.6C45.8002 51.6 45.9002 51.7 46.0002 51.7C46.1002 51.7 46.3002 51.8 46.4002 51.8C46.6002 51.8 46.7002 51.8 46.9002 51.8C47.1002 51.8 47.2002 51.8 47.4002 51.8C47.4002 51.8 47.4002 51.8 47.5002 51.8C47.6002 51.8 47.7002 51.8 47.8002 51.8C47.9002 51.8 48.0002 51.8 48.1002 51.7C48.3002 51.6 48.6002 51.6 48.8002 51.4C49.0002 51.3 49.2002 51.1 49.3002 51C49.4002 50.9 49.5002 50.8 49.6002 50.7L49.7002 50.6C49.7002 50.6 49.7002 50.6 49.6002 50.7C49.9002 50.4 50.2002 50.2 50.4002 49.8C50.5002 49.6 50.6002 49.4 50.7002 49.3C50.8002 49.3 50.8002 49.4 50.9002 49.4C50.9002 49.4 50.8002 49.4 50.8002 49.3C51.1002 49.4 51.3002 49.5 51.6002 49.6C51.9002 49.7 52.1002 49.7 52.4002 49.8C52.6002 49.8 52.8002 49.9 53.0002 49.9C53.1002 49.9 53.3002 49.9 53.4002 49.9C53.5002 49.9 53.7002 49.8 53.8002 49.8C53.8002 49.8 53.8002 49.8 53.7002 49.8C53.9002 49.7 54.1002 49.7 54.3002 49.6C54.5002 49.5 54.7002 49.4 54.8002 49.2C55.0002 49.1 55.1002 49 55.2002 48.9C55.4002 48.8 55.5002 48.6 55.6002 48.4C55.8002 48.1 56.0002 47.7 56.2002 47.4C56.4002 47.1 56.5002 46.7 56.5002 46.3C56.5002 46.2 56.5002 46 56.5002 45.9C56.5002 45.7 56.5002 45.6 56.5002 45.4C56.5002 45.3 56.5002 45.3 56.5002 45.2C56.6002 45.2 56.6002 45.2 56.7002 45.2C56.9002 45.2 57.0002 45.3 57.2002 45.3C57.6002 45.4 58.0002 45.4 58.4002 45.4C58.6002 45.4 58.8002 45.4 59.0002 45.3C59.2002 45.3 59.4002 45.2 59.6002 45.1C59.7002 45 59.9002 45 60.0002 44.9C60.1002 44.8 60.2002 44.8 60.3002 44.7C60.4002 44.6 60.5002 44.6 60.6002 44.5C60.8002 44.4 60.9002 44.3 61.1002 44.2C61.2002 44.1 61.4002 43.9 61.5002 43.8C61.7002 43.6 61.8002 43.4 62.0002 43.2C62.1002 42.9 62.3002 42.7 62.4002 42.4C62.5002 42.1 62.6002 41.9 62.6002 41.6C62.7002 41.3 62.7002 41.1 62.7002 40.8C62.7002 40.6 62.7002 40.3 62.6002 40.1C62.7002 40.1 62.7002 40.1 62.8002 40.1C63.1002 40.1 63.5002 40.1 63.8002 40.1C64.1002 40.1 64.3002 40 64.6002 40C64.9002 39.9 65.1002 39.8 65.4002 39.7C65.6002 39.6 65.9002 39.5 66.1002 39.3C66.2002 39.2 66.4002 39.1 66.5002 38.9C66.6002 38.8 66.8002 38.6 66.9002 38.5C67.1002 38.3 67.2002 38.2 67.3002 38C67.4002 37.9 67.4002 37.8 67.5002 37.7C67.5002 37.6 67.6002 37.6 67.6002 37.5C67.7002 37.4 67.7002 37.3 67.8002 37.2C67.9002 37.1 67.9002 36.9 67.9002 36.8C67.9002 36.7 68.0002 36.5 68.0002 36.4C68.0002 36.2 68.1002 36 68.1002 35.8C68.1002 35.6 68.1002 35.5 68.1002 35.4C68.1002 35.2 68.1002 35 68.0002 34.8C68.0002 34.7 67.9002 34.5 67.9002 34.4C67.9002 34.3 67.9002 34.3 67.9002 34.2C68.1002 34.1 68.3002 34 68.6002 33.9C68.8002 33.8 68.9002 33.8 69.1002 33.8C69.2002 33.8 69.4002 33.7 69.5002 33.7C69.6002 33.7 69.7002 33.7 69.8002 33.7C69.9002 33.7 70.0002 33.7 70.1002 33.7C70.2002 33.7 70.3002 33.7 70.3002 33.7C70.3002 33.8 70.3002 33.8 70.3002 33.9C70.3002 34.2 70.4002 34.5 70.5002 34.7C70.5002 34.9 70.6002 35.1 70.6002 35.3C70.6002 35.4 70.6002 35.4 70.7002 35.5C70.7002 35.5 70.7002 35.6 70.8002 35.6V35.7C70.7002 35.9 70.7002 36.2 70.7002 36.4C70.7002 36.5 70.7002 36.6 70.7002 36.6C70.7002 36.8 70.6002 36.9 70.6002 37.1C70.6002 37.6 70.7002 38.1 71.1002 38.5C71.3002 38.7 71.5002 38.9 71.8002 39C71.9002 39.1 72.0002 39.2 72.1002 39.2C72.3002 39.3 72.4002 39.4 72.6002 39.4C72.8002 39.5 73.1002 39.5 73.3002 39.6C73.4002 39.6 73.5002 39.7 73.6002 39.7C73.8002 39.7 74.0002 39.8 74.1002 39.8C74.2002 39.8 74.4002 39.8 74.5002 39.8C74.6002 39.8 74.8002 39.8 74.9002 39.9C75.2002 39.9 75.4002 40 75.7002 40C76.0002 40 76.3002 40 76.6002 40C76.9002 40 77.2002 40 77.5002 40C78.1002 40 78.7002 39.8 79.3002 39.7C79.6002 39.6 79.9002 39.5 80.2002 39.4C80.5002 39.3 80.7002 39.2 80.9002 39C81.0002 38.9 81.2002 38.8 81.3002 38.7C81.4002 38.6 81.5002 38.5 81.6002 38.4C81.7002 38.3 81.8002 38.1 81.9002 38C82.0002 37.8 82.1002 37.7 82.1002 37.5C82.2002 37.2 82.3002 37 82.4002 36.7C82.5002 36.4 82.5002 36.1 82.6002 35.9C82.7002 35.3 82.8002 34.6 82.8002 34C83.8002 32.8 83.8002 32.2 83.7002 31.5ZM81.8002 28.8C81.8002 29 81.9002 29.2 81.9002 29.4C81.9002 29.5 81.9002 29.7 81.9002 29.8C81.5002 29.7 81.1002 29.7 80.8002 29.6C80.2002 29.5 79.6002 29.4 79.1002 29.2C78.5002 29.1 77.9002 28.9 77.3002 28.8C76.7002 28.7 76.1002 28.5 75.5002 28.4C75.6002 28.1 75.6002 27.8 75.7002 27.5C76.1002 27.6 76.6002 27.7 77.0002 27.7C77.6002 27.8 78.2002 27.9 78.8002 28.1C79.4002 28.3 80.0002 28.4 80.6002 28.6C80.9002 28.7 81.3002 28.7 81.8002 28.8ZM81.4002 26.5C81.4002 26.7 81.5002 26.8 81.5002 27C81.5002 27.2 81.6002 27.4 81.6002 27.6C81.3002 27.6 81.0002 27.5 80.7002 27.4C80.1002 27.2 79.5002 27.1 78.9002 26.9C78.3002 26.7 77.7002 26.6 77.1002 26.5C76.7002 26.4 76.2002 26.3 75.8002 26.2V26.1V26.2C75.9002 25.9 75.9002 25.6 76.0002 25.3C76.3002 25.4 76.7002 25.4 77.0002 25.5C77.3002 25.6 77.6002 25.6 77.9002 25.7C78.2002 25.8 78.4002 25.8 78.7002 25.8C79.2002 25.9 79.8002 26 80.3002 26.1C80.6002 26.3 81.0002 26.4 81.4002 26.5ZM81.0002 24.1C81.1002 24.5 81.1002 24.9 81.2002 25.3C80.9002 25.2 80.7002 25.2 80.4002 25.1C79.9002 25 79.3002 24.9 78.8002 24.8C78.5002 24.8 78.3002 24.7 78.0002 24.7C77.7002 24.6 77.4002 24.6 77.1002 24.5C76.8002 24.4 76.4002 24.3 76.1002 24.3C76.2002 23.9 76.2002 23.5 76.3002 23.1C76.7002 23.2 77.0002 23.3 77.4002 23.4C77.9002 23.5 78.4002 23.7 78.9002 23.8C79.4002 23.9 79.8002 24 80.3002 24.1C80.5002 24 80.8002 24 81.0002 24.1ZM80.6002 21.7C80.6002 21.8 80.6002 21.8 80.6002 21.9C80.7002 22.2 80.7002 22.6 80.8002 22.9C80.7002 22.9 80.6002 22.9 80.6002 22.8C80.1002 22.7 79.7002 22.6 79.2002 22.5C78.7002 22.4 78.2002 22.3 77.7002 22.1C77.3002 22 76.9002 21.9 76.5002 21.8C76.5002 21.6 76.6002 21.3 76.6002 21.1C76.6002 21 76.6002 20.9 76.7002 20.8C77.2002 20.9 77.7002 21 78.3002 21.2C78.7002 21.3 79.1002 21.4 79.4002 21.5C79.8002 21.6 80.1002 21.7 80.5002 21.7H80.6002ZM80.4002 19.5C80.4002 19.7 80.4002 19.9 80.4002 20C80.4002 20.1 80.4002 20.3 80.4002 20.4C80.1002 20.3 79.8002 20.3 79.6002 20.2C79.2002 20.1 78.9002 20 78.5002 19.9C78.0002 19.8 77.4002 19.6 76.9002 19.5C76.9002 19.4 76.9002 19.3 77.0002 19.2C77.0002 19 77.1002 18.8 77.1002 18.6C77.3002 18.7 77.5002 18.7 77.6002 18.8C77.9002 18.9 78.3002 19 78.6002 19.1C79.2002 19.2 79.8002 19.3 80.4002 19.5ZM80.2002 18.1V18.2C79.2002 17.9 78.3002 17.7 77.3002 17.4C77.4002 17.1 77.4002 16.9 77.4002 16.6C77.8002 16.7 78.2002 16.8 78.5002 16.9C78.9002 17 79.3002 17.1 79.7002 17.3C79.8002 17.3 79.9002 17.4 80.0002 17.4C80.2002 17.7 80.2002 17.9 80.2002 18.1ZM80.0002 16.2C79.8002 16.1 79.5002 16 79.3002 16C79.0002 15.9 78.7002 15.8 78.4002 15.8C78.2002 15.7 78.0002 15.7 77.8002 15.6C77.9002 15.4 77.9002 15.2 78.0002 15C78.7002 15.2 79.4002 15.4 80.1002 15.6C80.0002 15.7 80.0002 15.9 80.0002 16.2ZM79.9002 13.4C79.9002 13.7 79.9002 14 79.9002 14.3C79.4002 14.2 78.9002 14 78.5002 13.9C78.4002 13.9 78.4002 13.9 78.3002 13.8C78.4002 13.5 78.5002 13.2 78.6002 12.9C78.7002 13 78.9002 13 79.0002 13C79.2002 13.1 79.3002 13.1 79.5002 13.2C79.6002 13.2 79.7002 13.3 79.9002 13.4ZM79.2002 10.9C79.3002 10.7 79.4002 10.4 79.5002 10.2C79.5002 10.4 79.6002 10.6 79.6002 10.8C79.6002 11.1 79.7002 11.4 79.8002 11.6C79.8002 11.7 79.8002 11.9 79.8002 12C79.7002 12 79.6002 11.9 79.5002 11.9C79.3002 11.8 79.2002 11.8 79.0002 11.7H78.9002C79.0002 11.4 79.1002 11.2 79.2002 10.9ZM8.70021 1.2C8.90021 1.2 9.10021 1.3 9.30021 1.3C9.50021 1.3 9.80021 1.4 10.0002 1.4C10.3002 1.5 10.6002 1.5 10.8002 1.6C10.9002 1.6 10.9002 1.6 11.0002 1.6C11.2002 1.7 11.4002 1.7 11.6002 1.8C12.0002 1.9 12.4002 2 12.9002 2.1C13.3002 2.2 13.7002 2.3 14.0002 2.4C14.1002 2.4 14.1002 2.5 14.2002 2.5C14.1002 2.8 14.0002 3.1 14.0002 3.4C14.0002 3.5 14.0002 3.6 13.9002 3.7C13.0002 3.4 12.1002 3 11.2002 2.6C10.7002 2.4 10.1002 2.1 9.60021 1.9C9.40021 1.7 9.10021 1.6 8.90021 1.5C8.70021 1.4 8.50021 1.3 8.30021 1.2C8.40021 1.2 8.50021 1.2 8.70021 1.2ZM6.80021 2.7C6.90021 2.5 7.10021 2.2 7.20021 2C7.50021 2.2 7.80021 2.3 8.10021 2.5C8.30021 2.6 8.60021 2.7 8.90021 2.8C9.40021 3 9.90021 3.3 10.5002 3.5C11.1002 3.7 11.6002 4 12.2002 4.2C12.5002 4.3 12.8002 4.4 13.0002 4.5C13.2002 4.6 13.5002 4.7 13.7002 4.8C13.7002 4.9 13.7002 5 13.6002 5C13.5002 5.3 13.5002 5.6 13.4002 5.9C13.4002 6 13.3002 6.1 13.3002 6.2C12.9002 6 12.5002 5.8 12.2002 5.6C11.7002 5.4 11.2002 5.1 10.7002 4.8C10.4002 4.6 10.0002 4.4 9.70021 4.2C9.30021 4.1 9.00021 3.9 8.60021 3.7C8.30021 3.5 7.90021 3.4 7.60021 3.3C7.40021 3.2 7.30021 3.1 7.10021 3.1C7.00021 3 6.80021 2.9 6.70021 2.9C6.70021 2.8 6.70021 2.7 6.80021 2.7ZM5.70021 5.1C5.80021 4.9 5.90021 4.6 6.00021 4.4C6.00021 4.2 6.10021 4.1 6.10021 3.9C6.30021 4 6.40021 4.1 6.60021 4.1C6.80021 4.2 7.00021 4.3 7.20021 4.4C7.40021 4.5 7.60021 4.6 7.80021 4.6C8.00021 4.7 8.20021 4.8 8.30021 4.9C8.60021 5.1 9.00021 5.3 9.30021 5.5C9.60021 5.7 9.90021 5.8 10.1002 6C10.3002 6.1 10.5002 6.2 10.7002 6.3C11.5002 6.7 12.2002 7 13.0002 7.4C12.9002 7.6 12.9002 7.8 12.8002 8C12.7002 8.3 12.6002 8.5 12.5002 8.8C11.9002 8.5 11.3002 8.2 10.7002 7.8C10.0002 7.5 9.40021 7.1 8.80021 6.8C8.60021 6.7 8.50021 6.6 8.30021 6.5C8.10021 6.4 7.90021 6.3 7.70021 6.2C7.40021 6 7.10021 5.9 6.80021 5.7C6.40021 5.5 6.00021 5.3 5.70021 5.1ZM5.70021 5.1C5.80021 5.1 5.80021 5.1 5.70021 5.1V5.1ZM5.20021 6.7C5.20021 6.6 5.30021 6.4 5.30021 6.3C5.50021 6.4 5.60021 6.5 5.80021 6.6C6.10021 6.8 6.30021 6.9 6.60021 7C6.90021 7.2 7.20021 7.3 7.50021 7.4C7.90021 7.6 8.20021 7.8 8.50021 8C8.90021 8.3 9.30021 8.5 9.70021 8.7C10.5002 9.1 11.2002 9.5 12.0002 9.9C11.9002 10.1 11.9002 10.2 11.8002 10.4C11.7002 10.7 11.6002 11 11.5002 11.3C11.4002 11.2 11.2002 11.2 11.1002 11.1C10.8002 11 10.5002 10.8 10.2002 10.7C9.60021 10.4 9.10021 10.1 8.50021 9.8C8.30021 9.7 7.90021 9.5 7.60021 9.3C7.30021 9.1 7.00021 8.9 6.70021 8.7C6.40021 8.5 6.10021 8.3 5.80021 8.1C5.60021 8 5.30021 7.8 5.00021 7.7C5.10021 7.4 5.20021 7 5.20021 6.7ZM4.70021 9.8C4.70021 9.5 4.80021 9.2 4.80021 8.9C5.30021 9.2 5.70021 9.5 6.20021 9.8C6.40021 10 6.70021 10.1 6.90021 10.3C7.10021 10.5 7.40021 10.6 7.70021 10.7C8.30021 11 8.80021 11.3 9.40021 11.6C9.90021 11.9 10.5002 12.2 11.0002 12.4C10.9002 12.7 10.8002 12.9 10.7002 13.2C10.7002 13.3 10.6002 13.4 10.6002 13.5C10.4002 13.4 10.3002 13.3 10.1002 13.2C9.70021 13 9.30021 12.8 9.00021 12.5C8.60021 12.3 8.20021 12 7.80021 11.8C7.50021 11.6 7.10021 11.4 6.80021 11.2C6.50021 11.2 6.30021 11 6.00021 10.9C5.70021 10.7 5.40021 10.5 5.00021 10.3C4.90021 10.3 4.80021 10.2 4.80021 10.2L4.70021 10.1C4.70021 10 4.70021 9.9 4.70021 9.8ZM4.50021 11.4C4.60021 11.4 4.60021 11.4 4.60021 11.4C4.80021 11.5 5.10021 11.7 5.30021 11.8C5.60021 12 5.80021 12.1 6.10021 12.3C6.40021 12.5 6.70021 12.6 7.00021 12.8C7.30021 12.9 7.50021 13.1 7.70021 13.2C7.90021 13.3 8.20021 13.5 8.40021 13.6C8.70021 13.8 8.90021 13.9 9.20021 14.1C9.50021 14.3 9.80021 14.5 10.1002 14.6C10.0002 14.9 9.90021 15.1 9.70021 15.4C9.60021 15.6 9.60021 15.7 9.50021 15.9C9.10021 15.6 8.70021 15.3 8.30021 15C7.80021 14.7 7.40021 14.4 6.90021 14.1C6.60021 14 6.40021 13.8 6.10021 13.7C5.90021 13.6 5.70021 13.5 5.50021 13.4C5.20021 13.2 4.80021 13.1 4.40021 12.9C4.40021 12.9 4.30021 12.9 4.30021 12.8C4.40021 12.3 4.50021 11.9 4.50021 11.4ZM4.30021 14.6C4.30021 14.4 4.30021 14.2 4.30021 14C4.50021 14.1 4.70021 14.2 4.90021 14.3C5.40021 14.5 5.80021 14.8 6.30021 15C6.80021 15.3 7.30021 15.6 7.80021 16C8.10021 16.2 8.30021 16.4 8.60021 16.6C8.70021 16.7 8.90021 16.8 9.00021 16.9H9.10021C9.00021 17.1 8.90021 17.4 8.80021 17.6H8.70021C8.00021 17.2 7.40021 16.8 6.70021 16.3C6.00021 15.9 5.30021 15.4 4.60021 15C4.60021 15 4.50021 15 4.50021 14.9C4.40021 14.9 4.40021 14.9 4.30021 14.9C4.30021 14.9 4.30021 14.8 4.30021 14.6ZM4.10021 16.3C4.20021 16.3 4.20021 16.3 4.10021 16.3C4.40021 16.4 4.60021 16.5 4.90021 16.7C5.30021 16.9 5.70021 17.2 6.10021 17.4C6.50021 17.6 6.90021 17.9 7.20021 18.1C7.50021 18.3 7.80021 18.5 8.10021 18.7C8.00021 19 7.90021 19.2 7.80021 19.5C7.70021 19.6 7.70021 19.7 7.60021 19.8C7.30021 19.6 7.10021 19.4 6.90021 19.3C6.60021 19.1 6.30021 18.8 5.90021 18.6C5.60021 18.4 5.20021 18.1 4.90021 17.9C4.60021 17.7 4.40021 17.5 4.10021 17.3C4.10021 16.9 4.10021 16.6 4.10021 16.3ZM4.00021 19.4C4.00021 19.1 4.00021 18.9 4.00021 18.6L4.10021 18.7C4.40021 18.9 4.80021 19.2 5.10021 19.4C5.40021 19.6 5.70021 19.9 6.10021 20.1C6.40021 20.3 6.70021 20.5 7.00021 20.7C7.00021 20.8 6.90021 20.9 6.90021 20.9C6.80021 21.1 6.70021 21.3 6.60021 21.4C6.10021 21.1 5.70021 20.8 5.30021 20.5C4.90021 20.3 4.40021 20 4.00021 19.7C4.00021 19.6 4.00021 19.5 4.00021 19.4ZM4.00021 21.2C4.20021 21.4 4.50021 21.5 4.70021 21.7C5.00021 21.8 5.20021 22 5.50021 22.2C5.70021 22.3 5.80021 22.4 6.00021 22.5C6.00021 22.5 6.00021 22.5 6.00021 22.6C5.90021 22.9 5.70021 23.1 5.60021 23.4C5.60021 23.4 5.60021 23.5 5.50021 23.5C5.30021 23.4 5.10021 23.3 4.90021 23.1C4.70021 23 4.60021 22.9 4.40021 22.7C4.20021 22.6 4.10021 22.5 3.90021 22.3C3.90021 22 4.00021 21.6 4.00021 21.2ZM3.60021 26.6C3.60021 26.3 3.70021 26.1 3.70021 25.8V25.9C3.80021 25.2 3.80021 24.5 3.90021 23.9C4.00021 23.9 4.10021 24 4.20021 24.1C4.40021 24.3 4.70021 24.4 4.90021 24.6C4.70021 25 4.40021 25.4 4.20021 25.8C4.00021 26.1 3.80021 26.5 3.50021 26.8C3.60021 26.7 3.60021 26.6 3.60021 26.6ZM14.1002 17.7C14.0002 18.2 13.9002 18.8 13.8002 19.3C13.7002 19.9 13.6002 20.5 13.5002 21.1C13.5002 21.2 13.5002 21.2 13.5002 21.3C13.4002 21.8 13.3002 22.2 13.2002 22.7C13.1002 23 13.1002 23.3 13.0002 23.6C12.9002 23.9 12.9002 24.2 12.8002 24.5C12.7002 25.1 12.6002 25.7 12.6002 26.3C12.6002 26.6 12.5002 26.9 12.5002 27.1C12.5002 27.4 12.4002 27.6 12.4002 27.9C12.4002 28.2 12.4002 28.5 12.4002 28.8C12.4002 29.1 12.4002 29.3 12.3002 29.6C12.3002 30.1 12.2002 30.5 12.2002 31V31.1C12.1002 31.6 11.9002 32.1 11.7002 32.6C11.6002 32.8 11.5002 33 11.4002 33.2C11.3002 33.4 11.2002 33.6 11.1002 33.7C11.0002 33.9 10.8002 34 10.6002 34.2C10.0002 34.5 9.60021 34.8 9.10021 35C8.80021 35.1 8.60021 35.2 8.30021 35.4C8.10021 35.5 7.90021 35.6 7.70021 35.7C7.50021 35.7 7.30021 35.8 7.00021 35.8C6.70021 35.8 6.40021 35.8 6.10021 35.9C5.90021 35.9 5.60021 36 5.40021 36C5.10021 36 4.80021 36 4.50021 36C4.00021 35.9 3.50021 35.8 3.10021 35.6H3.00021C2.80021 35.5 2.70021 35.5 2.50021 35.4C2.40021 35.2 2.20021 35.1 2.00021 35C1.90021 34.9 1.90021 34.9 1.80021 34.8C1.70021 34.7 1.60021 34.5 1.50021 34.4C1.50021 34 1.50021 33.7 1.50021 33.4C1.60021 33 1.70021 32.6 1.80021 32.3C1.90021 31.9 2.10021 31.5 2.30021 31.1C2.50021 30.6 2.80021 30.1 3.10021 29.7C3.20021 29.5 3.30021 29.3 3.40021 29.1C3.60021 28.9 3.80021 28.7 4.00021 28.4C4.40021 28 4.70021 27.5 5.00021 27.1C5.30021 26.7 5.60021 26.2 5.90021 25.7C6.20021 25.3 6.50021 24.8 6.70021 24.4C7.10021 24 7.40021 23.5 7.70021 23C7.80021 22.8 8.00021 22.5 8.10021 22.3C8.20021 22.1 8.30021 21.8 8.50021 21.6C8.70021 21.1 9.00021 20.6 9.20021 20.2C9.50021 19.7 9.70021 19.2 9.90021 18.7C10.1002 18.2 10.4002 17.7 10.6002 17.2C10.8002 16.7 11.1002 16.2 11.3002 15.7C11.4002 15.5 11.5002 15.2 11.6002 15C11.7002 14.9 11.7002 14.9 11.7002 14.8C11.7002 14.7 11.7002 14.6 11.7002 14.6C11.8002 14.4 11.8002 14.3 11.9002 14.1C11.9002 14 12.0002 14 12.0002 13.9C12.0002 13.9 12.0002 13.8 12.1002 13.8C12.2002 13.5 12.3002 13.2 12.5002 12.9C12.5002 12.9 12.5002 12.8 12.6002 12.8C12.7002 12.6 12.8002 12.4 12.9002 12.1C13.0002 11.8 13.1002 11.5 13.2002 11.2C13.3002 10.9 13.4002 10.7 13.5002 10.4C13.6002 10.1 13.7002 9.8 13.7002 9.5C13.8002 9 14.0002 8.5 14.1002 8C14.2002 7.8 14.2002 7.6 14.2002 7.4C14.2002 7.3 14.3002 7.2 14.3002 7.1C14.4002 6.8 14.5002 6.6 14.6002 6.3C14.7002 6 14.8002 5.7 14.8002 5.4C14.9002 5.1 14.9002 4.8 15.0002 4.6C15.1002 4.3 15.1002 4 15.2002 3.7C15.2002 3.6 15.3002 3.4 15.3002 3.3C15.4002 3.2 15.4002 3 15.5002 2.9C15.6002 2.8 15.6002 2.6 15.7002 2.5C15.7002 2.5 15.7002 2.5 15.8002 2.6C15.8002 2.7 15.8002 2.8 15.8002 2.9C15.8002 3.2 15.8002 3.5 15.8002 3.8C15.8002 4.4 15.8002 5 15.8002 5.5C15.8002 5.8 15.8002 6.1 15.7002 6.4C15.7002 6.7 15.7002 7 15.6002 7.3C15.6002 7.6 15.6002 7.9 15.5002 8.2C15.5002 8.5 15.5002 8.8 15.4002 9.1C15.4002 9.5 15.3002 9.9 15.2002 10.2C15.0002 11.2 14.9002 12.3 14.7002 13.3C14.6002 14 14.4002 14.7 14.3002 15.4C14.2002 15.7 14.2002 16 14.1002 16.3C14.1002 16.5 14.0002 16.7 14.0002 16.9C14.2002 17.1 14.1002 17.4 14.1002 17.7C14.1002 17.6 14.1002 17.7 14.1002 17.7ZM19.7002 36.5C19.5002 36.6 19.4002 36.6 19.2002 36.7C19.1002 36.7 19.0002 36.7 18.9002 36.7C18.7002 36.7 18.5002 36.6 18.4002 36.6C18.3002 36.5 18.2002 36.5 18.1002 36.4C18.0002 36.3 17.9002 36.2 17.7002 36.1C17.6002 36 17.5002 35.9 17.4002 35.8C17.4002 35.8 17.4002 35.7 17.3002 35.7C17.3002 35.6 17.2002 35.4 17.2002 35.3C17.2002 35.2 17.2002 35.1 17.1002 35.1C17.1002 35 17.1002 35 17.1002 34.9V34.8C17.2002 34.5 17.2002 34.2 17.3002 34C17.5002 33.6 17.8002 33.2 18.0002 32.8C18.1002 32.7 18.2002 32.5 18.4002 32.4C18.5002 32.3 18.6002 32.2 18.7002 32.1C18.8002 32 19.0002 31.9 19.1002 31.8C19.2002 31.7 19.4002 31.6 19.5002 31.5C19.6002 31.4 19.7002 31.3 19.8002 31.3L19.7002 31.4C19.8002 31.3 20.0002 31.2 20.1002 31.1C20.2002 31 20.2002 31 20.3002 30.9L20.2002 31C20.3002 30.9 20.3002 30.9 20.4002 30.8C20.5002 30.7 20.6002 30.6 20.7002 30.5C20.9002 30.3 21.2002 30.1 21.5002 29.9C21.6002 29.8 21.8002 29.7 21.9002 29.6C22.0002 29.5 22.2002 29.4 22.4002 29.3C23.0002 28.9 23.5002 28.5 24.1002 28.2C24.4002 28.1 24.6002 28 24.9002 27.9C25.1002 27.8 25.3002 27.8 25.5002 27.7C25.6002 27.7 25.8002 27.7 25.9002 27.6C26.1002 27.6 26.2002 27.6 26.4002 27.6C26.5002 27.6 26.6002 27.6 26.7002 27.7C27.0002 27.8 27.3002 27.9 27.6002 28.1C27.7002 28.1 27.7002 28.2 27.8002 28.2L27.9002 28.3C27.9002 28.4 28.0002 28.4 28.1002 28.5C28.1002 28.5 28.1002 28.6 28.2002 28.6C28.2002 28.7 28.2002 28.7 28.3002 28.8C28.3002 28.9 28.3002 28.9 28.4002 29C28.4002 29.2 28.4002 29.3 28.4002 29.5C28.4002 29.6 28.4002 29.7 28.3002 29.8C28.2002 30 28.1002 30.1 28.0002 30.3C27.8002 30.5 27.7002 30.8 27.5002 31C27.3002 31.2 27.1002 31.5 26.8002 31.7C26.8002 31.7 26.8002 31.7 26.9002 31.7C26.7002 31.9 26.5002 32 26.3002 32.2C26.1002 32.4 25.9002 32.5 25.7002 32.7C25.5002 32.9 25.3002 33 25.1002 33.2C24.9002 33.4 24.6002 33.6 24.4002 33.8C24.2002 34 24.0002 34.2 23.8002 34.3C23.6002 34.5 23.4002 34.7 23.1002 34.9C22.7002 35.2 22.3002 35.6 21.8002 35.9C20.9002 35.9 20.3002 36.2 19.7002 36.5ZM27.1002 41.9C26.6002 42.2 26.2002 42.6 25.7002 42.9C25.5002 43 25.2002 43 25.0002 43.1C24.8002 43.1 24.6002 43.1 24.4002 43.1C24.1002 43.1 23.7002 43 23.4002 42.9C23.2002 42.8 23.1002 42.7 22.9002 42.6C22.8002 42.5 22.6002 42.4 22.5002 42.3C22.3002 42.1 22.2002 42 22.1002 41.8C22.0002 41.6 21.9002 41.4 21.9002 41.2C21.8002 41 21.8002 40.8 21.7002 40.6C21.6002 40.4 21.6002 40.1 21.5002 39.9C21.5002 39.6 21.4002 39.4 21.4002 39.1C21.4002 38.9 21.4002 38.7 21.5002 38.5C21.5002 38.4 21.6002 38.2 21.7002 38.1C21.8002 37.8 22.0002 37.6 22.2002 37.4C22.4002 37.2 22.6002 36.9 22.8002 36.7C23.0002 36.6 23.2002 36.4 23.3002 36.2C23.8002 35.7 24.4002 35.2 24.9002 34.7C25.0002 34.6 25.1002 34.5 25.2002 34.3C25.3002 34.2 25.5002 34 25.6002 33.9C25.9002 33.6 26.1002 33.4 26.4002 33.2C26.5002 33.1 26.7002 33 26.8002 32.8C27.0002 32.6 27.1002 32.5 27.3002 32.3C27.6002 32 27.8002 31.7 28.1002 31.4C28.2002 31.3 28.3002 31.2 28.4002 31C28.4002 31 28.5002 31 28.5002 30.9C28.8002 30.7 29.1002 30.5 29.4002 30.3H29.5002C29.7002 30.2 29.9002 30.2 30.1002 30.1C30.4002 30 30.6002 29.9 30.9002 29.8C31.1002 29.8 31.2002 29.7 31.4002 29.7C31.6002 29.7 31.7002 29.6 31.9002 29.6C32.0002 29.6 32.0002 29.6 32.1002 29.6C32.3002 29.6 32.5002 29.5 32.7002 29.5C32.8002 29.5 32.9002 29.5 33.0002 29.5C33.1002 29.5 33.2002 29.5 33.4002 29.5C33.6002 29.5 33.9002 29.6 34.1002 29.7C34.3002 29.8 34.5002 29.9 34.7002 30C34.8002 30 34.8002 30.1 34.9002 30.2L35.0002 30.3C35.1002 30.4 35.2002 30.5 35.2002 30.6V30.7C35.3002 30.9 35.3002 31.2 35.3002 31.4C35.3002 31.6 35.3002 31.9 35.2002 32.1C35.1002 32.3 35.0002 32.5 34.9002 32.7C34.6002 33.1 34.4002 33.6 34.1002 34C33.9002 34.2 33.8002 34.5 33.6002 34.7C33.4002 34.9 33.2002 35.2 33.1002 35.4C32.9002 35.6 32.7002 35.8 32.6002 36C32.4002 36.2 32.2002 36.5 32.0002 36.7C31.8002 36.9 31.6002 37.2 31.4002 37.4C31.2002 37.6 31.0002 37.9 30.8002 38.1C30.6002 38.3 30.4002 38.6 30.2002 38.8C30.0002 39 29.8002 39.2 29.7002 39.5C29.5002 39.7 29.3002 39.9 29.1002 40.1C28.9002 40.3 28.7002 40.5 28.4002 40.8C27.9002 41.3 27.5002 41.6 27.1002 41.9ZM34.3002 45.5C34.1002 45.7 33.9002 45.9 33.6002 46C33.4002 46.2 33.1002 46.3 32.9002 46.4C32.7002 46.5 32.4002 46.7 32.2002 46.8C31.9002 46.9 31.7002 47 31.4002 47.1C31.3002 47.1 31.3002 47.1 31.2002 47.1C31.1002 47.2 30.9002 47.2 30.8002 47.2C30.7002 47.2 30.6002 47.2 30.5002 47.2C30.5002 47.2 30.5002 47.2 30.4002 47.2H30.3002H30.2002C30.2002 47.2 30.2002 47.2 30.1002 47.2H30.0002H29.9002C29.8002 47.2 29.8002 47.2 29.7002 47.2C29.6002 47.1 29.4002 47.1 29.3002 47C29.3002 47 29.2002 47 29.2002 46.9C29.0002 46.8 28.9002 46.6 28.7002 46.5C28.6002 46.4 28.4002 46.2 28.3002 46C28.2002 45.9 28.1002 45.7 28.0002 45.6C28.0002 45.5 28.0002 45.5 27.9002 45.4C27.8002 44.9 27.8002 44.4 27.8002 43.8C27.8002 43.5 27.8002 43.2 27.9002 42.9C28.1002 42.8 28.2002 42.7 28.3002 42.6C28.7002 42.2 29.2002 41.8 29.6002 41.4C30.0002 41 30.3002 40.6 30.7002 40.2C31.4002 39.4 32.2002 38.5 32.8002 37.6C33.0002 37.4 33.1002 37.2 33.3002 36.9C33.5002 36.7 33.6002 36.4 33.8002 36.2C34.1002 35.8 34.5002 35.4 34.8002 35C35.0002 34.8 35.1002 34.6 35.3002 34.4C35.4002 34.2 35.5002 34.1 35.7002 33.9C35.8002 33.7 36.0002 33.6 36.1002 33.4C36.2002 33.3 36.2002 33.2 36.2002 33.1C36.3002 33.1 36.3002 33.1 36.4002 33C36.5002 33 36.5002 32.9 36.6002 32.9C36.6002 32.9 36.5002 32.9 36.5002 33C36.6002 33 36.7002 32.9 36.7002 32.9H36.6002C37.0002 32.7 37.5002 32.6 37.9002 32.5C37.9002 32.5 37.9002 32.5 38.0002 32.5C38.1002 32.5 38.3002 32.5 38.4002 32.5C38.6002 32.5 38.7002 32.5 38.9002 32.6C39.0002 32.6 39.1002 32.7 39.2002 32.7C39.3002 32.7 39.4002 32.7 39.5002 32.8C39.6002 32.8 39.6002 32.8 39.6002 32.9C39.7002 33 39.8002 33 39.8002 33.1C39.9002 33.1 39.9002 33.2 40.0002 33.2C40.2002 33.3 40.3002 33.4 40.4002 33.6C40.5002 33.7 40.6002 33.8 40.7002 33.9C40.8002 34 40.9002 34.2 41.0002 34.3C41.1002 34.5 41.2002 34.6 41.3002 34.8C41.3002 34.9 41.4002 35 41.4002 35.2V35.3C41.4002 35.4 41.4002 35.5 41.4002 35.6C41.4002 35.8 41.3002 36 41.2002 36.1C41.1002 36.3 41.1002 36.5 41.0002 36.6C40.7002 37.1 40.5002 37.5 40.2002 38L40.3002 37.9C40.0002 38.4 39.7002 38.8 39.4002 39.3C39.1002 39.8 38.7002 40.3 38.3002 40.8C37.9002 41.3 37.6002 41.8 37.2002 42.3C36.8002 42.8 36.5002 43.2 36.1002 43.7C35.9002 43.9 35.7002 44.1 35.5002 44.4C35.2002 44.8 34.7002 45.2 34.3002 45.5ZM43.2002 46.6C43.1002 46.8 43.0002 47 42.9002 47.1C42.8002 47.3 42.6002 47.5 42.5002 47.7C42.4002 47.9 42.3002 48 42.2002 48.2C42.1002 48.4 42.0002 48.5 41.8002 48.7C41.7002 48.8 41.5002 49 41.4002 49.1C41.3002 49.2 41.2002 49.3 41.1002 49.4C40.9002 49.5 40.8002 49.6 40.6002 49.7C40.3002 49.8 40.0002 50 39.7002 50.1C39.4002 50.2 39.0002 50.3 38.7002 50.3C38.5002 50.3 38.2002 50.4 38.0002 50.4C37.8002 50.4 37.6002 50.4 37.4002 50.4C37.2002 50.4 36.9002 50.3 36.7002 50.3C36.5002 50.2 36.2002 50.1 36.0002 50L35.9002 49.9C35.9002 49.8 35.8002 49.8 35.8002 49.7C35.7002 49.5 35.6002 49.3 35.5002 49.1C35.4002 49 35.4002 48.9 35.3002 48.8C35.3002 48.7 35.2002 48.6 35.2002 48.5C35.2002 48.3 35.1002 48.1 35.1002 47.9C35.1002 47.8 35.1002 47.7 35.1002 47.6C35.1002 47.5 35.2002 47.4 35.3002 47.2V47.1C35.4002 47 35.6002 46.8 35.7002 46.7C35.9002 46.5 36.0002 46.4 36.2002 46.2C36.4002 46 36.5002 45.8 36.7002 45.6C37.0002 45.2 37.3002 44.8 37.6002 44.4C37.8002 44.2 37.9002 44 38.1002 43.8C38.3002 43.6 38.4002 43.4 38.6002 43.2C38.8002 43 38.9002 42.8 39.1002 42.6C39.3002 42.4 39.4002 42.2 39.5002 42C40.1002 41.2 40.7002 40.5 41.3002 39.7C41.4002 39.5 41.5002 39.4 41.7002 39.2C41.8002 39.1 41.9002 38.9 42.0002 38.8C42.1002 38.6 42.2002 38.5 42.3002 38.3C42.4002 38.2 42.4002 38 42.5002 37.9C42.6002 37.7 42.7002 37.5 42.7002 37.3C42.8002 37.1 42.8002 36.9 42.8002 36.7C42.8002 36.5 42.8002 36.3 42.8002 36.1C42.9002 36.1 42.9002 36.1 43.0002 36C43.1002 36 43.1002 36 43.2002 35.9C43.3002 35.9 43.4002 35.9 43.5002 35.9C43.6002 35.9 43.7002 35.9 43.8002 35.9C44.0002 35.9 44.2002 36 44.4002 36C44.4002 36 44.5002 36 44.5002 36.1L44.6002 36.2C44.7002 36.3 44.8002 36.5 44.9002 36.6C45.0002 36.7 45.1002 36.9 45.2002 37C45.3002 37.1 45.3002 37.3 45.4002 37.4C45.4002 37.5 45.5002 37.6 45.5002 37.7C45.5002 38 45.5002 38.3 45.4002 38.6C45.4002 38.8 45.3002 39 45.3002 39.2C45.3002 39.4 45.2002 39.6 45.2002 39.9C45.2002 40.1 45.1002 40.3 45.1002 40.5C45.1002 40.7 45.1002 40.9 45.0002 41.2C45.0002 41.6 44.9002 42 44.8002 42.5C44.7002 42.9 44.5002 43.3 44.4002 43.7C44.2002 44.2 44.1002 44.6 43.9002 45.1C43.7002 45.5 43.6002 46 43.4002 46.4C43.3002 46.4 43.2002 46.5 43.2002 46.6ZM49.9002 48C49.9002 48.1 49.8002 48.3 49.8002 48.4C49.8002 48.5 49.7002 48.6 49.7002 48.7C49.6002 48.9 49.4002 49.2 49.3002 49.4C49.1002 49.6 49.0002 49.7 48.8002 49.8C48.6002 49.9 48.4002 50 48.2002 50C48.1002 50 48.0002 50 47.9002 50C47.8002 50 47.7002 50 47.6002 50C47.4002 50 47.2002 50 47.0002 49.9C46.8002 49.8 46.6002 49.8 46.4002 49.7C46.3002 49.6 46.2002 49.6 46.0002 49.6C45.9002 49.6 45.8002 49.5 45.7002 49.5C45.5002 49.5 45.4002 49.4 45.2002 49.3C45.1002 49.3 45.0002 49.2 44.9002 49.2C44.8002 49.2 44.7002 49.1 44.6002 49C44.4002 48.9 44.2002 48.8 44.0002 48.7C43.8002 48.6 43.7002 48.5 43.5002 48.4C43.6002 48.3 43.6002 48.2 43.7002 48.1C43.9002 47.8 44.0002 47.5 44.1002 47.2C44.1002 47.1 44.2002 47 44.2002 46.9C44.3002 46.7 44.4002 46.5 44.5002 46.3C44.7002 45.9 44.9002 45.4 45.2002 44.9C45.3002 44.7 45.4002 44.6 45.5002 44.4C45.6002 44.5 45.7002 44.5 45.8002 44.6C45.8002 44.6 45.8002 44.6 45.7002 44.5C45.8002 44.6 45.9002 44.7 46.0002 44.7C46.1002 44.8 46.2002 44.8 46.3002 44.9C46.6002 45.1 46.8002 45.2 47.1002 45.4C47.3002 45.5 47.5002 45.7 47.7002 45.8C47.9002 46 48.1002 46.1 48.3002 46.3C48.7002 46.6 49.1002 47 49.5002 47.3C49.6002 47.4 49.7002 47.5 49.9002 47.6C49.9002 47.9 49.9002 48 49.9002 48ZM55.3002 45.4C55.2002 45.6 55.2002 45.8 55.1002 46C55.0002 46.1 54.9002 46.3 54.8002 46.4C54.7002 46.5 54.6002 46.6 54.5002 46.7C54.3002 46.9 54.0002 47.1 53.8002 47.2C53.7002 47.3 53.5002 47.3 53.4002 47.4C53.2002 47.5 52.9002 47.5 52.7002 47.5C52.5002 47.5 52.2002 47.4 52.0002 47.4C51.8002 47.3 51.6002 47.2 51.3002 47.1C51.1002 47 51.0002 46.9 50.9002 46.8C50.7002 46.7 50.5002 46.5 50.2002 46.4L50.3002 46.5C50.0002 46.3 49.7002 46.1 49.4002 45.8C49.1002 45.6 48.8002 45.3 48.6002 45C48.4002 44.8 48.2002 44.6 48.0002 44.4C47.8002 44.2 47.6002 44.1 47.3002 43.9C47.1002 43.7 46.9002 43.6 46.6002 43.4C46.4002 43.3 46.3002 43.1 46.1002 42.9C46.2002 42.7 46.2002 42.5 46.3002 42.3C46.4002 42 46.5002 41.6 46.5002 41.2C46.6002 40.7 46.6002 40.1 46.6002 39.6C46.6002 39.2 46.6002 38.8 46.5002 38.4C46.5002 38 46.4002 37.6 46.3002 37.2H46.4002C46.5002 37.2 46.7002 37.3 46.8002 37.4C46.9002 37.4 47.0002 37.5 47.1002 37.5C47.2002 37.5 47.3002 37.6 47.4002 37.6C47.6002 37.7 47.7002 37.8 47.9002 37.9C48.2002 38 48.4002 38.2 48.6002 38.4C49.0002 38.7 49.4002 39 49.9002 39.3C50.1002 39.5 50.3002 39.6 50.5002 39.8C50.7002 40 50.9002 40.1 51.1002 40.3C51.5002 40.6 51.9002 41 52.2002 41.3C52.4002 41.5 52.6002 41.7 52.8002 41.8C53.0002 42 53.2002 42.2 53.4002 42.3C53.6002 42.5 53.8002 42.6 54.0002 42.8C54.2002 42.9 54.4002 43.1 54.6002 43.2C54.8002 43.3 55.0002 43.5 55.3002 43.6C55.3002 43.7 55.3002 43.7 55.3002 43.8C55.3002 43.8 55.3002 43.8 55.3002 43.9C55.3002 43.8 55.3002 43.8 55.3002 43.7C55.3002 43.8 55.3002 43.9 55.3002 43.9C55.5002 44.7 55.4002 45 55.3002 45.4ZM62.1002 39.9C62.1002 39.8 62.1002 39.8 62.1002 39.9V39.9ZM66.8002 33.7C66.8002 33.9 66.8002 34 66.7002 34.2C66.7002 34.3 66.7002 34.4 66.7002 34.6C66.6002 34.8 66.6002 35.1 66.5002 35.3C66.4002 35.6 66.3002 35.8 66.2002 36.1V36.2C66.0002 36.5 65.8002 36.8 65.6002 37.1C65.5002 37.3 65.3002 37.4 65.1002 37.5C65.0002 37.6 64.8002 37.6 64.7002 37.7C64.6002 37.8 64.4002 37.9 64.2002 37.9C64.1002 37.9 64.0002 37.9 63.9002 38C63.8002 38 63.7002 38 63.6002 38H63.5002C63.4002 38 63.4002 38 63.3002 38C63.3002 38 63.3002 38 63.4002 38C63.4002 38 63.4002 38 63.3002 38C63.2002 38 63.1002 37.9 63.0002 37.9C62.8002 37.8 62.6002 37.6 62.4002 37.5C62.2002 37.3 62.1002 37.2 61.9002 37C61.7002 36.8 61.5002 36.6 61.2002 36.4C61.1002 36.3 61.0002 36.2 60.9002 36.1C60.8002 36 60.7002 35.9 60.5002 35.9C60.3002 35.7 60.1002 35.6 59.8002 35.4C59.4002 35.1 58.9002 34.7 58.5002 34.4C58.3002 34.2 58.1002 34.1 57.9002 33.9C57.7002 33.7 57.4002 33.6 57.2002 33.4C57.0002 33.3 56.8002 33.1 56.6002 33C56.5002 32.9 56.4002 32.9 56.3002 32.8C56.0002 32.5 55.6002 32.3 55.3002 32L55.2002 31.9C55.0002 31.7 54.7002 31.5 54.5002 31.3C54.4002 31.2 54.3002 31.1 54.3002 31.1C54.1002 30.9 54.0002 30.8 53.8002 30.6C53.7002 30.5 53.6002 30.4 53.6002 30.3C53.5002 30.2 53.4002 30.1 53.3002 30C53.1002 29.8 52.9002 29.6 52.7002 29.3C52.5002 29.1 52.4002 28.9 52.2002 28.7C52.2002 28.7 52.2002 28.8 52.3002 28.8C52.2002 28.6 52.1002 28.5 52.0002 28.3C51.9002 28.1 51.8002 27.9 51.7002 27.7C51.6002 27.6 51.6002 27.5 51.5002 27.3C51.4002 27.2 51.4002 27.1 51.3002 27C51.2002 26.8 51.0002 26.8 50.8002 26.8C50.7002 26.8 50.5002 26.8 50.4002 26.9C50.2002 27 50.2002 27.2 50.2002 27.4C50.1002 27.6 50.2002 27.8 50.3002 28C50.4002 28.1 50.5002 28.2 50.6002 28.3C50.8002 28.5 50.9002 28.8 51.0002 29C51.2002 29.3 51.3002 29.6 51.5002 29.9C51.6002 30.1 51.8002 30.3 51.9002 30.4C52.0002 30.6 52.2002 30.7 52.3002 30.8C52.5002 31 52.7002 31.2 52.9002 31.3C53.0002 31.4 53.1002 31.4 53.1002 31.5C53.2002 31.6 53.3002 31.7 53.4002 31.8C53.5002 31.9 53.6002 32.1 53.8002 32.2C54.0002 32.4 54.2002 32.6 54.4002 32.8C54.6002 33 54.8002 33.2 55.0002 33.4C55.2002 33.6 55.5002 33.8 55.7002 34C55.9002 34.2 56.1002 34.3 56.3002 34.5C56.5002 34.7 56.7002 34.8 56.9002 35C57.4002 35.3 57.9002 35.7 58.4002 36C58.8002 36.3 59.3002 36.7 59.7002 37C59.8002 37.1 60.0002 37.3 60.1002 37.4C60.2002 37.5 60.4002 37.7 60.5002 37.8C60.7002 38 61.0002 38.3 61.2002 38.5C61.4002 38.7 61.6002 38.9 61.7002 39.1C61.7002 39.1 61.7002 39.2 61.8002 39.2V39.3C61.8002 39.4 61.9002 39.5 61.9002 39.6C61.9002 39.7 61.9002 39.7 61.9002 39.8C61.9002 39.9 61.9002 39.9 61.9002 40C61.9002 40.1 61.9002 40.2 61.8002 40.3C61.7002 40.5 61.7002 40.6 61.6002 40.8C61.5002 41.1 61.4002 41.4 61.3002 41.7C61.2002 41.9 61.1002 42.1 60.9002 42.2C60.8002 42.4 60.7002 42.5 60.5002 42.6C60.4002 42.7 60.2002 42.9 60.1002 43C60.0002 43.1 59.8002 43.1 59.7002 43.2C59.6002 43.2 59.4002 43.3 59.3002 43.3C59.1002 43.3 58.9002 43.3 58.7002 43.3C58.4002 43.3 58.1002 43.3 57.8002 43.3C57.6002 43.3 57.4002 43.3 57.2002 43.3H57.1002C56.9002 43.3 56.8002 43.2 56.6002 43.1C56.1002 42.8 55.6002 42.6 55.1002 42.2C54.6002 41.9 54.2002 41.6 53.7002 41.2C53.5002 41 53.3002 40.9 53.2002 40.7C53.0002 40.5 52.8002 40.3 52.6002 40.1C52.4002 39.9 52.2002 39.7 52.0002 39.5C51.8002 39.3 51.6002 39.1 51.4002 38.9C51.2002 38.7 51.0002 38.5 50.8002 38.3C50.6002 38.1 50.3002 37.9 50.1002 37.7C49.9002 37.5 49.7002 37.4 49.5002 37.2C49.3002 37 49.1002 36.9 48.8002 36.7C48.5002 36.5 48.3002 36.3 48.0002 36.2C47.7002 36 47.4002 35.9 47.1002 35.7C46.8002 35.6 46.5002 35.4 46.3002 35.3C46.1002 35.2 45.9002 35.1 45.7002 35C45.7002 35 45.7002 35 45.7002 34.9C45.6002 34.7 45.4002 34.5 45.2002 34.3C45.0002 34.2 44.8002 34 44.6002 33.9C44.4002 33.8 44.2002 33.8 44.0002 33.7C43.9002 33.7 43.7002 33.6 43.6002 33.6C43.5002 33.6 43.5002 33.6 43.4002 33.6C43.3002 33.6 43.2002 33.6 43.0002 33.6C42.8002 33.6 42.6002 33.7 42.5002 33.7C42.4002 33.7 42.2002 33.8 42.1002 33.9C42.1002 33.9 42.1002 33.9 42.1002 33.8C42.0002 33.5 41.9002 33.3 41.8002 33C41.7002 32.9 41.7002 32.8 41.6002 32.7C41.5002 32.6 41.4002 32.4 41.2002 32.3C41.0002 32.1 40.8002 31.9 40.5002 31.7C40.3002 31.5 40.1002 31.4 39.9002 31.3C39.7002 31.2 39.5002 31.2 39.3002 31.1C39.1002 31 38.9002 31 38.6002 31C38.4002 31 38.2002 31 38.1002 31C38.0002 31 37.9002 31 37.8002 31C37.7002 31 37.6002 31 37.4002 31H37.3002C37.1002 31 36.9002 31 36.7002 31C36.5002 31 36.4002 31.1 36.2002 31.1C36.2002 31 36.2002 30.8 36.1002 30.7C36.1002 30.5 36.0002 30.4 36.0002 30.2C36.0002 30.1 35.9002 29.9 35.8002 29.8C35.8002 29.7 35.7002 29.7 35.7002 29.6C35.7002 29.5 35.6002 29.4 35.6002 29.3C35.5002 29.2 35.4002 29 35.3002 28.9C35.2002 28.8 35.2002 28.7 35.1002 28.7C34.9002 28.5 34.6002 28.3 34.3002 28.2C34.0002 28.1 33.7002 28 33.4002 27.9C33.2002 27.9 33.0002 27.9 32.9002 27.9C32.8002 27.9 32.7002 27.9 32.6002 27.9C32.3002 27.9 32.1002 28 31.9002 28C31.7002 28 31.4002 28.1 31.2002 28.2C31.0002 28.2 30.8002 28.3 30.6002 28.3C30.3002 28.3 30.1002 28.4 29.9002 28.5H29.8002C29.8002 28.4 29.8002 28.2 29.8002 28.1C29.8002 27.8 29.7002 27.6 29.6002 27.4C29.5002 27.2 29.4002 26.9 29.3002 26.7C29.2002 26.6 29.1002 26.4 29.0002 26.3C28.9002 26.2 28.7002 26.1 28.6002 26C28.5002 25.9 28.4002 25.9 28.3002 25.8C28.1002 25.7 28.0002 25.6 27.8002 25.5C27.6002 25.4 27.3002 25.3 27.1002 25.3C26.8002 25.2 26.5002 25.2 26.2002 25.2C26.1002 25.2 26.0002 25.2 25.9002 25.2C25.8002 25.2 25.7002 25.2 25.6002 25.2C25.3002 25.2 25.1002 25.2 24.8002 25.3C24.6002 25.3 24.4002 25.4 24.2002 25.4C23.9002 25.5 23.7002 25.6 23.4002 25.7C23.2002 25.8 23.0002 25.9 22.8002 26C22.6002 26.1 22.4002 26.3 22.2002 26.4C21.8002 26.7 21.4002 27 21.0002 27.4C20.8002 27.6 20.6002 27.7 20.4002 27.9C20.2002 28.1 20.0002 28.2 19.8002 28.4C19.4002 28.7 19.0002 29.1 18.7002 29.5C18.4002 29.8 18.1002 30.2 17.8002 30.6L17.7002 30.7C17.6002 30.8 17.6002 30.8 17.5002 30.9C17.5002 30.9 17.5002 30.9 17.5002 30.8L17.4002 30.7C17.3002 30.6 17.3002 30.6 17.2002 30.5L17.1002 30.4C17.0002 30.4 16.9002 30.3 16.8002 30.3C16.6002 30.3 16.5002 30.2 16.3002 30.2C16.1002 30.2 16.0002 30.1 15.8002 30.1C15.7002 30 15.5002 29.9 15.4002 29.9C15.3002 29.8 15.1002 29.7 15.0002 29.6C14.9002 29.5 14.8002 29.4 14.7002 29.4C14.6002 29.3 14.5002 29.3 14.5002 29.2C14.5002 29.2 14.5002 29.2 14.5002 29.1C14.5002 29 14.4002 28.9 14.4002 28.9C14.4002 28.6 14.4002 28.4 14.4002 28.1C14.4002 27.7 14.4002 27.4 14.5002 27C14.5002 26.8 14.6002 26.5 14.6002 26.3C14.6002 26 14.7002 25.8 14.7002 25.5C14.8002 24.9 14.8002 24.4 14.9002 23.8C14.9002 23.3 15.0002 22.8 15.0002 22.3C15.1002 21.3 15.1002 20.3 15.2002 19.3C15.2002 19.3 15.2002 19.3 15.2002 19.2C15.2002 19.1 15.2002 19.1 15.2002 19C15.3002 18.4 15.4002 17.8 15.5002 17.2C15.5002 17 15.6002 16.8 15.6002 16.6C15.7002 16.3 15.7002 16.1 15.8002 15.8C15.8002 15.6 15.9002 15.5 15.9002 15.3V15.2C16.0002 14.9 16.1002 14.7 16.2002 14.4C16.4002 13.9 16.6002 13.4 16.8002 12.9C17.0002 12.3 17.2002 11.6 17.4002 10.9C17.4002 10.8 17.5002 10.6 17.5002 10.5C17.5002 10.3 17.6002 10.2 17.6002 10C17.6002 9.9 17.7002 9.7 17.7002 9.6C17.7002 9.5 17.7002 9.4 17.8002 9.3C17.8002 9.2 17.9002 9.1 17.9002 9C17.9002 8.9 18.0002 8.8 18.0002 8.7C18.0002 8.6 18.1002 8.6 18.1002 8.5C17.9002 9 17.9002 9 18.0002 8.9C18.0002 8.9 18.1002 8.9 18.1002 8.8C18.1002 8.8 18.1002 8.8 18.2002 8.8C18.3002 8.8 18.4002 8.8 18.5002 8.8C18.6002 8.8 18.6002 8.8 18.7002 8.8H18.8002H18.9002C19.1002 8.8 19.4002 8.8 19.6002 8.8C19.9002 8.8 20.2002 8.8 20.5002 8.7C20.7002 8.7 20.9002 8.6 21.1002 8.6C21.3002 8.6 21.4002 8.5 21.6002 8.5C22.0002 8.4 22.3002 8.4 22.7002 8.3C22.9002 8.3 23.2002 8.2 23.4002 8.2C23.5002 8.2 23.7002 8.2 23.8002 8.2C24.0002 8.2 24.2002 8.2 24.4002 8.1C24.7002 8.1 24.9002 8 25.2002 8C25.3002 8 25.5002 7.9 25.6002 7.9C25.8002 7.8 25.9002 7.8 26.1002 7.7C26.3002 7.6 26.4002 7.6 26.6002 7.5C26.8002 7.4 27.0002 7.4 27.1002 7.3C27.5002 7.1 27.8002 7 28.2002 6.8C28.3002 6.7 28.5002 6.7 28.6002 6.6C28.8002 6.5 29.0002 6.4 29.2002 6.3C29.5002 6.3 29.8002 6.2 30.0002 6C30.2002 5.9 30.4002 5.8 30.6002 5.7C30.9002 5.6 31.2002 5.5 31.6002 5.4C31.9002 5.3 32.2002 5.3 32.5002 5.2C32.8002 5.2 33.2002 5.1 33.5002 5.1C33.7002 5.1 33.9002 5.1 34.1002 5C34.3002 5 34.4002 4.9 34.6002 4.9C34.6002 4.9 34.5002 4.9 34.5002 5C34.2002 5.2 33.9002 5.4 33.6002 5.6C33.4002 5.7 33.2002 5.9 33.0002 6C32.9002 6.1 32.8002 6.2 32.6002 6.3C32.4002 6.4 32.3002 6.6 32.1002 6.8C32.1002 6.8 32.1002 6.7 32.2002 6.7C32.1002 6.9 32.0002 7 31.9002 7.2C31.8002 7.3 31.8002 7.5 31.7002 7.6C31.6002 7.8 31.6002 8.1 31.5002 8.3C31.5002 8.4 31.4002 8.4 31.4002 8.5C31.4002 8.5 31.4002 8.5 31.4002 8.6C31.3002 8.8 31.2002 9 31.1002 9.2C31.0002 9.4 30.8002 9.7 30.7002 9.9C30.6002 10.1 30.4002 10.4 30.3002 10.6C30.1002 10.8 30.0002 11.1 29.8002 11.3C29.6002 11.5 29.5002 11.8 29.3002 12C29.2002 12.2 29.0002 12.4 28.9002 12.6C28.6002 13 28.3002 13.4 28.1002 13.8C28.0002 13.9 27.9002 14.1 27.8002 14.2C27.7002 14.3 27.6002 14.4 27.5002 14.6C27.4002 14.8 27.2002 15 27.0002 15.2C27.0002 15.2 27.0002 15.2 26.9002 15.3C26.6002 15.6 26.3002 16 26.2002 16.4C26.1002 16.5 26.0002 16.7 26.0002 16.8C25.9002 17 25.9002 17.2 25.9002 17.4C25.9002 17.6 25.9002 17.7 25.9002 17.9C25.9002 18 25.9002 18.1 25.9002 18.2C25.9002 18.3 25.9002 18.4 26.0002 18.4C26.1002 18.9 26.1002 19.5 26.5002 19.9C26.7002 20.1 26.9002 20.2 27.1002 20.3C27.3002 20.4 27.5002 20.5 27.7002 20.6C27.9002 20.7 28.2002 20.8 28.5002 20.9C28.8002 21 29.1002 21.1 29.4002 21.1C29.6002 21.1 29.9002 21.2 30.2002 21.2C30.5002 21.2 30.8002 21.2 31.0002 21.2C31.3002 21.2 31.7002 21.2 32.0002 21.1C32.3002 21.1 32.6002 21 32.9002 21C33.5002 20.9 34.0002 20.7 34.6002 20.5C34.7002 20.5 34.9002 20.4 35.0002 20.3C35.2002 20.2 35.3002 20.1 35.4002 20C35.6002 19.9 35.8002 19.7 36.0002 19.6C36.2002 19.5 36.3002 19.3 36.4002 19.2C36.5002 19.1 36.7002 18.9 36.8002 18.8C37.0002 18.6 37.1002 18.4 37.3002 18.2C37.5002 18 37.7002 17.8 37.8002 17.6C38.0002 17.4 38.1002 17.1 38.2002 16.8V16.7V16.8C38.3002 16.7 38.3002 16.5 38.4002 16.4C38.6002 16 38.8002 15.7 39.0002 15.3C39.1002 15.2 39.1002 15.1 39.2002 14.9C39.2002 14.8 39.3002 14.7 39.3002 14.6C39.5002 14.6 39.6002 14.5 39.8002 14.5C40.0002 14.5 40.3002 14.4 40.5002 14.3C40.9002 14.2 41.4002 14.1 41.8002 14C42.2002 13.9 42.6002 13.8 43.0002 13.7C43.2002 13.6 43.4002 13.6 43.6002 13.5C43.7002 13.5 43.7002 13.4 43.8002 13.4C43.9002 13.3 44.1002 13.3 44.2002 13.2C44.4002 13.1 44.6002 13.1 44.8002 13C44.9002 13 45.0002 12.9 45.1002 12.9C45.2002 12.9 45.3002 12.8 45.4002 12.8C45.4002 12.8 45.4002 12.8 45.5002 12.8C45.5002 12.8 45.5002 12.8 45.6002 12.8C45.7002 12.8 45.7002 12.9 45.8002 12.9C45.9002 12.9 45.9002 12.9 45.9002 13C46.0002 13 46.0002 13 46.1002 13.1C46.2002 13.1 46.3002 13.2 46.4002 13.2C46.5002 13.2 46.6002 13.3 46.7002 13.3C46.7002 13.3 46.6002 13.3 46.6002 13.2C46.7002 13.3 46.8002 13.3 46.9002 13.4C47.0002 13.4 47.0002 13.5 47.1002 13.5C47.1002 13.5 47.0002 13.5 47.0002 13.4C47.1002 13.5 47.2002 13.5 47.3002 13.6C47.4002 13.7 47.6002 13.7 47.7002 13.8C48.0002 14 48.3002 14.1 48.5002 14.3C48.6002 14.4 48.6002 14.4 48.7002 14.5C48.8002 14.6 49.0002 14.7 49.1002 14.8C49.2002 14.9 49.3002 15 49.4002 15.1C49.6002 15.3 49.8002 15.4 50.0002 15.6C50.0002 15.6 50.0002 15.6 50.1002 15.7C50.1002 15.7 50.1002 15.7 50.0002 15.7C50.0002 15.7 50.0002 15.7 50.1002 15.7C50.1002 15.7 50.1002 15.7 50.2002 15.8C50.2002 15.8 50.2002 15.8 50.1002 15.7C50.3002 15.9 50.5002 16 50.7002 16.2C50.8002 16.2 50.8002 16.3 50.9002 16.3C51.0002 16.4 51.0002 16.5 51.1002 16.5C51.3002 16.7 51.5002 16.9 51.7002 17.1C52.1002 17.5 52.5002 17.9 52.8002 18.3C53.2002 18.7 53.6002 19.2 53.9002 19.6C54.1002 19.8 54.3002 20.1 54.5002 20.3C54.6002 20.5 54.7002 20.6 54.9002 20.8C55.1002 21 55.2002 21.2 55.4002 21.3C55.4002 21.4 55.5002 21.4 55.5002 21.5C55.5002 21.5 55.5002 21.5 55.6002 21.6C55.7002 21.7 55.7002 21.7 55.8002 21.8C55.9002 21.9 55.9002 21.9 56.0002 22L56.1002 22.1L56.2002 22.2C56.4002 22.4 56.6002 22.5 56.8002 22.7C57.0002 22.8 57.1002 22.9 57.3002 23.1C57.5002 23.2 57.7002 23.4 57.9002 23.5C58.1002 23.6 58.3002 23.8 58.5002 23.9C58.7002 24 58.9002 24.2 59.2002 24.3C59.5002 24.5 59.8002 24.7 60.1002 24.9C60.4002 25.1 60.8002 25.3 61.1002 25.6C61.3002 25.7 61.4002 25.8 61.6002 25.9C61.8002 26 61.9002 26.1 62.1002 26.3C62.4002 26.5 62.7002 26.7 63.0002 27C63.1002 27.1 63.3002 27.3 63.4002 27.4C63.6002 27.5 63.7002 27.6 63.9002 27.8L64.0002 27.9C64.3002 28.1 64.5002 28.4 64.8002 28.6C64.8002 28.6 64.7002 28.6 64.7002 28.5C64.9002 28.6 65.0002 28.8 65.1002 28.9C65.2002 29 65.4002 29.2 65.5002 29.3C65.7002 29.6 66.0002 29.9 66.2002 30.1C66.3002 30.3 66.4002 30.5 66.6002 30.6C66.7002 30.7 66.7002 30.8 66.8002 30.9C66.9002 31.1 67.0002 31.2 67.1002 31.4C67.2002 31.5 67.2002 31.6 67.2002 31.6C67.2002 31.7 67.3002 31.8 67.3002 31.9C67.4002 32.2 67.4002 32.5 67.5002 32.7C66.9002 33.1 66.9002 33.4 66.8002 33.7ZM34.4002 18.9C34.4002 18.9 34.4002 18.8 34.4002 18.9C34.4002 18.8 34.4002 18.8 34.4002 18.9C34.4002 18.8 34.4002 18.9 34.4002 18.9ZM70.8002 33C70.9002 33 70.9002 33 70.8002 33C70.9002 33 70.9002 33 70.8002 33C70.9002 33 70.9002 33 70.8002 33ZM70.7002 31.3C70.6002 31.3 70.4002 31.4 70.3002 31.4C70.1002 31.4 69.9002 31.5 69.6002 31.5C69.3002 31.6 69.1002 31.6 68.8002 31.7C68.7002 31.7 68.6002 31.8 68.5002 31.8C68.4002 31.8 68.3002 31.9 68.2002 31.9C68.2002 31.9 68.2002 31.9 68.2002 31.8C68.1002 31.7 68.0002 31.5 67.9002 31.4C67.9002 31.3 67.8002 31.3 67.8002 31.2C67.8002 31.1 67.7002 30.9 67.7002 30.8C67.6002 30.6 67.5002 30.3 67.4002 30.1C67.3002 29.8 67.1002 29.6 66.9002 29.4C66.6002 29 66.3002 28.6 65.9002 28.2C65.5002 27.8 65.2002 27.4 64.8002 27.1C64.6002 26.9 64.4002 26.7 64.1002 26.5C63.9002 26.3 63.7002 26.2 63.4002 26C63.0002 25.7 62.5002 25.4 62.1002 25.1C61.6002 24.8 61.2002 24.4 60.7002 24.1C60.3002 23.8 59.8002 23.5 59.4002 23.3C59.2002 23.2 58.9002 23 58.7002 22.8C58.4002 22.6 58.2002 22.5 57.9002 22.3C57.4002 22 57.0002 21.6 56.5002 21.2C56.3002 21 56.1002 20.9 56.0002 20.7C55.9002 20.6 55.8002 20.5 55.8002 20.4C55.8002 20.3 55.7002 20.3 55.7002 20.2C55.6002 20.1 55.5002 20 55.4002 19.9C55.3002 19.8 55.2002 19.7 55.1002 19.5C55.0002 19.3 54.9002 19.2 54.7002 19.1C54.4002 18.8 54.2002 18.5 53.9002 18.1C53.6002 17.7 53.3002 17.4 53.0002 17C52.7002 16.7 52.5002 16.4 52.2002 16.1C52.0002 15.9 51.9002 15.8 51.7002 15.6C51.6002 15.5 51.5002 15.3 51.3002 15.2C51.2002 15.1 51.1002 14.9 50.9002 14.8C50.8002 14.7 50.7002 14.6 50.6002 14.5C50.4002 14.4 50.3002 14.2 50.1002 14.1C49.9002 14 49.8002 13.9 49.6002 13.8C49.4002 13.7 49.2002 13.5 49.0002 13.4C48.8002 13.3 48.6002 13.2 48.5002 13C48.1002 12.7 47.6002 12.5 47.2002 12.2C46.8002 12 46.4002 11.7 46.0002 11.6C45.9002 11.6 45.7002 11.5 45.6002 11.5C45.5002 11.5 45.3002 11.4 45.2002 11.4C45.1002 11.4 45.1002 11.4 45.0002 11.4C44.9002 11.4 44.8002 11.4 44.8002 11.5C44.7002 11.6 44.6002 11.6 44.5002 11.8C44.5002 11.8 44.4002 11.8 44.4002 11.9C44.3002 11.9 44.3002 12 44.2002 12C44.1002 12.1 44.0002 12.1 43.9002 12.2C43.7002 12.3 43.6002 12.3 43.4002 12.4C43.4002 12.4 43.3002 12.4 43.3002 12.5C43.2002 12.5 43.1002 12.6 42.9002 12.6C42.7002 12.7 42.4002 12.7 42.1002 12.8C41.8002 12.9 41.5002 13 41.2002 13C40.9002 13 40.6002 13.1 40.3002 13.2C40.1002 13.2 39.9002 13.3 39.7002 13.3C39.6002 13.3 39.5002 13.3 39.4002 13.3C39.3002 13.3 39.2002 13.3 39.0002 13.3C38.9002 13.3 38.9002 13.3 38.8002 13.3C38.7002 13.3 38.6002 13.3 38.6002 13.3C38.6002 13.3 38.6002 13.3 38.5002 13.3C38.4002 13.3 38.2002 13.4 38.1002 13.5C37.9002 13.5 37.8002 13.6 37.7002 13.8C37.7002 13.9 37.6002 13.9 37.6002 14C37.6002 14.1 37.5002 14.2 37.5002 14.3C37.5002 14.4 37.4002 14.5 37.4002 14.6C37.3002 14.8 37.3002 14.9 37.2002 15.1C37.2002 15.2 37.1002 15.3 37.1002 15.4C37.0002 15.6 36.9002 15.8 36.8002 16.1C36.7002 16.3 36.6002 16.5 36.5002 16.7C36.4002 16.9 36.3002 17.1 36.2002 17.3C36.1002 17.5 36.0002 17.7 35.9002 17.8C35.8002 18 35.6002 18.1 35.5002 18.3C35.4002 18.5 35.2002 18.6 35.0002 18.7C34.8002 18.8 34.7002 18.9 34.5002 19C34.3002 19.1 34.1002 19.3 33.8002 19.4C33.6002 19.5 33.4002 19.6 33.2002 19.7C32.7002 19.9 32.3002 19.9 31.8002 20C31.5002 20 31.1002 20 30.8002 20C30.5002 20 30.1002 20 29.8002 19.9C29.5002 19.8 29.2002 19.7 28.8002 19.6C28.6002 19.5 28.4002 19.4 28.3002 19.3C28.1002 19.2 27.9002 19 27.7002 18.9C27.6002 18.8 27.4002 18.6 27.3002 18.5C27.2002 18.4 27.2002 18.3 27.1002 18.2C27.1002 18.1 27.1002 18 27.0002 17.9C27.0002 17.8 27.0002 17.7 27.0002 17.6C27.0002 17.5 27.0002 17.4 27.1002 17.4C27.2002 17.3 27.3002 17.1 27.4002 17C27.5002 16.9 27.5002 16.9 27.6002 16.8C27.7002 16.7 27.7002 16.6 27.8002 16.5C27.9002 16.4 28.0002 16.3 28.1002 16.2C28.2002 16 28.4002 15.9 28.5002 15.7L28.4002 15.8C28.6002 15.6 28.7002 15.4 28.9002 15.2C29.0002 15 29.2002 14.9 29.3002 14.7C29.4002 14.5 29.5002 14.4 29.7002 14.2C29.8002 14.1 29.9002 13.9 30.0002 13.8C30.1002 13.6 30.2002 13.5 30.3002 13.3C30.4002 13.1 30.5002 12.9 30.6002 12.8C30.7002 12.6 30.8002 12.4 31.0002 12.2C31.2002 12 31.3002 11.8 31.4002 11.6C31.5002 11.4 31.6002 11.1 31.8002 10.8C31.9002 10.6 32.0002 10.5 32.1002 10.3C32.2002 10.1 32.3002 9.9 32.4002 9.7C32.5002 9.6 32.5002 9.4 32.6002 9.3C32.7002 9.2 32.7002 9.1 32.8002 9C32.9002 8.8 33.0002 8.7 33.0002 8.5C33.2002 8.2 33.3002 7.9 33.6002 7.6C33.7002 7.5 33.9002 7.4 34.0002 7.3C34.2002 7.2 34.4002 7.1 34.6002 7C34.8002 6.9 35.0002 6.9 35.2002 6.8C35.4002 6.7 35.6002 6.6 35.7002 6.5C36.0002 6.3 36.3002 6 36.6002 5.8L36.7002 5.7L36.6002 5.8C37.0002 5.5 37.4002 5.2 37.8002 4.9C38.0002 4.7 38.2002 4.6 38.4002 4.4C38.6002 4.2 38.8002 4.1 39.0002 3.9C39.2002 3.2 39.6002 3 40.0002 2.9C40.1002 2.9 40.2002 2.8 40.3002 2.8C40.3002 2.8 40.4002 2.8 40.4002 2.7C40.4002 2.7 40.4002 2.7 40.5002 2.7H40.6002C40.6002 2.7 40.6002 2.7 40.5002 2.7C40.6002 2.7 40.7002 2.6 40.7002 2.6C41.1002 2.5 41.5002 2.4 41.9002 2.4C42.7002 2.4 43.4002 2.4 44.2002 2.5C44.6002 2.5 44.9002 2.6 45.3002 2.6H45.4002H45.3002C45.5002 2.6 45.6002 2.7 45.8002 2.7C45.9002 2.7 46.0002 2.7 46.1002 2.7C46.2002 2.7 46.3002 2.7 46.4002 2.8C46.6002 2.8 46.8002 2.9 47.0002 2.9C47.3002 3 47.6002 3.1 48.0002 3.3C48.3002 3.4 48.6002 3.5 48.9002 3.6C49.0002 3.6 49.1002 3.7 49.3002 3.7C49.3002 3.7 49.4002 3.7 49.4002 3.8C49.7002 3.9 50.0002 4.1 50.2002 4.2C50.2002 4.2 50.2002 4.2 50.1002 4.2C50.3002 4.3 50.5002 4.4 50.6002 4.5C50.8002 4.6 51.0002 4.7 51.1002 4.8C51.3002 4.9 51.5002 5 51.7002 5.1C51.9002 5.2 52.1002 5.3 52.3002 5.4C52.5002 5.5 52.6002 5.6 52.8002 5.7C53.0002 5.8 53.1002 5.9 53.3002 6C53.6002 6.2 53.9002 6.3 54.2002 6.5C54.3002 6.6 54.5002 6.6 54.6002 6.7C54.8002 6.8 54.9002 6.9 55.1002 7C55.3002 7.1 55.5002 7.2 55.7002 7.3C55.9002 7.4 56.1002 7.5 56.3002 7.5C56.7002 7.7 57.2002 7.9 57.6002 8.1H57.5002C58.0002 8 58.5002 8.2 59.0002 8.3C59.1002 8.3 59.2002 8.4 59.4002 8.4C59.6002 8.4 59.7002 8.5 59.9002 8.5C60.1002 8.5 60.2002 8.6 60.4002 8.6C60.6002 8.6 60.8002 8.7 61.0002 8.7C61.1002 8.7 61.2002 8.7 61.3002 8.8C61.5002 8.8 61.7002 8.9 61.9002 8.9C61.8002 8.9 62.0002 9 62.1002 9C62.4002 9.1 62.6002 9.1 62.9002 9.2C63.2002 9.3 63.5002 9.3 63.8002 9.3C64.1002 9.3 64.4002 9.4 64.7002 9.4C64.9002 9.4 65.0002 9.4 65.2002 9.4C65.3002 9.4 65.4002 9.4 65.5002 9.4C65.8002 9.4 66.1002 9.4 66.4002 9.4C66.7002 9.4 66.9002 9.4 67.2002 9.4C67.3002 9.4 67.5002 9.4 67.6002 9.4C67.7002 9.4 67.7002 9.4 67.8002 9.4C68.0002 9.4 68.2002 9.4 68.4002 9.4C68.6002 9.4 68.8002 9.4 69.0002 9.4C69.2002 9.4 69.5002 9.4 69.7002 9.4C69.8002 9.4 69.8002 9.4 69.9002 9.4C69.9002 9.7 69.9002 9.9 70.0002 10.1C70.0002 10.4 70.1002 10.7 70.1002 10.9C70.1002 11.3 70.2002 11.6 70.2002 12C70.2002 11.9 70.2002 11.9 70.2002 11.8C70.2002 11.9 70.2002 12 70.2002 12.2C70.3002 13.3 70.4002 14.5 70.5002 15.6C70.6002 16.2 70.6002 16.8 70.6002 17.4C70.6002 18 70.7002 18.6 70.7002 19.1C70.7002 19.7 70.8002 20.2 70.8002 20.8C70.8002 21.4 70.9002 21.9 70.9002 22.5C70.9002 23.1 71.0002 23.6 71.0002 24.2C71.0002 24.5 71.0002 24.8 71.0002 25.1C71.0002 25.4 71.0002 25.7 71.0002 26C71.0002 26.3 71.0002 26.5 71.0002 26.8C71.0002 27.1 71.0002 27.3 71.0002 27.6C71.0002 27.9 71.0002 28.1 71.0002 28.4C71.0002 28.6 71.0002 28.9 71.0002 29.1C71.0002 29.2 71.0002 29.4 71.0002 29.5C71.0002 29.7 71.0002 29.8 71.0002 30C71.0002 30.1 71.0002 30.2 71.0002 30.4C71.0002 30.5 71.0002 30.7 71.0002 30.8C71.0002 31 71.0002 31.1 71.0002 31.3C71.0002 31.3 70.8002 31.3 70.7002 31.3ZM72.6002 31.4C72.6002 30.8 72.5002 30.2 72.5002 29.6C72.5002 29 72.4002 28.5 72.4002 28C72.3002 27.5 72.3002 26.9 72.3002 26.4C72.3002 25.8 72.3002 25.3 72.3002 24.7C72.3002 24.4 72.3002 24.2 72.3002 23.9C72.3002 23.6 72.3002 23.3 72.3002 23C72.3002 22.4 72.2002 21.9 72.2002 21.3C72.2002 20.7 72.1002 20.1 72.1002 19.6C72.1002 19.3 72.1002 19.1 72.1002 18.8C72.1002 18.5 72.1002 18.3 72.0002 18C72.0002 17.7 72.0002 17.5 72.0002 17.2C72.0002 16.9 72.0002 16.6 72.0002 16.3C72.0002 16 72.0002 15.8 72.0002 15.5C72.0002 15.2 72.0002 14.9 72.0002 14.6C72.0002 14.3 72.0002 14.1 72.0002 13.8C72.0002 13.5 72.0002 13.3 71.9002 13C71.9002 12.7 71.8002 12.3 71.8002 12C71.8002 11.7 71.7002 11.3 71.6002 11C71.6002 10.7 71.5002 10.4 71.5002 10C71.5002 9.7 71.4002 9.3 71.3002 9C71.3002 8.9 71.3002 8.8 71.3002 8.7C71.3002 8.5 71.2002 8.3 71.2002 8.1C71.0002 7.8 71.0002 7.4 71.0002 7C71.0002 6 71.0002 5 71.1002 4C71.1002 4 71.1002 4 71.1002 3.9C71.1002 3.9 71.1002 3.9 71.2002 3.9H71.3002C71.4002 3.9 71.5002 3.9 71.7002 3.9C71.8002 3.9 71.8002 3.9 71.9002 3.9C71.9002 4 72.0002 4 72.0002 4C72.3002 4 72.5002 4 72.8002 3.9H72.7002C72.9002 3.9 73.1002 3.9 73.2002 3.8C73.4002 3.8 73.5002 3.7 73.7002 3.7C74.0002 3.7 74.2002 3.7 74.5002 3.7C74.7002 3.7 74.8002 3.7 75.0002 3.7C75.1002 3.7 75.3002 3.7 75.4002 3.7C75.6002 3.7 75.9002 3.7 76.1002 3.7C76.2002 3.7 76.2002 3.7 76.3002 3.7C76.4002 3.7 76.5002 3.7 76.5002 3.7C76.6002 3.7 76.8002 3.7 76.9002 3.7C77.0002 3.7 77.0002 3.7 77.1002 3.7C77.2002 3.7 77.2002 3.7 77.3002 3.7C77.4002 3.7 77.4002 3.8 77.4002 3.8C77.5002 3.9 77.6002 4 77.7002 4.1C77.8002 4.2 77.9002 4.3 78.0002 4.5C78.1002 4.6 78.2002 4.8 78.3002 4.9C78.4002 5.1 78.5002 5.3 78.5002 5.5C78.6002 5.8 78.7002 6 78.7002 6.3C78.7002 6.5 78.7002 6.7 78.7002 7C78.7002 7.3 78.6002 7.5 78.6002 7.8C78.6002 7.9 78.5002 8.1 78.5002 8.2C78.5002 8.4 78.4002 8.5 78.4002 8.7C78.3002 9 78.2002 9.3 78.2002 9.5C78.1002 9.8 78.0002 10.1 78.0002 10.4C77.8002 10.9 77.6002 11.5 77.5002 12C77.3002 12.5 77.2002 13 77.0002 13.5C76.8002 14 76.7002 14.5 76.6002 15.1C76.5002 15.7 76.3002 16.2 76.2002 16.8C76.1002 17.1 76.1002 17.3 76.0002 17.6C75.9002 17.9 75.9002 18.1 75.8002 18.4C75.7002 18.7 75.7002 19 75.6002 19.3C75.5002 19.6 75.5002 19.9 75.5002 20.2C75.4002 20.8 75.3002 21.4 75.2002 21.9C75.1002 22.2 75.1002 22.5 75.1002 22.7C75.1002 23 75.0002 23.3 75.0002 23.6C75.0002 23.9 74.9002 24.2 74.9002 24.5C74.9002 24.8 74.8002 25.1 74.8002 25.3C74.7002 25.9 74.6002 26.4 74.5002 27C74.5002 27.1 74.5002 27.1 74.5002 27.2V27.3C74.4002 27.6 74.4002 27.9 74.3002 28.2C74.2002 28.8 73.9002 29.3 73.8002 29.9C73.7002 30.2 73.6002 30.5 73.6002 30.8C73.5002 31.1 73.4002 31.4 73.3002 31.6C73.2002 32 73.0002 32.4 72.9002 32.8C72.6002 32.3 72.6002 31.9 72.6002 31.4ZM79.7002 37.6C79.4002 37.7 79.2002 37.8 78.9002 37.9C78.6002 38 78.4002 38.1 78.1002 38.1C77.7002 38.2 77.2002 38.1 76.8002 38.1C76.5002 38.1 76.3002 38 76.0002 38C75.7002 38 75.5002 37.9 75.2002 37.9C74.9002 37.9 74.6002 37.8 74.2002 37.6C74.0002 37.5 73.8002 37.4 73.6002 37.3C73.5002 37.2 73.4002 37.1 73.3002 37C73.1002 36.8 73.0002 36.6 72.8002 36.3C72.8002 36.3 72.8002 36.2 72.7002 36.2C73.2002 36.3 73.8002 36.4 74.4002 36.5C75.0002 36.6 75.6002 36.7 76.1002 36.9C76.4002 37 76.7002 37 77.0002 37.1C77.3002 37.2 77.5002 37.2 77.8002 37.2C77.9002 37.2 78.1002 37.2 78.2002 37.3C78.3002 37.3 78.5002 37.3 78.6002 37.3C79.1002 37.5 79.4002 37.5 79.7002 37.6C79.7002 37.6 79.8002 37.6 79.7002 37.6C79.8002 37.6 79.8002 37.6 79.7002 37.6ZM81.5002 35.6C81.4002 35.9 81.2002 36.3 81.0002 36.6C80.9002 36.6 80.7002 36.6 80.6002 36.5C80.3002 36.4 80.0002 36.4 79.8002 36.3C79.5002 36.2 79.2002 36.2 78.9002 36.2C78.6002 36.2 78.3002 36.1 78.0002 36.1C77.4002 36 76.8002 35.9 76.3002 35.8C75.7002 35.7 75.1002 35.5 74.5002 35.4C74.0002 35.3 73.4002 35.2 72.9002 35.1C72.9002 35 73.0002 34.9 73.0002 34.8C73.0002 34.7 73.1002 34.7 73.1002 34.6C73.2002 34.5 73.3002 34.4 73.3002 34.2C73.3002 34.1 73.4002 34.1 73.4002 34C73.4002 33.9 73.5002 33.9 73.5002 33.8C73.8002 33.8 74.1002 33.9 74.3002 33.9C74.6002 34 74.9002 34 75.3002 34.1C75.9002 34.2 76.5002 34.4 77.1002 34.6C77.7002 34.8 78.3002 34.9 78.9002 35C79.5002 35.1 80.1002 35.3 80.8002 35.3C81.1002 35.5 81.3002 35.5 81.5002 35.6C81.5002 35.5 81.5002 35.5 81.5002 35.6ZM81.9002 34.1C81.9002 34.2 81.9002 34.3 81.9002 34.4C81.5002 34.3 81.1002 34.3 80.7002 34.2C80.1002 34.1 79.5002 34 78.8002 33.9C78.2002 33.8 77.6002 33.7 77.0002 33.5C76.4002 33.3 75.8002 33.2 75.2002 33C74.9002 32.9 74.7002 32.9 74.4002 32.8C74.3002 32.8 74.2002 32.8 74.1002 32.7C74.2002 32.5 74.3002 32.4 74.3002 32.2C74.4002 32 74.4002 31.9 74.5002 31.7C74.7002 31.7 74.9002 31.8 75.1002 31.8C75.4002 31.9 75.7002 31.9 76.0002 32C76.3002 32.1 76.6002 32.1 76.9002 32.2C77.2002 32.3 77.5002 32.4 77.8002 32.4C78.4002 32.5 79.0002 32.7 79.6002 32.8C79.9002 32.9 80.2002 32.9 80.5002 33C80.8002 33.1 81.1002 33.1 81.4002 33.2C81.6002 33.2 81.8002 33.3 82.0002 33.3C82.0002 33.6 81.9002 33.8 81.9002 34.1ZM81.6002 32.1C81.3002 32 81.0002 32 80.7002 31.9C80.1002 31.8 79.5002 31.7 78.9002 31.5C78.3002 31.4 77.7002 31.3 77.2002 31.1C76.6002 30.9 76.0002 30.8 75.3002 30.6C75.2002 30.6 75.0002 30.5 74.8002 30.5C74.9002 30.2 75.0002 29.8 75.0002 29.5C75.1002 29.5 75.3002 29.6 75.4002 29.6C75.7002 29.7 76.0002 29.7 76.3002 29.8C76.9002 29.9 77.5002 30.1 78.1002 30.2C78.7002 30.3 79.3002 30.5 79.9002 30.6C80.5002 30.7 81.1002 30.8 81.7002 30.9C81.8002 30.9 81.8002 30.9 81.9002 30.9C81.9002 31.3 81.9002 31.6 81.9002 32C81.9002 32.1 81.8002 32.1 81.6002 32.1Z" fill="black"/>
<path d="M52.3002 24.9C52.2002 24.9 52.2002 24.9 52.3002 24.9C52.3002 25 52.2002 25 52.2002 25.1C52.2002 25 52.2002 24.9 52.3002 24.9Z" fill="black"/>
</g>
<defs>
<clipPath id="clip0">
<rect width="83.8" height="52" fill="white"/>
</clipPath>
</defs>
</svg>
