<svg width="56" height="53" viewBox="0 0 56 53" fill="none" xmlns="http://www.w3.org/2000/svg">
<g clip-path="url(#clip0)">
<path d="M54.8998 15.6C54.8998 15 54.7998 14.4 54.6998 13.9C54.5998 13.3 54.4998 12.6 54.3998 12C54.2998 11.8 54.2998 11.5 54.1998 11.3C54.0998 11 53.9998 10.7 53.8998 10.4C53.5998 9.8 53.2998 9.2 52.9998 8.7C52.8998 8.6 52.8998 8.5 52.7998 8.3C52.6998 8.2 52.6998 8.1 52.5998 8C52.3998 7.7 52.2998 7.5 52.1998 7.3C51.9998 7 51.7998 6.8 51.5998 6.5C51.4998 6.4 51.4998 6.3 51.3998 6.2C51.2998 6 51.1998 5.9 50.9998 5.7C50.7998 5.4 50.4998 5.2 50.1998 4.9C49.8998 4.7 49.6998 4.5 49.2998 4.3C48.7998 4 48.3998 3.7 47.9998 3.5C47.8998 3.4 47.7998 3.4 47.6998 3.3C47.4998 3.2 47.3998 3.1 47.1998 3C47.0998 2.9 46.8998 2.8 46.7998 2.8C46.6998 2.7 46.5998 2.7 46.3998 2.6C46.2998 2.5 46.1998 2.5 46.0998 2.4L45.9998 2.3C45.7998 2.2 45.5998 2.1 45.4998 2C45.1998 1.9 44.9998 1.8 44.6998 1.7C44.5998 1.7 44.4998 1.6 44.3998 1.6H44.2998C44.0998 1.5 43.8998 1.4 43.6998 1.4C43.5998 1.4 43.4998 1.3 43.3998 1.3C43.0998 1.2 42.7998 1.1 42.5998 1C42.4998 1 42.2998 0.9 42.1998 0.9H42.0998C41.8998 0.8 41.5998 0.7 41.3998 0.7C41.2998 0.7 41.0998 0.6 40.9998 0.6C40.8998 0.6 40.7998 0.5 40.5998 0.5C40.3998 0.5 40.2998 0.4 40.0998 0.4C39.9998 0.4 39.8998 0.3 39.7998 0.3C39.4998 0.1 39.2998 0 38.8998 0C38.7998 0 38.5998 0 38.4998 0C38.2998 0 38.1998 0 37.9998 0C37.7998 0 37.4998 0 37.2998 0.1C36.6998 0.2 36.1998 0.4 35.4998 0.6H35.3998C35.2998 0.6 35.0998 0.7 34.9998 0.8C34.7998 0.9 34.4998 1 34.2998 1.1C33.9998 1.2 33.7998 1.4 33.5998 1.5C33.2998 1.6 32.9998 1.8 32.6998 2C32.2998 2.2 31.8998 2.5 31.5998 2.8L31.2998 3C31.0998 3 30.9998 3 30.8998 3.1C30.7998 3.2 30.6998 3.2 30.5998 3.3L30.3998 3.4C30.1998 3.5 29.9998 3.7 29.7998 3.8C29.5998 3.9 29.3998 4 29.2998 4.2C28.9998 4.4 28.7998 4.5 28.4998 4.7C28.2998 4.9 27.9998 5.1 27.7998 5.3C27.5998 5.5 27.3998 5.7 27.1998 5.9C26.9998 6.2 26.7998 6.4 26.5998 6.6C26.4998 6.7 26.3998 6.9 26.2998 7L26.1998 7.1C25.9998 7.6 25.6998 8 25.3998 8.4C25.2998 8.5 25.2998 8.6 25.1998 8.8C25.0998 8.9 25.0998 9 24.9998 9.1C24.7998 9.4 24.6998 9.6 24.5998 9.9C24.4998 10.1 24.4998 10.2 24.3998 10.4C24.3998 10.5 24.3998 10.5 24.2998 10.6C24.2998 10.7 24.1998 10.8 24.1998 10.9C24.0998 11.1 24.0998 11.3 23.9998 11.5C23.9998 11.7 23.9998 12 23.8998 12.3C23.7998 12.6 23.7998 12.9 23.6998 13.2C23.4998 14.3 23.3998 15.4 23.2998 16.6C23.2998 17 23.1998 17.3 23.1998 17.7C23.1998 18 23.1998 18.4 23.2998 18.7C23.2998 19 23.3998 19.4 23.4998 19.7C23.4998 19.8 23.5998 19.8 23.5998 19.9C23.5998 20 23.5998 20 23.6998 20.1C23.6998 20.2 23.7998 20.3 23.7998 20.4C23.6998 20.6 23.4998 20.7 23.3998 20.9C23.2998 21 23.1998 21.1 23.0998 21.2C22.8998 21.4 22.6998 21.6 22.5998 21.7C22.4998 21.8 22.3998 21.9 22.2998 22.1C22.1998 22.2 22.1998 22.2 22.0998 22.3C21.8998 22.5 21.7998 22.7 21.5998 22.8C21.3998 23 21.1998 23.2 20.9998 23.5C20.8998 23.6 20.8998 23.6 20.7998 23.7C20.6998 23.9 20.4998 24 20.3998 24.2C20.1998 24.4 19.9998 24.6 19.8998 24.8C19.7998 25 19.5998 25.2 19.4998 25.4L19.3998 25.5C19.1998 25.8 18.9998 26 18.8998 26.2C18.7998 26.4 18.5998 26.5 18.4998 26.7C18.3998 26.9 18.1998 27 18.0998 27.2L17.9998 27.3C17.8998 27.4 17.7998 27.6 17.6998 27.7C17.5998 27.8 17.4998 27.9 17.2998 28.1C17.0998 28.3 16.8998 28.5 16.6998 28.6C16.4998 28.8 16.1998 29 15.9998 29.2L15.7998 29.4L15.5998 29.6C15.3998 29.8 15.0998 30 14.8998 30.3C14.6998 30.5 14.3998 30.7 14.1998 30.9C13.8998 31.2 13.4998 31.5 13.1998 31.8L12.9998 32C12.4998 32.4 12.0998 32.9 11.5998 33.4C11.3998 33.6 11.0998 33.8 10.8998 34C10.7998 34.1 10.6998 34.2 10.5998 34.3C10.3998 34.4 10.2998 34.6 10.0998 34.7C9.89981 34.9 9.5998 35.1 9.3998 35.4L9.2998 35.5C9.0998 35.7 8.7998 36 8.5998 36.2C8.4998 36.3 8.39981 36.4 8.2998 36.5C8.1998 36.6 8.0998 36.7 7.9998 36.8C7.7998 37 7.6998 37.1 7.4998 37.3C7.2998 37.4 7.1998 37.6 6.9998 37.7C6.8998 37.8 6.6998 38 6.5998 38.1C6.2998 38.4 5.9998 38.6 5.7998 38.8C5.0998 38.9 4.9998 39 4.7998 39.2C4.6998 39.3 4.5998 39.3 4.5998 39.4C4.4998 39.5 4.4998 39.5 4.3998 39.6C4.2998 39.6 4.2998 39.7 4.1998 39.7C3.9998 39.8 3.8998 40 3.7998 40.1C3.6998 40.2 3.4998 40.4 3.3998 40.5C3.2998 40.6 3.1998 40.7 2.9998 40.9C2.8998 41 2.7998 41.1 2.6998 41.2L2.5998 41.3C2.4998 41.4 2.4998 41.4 2.3998 41.5L2.2998 41.6C2.0998 41.8 1.8998 41.9 1.7998 42.2C1.6998 42.3 1.6998 42.4 1.6998 42.6C1.6998 42.7 1.6998 42.7 1.5998 42.8C1.5998 42.9 1.4998 43.1 1.3998 43.2C1.3998 43.3 1.2998 43.3 1.2998 43.4C1.1998 43.5 1.1998 43.7 1.0998 43.8C0.999805 43.9 0.999805 44 0.899805 44.2L0.799805 44.3C0.699805 44.5 0.699805 44.7 0.599805 44.8C0.499805 45.1 0.399805 45.4 0.399805 45.6C0.399805 45.7 0.399805 45.8 0.299805 45.9C0.299805 46.1 0.299805 46.3 0.399805 46.5C0.499805 46.6 0.499805 46.7 0.599805 46.8C0.599805 46.9 0.699805 46.9 0.699805 47C0.799805 47.1 0.799805 47.3 0.899805 47.4C0.999805 47.7 1.0998 48 1.2998 48.2C1.4998 48.5 1.7998 48.8 1.9998 49C2.0998 49.1 2.1998 49.2 2.2998 49.3C2.3998 49.4 2.5998 49.6 2.6998 49.8C2.7998 50 2.9998 50.2 3.0998 50.3L3.1998 50.5C3.1998 50.6 3.2998 50.7 3.3998 50.8V50.9C3.3998 51 3.4998 51.1 3.4998 51.1C3.5998 51.3 3.7998 51.4 3.9998 51.5C4.1998 51.5 4.2998 51.6 4.3998 51.6C4.4998 51.6 4.5998 51.6 4.6998 51.6H4.7998C4.8998 51.6 4.9998 51.6 5.0998 51.6C5.1998 51.6 5.2998 51.6 5.3998 51.6H5.6998C6.0998 51.6 6.5998 51.6 6.9998 51.6C7.1998 51.6 7.3998 51.6 7.5998 51.6H7.6998C7.9998 51.6 8.1998 51.6 8.4998 51.6C8.7998 51.6 9.0998 51.6 9.3998 51.6C9.9998 51.6 10.4998 51.5 11.0998 51.5H11.1998H11.2998C11.5998 51.5 11.7998 51.5 12.0998 51.4H12.1998C12.2998 51.4 12.3998 51.4 12.4998 51.4C12.6998 51.4 12.8998 51.3 13.0998 51.1C13.2998 50.9 13.4998 50.8 13.5998 50.6L13.6998 50.5L13.7998 50.4C13.9998 50.2 14.0998 50.1 14.2998 49.9C14.7998 49.4 15.0998 48.9 15.3998 48.5C15.4998 48.4 15.4998 48.3 15.5998 48.3L15.6998 48.2L15.7998 48.1C15.8998 48 15.9998 47.9 15.9998 47.7C16.0998 47.5 16.0998 47.2 16.0998 46.9V46.8C16.0998 46.6 16.0998 46.4 16.1998 46.3C16.1998 46.2 16.1998 46 16.1998 45.9C16.1998 45.6 16.2998 45.3 16.2998 45C16.2998 44.7 16.3998 44.3 16.3998 44C16.3998 43.8 16.4998 43.6 16.4998 43.4C16.5998 43.5 16.7998 43.5 16.8998 43.6C16.9998 43.6 17.0998 43.7 17.2998 43.8C17.3998 43.9 17.4998 43.9 17.6998 44C17.8998 44.1 18.2998 44.2 18.5998 44.3H18.6998C18.7998 44.3 18.7998 44.3 18.8998 44.4C18.9998 44.4 18.9998 44.4 19.0998 44.4H19.1998C19.1998 44.4 19.2998 44.4 19.2998 44.5C19.3998 44.5 19.3998 44.6 19.4998 44.6C19.5998 44.6 19.6998 44.7 19.7998 44.7C20.0998 44.7 20.2998 44.6 20.3998 44.3C20.4998 44.1 20.4998 43.8 20.4998 43.6V43.5C20.4998 43.1 20.4998 42.8 20.4998 42.4C20.4998 42.3 20.4998 42.2 20.4998 42C20.4998 41.7 20.4998 41.5 20.4998 41.2C20.4998 41 20.4998 40.8 20.4998 40.6C20.4998 40.4 20.4998 40.3 20.4998 40.1C20.4998 39.9 20.4998 39.7 20.4998 39.5V39.4C20.5998 39.4 20.5998 39.5 20.6998 39.5C20.8998 39.6 20.9998 39.7 21.1998 39.8C21.3998 39.9 21.5998 40 21.7998 40.1C21.8998 40.2 21.9998 40.3 22.1998 40.3C22.3998 40.4 22.4998 40.5 22.6998 40.6C22.8998 40.8 23.0998 40.9 23.2998 41C23.4998 41.1 23.6998 41.2 23.7998 41.2C23.8998 41.2 23.9998 41.2 24.0998 41.1C24.1998 41 24.2998 41 24.3998 40.9C24.4998 40.8 24.4998 40.7 24.5998 40.5C24.5998 40.4 24.5998 40.3 24.5998 40.2C24.5998 40 24.5998 39.8 24.5998 39.7C24.5998 39.6 24.5998 39.6 24.5998 39.5C24.5998 39.4 24.5998 39.4 24.5998 39.3C24.5998 39.2 24.5998 39 24.5998 38.9C24.5998 38.8 24.5998 38.6 24.5998 38.5C24.5998 38.2 24.5998 37.9 24.5998 37.7C24.5998 37.5 24.5998 37.2 24.6998 36.9C24.6998 36.8 24.6998 36.8 24.6998 36.7C24.6998 36.6 24.6998 36.5 24.6998 36.4C24.6998 36.4 24.6998 36.4 24.6998 36.3C24.8998 36.3 24.9998 36.3 25.1998 36.2H25.2998C25.4998 36.2 25.7998 36.2 25.9998 36.2C26.1998 36.2 26.4998 36.2 26.6998 36.3C26.7998 36.3 26.7998 36.3 26.8998 36.3C27.0998 36.3 27.1998 36.3 27.3998 36.4C27.4998 36.4 27.6998 36.5 27.7998 36.5C27.8998 36.5 27.9998 36.6 28.1998 36.6C28.4998 36.7 28.6998 36.7 28.9998 36.7H29.0998C29.1998 36.7 29.1998 36.7 29.2998 36.7C29.3998 36.7 29.5998 36.8 29.6998 36.8C29.7998 36.8 29.7998 36.8 29.8998 36.8C29.9998 36.8 30.0998 36.8 30.0998 36.8C30.2998 36.8 30.3998 36.7 30.4998 36.6C30.8998 36.3 31.1998 36 31.5998 35.7C31.7998 35.5 32.0998 35.3 32.2998 35.1C32.5998 34.8 32.8998 34.6 33.1998 34.3C33.3998 34.1 33.6998 33.9 33.8998 33.7L34.0998 33.6C34.1998 33.6 34.1998 33.5 34.2998 33.5C34.3998 33.4 34.3998 33.4 34.4998 33.3C34.5998 33.2 34.6998 33.1 34.8998 33C34.9998 32.9 35.0998 32.8 35.1998 32.7L35.2998 32.6C35.3998 32.5 35.5998 32.4 35.6998 32.3C35.8998 32.4 36.0998 32.4 36.2998 32.4C36.4998 32.4 36.6998 32.4 36.7998 32.4C36.8998 32.4 37.0998 32.4 37.1998 32.4C37.4998 32.4 37.7998 32.4 38.1998 32.4C38.2998 32.4 38.2998 32.4 38.3998 32.4C38.5998 32.4 38.6998 32.4 38.8998 32.4C39.0998 32.4 39.2998 32.4 39.5998 32.4C39.6998 32.4 39.6998 32.4 39.7998 32.4C39.8998 32.4 40.0998 32.4 40.1998 32.4C40.2998 32.4 40.3998 32.4 40.4998 32.4H40.5998C40.7998 32.4 40.9998 32.4 41.0998 32.3H41.2998H41.3998C41.6998 32.3 41.8998 32.2 42.1998 32.2C42.4998 32.2 42.7998 32.1 43.1998 32C43.4998 31.9 43.6998 31.8 43.9998 31.8C44.1998 31.7 44.3998 31.6 44.4998 31.6C44.5998 31.6 44.6998 31.5 44.7998 31.5C44.8998 31.5 44.9998 31.4 45.0998 31.4C45.2998 31.3 45.5998 31.2 45.7998 31.1C45.9998 31 46.0998 30.9 46.2998 30.8C46.3998 30.7 46.4998 30.7 46.4998 30.6C46.6998 30.5 46.8998 30.3 47.0998 30.2C47.2998 30.1 47.3998 30 47.5998 29.8L47.6998 29.7C47.9998 29.5 48.1998 29.3 48.4998 29.1C48.5998 29 48.6998 28.9 48.8998 28.8C49.3998 28.5 49.7998 28.2 50.0998 27.9C50.1998 27.8 50.2998 27.7 50.3998 27.7C50.4998 27.6 50.5998 27.5 50.6998 27.4C50.8998 27.2 51.0998 27 51.2998 26.9L51.3998 26.8H51.2998C52.0998 26 52.7998 25.1 53.3998 24C53.6998 23.5 53.8998 23 54.0998 22.5C54.1998 22.3 54.1998 22.1 54.2998 22C54.2998 21.9 54.3998 21.8 54.3998 21.7C54.4998 21.4 54.5998 21.1 54.6998 20.8C54.7998 20.5 54.7998 20.2 54.8998 20C54.8998 19.8 54.9998 19.6 54.9998 19.4V19.3V19.2C54.9998 19 55.0998 18.7 55.0998 18.5C55.0998 18.1 55.0998 17.8 55.0998 17.5C54.9998 16.7 54.9998 16.1 54.8998 15.6ZM47.1998 13.6C47.1998 13.9 47.0998 14.2 46.9998 14.5C46.8998 14.9 46.7998 15.2 46.5998 15.6C46.3998 15.9 46.1998 16.2 45.9998 16.5C45.7998 16.8 45.5998 17 45.3998 17.2C45.0998 17.5 44.7998 17.8 44.4998 18.1C44.1998 18.3 43.9998 18.6 43.6998 18.7C43.4998 18.8 43.2998 18.9 43.0998 19C42.8998 19.1 42.6998 19.1 42.3998 19.2C42.1998 19.2 41.9998 19.3 41.7998 19.3C41.5998 19.3 41.2998 19.3 41.0998 19.3C40.7998 19.3 40.4998 19.2 40.1998 19.2C40.0998 19.2 39.8998 19.2 39.7998 19.1C39.6998 19.1 39.5998 19.1 39.3998 19C39.0998 18.9 38.8998 18.8 38.5998 18.7C38.3998 18.6 38.1998 18.6 37.9998 18.5C37.7998 18.4 37.5998 18.2 37.2998 18C37.0998 17.9 36.9998 17.7 36.7998 17.6C36.6998 17.5 36.4998 17.3 36.3998 17.2C36.2998 17.1 36.2998 17 36.1998 16.9C35.8998 16.4 35.5998 15.9 35.3998 15.4C35.2998 15.1 35.1998 14.7 35.0998 14.3C35.0998 14 34.9998 13.6 34.9998 13.2C34.9998 12.8 34.9998 12.4 35.0998 11.9C35.1998 11.6 35.2998 11.3 35.3998 11C35.4998 10.8 35.5998 10.6 35.6998 10.3C35.7998 10.1 35.8998 9.9 35.9998 9.7C36.0998 9.4 36.2998 9.2 36.4998 8.9C36.6998 8.7 36.7998 8.5 36.9998 8.3C37.1998 8.1 37.2998 7.9 37.4998 7.7C37.6998 7.5 37.8998 7.4 38.0998 7.3C38.1998 7.3 38.2998 7.2 38.4998 7.2C38.6998 7.1 38.9998 7.1 39.1998 7.2C39.2998 7.2 39.2998 7.3 39.3998 7.3C39.5998 7.2 39.6998 7.2 39.8998 7.1C40.0998 7.1 40.2998 7 40.4998 7C40.6998 7 40.8998 7 41.0998 7C40.9998 7 40.9998 7 40.8998 7C41.0998 7 41.2998 7 41.5998 7.1C41.6998 7.1 41.8998 7.1 41.9998 7.1C42.0998 7.1 42.2998 7.1 42.3998 7.1C42.5998 7.1 42.7998 7.2 42.8998 7.3C43.1998 7.4 43.4998 7.6 43.6998 7.8C43.8998 7.9 44.0998 8.1 44.2998 8.3C44.9998 8.8 45.1998 9 45.3998 9.3C45.5998 9.5 45.7998 9.8 45.9998 10C46.1998 10.2 46.2998 10.4 46.3998 10.6C46.5998 10.9 46.7998 11.2 46.8998 11.5C46.9998 11.8 47.0998 12.1 47.0998 12.5C47.2998 12.9 47.2998 13.3 47.1998 13.6Z" fill="#FFC2EB"/>
<path d="M54.8001 11.9C54.6001 11.1 54.3001 10.3 53.9001 9.59998C52.5001 6.39998 49.9001 3.79998 46.9001 2.09998C45.2001 1.19998 43.4001 0.499976 41.5001 0.299976C41.1001 0.199976 40.7001 0.0999756 40.3001 0.0999756C40.2001 0.0999756 40.1001 0.0999756 40.1001 0.0999756C40.0001 0.0999756 39.9001 0.0999756 39.9001 0.0999756C39.6001 0.0999756 39.3001 0.0999756 39.1001 0.0999756C38.4001 0.0999756 37.7001 0.0999756 37.0001 0.199976C36.1001 0.299976 35.2001 0.499976 34.4001 0.799976C33.5001 1.09998 32.7001 1.39998 31.9001 1.79998C30.5001 2.49998 29.1001 3.39998 28.0001 4.49998C27.0001 5.19998 26.3001 6.09998 25.6001 6.99998C25.5001 7.09998 25.4001 7.19998 25.3001 7.39998C25.2001 7.49998 25.1001 7.59998 25.0001 7.69998C24.9001 7.79998 24.8001 7.99998 24.7001 8.09998C24.6001 8.29998 24.4001 8.39998 24.3001 8.59998C24.2001 8.79998 24.1001 8.89998 24.0001 9.09998C23.8001 9.49998 23.7001 9.79998 23.5001 10.2C23.4001 10.5 23.3001 10.8 23.2001 11.2C23.1001 11.6 23.0001 12 22.9001 12.4C22.8001 12.7 22.8001 13.1 22.7001 13.4C22.5001 14.3 22.4001 15.2 22.4001 16.1C22.3001 17.6 22.5001 19.2 22.9001 20.7C20.4001 23.2 17.8001 25.7 15.3001 28.2C11.1001 32.4 6.7001 36.7 2.4001 41C2.2001 41.2 2.0001 41.4 1.8001 41.6C1.7001 41.7 1.6001 41.8 1.5001 41.8C1.4001 41.9 1.3001 41.9 1.3001 42C1.3001 42 1.3001 42 1.2001 42C1.1001 42.1 1.0001 42.2 1.0001 42.3V42.4C1.0001 42.5 1.0001 42.6 0.900098 42.7C0.900098 42.8 0.900098 42.8 0.900098 42.9C0.900098 43.1 0.800098 43.3 0.800098 43.5C0.800098 43.7 0.800098 43.8 0.800098 44C0.600098 45 0.400098 46.1 0.100098 47.1C0.100098 47.3 0.100098 47.4 0.200098 47.6V47.7C0.200098 47.9 0.300098 48 0.400098 48.1C1.4001 49.4 2.5001 50.7 3.5001 51.9C3.6001 52 3.8001 52.1 3.9001 52.1C3.9001 52.1 3.9001 52.1 4.0001 52.1C4.1001 52.1 4.1001 52.1 4.2001 52.1C5.4001 52.1 6.7001 52.1 7.9001 52.1C8.6001 52.1 9.4001 52.1 10.1001 52.1C10.8001 52.1 11.6001 52.1 12.3001 52.1H12.4001C12.6001 52.2 12.8001 52.1 13.0001 52C14.2001 50.8 15.4001 49.6 16.6001 48.4C16.7001 48.3 16.7001 48.2 16.7001 48.2C16.7001 48.1 16.8001 48 16.8001 47.9C16.8001 47.8 16.8001 47.7 16.8001 47.7C16.8001 47.6 16.8001 47.4 16.7001 47.3C16.7001 47.4 16.7001 47.4 16.7001 47.5C16.7001 47.4 16.7001 47.3 16.7001 47.3C16.7001 47 16.7001 46.8 16.7001 46.5C16.7001 46.3 16.7001 46.2 16.7001 46C16.7001 45.8 16.7001 45.7 16.7001 45.5C16.7001 45.2 16.7001 45 16.7001 44.7C16.8001 44.7 16.9001 44.8 16.9001 44.8C17.2001 44.9 17.4001 45 17.7001 45.1C17.9001 45.1 18.0001 45.2 18.2001 45.2C18.4001 45.2 18.5001 45.3 18.7001 45.3C19.0001 45.4 19.3001 45.4 19.6001 45.5C19.6001 45.5 19.6001 45.5 19.7001 45.5C19.9001 45.5 20.1001 45.5 20.3001 45.6H20.4001H20.5001C20.6001 45.6 20.7001 45.6 20.8001 45.6C20.9001 45.6 21.0001 45.5 21.1001 45.4C21.2001 45.3 21.3001 45.2 21.3001 45C21.3001 44.9 21.3001 44.8 21.3001 44.7C21.3001 44.6 21.3001 44.4 21.3001 44.3C21.3001 44 21.3001 43.7 21.2001 43.5C21.2001 43.2 21.2001 42.9 21.2001 42.6C21.2001 42.3 21.2001 42.1 21.2001 41.8C21.2001 41.5 21.2001 41.2 21.2001 41C21.2001 40.7 21.2001 40.5 21.2001 40.2C21.4001 40.3 21.6001 40.3 21.8001 40.4C22.2001 40.6 22.6001 40.8 23.1001 40.9C23.3001 41 23.5001 41 23.7001 41.1C23.9001 41.2 24.1001 41.2 24.3001 41.2C24.5001 41.2 24.6001 41.3 24.8001 41.3C25.0001 41.3 25.1001 41.4 25.3001 41.3C25.4001 41.3 25.5001 41.2 25.6001 41.1C25.7001 41 25.8001 40.9 25.8001 40.7C25.9001 40.4 25.8001 40.1 25.8001 39.8C25.8001 39.5 25.8001 39.3 25.8001 39C25.8001 38.9 25.8001 38.9 25.8001 38.8C25.8001 38.7 25.8001 38.7 25.8001 38.6C25.8001 38.4 25.9001 38.2 25.9001 38C25.9001 37.8 25.9001 37.6 26.0001 37.4C26.0001 37.2 26.0001 36.9 26.0001 36.7V36.6C26.0001 36.6 26.0001 36.6 26.1001 36.6C26.3001 36.6 26.4001 36.7 26.5001 36.7C26.6001 36.7 26.7001 36.8 26.8001 36.8C27.0001 36.8 27.1001 36.9 27.3001 36.9C27.4001 36.9 27.5001 36.9 27.5001 36.9C27.4001 36.9 27.4001 36.9 27.3001 36.9C27.5001 36.9 27.7001 37 27.9001 37C28.2001 37 28.4001 37.1 28.7001 37.1C29.0001 37.1 29.3001 37.1 29.6001 37C29.5001 37 29.5001 37 29.4001 37C29.8001 37 30.2001 36.9 30.6001 36.9C30.8001 37 31.0001 37 31.2001 36.9C31.3001 36.9 31.4001 36.8 31.5001 36.7C32.9001 35.3 34.4001 33.8 35.8001 32.4C35.8001 32.4 35.9001 32.4 35.9001 32.5C36.2001 32.6 36.5001 32.6 36.8001 32.7H36.9001H37.0001H37.1001C37.2001 32.7 37.2001 32.7 37.3001 32.7C37.5001 32.7 37.6001 32.7 37.8001 32.7C37.9001 32.7 38.0001 32.7 38.2001 32.8C38.3001 32.8 38.4001 32.8 38.5001 32.8C38.6001 32.8 38.8001 32.8 38.9001 32.8C39.0001 32.8 39.2001 32.8 39.3001 32.8C39.6001 32.8 39.9001 32.8 40.1001 32.8C40.7001 32.8 41.2001 32.7 41.8001 32.7C42.1001 32.7 42.4001 32.6 42.7001 32.6C43.0001 32.6 43.3001 32.5 43.6001 32.4C43.8001 32.3 44.1001 32.3 44.3001 32.2C44.5001 32.1 44.8001 32.1 45.0001 32C45.3001 31.9 45.6001 31.7 45.8001 31.6C46.1001 31.5 46.3001 31.4 46.5001 31.3C46.7001 31.2 47.0001 31 47.2001 30.9C47.7001 30.6 48.1001 30.2 48.5001 29.8C49.1001 29.4 49.7001 28.9 50.2001 28.4C51.5001 27.2 52.6001 25.8 53.4001 24.2C54.2001 22.7 54.8001 21.1 55.1001 19.4C55.4001 17.7 55.5001 15.9 55.2001 14.2C55.2001 13.6 55.1001 12.8 54.8001 11.9ZM54.2001 17.7C54.1001 18.1 54.0001 18.6 53.9001 19V19.1C53.8001 19 53.7001 19 53.6001 19C53.1001 18.8 52.6001 18.7 52.0001 18.6H51.9001C51.6001 18.6 51.4001 18.8 51.3001 19.1C51.3001 19.3 51.3001 19.4 51.4001 19.5C51.5001 19.6 51.6001 19.7 51.8001 19.7C52.3001 19.8 52.8001 20 53.4001 20.1C53.5001 20.1 53.5001 20.1 53.6001 20.1V20.2C53.5001 20.7 53.3001 21.1 53.2001 21.6C53.1001 22 52.9001 22.4 52.8001 22.8C52.8001 22.9 52.7001 22.9 52.7001 23C52.6001 23.2 52.5001 23.4 52.4001 23.5C51.6001 23.2 50.8001 22.9 50.0001 22.6C49.9001 22.6 49.8001 22.5 49.7001 22.5C49.6001 22.5 49.6001 22.5 49.5001 22.5C49.4001 22.6 49.2001 22.7 49.2001 22.8C49.1001 23.1 49.2001 23.5 49.5001 23.6C50.2001 23.9 51.0001 24.2 51.8001 24.4C51.7001 24.5 51.6001 24.7 51.5001 24.8C51.2001 25.2 50.8001 25.6 50.5001 26C50.2001 26.4 49.8001 26.9 49.5001 27.3C49.4001 27.4 49.4001 27.4 49.3001 27.5C49.0001 27.3 48.8001 27 48.5001 26.8C48.3001 26.7 48.1001 26.5 48.0001 26.4C47.8001 26.2 47.6001 26.1 47.4001 26C47.3001 25.9 47.2001 25.9 47.0001 25.9C47.0001 25.9 47.0001 25.9 46.9001 25.9C46.7001 25.9 46.6001 26 46.5001 26.1C46.4001 26.2 46.3001 26.4 46.4001 26.5C46.4001 26.6 46.5001 26.8 46.6001 26.9C46.8001 27 47.0001 27.2 47.2001 27.3C47.4001 27.4 47.6001 27.6 47.8001 27.7C48.1001 27.9 48.3001 28.1 48.6001 28.4C48.5001 28.5 48.5001 28.5 48.4001 28.6C48.3001 28.7 48.1001 28.9 48.0001 29C47.5001 29.4 46.9001 29.7 46.4001 30C46.4001 29.9 46.4001 29.8 46.3001 29.7C45.8001 29 45.3001 28.2 44.8001 27.5C44.7001 27.3 44.5001 27.3 44.3001 27.3C44.2001 27.3 44.1001 27.3 44.0001 27.4C43.7001 27.6 43.7001 28 43.9001 28.2C44.4001 28.9 44.9001 29.7 45.4001 30.4C45.4001 30.4 45.4001 30.5 45.5001 30.5C45.4001 30.5 45.4001 30.6 45.3001 30.6C44.4001 31 43.5001 31.2 42.6001 31.4C42.5001 31 42.5001 30.6 42.4001 30.3C42.3001 29.7 42.2001 29.1 42.0001 28.5C41.9001 28.2 41.7001 28.1 41.4001 28.1C41.4001 28.1 41.3001 28.1 41.2001 28.1C40.9001 28.2 40.7001 28.5 40.8001 28.8C41.0001 29.4 41.1001 29.9 41.2001 30.5C41.3001 30.9 41.3001 31.2 41.4001 31.6H41.3001C40.7001 31.7 40.2001 31.7 39.6001 31.7C39.4001 31.7 39.3001 31.7 39.1001 31.7C39.1001 31.3 39.1001 31 39.1001 30.6C39.1001 30.2 39.1001 29.8 39.1001 29.4C39.1001 29.1 38.8001 28.8 38.5001 28.8C38.2001 28.8 37.9001 29.1 37.9001 29.4C37.9001 29.8 37.9001 30.2 37.9001 30.6C37.9001 30.9 37.9001 31.3 37.9001 31.6C37.6001 31.5 37.3001 31.5 36.9001 31.4H36.8001V31.3C36.9001 30.5 36.9001 29.7 36.9001 28.9C36.9001 28.6 36.6001 28.3 36.3001 28.3C36.0001 28.3 35.7001 28.6 35.7001 28.9C35.7001 29.7 35.6001 30.4 35.6001 31.2C35.5001 31.2 35.4001 31.2 35.3001 31.2C35.1001 31.2 35.0001 31.4 34.9001 31.6C34.9001 31.6 34.9001 31.7 34.8001 31.7C34.6001 31.9 34.4001 32.1 34.2001 32.3C34.0001 32.5 33.8001 32.7 33.6001 32.9C33.4001 33.1 33.2001 33.3 33.0001 33.4C32.9001 33.5 32.8001 33.6 32.7001 33.7C32.6001 33.8 32.5001 33.9 32.4001 34C32.3001 34.1 32.1001 34.3 32.0001 34.4C31.9001 34.5 31.8001 34.6 31.7001 34.7C31.6001 34.8 31.5001 34.9 31.4001 34.9C31.2001 35 31.1001 35.2 31.0001 35.4C30.9001 35.5 30.9001 35.6 30.8001 35.7C30.8001 35.7 30.7001 35.7 30.6001 35.7H30.5001C30.4001 35.7 30.3001 35.7 30.2001 35.7C30.1001 35.7 30.0001 35.7 29.9001 35.7C29.8001 35.7 29.7001 35.7 29.6001 35.7H29.5001C29.3001 35.7 29.1001 35.7 29.0001 35.7C28.8001 35.7 28.6001 35.6 28.3001 35.6C28.1001 35.6 27.9001 35.6 27.8001 35.5C27.4001 35.4 27.0001 35.3 26.7001 35.3C26.4001 35.3 26.0001 35.2 25.7001 35.2C25.6001 35.2 25.5001 35.2 25.5001 35.2C25.4001 35.2 25.3001 35.2 25.2001 35.2C25.0001 35.2 24.9001 35.3 24.8001 35.4C24.7001 35.5 24.6001 35.6 24.6001 35.7C24.6001 35.8 24.6001 35.9 24.6001 35.9C24.6001 36.2 24.6001 36.6 24.7001 36.9C24.8001 37.5 24.8001 38 24.8001 38.6C24.8001 38.7 24.8001 38.8 24.8001 38.9C24.8001 39 24.8001 39.1 24.8001 39.2C24.8001 39.4 24.7001 39.6 24.7001 39.8C24.7001 39.9 24.7001 39.9 24.7001 40C24.6001 39.9 24.4001 39.9 24.3001 39.8C24.2001 39.7 24.0001 39.6 23.9001 39.5C23.8001 39.4 23.6001 39.4 23.5001 39.3C23.3001 39.2 23.1001 39.1 23.0001 39.1C22.7001 39 22.4001 38.9 22.1001 38.8C21.8001 38.7 21.5001 38.7 21.3001 38.6C21.2001 38.6 21.1001 38.5 21.0001 38.5C20.8001 38.5 20.6001 38.6 20.5001 38.8C20.5001 38.9 20.4001 39 20.4001 39C20.4001 39.1 20.3001 39.1 20.3001 39.2C20.3001 39.4 20.3001 39.4 20.3001 39.6V39.7C20.3001 39.7 20.3001 39.7 20.3001 39.8C20.3001 39.9 20.3001 40 20.3001 40.1C20.2001 40.6 20.2001 41.2 20.2001 41.7C20.2001 42.2 20.3001 42.8 20.3001 43.3C20.3001 43.5 20.3001 43.6 20.3001 43.8C20.1001 43.8 19.9001 43.8 19.7001 43.7H19.6001C19.3001 43.6 18.9001 43.6 18.6001 43.6C18.5001 43.6 18.5001 43.6 18.4001 43.6C18.3001 43.6 18.2001 43.6 18.0001 43.5C17.9001 43.5 17.7001 43.5 17.6001 43.5C17.5001 43.5 17.5001 43.5 17.4001 43.5C17.3001 43.4 17.1001 43.4 17.0001 43.3C16.9001 43.3 16.8001 43.3 16.8001 43.2H16.7001C16.7001 43.2 16.6001 43.2 16.6001 43.1C16.4001 43.1 16.3001 43.1 16.1001 43.2C16.0001 43.3 15.9001 43.4 15.8001 43.6C15.7001 43.8 15.8001 43.9 15.8001 44.1C15.8001 44.3 15.8001 44.5 15.8001 44.6C15.8001 44.8 15.8001 44.9 15.8001 45.1C15.8001 45.4 15.8001 45.7 15.7001 46C15.7001 46.3 15.6001 46.5 15.6001 46.8C15.6001 46.9 15.6001 47.1 15.5001 47.2C15.5001 47.3 15.5001 47.4 15.4001 47.5C15.4001 47.6 15.3001 47.8 15.3001 47.9C15.2001 48.1 15.1001 48.3 14.9001 48.5C14.7001 48.7 14.5001 48.9 14.2001 49.1C14.0001 49.3 13.8001 49.5 13.5001 49.7C13.3001 49.8 13.1001 50 12.9001 50.2C12.8001 50.3 12.7001 50.4 12.6001 50.5L12.5001 50.6C12.4001 50.6 12.3001 50.6 12.2001 50.6C12.0001 50.6 11.7001 50.6 11.5001 50.6C11.2001 50.6 10.9001 50.6 10.6001 50.6C10.2001 50.6 9.8001 50.6 9.4001 50.7C9.2001 50.7 9.0001 50.7 8.8001 50.7C8.6001 50.7 8.4001 50.7 8.2001 50.7C8.0001 50.7 7.7001 50.7 7.5001 50.7C7.3001 50.7 7.2001 50.7 7.0001 50.7C6.8001 50.7 6.6001 50.7 6.4001 50.7C6.2001 50.7 6.0001 50.7 5.9001 50.7C5.8001 50.7 5.7001 50.7 5.5001 50.7C5.6001 50.7 5.6001 50.7 5.7001 50.7C5.6001 50.7 5.5001 50.7 5.4001 50.7C5.3001 50.7 5.2001 50.7 5.0001 50.7H4.9001H4.8001C4.7001 50.6 4.6001 50.6 4.5001 50.5C4.3001 50.3 4.1001 50.1 4.0001 49.9C3.9001 49.7 3.7001 49.6 3.6001 49.4C3.5001 49.3 3.5001 49.2 3.4001 49C3.3001 48.9 3.3001 48.8 3.2001 48.8C3.1001 48.7 3.1001 48.6 3.0001 48.5C2.9001 48.4 2.9001 48.3 2.8001 48.2C2.0001 48.2 1.9001 48 1.7001 47.8C1.7001 47.8 1.7001 47.8 1.7001 47.7C1.7001 47.6 1.7001 47.5 1.7001 47.4C1.7001 47.2 1.7001 47.1 1.8001 46.9C1.8001 46.7 1.8001 46.5 1.8001 46.3C1.8001 46 1.8001 45.8 1.8001 45.5C1.8001 45.2 1.8001 44.9 1.8001 44.7C1.8001 44.5 1.8001 44.4 1.9001 44.3C2.0001 43.8 2.1001 43.4 2.2001 42.9L2.3001 42.8C2.6001 42.5 2.9001 42.2 3.2001 41.9C3.3001 41.8 3.3001 41.8 3.4001 41.7C3.6001 41.6 3.8001 41.4 3.9001 41.3C4.1001 41.1 4.4001 40.9 4.6001 40.7C5.0001 40.4 5.5001 40 5.9001 39.7C6.1001 39.6 6.3001 39.4 6.4001 39.3C6.6001 39.1 6.8001 39 6.9001 38.8C7.3001 38.5 7.7001 38.1 8.1001 37.8C8.9001 37.1 9.7001 36.4 10.5001 35.6C10.9001 35.2 11.2001 34.8 11.6001 34.4C12.0001 34 12.3001 33.6 12.6001 33.2L12.7001 33.1C12.9001 32.9 13.1001 32.7 13.3001 32.5C13.5001 32.3 13.6001 32.1 13.8001 31.9C14.0001 31.7 14.2001 31.5 14.4001 31.3C14.6001 31 14.9001 30.8 15.1001 30.6C15.2001 30.5 15.3001 30.4 15.4001 30.2C15.6001 30 15.9001 29.7 16.1001 29.5C16.3001 29.3 16.4001 29.1 16.6001 28.9C16.9001 28.6 17.1001 28.4 17.4001 28.1C17.7001 27.8 18.0001 27.5 18.3001 27.1L18.2001 27.2C18.6001 26.8 19.0001 26.4 19.4001 26.1C19.6001 25.9 19.8001 25.7 20.0001 25.5C20.2001 25.3 20.4001 25.2 20.6001 25C20.8001 24.8 21.0001 24.6 21.2001 24.5C21.4001 24.3 21.6001 24.1 21.8001 24C22.1001 23.7 22.5001 23.4 22.8001 23.1C23.3001 22.7 23.7001 22.2 24.1001 21.8C24.2001 21.7 24.4001 21.5 24.5001 21.3C24.6001 21.2 24.7001 21.1 24.7001 21C24.7001 20.8 24.7001 20.8 24.7001 20.7C24.7001 20.7 24.7001 20.7 24.7001 20.6V20.5C24.7001 20.3 24.7001 20.1 24.6001 19.9C24.6001 19.8 24.6001 19.7 24.6001 19.5C24.6001 19.4 24.6001 19.2 24.6001 19.1C24.6001 18.9 24.5001 18.8 24.5001 18.6C24.7001 18.6 24.9001 18.6 25.0001 18.6C25.3001 18.6 25.5001 18.7 25.8001 18.7C26.1001 18.8 26.4001 18.5 26.5001 18.2C26.6001 17.9 26.3001 17.6 26.0001 17.5C25.8001 17.5 25.5001 17.4 25.3001 17.4C25.1001 17.4 24.8001 17.4 24.6001 17.4C24.6001 17.4 24.6001 17.4 24.5001 17.4H24.4001C24.4001 17.2 24.4001 17.1 24.3001 16.9C24.3001 16.7 24.3001 16.5 24.3001 16.2C24.3001 16.1 24.3001 15.9 24.3001 15.8C24.3001 15.7 24.3001 15.6 24.3001 15.5C24.3001 15.3 24.3001 15.2 24.3001 15C24.3001 14.8 24.3001 14.6 24.3001 14.4C24.3001 14.5 24.3001 14.5 24.3001 14.6C24.3001 14.4 24.3001 14.2 24.3001 13.9V14C24.3001 13.9 24.3001 13.8 24.3001 13.7C24.3001 13.8 24.3001 13.8 24.3001 13.9C24.3001 13.8 24.3001 13.7 24.3001 13.6C24.3001 13.7 24.3001 13.7 24.3001 13.8V13.7C24.3001 13.7 24.3001 13.7 24.3001 13.8C24.3001 13.8 24.3001 13.8 24.3001 13.7C24.3001 13.5 24.4001 13.4 24.4001 13.2C24.7001 13.3 25.1001 13.4 25.5001 13.6C26.0001 13.8 26.4001 14 26.9001 14.2C27.2001 14.3 27.6001 14.2 27.7001 13.9C27.8001 13.6 27.7001 13.3 27.4001 13.1C27.2001 13 26.9001 12.9 26.7001 12.8C26.5001 12.7 26.3001 12.6 26.1001 12.5C25.9001 12.4 25.7001 12.4 25.5001 12.3C25.3001 12.2 25.1001 12.2 24.9001 12.1C25.0001 11.7 25.2001 11.2 25.4001 10.8C25.5001 10.7 25.5001 10.6 25.6001 10.4C25.9001 10.6 26.2001 10.8 26.5001 10.9C26.7001 11 26.8001 11.1 27.0001 11.2C27.2001 11.3 27.4001 11.4 27.5001 11.5C27.8001 11.6 28.2001 11.5 28.3001 11.2C28.4001 10.9 28.3001 10.6 28.0001 10.4C27.8001 10.3 27.7001 10.2 27.5001 10.2C27.3001 10.1 27.2001 9.99998 27.0001 9.89997C26.7001 9.69998 26.4001 9.59997 26.1001 9.39997C26.4001 8.89997 26.7001 8.39998 27.1001 7.89998C27.2001 7.79998 27.3001 7.69998 27.4001 7.59998C27.0001 7.19998 27.1001 7.09998 27.3001 6.99998C27.3001 6.99998 27.3001 6.99998 27.4001 6.89998C27.4001 6.89998 27.4001 6.89998 27.5001 6.99998C27.7001 7.19998 28.0001 7.39998 28.2001 7.59998C28.5001 7.79998 28.7001 8.09998 29.0001 8.29998C29.2001 8.49998 29.6001 8.49998 29.8001 8.19998C29.9001 8.09998 30.0001 7.89998 29.9001 7.79998C29.9001 7.59998 29.8001 7.49998 29.7001 7.39998C29.5001 7.19998 29.2001 6.89998 28.9001 6.69998C28.7001 6.49998 28.5001 6.29998 28.2001 6.09998C28.4001 5.89998 28.6001 5.69998 28.9001 5.49998C29.2001 5.29998 29.5001 4.99998 29.8001 4.79998C30.0001 4.59998 30.2001 4.39998 30.5001 4.19998L30.6001 4.09998C30.4001 4.29998 30.3001 4.59998 30.5001 4.89998C30.9001 5.39998 31.3001 5.79998 31.7001 6.19998C31.8001 6.29998 32.0001 6.29998 32.1001 6.29998C32.3001 6.29998 32.4001 6.19998 32.5001 6.09998C32.6001 5.99998 32.7001 5.79998 32.6001 5.69998C32.6001 5.49998 32.5001 5.39998 32.4001 5.29998C32.2001 5.09998 32.0001 4.89998 31.8001 4.69998C31.7001 4.49998 31.5001 4.39998 31.4001 4.19998C31.4001 3.99998 31.2001 3.99998 31.0001 3.99998C30.9001 3.99998 30.8001 3.99998 30.7001 4.09998C30.7001 4.09998 30.8001 4.09998 30.8001 3.99998C30.9001 3.89998 31.1001 3.79998 31.2001 3.69998C31.4001 3.59998 31.6001 3.49998 31.7001 3.29998C32.0001 3.19998 32.1001 2.99998 32.3001 2.89998C32.5001 2.79998 32.6001 2.69998 32.8001 2.59998C32.9001 2.49998 33.1001 2.49998 33.2001 2.39998C33.3001 2.39998 33.3001 2.39998 33.4001 2.29998C33.7001 2.89998 34.1001 3.49998 34.4001 4.09998C34.6001 4.39998 35.0001 4.39998 35.2001 4.19998C35.3001 4.09998 35.4001 3.99998 35.4001 3.79998C35.4001 3.59998 35.4001 3.49998 35.3001 3.39998C35.1001 2.99998 34.8001 2.59998 34.6001 2.29998C34.5001 2.19998 34.5001 1.99998 34.4001 1.89998C34.9001 1.79998 35.4001 1.69998 35.9001 1.59998C36.0001 1.59998 36.0001 1.59998 36.1001 1.59998C36.2001 1.59998 36.3001 1.59998 36.4001 1.59998C36.5001 1.59998 36.6001 1.59998 36.7001 1.59998C36.8001 1.79998 36.8001 1.99998 36.9001 2.19998V2.09998C37.0001 2.29998 37.0001 2.39998 37.0001 2.49998C37.1001 2.79998 37.1001 2.99998 37.2001 3.29998C37.2001 3.49998 37.3001 3.59998 37.4001 3.69998C37.5001 3.79998 37.7001 3.89998 37.8001 3.79998C38.0001 3.79998 38.1001 3.69998 38.2001 3.59998C38.3001 3.49998 38.4001 3.29998 38.3001 3.19998C38.2001 2.79998 38.1001 2.49998 38.1001 2.09998C38.1001 1.89998 38.0001 1.69998 38.0001 1.49998H38.1001C38.6001 1.39998 39.0001 1.39998 39.5001 1.39998C39.7001 1.39998 39.8001 1.39998 40.0001 1.39998C40.4001 1.39998 40.8001 1.49998 41.1001 1.49998C41.2001 1.49998 41.3001 1.49998 41.4001 1.49998C41.3001 1.59998 41.3001 1.79998 41.2001 1.89998C41.0001 1.99998 41.0001 2.09998 41.0001 2.19998C40.9001 2.49998 40.8001 2.69998 40.7001 2.99998C40.6001 3.19998 40.6001 3.29998 40.7001 3.49998C40.8001 3.59998 40.9001 3.79998 41.0001 3.79998C41.1001 3.89998 41.3001 3.89998 41.5001 3.79998C41.6001 3.69998 41.8001 3.59998 41.8001 3.49998C41.9001 3.29998 41.9001 2.99998 42.0001 2.79998C42.1001 2.49998 42.2001 2.29998 42.3001 2.09998C42.4001 1.99998 42.4001 1.89998 42.4001 1.79998C42.7001 1.89998 43.1001 1.99998 43.4001 2.09998C43.6001 2.19998 43.7001 2.29998 43.9001 2.29998C44.1001 2.39998 44.3001 2.49998 44.5001 2.49998C44.9001 2.69998 45.2001 2.89998 45.6001 3.09998C45.5001 3.19998 45.3001 3.29998 45.2001 3.39998C45.1001 3.49998 44.9001 3.69998 44.8001 3.79998C44.7001 3.89998 44.7001 3.89998 44.6001 3.99998C44.5001 4.09998 44.4001 4.09998 44.3001 4.19998C44.0001 4.39998 43.9001 4.79998 44.1001 4.99998C44.3001 5.29998 44.7001 5.29998 44.9001 5.09998C45.1001 4.99998 45.2001 4.89998 45.4001 4.69998C45.6001 4.59998 45.7001 4.39998 45.9001 4.19998C46.0001 4.09998 46.1001 4.09998 46.2001 3.99998C46.3001 3.89998 46.5001 3.79998 46.5001 3.69998C46.5001 3.59998 46.5001 3.59998 46.5001 3.49998C46.7001 3.79998 46.9001 3.89998 47.0001 3.99998C47.2001 4.09998 47.3001 4.19998 47.5001 4.29998C47.7001 4.49998 47.9001 4.59998 48.1001 4.79998C48.3001 4.89998 48.5001 5.09998 48.6001 5.19998C48.8001 5.49998 49.0001 5.69998 49.2001 5.99998C49.3001 6.09998 49.4001 6.29998 49.6001 6.39998C48.9001 6.39998 48.3001 6.69998 47.6001 6.99998C47.5001 7.09998 47.3001 7.19998 47.3001 7.29998C47.2001 7.39998 47.2001 7.59998 47.3001 7.79998C47.3001 7.99998 47.7001 8.09998 48.0001 7.99998C48.2001 7.89998 48.4001 7.79998 48.7001 7.69998C48.9001 7.59998 49.0001 7.59998 49.2001 7.49998C49.4001 7.49998 49.5001 7.39998 49.7001 7.39998C49.8001 7.39998 50.0001 7.29998 50.1001 7.19998C50.2001 7.09998 50.2001 6.99998 50.2001 6.79998C50.3001 6.89998 50.3001 6.89998 50.4001 6.99998C50.6001 7.19998 50.8001 7.39998 51.0001 7.59998C51.2001 7.79998 51.3001 7.89998 51.4001 8.09998C51.7001 8.59998 52.0001 8.99998 52.3001 9.49998C52.4001 9.79998 52.6001 9.99998 52.7001 10.3V10.4C52.0001 10.4 51.3001 10.5 50.5001 10.6C50.4001 10.6 50.2001 10.7 50.1001 10.8C50.0001 10.9 49.9001 11.1 50.0001 11.2C50.0001 11.4 50.1001 11.5 50.2001 11.6C50.3001 11.7 50.5001 11.7 50.6001 11.7C51.3001 11.7 52.1001 11.5 52.8001 11.5C52.9001 11.5 53.0001 11.5 53.1001 11.4C53.3001 11.8 53.4001 12.3 53.6001 12.7C53.7001 13 53.8001 13.4 53.9001 13.7C54.0001 14 54.0001 14.3 54.1001 14.7C54.1001 14.8 54.1001 14.8 54.1001 14.9C53.9001 14.9 53.7001 14.8 53.4001 14.8C53.1001 14.8 52.8001 14.8 52.5001 14.7H52.4001C52.3001 14.7 52.2001 14.7 52.0001 14.8C51.9001 14.9 51.8001 15 51.8001 15.2C51.8001 15.4 51.8001 15.5 51.9001 15.6C52.0001 15.7 52.1001 15.8 52.3001 15.8C52.6001 15.8 52.9001 15.8 53.2001 15.9C53.5001 15.9 53.8001 16 54.1001 16C54.2001 16.8 54.3001 17.2 54.2001 17.7Z" fill="black"/>
<path d="M26.7002 47C26.8002 47.1 26.8002 47.1 26.7002 47V47Z" fill="black"/>
<path d="M38.2 33.1C38.2 33 38.2 33 38.2 33.1C38.1 33.1 38.1 33.1 38 33.1C38.1 33 38.2 33 38.2 33.1Z" fill="black"/>
<path d="M23.9999 21.7L23.8999 21.8C23.9999 21.8 23.9999 21.7 23.9999 21.7Z" fill="black"/>
<path d="M10.6 35.6C10.6 35.6 10.5 35.6 10.6 35.6C10.5 35.7 10.5 35.7 10.5 35.7C10.5 35.6 10.5 35.6 10.6 35.6Z" fill="black"/>
<path d="M47.6 10.5C47.2 9.69998 46.7 8.99998 46.1 8.39998C44.9 7.29998 43.2 6.59998 41.5 6.59998C41.4 6.59998 41.2 6.59998 41.1 6.59998H41C40.9 6.59998 40.7 6.59998 40.6 6.59998C40.3 6.59998 40 6.59998 39.8 6.69998C39.6 6.79998 39.3 6.89998 39.2 6.99998C39.1 6.99998 39.1 7.09998 39 7.19998C38.9 7.19998 38.9 7.29998 38.8 7.29998C38.8 7.29998 38.8 7.29998 38.7 7.29998C38.1 7.59998 37.6 7.89998 37.2 8.29998C37.2 8.29998 37.1 8.29998 37.1 8.39998C37 8.49998 36.9 8.59998 36.8 8.69998C36.3 9.19998 35.9 9.79998 35.6 10.5C35.6 10.6 35.5 10.7 35.5 10.8C35.4 11.1 35.3 11.5 35.2 11.8C35.1 12.2 35 12.6 35 13C35 13.2 35 13.3 35 13.5C35 13.7 35 13.9 35 14.2C35 14.5 35 14.8 35 15C35 15.3 35.1 15.6 35.2 15.8C35.3 16 35.3 16.3 35.4 16.5C35.5 16.8 35.7 17.1 35.9 17.3C36.1 17.5 36.2 17.7 36.4 17.9C36.6 18.1 36.9 18.3 37.2 18.5C37.5 18.6 37.8 18.8 38 18.9H38.1C38.4 19.1 38.6 19.2 38.9 19.3C39.7 19.7 40.6 19.9 41.5 19.9C42 19.9 42.4 19.9 42.9 19.8C43.3 19.7 43.8 19.6 44.2 19.4C44.6 19.2 44.9 19.1 45.3 18.8C45.3 18.8 45.4 18.8 45.4 18.7C45.8 18.4 46.2 18.2 46.5 17.8C47.1 17.2 47.6 16.4 48 15.6C48.4 14.7 48.5 13.8 48.5 12.8C48.5 12.3 48.4 11.9 48.3 11.4C48 11.4 47.8 10.9 47.6 10.5ZM46.6 14.6C46.6 14.8 46.5 15.1 46.5 15.3C46.5 15.5 46.4 15.7 46.3 15.8C46.2 16 46 16.3 45.9 16.5C45.8 16.7 45.6 17 45.5 17.2C45.3 17.5 45.1 17.7 44.8 17.9C44.7 17.9 44.7 18 44.6 18C44.5 18 44.5 18.1 44.4 18.1C44.2 18.2 44.1 18.3 43.9 18.3C43.5 18.4 43.2 18.6 42.8 18.6C42.5 18.6 42.2 18.6 41.8 18.6C41.5 18.6 41.2 18.6 40.9 18.6C40.5 18.5 40.1 18.5 39.7 18.4C39.3 18.3 39 18.2 38.7 18.1C38.6 18.1 38.6 18.1 38.5 18C38.4 17.9 38.2 17.8 38.1 17.7C37.7 17.4 37.4 17.1 37.1 16.7C36.8 16.3 36.6 15.9 36.4 15.5C36.2 15.1 36.1 14.7 36 14.3C36 14.2 36 14.2 36 14.1C36 13.9 36 13.8 36 13.6C36 13.5 36 13.4 36 13.4C36.1 13 36.2 12.7 36.3 12.3C36.4 12 36.5 11.7 36.6 11.4C36.7 11.1 36.9 10.8 37.1 10.5C37.3 10.2 37.5 9.89998 37.7 9.69998C37.9 9.49998 38 9.29998 38.2 9.19998C38.4 8.99998 38.6 8.79998 38.8 8.59998C39 8.59998 39.1 8.49998 39.2 8.39998C39.2 8.39998 39.2 8.39998 39.3 8.39998L39.4 8.29998C39.4 8.29998 39.4 8.29998 39.3 8.39998L39.4 8.29998C39.6 8.19998 39.8 8.09998 40.1 8.09998C40.2 8.09998 40.3 8.09998 40.4 8.09998C40.5 8.09998 40.7 8.09998 40.8 7.99998C40.9 7.99998 41 7.99998 41.1 7.99998C41.2 7.99998 41.3 7.99998 41.3 7.99998C41.4 7.99998 41.5 7.99998 41.7 7.99998C41.8 7.99998 41.9 7.99998 42 7.99998C42.4 8.09998 42.8 8.19998 43.1 8.29998C43.3 8.39998 43.6 8.59998 43.8 8.69998C43.9 8.79998 44 8.79998 44.1 8.89998C44.2 8.99998 44.3 8.99998 44.4 9.09998C44.8 9.49998 45.2 9.89998 45.6 10.3C45.7 10.5 45.9 10.7 46 10.9C46.1 11.1 46.2 11.2 46.3 11.4C46.4 11.6 46.4 11.8 46.5 12C46.6 12.2 46.6 12.4 46.6 12.6C46.7 13.3 46.7 14 46.6 14.6Z" fill="black"/>
<path d="M27.3999 27.2C27.3999 27 27.3999 26.8 27.3999 26.7C27.3999 26.3 27.3999 26 27.3999 25.6C27.3999 25.3 27.1999 25 26.7999 25C26.4999 25 26.1999 25.2 26.1999 25.6C26.1999 25.9 26.1999 26.3 26.1999 26.6C26.1999 27 26.1999 27.4 26.1999 27.7C25.8999 27.9 25.6999 28.2 25.3999 28.4C25.3999 28.2 25.3999 28.1 25.3999 27.9C25.3999 27.6 25.3999 27.2 25.3999 26.9C25.3999 26.6 25.3999 26.3 25.3999 26C25.3999 25.7 25.4999 25.3 25.4999 25C25.4999 24.7 25.2999 24.4 24.8999 24.4C24.7999 24.4 24.6999 24.4 24.5999 24.5C24.4999 24.5 24.3999 24.6 24.2999 24.6C21.0999 27.6 17.7999 30.6 14.5999 33.6C11.1999 36.8 7.69993 40 4.29993 43.2C3.99993 43.4 3.99993 43.8 4.19993 44C4.39993 44.2 4.79993 44.3 4.99993 44C5.19993 43.8 5.39993 43.6 5.69993 43.4C5.69993 43.7 5.69993 44 5.69993 44.2C5.69993 44.3 5.69993 44.4 5.69993 44.5C5.69993 44.7 5.69993 45 5.79993 45.2C5.79993 45.3 5.89993 45.5 5.89993 45.6C5.89993 45.7 5.89993 45.8 5.99993 45.9C5.99993 46 5.99993 46 5.99993 46C5.99993 46 5.99993 46.1 6.09993 46.2C5.89993 46.4 5.89993 46.7 6.09993 46.9C6.29993 47.1 6.69993 47.2 6.89993 46.9C11.9999 42.4 17.0999 37.7 22.0999 33C23.8999 31.3 25.6999 29.7 27.4999 28C27.6999 27.8 27.7999 27.4 27.4999 27.2H27.3999ZM7.29993 45.1C7.29993 44.9 7.19993 44.6 7.19993 44.4C7.19993 44.4 7.19993 44.4 7.19993 44.3C7.19993 44 7.19993 43.6 7.29993 43.3C7.29993 43.1 7.29993 42.9 7.39993 42.7C7.39993 42.6 7.39993 42.6 7.39993 42.5C7.39993 42.5 7.39993 42.6 7.39993 42.7C7.39993 42.6 7.39993 42.5 7.39993 42.4C7.39993 42.3 7.39993 42.3 7.39993 42.3V42.2C7.39993 42.2 7.39993 42.1 7.49993 42.1C7.49993 42.1 7.49993 42 7.59993 42L7.69993 41.9L7.79993 41.8C7.89993 41.7 7.99994 41.7 8.09994 41.6C8.09994 41.8 8.09994 42 8.09994 42.2C8.09994 42.7 8.19993 43.1 8.29993 43.6C8.29993 43.8 8.29993 43.9 8.49993 44C8.09993 44.4 7.69993 44.8 7.29993 45.1ZM9.79993 42.8C9.69993 42.5 9.69993 42.2 9.69993 41.9C9.69993 41.7 9.69993 41.4 9.69993 41.2C9.69993 41 9.69993 40.8 9.69993 40.7C9.69993 40.6 9.79993 40.4 9.79993 40.3C9.79993 40.2 9.89993 40.1 9.89993 40C9.99993 39.9 9.99994 39.8 10.0999 39.7C10.0999 39.7 10.0999 39.6 10.1999 39.6C10.1999 39.8 10.1999 39.9 10.1999 40.1C10.1999 40.4 10.1999 40.6 10.1999 40.9C10.1999 41.2 10.2999 41.6 10.2999 41.9C10.2999 42 10.3999 42.1 10.4999 42.2C10.2999 42.4 10.0999 42.6 9.79993 42.8ZM11.7999 41C11.7999 40.7 11.7999 40.5 11.7999 40.2C11.7999 40 11.7999 39.7 11.7999 39.5C11.7999 39.4 11.7999 39.3 11.8999 39.1C11.8999 39 11.8999 38.9 11.8999 38.8C11.8999 38.6 11.8999 38.4 11.9999 38.3C11.9999 38.1 12.0999 37.9 12.0999 37.8C12.0999 37.8 12.0999 37.7 12.1999 37.7C12.1999 37.9 12.2999 38.2 12.2999 38.4C12.3999 38.9 12.4999 39.3 12.4999 39.8C12.4999 39.8 12.4999 39.8 12.4999 39.9C12.4999 40 12.4999 40.2 12.5999 40.3C12.2999 40.5 12.0999 40.8 11.7999 41ZM14.0999 38.9C14.0999 38.8 14.0999 38.8 14.0999 38.9C14.0999 38.6 13.9999 38.4 13.9999 38.2C13.9999 37.7 13.9999 37.3 14.0999 36.8C14.0999 36.6 14.1999 36.4 14.1999 36.2V36.1C14.1999 36.3 14.1999 36.5 14.1999 36.7C14.1999 37 14.1999 37.3 14.2999 37.6C14.2999 37.9 14.3999 38.2 14.3999 38.5C14.3999 38.5 14.3999 38.5 14.3999 38.6C14.3999 38.6 14.1999 38.8 14.0999 38.9ZM15.8999 37.2C15.8999 37.2 15.7999 37.3 15.8999 37.2C15.7999 37.1 15.6999 36.8 15.6999 36.6C15.6999 36.3 15.6999 36.1 15.6999 35.8C15.6999 35.6 15.6999 35.4 15.7999 35.2C15.7999 35 15.8999 34.8 15.9999 34.6C15.9999 34.5 16.0999 34.3 16.1999 34.2L16.2999 34.1V34.2C16.2999 34.5 16.3999 34.9 16.3999 35.2C16.3999 35.5 16.4999 35.8 16.4999 36C16.4999 36.3 16.5999 36.5 16.5999 36.8C16.2999 36.8 16.0999 37 15.8999 37.2ZM17.8999 35.3C17.8999 35.2 17.7999 35 17.7999 34.9C17.6999 34.6 17.6999 34.4 17.5999 34.1C17.5999 33.8 17.5999 33.4 17.6999 33.1C17.7999 32.8 17.7999 32.6 17.8999 32.3C17.8999 32.2 17.9999 32.2 17.9999 32.1L18.0999 32C18.0999 32.1 18.0999 32.2 18.0999 32.4C18.0999 32.7 18.0999 33 18.1999 33.3C18.1999 33.4 18.1999 33.6 18.1999 33.7C18.1999 33.8 18.1999 33.9 18.1999 34C18.1999 33.9 18.1999 33.9 18.1999 33.8C18.1999 34.1 18.2999 34.4 18.2999 34.7C18.2999 34.8 18.2999 34.8 18.3999 34.9C18.2999 35 18.0999 35.2 17.8999 35.3ZM19.9999 33.4C19.9999 33.3 19.9999 33.2 19.8999 33C19.8999 32.8 19.7999 32.6 19.7999 32.4C19.7999 32.3 19.6999 32.1 19.6999 32C19.6999 31.7 19.6999 31.4 19.6999 31.1C19.6999 31 19.7999 30.8 19.7999 30.7C19.7999 30.6 19.8999 30.5 19.8999 30.4C19.8999 30.3 19.9999 30.3 19.9999 30.2C19.9999 30.4 19.9999 30.7 19.9999 30.9C19.9999 31.2 19.9999 31.4 20.0999 31.7V31.8C20.0999 31.8 20.0999 31.8 20.0999 31.9C20.0999 32 20.0999 32.1 20.0999 32.2V32.3C20.0999 32.4 20.0999 32.5 20.0999 32.6C20.0999 32.7 20.0999 32.8 20.0999 32.9C20.0999 32.9 20.0999 32.9 20.0999 33V33.1C20.1999 33.2 20.0999 33.3 19.9999 33.4ZM21.7999 31.7C21.7999 31.6 21.7999 31.5 21.6999 31.5C21.5999 31.3 21.5999 31 21.5999 30.8C21.5999 30.6 21.5999 30.4 21.5999 30.1C21.5999 29.9 21.5999 29.7 21.6999 29.5C21.6999 29.3 21.7999 29.1 21.8999 28.9C21.8999 28.9 21.8999 29 21.7999 29C21.7999 28.9 21.8999 28.8 21.8999 28.7C21.9999 28.6 21.9999 28.5 22.0999 28.3C22.0999 28.6 22.0999 29 22.1999 29.3C22.1999 29.4 22.1999 29.6 22.1999 29.7C22.1999 29.9 22.1999 30.1 22.1999 30.3C22.1999 30.5 22.1999 30.6 22.1999 30.8C22.1999 30.9 22.1999 31 22.1999 31.1V31.2C22.1999 31.4 21.9999 31.5 21.7999 31.7ZM23.7999 29.8C23.7999 29.7 23.6999 29.6 23.6999 29.5C23.5999 29.2 23.5999 28.9 23.5999 28.5C23.5999 28.3 23.5999 28.1 23.5999 27.9C23.5999 27.7 23.6999 27.6 23.7999 27.4C23.8999 27.2 23.8999 27.1 23.9999 26.9C24.0999 26.8 24.0999 26.6 24.1999 26.5C24.1999 26.5 24.1999 26.4 24.2999 26.4C24.2999 26.6 24.2999 26.7 24.2999 26.9C24.2999 27.6 24.2999 28.3 24.3999 29C24.3999 29.1 24.4999 29.2 24.4999 29.3C24.1999 29.5 23.9999 29.7 23.7999 29.8Z" fill="black"/>
</g>
<defs>
<clipPath id="clip0">
<rect width="55.5" height="52.3" fill="white"/>
</clipPath>
</defs>
</svg>
