<svg width="565" height="48" viewBox="0 0 565 48" fill="none" xmlns="http://www.w3.org/2000/svg">
<rect width="565" height="48" fill="#C4C4C4"/>
<path d="M211.383 24V15.4688H214.371C215.406 15.4688 216.191 15.668 216.727 16.0664C217.262 16.4609 217.529 17.041 217.529 17.8066C217.529 18.2246 217.422 18.5938 217.207 18.9141C216.992 19.2305 216.693 19.4629 216.311 19.6113C216.748 19.7207 217.092 19.9414 217.342 20.2734C217.596 20.6055 217.723 21.0117 217.723 21.4922C217.723 22.3125 217.461 22.9336 216.938 23.3555C216.414 23.7773 215.668 23.9922 214.699 24H211.383ZM213.141 20.2852V22.5879H214.646C215.061 22.5879 215.383 22.4902 215.613 22.2949C215.848 22.0957 215.965 21.8223 215.965 21.4746C215.965 20.6934 215.561 20.2969 214.752 20.2852H213.141ZM213.141 19.043H214.441C215.328 19.0273 215.771 18.6738 215.771 17.9824C215.771 17.5957 215.658 17.3184 215.432 17.1504C215.209 16.9785 214.855 16.8926 214.371 16.8926H213.141V19.043ZM220.723 24H219.023V15H220.723V24ZM221.859 20.7715C221.859 20.1426 221.98 19.582 222.223 19.0898C222.465 18.5977 222.812 18.2168 223.266 17.9473C223.723 17.6777 224.252 17.543 224.854 17.543C225.709 17.543 226.406 17.8047 226.945 18.3281C227.488 18.8516 227.791 19.5625 227.854 20.4609L227.865 20.8945C227.865 21.8672 227.594 22.6484 227.051 23.2383C226.508 23.8242 225.779 24.1172 224.865 24.1172C223.951 24.1172 223.221 23.8242 222.674 23.2383C222.131 22.6523 221.859 21.8555 221.859 20.8477V20.7715ZM223.553 20.8945C223.553 21.4961 223.666 21.957 223.893 22.2773C224.119 22.5938 224.443 22.752 224.865 22.752C225.275 22.752 225.596 22.5957 225.826 22.2832C226.057 21.9668 226.172 21.4629 226.172 20.7715C226.172 20.1816 226.057 19.7246 225.826 19.4004C225.596 19.0762 225.271 18.9141 224.854 18.9141C224.439 18.9141 224.119 19.0762 223.893 19.4004C223.666 19.7207 223.553 20.2188 223.553 20.8945ZM231.545 22.752C231.857 22.752 232.111 22.666 232.307 22.4941C232.502 22.3223 232.604 22.0938 232.611 21.8086H234.199C234.195 22.2383 234.078 22.6328 233.848 22.9922C233.617 23.3477 233.301 23.625 232.898 23.8242C232.5 24.0195 232.059 24.1172 231.574 24.1172C230.668 24.1172 229.953 23.8301 229.43 23.2559C228.906 22.6777 228.645 21.8809 228.645 20.8652V20.7539C228.645 19.7773 228.904 18.998 229.424 18.416C229.943 17.834 230.656 17.543 231.562 17.543C232.355 17.543 232.99 17.7695 233.467 18.2227C233.947 18.6719 234.191 19.2715 234.199 20.0215H232.611C232.604 19.6934 232.502 19.4277 232.307 19.2246C232.111 19.0176 231.854 18.9141 231.533 18.9141C231.139 18.9141 230.84 19.0586 230.637 19.3477C230.438 19.6328 230.338 20.0977 230.338 20.7422V20.918C230.338 21.5703 230.438 22.0391 230.637 22.3242C230.836 22.6094 231.139 22.752 231.545 22.752ZM237.469 21.457L236.859 22.0664V24H235.166V15H236.859V19.9863L237.188 19.5645L238.811 17.6602H240.844L238.553 20.3027L241.043 24H239.098L237.469 21.457ZM244.096 22.752C244.408 22.752 244.662 22.666 244.857 22.4941C245.053 22.3223 245.154 22.0938 245.162 21.8086H246.75C246.746 22.2383 246.629 22.6328 246.398 22.9922C246.168 23.3477 245.852 23.625 245.449 23.8242C245.051 24.0195 244.609 24.1172 244.125 24.1172C243.219 24.1172 242.504 23.8301 241.98 23.2559C241.457 22.6777 241.195 21.8809 241.195 20.8652V20.7539C241.195 19.7773 241.455 18.998 241.975 18.416C242.494 17.834 243.207 17.543 244.113 17.543C244.906 17.543 245.541 17.7695 246.018 18.2227C246.498 18.6719 246.742 19.2715 246.75 20.0215H245.162C245.154 19.6934 245.053 19.4277 244.857 19.2246C244.662 19.0176 244.404 18.9141 244.084 18.9141C243.689 18.9141 243.391 19.0586 243.188 19.3477C242.988 19.6328 242.889 20.0977 242.889 20.7422V20.918C242.889 21.5703 242.988 22.0391 243.188 22.3242C243.387 22.6094 243.689 22.752 244.096 22.752ZM249.369 18.3516C249.818 17.8125 250.383 17.543 251.062 17.543C252.438 17.543 253.135 18.3418 253.154 19.9395V24H251.461V19.9863C251.461 19.623 251.383 19.3555 251.227 19.1836C251.07 19.0078 250.811 18.9199 250.447 18.9199C249.951 18.9199 249.592 19.1113 249.369 19.4941V24H247.676V15H249.369V18.3516ZM258.105 24C258.027 23.8477 257.971 23.6582 257.936 23.4316C257.525 23.8887 256.992 24.1172 256.336 24.1172C255.715 24.1172 255.199 23.9375 254.789 23.5781C254.383 23.2188 254.18 22.7656 254.18 22.2188C254.18 21.5469 254.428 21.0312 254.924 20.6719C255.424 20.3125 256.145 20.1309 257.086 20.127H257.865V19.7637C257.865 19.4707 257.789 19.2363 257.637 19.0605C257.488 18.8848 257.252 18.7969 256.928 18.7969C256.643 18.7969 256.418 18.8652 256.254 19.002C256.094 19.1387 256.014 19.3262 256.014 19.5645H254.32C254.32 19.1973 254.434 18.8574 254.66 18.5449C254.887 18.2324 255.207 17.9883 255.621 17.8125C256.035 17.6328 256.5 17.543 257.016 17.543C257.797 17.543 258.416 17.7402 258.873 18.1348C259.334 18.5254 259.564 19.0762 259.564 19.7871V22.5352C259.568 23.1367 259.652 23.5918 259.816 23.9004V24H258.105ZM256.705 22.8223C256.955 22.8223 257.186 22.7676 257.396 22.6582C257.607 22.5449 257.764 22.3945 257.865 22.207V21.1172H257.232C256.385 21.1172 255.934 21.4102 255.879 21.9961L255.873 22.0957C255.873 22.3066 255.947 22.4805 256.096 22.6172C256.244 22.7539 256.447 22.8223 256.705 22.8223ZM262.652 24H260.953V17.6602H262.652V24ZM260.854 16.0195C260.854 15.7656 260.938 15.5566 261.105 15.3926C261.277 15.2285 261.51 15.1465 261.803 15.1465C262.092 15.1465 262.322 15.2285 262.494 15.3926C262.666 15.5566 262.752 15.7656 262.752 16.0195C262.752 16.2773 262.664 16.4883 262.488 16.6523C262.316 16.8164 262.088 16.8984 261.803 16.8984C261.518 16.8984 261.287 16.8164 261.111 16.6523C260.939 16.4883 260.854 16.2773 260.854 16.0195ZM265.611 17.6602L265.664 18.3926C266.117 17.8262 266.725 17.543 267.486 17.543C268.158 17.543 268.658 17.7402 268.986 18.1348C269.314 18.5293 269.482 19.1191 269.49 19.9043V24H267.797V19.9453C267.797 19.5859 267.719 19.3262 267.562 19.166C267.406 19.002 267.146 18.9199 266.783 18.9199C266.307 18.9199 265.949 19.123 265.711 19.5293V24H264.018V17.6602H265.611ZM276.404 22.752C276.717 22.752 276.971 22.666 277.166 22.4941C277.361 22.3223 277.463 22.0938 277.471 21.8086H279.059C279.055 22.2383 278.938 22.6328 278.707 22.9922C278.477 23.3477 278.16 23.625 277.758 23.8242C277.359 24.0195 276.918 24.1172 276.434 24.1172C275.527 24.1172 274.812 23.8301 274.289 23.2559C273.766 22.6777 273.504 21.8809 273.504 20.8652V20.7539C273.504 19.7773 273.764 18.998 274.283 18.416C274.803 17.834 275.516 17.543 276.422 17.543C277.215 17.543 277.85 17.7695 278.326 18.2227C278.807 18.6719 279.051 19.2715 279.059 20.0215H277.471C277.463 19.6934 277.361 19.4277 277.166 19.2246C276.971 19.0176 276.713 18.9141 276.393 18.9141C275.998 18.9141 275.699 19.0586 275.496 19.3477C275.297 19.6328 275.197 20.0977 275.197 20.7422V20.918C275.197 21.5703 275.297 22.0391 275.496 22.3242C275.695 22.6094 275.998 22.752 276.404 22.752ZM279.762 20.7715C279.762 20.1426 279.883 19.582 280.125 19.0898C280.367 18.5977 280.715 18.2168 281.168 17.9473C281.625 17.6777 282.154 17.543 282.756 17.543C283.611 17.543 284.309 17.8047 284.848 18.3281C285.391 18.8516 285.693 19.5625 285.756 20.4609L285.768 20.8945C285.768 21.8672 285.496 22.6484 284.953 23.2383C284.41 23.8242 283.682 24.1172 282.768 24.1172C281.854 24.1172 281.123 23.8242 280.576 23.2383C280.033 22.6523 279.762 21.8555 279.762 20.8477V20.7715ZM281.455 20.8945C281.455 21.4961 281.568 21.957 281.795 22.2773C282.021 22.5938 282.346 22.752 282.768 22.752C283.178 22.752 283.498 22.5957 283.729 22.2832C283.959 21.9668 284.074 21.4629 284.074 20.7715C284.074 20.1816 283.959 19.7246 283.729 19.4004C283.498 19.0762 283.174 18.9141 282.756 18.9141C282.342 18.9141 282.021 19.0762 281.795 19.4004C281.568 19.7207 281.455 20.2188 281.455 20.8945ZM292.518 20.8887C292.518 21.8652 292.295 22.6484 291.85 23.2383C291.408 23.8242 290.811 24.1172 290.057 24.1172C289.416 24.1172 288.898 23.8945 288.504 23.4492V26.4375H286.811V17.6602H288.381L288.439 18.2812C288.85 17.7891 289.385 17.543 290.045 17.543C290.826 17.543 291.434 17.832 291.867 18.4102C292.301 18.9883 292.518 19.7852 292.518 20.8008V20.8887ZM290.824 20.7656C290.824 20.1758 290.719 19.7207 290.508 19.4004C290.301 19.0801 289.998 18.9199 289.6 18.9199C289.068 18.9199 288.703 19.123 288.504 19.5293V22.125C288.711 22.543 289.08 22.752 289.611 22.752C290.42 22.752 290.824 22.0898 290.824 20.7656ZM295.869 21.6035L297.041 17.6602H298.857L296.309 24.9844L296.168 25.3184C295.789 26.1465 295.164 26.5605 294.293 26.5605C294.047 26.5605 293.797 26.5234 293.543 26.4492V25.166L293.801 25.1719C294.121 25.1719 294.359 25.123 294.516 25.0254C294.676 24.9277 294.801 24.7656 294.891 24.5391L295.09 24.0176L292.869 17.6602H294.691L295.869 21.6035ZM302.59 20.5312C302.59 19.6367 302.709 18.7852 302.947 17.9766C303.186 17.168 303.537 16.4531 304.002 15.832C304.467 15.207 304.971 14.7734 305.514 14.5312L305.842 15.4453C305.271 15.8672 304.826 16.5195 304.506 17.4023C304.186 18.2852 304.025 19.3164 304.025 20.4961V20.6777C304.025 21.8613 304.184 22.8965 304.5 23.7832C304.816 24.6699 305.264 25.332 305.842 25.7695L305.514 26.666C304.982 26.4277 304.486 26.0059 304.025 25.4004C303.568 24.7988 303.219 24.1035 302.977 23.3145C302.734 22.5254 302.605 21.7012 302.59 20.8418V20.5312ZM312.51 24H306.662V22.8398L309.422 19.8984C309.801 19.4844 310.08 19.123 310.26 18.8145C310.443 18.5059 310.535 18.2129 310.535 17.9355C310.535 17.5566 310.439 17.2598 310.248 17.0449C310.057 16.8262 309.783 16.7168 309.428 16.7168C309.045 16.7168 308.742 16.8496 308.52 17.1152C308.301 17.377 308.191 17.7227 308.191 18.1523H306.492C306.492 17.6328 306.615 17.1582 306.861 16.7285C307.111 16.2988 307.463 15.9629 307.916 15.7207C308.369 15.4746 308.883 15.3516 309.457 15.3516C310.336 15.3516 311.018 15.5625 311.502 15.9844C311.99 16.4062 312.234 17.002 312.234 17.7715C312.234 18.1934 312.125 18.623 311.906 19.0605C311.688 19.498 311.312 20.0078 310.781 20.5898L308.842 22.6348H312.51V24ZM319.113 17.7363C319.113 18.1504 319.01 18.5176 318.803 18.8379C318.596 19.1582 318.311 19.4141 317.947 19.6055C318.361 19.8047 318.689 20.0801 318.932 20.4316C319.174 20.7793 319.295 21.1895 319.295 21.6621C319.295 22.4199 319.037 23.0195 318.521 23.4609C318.006 23.8984 317.305 24.1172 316.418 24.1172C315.531 24.1172 314.828 23.8965 314.309 23.4551C313.789 23.0137 313.529 22.416 313.529 21.6621C313.529 21.1895 313.65 20.7773 313.893 20.4258C314.135 20.0742 314.461 19.8008 314.871 19.6055C314.508 19.4141 314.223 19.1582 314.016 18.8379C313.812 18.5176 313.711 18.1504 313.711 17.7363C313.711 17.0098 313.953 16.4316 314.438 16.002C314.922 15.5684 315.58 15.3516 316.412 15.3516C317.24 15.3516 317.896 15.5664 318.381 15.9961C318.869 16.4219 319.113 17.002 319.113 17.7363ZM317.596 21.5391C317.596 21.168 317.488 20.8711 317.273 20.6484C317.059 20.4258 316.77 20.3145 316.406 20.3145C316.047 20.3145 315.76 20.4258 315.545 20.6484C315.33 20.8672 315.223 21.1641 315.223 21.5391C315.223 21.9023 315.328 22.1953 315.539 22.418C315.75 22.6406 316.043 22.752 316.418 22.752C316.785 22.752 317.072 22.6445 317.279 22.4297C317.49 22.2148 317.596 21.918 317.596 21.5391ZM317.42 17.8184C317.42 17.4863 317.332 17.2207 317.156 17.0215C316.98 16.8184 316.732 16.7168 316.412 16.7168C316.096 16.7168 315.85 16.8145 315.674 17.0098C315.498 17.2051 315.41 17.4746 315.41 17.8184C315.41 18.1582 315.498 18.4316 315.674 18.6387C315.85 18.8457 316.098 18.9492 316.418 18.9492C316.738 18.9492 316.984 18.8457 317.156 18.6387C317.332 18.4316 317.42 18.1582 317.42 17.8184ZM320.695 19.8047L321.188 15.4688H325.969V16.8809H322.576L322.365 18.7148C322.768 18.5 323.195 18.3926 323.648 18.3926C324.461 18.3926 325.098 18.6445 325.559 19.1484C326.02 19.6523 326.25 20.3574 326.25 21.2637C326.25 21.8145 326.133 22.3086 325.898 22.7461C325.668 23.1797 325.336 23.5176 324.902 23.7598C324.469 23.998 323.957 24.1172 323.367 24.1172C322.852 24.1172 322.373 24.0137 321.932 23.8066C321.49 23.5957 321.141 23.3008 320.883 22.9219C320.629 22.543 320.494 22.1113 320.479 21.627H322.154C322.189 21.9824 322.312 22.2598 322.523 22.459C322.738 22.6543 323.018 22.752 323.361 22.752C323.744 22.752 324.039 22.6152 324.246 22.3418C324.453 22.0645 324.557 21.6738 324.557 21.1699C324.557 20.6855 324.438 20.3145 324.199 20.0566C323.961 19.7988 323.623 19.6699 323.186 19.6699C322.783 19.6699 322.457 19.7754 322.207 19.9863L322.043 20.1387L320.695 19.8047ZM330.82 19.2246H332.936V20.7539H330.82V23.1445H329.209V20.7539H327.088V19.2246H329.209V16.9336H330.82V19.2246ZM340.816 22.9219C340.5 23.3008 340.053 23.5957 339.475 23.8066C338.896 24.0137 338.256 24.1172 337.553 24.1172C336.814 24.1172 336.166 23.957 335.607 23.6367C335.053 23.3125 334.623 22.8438 334.318 22.2305C334.018 21.6172 333.863 20.8965 333.855 20.0684V19.4883C333.855 18.6367 333.998 17.9004 334.283 17.2793C334.572 16.6543 334.986 16.1777 335.525 15.8496C336.068 15.5176 336.703 15.3516 337.43 15.3516C338.441 15.3516 339.232 15.5938 339.803 16.0781C340.373 16.5586 340.711 17.2598 340.816 18.1816H339.105C339.027 17.6934 338.854 17.3359 338.584 17.1094C338.318 16.8828 337.951 16.7695 337.482 16.7695C336.885 16.7695 336.43 16.9941 336.117 17.4434C335.805 17.8926 335.646 18.5605 335.643 19.4473V19.9922C335.643 20.8867 335.812 21.5625 336.152 22.0195C336.492 22.4766 336.99 22.7051 337.646 22.7051C338.307 22.7051 338.777 22.5645 339.059 22.2832V20.8125H337.459V19.5176H340.816V22.9219ZM342.246 24V15.4688H345.234C346.27 15.4688 347.055 15.668 347.59 16.0664C348.125 16.4609 348.393 17.041 348.393 17.8066C348.393 18.2246 348.285 18.5938 348.07 18.9141C347.855 19.2305 347.557 19.4629 347.174 19.6113C347.611 19.7207 347.955 19.9414 348.205 20.2734C348.459 20.6055 348.586 21.0117 348.586 21.4922C348.586 22.3125 348.324 22.9336 347.801 23.3555C347.277 23.7773 346.531 23.9922 345.562 24H342.246ZM344.004 20.2852V22.5879H345.51C345.924 22.5879 346.246 22.4902 346.477 22.2949C346.711 22.0957 346.828 21.8223 346.828 21.4746C346.828 20.6934 346.424 20.2969 345.615 20.2852H344.004ZM344.004 19.043H345.305C346.191 19.0273 346.635 18.6738 346.635 17.9824C346.635 17.5957 346.521 17.3184 346.295 17.1504C346.072 16.9785 345.719 16.8926 345.234 16.8926H344.004V19.043ZM352.717 20.666C352.717 21.5488 352.59 22.3984 352.336 23.2148C352.082 24.0312 351.717 24.752 351.24 25.377C350.764 26.002 350.254 26.4316 349.711 26.666L349.383 25.7695C349.938 25.3516 350.375 24.707 350.695 23.8359C351.016 22.9648 351.182 21.9629 351.193 20.8301V20.5195C351.193 19.3516 351.033 18.3223 350.713 17.4316C350.396 16.541 349.953 15.873 349.383 15.4277L349.711 14.5312C350.242 14.7617 350.742 15.1797 351.211 15.7852C351.684 16.3906 352.049 17.0957 352.307 17.9004C352.568 18.7051 352.705 19.5391 352.717 20.4023V20.666ZM144.797 27.7188L142.441 33H141.684L144.031 27.9062H140.953V27.3125H144.797V27.7188ZM149.066 28.7969C149.066 29.0807 148.991 29.3333 148.84 29.5547C148.691 29.776 148.49 29.9492 148.234 30.0742C148.531 30.2018 148.766 30.388 148.938 30.6328C149.112 30.8776 149.199 31.1549 149.199 31.4648C149.199 31.957 149.033 32.349 148.699 32.6406C148.368 32.9323 147.932 33.0781 147.391 33.0781C146.844 33.0781 146.405 32.9323 146.074 32.6406C145.746 32.3464 145.582 31.9544 145.582 31.4648C145.582 31.1576 145.665 30.8802 145.832 30.6328C146.001 30.3854 146.234 30.1979 146.531 30.0703C146.279 29.9453 146.079 29.7721 145.934 29.5508C145.788 29.3294 145.715 29.0781 145.715 28.7969C145.715 28.3177 145.868 27.9375 146.176 27.6562C146.483 27.375 146.888 27.2344 147.391 27.2344C147.891 27.2344 148.294 27.375 148.602 27.6562C148.911 27.9375 149.066 28.3177 149.066 28.7969ZM148.477 31.4492C148.477 31.1315 148.375 30.8724 148.172 30.6719C147.971 30.4714 147.708 30.3711 147.383 30.3711C147.057 30.3711 146.796 30.4701 146.598 30.668C146.402 30.8659 146.305 31.1263 146.305 31.4492C146.305 31.7721 146.4 32.026 146.59 32.2109C146.783 32.3958 147.049 32.4883 147.391 32.4883C147.729 32.4883 147.995 32.3958 148.188 32.2109C148.38 32.0234 148.477 31.7695 148.477 31.4492ZM147.391 27.8281C147.107 27.8281 146.876 27.9167 146.699 28.0938C146.525 28.2682 146.438 28.5065 146.438 28.8086C146.438 29.0977 146.523 29.332 146.695 29.5117C146.87 29.6888 147.102 29.7773 147.391 29.7773C147.68 29.7773 147.91 29.6888 148.082 29.5117C148.257 29.332 148.344 29.0977 148.344 28.8086C148.344 28.5195 148.254 28.2839 148.074 28.1016C147.895 27.9193 147.667 27.8281 147.391 27.8281ZM152.945 27.3086V27.9219H152.812C152.25 27.9323 151.802 28.099 151.469 28.4219C151.135 28.7448 150.943 29.1992 150.891 29.7852C151.19 29.4414 151.599 29.2695 152.117 29.2695C152.612 29.2695 153.007 29.444 153.301 29.793C153.598 30.1419 153.746 30.5924 153.746 31.1445C153.746 31.7305 153.586 32.1992 153.266 32.5508C152.948 32.9023 152.521 33.0781 151.984 33.0781C151.44 33.0781 150.999 32.8698 150.66 32.4531C150.322 32.0339 150.152 31.4948 150.152 30.8359V30.5586C150.152 29.5117 150.375 28.7122 150.82 28.1602C151.268 27.6055 151.934 27.3216 152.816 27.3086H152.945ZM151.996 29.8711C151.749 29.8711 151.521 29.9453 151.312 30.0938C151.104 30.2422 150.96 30.4284 150.879 30.6523V30.918C150.879 31.3867 150.984 31.7643 151.195 32.0508C151.406 32.3372 151.669 32.4805 151.984 32.4805C152.31 32.4805 152.565 32.3607 152.75 32.1211C152.938 31.8815 153.031 31.5677 153.031 31.1797C153.031 30.7891 152.936 30.474 152.746 30.2344C152.559 29.9922 152.309 29.8711 151.996 29.8711ZM158.168 30.5742C158.168 31.4206 158.023 32.0495 157.734 32.4609C157.445 32.8724 156.993 33.0781 156.379 33.0781C155.772 33.0781 155.323 32.8776 155.031 32.4766C154.74 32.0729 154.589 31.4714 154.578 30.6719V29.707C154.578 28.8711 154.723 28.25 155.012 27.8438C155.301 27.4375 155.754 27.2344 156.371 27.2344C156.983 27.2344 157.434 27.431 157.723 27.8242C158.012 28.2148 158.16 28.819 158.168 29.6367V30.5742ZM157.445 29.5859C157.445 28.974 157.359 28.5286 157.188 28.25C157.016 27.9688 156.743 27.8281 156.371 27.8281C156.001 27.8281 155.732 27.9674 155.562 28.2461C155.393 28.5247 155.306 28.9531 155.301 29.5312V30.6875C155.301 31.3021 155.389 31.7565 155.566 32.0508C155.746 32.3424 156.017 32.4883 156.379 32.4883C156.736 32.4883 157 32.3503 157.172 32.0742C157.346 31.7982 157.438 31.3633 157.445 30.7695V29.5859ZM162.543 28.7969C162.543 29.0807 162.467 29.3333 162.316 29.5547C162.168 29.776 161.966 29.9492 161.711 30.0742C162.008 30.2018 162.242 30.388 162.414 30.6328C162.589 30.8776 162.676 31.1549 162.676 31.4648C162.676 31.957 162.509 32.349 162.176 32.6406C161.845 32.9323 161.409 33.0781 160.867 33.0781C160.32 33.0781 159.882 32.9323 159.551 32.6406C159.223 32.3464 159.059 31.9544 159.059 31.4648C159.059 31.1576 159.142 30.8802 159.309 30.6328C159.478 30.3854 159.711 30.1979 160.008 30.0703C159.755 29.9453 159.556 29.7721 159.41 29.5508C159.264 29.3294 159.191 29.0781 159.191 28.7969C159.191 28.3177 159.345 27.9375 159.652 27.6562C159.96 27.375 160.365 27.2344 160.867 27.2344C161.367 27.2344 161.771 27.375 162.078 27.6562C162.388 27.9375 162.543 28.3177 162.543 28.7969ZM161.953 31.4492C161.953 31.1315 161.852 30.8724 161.648 30.6719C161.448 30.4714 161.185 30.3711 160.859 30.3711C160.534 30.3711 160.272 30.4701 160.074 30.668C159.879 30.8659 159.781 31.1263 159.781 31.4492C159.781 31.7721 159.876 32.026 160.066 32.2109C160.259 32.3958 160.526 32.4883 160.867 32.4883C161.206 32.4883 161.471 32.3958 161.664 32.2109C161.857 32.0234 161.953 31.7695 161.953 31.4492ZM160.867 27.8281C160.583 27.8281 160.353 27.9167 160.176 28.0938C160.001 28.2682 159.914 28.5065 159.914 28.8086C159.914 29.0977 160 29.332 160.172 29.5117C160.346 29.6888 160.578 29.7773 160.867 29.7773C161.156 29.7773 161.387 29.6888 161.559 29.5117C161.733 29.332 161.82 29.0977 161.82 28.8086C161.82 28.5195 161.73 28.2839 161.551 28.1016C161.371 27.9193 161.143 27.8281 160.867 27.8281ZM164.016 33V29.332H163.348V28.7734H164.016V28.3398C164.016 27.8867 164.137 27.5365 164.379 27.2891C164.621 27.0417 164.964 26.918 165.406 26.918C165.573 26.918 165.738 26.9401 165.902 26.9844L165.863 27.5703C165.741 27.5469 165.611 27.5352 165.473 27.5352C165.238 27.5352 165.057 27.6042 164.93 27.7422C164.802 27.8776 164.738 28.0729 164.738 28.3281V28.7734H165.641V29.332H164.738V33H164.016ZM169.051 33C169.009 32.9167 168.975 32.7682 168.949 32.5547C168.613 32.9036 168.212 33.0781 167.746 33.0781C167.329 33.0781 166.987 32.9609 166.719 32.7266C166.453 32.4896 166.32 32.1901 166.32 31.8281C166.32 31.388 166.487 31.0469 166.82 30.8047C167.156 30.5599 167.628 30.4375 168.234 30.4375H168.938V30.1055C168.938 29.8529 168.862 29.6523 168.711 29.5039C168.56 29.3529 168.337 29.2773 168.043 29.2773C167.785 29.2773 167.569 29.3424 167.395 29.4727C167.22 29.6029 167.133 29.7604 167.133 29.9453H166.406C166.406 29.7344 166.48 29.5312 166.629 29.3359C166.78 29.138 166.983 28.9818 167.238 28.8672C167.496 28.7526 167.779 28.6953 168.086 28.6953C168.573 28.6953 168.954 28.8177 169.23 29.0625C169.507 29.3047 169.65 29.6393 169.66 30.0664V32.0117C169.66 32.3997 169.71 32.7083 169.809 32.9375V33H169.051ZM167.852 32.4492C168.078 32.4492 168.293 32.3906 168.496 32.2734C168.699 32.1562 168.846 32.0039 168.938 31.8164V30.9492H168.371C167.486 30.9492 167.043 31.2083 167.043 31.7266C167.043 31.9531 167.118 32.1302 167.27 32.2578C167.421 32.3854 167.615 32.4492 167.852 32.4492ZM173.094 33H172.367V28.1836L170.91 28.7188V28.0625L172.98 27.2852H173.094V33ZM178.883 27.7188L176.527 33H175.77L178.117 27.9062H175.039V27.3125H178.883V27.7188ZM183.27 30.5742C183.27 31.4206 183.125 32.0495 182.836 32.4609C182.547 32.8724 182.095 33.0781 181.48 33.0781C180.874 33.0781 180.424 32.8776 180.133 32.4766C179.841 32.0729 179.69 31.4714 179.68 30.6719V29.707C179.68 28.8711 179.824 28.25 180.113 27.8438C180.402 27.4375 180.855 27.2344 181.473 27.2344C182.085 27.2344 182.535 27.431 182.824 27.8242C183.113 28.2148 183.262 28.819 183.27 29.6367V30.5742ZM182.547 29.5859C182.547 28.974 182.461 28.5286 182.289 28.25C182.117 27.9688 181.845 27.8281 181.473 27.8281C181.103 27.8281 180.833 27.9674 180.664 28.2461C180.495 28.5247 180.408 28.9531 180.402 29.5312V30.6875C180.402 31.3021 180.491 31.7565 180.668 32.0508C180.848 32.3424 181.118 32.4883 181.48 32.4883C181.837 32.4883 182.102 32.3503 182.273 32.0742C182.448 31.7982 182.539 31.3633 182.547 30.7695V29.5859ZM187.031 27.3086V27.9219H186.898C186.336 27.9323 185.888 28.099 185.555 28.4219C185.221 28.7448 185.029 29.1992 184.977 29.7852C185.276 29.4414 185.685 29.2695 186.203 29.2695C186.698 29.2695 187.092 29.444 187.387 29.793C187.684 30.1419 187.832 30.5924 187.832 31.1445C187.832 31.7305 187.672 32.1992 187.352 32.5508C187.034 32.9023 186.607 33.0781 186.07 33.0781C185.526 33.0781 185.085 32.8698 184.746 32.4531C184.408 32.0339 184.238 31.4948 184.238 30.8359V30.5586C184.238 29.5117 184.461 28.7122 184.906 28.1602C185.354 27.6055 186.02 27.3216 186.902 27.3086H187.031ZM186.082 29.8711C185.835 29.8711 185.607 29.9453 185.398 30.0938C185.19 30.2422 185.046 30.4284 184.965 30.6523V30.918C184.965 31.3867 185.07 31.7643 185.281 32.0508C185.492 32.3372 185.755 32.4805 186.07 32.4805C186.396 32.4805 186.651 32.3607 186.836 32.1211C187.023 31.8815 187.117 31.5677 187.117 31.1797C187.117 30.7891 187.022 30.474 186.832 30.2344C186.645 29.9922 186.395 29.8711 186.082 29.8711ZM191.523 27.3086V27.9219H191.391C190.828 27.9323 190.38 28.099 190.047 28.4219C189.714 28.7448 189.521 29.1992 189.469 29.7852C189.768 29.4414 190.177 29.2695 190.695 29.2695C191.19 29.2695 191.585 29.444 191.879 29.793C192.176 30.1419 192.324 30.5924 192.324 31.1445C192.324 31.7305 192.164 32.1992 191.844 32.5508C191.526 32.9023 191.099 33.0781 190.562 33.0781C190.018 33.0781 189.577 32.8698 189.238 32.4531C188.9 32.0339 188.73 31.4948 188.73 30.8359V30.5586C188.73 29.5117 188.953 28.7122 189.398 28.1602C189.846 27.6055 190.512 27.3216 191.395 27.3086H191.523ZM190.574 29.8711C190.327 29.8711 190.099 29.9453 189.891 30.0938C189.682 30.2422 189.538 30.4284 189.457 30.6523V30.918C189.457 31.3867 189.562 31.7643 189.773 32.0508C189.984 32.3372 190.247 32.4805 190.562 32.4805C190.888 32.4805 191.143 32.3607 191.328 32.1211C191.516 31.8815 191.609 31.5677 191.609 31.1797C191.609 30.7891 191.514 30.474 191.324 30.2344C191.137 29.9922 190.887 29.8711 190.574 29.8711ZM196.832 30.9336C196.832 31.5794 196.684 32.099 196.387 32.4922C196.09 32.8828 195.691 33.0781 195.191 33.0781C194.658 33.0781 194.245 32.8893 193.953 32.5117L193.918 33H193.254V27H193.977V29.2383C194.268 28.8763 194.671 28.6953 195.184 28.6953C195.697 28.6953 196.099 28.8893 196.391 29.2773C196.685 29.6654 196.832 30.1966 196.832 30.8711V30.9336ZM196.109 30.8516C196.109 30.3594 196.014 29.9792 195.824 29.7109C195.634 29.4427 195.361 29.3086 195.004 29.3086C194.527 29.3086 194.185 29.5299 193.977 29.9727V31.8008C194.198 32.2435 194.543 32.4648 195.012 32.4648C195.358 32.4648 195.628 32.3307 195.82 32.0625C196.013 31.7943 196.109 31.3906 196.109 30.8516ZM197.57 30.8516C197.57 30.2031 197.724 29.6823 198.031 29.2891C198.339 28.8932 198.741 28.6953 199.238 28.6953C199.733 28.6953 200.125 28.8646 200.414 29.2031V27H201.137V33H200.473L200.438 32.5469C200.148 32.901 199.746 33.0781 199.23 33.0781C198.741 33.0781 198.341 32.8776 198.031 32.4766C197.724 32.0755 197.57 31.5521 197.57 30.9062V30.8516ZM198.293 30.9336C198.293 31.4128 198.392 31.7878 198.59 32.0586C198.788 32.3294 199.061 32.4648 199.41 32.4648C199.868 32.4648 200.203 32.2591 200.414 31.8477V29.9062C200.198 29.5078 199.866 29.3086 199.418 29.3086C199.064 29.3086 198.788 29.4453 198.59 29.7188C198.392 29.9922 198.293 30.3971 198.293 30.9336ZM205.84 30.9336C205.84 31.5794 205.691 32.099 205.395 32.4922C205.098 32.8828 204.699 33.0781 204.199 33.0781C203.665 33.0781 203.253 32.8893 202.961 32.5117L202.926 33H202.262V27H202.984V29.2383C203.276 28.8763 203.678 28.6953 204.191 28.6953C204.704 28.6953 205.107 28.8893 205.398 29.2773C205.693 29.6654 205.84 30.1966 205.84 30.8711V30.9336ZM205.117 30.8516C205.117 30.3594 205.022 29.9792 204.832 29.7109C204.642 29.4427 204.368 29.3086 204.012 29.3086C203.535 29.3086 203.193 29.5299 202.984 29.9727V31.8008C203.206 32.2435 203.551 32.4648 204.02 32.4648C204.366 32.4648 204.635 32.3307 204.828 32.0625C205.021 31.7943 205.117 31.3906 205.117 30.8516ZM206.578 30.8516C206.578 30.2031 206.732 29.6823 207.039 29.2891C207.346 28.8932 207.749 28.6953 208.246 28.6953C208.741 28.6953 209.133 28.8646 209.422 29.2031V27H210.145V33H209.48L209.445 32.5469C209.156 32.901 208.754 33.0781 208.238 33.0781C207.749 33.0781 207.349 32.8776 207.039 32.4766C206.732 32.0755 206.578 31.5521 206.578 30.9062V30.8516ZM207.301 30.9336C207.301 31.4128 207.4 31.7878 207.598 32.0586C207.796 32.3294 208.069 32.4648 208.418 32.4648C208.876 32.4648 209.211 32.2591 209.422 31.8477V29.9062C209.206 29.5078 208.874 29.3086 208.426 29.3086C208.072 29.3086 207.796 29.4453 207.598 29.7188C207.4 29.9922 207.301 30.3971 207.301 30.9336ZM214.762 30.5742C214.762 31.4206 214.617 32.0495 214.328 32.4609C214.039 32.8724 213.587 33.0781 212.973 33.0781C212.366 33.0781 211.917 32.8776 211.625 32.4766C211.333 32.0729 211.182 31.4714 211.172 30.6719V29.707C211.172 28.8711 211.316 28.25 211.605 27.8438C211.895 27.4375 212.348 27.2344 212.965 27.2344C213.577 27.2344 214.027 27.431 214.316 27.8242C214.605 28.2148 214.754 28.819 214.762 29.6367V30.5742ZM214.039 29.5859C214.039 28.974 213.953 28.5286 213.781 28.25C213.609 27.9688 213.337 27.8281 212.965 27.8281C212.595 27.8281 212.326 27.9674 212.156 28.2461C211.987 28.5247 211.9 28.9531 211.895 29.5312V30.6875C211.895 31.3021 211.983 31.7565 212.16 32.0508C212.34 32.3424 212.611 32.4883 212.973 32.4883C213.329 32.4883 213.594 32.3503 213.766 32.0742C213.94 31.7982 214.031 31.3633 214.039 30.7695V29.5859ZM218.523 27.3086V27.9219H218.391C217.828 27.9323 217.38 28.099 217.047 28.4219C216.714 28.7448 216.521 29.1992 216.469 29.7852C216.768 29.4414 217.177 29.2695 217.695 29.2695C218.19 29.2695 218.585 29.444 218.879 29.793C219.176 30.1419 219.324 30.5924 219.324 31.1445C219.324 31.7305 219.164 32.1992 218.844 32.5508C218.526 32.9023 218.099 33.0781 217.562 33.0781C217.018 33.0781 216.577 32.8698 216.238 32.4531C215.9 32.0339 215.73 31.4948 215.73 30.8359V30.5586C215.73 29.5117 215.953 28.7122 216.398 28.1602C216.846 27.6055 217.512 27.3216 218.395 27.3086H218.523ZM217.574 29.8711C217.327 29.8711 217.099 29.9453 216.891 30.0938C216.682 30.2422 216.538 30.4284 216.457 30.6523V30.918C216.457 31.3867 216.562 31.7643 216.773 32.0508C216.984 32.3372 217.247 32.4805 217.562 32.4805C217.888 32.4805 218.143 32.3607 218.328 32.1211C218.516 31.8815 218.609 31.5677 218.609 31.1797C218.609 30.7891 218.514 30.474 218.324 30.2344C218.137 29.9922 217.887 29.8711 217.574 29.8711ZM220.512 30.1484L220.801 27.3125H223.715V27.9805H221.414L221.242 29.5312C221.521 29.3672 221.837 29.2852 222.191 29.2852C222.71 29.2852 223.121 29.457 223.426 29.8008C223.73 30.1419 223.883 30.6042 223.883 31.1875C223.883 31.7734 223.724 32.2357 223.406 32.5742C223.091 32.9102 222.65 33.0781 222.082 33.0781C221.579 33.0781 221.169 32.9388 220.852 32.6602C220.534 32.3815 220.353 31.9961 220.309 31.5039H220.992C221.036 31.8294 221.152 32.0755 221.34 32.2422C221.527 32.4062 221.775 32.4883 222.082 32.4883C222.418 32.4883 222.681 32.3737 222.871 32.1445C223.064 31.9154 223.16 31.599 223.16 31.1953C223.16 30.8151 223.056 30.5104 222.848 30.2812C222.642 30.0495 222.367 29.9336 222.023 29.9336C221.708 29.9336 221.461 30.0026 221.281 30.1406L221.09 30.2969L220.512 30.1484ZM227.441 30.5C227.29 30.6797 227.109 30.8242 226.898 30.9336C226.69 31.043 226.461 31.0977 226.211 31.0977C225.883 31.0977 225.596 31.0169 225.352 30.8555C225.109 30.694 224.922 30.4674 224.789 30.1758C224.656 29.8815 224.59 29.5573 224.59 29.2031C224.59 28.8229 224.661 28.4805 224.805 28.1758C224.951 27.8711 225.156 27.638 225.422 27.4766C225.688 27.3151 225.997 27.2344 226.352 27.2344C226.914 27.2344 227.357 27.4453 227.68 27.8672C228.005 28.2865 228.168 28.8594 228.168 29.5859V29.7969C228.168 30.9036 227.949 31.7122 227.512 32.2227C227.074 32.7305 226.414 32.9909 225.531 33.0039H225.391V32.3945H225.543C226.139 32.3841 226.598 32.2292 226.918 31.9297C227.238 31.6276 227.413 31.151 227.441 30.5ZM226.328 30.5C226.57 30.5 226.793 30.4258 226.996 30.2773C227.202 30.1289 227.352 29.9453 227.445 29.7266V29.4375C227.445 28.9635 227.342 28.5781 227.137 28.2812C226.931 27.9844 226.671 27.8359 226.355 27.8359C226.038 27.8359 225.783 27.9583 225.59 28.2031C225.397 28.4453 225.301 28.7656 225.301 29.1641C225.301 29.5521 225.393 29.8724 225.578 30.125C225.766 30.375 226.016 30.5 226.328 30.5ZM232.836 27.7188L230.48 33H229.723L232.07 27.9062H228.992V27.3125H232.836V27.7188ZM237.328 27.7188L234.973 33H234.215L236.562 27.9062H233.484V27.3125H237.328V27.7188ZM241.715 30.5742C241.715 31.4206 241.57 32.0495 241.281 32.4609C240.992 32.8724 240.54 33.0781 239.926 33.0781C239.319 33.0781 238.87 32.8776 238.578 32.4766C238.286 32.0729 238.135 31.4714 238.125 30.6719V29.707C238.125 28.8711 238.27 28.25 238.559 27.8438C238.848 27.4375 239.301 27.2344 239.918 27.2344C240.53 27.2344 240.98 27.431 241.27 27.8242C241.559 28.2148 241.707 28.819 241.715 29.6367V30.5742ZM240.992 29.5859C240.992 28.974 240.906 28.5286 240.734 28.25C240.562 27.9688 240.29 27.8281 239.918 27.8281C239.548 27.8281 239.279 27.9674 239.109 28.2461C238.94 28.5247 238.853 28.9531 238.848 29.5312V30.6875C238.848 31.3021 238.936 31.7565 239.113 32.0508C239.293 32.3424 239.564 32.4883 239.926 32.4883C240.283 32.4883 240.547 32.3503 240.719 32.0742C240.893 31.7982 240.984 31.3633 240.992 30.7695V29.5859ZM245.691 31.0898H246.48V31.6797H245.691V33H244.965V31.6797H242.375V31.2539L244.922 27.3125H245.691V31.0898ZM243.195 31.0898H244.965V28.3008L244.879 28.457L243.195 31.0898ZM250.859 33H247.133V32.4805L249.102 30.293C249.393 29.9622 249.594 29.694 249.703 29.4883C249.815 29.2799 249.871 29.0651 249.871 28.8438C249.871 28.5469 249.781 28.3034 249.602 28.1133C249.422 27.9232 249.182 27.8281 248.883 27.8281C248.523 27.8281 248.243 27.931 248.043 28.1367C247.845 28.3398 247.746 28.6237 247.746 28.9883H247.023C247.023 28.4648 247.191 28.0417 247.527 27.7188C247.866 27.3958 248.318 27.2344 248.883 27.2344C249.411 27.2344 249.829 27.3737 250.137 27.6523C250.444 27.9284 250.598 28.2969 250.598 28.7578C250.598 29.3177 250.241 29.9844 249.527 30.7578L248.004 32.4102H250.859V33ZM251.523 30.8516C251.523 30.2031 251.677 29.6823 251.984 29.2891C252.292 28.8932 252.694 28.6953 253.191 28.6953C253.686 28.6953 254.078 28.8646 254.367 29.2031V27H255.09V33H254.426L254.391 32.5469C254.102 32.901 253.699 33.0781 253.184 33.0781C252.694 33.0781 252.294 32.8776 251.984 32.4766C251.677 32.0755 251.523 31.5521 251.523 30.9062V30.8516ZM252.246 30.9336C252.246 31.4128 252.345 31.7878 252.543 32.0586C252.741 32.3294 253.014 32.4648 253.363 32.4648C253.822 32.4648 254.156 32.2591 254.367 31.8477V29.9062C254.151 29.5078 253.819 29.3086 253.371 29.3086C253.017 29.3086 252.741 29.4453 252.543 29.7188C252.345 29.9922 252.246 30.3971 252.246 30.9336ZM259.812 27.7188L257.457 33H256.699L259.047 27.9062H255.969V27.3125H259.812V27.7188ZM261.684 29.8047H262.227C262.568 29.7995 262.836 29.7096 263.031 29.5352C263.227 29.3607 263.324 29.125 263.324 28.8281C263.324 28.1615 262.992 27.8281 262.328 27.8281C262.016 27.8281 261.766 27.918 261.578 28.0977C261.393 28.2747 261.301 28.5104 261.301 28.8047H260.578C260.578 28.3542 260.742 27.9805 261.07 27.6836C261.401 27.3841 261.82 27.2344 262.328 27.2344C262.865 27.2344 263.285 27.3763 263.59 27.6602C263.895 27.944 264.047 28.3385 264.047 28.8438C264.047 29.0911 263.966 29.3307 263.805 29.5625C263.646 29.7943 263.428 29.9674 263.152 30.082C263.465 30.181 263.706 30.3451 263.875 30.5742C264.047 30.8034 264.133 31.0833 264.133 31.4141C264.133 31.9245 263.966 32.3294 263.633 32.6289C263.299 32.9284 262.866 33.0781 262.332 33.0781C261.798 33.0781 261.363 32.9336 261.027 32.6445C260.694 32.3555 260.527 31.974 260.527 31.5H261.254C261.254 31.7995 261.352 32.0391 261.547 32.2188C261.742 32.3984 262.004 32.4883 262.332 32.4883C262.681 32.4883 262.948 32.3971 263.133 32.2148C263.318 32.0326 263.41 31.7708 263.41 31.4297C263.41 31.099 263.309 30.8451 263.105 30.668C262.902 30.4909 262.609 30.3997 262.227 30.3945H261.684V29.8047ZM268.797 27.7188L266.441 33H265.684L268.031 27.9062H264.953V27.3125H268.797V27.7188ZM271.387 32.4883C271.645 32.4883 271.87 32.4102 272.062 32.2539C272.255 32.0977 272.362 31.9023 272.383 31.668H273.066C273.053 31.9102 272.97 32.1406 272.816 32.3594C272.663 32.5781 272.457 32.7526 272.199 32.8828C271.944 33.013 271.673 33.0781 271.387 33.0781C270.811 33.0781 270.353 32.8867 270.012 32.5039C269.673 32.1185 269.504 31.5924 269.504 30.9258V30.8047C269.504 30.3932 269.579 30.0273 269.73 29.707C269.882 29.3867 270.098 29.138 270.379 28.9609C270.663 28.7839 270.997 28.6953 271.383 28.6953C271.857 28.6953 272.25 28.8372 272.562 29.1211C272.878 29.4049 273.046 29.7734 273.066 30.2266H272.383C272.362 29.9531 272.258 29.7292 272.07 29.5547C271.885 29.3776 271.656 29.2891 271.383 29.2891C271.016 29.2891 270.73 29.4219 270.527 29.6875C270.327 29.9505 270.227 30.332 270.227 30.832V30.9688C270.227 31.4557 270.327 31.8307 270.527 32.0938C270.728 32.3568 271.014 32.4883 271.387 32.4883ZM276.488 33C276.447 32.9167 276.413 32.7682 276.387 32.5547C276.051 32.9036 275.65 33.0781 275.184 33.0781C274.767 33.0781 274.424 32.9609 274.156 32.7266C273.891 32.4896 273.758 32.1901 273.758 31.8281C273.758 31.388 273.924 31.0469 274.258 30.8047C274.594 30.5599 275.065 30.4375 275.672 30.4375H276.375V30.1055C276.375 29.8529 276.299 29.6523 276.148 29.5039C275.997 29.3529 275.775 29.2773 275.48 29.2773C275.223 29.2773 275.007 29.3424 274.832 29.4727C274.658 29.6029 274.57 29.7604 274.57 29.9453H273.844C273.844 29.7344 273.918 29.5312 274.066 29.3359C274.217 29.138 274.421 28.9818 274.676 28.8672C274.934 28.7526 275.216 28.6953 275.523 28.6953C276.01 28.6953 276.392 28.8177 276.668 29.0625C276.944 29.3047 277.087 29.6393 277.098 30.0664V32.0117C277.098 32.3997 277.147 32.7083 277.246 32.9375V33H276.488ZM275.289 32.4492C275.516 32.4492 275.73 32.3906 275.934 32.2734C276.137 32.1562 276.284 32.0039 276.375 31.8164V30.9492H275.809C274.923 30.9492 274.48 31.2083 274.48 31.7266C274.48 31.9531 274.556 32.1302 274.707 32.2578C274.858 32.3854 275.052 32.4492 275.289 32.4492ZM278.055 30.8516C278.055 30.2031 278.208 29.6823 278.516 29.2891C278.823 28.8932 279.225 28.6953 279.723 28.6953C280.217 28.6953 280.609 28.8646 280.898 29.2031V27H281.621V33H280.957L280.922 32.5469C280.633 32.901 280.23 33.0781 279.715 33.0781C279.225 33.0781 278.826 32.8776 278.516 32.4766C278.208 32.0755 278.055 31.5521 278.055 30.9062V30.8516ZM278.777 30.9336C278.777 31.4128 278.876 31.7878 279.074 32.0586C279.272 32.3294 279.546 32.4648 279.895 32.4648C280.353 32.4648 280.688 32.2591 280.898 31.8477V29.9062C280.682 29.5078 280.35 29.3086 279.902 29.3086C279.548 29.3086 279.272 29.4453 279.074 29.7188C278.876 29.9922 278.777 30.3971 278.777 30.9336ZM285.355 33C285.314 32.9167 285.28 32.7682 285.254 32.5547C284.918 32.9036 284.517 33.0781 284.051 33.0781C283.634 33.0781 283.292 32.9609 283.023 32.7266C282.758 32.4896 282.625 32.1901 282.625 31.8281C282.625 31.388 282.792 31.0469 283.125 30.8047C283.461 30.5599 283.932 30.4375 284.539 30.4375H285.242V30.1055C285.242 29.8529 285.167 29.6523 285.016 29.5039C284.865 29.3529 284.642 29.2773 284.348 29.2773C284.09 29.2773 283.874 29.3424 283.699 29.4727C283.525 29.6029 283.438 29.7604 283.438 29.9453H282.711C282.711 29.7344 282.785 29.5312 282.934 29.3359C283.085 29.138 283.288 28.9818 283.543 28.8672C283.801 28.7526 284.083 28.6953 284.391 28.6953C284.878 28.6953 285.259 28.8177 285.535 29.0625C285.811 29.3047 285.954 29.6393 285.965 30.0664V32.0117C285.965 32.3997 286.014 32.7083 286.113 32.9375V33H285.355ZM284.156 32.4492C284.383 32.4492 284.598 32.3906 284.801 32.2734C285.004 32.1562 285.151 32.0039 285.242 31.8164V30.9492H284.676C283.79 30.9492 283.348 31.2083 283.348 31.7266C283.348 31.9531 283.423 32.1302 283.574 32.2578C283.725 32.3854 283.919 32.4492 284.156 32.4492ZM290.59 30.5742C290.59 31.4206 290.445 32.0495 290.156 32.4609C289.867 32.8724 289.415 33.0781 288.801 33.0781C288.194 33.0781 287.745 32.8776 287.453 32.4766C287.161 32.0729 287.01 31.4714 287 30.6719V29.707C287 28.8711 287.145 28.25 287.434 27.8438C287.723 27.4375 288.176 27.2344 288.793 27.2344C289.405 27.2344 289.855 27.431 290.145 27.8242C290.434 28.2148 290.582 28.819 290.59 29.6367V30.5742ZM289.867 29.5859C289.867 28.974 289.781 28.5286 289.609 28.25C289.438 27.9688 289.165 27.8281 288.793 27.8281C288.423 27.8281 288.154 27.9674 287.984 28.2461C287.815 28.5247 287.728 28.9531 287.723 29.5312V30.6875C287.723 31.3021 287.811 31.7565 287.988 32.0508C288.168 32.3424 288.439 32.4883 288.801 32.4883C289.158 32.4883 289.422 32.3503 289.594 32.0742C289.768 31.7982 289.859 31.3633 289.867 30.7695V29.5859ZM295.082 30.5742C295.082 31.4206 294.938 32.0495 294.648 32.4609C294.359 32.8724 293.908 33.0781 293.293 33.0781C292.686 33.0781 292.237 32.8776 291.945 32.4766C291.654 32.0729 291.503 31.4714 291.492 30.6719V29.707C291.492 28.8711 291.637 28.25 291.926 27.8438C292.215 27.4375 292.668 27.2344 293.285 27.2344C293.897 27.2344 294.348 27.431 294.637 27.8242C294.926 28.2148 295.074 28.819 295.082 29.6367V30.5742ZM294.359 29.5859C294.359 28.974 294.273 28.5286 294.102 28.25C293.93 27.9688 293.658 27.8281 293.285 27.8281C292.915 27.8281 292.646 27.9674 292.477 28.2461C292.307 28.5247 292.22 28.9531 292.215 29.5312V30.6875C292.215 31.3021 292.303 31.7565 292.48 32.0508C292.66 32.3424 292.931 32.4883 293.293 32.4883C293.65 32.4883 293.914 32.3503 294.086 32.0742C294.26 31.7982 294.352 31.3633 294.359 30.7695V29.5859ZM298.844 27.3086V27.9219H298.711C298.148 27.9323 297.701 28.099 297.367 28.4219C297.034 28.7448 296.841 29.1992 296.789 29.7852C297.089 29.4414 297.497 29.2695 298.016 29.2695C298.51 29.2695 298.905 29.444 299.199 29.793C299.496 30.1419 299.645 30.5924 299.645 31.1445C299.645 31.7305 299.484 32.1992 299.164 32.5508C298.846 32.9023 298.419 33.0781 297.883 33.0781C297.339 33.0781 296.897 32.8698 296.559 32.4531C296.22 32.0339 296.051 31.4948 296.051 30.8359V30.5586C296.051 29.5117 296.273 28.7122 296.719 28.1602C297.167 27.6055 297.832 27.3216 298.715 27.3086H298.844ZM297.895 29.8711C297.647 29.8711 297.419 29.9453 297.211 30.0938C297.003 30.2422 296.858 30.4284 296.777 30.6523V30.918C296.777 31.3867 296.883 31.7643 297.094 32.0508C297.305 32.3372 297.568 32.4805 297.883 32.4805C298.208 32.4805 298.464 32.3607 298.648 32.1211C298.836 31.8815 298.93 31.5677 298.93 31.1797C298.93 30.7891 298.835 30.474 298.645 30.2344C298.457 29.9922 298.207 29.8711 297.895 29.8711ZM303.949 28.7969C303.949 29.0807 303.874 29.3333 303.723 29.5547C303.574 29.776 303.372 29.9492 303.117 30.0742C303.414 30.2018 303.648 30.388 303.82 30.6328C303.995 30.8776 304.082 31.1549 304.082 31.4648C304.082 31.957 303.915 32.349 303.582 32.6406C303.251 32.9323 302.815 33.0781 302.273 33.0781C301.727 33.0781 301.288 32.9323 300.957 32.6406C300.629 32.3464 300.465 31.9544 300.465 31.4648C300.465 31.1576 300.548 30.8802 300.715 30.6328C300.884 30.3854 301.117 30.1979 301.414 30.0703C301.161 29.9453 300.962 29.7721 300.816 29.5508C300.671 29.3294 300.598 29.0781 300.598 28.7969C300.598 28.3177 300.751 27.9375 301.059 27.6562C301.366 27.375 301.771 27.2344 302.273 27.2344C302.773 27.2344 303.177 27.375 303.484 27.6562C303.794 27.9375 303.949 28.3177 303.949 28.7969ZM303.359 31.4492C303.359 31.1315 303.258 30.8724 303.055 30.6719C302.854 30.4714 302.591 30.3711 302.266 30.3711C301.94 30.3711 301.678 30.4701 301.48 30.668C301.285 30.8659 301.188 31.1263 301.188 31.4492C301.188 31.7721 301.283 32.026 301.473 32.2109C301.665 32.3958 301.932 32.4883 302.273 32.4883C302.612 32.4883 302.878 32.3958 303.07 32.2109C303.263 32.0234 303.359 31.7695 303.359 31.4492ZM302.273 27.8281C301.99 27.8281 301.759 27.9167 301.582 28.0938C301.408 28.2682 301.32 28.5065 301.32 28.8086C301.32 29.0977 301.406 29.332 301.578 29.5117C301.753 29.6888 301.984 29.7773 302.273 29.7773C302.562 29.7773 302.793 29.6888 302.965 29.5117C303.139 29.332 303.227 29.0977 303.227 28.8086C303.227 28.5195 303.137 28.2839 302.957 28.1016C302.777 27.9193 302.549 27.8281 302.273 27.8281ZM308.559 30.5742C308.559 31.4206 308.414 32.0495 308.125 32.4609C307.836 32.8724 307.384 33.0781 306.77 33.0781C306.163 33.0781 305.714 32.8776 305.422 32.4766C305.13 32.0729 304.979 31.4714 304.969 30.6719V29.707C304.969 28.8711 305.113 28.25 305.402 27.8438C305.691 27.4375 306.145 27.2344 306.762 27.2344C307.374 27.2344 307.824 27.431 308.113 27.8242C308.402 28.2148 308.551 28.819 308.559 29.6367V30.5742ZM307.836 29.5859C307.836 28.974 307.75 28.5286 307.578 28.25C307.406 27.9688 307.134 27.8281 306.762 27.8281C306.392 27.8281 306.122 27.9674 305.953 28.2461C305.784 28.5247 305.697 28.9531 305.691 29.5312V30.6875C305.691 31.3021 305.78 31.7565 305.957 32.0508C306.137 32.3424 306.408 32.4883 306.77 32.4883C307.126 32.4883 307.391 32.3503 307.562 32.0742C307.737 31.7982 307.828 31.3633 307.836 30.7695V29.5859ZM311.312 33.0781C310.74 33.0781 310.273 32.8906 309.914 32.5156C309.555 32.138 309.375 31.6341 309.375 31.0039V30.8711C309.375 30.4518 309.454 30.0781 309.613 29.75C309.775 29.4193 309.999 29.1615 310.285 28.9766C310.574 28.7891 310.887 28.6953 311.223 28.6953C311.772 28.6953 312.199 28.8763 312.504 29.2383C312.809 29.6003 312.961 30.1185 312.961 30.793V31.0938H310.098C310.108 31.5104 310.229 31.8477 310.461 32.1055C310.695 32.3607 310.992 32.4883 311.352 32.4883C311.607 32.4883 311.823 32.4362 312 32.332C312.177 32.2279 312.332 32.0898 312.465 31.918L312.906 32.2617C312.552 32.806 312.021 33.0781 311.312 33.0781ZM311.223 29.2891C310.931 29.2891 310.686 29.3958 310.488 29.6094C310.29 29.8203 310.168 30.1172 310.121 30.5H312.238V30.4453C312.217 30.0781 312.118 29.7943 311.941 29.5938C311.764 29.3906 311.525 29.2891 311.223 29.2891ZM315.496 32.4883C315.754 32.4883 315.979 32.4102 316.172 32.2539C316.365 32.0977 316.471 31.9023 316.492 31.668H317.176C317.163 31.9102 317.079 32.1406 316.926 32.3594C316.772 32.5781 316.566 32.7526 316.309 32.8828C316.053 33.013 315.783 33.0781 315.496 33.0781C314.921 33.0781 314.462 32.8867 314.121 32.5039C313.783 32.1185 313.613 31.5924 313.613 30.9258V30.8047C313.613 30.3932 313.689 30.0273 313.84 29.707C313.991 29.3867 314.207 29.138 314.488 28.9609C314.772 28.7839 315.107 28.6953 315.492 28.6953C315.966 28.6953 316.359 28.8372 316.672 29.1211C316.987 29.4049 317.155 29.7734 317.176 30.2266H316.492C316.471 29.9531 316.367 29.7292 316.18 29.5547C315.995 29.3776 315.766 29.2891 315.492 29.2891C315.125 29.2891 314.84 29.4219 314.637 29.6875C314.436 29.9505 314.336 30.332 314.336 30.832V30.9688C314.336 31.4557 314.436 31.8307 314.637 32.0938C314.837 32.3568 315.124 32.4883 315.496 32.4883ZM319.684 32.4883C319.941 32.4883 320.167 32.4102 320.359 32.2539C320.552 32.0977 320.659 31.9023 320.68 31.668H321.363C321.35 31.9102 321.267 32.1406 321.113 32.3594C320.96 32.5781 320.754 32.7526 320.496 32.8828C320.241 33.013 319.97 33.0781 319.684 33.0781C319.108 33.0781 318.65 32.8867 318.309 32.5039C317.97 32.1185 317.801 31.5924 317.801 30.9258V30.8047C317.801 30.3932 317.876 30.0273 318.027 29.707C318.178 29.3867 318.395 29.138 318.676 28.9609C318.96 28.7839 319.294 28.6953 319.68 28.6953C320.154 28.6953 320.547 28.8372 320.859 29.1211C321.174 29.4049 321.342 29.7734 321.363 30.2266H320.68C320.659 29.9531 320.555 29.7292 320.367 29.5547C320.182 29.3776 319.953 29.2891 319.68 29.2891C319.312 29.2891 319.027 29.4219 318.824 29.6875C318.624 29.9505 318.523 30.332 318.523 30.832V30.9688C318.523 31.4557 318.624 31.8307 318.824 32.0938C319.025 32.3568 319.311 32.4883 319.684 32.4883ZM325.828 33H322.102V32.4805L324.07 30.293C324.362 29.9622 324.562 29.694 324.672 29.4883C324.784 29.2799 324.84 29.0651 324.84 28.8438C324.84 28.5469 324.75 28.3034 324.57 28.1133C324.391 27.9232 324.151 27.8281 323.852 27.8281C323.492 27.8281 323.212 27.931 323.012 28.1367C322.814 28.3398 322.715 28.6237 322.715 28.9883H321.992C321.992 28.4648 322.16 28.0417 322.496 27.7188C322.835 27.3958 323.286 27.2344 323.852 27.2344C324.38 27.2344 324.798 27.3737 325.105 27.6523C325.413 27.9284 325.566 28.2969 325.566 28.7578C325.566 29.3177 325.21 29.9844 324.496 30.7578L322.973 32.4102H325.828V33ZM330.266 27.7188L327.91 33H327.152L329.5 27.9062H326.422V27.3125H330.266V27.7188ZM332.855 32.4883C333.113 32.4883 333.339 32.4102 333.531 32.2539C333.724 32.0977 333.831 31.9023 333.852 31.668H334.535C334.522 31.9102 334.439 32.1406 334.285 32.3594C334.132 32.5781 333.926 32.7526 333.668 32.8828C333.413 33.013 333.142 33.0781 332.855 33.0781C332.28 33.0781 331.822 32.8867 331.48 32.5039C331.142 32.1185 330.973 31.5924 330.973 30.9258V30.8047C330.973 30.3932 331.048 30.0273 331.199 29.707C331.35 29.3867 331.566 29.138 331.848 28.9609C332.132 28.7839 332.466 28.6953 332.852 28.6953C333.326 28.6953 333.719 28.8372 334.031 29.1211C334.346 29.4049 334.514 29.7734 334.535 30.2266H333.852C333.831 29.9531 333.727 29.7292 333.539 29.5547C333.354 29.3776 333.125 29.2891 332.852 29.2891C332.484 29.2891 332.199 29.4219 331.996 29.6875C331.796 29.9505 331.695 30.332 331.695 30.832V30.9688C331.695 31.4557 331.796 31.8307 331.996 32.0938C332.197 32.3568 332.483 32.4883 332.855 32.4883ZM337.648 33H336.922V28.1836L335.465 28.7188V28.0625L337.535 27.2852H337.648V33ZM342.449 33C342.408 32.9167 342.374 32.7682 342.348 32.5547C342.012 32.9036 341.611 33.0781 341.145 33.0781C340.728 33.0781 340.385 32.9609 340.117 32.7266C339.852 32.4896 339.719 32.1901 339.719 31.8281C339.719 31.388 339.885 31.0469 340.219 30.8047C340.555 30.5599 341.026 30.4375 341.633 30.4375H342.336V30.1055C342.336 29.8529 342.26 29.6523 342.109 29.5039C341.958 29.3529 341.736 29.2773 341.441 29.2773C341.184 29.2773 340.967 29.3424 340.793 29.4727C340.618 29.6029 340.531 29.7604 340.531 29.9453H339.805C339.805 29.7344 339.879 29.5312 340.027 29.3359C340.178 29.138 340.382 28.9818 340.637 28.8672C340.895 28.7526 341.177 28.6953 341.484 28.6953C341.971 28.6953 342.353 28.8177 342.629 29.0625C342.905 29.3047 343.048 29.6393 343.059 30.0664V32.0117C343.059 32.3997 343.108 32.7083 343.207 32.9375V33H342.449ZM341.25 32.4492C341.477 32.4492 341.691 32.3906 341.895 32.2734C342.098 32.1562 342.245 32.0039 342.336 31.8164V30.9492H341.77C340.884 30.9492 340.441 31.2083 340.441 31.7266C340.441 31.9531 340.517 32.1302 340.668 32.2578C340.819 32.3854 341.013 32.4492 341.25 32.4492ZM347.77 30.9336C347.77 31.5794 347.621 32.099 347.324 32.4922C347.027 32.8828 346.629 33.0781 346.129 33.0781C345.595 33.0781 345.182 32.8893 344.891 32.5117L344.855 33H344.191V27H344.914V29.2383C345.206 28.8763 345.608 28.6953 346.121 28.6953C346.634 28.6953 347.036 28.8893 347.328 29.2773C347.622 29.6654 347.77 30.1966 347.77 30.8711V30.9336ZM347.047 30.8516C347.047 30.3594 346.952 29.9792 346.762 29.7109C346.572 29.4427 346.298 29.3086 345.941 29.3086C345.465 29.3086 345.122 29.5299 344.914 29.9727V31.8008C345.135 32.2435 345.48 32.4648 345.949 32.4648C346.296 32.4648 346.565 32.3307 346.758 32.0625C346.951 31.7943 347.047 31.3906 347.047 30.8516ZM350.984 33H350.258V28.1836L348.801 28.7188V28.0625L350.871 27.2852H350.984V33ZM354.871 32.4883C355.129 32.4883 355.354 32.4102 355.547 32.2539C355.74 32.0977 355.846 31.9023 355.867 31.668H356.551C356.538 31.9102 356.454 32.1406 356.301 32.3594C356.147 32.5781 355.941 32.7526 355.684 32.8828C355.428 33.013 355.158 33.0781 354.871 33.0781C354.296 33.0781 353.837 32.8867 353.496 32.5039C353.158 32.1185 352.988 31.5924 352.988 30.9258V30.8047C352.988 30.3932 353.064 30.0273 353.215 29.707C353.366 29.3867 353.582 29.138 353.863 28.9609C354.147 28.7839 354.482 28.6953 354.867 28.6953C355.341 28.6953 355.734 28.8372 356.047 29.1211C356.362 29.4049 356.53 29.7734 356.551 30.2266H355.867C355.846 29.9531 355.742 29.7292 355.555 29.5547C355.37 29.3776 355.141 29.2891 354.867 29.2891C354.5 29.2891 354.215 29.4219 354.012 29.6875C353.811 29.9505 353.711 30.332 353.711 30.832V30.9688C353.711 31.4557 353.811 31.8307 354.012 32.0938C354.212 32.3568 354.499 32.4883 354.871 32.4883ZM357.188 30.8516C357.188 30.2031 357.341 29.6823 357.648 29.2891C357.956 28.8932 358.358 28.6953 358.855 28.6953C359.35 28.6953 359.742 28.8646 360.031 29.2031V27H360.754V33H360.09L360.055 32.5469C359.766 32.901 359.363 33.0781 358.848 33.0781C358.358 33.0781 357.958 32.8776 357.648 32.4766C357.341 32.0755 357.188 31.5521 357.188 30.9062V30.8516ZM357.91 30.9336C357.91 31.4128 358.009 31.7878 358.207 32.0586C358.405 32.3294 358.678 32.4648 359.027 32.4648C359.486 32.4648 359.82 32.2591 360.031 31.8477V29.9062C359.815 29.5078 359.483 29.3086 359.035 29.3086C358.681 29.3086 358.405 29.4453 358.207 29.7188C358.009 29.9922 357.91 30.3971 357.91 30.9336ZM364.18 33H363.453V28.1836L361.996 28.7188V28.0625L364.066 27.2852H364.18V33ZM366.195 30.8516C366.195 30.2031 366.349 29.6823 366.656 29.2891C366.964 28.8932 367.366 28.6953 367.863 28.6953C368.358 28.6953 368.75 28.8646 369.039 29.2031V27H369.762V33H369.098L369.062 32.5469C368.773 32.901 368.371 33.0781 367.855 33.0781C367.366 33.0781 366.966 32.8776 366.656 32.4766C366.349 32.0755 366.195 31.5521 366.195 30.9062V30.8516ZM366.918 30.9336C366.918 31.4128 367.017 31.7878 367.215 32.0586C367.413 32.3294 367.686 32.4648 368.035 32.4648C368.493 32.4648 368.828 32.2591 369.039 31.8477V29.9062C368.823 29.5078 368.491 29.3086 368.043 29.3086C367.689 29.3086 367.413 29.4453 367.215 29.7188C367.017 29.9922 366.918 30.3971 366.918 30.9336ZM373.496 33C373.454 32.9167 373.421 32.7682 373.395 32.5547C373.059 32.9036 372.658 33.0781 372.191 33.0781C371.775 33.0781 371.432 32.9609 371.164 32.7266C370.898 32.4896 370.766 32.1901 370.766 31.8281C370.766 31.388 370.932 31.0469 371.266 30.8047C371.602 30.5599 372.073 30.4375 372.68 30.4375H373.383V30.1055C373.383 29.8529 373.307 29.6523 373.156 29.5039C373.005 29.3529 372.783 29.2773 372.488 29.2773C372.23 29.2773 372.014 29.3424 371.84 29.4727C371.665 29.6029 371.578 29.7604 371.578 29.9453H370.852C370.852 29.7344 370.926 29.5312 371.074 29.3359C371.225 29.138 371.428 28.9818 371.684 28.8672C371.941 28.7526 372.224 28.6953 372.531 28.6953C373.018 28.6953 373.4 28.8177 373.676 29.0625C373.952 29.3047 374.095 29.6393 374.105 30.0664V32.0117C374.105 32.3997 374.155 32.7083 374.254 32.9375V33H373.496ZM372.297 32.4492C372.523 32.4492 372.738 32.3906 372.941 32.2734C373.145 32.1562 373.292 32.0039 373.383 31.8164V30.9492H372.816C371.931 30.9492 371.488 31.2083 371.488 31.7266C371.488 31.9531 371.564 32.1302 371.715 32.2578C371.866 32.3854 372.06 32.4492 372.297 32.4492ZM376.215 29.8047H376.758C377.099 29.7995 377.367 29.7096 377.562 29.5352C377.758 29.3607 377.855 29.125 377.855 28.8281C377.855 28.1615 377.523 27.8281 376.859 27.8281C376.547 27.8281 376.297 27.918 376.109 28.0977C375.924 28.2747 375.832 28.5104 375.832 28.8047H375.109C375.109 28.3542 375.273 27.9805 375.602 27.6836C375.932 27.3841 376.352 27.2344 376.859 27.2344C377.396 27.2344 377.816 27.3763 378.121 27.6602C378.426 27.944 378.578 28.3385 378.578 28.8438C378.578 29.0911 378.497 29.3307 378.336 29.5625C378.177 29.7943 377.96 29.9674 377.684 30.082C377.996 30.181 378.237 30.3451 378.406 30.5742C378.578 30.8034 378.664 31.0833 378.664 31.4141C378.664 31.9245 378.497 32.3294 378.164 32.6289C377.831 32.9284 377.397 33.0781 376.863 33.0781C376.329 33.0781 375.895 32.9336 375.559 32.6445C375.225 32.3555 375.059 31.974 375.059 31.5H375.785C375.785 31.7995 375.883 32.0391 376.078 32.2188C376.273 32.3984 376.535 32.4883 376.863 32.4883C377.212 32.4883 377.479 32.3971 377.664 32.2148C377.849 32.0326 377.941 31.7708 377.941 31.4297C377.941 31.099 377.84 30.8451 377.637 30.668C377.434 30.4909 377.141 30.3997 376.758 30.3945H376.215V29.8047ZM379.555 30.8516C379.555 30.2031 379.708 29.6823 380.016 29.2891C380.323 28.8932 380.725 28.6953 381.223 28.6953C381.717 28.6953 382.109 28.8646 382.398 29.2031V27H383.121V33H382.457L382.422 32.5469C382.133 32.901 381.73 33.0781 381.215 33.0781C380.725 33.0781 380.326 32.8776 380.016 32.4766C379.708 32.0755 379.555 31.5521 379.555 30.9062V30.8516ZM380.277 30.9336C380.277 31.4128 380.376 31.7878 380.574 32.0586C380.772 32.3294 381.046 32.4648 381.395 32.4648C381.853 32.4648 382.188 32.2591 382.398 31.8477V29.9062C382.182 29.5078 381.85 29.3086 381.402 29.3086C381.048 29.3086 380.772 29.4453 380.574 29.7188C380.376 29.9922 380.277 30.3971 380.277 30.9336ZM386 33.0781C385.427 33.0781 384.961 32.8906 384.602 32.5156C384.242 32.138 384.062 31.6341 384.062 31.0039V30.8711C384.062 30.4518 384.142 30.0781 384.301 29.75C384.462 29.4193 384.686 29.1615 384.973 28.9766C385.262 28.7891 385.574 28.6953 385.91 28.6953C386.46 28.6953 386.887 28.8763 387.191 29.2383C387.496 29.6003 387.648 30.1185 387.648 30.793V31.0938H384.785C384.796 31.5104 384.917 31.8477 385.148 32.1055C385.383 32.3607 385.68 32.4883 386.039 32.4883C386.294 32.4883 386.51 32.4362 386.688 32.332C386.865 32.2279 387.02 32.0898 387.152 31.918L387.594 32.2617C387.24 32.806 386.708 33.0781 386 33.0781ZM385.91 29.2891C385.618 29.2891 385.374 29.3958 385.176 29.6094C384.978 29.8203 384.855 30.1172 384.809 30.5H386.926V30.4453C386.905 30.0781 386.806 29.7943 386.629 29.5938C386.452 29.3906 386.212 29.2891 385.91 29.2891ZM391.863 28.7969C391.863 29.0807 391.788 29.3333 391.637 29.5547C391.488 29.776 391.286 29.9492 391.031 30.0742C391.328 30.2018 391.562 30.388 391.734 30.6328C391.909 30.8776 391.996 31.1549 391.996 31.4648C391.996 31.957 391.829 32.349 391.496 32.6406C391.165 32.9323 390.729 33.0781 390.188 33.0781C389.641 33.0781 389.202 32.9323 388.871 32.6406C388.543 32.3464 388.379 31.9544 388.379 31.4648C388.379 31.1576 388.462 30.8802 388.629 30.6328C388.798 30.3854 389.031 30.1979 389.328 30.0703C389.076 29.9453 388.876 29.7721 388.73 29.5508C388.585 29.3294 388.512 29.0781 388.512 28.7969C388.512 28.3177 388.665 27.9375 388.973 27.6562C389.28 27.375 389.685 27.2344 390.188 27.2344C390.688 27.2344 391.091 27.375 391.398 27.6562C391.708 27.9375 391.863 28.3177 391.863 28.7969ZM391.273 31.4492C391.273 31.1315 391.172 30.8724 390.969 30.6719C390.768 30.4714 390.505 30.3711 390.18 30.3711C389.854 30.3711 389.592 30.4701 389.395 30.668C389.199 30.8659 389.102 31.1263 389.102 31.4492C389.102 31.7721 389.197 32.026 389.387 32.2109C389.579 32.3958 389.846 32.4883 390.188 32.4883C390.526 32.4883 390.792 32.3958 390.984 32.2109C391.177 32.0234 391.273 31.7695 391.273 31.4492ZM390.188 27.8281C389.904 27.8281 389.673 27.9167 389.496 28.0938C389.322 28.2682 389.234 28.5065 389.234 28.8086C389.234 29.0977 389.32 29.332 389.492 29.5117C389.667 29.6888 389.898 29.7773 390.188 29.7773C390.477 29.7773 390.707 29.6888 390.879 29.5117C391.053 29.332 391.141 29.0977 391.141 28.8086C391.141 28.5195 391.051 28.2839 390.871 28.1016C390.691 27.9193 390.464 27.8281 390.188 27.8281ZM395.281 33H394.555V28.1836L393.098 28.7188V28.0625L395.168 27.2852H395.281V33ZM397.297 30.8516C397.297 30.2031 397.451 29.6823 397.758 29.2891C398.065 28.8932 398.467 28.6953 398.965 28.6953C399.46 28.6953 399.852 28.8646 400.141 29.2031V27H400.863V33H400.199L400.164 32.5469C399.875 32.901 399.473 33.0781 398.957 33.0781C398.467 33.0781 398.068 32.8776 397.758 32.4766C397.451 32.0755 397.297 31.5521 397.297 30.9062V30.8516ZM398.02 30.9336C398.02 31.4128 398.118 31.7878 398.316 32.0586C398.514 32.3294 398.788 32.4648 399.137 32.4648C399.595 32.4648 399.93 32.2591 400.141 31.8477V29.9062C399.924 29.5078 399.592 29.3086 399.145 29.3086C398.79 29.3086 398.514 29.4453 398.316 29.7188C398.118 29.9922 398.02 30.3971 398.02 30.9336ZM402.965 29.8047H403.508C403.849 29.7995 404.117 29.7096 404.312 29.5352C404.508 29.3607 404.605 29.125 404.605 28.8281C404.605 28.1615 404.273 27.8281 403.609 27.8281C403.297 27.8281 403.047 27.918 402.859 28.0977C402.674 28.2747 402.582 28.5104 402.582 28.8047H401.859C401.859 28.3542 402.023 27.9805 402.352 27.6836C402.682 27.3841 403.102 27.2344 403.609 27.2344C404.146 27.2344 404.566 27.3763 404.871 27.6602C405.176 27.944 405.328 28.3385 405.328 28.8438C405.328 29.0911 405.247 29.3307 405.086 29.5625C404.927 29.7943 404.71 29.9674 404.434 30.082C404.746 30.181 404.987 30.3451 405.156 30.5742C405.328 30.8034 405.414 31.0833 405.414 31.4141C405.414 31.9245 405.247 32.3294 404.914 32.6289C404.581 32.9284 404.147 33.0781 403.613 33.0781C403.079 33.0781 402.645 32.9336 402.309 32.6445C401.975 32.3555 401.809 31.974 401.809 31.5H402.535C402.535 31.7995 402.633 32.0391 402.828 32.2188C403.023 32.3984 403.285 32.4883 403.613 32.4883C403.962 32.4883 404.229 32.3971 404.414 32.2148C404.599 32.0326 404.691 31.7708 404.691 31.4297C404.691 31.099 404.59 30.8451 404.387 30.668C404.184 30.4909 403.891 30.3997 403.508 30.3945H402.965V29.8047ZM408.781 33H408.055V28.1836L406.598 28.7188V28.0625L408.668 27.2852H408.781V33ZM412.668 32.4883C412.926 32.4883 413.151 32.4102 413.344 32.2539C413.536 32.0977 413.643 31.9023 413.664 31.668H414.348C414.335 31.9102 414.251 32.1406 414.098 32.3594C413.944 32.5781 413.738 32.7526 413.48 32.8828C413.225 33.013 412.954 33.0781 412.668 33.0781C412.092 33.0781 411.634 32.8867 411.293 32.5039C410.954 32.1185 410.785 31.5924 410.785 30.9258V30.8047C410.785 30.3932 410.861 30.0273 411.012 29.707C411.163 29.3867 411.379 29.138 411.66 28.9609C411.944 28.7839 412.279 28.6953 412.664 28.6953C413.138 28.6953 413.531 28.8372 413.844 29.1211C414.159 29.4049 414.327 29.7734 414.348 30.2266H413.664C413.643 29.9531 413.539 29.7292 413.352 29.5547C413.167 29.3776 412.938 29.2891 412.664 29.2891C412.297 29.2891 412.012 29.4219 411.809 29.6875C411.608 29.9505 411.508 30.332 411.508 30.832V30.9688C411.508 31.4557 411.608 31.8307 411.809 32.0938C412.009 32.3568 412.296 32.4883 412.668 32.4883ZM418.137 31.0898H418.926V31.6797H418.137V33H417.41V31.6797H414.82V31.2539L417.367 27.3125H418.137V31.0898ZM415.641 31.0898H417.41V28.3008L417.324 28.457L415.641 31.0898ZM421.406 33.0781C420.833 33.0781 420.367 32.8906 420.008 32.5156C419.648 32.138 419.469 31.6341 419.469 31.0039V30.8711C419.469 30.4518 419.548 30.0781 419.707 29.75C419.868 29.4193 420.092 29.1615 420.379 28.9766C420.668 28.7891 420.98 28.6953 421.316 28.6953C421.866 28.6953 422.293 28.8763 422.598 29.2383C422.902 29.6003 423.055 30.1185 423.055 30.793V31.0938H420.191C420.202 31.5104 420.323 31.8477 420.555 32.1055C420.789 32.3607 421.086 32.4883 421.445 32.4883C421.701 32.4883 421.917 32.4362 422.094 32.332C422.271 32.2279 422.426 32.0898 422.559 31.918L423 32.2617C422.646 32.806 422.115 33.0781 421.406 33.0781ZM421.316 29.2891C421.025 29.2891 420.78 29.3958 420.582 29.6094C420.384 29.8203 420.262 30.1172 420.215 30.5H422.332V30.4453C422.311 30.0781 422.212 29.7943 422.035 29.5938C421.858 29.3906 421.618 29.2891 421.316 29.2891Z" fill="black"/>
</svg>
