<svg width="15" height="16" viewBox="0 0 15 16" fill="none" xmlns="http://www.w3.org/2000/svg">
<g clip-path="url(#clip0)">
<path d="M9.39676 7.6C9.39676 8.088 9.03254 8.488 8.5712 8.488C8.11796 8.488 7.74565 8.088 7.74565 7.6C7.74565 7.112 8.10986 6.712 8.5712 6.712C9.03254 6.712 9.39676 7.112 9.39676 7.6ZM5.61701 6.712C5.15567 6.712 4.79146 7.112 4.79146 7.6C4.79146 8.088 5.16376 8.488 5.61701 8.488C6.07835 8.488 6.44257 8.088 6.44257 7.6C6.45066 7.112 6.07835 6.712 5.61701 6.712ZM14.1639 1.648V16C12.1249 14.2189 12.777 14.8085 10.4085 12.632L10.8374 14.112H1.6592C0.744618 14.112 0 13.376 0 12.464V1.648C0 0.736 0.744618 0 1.6592 0H12.5047C13.4193 0 14.1639 0.736 14.1639 1.648ZM11.8572 9.232C11.8572 6.656 10.6917 4.568 10.6917 4.568C9.52626 3.704 8.41742 3.728 8.41742 3.728L8.30411 3.856C9.68004 4.272 10.3194 4.872 10.3194 4.872C8.39684 3.83047 6.13842 3.83028 4.27346 4.64C3.97399 4.776 3.79593 4.872 3.79593 4.872C3.79593 4.872 4.46771 4.24 5.92457 3.824L5.84363 3.728C5.84363 3.728 4.7348 3.704 3.56931 4.568C3.56931 4.568 2.40382 6.656 2.40382 9.232C2.40382 9.232 3.08369 10.392 4.87239 10.448C4.87239 10.448 5.17186 10.088 5.41467 9.784C4.38677 9.48 3.99828 8.84 3.99828 8.84C4.11734 8.92237 4.31368 9.02916 4.33012 9.04C5.69624 9.79619 7.63676 10.0439 9.38057 9.32C9.66385 9.216 9.9795 9.064 10.3113 8.848C10.3113 8.848 9.90666 9.504 8.84639 9.8C9.0892 10.104 9.38057 10.448 9.38057 10.448C11.1693 10.392 11.8572 9.232 11.8572 9.232Z" fill="#1D0070"/>
</g>
<defs>
<clipPath id="clip0">
<rect width="14.1639" height="16" fill="white"/>
</clipPath>
</defs>
</svg>
