<svg width="17" height="16" viewBox="0 0 17 16" fill="none" xmlns="http://www.w3.org/2000/svg">
<path d="M13.9852 6.35924C13.5087 6.35924 13.0895 6.55299 12.7814 6.85611C11.6475 6.08424 10.1197 5.58736 8.42676 5.53424L9.30657 1.63423L12.108 2.25298C12.108 2.92798 12.667 3.47798 13.3531 3.47798C14.0519 3.47798 14.6141 2.91236 14.6141 2.23736C14.6141 1.56236 14.055 0.996735 13.3531 0.996735C12.8639 0.996735 12.4415 1.28736 12.2319 1.68423L9.13823 1.00923C8.9826 0.96861 8.83014 1.07798 8.78885 1.23111L7.82327 5.53111C6.14305 5.59986 4.63116 6.09674 3.49407 6.86861C3.18598 6.55299 2.75084 6.35924 2.2744 6.35924C0.50842 6.35924 -0.069654 8.69049 1.54705 9.48736C1.48987 9.73424 1.46446 9.99674 1.46446 10.2592C1.46446 12.878 4.46282 14.9999 8.14407 14.9999C11.8412 14.9999 14.8396 12.878 14.8396 10.2592C14.8396 9.99674 14.811 9.72174 14.7411 9.47486C16.326 8.67486 15.7416 6.35924 13.9852 6.35924ZM4.11026 9.65299C4.11026 8.96549 4.66928 8.41236 5.37123 8.41236C6.05729 8.41236 6.61631 8.96236 6.61631 9.65299C6.61631 10.328 6.05729 10.878 5.37123 10.878C4.67246 10.8811 4.11026 10.328 4.11026 9.65299ZM10.9169 12.5749C9.76077 13.7124 6.49879 13.7124 5.34264 12.5749C5.21559 12.4655 5.21559 12.2717 5.34264 12.1467C5.45381 12.0374 5.65073 12.0374 5.7619 12.1467C6.64489 13.0374 9.57338 13.053 10.4945 12.1467C10.6056 12.0374 10.8026 12.0374 10.9137 12.1467C11.044 12.2717 11.044 12.4655 10.9169 12.5749ZM10.8915 10.8811C10.2054 10.8811 9.64643 10.3311 9.64643 9.65611C9.64643 8.96861 10.2054 8.41549 10.8915 8.41549C11.5903 8.41549 12.1525 8.96549 12.1525 9.65611C12.1493 10.328 11.5903 10.8811 10.8915 10.8811Z" fill="#1D0070"/>
</svg>
