<svg width="17" height="16" viewBox="0 0 17 16" fill="none" xmlns="http://www.w3.org/2000/svg">
<g clip-path="url(#clip0)">
<path d="M14.5906 4.74103C14.601 4.88316 14.601 5.02532 14.601 5.16744C14.601 9.50244 11.2474 14.4974 5.11808 14.4974C3.22975 14.4974 1.47558 13.9593 0 13.0253C0.268296 13.0558 0.526238 13.0659 0.804856 13.0659C2.36296 13.0659 3.79728 12.5482 4.94266 11.6649C3.4774 11.6344 2.24947 10.6903 1.8264 9.39079C2.03279 9.42122 2.23915 9.44153 2.45586 9.44153C2.75509 9.44153 3.05436 9.40091 3.33294 9.32988C1.80578 9.02529 0.66037 7.7055 0.66037 6.1116V6.071C1.10406 6.31466 1.62004 6.46694 2.16689 6.48722C1.26916 5.89838 0.681015 4.89332 0.681015 3.75625C0.681015 3.14713 0.846084 2.58875 1.13503 2.10144C2.77571 4.09128 5.24189 5.39075 8.00727 5.53291C7.95569 5.28925 7.92472 5.03547 7.92472 4.78166C7.92472 2.97453 9.41063 1.50247 11.2577 1.50247C12.2173 1.50247 13.0841 1.89841 13.6929 2.538C14.4461 2.39588 15.1684 2.12175 15.8082 1.74613C15.5605 2.50757 15.0343 3.14716 14.343 3.55322C15.0137 3.48219 15.6638 3.29941 16.2622 3.04563C15.8083 3.69535 15.2407 4.274 14.5906 4.74103Z" fill="#1D0070"/>
</g>
<defs>
<clipPath id="clip0">
<rect width="16.2623" height="16" fill="white"/>
</clipPath>
</defs>
</svg>
