<svg xmlns="http://www.w3.org/2000/svg" width="212" height="279" fill="none"><g clip-path="url(#a)"><path fill="#9EF1FF" d="M84.385 249.915a7.988 7.988 0 0 1 1.177-1.085c1.41-1.05 2.875-2.029 4.29-3.076 1.639-1.007 3.41-1.795 4.867-3.069 2.466-1.452 4.984-3.975 3.296-6.966-2.809-3.888-8.09-2.964-7.981-9.438a8.493 8.493 0 0 1 .462-2.593c.606-1.623 1.765-3.642.266-5.094-1.289-1.327-3.232-1.522-4.941-1.963-.438-.13-.886-.238-1.331-.347-.123.07-.266.109-.41.126-.406.13-.82.301-1.13.595-.4.388-.323.945-.393 1.449.945 2.998 1.254 6.211.966 9.332-.049 2.222-.318 4.43-.51 6.641-.117 1.253-.11 2.52-.404 3.752-.322 1.375-.322 2.788-.518 4.185-.143.951-.336 1.896-.462 2.855a33.196 33.196 0 0 0-.158 4.255c.028.038.056.077.08.122.151.305.221.679.487.914.722.119 1.37-.203 1.993-.525a.724.724 0 0 1 .35-.067l.004-.003ZM46.364 144.663c-.028-.018-.052-.038-.077-.052.021.024.042.052.067.08.003-.007.007-.018.014-.025l-.004-.003ZM162.442 193.931c-.143-.077-.283-.161-.437-.21a.185.185 0 0 1-.042-.017c-1.048.476-2.049 1.039-2.956 1.774-2.777 2.023-4.787 4.857-7.417 7.044-2.42 1.97-5.345 2.768-8.398 1.994-3.149-.717-6.766-.776-9.267 1.53-1.057 1.182-1.698 2.676-1.915 4.244-.155.812-.393 1.631-.27 2.464.196 1.998.903 3.859 1.278 5.784.14 1.322.175 2.666.042 3.996.161.189.291.427.406.637.165.21.358.423.55.587.984.868 2.476.886 3.67.487 2.75-1.834 5.26-3.954 7.6-6.278 2.035-2.138 3.94-4.416 5.491-6.935 1.828-2.726 3.236-5.7 4.973-8.482 1.478-2.523 3.358-4.808 5.488-6.806a55.951 55.951 0 0 1 1.59-1.12c-.074-.266-.179-.542-.386-.693ZM32.369 20.876c.585-.48 1.26-.819 1.894-1.235-2.42.966-4.664 2.348-7.01 3.489-.435.255-.866.507-1.307.752-1.87 1.053-3.884 1.89-5.918 2.572-.046.01-.091.024-.14.035-3.387 1.462-6.844 2.733-10.493 3.422-2.07.346-4.206.65-6.296.336a3.153 3.153 0 0 0-.431-.074c1.972 2.152 4.654 3.79 7.603 3.944 3.267-.052 6.56-.959 9.36-2.617 1.643-.9 2.985-1.977 4.368-3.195 1.73-1.274 3.267-2.782 4.83-4.252 1.151-1.091 2.37-2.11 3.543-3.18l-.003.003Z"/><path fill="#4EC5D9" d="M47.27 157.085c3.706.186 7.498.109 11.032-1.134a2.92 2.92 0 0 0-.312-.129c-1.39-.63-2.609-1.571-3.897-2.38-5.2-3.548-9.75-8.149-12.884-13.629a.703.703 0 0 1-.056-.927.708.708 0 0 1 .97-.123 59.172 59.172 0 0 0 3.418 2.632c1.817 1.252 3.726 2.362 5.67 3.404 2.556 1.299 5.172 2.544 7.998 3.118 4.654.973 9.603.977 14.082-.763a34.06 34.06 0 0 0 9.602-5.854c1.636-1.34 3.145-2.813 4.353-4.531 1.559-2.096 3.152-4.245 3.996-6.736-1.211.241-2.444.329-3.684.371-4.714.434-9.427-.389-13.952-1.673-3.4-.99-6.755-2.152-10.236-2.855-.218-.025-.438-.049-.655-.077-3.345-.535-6.605-1.54-9.698-2.918a16.29 16.29 0 0 1-2.017-.998c-.329-.189-.434-.64-.241-.962.41-.64 1.075-.192 1.516.074.672.342 1.37.633 2.066.927 2.882 1.218 5.849 2.078 8.91 2.526.213-.01.451.039.69.098a36.61 36.61 0 0 0 1.52.158c2.367.126 4.783.203 7.147.14 3.187-.109 6.342-.637 9.466-1.246 3.001-.668 5.806-1.984 8.615-3.205 4.668-2.432 9.175-5.253 12.94-8.93a44.755 44.755 0 0 0 6.598-8.297c.641-1.074 1.39-2.096 1.975-3.205-2.7.64-5.06.189-7.876-.434-6.07-1.424-11.466-4.601-16.964-7.418-4.64-2.481-9.287-4.962-14.092-7.107-.676-.287-1.349-.574-2.028-.854a.691.691 0 0 1-.48-.2c-2.756-1.13-5.56-2.137-8.538-2.533-3.165-.27-6.471-.014-9.564.658-2.735.613-5.2 1.977-7.648 3.293-2.144 1.225-4.262 2.582-6.612 3.373-1.495.385-3.03.599-4.553.847-3.512.336-6.668-.067-9.459-1.21a1.799 1.799 0 0 1-.294-.13c-3.257-1.41-6.013-3.853-8.247-7.376-1.503-2.047-2.385-4.466-3.47-6.743-.365-.746-.596-1.502-.764-2.271-.08.266-.165.532-.249.794-.017.077-.035.154-.056.234a.71.71 0 0 1-.073.175c-.235.735-.47 1.47-.648 2.208-1.18 4.532-2.168 9.123-2.84 13.76-.501 3.855-.596 7.746-.824 11.623-.315 5.074-.245 10.12.309 15.145.23 3.789.78 7.53 1.817 11.183 2.574 10.085 8.23 17.066 16.82 22.755 6.41 4.14 13.757 6.953 21.409 7.338l-.007.014Zm26.99-13.682c.33-1.021 1.787-.525 1.339.462-.326 1.022-1.783.529-1.338-.462Zm-9.773 2.002a9.78 9.78 0 0 0 2.574.094c1.292-.143 2.595-.273 3.813-.756.466-.153.939-.293 1.415-.402.592-.129 1.054.637.68 1.106a.756.756 0 0 1-.466.28c-.567.143-1.124.322-1.678.511-2.076.619-4.346.878-6.496.563-.42-.063-.826-.178-1.243-.241a.706.706 0 0 1-.715-.683c.081-1.137 1.412-.577 2.116-.465v-.007Zm16.522-54.28c.956-.524 1.713.78.704 1.24-.956.528-1.709-.781-.704-1.24Zm-7.427-4.72c1.596.742 3.081 1.697 4.584 2.604.332.213.651.448.987.654.448.171.858.602.603 1.095-.645 1.081-2.046-.518-2.784-.843-1.478-.833-2.88-1.862-4.494-2.422-1.39.05-1.005-2.229 1.1-1.088h.004Zm-8.661 35.041a.71.71 0 0 1 .75.651c.038.378-.277.721-.652.749a.711.711 0 0 1-.75-.651c-.038-.378.277-.721.652-.749Zm-16.824-6.439a.71.71 0 0 1 .89-.437c.847.364 1.327 1.267 2.087 1.781 2.756 1.928 5.757 3.531 8.986 4.5.753.322 2.669-.045 2.515 1.151a.706.706 0 0 1-.823.553c-1.401-.143-2.75-.504-4.052-1.043-1.338-.461-2.616-1.084-3.835-1.802-1.895-.997-3.768-2.124-5.218-3.723-.371-.21-.718-.493-.553-.98h.003ZM45.8 149.698a.703.703 0 0 1 .452-.276c.357-.056.767.199.805.577.017.189-.01.371-.126.525a.704.704 0 0 1-.452.277c-.357.056-.767-.2-.805-.578-.018-.189.01-.371.126-.525Zm-4.02-5.941c.283.843.896 1.651 1.467 2.351.406.424.854.805 1.313 1.165.301.238.382.665.15.98-.728.829-1.568-.409-2.153-.847-.816-.752-1.363-1.721-1.916-2.67a1.548 1.548 0 0 1-.262-.941c0-.917 1.355-.955 1.4-.035v-.003ZM27.81 91.143a.71.71 0 0 1 .75.65c.038.379-.277.722-.652.75a.71.71 0 0 1-.75-.651c-.038-.378.277-.72.652-.749ZM13.44 131.99a.706.706 0 0 1-.941-.304c-.357-.683-.7-1.365-.953-2.096-.438-.76-.623-1.596-.777-2.446-.252-.343-.273-.837.112-1.099 1.38-.626 1.253 1.491 1.607 2.264.252.493.463 1.001.652 1.518.22.669 1.197 1.617.304 2.163h-.003Zm1.601 2.785a.706.706 0 0 1-.756-.637.705.705 0 0 1 .637-.755.706.706 0 0 1 .757.636.705.705 0 0 1-.638.756Zm10.034-43.606a.705.705 0 0 1-.89.433c-1.247-.402-2.48-.888-3.579-1.61-2.255-1.357-4.294-3.13-5.747-5.335-.651-.333-.371-1.369.371-1.316.442.003.708.381.921.714.47.658.834 1.179 1.363 1.735 1.639 1.592 3.47 3.013 5.579 3.933.661.396 2.251.354 1.985 1.446h-.003Z"/><path fill="#4EC5D9" d="M90.972 198.41c.21.931-1.022 1.218-1.32.497a.655.655 0 0 1-.084-.154c-.367-1.179.224-2.344.74-3.38.475-.997.833-2.043 1.372-3.009.165-.301.343-.598.515-.896-.105.011-.207.021-.301.032-.732.007-1.405.031-2.105.105-2.438.112-4.868.227-7.284-.2-2.925-.234-5.758-1.046-8.43-2.239-6.7-2.632-12.043-7.678-16.35-13.318-1.272-1.799-2.631-3.541-3.878-5.357a.891.891 0 0 1-.108-.137c-.021-.031-.032-.066-.053-.098a34.677 34.677 0 0 1-1.733-2.792c-1.117-2.051-2.08-4.192-2.648-6.463-.231-.816-.47-1.627-.602-2.464-.82-.028-1.636-.07-2.455-.108-9.34-.773-18.228-4.735-25.435-10.683.406.959.844 1.903 1.323 2.831.883 1.98 1.818 3.933 2.886 5.826 1.979 3.971 4.427 7.66 6.804 11.397 2.35 3.46 4.746 6.9 7.495 10.046 3.022 3.467 6.346 6.421 9.778 9.427 5.025 4.304 9.914 8.807 15.276 12.698 3.445 2.491 6.923 4.941 10.219 7.635.92.774 1.863 1.54 2.738 2.366.091.056.179.112.263.157.35.284.658.616.956.959.515.105.847.791 1.236 1.13.658.662 1.422 1.204 2.22 1.687 2.459 1.347 5.404 1.343 7.96 2.453 2.921 1.364 3.587 3.779 2.319 6.638-.97 2.075-1.303 4.636.017 6.62.676.847 1.643 1.347 2.553 1.9 2.697 1.319 5.386 3.37 5.103 6.705-.301 2.613-2.525 4.465-4.633 5.756-1.286 1.165-2.897 1.861-4.374 2.747-1.745 1.256-3.6 2.397-5.222 3.814-1.338 1.483-2.683 3.17-2.973 5.196-.08.465-.077.938-.067 1.407-.003.045-.014.084-.024.126.907 3.359 2.42 6.568 4.482 9.363 2.245 3.066 5.32 5.41 8.563 7.338a36.365 36.365 0 0 0 5.936 2.324c1.355.28 2.714.619 4.045.951-4.693-5.857-5.558-15.319-3.94-22.464.742-3.143 2.255-6.026 3.684-8.899 1.499-2.939 2.924-5.91 4.227-8.94.718-2.075 1.572-4.273 1.783-6.449.203-1.795.161-3.611-.036-5.406-.266-1.802-.966-3.482-1.628-5.165-.133-.357.084-.77.438-.889a.681.681 0 0 1 .343-.021c.273.011.539.175.63.441.042.084.091.164.137.248 1.075 1.645 2.266 3.213 3.81 4.392 3.45 2.477 7.722 3.772 11.956 3.783.511 0 1.019-.007 1.527-.025a11.242 11.242 0 0 0 2.241-1.683c.414-.668.533-1.491.673-2.254.185-1.749.308-3.471.098-5.192-.455-2.089-1.17-4.129-1.324-6.278.217-4.342 1.751-8.286 6.36-9.402 7.154-1.725 9.277 3.615 15.99-3.422 2.325-2.481 4.689-5.036 7.687-6.708 1.303-.707 2.735-1.134 4.101-1.697 1.079-.382 2.217-.504 3.355-.606-2.238-.997-4.388-2.211-6.738-2.932-5.011-1.571-10.359-2.005-15.57-1.438-2.15.339-4.304.847-6.398 1.406-3.558 1.008-6.752 2.572-9.943 4.353-2.7 1.771-5.424 3.51-8.047 5.393-1.94 1.357-4.077 2.435-6.244 3.376-3.657 1.502-7.687 3.062-11.68 2.082a.61.61 0 0 1-.336-.003c-.613-.196-1.247-.329-1.863-.518-1.292-.36-2.476-1.018-3.537-1.827-1.285-.892-2.304-2.208-3.684-2.925-1.016-.318-2.249-.147-2.788.836h-.004Zm-40.427-27.895c-.942.483-1.25-.861-1.608-1.463a33.869 33.869 0 0 1-1.484-3.863.72.72 0 0 1-.092-.535c.092-.385.47-.588.845-.518.43.08.57.567.682.924.102.322.2.647.312.966.4 1 .774 2.015 1.271 2.974.277.462.697 1.127.077 1.515h-.003Zm1.005 2.617c-.36.056-.76-.206-.798-.587-.039-.378.196-.739.588-.798.36-.056.76.206.798.588.039.377-.196.738-.588.797Zm26.272 34.338c-.914.626-1.45-.847-2.041-1.316-1.195-1.235-2.54-2.264-3.982-3.177-.519-.312-1.047-.63-1.604-.875-.427-.045-.767-.444-.658-.878a.709.709 0 0 1 .843-.518c2.42.941 4.546 2.642 6.388 4.451.431.623 1.877 1.533 1.058 2.309l-.004.004Zm1.415 2.579c-.36.056-.76-.207-.798-.588-.039-.378.196-.738.588-.798.36-.056.76.206.799.588.038.378-.197.738-.589.798Zm9.116 54.66c-.35.193-.75.046-.95-.28-1.088-1.515-1.687-3.254-2.317-4.989-.193-.676-.904-1.844.206-2.061a.71.71 0 0 1 .746.514c.445 1.358.974 2.684 1.489 4.017.318.644.728 1.239 1.106 1.851.2.322.042.773-.28.948Zm2.192 2.026c-.493.805-1.922-.059-1.407-.867.493-.802 1.919.063 1.407.867Zm52.503-77.405c.609-.899 1.888-.049 1.177.801-.624.9-1.884.049-1.177-.801Zm-8.867 2.093c.648-.273 1.264-.606 1.901-.907 1.314-.728 2.785-.913 4.234-1.21.89-.214 1.251 1.091.368 1.35-.914.245-1.87.301-2.774.595-1.155.497-2.342 1.018-3.428 1.624-.343.49-1.191.252-1.247-.336-.056-.564.491-.917.946-1.113v-.003Zm-25.309 38.123c-.361.056-.76-.206-.799-.588-.038-.378.196-.738.588-.798.361-.056.76.207.799.588.038.378-.196.739-.588.798Zm-2.596-12.912c.648.518.915 1.368 1.282 2.082.886 1.774 1.415 3.499 1.846 5.392.084.658.536 1.806-.406 2.009-.365.052-.757-.207-.799-.588-.073-.931-.34-1.83-.567-2.733-.508-1.749-1.215-3.478-2.175-5.025-.732-.535.067-1.658.819-1.137Z"/><path fill="#9EF1FF" d="M73.057 32.263c1.394-.158 2.819-.084 4.223-.095 2.802.395 5.446 1.6 7.785 3.156-.255-.48-.276-1.056-.602-1.504-.875-1.19-1.982-2.114-3.113-2.978-.42-.375-.7-.878-1.114-1.26-.634-.434-1.254-.896-1.895-1.312-1.992-.679-4.111-1.326-5.886.224-.533.556-.722 1.302-.964 2.005-.266.654-.164 1.382.109 2.019.5.049.97-.189 1.46-.255h-.003ZM103.076 59.185c-.238-.115-.529-.259-.732-.448-2.07-.381-4.157-.7-6.188-1.26-.301-.073-.617-.146-.932-.227-.066.133-.14.259-.206.374.22.676.784 1.12 1.236 1.631 1.068 1.099 2.259 2.26 3.8 2.61.224.039.448.063.672.074.634-.007 1.264-.19 1.867-.382.395-.084.766-.171 1.005-.524.178-.147.311-.315.315-.557.042-.514-.452-1-.837-1.298v.007ZM107.194 32.801a24.62 24.62 0 0 1 5.834-1.452c1.58-.448 3.768.29 3.275-2.204-.147-.585-.683-.942-.977-1.449-.95-1.645-1.857-1.578-3.471-.882-2.157 1.074-3.786 2.96-5.285 4.801-.56.86-1.348 1.627-1.691 2.597l.028.031c.774-.455 1.446-1.088 2.287-1.438V32.8Z"/><path fill="#fff" d="M114.079 36.395c-2.504-.088-4.055 2.593-4.524 4.759-1.433 3.177 1.054 8.664 3.166 11.162.84 1.064 2.08 1.645 3.323 2.11 1.67.497 3.449-.5 4.381-1.879 1.471-2.467 1.604-5.574 1.086-8.342-.421-1.924-1.436-3.628-2.399-5.319-.781-1.165-1.961-2.155-3.327-2.495a1.538 1.538 0 0 0-.834-.02c-.304.024-.585-.018-.875.024h.003Zm2.315 2.533c.781.364 1.394 1.054 1.881 1.75 1.134 1.571 1.579 3.485 1.786 5.371.077 2.068.427 5.162-1.807 6.222-1.229.539-2.746.29-3.895-.33-.654-.503-1.278-1.032-1.73-1.731-.991-1.435-1.779-4.192-1.747-6.677l.031.021c.134.084.312.15.47.165.182.017.36.017.543-.028.059-.014.119-.032.178-.05.063-.01.126-.02.186-.038.357-.094.672-.318.882-.62.098-.14.179-.286.235-.45.052-.158.07-.326.073-.49 0-.053 0-.109-.007-.161a1.659 1.659 0 0 0-.413-.91 1.648 1.648 0 0 0-.697-.483 2.212 2.212 0 0 0-.227-.077c-.196-.053-.4-.07-.599-.045.273-.543.637-1.001 1.11-1.334.623-.399 1.691-1.13 2.325-.434.473.098.991.08 1.422.326v.003Z"/><path fill="#4EC5D9" d="M16.6 75.117c1.05 3.29 2.564 6.519 4.78 9.164.655.794 1.39 1.56 2.273 2.096.361.137.666.375.985.581.14.042.273.115.388.203.571.234 1.16.437 1.765.598a20.87 20.87 0 0 0 8.902.109c1.65-.224 3.25-.654 4.686-1.519 3.271-1.658 6.335-3.761 9.806-5.014 1.268-.41 2.57-.724 3.89-.952.246-.273.596-.51.834-.703.284-.2.683-.557.946-.749a40.084 40.084 0 0 1 8.664-5.389c3.898-1.665 8.048-2.383 12.204-3.006a69.999 69.999 0 0 1 9-1.025c4.669-.203 9.369-.108 14.016.43 4.546.704 8.972 2.03 13.287 3.601 3.134 1.253 6.328 2.684 9.2 4.55.189-.025.378-.05.567-.078 3.169-.808 2.816-4.535 2.686-7.558-.091-1.785-.018-3.57.326-5.336.69-3.237 2.006-6.292 2.875-9.48.907-4.377 1.88-8.912 1.107-13.36-.564-3.737-2.042-7.39-4.389-10.367-1.54-1.82-2.931-3.773-4.682-5.4-2.479-2.351-5.295-4.35-8.303-5.962-3.947-2.278-8.346-3.097-12.597-4.532-4.476-1.354-9.032-2.257-13.644-2.915-2.346-.16-4.7-.297-7.046-.468-8.77-.455-17.563.31-26.17 2.005-1.601.287-3.244.357-4.827.745-.234.108-.518.189-.77.164-1.054.263-2.108.54-3.11.92-2.094.715-4.073 1.75-5.992 2.849-2.69 1.463-4.994 3.555-7.267 5.543-4.479 4.167-7.837 9.356-10.6 14.773-2.123 4.378-3.552 9.032-4.784 13.724-.799 2.425-1.17 4.951-1.573 7.464-.007.024-.01.049-.014.07a15.527 15.527 0 0 0 .168 3.985c.312 3.513 1.11 6.97 2.417 10.225l-.004.014Zm106.977-5.515c-.683.654-1.842-.55-1.141-1.197.683-.654 1.842.55 1.141 1.197Zm2.848-12.656c-.417 2.453-1.779 4.594-2.34 7.012-.28.728.098 2.313-1.061 2.229-.389-.066-.623-.43-.574-.808.098-1.138.371-2.243.746-3.321.637-2.124 1.992-4.175 1.95-6.432-.346-1.343 2.116-1.574 1.279 1.323v-.003Zm-5.334-17.37c1.355 2.145 2.049 4.647 2.122 7.173-.115 2.55-.427 5.36-2.224 7.327-1.656 1.869-4.482 2.464-6.654 1.145-1.404-.567-2.514-1.638-3.372-2.866-1.968-2.954-3.516-6.547-3.197-10.162.441-1.645.903-3.345 1.898-4.762 1.145-1.659 3.211-2.772 5.242-2.474 1.03-.182 2.102.304 2.963.833 1.52.78 2.469 2.306 3.222 3.786Zm-16.004-8.286c.563-.858 1.25-1.642 1.943-2.345 2.021-2.31 6.612-6.14 9.116-2.512.637.97 1.635 1.795 1.607 3.051.228 1.473-.949 2.995-2.475 2.974-1.636.179-3.31.392-4.9.805-1.071.301-2.185.553-3.159 1.102-.343.217-.676.448-1.001.693-.368.29-.879.672-1.331.312-.592.42-1.236-.252-1.376-.823-.172-1.263.9-2.299 1.572-3.254l.004-.003ZM91.639 50.934c.192-.714.21-1.463.42-2.173.154-.605.476-1.134.847-1.627.606-1.27 1.419-2.306 2.441-3.272 2.69-2.467 5.106-1.735 7.694.403 1.384 1.333 2.515 2.918 3.678 4.444 1.173 1.718 2.416 3.317 3.477 5.087.799 1.246 2.024 2.128 2.812 3.377.452.654.841 1.35 1.282 2.012.21.315.081.77-.238.962a.69.69 0 0 1-.193.077c-.431.4-1.205-.042-1.754-.077-1.447-.108-2.886-.276-4.315-.566a.727.727 0 0 1-.094.157c-.907 1.396-2.357 2.145-3.727 2.985-1.779.871-4.03.836-5.82.007-.876-.41-1.6-1.043-2.308-1.687-.385-.178-.865-.647-1.289-1.2-.882-.9-1.642-1.904-2.16-3.069a4.803 4.803 0 0 1-.536-1.505c-.133-.227-.238-.49-.203-.745-.091-.51-.116-1.043-.15-1.371-.088-.742-.14-1.505.132-2.219h.004Zm-33.686.658a.71.71 0 0 1-.75-.651c-.039-.378.277-.72.651-.749a.71.71 0 0 1 .75.651c.038.378-.277.72-.651.749Zm25.21 13.42a.71.71 0 0 1-.749-.652c-.038-.377.277-.72.652-.748a.71.71 0 0 1 .75.65c.038.378-.278.721-.652.75Zm5.544-5.351c-.518 1.452-1.722 2.607-2.976 3.471-.301.231-.767.112-.97-.189-.22-.311-.12-.76.189-.97.487-.363.844-.604 1.25-1.007.417-.43.816-1.043 1.096-1.498.13-.307.389-.58.757-.549.385.025.675.371.651.745l.004-.003Zm-2.7-29.03a.709.709 0 0 1 .764.63.709.709 0 0 1-.63.764.709.709 0 0 1-.764-.63.709.709 0 0 1 .63-.763Zm-4.069-5.468c.511-.035.861.398 1.194.727.459.47.89.96 1.3 1.474.388.57 1.474 1.35.679 2.022-.75.504-1.187-.49-1.611-.948a17.335 17.335 0 0 0-1.674-1.872c-.847-.13-.739-1.379.116-1.403h-.004Zm-11.242 3.415c1.296-2.569 4.655-2.908 7.085-1.935.904.147 1.674.62 2.367 1.193.414.27.848.514 1.195.875.5.553.91 1.179 1.565 1.564 1.355 1.186 2.917 2.425 3.334 4.262.249.497.515 1.029.378 1.602-.16.61-.952.931-1.527.763-1.012-.434-1.905-1.172-2.878-1.662-1.471-.71-3.012-1.294-4.62-1.616-.738-.133-1.491-.06-2.237-.039-.764.021-1.538-.077-2.29.098-.94.276-2.382.55-2.781-.64-.715-1.47-.217-3.062.406-4.465h.004Zm-3.813 11.446c.956-.753 1.887-1.586 3.053-1.995 1.16-.35 2.277-.906 3.492-1.025 1.53-.242 3.089.063 4.591.35.732.248 1.394.637 2.102.948 2.024 1.046 3.967 2.369 5.596 3.968 1.691 1.921 2.532 4.43 2.742 6.953.308 2.299-.511 4.51-1.517 6.54-1.666 3.356-4.584 5.917-7.925 7.544-3.274 1.533-6.11 2.569-9.602.93-1.825-.566-3.548-1.707-5.008-2.928-2.417-2.33-3.436-5.78-3.81-9.035.143-4.496 2.549-9.657 6.286-12.254v.004Zm-2.47-24.495c.368-.049.754.22.792.599a.713.713 0 0 1-.599.79c-.367.05-.752-.22-.791-.598a.714.714 0 0 1 .599-.79ZM62.135 42.49c-.018.28-.193.487-.36.697-.425.577-.803 1.19-1.22 1.774-.787 1.14-1.159 2.386-1.572 3.685-.105.367-.546.552-.893.434-1.019-.452-.02-1.8.123-2.544.528-1.62 1.604-2.989 2.574-4.364.29-.714 1.4-.458 1.344.315l.004.003ZM51.502 16.824c2.276-.777 4.654-1.232 7.053-1.424.833-.07 1.667-.112 2.504-.137.382-.014.704.322.704.697a.715.715 0 0 1-.697.707c-.659.02-1.317.049-1.972.094-2.451.217-4.987.542-7.263 1.484-.298.238-.753.164-.98-.133-.41-.54.122-1.12.65-1.288ZM22.515 41.269c.98-2.17 1.839-4.426 3.268-6.347.535-.738 1.66.06 1.141.812-1.113 1.434-1.768 3.131-2.507 4.713-.417.598-.487 2.026-1.489 1.725a.71.71 0 0 1-.41-.903h-.003Zm-.217 2.562c.396-.018.694.287.732.664.039.378-.301.714-.665.732-.396.017-.694-.287-.732-.665-.039-.378.3-.714.665-.731Z"/><path fill="#fff" d="M65.745 60.627c1.39.99 2.801 1.945 4.458 2.407 1.117.48 2.3.788 3.523.61 1.94-.239 3.726-1.152 5.47-1.985 2.381-1.361 4.535-3.139 5.94-5.525 1.257-2.149 2.297-4.595 1.901-7.128-.578-5.07-3.113-6.904-7.25-9.322a6.077 6.077 0 0 0-2.083-.679c-.49-.168-1.145-.112-1.506-.521a7.56 7.56 0 0 0-4.563.462c-1.481.346-2.721 1.172-3.856 2.159-3.24 2.243-5.015 6.095-5.69 9.885-.379 2.97 1.299 7.75 3.656 9.64v-.003Zm1.964-13.763c.074.113.165.228.27.308.06.046.115.084.175.126l.032.032c.073.073.15.15.234.217a2.837 2.837 0 0 0 1.495.567c.176.014.35.014.53.01.178 0 .357 0 .535-.031.34-.053.68-.175.998-.308.294-.123.6-.29.792-.557.101-.143.178-.287.248-.447.13-.305.228-.602.266-.928.035-.273.032-.567.004-.847 0-.031-.007-.063-.01-.094a2.31 2.31 0 0 0-.361-1.008c-.172-.29-.396-.563-.683-.742-.235-.143-.47-.287-.735-.353 1.775-1.155 4.02-1.592 6.09-1.081.2.045.364.178.455.35.763.238 1.303.58 1.828 1.15 1.898 1.282 2.746 3.584 2.966 5.785.014.137.025.27.035.406.046 3.275-1.75 6.25-4.02 8.489-.568.602-1.355.882-2.115 1.165-.6.242-1.184.542-1.808.721-1.537.276-4.52-.007-5.613-1.214-.515-.707-1.328-1.137-1.769-1.897-.357-.63-.599-1.316-.963-1.949-1.198-2.232-.392-5.336 1.12-7.87h.004Z"/><path fill="#9EF1FF" d="M93.182 54.734c.025.028.042.063.06.095.535.556 1.306.776 2.024.99 1.163.273 2.311.62 3.484.84 2.182.378 4.346.808 6.525 1.217 1.169.147 2.35.196 3.498.48.571.042 1.121.21 1.685.273.525-.039 1.04.028 1.558.13.105.013.231.024.368.038-.228-.364-.448-.718-.672-1.043-.743-1.07-1.815-1.858-2.522-2.964-.882-1.323-1.705-2.698-2.693-3.947a52.703 52.703 0 0 0-3.873-5.025c-1.226-1.158-3.023-2.61-4.791-1.931-1.247.56-2.168 1.613-3.008 2.652-.344.65-.67 1.309-1.114 1.897-.438.706-.448 1.57-.606 2.368-.108.553-.35 1.085-.252 1.663.084.755.053 1.553.33 2.267Zm12.18-1.949c-.269.896-1.828.44-1.541-.462.27-.9 1.828-.437 1.541.462Zm-5.49-6.498c.192-.315.647-.44.962-.23.301.202.452.538.648.832.385.591.827 1.14 1.226 1.718.35.735 1.94 1.816.879 2.55-.354.193-.76.043-.956-.29-.347-.503-.753-.965-1.086-1.48-.536-.763-1.051-1.4-1.488-2.134-.249-.263-.403-.623-.186-.966ZM19.44 25.163c2.08-.917 4.132-1.904 6.191-2.803a31.71 31.71 0 0 0 1.149-.564c.084-.049.171-.098.255-.15 3.373-2.096 6.882-4.196 10.794-5.067-3.233-.455-6.381.385-9.494 1.081-2.175.704-4.248 1.166-6.462 1.606-4.444.949-9.196.886-13.381-1.039-2.543-1.123-5.138-2.677-6.643-5.08-.137 3.023-.683 5.78 1.12 8.45 1.79 2.351 4.675 3.524 7.502 4.097 2.952.718 6.058.172 8.965-.531h.003ZM8.008 22.619c-.396.02-.7-.284-.736-.662-.038-.381.298-.717.662-.735.396-.02.7.284.736.662.038.381-.298.717-.662.735Zm3.067.007c.466.182.942.35 1.44.42 1.31.122 2.77.241 4.045.038.497.024.963-.416 1.432-.108.308.206.413.664.19.972-.372.466-1.038.459-1.58.54a10.01 10.01 0 0 1-2.242.08c-1.274-.035-2.563-.102-3.75-.616-.858-.33-.414-1.606.462-1.323l.003-.003ZM120.765 22.409c.007.76.539 1.344.931 1.952.347.816 1.114 1.34 1.678 2.002a.38.38 0 0 1 .045.056c1.59.031 3.205-.056 4.766-.19 2.382-.024 4.182-1.822 5.369-3.726 1.429-2.043 1.184-4.77-.15-6.778-.368.903-1.058 1.708-1.688 2.415-2.781 2.715-6.822 3.373-10.549 3.688-.192.147-.29.37-.399.58h-.003Zm8.405.178c.367-.049.753.22.791.599a.713.713 0 0 1-.599.79c-.368.05-.753-.22-.791-.598a.713.713 0 0 1 .599-.79Zm-4.515 1.274c.48-.22.988.08 1.485.01.498 0 1.016-.318 1.489-.084.525.28.416 1.155-.172 1.281-.77.172-1.565.305-2.346.116-.827.227-1.254-.987-.459-1.32l.003-.003Z"/><path fill="#4EC5D9" d="M206.099 97.834c-8.657-.914-15.963-6.12-22.841-11.061-2.038-1.53-3.898-3.3-6.037-4.696-1.989-1.316-3.891-2.786-6.041-3.839-4.977-2.425-10.636-3.6-16.155-3.016-3.611.535-6.812 2.204-9.859 4.146-.395.294-.819.564-1.211.85-1.482 1.033-2.767 2.436-4.007 3.633-2.808 2.73-4.706 6.036-6.139 9.626a30.658 30.658 0 0 0-2.15 8.611c-.084.977-.21 1.901-.294 2.852.01.196-.004.403-.056.585.073 3.866-.056 7.736-.207 11.599-.122 1.991-.402 3.969-.742 5.935 0 .165-.018.336-.042.493-.126 1.89-.035 3.787-.035 5.676.017 4.22 1.271 8.262 2.644 12.209.567 1.518 1.134 3.195 2.01 4.549.392.563.714 1.039 1.072 1.532.521.483.805.791 1.271 1.299 1.142.979 2.343 2.005 3.81 2.435.508.203 1.023.385 1.552.528a.72.72 0 0 1 .556.203c.711.161 1.422.333 2.123.539 4.44.773 9.042 1.372 13.489.399-.924-.511-1.842-1.029-2.682-1.683-2.129-1.648-4.066-3.408-5.701-5.539-1.114-1.452-2-3.059-3.11-4.518-1.562-2.442-3.383-4.773-4.455-7.481a.73.73 0 0 1 .046-.644c.028-.168.119-.322.315-.462a.704.704 0 0 1 .959.242c.526.882 1.012 1.788 1.573 2.652.557.836 1.418 1.365 2.175 2.002 1.04 1.077 2.311 1.861 3.495 2.768 1.667.965 3.526 1.921 5.428 2.221 2.511.581 5.099.564 7.662.508.949-.07 1.877-.27 2.809-.455 1.667-.325 3.365-.511 4.99-1.025 2.179-.711 4.385-1.382 6.462-2.355 2.104-1.043 4.122-2.492 5.824-4.073 2.027-1.855 3.957-3.895 5.466-6.176.666-1.155 1.173-2.397 1.902-3.517a4.41 4.41 0 0 0-.631.115c-4.248.725-8.601-.07-12.761-.976-2.364-.63-4.682-1.406-7.039-2.061-1.674-.56-3.387-1.127-5.141-1.343a.604.604 0 0 1-.298-.105 44.753 44.753 0 0 1-5.789-1.134c-3.456-1.19-6.93-2.6-9.763-4.959a.708.708 0 0 1-.151-.979.707.707 0 0 1 .981-.151c.69.518 1.362 1.064 2.08 1.54 2.185 1.26 4.514 2.253 6.888 3.093 5.716 1.613 11.774 1.932 17.651 1.158 5.985-.619 11.795-2.631 16.827-5.934 4.343-2.744 8.916-5.613 11.774-9.983.588-.994 1.383-1.827 2.063-2.754.567-1.04 1.229-2.079 1.663-3.188-1.404.175-2.812.329-4.223.112v-.004Zm-71.057 39.985c-.298.224-.763.175-.981-.14-.717-1.019-1.299-2.149-1.628-3.353-.095-.374-.144-.759-.203-1.14a.68.68 0 0 1-.119-.497c.052-.371.417-.658.791-.595.977.217.652 1.487.977 2.201.305.847.624 1.508 1.086 2.225.315.371.553.942.077 1.295v.004Zm2.147 3.481c-.371.046-.746-.227-.785-.605a.711.711 0 0 1 .606-.784c.371-.045.746.228.785.605a.711.711 0 0 1-.606.784Zm29.589-2.082c.511-.329 1.204.235 1.019.802-.228.591-1.198 1.028-1.587.346-.29-.504.137-.931.568-1.148Zm-8.759.158c1.8.276 3.607.668 5.428.381.914-.091 1.089 1.253.179 1.389-1.947.301-3.884-.073-5.807-.385-.903-.147-.714-1.49.2-1.385Zm2.973-23.532c-.438 1.182-2.486-.347-3.281-.571-.715-.329-1.383-.731-2.059-1.13-.547-.224-.928-.875-.41-1.34.305-.262.714-.182.994.063.75.458 1.52.889 2.319 1.253.665.276 1.306.633 1.999.832.368.105.557.539.438.889v.004Zm2.875.703c-.455.256-1.131.5-1.425-.105-.284-.64.298-.969.816-1.155.837-.374 1.429.847.606 1.264l.003-.004Zm2.476-36.885c-.119.35-.532.574-.889.438-.595-.231-1.198-.448-1.793-.676-1.776-.735-3.695-1.08-5.607-1.179a7.578 7.578 0 0 0-1.292.109.706.706 0 0 1-.753.08c-.757-.43-.294-1.4.476-1.456 2.473-.367 5.047.175 7.368 1.022.687.26 1.373.507 2.056.773.361.14.564.529.438.89h-.004Zm1.93 1.655c-.932.602-1.79-.573-.855-1.158.932-.598 1.79.578.855 1.158Z"/><path fill="#9EF1FF" d="M104.71 15.225c.382.413.865.71 1.279 1.085.08.049.154.105.213.171a38.15 38.15 0 0 1 2.613.871 43.994 43.994 0 0 1 4.805 2.278c.413-.119.914-.126 1.243-.14 1.089.147 2.178.266 3.274.326 4.742-.018 8.689-1.501 11.326-5.602 2.409-3.867 2.231-6.778.602-10.88-.469 1.2-1.411 2.093-2.315 2.975-1.884 1.799-4.072 3.272-6.552 4.115-2.234.675-4.57.766-6.857.97-2.381-.046-4.885-.19-7.242.003-.862.063-1.758.164-2.634.35-.669.283-1.313.738-.987 1.557.403.644.714 1.347 1.236 1.914l-.004.007Zm16.394-3.37c.528-.889 1.81-.143 1.222.717-.526.89-1.811.144-1.222-.717Zm-8.601.917c.563.063 1.131.105 1.698.161 1.506-.024 3.05.06 4.493-.448.886-.224 1.257 1.081.371 1.35-2.202.687-4.573.554-6.843.312-.322-.035-.637-.136-.963-.143-.367.073-.742-.12-.844-.494-.185-1.238 1.349-.871 2.088-.738ZM128.378 89.068c-.031-.392-.07-.784-.115-1.176a16.456 16.456 0 0 0-.606-1.473c-1.209-2.4-3.156-4.384-5.309-5.945a28.768 28.768 0 0 0-4.893-3.377c-.199-.122-.452-.244-.658-.395-6.262-3.04-13.858-5.137-20.004-5.64-6.535-.442-13.136-.347-19.594.822l-.847.126c-.018.01-.035.024-.056.031a9.62 9.62 0 0 0-.708.193.693.693 0 0 1-.395.181 5.396 5.396 0 0 0-.526.168 9.077 9.077 0 0 0-1.453.812c-1.961 1.487-3.079 4.182-2.434 6.55.203 1.138 1.026 2.16 1.835 2.916.203.216.522.437.76.682.494.213.984.427 1.474.637 5.579 2.558 10.93 5.567 16.39 8.36 3.982 2.172 8.072 4.163 12.453 5.395 2.245.493 4.556 1.144 6.868.91.823-.102 1.614-.36 2.416-.564a.734.734 0 0 1 .301-.017c.48 0 1.005.448.715 1.144-.655 1.746-1.842 3.223-2.784 4.819-1.972 3.159-4.336 6.039-7.005 8.636-2.143 2.061-4.573 3.821-7.074 5.427-3.113 2.043-6.408 3.775-9.89 5.102-.57.248-1.155.465-1.74.668.406.591.813 1.19 1.359 1.672 1.204.945 2.34 2.166 3.88 2.52.483.098.991.154 1.478.038.494-.15.998.284.918.791-.48 1.025-.778 2.142-1.282 3.167-.995 1.974-2.298 3.772-3.625 5.536-1.754 2.456-4.115 4.377-6.472 6.228-2.367 1.788-5.022 3.219-7.75 4.371-4.962 1.973-10.495 1.973-15.65.78a22.47 22.47 0 0 1-1.513-.416c.035.724.031 1.434.287 2.113.648 1.578 1.53 3.104 2.812 4.252h.004a.714.714 0 0 1 .521.322c.27.122.522.251.568.601a.68.68 0 0 1-.028.305.71.71 0 0 1-.683.616c-.431.196-.778.539-1.173.787-2.858 1.799-4.721 5.235-4.805 8.597-.035.669.122 1.309.266 1.957.039.402.053.829.245 1.193 3.32 4.71 6.738 9.416 11.126 13.209 3.432 2.827 7.414 4.888 11.61 6.33 2.535.798 5.2 1.025 7.834 1.288.27.003.535.007.805.003.427-.171 1.072-.091 1.488-.196 2.347-.168 4.714-.86 6.42-2.54 1.313-1.235 2.28-2.82 3.62-4.014.75-.93 1.514-1.847 2.277-2.764 1.933-2.173 3.709-4.657 5.488-6.928 2.094-2.856 3.908-5.893 5.848-8.85 2.161-2.96 3.982-6.148 5.856-9.294 2.43-4.003 4.482-8.258 6.303-12.569 1.419-3.653 2.728-7.344 3.656-11.155.932-4.465 1.842-8.94 2.42-13.465.287-5.112.442-10.252.235-15.368-.193-4.728-.886-9.413-1.464-14.105v-.004Zm-57.006 94.167c-.214.307-.666.402-.974.174-.896-.657-1.779-1.333-2.598-2.085-.375-.322-.659-.749-1.061-1.029a.703.703 0 0 1-.442-.896c.494-1.049 1.597-.066 2.063.508.48.49.998.931 1.53 1.357.508.564 2.039 1.029 1.485 1.971h-.003Zm2.199 1.119c-.494.112-1.166.13-1.282-.5-.066-.364.186-.763.564-.815.494-.112 1.166-.126 1.282.5.066.36-.186.763-.564.812v.003ZM110.199 77.22c-.469-.228-1.026-.29-1.471-.55-.287-.244-.336-.7-.084-.986.595-.634 1.702.189 2.392.36 2.493.98 4.833 2.271 7.109 3.678 1.184.62 8.395 5.777 6.409 7.061-.326.165-.788.042-.942-.304-.084-.196-.207-.378-.266-.483-2.669-3.727-8.913-7.051-13.147-8.776Zm7.137 72.027c-.396.021-.697-.283-.735-.665-.039-.378.297-.717.665-.735.396-.021.697.284.736.665.038.378-.298.717-.666.735Zm6.37-10.959c-.63.902-1.029 1.917-1.386 2.953-.638 1.585-1.268 3.181-2.091 4.678-.452.798-1.657.165-1.236-.654.77-1.389 1.355-2.876 1.954-4.35.343-.787 1.306-4.22 2.469-3.572.322.171.493.623.294.945h-.004Zm1.191-48.814a.706.706 0 0 1-.756-.637.705.705 0 0 1 .637-.756.706.706 0 0 1 .756.637.707.707 0 0 1-.637.756ZM190.203 124.249c-.025-.011-.046-.025-.07-.035l.021.038a.214.214 0 0 0 .049-.007v.004Z"/><path fill="#000" d="M211.255 96.213c-.928.056-1.839.22-2.763.308-1.573.088-3.142-.171-4.682-.451-2.63-.57-5.134-1.526-7.6-2.642-2.29-1.225-4.503-2.593-6.696-3.982-3.061-2.061-6.079-4.185-8.877-6.6-3.474-2.575-7.008-5.259-11.063-6.847a29.662 29.662 0 0 0-10.02-2.24c-2.196-.185-4.416-.119-6.559.438-2.872.724-5.453 2.057-7.929 3.593-.276.07-.494.27-.714.452-1.996 1.277-3.936 2.662-5.919 3.947-2.143 1.28-4.503 2.603-7.067 2.554-.732-.066-1.457-.189-2.182-.308-.497-3.076-1.12-6.13-1.73-9.182-.336-2.012-.567-4.059-.584-6.102.038-.378.084-.777.01-1.099.011-.364.028-.728.056-1.092.217-1.977.837-3.852 1.443-5.756.844-2.558 1.8-5.084 2.164-7.768.648-3.058 1.11-6.155.872-9.29-.343-5.592-2.696-10.932-6.507-15.026-.336-.44-.689-.871-1.05-1.295 1.324.01 2.651-.063 3.971-.171 1.107-.073 2.248-.196 3.24-.728 2.546-1.536 4.654-4.237 4.878-7.268.084-2.236-.89-4.538-2.515-6.07a12.135 12.135 0 0 0-1.491-1.152c.483-1.274.763-2.617.781-3.982.017-2.033-.788-3.905-1.398-5.812-.332-.791-.679-3.286-1.971-2.495-.365.283-.253.763-.277 1.165-.007.808-.277 1.585-.704 2.264-2.21 2.705-5.257 5.032-8.724 5.805-1.996.35-4.122.602-6.163.606-3.117-.172-6.216-.14-9.316.367-1.884.444-3.813 1.225-5.008 2.813-.206.273-.525.634-.742 1.012a90.005 90.005 0 0 0-10.05-2.16c-1.85-.367-3.727-.423-5.6-.528-2.967-.266-5.94-.364-8.917-.402-3.117.042-6.23.213-9.34.416-2.567.312-5.137.651-7.7 1.001-2.193.406-4.382.843-6.599 1.099l-.525.073c-.343-.122-.802.05-1.166.144-1.17.29-2.347.553-3.492.927-1.39.395-2.752.941-4.08 1.568-.556-.585-1.691-.83-2.381-1.033-2.77-.57-5.638-.049-8.38.525-1.538.266-3.016.739-4.508 1.176-5.235 1.326-10.824 2.393-16.014.213-2.263-.91-4.438-2.176-6.084-4a52.453 52.453 0 0 1-1.607-2.473c-.158-.259-.336-.539-.662-.595-.581-.119-.9.451-.872.962.196 3.556-.994 7.426 1.026 10.645 1.05 1.917 2.872 3.237 4.875 4.122-1.096.987-2.287 2.026-3.754 2.376-.606.077-1.215.077-1.828.08-.102 0-.294.004-.455.13-.414.3-.382.892.02 1.19.582.587 1.072 1.256 1.654 1.847A13.425 13.425 0 0 0 8.553 35.3c2.171.525 4.454-.014 6.605-.424 2.784-.714 5.284-2.089 7.641-3.737.806-.7 1.664-1.375 2.515-2.06-2.47 3.204-4.567 6.69-6.367 10.322-2.028 4.31-3.457 8.853-4.647 13.454-.074.22-.14.445-.207.668-.277.417-.252.987-.424 1.453-.322.969-.644 1.945-.865 2.942-.444 1.855-.609 3.755-.956 5.627-.588 2.848-1.064 5.725-1.772 8.555-.02.067-.042.134-.063.2-.01.032-.02.06-.028.091-.217.682-.445 1.368-.637 2.061-1.926 7.33-3.415 14.812-3.618 22.412-.329 5.774-.669 11.579-.042 17.342.277 2.785.396 5.686.907 8.479 1.338 6.799 3.684 13.552 8.066 19.014a49.394 49.394 0 0 0 3.771 3.937c.01.178.088.353.235.483.038.073.073.15.105.227.403 1.12.82 2.243 1.37 3.303 1.393 2.978 2.804 5.942 4.398 8.822 3.295 6.011 7.084 11.771 11.234 17.23 3.947 5.203 8.86 9.556 13.788 13.807 4.304 3.727 8.58 7.503 13.105 10.96 3.537 2.523 7.095 5.021 10.474 7.754a64.113 64.113 0 0 1 2.931 2.481c.098.175.252.322.442.413a.31.31 0 0 0 .035.021c.08.073.16.143.238.217 1.88 1.998 3.404 4.395 4.3 6.998.018.214.042.434.158.606.017.028.042.049.063.073.2.668.357 1.351.47 2.04.878 4.276.251 8.633-.12 12.93-.101.92-.13 1.847-.207 2.767a40.713 40.713 0 0 0-.71 5.246c-.445 2.306-.725 4.647-.67 7.002.12 6.56 2.06 13.24 6.02 18.524 2.554 3.391 6.01 6.106 9.764 8.055 2.543 1.176 5.201 2.089 7.954 2.618.9.227 1.999.507 2.969.713.252.053.501.112.753.028.315-.105.55-.468.463-.801a1.828 1.828 0 0 0-.326-.654 20.807 20.807 0 0 1-4.868-10.953c-.448-3.376-.578-6.844.042-10.214.844-4.489 3.215-8.485 5.218-12.537 1.828-3.765 3.67-7.6 4.563-11.705.091-.483.161-.969.214-1.459 2.189.469 4.44.77 6.678.738a36.417 36.417 0 0 0 10.93-2.267c2.823-.977 5.649-2.054 8.128-3.748 3.751-2.589 7.243-5.592 10.135-9.119 5.33-6.025 7.54-14.287 13.697-19.641 1.135-.766 2.297-1.494 3.453-2.232 1.639-.882 3.365-1.589 5.032-2.408.2-.094.323-.28.365-.482a.69.69 0 0 0 .108-.2c.235-.836-.774-.98-1.352-1.225-2.322-.941-4.517-2.162-6.836-3.11-5.291-2.012-11.049-2.607-16.676-2.222-7.757.864-15.206 3.828-21.535 8.373-2.069 1.249-3.971 2.743-6.002 4.045-1.492.84-3.005 1.648-4.581 2.317-3.082 1.242-6.338 2.582-9.728 2.25-2.501-.41-5.194-1.334-6.777-3.419-1.25-1.547-1.989-3.443-2.49-5.35-.077-.956.046-1.921.08-2.88 0-.042.008-.088.015-.137.16-.437.346-.867.487-1.326.37-.791.956-1.448 1.46-2.152.263-.434.518-.815.805-1.214 2.662-3.272 5.397-6.477 7.922-9.857 2.147-2.842 4.031-5.872 5.925-8.885 2.14-2.942 4.003-6.064 5.863-9.192 2.413-3.912 4.437-8.034 6.321-12.223.193.189.382.364.508.515 1.583 1.508 3.561 2.533 5.446 3.611.938.49 1.985.689 2.959 1.092.984.448 2.01.776 3.04 1.091 1.288.455 2.525 1.054 3.866 1.344 1.303.273 2.616.511 3.887.91 5.652 1.225 11.676 1.875 17.286.101a.703.703 0 0 0 .42-.741c-.052-.543-.661-.648-1.04-.907-.437-.203-.486-.675-.651-1.081a9.316 9.316 0 0 1-.588-1.96c-.449-1.602-.683-3.236.126-4.73.031 0 .063.007.098.01 1.471.032 2.945.091 4.419.081 1.471-.025 2.9-.399 4.343-.655.889-.15 1.779-.273 2.658-.469 2.311-.521 4.528-1.396 6.783-2.18 4.868-1.921 8.777-5.609 12.082-9.57 1.398-1.547 2.105-3.51 3.177-5.259.406-.732 1.099-1.333 1.366-2.124 0-1.12-1.114-.693-1.821-.714-1.303-.063-2.623-.742-3.548-1.659-.732-.878-1.163-1.97-1.954-2.806a40.08 40.08 0 0 0 9.109-4.545c4.244-2.705 8.636-5.592 11.455-9.858.627-1.053 1.481-1.931 2.178-2.928.739-1.362 1.618-2.677 2.038-4.178a.673.673 0 0 0 .06-.61c-.035-.342-.343-.657-.701-.633h-.01ZM131.716 18.14c.631-.704 1.324-1.512 1.688-2.415 1.335 2.012 1.58 4.738.151 6.778-1.187 1.904-2.987 3.702-5.369 3.727-1.558.133-3.176.22-4.766.189-.017-.018-.028-.039-.045-.056-.564-.665-1.328-1.19-1.678-2.002-.392-.609-.921-1.193-.931-1.952.112-.21.21-.434.399-.581 3.726-.315 7.767-.97 10.548-3.688h.003Zm-27.249-6.386a19.63 19.63 0 0 1 2.634-.35c2.356-.193 4.86-.05 7.242-.004 2.287-.203 4.622-.29 6.857-.969 2.479-.843 4.668-2.316 6.552-4.115.904-.882 1.846-1.774 2.315-2.974 1.628 4.1 1.807 7.012-.602 10.879-2.637 4.097-6.581 5.58-11.326 5.602a41.13 41.13 0 0 1-3.274-.326c-.33.014-.83.021-1.244.14a43.96 43.96 0 0 0-4.804-2.278 42.325 42.325 0 0 0-2.613-.87 1.002 1.002 0 0 0-.214-.172c-.413-.378-.896-.672-1.278-1.085-.522-.567-.833-1.27-1.236-1.914-.326-.819.319-1.277.987-1.557l.004-.007ZM2.974 21.597c-1.803-2.67-1.26-5.427-1.12-8.45 1.505 2.4 4.1 3.957 6.643 5.08 4.185 1.925 8.937 1.988 13.381 1.04 2.213-.441 4.287-.903 6.462-1.607 3.113-.692 6.258-1.536 9.494-1.08-3.916.874-7.421 2.973-10.794 5.066-.084.052-.171.098-.255.15-.382.193-.764.382-1.15.564-2.058.896-4.11 1.882-6.19 2.803-2.907.703-6.017 1.249-8.966.531-2.823-.573-5.712-1.746-7.501-4.097h-.004ZM24 28.308c-1.386 1.215-2.728 2.292-4.367 3.195-2.801 1.655-6.093 2.562-9.36 2.617-2.95-.153-5.632-1.788-7.604-3.943.151.017.298.038.431.073 2.09.315 4.23.01 6.297-.336 3.649-.689 7.106-1.963 10.492-3.422.046-.01.091-.024.14-.035 2.035-.686 4.049-1.522 5.919-2.572a69.84 69.84 0 0 0 1.306-.752c2.346-1.14 4.591-2.523 7.01-3.489-.63.417-1.309.756-1.894 1.236-1.173 1.07-2.392 2.089-3.544 3.18-1.562 1.47-3.096 2.978-4.83 4.252l.004-.004Zm-9.987 32.595c.007-.024.01-.049.014-.07.402-2.512.774-5.039 1.572-7.464 1.233-4.692 2.662-9.346 4.784-13.723 2.763-5.417 6.118-10.606 10.6-14.774 2.277-1.987 4.581-4.083 7.267-5.543 1.92-1.098 3.895-2.13 5.992-2.848 1.002-.381 2.056-.658 3.11-.92.252.024.536-.056.77-.165 1.584-.388 3.226-.458 4.826-.745 8.608-1.694 17.402-2.46 26.171-2.005 2.347.171 4.7.308 7.046.469 4.609.661 9.169 1.564 13.644 2.915 4.255 1.43 8.65 2.253 12.597 4.531 3.008 1.613 5.824 3.611 8.303 5.963 1.752 1.627 3.145 3.58 4.683 5.399 2.346 2.974 3.824 6.627 4.388 10.368.774 4.448-.203 8.986-1.107 13.36-.872 3.184-2.185 6.242-2.875 9.48-.34 1.766-.413 3.55-.326 5.335.126 3.024.484 6.75-2.686 7.559-.189.028-.378.049-.567.077-2.872-1.865-6.066-3.293-9.2-4.55-4.318-1.57-8.741-2.9-13.287-3.6-4.644-.539-9.347-.633-14.015-.43a70.716 70.716 0 0 0-9 1.025c-4.157.623-8.307 1.34-12.205 3.006a39.948 39.948 0 0 0-8.664 5.388c-.263.196-.662.55-.945.75-.242.192-.592.43-.834.703-1.32.227-2.623.542-3.89.951-3.471 1.25-6.536 3.356-9.806 5.015-1.436.86-3.037 1.294-4.686 1.518-2.917.602-6 .57-8.902-.108a14.354 14.354 0 0 1-1.765-.599 1.289 1.289 0 0 0-.39-.203c-.318-.206-.623-.444-.983-.58-.883-.54-1.618-1.302-2.273-2.096-2.217-2.65-3.73-5.875-4.78-9.165-1.307-3.254-2.105-6.711-2.417-10.224a15.373 15.373 0 0 1-.168-3.986l.004-.014ZM9.04 126.99c-1.037-3.653-1.587-7.394-1.818-11.184-.553-5.021-.623-10.067-.308-15.144.228-3.877.322-7.772.823-11.624.672-4.637 1.66-9.228 2.84-13.76a34.31 34.31 0 0 1 .648-2.207.641.641 0 0 0 .074-.175c.017-.077.035-.154.056-.235.084-.262.168-.528.248-.794.168.77.4 1.526.764 2.271 1.085 2.278 1.968 4.696 3.47 6.743 2.231 3.527 4.99 5.966 8.247 7.376.099.053.197.095.295.13 2.79 1.144 5.946 1.546 9.459 1.21 1.523-.248 3.057-.462 4.552-.846 2.35-.791 4.472-2.149 6.612-3.374 2.448-1.315 4.914-2.676 7.649-3.292 3.092-.672 6.401-.928 9.564-.658 2.977.395 5.782 1.403 8.538 2.533.052.046.108.088.171.123.105.056.21.077.309.077.675.28 1.351.567 2.027.853 4.805 2.145 9.456 4.626 14.093 7.107 5.494 2.817 10.89 5.994 16.963 7.419 2.816.619 5.18 1.074 7.876.434-.584 1.105-1.334 2.13-1.975 3.205a44.616 44.616 0 0 1-6.598 8.296c-3.764 3.678-8.271 6.498-12.94 8.93-2.808 1.221-5.61 2.537-8.615 3.205-3.12.609-6.279 1.138-9.466 1.246-2.36.063-4.78-.014-7.147-.14a36.02 36.02 0 0 1-1.52-.157 2.329 2.329 0 0 0-.69-.098c-3.06-.448-6.027-1.309-8.91-2.527-.693-.297-1.39-.584-2.066-.927-.44-.266-1.106-.714-1.516-.073-.193.321-.091.773.242.962.651.371 1.32.717 2.017.997 3.092 1.379 6.353 2.383 9.697 2.918.217.028.438.053.655.077 3.478.704 6.832 1.865 10.236 2.856 4.525 1.28 9.239 2.103 13.953 1.672 1.24-.042 2.472-.129 3.684-.371-.848 2.495-2.438 4.644-3.996 6.736-1.208 1.718-2.718 3.192-4.353 4.532a34.016 34.016 0 0 1-9.603 5.854c-4.475 1.739-9.427 1.739-14.082.763-2.826-.574-5.442-1.82-7.998-3.118-1.94-1.043-3.852-2.152-5.67-3.405a59.5 59.5 0 0 1-3.316-2.551.729.729 0 0 0-.102-.08.708.708 0 0 0-.97.122.705.705 0 0 0 .056.928c3.134 5.479 7.68 10.081 12.884 13.629 1.285.808 2.508 1.75 3.898 2.379.098.032.203.077.311.13-3.533 1.239-7.326 1.316-11.031 1.134-7.652-.385-15-3.199-21.408-7.338-8.59-5.69-14.246-12.671-16.82-22.755l.007-.014Zm37.325 17.674s-.008.017-.015.024c-.02-.024-.041-.052-.066-.08.028.018.053.039.077.053l.004.003Zm35.675 105.84c-.266-.231-.336-.609-.487-.914a.647.647 0 0 0-.08-.122 33.196 33.196 0 0 1 .157-4.255c.126-.955.322-1.9.462-2.855.193-1.393.193-2.807.519-4.185.297-1.232.287-2.499.402-3.752.193-2.215.463-4.419.512-6.641.287-3.125-.021-6.337-.967-9.332.067-.504-.01-1.061.392-1.449.316-.294.729-.465 1.132-.595.143-.017.287-.059.41-.126.444.109.892.217 1.33.347 1.706.444 3.65.636 4.941 1.963 1.503 1.452.34 3.471-.266 5.094a8.517 8.517 0 0 0-.462 2.593c-.108 6.47 5.173 5.55 7.981 9.438 1.688 2.991-.833 5.514-3.295 6.966-1.457 1.274-3.23 2.062-4.868 3.069-1.415 1.047-2.879 2.026-4.29 3.076-.43.318-.82.686-1.177 1.085a.723.723 0 0 0-.35.066c-.627.322-1.271.648-1.993.525l-.003.004Zm79.195-54.762c-2.129 1.998-4.01 4.283-5.488 6.805-1.737 2.782-3.144 5.753-4.972 8.482-1.548 2.52-3.453 4.798-5.492 6.936-2.336 2.323-4.846 4.444-7.599 6.277-1.191.396-2.686.378-3.67-.486a4.23 4.23 0 0 1-.55-.588c-.116-.21-.245-.451-.406-.637.133-1.326.098-2.67-.042-3.996-.372-1.928-1.082-3.786-1.279-5.784-.122-.833.116-1.648.27-2.463.214-1.565.858-3.062 1.916-4.245 2.5-2.306 6.118-2.246 9.266-1.529 3.054.773 5.978-.025 8.398-1.995 2.63-2.187 4.64-5.021 7.417-7.043.907-.735 1.909-1.299 2.956-1.775.014.004.028.011.042.018.154.049.298.133.438.21.203.15.312.43.385.693-.539.364-1.068.738-1.59 1.12Zm-63.793 4.755c1.061.812 2.248 1.466 3.537 1.826.616.186 1.25.319 1.863.518a.61.61 0 0 0 .336.004c3.989.983 8.023-.581 11.68-2.082 2.171-.941 4.304-2.019 6.244-3.377 2.623-1.882 5.347-3.622 8.047-5.392 3.194-1.781 6.385-3.345 9.943-4.353 2.094-.56 4.248-1.067 6.398-1.407 5.211-.567 10.555-.133 15.57 1.438 2.353.721 4.5 1.935 6.738 2.933-1.138.101-2.276.224-3.355.605-1.366.563-2.798.99-4.101 1.697-2.998 1.676-5.361 4.231-7.687 6.708-6.71 7.037-8.832 1.697-15.99 3.422-4.609 1.117-6.143 5.06-6.36 9.403.154 2.148.869 4.188 1.324 6.277.21 1.725.087 3.447-.098 5.193-.14.763-.259 1.585-.673 2.253a11.242 11.242 0 0 1-2.241 1.683 37.03 37.03 0 0 1-1.527.025c-4.237-.011-8.506-1.305-11.956-3.783-1.544-1.179-2.735-2.747-3.81-4.391a3.554 3.554 0 0 1-.137-.249c-.091-.265-.36-.43-.63-.44a.672.672 0 0 0-.343.021c-.354.119-.571.531-.438.888.658 1.683 1.362 3.367 1.629 5.165.196 1.795.238 3.611.035 5.406-.211 2.177-1.065 4.371-1.783 6.449a149.048 149.048 0 0 1-4.227 8.941c-1.432 2.873-2.945 5.756-3.684 8.898-1.615 7.145-.753 16.611 3.94 22.465-1.331-.333-2.69-.672-4.045-.952a36.851 36.851 0 0 1-5.936-2.323c-3.243-1.928-6.318-4.276-8.563-7.338-2.062-2.796-3.575-6.005-4.482-9.364a.655.655 0 0 0 .024-.126c-.007-.469-.014-.938.067-1.407.29-2.026 1.639-3.712 2.973-5.196 1.621-1.417 3.474-2.558 5.222-3.814 1.477-.885 3.088-1.582 4.374-2.747 2.108-1.291 4.332-3.142 4.633-5.756.287-3.335-2.406-5.382-5.103-6.704-.907-.553-1.877-1.054-2.553-1.9-1.316-1.984-.987-4.546-.017-6.621 1.268-2.859.602-5.273-2.319-6.638-2.556-1.109-5.501-1.109-7.96-2.453-.798-.483-1.558-1.025-2.22-1.686-.389-.343-.721-1.029-1.236-1.131a7.684 7.684 0 0 0-.956-.958c-.084-.046-.172-.102-.263-.158-.875-.826-1.817-1.592-2.738-2.365-3.296-2.695-6.773-5.144-10.22-7.635-5.361-3.892-10.25-8.392-15.275-12.699-3.432-3.006-6.756-5.959-9.778-9.427-2.75-3.146-5.145-6.585-7.494-10.046-2.378-3.737-4.826-7.429-6.805-11.397-1.065-1.889-2.003-3.845-2.886-5.826a40.641 40.641 0 0 1-1.323-2.831c7.21 5.949 16.095 9.91 25.435 10.683.816.042 1.635.081 2.455.109.136.836.371 1.651.602 2.463.568 2.271 1.53 4.413 2.648 6.463a34.649 34.649 0 0 0 1.733 2.792c.018.032.032.067.053.098a.72.72 0 0 0 .108.137c1.247 1.816 2.606 3.562 3.877 5.357 4.311 5.641 9.652 10.687 16.351 13.318 2.672 1.197 5.502 2.005 8.43 2.24 2.416.426 4.85.311 7.284.199.7-.074 1.373-.098 2.105-.105l.3-.031c-.17.297-.35.591-.514.895-.54.966-.9 2.016-1.373 3.01-.515 1.032-1.106 2.197-.739 3.38a.604.604 0 0 0 .084.154c.298.724 1.527.434 1.32-.497.54-.98 1.773-1.151 2.788-.836 1.38.717 2.396 2.033 3.684 2.925h.004Zm32.166-81.958c-.574 4.528-1.488 9.004-2.42 13.465-.928 3.811-2.238 7.502-3.656 11.155-1.821 4.311-3.873 8.563-6.304 12.569-1.873 3.146-3.694 6.334-5.855 9.294-1.94 2.957-3.754 5.994-5.848 8.85-1.783 2.271-3.555 4.755-5.488 6.928-.767.917-1.527 1.834-2.276 2.764-1.342 1.194-2.308 2.779-3.622 4.014-1.705 1.68-4.076 2.372-6.419 2.54-.416.105-1.06.025-1.488.196-.27 0-.536 0-.806-.003-2.633-.259-5.298-.49-7.834-1.288-4.195-1.442-8.177-3.503-11.609-6.33-4.385-3.79-7.803-8.496-11.126-13.209-.193-.364-.207-.791-.245-1.194-.144-.643-.301-1.287-.266-1.956.084-3.362 1.947-6.798 4.805-8.597.399-.252.742-.595 1.173-.787a.71.71 0 0 0 .683-.616.68.68 0 0 0 .028-.305c-.05-.353-.302-.479-.568-.602-.028-.042-.056-.084-.094-.119a.719.719 0 0 0-.428-.202h-.003c-1.282-1.148-2.164-2.674-2.812-4.252-.256-.679-.252-1.389-.287-2.113.5.154 1.001.297 1.512.416 5.156 1.193 10.685 1.193 15.651-.78 2.728-1.152 5.386-2.583 7.75-4.371 2.36-1.851 4.718-3.772 6.472-6.228 1.327-1.764 2.63-3.563 3.625-5.536.5-1.025.802-2.142 1.281-3.167.08-.507-.423-.941-.917-.791-.487.116-.995.06-1.478-.038-1.537-.35-2.676-1.575-3.88-2.52-.547-.479-.953-1.077-1.36-1.672.59-.203 1.17-.42 1.741-.669 3.485-1.326 6.777-3.058 9.89-5.101 2.5-1.606 4.928-3.367 7.074-5.428 2.669-2.596 5.033-5.476 7.004-8.636.942-1.595 2.13-3.072 2.785-4.818.29-.696-.235-1.144-.715-1.144a.8.8 0 0 0-.301.017c-.802.203-1.593.462-2.416.564-2.312.234-4.623-.417-6.868-.91-4.381-1.232-8.471-3.223-12.453-5.396-5.46-2.792-10.811-5.801-16.39-8.36-.49-.213-.984-.423-1.474-.636-.238-.249-.557-.469-.76-.683-.81-.755-1.632-1.777-1.835-2.914-.648-2.37.473-5.064 2.434-6.55a9.238 9.238 0 0 1 1.453-.813c.172-.063.347-.122.525-.167a.714.714 0 0 0 .396-.183c.235-.073.47-.14.707-.192.021-.01.035-.02.056-.031.284-.042.564-.088.848-.126 6.458-1.17 13.063-1.267 19.594-.823 6.146.504 13.742 2.6 20.004 5.641.206.15.458.273.658.395a29.12 29.12 0 0 1 4.892 3.377c2.154 1.56 4.101 3.545 5.31 5.945.213.459.427.962.605 1.473.046.392.084.784.116 1.176.578 4.692 1.271 9.378 1.464 14.105.206 5.116.052 10.256-.235 15.369v.003Zm60.596 5.707-.049.007c-.007-.014-.014-.028-.021-.038.025.01.046.024.07.035v-.004Zm18.456-23.339c-.676.927-1.474 1.76-2.063 2.754-2.857 4.37-7.435 7.239-11.774 9.983-5.032 3.303-10.842 5.315-16.827 5.934-5.876.774-11.935.459-17.65-1.158-2.375-.84-4.704-1.833-6.889-3.093-.718-.48-1.39-1.022-2.08-1.54a.707.707 0 0 0-.981.151.709.709 0 0 0 .151.979c2.833 2.359 6.307 3.769 9.764 4.959 1.901.504 3.834.882 5.789 1.134a.6.6 0 0 0 .297.105c1.758.213 3.467.78 5.141 1.343 2.357.655 4.675 1.431 7.039 2.061 4.161.907 8.517 1.701 12.762.976.196-.055.413-.087.63-.115-.728 1.12-1.233 2.362-1.901 3.517-1.51 2.281-3.443 4.321-5.467 6.176-1.702 1.581-3.719 3.03-5.824 4.073-2.077.973-4.283 1.641-6.461 2.355-1.625.514-3.324.7-4.991 1.025-.931.185-1.859.385-2.808.455-2.564.056-5.152.073-7.663-.507-1.898-.301-3.761-1.257-5.428-2.222-1.184-.907-2.455-1.691-3.495-2.768-.753-.637-1.615-1.166-2.175-2.002-.557-.864-1.043-1.77-1.572-2.652a.708.708 0 0 0-.96-.242c-.196.137-.287.294-.315.462a.73.73 0 0 0-.046.644c1.072 2.708 2.893 5.039 4.455 7.481 1.107 1.459 1.993 3.066 3.11 4.518 1.639 2.131 3.572 3.891 5.701 5.539.837.654 1.758 1.172 2.683 1.683-4.448.973-9.05.374-13.49-.399a34.139 34.139 0 0 0-2.122-.539.746.746 0 0 0-.557-.203 13.503 13.503 0 0 1-1.552-.528c-1.467-.427-2.668-1.456-3.81-2.435a18.48 18.48 0 0 0-1.271-1.299c-.357-.493-.679-.969-1.072-1.532-.875-1.355-1.439-3.031-2.01-4.549-1.373-3.947-2.626-7.985-2.644-12.209 0-1.889-.091-3.786.035-5.676.025-.161.042-.328.042-.493.34-1.966.623-3.944.743-5.935.154-3.863.283-7.733.206-11.599a1.8 1.8 0 0 0 .056-.585c.088-.951.21-1.875.294-2.852a30.55 30.55 0 0 1 2.151-8.611c1.432-3.594 3.327-6.897 6.139-9.626 1.239-1.197 2.525-2.604 4.006-3.632.392-.287.813-.557 1.212-.85 3.047-1.943 6.247-3.612 9.858-4.147 5.519-.585 11.179.591 16.155 3.016 2.15 1.05 4.052 2.52 6.041 3.839 2.143 1.396 3.999 3.167 6.038 4.696 6.874 4.94 14.179 10.147 22.84 11.06 1.411.217 2.819.064 4.223-.111-.434 1.105-1.096 2.148-1.663 3.187v.004Z"/><path fill="#000" d="M64.41 61.316c1.457 1.218 3.18 2.362 5.008 2.929 3.491 1.637 6.328.602 9.602-.93 3.345-1.628 6.262-4.19 7.925-7.545 1.006-2.03 1.825-4.241 1.517-6.54-.21-2.523-1.05-5.032-2.742-6.953-1.629-1.6-3.572-2.922-5.596-3.968-.708-.311-1.37-.7-2.102-.948-1.502-.287-3.06-.592-4.59-.35-1.216.119-2.333.675-3.492 1.025-1.167.413-2.098 1.242-3.054 1.995-3.737 2.6-6.143 7.757-6.286 12.254.37 3.254 1.393 6.704 3.81 9.035v-.004Zm3.365-20.211c1.135-.987 2.375-1.813 3.856-2.16a7.534 7.534 0 0 1 4.563-.461c.36.406 1.016.353 1.506.521a6.076 6.076 0 0 1 2.084.68c4.132 2.414 6.671 4.25 7.25 9.321.395 2.537-.645 4.98-1.903 7.128-1.404 2.386-3.558 4.164-5.939 5.525-1.744.836-3.53 1.746-5.47 1.984-1.222.178-2.406-.13-3.523-.609-1.657-.458-3.068-1.417-4.458-2.407-2.357-1.89-4.035-6.666-3.657-9.64.676-3.79 2.452-7.643 5.691-9.886v.004ZM114.906 34.96c-2.031-.3-4.094.816-5.242 2.474-.995 1.414-1.454 3.118-1.899 4.763-.318 3.614 1.23 7.208 3.198 10.161.858 1.228 1.968 2.3 3.372 2.866 2.172 1.32 4.998.724 6.654-1.144 1.797-1.967 2.108-4.777 2.224-7.328-.077-2.526-.767-5.028-2.122-7.173-.753-1.477-1.702-3.006-3.222-3.786-.862-.525-1.937-1.015-2.963-.833Zm.883 1.428c1.365.34 2.546 1.33 3.327 2.495.963 1.694 1.978 3.394 2.398 5.319.519 2.767.382 5.875-1.085 8.342-.932 1.378-2.711 2.372-4.381 1.879-1.243-.466-2.483-1.043-3.324-2.11-2.111-2.499-4.598-7.982-3.166-11.163.47-2.166 2.025-4.843 4.525-4.759.291-.041.571 0 .876-.024.283-.077.556-.056.833.02h-.003ZM91.659 54.528c-.035.252.066.518.203.745.088.528.28 1.032.536 1.505.515 1.165 1.278 2.173 2.16 3.069.424.552.904 1.021 1.29 1.2.707.647 1.432 1.277 2.307 1.686 1.79.83 4.042.865 5.821-.007 1.365-.84 2.815-1.588 3.726-2.984a.653.653 0 0 0 .094-.158c1.429.29 2.869.455 4.315.567.55.035 1.324.472 1.754.077a.69.69 0 0 0 .193-.077c.319-.193.448-.647.238-.962-.441-.662-.83-1.358-1.282-2.012-.788-1.25-2.01-2.131-2.812-3.377-1.061-1.774-2.308-3.37-3.477-5.088-1.163-1.526-2.294-3.11-3.677-4.444-2.592-2.138-5.005-2.87-7.694-.402-1.023.965-1.839 1.998-2.441 3.272-.375.493-.694 1.021-.848 1.627-.21.71-.227 1.459-.42 2.173-.273.713-.22 1.476-.133 2.218.035.329.06.864.15 1.372h-.003Zm11.938 6.512c-.241.353-.609.44-1.005.525-.602.192-1.232.374-1.866.381a6.088 6.088 0 0 1-.673-.073c-1.54-.347-2.731-1.512-3.8-2.61-.451-.515-1.015-.956-1.236-1.631.064-.12.14-.245.207-.375.319.08.63.15.932.227 2.034.557 4.118.879 6.188 1.26.203.19.493.333.732.448.381.298.879.78.837 1.298-.004.242-.137.41-.316.557v-.007ZM93.105 50.808c.158-.798.165-1.662.606-2.369.445-.591.77-1.249 1.114-1.896.84-1.04 1.761-2.096 3.008-2.653 1.769-.679 3.569.773 4.791 1.932a53.365 53.365 0 0 1 3.873 5.025c.988 1.249 1.807 2.624 2.693 3.947.708 1.105 1.779 1.893 2.522 2.964.224.325.448.678.672 1.042-.136-.014-.263-.024-.368-.038-.514-.098-1.029-.168-1.558-.13-.564-.063-1.117-.227-1.685-.273-1.148-.283-2.328-.329-3.498-.48-2.175-.412-4.343-.839-6.524-1.217-1.177-.22-2.322-.567-3.485-.84-.721-.213-1.492-.434-2.024-.99-.018-.031-.035-.063-.06-.094-.276-.718-.245-1.516-.329-2.268-.098-.577.144-1.105.252-1.662ZM104.889 35.37c.452.36.963-.018 1.331-.312.326-.245.658-.476 1.002-.693.973-.546 2.09-.8 3.158-1.102 1.587-.413 3.261-.623 4.9-.805 1.527.021 2.703-1.504 2.476-2.974.028-1.256-.97-2.082-1.608-3.051-2.5-3.629-7.095.203-9.116 2.512-.696.703-1.379 1.487-1.943 2.345-.673.958-1.744 1.99-1.573 3.254.14.57.785 1.239 1.377.822l-.004.004Zm1.681-3.755c1.499-1.84 3.128-3.723 5.285-4.8 1.614-.697 2.521-.764 3.47.881.294.507.827.864.977 1.449.494 2.495-1.695 1.756-3.274 2.204a24.467 24.467 0 0 0-5.834 1.452c-.841.35-1.513.983-2.287 1.438-.011-.01-.018-.02-.028-.031.343-.973 1.127-1.736 1.691-2.596v.003ZM73.078 33.683c.756-.171 1.527-.077 2.29-.098.746-.02 1.499-.098 2.238.039 1.604.322 3.145.906 4.62 1.616.973.49 1.862 1.228 2.878 1.662.574.172 1.362-.154 1.527-.762.136-.574-.13-1.106-.379-1.603-.416-1.837-1.982-3.076-3.334-4.262-.654-.388-1.064-1.011-1.565-1.564-.347-.36-.777-.602-1.194-.875-.69-.574-1.464-1.046-2.368-1.193-2.433-.973-5.792-.634-7.084 1.935-.623 1.403-1.12 2.995-.406 4.465.399 1.19 1.842.917 2.78.64h-.003Zm-1.587-3.18c.238-.707.431-1.453.963-2.006 1.78-1.55 3.895-.902 5.887-.224.645.417 1.265.879 1.895 1.313.417.378.693.885 1.114 1.26 1.13.86 2.237 1.784 3.113 2.977.326.448.347 1.025.602 1.505-2.34-1.557-4.987-2.761-7.785-3.157-1.404.014-2.826-.059-4.223.095-.49.066-.96.308-1.46.255-.27-.636-.375-1.364-.11-2.019h.004Z"/><path fill="#000" d="M67.551 56.687c.442.759 1.254 1.19 1.769 1.896 1.092 1.208 4.073 1.494 5.614 1.215.623-.175 1.208-.476 1.807-.721.756-.28 1.547-.564 2.115-1.166 2.27-2.239 4.066-5.217 4.02-8.489-.01-.136-.02-.269-.035-.405-.22-2.205-1.068-4.504-2.966-5.785-.525-.57-1.065-.913-1.828-1.15a.693.693 0 0 0-.455-.35c-2.067-.515-4.315-.078-6.09 1.08.266.067.5.21.735.354.29.178.511.451.683.742.073.13.147.259.206.395.084.196.13.403.155.613l.01.094c.028.28.032.574-.003.847a3.273 3.273 0 0 1-.267.927 2.242 2.242 0 0 1-.248.448c-.19.266-.494.434-.792.556-.318.13-.655.252-.998.308a3.416 3.416 0 0 1-.536.032c-.178 0-.353 0-.528-.01a2.908 2.908 0 0 1-1.496-.568 2.297 2.297 0 0 1-.234-.217l-.032-.031c-.06-.042-.119-.08-.175-.126a1.256 1.256 0 0 1-.27-.308c-1.513 2.533-2.318 5.637-1.12 7.87.364.63.606 1.319.963 1.949h-.004ZM112.651 39.037c-.473.332-.837.79-1.11 1.333.199-.024.402-.007.598.046.077.02.154.045.228.077.27.087.515.276.697.482.224.26.378.57.413.91.007.053.007.105.007.161 0 .168-.017.333-.073.49a1.846 1.846 0 0 1-.235.451c-.21.301-.529.525-.883.62-.063.014-.122.028-.185.038a1.702 1.702 0 0 1-.722.077 1.234 1.234 0 0 1-.469-.164l-.031-.021c-.032 2.484.756 5.242 1.747 6.676.452.7 1.075 1.228 1.73 1.732 1.149.62 2.669.868 3.894.33 2.235-1.057 1.881-4.15 1.808-6.222-.211-1.886-.652-3.804-1.787-5.371-.486-.697-1.099-1.39-1.88-1.75-.431-.245-.949-.231-1.422-.326-.63-.696-1.702.039-2.325.434v-.003ZM22.928 42.176c1.001.3 1.071-1.127 1.488-1.726.742-1.581 1.394-3.275 2.507-4.713.519-.752-.605-1.55-1.141-.812-1.43 1.921-2.287 4.178-3.268 6.348a.712.712 0 0 0 .41.903h.004ZM22.368 45.23c.367-.017.704-.353.665-.73-.038-.379-.336-.687-.732-.666-.367.018-.704.354-.665.732.038.377.336.685.732.664ZM14.361 24.564c.75.056 1.496.032 2.241-.08.54-.08 1.209-.074 1.58-.54.224-.307.119-.762-.19-.972-.469-.304-.934.133-1.431.108-1.275.204-2.736.085-4.045-.038-.498-.066-.974-.238-1.44-.42-.875-.287-1.32.994-.462 1.323 1.184.514 2.476.58 3.75.616l-.003.003ZM7.933 21.219c-.368.021-.7.357-.662.735.038.378.343.682.735.661.368-.02.7-.357.662-.735-.039-.377-.343-.682-.735-.661ZM60.796 42.18c-.97 1.374-2.045 2.742-2.574 4.362-.143.746-1.142 2.093-.122 2.544.346.12.788-.066.893-.433.41-1.299.784-2.544 1.572-3.685.413-.585.795-1.197 1.219-1.774.168-.21.343-.417.36-.697.056-.773-1.05-1.028-1.344-.314l-.004-.004ZM57.853 50.2c-.371.024-.686.37-.651.748.038.378.36.675.75.65.37-.024.686-.37.65-.748a.713.713 0 0 0-.749-.65ZM87.3 59.469c-.28.451-.68 1.063-1.097 1.497-.406.4-.763.644-1.25 1.008-.312.21-.41.658-.19.97.204.3.67.423.97.188 1.255-.864 2.46-2.019 2.978-3.471a.71.71 0 0 0-.652-.745c-.367-.028-.627.241-.756.55l-.004.003ZM83.064 63.619c-.371.024-.686.37-.651.748.038.378.36.676.75.651.37-.024.686-.37.65-.749a.713.713 0 0 0-.749-.65ZM101.542 49.387c.333.515.739.977 1.086 1.48.196.333.602.483.956.29 1.061-.734-.529-1.815-.879-2.55-.403-.577-.84-1.127-1.226-1.718-.196-.294-.343-.63-.647-.833-.319-.21-.771-.087-.963.231-.218.343-.06.703.185.966.438.738.949 1.375 1.488 2.134ZM105.363 52.785c.287-.9-1.275-1.361-1.541-.462-.287.903 1.275 1.361 1.541.462ZM81.829 26.566c.606.58 1.156 1.21 1.674 1.872.424.458.861 1.452 1.61.948.792-.672-.29-1.452-.679-2.022a17.85 17.85 0 0 0-1.299-1.474c-.329-.329-.68-.762-1.194-.727-.855.024-.963 1.277-.116 1.403h.004ZM86.14 32.025a.704.704 0 0 0 .63-.763.706.706 0 0 0-.763-.63.704.704 0 0 0-.63.763.706.706 0 0 0 .763.63ZM51.837 18.245c2.277-.942 4.812-1.267 7.264-1.484a52.723 52.723 0 0 1 1.971-.094.712.712 0 0 0 .697-.707c0-.371-.322-.707-.704-.697a42.85 42.85 0 0 0-2.504.137c-2.398.196-4.776.647-7.053 1.424-.529.168-1.057.745-.651 1.288.227.297.683.37.98.133ZM64.61 16.919c.389-.053.637-.41.599-.791-.039-.378-.424-.648-.792-.599-.389.053-.637.41-.599.791.039.378.424.648.792.599ZM111.26 14.007c.326.007.641.105.963.144 2.266.241 4.641.374 6.843-.312.886-.27.515-1.574-.371-1.35-1.443.507-2.987.42-4.493.447-.567-.052-1.135-.094-1.698-.16-.739-.133-2.27-.5-2.088.738.102.374.477.57.844.493ZM122.33 12.576c.589-.864-.697-1.61-1.222-.717-.588.864.697 1.61 1.222.717ZM125.114 25.18c.781.189 1.576.056 2.347-.115.585-.126.693-1.001.171-1.281-.469-.235-.987.084-1.488.084-.501.07-1.005-.231-1.485-.01-.798.332-.368 1.546.459 1.319l-.004.003ZM129.362 23.973c.389-.053.637-.41.599-.79-.039-.379-.424-.648-.792-.6-.389.053-.637.41-.599.792.039.378.424.647.792.598ZM123.195 62.058c-.375 1.078-.648 2.183-.746 3.32-.049.379.185.742.574.809 1.159.087.781-1.501 1.061-2.229.561-2.414 1.923-4.56 2.34-7.012.837-2.894-1.622-2.667-1.279-1.323.042 2.257-1.313 4.31-1.95 6.431v.004ZM122.435 68.405c-.7.648.459 1.852 1.142 1.197.7-.647-.459-1.85-1.142-1.197ZM23.082 89.719c-2.105-.92-3.94-2.341-5.58-3.933-.528-.56-.892-1.078-1.361-1.736-.214-.332-.484-.71-.921-.714-.74-.052-1.023.984-.372 1.316 1.454 2.208 3.492 3.979 5.747 5.336 1.1.721 2.332 1.204 3.58 1.61a.705.705 0 0 0 .889-.434c.27-1.092-1.324-1.05-1.986-1.445h.004ZM27.9 92.54c.372-.025.687-.368.652-.75a.713.713 0 0 0-.75-.65c-.37.024-.686.367-.65.748.038.378.36.68.748.651ZM72.478 87.493c1.611.56 3.016 1.59 4.494 2.422.739.325 2.14 1.924 2.784.843.255-.493-.154-.924-.603-1.095-.336-.206-.654-.44-.987-.654-1.503-.907-2.987-1.865-4.584-2.604-2.105-1.14-2.49 1.138-1.1 1.088h-.004ZM81.714 92.368c1.008-.459.252-1.764-.704-1.239-1.005.462-.252 1.767.704 1.239ZM48.647 115.987c1.45 1.603 3.324 2.726 5.218 3.723 1.222.718 2.497 1.337 3.835 1.802 1.303.539 2.651.903 4.052 1.043a.712.712 0 0 0 .823-.553c.154-1.196-1.762-.829-2.515-1.151-3.232-.969-6.23-2.572-8.986-4.5-.76-.514-1.24-1.417-2.087-1.781a.707.707 0 0 0-.89.437c-.16.487.182.77.554.98h-.004ZM65.016 122.842c.371-.024.686-.367.651-.749-.038-.378-.36-.679-.75-.651-.37.025-.686.368-.65.749.038.378.36.679.749.651ZM63.086 146.553c.416.066.826.178 1.243.241 2.15.318 4.42.06 6.496-.563a21.34 21.34 0 0 1 1.677-.511.766.766 0 0 0 .466-.28c.375-.469-.084-1.235-.68-1.106-.479.109-.948.252-1.414.403-1.215.482-2.521.612-3.814.755a9.78 9.78 0 0 1-2.574-.094c-.704-.112-2.034-.675-2.115.465.01.375.333.697.715.683v.007ZM75.6 143.865c.444-.986-1.013-1.483-1.339-.462-.444.991 1.013 1.484 1.338.462ZM42.553 147.403c.582.441 1.422 1.676 2.154.847.231-.315.15-.742-.15-.98-.46-.364-.911-.742-1.314-1.165-.57-.7-1.183-1.508-1.467-2.352-.042-.917-1.4-.882-1.4.035-.018.343.076.655.262.941.553.949 1.1 1.918 1.915 2.67v.004ZM46.472 150.801a.704.704 0 0 0 .452-.277.736.736 0 0 0 .126-.525c-.038-.378-.445-.637-.805-.577a.702.702 0 0 0-.452.276.737.737 0 0 0-.126.525c.038.378.445.637.805.578ZM12.48 128.304c-.353-.773-.227-2.89-1.607-2.264-.381.263-.364.756-.112 1.099.154.85.34 1.687.778 2.446.252.728.595 1.414.952 2.096a.706.706 0 0 0 .942.305c.897-.546-.08-1.495-.304-2.163a13.848 13.848 0 0 0-.652-1.519h.004ZM14.916 133.378a.706.706 0 0 0-.637.756.708.708 0 0 0 .756.637.706.706 0 0 0 .637-.756.708.708 0 0 0-.756-.637ZM123.345 85.996c.06.105.182.287.267.483.154.35.616.469.942.304 1.985-1.284-5.226-6.442-6.409-7.061-2.273-1.403-4.616-2.698-7.109-3.678-.687-.171-1.797-.994-2.392-.36-.252.287-.203.742.084.987.445.255.998.318 1.471.549 4.234 1.728 10.478 5.05 13.146 8.776ZM124.778 88.078a.705.705 0 0 0-.637.756.708.708 0 0 0 .756.636.706.706 0 0 0 .638-.755.708.708 0 0 0-.757-.637ZM123.416 137.339c-1.163-.647-2.129 2.789-2.469 3.573-.599 1.47-1.184 2.957-1.954 4.349-.417.819.784 1.453 1.236.655.823-1.498 1.453-3.094 2.091-4.679.357-1.035.756-2.05 1.386-2.953.2-.325.028-.777-.294-.945h.004ZM117.267 147.847c-.368.018-.701.354-.666.735.039.378.336.682.736.665.367-.018.7-.353.665-.735-.039-.378-.336-.682-.735-.665ZM50.467 168.996c-.494-.958-.872-1.973-1.271-2.974-.112-.318-.21-.64-.312-.966-.108-.357-.252-.843-.683-.924-.374-.07-.753.133-.844.518a.72.72 0 0 0 .091.536 33.94 33.94 0 0 0 1.485 3.863c.358.602.666 1.945 1.608 1.462.62-.388.203-1.053-.077-1.515h.003ZM51.34 171.747c-.392.059-.623.416-.589.798.04.381.435.643.799.587.392-.059.623-.416.588-.797-.038-.382-.434-.641-.798-.588ZM70.38 200.709a.708.708 0 0 0-.844.518c-.108.434.228.83.659.879.556.244 1.085.563 1.604.874 1.442.914 2.787 1.942 3.981 3.178.592.472 1.128 1.942 2.042 1.315.82-.777-.627-1.686-1.058-2.309-1.838-1.813-3.964-3.51-6.387-4.451l.003-.004ZM79.027 208.667c-.392.059-.623.416-.588.797.039.382.434.641.799.588.392-.059.623-.416.588-.798-.039-.381-.434-.64-.799-.587ZM105.461 217.775c.959 1.547 1.667 3.275 2.175 5.025.224.903.493 1.802.567 2.733.042.381.434.643.798.587.942-.202.491-1.35.407-2.008-.431-1.893-.96-3.622-1.846-5.392-.368-.714-.634-1.564-1.282-2.082-.749-.522-1.551.598-.819 1.137ZM108.661 228.164c-.392.059-.623.416-.588.798.038.381.434.64.798.588.393-.06.624-.417.589-.798-.039-.382-.435-.641-.799-.588ZM134.482 192.875c1.086-.606 2.273-1.123 3.429-1.624.903-.294 1.856-.35 2.773-.595.886-.259.522-1.564-.367-1.35-1.447.297-2.918.482-4.234 1.21-.638.301-1.254.634-1.902.907-.452.196-1.002.552-.946 1.112.056.592.904.83 1.247.336v.004ZM144.221 190.135c.714-.854-.567-1.704-1.177-.801-.707.853.554 1.704 1.177.801ZM69.887 181.264a17.655 17.655 0 0 1-1.53-1.357c-.463-.574-1.57-1.557-2.063-.508a.706.706 0 0 0 .44.896c.404.284.687.711 1.062 1.029.82.752 1.702 1.431 2.599 2.085.308.224.76.133.973-.174.553-.942-.977-1.407-1.485-1.971h.004ZM72.857 183.042c-.378.053-.627.451-.564.815.115.63.784.613 1.282.501.378-.049.627-.452.563-.812-.115-.63-.784-.612-1.281-.5v-.004ZM87.527 261.91c-.515-1.333-1.044-2.659-1.488-4.017a.709.709 0 0 0-.746-.514c-1.114.213-.403 1.385-.207 2.061.63 1.735 1.23 3.474 2.318 4.989.2.322.603.469.95.28.322-.175.48-.629.28-.948-.379-.609-.788-1.207-1.107-1.851ZM89.138 265.871c-.515.805.91 1.669 1.407.868.515-.801-.913-1.669-1.407-.868ZM165.909 78.77c-.682-.266-1.372-.514-2.055-.773-2.322-.847-4.896-1.39-7.369-1.022-.767.056-1.229 1.025-.476 1.456a.707.707 0 0 0 .753-.08c.427-.081.862-.102 1.292-.11 1.912.099 3.832.448 5.607 1.18.599.227 1.198.44 1.793.675.357.14.771-.087.89-.437.126-.36-.074-.75-.438-.889h.003ZM167.423 80.156c-.936.58-.078 1.76.854 1.158.935-.577.077-1.757-.854-1.158ZM160.559 114.952c-.694-.203-1.335-.557-2-.833a22.193 22.193 0 0 1-2.318-1.253c-.28-.248-.69-.325-.995-.063-.522.465-.136 1.116.41 1.34.676.399 1.348.798 2.059 1.13.795.224 2.844 1.754 3.281.571.12-.347-.07-.784-.437-.889v-.003ZM163.266 115.28c-.519.189-1.1.515-.816 1.155.294.609.966.361 1.425.105.819-.416.231-1.634-.606-1.263l-.003.003ZM157.823 140.758c1.923.311 3.856.686 5.806.385.911-.137.736-1.48-.178-1.389-1.825.287-3.632-.105-5.428-.382-.915-.105-1.104 1.239-.2 1.386ZM167.801 140.016c.186-.567-.508-1.127-1.019-.801-.427.217-.855.647-.567 1.148.388.682 1.358.241 1.586-.347ZM133.883 134.298c-.325-.713 0-1.987-.977-2.201a.702.702 0 0 0-.791.595.697.697 0 0 0 .119.497c.063.382.109.763.203 1.141.329 1.204.911 2.334 1.629 3.352.217.315.682.364.98.14.48-.357.238-.927-.077-1.295a10.42 10.42 0 0 1-1.086-2.225v-.004ZM137.014 139.911a.71.71 0 0 0-.606.784c.039.378.413.651.785.605a.707.707 0 0 0 .605-.783c-.038-.378-.413-.651-.784-.606Z"/></g><defs><clipPath id="a"><path fill="#fff" d="M0 0h212v279H0z"/></clipPath></defs></svg>