<svg xmlns="http://www.w3.org/2000/svg" width="303" height="302" fill="none"><g clip-path="url(#a)"><path fill="#EF9FFF" d="M146.224 98.535c-1.188-.856-1.978-2.052-1.978-3.574 0-.576.114-1.205.364-1.876 1.567-3.167 5.352-4.52 8.811-4.24a2.085 2.085 0 0 0-.373.803l-.029.137c-.009.052-.019.104-.023.16-.01.077-.015.157-.015.233v.061c.01.255.038.515.128.752.1.269.251.505.436.718.194.227.421.407.686.544.255.137.549.189.832.217.507.047.994-.109 1.453-.312.45-.198.819-.492 1.089-.898.037-.057.071-.113.099-.17.114-.218.175-.445.184-.676 3.635 2.737 1.86 7.69-3.061 9.18a7.664 7.664 0 0 1-.98.298c1.936-.251 3.81-.922 5.414-2 3.449-2.193 5.049-6.75 2.096-10.026-5.139-5.88-18.777-3.366-18.857 5.308.151 2.388 1.722 4.212 3.715 5.356l.009.005ZM209.727 142.052c-2.389.151-4.216 1.72-5.361 3.71.856-1.186 2.054-1.975 3.577-1.975a5.39 5.39 0 0 1 1.879.363c3.17 1.565 4.524 5.347 4.245 8.802a2.093 2.093 0 0 0-.805-.373l-.137-.029a1.89 1.89 0 0 0-.161-.023 1.806 1.806 0 0 0-.232-.014h-.061a2.357 2.357 0 0 0-.753.127c-.27.099-.506.251-.719.435a2.25 2.25 0 0 0-.544.686c-.137.255-.19.548-.218.831-.047.506.109.993.312 1.452.199.449.492.817.899 1.087.053.038.109.066.166.099.218.114.445.18.681.185-2.739 3.63-7.698 1.857-9.189-3.059a7.587 7.587 0 0 1-.298-.978c.251 1.933.923 3.805 2.001 5.407 2.196 3.446 6.758 5.044 10.037 2.094 5.887-5.133 3.369-18.756-5.314-18.837l-.005.01ZM87.958 141.116c-5.887 5.133-3.37 18.757 5.314 18.837 2.39-.151 4.216-1.721 5.361-3.711-.856 1.187-2.053 1.976-3.577 1.976a5.37 5.37 0 0 1-1.879-.364c-3.17-1.564-4.524-5.346-4.244-8.802.24.185.515.308.804.374l.137.028a2.004 2.004 0 0 0 .393.038h.062c.255-.009.515-.038.752-.128.27-.099.506-.25.72-.434.226-.194.406-.421.543-.686.138-.255.19-.548.218-.832.047-.506-.109-.993-.312-1.451a2.462 2.462 0 0 0-.9-1.087c-.051-.038-.108-.066-.165-.1a1.541 1.541 0 0 0-.681-.184c2.74-3.63 7.699-1.858 9.19 3.059.117.307.217.638.297.978-.25-1.933-.922-3.805-2.001-5.408-2.196-3.446-6.758-5.043-10.037-2.094l.005-.009Z"/><path fill="#fff" d="M158.684 101.849c10.921-5.536 10.879-21.23-.048-26.708-10.24-5.205-22.481 2.93-21.648 14.356.629 10.621 12.27 17.197 21.696 12.352Zm-16.505-12.46c3.189-5.74 11.352-7.366 17.035-4.6 3.875 1.758 6.189 6.33 4.117 10.3-1.742 3.446-5.471 5.417-9.162 5.942-6.847 1.243-15.677-3.962-11.986-11.648l-.004.005ZM144.312 200.147c-10.922 5.535-10.879 21.229.047 26.708 10.24 5.204 22.482-2.931 21.649-14.356-.629-10.622-12.27-17.197-21.696-12.352Zm16.505 12.46c-3.189 5.739-11.352 7.365-17.035 4.6-3.876-1.759-6.19-6.33-4.117-10.3 1.741-3.446 5.47-5.418 9.161-5.942 6.847-1.244 15.677 3.961 11.986 11.647l.005-.005Z"/><path fill="#EF9FFF" d="M187.236 189.676c-.27-.17-.682-.321-.956-.538-1.193-.676-2.39-1.348-3.582-2.028-4.112-2.321-8.229-4.652-12.337-6.973-4.249-2.401-8.503-4.802-12.752-7.208-.862-.487-1.732-.974-2.594-1.466-.056-.028-.094-.075-.137-.118-1.386-.813-2.678-1.867-4.296-2.018-1.671.071-3.147.841-4.581 1.555-.473.255-.923.539-1.387.803-.004 0-.009.01-.014.015-9.473 5.559-18.947 11.113-28.415 16.667a.572.572 0 0 1-.322.08c-1.003.568-1.907 1.286-2.854 1.943.015-.014.024-.019.038-.033-1.102.738-1.282 1.612-1.277 2.647a.59.59 0 0 1 .08.303v41.635c.014.09.019.19 0 .298v.383a.57.57 0 0 1-.024.161c-.004.794.142 1.621.715 2.179 1.098 1.205 2.47 2.094 3.852 2.921.303.27.913.449 1.249.752 3.478 1.966 6.961 3.928 10.439 5.899 4.211 2.383 8.423 4.76 12.634 7.143.156.061.303.17.403.298.298.222.619.468.865.699.781.719 1.851 1.144 2.395 2.094.274.643.606 1.499.066 2.094-1.083 1.078-2.801.823-4.188.969h.076c-3.36.076-6.677.227-10.027.397-2.787.09-5.603.067-8.262 1.007-4.581 1.598-8.589 6.292-9.734 10.962-.421 1.763-.445 3.579-.473 5.38 0 .019.009.033.009.047v16.214c.005.028.019.047.019.075a7.832 7.832 0 0 0-.019.317v.232l-.014.061c-.009.482.033.969.1 1.451.033.591.018 1.045.146 1.579.417.69 1.32 1.049 2.115 1.03 2.617.317 5.229.275 7.846.213 3.379-.047 6.743-.104 10.112-.373 2.135-.156 4.354-.411 6.332-1.225 2.602-1.039 4.703-2.996 6.421-5.124 1.519-1.82 2.631-3.942 4.491-5.388 1.188-.728 2.465-.648 3.237.614 2.872 3.654 5.952 7.322 9.904 9.842 3.033 1.716 6.568 2.264 9.979 2.571 2.736.161 5.49.128 8.22-.075.483-.128 1.017-.043 1.514-.109 1.358-.151 2.693-.274 4.013-.515 1.173-.275 2.442-.275 3.544-.785.284-.227.407-.558.577-.87.114-.444.09-.77.161-1.172a.593.593 0 0 1-.042-.203v-17.084c0-.057.019-.109.033-.161a5.52 5.52 0 0 1-.019-.387c-.104-7.025-4.576-13.326-10.614-16.653-5.163-2.189-10.898-2.217-16.401-2.312-1.685-.014-3.369-.033-5.044-.208-.729-.014-1.505-.076-2.082-.572-.63-.525-.653-1.536-.27-2.212.639-.851 1.533-1.286 2.371-1.877.246-.127.619-.383.989-.553a.524.524 0 0 1 .085-.061c5.953-3.494 11.905-6.987 17.858-10.475 1.746-1.021 3.488-2.052 5.234-3.068a.584.584 0 0 1 .142-.062c.544-.298 1.084-.609 1.637-.888-.009 0-.014.009-.024.009 1.042-.548 2.021-1.215 2.991-1.881 1.24-.752 2.342-1.693 2.764-3.115.227-.643.293-1.319.355-1.995v-.01c0-.023-.005-.042-.01-.066v-38.535a2.612 2.612 0 0 1 .014-.571v-.052c.256-2.818-1.121-3.305-3.279-4.524l.005.004Zm-66.911 51.709c-.435.657-1.15-.009-1.623-.274-1.23-.666-2.48-1.352-3.469-2.359-.298-.118-.425-.486-.307-.77.374-.728 1.112-.189 1.467.246.908.832 1.992 1.342 3.042 1.952.436.269 1.25.558.89 1.21v-.005Zm1.301 1.433a.598.598 0 0 1-.591-.591c0-.322.27-.591.591-.591.322 0 .592.269.592.591 0 .321-.27.591-.592.591Zm2.584-55.217c-1.897.889-3.544 2.307-5.394 3.267-.597.189-1.363 1.134-1.912.496-.521-.837.766-1.172 1.296-1.508 1.941-1.007 3.573-2.444 5.546-3.347.71-.293 1.174.771.459 1.088l.005.004Zm1.907-1.215a.597.597 0 0 1-.591-.59c0-.322.269-.591.591-.591.322 0 .592.269.592.591 0 .321-.27.59-.592.59Zm2.499 77.306c-.336-.019-.559-.302-.559-.624 0-.321.317-.572.625-.558.336.019.558.303.558.624 0 .322-.317.572-.624.558Zm2.219-.184c-.331.075-.71 0-.838-.359a.6.6 0 0 1 .36-.757c1.675-.104 3.341-.061 5.025-.236.767-.052.862 1.111.09 1.177-1.528.09-3.109.265-4.637.175Zm8.376 33.169c-1.046.738-2.272 1.173-3.516 1.437-.781.052-4.075.908-3.564-.581a.576.576 0 0 1 .336-.303c.786-.07 1.59-.014 2.376-.17 1.344-.179 2.716-.662 3.819-1.427.681-.35 1.23.676.549 1.044Zm.979-1.229c-.336-.019-.558-.302-.558-.624 0-.321.317-.572.624-.557.336.018.559.302.559.624 0 .321-.317.572-.625.557Zm48.432-2.028c.336.019.559.303.559.624 0 .322-.317.572-.625.558-.336-.019-.558-.302-.558-.624 0-.321.317-.572.624-.558Zm-4.296 4.505c1.045-.123 2.162-.137 3.132-.586.123-.075.175-.227.237-.354.142-.355.17-.648.213-1.007.146-.757 1.296-.539 1.164.217-.123 2.51-1.978 2.643-4.032 2.836-.284.033-.644.081-.899.071-.35.137-.795.1-.942-.307-.222-.676.606-.922 1.127-.879v.009ZM159.459 196.62c.312-.014.615.246.615.568 0 .321-.232.6-.568.614-.312.014-.615-.246-.615-.567a.6.6 0 0 1 .568-.615Zm-9.218-1.834c1.334-.278 2.73-.321 4.069-.066 1.117.194 2.191.511 3.247.931a.596.596 0 0 1 .345.762c-.421.902-1.661-.138-2.352-.218-1.031-.232-2.091-.482-3.137-.468-.634 0-1.249.08-1.869.199a.604.604 0 0 1-.578.099c-.662-.26-.373-1.201.275-1.239Zm-.081 37.906c-.828-.075-1.566-.066-2.37-.212-2.092-.43-4.202-1.13-5.792-2.614-.639-.104-.634-1.078.019-1.168.435-.076.752.265 1.05.534.71.601 1.429.974 2.262 1.319 1.131.444 2.399.771 3.596.879.63.118 1.912-.217 1.893.747-.038.331-.336.539-.658.515Zm2.575-.198a.598.598 0 0 1-.601-.582.6.6 0 0 1 .582-.6c.321 0 .601.26.601.582a.602.602 0 0 1-.582.6Zm5.645 21.541a.594.594 0 0 1-.582-.6c0-.322.279-.587.601-.582.326 0 .582.279.582.6a.594.594 0 0 1-.601.582Zm5.797-3.64c.042-.009.075-.028.118-.052-.866.388-1.618 1.078-2.399 1.551-.01.004-.019.014-.033.018-.01.005-.019.01-.024.019-.492.298-.932.577-1.391.903l.042-.028c-.624.581-1.485-.303-.828-.865.649-.463 1.363-.884 2.03-1.324.71-.468 1.358-1.044 2.158-1.356.724-.194 1.055.893.331 1.134h-.004Zm2.711-33.618.005-.038c-2.57 12.583-18.351 17.253-27.346 8.064-8.67-8.745-4.505-23.838 7.424-26.911 11.513-3.058 22.368 7.242 19.912 18.88l.005.005Zm20.603-23.168c-.364-.898-1.088-1.479-1.921-1.919-.861-.473-1.694-1.049-2.607-1.404-.753-.17-.497-1.323.255-1.153 1.193.411 2.366 1.234 3.436 1.825 1.438.822 2.252 2.344 2.181 3.984.047.832.081 1.664.137 2.496a.597.597 0 0 1-.568.615.595.595 0 0 1-.615-.567c-.127-1.291-.023-2.615-.303-3.881l.005.004Zm.97 6.647c-.312.014-.615-.246-.615-.568 0-.321.232-.6.568-.614.312-.014.615.246.615.567a.6.6 0 0 1-.568.615Z"/><path fill="#CF70E2" d="M156.776 203.465c1.188.856 1.978 2.052 1.978 3.574 0 .576-.114 1.205-.364 1.876-1.567 3.167-5.352 4.519-8.811 4.24.184-.241.307-.515.373-.803l.029-.137c.009-.052.019-.104.023-.161.01-.076.015-.156.015-.232v-.061a2.384 2.384 0 0 0-.128-.752 2.348 2.348 0 0 0-.435-.718 2.266 2.266 0 0 0-.687-.544c-.255-.137-.549-.189-.832-.217-.507-.047-.994.109-1.453.312a2.46 2.46 0 0 0-1.089.898 1.66 1.66 0 0 0-.099.17 1.578 1.578 0 0 0-.184.676c-3.635-2.737-1.86-7.691 3.061-9.18.308-.118.639-.217.98-.298-1.936.251-3.81.922-5.414 2-3.449 2.193-5.049 6.75-2.096 10.026 5.139 5.88 18.777 3.366 18.857-5.309-.151-2.387-1.722-4.211-3.715-5.355l-.009-.005Z"/><path fill="#EF9FFF" d="m191.108 112.248-.057.043c0 .005.005.01.009.015.015-.02.034-.039.048-.058ZM115.765 112.323c.269.171.681.322.956.539 1.192.676 2.389 1.347 3.582 2.028 4.112 2.321 8.229 4.652 12.336 6.973 4.249 2.401 8.503 4.802 12.753 7.208.861.487 1.732.974 2.593 1.466.057.028.095.075.137.118 1.387.813 2.679 1.867 4.297 2.018 1.67-.071 3.147-.841 4.58-1.555.474-.255.923-.539 1.387-.804.005 0 .009-.009.014-.014 9.474-5.559 18.947-11.113 28.416-16.667a.578.578 0 0 1 .322-.081c1.003-.567 1.907-1.285 2.853-1.942-.014.014-.024.019-.038.033 1.103-.738 1.283-1.612 1.278-2.647a.581.581 0 0 1-.081-.303V67.057a.9.9 0 0 1 0-.297v-.383c0-.057.01-.109.024-.161.005-.794-.142-1.621-.715-2.18-1.097-1.205-2.47-2.093-3.851-2.92-.303-.27-.914-.45-1.25-.752-3.478-1.966-6.96-3.928-10.438-5.9l-12.635-7.142a.974.974 0 0 1-.402-.298c-.298-.222-.62-.468-.866-.7-.781-.718-1.85-1.143-2.394-2.093-.275-.643-.606-1.499-.067-2.094 1.084-1.078 2.802-.823 4.188-.97h-.076c3.36-.075 6.677-.226 10.028-.397 2.787-.09 5.602-.066 8.262-1.006 4.58-1.598 8.588-6.292 9.733-10.962.421-1.764.445-3.579.474-5.38 0-.019-.01-.033-.01-.047V7.157c-.005-.029-.019-.048-.019-.076.01-.104.014-.208.019-.317v-.231s.01-.038.014-.062a9.315 9.315 0 0 0-.099-1.451c-.033-.59-.019-1.045-.147-1.579-.416-.69-1.32-1.05-2.115-1.03-2.617-.317-5.229-.275-7.846-.213-3.378.047-6.743.104-10.112.373-2.134.156-4.353.412-6.331 1.225-2.603 1.04-4.704 2.997-6.422 5.124-1.519 1.82-2.631 3.942-4.49 5.389-1.188.728-2.466.647-3.237-.615-2.872-3.654-5.953-7.322-9.904-9.842-3.033-1.716-6.568-2.264-9.98-2.571a61.95 61.95 0 0 0-8.22.076c-.482.127-1.017.042-1.514.108-1.358.152-2.692.274-4.012.516-1.174.274-2.442.274-3.545.784-.284.227-.407.558-.577.87-.114.444-.09.77-.161 1.172a.57.57 0 0 1 .043.204v17.083c0 .057-.019.109-.034.16.01.138.019.27.019.388.105 7.025 4.576 13.326 10.614 16.654 5.163 2.188 10.898 2.217 16.401 2.311 1.685.014 3.37.033 5.045.208.729.014 1.505.076 2.082.572.629.525.653 1.536.27 2.212-.639.851-1.534 1.286-2.371 1.877-.246.128-.62.383-.989.553-.029.024-.052.043-.085.061a35246.08 35246.08 0 0 1-17.859 10.476c-1.746 1.02-3.487 2.051-5.234 3.067a.608.608 0 0 1-.141.062c-.54.293-1.07.6-1.614.874-1.041.549-2.016 1.215-2.986 1.882-1.24.751-2.342 1.692-2.763 3.115-.228.643-.294 1.319-.355 1.995v.01c0 .023.004.042.009.065v38.535c.01.18.019.383-.014.572v.052c-.256 2.817 1.121 3.304 3.279 4.524l-.009.004Zm66.91-51.708c.436-.658 1.15.009 1.623.274 1.231.666 2.48 1.352 3.469 2.358.298.119.426.487.308.771-.374.728-1.112.189-1.467-.246-.909-.832-1.993-1.342-3.043-1.952-.435-.27-1.249-.558-.89-1.21v.005Zm-1.301-1.433c.322 0 .592.27.592.591 0 .321-.27.591-.592.591a.597.597 0 0 1-.591-.59c0-.322.269-.592.591-.592ZM178.79 114.4c1.898-.889 3.545-2.307 5.395-3.267.596-.189 1.363-1.134 1.912-.496.52.837-.767 1.172-1.297 1.508-1.94 1.007-3.573 2.444-5.546 3.347-.71.293-1.173-.771-.459-1.088l-.005-.004Zm-1.907 1.214c.322 0 .592.27.592.591 0 .322-.27.591-.592.591a.597.597 0 0 1-.591-.591c0-.321.27-.591.591-.591Zm-2.498-77.305c.336.019.558.302.558.624 0 .321-.317.572-.624.557-.336-.018-.559-.302-.559-.623 0-.322.317-.572.625-.558Zm-2.219.184c.331-.076.709 0 .837.36a.599.599 0 0 1-.36.756c-1.675.104-3.34.061-5.025.236-.767.052-.861-1.11-.09-1.177 1.529-.09 3.109-.265 4.638-.175Zm-8.376-33.17c1.046-.737 2.271-1.172 3.516-1.437.781-.051 4.074-.907 3.563.582a.574.574 0 0 1-.336.302c-.786.071-1.59.015-2.375.17-1.344.18-2.717.662-3.819 1.428-.682.35-1.231-.676-.549-1.044Zm-.98 1.23c.336.018.559.302.559.624 0 .32-.317.571-.625.557-.336-.019-.558-.302-.558-.624 0-.321.317-.572.624-.557Zm-48.432 2.027c-.336-.018-.558-.302-.558-.624 0-.321.317-.572.624-.557.336.019.559.302.559.624 0 .321-.317.572-.625.557Zm4.297-4.504c-1.046.122-2.163.137-3.133.586-.123.075-.175.227-.236.354-.142.355-.171.648-.213 1.007-.147.756-1.297.539-1.164-.217.123-2.51 1.978-2.643 4.031-2.837.284-.033.644-.08.899-.07.351-.138.795-.1.942.307.223.676-.606.922-1.126.879v-.01Zm24.867 101.304c-.313.015-.616-.245-.616-.567 0-.321.232-.6.568-.614.313-.015.615.245.615.567 0 .321-.231.6-.567.614Zm9.218 1.834c-1.335.279-2.731.322-4.07.067a16.201 16.201 0 0 1-3.246-.932.595.595 0 0 1-.346-.761c.422-.902 1.661.137 2.352.218 1.032.231 2.092.482 3.138.468.634 0 1.249-.081 1.869-.199a.602.602 0 0 1 .577-.099c.662.26.374 1.201-.274 1.238Zm.08-37.905c.828.075 1.566.066 2.371.212 2.091.43 4.202 1.13 5.792 2.614.639.104.634 1.078-.019 1.168-.436.075-.753-.265-1.051-.534-.71-.6-1.429-.974-2.262-1.32-1.131-.444-2.399-.77-3.596-.878-.629-.119-1.912.217-1.893-.747.038-.331.336-.54.658-.515Zm-2.574.198c.322 0 .601.26.601.582a.601.601 0 0 1-.582.6.598.598 0 0 1-.601-.582.6.6 0 0 1 .582-.6Zm-5.646-21.541c.327 0 .583.279.583.6 0 .322-.28.587-.601.582a.594.594 0 0 1-.582-.6c0-.322.279-.587.6-.582Zm-5.796 3.64c-.043.01-.076.028-.119.052.866-.388 1.619-1.078 2.4-1.55.009-.005.019-.015.033-.02.009-.004.019-.009.023-.019.493-.297.933-.576 1.392-.902l-.043.028c.625-.581 1.486.302.828.865-.648.463-1.363.884-2.03 1.324-.71.468-1.358 1.044-2.158 1.356-.724.194-1.055-.893-.331-1.134h.005Zm-2.712 33.618-.004.038c2.569-12.583 18.35-17.253 27.346-8.064 8.669 8.745 4.505 23.838-7.425 26.911-11.513 3.058-22.368-7.242-19.912-18.885h-.005Zm-20.603 23.168c.365.898 1.089 1.479 1.921 1.919.862.472 1.694 1.049 2.608 1.404.752.17.497 1.323-.256 1.153-1.192-.411-2.366-1.234-3.435-1.825-1.439-.822-2.253-2.344-2.182-3.985-.047-.831-.08-1.663-.137-2.495a.598.598 0 0 1 .568-.615.595.595 0 0 1 .615.567c.128 1.291.024 2.614.303 3.881l-.005-.004Zm-.97-6.647c.312-.014.615.246.615.568 0 .321-.232.6-.568.614-.312.014-.615-.246-.615-.567 0-.322.232-.6.568-.615Z"/><path fill="#fff" d="M213.405 136.535c-10.633.629-17.215 12.258-12.365 21.674 5.541 10.91 21.252 10.867 26.736-.048 5.21-10.229-2.934-22.458-14.371-21.626Zm4.713 22.203c-1.76 3.872-6.336 6.183-10.311 4.113-3.45-1.74-5.423-5.465-5.948-9.152-1.245-6.84 3.965-15.66 11.659-11.973 5.745 3.186 7.373 11.34 4.605 17.017l-.005-.005Z"/><path fill="#CF70E2" d="M112.981 185.711c.676-1.192 1.348-2.388 2.03-3.579 2.323-4.108 4.656-8.22 6.979-12.323 2.404-4.245 4.808-8.495 7.217-12.739.487-.861.974-1.731 1.467-2.591.028-.057.075-.094.118-.137.814-1.385 1.869-2.675 2.02-4.292-.071-1.669-.842-3.144-1.556-4.576-.256-.473-.54-.922-.805-1.385 0-.005-.009-.009-.014-.014-5.565-9.464-11.125-18.927-16.685-28.386a.576.576 0 0 1-.081-.321c-.567-1.002-1.287-1.905-1.944-2.851.014.015.019.024.033.038-.738-1.101-1.614-1.281-2.65-1.276a.59.59 0 0 1-.303.08h-2.267c-.123.014-.25.019-.364 0H67.127a.902.902 0 0 1-.298 0h-.383a.609.609 0 0 1-.16-.023c-.796-.005-1.624.141-2.182.713-1.207 1.097-2.097 2.468-2.925 3.848-.27.303-.45.913-.752 1.248-1.969 3.474-3.932 6.954-5.906 10.428-2.385 4.207-4.765 8.414-7.15 12.621a.975.975 0 0 1-.298.402c-.222.298-.468.619-.7.865-.72.78-1.145 1.848-2.096 2.392-.644.274-1.5.605-2.097.066-1.079-1.083-.823-2.798-.97-4.183v.075c-.075-3.356-.227-6.67-.397-10.016-.09-2.785-.067-5.597-1.008-8.254-1.6-4.575-6.298-8.579-10.974-9.723-1.765-.421-3.582-.445-5.385-.473-.019 0-.033.01-.047.01H7.163c-.028.004-.047.018-.075.018a6.39 6.39 0 0 0-.317-.018h-.232l-.062-.015a9.336 9.336 0 0 0-1.452.1c-.592.033-1.046.019-1.581.146-.69.416-1.05 1.319-1.032 2.113-.317 2.614-.274 5.223-.212 7.838.047 3.37.104 6.736.373 10.101.156 2.132.412 4.349 1.226 6.325 1.041 2.6 3 4.699 5.13 6.415 1.821 1.517 3.946 2.628 5.394 4.485.729 1.187.648 2.463-.615 3.234-3.658 2.869-7.33 5.946-9.852 9.893-1.718 3.03-2.267 6.561-2.574 9.97a61.748 61.748 0 0 0 .075 8.211c.128.482.043 1.016.11 1.512.15 1.357.274 2.69.515 4.009.274 1.172.274 2.439.785 3.54.227.284.559.407.871.577.445.113.771.09 1.174.161a.571.571 0 0 1 .203-.043h17.101c.057 0 .11.019.161.033.138-.009.27-.019.389-.019 7.031-.104 13.339-4.571 16.67-10.602 2.191-5.158 2.22-10.887 2.314-16.384.014-1.683.033-3.366.209-5.039.014-.728.075-1.503.572-2.08.525-.629 1.538-.653 2.215-.27.851.639 1.287 1.532 1.878 2.369.128.245.383.619.554.988a.546.546 0 0 1 .061.085c3.497 5.946 6.994 11.893 10.486 17.839 1.023 1.745 2.054 3.484 3.072 5.229a.608.608 0 0 1 .061.141c.293.539.601 1.069.875 1.612.55 1.04 1.217 2.019 1.884 2.988.752 1.238 1.694 2.34 3.118 2.76.644.227 1.32.293 1.997.355h.01c.023 0 .042-.005.066-.01h38.575a2.57 2.57 0 0 1 .573.015h.052c2.82.255 3.308-1.121 4.528-3.276.171-.27.322-.681.54-.955l.005.005ZM5.332 138.691c-.738-1.045-1.173-2.269-1.438-3.512-.052-.78-.909-4.07.582-3.56.137.071.26.185.302.336.071.785.015 1.588.17 2.373.18 1.342.663 2.713 1.43 3.815.35.68-.677 1.229-1.046.548Zm1.789 1.602c-.322 0-.573-.316-.559-.624.02-.335.303-.557.625-.557s.573.316.558.624c-.019.335-.302.557-.624.557ZM5.815 188.5c-2.513-.123-2.645-1.976-2.84-4.028-.033-.284-.08-.643-.07-.898-.138-.35-.1-.794.307-.941.677-.222.923.605.88 1.125.123 1.045.138 2.161.587 3.13.076.123.227.175.355.236.355.142.648.17 1.008.213.757.146.54 1.29-.218 1.163h-.01Zm2.153.108c-.322 0-.573-.316-.559-.624.02-.335.303-.558.625-.558s.573.317.558.624c-.018.336-.302.558-.624.558Zm30.384-60.501c.019-.336.303-.558.625-.558s.572.317.558.624c-.019.336-.303.558-.625.558-.321 0-.572-.317-.558-.624Zm.36 6.85c-.09-1.527-.265-3.106-.175-4.633-.076-.331 0-.709.36-.837a.6.6 0 0 1 .756.36c.105 1.673.062 3.337.237 5.02.052.766-1.112.86-1.178.09Zm9.9 23.488a.595.595 0 0 1-.583-.6c0-.326.28-.582.601-.582.322 0 .587.279.582.601 0 .326-.28.581-.6.581Zm3.056 5.195c.01.043.028.076.052.118-.388-.865-1.079-1.616-1.552-2.396-.005-.01-.014-.019-.019-.033-.005-.01-.01-.019-.019-.024a21.93 21.93 0 0 0-.904-1.39l.029.043c-.582-.624.302-1.485.866-.827.463.647.884 1.361 1.325 2.027.468.709 1.045 1.357 1.358 2.156.194.723-.895 1.054-1.136.331v-.005Zm8.167-41.919a.598.598 0 0 1-.591-.591c0-.321.27-.591.591-.591.322 0 .592.27.592.591 0 .321-.27.591-.592.591Zm4.008-5.824c-.832.908-1.344 1.99-1.954 3.04-.27.435-.558 1.248-1.211.888-.658-.435.01-1.148.274-1.621.667-1.229 1.354-2.477 2.361-3.465.119-.298.488-.425.772-.307.729.373.189 1.111-.246 1.465h.004Zm52.488 9.123c.322 0 .591.27.591.591a.597.597 0 0 1-.591.591.598.598 0 0 1-.592-.591c0-.321.27-.591.592-.591Zm-5.579-8.608c.837-.52 1.173.766 1.509 1.296 1.008 1.938 2.447 3.569 3.351 5.54.293.709-.772 1.172-1.089.458-.889-1.895-2.309-3.54-3.27-5.389-.189-.595-1.135-1.361-.496-1.909l-.005.004Zm-4.827 38.611c.232-1.031.483-2.09.469-3.134 0-.634-.081-1.248-.199-1.867a.6.6 0 0 1-.099-.577c.26-.662 1.201-.374 1.239.274.279 1.333.322 2.728.067 4.065a16.177 16.177 0 0 1-.933 3.243.595.595 0 0 1-.762.345c-.903-.421.138-1.659.218-2.349Zm-.426 3.904c.014.312-.246.615-.568.615-.321 0-.601-.232-.615-.567-.014-.312.246-.615.568-.615.322 0 .601.232.615.567Zm-35.31-6.131a.6.6 0 0 1-.6-.581c0-.322.26-.6.581-.6a.6.6 0 0 1 .601.581c0 .321-.26.6-.582.6Zm.464-4.386c-.119.628.217 1.909-.748 1.89-.331-.037-.54-.335-.516-.657.076-.827.067-1.564.213-2.368.43-2.089 1.131-4.197 2.617-5.786.104-.638 1.079-.633 1.169.019.076.435-.265.752-.535 1.05-.6.709-.975 1.427-1.32 2.259-.445 1.13-.771 2.397-.88 3.593Zm14.669 17.943.038.005c-12.597-2.567-17.272-18.331-8.073-27.317 8.754-8.66 23.864-4.5 26.939 7.416 3.062 11.501-7.25 22.345-18.9 19.892l-.004.004Zm17.154 22.118c-.322 0-.601-.231-.616-.567-.014-.312.246-.615.568-.615.322 0 .601.232.615.568.015.312-.246.614-.567.614Zm4.698-.189c-.832.047-1.665.08-2.498.137a.597.597 0 0 1-.615-.567.595.595 0 0 1 .568-.615c1.291-.127 2.616-.023 3.885-.302.899-.364 1.481-1.087 1.921-1.919.473-.861 1.05-1.693 1.405-2.605.171-.751 1.325-.496 1.155.255-.412 1.192-1.235 2.364-1.827 3.432-.823 1.437-2.347 2.25-3.989 2.179l-.005.005ZM289.287 149.899c3.658-2.87 7.33-5.947 9.852-9.894 1.718-3.03 2.267-6.561 2.575-9.969a61.809 61.809 0 0 0-.076-8.211c-.128-.482-.043-1.016-.109-1.513-.151-1.356-.274-2.689-.516-4.008-.274-1.172-.274-2.439-.785-3.541-.227-.283-.559-.411-.871-.576-.445-.114-.771-.09-1.173-.161a.576.576 0 0 1-.204.042h-17.101c-.057 0-.109-.018-.161-.033-.137.01-.27.019-.388.019-7.032.104-13.34 4.571-16.671 10.603-2.191 5.157-2.219 10.886-2.314 16.384-.014 1.683-.033 3.365-.208 5.039-.014.728-.076 1.503-.573 2.08-.525.628-1.538.652-2.214.269-.852-.638-1.288-1.531-1.879-2.368-.128-.246-.383-.619-.554-.988a.593.593 0 0 1-.061-.085c-3.497-5.947-6.994-11.893-10.486-17.84-1.022-1.744-2.054-3.484-3.071-5.228a.584.584 0 0 1-.062-.142c-.293-.539-.601-1.068-.875-1.612-.549-1.04-1.216-2.018-1.884-2.987-.752-1.239-1.694-2.34-3.118-2.761-.644-.227-1.32-.293-1.997-.354h-.009c-.024 0-.043.004-.067.009h-38.575a2.57 2.57 0 0 1-.573-.014h-.052c-2.82-.255-3.307 1.12-4.528 3.276-.171.269-.322.68-.54.955-.676 1.191-1.348 2.387-2.03 3.578-2.323 4.108-4.656 8.22-6.979 12.323-2.404 4.245-4.808 8.495-7.217 12.74-.487.86-.974 1.73-1.467 2.59-.028.057-.075.095-.118.137-.814 1.385-1.869 2.676-2.02 4.292.07 1.669.842 3.144 1.556 4.576.256.473.54.922.805 1.385 0 .005.009.01.014.014 5.565 9.464 11.125 18.927 16.685 28.386a.567.567 0 0 1 .08.321c.568 1.003 1.288 1.905 1.945 2.851-.014-.014-.019-.024-.033-.038.738 1.101 1.614 1.281 2.65 1.276a.59.59 0 0 1 .303-.08h41.68a.901.901 0 0 1 .298 0h.383a.57.57 0 0 1 .161.024c.795.004 1.623-.142 2.181-.714 1.207-1.097 2.097-2.468 2.925-3.848.269-.302.449-.912.752-1.248 1.969-3.474 3.932-6.953 5.906-10.428 2.385-4.207 4.765-8.414 7.15-12.621a.974.974 0 0 1 .298-.402c.222-.297.468-.619.7-.865.719-.78 1.145-1.848 2.096-2.392.644-.274 1.5-.605 2.097-.066 1.079 1.083.823 2.799.97 4.184v-.076c.075 3.356.227 6.67.397 10.017.09 2.784.066 5.596 1.008 8.253 1.6 4.576 6.298 8.58 10.974 9.723 1.765.421 3.582.445 5.385.473.019 0 .033-.009.047-.009h16.231c.028-.005.047-.019.076-.019.104.009.208.014.317.019h.231l.062.014c.483.009.97-.033 1.453-.099.591-.033 1.045-.019 1.58-.147.691-.416 1.051-1.319 1.032-2.113.317-2.614.274-5.223.213-7.837-.048-3.371-.104-6.736-.374-10.102-.156-2.132-.412-4.349-1.226-6.325-1.041-2.6-3-4.698-5.129-6.414-1.822-1.518-3.947-2.628-5.395-4.486-.728-1.187-.648-2.463.615-3.233v-.005Zm7.893-36.403c2.513.123 2.646 1.976 2.84 4.027.033.284.08.643.071.899.137.349.099.794-.308.94-.677.222-.923-.605-.88-1.125-.123-1.044-.137-2.16-.587-3.129-.076-.123-.227-.175-.355-.236-.355-.142-.648-.171-1.008-.213-.757-.147-.539-1.291.218-1.163h.009Zm-2.153-.109c.322 0 .573.317.559.624-.019.336-.303.558-.625.558s-.572-.317-.558-.624c.019-.336.303-.558.624-.558Zm-62.216 35.822a.6.6 0 0 1 .601.581c0 .321-.26.6-.582.6a.6.6 0 0 1-.601-.581c0-.321.26-.6.582-.6Zm-32.291-35.675c.321 0 .601.231.615.567.014.312-.246.615-.568.615-.322 0-.601-.232-.615-.568-.014-.312.246-.614.568-.614Zm-13.856 63.441a.597.597 0 0 1-.591-.591c0-.321.27-.591.591-.591.322 0 .592.27.592.591 0 .322-.27.591-.592.591Zm5.579 8.608c-.837.52-1.173-.766-1.509-1.295-1.008-1.938-2.447-3.569-3.35-5.54-.294-.709.771-1.172 1.088-.459.89 1.896 2.309 3.541 3.27 5.389.189.596 1.135 1.361.497 1.91l.004-.005Zm.322-68.598c-.473.86-1.05 1.692-1.405 2.604-.171.752-1.325.496-1.155-.255.412-1.191 1.235-2.364 1.827-3.432.823-1.437 2.347-2.25 3.989-2.179.833-.047 1.665-.08 2.498-.137a.597.597 0 0 1 .615.567.595.595 0 0 1-.567.615c-1.292.127-2.617.023-3.885.302-.899.364-1.481 1.087-1.922 1.919l.005-.004Zm4.505 29.988c-.232 1.03-.483 2.089-.468 3.134 0 .633.08 1.248.198 1.867a.6.6 0 0 1 .1.577c-.261.661-1.202.373-1.24-.275-.279-1.333-.322-2.727-.066-4.065.194-1.115.511-2.188.932-3.243a.597.597 0 0 1 .762-.345c.904.421-.138 1.66-.218 2.35Zm.426-3.905c-.014-.312.246-.614.568-.614.322 0 .601.231.615.567.014.312-.246.614-.568.614-.322 0-.601-.231-.615-.567Zm1.273 12.47c-3.062-11.496 7.235-22.33 18.885-19.896h.019-.038c12.597 2.567 17.272 18.331 8.073 27.318-8.754 8.659-23.863 4.5-26.939-7.417v-.005Zm34.624-.813c-.431 2.089-1.131 4.198-2.617 5.786-.104.638-1.079.633-1.169-.019-.075-.435.265-.752.535-1.049.601-.709.975-1.428 1.32-2.26.445-1.13.772-2.396.88-3.592.119-.629-.217-1.91.748-1.891.331.038.54.335.516.657-.076.827-.066 1.564-.213 2.368Zm8.645 29.067c-.667 1.229-1.353 2.476-2.361 3.464-.118.298-.487.426-.771.308-.729-.374-.19-1.111.246-1.466.833-.907 1.344-1.99 1.954-3.039.27-.435.559-1.248 1.212-.889.657.435-.01 1.149-.275 1.622h-.005Zm1.112-2.336a.597.597 0 0 1-.591-.591c0-.321.27-.59.591-.59.322 0 .592.269.592.59 0 .322-.27.591-.592.591Zm9.72-38.591c-.464-.648-.885-1.361-1.325-2.028-.469-.709-1.046-1.357-1.358-2.155-.194-.724.894-1.055 1.136-.331-.01-.043-.029-.076-.053-.119.389.866 1.079 1.617 1.553 2.397.004.01.014.019.019.033.004.01.009.019.018.024.299.491.578.931.904 1.39l-.028-.043c.582.624-.303 1.484-.866.827v.005Zm1.495 1.867a.594.594 0 0 1-.582-.6c0-.326.279-.582.601-.582.322 0 .587.279.582.601a.594.594 0 0 1-.601.581Zm8.736 22.397c-.053-.766 1.112-.861 1.178-.09.09 1.527.265 3.106.175 4.632.076.331 0 .709-.36.837a.6.6 0 0 1-.757-.359c-.104-1.673-.061-3.337-.236-5.02Zm.913 7.317c-.322 0-.573-.317-.559-.624.019-.335.303-.558.625-.558s.573.317.558.624c-.019.336-.302.558-.624.558Zm33.644-11.141c.739 1.044 1.174 2.269 1.439 3.512.052.78.908 4.07-.582 3.559a.574.574 0 0 1-.303-.335c-.071-.785-.014-1.589-.17-2.373-.18-1.343-.663-2.714-1.429-3.815-.351-.681.676-1.229 1.045-.548Zm-1.788-1.603c.321 0 .572.317.558.624-.019.336-.303.558-.625.558-.321 0-.572-.317-.558-.624.019-.336.303-.558.625-.558Z"/><path fill="#EF9FFF" d="m111.903 189.743-.01.01.01-.01Z"/><path fill="#fff" d="M75.224 143.839c-5.21 10.229 2.934 22.458 14.371 21.626 10.633-.629 17.215-12.258 12.365-21.674-5.541-10.91-21.251-10.867-26.736.048Zm14.262 16.44c-5.744-3.186-7.372-11.34-4.604-17.017 1.76-3.872 6.336-6.183 10.311-4.113 3.45 1.74 5.423 5.465 5.948 9.152 1.245 6.84-3.965 15.66-11.66 11.973l.005.005Z"/><path fill="#000" d="M104.222 146.452c-3.071-11.916-18.18-16.076-26.94-7.416-9.199 8.986-4.528 24.75 8.073 27.317l-.038-.004c11.655 2.448 21.966-8.391 18.9-19.892l.005-.005Zm-14.627 19.013c-11.437.832-19.58-11.397-14.371-21.627 5.48-10.914 21.195-10.957 26.736-.047 4.855 9.416-1.732 21.045-12.365 21.674Z"/><path fill="#000" d="M95.194 139.149c-3.975-2.07-8.551.237-10.311 4.113-2.769 5.677-1.14 13.831 4.604 17.017 7.694 3.687 12.899-5.138 11.66-11.973-.53-3.692-2.504-7.412-5.949-9.152l-.004-.005Zm4.5 8.49c-1.486-4.916-6.445-6.689-9.19-3.058a1.596 1.596 0 0 1 .847.283c.407.275.7.643.9 1.088.203.453.359.94.312 1.451-.024.283-.076.577-.218.832-.142.26-.322.487-.544.685a2.36 2.36 0 0 1-.72.435c-.236.09-.496.118-.752.128h-.061c-.076 0-.156-.005-.232-.014-.052-.005-.109-.015-.161-.024-.047-.01-.09-.014-.137-.028a2.105 2.105 0 0 1-.805-.374c-.279 3.456 1.07 7.232 4.245 8.802.672.25 1.301.364 1.879.364 1.518 0 2.72-.785 3.577-1.976-1.15 1.99-2.977 3.559-5.362 3.711-8.688-.081-11.2-13.699-5.314-18.838 3.28-2.949 7.837-1.351 10.037 2.095 1.079 1.602 1.746 3.479 2.002 5.407a7.146 7.146 0 0 0-.298-.978l-.005.009ZM114.519 123.706c.317.714 1.381.251 1.088-.458-.904-1.972-2.342-3.602-3.35-5.541-.336-.529-.672-1.81-1.51-1.295-.639.544.312 1.314.497 1.91.961 1.848 2.38 3.493 3.27 5.389l.005-.005ZM116.328 126.202a.59.59 0 1 0 0-1.182.59.59 0 0 0 0 1.182ZM111.836 182.406c-.355.913-.932 1.745-1.405 2.605-.44.827-1.017 1.555-1.921 1.919-1.268.279-2.593.17-3.885.303a.603.603 0 0 0-.568.614.6.6 0 0 0 .615.567c.833-.056 1.666-.089 2.499-.137 1.642.071 3.165-.742 3.989-2.179.596-1.068 1.419-2.241 1.826-3.432.171-.751-.984-1.007-1.154-.255l.004-.005ZM102.424 187.285c-.322 0-.578.302-.568.614a.6.6 0 0 0 .615.567c.322 0 .577-.302.568-.614a.601.601 0 0 0-.615-.567ZM105.709 157.367a.598.598 0 0 0 .761-.345c.422-1.054.743-2.127.933-3.243.255-1.337.213-2.732-.067-4.065-.037-.643-.984-.936-1.239-.274a.587.587 0 0 0 .099.577c.118.619.199 1.233.199 1.867.019 1.049-.237 2.103-.469 3.134-.08.69-1.121 1.928-.217 2.349ZM104.313 158.974a.601.601 0 0 0 .615.568c.322 0 .577-.303.568-.615a.601.601 0 0 0-.615-.567c-.322 0-.578.302-.568.614ZM73.383 141.499c-.09-.648-1.064-.658-1.169-.019-1.486 1.588-2.186 3.696-2.616 5.785-.142.804-.133 1.537-.213 2.369-.024.321.184.619.515.657.966.019.63-1.262.748-1.891.109-1.201.44-2.463.88-3.593.34-.836.72-1.55 1.32-2.259.266-.303.61-.615.535-1.049ZM70.17 151.61a.594.594 0 0 0-.582.6.592.592 0 0 0 1.183-.019.595.595 0 0 0-.601-.581ZM64.085 114.432c-.284-.123-.658.009-.772.307-1.012.988-1.698 2.231-2.36 3.465-.266.473-.933 1.186-.275 1.621.653.359.937-.454 1.211-.888.61-1.05 1.121-2.132 1.954-3.04.436-.354.975-1.092.246-1.465h-.004ZM59.836 120.539a.598.598 0 0 0-.592.591c0 .321.27.591.592.591.321 0 .591-.27.591-.591a.598.598 0 0 0-.591-.591ZM51.446 161.154c-.44-.662-.866-1.381-1.325-2.028-.563-.657-1.448.203-.866.827l-.028-.042c.321.458.6.898.903 1.389 0 0 .01.014.02.024.004.009.014.019.018.033.474.78 1.164 1.532 1.552 2.397-.018-.043-.038-.076-.052-.119.242.724 1.33.393 1.136-.33-.312-.799-.89-1.447-1.358-2.156v.005ZM48.626 157.263a.601.601 0 0 0-.6.582c0 .321.26.6.581.6a.6.6 0 0 0 .601-.581.598.598 0 0 0-.582-.601ZM38.897 129.492c-.365.128-.431.506-.36.837-.09 1.526.085 3.101.175 4.632.066.771 1.23.676 1.178-.09-.175-1.678-.132-3.342-.236-5.02a.6.6 0 0 0-.757-.359ZM39.536 128.173c.018-.307-.237-.624-.559-.624-.322 0-.605.222-.624.558-.02.307.236.624.558.624.322 0 .606-.222.625-.558ZM4.95 134.328c-.156-.78-.099-1.589-.17-2.373-.042-.151-.17-.265-.303-.336-1.49-.51-.634 2.78-.582 3.56.265 1.243.7 2.467 1.439 3.512.369.685 1.4.137 1.046-.549-.772-1.101-1.254-2.472-1.43-3.814ZM7.188 139.112c-.322 0-.606.222-.625.557-.018.308.237.624.559.624.322 0 .606-.222.624-.557.02-.308-.236-.624-.558-.624ZM6.033 187.341c-.36-.038-.658-.071-1.008-.212-.123-.067-.274-.114-.355-.237-.45-.969-.463-2.084-.586-3.129.047-.52-.204-1.347-.88-1.125-.407.142-.445.591-.308.941-.005.255.038.614.07.898.195 2.051.332 3.9 2.84 4.027.757.133.98-1.016.218-1.163h.01ZM8.036 187.431c-.322 0-.606.222-.625.558-.019.307.237.624.559.624.321 0 .605-.222.624-.558.02-.307-.236-.624-.558-.624ZM156.018 104.113c11.93-3.068 16.094-18.162 7.425-26.911-8.996-9.19-24.777-4.524-27.346 8.064l.004-.038c-2.451 11.643 8.4 21.943 19.913 18.885h.004Zm2.622-28.968c10.926 5.474 10.969 21.173.047 26.708-9.426 4.85-21.067-1.73-21.696-12.352-.833-11.425 11.409-19.56 21.649-14.356Z"/><path fill="#000" d="M154.165 101.035c3.696-.529 7.42-2.5 9.161-5.941 2.073-3.971-.236-8.542-4.117-10.3-5.683-2.766-13.846-1.14-17.035 4.599-3.691 7.686 5.144 12.886 11.986 11.647l.005-.005Zm7.197-13.17c2.953 3.277 1.354 7.829-2.096 10.027-1.604 1.078-3.483 1.744-5.413 2 .34-.08.667-.175.979-.298 4.921-1.485 6.696-6.438 3.062-9.18-.01.231-.071.463-.185.676a1.487 1.487 0 0 1-.099.17c-.275.406-.644.7-1.088.898-.455.203-.942.36-1.453.312-.284-.024-.578-.076-.833-.217a2.55 2.55 0 0 1-.686-.544 2.383 2.383 0 0 1-.436-.719 2.377 2.377 0 0 1-.127-.751v-.062a1.8 1.8 0 0 1 .014-.231 1.78 1.78 0 0 1 .024-.16c.009-.048.014-.09.028-.138.066-.288.189-.563.374-.804-3.459-.278-7.24 1.069-8.811 4.24-.251.672-.365 1.3-.365 1.877 0 1.518.786 2.718 1.978 3.574-1.992-1.149-3.563-2.974-3.714-5.356.08-8.679 13.713-11.189 18.857-5.308l-.01-.005ZM179.249 115.491c1.973-.903 3.605-2.34 5.546-3.347.53-.336 1.812-.671 1.296-1.508-.544-.638-1.315.312-1.912.496-1.85.96-3.497 2.378-5.394 3.267-.715.316-.251 1.38.459 1.087l.005.005ZM176.883 116.795a.59.59 0 1 0 0-1.182.59.59 0 0 0 0 1.182ZM114.582 103.952a.6.6 0 0 0-.568.615c.057.831.09 1.663.137 2.495-.071 1.641.743 3.163 2.181 3.985 1.07.596 2.243 1.418 3.436 1.825.752.17 1.008-.983.255-1.153-.913-.355-1.746-.932-2.607-1.404-.828-.44-1.557-1.017-1.921-1.92-.279-1.266-.17-2.59-.303-3.88-.009-.322-.303-.577-.615-.568l.005.005ZM114.58 102.931a.601.601 0 0 0 .568-.614c0-.322-.303-.577-.615-.568a.6.6 0 0 0-.568.615c0 .321.303.576.615.567ZM153.029 105.98a.588.588 0 0 0-.577.099 9.933 9.933 0 0 1-1.869.199c-1.051.019-2.106-.237-3.137-.468-.691-.081-1.931-1.121-2.352-.218a.598.598 0 0 0 .345.761c1.055.421 2.13.742 3.246.931 1.339.256 2.735.213 4.07-.066.643-.038.937-.983.274-1.238ZM143.484 104.202a.602.602 0 0 0-.568.615c0 .321.303.577.615.567a.601.601 0 0 0 .568-.614c0-.322-.303-.577-.615-.568ZM154.065 70.575c1.202.108 2.465.44 3.596.879.838.34 1.552.718 2.262 1.319.303.264.615.61 1.051.534.648-.09.657-1.064.019-1.168-1.59-1.484-3.701-2.184-5.792-2.614-.805-.142-1.538-.132-2.371-.213-.322-.023-.62.185-.658.516-.019.964 1.264.628 1.893.746ZM150.275 70.697a.591.591 0 1 0-.019-1.18.591.591 0 0 0 .019 1.18ZM183.565 61.825c1.05.61 2.134 1.12 3.043 1.952.354.435 1.093.974 1.466.246.124-.284-.009-.657-.307-.77-.989-1.012-2.234-1.698-3.469-2.36-.473-.264-1.187-.93-1.623-.274-.359.653.455.936.89 1.21v-.004ZM181.369 60.364c.322 0 .591-.27.591-.59a.597.597 0 0 0-.591-.592.598.598 0 0 0-.592.591c0 .322.27.591.592.591ZM139.145 52.744c.8-.312 1.448-.889 2.158-1.357.663-.44 1.382-.865 2.03-1.323.658-.563-.203-1.447-.828-.865l.043-.029c-.459.322-.899.6-1.391.903l-.024.014c-.01.005-.019.014-.033.02-.781.472-1.533 1.162-2.399 1.55.042-.02.075-.038.118-.052-.724.24-.393 1.328.331 1.134l-.005.005ZM144.596 49.156c.321 0 .601-.26.601-.581a.601.601 0 0 0-.582-.6.598.598 0 0 0-.601.581.6.6 0 0 0 .582.6ZM167.618 39.849c1.68-.175 3.345-.132 5.025-.236a.6.6 0 0 0 .36-.757c-.128-.364-.506-.43-.838-.36-1.528-.089-3.104.086-4.637.176-.771.066-.677 1.229.09 1.177ZM174.318 39.494c.308.02.625-.236.625-.557 0-.322-.223-.606-.559-.624-.307-.02-.624.236-.624.557 0 .322.222.605.558.624ZM164.339 6.377c1.102-.77 2.475-1.253 3.819-1.428.78-.156 1.59-.1 2.375-.17.151-.043.265-.17.336-.303.511-1.489-2.782-.633-3.563-.581-1.245.265-2.47.7-3.516 1.437-.686.369-.137 1.4.549 1.045ZM162.744 7.738c.308.02.625-.236.625-.558 0-.321-.223-.605-.559-.624-.307-.019-.624.237-.624.558 0 .322.222.605.558.624ZM118.853 2.898c-.255-.005-.615.038-.899.07-2.053.194-3.904.332-4.031 2.837-.133.756 1.017.978 1.164.217.038-.359.071-.657.213-1.007.066-.122.113-.274.236-.354.97-.45 2.087-.463 3.133-.586.52.047 1.349-.204 1.126-.88-.142-.406-.591-.444-.942-.307v.01ZM114.443 7.402c-.308-.019-.625.237-.625.558 0 .322.223.605.559.624.307.019.624-.236.624-.558 0-.321-.222-.605-.558-.624ZM241.355 118.157s-.009-.015-.009-.024c0 .009.009.014.014.024h-.005ZM118.588 61.574s-.014.01-.024.01c.01 0 .015-.01.024-.015v.005Z"/><path fill="#000" d="M291.794 149.454c3.033-2.685 6.208-5.308 8.343-8.811 3.165-5.795 3.056-12.744 2.668-19.163 0-.052-.014-.1-.023-.142-.152-2.156-.393-4.302-.819-6.424-.222-1.593-.426-3.243-2.162-3.824-.512-.171-1.051-.152-1.581-.256a.632.632 0 0 0-.293.048h-16.193a.644.644 0 0 0-.232-.052c-7.964-.237-15.313 4.528-18.985 11.496-2.503 6.022-2.229 12.777-2.39 19.196-.09 1.144 0 2.728-.392 3.796-.043.057-.104.099-.157.147-.203.009-.444.056-.619-.067-.847-.855-1.477-1.942-2.04-3.011a.595.595 0 0 0-.251-.378l-13.117-22.316a.656.656 0 0 0-.076-.142c-1.306-2.368-2.607-4.869-4.438-6.906-1.216-1.172-2.896-1.683-4.552-1.773a.806.806 0 0 0-.507 0h-36.597c-.464-.118-.975-.104-1.391-.383-1.893-.955-2.769-2.94-3.431-4.854-.085-.223-.151-.459-.218-.691V66.92c.412-3.304-1.921-4.736-4.429-6.428-.355-.204-.705-.421-1.055-.634a.98.98 0 0 0-.341-.227c-3.823-2.155-7.642-4.325-11.465-6.48-3.71-2.095-7.42-4.198-11.13-6.292-.336-.123-.748-.482-1.145-.667-.024-.019-.048-.042-.076-.061-.544-.373-.994-.86-1.543-1.23-.705-.538-1.679-1.006-1.694-2.018.791-.595 1.832-.401 2.773-.524 1.737-.1 3.45-.109 5.224-.175 2.04-.09 4.042-.19 6.086-.298 3.076 0 6.241-.222 9.066-1.536 4.799-2.274 8.92-7.573 9.521-12.9.189-.998.17-2.156.204-3.191.019-.378.037-.766.019-1.149 0-.014-.005-.023-.005-.033V6.533s-.005-.024-.01-.038c.019-1.125-.108-2.222-.26-3.356-.227-.795-1.013-1.262-1.713-1.617-.823-.364-1.746-.26-2.617-.392-3.298-.322-6.61-.062-9.923-.067-11.517.374-16.036.11-23.026 10.263-.766.898-1.651 2.543-3.019 2.184-.686-.69-1.164-1.603-1.85-2.321-2.688-3.03-5.314-6.202-8.82-8.334-5.802-3.162-12.758-3.054-19.184-2.666-.052 0-.099.014-.142.024-2.158.15-4.306.392-6.431.817-1.594.223-3.246.426-3.828 2.16-.17.516-.151 1.05-.255 1.58a.622.622 0 0 0 .047.293v16.175a.683.683 0 0 0-.052.232c-.237 7.956 4.533 15.297 11.508 18.965 6.029 2.5 12.791 2.226 19.212 2.387 1.145.09 2.73 0 3.8.392.057.043.099.104.147.156.009.204.056.445-.067.62-.856.846-1.945 1.474-3.014 2.037a.6.6 0 0 0-.379.25l-22.339 13.104a.666.666 0 0 0-.142.075c-2.371 1.305-4.874 2.605-6.914 4.434-1.173 1.215-1.684 2.893-1.774 4.548a.803.803 0 0 0 0 .505v36.616c-.09 1.834-.426 3.616-2.508 4.131-.625.204-1.344.289-2.007.426a3.33 3.33 0 0 0-.421.052H66.995c-3.308-.411-4.741 1.919-6.435 4.424-.204.355-.422.705-.635 1.054a.983.983 0 0 0-.227.341c-2.157 3.819-4.33 7.634-6.487 11.453-2.096 3.706-4.202 7.412-6.298 11.118-.123.336-.483.747-.668 1.144-.019.024-.042.048-.061.076-.374.544-.861.993-1.23 1.541-.54.704-1.008 1.678-2.021 1.692-.596-.789-.402-1.829-.525-2.77-.1-1.735-.11-3.446-.175-5.218-.09-2.038-.19-4.037-.298-6.079 0-3.073-.223-6.235-1.538-9.057-2.276-4.794-7.581-8.911-12.914-9.511-.999-.189-2.158-.17-3.194-.203-.379-.019-.767-.038-1.15-.019-.014 0-.024.004-.033.004H6.539s-.024.005-.038.01c-1.126-.019-2.224.109-3.36.26-.795.227-1.263 1.011-1.618 1.711-.364.823-.26 1.744-.393 2.614-.321 3.295-.061 6.604-.066 9.913.374 11.505.109 16.02 10.273 23.001.9.766 2.546 1.65 2.187 3.016-.691.686-1.605 1.163-2.324 1.848-3.033 2.685-6.208 5.309-8.342 8.812-3.166 5.795-3.057 12.744-2.67 19.163 0 .052.015.099.024.142.152 2.155.393 4.301.819 6.424.222 1.593.426 3.243 2.162 3.824.512.17 1.051.151 1.581.255a.623.623 0 0 0 .293-.047H21.26a.685.685 0 0 0 .232.052c7.964.236 15.313-4.529 18.985-11.496 2.503-6.022 2.229-12.777 2.39-19.197.09-1.144 0-2.727.392-3.795.043-.057.105-.1.157-.147.203-.009.444-.057.62.066.846.856 1.476 1.943 2.039 3.011a.595.595 0 0 0 .25.378l13.118 22.317a.717.717 0 0 0 .076.142c1.306 2.368 2.607 4.868 4.438 6.906 1.216 1.172 2.896 1.683 4.552 1.772a.804.804 0 0 0 .507 0h36.625c.204.09.445.076.658.171 2.196.836 3.847 2.675 4.358 4.963v38.823c-.411 3.304 1.922 4.736 4.43 6.429.354.203.705.42 1.055.633a.976.976 0 0 0 .341.227c3.823 2.156 7.642 4.325 11.465 6.481 3.71 2.094 7.42 4.197 11.13 6.291.336.123.748.483 1.145.667.024.019.047.043.076.061.544.374.993.861 1.542 1.229.705.539 1.68 1.007 1.694 2.019-.79.596-1.831.402-2.773.525-1.736.099-3.449.108-5.224.174-2.039.09-4.041.19-6.085.298-3.076 0-6.242.222-9.067 1.537-4.798 2.273-8.919 7.572-9.52 12.9-.19.997-.171 2.155-.204 3.19-.019.379-.038.766-.019 1.149 0 .014.005.024.005.033v16.559l.009.038c-.019 1.125.109 2.221.261 3.356.227.794 1.012 1.262 1.713 1.617.823.363 1.746.26 2.616.392 3.299.321 6.611.061 9.923.066 11.518-.373 16.037-.109 23.026-10.262.767-.898 1.652-2.543 3.019-2.184.687.69 1.165 1.602 1.851 2.321 2.687 3.03 5.314 6.202 8.82 8.334 5.802 3.162 12.758 3.053 19.184 2.666.052 0 .099-.015.142-.024 2.157-.151 4.306-.392 6.43-.818 1.595-.222 3.247-.425 3.829-2.16.17-.515.151-1.05.255-1.579a.622.622 0 0 0-.047-.293v-16.176a.683.683 0 0 0 .052-.232c.237-7.955-4.533-15.296-11.508-18.964-6.029-2.501-12.791-2.227-19.212-2.387-1.145-.09-2.731 0-3.8-.393-.057-.042-.099-.104-.147-.156-.009-.203-.057-.444.066-.619.857-.846 1.945-1.475 3.015-2.037a.6.6 0 0 0 .378-.251l22.34-13.103a.702.702 0 0 0 .142-.076c2.371-1.305 4.874-2.604 6.914-4.434 1.173-1.215 1.684-2.893 1.774-4.547a.803.803 0 0 0 0-.506v-36.738c.156-.265.038-.577.156-.865.606-1.419 1.718-2.775 3.279-3.172.407-.156.724-.26 1.169-.374a.523.523 0 0 0 .152-.08h39.55c3.308.411 4.741-1.919 6.435-4.425.204-.354.422-.704.634-1.054a.961.961 0 0 0 .228-.34c2.157-3.82 4.329-7.634 6.487-11.454 2.096-3.706 4.202-7.412 6.299-11.118.123-.335.482-.746.667-1.144.019-.023.042-.047.061-.075.374-.544.861-.993 1.231-1.541.539-.704 1.007-1.678 2.02-1.692.596.789.402 1.829.525 2.77.1 1.734.109 3.446.175 5.218.09 2.038.19 4.037.299 6.079 0 3.073.222 6.235 1.538 9.057 2.276 4.793 7.58 8.911 12.913 9.511.999.189 2.158.17 3.194.203.379.019.767.038 1.15.019.014 0 .024-.005.033-.005h16.576s.024-.004.038-.009c1.127.019 2.224-.109 3.36-.26.795-.227 1.264-1.012 1.618-1.711.365-.823.261-1.745.393-2.614.322-3.295.062-6.604.066-9.913-.373-11.505-.108-16.02-10.273-23.002-.899-.765-2.546-1.649-2.186-3.015.691-.686 1.604-1.163 2.323-1.849l-.009-.014Zm-179.31-41.706c.028-.189.024-.397.014-.572V68.641c0-.024-.005-.043-.009-.066v-.01c.056-.676.127-1.352.355-1.995.416-1.422 1.519-2.368 2.763-3.115.97-.661 1.95-1.328 2.986-1.88-.009 0-.014.008-.024.013.01 0 .015-.01.024-.01.549-.273 1.079-.58 1.614-.874a.634.634 0 0 0 .142-.061c1.746-1.021 3.487-2.047 5.233-3.068 5.953-3.493 11.906-6.982 17.859-10.475.033-.019.057-.043.085-.062.369-.17.743-.425.989-.553.837-.59 1.732-1.03 2.371-1.876.383-.676.359-1.688-.27-2.212-.577-.497-1.349-.558-2.082-.572-1.675-.175-3.36-.194-5.044-.208-5.504-.095-11.239-.123-16.402-2.312-6.038-3.328-10.509-9.629-10.613-16.653 0-.118-.01-.25-.019-.388.014-.052.033-.104.033-.16V5.01a.593.593 0 0 0-.043-.204c.076-.402.047-.723.161-1.172.166-.312.289-.643.577-.87 1.103-.51 2.371-.506 3.545-.785 1.315-.24 2.65-.363 4.012-.515.492-.066 1.032.014 1.515-.108a61.932 61.932 0 0 1 8.219-.076c3.412.307 6.951.855 9.98 2.571 3.951 2.52 7.032 6.193 9.904 9.842.771 1.262 2.049 1.342 3.237.615 1.864-1.442 2.976-3.57 4.49-5.39 1.718-2.126 3.819-4.083 6.422-5.123 1.973-.809 4.192-1.064 6.331-1.225 3.365-.27 6.734-.326 10.112-.373 2.617-.062 5.229-.104 7.846.213.795-.02 1.699.335 2.115 1.03.133.534.114.988.147 1.579.066.482.104.969.099 1.451 0 .02-.014.038-.014.062v.231c-.005.104-.009.208-.019.317 0 .028.014.047.019.076V23.37s.01.033.01.047c-.029 1.801-.052 3.617-.474 5.38-1.145 4.67-5.153 9.364-9.733 10.962-2.66.94-5.475.917-8.262 1.007-3.346.165-6.663.316-10.028.397h.076c-1.386.146-3.104-.109-4.188.969-.534.595-.208 1.451.067 2.094.544.955 1.618 1.376 2.394 2.094.246.232.573.477.866.7a.936.936 0 0 0 .402.297c4.212 2.383 8.428 4.76 12.635 7.143 3.478 1.971 6.96 3.933 10.438 5.9.332.306.947.481 1.25.75 1.381.828 2.749 1.717 3.852 2.922.567.563.719 1.385.714 2.18a.58.58 0 0 0-.024.16v.383a.901.901 0 0 0 0 .298v41.635a.59.59 0 0 0 .081.303c.009 1.03-.171 1.91-1.278 2.647a.224.224 0 0 0 .038-.033c-.946.657-1.85 1.375-2.853 1.943a.594.594 0 0 0-.322.08c-9.474 5.559-18.947 11.113-28.416 16.668-.005 0-.009.009-.014.014-.464.264-.909.548-1.386.803-1.434.714-2.911 1.485-4.581 1.555-1.623-.146-2.91-1.205-4.297-2.018-.042-.042-.08-.09-.137-.118-.861-.492-1.732-.974-2.593-1.466-4.249-2.406-8.499-4.807-12.753-7.208-4.112-2.326-8.229-4.652-12.336-6.973-1.193-.676-2.39-1.351-3.582-2.027-.275-.218-.686-.369-.956-.539-2.158-1.22-3.53-1.707-3.279-4.524v-.052l.009.005Zm78.622 4.495s-.033.038-.047.057c0-.005-.005-.01-.01-.014l.057-.043Zm-4.609 73.023c-.208.619-.799.912-1.415 1.073-.421.137-.96.057-1.405-.038-3.043-1.72-6.085-3.446-9.133-5.162-4.216-2.387-8.437-4.764-12.653-7.152-1.841-1.044-3.691-2.079-5.532-3.124a.517.517 0 0 0-.218-.142c-.501-.336-1.055-.61-1.589-.936-3.975-3.058-7.051-1.106-10.851 1.064l-.043.028c-1.135.667-2.271 1.338-3.411 2-7.245 4.249-14.494 8.499-21.739 12.753a.673.673 0 0 0-.223-.024c-1.102.317-1.902-.836-2.044-1.81a3.626 3.626 0 0 1 .104-1.475.526.526 0 0 0 .109-.35c1.51-2.661 3.019-5.327 4.524-7.993 2.39-4.212 4.77-8.428 7.159-12.64 1.046-1.839 2.083-3.687 3.128-5.526a.52.52 0 0 0 .142-.217c.336-.502.611-1.055.937-1.589 3.062-3.97 1.107-7.043-1.065-10.839a1.02 1.02 0 0 0-.028-.042c-.667-1.135-1.339-2.269-2.002-3.409-4.003-6.806-8.001-13.613-12.005-20.42v-.128c-.099-.586.062-1.177.265-1.73.44-.851 1.463-1.357 2.428-1.253.137.005.336.104.525.142 2.664 1.508 5.328 3.016 7.992 4.514 4.217 2.388 8.438 4.765 12.654 7.152 1.841 1.045 3.691 2.08 5.532 3.125a.533.533 0 0 0 .217.142c.502.335 1.056.61 1.59.936 3.975 3.058 7.051 1.106 10.851-1.064l.042-.028c1.136-.667 2.272-1.338 3.412-2 7.604-4.462 15.213-8.924 22.818-13.387.024.005.042.019.066.024.317.033.648-.071.956.057.97.378 1.093 1.489.861 2.387a2.106 2.106 0 0 0-.118.416c-1.775 3.134-3.554 6.263-5.324 9.397-2.389 4.212-4.769 8.428-7.159 12.64-1.046 1.839-2.082 3.687-3.128 5.526a.517.517 0 0 0-.142.218c-.336.501-.61 1.054-.937 1.588-3.062 3.971-1.107 7.043 1.065 10.839l.028.042c.667 1.135 1.339 2.269 2.002 3.409l12.918 21.971a.628.628 0 0 0-.042.274c.047.26-.024.515-.128.752l.009.009Zm-78.584 4.67h-.052a2.994 2.994 0 0 0-.573-.014H68.713c-.024 0-.043.005-.066.01h-.01c-.677-.057-1.353-.128-1.997-.355-1.424-.416-2.37-1.517-3.118-2.76-.663-.97-1.33-1.948-1.883-2.988 0 .01.009.014.014.024 0-.01-.01-.014-.01-.024-.274-.544-.582-1.078-.875-1.612a.629.629 0 0 0-.062-.142c-1.022-1.744-2.049-3.483-3.07-5.228-3.498-5.946-6.99-11.893-10.487-17.84-.019-.033-.043-.056-.061-.085-.17-.368-.426-.742-.554-.988-.591-.836-1.032-1.73-1.879-2.368-.676-.383-1.689-.359-2.214.27-.497.576-.559 1.347-.573 2.08-.175 1.673-.194 3.356-.208 5.039-.095 5.497-.123 11.226-2.314 16.383-3.331 6.032-9.64 10.499-16.67 10.603-.12 0-.252.01-.389.019-.052-.014-.104-.033-.16-.033H5.014a.617.617 0 0 0-.203.042c-.402-.075-.724-.047-1.174-.16-.312-.166-.643-.289-.87-.577-.511-1.101-.507-2.368-.786-3.541-.241-1.314-.364-2.647-.516-4.008-.066-.492.015-1.031-.109-1.513a61.746 61.746 0 0 1-.075-8.211c.307-3.408.856-6.943 2.574-9.969 2.522-3.947 6.199-7.024 9.852-9.893 1.264-.771 1.344-2.047.615-3.234-1.443-1.862-3.572-2.968-5.394-4.486-2.13-1.716-4.089-3.814-5.13-6.414-.809-1.971-1.065-4.188-1.225-6.325-.27-3.361-.327-6.727-.374-10.102-.062-2.614-.104-5.223.213-7.837-.02-.794.336-1.697 1.031-2.113.535-.132.99-.113 1.58-.147a9.99 9.99 0 0 1 1.454-.099c.018 0 .037.014.061.014h.232c.104.005.208.01.317.019.028 0 .047-.014.076-.019h16.23s.034-.009.048-.009c1.803.028 3.62.052 5.385.473 4.675 1.144 9.374 5.147 10.973 9.723.942 2.657.918 5.469 1.008 8.253.166 3.342.317 6.656.398 10.017v-.076c.146 1.385-.11 3.101.97 4.184.596.534 1.453.208 2.096-.066.956-.544 1.377-1.617 2.096-2.392.232-.246.478-.572.7-.865a.94.94 0 0 0 .299-.402c2.385-4.207 4.765-8.419 7.15-12.621 1.973-3.475 3.937-6.954 5.905-10.428.308-.331.483-.945.753-1.248.828-1.376 1.718-2.746 2.924-3.848.563-.567 1.387-.718 2.182-.714a.546.546 0 0 0 .16.024h.384a.903.903 0 0 0 .298 0h39.048c.119.019.242.014.365 0h2.266a.588.588 0 0 0 .303-.08c1.032-.01 1.912.17 2.65 1.276a.224.224 0 0 0-.033-.038c.658.946 1.377 1.848 1.945 2.851a.591.591 0 0 0 .08.321c5.565 9.464 11.125 18.927 16.685 28.386 0 .005.01.009.015.014.265.463.549.908.804 1.385.715 1.432 1.486 2.907 1.557 4.576-.147 1.621-1.207 2.907-2.021 4.292-.042.042-.09.08-.118.137-.492.86-.975 1.73-1.467 2.59-2.408 4.245-4.812 8.49-7.216 12.74-2.328 4.107-4.656 8.22-6.98 12.323-.677 1.191-1.353 2.387-2.03 3.578-.218.275-.369.686-.539.955-1.221 2.156-1.709 3.527-4.529 3.276l.005-.005Zm3.989-.193-.01.009.01-.009Zm78.613 4.504a2.83 2.83 0 0 0-.014.572v38.535c0 .024.004.043.009.066v.01c-.057.676-.128 1.352-.355 1.994-.416 1.423-1.519 2.369-2.763 3.116-.97.661-1.95 1.328-2.991 1.881.01 0 .014-.009.024-.009-.554.278-1.093.59-1.638.888a.601.601 0 0 0-.142.062c-1.746 1.021-3.487 2.046-5.233 3.068-5.953 3.493-11.906 6.981-17.859 10.475-.033.018-.057.042-.085.061-.369.17-.743.425-.989.553-.837.591-1.732 1.031-2.371 1.877-.383.676-.359 1.687.27 2.212.577.496 1.349.558 2.082.572 1.675.175 3.36.194 5.044.208 5.504.094 11.239.123 16.402 2.311 6.038 3.328 10.509 9.629 10.614 16.654 0 .118.009.25.018.387-.014.052-.033.104-.033.161v17.084c0 .07.019.137.043.203-.076.402-.047.723-.161 1.172-.166.312-.289.643-.577.87-1.103.51-2.371.506-3.545.785-1.315.241-2.649.364-4.012.515-.492.066-1.032-.014-1.515.109-2.73.203-5.484.236-8.219.075-3.412-.307-6.951-.855-9.98-2.571-3.951-2.52-7.032-6.193-9.904-9.842-.771-1.262-2.049-1.343-3.237-.615-1.864 1.442-2.976 3.569-4.49 5.389-1.718 2.127-3.819 4.084-6.422 5.124-1.973.809-4.192 1.064-6.331 1.225-3.365.269-6.734.326-10.112.373-2.617.062-5.229.104-7.846-.213-.795.019-1.699-.335-2.115-1.03-.133-.534-.114-.988-.147-1.579a9.967 9.967 0 0 1-.099-1.451c0-.019.014-.038.014-.062v-.231c.005-.104.009-.208.019-.317 0-.028-.014-.047-.019-.076v-16.213s-.01-.033-.01-.047c.029-1.801.052-3.617.474-5.38 1.145-4.67 5.153-9.364 9.733-10.962 2.66-.94 5.475-.917 8.262-1.007 3.346-.165 6.663-.316 10.028-.397h-.076c1.386-.146 3.104.109 4.188-.969.534-.595.208-1.451-.067-2.094-.544-.955-1.618-1.375-2.394-2.094-.246-.232-.573-.477-.866-.7a.932.932 0 0 0-.402-.297c-4.212-2.383-8.428-4.76-12.635-7.143-3.478-1.971-6.96-3.933-10.438-5.899-.332-.307-.947-.482-1.25-.752-1.381-.827-2.749-1.716-3.852-2.921-.567-.563-.719-1.385-.714-2.179a.584.584 0 0 0 .024-.161v-.383a.903.903 0 0 0 0-.298v-41.635a.59.59 0 0 0-.081-.303c-.009-1.03.171-1.91 1.278-2.647a.28.28 0 0 0-.038.033c.946-.657 1.85-1.375 2.853-1.943a.594.594 0 0 0 .322-.08c9.474-5.559 18.947-11.113 28.416-16.667.005 0 .009-.01.014-.015.464-.264.909-.548 1.387-.803 1.433-.714 2.91-1.485 4.58-1.555 1.623.146 2.91 1.205 4.297 2.018.042.043.08.09.137.118.861.492 1.732.974 2.593 1.466 4.249 2.406 8.499 4.807 12.753 7.208 4.112 2.326 8.229 4.652 12.336 6.973l3.582 2.027c.275.218.687.369.956.539 2.158 1.22 3.53 1.707 3.28 4.524v.052l-.005-.005Zm98.156-41.115c1.443 1.862 3.573 2.973 5.394 4.486 2.13 1.716 4.089 3.814 5.13 6.414.809 1.971 1.065 4.188 1.225 6.325.27 3.361.327 6.727.374 10.102.062 2.614.104 5.223-.213 7.837.019.794-.336 1.697-1.031 2.113-.535.132-.989.114-1.581.147a9.98 9.98 0 0 1-1.452.099c-.019 0-.038-.014-.062-.014h-.232c-.104-.005-.208-.01-.317-.019-.028 0-.047.014-.076.019H279.6s-.034.009-.048.009c-1.803-.028-3.62-.052-5.385-.473-4.675-1.143-9.374-5.147-10.973-9.723-.942-2.657-.918-5.469-1.008-8.253-.166-3.342-.317-6.656-.398-10.017v.076c-.146-1.385.109-3.101-.97-4.184-.596-.534-1.452-.208-2.096.066-.956.544-1.377 1.617-2.096 2.392-.232.246-.478.572-.701.865a.949.949 0 0 0-.298.402c-2.385 4.207-4.765 8.419-7.15 12.621-1.973 3.475-3.937 6.954-5.905 10.428-.308.331-.483.945-.753 1.248-.828 1.376-1.717 2.746-2.924 3.848-.563.567-1.387.718-2.182.714a.542.542 0 0 0-.16-.024h-.384a.903.903 0 0 0-.298 0h-41.679a.588.588 0 0 0-.303.08c-1.032.01-1.912-.17-2.65-1.276.009.014.019.024.033.038-.658-.946-1.377-1.848-1.945-2.851a.591.591 0 0 0-.08-.321c-5.565-9.463-11.125-18.927-16.685-28.386 0-.004-.01-.009-.015-.014-.265-.463-.549-.908-.804-1.385-.715-1.432-1.486-2.907-1.557-4.576.147-1.621 1.207-2.907 2.021-4.292.042-.042.09-.08.118-.137.492-.86.975-1.73 1.467-2.59 2.408-4.245 4.812-8.49 7.216-12.74 2.328-4.107 4.656-8.22 6.98-12.323.677-1.191 1.353-2.387 2.03-3.578.218-.275.369-.686.539-.955 1.221-2.156 1.709-3.527 4.529-3.276h.052c.189.028.397.024.573.014h38.575c.024 0 .042-.005.066-.009h.01c.676.056 1.353.127 1.996.354 1.425.416 2.371 1.518 3.119 2.761.662.969 1.33 1.947 1.883 2.987 0-.009-.009-.014-.014-.023 0 .004.009.014.009.023.275.544.583 1.078.876 1.612a.62.62 0 0 0 .061.142c1.023 1.744 2.049 3.484 3.072 5.228 3.496 5.947 6.989 11.893 10.486 17.84.019.033.042.057.061.085.171.369.426.742.554.988.591.837 1.031 1.73 1.878 2.368.677.383 1.69.359 2.215-.269.497-.577.558-1.348.573-2.08.175-1.674.194-3.356.208-5.039.094-5.498.123-11.227 2.314-16.384 3.331-6.032 9.639-10.499 16.671-10.603.118 0 .25-.009.388-.019.052.014.104.033.161.033h17.101a.613.613 0 0 0 .203-.042c.403.075.724.047 1.174.161.312.165.644.288.871.576.511 1.102.506 2.369.785 3.541.242 1.314.365 2.647.516 4.008.066.492-.014 1.031.109 1.513.203 2.727.236 5.479.076 8.211-.308 3.408-.857 6.944-2.575 9.969-2.522 3.947-6.199 7.024-9.852 9.894-1.263.77-1.344 2.047-.615 3.233l.005.005Z"/><path fill="#000" d="M61.653 183.862s-.01-.014-.014-.023c0 .009.01.014.01.023h.004ZM217.639 135.647h.019c-11.645-2.435-21.942 8.4-18.885 19.896 3.071 11.917 18.18 16.076 26.939 7.416 9.199-8.986 4.529-24.75-8.073-27.317v.005Zm-16.599 22.562c-4.856-9.416 1.731-21.045 12.364-21.674 11.438-.832 19.581 11.397 14.371 21.626-5.479 10.915-21.194 10.958-26.735.048Z"/><path fill="#000" d="M213.512 141.721c-7.694-3.687-12.899 5.138-11.66 11.974.53 3.691 2.504 7.412 5.949 9.151 3.975 2.071 8.55-.236 10.311-4.112 2.768-5.678 1.14-13.832-4.605-17.018l.005.005Zm1.529 19.163c-3.28 2.95-7.837 1.352-10.037-2.094-1.079-1.602-1.746-3.479-2.002-5.407.081.34.175.666.298.978 1.486 4.916 6.445 6.689 9.19 3.058a1.576 1.576 0 0 1-.681-.184 1.119 1.119 0 0 1-.166-.099 2.52 2.52 0 0 1-.899-1.087c-.204-.454-.36-.941-.312-1.452.023-.283.075-.576.217-.832.142-.26.322-.486.544-.685.218-.184.45-.336.72-.435a2.35 2.35 0 0 1 .752-.127h.062c.075 0 .156.004.232.014.052.004.108.014.16.023.048.01.09.015.138.029.288.066.563.189.804.373.279-3.455-1.069-7.232-4.245-8.802-.672-.25-1.301-.364-1.878-.364-1.519 0-2.721.785-3.578 1.976 1.15-1.99 2.977-3.559 5.362-3.71 8.688.08 11.2 13.699 5.314 18.837l.005-.01ZM188.477 178.289c-.317-.714-1.382-.251-1.089.459.904 1.971 2.343 3.606 3.351 5.54.336.529.672 1.81 1.509 1.295.639-.544-.312-1.314-.497-1.91-.96-1.848-2.38-3.493-3.269-5.389l-.005.005ZM186.668 176.975a.592.592 0 1 0-.001-1.183.592.592 0 0 0 .001 1.183ZM198.939 114.153a.602.602 0 0 0-.616-.567c-.832.056-1.665.089-2.498.137-1.642-.071-3.166.742-3.989 2.179-.596 1.068-1.42 2.24-1.827 3.432-.17.751.985 1.006 1.155.255.355-.912.932-1.744 1.405-2.605.44-.827 1.018-1.555 1.921-1.919 1.269-.279 2.594-.17 3.885-.302a.605.605 0 0 0 .568-.615l-.004.005ZM200.576 114.715c.322 0 .578-.302.568-.614a.6.6 0 0 0-.615-.567c-.322 0-.577.302-.568.614a.601.601 0 0 0 .615.567ZM197.291 144.628a.6.6 0 0 0-.762.345 15.852 15.852 0 0 0-.932 3.243c-.255 1.337-.213 2.732.066 4.065.038.643.985.936 1.24.274a.588.588 0 0 0-.099-.577 9.903 9.903 0 0 1-.199-1.867c-.019-1.049.237-2.103.469-3.134.08-.69 1.121-1.928.217-2.349ZM198.683 143.026a.601.601 0 0 0-.615-.568c-.322 0-.577.303-.568.615a.601.601 0 0 0 .615.567c.322 0 .578-.303.568-.614ZM233.095 151.704c-.965-.019-.629 1.262-.748 1.891-.109 1.201-.44 2.463-.88 3.593-.341.836-.719 1.55-1.32 2.259-.265.303-.611.615-.535 1.05.09.647 1.065.657 1.169.018 1.486-1.588 2.186-3.696 2.617-5.785.142-.804.132-1.537.213-2.369.023-.321-.185-.619-.516-.657ZM232.824 150.39a.596.596 0 0 0 .582-.6.591.591 0 1 0-.582.6ZM242.321 182.17c-.653-.359-.937.454-1.212.889-.61 1.049-1.121 2.132-1.954 3.039-.435.355-.975 1.092-.246 1.466.284.122.658-.01.771-.308 1.013-.988 1.699-2.231 2.361-3.465.265-.472.933-1.186.275-1.621h.005ZM243.164 180.279a.598.598 0 0 0-.592.591c0 .322.27.591.592.591a.597.597 0 0 0 .591-.591.597.597 0 0 0-.591-.591ZM253.744 142.042l.028.043a27.012 27.012 0 0 1-.903-1.39s-.01-.014-.019-.023c-.005-.01-.015-.019-.019-.034-.474-.78-1.164-1.531-1.552-2.396.018.042.037.075.052.118-.242-.723-1.33-.392-1.136.331.312.799.89 1.446 1.358 2.155.44.662.866 1.381 1.325 2.028.563.657 1.448-.203.866-.827v-.005ZM254.388 143.55a.601.601 0 0 0-.601.582c0 .321.26.6.582.6a.6.6 0 0 0 .601-.581.598.598 0 0 0-.582-.601ZM264.103 172.508c.364-.128.43-.506.359-.837.09-1.526-.085-3.101-.175-4.632-.066-.771-1.23-.676-1.178.09.175 1.678.133 3.342.237 5.02a.6.6 0 0 0 .757.359ZM264.089 173.264c-.322 0-.606.223-.625.558-.019.307.236.624.558.624.322 0 .606-.222.625-.558.019-.307-.237-.624-.558-.624ZM298.045 167.668c.156.779.1 1.588.171 2.372.042.152.17.265.302.336 1.491.511.635-2.779.582-3.559-.265-1.244-.7-2.468-1.438-3.513-.369-.685-1.401-.137-1.046.549.771 1.101 1.254 2.472 1.429 3.815ZM295.807 162.889c.322 0 .606-.223.625-.558.019-.307-.237-.624-.558-.624-.322 0-.606.222-.625.558-.019.307.237.624.558.624ZM296.967 114.659c.36.038.658.071 1.008.213.123.066.274.113.355.236.449.969.464 2.084.587 3.129-.048.52.203 1.347.88 1.125.407-.142.445-.591.307-.94.005-.256-.038-.615-.071-.899-.194-2.051-.331-3.899-2.839-4.027-.757-.132-.979 1.016-.218 1.163h-.009ZM294.96 114.569c.322 0 .605-.222.624-.558.019-.307-.236-.624-.558-.624-.322 0-.606.222-.625.558-.019.307.237.624.559.624ZM146.982 197.887c-11.93 3.068-16.094 18.161-7.425 26.911 8.996 9.189 24.777 4.524 27.347-8.064l-.005.038c2.451-11.643-8.4-21.943-19.913-18.88l-.004-.005Zm-2.622 28.967c-10.926-5.473-10.969-21.172-.047-26.707 9.426-4.85 21.067 1.73 21.696 12.351.833 11.426-11.409 19.561-21.649 14.356Z"/><path fill="#000" d="M148.831 200.96c-3.695.529-7.42 2.5-9.161 5.942-2.073 3.97.237 8.541 4.117 10.3 5.683 2.765 13.846 1.139 17.035-4.6 3.691-7.686-5.144-12.885-11.986-11.647l-.005.005Zm-7.197 13.169c-2.953-3.276-1.354-7.828 2.096-10.026 1.604-1.077 3.483-1.744 5.414-1.999-.341.08-.668.175-.98.298-4.921 1.484-6.696 6.438-3.062 9.179.01-.231.071-.463.185-.676.028-.056.061-.113.099-.17a2.53 2.53 0 0 1 1.089-.898c.454-.203.941-.359 1.452-.312.284.024.578.076.833.218.26.141.488.321.686.543.185.218.336.449.436.719.09.236.118.496.127.751v.062c0 .075-.004.156-.014.231-.004.052-.014.109-.023.161-.01.047-.015.09-.029.137a2.07 2.07 0 0 1-.374.804c3.459.279 7.24-1.069 8.811-4.24.251-.672.365-1.3.365-1.877 0-1.517-.786-2.718-1.978-3.574 1.992 1.149 3.563 2.974 3.714 5.356-.08 8.679-13.713 11.189-18.857 5.309l.01.004ZM123.751 186.509c-1.973.903-3.605 2.34-5.545 3.347-.53.336-1.813.671-1.297 1.508.544.638 1.316-.312 1.912-.496 1.85-.96 3.497-2.378 5.394-3.267.715-.316.251-1.38-.459-1.087l-.005-.005ZM126.117 186.382a.59.59 0 1 0 0-1.182.59.59 0 0 0 0 1.182ZM188.414 198.048a.602.602 0 0 0 .568-.614c-.057-.832-.09-1.664-.138-2.496.071-1.641-.742-3.163-2.181-3.985-1.069-.596-2.243-1.418-3.435-1.825-.753-.17-1.008.983-.256 1.154.913.354 1.746.931 2.607 1.403.828.44 1.557 1.017 1.922 1.92.279 1.266.17 2.59.302 3.881.01.321.303.576.616.567l-.005-.005ZM188.419 199.064a.6.6 0 0 0-.567.615c0 .321.302.576.615.567a.601.601 0 0 0 .568-.615c0-.321-.303-.576-.616-.567ZM149.971 196.015a.588.588 0 0 0 .577-.099 9.932 9.932 0 0 1 1.869-.198c1.051-.019 2.106.236 3.137.468.691.08 1.931 1.12 2.352.217a.598.598 0 0 0-.345-.761 15.894 15.894 0 0 0-3.246-.931c-1.34-.255-2.735-.213-4.07.066-.643.038-.937.983-.274 1.238ZM159.516 197.797a.6.6 0 0 0 .567-.614c0-.321-.302-.577-.615-.567a.601.601 0 0 0-.568.614c0 .322.303.577.616.567ZM148.93 231.421c-1.202-.109-2.465-.44-3.596-.879-.838-.341-1.552-.719-2.262-1.319-.303-.265-.615-.61-1.051-.534-.648.089-.657 1.063-.018 1.167 1.59 1.484 3.7 2.184 5.792 2.614.804.142 1.537.133 2.37.213.322.024.62-.184.658-.515.019-.965-1.263-.629-1.893-.747ZM152.725 231.303a.594.594 0 0 0-.582.6c0 .326.279.586.601.582a.596.596 0 0 0 .582-.601.592.592 0 0 0-.601-.581ZM119.43 240.175c-1.05-.609-2.134-1.12-3.042-1.952-.355-.435-1.093-.974-1.467-.246-.123.284.009.657.307.771.989 1.011 2.234 1.697 3.469 2.359.473.264 1.188.931 1.623.274.36-.653-.454-.936-.89-1.21v.004ZM121.633 241.636a.598.598 0 0 0-.592.591c0 .321.27.591.592.591.321 0 .591-.27.591-.591a.597.597 0 0 0-.591-.591ZM163.855 249.251c-.799.312-1.448.889-2.157 1.357-.663.439-1.382.865-2.03 1.323-.658.563.203 1.447.828.865l-.043.029c.459-.322.899-.601 1.391-.903 0 0 .019-.009.024-.014.009-.005.019-.014.033-.019.781-.473 1.533-1.163 2.399-1.551-.042.019-.075.038-.118.052.724-.241.393-1.328-.331-1.134l.004-.005ZM158.4 252.839a.598.598 0 0 0-.601.581c0 .322.26.596.582.601.322 0 .601-.26.601-.582a.6.6 0 0 0-.582-.6ZM135.383 262.151c-1.679.175-3.345.132-5.025.236a.6.6 0 0 0-.36.757c.128.364.507.43.838.359 1.528.09 3.104-.085 4.637-.175.772-.066.677-1.229-.09-1.177ZM128.683 262.506c-.307-.019-.624.236-.624.558 0 .321.222.605.558.624.308.019.625-.237.625-.558 0-.322-.223-.605-.559-.624ZM138.662 295.623c-1.103.771-2.475 1.253-3.819 1.428-.781.156-1.59.099-2.375.17-.152.042-.265.17-.336.302-.511 1.489 2.782.634 3.563.582 1.244-.265 2.47-.7 3.516-1.437.686-.369.137-1.399-.549-1.045ZM140.257 294.257c-.307-.019-.624.236-.624.558 0 .321.222.605.558.624.308.019.625-.237.625-.558 0-.321-.223-.605-.559-.624ZM184.141 299.102c.255.005.615-.037.899-.07 2.054-.194 3.904-.331 4.032-2.837.132-.756-1.018-.978-1.164-.217-.038.359-.071.657-.213 1.007-.067.123-.114.274-.237.354-.97.449-2.087.464-3.133.586-.52-.047-1.348.204-1.126.88.142.406.592.444.942.307v-.01ZM188.556 294.593c.308.019.625-.236.625-.558 0-.321-.222-.605-.558-.624-.308-.019-.625.236-.625.558 0 .321.222.605.558.624Z"/></g><defs><clipPath id="a"><path fill="#fff" d="M0 0h303v302H0z"/></clipPath></defs></svg>