<svg xmlns="http://www.w3.org/2000/svg" width="262" height="214" fill="none"><g clip-path="url(#a)"><path fill="#CF70E2" d="M173.095 116.62c1.185.588 2.441.955 3.668 1.43.397.193 1.167.344 1.511.697.246.08.487.155.728.24 1.836.606 3.649 1.312 5.184 2.521.26.254.812.579 1.209.941 1.52-2.536 3.3-4.907 5.524-6.873.406-.362.831-.696 1.266-1.016-.515-.998-.846-2.08-1.209-3.138-.699-2.216-1.525-4.394-2.248-6.605a2.61 2.61 0 0 1-.16-.466.558.558 0 0 1-.081-.287 44.834 44.834 0 0 1-.509-1.74c-1.337-3.862-2.734-7.692-4.297-11.47-1.714-3.316-3.372-6.66-5.237-9.902-2.535-4.615-5.227-9.31-8.555-13.384-1.242-1.529-2.758-2.959-3.868-4.572-2.936-3.237-6.558-5.796-10.298-8.03-2.62-1.285-5.368-2.583-8.055-3.689-6.209-2.37-13.037-2.902-19.614-2.343-14.434 1.896-24.841 10.585-33.25 21.885-2.097 2.983-4.1 6.026-6.2 9.004-2.994 4.949-5.964 9.893-8.566 15.04-2.724 5.429-5.08 11.027-7.413 16.625-.689 1.519-1.128 3.128-1.728 4.681-.175.437-.363.87-.562 1.298a.56.56 0 0 1-.188.216c1.331.899 2.61 1.878 3.786 2.964 2.342-2.164 5.265-3.744 8.254-4.873.175-.08.35-.16.529-.226.038-.01.075-.01.108-.014.052-.019.104-.043.156-.057.458-.103.92-.197 1.388-.287a.676.676 0 0 1 .241-.056c.34-.118.67-.24.945-.325 6.19-2.074 11.898-6.473 14.5-12.537.09-.212.175-.437.283-.644 3.027-7.41 6.776-14.55 11.729-20.855 5.364-6.501 13.972-10.218 22.405-9.625 4.306.71 8.329 2.79 11.884 5.25 2.305 1.84 4.335 4.13 6.172 6.394 3.088 3.49 5.449 7.456 7.507 11.61 1.662 3.51 3.268 7.094 4.302 10.839.118.169.189.399.259.597 1.681 5.283 3.622 8.035 8.514 10.768l-.014.014Zm7.144-28.17a.593.593 0 0 1-.595.584.596.596 0 0 1-.586-.593c0-.324.274-.583.595-.583.321 0 .59.278.586.593Zm-3.712-7.385c1.03 1.552 1.865 3.227 2.734 4.874.364.672-.651 1.237-1.034.569-.803-1.552-1.624-3.1-2.545-4.591-1.02-.72.123-1.802.841-.852h.004ZM78.825 104.62c-.51 1.105-.897 2.262-1.421 3.363.005.461-.576.739-.94.456-.41-.301-.24-.823-.019-1.19.581-1.406 1.185-2.804 1.738-4.22a.592.592 0 0 1 .765-.334c.807.396.042 1.337-.118 1.925h-.005Zm1.09-4.733c-.297-.856.926-1.275 1.139-.376.297.851-.921 1.275-1.138.376Zm47.162-47.575c-1.828.315-3.801.494-5.487 1.19a.602.602 0 0 1-.831.07c-1.436-1.697 5.26-2.172 6.223-2.431.765-.057.859 1.096.09 1.171h.005Zm2.955-.005c-.321 0-.571-.315-.557-.62.019-.335.302-.556.623-.556.322 0 .572.316.558.621-.019.334-.303.555-.624.555Z"/><path fill="#EF9FFF" d="M83.259 116.625c-.217.075-.43.16-.647.245-3.4 1.811-5.128 6.068-4.07 9.733.061.188.085.414.047.612.09.428.047.766-.236.922-.278.141-.66.037-.793-.259-1.804-5.227-6.771-8.557-11.351-11.215-2.975-1.614-6.04-3.303-9.453-3.75a20.906 20.906 0 0 0-6.89-.164c-3.399.724-6.695 2.136-9.457 4.205l.01-.009c-.232.179-.458.362-.68.55-.203.193-.406.381-.6.584-.156.136-.312.277-.463.414-.821.837-1.572 1.745-2.3 2.662-.013.015-.027.029-.037.043l-.085.164c-.604 1.101-1.525 1.981-2.11 3.091a18.027 18.027 0 0 1-1.644 2.7.604.604 0 0 1-.817.179c-.264-.169-.358-.55-.179-.814.212-.296.43-.602.633-.912.023-.104.061-.203.108-.297.142-.541.25-1.086.326-1.641.647-3.726-1.303-7.636-4.462-9.607-.146-.075-.312-.127-.449-.207-2.785-.776-5.821-.767-8.763.047-5.147 1.807-9.632 5.429-12.768 9.818-3.158 4.173-4.707 9.4-4.967 14.574.052 3.383 1.218 6.666 2.984 9.527 1.252 1.801 2.89 3.208 4.623 4.525 4.792 3.265 10.789 4.286 16.479 3.585.099-.132.24-.254.363-.381.51-.72 1.204-1.299 1.62-2.094 2.082-3.443.373-9.145-4.165-9.093-.651-.01-1.293.038-1.917.207-.038.019-.08.038-.118.052a.53.53 0 0 1-.198.084c-.642.236-1.162-.743-.453-1.082.009 0 .018-.009.028-.014.132-.099.288-.164.463-.207.92-.423 1.785-.974 2.682-1.439 1.879-.984 3.914-1.609 5.963-2.131 6.45-2.051 12.97-1.186 18.826 2.117 2.134 1.077 4.382 1.928 6.634 2.728 2.743.743 5.656.48 8.39-.165 3.178-.851 6.181-2.38 9.364-3.231a.457.457 0 0 1 .122-.033 17.806 17.806 0 0 1 2.748-.513c4.25-.348 8.887.687 12.154 3.519l.01.009c.06.042.122.085.179.122.24.123.458.363.661.504.07.037.127.094.18.15.16.061.297.193.349.367a.598.598 0 0 1-.387.739c-.6.15-1.067-.405-1.488-.748-.08-.075-.17-.146-.25-.221-.222-.156-.444-.306-.661-.471-1.379-.814-2.932-1.51-4.556-1.406-2.98.075-6.257 1.171-8.08 3.627-1.926 3.453-.018 7.569 2.617 10.053 4.447 1.27 9.051 1.995 13.678 1.665 7.957-.348 14.6-3.848 16.815-11.874 2.176-7.371 1.019-15.434-1.771-22.486-.718-1.52-1.421-3.105-2.611-4.319-2.271-2.065-5.246-3.138-8.155-3.98-3.64-.917-7.427-.075-11.03.621l.005.019ZM4.921 140.561c-.69-.776.212-1.694.85-.889.684.776-.208 1.698-.85.889Zm1.426-10.185c-.373.771-.595 1.661-.817 2.474-.236 1.186-.444 2.451-.298 3.651.076.762-1.081.894-1.175.127-.331-.988.68-8.303 2.28-7.362.435.273.265.776.01 1.11Zm50.102 12.41c-2.687.108-5.199-1.251-7.375-2.696-.742-.277-.298-1.35.392-1.1-.005 0-.01-.005-.02-.01.029.014.062.019.086.033-.024-.009-.048-.019-.071-.023 1.648 1.025 3.423 2.041 5.317 2.53.689.259 2.167-.352 2.27.697-.009.31-.287.592-.608.569h.009Zm2.762-.179c-.32 0-.58-.291-.571-.607a.596.596 0 0 1 .609-.569c.321 0 .58.292.571.607a.596.596 0 0 1-.609.569Zm2.097-24.608c-1.445-.635-2.82-1.247-4.307-1.689-.585.268-1.123-.541-.637-.974.42-.404 1.062-.15 1.535.019a46.18 46.18 0 0 1 3.89 1.567c.7.319.222 1.378-.481 1.072v.005Zm2.228 1.232c-.32 0-.58-.291-.571-.607a.596.596 0 0 1 .61-.569c.32 0 .58.292.57.607a.596.596 0 0 1-.609.569Zm12.839 32.644c.08.31-.076.639-.397.734-.297.089-.656-.085-.736-.396-.43-1.434-.647-2.954-.024-4.37.175-.39.264-1.002.826-.936 1.171.282-.047 1.703-.019 2.456-.137.87.17 1.698.35 2.512Zm.788 2.7a.6.6 0 0 1-.609-.569c-.01-.311.25-.607.572-.607a.6.6 0 0 1 .609.569c.009.311-.25.607-.572.607Zm27.028-24.867c.009.31-.251.607-.572.607a.6.6 0 0 1-.609-.569c-.009-.311.25-.607.571-.607a.6.6 0 0 1 .61.569Zm-3.683-8.256c.443.132.75.498.991.875.954 1.458 1.62 3.058 2.153 4.709.217.729-.892 1.072-1.128.339-.416-1.205-.827-2.414-1.492-3.51-.288-.437-.473-1.072-.959-1.312-.713-.287-.288-1.365.435-1.097v-.004Z"/><path fill="#fff" d="M223.564 156.25c-.977-4.521-3.262-7.57-7.512-9.475-2.12-.706-4.599-.936-6.648.075-.826.264-1.454.791-2.026 1.421-.642.536-1.043 1.251-1.407 1.99-.906 1.308-1.577 2.907-1.983 4.399-2.191 6.708 1.28 15.133 8.778 16.173 3.182.517 6.365-1.091 8.268-3.566.486-.583.637-1.406 1.18-1.929 1.242-2.855 2.181-6.031 1.346-9.088h.004Zm-6.789 12.941c-.954.856-2.158 1.237-3.386 1.237a6.65 6.65 0 0 1-2.276-.418c-3.598-1.327-5.17-5.65-4.495-9.211.482-2.564 2.71-4.14 4.977-5.128a2.747 2.747 0 0 0-.029.39c-.174.325-.278.678-.221 1.059.056.4.217.781.453 1.11.179.259.42.494.689.654.335.198.723.296 1.105.358.175.028.345.042.515.042.326 0 .642-.052.958-.179a2.941 2.941 0 0 0 1.171-.828c.274-.324.477-.706.638-1.101.132-.324.241-.654.292-.997.015-.056.024-.113.034-.169 1.671 1.035 2.79 2.794 3.182 4.756.557 3.175-.85 6.68-3.598 8.42l-.009.005Z"/><path fill="#EF9FFF" d="M212.125 100.141c-1.549-4.337-3.102-8.665-4.873-12.918-.902-1.976-1.492-4.079-2.361-6.068-1.189-2.376-1.992-4.926-3.239-7.273-2.091-4.248-4.041-8.638-6.426-12.726-5.123-7.818-10.86-15.41-18.089-21.404-4.259-3.608-9.061-6.309-14.042-8.746-2.503-1.293-5.142-2.29-7.772-3.26-2.711-.955-5.463-1.961-8.32-2.357-2.573-.22-5.09-.649-7.663-.512-1.809.037-3.617-.142-5.388.098-4.561.5-9.245.833-13.669 2.094-2.867.823-5.695 1.769-8.339 3.161-3.796 1.614-7.38 3.66-10.733 6.05-2.096 1.369-3.848 2.921-5.633 4.629-2.474 2.028-4.679 4.342-6.86 6.666-4.486 4.52-8.528 9.48-11.918 14.861-.836 1.195-1.78 2.31-2.64 3.486-1.898 2.686-3.394 5.631-5.17 8.392-1.803 2.884-3.404 5.876-5.212 8.755-1.601 3.209-3.405 6.262-4.963 9.465-1.63 3.317-3.343 6.624-4.91 9.983v.127c.368 3.947 2.766 7.757 6.35 9.554 5.364 2.823 11.02-2.131 13.518-6.633a.55.55 0 0 1 .227-.376c3.716-8.9 8.287-17.382 13.358-25.582 3.159-4.578 6.152-9.282 9.722-13.558 8.249-9.837 18.264-16.705 31.248-18.328 8.178-.626 16.593.49 23.925 4.309 3.386 1.392 6.483 3.303 9.42 5.476 2.356 1.806 4.661 3.782 6.379 6.219 4.628 4.831 8.122 10.57 11.281 16.423 1.898 3.232 3.522 6.605 5.274 9.912 1.676 3.933 3.126 7.95 4.519 11.991.221.743.453 1.477.689 2.211.028.076.061.151.09.226 1.581 2.677 3.829 5.194 6.993 5.871 2.327.546 4.787.536 7.082 1.181a.754.754 0 0 1 .161.099 26.17 26.17 0 0 1 4.703.94.692.692 0 0 1 .193 0c.312 0 .619-.084.902-.183 2.951-1.327 3.858-5.128 3.14-8.04v.024c0 .014 0 .033.005.047v.009a15.447 15.447 0 0 0-.114-.672 472.86 472.86 0 0 1-.835-3.623h-.01ZM93.151 48.224c-.986.918-1.912 1.793-2.8 2.78-1.015 1.125-1.855 2.41-2.771 3.604-.614.87-1.473 1.576-1.993 2.512a.603.603 0 0 1-.746.372c-1.388-.645 1.407-2.851 1.79-3.575 1.69-2.39 3.532-4.648 5.746-6.577.58-.494 1.35.367.774.889v-.005Zm3.608-2.799c-.321 0-.605-.216-.623-.55-.02-.306.23-.621.552-.621.321 0 .604.216.623.55.02.306-.231.621-.552.621Zm88.108 6.403c-1.214-1.303-2.352-2.748-3.768-3.834-.633-.372-.123-1.346.543-1.04 1.572 1.082 2.757 2.672 4.07 4.05.529.556-.298 1.37-.841.824h-.004Zm2.625 3.302a.592.592 0 0 1-.59-.588c0-.32.269-.588.59-.588.321 0 .59.264.59.588 0 .32-.269.588-.59.588Z"/><path fill="#CF70E2" d="M227.759 142.466c-.935-.301-1.922-.442-2.857-.729a34.26 34.26 0 0 1-3.423-.64c-8.216-1.821-17.027-2.418-25.011.687-1.53.564-3.046 1.232-4.571 1.886-.08.057-.17.108-.26.146-1.44 1.044-3.097 1.614-4.67 2.409-2.228 1.082-4.074 3.081-4.391 5.579.071 2.028.255 4.055.614 6.022 1.676 6.811 4.528 13.332 7.89 19.457 2.29 4.196 4.476 8.58 7.763 12.099.382.419.783.824 1.194 1.209h.071c.42-.037.869-.207 1.232-.414.369-.348.643-.823.803-1.275.553-1.383.458-2.817.704-4.224.33-1.962.906-3.938 2.039-5.589 0 0 0 .01-.004.014.259-.503 1.119-.343 1.105.273.103.362-.123.696-.303.997-2.724 4.427-1.397 10.181 1.044 14.41 1.601 2.098 3.768 3.58 5.878 5.104.284.179.567.348.855.527.793-1.524 1.837-2.874 2.847-4.253 1.818-2.479 3.617-4.949 5.156-7.588 2.73-5.043 5.289-10.189 7.064-15.632 2.54-7.857 3.641-16.188 3.707-24.411.004-.221 0-.447 0-.668-.425-2.573-1.733-4.634-4.472-5.377l-.004-.019Zm-43.105 16.164c-.562-2.296-.751-4.742-.099-7.009a.593.593 0 0 1 .543-.603c.727-.004.727.697.519 1.186-.505 2.018-.297 4.173.189 6.172.16.748-.973 1.007-1.152.254Zm1.194 3.754c-.321 0-.576-.31-.557-.621.019-.334.302-.555.623-.555.322 0 .576.311.558.621-.019.334-.303.555-.624.555Zm36.943-15.67c.321 0 .576.306.567.612-.014.329-.293.564-.614.564s-.576-.306-.567-.611a.6.6 0 0 1 .614-.565Zm-9.797 25.333c-8.811-.983-12.73-10.637-9.94-18.38.907-2.667 2.29-5.368 4.5-7.179 3.154-2.098 7.484-1.914 10.629.094 2.058 1.2 3.867 2.875 4.981 4.996.987 2.169 1.828 4.526 1.88 6.93.066 3.222-1.129 6.407-2.8 9.089-2.05 2.954-5.61 4.878-9.25 4.45Zm9.453 9.705c-.322 0-.577-.311-.558-.621.019-.334.303-.555.624-.555s.576.31.557.621c-.019.334-.302.555-.623.555Zm3.083-5.951c-.482 1.256-.85 2.564-1.464 3.768a.605.605 0 0 1-.788.278.591.591 0 0 1-.279-.786c.406-.814.704-1.642 1.001-2.493.217-.645.453-1.247.694-1.835.217-.4.099-1.073.708-1.12 1.209.099.369 1.567.133 2.188h-.005Zm.727-22.082c-.312.028-.623-.217-.637-.537-.194-1.392-.935-2.625-1.752-3.739a.593.593 0 0 1 .156-.819c.769-.433 1.138.71 1.529 1.171.369.692 2.083 3.712.709 3.924h-.005ZM28.779 112.575c.416.216.793.498 1.143.804a15.49 15.49 0 0 1 5.085 3.486c.444.433.822.922 1.204 1.407.128.169.288.357.425.555 2.134-2.385 4.547-4.22 7.182-5.476.09-.047.18-.094.255-.141.85-.546 1.62-1.2 2.38-1.863 3.324-2.531 4.584-6.563 6.643-10.016a.712.712 0 0 1 .118-.174c1.558-3.274 3.24-6.496 4.835-9.742 3.3-6.572 6.979-12.947 10.846-19.208 2.002-3.425 4.07-6.934 6.6-9.983 3.457-5.372 7.376-10.448 11.895-14.978 2.347-2.46 4.637-4.973 7.28-7.118 1.781-1.68 3.585-3.321 5.643-4.662 3.046-2.136 6.309-4.206 9.727-5.66 2.947-1.453 5.945-2.775 9.127-3.631 4.103-1.233 8.386-1.806 12.65-2.126 5.331-.72 10.751-.39 16.073.268 11.762 2.756 24.907 9.187 33.515 17.697 3.621 3.312 6.662 7.18 9.599 11.093 1.903 2.437 3.706 4.959 5.317 7.598 1.987 3.467 3.725 7.07 5.415 10.693a79.383 79.383 0 0 1 3.216 7.075c1.468 2.93 2.389 6.083 3.702 9.08 1.511 3.556 2.715 7.211 4.103 10.81.477 1.26.793 2.564 1.072 3.876.019.043.042.076.052.123.085.437.17.879.25 1.321.09.424.175.847.269 1.271.486 2.084 1.129 4.13 1.568 6.228.425 1.618.864 3.227 1.279 4.846.005.018.014.037.019.056.038.113.076.226.109.339.066.353.326.856.354 1.265.113.113.231.226.345.339 1.086 1.101 2.252 2.145 3.347 3.246 1.129-1.618 6.058-4.281 6.913-4.521.491-.23.987-.442 1.487-.644.208-.118.425-.236.642-.254a32.467 32.467 0 0 1 2.347-.786.635.635 0 0 1 .184-.127c.373-.268.85-.466 1.185-.706 1.308-.757 1.828-2.267 2.593-3.486 1.751-2.996 1.501-6.6 1.086-9.898-.01-.573-.605-1.712-.43-2.347-.08-.372-.151-.748-.198-1.134-.161-3.744-1.152-7.367-2.323-10.914-2.201-7.55-5.123-14.851-7.782-22.251-2.62-6.596-4.769-13.45-8.433-19.58-1.827-2.827-3.829-5.588-6.091-8.086-1.379-1.322-2.705-2.818-4.042-4.13-1.128-1.031-2.342-1.972-3.362-3.115-1.666-1.783-3.522-3.256-5.382-4.813-3.518-3.203-7.451-6.153-11.55-8.533a151.317 151.317 0 0 0-7.673-3.604c-2.12-.705-4.089-1.76-6.124-2.672-3.432-1.444-6.752-3.086-10.303-4.173-3.786-1.326-7.691-2.018-11.601-2.799-6.53-1.496-13.244-1.684-19.916-1.444-3.674.057-7.442.23-11.087.607-3.796.847-7.654 1.402-11.337 2.69a60.481 60.481 0 0 0-15.369 6.526c-3.919 2.658-7.857 5.306-11.597 8.204-9.098 6.464-17.782 13.727-24.765 22.454-2.857 3.533-5.515 7.207-7.88 11.079-1.488 2.055-2.886 4.168-4.146 6.37-1.455 2.403-2.98 4.76-4.099 7.343-2.81 5.095-5.491 10.283-7.673 15.684-1.024 2.14-2.19 4.206-2.856 6.501a122.277 122.277 0 0 0-3.442 9.24l-.118.287a.754.754 0 0 1-.076.183c-.01.024-.019.052-.033.075-.76 3.115-2.04 6.201-1.776 9.456 0 1.877.671 3.693 2.37 4.62h.015Zm203.838-27.69c.014.306-.241.616-.562.616-.321 0-.6-.226-.619-.56-.014-.305.241-.616.562-.616.321 0 .6.226.619.56Zm-4.628-11.239c1.091-.583 1.252 1.694 1.667 2.334a217.76 217.76 0 0 1 1.969 5.678c.236.724-.864 1.1-1.119.371-.689-2.036-1.374-4.102-2.139-6.11-.236-.462-.321-.998-.548-1.459-.189-.258-.089-.644.17-.814Zm-62.879-65.7c.321 0 .604.216.623.55.019.306-.231.621-.552.621-.321 0-.605-.216-.624-.55-.018-.306.232-.621.553-.621Zm-10.889-2.889c2.612.584 5.317.908 7.815 1.891.727.26.354 1.355-.378 1.115-1.463-.644-3.045-.865-4.594-1.218-1.223-.221-2.441-.63-3.688-.659a.597.597 0 0 1-.623-.555c-.009-.785.935-.644 1.468-.574ZM61.298 41.704c.32 0 .604.216.623.55.019.306-.231.621-.553.621-.32 0-.604-.216-.623-.55-.019-.306.232-.621.553-.621Zm-7.612 9.564a47.21 47.21 0 0 0 1.52-2.216c.803-1.425 1.766-2.747 2.772-4.027a.6.6 0 0 1 .817-.17c.264.175.354.556.17.815-.685.978-1.516 1.844-2.082 2.898-.709 1.256-1.573 2.413-2.38 3.608.005.475-.623.743-.973.418a.603.603 0 0 1-.198-.489c0-.315.184-.592.359-.842l-.005.005Zm-5.5 53.662c.32 0 .604.217.623.551.019.305-.232.621-.553.621-.32 0-.604-.217-.623-.551-.019-.306.231-.621.552-.621Zm-6.894 6.332c1.374-.771 2.809-1.477 3.904-2.634.525-.377.954-1.59 1.72-1.045.783.711-1.172 2.056-1.644 2.574-1.327 1.138-2.975 1.806-4.448 2.728-.651.217-1.275 1.435-1.964.781-.737-.95 1.808-1.966 2.432-2.404Z"/><path fill="#EF9FFF" d="M239.293 106.196v.057h.015c0-.019-.01-.038-.01-.057h-.005Z"/><path fill="#CF70E2" d="M68.158 144.315a.846.846 0 0 1-.444-.038c-3.513 1.285-7.045 2.442-10.86 1.953-4.372-.621-8.296-2.945-12.253-4.775-3.027-1.228-6.35-1.708-9.609-1.473a.414.414 0 0 1-.132.024c-2.795.164-5.463 2.328-6.077 5.047a7.759 7.759 0 0 0-.061 1.144c0 .023 0 .047-.005.07 1.714 6.257 5.241 11.949 8.528 17.5 1.1 1.741 2.105 3.538 3.418 5.133a.553.553 0 0 1 .038.574c-.005.023 0 .047-.014.07a.6.6 0 0 1-.7.381c-5.495-.564-10.6 2.113-15.146 4.883-8.386 5.236-13.439 13.558-15.729 22.995-1.015 3.467-1.921 10.011-4.948 12.119 1.421.056 2.828.301 4.25.357 1.043-.019 2.077-.188 3.116-.254 4.193-.118 8.282-1.124 12.14-2.7 8.541-3.651 15.86-10.021 21.356-17.416 1.813-2.371 3.334-4.958 4.434-7.72a.593.593 0 0 1 .543-.39c.415-.066.826.372.642.875-.203 3.608.226 7.372 1.69 10.674a31.217 31.217 0 0 0 2.059 3.575c3.367 3.806 7.71 6.775 12.465 8.492 5.029 1.881 10.51 1.773 15.681 3.095 1.214.325 2.456.668 3.537 1.322 1.161.692 2.007 1.774 2.923 2.733.467-1.768 1.204-3.542 1.25-5.372.242-5.015-.726-10.091-2.97-14.56-3.3-7.005-8.054-13.379-14.103-18.248a38.966 38.966 0 0 0-6.577-4.432c-.874-.315-1.587-.997-2.489-1.213a.595.595 0 0 1-.344-.25c-.864-.47.779-2.258 1.02-2.921 1-1.773 1.983-3.552 2.842-5.396 1.634-3.312 2.795-6.826 3.622-10.42.122-1.021.155-2.07-.288-2.997-.501-1.143-1.478-2.366-2.791-2.446l-.014.005Zm-31.622 12.989a.597.597 0 0 1-.807-.212c-1.077-1.99-2.319-3.905-3.23-5.984-.595-.485.118-1.393.727-.927.642.706.855 1.731 1.398 2.526.661 1.289 1.445 2.517 2.125 3.792.17.273.056.649-.213.805Zm1.497 2.719a.595.595 0 0 1-.59-.588c0-.32.269-.588.59-.588.321 0 .59.268.59.588 0 .32-.269.588-.59.588ZM10.76 201.077a.599.599 0 0 1-.604-.574.592.592 0 0 1 .576-.602.6.6 0 0 1 .604.574.593.593 0 0 1-.576.602Zm4.32-11.45c-1.047 1.854-1.576 4.003-2.195 6.003-.34.611-.047 2.098-.987 2.06-.307-.033-.571-.329-.524-.649.18-1.449.765-2.78 1.081-4.177.614-1.746 1.21-3.599 2.489-4.992.33-.781 1.322-.625 1.223.212-.246.635-.76.964-1.086 1.534v.009Zm40.518 5.081c-.656-1.073-1.402-2.108-1.794-3.312-.449-1.421-.737-2.912-1.006-4.347.061-.541.826-.682 1.105-.221.283.461.217 1.035.34 1.548.363 2.088 1.124 4.022 2.37 5.744.383.658-.618 1.251-1.02.592l.005-.004Zm2.79 3.227a.595.595 0 0 1-.59-.588c0-.32.27-.588.59-.588.322 0 .59.268.59.588 0 .32-.268.588-.59.588Z"/><path fill="#EF9FFF" d="M253.898 118.272c-2.12-1.275-4.42-2.273-6.781-2.851-2.006-.358-4.112-.598-6.128-.569-2.805.216-5.624.644-8.32 1.453-.85.311-1.695.64-2.536.979-3.097 1.717-5.118 5.278-4.613 8.806.024.231.047.518-.009.753.184.503.193.945-.213 1.143a.6.6 0 0 1-.802-.4c-.222-.673-.567-1.289-.964-1.877-1.596-2.653-4.065-4.619-6.228-6.793-4.244-4.427-10.614-6.384-16.648-6.271-4.151.184-7.98 2.442-10.653 5.528-1.761 1.783-3.074 3.919-4.292 6.097-.684 1.524-1.124 3.142-1.785 4.676-.255.635-.561 1.251-.722 1.919-.047.296-.099.574-.137.814-.047.278-.019.607-.189.833-.141.461-.396.79-.916.654-.68-.32-.16-1.059-.085-1.586.033-.353.104-.696.194-1.03.094-.475.203-.946.307-1.425.618-2.447-.175-5.001-1.502-7.057-.571-.748-1.209-1.369-2.025-1.825a.687.687 0 0 1-.175-.146c-8.438-2.95-17.39-2.046-23.094 5.927-1.266 1.699-1.804 3.891-2.205 5.918-.553 4.916 1.577 9.818 4.4 13.728 2.876 3.843 6.361 7.447 10.856 9.314 2.672 1.115 5.567 1.741 8.456 2.014.123-.085.255-.165.392-.231 1.459-1.035 2.611-2.423 3.178-4.135.647-1.684-.51-3.392-1.761-4.441-1.672-1.515-3.877-2.22-5.714-3.495-1.223-.753-2.172-1.84-3.201-2.827-.094-.08-.203-.17-.297-.273-.081-.057-.156-.118-.236-.174-.562-.48.099-1.365.722-.927.137.066.264.169.382.287 1.195.922 2.29 2.089 3.613 2.766 2.478 1.209 5.316 1.698 8.027 1.632 3.753-.023 7.12-1.83 10.538-3.133 7.669-3.688 16.404-4.426 24.723-2.912 2.494.395 4.987 1.049 7.48 1.43.061 0 .122.01.189.029.165.023.33.051.495.07 5.374.579 10.818-.296 15.025-3.848.571-.508 1.18-1.002 1.69-1.557 0 0 0-.005.005-.009-.033-.824 1.223-.786 1.218.014 0 .014-.009.028-.014.047 0 .24-.094.447-.241.639-.382.763-1.048 1.412-1.633 2.009-2.545 2.559-6.71 4.093-7.475 7.96-.132 1.35.109 2.827.803 3.999.481.752 1.237 1.293 1.898 1.853.212.207.543.32.803.48 10.524-.442 21.861-7.075 23.07-18.022.179-2.912-.335-5.923-1.039-8.722-1.029-2.959-3.229-5.532-5.836-7.24l.005.005Zm-97.707 15.834c.321 0 .585.287.576.603a.596.596 0 0 1-.604.573.588.588 0 0 1-.576-.602.596.596 0 0 1 .604-.574Zm1.747 9.099c-.586-.758-3.395-6.111-1.775-6.342.335-.033.599.207.651.522.302 1.995 1.199 3.91 2.366 5.495.132.804-.879.955-1.242.325Zm35.871-24.355c-.321 0-.6-.24-.609-.569-.01-.31.25-.607.571-.607.321 0 .6.24.609.569.01.311-.25.607-.571.607Zm7.833-3.236c-1.194-.179-2.299.056-3.413.447-.591.23-1.153.517-1.7.832a.6.6 0 0 1-.812-.183c-.435-.927 1.029-1.167 1.596-1.539 1.43-.611 3.003-.959 4.561-.71 1.076-.038.793 1.43-.232 1.157v-.004Zm55.811 20.746a.595.595 0 0 1-.59-.588c0-.32.269-.588.59-.588.321 0 .591.268.591.588 0 .32-.27.588-.591.588Zm.614-2.922c-.302-.042-.566-.348-.505-.663.354-2.465-.335-5.038-1.369-7.245-.897-.616.264-1.623.892-.795.845 1.586 1.445 3.364 1.62 5.156.056.777.59 3.618-.638 3.547Z"/><path fill="#000" d="M252.594 116.216c-3.348-1.731-7.134-2.55-10.912-2.526.236-1.05-.439-3.355-.585-4.46-.647-2.95-.964-6.041-1.998-8.896-.741-2.32-.746-4.742-1.09-7.146-.798-3.401-1.813-6.741-2.904-10.063-.874-2.832-1.728-5.663-2.862-8.406-1.926-5.283-3.838-10.57-5.902-15.802a70.642 70.642 0 0 0-3.38-8.44c-3.334-8.27-9.288-15.204-15.951-21.018-2.653-2.917-5.812-5.288-8.73-7.923a90.183 90.183 0 0 0-7.758-5.635c-4.037-2.442-8.466-4.159-12.796-5.989-4.622-2.188-9.292-4.323-14.179-5.857-3.768-1.218-7.682-1.891-11.554-2.667C145.769.028 139.376-.136 133.03.08c-3.928.061-7.895.198-11.795.654-2.417.583-4.877.955-7.304 1.505-2.314.63-4.599 1.37-6.908 2.023-4.08 1.388-8.07 3.058-11.79 5.24-2.796 1.59-5.298 3.628-7.975 5.397-1.776 1.138-3.41 2.474-5.095 3.74-8.612 6.139-16.819 12.998-23.585 21.15-3.433 4.102-6.526 8.468-9.359 13.003-2.04 2.681-3.617 5.66-5.406 8.51-.595.946-1.157 1.905-1.639 2.922-.812 1.867-1.874 3.598-2.842 5.386-1.317 2.634-2.616 5.288-3.92 7.931a124.575 124.575 0 0 1-3.8 8.318c-.869 2.587-1.969 5.085-2.918 7.644a119.698 119.698 0 0 1-3.046 8.082c-.783 2.033-1.732 4.107-2.464 6.219-.6 1.332-.572 2.912-1.365 4.145a.623.623 0 0 0-.113.263 18.28 18.28 0 0 0-8.905 3.486c-5.294 3.496-9.628 8.788-11.45 14.894-.903 3.058-1.63 6.295-1.257 9.493 1.228 10.364 10.067 16.64 20.096 17.228 3.017.014 6.086-.085 8.995-.951.491-.136.987-.277 1.492-.362.203-.023.453-.056.68-.122.812 1.538 1.7 3.039 2.545 4.558 1.624 2.752 3.225 5.646 5.128 8.252-4.6-.146-9.028 1.712-12.924 4.017-4.707 2.602-8.843 6.243-11.946 10.637-3.092 4.389-5 9.465-6.313 14.635-.514 2.065-.953 4.027-1.638 6.073-.552 1.576-.996 3.298-2.224 4.512-.486.625-2.181.983-1.827 1.947.141.297.472.414.774.466 1.809.179 3.622.348 5.44.485 5.024-.25 10.062-.734 14.77-2.663 9.797-3.834 17.942-11.22 23.962-19.706.283-.419.552-.847.812-1.285.227.885.534 1.75.855 2.606 1.072 2.64 2.7 4.987 4.59 7.109.051.07.094.15.146.221.07.099.15.164.24.202a44.95 44.95 0 0 0 2.508 2.498c3.768 3.462 8.494 5.824 13.447 7.075 5.08 1.209 10.501 1.017 15.355 3.101 1.558.715 2.356 2.361 3.75 3.264.769.438 1.218-.334 1.312-.992.165-.649.364-1.285.567-1.924.883-2.447.83-5.081.68-7.64-.284-5.358-2.357-10.359-5.01-14.993-4.91-8.708-12.352-16.343-21.517-20.525.335-.593.684-1.181 1.015-1.773 1.785-3.11 3.4-6.328 4.66-9.687.02.005.038.019.057.024 4.788 1.661 9.665 3.175 14.76 3.476 15.865.946 24.35-6.623 23.708-22.674-.33-5.796-1.889-13.761-5.926-18.145-1.582-1.43-3.513-2.409-5.5-3.152a18.792 18.792 0 0 0-.978-.376c.789-2.282 1.464-4.606 2.333-6.859 3.48-10.12 8.05-20.116 15.053-28.325 5.17-5.448 12.8-8.5 20.336-7.979 4.009.701 7.862 2.672 11.205 4.982 2.261 1.807 4.183 3.98 6.001 6.215 3.867 4.356 6.601 9.578 8.99 14.86 1.015 2.32 1.837 4.724 2.668 7.114.009.051.024.103.033.155 0 .014 0 .033.005.047 0 .014.009.023.009.038.331 1.59.666 3.175 1.039 4.76.468 2.193.949 4.375 1.412 6.568.075.221.104.494.212.705-2.12.433-4.164 1.233-6.015 2.489-2.588 1.609-4.746 3.923-6.238 6.567-.996 2.315-1.723 4.822-1.614 7.367.387 5.024 2.648 9.776 5.873 13.61 1.96 2.366 4.066 4.69 6.686 6.341 4.911 3.312 10.974 4.196 16.786 4.229.222.01.444-.033.666-.009h.014c.486 2.178 1.242 4.309 1.95 6.407 1.643 4.634 3.787 9.065 6.148 13.375 3.952 7.611 7.947 14.296 16.044 18.102.095.07.194.103.288.113 1.932 2.154 4.387 3.815 6.823 5.363.43.31.883-.033.935-.428.227-.292.378-.739.562-1.016 1.643-2.72 3.778-5.109 5.473-7.805 1.312-1.858 2.549-3.9 3.517-5.974 2.286-4.22 4.302-8.699 5.803-13.271 2.083-6.455 3.206-13.215 3.594-19.994.103.014.207.019.302.028 1.072.095 2.148.137 3.22.193 10.789-.061 23.014-6.67 25.025-17.97.539-3.129-.108-6.28-.656-9.357-1.114-4.375-4.486-8.03-8.542-9.926h.019Zm-13.306-10.02s.01.037.01.056h-.014v-.056h.004ZM28.179 98.499c.01-.023.02-.051.033-.075a.603.603 0 0 0 .076-.184l.118-.286a122.217 122.217 0 0 1 3.442-9.24c.67-2.296 1.832-4.356 2.857-6.501 2.181-5.396 4.863-10.59 7.672-15.684 1.12-2.583 2.645-4.945 4.099-7.344 1.26-2.202 2.658-4.314 4.146-6.37 2.365-3.876 5.024-7.55 7.88-11.078 6.984-8.727 15.667-15.99 24.766-22.454 3.74-2.903 7.677-5.551 11.596-8.204a60.81 60.81 0 0 1 15.37-6.525c3.683-1.29 7.54-1.844 11.337-2.691 3.64-.376 7.408-.55 11.086-.607 6.672-.235 13.386-.047 19.917 1.444 3.909.781 7.814 1.473 11.601 2.8 3.551 1.086 6.87 2.723 10.303 4.172 2.03.913 3.999 1.971 6.124 2.672a145.835 145.835 0 0 1 7.673 3.604c4.103 2.38 8.031 5.33 11.549 8.533 1.86 1.557 3.716 3.03 5.383 4.813 1.02 1.148 2.228 2.088 3.362 3.114 1.336 1.317 2.663 2.809 4.041 4.13 2.262 2.494 4.264 5.26 6.092 8.087 3.668 6.125 5.812 12.984 8.433 19.58 2.658 7.4 5.581 14.696 7.781 22.251 1.171 3.547 2.163 7.17 2.323 10.914.047.381.118.758.198 1.134-.174.635.421 1.773.43 2.347.42 3.298.666 6.902-1.086 9.898-.765 1.219-1.289 2.729-2.592 3.486-.335.245-.812.438-1.185.706a.622.622 0 0 0-.184.127c-.789.23-1.573.489-2.347.786-.222.014-.439.131-.642.254a31.66 31.66 0 0 0-1.488.644c-.854.24-5.784 2.903-6.912 4.521-1.1-1.101-2.267-2.145-3.348-3.246-.113-.118-.231-.226-.345-.339-.028-.414-.288-.912-.354-1.265-.033-.113-.071-.226-.108-.339-.005-.019-.015-.038-.019-.056-.416-1.619-.855-3.228-1.28-4.846-.439-2.098-1.081-4.144-1.568-6.228a63.897 63.897 0 0 1-.269-1.271c-.08-.442-.165-.884-.25-1.322-.009-.047-.033-.079-.052-.122-.283-1.312-.6-2.615-1.072-3.876-1.388-3.599-2.592-7.259-4.103-10.81-1.308-2.997-2.233-6.15-3.702-9.08a77.977 77.977 0 0 0-3.215-7.075c-1.691-3.623-3.428-7.222-5.416-10.693-1.61-2.64-3.419-5.161-5.317-7.598-2.937-3.914-5.978-7.78-9.599-11.093-8.608-8.51-21.753-14.94-33.515-17.697-5.321-.659-10.742-.993-16.073-.268-4.264.315-8.546.893-12.649 2.126-3.183.856-6.181 2.178-9.127 3.632-3.419 1.453-6.682 3.523-9.727 5.659-2.064 1.336-3.867 2.982-5.643 4.662-2.644 2.145-4.93 4.657-7.28 7.117-4.52 4.53-8.443 9.607-11.895 14.98-2.53 3.043-4.599 6.557-6.6 9.982-3.863 6.261-7.541 12.636-10.847 19.208-1.596 3.25-3.276 6.468-4.835 9.742-.042.052-.085.104-.118.174-2.058 3.453-3.32 7.485-6.643 10.016-.76.663-1.53 1.317-2.38 1.863-.075.042-.165.089-.255.141-2.635 1.256-5.047 3.091-7.182 5.476-.137-.198-.302-.386-.425-.555-.382-.485-.765-.974-1.204-1.407a15.538 15.538 0 0 0-5.085-3.486 5.99 5.99 0 0 0-1.143-.804c-1.7-.932-2.37-2.743-2.37-4.62-.27-3.251 1.015-6.342 1.775-9.456h-.014Zm184.894 5.923s0-.033-.005-.047v-.024c.713 2.912-.188 6.713-3.139 8.04-.284.099-.591.188-.902.184a.63.63 0 0 0-.194 0 26.156 26.156 0 0 0-4.703-.941.522.522 0 0 0-.16-.099c-2.295-.645-4.755-.635-7.083-1.181-3.164-.677-5.411-3.194-6.993-5.871a3.79 3.79 0 0 0-.09-.226c-.231-.734-.467-1.472-.689-2.211-1.388-4.04-2.842-8.058-4.519-11.991-1.751-3.307-3.376-6.68-5.274-9.912-3.159-5.857-6.653-11.596-11.28-16.423-1.719-2.437-4.023-4.408-6.379-6.219-2.932-2.173-6.035-4.083-9.42-5.476-7.333-3.82-15.747-4.94-23.925-4.309-12.99 1.618-23 8.491-31.249 18.328-3.57 4.276-6.563 8.98-9.722 13.558-5.07 8.195-9.641 16.681-13.357 25.582a.55.55 0 0 0-.227.376c-2.503 4.507-8.154 9.456-13.518 6.634-3.584-1.798-5.983-5.608-6.351-9.555v-.127c1.572-3.359 3.281-6.666 4.91-9.983 1.559-3.203 3.362-6.256 4.963-9.465 1.808-2.874 3.41-5.87 5.213-8.754 1.775-2.762 3.272-5.707 5.17-8.393.86-1.176 1.804-2.291 2.64-3.486 3.39-5.386 7.432-10.34 11.917-14.86 2.182-2.32 4.387-4.64 6.86-6.667 1.786-1.703 3.538-3.255 5.634-4.629 3.352-2.39 6.936-4.436 10.732-6.05 2.645-1.392 5.478-2.338 8.339-3.161 4.424-1.256 9.108-1.595 13.67-2.093 1.77-.24 3.583-.062 5.387-.1 2.573-.136 5.09.288 7.663.514 2.862.395 5.61 1.401 8.32 2.356 2.63.97 5.27 1.971 7.772 3.26 4.982 2.437 9.784 5.133 14.043 8.746 7.229 5.998 12.965 13.586 18.089 21.404 2.384 4.089 4.334 8.478 6.426 12.726 1.246 2.347 2.049 4.897 3.239 7.273.869 1.99 1.459 4.092 2.361 6.068 1.77 4.258 3.324 8.586 4.873 12.918.274 1.205.552 2.414.835 3.623.043.221.085.447.114.672v-.009h.009ZM71.237 149.758c-.826 3.594-1.988 7.103-3.622 10.42-.86 1.844-1.846 3.622-2.842 5.396-.236.663-1.88 2.451-1.02 2.921.07.108.18.202.344.249.902.217 1.615.899 2.489 1.214a38.72 38.72 0 0 1 6.577 4.431c6.049 4.869 10.808 11.244 14.104 18.249 2.248 4.469 3.21 9.545 2.97 14.559-.042 1.826-.784 3.604-1.251 5.373-.92-.96-1.761-2.042-2.923-2.733-1.081-.654-2.318-1.002-3.537-1.322-5.17-1.322-10.652-1.209-15.68-3.096-4.755-1.712-9.095-4.685-12.466-8.491a31.203 31.203 0 0 1-2.059-3.575c-1.463-3.303-1.888-7.066-1.69-10.674.184-.504-.227-.937-.642-.876a.594.594 0 0 0-.543.391c-1.096 2.761-2.62 5.344-4.434 7.72-5.496 7.39-12.815 13.765-21.356 17.415-3.858 1.576-7.947 2.583-12.14 2.7-1.039.066-2.073.236-3.116.255-1.421-.057-2.828-.302-4.25-.358 3.027-2.108 3.934-8.651 4.949-12.118 2.29-9.437 7.342-17.755 15.728-22.995 4.547-2.771 9.646-5.448 15.147-4.883.284.07.6-.094.699-.381.01-.024.005-.047.014-.071a.553.553 0 0 0-.038-.574c-1.312-1.595-2.318-3.392-3.418-5.132-3.287-5.556-6.814-11.244-8.528-17.5 0-.024.005-.047.005-.071 0-.381 0-.767.062-1.143.609-2.719 3.281-4.883 6.076-5.048.048 0 .09-.009.133-.023 3.258-.236 6.582.249 9.608 1.472 3.957 1.83 7.88 4.154 12.253 4.775 3.815.485 7.352-.668 10.86-1.952.123.047.27.066.444.037 1.317.08 2.29 1.303 2.79 2.447.444.922.411 1.971.289 2.996l.014-.004Zm31.196-29.774c1.19 1.214 1.894 2.799 2.611 4.318 2.791 7.052 3.948 15.115 1.771 22.487-2.214 8.026-8.858 11.526-16.814 11.874-4.627.329-9.231-.395-13.679-1.665-2.635-2.484-4.547-6.601-2.616-10.054 1.823-2.451 5.1-3.551 8.08-3.627 1.623-.108 3.177.588 4.556 1.407.217.165.439.32.66.47.086.076.175.146.25.221.421.344.884.899 1.488.748a.595.595 0 0 0 .388-.738.588.588 0 0 0-.35-.367.622.622 0 0 0-.18-.151c-.202-.141-.424-.385-.66-.503-.062-.042-.123-.085-.18-.122l-.01-.01c-3.267-2.832-7.904-3.867-12.153-3.518-.935.094-1.851.277-2.748.512a.543.543 0 0 0-.123.033c-3.178.852-6.18 2.381-9.363 3.232-2.73.64-5.643.908-8.39.165-2.253-.8-4.496-1.651-6.635-2.729-5.855-3.298-12.38-4.163-18.825-2.117-2.05.522-4.084 1.148-5.964 2.131-.902.466-1.761 1.016-2.682 1.44-.17.042-.33.108-.462.207-.01 0-.02.009-.029.014-.708.334-.189 1.317.454 1.082a.55.55 0 0 0 .198-.085c.038-.019.08-.037.118-.051.628-.17 1.265-.222 1.917-.207 4.538-.052 6.247 5.645 4.164 9.093-.415.795-1.11 1.374-1.62 2.093-.122.132-.264.25-.363.382-5.685.7-11.686-.32-16.479-3.585-1.732-1.317-3.37-2.724-4.622-4.526-1.761-2.86-2.932-6.144-2.984-9.526.26-5.179 1.808-10.406 4.967-14.574 3.135-4.389 7.616-8.012 12.768-9.818 2.946-.819 5.977-.823 8.763-.047.137.085.307.132.449.207 3.163 1.971 5.109 5.88 4.462 9.606a13.819 13.819 0 0 1-.326 1.642 1.6 1.6 0 0 0-.109.296c-.203.311-.42.617-.632.913-.184.263-.085.645.179.814a.6.6 0 0 0 .817-.179 18.546 18.546 0 0 0 1.643-2.7c.586-1.11 1.506-1.99 2.11-3.091.024-.056.057-.108.086-.165.014-.014.028-.033.037-.042.732-.922 1.483-1.825 2.3-2.663.156-.136.312-.272.463-.414.193-.202.396-.395.6-.583.221-.188.443-.376.68-.55 0 0-.006.004-.01.009 2.762-2.07 6.053-3.481 9.457-4.206a20.798 20.798 0 0 1 6.89.165c3.413.442 6.478 2.131 9.452 3.749 4.58 2.658 9.552 5.989 11.352 11.216.132.291.519.399.793.258.283-.155.326-.494.236-.922a1.276 1.276 0 0 0-.047-.611c-1.063-3.665.67-7.922 4.07-9.734.217-.08.43-.169.647-.244 3.602-.692 7.39-1.534 11.03-.621 2.908.842 5.883 1.915 8.154 3.98l-.005-.019Zm62.143-14.132c-.066-.197-.137-.428-.26-.597-1.034-3.745-2.644-7.325-4.301-10.84-2.059-4.153-4.42-8.119-7.508-11.61-1.841-2.267-3.867-4.558-6.171-6.393-3.555-2.465-7.578-4.54-11.885-5.25-8.433-.588-17.04 3.124-22.404 9.625-4.953 6.3-8.702 13.445-11.729 20.855-.104.207-.189.433-.283.644-2.602 6.064-8.31 10.463-14.5 12.537-.27.085-.605.207-.945.325a.698.698 0 0 0-.24.056c-.464.085-.926.179-1.39.287l-.155.057a.29.29 0 0 0-.109.014c-.179.066-.354.146-.528.226-2.99 1.129-5.912 2.709-8.254 4.873-1.176-1.086-2.455-2.065-3.787-2.963a.56.56 0 0 0 .19-.217c.197-.428.386-.861.56-1.298.6-1.553 1.04-3.162 1.73-4.681 2.332-5.603 4.688-11.201 7.412-16.625 2.607-5.147 5.572-10.09 8.566-15.04 2.105-2.978 4.103-6.021 6.2-9.004 8.409-11.3 18.815-19.989 33.25-21.884 6.577-.56 13.405-.029 19.614 2.342 2.686 1.106 5.43 2.4 8.055 3.689 3.74 2.234 7.366 4.793 10.298 8.03 1.11 1.613 2.625 3.044 3.867 4.572 3.329 4.079 6.02 8.77 8.556 13.384 1.86 3.242 3.518 6.586 5.236 9.903 1.563 3.777 2.966 7.607 4.297 11.469.156.583.331 1.162.51 1.741 0 .094.024.188.08.287.029.141.085.296.161.465.718 2.211 1.544 4.389 2.248 6.605.363 1.059.698 2.141 1.208 3.138-.434.32-.859.654-1.265 1.016-2.224 1.966-4.004 4.342-5.525 6.873-.396-.367-.949-.687-1.208-.941-1.535-1.209-3.348-1.91-5.185-2.521-.241-.085-.486-.16-.727-.24-.34-.353-1.11-.499-1.511-.696-1.228-.476-2.488-.843-3.669-1.431-4.891-2.733-6.832-5.485-8.513-10.768l.014-.014Zm67.644 42.664c-.066 8.223-1.171 16.554-3.707 24.41-1.77 5.443-4.334 10.59-7.063 15.633-1.54 2.639-3.334 5.114-5.157 7.588-1.01 1.383-2.054 2.729-2.847 4.253-.283-.174-.571-.348-.854-.527-2.111-1.524-4.278-3.006-5.879-5.104-2.441-4.225-3.768-9.983-1.044-14.41.18-.301.407-.635.303-.997.009-.612-.85-.776-1.105-.273 0 0 0-.009.005-.014-1.134 1.651-1.71 3.627-2.04 5.589-.251 1.406-.156 2.841-.704 4.224-.16.452-.434.927-.802 1.275-.369.207-.813.376-1.233.414h-.071c-.411-.39-.812-.79-1.194-1.209-3.287-3.523-5.473-7.903-7.763-12.099-3.362-6.126-6.209-12.646-7.89-19.458-.359-1.966-.538-3.994-.614-6.021.321-2.493 2.163-4.497 4.392-5.579 1.572-.791 3.229-1.365 4.669-2.409.09-.038.18-.089.26-.146 1.525-.654 3.041-1.322 4.571-1.886 7.984-3.105 16.79-2.508 25.011-.687 1.119.268 2.266.484 3.423.64.935.287 1.922.428 2.857.729 2.738.743 4.046 2.804 4.471 5.377v.668l.005.019Zm28.543-14.283c-1.209 10.943-12.546 17.58-23.071 18.023-.259-.16-.585-.273-.802-.48-.661-.56-1.422-1.096-1.898-1.854-.695-1.171-.935-2.648-.803-3.998.769-3.872 4.929-5.406 7.474-7.96.586-.593 1.252-1.247 1.634-2.009.142-.188.236-.4.241-.64 0-.014.009-.028.014-.047.005-.799-1.251-.837-1.218-.014 0 0 0 .005-.005.01-.515.555-1.124 1.053-1.69 1.557-4.207 3.551-9.652 4.426-15.025 3.848l-.496-.071a.671.671 0 0 0-.189-.028c-2.493-.381-4.986-1.03-7.479-1.43-8.319-1.515-17.055-.781-24.723 2.912-3.423 1.303-6.79 3.109-10.539 3.133-2.71.066-5.548-.423-8.027-1.632-1.326-.678-2.417-1.845-3.612-2.767a1.467 1.467 0 0 0-.382-.287c-.624-.437-1.285.447-.723.927.081.057.156.118.236.174.1.099.203.193.298.273 1.029.988 1.978 2.075 3.201 2.827 1.837 1.28 4.042 1.981 5.714 3.496 1.251 1.054 2.408 2.761 1.761 4.441-.567 1.712-1.719 3.1-3.178 4.135a3.433 3.433 0 0 0-.392.23c-2.89-.273-5.784-.903-8.457-2.013-4.495-1.873-7.979-5.471-10.855-9.315-2.823-3.909-4.953-8.811-4.401-13.727.407-2.028.94-4.22 2.206-5.918 5.708-7.974 14.656-8.877 23.094-5.927a.691.691 0 0 0 .174.145c.817.452 1.455 1.073 2.026 1.826 1.327 2.055 2.12 4.605 1.501 7.056-.103.48-.212.95-.306 1.426a6.24 6.24 0 0 0-.194 1.03c-.076.527-.595 1.265.085 1.585.519.132.77-.197.916-.654.17-.226.137-.555.189-.832.042-.236.09-.518.137-.814.16-.668.467-1.285.722-1.92.661-1.533 1.105-3.152 1.785-4.676 1.218-2.173 2.531-4.309 4.292-6.097 2.673-3.086 6.502-5.344 10.652-5.527 6.035-.113 12.404 1.844 16.649 6.271 2.163 2.173 4.632 4.14 6.228 6.793.392.588.737 1.204.963 1.877a.6.6 0 0 0 .803.4c.406-.198.397-.64.213-1.143.056-.236.033-.518.009-.753-.505-3.528 1.516-7.094 4.613-8.807a72.376 72.376 0 0 1 2.536-.978c2.696-.809 5.515-1.237 8.319-1.454 2.012-.023 4.122.212 6.129.569 2.356.579 4.656 1.576 6.781 2.851 2.606 1.708 4.806 4.281 5.836 7.24.703 2.799 1.223 5.805 1.039 8.722l-.005-.005Z"/><path fill="#000" d="M225.043 158.503c-.052-2.404-.892-4.761-1.879-6.929-1.115-2.122-2.918-3.792-4.982-4.996-3.144-2.009-7.474-2.193-10.628-.094-2.215 1.811-3.594 4.511-4.5 7.178-2.791 7.744 1.128 17.397 9.939 18.38 3.641.424 7.201-1.496 9.25-4.45 1.671-2.682 2.866-5.866 2.8-9.089Zm-4.004 8.764c-1.903 2.475-5.085 4.084-8.268 3.566-7.498-1.044-10.973-9.465-8.778-16.173.406-1.496 1.072-3.091 1.984-4.399.363-.738.764-1.453 1.407-1.99.571-.63 1.194-1.157 2.025-1.42 2.049-1.012 4.528-.781 6.648-.076 4.255 1.905 6.54 4.949 7.513 9.475.84 3.062-.099 6.233-1.346 9.089-.543.522-.699 1.345-1.18 1.928h-.005Z"/><path fill="#000" d="M217.192 156.014c-.01.057-.019.113-.033.17-.052.343-.166.668-.293.997a4.087 4.087 0 0 1-.638 1.101 2.934 2.934 0 0 1-1.171.828 2.604 2.604 0 0 1-.958.179c-.17 0-.34-.014-.515-.043-.378-.061-.769-.16-1.105-.357a2.218 2.218 0 0 1-.689-.654 2.662 2.662 0 0 1-.453-1.11c-.057-.381.047-.734.222-1.059 0-.131.014-.263.028-.39-2.267.988-4.495 2.568-4.977 5.127-.675 3.562.893 7.885 4.495 9.212a6.56 6.56 0 0 0 2.276.418c1.228 0 2.432-.376 3.386-1.237 2.748-1.741 4.16-5.245 3.598-8.421-.397-1.961-1.511-3.721-3.183-4.756l.01-.005ZM53.536 197.752s-.01-.014-.014-.024l.014.024ZM257.085 124.735c-.628-.823-1.789.184-.892.795 1.039 2.207 1.723 4.78 1.369 7.245-.061.315.203.621.506.663 1.227.071.694-2.766.637-3.547-.175-1.792-.774-3.57-1.62-5.156ZM257.453 136.355a.59.59 0 0 0 .591-.588.59.59 0 0 0-1.181 0 .59.59 0 0 0 .59.588ZM201.873 114.456c-1.553-.244-3.126.099-4.561.711-.567.371-2.03.616-1.596 1.538a.595.595 0 0 0 .812.184c.548-.316 1.11-.598 1.7-.833 1.114-.395 2.219-.626 3.414-.447 1.025.273 1.308-1.195.231-1.157v.004ZM193.771 117.674c-.321 0-.581.292-.572.607.01.329.288.569.61.569.321 0 .58-.292.571-.607a.596.596 0 0 0-.609-.569ZM156.157 136.863c-1.625.231 1.19 5.584 1.775 6.342.368.63 1.374.479 1.242-.325-1.166-1.585-2.063-3.505-2.366-5.495-.052-.315-.316-.555-.651-.522ZM156.162 135.283a.6.6 0 0 0 .605-.574.593.593 0 0 0-.576-.603.6.6 0 0 0-.605.574.593.593 0 0 0 .576.603ZM225.402 173.609c-.604.047-.491.715-.708 1.119-.241.588-.477 1.19-.694 1.835-.298.856-.591 1.679-1.001 2.493a.59.59 0 0 0 .278.786.599.599 0 0 0 .789-.278c.614-1.204.982-2.512 1.464-3.768.236-.621 1.076-2.089-.133-2.187h.005ZM222.513 180.571c-.321 0-.604.221-.623.555-.019.306.236.621.557.621.321 0 .604-.221.623-.555.019-.306-.236-.621-.557-.621ZM185.806 158.376c-.491-1.999-.694-4.154-.189-6.172.208-.484.208-1.19-.52-1.185a.597.597 0 0 0-.543.602c-.656 2.267-.462 4.713.1 7.009.179.753 1.312.494 1.152-.254ZM185.913 161.208c-.321 0-.604.221-.623.555-.019.306.236.621.557.621.321 0 .605-.221.623-.555.019-.306-.236-.621-.557-.621ZM224.029 148.624a.595.595 0 0 0-.156.818c.817 1.115 1.558 2.348 1.751 3.74.015.32.326.565.638.537 1.379-.207-.335-3.232-.708-3.924-.392-.461-.761-1.604-1.53-1.171h.005ZM222.743 147.89c.321 0 .6-.231.614-.565.014-.31-.241-.611-.567-.611-.326 0-.599.23-.614.564-.014.311.241.612.567.612ZM228.366 75.918c.765 2.01 1.45 4.07 2.139 6.111.255.73 1.355.353 1.119-.371-.628-1.9-1.289-3.792-1.969-5.678-.415-.64-.576-2.913-1.666-2.334-.26.17-.359.555-.17.814.226.461.311.993.547 1.458ZM231.44 84.942c.019.334.297.56.619.56.321 0 .576-.311.561-.617-.018-.334-.297-.56-.618-.56s-.576.31-.562.617ZM153.372 6.186c1.246.024 2.46.438 3.687.659 1.549.353 3.131.574 4.595 1.218.731.245 1.104-.856.377-1.115-2.497-.978-5.203-1.308-7.814-1.891-.534-.07-1.478-.212-1.469.574a.6.6 0 0 0 .624.555ZM165.175 9.122c.321 0 .571-.316.552-.621-.018-.334-.302-.55-.623-.55s-.571.314-.552.62c.019.334.302.55.623.55ZM54.494 52.18c.807-1.19 1.671-2.347 2.38-3.608.566-1.058 1.402-1.924 2.082-2.898.184-.263.094-.64-.17-.813a.6.6 0 0 0-.817.169c-1.01 1.275-1.969 2.601-2.772 4.027a43.81 43.81 0 0 1-1.52 2.215c-.175.25-.359.527-.359.843a.603.603 0 0 0 .199.489c.349.324.982.056.972-.419l.005-.005ZM61.364 42.88c.322 0 .572-.315.553-.621-.019-.334-.302-.55-.623-.55s-.572.315-.553.62c.02.334.302.55.623.55ZM40.82 112.894c1.473-.917 3.12-1.59 4.447-2.728.472-.518 2.427-1.863 1.643-2.573-.764-.546-1.199.668-1.718 1.044-1.096 1.157-2.531 1.863-3.905 2.634-.623.438-3.168 1.454-2.432 2.404.694.659 1.313-.564 1.965-.781ZM48.247 106.111c.321 0 .572-.315.553-.621-.02-.334-.302-.551-.623-.551-.322 0-.572.316-.553.621.019.334.302.551.623.551ZM92.377 47.34c-2.215 1.929-4.06 4.187-5.746 6.576-.383.725-3.174 2.927-1.79 3.576a.594.594 0 0 0 .746-.372c.52-.936 1.374-1.642 1.993-2.512.916-1.195 1.76-2.48 2.771-3.603.888-.984 1.813-1.863 2.8-2.78.576-.518-.193-1.384-.774-.89v.005ZM96.686 44.254c-.32 0-.571.315-.552.62.019.335.302.551.623.551s.571-.315.552-.62c-.018-.335-.302-.551-.623-.551ZM181.64 46.954c-.665-.306-1.175.672-.543 1.04 1.417 1.086 2.555 2.53 3.768 3.834.543.545 1.374-.269.841-.824-1.308-1.378-2.498-2.968-4.07-4.05h.004ZM187.487 53.954a.596.596 0 0 0-.591.588c0 .32.27.588.591.588.321 0 .59-.268.59-.588a.595.595 0 0 0-.59-.588ZM175.682 81.912c.921 1.491 1.743 3.039 2.545 4.591.383.668 1.398.104 1.034-.569-.868-1.646-1.704-3.316-2.734-4.874-.722-.955-1.86.132-.84.852h-.005ZM179.053 88.437c0 .315.259.593.585.593.326 0 .59-.26.595-.584a.596.596 0 0 0-.585-.593.592.592 0 0 0-.595.584ZM126.982 51.136c-.963.259-7.664.734-6.223 2.432a.597.597 0 0 0 .831-.07c1.685-.697 3.654-.875 5.486-1.19.77-.076.676-1.228-.089-1.172h-.005ZM130.093 51.127c-.321 0-.604.22-.623.555-.019.306.236.62.557.62.321 0 .604-.22.623-.554.019-.306-.236-.621-.557-.621ZM78.939 102.696a.592.592 0 0 0-.765.334c-.548 1.42-1.152 2.817-1.738 4.219-.222.363-.392.889.02 1.191.363.282.943.004.939-.457.524-1.096.911-2.258 1.42-3.363.162-.588.926-1.529.119-1.924h.005ZM79.912 99.887c.212.899 1.435.475 1.137-.376-.212-.894-1.435-.475-1.137.376ZM100.072 122.548c.486.24.67.875.958 1.312.661 1.096 1.072 2.305 1.492 3.51.241.734 1.346.39 1.129-.339-.538-1.651-1.199-3.251-2.153-4.709-.241-.372-.548-.743-.992-.875-.722-.268-1.147.809-.434 1.096v.005ZM103.01 129.741a.596.596 0 0 0 .609.569c.321 0 .581-.292.571-.607a.596.596 0 0 0-.609-.569c-.321 0-.58.291-.571.607ZM76.044 146.907c-.566-.066-.651.545-.826.936-.623 1.416-.406 2.935.024 4.37.08.311.439.485.736.395.317-.094.473-.423.397-.733-.18-.81-.486-1.642-.35-2.513-.028-.757 1.195-2.178.02-2.455ZM77.13 153.399c-.32 0-.58.292-.571.607.01.329.288.569.609.569s.58-.292.571-.607a.596.596 0 0 0-.609-.569ZM61.788 116.926a46.159 46.159 0 0 0-3.89-1.566c-.473-.17-1.115-.424-1.535-.019-.486.433.052 1.237.637.974 1.488.442 2.862 1.053 4.307 1.688.703.306 1.185-.752.481-1.072v-.005ZM63.568 118.055a.6.6 0 0 0-.609.569c-.01.311.25.607.572.607.32 0 .6-.244.609-.569.01-.31-.25-.607-.572-.607ZM54.781 141.52c-1.893-.489-3.669-1.505-5.317-2.531-.694-.249-1.133.828-.392 1.101 2.177 1.444 4.69 2.804 7.376 2.696.316.023.6-.259.609-.57-.104-1.044-1.582-.437-2.271-.696h-.005ZM49.451 138.98l.02.009c.023.01.046.015.07.024-.024-.014-.057-.024-.085-.033h-.005ZM59.244 141.431a.6.6 0 0 0-.609.569c-.01.311.25.607.571.607.321 0 .6-.244.61-.569.009-.31-.25-.607-.572-.607ZM6.337 129.265c-1.6-.94-2.61 6.375-2.28 7.363.094.762 1.251.63 1.175-.127-.146-1.195.062-2.461.298-3.651.222-.814.444-1.698.817-2.474.255-.334.43-.838-.01-1.111ZM4.92 140.561c.637.809 1.534-.113.85-.889-.638-.805-1.535.113-.85.889ZM34.62 152.707c-.543-.795-.756-1.816-1.398-2.526-.609-.466-1.317.447-.727.927.911 2.079 2.149 3.994 3.23 5.984a.6.6 0 0 0 .807.212c.27-.16.383-.532.213-.805-.685-1.28-1.469-2.503-2.125-3.792ZM38.034 160.023a.59.59 0 1 0 .001-1.175.59.59 0 0 0-.001 1.175ZM54.244 188.375c-.123-.512-.062-1.086-.34-1.547-.279-.461-1.044-.32-1.105.221.269 1.435.557 2.926 1.006 4.347.392 1.204 1.138 2.239 1.794 3.311.401.659 1.402.066 1.02-.592-1.247-1.722-2.007-3.656-2.37-5.744l-.005.004ZM58.389 197.94a.59.59 0 1 0 .001-1.175.59.59 0 0 0-.001 1.175ZM14.95 187.882c-1.276 1.392-1.87 3.246-2.49 4.991-.316 1.397-.901 2.728-1.08 4.177-.052.316.217.612.524.65.94.037.646-1.449.986-2.061.619-1.999 1.148-4.154 2.196-6.003.326-.574.84-.898 1.086-1.533.1-.838-.892-.998-1.223-.212v-.009ZM10.732 199.901a.592.592 0 0 0-.575.602.59.59 0 0 0 1.18-.028.596.596 0 0 0-.604-.574Z"/></g><defs><clipPath id="a"><path fill="#fff" d="M0 0h262v214H0z"/></clipPath></defs></svg>