<svg xmlns="http://www.w3.org/2000/svg" width="273" height="226" fill="none"><g clip-path="url(#a)"><path fill="#E2FFB4" d="M227.765 101.373s-.005 0-.01-.004c.014.009.024.018.038.023-.01-.005-.019-.014-.028-.019Z"/><path fill="#E2FFB4" d="M224.441 147.993c-3.905.47-7.567 2.392-10.54 4.924-1.996 1.616-3.545 3.661-5.266 5.543-2.595 2.613-6.581 2.722-10.036 2.6-7.518-.393-15.491-2.659-22.599.88-2.239 1.033-3.878 2.943-5.928 4.27-2.662 1.828-6.099 1.291-9.027.474-4.626-1.305-8.815-4.157-11.622-8.053-.108-.148-.234-.329-.387-.451-3.099-25.253-2.221-51.097 3.009-75.98.405-1.25 1.036-2.442 1.743-3.552.883-1.196 1.5-1.589 2.964-1.214 2.18.56 4.086 1.877 6.356 2.04 2.374.067 4.658-1.223 6.086-3.083 1.797-2.248 2.076-5.222 2.455-7.98.297-2.044.995-4.021 1.955-5.85 1.743-3.926 6.085-5.655 10.139-4.585 3.978 1.295 6.671 4.766 10.379 6.567 4.599 2.658 10.644 4.058 14.477-.627 1.18-1.67 2.104-3.751 4.212-4.387.302-.1.639-.046.946-.109a162.082 162.082 0 0 1 13.401 8.662 225.7 225.7 0 0 1 14.509 11.423c2.743 2.736 5.576 5.39 8.238 8.21 4.086 4.329 8.253 8.63 11.595 13.55 2.847 4.64 5.599 9.338 7.815 14.317.766 2.049 1.973 4.012 2.307 6.188a.526.526 0 0 0-.158.316 17.165 17.165 0 0 1-2.14-.221 1.12 1.12 0 0 0-.423-.122l-.644-.068c-1.883-.361-3.744-.822-5.671-.799-1.609.104-3.217.131-4.807.37-.311-.153-.549-.068-.684.113-.298.059-.473.397-.401.682.076.311.378.469.684.41.05-.009.095-.013.144-.022.077.022.163.031.257.036 1.406.018 2.811.271 3.973 1.097 1.834 1.015 3.167 2.775 2.505 4.937 0 .009 0 .018-.009.023a7.295 7.295 0 0 1-.392.979c-1.514 1.418-2.946 2.921-4.442 4.356-1.423 1.322-2.86 2.654-4.423 3.809-1.117.781-2.216 1.585-3.203 2.532a236.205 236.205 0 0 1-9.518 7.958c-.189.103-.369.23-.531.307-1.054.681-2.14.974-3.338 1.209-.374.072-.802.014-1.167.131-1.455-.077-2.847-.546-4.428-.903-2.761-.478-5.549-1.178-8.369-.916l.004.009Zm-72.455-50.69c.307 0 .577-.209.595-.534.018-.293-.221-.595-.527-.595-.306 0-.577.207-.595.532-.018.294.221.596.532.596h-.005Zm1.712-11.037a.57.57 0 0 0-.784.15c-.527.893-.653 1.954-.851 2.956-.189 1.124-.315 2.257-.432 3.394-.081.424-.059 1.011.491 1.047a.567.567 0 0 0 .594-.532c.158-1.824.37-3.62.802-5.363.045-.555.779-1.196.18-1.652Zm15.216 77.335a.571.571 0 0 0 .735.316c2.743-1.142 4.842-3.421 7.509-4.699 1.256-.487 2.675-1.449 4.045-1.011.702.199 1.009-.875.301-1.088-3.139-.889-7.833 3.015-10.319 4.708-.622.397-1.257.785-1.951 1.043a.566.566 0 0 0-.315.731h-.005Zm-1.54-.289c.207-.727-1.023-1.07-1.216-.339-.208.723 1.018 1.07 1.216.339Zm46.117-23.001c-.905-1.39-1.887-2.721-2.883-4.044-2.302-2.934-4.189-6.206-5.698-9.609-3.802-8.454-5.946-18.46-4.55-27.754 0-.013 0-.027.005-.04.743-4.929 2.482-9.66 5.5-13.852.995-1.368 2.275-2.487 3.581-3.543 1.009-.745 1.923-1.697 3.072-2.144a.565.565 0 0 0 .509-.614c-.347-1.29-2.117.153-3.149.988a1.454 1.454 0 0 0-.333.14c-.734.312-1.437.695-2.149 1.056-2.351 1.206-6.13 1.87-8.31.154-.212-.176-.433-.339-.618-.537a.58.58 0 0 0-.252-.24c-.527-.713-1.081-1.403-1.73-2.012-1.72-1.62-3.635-3.336-6.013-3.819-2.059-.149-4.293-.221-6.216.641-2.131 1.034-4.126 2.681-5.284 4.77-.32.65-.96 2.023-1.032 3.093a9.35 9.35 0 0 0-2.112-.452c-5.086-.289-10.329 2.952-11.91 7.88-.698 1.698-1.036 3.548-.671 5.363.081.244.103.623.162.984-.329.05-.658.104-.987.171-1.157.375-2.238 1.007-3.198 1.752-.856.835-1.608 1.796-2.311 2.766-1.108 1.688-1.797 3.589-1.72 5.629-.059 2.405.058 4.924 1.054 7.149 1.081 3.137 3.274 5.15 5.95 6.369-2.144 2.392-3.248 5.673-2.941 8.873-.212 2.067.202 4.062 1.072 5.94 1.82 4.811 5.833 6.978 10.842 6.797 1.401.059 2.707-.365 3.924-1.002.099.519.225 1.034.445 1.517.577 1.304 1.582 2.347 2.609 3.313 2.887 2.988 5.351 3.872 9.468 3.245 1.842-.28 3.676-.826 5.243-1.869 1.937-1.485 3.69-3.344 4.82-5.52.46-.713.937-1.498 1.437-2.306.023 0 .045.004.072 0a.568.568 0 0 0 .46-.465c1.378-1.142 3.009-2.13 4.81-2.356 1.982-.176 4.081.077 5.784 1.142a.588.588 0 0 0 .203.063c.306.411.613.822.914 1.232.388.524.748 1.065 1.104 1.607.158.339.572.564.905.316a.568.568 0 0 0 .135-.785l-.013.013Zm-10.428-35.999c.324-.028.545-.339.505-.655-.023-.97.009-1.941.094-2.907.437-2.992 1.126-6.07 2.509-8.76.455-.574-.401-1.287-.869-.713-.185.23-.343.464-.46.735-1.099 2.821-1.982 5.746-2.311 8.765a23.648 23.648 0 0 0-.081 3.034c.009.306.325.532.618.505l-.005-.004Zm-.027 2.834c-.009.298.234.587.541.587a.573.573 0 0 0 .585-.542c.009-.298-.234-.587-.54-.587a.574.574 0 0 0-.586.542Zm27.059 21.8c.076-.415.004-.966-.518-.984-.527-.018-.622.528-.609.944-.022.735 1.091.776 1.127.04Zm-12.203-5.15c1.23 1.147 2.545 2.271 3.968 3.164 1.248.862 2.717 1.219 4.153 1.63a.573.573 0 0 0 .708-.37.572.572 0 0 0-.37-.705c-.829-.266-1.68-.455-2.5-.758-.959-.451-1.914-.984-2.711-1.683-.784-.714-1.712-1.26-2.419-2.05-.505-.532-1.32.231-.82.777l-.009-.005Zm26.554-31.644c-1.104-.835-2.329-1.86-3.761-1.945-.739.077-.613 1.196.13 1.12.856.18 1.545.726 2.275 1.173.64.32 1.793 2.013 2.464 1.268.505-.767-.703-1.147-1.104-1.625l-.004.01Zm2.797 2.866c-.329.758.752 1.246 1.041.47.324-.759-.748-1.25-1.041-.47Zm-5.32 28.999c1.829-1.092 3.284-2.717 4.554-4.4 1.185-1.499 1.883-3.304 2.464-5.109.613-1.707 1.032-3.48 1.131-5.299.09-3.051-1.198-5.881-2.437-8.594-.567-1.06-1.266-2.05-1.905-3.07-1.045-1.47-2.622-2.495-4.113-3.47-1.288-.767-2.554-1.598-3.964-2.135-1.009-.357-2.076-.51-3.117-.767-1.811-.082-3.608.42-5.338.898-3.419.867-6.725 2.478-9.324 4.883-5.469 5.01-6.667 8.346-4.667 15.586.491 1.755 1.176 3.457 2.216 4.955 1.203 1.968 2.572 3.9 4.356 5.376 1.442.952 2.897 2.112 4.608 2.473 2.005.574 4.023 1.287 6.144 1.192 3.217-.221 6.491-1.16 9.392-2.523v.004Z"/><path fill="#A4D357" d="M197.491 139.982c-.941 1.485-1.662 3.137-2.982 4.342-2.721 3.38-7.459 4.581-11.599 3.66-1.928-.573-3.275-2.193-4.716-3.502-.788-.822-1.527-1.743-1.847-2.857-.131-.28-.135-.691-.194-1.052 2.662-1.35 5.171-3.006 7.302-5.109 2.176-2.135 4.104-4.545 6.496-6.455.265-.23.54-.456.815-.677a.439.439 0 0 0 .149-.027c2.373-.939 4.986-1.39 7.509-.997 1.441.257 2.815.826 3.977 1.728.968.858 1.914 1.801 3.135 2.275-1.004.23-2.473 1.436-2.896 1.824-2.095 1.986-3.631 4.409-5.149 6.847Zm-7.851 4.346a.563.563 0 0 0-.744-.28c-1.351.425-2.878.763-4.22.325-.838-.343-1.874-.532-2.5-1.218-.185-.244-.559-.271-.793-.082-.941 1.178 1.928 1.964 2.676 2.289 1.103.438 2.297.41 3.446.194.639-.19 2.473-.217 2.13-1.228h.005Zm3.135-2.13c-.306 0-.554.289-.541.587.014.316.28.541.586.541.306 0 .554-.289.54-.587a.572.572 0 0 0-.585-.541Z"/><path fill="#E2FFB4" d="M156.432 216.291c-.022.01-.049.023-.072.032l.041-.041c.009 0 .022 0 .031.009Z"/><path fill="#A4D357" d="M79.306 220.706c4.879.681 9.798 1.196 14.73 1.006 9.014-.05 18.018-1.539 26.662-4.021 3.888-.971 7.784-1.892 11.545-3.295 4.424-1.192 8.78-2.636 13.005-4.419.919-.402 1.838-.812 2.748-1.228a.832.832 0 0 0 .216-.054c.166-.086.329-.176.495-.266a303.458 303.458 0 0 0 7.244-3.439c.238.04.495.058.689.131.82.243 1.54.722 2.013 1.444.55 1.683.289 3.629-.423 5.231-1.135 1.923-2.496 3.8-4.234 5.168-.19.248-.568.442-.816.681-3.031 1.228-6.103 2.338-9.261 3.192-8.045 2.035-16.297 3.177-24.581 3.529-5.595.474-11.243.587-16.833.411-7.987-.443-15.973-1.454-23.74-3.381 0-.031-.008-.058-.013-.09.023-.321.316-.442.559-.605l-.005.005Zm74.888-8.233a.572.572 0 0 0 .576-.551c.005-.302-.243-.577-.549-.577a.573.573 0 0 0-.577.55c-.004.303.243.578.55.578Zm-12.419 7.294c2.703-.578 5.473-1.237 7.815-2.771.572-.38 1.077-.7 1.644-1.061.509-.397 1.834-.894 1.244-1.693-.46-.465-.924.131-1.271.375-1.82 1.169-3.572 2.433-5.666 3.028a41.31 41.31 0 0 1-3.897 1.002c-.725.091-.599 1.201.131 1.12ZM153.347 177.746c-.982-2.017-1.726-4.143-2.307-6.287-.225-1.25-.441-2.505-.644-3.76.216-1.489 1.631-2.694 3.131-2.717.721 0 1.351.239 1.959.582a.514.514 0 0 0 .298.149c3.058 1.733 6.495 2.776 10.022 2.853 6.406.04 7.568-5.908 15.009-7.046 8.725-1.936 20 3.467 27.514-1.304 1.347-1.002 2.347-2.379 3.441-3.638 1.536-1.724 3.266-3.277 5.185-4.563 2.977-1.86 6.495-3.273 10.049-2.902 2.298.185 4.536.713 6.78 1.209.261.271.738.397.919.763.364.727.725 1.656.229 2.415-.081.113-.184.23-.265.352a152.073 152.073 0 0 1-3.559 2.442c-6.149 3.547-11.973 7.65-18.041 11.301-6.355 3.859-13.09 7.019-19.846 10.097-3.442 1.526-7.027 2.704-10.609 3.855-5.761 1.895-11.545 3.674-17.491 4.874h-.018c-5.531.844-9.549-4.256-11.752-8.679l-.004.004Zm66.509-23.912c.153.275.5.356.766.216 2.175-1.16 4.576-1.945 7.058-1.778.365.104.739.289.996-.135.306-.556-.329-.953-.82-.98-1.753-.131-3.473.149-5.131.713-.901.361-1.797.745-2.658 1.196a.568.568 0 0 0-.211.768Zm-1.96 2.523a.57.57 0 0 0 .572-.555.567.567 0 0 0-.554-.574.57.57 0 0 0-.572.556.568.568 0 0 0 .554.573Zm-47.013 25.961a.57.57 0 0 0 .684.411c2.023-.451 3.942-1.196 5.87-1.923a.573.573 0 0 0 .41-.686c-.356-1.128-2.518.456-3.284.587-1.077.352-2.171.632-3.266.925a.57.57 0 0 0-.41.686h-.004Zm-2.451 1.35a.57.57 0 0 0 .572-.555.566.566 0 0 0-.554-.573.57.57 0 0 0-.572.555.567.567 0 0 0 .554.573ZM184.369 132.895c-2.401 2.704-5.225 4.925-8.45 6.513-1.131.592-2.207 1.382-3.5 1.54-4.676.528-8.91-.921-10.847-5.502-.842-1.864-1.45-3.814-1.198-5.881-.005-1.142-.149-2.307.171-3.408.522-1.833 1.266-3.611 2.608-4.992.054-.054.099-.113.135-.167 2.946 1.065 6.338 1.286 9.442 1.038 2.365-.357 4.747-.803 7.018-1.571 2.216-.844 4.459-1.597 6.738-2.189.041.009.081.023.127.023 2.063-.415 4.09-.433 6.166-.357a14.6 14.6 0 0 1 5.446 1.481c.635.573 1.401.966 2.027 1.539.334.225.55.568.87.812l.031.045c-1.311.217-3.176 1.002-3.64 1.178-5.157 2.104-9.455 5.778-13.139 9.889l-.005.009Zm3.032-6.643c-.153-.253-.523-.357-.775-.185-.531.37-1.081.708-1.59 1.11-1.464 1.444-2.824 3.015-4.239 4.513-.558.474.14 1.341.712.876 1.022-1.092 2.036-2.194 3.077-3.272.707-.953 1.639-1.648 2.635-2.271.252-.176.351-.505.184-.776l-.004.005Zm1.802-2.194c-.383-.212-.937-.505-1.221 0-.14.262-.05.627.23.767.378.212.932.506 1.216-.004.139-.257.049-.632-.225-.763ZM171.82 24.233a4.53 4.53 0 0 1-.924.75c-2 1.398-4.608 1.204-6.869.663-1.18-.334-2.252-.916-3.284-1.567a296.184 296.184 0 0 1-4.234-2.364c-.234-.168-.468-.33-.703-.497a.532.532 0 0 0-.306-.122c-.95-.587-1.905-1.169-2.878-1.729-3.784-2.198-7.892-3.75-11.892-5.497-4.072-1.422-8.05-3.21-12.329-3.927-3.275-.776-6.572-1.083-9.919-1.21-5.919-.478-11.842-.514-17.761-.022-4.852.275-9.798.488-14.59 1.363-.018-.027-.032-.059-.054-.086-.172-.22-.55-.248-.595-.568a.534.534 0 0 0 .257-.384 98.735 98.735 0 0 1 8.013-2.758c7.113-2.23 14.478-3.999 21.91-4.482 4.104-.442 8.212-.708 12.342-.632 8.856-.126 17.73 1.093 25.982 4.397 4.69 1.886 9.176 4.382 13.217 7.424a54.675 54.675 0 0 1 4.018 3.029c.437.736 1.027 1.367 1.468 2.103.892 1.941.653 4.378-.725 5.958a.568.568 0 0 0-.144.154v.004Zm-9.352-12.191c-1.265-.808-2.554-1.58-3.918-2.203-.527-.7-1.478-.144-1.009.592.711.717 1.783.92 2.599 1.512 1.477.975 3.054 1.63 4.441 2.712.428.312.937 1.133 1.496.596.914-.925-2.946-2.848-3.613-3.209h.004Zm5.388 4.315c-.306 0-.554.289-.541.587.014.316.28.541.586.541.306 0 .554-.289.54-.587a.572.572 0 0 0-.585-.541Z"/><path fill="#E2FFB4" d="M109.063 91.741s-.041-.013-.064-.022c.055.018.109.036.177.036a.45.45 0 0 1-.113-.014Z"/><path fill="#A4D357" d="M46.838 84.62a.492.492 0 0 0 .437.283 57.05 57.05 0 0 0 2.37 3.367c1.31 1.53 2.85 2.84 4.175 4.352 1.694 1.796 3.297 3.678 5.198 5.262 2.032 1.82 4.23 3.44 6.513 4.92a.961.961 0 0 0 .293.221c.185.104.365.217.55.33.243.194.464.428.757.496a12.696 12.696 0 0 1 1.919 1.607c.184.361.428.686.554 1.07.08.799-.356 1.634-.996 2.103-.635.627-2.18.361-3.486.199-.36-.068-.717-.145-1.082-.226-3.387-.682-6.31-2.338-9.135-4.202-.252-.267-.486-.551-.73-.831-2.797-3.57-4.297-7.998-5.963-12.132a.568.568 0 0 0-.13-.248c-.591-2.176-1.316-4.324-2.055-6.46.072-.37.55-.216.81-.12v.008ZM206.676 64.209c-1.829 1.507-4.167 2.085-6.834 1.426-3.067-.735-5.878-2.324-8.437-4.139-2.31-1.701-4.554-3.818-7.369-4.608-2.964-.776-6.225-.216-8.685 1.616-2.347 1.91-3.545 4.915-4.401 7.745-.779 2.893-.545 6.134-2.153 8.76-1.221 1.969-3.401 3.445-5.766 3.332-.801-.104-1.563-.343-2.31-.628-.014-.013-.023-.027-.036-.036-.852-.401-1.748-.853-2.505-1.385-1.806-1.2-3.036-3.318-3.266-5.453a1.107 1.107 0 0 0-.054-.383 209.825 209.825 0 0 1 2.397-8.215c.22-.388.279-.97.455-1.268.946-2.09 1.77-4.27 2.761-6.328 2.085-4.162 4.77-8.54 9.131-10.526a13.72 13.72 0 0 1 3.333-.622c5.432 1.11 10.703 2.68 15.959 4.432 6.28 2.202 12.379 4.86 18.284 7.903.234.284.608.55.712.867a6.492 6.492 0 0 1 .63 3.994c-.297 1.273-.936 2.573-1.846 3.516Zm-48.054 1.544a.57.57 0 0 0 .563.564.57.57 0 0 0 .563-.564.57.57 0 0 0-.563-.564.57.57 0 0 0-.563.564Zm3.509-7.71c-1.041-.884-1.478 1.197-1.757 1.87-.27.748-.55 1.498-.811 2.256-.189.704.869 1.011 1.086.298.432-1.17.815-2.352 1.288-3.503a.729.729 0 0 1 .094-.135c.23-.194.293-.542.1-.79v.005Zm24.513-9.008c-1.113-.416-2.216-.871-3.351-1.219-.964-.27-1.978-.55-2.883-.862-.284-.117-.622.05-.725.33-.167.433.229.758.612.83.901.266 1.793.555 2.703.794 1.099.348 2.171.777 3.248 1.187a.568.568 0 0 0 .725-.33.569.569 0 0 0-.329-.726v-.004Zm2.311.939c-.306 0-.554.288-.541.586.014.316.28.542.586.542.306 0 .554-.289.54-.587a.572.572 0 0 0-.585-.541Z"/><path fill="#E2FFB4" d="M50.63 103.043c.654.637 1.37 1.345 1.564 2.271-.113.478-.059 1.011-.334 1.435-.211.352-.522.686-.919.821-.306.054-.608.077-.887.1a227.099 227.099 0 0 0-5.288-.303c-4.05-.009-8.059-.293-12.081-.257a.578.578 0 0 0-.307-.077 770.515 770.515 0 0 0-7.153-.641c-2.824-.392-5.667-.92-8.293-2.067-2.4-1.187-4.684-2.636-6.711-4.387a.539.539 0 0 0-.235-.27c-1.504-1.847-2.828-3.837-4-5.918-.873-1.715-1.707-3.457-2.184-5.33a17.388 17.388 0 0 1 .031-6.789c2.18 1.941 4.469 3.665 6.883 5.29a23.482 23.482 0 0 0 5.694 3.24c5.707 2.05 11.833 2.74 17.603 4.577 4.712 1.616 9.316 3.575 13.581 6.157a65.227 65.227 0 0 1 2.613 1.67c.144.158.297.298.419.474l.005.004ZM16.396 91.868c-.793-.253-1.563-.573-2.324-.894-1.36-.591-2.513-1.507-3.707-2.365a1.693 1.693 0 0 1-.297-.298c-.51-.483-1.266.29-.807.781 1.442 1.3 3.126 2.42 4.924 3.146.653.153 2.193 1.25 2.558.347.1-.284-.054-.627-.347-.717Zm3.135.659c-.657.415.131 1.715.798 1.282.657-.416-.126-1.715-.798-1.282Z"/><path fill="#A4D357" d="M189.036 90.87c-1.23-.87-2.374-1.873-3.608-2.748-1.946-1.711-3.968-3.598-6.329-4.708l-.013-.045c-.027-1.241.572-2.406 1.148-3.466 1.469-2.014 3.608-3.819 6.108-4.284 3.185-.334 5.014-.275 7.568 1.86 1.135.925 2.212 1.909 3.099 3.073 1.428 1.81 2.59 3.932 4.577 5.204.545.362 1.144.619 1.729.899-.022.036-.049.076-.063.117-1.964 3.742-6.554 4.92-10.486 4.938a12.692 12.692 0 0 1-3.721-.84h-.009Zm7.586-5.872c.306 0 .554-.289.54-.587a.572.572 0 0 0-.585-.541c-.307 0-.554.289-.541.587a.573.573 0 0 0 .586.541Zm-1.861-2.392c.226-.185.289-.569.081-.794-.405-.443-.792-.903-1.184-1.359-.685-.903-1.577-1.589-2.55-2.148-.599-.425-1.252.47-.662.911.257.195.536.339.748.46 1.162.736 1.842 1.888 2.779 2.844.212.23.545.285.793.082l-.005.004Z"/><path fill="#E2FFB4" d="M266.189 126.477a.773.773 0 0 1-.023-.095l-.027-.121.091.144c-.014.027-.027.054-.041.077v-.005Z"/><path fill="#A4D357" d="M191.365 116.317c-2.361.235-4.743.655-6.991 1.386-2.203.546-4.257 1.553-6.437 2.167-1.613.383-3.248.699-4.878 1.002-4.532.392-9.744-.028-13.284-3.169-2.446-2.496-3.496-6.034-3.487-9.465-.049-2.022.153-4.044 1.302-5.768 1.892-3.16 4-4.37 6.523-4.721h.036a.41.41 0 0 0 .13-.023c1.874-.234 3.978-.013 6.392.222 4.131.677 8.135 1.936 12.045 3.421a62.21 62.21 0 0 0 3.915 1.471c.022.018.04.041.063.05.315.135.639.221.968.28a41.69 41.69 0 0 0 5.716 1.372c.753.185 4.072.722 5.419.271 0 3.588.442 7.217 1.234 10.769-2.887-.506-5.842.28-8.662.735h-.004Zm-17.96 1.066c-.319-.813-1.482-.073-2.099-.122h-.009c-2.094.104-4.477.298-6.333-.804a.566.566 0 0 0-.788.127c-.73 1.584 4 1.891 4.973 1.895 1.306 0 2.617-.049 3.882-.392.298-.077.46-.42.374-.704Zm2.78-1.612c-.307 0-.554.289-.541.587a.574.574 0 0 0 .586.542c.306 0 .554-.289.54-.587a.573.573 0 0 0-.585-.542Z"/><path fill="#A4D357" d="M186 89.94c1.396 1.088 2.712 2.325 4.351 3.038 1.663.776 3.244 1.751 5.059 2.135.689.199 1.504.42 2.203.487.518-.018 1.68.334 2.225.064 0 .009 0 .018-.005.027a.75.75 0 0 0-.175.198c-.284.434-.586.849-.901 1.26-2.437 3.358-6.55 5.267-10.662 4.955-.027 0-.059 0-.09-.009a47.53 47.53 0 0 1-4.568-1.652c-3.914-1.512-7.923-2.775-12.059-3.52-2.247-.311-4.554-.515-6.824-.32-.185-.858-.32-1.725-.338-2.6.126-2.149 1.032-4.275 2.18-6.057 2.293-2.821 5.937-4.618 9.595-4.288 3.095.451 5.662 2.532 7.86 4.626.681.61 1.433 1.12 2.154 1.665l-.005-.008Zm-6.608-2.378c-1.356-.74-2.932-1.02-4.369-1.517-.32-.198-.753.01-.829.366-.122.713.77.785 1.252.957 1.086.293 2.05.564 3.063 1.006.527.249.996.596 1.455.948a.567.567 0 0 0 .788-.126c.464-.8-.865-1.25-1.36-1.634Zm3.383 3.132c-.306 0-.554.29-.541.587.014.316.28.542.586.542.306 0 .554-.29.54-.587a.572.572 0 0 0-.585-.542Z"/><path fill="#fff" d="M231.198 125.358c-1.887-.235-3.707-.885-5.486-1.39-1.334-.704-2.672-1.49-3.816-2.492-2.491-2.613-4.612-5.696-5.59-9.203-.612-2.387-1.162-4.933-.689-7.384.743-3.624 5.761-8.377 9.05-9.88 2.896-1.458 6.049-2.491 9.292-2.604.82-.04 1.586.19 2.347.465.149.05.307.031.437-.04.788.211 1.424.532 2.104.91 2.018 1.138 4.072 2.33 5.666 4.032 2.388 3.493 4.708 7.727 4.379 12.082-.676 5.263-3.203 10.778-7.996 13.428-3.09 1.173-6.36 2.329-9.702 2.071l.004.005Zm1.644-6.319c4.852-.104 8.78-4.482 9.095-9.207-.018-2.37-.761-4.78-1.955-6.825-1.811-2.604-4.464-5.398-7.838-5.294a12.035 12.035 0 0 0-6.23 2.807l.05.023c.104.045.207.099.306.153.131.027.261.059.388.104a4.325 4.325 0 0 1 1.099.569s-.009-.005-.009-.009l.018.013c.324.239.63.51.829.862.207.37.351.75.432 1.165.072.356.122.713.135 1.074.014.357.023.731-.072 1.079-.207.722-.806 1.277-1.428 1.652-.576.347-1.266.487-1.937.487-.103 0-.203 0-.302-.009a7.704 7.704 0 0 1-1.031-.113 2.712 2.712 0 0 1-1.122-.501c.018.014.036.027.05.041l-.054-.041c-.009-.009-.018-.013-.027-.022l-.325-.258.014.014a6.002 6.002 0 0 1-.604-.555c-1.437 6.116 3.027 12.791 10.392 12.796h.122l.004-.005Z"/><path fill="#E2FFB4" d="M5.793 120.059c1.648-2.342 3.847-4.048 6.094-5.764 3.203-2.771 7.172-4.545 11.334-5.172 5.923-1.079 11.892-1.011 17.865-.664 2.982-.018 5.9.131 8.828.33.036 0 .072.009.109.009 1.306.09 2.612.19 3.932.298 1.649.149 3.302.266 4.955.411.315.072.635.112.955.085 2.094.199 4.18.452 6.243.871-2.207-.049-4.315-.176-6.504-.018-3.014.073-5.95.876-8.865 1.603-7.42 1.895-14.69 4.418-21.667 7.587-6.495 2.654-11.63 7.664-17.833 10.846l.027-.014a.03.03 0 0 0 .018-.009c-.798.434-1.581.835-2.388 1.251-2.518 1.277-5.157 2.301-7.702 3.516-.19-2.14.41-4.212.856-6.274.585-3.209 1.73-6.292 3.743-8.892Zm14.162 2.672a.568.568 0 0 0 .532-.596c-.014-.37-.352-.541-.68-.555-.374-.162-.892-.239-1.06.239-.21.696.695.894 1.208.912Zm-12.73 6.513c.13.289.473.393.748.271 3.509-1.187 6.504-3.457 9.766-5.127.712-.623-.149-1.431-.879-.79-2.315 1.151-4.432 2.645-6.738 3.796-.83.464-1.748.74-2.626 1.096-.28.122-.397.479-.27.75v.004Z"/><path fill="#E2FFB4" d="M48.91 129.285c1.626-1.58 3.554-2.799 5.23-4.32 3.653-3.033 7.41-6.269 12.153-7.339a.632.632 0 0 0 .175-.045c.91-.343 1.77-.79 2.608-1.282a.591.591 0 0 0 .163-.094c.27-.163.54-.33.806-.497.928-.56 1.86-1.286 2.27-2.324.442-1.494.739-3.246.09-4.722a12.208 12.208 0 0 0-2.446-3.859c-.202-.37-.5-.803-.865-.844a13.461 13.461 0 0 0-2.193-1.588 12.18 12.18 0 0 0-.523-.352.639.639 0 0 0-.374-.24 33.036 33.036 0 0 1-.707-.46c-2.076-1.372-4.018-2.93-5.883-4.572-2.315-2.009-4.23-4.423-6.387-6.594-1.117-1.106-2.284-2.18-3.207-3.462-5.996-8.59-10.424-18.713-10.563-29.315-.257-3.543.464-7.055 1.919-10.273 1.018-2.41 1.973-4.884 3.247-7.154.92-1.747 2.302-3.141 3.64-4.563 2.315-2.717 4.87-5.209 7.248-7.867 1.374-1.444 3.117-2.446 4.716-3.611 2.788-2.216 5.77-4.148 8.78-6.048 3.837-2.198 7.9-3.76 12.013-5.317 6.419-2.054 13.261-2.338 19.892-2.7 5.761-.46 11.567-.482 17.324 0 3.428.14 6.91.43 10.23 1.233 4.396.785 8.513 2.604 12.693 4.116 4.631 2.013 9.343 3.882 13.595 6.649l.405.257c.045.05.095.104.167.149l.581.325c.144.09.284.176.428.262 4.96 3.376 10.176 8.494 9.288 14.948l-.054.262c-18.946 41.028-23.387 88.248-15.621 132.629a.795.795 0 0 0 .022.42c.059.276.126.551.198.822.185 1.024.374 2.049.572 3.073a214.252 214.252 0 0 0 5.455 21.557c-.211 2.586-.955 5.087-2.815 7.027-1.437 1.589-3.243 2.799-5.031 3.896-2.708 1.232-5.446 2.383-8.257 3.362-2.415.975-4.933 1.643-7.433 2.329-3.072 1.047-6.148 2.049-9.306 2.762-6.306 1.616-12.536 3.381-19.013 4.04-8.437.993-16.978.88-25.365-.447-5.717-.722-11.289-2.221-16.559-4.559-5.045-2.152-9.266-5.529-13.14-9.333-5.333-5.123-9.815-11.171-13.094-17.788-2.896-5.642-3.532-12.065-4.207-18.289-.379-2.798-.14-5.597.351-8.363.036-.289.077-.569.117-.849.005-.018.023-.036.027-.054.014-.158.032-.312.045-.47.23-1.543.532-3.033.978-4.554.95-3.367 1.833-6.725 3.477-9.816a60.18 60.18 0 0 1 7.626-11.659c1.338-1.665 3.059-2.925 4.51-4.482l.004-.013Zm.572-48.805a78.374 78.374 0 0 1-2.356-3.61c-.13-.249-.284-.497-.275-.786a.566.566 0 0 0-.59-.532c-.635.045-.594.798-.414 1.245.432 1.025 1.135 1.896 1.707 2.844.581.907 1.194 1.805 1.883 2.636a.572.572 0 0 0 .793.072c.63-.646-.482-1.305-.748-1.864v-.005Zm2.37 2.717c-.307 0-.546.298-.532.596.018.316.283.533.594.533s.545-.298.532-.596c-.018-.316-.284-.533-.595-.533ZM69.59 20.56c-.64-.072-1.243.438-1.824.677-1.496.74-3.09 1.553-4.388 2.577-.766 0-.738 1.16.023 1.129.31.013.58-.15.806-.348 1.671-1.228 3.563-2.148 5.446-3.001.446-.195.392-.903-.068-1.039l.005.005Zm73.658 116.697c.306 0 .549-.294.54-.587a.573.573 0 0 0-.585-.542c-.307 0-.55.294-.541.587a.574.574 0 0 0 .586.542Zm-.108-3.62c.324-.059.495-.361.455-.673-.041-1.354.054-2.627.027-3.972.036-1.232.184-2.473.18-3.705.076-.65-.081-1.381.144-1.982a.565.565 0 0 0-.149-.781c-.775-.428-1.144.677-1.076 1.282-.041 1.133-.041 2.253-.126 3.376-.131 1.251-.1 2.505-.113 3.756.085.708-.482 2.798.653 2.699h.005Zm-44.892-12.832a.57.57 0 0 0-.554.573.57.57 0 0 0 .572.555.57.57 0 0 0 .554-.573.57.57 0 0 0-.572-.555Zm16.207-27.763c-1.676-.988-3.424-2.017-5.347-2.4-.572.08-.604.839-.171 1.055h-.009.009c.022.01.04.014.063.023h-.009a.414.414 0 0 0 .072.022c1.207.416 2.414.853 3.518 1.517.631.208 1.532 1.35 2.095.555a.57.57 0 0 0-.221-.767v-.005Zm3.342 2.61a.57.57 0 0 0-.554.572.57.57 0 0 0 .572.555c.307 0 .559-.27.554-.573a.569.569 0 0 0-.572-.555Zm1.685 7.929c-1.572-4.32-5.712-6.833-9.766-8.476-1.937-.754-3.865-1.598-5.95-1.828-.852-.14-3.653-.984-3.838.244-.243.185-.28.51-.13.767 0 0 0-.005-.01-.009.883 1.85 1.662 3.755 3.072 5.28a24.852 24.852 0 0 0 7.352 5.142c3.153.817 6.292 2.08 9.594 1.936.924-.339-.153-2.379-.338-3.047l.014-.009Zm20.252-83.843c.306 0 .554-.288.541-.586a.574.574 0 0 0-.586-.542c-.306 0-.554.289-.54.587a.572.572 0 0 0 .585.541Zm-7.959-3.804c1.419.474 2.833 1.038 4.216 1.602.414.185 1 .564 1.302.009.284-.569-.361-.853-.789-1.011-1.229-.533-2.504-.97-3.747-1.472-1.194-.437-2.496-.618-3.667-1.078-.216-.217-.59-.194-.797.027-.942 1.282 2.752 1.562 3.482 1.927v-.004Zm-8.086 196.26a.573.573 0 0 0 .577-.55c.004-.303-.244-.578-.55-.578a.572.572 0 0 0-.576.55c-.005.303.243.578.549.578Zm-12.991 3.999c3.185-.388 6.279-1.223 9.338-2.153a.574.574 0 0 0 .405-.686c-.072-.289-.392-.496-.684-.406-1.027.311-2.059.627-3.095.894-1.622.433-3.275.771-4.905 1.083-.505.162-1.162-.027-1.563.356-.316.361.031.998.504.912Zm-14.743-85.978c.121.524.739.443 1.153.483 1.063.095 2.13.113 3.198.082 5.568.013 11.298-2.235 15.014-6.432.572-.79 2.567-3.051 2.009-3.949-.298-.393-.847-.366-1.289-.407-1.108-.076-2.216-.126-3.324-.049-5.612.487-11.396 2.645-15.342 6.752-.667.781-1.194 1.674-1.644 2.595-.284.28-.154.808.225.925Zm-3.897-1.421a.568.568 0 0 0 .793.081c.604-.578.906-1.535 1.347-2.185.73-1.056 1.626-1.873 2.54-2.739.56-.474-.135-1.341-.707-.88-1.5 1.322-2.85 2.812-3.689 4.648-.225.321-.612.678-.284 1.075ZM72.96 19.778c-.018-.32-.288-.532-.594-.532s-.545.302-.532.595c.018.32.289.533.595.533s.545-.302.531-.596ZM40.1 186.511a31.83 31.83 0 0 1-1.27-2.721c-1.518-3.643-2.496-7.515-2.662-11.465.013-.307-.284-.559-.577-.55-.923.135-.45 1.385-.455 2.017.171 1.743.5 3.471.874 5.182.55 2.27 1.441 4.446 2.365 6.585.387.555.752 2.397 1.64 1.914.36-.221.292-.659.085-.962Zm2.203 3.458a.567.567 0 0 0-.55.577c.01.312.27.551.577.551a.567.567 0 0 0 .55-.578.573.573 0 0 0-.577-.55Z"/><path fill="#A4D357" d="M46.842 120.465c1.261-3.277 3.401-6.459 6.694-7.912a.723.723 0 0 0 .284-.104 43.49 43.49 0 0 1 2.977-.582c.04.009.077.023.122.023 1.315-.14 2.644-.262 3.973-.249 1.856.091 3.878-.049 5.64.569.707.266 1.54.497 1.986 1.147.365.622.446 1.385 0 1.958-.324.176-.644.343-.942.51-.54.334-1.013.524-1.558.727-.302.027-.644.167-.906.221-.954.285-1.878.668-2.792 1.061-3.54 1.584-6.437 4.288-9.42 6.716-1.986 1.661-4.139 3.119-5.891 5.051a49.169 49.169 0 0 0-2.496 2.365c-.274-.045-.58-.045-.711-.33-.063-.198-.036-.411-.135-.6a46.987 46.987 0 0 0 2.815-9.244c.167-.415.171-.916.351-1.322l.01-.005Zm12.577-3.561c.09-.758-1.311-.966-1.396-.18-.09.758 1.31.966 1.396.18Zm-6.018 5.064c.608-.419 1.022-1.128 1.599-1.588.599-.547 1.216-1.066 1.878-1.54.248-.176.266-.564.086-.794-.203-.248-.545-.262-.793-.081a20.054 20.054 0 0 0-2.617 2.257c-.27.257-.46.604-.788.785-.527.429.05 1.246.64.961H53.4Z"/><path fill="#000" d="M226.392 125.344c-1.712-.361-3.167-1.525-4.608-2.473-1.784-1.48-3.153-3.408-4.356-5.376-1.036-1.498-1.725-3.2-2.216-4.955-2-7.24-.798-10.575 4.666-15.586 2.6-2.405 5.906-4.016 9.325-4.883 1.73-.474 3.527-.975 5.338-.898 1.036.252 2.108.406 3.117.767 1.405.537 2.671 1.363 3.964 2.135 1.491.975 3.063 2 4.112 3.47.635 1.025 1.334 2.014 1.906 3.07 1.238 2.717 2.531 5.547 2.437 8.594-.095 1.814-.514 3.592-1.131 5.299-.581 1.805-1.279 3.61-2.464 5.109-1.27 1.683-2.725 3.308-4.554 4.4-2.901 1.364-6.176 2.302-9.392 2.524-2.122.09-4.14-.623-6.144-1.192v-.005Zm22.5-15.485c.329-4.351-1.991-8.59-4.378-12.083-1.595-1.702-3.654-2.898-5.667-4.03-.676-.384-1.315-.7-2.104-.912a.544.544 0 0 1-.437.04c-.761-.275-1.527-.505-2.346-.465-3.244.113-6.397 1.147-9.293 2.605-3.289 1.503-8.307 6.255-9.05 9.88-.473 2.451.077 4.996.689 7.384.978 3.502 3.099 6.59 5.59 9.203 1.145.997 2.478 1.783 3.816 2.491 1.779.501 3.599 1.156 5.486 1.391 3.338.257 6.613-.903 9.703-2.072 4.793-2.645 7.32-8.165 7.995-13.428l-.004-.004Z"/><path fill="#000" d="M222.324 106.248c.185.203.388.383.604.555-.005 0-.009-.009-.014-.014l.325.258c.009.009.018.013.027.022l.054.041-.05-.041c.343.253.703.415 1.122.501a7.1 7.1 0 0 0 1.031.113c.1.009.203.009.302.009.671 0 1.361-.14 1.937-.487.626-.375 1.221-.93 1.428-1.652.099-.348.09-.722.072-1.079a6.558 6.558 0 0 0-.135-1.074 3.982 3.982 0 0 0-.432-1.165c-.203-.352-.509-.623-.829-.862.009.005.018.014.027.018-.014-.009-.023-.018-.036-.022l-.014-.009a4.23 4.23 0 0 0-1.085-.56 3.633 3.633 0 0 0-.388-.104 3.795 3.795 0 0 0-.306-.153l-.05-.023a11.967 11.967 0 0 1 6.23-2.807c3.374-.104 6.027 2.69 7.838 5.294 1.194 2.04 1.937 4.45 1.955 6.825-.315 4.725-4.243 9.103-9.095 9.207h-.121c-7.365 0-11.834-6.68-10.392-12.796l-.005.005Z"/><path fill="#000" d="M227.743 101.364s.009.005.009.01c0 0 .005 0 .009.004-.004 0-.014-.009-.018-.014ZM212.45 140.776a34.636 34.636 0 0 0-1.103-1.607c-.302-.411-.608-.821-.915-1.232a.583.583 0 0 1-.202-.063c-1.703-1.07-3.802-1.318-5.784-1.142-1.802.226-3.432 1.214-4.811 2.356a.57.57 0 0 1-.459.465h-.072c-.5.808-.973 1.598-1.437 2.306-1.126 2.176-2.883 4.035-4.82 5.52-1.568 1.038-3.401 1.585-5.243 1.869-4.122.627-6.581-.257-9.469-3.245-1.027-.966-2.027-2.009-2.608-3.313-.216-.483-.347-.998-.446-1.517-1.216.637-2.522 1.056-3.923 1.002-5.009.181-9.023-1.99-10.843-6.797-.869-1.878-1.283-3.873-1.072-5.94-.306-3.2.798-6.481 2.942-8.873-2.676-1.219-4.87-3.232-5.951-6.369-1-2.225-1.112-4.744-1.054-7.149-.076-2.036.613-3.941 1.721-5.629.703-.97 1.455-1.931 2.311-2.767.959-.744 2.04-1.376 3.198-1.75.329-.068.658-.123.986-.172-.058-.361-.085-.74-.162-.984-.365-1.82-.027-3.665.671-5.362 1.582-4.929 6.825-8.17 11.91-7.88a9.311 9.311 0 0 1 2.113.45c.068-1.065.712-2.437 1.031-3.091 1.154-2.09 3.154-3.742 5.284-4.77 1.924-.863 4.153-.79 6.216-.642 2.379.483 4.293 2.198 6.014 3.819.649.609 1.203 1.3 1.73 2.013.103.05.193.135.252.239.185.198.405.365.617.537 2.18 1.715 5.96 1.052 8.311-.154.712-.36 1.41-.744 2.149-1.056a1.13 1.13 0 0 1 .333-.14c1.036-.835 2.802-2.279 3.149-.988a.569.569 0 0 1-.509.614c-1.149.442-2.064 1.399-3.073 2.144-1.306 1.06-2.585 2.175-3.581 3.543-3.018 4.193-4.756 8.923-5.5 13.852 0 .013 0 .027-.004.04-1.392 9.298.748 19.3 4.549 27.754 1.509 3.399 3.397 6.675 5.699 9.609.995 1.323 1.982 2.654 2.883 4.044a.57.57 0 0 1-.136.786c-.333.248-.747.022-.905-.316l.013-.014Zm-36.463-57.132c-3.658-.33-7.302 1.467-9.595 4.288-1.149 1.783-2.05 3.909-2.18 6.057.013.876.148 1.747.338 2.6 2.27-.19 4.572.009 6.824.32 4.135.75 8.144 2.009 12.058 3.521a46.57 46.57 0 0 0 4.568 1.652c.032 0 .059.004.09.009 4.113.311 8.225-1.598 10.662-4.956.316-.41.622-.826.901-1.26a.832.832 0 0 1 .176-.198c0-.009 0-.018.004-.027-.545.27-1.707-.077-2.225-.063-.698-.068-1.513-.289-2.203-.488-1.815-.383-3.396-1.354-5.058-2.135-1.64-.708-2.955-1.95-4.351-3.037-.721-.546-1.473-1.056-2.154-1.666-2.198-2.094-4.77-4.174-7.86-4.626l.005.01Zm27.256 3.123c.018-.045.041-.08.063-.117-.585-.275-1.189-.537-1.729-.898-1.987-1.273-3.145-3.394-4.577-5.204-.887-1.165-1.964-2.148-3.099-3.074-2.554-2.135-4.383-2.193-7.568-1.86-2.5.465-4.639 2.27-6.108 4.284-.576 1.06-1.175 2.225-1.148 3.466.009.014.009.032.013.045 2.36 1.106 4.388 2.997 6.329 4.708 1.234.876 2.378 1.878 3.608 2.749 1.189.47 2.446.745 3.721.84 3.937-.019 8.522-1.197 10.486-4.939h.009Zm-4.455 18.036c-1.347.452-4.666-.085-5.419-.27a41.902 41.902 0 0 1-5.716-1.372 4.496 4.496 0 0 1-.968-.28c-.027-.014-.041-.036-.063-.05a61.291 61.291 0 0 1-3.915-1.471c-3.91-1.485-7.91-2.745-12.045-3.422-2.414-.234-4.518-.456-6.392-.22a.41.41 0 0 1-.13.022h-.036c-2.523.352-4.631 1.562-6.523 4.721-1.149 1.724-1.351 3.746-1.302 5.768-.009 3.43 1.041 6.965 3.487 9.465 3.545 3.141 8.752 3.561 13.284 3.168 1.63-.302 3.265-.618 4.878-1.002 2.18-.613 4.234-1.62 6.437-2.166 2.248-.731 4.626-1.151 6.991-1.386 2.82-.456 5.775-1.236 8.662-.735-.793-3.557-1.234-7.181-1.234-10.77h.004Zm2.325 16.976c-.32-.249-.536-.587-.87-.813-.626-.573-1.392-.966-2.027-1.539a14.387 14.387 0 0 0-5.446-1.48c-2.076-.081-4.103-.059-6.166.356-.045 0-.086-.013-.126-.022-2.28.591-4.523 1.345-6.739 2.189-2.27.767-4.653 1.214-7.018 1.571-3.104.252-6.496.027-9.442-1.039a1.052 1.052 0 0 1-.135.167c-1.342 1.382-2.085 3.16-2.608 4.992-.315 1.102-.176 2.262-.171 3.408-.252 2.067.351 4.013 1.198 5.881 1.933 4.581 6.167 6.03 10.847 5.502 1.293-.158 2.369-.948 3.5-1.539 3.225-1.589 6.049-3.809 8.45-6.513 3.685-4.107 7.982-7.786 13.14-9.889.459-.176 2.329-.961 3.64-1.178l-.032-.045.005-.009Zm1.283 7.257c-1.157-.902-2.536-1.471-3.977-1.728-2.523-.393-5.135.063-7.509.997a.557.557 0 0 1-.149.027c-.274.221-.549.447-.815.677-2.392 1.91-4.32 4.315-6.496 6.455-2.13 2.103-4.644 3.759-7.301 5.109.063.361.067.772.193 1.052.32 1.11 1.063 2.031 1.847 2.857 1.437 1.313 2.784 2.933 4.716 3.502 4.14.921 8.879-.28 11.6-3.66 1.319-1.205 2.04-2.857 2.982-4.342 1.518-2.438 3.054-4.861 5.148-6.847.419-.384 1.888-1.594 2.897-1.824-1.226-.474-2.167-1.417-3.136-2.275Z"/><path fill="#000" d="M2.306 123.823c.92-2.121 2.199-4.084 3.703-5.831 1.324-1.693 3.144-2.974 4.824-4.297 1.748-1.498 3.685-2.74 5.73-3.782.91-.424 1.843-.763 2.797-1.047-1.265-.569-2.648-1.467-3.045-1.697-5.779-4.108-10.378-9.989-13.018-16.578-.774-1.95-.986-4.035-.919-6.116.127-1.016-.036-3.832 1.158-4.135.374-.05.69.185.973.393.919.718 1.725 1.535 2.662 2.234 1.266 1.106 2.721 1.946 4.068 2.943a23.318 23.318 0 0 0 4.306 2.654c2.108 1.007 4.347 1.589 6.644 2.067 4.068 1.088 8.23 1.783 12.244 3.065 4.788 1.647 9.477 3.642 13.81 6.278.023.014.04.027.063.036a26.053 26.053 0 0 0-.117-1.963c-.18-2.5-.63-4.988-1.432-7.366-.996-3.263-2.023-6.527-3.347-9.673-1.856-4.554-3.464-9.207-4.239-14.1-.036-.365-.234-.884-.09-1.218-.977-4.505-1.293-9.131-.635-13.708.847-3.994 2.676-7.713 4.374-11.401.923-1.986 2.315-3.846 3.887-5.394 2.086-2.37 4.248-4.662 6.424-6.946 2.234-2.88 5.513-4.563 8.302-6.82.419-.307.837-.614 1.26-.912a.595.595 0 0 1 .258-.248c.49-.275.946-.618 1.392-.952a69.172 69.172 0 0 1 9.82-6.188c9.734-5.15 20.265-8.752 31.04-10.99C110.892.87 116.73.55 122.523.107c16.198-.622 29.716 1.332 43.455 10.58 1.955 1.449 3.964 2.825 5.842 4.37.09.049.171.117.239.198a30.537 30.537 0 0 1 2.315 2.126c.108.126.225.248.351.37.572.392 1.14.79 1.604 1.34.09.14.135.271.14.388.009.018.022.037.031.059.176.817.252 1.553.428 2.415.559 4.892.739 9.794.964 14.718.113 1.734.095 3.476.104 5.213 0 .42-.014.84-.054 1.255-.014.104-.018.221-.032.339 2.869.726 5.712 1.575 8.532 2.473 14.923 4.77 28.95 12.29 41.662 21.43 4.567 3.263 8.928 6.82 13.279 10.363 4.838 4.51 9.518 9.203 13.919 14.145 5.428 5.457 9.423 12.088 12.968 18.876 1.172 2.428 2.356 4.847 3.338 7.361.32.912 1.406 2.821 1.095 3.954.653.452.144 1.232-.676 1.142-.617 0-1.23-.036-1.838-.104-.144.289-.32.56-.482.835-.932 1.986-2.288 3.67-3.842 5.2-.378.356-.752.718-1.126 1.079a.505.505 0 0 1-.086.081c-1.522 1.467-3.022 2.961-4.531 4.441-2.095 2.054-4.442 3.792-6.766 5.561-3.347 2.934-6.703 5.881-10.221 8.621-.094.103-.22.194-.36.279-.032.023-.059.046-.09.068a.532.532 0 0 1-.297.257 3.7 3.7 0 0 0-.109.055 96.156 96.156 0 0 1-2.058 1.53c-2.793 2.121-5.572 4.278-8.55 6.143-3.09 1.913-6.18 3.615-9.18 5.705-6.45 4.229-13.022 8.295-19.995 11.613-6.41 3.191-12.964 6.093-19.838 8.124-4.874 1.611-9.793 3.11-14.793 4.27.171 6.851-.514 13.771-2.279 20.405-.298 2.311-.915 4.595-1.717 6.766-.144.429-.31.619-.5.673-.031.022-.054.049-.09.063a.538.538 0 0 1-.441-.009c-.167.09-.374.135-.563.14-2.743.93-5.306 2.442-8.054 3.439-13.604 5.786-28.527 6.955-43.14 7.488-7.896.248-15.82-.42-23.635-1.593-6.72-1.174-13.482-2.686-19.77-5.385-3.059-1.322-6.19-2.636-8.991-4.441a.46.46 0 0 1-.13-.149l-.622-.339c-10.437-6.346-20.595-18.564-24.78-30.064-1.175-3.674-1.675-7.538-2.184-11.356-.24-2.523-.65-5.06-.473-7.601.189-1.792.41-3.588.707-5.371.09-1.259.437-2.514.68-3.76a36.12 36.12 0 0 0 .604-3.349c.315-1.327.824-2.608 1.369-3.859a.253.253 0 0 0 .023-.063c.018-.05.031-.099.05-.144.94-3.322 2.729-6.355 4.274-9.429 2.689-4.577 5.23-9.28 6.482-14.484.212-.898.423-1.819.612-2.753a.502.502 0 0 1 .064-.316c.459-2.302.765-4.667.558-6.951-4 1.196-7.937 2.604-11.82 4.121-2.838 1.255-5.73 2.392-8.45 3.886-3.78 2.234-7.176 4.902-10.906 7.244-4.234 2.555-8.797 4.541-13.32 6.536-2.391.763-1.112-4.595-.873-5.836.518-2.243.9-4.532 1.756-6.68v.013Zm45.289-22.928c-4.266-2.582-8.87-4.54-13.581-6.156-5.77-1.838-11.897-2.528-17.604-4.577a23.49 23.49 0 0 1-5.694-3.24c-2.414-1.626-4.702-3.35-6.883-5.29a17.388 17.388 0 0 0-.031 6.788c.473 1.873 1.306 3.615 2.185 5.33a41.54 41.54 0 0 0 4 5.917c.094.054.18.14.234.271 2.027 1.751 4.31 3.2 6.712 4.387 2.621 1.147 5.468 1.679 8.292 2.067 2.388.203 4.77.416 7.154.641a.59.59 0 0 1 .306.077c4.018-.032 8.027.248 12.08.257 1.762.077 3.528.185 5.29.303.279-.023.585-.05.887-.1.396-.14.707-.469.919-.821.274-.424.22-.957.333-1.435-.194-.926-.91-1.634-1.563-2.271-.122-.176-.275-.32-.42-.474a66.364 66.364 0 0 0-2.612-1.67l-.004-.004Zm.486-9.7a.617.617 0 0 1 .13.249c1.672 4.134 3.168 8.562 5.965 12.132.238.28.477.564.73.83 2.824 1.864 5.747 3.521 9.135 4.202.365.086.72.158 1.08.226 1.312.163 2.857.429 3.487-.198.635-.47 1.077-1.305.996-2.104-.126-.388-.37-.708-.554-1.069a12.642 12.642 0 0 0-1.92-1.607c-.296-.068-.517-.298-.756-.497-.18-.113-.36-.225-.55-.329a.959.959 0 0 1-.292-.221c-2.284-1.485-4.482-3.106-6.514-4.92-1.9-1.584-3.504-3.466-5.198-5.263-1.324-1.512-2.87-2.82-4.176-4.35a53.136 53.136 0 0 1-2.37-3.368.5.5 0 0 1-.436-.284c-.257-.095-.739-.248-.81.122.742 2.13 1.463 4.278 2.053 6.458v-.009ZM172.69 18.122c-.437-.736-1.027-1.368-1.468-2.104a55.754 55.754 0 0 0-4.018-3.028c-4.041-3.038-8.527-5.538-13.216-7.425-8.248-3.304-17.127-4.522-25.982-4.396-4.127-.081-8.239.19-12.343.632-7.437.478-14.802 2.248-21.91 4.482A96.458 96.458 0 0 0 85.74 9.04a.552.552 0 0 1-.257.383c.045.32.428.348.595.569.022.027.04.054.054.086 4.797-.88 9.739-1.088 14.59-1.363 5.919-.488 11.842-.452 17.761.022 3.347.131 6.644.434 9.919 1.21 4.279.717 8.257 2.505 12.329 3.927 4.004 1.746 8.108 3.299 11.892 5.497.968.56 1.923 1.142 2.878 1.729a.532.532 0 0 1 .306.122c.235.162.469.329.703.496 1.406.794 2.82 1.584 4.234 2.365 1.032.65 2.104 1.228 3.284 1.566 2.261.546 4.87.736 6.87-.663.351-.212.653-.47.923-.75a.584.584 0 0 1 .144-.153c1.378-1.58 1.617-4.017.725-5.958v-.004Zm35.203 38.581c-.104-.316-.477-.582-.712-.866-5.905-3.043-12.009-5.701-18.283-7.904-5.257-1.746-10.523-3.322-15.96-4.432a14.158 14.158 0 0 0-3.333.623c-4.361 1.986-7.045 6.364-9.131 10.526-.991 2.058-1.815 4.242-2.761 6.328-.176.302-.234.88-.455 1.268a207.522 207.522 0 0 0-2.397 8.214c.041.122.059.258.055.384.229 2.13 1.459 4.247 3.265 5.452.757.533 1.653.984 2.505 1.386.013.009.022.022.036.036.748.284 1.509.528 2.311.627 2.365.113 4.545-1.363 5.765-3.33 1.604-2.632 1.37-5.868 2.154-8.761.855-2.83 2.054-5.836 4.4-7.745 2.46-1.833 5.721-2.388 8.685-1.616 2.811.785 5.059 2.906 7.37 4.608 2.563 1.815 5.369 3.403 8.436 4.139 2.667.659 5.009.081 6.834-1.426.91-.94 1.549-2.244 1.847-3.516.22-1.336 0-2.79-.631-3.995Zm58.275 69.675c.009.032.018.063.022.095.014-.023.027-.05.041-.077-.032-.049-.063-.095-.09-.144l.027.122v.004Zm-27.761 23.303c1.202-.234 2.283-.528 3.337-1.209.163-.082.343-.208.532-.307a236.904 236.904 0 0 0 9.518-7.958c.982-.947 2.085-1.751 3.203-2.532 1.563-1.155 3-2.487 4.423-3.809 1.496-1.435 2.928-2.938 4.441-4.356.154-.315.289-.636.392-.974l.009-.028c.663-2.161-.675-3.922-2.504-4.937-1.167-.826-2.568-1.079-3.973-1.097-.095 0-.18-.018-.257-.036-.049.009-.094.013-.144.022-.302.055-.604-.099-.685-.41-.072-.28.108-.623.401-.682.135-.18.374-.266.685-.113 1.594-.234 3.198-.262 4.806-.37 1.928-.022 3.793.438 5.671.799l.645.068c.162.018.306.058.423.122.707.112 1.419.198 2.14.221a.54.54 0 0 1 .157-.316c-.338-2.176-1.54-4.135-2.306-6.188-2.221-4.979-4.969-9.677-7.815-14.317-3.347-4.915-7.514-9.221-11.595-13.55-2.662-2.82-5.495-5.474-8.239-8.21a225.11 225.11 0 0 0-14.509-11.423 163.41 163.41 0 0 0-13.401-8.662c-.306.063-.644.01-.946.109-2.108.64-3.031 2.717-4.211 4.387-3.834 4.68-9.879 3.286-14.478.627-3.711-1.8-6.401-5.272-10.378-6.567-4.054-1.065-8.397.659-10.14 4.586-.959 1.828-1.657 3.805-1.955 5.85-.378 2.752-.657 5.731-2.455 7.98-1.428 1.859-3.711 3.15-6.085 3.082-2.271-.163-4.176-1.48-6.356-2.04-1.469-.375-2.081.018-2.964 1.214-.707 1.11-1.333 2.302-1.743 3.552-5.235 24.883-6.113 50.732-3.009 75.98.157.118.279.303.387.452 2.806 3.895 6.991 6.747 11.622 8.052 2.928.817 6.365 1.354 9.027-.474 2.045-1.327 3.689-3.236 5.928-4.27 7.108-3.543 15.081-1.277 22.599-.88 3.455.122 7.441.013 10.036-2.6 1.72-1.882 3.27-3.931 5.266-5.542 2.972-2.533 6.635-4.451 10.54-4.925 2.82-.261 5.608.438 8.369.917 1.582.356 2.978.826 4.428.902.365-.117.789-.058 1.167-.131l-.004-.009Zm-73.302 36.74h.018c5.941-1.2 11.729-2.979 17.491-4.874 3.581-1.151 7.166-2.325 10.608-3.855 6.757-3.074 13.495-6.233 19.847-10.097 6.067-3.651 11.892-7.754 18.04-11.301a152.073 152.073 0 0 0 3.559-2.442c.081-.127.184-.244.266-.352.5-.759.135-1.688-.23-2.415-.18-.366-.658-.492-.919-.763-2.243-.492-4.482-1.024-6.779-1.209-3.554-.37-7.077 1.042-10.05 2.902-1.919 1.286-3.649 2.839-5.185 4.563-1.094 1.259-2.094 2.631-3.441 3.638-7.514 4.775-18.788-.632-27.514 1.304-7.441 1.133-8.603 7.082-15.009 7.046-3.527-.081-6.964-1.124-10.022-2.853a.556.556 0 0 1-.297-.149c-.609-.343-1.239-.582-1.96-.582-1.5.023-2.919 1.228-3.13 2.717.207 1.255.418 2.51.644 3.76.581 2.144 1.324 4.27 2.306 6.287 2.207 4.419 6.221 9.524 11.752 8.68l.005-.005Zm-8.667 29.871s-.022 0-.031-.009l-.041.04.072-.031Zm-77.667 5.104c7.762 1.928 15.753 2.939 23.739 3.381 5.59.18 11.239.063 16.833-.411 8.284-.356 16.537-1.494 24.582-3.529 3.162-.853 6.234-1.968 9.261-3.191.248-.24.626-.434.815-.682 1.739-1.368 3.099-3.245 4.234-5.168.708-1.602.973-3.547.424-5.231-.473-.722-1.189-1.201-2.014-1.444-.193-.073-.45-.091-.689-.131a305.242 305.242 0 0 1-7.243 3.439 15.6 15.6 0 0 1-.496.266.658.658 0 0 1-.216.054c-.914.416-1.829.826-2.748 1.228-4.225 1.783-8.581 3.223-13.004 4.419-3.761 1.408-7.658 2.324-11.545 3.295-8.644 2.482-17.649 3.972-26.662 4.021-4.933.19-9.847-.325-14.73-1.006-.239.162-.536.284-.559.605l.014.09.004-.005Zm-41.986-75.971c-1.64 3.092-2.527 6.45-3.478 9.817-.445 1.516-.747 3.01-.977 4.554a7.923 7.923 0 0 0-.045.469c0 .023-.018.037-.027.055-.04.284-.081.564-.117.848-.491 2.767-.73 5.57-.352 8.364.672 6.219 1.311 12.642 4.208 18.288 3.279 6.613 7.76 12.665 13.094 17.788 3.879 3.805 8.095 7.181 13.14 9.334 5.27 2.338 10.842 3.837 16.558 4.559 8.388 1.331 16.928 1.444 25.365.446 6.478-.654 12.712-2.419 19.014-4.039 3.153-.709 6.23-1.711 9.306-2.762 2.5-.686 5.018-1.354 7.433-2.329 2.81-.975 5.554-2.126 8.256-3.363 1.789-1.097 3.595-2.302 5.032-3.895 1.86-1.936 2.603-4.441 2.815-7.028a213.354 213.354 0 0 1-5.455-21.556 254.989 254.989 0 0 1-.572-3.074 12.9 12.9 0 0 1-.198-.821c-.036-.145-.059-.285-.023-.42-7.765-44.386-3.324-91.601 15.622-132.63.018-.085.032-.17.054-.26.883-6.455-4.329-11.574-9.288-14.95-.144-.085-.289-.176-.428-.261l-.581-.325a.896.896 0 0 1-.167-.15c-.135-.085-.27-.17-.405-.257-4.248-2.77-8.964-4.635-13.595-6.648-4.18-1.512-8.297-3.331-12.694-4.116-3.319-.804-6.806-1.093-10.229-1.233-5.757-.478-11.563-.46-17.325 0-6.635.366-13.473.646-19.891 2.7-4.113 1.557-8.18 3.118-12.014 5.316-3.01 1.9-5.991 3.828-8.78 6.049-1.598 1.164-3.337 2.162-4.715 3.61-2.379 2.659-4.933 5.15-7.248 7.867-1.334 1.418-2.721 2.817-3.64 4.563-1.27 2.27-2.23 4.749-3.248 7.154-1.455 3.219-2.175 6.73-1.919 10.273.14 10.602 4.568 20.726 10.563 29.315.924 1.282 2.086 2.356 3.208 3.462 2.157 2.167 4.072 4.586 6.387 6.594 1.865 1.643 3.81 3.2 5.883 4.573.22.149.464.302.707.46a.655.655 0 0 1 .374.239c.176.113.351.235.523.352.783.461 1.522.989 2.193 1.589.365.041.662.474.865.844a12.299 12.299 0 0 1 2.446 3.859c.649 1.476.347 3.227-.09 4.721-.414 1.038-1.342 1.765-2.27 2.325a29.96 29.96 0 0 1-.807.496.505.505 0 0 1-.162.095c-.838.492-1.698.943-2.608 1.282a.518.518 0 0 1-.176.045c-4.747 1.07-8.5 4.301-12.153 7.339-1.68 1.521-3.608 2.74-5.23 4.319-1.45 1.557-3.17 2.817-4.508 4.482a60.177 60.177 0 0 0-7.627 11.659l-.004.013Zm6.9-14.398c.1.185.068.402.136.6.13.285.437.285.712.33a47.373 47.373 0 0 1 2.495-2.365c1.752-1.928 3.906-3.39 5.892-5.051 2.982-2.428 5.878-5.127 9.419-6.716.914-.388 1.838-.772 2.793-1.061.261-.054.603-.194.905-.221.545-.203 1.018-.388 1.559-.726.297-.167.617-.334.941-.511.442-.573.365-1.336 0-1.958-.45-.655-1.284-.881-1.986-1.147-1.762-.618-3.784-.478-5.64-.569-1.329-.013-2.658.109-3.973.249-.045 0-.081-.014-.122-.023-1 .154-1.99.357-2.977.582a.723.723 0 0 1-.284.104c-3.293 1.449-5.432 4.636-6.694 7.912-.18.411-.189.908-.35 1.323a46.904 46.904 0 0 1-2.816 9.244l-.01.004ZM1.204 135.22c2.545-1.219 5.185-2.239 7.703-3.516.806-.415 1.59-.817 2.387-1.25a.03.03 0 0 0-.018.009l-.027.013c6.203-3.182 11.338-8.187 17.833-10.846 6.978-3.168 14.248-5.687 21.667-7.587 2.91-.726 5.847-1.53 8.865-1.602 2.189-.158 4.297-.032 6.504.018-2.063-.42-4.148-.673-6.243-.871-.32.027-.64-.014-.955-.086-1.649-.144-3.306-.266-4.955-.411a745.17 745.17 0 0 0-3.932-.298c-.036 0-.072.001-.108-.009-2.928-.203-5.847-.347-8.83-.329-5.972-.348-11.94-.415-17.864.663-4.162.632-8.13 2.402-11.334 5.173-2.247 1.715-4.445 3.417-6.094 5.764-2.014 2.595-3.153 5.682-3.743 8.891-.446 2.063-1.045 4.135-.856 6.274Z"/><path fill="#000" d="M119.824 106.631c-3.306.149-6.446-1.114-9.594-1.936a24.803 24.803 0 0 1-7.352-5.14c-1.409-1.526-2.189-3.43-3.072-5.282 0 .005.005.01.01.01-.154-.258-.118-.583.13-.768.185-1.223 2.987-.383 3.838-.243 2.081.23 4.013 1.074 5.95 1.828 4.054 1.642 8.194 4.156 9.766 8.476.185.672 1.261 2.708.338 3.046l-.014.009ZM97.378 126.698c3.946-4.107 9.73-6.264 15.343-6.752 1.108-.077 2.216-.027 3.324.05.441.04.995.018 1.288.406.563.898-1.437 3.16-2.009 3.949-3.716 4.198-9.45 6.45-15.013 6.432a26.876 26.876 0 0 1-3.199-.081c-.418-.041-1.031.041-1.153-.483-.378-.117-.509-.645-.225-.925.45-.926.978-1.815 1.644-2.596ZM186.243 50.09c-1.076-.405-2.148-.839-3.247-1.186-.91-.235-1.798-.528-2.703-.795-.383-.072-.779-.397-.613-.83.104-.28.442-.447.726-.33.905.312 1.918.596 2.882.863 1.14.347 2.239.803 3.352 1.218a.569.569 0 0 1 .329.727.571.571 0 0 1-.726.33v.004ZM189 51.097a.574.574 0 0 1-.586-.541c-.013-.298.235-.587.541-.587.306 0 .572.226.585.542.014.297-.234.586-.54.586ZM173.032 118.087c-1.266.343-2.577.388-3.883.392-.973-.004-5.698-.311-4.973-1.895a.57.57 0 0 1 .788-.127c1.856 1.102 4.239.912 6.333.804h.009c.613.049 1.78-.695 2.099.122.091.284-.076.627-.373.704ZM176.23 116.9a.574.574 0 0 1-.586-.542c-.013-.298.234-.587.541-.587.306 0 .572.226.585.542.014.298-.234.587-.54.587ZM187.216 127.028c-.995.623-1.928 1.322-2.635 2.27-1.04 1.079-2.054 2.18-3.076 3.272-.573.461-1.271-.401-.712-.875 1.414-1.503 2.775-3.069 4.239-4.514.509-.401 1.058-.74 1.59-1.11.252-.176.621-.068.774.185.167.271.073.6-.184.776l.004-.004ZM188.212 124.83c-.275-.135-.37-.501-.23-.767.284-.51.838-.213 1.221 0 .274.131.369.505.225.762-.284.51-.838.217-1.216.005ZM187.509 145.56c-1.149.213-2.342.244-3.446-.194-.748-.325-3.617-1.11-2.676-2.288a.568.568 0 0 1 .793.081c.626.686 1.658.88 2.5 1.219 1.342.438 2.869.099 4.221-.325a.564.564 0 0 1 .743.28c.342 1.011-1.491 1.038-2.131 1.227h-.004ZM192.82 143.326a.574.574 0 0 1-.586-.541c-.013-.298.234-.587.541-.587.306 0 .572.225.585.541.014.298-.234.587-.54.587ZM179.964 89.327c-.459-.352-.932-.7-1.455-.948-1.013-.443-1.973-.713-3.063-1.007-.482-.171-1.374-.243-1.252-.957.076-.356.509-.56.829-.365 1.437.496 3.013.78 4.369 1.516.496.384 1.824.835 1.36 1.634a.567.567 0 0 1-.788.127ZM182.82 91.827a.573.573 0 0 1-.586-.541c-.013-.298.234-.587.541-.587.306 0 .572.225.585.541.014.298-.234.587-.54.587ZM191.189 79.681c-.207-.122-.491-.266-.748-.46-.59-.442.068-1.34.663-.912.973.56 1.864 1.246 2.549 2.149.392.456.779.916 1.185 1.358.207.226.144.61-.081.794-.248.2-.581.15-.793-.08-.937-.958-1.617-2.109-2.779-2.844l.004-.005ZM196.576 83.87c.307 0 .573.225.586.541.014.298-.234.587-.54.587a.573.573 0 0 1-.586-.541c-.014-.298.234-.587.54-.587ZM202.446 103.806a25.156 25.156 0 0 1 .081-3.033c.329-3.02 1.212-5.944 2.311-8.765.117-.271.279-.506.459-.736.473-.569 1.329.14.87.713-1.383 2.695-2.072 5.768-2.509 8.761-.086.97-.117 1.936-.095 2.907.041.315-.18.627-.504.654-.293.032-.609-.199-.618-.506l.005.005ZM203.617 106.6c.306 0 .554.284.541.587a.57.57 0 0 1-.586.541c-.311 0-.554-.284-.54-.587a.57.57 0 0 1 .585-.541ZM243.086 92.509c-.73-.447-1.419-.998-2.275-1.174-.743.077-.87-1.042-.131-1.12 1.428.087 2.658 1.111 3.761 1.946.397.483 1.609.858 1.104 1.625-.671.745-1.82-.952-2.464-1.268l.005-.01ZM247.248 95.014c.293-.781 1.369-.294 1.04.47-.292.78-1.374.288-1.04-.47ZM218.712 123.02c.711.79 1.639 1.336 2.419 2.049.801.704 1.752 1.232 2.711 1.684.82.298 1.671.492 2.5.758.293.09.464.411.37.704a.57.57 0 0 1-.708.37c-1.436-.406-2.905-.763-4.153-1.629-1.423-.894-2.738-2.018-3.968-3.164-.5-.542.315-1.305.82-.777l.009.005ZM229.577 127.958c.522.018.594.568.518.984-.036.735-1.149.695-1.127-.041-.013-.415.082-.961.609-.943ZM220.068 153.062c.86-.451 1.756-.835 2.657-1.196 1.658-.564 3.379-.844 5.131-.713.495.027 1.126.424.82.979-.262.424-.631.239-.996.135-2.486-.167-4.883.619-7.058 1.779a.568.568 0 0 1-.766-.217.57.57 0 0 1 .212-.767ZM217.91 155.228c.306 0 .559.267.554.573a.57.57 0 0 1-.572.556.567.567 0 0 1-.554-.574.57.57 0 0 1 .572-.555ZM169.23 162.865c.694-.257 1.329-.645 1.95-1.042 2.487-1.689 7.18-5.597 10.32-4.708.707.212.406 1.282-.302 1.088-1.369-.438-2.788.523-4.045 1.011-2.666 1.282-4.766 3.556-7.509 4.698a.57.57 0 0 1-.734-.316.566.566 0 0 1 .315-.731h.005ZM167.369 163.307c-.198.732-1.428.384-1.216-.338.198-.731 1.428-.388 1.216.338ZM171.293 181.637c1.094-.294 2.189-.573 3.266-.925.765-.131 2.932-1.716 3.283-.587a.575.575 0 0 1-.41.686c-1.928.727-3.842 1.471-5.869 1.923-.293.081-.608-.118-.685-.411a.574.574 0 0 1 .41-.686h.005ZM168.451 182.54c.306 0 .558.266.554.573a.57.57 0 0 1-.572.555.567.567 0 0 1-.555-.573.57.57 0 0 1 .573-.555ZM152.716 93.276a.572.572 0 0 1-.594.533c-.55-.037-.572-.623-.491-1.047.117-1.133.243-2.266.432-3.395.198-1.002.329-2.062.851-2.956a.573.573 0 0 1 .784-.149c.599.456-.135 1.097-.18 1.652-.432 1.742-.644 3.539-.802 5.362ZM152.05 96.174c.306 0 .545.307.527.595-.018.32-.289.533-.595.533s-.545-.307-.531-.596c.018-.32.288-.532.594-.532h.005ZM40.014 187.482c-.888.483-1.253-1.359-1.64-1.914-.919-2.139-1.815-4.319-2.365-6.585-.37-1.711-.703-3.439-.874-5.182.005-.632-.468-1.882.455-2.017.293-.009.586.244.577.55.166 3.95 1.144 7.822 2.662 11.465.378.93.81 1.832 1.27 2.721.207.303.275.741-.085.962ZM42.329 191.106a.573.573 0 0 1-.577-.55.567.567 0 0 1 .55-.578c.306 0 .567.239.576.55a.567.567 0 0 1-.55.578ZM111.761 214.928c1.631-.311 3.284-.65 4.906-1.083 1.036-.266 2.067-.582 3.094-.893.293-.091.613.117.685.406.081.307-.113.596-.405.686-3.059.93-6.153 1.765-9.338 2.153-.478.085-.82-.551-.505-.912.401-.384 1.059-.199 1.563-.357ZM123.721 211.069c.306 0 .554.276.549.578a.57.57 0 0 1-.576.551c-.311 0-.554-.276-.55-.578a.573.573 0 0 1 .577-.551ZM141.649 218.648c1.31-.267 2.617-.61 3.896-1.002 2.095-.596 3.842-1.856 5.667-3.029.351-.244.815-.84 1.27-.375.595.804-.734 1.296-1.243 1.693-.568.361-1.072.681-1.644 1.061-2.343 1.534-5.113 2.193-7.816 2.771-.73.077-.856-1.029-.13-1.119ZM154.221 211.345c.306 0 .554.275.549.577a.57.57 0 0 1-.576.551c-.311 0-.554-.275-.55-.578a.573.573 0 0 1 .577-.55ZM142.491 130.941c.014-1.25-.018-2.505.113-3.755.085-1.124.081-2.243.126-3.376-.072-.605.302-1.711 1.076-1.282.248.172.325.533.149.781-.225.6-.068 1.331-.144 1.981 0 1.232-.144 2.474-.18 3.706.027 1.345-.072 2.613-.027 3.972.04.311-.131.614-.455.672-1.135.1-.563-1.99-.653-2.699h-.005ZM143.203 136.132a.57.57 0 0 1 .585.541c.014.298-.229.587-.54.587-.311 0-.572-.221-.586-.542-.013-.297.23-.586.541-.586ZM161.933 58.969c-.473 1.15-.856 2.333-1.289 3.502-.216.713-1.275.402-1.085-.298.261-.758.54-1.507.81-2.256.284-.673.717-2.754 1.757-1.869.194.248.131.596-.099.79a.576.576 0 0 0-.094.135v-.004ZM159.185 66.317a.564.564 0 1 1 .001-1.127.564.564 0 0 1-.001 1.127ZM129.095 13.987c1.171.465 2.473.641 3.666 1.08 1.244.5 2.518.938 3.748 1.47.428.158 1.068.443.788 1.012-.301.555-.891.175-1.301-.01-1.383-.564-2.793-1.132-4.217-1.602-.729-.36-4.423-.645-3.482-1.927a.567.567 0 0 1 .798-.027v.004ZM139.694 18.614c.306 0 .572.225.585.541.014.298-.234.587-.54.587a.573.573 0 0 1-.586-.542c-.013-.297.234-.586.541-.586ZM164.581 14.65c-1.387-1.082-2.964-1.737-4.441-2.712-.816-.591-1.888-.794-2.6-1.512-.468-.736.487-1.286 1.009-.591 1.365.623 2.654 1.395 3.919 2.202.663.362 4.527 2.284 3.613 3.21-.559.537-1.068-.285-1.495-.596h-.005ZM167.901 17.48a.574.574 0 0 1-.586-.54c-.013-.299.234-.588.541-.588.306 0 .572.226.585.542.014.298-.234.587-.54.587ZM69.657 21.597c-1.882.853-3.774 1.774-5.445 3.002-.23.198-.496.36-.807.347-.761.032-.788-1.128-.022-1.128 1.297-1.025 2.896-1.837 4.387-2.578.581-.239 1.18-.753 1.825-.676.459.135.508.843.067 1.038l-.005-.005ZM71.838 19.855c-.018-.293.225-.596.531-.596.307 0 .577.212.595.533.018.293-.225.595-.532.595-.306 0-.576-.212-.594-.532ZM49.437 82.277c-.69-.83-1.302-1.73-1.883-2.636-.572-.944-1.275-1.82-1.707-2.844-.18-.447-.221-1.196.414-1.245a.566.566 0 0 1 .59.532c-.004.289.144.537.275.785a74.838 74.838 0 0 0 2.356 3.611c.27.555 1.378 1.219.748 1.864a.563.563 0 0 1-.793-.072v.005ZM51.91 84.326c-.306 0-.577-.217-.595-.533-.013-.298.226-.596.532-.596.306 0 .576.217.594.533.014.298-.225.596-.531.596ZM14.18 92.242c-1.797-.722-3.482-1.841-4.923-3.145-.455-.497.302-1.269.806-.781.09.108.18.212.297.298 1.194.857 2.352 1.778 3.708 2.365.76.32 1.531.64 2.324.893a.568.568 0 0 1 .347.718c-.365.903-1.906-.194-2.559-.348ZM20.329 93.813c-.667.433-1.455-.867-.797-1.282.67-.433 1.454.867.797 1.282ZM7.496 128.495c.878-.357 1.792-.632 2.626-1.097 2.306-1.151 4.428-2.645 6.738-3.796.726-.641 1.59.167.879.79-3.262 1.666-6.257 3.936-9.766 5.127-.275.118-.617.018-.748-.27-.126-.271-.009-.632.27-.75v-.004ZM19.806 121.585c.329.018.662.185.68.555a.568.568 0 0 1-.531.596c-.514-.018-1.42-.217-1.207-.912.166-.479.684-.402 1.058-.239ZM52.761 121.007c.329-.181.518-.533.788-.785a19.755 19.755 0 0 1 2.618-2.257c.247-.176.59-.167.792.081.185.226.167.614-.085.795-.658.473-1.28.992-1.879 1.539-.576.46-.986 1.169-1.599 1.588-.59.285-1.166-.528-.64-.961h.005ZM59.419 116.904c-.086.785-1.487.578-1.396-.18.085-.786 1.486-.578 1.396.18ZM96.036 123.079c.572-.461 1.27.406.707.88-.914.866-1.81 1.683-2.54 2.739-.442.65-.744 1.612-1.347 2.185a.572.572 0 0 1-.793-.081c-.329-.397.058-.754.284-1.074.842-1.837 2.189-3.322 3.689-4.649ZM98.266 121.937a.57.57 0 0 1-.572-.555.57.57 0 0 1 .554-.574.57.57 0 0 1 .572.556.57.57 0 0 1-.554.573ZM108.991 91.719H109c.022.009.04.013.063.022a.328.328 0 0 1-.072-.022Z"/><path fill="#000" d="M112.581 93.258c-1.104-.663-2.311-1.101-3.518-1.517.036.01.077.019.113.014-.068 0-.122-.018-.176-.036-.022-.01-.041-.014-.063-.023-.432-.216-.401-.98.171-1.056 1.924.384 3.667 1.413 5.347 2.401a.575.575 0 0 1 .221.768c-.563.794-1.464-.343-2.095-.555v.004ZM117.82 96.783a.57.57 0 0 1-.572-.555.57.57 0 0 1 .554-.573.57.57 0 0 1 .572.555.57.57 0 0 1-.554.573Z"/></g><defs><clipPath id="a"><path fill="#fff" d="M273 0H0v226h273z"/></clipPath></defs></svg>