<svg xmlns="http://www.w3.org/2000/svg" width="223" height="325" fill="none"><g clip-path="url(#a)"><path fill="#9EF1FF" d="M129.15 63.7232c-.226 8.5278.208 17.2057 2.286 25.4875 2.111 10.0458 5.027 19.8873 7.964 29.7203 3.451 11.66 6.613 23.632 6.279 35.892-.041 6.276-1.368 12.218-4.038 17.744-.054.679-.467 1.284-.563 1.964-.48 2.126.075 3.845 1.347 5.558.242.451.822.718 1.097 1.135.651-.038 1.265-.121 1.761-.205 2.211-.387 4.239-1.68 5.561-3.49 1.711-2.765 2.771-5.788 3.542-8.916.739-3.761.405-7.635.347-11.446-.376-4.037-.755-8.253-1.556-12.206-1.423-6.426-2.641-12.915-3.246-19.475a138.986 138.986 0 0 1-.113-5.291.6789.6789 0 0 1-.154-.255c-.901-2.752-2.9-4.841-4.89-6.847-.167-.159-.33-.321-.488-.484-.789-.921-1.544-1.797-2.324-2.702-4.422-6.289-5.161-14.7914-2.407-21.9056 1.473-3.3944 3.517-6.5429 5.912-9.3577 2.599-2.8106 5.098-5.7505 7.142-8.999 4.435-7.11 2.624-16.4385 7.36-23.4192 3.942-5.2543 10.542-9.0074 17.226-8.4611 1.035.0625 2.069.1376 3.096.2919.346-2.9274.075-5.9299-1.114-8.6321-3.225-5.6672-12.258-3.7114-17.214-1.6389-4.168 1.7431-7.802 4.2619-11.285 7.0892-2.245 1.789-4.419 3.5404-6.459 5.5128-2.866 2.9358-5.428 6.1676-8.018 9.3494-1.16 1.8181-2.266 3.678-3.409 5.5087-1.356 2.2727-2.349 4.7289-3.271 7.2017-.158.3169-.221.7214-.371 1.055 0 .0751-.004.1502-.004.2252l.004-.0041Zm23.376-6.2802c.258-1.03.455-2.231.655-3.1901.196-.9675.359-1.9349.438-2.9191-.013-.6463.008-1.4595.851-1.4845.455 0 .834.3795.834.834 0 1.6097-.346 3.1859-.663 4.7414-.159.8215-.3 1.6472-.505 2.4603-.112.4421-.601.7006-1.026.5797-.447-.121-.693-.5838-.58-1.0259l-.004.0042Zm-.422 3.1776c.455 0 .835.3795.835.834 0 .4546-.38.8341-.835.8341-.454 0-.834-.3795-.834-.8341 0-.4545.38-.834.834-.834Z"/><path fill="#4EC5D9" d="M178.013 40.6c-.68-.5796-1.544-.8298-2.32-1.226-5.394.1293-10.517 3.1151-13.934 7.2351-4.477 6.0884-3.367 14.2159-6.213 20.9505-2.444 5.9174-7.568 10.1876-11.201 15.2876-1.582 2.402-3.121 4.9124-3.893 7.7063-1.46 5.4712-1.035 11.4015 1.669 16.4005.709 1.468 1.777 2.736 2.883 3.937.263.096.521.288.738.48.476.296.943.646 1.51.734 1.486.462 1.995.316 2.721-1.064.029-.146.091-.283.171-.404.767-10.7342 2.974-21.3679 7.247-31.2552 3.016-7.2684 7.864-13.5527 11.544-20.4709 3.07-5.4795 7.876-9.9874 10.163-15.8922 0-.0834.008-.1668.037-.2502-.012-.1877-.037-.3712-.067-.5546-.141-.613-.604-1.1802-1.055-1.6139ZM149.43 97.0964c-.454 0-.834-.3795-.834-.834 0-.4546.38-.8341.834-.8341.455 0 .835.3795.835.8341 0 .4545-.38.834-.835.834Zm4.318-12.602c-.663 1.4887-1.239 3.0191-1.856 4.5245-.372 1.1176-.58 2.2894-.864 3.4362-.108.442-.601.7006-1.026.5796-.447-.1209-.693-.5838-.58-1.0258.476-2.5771 1.423-4.9958 2.449-7.3936.259-.6755.642-1.3052.914-1.9766.242-.6714 1.293-.6631 1.535 0 .234.663-.355 1.2635-.572 1.8557Z"/><path fill="#9EF1FF" d="M123.951 22.7228c-.684 5.1835.355 10.3293.739 15.4836.254 5.3544-.576 10.7546-2.312 15.8213-1.389 3.8865-3.8 7.2976-5.39 11.0924-1.402 3.8115-2.228 7.8982-1.986 11.9682.401 5.1625 3.864 10.763 9.241 11.7096.76.1459 1.565.2585 2.366.2794.1-.0542.209-.0959.325-.1126v-.0084c1.027-.3085 1.903-1.1092 2.224-2.1267 0-.0125.008-.025.008-.0417-1.301-6.2551-1.685-12.6979-1.756-19.074.008-7.5729.451-15.1874 2.378-22.5393 1.936-8.9574 6.721-17.1724 7.627-26.3633.329-3.2152.634-6.6471-.484-9.6996-.126 0-.259-.025-.397-.0751-2.699-.1-5.136 1.5346-7.176 3.1401-3.446 2.6188-5.014 6.3218-5.411 10.5461h.004Zm-7.142 56.0544c-.664-2.1059-.2-4.3369.238-6.4387-.055-.5087.242-1.03.792-1.055 1.118-.0042.922 1.3052.71 2.0434-.338 1.668-.626 3.2776-.155 4.9165.317 1.0467-1.21 1.5638-1.581.5338h-.004Zm2.361 2.648c-1.331-.5171-.759-2.2519.534-1.6347 1.335.5171.755 2.2518-.534 1.6347ZM211.235 60.4579c-.238-.0959-.538-.196-.759-.3628-1.131.2168-2.241.5504-3.284.9883-5.152 2.7356-10.38 6.472-12.75 11.989-1.76 4.2577-1.944 8.9157-2.966 13.3568-.505 1.9975-1.139 3.9824-2.165 5.7839-1.798 3.0901-3.939 5.9883-5.365 9.2489-1.285 3.128-1.794 6.793-.868 10.059.096.075.179.171.233.292.046.091.126.162.201.233.651.463 1.489.159 1.998-.367.117-.096.238-.154.359-.183 1.427-3.307 3.2-6.464 5.132-9.504 2.949-5.075 6.362-9.8706 9.783-14.637 2.449-3.2402 4.664-6.6388 6.871-10.0458 1.177-1.7681 2.287-3.5821 3.221-5.492 1.431-2.869 2.445-5.9299 3.087-9.0699l-.012-.0626c-.376-1.201-1.619-1.8223-2.72-2.2143l.004-.0125ZM36.6429 110.186c-4.0093-1.926-8.0395-3.849-11.5524-6.618-2.232-1.576-4.3306-3.386-5.8993-5.6419-2.1402-2.9857-3.8466-6.3135-4.6351-9.9206-.4965-1.9808-.8219-4.0283-1.7481-5.8715-1.1598-2.0975-3.5671-4.1242-6.1162-5.5337-.1586-.0083-.3213-.0625-.4798-.1876-1.5437-.3503-3.1416.442-4.3056 1.4094-.0709.0668-.146.1377-.2253.2044.025 1.7598.1628 3.5195.4631 5.2501.4715 2.3269 1.1474 4.633 1.7982 6.9099 1.5937 5.6046 5.0857 10.3795 8.3149 15.1415 7.4972 10.104 18.0816 17.293 28.5952 23.949 1.8774 1.284 3.8424 2.406 5.8283 3.494h.1085c1.9525-.216 3.6839-1.755 4.5934-3.432a.9358.9358 0 0 1 .1878-.225c.146-.538.2586-1.084.3212-1.634.2295-3.099-1.0138-6.11-2.5908-8.72-3.0957-4.22-8.1772-6.193-12.6538-8.582l-.0042.008Zm-.7802 3.361c-1.1348-.888-2.5449-1.234-3.8049-1.876-.922-.471-1.94-1.055-2.7494-1.652-.5548-.367-1.4977-.638-1.1514-1.497.3921-.792 1.1556-.488 1.7397-.104.9512.655 1.9191 1.28 2.9538 1.789 1.3768.642 2.8453 1.084 4.0552 2.035.8428.696-.1627 1.96-1.043 1.305Zm3.4128 2.486c-.4548 0-.8261-.401-.8178-.851.0084-.459.3964-.817.8511-.817.4548 0 .8261.4.8178.85-.0084.459-.3964.818-.8511.818Z"/><path fill="#4EC5D9" d="M108.064 184.381c1.298-.042 1.544-.105 1.928-1.368-.146-.255-.13-.597.029-.838.108-.622.075-1.256.071-1.885-.213-5.401-1.248-10.83-3.868-15.609-1.965-3.774-4.806-6.997-6.8752-10.713-1.6688-2.681-3.9134-4.921-6.1162-7.16-2.4824-2.573-4.9189-5.213-7.7725-7.385-3.2626-2.556-6.4166-5.238-9.7543-7.698-3.6338-3.103-7.4262-6.03-10.9057-9.308-4.1053-3.811-7.8017-8.102-11.2437-12.502-6.0578-7.502-10.5177-16.1297-14.6313-24.8076-3.25-6.7889-5.5322-14.0949-9.9003-20.3-1.5353-2.3978-3.8925-4.0492-6.0703-5.6671-1.4894-1.0634-3.0456-2.1018-4.8479-2.5313-2.2196-.4462-4.6227-.4379-6.7295.4629-2.6535 1.0217-4.1554 3.4987-5.6448 5.7672-2.3155 2.9691-3.4086 6.5888-3.83 10.2835.6008.0959 1.21.2794 1.577.3377 3.8092 1.1093 7.3012 3.4737 9.892 6.4553 2.2529 2.9441 2.3405 6.814 3.5087 10.2167 1.4143 3.774 3.5838 7.3602 6.5918 10.0707 3.5129 2.948 7.3762 5.442 11.5482 7.352 4.7395 2.435 9.8502 4.47 13.8053 8.136 2.6159 2.481 4.122 6.03 4.6769 9.549.3296 2.381-.2712 4.754-1.2516 6.923-.2462 1.476.1043 3.006.9596 4.245.2419.142.4839.279.7217.425 5.0399 3.219 10.3342 6.059 15.4741 9.103 4.9022 2.477 9.5123 5.451 13.9514 8.674 5.6155 3.903 10.8431 8.461 14.7899 14.083 1.8987 2.523 3.4047 5.371 4.1807 8.444.801 3.774.917 6.952 5.74 7.252l-.004-.008ZM27.648 71.3086c-.9679-2.2144-2.1778-4.3202-3.4461-6.3761-1.2224-1.5221-2.7035-2.9483-4.3848-3.9532-1.2808-.096-1.1264-1.9183.1585-1.6806 1.3768.367 2.4198 1.4721 3.4628 2.3853 1.0597.9633 2.0735 2.0267 2.7327 3.2902 1.114 1.8473 2.1737 3.7531 3.0289 5.738.3713 1.0175-1.1181 1.618-1.5561.6005l.0041-.0041Zm1.9025 3.1484c-.4548 0-.8261-.4003-.8177-.8507.0083-.4587.3963-.8174.8511-.8174.4547 0 .826.4004.8177.8507-.0084.4588-.3964.8174-.8511.8174Zm55.0126 69.336c-.3129.029-.655-.304-.8261-.48-1.5728-1.484-3.1958-2.902-4.8562-4.286-1.0139-.855-2.036-1.698-3.104-2.486-.3714-.262-.4006-.834-.1294-1.172.2795-.358.8219-.408 1.1724-.129 2.5032 1.902 4.9689 4.008 7.2593 6.139.3672.333.7426.667 1.1056 1.009.5215.492.0876 1.451-.6175 1.409l-.0041-.004Zm3.1374 3.724c-.4548 0-.8261-.4-.8178-.851.0084-.458.3964-.817.8511-.817.4548 0 .8261.4.8178.851-.0084.458-.3964.817-.8511.817Z"/><path fill="#9EF1FF" d="M127.06 143.935c.071.033.146.054.217.083.684.25 1.481-.004 1.998-.488.083-.071.184-.121.284-.15.167-.279.325-.567.471-.863 3.68-8.419-3.897-13.04-7.088-19.779-1.719-2.952-.839-6.593-2.47-9.549-1.56-3.174-4.606-5.405-8.052-5.813-.159.075-.338.116-.526.116-.417.242-.726.609-.855 1.08-.033.255-.063.555-.129.83 3.471 8.295 7.86 16.105 11.74 24.199 1.481 3.432 3.033 6.856 4.405 10.338l.005-.004Z"/><path fill="#4EC5D9" d="M76.3653 93.2181c.1461-.2293.3463-.3461.5507-.3753.6425-.638 1.3059-1.2594 1.9693-1.8765 1.1765-1.2219 2.1819-2.598 3.179-3.97 5.236-7.4269 5.3528-15.1624-.267-22.3892-2.7327-3.5737-6.4917-6.3302-8.6403-10.3501-2.4239-4.4203-2.5533-9.7956-1.7481-14.6704.4298-2.1142 1.3601-4.2618 1.9025-6.301.3379-1.2177.7468-2.4937.388-3.7572-.4965-1.7932-1.3851-3.4445-2.4782-4.9458a.8552.8552 0 0 1-.1544-.1209c-.0375-.0334-.0709-.0709-.1043-.1084 0 0-.0041 0-.0041-.0084-.1794-.2001-.4298-.2168-.6801-.2126-.7217-.1418-1.4769-.1335-2.1569.1126-.2921.1-.6091.1751-.8595.3628-2.0568 2.3227-3.6296 5.1584-4.8312 7.9648-.7009 1.9725-1.7064 3.8157-2.4031 5.7881-1.7648 7.5437-2.3363 15.4544-1.648 23.1023 1.2308 8.2609 3.9051 16.4009 7.9812 23.6694 1.9608 3.2652 3.9551 6.522 6.1496 9.6371.0792.0042.1585.0125.2378.025.5757.1001 1.1598-.0709 1.698-.2794.4965-.0667 1.0096-.5379 1.5061-.7548.1419-.1793.2795-.3628.4172-.5463l-.0042.0042Zm-8.5401-41.2463c-.6717-2.819-1.3226-5.9049-.3213-8.7155.2253-.4837.9179-.6088 1.3017-.2419.3171.2794.3296.7256.1585 1.0884-.2253.9716-.388 1.9808-.292 2.9775.1544 1.4803.3463 2.9607.7468 4.3952.2962 1.0509-1.2475 1.5346-1.5937.4921v.0042Zm2.1819 4.3952c-.4547 0-.8511-.3294-.8719-.7964-.0167-.4379.3421-.8716.7968-.8716.4548 0 .8511.3294.872.7965.0167.4379-.3421.8715-.7969.8715ZM103.437 88.5685c1.419 4.7998 2.883 9.5954 4.681 14.2615.046.034.092.075.134.121.713.868 1.423 1.822 2.487 2.265.371.129.863.216 1.168.458.05-.008.1-.012.146-.025 4.601.221 8.577 3.482 10.334 7.648.626 1.38.776 2.915.926 4.387.321 5.947 5.532 9.816 7.981 14.879 2.186 4.007 1.732 9.358-1.143 12.911-.359.404-1.097 1.309-1.827 1.814.225.646.442 1.296.651 1.951 1.848 5.993 3.22 12.294 2.657 18.59-.242 2.719-1.539 5.055-2.632 7.498-.472 1.13-.685 2.423-.376 3.591.042.033.079.071.117.116 1.068 1.86 4.084 2.469 5.853 1.285.376-.209.647-.667.993-.913l.063-.075c2.403-3.449 4.506-7.144 6.066-11.051 3.459-9.679 2.466-20.183.889-30.137-3.063-15.075-8.482-29.558-11.924-44.5453-.129-.1335-.221-.3045-.242-.4921-.626-1.0926-1.615-1.9766-2.795-2.4187-.655.0459-1.315.0542-1.97.0084-1.664-.2085-3.441-.4254-4.893-1.3261-3.029-1.7723-5.424-4.6163-6.534-7.9565-1.594-4.4495-.98-9.3327.2-13.8072.964-4.1159 3.376-7.6479 5.199-11.4052 2.532-5.3586 3.525-11.3885 3.413-17.285-.564-7.8481-2.495-16.3468 1.368-23.6778 1.131-1.9724 3.525-4.3953 6.179-6.0258.334-.321.784-.6005.997-.8673.83-.809 1.481-1.839 1.69-2.99.02-.3878-.021-.8173-.196-1.1676-.126-.0667-.222-.1585-.297-.271-2.015-1.3512-4.368-1.8891-7.272-2.1685-1.414-.1585-2.899-.1793-4.201.4587-1.422.6839-2.899 1.3136-4.151 2.2894-.784.6755-1.414 1.5054-2.094 2.281-4.577 4.5663-7.927 10.0958-10.677 15.9006-1.702 3.9532-3.216 7.8606-3.913 12.1016-1.7022 7.8356-2.3864 15.7545-2.3072 23.7319.4423 10.2209 2.2282 20.3084 5.2522 30.0497v.0083Zm36.664 70.2995c.28-1.614.38-3.257.48-4.892.017-1.388.267-2.777.18-4.166-.201-.425.045-.95.471-1.113 1.427-.354 1.264 1.589 1.189 2.485-.079 1.076-.15 2.148-.188 3.224-.129 1.585-.196 3.173-.484 4.737-.079.45-.517.763-.959.684-.442-.075-.768-.513-.684-.959h-.005Zm.067 2.66c.455 0 .818.422.805.864-.016.467-.409.804-.863.804-.455 0-.818-.421-.805-.863.016-.467.408-.805.863-.805Zm-12.679-39.978c.597.233 1.223.755.818 1.443-.238.392-.763.504-1.147.275-.518-.225-1.06-.676-.772-1.297.179-.4.697-.626 1.101-.421Zm-4.547-13.874c.304.079.513.321.696.563.489.696.931 1.426 1.331 2.177 1.323 2.56 1.89 5.396 1.932 8.256.167.572.376 1.339-.35 1.61-.409.159-.939-.05-1.077-.484-.442-1.23-.233-2.552-.43-3.824-.383-2.377-1.347-4.77-2.728-6.709-1.051-.442-.442-1.919.626-1.585v-.004Zm-1.294-94.9197c1.34-2.0558 3.029-3.9657 5.12-5.271.6-.5004 1.618-.5129 1.723.4295.029.4462-.301.7632-.689.8924-.73.4212-1.393.9383-1.994 1.5263-1.268 1.2135-2.324 2.5312-3.2 4.0283-.409.7006-.722 1.4512-.955 2.2268-.134.4337-.651.6506-1.064.5046-1.448-.4921.58-3.5279 1.064-4.3327l-.005-.0042Zm-1.877 7.0016c.455 0 .855.3128.88.784.025.4337-.329.8799-.784.8799s-.855-.3128-.88-.784c-.025-.4337.329-.8799.784-.8799ZM100.938 65.829c-.884-.8298.297-2.1142 1.148-1.2385 1.018.8966-.259 2.2936-1.148 1.2385Zm-.655-14.4535c-.025-.4545.334-.8549.785-.8799 1.393.0709.767 1.8599.713 2.7481-.342 2.9024-.133 5.7797-.008 8.6613.042 1.0884-1.569 1.1885-1.665.0959-.2376-3.5696-.2418-7.0975.175-10.6254Z"/><path fill="#9EF1FF" d="M117.614 168.534c.067 1.677-.317 3.395-.208 5.054.254 1.356.367 2.586 1.138 3.691.226.313.501.563.802.767.029.017.054.038.083.059.572.366 1.243.575 1.932.667.909.342 1.873.296 2.82.158.768-.029 1.535-.125 2.244-.442.134-.05.272-.054.405-.029a5.67 5.67 0 0 1-.021-1.214c.113-.992.392-1.951.776-2.873 2.512-4.895 2.771-7.193 2.37-12.631-.605-5.546-2.028-11.03-4.055-16.213-1.281-3.153-2.604-6.339-3.972-9.462-.033.021-.063.042-.096.058-1.197.48-2.545.388-3.813.417-2.67.038-5.24-1.092-7.222-2.848-1.932-1.906-3.016-4.57-3.759-7.143-.73-2.611-.722-5.342-1.26-7.986-.843-3.424-3.066-6.247-5.186-8.982-2.8076-3.524-5.6863-7.131-7.2091-11.4306-1.5145-4.3702-1.6605-9.1367.2211-13.4152.8261-2.3144 2.2613-4.3285 3.8466-6.18.338-.4045.8386-1.1343 1.3518-1.4554-1.5312-7.3811-2.4156-14.8789-2.2613-22.4267.0626-2.7106.217-5.417.4673-8.115-.0417-.0751-.0751-.1543-.0918-.2461-.2044-1.7139-.8386-3.3027-1.1557-4.9957-.267-1.1885-.4756-2.3853-.7593-3.5696-1.189-4.1534-2.5157-8.4069-5.1983-11.8639-1.6063-2.1643-3.7048-3.9449-6.1747-5.0417-2.5616-1.5512-5.7115-1.7931-8.5944-1.1342a13.3723 13.3723 0 0 0-3.0164 1.1217 1.3877 1.3877 0 0 1-.05.1752c-.1878.588-.1377 1.2969.0959 1.8974 1.819 2.2393 3.4503 5.4795 3.4503 7.8731-.2461 2.7147-1.3851 5.2585-2.1486 7.8564-.6884 2.4103-.7635 4.7831-.6717 7.2518.0084 4.6914 2.1361 8.8823 5.3819 12.1767 4.5017 4.4036 8.778 9.3827 9.529 15.8838.8428 7.6355-3.8049 14.8205-9.2286 19.7913-.5256.5338-1.0471 1.0717-1.5394 1.6305-.363.4712-.7135.9508-.9763 1.4929-.2295.4629-.2336 1.2385-.4339 1.7973 5.0815 6.414 10.2299 12.773 15.2905 19.199 8.5194 10.108 16.4841 20.838 21.9701 32.927 1.36 2.886 2.441 5.884 3.413 8.92 1.068 2.819 1.481 5.834 1.522 8.841l-.008-.009ZM92.8363 41.5425c.0167.4378-.3421.8715-.7968.8715-.4548 0-.8511-.3294-.872-.7965-.0167-.4378.3421-.8715.7969-.8715.4547 0 .8511.3294.8719.7965Zm-4.1803-8.8573c.8427-.5004 1.3726.4921 1.5979 1.1676.4589 1.2052.8594 2.4395 1.2265 3.6739.2962 1.0508-1.2432 1.5346-1.5937.492-.3254-1.1217-.6884-2.2351-1.0931-3.3319-.2169-.663-.9554-1.4553-.1335-2.0016h-.0041Zm4.0552 72.7968c-1.6271-2.614-3.0247-5.4958-3.3961-8.5816-.0459-.5171.0209-1.0342-.0333-1.5513-.0459-.4545.3629-.8507.7968-.8715.8803-.0251.9387.9466.8845 1.6096-.025.7006.096 1.3887.2628 2.0684.5966 2.2814 1.6271 4.4534 2.8954 6.4344.5716.922-.8093 1.81-1.4101.892Z"/><path fill="#4EC5D9" d="M109.128 109.461c-2.461-5.205-4.339-10.6299-5.999-16.1344-1.085-3.3987-2.082-6.839-2.962-10.3085a1.0072 1.0072 0 0 1-.2047-.2294l.0334.0543c-.6509-.8549-1.8316-.98-2.7953-.6881-.1502.0792-.267.2168-.4047.3169-.0918.0751-.1961.1209-.3045.146-.4047.6505-.7719 1.3261-1.0681 2.0433-3.0831 6.5137-1.2224 13.4694 2.8036 19.0949 3.6503 5.329 9.1283 10.096 9.5623 16.943.492 6.464 2.587 13.328 9.237 14.124.159-.121.346-.221.534-.3.417-.284.818-.726 1.11-1.159-.171.079-.38.1-.614.02-1.264-.387-2.574-.646-3.671-1.438-1.598-1.13-2.891-2.782-3.763-4.525-.467-.976-.709-2.035-.86-3.098-.15-.334-.07-.742.217-.988.351-.292.881-.247 1.177.1.371.521.284 1.221.467 1.814.305 1.347 1.01 2.556 1.923 3.582.743.996 1.703 1.839 2.837 2.318.722.288 1.502.392 2.228.663.313.121.476.346.53.592.167-.508.209-1.025.175-1.58-.008-.071 0-.138.013-.209-3.496-7.001-7.214-13.907-10.205-21.146l.004-.008Zm1.181 11.668c-.455 0-.851-.33-.872-.797-.017-.438.342-.872.797-.872s.851.33.872.797c.017.438-.342.872-.797.872ZM83.7037 207.479c.6968.258 1.381.542 2.0318.896.655.338 1.2642.726 1.8399 1.159.8511-1.451 3.7131-3.465 4.3473-3.953 7.4679-5.25 17.8353-5.308 25.8163-1.163 1.231.588 2.332 1.413 3.217 2.448.597-.53 1.197-1.051 1.773-1.602 3.455-3.365 8.161-5.071 12.867-5.742 2.207-.192 4.464-.192 6.604.438 1.348.271 2.708.563 3.909 1.263 1.456.98 2.82 2.106 4.101 3.328.392-.388.927-.721 1.269-.938 6.95-4.153 15.77-3.736 22.721.129.071.029.137.067.2.117.509.288 1.005.596 1.489.922a.732.732 0 0 1 .209.054c.188.112.342.262.48.429.158.117.321.23.479.351.927.683 1.799 1.447 2.633 2.243.263-.104.521-.208.78-.35 4.164-2.069 6.329-7.21 5.929-11.668a1.3252 1.3252 0 0 1-.025-.192 66.1805 66.1805 0 0 0-11.006-11.843c-.046-.021-.096-.042-.142-.071-1.719-1.243-4.322-1.097-6.275-.538-.534.084-1.251.505-1.865.605-2.249 2.414-7.943 7.748-10.434 4.704-.05-.092-.096-.192-.142-.288-.601-.563-1.06-1.314-1.314-2.035-.559-2.039 1.389-3.649 2.653-4.975 1.027-1.197 2.199-2.406 2.921-3.832-.785-2.431-3.897-3.37-6.221-2.807-.112.038-.229.042-.346.029-.517 1.235-1.101 2.432-1.777 3.57-2.274 3.595-6.809 5.225-10.931 4.671-1.744-.271-3.742-1.302-3.98-3.232v-.025c-.426.625-.876 1.234-1.377 1.801-.254.288-.547.567-.872.784-.68 1.047-2.107 1.472-3.308 1.456-1.194.033-2.37-.242-3.472-.68-1.03-.426-1.931-1.122-3.008-1.447-1.222-.334-2.515-.167-3.75-.434-.947-.225-1.844-.55-2.645-1.076-.242-.162-.476-.329-.685-.529-.884-.63-1.585-1.535-1.94-2.544-.358-1.08-.617-2.21-.73-3.345v-.058c-.104-.217-.237-.417-.442-.55-1.164-.851-3.125-.734-3.83.638-.079.179-.192.333-.325.45.15.884.267 1.776.363 2.669.129 1.155.208 2.314.267 3.474 0 .967.137 1.993-.313 2.889.1.192.129.422.058.643-.459 2.131-2.228 2.489-4.143 2.331-2.62-.338-4.664-1.723-5.598-4.054a.9108.9108 0 0 1-.13-.354c-.813-1.752-3.0162-2.102-4.7476-2.06-.3046.042-.6592.208-.9971.321-5.4654 3.753-10.3091 8.286-14.4103 13.465-.05.129-.1084.255-.1502.384-.68 2.544-1.1222 5.233-.6216 7.831.3838 2.21 1.164 4.546 3.0039 5.918l-.0084-.025Zm93.9253-16.643c.747-1.122 2.224.408 2.891.967.743.734 1.269 1.677 2.107 2.31 1.076.501.259 2.056-.776 1.489-1.151-.705-1.773-1.968-2.762-2.852-.563-.567-1.994-.863-1.464-1.91l.004-.004Zm-2.532-2.306c.454 0 .834.379.834.834 0 .454-.38.834-.834.834-.455 0-.835-.38-.835-.834 0-.455.38-.834.835-.834Zm-40.052-3.461c2.95-1.372 3.471-.96 6.442-.142 1.798.317 3.525.029 5.227-.538.442-.179.901-.526 1.36-.146.359.279.43.813.15 1.172-.296.383-.851.521-1.293.654-1.927.622-4.005.88-5.999.442-1.064-.191-2.099-.804-3.2-.671-1.081.138-3.876 2.152-4.293.396-.105-.942.968-.942 1.606-1.172v.005Zm-5.09.154c.455 0 .834.379.834.834 0 .454-.379.834-.834.834-.455 0-.834-.38-.834-.834 0-.455.379-.834.834-.834Zm-38.9794 2.122c.9679-.925 1.9191-1.889 3.0373-2.639.7509-.376 1.6938-1.697 2.5366-.93.3087.317.3254.871-.0084 1.18-1.5228 1.067-3.0289 2.152-4.3139 3.507-.5382.509-1.068 1.022-1.5687 1.568-.3045.338-.8719.3-1.1807-.008-.851-1.018.9388-1.965 1.502-2.673l-.0042-.005Zm-3.0289 3.712c1.1348.137.872 2.21-.2628 2.056-1.1348-.138-.8762-2.21.2628-2.056Z"/><path fill="#4EC5D9" d="M158.333 184.531c-.505.558-.763 1.217-.638 1.918.021.075.037.154.054.233.029.088.058.18.1.271.025.08.038.15.046.226.221.166.467.275.751.279.217.017.388.092.513.204.897-.2 1.669-.792 2.441-1.28 2.011-1.259 3.546-2.94 5.111-4.633 1.522-1.564 2.799-3.307 3.842-5.221 1.615-2.644 3.208-5.346 4.335-8.236 1.781-4.253 3.091-8.69 3.621-13.277.338-2.861.438-5.743.789-8.599.859-9.558 1.84-19.128 4.318-28.432.154-.592.325-1.18.505-1.76-.076-.029-.151-.066-.222-.12l.046.033c-1.197-.659-1.656-1.964-2.107-3.174-.659-1.605-.959-3.323-.922-5.054-.066-6.142 3.73-11.2798 6.809-16.2714 1.757-3.0691 2.449-6.5887 2.941-10.054.689-4.437 1.548-9.0908 4.277-12.7772 2.186-2.9482 5.081-5.2835 8.148-7.2726 1.439-.9425 2.92-1.8682 4.568-2.4062 2.024-.7005 4.164-1.0133 6.3-1.0175.204-.0125.442-.0125.684.0042.042-.7798.029-1.5638-.058-2.3394-.217-3.4862-2.553-6.643-6.175-7.0391-2.67-.2085-5.298.8173-7.756 1.7472-2.916 1.2636-5.523 3.0859-7.91 5.1626-1.76 1.4303-3.475 2.6147-5.01 4.2326-1.774 1.8849-3.246 4.1576-4.498 6.3886-6.9 12.5145-9.946 26.7219-11.335 40.7872-.676 7.59-.822 15.213-.38 22.815.405 7.54.209 15.1-.505 22.614-.459 5.889-1.581 11.785-3.734 17.294-1.039 2.489-2.286 4.887-3.776 7.139-1.351 2.06-2.607 4.203-4.101 6.163-.079.534-.759.989-1.064 1.452h-.008Zm31.186-112.1884c.43-1.668 1.039-3.2735 1.953-4.7372.738-1.6305 1.915-2.9607 3.129-4.2576.48-.5338 1.452-.121 1.422.5879-.129.8049-1.072 1.372-1.531 2.0309-1.164 1.4303-2.082 3.2568-2.778 4.9332-.213.6255-.418 1.2468-.58 1.8849-.113.442-.601.7005-1.027.5838-.442-.121-.696-.588-.579-1.0259h-.009Zm-.296 3.2485c.455 0 .834.3795.834.8341 0 .4545-.379.834-.834.834-.455 0-.834-.3795-.834-.834 0-.4546.379-.8341.834-.8341Zm-11.711 58.5149c.113-.826.154-1.652.238-2.481.213-2.527.901-4.967 1.631-7.386.134-.638.205-1.388 1.064-1.313.455.058.772.488.713.938-.559 2.552-1.522 5.017-1.718 7.648-.109.942-.147 1.885-.276 2.823-.058.455-.496.776-.939.713-.45-.058-.776-.488-.713-.938v-.004Zm.167 3.79c.455 0 .834.38.834.834 0 .455-.379.834-.834.834-.455 0-.835-.379-.835-.834 0-.454.38-.834.835-.834Z"/><path fill="#9EF1FF" d="M217.868 261.836c-.513-.643-.997-1.326-1.677-1.806-2.466-1.864-5.353-3.499-8.173-4.75-1.093-.471-2.232-.813-3.363-1.172-.705-.275-1.977-.571-1.539-1.584.321-.642 1.051-.484 1.569-.184 1.497.547 3.058.939 4.501 1.631.538.012 1.085.142 1.623.171 1.435.042 2.85-.388 4.126-1.018.751-.379 1.39-.938 2.057-1.438.18-.184.396-.397.634-.563.117-.263.226-.526.326-.793 1.764-3.803 1.815-8.323.442-12.251-.555-1.723-1.356-3.278-2.361-4.679-2.55-1.222-5.629-1.768-8.265-.546l-.004.004c-.292.446-.597.888-.935 1.309-.496.734-1.022 1.451-1.56 2.152-.251.475-.789.826-1.298.513-.909-.605-.05-1.518.413-2.102.639-.863 1.248-1.751 1.861-2.631.046-.155.142-.305.3-.442 1.022-1.497 1.602-3.215 2.103-4.938.889-3.173 1.231-6.497.576-9.745-.76-3.069-2.17-6.097-4.564-8.224-1.323-1.126-2.737-2.101-4.227-2.977-1.46-.701-3.108-.942-4.71-1.109-4.068-.284-8.019 1.009-11.548 3.027-.384.33-.772.584-1.131.684-1.147.726-2.249 1.522-3.283 2.36-1.865 1.643-3.513 3.52-5.082 5.438-.388.48-.976.363-1.289.009-1.176-.58.104-2.01.442-2.832.643-1.409 1.077-2.923.939-4.47-.046-1.13-.538-2.135-1.051-3.115-.092-.188-.196-.355-.305-.513-3.275-1.818-6.959-2.886-10.726-2.961-1.752.025-3.496.242-5.182.663-1.681.917-3.02 2.581-3.509 4.441-.116.325-.104.767-.158 1.151.275.346.546.696.809 1.051 1.081 1.355 1.878 2.898 2.437 4.537.325 1.009 1.698 4.166-.213 4.12-.772-.142-.676-.859-.734-1.43-.547-2.773-1.944-5.271-3.73-7.436-.981-1.196-2.032-2.335-3.096-3.356-1.806-1.61-3.554-3.57-6.008-4.112-2.052-.509-4.113-.968-6.245-.813-3.605.212-7.168 1.292-10.263 3.102-2.299 1.464-4.202 3.47-6.217 5.288-1.193 1.347-2.023 2.986-2.77 4.612-.659 1.593-1.214 3.232-2.019 4.758-.209.409-.689.609-1.106.417-.396-.179-.626-.701-.417-1.105.826-1.547 1.377-3.211 2.053-4.825.288-.625.592-1.251.922-1.864-.017-.2.025-.413.129-.596.238-1.506-.38-3.207-1.314-4.391-.43-.588-.976-1.08-1.531-1.552-.213-.133-.447-.266-.639-.417-6.979-2.31-15.1024-1.859-21.1561 2.519-.3671.267-.7426.555-1.1139.847-.0709.221-.1877.45-.292.663-.509.967-.3004 2.085-.0376 3.094.1294.922.4172 1.831.8762 2.644.1209.137.1793.292.1919.446.267.375.534.751.7927 1.13.8677.784-.2629 2.081-1.1307 1.243-.7968-.947-1.4143-2.035-2.207-2.99-1.6646-2.148-3.8424-4.028-6.4082-4.963-.0084 0-.0126-.004-.0209-.008-.1669-.017-.3171-.079-.4548-.163-2.2237-.8-4.4223-1.688-6.7211-2.26-2.3113-.45-4.5976-.638-6.9256-.625-2.8203.162-5.8701.313-8.3232 1.835-2.6118 1.751-5.8159 3.323-7.0591 6.392-.4715 1.572-.2712 3.266-.3088 4.888.025 2.06.7677 4.015 1.5228 5.905.9638 2.168 2.9747 3.844 3.1791 6.321.2044 1.068-1.3726 1.431-1.6313.363-.0625-.855-.3838-1.597-.801-2.293-.0083 0-.0167 0-.025-.005-1.7606-1.376-4.3389-1.021-6.1246.196-.5882.693-1.1139 1.431-1.5436 2.231-.726 1.556-1.2266 3.207-1.5729 4.884-.8094 3.957.1001 8.102 1.8566 11.659.2962.559.5924 1.13.9011 1.697.2545.192.5507.359.8344.484 1.2892.659 2.7786.972 4.2054 1.097 1.2475.058 2.5075-.054 3.6923-.421.1961-.171.413-.221.6175-.2.6258-.263 1.2724-.455 1.9525-.538.5799.141.8469.854.4756 1.334-.3129.375-.8511.396-1.285.567-1.6646.559-3.0331 1.672-4.4432 2.677-5.0565 3.57-8.3274 9.779-7.8309 15.997.0917 1.639.7801 3.115 1.5853 4.512.5049 1.084 1.1891 2.056 1.94 2.977 1.381 1.868 3.0206 3.549 4.9689 4.829 1.2517.872 2.6368 1.289 3.9259 2.064.3922.234.7552.513 1.1265.784.0918.055.1752.117.2461.18.2045.129.388.296.4506.542.217.68-.6174 1.347-1.2224.946-.0667-.054-.1418-.1-.2128-.154-.0083-.004-.0125-.008-.0208-.012-1.3017-.526-2.8871-.242-4.1137.379-.5548.321-.9846.801-1.4018 1.285a12.448 12.448 0 0 0-.3588 1.1c-.8844 2.89-1.5144 5.897-1.285 8.929.5466 5.129 2.9872 10.066 7.2719 13.027 3.4461 2.427 7.4555 2.952 11.5065 2.927.1419-.104.3129-.175.4923-.2.5466-.208 1.0764-.475 1.6021-.734 1.6104-1.059 3.1999-2.748 3.396-4.741a1.4199 1.4199 0 0 1-.0751-.313c-.3713-.951-.6591-1.939-.8135-2.948-.0918-.459.2169-.918.68-.993.4464-.075.8845.238.9596.684.2962 2.027 1.2099 3.878 2.1403 5.68.7176 1.259 1.4185 2.56 2.4114 3.628 3.5921 3.832 7.9519 6.735 13.3672 6.755 3.2542.196 6.3537-.913 9.1617-2.41 2.286-1.434 4.272-3.348 6.07-5.35 1.936-2.34 2.812-5.354 4.723-7.715.643-.863 1.99.059 1.36.968-.308.4-.605.809-.888 1.23-.284.479-.555.972-.822 1.464.016.567-.405 1.259-.363 1.826-.159 2.206.442 4.395 1.527 6.293.317.483.671.942 1.018 1.405 2.816 1.564 5.966 2.39 9.141 2.898 6.137 1.047 12.541 0 18.123-2.706.184-.088.363-.179.542-.267.059-.054.121-.1.188-.142.509-.554 1.018-1.105 1.49-1.689 1.389-1.597 2.653-3.39 3.333-5.392.217-.425.184-1.08.296-1.605-.254-.384-.496-.842-.229-1.284.317-.597 1.293-.497 1.493.133 1.815 2.982 3.576 6.138 6.551 8.123 2.44 1.593 5.26 2.536 8.089 3.178 2.762.717 5.599.392 8.286-.48 2.762-.804 5.102-2.485 7.293-4.303 1.789-1.501 3.308-3.428 4.105-5.638.546-1.831 1.03-3.691 1.51-5.542.109-.442.601-.701 1.026-.58.447.125.689.588.58 1.026-.071.288-.146.58-.221.867.063.226.059.488.034.73.358 1.797 1.677 3.24 3.216 4.141 3.972.071 7.935-1.084 11.206-3.378 3.48-2.281 6.446-5.496 7.673-9.528.371-1.577.709-3.211.859-4.85-.15-.221-.204-.509-.321-.755-.743-1.418-1.719-2.769-3.179-3.503-.447-.187-.88-.434-1.36-.484-.851.109-1.49-.066-1.636-.754-.012-1.289 1.565-.768 2.366-1.114 1.585-.567 3.108-1.355 4.56-2.197 7.034-3.912 10.497-12.602 6.955-20.029-.455-1.155-1.285-2.073-2.04-3.04l.016-.025Zm-2.344-22.023c.454 0 .821.409.813.855-.012.463-.4.813-.855.813-.455 0-.822-.408-.814-.854.013-.463.401-.814.856-.814Zm-.43 5.025c-.109-.596-.038-1.326.701-1.413 1.093-.063 1.005 1.292.934 2.047-.162 1.247-.63 2.427-1.089 3.586.017.451-.275.864-.746.91-.434.045-.893-.292-.918-.743.108-1.501 1.168-2.835 1.114-4.391l.004.004Zm-166.2102-5.892c-.4548 0-.8386-.367-.8428-.826-.0083-.45.3713-.842.8261-.842.4547 0 .8385.367.8427.826.0084.45-.3713.842-.826.842Zm7.6264 40.321c-.3003.321-.8594.362-1.1806.037-2.1862-1.872-4.1053-4.132-5.0899-6.872-.1836-.459-.3046-.926-.4089-1.405-.2545-.347-.1877-.86.146-1.135.3713-.3.8845-.229 1.1765.117.3797.438.3338 1.072.5549 1.589.6968 2.01 1.9192 3.795 3.442 5.271.5465.688 2.1653 1.359 1.3642 2.398h-.0042Zm1.9818 2.03c-.4548 0-.8428-.358-.8511-.817-.0084-.446.3629-.851.8177-.851.4547 0 .8427.359.8511.818.0083.446-.363.85-.8177.85Zm-.1085-66.383c-.4548 0-.8386-.367-.8428-.826-.0083-.45.3714-.842.8261-.842.4548 0 .8386.367.8428.825.0083.451-.3713.843-.8261.843Zm13.4173-5.755c-.267.455-.8094.5-1.26.321-.6049-.067-1.2182-.075-1.8231-.062-2.3322.296-4.5601 1.025-6.5251 2.268-.6258.384-1.2934 1.456-2.0652.73-1.2433-1.439 3.0039-3.115 4.001-3.553 1.8941-.701 3.9134-1.251 5.9493-1.093.8303 0 2.2571.238 1.7273 1.389h-.0042Zm37.4362-4.003c.688.092 1.36.229 1.948.609.884.596.067 1.943-.864 1.422-.972-.547-2.173-.426-3.254-.417-.455.02-.838-.38-.843-.826.05-1.309 2.136-.797 3.013-.792v.004Zm-24.2901 44.315c.4214-.796.872-1.563 1.5019-2.222.6884-.763 1.5687-1.289 2.4031-1.873.1294-.112.2379-.25.3255-.396.2461-.384.7551-.517 1.1473-.275 1.5645 1.414-2.0068 2.715-2.6868 3.707-.534.567-.9095 1.247-1.2683 1.931-.2128.4-.776.5-1.1473.275-.388-.229-.5049-.763-.2754-1.147Zm-1.2307 2.686c.4547 0 .826.396.8219.846-.0084.459-.3922.822-.847.822-.4547 0-.826-.396-.8219-.847.0084-.458.3922-.821.847-.821Zm1.068 62.384c-2.9079-2.643-4.4349-6.384-5.4612-10.1-.2211-1.013-.4631-2.035-.4965-3.077-.1585-.409.0292-.888.4339-1.068.9638-.358 1.3059.651 1.2516 1.406.484 3.344 1.6522 6.722 3.5504 9.499.5382.78 1.1682 1.476 1.8608 2.123.1585.167.2586.358.2628.592.0459.7-.9137 1.147-1.406.625h.0042Zm1.9734 1.885c-1.114-.325-.6008-1.964.5006-1.593 1.1181.33.5925 1.969-.5006 1.593Zm7.6932-44.386c-9.6583-3.878-11.4606-16.947-3.2041-23.273 8.8863-6.877 21.9073-.409 21.8153 10.813 0 9.474-9.867 16.046-18.6112 12.46Zm33.9642-66.104c1.269-.909 2.729-1.472 4.198-1.848.529-.146 1.068-.283 1.618-.162.443.1.714.579.605 1.013-.117.463-.592.709-1.043.6-.692.092-1.36.338-2.027.538-1.498.513-2.858 1.46-4.056 2.444-.463.48-1.013 1.055-1.66.463-1.022-1.134 1.619-2.452 2.365-3.053v.005Zm-3.842 4.203c.455 0 .839.367.843.826.008.45-.372.842-.826.842-.455 0-.839-.367-.843-.826-.008-.45.371-.842.826-.842Zm5.207 111.12c-.455 0-.839-.367-.843-.825-.004-.451.371-.843.826-.843.455 0 .839.367.843.826.004.45-.372.842-.826.842Zm10.868-1.251c-2.341.847-4.836 1.364-7.335 1.193-1.093-.025-1.114-1.639-.016-1.668 1.523.129 3.02-.092 4.506-.392 1.093-.275 2.152-.613 3.17-1.063.409-.292 1.006-.221 1.264.229.534 1.038-.859 1.443-1.593 1.701h.004Zm-7.009-43.502c0-.455.38-.834.834-.834.455 0 .835.379.835.834 0 .455-.38.834-.835.834-.454 0-.834-.379-.834-.834Zm13.655-4.616c-1.677 1.905-4.018 3.119-6.375 3.945-.784.183-2.094.959-2.474-.176-.229-1.05 1.043-1.1 1.744-1.338 1.936-.601 3.705-1.618 5.261-2.886.496-.463.922-1.259 1.694-.717.359.279.429.809.15 1.168v.004Zm-13.038 1.288c-8.398-.5-14.41-9.078-12.057-17.126 3.171-11.293 18.29-13.482 24.532-3.549 5.861 9.349-1.486 21.505-12.475 20.675Zm52.685-64.59c.455 0 .822.408.813.855-.012.463-.4.813-.855.813-.455 0-.822-.409-.813-.855.012-.463.4-.813.855-.813Zm-12.399 11.121c1.527-2.151 3.254-4.161 5.144-6 .888-.905 2.002-1.531 3.008-2.286.363-.275.905-.166 1.164.196.267.38.167.889-.196 1.164-3.192 1.997-5.687 5.025-7.869 8.031-.484.568-.671 1.748-1.66 1.339-1.068-.588-.055-1.776.409-2.444Zm8.143 30.771c-.279.363-.813.43-1.168.151-.467-.409-.717-1.01-1.139-1.464-.58-.68-1.339-1.155-2.14-1.535-.718-.421-2.282-.354-2.053-1.534.113-.421.589-.734 1.023-.597 1.685.484 3.366 1.264 4.501 2.648.321.363.572.78.851 1.176.347.284.409.801.134 1.155h-.009Zm-9.416-6.096c.455 0 .835.379.835.834 0 .454-.38.834-.835.834-.455 0-.834-.38-.834-.834 0-.455.379-.834.834-.834Zm-14.994-39.02c.371-.312.897-.325 1.36-.358 1.448-.125 2.879.258 4.23.746.434.146.668.63.522 1.059-.146.434-.638.668-1.06.522-1.31-.488-2.703-.826-4.105-.609-.851.475-1.694-.722-.947-1.36Zm10.363 68.698s-.037 0-.058-.004h-.05c-9.579-.63-15.499-11.146-11.069-19.666 5.007-9.821 19.204-9.766 24.144.067 4.727 9.299-2.595 20.316-12.967 19.608v-.005Zm18.553 29.604c-1.293 3.878-2.611 7.986-5.469 11.026-.084.095-.176.183-.246.287-.172.396-.605.626-1.018.497-1.577-.776.4-2.115.913-2.932 1.506-1.91 2.337-4.208 3.246-6.435.321-.975.688-1.939.976-2.927.117-.438.618-.684 1.043-.555.447.134.672.601.555 1.043v-.004Zm.146-2.611c-.455 0-.822-.408-.813-.855.012-.462.4-.813.855-.813.455 0 .822.409.814.855-.013.463-.401.813-.856.813Zm16.471 4.404c-.926 1.272-2.236 2.16-3.617 2.869-.229.288-.667.384-1.001.229-.43-.196-.58-.684-.409-1.105.338-.646 1.156-.805 1.719-1.205.784-.488 1.485-1.109 2.028-1.86.713-.825 1.956.2 1.28 1.072Zm12.304-39.545c.455 0 .822.409.813.855-.012.463-.4.813-.855.813-.455 0-.822-.409-.813-.855.012-.463.4-.813.855-.813Zm.238 13.515c-.413.592-.889 1.143-1.423 1.627-.196.296-.601.437-.939.333-.446-.133-.671-.6-.555-1.042.126-.401.522-.63.789-.93 1.477-1.685 2.658-3.712 2.891-5.976.067-.947.259-1.902.084-2.848-.059-.413-.259-.863-.009-1.247.351-.609 1.39-.45 1.519.254.092.534.208 1.051.234 1.593.037 2.953-.731 5.897-2.583 8.24l-.008-.004Z"/><path fill="#000" d="M219.157 260.785c-.521-.667-1.03-1.355-1.702-1.881-.768-.596-1.569-1.159-2.386-1.693 1.422-1.017 2.991-3.094 3.312-3.82.601-1.226 1.148-2.477 1.694-3.732.926-2.844 1.168-5.951.743-8.911-.847-4.813-3.342-9.308-7.214-12.331a63.6786 63.6786 0 0 0-2.941-1.99c-.067-.037-.129-.058-.196-.079.079-.333.154-.663.221-1.001 1.577-6.505-.234-14.09-5.565-18.394-1.978-1.493-4.01-3.107-6.513-3.532-1.243-.317-2.495-.463-3.742-.479-.038-.009-.071-.017-.109-.021-.964-.067-1.723-.701-2.495-1.214-.037-.029-.075-.058-.112-.087a67.5196 67.5196 0 0 0-6.797-10.071c-4.051-4.958-8.79-9.345-14.064-12.977.292-.463.572-.935.831-1.422 3.692-5.859 6.408-12.402 7.63-19.229.547-2.86.697-5.775.927-8.674.959-9.228 1.547-18.452 3.759-27.53 1.222-5.98 3.512-11.743 6.808-16.889 3.805-6.6349 8.228-12.8776 12.738-19.0493 2.578-3.6405 5.048-7.3769 7.326-11.2092 1.961-3.4903 3.404-7.2518 4.23-11.1675.142-.2043.175-.4629.142-.7423.05-.2627.104-.5254.15-.7881 1.506-6.8515-.179-14.7037-8.523-14.8622-3.138.2752-6.221 1.3136-9.012 2.7481-2.716 1.3386-5.048 3.2568-7.355 5.1876-3.246 2.3352-6.083 5.2043-8.102 8.6738-2.299 3.703-4.131 7.6479-5.62 11.7388-2.099 5.5754-3.905 11.2801-4.915 17.1641-1.731 8.8362-2.574 17.8192-2.745 26.8132-.058 6.543.542 13.028.488 19.575-.217 8.611-.521 17.347-2.828 25.692-.789 3.298-2.191 6.367-3.86 9.303a1.1494 1.1494 0 0 0-.187-.121c-.643-.321-1.29-.634-1.945-.934-1.802-.842-3.654-1.564-5.519-2.248-.038-.012-.071-.02-.109-.029.126-.442.247-.888.359-1.33.472-2.114.601-4.278.534-6.439.109-4.245-.3-8.457-.818-12.664-.325-3.278-1.08-6.489-1.773-9.704-1.013-5.083-1.885-10.3-2.349-15.483-.55-17.54 1.811-35.7465 10.514-51.2509 1.494-2.748 3.275-5.3252 4.852-8.0232 1.727-2.6689 3.104-5.5421 4.844-8.1984 2.849-4.2326 6.321-8.115 8.461-12.7813 1.631-3.8198 2.286-8.1025 1.585-12.2142-1.197-9.5495-10.96-9.4703-18.232-7.0892-6.27 2.0476-11.548 6.1217-16.554 10.2876-4.515 3.4654-7.961 7.9983-11.611 12.3018-1.46 1.9891-2.62 4.1826-3.964 6.251-.784 1.2969-1.46 2.6605-2.069 4.0533.321-4.3411.976-8.6488 2.057-12.8731 1.815-8.0774 5.799-15.5335 7.276-23.6986.718-5.4086 1.69-11.647-1.923-16.2675-2.458-3.1234-5.203-4.5329-9.104-5.0917-2.662-.4795-5.503-.688-7.918.7465-1.277.6463-2.62 1.226-3.722 2.16-1.055.9175-1.869 2.0684-2.828 3.0776-2.466 2.4478-4.515 5.271-6.338 8.2193-1.31 2.3602-2.757 4.6496-3.867 7.1141-1.089 2.5688-2.161 5.1584-3.0167 7.8148-1.068 4.0283-1.8732 8.1191-2.4448 12.2433-.0125-.0583-.025-.1084-.0375-.1668-.6091-3.0942-1.3184-6.1633-2.4699-9.1116-1.7147-5.1751-4.9355-10.1959-9.9127-12.7271-1.0305-.4837-2.0151-1.0926-3.0915-1.4679-1.819-.5171-3.7382-.6839-5.6198-.4795-7.5013.7464-12.562 7.2142-15.3489 13.7029-.7969 2.1392-1.8608 4.1617-2.6243 6.3093-.388 1.251-.5507 2.5563-.7843 3.8407-1.3684 7.3477-1.7231 14.9789-.5966 22.385 1.2725 6.6388 3.4127 13.1441 6.3624 19.2283 1.5353 3.0525 3.4252 5.9048 5.2401 8.7947 4.4682 7.0433 10.0629 13.2898 15.1904 19.8498 5.0231 6.468 10.3925 12.673 15.2446 19.274 2.9745 3.953 5.5365 8.194 8.0605 12.448 3.4 6.038 6.191 12.36 8.106 19.049.476 2.043.655 4.161.672 6.259-.309.021-.638.125-.91.213-1.481.412-2.949.871-4.397 1.384-.096.033-.175.088-.242.15-.421-1.559-.951-3.09-1.631-4.562-1.836-4.479-5.111-8.094-7.522-12.243-1.7109-2.974-4.0848-5.471-6.4963-7.89-2.3613-2.431-4.6393-4.954-7.2843-7.089-3.7841-2.986-7.4972-6.055-11.3355-8.97-3.104-2.656-6.304-5.213-9.3621-7.919-4.3681-4.049-8.319-8.499-11.9696-13.198-6.4249-8.011-11.0517-17.2812-15.3531-26.5597-2.2446-4.9707-4.0928-10.1333-6.8213-14.8705-1.7147-2.9691-3.6338-5.9049-6.4708-7.9148-4.2221-3.357-7.5222-5.5129-13.167-4.608-3.4336.5755-6.137 2.9941-7.8685 5.9174-.9095 1.4136-1.9567 2.7564-2.7202 4.2618C1.314 67.1968.7423 69.5738.3711 71.9549c-.0793.5504-.1419 1.1009-.1961 1.6555-.0292.0834-.0543.1793-.0584.2877 0 .0501.0083.096.0167.1418-.4172 4.8206.1084 9.708 1.5603 14.3326.7176 2.7231 1.5854 5.4211 2.8787 7.9315 1.2516 2.4645 2.8537 4.737 4.3264 7.077 6.7921 10.642 17.1471 18.331 27.6065 25.108 4.681 3.111 9.508 5.98 14.5062 8.548.3629.221.7301.442 1.093.663.0167.021.0292.042.0459.063.1335.125.2754.192.4172.221 4.1304 2.506 8.3608 5.042 12.5787 7.389 3.2459 2.048 6.7337 3.653 9.9963 5.672 6.0786 3.974 12.1239 8.056 17.2556 13.265 1.4435 1.384 2.5825 3.023 3.8132 4.595 1.2892 1.668 2.4657 3.424 3.3335 5.35.1168.247.2253.493.3296.743-.2504.237-.5007.496-.7552.646-.3296.171-.655.409-.801.705-1.0847.655-2.1528 1.338-3.2 2.056a1.047 1.047 0 0 0-.2878.196c-7.3762 5.091-13.7386 11.651-18.5698 19.195-1.2934 2.01-2.4699 4.099-3.5421 6.234-.1168.158-.1669.346-.1585.53-.5841-.046-1.1682-.08-1.7565-.096-3.4711-.025-7.1967.146-10.3091 1.826-2.6492 1.718-5.6656 3.303-7.4179 6.026-.9512 1.38-1.1765 3.069-1.1348 4.708-.1669 2.656.2337 5.267 1.2433 7.731-.9971.413-2.1152 1.289-2.545 1.664a19.6818 19.6818 0 0 0-2.0317 2.043c-.2003.159-.3714.338-.4464.543-.3714.467-.7302.946-1.0556 1.451-1.6646 3.023-2.5449 6.572-2.4615 10.029.2712 5.684 3.0998 11.609 7.13 15.613-4.5725 4.616-7.18 11.58-5.2985 17.893 1.7022 4.029 4.3932 7.74 7.9186 10.371.2795.221.5716.417.8678.601-.5632.83-1.0263 1.989-1.3601 2.456-.1502.359-.2921.726-.4297 1.093-.267.337-.4339.684-.3672 1.009-1.1723 3.394-1.8524 7.001-1.5228 10.579 1.0639 9.133 7.8977 16.652 17.3599 16.935 2.4991.2 5.044.229 7.518-.225 1.4561-.296 2.8996-.655 4.3849-.759.05-.017.0959-.033.1418-.054.3046.383.6258.755.9721 1.105 3.5003 3.707 8.1605 6.668 13.3964 6.851 4.731.363 9.612-1.301 13.217-4.37 1.043-.892 2.099-1.81 3.062-2.802.405.629 1.056 1.251 1.402 1.643 4.043 4.107 9.859 5.688 15.428 6.38 9.425 1.168 18.716-2.606 26.021-8.415.013-.009.017-.021.03-.029 3.742 4.432 9.741 6.555 15.465 6.997 4.794-.025 9.433-2.023 13.038-5.129 1.752-1.305 3.187-2.99 4.301-4.863.192-.312.355-.642.505-.975 1.356.567 3.726.709 4.439.742 5.724.363 11.273-2.048 15.504-5.817 3.667-3.09 5.936-7.661 6.27-12.436.255-1.964.409-3.982-.096-5.925-.171-.551-.208-1.714-.613-2.331.079-.046.154-.088.217-.121 7.409-3.966 11.573-13.119 8.352-21.118-.546-1.734-1.564-3.219-2.741-4.587v-.012Zm-8.273-188.9761c-.934 1.9099-2.044 3.7239-3.221 5.492-2.207 3.407-4.422 6.8056-6.871 10.0458-3.421 4.7664-6.834 9.5578-9.783 14.6373-1.936 3.04-3.705 6.201-5.132 9.503a.8558.8558 0 0 0-.359.184c-.509.525-1.352.83-1.998.367-.075-.071-.155-.138-.201-.234-.054-.117-.133-.212-.233-.292-.926-3.261-.417-6.926.868-10.058 1.422-3.2609 3.567-6.1591 5.365-9.2492 1.026-1.7973 1.656-3.7822 2.165-5.7839 1.022-4.4411 1.206-9.0991 2.966-13.3568 2.37-5.5128 7.598-9.2534 12.75-11.989 1.039-.442 2.149-.7714 3.284-.9883.221.171.521.2669.759.3628 1.101.3962 2.345 1.0133 2.72 2.2143.004.0209.008.0417.013.0626-.643 3.14-1.652 6.2009-3.088 9.0699l-.004.0125ZM163.498 176.916c1.485-2.252 2.737-4.65 3.776-7.139 2.153-5.509 3.275-11.41 3.734-17.294.717-7.518.909-15.074.505-22.614-.443-7.602-.292-15.229.379-22.814 1.39-14.0704 4.435-28.2779 11.336-40.7881 1.251-2.231 2.728-4.5037 4.497-6.3886 1.535-1.6138 3.25-2.8023 5.011-4.2326 2.39-2.0809 4.994-3.9032 7.91-5.1626 2.457-.9341 5.086-1.9599 7.756-1.7473 3.621.3962 5.957 3.5529 6.174 7.0391.088.7757.101 1.5596.059 2.3395-.238-.0209-.48-.0167-.684-.0042-2.136.0042-4.277.3211-6.3 1.0175-1.648.5379-3.129 1.4637-4.569 2.4061-3.066 1.9892-5.957 4.3244-8.148 7.2727-2.728 3.6863-3.588 8.3401-4.276 12.7771-.492 3.4654-1.181 6.9849-2.941 10.0541-3.079 4.9874-6.88 10.1293-6.809 16.2713-.038 1.731.263 3.449.922 5.055.451 1.205.91 2.514 2.107 3.173l-.046-.033c.075.054.146.091.221.121-.179.583-.35 1.167-.505 1.759-2.478 9.304-3.458 18.87-4.318 28.432-.354 2.856-.45 5.742-.788 8.599-.534 4.587-1.84 9.028-3.622 13.277-1.126 2.894-2.72 5.597-4.334 8.236-1.043 1.914-2.32 3.657-3.843 5.221-1.569 1.697-3.1 3.378-5.111 4.633-.771.488-1.539 1.08-2.44 1.28-.125-.112-.296-.187-.513-.204-.284-.004-.53-.117-.751-.279-.009-.071-.021-.146-.046-.226-.042-.091-.071-.179-.1-.271-.017-.083-.038-.158-.055-.233-.125-.697.134-1.36.639-1.918.3-.463.984-.918 1.064-1.452 1.493-1.96 2.749-4.103 4.101-6.163h.008Zm15.595-133.8974c-2.286 5.9049-7.088 10.4127-10.163 15.8922-3.68 6.9182-8.528 13.2025-11.544 20.471-4.272 9.8873-6.479 20.5168-7.247 31.2552-.079.121-.138.258-.171.404-.726 1.38-1.239 1.531-2.72 1.063-.567-.087-1.035-.437-1.51-.733-.217-.192-.472-.388-.739-.48-1.105-1.201-2.173-2.469-2.883-3.937-2.707-5-3.129-10.9294-1.668-16.4005.771-2.794 2.311-5.3044 3.892-7.7064 3.634-5.0958 8.757-9.3701 11.202-15.2875 2.845-6.7389 1.736-14.8622 6.212-20.9505 3.417-4.1201 8.54-7.1059 13.935-7.2351.776.3961 1.639.6422 2.319 1.226.447.4337.914 1.0008 1.056 1.6138.025.1835.05.3711.067.5546-.03.0834-.038.1668-.038.2502Zm-49.564 19.4243c.922-2.4729 1.915-4.929 3.271-7.2017 1.143-1.8307 2.249-3.6906 3.409-5.5087 2.586-3.1818 5.148-6.4095 8.018-9.3494 2.041-1.9724 4.214-3.7239 6.459-5.5128 3.483-2.8232 7.117-5.3419 11.285-7.0892 4.956-2.0767 13.989-4.0283 17.214 1.6389 1.189 2.7022 1.46 5.7047 1.114 8.6321-1.026-.1543-2.061-.2294-3.096-.2919-6.688-.5463-13.284 3.2067-17.226 8.4611-4.735 6.9807-2.925 16.3092-7.36 23.4192-2.044 3.2443-4.543 6.1884-7.142 8.999-2.395 2.8148-4.439 5.9633-5.912 9.3577-2.749 7.1142-2.015 15.6208 2.407 21.9058.78.905 1.536 1.78 2.324 2.702.159.167.321.325.488.484 1.99 2.005 3.993 4.095 4.89 6.847.033.096.088.179.154.254.004 1.768.042 3.532.113 5.292.605 6.56 1.823 13.048 3.246 19.474.801 3.954 1.176 8.17 1.556 12.206.063 3.808.392 7.682-.346 11.447-.768 3.128-1.832 6.147-3.542 8.916-1.323 1.814-3.346 3.102-5.562 3.49-.496.084-1.11.167-1.76.205-.276-.417-.856-.684-1.098-1.135-1.272-1.718-1.827-3.432-1.347-5.558.092-.68.509-1.285.563-1.965 2.67-5.525 3.993-11.467 4.039-17.743.329-12.256-2.829-24.233-6.279-35.892-2.937-9.829-5.854-19.6747-7.965-29.7205-2.073-8.2859-2.507-16.9639-2.286-25.4875 0-.0751.004-.1502.004-.2252.154-.3336.213-.734.371-1.0551l-.004.0042Zm7.009-53.4105c.138.05.267.071.397.075 1.118 3.0526.813 6.4887.484 9.6997-.906 9.1909-5.691 17.4059-7.627 26.3633-1.927 7.3519-2.365 14.9664-2.378 22.5393.075 6.3803.455 12.8189 1.756 19.074 0 .0125-.008.025-.008.0417-.321 1.0175-1.197 1.8223-2.224 2.1268v.0083c-.116.0125-.225.0542-.325.1126-.801-.0209-1.61-.1335-2.366-.2794-5.377-.9466-8.84-6.5429-9.241-11.7096-.242-4.07.584-8.1567 1.986-11.9682 1.586-3.7947 4.001-7.2059 5.391-11.0924 1.735-5.0667 2.57-10.4628 2.311-15.8213-.384-5.1542-1.423-10.3001-.739-15.4836.397-4.2243 1.965-7.9273 5.412-10.5461 2.04-1.6055 4.476-3.2402 7.175-3.14h-.004Zm-36.046 25.7503c.697-4.2451 2.211-8.1525 3.913-12.1016 2.75-5.8047 6.1-11.3343 10.676-15.9005.685-.7757 1.31-1.6055 2.095-2.281 1.251-.9717 2.728-1.6056 4.151-2.2894 1.302-.638 2.791-.6214 4.201-.4588 2.9.2753 5.253.8132 7.272 2.1685.075.1084.171.2043.296.271.176.3503.217.7798.196 1.1677-.208 1.151-.859 2.181-1.689 2.99-.213.2668-.664.542-.997.8673-2.658 1.6305-5.049 4.0533-6.179 6.0258-3.863 7.331-1.932 15.8296-1.369 23.6777.113 5.9007-.88 11.9307-3.412 17.2851-1.828 3.7572-4.239 7.2893-5.199 11.4051-1.176 4.4746-1.794 9.3577-.2 13.8072 1.11 3.3403 3.505 6.1801 6.533 7.9565 1.452.9008 3.225 1.1176 4.894 1.3261.655.0459 1.314.0376 1.969-.0083 1.181.442 2.17 1.3261 2.796 2.4186.021.1877.112.3587.242.4921 3.442 14.9872 8.861 29.4702 11.923 44.5452 1.577 9.954 2.566 20.458-.888 30.137-1.556 3.907-3.659 7.598-6.066 11.051l-.063.075c-.346.246-.617.704-.993.913-1.769 1.184-4.785.575-5.853-1.284a.7608.7608 0 0 0-.117-.117c-.309-1.172-.1-2.461.375-3.591 1.089-2.443 2.387-4.774 2.633-7.497.563-6.301-.809-12.598-2.658-18.591-.204-.654-.425-1.305-.65-1.951.73-.505 1.468-1.41 1.827-1.814 2.874-3.557 3.329-8.903 1.143-12.911-2.449-5.062-7.66-8.932-7.981-14.879-.15-1.472-.3-3.002-.926-4.387-1.757-4.166-5.733-7.427-10.334-7.648-.046.009-.096.017-.146.025-.305-.241-.797-.329-1.169-.458-1.059-.442-1.769-1.393-2.486-2.265a.9395.9395 0 0 0-.134-.121c-1.798-4.6659-3.258-9.4616-4.681-14.2613-3.029-9.7413-4.8143-19.8288-5.2523-30.0497-.0793-7.9815.6049-15.8964 2.3073-23.732v-.0083Zm18.657 97.6133c-.05-.246-.217-.471-.53-.592-.726-.271-1.506-.379-2.228-.663-1.134-.48-2.094-1.322-2.837-2.319-.913-1.025-1.618-2.235-1.923-3.582-.183-.592-.1-1.297-.467-1.814-.296-.346-.826-.396-1.177-.1-.287.246-.371.659-.217.988.151 1.064.397 2.123.86 3.099.876 1.743 2.165 3.394 3.763 4.524 1.097.793 2.407 1.051 3.671 1.439.234.079.443.058.614-.021-.292.434-.693.88-1.11 1.16-.188.079-.375.179-.534.3-6.65-.797-8.745-7.661-9.237-14.124-.434-6.848-5.912-11.614-9.5623-16.943-4.026-5.6258-5.8825-12.5815-2.8036-19.0952.2962-.7173.6592-1.3928 1.0681-2.0433a.7932.7932 0 0 0 .3045-.146c.1377-.1001.2504-.2377.4047-.3169.9638-.2919 2.1445-.1668 2.7956.688 0 0-.0337-.05-.0337-.0542a.8541.8541 0 0 0 .2047.2294c.88 3.4695 1.877 6.9098 2.962 10.3084 1.66 5.5046 3.538 10.9338 5.999 16.1338 2.992 7.24 6.705 14.145 10.205 21.147a.8443.8443 0 0 0-.012.208c.033.555-.009 1.072-.176 1.581l-.004.008Zm-8.231-23.002c.067-.271.096-.576.129-.83.129-.471.438-.834.855-1.08.188 0 .368-.042.526-.117 3.446.409 6.488 2.64 8.052 5.813 1.631 2.961.751 6.597 2.47 9.55 3.192 6.735 10.764 11.359 7.088 19.779-.142.296-.304.583-.471.863-.1.029-.2.079-.284.15-.517.479-1.318.734-1.998.488-.071-.029-.146-.05-.217-.084-1.373-3.486-2.925-6.905-4.406-10.337-3.88-8.094-8.269-15.905-11.74-24.199l-.004.004ZM72.7477 94.7945a2.2832 2.2832 0 0 0-.2378-.0251c-2.1945-3.115-4.1887-6.3719-6.1496-9.637-4.0719-7.2685-6.7504-15.4127-7.9811-23.6695-.6884-7.6479-.1168-15.5586 1.648-23.1023.6925-1.9682 1.698-3.8156 2.403-5.788 1.2058-2.8065 2.7786-5.6422 4.8313-7.9649.2503-.1835.5674-.2586.8594-.3628.6842-.246 1.4352-.2544 2.157-.1126.2503 0 .5006.0125.68.2127 0 0 .0042 0 .0042.0083.0334.0417.0667.0793.1043.1084.05.0459.1001.0876.1544.121 1.0889 1.5012 1.9775 3.1526 2.4781 4.9457.3588 1.2635-.0542 2.5396-.388 3.7572-.5423 2.0392-1.4727 4.1868-1.9024 6.3011-.8052 4.8748-.6759 10.25 1.7481 14.6703 2.1486 4.02 5.9076 6.7764 8.6403 10.3502 5.6197 7.2267 5.5029 14.9623.267 22.3892-.993 1.3719-1.9984 2.7481-3.1791 3.9699-.6634.6172-1.3267 1.2344-1.9692 1.8765-.2044.0334-.4005.146-.5507.3754a48.3278 48.3278 0 0 1-.4172.5462c-.4965.2127-1.0097.6839-1.5061.7548-.5382.2085-1.1223.3795-1.6981.2794l.0042-.0041Zm39.9353 55.9835c-5.487-12.089-13.4511-22.819-21.9705-32.927-5.0606-6.43-10.2131-12.786-15.2905-19.1992.2003-.5588.2044-1.3344.4339-1.7973.267-.538.6133-1.0217.9763-1.4929.4923-.5588 1.0138-1.0967 1.5394-1.6305 5.4237-4.9708 10.0714-12.1558 9.2286-19.7913-.751-6.5011-5.0273-11.4802-9.5289-15.8838-3.2459-3.2986-5.3736-7.4895-5.382-12.1767-.0918-2.4645-.0167-4.8415.6717-7.2518.7635-2.5979 1.9066-5.1375 2.1486-7.8564 0-2.3936-1.6271-5.638-3.4503-7.8731-.2378-.5964-.2837-1.3094-.0959-1.8974a.6918.6918 0 0 0 .05-.1752c.9387-.4795 1.9442-.8632 3.0164-1.1217 2.8829-.6589 6.0328-.417 8.5944 1.1342 2.4741 1.0968 4.5684 2.8774 6.1747 5.0417 2.6784 3.4611 4.0093 7.7105 5.1983 11.8639.2837 1.1843.4923 2.3811.7594 3.5696.317 1.693.9512 3.2818 1.1556 4.9957a.8326.8326 0 0 0 .0918.2461c-.2503 2.698-.4089 5.4044-.4673 8.115-.1543 7.5437.7301 15.0456 2.2613 22.4267-.5132.3211-1.0138 1.0509-1.3518 1.4554-1.5853 1.8556-3.0205 3.8656-3.8466 6.18-1.8858 4.2785-1.7356 9.0491-.2211 13.4152 1.5186 4.2998 4.3973 7.9068 7.2095 11.4298 2.119 2.736 4.343 5.559 5.186 8.983.538 2.644.534 5.375 1.26 7.985.742 2.573 1.827 5.238 3.759 7.144 1.981 1.755 4.551 2.886 7.221 2.848 1.269-.025 2.616.063 3.814-.417.033-.017.066-.038.096-.058 1.368 3.123 2.691 6.309 3.971 9.462 2.024 5.183 3.451 10.671 4.056 16.213.4 5.438.146 7.735-2.37 12.631-.384.922-.663 1.881-.776 2.873-.038.405-.029.809.021 1.214-.134-.025-.271-.021-.405.029-.709.317-1.477.413-2.244.442-.948.133-1.911.183-2.821-.158-.688-.092-1.36-.301-1.931-.668a.6252.6252 0 0 0-.084-.058c-.3-.209-.576-.459-.801-.767-.772-1.101-.884-2.331-1.139-3.691-.108-1.66.275-3.378.209-5.054-.042-3.007-.455-6.017-1.523-8.841-.972-3.031-2.053-6.034-3.413-8.919l.009.008Zm-60.7872-23.29c-.0625.555-.1752 1.101-.3212 1.635-.0668.062-.1335.133-.1878.225-.9095 1.676-2.6409 3.219-4.5934 3.432h-.1085c-1.9858-1.089-3.9509-2.215-5.8283-3.495-10.5136-6.659-21.0939-13.844-28.5952-23.949-3.2292-4.762-6.7212-9.5324-8.3149-15.1412-.6508-2.2768-1.3267-4.5829-1.7981-6.9098-.2963-1.7306-.434-3.4904-.4631-5.2501.0792-.0668.1543-.1376.2252-.2044 1.164-.9674 2.762-1.7597 4.3056-1.4095.1585.1251.3213.1794.4798.1877 2.5491 1.4053 4.9564 3.4361 6.1162 5.5337.922 1.8432 1.2516 3.8907 1.7481 5.8715.7843 3.6071 2.4907 6.9307 4.6351 9.9206 1.5646 2.2565 3.6673 4.0655 5.8993 5.6425 3.5087 2.769 7.5431 4.691 11.5524 6.618 4.4766 2.389 9.5623 4.361 12.6538 8.582 1.5771 2.606 2.8203 5.621 2.5909 8.719l.0041-.008Zm46.2555 41.196c-3.9509-5.621-9.1743-10.179-14.7899-14.082-4.4391-3.224-9.0492-6.193-13.9513-8.674-5.14-3.044-10.4343-5.884-15.4741-9.103-.2378-.146-.484-.284-.7218-.426-.8553-1.234-1.2057-2.769-.9596-4.245.9805-2.164 1.5812-4.541 1.2516-6.922-.5548-3.524-2.0609-7.068-4.6768-9.55-3.9551-3.665-9.0659-5.7-13.8053-8.135-4.1721-1.91-8.0354-4.408-11.5482-7.352-3.0081-2.7108-5.1776-6.2971-6.5919-10.071-1.1681-3.3987-1.2558-7.2685-3.5087-10.2168-2.5908-2.9816-6.0828-5.346-9.8919-6.4553-.3671-.0583-.9762-.2418-1.577-.3377.4214-3.6947 1.5144-7.3102 3.83-10.2835 1.4893-2.2643 2.9954-4.7414 5.6447-5.7672 2.1069-.9007 4.51-.9049 6.7295-.4629 1.8023.4295 3.3585 1.4721 4.8479 2.5313 2.1778 1.6138 4.535 3.2693 6.0704 5.6671 4.3681 6.2051 6.6502 13.5111 9.9002 20.3 4.1136 8.678 8.5736 17.306 14.6314 24.808 3.4419 4.399 7.1384 8.69 11.2436 12.502 3.4754 3.277 7.2719 6.205 10.9058 9.307 3.3334 2.461 6.4917 5.142 9.7542 7.698 2.8537 2.173 5.286 4.817 7.7725 7.386 2.2029 2.239 4.4474 4.474 6.1163 7.16 2.0651 3.719 4.9101 6.943 6.8751 10.713 2.62 4.779 3.659 10.208 3.868 15.608.004.63.037 1.264-.071 1.885-.159.242-.179.584-.029.838-.38 1.264-.626 1.326-1.928 1.368-4.823-.304-4.939-3.478-5.74-7.252-.772-3.073-2.283-5.921-4.1809-8.444l.0042.008Zm-16.8217 25.05c.0417-.129.1001-.259.1502-.384 4.1011-5.183 8.9449-9.716 14.4103-13.465.3421-.113.6925-.275.9971-.321 1.7314-.042 3.9298.309 4.7478 2.06.021.138.067.254.129.354.935 2.332 2.983 3.716 5.599 4.054 1.915.158 3.684-.2 4.143-2.331a.851.851 0 0 0-.058-.642c.45-.893.308-1.923.313-2.89-.055-1.16-.134-2.319-.267-3.474-.096-.892-.213-1.785-.363-2.669.133-.117.246-.271.325-.45.705-1.372 2.666-1.489 3.83-.638.204.133.338.333.442.55v.059c.113 1.134.371 2.264.73 3.344.355 1.009 1.06 1.914 1.94 2.544.205.2.442.367.684.529.806.526 1.703.851 2.646 1.076 1.234.267 2.528.1 3.75.434 1.077.325 1.978 1.022 3.008 1.447 1.102.438 2.282.713 3.471.68 1.202.02 2.633-.405 3.309-1.456.329-.212.617-.492.872-.784.5-.567.951-1.176 1.377-1.801v.025c.233 1.931 2.236 2.961 3.98 3.232 4.122.554 8.653-1.076 10.93-4.671.676-1.138 1.265-2.335 1.778-3.569.117.012.233.008.346-.03 2.324-.563 5.436.376 6.221 2.807-.718 1.426-1.89 2.635-2.921 3.832-1.264 1.326-3.212 2.932-2.653 4.975.254.726.713 1.472 1.314 2.035.046.096.092.192.142.288 2.49 3.044 8.185-2.29 10.434-4.704.609-.1 1.331-.521 1.865-.605 1.952-.554 4.56-.7 6.275.538.046.029.091.054.142.071 4.13 3.482 7.83 7.465 11.005 11.843.005.063.013.129.025.192.401 4.458-1.764 9.604-5.928 11.668-.259.146-.522.246-.78.35-.835-.796-1.711-1.555-2.633-2.243-.158-.121-.317-.234-.48-.351-.141-.166-.292-.312-.479-.429-.067-.029-.138-.042-.209-.054-.484-.326-.985-.634-1.489-.922-.063-.046-.13-.087-.201-.117-6.95-3.865-15.77-4.278-22.721-.129-.342.217-.876.55-1.268.938-1.281-1.217-2.641-2.343-4.101-3.327-1.202-.701-2.562-.993-3.909-1.264-2.14-.63-4.398-.63-6.605-.438-4.706.672-9.412 2.381-12.866 5.742-.572.551-1.177 1.072-1.773 1.602-.885-1.034-1.986-1.86-3.217-2.448-7.981-4.149-18.3486-4.087-25.8166 1.163-.6341.488-3.4961 2.502-4.3472 3.954-.5758-.43-1.1849-.822-1.8399-1.16-.655-.354-1.3392-.638-2.0318-.896-1.8357-1.372-2.6159-3.703-3.0039-5.918-.4964-2.598-.0584-5.287.6217-7.831l.0083.025Zm131.6284 91.175c-1.448.842-2.975 1.63-4.56 2.197-.801.347-2.378-.175-2.366 1.114.15.688.789.863 1.636.755.479.05.917.296 1.36.483 1.46.734 2.436 2.085 3.179 3.503.117.25.171.538.321.755-.15 1.639-.488 3.278-.86 4.85-1.23 4.032-4.192 7.252-7.672 9.528-3.271 2.294-7.23 3.449-11.206 3.378-1.539-.901-2.862-2.343-3.217-4.141.025-.246.03-.504-.033-.729.075-.288.154-.576.221-.868.109-.442-.133-.901-.58-1.026-.425-.116-.922.142-1.026.58-.484 1.852-.964 3.711-1.51 5.542-.793 2.21-2.316 4.137-4.106 5.638-2.19 1.814-4.526 3.499-7.292 4.304-2.687.875-5.52 1.201-8.286.479-2.825-.642-5.649-1.585-8.09-3.178-2.974-1.98-4.735-5.141-6.55-8.123-.2-.63-1.176-.734-1.493-.133-.263.442-.025.9.229 1.284-.113.526-.079 1.18-.296 1.606-.676 2.005-1.944 3.794-3.334 5.391-.471.588-.984 1.135-1.489 1.689-.067.042-.129.092-.188.142-.179.088-.359.179-.542.267-5.582 2.711-11.991 3.757-18.124 2.706-3.174-.508-6.32-1.334-9.141-2.898-.342-.467-.7-.926-1.017-1.405-1.085-1.893-1.69-4.087-1.527-6.293-.046-.571.379-1.259.363-1.826.267-.492.534-.984.821-1.464.284-.421.58-.83.889-1.23.63-.909-.718-1.831-1.36-.968-1.911 2.357-2.787 5.371-4.723 7.715-1.798 2.002-3.788 3.912-6.07 5.35-2.808 1.502-5.9077 2.611-9.1619 2.411-5.4154-.021-9.7751-2.924-13.3673-6.756-.9971-1.067-1.6938-2.369-2.4114-3.628-.9304-1.801-1.8441-3.653-2.1403-5.68-.0751-.446-.5131-.759-.9595-.683-.4631.075-.7719.533-.6801.992.1544 1.013.4423 1.997.8136 2.948.0125.1.0333.205.0751.313-.1961 1.993-1.7815 3.682-3.3961 4.741-.5257.259-1.0555.526-1.602.734-.1836.025-.3547.096-.4923.201-4.0511.025-8.0604-.501-11.5065-2.928-4.2806-2.965-6.7212-7.898-7.2719-13.027-.2295-3.036.4005-6.039 1.285-8.928.0959-.363.2211-.734.3588-1.101.4172-.484.8469-.964 1.4018-1.285 1.2265-.621 2.8161-.909 4.1136-.379.0083.004.0125.008.0209.012.0709.055.1418.1.2127.155.6092.4 1.4436-.267 1.2225-.947-.0668-.246-.2462-.409-.4506-.542-.071-.063-.1544-.121-.2462-.179-.3713-.267-.7343-.551-1.1264-.784-1.2892-.776-2.6743-1.193-3.9259-2.065-1.9442-1.28-3.588-2.96-4.9689-4.829-.751-.925-1.4352-1.897-1.94-2.977-.8052-1.397-1.4936-2.873-1.5854-4.512-.4965-6.218 2.7744-12.427 7.8309-15.996 1.4102-1.005 2.7786-2.119 4.4432-2.678.4298-.171.968-.192 1.285-.567.3713-.479.1043-1.197-.4756-1.334-.68.083-1.3267.275-1.9525.538-.2044-.025-.4214.029-.6175.2-1.1848.367-2.4448.479-3.6922.421-1.4227-.125-2.9163-.442-4.2054-1.097a4.4623 4.4623 0 0 1-.8345-.483c-.3087-.568-.6049-1.139-.9011-1.698-1.7564-3.557-2.666-7.702-1.8566-11.659.3505-1.677.8511-3.332 1.5729-4.883.4297-.801.9554-1.539 1.5436-2.231 1.7898-1.218 4.364-1.572 6.1246-.196.0084 0 .0167 0 .025.004.4172.7.7385 1.443.8011 2.293.2586 1.068 1.8315.709 1.6312-.362-.2086-2.477-2.2153-4.154-3.1791-6.322-.7593-1.889-1.4977-3.845-1.5228-5.905.0418-1.622-.1585-3.315.3088-4.887 1.2432-3.066 4.4474-4.638 7.0591-6.393 2.4531-1.522 5.5029-1.672 8.3232-1.835 2.328-.013 4.6143.171 6.9256.625 2.2988.568 4.4975 1.46 6.7212 2.261.1377.083.2837.146.4547.162.0084 0 .0125.004.0209.009 2.5658.938 4.7436 2.819 6.4082 4.962.7927.955 1.4102 2.043 2.2071 2.99.8677.838 1.9984-.459 1.1306-1.243-.2629-.375-.5257-.755-.7927-1.13-.0125-.15-.0709-.304-.1919-.446-.4589-.813-.7468-1.722-.8762-2.644-.2628-1.009-.4756-2.127.0376-3.094.1043-.213.2211-.438.292-.663.3714-.296.751-.58 1.114-.847 6.0536-4.378 14.1763-4.829 21.1563-2.518.192.15.426.283.638.417.555.467 1.102.963 1.532 1.551.934 1.184 1.547 2.89 1.314 4.391-.105.188-.146.396-.13.596-.329.613-.634 1.235-.922 1.864-.671 1.614-1.226 3.278-2.052 4.825-.209.405.021.926.417 1.105.413.192.897-.008 1.106-.417.805-1.526 1.36-3.165 2.019-4.758.747-1.626 1.577-3.269 2.77-4.612 2.015-1.814 3.918-3.82 6.216-5.288 3.1-1.809 6.659-2.894 10.264-3.102 2.127-.154 4.193.304 6.245.813 2.453.542 4.201 2.502 6.008 4.112 1.064 1.021 2.115 2.164 3.096 3.357 1.785 2.164 3.183 4.662 3.729 7.435.055.571-.037 1.288.735 1.43 1.915.046.538-3.106.212-4.12-.559-1.643-1.355-3.182-2.436-4.537-.263-.354-.534-.7-.809-1.051.054-.383.041-.821.158-1.151.488-1.86 1.828-3.523 3.509-4.441 1.69-.421 3.429-.634 5.182-.663 3.763.075 7.447 1.143 10.726 2.961.108.163.217.325.304.513.514.976 1.006 1.985 1.052 3.115.137 1.551-.296 3.065-.939 4.47-.338.822-1.619 2.252-.442 2.832.313.354.901.471 1.289-.009 1.565-1.918 3.217-3.794 5.082-5.437 1.034-.839 2.131-1.635 3.283-2.361.363-.1.751-.354 1.131-.684 3.525-2.018 7.48-3.311 11.548-3.027 1.602.167 3.246.409 4.71 1.109 1.489.876 2.904 1.852 4.226 2.978 2.395 2.126 3.805 5.154 4.565 8.223.655 3.249.317 6.572-.576 9.746-.501 1.722-1.081 3.444-2.103 4.937-.158.137-.254.288-.3.442-.614.88-1.227 1.768-1.861 2.631-.463.584-1.323 1.501-.413 2.102.509.313 1.047-.038 1.297-.513.539-.705 1.064-1.418 1.561-2.152.338-.421.642-.863.934-1.309l.004-.004c2.637-1.222 5.72-.672 8.265.546 1.006 1.401 1.811 2.957 2.362 4.679 1.372 3.928 1.322 8.448-.443 12.252-.104.266-.212.529-.325.792-.238.167-.459.379-.634.563-.668.5-1.306 1.059-2.057 1.439-1.277.629-2.691 1.055-4.126 1.017-.538-.029-1.085-.158-1.623-.171-1.444-.692-3.004-1.084-4.502-1.63-.517-.301-1.247-.459-1.568.183-.438 1.013.83 1.309 1.539 1.585 1.131.358 2.27.7 3.363 1.171 2.82 1.251 5.707 2.886 8.173 4.75.68.48 1.164 1.164 1.677 1.806.751.963 1.585 1.885 2.04 3.04 3.546 7.427.079 16.121-6.955 20.029l-.016.025Z"/><path fill="#000" d="M91.2386 248.767c-8.2565 6.326-6.4542 19.395 3.2041 23.273 8.7443 3.586 18.6073-2.986 18.6113-12.46.092-11.222-12.929-17.69-21.8154-10.813ZM122.191 256.048c-2.353 8.048 3.659 16.626 12.057 17.126 10.989.83 18.336-11.326 12.474-20.675-6.241-9.933-21.365-7.744-24.531 3.549ZM181.597 254.455c-4.94-9.829-19.142-9.888-24.144-.067-4.431 8.515 1.489 19.032 11.068 19.666h.051c.02 0 .037 0 .058.004 10.372.709 17.694-10.308 12.967-19.608v.005ZM127.702 208.517c1.202-.984 2.558-1.931 4.055-2.444.668-.204 1.335-.45 2.028-.538.451.113.926-.137 1.043-.6.108-.434-.163-.913-.605-1.014-.551-.125-1.089.017-1.619.163-1.468.375-2.933.938-4.197 1.847-.747.597-3.387 1.919-2.365 3.053.646.592 1.197.017 1.66-.463v-.004ZM124.59 211.803c.455 0 .83-.396.826-.842-.008-.459-.388-.826-.843-.826-.455 0-.83.396-.826.842.008.459.388.826.843.826ZM107.067 206.77c1.081-.009 2.282-.125 3.255.417.93.521 1.748-.826.863-1.422-.588-.38-1.26-.522-1.948-.609-.872-.004-2.958-.521-3.012.792.004.442.388.847.842.826v-.004ZM70.0693 207.77c-2.0359-.158-4.0552.392-5.9493 1.093-.9971.438-5.2443 2.114-4.001 3.553.776.726 1.4394-.346 2.0652-.73 1.9692-1.247 4.197-1.972 6.525-2.268.605-.013 1.2183-.005 1.8232.062.4548.179.993.134 1.26-.321.5298-1.151-.897-1.393-1.7272-1.389h.0041ZM58.3583 213.242c-.4547 0-.8302.396-.826.842.0083.459.388.826.8427.826.4548 0 .8303-.396.8261-.843-.0084-.458-.388-.825-.8428-.825ZM48.8632 237.278c-.4547 0-.8302.396-.8261.842.0084.459.388.826.8428.826s.8302-.396.8261-.842c-.0084-.459-.388-.826-.8428-.826ZM55.146 276.869c-1.5186-1.481-2.741-3.261-3.4419-5.271-.217-.517-.1753-1.151-.5549-1.589-.2879-.342-.8052-.413-1.1765-.117-.3338.276-.4006.784-.1461 1.135.1043.479.2253.946.4089 1.405.9846 2.744 2.9037 5 5.0899 6.872.3212.321.8761.284 1.1807-.037.801-1.039-.8177-1.71-1.3643-2.398h.0042ZM58.4585 279.629c-.4548 0-.8261.401-.8177.851.0083.463.3963.817.8511.817.4547 0 .826-.4.8177-.85-.0084-.463-.3964-.818-.8511-.818ZM85.9191 313.32c-.6925-.647-1.3225-1.343-1.8607-2.123-1.8983-2.777-3.0665-6.155-3.5504-9.499.0584-.759-.2879-1.769-1.2516-1.406-.4047.18-.5966.659-.4339 1.068.0292 1.042.2753 2.064.4965 3.077 1.0263 3.716 2.5533 7.456 5.4612 10.1.4923.522 1.4477.075 1.4059-.625 0-.234-.1084-.426-.2628-.592h-.0042ZM87.2543 314.833c-1.1014-.371-1.6187 1.268-.5006 1.593 1.0972.376 1.6188-1.263.5006-1.593ZM140.974 318.082c-1.023.45-2.078.788-3.171 1.063-1.485.3-2.987.517-4.506.392-1.097.029-1.076 1.643.017 1.668 2.499.171 4.994-.346 7.334-1.192.734-.259 2.128-.663 1.594-1.702-.259-.45-.855-.521-1.264-.229h-.004ZM129.755 319.591c-.455 0-.83.392-.826.843.004.458.388.825.842.825.455 0 .831-.392.827-.842-.005-.459-.388-.826-.843-.826ZM186.628 302.623c-.426-.129-.922.117-1.043.555-.288.988-.655 1.952-.976 2.927-.906 2.227-1.74 4.525-3.246 6.435-.518.817-2.495 2.156-.914 2.931.409.134.847-.096 1.018-.496.071-.104.163-.192.246-.288 2.858-3.04 4.176-7.147 5.47-11.025.117-.438-.109-.905-.555-1.043v.004ZM187.375 299.387c-.455 0-.843.351-.855.814-.013.446.359.854.813.854.455 0 .843-.35.856-.813.012-.446-.359-.855-.814-.855ZM202.515 304.391c-.542.751-1.243 1.372-2.027 1.86-.564.401-1.381.559-1.719 1.205-.171.422-.021.91.409 1.106.333.154.772.058 1.001-.23 1.381-.709 2.695-1.597 3.617-2.869.676-.867-.567-1.897-1.281-1.072ZM217.172 269.346c-.247.384-.05.838.008 1.247.175.946-.017 1.901-.084 2.848-.233 2.26-1.414 4.291-2.891 5.976-.267.3-.663.529-.788.93-.113.438.108.905.555 1.042.342.104.742-.037.938-.333.534-.484 1.01-1.035 1.423-1.627 1.852-2.343 2.62-5.292 2.582-8.24-.025-.542-.141-1.059-.233-1.593-.125-.705-1.164-.859-1.519-.254l.009.004ZM216.058 267.582c.454 0 .842-.35.855-.813.012-.446-.359-.855-.814-.855-.455 0-.843.35-.855.813-.013.446.359.855.814.855ZM214.898 249.976c.471-.05.764-.463.747-.909.459-1.164.926-2.34 1.089-3.586.071-.755.158-2.115-.935-2.048-.738.088-.809.817-.701 1.414.055 1.555-1.009 2.89-1.114 4.391.025.454.484.788.918.742l-.004-.004ZM215.478 241.486c.455 0 .843-.351.855-.814.013-.446-.359-.854-.813-.854-.455 0-.843.35-.856.813-.012.446.359.855.814.855ZM174.124 222.149c.989.409 1.181-.772 1.661-1.339 2.182-3.006 4.677-6.034 7.868-8.031.363-.275.468-.784.196-1.164-.258-.362-.801-.471-1.164-.196-1.009.755-2.123 1.381-3.008 2.286-1.89 1.839-3.617 3.844-5.144 6-.463.667-1.477 1.856-.409 2.444ZM186.887 210.252c.454 0 .842-.351.855-.814.012-.446-.359-.854-.814-.854-.454 0-.842.35-.855.813-.012.446.359.855.814.855ZM159.213 206.724c1.402-.217 2.8.121 4.106.609.421.146.913-.088 1.059-.522.146-.429-.087-.913-.521-1.059-1.352-.488-2.783-.867-4.23-.746-.464.029-.989.046-1.361.358-.746.643.096 1.835.947 1.36ZM85.2184 250.618c.3713.23.9345.125 1.1473-.275.3588-.684.7342-1.364 1.2683-1.931.68-.996 4.2513-2.298 2.6868-3.707-.3922-.242-.9012-.108-1.1473.275-.0918.146-.1961.284-.3255.396-.8344.584-1.7147 1.105-2.4031 1.873-.6258.654-1.0805 1.426-1.5019 2.222-.2336.384-.1168.918.2754 1.147ZM83.6873 253.821c.4547 0 .8385-.363.8469-.822.0083-.45-.3672-.846-.8219-.846-.4548 0-.8386.363-.8469.821-.0084.451.3671.847.8219.847ZM147.136 270.718c-.772-.546-1.198.254-1.694.717-1.556 1.272-3.325 2.285-5.261 2.886-.701.238-1.973.288-1.744 1.338.375 1.135 1.69.359 2.474.176 2.357-.826 4.698-2.04 6.375-3.945.279-.359.208-.893-.15-1.168v-.004ZM134.469 277.34c.461 0 .835-.373.835-.834 0-.461-.374-.834-.835-.834-.461 0-.834.373-.834.834 0 .461.373.834.834.834ZM177.195 245.493c-.434-.142-.909.175-1.022.596-.225 1.181 1.335 1.114 2.053 1.535.801.379 1.56.855 2.14 1.535.421.454.667 1.059 1.139 1.463.354.28.893.213 1.168-.15.275-.354.209-.876-.134-1.155-.279-.396-.529-.813-.851-1.176-1.13-1.384-2.812-2.164-4.501-2.648h.008ZM173.265 246.048c.461 0 .834-.374.834-.834 0-.461-.373-.834-.834-.834-.461 0-.834.373-.834.834 0 .46.373.834.834.834ZM90.6542 190.031c.5007-.546 1.0305-1.059 1.5687-1.568 1.285-1.355 2.7911-2.444 4.3139-3.507.3338-.309.3213-.863.0084-1.18-.8428-.763-1.7857.554-2.5367.93-1.1181.754-2.0651 1.714-3.0372 2.639-.5632.709-2.353 1.66-1.5019 2.673.3087.313.8761.346 1.1806.009l.0042.004ZM87.6838 193.113c1.1348.158 1.3976-1.919.2628-2.056-1.139-.155-1.3935 1.918-.2628 2.056ZM137.732 185.844c1.101-.133 2.136.48 3.2.671 1.994.438 4.072.176 5.999-.442.447-.133.997-.271 1.293-.654.28-.359.209-.893-.15-1.172-.459-.38-.918-.029-1.36.146-1.702.567-3.425.855-5.227.538-2.971-.822-3.492-1.234-6.442.142-.638.229-1.711.229-1.606 1.171.417 1.756 3.212-.258 4.293-.396v-.004ZM129.955 186.891c.461 0 .834-.374.834-.834 0-.461-.373-.834-.834-.834-.461 0-.834.373-.834.834 0 .46.373.834.834.834ZM179.093 192.75c.989.888 1.611 2.147 2.762 2.852 1.031.567 1.853-.988.776-1.489-.838-.633-1.368-1.576-2.107-2.31-.671-.559-2.148-2.089-2.891-.967-.534 1.046.901 1.343 1.465 1.91l-.005.004ZM175.097 190.198c.46 0 .834-.374.834-.834 0-.461-.374-.834-.834-.834-.461 0-.835.373-.835.834 0 .46.374.834.835.834ZM29.2045 70.708c-.8553-1.9849-1.915-3.8906-3.0289-5.738-.6592-1.2635-1.673-2.3269-2.7327-3.2902-1.043-.9132-2.0861-2.0183-3.4628-2.3853-1.2892-.2377-1.4394 1.5888-.1586 1.6806 1.6814 1.0049 3.1624 2.4311 4.3849 3.9532 1.2683 2.0559 2.4782 4.1618 3.4461 6.3761.438 1.0133 1.9316.417 1.5561-.6005l-.0041.0041ZM29.5797 72.7889c-.4547 0-.8427.3587-.851.8174-.0084.4503.3671.8507.8177.8507s.8427-.3587.8511-.8174c.0083-.4503-.3672-.8507-.8178-.8507ZM36.9061 112.246c-1.2098-.95-2.6784-1.397-4.0552-2.035-1.0346-.513-2.0067-1.138-2.9538-1.789-.5841-.379-1.3476-.684-1.7397.105-.3505.859.5966 1.13 1.1515 1.497.8093.592 1.8273 1.176 2.7493 1.651 1.2642.642 2.6743.988 3.8049 1.877.8762.654 1.8858-.609 1.043-1.306ZM39.3048 114.365c-.4547 0-.8427.358-.8511.817-.0083.45.3672.851.8178.851.4506 0 .8427-.359.8511-.818.0083-.45-.3672-.85-.8178-.85ZM84.0706 141.374c-2.2904-2.131-4.7561-4.236-7.2593-6.138-.3505-.279-.897-.229-1.1724.129-.2712.342-.2419.909.1294 1.172 1.068.788 2.0902 1.631 3.104 2.485 1.6604 1.385 3.2834 2.803 4.8562 4.287.1753.171.5132.509.8261.48.7051.042 1.139-.918.6175-1.41-.363-.342-.7385-.671-1.1056-1.009l.0041.004ZM87.7257 145.849c-.4547 0-.8427.359-.8511.817-.0083.451.3672.851.8178.851.4506 0 .8427-.359.8511-.817.0083-.451-.3672-.851-.8178-.851ZM69.4188 51.4798c-.4005-1.4387-.5883-2.9191-.7468-4.3953-.096-1.0008.0667-2.0058.292-2.9774.1711-.3628.1586-.8049-.1585-1.0884-.3838-.367-1.0764-.2419-1.3017.2418-1.0013 2.8107-.3504 5.8965.3213 8.7155.3462 1.0425 1.8899.5588 1.5937-.4921v-.0041ZM69.9359 54.7032c-.4548 0-.8177.4296-.7969.8716.0209.4671.4172.7965.872.7965.4547 0 .8177-.4295.7969-.8716-.0209-.467-.4172-.7965-.872-.7965ZM91.4804 37.5308c-.3672-1.2385-.7635-2.4687-1.2266-3.6739-.2253-.6755-.7552-1.668-1.5979-1.1676-.8219.5463-.0835 1.3428.1335 2.0017.4089 1.0967.7676 2.2101 1.0931 3.3319.3504 1.0425 1.8899.5587 1.5937-.4921h.0042ZM91.1674 41.6175c.0208.4671.4172.7965.8719.7965.4548 0 .8177-.4295.7969-.8715-.0209-.4671-.4172-.7965-.872-.7965-.4547 0-.8177.4295-.7968.8715ZM91.226 98.1555c-.1669-.6797-.292-1.3678-.2628-2.0683.0584-.6589 0-1.6305-.8845-1.6097-.4339.0209-.8427.417-.7968.8715.05.5171-.0126 1.0342.0333 1.5513.3713 3.0859 1.7731 5.9677 3.3961 8.5817.6007.918 1.9817.03 1.4101-.892-1.2683-1.981-2.3029-4.158-2.8954-6.4345ZM110.234 119.465c-.455 0-.818.429-.797.871.021.467.417.797.872.797s.818-.43.797-.872c-.021-.467-.417-.796-.872-.796ZM120.585 17.0974c.413.146.934-.0709 1.064-.5046.233-.7756.55-1.5262.955-2.2268.876-1.4929 1.932-2.8106 3.2-4.0283.605-.588 1.268-1.105 1.994-1.5263.388-.1292.718-.4462.689-.8924-.105-.9424-1.123-.9299-1.723-.4295-2.091 1.3094-3.784 3.2152-5.119 5.271-.484.8048-2.512 3.8448-1.064 4.3327l.004.0042ZM119.867 21.426c.455 0 .809-.4462.784-.8799-.025-.4713-.425-.784-.88-.784s-.809.4462-.784.8799c.025.4712.425.784.88.784ZM118.39 78.2433c-.471-1.6388-.183-3.2485.155-4.9165.208-.7381.404-2.0475-.71-2.0433-.55.025-.846.5462-.792 1.055-.438 2.1017-.897 4.3327-.238 6.4386.371 1.03 1.902.5129 1.581-.5338h.004ZM119.704 79.7863c-1.293-.6172-1.865 1.1176-.534 1.6347 1.289.6172 1.869-1.1176.534-1.6347ZM101.777 61.9091c-.125-2.8815-.334-5.7589.008-8.6613.059-.8882.68-2.6772-.713-2.748-.455.025-.814.4253-.784.8798-.4175 3.5279-.4134 7.0558-.176 10.6254.096 1.0968 1.707.9925 1.665-.0959ZM100.939 65.8332c.888 1.0551 2.165-.3377 1.147-1.2385-.851-.8757-2.032.4087-1.147 1.2385ZM122.316 109.265c1.377 1.943 2.345 4.332 2.728 6.709.197 1.272-.012 2.594.43 3.824.138.434.668.638 1.077.484.726-.271.517-1.038.35-1.61-.042-2.86-.609-5.696-1.932-8.256-.4-.747-.842-1.481-1.331-2.177-.179-.242-.392-.484-.696-.563-1.064-.334-1.677 1.142-.626 1.584v.005ZM126.388 121.975c-.288.621.255 1.072.772 1.297.384.229.909.117 1.147-.275.405-.688-.217-1.205-.817-1.443-.405-.209-.922.021-1.102.421ZM140.786 159.831c.442.079.88-.233.959-.684.288-1.563.355-3.156.484-4.737.038-1.076.113-2.148.188-3.223.075-.901.238-2.84-1.189-2.486-.425.163-.672.688-.471 1.114.087 1.388-.163 2.777-.18 4.166-.1 1.634-.2 3.277-.479 4.891-.08.446.241.884.684.959h.004ZM140.106 163.201c.454 0 .846-.338.863-.805.017-.442-.35-.863-.805-.863-.455 0-.847.337-.864.804-.016.442.351.864.806.864ZM153.11 58.4688c.426.1209.914-.1418 1.026-.5796.209-.8132.347-1.6389.505-2.4604.321-1.5596.664-3.1359.664-4.7414 0-.4545-.38-.834-.835-.834-.847.025-.864.8382-.851 1.4845-.079.9842-.242 1.9516-.438 2.9191-.2.9591-.396 2.1601-.655 3.1901-.113.4379.138.9008.58 1.0259l.004-.0042ZM152.109 62.2928c.461 0 .834-.3734.834-.834a.8338.8338 0 0 0-.834-.834c-.461 0-.835.3734-.835.834 0 .4606.374.834.835.834ZM152.784 82.6386c-.271.6714-.65 1.2969-.913 1.9766-1.027 2.3978-1.974 4.8165-2.449 7.3936-.109.442.133.9049.58 1.0258.425.121.918-.1417 1.026-.5796.284-1.1426.492-2.3144.864-3.4362.617-1.5095 1.193-3.0358 1.856-4.5245.217-.5922.805-1.1927.572-1.8557-.246-.663-1.298-.6714-1.536 0ZM149.43 97.0921c.461 0 .835-.3734.835-.834 0-.4606-.374-.834-.835-.834a.8338.8338 0 0 0-.834.834c0 .4606.373.834.834.834ZM190.099 73.3686c.43.1209.914-.1418 1.026-.5838.163-.6381.368-1.2594.58-1.8849.697-1.6764 1.615-3.5029 2.779-4.9332.459-.6547 1.402-1.226 1.531-2.0309.029-.7089-.943-1.1259-1.423-.588-1.21 1.2969-2.386 2.6272-3.129 4.2577-.909 1.4637-1.518 3.065-1.952 4.7372-.113.4379.137.9049.58 1.0259h.008ZM189.223 77.2592c.461 0 .834-.3734.834-.834a.8338.8338 0 0 0-.834-.834.8338.8338 0 0 0-.834.834c0 .4606.373.834.834.834ZM178.226 135.048c.442.063.88-.262.938-.713.13-.938.167-1.885.276-2.823.196-2.627 1.159-5.096 1.718-7.648.059-.45-.262-.88-.713-.938-.859-.075-.93.675-1.064 1.313-.726 2.419-1.418 4.859-1.631 7.386-.084.83-.125 1.659-.238 2.481-.062.45.263.88.714.938v.004ZM177.679 139.565c.461 0 .835-.374.835-.834 0-.461-.374-.835-.835-.835-.461 0-.834.374-.834.835 0 .46.373.834.834.834Z"/></g><defs><clipPath id="a"><path fill="#fff" d="M0 0h223v325H0z"/></clipPath></defs></svg>