<svg xmlns="http://www.w3.org/2000/svg" width="239" height="380" fill="none"><g clip-path="url(#a)"><path fill="#fff" d="M48.3878 65.9731c-2.8099 1.1299-5.5613 2.439-8.0995 4.0941-.0669.0834-.138.1668-.1923.2585-.3931.4878-.2676 1.1007.0627 1.5885.1505.1876.2885.4044.5018.5253.301.1709.7025.246.9492.492 4.0936.4169 7.9866 2.835 9.8682 7.171a.8616.8616 0 0 1 .2342.3502c.2216.5086.8948.6337 1.3966.6712.7778-.2501 1.4301-.9172 1.8231-1.6301.0167-.0209.0335-.0376.0502-.0584 1.7395-4.8029 2.8727-10.2687 1.3422-13.479-2.5256-.9672-5.415-.963-7.9364.0167Zm6.3642 6.7708c-.1547.8255-.3512 1.6384-.5185 2.4639-.0878.7422-.7652 1.5176-1.5137.9673-.3429-.271-.4098-.7588-.1798-1.1173.2216-.8631.3764-1.6802.5562-2.5433.1798-1.0798 1.7854-.8588 1.6558.2294Z"/><path fill="#4EC5D9" d="M100.071 62.4836c-.3932-.2585-.7905-.5087-1.1961-.7422-2.2245-1.4008-4.8923-2.2388-7.535-1.9261.0628.5878.1129 1.1757.1589 1.7594.092.4878-.2425.9797-.7484 1.0214-.4475.0417-.8698-.3043-.9074-.7588-.1255-2.539-.6691-5.003-1.4928-7.3836a.9134.9134 0 0 1-.1589-.4503c-.9617-2.6599-2.2664-5.2073-3.7173-7.6296-1.8482-2.7266-3.6881-5.7034-6.5273-7.5003-1.614-.1334-.8028-2.2889.623-1.5551.7234.4252 1.3925.9214 2.0155 1.4675.1004-.1.2133-.1959.3178-.2918 1.4719-1.7344 2.0991-3.844 2.4043-6.0828a1.2449 1.2449 0 0 1 .0251-.5254c0-.3418-.1129-.8171-.138-1.0756-.2927-2.2931-3.3159-3.9774-5.44-2.9601-.276.0875-.5227.2376-.7862.3502-.0752.0208-.1505.0292-.2216.0333-.6565.4295-1.3213.8464-2.0113 1.2258-1.7729 1.0589-3.4079 2.318-5.1223 3.4646-5.0052 3.0726-10.1233 6.2079-15.0365 9.3848-5.1056 3.5938-9.9853 7.492-14.6937 11.5861-7.7482 6.629-14.5138 14.3087-20.6899 22.3927-4.7668 6.5248-8.6974 13.6207-12.373 20.8001C3.847 103.442 1.89 110.383 1.7062 117.4c0 1.784.0627 3.59.2801 5.366.2844.221.4349.517.7569.713.5352.371.9491.688 1.589.55.4013-.075.8237-.217 1.1164-.513.071-.062.1463-.104.2216-.137.163-.15.3261-.296.4976-.438 4.1814-3.677 10.0397-3.757 15.3125-4.065 3.8051-.113 7.7273.379 11.4489-.646 8.0953-1.931 15.5717-8.826 19.9748-15.676 2.3584-3.8653 4.3529-7.9511 6.8116-11.7575 2.0322-2.8851 3.9975-5.9036 6.8116-8.1008 2.8309-2.4514 6.6569-4.3859 10.4537-4.3568.1589-.025.3345-.0125.5185.0167 1.2252.0667 2.442.3461 3.617.8922.1463.0751.2885.1668.4181.271.6732-.4836 1.3548-.9547 2.0406-1.4175-1.1416-.838-2.5507-1.1632-3.9641-1.33-1.844-.2626-3.8176-.2251-5.6366.1251-.9199.1501-1.8231.3961-2.6845.7588-1.0244.3794-1.6224-1.1257-.6105-1.5509 3.9013-1.5176 8.3671-1.5301 12.3395-.2669.7485.296 1.3841.7964 1.9946 1.305 4.7501-3.0727 9.8055-5.6951 14.9654-7.9715.3592-.1626.7232-.3168 1.0872-.4711.071-.1793.192-.3419.364-.4378.69-.7921 1.028-1.9261.585-2.9226-.384-1.1048-1.129-2.0262-1.927-2.8725l-.017.0167ZM57.7168 43.3804c.4558 0 .8321.3919.8279.8421-.0042.4587-.3889.8255-.8446.8255-.4558 0-.8322-.3919-.828-.8421.0042-.4586.3889-.8255.8447-.8255ZM29.0319 72.9232c1.589-1.6969 3.2992-3.1269 5.0596-4.5736.8112-.7296 1.9402.4294 1.1624 1.2007-.7819.6504-1.6056 1.3133-2.3583 1.9804-.9785.8255-1.89 1.7344-2.7681 2.6641-.5185.5462-1.0078 1.7135-1.911 1.0673-.8739-.7838.3262-1.7135.8196-2.3389h-.0042Zm-3.0148 3.944c.4558 0 .8321.3919.8279.8422-.0042.4586-.3889.8255-.8446.8255-.4558 0-.8321-.3919-.828-.8422.0042-.4586.3889-.8255.8447-.8255Zm32.6321-5.9911c-.5185 5.9286-2.7179 11.6529-5.6282 16.8102-2.9312 5.2906-6.6444 10.1894-11.3401 14.0417-2.2371 1.701-4.3237 3.448-6.9789 4.39-2.3374.93-4.8171 1.38-7.2423 2.006-.2216.091-.4558.116-.6816.029-.5519-.242-.7526-.888-1.0872-1.347-.4474-.692-.9073-1.372-1.2544-2.122-1.2921-3.098-1.4886-6.5831-1.2963-9.9018.2802-5.2782 2.2789-10.3396 4.9593-14.8506 1.3171-2.3097 3.0064-4.3985 4.8212-6.3372 1.8649-1.8302 4.0518-3.3061 6.2095-4.7654a.0879.0879 0 0 0 .0251-.0166c.0794-.0834.1756-.1418.2759-.1835 2.0866-1.38 4.3446-2.4931 6.6318-3.5021 2.4211-1.1715 5.0931-1.8177 7.7943-1.4967 1.0495.0875 2.0531.4211 3.0483.7463.3429.0708.5937.3585.6481.6879 1.3423 1.1257 1.1583 4.165 1.1039 5.8035l-.0084.0083Zm8.7017 8.3759c-1.0287-.4253-.3011-2.1596.7234-1.7177 1.037.4253.301 2.1596-.7234 1.7177Zm4.2065-42.2421c-2.7347 1.8761-5.5739 3.6313-8.5887 5.0197-.9283.3085-2.5047 2.1596-3.2866.938-.2217-.4044-.0669-.9047.3303-1.134 1.3004-.8255 2.672-1.5259 4.056-2.2055 2.1326-1.1132 4.1731-2.3681 6.151-3.7314.3177-.2335.715-.3961.9241-.738.4139-.592 1.4342-.2876 1.4886.417.0418.6545-.5854 1.109-1.0747 1.4342Z"/><path fill="#9EF1FF" d="M82.4502 39.2528c.7151.0876 1.4385.0834 2.1451-.0375.9032-.0959 1.8064-.2377 2.6594-.5628a.895.895 0 0 1 .4558-.2293c.3262-.5254.6356-1.0632.9325-1.5843 2.3876-4.5695 3.8218-9.5767 6.2931-14.1044.439-.6962.9492-1.4008 1.5179-2.0679-.0795-.1376-.1171-.2918-.1088-.4419-.0752-.221-.2007-.4211-.3387-.6087-.2843-.1376-.5185-.4044-.5812-.7171-2.0949-2.3056-5.4526-2.3139-7.7106-.0917-.8739 1.159-1.5346 2.4973-1.9444 3.8898-1.0704 5.5158.3596 11.8196-3.3117 16.5433 0 .0042-.0084.0083-.0126.0125h.0042Zm4.6916-12.3408c.2216-2.1054-.0585-4.3359.8196-6.3121.1798-.4169.715-.5879 1.1123-.3961.8446.4128.2927 1.2841.1045 1.922-.276 1.5635-.2342 3.1728-.3554 4.7487-.184.8047-.0418 2.414-1.2503 2.2764-1.0955-.2543-.5185-1.4801-.4349-2.2389h.0042Zm-.4265 4.3693c.4558 0 .8154.442.7903.8756-.0251.4711-.4265.7879-.8781.7879s-.8154-.4419-.7903-.8755c.0251-.4711.4265-.788.8781-.788ZM157.909 196.644h-.469c-4.361.662-8.638 2.559-11.745 5.711-2.288 2.431-3.626 5.65-4.449 8.843-.502 3.16-.544 6.387-.724 9.581.059 2.681.172 5.362-.067 8.038-.355 8.493-5.824 19.403-15.701 18.499-1.74-.317-3.492-.838-4.968-1.83-1.375-1.047-2.588-2.302-3.955-3.365-1.133-1.055-2.045-2.331-3.358-3.185-1.459-.993-2.839-2.152-4.495-2.802-4.257-1.834-8.062 1.914-11.9842 3.01-.0209.017-.0418.034-.0669.046-.8405.459-1.8315.384-2.7472.53-1.2085.062-1.9695 1.017-2.534 1.972a1.5897 1.5897 0 0 1-.1589.316c.1129.534.23 1.068.3554 1.597.6565 3.903 1.911 7.809 2.9229 11.599 2.0447 6.771 3.4999 12.032 8.8609 17.089 1.982 1.897 4.327 3.402 6.803 4.578 2.5.98 5.214 1.463 7.894 1.526 6.925-.133 14.138-2.451 19.047-7.446 2.107-2.068 3.788-4.482 4.809-7.225 1.342-3.231 2.325-6.558 2.918-9.965.941-4.961 1.192-10.014 1.426-15.046.489-6.175.954-12.399 2.518-18.416 2.278-7.921 6.686-15.042 11.678-21.583.009-.03.013-.063.025-.092.08-1.08-.811-1.855-1.835-1.98ZM99.7153 263.15c-.3805.221-.9283.1-1.1415-.3-1.5221-3.014-2.5089-6.279-3.2616-9.551-.1923-.709-.2969-1.418-.4725-2.118-.2174-.396-.0962-.905.3053-1.139 1.6098-.662 1.4217 1.985 1.8022 2.902.5436 2.443 1.2586 4.832 2.1994 7.15.2635.651.5353 1.301.8744 1.918.213.4.104.905-.3015 1.142l-.0042-.004Zm1.3797 3.848c-.493-.237-.928-.771-.602-1.321.213-.38.757-.567 1.142-.317.23.15.28.183.464.304.874.647-.122 1.985-1.004 1.334Zm38.762-7.704c-.455 0-.836-.38-.836-.834 0-.454.381-.834.836-.834.456 0 .837.38.837.834 0 .454-.381.834-.837.834ZM77.6163 80.1441c-.117-.0375-.2425-.0708-.3679-.1042-4.1815-.1668-8.1121 2.3681-11.0893 5.1906-5.0972 5.2574-8.1162 12.0406-11.8628 18.2315-4.0435 6.338-9.839 11.712-16.6589 14.959-2.8727 1.264-5.9963 1.997-9.1324 2.143-2.8015.15-5.5989-.204-8.388.1-4.6749.201-9.9644.584-13.4434 4.074-1.083.963-1.8398 2.201-2.7138 3.339-.0878.255-.2592.488-.4766.63 2.4043 6.137 9.9058 9.647 16.0986 10.452 4.1564.417 8.3253-.096 12.0301-2.01 5.047-2.693 9.2619-6.741 13.0545-10.965 4.01-4.711 7.2005-10.043 10.6126-15.188 3.8427-5.783 7.3928-11.7779 11.7791-17.177 3.4288-4.2067 7.1044-8.2383 11.2315-11.7737a.7429.7429 0 0 1 .0376-.1876l-.0084.025c.0669-.6337-.209-1.33-.7025-1.7386ZM21.2711 124.233c-.4558 0-.8321-.392-.8279-.842.0042-.459.3889-.825.8446-.825.4558 0 .8321.391.828.842-.0042.458-.3889.825-.8447.825Zm17.7294-2.447c-1.5388.579-3.1026 1.109-4.6958 1.526-1.8231.458-3.7173.446-5.5822.596-.9701.046-1.9402-.058-2.9103.013-.5603.108-1.2628-.021-1.3381-.701-.0502-.438.276-.888.7318-.925 1.246-.138 2.4879 0 3.734-.063 1.3381-.121 2.6887-.125 4.0142-.342 1.9569-.375 3.8553-1.046 5.7035-1.772.3555-.171.7151-.342 1.0538-.546.2843-.35.8112-.413 1.1708-.133 1.1248 1.2-1.0161 1.942-1.8817 2.351v-.004Z"/><path fill="#fff" d="M40.6063 97.5797c-.4098-.2126-.8572-.2835-1.313-.296-.6481-.0584-1.2502-.3252-1.8482-.5628-.0251-.0084-.0418-.0209-.0627-.0334-4.102-1.0131-7.2632-4.165-8.5553-7.9882l-.0083-.0083c-.2342-.6129-.9032-.642-1.4677-.7755-.6314-.0708-1.0454.6254-1.5012 1.0673-1.405 4.9655-1.9485 12.3112 1.0872 16.6772.1589.246.3094.496.4641.746 2.8769-.655 5.8081-1.28 8.4633-2.614 1.9653-1.159 3.801-2.51 5.5112-4.0068a1.0121 1.0121 0 0 1 .1798-.6379c.3387-.7087-.3554-1.3049-.945-1.5718l-.0042.0042Zm-3.6713 3.2223c-.4558 0-.8321-.391-.8279-.8417.0041-.4586.3888-.8255.8446-.8255.4558 0 .8321.3919.8279.8422-.0041.459-.3888.825-.8446.825Z"/><path fill="#9EF1FF" d="M117.386 55.5085c-.15-.1626-.355-.3336-.481-.5295-.811.0792-1.63.0375-2.421-.1459-2.049-.3211-4.01-1.034-6.013-1.5426-2.776-.5629-5.636-1.1757-8.467-.9589-1.723.1167-3.4708.2835-5.181.6087-.2007.2251-.4475.421-.6063.6795-1.2085 1.3092-1.8274 2.7934-2.3124 4.4569 3.4748-.1126 6.0339 1.0881 8.5757 2.6974.272.0542.527.246.732.4712.899.592 1.811 1.2257 2.764 1.8553 1.393.9755 2.764 1.9219 4.341 2.5723 1.02.4378 2.002 1.0423 3.123 1.1757 1.05.0542 2.179.2043 3.153-.2751 3.048-1.5676 3.893-3.7773 3.68-7.0501-.08-1.3508-.151-2.8434-.887-4.0149Zm-17.5787 3.4771c-.4558 0-.8154-.442-.7903-.8756.0251-.4711.4265-.7879.8781-.7879.4519 0 .8149.4419.7899.8755-.025.4711-.426.788-.8777.788Zm15.5757 5.0905c-.773.417-1.706.4461-2.567.4295-2.839-.2669-5.302-2.1138-7.694-3.4605-.753-.4085-1.514-.8046-2.292-1.1673-.614-.1418-1.216-.467-1.011-1.2007.493-1.1674 1.894-.2168 2.655.1542 1.334.6337 2.718 1.5134 3.922 2.2222 1.861 1.0131 4.085 2.3722 6.239 1.5301.982-.4711 1.71.9714.744 1.4967l.004-.0042Z"/><path fill="#4EC5D9" d="M122.187 49.0963c.313-1.4509.079-2.956-.209-4.3902-.247-.7046-.887-1.1757-1.38-1.7093-.732-.6504-1.581-1.2258-2.543-1.4676-.485-.1292-1.187-.1-1.63-.3627-3.099 2.0512-6.795 3.3437-10.279 4.3485-4.039 1.2841-8.1785 2.1721-12.0547 3.8314a.8373.8373 0 0 1-.1045.246c-.7778.7296-1.5388 1.5718-2.2622 2.4015 1.706-.5295 3.479-.8547 5.2477-1.0382 3.4497-.5253 6.9497-.3752 10.3407.417 3.529.4669 7.008 2.5932 10.6 1.7635 1.886-.6545 3.881-1.947 4.274-4.0316v-.0083Zm-6.707 1.6802c-1.192-.1293-2.384-.296-3.53-.6629-.756-.1835-1.442-.6046-2.241-.6254-1.091-.0917-1.008-1.7052.088-1.6635 1.012.0208 1.898.5128 2.86.7588.945.296 1.928.4169 2.91.5295 1.096.0875 1.008 1.701-.087 1.6676v-.0041ZM151.047 156.519c-4.127 1.614-8.43 3.01-11.925 5.775-1.949 1.676-3.668 3.944-3.458 6.641.518 3.611 2.835 7.634 6.778 8.109.113 0 .234 0 .359.004.469-1.78 1.539-3.431 2.526-4.969 1.986-3.369 4.838-6.112 7.69-8.731 2.299-2.284 4.39-4.465 6.539-6.837.887-1.038 1.752-2.072 2.58-3.135 0-.079.009-.159.03-.238.418-1.359.782-2.735 1.041-4.136-1.861 1.839-4.09 3.294-6.369 4.516-1.885 1.088-3.784 2.147-5.791 2.997v.004Zm-.924 4.636c-.477.155-.958.305-1.426.484-1.413.588-2.856 1.122-4.219 1.822-.41.371-.916.638-1.401.2.004.008.009.013.017.021l-.029-.029.012.012c-1.166-1.438 1.79-2.138 2.701-2.626 1.263-.517 2.514-1.068 3.822-1.464 1.05-.312 1.556 1.222.519 1.585l.004-.005ZM133.239 167.723s.013.012.021.017c-.017-.013-.038-.03-.055-.043.013.009.021.017.034.026Z"/><path fill="#9EF1FF" d="M146.937 172.667c-2.288 3.389-3.831 6.249-1.627 10.206.778 1.376 1.518 2.326 3.207 2.447 1.677.346 3.191-.467 4.571-1.313 1.099-.617 2.048-1.443 2.952-2.31 2.145-2.335 3.508-5.236 4.884-8.046.932-1.981 1.894-4.111 2.626-6.138.957-2.422 2.136-4.74 3.378-7.025.581-.954 2.3-5.603 3.906-7.221-.126-.071-.251-.137-.377-.212-1.446-.88-2.759-1.931-3.951-3.102-2.981 5.024-7.138 9.356-11.227 13.462-2.906 2.977-6.218 5.612-8.347 9.247l.005.005Zm4.043 1.525c-1.008 1.239-1.727 2.677-2.375 4.124-.23.704-.669 1.43-.652 2.176.067.959-1.338 1.226-1.631.313-.201-.609.054-1.251.255-1.83.82-2.306 1.944-4.562 3.592-6.392.598-.525 1.246-1.843 2.166-1.13.966 1.03-.87 1.927-1.351 2.739h-.004Zm3.149-3.456c-.226 0-.431-.054-.607-.204a.8661.8661 0 0 1-.284-.575c-.029-.43.322-.884.782-.884.226 0 .431.054.606.204.163.146.268.354.285.575.029.43-.322.884-.782.884ZM162.107 130.466c.581.084 1.175.075 1.748-.046a.7046.7046 0 0 1 .205-.004c3.362-1.217 6.719-2.568 9.58-4.736 4.29-3.302 7.07-8.122 8.128-13.391.678-3.774.034-7.513-.401-11.236-.284-3.6401-.255-7.4507.937-10.9361 2.111-4.3985 4.996-8.4051 7.1-12.8203 1.752-3.7689 2.647-8.0923 1.785-12.2073-1.434-6.8667-6.306-10.744-13.36-10.523-2.057.0292-4.072.4586-6.084.8505-3.416.592-6.799 1.3591-10.211 1.972-4.42.7379-9.141 1.1841-13.443-.321-3.333-1.2383-5.704-4.0275-8.71-5.7994-3.839-1.4467-7.372 1.0048-9.864 3.9191-1.192 1.4842-2.66 3.4937-1.213 5.1781.243.246.527.5086.786.7213.113.0959.23.1876.326.296.184.0208.364.0417.544.0625.422 0 .849 0 1.271.0084.803.0583 1.606.1375 2.413.2251.234 0 .472-.0083.706-.0209.218 0 .389.0626.523.1668 3.207.4128 6.389 1.0757 9.446 2.0971 2.643.6504 5.06 1.5176 7.472 2.7809 6.063 2.7224 11.93 6.8207 15.087 12.7993 4.307 7.7714 5.745 17.1312 3.63 25.7739-.54 2.518-1.033 5.057-1.748 7.53-1.844 5.082-4.086 10.056-6.862 14.704.209-.008.414-.021.619-.05 1.685-.275 3.257-.9 4.792-1.626.64-.308 1.263-.675 1.823-1.113.907-.609 1.836.713.953 1.372-2.274 1.605-4.988 2.689-7.752 3.06-.452-.029-1.004.121-1.48.062-.08.126-.163.246-.243.372.038.091.08.183.142.245.318.409.878.526 1.355.634Zm10.023-6.537c-1.054-.334-.544-1.997.519-1.676 1.057.333.539 1.997-.519 1.676Zm-5.695-64.4348c-.581-.9922 1.208-1.9678 1.769-.9881.577.9881-1.205 1.9679-1.769.9881Zm4.382-.2042c-.23.0166-.443-.0251-.627-.171-.573-.4127-.31-1.43.405-1.48 4.366-.7338 9.049-1.6844 13.268.2084 1.196.5337 2.589 1.1382 3.22 2.3431.242.8713-.962 1.4467-1.485.7004.017.0334.055.0626.076.0959-3.191-3.1019-8.246-2.8434-12.336-2.1221-.836.1501-1.672.3711-2.525.4253h.004ZM136.508 162.173c.075.025.142.054.201.092 3.521-3.799 9.617-5.604 14.167-7.484 2.417-1.197 4.854-2.427 7.137-3.877.009-.03.013-.063.026-.092.89-1.926 2.053-3.707 2.605-5.775-3.333 1.122-6.841 1.647-10.345 1.843-3.086.15-6.31.075-9.308.905-4.587 1.105-8.756 5.795-7.74 10.681.196 1.81 1.472 3.29 3.253 3.707h.004Zm2.103-11.207c.226 0 .435.058.607.209.163.145.267.354.28.575.025.433-.33.88-.786.88-.226 0-.435-.059-.606-.209-.164-.146-.268-.354-.281-.575-.025-.434.331-.88.786-.88ZM30.7882 80.6612c-3.3493 7.3085 2.8183 15.6552 10.7966 14.6421 7.8528-.8672 11.9172-10.1436 7.259-16.4641-4.654-6.5122-14.8191-5.4616-18.0556 1.822Zm9.4836 11.0108c-1.1039 0-2.2287-.2794-3.2783-.9006-.899-.4961-1.6224-1.1757-2.166-1.9595.0962.0125.1924.0209.2886.0209a1.934 1.934 0 0 0 .3512-.0334c.3387-.025.6732-.1001.9743-.2627.1798-.0958.3638-.1959.5101-.3377.1296-.125.2676-.2585.3638-.4169.2133-.3544.3471-.7546.3136-1.1757-.0334-.4086-.1421-.8088-.3345-1.1715-.1923-.3669-.4809-.6546-.8405-.8547-.3261-.1835-.7526-.221-1.1122-.1584-.4893.0833-.9325.3126-1.3256.6045-.1296.0959-.255.2001-.3721.321-.138-2.2138.7652-4.4902 2.7681-5.8744 4.2191-3.106 10.4453-.15 10.6711 5.0864.2718 4.0316-3.1486 7.1127-6.8116 7.1127ZM139.117 310.667c-.033 0-.062.004-.096 0-1.902.466-2.546 2.58-3.061 4.24-.025.079-.046.162-.067.241.172 2.581-.405 5.216-2.002 7.192-1.819 1.981-3.504 4.057-4.989 6.3-1.388 1.83-2.572 3.881-2.764 6.212-.435 3.948 1.618 7.784 4.307 10.556 2.016 1.831 4.621 2.814 7.067 3.923 2.479.947 5.147 1.305 7.585 2.385 3.107 1.109 6.372 2.527 8.706 4.816.1.062.196.15.28.266 2.216 2.26 3.228 6.037 6.414 2.068a.785.785 0 0 1 .205-.241c2.342-4.841 3.575-10.265 3.354-15.923-.473-15.626-11.215-28.008-24.943-32.035h.004Zm-9.036 26.178c.987.742-.192 2.143-1.079 1.276-.94-.73.193-2.081 1.079-1.276Zm5.545 10.014c-.452 0-.895-.3-1.267-.55-1.029-.726-2.066-1.472-2.869-2.447-.656-.851-3.157-3.448-1.589-4.278.987-.313 1.121.642 1.418 1.309.435.751 1.037 1.388 1.589 2.055.694.78 1.551 1.401 2.404 1.993.331.296.832.25 1.062.68.318.538-.117 1.28-.752 1.238h.004Zm3.144-26.941c-.464 1.48-1.058 3.018-2.191 4.119-.163.425-.686.625-1.104.454-1.179-.654-.054-1.621.477-2.272.581-.979 1.05-2.043 1.317-3.147.197-.801.489-1.568.46-2.406.042-1.092 1.664-1.076 1.673.017.033 1.121-.364 2.159-.632 3.231v.004ZM212.991 64.2971c.293.3503.632.6588.924 1.009.594.5336 1.338.888 1.991 1.3466.226.1918.464.3836.736.5045 2.078-.1751 4.549.196 5.795.3627 1.832.3294 3.63.8214 5.474 1.059 1.225.2001 2.546.4086 3.688-.2085 3.458-1.8052-1.681-5.7951-3.425-6.9958-1.208-.738-2.626-1.059-3.951-1.5426-3.793-1.0757-7.021-1.7011-10.768-2.4891a1.124 1.124 0 0 1-.409-.0125c-3.304-.025-1.982 3.8857-.732 5.5325.297.4461.401.9798.669 1.4301l.008.0041Zm15.681 1.1257c.455 0 .819.4253.803.8672-.021.467-.414.8005-.87.8005s-.82-.4253-.803-.8672c.021-.4669.414-.8005.87-.8005Z"/><path fill="#4EC5D9" d="M210.291 56.6259h-.013v.0137s.004-.0046.009-.0092l.004-.0045ZM135.622 345.204c-.143 0-.264.038-.389.104.133-.066.28-.1.389-.104Z"/><path fill="#9EF1FF" d="M116.675 366.346c-1.43-.946-2.889-1.839-4.26-2.868-2.233-1.497-4.454-3.027-6.156-5.141-1.814-1.947-3.391-4.223-4.11-6.812-.82-3.44-.962-7.151.314-10.499 1.246-4.761 4.21-8.817 5.536-13.541.188-.871.297-1.764.318-2.652-.021-.083-.034-.171-.03-.262.034-.196-.079-.384-.142-.567-.56-1.038-1.568-1.739-2.726-1.893-.832-.133-1.689-.025-2.471.275-.239.079-.444.209-.678.309a1.25 1.25 0 0 1-.167.037c-6.6485 8.635-9.1699 20.258-5.6826 31.323 3.0943 10.223 11.1106 18.32 20.8826 22.043 1.434.112 2.826-.738 3.529-1.981.293-.362.38-.95.606-1.334-.267-1.18-.807-2.297-1.589-3.214-.987-1.134-1.961-2.314-3.174-3.215v-.008Z"/><path fill="#4EC5D9" d="M155.07 361.806c-1.405-5.187-6.829-7.134-11.361-8.839-1.69-.654-3.454-1.038-5.198-1.522-1.718-.496-3.316-1.321-4.934-2.072-3.374-1.434-6.03-4.094-7.602-7.383-1.33-2.452-1.873-5.299-1.392-8.055.376-2.756 2.044-5.041 3.654-7.225 1.434-2.398 3.596-4.224 5.135-6.529.619-1.443.903-3.036.861-4.616-.05-.166-.054-.354-.029-.554-.129-1.68-.631-3.331-1.505-4.766-.197-.296-.385-.596-.619-.863-4.19-.321-8.526.117-12.841 1.451-4.341 1.326-8.229 3.457-11.566 6.171.242.292.422.671.61.963 2.354 3.852 2.112 8.751.368 12.791-.924 2.405-2.287 4.607-3.27 6.983-.802 2.327-1.806 4.632-2.12 7.088-.322 4.165.506 8.096 3.295 11.315.966 1.101 1.945 2.197 3.007 3.21 1.693 1.397 3.583 2.548 5.352 3.844.74.496 1.501.963 2.25 1.451 1.455.93 2.722 2.377 3.801 3.631 2.036 2.264 2.835 5.529 2.044 8.468-.054.267-.142.6-.28.901.908.183 1.828.329 2.752.433.067-.137.133-.279.179-.425.649-1.926.092-4.04-.388-5.941-.293-.776-.632-1.539-1.109-2.218-.635-.888.657-1.868 1.334-1.005.439.6.761 1.272 1.067 1.943.836 2.151 1.216 4.569.953 6.862-.084.317-.18.63-.297.938 1.104.067 2.212.088 3.329.042 8.003-.187 15.358-3.218 21.129-8.067-.026-.605.393-1.401.405-1.943.067-1.33.038-2.668-.155-3.99-.121-.834-.38-1.638-.79-2.376-.217-.401-.084-.909.322-1.134.912-.463 1.305.587 1.581 1.255.627 1.525.723 3.222.752 4.857-.008.479 0 .967-.033 1.446.46-.454.907-.921 1.342-1.4-.008-.221.034-.459.092-.668-.004.034-.008.063-.012.096.322-1.338.292-2.697.037-4.031-.046-.18-.092-.355-.142-.534l-.008.017Zm-44.571-26.62c-.15.479-.305.963-.493 1.434-.573 1.501-1.56 2.806-2.036 4.348-.289.717-.569 1.284-.715 1.993-.109.442-.598.7-1.029.584-1.309-.505-.125-2.168.134-3.044.535-1.784 1.727-3.289 2.3-5.053.171-.613.426-1.501 1.254-1.28.427.117.723.592.59 1.026l-.005-.008Zm-.631-2.481c-.828-.88.456-2.076 1.234-1.147.832.876-.448 2.072-1.234 1.147Zm13.301 34.625c-.455 0-.832-.392-.828-.842.005-.459.389-.826.845-.826.456 0 .832.392.828.842-.004.459-.389.826-.845.826Zm26.87-7.355c-.455 0-.832-.391-.828-.842.005-.458.389-.825.845-.825.456 0 .832.392.828.842-.004.459-.389.825-.845.825Z"/><path fill="#9EF1FF" d="M195.07 33.4785c.899.2877 1.94.2585 2.839.246a.9317.9317 0 0 1 .523-.0084c.029-.0125.058-.0208.087-.0333 3.032-.8088 6.093-1.5968 9.225-1.8886 1.413-.3461 7.857-.9339 5.967-3.3729-.791-1.109-1.89-1.9679-3.145-2.5015-3.207-1.5927-6.912-1.2591-10.353-.8547-2.63.2043-5.156.9464-7.694 1.6218-1.246.4169-2.86.8547-2.714 2.3598-.192 2.4056 3.287 3.9607 5.26 4.4235l.005.0083Zm4.261-3.7022c1.965-.6296 4.047-.4586 6.05-.8505.519-.1043 1.071-.0626 1.547-.3211 1-.4461 1.698 1.009.715 1.5093-2.279.8588-4.825.567-7.188 1.0881-.585.196-1.417.3961-1.668-.3752-.134-.4169.1-.9297.539-1.0506h.005Z"/><path fill="#4EC5D9" d="M159.619 16.2476v-.0336c-.012.0042-.029.0126-.042.0168.017.0042.03.0126.046.0168h-.004Z"/><path fill="#9EF1FF" d="M205.113 47.5661c1.372.6129 3.057.8214 4.5 1.1632a.8338.8338 0 0 1 .158.0876c.327-.025.653-.0459.971-.0667 1.3-.1293 2.613-.0834 3.922-.0334 1.727.0626 3.454.1251 5.16-.2168 2.011-.4127 5.833-2.0053 3.763-4.5068-4.508-4.2943-10.475-4.1609-16.291-3.8774-.866.0834-1.744.196-2.618.3002-.004 0-.008 0-.012.0042-.31.0667-.636.0625-.945.1459-1.681.3294-1.794 1.355-1.413 2.81.38 1.6677 1.371 3.227 2.797 4.1942l.008-.0042Zm15.748-2.5098c.347-.221.815-.1668 1.091.1501.556.6796-.113 1.455-.865 1.5051-.649.1209-1.635.3252-1.811-.5545-.109-1.0298.857-.9798 1.585-1.1007Zm-8.886-.1626c.807.0167 1.614.025 2.417.1459.757.1293 1.51.2585 2.271.3586.443-.0751.882.2251.961.6712.134.8255-.736 1.134-1.413.9506-1.447-.2377-2.885-.4836-4.357-.4628-.456-.0083-.803-.4586-.77-.8922.034-.4711.44-.7838.895-.7713h-.004ZM149.061 13.112a88.4716 88.4716 0 0 1 7.606 2.1138c.205-.1209.464-.1751.715-.1334.703-.05 1.38-.2793 1.995-.6129.351-.2335.727-.4544 1.012-.7713.146-.1501.305-.2293.468-.2501.807-.8089 1.848-1.4426 2.764-2.0471 1.752-.9506 3.437-1.997 5.126-3.056 1.51-1.0423 5.658-2.735 4.955-4.9863l-.008.0083c-1.401-2.5432-4.846-1.6343-7.184-1.209-5.126 1.1756-9.743 3.7814-14.325 6.2704-1.234.7338-2.539 1.2924-3.877 1.7719a.7236.7236 0 0 1-.108.1876c-.18.3043-.36.5211-.494.7963-.117.6671.464 1.2341.895 1.6718.163.0542.322.1335.452.2502l.008-.0042Zm14.204-5.52c.849-.4252 1.702-.8463 2.576-1.2215.795-.3628 1.598-.7088 2.392-1.0715.385-.3252.953-.4253 1.313 0 .991 1.43-1.919 1.9303-2.768 2.4848-.949.4044-1.878.8547-2.802 1.3133-.401.2043-.92.0125-1.112-.396-.197-.417-.008-.909.397-1.109h.004Zm-1.626 1.3717c.853.7338-.431 2.1721-1.267 1.4258-.853-.7379.431-2.172 1.267-1.4258Z"/><path fill="#4EC5D9" d="M88.7139 39.9407c-.3262.467-1.1583 1.6302-2.0699 2.5349 1.2712-.1043 2.6845-.3419 3.8094-.8839.255-.1543.5477-.3127.8363-.3294 1.8816-1.7802 3.6336-3.6897 5.4777-5.5075 3.2786-3.0685 6.7736-6.2621 10.7966-8.3925-.021-.296.084-.6212.125-.9131.084-1.6676-.246-3.3853-.706-4.9821-.406-.8464-1.025-1.651-1.803-2.1847-.97-.3794-2.036-.5545-3.069-.4294-1.676.221-2.9435 1.4092-4.0725 2.5724-2.0154 2.1054-3.019 4.8654-4.0978 7.5087-1.589 3.6814-2.9688 7.7296-5.2227 11.0066h-.0041Zm9.5797-16.0263c1.175-1.3633 2.6304-2.4598 4.2614-3.1978.924-.5878 1.827.7546.932 1.3842-.414.2793-.891.4419-1.33.6796-1.342.8463-2.4877 1.972-3.4411 3.2352-.439.5921-.807 1.6552-1.7269 1.1257-1.1416-.8338.7694-2.4806 1.3088-3.2228l-.0042-.0041Z"/><path fill="#9EF1FF" d="M171.214 20.6458s-.017-.0083-.025-.0166c0 0-.004 0-.025-.0167 2.258 1.6718 5.323 2.564 8.074 1.8386 1.397-.3377 2.735-.9131 4.069-1.3717.071-.0292.146-.0458.222-.0583 4.741-1.6635 14.43-4.1275 14.605-6.4664-.029-.1209-.046-.1543-.1-.2627-.451-.6754-.719-1.3341-1.442-1.6635-2.346-1.034-4.968-1.0465-7.485-.9923-1.669.0584-3.337.2377-4.976.5545-1.673.4086-3.253 1.1174-4.859 1.7302-1.911.6713-3.705 1.6177-5.578 2.3806-.874.3169-1.752.6296-2.63.9298-.648.3377-1.418.6879-1.589 1.4592a.9461.9461 0 0 0-.046.1042c.192.2668.363.5629.518.7838.393.4628.803.738 1.271 1.0715l-.004-.0042Zm17.512-5.2573c.456 0 .857.3169.882.788.026.4377-.334.8797-.79.8797s-.857-.3169-.882-.788c-.025-.4378.334-.8797.79-.8797ZM89.9182 44.6811c-.644.4294-2.3584 1.7052-3.4748 1.7552.7234 1.2258 1.384 2.4849 1.9736 3.7773.7569-.6045 2.1242-1.0339 2.6803-1.3341 5.7663-2.9518 12.2597-3.9774 18.2977-6.1537 3.856-1.4884 9.668-4.1025 10.747-8.4385 1.02-3.8648-1.865-7.4169-5.863-7.2668-3.27 0-6.109 1.8136-8.735 3.5646-5.9625 3.8565-10.2108 9.6183-15.63 14.0918l.0042.0042Zm20.9198-6.9542c2.375-.9589 4.562-2.2847 6.072-4.3609.05-.0834.133-.1543.146-.2502.054-.4503.543-.7463.974-.6712 1.096.2668.636 1.5717.046 2.1346-1.509 2.0012-3.638 3.4145-5.929 4.386-.924.4294-1.882.7713-2.835 1.1382-.418.1626-.92-.1001-1.062-.517-.381-1.2466 1.806-1.3925 2.588-1.8595Zm-4.135 3.0352c-.026.4711-.427.788-.879.788-.451 0-.815-.442-.79-.8756.025-.4711.427-.7879.878-.7879.452 0 .816.4419.791.8755Z"/><path fill="#4EC5D9" d="M172.54 156.79c-.439.367-.841.784-1.259 1.18-.543.521-1.112 1.022-1.614 1.585-.121.254-.38.421-.652.458v.004c-.707 1.58-1.614 3.061-2.367 4.62-2.04 4.419-3.579 9.064-6.025 13.291-.95 1.693-1.895 3.415-3.262 4.811-.301.296-.631.601-.983.909 0 .067 0 .134-.008.205.029.183.08.354.146.517 1.46 2.005 3.266 3.831 5.7 4.461.506.1 1.02.175 1.526.291.217-.025.435-.066.657-.133 2.784-.871 3.947-2.147 4.812-4.857 1.79-4.678.82-9.819 1.23-14.705.2-4.273.832-8.547 2.111-12.637h-.012Zm-5.424 22.431c-.2 1.321-.589 2.589-1.179 3.789-.016.471-.343.888-.844.888-.439 0-.862-.379-.837-.833.013-.738.481-1.355.72-2.035.405-1.418.685-2.806.857-4.223-.025-.592.125-1.347.865-1.343.439 0 .858.38.837.834-.017.98-.201 1.98-.414 2.923h-.005Zm.256-5.583c-.41.175-.92-.021-1.096-.446-.297-.517-.41-1.267.255-1.547.418-.175.92.025 1.096.446.292.517.409 1.268-.255 1.547Z"/><path fill="#4EC5D9" d="M163.596 190.798c-.761.051-1.531-.05-2.275-.362-1.309-.476-2.622-1.097-3.722-1.96-.447-.433-.823-.934-1.233-1.405-.535-.592-1.104-1.288-1.418-2.059-.029-.055-.054-.109-.083-.163-1.706 1.234-3.692 2.235-5.541 2.201-1.304-.062-2.709-.266-3.755-1.1-1.71-1.643-2.768-3.953-2.96-6.308-.042-.313-.054-.626-.046-.93-2.965-.208-5.737-2.231-6.954-4.915-.861-1.526-1.539-3.244-1.614-5.003-.263-.422-.435-.805-.799-1.105-.568-.442-1.12-.822-1.731-1.13-1.647-.505-3.424.083-4.808.996-.025.013-.046.017-.071.025-1.982 1.701-3.969 3.394-5.955 5.087-1.856 1.697-3.6 3.518-5.519 5.153-5.846 5.474-11.32 11.478-15.522 18.315-.9576 1.584-2.12 3.035-3.086 4.611-1.2711 2.381-2.6385 4.711-3.7549 7.167-1.1332 2.91-2.0447 5.92-2.7389 8.964-.4516 2.976-.8906 5.978-1.0871 8.951-.1129 3.014.0292 6.016.3763 8.997.1547.121.276.288.3512.475.3053.434.6356.826 1.0203 1.189.8321.75 1.9402 1.179 3.0441 1.304.1673.005.3387.038.506.025.0209 0 .0376-.004.0585-.008.0418-.004.0836-.008.1213-.021.0669-.021.138-.025.2049-.025 2.0698-.362 3.8302-1.551 5.7453-2.359 6.247-3.186 9.642-.588 14.547 3.331 1.217 1.326 2.476 2.585 3.906 3.685 1.058.972 2.095 2.01 3.483 2.489 2.764 1.143 5.244 1.001 7.945-.246 5.339-2.714 7.798-9.093 8.467-14.729.502-4.399-.079-8.822.377-13.221.138-1.763.112-3.552.43-5.299.326-1.805.962-3.544 1.736-5.203 1.714-4.203 5.256-7.459 9.383-9.277 1.769-.7 3.596-1.388 5.473-1.78.381-.121.782-.192 1.188-.204.686-.092 1.376-.138 2.074-.121.602.025 1.208.071 1.81.146h.092c1.15.042 2.074-.68 2.647-1.618.335-.592.874-1.313.669-2.013-.263-.292-.61-.446-.982-.547Zm-49.103-8.384c-.276-1.196 1.463-1.58 1.651-.354.272 1.196-1.467 1.58-1.651.354Zm9.822-7.317c-1.121.759-2.191 1.605-3.211 2.498-.916.767-1.765 1.613-2.639 2.426-.355.48-.966.972-1.534.492-.828-.763.263-1.576.807-2.114.899-.804 1.752-1.659 2.684-2.426 1.133-.917 2.254-1.868 3.525-2.589.514-.388 1.33-.088 1.38.579.067.642-.565.863-1.012 1.134Zm3.525 66.807c-.456 0-.815-.437-.795-.871.021-.471.419-.792.874-.792.456 0 .816.438.795.871-.021.471-.418.792-.874.792Zm6.975-5.361c-.937 1.88-2.313 3.602-4.295 4.436-.401.2-.911.066-1.129-.346-.518-1.222 1.276-1.376 1.89-2.052 1.501-1.417 2.438-3.26 3.103-5.173.104-.372.288-.734.334-1.114-.041-.454.31-.863.761-.9.456-.042.866.304.908.759-.13 1.538-.828 3.051-1.572 4.394v-.004ZM231.101 87.4155a.5077.5077 0 0 1 .076.0295 1.0283 1.0283 0 0 1-.118-.0549c.013.0085.03.0169.042.0296v-.0042ZM231.303 87.4739l-.114-.0253h.008c.034.0084.068.0169.106.0253ZM215.366 80.9655c-1.058-4.6904-2.111-9.3849-3.784-13.8959-.995-2.5432-2.057-5.0614-3.224-7.5296-.171-.1417-.276-.346-.334-.567-.707-1.5467-1.518-3.0518-2.321-4.5527-.059-.1209-.121-.2377-.18-.3586-.155-.271-.305-.542-.447-.8171-.109-.2085-.226-.4128-.343-.6212-.782-1.3175-1.627-2.5808-2.279-3.9733-1.936-3.2144-4.064-6.3246-6.506-9.1555-.603-.4127-1.113-.9339-1.418-1.5676-.957-1.0131-1.957-1.9845-3.015-2.9017-5.695-4.7279-12.502-7.7672-18.988-11.236-1.258-.6504-2.534-1.2758-3.822-1.8845-.075-.0083-.154-.025-.23-.0583-.108-.0459-.196-.1126-.276-.1835-4.399-2.0637-8.94-3.8898-13.535-5.3657-4.871-1.5176-10.065-2.4557-15.037-3.2144-3.445-.5379-6.962-.5129-10.437-.713-5.598-.0166-10.984.6671-16.462 1.5093-3.303.8338-6.481 2.047-9.663 3.2519.355.0167.715.0626 1.079.146 2.872.2709 4.725 3.1477 4.913 5.841.175 1.0715.439 2.2597.322 3.3728.711-.3043 1.438-.5753 2.187-.8004 7.501-2.0471 13.184 4.7987 9.098 11.5861-.727.9589-1.563 1.8094-2.475 2.5724.999.2126 1.936.6462 2.756 1.2674 1.058.8589 2.216 1.822 2.651 3.1519.267 1.1632.422 2.3806.426 3.573.075 2.981-1.961 5.3616-4.57 6.4789.058.0876.113.1751.167.2627.188.3002.356.6087.519.9214.669 1.4592 1.413 2.6849 2.337 3.623.063.0083.126.025.197.05 1.756.2794 3.077-1.5467 3.88-2.8183.38-.5545.786-1.0965 1.2-1.626.276-.4003.615-.9339 1.012-1.2008.389-.4294.786-.8463 1.213-1.234 2.299-2.2014 5.486-3.5647 8.693-3.0018 1.664.2585 2.96 1.4217 4.257 2.3972 1.965 1.5385 3.909 3.227 6.33 3.9983 4.734 1.3174 9.714.5003 14.447-.4128 2.651-.5711 5.315-1.0714 7.979-1.5592 2.646-.542 5.339-1.0215 8.049-.7797 7.736.4711 12.444 5.9828 13.372 13.4081 1.046 8.9554-4.98 16.2932-8.965 23.7435-1.346 3.1144-1.304 6.8249-1.162 10.1102.384 3.606 1.016 7.229.669 10.865-.924 7.784-5.846 15.017-12.992 18.394-2.643 1.301-5.52 2.393-8.25 3.298-.807.284-1.635.488-2.467.667-2.806 1.697-5.465 5.003-5.089 8.347.447.604 1.108 1.08 1.785 1.367 1.577.759 3.132.121 4.592-.508-.506-1.159-.899-2.598.129-2.873.427-.091.924.188.996.638.301 2.393 2.136 4.411 3.453 6.246 2.434 3.247 5.926 5.532 9.693 6.962 2.58 1.051 5.185 1.355 7.916 1.484 1.041-.104 2.14-.016 3.152-.258a.8318.8318 0 0 1 .64.033c.456.213.636.838.322 1.251-.443.613-1.338.425-2.003.521-.853.05-1.71.15-2.563.121-.899-.071-1.798-.158-2.693-.271a.726.726 0 0 1-.029.163c-.322 1.038-.31 2.122-.126 3.181.423 2.226 1.364 4.29 2.413 6.287.393.221.757.463 1.242.458.828.038 1.739.08 2.492-.316.703-.326 1.355-.722 1.899-1.272.551-.429 1.129-.813 1.647-1.28 2.028-2.839 3.818-5.849 5.875-8.676 6.381-10.565 11.896-21.651 16.107-33.253.627-1.668.945-3.227 1.564-4.853.347-.872.74-1.722.999-2.627.745-2.806 1.489-5.62 1.982-8.484.456-3.857 1.104-7.7299.912-11.6239-.092-4.5194-.979-8.847-1.853-13.2455l-.025.0209ZM150.57 53.2404c-2.032-.6754-3.909-1.7636-5.54-3.1436-1.56-1.2882-3.053-2.8892-5.173-3.1185-.702-.1543-.819-1.2007-.188-1.5259.561-.2669 1.192.0834 1.761.1793 2.927.9672 4.762 3.8273 7.526 5.1197.811.3836 1.631.7671 2.492 1.0131.502-.0667.979.3252.975.8339-.03.9714-1.175.938-1.848.6462l-.005-.0042Zm17.93-27.6583c.026-1.1007 1.677-1.1049 1.698 0-.025 1.1006-1.677 1.1048-1.698 0Zm16.099 9.6641c-2.337-1.7886-4.926-3.2436-7.422-4.807-1.154-.6546-2.317-1.2967-3.504-1.8929-.615-.371-1.794-.6795-1.422-1.6218.172-.4002.69-.642 1.1-.4377 1.476.7629 2.94 1.5467 4.395 2.3514 1.735 1.0048 3.412 2.1138 5.101 3.1894 1.062.5712 2.011 1.305 2.961 2.0387.372.1293.577.5045.547.9006-.2.9589-1.171.8422-1.76.2793h.004ZM169.592 146.909c-.615-.196-1.238-.629-.912-1.346.343-.692 1.113-.442 1.648-.15.978.5.255 1.947-.74 1.496h.004Zm14.033 6.146c-.552.308-1.234.192-1.836.162-2.576-.05-4.993-.984-7.196-2.255-1.004-.471-1.915-1.097-2.793-1.764-.373-.262-.49-.771-.23-1.155.886-1.084 1.961.58 2.822.93 2.601 1.497 5.449 2.814 8.514 2.593-.009 0-.017.009-.013.009.907-.33 1.556.959.732 1.48Zm4.382-59.3986c-1.639 3.1603-1.572 6.8336-.991 10.2566.117.7.192 1.409.297 2.113.134.309.071.688-.172.93-.326.325-.853.317-1.183 0-.472-.571-.326-1.413-.489-2.105-.703-3.94-.882-8.1927.999-11.8449.452-.9923 1.949-.3711 1.543.6503h-.004Zm-.23-2.8642c-.376-1.2216 1.334-1.7635 1.618-.5045.372 1.2216-1.325 1.7678-1.618.5045Zm15.534 45.0768c-.836 1.881-1.873 3.586-2.776 5.404-.444.946-.916 1.88-1.38 2.81-.067.487-.586.813-1.054.683-1.171-.421-.33-1.726.075-2.43.979-2.172 2.175-4.232 3.241-6.358.309-.63.569-1.28.84-1.926.176-.417.678-.622 1.096-.442.995.471.213 1.551-.046 2.259h.004Zm1.614-4.919c-.456 0-.836-.38-.836-.834 0-.455.38-.834.836-.834.456 0 .836.379.836.834 0 .454-.38.834-.836.834Z"/><path fill="#9EF1FF" d="M178.431 157.007c-.485.167-.974.346-1.413.688-1.075.821-2.266 1.505-3.236 2.456-.126.25-.322.475-.565.583-1.501 6.279-1.037 12.771-1.384 19.166.146.113.268.267.343.459 1.049 2.218 3.207 4.181 5.741 2.885 2.906-1.401 4.976-4.128 5.854-7.188.857-3.389-1.367-6.42-2.827-9.293-1.492-2.964-3.111-6.375-2.517-9.747l.004-.009Zm1.882 14.772c-.456 0-.836-.38-.836-.834 0-.455.38-.834.836-.834.456 0 .836.379.836.834 0 .454-.38.834-.836.834ZM234.38 81.3366c-1.226-.9297-2.284-1.7802-3.613-2.414-1.138-.4878-2.334-.8171-3.471-1.3091-1.999-1.0881-5.231-1.9387-8.133-3.0602h-.004c-5.047-1.2966-.937 8.7678.682 10.3396.761 1.1924 1.927 2.0387 3.102 2.785 1.598.3335 3.199.8714 4.734 1.1257 3.257.7755 7.004 1.997 9.446-1.134.777-2.0262-1.142-5.0948-2.743-6.3288v-.0042Zm-10.935 3.2269c-.456 0-.82-.4252-.803-.8672.021-.4669.414-.8004.87-.8004s.819.4252.803.8672c-.021.4669-.414.8004-.87.8004Zm7.752 2.8851h-.016c-1.861-.4169-3.642-1.1132-5.373-1.9053-.992-.467-.327-1.9428.689-1.5218 1.297.5712 2.593 1.1674 3.935 1.5093.552.2251 1.284.1668 1.69.6462.485.6337-.23 1.5218-.933 1.2758l.008-.0042Z"/><path fill="#000" d="M234.446 79.2979c-2.383-2.0763-5.532-2.6725-8.312-4.0316-2.217-1.0257-11.027-3.177-11.303-5.6993.009-.0584.021-.1168.046-.1751.473-.2668 1.029-.4294 1.627-.5295.226.05.422.0125.581-.0709 1.911-.1626 4.152.2627 5.766.5003 1.882.4169 3.764.8172 5.674 1.0632 1.012.1459 2.074.1709 3.053-.1751 3.851-1.4051 3.479-4.7863.895-7.3044-1.706-1.897-3.801-3.4813-6.302-4.14-3.997-1.3926-8.204-2.1222-12.339-3.0227-.113-.05-.234-.0792-.36-.075-1.296-.246-2.584-.5129-3.838-.9298-.787-.2876-1.61-.5169-2.338-.9297-.359-.6796-.723-1.355-1.095-2.0304.802-1.5509 5.895-1.4509 8.919-1.355.949.0292 1.689.0626 2.036.0417 2.103.0084 4.202-.4586 6.088-1.3925 1.589-.7338 2.852-2.4348 2.559-4.2317-.418-2.3806-3.604-4.1108-5.691-5.003-3.274-1.5009-6.899-1.5218-10.432-1.4426-1.552-.05-3.107.1418-4.667.3336-.196.025-.389.0458-.585.0708h-.03c-2.099.2544-4.194.4462-6.28 0-.385-.15-.774-.346-1.129-.592a68.9357 68.9357 0 0 0-1.016-1.159c.075-.4419.681-.6587 1.016-.8922 2.295-1.2424 5.185-1.576 7.744-2.2305 2.764-.5003 5.624-.6337 8.279-1.6177 3.81-1.48 3.27-4.1817.54-6.4747-1.598-1.2758-3.571-2.0721-5.57-2.4807-4.052-.5753-8.238-.0875-12.21.8172-.87.1501-1.723.3669-2.576.6045-.054 0-.108 0-.167.0084-.427.125-.87.2585-1.305.4085-.618.1751-1.242.3503-1.869.4962-1.865.3377-3.73.7254-5.615.938-1.393.1293-4.086-.5503-3.061-2.4223.506-.567 1.158-.938 1.86-1.2257.272-.0792.548-.1709.787-.2835.744-.2418 1.509-.4419 2.203-.7046 2.802-.9464 5.628-1.8219 8.401-2.86 1.89-.9506 5.08-1.8845 5.373-4.2901.063-1.0924-.707-1.9595-1.305-2.7976-.957-1.1006-2.529-1.3925-3.88-1.7635-3.466-.4962-7.004-.3836-10.445.2293-2.033.3794-3.914 1.2924-5.842 2.0095-1.401.5128-2.76 1.1257-4.106 1.7761-1.204.5003-2.429.9589-3.671 1.38-.067.0209-.138.0417-.209.0709-1.506.5003-3.032.9422-4.571 1.3049-.857.1126-2.688.542-3.738.1585-.038-.0125-.071-.0292-.109-.0417-.443-.2002-.719-.567-.665-1.2091.686-2.3014 4.713-3.6897 6.595-5.0614 2.425-1.7594 6.422-3.0602 7.463-6.0536.477-1.3467-.238-2.71-1.25-3.598C172.377-.296 169.793-.1 167.698.2377c-6.712 1.0548-12.495 4.8154-18.449 7.8214-3.416 1.3508-7.025 2.3139-10.646 2.9684a.815.815 0 0 0-.414.196c-1.514-.1668-3.048-.271-4.528-.3044-4.914-.4002-9.835-.1959-14.719.4586-2.413.3127-4.863.4253-7.23 1.034-2.316.6712-4.62 1.4133-6.891 2.2388-2.22.8339-4.407 1.7553-6.6611 2.5099-.5268.1751-1.0579.346-1.5847.5253-2.4378-2.5766-6.3559-3.0185-9.4083-.6337-.8531.6295-1.405 1.5509-1.8984 2.4723-.4349.8547-.8489 1.7302-1.0956 2.6558-.1254.0292-.2425.075-.3429.1542-.4306.1793-.8697.3252-1.2962.5087-2.2915 1.0339-4.3989 2.4264-6.4604 3.8523-3.9389 2.293-7.5392 5.0989-11.499 7.3586-3.5459 2.1596-7.0458 4.3943-10.5582 6.6165-6.9538 4.8404-13.4936 10.2603-19.7365 15.9763-9.6299 9.439-18.3901 19.8953-24.7543 31.8192C6.544 93.644 3.755 98.9764 2.0574 104.73c-2.3375 8.467-3.3745 18.027.556 26.178 3.3912 5.758 10.3032 9.072 16.7761 9.898 7.7106.892 13.9995-1.797 19.6947-6.829 5.5781-4.599 9.9602-10.298 13.8365-16.348 3.366-5.174 6.6527-10.218 10.0815-15.434 4.8965-7.417 10.8174-14.367 17.7168-20.0287 3.9724-3.1103 8.3462-5.666 12.7995-8.0257 4.746-2.514 9.7215-4.9113 14.9615-6.2329.196.0208.364-.0167.502-.0834.756.3335 1.534.6045 2.37.6795.979.0667 1.987.1376 2.948-.075 1.978-.5962 3.772-2.0262 4.78-3.844.581.0292 1.309-.246 1.785-.371.46-.2544.929-.4795 1.418-.6546.56-.0584 1.125-.0876 1.656-.1543 1.538-.0667 3.073-.1626 4.608-.2918.393-.0208.786-.0292 1.179-.0334.284.0417.568.0834.849.1168.811.0583 1.568.0834 2.391.1084.264.0375.523.0417.782.0333 1.878.2335 3.747.5837 5.608.9172 2.517.5254 5.072 1.4885 7.585 2.1222 7.711 3.0101 15.705 7.5003 19.239 15.3884 3.203 6.5498 4.39 14.0585 3.086 21.259-.686 3.118-1.263 6.266-2.137 9.334-1.689 4.528-3.6 8.981-6.013 13.175-2.333 3.994-5.034 7.746-7.614 11.603-.678.984-1.401 1.943-2.095 2.918-.318.426-.862.972-.803 1.489-.698.904-1.434 1.784-2.204 2.639-.347.429-.987.713-1.342 1.142-2.948.138-5.875.392-8.656 1.539-2.772 1.363-5.197 3.781-6.376 6.649-.807 2.148-.866 4.808.054 6.909-.18.092-.335.25-.418.496-4.215 3.798-8.627 7.384-12.875 11.144-1.798 1.772-3.638 3.49-5.532 5.153-2.772 2.573-5.31 5.391-7.84 8.201-3.266 3.661-5.9881 7.721-8.6015 11.857-2.1618 2.906-3.7173 6.204-5.3774 9.41-1.8482 4.519-3.2406 9.276-3.6797 14.15-.3972 2.552-.623 5.124-.5519 7.709 0 6.787 1.5137 13.462 2.973 20.062 1.1206 3.932 2.1827 7.905 3.479 11.836.6607 2.306 1.5722 4.541 2.7681 6.621 3.9934 7.054 11.2904 12.553 19.5774 12.937 7.97.284 16.596-2.476 22.066-8.438 3.592-3.532 5.327-8.393 6.686-13.133 2.672-9.844 2.011-20.142 3.441-30.173.556-3.956 1.301-7.884 2.798-11.611 2.433-5.941 5.937-11.432 9.734-16.601 2.229-2.919 4.604-5.729 7.184-8.351 2.229-2.273 4.754-4.24 6.874-6.617.201.071.406.134.611.179 5.31.592 10.775-6.599 10.173-11.59-.046-.638-.175-1.251-.355-1.851.192-.067.364-.196.468-.384.075-.129.142-.262.234-.379 1.79-2.097 3.621-4.157 5.256-6.379.172-.2.331-.408.481-.629.004-.017.009-.034.013-.055 3.123-4.894 6.59-9.572 9.27-14.738 4.98-8.968 9.362-18.261 12.745-27.941.54-1.743 1-3.478 1.769-5.166.878-2.485 1.426-5.082 2.036-7.642 1.175-6.262 1.907-12.712 1.029-19.0575.523-.1751 1.058-.3377 1.606-.4086 1.484-.1084 2.91.3794 4.328.7296 2.429.5128 4.825 1.2132 7.288 1.5468.347.0542.694.0792 1.045.0792 2.216 0 4.449-1.0465 5.746-2.8559.857-1.4092.363-3.1853-.193-4.6195-.748-1.9345-2.199-3.4812-3.897-4.6403l.008.0251ZM213.05 57.3304c.134.0292.276.0334.41.0125 3.746.7839 6.974 1.4134 10.767 2.489 1.325.4837 2.739.8047 3.951 1.5426 1.744 1.2008 6.883 5.1907 3.425 6.9959-1.142.6212-2.463.4086-3.688.2085-1.848-.2377-3.646-.7296-5.474-1.059-1.246-.1668-3.717-.542-5.795-.3627-.272-.1209-.51-.3085-.736-.5045-.652-.4628-1.397-.813-1.99-1.3466-.293-.3502-.636-.6587-.925-1.009-.267-.4544-.376-.9839-.669-1.43-1.25-1.6468-2.571-5.5617.732-5.5325l-.008-.0042Zm-2.76-.7045-.008.0083v-.0125h.012l-.004.0042Zm-6.561-16.0681c.31-.0792.636-.0792.945-.1459.005 0 .009 0 .013-.0042.878-.1042 1.752-.2168 2.618-.3001 5.812-.2835 11.783-.417 16.29 3.8773 2.07 2.5015-1.752 4.0941-3.763 4.5069-1.706.3418-3.433.2793-5.16.2168-1.309-.0459-2.622-.0959-3.922.0333-.318.0209-.644.0417-.97.0667a.9475.9475 0 0 0-.159-.0875c-1.447-.3419-3.132-.5504-4.499-1.1632-1.426-.9673-2.417-2.5265-2.798-4.1942-.38-1.4551-.267-2.4807 1.414-2.81l-.009.0041Zm-11.206-13.8667c2.538-.6795 5.064-1.4175 7.694-1.6218 3.441-.4002 7.146-.7379 10.353.8547 1.25.5295 2.35 1.3883 3.145 2.5015 1.89 2.439-4.554 3.0268-5.967 3.3729-3.128.2918-6.193 1.0798-9.225 1.8886-.029.0125-.058.0209-.087.0334a.931.931 0 0 0-.523.0083c-.899.0125-1.94.0417-2.839-.246-1.974-.4628-5.453-2.022-5.261-4.4235-.15-1.505 1.468-1.9428 2.714-2.3597l-.004-.0084Zm-23.048-8.009c.175-.7713.941-1.1215 1.589-1.4592.882-.3002 1.76-.6087 2.63-.9297 1.873-.763 3.667-1.7094 5.578-2.3806 1.606-.6129 3.182-1.3216 4.859-1.7302 1.639-.3127 3.307-.4961 4.976-.5545 2.521-.0584 5.143-.0417 7.485.9922.723.3294.995.9881 1.442 1.6636.055.1083.071.1417.101.2626-.176 2.3389-9.865 4.8029-14.606 6.4664-.076.0083-.151.025-.222.0584-1.334.4586-2.672 1.0339-4.068 1.3716-2.752.7296-5.817-.1626-8.075-1.8386.021.0125.021.0125.025.0167a.075.075 0 0 1 .025.0167c-.472-.3336-.878-.6129-1.271-1.0715-.155-.221-.326-.517-.518-.7838.016-.0334.029-.0709.046-.1042l.004.0041Zm-21.756-7.492c.133-.2793.313-.4961.493-.7963.046-.0625.08-.1251.109-.1876 1.338-.4795 2.642-1.0381 3.876-1.772 4.579-2.4847 9.199-5.0947 14.326-6.2704 2.333-.4252 5.778-1.334 7.183 1.2091l.009-.0083c.702 2.2513-3.45 3.944-4.955 4.9863-1.69 1.059-3.375 2.1054-5.127 3.056-.915.6045-1.957 1.2383-2.764 2.0471-.159.025-.322.1042-.468.2501-.284.3169-.661.5337-1.012.7713-.615.3336-1.296.5587-1.994.6129a1.078 1.078 0 0 0-.715.1334 88.9714 88.9714 0 0 0-7.607-2.1138c-.129-.1167-.288-.1959-.451-.2501-.435-.4336-1.012-1.0048-.895-1.6718l-.008.0041Zm11.904 5.0572s-.029-.0125-.046-.0166c.013-.0042.03-.0125.042-.0167v.0333h.004Zm-61.5843 5.1782c1.129-1.1632 2.3963-2.3515 4.0723-2.5724 1.033-.1251 2.1.05 3.07.4294.773.5337 1.396 1.3383 1.802 2.1846.46 1.5968.794 3.3145.706 4.9822-.037.2919-.146.6171-.125.9131-4.018 2.1263-7.518 5.3198-10.7965 8.3925-1.844 1.8178-3.5961 3.7273-5.4777 5.5075-.2844.0209-.5812.1751-.8363.3294-1.1248.542-2.5382.7796-3.8093.8838.9074-.9047 1.7436-2.0679 2.0698-2.5348 2.2538-3.277 3.6337-7.3253 5.2226-11.0066 1.0789-2.6433 2.0824-5.4033 4.0979-7.5087h.0042Zm16.2533 5.5992c3.997-.1501 6.883 3.402 5.862 7.2668-1.078 4.336-6.895 6.9501-10.746 8.4385-6.038 2.1804-12.536 3.2019-18.298 6.1537-.5562.3002-1.9235.7296-2.6803 1.3341-.5938-1.2924-1.2545-2.5515-1.9737-3.7773 1.1165-.05 2.8309-1.3258 3.4748-1.7552C95.35 40.2076 99.6025 34.45 105.561 30.5935c2.626-1.7511 5.465-3.5647 8.735-3.5647l-.004-.0041Zm-28.5092-4.3276c.4098-1.3884 1.0704-2.7309 1.9444-3.8899 2.2621-2.2222 5.6199-2.2138 7.7106.0917.0585.3127.2969.5796.5812.7171.138.1876.2634.3878.3387.6087-.0084.1501.0293.3044.1087.442-.5686.667-1.0788 1.3716-1.5178 2.0679-2.4671 4.5277-3.9055 9.5349-6.2931 14.1043-.3011.5212-.6105 1.059-.9325 1.5843a.8962.8962 0 0 0-.4558.2293c-.853.3252-1.7562.467-2.6594.5629-.7067.1209-1.4342.125-2.1451.0375 0-.0042.0084-.0084.0126-.0125 3.6713-4.7237 2.2412-11.0275 3.3117-16.5433h-.0042ZM78.298 82.0453c-4.1271 3.5313-7.8068 7.5671-11.2314 11.7738-4.3864 5.3991-7.9365 11.3939-11.7792 17.1769-3.4079 5.145-6.6026 10.473-10.6126 15.188-3.7926 4.228-8.0033 8.272-13.0545 10.965-3.7006 1.914-7.8695 2.427-12.0301 2.01-6.1928-.805-13.6943-4.315-16.0986-10.452.2132-.142.3847-.375.4766-.63.874-1.134 1.6308-2.376 2.7138-3.339 3.479-3.49 8.7685-3.873 13.4434-4.074 2.7891-.304 5.5865.051 8.388-.1 3.1361-.141 6.2597-.875 9.1324-2.143 6.8158-3.243 12.6113-8.617 16.6589-14.959 3.7424-6.1908 6.7656-12.9741 11.8628-18.2314 2.9772-2.8225 6.9078-5.3574 11.0893-5.1906.1254.0333.2551.0667.368.1042.4934.4086.7693 1.1048.7024 1.7385.0084-.0291.0084-.025.0084-.025-.0209.0626-.0293.1251-.0376.1876Zm23.123-13.7666c-.167.0959-.292.2543-.363.4378-.364.1542-.728.3085-1.0875.4711-5.1641 2.2764-10.2153 4.8988-14.9655 7.9715-.6146-.5087-1.2502-1.0131-1.9945-1.305-3.9724-1.2632-8.4382-1.2507-12.3395.2668-1.0119.4295-.414 1.9304.6105 1.551.8614-.3627 1.7646-.6087 2.6845-.7588 1.8147-.3502 3.7884-.3878 5.6366-.1251 1.4091.1626 2.8225.4878 3.964 1.33-.6857.4627-1.3673.9339-2.0405 1.4175a2.4709 2.4709 0 0 0-.4182-.271c-1.175-.542-2.3918-.8213-3.6169-.8922-.1799-.0292-.3597-.0417-.5186-.0167-3.7967-.0292-7.6228 1.9053-10.4536 4.3568-2.8141 2.1972-4.7794 5.2157-6.8116 8.1007-2.4587 3.8107-4.4533 7.8923-6.8116 11.7569-4.4031 6.85-11.8796 13.746-19.9749 15.676-3.7215 1.026-7.6395.534-11.4488.647-5.2729.312-11.1311.387-15.3126 4.065a9.7244 9.7244 0 0 0-.4976.437.9258.9258 0 0 0-.2216.138c-.2927.296-.715.438-1.1164.513-.6398.137-1.0538-.18-1.589-.551-.3178-.196-.4683-.492-.7568-.713-.2175-1.78-.276-3.585-.2802-5.365.184-7.017 2.1367-13.959 5.114-20.3126 3.6755-7.1793 7.606-14.2752 12.3729-20.8 6.1802-8.0841 12.9416-15.7595 20.6899-22.3927 4.7083-4.0941 9.5923-7.9923 14.6937-11.5861 4.9174-3.177 10.0355-6.3163 15.0365-9.3849 1.7144-1.1465 3.3494-2.4056 5.1223-3.4646.6899-.3794 1.3548-.7963 2.0113-1.2257.0711 0 .1463-.0125.2216-.0333.2634-.1168.5101-.2627.7861-.3503 2.12-1.0172 5.1432.6671 5.4401 2.9602.0251.2584.138.7337.138 1.0756-.046.1709-.0586.3544-.0251.5253-.3011 2.2389-.9325 4.3485-2.4043 6.0829-.1088.0959-.2175.1917-.3178.2918-.6231-.5462-1.2921-1.0423-2.0155-1.4675-1.4259-.7338-2.2413 1.4216-.623 1.5551 2.8392 1.7969 4.679 4.7737 6.5272 7.5003 1.451 2.4181 2.7556 4.9697 3.7174 7.6296a.9134.9134 0 0 0 .1589.4503c.8237 2.3764 1.3673 4.8404 1.4927 7.3836.0377.4544.46.7963.9074.7588.506-.0417.8405-.5378.7485-1.0215-.046-.5878-.0962-1.1757-.1589-1.7594 2.6427-.3126 5.3105.5254 7.535 1.9262.4056.2335.8028.4836 1.1954.7421.795.8464 1.543 1.7678 1.928 2.8726.443.9923.105 2.1263-.585 2.9226l.016-.0167Zm13.185-1.7052c-.975.4795-2.104.3335-3.153.2752-1.121-.1293-2.103-.7338-3.124-1.1757-1.58-.6504-2.948-1.5968-4.34-2.5724-.958-.6337-1.865-1.2633-2.764-1.8553-.205-.2293-.46-.4211-.732-.4711-2.5421-1.6093-5.1012-2.81-8.576-2.6975.4892-1.6635 1.1039-3.1477 2.3124-4.4568.1588-.2585.4056-.4545.6063-.6796 1.7102-.3252 3.458-.492 5.1803-.6087 2.831-.2168 5.696.3961 8.468.9589 2.007.5086 3.964 1.2216 6.013 1.5426.79.1793 1.61.2251 2.421.1459.13.196.33.3627.481.5295.74 1.1715.807 2.6641.886 4.0149.214 3.2728-.627 5.4825-3.679 7.0501Zm3.316-13.4456c-3.592.8297-7.071-1.2966-10.6-1.7636-3.396-.7921-6.892-.9422-10.3412-.4169-1.7646.1876-3.5417.5087-5.2478 1.0382.7234-.8297 1.4844-1.6719 2.2622-2.4015.0502-.0834.0836-.1626.1045-.246 3.8762-1.6593 8.0163-2.5432 12.0553-3.8315 3.483-1.0006 7.175-2.293 10.278-4.3484.443.2668 1.146.2335 1.631.3627.961.2418 1.81.8172 2.542 1.4676.493.5336 1.129 1.0089 1.38 1.7093.288 1.4342.523 2.9393.209 4.3902-.393 2.0846-2.388 3.3812-4.273 4.0316v.0083Zm42.939 76.0871c.472.059 1.029-.091 1.48-.062 2.76-.375 5.478-1.455 7.753-3.06.882-.655-.046-1.976-.954-1.372-.56.442-1.179.805-1.823 1.113-1.53.726-3.102 1.351-4.792 1.626-.205.034-.41.046-.619.05 2.777-4.648 5.018-9.622 6.862-14.704.715-2.473 1.209-5.012 1.748-7.53 2.116-8.6469.682-18.0067-3.63-25.7739-3.157-5.9827-9.023-10.081-15.086-12.7993-2.413-1.2633-4.83-2.1263-7.473-2.7809-3.06-1.0256-6.238-1.6885-9.445-2.0971-.134-.1-.31-.1667-.523-.1667-.238.0125-.473.0166-.707.0208-.803-.0876-1.605-.1668-2.413-.2251a42.9696 42.9696 0 0 0-1.271-.0084c-.179-.0208-.363-.0417-.543-.0625-.096-.1042-.218-.196-.326-.296-.26-.2127-.544-.4753-.787-.7213-1.451-1.6885.021-3.6939 1.213-5.1781 2.492-2.9184 6.026-5.3658 9.864-3.919 3.007 1.7719 5.382 4.5569 8.71 5.7993 4.307 1.5051 9.024 1.059 13.444.321 3.412-.617 6.794-1.3842 10.211-1.972 2.015-.3919 4.026-.8213 6.084-.8505 7.05-.221 11.921 3.6563 13.36 10.523.861 4.115-.034 8.4384-1.786 12.2073-2.099 4.4152-4.984 8.4218-7.1 12.8203-1.188 3.4854-1.221 7.296-.937 10.9361.435 3.727 1.079 7.462.402 11.236-1.058 5.269-3.839 10.089-8.129 13.391-2.86 2.168-6.218 3.515-9.58 4.736-.067-.004-.134-.008-.205.004-.573.125-1.166.13-1.748.046-.476-.108-1.032-.225-1.354-.633-.063-.063-.105-.155-.143-.246.08-.126.164-.246.243-.372Zm-19.862 18.57c2.998-.83 6.222-.755 9.308-.905 3.504-.196 7.008-.721 10.345-1.842-.552 2.067-1.719 3.848-2.605 5.774-.013.029-.017.062-.025.092-2.283 1.45-4.721 2.676-7.138 3.877-4.554 1.88-10.646 3.685-14.167 7.484a1.0584 1.0584 0 0 0-.2-.092c-1.786-.413-3.061-1.897-3.254-3.707-1.02-4.886 3.153-9.58 7.74-10.681h-.004Zm21.179 5.353c-.025.079-.029.159-.029.238-.828 1.059-1.694 2.097-2.58 3.135-2.149 2.372-4.24 4.553-6.54 6.838-2.852 2.618-5.703 5.361-7.69 8.73-.986 1.542-2.057 3.189-2.525 4.969a3.616 3.616 0 0 0-.36-.004c-3.947-.475-6.264-4.502-6.778-8.109-.209-2.697 1.51-4.965 3.458-6.641 3.496-2.764 7.799-4.161 11.926-5.775 2.007-.85 3.905-1.909 5.791-2.997 2.279-1.222 4.508-2.677 6.368-4.515-.259 1.396-.623 2.776-1.041 4.135v-.004Zm4.341-3.189c1.191 1.171 2.504 2.222 3.951 3.102.125.071.251.141.376.212-1.605 1.618-3.324 6.267-3.905 7.221-1.242 2.289-2.425 4.603-3.379 7.025-.727 2.027-1.689 4.157-2.626 6.137-1.371 2.81-2.739 5.712-4.884 8.047-.907.867-1.856 1.693-2.952 2.31-1.384.846-2.893 1.659-4.57 1.313-1.689-.121-2.434-1.076-3.207-2.447-2.208-3.957-.661-6.817 1.626-10.206 2.133-3.64 5.44-6.271 8.346-9.248 4.09-4.111 8.246-8.438 11.228-13.462l-.004-.004Zm-33.251 17.786s-.013-.009-.021-.017c-.013-.008-.021-.017-.034-.025.017.012.038.029.055.042Zm26.46 30.977c-4.993 6.541-9.4 13.662-11.679 21.583-1.564 6.012-2.028 12.241-2.517 18.416-.234 5.032-.485 10.085-1.426 15.046-.594 3.411-1.577 6.733-2.919 9.965-1.02 2.743-2.701 5.157-4.808 7.225-4.91 4.994-12.123 7.312-19.047 7.446-2.685-.063-5.394-.546-7.895-1.526-2.475-1.176-4.821-2.677-6.803-4.578-5.3605-5.057-6.8157-10.319-8.8604-17.089-1.0119-3.79-2.2706-7.697-2.9229-11.599a67.1504 67.1504 0 0 1-.3554-1.597c.0627-.1.1171-.204.1589-.317.5687-.958 1.3255-1.913 2.534-1.972.9157-.146 1.9025-.07 2.7472-.529.0251-.013.0418-.029.0669-.046 3.9264-1.101 7.7277-4.845 11.9837-3.01 1.656.65 3.036 1.814 4.495 2.802 1.313.854 2.225 2.13 3.358 3.185 1.367 1.067 2.58 2.318 3.956 3.364 1.476.997 3.228 1.514 4.967 1.831 9.877.904 15.351-10.006 15.702-18.499.238-2.677.121-5.357.067-8.038.18-3.194.217-6.421.723-9.581.824-3.194 2.162-6.412 4.449-8.843 3.107-3.147 7.385-5.044 11.746-5.712h.468c1.021.126 1.911.901 1.836 1.981-.013.029-.017.058-.025.092Zm4.19-5.354c-.573.938-1.497 1.66-2.647 1.618h-.092c-.602-.075-1.204-.125-1.811-.146-.698-.017-1.388.029-2.074.121-.41.012-.811.083-1.187.204-1.878.392-3.701 1.08-5.474 1.78-4.127 1.818-7.669 5.074-9.383 9.277-.774 1.659-1.409 3.398-1.735 5.203-.314 1.747-.293 3.531-.431 5.299-.456 4.403.125 8.822-.376 13.221-.669 5.64-3.128 12.019-8.468 14.729-2.701 1.247-5.181 1.389-7.945.246-1.388-.479-2.425-1.522-3.483-2.489-1.43-1.1-2.689-2.364-3.905-3.685-4.905-3.915-8.305-6.517-14.548-3.332-1.9106.809-3.6751 1.993-5.745 2.36-.0669 0-.1379.004-.2049.025-.0376.013-.0794.017-.1212.021-.0209 0-.0376.004-.0585.008-.1673.009-.3388-.02-.506-.025-1.1039-.125-2.212-.554-3.0441-1.305-.3805-.358-.715-.754-1.0203-1.188a1.1852 1.1852 0 0 0-.3512-.475c-.3429-2.981-.4893-5.987-.3764-8.997.1966-2.973.6356-5.975 1.0872-8.951.6941-3.044 1.6057-6.05 2.7389-8.964 1.1164-2.456 2.4838-4.79 3.7549-7.167.9701-1.576 2.1284-3.027 3.086-4.611 4.2026-6.833 9.6756-12.841 15.5216-18.315 1.915-1.635 3.659-3.456 5.519-5.153 1.987-1.693 3.973-3.386 5.955-5.087.025-.008.046-.012.071-.025 1.388-.917 3.161-1.501 4.809-.996.61.308 1.162.688 1.731 1.13.359.3.535.683.798 1.104.076 1.76.753 3.478 1.614 5.004 1.217 2.684 3.99 4.707 6.954 4.915-.008.308.004.617.046.93.193 2.355 1.251 4.665 2.961 6.308 1.045.838 2.45 1.042 3.755 1.1 1.848.038 3.834-.967 5.54-2.201.029.054.054.108.084.163.309.767.882 1.467 1.417 2.059.41.467.786.972 1.234 1.405 1.1.859 2.413 1.48 3.721 1.96.745.312 1.514.412 2.275.362.372.1.719.255.983.547.205.704-.335 1.421-.669 2.013Zm5.289-9.226c-.865 2.71-2.028 3.99-4.813 4.857-.217.071-.439.113-.656.133-.502-.116-1.02-.191-1.526-.291-2.434-.63-4.24-2.456-5.7-4.461-.062-.167-.117-.334-.146-.517.012-.071.012-.142.008-.205.352-.308.686-.613.983-.909 1.367-1.396 2.316-3.118 3.261-4.811 2.447-4.232 3.985-8.876 6.026-13.291.753-1.559 1.66-3.035 2.367-4.62v-.004c.276-.037.531-.204.652-.458.502-.559 1.07-1.064 1.614-1.585.418-.396.82-.809 1.259-1.18-1.28 4.09-1.911 8.364-2.112 12.637-.41 4.886.556 10.027-1.229 14.705h.012Zm14.577-8.084c-.883 3.064-2.952 5.787-5.854 7.188-2.534 1.296-4.692-.668-5.741-2.886-.076-.191-.197-.346-.343-.458.347-6.396-.122-12.883 1.384-19.166.242-.108.439-.333.564-.584.97-.946 2.162-1.634 3.237-2.455.439-.342.928-.521 1.413-.688-.594 3.373 1.025 6.783 2.517 9.747 1.46 2.873 3.684 5.904 2.827 9.294l-.004.008Zm32.532-70.217c-.494 2.864-1.238 5.678-1.982 8.484-.26.905-.649 1.755-1 2.626-.619 1.626-.936 3.186-1.564 4.853-4.206 11.603-9.726 22.689-16.107 33.254-2.057 2.822-3.847 5.832-5.875 8.676-.514.463-1.095.85-1.647 1.28-.54.554-1.192.946-1.899 1.271-.752.396-1.664.351-2.492.317-.485.004-.849-.237-1.242-.458-1.053-1.997-1.99-4.057-2.412-6.288-.184-1.059-.197-2.143.125-3.181.017-.058.021-.108.029-.162.895.112 1.794.196 2.693.271.853.029 1.715-.071 2.564-.121.66-.096 1.555.092 2.002-.521.318-.413.138-1.038-.321-1.251-.201-.096-.431-.104-.64-.033-1.012.241-2.112.154-3.153.258-2.726-.133-5.336-.438-7.916-1.484-3.767-1.426-7.259-3.715-9.692-6.963-1.322-1.834-3.157-3.852-3.454-6.245-.071-.45-.569-.73-.995-.638-1.029.271-.636 1.714-.13 2.873-1.459.629-3.011 1.267-4.591.508-.673-.287-1.338-.763-1.786-1.367-.376-3.344 2.283-6.65 5.089-8.347.832-.179 1.66-.384 2.467-.667 2.731-.905 5.603-1.997 8.25-3.298 7.146-3.377 12.072-10.61 12.992-18.394.347-3.636-.284-7.259-.669-10.865-.138-3.2855-.18-6.9961 1.162-10.1105 3.985-7.4461 10.011-14.7881 8.966-23.7434-.929-7.4254-5.637-12.937-13.373-13.4081-2.714-.2418-5.402.2376-8.049.7796-2.668.492-5.327.9881-7.978 1.5593-4.73.913-9.714 1.726-14.447.4127-2.421-.7713-4.366-2.4598-6.331-3.9982-1.296-.9798-2.593-2.143-4.257-2.3973-3.211-.567-6.397.8005-8.693 3.0018-.427.3919-.824.8088-1.213 1.2341-.397.271-.736.8046-1.012 1.2007a30.5199 30.5199 0 0 0-1.2 1.626c-.803 1.2716-2.124 3.0977-3.88 2.8184a.9082.9082 0 0 0-.197-.0501c-.924-.938-1.668-2.1638-2.337-3.623-.163-.3127-.33-.6254-.519-.9214-.054-.0875-.108-.1751-.167-.2626 2.609-1.1174 4.646-3.498 4.571-6.4789 0-1.1966-.159-2.4098-.427-3.573-.435-1.33-1.593-2.2972-2.651-3.1519-.82-.6212-1.756-1.0548-2.756-1.2675.912-.7629 1.748-1.6134 2.476-2.5723 4.085-6.7875-1.597-13.6333-9.099-11.5862-.749.2251-1.476.4961-2.187.8005.117-1.1132-.146-2.3014-.322-3.3729-.188-2.6891-2.04-5.57-4.913-5.841a6.202 6.202 0 0 0-1.079-.1459c3.182-1.2007 6.36-2.414 9.663-3.252 5.478-.8422 10.864-1.5301 16.463-1.5092 3.475.2001 6.987.1792 10.437.7129 4.976.7588 10.169 1.6969 15.036 3.2144 4.592 1.4759 9.133 3.302 13.536 5.3658.079.0709.167.1376.276.1834a.7995.7995 0 0 0 .23.0584c1.283.6087 2.563 1.2382 3.822 1.8845 6.485 3.4687 13.292 6.5081 18.988 11.2359 1.058.9172 2.057 1.8886 3.014 2.9018.306.6337.816 1.1506 1.418 1.5676 2.446 2.8308 4.57 5.941 6.506 9.1555.653 1.3925 1.497 2.6599 2.279 3.9732.113.2043.234.4086.343.6212.146.2752.297.5462.448.8172.058.1209.125.2376.179.3585.807 1.5009 1.614 3.006 2.321 4.5528.059.2168.163.4211.335.567 1.166 2.4681 2.232 4.9863 3.223 7.5295 1.677 4.5111 2.731 9.2097 3.785 13.8959.874 4.3985 1.76 8.7261 1.852 13.2455.192 3.894-.46 7.7633-.912 11.6233l.026-.02Zm20.819-18.1698c-2.442 3.1311-6.184 1.9095-9.446 1.134-1.534-.2543-3.136-.7921-4.733-1.1256-1.175-.7463-2.346-1.5885-3.103-2.785-1.618-1.5718-5.729-11.6362-.681-10.3396h.004c2.897 1.1215 6.134 1.9762 8.133 3.0602 1.133.4919 2.329.8213 3.47 1.3091 1.33.6337 2.388 1.4842 3.613 2.4139 1.606 1.2341 3.525 4.3026 2.743 6.3289v.0041Z"/><path fill="#000" d="M57.5495 65.0767c-.0544-.3293-.3053-.617-.6482-.6879-.9951-.3252-1.9987-.6587-3.0483-.7463-2.697-.321-5.369.3294-7.7942 1.4968-2.2873 1.0089-4.5453 2.1221-6.6318 3.5021-.1045.0375-.1965.1-.276.1834-.0083.0042-.0167.0084-.0251.0167-2.1576 1.4592-4.3445 2.9351-6.2094 4.7654-1.8148 1.9387-3.5041 4.0232-4.8213 6.3371-2.6761 4.5111-4.6749 9.5766-4.9592 14.8507-.1923 3.3186.0084 6.8043 1.2963 9.9013.347.751.8112 1.43 1.2544 2.123.3345.458.531 1.104 1.0872 1.346.23.084.4599.059.6816-.029 2.4252-.625 4.9048-1.076 7.2423-2.005 2.6552-.947 4.7417-2.694 6.9788-4.39 4.6958-3.857 8.4089-8.7558 11.3402-14.0423 2.9103-5.1573 5.1097-10.8815 5.6282-16.8101.0544-1.6385.2425-4.6737-1.1039-5.8035l.0084-.0084ZM41.5554 99.1515a1.0183 1.0183 0 0 0-.1798.6378c-1.7103 1.4927-3.5417 2.8437-5.5112 4.0067-2.6552 1.334-5.5865 1.955-8.4633 2.614-.1547-.25-.3052-.5-.4641-.746-3.0358-4.361-2.4922-11.7115-1.0872-16.677.4558-.4419.8697-1.134 1.5011-1.0673.5687.1334 1.2336.1626 1.4677.7754l.0084.0084c1.2921 3.8231 4.4491 6.9709 8.5553 7.9881.0209.0125.0418.0251.0627.0334.5979.2418 1.2001.5086 1.8482.5628.4558.0125.9032.0834 1.313.296.5896.2669 1.2879.8672.945 1.5718l.0042-.0041Zm.0334-3.8482c-7.9782 1.0131-14.1459-7.3336-10.7965-14.6422 3.2406-7.2877 13.4016-8.3342 18.0555-1.8219 4.654 6.3205.5938 15.6011-7.259 16.4641Zm13.3974-15.8679s-.0334.0333-.0501.0584c-.3931.7087-1.0412 1.3758-1.8232 1.6301-.5017-.0375-1.175-.1626-1.3966-.6712a.8614.8614 0 0 0-.2341-.3502c-1.8817-4.336-5.7746-6.7541-9.8683-7.171-.2467-.246-.6481-.3211-.9492-.492-.2132-.1251-.3471-.3377-.5018-.5253-.3303-.4836-.4557-1.1007-.0627-1.5885.0544-.0917.1255-.1751.1924-.2585 2.5381-1.6551 5.2895-2.9642 8.0995-4.0941 2.5214-.9797 5.4108-.9839 7.9364-.0167 1.5304 3.2103.3972 8.6761-1.3423 13.479Z"/><path fill="#000" d="M36.4081 79.4729c-2.003 1.3841-2.9062 3.6605-2.7682 5.8744.1171-.1209.2425-.2252.3722-.3211.3972-.2876.8363-.5211 1.3255-.6045.3596-.0625.7861-.025 1.1123.1584.3596.2001.6481.492.8404.8547.1924.3627.3011.763.3346 1.1715.0334.4211-.1004.8172-.3137 1.1758-.0961.1584-.2341.2918-.3637.4169-.1464.1417-.3304.2418-.5102.3377-.2969.1626-.6356.2376-.9743.2626a1.9969 1.9969 0 0 1-.3512.0334 2.2203 2.2203 0 0 1-.2885-.0209c.5436.7839 1.267 1.4593 2.166 1.9596 1.0537.617 2.1743.9005 3.2782.9005 3.6588 0 7.0793-3.0852 6.8116-7.1126-.2258-5.2323-6.452-8.1925-10.671-5.0864ZM71.1519 35.1587c-.2091.3461-.6105.5045-.9241.738-1.9779 1.3675-4.0184 2.6224-6.151 3.7314-1.384.6796-2.7514 1.3758-4.056 2.2055-.3972.2293-.552.7296-.3303 1.134.7777 1.2216 2.3541-.6295 3.2866-.9381 3.0148-1.3883 5.854-3.1435 8.5887-5.0197.4934-.3252 1.1165-.7796 1.0747-1.4342-.0544-.7087-1.0747-1.0089-1.4886-.4169ZM57.7 45.0522c.4558 0 .8405-.3669.8447-.8255.0042-.4503-.3722-.8422-.8279-.8422-.4558 0-.8405.3669-.8447.8255-.0042.4503.3722.8422.8279.8422ZM30.1275 74.1989c.8781-.9298 1.7897-1.8387 2.7682-2.6642.7526-.6712 1.5764-1.3299 2.3583-1.9803.7778-.7713-.3471-1.9303-1.1624-1.2007-1.7604 1.4467-3.4707 2.8767-5.0596 4.5736-.4934.6295-1.6935 1.5592-.8196 2.3389.9032.6462 1.3925-.5212 1.911-1.0673h.0041ZM26.0003 78.5349c.4558 0 .8405-.3669.8447-.8255.0042-.4503-.3722-.8422-.8279-.8422-.4558 0-.8405.3669-.8447.8255-.0042.4503.3721.8422.8279.8422ZM36.9516 99.1348c-.4558 0-.8405.3669-.8446.8255-.0042.4507.3721.8417.8279.8417s.8405-.366.8447-.8251c.0041-.4502-.3722-.8421-.828-.8421ZM53.0963 72.5145c-.1798.8631-.3346 1.6844-.5562 2.5432-.23.3586-.163.8464.1798 1.1174.7485.5503 1.4301-.2293 1.5137-.9673.1673-.8213.3638-1.6385.5185-2.464.1297-1.0881-1.476-1.3091-1.6558-.2293ZM39.7072 119.568c-.3345.204-.6983.375-1.0537.546-1.8482.73-3.7466 1.397-5.7035 1.772-1.3255.217-2.6762.221-4.0142.342-1.2461.062-2.488-.075-3.7341.062-.4558.038-.7861.488-.7317.926.0752.68.7819.809 1.338.7.9701-.071 1.9402.034 2.9103-.012 1.865-.15 3.755-.138 5.5823-.596 1.5931-.413 3.157-.943 4.6958-1.526.8614-.409 3.0023-1.151 1.8816-2.352-.3596-.279-.8864-.216-1.1708.134v.004ZM21.2878 122.566c-.4558 0-.8405.366-.8447.825-.0041.45.3722.842.828.842s.8405-.367.8446-.825c.0042-.451-.3721-.842-.8279-.842ZM68.0785 77.5343c-1.0245-.442-1.7562 1.2924-.7234 1.7177 1.0245.4419 1.7604-1.2925.7234-1.7177ZM109.312 40.1075c.953-.3669 1.911-.7088 2.835-1.1382 2.291-.9672 4.42-2.3848 5.929-4.386.585-.5628 1.05-1.8677-.046-2.1346-.426-.0792-.92.2168-.974.6713-.013.0959-.096.1667-.147.2501-1.509 2.0763-3.696 3.4021-6.071 4.361-.782.4669-2.969.6128-2.588 1.8594.142.4169.644.6838 1.062.517ZM105.03 40.6746c-.021.4336.334.8755.79.8755s.853-.3169.878-.788c.021-.4336-.334-.8755-.79-.8755s-.853.3169-.878.788ZM115.567 49.1129c-.978-.1125-1.965-.2335-2.91-.5295-.962-.2418-1.844-.7379-2.86-.7588-1.096-.0416-1.184 1.5718-.088 1.6635.799.0209 1.48.442 2.241.6254 1.146.3669 2.338.5337 3.529.6629 1.096.0334 1.184-1.5801.088-1.6676v.0041ZM114.643 62.5836c-2.153.8464-4.378-.5128-6.239-1.5301-1.204-.7046-2.588-1.5884-3.922-2.2222-.761-.371-2.162-1.3216-2.655-.1542-.205.7338.397 1.059 1.012 1.2007.773.3627 1.539.7588 2.291 1.1674 2.392 1.3466 4.855 3.1936 7.694 3.4604.862.0167 1.79-.0083 2.568-.4294.97-.5212.238-1.9637-.745-1.4968l-.004.0042ZM99.8951 57.322c-.4558 0-.853.3169-.8781.788-.0209.4336.3345.8755.7903.8755.4557 0 .8527-.3168.8777-.788.021-.4335-.334-.8755-.7899-.8755ZM96.9848 27.1414c.92.5295 1.2879-.5337 1.727-1.1257.9534-1.2632 2.1032-2.3889 3.4412-3.2353.439-.2334.916-.396 1.33-.6795.899-.6338-.009-1.9721-.933-1.3842-1.63.7379-3.0856 1.8344-4.2605 3.1978-.5395.7462-2.4504 2.3931-1.3088 3.2227l.0041.0042ZM87.5808 29.1509c1.2085.1376 1.0663-1.4717 1.2503-2.2763.1212-1.576.0794-3.1853.3554-4.7487.184-.6421.7401-1.5093-.1045-1.922-.3973-.1876-.9325-.0209-1.1123.396-.8781 1.9762-.6021 4.2067-.8196 6.3122-.0836.7588-.6606 1.9845.4349 2.2388h-.0042ZM86.6315 32.9449c.4558 0 .853-.3169.8781-.788.0209-.4336-.3345-.8755-.7903-.8755s-.853.3168-.8781.7879c-.0209.4336.3345.8756.7903.8756ZM185.816 34.0664c-.953-.7338-1.899-1.4676-2.961-2.0388-1.693-1.0756-3.366-2.1846-5.101-3.1894a177.4421 177.4421 0 0 0-4.395-2.3514c-.409-.2043-.928.0375-1.099.4378-.373.9422.802 1.2507 1.421 1.6218 1.188.5962 2.346 1.2382 3.504 1.8928 2.497 1.5634 5.085 3.0185 7.422 4.807.594.5629 1.56.6796 1.761-.2793.029-.3961-.176-.7713-.548-.9005h-.004ZM168.505 25.5821c.021 1.1048 1.676 1.1006 1.697 0-.021-1.1049-1.676-1.1007-1.697 0ZM185.674 60.9909c-.025-.0333-.059-.0583-.075-.0959.522.7463 1.727.171 1.484-.7004-.631-1.209-2.024-1.8136-3.22-2.3431-4.219-1.8928-8.902-.9422-13.268-.2084-.715.0542-.978 1.0715-.405 1.48.184.146.397.1877.627.171.853-.0542 1.689-.2752 2.526-.4253 4.089-.7212 9.145-.9797 12.335 2.1221h-.004ZM166.431 59.4942c.564.9798 2.345 0 1.768-.9881-.56-.9797-2.35-.0042-1.768.9881ZM151.444 51.7604c-.865-.246-1.681-.6295-2.492-1.0131-2.768-1.2966-4.599-4.1525-7.526-5.1197-.569-.0918-1.201-.4461-1.761-.1793-.627.3252-.51 1.3716.188 1.5259 2.12.2293 3.617 1.8303 5.173 3.1186 1.631 1.38 3.508 2.4681 5.54 3.1435.673.296 1.819.3252 1.848-.6462.005-.5086-.472-.9005-.974-.8338l.004.0041ZM186.472 93.0061c-1.881 3.6522-1.697 7.9049-.999 11.8449.163.688.017 1.53.489 2.105.331.317.857.325 1.184 0 .246-.242.309-.625.171-.93-.1-.704-.176-1.409-.297-2.113-.581-3.423-.648-7.0963.991-10.2565.406-1.0173-1.087-1.6426-1.543-.6504h.004ZM187.786 90.7923c.296 1.259 1.994.717 1.618-.5045-.285-1.2549-1.995-.7171-1.618.5045ZM172.649 122.253c-1.058-.321-1.568 1.342-.519 1.676 1.058.321 1.572-1.343.519-1.676ZM163.98 9.1013c.925-.4586 1.853-.9088 2.802-1.3133.849-.5586 3.759-1.0548 2.768-2.4848-.359-.421-.932-.3252-1.313 0-.794.3586-1.597.7046-2.392 1.0715-.874.371-1.727.7963-2.575 1.2216-.41.2-.598.692-.398 1.109.193.4085.711.5962 1.113.396h-.005ZM161.639 8.9638c-.837-.7463-2.116.692-1.267 1.4259.832.7462 2.116-.6921 1.267-1.4259ZM188.818 17.0519c.456 0 .816-.4419.791-.8796-.025-.4712-.427-.788-.883-.788-.455 0-.815.4419-.79.8797.025.4711.427.7879.882.7879ZM200.459 31.2022c2.363-.5211 4.905-.2251 7.188-1.0882.979-.4961.28-1.9553-.715-1.5092-.476.2585-1.028.2126-1.547.321-2.003.3961-4.089.221-6.05.8505-.44.1209-.674.6338-.54 1.0507.251.7671 1.083.567 1.669.3752h-.005ZM221.087 46.7116c.752-.0501 1.421-.8214.865-1.5051-.276-.3169-.744-.3711-1.091-.1501-.732.1209-1.698.0709-1.585 1.1007.176.8796 1.163.6754 1.811.5545ZM211.854 46.553c1.472-.025 2.914.2252 4.357.4628.677.1834 1.547-.1209 1.413-.9506-.079-.4461-.518-.7421-.961-.6712-.761-.1001-1.514-.2293-2.271-.3586-.799-.1209-1.606-.125-2.417-.1459-.456-.0125-.861.3002-.895.7713-.033.4336.314.8839.77.8922h.004ZM228.601 67.0904c.456 0 .853-.3335.87-.8005.016-.4419-.348-.8672-.803-.8672-.456 0-.853.3336-.87.8005-.017.4419.347.8672.803.8672ZM230.44 85.5266c-1.342-.3419-2.642-.9381-3.934-1.5092-1.016-.4211-1.677 1.0506-.69 1.5217 1.731.7922 3.508 1.4884 5.373 1.9053h.008c.038.0084.076.0167.113.025a4.5494 4.5494 0 0 0-.104-.025c.698.246 1.413-.642.932-1.2757-.405-.4795-1.137-.4211-1.689-.6463l-.009.0042Zm.661 1.8886s-.029-.0166-.042-.0291c.038.025.08.0416.117.0542-.025-.0084-.05-.0209-.075-.0292v.0041ZM223.512 82.8959c-.456 0-.853.3335-.87.8005-.017.4419.347.8671.803.8671.456 0 .853-.3335.87-.8004.016-.442-.347-.8672-.803-.8672ZM203.361 133.61c-.418-.18-.92.025-1.095.442-.272.646-.531 1.296-.841 1.926-1.066 2.126-2.262 4.186-3.24 6.358-.406.704-1.246 2.009-.076 2.431.469.133.987-.192 1.054-.684.468-.934.937-1.864 1.38-2.81.903-1.822 1.94-3.523 2.776-5.404.26-.708 1.042-1.788.046-2.259h-.004ZM204.934 130.95c.462 0 .836-.374.836-.834 0-.461-.374-.834-.836-.834-.462 0-.837.373-.837.834 0 .46.375.834.837.834ZM182.901 151.571s.005-.005.013-.009c-3.061.221-5.913-1.096-8.513-2.593-.862-.354-1.936-2.014-2.823-.93-.259.388-.142.892.23 1.155.878.667 1.79 1.297 2.793 1.764 2.204 1.271 4.621 2.205 7.197 2.255.602.034 1.283.15 1.835-.162.824-.522.176-1.814-.732-1.48ZM170.336 145.413c-.535-.296-1.304-.542-1.647.15-.326.721.292 1.15.911 1.346.995.451 1.715-.996.74-1.496h-.004ZM150.165 172.583c-1.648 1.83-2.773 4.086-3.592 6.392-.197.579-.452 1.217-.255 1.83.292.913 1.693.646 1.631-.313-.017-.742.422-1.467.652-2.176.652-1.447 1.371-2.885 2.375-4.123.481-.813 2.316-1.71 1.351-2.74-.916-.713-1.569.605-2.166 1.13h.004ZM154.02 169.069c-.456 0-.807.454-.782.883.017.221.117.43.284.576.176.15.381.204.607.204.456 0 .807-.454.782-.884-.017-.221-.117-.429-.285-.575-.175-.15-.38-.204-.606-.204ZM149.609 159.571c-1.309.401-2.559.947-3.822 1.464-.912.487-3.868 1.188-2.701 2.626.48.438.986.171 1.4-.2 1.359-.7 2.806-1.234 4.219-1.822.469-.179.945-.329 1.426-.483 1.037-.363.531-1.902-.518-1.585h-.004ZM143.1 163.684s-.009-.013-.018-.022c-.004-.005-.009-.009-.013-.013l.031.03v.005ZM138.708 152.63c.455 0 .811-.447.786-.88-.013-.221-.113-.43-.281-.575-.171-.151-.38-.209-.606-.209-.456 0-.811.446-.786.88a.828.828 0 0 0 .28.575c.172.15.381.209.607.209ZM166.69 175.464c-.74 0-.887.755-.866 1.343-.171 1.417-.451 2.805-.857 4.223-.238.68-.702 1.292-.719 2.035-.025.454.397.833.836.833.502 0 .828-.417.845-.888.594-1.196.978-2.468 1.179-3.789.213-.943.397-1.943.414-2.923.021-.454-.397-.834-.836-.834h.004ZM166.527 171.645c-.665.28-.552 1.03-.255 1.547.175.421.686.621 1.095.446.665-.279.552-1.03.255-1.547-.175-.421-.677-.621-1.095-.446ZM180.313 171.779c.462 0 .836-.374.836-.834 0-.461-.374-.834-.836-.834-.462 0-.836.373-.836.834 0 .46.374.834.836.834ZM132.933 307.798c-.121-.012-.238-.017-.36-.029-.02-.008-.037-.017-.058-.021-.08-.012-.155-.008-.23 0-17.729-1.513-34.4762 10.79-38.2228 28.188-4.0226 17.502 5.9418 35.359 22.3458 41.638.033.02.067.041.109.058.067.025.129.037.196.058 1.472.546 2.994 1.005 4.562 1.359 17.178 4.128 35.492-5.42 41.903-21.838 8.965-22.246-6.285-47.212-30.245-49.405v-.008Zm-12.101 66.315c-.703 1.243-2.095 2.093-3.529 1.98-9.772-3.718-17.7882-11.819-20.8825-22.042-3.4873-11.065-.9617-22.689 5.6825-31.323.059-.008.113-.017.167-.038.23-.1.435-.229.678-.308.782-.3 1.639-.409 2.471-.275 1.158.154 2.166.854 2.726 1.893.063.183.172.371.143.567-.005.091.008.179.029.262-.025.892-.13 1.785-.318 2.652-1.321 4.724-4.29 8.78-5.536 13.541-1.276 3.348-1.133 7.059-.314 10.498.719 2.589 2.296 4.866 4.11 6.813 1.702 2.114 3.923 3.644 6.156 5.14 1.371 1.026 2.83 1.922 4.261 2.869 1.212.9 2.186 2.084 3.173 3.214.786.917 1.326 2.035 1.589 3.215-.226.387-.313.971-.606 1.334v.008Zm34.342-7.746c.004-.034.009-.063.013-.096-.063.208-.101.442-.092.667-.435.479-.882.946-1.342 1.401.033-.484.025-.972.033-1.447-.029-1.634-.125-3.331-.753-4.857-.276-.667-.664-1.718-1.58-1.255-.402.225-.54.738-.322 1.134.41.738.669 1.543.79 2.377.192 1.321.222 2.655.155 3.989-.013.547-.427 1.343-.406 1.943-5.774 4.849-13.125 7.88-21.129 8.068-1.116.045-2.224.025-3.328-.042.113-.309.213-.621.297-.938.259-2.293-.117-4.711-.954-6.863-.305-.675-.627-1.346-1.066-1.942-.677-.863-1.969.116-1.334 1.004.477.68.816 1.447 1.108 2.218.481 1.901 1.037 4.015.389 5.941-.042.151-.113.288-.18.426-.924-.109-1.844-.25-2.751-.434.138-.3.226-.634.28-.9.79-2.94-.008-6.204-2.045-8.468-1.074-1.259-2.345-2.706-3.801-3.631-.748-.488-1.505-.955-2.249-1.451-1.769-1.297-3.659-2.448-5.353-3.844-1.062-1.013-2.04-2.11-3.006-3.211-2.785-3.218-3.617-7.154-3.295-11.315.314-2.455 1.321-4.761 2.12-7.087.983-2.377 2.346-4.578 3.27-6.984 1.748-4.035 1.986-8.938-.368-12.791-.188-.292-.368-.675-.611-.963 3.337-2.714 7.222-4.849 11.566-6.17 4.312-1.334 8.648-1.776 12.842-1.451.234.267.426.567.619.863.873 1.434 1.375 3.085 1.505 4.765-.025.2-.021.388.029.555.042 1.58-.238 3.168-.861 4.615-1.539 2.31-3.701 4.136-5.135 6.529-1.606 2.185-3.278 4.469-3.655 7.225-.485 2.756.063 5.608 1.393 8.055 1.568 3.29 4.227 5.95 7.602 7.384 1.618.75 3.211 1.576 4.934 2.072 1.743.483 3.508.867 5.197 1.522 4.533 1.705 9.961 3.652 11.361 8.838.051.175.097.355.143.534.255 1.33.284 2.693-.038 4.031l.008-.016Zm5.537-7.738a.7629.7629 0 0 0-.205.242c-3.187 3.969-4.199.191-6.415-2.068-.083-.117-.18-.205-.28-.267-2.333-2.289-5.603-3.707-8.706-4.816-2.437-1.079-5.105-1.438-7.585-2.384-2.446-1.109-5.051-2.097-7.067-3.924-2.688-2.772-4.741-6.608-4.306-10.556.192-2.33 1.371-4.382 2.763-6.212 1.485-2.243 3.17-4.319 4.989-6.3 1.593-1.976 2.174-4.611 2.003-7.191.021-.084.038-.163.067-.242.51-1.66 1.158-3.773 3.061-4.24h.096c13.728 4.027 24.474 16.41 24.942 32.036.222 5.657-1.012 11.081-3.353 15.922h-.004Z"/><path fill="#000" d="M123.182 365.658c-.456 0-.841.367-.845.825-.004.451.372.843.828.843.456 0 .841-.367.845-.826.004-.45-.372-.842-.828-.842ZM109.91 334.156c-.828-.221-1.083.667-1.255 1.28-.572 1.767-1.764 3.268-2.299 5.053-.26.879-1.439 2.543-.134 3.043.426.117.916-.142 1.028-.583.151-.709.431-1.276.715-1.993.477-1.539 1.464-2.844 2.037-4.349.184-.471.339-.955.493-1.434.134-.434-.159-.909-.589-1.026l.004.009ZM109.868 332.701c.782.925 2.062-.271 1.234-1.147-.778-.93-2.058.267-1.234 1.147ZM135.312 344.95c-.857-.592-1.71-1.214-2.404-1.993-.548-.667-1.154-1.309-1.589-2.056-.297-.671-.431-1.621-1.418-1.309-1.568.83.929 3.427 1.589 4.278.807.975 1.844 1.722 2.869 2.447.372.25.811.551 1.267.551.631.041 1.066-.701.752-1.239-.23-.425-.731-.383-1.062-.679h-.004Zm-.079.358c.125-.066.246-.104.389-.104-.109 0-.255.038-.389.104ZM130.081 336.849c-.882-.805-2.019.546-1.079 1.276.883.867 2.066-.534 1.079-1.276ZM137.729 316.674c.029.838-.263 1.605-.46 2.406-.268 1.105-.736 2.172-1.317 3.148-.531.65-1.656 1.617-.477 2.272.414.171.941-.029 1.104-.455 1.133-1.1 1.727-2.639 2.191-4.119.268-1.071.669-2.105.632-3.231-.009-1.096-1.631-1.109-1.673-.017v-.004ZM150.052 358.304c-.456 0-.841.366-.845.825-.004.45.372.842.828.842.456 0 .841-.367.845-.825.004-.45-.372-.842-.828-.842ZM123.947 173.38c-1.271.725-2.392 1.671-3.525 2.589-.932.767-1.785 1.621-2.684 2.426-.544.538-1.635 1.351-.807 2.114.568.479 1.175-.013 1.534-.492.874-.813 1.723-1.655 2.639-2.427 1.02-.892 2.09-1.738 3.211-2.497.447-.271 1.079-.496 1.012-1.134-.046-.667-.866-.971-1.38-.579ZM114.488 182.414c.18 1.226 1.924.842 1.652-.354-.184-1.222-1.923-.842-1.652.354ZM135.479 231.39c-.451.037-.802.45-.761.9-.046.379-.23.742-.334 1.113-.665 1.91-1.602 3.757-3.103 5.174-.614.68-2.408.83-1.89 2.051.218.413.728.547 1.129.347 1.986-.834 3.358-2.556 4.295-4.437.744-1.342 1.442-2.855 1.572-4.394-.042-.454-.452-.796-.908-.759v.005ZM127.924 240.237c-.456 0-.853.321-.874.792-.021.437.338.871.794.871s.853-.321.874-.792c.021-.438-.339-.871-.794-.871ZM99.1466 260.086c-.9408-2.318-1.6559-4.707-2.1995-7.15-.3805-.917-.1923-3.565-1.8022-2.902-.3972.234-.5226.742-.3052 1.138.1756.701.2801 1.414.4725 2.118.7527 3.277 1.7395 6.542 3.2615 9.552.2133.404.7611.521 1.1416.3.4057-.238.5147-.738.3007-1.142-.3384-.617-.606-1.268-.8736-1.918l.0042.004ZM102.099 265.66c-.184-.121-.238-.154-.464-.304-.381-.246-.924-.059-1.142.317-.326.55.109 1.084.602 1.321.883.651 1.878-.688 1.004-1.334ZM139.862 257.622c-.456 0-.837.379-.837.834 0 .454.381.834.837.834.455 0 .836-.38.836-.834 0-.455-.381-.834-.836-.834Z"/></g><defs><clipPath id="a"><path fill="#fff" d="M0 0h239v380H0z"/></clipPath></defs></svg>