<svg xmlns="http://www.w3.org/2000/svg" width="510" height="712" fill="none"><rect width="498.5" height="700.5" x="10.75" y="10.75" fill="#fff" stroke="#000" stroke-width="1.5" rx="7.25"/><rect width="498.5" height="700.5" x=".75" y=".75" fill="#DE83F0" stroke="#000" stroke-width="1.5" rx="7.25"/><g clip-path="url(#a)"><rect width="1132.77" height="146.463" x="34.897" y="67.353" fill="#fff" stroke="#000" stroke-width="1.085" rx="3.797"/><rect width="1132.77" height="146.463" x="30.552" y="63.013" fill="#fff" stroke="#000" stroke-width="1.085" rx="3.797"/><path fill="#0D0C22" d="M206.666 101.253h-1.519V90.621h4.481c1.974 0 3.417 1.17 3.417 3.22 0 2.05-1.443 3.22-3.417 3.22h-2.962v4.192Zm0-9.265v3.706h2.734c1.367 0 2.127-.638 2.127-1.853 0-1.215-.76-1.853-2.127-1.853h-2.734Zm9.471 9.265h-1.443v-7.594h1.367v1.67c.304-1.139 1.215-1.746 2.203-1.746h.683v1.397h-.607c-1.367 0-2.203.912-2.203 2.43v3.843Zm5.787-8.961h-1.595v-1.67h1.595v1.67Zm-.076 8.961h-1.443v-7.594h1.443v7.594Zm3.723 0h-1.443v-7.594h1.443v1.063a2.657 2.657 0 0 1 2.278-1.215c1.094 0 2.005.425 2.506 1.412.593-1.047 1.58-1.412 2.506-1.412 1.747 0 2.734 1.063 2.734 2.658v5.088h-1.443v-4.784c0-1.063-.455-1.747-1.534-1.747h-.121c-.927 0-1.914.835-1.914 2.278v4.253h-1.443v-4.784c0-1.063-.456-1.747-1.534-1.747h-.121c-.927 0-1.914.835-1.914 2.278v4.253Zm14.283.152c-1.443 0-2.506-.957-2.506-2.248 0-1.731 1.534-2.248 2.764-2.354l2.096-.167v-.243c0-1.063-.607-1.671-1.579-1.671h-.122c-.79 0-1.473.38-1.564 1.14H237.5c.091-1.398 1.352-2.355 3.068-2.355 2.02 0 3.083 1.337 3.083 2.886v3.19c0 .455 0 1.139.076 1.67h-1.367c-.076-.38-.076-1.139-.076-1.215-.303.684-1.215 1.367-2.43 1.367Zm.167-1.215h.122c.926 0 2.065-.76 2.065-1.67v-.775l-1.898.151c-.881.076-1.519.502-1.519 1.2 0 .623.516 1.094 1.23 1.094Zm7.28 1.063h-1.443v-7.594h1.367v1.67c.304-1.139 1.215-1.746 2.202-1.746h.684v1.397h-.608c-1.367 0-2.202.912-2.202 2.43v3.843Zm9.614-7.594h1.488l-3.113 7.427v1.382c0 1.063-.532 1.595-1.595 1.595h-2.506v-1.291h2.126c.456 0 .608-.152.608-.608v-1.063l-3.19-7.442h1.534l2.37 5.604 2.278-5.604Zm15.177 7.594h-1.579l-1.064-2.734h-5.073l-1.063 2.734h-1.549l4.207-10.632h1.944l4.177 10.632Zm-5.179-9.235-2.005 5.134h4.01l-2.005-5.134Zm9.545 9.387c-2.339 0-3.645-1.716-3.645-3.949 0-2.233 1.306-3.95 3.645-3.95 1.732 0 2.962 1.019 3.114 2.659h-1.443c-.137-.835-.744-1.443-1.61-1.443h-.121c-1.459 0-2.142 1.291-2.142 2.734s.683 2.734 2.142 2.734h.121c.866 0 1.473-.608 1.61-1.443h1.443c-.152 1.64-1.382 2.658-3.114 2.658Zm8.084 0c-2.339 0-3.645-1.716-3.645-3.949 0-2.233 1.306-3.95 3.645-3.95 1.732 0 2.962 1.019 3.114 2.659h-1.443c-.137-.835-.744-1.443-1.61-1.443h-.122c-1.458 0-2.141 1.291-2.141 2.734s.683 2.734 2.141 2.734h.122c.866 0 1.473-.608 1.61-1.443h1.443c-.152 1.64-1.382 2.658-3.114 2.658Zm8.069 0c-2.051 0-3.645-1.595-3.645-3.949s1.594-3.95 3.645-3.95c2.05 0 3.645 1.596 3.645 3.95s-1.595 3.949-3.645 3.949Zm-.061-1.215h.122c1.23 0 2.141-.987 2.141-2.734 0-1.747-.911-2.734-2.141-2.734h-.122c-1.23 0-2.142.987-2.142 2.734 0 1.747.912 2.734 2.142 2.734Zm8.025 1.215c-1.701 0-2.582-1.139-2.582-2.734V93.66h1.443v4.708c0 1.215.501 1.823 1.534 1.823h.122c.972 0 1.913-.911 1.913-2.43v-4.101h1.443v7.594h-1.443V99.81c-.288.836-1.108 1.595-2.43 1.595Zm7.599-.152h-1.443v-7.594h1.443v1.063c.456-.683 1.215-1.215 2.431-1.215 1.746 0 2.733 1.063 2.733 2.658v5.088h-1.442v-4.784c0-1.063-.456-1.747-1.535-1.747h-.121c-1.078 0-2.066.835-2.066 2.278v4.253Zm11.592 0h-1.823c-1.063 0-1.67-.607-1.67-1.67v-4.679h-1.671V93.66h1.671v-2.46h1.442v2.46h1.823v1.245h-1.823v4.45c0 .456.152.608.608.608h1.443v1.291ZM217.789 124.319v11.9h3.567v2.239h-3.567v4.088h-2.552v-4.088h-10.65v-2.656l10.311-11.483h2.891Zm-2.552 2.917-8.098 8.983h8.098v-8.983Zm16.195 3.957c3.854 0 6.562 2.318 6.562 5.573 0 3.671-2.917 6.04-7.317 6.04-3.984 0-6.952-1.718-7.369-5.077h2.734c.469 1.823 2.292 2.812 4.453 2.812h.364c2.812 0 4.479-1.536 4.479-3.697 0-2.031-1.771-3.385-4.349-3.385h-.364c-1.432 0-3.125.494-3.958 1.666h-2.708l2.213-10.806h11.353v2.396h-9.426l-1.224 5.858c1.172-.937 2.812-1.38 4.557-1.38Zm17.839-.651c3.802 0 7.109 2.136 7.109 6.015 0 3.88-3.073 6.249-7.577 6.249-4.739 0-7.812-2.577-7.812-8.514 0-5.833 3.594-10.233 8.801-10.233 3.75 0 6.484 1.797 6.9 4.687h-2.734c-.286-1.172-1.614-2.422-3.984-2.422h-.364c-3.255 0-5.676 2.656-6.145 6.666 1.198-1.614 3.411-2.448 5.806-2.448Zm-.598 9.999h.364c2.448 0 4.661-1.276 4.661-3.854 0-2.577-2.213-3.879-4.661-3.879h-.364c-2.5 0-4.791 1.276-4.791 3.853 0 2.578 2.239 3.88 4.791 3.88Zm23.102.729a20.726 20.726 0 0 1-2.786-.234c-.902-.157-1.631-.365-2.187-.625v-2.213c.59.277 1.345.52 2.265.729.92.208 1.823.321 2.708.338v-5.26a18.413 18.413 0 0 1-2.239-.781c-.625-.295-1.137-.625-1.536-.989a3.738 3.738 0 0 1-.911-1.25c-.191-.486-.287-1.041-.287-1.666 0-.851.2-1.58.599-2.187.417-.608.998-1.085 1.745-1.433.746-.364 1.623-.572 2.629-.624v-2.292h1.667v2.265c.92.018 1.753.122 2.499.313.764.174 1.459.391 2.083.651l-.703 1.927a12.118 12.118 0 0 0-1.848-.573 11.246 11.246 0 0 0-2.031-.339v5.234c1.145.33 2.1.686 2.864 1.068.764.364 1.337.824 1.718 1.38.4.538.599 1.241.599 2.109 0 1.215-.451 2.204-1.354 2.968-.902.746-2.178 1.206-3.827 1.38v2.89h-1.667v-2.786Zm1.667-2.135c1.024-.104 1.77-.339 2.239-.703.469-.382.703-.868.703-1.458 0-.434-.087-.79-.26-1.068-.174-.295-.478-.547-.912-.755-.416-.208-1.006-.408-1.77-.599v4.583Zm-1.667-12.056c-.625.035-1.137.148-1.536.339-.399.174-.703.408-.911.703a1.828 1.828 0 0 0-.287 1.015c0 .452.079.842.235 1.172.173.313.46.582.859.807.399.209.946.4 1.64.573v-4.609Zm13.521 15.467h-2.682v-18.227h2.682v18.227Zm7.73 0h-2.682v-18.227h9.894c3.489 0 5.963 2.109 5.963 4.974 0 2.343-1.432 3.931-2.916 4.452 1.901 0 2.552.859 2.552 2.682v6.119h-2.682v-5.468c0-1.432-.417-1.823-1.849-1.823h-8.28v7.291Zm0-15.831v6.145h6.822c2.291 0 3.645-1.302 3.645-3.125 0-1.953-1.354-3.02-3.645-3.02h-6.822Zm26.616 16.091c-5.754 0-10.077-3.541-10.077-9.373 0-5.833 4.323-9.374 10.077-9.374s10.05 3.541 10.05 9.374c0 5.832-4.296 9.373-10.05 9.373Zm-.208-2.395h.416c3.88 0 7.135-2.552 7.135-6.978 0-4.427-3.255-6.978-7.135-6.978h-.416c-3.88 0-7.161 2.551-7.161 6.978 0 4.426 3.281 6.978 7.161 6.978Zm28.432-.859v-15.233h2.682v18.227h-3.698l-10.597-15.232v15.232h-2.682v-18.227h3.697l10.598 15.233Z"/><g clip-path="url(#b)"><path fill="#7F7F7F" d="M465.522 164.994h-6.516c-.598 0-1.086.488-1.086 1.085v7.594h1.086v-7.594h6.516v-1.085Zm1.629 2.17h-5.973c-.597 0-1.086.488-1.086 1.085v7.594c0 .597.489 1.085 1.086 1.085h5.973c.598 0 1.086-.488 1.086-1.085v-7.594c0-.597-.488-1.085-1.086-1.085Zm0 8.679h-5.973v-7.594h5.973v7.594Z"/></g><rect width="98.377" height="28.34" x="203.594" y="159.027" fill="#F3F3F4" rx="14.17"/><path fill="#7F7F7F" d="M223.658 171.304h3.023v1.078h-3.023v3.129h-1.094v-3.129h-3.022v-1.078h3.022v-3.144h1.094v3.144Zm9.117 1.899-2.84 2.627h5.483v1.367h-7.184v-1.61l3.433-3.265c.941-.896 2.111-1.686 2.111-2.992 0-1.003-.79-1.626-1.792-1.626h-.152c-1.17 0-1.975.866-1.975 2.036h-1.519c.015-2.036 1.534-3.327 3.57-3.327 1.822 0 3.356 1.018 3.356 2.841 0 1.686-1.26 2.794-2.491 3.949Zm17.193 3.994h-1.579l-1.064-2.734h-5.073l-1.063 2.734h-1.549l4.207-10.632h1.944l4.177 10.632Zm-5.179-9.234-2.005 5.133h4.01l-2.005-5.133Zm8.981 9.386c-2.02 0-3.114-1.063-3.114-2.506h1.443c.076.911.79 1.291 1.686 1.291h.122c.79 0 1.412-.38 1.412-.987 0-.486-.273-.82-1.033-.972l-1.108-.213c-1.231-.243-2.218-.881-2.218-2.172 0-1.519 1.352-2.339 2.871-2.339 1.99 0 3.007 1.063 3.007 2.506h-1.443c-.076-.683-.501-1.291-1.488-1.291h-.122c-.85 0-1.382.441-1.382.972 0 .532.304.82 1.063.972l1.2.243c1.155.228 2.096.851 2.096 2.218s-1.23 2.278-2.992 2.278Zm7.416 0c-2.02 0-3.113-1.063-3.113-2.506h1.443c.076.911.789 1.291 1.686 1.291h.121c.79 0 1.413-.38 1.413-.987 0-.486-.274-.82-1.033-.972l-1.109-.213c-1.23-.243-2.217-.881-2.217-2.172 0-1.519 1.351-2.339 2.87-2.339 1.99 0 3.008 1.063 3.008 2.506h-1.443c-.076-.683-.502-1.291-1.489-1.291h-.121c-.851 0-1.383.441-1.383.972 0 .532.304.82 1.064.972l1.2.243c1.154.228 2.096.851 2.096 2.218s-1.231 2.278-2.993 2.278Zm8.009 0c-1.883 0-3.584-1.306-3.584-3.964 0-2.628 1.746-3.934 3.539-3.934 1.974 0 3.22 1.367 3.22 3.342v.835h-5.316c.091 1.731 1.199 2.506 2.126 2.506h.121c.745 0 1.459-.38 1.61-1.185h1.443c-.273 1.534-1.594 2.4-3.159 2.4Zm-2.05-4.86h3.782c-.061-1.322-.851-1.823-1.717-1.823h-.121c-.79 0-1.671.471-1.944 1.823Zm11.259 4.708h-1.823c-1.063 0-1.671-.607-1.671-1.67v-4.679h-1.67v-1.245h1.67v-2.461h1.443v2.461h1.823v1.245h-1.823v4.451c0 .455.152.607.608.607h1.443v1.291Zm4.097.152c-2.02 0-3.114-1.063-3.114-2.506h1.443c.076.911.79 1.291 1.686 1.291h.122c.79 0 1.412-.38 1.412-.987 0-.486-.273-.82-1.032-.972l-1.109-.213c-1.231-.243-2.218-.881-2.218-2.172 0-1.519 1.352-2.339 2.871-2.339 1.99 0 3.007 1.063 3.007 2.506h-1.443c-.076-.683-.501-1.291-1.488-1.291h-.122c-.85 0-1.382.441-1.382.972 0 .532.304.82 1.063.972l1.2.243c1.155.228 2.096.851 2.096 2.218s-1.23 2.278-2.992 2.278ZM327.113 177.197h-1.458v-2.415h-5.225v-1.458l5.24-6.759h1.443v6.926h1.671v1.291h-1.671v2.415Zm-1.458-8.597-3.798 4.891h3.798V168.6Zm7.918 8.749c-1.944 0-3.6-1.017-3.752-2.962h1.489c.137 1.094 1.078 1.671 2.187 1.671h.152c1.276 0 2.157-.942 2.157-2.202 0-1.17-.912-2.02-2.081-2.02h-.152c-.684 0-1.473.349-1.899 1.032h-1.473l1.291-6.303h5.696v1.367h-4.587l-.744 3.448c.577-.562 1.367-.835 2.126-.835 1.975 0 3.311 1.412 3.311 3.235 0 2.096-1.625 3.569-3.721 3.569Zm9.57-7.139c1.898 0 3.432 1.367 3.432 3.494 0 2.187-1.594 3.645-3.721 3.645-2.354 0-3.934-1.853-3.934-5.118 0-3.418 2.066-5.818 4.496-5.818 1.823 0 3.083 1.003 3.387 2.734h-1.488c-.228-.85-.851-1.428-1.793-1.428h-.182c-1.671 0-2.916 1.702-3.098 4.238.531-1.093 1.67-1.747 2.901-1.747Zm-.334 5.833h.151c1.14 0 2.127-.911 2.127-2.263 0-1.367-.987-2.279-2.127-2.279h-.151c-1.14 0-2.188.973-2.188 2.264 0 1.275 1.048 2.278 2.188 2.278Zm10.117 1.154h-1.822c-1.063 0-1.671-.607-1.671-1.67v-4.679h-1.671v-1.245h1.671v-2.461h1.443v2.461h1.823v1.245h-1.823v4.451c0 .455.152.607.607.607h1.443v1.291Zm3.247 0h-1.822v-1.822h1.822v1.822Zm3.827 0h-1.823v-1.822H360v1.822Zm3.827 0h-1.823v-1.822h1.823v1.822Zm5.3.152c-1.944 0-3.6-1.017-3.752-2.962h1.489c.137 1.094 1.078 1.671 2.187 1.671h.152c1.276 0 2.157-.942 2.157-2.202 0-1.17-.912-2.02-2.081-2.02h-.152c-.683 0-1.473.349-1.899 1.032h-1.473l1.291-6.303h5.696v1.367h-4.587l-.744 3.448c.577-.562 1.367-.835 2.126-.835 1.975 0 3.311 1.412 3.311 3.235 0 2.096-1.625 3.569-3.721 3.569Zm11.651-.152h-1.458v-2.415h-5.225v-1.458l5.24-6.759h1.443v6.926h1.67v1.291h-1.67v2.415Zm-1.458-8.597-3.798 4.891h3.798V168.6Zm8.009 8.749c-2.066 0-3.493-1.139-3.691-2.931h1.473c.213 1.048 1.018 1.64 2.142 1.64h.137c1.124 0 2.05-.683 2.05-1.747 0-1.108-.82-1.792-1.929-1.792h-.911v-1.276h.911c1.109 0 1.853-.82 1.853-1.792 0-1.094-.85-1.747-1.974-1.747h-.137c-1.018 0-1.883.714-1.975 1.671h-1.442c.091-1.701 1.61-2.962 3.569-2.962 1.899 0 3.448 1.261 3.448 2.81 0 1.367-.79 2.278-1.838 2.613 1.048.258 1.914 1.108 1.914 2.551 0 1.701-1.519 2.962-3.6 2.962Zm8.459 0c-1.898 0-3.265-1.443-3.265-3.949s1.519-3.949 3.417-3.949c1.064 0 1.975.532 2.355 1.215v-4.101h1.443v10.632h-1.443v-1.063c-.38.684-1.443 1.215-2.507 1.215Zm.244-1.215h.121c1.078 0 2.142-.911 2.142-2.734s-1.064-2.734-2.142-2.734h-.121c-1.155 0-2.066.911-2.066 2.734s.911 2.734 2.066 2.734Zm7.665 1.063h-1.822v-1.822h1.822v1.822Zm3.827 0h-1.822v-1.822h1.822v1.822Zm3.827 0h-1.823v-1.822h1.823v1.822Zm5.3.152c-1.944 0-3.6-1.017-3.751-2.962h1.488c.137 1.094 1.078 1.671 2.187 1.671h.152c1.276 0 2.157-.942 2.157-2.202 0-1.17-.911-2.02-2.081-2.02h-.152c-.683 0-1.473.349-1.898 1.032h-1.474l1.291-6.303h5.696v1.367h-4.587l-.744 3.448c.577-.562 1.367-.835 2.126-.835 1.975 0 3.311 1.412 3.311 3.235 0 2.096-1.625 3.569-3.721 3.569Zm8.917 0c-2.066 0-3.494-1.139-3.691-2.931h1.473c.213 1.048 1.018 1.64 2.142 1.64h.137c1.123 0 2.05-.683 2.05-1.747 0-1.108-.82-1.792-1.929-1.792h-.911v-1.276h.911c1.109 0 1.853-.82 1.853-1.792 0-1.094-.851-1.747-1.974-1.747h-.137c-1.018 0-1.884.714-1.975 1.671h-1.443c.091-1.701 1.61-2.962 3.57-2.962 1.898 0 3.448 1.261 3.448 2.81 0 1.367-.79 2.278-1.838 2.613 1.048.258 1.914 1.108 1.914 2.551 0 1.701-1.519 2.962-3.6 2.962Zm8.459 0c-1.898 0-3.265-1.443-3.265-3.949s1.519-3.949 3.417-3.949c1.063 0 1.975.532 2.354 1.215v-4.101h1.443v10.632h-1.443v-1.063c-.379.684-1.442 1.215-2.506 1.215Zm.243-1.215h.122c1.078 0 2.141-.911 2.141-2.734s-1.063-2.734-2.141-2.734h-.122c-1.154 0-2.065.911-2.065 2.734s.911 2.734 2.065 2.734Zm9.139 1.215c-1.944 0-3.599-1.017-3.751-2.962h1.488c.137 1.094 1.079 1.671 2.187 1.671h.152c1.276 0 2.157-.942 2.157-2.202 0-1.17-.911-2.02-2.081-2.02h-.152c-.683 0-1.473.349-1.898 1.032h-1.473l1.291-6.303h5.695v1.367h-4.587l-.744 3.448c.577-.562 1.367-.835 2.127-.835 1.974 0 3.311 1.412 3.311 3.235 0 2.096-1.626 3.569-3.722 3.569Z"/><rect width="117.17" height="117.17" x="47.909" y="80.371" fill="url(#c)" stroke="#000" stroke-width="1.085" rx="3.797"/><rect width="117.17" height="117.17" x="42.485" y="74.947" fill="url(#d)" stroke="#000" stroke-width="1.085" rx="3.797"/><path fill="#000" d="m126.997 132.824-1.631-2.821-5.533-9.568-1.189-2.057a1.151 1.151 0 0 0-.999-.577h-16.707c-.412 0-.794.22-.998.577l-1.331 2.302-5.845 10.112a.526.526 0 0 1-.579.237.507.507 0 0 1-.378-.494v-4.807c0-4.371-3.561-7.927-7.938-7.927H77.08c-.636 0-1.152.515-1.152 1.151v6.776a7.774 7.774 0 0 0 4.8 7.2.51.51 0 0 1 .317.469v.005c0 .207-.125.39-.317.473a7.777 7.777 0 0 0-4.8 7.155v6.826c0 .635.516 1.151 1.152 1.151h6.785c4.377 0 7.938-3.557 7.938-7.928v-4.806a.513.513 0 0 1 .957-.254l6.223 10.761.953 1.649c.203.357.586.578.998.578h16.707c.412 0 .795-.221.998-.578l1.768-3.058 4.156-7.191.059-.104 1.909-3.303.458-.794c.212-.357.212-.798.008-1.155Zm-17.581 6.635c-3.257 0-5.911-2.717-5.911-6.057 0-3.341 2.65-6.058 5.911-6.058 3.258 0 5.912 2.717 5.912 6.058 0 3.34-2.654 6.057-5.912 6.057Z"/><g filter="url(#e)"><rect width="624.641" height="84.507" x="61.17" y="253.615" fill="#fff" rx="3.931"/><rect width="623.658" height="83.524" x="61.661" y="254.106" stroke="#000" stroke-width=".983" rx="3.439"/></g><g filter="url(#f)"><rect width="624.641" height="84.507" x="61.17" y="349.913" fill="#fff" rx="3.931"/><rect width="623.658" height="83.524" x="61.661" y="350.404" stroke="#000" stroke-width=".983" rx="3.439"/></g><path fill="#000" d="M132.642 396.357h-1.376v-9.629h4.127c1.789 0 3.027 1.1 3.027 2.613 0 1.239-.688 2.16-1.582 2.435 1.1 0 1.444.386 1.444 1.349v3.232h-1.375v-2.889c0-.756-.207-.963-.963-.963h-3.302v3.852Zm0-8.391v3.301h2.545c1.169 0 1.857-.756 1.857-1.719 0-1.032-.688-1.582-1.857-1.582h-2.545Zm10.535 8.529c-1.706 0-3.247-1.183-3.247-3.591 0-2.38 1.582-3.563 3.206-3.563 1.788 0 2.916 1.239 2.916 3.027v.757h-4.815c.083 1.568 1.087 2.269 1.926 2.269h.11c.674 0 1.321-.343 1.459-1.073h1.306c-.247 1.39-1.444 2.174-2.861 2.174Zm-1.857-4.402h3.425c-.055-1.197-.77-1.651-1.554-1.651h-.11c-.716 0-1.514.426-1.761 1.651Zm9.314 4.402c-2.118 0-3.301-1.555-3.301-3.577 0-2.022 1.183-3.577 3.301-3.577 1.569 0 2.683.922 2.821 2.408h-1.307c-.124-.757-.674-1.307-1.458-1.307h-.111c-1.32 0-1.939 1.169-1.939 2.476s.619 2.476 1.939 2.476h.111c.784 0 1.334-.55 1.458-1.306h1.307c-.138 1.485-1.252 2.407-2.821 2.407Zm7.267 0c-1.706 0-3.246-1.183-3.246-3.591 0-2.38 1.582-3.563 3.205-3.563 1.788 0 2.916 1.239 2.916 3.027v.757h-4.814c.082 1.568 1.086 2.269 1.926 2.269h.11c.674 0 1.32-.343 1.458-1.073h1.307c-.248 1.39-1.445 2.174-2.862 2.174Zm-1.857-4.402h3.426c-.055-1.197-.771-1.651-1.555-1.651h-.11c-.715 0-1.513.426-1.761 1.651Zm7.801-3.852h-1.444v-1.513h1.444v1.513Zm-.068 8.116h-1.307v-6.878h1.307v6.878Zm4.596-1.279 1.995-5.599h1.334l-2.545 6.878h-1.582l-2.545-6.878h1.348l1.995 5.599Zm7.248 1.417c-1.705 0-3.246-1.183-3.246-3.591 0-2.38 1.582-3.563 3.205-3.563 1.789 0 2.917 1.239 2.917 3.027v.757h-4.815c.082 1.568 1.086 2.269 1.926 2.269h.11c.674 0 1.32-.343 1.458-1.073h1.307c-.248 1.39-1.445 2.174-2.862 2.174Zm-1.857-4.402h3.426c-.055-1.197-.771-1.651-1.555-1.651h-.11c-.715 0-1.513.426-1.761 1.651Zm8.985 4.402c-1.72 0-2.958-1.307-2.958-3.577s1.376-3.577 3.095-3.577c.963 0 1.789.482 2.133 1.101v-3.714h1.306v9.629h-1.306v-.963c-.344.619-1.307 1.101-2.27 1.101Zm.22-1.101h.11c.977 0 1.94-.825 1.94-2.476s-.963-2.476-1.94-2.476h-.11c-1.046 0-1.871.825-1.871 2.476s.825 2.476 1.871 2.476Z"/><ellipse cx="105.436" cy="392.167" fill="#EBFBF4" rx="12.788" ry="12.774"/><path stroke="#335A48" stroke-width="1.474" d="M106.911 396.097h-5.41v-5.404M101.501 396.097l7.87-7.861"/><path fill="#000" d="M134.306 300.197c-2.27 0-3.714-1.101-3.783-3.233h1.376c0 1.307 1.018 1.995 2.462 1.995h.138c1.293 0 1.995-.647 1.995-1.445 0-.784-.496-1.238-1.514-1.444l-1.54-.317c-1.541-.316-2.435-1.183-2.435-2.71 0-1.513 1.362-2.751 3.439-2.751 2.132 0 3.494 1.169 3.563 3.026h-1.376c-.069-1.1-.949-1.788-2.118-1.788h-.138c-1.197 0-1.995.646-1.995 1.499 0 .743.509 1.183 1.321 1.348l1.541.303c1.664.33 2.627 1.211 2.627 2.779 0 1.692-1.43 2.738-3.563 2.738Zm8.199 0c-1.706 0-3.247-1.183-3.247-3.591 0-2.38 1.582-3.563 3.206-3.563 1.788 0 2.916 1.238 2.916 3.027v.756h-4.815c.083 1.568 1.087 2.27 1.926 2.27h.11c.674 0 1.321-.344 1.459-1.073h1.307c-.248 1.39-1.445 2.174-2.862 2.174Zm-1.857-4.403h3.425c-.055-1.196-.77-1.65-1.554-1.65h-.11c-.716 0-1.514.426-1.761 1.65Zm7.732 4.265h-1.306v-6.878h1.306v.963c.413-.619 1.101-1.101 2.202-1.101 1.582 0 2.476.963 2.476 2.408v4.608h-1.307v-4.333c0-.963-.413-1.582-1.39-1.582h-.11c-.976 0-1.871.756-1.871 2.063v3.852Zm10.499 0h-1.65c-.963 0-1.514-.55-1.514-1.513v-4.237h-1.513v-1.128h1.513v-2.229h1.307v2.229h1.651v1.128h-1.651v4.03c0 .413.138.551.55.551h1.307v1.169Z"/><ellipse cx="105.436" cy="295.868" fill="#FFE4DC" rx="12.788" ry="12.774"/><path stroke="#F15929" stroke-width="1.474" d="M103.96 291.938h5.41v5.404M109.37 291.938l-7.869 7.861"/><g filter="url(#g)"><rect width="624.641" height="84.507" x="61.17" y="447.194" fill="#fff" rx="3.931"/><rect width="623.658" height="83.524" x="61.661" y="447.686" stroke="#000" stroke-width=".983" rx="3.439"/></g><g filter="url(#h)"><rect width="624.641" height="84.507" x="61.17" y="543.493" fill="#fff" rx="3.931"/><rect width="623.658" height="83.524" x="61.661" y="543.984" stroke="#000" stroke-width=".983" rx="3.439"/></g><path fill="#000" d="M132.642 589.938h-1.376v-9.63h4.127c1.789 0 3.027 1.1 3.027 2.613 0 1.239-.688 2.16-1.582 2.435 1.1 0 1.444.386 1.444 1.349v3.233h-1.375v-2.889c0-.757-.207-.963-.963-.963h-3.302v3.852Zm0-8.392v3.301h2.545c1.169 0 1.857-.756 1.857-1.719 0-1.032-.688-1.582-1.857-1.582h-2.545Zm10.535 8.529c-1.706 0-3.247-1.183-3.247-3.59 0-2.38 1.582-3.564 3.206-3.564 1.788 0 2.916 1.239 2.916 3.027v.757h-4.815c.083 1.568 1.087 2.27 1.926 2.27h.11c.674 0 1.321-.344 1.459-1.074h1.306c-.247 1.39-1.444 2.174-2.861 2.174Zm-1.857-4.402h3.425c-.055-1.197-.77-1.651-1.554-1.651h-.11c-.716 0-1.514.426-1.761 1.651Zm9.314 4.402c-2.118 0-3.301-1.554-3.301-3.577 0-2.022 1.183-3.577 3.301-3.577 1.569 0 2.683.922 2.821 2.408h-1.307c-.124-.757-.674-1.307-1.458-1.307h-.111c-1.32 0-1.939 1.169-1.939 2.476s.619 2.477 1.939 2.477h.111c.784 0 1.334-.551 1.458-1.307h1.307c-.138 1.485-1.252 2.407-2.821 2.407Zm7.267 0c-1.706 0-3.246-1.183-3.246-3.59 0-2.38 1.582-3.564 3.205-3.564 1.788 0 2.916 1.239 2.916 3.027v.757h-4.814c.082 1.568 1.086 2.27 1.926 2.27h.11c.674 0 1.32-.344 1.458-1.074h1.307c-.248 1.39-1.445 2.174-2.862 2.174Zm-1.857-4.402h3.426c-.055-1.197-.771-1.651-1.555-1.651h-.11c-.715 0-1.513.426-1.761 1.651Zm7.801-3.852h-1.444v-1.513h1.444v1.513Zm-.068 8.117h-1.307v-6.879h1.307v6.879Zm4.596-1.28 1.995-5.599h1.334l-2.545 6.879h-1.582l-2.545-6.879h1.348l1.995 5.599Zm7.248 1.417c-1.705 0-3.246-1.183-3.246-3.59 0-2.38 1.582-3.564 3.205-3.564 1.789 0 2.917 1.239 2.917 3.027v.757h-4.815c.082 1.568 1.086 2.27 1.926 2.27h.11c.674 0 1.32-.344 1.458-1.074h1.307c-.248 1.39-1.445 2.174-2.862 2.174Zm-1.857-4.402h3.426c-.055-1.197-.771-1.651-1.555-1.651h-.11c-.715 0-1.513.426-1.761 1.651Zm8.985 4.402c-1.72 0-2.958-1.307-2.958-3.577s1.376-3.577 3.095-3.577c.963 0 1.789.482 2.133 1.101v-3.714h1.306v9.63h-1.306v-.963c-.344.619-1.307 1.1-2.27 1.1Zm.22-1.1h.11c.977 0 1.94-.826 1.94-2.477 0-1.651-.963-2.476-1.94-2.476h-.11c-1.046 0-1.871.825-1.871 2.476s.825 2.477 1.871 2.477Z"/><ellipse cx="105.436" cy="585.746" fill="#EBFBF4" rx="12.788" ry="12.774"/><path stroke="#335A48" stroke-width="1.474" d="M106.911 589.677h-5.41v-5.404M101.501 589.677l7.87-7.861"/><path fill="#000" d="M134.306 493.777c-2.27 0-3.714-1.101-3.783-3.233h1.376c0 1.307 1.018 1.995 2.462 1.995h.138c1.293 0 1.995-.647 1.995-1.445 0-.784-.496-1.238-1.514-1.444l-1.54-.317c-1.541-.316-2.435-1.183-2.435-2.71 0-1.513 1.362-2.751 3.439-2.751 2.132 0 3.494 1.169 3.563 3.026h-1.376c-.069-1.1-.949-1.788-2.118-1.788h-.138c-1.197 0-1.995.646-1.995 1.499 0 .743.509 1.183 1.321 1.349l1.541.302c1.664.33 2.627 1.211 2.627 2.779 0 1.692-1.43 2.738-3.563 2.738Zm8.199 0c-1.706 0-3.247-1.183-3.247-3.591 0-2.38 1.582-3.563 3.206-3.563 1.788 0 2.916 1.238 2.916 3.027v.756h-4.815c.083 1.569 1.087 2.27 1.926 2.27h.11c.674 0 1.321-.344 1.459-1.073h1.307c-.248 1.39-1.445 2.174-2.862 2.174Zm-1.857-4.402h3.425c-.055-1.197-.77-1.651-1.554-1.651h-.11c-.716 0-1.514.426-1.761 1.651Zm7.732 4.264h-1.306v-6.878h1.306v.963c.413-.619 1.101-1.101 2.202-1.101 1.582 0 2.476.963 2.476 2.408v4.608h-1.307v-4.333c0-.963-.413-1.582-1.39-1.582h-.11c-.976 0-1.871.756-1.871 2.063v3.852Zm10.499 0h-1.65c-.963 0-1.514-.55-1.514-1.513v-4.237h-1.513v-1.128h1.513v-2.229h1.307v2.229h1.651v1.128h-1.651v4.031c0 .412.138.55.55.55h1.307v1.169Z"/><ellipse cx="105.436" cy="489.448" fill="#FFE4DC" rx="12.788" ry="12.774"/><path stroke="#F15929" stroke-width="1.474" d="M103.96 485.518h5.41v5.404M109.37 485.518l-7.869 7.861"/><path fill="#000" d="M231.688 296.482h-3.715v-1.169h3.715v1.169Zm5.418-.041-2.572 2.38h4.966v1.238h-6.507v-1.458l3.109-2.958c.853-.812 1.912-1.527 1.912-2.71 0-.908-.715-1.472-1.623-1.472h-.138c-1.059 0-1.788.784-1.788 1.843h-1.376c.014-1.843 1.389-3.012 3.233-3.012 1.651 0 3.04.921 3.04 2.572 0 1.527-1.142 2.531-2.256 3.577Zm3.552-3.604 2.477-2.408h1.031v9.63h-1.32v-7.69l-2.188 2.119v-1.651Zm7.331 7.222h-1.651v-1.651h1.651v1.651Zm4.883.138c-1.871 0-3.164-1.032-3.343-2.655h1.335c.192.949.921 1.485 1.939 1.485h.124c1.018 0 1.857-.619 1.857-1.582 0-1.004-.742-1.623-1.747-1.623h-.825v-1.156h.825c1.005 0 1.679-.743 1.679-1.623 0-.99-.771-1.582-1.789-1.582h-.124c-.921 0-1.705.647-1.788 1.513h-1.307c.083-1.541 1.458-2.682 3.233-2.682 1.72 0 3.123 1.141 3.123 2.545 0 1.238-.715 2.063-1.665 2.366.95.234 1.734 1.004 1.734 2.311 0 1.541-1.376 2.683-3.261 2.683Zm10.524-.138h-1.321v-2.187h-4.732v-1.321l4.746-6.122h1.307v6.273h1.513v1.17h-1.513v2.187Zm-1.321-7.786-3.439 4.429h3.439v-4.429Zm7.172 7.924c-1.761 0-3.26-.922-3.398-2.683h1.348c.124.991.977 1.513 1.981 1.513h.138c1.155 0 1.953-.853 1.953-1.994 0-1.06-.825-1.83-1.884-1.83h-.138c-.619 0-1.334.316-1.72.935h-1.334l1.169-5.709h5.159v1.238h-4.154l-.675 3.123c.523-.509 1.239-.756 1.926-.756 1.789 0 2.999 1.279 2.999 2.93 0 1.898-1.472 3.233-3.37 3.233Zm8.902-3.756-2.573 2.38h4.966v1.238h-6.507v-1.458l3.109-2.958c.853-.812 1.912-1.527 1.912-2.71 0-.908-.715-1.472-1.623-1.472h-.137c-1.06 0-1.789.784-1.789 1.843h-1.376c.014-1.843 1.39-3.012 3.233-3.012 1.651 0 3.041.921 3.041 2.572 0 1.527-1.142 2.531-2.256 3.577ZM231.481 391.02h2.738v.976h-2.738v2.834h-.99v-2.834h-2.738v-.976h2.738v-2.848h.99v2.848Zm7.433 5.475c-1.871 0-3.164-1.032-3.343-2.655h1.334c.193.949.922 1.486 1.94 1.486h.124c1.018 0 1.857-.619 1.857-1.582 0-1.005-.743-1.624-1.747-1.624h-.826v-1.155h.826c1.004 0 1.678-.743 1.678-1.624 0-.99-.77-1.582-1.788-1.582h-.124c-.922 0-1.706.647-1.788 1.514h-1.307c.082-1.541 1.458-2.683 3.233-2.683 1.719 0 3.122 1.142 3.122 2.545 0 1.238-.715 2.064-1.664 2.366.949.234 1.733 1.004 1.733 2.311 0 1.541-1.375 2.683-3.26 2.683Zm6.63-.138h-1.651v-1.65h1.651v1.65Zm7.359 0h-1.32v-2.187h-4.733v-1.321l4.747-6.121h1.306v6.273h1.514v1.169h-1.514v2.187Zm-1.32-7.786-3.439 4.43h3.439v-4.43Zm7.172 7.924c-1.761 0-3.261-.922-3.398-2.683h1.348c.124.991.977 1.514 1.981 1.514h.137c1.156 0 1.954-.853 1.954-1.995 0-1.059-.825-1.83-1.885-1.83h-.137c-.619 0-1.335.317-1.72.936h-1.334l1.169-5.709h5.159v1.238h-4.155l-.674 3.123c.523-.509 1.238-.757 1.926-.757 1.789 0 2.999 1.279 2.999 2.93 0 1.899-1.472 3.233-3.37 3.233Zm8.076 0c-1.871 0-3.164-1.032-3.343-2.655h1.334c.193.949.922 1.486 1.94 1.486h.124c1.018 0 1.857-.619 1.857-1.582 0-1.005-.743-1.624-1.747-1.624h-.826v-1.155h.826c1.004 0 1.678-.743 1.678-1.624 0-.99-.77-1.582-1.788-1.582h-.124c-.922 0-1.706.647-1.788 1.514h-1.307c.082-1.541 1.458-2.683 3.233-2.683 1.719 0 3.122 1.142 3.122 2.545 0 1.238-.715 2.064-1.664 2.366.949.234 1.733 1.004 1.733 2.311 0 1.541-1.376 2.683-3.26 2.683Zm8.872-3.756-2.572 2.38h4.966v1.238h-6.507v-1.458l3.109-2.958c.853-.811 1.912-1.527 1.912-2.71 0-.908-.715-1.472-1.623-1.472h-.138c-1.059 0-1.788.784-1.788 1.844h-1.376c.014-1.844 1.39-3.013 3.233-3.013 1.651 0 3.041.922 3.041 2.573 0 1.527-1.142 2.531-2.257 3.576Zm7.075 3.756c-1.871 0-3.165-1.032-3.343-2.655h1.334c.193.949.922 1.486 1.94 1.486h.124c1.018 0 1.857-.619 1.857-1.582 0-1.005-.743-1.624-1.747-1.624h-.826v-1.155h.826c1.004 0 1.678-.743 1.678-1.624 0-.99-.77-1.582-1.788-1.582h-.124c-.922 0-1.706.647-1.789 1.514h-1.307c.083-1.541 1.459-2.683 3.233-2.683 1.72 0 3.123 1.142 3.123 2.545 0 1.238-.715 2.064-1.664 2.366.949.234 1.733 1.004 1.733 2.311 0 1.541-1.376 2.683-3.26 2.683Zm10.523-.138h-1.321v-2.187h-4.732v-1.321l4.746-6.121h1.307v6.273h1.513v1.169h-1.513v2.187Zm-1.321-7.786-3.439 4.43h3.439v-4.43Zm8.08 4.168-2.572 2.38h4.966v1.238h-6.507v-1.458l3.109-2.958c.853-.811 1.912-1.527 1.912-2.71 0-.908-.715-1.472-1.623-1.472h-.138c-1.059 0-1.788.784-1.788 1.844h-1.376c.014-1.844 1.39-3.013 3.233-3.013 1.651 0 3.04.922 3.04 2.573 0 1.527-1.141 2.531-2.256 3.576Zm7.9 0-2.573 2.38h4.966v1.238h-6.507v-1.458l3.109-2.958c.853-.811 1.913-1.527 1.913-2.71 0-.908-.716-1.472-1.624-1.472h-.137c-1.06 0-1.789.784-1.789 1.844h-1.375c.013-1.844 1.389-3.013 3.233-3.013 1.65 0 3.04.922 3.04 2.573 0 1.527-1.142 2.531-2.256 3.576ZM231.688 490.062h-3.715v-1.169h3.715v1.169Zm7.364 3.577h-1.32v-2.188h-4.733v-1.32l4.747-6.122h1.306v6.273h1.514v1.169h-1.514v2.188Zm-1.32-7.787-3.439 4.43h3.439v-4.43Zm5.837 7.787h-1.651v-1.651h1.651v1.651Zm4.883.137c-1.871 0-3.164-1.032-3.343-2.655h1.335c.192.949.922 1.486 1.94 1.486h.123c1.018 0 1.858-.619 1.858-1.582 0-1.004-.743-1.623-1.748-1.623h-.825v-1.156h.825c1.005 0 1.679-.743 1.679-1.623 0-.991-.771-1.582-1.789-1.582h-.123c-.922 0-1.706.646-1.789 1.513h-1.307c.083-1.541 1.458-2.683 3.233-2.683 1.72 0 3.123 1.142 3.123 2.545 0 1.238-.715 2.064-1.665 2.366.95.234 1.734 1.005 1.734 2.312 0 1.54-1.376 2.682-3.261 2.682Zm10.524-.137h-1.321v-2.188h-4.732v-1.32l4.746-6.122h1.307v6.273h1.513v1.169h-1.513v2.188Zm-1.321-7.787-3.439 4.43h3.439v-4.43Zm7.255 7.924c-1.871 0-3.164-1.032-3.343-2.655h1.334c.193.949.922 1.486 1.94 1.486h.124c1.018 0 1.857-.619 1.857-1.582 0-1.004-.743-1.623-1.747-1.623h-.826v-1.156h.826c1.004 0 1.678-.743 1.678-1.623 0-.991-.77-1.582-1.788-1.582h-.124c-.922 0-1.706.646-1.789 1.513h-1.306c.082-1.541 1.458-2.683 3.232-2.683 1.72 0 3.123 1.142 3.123 2.545 0 1.238-.715 2.064-1.664 2.366.949.234 1.733 1.005 1.733 2.312 0 1.54-1.376 2.682-3.26 2.682ZM231.481 584.6h2.738v.977h-2.738v2.833h-.99v-2.833h-2.738v-.977h2.738v-2.848h.99v2.848Zm3.911-1.885 2.476-2.407h1.032v9.63h-1.321v-7.691l-2.187 2.119v-1.651Zm8.748 7.36c-1.871 0-3.164-1.032-3.343-2.655h1.334c.193.949.922 1.486 1.94 1.486h.124c1.018 0 1.857-.619 1.857-1.582 0-1.005-.743-1.624-1.747-1.624h-.825v-1.155h.825c1.004 0 1.678-.743 1.678-1.624 0-.99-.77-1.582-1.788-1.582h-.124c-.922 0-1.706.647-1.788 1.514h-1.307c.082-1.541 1.458-2.683 3.233-2.683 1.719 0 3.122 1.142 3.122 2.545 0 1.238-.715 2.064-1.664 2.366.949.234 1.733 1.005 1.733 2.311 0 1.541-1.375 2.683-3.26 2.683Zm6.63-.137h-1.651v-1.651h1.651v1.651Zm7.359 0h-1.32v-2.188h-4.733v-1.321l4.747-6.121h1.306v6.273h1.514v1.169h-1.514v2.188Zm-1.32-7.787-3.439 4.43h3.439v-4.43ZM229.838 236.575a9.42 9.42 0 0 1-1.262-.106c-.409-.071-.739-.165-.99-.283v-1.002c.267.125.609.235 1.025.33.417.094.826.145 1.227.153v-2.382a8.323 8.323 0 0 1-1.014-.354 2.786 2.786 0 0 1-.696-.448 1.692 1.692 0 0 1-.413-.566 2.058 2.058 0 0 1-.129-.754c0-.386.09-.716.271-.991a1.9 1.9 0 0 1 .79-.648c.338-.165.735-.26 1.191-.283v-1.038h.754v1.026c.417.008.794.055 1.132.141.346.079.661.177.944.295l-.319.873a5.541 5.541 0 0 0-.837-.26 5.198 5.198 0 0 0-.92-.153v2.37c.519.149.952.311 1.298.484.345.165.605.373.778.625.181.243.271.562.271.955 0 .55-.204.998-.613 1.344-.409.338-.987.546-1.734.625v1.309h-.754v-1.262Zm.754-.967c.464-.047.802-.153 1.015-.318a.816.816 0 0 0 .318-.661.896.896 0 0 0-.118-.483c-.079-.134-.216-.248-.413-.342a4.049 4.049 0 0 0-.802-.271v2.075Zm-.754-5.459a1.839 1.839 0 0 0-.696.153.959.959 0 0 0-.413.318.832.832 0 0 0-.129.46c0 .205.035.381.106.531a.973.973 0 0 0 .389.365c.181.095.428.181.743.26v-2.087Zm6.005 7.004h-1.179v-8.254h1.179v8.254Zm3.305 0h-1.179v-8.254h3.537c1.533 0 2.594.943 2.594 2.24 0 1.061-.589 1.851-1.356 2.087.944 0 1.238.33 1.238 1.156v2.771h-1.179v-2.476c0-.649-.177-.826-.825-.826h-2.83v3.302Zm0-7.193v2.83h2.181c1.003 0 1.592-.649 1.592-1.474 0-.884-.589-1.356-1.592-1.356h-2.181Zm10.243 7.311c-2.24 0-3.891-1.592-3.891-4.245s1.651-4.245 3.891-4.245 3.891 1.592 3.891 4.245-1.651 4.245-3.891 4.245Zm-.059-1.062h.118c1.533 0 2.653-1.179 2.653-3.183 0-2.005-1.12-3.184-2.653-3.184h-.118c-1.533 0-2.653 1.179-2.653 3.184 0 2.004 1.12 3.183 2.653 3.183Zm11.07-.483v-6.827h1.179v8.254h-1.65l-3.833-6.828v6.828h-1.179v-8.254h1.651l3.832 6.827Z"/><g clip-path="url(#i)"><path fill="#7F7F7F" d="M481.492 384.797h-5.902a.986.986 0 0 0-.984.983v6.878h.984v-6.878h5.902v-.983Zm1.476 1.965h-5.41a.986.986 0 0 0-.984.983v6.878c0 .541.442.983.984.983h5.41a.985.985 0 0 0 .983-.983v-6.878a.985.985 0 0 0-.983-.983Zm0 7.861h-5.41v-6.878h5.41v6.878Z"/></g><path fill="#000" d="M355.862 300.197c-2.82 0-4.539-2.133-4.539-4.953 0-2.82 1.719-4.952 4.539-4.952 2.064 0 3.715 1.21 3.852 3.164h-1.375c-.138-1.17-1.101-1.926-2.408-1.926h-.137c-1.995 0-3.096 1.651-3.096 3.714 0 2.064 1.101 3.715 3.096 3.715h.137c1.307 0 2.27-.757 2.408-1.926h1.375c-.137 1.953-1.788 3.164-3.852 3.164Zm6.812-.138h-1.307v-9.63h1.307v3.715c.413-.619 1.1-1.101 2.201-1.101 1.582 0 2.476.963 2.476 2.408v4.608h-1.307v-4.333c0-.963-.412-1.582-1.389-1.582h-.11c-.977 0-1.871.756-1.871 2.063v3.852Zm7.98 0h-1.307v-6.878h1.238v1.513c.275-1.032 1.101-1.582 1.995-1.582h.619v1.265h-.55c-1.238 0-1.995.826-1.995 2.202v3.48Zm5.241-8.117h-1.444v-1.513h1.444v1.513Zm-.069 8.117h-1.307v-6.878h1.307v6.878Zm4.363.138c-1.83 0-2.82-.963-2.82-2.27h1.307c.068.825.715 1.169 1.527 1.169h.11c.715 0 1.279-.344 1.279-.894 0-.44-.248-.743-.935-.881l-1.005-.192c-1.114-.22-2.008-.798-2.008-1.967 0-1.376 1.224-2.119 2.6-2.119 1.802 0 2.724.963 2.724 2.27h-1.307c-.069-.619-.454-1.169-1.348-1.169h-.11c-.771 0-1.252.399-1.252.88 0 .482.275.743.963.88l1.087.221c1.045.206 1.898.77 1.898 2.008s-1.114 2.064-2.71 2.064Zm15.001-.138h-7.016v-9.63h1.375v8.392h5.641v1.238Zm2.795 0h-1.651v-1.651h1.651v1.651ZM350.993 387.966v-1.238h6.672v1.306c-2.449 1.486-3.632 3.962-3.632 8.048v.275h-1.348v-.399c0-3.934 1.389-6.617 3.576-7.992h-5.268Zm10.222 8.391h-1.307v-5.75h-1.513v-1.128h1.513v-1.307c0-.963.481-1.444 1.444-1.444h1.926v1.141h-1.513c-.413 0-.55.138-.55.551v1.059h1.719v1.128h-1.719v5.75Zm3.091-8.391v-1.238h6.672v1.306c-2.448 1.486-3.632 3.962-3.632 8.048v.275h-1.348v-.399c0-3.934 1.39-6.617 3.577-7.992h-5.269Zm11.639 8.529c-2.38 0-3.783-1.72-3.783-4.953 0-3.232 1.403-4.952 3.783-4.952s3.784 1.72 3.784 4.952c0 3.233-1.404 4.953-3.784 4.953Zm-.068-1.169h.137c1.032 0 2.366-.812 2.366-3.784 0-2.971-1.334-3.783-2.366-3.783h-.137c-1.032 0-2.367.812-2.367 3.783 0 2.972 1.335 3.784 2.367 3.784Zm6.914 1.031h-1.651v-1.65h1.651v1.65Zm3.466 0h-1.651v-1.65h1.651v1.65Zm3.466 0h-1.651v-1.65h1.651v1.65Zm4.498.138c-1.72 0-2.958-1.307-2.958-3.577s1.376-3.577 3.095-3.577c.963 0 1.789.482 2.132 1.101v-3.714h1.307v9.629h-1.307v-.963c-.343.619-1.306 1.101-2.269 1.101Zm.22-1.101h.11c.977 0 1.939-.825 1.939-2.476s-.962-2.476-1.939-2.476h-.11c-1.046 0-1.871.825-1.871 2.476s.825 2.476 1.871 2.476Zm8.25 1.101c-1.706 0-3.247-1.183-3.247-3.591 0-2.38 1.582-3.563 3.206-3.563 1.788 0 2.916 1.239 2.916 3.027v.757h-4.815c.083 1.568 1.087 2.269 1.926 2.269h.11c.674 0 1.321-.343 1.458-1.073h1.307c-.247 1.39-1.444 2.174-2.861 2.174Zm-1.857-4.402h3.425c-.055-1.197-.77-1.651-1.554-1.651h-.111c-.715 0-1.513.426-1.76 1.651Zm9.947 4.402c-2.38 0-3.783-1.72-3.783-4.953 0-3.232 1.403-4.952 3.783-4.952s3.783 1.72 3.783 4.952c0 3.233-1.403 4.953-3.783 4.953Zm-.069-1.169h.138c1.032 0 2.366-.812 2.366-3.784 0-2.971-1.334-3.783-2.366-3.783h-.138c-1.031 0-2.366.812-2.366 3.783 0 2.972 1.335 3.784 2.366 3.784Zm8.215 1.169c-1.72 0-2.958-1.307-2.958-3.577s1.376-3.577 3.095-3.577c.963 0 1.789.482 2.133 1.101v-3.714h1.306v9.629h-1.306v-.963c-.344.619-1.307 1.101-2.27 1.101Zm.22-1.101h.11c.977 0 1.94-.825 1.94-2.476s-.963-2.476-1.94-2.476h-.11c-1.046 0-1.871.825-1.871 2.476s.825 2.476 1.871 2.476Zm6.943.963h-1.651v-1.65h1.651v1.65Zm3.466 0h-1.651v-1.65h1.651v1.65Zm3.466 0h-1.651v-1.65h1.651v1.65Zm5.233-6.328c1.72 0 3.109 1.238 3.109 3.164 0 1.981-1.444 3.302-3.37 3.302-2.133 0-3.563-1.678-3.563-4.636 0-3.095 1.87-5.269 4.072-5.269 1.65 0 2.792.908 3.067 2.476h-1.348c-.206-.77-.77-1.293-1.623-1.293h-.165c-1.513 0-2.642 1.541-2.807 3.838.482-.99 1.514-1.582 2.628-1.582Zm-.303 5.283h.138c1.032 0 1.926-.826 1.926-2.05 0-1.238-.894-2.063-1.926-2.063h-.138c-1.031 0-1.981.88-1.981 2.049 0 1.156.95 2.064 1.981 2.064Zm8.463-8.722c2.132 0 3.563 1.678 3.563 4.636 0 3.095-1.871 5.269-4.072 5.269-1.651 0-2.793-.908-3.068-2.476h1.348c.207.77.771 1.293 1.623 1.293h.166c1.513 0 2.641-1.541 2.806-3.838-.482.99-1.513 1.582-2.628 1.582-1.719 0-3.109-1.238-3.109-3.164 0-1.981 1.445-3.302 3.371-3.302Zm-.097 5.296h.138c1.032 0 1.981-.88 1.981-2.049 0-1.156-.949-2.064-1.981-2.064h-.138c-1.031 0-1.925.826-1.925 2.05 0 1.238.894 2.063 1.925 2.063Zm10.857 4.471h-1.321v-2.187h-4.732v-1.321l4.746-6.121h1.307v6.273h1.513v1.169h-1.513v2.187Zm-1.321-7.786-3.439 4.43h3.439v-4.43Zm7.254 7.924c-1.871 0-3.164-1.032-3.343-2.655h1.335c.192.949.922 1.486 1.94 1.486h.123c1.018 0 1.858-.619 1.858-1.582 0-1.005-.743-1.624-1.748-1.624h-.825v-1.155h.825c1.005 0 1.679-.743 1.679-1.624 0-.99-.771-1.582-1.789-1.582h-.123c-.922 0-1.706.647-1.789 1.514h-1.307c.083-1.541 1.459-2.683 3.233-2.683 1.72 0 3.123 1.142 3.123 2.545 0 1.238-.715 2.064-1.665 2.366.95.234 1.734 1.004 1.734 2.311 0 1.541-1.376 2.683-3.261 2.683Z"/><g clip-path="url(#j)"><path fill="#7F7F7F" d="M413.618 288.498h-5.902a.986.986 0 0 0-.984.983v6.878h.984v-6.878h5.902v-.983Zm1.476 1.965h-5.411a.986.986 0 0 0-.983.983v6.878c0 .541.442.983.983.983h5.411a.985.985 0 0 0 .983-.983v-6.878a.986.986 0 0 0-.983-.983Zm0 7.861h-5.411v-6.878h5.411v6.878Z"/></g><g clip-path="url(#k)"><path fill="#7F7F7F" d="M424.283 482.078h-5.903a.985.985 0 0 0-.983.983v6.878h.983v-6.878h5.903v-.983Zm1.475 1.965h-5.41a.987.987 0 0 0-.984.983v6.879c0 .54.443.982.984.982h5.41a.986.986 0 0 0 .984-.982v-6.879a.987.987 0 0 0-.984-.983Zm0 7.862h-5.41v-6.879h5.41v6.879Z"/></g><g clip-path="url(#l)"><path fill="#7F7F7F" d="M480.509 578.377h-5.902a.986.986 0 0 0-.984.983v6.878h.984v-6.878h5.902v-.983Zm1.476 1.965h-5.411a.985.985 0 0 0-.983.983v6.878c0 .541.442.983.983.983h5.411a.985.985 0 0 0 .983-.983v-6.878a.985.985 0 0 0-.983-.983Zm0 7.861h-5.411v-6.878h5.411v6.878Z"/></g><path fill="#000" d="M352.685 493.639h-1.651v-1.307h1.444c.894 0 1.238-.344 1.238-1.238v-7.085h1.376v7.222c0 1.651-.757 2.408-2.407 2.408Zm6.922.137c-1.83 0-2.82-.963-2.82-2.27h1.307c.069.826.715 1.17 1.527 1.17h.11c.715 0 1.279-.344 1.279-.895 0-.44-.247-.742-.935-.88l-1.004-.193c-1.115-.22-2.009-.797-2.009-1.967 0-1.375 1.224-2.118 2.6-2.118 1.802 0 2.724.963 2.724 2.27h-1.307c-.069-.62-.454-1.17-1.348-1.17h-.11c-.77 0-1.252.399-1.252.881 0 .481.275.743.963.88l1.087.22c1.045.207 1.898.771 1.898 2.009s-1.114 2.063-2.71 2.063Zm7.295 0c-1.857 0-3.301-1.444-3.301-3.577 0-2.132 1.444-3.576 3.301-3.576 1.857 0 3.302 1.444 3.302 3.576 0 2.133-1.445 3.577-3.302 3.577Zm-.055-1.1h.11c1.115 0 1.94-.895 1.94-2.477 0-1.582-.825-2.476-1.94-2.476h-.11c-1.114 0-1.94.894-1.94 2.476 0 1.582.826 2.477 1.94 2.477Zm6.306.963h-1.307v-6.879h1.307v.963c.413-.619 1.1-1.1 2.201-1.1 1.582 0 2.476.963 2.476 2.407v4.609h-1.307v-4.334c0-.963-.412-1.582-1.389-1.582h-.11c-.977 0-1.871.757-1.871 2.064v3.852Zm6.095-7.223 2.476-2.407h1.032v9.63h-1.32v-7.69l-2.188 2.118v-1.651Zm8.982-2.545c2.132 0 3.563 1.679 3.563 4.636 0 3.096-1.871 5.269-4.072 5.269-1.651 0-2.793-.908-3.068-2.476h1.348c.207.77.771 1.293 1.624 1.293h.165c1.513 0 2.641-1.541 2.806-3.838-.481.99-1.513 1.582-2.628 1.582-1.719 0-3.109-1.238-3.109-3.164 0-1.981 1.445-3.302 3.371-3.302Zm-.096 5.297h.137c1.032 0 1.981-.881 1.981-2.05 0-1.156-.949-2.064-1.981-2.064h-.137c-1.032 0-1.926.826-1.926 2.05 0 1.238.894 2.064 1.926 2.064Zm8.613-5.297c2.133 0 3.563 1.679 3.563 4.636 0 3.096-1.871 5.269-4.072 5.269-1.65 0-2.792-.908-3.067-2.476h1.348c.206.77.77 1.293 1.623 1.293h.165c1.513 0 2.641-1.541 2.807-3.838-.482.99-1.514 1.582-2.628 1.582-1.72 0-3.109-1.238-3.109-3.164 0-1.981 1.444-3.302 3.37-3.302Zm-.096 5.297h.138c1.031 0 1.981-.881 1.981-2.05 0-1.156-.95-2.064-1.981-2.064h-.138c-1.032 0-1.926.826-1.926 2.05 0 1.238.894 2.064 1.926 2.064Zm8.614-5.297c2.132 0 3.563 1.679 3.563 4.636 0 3.096-1.871 5.269-4.072 5.269-1.651 0-2.793-.908-3.068-2.476h1.348c.207.77.771 1.293 1.624 1.293h.165c1.513 0 2.641-1.541 2.806-3.838-.481.99-1.513 1.582-2.628 1.582-1.719 0-3.109-1.238-3.109-3.164 0-1.981 1.445-3.302 3.371-3.302Zm-.096 5.297h.137c1.032 0 1.981-.881 1.981-2.05 0-1.156-.949-2.064-1.981-2.064h-.137c-1.032 0-1.926.826-1.926 2.05 0 1.238.894 2.064 1.926 2.064ZM355.216 590.075c-2.38 0-3.783-1.72-3.783-4.952 0-3.233 1.403-4.953 3.783-4.953s3.783 1.72 3.783 4.953c0 3.232-1.403 4.952-3.783 4.952Zm-.069-1.169h.138c1.031 0 2.366-.812 2.366-3.783 0-2.972-1.335-3.784-2.366-3.784h-.138c-1.032 0-2.366.812-2.366 3.784 0 2.971 1.334 3.783 2.366 3.783Zm9.233 1.169c-.963 0-1.926-.481-2.27-1.1v.963h-1.307v-9.63h1.307v3.714c.344-.619 1.169-1.101 2.132-1.101 1.72 0 3.095 1.307 3.095 3.577s-1.238 3.577-2.957 3.577Zm-.331-1.1h.11c1.046 0 1.871-.826 1.871-2.477 0-1.651-.825-2.476-1.871-2.476h-.11c-.976 0-1.939.825-1.939 2.476s.963 2.477 1.939 2.477Zm6.806 1.1c-1.307 0-2.27-.867-2.27-2.036 0-1.568 1.39-2.036 2.504-2.132l1.898-.152v-.22c0-.963-.55-1.513-1.43-1.513h-.11c-.716 0-1.335.344-1.417 1.032h-1.307c.082-1.266 1.224-2.133 2.779-2.133 1.829 0 2.792 1.211 2.792 2.614v2.889c0 .413 0 1.032.069 1.514h-1.238c-.069-.344-.069-1.032-.069-1.101-.275.619-1.1 1.238-2.201 1.238Zm.151-1.1h.11c.84 0 1.871-.688 1.871-1.514v-.701l-1.719.137c-.798.069-1.376.454-1.376 1.087 0 .564.468.991 1.114.991Zm8.465-8.805c2.132 0 3.563 1.678 3.563 4.636 0 3.095-1.871 5.269-4.072 5.269-1.651 0-2.793-.908-3.068-2.476h1.348c.206.77.77 1.293 1.623 1.293h.165c1.514 0 2.642-1.541 2.807-3.838-.482.99-1.513 1.582-2.628 1.582-1.719 0-3.109-1.238-3.109-3.164 0-1.981 1.445-3.302 3.371-3.302Zm-.097 5.296h.138c1.032 0 1.981-.88 1.981-2.049 0-1.156-.949-2.064-1.981-2.064h-.138c-1.031 0-1.926.826-1.926 2.05 0 1.238.895 2.063 1.926 2.063Zm6.6 4.472h-1.65v-1.651h1.65v1.651Zm3.467 0h-1.651v-1.651h1.651v1.651Zm3.466 0h-1.651v-1.651h1.651v1.651Zm4.498.137c-1.72 0-2.958-1.307-2.958-3.577s1.376-3.577 3.095-3.577c.963 0 1.789.482 2.132 1.101v-3.714h1.307v9.63h-1.307v-.963c-.343.619-1.306 1.1-2.269 1.1Zm.22-1.1h.11c.976 0 1.939-.826 1.939-2.477 0-1.651-.963-2.476-1.939-2.476h-.11c-1.046 0-1.871.825-1.871 2.476s.825 2.477 1.871 2.477Zm8.25 1.1c-1.706 0-3.247-1.183-3.247-3.59 0-2.38 1.582-3.564 3.206-3.564 1.788 0 2.916 1.239 2.916 3.027v.757h-4.815c.083 1.568 1.087 2.27 1.926 2.27h.11c.674 0 1.321-.344 1.458-1.074h1.307c-.247 1.39-1.444 2.174-2.861 2.174Zm-1.857-4.402h3.425c-.055-1.197-.77-1.651-1.554-1.651h-.111c-.715 0-1.513.426-1.76 1.651Zm8.984 4.402c-1.72 0-2.958-1.307-2.958-3.577s1.376-3.577 3.096-3.577c.963 0 1.788.482 2.132 1.101v-3.714h1.307v9.63h-1.307v-.963c-.344.619-1.307 1.1-2.27 1.1Zm.22-1.1h.11c.977 0 1.94-.826 1.94-2.477 0-1.651-.963-2.476-1.94-2.476h-.11c-1.045 0-1.871.825-1.871 2.476s.826 2.477 1.871 2.477Zm9.186-2.656-2.573 2.38h4.966v1.239h-6.507v-1.459l3.109-2.957c.853-.812 1.913-1.528 1.913-2.711 0-.908-.716-1.472-1.624-1.472h-.137c-1.059 0-1.789.785-1.789 1.844h-1.375c.013-1.844 1.389-3.013 3.233-3.013 1.65 0 3.04.922 3.04 2.573 0 1.527-1.142 2.531-2.256 3.576Zm5.657 3.619h-1.651v-1.651h1.651v1.651Zm3.466 0h-1.651v-1.651h1.651v1.651Zm3.466 0h-1.651v-1.651h1.651v1.651Zm5.233-6.329c1.719 0 3.109 1.238 3.109 3.164 0 1.981-1.445 3.302-3.371 3.302-2.132 0-3.563-1.678-3.563-4.636 0-3.095 1.871-5.269 4.072-5.269 1.651 0 2.793.908 3.068 2.476h-1.348c-.206-.77-.77-1.293-1.623-1.293h-.165c-1.514 0-2.642 1.541-2.807 3.838.482-.99 1.514-1.582 2.628-1.582Zm-.303 5.283h.138c1.032 0 1.926-.825 1.926-2.05 0-1.238-.894-2.063-1.926-2.063h-.138c-1.032 0-1.981.88-1.981 2.049 0 1.156.949 2.064 1.981 2.064Zm7.142 1.183c-1.307 0-2.27-.867-2.27-2.036 0-1.568 1.39-2.036 2.504-2.132l1.898-.152v-.22c0-.963-.55-1.513-1.43-1.513h-.11c-.716 0-1.335.344-1.417 1.032h-1.307c.082-1.266 1.224-2.133 2.779-2.133 1.829 0 2.792 1.211 2.792 2.614v2.889c0 .413 0 1.032.069 1.514h-1.238c-.069-.344-.069-1.032-.069-1.101-.275.619-1.1 1.238-2.201 1.238Zm.151-1.1h.11c.84 0 1.871-.688 1.871-1.514v-.701l-1.719.137c-.798.069-1.376.454-1.376 1.087 0 .564.468.991 1.114.991Zm7.144 1.1c-1.307 0-2.27-.867-2.27-2.036 0-1.568 1.389-2.036 2.504-2.132l1.898-.152v-.22c0-.963-.55-1.513-1.43-1.513h-.111c-.715 0-1.334.344-1.416 1.032h-1.307c.082-1.266 1.224-2.133 2.779-2.133 1.829 0 2.792 1.211 2.792 2.614v2.889c0 .413 0 1.032.069 1.514h-1.238c-.069-.344-.069-1.032-.069-1.101-.275.619-1.101 1.238-2.201 1.238Zm.151-1.1h.11c.839 0 1.871-.688 1.871-1.514v-.701l-1.719.137c-.798.069-1.376.454-1.376 1.087 0 .564.468.991 1.114.991Zm8.176 1.1c-2.119 0-3.302-1.554-3.302-3.577 0-2.022 1.183-3.577 3.302-3.577 1.568 0 2.682.922 2.82 2.408h-1.307c-.124-.757-.674-1.307-1.458-1.307h-.11c-1.321 0-1.94 1.169-1.94 2.476s.619 2.477 1.94 2.477h.11c.784 0 1.334-.551 1.458-1.307h1.307c-.138 1.485-1.252 2.407-2.82 2.407ZM354.647 237.153h-1.179v-7.193h-2.948v-1.061h7.075v1.061h-2.948v7.193Zm5.079.118c-1.592 0-2.83-1.238-2.83-3.066 0-1.828 1.238-3.066 2.83-3.066s2.83 1.238 2.83 3.066c0 1.828-1.238 3.066-2.83 3.066Zm-.047-.944h.094c.955 0 1.662-.766 1.662-2.122 0-1.356-.707-2.123-1.662-2.123h-.094c-.956 0-1.663.767-1.663 2.123 0 1.356.707 2.122 1.663 2.122Zm7.466.826h-1.179l3.184-8.254h1.179l-3.184 8.254Zm8.296 0h-1.179v-8.254h5.778v1.061h-4.599v2.653h4.009v1.061h-4.009v3.479Zm6.65 0h-1.12v-5.896h1.061v1.297c.236-.884.944-1.356 1.71-1.356h.531v1.085h-.472c-1.061 0-1.71.707-1.71 1.887v2.983Zm5.594.118c-1.592 0-2.83-1.238-2.83-3.066 0-1.828 1.238-3.066 2.83-3.066s2.83 1.238 2.83 3.066c0 1.828-1.238 3.066-2.83 3.066Zm-.047-.944h.094c.955 0 1.663-.766 1.663-2.122 0-1.356-.708-2.123-1.663-2.123h-.094c-.955 0-1.663.767-1.663 2.123 0 1.356.708 2.122 1.663 2.122Zm5.405.826h-1.121v-5.896h1.121v.825c.353-.53.943-.943 1.768-.943.849 0 1.557.33 1.946 1.097.46-.814 1.226-1.097 1.946-1.097 1.356 0 2.122.825 2.122 2.064v3.95h-1.12v-3.715c0-.825-.354-1.356-1.191-1.356h-.094c-.72 0-1.486.649-1.486 1.769v3.302h-1.12v-3.715c0-.825-.354-1.356-1.191-1.356h-.095c-.719 0-1.485.649-1.485 1.769v3.302ZM100.681 237.153h-1.226l-.825-2.123H94.69l-.825 2.123h-1.203l3.266-8.254h1.51l3.242 8.254Zm-4.02-7.17-1.557 3.986h3.113l-1.556-3.986Zm7.41 7.288c-1.816 0-2.83-1.333-2.83-3.066 0-1.733 1.014-3.066 2.83-3.066 1.344 0 2.299.79 2.417 2.064h-1.12c-.106-.649-.578-1.121-1.25-1.121h-.094c-1.132 0-1.663 1.003-1.663 2.123 0 1.12.531 2.122 1.663 2.122h.094c.672 0 1.144-.471 1.25-1.12h1.12c-.118 1.274-1.073 2.064-2.417 2.064Zm7.079-.118h-1.415c-.826 0-1.297-.472-1.297-1.297v-3.632h-1.297v-.967h1.297v-1.91h1.12v1.91h1.415v.967h-1.415v3.455c0 .354.118.472.472.472h1.12v1.002Zm2.391-6.957h-1.238v-1.297h1.238v1.297Zm-.059 6.957h-1.12v-5.896h1.12v5.896Zm4.234.118c-1.592 0-2.83-1.238-2.83-3.066 0-1.828 1.238-3.066 2.83-3.066s2.83 1.238 2.83 3.066c0 1.828-1.238 3.066-2.83 3.066Zm-.047-.944h.095c.955 0 1.662-.766 1.662-2.122 0-1.356-.707-2.123-1.662-2.123h-.095c-.955 0-1.662.767-1.662 2.123 0 1.356.707 2.122 1.662 2.122Zm5.405.826h-1.12v-5.896h1.12v.825c.354-.53.943-.943 1.887-.943 1.356 0 2.122.825 2.122 2.064v3.95h-1.12v-3.715c0-.825-.354-1.356-1.191-1.356h-.094c-.838 0-1.604.649-1.604 1.769v3.302Z"/></g><path fill="#000" d="m61 296-5-2.887v5.774L61 296Zm-16-81.5V282h1v-67.5h-1Zm0 67.5c0 8.008 6.492 14.5 14.5 14.5v-1c-7.456 0-13.5-6.044-13.5-13.5h-1Z"/><path fill="#000" d="m61 393.5-5-2.887v5.774l5-2.887Zm-16-115v101h1v-101h-1Zm0 101c0 8.008 6.492 14.5 14.5 14.5v-1c-7.456 0-13.5-6.044-13.5-13.5h-1Z"/><path fill="#000" d="m61 489.5-5-2.887v5.774l5-2.887Zm-16-115v101h1v-101h-1Zm0 101c0 8.008 6.492 14.5 14.5 14.5v-1c-7.456 0-13.5-6.044-13.5-13.5h-1Z"/><path fill="#000" d="m61 584.5-5-2.887v5.774l5-2.887ZM45 470v100.5h1V470h-1Zm0 100.5c0 8.008 6.492 14.5 14.5 14.5v-1c-7.456 0-13.5-6.044-13.5-13.5h-1Z"/><defs><clipPath id="a"><path fill="#fff" d="M29 62h469.5v566H29z"/></clipPath><clipPath id="b"><path fill="#fff" d="M456.833 164.452h13.033v13.019h-13.033z"/></clipPath><clipPath id="i"><path fill="#fff" d="M473.623 384.306h11.804v11.792h-11.804z"/></clipPath><clipPath id="j"><path fill="#fff" d="M405.749 288.007h11.804v11.792h-11.804z"/></clipPath><clipPath id="k"><path fill="#fff" d="M416.413 481.587h11.804v11.792h-11.804z"/></clipPath><clipPath id="l"><path fill="#fff" d="M472.639 577.886h11.804v11.792h-11.804z"/></clipPath><filter id="e" width="646.259" height="106.125" x="50.361" y="246.736" color-interpolation-filters="sRGB" filterUnits="userSpaceOnUse"><feFlood flood-opacity="0" result="BackgroundImageFix"/><feColorMatrix in="SourceAlpha" result="hardAlpha" values="0 0 0 0 0 0 0 0 0 0 0 0 0 0 0 0 0 0 127 0"/><feOffset dy="3.931"/><feGaussianBlur stdDeviation="5.405"/><feComposite in2="hardAlpha" operator="out"/><feColorMatrix values="0 0 0 0 0 0 0 0 0 0 0 0 0 0 0 0 0 0 0.04 0"/><feBlend in2="BackgroundImageFix" result="effect1_dropShadow_2071_5403"/><feBlend in="SourceGraphic" in2="effect1_dropShadow_2071_5403" result="shape"/></filter><filter id="f" width="646.259" height="106.125" x="50.361" y="343.035" color-interpolation-filters="sRGB" filterUnits="userSpaceOnUse"><feFlood flood-opacity="0" result="BackgroundImageFix"/><feColorMatrix in="SourceAlpha" result="hardAlpha" values="0 0 0 0 0 0 0 0 0 0 0 0 0 0 0 0 0 0 127 0"/><feOffset dy="3.931"/><feGaussianBlur stdDeviation="5.405"/><feComposite in2="hardAlpha" operator="out"/><feColorMatrix values="0 0 0 0 0 0 0 0 0 0 0 0 0 0 0 0 0 0 0.04 0"/><feBlend in2="BackgroundImageFix" result="effect1_dropShadow_2071_5403"/><feBlend in="SourceGraphic" in2="effect1_dropShadow_2071_5403" result="shape"/></filter><filter id="g" width="646.259" height="106.125" x="50.361" y="440.316" color-interpolation-filters="sRGB" filterUnits="userSpaceOnUse"><feFlood flood-opacity="0" result="BackgroundImageFix"/><feColorMatrix in="SourceAlpha" result="hardAlpha" values="0 0 0 0 0 0 0 0 0 0 0 0 0 0 0 0 0 0 127 0"/><feOffset dy="3.931"/><feGaussianBlur stdDeviation="5.405"/><feComposite in2="hardAlpha" operator="out"/><feColorMatrix values="0 0 0 0 0 0 0 0 0 0 0 0 0 0 0 0 0 0 0.04 0"/><feBlend in2="BackgroundImageFix" result="effect1_dropShadow_2071_5403"/><feBlend in="SourceGraphic" in2="effect1_dropShadow_2071_5403" result="shape"/></filter><filter id="h" width="646.259" height="106.125" x="50.361" y="536.615" color-interpolation-filters="sRGB" filterUnits="userSpaceOnUse"><feFlood flood-opacity="0" result="BackgroundImageFix"/><feColorMatrix in="SourceAlpha" result="hardAlpha" values="0 0 0 0 0 0 0 0 0 0 0 0 0 0 0 0 0 0 127 0"/><feOffset dy="3.931"/><feGaussianBlur stdDeviation="5.405"/><feComposite in2="hardAlpha" operator="out"/><feColorMatrix values="0 0 0 0 0 0 0 0 0 0 0 0 0 0 0 0 0 0 0.04 0"/><feBlend in2="BackgroundImageFix" result="effect1_dropShadow_2071_5403"/><feBlend in="SourceGraphic" in2="effect1_dropShadow_2071_5403" result="shape"/></filter><linearGradient id="c" x1="42.485" x2="165.563" y1="134.074" y2="138.056" gradientUnits="userSpaceOnUse"><stop stop-color="#fff"/><stop offset="1" stop-color="#DE83F0"/></linearGradient><linearGradient id="d" x1="41.943" x2="160.172" y1="132.989" y2="134.73" gradientUnits="userSpaceOnUse"><stop stop-color="#F4BFFF"/><stop offset="1" stop-color="#DE83F0"/></linearGradient></defs></svg>