<svg xmlns="http://www.w3.org/2000/svg" width="510" height="712" fill="none"><rect width="498.5" height="700.5" x="10.75" y="10.75" fill="#fff" stroke="#000" stroke-width="1.5" rx="7.25"/><rect width="498.5" height="700.5" x=".75" y=".75" fill="#8AE1EF" stroke="#000" stroke-width="1.5" rx="7.25"/><rect width="160.5" height="160.5" x="174.75" y="160.75" fill="#fff" stroke="#000" stroke-width="1.5" rx="3.25"/><path fill="#000" d="M244.966 247.2c-4.749 0-7.595-3.026-7.595-7.214 0-4.108 2.946-7.214 7.595-7.214 4.008 0 6.353 2.124 6.734 4.609h-2.205c-.401-1.784-2.204-2.766-4.368-2.766h-.321c-3.367 0-5.351 2.365-5.351 5.371 0 3.006 1.984 5.371 5.351 5.371h.321c2.164 0 3.947-.922 4.368-2.766h2.205c-.421 2.706-2.906 4.609-6.734 4.609Zm21.392-.2h-11.764v-14.028h2.065v12.184h9.699V247Zm4.372 0h-2.064v-14.028h2.064V247Z"/><rect width="160.5" height="160.5" x="174.75" y="390.75" fill="#fff" stroke="#000" stroke-width="1.5" rx="3.25"/><path fill="#000" d="M244.966 477.2c-4.749 0-7.595-3.026-7.595-7.214 0-4.108 2.946-7.214 7.595-7.214 4.008 0 6.353 2.124 6.734 4.609h-2.205c-.401-1.784-2.204-2.766-4.368-2.766h-.321c-3.367 0-5.351 2.365-5.351 5.371 0 3.006 1.984 5.371 5.351 5.371h.321c2.164 0 3.947-.922 4.368-2.766h2.205c-.421 2.706-2.906 4.609-6.734 4.609Zm21.392-.2h-11.764v-14.028h2.065v12.184h9.699V477Zm4.372 0h-2.064v-14.028h2.064V477Z"/><rect width="160.5" height="160.5" x="164.75" y="150.75" fill="#8AE1EF" stroke="#000" stroke-width="1.5" rx="3.25"/><path fill="#000" d="M234.966 237.2c-4.749 0-7.595-3.026-7.595-7.214 0-4.108 2.946-7.214 7.595-7.214 4.008 0 6.353 2.124 6.734 4.609h-2.205c-.401-1.784-2.204-2.766-4.368-2.766h-.321c-3.367 0-5.351 2.365-5.351 5.371 0 3.006 1.984 5.371 5.351 5.371h.321c2.164 0 3.947-.922 4.368-2.766h2.205c-.421 2.706-2.906 4.609-6.734 4.609Zm21.392-.2h-11.764v-14.028h2.065v12.184h9.699V237Zm4.372 0h-2.064v-14.028h2.064V237Z"/><path stroke="#000" stroke-width="1.5" d="M164 230c-17.949 0-32.5 14.551-32.5 32.5v165c0 17.949 14.551 32.5 32.5 32.5M336 460c17.949 0 32.5-14.551 32.5-32.5v-165c0-17.949-14.551-32.5-32.5-32.5"/><rect width="160.5" height="160.5" x="164.75" y="380.75" fill="#8AE1EF" stroke="#000" stroke-width="1.5" rx="3.25"/><path fill="#000" d="M205.183 464.695v-11.723h2.064V467h-2.845l-8.157-11.723V467h-2.064v-14.028h2.846l8.156 11.723Zm10.479 2.505c-3.367 0-5.692-2.044-5.692-5.21s2.325-5.21 5.692-5.21c3.346 0 5.691 2.044 5.691 5.21s-2.345 5.21-5.691 5.21Zm-.141-1.643h.281c2.024 0 3.567-1.343 3.567-3.567s-1.543-3.567-3.567-3.567h-.281c-2.044 0-3.567 1.343-3.567 3.567s1.523 3.567 3.567 3.567Zm13.15 1.643c-3.207 0-5.451-1.964-5.451-5.21 0-3.427 2.264-5.21 5.411-5.21 1.703 0 3.226.761 3.867 1.723v-5.531h1.964V467h-1.964v-1.463c-.781 1.022-2.384 1.663-3.827 1.663Zm-.04-1.643h.28c2.024 0 3.587-1.262 3.587-3.567s-1.563-3.567-3.587-3.567h-.28c-2.004 0-3.427 1.262-3.427 3.567s1.423 3.567 3.427 3.567Zm18.848-3.988v.762h-8.497c.18 2.184 1.723 3.226 3.386 3.226h.281c1.383 0 2.365-.561 2.705-1.523h2.004c-.36 1.964-2.304 3.166-4.829 3.166-3.126 0-5.551-1.783-5.551-5.29 0-3.387 2.745-5.13 5.451-5.13 3.166 0 5.05 1.964 5.05 4.789Zm-8.397-.781h6.313c-.101-1.724-1.363-2.365-2.826-2.365h-.281c-1.743 0-2.845.902-3.206 2.365ZM269.168 467h-2.285l-1.643-3.587h-7.976L255.621 467h-2.225l6.553-14.028h2.686L269.168 467Zm-7.916-12.264-3.146 6.833h6.292l-3.146-6.833Zm11.542 16.272h-1.964V456.98h1.964v1.463c.781-1.022 2.384-1.663 3.827-1.663 3.207 0 5.451 1.964 5.451 5.21 0 3.427-2.264 5.21-5.411 5.21-1.703 0-3.226-.761-3.867-1.723v5.531Zm3.587-5.451h.28c2.004 0 3.427-1.262 3.427-3.567s-1.423-3.567-3.427-3.567h-.28c-2.024 0-3.587 1.262-3.587 3.567s1.563 3.567 3.587 3.567Zm10.171 5.451h-1.964V456.98h1.964v1.463c.781-1.022 2.384-1.663 3.827-1.663 3.207 0 5.451 1.964 5.451 5.21 0 3.427-2.264 5.21-5.411 5.21-1.703 0-3.226-.761-3.867-1.723v5.531Zm3.587-5.451h.28c2.004 0 3.427-1.262 3.427-3.567s-1.423-3.567-3.427-3.567h-.28c-2.024 0-3.587 1.262-3.587 3.567s1.563 3.567 3.587 3.567Z"/><circle cx="132" cy="351" r="15.25" fill="#fff" stroke="#000" stroke-width="1.5"/><path fill="#000" d="M132 360.975c-2.333-.583-4.25-1.937-5.75-4.062s-2.25-4.455-2.25-6.988v-5.95l8-3 8 3v5.95c0 2.533-.75 4.863-2.25 6.988s-3.417 3.479-5.75 4.062Zm0-1.55c1.917-.633 3.479-1.829 4.688-3.587 1.208-1.759 1.812-3.73 1.812-5.913v-4.9l-6.5-2.45-6.5 2.45v4.9c0 2.183.604 4.154 1.813 5.913 1.208 1.758 2.77 2.954 4.687 3.587Z"/><circle cx="369" cy="351" r="15.25" fill="#fff" stroke="#000" stroke-width="1.5"/><path fill="#000" d="M362.333 354.958v-2.083h13.334v2.083h-13.334Zm0-5.833v-2.083h13.334v2.083h-13.334Z"/></svg>