<svg xmlns="http://www.w3.org/2000/svg" width="510" height="712" fill="none"><rect width="498.5" height="700.5" x="10.75" y="10.75" fill="#fff" stroke="#000" stroke-width="1.5" rx="7.25"/><rect width="498.5" height="700.5" x=".75" y=".75" fill="#C7F182" stroke="#000" stroke-width="1.5" rx="7.25"/><path fill="#fff" d="M78 73.75h421.25v574.5H78a3.25 3.25 0 0 1-3.25-3.25V77A3.25 3.25 0 0 1 78 73.75Z"/><path fill="#0D0C22" d="M201.952 118.264c-6.717 0-11.401 4.898-11.401 11.155 0 6.254 4.684 11.154 11.401 11.154s11.402-4.898 11.402-11.154c0-6.257-4.685-11.155-11.402-11.155Zm.202 18.899c-2.741.072-4.375-2.509-4.508-7.582-.146-5.584 1.363-7.837 4.067-7.909 2.811-.075 4.401 2.134 4.545 7.684.135 5.105-1.328 7.735-4.104 7.807ZM166.139 118.633h-8.874c-.493 0-.802.31-.802.802v1.172c0 .523.184.709.646.893l.586.216c.646.247.863.586.863 1.263v12.88c0 .679-.217 1.016-.863 1.262l-.586.216c-.462.184-.646.37-.646.893v1.172c0 .493.309.802.802.802h8.874c.493 0 .802-.309.802-.802v-1.172c0-.523-.183-.709-.646-.893l-.586-.216c-.646-.246-.862-.586-.862-1.262v-12.88c0-.679.216-1.016.862-1.263l.586-.216c.463-.184.646-.37.646-.893v-1.172c-.002-.495-.309-.802-.802-.802ZM189.853 137.368l-.339-.184c-.832-.463-1.449-.802-2.248-2.065l-2.897-4.652c-.154-.246-.063-.432.216-.493 2.434-.646 3.82-2.064 3.82-4.591 0-4.774-3.722-6.75-11.671-6.75l-7.063.061c-.493.063-.74.339-.74.802v1.172c0 .523.184.709.586.862l.709.277c.586.246.802.555.802 1.172v12.88c0 .679-.216 1.016-.862 1.262l-.586.216c-.463.184-.646.37-.646.893v1.172c0 .493.309.802.802.802h8.874c.523 0 .802-.309.802-.802v-1.172c0-.523-.186-.709-.646-.893l-.586-.216c-.646-.246-.863-.586-.863-1.262v-4.776c0-.276.093-.369.31-.369.246 0 .399.183.616.555l4.222 7.642c.523.956.925 1.295 2.002 1.295h5.391c.523 0 .739-.276.739-.679v-1.109c-.004-.497-.158-.711-.744-1.05Zm-11.401-9.244h-.679a.422.422 0 0 1-.437-.437V121.8a.42.42 0 0 1 .437-.437h.711c2.397 0 3.883.869 3.883 3.278 0 2.411-1.148 3.483-3.915 3.483ZM319.709 121.714l.586-.216c.463-.184.647-.37.647-.893v-1.172c0-.493-.277-.802-.803-.802h-8.874c-.493 0-.802.309-.802.802v1.172c0 .523.184.709.646.893l.586.216c.647.246.863.586.863 1.262v3.883c0 .216-.154.37-.37.37h-6.533a.355.355 0 0 1-.369-.37v-3.883c0-.678.216-1.016.862-1.262l.586-.216c.463-.184.646-.37.646-.893v-1.172c0-.493-.276-.802-.802-.802h-8.874c-.493 0-.802.309-.802.802v1.172c0 .523.184.709.646.893l.586.216c.646.246.863.586.863 1.262v12.88c0 .679-.217 1.016-.863 1.263l-.586.216c-.462.184-.646.37-.646.893v1.172c0 .493.309.802.802.802h8.874c.523 0 .802-.309.802-.802v-1.172c0-.523-.186-.709-.646-.893l-.586-.216c-.646-.247-.862-.586-.862-1.263v-5.114c0-.217.153-.37.369-.37h6.533c.216 0 .37.153.37.37v5.114c0 .679-.216 1.016-.863 1.263l-.586.216c-.462.184-.646.37-.646.893v1.172c0 .493.309.802.802.802h8.874c.524 0 .803-.309.803-.802v-1.172c0-.523-.184-.709-.647-.893l-.586-.216c-.646-.247-.862-.586-.862-1.263v-12.88c0-.676.216-1.016.862-1.262ZM288.903 126.522l-3.76-1.109c-1.848-.553-2.834-1.202-2.834-2.281 0-1.048.986-1.713 2.497-1.725 2.118-.016 4.008.956 6.719 3.883.37.4.77.555 1.325.246l.647-.37c.555-.306.639-.764.369-1.232l-2.692-4.652c-.309-.549-.523-.925-1.172-.925h-.297c-.74 0-.833.339-1.572.339-.956 0-1.981-.369-3.729-.369-4.838 0-7.982 2.341-7.982 6.47 0 3.45 2.497 5.391 5.578 6.41l4.006 1.325c1.971.646 3.02 1.388 3.02 2.743 0 1.449-1.109 2.095-2.927 2.095-2.774 0-5.178-1.572-7.703-4.899-.4-.523-.802-.616-1.325-.369l-1.016.493c-.463.216-.593.681-.307 1.262l2.837 5.824c.255.523.616.739 1.048.739H280c.679 0 1.14-.462 1.758-.462 1.139 0 2.281.555 4.838.555 5.115 0 8.751-2.373 8.751-6.933-.004-4.224-2.808-6.012-6.444-7.058ZM273.3 118.633h-8.874c-.493 0-.802.31-.802.802v1.172c0 .523.183.709.646.893l.586.216c.646.247.862.586.862 1.263v12.88c0 .679-.216 1.016-.862 1.262l-.586.216c-.463.184-.646.37-.646.893v1.172c0 .493.309.802.802.802h8.874c.493 0 .802-.309.802-.802v-1.172c0-.523-.184-.709-.646-.893l-.586-.216c-.647-.246-.863-.586-.863-1.262v-12.88c0-.679.216-1.016.863-1.263l.586-.216c.462-.184.646-.37.646-.893v-1.172c-.002-.495-.309-.802-.802-.802ZM259.915 118.724c-.204-.356-.399-.586-.862-.586h-.614c-.339 0-.528.079-.783.279-.279.214-.521.214-1.126.214h-11.475c-.493 0-.803.309-.803.802v1.172c0 .523.184.709.647.893l.586.216c.646.246.862.586.862 1.262v12.88c0 .679-.216 1.016-.862 1.263l-.586.216c-.463.184-.647.37-.647.893v1.172c0 .492.31.802.803.802h9.306c.523 0 .802-.31.802-.802v-1.172c0-.523-.153-.77-.646-.893l-1.016-.277c-.679-.183-.863-.523-.863-1.202v-5.424c0-.216.154-.369.37-.369h.523c2.404 0 3.883 1.232 5.392 2.99.216.246.493.339.862.153l.77-.4c.339-.184.465-.481.309-.802l-2.388-4.901c-.137-.281-.307-.449-.66-.449h-.379c-.26 0-.425.07-.663.261a1.269 1.269 0 0 1-.802.283h-2.964a.355.355 0 0 1-.37-.369v-3.943c0-1.109.433-1.542 1.602-1.542 2.004 0 4.745 1.758 6.347 3.36.277.276.616.339.986.123l.832-.523c.277-.184.465-.477.277-.802l-2.767-4.778ZM235.834 137.614l-.709-.246c-.646-.217-.863-.586-.863-1.263v-13.403c0-.679.217-1.018.863-1.262l.586-.217c.462-.183.646-.369.646-.892v-.893c0-.493-.277-.802-.802-.802h-5.917c-.493 0-.802.309-.802.802v.893c0 .523.186.709.646.892l.586.217c.647.246.863.585.863 1.262v7.549a.23.23 0 0 1-.407.147l-7.865-11.023c-.196-.298-.396-.495-.6-.593-.205-.097-.488-.146-.846-.146h-5.871c-.493 0-.802.309-.802.802v1.172c0 .523.186.709.646.892l.586.217c.647.246.863.585.863 1.262v13.154c0 .679-.216 1.016-.863 1.263l-.586.216c-.462.184-.646.37-.646.893v.893c0 .492.309.802.802.802h5.917c.523 0 .802-.31.802-.802v-.893c0-.523-.184-.709-.646-.893l-.586-.216c-.646-.247-.863-.586-.863-1.263v-8.495a.23.23 0 0 1 .407-.146l8.709 11.968c.196.298.396.496.6.593.205.098.488.147.847.147h5.149c.523 0 .802-.31.802-.802v-.893c0-.523-.183-.739-.646-.893ZM150.511 129.109l-5.719-9.906a.788.788 0 0 0-.683-.395h-11.444a.788.788 0 0 0-.683.395l-4.915 8.514a.352.352 0 0 1-.656-.177v-3.294a5.442 5.442 0 0 0-5.435-5.436h-4.648a.79.79 0 0 0-.79.79v4.648a5.332 5.332 0 0 0 3.289 4.938.35.35 0 0 1 0 .646 5.315 5.315 0 0 0-3.289 4.932v4.647c0 .435.353.791.79.791h4.648a5.442 5.442 0 0 0 5.435-5.436v-3.295c0-.158.107-.297.261-.339a.36.36 0 0 1 .395.163l4.915 8.514a.792.792 0 0 0 .683.395h11.441a.79.79 0 0 0 .684-.395l5.719-9.907a.782.782 0 0 0 .105-.393.773.773 0 0 0-.103-.4Zm-12.038 4.55c-2.232 0-4.048-1.864-4.048-4.154s1.816-4.155 4.048-4.155 4.048 1.865 4.048 4.155-1.816 4.154-4.048 4.154Z"/><rect width="287.922" height="49.857" x="98.943" y="184.85" fill="#F3F3F4" rx="4.986"/><g clip-path="url(#a)"><path fill="#0D0C22" d="m133.842 201.913 6.232 5.609v9.735h-2.492v-7.479h-7.479v7.479h-2.493v-9.735l6.232-5.609Zm0-3.352-12.464 11.217h3.739v9.972h7.479v-7.479h2.493v7.479h7.478v-9.972h3.739l-12.464-11.217Z"/></g><path fill="#0D0C22" d="M182.527 215.068h-1.989l-1.431-3.124h-6.945l-1.431 3.124h-1.937l5.706-12.215h2.339l5.688 12.215Zm-6.892-10.679-2.74 5.95h5.479l-2.739-5.95Zm12.513 10.853c-3.228 0-4.851-1.867-4.851-4.537 0-2.547 1.78-4.537 4.851-4.537 2.391 0 4.083 1.17 4.345 3.054h-1.745c-.209-1.029-1.187-1.623-2.478-1.623h-.244c-2.024 0-3.001 1.466-3.001 3.106 0 1.641.977 3.106 3.001 3.106h.244c1.291 0 2.251-.698 2.478-1.622h1.745c-.262 1.762-1.954 3.053-4.345 3.053Zm10.77 0c-3.228 0-4.851-1.867-4.851-4.537 0-2.547 1.78-4.537 4.851-4.537 2.39 0 4.083 1.17 4.345 3.054h-1.745c-.21-1.029-1.187-1.623-2.478-1.623h-.244c-2.024 0-3.002 1.466-3.002 3.106 0 1.641.978 3.106 3.002 3.106h.244c1.291 0 2.251-.698 2.478-1.622h1.745c-.262 1.762-1.955 3.053-4.345 3.053Zm10.857 0c-2.932 0-4.956-1.78-4.956-4.537 0-2.757 2.024-4.537 4.956-4.537 2.914 0 4.956 1.78 4.956 4.537 0 2.757-2.042 4.537-4.956 4.537Zm-.122-1.431h.244c1.762 0 3.106-1.169 3.106-3.106 0-1.937-1.344-3.106-3.106-3.106h-.244c-1.78 0-3.106 1.169-3.106 3.106 0 1.937 1.326 3.106 3.106 3.106Zm10.786 1.431c-2.373 0-3.629-1.361-3.629-3.455v-5.444h1.71v5.043c0 1.57.646 2.425 2.129 2.425h.244c1.501 0 2.844-1.116 2.844-2.983v-4.485h1.711v8.725h-1.711v-1.588c-.54.977-1.605 1.762-3.298 1.762Zm9.484-.174h-1.71v-8.725h1.71v1.448c.628-.925 1.692-1.623 3.35-1.623 2.391 0 3.734 1.519 3.734 3.595v5.305h-1.71v-4.886c0-1.536-.68-2.583-2.198-2.583h-.245c-1.518 0-2.931 1.222-2.931 3.072v4.397Zm15.694 0h-2.984c-1.221 0-1.919-.698-1.919-1.92v-5.339h-2.251v-1.466h2.251v-2.827h1.71v2.827h2.809v1.466h-2.809v5.043c0 .523.174.698.698.698h2.495v1.518Zm5.324.174c-2.652 0-4.1-1.116-4.205-2.879h1.745c.087.995 1.117 1.448 2.338 1.448h.244c1.344 0 2.182-.314 2.182-1.081 0-.541-.384-.873-1.71-1.135l-1.449-.279c-1.815-.349-2.931-.977-2.931-2.478 0-1.727 1.692-2.67 3.786-2.67 2.722 0 4.066 1.135 4.206 2.88h-1.745c-.088-.803-.873-1.449-2.339-1.449h-.244c-1.256 0-1.937.454-1.937 1.1 0 .506.314.785 1.728 1.064l1.361.262c1.832.349 3.001 1.047 3.001 2.6 0 1.57-1.518 2.617-4.031 2.617Z"/><rect width="287.922" height="49.857" x="98.943" y="364.334" fill="#fff" rx="4.986"/><path fill="#7F7F7F" d="M182.527 394.552h-1.989l-1.431-3.123h-6.945l-1.431 3.123h-1.937l5.706-12.215h2.339l5.688 12.215Zm-6.892-10.679-2.74 5.95h5.479l-2.739-5.95Zm12.408 10.854c-2.792 0-4.746-1.71-4.746-4.537 0-2.984 1.972-4.537 4.711-4.537 1.484 0 2.81.663 3.368 1.501v-4.817h1.71v12.215h-1.71v-1.274c-.68.89-2.076 1.449-3.333 1.449Zm-.035-1.431h.245c1.762 0 3.123-1.099 3.123-3.106 0-2.007-1.361-3.106-3.123-3.106h-.245c-1.745 0-2.983 1.099-2.983 3.106 0 2.007 1.238 3.106 2.983 3.106Zm12.015 1.431c-2.792 0-4.746-1.71-4.746-4.537 0-2.984 1.972-4.537 4.711-4.537 1.483 0 2.81.663 3.368 1.501v-4.817h1.71v12.215h-1.71v-1.274c-.681.89-2.077 1.449-3.333 1.449Zm-.035-1.431h.244c1.763 0 3.124-1.099 3.124-3.106 0-2.007-1.361-3.106-3.124-3.106h-.244c-1.745 0-2.984 1.099-2.984 3.106 0 2.007 1.239 3.106 2.984 3.106Zm9.537 1.256h-1.71v-8.725h1.623v1.833c.453-1.222 1.204-1.833 2.774-1.833h1.344v1.641h-1.466c-1.64 0-2.565.924-2.565 2.704v4.38Zm14.1-4.729v.663h-7.398c.157 1.902 1.5 2.81 2.949 2.81h.244c1.204 0 2.059-.489 2.356-1.326h1.745c-.314 1.71-2.007 2.757-4.206 2.757-2.722 0-4.833-1.553-4.833-4.607 0-2.949 2.39-4.467 4.746-4.467 2.757 0 4.397 1.71 4.397 4.17Zm-7.311-.68h5.497c-.088-1.501-1.187-2.059-2.461-2.059h-.244c-1.518 0-2.478.785-2.792 2.059Zm13.002 5.584c-2.652 0-4.1-1.117-4.205-2.879h1.745c.087.994 1.117 1.448 2.338 1.448h.245c1.343 0 2.181-.314 2.181-1.082 0-.541-.384-.873-1.71-1.134l-1.449-.279c-1.814-.349-2.931-.978-2.931-2.478 0-1.728 1.693-2.67 3.786-2.67 2.723 0 4.066 1.134 4.206 2.879h-1.745c-.087-.803-.873-1.448-2.338-1.448h-.245c-1.256 0-1.937.453-1.937 1.099 0 .506.315.785 1.728 1.065l1.361.261c1.832.349 3.001 1.047 3.001 2.6 0 1.571-1.518 2.618-4.031 2.618Zm9.799 0c-2.652 0-4.101-1.117-4.205-2.879h1.745c.087.994 1.116 1.448 2.338 1.448h.244c1.344 0 2.181-.314 2.181-1.082 0-.541-.384-.873-1.71-1.134l-1.448-.279c-1.815-.349-2.932-.978-2.932-2.478 0-1.728 1.693-2.67 3.787-2.67 2.722 0 4.066 1.134 4.205 2.879h-1.745c-.087-.803-.872-1.448-2.338-1.448h-.244c-1.257 0-1.937.453-1.937 1.099 0 .506.314.785 1.727 1.065l1.362.261c1.832.349 3.001 1.047 3.001 2.6 0 1.571-1.518 2.618-4.031 2.618Zm18.374-.175h-6.98v-12.215h6.771c2.076 0 3.682 1.222 3.682 3.229 0 1.396-.89 2.39-1.937 2.774 1.256.279 2.234 1.309 2.234 2.897 0 2.024-1.693 3.315-3.77 3.315Zm-5.182-10.609v3.612h4.711c1.326 0 2.129-.681 2.129-1.815s-.803-1.797-2.129-1.797h-4.711Zm0 5.217v3.787h4.833c1.414 0 2.304-.681 2.304-1.955 0-1.169-.89-1.832-2.304-1.832h-4.833Zm15.748 5.567c-2.932 0-4.956-1.78-4.956-4.537 0-2.757 2.024-4.537 4.956-4.537 2.914 0 4.955 1.78 4.955 4.537 0 2.757-2.041 4.537-4.955 4.537Zm-.123-1.431h.245c1.762 0 3.106-1.169 3.106-3.106 0-1.937-1.344-3.106-3.106-3.106h-.245c-1.78 0-3.106 1.169-3.106 3.106 0 1.937 1.326 3.106 3.106 3.106Zm11.642 1.431c-2.931 0-4.956-1.78-4.956-4.537 0-2.757 2.025-4.537 4.956-4.537 2.914 0 4.956 1.78 4.956 4.537 0 2.757-2.042 4.537-4.956 4.537Zm-.122-1.431h.244c1.763 0 3.106-1.169 3.106-3.106 0-1.937-1.343-3.106-3.106-3.106h-.244c-1.78 0-3.106 1.169-3.106 3.106 0 1.937 1.326 3.106 3.106 3.106Zm16.458 1.256h-2.286l-3.752-4.1-1.448 1.151v2.949h-1.71v-12.215h1.71v7.417l4.816-3.927h2.495l-4.571 3.612 4.746 5.113Z"/><g clip-path="url(#b)"><path fill="#0D0C22" d="M145.06 380.538c-1.384-.436-2.905-.623-4.363-.623-2.43 0-5.048.498-6.855 1.869-1.807-1.371-4.425-1.869-6.855-1.869-2.431 0-5.048.498-6.856 1.869v18.26c0 .312.312.623.624.623.124 0 .187-.062.311-.062 1.683-.81 4.113-1.371 5.921-1.371 2.43 0 5.048.499 6.855 1.87 1.683-1.06 4.736-1.87 6.855-1.87 2.057 0 4.176.374 5.921 1.309.124.062.187.062.311.062.312 0 .623-.312.623-.623v-18.198c-.747-.561-1.558-.935-2.492-1.246Zm0 16.826c-1.371-.436-2.867-.623-4.363-.623-2.119 0-5.172.81-6.855 1.87v-14.334c1.683-1.059 4.736-1.87 6.855-1.87 1.496 0 2.992.187 4.363.624v14.333Z"/></g><rect width="287.922" height="49.857" x="98.943" y="424.162" fill="#fff" rx="4.986"/><path fill="#7F7F7F" d="m174.989 447.627 3.874-5.462h2.146l-5.148 7.067v5.148h-1.797v-5.148l-5.148-7.067h2.164l3.909 5.462Zm10.043 6.927c-2.932 0-4.956-1.78-4.956-4.537 0-2.757 2.024-4.537 4.956-4.537 2.914 0 4.955 1.78 4.955 4.537 0 2.757-2.041 4.537-4.955 4.537Zm-.123-1.431h.245c1.762 0 3.106-1.169 3.106-3.106 0-1.937-1.344-3.106-3.106-3.106h-.245c-1.779 0-3.106 1.169-3.106 3.106 0 1.937 1.327 3.106 3.106 3.106Zm10.787 1.431c-2.373 0-3.629-1.361-3.629-3.455v-5.444h1.71v5.043c0 1.57.645 2.425 2.129 2.425h.244c1.501 0 2.844-1.116 2.844-2.984v-4.484h1.71v8.725h-1.71v-1.588c-.541.977-1.605 1.762-3.298 1.762Zm9.483-.174h-1.71v-8.725h1.623v1.832c.454-1.221 1.204-1.832 2.775-1.832h1.343v1.64h-1.465c-1.641 0-2.566.925-2.566 2.705v4.38Zm19.96-2.007v-10.208h1.797v12.215h-2.478l-7.102-10.208v10.208h-1.797v-12.215h2.478l7.102 10.208Zm9.124 2.181c-2.932 0-4.956-1.78-4.956-4.537 0-2.757 2.024-4.537 4.956-4.537 2.914 0 4.955 1.78 4.955 4.537 0 2.757-2.041 4.537-4.955 4.537Zm-.123-1.431h.245c1.762 0 3.106-1.169 3.106-3.106 0-1.937-1.344-3.106-3.106-3.106h-.245c-1.779 0-3.106 1.169-3.106 3.106 0 1.937 1.327 3.106 3.106 3.106Zm11.45 1.431c-2.792 0-4.746-1.71-4.746-4.537 0-2.984 1.972-4.537 4.711-4.537 1.484 0 2.81.663 3.368 1.501v-4.816h1.71v12.215h-1.71v-1.274c-.68.89-2.076 1.448-3.333 1.448Zm-.035-1.431h.245c1.762 0 3.123-1.099 3.123-3.106 0-2.006-1.361-3.106-3.123-3.106h-.245c-1.745 0-2.984 1.1-2.984 3.106 0 2.007 1.239 3.106 2.984 3.106Zm16.412-3.472v.663h-7.398c.157 1.902 1.5 2.809 2.949 2.809h.244c1.204 0 2.059-.488 2.356-1.326h1.745c-.315 1.71-2.007 2.757-4.206 2.757-2.722 0-4.833-1.553-4.833-4.606 0-2.95 2.39-4.468 4.746-4.468 2.757 0 4.397 1.71 4.397 4.171Zm-7.311-.681h5.496c-.087-1.5-1.186-2.059-2.46-2.059h-.244c-1.518 0-2.478.785-2.792 2.059Z"/><g fill="#0D0C22" clip-path="url(#c)"><path d="M122.624 439.119a1.25 1.25 0 0 1 1.247-1.247h2.492v-2.492h-2.492a3.735 3.735 0 0 0-3.74 3.739v2.493h2.493v-2.493ZM122.624 459.061v-2.492h-2.493v2.492a3.736 3.736 0 0 0 3.74 3.74h2.492v-2.493h-2.492a1.25 1.25 0 0 1-1.247-1.247ZM143.813 435.38h-2.492v2.492h2.492a1.25 1.25 0 0 1 1.247 1.247v2.493h2.493v-2.493a3.735 3.735 0 0 0-3.74-3.739ZM145.06 459.061a1.25 1.25 0 0 1-1.247 1.247h-2.492v2.493h2.492a3.736 3.736 0 0 0 3.74-3.74v-2.492h-2.493v2.492ZM142.567 452.667v-7.154c0-.897-.474-1.72-1.246-2.156l-6.232-3.59a2.471 2.471 0 0 0-2.493 0l-6.232 3.577a2.503 2.503 0 0 0-1.247 2.169v7.154c0 .898.474 1.72 1.247 2.157l6.232 3.589c.386.225.81.337 1.246.337.436 0 .86-.112 1.247-.337l6.232-3.589a2.47 2.47 0 0 0 1.246-2.157Zm-9.971 2.867-4.986-2.867v-5.771l4.986 2.905v5.733Zm1.246-7.89-4.936-2.879 4.936-2.842 4.936 2.842-4.936 2.879Zm6.232 5.023-4.985 2.867v-5.733l4.985-2.905v5.771Z"/></g><rect width="287.922" height="42.957" x="98.943" y="519.635" fill="#ECFFCE" rx="6.232"/><path fill="#6A991C" d="m163.199 544.299 2.304-10.4h1.814l-2.966 12.215h-2.356l-2.443-10.208-2.443 10.208h-2.355l-2.967-12.215h1.815l2.391 10.313 2.495-10.313h2.286l2.425 10.4Zm7.75 1.989c-1.657 0-2.879-1.099-2.879-2.582 0-1.989 1.763-2.583 3.176-2.705l2.408-.192v-.279c0-1.222-.698-1.92-1.815-1.92h-.139c-.908 0-1.693.437-1.798 1.309h-1.657c.104-1.605 1.553-2.705 3.524-2.705 2.321 0 3.543 1.536 3.543 3.316v3.664c0 .524 0 1.309.087 1.92h-1.57c-.088-.436-.088-1.309-.088-1.396-.349.785-1.396 1.57-2.792 1.57Zm.192-1.396h.14c1.064 0 2.373-.872 2.373-1.919v-.89l-2.181.174c-1.012.088-1.745.576-1.745 1.379 0 .715.593 1.256 1.413 1.256Zm8.363 1.222h-1.657v-12.215h1.657v12.215Zm4.278 0h-1.658v-12.215h1.658v12.215Zm6.214.174c-2.164 0-4.118-1.5-4.118-4.554 0-3.019 2.006-4.52 4.066-4.52 2.268 0 3.699 1.571 3.699 3.839v.96h-6.108c.105 1.989 1.379 2.879 2.443 2.879h.14c.855 0 1.675-.436 1.85-1.361h1.657c-.314 1.763-1.832 2.757-3.629 2.757Zm-2.356-5.584h4.345c-.07-1.518-.977-2.094-1.972-2.094h-.139c-.908 0-1.92.541-2.234 2.094Zm12.935 5.41h-2.094c-1.221 0-1.919-.698-1.919-1.92v-5.374h-1.92v-1.431h1.92v-2.827h1.658v2.827h2.094v1.431h-2.094v5.113c0 .523.174.698.698.698h1.657v1.483Zm10.172.174c-2.879 0-4.712-1.396-4.799-4.1h1.745c0 1.657 1.291 2.53 3.124 2.53h.174c1.64 0 2.53-.82 2.53-1.832 0-.995-.628-1.571-1.919-1.833l-1.954-.401c-1.955-.401-3.089-1.501-3.089-3.438 0-1.919 1.727-3.489 4.362-3.489 2.705 0 4.433 1.483 4.52 3.838h-1.745c-.087-1.395-1.204-2.268-2.687-2.268h-.175c-1.518 0-2.53.82-2.53 1.902 0 .942.646 1.501 1.675 1.71l1.954.384c2.112.419 3.333 1.536 3.333 3.525 0 2.146-1.814 3.472-4.519 3.472Zm11.726-.174h-2.094c-1.222 0-1.92-.698-1.92-1.92v-5.374h-1.919v-1.431h1.919v-2.827h1.658v2.827h2.094v1.431h-2.094v5.113c0 .523.175.698.698.698h1.658v1.483Zm4.149.174c-1.658 0-2.88-1.099-2.88-2.582 0-1.989 1.763-2.583 3.176-2.705l2.408-.192v-.279c0-1.222-.698-1.92-1.814-1.92h-.14c-.907 0-1.693.437-1.797 1.309h-1.658c.105-1.605 1.553-2.705 3.525-2.705 2.321 0 3.542 1.536 3.542 3.316v3.664c0 .524 0 1.309.087 1.92h-1.57c-.087-.436-.087-1.309-.087-1.396-.349.785-1.396 1.57-2.792 1.57Zm.192-1.396h.139c1.065 0 2.373-.872 2.373-1.919v-.89l-2.181.174c-1.012.088-1.745.576-1.745 1.379 0 .715.594 1.256 1.414 1.256Zm11.524 1.222h-2.094c-1.222 0-1.92-.698-1.92-1.92v-5.374h-1.919v-1.431h1.919v-2.827h1.658v2.827h2.094v1.431h-2.094v5.113c0 .523.175.698.698.698h1.658v1.483Zm4.672.174c-1.954 0-2.966-1.308-2.966-3.141v-5.758h1.657v5.409c0 1.396.576 2.094 1.763 2.094h.14c1.116 0 2.198-1.047 2.198-2.792v-4.711h1.658v8.725h-1.658v-1.658c-.331.96-1.274 1.832-2.792 1.832Zm9.987 0c-2.321 0-3.577-1.221-3.577-2.879h1.657c.088 1.047.908 1.483 1.937 1.483h.14c.907 0 1.623-.436 1.623-1.134 0-.558-.314-.942-1.187-1.117l-1.274-.244c-1.413-.279-2.547-1.012-2.547-2.495 0-1.745 1.553-2.688 3.298-2.688 2.286 0 3.455 1.222 3.455 2.88h-1.658c-.087-.786-.576-1.484-1.71-1.484h-.14c-.977 0-1.588.507-1.588 1.117 0 .611.349.943 1.222 1.117l1.379.279c1.326.262 2.408.977 2.408 2.548 0 1.57-1.414 2.617-3.438 2.617Zm5.554-1.116c0-.431.105-.733.314-.908.209-.174.46-.262.75-.262.303 0 .559.088.768.262.221.175.332.477.332.908 0 .418-.111.721-.332.907a1.114 1.114 0 0 1-.768.279c-.29 0-.541-.093-.75-.279-.209-.186-.314-.489-.314-.907Zm0-7.469c0-.442.105-.75.314-.925.209-.174.46-.262.75-.262.303 0 .559.088.768.262.221.175.332.483.332.925 0 .419-.111.721-.332.907a1.11 1.11 0 0 1-.768.28c-.29 0-.541-.093-.75-.28-.209-.186-.314-.488-.314-.907Zm13.1 8.585c-2.879 0-4.712-1.396-4.799-4.1h1.745c0 1.657 1.291 2.53 3.124 2.53h.174c1.64 0 2.53-.82 2.53-1.832 0-.995-.628-1.571-1.919-1.833l-1.955-.401c-1.954-.401-3.088-1.501-3.088-3.438 0-1.919 1.727-3.489 4.362-3.489 2.705 0 4.433 1.483 4.52 3.838H274.6c-.087-1.395-1.204-2.268-2.687-2.268h-.175c-1.518 0-2.53.82-2.53 1.902 0 .942.645 1.501 1.675 1.71l1.954.384c2.112.419 3.333 1.536 3.333 3.525 0 2.146-1.814 3.472-4.519 3.472Zm12.947-8.899h1.71l-3.577 8.533v1.588c0 1.221-.611 1.832-1.832 1.832h-2.879v-1.483h2.443c.523 0 .698-.175.698-.698v-1.222l-3.665-8.55h1.763l2.722 6.439 2.617-6.439Zm4.871 8.725h-1.658v-8.725h1.658v1.221c.523-.785 1.396-1.396 2.792-1.396 2.007 0 3.141 1.222 3.141 3.054v5.846h-1.658v-5.497c0-1.221-.523-2.007-1.762-2.007h-.14c-1.239 0-2.373.96-2.373 2.618v4.886Zm12.129.174c-2.687 0-4.188-1.971-4.188-4.537 0-2.565 1.501-4.537 4.188-4.537 1.989 0 3.403 1.17 3.577 3.054h-1.658c-.157-.96-.855-1.658-1.849-1.658h-.14c-1.675 0-2.46 1.484-2.46 3.141 0 1.658.785 3.141 2.46 3.141h.14c.994 0 1.692-.698 1.849-1.657h1.658c-.174 1.884-1.588 3.053-3.577 3.053Zm9.217 0c-2.163 0-4.118-1.5-4.118-4.554 0-3.019 2.007-4.52 4.066-4.52 2.269 0 3.699 1.571 3.699 3.839v.96h-6.107c.105 1.989 1.378 2.879 2.443 2.879h.14c.855 0 1.675-.436 1.849-1.361h1.658c-.314 1.763-1.832 2.757-3.63 2.757Zm-2.355-5.584h4.345c-.07-1.518-.978-2.094-1.972-2.094h-.14c-.907 0-1.919.541-2.233 2.094Zm11.396 5.584c-2.181 0-3.752-1.657-3.752-4.537 0-2.879 1.745-4.537 3.926-4.537 1.222 0 2.269.611 2.705 1.396v-4.711h1.658v12.215h-1.658v-1.222c-.436.786-1.658 1.396-2.879 1.396Zm.279-1.396h.14c1.239 0 2.46-1.047 2.46-3.141 0-2.094-1.221-3.141-2.46-3.141h-.14c-1.326 0-2.373 1.047-2.373 3.141 0 2.094 1.047 3.141 2.373 3.141Z"/><rect width="287.922" height="42.378" x="98.943" y="580.537" fill="#F3F3F4" rx="6.232"/><g filter="url(#d)"><rect width="137.106" height="32.407" x="103.928" y="585.523" fill="#fff" rx="2.493"/></g><path fill="#000" d="M175.221 603.016h-7.14v-9.8h1.4v8.54h5.74v1.26Zm2.691-8.26h-1.47v-1.54h1.47v1.54Zm-.07 8.26h-1.33v-7h1.33v7Zm4.803 3.08c-1.96 0-3.108-.91-3.248-2.17h1.33c.14.7.896 1.05 1.848 1.05h.14c1.19 0 2.03-.63 2.03-2.1v-.98c-.35.56-1.05 1.12-2.1 1.12-1.61 0-3.108-1.12-3.108-3.57 0-2.45 1.456-3.57 3.108-3.57 1.05 0 1.82.56 2.1 1.12v-.98h1.33v7c0 1.75-1.26 3.08-3.43 3.08Zm.056-4.2h.112c.966 0 1.932-.91 1.932-2.45s-.896-2.45-1.862-2.45h-.112c-.994 0-1.904.7-1.904 2.45 0 1.75.84 2.45 1.834 2.45Zm6.803 1.12h-1.33v-9.8h1.33v3.78c.42-.63 1.12-1.12 2.24-1.12 1.61 0 2.52.98 2.52 2.45v4.69h-1.33v-4.41c0-.98-.42-1.61-1.414-1.61h-.112c-.994 0-1.904.77-1.904 2.1v3.92Zm10.684 0h-1.68c-.98 0-1.54-.56-1.54-1.54v-4.312h-1.54v-1.148h1.54v-2.268h1.33v2.268h1.68v1.148h-1.68v4.102c0 .42.14.56.56.56h1.33v1.19Z"/><path fill="#7F7F7F" d="M314.847 603.016h-3.5v-9.8h3.5c2.73 0 4.55 1.82 4.55 4.9s-1.82 4.9-4.55 4.9Zm-2.1-8.54v7.28h1.96c2.1 0 3.29-1.26 3.29-3.64s-1.19-3.64-3.29-3.64h-1.96Zm10.288 8.68c-1.33 0-2.31-.882-2.31-2.072 0-1.596 1.414-2.072 2.548-2.17l1.932-.154v-.224c0-.98-.56-1.54-1.456-1.54h-.112c-.728 0-1.358.35-1.442 1.05h-1.33c.084-1.288 1.246-2.17 2.828-2.17 1.862 0 2.842 1.232 2.842 2.66v2.94c0 .42 0 1.05.07 1.54h-1.26c-.07-.35-.07-1.05-.07-1.12-.28.63-1.12 1.26-2.24 1.26Zm.154-1.12h.112c.854 0 1.904-.7 1.904-1.54v-.714l-1.75.14c-.812.07-1.4.462-1.4 1.106 0 .574.476 1.008 1.134 1.008Zm6.71.98h-1.33v-7h1.26v1.54c.28-1.05 1.12-1.61 2.03-1.61h.63v1.288h-.56c-1.26 0-2.03.84-2.03 2.24v3.542Zm5.263 0h-1.33v-9.8h1.33v5.824l3.08-3.024h1.75l-2.912 2.786 3.052 4.214h-1.638l-2.366-3.304-.966.938v2.366Z"/><g clip-path="url(#e)"><path fill="#7F7F7F" d="M292.137 595.182a6.544 6.544 0 1 0 6.471 5.555 3.928 3.928 0 1 1-5.482-5.482 7.295 7.295 0 0 0-.989-.073Z"/></g><g clip-path="url(#f)"><path fill="#0D0C22" d="M148.799 598.091a3.636 3.636 0 1 0 .001 7.271 3.636 3.636 0 0 0-.001-7.271Zm-7.271 4.362h1.454a.73.73 0 0 0 .728-.727.73.73 0 0 0-.728-.727h-1.454c-.4 0-.727.327-.727.727 0 .4.327.727.727.727Zm13.088 0h1.454c.4 0 .727-.327.727-.727 0-.4-.327-.727-.727-.727h-1.454c-.4 0-.727.327-.727.727 0 .4.327.727.727.727Zm-6.544-7.998v1.454c0 .4.327.727.727.727.4 0 .727-.327.727-.727v-1.454c0-.4-.327-.727-.727-.727-.4 0-.727.327-.727.727Zm0 13.088v1.454c0 .4.327.727.727.727.4 0 .727-.327.727-.727v-1.454c0-.4-.327-.727-.727-.727-.4 0-.727.327-.727.727Zm-3.643-11.212a.725.725 0 0 0-1.025 1.025l.771.771a.723.723 0 0 0 1.025 0c.276-.284.284-.749 0-1.025l-.771-.771Zm8.994 8.994a.725.725 0 0 0-1.025 1.025l.771.771a.725.725 0 0 0 1.025-1.025l-.771-.771Zm.771-7.969a.725.725 0 0 0-1.025-1.025l-.771.771a.725.725 0 0 0 0 1.025c.284.276.749.284 1.025 0l.771-.771Zm-8.994 8.994a.723.723 0 0 0 0-1.025.723.723 0 0 0-1.025 0l-.771.771a.725.725 0 0 0 0 1.025.731.731 0 0 0 1.025 0l.771-.771Z"/></g><rect width="287.922" height="49.857" x="98.943" y="244.679" fill="#fff" rx="4.986"/><path fill="#7F7F7F" d="M175.198 275.071c-3.542 0-5.723-1.378-5.776-4.1h1.92c.07 1.657 1.483 2.495 3.699 2.495h.28c2.285 0 3.21-.75 3.21-1.867 0-.925-.75-1.518-2.67-1.833l-1.902-.314c-2.669-.436-3.856-1.343-3.856-3.49 0-1.727 1.518-3.455 5.008-3.455 3.281 0 5.235 1.466 5.479 3.839h-1.919c-.21-1.431-1.466-2.233-3.42-2.233h-.279c-1.955 0-3.054.785-3.054 1.797s.75 1.501 2.373 1.763l1.954.314c2.74.436 4.101 1.605 4.101 3.472 0 2.321-1.815 3.612-5.148 3.612Zm16.186-4.903v.663h-7.399c.157 1.902 1.501 2.809 2.949 2.809h.245c1.204 0 2.059-.488 2.355-1.326h1.745c-.314 1.71-2.006 2.757-4.205 2.757-2.722 0-4.834-1.553-4.834-4.607 0-2.949 2.391-4.467 4.747-4.467 2.757 0 4.397 1.71 4.397 4.171Zm-7.311-.681h5.496c-.087-1.5-1.186-2.059-2.46-2.059h-.244c-1.518 0-2.478.785-2.792 2.059Zm11.24 5.41h-1.71v-8.725h1.71v1.448c.628-.925 1.692-1.623 3.35-1.623 2.391 0 3.734 1.518 3.734 3.595v5.305h-1.71v-4.886c0-1.536-.68-2.583-2.198-2.583h-.245c-1.518 0-2.931 1.222-2.931 3.071v4.398Zm13.929.174c-2.792 0-4.746-1.71-4.746-4.537 0-2.984 1.972-4.537 4.711-4.537 1.483 0 2.81.663 3.368 1.501v-4.816h1.71v12.215h-1.71v-1.274c-.681.89-2.076 1.448-3.333 1.448Zm-.035-1.431h.245c1.762 0 3.123-1.099 3.123-3.106 0-2.006-1.361-3.106-3.123-3.106h-.245c-1.745 0-2.984 1.1-2.984 3.106 0 2.007 1.239 3.106 2.984 3.106Zm15.618.402a14.018 14.018 0 0 1-1.868-.157c-.605-.105-1.093-.245-1.465-.419v-1.483c.395.186.901.349 1.518.488.616.14 1.221.215 1.815.227v-3.525a12.394 12.394 0 0 1-1.501-.523 4.16 4.16 0 0 1-1.03-.663 2.512 2.512 0 0 1-.61-.838 3.038 3.038 0 0 1-.192-1.117c0-.57.133-1.058.401-1.466.279-.407.669-.727 1.169-.959.5-.245 1.088-.384 1.763-.419v-1.536h1.116v1.518a7.336 7.336 0 0 1 1.675.21c.512.116.978.262 1.396.436l-.471 1.291a8.223 8.223 0 0 0-1.239-.384 7.583 7.583 0 0 0-1.361-.226v3.507c.768.221 1.408.46 1.92.715.512.245.896.553 1.151.925.268.361.402.832.402 1.414 0 .814-.303 1.477-.908 1.989-.604.5-1.46.809-2.565.925v1.937h-1.116v-1.867Zm1.116-1.431c.687-.07 1.187-.227 1.501-.471.314-.256.471-.582.471-.978 0-.29-.058-.529-.174-.715-.117-.198-.32-.366-.611-.506-.279-.14-.675-.273-1.187-.401v3.071Zm-1.116-8.079c-.419.023-.762.098-1.03.226a1.42 1.42 0 0 0-.611.472 1.22 1.22 0 0 0-.192.68c0 .303.053.564.157.785.117.21.309.39.576.541.268.14.634.268 1.1.384v-3.088Zm9.061 10.365h-1.798v-12.215h1.798v12.215Zm5.18 0h-1.797v-12.215h6.631c2.338 0 3.996 1.413 3.996 3.333 0 1.57-.96 2.635-1.955 2.984 1.274 0 1.71.576 1.71 1.797v4.101h-1.797v-3.665c0-.959-.279-1.221-1.239-1.221h-5.549v4.886Zm0-10.61v4.118h4.572c1.535 0 2.443-.872 2.443-2.094 0-1.308-.908-2.024-2.443-2.024h-4.572Zm17.837 10.784c-3.856 0-6.753-2.373-6.753-6.282 0-3.908 2.897-6.282 6.753-6.282 3.857 0 6.736 2.374 6.736 6.282 0 3.909-2.879 6.282-6.736 6.282Zm-.139-1.605h.279c2.6 0 4.781-1.71 4.781-4.677 0-2.966-2.181-4.676-4.781-4.676h-.279c-2.6 0-4.799 1.71-4.799 4.676 0 2.967 2.199 4.677 4.799 4.677Zm19.054-.576v-10.208h1.797v12.215h-2.477l-7.103-10.208v10.208h-1.797v-12.215h2.478l7.102 10.208Z"/><path stroke="#000" stroke-width="2.493" d="M128.716 258.389c2.918 2.529 10.156 6.187 15.76.583m0 0-.015.015m.015-.015.583-.583m0 16.343c-2.527-2.916-6.18-10.144-.598-15.745m0 0-19.344 19.344"/><rect width="287.922" height="49.857" x="98.943" y="304.506" fill="#fff" rx="4.986"/><path fill="#7F7F7F" d="M172.232 334.724h-1.797v-12.215h6.631c2.338 0 3.996 1.414 3.996 3.333 0 1.571-.96 2.635-1.955 2.984 1.274 0 1.71.576 1.71 1.797v4.101h-1.797v-3.664c0-.96-.279-1.222-1.239-1.222h-5.549v4.886Zm0-10.609v4.118h4.572c1.535 0 2.443-.873 2.443-2.094 0-1.309-.908-2.024-2.443-2.024h-4.572Zm20.038 5.88v.663h-7.398c.157 1.902 1.5 2.81 2.949 2.81h.244c1.204 0 2.059-.489 2.356-1.327h1.745c-.315 1.711-2.007 2.757-4.206 2.757-2.722 0-4.833-1.553-4.833-4.606 0-2.949 2.39-4.467 4.746-4.467 2.757 0 4.397 1.71 4.397 4.17Zm-7.311-.68h5.497c-.088-1.501-1.187-2.06-2.461-2.06h-.244c-1.518 0-2.478.786-2.792 2.06Zm13.823 5.583c-3.229 0-4.852-1.867-4.852-4.536 0-2.548 1.78-4.537 4.852-4.537 2.39 0 4.083 1.169 4.345 3.053h-1.745c-.21-1.029-1.187-1.623-2.478-1.623h-.245c-2.024 0-3.001 1.466-3.001 3.107 0 1.64.977 3.106 3.001 3.106h.245c1.291 0 2.251-.698 2.478-1.623h1.745c-.262 1.762-1.955 3.053-4.345 3.053Zm15.062-4.903v.663h-7.399c.157 1.902 1.501 2.81 2.949 2.81h.245c1.204 0 2.059-.489 2.355-1.327h1.745c-.314 1.711-2.006 2.757-4.205 2.757-2.722 0-4.834-1.553-4.834-4.606 0-2.949 2.391-4.467 4.747-4.467 2.757 0 4.397 1.71 4.397 4.17Zm-7.312-.68h5.497c-.087-1.501-1.186-2.06-2.46-2.06h-.245c-1.518 0-2.477.786-2.792 2.06Zm11.363-4.851h-1.92v-1.955h1.92v1.955Zm-.105 10.26h-1.71v-8.725h1.71v8.725Zm6.61-1.658 3.211-7.067h1.832l-4.013 8.725h-2.059l-3.979-8.725h1.885l3.123 7.067Zm14.954-3.071v.663h-7.399c.157 1.902 1.501 2.81 2.949 2.81h.245c1.204 0 2.059-.489 2.355-1.327h1.745c-.314 1.711-2.006 2.757-4.205 2.757-2.722 0-4.834-1.553-4.834-4.606 0-2.949 2.391-4.467 4.747-4.467 2.757 0 4.397 1.71 4.397 4.17Zm-7.311-.68h5.496c-.087-1.501-1.186-2.06-2.46-2.06h-.244c-1.519 0-2.478.786-2.792 2.06Zm17.32 4.554a14.002 14.002 0 0 1-1.867-.157c-.605-.105-1.093-.244-1.466-.419v-1.483c.396.186.902.349 1.519.488.616.14 1.221.216 1.814.227V329c-.57-.162-1.07-.337-1.5-.523a4.16 4.16 0 0 1-1.03-.663 2.519 2.519 0 0 1-.611-.838 3.034 3.034 0 0 1-.192-1.117c0-.57.134-1.058.402-1.465.279-.407.669-.727 1.169-.96.5-.244 1.088-.384 1.762-.419v-1.535h1.117v1.518a7.283 7.283 0 0 1 1.675.209c.512.116.977.262 1.396.436l-.471 1.292a8 8 0 0 0-1.239-.384 7.511 7.511 0 0 0-1.361-.227v3.507c.768.221 1.408.46 1.92.716.511.244.895.552 1.151.925.268.36.402.831.402 1.413 0 .814-.303 1.477-.908 1.989-.605.501-1.46.809-2.565.925v1.937h-1.117v-1.867Zm1.117-1.431c.686-.07 1.187-.227 1.501-.471.314-.256.471-.582.471-.977 0-.291-.058-.53-.175-.716-.116-.197-.319-.366-.61-.506-.28-.139-.675-.273-1.187-.401v3.071Zm-1.117-8.079c-.418.023-.762.099-1.029.227a1.41 1.41 0 0 0-.611.471 1.223 1.223 0 0 0-.192.68c0 .303.052.565.157.786.116.209.308.389.576.541.268.139.634.267 1.099.383v-3.088Zm9.061 10.365h-1.797v-12.215h1.797v12.215Zm5.181 0h-1.798v-12.215h6.631c2.339 0 3.996 1.414 3.996 3.333 0 1.571-.959 2.635-1.954 2.984 1.274 0 1.71.576 1.71 1.797v4.101h-1.797v-3.664c0-.96-.279-1.222-1.239-1.222h-5.549v4.886Zm0-10.609v4.118h4.572c1.535 0 2.443-.873 2.443-2.094 0-1.309-.908-2.024-2.443-2.024h-4.572Zm17.837 10.783c-3.856 0-6.753-2.373-6.753-6.281 0-3.909 2.897-6.282 6.753-6.282 3.856 0 6.736 2.373 6.736 6.282 0 3.908-2.88 6.281-6.736 6.281Zm-.14-1.605h.28c2.6 0 4.781-1.71 4.781-4.676 0-2.967-2.181-4.677-4.781-4.677h-.28c-2.6 0-4.798 1.71-4.798 4.677 0 2.966 2.198 4.676 4.798 4.676Zm19.055-.576v-10.208h1.797v12.215h-2.478l-7.102-10.208v10.208h-1.797v-12.215h2.478l7.102 10.208Z"/><path stroke="#000" stroke-width="2.493" d="M141.46 338.159c-2.918-2.529-10.156-6.187-15.759-.583m0 0 .014-.015m-.014.015-.584.584m0-16.344c2.527 2.916 6.181 10.144.598 15.745m0 0 19.345-19.344"/><path stroke="#000" stroke-width="1.5" d="M78 73.75h421.25v574.5H78a3.25 3.25 0 0 1-3.25-3.25V77A3.25 3.25 0 0 1 78 73.75Z"/><path fill="#fff" d="M68 63.75h431.25v574.5H68a3.25 3.25 0 0 1-3.25-3.25V67A3.25 3.25 0 0 1 68 63.75Z"/><path fill="#0D0C22" d="M191.952 108.264c-6.717 0-11.401 4.898-11.401 11.155 0 6.254 4.684 11.155 11.401 11.155s11.402-4.899 11.402-11.155c0-6.257-4.685-11.155-11.402-11.155Zm.202 18.899c-2.741.072-4.375-2.509-4.508-7.582-.146-5.584 1.363-7.837 4.067-7.909 2.811-.074 4.401 2.134 4.545 7.684.135 5.105-1.328 7.735-4.104 7.807ZM156.139 108.633h-8.874c-.493 0-.802.31-.802.802v1.172c0 .523.184.709.646.893l.586.216c.646.247.863.586.863 1.263v12.88c0 .679-.217 1.016-.863 1.262l-.586.216c-.462.184-.646.37-.646.893v1.172c0 .493.309.802.802.802h8.874c.493 0 .802-.309.802-.802v-1.172c0-.523-.183-.709-.646-.893l-.586-.216c-.646-.246-.862-.586-.862-1.262v-12.88c0-.679.216-1.016.862-1.263l.586-.216c.463-.184.646-.37.646-.893v-1.172c-.002-.495-.309-.802-.802-.802ZM179.853 127.368l-.339-.184c-.832-.463-1.449-.802-2.248-2.065l-2.897-4.652c-.154-.246-.063-.432.216-.493 2.434-.646 3.82-2.064 3.82-4.591 0-4.774-3.722-6.75-11.671-6.75l-7.063.061c-.493.063-.74.339-.74.802v1.172c0 .523.184.709.586.862l.709.277c.586.246.802.555.802 1.172v12.88c0 .679-.216 1.016-.862 1.262l-.586.216c-.463.184-.646.37-.646.893v1.172c0 .493.309.802.802.802h8.874c.523 0 .802-.309.802-.802v-1.172c0-.523-.186-.709-.646-.893l-.586-.216c-.646-.246-.863-.586-.863-1.262v-4.776c0-.276.093-.369.31-.369.246 0 .399.183.616.555l4.222 7.642c.523.956.925 1.295 2.002 1.295h5.391c.523 0 .739-.276.739-.679v-1.109c-.004-.497-.158-.711-.744-1.05Zm-11.401-9.244h-.679a.422.422 0 0 1-.437-.437V111.8a.42.42 0 0 1 .437-.437h.711c2.397 0 3.883.869 3.883 3.278 0 2.411-1.148 3.483-3.915 3.483ZM309.709 111.714l.586-.216c.463-.184.647-.37.647-.893v-1.172c0-.493-.277-.802-.803-.802h-8.874c-.493 0-.802.309-.802.802v1.172c0 .523.184.709.646.893l.586.216c.647.246.863.586.863 1.262v3.883c0 .216-.154.37-.37.37h-6.533a.355.355 0 0 1-.369-.37v-3.883c0-.678.216-1.016.862-1.262l.586-.216c.463-.184.646-.37.646-.893v-1.172c0-.493-.276-.802-.802-.802h-8.874c-.493 0-.802.309-.802.802v1.172c0 .523.184.709.646.893l.586.216c.646.246.863.586.863 1.262v12.88c0 .679-.217 1.016-.863 1.263l-.586.216c-.462.184-.646.37-.646.893v1.172c0 .493.309.802.802.802h8.874c.523 0 .802-.309.802-.802v-1.172c0-.523-.186-.709-.646-.893l-.586-.216c-.646-.247-.862-.586-.862-1.263v-5.114c0-.217.153-.37.369-.37h6.533c.216 0 .37.153.37.37v5.114c0 .679-.216 1.016-.863 1.263l-.586.216c-.462.184-.646.37-.646.893v1.172c0 .493.309.802.802.802h8.874c.524 0 .803-.309.803-.802v-1.172c0-.523-.184-.709-.647-.893l-.586-.216c-.646-.247-.862-.586-.862-1.263v-12.88c0-.676.216-1.016.862-1.262ZM278.903 116.522l-3.76-1.109c-1.848-.553-2.834-1.202-2.834-2.281 0-1.048.986-1.713 2.497-1.725 2.118-.016 4.008.956 6.719 3.883.37.4.77.555 1.325.246l.647-.369c.555-.307.639-.765.369-1.233l-2.692-4.652c-.309-.548-.523-.925-1.172-.925h-.297c-.74 0-.833.339-1.572.339-.956 0-1.981-.369-3.729-.369-4.838 0-7.982 2.341-7.982 6.47 0 3.45 2.497 5.391 5.578 6.41l4.006 1.325c1.971.646 3.02 1.388 3.02 2.743 0 1.449-1.109 2.095-2.927 2.095-2.774 0-5.178-1.572-7.703-4.899-.4-.523-.802-.616-1.325-.369l-1.016.493c-.463.216-.593.681-.307 1.262l2.837 5.824c.255.523.616.739 1.048.739H270c.679 0 1.14-.462 1.758-.462 1.139 0 2.281.555 4.838.555 5.115 0 8.751-2.373 8.751-6.933-.004-4.224-2.808-6.012-6.444-7.058ZM263.3 108.633h-8.874c-.493 0-.802.31-.802.802v1.172c0 .523.183.709.646.893l.586.216c.646.247.862.586.862 1.263v12.88c0 .679-.216 1.016-.862 1.262l-.586.216c-.463.184-.646.37-.646.893v1.172c0 .493.309.802.802.802h8.874c.493 0 .802-.309.802-.802v-1.172c0-.523-.184-.709-.646-.893l-.586-.216c-.647-.246-.863-.586-.863-1.262v-12.88c0-.679.216-1.016.863-1.263l.586-.216c.462-.184.646-.37.646-.893v-1.172c-.002-.495-.309-.802-.802-.802ZM249.915 108.724c-.204-.356-.399-.586-.862-.586h-.614c-.339 0-.528.079-.783.279-.279.214-.521.214-1.126.214h-11.475c-.493 0-.803.309-.803.802v1.172c0 .523.184.709.647.893l.586.216c.646.246.862.586.862 1.262v12.88c0 .679-.216 1.016-.862 1.263l-.586.216c-.463.184-.647.37-.647.893v1.172c0 .492.31.802.803.802h9.306c.523 0 .802-.31.802-.802v-1.172c0-.523-.153-.77-.646-.893l-1.016-.277c-.679-.183-.863-.523-.863-1.202v-5.424c0-.216.154-.369.37-.369h.523c2.404 0 3.883 1.232 5.392 2.99.216.246.493.339.862.153l.77-.4c.339-.184.465-.481.309-.802l-2.388-4.901c-.137-.281-.307-.449-.66-.449h-.379c-.26 0-.425.07-.663.261a1.269 1.269 0 0 1-.802.283h-2.964a.355.355 0 0 1-.37-.369v-3.943c0-1.109.433-1.542 1.602-1.542 2.004 0 4.745 1.758 6.347 3.36.277.276.616.339.986.123l.832-.523c.277-.184.465-.477.277-.802l-2.767-4.778ZM225.834 127.614l-.709-.246c-.646-.217-.863-.586-.863-1.263v-13.403c0-.679.217-1.018.863-1.262l.586-.217c.462-.183.646-.369.646-.892v-.893c0-.493-.277-.802-.802-.802h-5.917c-.493 0-.802.309-.802.802v.893c0 .523.186.709.646.892l.586.217c.647.246.863.585.863 1.262v7.549a.23.23 0 0 1-.407.147l-7.865-11.023c-.196-.298-.396-.495-.6-.593-.205-.097-.488-.146-.846-.146h-5.871c-.493 0-.802.309-.802.802v1.172c0 .523.186.709.646.892l.586.217c.647.246.863.585.863 1.262v13.154c0 .679-.216 1.016-.863 1.263l-.586.216c-.462.184-.646.37-.646.893v.893c0 .492.309.802.802.802h5.917c.523 0 .802-.31.802-.802v-.893c0-.523-.184-.709-.646-.893l-.586-.216c-.646-.247-.863-.586-.863-1.263v-8.495a.23.23 0 0 1 .407-.146l8.709 11.968c.196.298.396.496.6.593.205.098.488.147.847.147h5.149c.523 0 .802-.31.802-.802v-.893c0-.523-.183-.739-.646-.893ZM140.511 119.109l-5.719-9.906a.788.788 0 0 0-.683-.395h-11.444a.788.788 0 0 0-.683.395l-4.915 8.514a.352.352 0 0 1-.656-.177v-3.294a5.442 5.442 0 0 0-5.435-5.436h-4.648a.79.79 0 0 0-.79.79v4.648a5.332 5.332 0 0 0 3.289 4.938.35.35 0 0 1 0 .646 5.315 5.315 0 0 0-3.289 4.932v4.647c0 .435.353.791.79.791h4.648a5.442 5.442 0 0 0 5.435-5.436v-3.295c0-.158.107-.297.261-.339a.36.36 0 0 1 .395.163l4.915 8.514a.792.792 0 0 0 .683.395h11.441a.79.79 0 0 0 .684-.395l5.719-9.907a.782.782 0 0 0 .105-.393.773.773 0 0 0-.103-.4Zm-12.038 4.55c-2.232 0-4.048-1.864-4.048-4.154s1.816-4.155 4.048-4.155 4.048 1.865 4.048 4.155-1.816 4.154-4.048 4.154Z"/><rect width="287.922" height="49.857" x="88.943" y="174.85" fill="#F3F3F4" rx="4.986"/><g clip-path="url(#g)"><path fill="#0D0C22" d="m123.842 191.913 6.232 5.609v9.735h-2.492v-7.479h-7.479v7.479h-2.493v-9.735l6.232-5.609Zm0-3.352-12.464 11.217h3.739v9.972h7.479v-7.479h2.493v7.479h7.478v-9.972h3.739l-12.464-11.217Z"/></g><path fill="#0D0C22" d="M172.527 205.068h-1.989l-1.431-3.124h-6.945l-1.431 3.124h-1.937l5.706-12.215h2.339l5.688 12.215Zm-6.892-10.679-2.74 5.95h5.479l-2.739-5.95Zm12.513 10.853c-3.228 0-4.851-1.867-4.851-4.537 0-2.547 1.78-4.537 4.851-4.537 2.391 0 4.083 1.17 4.345 3.054h-1.745c-.209-1.029-1.187-1.623-2.478-1.623h-.244c-2.024 0-3.001 1.466-3.001 3.106 0 1.641.977 3.106 3.001 3.106h.244c1.291 0 2.251-.698 2.478-1.622h1.745c-.262 1.762-1.954 3.053-4.345 3.053Zm10.77 0c-3.228 0-4.851-1.867-4.851-4.537 0-2.547 1.78-4.537 4.851-4.537 2.39 0 4.083 1.17 4.345 3.054h-1.745c-.21-1.029-1.187-1.623-2.478-1.623h-.244c-2.024 0-3.002 1.466-3.002 3.106 0 1.641.978 3.106 3.002 3.106h.244c1.291 0 2.251-.698 2.478-1.622h1.745c-.262 1.762-1.955 3.053-4.345 3.053Zm10.857 0c-2.932 0-4.956-1.78-4.956-4.537 0-2.757 2.024-4.537 4.956-4.537 2.914 0 4.956 1.78 4.956 4.537 0 2.757-2.042 4.537-4.956 4.537Zm-.122-1.431h.244c1.762 0 3.106-1.169 3.106-3.106 0-1.937-1.344-3.106-3.106-3.106h-.244c-1.78 0-3.106 1.169-3.106 3.106 0 1.937 1.326 3.106 3.106 3.106Zm10.786 1.431c-2.373 0-3.629-1.361-3.629-3.455v-5.444h1.71v5.043c0 1.57.646 2.425 2.129 2.425h.244c1.501 0 2.844-1.116 2.844-2.983v-4.485h1.711v8.725h-1.711v-1.588c-.54.977-1.605 1.762-3.298 1.762Zm9.484-.174h-1.71v-8.725h1.71v1.448c.628-.925 1.692-1.623 3.35-1.623 2.391 0 3.734 1.519 3.734 3.595v5.305h-1.71v-4.886c0-1.536-.68-2.583-2.198-2.583h-.245c-1.518 0-2.931 1.222-2.931 3.072v4.397Zm15.694 0h-2.984c-1.221 0-1.919-.698-1.919-1.92v-5.339h-2.251v-1.466h2.251v-2.827h1.71v2.827h2.809v1.466h-2.809v5.043c0 .523.174.698.698.698h2.495v1.518Zm5.324.174c-2.652 0-4.1-1.116-4.205-2.879h1.745c.087.995 1.117 1.448 2.338 1.448h.244c1.344 0 2.182-.314 2.182-1.081 0-.541-.384-.873-1.71-1.135l-1.449-.279c-1.815-.349-2.931-.977-2.931-2.478 0-1.727 1.692-2.67 3.786-2.67 2.722 0 4.066 1.135 4.206 2.88h-1.745c-.088-.803-.873-1.449-2.339-1.449h-.244c-1.256 0-1.937.454-1.937 1.1 0 .506.314.785 1.728 1.064l1.361.262c1.832.349 3.001 1.047 3.001 2.6 0 1.57-1.518 2.617-4.031 2.617Z"/><rect width="287.922" height="49.857" x="88.943" y="354.334" fill="#fff" rx="4.986"/><path fill="#7F7F7F" d="M172.527 384.552h-1.989l-1.431-3.123h-6.945l-1.431 3.123h-1.937l5.706-12.215h2.339l5.688 12.215Zm-6.892-10.679-2.74 5.95h5.479l-2.739-5.95Zm12.408 10.854c-2.792 0-4.746-1.71-4.746-4.537 0-2.984 1.972-4.537 4.711-4.537 1.484 0 2.81.663 3.368 1.501v-4.817h1.71v12.215h-1.71v-1.274c-.68.89-2.076 1.449-3.333 1.449Zm-.035-1.431h.245c1.762 0 3.123-1.099 3.123-3.106 0-2.007-1.361-3.106-3.123-3.106h-.245c-1.745 0-2.983 1.099-2.983 3.106 0 2.007 1.238 3.106 2.983 3.106Zm12.015 1.431c-2.792 0-4.746-1.71-4.746-4.537 0-2.984 1.972-4.537 4.711-4.537 1.483 0 2.81.663 3.368 1.501v-4.817h1.71v12.215h-1.71v-1.274c-.681.89-2.077 1.449-3.333 1.449Zm-.035-1.431h.244c1.763 0 3.124-1.099 3.124-3.106 0-2.007-1.361-3.106-3.124-3.106h-.244c-1.745 0-2.984 1.099-2.984 3.106 0 2.007 1.239 3.106 2.984 3.106Zm9.537 1.256h-1.71v-8.725h1.623v1.833c.453-1.222 1.204-1.833 2.774-1.833h1.344v1.641h-1.466c-1.64 0-2.565.924-2.565 2.704v4.38Zm14.1-4.729v.663h-7.398c.157 1.902 1.5 2.81 2.949 2.81h.244c1.204 0 2.059-.489 2.356-1.326h1.745c-.314 1.71-2.007 2.757-4.206 2.757-2.722 0-4.833-1.553-4.833-4.607 0-2.949 2.39-4.467 4.746-4.467 2.757 0 4.397 1.71 4.397 4.17Zm-7.311-.68h5.497c-.088-1.501-1.187-2.059-2.461-2.059h-.244c-1.518 0-2.478.785-2.792 2.059Zm13.002 5.584c-2.652 0-4.1-1.117-4.205-2.879h1.745c.087.994 1.117 1.448 2.338 1.448h.245c1.343 0 2.181-.314 2.181-1.082 0-.541-.384-.873-1.71-1.134l-1.449-.279c-1.814-.349-2.931-.978-2.931-2.478 0-1.728 1.693-2.67 3.786-2.67 2.723 0 4.066 1.134 4.206 2.879h-1.745c-.087-.803-.873-1.448-2.338-1.448h-.245c-1.256 0-1.937.453-1.937 1.099 0 .506.315.785 1.728 1.065l1.361.261c1.832.349 3.001 1.047 3.001 2.6 0 1.571-1.518 2.618-4.031 2.618Zm9.799 0c-2.652 0-4.101-1.117-4.205-2.879h1.745c.087.994 1.116 1.448 2.338 1.448h.244c1.344 0 2.181-.314 2.181-1.082 0-.541-.384-.873-1.71-1.134l-1.448-.279c-1.815-.349-2.932-.978-2.932-2.478 0-1.728 1.693-2.67 3.787-2.67 2.722 0 4.066 1.134 4.205 2.879h-1.745c-.087-.803-.872-1.448-2.338-1.448h-.244c-1.257 0-1.937.453-1.937 1.099 0 .506.314.785 1.727 1.065l1.362.261c1.832.349 3.001 1.047 3.001 2.6 0 1.571-1.518 2.618-4.031 2.618Zm18.374-.175h-6.98v-12.215h6.771c2.076 0 3.682 1.222 3.682 3.229 0 1.396-.89 2.39-1.937 2.774 1.256.279 2.234 1.309 2.234 2.897 0 2.024-1.693 3.315-3.77 3.315Zm-5.182-10.609v3.612h4.711c1.326 0 2.129-.681 2.129-1.815s-.803-1.797-2.129-1.797h-4.711Zm0 5.217v3.787h4.833c1.414 0 2.304-.681 2.304-1.955 0-1.169-.89-1.832-2.304-1.832h-4.833Zm15.748 5.567c-2.932 0-4.956-1.78-4.956-4.537 0-2.757 2.024-4.537 4.956-4.537 2.914 0 4.955 1.78 4.955 4.537 0 2.757-2.041 4.537-4.955 4.537Zm-.123-1.431h.245c1.762 0 3.106-1.169 3.106-3.106 0-1.937-1.344-3.106-3.106-3.106h-.245c-1.78 0-3.106 1.169-3.106 3.106 0 1.937 1.326 3.106 3.106 3.106Zm11.642 1.431c-2.931 0-4.956-1.78-4.956-4.537 0-2.757 2.025-4.537 4.956-4.537 2.914 0 4.956 1.78 4.956 4.537 0 2.757-2.042 4.537-4.956 4.537Zm-.122-1.431h.244c1.763 0 3.106-1.169 3.106-3.106 0-1.937-1.343-3.106-3.106-3.106h-.244c-1.78 0-3.106 1.169-3.106 3.106 0 1.937 1.326 3.106 3.106 3.106Zm16.458 1.256h-2.286l-3.752-4.1-1.448 1.151v2.949h-1.71v-12.215h1.71v7.417l4.816-3.927h2.495l-4.571 3.612 4.746 5.113Z"/><g clip-path="url(#h)"><path fill="#0D0C22" d="M135.06 370.538c-1.384-.436-2.905-.623-4.363-.623-2.43 0-5.048.498-6.855 1.869-1.807-1.371-4.425-1.869-6.855-1.869-2.431 0-5.048.498-6.856 1.869v18.26c0 .312.312.623.624.623.124 0 .187-.062.311-.062 1.683-.81 4.113-1.371 5.921-1.371 2.43 0 5.048.499 6.855 1.87 1.683-1.06 4.736-1.87 6.855-1.87 2.057 0 4.176.374 5.921 1.309.124.062.187.062.311.062.312 0 .623-.312.623-.623v-18.198c-.747-.561-1.558-.935-2.492-1.246Zm0 16.826c-1.371-.436-2.867-.623-4.363-.623-2.119 0-5.172.81-6.855 1.87v-14.334c1.683-1.059 4.736-1.87 6.855-1.87 1.496 0 2.992.187 4.363.624v14.333Z"/></g><rect width="287.922" height="49.857" x="88.943" y="414.162" fill="#fff" rx="4.986"/><path fill="#7F7F7F" d="m164.989 437.627 3.874-5.462h2.146l-5.148 7.067v5.148h-1.797v-5.148l-5.148-7.067h2.164l3.909 5.462Zm10.043 6.927c-2.932 0-4.956-1.78-4.956-4.537 0-2.757 2.024-4.537 4.956-4.537 2.914 0 4.955 1.78 4.955 4.537 0 2.757-2.041 4.537-4.955 4.537Zm-.123-1.431h.245c1.762 0 3.106-1.169 3.106-3.106 0-1.937-1.344-3.106-3.106-3.106h-.245c-1.779 0-3.106 1.169-3.106 3.106 0 1.937 1.327 3.106 3.106 3.106Zm10.787 1.431c-2.373 0-3.629-1.361-3.629-3.455v-5.444h1.71v5.043c0 1.57.645 2.425 2.129 2.425h.244c1.501 0 2.844-1.116 2.844-2.984v-4.484h1.71v8.725h-1.71v-1.588c-.541.977-1.605 1.762-3.298 1.762Zm9.483-.174h-1.71v-8.725h1.623v1.832c.454-1.221 1.204-1.832 2.775-1.832h1.343v1.64h-1.465c-1.641 0-2.566.925-2.566 2.705v4.38Zm19.96-2.007v-10.208h1.797v12.215h-2.478l-7.102-10.208v10.208h-1.797v-12.215h2.478l7.102 10.208Zm9.124 2.181c-2.932 0-4.956-1.78-4.956-4.537 0-2.757 2.024-4.537 4.956-4.537 2.914 0 4.955 1.78 4.955 4.537 0 2.757-2.041 4.537-4.955 4.537Zm-.123-1.431h.245c1.762 0 3.106-1.169 3.106-3.106 0-1.937-1.344-3.106-3.106-3.106h-.245c-1.779 0-3.106 1.169-3.106 3.106 0 1.937 1.327 3.106 3.106 3.106Zm11.45 1.431c-2.792 0-4.746-1.71-4.746-4.537 0-2.984 1.972-4.537 4.711-4.537 1.484 0 2.81.663 3.368 1.501v-4.816h1.71v12.215h-1.71v-1.274c-.68.89-2.076 1.448-3.333 1.448Zm-.035-1.431h.245c1.762 0 3.123-1.099 3.123-3.106 0-2.006-1.361-3.106-3.123-3.106h-.245c-1.745 0-2.984 1.1-2.984 3.106 0 2.007 1.239 3.106 2.984 3.106Zm16.412-3.472v.663h-7.398c.157 1.902 1.5 2.809 2.949 2.809h.244c1.204 0 2.059-.488 2.356-1.326h1.745c-.315 1.71-2.007 2.757-4.206 2.757-2.722 0-4.833-1.553-4.833-4.606 0-2.95 2.39-4.468 4.746-4.468 2.757 0 4.397 1.71 4.397 4.171Zm-7.311-.681h5.496c-.087-1.5-1.186-2.059-2.46-2.059h-.244c-1.518 0-2.478.785-2.792 2.059Z"/><g fill="#0D0C22" clip-path="url(#i)"><path d="M112.624 429.119a1.25 1.25 0 0 1 1.247-1.247h2.492v-2.492h-2.492a3.735 3.735 0 0 0-3.74 3.739v2.493h2.493v-2.493ZM112.624 449.061v-2.492h-2.493v2.492a3.736 3.736 0 0 0 3.74 3.74h2.492v-2.493h-2.492a1.25 1.25 0 0 1-1.247-1.247ZM133.813 425.38h-2.492v2.492h2.492a1.25 1.25 0 0 1 1.247 1.247v2.493h2.493v-2.493a3.735 3.735 0 0 0-3.74-3.739ZM135.06 449.061a1.25 1.25 0 0 1-1.247 1.247h-2.492v2.493h2.492a3.736 3.736 0 0 0 3.74-3.74v-2.492h-2.493v2.492ZM132.567 442.667v-7.154c0-.897-.474-1.72-1.246-2.156l-6.232-3.59a2.471 2.471 0 0 0-2.493 0l-6.232 3.577a2.503 2.503 0 0 0-1.247 2.169v7.154c0 .898.474 1.72 1.247 2.157l6.232 3.589c.386.225.81.337 1.246.337.436 0 .86-.112 1.247-.337l6.232-3.589a2.47 2.47 0 0 0 1.246-2.157Zm-9.971 2.867-4.986-2.867v-5.771l4.986 2.905v5.733Zm1.246-7.89-4.936-2.879 4.936-2.842 4.936 2.842-4.936 2.879Zm6.232 5.023-4.985 2.867v-5.733l4.985-2.905v5.771Z"/></g><rect width="287.922" height="42.957" x="88.943" y="509.635" fill="#ECFFCE" rx="6.232"/><path fill="#6A991C" d="m139.217 534.299 2.304-10.4h1.814l-2.966 12.215h-2.356l-2.443-10.208-2.443 10.208h-2.355l-2.967-12.215h1.815l2.391 10.313 2.495-10.313h2.286l2.425 10.4Zm7.75 1.989c-1.657 0-2.879-1.099-2.879-2.582 0-1.989 1.763-2.583 3.176-2.705l2.408-.192v-.279c0-1.222-.698-1.92-1.815-1.92h-.139c-.908 0-1.693.437-1.798 1.309h-1.657c.104-1.605 1.553-2.705 3.524-2.705 2.321 0 3.543 1.536 3.543 3.316v3.664c0 .524 0 1.309.087 1.92h-1.57c-.088-.436-.088-1.309-.088-1.396-.349.785-1.396 1.57-2.792 1.57Zm.192-1.396h.14c1.064 0 2.373-.872 2.373-1.919v-.89l-2.181.174c-1.012.088-1.745.576-1.745 1.379 0 .715.593 1.256 1.413 1.256Zm8.364 1.222h-1.658v-12.215h1.658v12.215Zm4.277 0h-1.658v-12.215h1.658v12.215Zm6.214.174c-2.164 0-4.118-1.5-4.118-4.554 0-3.019 2.006-4.52 4.066-4.52 2.268 0 3.699 1.571 3.699 3.839v.96h-6.107c.104 1.989 1.378 2.879 2.442 2.879h.14c.855 0 1.675-.436 1.85-1.361h1.657c-.314 1.763-1.832 2.757-3.629 2.757Zm-2.356-5.584h4.345c-.07-1.518-.977-2.094-1.972-2.094h-.139c-.908 0-1.92.541-2.234 2.094Zm12.935 5.41h-2.094c-1.221 0-1.919-.698-1.919-1.92v-5.374h-1.92v-1.431h1.92v-2.827h1.658v2.827h2.094v1.431h-2.094v5.113c0 .523.174.698.698.698h1.657v1.483Zm10.172.174c-2.879 0-4.712-1.396-4.799-4.1h1.745c0 1.657 1.291 2.53 3.124 2.53h.174c1.64 0 2.53-.82 2.53-1.832 0-.995-.628-1.571-1.919-1.833l-1.954-.401c-1.955-.401-3.089-1.501-3.089-3.438 0-1.919 1.727-3.489 4.362-3.489 2.705 0 4.433 1.483 4.52 3.838h-1.745c-.087-1.395-1.204-2.268-2.687-2.268h-.175c-1.518 0-2.53.82-2.53 1.902 0 .942.646 1.501 1.675 1.71l1.954.384c2.112.419 3.333 1.536 3.333 3.525 0 2.146-1.814 3.472-4.519 3.472Zm11.726-.174h-2.094c-1.222 0-1.92-.698-1.92-1.92v-5.374h-1.919v-1.431h1.919v-2.827h1.658v2.827h2.094v1.431h-2.094v5.113c0 .523.175.698.698.698h1.658v1.483Zm4.149.174c-1.658 0-2.88-1.099-2.88-2.582 0-1.989 1.763-2.583 3.176-2.705l2.408-.192v-.279c0-1.222-.698-1.92-1.814-1.92h-.14c-.907 0-1.693.437-1.797 1.309h-1.658c.105-1.605 1.553-2.705 3.525-2.705 2.321 0 3.542 1.536 3.542 3.316v3.664c0 .524 0 1.309.087 1.92h-1.57c-.087-.436-.087-1.309-.087-1.396-.349.785-1.396 1.57-2.792 1.57Zm.192-1.396h.139c1.065 0 2.373-.872 2.373-1.919v-.89l-2.181.174c-1.012.088-1.745.576-1.745 1.379 0 .715.594 1.256 1.414 1.256Zm11.524 1.222h-2.094c-1.222 0-1.92-.698-1.92-1.92v-5.374h-1.919v-1.431h1.919v-2.827H212v2.827h2.094v1.431H212v5.113c0 .523.175.698.698.698h1.658v1.483Zm4.672.174c-1.954 0-2.966-1.308-2.966-3.141v-5.758h1.657v5.409c0 1.396.576 2.094 1.763 2.094h.14c1.116 0 2.198-1.047 2.198-2.792v-4.711h1.658v8.725h-1.658v-1.658c-.331.96-1.274 1.832-2.792 1.832Zm9.987 0c-2.321 0-3.577-1.221-3.577-2.879h1.657c.088 1.047.908 1.483 1.937 1.483h.14c.907 0 1.623-.436 1.623-1.134 0-.558-.314-.942-1.187-1.117l-1.274-.244c-1.413-.279-2.547-1.012-2.547-2.495 0-1.745 1.553-2.688 3.298-2.688 2.286 0 3.455 1.222 3.455 2.88h-1.658c-.087-.786-.576-1.484-1.71-1.484h-.14c-.977 0-1.588.507-1.588 1.117 0 .611.349.943 1.222 1.117l1.378.279c1.327.262 2.409.977 2.409 2.548 0 1.57-1.414 2.617-3.438 2.617Zm5.554-1.116c0-.431.105-.733.314-.908.209-.174.46-.262.75-.262.303 0 .559.088.768.262.221.175.332.477.332.908 0 .418-.111.721-.332.907a1.114 1.114 0 0 1-.768.279c-.29 0-.541-.093-.75-.279-.209-.186-.314-.489-.314-.907Zm0-7.469c0-.442.105-.75.314-.925.209-.174.46-.262.75-.262.303 0 .559.088.768.262.221.175.332.483.332.925 0 .419-.111.721-.332.907a1.11 1.11 0 0 1-.768.28c-.29 0-.541-.093-.75-.28-.209-.186-.314-.488-.314-.907Zm14.269 8.585c-3.577 0-5.758-2.704-5.758-6.282 0-3.577 2.181-6.281 5.758-6.281 2.617 0 4.711 1.535 4.886 4.013h-1.745c-.175-1.483-1.396-2.443-3.054-2.443h-.174c-2.531 0-3.927 2.094-3.927 4.711 0 2.618 1.396 4.712 3.927 4.712h.174c1.658 0 2.879-.96 3.054-2.443h1.745c-.175 2.478-2.269 4.013-4.886 4.013Zm10.629 0c-2.356 0-4.188-1.832-4.188-4.537 0-2.704 1.832-4.537 4.188-4.537s4.188 1.833 4.188 4.537c0 2.705-1.832 4.537-4.188 4.537Zm-.07-1.396h.14c1.413 0 2.46-1.134 2.46-3.141 0-2.006-1.047-3.141-2.46-3.141h-.14c-1.413 0-2.46 1.135-2.46 3.141 0 2.007 1.047 3.141 2.46 3.141Zm7.999 1.222h-1.658v-8.725h1.658v1.221c.523-.785 1.396-1.396 2.792-1.396 2.006 0 3.14 1.222 3.14 3.054v5.846h-1.657v-5.497c0-1.221-.524-2.007-1.763-2.007h-.139c-1.239 0-2.373.96-2.373 2.618v4.886Zm10.122 0h-1.658v-8.725h1.658v1.221c.523-.785 1.396-1.396 2.792-1.396 2.006 0 3.141 1.222 3.141 3.054v5.846h-1.658v-5.497c0-1.221-.523-2.007-1.762-2.007h-.14c-1.239 0-2.373.96-2.373 2.618v4.886Zm12.059.174c-2.164 0-4.118-1.5-4.118-4.554 0-3.019 2.007-4.52 4.066-4.52 2.268 0 3.699 1.571 3.699 3.839v.96h-6.107c.104 1.989 1.378 2.879 2.443 2.879h.139c.855 0 1.675-.436 1.85-1.361h1.658c-.315 1.763-1.833 2.757-3.63 2.757Zm-2.356-5.584h4.345c-.07-1.518-.977-2.094-1.972-2.094h-.139c-.908 0-1.92.541-2.234 2.094Zm11.815 5.584c-2.687 0-4.188-1.971-4.188-4.537 0-2.565 1.501-4.537 4.188-4.537 1.99 0 3.403 1.17 3.577 3.054h-1.657c-.157-.96-.855-1.658-1.85-1.658h-.14c-1.675 0-2.46 1.484-2.46 3.141 0 1.658.785 3.141 2.46 3.141h.14c.995 0 1.693-.698 1.85-1.657h1.657c-.174 1.884-1.587 3.053-3.577 3.053Zm10.476-.174h-2.094c-1.222 0-1.92-.698-1.92-1.92v-5.374h-1.919v-1.431h1.919v-2.827h1.658v2.827h2.094v1.431h-2.094v5.113c0 .523.175.698.698.698h1.658v1.483Zm5.285.174c-2.163 0-4.118-1.5-4.118-4.554 0-3.019 2.007-4.52 4.066-4.52 2.269 0 3.699 1.571 3.699 3.839v.96h-6.107c.105 1.989 1.379 2.879 2.443 2.879h.14c.855 0 1.675-.436 1.849-1.361h1.658c-.314 1.763-1.832 2.757-3.63 2.757Zm-2.355-5.584h4.345c-.07-1.518-.978-2.094-1.972-2.094h-.14c-.907 0-1.919.541-2.233 2.094Zm11.396 5.584c-2.181 0-3.752-1.657-3.752-4.537 0-2.879 1.745-4.537 3.926-4.537 1.222 0 2.269.611 2.705 1.396v-4.711h1.658v12.215h-1.658v-1.222c-.436.786-1.658 1.396-2.879 1.396Zm.279-1.396h.14c1.239 0 2.46-1.047 2.46-3.141 0-2.094-1.221-3.141-2.46-3.141h-.14c-1.326 0-2.373 1.047-2.373 3.141 0 2.094 1.047 3.141 2.373 3.141Z"/><rect width="287.922" height="42.378" x="88.943" y="570.537" fill="#F3F3F4" rx="6.232"/><g filter="url(#j)"><rect width="137.106" height="32.407" x="93.928" y="575.523" fill="#fff" rx="2.493"/></g><path fill="#000" d="M165.221 593.016h-7.14v-9.8h1.4v8.54h5.74v1.26Zm2.691-8.26h-1.47v-1.54h1.47v1.54Zm-.07 8.26h-1.33v-7h1.33v7Zm4.803 3.08c-1.96 0-3.108-.91-3.248-2.17h1.33c.14.7.896 1.05 1.848 1.05h.14c1.19 0 2.03-.63 2.03-2.1v-.98c-.35.56-1.05 1.12-2.1 1.12-1.61 0-3.108-1.12-3.108-3.57 0-2.45 1.456-3.57 3.108-3.57 1.05 0 1.82.56 2.1 1.12v-.98h1.33v7c0 1.75-1.26 3.08-3.43 3.08Zm.056-4.2h.112c.966 0 1.932-.91 1.932-2.45s-.896-2.45-1.862-2.45h-.112c-.994 0-1.904.7-1.904 2.45 0 1.75.84 2.45 1.834 2.45Zm6.803 1.12h-1.33v-9.8h1.33v3.78c.42-.63 1.12-1.12 2.24-1.12 1.61 0 2.52.98 2.52 2.45v4.69h-1.33v-4.41c0-.98-.42-1.61-1.414-1.61h-.112c-.994 0-1.904.77-1.904 2.1v3.92Zm10.684 0h-1.68c-.98 0-1.54-.56-1.54-1.54v-4.312h-1.54v-1.148h1.54v-2.268h1.33v2.268h1.68v1.148h-1.68v4.102c0 .42.14.56.56.56h1.33v1.19Z"/><path fill="#7F7F7F" d="M304.847 593.016h-3.5v-9.8h3.5c2.73 0 4.55 1.82 4.55 4.9s-1.82 4.9-4.55 4.9Zm-2.1-8.54v7.28h1.96c2.1 0 3.29-1.26 3.29-3.64s-1.19-3.64-3.29-3.64h-1.96Zm10.288 8.68c-1.33 0-2.31-.882-2.31-2.072 0-1.596 1.414-2.072 2.548-2.17l1.932-.154v-.224c0-.98-.56-1.54-1.456-1.54h-.112c-.728 0-1.358.35-1.442 1.05h-1.33c.084-1.288 1.246-2.17 2.828-2.17 1.862 0 2.842 1.232 2.842 2.66v2.94c0 .42 0 1.05.07 1.54h-1.26c-.07-.35-.07-1.05-.07-1.12-.28.63-1.12 1.26-2.24 1.26Zm.154-1.12h.112c.854 0 1.904-.7 1.904-1.54v-.714l-1.75.14c-.812.07-1.4.462-1.4 1.106 0 .574.476 1.008 1.134 1.008Zm6.71.98h-1.33v-7h1.26v1.54c.28-1.05 1.12-1.61 2.03-1.61h.63v1.288h-.56c-1.26 0-2.03.84-2.03 2.24v3.542Zm5.263 0h-1.33v-9.8h1.33v5.824l3.08-3.024h1.75l-2.912 2.786 3.052 4.214h-1.638l-2.366-3.304-.966.938v2.366Z"/><g clip-path="url(#k)"><path fill="#7F7F7F" d="M282.137 585.182a6.544 6.544 0 1 0 6.471 5.555 3.928 3.928 0 1 1-5.482-5.482 7.295 7.295 0 0 0-.989-.073Z"/></g><g clip-path="url(#l)"><path fill="#0D0C22" d="M138.799 588.091a3.636 3.636 0 1 0 .001 7.271 3.636 3.636 0 0 0-.001-7.271Zm-7.271 4.362h1.454a.73.73 0 0 0 .728-.727.73.73 0 0 0-.728-.727h-1.454c-.4 0-.727.327-.727.727 0 .4.327.727.727.727Zm13.088 0h1.454c.4 0 .727-.327.727-.727 0-.4-.327-.727-.727-.727h-1.454c-.4 0-.727.327-.727.727 0 .4.327.727.727.727Zm-6.544-7.998v1.454c0 .4.327.727.727.727.4 0 .727-.327.727-.727v-1.454c0-.4-.327-.727-.727-.727-.4 0-.727.327-.727.727Zm0 13.088v1.454c0 .4.327.727.727.727.4 0 .727-.327.727-.727v-1.454c0-.4-.327-.727-.727-.727-.4 0-.727.327-.727.727Zm-3.643-11.212a.725.725 0 0 0-1.025 1.025l.771.771a.723.723 0 0 0 1.025 0c.276-.284.284-.749 0-1.025l-.771-.771Zm8.994 8.994a.725.725 0 0 0-1.025 1.025l.771.771a.725.725 0 0 0 1.025-1.025l-.771-.771Zm.771-7.969a.725.725 0 0 0-1.025-1.025l-.771.771a.725.725 0 0 0 0 1.025c.284.276.749.284 1.025 0l.771-.771Zm-8.994 8.994a.723.723 0 0 0 0-1.025.723.723 0 0 0-1.025 0l-.771.771a.725.725 0 0 0 0 1.025.731.731 0 0 0 1.025 0l.771-.771Z"/></g><rect width="287.922" height="49.857" x="88.943" y="234.679" fill="#fff" rx="4.986"/><path fill="#7F7F7F" d="M165.198 265.071c-3.542 0-5.723-1.378-5.776-4.1h1.92c.07 1.657 1.483 2.495 3.699 2.495h.28c2.285 0 3.21-.75 3.21-1.867 0-.925-.75-1.518-2.67-1.833l-1.902-.314c-2.669-.436-3.856-1.343-3.856-3.49 0-1.727 1.518-3.455 5.008-3.455 3.281 0 5.235 1.466 5.479 3.839h-1.919c-.21-1.431-1.466-2.233-3.42-2.233h-.279c-1.955 0-3.054.785-3.054 1.797s.75 1.501 2.373 1.763l1.954.314c2.74.436 4.101 1.605 4.101 3.472 0 2.321-1.815 3.612-5.148 3.612Zm16.186-4.903v.663h-7.399c.157 1.902 1.501 2.809 2.949 2.809h.245c1.204 0 2.059-.488 2.355-1.326h1.745c-.314 1.71-2.006 2.757-4.205 2.757-2.722 0-4.834-1.553-4.834-4.607 0-2.949 2.391-4.467 4.747-4.467 2.757 0 4.397 1.71 4.397 4.171Zm-7.311-.681h5.496c-.087-1.5-1.186-2.059-2.46-2.059h-.244c-1.518 0-2.478.785-2.792 2.059Zm11.24 5.41h-1.71v-8.725h1.71v1.448c.628-.925 1.692-1.623 3.35-1.623 2.391 0 3.734 1.518 3.734 3.595v5.305h-1.71v-4.886c0-1.536-.68-2.583-2.198-2.583h-.245c-1.518 0-2.931 1.222-2.931 3.071v4.398Zm13.929.174c-2.792 0-4.746-1.71-4.746-4.537 0-2.984 1.972-4.537 4.711-4.537 1.483 0 2.81.663 3.368 1.501v-4.816h1.71v12.215h-1.71v-1.274c-.681.89-2.076 1.448-3.333 1.448Zm-.035-1.431h.245c1.762 0 3.123-1.099 3.123-3.106 0-2.006-1.361-3.106-3.123-3.106h-.245c-1.745 0-2.984 1.1-2.984 3.106 0 2.007 1.239 3.106 2.984 3.106Zm15.618.402a14.018 14.018 0 0 1-1.868-.157c-.605-.105-1.093-.245-1.465-.419v-1.483c.395.186.901.349 1.518.488.616.14 1.221.215 1.815.227v-3.525a12.394 12.394 0 0 1-1.501-.523 4.16 4.16 0 0 1-1.03-.663 2.512 2.512 0 0 1-.61-.838 3.038 3.038 0 0 1-.192-1.117c0-.57.133-1.058.401-1.466.279-.407.669-.727 1.169-.959.5-.245 1.088-.384 1.763-.419v-1.536h1.116v1.518a7.336 7.336 0 0 1 1.675.21c.512.116.978.262 1.396.436l-.471 1.291a8.223 8.223 0 0 0-1.239-.384 7.583 7.583 0 0 0-1.361-.226v3.507c.768.221 1.408.46 1.92.715.512.245.896.553 1.151.925.268.361.402.832.402 1.414 0 .814-.303 1.477-.908 1.989-.604.5-1.46.809-2.565.925v1.937h-1.116v-1.867Zm1.116-1.431c.687-.07 1.187-.227 1.501-.471.314-.256.471-.582.471-.978 0-.29-.058-.529-.174-.715-.117-.198-.32-.366-.611-.506-.279-.14-.675-.273-1.187-.401v3.071Zm-1.116-8.079c-.419.023-.762.098-1.03.226a1.42 1.42 0 0 0-.611.472 1.22 1.22 0 0 0-.192.68c0 .303.053.564.157.785.117.21.309.39.576.541.268.14.634.268 1.1.384v-3.088Zm9.061 10.365h-1.798v-12.215h1.798v12.215Zm5.18 0h-1.797v-12.215h6.631c2.338 0 3.996 1.413 3.996 3.333 0 1.57-.96 2.635-1.955 2.984 1.274 0 1.71.576 1.71 1.797v4.101h-1.797v-3.665c0-.959-.279-1.221-1.239-1.221h-5.549v4.886Zm0-10.61v4.118h4.572c1.535 0 2.443-.872 2.443-2.094 0-1.308-.908-2.024-2.443-2.024h-4.572Zm17.837 10.784c-3.856 0-6.753-2.373-6.753-6.282 0-3.908 2.897-6.282 6.753-6.282 3.857 0 6.736 2.374 6.736 6.282 0 3.909-2.879 6.282-6.736 6.282Zm-.139-1.605h.279c2.6 0 4.781-1.71 4.781-4.677 0-2.966-2.181-4.676-4.781-4.676h-.279c-2.6 0-4.799 1.71-4.799 4.676 0 2.967 2.199 4.677 4.799 4.677Zm19.054-.576v-10.208h1.797v12.215h-2.477l-7.103-10.208v10.208h-1.797v-12.215h2.478l7.102 10.208Z"/><path stroke="#000" stroke-width="2.493" d="M118.716 248.389c2.918 2.529 10.156 6.187 15.76.583m0 0-.015.015m.015-.015.583-.583m0 16.343c-2.527-2.916-6.18-10.144-.598-15.745m0 0-19.344 19.344"/><rect width="287.922" height="49.857" x="88.943" y="294.506" fill="#fff" rx="4.986"/><path fill="#7F7F7F" d="M162.232 324.724h-1.797v-12.215h6.631c2.338 0 3.996 1.414 3.996 3.333 0 1.571-.96 2.635-1.955 2.984 1.274 0 1.71.576 1.71 1.797v4.101h-1.797v-3.664c0-.96-.279-1.222-1.239-1.222h-5.549v4.886Zm0-10.609v4.118h4.572c1.535 0 2.443-.873 2.443-2.094 0-1.309-.908-2.024-2.443-2.024h-4.572Zm20.038 5.88v.663h-7.398c.157 1.902 1.5 2.81 2.949 2.81h.244c1.204 0 2.059-.489 2.356-1.327h1.745c-.315 1.711-2.007 2.757-4.206 2.757-2.722 0-4.833-1.553-4.833-4.606 0-2.949 2.39-4.467 4.746-4.467 2.757 0 4.397 1.71 4.397 4.17Zm-7.311-.68h5.497c-.088-1.501-1.187-2.06-2.461-2.06h-.244c-1.518 0-2.478.786-2.792 2.06Zm13.823 5.583c-3.229 0-4.852-1.867-4.852-4.536 0-2.548 1.78-4.537 4.852-4.537 2.39 0 4.083 1.169 4.345 3.053h-1.745c-.21-1.029-1.187-1.623-2.478-1.623h-.245c-2.024 0-3.001 1.466-3.001 3.107 0 1.64.977 3.106 3.001 3.106h.245c1.291 0 2.251-.698 2.478-1.623h1.745c-.262 1.762-1.955 3.053-4.345 3.053Zm15.062-4.903v.663h-7.399c.157 1.902 1.501 2.81 2.949 2.81h.245c1.204 0 2.059-.489 2.355-1.327h1.745c-.314 1.711-2.006 2.757-4.205 2.757-2.722 0-4.834-1.553-4.834-4.606 0-2.949 2.391-4.467 4.747-4.467 2.757 0 4.397 1.71 4.397 4.17Zm-7.312-.68h5.497c-.087-1.501-1.186-2.06-2.46-2.06h-.245c-1.518 0-2.477.786-2.792 2.06Zm11.363-4.851h-1.92v-1.955h1.92v1.955Zm-.105 10.26h-1.71v-8.725h1.71v8.725Zm6.61-1.658 3.211-7.067h1.832l-4.013 8.725h-2.059l-3.979-8.725h1.885l3.123 7.067Zm14.954-3.071v.663h-7.399c.157 1.902 1.501 2.81 2.949 2.81h.245c1.204 0 2.059-.489 2.355-1.327h1.745c-.314 1.711-2.006 2.757-4.205 2.757-2.722 0-4.834-1.553-4.834-4.606 0-2.949 2.391-4.467 4.747-4.467 2.757 0 4.397 1.71 4.397 4.17Zm-7.311-.68h5.496c-.087-1.501-1.186-2.06-2.46-2.06h-.244c-1.519 0-2.478.786-2.792 2.06Zm17.32 4.554a14.002 14.002 0 0 1-1.867-.157c-.605-.105-1.093-.244-1.466-.419v-1.483c.396.186.902.349 1.519.488.616.14 1.221.216 1.814.227V319c-.57-.162-1.07-.337-1.5-.523a4.16 4.16 0 0 1-1.03-.663 2.519 2.519 0 0 1-.611-.838 3.034 3.034 0 0 1-.192-1.117c0-.57.134-1.058.402-1.465.279-.407.669-.727 1.169-.96.5-.244 1.088-.384 1.762-.419v-1.535h1.117v1.518a7.283 7.283 0 0 1 1.675.209c.512.116.977.262 1.396.436l-.471 1.292a8 8 0 0 0-1.239-.384 7.511 7.511 0 0 0-1.361-.227v3.507c.768.221 1.408.46 1.92.716.511.244.895.552 1.151.925.268.36.402.831.402 1.413 0 .814-.303 1.477-.908 1.989-.605.501-1.46.809-2.565.925v1.937h-1.117v-1.867Zm1.117-1.431c.686-.07 1.187-.227 1.501-.471.314-.256.471-.582.471-.977 0-.291-.058-.53-.175-.716-.116-.197-.319-.366-.61-.506-.28-.139-.675-.273-1.187-.401v3.071Zm-1.117-8.079c-.418.023-.762.099-1.029.227a1.41 1.41 0 0 0-.611.471 1.223 1.223 0 0 0-.192.68c0 .303.052.565.157.786.116.209.308.389.576.541.268.139.634.267 1.099.383v-3.088Zm9.061 10.365h-1.797v-12.215h1.797v12.215Zm5.181 0h-1.798v-12.215h6.631c2.339 0 3.996 1.414 3.996 3.333 0 1.571-.959 2.635-1.954 2.984 1.274 0 1.71.576 1.71 1.797v4.101h-1.797v-3.664c0-.96-.279-1.222-1.239-1.222h-5.549v4.886Zm0-10.609v4.118h4.572c1.535 0 2.443-.873 2.443-2.094 0-1.309-.908-2.024-2.443-2.024h-4.572Zm17.837 10.783c-3.856 0-6.753-2.373-6.753-6.281 0-3.909 2.897-6.282 6.753-6.282 3.856 0 6.736 2.373 6.736 6.282 0 3.908-2.88 6.281-6.736 6.281Zm-.14-1.605h.28c2.6 0 4.781-1.71 4.781-4.676 0-2.967-2.181-4.677-4.781-4.677h-.28c-2.6 0-4.798 1.71-4.798 4.677 0 2.966 2.198 4.676 4.798 4.676Zm19.055-.576v-10.208h1.797v12.215h-2.478l-7.102-10.208v10.208h-1.797v-12.215h2.478l7.102 10.208Z"/><path stroke="#000" stroke-width="2.493" d="M131.46 328.159c-2.918-2.529-10.156-6.187-15.759-.583m0 0 .014-.015m-.014.015-.584.584m0-16.344c2.527 2.916 6.181 10.144.598 15.745m0 0 19.345-19.344"/><path stroke="#000" stroke-width="1.5" d="M68 63.75h431.25v574.5H68a3.25 3.25 0 0 1-3.25-3.25V67A3.25 3.25 0 0 1 68 63.75Z"/><defs><clipPath id="a"><path fill="#fff" d="M118.885 194.821h29.914v29.914h-29.914z"/></clipPath><clipPath id="b"><path fill="#fff" d="M118.885 374.306h29.914v29.914h-29.914z"/></clipPath><clipPath id="c"><path fill="#fff" d="M118.885 434.133h29.914v29.914h-29.914z"/></clipPath><clipPath id="e"><path fill="#fff" d="M283.412 593.001h17.45v17.45h-17.45z"/></clipPath><clipPath id="f"><path fill="#fff" d="M140.074 593.001h17.45v17.45h-17.45z"/></clipPath><clipPath id="g"><path fill="#fff" d="M108.885 184.821h29.914v29.914h-29.914z"/></clipPath><clipPath id="h"><path fill="#fff" d="M108.885 364.306h29.914v29.914h-29.914z"/></clipPath><clipPath id="i"><path fill="#fff" d="M108.885 424.133h29.914v29.914h-29.914z"/></clipPath><clipPath id="k"><path fill="#fff" d="M273.412 583.001h17.45v17.45h-17.45z"/></clipPath><clipPath id="l"><path fill="#fff" d="M130.074 583.001h17.45v17.45h-17.45z"/></clipPath><filter id="d" width="159.106" height="54.407" x="92.928" y="578.523" color-interpolation-filters="sRGB" filterUnits="userSpaceOnUse"><feFlood flood-opacity="0" result="BackgroundImageFix"/><feColorMatrix in="SourceAlpha" result="hardAlpha" values="0 0 0 0 0 0 0 0 0 0 0 0 0 0 0 0 0 0 127 0"/><feOffset dy="4"/><feGaussianBlur stdDeviation="5.5"/><feComposite in2="hardAlpha" operator="out"/><feColorMatrix values="0 0 0 0 0 0 0 0 0 0 0 0 0 0 0 0 0 0 0.04 0"/><feBlend in2="BackgroundImageFix" result="effect1_dropShadow_2139_3121"/><feBlend in="SourceGraphic" in2="effect1_dropShadow_2139_3121" result="shape"/></filter><filter id="j" width="159.106" height="54.407" x="82.928" y="568.523" color-interpolation-filters="sRGB" filterUnits="userSpaceOnUse"><feFlood flood-opacity="0" result="BackgroundImageFix"/><feColorMatrix in="SourceAlpha" result="hardAlpha" values="0 0 0 0 0 0 0 0 0 0 0 0 0 0 0 0 0 0 127 0"/><feOffset dy="4"/><feGaussianBlur stdDeviation="5.5"/><feComposite in2="hardAlpha" operator="out"/><feColorMatrix values="0 0 0 0 0 0 0 0 0 0 0 0 0 0 0 0 0 0 0.04 0"/><feBlend in2="BackgroundImageFix" result="effect1_dropShadow_2139_3121"/><feBlend in="SourceGraphic" in2="effect1_dropShadow_2139_3121" result="shape"/></filter></defs></svg>