<svg xmlns="http://www.w3.org/2000/svg" width="354" height="235" fill="none"><path stroke="#777" stroke-dasharray="1.86 1.86" stroke-width=".929" d="M.465.972h353.071v28.803H.465zM.465 92.026h353.071v-29.8H.465z"/><path stroke="#777" stroke-dasharray="1.86 1.86" stroke-width=".929" d="M324.732 92.027V.973h28.803v91.054z"/><path stroke="#777" stroke-dasharray="1.86 1.86" stroke-width=".929" d="M324.732 92.027V.973h28.803v91.054zM.465 92.027V.972h28.803v91.055z"/><path fill="#000" d="m79.06 45.667-1.605-2.884-5.445-9.785-1.17-2.103c-.201-.365-.578-.59-.983-.59H53.416c-.406 0-.782.225-.983.59l-1.31 2.354-5.752 10.341a.51.51 0 0 1-.569.242.516.516 0 0 1-.373-.505V38.41c0-4.47-3.504-8.106-7.81-8.106h-6.682c-.627 0-1.134.526-1.134 1.177v6.929c0 3.233 1.854 6.122 4.724 7.363.188.08.311.272.311.48v.004c0 .212-.123.4-.31.484-2.854 1.233-4.709 4.105-4.725 7.317v6.98c0 .65.507 1.177 1.134 1.177h6.677c4.307 0 7.811-3.637 7.811-8.107v-4.915c0-.238.156-.446.373-.506a.506.506 0 0 1 .569.246l6.125 11.005.937 1.686c.2.366.577.59.983.59h16.441c.405 0 .782-.224.983-.59l1.74-3.127 4.09-7.354.057-.106 1.879-3.378.45-.811c.209-.366.209-.816.008-1.181Zm-17.3 6.785c-3.206 0-5.818-2.778-5.818-6.194s2.608-6.194 5.817-6.194c3.206 0 5.818 2.778 5.818 6.194s-2.612 6.194-5.818 6.194ZM152.982 29.493c-9.654 0-16.384 7.308-16.384 16.633 0 9.33 6.73 16.634 16.384 16.634 9.653 0 16.384-7.308 16.384-16.634 0-9.325-6.731-16.633-16.384-16.633Zm.29 28.185c-3.938.107-6.288-3.743-6.476-11.305-.209-8.327 1.957-11.688 5.842-11.794 4.041-.11 6.325 3.182 6.534 11.458.192 7.614-1.912 11.535-5.9 11.641ZM101.516 30.046H88.764c-.709 0-1.15.459-1.15 1.194v1.746c0 .782.265 1.058.929 1.334l.839.323c.93.365 1.24.87 1.24 1.882v19.208c0 1.011-.31 1.517-1.24 1.882l-.84.323c-.663.276-.929.552-.929 1.334v1.746c0 .735.442 1.194 1.15 1.194h12.753c.709 0 1.151-.459 1.151-1.194v-1.746c0-.782-.266-1.058-.93-1.334l-.839-.323c-.93-.365-1.24-.871-1.24-1.882V36.525c0-1.011.31-1.517 1.24-1.882l.839-.323c.664-.276.93-.552.93-1.334V31.24c0-.735-.442-1.194-1.151-1.194ZM135.594 57.985l-.488-.276c-1.195-.689-2.079-1.194-3.234-3.08l-4.163-6.938c-.221-.37-.09-.642.311-.735 3.496-.965 5.49-3.08 5.49-6.85 0-7.116-5.347-10.064-16.773-10.064l-10.149.093c-.708.094-1.065.506-1.065 1.194v1.746c0 .782.267 1.058.84 1.288l1.019.412c.839.37 1.151.828 1.151 1.746V55.73c0 1.011-.312 1.517-1.241 1.882l-.839.323c-.663.276-.93.552-.93 1.334v1.746c0 .735.443 1.194 1.151 1.194h12.753c.753 0 1.15-.459 1.15-1.194v-1.746c0-.782-.266-1.058-.929-1.334l-.844-.323c-.929-.365-1.24-.87-1.24-1.882v-7.125c0-.412.131-.552.442-.552.356 0 .577.276.884.828l6.068 11.395c.753 1.423 1.326 1.929 2.878 1.929h7.749c.754 0 1.065-.412 1.065-1.011V59.54c.008-.727-.213-1.05-1.056-1.555ZM119.21 44.198h-.975c-.364 0-.626-.272-.626-.65v-8.777c0-.379.262-.65.626-.65h1.024c3.443 0 5.576 1.295 5.576 4.89 0 3.59-1.65 5.187-5.625 5.187ZM322.198 34.643l.839-.323c.663-.276.929-.552.929-1.334V31.24c0-.735-.397-1.194-1.15-1.194h-12.753c-.708 0-1.15.459-1.15 1.194v1.746c0 .782.266 1.058.929 1.334l.839.323c.93.365 1.241.87 1.241 1.882v5.79c0 .324-.221.553-.532.553h-9.384c-.311 0-.532-.23-.532-.552v-5.791c0-1.011.311-1.517 1.24-1.882l.844-.323c.663-.276.929-.552.929-1.334V31.24c0-.735-.397-1.194-1.15-1.194h-12.753c-.708 0-1.15.459-1.15 1.194v1.746c0 .782.266 1.058.929 1.334l.839.323c.93.365 1.241.87 1.241 1.882v19.208c0 1.011-.311 1.517-1.241 1.882l-.839.323c-.663.276-.929.552-.929 1.334v1.746c0 .735.442 1.194 1.15 1.194h12.753c.753 0 1.15-.459 1.15-1.194v-1.746c0-.782-.266-1.058-.929-1.334l-.844-.323c-.929-.365-1.24-.871-1.24-1.882v-7.63c0-.324.221-.553.532-.553h9.388c.311 0 .532.23.532.552v7.63c0 1.012-.311 1.518-1.241 1.883l-.839.323c-.663.276-.929.552-.929 1.334v1.746c0 .735.442 1.194 1.15 1.194h12.753c.753 0 1.15-.459 1.15-1.194v-1.746c0-.782-.266-1.058-.929-1.334l-.839-.323c-.93-.365-1.241-.871-1.241-1.882V36.525c-.004-1.011.307-1.517 1.237-1.882ZM277.926 41.81l-5.404-1.653c-2.657-.828-4.073-1.792-4.073-3.398 0-1.564 1.416-2.558 3.586-2.575 3.046-.026 5.76 1.423 9.654 5.79.532.6 1.105.83 1.903.37l.93-.552c.798-.459.917-1.143.532-1.84l-3.869-6.938c-.446-.82-.753-1.38-1.683-1.38h-.425c-1.065 0-1.196.505-2.26.505-1.372 0-2.846-.552-5.359-.552-6.952 0-11.468 3.492-11.468 9.648 0 5.145 3.587 8.043 8.016 9.56l5.757 1.975c2.833.965 4.339 2.07 4.339 4.092 0 2.158-1.592 3.122-4.204 3.122-3.984 0-7.439-2.345-11.07-7.307-.578-.782-1.151-.918-1.904-.552l-1.462.735c-.663.322-.851 1.015-.442 1.882l4.078 8.684c.368.782.884 1.104 1.506 1.104h.529c.974 0 1.637-.688 2.525-.688 1.638 0 3.276.829 6.952.829 7.349 0 12.577-3.54 12.577-10.337-.004-6.297-4.037-8.96-9.261-10.524ZM255.505 30.046h-12.753c-.708 0-1.15.459-1.15 1.194v1.746c0 .782.266 1.058.929 1.334l.839.323c.929.365 1.241.87 1.241 1.882v19.208c0 1.011-.312 1.517-1.241 1.882l-.839.323c-.663.276-.929.552-.929 1.334v1.746c0 .735.442 1.194 1.15 1.194h12.753c.708 0 1.15-.459 1.15-1.194v-1.746c0-.782-.266-1.058-.929-1.334l-.84-.323c-.929-.365-1.24-.871-1.24-1.882V36.525c0-1.011.311-1.517 1.24-1.882l.84-.323c.663-.276.929-.552.929-1.334V31.24c0-.735-.442-1.194-1.15-1.194ZM236.274 30.186c-.295-.531-.577-.875-1.24-.875h-.881c-.487 0-.757.119-1.125.416-.402.319-.75.319-1.618.319h-16.49c-.708 0-1.15.458-1.15 1.193v1.747c0 .781.266 1.058.929 1.334l.839.322c.929.366 1.241.871 1.241 1.883v19.208c0 1.01-.312 1.516-1.241 1.882l-.839.322c-.663.277-.929.553-.929 1.335v1.746c0 .735.442 1.194 1.15 1.194h13.371c.753 0 1.15-.46 1.15-1.194v-1.746c0-.782-.221-1.148-.929-1.334l-1.462-.413c-.974-.276-1.24-.781-1.24-1.792v-8.09c0-.323.221-.552.532-.552h.753c3.456 0 5.581 1.84 7.75 4.457.311.37.709.505 1.241.23l1.105-.6c.487-.276.667-.718.442-1.194l-3.43-7.307c-.197-.417-.443-.672-.95-.672h-.545c-.372 0-.61.106-.95.387a1.79 1.79 0 0 1-1.154.42h-4.262c-.311 0-.532-.229-.532-.552v-5.88c0-1.653.618-2.298 2.301-2.298 2.878 0 6.82 2.621 9.121 5.009.397.412.884.505 1.417.182l1.195-.781c.397-.276.667-.71.397-1.194l-3.967-7.112ZM201.666 58.354l-1.019-.365c-.929-.323-1.24-.875-1.24-1.886v-19.99c0-1.011.311-1.517 1.24-1.882l.843-.323c.664-.276.93-.553.93-1.334V31.24c0-.735-.397-1.194-1.151-1.194h-8.503c-.708 0-1.15.459-1.15 1.194v1.334c0 .782.266 1.058.929 1.334l.839.323c.93.365 1.241.87 1.241 1.882v11.259a.337.337 0 0 1-.332.344.328.328 0 0 1-.254-.128L182.736 31.15c-.283-.446-.569-.739-.864-.883-.295-.145-.7-.217-1.216-.217h-8.433c-.709 0-1.151.459-1.151 1.194v1.746c0 .782.266 1.058.93 1.334l.839.323c.929.366 1.24.871 1.24 1.882v19.62c0 1.011-.311 1.517-1.24 1.887l-.839.322c-.664.277-.93.553-.93 1.335v1.334c0 .735.442 1.193 1.151 1.193h8.503c.753 0 1.15-.458 1.15-1.193v-1.334c0-.782-.266-1.058-.929-1.334l-.839-.323c-.93-.37-1.241-.876-1.241-1.887V43.48c0-.19.148-.343.332-.343.102 0 .196.05.254.127l12.515 17.849c.278.446.569.739.864.883.294.145.7.217 1.216.217h7.397c.754 0 1.151-.459 1.151-1.194v-1.334c0-.782-.266-1.1-.93-1.33Z"/><path stroke="#777" stroke-dasharray="1.86 1.86" stroke-width=".929" d="M115.465 143.465h108.071v29.071H115.465zM115.465 205.465h108.071v29.071H115.465z"/><path stroke="#777" stroke-dasharray="1.86 1.86" stroke-width=".929" d="M194.465 234.52v-91.055h28.803v91.055zM115.465 234.52v-91.055h28.803v91.055z"/><path fill="#000" d="m194.06 188.16-1.605-2.885-5.445-9.785-1.17-2.103a1.127 1.127 0 0 0-.983-.59h-16.441c-.406 0-.782.225-.983.59l-1.31 2.354-5.752 10.341a.509.509 0 0 1-.569.242.516.516 0 0 1-.373-.505v-4.916c0-4.469-3.504-8.106-7.811-8.106h-6.681c-.627 0-1.134.527-1.134 1.177v6.929c0 3.233 1.854 6.122 4.724 7.363a.523.523 0 0 1 .311.48v.004a.53.53 0 0 1-.311.485c-2.853 1.232-4.708 4.104-4.724 7.316v6.98c0 .65.507 1.177 1.134 1.177h6.677c4.307 0 7.811-3.637 7.811-8.106v-4.916c0-.238.156-.446.373-.506a.504.504 0 0 1 .569.247l6.125 11.004.937 1.686c.201.366.577.591.983.591h16.441c.405 0 .782-.225.983-.591l1.739-3.127 4.09-7.354.058-.106 1.879-3.378.45-.811a1.21 1.21 0 0 0 .008-1.181Zm-17.301 6.785c-3.205 0-5.817-2.779-5.817-6.195 0-3.416 2.608-6.194 5.817-6.194 3.206 0 5.818 2.778 5.818 6.194s-2.612 6.195-5.818 6.195Z"/></svg>