<svg xmlns="http://www.w3.org/2000/svg" width="273" height="218" fill="none"><g clip-path="url(#a)"><path fill="#F2B2FF" d="M130.464 174.711c.258-.454.537-.886.827-1.314.146-.168.286-.339.433-.503a82.979 82.979 0 0 1 7.369-7.338 82.042 82.042 0 0 1 10.025-7.513c.361-.075.748-.239 1.041-.289 7.048-1.096 12.971.767 17.896 5.953a.74.74 0 0 0 .236.321c2.792 5.233 7.18 9.623 12.545 12.256 13.732 6.86 29.226 1.567 36.878-9.79a1.4 1.4 0 0 0 .344-.403 91.453 91.453 0 0 1 1.954-2.127c2.351-2.545 5.548-4.158 8.754-5.357 3.082-1 6.453-.978 9.428.292.01 0 .021 0 .035.004a81.85 81.85 0 0 1 18.135 16.425.833.833 0 0 0 .212.182c.15.171.307.335.472.496-.487.85-.977 1.699-1.467 2.548-4.567 7.935-9.131 15.872-13.697 23.806a980.586 980.586 0 0 1-1.833 3.187.866.866 0 0 0-.104.172c-1.829 2.962-3.6 6.082-6.184 8.437-1.457 1.446-3.404 2.359-5.455 2.295a.767.767 0 0 0-.186-.025h-.211c-.057-.004-.111-.007-.168-.014a.862.862 0 0 0-.172.014h-61.47a2.733 2.733 0 0 0-.612.014c-3.966-.21-7.935-.36-11.579-2.066-2.19-1.207-3.786-3.227-5.264-5.183-.609-.945-1.278-1.87-1.811-2.855a.722.722 0 0 0-.287-.346c-5.708-9.819-11.421-19.634-17.129-29.449.003-.01.011-.021.014-.035.34-.646.698-1.171 1.027-1.795h.004Zm111.087 22.956c.365.171.766 0 .952-.346.601-1.128 1.138-2.081 1.732-3.17.412-.746.855-1.488 1.328-2.202a.72.72 0 0 0-.215-.988.724.724 0 0 0-.991.214c-.795 1.199-1.557 2.612-2.223 3.829a97.099 97.099 0 0 0-.93 1.71c-.183.343.007.789.347.949v.004Zm-1.149 2.919c.376.015.748-.292.748-.681 0-.389-.283-.728-.684-.746-.375-.014-.748.292-.748.681 0 .39.283.729.684.746Zm-24.27-27.192a.726.726 0 0 0 .695-.736c0-.389-.358-.703-.738-.692a.723.723 0 0 0-.694.735c0 .389.358.703.737.693Zm-8.461 6.652a.725.725 0 0 0 .935-.225c.948-.499 1.979-.842 2.841-1.495 1.178-.799 2.187-1.802 3.221-2.766a.72.72 0 0 0-.017-1.01c-.512-.482-1.056.014-1.421.407-.39.35-.77.71-1.156 1.067-.763.66-1.507 1.238-2.377 1.702-.787.429-3.386 1.128-2.026 2.32Zm-34.688-4.739a.725.725 0 0 0 .694-.736c0-.389-.357-.703-.737-.692a.723.723 0 0 0-.694.735c0 .389.358.703.737.693Zm-5.633-6.111c.676.939 1.213 1.981 1.943 2.881.476.496 1.149 1.584 1.893.906a.72.72 0 0 0-.017-1.01c-1.439-1.328-2.187-3.198-3.451-4.675-1.668-2.078-3.597-4.066-5.987-5.304-1.257-.628-2.602-1.028-3.962-1.339-.351-.167-.781-.067-.97.286-.179.332-.065.799.286.971 1.603.496 3.286.842 4.731 1.752 2.194 1.456 4.02 3.394 5.534 5.532Zm-7.989 44.214c.401-.014.687-.353.687-.742s-.365-.7-.744-.685c-.401.014-.687.353-.687.742s.365.699.744.685Zm-15.229-14.765c1.894 3.822 3.873 7.606 6.593 10.903 1.353 1.603 3.278 2.595 5.165 3.445.447.267 1.066.289 1.281-.275.275-.843-.759-1.021-1.317-1.292-1.271-.696-2.631-1.317-3.647-2.374-2.09-2.341-3.723-5.136-5.168-7.88a132.132 132.132 0 0 1-1.522-2.913c-.125-.385-.511-.635-.916-.506-.358.114-.601.535-.465.895l-.004-.003Z"/><path fill="#fff" d="M232.202 17.981a9.73 9.73 0 0 0-1.85 1.356c-1.374 1.257-2.065 3.255-1.933 5.09.237 1.606.992 2.98 2.03 4.172a19.596 19.596 0 0 1-4.8-1.592c-1.36-.696-2.781-1.47-3.847-2.545a.715.715 0 0 0-.237-.196c-.017-.589-.01-1.174.022-1.749a.691.691 0 0 0 .437-.228c.83-.717 1.828-1.51 2.78-2.006 2.316-1.238 4.829-1.988 7.395-2.306l.003.004Z"/><path fill="#F2B2FF" d="M114.913 142.392a.707.707 0 0 0 .136-.439.707.707 0 0 1 .132-.257c.326-.349.67-.724 1.11-.931.605-.186 1.428-.089 1.779.496.143.203.329.521.415.732.039.085.071.171.107.253-.018.675-.011 1.349.014 2.017.09 4.193-.071 8.419.326 12.598a.627.627 0 0 0-.071.161c-.033.071-.058.157-.094.229-.393.713-1.216 1.395-2.068 1.309-.938-.167-1.299-1.017-1.668-1.777-.05-1.563-.115-3.127-.122-4.686-.014-3.234.079-6.471.007-9.701l-.003-.004Z"/><path fill="#CE6AE2" d="M229.457 37.054c1.754.354 3.504.39 5.276.464 2.197.015 4.409-.003 6.582-.374.472-.104.944-.225 1.413-.357.115.175.24.342.262.556.039.275.096.557.064.836-.025.192-.061.392-.011.578a13.579 13.579 0 0 1-5.282 2.609c-3.272.585-6.128-.14-8.49-1.685-.097-.435-.326-.846-.304-1.31-.007-.382.057-.781.286-1.095.068-.075.143-.147.208-.222h-.004ZM225.452 28.506c1.979.886 4.116 1.45 6.231 1.738 5.179.693 10.469-.42 15.244-2.434.851 1.018 1.095 2.492.801 3.744-.014.56-.282 1.018-.497 1.517a.738.738 0 0 0-.025.329c-.018.017-.036.032-.054.053-1.789.978-3.747 1.72-5.726 2.227-3.071.536-6.382.496-9.442.268-2.516-.06-4.807-1.057-7.09-2.002-.097-.275-.251-.554-.315-.803-.229-.886-.122-1.81-.029-2.706.111-.703.455-1.378.902-1.927v-.004Z"/><path fill="#CE6AE2" d="M237.764 27.764c-.701.339-1.432.639-2.198.792-1.141.282-2.369.471-3.4-.239-1.263-1.167-2.283-2.737-2.351-4.497.129-1.356.623-2.73 1.707-3.612 1.557-1.399 3.758-2.227 5.816-1.62 2.949.867 3.232 3.24 3.293 5.914-.082 1.599-1.611 2.57-2.863 3.265l-.004-.003Zm-.666-7.131c-.962-.493-2.097-.271-3.045.318.032.028.064.06.089.092.186.218.344.472.404.753.072.332.061.725-.175.996s-.58.464-.952.457a1.402 1.402 0 0 1-1.109-.368 2.851 2.851 0 0 0-.276 1.178c0 .75.365 1.464 1.256 1.988 1.496.996 3.701.371 4.789-.956 1.314-1.689.905-3.462-.981-4.451v-.007Z"/><path fill="#F2B2FF" d="M112.73 136.15c.007.614-.083 1.217-.14 1.824-.419 4.094-2.183 7.616-6.568 8.387-1.288.197-2.401.164-3.657.147-.258.017-.537-.068-.773.035H71.839a.827.827 0 0 0-.308-.068c-1.378.008-2.92.008-4.263.111-.26.018-.594.004-.887.054a.761.761 0 0 0-.365-.193c-.716-1.067-1.872-2.17-2.309-2.513-2.39-2.038-5.147-3.758-7.566-5.735-1.489-1.232-2.767-2.57-4.037-3.994-2.14-2.434-4.248-4.997-5.469-8.031-1.08-2.355-1.69-4.854-2.194-7.384-.465-2.042-.891-4.097-1.099-6.182-.458-4.161-.683-8.269-.486-12.442-.03-3.4.136-6.895.837-10.203.3-1.72.798-3.48 1.074-5.183.365-1.403.383-2.977 1.18-4.219a.57.57 0 0 1 .209-.16c.654-.093 1.32-.114 1.982-.132.902-.007 1.797-.114 2.699-.129.415.029.834.043 1.249.043a.71.71 0 0 0 .383.114H80.16a.617.617 0 0 0 .18.04c.096-.015.192-.025.285-.04h2.187c.09 0 .172-.017.25-.05 1.486.104 2.968.393 4.428.614 6.131 1.146 11.976 3.958 16.403 8.338 1.686 1.617 3.039 3.494 4.094 5.571 1.146 2.227 2.201 4.526 2.957 6.917 1.8 5.528 1.893 11.425 1.653 17.182-.164 2.837-.168 5.685-.268 8.522-.043 1.446-.043 2.924.064 4.387a.727.727 0 0 0-.071.407c.107 1.113.254 2.227.411 3.337-.014.21-.007.432-.011.617l.008.011Zm-65.426-25.765a38.234 38.234 0 0 1-.43-2.12c-.246-2.538-.078-5.001-.1-7.531.062-1.503.08-3.009.208-4.508-.04-.785.623-2.323-.547-2.48-1.096.043-.673 1.502-.863 2.23-.304 3.502-.211 7.017-.25 10.529-.018 1.424.279 2.823.594 4.208a.73.73 0 0 0 .862.532.719.719 0 0 0 .53-.86h-.004Zm.555 2.288c-.873-.411-1.668 1.17-.762 1.581.877.41 1.664-1.175.762-1.581Zm61.002-10.986c-.269-.96-.523-1.924-.92-2.841-1.024-2.566-2.57-4.983-4.506-6.963-.362-.571-1.296-.31-1.314.367-.028.393.333.678.58.935 1.528 1.546 2.513 3.387 3.55 5.25.272.714.559 1.424.806 2.145.297.679.207 2.117 1.267 1.963.365-.085.64-.485.529-.86l.008.004Zm.035 2.216c-.379-.014-.74.3-.74.689 0 .389.286.725.69.739.38.014.741-.3.741-.689 0-.389-.286-.724-.691-.739Z"/><path fill="#CE6AE2" d="M120.65 138.002c1.124-2.794 3.107-5.118 4.814-7.559.698-.91 1.285-1.895 1.89-2.866.404-.407.816-.799 1.213-1.163 6.102-5.693 14.127-8.841 22.316-9.933.075-.011.153-.014.239-.018h83.622a.72.72 0 0 0 .146.082c6.01.225 11.861 2.127 17.058 5.107 2.906 1.582 5.741 3.334 8.114 5.661.419.421.762.753 1.095 1.156 2.459 4.226 4.914 8.452 7.373 12.678a.792.792 0 0 0 .275.26c1.468 2.374 3.293 4.915 2.663 7.827-.501 2.417-1.836 4.54-2.91 6.728-.236.568-.787 1.057-.923 1.649l-3.404 5.914c-.783 1.363-1.567 2.727-2.351 4.087-.365.214-.698.631-1.027.828-1.711 1.185-3.93 1.384-5.927.96-1.443-.182-2.677-.975-3.744-1.92-.49-.329-.816-.982-1.353-1.214-7.09-6.621-15.332-12.017-24.269-15.811a80.874 80.874 0 0 0-3.071-1.231c-.809-18.503-19.252-31.558-37.101-26.105-11.388 3.312-19.717 13.988-20.411 25.68a.747.747 0 0 0-.415.043c-10.154 3.683-19.563 9.39-27.545 16.657a.75.75 0 0 0-.279.157c-1.152.867-2.24 1.852-3.561 2.459-3.16 1.52-7.122.678-9.438-1.931-.172-.164-.358-.4-.562-.6-1.16-2.191-2.011-4.525-2.623-6.92-.437-3.227-.459-6.514-.48-9.758.054-3.623-.462-7.377.576-10.9v-.004Zm139.784-3.355c.372.022.755-.281.755-.671 0-.389-.268-.728-.673-.753-.372-.021-.755.282-.755.671 0 .389.269.728.673.753Zm-11.772-10.261a.719.719 0 0 0 .723.297c1.375.578 2.66 1.367 3.887 2.202.87.696 1.761 1.37 2.567 2.141.891.925 1.632 1.981 2.433 2.984.548.753 1.7-.022 1.181-.807-1.217-1.559-2.369-3.198-3.98-4.383-1.764-1.463-3.736-2.791-5.898-3.569-.648-.203-1.324.543-.913 1.135Zm-11.617 29.417c.379.014.741-.3.741-.689a.724.724 0 0 0-.691-.739c-.379-.014-.741.3-.741.689 0 .389.29.724.691.739Zm-9.223-5.133c.071.307.35.532.655.55 1.947.635 3.618 1.959 5.336 3.044.734.575 1.625-.517.902-1.109-.977-.711-2.019-1.314-3.046-1.953-1.023-.574-2.094-1.406-3.314-1.392a.724.724 0 0 0-.533.86Zm-99.523-16.332c.293.243.766.218 1.009-.089a25.585 25.585 0 0 1 1.507-1.713c2.147-2.113 4.692-3.833 7.24-5.422a20.494 20.494 0 0 1 5.38-2.63c1.048.1 1.309-1.296.229-1.445-.566-.036-1.088.246-1.615.421-1.195.482-2.405.963-3.503 1.641-1.625 1.05-3.275 2.003-4.8 3.198-2.079 1.399-3.994 3.056-5.54 5.036a.726.726 0 0 0 .089 1.007l.004-.004Zm-1.79 3.405c.383.011.734-.307.734-.696a.72.72 0 0 0-.698-.731c-.383-.011-.734.306-.734.696 0 .389.297.72.698.731ZM237.753 106.195c-.783.524-1.549.874-2.405 1.177-.293.14-.733.204-1.095.34H153.22a.53.53 0 0 0-.108-.058 11.314 11.314 0 0 1-3.976-1.948c-1.983-1.46-3.55-3.505-4.173-5.907-.322-1.56.182-3.166.676-4.64.501-.917.881-1.892 1.378-2.812a.792.792 0 0 0 .075-.236l3.984-6.924a.504.504 0 0 0 .043-.1c.021-.043.046-.09.068-.128 1.388-2.627 4.252-4.187 6.986-5.072 1.181-.214 2.398-.528 3.608-.671h63.453a.714.714 0 0 0 .501-.21c.923-.022 1.847.014 2.749.242 1.392.278 2.806.732 3.908 1.656 1.464 1.346 2.62 3.002 3.754 4.626.194.214.348.453.494.7.015.074.04.15.083.217 1.338 2.298 2.673 4.597 4.012 6.899.032.078.071.153.118.218.633 1.267 1.131 2.634 1.238 4.054-.018 3.344-1.603 6.621-4.334 8.573l-.004.004Zm-88.95-13.081c0 .389.347.707.73.7a.722.722 0 0 0 .702-.729c0-.389-.347-.706-.73-.7a.722.722 0 0 0-.702.729Zm5.086-8.377c-.294.26-.498.621-.719.943-.838 1.16-1.618 2.359-2.28 3.626-.326.632-1.432 1.413-.616 2.088.319.228.766.15.999-.165.64-.785 1.123-1.67 1.603-2.555a73.577 73.577 0 0 1 1.918-2.823c.702-.621-.153-1.695-.905-1.114Zm76.57-2.212c-.465-.914-1.789-.186-1.256.688.462.914 1.79.19 1.256-.688Zm8.064 10.164c-.132-.4-.447-.892-.641-1.213-.798-1.385-1.668-2.738-2.462-4.115-.845-1.35-1.586-2.649-2.785-3.702-.708-.596-1.632.468-.93 1.085 1.9 1.824 2.924 4.298 4.363 6.443.358.66.805 1.277 1.099 1.97.332.87 1.642.425 1.352-.468h.004Z"/><path fill="#F2B2FF" d="M181.408 174.975c-9.702-4.779-15.841-15.54-14.974-26.269.694-12.003 10.025-22.578 21.828-24.837 17.649-3.612 34.03 10.707 32.763 28.595-1.317 19.441-22.23 31.266-39.62 22.511h.003Zm36.983-28.068c-2.244-15.507-18.672-25.144-33.361-19.608-9.599 3.451-16.388 13.184-16.234 23.367-.115 12.706 10.193 23.845 22.909 24.726 15.895 1.381 29.137-12.763 26.686-28.481v-.004Z"/><path fill="#fff" d="M195.42 173.986c-14.148 1.096-26.184-10.907-25.142-24.969.329-5.097 2.423-10.09 5.805-13.895a23.633 23.633 0 0 1 9.95-6.667c-.008 0-.011.004-.018.007l.064-.021h-.011l-.035.011c13.321-4.658 27.963 3.669 30.726 17.452 2.892 13.752-7.319 27.161-21.342 28.082h.003Zm-14.327-21.418c2.484 2.206 4.514 4.875 7.023 7.052.723.586 1.632-.492.916-1.095-1.346-1.153-2.531-2.488-3.751-3.766-.974-1.085-1.986-2.134-3.078-3.101-.276-.314-.752-.396-1.07-.097-.276.257-.315.736-.04 1.007Zm-.572-6.285c2.373 2.926 4.96 5.696 7.43 8.548 2.38 2.648 4.946 5.125 7.351 7.748.641.668 1.686-.278 1.049-.971-3.085-3.319-6.331-6.488-9.284-9.929-1.757-2.063-3.608-4.058-5.326-6.146-.501-.714-1.635-.032-1.217.746l-.003.004Zm4.123-.525a214.299 214.299 0 0 1 6.421 6.581c1.084 1.164 2.165 2.349 3.414 3.341.723.582 1.632-.492.916-1.096-1.635-1.324-2.899-2.851-4.337-4.347a259.978 259.978 0 0 0-5.362-5.45c-.644-.671-1.682.282-1.049.971h-.003Zm9.105-4.758c-.48-.781-1.664-.124-1.249.7.315.596.862 1.021 1.338 1.485 1.199 1.106 2.459 2.266 3.622 3.362 1.536 1.477 2.978 3.044 4.514 4.525.698.65 1.689-.381.98-1.038-2.702-2.738-5.483-5.532-8.346-8.084-.297-.304-.648-.571-.859-.95Zm9.982 4.394c-1.224-1.192-2.487-2.245-3.611-3.416-.433-1.427-2.617-.139-.523 1.51.759.71 1.643 1.51 2.355 2.184.48.407 1.067 1.321 1.743.728.272-.253.319-.738.04-1.006h-.004Zm.515 12.592c-5.483-4.312-9.699-9.972-14.702-14.794-1.01-1.028-2.27-1.874-3.071-3.077-.387-.821-1.639-.314-1.321.543.816 1.502 2.352 2.466 3.525 3.676 4.338 4.326 8.247 9.062 12.771 13.209a20.039 20.039 0 0 0 2.032 1.649c.791.486 1.55-.671.77-1.203l-.004-.003Z"/><path fill="#F2B2FF" d="M158.642 115.035h-6.331a.588.588 0 0 0-.283-.039c-.143.011-.283.029-.422.039h-23.071c-.354-.042-.762.011-1.077-.071-.902-.211-1.786-1.181-1.743-2.127-.065-1.424.69-2.795 2.029-3.366a17.237 17.237 0 0 1 2.226-.492c.315-.068.745.01 1.174.075.097.05.208.082.322.082h121.706c.201.014.401.028.601.035 1.725.229 3.773.054 5.172 1.239.755.831 1.034 2.048.63 3.105-.261.76-.716 1.617-1.646 1.51-.036 0-.068.007-.104.01h-99.187.004Zm39.173-4.397c-.376-.014-.748.293-.748.682 0 .389.282.728.683.746.376.014.748-.293.748-.682 0-.389-.282-.728-.683-.746Zm21.782-.018c-1.664-.307-3.389.057-5.079-.114-2.816.093-5.619.018-8.436-.018-1.288 0-2.577-.042-3.865-.046-.787.089-2.573-.432-2.552.782.05.567.626.699 1.077.635.641-.014 1.275.014 1.912.018 2.777.01 5.547.078 8.325.107 1.589.021 3.174-.107 4.76-.007 1.12.053 2.247-.136 3.36-.011.91.328 1.414-1.017.494-1.346h.004Z"/><path fill="#CE6AE2" d="M203.899 54.507c.064 1.71.14 3.423.222 5.133-.022.185-.011.41.032.667 0 .071.007.143.011.21-.143 2.692-2.706 4.49-5.018 5.365a17.708 17.708 0 0 1-3.851.996 19.852 19.852 0 0 1-4.717-.586c-2.366-.574-4.624-1.27-6.636-2.595-1.335-.927-2.652-1.905-3.801-3.058-.172-.179-.34-.396-.547-.528a65.316 65.316 0 0 1-.083-2.763c-.093-6.453-.809-12.92-.286-19.37.251-3.483.734-6.991 2.151-10.21 1.002-2.174 2.119-4.116 3.504-6.004a33.644 33.644 0 0 1 4.81-4.347c3.343-2.63 7.416-4.265 11.697-4.365h-.011c-.015 0-.029 0-.043.004.304-.054.669.01.966-.075h9.424c.082.16.193.314.283.46 2.197 3.78 3.332 8.534 2.809 12.87-.272 2.417-.673 4.876-1.929 7.003-.336.507-.641 1.046-.995 1.506-7.616 1.738-8.071 13.316-7.992 19.69v-.003Zm-17.67-30.362c-.404.021-.673.364-.673.753s.383.692.756.671c.404-.021.672-.364.672-.753 0-.39-.383-.692-.755-.671Zm11.102-8.33c-.465-.268-.977.092-1.456.16-2.162.75-4.13 2.017-5.888 3.462-.683.625-3.994 3.162-2.734 4.04.773.49 1.184-.514 1.578-.992 1.528-1.716 3.418-3.105 5.415-4.233.745-.389 1.503-.785 2.323-.988.362-.079.777-.125.991-.464a.716.716 0 0 0-.229-.985Zm-.161 47.115c-.404.022-.672.364-.672.753 0 .39.382.693.755.671.404-.021.673-.364.673-.753s-.383-.692-.756-.67Zm3.862-10.282c-.326.517-.025 1.135-.096 1.702.035 1.203-.079 2.56-.097 3.73.068 1.006-.265 2.02-.737 2.873-.215.318-.387.667-.63.96-.451.307-.87.775-.451 1.303.719.731 1.589-.346 1.947-.957.844-1.245 1.396-2.748 1.299-4.265.018-1.581.204-3.17.043-4.743.222-.757-.823-1.264-1.278-.603Z"/><path fill="#F2B2FF" d="M216.809 76.81c-.419.375-.902.653-1.414.885a.978.978 0 0 0-.218.093h-40.859a.932.932 0 0 0-.1-.067c-1.879-.564-2.53-2.77-2.595-4.519.086-1.78 1.178-2.745 2.606-3.273.716-.196 1.449-.339 2.183-.442h32.82c.15.053.318.057.469 0h.984c1.79.042 3.221.157 4.406.41a.698.698 0 0 0 .322.125c1.117.428 2.283 1.3 2.706 2.46.436 1.509-.126 3.3-1.31 4.328Zm-34.696-5.275c-.404.022-.672.364-.672.753 0 .39.382.693.755.671.404-.021.673-.364.673-.753s-.383-.692-.756-.67Zm10.906-.614c-2.058.125-4.109-.132-6.171.043-.676.11-1.932-.146-1.936.853.022.386.365.7.755.675a52.297 52.297 0 0 1 3.426-.186c1.277.09 2.548.129 3.822.04.39.014.737-.261.766-.66.029-.376-.272-.75-.662-.765Z"/><path fill="#fff" d="M239.078 28.656c1.392-.863 2.752-2.03 2.938-3.74.115-2.741-.293-5.133-2.144-6.617 1.11.228 2.201.528 3.268.91 2.369.856 4.334 2.491 5.995 4.347.132.143.243.328.365.485 0 .111-.007.225-.011.336a.691.691 0 0 0-.261.328c-2.14 1.656-4.635 2.627-7.237 3.302a27.77 27.77 0 0 1-2.917.646l.004.003Z"/><path fill="#F2B2FF" d="M225.098 5.46c4.51-4.125 11.385-5.303 16.854-2.426 10.243 5.385 13.289 19.07 9.692 29.391-3.504 10.572-14.639 17.482-24.8 10.711-6.85-4.718-9.835-13.495-9.244-21.51.429-6.043 2.913-12.114 7.501-16.162l-.003-.003Zm-4.764 21.048c.619 5.086 2.885 10.14 6.908 13.43 5.436 4.561 13.121 3.89 17.952-1.203 7.398-7.73 7.681-21.129.981-29.38-.24-.3-.501-.586-.766-.868l-.021-.021c-2.717-2.859-6.657-4.765-10.598-4.454-10.598.863-15.78 13.052-14.459 22.5l.003-.004Z"/><path fill="#CE6AE2" d="M247.134 15.468c1.242 1.325 2.133 3.544 1.128 5.204-.985-.87-2.058-1.642-3.236-2.188-3.099-1.567-8.296-2.427-12.301-2.038-2.692.232-5.326 1.053-7.77 2.185-.033.014-.065.032-.097.046-.15-.203-.354-.385-.501-.575-.419-.688-.648-1.502-.573-2.309.097-.542.212-.917.39-1.406a.72.72 0 0 0 .276-.468c.179-.117.351-.232.515-.296a23.122 23.122 0 0 1 4.678-1.524c5.748-1.31 12.681-.171 17.491 3.366v.003Z"/><path fill="#F2B2FF" d="M24.026 146.768c.158-.028.315-.043.476-.068.008.04.015.079.025.115.136.592.544 1.06 1.028 1.399.48.435 1.095.678 1.746.642.816.082 2.355-.493 1.79-1.517-.008-.15-.018-.303-.029-.453.319-.018.634-.057.952-.068-.029.71 0 1.413-.043 1.956.05.753.09 1.549.25 2.302a8.06 8.06 0 0 1-1.12.157c-1.07-.025-2.125.243-3.2.064-1.291-.203-3.084-.692-3.31-2.195.029-.535-.071-1.217.33-1.634.332-.279.69-.564 1.105-.7Z"/><path fill="#CE6AE2" d="M32.398 145.062c.515-.164 1.063-.128 1.6-.15.05.011.103.022.157.022h20.469a.697.697 0 0 0 .207.035c.634.079 1.375.175 2.04.411v.007c-.114.435-.519.66-.77.981a3.775 3.775 0 0 0-.55 2.41l-.008-.097c.03.982.187 2.006.938 2.706.108.132.261.274.44.406-1.299.582-2.824.696-4.244.75a.76.76 0 0 0-.315-.071H35.74a1.899 1.899 0 0 0-.476.007c-.3 0-.615.064-.912.01-2.68.179-2.717-1.145-2.942-3.358-.029-1.164-.01-2.306.193-3.426.043-.472.372-.597.795-.643Zm12.34 5.771c.52.992 1.876.35 1.328-.617-.515-.982-1.875-.354-1.328.617Zm-10.443.482c.683.275 1.428-.032 2.14 0 1.997-.014 4.001-.064 5.995.036a.72.72 0 0 0 .737-.689c.004-.814-.87-.75-1.457-.782-2.283 0-4.577-.1-6.854.125-.855-.317-1.388.921-.561 1.31Z"/><path fill="#F2B2FF" d="M58.908 147.407a66.89 66.89 0 0 1 3.693.014l.816.032c.065.19.122.379.126.554-.136.431-.28.878-.54 1.256a.598.598 0 0 0-.352.339l-2.598.075c-1.184 0-2.82.442-2.301-1.396.204-.431.658-.86 1.156-.878v.004Z"/><path fill="#CE6AE2" d="M26.786 154.263c-.007-.157 0-.314.003-.475.025-.032.054-.064.075-.099.23-.1.494-.218.748-.165.49.197.627.839 1.056.971.677 1.753 1.808 3.341 2.438 5.118.38 1.082 1.18 2.145.805 3.337-.791 2.552-2.602 3.373-5.147 3.227-.472-.047-.93-.432-1.235-.739-.558-.546-1.206-1.049-1.23-1.899-.047-.542.182-1.06.372-1.556.461-1.338.99-2.652 1.514-3.969.454-1.27.526-2.455.597-3.754l.004.003ZM243.652 11.8a.849.849 0 0 0-.194.035 23.398 23.398 0 0 0-3.929-1.139c-3.522-.785-7.184-.728-10.677.108-.558-.493-.837-1.271-.755-2.006.029-.164.039-.336.097-.493a.668.668 0 0 0 .1-.264c1.822-1.442 3.991-2.398 6.474-2.605 3.691-.3 7.044 1.402 9.539 3.976.164.813.086 1.895-.652 2.387h-.003ZM27.684 147.414c-.44.072-.88.025-1.213-.285.01.003.018.01.025.017l-.047-.035-.025-.022a.414.414 0 0 0 .047.04c-.748-.425-.64-1.317-.727-2.063a12.263 12.263 0 0 0-.927-3.063c-.64-1.292-1.21-2.626-1.932-3.876-.595-1.345-1.622-2.58-1.736-4.086.186-3.634 3.708-3.823 6.413-2.645 2.134 1.099 3.093 3.798 2.488 6.057-.54 2.28-1.672 4.393-2.312 6.649-.287 1.089-.183 2.209-.05 3.309l-.004.003ZM65.54 150.758l.021-.028c3.064.053 6.12.307 9.184.417.372-.007.637.1.938-.11.504-.336.311-1.214-.3-1.282-.58-.046-1.16-.046-1.74-.092-2.43-.09-4.853-.275-7.284-.343.15-.407.247-.832.269-1.267a51.34 51.34 0 0 1 3.135-.129.779.779 0 0 0 .258.05h33.739c.115.025.233.033.351.022.698.018 1.282.057 1.915.086 3.228.082 5.991 1.734 6.857 4.939.251 1.399.294 2.809.491 4.208.075.357.161.71.261 1.06a54.38 54.38 0 0 1-.039 3.401c-.022.133-.04.261-.065.393-.512 2.795-.057 5.643-.121 8.462-.154 7.396.189 14.855-1.21 22.157-.766 3.387-1.972 7.106-4.345 9.669-3.805 5.072-8.647 8.305-14.477 10.693-3.44 1.167-6.854 2.577-10.415 3.309-1.15.142-2.284-.033-3.422.007a.863.863 0 0 0-.426.053H52.992c-.255-.032-.541-.007-.763.104-.118 0-.24 0-.358.003-2.716-.043-4.76-1.124-6.102-3.512-.694-1.324-.705-2.869-.905-4.318-.355-3.327-.42-6.678-.502-10.022-.05-5.161-.068-10.326.08-15.487-.012-2.184.2-4.354.471-6.52.287-2.138.47-4.44 1.17-6.46.455-1.378.985-2.745 1.733-3.991.562-.806 1.235-1.538 1.793-2.348 1.833-2.673 4.166-4.961 6.99-6.564 3.046-2.084 6.528-3.665 8.934-6.552l.007-.008Zm43.618 44.136c.365.114.791-.097.894-.471.194-.693.337-1.399.455-2.11.462-2.53.63-5.111.512-7.68-.011-.586-.14-1.175-.068-1.756.172-.397-.007-.882-.437-1.014a.724.724 0 0 0-.895.471c-.268.857-.021 1.867-.014 2.716a32.576 32.576 0 0 1-.412 6.414c-.118.699-.232 1.395-.393 2.088-.176.482-.272 1.149.351 1.345l.007-.003Zm-1.224 2.502c.379.014.737-.304.737-.693a.722.722 0 0 0-.694-.735c-.38-.014-.738.303-.738.692 0 .389.294.725.695.736Zm-30.44-45.91c.38.015.744-.296.744-.685a.727.727 0 0 0-.687-.742c-.38-.014-.744.296-.744.685 0 .389.286.725.687.742Zm-30.05 45.417c-.38-.014-.737.303-.737.693 0 .389.293.724.694.735.38.014.737-.304.737-.693a.722.722 0 0 0-.694-.735Zm.913 10.693c-.143-.978-.165-1.966-.294-2.944-.046-1.203-.326-2.399-.383-3.587.072-.382-.211-.757-.587-.821-1.185-.072-.84 1.438-.69 2.173.2 1.614.325 3.245.465 4.865.2.739.025 2.495 1.17 2.306.927-.264.383-1.332.322-1.988l-.003-.004Z"/><path fill="#000" d="m26.45 147.107.046.036c-.01-.003-.018-.011-.025-.018-.015-.014-.033-.025-.047-.039l.025.021Z"/><path fill="#000" d="M24.323 145.269a3.97 3.97 0 0 0-.118-.642c-.419-1.788-1.42-3.477-2.194-5.143-.787-1.56-1.85-3.052-2.23-4.776-.279-1.756.537-3.633 1.983-4.661 1.99-1.142 4.581-.803 6.59.146 2.447 1.346 3.718 4.383 3.192 7.092-.455 2.427-1.647 4.643-2.377 6.995a4.08 4.08 0 0 0-.179 1.189h.065c.386-.018.755-.111 1.145-.075.147-.56.397-1.049.841-1.356.948-.546 2.094-.514 3.157-.561a.595.595 0 0 1 .21.033h20.265a.72.72 0 0 1 .244.046c.186-.007.376.014.547.057 1.132.157 2.298.443 3.225 1.139.373.217.83.721 1.024 1.206.494.007.988.036 1.47.011.885.01 1.765.042 2.65.085h.017c-3.371-3.319-7.684-5.503-11.002-8.901-2.677-2.991-5.623-6.05-7.251-9.797-1.396-2.841-2.087-5.928-2.717-9.009-1.034-4.468-1.395-9.061-1.5-13.648-.028-3.569.012-7.163.259-10.743.433-3.826 1.381-7.513 2.111-11.296.304-1.381.62-3.398 2.298-3.676 1.568-.164 3.15-.157 4.72-.268.849.022 1.715.14 2.556-.01.269-.043.566.021.777.174H80.6c2.116-.45 7.273.632 8.429.846 7.122 1.589 13.854 5.44 18.343 11.24 2.358 3.533 4.133 7.487 5.332 11.56 1.396 5.011 1.547 10.275 1.368 15.45-.176 3.676-.254 7.392-.34 11.082-.025 1.61.075 3.291.411 4.894.329 1.316.276 3.09 1.525 3.918 1.106.686 2.083-.385 2.699-1.217.83-.835 1.732-1.609 2.433-2.569.766-.996 1.586-1.949 2.341-2.959.014-.318.215-.66.397-.932 1.45-2.52 2.899-5.036 4.345-7.556.916-1.588 1.829-3.18 2.745-4.768.186-.496.491-.96.82-1.399h-2.795l-.022.007c-.068 0-.139-.003-.211-.007h-.512a.634.634 0 0 1-.204-.036 3.892 3.892 0 0 1-.948-.185c-1.063-.357-1.861-1.306-2.319-2.295-.287-1.01-.144-2.131.153-3.123.326-.903 1.028-1.603 1.751-2.206 1.113-.739 2.566-.942 3.876-1.074.558 0 1.102.118 1.657.146a.91.91 0 0 1 .343.022h4.249c.376-.693.798-1.353 1.181-2.038a.734.734 0 0 1 .071-.136 2747.68 2747.68 0 0 1 4.016-6.977c2.581-4.483 5.158-8.966 7.738-13.449a.64.64 0 0 1 .086-.21c.43-.64.719-1.37 1.228-1.963 2.648-3.177 6.725-4.726 10.794-5.118a.767.767 0 0 1 .204-.032h.129c.483-.04.963-.061 1.442-.068.108-.182.237-.357.337-.507.533-.85 1.081-1.692 1.617-2.541 2.109-3.17 5.179-5.186 8.655-6.146a10.787 10.787 0 0 1 1.667-.443.793.793 0 0 1 .154-.028c.827-.143 1.665-.2 2.445-.19.061.007.118 0 .179.007-.022-.31.025-.656.007-.935-.032-1.86-.047-3.719-.186-5.574-.176-5.886-.469-11.768-.619-17.653.014-3.876.164-7.795.93-11.603.627-3.123 1.876-6.06 3.572-8.752 1.564-2.834 4.027-5.014 6.571-6.963 3.59-2.852 7.967-4.636 12.581-4.758.078 0 .175-.003.282-.014.355-.114.834-.057 1.189-.06h16.091C221.762 5.413 227.005.65 234.239.045c7.415-.592 14.144 4.53 17.319 10.95 3.375 6.614 3.869 14.587 1.531 21.615-6.8 19.137-26.749 18.648-34.24 3.23a.726.726 0 0 1-.272.053h-4.281a.893.893 0 0 1-.258.008c-1.052.139-2.154.303-3.124.767-6.256 2.909-5.773 16.25-5.39 22.146l.021.464a.731.731 0 0 1 .015.278c0 .029 0 .057.003.086v-.01c.036.278.043.553.036.824.086 1.749.172 3.501.276 5.25.053.77.103 1.538.178 2.306v.039h3.476c.143-.025.293-.032.436-.01a13.66 13.66 0 0 1 1.479.01h.483c.096 0 .186.021.268.053.694.065 1.385.15 2.08.225 5.712.493 7.412 4.686 9.441 9.294.562-.025 1.12-.04 1.682-.028 2.949-.111 6.224.535 8.393 2.662a34.517 34.517 0 0 1 4.456 5.903c.043.075.068.15.086.222l1.818 3.126c.555.957 1.11 1.91 1.668 2.866a.722.722 0 0 1 .215.368c2.87 4.936 5.741 9.872 8.611 14.804.494 0 1.02.075 1.342.075.297.036.609.065.927.086h1.675c.147 0 .286.046.401.125 1.897.132 3.819.421 5.075 1.677 1.067 1.25 1.442 2.991.838 4.537-.387.981-.995 2.148-2.151 2.302a2.759 2.759 0 0 1-.77.089.706.706 0 0 1-.154.018h-2.001c.67 1.153 1.343 2.305 2.012 3.458 1.5 2.577 2.996 5.154 4.495 7.731a.617.617 0 0 0 .05.053.744.744 0 0 1 .136.265l6.55 11.264a.714.714 0 0 1 .24.346c3.779 5.603 5.125 8.255 1.768 14.63-.587 1.013-1.07 2.077-1.657 3.09a.594.594 0 0 1-.072.186c-.53.921-1.059 1.845-1.593 2.766-4.294 7.463-8.586 14.926-12.881 22.385-3.035 5.279-6.073 10.558-9.108 15.833-1.289 2.238-2.574 4.479-3.862 6.717a.733.733 0 0 1-.204.378c-.716 1.364-1.679 2.688-2.491 4.019-1.074 1.674-2.169 3.362-3.608 4.754-1.975 2.199-4.706 3.787-7.723 3.508h-61.446a.665.665 0 0 1-.279.054c-4.42-.25-9.08-.336-13.128-2.384-2.727-1.681-4.778-4.219-6.482-6.921a.702.702 0 0 1-.289-.267c-7.957-13.684-15.917-27.368-23.876-41.052a.854.854 0 0 1-.076-.171c-.544-.714-1.177-1.382-1.739-2.092-.988-1.16-1.743-2.473-2.827-3.565-1.303-1.246-2.506-1.838-2.724.314-.007.128-.011.257-.018.382a.766.766 0 0 1-.111.371c-.358 2.12-.025 4.265-.086 6.403.09 2.834-.111 5.667-.028 8.501.046 2.745-.108 5.479-.272 8.216-.19 3.006-.552 6.021-1.278 8.944a11.955 11.955 0 0 1-.634 1.881c-.307.778-.433 1.621-.823 2.385-1.031 2.427-2.763 4.393-4.441 6.392-4.177 4.811-9.918 8.034-15.93 10.011-2.775.928-5.52 2.059-8.419 2.538-.92.11-1.857.025-2.799 0a.75.75 0 0 1-.279.057H53.893a.736.736 0 0 1-.404.146c-2.083-.028-4.295-.086-6.135-1.192-1.385-.985-2.609-2.32-3.22-3.919-.566-1.766-.638-3.651-.846-5.485-.372-5.14-.425-10.297-.379-15.447-.014-5.236-.071-10.504.605-15.704.326-2.738.666-5.418 1.74-7.999.586-1.52 1.324-2.98 2.426-4.197 1.242-1.645 2.427-3.344 3.912-4.79 3.397-3.265 7.903-4.932 11.453-8.016.093-.078.182-.153.268-.232-1.184.004-2.369.079-3.55.111-.905 2.384-5.294 2.848-7.455 2.855a.773.773 0 0 1-.337-.082H35.533a1.03 1.03 0 0 1-.47.036c-1.356-.008-2.92.078-3.968-.943a3.322 3.322 0 0 1-.383-.553c-.147.029-.297.05-.437.075-.193.039-.39.068-.583.093.007.214.007.432.04.617.672 2.099 2.018 3.916 2.751 5.996.308.857.927 1.849.952 2.824.05 1.299-.533 2.441-1.267 3.49-1.267 1.77-3.729 2.274-5.783 2.031-.82-.168-1.504-.7-2.055-1.306-.673-.554-1.31-1.335-1.413-2.256-.258-1.106.286-2.156.64-3.173.226-.667.498-1.321.752-1.977.884-1.92 1.213-4.123.995-6.218-2.04-.332-3.901-1.32-4.155-3.504.017-.839 0-1.781.561-2.467.673-.781 1.6-1.252 2.606-1.395l.007.014ZM226.841 43.136c10.161 6.77 21.295-.136 24.799-10.71 3.597-10.323.551-24.007-9.692-29.392-5.465-2.877-12.341-1.7-16.854 2.427-4.588 4.047-7.072 10.122-7.502 16.16-.587 8.017 2.395 16.793 9.245 21.512l.004.003Zm-14.954-8.32c.355-.46.659-.999.995-1.506 1.257-2.123 1.657-4.586 1.929-7.002.523-4.337-.612-9.087-2.809-12.87-.093-.147-.201-.3-.283-.46h-9.424c-.3.081-.662.02-.966.074.014 0 .029 0 .043-.003h.011c-4.281.1-8.354 1.734-11.697 4.365a33.65 33.65 0 0 0-4.81 4.347c-1.381 1.888-2.502 3.83-3.504 6.003-1.417 3.22-1.897 6.728-2.151 10.211-.522 6.45.194 12.917.287 19.37.003.92.039 1.841.082 2.762.208.132.372.35.548.528 1.145 1.153 2.465 2.131 3.8 3.059 2.012 1.324 4.27 2.02 6.636 2.595 1.539.374 3.107.578 4.717.585a17.7 17.7 0 0 0 3.851-.996c2.316-.87 4.875-2.67 5.018-5.364 0-.072-.007-.143-.011-.21a2.626 2.626 0 0 1-.032-.668 622.19 622.19 0 0 1-.222-5.132c-.078-6.378.38-17.953 7.992-19.691v.003Zm6.228 37.665c-.426-1.163-1.589-2.03-2.706-2.459a.746.746 0 0 1-.322-.125c-1.185-.253-2.616-.368-4.406-.41h-.984a.683.683 0 0 1-.469 0h-32.82c-.737.103-1.467.246-2.183.442-1.428.528-2.516 1.492-2.606 3.273.068 1.752.716 3.958 2.595 4.519.036.02.068.046.1.067h40.859c.072-.035.143-.071.218-.093.512-.231.992-.51 1.414-.885 1.185-1.028 1.747-2.82 1.31-4.329Zm22.731 21.086a1.312 1.312 0 0 1-.119-.217c-1.338-2.299-2.673-4.601-4.012-6.9a.818.818 0 0 1-.082-.217 4.37 4.37 0 0 0-.494-.7c-1.134-1.624-2.287-3.28-3.754-4.625-1.103-.925-2.516-1.378-3.909-1.656-.902-.229-1.825-.264-2.748-.243a.714.714 0 0 1-.501.21h-63.454c-1.209.143-2.426.457-3.607.672-2.735.885-5.598 2.444-6.987 5.071a2.02 2.02 0 0 1-.068.129c-.014.032-.025.068-.043.1-1.327 2.309-2.655 4.614-3.983 6.924a.79.79 0 0 1-.075.235c-.501.918-.877 1.895-1.378 2.813-.494 1.474-.999 3.08-.677 4.64.623 2.401 2.194 4.447 4.174 5.906a11.367 11.367 0 0 0 3.976 1.949c.039.018.071.039.107.057h81.041c.361-.132.802-.196 1.095-.339.855-.307 1.621-.657 2.405-1.178 2.731-1.952 4.313-5.228 4.334-8.573-.107-1.42-.604-2.787-1.238-4.054l-.003-.004Zm16.975 21.472c.032-.004.068-.011.104-.011.93.107 1.385-.746 1.646-1.51.405-1.056.125-2.273-.63-3.105-1.399-1.185-3.45-1.006-5.171-1.238a40.484 40.484 0 0 1-.602-.036H131.459a.702.702 0 0 1-.322-.082c-.43-.068-.863-.143-1.174-.075-.77.118-1.432.261-2.227.493-1.338.567-2.093 1.938-2.029 3.365-.039.946.845 1.913 1.743 2.128.315.082.723.028 1.077.071h23.071c.14-.011.283-.029.422-.039a.683.683 0 0 1 .283.039h105.525-.007Zm-111.277 90.955a.699.699 0 0 1 .287.346c.533.985 1.202 1.909 1.811 2.855 1.478 1.956 3.074 3.976 5.265 5.182 3.643 1.706 7.612 1.853 11.578 2.067.2-.032.419-.029.612-.014h61.47a.86.86 0 0 1 .172-.015c.057.007.111.011.168.015h.211c.068 0 .129.01.187.025 2.047.064 3.997-.846 5.454-2.295 2.584-2.352 4.356-5.475 6.185-8.438a.836.836 0 0 1 .103-.171c.612-1.064 1.224-2.124 1.833-3.187 4.567-7.934 9.13-15.868 13.697-23.806.49-.849.977-1.699 1.467-2.548a13.063 13.063 0 0 1-.472-.496.71.71 0 0 1-.211-.182 81.838 81.838 0 0 0-18.135-16.425c-.011 0-.022 0-.036-.004-2.978-1.271-6.346-1.292-9.427-.293-3.211 1.2-6.407 2.813-8.755 5.358a91.633 91.633 0 0 0-1.954 2.127 1.385 1.385 0 0 1-.344.403c-7.652 11.357-23.145 16.65-36.878 9.79-5.369-2.634-9.753-7.024-12.545-12.256a.872.872 0 0 1-.236-.321c-4.925-5.186-10.848-7.049-17.895-5.954-.294.05-.68.214-1.042.289a82.221 82.221 0 0 0-10.025 7.513 85.191 85.191 0 0 0-7.369 7.338c-.147.168-.29.336-.433.504-.29.428-.573.86-.827 1.313-.329.625-.687 1.153-1.027 1.795-.004.011-.011.025-.014.036l17.129 29.449h-.004Zm41.718-82.125c-11.804 2.259-21.138 12.831-21.829 24.837-.869 10.732 5.272 21.493 14.975 26.269 17.391 8.755 38.303-3.066 39.62-22.511 1.267-17.888-15.111-32.207-32.762-28.595h-.004Zm-68.192 25.037c.022 3.244.047 6.531.48 9.758.608 2.398 1.464 4.732 2.623 6.92.204.2.39.436.562.6 2.316 2.605 6.278 3.448 9.438 1.931 1.324-.607 2.409-1.592 3.561-2.459a.75.75 0 0 1 .279-.157c7.982-7.263 17.387-12.97 27.545-16.657a.785.785 0 0 1 .415-.043c.694-11.689 9.023-22.368 20.411-25.68 17.849-5.457 36.292 7.602 37.101 26.105 1.031.389 2.054.799 3.071 1.231 8.94 3.794 17.183 9.19 24.269 15.811.541.232.863.885 1.353 1.214 1.067.945 2.302 1.738 3.744 1.92 1.997.428 4.216.228 5.927-.96.329-.197.666-.614 1.027-.828.784-1.364 1.568-2.727 2.352-4.087l3.403-5.914c.136-.592.684-1.081.924-1.649 1.077-2.188 2.408-4.311 2.909-6.728.63-2.916-1.195-5.457-2.662-7.827a.674.674 0 0 1-.276-.26c-2.459-4.226-4.914-8.452-7.373-12.678-.333-.403-.676-.735-1.095-1.156-2.373-2.327-5.208-4.079-8.114-5.661-5.197-2.98-11.048-4.882-17.058-5.107a.648.648 0 0 1-.146-.082h-83.622c-.085 0-.164.007-.239.018-8.189 1.092-16.213 4.236-22.316 9.933-.393.364-.809.756-1.213 1.163-.608.971-1.192 1.956-1.89 2.866-1.707 2.441-3.69 4.765-4.814 7.559-1.038 3.527-.526 7.278-.576 10.9v.004Zm-5.05 7.877c.365.76.73 1.61 1.668 1.777.852.086 1.679-.596 2.069-1.309.035-.068.06-.158.093-.229a.864.864 0 0 1 .071-.161c-.397-4.179-.236-8.405-.325-12.598a31.51 31.51 0 0 1-.015-2.017 2.154 2.154 0 0 0-.107-.253 4.417 4.417 0 0 0-.415-.732c-.347-.585-1.171-.682-1.779-.496-.44.207-.784.582-1.11.931a.698.698 0 0 0-.132.257.707.707 0 0 1-.136.439c.072 3.23-.025 6.468-.007 9.701.007 1.56.071 3.123.121 4.686l.004.004Zm-2.699-24.587a.741.741 0 0 1 .072-.407c-.107-1.464-.107-2.941-.064-4.387.1-2.837.103-5.689.268-8.523.24-5.757.147-11.653-1.653-17.181-.756-2.392-1.811-4.69-2.957-6.917-1.056-2.078-2.408-3.955-4.094-5.572-4.427-4.379-10.272-7.191-16.403-8.337-1.46-.218-2.942-.51-4.427-.614a.728.728 0 0 1-.25.05h-2.188c-.096.01-.193.021-.286.04a.503.503 0 0 1-.179-.04H52.469a.709.709 0 0 1-.383-.114c-.419 0-.834-.018-1.25-.043-.898.018-1.796.121-2.698.129-.662.017-1.328.042-1.983.132a.571.571 0 0 0-.207.16c-.798 1.242-.82 2.816-1.181 4.219-.276 1.702-.773 3.462-1.074 5.182-.701 3.309-.87 6.803-.837 10.204-.201 4.172.024 8.281.486 12.442.208 2.084.634 4.14 1.099 6.182.508 2.527 1.113 5.029 2.194 7.384 1.22 3.034 3.329 5.596 5.469 8.031 1.27 1.427 2.548 2.762 4.037 3.993 2.42 1.974 5.179 3.694 7.566 5.736.437.343 1.593 1.445 2.309 2.513a.768.768 0 0 1 .365.192c.293-.05.626-.035.887-.053 1.339-.104 2.881-.1 4.263-.111.118 0 .222.025.308.068h29.752c.24-.104.516-.018.774-.036 1.256.018 2.369.05 3.657-.146 4.385-.767 6.149-4.294 6.568-8.387.061-.607.147-1.21.139-1.824 0-.186-.007-.407.011-.618a69.213 69.213 0 0 1-.411-3.337l-.008-.01Zm-55.722 25.115c-2.824 1.603-5.16 3.891-6.99 6.564-.558.81-1.231 1.542-1.793 2.348-.748 1.246-1.278 2.613-1.732 3.99-.702 2.024-.884 4.323-1.17 6.461-.273 2.162-.484 4.336-.473 6.52-.15 5.161-.129 10.322-.079 15.487.079 3.344.147 6.695.501 10.022.2 1.449.212 2.994.906 4.318 1.342 2.388 3.386 3.466 6.102 3.512.118-.007.24-.007.358-.003.222-.111.508-.136.762-.104H79.115a.864.864 0 0 1 .426-.054c1.138-.039 2.273.136 3.421-.007 3.562-.731 6.98-2.141 10.415-3.308 5.83-2.388 10.67-5.621 14.478-10.693 2.369-2.566 3.575-6.285 4.345-9.669 1.399-7.302 1.056-14.762 1.21-22.157.064-2.819-.391-5.667.121-8.462.025-.129.047-.261.065-.393.05-1.138.057-2.27.039-3.401-.104-.35-.186-.703-.261-1.06-.197-1.396-.24-2.809-.491-4.208-.866-3.205-3.629-4.858-6.857-4.94-.634-.025-1.213-.067-1.915-.085-.118.01-.236 0-.351-.022H70.02a.725.725 0 0 1-.257-.05 51.34 51.34 0 0 0-3.135.129 4.38 4.38 0 0 1-.269 1.267c2.427.068 4.853.253 7.284.343.58.046 1.163.046 1.739.092.612.068.805.946.3 1.282-.3.21-.565.103-.937.11-3.06-.11-6.12-.364-9.184-.417l-.021.028c-2.406 2.888-5.888 4.469-8.934 6.553l-.007.007Zm3.447-7.631c.862-.024 1.728-.046 2.598-.074a.6.6 0 0 1 .35-.34c.258-.378.402-.824.541-1.256 0-.175-.06-.364-.125-.553l-.816-.032a63.175 63.175 0 0 0-3.694-.014c-.497.017-.952.446-1.156.878-.519 1.838 1.117 1.399 2.302 1.395v-.004Zm-28.643-.549c.225 2.213.26 3.533 2.941 3.358.297.05.612-.01.913-.01a1.9 1.9 0 0 1 .476-.007h16.621c.122 0 .226.028.315.071 1.421-.054 2.942-.168 4.245-.75a2.464 2.464 0 0 1-.44-.406c-.752-.704-.91-1.728-.938-2.706l.007.097a3.776 3.776 0 0 1 .551-2.41c.251-.321.655-.546.77-.981v-.007c-.666-.232-1.41-.329-2.04-.411a.697.697 0 0 1-.208-.035H34.148a.589.589 0 0 1-.158-.022c-.537.022-1.084-.018-1.6.15-.422.05-.755.171-.794.643-.204 1.12-.219 2.262-.194 3.426Zm-1.364-11.678c.605-2.263-.354-4.961-2.488-6.057-2.702-1.178-6.227-.989-6.413 2.645.114 1.506 1.141 2.737 1.736 4.086.726 1.25 1.292 2.584 1.932 3.876.437.975.759 2.01.927 3.063.086.742-.021 1.634.727 2.063.333.31.773.356 1.213.285-.129-1.099-.236-2.22.05-3.308.64-2.256 1.772-4.369 2.312-6.65l.004-.003Zm-5.372 24.53c-.19.496-.42 1.014-.373 1.556.026.85.673 1.353 1.232 1.899.304.307.766.692 1.235.739 2.544.143 4.352-.675 5.146-3.227.376-1.192-.426-2.255-.805-3.337-.63-1.777-1.761-3.362-2.438-5.118-.433-.132-.569-.774-1.055-.971-.254-.053-.52.065-.748.165-.022.035-.05.067-.076.1-.007.16-.01.317-.003.474-.072 1.296-.143 2.481-.598 3.755-.522 1.317-1.052 2.63-1.514 3.969l-.003-.004Zm1.227-10.689c1.07.178 2.126-.09 3.2-.065a7.7 7.7 0 0 0 1.12-.157c-.164-.753-.2-1.549-.25-2.302.043-.542.014-1.245.043-1.955-.319.01-.634.049-.952.067.01.154.021.304.028.454.562 1.024-.973 1.602-1.79 1.516-.65.036-1.266-.21-1.746-.642-.483-.343-.895-.81-1.027-1.399-.01-.039-.018-.079-.025-.114-.158.021-.315.039-.476.068-.415.132-.773.421-1.106.699-.397.418-.3 1.099-.33 1.635.226 1.502 2.02 1.991 3.311 2.195ZM7.724 158.111c.633-.054 1.266-.129 1.9-.161 2.147-.193 3.84 1.41 5.862 1.806 1.207.232 2.452-.071 3.54-.6.28-.125.52-.364.841-.364.39 0 .716.325.716.714.01.486-.454.671-.812.867a7.09 7.09 0 0 1-6.657.072c-.791-.35-1.54-.81-2.395-.992-.93-.19-1.875 0-2.806.064-.386.032-.751-.211-.805-.61-.05-.372.222-.771.612-.803l.004.007Z"/><path fill="#000" d="M20.329 141.564c.798 1.018-.841 1.528-1.6 1.71-1.32.371-2.698.314-4.023 0-.884-.139-1.732-.514-2.641-.475-.941-.021-.938-1.402 0-1.427.948-.047 1.84.285 2.756.471 1.324.314 2.702.385 4.001-.082.501-.15 1.006-.696 1.503-.197h.004ZM.62 148.653c1.173-.157 2.336-.386 3.525-.397 1.463.018 2.963-.103 4.387.282.874.25 1.668.721 2.56.925 1.009.182 2.068.21 3.063-.061a.725.725 0 0 1 .605-.335c1.149.146.795 1.534-.179 1.702a8.019 8.019 0 0 1-4.635-.153c-.74-.272-1.45-.643-2.226-.807-1.407-.189-2.842-.129-4.256-.096-.887.075-1.768.235-2.652.357a.72.72 0 0 1-.805-.611.722.722 0 0 1 .612-.803v-.003ZM8.905 142.931a.714.714 0 1 1 0-1.427.714.714 0 1 1 0 1.427ZM17.677 150.269a.714.714 0 1 1 0-1.427.714.714 0 1 1 0 1.427ZM3.897 159.774a.715.715 0 1 1 0-1.43.715.715 0 0 1 0 1.43ZM191.705 175.389c-12.716-.878-23.024-12.017-22.909-24.727-.158-10.183 6.635-19.916 16.234-23.367 14.689-5.532 31.117 4.105 33.361 19.609 2.451 15.722-10.791 29.862-26.686 28.481v.004Zm25.057-29.485c-2.763-13.783-17.408-22.11-30.726-17.452a.494.494 0 0 1 .036-.011h.011l-.065.021s.011-.003.018-.007a23.642 23.642 0 0 0-9.95 6.671c-3.382 3.804-5.479 8.798-5.805 13.894-1.045 14.062 10.995 26.065 25.143 24.97 14.023-.921 24.234-14.33 21.342-28.082l-.004-.004ZM234.79 4.012c3.937-.314 7.881 1.591 10.597 4.454l.022.021c.265.282.526.571.766.868 6.696 8.251 6.417 21.65-.981 29.38-4.832 5.093-12.516 5.764-17.952 1.203-4.027-3.29-6.292-8.344-6.908-13.43-1.324-9.448 3.858-21.636 14.459-22.5l-.003.004Zm9.513 5.403c-2.495-2.57-5.848-4.276-9.538-3.976-2.488.207-4.653 1.167-6.475 2.606a.717.717 0 0 1-.1.264c-.057.157-.064.328-.097.492-.082.736.197 1.514.756 2.006 3.493-.835 7.154-.892 10.676-.107 1.321.26 2.645.639 3.93 1.139a.84.84 0 0 1 .193-.036c.737-.493.816-1.574.651-2.388h.004Zm5.186 14.965.011-.335c-.125-.16-.236-.343-.365-.486-1.657-1.859-3.622-3.494-5.995-4.347a24.799 24.799 0 0 0-3.268-.91c1.851 1.485 2.259 3.88 2.144 6.617-.186 1.71-1.546 2.873-2.938 3.74a28.052 28.052 0 0 0 2.917-.645c2.601-.675 5.093-1.646 7.236-3.302a.699.699 0 0 1 .262-.328l-.004-.004Zm-12.158-5.796c-2.054-.607-4.259.221-5.816 1.62-1.081.882-1.578 2.256-1.707 3.613.068 1.76 1.088 3.333 2.351 4.497 1.031.713 2.259.52 3.4.239.77-.154 1.496-.454 2.198-.793 1.253-.696 2.781-1.666 2.863-3.265-.064-2.677-.343-5.047-3.293-5.914l.004.003Zm-8.067 21.1c2.362 1.55 5.218 2.27 8.489 1.685 2.03-.5 3.783-1.41 5.283-2.609-.05-.185-.014-.382.011-.578.032-.278-.025-.56-.065-.835-.021-.214-.146-.386-.261-.557-.469.132-.941.254-1.414.357-2.172.368-4.384.386-6.582.375-1.771-.079-3.521-.114-5.275-.464-.065.078-.136.15-.208.221-.229.314-.293.714-.286 1.096-.018.464.208.874.304 1.31h.004Zm-4.689-6.541c.065.25.219.528.315.803 2.284.945 4.574 1.941 7.09 2.002 3.057.228 6.367.264 9.442-.268 1.979-.507 3.937-1.249 5.726-2.227.018-.021.036-.032.054-.053a.818.818 0 0 1 .025-.329c.215-.5.483-.956.498-1.517.293-1.252.05-2.73-.802-3.744-4.775 2.013-10.064 3.127-15.243 2.434-2.119-.289-4.256-.853-6.231-1.738-.448.55-.791 1.228-.902 1.928-.093.895-.201 1.82.028 2.705v.003Zm-2.988-10.622c-.032.575-.04 1.16-.022 1.749a.731.731 0 0 1 .236.196c1.067 1.074 2.488 1.849 3.848 2.545a19.543 19.543 0 0 0 4.799 1.592c-1.037-1.192-1.789-2.567-2.029-4.173-.129-1.834.562-3.833 1.933-5.09a9.547 9.547 0 0 1 1.85-1.355c-2.57.317-5.082 1.067-7.394 2.305-.952.493-1.947 1.285-2.781 2.006a.701.701 0 0 1-.437.229l-.003-.004Zm2.859-8.598a.692.692 0 0 1-.275.467c-.179.49-.29.864-.39 1.407-.075.806.154 1.62.572 2.309.143.19.351.371.501.575.033-.015.065-.033.097-.047 2.445-1.131 5.079-1.952 7.77-2.184 4.005-.39 9.206.471 12.301 2.038 1.178.546 2.252 1.317 3.236 2.188 1.006-1.66.118-3.88-1.128-5.204-4.81-3.537-11.742-4.675-17.49-3.366a23.122 23.122 0 0 0-4.678 1.524c-.165.065-.34.179-.516.297v-.004Z"/><path fill="#000" d="M233.29 26.04c-.891-.525-1.256-1.238-1.256-1.988 0-.392.1-.792.276-1.178.093.086.2.16.315.222.236.125.522.182.794.146.373.007.716-.186.952-.457.237-.271.251-.66.176-.996-.061-.282-.219-.535-.405-.753a1.039 1.039 0 0 0-.089-.093c.948-.585 2.079-.806 3.046-.317 1.886.988 2.294 2.762.98 4.45-1.088 1.328-3.293 1.956-4.789.957v.007ZM196.565 17.267c-.819.207-1.578.6-2.322.989-1.997 1.128-3.887 2.512-5.415 4.233-.394.478-.806 1.481-1.579.992-1.26-.878 2.051-3.416 2.735-4.04 1.757-1.45 3.725-2.716 5.887-3.462.483-.064.992-.428 1.457-.16a.723.723 0 0 1 .229.984c-.215.343-.63.386-.992.464ZM186.308 25.573c-.372.02-.755-.282-.755-.672 0-.389.268-.731.673-.753.372-.02.755.282.755.672 0 .389-.268.731-.673.753ZM202.267 58.001c.097 1.517-.454 3.02-1.299 4.265-.358.61-1.228 1.689-1.947.957-.419-.532 0-.996.451-1.303.243-.296.415-.642.63-.96.469-.853.805-1.867.737-2.873.018-1.17.132-2.527.097-3.73.068-.567-.229-1.188.096-1.702.455-.66 1.504-.154 1.278.603.165 1.574-.021 3.166-.043 4.743ZM197.249 64.361c-.372.022-.755-.282-.755-.67 0-.39.269-.732.673-.754.372-.021.755.282.755.671 0 .39-.268.732-.673.753ZM192.915 72.345c-1.274.09-2.548.05-3.822-.039-1.142.022-2.287.09-3.426.186a.723.723 0 0 1-.755-.675c0-1 1.26-.739 1.937-.853 2.058-.175 4.112.079 6.17-.043.39.015.691.386.662.764-.029.4-.376.675-.766.66ZM182.192 72.96c-.372.02-.755-.283-.755-.672 0-.389.268-.731.673-.753.372-.021.755.282.755.671 0 .39-.268.732-.673.753ZM237.166 93.16c-.293-.688-.744-1.31-1.098-1.97-1.436-2.145-2.459-4.622-4.363-6.442-.705-.617.222-1.681.93-1.085 1.199 1.053 1.94 2.352 2.785 3.701.794 1.378 1.668 2.73 2.462 4.115.194.322.505.814.641 1.214.29.892-1.02 1.342-1.353.467h-.004ZM229.199 83.217c-.533-.874.791-1.603 1.257-.689.533.878-.795 1.603-1.257.689ZM152.873 88.678c-.48.885-.963 1.766-1.604 2.555a.724.724 0 0 1-.998.164c-.816-.674.289-1.456.615-2.088.662-1.267 1.446-2.466 2.28-3.626.222-.321.426-.682.719-.942.752-.578 1.607.492.906 1.114-.666.92-1.299 1.87-1.918 2.823ZM150.235 93.085c0 .39-.305.721-.702.729-.383.007-.73-.311-.73-.7 0-.389.304-.721.701-.728.383-.007.731.31.731.7ZM219.107 111.966c-1.117-.125-2.241.064-3.361.011-1.586-.1-3.171.028-4.76.007-2.778-.029-5.548-.097-8.325-.107-.637 0-1.274-.032-1.911-.018-.451.064-1.028-.072-1.078-.635-.021-1.214 1.765-.693 2.552-.782 1.289.003 2.577.046 3.866.046 2.816.036 5.615.115 8.435.018 1.686.171 3.415-.193 5.079.114.923.329.419 1.674-.494 1.346h-.003ZM197.754 112.069c-.401-.017-.684-.356-.684-.746 0-.389.369-.699.748-.681.401.018.684.357.684.746s-.369.699-.748.681ZM133.757 126.299c1.521-1.195 3.171-2.148 4.799-3.198 1.099-.678 2.309-1.159 3.504-1.641.526-.172 1.049-.454 1.614-.421 1.077.149.82 1.549-.229 1.445a20.613 20.613 0 0 0-5.379 2.63c-2.545 1.589-5.09 3.309-7.241 5.422a24.886 24.886 0 0 0-1.506 1.713c-.244.307-.716.332-1.01.089a.725.725 0 0 1-.089-1.006c1.546-1.981 3.461-3.637 5.54-5.036l-.003.003ZM126.552 134.319a.725.725 0 0 1 .698.732c0 .389-.354.703-.734.696a.725.725 0 0 1-.698-.732c0-.389.355-.703.734-.696ZM249.579 123.255c2.165.778 4.137 2.106 5.898 3.569 1.61 1.185 2.763 2.823 3.98 4.383.519.785-.634 1.56-1.181.807-.798-1.003-1.539-2.06-2.434-2.984-.805-.768-1.697-1.446-2.566-2.142-1.228-.838-2.516-1.627-3.887-2.202a.72.72 0 0 1-.723-.296c-.412-.593.265-1.338.913-1.135ZM260.516 133.223c.408.025.673.364.673.753 0 .39-.383.696-.755.671-.408-.025-.673-.364-.673-.753s.383-.696.755-.671ZM228.362 147.81c1.224-.014 2.291.814 3.314 1.392 1.024.639 2.069 1.242 3.046 1.953.723.592-.168 1.684-.902 1.11-1.718-1.085-3.393-2.406-5.336-3.045a.723.723 0 0 1-.655-.55.724.724 0 0 1 .533-.86ZM237.102 152.375c.401.014.691.35.691.739s-.365.699-.741.689a.724.724 0 0 1-.691-.739c0-.389.365-.7.741-.689ZM156.799 160.941c.193-.353.619-.457.97-.286 1.36.311 2.705.714 3.962 1.339 2.39 1.238 4.32 3.223 5.987 5.304 1.264 1.481 2.012 3.347 3.451 4.675.282.268.29.732.018 1.01-.745.678-1.418-.41-1.894-.906-.73-.903-1.267-1.942-1.943-2.881-1.514-2.134-3.339-4.072-5.533-5.532-1.446-.91-3.129-1.26-4.732-1.752-.351-.168-.469-.639-.286-.971ZM172.94 173.875c.38-.014.737.304.737.693a.723.723 0 0 1-.694.735c-.379.014-.737-.303-.737-.692 0-.389.293-.721.694-.736ZM209.697 177.723c.866-.468 1.614-1.042 2.377-1.703.386-.357.766-.713 1.156-1.067.365-.396.909-.889 1.421-.407.275.264.293.736.017 1.01-1.03.964-2.04 1.971-3.221 2.766-.866.654-1.893.996-2.841 1.496a.726.726 0 0 1-.935.225c-1.363-1.189 1.235-1.892 2.026-2.32ZM216.089 171.962c.38-.014.738.304.738.693a.724.724 0 0 1-.695.735c-.379.014-.737-.303-.737-.692 0-.389.294-.721.694-.736ZM144.601 197.745c.401-.128.791.125.917.507.49.978 1.005 1.945 1.521 2.913 1.446 2.748 3.078 5.539 5.168 7.88 1.02 1.057 2.376 1.681 3.647 2.374.558.271 1.593.449 1.317 1.292-.215.564-.834.539-1.281.274-1.883-.845-3.812-1.841-5.165-3.444-2.72-3.298-4.699-7.077-6.593-10.903-.136-.361.108-.782.466-.896l.003.003ZM159.304 211.979c.379-.014.744.296.744.685 0 .389-.286.728-.687.743-.379.014-.744-.297-.744-.686 0-.389.286-.728.687-.742ZM241.204 196.714c.304-.575.615-1.142.93-1.71.666-1.217 1.428-2.634 2.223-3.829a.724.724 0 0 1 .991-.214.72.72 0 0 1 .215.988 33.311 33.311 0 0 0-1.328 2.202c-.594 1.089-1.131 2.038-1.732 3.17-.183.342-.584.517-.952.346-.34-.161-.53-.607-.347-.949v-.004ZM240.463 199.159c.4.018.683.357.683.746s-.372.699-.748.681c-.401-.017-.683-.357-.683-.746s.372-.699.748-.681ZM182.203 151.654c1.095.967 2.104 2.017 3.078 3.102 1.22 1.281 2.405 2.612 3.751 3.765.712.603-.194 1.681-.917 1.096-2.512-2.177-4.538-4.847-7.022-7.053-.275-.271-.24-.753.04-1.006.318-.3.798-.218 1.07.096ZM196.347 161.608c.637.693-.411 1.639-1.048.971-2.405-2.623-4.968-5.104-7.352-7.748-2.469-2.856-5.053-5.622-7.43-8.548-.419-.778.716-1.46 1.217-.746 1.722 2.088 3.572 4.083 5.326 6.146 2.952 3.44 6.199 6.61 9.284 9.929l.003-.004ZM185.692 144.791a257.529 257.529 0 0 1 5.362 5.45c1.439 1.495 2.702 3.023 4.338 4.347.715.603-.194 1.677-.917 1.096-1.249-.996-2.33-2.177-3.414-3.341a214.299 214.299 0 0 0-6.421-6.581c-.633-.689.408-1.642 1.049-.971h.003ZM203.473 159.196a20.565 20.565 0 0 1-2.033-1.649c-4.524-4.147-8.432-8.88-12.77-13.209-1.174-1.21-2.709-2.174-3.525-3.677-.315-.856.938-1.363 1.321-.542.805 1.203 2.061 2.045 3.07 3.076 5.004 4.819 9.22 10.483 14.703 14.794.784.536.022 1.689-.769 1.203l.003.004ZM202.951 150.037c.708.657-.283 1.689-.981 1.039-1.536-1.481-2.978-3.048-4.513-4.526a635.125 635.125 0 0 0-3.622-3.362c-.476-.464-1.028-.888-1.339-1.484-.415-.821.77-1.482 1.249-.7.208.378.562.646.859.949 2.863 2.552 5.644 5.347 8.347 8.084ZM201.948 145.676c-.712-.675-1.596-1.474-2.355-2.184-2.093-1.649.086-2.938.523-1.51 1.124 1.171 2.387 2.224 3.611 3.416.283.267.237.756-.039 1.006-.677.593-1.263-.325-1.743-.728h.003ZM46.771 111.241a.726.726 0 0 1-.862-.531c-.315-1.382-.609-2.781-.594-4.208.039-3.512-.054-7.028.25-10.53.19-.727-.233-2.187.863-2.23 1.17.157.508 1.695.547 2.48-.129 1.5-.147 3.006-.207 4.508.021 2.531-.147 4.994.1 7.531.121.71.268 1.417.43 2.12a.723.723 0 0 1-.53.86h.003ZM47.093 114.254c-.905-.411-.114-1.992.762-1.581.906.41.115 1.995-.762 1.581ZM108.327 102.54c-1.059.153-.97-1.285-1.267-1.963-.247-.725-.533-1.431-.805-2.145-1.041-1.867-2.022-3.708-3.55-5.25-.247-.257-.609-.543-.58-.935.018-.678.952-.939 1.313-.368 1.937 1.98 3.483 4.397 4.506 6.963.398.918.652 1.881.92 2.841.111.375-.168.775-.529.861l-.008-.004ZM108.839 105.324a.724.724 0 0 1-.691-.739c0-.389.366-.7.741-.689.401.014.691.35.691.739s-.365.7-.741.689ZM77.551 150.062c.4.018.687.354.687.743s-.365.699-.744.685a.727.727 0 0 1-.687-.742c0-.389.365-.7.744-.686ZM109.201 191.464c.354-2.117.479-4.272.411-6.414-.007-.849-.254-1.859.015-2.716a.723.723 0 0 1 .894-.471c.426.128.609.614.437 1.014-.072.581.057 1.17.068 1.756.114 2.569-.05 5.15-.512 7.68a21.227 21.227 0 0 1-.454 2.11c-.104.374-.534.585-.895.471-.623-.193-.526-.864-.351-1.346.161-.692.276-1.388.394-2.088l-.007.004ZM107.98 195.968a.724.724 0 0 1 .695.735c0 .389-.358.703-.738.693a.725.725 0 0 1-.694-.736c0-.389.358-.703.737-.692ZM48.038 209.584c-1.145.189-.97-1.567-1.17-2.306-.14-1.62-.265-3.251-.465-4.864-.15-.735-.494-2.242.69-2.174.376.064.662.439.587.821.058 1.189.34 2.384.383 3.587.13.982.147 1.97.294 2.945.06.656.605 1.723-.322 1.988l.003.003ZM47.401 198.334a.724.724 0 0 1-.694-.735c0-.389.358-.703.737-.692.4.014.694.346.694.735s-.357.703-.737.692ZM34.86 150.005c2.276-.225 4.57-.128 6.854-.125.587.029 1.46-.032 1.457.782a.719.719 0 0 1-.738.689c-1.997-.1-3.998-.05-5.995-.036-.712-.036-1.456.271-2.14 0-.827-.389-.293-1.627.562-1.31ZM46.07 150.216c.547.964-.813 1.606-1.328.617-.548-.97.816-1.599 1.328-.617Z"/></g><defs><clipPath id="a"><path fill="#fff" d="M273 0H0v218h273z"/></clipPath></defs></svg>