<svg xmlns="http://www.w3.org/2000/svg" width="241" height="221" fill="none"><g clip-path="url(#a)"><path fill="#E2FFB4" d="M105.076 44.136s-.023.005-.023 0c-.009 0-.018.01-.023.014a.226.226 0 0 1 .051-.018l-.005.004ZM24.857 119.639c-.05-1.34-.145-2.671-.127-4.002-.023-.045-.05-.09-.063-.145v-.085c-2.103 1.507-3.267 3.903-4.391 6.15-.361.884-1.047 1.628-1.367 2.513-.122 1.755 1.421 2.77 3.046 2.626 1.3.031 2.77-.501 3.118-1.882.032-.857-.361-1.674-.366-2.531-.05-.871.177-1.782.145-2.644h.005ZM21.332 107.443a.474.474 0 0 1-.036-.18c0-.226.117-.492.13-.7.046-.428-.18-.839-.342-1.209a.545.545 0 0 1-.271-.379 3.578 3.578 0 0 0-.546-.347c-1.702-.474-3.502-.42-5.18.085-1.689.758-3.819 1.286-5.028 2.748-.366.907.857 1.006 1.462 1.115a.991.991 0 0 1 .745.943c.027 1.295-1.314 2.053-1.562 3.235.018 1.326 1.241 2.784 2.59 2.874 1.67-.221 2.392-2.076 3.426-3.177.934-1.091 1.855-2.201 2.852-3.239.528-.641 1.092-1.291 1.769-1.773l-.01.004ZM39.162 112.727c.956-2.004 2.929-2.87 5.027-3.132.13-.054.42-.085.415-.252-1.976-4.977-4.45-5.333-9.048-3.132-1.534 1.025-2.856 2.302-4.314 3.411a.92.92 0 0 1-.24.452c1.445 0 2.961.063 4.238.789 1.3.618 2.514 1.525 3.922 1.864Z"/><path fill="#A4D357" d="M30.971 164.086a.504.504 0 0 1 .108-.077 1.53 1.53 0 0 0 .411-.618c.339-1.046.185-2.233-.081-3.266-.505-1.543-.975-3.321.645-4.372 2.378-1.665 5.65-1.503 8.34-.785 1.354.46 2.4 1.47 3.497 2.346.975.672 2.08 1.137 3.06 1.809.875.537 1.656 1.205 2.46 1.836.956.668 2.035 1.282 2.59 2.351.41.799.37 1.724.6 2.576.194.655.433 1.295.686 1.932.772 1.989 3.118 4.245 5.393 3.636 1.29-.749 2.057-3.343 1.674-4.724a.756.756 0 0 0-.104-.099c-1.63-.704-2.658-2.112-3.538-3.592-1.029-1.425-1.282-3.153-1.805-4.778-.98-1.899-1.435-3.961-1.81-6.05-.749-2.125-1.15-4.35-1.633-6.552-.262-1.637 1.092-3.009 2.306-3.884 1.462-.804 2.956-1.557 4.44-2.324 1.932-.948 3.98-.032 5.781.771 1.539.628 1.787-.072 2.694-1.141 1.11-1.512 2.843-2.279 4.648-2.599 1.702-.37 3.44-.573 5.181-.492 5.894.614 5.822-3.718 4.305-8.036-.794-2.138-1.48-5.698.745-7.178 1.864-.803 4.057-1.146 6.047-.645 1.674.401 3.258 1.155 4.991 1.299.27.023.483-.167.623-.365 1.575-2.455 2.265-1.868 4.756-1.322 2.103.14 4.301.825 6.35.487 2.897-.911 1.507-5.284 3.213-7.454.126-.55.235-1.114.149-1.665-.47-2.125-2.13-3.889-4.134-4.642-2.112-.849-4.95.306-4.86-3.082.334-2.969 3.204-4.945 6.011-5.275 2.73-.338 4.495-.252 6.548-2.422-2.252-2.103-1.598-5.965-4.066-7.896-.713-.357-1.571-.163-2.329-.415-2.229-.47-4.531-.533-6.787-.826-1.66-.045-3.655.37-3.357-2.03.275-2.31 2.531-4.02 2.563-6.353h.009c-1.566-2.189-4.657-.591-6.625.153-1.232.541-2.55.857-3.813 1.331-2.41.988-4.468.627-6.638-.73-2.42-1.26-2.87-4.278-3.561-6.665-.334-.98-.582-2.216-1.561-2.748v-.009c-.068-.018-.136-.036-.213-.027l.014-.013a.82.82 0 0 0-.153.05c-.073.035-.145.071-.15.08-1.881 1.58-2.901 3.993-3.74 6.24-.65 2.022-.953 3.696.654 5.352 3.854 3.875 3.795 5.825 1.733 10.765-1.156 2.423-2.234 5.03-4.12 6.99-2.333 1.998-5.835 3.288-8.687 1.619-3.534-2.094-1.092-6.385-.483-9.399.126-1.367-.546-2.666-1.332-3.722-.875-1.168-2.427-1.746-2.974-3.163-.667-1.787-.92-3.75-.798-5.649.076-1.02.438-1.913.456-2.874.05-.821-.474-1.502-1.25-1.723-1.133-.343-2.162-.984-2.807-2.004-1.31-1.755-1.891-4.133-.88-6.172.69-1.35 1.787-2.707 3.235-3.253 1.214-.289 2.464.207 3.692-.05 1.065-.144 1.999-.704 2.951-1.168 1.12-.578 2.563-.822 3.186-2.04 2.78-7.68 6.634-2.833 11.936-1.556 1.945.473 4.594.08 5.375-2.026.158-.948-.361-1.837-.33-2.793-.094-1.21.754-2.107 1.359-3.055.975-1.615-.38-3.352-1.525-4.422-1.318-1.141-2.487-2.468-3.096-4.123-.474-1.219-.709-2.536-1.34-3.691-1.327-2.36-3.547-.885-5.556-1.724-.993-.383-1.927-.93-2.788-1.556-.917-.628-1.765-1.516-2.803-1.94-.23.058-.505.05-.74-.014-3.818.234-7.572 1.281-11.39 1.629-4.04.406-8.191.713-12.054 1.998-3.294.885-6.268 2.572-9.165 4.323-.18.135-.388.32-.605.447C14.021 58.849 2.974 82.05 1.431 106.685c-1.4 22.6 4.4 43.085 15.18 60.226 1.544 1.249 3.367 2.396 5.434 2.197 4.134-.226 4.58-2.987 7.825-4.526.357-.175.727-.347 1.101-.491v-.005Zm71.947-70.653c.307 0 .555.285.546.582a.57.57 0 0 1-.582.546c-.307 0-.555-.284-.546-.582a.57.57 0 0 1 .582-.546Zm-6.86 6.615c.89-1.719 2.298-3.127 4.058-3.943.356-.6 1.291-.118.997.523-.429.7-1.417.83-1.99 1.408-.912.686-1.57 1.629-2.116 2.621-.154.266-.528.33-.781.172-.27-.172-.325-.515-.172-.781h.005ZM51.808 139.04c.803-.532 1.651-1.024 2.567-1.34 1.214-.478 2.663-.451 3.773-1.173.32-.234.75-.401.97-.735.131-.28.47-.406.75-.276.573.28.275.984-.122 1.282-1.557 1.466-3.75 1.421-5.619 2.215-.632.303-1.123.591-1.67.952a.564.564 0 0 1-.645-.925h-.004Zm21.959-85.578c.866.375 2.68 1.173 2.559-.474-.086-.717.063-1.466.55-2.017.528-.613 1.115-1.222 1.124-2.084.004-.406.108-.898-.266-1.16-.56-.478.162-1.33.73-.861.98.785.74 2.26.389 3.311-.29.79-1.124 1.255-1.386 2.049-.085.514.059 1.042-.085 1.552-.23.893-1.187 1.489-2.094 1.349-.759-.104-1.332-.384-1.995-.64-.668-.312-.203-1.318.474-1.025Zm-3.958-1.475c.334.708-.74 1.195-1.033.46-.334-.709.744-1.196 1.033-.46ZM47.05 73.049c-.307 0-.555-.285-.546-.583a.57.57 0 0 1 .582-.545c.307 0 .555.284.546.582a.57.57 0 0 1-.582.546Zm2.17 69.118c-.762-.022-.735-1.403.041-1.367.763.023.736 1.403-.04 1.367Zm-2.973-76.816c.406-.956 1.115-1.728 1.652-2.608.126-.374.455-.735.875-.537 1.083.573-1.083 2.495-1.336 3.271-.582 1.255-.844 2.717-.64 4.084.153.717-.93.97-1.102.248-.266-1.489.028-3.086.55-4.462v.004ZM6.959 85.723c.613-2.08 1.701-3.98 2.392-6.028-.176-.267-.046-.646.225-.785.537-.271.98.37.903.861-.325 1.485-1.165 2.798-1.697 4.21-.253.69-.506 1.376-.745 2.07a.574.574 0 0 1-.704.375.57.57 0 0 1-.374-.703ZM5.83 89.54a.57.57 0 0 1 .582-.546c.307 0 .555.284.546.582a.57.57 0 0 1-.582.546c-.307 0-.555-.284-.546-.582ZM8.8 144.789c-.763-1.611-1.273-3.335-1.674-5.067-.217-.745-.212-1.602-.61-2.27a.572.572 0 0 1 .037-.798c1.195-.673 1.344 1.525 1.552 2.255.388 1.837.912 3.651 1.697 5.356.33.654-.66 1.173-1.002.519v.005Zm2.265 3.505c-.306 0-.546-.306-.532-.595.018-.321.289-.533.596-.533.306 0 .546.307.532.596-.018.32-.289.532-.596.532Zm1.422-31.651c-1.692-.6-3.258-2.54-2.834-4.404.27-.979 1.196-1.624 1.476-2.603-1.21-.068-2.442-.821-2.252-2.188.677-2.067 3.217-2.581 4.964-3.466 2.094-.925 4.522-1.033 6.724-.455 1.218.473 2.021 1.592 2.807 2.581.735-.009.735 1.073.072 1.204-.01.46-.528.569-.876.713-.965.406-1.579 1.295-2.256 2.053-.803.835-1.557 1.719-2.302 2.608-1.534 1.62-2.82 4.67-5.519 3.962l-.004-.005Zm13.137 9.57c-1.31 1.836-4.13 1.985-6.052 1.119-1.309-.691-2.071-2.36-1.701-3.795.302-.654.753-1.241 1.087-1.886 1.092-2.147 2.126-4.408 3.836-6.15.555-.582 1.273-.974 1.81-1.552.149-.315.474-.573.83-.401a.568.568 0 0 1 .311.604c.095.289.095.664.09.975.113.596 0 1.241-.013 1.845.312 1.99.023 3.673.045 5.604.23 1.214.7 2.59-.243 3.632v.005Zm4.061-16.212c-.176-.279-.095-.712.266-.839 1.639-1.146 3.087-2.545 4.707-3.722 3.303-1.8 7.293-2.879 9.657.893.565 1.173 2.41 3.226.677 4.165-2.044.672-3.655.46-4.81 2.711-.235.515-.79.74-1.332.614-2.08-.474-3.709-2.211-5.834-2.518-.894-.049-1.778-.171-2.668-.099a.48.48 0 0 1-.338-.14c-.433-.189-.496-.631-.33-1.065h.005Z"/><path fill="#E2FFB4" d="M156.16 203.931c-.415-.397-.912-.654-1.449-.834-.144-.032-.289-.064-.424-.109a45.895 45.895 0 0 1-.352-.095c-.893-.189-1.846-.252-2.694-.433-.307-.049-.614-.117-.925-.171a27.19 27.19 0 0 0-6.435.451c-.614.172-.998.569-1.508.907-3.136 2.27-7.297 1.863-10.925 1.34-2.5-.546-5.077-.938-7.428-1.985-1.611-.749-2.947-2.053-3.624-3.709-1.096-2.233-1.751-4.706-1.476-7.201.185-2.888 2.744-4.765 3.714-7.332.889-2.012 1.309-4.142 1.454-6.317.054-3.33.401-6.944 2.933-9.385 1.859-1.917 4.639-3.05 5.745-5.622 1.692-5.003-1.562-6.285 4.553-10.061 1.977-1.259 4.08-2.306 6.02-3.619 1.088-.812 2.053-1.823 3.34-2.328 1.516-.605 3.059-1.191 4.675-1.453 2.378-.397 4.305 1.516 5.663 3.226.822.948 1.219 2.193 1.823 3.258.434.573 1.187.564 1.828.614 2.008-.032 4.071-.488 6.02.175 3.904 1.295 6.905 4.296 10.402 6.313 2.775 1.186 6.146-.086 8.534 2.098 1.336.988 2.531 2.156 3.804 3.217 1.715 1.272 3.538 2.612 5.131 3.984 2.207 2.08 5.334.844 7.73-.199 1.201-.464 2.482-.681 3.769-.713 3.086.149 4.237-.455 6.259-2.806 1.209-1.354 2.716-2.373 4.03-3.614 1.561-1.656 4.039-4.544 3.538-6.912-1.138-3.407-4.689-4.842-7.956-5.419-1.047-.176-2.166-.668-3.231-.469-.908.306-1.386 1.258-2.036 1.908-.604.663-1.245 1.295-1.985 1.8-1.21.853-3.62 1.837-4.504.1-.478-1.652 1.146-3.037 2.347-3.908 2.251-1.62 5.474-2.256 6.796-4.913.767-1.832-.303-2.369-1.846-2.983-1.408-.541-2.69-1.453-4.197-1.701-1.137-.099-2.279.041-3.416 0-7.387-.406-6.733.402-8.132 6.989-.695 2.915-3.515 3.299-6.061 3.425-1.773.077-3.614.41-5.356-.072-1.417-.42-1.738-1.778-1.467-3.086.23-1.431.542-2.857 1.052-4.215.446-1.218 1.028-2.377 1.574-3.555.452-.88.826-1.854 1.562-2.536 1.3-1.119 3.127-1.114 4.693-1.638 1.187-.442 2.762-.848 3.331-2.084.325-1.272-1.598-1.674-2.473-1.967-1.363-.452-2.83-.176-4.008.604-.37.208-.252.745-.483 1.079-.645 1.665-2.315 2.91-4.138 2.432-.695-.104-1.394-.321-2.098-.321-1.002.149-1.968.821-2.604 1.584-.871 1.669.018 4.038-1.467 5.446-.889.609-2.08.406-3.1.37-2.848-.149-5.235-1.909-7.559-3.398-.988-.812-4.418-2.702-3.746-4.142.768-1.074 2.212-1.597 2.853-2.797.067-.14.117-.284.13-.361-.009-.117.122-.397-.081-.42-.749-.022-1.498.113-2.252.145-1.254.04-2.613.04-3.718-.627-3.439-2.586 3.037-4.472 5.068-4.165 1.471.032 3.028 0 4.377.677.934.428 1.814 1.069 2.852 1.196 1.476-.019 2.27-2.27 2.518-3.488.176-1.042.081-2.161-.744-2.901-1.237-1.282-4.477-4.016-1.088-4.792a44.53 44.53 0 0 1 10.894-1.71c4.346-.185 8.885-.997 12.992.884 2.085.894 4.278 1.48 6.431 2.17 3.001 1.016 3.466 1.386 6.485.05 1.814-.771 3.763-1.263 5.735-.925 1.305.154 2.645.42 3.94.054 2.992-.943 5.433-3.014 7.888-4.886 3.389-2.595 5.998-4.841 4.856-9.525-.424-2.044-2.338-4.516-.284-6.267 1.02-.93 2.265-2.274 1.638-3.722-.894-1.426-2.302-2.302-3.646-3.23-2.013-1.278-4.17.428-6.093 1.109-1.859.772-3.371 2.265-4.391 3.989-.577 1.231-.821 2.621-1.669 3.722-.799 1.141-1.896 2.039-2.69 3.181-.907 1.376-1.498 2.996-2.834 4.047-2.351 1.877-5.826.546-8.475.023-2.297-.758-4.698-1.372-6.855-2.482-1.516-.762-2.59-2.102-3.917-3.109-.253-.13-.365-.176-.627-.176-1.521.064-3.127.208-4.535-.473-2.343-1.124-1.995-4.057-.348-5.663 1.728-2.012 4.414-2.567 6.81-3.402 3.041-1.182 6.088-2.364 9.255-3.163 2.103-.37 4.175-.884 6.147-1.705 2.802-.89 5.56-1.927 7.987-3.632.831-.578 1.372-1.467 2.176-2.071.821-.677 2.048-.799 2.707-1.643.465-1.232.492-2.878 1.968-3.37 2.92-1.164 5.961.604 8.944.478 1.237-.1 2.252-.93 3.109-1.773.199-.578.122-1.173.059-1.791.005-.154-.022-.316-.031-.465a95.462 95.462 0 0 0-1.007-2.464c-5.208-12.412-12.766-23.362-21.986-32.635-.244.05-.523.036-.731-.009-3.141-.586-6.3.618-8.904 2.32-.334.324-.668.645-1.006.96-.718.587-1.525 1.079-2.112 1.805-.97 1.377-1.534 2.938-2.5 4.314-1.201 1.773-2.631 3.429-4.423 4.63-1.981 1.484-4.562 1.74-6.679 2.932-2.658 1.57-5 3.709-7.865 4.913-2.32.92-4.838 1.814-7.361 1.336-1.408-.24-2.658-1.07-4.079-1.21-.397-.063-.591.28-.713.6-1.783 5.005-2.284 4.779-6.833 6.963-1.922 1.128-4.187 1.493-6.39 1.245-1.223-.04-2.473-.496-3.691-.298-.42.172-.677.587-.862.984-.542 1.394-.885 2.883-1.746 4.133-1.016 1.678-2.88 1.872-3.746-.05-.821-2.07-.56-4.53-.596-6.673.036-1.724-.117-3.402.032-5.117.131-1.452.383-2.91.857-4.286.713-1.823 2.045-3.402 2.514-5.32.866-3.722-1.201-6.542 1.354-10.142.708-1.15 1.742-2.026 2.595-3.055 1.466-1.904 1.403-4.43 1.435-6.705 0-1.863 1.083-3.38 2.012-4.9.551-1.033.835-2.3 1.043-3.406.289-1.782-.118-3.57-.632-5.266-.727-2.003-.397-3.506 1.3-4.85.406-.307.568-.695.591-1.119a.524.524 0 0 1-.081-.167l-.055-.785a6.82 6.82 0 0 0-.297-.79c-.555-1.498-1.508-3.14-1.083-4.769a121.91 121.91 0 0 0-25.028-2.901c-4.969-.09-9.946.113-14.892.591a.59.59 0 0 1-.226.289c-1.286 2.545-.74 4.164 1.2 6.086.912.849 1.864 1.688 2.726 2.595a.98.98 0 0 1 .217.235c.907.992 1.696 2.08 2.202 3.36 1.597 4.192 1.331 8.962.785 13.33-.803 5.04-3.208 9.506-.848 14.59 2.391 5.063 7.951 8.8 8.222 14.728.086 3.483-4.441 8.13-7.961 7.467-2.224-.568-3.402-2.77-4.675-4.49-1.494-2.395-3.754-4.39-4.63-7.124-.803-2.463.23-5.382-1.471-7.548-.442-.564-1.137-1.367-1.932-1.079-.388.226-.55.713-.685 1.11-.312 1.26-.718 2.5-1.372 3.624-.569 1.055-1.616 1.732-2.252 2.725-.546 1.087-.78 2.319-1.634 3.24-1.24 1.62-3.488 2.143-5.384 1.497-3.696-1.38-3.628-9.06-3.271-12.362.379-2.41.848-4.801 1.263-7.206.78-3.587 2.947-7.986.018-11.113-1.724-2.102-4.282-3.086-6.412-4.643-1.183-.916-1.85-2.3-2.834-3.402-.98-1.01-2.464-1.218-3.787-1.475-2.658-.415-5.631.113-7.834-1.769-.5-.42-.938-.916-1.331-1.426a124.6 124.6 0 0 0-17.916 10.058 116.286 116.286 0 0 0-7.495 5.454c1.624 2.162 4.512 2.807 7.008 3.213 1.742.207 3.497.32 5.23.14 2.207-.208 4.378-.78 6.602-.772 3.11-.257 4.942 2.856 7.64 3.8 1.223.563 2.532.022 3.787.338 2.387.577 3.068 3.158 3.678 5.22.379 1.146.974 2.238 1.814 3.113.952.952 1.985 1.764 2.694 2.91.902 1.286.957 3.05.045 4.346-.438.663-1.083 1.285-1.024 2.143.018.73.257 1.425.36 2.143.172 1.967-1.719 3.528-3.515 3.849-3.497.812-6.625-1.507-9.793-2.554-4.075-1.065-2.95 4.173-6.11 5.26-2.12.822-4.093 2.306-6.476 2.108-.69.004-1.421-.235-2.09-.063-3.397 1.868-3.858 5.622-1.154 8.392.7.717 1.764.78 2.563 1.335 1.543 1.043 1.105 3.073.749 4.607-.289 1.873-.095 5.27 1.223 6.687 2.017 1.47 3.845 3.627 3.804 6.258-.144 1.95-1.227 3.695-1.385 5.649-.542 2.996 2.947 4.137 5.316 3.348 3.177-1.038 4.382-2.798 5.817-5.627.993-1.886 1.895-3.844 2.441-5.883 1.625-5.897-6.033-5.839-3.633-12.494.695-2.287 1.783-4.512 3.308-6.362 1.034-1.304 2.415-1.813 3.584-.338 1.164 1.516 1.322 3.515 1.926 5.274.352.993.736 2.026 1.454 2.816 1.078.821 2.364 1.498 3.704 1.746 1.576.14 3.029-.618 4.5-1.056 2.301-.659 4.436-1.999 6.873-2.107 1.421.018 3.321.758 3.443 2.369-.023 1.651-1.128 3.041-1.855 4.458-.374.78-.92 1.633-.708 2.53.05.105.275.123.334.127 1.75-.058 3.529.154 5.239.397 1.521.04 3.001.312 4.481.623 1.029-.023 2.031.289 2.681 1.128 2.021 2.152 1.462 5.834 3.867 7.661.501.826-.808 1.557-1.313 2.053-.957.794-2.071 1.417-3.317 1.597-2.554.32-5.632.33-7.229 2.708-.578.785-1.065 1.895-.628 2.824.05.081.1.154.163.217.582.433 1.394.23 2.071.361 2.64.306 4.937 2.071 6.088 4.439.578 1.097.659 2.351.343 3.533-.167.483-.145 1.449-.7 1.584-.586 1.787-.311 3.844-1.417 5.45-1.484 2.166-4.35 1.377-6.539 1.128-1.074-.135-2.098-.194-3.145-.451-2.748-1.209-1.99 1.846-4.274 1.891-2.112-.131-4.016-1.169-6.087-1.503-1.476-.122-3.051.149-4.41.722-.6.352-.717 1.087-.82 1.715-.321 1.895.536 3.645 1.024 5.432.848 2.653 1.006 6.452-2.013 7.752-1.805.821-3.822.288-5.731.469-2.193.293-4.743.401-6.417 2.017-.912.866-1.54 2.346-2.947 2.432-1.828.027-3.358-1.489-5.199-1.417-1.273.036-2.315.871-3.411 1.421-1.566.754-3.489 1.566-3.999 3.393-.04.934.348 1.832.515 2.743.257 1.611.812 3.132 1.227 4.693.275 1.719.663 3.415 1.458 4.976.555 1.124.65 2.392 1.105 3.547.637 1.331 1.426 2.617 2.415 3.713.636.695 1.823.799 2.166 1.76.343 1.123.063 2.355-.316 3.438-1.354 4.404-5.6 3.041-7.866.185-.975-1.313-1.525-2.924-1.886-4.507-.136-.7-.122-1.476-.587-2.053-.92-1.043-2.288-1.692-3.299-2.622-1.322-1.047-2.879-1.723-4.273-2.657-1.147-.898-2.198-1.986-3.651-2.315-2.446-.42-5.731-.753-7.442 1.408-.297 1.132.42 2.242.56 3.352.27 1.615.221 3.659-1.372 4.584-.686.42-1.49.623-2.134 1.119-1.336 1.056-1.467 2.947-1.806 4.503-.428 1.787-.216 3.628-.65 5.405-.04.307-.063.61-.063.921.082.979.339 1.936.69 2.865.11.442.398.929.285 1.381 21.747 24.039 54.564 38.532 89.344 38.387a128.278 128.278 0 0 0 28.927-3.19c.185-.234.501-.428.708-.595.804-.817 1.774-1.426 2.613-2.197 1.228-1.313 2.487-2.595 3.642-3.976.718-1.128 1.403-2.323 2.487-3.149a.485.485 0 0 1 .261-.176c.276-.298.51-.622.65-1.006.154-.465.059-1.006-.068-1.457-.013-.05-.027-.1-.045-.145h.014Zm59.541-50.294c.307 0 .555.288.542.586a.574.574 0 0 1-.587.541c-.307 0-.555-.288-.541-.586a.572.572 0 0 1 .586-.541Zm-1.904 5.996c.97-.668 1.719-1.823 2.058-2.951.221-.699 1.286-.37 1.074.338-.068.952-2.87 5.216-3.646 3.222a.574.574 0 0 1 .514-.614v.005Zm-29.459-57.74c.306 0 .546.298.532.596-.018.32-.289.532-.596.532-.306 0-.546-.297-.532-.595.018-.321.289-.533.596-.533Zm38.629-46.983a.57.57 0 0 1-.564.564.57.57 0 0 1-.564-.563.57.57 0 0 1 .564-.565.57.57 0 0 1 .564.565Zm-4.743-7.007c1.607 1.187 2.735 3.19 3.8 4.869.37.632-.578 1.209-.966.577-.912-1.556-1.986-3.144-3.258-4.403-.677-.28-.262-1.313.428-1.047l-.004.004Zm-35.701 52.786c.61.406.009 1.344-.613.947-1.742-1.159-3.128-2.987-3.051-5.157-.379-.47.181-1.123.718-.862.329.136.383.524.415.83.063.695.058 1.426.433 2.044a7.232 7.232 0 0 0 2.098 2.198Zm-9.3-21.825c.352-.564.929-.108 1.335.127.713.343 1.747.776 2.374.072.257-.307.447-.681.51-1.078-.032-.244.063-.506.293-.623.262-.135.542-.063.727.158.131.158.09.379.226.537.501.677 1.317 1.317 2.179 1.376.763-.18 1.174-1.015 1.476-1.674.131-.33.537-.51.848-.316.267.167.321.492.492.736.497.794 1.453 1.457 2.419 1.25.785-.456 1.164-1.4 1.589-2.166.23-.452.898-.415 1.101.045.568 1.164 1.818 1.935 3.118 1.868a.574.574 0 0 1 .641.036c.501.41.036 1.119-.537 1.083-1.426.08-2.884-.564-3.741-1.71-.573.96-1.336 2.12-2.609 2.012-1.083-.045-2.098-.659-2.725-1.525-1.241 2.143-3.209 1.697-4.748.158-.641 1.34-2.283 1.633-3.542 1.033-.537-.293-1.792-.573-1.422-1.399h-.004ZM152.92 91.845c.514-.595 1.06.235 1.597.361 1.25.397 2.988-.081 3.389-1.444-.365-.947 1.079-1.29 1.156-.257 1.38 1.589 3.222 2.965 4.057.095.379-.681 1.037-.293 1.277.28 1.868 2.788 3.583 2.13 5.095-.51.965-1.12 1.489.853 1.958 1.453.546.573 1.413.681 2.148.749.339.004.564.022.853-.005a.582.582 0 0 1 .573.077c.248.194.276.541.095.794-.275.338-.781.257-1.173.28-1.557 0-3.335-.487-3.922-2.094-.835 1.372-2.505 2.744-4.183 2.049-.826-.361-1.494-1.025-2.063-1.71-1.313 2.4-3.601 1.457-5.09-.199-1.092 1.904-4.025 2.256-5.677.88a.565.565 0 0 1-.095-.79l.005-.009Zm-15.402-32.08c1.25.154.036 2.202.031 2.938-.203 1.028-.361 2.07-.352 3.122-.009.735-1.119.735-1.128 0-.009-1.823.393-3.61.889-5.351-.054-.352.185-.713.564-.713l-.004.004Zm-1.016 7.793a.57.57 0 0 1 .564.563.57.57 0 0 1-.564.564.57.57 0 0 1-.564-.564.57.57 0 0 1 .564-.563Zm-.365 82.663c.929-.569 1.886-1.119 2.698-1.85.009-.582.912-.713 1.088-.149.14.352-.023.709-.293.948-.93.852-2.04 1.489-3.119 2.134-.853.474-1.787.857-2.392 1.665a.57.57 0 0 1-.794.063c-.943-1.024 2.144-2.4 2.812-2.811ZM132.238 3.858c.307 0 .555.28.546.582a.57.57 0 0 1-.582.546c-.307 0-.556-.28-.547-.582a.572.572 0 0 1 .583-.546Zm-.876 150.564c.483-.172.754.293.853.69.244.69-.799 1.074-1.06.383-.194-.37-.271-.897.207-1.073ZM123.501 4.729c-.636-.082-1.765.59-1.963-.339-.005-.884 1.313-.681 1.918-.79 1.909-.027 3.786-.22 5.681.095.727.122.551 1.219-.176 1.115-1.841-.303-3.628-.095-5.46-.081Zm-13.462 56.074c-.243.167-.622.117-.785-.14-1.096-2.053-3.15-3.497-3.764-5.798-.203-.352-.496-.825-.049-1.132 1.137-.505 1.173 1.489 1.661 2.098.388.911 4.007 4.286 2.937 4.972Zm.953 2.55c-.858-.249-.587-1.431.275-1.129.857.248.582 1.43-.275 1.128Zm-79.204 107.7c-.266.135-.632.036-.758-.249-.203-.369-.434-.915.058-1.168.713-.379 1.395 1.069.7 1.417Zm4.887-7.233c-.32 1.299-1.295 2.26-2.27 3.113-.514.361-1.078 1.543-1.782.916-.515-.717.618-1.218.988-1.719 2.207-1.714 2.46-3.447 1.66-6.019a.566.566 0 0 1 .34-.722c.636-.207.82.533.906 1.006.217 1.115.474 2.306.154 3.425h.004ZM91 153.375c.582-.772 1.38.352 2.008.55 1.404.749 2.933.609 3.25-1.173.211-.388.803-.356.997.032 1.096.934 2.45 3.136 4.043 1.814.614-.474.912-1.246 1.485-1.742a.582.582 0 0 1 .636.054c.199.153.235.402.298.627.505 1.629 2.577 2.022 3.863 1.074.37-.248.699-.546 1.002-.875.203-.303.577-.564.938-.339.303.176.289.542.393.835.199.848.781 1.512 1.634 1.733.555.257 1.223.076 1.751.338.451.329.121 1.11-.429 1.002-1.593-.009-3.407-.704-3.899-2.36-1.692 1.755-4.797 1.827-6.061-.451-1.9 2.657-4.134 1.746-5.934-.424-.907 1.845-3.28 1.637-4.788.685-.465-.342-1.534-.64-1.183-1.385l-.004.005Zm-5.533-25.66c.582.943.397 2.13.573 3.19.077.776.384 4.151-.902 3.858a.572.572 0 0 1-.37-.708c.365-1.146.234-2.356.104-3.529-.118-.717 0-1.516-.334-2.174-.406-.614.51-1.246.93-.637Zm-1.733 9.173c.307 0 .556.289.542.587a.573.573 0 0 1-.587.541c-.307 0-.555-.289-.541-.586a.574.574 0 0 1 .586-.542Zm-7.626 73.685c-.307 0-.578-.212-.596-.533-.018-.293.226-.595.533-.595.306 0 .577.212.595.532.018.294-.225.596-.532.596Zm10.316 3.826c-2.875-.839-5.813-1.516-8.574-2.698-.646-.343-.14-1.331.523-.997 2.726 1.119 5.6 1.841 8.435 2.612a.563.563 0 0 1 .645 0c.736.699-.325 1.331-1.034 1.083h.005Zm1.254-51.508c-1.61 1.89-4.377 1.8-5.564-.479-1.782 2.013-4.661.555-6.674-.32-.668-.298-.248-1.322.438-1.042 1.466.604 3.154 1.597 4.765 1.092.564-.244.84-.804 1.169-1.273.27-.275.754-.212.934.127.785 2.612 3.046 2.756 4.526.6.221-.402.8-.695 1.129-.249.18.235.085.528.176.795.388.789 1.123 1.597 2.062 1.588 1.15-.127 2.148-.876 3.028-1.557.226-.266.636-.474.943-.207.27.23.23.622.456.884.948 1.363 2.63 2.17 4.278 1.99 1.043-.943 1.846 1.358-.582 1.159-1.873-.067-3.737-1.069-4.73-2.675-2.229 1.755-4.702 2.386-6.353-.447v.014Zm28.011 13.134c-.564.952-1.94.771-2.861.559-1.263-.361-2.333-1.195-3.244-2.12-2.943 2.269-4.901 1.859-7.523-.542-1.688 2.649-4.13 1.223-5.984-.37-1.25 1.241-3.313 1.381-4.924.862-.514-.248-1.588-.402-1.335-1.178.112-.275.46-.433.74-.302 1.58.88 3.921.993 5.09-.586.275-.212.636-.113.862.117 1.855 1.376 3.42 3.086 4.987.307.338-.375.825-.172 1.114.149.722.559 1.435 1.204 2.234 1.651 1.404.704 3.069-.149 4.138-1.101.145-.185.294-.411.555-.433a.58.58 0 0 1 .574.307c1.11 1.25 2.797 2.657 4.575 2.161a.57.57 0 0 1 .799-.253.57.57 0 0 1 .203.772Z"/><path fill="#A4D357" d="M224.492 75.44c-.221-.04-.483-.095-.681-.203-1.647-.172-3.001.022-3.412 1.394-.388 2.716-1.602 2.554-3.592 3.776-.591.46-.997 1.12-1.579 1.589-1.35 1.141-2.974 1.89-4.531 2.707-1.598.735-3.331 1.11-4.955 1.782-1.832.75-3.759 1.15-5.7 1.516-3.105.799-6.092 1.967-9.08 3.118-2.802.952-6.855 1.823-7.383 5.274a1.838 1.838 0 0 0 .686 1.467c1.494 1.087 3.399.401 5.064.69.83.266 1.426.934 2.044 1.516 1.625 1.697 3.804 2.585 6.02 3.226 2.708.988 5.483 1.769 8.362 1.873 2.902.09 3.592-3.213 5.095-5.027.894-1.15 1.959-2.012 2.667-3.235.745-1.426.957-3.118 2.099-4.322 1.308-1.75 3.136-2.951 5.171-3.691 1.485-.56 3.006-1.53 4.644-1.119 1.458.338 2.595 1.408 3.75 2.297 1.042.87 2.139 2.012 1.977 3.478-.077 1.218-.808 2.265-1.688 3.068-.709.614-1.309 1.327-.975 2.279 2.784 6.881 1.494 9.949-4.391 14.231-2.974 2.192-6.092 5.089-9.991 5.116-1.828-.063-3.674-.645-5.483-.122-2.04.465-3.926 1.9-6.079 1.665-1.142-.189-2.225-.636-3.326-.979-2.861-.798-5.618-1.89-8.416-2.856-2.96-.83-6.074-.356-9.098-.198-4.287.158-8.714.555-12.771 1.998.817 1.787 3.069 2.662 3.344 4.724.221 2.207-.632 4.9-2.649 6.042-.993.46-2.112.027-3.019-.429-1.62-1.024-3.43-1.317-5.28-1.25-1.593-.058-3.254.289-4.562 1.219-1.007.695.934 1.222 1.462 1.272 1.507.28 3.05-.298 4.535-.004.582.216.839.902.731 1.484-.275 1.669-1.904 2.554-3.078 3.583 2.153 2.323 4.996 3.875 7.731 5.351.952.428 4.422 1.159 5.09.266.628-1.399.248-3.028.794-4.453.79-1.616 2.88-2.897 4.694-2.532.997.122 2.197.646 3.096.059a3.65 3.65 0 0 0 1.403-2.107c.005-.253.122-.483.284-.672 2.04-1.868 5.167-1.611 7.437-.298 2.225 1.331 1.214 3.668-.803 4.557-1.53.821-3.249 1.151-4.919 1.552-.487.135-1.069.352-1.439.69-.822.88-1.201 2.062-1.747 3.114-.587 1.263-1.11 2.395-1.485 3.699-.167 1.115-1.218 3.628-.315 4.472.541.347 1.25.37 1.854.397 1.634-.005 3.263-.149 4.888-.302 5.952-.118 2.563-7.152 6.421-9.615 1.959-1.196 4.409-.614 6.58-.668 1.236.018 2.482-.14 3.714.045 1.819.42 3.416 1.493 5.154 2.157 2.608 1.037 2.116 4.011.379 5.662-2.198 2.364-5.921 2.743-7.776 5.469-1.146 2.197 2.378.649 3.028-.059 1.498-1.033 2.252-3.109 4.098-3.578 1.701-.217 3.38.546 5.045.839 3.263.659 6.503 2.78 7.415 6.127.324 1.544-.465 3.06-1.21 4.368-1.449 2.603-3.881 4.413-6.065 6.339-1.462 1.507-2.902 3.425-5.127 3.709-1.385.176-2.798 0-4.178.253-1.526.239-2.893 1.015-4.346 1.498-3.845 1.123-5.407-.14-8.173-2.563-1.742-1.336-3.574-2.572-5.158-4.106-1.038-.88-1.99-1.751-3.199-2.337-1.445-.569-3.042-.266-4.554-.519-1.327-.158-2.631-.573-3.714-1.372-2.256-1.637-4.513-3.311-6.968-4.647-1.836-1.078-3.912-1.353-5.993-1.069-2.184.221-4.332.225-5.076-2.265-.849-1.886-2.279-3.596-4.125-4.562-.799-.37-1.643-.234-2.451-.04-1.394.397-2.797.825-4.102 1.47-1.06.582-1.881 1.498-2.892 2.162-2.311 1.525-4.847 2.711-7.09 4.34-.745.569-1.525 1.227-1.913 2.089-.646 2.121.185 4.485-.88 6.543-1.277 3.253-5.037 4.34-6.896 7.124-1.629 2.256-1.579 5.098-1.719 7.76-.235 3.29-1.178 6.597-3.128 9.286-.713 1.033-1.507 1.967-1.854 3.177-.42 1.809-.271 3.753.329 5.509.7 1.971 1.525 4.038 3.479 5.035 1.706.925 3.629 1.254 5.488 1.696 3.651.781 8.38 1.616 11.742-.41.456-.275.88-.591 1.309-.903.745-.532 1.67-.604 2.55-.708 1.363-.176 2.752-.298 4.142-.293a.783.783 0 0 1 .384-.032c.131.018.262.032.397.05a17.19 17.19 0 0 1 3.335.433c1.494.492 3.024.465 3.714 1.692.149.158.284.329.411.514.807 1.011.984 2.351 1.638 3.452.456 1.205 1.069 2.378 2.193 3.082.352.203.668.464 1.038.627.433.126.74.207 1.16.271a.935.935 0 0 1 .28 0c29.802-11.434 55.146-33.727 67.858-63.822 8.475-19.699 10.361-42.074 5.492-62.901-2.852-4.458-7.617-7.643-12.667-9.033l-.014-.018Zm-9.585 14.763c-.763-.135-.487-1.475.262-1.331.763.135.483 1.48-.262 1.33Zm8.159-4.702a.582.582 0 0 1-.541.388c-.885.303-1.693.804-2.555 1.174-.636.352-1.281.68-1.926 1.02-.42.257-.993.843-1.413.266-.393-.668.528-1.011.966-1.313.668-.334 1.317-.7 1.981-1.047.902-.38 1.742-.93 2.68-1.2.443-.167.966.225.804.708l.004.004Zm-40.249 33.294c-1.602-.104-3.091.145-4.68.136-.307.126-.695.018-.808-.325-.212-.785.781-.853 1.327-.812.903 0 1.801-.109 2.703-.145.636.081 1.999-.334 2.054.618a.572.572 0 0 1-.596.533v-.005Zm2.87.609c-.307 0-.546-.297-.533-.595.018-.321.289-.533.596-.533s.546.298.533.596c-.018.32-.289.532-.596.532Zm14.725 16.392c-.307 0-.555-.289-.541-.586a.573.573 0 0 1 .586-.542c.307 0 .555.289.542.587a.574.574 0 0 1-.587.541Zm7.369 1.277c-1.195-.614-2.549-.668-3.849-.911-.307-.032-.555-.267-.541-.587.013-.293.279-.573.586-.541 1.444.243 2.97.338 4.283 1.019.663.316.189 1.327-.483 1.02h.004Zm-83.025 51.342c-.307 0-.556-.289-.542-.587a.574.574 0 0 1 .587-.541c.306 0 .555.288.541.586a.574.574 0 0 1-.586.542Zm2.084-3.159c-.112.285-.482.397-.749.271-.28-.126-.392-.474-.27-.749.194-.496.342-1.006.473-1.525.352-1.426.537-2.734.56-4.16-.406-.799.812-1.223 1.078-.379.145 2.202-.356 4.467-1.087 6.542h-.005Zm42.33-25.998c-.158.249-.532.348-.781.172a12.133 12.133 0 0 0-3.903-1.958c-.266-.068-.542-.14-.799 0-.695.234-1.06-.817-.365-1.07.446-.207.947-.162 1.408-.031 1.268.37 2.513.889 3.596 1.656.406.288 1.205.618.84 1.231h.004Zm2.297 2.635c-.419.045-.952-.085-.92-.604.027-.524.577-.569.983-.524.736.05.673 1.16-.063 1.128Zm22.609 30.217c-.307 0-.555-.289-.541-.587a.573.573 0 0 1 .586-.541c.307 0 .555.289.542.586a.575.575 0 0 1-.587.542Zm9.689-7.986c-.316.731-1.124 1.128-1.697 1.647-1.349 1.078-2.604 2.251-3.908 3.343-.541.347-1.507 1.647-2.125 1.02-.194-.217-.199-.605.045-.799a21.875 21.875 0 0 0 1.679-1.372c1.101-.884 2.08-1.84 3.168-2.725.6-.514 1.299-.925 1.791-1.529.293-.637 1.273-.226 1.047.415ZM151.782 15.422c1.192 3.52 1.449 7.034-.342 10.413-.551 1.007-1.332 1.909-1.63 3.037-.469 2.062.032 4.223-.69 6.245-.519 2.31-2.622 3.587-3.813 5.49-2.13 3.015-.271 6.096-1.047 9.363-.375 1.742-1.336 3.258-2.194 4.796-1.421 2.856-1.29 6.15-1.245 9.245v-.054c.131 1.53-.573 7.53 1.385 7.688h-.013c.077-.013.257-.121.289-.144 1.448-1.277 1.602-3.339 2.428-4.981 1.877-3.524 6.11 1.335 12.288-2.662 1.128-.582 2.306-.862 3.213-1.706 2.41-2.328 1.115-7.03 5.912-4.972 3.321 1.678 7.017.429 10.149-1.096 2.649-1.467 4.914-3.596 7.681-4.855 1.403-.645 2.951-.93 4.327-1.634 3.759-1.926 5.682-5.68 7.654-9.195a5.36 5.36 0 0 1 .83-.92c.113-.262.402-.492.564-.718.623-.7 1.21-1.44 1.702-2.224 1.566-2.793 2.378-6.38 1.002-9.394-12.645-10.035-27.47-17.403-43.183-21.68-.542.379-1.101.84-1.48 1.331-.695.916-1.228 1.976-1.607 3.055-.022.072-.04.149-.063.225.117.925-.113 1.805-1.088 2.572-.88.713-1.412 1.638-1.033 2.766l.004.009Zm25.768 36.253c-.428-.812.668-1.42 1.011-.56.433.79-.645 1.427-1.011.56Zm4.883-33.217c.054.781-1.331.84-1.376.077-.054-.776 1.331-.835 1.376-.077Zm-.812 30.817c.708-.7 1.458-1.358 2.31-1.881.867-.43 1.869-.628 2.825-.745.537-.483 1.246.28.822.821-.235.303-.65.289-.998.33-.613.08-1.209.28-1.809.442-1.097.239-3.845 3.92-4.558 2.689-.397-.799 1.024-1.155 1.408-1.656Zm-2.044-33.086c.659.334.171 1.335-.492 1.015-1.137-.6-2.13-1.367-3.29-1.868a.562.562 0 0 1-.645-.374c-.122-2.134 3.655.938 4.427 1.227Zm-24.351 1.24c.189.136.275.353.311.574.122.997.194 2.13.145 3.081-.145.655.099 2.333-.935 2.166-.812-.27-.121-1.502-.194-2.143.054-.952-.013-1.913-.117-2.856-.537-.537.239-1.309.794-.826l-.004.005Zm-1.575 7.139a.57.57 0 0 1 .564.564.57.57 0 0 1-.564.564.57.57 0 0 1-.564-.564.57.57 0 0 1 .564-.564ZM75.71 14.813c1.26.085 2.587.094 3.904.392 1.323.293 2.753.659 3.674 1.724.794.866 1.345 1.922 2.161 2.766 2.045 1.859 4.843 2.693 6.68 4.832 3.104 2.757 2.202 7.296 1.055 10.774-.586 1.909-.767 3.899-1.16 5.848-.758 3.357-.934 6.863-.284 10.247.452 1.43.767 3.483 2.42 3.957 1.773.564 3.654-.28 4.512-1.909.474-.87.632-1.877 1.223-2.69.487-.69 1.169-1.208 1.688-1.876.852-1.137 1.277-2.545 1.624-3.88.361-1.638 1.864-2.613 3.376-1.611 3.538 2.481 1.9 6.163 3.023 9.547.781 1.922 2.311 3.393 3.439 5.103 1.191 1.566 2.144 3.362 3.651 4.652 2.572 2.301 6.977-1.95 7.613-4.467 1.263-5.085-5.054-10.16-7.315-14.375-3.069-5.216-1.341-9.773-.063-15.115a34.56 34.56 0 0 0 .275-11.257c-.289-2.658-1.589-4.49-3.055-6.028-3.714-2.834-6.151-7.562-10.98-8.654a130.788 130.788 0 0 0-27.988 7.733.57.57 0 0 1-.226.122c-.406.7-.735 1.49-.474 2.306.09.79.506 1.507 1.219 1.868l.009-.01Zm37.917 10.115a.57.57 0 0 1-.564-.564.57.57 0 0 1 .564-.564.57.57 0 0 1 .564.564.57.57 0 0 1-.564.564Zm-2.96-13.599c1.038.56 1.679 1.611 2.31 2.568.569.979 1.156 1.994 1.413 3.109.388 1.588.51 3.221.447 4.854-.018.307-.244.564-.565.564-.297 0-.582-.257-.564-.564.064-2.102-.067-4.363-1.06-6.24-.673-1.2-1.358-2.594-2.545-3.32-.628-.375-.073-1.34.568-.975l-.004.005Zm-17.32 34.282a.57.57 0 0 1-.564-.564.57.57 0 0 1 .564-.564.57.57 0 0 1 .564.564.57.57 0 0 1-.564.564Zm2.446-8.902c.135.402-.104.772-.28 1.12-.433.874-.713 1.935-.912 2.837-.257.614.077 2.022-.87 1.98a.571.571 0 0 1-.483-.635c.207-1.737.627-3.506 1.444-5.058-.109-.686.902-.916 1.1-.244Z"/><path fill="#000" d="M30.348 111.206c.89-.068 1.774.054 2.667.099 2.126.307 3.755 2.044 5.835 2.518.542.122 1.097-.099 1.332-.614 1.155-2.247 2.766-2.039 4.81-2.711 1.733-.939-.113-2.992-.677-4.165-2.369-3.776-6.358-2.698-9.657-.893-1.62 1.177-3.069 2.576-4.707 3.722-.365.127-.442.56-.266.839-.171.434-.104.876.33 1.065a.48.48 0 0 0 .338.14h-.005Zm.894-1.584c1.462-1.114 2.78-2.386 4.314-3.411 4.599-2.201 7.076-1.845 9.048 3.132.005.171-.284.198-.415.252-2.099.262-4.07 1.128-5.027 3.132-1.408-.339-2.622-1.25-3.922-1.864-1.277-.726-2.793-.789-4.237-.789a.92.92 0 0 0 .239-.452ZM25.822 116.977c.01-.605.127-1.25.014-1.845.004-.307.004-.686-.09-.975a.564.564 0 0 0-.312-.605c-.357-.176-.681.082-.83.402-.542.577-1.26.97-1.81 1.552-1.71 1.742-2.744 3.998-3.836 6.15-.334.64-.785 1.232-1.087 1.886-.375 1.435.392 3.104 1.7 3.794 1.923.867 4.748.718 6.053-1.119.943-1.042.478-2.418.243-3.632-.022-1.931.267-3.618-.045-5.604v-.004Zm-3.863 9.714c-1.624.145-3.168-.871-3.046-2.626.32-.884 1.006-1.629 1.367-2.513 1.124-2.247 2.288-4.647 4.391-6.15v.086a.459.459 0 0 0 .064.144c-.018 1.336.076 2.662.126 4.002.031.858-.194 1.774-.145 2.644.005.862.398 1.679.366 2.532-.347 1.38-1.823 1.913-3.118 1.881h-.005ZM20.308 110.078c.677-.753 1.29-1.642 2.256-2.053.352-.144.87-.252.875-.713.664-.131.664-1.213-.072-1.204-.79-.989-1.588-2.107-2.807-2.581-2.202-.578-4.63-.474-6.724.455-1.742.885-4.287 1.399-4.964 3.466-.19 1.367 1.043 2.12 2.252 2.188-.275.975-1.205 1.624-1.476 2.603-.424 1.859 1.142 3.799 2.834 4.404 2.699.713 3.985-2.342 5.52-3.961.744-.889 1.498-1.774 2.301-2.608l.005.004Zm-7.018 5.55c-1.35-.09-2.572-1.552-2.59-2.874.248-1.182 1.588-1.945 1.561-3.235a.981.981 0 0 0-.744-.943c-.605-.109-1.828-.208-1.462-1.115 1.209-1.462 3.339-1.99 5.027-2.748 1.678-.5 3.48-.559 5.18-.085.194.099.375.216.546.347.023.14.104.275.271.379.167.37.388.776.343 1.209-.013.208-.135.474-.13.7 0 .063.017.122.035.18-.677.483-1.236 1.133-1.769 1.773-.997 1.038-1.913 2.144-2.852 3.24-1.038 1.101-1.755 2.951-3.425 3.176l.01-.004Z"/><path fill="#000" d="M238.211 83.967a101.39 101.39 0 0 0-4.183-13.256.978.978 0 0 0-.082-.203c-6.76-17.095-18.114-32.337-32.925-44.217-.04-.054-.09-.104-.135-.153a.66.66 0 0 0-.158-.082c-11.16-8.897-24.27-15.89-38.837-20.353-1.525-.474-3.055-.92-4.594-1.335-.018-.014-.041-.023-.059-.037a.682.682 0 0 0-.257-.05c-17.482-4.67-35.922-5.472-53.783-2.639a.564.564 0 0 0-.28.045C86.027 4.404 69.659 10.368 55.11 19.392 16.94 42.422-7.18 88.114 1.922 132.665c9.197 49.78 55.738 84.558 104.976 87.888 52.687 4.508 107.495-25.303 126.922-75.471 7.983-20.651 9.026-41.442 4.517-60.582.032-.176-.031-.357-.131-.537l.005.004Zm-84.308-73.883c.023-.076.041-.153.064-.225.379-1.083.911-2.144 1.606-3.055.379-.496.939-.952 1.48-1.331 15.709 4.277 30.534 11.645 43.183 21.68 1.376 3.01.564 6.596-1.002 9.394a17.07 17.07 0 0 1-1.701 2.224c-.167.226-.456.46-.564.718a5.408 5.408 0 0 0-.831.92c-1.972 3.515-3.894 7.269-7.653 9.195-1.377.704-2.924.984-4.328 1.634-2.766 1.259-5.027 3.388-7.681 4.855-3.127 1.52-6.823 2.77-10.149 1.096-4.797-2.062-3.497 2.644-5.912 4.972-.907.848-2.085 1.124-3.213 1.706-6.178 3.997-10.411-.862-12.288 2.662-.826 1.642-.979 3.704-2.428 4.98-.031.028-.212.136-.289.14h.014c-1.954-.153-1.255-6.153-1.386-7.683v.054c-.049-3.095-.176-6.389 1.246-9.245.853-1.538 1.819-3.054 2.193-4.796.776-3.267-1.083-6.348 1.047-9.362 1.191-1.904 3.29-3.181 3.813-5.491.722-2.022.222-4.183.691-6.245.298-1.128 1.078-2.03 1.629-3.037 1.796-3.379 1.534-6.894.343-10.413-.379-1.128.153-2.053 1.033-2.766.975-.767 1.205-1.642 1.088-2.572l-.005-.009Zm-78.937.56a.52.52 0 0 0 .226-.122 131.309 131.309 0 0 1 27.988-7.734c4.829 1.092 7.265 5.825 10.979 8.654 1.467 1.539 2.762 3.366 3.056 6.028a34.531 34.531 0 0 1-.276 11.258c-1.277 5.342-3.005 9.899.063 15.115 2.257 4.214 8.579 9.29 7.316 14.375-.637 2.517-5.041 6.768-7.613 4.466-1.508-1.29-2.464-3.086-3.651-4.651-1.128-1.71-2.658-3.181-3.439-5.103-1.124-3.384.515-7.066-3.023-9.548-1.512-1.001-3.015-.027-3.376 1.611-.348 1.336-.772 2.743-1.625 3.88-.519.664-1.2 1.187-1.687 1.877-.592.813-.754 1.819-1.223 2.69-.858 1.628-2.74 2.472-4.513 1.908-1.652-.474-1.968-2.522-2.419-3.957-.65-3.384-.474-6.89.284-10.246.393-1.95.573-3.94 1.16-5.848 1.142-3.479 2.049-8.018-1.056-10.775-1.837-2.138-4.635-2.973-6.679-4.832-.817-.844-1.367-1.9-2.161-2.766-.925-1.064-2.352-1.434-3.674-1.723-1.318-.298-2.644-.307-3.903-.393-.713-.356-1.129-1.078-1.219-1.868-.261-.816.068-1.601.474-2.305l-.009.009Zm30.105 33.492s-.032.009-.05.018l.023-.014h.022l.005-.004Zm-88.46 122.77C5.831 149.77.031 129.281 1.431 106.685 2.973 82.05 14.025 58.849 30.695 40.851c.216-.126.424-.311.604-.447 2.898-1.75 5.872-3.438 9.166-4.322 3.863-1.29 8.02-1.597 12.053-1.999 3.818-.347 7.573-1.39 11.39-1.628.235.063.51.072.74.013 1.039.429 1.887 1.313 2.803 1.94.862.623 1.796 1.169 2.79 1.557 2.007.839 4.232-.636 5.554 1.723.637 1.155.867 2.473 1.34 3.691.61 1.656 1.783 2.983 3.096 4.124 1.147 1.07 2.5 2.811 1.526 4.422-.605.947-1.453 1.845-1.359 3.054-.031.952.492 1.846.33 2.793-.776 2.112-3.43 2.504-5.375 2.026-5.307-1.281-9.156-6.127-11.936 1.557-.623 1.218-2.067 1.462-3.186 2.04-.952.464-1.886 1.019-2.951 1.168-1.233.257-2.478-.244-3.692.05-1.449.545-2.545 1.903-3.236 3.252-1.01 2.04-.428 4.418.88 6.173.646 1.02 1.675 1.66 2.807 2.003.772.221 1.3.903 1.25 1.724-.018.96-.379 1.854-.455 2.874-.122 1.9.13 3.867.798 5.649.546 1.416 2.099 1.994 2.974 3.163.79 1.05 1.458 2.355 1.331 3.722-.604 3.014-3.046 7.3.483 9.398 2.857 1.67 6.359.379 8.688-1.62 1.886-1.958 2.964-4.566 4.12-6.988 2.067-4.941 2.12-6.89-1.733-10.766-1.602-1.656-1.304-3.325-.655-5.351.84-2.247 1.86-4.656 3.741-6.24a.932.932 0 0 1 .303-.131l-.014.014c.073-.01.145.009.217.027v.009c.98.537 1.223 1.773 1.557 2.747.69 2.387 1.142 5.406 3.56 6.665 2.166 1.358 4.229 1.719 6.639.73 1.259-.473 2.576-.79 3.813-1.33 1.968-.745 5.059-2.342 6.625-.154h-.01c-.03 2.328-2.287 4.043-2.563 6.353-.297 2.4 1.693 1.99 3.358 2.03 2.256.29 4.562.357 6.787.826.754.257 1.616.063 2.329.415 2.464 1.931 1.814 5.789 4.066 7.896-2.054 2.17-3.818 2.084-6.548 2.423-2.807.33-5.673 2.306-6.011 5.274-.09 3.389 2.748 2.238 4.86 3.082 2.004.749 3.664 2.513 4.134 4.643.081.55-.023 1.114-.149 1.665-1.706 2.166-.316 6.542-3.213 7.454-2.049.338-4.247-.348-6.35-.488-2.495-.546-3.181-1.137-4.756 1.322-.145.203-.352.388-.623.366-1.733-.145-3.317-.898-4.991-1.3-1.99-.501-4.184-.158-6.047.645-2.225 1.476-1.54 5.04-.745 7.179 1.516 4.318 1.589 8.654-4.305 8.036-1.742-.081-3.48.122-5.18.492-1.806.32-3.539 1.087-4.649 2.598-.912 1.07-1.155 1.769-2.694 1.142-1.8-.808-3.85-1.719-5.78-.772-1.481.767-2.975 1.521-4.441 2.324-1.214.875-2.568 2.243-2.306 3.885.482 2.197.884 4.422 1.633 6.551.375 2.089.83 4.151 1.81 6.051.523 1.624.776 3.352 1.805 4.778.88 1.48 1.909 2.888 3.538 3.591 0 0 .054.046.104.1.388 1.385-.384 3.979-1.675 4.724-2.274.609-4.62-1.647-5.392-3.637a22.226 22.226 0 0 1-.686-1.931c-.23-.853-.19-1.782-.6-2.576-.556-1.074-1.634-1.688-2.59-2.351-.804-.632-1.585-1.299-2.46-1.836-.984-.673-2.085-1.137-3.06-1.81-1.096-.88-2.143-1.89-3.497-2.346-2.69-.717-5.962-.88-8.34.785-1.625 1.051-1.15 2.829-.645 4.372.266 1.033.42 2.22.081 3.267-.09.253-.235.451-.41.618a.594.594 0 0 0-.109.077c-.375.144-.74.316-1.101.492-3.245 1.538-3.692 4.304-7.825 4.525-2.063.199-3.89-.947-5.434-2.197l.01-.014Zm139.662 38.622c-.14.389-.375.713-.65 1.007a.482.482 0 0 0-.262.176c-1.088.825-1.769 2.016-2.486 3.149-1.151 1.381-2.415 2.662-3.642 3.975-.844.767-1.814 1.376-2.613 2.197-.208.167-.524.361-.709.596a128.272 128.272 0 0 1-28.927 3.19c-34.78.144-67.596-14.348-89.343-38.388.112-.451-.176-.943-.285-1.381-.347-.933-.604-1.886-.69-2.865 0-.306.018-.613.063-.92.433-1.782.217-3.619.65-5.405.338-1.557.47-3.447 1.805-4.503.645-.501 1.444-.7 2.134-1.119 1.593-.921 1.643-2.965 1.372-4.584-.14-1.11-.857-2.22-.56-3.353 1.711-2.166 4.996-1.827 7.442-1.408 1.449.33 2.5 1.417 3.651 2.315 1.395.934 2.952 1.606 4.274 2.658 1.006.929 2.378 1.579 3.299 2.621.469.582.45 1.358.586 2.053.361 1.584.912 3.195 1.887 4.507 2.265 2.857 6.512 4.215 7.865-.185.38-1.082.66-2.314.316-3.438-.338-.956-1.53-1.064-2.166-1.759-.984-1.097-1.778-2.383-2.414-3.714-.456-1.155-.55-2.423-1.106-3.546-.794-1.561-1.182-3.258-1.457-4.977-.416-1.561-.97-3.086-1.228-4.692-.162-.912-.55-1.809-.514-2.743.514-1.828 2.432-2.64 3.998-3.393 1.097-.551 2.139-1.386 3.412-1.422 1.84-.067 3.366 1.449 5.198 1.417 1.408-.086 2.031-1.566 2.947-2.432 1.674-1.615 4.229-1.723 6.417-2.017 1.91-.18 3.926.357 5.731-.469 3.02-1.295 2.862-5.098 2.013-7.751-.487-1.787-1.345-3.538-1.024-5.433.104-.627.221-1.367.821-1.714 1.363-.573 2.933-.849 4.41-.722 2.07.334 3.975 1.371 6.087 1.502 2.283-.04 1.525-3.1 4.273-1.89 1.047.257 2.072.32 3.146.451 2.193.248 5.054 1.038 6.539-1.128 1.105-1.606.83-3.664 1.417-5.451.555-.135.532-1.096.699-1.583.316-1.182.235-2.437-.343-3.533-1.15-2.369-3.447-4.133-6.087-4.44-.677-.131-1.49.068-2.072-.361a.983.983 0 0 1-.162-.216c-.438-.93.049-2.04.627-2.825 1.593-2.378 4.671-2.387 7.23-2.707 1.245-.176 2.36-.803 3.316-1.597.506-.501 1.815-1.228 1.314-2.053-2.406-1.828-1.846-5.514-3.868-7.661-.65-.84-1.651-1.151-2.68-1.128-1.481-.312-2.956-.578-4.482-.623-1.71-.248-3.492-.456-5.239-.397-.059 0-.284-.023-.334-.127-.212-.893.334-1.75.709-2.53.73-1.418 1.832-2.807 1.854-4.459-.126-1.61-2.021-2.35-3.443-2.368-2.437.108-4.571 1.448-6.873 2.107-1.47.437-2.924 1.195-4.499 1.055-1.345-.248-2.626-.924-3.705-1.746-.718-.79-1.101-1.822-1.453-2.815-.605-1.76-.758-3.758-1.927-5.275-1.169-1.475-2.55-.965-3.583.339-1.525 1.85-2.613 4.074-3.308 6.362-2.4 6.655 5.262 6.596 3.633 12.493-.546 2.044-1.449 3.998-2.442 5.884-1.435 2.829-2.635 4.589-5.817 5.626-2.369.79-5.857-.352-5.316-3.348.158-1.953 1.241-3.7 1.386-5.648.04-2.631-1.787-4.788-3.804-6.259-1.318-1.42-1.517-4.814-1.224-6.686.361-1.534.8-3.565-.749-4.607-.798-.555-1.863-.623-2.563-1.336-2.698-2.77-2.243-6.524 1.155-8.392.668-.171 1.4.068 2.09.063 2.383.199 4.355-1.281 6.476-2.107 3.159-1.087 2.035-6.326 6.11-5.26 3.168 1.046 6.295 3.365 9.793 2.553 1.796-.32 3.687-1.886 3.515-3.849-.1-.717-.343-1.416-.36-2.143-.06-.861.581-1.48 1.023-2.143.912-1.295.858-3.059-.045-4.345-.708-1.146-1.742-1.963-2.694-2.91-.84-.876-1.435-1.967-1.814-3.113-.61-2.062-1.295-4.643-3.678-5.22-1.254-.321-2.563.225-3.786-.34-2.699-.942-4.53-4.055-7.64-3.798-2.225-.01-4.396.564-6.602.771-1.733.18-3.484.068-5.23-.14-2.496-.41-5.384-1.055-7.009-3.212a116.286 116.286 0 0 1 7.496-5.455A124.594 124.594 0 0 1 69.46 12.981c.393.51.83 1.006 1.332 1.426 2.207 1.881 5.176 1.353 7.834 1.768 1.322.258 2.807.47 3.786 1.476.984 1.1 1.652 2.481 2.834 3.402 2.13 1.556 4.689 2.54 6.413 4.643 2.929 3.126.762 7.525-.018 11.113-.416 2.404-.885 4.796-1.264 7.205-.356 3.303-.424 10.982 3.272 12.363 1.895.65 4.143.126 5.384-1.498.853-.92 1.087-2.157 1.633-3.24.637-.997 1.684-1.674 2.252-2.725.659-1.123 1.061-2.369 1.372-3.623.131-.397.298-.884.686-1.11.794-.289 1.489.514 1.931 1.078 1.702 2.166.668 5.08 1.472 7.549.871 2.739 3.136 4.728 4.63 7.124 1.272 1.72 2.45 3.921 4.675 4.49 3.52.663 8.042-3.984 7.96-7.468-.275-5.928-5.83-9.664-8.222-14.727-2.36-5.085.045-9.556.849-14.591.546-4.368.812-9.137-.786-13.329-.505-1.281-1.295-2.368-2.202-3.361a1.059 1.059 0 0 0-.216-.235c-.862-.911-1.815-1.75-2.726-2.594-1.941-1.922-2.487-3.542-1.201-6.087a.566.566 0 0 0 .226-.288c4.946-.483 9.924-.682 14.892-.591a121.901 121.901 0 0 1 25.028 2.9c-.424 1.63.533 3.272 1.083 4.77.108.248.217.514.298.79l.054.784a.458.458 0 0 0 .081.163 1.425 1.425 0 0 1-.591 1.119c-1.701 1.345-2.026 2.847-1.3 4.85.515 1.701.921 3.488.632 5.266-.207 1.105-.492 2.373-1.042 3.406-.93 1.516-2.013 3.037-2.013 4.9-.036 2.274.027 4.796-1.435 6.705-.853 1.033-1.891 1.908-2.595 3.055-2.559 3.6-.492 6.42-1.354 10.142-.469 1.918-1.8 3.502-2.513 5.32-.474 1.376-.727 2.834-.858 4.286-.153 1.71 0 3.393-.031 5.117.036 2.143-.23 4.602.595 6.673.871 1.918 2.731 1.724 3.746.05.862-1.25 1.205-2.739 1.746-4.133.181-.402.443-.812.862-.984 1.219-.198 2.464.253 3.692.298 2.202.248 4.467-.117 6.39-1.245 4.549-2.184 5.05-1.958 6.832-6.962.122-.32.316-.663.713-.6 1.422.135 2.672.97 4.08 1.209 2.522.474 5.045-.42 7.36-1.336 2.866-1.204 5.208-3.343 7.866-4.913 2.116-1.191 4.698-1.444 6.679-2.933 1.791-1.2 3.217-2.856 4.422-4.63.966-1.375 1.53-2.937 2.5-4.313.587-.726 1.395-1.218 2.112-1.804.343-.316.677-.637 1.007-.962 2.604-1.7 5.763-2.91 8.903-2.319.213.045.488.054.732.01 9.219 9.272 16.778 20.222 21.986 32.634.347.817.681 1.638 1.006 2.464.014.149.041.311.032.465.063.613.14 1.209-.059 1.79-.862.845-1.873 1.68-3.109 1.774-2.988.13-6.029-1.642-8.945-.478-1.475.492-1.502 2.143-1.967 3.37-.664.844-1.891.966-2.708 1.643-.803.604-1.34 1.493-2.175 2.07-2.428 1.706-5.181 2.748-7.988 3.633-1.976.82-4.043 1.335-6.146 1.705-3.168.799-6.214 1.98-9.256 3.163-2.396.83-5.081 1.39-6.809 3.402-1.648 1.606-1.995 4.54.347 5.663 1.408.685 3.015.541 4.535.473.258 0 .375.05.628.176 1.326 1.006 2.4 2.347 3.917 3.109 2.157 1.115 4.553 1.724 6.855 2.482 2.649.523 6.123 1.854 8.475-.023 1.335-1.051 1.927-2.676 2.834-4.047.798-1.142 1.895-2.044 2.689-3.181.849-1.106 1.088-2.49 1.67-3.722 1.015-1.724 2.527-3.213 4.391-3.989 1.927-.677 4.079-2.387 6.092-1.11 1.345.93 2.757 1.805 3.646 3.23.623 1.454-.618 2.794-1.638 3.723-2.053 1.75-.14 4.223.285 6.267 1.141 4.683-1.467 6.935-4.856 9.525-2.451 1.877-4.892 3.948-7.888 4.886-1.296.361-2.636.095-3.94-.054-1.972-.338-3.926.154-5.736.925-3.019 1.336-3.484.966-6.485-.05-2.157-.694-4.345-1.276-6.43-2.17-4.112-1.881-8.647-1.069-12.993-.884-3.669.117-7.364.69-10.893 1.71-3.39.776-.149 3.51 1.087 4.792.83.74.925 1.858.745 2.901-.248 1.218-1.043 3.465-2.518 3.487-1.038-.126-1.918-.767-2.853-1.195-1.349-.677-2.906-.645-4.377-.677-2.035-.307-8.511 1.579-5.068 4.165 1.106.667 2.464.667 3.719.627.749-.032 1.498-.167 2.252-.145.203.023.067.298.081.42a1.647 1.647 0 0 1-.131.361c-.641 1.2-2.085 1.723-2.852 2.797-.672 1.444 2.757 3.335 3.746 4.142 2.319 1.489 4.706 3.249 7.558 3.398 1.02.04 2.212.243 3.101-.37 1.484-1.408.595-3.777 1.466-5.446.632-.758 1.598-1.435 2.604-1.584.704 0 1.404.212 2.099.321 1.823.482 3.493-.767 4.138-2.432.23-.334.113-.871.483-1.079 1.173-.78 2.644-1.056 4.007-.604.871.288 2.798.694 2.473 1.967-.564 1.236-2.139 1.642-3.33 2.084-1.562.524-3.394.524-4.694 1.638-.74.682-1.114 1.656-1.561 2.536-.546 1.173-1.128 2.337-1.575 3.555-.51 1.358-.821 2.784-1.051 4.215-.271 1.308.049 2.671 1.466 3.086 1.742.482 3.583.153 5.357.072 2.55-.126 5.366-.51 6.061-3.425 1.398-6.592.744-7.395 8.132-6.989 1.137.036 2.278-.103 3.416 0 1.507.248 2.789 1.164 4.197 1.701 1.543.614 2.612 1.151 1.845 2.983-1.322 2.662-4.544 3.298-6.796 4.913-1.2.871-2.825 2.256-2.347 3.908.889 1.737 3.295.753 4.504-.1.74-.505 1.386-1.137 1.986-1.8.65-.65 1.128-1.597 2.035-1.909 1.065-.203 2.184.294 3.231.47 3.267.577 6.819 2.012 7.956 5.419.501 2.373-1.976 5.261-3.538 6.912-1.313 1.241-2.82 2.26-4.03 3.614-2.021 2.351-3.172 2.955-6.259 2.806-1.286.032-2.568.249-3.768.713-2.396 1.043-5.524 2.279-7.73.199-1.593-1.372-3.417-2.712-5.131-3.984-1.278-1.065-2.469-2.229-3.805-3.217-2.387-2.184-5.754-.912-8.533-2.098-3.498-2.017-6.499-5.018-10.402-6.313-1.95-.663-4.012-.207-6.02-.176-.641-.049-1.395-.04-1.828-.613-.605-1.065-1.002-2.31-1.823-3.258-1.359-1.71-3.286-3.623-5.664-3.226-1.615.262-3.159.848-4.675 1.453-1.282.505-2.252 1.521-3.339 2.328-1.941 1.313-4.044 2.36-6.02 3.619-6.111 3.776-2.862 5.058-4.554 10.061-1.105 2.577-3.885 3.705-5.745 5.622-2.531 2.446-2.879 6.055-2.933 9.385-.144 2.175-.564 4.305-1.453 6.317-.97 2.567-3.529 4.444-3.714 7.332-.275 2.499.379 4.972 1.476 7.201.677 1.651 2.008 2.96 3.623 3.709 2.352 1.047 4.933 1.439 7.428 1.985 3.629.523 7.794.929 10.926-1.34.51-.338.893-.735 1.507-.907a27.211 27.211 0 0 1 6.435-.451c.307.054.614.122.925.171.849.181 1.801.248 2.695.433l.352.095c.135.045.279.077.424.109.537.18 1.033.437 1.448.834.018.045.032.09.045.145.127.451.217.992.068 1.457l-.013.004Zm75.399-58.154c-12.712 30.095-38.061 52.393-67.859 63.821a.725.725 0 0 0-.279 0 8.262 8.262 0 0 1-1.16-.27c-.37-.163-.686-.424-1.038-.627-1.119-.704-1.737-1.877-2.193-3.082-.655-1.101-.831-2.441-1.638-3.452a3.321 3.321 0 0 0-.411-.514c-.691-1.227-2.22-1.196-3.714-1.692a17.19 17.19 0 0 0-3.335-.433c-.131-.018-.262-.032-.397-.05a.782.782 0 0 0-.384.032c-1.385 0-2.78.117-4.142.293-.88.104-1.806.181-2.55.708-.429.312-.853.628-1.309.903-3.362 2.026-8.091 1.191-11.742.41-1.859-.442-3.782-.771-5.488-1.696-1.958-1.002-2.779-3.064-3.479-5.035-.6-1.756-.749-3.7-.329-5.51.347-1.204 1.141-2.143 1.854-3.176 1.95-2.689 2.893-6.001 3.128-9.286.135-2.657.09-5.5 1.719-7.76 1.859-2.784 5.618-3.876 6.896-7.124 1.065-2.058.23-4.422.88-6.543.388-.862 1.168-1.52 1.913-2.089 2.243-1.629 4.779-2.82 7.09-4.34 1.01-.659 1.832-1.58 2.892-2.162 1.304-.645 2.708-1.078 4.102-1.47.808-.194 1.652-.33 2.451.04 1.85.966 3.281 2.676 4.124 4.562.75 2.49 2.893 2.486 5.077 2.265 2.081-.285 4.157-.009 5.993 1.069 2.455 1.336 4.707 3.014 6.968 4.647 1.088.799 2.387 1.214 3.714 1.372 1.507.253 3.105-.05 4.553.519 1.21.586 2.167 1.457 3.2 2.337 1.584 1.534 3.416 2.766 5.158 4.106 2.762 2.423 4.323 3.682 8.173 2.563 1.453-.483 2.82-1.259 4.345-1.498 1.381-.257 2.794-.077 4.179-.253 2.23-.284 3.665-2.202 5.127-3.709 2.184-1.926 4.616-3.74 6.065-6.339.745-1.304 1.534-2.82 1.209-4.368-.916-3.347-4.151-5.468-7.414-6.127-1.661-.293-3.34-1.051-5.045-.839-1.846.474-2.6 2.545-4.098 3.578-.65.708-4.174 2.256-3.028.059 1.855-2.726 5.578-3.105 7.775-5.469 1.742-1.651 2.23-4.625-.379-5.662-1.737-.664-3.335-1.738-5.153-2.157-1.228-.185-2.473-.032-3.714-.045-2.171.054-4.617-.528-6.58.668-3.858 2.463-.469 9.497-6.421 9.615-1.625.153-3.254.297-4.888.302-.605-.023-1.313-.045-1.855-.397-.907-.848.145-3.362.316-4.472.37-1.304.894-2.436 1.485-3.699.546-1.052.925-2.238 1.746-3.114.371-.338.953-.555 1.44-.69 1.674-.402 3.389-.731 4.919-1.552 2.017-.884 3.024-3.222.803-4.557-2.274-1.313-5.397-1.575-7.437.298-.162.189-.28.419-.284.672a3.62 3.62 0 0 1-1.404 2.107c-.898.582-2.093.063-3.095-.059-1.814-.361-3.904.916-4.694 2.532-.541 1.425-.162 3.054-.794 4.453-.663.889-4.138.162-5.09-.266-2.735-1.476-5.578-3.028-7.731-5.352 1.174-1.024 2.798-1.913 3.078-3.582.108-.582-.149-1.268-.731-1.484-1.485-.294-3.028.284-4.535.004-.528-.05-2.464-.577-1.462-1.272 1.308-.93 2.973-1.282 4.562-1.219 1.85-.072 3.655.226 5.28 1.25.911.46 2.026.894 3.019.429 2.013-1.142 2.87-3.835 2.649-6.042-.275-2.062-2.527-2.932-3.344-4.724 4.057-1.439 8.484-1.84 12.771-1.998 3.024-.158 6.137-.632 9.098.198 2.798.966 5.56 2.058 8.416 2.856 1.101.339 2.184.79 3.326.979 2.153.235 4.039-1.2 6.079-1.665 1.809-.523 3.655.059 5.483.122 3.899-.022 7.022-2.924 9.991-5.116 5.885-4.282 7.175-7.355 4.391-14.231-.338-.957.266-1.665.975-2.279.88-.803 1.611-1.845 1.688-3.068.162-1.466-.935-2.608-1.977-3.479-1.155-.888-2.293-1.953-3.75-2.296-1.638-.406-3.159.564-4.644 1.119-2.04.74-3.867 1.94-5.171 3.69-1.142 1.21-1.354 2.902-2.099 4.323-.708 1.223-1.773 2.085-2.667 3.235-1.503 1.814-2.193 5.121-5.095 5.027-2.879-.104-5.654-.885-8.362-1.873-2.216-.641-4.395-1.529-6.02-3.226-.614-.582-1.214-1.25-2.044-1.516-1.67-.289-3.57.402-5.064-.69a1.838 1.838 0 0 1-.686-1.467c.528-3.451 4.581-4.322 7.383-5.274 2.988-1.15 5.975-2.32 9.08-3.118 1.94-.365 3.867-.767 5.7-1.516 1.624-.668 3.362-1.047 4.955-1.782 1.557-.817 3.181-1.566 4.53-2.707.587-.47.993-1.128 1.58-1.588 1.986-1.223 3.204-1.06 3.592-3.777.411-1.372 1.765-1.57 3.412-1.394.198.108.465.162.681.203 5.05 1.39 9.815 4.575 12.668 9.033 4.869 20.827 2.982 43.202-5.493 62.901l.014.018Z"/><path fill="#000" d="M174.649 80.259c1.259.6 2.906.306 3.542-1.034 1.539 1.539 3.507 1.986 4.748-.157.631.866 1.642 1.48 2.725 1.525 1.273.108 2.036-1.052 2.609-2.013.862 1.146 2.315 1.791 3.741 1.71.568.032 1.038-.672.537-1.083a.574.574 0 0 0-.641-.036c-1.3.063-2.55-.704-3.118-1.868-.203-.46-.871-.492-1.101-.045-.425.767-.799 1.71-1.589 2.166-.97.207-1.922-.456-2.419-1.25-.171-.244-.225-.573-.492-.735-.315-.19-.717-.01-.848.316-.302.658-.718 1.493-1.476 1.673-.862-.058-1.678-.699-2.179-1.376-.136-.158-.091-.383-.226-.537-.185-.22-.469-.293-.727-.157-.225.117-.32.379-.293.622a2.22 2.22 0 0 1-.51 1.078c-.627.704-1.66.271-2.374-.072-.406-.234-.988-.686-1.335-.126-.37.826.884 1.105 1.421 1.399h.005ZM158.696 91.75c1.489 1.656 3.777 2.6 5.091.2.568.685 1.236 1.348 2.062 1.71 1.674.694 3.344-.678 4.183-2.05.587 1.607 2.365 2.094 3.922 2.094.392-.022.898.064 1.173-.28a.574.574 0 0 0-.095-.794.593.593 0 0 0-.573-.076c-.289.031-.51.013-.853.004-.735-.067-1.602-.176-2.148-.749-.469-.6-.993-2.572-1.958-1.453-1.512 2.64-3.227 3.303-5.095.51-.239-.573-.898-.96-1.277-.28-.835 2.87-2.676 1.49-4.057-.094-.082-1.029-1.521-.69-1.156.257-.397 1.358-2.139 1.84-3.389 1.444-.537-.126-1.083-.952-1.597-.361-.185.235-.154.609.095.79 1.647 1.371 4.585 1.024 5.677-.88l-.005.009ZM92.183 154.76c1.502.952 3.88 1.16 4.787-.686 1.801 2.17 4.035 3.082 5.935.424 1.263 2.279 4.368 2.202 6.06.452.492 1.655 2.302 2.35 3.9 2.359.55.109.879-.672.428-1.001-.528-.262-1.2-.086-1.751-.339-.853-.225-1.435-.889-1.633-1.732-.109-.294-.091-.659-.393-.835-.356-.226-.731.036-.939.338-.302.33-.627.627-1.001.876-1.287.943-3.358.555-3.863-1.074-.064-.226-.1-.474-.298-.627a.586.586 0 0 0-.637-.055c-.573.497-.87 1.268-1.484 1.742-1.598 1.322-2.947-.88-4.044-1.814-.19-.392-.785-.419-.997-.031-.311 1.782-1.846 1.922-3.25 1.173-.627-.199-1.42-1.327-2.007-.551-.352.745.717 1.043 1.182 1.386l.005-.005ZM94.028 163.337c.993 1.606 2.861 2.604 4.73 2.676 2.427.198 1.624-2.103.582-1.16-1.648.181-3.33-.627-4.279-1.99-.23-.266-.185-.654-.455-.884-.307-.266-.718-.059-.944.208-.88.686-1.877 1.43-3.028 1.556-.938.009-1.674-.798-2.062-1.588-.09-.262 0-.555-.176-.794-.33-.447-.907-.158-1.128.248-1.48 2.152-3.737 2.012-4.526-.6a.589.589 0 0 0-.934-.126c-.33.469-.605 1.028-1.17 1.272-1.615.505-3.303-.492-4.765-1.092-.686-.28-1.1.745-.438 1.042 2.013.876 4.892 2.333 6.675.321 1.187 2.278 3.953 2.369 5.564.478 1.647 2.834 4.125 2.202 6.354.447v-.014ZM115.486 175.258c-.28-.167-.672-.05-.799.253-1.778.5-3.465-.912-4.575-2.162a.575.575 0 0 0-.574-.307c-.261.019-.41.244-.555.434-1.069.952-2.734 1.804-4.138 1.101-.794-.447-1.512-1.092-2.234-1.652-.289-.32-.776-.528-1.114-.149-1.566 2.78-3.137 1.07-4.987-.307-.226-.234-.587-.329-.862-.117-1.169 1.575-3.51 1.467-5.09.587-.28-.131-.623.027-.74.302-.253.776.825.934 1.335 1.178 1.616.519 3.674.379 4.924-.862 1.86 1.593 4.296 3.018 5.984.37 2.626 2.4 4.58 2.811 7.523.541.907.925 1.976 1.76 3.244 2.121.925.216 2.297.392 2.861-.56a.569.569 0 0 0-.203-.771ZM154.553 21.116c.073.636-.618 1.872.194 2.143 1.034.167.79-1.511.934-2.166.05-.952-.018-2.084-.144-3.081-.036-.221-.122-.438-.311-.573-.555-.483-1.332.288-.795.825.104.948.172 1.905.118 2.857l.004-.005ZM153.655 25.696a.565.565 0 1 0 .001-1.13.565.565 0 0 0-.001 1.13ZM184.775 48.242c.596-.163 1.192-.361 1.81-.442.348-.036.763-.023.997-.33.425-.546-.284-1.308-.821-.82-.961.116-1.958.315-2.825.744-.848.523-1.602 1.182-2.31 1.881-.384.5-1.81.857-1.408 1.656.713 1.232 3.461-2.445 4.557-2.69ZM177.55 51.675c.361.867 1.444.23 1.011-.56-.343-.86-1.439-.252-1.011.56ZM137.202 65.825c-.005-1.051.149-2.098.352-3.122.009-.736 1.218-2.789-.032-2.938-.374 0-.618.357-.564.713-.496 1.742-.898 3.529-.889 5.351.009.736 1.119.736 1.128 0l.005-.004ZM136.511 68.686a.564.564 0 1 0 0-1.128.564.564 0 0 0 0 1.127ZM110.103 12.304c1.191.722 1.872 2.12 2.545 3.32.993 1.873 1.128 4.138 1.06 6.24-.018.308.267.565.564.565.321 0 .547-.257.565-.564.063-1.633-.055-3.267-.447-4.855-.257-1.114-.844-2.125-1.413-3.109-.631-.96-1.272-2.008-2.31-2.567-.641-.37-1.196.596-.569.975l.005-.005ZM113.627 24.928a.564.564 0 1 0 0-1.127.564.564 0 0 0 0 1.128ZM93.247 42.01a.571.571 0 0 0 .483.637c.948.04.614-1.367.871-1.98.199-.903.478-1.964.912-2.839.176-.347.415-.717.28-1.119-.199-.672-1.214-.447-1.102.244-.816 1.552-1.236 3.32-1.444 5.058ZM93.351 45.611a.564.564 0 1 0 0-1.128.564.564 0 0 0 0 1.128ZM73.296 54.486c.66.253 1.237.533 1.995.641.907.14 1.864-.456 2.094-1.349.149-.51 0-1.038.086-1.552.261-.794 1.096-1.259 1.385-2.049.352-1.05.591-2.526-.388-3.311-.569-.47-1.286.383-.731.861.375.262.27.758.266 1.16-.009.862-.595 1.466-1.123 2.084-.488.551-.637 1.3-.551 2.017.117 1.647-1.697.849-2.559.474-.672-.293-1.137.713-.474 1.024ZM69.808 51.987c-.289-.731-1.363-.248-1.034.46.29.735 1.363.248 1.034-.46ZM46.797 69.56c-.203-1.366.06-2.833.641-4.083.258-.776 2.424-2.698 1.336-3.27-.42-.2-.75.162-.875.536-.533.88-1.246 1.652-1.652 2.608-.528 1.376-.821 2.974-.55 4.462.17.722 1.254.465 1.1-.248v-.004ZM47.09 71.916a.57.57 0 0 0-.582.546c-.009.298.24.582.547.582a.57.57 0 0 0 .582-.546c.009-.298-.24-.582-.546-.582ZM7.333 86.427c.29.09.61-.082.704-.375.235-.695.492-1.38.745-2.071.532-1.412 1.372-2.725 1.697-4.21.076-.496-.366-1.137-.903-.861-.27.14-.401.519-.225.785-.69 2.048-1.779 3.948-2.392 6.028a.57.57 0 0 0 .374.704ZM6.959 89.576c.009-.298-.24-.582-.546-.582a.57.57 0 0 0-.582.546c-.01.297.239.582.546.582a.57.57 0 0 0 .582-.546ZM96.23 100.824c.249.158.628.095.781-.171.546-.993 1.2-1.931 2.117-2.622.573-.577 1.561-.708 1.99-1.407.293-.641-.637-1.124-.998-.524-1.76.817-3.168 2.225-4.057 3.944-.153.266-.094.609.172.78h-.005ZM102.882 94.557a.57.57 0 0 0 .582-.546c.009-.298-.239-.582-.546-.582a.57.57 0 0 0-.582.546c-.009.298.239.582.546.582ZM52.452 139.965a13.27 13.27 0 0 1 1.67-.952c1.868-.798 4.061-.749 5.618-2.215.397-.298.695-1.002.122-1.281a.572.572 0 0 0-.75.275c-.22.338-.649.501-.97.735-1.105.718-2.558.695-3.772 1.173-.916.316-1.765.808-2.568 1.34a.568.568 0 0 0-.14.785c.18.258.533.312.785.14h.005ZM49.225 142.163c.776.031.803-1.345.04-1.368-.775-.031-.802 1.345-.04 1.368ZM8.105 138.914c-.208-.731-.357-2.928-1.553-2.256a.573.573 0 0 0-.036.799c.397.667.393 1.525.61 2.269.401 1.733.911 3.456 1.674 5.067.343.654 1.331.136 1.002-.519-.79-1.705-1.309-3.524-1.697-5.355v-.005ZM11.133 147.166c-.307 0-.578.208-.596.533-.018.293.221.595.533.595.311 0 .578-.207.595-.532.019-.293-.22-.596-.532-.596ZM105.436 53.728c-.442.307-.153.78.05 1.133.614 2.3 2.663 3.75 3.764 5.798.162.261.541.306.785.14 1.069-.686-2.554-4.061-2.938-4.973-.487-.613-.523-2.608-1.661-2.098ZM111.267 62.224c-.862-.302-1.128.88-.275 1.128.857.303 1.132-.88.275-1.128ZM84.867 130.531c.13 1.173.262 2.382-.104 3.528a.573.573 0 0 0 .37.708c1.291.294.98-3.086.903-3.857-.176-1.056.009-2.247-.573-3.19-.42-.609-1.336.027-.93.636.33.659.217 1.462.334 2.175ZM83.685 138.016a.573.573 0 0 0 .587-.541c.013-.298-.235-.587-.542-.587a.574.574 0 0 0-.587.542c-.013.297.235.586.542.586ZM35.615 159.389a.564.564 0 0 0-.339.722c.799 2.572.546 4.3-1.66 6.019-.37.501-1.508 1.002-.989 1.719.7.627 1.264-.555 1.783-.916.975-.853 1.95-1.814 2.27-3.113.325-1.119.063-2.306-.154-3.425-.085-.469-.275-1.213-.907-1.006h-.004ZM31.084 169.636c-.492.253-.257.799-.059 1.169.127.279.497.379.759.248.694-.348.009-1.796-.7-1.417ZM134.129 152.969c.604-.808 1.534-1.191 2.391-1.665 1.079-.645 2.189-1.282 3.119-2.134.271-.239.433-.6.293-.948-.171-.568-1.078-.433-1.087.149-.813.731-1.774 1.281-2.699 1.85-.668.415-3.755 1.787-2.812 2.811a.57.57 0 0 0 .795-.063ZM132.229 155.112c-.104-.397-.37-.862-.853-.69-.479.176-.402.703-.208 1.073.262.691 1.304.307 1.061-.383ZM126.854 179.093c-.018 1.426-.207 2.734-.559 4.16-.127.514-.28 1.029-.474 1.525a.565.565 0 0 0 .27.749c.267.126.637.018.75-.271.735-2.075 1.232-4.34 1.087-6.542-.266-.844-1.485-.42-1.078.379h.004ZM124.801 187.287a.573.573 0 0 0-.587.541c-.014.298.235.587.541.587a.574.574 0 0 0 .587-.542c.014-.298-.235-.586-.541-.586ZM202.718 183.713c-.492.605-1.191 1.015-1.791 1.53-1.088.889-2.067 1.845-3.168 2.725-.551.505-1.056.902-1.679 1.372-.244.189-.239.577-.045.798.618.627 1.584-.672 2.125-1.019 1.304-1.092 2.559-2.265 3.908-3.344.573-.519 1.381-.916 1.697-1.647.226-.64-.753-1.051-1.047-.415ZM194.121 190.986a.574.574 0 0 0-.586.542c-.014.298.234.586.541.586a.574.574 0 0 0 .587-.541c.013-.298-.235-.587-.542-.587ZM216.933 157.02c.208-.708-.857-1.037-1.074-.338-.338 1.128-1.087 2.279-2.058 2.951-.306.018-.541.311-.514.614.776 1.994 3.579-2.27 3.646-3.222v-.005ZM215.661 154.76a.573.573 0 0 0 .586-.541c.014-.298-.234-.587-.541-.587a.575.575 0 0 0-.587.542c-.013.297.235.586.542.586ZM208.264 136.053c-1.313-.681-2.843-.776-4.282-1.019-.307-.032-.573.248-.587.541-.013.32.235.555.542.587 1.295.243 2.653.297 3.849.911.668.302 1.146-.704.483-1.02h-.005ZM200.457 134.668a.573.573 0 0 0-.586.542c-.014.298.234.586.541.586a.574.574 0 0 0 .587-.541c.013-.298-.235-.587-.542-.587ZM86.808 213.316c-2.839-.771-5.709-1.493-8.435-2.612-.663-.334-1.168.654-.523.997 2.762 1.182 5.7 1.859 8.574 2.698.704.248 1.765-.384 1.034-1.083a.563.563 0 0 0-.646 0h-.004ZM76.045 209.445c-.307 0-.546.302-.533.596.018.32.29.532.596.532.307 0 .546-.302.532-.596-.018-.32-.288-.532-.595-.532ZM168.331 158.027c-1.083-.767-2.329-1.286-3.597-1.656-.465-.127-.961-.172-1.408.031-.695.253-.329 1.3.366 1.07.252-.14.532-.072.798 0a12.068 12.068 0 0 1 3.904 1.958c.248.18.618.081.781-.172.365-.618-.438-.943-.84-1.231h-.004ZM171.535 160.774c-.411-.045-.957 0-.984.524-.027.519.505.65.921.604.735.032.798-1.078.063-1.128ZM181.359 117.649c-.902.041-1.8.149-2.703.145-.546-.041-1.539.027-1.327.812.113.343.497.451.808.325 1.589.009 3.078-.239 4.68-.136a.57.57 0 0 0 .595-.532c-.049-.948-1.417-.537-2.053-.618v.004ZM185.746 118.281c-.307 0-.578.212-.596.532-.018.294.221.596.532.596.312 0 .578-.212.596-.533.018-.293-.221-.595-.532-.595ZM180.43 98.491c-.375-.613-.371-1.349-.434-2.043-.031-.307-.085-.7-.415-.83-.532-.262-1.092.392-.717.861-.077 2.17 1.308 3.998 3.05 5.157.623.397 1.223-.541.614-.947a7.176 7.176 0 0 1-2.098-2.198ZM184.279 103.017c.307 0 .578-.212.596-.533.018-.293-.221-.595-.533-.595-.311 0-.577.212-.595.532-.018.294.221.596.532.596ZM222.263 84.793c-.939.27-1.783.821-2.681 1.2-.659.348-1.313.709-1.981 1.047-.438.302-1.358.64-.966 1.313.42.578.993-.009 1.413-.266.641-.339 1.291-.672 1.927-1.02.862-.37 1.67-.87 2.554-1.173a.583.583 0 0 0 .542-.388c.167-.483-.361-.875-.804-.708l-.004-.005ZM215.169 88.872c-.749-.144-1.024 1.196-.262 1.331.745.149 1.025-1.196.262-1.331ZM217.804 48.946c1.269 1.259 2.347 2.842 3.259 4.403.392.632 1.335.055.965-.577-1.06-1.679-2.193-3.686-3.799-4.869-.691-.266-1.106.767-.429 1.047l.004-.004ZM222.407 55.474a.564.564 0 1 0 0-1.127.564.564 0 0 0 0 1.127ZM175.795 15.336c1.164.501 2.153 1.268 3.29 1.868.663.32 1.151-.681.492-1.015-.777-.289-4.549-3.361-4.427-1.227.09.28.37.42.645.374ZM182.438 18.458c-.05-.758-1.435-.703-1.377.077.05.763 1.435.704 1.377-.077ZM128.957 4.81c.731.104.903-.993.176-1.115-1.891-.316-3.773-.126-5.682-.094-.604.108-1.922-.095-1.918.79.195.929 1.327.256 1.964.338 1.832-.014 3.619-.222 5.46.08ZM132.215 4.986a.573.573 0 0 0 .582-.546c.009-.303-.243-.582-.546-.582a.577.577 0 0 0-.582.546c-.009.302.244.582.546.582Z"/></g><defs><clipPath id="a"><path fill="#fff" d="M0 0h241v221H0z"/></clipPath></defs></svg>