<svg width="262" height="285" viewBox="0 0 262 285" fill="none" xmlns="http://www.w3.org/2000/svg">
<circle cx="23" cy="215" r="23" fill="#DDFCED"/>
<circle cx="98" cy="215" r="23" fill="#F8FCDD"/>
<circle cx="98" cy="156" r="23" fill="#F8FCDD"/>
<circle cx="167" cy="98" r="23" fill="#DDE0FC"/>
<circle cx="239" cy="39" r="23" fill="#FCDDE3"/>
<circle cx="239" cy="98" r="23" fill="#FCDDE3"/>
<circle cx="168" cy="156" r="23" fill="#DDE0FC"/>
<path d="M24.7012 216.773H21.127L20.3242 219H19.1641L22.4219 210.469H23.4062L26.6699 219H25.5156L24.7012 216.773ZM21.4668 215.848H24.3672L22.9141 211.857L21.4668 215.848Z" fill="black"/>
<path d="M94.9902 219V210.469H97.7793C98.7051 210.469 99.4004 210.66 99.8652 211.043C100.334 211.426 100.568 211.992 100.568 212.742C100.568 213.141 100.455 213.494 100.229 213.803C100.002 214.107 99.6934 214.344 99.3027 214.512C99.7637 214.641 100.127 214.887 100.393 215.25C100.662 215.609 100.797 216.039 100.797 216.539C100.797 217.305 100.549 217.906 100.053 218.344C99.5566 218.781 98.8555 219 97.9492 219H94.9902ZM96.1152 215.01V218.08H97.9727C98.4961 218.08 98.9082 217.945 99.209 217.676C99.5137 217.402 99.666 217.027 99.666 216.551C99.666 215.523 99.1074 215.01 97.9902 215.01H96.1152ZM96.1152 214.107H97.8145C98.3066 214.107 98.6992 213.984 98.9922 213.738C99.2891 213.492 99.4375 213.158 99.4375 212.736C99.4375 212.268 99.3008 211.928 99.0273 211.717C98.7539 211.502 98.3379 211.395 97.7793 211.395H96.1152V214.107Z" fill="black"/>
<path d="M101.266 157.293C101.16 158.195 100.826 158.893 100.264 159.385C99.7051 159.873 98.9609 160.117 98.0312 160.117C97.0234 160.117 96.2148 159.756 95.6055 159.033C95 158.311 94.6973 157.344 94.6973 156.133V155.312C94.6973 154.52 94.8379 153.822 95.1191 153.221C95.4043 152.619 95.8066 152.158 96.3262 151.838C96.8457 151.514 97.4473 151.352 98.1309 151.352C99.0371 151.352 99.7637 151.605 100.311 152.113C100.857 152.617 101.176 153.316 101.266 154.211H100.135C100.037 153.531 99.8242 153.039 99.4961 152.734C99.1719 152.43 98.7168 152.277 98.1309 152.277C97.4121 152.277 96.8477 152.543 96.4375 153.074C96.0312 153.605 95.8281 154.361 95.8281 155.342V156.168C95.8281 157.094 96.0215 157.83 96.4082 158.377C96.7949 158.924 97.3359 159.197 98.0312 159.197C98.6562 159.197 99.1348 159.057 99.4668 158.775C99.8027 158.49 100.025 157.996 100.135 157.293H101.266Z" fill="black"/>
<path d="M163.99 102V93.4688H166.398C167.141 93.4688 167.797 93.6328 168.367 93.9609C168.938 94.2891 169.377 94.7559 169.686 95.3613C169.998 95.9668 170.156 96.6621 170.16 97.4473V97.9922C170.16 98.7969 170.004 99.502 169.691 100.107C169.383 100.713 168.939 101.178 168.361 101.502C167.787 101.826 167.117 101.992 166.352 102H163.99ZM165.115 94.3945V101.08H166.299C167.166 101.08 167.84 100.811 168.32 100.271C168.805 99.7324 169.047 98.9648 169.047 97.9688V97.4707C169.047 96.502 168.818 95.75 168.361 95.2148C167.908 94.6758 167.264 94.4023 166.428 94.3945H165.115Z" fill="black"/>
<path d="M240.695 39.2324H237.115V43H235.99V34.4688H241.275V35.3945H237.115V38.3125H240.695V39.2324Z" fill="black"/>
<path d="M242.289 100.881C242 101.295 241.596 101.605 241.076 101.812C240.561 102.016 239.959 102.117 239.271 102.117C238.576 102.117 237.959 101.955 237.42 101.631C236.881 101.303 236.463 100.838 236.166 100.236C235.873 99.6348 235.723 98.9375 235.715 98.1445V97.4004C235.715 96.1152 236.014 95.1191 236.611 94.4121C237.213 93.7051 238.057 93.3516 239.143 93.3516C240.033 93.3516 240.75 93.5801 241.293 94.0371C241.836 94.4902 242.168 95.1348 242.289 95.9707H241.164C240.953 94.8418 240.281 94.2773 239.148 94.2773C238.395 94.2773 237.822 94.543 237.432 95.0742C237.045 95.6016 236.85 96.3672 236.846 97.3711V98.0684C236.846 99.0254 237.064 99.7871 237.502 100.354C237.939 100.916 238.531 101.197 239.277 101.197C239.699 101.197 240.068 101.15 240.385 101.057C240.701 100.963 240.963 100.805 241.17 100.582V98.666H239.195V97.752H242.289V100.881Z" fill="black"/>
<path d="M169.812 156.057H166.115V159.08H170.41V160H164.99V151.469H170.352V152.395H166.115V155.137H169.812V156.057Z" fill="black"/>
<line x1="45.6449" y1="214.357" x2="73.6449" y2="155.357" stroke="#FF8A8A" stroke-width="3"/>
<line x1="47" y1="213.5" x2="73" y2="213.5" stroke="#FF8A8A" stroke-width="3"/>
<line x1="145" y1="156.5" x2="123" y2="156.5" stroke="black"/>
<line x1="216" y1="98.5" x2="189" y2="98.5" stroke="black"/>
<line x1="143.473" y1="98.163" x2="123.473" y2="156.163" stroke="black"/>
<line x1="216.455" y1="39.2081" x2="189.455" y2="98.2081" stroke="black"/>
<line x1="63.5" y1="0.00183822" x2="62.5" y2="272.002" stroke="#6F6F6F" stroke-dasharray="2 2"/>
<line x1="133.5" y1="0.00183822" x2="132.5" y2="272.002" stroke="#6F6F6F" stroke-dasharray="2 2"/>
<line x1="202.5" y1="0.00183822" x2="201.5" y2="272.002" stroke="#6F6F6F" stroke-dasharray="2 2"/>
<path d="M77.2715 282H76.1816V274.775L73.9961 275.578V274.594L77.1016 273.428H77.2715V282ZM84.25 280.318C84.25 280.025 84.1387 279.799 83.916 279.639C83.6973 279.475 83.3125 279.334 82.7617 279.217C82.2148 279.1 81.7793 278.959 81.4551 278.795C81.1348 278.631 80.8965 278.436 80.7402 278.209C80.5879 277.982 80.5117 277.713 80.5117 277.4C80.5117 276.881 80.7305 276.441 81.168 276.082C81.6094 275.723 82.1719 275.543 82.8555 275.543C83.5742 275.543 84.1562 275.729 84.6016 276.1C85.0508 276.471 85.2754 276.945 85.2754 277.523H84.1855C84.1855 277.227 84.0586 276.971 83.8047 276.756C83.5547 276.541 83.2383 276.434 82.8555 276.434C82.4609 276.434 82.1523 276.52 81.9297 276.691C81.707 276.863 81.5957 277.088 81.5957 277.365C81.5957 277.627 81.6992 277.824 81.9062 277.957C82.1133 278.09 82.4863 278.217 83.0254 278.338C83.5684 278.459 84.0078 278.604 84.3438 278.771C84.6797 278.939 84.9277 279.143 85.0879 279.381C85.252 279.615 85.334 279.902 85.334 280.242C85.334 280.809 85.1074 281.264 84.6543 281.607C84.2012 281.947 83.6133 282.117 82.8906 282.117C82.3828 282.117 81.9336 282.027 81.543 281.848C81.1523 281.668 80.8457 281.418 80.623 281.098C80.4043 280.773 80.2949 280.424 80.2949 280.049H81.3789C81.3984 280.412 81.543 280.701 81.8125 280.916C82.0859 281.127 82.4453 281.232 82.8906 281.232C83.3008 281.232 83.6289 281.15 83.875 280.986C84.125 280.818 84.25 280.596 84.25 280.318ZM88.2168 274.125V275.66H89.4004V276.498H88.2168V280.43C88.2168 280.684 88.2695 280.875 88.375 281.004C88.4805 281.129 88.6602 281.191 88.9141 281.191C89.0391 281.191 89.2109 281.168 89.4297 281.121V282C89.1445 282.078 88.8672 282.117 88.5977 282.117C88.1133 282.117 87.748 281.971 87.502 281.678C87.2559 281.385 87.1328 280.969 87.1328 280.43V276.498H85.9785V275.66H87.1328V274.125H88.2168ZM94.8262 282H93.7422V273H94.8262V282ZM99.1973 282.117C98.3379 282.117 97.6387 281.836 97.0996 281.273C96.5605 280.707 96.291 279.951 96.291 279.006V278.807C96.291 278.178 96.4102 277.617 96.6484 277.125C96.8906 276.629 97.2266 276.242 97.6562 275.965C98.0898 275.684 98.5586 275.543 99.0625 275.543C99.8867 275.543 100.527 275.814 100.984 276.357C101.441 276.9 101.67 277.678 101.67 278.689V279.141H97.375C97.3906 279.766 97.5723 280.271 97.9199 280.658C98.2715 281.041 98.7168 281.232 99.2559 281.232C99.6387 281.232 99.9629 281.154 100.229 280.998C100.494 280.842 100.727 280.635 100.926 280.377L101.588 280.893C101.057 281.709 100.26 282.117 99.1973 282.117ZM99.0625 276.434C98.625 276.434 98.2578 276.594 97.9609 276.914C97.6641 277.23 97.4805 277.676 97.4102 278.25H100.586V278.168C100.555 277.617 100.406 277.191 100.141 276.891C99.875 276.586 99.5156 276.434 99.0625 276.434ZM104.939 280.529L106.51 275.66H107.617L105.344 282H104.518L102.221 275.66H103.328L104.939 280.529ZM111.209 282.117C110.35 282.117 109.65 281.836 109.111 281.273C108.572 280.707 108.303 279.951 108.303 279.006V278.807C108.303 278.178 108.422 277.617 108.66 277.125C108.902 276.629 109.238 276.242 109.668 275.965C110.102 275.684 110.57 275.543 111.074 275.543C111.898 275.543 112.539 275.814 112.996 276.357C113.453 276.9 113.682 277.678 113.682 278.689V279.141H109.387C109.402 279.766 109.584 280.271 109.932 280.658C110.283 281.041 110.729 281.232 111.268 281.232C111.65 281.232 111.975 281.154 112.24 280.998C112.506 280.842 112.738 280.635 112.938 280.377L113.6 280.893C113.068 281.709 112.271 282.117 111.209 282.117ZM111.074 276.434C110.637 276.434 110.27 276.594 109.973 276.914C109.676 277.23 109.492 277.676 109.422 278.25H112.598V278.168C112.566 277.617 112.418 277.191 112.152 276.891C111.887 276.586 111.527 276.434 111.074 276.434ZM116.119 282H115.035V273H116.119V282Z" fill="black"/>
<path d="M149.299 282H143.709V281.221L146.662 277.939C147.1 277.443 147.4 277.041 147.564 276.732C147.732 276.42 147.816 276.098 147.816 275.766C147.816 275.32 147.682 274.955 147.412 274.67C147.143 274.385 146.783 274.242 146.334 274.242C145.795 274.242 145.375 274.396 145.074 274.705C144.777 275.01 144.629 275.436 144.629 275.982H143.545C143.545 275.197 143.797 274.562 144.301 274.078C144.809 273.594 145.486 273.352 146.334 273.352C147.127 273.352 147.754 273.561 148.215 273.979C148.676 274.393 148.906 274.945 148.906 275.637C148.906 276.477 148.371 277.477 147.301 278.637L145.016 281.115H149.299V282ZM151.584 275.66L151.619 276.457C152.104 275.848 152.736 275.543 153.518 275.543C154.857 275.543 155.533 276.299 155.545 277.811V282H154.461V277.805C154.457 277.348 154.352 277.01 154.145 276.791C153.941 276.572 153.623 276.463 153.189 276.463C152.838 276.463 152.529 276.557 152.264 276.744C151.998 276.932 151.791 277.178 151.643 277.482V282H150.559V275.66H151.584ZM156.916 278.777C156.916 277.805 157.146 277.023 157.607 276.434C158.068 275.84 158.672 275.543 159.418 275.543C160.16 275.543 160.748 275.797 161.182 276.305V273H162.266V282H161.27L161.217 281.32C160.783 281.852 160.18 282.117 159.406 282.117C158.672 282.117 158.072 281.816 157.607 281.215C157.146 280.613 156.916 279.828 156.916 278.859V278.777ZM158 278.9C158 279.619 158.148 280.182 158.445 280.588C158.742 280.994 159.152 281.197 159.676 281.197C160.363 281.197 160.865 280.889 161.182 280.271V277.359C160.857 276.762 160.359 276.463 159.688 276.463C159.156 276.463 158.742 276.668 158.445 277.078C158.148 277.488 158 278.096 158 278.9ZM168.107 282H167.023V273H168.107V282ZM172.479 282.117C171.619 282.117 170.92 281.836 170.381 281.273C169.842 280.707 169.572 279.951 169.572 279.006V278.807C169.572 278.178 169.691 277.617 169.93 277.125C170.172 276.629 170.508 276.242 170.938 275.965C171.371 275.684 171.84 275.543 172.344 275.543C173.168 275.543 173.809 275.814 174.266 276.357C174.723 276.9 174.951 277.678 174.951 278.689V279.141H170.656C170.672 279.766 170.854 280.271 171.201 280.658C171.553 281.041 171.998 281.232 172.537 281.232C172.92 281.232 173.244 281.154 173.51 280.998C173.775 280.842 174.008 280.635 174.207 280.377L174.869 280.893C174.338 281.709 173.541 282.117 172.479 282.117ZM172.344 276.434C171.906 276.434 171.539 276.594 171.242 276.914C170.945 277.23 170.762 277.676 170.691 278.25H173.867V278.168C173.836 277.617 173.688 277.191 173.422 276.891C173.156 276.586 172.797 276.434 172.344 276.434ZM178.221 280.529L179.791 275.66H180.898L178.625 282H177.799L175.502 275.66H176.609L178.221 280.529ZM184.49 282.117C183.631 282.117 182.932 281.836 182.393 281.273C181.854 280.707 181.584 279.951 181.584 279.006V278.807C181.584 278.178 181.703 277.617 181.941 277.125C182.184 276.629 182.52 276.242 182.949 275.965C183.383 275.684 183.852 275.543 184.355 275.543C185.18 275.543 185.82 275.814 186.277 276.357C186.734 276.9 186.963 277.678 186.963 278.689V279.141H182.668C182.684 279.766 182.865 280.271 183.213 280.658C183.564 281.041 184.01 281.232 184.549 281.232C184.932 281.232 185.256 281.154 185.521 280.998C185.787 280.842 186.02 280.635 186.219 280.377L186.881 280.893C186.35 281.709 185.553 282.117 184.49 282.117ZM184.355 276.434C183.918 276.434 183.551 276.594 183.254 276.914C182.957 277.23 182.773 277.676 182.703 278.25H185.879V278.168C185.848 277.617 185.699 277.191 185.434 276.891C185.168 276.586 184.809 276.434 184.355 276.434ZM189.4 282H188.316V273H189.4V282Z" fill="black"/>
<path d="M214.285 277.207H215.1C215.611 277.199 216.014 277.064 216.307 276.803C216.6 276.541 216.746 276.188 216.746 275.742C216.746 274.742 216.248 274.242 215.252 274.242C214.783 274.242 214.408 274.377 214.127 274.646C213.85 274.912 213.711 275.266 213.711 275.707H212.627C212.627 275.031 212.873 274.471 213.365 274.025C213.861 273.576 214.49 273.352 215.252 273.352C216.057 273.352 216.688 273.564 217.145 273.99C217.602 274.416 217.83 275.008 217.83 275.766C217.83 276.137 217.709 276.496 217.467 276.844C217.229 277.191 216.902 277.451 216.488 277.623C216.957 277.771 217.318 278.018 217.572 278.361C217.83 278.705 217.959 279.125 217.959 279.621C217.959 280.387 217.709 280.994 217.209 281.443C216.709 281.893 216.059 282.117 215.258 282.117C214.457 282.117 213.805 281.9 213.301 281.467C212.801 281.033 212.551 280.461 212.551 279.75H213.641C213.641 280.199 213.787 280.559 214.08 280.828C214.373 281.098 214.766 281.232 215.258 281.232C215.781 281.232 216.182 281.096 216.459 280.822C216.736 280.549 216.875 280.156 216.875 279.645C216.875 279.148 216.723 278.768 216.418 278.502C216.113 278.236 215.674 278.1 215.1 278.092H214.285V277.207ZM222.623 276.633C222.459 276.605 222.281 276.592 222.09 276.592C221.379 276.592 220.896 276.895 220.643 277.5V282H219.559V275.66H220.613L220.631 276.393C220.986 275.826 221.49 275.543 222.143 275.543C222.354 275.543 222.514 275.57 222.623 275.625V276.633ZM223.244 278.777C223.244 277.805 223.475 277.023 223.936 276.434C224.396 275.84 225 275.543 225.746 275.543C226.488 275.543 227.076 275.797 227.51 276.305V273H228.594V282H227.598L227.545 281.32C227.111 281.852 226.508 282.117 225.734 282.117C225 282.117 224.4 281.816 223.936 281.215C223.475 280.613 223.244 279.828 223.244 278.859V278.777ZM224.328 278.9C224.328 279.619 224.477 280.182 224.773 280.588C225.07 280.994 225.48 281.197 226.004 281.197C226.691 281.197 227.193 280.889 227.51 280.271V277.359C227.186 276.762 226.688 276.463 226.016 276.463C225.484 276.463 225.07 276.668 224.773 277.078C224.477 277.488 224.328 278.096 224.328 278.9ZM234.436 282H233.352V273H234.436V282ZM238.807 282.117C237.947 282.117 237.248 281.836 236.709 281.273C236.17 280.707 235.9 279.951 235.9 279.006V278.807C235.9 278.178 236.02 277.617 236.258 277.125C236.5 276.629 236.836 276.242 237.266 275.965C237.699 275.684 238.168 275.543 238.672 275.543C239.496 275.543 240.137 275.814 240.594 276.357C241.051 276.9 241.279 277.678 241.279 278.689V279.141H236.984C237 279.766 237.182 280.271 237.529 280.658C237.881 281.041 238.326 281.232 238.865 281.232C239.248 281.232 239.572 281.154 239.838 280.998C240.104 280.842 240.336 280.635 240.535 280.377L241.197 280.893C240.666 281.709 239.869 282.117 238.807 282.117ZM238.672 276.434C238.234 276.434 237.867 276.594 237.57 276.914C237.273 277.23 237.09 277.676 237.02 278.25H240.195V278.168C240.164 277.617 240.016 277.191 239.75 276.891C239.484 276.586 239.125 276.434 238.672 276.434ZM244.549 280.529L246.119 275.66H247.227L244.953 282H244.127L241.83 275.66H242.938L244.549 280.529ZM250.818 282.117C249.959 282.117 249.26 281.836 248.721 281.273C248.182 280.707 247.912 279.951 247.912 279.006V278.807C247.912 278.178 248.031 277.617 248.27 277.125C248.512 276.629 248.848 276.242 249.277 275.965C249.711 275.684 250.18 275.543 250.684 275.543C251.508 275.543 252.148 275.814 252.605 276.357C253.062 276.9 253.291 277.678 253.291 278.689V279.141H248.996C249.012 279.766 249.193 280.271 249.541 280.658C249.893 281.041 250.338 281.232 250.877 281.232C251.26 281.232 251.584 281.154 251.85 280.998C252.115 280.842 252.348 280.635 252.547 280.377L253.209 280.893C252.678 281.709 251.881 282.117 250.818 282.117ZM250.684 276.434C250.246 276.434 249.879 276.594 249.582 276.914C249.285 277.23 249.102 277.676 249.031 278.25H252.207V278.168C252.176 277.617 252.027 277.191 251.762 276.891C251.496 276.586 251.137 276.434 250.684 276.434ZM255.729 282H254.645V273H255.729V282Z" fill="black"/>
</svg>
