<svg width="64" height="20" viewBox="0 0 64 20" fill="none" xmlns="http://www.w3.org/2000/svg">
<g clip-path="url(#clip0)">
<path fill-rule="evenodd" clip-rule="evenodd" d="M33.5235 5.19884C33.5235 5.44761 33.4489 5.69079 33.3092 5.89763C33.1694 6.10447 32.9708 6.26568 32.7384 6.36088C32.506 6.45608 32.2503 6.48098 32.0036 6.43245C31.7569 6.38392 31.5303 6.26413 31.3525 6.08822C31.1746 5.91232 31.0535 5.68821 31.0044 5.44422C30.9553 5.20024 30.9805 4.94734 31.0768 4.71751C31.173 4.48768 31.336 4.29124 31.5452 4.15304C31.7543 4.01483 32.0002 3.94106 32.2517 3.94106C32.4189 3.94055 32.5845 3.97273 32.739 4.03576C32.8936 4.09879 33.034 4.19142 33.1521 4.30831C33.2703 4.42521 33.364 4.56407 33.4277 4.7169C33.4915 4.86974 33.524 5.03352 33.5235 5.19884ZM28.2769 7.72662V8.03773C28.0369 7.7809 27.7434 7.57861 27.4167 7.44481C27.09 7.31101 26.7378 7.24889 26.3845 7.26273C25.8782 7.25733 25.376 7.35347 24.9083 7.54535C24.4406 7.73723 24.017 8.02086 23.6632 8.37913C23.3094 8.73739 23.0327 9.16285 22.8498 9.62982C22.6669 10.0968 22.5816 10.5956 22.599 11.0961C22.581 11.5965 22.6659 12.0954 22.8483 12.5626C23.0307 13.0298 23.307 13.4555 23.6604 13.8141C24.0138 14.1728 24.4371 14.4568 24.9046 14.6492C25.3721 14.8415 25.8742 14.9382 26.3805 14.9333C26.7359 14.9495 27.0905 14.8865 27.418 14.7491C27.7456 14.6117 28.0377 14.4033 28.273 14.1394V14.4688C28.2725 14.5044 28.2792 14.5396 28.2927 14.5726C28.3062 14.6055 28.3262 14.6354 28.3516 14.6605C28.377 14.6857 28.4073 14.7055 28.4406 14.7188C28.4739 14.7322 28.5095 14.7388 28.5454 14.7383H30.1318V7.4444H28.5589C28.4873 7.44636 28.4191 7.47538 28.3685 7.52549C28.3178 7.5756 28.2885 7.643 28.2865 7.71384L28.2769 7.72662ZM28.2769 12.3911C28.0953 12.6385 27.8567 12.8396 27.5808 12.9777C27.3049 13.1157 26.9998 13.1868 26.6906 13.185C25.438 13.185 24.4802 12.41 24.4802 11.0961C24.4802 9.78218 25.438 9.00717 26.6906 9.00717C26.999 9.00947 27.3027 9.08234 27.5779 9.22007C27.8531 9.3578 28.0924 9.55665 28.2769 9.80106V12.3955V12.3911ZM31.3103 7.45662H33.2033V14.7344H31.3103V7.4444V7.45662ZM59.3782 7.26218C59.0248 7.24833 58.6726 7.31045 58.3459 7.44425C58.0192 7.57805 57.7257 7.78034 57.4857 8.03717V3.95273H55.5927V14.7333H57.1784C57.2501 14.7313 57.3182 14.7023 57.3689 14.6522C57.4195 14.6021 57.4489 14.5347 57.4509 14.4638V14.1344C57.6877 14.3953 57.9796 14.6017 58.3059 14.7389C58.6323 14.876 58.9851 14.9407 59.3394 14.9283C59.8453 14.9321 60.3467 14.8349 60.8137 14.6425C61.2807 14.4501 61.7036 14.1664 62.0571 13.8084C62.4105 13.4505 62.6873 13.0257 62.8708 12.5594C63.0543 12.0931 63.1407 11.595 63.1249 11.095C63.1412 10.5947 63.0551 10.0964 62.8718 9.62997C62.6884 9.16349 62.4117 8.73847 62.0581 8.38044C61.7046 8.0224 61.2815 7.73873 60.8143 7.54647C60.3471 7.35421 59.8454 7.25732 59.3394 7.26162L59.3782 7.26218ZM59.0585 13.1666C58.7489 13.1709 58.4429 13.101 58.1666 12.9627C57.8903 12.8245 57.6521 12.622 57.4722 12.3727V9.77773C57.6629 9.53988 57.9035 9.34573 58.1773 9.20868C58.4512 9.07163 58.7518 8.99492 59.0585 8.98384C60.3112 8.98384 61.2689 9.75884 61.2689 11.0727C61.2689 12.3866 60.3112 13.1616 59.0585 13.1616V13.1666ZM54.6332 10.4188V14.7538H52.7402V10.6355C52.7402 9.43384 52.3616 8.95106 51.291 8.95106C51.0025 8.961 50.7192 9.02961 50.4587 9.15263C50.1983 9.27565 49.9662 9.45043 49.7771 9.66606V14.735H47.8841V7.4444H49.3715C49.4432 7.44636 49.5113 7.47538 49.562 7.52549C49.6126 7.5756 49.642 7.643 49.644 7.71384V8.02495C49.9052 7.76773 50.217 7.56624 50.5601 7.43294C50.9032 7.29964 51.2703 7.23736 51.6387 7.24995C52.3873 7.22258 53.1195 7.47059 53.694 7.94606C54.3602 8.48884 54.6136 9.18495 54.6136 10.4055L54.6332 10.4188ZM43.3425 7.26329C42.9892 7.24944 42.637 7.31156 42.3103 7.44536C41.9835 7.57916 41.6901 7.78145 41.45 8.03829V3.95384H39.557V14.7333H41.1433C41.215 14.7313 41.2831 14.7023 41.3338 14.6522C41.3844 14.6021 41.4138 14.5347 41.4158 14.4638V14.1344C41.6531 14.3959 41.9456 14.6025 42.2726 14.7397C42.5997 14.8769 42.9532 14.9413 43.3082 14.9283C43.8141 14.9321 44.3156 14.8349 44.7825 14.6425C45.2495 14.4501 45.6724 14.1664 46.0259 13.8084C46.3794 13.4505 46.6561 13.0257 46.8396 12.5594C47.0231 12.0931 47.1095 11.595 47.0937 11.095C47.1133 10.5939 47.0295 10.0942 46.8473 9.62626C46.6652 9.15833 46.3886 8.732 46.0344 8.37329C45.6801 8.01458 45.2557 7.73101 44.787 7.53989C44.3183 7.34876 43.8152 7.25408 43.3082 7.26162L43.3425 7.26329ZM43.0268 13.1666C42.7172 13.1709 42.4112 13.101 42.1349 12.9627C41.8586 12.8245 41.6203 12.622 41.4405 12.3727V9.77773C41.6312 9.53988 41.8717 9.34573 42.1456 9.20868C42.4194 9.07163 42.7201 8.99492 43.0268 8.98384C44.2795 8.98384 45.2372 9.75884 45.2372 11.0727C45.2372 12.3866 44.2795 13.1616 43.0268 13.1616V13.1666ZM37.9263 7.26106C38.2172 7.25194 38.5078 7.28469 38.7891 7.35829V9.08051C38.7891 9.08051 37.2163 8.56773 36.2456 9.66051V14.7522H34.3526V7.4444H35.9389C36.0105 7.44636 36.0787 7.47538 36.1294 7.52549C36.18 7.5756 36.2094 7.643 36.2114 7.71384V8.02495C36.6602 7.56377 37.2684 7.28701 37.9145 7.24995L37.9263 7.26106ZM18.4119 14.075L18.1164 13.3788L17.6659 12.39L17.6468 12.3711C16.2778 9.42049 14.8363 6.50333 13.3237 3.62218L13.2631 3.51106L12.7968 2.58329C12.604 2.20343 12.3679 1.84666 12.093 1.51995C11.7939 1.14717 11.4127 0.846838 10.9784 0.641863C10.5441 0.436888 10.0683 0.332678 9.58711 0.337176C9.10921 0.338739 8.63741 0.44339 8.20462 0.643833C7.77182 0.844276 7.38845 1.13568 7.08124 1.49773C6.81296 1.82923 6.57728 2.18529 6.37739 2.56106L5.84768 3.58662C4.33382 6.49217 2.87221 9.43106 1.52125 12.3355L1.50215 12.3727C1.38981 12.6911 1.22971 13.0172 1.07074 13.365C0.972255 13.5772 0.873765 13.8092 0.775275 14.0611C0.525546 14.7279 0.444926 15.4451 0.540473 16.15C0.645804 16.8578 0.935752 17.5262 1.38175 18.0895C1.82776 18.6527 2.41443 19.0914 3.08398 19.3622C3.58602 19.5709 4.12572 19.6766 4.6703 19.6727C4.83996 19.6699 5.00932 19.6575 5.17754 19.6355C5.86809 19.5484 6.53375 19.3243 7.1346 18.9766C8.04725 18.4383 8.86641 17.7583 9.56071 16.9627C10.2594 17.7539 11.0778 18.4333 11.9868 18.9766C12.5876 19.3244 13.2533 19.5485 13.9439 19.6355C14.1121 19.6575 14.2815 19.6699 14.4511 19.6727C14.9959 19.6784 15.5359 19.5726 16.0374 19.3622C16.707 19.0914 17.2937 18.6527 17.7397 18.0895C18.1857 17.5262 18.4756 16.8578 18.5809 16.15C18.7251 15.4574 18.6633 14.7384 18.4029 14.08L18.4119 14.075ZM9.58823 15.0822C8.53218 13.7644 7.84687 12.5288 7.61207 11.4805C7.51617 11.0948 7.49558 10.6944 7.5514 10.3011C7.59015 10.0097 7.69772 9.73145 7.86541 9.48884C8.06155 9.21971 8.32064 9.00152 8.62055 8.85293C8.92046 8.70433 9.25228 8.62973 9.58767 8.63551C9.92383 8.62272 10.2578 8.69389 10.5588 8.84244C10.8598 8.991 11.1181 9.21216 11.3099 9.48551C11.4776 9.72811 11.5852 10.0064 11.6239 10.2977C11.68 10.6911 11.6594 11.0915 11.5633 11.4772C11.3285 12.5027 10.6437 13.7233 9.58711 15.0788L9.58823 15.0822ZM17.3974 15.9916C17.3238 16.4872 17.1205 16.9551 16.8078 17.3491C16.4951 17.743 16.0837 18.0494 15.6145 18.2377C15.1464 18.4335 14.6354 18.507 14.1304 18.4511C13.6049 18.3868 13.0986 18.216 12.6429 17.9494C11.803 17.4479 11.0502 16.8159 10.4134 16.0777C11.7043 14.5088 12.4879 13.0777 12.7828 11.7988C12.9101 11.2593 12.9434 10.7022 12.8811 10.1516C12.8084 9.67817 12.6272 9.22742 12.3514 8.83384C12.0412 8.39606 11.627 8.04041 11.1451 7.79822C10.6633 7.55602 10.1286 7.4347 9.58823 7.44495C9.05059 7.43816 8.51921 7.55946 8.03896 7.79859C7.55871 8.03772 7.14371 8.38766 6.82902 8.81884C6.55319 9.21242 6.37201 9.66317 6.29931 10.1366C6.21658 10.6865 6.25005 11.2474 6.39761 11.7838C6.69308 13.0605 7.49523 14.5127 8.76698 16.0816C8.13466 16.8242 7.38107 17.4568 6.53749 17.9533C6.08183 18.2257 5.574 18.4016 5.0461 18.4699C4.54167 18.5253 4.03119 18.4586 3.55864 18.2755C3.08938 18.0872 2.67801 17.7808 2.36528 17.3869C2.05255 16.9929 1.84932 16.525 1.77571 16.0294C1.71384 15.5234 1.77488 15.0101 1.95378 14.5322C2.01445 14.3377 2.10882 14.1577 2.20656 13.9144C2.34306 13.6033 2.50203 13.2744 2.65707 12.945L2.67616 12.9077C4.02768 10.0188 5.47357 7.08273 6.98462 4.21495L7.04079 4.07606L7.5104 3.18495C7.66278 2.87778 7.85214 2.58995 8.07437 2.32773C8.26733 2.1035 8.50723 1.9234 8.77749 1.79989C9.04775 1.67638 9.34191 1.61242 9.63963 1.61242C9.93735 1.61242 10.2315 1.67638 10.5018 1.79989C10.772 1.9234 11.0119 2.1035 11.2049 2.32773C11.416 2.58931 11.5951 2.87462 11.7385 3.17773L12.2081 4.06884L12.2643 4.17995C13.7518 7.06662 15.2055 10.005 16.5531 12.8911V12.91C16.7081 13.2211 16.8486 13.5688 17.0036 13.8794C17.1019 14.1116 17.2002 14.3061 17.2564 14.4972C17.4189 14.979 17.4656 15.4916 17.3929 15.9944L17.3974 15.9916Z" fill="#AAAAAA"/>
</g>
<defs>
<clipPath id="clip0">
<rect width="62.963" height="20" fill="white" transform="translate(0.333252)"/>
</clipPath>
</defs>
</svg>
