<svg width="24" height="20" viewBox="0 0 24 20" fill="none" xmlns="http://www.w3.org/2000/svg">
<g clip-path="url(#clip0)">
<path d="M10.371 0.793453L1.71181 4.27722C1.23024 4.47128 1.23532 5.13599 1.71979 5.32264L10.415 8.67516C11.179 8.96975 12.0298 8.96975 12.7938 8.67516L21.4889 5.32264C21.9734 5.13564 21.9789 4.47092 21.4969 4.27722L12.8381 0.793806C12.0481 0.475958 11.1607 0.475958 10.3707 0.793806" fill="#AAAAAA"/>
<path d="M12.376 10.5056V18.8806C12.3761 18.9726 12.3993 19.0631 12.4437 19.1444C12.488 19.2257 12.5521 19.2952 12.6304 19.3469C12.7087 19.3985 12.7988 19.4308 12.8928 19.441C12.9868 19.4511 13.082 19.4387 13.17 19.4049L22.8595 15.7482C22.9675 15.7065 23.0601 15.6342 23.1254 15.5407C23.1907 15.4473 23.2256 15.3369 23.2257 15.2239V6.84932C23.2256 6.75733 23.2023 6.66676 23.158 6.58549C23.1136 6.50423 23.0495 6.43473 22.9713 6.38304C22.893 6.33136 22.8029 6.29905 22.7089 6.28894C22.6148 6.27883 22.5197 6.29122 22.4317 6.32503L12.7421 9.98168C12.6342 10.0234 12.5415 10.0957 12.4762 10.1892C12.411 10.2826 12.376 10.393 12.376 10.506" fill="#AAAAAA"/>
<path d="M10.1142 10.9378L6.94682 12.425L0.876537 15.2528C0.491859 15.4335 0.000488281 15.1611 0.000488281 14.7448V6.88459C0.000488281 6.73429 0.0796012 6.60445 0.186295 6.50707C0.229906 6.46484 0.279377 6.42873 0.333271 6.39981C0.478432 6.31514 0.685287 6.29256 0.861295 6.3603L10.0663 9.90616C10.5381 10.0868 10.5744 10.724 10.1146 10.9382" fill="#AAAAAA"/>
<path d="M10.1141 10.9378L7.23845 12.2877L0.185791 6.50634C0.229403 6.4641 0.278873 6.428 0.332767 6.39908C0.477928 6.31441 0.684783 6.29182 0.860791 6.35957L10.0658 9.90543C10.5376 10.0861 10.5739 10.7233 10.1141 10.9374" fill="#AAAAAA"/>
</g>
<defs>
<clipPath id="clip0">
<rect width="23.2258" height="20" fill="white"/>
</clipPath>
</defs>
</svg>
