<svg width="88" height="20" viewBox="0 0 88 20" fill="none" xmlns="http://www.w3.org/2000/svg">
<path fill-rule="evenodd" clip-rule="evenodd" d="M7.38578 17.0642C8.05007 17.0642 8.6715 16.9428 9.25721 16.7071C9.25721 16.7285 10.4501 18.5785 10.4715 18.5857C9.41573 19.1513 8.23339 19.4389 7.03578 19.4214C3.3715 19.4285 0.714355 17.0071 0.714355 13.1571C0.714355 9.27852 3.50007 6.87138 7.03578 6.87138C8.28578 6.87138 9.27864 7.1428 10.2715 7.67138L9.12864 9.59995C8.52864 9.36423 7.91436 9.25709 7.2715 9.25709C5.10721 9.25709 3.42864 10.6357 3.42864 13.1571C3.42864 15.5428 5.05007 17.0642 7.38578 17.0642ZM16.6215 6.87138C20.2215 6.87138 22.8286 9.42138 22.8286 13.1571C22.8286 16.8714 20.2215 19.4214 16.6144 19.4214C13.0429 19.4214 10.4358 16.8714 10.4358 13.1571C10.4358 9.42138 13.0429 6.87138 16.6215 6.87138ZM16.6215 9.17138C14.6144 9.17138 13.1501 10.7214 13.1501 13.1571C13.1501 15.5714 14.6144 17.1214 16.6215 17.1214C18.6786 17.1214 20.1215 15.5714 20.1215 13.1571C20.1215 10.7214 18.6786 9.17138 16.6215 9.17138ZM24.5358 19.1499V7.1428H27.2215V19.1428H24.5358V19.1499ZM24.1786 3.44995C24.2065 3.02276 24.3958 2.62217 24.7082 2.32948C25.0206 2.03678 25.4327 1.87391 25.8608 1.87391C26.2889 1.87391 26.7009 2.03678 27.0133 2.32948C27.3257 2.62217 27.5151 3.02276 27.5429 3.44995C27.543 3.89848 27.3673 4.32919 27.0535 4.64968C26.7397 4.97016 26.3128 5.15489 25.8644 5.16423C25.4159 5.15489 24.989 4.97016 24.6752 4.64968C24.3614 4.32919 24.1857 3.89848 24.1858 3.44995H24.1786ZM29.5644 7.89995C31.3236 7.2387 33.185 6.89059 35.0644 6.87138C38.1358 6.87138 40.0786 8.03566 40.0786 11.4214V19.1499H37.4286V11.6714C37.4286 9.93566 36.3501 9.31423 34.8572 9.31423C33.9072 9.31423 32.9572 9.4428 32.2501 9.66423V19.1428H29.5715V7.89995H29.5644ZM42.3286 0.714233H45.0144V7.46423C45.5858 7.16423 46.6929 6.87138 47.7501 6.87138C51.2215 6.87138 53.8215 9.08566 53.8215 12.9428C53.8215 16.8214 51.2501 19.4214 46.8072 19.4214C45.0715 19.4214 43.5501 19.0642 42.3286 18.6357V0.714233ZM45.0144 16.8714C45.5286 17.0357 46.2072 17.1214 46.8858 17.1214C49.3501 17.1214 51.1144 15.7642 51.1144 12.9999C51.1144 10.6642 49.4572 9.28566 47.4286 9.28566C46.3715 9.28566 45.5572 9.55709 45.0144 9.85709V16.8714ZM61.5858 11.0999C61.5858 9.79995 60.6001 9.19995 59.2715 9.19995C57.8929 9.19995 56.8072 9.60709 55.8072 10.1785V7.8428C57.0035 7.19269 58.3458 6.85835 59.7072 6.87138C62.3358 6.87138 64.2072 7.95709 64.2072 10.9642V18.9071C63.0644 19.2071 61.4429 19.3928 60.0858 19.3928C56.9715 19.3928 54.6929 18.4499 54.6929 15.7357C54.6929 13.2928 56.7786 12.0999 60.2501 12.0999H61.5786V11.0999H61.5858ZM61.5858 13.8857H60.4429C58.5715 13.8857 57.3501 14.4357 57.3501 15.6571C57.3501 16.8999 58.4929 17.3857 60.1144 17.3857C60.5215 17.3857 61.0929 17.3357 61.5786 17.2571V13.8928L61.5858 13.8857ZM66.1572 15.8999C67.2039 16.7293 68.4871 17.2045 69.8215 17.2571C71.0144 17.2571 71.8001 16.8499 71.8001 15.8999C71.8001 14.9214 71.0929 14.5714 69.5501 14.1642C67.0501 13.5928 66.0001 12.5928 66.0001 10.4999C66.0001 8.06423 67.8429 6.87138 70.2858 6.87138C71.6429 6.87138 72.7215 7.16423 73.7286 7.7928V10.2571C72.7714 9.49311 71.5889 9.06629 70.3644 9.0428C69.2001 9.0428 68.5786 9.61423 68.5786 10.3999C68.5786 11.1857 69.0858 11.5857 70.4715 11.9714C73.2144 12.5642 74.4001 13.5928 74.4001 15.7571C74.4001 18.2857 72.4786 19.4214 69.8786 19.4214C68.5745 19.4474 67.2887 19.1111 66.1644 18.4499V15.8999H66.1572ZM78.0786 13.7571V13.8071C78.2429 15.9499 80.0786 17.1214 81.9572 17.1214C83.6072 17.1214 84.8001 16.7357 85.9929 15.9499V18.3071C84.9072 19.0714 83.3072 19.4214 81.7644 19.4214C78.0215 19.4214 75.4786 17.0357 75.4786 13.2428C75.4786 9.42138 77.9715 6.87138 81.2786 6.87138C84.7786 6.87138 86.4286 9.12138 86.4286 12.3999V13.7571H78.0715H78.0786ZM83.9072 12.0214C83.8501 10.1499 82.9286 9.12138 81.1929 9.12138C79.6501 9.12138 78.5144 10.2071 78.1572 12.0214H83.9072Z" fill="#AAAAAA"/>
</svg>
