<svg width="59" height="20" viewBox="0 0 59 20" fill="none" xmlns="http://www.w3.org/2000/svg">
<g clip-path="url(#clip0)">
<path d="M47.4858 17.3398C47.4858 16.4855 48.007 15.9224 49.0203 15.9224C50.217 15.9224 50.5547 16.3398 50.9793 18.0777C51.1241 18.6699 51.4812 19.0292 52.4173 19.0292C53.6815 19.0292 54.3764 18.3398 54.3764 17.3107C54.3764 16.4175 53.4692 15.6893 51.7031 14.5631C49.7634 13.3592 48.7018 12.2233 48.7018 10.5437C48.7018 7.94177 51.5777 6.37866 54.2026 6.37866C57.1654 6.37866 58.2945 7.65051 58.2945 8.85439C58.2945 9.65051 57.7734 10.0874 56.8855 10.0874C55.766 10.0874 55.4186 9.6408 55.0422 8.29128C54.8685 7.61167 54.5211 7.33983 53.8456 7.33983C52.784 7.33983 52.0602 7.89323 52.0602 8.88352C52.0602 9.83497 52.9963 10.4272 55.0519 11.7282C56.9917 12.8738 57.8506 14.1262 57.8506 15.602C57.8506 18.0292 55.2449 20 52.0023 20C48.779 19.9515 47.4858 18.6214 47.4858 17.3398Z" fill="#AAAAAA"/>
<path d="M1.73254 6.08743C1.73254 5.52432 1.73254 3.77675 1.67464 3.42723C1.58779 2.9515 1.46233 2.92238 0.709582 2.73791C0.449017 2.67966 0.391113 2.49519 0.391113 2.29131C0.391113 2.02917 0.420065 2.00005 1.21141 1.84471C2.76516 1.48549 4.06798 0.951504 5.33221 0.21364C5.59278 0.0291742 5.65068 0.0291748 5.70858 0.0291748C5.9209 0.0291748 5.9209 0.271894 5.9209 0.592282V3.39811L5.89194 7.97092C5.89194 8.26218 5.89194 8.40781 6.0174 8.40781C6.04635 8.40781 6.10426 8.40781 6.45168 8.08743C7.6773 7.04859 9.05733 6.42723 10.6497 6.42723C11.8464 6.42723 12.9369 6.80587 13.7572 7.68937C14.4713 8.43694 14.5775 9.55345 14.5775 10.7865V17.9127C14.5775 18.5534 14.7029 18.7962 15.5136 19.0098C15.5136 19.0098 15.7259 19.1068 16.1988 19.1068C16.6716 19.1068 16.8647 19.0389 16.8647 19.0389C17.7429 18.7767 17.7429 18.4466 17.7429 17.0583L17.7139 13.5923C17.7139 13.0292 17.685 10.2233 17.627 9.87383C17.5402 9.39811 17.4147 9.36898 16.662 9.18451C16.4014 9.12626 16.3435 8.9418 16.3435 8.73791C16.3435 8.47578 16.3725 8.44665 17.1638 8.29131C18.6983 7.94179 20.0107 7.40781 21.275 6.66024C21.5355 6.47578 21.5934 6.47578 21.6513 6.47578C21.8637 6.47578 21.8637 6.71849 21.8637 7.03888V17.2913C21.8637 18.5534 21.9602 18.7767 22.8673 19.0292C22.8673 19.0292 23.1568 19.1263 23.6876 19.1263C24.2087 19.1263 24.4886 19.0292 24.4886 19.0292C25.5502 18.767 25.5502 18.3884 25.5502 17.1068C25.5502 14.8641 25.5502 11.9709 25.4633 10.369C25.4344 9.3981 25.4054 9.3884 24.1412 9.1651C23.8227 9.10684 23.7938 8.9515 23.7938 8.7282C23.7938 8.40781 23.9192 8.37869 24.4018 8.29131C25.5212 8.04859 27.2487 7.60199 28.7542 6.7185C29.227 6.42723 29.285 6.42723 29.3622 6.42723C29.5455 6.42723 29.5455 6.64082 29.5455 6.80587V7.9515C29.5455 8.21364 29.5455 8.33014 29.671 8.33014C29.7578 8.33014 29.7964 8.33014 29.9894 8.14568C31.3019 6.97092 32.431 6.40781 33.8979 6.40781C35.2201 6.40781 36.2816 6.84471 37.0633 7.89325C37.4686 8.42723 37.4976 8.45636 37.5941 8.45636C37.652 8.45636 37.6906 8.45636 38.1828 8.00976C39.0031 7.23306 40.3831 6.37869 42.1878 6.37869C42.429 6.37869 44.7645 6.40781 45.6909 8.0583C46.0384 8.66995 46.2217 9.00005 46.2217 12.5437V17.8641C46.2217 18.3107 46.2217 18.7476 47.071 18.9612C47.3894 19.0486 47.5728 19.0874 47.5728 19.4661C47.5728 19.7088 47.5149 19.8738 47.1385 19.903H46.3665H43.452H41.2806C41.0201 19.903 40.6919 19.8447 40.6919 19.3981C40.6919 19.136 40.8463 19.0777 41.1359 18.9903C41.6666 18.835 42.0141 18.7476 42.0141 17.4466V14.8544C42.0141 14.1068 42.0141 10.7185 41.9562 10.2525C41.9272 9.80587 41.8018 8.23306 40.0164 8.23306C39.4856 8.23306 37.9222 8.64082 37.9222 10.1263V17.7865C37.9222 18.5632 38.0477 18.7573 38.8969 18.9612C39.1864 19.0486 39.3698 19.0874 39.3698 19.3981C39.3698 19.8447 39.1285 19.903 38.4241 19.903H36.1079H33.0776C32.7013 19.903 32.4117 19.8738 32.4117 19.4564C32.4117 19.1942 32.5082 19.136 32.7881 19.0486C33.7532 18.7573 33.7532 18.3787 33.7532 17.1845C33.7532 15.9224 33.7532 10.7185 33.6277 9.86413C33.4444 8.76704 32.5082 8.41752 31.8038 8.41752C30.8966 8.41752 30.0184 9.0583 29.7675 9.73791C29.6806 9.9515 29.6806 12.7865 29.6806 13.2331C29.6806 14.0292 29.6806 17.4855 29.7385 18.0195C29.7964 18.7379 30.3755 18.903 30.9352 19.0292C31.1958 19.1166 31.3405 19.1263 31.3405 19.4661C31.3405 19.903 30.9931 19.9127 30.6264 19.9127H27.5768H24.9036H22.4041H20.0204H16.9901H15.5811H14.8187H12.4061H10.061H9.3179C9.10559 19.8835 9.02838 19.67 9.02838 19.4758C9.02838 19.2136 9.15384 19.1263 9.40476 19.068C9.81008 18.9709 10.0706 18.8835 10.1768 18.5923C10.3023 18.2136 10.3023 17.4952 10.3312 16.9321C10.3602 14.3107 10.3602 14.2525 10.3602 11.3204C10.3602 10.1748 10.3602 8.33014 8.36249 8.33014C7.45534 8.33014 6.7991 8.86413 6.57714 9.07772C6.0753 9.55345 5.89194 9.74762 5.89194 10.7379V17.835C5.89194 18.5049 5.9788 18.7767 6.86665 19.0098C7.10792 19.068 7.36848 19.1068 7.36848 19.3884C7.36848 19.8641 7.02106 19.8932 6.54818 19.8932H4.3575H1.09561C0.622727 19.8932 0.410414 19.8932 0.410414 19.4564C0.410414 19.1942 0.564824 19.136 0.854341 19.0486C1.73254 18.7282 1.73254 18.3787 1.73254 17.068V13.8253V8.0583V6.08743Z" fill="#AAAAAA"/>
<path d="M19.8177 1C18.5052 1 17.5305 2.12621 17.5305 3.3301C17.5305 4.80583 18.6982 5.57282 19.7308 5.57282C20.9275 5.57282 22.018 4.59224 22.018 3.21359C22.018 2.03884 21.0916 1 19.8177 1Z" fill="#AAAAAA"/>
</g>
<defs>
<clipPath id="clip0">
<rect width="58" height="20" fill="white" transform="translate(0.333252)"/>
</clipPath>
</defs>
</svg>
