<svg width="59" height="20" viewBox="0 0 59 20" fill="none" xmlns="http://www.w3.org/2000/svg">
<g clip-path="url(#clip0)">
<path d="M3.62565 3.64674C4.23119 4.14157 4.46187 4.11247 5.60568 4.03485L16.3901 3.38477C16.6208 3.38477 16.4286 3.15191 16.3517 3.1131L14.5639 1.80325C14.2178 1.53158 13.7661 1.2308 12.8914 1.29872L2.45301 2.06522C2.06854 2.10403 1.99164 2.29808 2.14543 2.45333L3.62565 3.64674ZM4.26964 6.17912V17.6282C4.26964 18.2394 4.57722 18.4723 5.25965 18.4335L17.111 17.7446C17.7934 17.7058 17.8703 17.2789 17.8703 16.784V5.41261C17.8703 4.91778 17.6781 4.64611 17.2648 4.68492L4.88479 5.41261C4.42343 5.45143 4.26964 5.68429 4.26964 6.17912ZM15.9672 6.80008C16.0441 7.14938 15.9672 7.48897 15.6212 7.52778L15.0541 7.64421V16.0952C14.5543 16.3668 14.1025 16.5221 13.718 16.5221C13.1125 16.5221 12.9587 16.328 12.4973 15.7556L8.75835 9.837V15.5615L9.9406 15.8332C9.9406 15.8332 9.9406 16.5221 8.98903 16.5221L6.36501 16.6773C6.28812 16.5221 6.36501 16.1437 6.63414 16.0661L7.31658 15.872V8.30398L6.36501 8.22637C6.28812 7.87707 6.48035 7.38224 7.009 7.34343L9.82525 7.14938L13.7084 13.1456V7.83826L12.7184 7.72183C12.6415 7.29492 12.9491 6.99414 13.3239 6.95533L15.9672 6.80008ZM1.56872 1.03675L12.4301 0.231432C13.7661 0.115001 14.1025 0.192623 14.9483 0.803886L18.4182 3.25864C18.9949 3.68555 19.1775 3.79228 19.1775 4.25801V17.7446C19.1775 18.5887 18.87 19.0933 17.803 19.1709L5.19237 19.9374C4.39459 19.9762 4.01012 19.8598 3.5872 19.3261L1.03046 15.9787C0.569099 15.3675 0.386475 14.9017 0.386475 14.3681V2.3757C0.386475 1.68682 0.694052 1.11437 1.56872 1.03675Z" fill="#AAAAAA"/>
<path d="M29.6063 16.6484H28.2607L24.3775 9.2453V16.6484H23.3586V8.37207H25.0503L28.5971 15.1251V8.37207H29.6159V16.6484H29.6063Z" fill="#AAAAAA"/>
<path d="M36.9401 13.5532C36.9401 14.5622 36.6806 15.3578 36.1712 15.9497C35.6617 16.5319 34.9697 16.8229 34.1046 16.8229C33.2396 16.8229 32.5475 16.5319 32.0285 15.9497C31.519 15.3675 31.2595 14.5622 31.2595 13.5532C31.2595 12.5441 31.519 11.7388 32.0285 11.1566C32.5379 10.5745 33.2299 10.2737 34.1046 10.2737C34.9697 10.2737 35.6521 10.5648 36.1712 11.1566C36.6806 11.7388 36.9401 12.5441 36.9401 13.5532ZM35.8732 13.5532C35.8732 12.7478 35.7194 12.156 35.4022 11.7582C35.0946 11.3701 34.6621 11.176 34.1046 11.176C33.5471 11.176 33.105 11.3701 32.7974 11.7582C32.4898 12.1463 32.336 12.7478 32.336 13.5532C32.336 14.3294 32.4898 14.9212 32.807 15.319C33.1146 15.7168 33.5567 15.9206 34.1142 15.9206C34.6621 15.9206 35.0946 15.7168 35.4118 15.319C35.7194 14.9309 35.8732 14.3391 35.8732 13.5532Z" fill="#AAAAAA"/>
<path d="M41.7363 16.5998C41.5441 16.6483 41.3326 16.6968 41.102 16.7259C40.8713 16.755 40.6694 16.7744 40.4868 16.7744C39.862 16.7744 39.3815 16.5998 39.0547 16.2602C38.7279 15.9206 38.5645 15.3773 38.5645 14.6205V11.3216H37.8628V10.4484H38.5645V8.66309H39.6025V10.4484H41.7363V11.3216H39.6025V14.145C39.6025 14.4749 39.6121 14.7272 39.6217 14.9116C39.641 15.0959 39.689 15.2705 39.7755 15.4258C39.8524 15.5713 39.9678 15.6781 40.1119 15.746C40.2561 15.8139 40.4676 15.8527 40.7559 15.8527C40.929 15.8527 41.102 15.8236 41.2846 15.7751C41.4672 15.7266 41.6018 15.6878 41.6787 15.6489H41.7363V16.5998Z" fill="#AAAAAA"/>
<path d="M44.0913 9.41018H42.9282V8.32349H44.0913V9.41018ZM44.024 16.6483H42.9859V10.4387H44.024V16.6483Z" fill="#AAAAAA"/>
<path d="M51.3192 13.5532C51.3192 14.5622 51.0597 15.3578 50.5503 15.9497C50.0409 16.5319 49.3488 16.8229 48.4838 16.8229C47.6187 16.8229 46.9267 16.5319 46.4076 15.9497C45.8982 15.3675 45.6387 14.5622 45.6387 13.5532C45.6387 12.5441 45.8982 11.7388 46.4076 11.1566C46.917 10.5745 47.6091 10.2737 48.4838 10.2737C49.3488 10.2737 50.0313 10.5648 50.5503 11.1566C51.0597 11.7388 51.3192 12.5441 51.3192 13.5532ZM50.2427 13.5532C50.2427 12.7478 50.0889 12.156 49.7717 11.7582C49.4642 11.3701 49.0316 11.176 48.4742 11.176C47.9167 11.176 47.4745 11.3701 47.1669 11.7582C46.8594 12.1463 46.7056 12.7478 46.7056 13.5532C46.7056 14.3294 46.8594 14.9212 47.1766 15.319C47.4841 15.7168 47.9263 15.9206 48.4838 15.9206C49.0316 15.9206 49.4642 15.7168 49.7814 15.319C50.0889 14.9309 50.2427 14.3391 50.2427 13.5532Z" fill="#AAAAAA"/>
<path d="M58.0571 16.6484H57.019V13.1166C57.019 12.8352 56.9998 12.5636 56.971 12.3113C56.9421 12.059 56.8748 11.865 56.7883 11.7291C56.6922 11.5739 56.5673 11.4575 56.3943 11.3798C56.2212 11.3022 56.0002 11.2634 55.7214 11.2634C55.4427 11.2634 55.1447 11.3313 54.8371 11.4769C54.5296 11.6224 54.2316 11.7971 53.9529 12.0202V16.6581H52.9148V10.4484H53.9529V11.1373C54.2797 10.8656 54.6065 10.6521 54.9525 10.5066C55.2985 10.3514 55.6541 10.2834 56.0194 10.2834C56.6826 10.2834 57.192 10.4872 57.5381 10.885C57.8841 11.2925 58.0571 11.8747 58.0571 12.6315V16.6484Z" fill="#AAAAAA"/>
</g>
<defs>
<clipPath id="clip0">
<rect width="57.931" height="20" fill="white" transform="translate(0.333252)"/>
</clipPath>
</defs>
</svg>
