<svg width="20" height="20" viewBox="0 0 20 20" fill="none" xmlns="http://www.w3.org/2000/svg">
<g clip-path="url(#clip0)">
<path d="M10.0825 -8.9679e-06C7.74014 -0.0111446 5.46823 0.800321 3.66297 2.29286C1.85771 3.7854 0.633677 5.86429 0.204344 8.16697C-0.224989 10.4696 0.167627 12.85 1.31372 14.8928C2.45981 16.9356 4.28664 18.5113 6.4756 19.345C6.39435 18.525 6.31185 17.3775 6.4756 16.47L7.6231 11.47C7.41072 11.0068 7.29889 10.5039 7.29497 9.99437C7.29497 8.60062 8.11497 7.53499 9.0981 7.53499C10.0812 7.53499 10.3275 8.19124 10.3275 8.92874C10.3275 9.66624 9.75372 11.0537 9.50747 12.2894C9.26122 13.525 9.99934 14.0925 10.9825 14.0925C11.9656 14.0925 14.0975 12.2075 14.0975 9.50249C14.0975 6.79749 12.3762 5.40374 9.91622 5.40374C7.45622 5.40374 5.48997 7.61624 5.48997 9.82999C5.48997 10.65 5.8181 11.6331 6.22747 12.125C6.25706 12.1582 6.27958 12.1972 6.29366 12.2394C6.30773 12.2816 6.31307 12.3263 6.30935 12.3706L6.06372 13.5181C5.98247 13.6819 5.89997 13.7637 5.7356 13.6819C4.50622 13.1081 3.6856 11.305 3.6856 9.82937C3.6856 6.71437 5.9806 3.76374 10.325 3.76374C14.6693 3.76374 16.4725 6.22312 16.4725 9.50124C16.4725 12.7794 14.26 15.7312 11.3081 15.7312C10.3243 15.7312 9.3406 15.2394 9.01309 14.5837L8.35685 16.9606C8.11122 17.8625 7.53685 18.9281 7.12747 19.5837C8.49877 19.992 9.94171 20.1012 11.3588 19.9041C12.776 19.7069 14.1343 19.208 15.3421 18.4409C16.5499 17.6738 17.579 16.6565 18.3599 15.4576C19.1409 14.2587 19.6555 12.9063 19.8689 11.4915C20.0824 10.0767 19.9898 8.63262 19.5974 7.2567C19.2049 5.88079 18.5218 4.6051 17.5941 3.51581C16.6665 2.42651 15.5158 1.54897 14.22 0.94244C12.9241 0.335914 11.5132 0.0145291 10.0825 -8.9679e-06Z" fill="#AAAAAA"/>
</g>
<defs>
<clipPath id="clip0">
<rect width="20" height="20" fill="white"/>
</clipPath>
</defs>
</svg>
