<svg width="69" height="20" viewBox="0 0 69 20" fill="none" xmlns="http://www.w3.org/2000/svg">
<g clip-path="url(#clip0)">
<path fill-rule="evenodd" clip-rule="evenodd" d="M25.9044 8.71765C25.9044 6.85947 27.2974 5.56243 29.8318 5.56243C31.3759 5.56243 32.6414 6.0421 33.327 6.51199C33.5088 6.62625 33.5797 6.85112 33.4949 7.04469L32.9367 8.17934C32.8335 8.36456 32.5709 8.34082 32.4366 8.27391C31.9482 8.03325 31.1484 7.62708 30.4226 7.55195C30.2421 7.53317 30.0533 7.52345 29.862 7.52749C29.2142 7.54138 28.6738 7.76006 28.4824 8.24045C28.4438 8.33593 28.4231 8.43121 28.4211 8.52591C28.4043 9.15891 29.309 9.38723 30.4059 9.56938C32.4468 9.90943 33.9892 10.491 33.9892 12.5319C33.9892 14.2652 32.5626 15.8322 29.7933 15.7841C27.9621 15.7483 26.6632 15.1479 25.9667 14.563C25.9432 14.5435 25.678 14.2808 25.8198 13.966C25.9827 13.5596 26.2562 13.0932 26.472 12.8484C26.592 12.6893 26.9083 12.6641 27.072 12.7636C27.6461 13.1103 28.5826 13.6658 29.6786 13.7017L29.9328 13.7033C30.9122 13.6804 31.5047 13.32 31.492 12.7114C31.4812 12.1755 30.7049 11.8629 29.4779 11.6363C27.5059 11.2749 25.9198 10.6436 25.9198 8.71615L25.9044 8.71765ZM43.8315 11.3614C42.441 11.3793 41.1662 11.7488 41.1293 12.8051C41.1293 13.6428 41.8283 14.0547 42.8108 14.0009C43.7523 13.9129 44.4707 13.5157 44.7871 12.9894C44.9046 12.7936 44.9214 12.0636 44.9146 11.7512C44.913 11.6859 44.7779 11.5588 44.7183 11.535C44.4229 11.4144 44.2038 11.3768 43.8313 11.3622L43.8315 11.3614ZM39.2048 7.10678C39.8552 6.54147 41.1349 5.66136 43.1994 5.70786C45.91 5.76252 47.3424 6.99832 47.4758 9.94699C47.5303 11.1657 47.4398 14.5654 47.4164 15.4121C47.4272 15.4699 47.4082 15.5293 47.3656 15.5709C47.3444 15.5915 47.3186 15.6067 47.2902 15.6154C47.2618 15.6241 47.2318 15.626 47.2025 15.6209L45.2505 15.625C45.0114 15.6136 44.9836 15.4986 44.9802 15.3772L44.966 14.8731C44.9635 14.772 44.8654 14.7752 44.8401 14.7915C44.204 15.4442 43.1618 15.7705 42.054 15.7705C40.3705 15.7705 38.6923 14.808 38.6972 12.9017C38.7023 10.9497 40.1263 9.98645 41.6906 9.75962C42.6927 9.61445 43.8221 9.74332 44.6765 10.0737C44.731 10.0948 44.8426 10.0639 44.8443 9.9888C44.8476 9.74012 44.8358 9.26619 44.7856 9.04099C44.6596 8.46838 44.1688 8.00749 43.1366 7.88273C42.9242 7.85697 42.7098 7.85143 42.4963 7.86643C41.6755 7.92917 40.6886 8.55154 40.2791 8.78404C40.1826 8.83862 40.0325 8.79871 39.9837 8.73754C39.7454 8.43754 39.1446 7.56121 39.0984 7.42099C39.0521 7.28078 39.1177 7.16404 39.2016 7.0906L39.2048 7.10678ZM48.3536 10.7316C48.3368 8.00873 50.2887 5.71178 53.4584 5.69058C55.4355 5.67845 56.8722 6.54949 57.1256 6.96062C57.176 7.05688 57.1507 7.13762 57.1146 7.23473C56.8584 7.72039 56.5602 8.18326 56.2234 8.61819C56.0951 8.77797 55.9549 8.64102 55.7938 8.53654C55.3448 8.24534 54.4905 7.88958 53.6506 7.88958C52.1266 7.88958 50.9903 8.90593 51.0038 10.7748C51.0155 12.5693 52.0947 13.5538 53.6555 13.5889C54.4671 13.6085 55.2542 13.155 55.6696 12.7839C55.8021 12.6714 55.9398 12.7268 56.0917 12.8426C56.3896 13.1387 56.8168 13.5955 57.0542 13.9029C57.2095 14.0775 57.0938 14.2489 57.0375 14.3174C56.3946 15.1085 55.1527 15.7733 53.5095 15.7823C50.0689 15.8067 48.3621 13.4543 48.3461 10.7218L48.3536 10.7316ZM64.7689 15.6617C64.9301 15.6502 66.6537 15.4184 67.1833 15.301C67.3142 15.2717 67.3611 15.1648 67.2888 15.058L65.4031 12.3091L63.6114 10.0766C63.5493 9.99493 63.5528 9.91341 63.6198 9.84819L66.8977 6.65384C67.1931 6.34386 67.0152 6.20938 66.7651 6.13667C66.2801 5.99645 65.4964 5.82101 65.0506 5.7288C64.8627 5.69045 64.6361 5.70434 64.4631 5.86745L60.6785 9.5178C60.5525 9.64008 60.4804 9.61302 60.4796 9.43778L60.3983 1.60308C60.395 1.48067 60.244 1.38851 60.1591 1.3846L58.1828 1.38049C58.0578 1.40234 57.9591 1.49593 57.9336 1.61704C57.8329 3.09095 57.9756 13.911 58.036 15.4251C58.0375 15.5309 58.122 15.6181 58.2307 15.6257C58.6646 15.6501 59.7378 15.6486 60.2397 15.6396C60.4863 15.6396 60.5167 15.4708 60.5167 15.4708L60.5536 12.5668C60.5536 12.5668 60.5788 12.438 60.6208 12.4037L61.4952 11.5129C61.5456 11.4656 61.6245 11.4689 61.6748 11.5357C61.9224 11.8603 62.629 12.9159 63.2836 13.8587L64.4861 15.5479C64.5767 15.6735 64.6826 15.6784 64.7631 15.676L64.7689 15.6617Z" fill="#AAAAAA"/>
<path fill-rule="evenodd" clip-rule="evenodd" d="M35.4662 15.6599L37.2772 15.6632C37.3445 15.6673 37.4106 15.6448 37.4612 15.6007C37.4859 15.579 37.506 15.5527 37.5203 15.5232C37.5345 15.4937 37.5426 15.4617 37.544 15.4291C37.6531 13.3067 37.606 3.20198 37.5373 1.60729C37.5315 1.46857 37.4702 1.41718 37.3737 1.40498C36.9373 1.34785 35.6936 1.36174 35.295 1.46211C35.2215 1.47711 35.1687 1.53998 35.1684 1.61296C35.071 5.72557 35.1365 15.2073 35.1575 15.3867C35.1786 15.5662 35.2749 15.6535 35.4655 15.66L35.4662 15.6599Z" fill="#AAAAAA"/>
<path fill-rule="evenodd" clip-rule="evenodd" d="M5.99634 12.6141C5.99634 11.4803 6.87864 10.5676 7.9746 10.5676C9.07055 10.5676 9.95286 11.4803 9.95286 12.6141V17.6515C9.95286 18.7853 9.07055 19.6981 7.9746 19.6981C6.87864 19.6981 5.99634 18.7853 5.99634 17.6515V12.6141Z" fill="#AAAAAA"/>
<path fill-rule="evenodd" clip-rule="evenodd" d="M13.341 14.4807C12.1947 14.4807 11.2717 13.6081 11.2717 12.5242C11.2717 11.4402 12.1946 10.5676 13.341 10.5676H18.4345C19.5808 10.5676 20.5037 11.4402 20.5037 12.5242C20.5037 13.6081 19.5809 14.4807 18.4345 14.4807H13.341Z" fill="#AAAAAA"/>
<path fill-rule="evenodd" clip-rule="evenodd" d="M11.2717 2.17933C11.2717 1.04553 12.154 0.132812 13.25 0.132812C14.3459 0.132812 15.2282 1.04553 15.2282 2.17933V7.21673C15.2282 8.35053 14.3459 9.26325 13.25 9.26325C12.154 9.26325 11.2717 8.35053 11.2717 7.21673V2.17933Z" fill="#AAAAAA"/>
<path fill-rule="evenodd" clip-rule="evenodd" d="M2.79021 9.26326C1.64381 9.26326 0.720947 8.39065 0.720947 7.30674C0.720947 6.22283 1.64381 5.35022 2.79021 5.35022H7.88357C9.02997 5.35022 9.95283 6.22283 9.95283 7.30674C9.95283 8.39065 9.02997 9.26326 7.88357 9.26326H2.79021Z" fill="#AAAAAA"/>
<path fill-rule="evenodd" clip-rule="evenodd" d="M11.2717 17.7416C11.2717 18.8255 12.154 19.6981 13.25 19.6981C14.3459 19.6981 15.2282 18.8255 15.2282 17.7416C15.2282 16.6576 14.3459 15.785 13.25 15.785H11.2717V17.7416Z" fill="#AAAAAA"/>
<path fill-rule="evenodd" clip-rule="evenodd" d="M18.5251 9.26326H16.5469V7.30674C16.5469 6.22283 17.4292 5.35022 18.5251 5.35022C19.6211 5.35022 20.5034 6.22283 20.5034 7.30674C20.5034 8.39065 19.6211 9.26326 18.5251 9.26326Z" fill="#AAAAAA"/>
<path fill-rule="evenodd" clip-rule="evenodd" d="M2.69921 10.5676H4.67747V12.5242C4.67747 13.6081 3.79517 14.4807 2.69921 14.4807C1.60325 14.4807 0.720947 13.6081 0.720947 12.5242C0.720947 11.4402 1.60325 10.5676 2.69921 10.5676Z" fill="#AAAAAA"/>
<path fill-rule="evenodd" clip-rule="evenodd" d="M9.95286 2.08933V4.04586H7.9746C6.87864 4.04586 5.99634 3.17325 5.99634 2.08933C5.99634 1.00542 6.87864 0.132812 7.9746 0.132812C9.07055 0.132812 9.95286 1.00542 9.95286 2.08933Z" fill="#AAAAAA"/>
</g>
<defs>
<clipPath id="clip0">
<rect width="67.8261" height="20" fill="white" transform="translate(0.333252)"/>
</clipPath>
</defs>
</svg>
