<svg width="50" height="20" viewBox="0 0 50 20" fill="none" xmlns="http://www.w3.org/2000/svg">
<path d="M3.48576 7.83711C3.48576 7.31647 3.92663 7.11614 4.65698 7.11614C5.704 7.11614 7.02664 7.4233 8.07376 7.97069V4.83309C6.93024 4.39253 5.80049 4.21896 4.65698 4.21896C1.86 4.21896 0 5.63422 0 7.99745C0 11.6823 5.23551 11.0949 5.23551 12.6837C5.23551 13.2978 4.68449 13.4981 3.91288 13.4981C2.76937 13.4981 1.30888 13.0441 0.151513 12.43V15.6076C1.43288 16.1416 2.728 16.3685 3.91288 16.3685C6.77863 16.3685 8.74888 14.9934 8.74888 12.6035C8.73512 8.62491 3.48576 9.33245 3.48576 7.83711ZM12.7995 1.54876L9.43776 2.24297L9.424 12.9373C9.424 14.9134 10.9534 16.3685 12.9925 16.3685C14.1222 16.3685 14.9489 16.1683 15.4035 15.928V13.2177C14.9627 13.3913 12.7858 14.0054 12.7858 12.0294V7.28972H15.4035V4.44595H12.7858L12.7995 1.54876ZM19.6885 5.43389L19.468 4.44595H16.492V16.1282H19.9365V8.21101C20.7493 7.18298 22.1271 7.36989 22.5542 7.51671V4.44595C22.1134 4.2857 20.5014 3.99196 19.6885 5.43389ZM23.3946 4.44595H26.8529V16.1282H23.3946V4.44595ZM23.3946 3.43125L26.8529 2.71028V0L23.3946 0.707634V3.43115V3.43125ZM34.0449 4.21896C32.6946 4.21896 31.8266 4.83309 31.3445 5.26041L31.1653 4.43262H28.1342V20L31.5786 19.2925L31.5925 15.5141C32.0885 15.8612 32.8186 16.3552 34.0311 16.3552C36.4974 16.3552 38.7431 14.4326 38.7431 10.2003C38.7294 6.32843 36.456 4.21896 34.0449 4.21896ZM33.2182 13.4179C32.4054 13.4179 31.923 13.1376 31.5925 12.7905L31.5786 7.83711C31.9369 7.44996 32.4329 7.18298 33.2182 7.18298C34.472 7.18298 35.34 8.54474 35.34 10.2937C35.34 12.0828 34.4858 13.4179 33.2182 13.4179ZM49.6 10.3338C49.6 6.91591 47.8915 4.21896 44.6262 4.21896C41.347 4.21896 39.363 6.916 39.363 10.3072C39.363 14.3258 41.7054 16.3552 45.067 16.3552C46.7066 16.3552 47.9466 15.9947 48.8835 15.4874V12.8171C47.9467 13.2711 46.872 13.5515 45.508 13.5515C44.1715 13.5515 42.9866 13.0975 42.8351 11.5221H49.5725C49.5725 11.3484 49.6 10.6542 49.6 10.3338ZM42.7938 9.06547C42.7938 7.55679 43.7445 6.92924 44.6125 6.92924C45.4529 6.92924 46.3485 7.55679 46.3485 9.06547H42.7938Z" fill="#AAAAAA"/>
</svg>
