<svg width="57" height="20" viewBox="0 0 57 20" fill="none" xmlns="http://www.w3.org/2000/svg">
<g clip-path="url(#clip0)">
<path fill-rule="evenodd" clip-rule="evenodd" d="M28.4843 4.47004C28.1407 4.06505 28.012 3.56932 28.0983 2.98125C28.1843 2.39477 28.4589 1.89785 28.921 1.49325C29.3834 1.08787 29.9065 0.885772 30.4914 0.885772C31.0759 0.885772 31.5403 1.08827 31.8835 1.49325C32.2275 1.89745 32.3559 2.39437 32.2699 2.98125C32.1835 3.56932 31.9093 4.06505 31.4472 4.47004C30.9844 4.87423 30.4605 5.07712 29.8764 5.07712C29.2915 5.07712 28.8275 4.87463 28.4839 4.47004H28.4843ZM23.821 6.49141C23.1347 6.49141 22.4963 7.05055 22.4016 7.73332L21.7041 12.8187C21.6272 13.3726 21.3617 13.8529 20.9084 14.2603C20.4547 14.6677 19.9435 14.8713 19.3768 14.8713C18.8252 14.8713 18.3782 14.672 18.037 14.2726C17.6947 13.8735 17.5635 13.3889 17.642 12.8187L18.0628 9.73251C18.0755 9.1167 17.6134 8.63484 16.9762 8.63484H15.3079C14.6707 8.63484 14.0747 9.1167 13.9178 9.73251L13.4831 12.8187C13.4046 13.3893 13.1383 13.8735 12.6858 14.2726C12.2333 14.672 11.7312 14.8713 11.1804 14.8713C10.6288 14.8713 10.1786 14.6677 9.82988 14.2603C9.48076 13.8533 9.34484 13.3726 9.42132 12.8187L10.3557 6.07097C10.4548 5.41395 10.0657 4.72761 9.47205 4.44904C9.47205 4.44904 2.43508 1.51584 1.97659 1.32722C1.51216 1.13701 0.985915 1.56339 0.806008 2.2743L0.376055 3.97153C0.195752 4.68244 0.601929 5.49083 1.27757 5.76782L5.99358 7.71985L5.28703 12.8187C5.05006 14.5286 5.45069 15.9916 6.4909 17.205C7.53072 18.4192 8.90181 19.0254 10.605 19.0254C12.177 19.0254 13.6127 18.4964 14.9105 17.4372C15.9471 18.4964 17.2445 19.0254 18.801 19.0254C20.5038 19.0254 22.0429 18.4192 23.4192 17.205C24.795 15.9916 25.6018 14.5286 25.8388 12.8187C25.8388 12.8187 26.5779 7.43771 26.5913 7.34379C26.6555 6.87461 26.1475 6.49181 25.4616 6.49181H23.821V6.49141ZM30.7339 6.43356H29.2598C28.6428 6.43356 28.069 6.93563 27.9838 7.54906C27.9838 7.54906 26.499 18.1513 26.4923 18.2032C26.434 18.6244 26.8905 18.9692 27.5071 18.9692H28.9812C29.5978 18.9692 30.1716 18.4671 30.2564 17.8537L31.7484 7.19955C31.8066 6.77831 31.3501 6.43356 30.7339 6.43356ZM56.0053 7.82724C55.16 6.82983 54.016 6.33092 52.5724 6.33092C51.1284 6.33092 49.7803 6.64715 48.4512 7.79435L49.3923 1.27055C49.4518 0.840994 48.9858 0.489502 48.3573 0.489502H46.8534C46.2237 0.489502 45.6381 1.00148 45.5521 1.62799L43.136 18.2476C43.0766 18.6767 43.5422 19.0286 44.1715 19.0286H45.6753C46.2931 19.0286 46.8673 18.5349 46.9703 17.9242H46.9723L47.7292 12.741C47.8821 11.6937 48.284 10.8995 48.9354 10.3594C49.5865 9.8189 50.297 9.54864 51.0654 9.54864C52.6188 9.54864 53.2461 10.5797 52.9453 12.6411L52.1389 18.2317C52.0794 18.6613 52.5454 19.0128 53.1747 19.0128H54.6778C55.3078 19.0128 55.8927 18.5008 55.9799 17.8743L56.9092 11.8181C57.1517 10.1553 56.8505 8.82465 56.0057 7.82724H56.0053ZM42.0348 9.66435L42.7382 8.7664C43.0361 8.38598 43.0433 7.80069 42.756 7.40046C42.63 7.1837 42.2638 6.97328 41.9294 6.79258L41.8917 6.77197C40.8337 6.19817 39.7939 5.98181 38.4156 6.04918C36.9185 6.12249 35.641 6.56433 34.619 7.36281C33.5887 8.16724 33.0061 9.18605 32.8889 10.3903C32.7696 11.6124 33.1821 12.5246 34.1137 13.102C34.5564 13.3818 34.9609 13.595 35.316 13.736C35.6687 13.8775 36.1878 14.0431 36.8595 14.2294C37.5117 14.4113 38.0087 14.6177 38.3352 14.8408C38.6348 15.0469 38.7687 15.2676 38.7441 15.5157C38.7192 15.7748 38.5852 15.9845 38.3356 16.1561C38.076 16.3344 37.7293 16.4358 37.3061 16.4564C36.1617 16.5123 35.085 16.2452 34.1062 15.6623L33.3798 15.2601C33.2599 15.1946 33.124 15.1638 32.9875 15.1713C32.8766 15.176 32.7679 15.2048 32.6691 15.2555C32.5704 15.3063 32.4838 15.3779 32.4153 15.4654L31.3707 16.8499C31.2637 16.9918 31.2217 17.1618 31.2519 17.3282C31.2808 17.4899 31.3739 17.6294 31.515 17.7237C31.857 17.9932 32.2124 18.2281 32.5722 18.4227C33.0502 18.6848 33.5551 18.8946 34.0781 19.0484C35.0648 19.3401 36.044 19.4645 36.9867 19.4185C38.4077 19.3488 39.6354 18.901 40.6363 18.0871C41.6441 17.268 42.2175 16.2028 42.3431 14.9213C42.4703 13.6207 42.0974 12.6982 41.2343 12.1783C40.7921 11.916 40.4013 11.7218 40.0724 11.6013C39.7455 11.4824 39.1927 11.3144 38.4291 11.1028C37.6746 10.8944 37.1333 10.7034 36.8191 10.5361C36.5425 10.3887 36.426 10.1914 36.4529 9.91519C36.5032 9.39726 37.0354 9.10997 38.0332 9.06162C38.8357 9.022 39.6409 9.20745 40.4223 9.60966C40.5828 9.69803 40.76 9.80384 40.9216 9.90766C41.1226 10.0198 41.2771 10.0646 41.4245 10.0571C41.6417 10.0468 41.8299 9.92589 42.0348 9.66475V9.66435Z" fill="#AAAAAA"/>
</g>
<defs>
<clipPath id="clip0">
<rect width="56.6667" height="20" fill="white" transform="translate(0.333252)"/>
</clipPath>
</defs>
</svg>
