<svg width="307" height="259" viewBox="0 0 307 259" fill="none" xmlns="http://www.w3.org/2000/svg">
<g clip-path="url(#clip0_1453_4941)">
<path d="M69.2409 158.712C69.3656 158.491 69.5484 158.221 69.7602 158.075C69.835 157.971 69.9098 157.866 69.9929 157.766C71.584 155.846 73.1211 153.775 73.7111 151.304C74.3716 148.676 72.9425 146.017 71.3431 144.03C69.3656 141.809 67.1014 139.68 66.1293 136.785C65.3109 134.568 65.772 132.131 66.1002 129.877C66.8937 124.948 66.2166 121.199 62.6313 117.761C62.2658 117.47 61.9002 117.17 61.4681 116.986C60.55 116.541 59.715 117.241 59.9559 118.22C59.9725 118.307 59.9684 118.39 59.9476 118.461C60.9197 122.161 61.6301 125.932 61.9293 129.748C62.3696 133.618 62.3821 137.589 62.6106 141.464C62.9138 146.93 63.4456 152.3 64.5507 157.654C64.6047 157.85 64.667 158.046 64.721 158.241C64.7875 158.35 64.829 158.475 64.8498 158.596C65.1364 159.146 65.3732 159.795 65.9258 160.125C66.1626 160.216 66.2955 160.47 66.5531 160.508C67.9614 160.741 68.5596 159.733 69.2493 158.721L69.2409 158.712ZM69.108 152.292C68.6095 151.634 69.4736 150.913 69.9347 151.617C70.4333 152.275 69.565 153 69.108 152.292ZM65.8053 142.147C65.5062 141.772 64.9661 141.126 65.5768 140.772C66.0961 140.518 66.3204 141.118 66.578 141.447C66.9519 141.893 67.3299 142.214 67.708 142.597C69.3864 144.209 71.2558 146.042 71.314 148.53C71.26 149.046 71.2849 150.08 70.5413 149.992C70.2754 149.938 70.0677 149.655 70.1341 149.38C70.8778 146.238 67.575 144.188 65.8053 142.147Z" fill="#FFD8A0"/>
<path d="M146.99 126.827C146.126 125.482 145.05 124.236 143.795 123.29C143.733 123.253 143.671 123.215 143.608 123.178C143.434 123.073 143.255 122.978 143.077 122.89C143.039 122.869 143.006 122.848 142.969 122.832C141.303 122.032 139.446 121.753 137.614 121.624C136.642 121.619 135.694 121.707 134.805 121.894C132.886 122.503 131.665 123.969 130.85 125.786C130.771 126.202 130.734 126.632 130.759 127.065C131.374 131.656 134.917 134.977 136.862 138.964C139.005 143.172 138.561 146.859 134.095 149.071C131.345 150.784 128.956 153.129 127.784 156.196C127.323 157.667 127.336 159.196 127.003 160.691C126.28 166.066 121.42 170.565 115.961 170.52C114.623 170.461 113.323 170.141 112.056 169.707C112.01 169.707 111.965 169.699 111.911 169.682C111.728 169.624 111.545 169.545 111.366 169.461C111.038 169.336 110.71 169.207 110.386 169.074C108.271 168.095 106.169 166.882 103.805 166.745C103.809 166.745 103.818 166.745 103.822 166.745C103.826 166.745 103.834 166.745 103.839 166.745C103.515 166.732 103.278 166.682 102.979 166.691C102.854 166.703 102.746 166.674 102.659 166.616C102.052 166.657 101.446 166.674 100.831 166.645C91.3007 166.066 84.4792 157.579 81.8162 148.984C80.3705 144.905 78.958 140.801 78.2019 136.531C77.6618 134.464 77.2589 132.36 76.6606 130.31C76.2078 128.352 75.9461 126.352 75.3229 124.432C73.9354 118.915 72.3276 113.416 69.9804 108.221C67.9531 104.179 65.3358 100.392 62.2823 97.0589C57.5837 92.5426 52.1664 88.6929 46.3171 85.839C41.606 83.7725 36.5003 82.7267 31.4112 82.2393C29.7204 82.1226 28.0337 82.0309 26.3969 82.3143C31.6314 83.2767 36.7828 85.0432 41.1615 88.118C44.215 90.3428 46.9195 92.9717 49.6032 95.5882C51.3314 97.5214 52.6816 99.7295 53.9694 101.971C55.4318 104.562 56.5825 107.308 57.5256 110.125C57.7125 110.27 57.833 110.545 57.9535 110.762C58.4769 111.737 59.0502 112.691 59.7025 113.574C60.5707 114.716 61.8004 115.495 62.8141 116.495C62.9637 116.628 63.1008 116.766 63.2462 116.899C63.458 117.078 63.6533 117.266 63.8402 117.453C63.8485 117.47 63.8485 117.486 63.8527 117.503C67.251 121.061 67.9572 124.994 67.1305 130.044C66.7815 132.356 66.3287 134.781 67.3299 137.002C69.4736 141.905 75.0654 144.284 74.9366 150.35C74.6084 153.517 72.6558 156.204 70.695 158.566C69.889 159.766 69.1661 161.008 68.5222 162.291C67.816 164.024 67.7121 165.824 68.2522 167.574C68.7258 168.549 69.2243 169.503 69.7644 170.44C71.9953 173.869 74.6624 177.115 78.0524 179.431C80.383 181.256 82.8465 182.969 85.6175 184.064C88.6543 185.327 91.7784 186.102 94.944 186.927C98.0764 187.477 101.296 187.564 104.47 187.485C108.915 187.306 113.107 185.552 117.116 183.76C120.456 182.244 123.85 180.827 127.02 178.969C131.777 176.094 136.455 172.957 140.368 168.974C141.211 168.157 142.059 167.341 142.89 166.512C142.906 166.462 142.927 166.412 142.956 166.366C143.243 165.945 143.579 165.403 143.849 165.012C144.547 163.774 145.341 162.595 145.843 161.279C146.969 158.346 147.983 155.358 148.502 152.246C149.08 149.171 149.146 146.034 149.175 142.918C149.175 137.597 148.162 132.406 147.09 127.236C147.061 127.102 147.036 126.969 147.007 126.836L146.99 126.827ZM63.2586 102.508C62.4319 101.492 61.7298 100.375 60.8615 99.4004C60.1179 98.7004 59.2829 98.1047 58.5351 97.4089C58.0158 97.3256 57.9119 96.5673 58.4312 96.3881C58.8965 96.2506 59.2746 96.6631 59.5862 96.9464C60.3339 97.6464 61.2313 98.1963 61.8877 98.9837C62.6521 99.9462 63.3542 100.954 64.1144 101.917C64.4925 102.475 63.6574 103.063 63.2586 102.508ZM65.8343 105.454C65.5518 105.454 65.2984 105.267 65.2818 104.971C65.2652 104.7 65.4812 104.417 65.7637 104.417C66.0462 104.417 66.2996 104.604 66.3162 104.9C66.3329 105.171 66.1168 105.454 65.8343 105.454ZM106.431 169.861C106.31 170.124 105.995 170.232 105.741 170.116C104.532 169.407 103.153 169.357 101.786 169.391C99.6717 169.349 97.5031 169.341 95.4924 168.628C94.8485 168.424 95.1476 167.441 95.7998 167.632C98.4171 168.561 101.23 168.212 103.951 168.42C104.528 168.495 106.863 169.036 106.427 169.857L106.431 169.861ZM108.014 171.528C107.295 171.582 107.262 170.478 107.989 170.486C108.911 170.391 108.936 171.715 108.014 171.528ZM138.698 139.918C138.818 137.51 137.082 135.727 136.052 133.714C135.719 133.127 136.604 132.606 136.949 133.193C137.917 135.139 139.583 136.835 139.687 139.101C139.712 139.58 139.919 140.393 139.221 140.435C138.931 140.435 138.71 140.201 138.698 139.918ZM139.786 144.113C139.533 144.218 139.205 144.097 139.109 143.83C138.951 143.484 138.81 142.984 139.263 142.797C139.516 142.693 139.845 142.809 139.94 143.08C140.098 143.426 140.239 143.926 139.786 144.113Z" fill="#F1BC6F"/>
<path d="M173.545 126.352C173.404 126.273 173.279 126.161 173.146 126.069C171.9 125.19 170.404 124.611 169.029 123.994C166.914 123.198 164.696 122.665 162.432 122.665C159.486 122.536 156.425 122.678 153.712 123.852C153.637 123.89 153.558 123.932 153.483 123.969C152.914 124.386 152.382 124.852 151.905 125.39C151.36 126.086 151.032 126.911 150.87 127.777C150.771 132.756 153.737 137.41 156.582 141.305C160.263 145.971 163.678 151.125 164.58 157.129C165.315 161.699 164.862 166.507 163.558 170.928C161.946 176.386 158.61 181.206 154.518 185.098C152.495 187.093 150.118 188.685 147.68 190.122C145.299 191.593 142.948 193.164 140.513 194.534C140.513 194.534 140.513 194.534 140.518 194.534C140.518 194.534 140.522 194.534 140.526 194.53C139.824 194.98 139.18 195.405 138.519 195.884C138.228 196.251 137.871 196.555 137.485 196.817C137.402 196.917 137.294 196.988 137.173 197.022C135.258 198.884 133.218 200.625 131.12 202.279C125.508 206.621 118.948 209.541 112.318 211.945C107.162 213.558 102.218 215.87 96.9381 217.057C93.2075 217.891 89.3564 217.899 85.5718 218.366C80.8856 218.97 76.1663 219.22 71.4552 219.466C68.3145 219.541 65.1779 219.432 62.0331 219.378C60.4087 219.349 58.7885 219.386 57.1683 219.424C55.6769 219.457 54.1813 219.491 52.6857 219.474C51.6928 219.482 50.6999 219.453 49.707 219.424C47.9871 219.374 46.2672 219.32 44.5515 219.482C41.1033 219.949 37.622 220.286 34.2112 220.978C30.5471 221.903 26.9161 223.032 23.3558 224.282C16.2726 227.257 9.87074 231.777 4.62377 237.393C3.70981 238.456 3.01187 239.676 2.33886 240.901C2.25577 241.056 2.17269 241.205 2.0896 241.36C3.55194 240.135 5.12229 239.039 6.71757 238.006C10.2322 235.71 13.9005 233.594 17.8596 232.169C23.0401 230.323 28.2248 228.369 33.6545 227.382C41.498 226.286 49.5076 226.632 57.3926 226.827C64.858 226.982 72.3318 227.307 79.7806 227.744C82.5848 227.927 85.3848 228.057 88.1849 228.14C88.2804 228.094 88.405 228.082 88.5463 228.107C90.449 228.123 92.4389 227.607 94.2793 227.215C96.9174 226.636 99.3477 225.436 101.67 224.082C103.93 222.64 106.024 220.895 108.375 219.611C111.038 218.066 113.954 216.937 116.85 215.945C119.434 215.495 122.217 215.803 124.731 216.424C128.042 217.187 131.162 218.699 134.544 219.136C135.815 219.32 137.144 219.303 138.403 219.028C138.806 218.895 139.205 218.749 139.604 218.611C139.907 218.495 140.306 218.203 140.634 218.216C143.525 216.532 146.338 214.699 149.092 212.837C153.737 209.258 157.987 205.158 161.705 200.638C162.49 199.721 162.881 198.746 163.724 197.863C163.973 197.538 164.202 197.201 164.418 196.863C164.243 196.384 164.908 195.772 165.145 195.388C165.668 194.705 166.079 194.068 166.412 193.318C168.032 189.076 169.021 184.614 169.926 180.173C170.861 175.569 171.742 170.919 172.274 166.253C173.05 159.125 173.362 151.95 173.885 144.797C174.189 138.851 173.927 132.914 173.566 126.986C173.549 126.777 173.536 126.569 173.52 126.356L173.545 126.352ZM31.4486 224.319C31.1661 224.319 30.9168 224.124 30.9002 223.828C30.8836 223.557 31.1079 223.278 31.3904 223.278C31.6729 223.278 31.9222 223.474 31.9388 223.769C31.9554 224.04 31.7311 224.319 31.4486 224.319ZM41.4274 222.928C40.4885 222.969 39.5454 222.953 38.6066 223.036C37.6843 223.186 36.6291 223.269 35.7525 223.474C35.3578 223.594 34.7804 223.84 34.5893 223.294C34.3899 222.395 35.8896 222.445 36.4629 222.282C38.1662 221.99 39.882 221.886 41.6102 221.882C41.8553 221.79 42.1461 221.895 42.2666 222.136C42.5075 222.699 41.901 222.986 41.4232 222.928H41.4274ZM87.3498 226.169C87.0673 226.169 86.8181 225.973 86.8015 225.678C86.7848 225.407 87.0092 225.128 87.2917 225.128C87.5742 225.128 87.8234 225.323 87.84 225.619C87.8567 225.89 87.6323 226.169 87.3498 226.169ZM100.307 222.374C97.8479 223.803 95.2182 225.015 92.4348 225.648C91.7909 225.773 91.1469 225.873 90.503 225.982C90.2288 226.023 89.9505 225.857 89.8965 225.565C89.8466 225.294 90.0294 224.998 90.3119 224.957C91.0514 224.836 91.9155 224.707 92.6134 224.536C95.9328 223.674 99.0693 222.115 101.824 220.082C102.031 219.72 102.588 219.674 102.779 220.078C103.211 220.849 100.835 221.899 100.307 222.378V222.374ZM153.949 205.683C153.666 205.683 153.429 205.45 153.425 205.167C153.425 204.883 153.658 204.642 153.94 204.642C154.223 204.642 154.46 204.875 154.464 205.158C154.464 205.442 154.231 205.683 153.949 205.683ZM161.613 197.209C161.194 198.213 156.807 204.742 155.772 203.688C155.581 203.492 155.565 203.142 155.772 202.95C156.333 202.438 156.915 201.954 157.388 201.446C158.618 200.013 159.732 198.455 160.654 196.805C160.928 196.184 161.875 196.58 161.609 197.209H161.613Z" fill="#FFD8A0"/>
<path d="M216.605 222.52C214.989 220.012 212.584 218.199 209.946 216.899C208.604 216.17 207.091 215.87 205.696 215.258C201.097 213.504 197.258 212.412 193.993 208.437C191.774 205.659 189.863 202.388 189.581 198.767C189.394 195.497 189.593 192.164 189.581 188.902C189.556 185.364 188.692 181.756 186.295 179.086C184.712 177.036 182.352 175.882 180.246 174.474C179.477 173.869 178.721 173.224 178.015 172.532C177.953 172.499 177.895 172.457 177.841 172.411C177.126 171.982 176.337 172.374 175.959 173.053C175.959 173.053 175.963 173.044 175.967 173.04C175.971 173.032 175.975 173.024 175.983 173.019C175.788 173.307 175.651 173.628 175.551 173.961C175.406 177.39 175.281 180.823 175.244 184.256C175.443 190.435 175.979 196.813 178.484 202.513C179.295 204.171 180.08 205.829 181.23 207.283C181.484 207.65 181.733 208.017 181.987 208.383C186.365 212.845 190.91 217.174 195.987 220.828C202.476 224.832 209.306 228.369 216.468 231.002C216.555 230.973 216.651 230.965 216.746 230.982C216.921 231.036 217.095 231.023 217.27 231.011C217.548 231.036 217.893 231.056 218.117 230.94C219.039 230.748 219.471 230.007 219.575 229.132C219.625 228.807 219.617 228.44 219.546 228.115C218.836 226.074 217.914 224.236 216.613 222.52H216.605ZM185.892 196.655C185.393 196.055 186.266 195.347 186.71 195.997C187.204 196.601 186.336 197.305 185.892 196.655ZM186.889 193.405C186.88 194.08 185.854 194.089 185.85 193.405C185.813 191.755 186.432 190.168 186.324 188.518C186.324 187.098 186.074 185.598 185.813 184.26C185.688 183.781 185.672 183.235 185.31 182.873C185.003 182.327 185.755 181.798 186.158 182.273C186.801 182.985 186.777 184.077 187.001 184.973C187.25 186.381 187.391 187.806 187.366 189.235C187.342 190.639 186.847 191.997 186.889 193.405Z" fill="#FFD8A0"/>
<path d="M103.067 166.678C103.041 166.687 103.016 166.687 102.991 166.691C102.999 166.691 103.004 166.691 103.012 166.691C103.033 166.691 103.05 166.682 103.067 166.678Z" fill="#F1BC6F"/>
<path d="M132.454 219.824C132.392 219.807 132.333 219.778 132.284 219.745C127.423 218.466 122.699 216.212 117.569 216.87C114.266 217.787 111.055 219.241 108.101 220.978C106.177 222.161 104.354 223.528 102.493 224.82C102.401 224.899 102.293 224.97 102.177 225.04C101.504 225.503 100.822 225.949 100.129 226.374C99.6343 226.944 99.7506 228.032 100.573 228.186C100.71 228.228 100.885 228.265 101.051 228.311C101.504 228.311 101.961 228.311 102.414 228.311C110.498 227.873 118.557 226.711 126.38 224.611C128.59 223.961 130.738 223.157 132.84 222.236C132.915 222.066 133.077 221.928 133.268 221.857C133.609 221.603 133.8 221.136 133.63 220.732C133.364 220.299 132.878 220.037 132.462 219.832L132.454 219.824Z" fill="#F1BC6F"/>
<path d="M144.273 188.439C144.273 188.439 144.265 188.456 144.265 188.465C144.265 188.46 144.265 188.456 144.269 188.452C144.269 188.452 144.269 188.448 144.273 188.439Z" fill="#F1BC6F"/>
<path d="M151.199 118.895C151.344 118.895 151.51 118.882 151.672 118.895C152.171 118.895 152.665 118.895 153.164 118.895C160.974 118.857 168.772 118.382 176.578 118.278C179.324 118.286 182.07 118.27 184.812 118.253C187.512 118.236 190.216 118.22 192.921 118.232C196.153 118.411 199.381 118.128 202.609 118.016C205.093 117.891 207.594 117.924 210.049 117.532C216.443 116.832 221.511 112.445 225.815 107.979C227.211 106.579 228.474 105.058 229.808 103.6C231.361 102.05 232.898 100.384 233.896 98.4213C233.908 98.2255 234.008 98.0088 234.053 97.7963C234.564 95.659 235.034 93.5009 235.466 91.3635C235.873 89.472 235.831 87.5305 236.043 85.614C236.417 82.0268 236.754 78.4312 237.144 74.844C238.162 61.7784 238.889 48.8128 239.08 35.7347C239.234 31.4267 239.034 27.1354 238.715 22.8399C238.544 19.8193 238.411 16.932 238.075 13.9698C237.493 9.42012 236.438 3.55393 231.444 2.01239C228.665 1.12079 225.815 1.4791 222.97 1.35411C220.174 1.24995 217.369 1.22495 214.569 1.29994C213.601 1.37494 212.633 1.48326 211.674 1.63742C211.499 1.66658 211.333 1.59575 211.221 1.47076C210.801 1.50826 210.378 1.54992 209.958 1.59159C200.885 1.7999 191.799 2.52068 182.722 2.44569C173.379 2.37902 164.044 2.96648 154.701 3.09563C147.455 3.21646 140.231 3.82891 133.036 4.62468C130.406 4.89549 127.755 5.46628 125.408 6.70784C125.159 6.92866 124.968 7.28696 124.685 7.34946C124.444 7.52444 124.174 7.67026 124.025 7.79942C122.567 8.866 121.1 9.92008 119.663 11.0075C118.067 12.3574 116.393 13.624 114.869 15.0572C113.46 16.4821 112.048 17.9986 110.951 19.6401C109.9 21.715 109.497 24.1148 109.185 26.4063C108.246 34.6348 108.911 42.9341 109.094 51.1876C109.389 57.9412 109.206 64.6948 109.16 71.4526C109.177 82.4601 108.595 93.4967 109.273 104.492C109.854 111.845 113.493 114.466 120.091 116.624C122.064 117.161 124.145 117.157 126.144 117.595C126.476 117.732 127.024 117.716 127.398 117.861C129.662 118.166 131.96 118.407 134.245 118.395C138.079 118.72 141.914 118.828 145.756 118.865C145.773 118.87 145.79 118.878 145.806 118.882C146.845 118.845 147.883 118.795 148.914 118.79C149.308 118.84 149.695 118.874 150.081 118.89C150.459 118.89 150.837 118.89 151.215 118.89L151.199 118.895ZM236.342 22.7815C236.06 22.7815 235.831 22.5191 235.84 22.2441C235.848 21.9524 236.093 21.74 236.376 21.74C236.658 21.74 236.887 22.0024 236.878 22.2774C236.87 22.5691 236.625 22.7815 236.342 22.7815ZM235.167 11.4033C236.563 10.72 236.297 14.2739 236.579 15.0572C236.916 16.4279 236.878 17.8319 236.866 19.236C236.874 19.5193 236.6 19.7485 236.33 19.736C236.035 19.7276 235.836 19.4818 235.827 19.1985C235.802 18.2527 235.89 17.1945 235.748 16.2737C235.383 14.8864 235.474 13.4656 235.05 12.1366C234.88 11.9116 234.938 11.5741 235.163 11.4075L235.167 11.4033ZM223.933 82.6934C223.651 82.6934 223.406 82.4851 223.393 82.1934C223.385 81.9185 223.609 81.6518 223.892 81.6518C224.174 81.6518 224.419 81.8601 224.432 82.1518C224.44 82.4267 224.216 82.6934 223.933 82.6934ZM223.979 72.8609C224.124 74.4857 224.378 76.0773 224.336 77.6688C224.203 78.2687 224.673 79.6936 223.829 79.7645C223.551 79.777 223.302 79.5478 223.289 79.2645C223.36 77.0563 223.165 74.9773 222.94 72.8067C223.015 72.1609 223.983 72.2109 223.979 72.865V72.8609ZM219.355 24.9064C219.638 24.9064 219.879 25.1314 219.883 25.4188C219.887 25.698 219.654 25.948 219.372 25.948C219.089 25.948 218.848 25.723 218.844 25.4355C218.84 25.1564 219.073 24.9064 219.355 24.9064ZM218.038 108.487C218.491 107.491 218.774 106.433 219.069 105.383C219.883 102.617 220.041 99.8003 220.203 96.9464C220.423 92.051 220.448 87.1514 220.427 82.2518C220.68 72.1942 220.531 62.1409 220.082 52.0917C220.016 46.4963 219.958 40.8843 219.393 35.318C219.206 33.289 219.712 31.2392 219.339 29.2269C219.231 28.9227 219.339 28.5436 219.683 28.4644C220.921 28.2061 220.419 31.8183 220.439 32.5599C220.381 33.7307 220.381 34.9597 220.485 36.1138C221.009 41.2009 221.05 46.3255 221.096 51.4376C221.52 61.5034 221.74 71.5776 221.461 81.6476C221.47 86.5223 221.474 91.3969 221.262 96.2673C221.121 100.275 220.718 104.312 219.314 108.096C219.06 108.82 218.686 109.491 218.267 110.133C218.105 110.35 217.768 110.379 217.556 110.225C216.962 109.691 217.86 109.033 218.03 108.483L218.038 108.487ZM167.542 116.362C167.18 116.624 166.615 117.091 166.275 116.541C166.134 116.291 166.225 115.978 166.466 115.828C166.516 115.799 166.566 115.766 166.615 115.732C166.906 115.499 167.347 115.249 167.637 115.632C167.804 115.849 167.774 116.203 167.542 116.362ZM173.96 116.512C172.697 116.557 171.572 116.674 170.338 116.711C170.055 116.711 169.823 116.462 169.827 116.182C169.839 115.662 170.392 115.649 170.753 115.662C171.58 115.603 172.44 115.541 173.258 115.516C174.235 115.416 175.219 115.495 176.191 115.42C176.532 115.307 176.931 115.266 177.093 115.653C177.425 116.92 174.671 116.366 173.956 116.516L173.96 116.512ZM193.719 110.687C193.237 111.67 191.708 111.97 190.835 111.366C190.196 110.912 189.888 110.041 190.287 109.329C190.57 108.654 191.247 107.846 192.053 107.987C192.31 108.112 192.576 108.175 192.846 108.271C193.818 108.545 194.092 109.845 193.714 110.687H193.719ZM202.933 109.679C202.646 111.199 201.392 112.82 199.734 112.795C197.175 112.62 196.016 110.333 197.088 108.066C197.549 107.054 198.459 106.029 199.622 105.917C200.386 105.937 201.159 106.133 201.791 106.575C202.626 107.329 203.141 108.55 202.933 109.679ZM205.018 38.5386C205.002 38.8303 204.757 39.0344 204.474 39.0344C204.192 39.0344 203.967 38.7594 203.98 38.4886C203.996 38.197 204.242 37.9928 204.524 37.9928C204.807 37.9928 205.031 38.2678 205.018 38.5386ZM170.948 18.5611C172.041 18.611 173.138 18.5986 174.226 18.6277C183.233 19.3193 192.306 18.9402 201.321 18.9944C202.16 19.0319 202.9 19.1068 203.668 18.786C204.296 18.5569 204.661 19.5235 204.021 19.7651C202.8 20.2817 201.429 19.9734 200.166 20.0151C197.748 20.1068 195.33 20.0401 192.925 20.0859C186.739 19.9984 180.545 20.2359 174.38 19.6776C173.312 19.636 172.245 19.6443 171.177 19.611C170.815 19.6485 170.379 19.486 170.404 19.0527C170.421 18.7694 170.666 18.5444 170.948 18.5569V18.5611ZM203.365 36.8721C203.137 37.0262 202.792 36.9721 202.646 36.7304C201.633 35.2097 199.917 34.4598 198.347 33.6807C196.755 33.1765 195.044 33.1599 193.407 32.9057C193.108 32.8432 192.767 33.0391 192.535 32.7516C192.198 32.3724 192.564 31.8308 193.029 31.8475C194.753 31.985 196.352 32.2016 198.031 32.4933C199.024 32.7474 199.909 33.3015 200.806 33.7807C201.483 34.1848 204.345 36.018 203.373 36.8762L203.365 36.8721ZM137.851 5.87041C138.133 5.87041 138.357 6.14122 138.349 6.41203C138.337 6.70368 138.091 6.91199 137.809 6.91199C137.526 6.91199 137.302 6.64118 137.31 6.37037C137.323 6.07873 137.568 5.87041 137.851 5.87041ZM137.015 19.4402C138.162 19.3235 139.317 19.2818 140.468 19.2318C145.225 18.9235 150.006 18.8235 154.759 18.9027C157.505 18.786 160.255 18.986 162.993 18.7735C163.275 18.736 163.529 18.9819 163.554 19.2485C163.574 19.9401 162.714 19.836 162.241 19.8901C161.019 19.9068 159.794 19.9068 158.573 19.9068C156.587 19.8818 154.613 19.9818 152.636 19.9401C148.918 19.8526 145.22 20.0151 141.519 20.2234C140.044 20.3067 138.569 20.3317 137.099 20.4817C136.82 20.5109 136.559 20.2859 136.538 20.0068C136.513 19.7193 136.729 19.4735 137.011 19.4443L137.015 19.4402ZM123.256 10.8367C123.962 10.3867 124.536 9.57428 125.267 9.19931C126.156 8.74518 126.841 7.99524 127.76 7.5911C129.388 6.62452 131.224 6.12872 133.106 6.0079C133.734 5.94124 134.361 5.94124 134.992 5.91207C135.275 5.89957 135.532 6.09123 135.557 6.38287C135.582 6.65368 135.37 6.93699 135.088 6.94949C134.286 6.96616 133.484 6.99532 132.687 7.09948C129.845 7.2328 127.523 8.90767 125.271 10.4575C124.652 10.9367 124.154 11.7741 123.327 11.8699C122.72 11.8449 122.662 10.9367 123.26 10.8367H123.256ZM126.335 101.896C125.014 101.029 123.929 99.8337 123.127 98.4755C122.712 97.9297 121.383 95.5715 122.554 95.359C123.094 95.334 123.102 95.8382 123.186 96.2256C123.667 97.7755 124.781 99.2504 125.977 100.304C126.272 100.559 126.559 100.825 126.895 101.021C127.465 101.392 126.908 102.258 126.335 101.9V101.896ZM129.081 103.233C128.798 103.233 128.574 102.958 128.586 102.688C128.603 102.396 128.848 102.192 129.13 102.192C129.413 102.192 129.637 102.467 129.625 102.738C129.608 103.029 129.363 103.233 129.081 103.233ZM144.763 103.246C140.459 103.125 136.21 102.442 132.026 101.425C129.733 100.979 127.365 100.059 125.973 98.0755C123.343 94.18 123.776 89.3054 123.555 84.8266C123.481 80.7519 123.451 76.673 123.319 72.5984C123.082 70.561 123.028 68.5904 122.97 66.5864C122.554 63.3491 122.392 60.0036 122.114 56.7955C121.989 55.0206 122.197 53.2458 122.222 51.4667C122.259 48.9044 122.434 46.2505 123.323 43.834C124.112 41.8675 124.864 39.776 126.634 38.4678C131.781 34.6098 138.686 34.9264 144.784 34.6889C146.475 34.4889 148.17 34.6848 149.865 34.6514C151.564 34.6306 153.263 34.5181 154.967 34.5764C159.262 34.8056 163.566 34.5598 167.866 34.5764C170.437 34.7014 173.009 34.5181 175.581 34.5723C178.95 34.7181 182.257 35.0014 185.613 34.8514C188.75 34.8139 191.832 34.5014 194.927 35.0639C198.185 35.3222 199.26 35.9388 201.404 38.4345C203.182 40.3718 203.39 43.1591 203.797 45.638C204.628 49.9794 204.748 54.3915 205.01 58.7911C205.043 61.7659 204.952 64.7407 205.359 67.6988C205.471 69.257 205.193 70.686 205.297 72.2067C205.376 73.4275 205.426 74.6524 205.392 75.8731C205.372 77.0397 205.488 78.2021 205.671 79.3562C205.758 79.9353 205.791 80.5269 205.654 81.1019C205.646 81.1518 205.629 81.206 205.604 81.2518C205.575 81.5268 205.538 81.8018 205.525 82.0809C205.488 82.2976 205.488 82.5934 205.442 82.8559C205.426 83.7516 205.255 84.6724 205.301 85.5557C205.097 87.4763 205.064 89.4845 204.329 91.2969C202.513 95.759 200.403 99.9795 195.015 100.321C188.97 100.625 182.917 100.767 176.897 101.496C166.221 102.608 155.502 103.463 144.763 103.233V103.246Z" fill="#F1BC6F"/>
<path d="M145.112 190.06C145.382 189.98 145.76 189.968 146.018 189.947C154.701 185.164 161.8 177.044 163.429 167.036C164.779 159.191 163.254 152.35 158.693 145.863C157.571 144.338 156.358 142.768 155.199 141.139C155.087 141.072 154.991 140.972 154.942 140.843C154.559 140.422 154.036 140.139 153.508 139.947C152.304 139.859 151.917 140.505 151.672 141.122C151.701 141.618 151.734 142.113 151.776 142.605C152.142 145.792 152.046 148.996 151.963 152.196C152.162 156.254 151.776 160.304 151.232 164.324C151.045 166.349 150.808 168.391 150.492 170.424C150.484 170.694 150.471 170.986 150.368 171.194C149.466 176.652 147.954 182.01 145.154 186.797C144.942 187.189 144.722 187.572 144.497 187.951C144.41 188.114 144.319 188.272 144.273 188.439C143.957 189.335 144.028 189.989 145.112 190.064V190.06ZM153.915 155.004C153.832 154.333 154.85 154.187 154.946 154.862C154.987 155.229 155.012 155.592 155.021 155.958C155.075 157.929 155.432 159.891 155.124 161.862C155.062 162.503 155.008 163.149 154.929 163.791C154.9 164.074 154.626 164.278 154.352 164.245C154.069 164.208 153.87 163.945 153.899 163.662C154.023 162.57 154.136 161.479 154.21 160.395C154.21 158.545 153.994 156.829 153.915 155.008V155.004ZM154.173 166.362C154.921 166.882 154.223 167.895 153.575 167.245C153.014 166.795 153.55 165.953 154.173 166.362Z" fill="#F1BC6F"/>
<path d="M189.456 99.5253C191.986 99.4003 194.599 99.6128 197.038 98.867C200.116 97.9462 201.695 94.834 202.842 92.08C203.228 91.2343 203.635 90.3843 203.801 89.4636C204.142 87.4513 204.229 85.4139 204.366 83.3933C204.37 83.2974 204.375 83.1974 204.375 83.1016C204.341 82.9933 204.337 82.8725 204.366 82.7558C204.366 82.5808 204.366 82.4017 204.366 82.2267C204.362 82.1017 204.358 81.9767 204.358 81.8559C204.358 81.81 204.362 81.7684 204.375 81.7267C204.391 80.856 204.416 79.9935 204.404 79.1478C204.37 78.1728 204.325 77.1812 204.316 76.2147C204.283 76.0855 204.3 75.9564 204.354 75.848C204.354 75.2189 204.366 74.5898 204.345 73.9607C204.279 72.5608 204.163 71.1192 204.308 69.7193C204.433 68.282 204.233 66.8571 204.08 65.4322C203.938 63.8032 203.988 62.17 203.984 60.5409C204.034 58.4161 203.78 56.2996 203.681 54.1831C203.631 51.8875 203.402 49.646 203.012 47.392C202.443 44.1297 202.443 40.4717 199.742 38.2052C198.359 36.4304 196.573 36.3012 194.512 36.0679C190.881 35.4929 187.205 35.9512 183.561 35.9471C181.21 35.9971 178.867 35.7513 176.536 35.6638C173.96 35.5138 171.38 35.7388 168.805 35.6554C164.534 35.5388 160.259 35.8554 155.989 35.6638C154.252 35.5638 152.52 35.6138 150.783 35.6763C149.101 35.7804 147.422 35.5596 145.744 35.6679C139.749 36.0221 133.189 35.4721 127.901 38.826C125.986 39.9967 125.105 42.0591 124.349 44.0756C123.468 46.3671 123.302 48.896 123.26 51.3375C123.256 53.2373 123.003 55.1372 123.169 57.0329C123.472 60.1118 123.547 63.1324 123.979 66.1863C124.083 68.3653 124.12 70.5151 124.361 72.6649C124.503 76.9271 124.507 81.2018 124.619 85.4639C124.851 89.8469 124.324 95.1215 127.718 98.4545C129.247 99.8003 131.233 100.2 133.156 100.613C137.585 101.675 142.146 102.233 146.679 102.242C157.92 102.329 169.108 101.275 180.279 100.138C183.387 99.8128 186.374 99.6544 189.46 99.5211L189.456 99.5253ZM200.465 88.7262C201.238 85.9972 201.508 83.0683 201.446 80.2435C201.325 79.4769 202.41 79.3811 202.501 80.1352C202.609 81.3059 202.169 90.6968 200.457 89.9635C199.9 89.6677 200.291 89.1303 200.469 88.722L200.465 88.7262ZM199.514 91.5718C199.796 91.5718 200.021 91.8426 200.012 92.1134C200 92.405 199.755 92.6133 199.472 92.6133C199.19 92.6133 198.966 92.3425 198.974 92.0717C198.986 91.7801 199.231 91.5718 199.514 91.5718ZM125.304 50.5667C125.022 50.5667 124.797 50.2959 124.806 50.0251C124.818 49.7335 125.063 49.5251 125.346 49.5251C125.628 49.5251 125.853 49.796 125.844 50.0668C125.832 50.3584 125.587 50.5667 125.304 50.5667ZM127.967 42.5674C127.087 43.6839 126.688 45.0172 126.314 46.3504C126.04 46.8754 126.272 48.0711 125.429 47.9961C124.619 47.7545 125.205 46.7004 125.296 46.1379C125.666 44.8255 126.077 43.4506 126.858 42.3257C127.07 42.0007 127.39 41.5716 127.814 41.8466C128.05 42.0049 128.121 42.3257 127.967 42.5674ZM155.378 59.4452C154.181 60.7576 152.997 62.0658 152.021 63.5615C153.093 64.7656 154.144 66.0113 155.033 67.3612C155.374 67.7612 155.494 68.1861 155.012 68.4986C154.069 69.1944 153.193 69.8027 152.445 70.6859C152.283 70.8776 152.1 71.0484 151.834 71.0359C151.277 70.9609 150.999 70.2235 150.646 69.8985C149.724 69.1736 148.984 68.5486 148.203 67.682C148.17 67.6903 148.137 67.6903 148.108 67.6903C148.091 67.7278 148.07 67.7695 148.045 67.8112C147.281 68.8528 146.724 70.0152 145.885 71.0026C145.528 71.3942 145.303 72.1525 144.689 72.1525C143.928 71.8608 143.392 71.2276 142.699 70.8026C142.233 70.511 141.311 70.3443 141.548 69.6027C142.545 67.3987 143.883 65.353 145.374 63.4574C144.651 62.1116 143.621 60.9909 142.753 59.7493C142.4 59.2452 141.519 58.6244 142.121 57.987C143.01 57.1079 144.132 56.5287 145.096 55.7621C145.549 55.5997 145.806 56.0705 145.947 56.4079C146.155 56.7621 146.388 57.0912 146.62 57.4287C147.136 58.1994 147.667 58.9619 148.274 59.666C149.121 58.2911 150.114 57.0995 151.194 55.8955C151.498 55.4497 152 55.7038 152.308 55.9955C152.79 56.3371 153.238 56.7246 153.662 57.137C153.92 57.387 154.165 57.6537 154.439 57.8828C154.913 58.2494 155.789 58.7119 155.378 59.4368V59.4452ZM178.111 72.8733C177.89 72.6399 177.566 72.5816 177.284 72.4525C176.573 72.1775 175.946 71.7359 175.315 71.3151C175.04 71.1359 174.729 71.0984 174.567 70.7943C174.463 70.6068 174.509 70.3818 174.588 70.1943C174.908 69.486 175.294 68.8069 175.651 68.1195C176.428 66.8904 177.06 65.6822 177.803 64.4948C177.18 63.2865 176.515 62.095 175.9 60.8867C175.576 60.0743 175.24 59.3369 174.746 58.6536C174.584 57.8828 175.697 57.6412 176.096 57.2162C176.769 56.7787 177.662 55.6538 178.518 56.0913C179.893 57.2204 180.587 58.8161 181.542 60.2493C182.352 59.1327 183.22 58.0536 183.977 56.8996C184.155 56.6371 184.305 56.2788 184.67 56.2663C185.942 56.6162 187.063 57.4162 188.372 57.6787C189.535 58.4411 187.757 60.0826 187.371 60.9117C186.88 61.8325 186.428 62.7699 185.842 63.6365C185.626 63.9073 185.422 64.4281 185.123 64.6656C185.152 64.7156 185.173 64.7698 185.198 64.8156C185.771 65.8488 186.394 66.7946 186.851 67.882C187.188 68.6111 187.612 69.2944 188.048 69.9652C188.343 70.3401 188.214 70.8651 187.794 71.0817C187.279 71.4025 186.731 71.6942 186.207 71.9983C185.601 72.2483 184.583 73.2232 184.001 72.5858C183.129 71.2984 182.257 70.0443 181.272 68.8528C180.578 69.986 180.022 71.1109 179.307 72.1942C179.07 72.6108 178.663 73.2691 178.119 72.8816L178.111 72.8733Z" fill="#FFD8A0"/>
<path d="M292.227 241.818C289.277 239.189 285.817 237.289 282.398 235.36C278.185 232.994 273.495 231.594 268.85 230.365C265.232 229.436 261.589 228.59 257.92 227.869C255.793 227.527 253.674 227.361 251.593 226.798C246.101 225.573 240.729 223.874 235.491 221.82C229.056 219.274 222.812 216.091 217.195 212.037C213.161 208.983 209.68 205.238 206.335 201.455C203.244 197.622 200.656 193.401 198.247 189.114C196.265 185.589 194.346 182.019 192.805 178.273C190.428 172.199 188.571 165.912 187.242 159.529C186.444 156.092 185.68 152.654 185.285 149.142C184.379 142.022 184.114 134.847 183.727 127.685C183.411 126.981 182.913 126.373 182.236 125.965C181.293 125.269 180.316 124.54 179.17 124.24C177.654 123.74 176.964 123.902 175.934 125.132C174.795 127.148 175.219 129.606 175.132 131.818C175.743 140.114 175.992 148.434 176.199 156.746C176.137 160.395 175.988 164.045 175.826 167.695C176.254 168.632 176.74 169.52 177.4 170.32C178.455 171.532 179.594 172.699 180.89 173.653C182.045 174.423 183.258 175.107 184.396 175.907C187.433 178.077 189.71 181.473 190.275 185.193C191.272 190.58 189.697 196.213 191.188 201.517C192.726 205.571 195.451 209.425 199.31 211.491C204.848 214.433 211.815 215.112 216.065 220.128C217.398 221.72 218.591 223.453 219.55 225.294C219.833 225.932 220.078 226.598 220.323 227.273C220.348 227.302 220.373 227.336 220.394 227.373C220.456 227.532 220.502 227.694 220.539 227.861C221.279 229.873 222.101 231.865 223.896 233.127C223.942 233.16 223.987 233.198 224.025 233.24C227.082 234.01 230.173 234.656 233.285 235.035C237.825 235.781 242.445 235.943 247.011 236.314C251.036 236.718 255.062 237.135 259.096 237.522C261.759 237.818 264.438 237.943 267.068 238.502C271.866 239.418 276.598 240.685 281.164 242.439C284.882 243.734 288.613 245.08 291.994 247.126C295.077 248.917 298.313 250.505 301.068 252.796C302.193 253.642 303.307 254.529 304.345 255.492C301.105 250.317 296.759 245.851 292.231 241.814L292.227 241.818ZM181.588 141.459C181.305 141.459 181.068 141.222 181.068 140.939C181.068 140.655 181.305 140.418 181.588 140.418C181.87 140.418 182.107 140.655 182.107 140.939C182.107 141.222 181.87 141.459 181.588 141.459ZM181.077 138.597C180.803 136.797 181.019 134.968 180.94 133.16C180.844 132.964 180.877 132.718 181.035 132.56C182.348 131.798 181.937 134.218 181.982 134.889C181.995 136.076 181.908 137.276 182.103 138.455C182.19 139.126 181.176 139.272 181.073 138.597H181.077ZM224.108 230.352C222.317 228.986 222.01 226.578 220.95 224.728C220.593 224.094 220.336 223.39 219.883 222.82C219.575 222.628 219.351 222.232 219.633 221.915C220.012 221.524 220.406 221.849 220.676 222.145C222.18 224.161 222.704 226.711 224.029 228.823C224.249 229.106 224.536 229.327 224.797 229.569C225.296 230.023 224.619 230.794 224.108 230.348V230.352ZM226.53 231.915C226.247 231.915 225.998 231.71 225.986 231.419C225.973 231.144 226.197 230.873 226.48 230.873C226.762 230.873 227.012 231.077 227.024 231.369C227.037 231.644 226.812 231.915 226.53 231.915ZM272.274 234.264C270.346 233.631 268.402 233.06 266.416 232.723C265.747 232.819 265.585 231.802 266.254 231.694C266.698 231.631 267.13 231.777 267.563 231.873C269.324 232.323 271.085 232.698 272.764 233.348C273.358 233.673 272.876 234.577 272.274 234.269V234.264ZM274.189 234.931C274.164 234.202 275.58 234.169 275.601 234.894C275.626 235.627 274.21 235.66 274.189 234.931Z" fill="#F1BC6F"/>
<path d="M111.823 168.512C113.738 169.274 115.845 169.699 117.885 169.303C121.291 168.491 124.332 165.949 125.454 162.583C126.459 159.791 126.002 156.6 127.664 154.067C128.997 151.588 131.187 149.671 133.53 148.197C134.402 147.601 135.404 147.159 136.097 146.343C137.265 144.851 137.285 142.793 136.629 141.076C135.57 137.947 133.322 135.481 131.714 132.648C131.636 132.598 131.565 132.531 131.511 132.448C131.116 132.119 130.589 131.985 130.082 132.006C129.683 131.948 129.346 132.256 129.031 132.594C128.694 133.885 128.312 135.16 127.988 136.443C127.805 136.997 127.631 137.497 127.415 138.014C127.373 138.16 127.311 138.318 127.224 138.439C127.099 138.897 126.97 139.356 126.829 139.814C126.118 142.614 125.121 145.343 124.075 148.034C123.489 149.276 122.841 150.384 122.242 151.592C120.398 154.904 118.279 158.129 115.409 160.646C113.975 161.92 112.388 163.087 110.697 164.045C110.635 164.129 110.565 164.212 110.498 164.287C109.95 164.987 109.621 165.924 110.02 166.774C110.382 167.57 111.051 168.141 111.819 168.516L111.823 168.512Z" fill="#FFD8A0"/>
<path d="M201.466 188.335C201.466 188.335 201.504 188.327 201.52 188.318C201.508 188.31 201.5 188.306 201.487 188.297C201.479 188.31 201.471 188.322 201.462 188.331L201.466 188.335Z" fill="#F1BC6F"/>
<path d="M203.224 170.061C201.612 167.12 202.16 163.703 202.268 160.504C202.177 158.5 201.774 156.412 200.764 154.662C199.597 152.65 197.698 151.313 196.136 149.671C192.713 145.413 194.138 139.16 196.946 134.964C197.848 133.843 198.891 132.856 199.925 131.86C200.021 131.706 200.179 131.573 200.353 131.448C201.039 130.785 201.716 130.114 202.339 129.394C203.211 128.49 203.814 127.781 204.071 126.89C203.884 126.561 203.664 126.248 203.427 125.969C203.315 125.848 203.191 125.744 203.062 125.648C203.028 125.627 202.991 125.606 202.958 125.586C202.721 125.44 202.48 125.302 202.235 125.165C201.832 124.977 201.417 124.811 201.039 124.59C199.668 124.019 198.209 123.602 196.73 123.373C196.153 123.307 195.571 123.248 194.986 123.198C194.362 123.173 193.739 123.178 193.12 123.232C190.823 123.428 188.135 123.969 186.793 126.023C186.448 126.606 186.228 127.269 186.041 127.919C186.141 131.019 186.731 134.139 186.814 137.222C187.45 147.505 188.26 158.116 192.834 167.503C194.313 170.745 195.75 173.998 197.507 177.069C199.472 180.398 201.882 183.348 204.728 185.914C207.96 188.822 211.495 191.376 215.247 193.572C215.782 193.897 216.418 193.984 216.966 194.293C217.889 194.697 218.591 195.222 219.467 195.647C220.656 195.967 221.86 196.213 223.082 196.376C229.172 197.58 235.645 197.326 241.328 194.688C241.402 194.663 241.473 194.63 241.548 194.605C241.66 194.493 241.81 194.397 241.947 194.322C242.341 194.009 242.753 193.726 243.085 193.347C243.135 193.314 243.181 193.289 243.23 193.272C243.397 193.059 243.546 192.834 243.687 192.605C244.581 191.01 244.385 189.064 244.784 187.314C245.399 183.456 248.747 181.123 251.813 179.194C254.647 177.406 256.254 174.303 256.616 171.011C257.052 168.995 257.152 167.007 257.713 165.032C258.627 161.82 260.205 158.754 262.37 156.204C263.35 155.175 264.522 154.317 265.614 153.388C265.618 153.383 265.627 153.379 265.631 153.375C266.69 152.479 267.675 151.517 268.348 150.275C268.485 149.992 268.734 149.725 268.734 149.405C268.73 149.305 268.759 149.213 268.809 149.13C268.792 148.742 268.776 148.355 268.751 147.967C268.734 141.03 267.521 134.227 267.18 127.315C266.811 118.886 265.851 110.412 266.728 101.992C267.301 95.9964 269.37 90.2718 273.237 85.6139C274.55 83.9473 275.871 82.2475 277.587 80.9726C278.954 80.006 280.275 78.9269 281.787 78.2061C284.737 76.9354 287.786 75.9022 290.877 75.0356C291.953 74.7523 293.104 74.5606 294.171 74.2315C293.228 74.0898 292.252 74.0606 291.334 73.9773C290.05 73.8607 288.879 74.0606 287.636 74.2731C285.455 74.4648 283.536 75.1522 281.567 76.0188C279.216 76.6729 277.138 77.9812 275.211 79.4477C273.383 80.7184 271.671 82.2433 270.226 83.9015C269.208 85.0931 268.198 86.168 267.467 87.4971C266.694 88.9428 266.05 90.451 265.348 91.9342C263.886 94.9256 263.022 98.1212 262.357 101.358C261.235 106.55 260.675 111.824 260.828 117.128C260.866 122.64 260.629 128.148 260.467 133.66C260.255 139.21 260.018 144.788 258.975 150.255C257.833 155.642 256.196 160.999 253.537 165.837C251.34 169.59 248.714 173.282 244.938 175.569C241.236 177.74 236.795 178.64 232.529 178.481C229.546 178.315 226.85 177.536 224.39 176.277C224.328 176.273 224.261 176.257 224.195 176.223C223.78 176.082 223.422 175.898 223.028 175.802C222.355 175.636 221.752 175.515 221.108 175.344C219.575 175.298 218.047 175.219 216.522 175.327C211.445 175.436 205.808 175.182 203.224 170.045V170.061ZM196.003 131.327C196.485 130.598 197.175 130.064 197.919 129.619C198.434 129.198 199.094 129.96 198.596 130.406C198.459 130.527 198.293 130.614 198.139 130.714C197.171 131.277 196.627 132.268 195.92 133.089C195.75 133.406 195.397 133.681 195.052 133.443C194.296 132.852 195.717 131.864 196.003 131.323V131.327ZM193.469 134.86C193.486 134.564 193.731 134.364 194.014 134.364C194.296 134.364 194.52 134.639 194.508 134.91C194.491 135.206 194.246 135.406 193.964 135.406C193.681 135.406 193.457 135.131 193.469 134.86ZM269.706 86.9721C269.989 86.9721 270.221 87.2262 270.213 87.5054C270.205 87.7929 269.964 88.0137 269.681 88.0137C269.399 88.0137 269.166 87.7595 269.174 87.4804C269.183 87.1929 269.424 86.9721 269.706 86.9721ZM265.377 147.717C265.98 146.292 265.814 144.751 265.544 143.288C265.402 143.043 265.502 142.718 265.747 142.58C266.948 142.034 266.74 145.105 266.831 145.788C266.782 146.942 266.532 148.196 265.664 149.021C265.298 149.371 264.966 150.259 264.351 149.834C263.662 149.155 265.132 148.305 265.386 147.717H265.377ZM262.432 150.35C262.669 150.217 263.009 150.3 263.138 150.554C263.358 150.934 263.67 151.563 263.105 151.796C262.852 151.896 262.523 151.771 262.432 151.5C262.266 151.134 261.946 150.625 262.432 150.35ZM242.383 186.639C242.665 186.639 242.894 186.906 242.881 187.181C242.869 187.472 242.624 187.681 242.341 187.681C242.059 187.681 241.83 187.414 241.843 187.139C241.855 186.847 242.1 186.639 242.383 186.639ZM235.844 193.743C236.122 193.418 236.579 193.443 236.953 193.322C237.834 193.034 238.648 192.618 239.396 192.076C239.845 191.701 240.127 191.172 240.459 190.701C240.783 190.222 240.958 188.993 241.764 189.393C242.042 189.568 242.059 189.955 241.868 190.193C241.44 191.093 240.958 191.984 240.256 192.709C239.504 193.368 238.586 193.822 237.659 194.184C237.31 194.326 236.945 194.409 236.579 194.48C236.388 194.643 236.097 194.651 235.902 194.48C235.686 194.297 235.657 193.959 235.844 193.743Z" fill="#FFD8A0"/>
<path d="M204.545 132.706C204.557 132.514 204.561 132.318 204.574 132.127C204.516 132.035 204.482 131.927 204.478 131.81C204.287 131.373 203.834 131.214 203.39 131.181C202.546 131.173 201.799 131.681 201.142 132.164C201.038 132.243 200.926 132.339 200.81 132.431C200.345 132.881 199.884 133.335 199.443 133.81C198.222 134.956 197.158 136.197 196.597 137.785C195.152 140.647 194.641 144.159 195.837 147.196C196.381 148.521 197.349 149.567 198.459 150.446C199.697 151.529 200.893 152.863 201.728 154.262C205.359 160.549 200.606 166.399 205.662 171.669C208.417 174.323 212.226 174.34 215.899 174.282C215.936 174.282 215.973 174.282 216.007 174.282C216.734 174.165 217.801 174.157 218.017 173.286C218.159 172.807 218.142 172.269 218.017 171.811C217.98 171.694 217.934 171.565 217.905 171.436C217.631 171.161 217.365 170.878 217.099 170.586C214.158 167.416 211.437 163.895 209.85 159.837C207.071 153.804 205.214 147.309 204.628 140.684C204.499 138.026 204.308 135.368 204.545 132.706ZM208.508 169.103C209.189 169.49 208.591 170.482 207.96 169.999C207.278 169.611 207.877 168.62 208.508 169.103ZM204.836 164.483C204.869 164.066 204.96 163.666 205.014 163.253C204.981 162.887 205.247 162.52 205.641 162.591C206.398 162.808 205.92 163.762 205.895 164.303C205.837 164.974 205.816 165.691 205.945 166.345C206.082 166.845 206.373 167.278 206.56 167.757C206.788 168.395 205.828 168.749 205.583 168.107C204.935 166.995 204.707 165.757 204.84 164.478L204.836 164.483Z" fill="#F1BC6F"/>
<path d="M200.889 188.644C200.889 188.644 200.889 188.644 200.885 188.644C200.885 188.644 200.885 188.644 200.889 188.639V188.644Z" fill="#F1BC6F"/>
<path d="M268.489 155.05C268.29 154.588 267.828 154.213 267.342 154.129C266.948 154.163 266.565 154.192 266.183 154.275C265.282 155.042 264.343 155.767 263.508 156.538C261.156 159.041 259.632 162.2 258.676 165.445C258.107 167.666 257.945 169.911 257.472 172.136C257.023 174.915 255.627 177.648 253.342 179.34C251.672 180.715 249.674 181.644 248.145 183.198C245.989 185.185 245.74 187.714 245.382 190.339C245.453 190.472 245.478 190.639 245.445 190.797C245.519 191.231 245.719 191.743 246.234 191.668C246.608 191.651 246.953 191.547 247.289 191.435C250.28 189.497 252.831 186.973 255.286 184.423C261.368 178.04 265.851 170.107 267.716 161.462C268.165 159.708 268.46 157.921 268.639 156.125C268.618 156.079 268.593 156.038 268.58 155.988C268.535 155.658 268.572 155.35 268.489 155.054V155.05Z" fill="#F1BC6F"/>
<path d="M171.185 19.611C172.253 19.6401 173.321 19.636 174.388 19.6776C180.553 20.2359 186.747 19.9984 192.933 20.0859C195.339 20.0401 197.752 20.1068 200.174 20.0151C201.437 19.9776 202.808 20.2817 204.03 19.7651C204.669 19.5235 204.304 18.5569 203.677 18.786C202.912 19.1068 202.169 19.0318 201.329 18.9943C192.314 18.9443 183.241 19.3235 174.234 18.6277C173.142 18.5944 172.045 18.6069 170.957 18.561C170.674 18.5485 170.429 18.7735 170.412 19.0568C170.392 19.4901 170.824 19.6485 171.185 19.6151V19.611Z" fill="black"/>
<path d="M137.099 20.4816C138.569 20.3316 140.044 20.3108 141.519 20.2233C145.22 20.015 148.922 19.8525 152.636 19.94C154.609 19.9817 156.587 19.8817 158.573 19.9067C159.794 19.9067 161.019 19.9067 162.241 19.89C162.714 19.84 163.574 19.94 163.554 19.2484C163.533 18.9776 163.275 18.7318 162.993 18.7734C160.255 18.9817 157.505 18.7859 154.759 18.9026C150.006 18.8276 145.225 18.9234 140.468 19.2317C139.313 19.2776 138.162 19.3234 137.015 19.44C136.733 19.4692 136.517 19.715 136.542 20.0025C136.563 20.2816 136.824 20.5066 137.103 20.4775L137.099 20.4816Z" fill="black"/>
<path d="M218.275 110.137C218.699 109.495 219.073 108.829 219.322 108.1C220.726 104.317 221.133 100.279 221.27 96.2714C221.478 91.3968 221.474 86.5263 221.47 81.6517C221.748 71.5775 221.524 61.5034 221.104 51.4417C221.054 46.3296 221.017 41.205 220.493 36.1179C220.39 34.9638 220.39 33.7348 220.448 32.564C220.423 31.8224 220.93 28.2102 219.692 28.4685C219.347 28.5477 219.239 28.9268 219.347 29.231C219.717 31.2391 219.214 33.2931 219.401 35.3221C219.962 40.8883 220.02 46.5004 220.09 52.0958C220.539 62.145 220.689 72.1983 220.435 82.2558C220.46 87.1555 220.435 92.0551 220.211 96.9505C220.049 99.8003 219.891 102.621 219.077 105.387C218.782 106.437 218.499 107.495 218.047 108.491C217.876 109.037 216.979 109.699 217.573 110.233C217.785 110.387 218.125 110.358 218.283 110.141L218.275 110.137Z" fill="black"/>
<path d="M219.376 25.952C219.658 25.952 219.891 25.702 219.887 25.4229C219.883 25.1354 219.642 24.9104 219.359 24.9104C219.077 24.9104 218.844 25.1604 218.848 25.4395C218.852 25.727 219.093 25.952 219.376 25.952Z" fill="black"/>
<path d="M195.006 100.338C200.395 100 202.505 95.7798 204.321 91.3134C205.056 89.5053 205.089 87.4929 205.293 85.5722C205.247 84.689 205.417 83.7682 205.434 82.8725C205.484 82.61 205.48 82.31 205.517 82.0975C205.534 81.8225 205.567 81.5476 205.596 81.2684C205.617 81.2226 205.633 81.1726 205.646 81.1184C205.783 80.5435 205.754 79.9519 205.662 79.3727C205.484 78.2187 205.367 77.0563 205.384 75.8897C205.417 74.6648 205.367 73.4399 205.289 72.2233C205.185 70.7026 205.463 69.2736 205.351 67.7153C204.944 64.7614 205.031 61.7867 205.002 58.8077C204.74 54.4081 204.62 49.9959 203.789 45.6546C203.382 43.1757 203.174 40.3884 201.396 38.451C199.252 35.9554 198.176 35.3388 194.919 35.0805C191.824 34.518 188.742 34.8305 185.605 34.868C182.244 35.018 178.941 34.7347 175.572 34.5888C173.001 34.5389 170.429 34.718 167.858 34.593C163.562 34.5722 159.258 34.818 154.958 34.593C153.255 34.5347 151.56 34.6472 149.857 34.668C148.162 34.6972 146.467 34.5014 144.776 34.7055C138.677 34.943 131.773 34.6263 126.625 38.4844C124.856 39.7926 124.104 41.8841 123.314 43.8506C122.425 46.2712 122.247 48.9252 122.213 51.4833C122.184 53.2582 121.981 55.033 122.105 56.8121C122.384 60.0201 122.542 63.3657 122.961 66.6029C123.024 68.6069 123.078 70.5818 123.31 72.6149C123.443 76.6896 123.472 80.7685 123.547 84.8431C123.767 89.3178 123.331 94.1965 125.965 98.0921C127.357 100.071 129.725 100.996 132.018 101.442C136.197 102.458 140.451 103.137 144.755 103.262C155.494 103.492 166.212 102.638 176.889 101.525C182.905 100.796 188.958 100.654 195.006 100.35V100.338ZM146.674 102.25C142.142 102.242 137.581 101.683 133.152 100.621C131.228 100.204 129.247 99.8044 127.714 98.4629C124.316 95.134 124.847 89.8594 124.615 85.4722C124.503 81.2101 124.498 76.9354 124.357 72.6733C124.116 70.5235 124.079 68.3736 123.975 66.1946C123.543 63.1407 123.472 60.1201 123.165 57.0412C122.999 55.1455 123.252 53.2457 123.256 51.3458C123.298 48.9085 123.464 46.3796 124.345 44.0839C125.101 42.0674 125.986 40.0051 127.897 38.8343C133.185 35.4804 139.745 36.0304 145.74 35.6763C147.418 35.5638 149.101 35.7888 150.779 35.6846C152.515 35.6221 154.252 35.5721 155.984 35.6721C160.255 35.8596 164.53 35.5471 168.801 35.6638C171.376 35.7471 173.956 35.5221 176.532 35.6721C178.863 35.7596 181.201 36.0054 183.557 35.9554C187.2 35.9554 190.877 35.4971 194.508 36.0762C196.568 36.3054 198.355 36.4387 199.738 38.2136C202.439 40.48 202.439 44.1339 203.008 47.4003C203.398 49.6543 203.627 51.8958 203.677 54.1914C203.776 56.3121 204.034 58.4244 203.98 60.5493C203.98 62.1783 203.934 63.8157 204.075 65.4405C204.229 66.8654 204.424 68.2945 204.304 69.7277C204.159 71.1276 204.275 72.565 204.341 73.969C204.362 74.5981 204.354 75.2272 204.35 75.8564C204.296 75.9689 204.279 76.0938 204.312 76.223C204.321 77.1896 204.366 78.1812 204.399 79.1561C204.416 80.0019 204.387 80.8685 204.37 81.735C204.362 81.7809 204.354 81.8225 204.354 81.8642C204.354 81.9892 204.358 82.1142 204.362 82.235C204.362 82.4142 204.362 82.5891 204.362 82.7641C204.333 82.8766 204.337 83.0016 204.37 83.1099C204.37 83.2058 204.37 83.3058 204.362 83.4016C204.221 85.4181 204.138 87.4554 203.797 89.4719C203.631 90.3927 203.224 91.2426 202.837 92.0884C201.687 94.8423 200.112 97.9546 197.034 98.8753C194.595 99.6211 191.982 99.4086 189.452 99.5336C186.365 99.6669 183.378 99.8253 180.271 100.15C169.1 101.292 157.912 102.346 146.67 102.254L146.674 102.25Z" fill="black"/>
<path d="M199.626 105.917C198.463 106.029 197.557 107.054 197.092 108.066C196.024 110.333 197.179 112.62 199.738 112.795C201.396 112.82 202.65 111.199 202.937 109.679C203.145 108.55 202.63 107.329 201.795 106.575C201.163 106.129 200.386 105.937 199.626 105.917Z" fill="black"/>
<path d="M192.854 108.27C192.584 108.179 192.318 108.112 192.061 107.987C191.251 107.845 190.578 108.654 190.295 109.329C189.896 110.041 190.204 110.912 190.844 111.366C191.716 111.97 193.245 111.666 193.727 110.687C194.105 109.845 193.831 108.545 192.859 108.27H192.854Z" fill="black"/>
<path d="M303.701 252.621C300.984 248.893 297.744 245.56 294.429 242.36C291.882 239.989 289.074 237.939 286.037 236.244C283.1 234.531 280.146 232.79 276.885 231.769C270.848 229.515 264.513 228.194 258.223 226.869C255.565 226.494 252.893 226.14 250.297 225.419C243.276 223.74 236.392 221.374 229.882 218.237C224.378 215.57 218.91 212.566 214.403 208.363C211.645 205.667 208.811 202.921 206.393 199.888C204.636 197.555 203.003 195.101 201.47 192.585C201.479 192.518 201.475 192.447 201.458 192.372C200.943 191.26 200.635 189.035 202.505 189.272C203.34 189.414 204.113 189.781 204.852 190.181C204.939 190.222 205.027 190.26 205.118 190.301C205.725 190.601 206.331 190.897 206.938 191.193C210.76 193.426 214.81 195.447 219.085 196.655C222.246 197.351 225.449 197.98 228.694 198.088C232.977 198.238 237.356 197.634 241.273 195.839C243.01 195.243 244.614 194.372 246.155 193.385C249.08 191.61 251.838 189.527 254.169 187.014C260.371 181.019 265.369 173.594 267.783 165.253C269.615 159.496 270.229 153.434 269.777 147.417C269.797 143.414 269.303 139.431 268.883 135.456C268.468 131.21 268.165 126.961 268.007 122.699C267.417 112.42 266.079 100.338 270.952 90.9136C272.498 88.143 274.442 85.6099 276.573 83.2642C277.973 81.8352 279.793 80.6728 281.467 79.5479C284.309 78.123 287.416 77.2022 290.441 76.2398C291.392 75.9773 292.368 75.8023 293.324 75.5315C294.167 75.244 295.177 75.2066 295.899 74.6399C295.982 74.5733 296.032 74.4816 296.053 74.3816C296.103 74.3233 296.136 74.2608 296.157 74.19C296.377 73.315 294.341 73.2317 293.469 73.1151C290.486 72.6984 287.557 73.1317 284.637 73.7567C283.378 74.0816 282.227 74.7108 281.002 75.1357C279.996 75.4649 278.987 75.8107 278.056 76.3273C273.013 79.377 268.111 83.4101 265.626 88.8888C263.674 92.7801 262.116 96.859 261.339 101.159C260.741 104.433 260.022 107.708 259.906 111.045C259.669 117.724 259.848 124.411 259.499 131.09C259.274 140.243 258.867 149.546 255.727 158.254C253.687 164.116 250.629 169.932 245.669 173.832C243.288 175.69 240.351 176.586 237.422 177.14C232.271 178.14 226.717 176.953 222.408 173.94C218.262 170.845 214.831 166.795 212.168 162.354C209.314 156.654 207.154 150.655 206.144 144.326C205.288 139.697 205.454 134.889 205.679 130.202C205.758 128.377 205.567 126.498 206.198 124.748C206.294 124.507 206.389 124.261 206.485 124.015C206.746 123.461 207.029 122.903 207.345 122.369C208.678 120.69 210.44 119.37 212.446 118.532C213.705 118.024 214.989 117.616 216.148 116.891C216.227 116.857 216.293 116.816 216.351 116.77C221.773 114.033 225.99 109.47 229.978 104.962C232.2 102.625 234.61 100.263 235.561 97.0798C235.632 96.8715 235.578 96.6423 235.42 96.5048C235.557 95.8341 235.686 95.1633 235.864 94.5008C236.816 91.0553 236.882 87.3972 237.269 83.8434C238.174 75.8148 238.777 67.7655 239.184 59.6995C239.649 53.0125 239.894 46.1964 240.056 39.4761C240.131 34.5348 240.339 29.5811 239.849 24.6523C239.25 17.9612 239.969 6.6454 234.207 2.24992C230.95 -0.0915607 226.741 0.458395 222.961 0.325072C221.112 0.266744 219.259 0.220914 217.411 0.22508C217.299 0.0625935 217.095 -0.0207332 216.891 0.00843117C216.281 0.0625935 215.662 0.0834251 215.051 0.141754C213.082 0.250078 211.129 0.47506 209.16 0.595884C200.448 0.754205 191.753 1.48748 183.037 1.42082C177.417 1.33749 171.725 1.54164 166.1 1.78745C161.443 1.92494 156.786 1.97077 152.133 2.14576C144.946 2.33741 137.767 2.97903 130.642 3.91645C129.06 4.14143 127.535 4.61639 126.081 5.27467C125.504 5.48716 124.793 5.71631 124.411 6.24543C124.22 6.35375 124.037 6.53291 123.863 6.65373C120.988 8.63274 118.192 10.8534 115.487 13.0907C113.443 14.9031 111.532 16.9112 110.008 19.1861C108.516 22.2233 108.184 25.7022 107.86 29.0353C107.357 37.6804 107.96 46.3464 108.151 54.9915C108.375 60.6786 108.076 66.3739 108.105 72.061C108.059 79.5895 107.885 87.1139 107.918 94.6383C108.084 99.7171 107.557 105.05 109.439 109.875C110.033 111.258 110.884 112.562 111.948 113.624C113.273 114.662 114.698 115.612 116.252 116.266C117.776 116.903 119.309 117.582 120.934 117.916C122.342 118.095 123.809 118.257 125.25 118.503C125.308 118.557 125.375 118.599 125.45 118.624C126.035 118.724 126.621 118.816 127.207 118.899C127.228 118.903 127.253 118.907 127.277 118.911C127.398 119.053 127.543 119.178 127.647 119.299C127.959 119.715 128.067 120.211 128.1 120.736C128.146 121.524 128.208 122.311 128.266 123.094C128.266 123.178 128.266 123.261 128.258 123.344C128.212 128.648 127.502 133.973 125.965 139.056C124.191 146.072 121.146 152.909 116.293 158.342C114.399 160.304 112.347 161.929 110.203 163.145C110.141 163.166 110.082 163.204 110.024 163.245C103.93 166.628 97.0793 166.645 90.7563 161.308C88.2803 159.316 86.5272 156.625 84.961 153.875C83.5277 151.125 82.6345 148.147 81.5918 145.234C80.4701 142.114 79.7265 138.893 79.041 135.656C78.314 132.548 77.4665 129.473 76.8932 126.332C75.1857 119.74 73.4575 113.095 70.5079 106.933C68.3809 103.133 65.9547 99.4588 62.9594 96.2882C58.7759 92.2468 53.9984 88.793 48.901 86.0015C46.0926 84.435 43.0433 83.3267 39.9026 82.6518C35.7815 81.606 31.4734 80.8686 27.211 81.1769C26.6917 81.3227 24.3569 81.3394 24.0121 82.0768C23.9166 82.1435 23.8418 82.2393 23.8044 82.3643C23.713 82.6643 23.9374 82.9934 24.2406 83.0309C31.49 84.035 38.7103 86.6931 44.0653 91.8635C45.7146 93.2843 47.3722 94.8716 48.9301 96.4382C50.542 98.2839 51.8215 100.375 53.0387 102.496C55.0952 106.158 56.5783 110.145 57.6252 114.212C59.0418 118.899 60.2964 123.673 60.7451 128.565C61.7131 137.952 61.3309 147.509 63.3084 156.8C63.7737 159.566 64.8496 162.191 65.8633 164.799C66.2912 165.891 66.7565 166.97 67.2716 168.028C67.3256 168.182 67.3838 168.337 67.4503 168.491C67.4918 168.562 67.5417 168.616 67.5915 168.657C69.0456 171.515 70.8402 174.19 73.0878 176.486C74.3382 177.873 75.7133 179.127 77.2588 180.177C80.1959 182.535 83.4238 184.539 87.0049 185.756C89.3521 186.539 91.7534 187.198 94.1505 187.835C96.5434 188.377 98.9944 188.477 101.437 188.535C108.45 189.122 114.931 185.931 121.133 183.077C129.143 179.573 136.45 174.482 142.599 168.266C143.845 167.02 145.083 165.753 146.23 164.408C146.471 164.204 146.712 164.012 146.994 163.829C147.48 163.449 147.983 163.012 148.618 162.949C149.491 162.983 149.827 163.537 149.865 164.366C149.956 165.516 149.848 166.708 149.715 167.862C149.553 168.766 149.483 169.707 149.412 170.649C148.477 176.453 146.745 182.135 143.745 187.181C143.617 187.31 143.513 187.498 143.425 187.702C143.023 188.356 142.603 189.006 142.154 189.635C138.349 195.122 133.231 199.555 127.809 203.4C121.852 207.221 115.226 209.971 108.504 212.15C104.15 213.637 99.9292 215.537 95.3635 216.308C92.4181 216.812 89.4228 216.895 86.4565 217.22C81.7953 217.828 77.1092 218.116 72.4189 218.387C68.4806 218.545 64.4924 218.345 60.5415 218.32C55.8471 218.462 51.1485 218.433 46.4499 218.328C44.1941 218.358 41.9673 218.778 39.7364 219.07C35.8022 219.432 31.9678 220.349 28.2205 221.595C25.2086 222.495 22.205 223.432 19.4423 224.961C14.0749 227.657 9.2184 231.244 4.9934 235.514C2.75419 237.51 1.55773 240.306 0.0580042 242.839C-0.0250833 242.981 -0.0292376 243.147 0.0247692 243.289C0.00815173 243.418 0.0413867 243.551 0.112011 243.664C0.232488 243.851 0.45267 243.955 0.672852 243.914C1.12983 243.78 1.37494 243.318 1.73222 243.031C4.40764 240.635 7.51926 238.677 10.6101 236.794C14.0998 234.64 17.9675 233.206 21.8269 231.852C27.9048 229.602 34.2277 227.844 40.7543 227.798C52.3117 227.407 63.8817 228.073 75.435 228.536C82.5307 228.944 89.7302 229.361 96.8674 229.352C98.2342 229.273 99.5387 229.327 100.889 229.352C100.93 229.361 100.972 229.373 101.013 229.386C101.113 229.411 101.217 229.398 101.308 229.361C101.537 229.361 101.761 229.369 101.99 229.369C104.025 229.298 106.065 229.123 108.097 228.953C115.716 228.061 123.426 226.969 130.647 224.274C137.456 221.611 143.745 217.758 149.769 213.641C152.436 211.654 154.867 209.371 157.26 207.071C158.365 205.967 159.474 204.854 160.496 203.667C161.559 202.388 162.831 201.209 163.595 199.717C164.513 198.559 165.423 197.368 166.142 196.059C166.511 195.626 166.786 195.126 167.139 194.676C167.608 194.255 168.152 193.901 168.775 193.764C169.282 193.726 169.777 194.068 170.092 194.443C170.632 195.339 171.031 196.193 171.638 197.084C172.095 197.784 172.585 198.459 173.092 199.122C174.575 201.376 176.208 203.534 177.965 205.588C178.214 205.867 178.468 206.142 178.717 206.417C180.3 208.512 182.007 210.525 184.084 212.141C184.059 212.121 184.03 212.104 184.014 212.079C184.109 212.179 184.217 212.225 184.325 212.233C187.591 215.412 191.035 218.416 194.653 221.174C201.346 225.536 208.554 229.144 216.032 231.965C218.665 232.965 221.395 233.694 224.137 234.323C226.775 234.94 229.404 235.631 232.105 235.944C239.612 237.081 247.218 237.223 254.754 238.156C260.475 238.706 266.146 239.085 271.738 240.602C275.476 241.443 279.053 242.797 282.664 244.072C286.191 245.322 289.601 246.83 292.8 248.793C297.698 251.484 302.521 254.542 306.082 258.921C306.443 259.154 306.879 258.863 306.904 258.488C307.004 258.338 307.025 258.138 306.933 257.971C305.957 256.134 304.894 254.33 303.689 252.63L303.701 252.621ZM201.47 188.335C201.47 188.335 201.487 188.314 201.495 188.302C201.508 188.31 201.516 188.314 201.529 188.322C201.512 188.327 201.491 188.331 201.475 188.339L201.47 188.335ZM267.716 161.462C265.851 170.107 261.368 178.044 255.286 184.423C252.831 186.977 250.28 189.497 247.289 191.435C246.953 191.547 246.608 191.651 246.234 191.668C245.719 191.743 245.519 191.231 245.444 190.797C245.474 190.639 245.453 190.476 245.382 190.339C245.744 187.714 245.993 185.185 248.145 183.198C249.674 181.644 251.668 180.715 253.342 179.34C255.627 177.644 257.023 174.915 257.471 172.136C257.945 169.907 258.111 167.666 258.676 165.445C259.628 162.2 261.156 159.037 263.508 156.538C264.347 155.763 265.282 155.038 266.183 154.275C266.565 154.192 266.948 154.163 267.342 154.129C267.832 154.217 268.289 154.592 268.489 155.05C268.572 155.35 268.534 155.654 268.58 155.983C268.589 156.033 268.613 156.079 268.638 156.121C268.456 157.917 268.161 159.704 267.716 161.458V161.462ZM221.108 175.365C221.748 175.54 222.354 175.657 223.027 175.823C223.422 175.919 223.779 176.103 224.195 176.244C224.261 176.278 224.328 176.294 224.39 176.298C226.85 177.557 229.546 178.336 232.529 178.502C236.795 178.661 241.232 177.761 244.938 175.59C248.714 173.299 251.34 169.607 253.537 165.858C256.196 161.016 257.837 155.663 258.975 150.276C260.018 144.809 260.251 139.231 260.467 133.681C260.629 128.173 260.866 122.661 260.828 117.149C260.674 111.845 261.235 106.571 262.357 101.379C263.022 98.1422 263.89 94.9466 265.348 91.9552C266.05 90.4762 266.698 88.9638 267.467 87.5181C268.202 86.189 269.212 85.1099 270.225 83.9225C271.671 82.2643 273.383 80.7394 275.211 79.4687C277.138 77.998 279.215 76.6939 281.567 76.0398C283.536 75.1691 285.455 74.4858 287.636 74.2941C288.878 74.0775 290.05 73.8817 291.334 73.9983C292.252 74.0816 293.224 74.1108 294.171 74.2525C293.103 74.5816 291.953 74.7732 290.877 75.0566C287.79 75.919 284.737 76.9564 281.787 78.2271C280.275 78.9479 278.954 80.027 277.587 80.9936C275.867 82.2685 274.55 83.9642 273.237 85.6349C269.37 90.2928 267.301 96.0132 266.727 102.013C265.851 110.433 266.81 118.907 267.18 127.336C267.517 134.248 268.73 141.051 268.751 147.988C268.775 148.376 268.792 148.763 268.809 149.151C268.759 149.23 268.726 149.326 268.734 149.426C268.734 149.746 268.48 150.009 268.348 150.296C267.675 151.542 266.69 152.5 265.631 153.396C265.626 153.4 265.618 153.404 265.614 153.409C264.517 154.334 263.35 155.192 262.369 156.225C260.209 158.775 258.63 161.841 257.712 165.053C257.152 167.028 257.052 169.016 256.616 171.032C256.254 174.319 254.646 177.423 251.813 179.215C248.747 181.144 245.395 183.477 244.784 187.335C244.385 189.085 244.58 191.031 243.687 192.626C243.546 192.855 243.396 193.08 243.23 193.293C243.18 193.31 243.135 193.335 243.085 193.368C242.752 193.747 242.341 194.03 241.947 194.343C241.809 194.418 241.664 194.514 241.548 194.626C241.473 194.655 241.402 194.684 241.327 194.709C235.644 197.351 229.172 197.605 223.081 196.397C221.856 196.234 220.651 195.989 219.467 195.668C218.591 195.247 217.889 194.718 216.966 194.314C216.422 194.001 215.782 193.914 215.246 193.593C211.499 191.397 207.96 188.843 204.727 185.935C201.878 183.369 199.472 180.415 197.507 177.09C195.75 174.015 194.312 170.766 192.833 167.524C188.26 158.137 187.449 147.526 186.814 137.243C186.731 134.16 186.141 131.035 186.041 127.94C186.228 127.29 186.448 126.627 186.793 126.044C188.135 123.99 190.823 123.449 193.12 123.253C193.739 123.199 194.362 123.194 194.985 123.219C195.571 123.269 196.153 123.328 196.73 123.394C198.213 123.619 199.667 124.04 201.038 124.611C201.421 124.832 201.836 124.994 202.235 125.186C202.476 125.319 202.717 125.461 202.958 125.607C202.991 125.628 203.028 125.648 203.062 125.669C203.19 125.765 203.315 125.869 203.427 125.99C203.664 126.273 203.884 126.582 204.071 126.911C203.818 127.802 203.211 128.511 202.339 129.415C201.716 130.135 201.038 130.806 200.353 131.469C200.178 131.594 200.021 131.727 199.925 131.881C198.891 132.873 197.848 133.864 196.946 134.985C194.142 139.176 192.713 145.434 196.136 149.692C197.698 151.338 199.597 152.675 200.764 154.683C201.774 156.429 202.177 158.521 202.268 160.525C202.16 163.724 201.612 167.145 203.224 170.082C205.808 175.224 211.445 175.473 216.522 175.365C218.046 175.257 219.575 175.336 221.108 175.382V175.365ZM200.893 188.643C200.893 188.643 200.893 188.643 200.889 188.647C200.889 188.647 200.889 188.647 200.893 188.647V188.643ZM209.85 159.833C211.437 163.891 214.158 167.416 217.099 170.582C217.365 170.87 217.635 171.153 217.905 171.432C217.934 171.561 217.98 171.69 218.017 171.807C218.146 172.265 218.159 172.803 218.017 173.282C217.801 174.149 216.734 174.161 216.007 174.278C215.973 174.278 215.936 174.278 215.899 174.278C212.226 174.336 208.417 174.319 205.662 171.665C200.606 166.395 205.359 160.546 201.728 154.259C200.889 152.859 199.697 151.525 198.458 150.442C197.349 149.563 196.381 148.517 195.837 147.192C194.641 144.155 195.152 140.643 196.597 137.781C197.158 136.189 198.222 134.948 199.443 133.806C199.888 133.331 200.345 132.877 200.81 132.427C200.926 132.339 201.038 132.239 201.142 132.16C201.794 131.673 202.542 131.169 203.39 131.177C203.834 131.215 204.291 131.369 204.478 131.806C204.478 131.919 204.516 132.031 204.574 132.123C204.565 132.314 204.561 132.51 204.545 132.702C204.308 135.364 204.499 138.022 204.628 140.68C205.214 147.301 207.071 153.8 209.85 159.833ZM110.506 164.283C110.573 164.208 110.643 164.129 110.706 164.041C112.401 163.079 113.983 161.916 115.417 160.641C118.287 158.125 120.406 154.9 122.251 151.588C122.849 150.384 123.497 149.276 124.083 148.03C125.13 145.343 126.127 142.614 126.837 139.81C126.974 139.356 127.103 138.897 127.232 138.435C127.323 138.31 127.385 138.156 127.423 138.01C127.639 137.493 127.813 136.993 127.996 136.439C128.32 135.152 128.702 133.877 129.039 132.589C129.355 132.252 129.691 131.944 130.09 132.002C130.597 131.977 131.124 132.114 131.519 132.444C131.569 132.527 131.64 132.594 131.723 132.644C133.33 135.477 135.578 137.943 136.637 141.072C137.294 142.789 137.269 144.847 136.105 146.338C135.408 147.155 134.41 147.601 133.538 148.192C131.191 149.671 129.006 151.584 127.672 154.063C126.01 156.596 126.471 159.787 125.462 162.579C124.34 165.945 121.299 168.487 117.893 169.299C115.853 169.695 113.747 169.266 111.831 168.507C111.063 168.132 110.398 167.562 110.033 166.766C109.634 165.916 109.958 164.979 110.51 164.279L110.506 164.283ZM103.074 166.678C103.074 166.678 103.037 166.687 103.02 166.691C103.012 166.691 103.008 166.691 102.999 166.691C103.024 166.691 103.049 166.687 103.074 166.678ZM66.5529 160.504C66.2954 160.466 66.1583 160.212 65.9256 160.121C65.3689 159.791 65.1363 159.141 64.8496 158.592C64.833 158.471 64.7873 158.346 64.7208 158.237C64.6668 158.042 64.6045 157.846 64.5505 157.65C63.4455 152.296 62.9179 146.926 62.6104 141.46C62.3861 137.585 62.3695 133.614 61.9291 129.744C61.6342 125.927 60.9196 122.157 59.9475 118.457C59.9682 118.386 59.9724 118.307 59.9558 118.216C59.719 117.237 60.554 116.537 61.468 116.982C61.9 117.17 62.2656 117.466 62.6312 117.757C66.2164 121.195 66.8936 124.94 66.1001 129.873C65.7719 132.123 65.3108 134.56 66.1292 136.781C67.1013 139.676 69.3696 141.805 71.3429 144.026C72.9424 146.013 74.3715 148.671 73.7109 151.3C73.1168 153.771 71.5839 155.842 69.9928 157.762C69.9097 157.862 69.8349 157.967 69.7601 158.071C69.5482 158.217 69.3654 158.487 69.2408 158.708C68.5553 159.721 67.9529 160.733 66.5446 160.496L66.5529 160.504ZM148.49 152.242C147.97 155.354 146.957 158.342 145.831 161.275C145.328 162.591 144.535 163.774 143.837 165.008C143.567 165.399 143.23 165.945 142.944 166.362C142.914 166.408 142.894 166.458 142.877 166.508C142.046 167.341 141.199 168.153 140.355 168.97C136.438 172.953 131.764 176.09 127.007 178.965C123.838 180.823 120.443 182.24 117.103 183.756C113.094 185.548 108.903 187.302 104.457 187.481C101.284 187.56 98.068 187.477 94.9315 186.923C91.7658 186.098 88.6417 185.323 85.6049 184.06C82.8381 182.969 80.3745 181.256 78.0398 179.427C74.6498 177.111 71.9827 173.869 69.7518 170.436C69.2159 169.499 68.7132 168.545 68.2396 167.57C67.6995 165.82 67.8034 164.016 68.5096 162.287C69.1536 161.004 69.8764 159.762 70.6824 158.562C72.6432 156.2 74.6 153.509 74.924 150.346C75.0528 144.28 69.461 141.901 67.3173 136.997C66.3203 134.781 66.769 132.352 67.1179 130.04C67.9446 124.99 67.2342 121.053 63.8401 117.499C63.836 117.482 63.836 117.466 63.8277 117.449C63.6449 117.262 63.4455 117.074 63.2336 116.895C63.0923 116.762 62.9552 116.624 62.8015 116.491C61.7879 115.495 60.5623 114.712 59.6899 113.57C59.0377 112.683 58.4644 111.733 57.9409 110.758C57.8163 110.541 57.6958 110.27 57.513 110.12C56.5741 107.3 55.4192 104.558 53.9569 101.967C52.6732 99.7254 51.3188 97.5173 49.5906 95.5841C46.9069 92.9676 44.2024 90.3387 41.1489 88.1138C36.7702 85.0391 31.6188 83.2726 26.3843 82.3101C28.0169 82.0268 29.7078 82.1185 31.3986 82.2352C36.4877 82.7226 41.5934 83.7684 46.3045 85.8349C52.158 88.693 57.5712 92.5385 62.2698 97.0548C65.3274 100.384 67.9446 104.171 69.9678 108.216C72.315 113.408 73.9228 118.907 75.3104 124.428C75.9335 126.344 76.1952 128.348 76.6481 130.306C77.2463 132.36 77.6534 134.46 78.1893 136.527C78.9454 140.797 80.3579 144.901 81.8036 148.98C84.4666 157.575 91.2881 166.066 100.818 166.641C101.433 166.67 102.044 166.658 102.646 166.612C102.733 166.67 102.841 166.699 102.966 166.687C103.265 166.678 103.502 166.728 103.826 166.741C103.822 166.741 103.814 166.741 103.809 166.741C103.805 166.741 103.797 166.741 103.793 166.741C106.161 166.878 108.259 168.091 110.373 169.07C110.697 169.203 111.026 169.332 111.354 169.457C111.532 169.541 111.711 169.62 111.898 169.678C111.948 169.695 111.993 169.699 112.043 169.703C113.306 170.136 114.607 170.457 115.948 170.516C121.411 170.561 126.268 166.066 126.991 160.687C127.323 159.191 127.315 157.662 127.772 156.192C128.943 153.125 131.332 150.78 134.082 149.067C138.548 146.851 138.997 143.168 136.849 138.96C134.901 134.973 131.361 131.656 130.746 127.061C130.721 126.627 130.759 126.202 130.838 125.782C131.652 123.965 132.873 122.499 134.793 121.89C135.678 121.703 136.629 121.615 137.601 121.619C139.433 121.749 141.29 122.028 142.956 122.828C142.993 122.844 143.027 122.865 143.064 122.886C143.243 122.974 143.421 123.074 143.596 123.174C143.658 123.211 143.72 123.249 143.783 123.286C145.033 124.232 146.109 125.478 146.977 126.823C147.007 126.957 147.031 127.09 147.061 127.223C148.128 132.394 149.146 137.589 149.146 142.905C149.113 146.026 149.051 149.159 148.473 152.234L148.49 152.242ZM148.905 118.791C147.875 118.791 146.836 118.845 145.798 118.882C145.781 118.882 145.764 118.874 145.748 118.866C141.909 118.828 138.07 118.72 134.236 118.395C131.951 118.407 129.654 118.17 127.39 117.861C127.016 117.716 126.463 117.732 126.135 117.595C124.137 117.157 122.055 117.162 120.082 116.624C113.485 114.466 109.846 111.845 109.264 104.492C108.591 93.5009 109.169 82.4601 109.152 71.4527C109.198 64.6949 109.38 57.9413 109.085 51.1876C108.903 42.9341 108.238 34.639 109.177 26.4063C109.488 24.1148 109.891 21.715 110.942 19.6402C112.039 17.9945 113.452 16.4779 114.86 15.0572C116.389 13.624 118.059 12.3574 119.654 11.0075C121.092 9.92013 122.558 8.86605 124.016 7.79947C124.166 7.67448 124.432 7.52449 124.677 7.35367C124.959 7.28701 125.15 6.92871 125.4 6.70789C127.747 5.46633 130.397 4.89554 133.027 4.62473C140.222 3.82896 147.447 3.21651 154.692 3.09568C164.035 2.96653 173.37 2.38324 182.713 2.44574C191.791 2.52073 200.876 1.79995 209.949 1.59164C210.369 1.54581 210.793 1.50831 211.212 1.47081C211.325 1.5958 211.495 1.66663 211.665 1.63747C212.625 1.48331 213.593 1.37499 214.561 1.29999C217.357 1.225 220.161 1.25416 222.961 1.35416C225.807 1.47915 228.657 1.11668 231.436 2.01244C236.43 3.55398 237.485 9.42017 238.066 13.9698C238.403 16.9321 238.54 19.8193 238.706 22.8399C239.03 27.1354 239.225 31.4267 239.072 35.7347C238.881 48.8128 238.154 61.7785 237.136 74.8441C236.745 78.4313 236.409 82.0227 236.035 85.6141C235.819 87.5306 235.865 89.4721 235.457 91.3636C235.021 93.5009 234.556 95.6591 234.045 97.7964C233.999 98.0089 233.899 98.2214 233.887 98.4213C232.89 100.384 231.353 102.05 229.799 103.6C228.466 105.058 227.203 106.579 225.807 107.979C221.507 112.445 216.439 116.832 210.041 117.532C207.586 117.924 205.085 117.891 202.6 118.016C199.372 118.128 196.145 118.407 192.912 118.232C190.208 118.224 187.508 118.241 184.803 118.253C182.057 118.27 179.315 118.286 176.569 118.278C168.763 118.382 160.965 118.857 153.155 118.895C152.657 118.895 152.162 118.895 151.664 118.895C151.502 118.882 151.335 118.891 151.19 118.895C150.812 118.895 150.434 118.895 150.056 118.895C149.67 118.878 149.283 118.845 148.889 118.795L148.905 118.791ZM144.281 188.439C144.281 188.439 144.281 188.452 144.277 188.452C144.277 188.456 144.277 188.46 144.273 188.464C144.273 188.456 144.281 188.447 144.281 188.439ZM144.281 188.439C144.327 188.268 144.423 188.11 144.506 187.952C144.73 187.573 144.95 187.185 145.162 186.798C147.962 182.01 149.474 176.653 150.376 171.195C150.48 170.986 150.492 170.695 150.5 170.424C150.816 168.395 151.049 166.353 151.24 164.324C151.78 160.308 152.166 156.258 151.971 152.196C152.054 148.996 152.154 145.797 151.784 142.605C151.743 142.11 151.709 141.618 151.68 141.122C151.925 140.51 152.312 139.86 153.516 139.947C154.044 140.139 154.568 140.422 154.95 140.843C155 140.972 155.095 141.076 155.207 141.139C156.366 142.764 157.584 144.334 158.701 145.863C163.263 152.355 164.783 159.196 163.437 167.037C161.809 177.044 154.709 185.164 146.026 189.947C145.769 189.968 145.391 189.981 145.12 190.06C144.036 189.989 143.966 189.331 144.281 188.435V188.439ZM133.268 221.853C133.081 221.924 132.915 222.061 132.84 222.232C130.738 223.153 128.59 223.961 126.38 224.607C118.562 226.707 110.498 227.873 102.413 228.307C101.961 228.307 101.504 228.307 101.051 228.307C100.885 228.261 100.71 228.228 100.573 228.182C99.7505 228.028 99.6342 226.936 100.129 226.369C100.822 225.944 101.504 225.499 102.177 225.036C102.293 224.969 102.401 224.895 102.492 224.815C104.358 223.524 106.177 222.157 108.101 220.974C111.055 219.237 114.266 217.783 117.569 216.866C122.703 216.204 127.423 218.458 132.283 219.741C132.337 219.774 132.391 219.803 132.454 219.82C132.869 220.024 133.359 220.291 133.621 220.72C133.787 221.124 133.596 221.595 133.26 221.845L133.268 221.853ZM173.914 144.793C173.391 151.942 173.079 159.116 172.303 166.249C171.771 170.916 170.89 175.565 169.955 180.169C169.046 184.61 168.057 189.072 166.441 193.314C166.108 194.064 165.697 194.697 165.174 195.384C164.941 195.768 164.272 196.38 164.447 196.859C164.231 197.201 164.002 197.534 163.753 197.859C162.91 198.742 162.519 199.717 161.734 200.634C158.012 205.159 153.762 209.258 149.121 212.833C146.363 214.695 143.554 216.524 140.663 218.212C140.33 218.195 139.932 218.487 139.633 218.608C139.234 218.745 138.835 218.895 138.432 219.024C137.173 219.299 135.844 219.316 134.573 219.132C131.187 218.695 128.071 217.183 124.76 216.42C122.246 215.799 119.463 215.491 116.879 215.941C113.983 216.937 111.071 218.062 108.404 219.607C106.057 220.891 103.959 222.636 101.699 224.078C99.3766 225.432 96.9463 226.628 94.3083 227.211C92.4679 227.603 90.478 228.119 88.5753 228.103C88.434 228.078 88.3135 228.09 88.2138 228.136C85.4138 228.048 82.6137 227.923 79.8095 227.74C72.3607 227.303 64.887 226.978 57.4216 226.824C49.5366 226.624 41.5228 226.282 33.6835 227.378C28.2537 228.365 23.0691 230.319 17.8886 232.165C13.9253 233.594 10.2611 235.706 6.74655 238.002C5.15127 239.035 3.58091 240.131 2.11857 241.356C2.20166 241.202 2.28475 241.052 2.36784 240.897C3.04085 239.672 3.73878 238.452 4.65274 237.389C9.89972 231.773 16.3016 227.253 23.3848 224.278C26.9451 223.028 30.576 221.899 34.2402 220.974C37.6509 220.282 41.1323 219.945 44.5804 219.478C46.2962 219.316 48.0161 219.37 49.736 219.42C50.7289 219.449 51.7218 219.478 52.7147 219.47C54.2061 219.487 55.7017 219.453 57.1973 219.42C58.8175 219.382 60.4377 219.349 62.062 219.374C65.2028 219.428 68.3435 219.537 71.4842 219.462C76.1994 219.216 80.9188 218.966 85.6007 218.362C89.3854 217.899 93.2365 217.887 96.9671 217.053C102.243 215.866 107.191 213.554 112.347 211.941C118.973 209.537 125.537 206.621 131.149 202.275C133.243 200.621 135.287 198.88 137.202 197.018C137.319 196.984 137.431 196.918 137.514 196.813C137.9 196.551 138.257 196.247 138.548 195.88C139.209 195.401 139.853 194.976 140.555 194.526C140.555 194.526 140.547 194.526 140.547 194.53C140.547 194.53 140.547 194.53 140.542 194.53C142.977 193.164 145.328 191.593 147.709 190.118C150.147 188.681 152.519 187.085 154.547 185.094C158.639 181.202 161.975 176.378 163.587 170.924C164.891 166.503 165.34 161.695 164.609 157.125C163.707 151.117 160.292 145.968 156.611 141.301C153.762 137.406 150.8 132.756 150.899 127.773C151.061 126.911 151.389 126.086 151.934 125.386C152.407 124.848 152.939 124.382 153.512 123.965C153.587 123.928 153.666 123.886 153.741 123.848C156.454 122.674 159.515 122.532 162.461 122.661C164.725 122.661 166.939 123.194 169.058 123.99C170.429 124.607 171.929 125.186 173.175 126.065C173.304 126.157 173.433 126.269 173.574 126.348C173.59 126.557 173.603 126.769 173.619 126.977C173.981 132.906 174.243 138.843 173.939 144.788L173.914 144.793ZM219.571 229.132C219.467 230.007 219.035 230.748 218.113 230.94C217.884 231.057 217.544 231.031 217.265 231.011C217.087 231.023 216.916 231.032 216.742 230.982C216.646 230.965 216.555 230.973 216.464 231.002C209.306 228.369 202.476 224.832 195.982 220.828C190.91 217.174 186.361 212.845 181.982 208.383C181.729 208.017 181.48 207.65 181.226 207.283C180.08 205.834 179.294 204.175 178.48 202.513C175.975 196.813 175.435 190.435 175.24 184.256C175.277 180.823 175.402 177.39 175.547 173.961C175.647 173.628 175.784 173.307 175.979 173.02C175.975 173.028 175.971 173.032 175.963 173.04C175.963 173.04 175.958 173.049 175.954 173.053C176.332 172.374 177.122 171.982 177.836 172.411C177.89 172.457 177.948 172.495 178.011 172.532C178.717 173.224 179.477 173.869 180.242 174.474C182.348 175.882 184.708 177.036 186.29 179.086C188.687 181.756 189.552 185.36 189.576 188.902C189.585 192.164 189.389 195.497 189.576 198.767C189.859 202.384 191.774 205.654 193.988 208.438C197.258 212.412 201.092 213.504 205.691 215.258C207.083 215.87 208.595 216.174 209.941 216.899C212.575 218.199 214.98 220.016 216.601 222.52C217.901 224.232 218.823 226.074 219.534 228.115C219.604 228.444 219.613 228.807 219.563 229.132H219.571ZM301.067 252.796C298.313 250.505 295.077 248.918 291.994 247.126C288.613 245.08 284.882 243.735 281.164 242.439C276.598 240.685 271.866 239.418 267.068 238.502C264.438 237.943 261.755 237.818 259.096 237.523C255.066 237.135 251.04 236.719 247.011 236.314C242.445 235.944 237.825 235.781 233.285 235.035C230.173 234.656 227.082 234.01 224.025 233.24C223.987 233.198 223.941 233.161 223.896 233.127C222.101 231.865 221.283 229.877 220.539 227.861C220.502 227.694 220.456 227.532 220.394 227.373C220.373 227.336 220.348 227.303 220.323 227.273C220.078 226.603 219.833 225.932 219.55 225.294C218.586 223.453 217.398 221.72 216.065 220.128C211.815 215.112 204.848 214.437 199.31 211.491C195.451 209.421 192.73 205.567 191.188 201.517C189.697 196.209 191.271 190.576 190.274 185.194C189.714 181.477 187.433 178.077 184.396 175.907C183.258 175.103 182.049 174.419 180.89 173.653C179.593 172.699 178.455 171.532 177.4 170.32C176.739 169.52 176.253 168.632 175.825 167.695C175.987 164.045 176.137 160.396 176.199 156.746C175.992 148.434 175.742 140.114 175.132 131.819C175.219 129.606 174.795 127.152 175.933 125.132C176.964 123.903 177.653 123.74 179.17 124.24C180.316 124.54 181.293 125.269 182.236 125.965C182.913 126.373 183.411 126.982 183.727 127.686C184.113 134.848 184.379 142.026 185.285 149.142C185.68 152.654 186.444 156.096 187.242 159.529C188.571 165.912 190.424 172.199 192.804 178.273C194.346 182.019 196.265 185.589 198.247 189.114C200.656 193.401 203.244 197.622 206.335 201.455C209.684 205.238 213.165 208.983 217.195 212.037C222.811 216.091 229.055 219.274 235.491 221.82C240.729 223.874 246.101 225.574 251.593 226.799C253.674 227.361 255.793 227.528 257.92 227.869C261.588 228.59 265.228 229.436 268.85 230.365C273.499 231.594 278.185 232.994 282.398 235.36C285.817 237.289 289.281 239.185 292.227 241.818C296.751 245.855 301.101 250.322 304.341 255.496C303.302 254.53 302.189 253.642 301.063 252.801L301.067 252.796Z" fill="black"/>
<path d="M127.818 41.8508C127.39 41.5758 127.074 42.0091 126.862 42.33C126.081 43.459 125.67 44.8298 125.3 46.1421C125.209 46.7046 124.623 47.7545 125.433 48.0003C126.276 48.0753 126.044 46.8796 126.318 46.3546C126.692 45.0214 127.091 43.6882 127.971 42.5716C128.125 42.33 128.054 42.005 127.818 41.8508Z" fill="black"/>
<path d="M125.354 49.5293C125.072 49.5293 124.827 49.7334 124.814 50.0293C124.802 50.3042 125.026 50.5709 125.313 50.5709C125.599 50.5709 125.84 50.3667 125.853 50.0709C125.865 49.7959 125.641 49.5293 125.354 49.5293Z" fill="black"/>
<path d="M154.443 57.8912C154.169 57.662 153.924 57.3912 153.666 57.1454C153.242 56.733 152.79 56.3455 152.312 56.0038C152.004 55.7122 151.498 55.4581 151.198 55.9038C150.123 57.1079 149.13 58.2995 148.278 59.6744C147.676 58.9661 147.144 58.2078 146.625 57.4371C146.392 57.1038 146.159 56.7704 145.952 56.4163C145.81 56.0747 145.549 55.608 145.1 55.7705C144.14 56.533 143.014 57.1163 142.125 57.9953C141.523 58.6328 142.408 59.2536 142.757 59.7577C143.625 60.9993 144.655 62.12 145.378 63.4657C143.887 65.3614 142.549 67.4071 141.552 69.6111C141.315 70.3527 142.233 70.5193 142.703 70.811C143.392 71.236 143.932 71.8692 144.693 72.1609C145.308 72.1609 145.532 71.4026 145.889 71.011C146.728 70.0235 147.281 68.8611 148.049 67.8196C148.079 67.7779 148.099 67.7362 148.112 67.6987C148.141 67.6987 148.174 67.6987 148.207 67.6904C148.988 68.557 149.728 69.1819 150.65 69.9069C151.003 70.2277 151.282 70.9693 151.838 71.0443C152.104 71.0568 152.287 70.886 152.449 70.6943C153.197 69.8111 154.073 69.2028 155.016 68.507C155.498 68.1987 155.378 67.7696 155.037 67.3696C154.148 66.0197 153.097 64.774 152.025 63.5699C153.006 62.0784 154.185 60.766 155.382 59.4536C155.797 58.7245 154.917 58.262 154.443 57.8995V57.8912Z" fill="black"/>
<path d="M184.001 72.5816C184.587 73.219 185.605 72.2441 186.207 71.9941C186.727 71.69 187.279 71.4025 187.794 71.0775C188.214 70.8609 188.347 70.3359 188.048 69.961C187.612 69.2902 187.192 68.6069 186.851 67.8778C186.394 66.7946 185.767 65.8446 185.198 64.8114C185.173 64.7614 185.148 64.7114 185.123 64.6614C185.422 64.4239 185.626 63.9031 185.842 63.6323C186.432 62.7657 186.885 61.8283 187.371 60.9075C187.753 60.0784 189.535 58.4369 188.372 57.6745C187.063 57.4078 185.937 56.6079 184.67 56.2621C184.305 56.2746 184.151 56.6329 183.977 56.8954C183.22 58.0494 182.352 59.1285 181.542 60.2451C180.591 58.8077 179.897 57.2162 178.518 56.0871C177.658 55.6538 176.769 56.7745 176.096 57.212C175.697 57.6411 174.583 57.8786 174.745 58.6494C175.24 59.3327 175.576 60.0701 175.9 60.8825C176.515 62.0949 177.18 63.2823 177.803 64.4906C177.059 65.678 176.432 66.8862 175.651 68.1153C175.294 68.8027 174.908 69.4818 174.588 70.1901C174.513 70.3776 174.467 70.6026 174.567 70.7901C174.729 71.0942 175.04 71.1317 175.315 71.3109C175.946 71.7317 176.569 72.1733 177.284 72.4483C177.566 72.5774 177.89 72.6357 178.111 72.8691C178.655 73.2565 179.062 72.5983 179.299 72.1816C180.013 71.0984 180.57 69.9735 181.264 68.8402C182.248 70.0318 183.125 71.29 183.993 72.5733L184.001 72.5816Z" fill="black"/>
<path d="M200.457 89.9678C202.168 90.697 202.609 81.3102 202.501 80.1395C202.409 79.3812 201.325 79.4812 201.446 80.2478C201.508 83.0726 201.242 86.0015 200.465 88.7304C200.287 89.1387 199.9 89.6762 200.453 89.972L200.457 89.9678Z" fill="black"/>
<path d="M199.472 92.6175C199.755 92.6175 200 92.4134 200.012 92.1176C200.025 91.8426 199.8 91.5759 199.514 91.5759C199.227 91.5759 198.986 91.7801 198.974 92.0759C198.961 92.3509 199.186 92.6175 199.472 92.6175Z" fill="black"/>
<path d="M198.027 32.4933C196.348 32.1975 194.749 31.985 193.025 31.8475C192.559 31.8309 192.198 32.3725 192.53 32.7516C192.763 33.0391 193.108 32.8433 193.403 32.9058C195.04 33.1599 196.751 33.1808 198.342 33.6807C199.908 34.4598 201.628 35.2098 202.642 36.7305C202.792 36.9721 203.136 37.0221 203.361 36.8721C204.333 36.0139 201.475 34.1807 200.793 33.7766C199.896 33.2974 199.011 32.7433 198.018 32.4892L198.027 32.4933Z" fill="black"/>
<path d="M203.984 38.4885C203.972 38.7634 204.196 39.0343 204.478 39.0343C204.761 39.0343 205.01 38.8343 205.023 38.5385C205.035 38.2635 204.811 37.9927 204.528 37.9927C204.246 37.9927 203.996 38.1927 203.984 38.4885Z" fill="black"/>
<path d="M126.891 101.021C126.555 100.825 126.268 100.559 125.973 100.304C124.777 99.2504 123.663 97.7713 123.181 96.2256C123.098 95.8423 123.09 95.334 122.55 95.359C121.378 95.5715 122.712 97.9297 123.123 98.4755C123.925 99.8337 125.009 101.029 126.33 101.896C126.904 102.254 127.456 101.392 126.891 101.017V101.021Z" fill="black"/>
<path d="M129.13 102.192C128.848 102.192 128.599 102.392 128.586 102.688C128.574 102.963 128.798 103.233 129.081 103.233C129.363 103.233 129.612 103.033 129.625 102.738C129.637 102.463 129.413 102.192 129.13 102.192Z" fill="black"/>
<path d="M123.318 11.874C124.145 11.7823 124.648 10.9449 125.263 10.4616C127.519 8.9117 129.841 7.23683 132.678 7.10351C133.472 6.99935 134.278 6.97019 135.079 6.95352C135.362 6.94102 135.574 6.65771 135.549 6.3869C135.524 6.09526 135.266 5.90361 134.984 5.9161C134.352 5.9411 133.725 5.94527 133.098 6.01193C131.216 6.13275 129.38 6.62855 127.751 7.59514C126.837 7.99927 126.148 8.75338 125.259 9.20334C124.527 9.57831 123.954 10.3907 123.248 10.8407C122.645 10.9407 122.704 11.849 123.314 11.874H123.318Z" fill="black"/>
<path d="M137.805 6.91194C138.087 6.91194 138.332 6.70779 138.345 6.41198C138.357 6.13701 138.133 5.87036 137.846 5.87036C137.56 5.87036 137.319 6.07451 137.306 6.37032C137.294 6.6453 137.518 6.91194 137.805 6.91194Z" fill="black"/>
<path d="M235.752 16.2694C235.894 17.1902 235.806 18.2484 235.831 19.1942C235.84 19.4775 236.039 19.7233 236.334 19.7316C236.604 19.74 236.878 19.515 236.87 19.2317C236.878 17.8318 236.92 16.4277 236.583 15.0529C236.297 14.2737 236.563 10.7199 235.171 11.399C234.947 11.5615 234.888 11.9031 235.059 12.1281C235.482 13.4571 235.387 14.882 235.757 16.2653L235.752 16.2694Z" fill="black"/>
<path d="M236.38 21.74C236.097 21.74 235.852 21.9525 235.844 22.2441C235.836 22.5191 236.06 22.7816 236.347 22.7816C236.633 22.7816 236.874 22.5691 236.882 22.2774C236.891 22.0025 236.666 21.74 236.38 21.74Z" fill="black"/>
<path d="M176.199 115.42C175.227 115.499 174.243 115.42 173.266 115.516C172.444 115.541 171.588 115.603 170.761 115.662C170.4 115.649 169.843 115.662 169.835 116.182C169.835 116.461 170.063 116.711 170.346 116.711C171.58 116.678 172.706 116.557 173.969 116.511C174.683 116.361 177.437 116.92 177.105 115.649C176.943 115.262 176.544 115.303 176.204 115.416L176.199 115.42Z" fill="black"/>
<path d="M166.624 115.736C166.574 115.77 166.524 115.803 166.474 115.832C166.233 115.982 166.138 116.295 166.283 116.545C166.624 117.095 167.189 116.628 167.55 116.366C167.783 116.207 167.812 115.853 167.646 115.636C167.359 115.257 166.919 115.503 166.624 115.736Z" fill="black"/>
<path d="M223.294 79.2644C223.302 79.5477 223.551 79.7768 223.834 79.7643C224.677 79.6977 224.208 78.2686 224.34 77.6686C224.382 76.0813 224.129 74.4897 223.983 72.8607C223.987 72.2108 223.019 72.1566 222.945 72.8024C223.169 74.973 223.368 77.0562 223.294 79.2602V79.2644Z" fill="black"/>
<path d="M223.892 81.6519C223.609 81.6519 223.385 81.9185 223.393 82.1935C223.406 82.4851 223.651 82.6934 223.933 82.6934C224.216 82.6934 224.44 82.4268 224.432 82.1518C224.419 81.8602 224.174 81.6519 223.892 81.6519Z" fill="black"/>
<path d="M61.8877 98.9838C61.2313 98.1922 60.334 97.6423 59.5862 96.9465C59.2746 96.6632 58.8966 96.2465 58.4313 96.3882C57.9161 96.5673 58.0158 97.3256 58.5351 97.4089C59.2829 98.1047 60.1138 98.7005 60.8616 99.4004C61.7298 100.38 62.4319 101.496 63.2587 102.509C63.6575 103.063 64.4925 102.475 64.1145 101.917C63.3501 100.954 62.6521 99.9462 61.8877 98.9838Z" fill="black"/>
<path d="M65.7679 104.412C65.4854 104.412 65.2653 104.696 65.286 104.966C65.3026 105.262 65.5519 105.45 65.8386 105.45C66.1252 105.45 66.3412 105.166 66.3205 104.896C66.3038 104.6 66.0546 104.412 65.7679 104.412Z" fill="black"/>
<path d="M70.13 149.38C70.0635 149.655 70.2713 149.938 70.5371 149.992C71.2808 150.08 71.2558 149.051 71.3099 148.53C71.2517 146.042 69.3822 144.209 67.7039 142.597C67.3258 142.209 66.9436 141.889 66.5739 141.447C66.3163 141.118 66.092 140.518 65.5727 140.772C64.962 141.122 65.5062 141.768 65.8012 142.147C67.5709 144.188 70.8736 146.234 70.13 149.38Z" fill="black"/>
<path d="M69.1039 152.292C69.5609 153 70.4291 152.275 69.9306 151.617C69.4695 150.913 68.6054 151.634 69.1039 152.292Z" fill="black"/>
<path d="M103.955 168.42C101.234 168.207 98.4172 168.561 95.8041 167.632C95.1518 167.441 94.8527 168.424 95.4966 168.628C97.5073 169.34 99.6759 169.349 101.791 169.39C103.153 169.357 104.537 169.407 105.745 170.115C105.999 170.232 106.315 170.124 106.435 169.861C106.871 169.041 104.532 168.499 103.959 168.424L103.955 168.42Z" fill="black"/>
<path d="M107.989 170.486C107.266 170.478 107.295 171.582 108.014 171.528C108.936 171.715 108.911 170.39 107.989 170.486Z" fill="black"/>
<path d="M139.691 139.101C139.591 136.835 137.921 135.139 136.953 133.193C136.604 132.606 135.719 133.127 136.056 133.714C137.086 135.727 138.823 137.51 138.702 139.918C138.715 140.201 138.935 140.439 139.226 140.434C139.924 140.393 139.716 139.576 139.691 139.101Z" fill="black"/>
<path d="M139.267 142.797C138.814 142.984 138.96 143.484 139.113 143.83C139.209 144.097 139.541 144.217 139.791 144.113C140.243 143.926 140.098 143.426 139.944 143.08C139.849 142.813 139.516 142.693 139.267 142.797Z" fill="black"/>
<path d="M154.352 164.241C154.626 164.279 154.9 164.074 154.929 163.787C155.004 163.145 155.062 162.504 155.124 161.858C155.428 159.891 155.07 157.925 155.021 155.954C155.012 155.588 154.983 155.225 154.946 154.858C154.85 154.184 153.832 154.329 153.915 155C153.994 156.821 154.215 158.542 154.21 160.387C154.136 161.47 154.023 162.562 153.899 163.654C153.87 163.937 154.065 164.199 154.352 164.237V164.241Z" fill="black"/>
<path d="M153.575 167.249C154.223 167.895 154.921 166.882 154.173 166.366C153.55 165.962 153.014 166.799 153.575 167.249Z" fill="black"/>
<path d="M160.654 196.801C159.732 198.451 158.622 200.009 157.389 201.442C156.915 201.946 156.333 202.434 155.772 202.946C155.565 203.138 155.577 203.488 155.772 203.684C156.807 204.738 161.19 198.209 161.614 197.205C161.875 196.576 160.932 196.18 160.658 196.801H160.654Z" fill="black"/>
<path d="M153.945 204.638C153.662 204.638 153.425 204.879 153.429 205.163C153.429 205.446 153.67 205.679 153.953 205.679C154.235 205.679 154.472 205.438 154.468 205.154C154.468 204.871 154.227 204.638 153.945 204.638Z" fill="black"/>
<path d="M101.824 220.074C99.0693 222.107 95.9328 223.665 92.6134 224.528C91.9155 224.699 91.0514 224.828 90.3119 224.949C90.0336 224.99 89.8466 225.286 89.8965 225.557C89.9505 225.844 90.2288 226.015 90.503 225.974C91.1469 225.869 91.795 225.765 92.4348 225.64C95.2182 225.011 97.8438 223.799 100.307 222.366C100.835 221.886 103.211 220.836 102.779 220.066C102.588 219.662 102.027 219.707 101.824 220.07V220.074Z" fill="black"/>
<path d="M87.2917 225.128C87.0092 225.128 86.7891 225.407 86.8015 225.678C86.8181 225.973 87.0674 226.169 87.3499 226.169C87.6324 226.169 87.8526 225.89 87.8401 225.619C87.8235 225.324 87.5742 225.128 87.2917 225.128Z" fill="black"/>
<path d="M41.6185 221.882C39.8903 221.89 38.1746 221.991 36.4713 222.282C35.8938 222.445 34.3982 222.395 34.5976 223.295C34.7887 223.84 35.3662 223.595 35.7609 223.474C36.6374 223.27 37.6926 223.186 38.6149 223.036C39.5496 222.953 40.4927 222.97 41.4357 222.928C41.9135 222.986 42.52 222.699 42.2791 222.136C42.1586 221.89 41.8719 221.791 41.6227 221.882H41.6185Z" fill="black"/>
<path d="M31.3905 223.278C31.108 223.278 30.8878 223.557 30.9003 223.828C30.9169 224.124 31.1662 224.319 31.4487 224.319C31.7312 224.319 31.9513 224.04 31.9389 223.769C31.9223 223.474 31.673 223.278 31.3905 223.278Z" fill="black"/>
<path d="M181.982 134.889C181.933 134.218 182.344 131.798 181.035 132.56C180.877 132.719 180.844 132.964 180.94 133.16C181.019 134.968 180.803 136.797 181.077 138.597C181.176 139.272 182.19 139.126 182.107 138.456C181.916 137.277 181.999 136.077 181.987 134.889H181.982Z" fill="black"/>
<path d="M181.588 141.455C181.875 141.455 182.107 141.222 182.107 140.934C182.107 140.647 181.875 140.414 181.588 140.414C181.301 140.414 181.068 140.647 181.068 140.934C181.068 141.222 181.301 141.455 181.588 141.455Z" fill="black"/>
<path d="M186.162 182.269C185.759 181.794 185.003 182.319 185.314 182.869C185.676 183.231 185.688 183.777 185.817 184.256C186.079 185.593 186.328 187.093 186.328 188.514C186.436 190.164 185.817 191.751 185.854 193.401C185.858 194.084 186.884 194.076 186.893 193.401C186.855 191.989 187.346 190.635 187.371 189.231C187.4 187.802 187.254 186.377 187.005 184.969C186.785 184.073 186.806 182.981 186.162 182.269Z" fill="black"/>
<path d="M185.892 196.655C186.336 197.305 187.204 196.601 186.71 195.997C186.266 195.347 185.393 196.055 185.892 196.655Z" fill="black"/>
<path d="M224.025 228.823C222.699 226.711 222.176 224.161 220.672 222.145C220.402 221.849 220.007 221.524 219.629 221.916C219.343 222.232 219.571 222.628 219.879 222.82C220.331 223.39 220.589 224.095 220.946 224.728C222.001 226.578 222.309 228.986 224.104 230.352C224.615 230.802 225.292 230.032 224.793 229.573C224.527 229.332 224.245 229.111 224.025 228.827V228.823Z" fill="black"/>
<path d="M226.48 230.869C226.197 230.869 225.973 231.14 225.985 231.415C225.998 231.706 226.247 231.91 226.53 231.91C226.812 231.91 227.037 231.64 227.024 231.365C227.012 231.073 226.762 230.869 226.48 230.869Z" fill="black"/>
<path d="M272.764 233.344C271.085 232.698 269.328 232.323 267.562 231.869C267.13 231.773 266.698 231.627 266.254 231.69C265.585 231.798 265.747 232.81 266.416 232.719C268.402 233.056 270.35 233.631 272.274 234.26C272.876 234.569 273.358 233.664 272.764 233.34V233.344Z" fill="black"/>
<path d="M274.189 234.927C274.21 235.656 275.626 235.623 275.601 234.889C275.581 234.164 274.164 234.198 274.189 234.927Z" fill="black"/>
<path d="M195.052 133.448C195.397 133.685 195.75 133.406 195.92 133.093C196.622 132.273 197.171 131.281 198.139 130.719C198.292 130.619 198.459 130.531 198.596 130.41C199.09 129.96 198.434 129.198 197.919 129.623C197.179 130.073 196.485 130.602 196.003 131.331C195.717 131.873 194.296 132.856 195.052 133.452V133.448Z" fill="black"/>
<path d="M194.508 134.914C194.52 134.639 194.296 134.368 194.013 134.368C193.731 134.368 193.482 134.568 193.469 134.864C193.457 135.139 193.681 135.41 193.964 135.41C194.246 135.41 194.495 135.21 194.508 134.914Z" fill="black"/>
<path d="M206.551 167.757C206.364 167.278 206.074 166.841 205.937 166.345C205.812 165.691 205.833 164.974 205.887 164.303C205.912 163.762 206.389 162.808 205.633 162.591C205.243 162.516 204.973 162.887 205.006 163.253C204.952 163.666 204.856 164.066 204.827 164.483C204.694 165.762 204.923 166.999 205.571 168.111C205.816 168.749 206.776 168.395 206.547 167.761L206.551 167.757Z" fill="black"/>
<path d="M207.956 169.999C208.587 170.482 209.189 169.491 208.504 169.103C207.868 168.624 207.274 169.611 207.956 169.999Z" fill="black"/>
<path d="M236.579 194.48C236.945 194.409 237.315 194.326 237.659 194.184C238.586 193.822 239.504 193.372 240.256 192.709C240.958 191.989 241.444 191.097 241.868 190.193C242.059 189.955 242.042 189.568 241.764 189.393C240.958 188.993 240.783 190.222 240.459 190.701C240.123 191.172 239.845 191.705 239.396 192.076C238.648 192.618 237.834 193.034 236.953 193.322C236.579 193.443 236.118 193.418 235.844 193.743C235.657 193.959 235.686 194.293 235.902 194.48C236.097 194.647 236.388 194.643 236.579 194.48Z" fill="black"/>
<path d="M242.341 187.685C242.624 187.685 242.869 187.477 242.881 187.185C242.894 186.91 242.665 186.643 242.383 186.643C242.1 186.643 241.855 186.852 241.843 187.143C241.83 187.418 242.059 187.685 242.341 187.685Z" fill="black"/>
<path d="M265.66 149.021C266.528 148.196 266.781 146.946 266.827 145.788C266.736 145.101 266.943 142.034 265.743 142.58C265.498 142.718 265.402 143.043 265.539 143.288C265.809 144.751 265.975 146.292 265.373 147.717C265.124 148.305 263.653 149.155 264.339 149.834C264.953 150.259 265.286 149.371 265.651 149.021H265.66Z" fill="black"/>
<path d="M263.105 151.796C263.666 151.563 263.358 150.934 263.138 150.555C263.014 150.3 262.673 150.221 262.432 150.35C261.946 150.625 262.27 151.13 262.432 151.5C262.519 151.771 262.851 151.896 263.105 151.796Z" fill="black"/>
<path d="M269.685 88.0179C269.968 88.0179 270.209 87.7971 270.217 87.5096C270.225 87.2305 269.993 86.9763 269.71 86.9763C269.428 86.9763 269.187 87.1971 269.179 87.4846C269.17 87.7638 269.403 88.0179 269.685 88.0179Z" fill="black"/>
</g>
<defs>
<clipPath id="clip0_1453_4941">
<rect width="307" height="259" fill="white"/>
</clipPath>
</defs>
</svg>
