<svg width="1509" height="267" viewBox="0 0 1509 267" fill="none" xmlns="http://www.w3.org/2000/svg">
<rect width="387" height="267" rx="5" fill="#FFFAED"/>
<rect x="551" width="441" height="267" rx="5" fill="#FFFAED"/>
<rect x="1068" width="441" height="267" rx="5" fill="#FFFAED"/>
<circle cx="102" cy="104" r="74.5" fill="#FFEEFF" stroke="black"/>
<circle cx="658" cy="106" r="74.5" fill="#DAEAD4" stroke="black"/>
<circle cx="1171" cy="106" r="74.5" fill="#DAEAD4" stroke="black"/>
<path d="M69.9336 91.5352C71.7383 91.5352 73.1562 91.9844 74.1875 92.8828C75.2266 93.7734 75.7461 94.9961 75.7461 96.5508C75.7461 98.3242 75.1797 99.7148 74.0469 100.723C72.9219 101.73 71.3672 102.234 69.3828 102.234C67.4531 102.234 65.9805 101.926 64.9648 101.309V99.4336C65.5117 99.7852 66.1914 100.062 67.0039 100.266C67.8164 100.461 68.6172 100.559 69.4062 100.559C70.7812 100.559 71.8477 100.234 72.6055 99.5859C73.3711 98.9375 73.7539 98 73.7539 96.7734C73.7539 94.3828 72.2891 93.1875 69.3594 93.1875C68.6172 93.1875 67.625 93.3008 66.3828 93.5273L65.375 92.8828L66.0195 84.8672H74.5391V86.6602H67.6836L67.25 91.8047C68.1484 91.625 69.043 91.5352 69.9336 91.5352ZM90.5703 102.234C88.7109 102.234 87.2695 101.664 86.2461 100.523C85.2305 99.375 84.7227 97.7539 84.7227 95.6602C84.7227 93.5117 85.2383 91.8516 86.2695 90.6797C87.3086 89.5078 88.7852 88.9219 90.6992 88.9219C91.3164 88.9219 91.9336 88.9883 92.5508 89.1211C93.168 89.2539 93.6523 89.4102 94.0039 89.5898L93.4062 91.2422C92.9766 91.0703 92.5078 90.9297 92 90.8203C91.4922 90.7031 91.043 90.6445 90.6523 90.6445C88.043 90.6445 86.7383 92.3086 86.7383 95.6367C86.7383 97.2148 87.0547 98.4258 87.6875 99.2695C88.3281 100.113 89.2734 100.535 90.5234 100.535C91.5938 100.535 92.6914 100.305 93.8164 99.8438V101.566C92.957 102.012 91.875 102.234 90.5703 102.234ZM107.961 95.5664C107.961 97.6602 107.434 99.2969 106.379 100.477C105.324 101.648 103.867 102.234 102.008 102.234C100.859 102.234 99.8398 101.965 98.9492 101.426C98.0586 100.887 97.3711 100.113 96.8867 99.1055C96.4023 98.0977 96.1602 96.918 96.1602 95.5664C96.1602 93.4727 96.6836 91.8438 97.7305 90.6797C98.7773 89.5078 100.23 88.9219 102.09 88.9219C103.887 88.9219 105.312 89.5195 106.367 90.7148C107.43 91.9102 107.961 93.5273 107.961 95.5664ZM98.1758 95.5664C98.1758 97.207 98.5039 98.457 99.1602 99.3164C99.8164 100.176 100.781 100.605 102.055 100.605C103.328 100.605 104.293 100.18 104.949 99.3281C105.613 98.4688 105.945 97.2148 105.945 95.5664C105.945 93.9336 105.613 92.6953 104.949 91.8516C104.293 91 103.32 90.5742 102.031 90.5742C100.758 90.5742 99.7969 90.9922 99.1484 91.8281C98.5 92.6641 98.1758 93.9102 98.1758 95.5664ZM113.328 102H111.383V89.1562H113.328V102ZM111.219 85.6758C111.219 85.2305 111.328 84.9062 111.547 84.7031C111.766 84.4922 112.039 84.3867 112.367 84.3867C112.68 84.3867 112.949 84.4922 113.176 84.7031C113.402 84.9141 113.516 85.2383 113.516 85.6758C113.516 86.1133 113.402 86.4414 113.176 86.6602C112.949 86.8711 112.68 86.9766 112.367 86.9766C112.039 86.9766 111.766 86.8711 111.547 86.6602C111.328 86.4414 111.219 86.1133 111.219 85.6758ZM126.242 102V93.6914C126.242 92.6445 126.004 91.8633 125.527 91.3477C125.051 90.832 124.305 90.5742 123.289 90.5742C121.945 90.5742 120.961 90.9375 120.336 91.6641C119.711 92.3906 119.398 93.5898 119.398 95.2617V102H117.453V89.1562H119.035L119.352 90.9141H119.445C119.844 90.2812 120.402 89.793 121.121 89.4492C121.84 89.0977 122.641 88.9219 123.523 88.9219C125.07 88.9219 126.234 89.2969 127.016 90.0469C127.797 90.7891 128.188 91.9805 128.188 93.6211V102H126.242ZM140.48 98.4961C140.48 99.6914 140.035 100.613 139.145 101.262C138.254 101.91 137.004 102.234 135.395 102.234C133.691 102.234 132.363 101.965 131.41 101.426V99.6211C132.027 99.9336 132.688 100.18 133.391 100.359C134.102 100.539 134.785 100.629 135.441 100.629C136.457 100.629 137.238 100.469 137.785 100.148C138.332 99.8203 138.605 99.3242 138.605 98.6602C138.605 98.1602 138.387 97.7344 137.949 97.3828C137.52 97.0234 136.676 96.6016 135.418 96.1172C134.223 95.6719 133.371 95.2852 132.863 94.957C132.363 94.6211 131.988 94.2422 131.738 93.8203C131.496 93.3984 131.375 92.8945 131.375 92.3086C131.375 91.2617 131.801 90.4375 132.652 89.8359C133.504 89.2266 134.672 88.9219 136.156 88.9219C137.539 88.9219 138.891 89.2031 140.211 89.7656L139.52 91.3477C138.23 90.8164 137.062 90.5508 136.016 90.5508C135.094 90.5508 134.398 90.6953 133.93 90.9844C133.461 91.2734 133.227 91.6719 133.227 92.1797C133.227 92.5234 133.312 92.8164 133.484 93.0586C133.664 93.3008 133.949 93.5312 134.34 93.75C134.73 93.9688 135.48 94.2852 136.59 94.6992C138.113 95.2539 139.141 95.8125 139.672 96.375C140.211 96.9375 140.48 97.6445 140.48 98.4961Z" fill="black"/>
<path d="M214.852 102V93.6914C214.852 92.6445 214.613 91.8633 214.137 91.3477C213.66 90.832 212.914 90.5742 211.898 90.5742C210.555 90.5742 209.57 90.9375 208.945 91.6641C208.32 92.3906 208.008 93.5898 208.008 95.2617V102H206.062V89.1562H207.645L207.961 90.9141H208.055C208.453 90.2812 209.012 89.793 209.73 89.4492C210.449 89.0977 211.25 88.9219 212.133 88.9219C213.68 88.9219 214.844 89.2969 215.625 90.0469C216.406 90.7891 216.797 91.9805 216.797 93.6211V102H214.852ZM222.633 89.1562V97.4883C222.633 98.5352 222.871 99.3164 223.348 99.832C223.824 100.348 224.57 100.605 225.586 100.605C226.93 100.605 227.91 100.238 228.527 99.5039C229.152 98.7695 229.465 97.5703 229.465 95.9062V89.1562H231.41V102H229.805L229.523 100.277H229.418C229.02 100.91 228.465 101.395 227.754 101.73C227.051 102.066 226.246 102.234 225.34 102.234C223.777 102.234 222.605 101.863 221.824 101.121C221.051 100.379 220.664 99.1914 220.664 97.5586V89.1562H222.633ZM237.492 102H235.547V83.7656H237.492V102ZM243.562 102H241.617V83.7656H243.562V102ZM249.633 102H247.688V89.1562H249.633V102ZM247.523 85.6758C247.523 85.2305 247.633 84.9062 247.852 84.7031C248.07 84.4922 248.344 84.3867 248.672 84.3867C248.984 84.3867 249.254 84.4922 249.48 84.7031C249.707 84.9141 249.82 85.2383 249.82 85.6758C249.82 86.1133 249.707 86.4414 249.48 86.6602C249.254 86.8711 248.984 86.9766 248.672 86.9766C248.344 86.9766 248.07 86.8711 247.852 86.6602C247.633 86.4414 247.523 86.1133 247.523 85.6758ZM259.547 90.668H256.277V102H254.332V90.668H252.035V89.7891L254.332 89.0859V88.3711C254.332 85.2148 255.711 83.6367 258.469 83.6367C259.148 83.6367 259.945 83.7734 260.859 84.0469L260.355 85.6055C259.605 85.3633 258.965 85.2422 258.434 85.2422C257.699 85.2422 257.156 85.4883 256.805 85.9805C256.453 86.4648 256.277 87.2461 256.277 88.3242V89.1562H259.547V90.668ZM263.836 102H261.891V89.1562H263.836V102ZM261.727 85.6758C261.727 85.2305 261.836 84.9062 262.055 84.7031C262.273 84.4922 262.547 84.3867 262.875 84.3867C263.188 84.3867 263.457 84.4922 263.684 84.7031C263.91 84.9141 264.023 85.2383 264.023 85.6758C264.023 86.1133 263.91 86.4414 263.684 86.6602C263.457 86.8711 263.188 86.9766 262.875 86.9766C262.547 86.9766 262.273 86.8711 262.055 86.6602C261.836 86.4414 261.727 86.1133 261.727 85.6758ZM273.387 102.234C271.488 102.234 269.988 101.656 268.887 100.5C267.793 99.3438 267.246 97.7383 267.246 95.6836C267.246 93.6133 267.754 91.9688 268.77 90.75C269.793 89.5312 271.164 88.9219 272.883 88.9219C274.492 88.9219 275.766 89.4531 276.703 90.5156C277.641 91.5703 278.109 92.9648 278.109 94.6992V95.9297H269.262C269.301 97.4375 269.68 98.582 270.398 99.3633C271.125 100.145 272.145 100.535 273.457 100.535C274.84 100.535 276.207 100.246 277.559 99.668V101.402C276.871 101.699 276.219 101.91 275.602 102.035C274.992 102.168 274.254 102.234 273.387 102.234ZM272.859 90.5508C271.828 90.5508 271.004 90.8867 270.387 91.5586C269.777 92.2305 269.418 93.1602 269.309 94.3477H276.023C276.023 93.1211 275.75 92.1836 275.203 91.5352C274.656 90.8789 273.875 90.5508 272.859 90.5508ZM287.297 88.9219C287.867 88.9219 288.379 88.9688 288.832 89.0625L288.562 90.8672C288.031 90.75 287.562 90.6914 287.156 90.6914C286.117 90.6914 285.227 91.1133 284.484 91.957C283.75 92.8008 283.383 93.8516 283.383 95.1094V102H281.438V89.1562H283.043L283.266 91.5352H283.359C283.836 90.6992 284.41 90.0547 285.082 89.6016C285.754 89.1484 286.492 88.9219 287.297 88.9219ZM208.852 121.277C208.852 121.816 208.992 122.332 209.273 122.824C209.555 123.309 210.035 123.895 210.715 124.582C211.723 123.996 212.422 123.457 212.812 122.965C213.211 122.465 213.41 121.891 213.41 121.242C213.41 120.641 213.207 120.152 212.801 119.777C212.402 119.395 211.867 119.203 211.195 119.203C210.5 119.203 209.934 119.391 209.496 119.766C209.066 120.141 208.852 120.645 208.852 121.277ZM210.668 133.488C212.551 133.488 214.113 132.887 215.355 131.684L210.234 126.715C209.367 127.246 208.754 127.688 208.395 128.039C208.035 128.383 207.77 128.754 207.598 129.152C207.426 129.551 207.34 130.004 207.34 130.512C207.34 131.426 207.641 132.152 208.242 132.691C208.852 133.223 209.66 133.488 210.668 133.488ZM205.324 130.559C205.324 129.543 205.594 128.645 206.133 127.863C206.68 127.082 207.656 126.293 209.062 125.496C208.398 124.754 207.945 124.191 207.703 123.809C207.469 123.426 207.281 123.027 207.141 122.613C207 122.199 206.93 121.77 206.93 121.324C206.93 120.152 207.312 119.238 208.078 118.582C208.844 117.926 209.91 117.598 211.277 117.598C212.543 117.598 213.539 117.926 214.266 118.582C214.992 119.23 215.355 120.137 215.355 121.301C215.355 122.137 215.09 122.91 214.559 123.621C214.027 124.324 213.148 125.039 211.922 125.766L216.691 130.348C217.129 129.863 217.477 129.297 217.734 128.648C218 127.992 218.223 127.277 218.402 126.504H220.371C219.84 128.738 219.039 130.434 217.969 131.59L221.473 135H218.789L216.621 132.914C215.699 133.742 214.762 134.336 213.809 134.695C212.855 135.055 211.793 135.234 210.621 135.234C208.941 135.234 207.637 134.82 206.707 133.992C205.785 133.164 205.324 132.02 205.324 130.559ZM240.914 128.566C240.914 130.66 240.387 132.297 239.332 133.477C238.277 134.648 236.82 135.234 234.961 135.234C233.812 135.234 232.793 134.965 231.902 134.426C231.012 133.887 230.324 133.113 229.84 132.105C229.355 131.098 229.113 129.918 229.113 128.566C229.113 126.473 229.637 124.844 230.684 123.68C231.73 122.508 233.184 121.922 235.043 121.922C236.84 121.922 238.266 122.52 239.32 123.715C240.383 124.91 240.914 126.527 240.914 128.566ZM231.129 128.566C231.129 130.207 231.457 131.457 232.113 132.316C232.77 133.176 233.734 133.605 235.008 133.605C236.281 133.605 237.246 133.18 237.902 132.328C238.566 131.469 238.898 130.215 238.898 128.566C238.898 126.934 238.566 125.695 237.902 124.852C237.246 124 236.273 123.574 234.984 123.574C233.711 123.574 232.75 123.992 232.102 124.828C231.453 125.664 231.129 126.91 231.129 128.566ZM248.484 133.629C248.828 133.629 249.16 133.605 249.48 133.559C249.801 133.504 250.055 133.449 250.242 133.395V134.883C250.031 134.984 249.719 135.066 249.305 135.129C248.898 135.199 248.531 135.234 248.203 135.234C245.719 135.234 244.477 133.926 244.477 131.309V123.668H242.637V122.73L244.477 121.922L245.297 119.18H246.422V122.156H250.148V123.668H246.422V131.227C246.422 132 246.605 132.594 246.973 133.008C247.34 133.422 247.844 133.629 248.484 133.629ZM261.609 135V126.691C261.609 125.645 261.371 124.863 260.895 124.348C260.418 123.832 259.672 123.574 258.656 123.574C257.305 123.574 256.316 123.941 255.691 124.676C255.074 125.41 254.766 126.613 254.766 128.285V135H252.82V116.766H254.766V122.285C254.766 122.949 254.734 123.5 254.672 123.938H254.789C255.172 123.32 255.715 122.836 256.418 122.484C257.129 122.125 257.938 121.945 258.844 121.945C260.414 121.945 261.59 122.32 262.371 123.07C263.16 123.812 263.555 124.996 263.555 126.621V135H261.609ZM272.988 135.234C271.09 135.234 269.59 134.656 268.488 133.5C267.395 132.344 266.848 130.738 266.848 128.684C266.848 126.613 267.355 124.969 268.371 123.75C269.395 122.531 270.766 121.922 272.484 121.922C274.094 121.922 275.367 122.453 276.305 123.516C277.242 124.57 277.711 125.965 277.711 127.699V128.93H268.863C268.902 130.438 269.281 131.582 270 132.363C270.727 133.145 271.746 133.535 273.059 133.535C274.441 133.535 275.809 133.246 277.16 132.668V134.402C276.473 134.699 275.82 134.91 275.203 135.035C274.594 135.168 273.855 135.234 272.988 135.234ZM272.461 123.551C271.43 123.551 270.605 123.887 269.988 124.559C269.379 125.23 269.02 126.16 268.91 127.348H275.625C275.625 126.121 275.352 125.184 274.805 124.535C274.258 123.879 273.477 123.551 272.461 123.551ZM286.898 121.922C287.469 121.922 287.98 121.969 288.434 122.062L288.164 123.867C287.633 123.75 287.164 123.691 286.758 123.691C285.719 123.691 284.828 124.113 284.086 124.957C283.352 125.801 282.984 126.852 282.984 128.109V135H281.039V122.156H282.645L282.867 124.535H282.961C283.438 123.699 284.012 123.055 284.684 122.602C285.355 122.148 286.094 121.922 286.898 121.922ZM302.859 123.668H299.59V135H297.645V123.668H295.348V122.789L297.645 122.086V121.371C297.645 118.215 299.023 116.637 301.781 116.637C302.461 116.637 303.258 116.773 304.172 117.047L303.668 118.605C302.918 118.363 302.277 118.242 301.746 118.242C301.012 118.242 300.469 118.488 300.117 118.98C299.766 119.465 299.59 120.246 299.59 121.324V122.156H302.859V123.668ZM307.148 135H305.203V122.156H307.148V135ZM305.039 118.676C305.039 118.23 305.148 117.906 305.367 117.703C305.586 117.492 305.859 117.387 306.188 117.387C306.5 117.387 306.77 117.492 306.996 117.703C307.223 117.914 307.336 118.238 307.336 118.676C307.336 119.113 307.223 119.441 306.996 119.66C306.77 119.871 306.5 119.977 306.188 119.977C305.859 119.977 305.586 119.871 305.367 119.66C305.148 119.441 305.039 119.113 305.039 118.676ZM316.699 135.234C314.801 135.234 313.301 134.656 312.199 133.5C311.105 132.344 310.559 130.738 310.559 128.684C310.559 126.613 311.066 124.969 312.082 123.75C313.105 122.531 314.477 121.922 316.195 121.922C317.805 121.922 319.078 122.453 320.016 123.516C320.953 124.57 321.422 125.965 321.422 127.699V128.93H312.574C312.613 130.438 312.992 131.582 313.711 132.363C314.438 133.145 315.457 133.535 316.77 133.535C318.152 133.535 319.52 133.246 320.871 132.668V134.402C320.184 134.699 319.531 134.91 318.914 135.035C318.305 135.168 317.566 135.234 316.699 135.234ZM316.172 123.551C315.141 123.551 314.316 123.887 313.699 124.559C313.09 125.23 312.73 126.16 312.621 127.348H319.336C319.336 126.121 319.062 125.184 318.516 124.535C317.969 123.879 317.188 123.551 316.172 123.551ZM326.695 135H324.75V116.766H326.695V135ZM339.562 133.277H339.457C338.559 134.582 337.215 135.234 335.426 135.234C333.746 135.234 332.438 134.66 331.5 133.512C330.57 132.363 330.105 130.73 330.105 128.613C330.105 126.496 330.574 124.852 331.512 123.68C332.449 122.508 333.754 121.922 335.426 121.922C337.168 121.922 338.504 122.555 339.434 123.82H339.586L339.504 122.895L339.457 121.992V116.766H341.402V135H339.82L339.562 133.277ZM335.672 133.605C337 133.605 337.961 133.246 338.555 132.527C339.156 131.801 339.457 130.633 339.457 129.023V128.613C339.457 126.793 339.152 125.496 338.543 124.723C337.941 123.941 336.977 123.551 335.648 123.551C334.508 123.551 333.633 123.996 333.023 124.887C332.422 125.77 332.121 127.02 332.121 128.637C332.121 130.277 332.422 131.516 333.023 132.352C333.625 133.188 334.508 133.605 335.672 133.605ZM353.824 131.496C353.824 132.691 353.379 133.613 352.488 134.262C351.598 134.91 350.348 135.234 348.738 135.234C347.035 135.234 345.707 134.965 344.754 134.426V132.621C345.371 132.934 346.031 133.18 346.734 133.359C347.445 133.539 348.129 133.629 348.785 133.629C349.801 133.629 350.582 133.469 351.129 133.148C351.676 132.82 351.949 132.324 351.949 131.66C351.949 131.16 351.73 130.734 351.293 130.383C350.863 130.023 350.02 129.602 348.762 129.117C347.566 128.672 346.715 128.285 346.207 127.957C345.707 127.621 345.332 127.242 345.082 126.82C344.84 126.398 344.719 125.895 344.719 125.309C344.719 124.262 345.145 123.438 345.996 122.836C346.848 122.227 348.016 121.922 349.5 121.922C350.883 121.922 352.234 122.203 353.555 122.766L352.863 124.348C351.574 123.816 350.406 123.551 349.359 123.551C348.438 123.551 347.742 123.695 347.273 123.984C346.805 124.273 346.57 124.672 346.57 125.18C346.57 125.523 346.656 125.816 346.828 126.059C347.008 126.301 347.293 126.531 347.684 126.75C348.074 126.969 348.824 127.285 349.934 127.699C351.457 128.254 352.484 128.812 353.016 129.375C353.555 129.938 353.824 130.645 353.824 131.496Z" fill="black"/>
<path d="M763.488 102.234C761.59 102.234 760.09 101.656 758.988 100.5C757.895 99.3438 757.348 97.7383 757.348 95.6836C757.348 93.6133 757.855 91.9688 758.871 90.75C759.895 89.5312 761.266 88.9219 762.984 88.9219C764.594 88.9219 765.867 89.4531 766.805 90.5156C767.742 91.5703 768.211 92.9648 768.211 94.6992V95.9297H759.363C759.402 97.4375 759.781 98.582 760.5 99.3633C761.227 100.145 762.246 100.535 763.559 100.535C764.941 100.535 766.309 100.246 767.66 99.668V101.402C766.973 101.699 766.32 101.91 765.703 102.035C765.094 102.168 764.355 102.234 763.488 102.234ZM762.961 90.5508C761.93 90.5508 761.105 90.8867 760.488 91.5586C759.879 92.2305 759.52 93.1602 759.41 94.3477H766.125C766.125 93.1211 765.852 92.1836 765.305 91.5352C764.758 90.8789 763.977 90.5508 762.961 90.5508ZM780.328 102V93.6914C780.328 92.6445 780.09 91.8633 779.613 91.3477C779.137 90.832 778.391 90.5742 777.375 90.5742C776.031 90.5742 775.047 90.9375 774.422 91.6641C773.797 92.3906 773.484 93.5898 773.484 95.2617V102H771.539V89.1562H773.121L773.438 90.9141H773.531C773.93 90.2812 774.488 89.793 775.207 89.4492C775.926 89.0977 776.727 88.9219 777.609 88.9219C779.156 88.9219 780.32 89.2969 781.102 90.0469C781.883 90.7891 782.273 91.9805 782.273 93.6211V102H780.328ZM791.414 102.234C789.555 102.234 788.113 101.664 787.09 100.523C786.074 99.375 785.566 97.7539 785.566 95.6602C785.566 93.5117 786.082 91.8516 787.113 90.6797C788.152 89.5078 789.629 88.9219 791.543 88.9219C792.16 88.9219 792.777 88.9883 793.395 89.1211C794.012 89.2539 794.496 89.4102 794.848 89.5898L794.25 91.2422C793.82 91.0703 793.352 90.9297 792.844 90.8203C792.336 90.7031 791.887 90.6445 791.496 90.6445C788.887 90.6445 787.582 92.3086 787.582 95.6367C787.582 97.2148 787.898 98.4258 788.531 99.2695C789.172 100.113 790.117 100.535 791.367 100.535C792.438 100.535 793.535 100.305 794.66 99.8438V101.566C793.801 102.012 792.719 102.234 791.414 102.234ZM803.578 88.9219C804.148 88.9219 804.66 88.9688 805.113 89.0625L804.844 90.8672C804.312 90.75 803.844 90.6914 803.438 90.6914C802.398 90.6914 801.508 91.1133 800.766 91.957C800.031 92.8008 799.664 93.8516 799.664 95.1094V102H797.719V89.1562H799.324L799.547 91.5352H799.641C800.117 90.6992 800.691 90.0547 801.363 89.6016C802.035 89.1484 802.773 88.9219 803.578 88.9219ZM805.477 89.1562H807.562L810.375 96.4805C810.992 98.1523 811.375 99.3594 811.523 100.102H811.617C811.719 99.7031 811.93 99.0234 812.25 98.0625C812.578 97.0938 813.641 94.125 815.438 89.1562H817.523L812.004 103.781C811.457 105.227 810.816 106.25 810.082 106.852C809.355 107.461 808.461 107.766 807.398 107.766C806.805 107.766 806.219 107.699 805.641 107.566V106.008C806.07 106.102 806.551 106.148 807.082 106.148C808.418 106.148 809.371 105.398 809.941 103.898L810.656 102.07L805.477 89.1562ZM825.586 102.234C824.75 102.234 823.984 102.082 823.289 101.777C822.602 101.465 822.023 100.988 821.555 100.348H821.414C821.508 101.098 821.555 101.809 821.555 102.48V107.766H819.609V89.1562H821.191L821.461 90.9141H821.555C822.055 90.2109 822.637 89.7031 823.301 89.3906C823.965 89.0781 824.727 88.9219 825.586 88.9219C827.289 88.9219 828.602 89.5039 829.523 90.668C830.453 91.832 830.918 93.4648 830.918 95.5664C830.918 97.6758 830.445 99.3164 829.5 100.488C828.562 101.652 827.258 102.234 825.586 102.234ZM825.305 90.5742C823.992 90.5742 823.043 90.9375 822.457 91.6641C821.871 92.3906 821.57 93.5469 821.555 95.1328V95.5664C821.555 97.3711 821.855 98.6641 822.457 99.4453C823.059 100.219 824.023 100.605 825.352 100.605C826.461 100.605 827.328 100.156 827.953 99.2578C828.586 98.3594 828.902 97.1211 828.902 95.543C828.902 93.9414 828.586 92.7148 827.953 91.8633C827.328 91.0039 826.445 90.5742 825.305 90.5742ZM838.477 100.629C838.82 100.629 839.152 100.605 839.473 100.559C839.793 100.504 840.047 100.449 840.234 100.395V101.883C840.023 101.984 839.711 102.066 839.297 102.129C838.891 102.199 838.523 102.234 838.195 102.234C835.711 102.234 834.469 100.926 834.469 98.3086V90.668H832.629V89.7305L834.469 88.9219L835.289 86.1797H836.414V89.1562H840.141V90.668H836.414V98.2266C836.414 99 836.598 99.5938 836.965 100.008C837.332 100.422 837.836 100.629 838.477 100.629ZM848.238 102.234C846.34 102.234 844.84 101.656 843.738 100.5C842.645 99.3438 842.098 97.7383 842.098 95.6836C842.098 93.6133 842.605 91.9688 843.621 90.75C844.645 89.5312 846.016 88.9219 847.734 88.9219C849.344 88.9219 850.617 89.4531 851.555 90.5156C852.492 91.5703 852.961 92.9648 852.961 94.6992V95.9297H844.113C844.152 97.4375 844.531 98.582 845.25 99.3633C845.977 100.145 846.996 100.535 848.309 100.535C849.691 100.535 851.059 100.246 852.41 99.668V101.402C851.723 101.699 851.07 101.91 850.453 102.035C849.844 102.168 849.105 102.234 848.238 102.234ZM847.711 90.5508C846.68 90.5508 845.855 90.8867 845.238 91.5586C844.629 92.2305 844.27 93.1602 844.16 94.3477H850.875C850.875 93.1211 850.602 92.1836 850.055 91.5352C849.508 90.8789 848.727 90.5508 847.711 90.5508ZM865.031 100.277H864.926C864.027 101.582 862.684 102.234 860.895 102.234C859.215 102.234 857.906 101.66 856.969 100.512C856.039 99.3633 855.574 97.7305 855.574 95.6133C855.574 93.4961 856.043 91.8516 856.98 90.6797C857.918 89.5078 859.223 88.9219 860.895 88.9219C862.637 88.9219 863.973 89.5547 864.902 90.8203H865.055L864.973 89.8945L864.926 88.9922V83.7656H866.871V102H865.289L865.031 100.277ZM861.141 100.605C862.469 100.605 863.43 100.246 864.023 99.5273C864.625 98.8008 864.926 97.6328 864.926 96.0234V95.6133C864.926 93.793 864.621 92.4961 864.012 91.7227C863.41 90.9414 862.445 90.5508 861.117 90.5508C859.977 90.5508 859.102 90.9961 858.492 91.8867C857.891 92.7695 857.59 94.0195 857.59 95.6367C857.59 97.2773 857.891 98.5156 858.492 99.3516C859.094 100.188 859.977 100.605 861.141 100.605ZM886.031 102V93.6914C886.031 92.6445 885.793 91.8633 885.316 91.3477C884.84 90.832 884.094 90.5742 883.078 90.5742C881.734 90.5742 880.75 90.9375 880.125 91.6641C879.5 92.3906 879.188 93.5898 879.188 95.2617V102H877.242V89.1562H878.824L879.141 90.9141H879.234C879.633 90.2812 880.191 89.793 880.91 89.4492C881.629 89.0977 882.43 88.9219 883.312 88.9219C884.859 88.9219 886.023 89.2969 886.805 90.0469C887.586 90.7891 887.977 91.9805 887.977 93.6211V102H886.031ZM903.07 95.5664C903.07 97.6602 902.543 99.2969 901.488 100.477C900.434 101.648 898.977 102.234 897.117 102.234C895.969 102.234 894.949 101.965 894.059 101.426C893.168 100.887 892.48 100.113 891.996 99.1055C891.512 98.0977 891.27 96.918 891.27 95.5664C891.27 93.4727 891.793 91.8438 892.84 90.6797C893.887 89.5078 895.34 88.9219 897.199 88.9219C898.996 88.9219 900.422 89.5195 901.477 90.7148C902.539 91.9102 903.07 93.5273 903.07 95.5664ZM893.285 95.5664C893.285 97.207 893.613 98.457 894.27 99.3164C894.926 100.176 895.891 100.605 897.164 100.605C898.438 100.605 899.402 100.18 900.059 99.3281C900.723 98.4688 901.055 97.2148 901.055 95.5664C901.055 93.9336 900.723 92.6953 900.059 91.8516C899.402 91 898.43 90.5742 897.141 90.5742C895.867 90.5742 894.906 90.9922 894.258 91.8281C893.609 92.6641 893.285 93.9102 893.285 95.5664ZM910.641 100.629C910.984 100.629 911.316 100.605 911.637 100.559C911.957 100.504 912.211 100.449 912.398 100.395V101.883C912.188 101.984 911.875 102.066 911.461 102.129C911.055 102.199 910.688 102.234 910.359 102.234C907.875 102.234 906.633 100.926 906.633 98.3086V90.668H904.793V89.7305L906.633 88.9219L907.453 86.1797H908.578V89.1562H912.305V90.668H908.578V98.2266C908.578 99 908.762 99.5938 909.129 100.008C909.496 100.422 910 100.629 910.641 100.629ZM920.402 102.234C918.504 102.234 917.004 101.656 915.902 100.5C914.809 99.3438 914.262 97.7383 914.262 95.6836C914.262 93.6133 914.77 91.9688 915.785 90.75C916.809 89.5312 918.18 88.9219 919.898 88.9219C921.508 88.9219 922.781 89.4531 923.719 90.5156C924.656 91.5703 925.125 92.9648 925.125 94.6992V95.9297H916.277C916.316 97.4375 916.695 98.582 917.414 99.3633C918.141 100.145 919.16 100.535 920.473 100.535C921.855 100.535 923.223 100.246 924.574 99.668V101.402C923.887 101.699 923.234 101.91 922.617 102.035C922.008 102.168 921.27 102.234 920.402 102.234ZM919.875 90.5508C918.844 90.5508 918.02 90.8867 917.402 91.5586C916.793 92.2305 916.434 93.1602 916.324 94.3477H923.039C923.039 93.1211 922.766 92.1836 922.219 91.5352C921.672 90.8789 920.891 90.5508 919.875 90.5508ZM760.852 121.277C760.852 121.816 760.992 122.332 761.273 122.824C761.555 123.309 762.035 123.895 762.715 124.582C763.723 123.996 764.422 123.457 764.812 122.965C765.211 122.465 765.41 121.891 765.41 121.242C765.41 120.641 765.207 120.152 764.801 119.777C764.402 119.395 763.867 119.203 763.195 119.203C762.5 119.203 761.934 119.391 761.496 119.766C761.066 120.141 760.852 120.645 760.852 121.277ZM762.668 133.488C764.551 133.488 766.113 132.887 767.355 131.684L762.234 126.715C761.367 127.246 760.754 127.688 760.395 128.039C760.035 128.383 759.77 128.754 759.598 129.152C759.426 129.551 759.34 130.004 759.34 130.512C759.34 131.426 759.641 132.152 760.242 132.691C760.852 133.223 761.66 133.488 762.668 133.488ZM757.324 130.559C757.324 129.543 757.594 128.645 758.133 127.863C758.68 127.082 759.656 126.293 761.062 125.496C760.398 124.754 759.945 124.191 759.703 123.809C759.469 123.426 759.281 123.027 759.141 122.613C759 122.199 758.93 121.77 758.93 121.324C758.93 120.152 759.312 119.238 760.078 118.582C760.844 117.926 761.91 117.598 763.277 117.598C764.543 117.598 765.539 117.926 766.266 118.582C766.992 119.23 767.355 120.137 767.355 121.301C767.355 122.137 767.09 122.91 766.559 123.621C766.027 124.324 765.148 125.039 763.922 125.766L768.691 130.348C769.129 129.863 769.477 129.297 769.734 128.648C770 127.992 770.223 127.277 770.402 126.504H772.371C771.84 128.738 771.039 130.434 769.969 131.59L773.473 135H770.789L768.621 132.914C767.699 133.742 766.762 134.336 765.809 134.695C764.855 135.055 763.793 135.234 762.621 135.234C760.941 135.234 759.637 134.82 758.707 133.992C757.785 133.164 757.324 132.02 757.324 130.559ZM792.914 128.566C792.914 130.66 792.387 132.297 791.332 133.477C790.277 134.648 788.82 135.234 786.961 135.234C785.812 135.234 784.793 134.965 783.902 134.426C783.012 133.887 782.324 133.113 781.84 132.105C781.355 131.098 781.113 129.918 781.113 128.566C781.113 126.473 781.637 124.844 782.684 123.68C783.73 122.508 785.184 121.922 787.043 121.922C788.84 121.922 790.266 122.52 791.32 123.715C792.383 124.91 792.914 126.527 792.914 128.566ZM783.129 128.566C783.129 130.207 783.457 131.457 784.113 132.316C784.77 133.176 785.734 133.605 787.008 133.605C788.281 133.605 789.246 133.18 789.902 132.328C790.566 131.469 790.898 130.215 790.898 128.566C790.898 126.934 790.566 125.695 789.902 124.852C789.246 124 788.273 123.574 786.984 123.574C785.711 123.574 784.75 123.992 784.102 124.828C783.453 125.664 783.129 126.91 783.129 128.566ZM800.484 133.629C800.828 133.629 801.16 133.605 801.48 133.559C801.801 133.504 802.055 133.449 802.242 133.395V134.883C802.031 134.984 801.719 135.066 801.305 135.129C800.898 135.199 800.531 135.234 800.203 135.234C797.719 135.234 796.477 133.926 796.477 131.309V123.668H794.637V122.73L796.477 121.922L797.297 119.18H798.422V122.156H802.148V123.668H798.422V131.227C798.422 132 798.605 132.594 798.973 133.008C799.34 133.422 799.844 133.629 800.484 133.629ZM813.609 135V126.691C813.609 125.645 813.371 124.863 812.895 124.348C812.418 123.832 811.672 123.574 810.656 123.574C809.305 123.574 808.316 123.941 807.691 124.676C807.074 125.41 806.766 126.613 806.766 128.285V135H804.82V116.766H806.766V122.285C806.766 122.949 806.734 123.5 806.672 123.938H806.789C807.172 123.32 807.715 122.836 808.418 122.484C809.129 122.125 809.938 121.945 810.844 121.945C812.414 121.945 813.59 122.32 814.371 123.07C815.16 123.812 815.555 124.996 815.555 126.621V135H813.609ZM824.988 135.234C823.09 135.234 821.59 134.656 820.488 133.5C819.395 132.344 818.848 130.738 818.848 128.684C818.848 126.613 819.355 124.969 820.371 123.75C821.395 122.531 822.766 121.922 824.484 121.922C826.094 121.922 827.367 122.453 828.305 123.516C829.242 124.57 829.711 125.965 829.711 127.699V128.93H820.863C820.902 130.438 821.281 131.582 822 132.363C822.727 133.145 823.746 133.535 825.059 133.535C826.441 133.535 827.809 133.246 829.16 132.668V134.402C828.473 134.699 827.82 134.91 827.203 135.035C826.594 135.168 825.855 135.234 824.988 135.234ZM824.461 123.551C823.43 123.551 822.605 123.887 821.988 124.559C821.379 125.23 821.02 126.16 820.91 127.348H827.625C827.625 126.121 827.352 125.184 826.805 124.535C826.258 123.879 825.477 123.551 824.461 123.551ZM838.898 121.922C839.469 121.922 839.98 121.969 840.434 122.062L840.164 123.867C839.633 123.75 839.164 123.691 838.758 123.691C837.719 123.691 836.828 124.113 836.086 124.957C835.352 125.801 834.984 126.852 834.984 128.109V135H833.039V122.156H834.645L834.867 124.535H834.961C835.438 123.699 836.012 123.055 836.684 122.602C837.355 122.148 838.094 121.922 838.898 121.922ZM854.859 123.668H851.59V135H849.645V123.668H847.348V122.789L849.645 122.086V121.371C849.645 118.215 851.023 116.637 853.781 116.637C854.461 116.637 855.258 116.773 856.172 117.047L855.668 118.605C854.918 118.363 854.277 118.242 853.746 118.242C853.012 118.242 852.469 118.488 852.117 118.98C851.766 119.465 851.59 120.246 851.59 121.324V122.156H854.859V123.668ZM859.148 135H857.203V122.156H859.148V135ZM857.039 118.676C857.039 118.23 857.148 117.906 857.367 117.703C857.586 117.492 857.859 117.387 858.188 117.387C858.5 117.387 858.77 117.492 858.996 117.703C859.223 117.914 859.336 118.238 859.336 118.676C859.336 119.113 859.223 119.441 858.996 119.66C858.77 119.871 858.5 119.977 858.188 119.977C857.859 119.977 857.586 119.871 857.367 119.66C857.148 119.441 857.039 119.113 857.039 118.676ZM868.699 135.234C866.801 135.234 865.301 134.656 864.199 133.5C863.105 132.344 862.559 130.738 862.559 128.684C862.559 126.613 863.066 124.969 864.082 123.75C865.105 122.531 866.477 121.922 868.195 121.922C869.805 121.922 871.078 122.453 872.016 123.516C872.953 124.57 873.422 125.965 873.422 127.699V128.93H864.574C864.613 130.438 864.992 131.582 865.711 132.363C866.438 133.145 867.457 133.535 868.77 133.535C870.152 133.535 871.52 133.246 872.871 132.668V134.402C872.184 134.699 871.531 134.91 870.914 135.035C870.305 135.168 869.566 135.234 868.699 135.234ZM868.172 123.551C867.141 123.551 866.316 123.887 865.699 124.559C865.09 125.23 864.73 126.16 864.621 127.348H871.336C871.336 126.121 871.062 125.184 870.516 124.535C869.969 123.879 869.188 123.551 868.172 123.551ZM878.695 135H876.75V116.766H878.695V135ZM891.562 133.277H891.457C890.559 134.582 889.215 135.234 887.426 135.234C885.746 135.234 884.438 134.66 883.5 133.512C882.57 132.363 882.105 130.73 882.105 128.613C882.105 126.496 882.574 124.852 883.512 123.68C884.449 122.508 885.754 121.922 887.426 121.922C889.168 121.922 890.504 122.555 891.434 123.82H891.586L891.504 122.895L891.457 121.992V116.766H893.402V135H891.82L891.562 133.277ZM887.672 133.605C889 133.605 889.961 133.246 890.555 132.527C891.156 131.801 891.457 130.633 891.457 129.023V128.613C891.457 126.793 891.152 125.496 890.543 124.723C889.941 123.941 888.977 123.551 887.648 123.551C886.508 123.551 885.633 123.996 885.023 124.887C884.422 125.77 884.121 127.02 884.121 128.637C884.121 130.277 884.422 131.516 885.023 132.352C885.625 133.188 886.508 133.605 887.672 133.605ZM905.824 131.496C905.824 132.691 905.379 133.613 904.488 134.262C903.598 134.91 902.348 135.234 900.738 135.234C899.035 135.234 897.707 134.965 896.754 134.426V132.621C897.371 132.934 898.031 133.18 898.734 133.359C899.445 133.539 900.129 133.629 900.785 133.629C901.801 133.629 902.582 133.469 903.129 133.148C903.676 132.82 903.949 132.324 903.949 131.66C903.949 131.16 903.73 130.734 903.293 130.383C902.863 130.023 902.02 129.602 900.762 129.117C899.566 128.672 898.715 128.285 898.207 127.957C897.707 127.621 897.332 127.242 897.082 126.82C896.84 126.398 896.719 125.895 896.719 125.309C896.719 124.262 897.145 123.438 897.996 122.836C898.848 122.227 900.016 121.922 901.5 121.922C902.883 121.922 904.234 122.203 905.555 122.766L904.863 124.348C903.574 123.816 902.406 123.551 901.359 123.551C900.438 123.551 899.742 123.695 899.273 123.984C898.805 124.273 898.57 124.672 898.57 125.18C898.57 125.523 898.656 125.816 898.828 126.059C899.008 126.301 899.293 126.531 899.684 126.75C900.074 126.969 900.824 127.285 901.934 127.699C903.457 128.254 904.484 128.812 905.016 129.375C905.555 129.938 905.824 130.645 905.824 131.496Z" fill="black"/>
<path d="M1276.49 102.234C1274.59 102.234 1273.09 101.656 1271.99 100.5C1270.89 99.3438 1270.35 97.7383 1270.35 95.6836C1270.35 93.6133 1270.86 91.9688 1271.87 90.75C1272.89 89.5312 1274.27 88.9219 1275.98 88.9219C1277.59 88.9219 1278.87 89.4531 1279.8 90.5156C1280.74 91.5703 1281.21 92.9648 1281.21 94.6992V95.9297H1272.36C1272.4 97.4375 1272.78 98.582 1273.5 99.3633C1274.23 100.145 1275.25 100.535 1276.56 100.535C1277.94 100.535 1279.31 100.246 1280.66 99.668V101.402C1279.97 101.699 1279.32 101.91 1278.7 102.035C1278.09 102.168 1277.36 102.234 1276.49 102.234ZM1275.96 90.5508C1274.93 90.5508 1274.11 90.8867 1273.49 91.5586C1272.88 92.2305 1272.52 93.1602 1272.41 94.3477H1279.12C1279.12 93.1211 1278.85 92.1836 1278.3 91.5352C1277.76 90.8789 1276.98 90.5508 1275.96 90.5508ZM1293.33 102V93.6914C1293.33 92.6445 1293.09 91.8633 1292.61 91.3477C1292.14 90.832 1291.39 90.5742 1290.38 90.5742C1289.03 90.5742 1288.05 90.9375 1287.42 91.6641C1286.8 92.3906 1286.48 93.5898 1286.48 95.2617V102H1284.54V89.1562H1286.12L1286.44 90.9141H1286.53C1286.93 90.2812 1287.49 89.793 1288.21 89.4492C1288.93 89.0977 1289.73 88.9219 1290.61 88.9219C1292.16 88.9219 1293.32 89.2969 1294.1 90.0469C1294.88 90.7891 1295.27 91.9805 1295.27 93.6211V102H1293.33ZM1304.41 102.234C1302.55 102.234 1301.11 101.664 1300.09 100.523C1299.07 99.375 1298.57 97.7539 1298.57 95.6602C1298.57 93.5117 1299.08 91.8516 1300.11 90.6797C1301.15 89.5078 1302.63 88.9219 1304.54 88.9219C1305.16 88.9219 1305.78 88.9883 1306.39 89.1211C1307.01 89.2539 1307.5 89.4102 1307.85 89.5898L1307.25 91.2422C1306.82 91.0703 1306.35 90.9297 1305.84 90.8203C1305.34 90.7031 1304.89 90.6445 1304.5 90.6445C1301.89 90.6445 1300.58 92.3086 1300.58 95.6367C1300.58 97.2148 1300.9 98.4258 1301.53 99.2695C1302.17 100.113 1303.12 100.535 1304.37 100.535C1305.44 100.535 1306.54 100.305 1307.66 99.8438V101.566C1306.8 102.012 1305.72 102.234 1304.41 102.234ZM1316.58 88.9219C1317.15 88.9219 1317.66 88.9688 1318.11 89.0625L1317.84 90.8672C1317.31 90.75 1316.84 90.6914 1316.44 90.6914C1315.4 90.6914 1314.51 91.1133 1313.77 91.957C1313.03 92.8008 1312.66 93.8516 1312.66 95.1094V102H1310.72V89.1562H1312.32L1312.55 91.5352H1312.64C1313.12 90.6992 1313.69 90.0547 1314.36 89.6016C1315.04 89.1484 1315.77 88.9219 1316.58 88.9219ZM1318.48 89.1562H1320.56L1323.38 96.4805C1323.99 98.1523 1324.38 99.3594 1324.52 100.102H1324.62C1324.72 99.7031 1324.93 99.0234 1325.25 98.0625C1325.58 97.0938 1326.64 94.125 1328.44 89.1562H1330.52L1325 103.781C1324.46 105.227 1323.82 106.25 1323.08 106.852C1322.36 107.461 1321.46 107.766 1320.4 107.766C1319.8 107.766 1319.22 107.699 1318.64 107.566V106.008C1319.07 106.102 1319.55 106.148 1320.08 106.148C1321.42 106.148 1322.37 105.398 1322.94 103.898L1323.66 102.07L1318.48 89.1562ZM1338.59 102.234C1337.75 102.234 1336.98 102.082 1336.29 101.777C1335.6 101.465 1335.02 100.988 1334.55 100.348H1334.41C1334.51 101.098 1334.55 101.809 1334.55 102.48V107.766H1332.61V89.1562H1334.19L1334.46 90.9141H1334.55C1335.05 90.2109 1335.64 89.7031 1336.3 89.3906C1336.96 89.0781 1337.73 88.9219 1338.59 88.9219C1340.29 88.9219 1341.6 89.5039 1342.52 90.668C1343.45 91.832 1343.92 93.4648 1343.92 95.5664C1343.92 97.6758 1343.45 99.3164 1342.5 100.488C1341.56 101.652 1340.26 102.234 1338.59 102.234ZM1338.3 90.5742C1336.99 90.5742 1336.04 90.9375 1335.46 91.6641C1334.87 92.3906 1334.57 93.5469 1334.55 95.1328V95.5664C1334.55 97.3711 1334.86 98.6641 1335.46 99.4453C1336.06 100.219 1337.02 100.605 1338.35 100.605C1339.46 100.605 1340.33 100.156 1340.95 99.2578C1341.59 98.3594 1341.9 97.1211 1341.9 95.543C1341.9 93.9414 1341.59 92.7148 1340.95 91.8633C1340.33 91.0039 1339.45 90.5742 1338.3 90.5742ZM1351.48 100.629C1351.82 100.629 1352.15 100.605 1352.47 100.559C1352.79 100.504 1353.05 100.449 1353.23 100.395V101.883C1353.02 101.984 1352.71 102.066 1352.3 102.129C1351.89 102.199 1351.52 102.234 1351.2 102.234C1348.71 102.234 1347.47 100.926 1347.47 98.3086V90.668H1345.63V89.7305L1347.47 88.9219L1348.29 86.1797H1349.41V89.1562H1353.14V90.668H1349.41V98.2266C1349.41 99 1349.6 99.5938 1349.96 100.008C1350.33 100.422 1350.84 100.629 1351.48 100.629ZM1361.24 102.234C1359.34 102.234 1357.84 101.656 1356.74 100.5C1355.64 99.3438 1355.1 97.7383 1355.1 95.6836C1355.1 93.6133 1355.61 91.9688 1356.62 90.75C1357.64 89.5312 1359.02 88.9219 1360.73 88.9219C1362.34 88.9219 1363.62 89.4531 1364.55 90.5156C1365.49 91.5703 1365.96 92.9648 1365.96 94.6992V95.9297H1357.11C1357.15 97.4375 1357.53 98.582 1358.25 99.3633C1358.98 100.145 1360 100.535 1361.31 100.535C1362.69 100.535 1364.06 100.246 1365.41 99.668V101.402C1364.72 101.699 1364.07 101.91 1363.45 102.035C1362.84 102.168 1362.11 102.234 1361.24 102.234ZM1360.71 90.5508C1359.68 90.5508 1358.86 90.8867 1358.24 91.5586C1357.63 92.2305 1357.27 93.1602 1357.16 94.3477H1363.88C1363.88 93.1211 1363.6 92.1836 1363.05 91.5352C1362.51 90.8789 1361.73 90.5508 1360.71 90.5508ZM1378.03 100.277H1377.93C1377.03 101.582 1375.68 102.234 1373.89 102.234C1372.21 102.234 1370.91 101.66 1369.97 100.512C1369.04 99.3633 1368.57 97.7305 1368.57 95.6133C1368.57 93.4961 1369.04 91.8516 1369.98 90.6797C1370.92 89.5078 1372.22 88.9219 1373.89 88.9219C1375.64 88.9219 1376.97 89.5547 1377.9 90.8203H1378.05L1377.97 89.8945L1377.93 88.9922V83.7656H1379.87V102H1378.29L1378.03 100.277ZM1374.14 100.605C1375.47 100.605 1376.43 100.246 1377.02 99.5273C1377.62 98.8008 1377.93 97.6328 1377.93 96.0234V95.6133C1377.93 93.793 1377.62 92.4961 1377.01 91.7227C1376.41 90.9414 1375.45 90.5508 1374.12 90.5508C1372.98 90.5508 1372.1 90.9961 1371.49 91.8867C1370.89 92.7695 1370.59 94.0195 1370.59 95.6367C1370.59 97.2773 1370.89 98.5156 1371.49 99.3516C1372.09 100.188 1372.98 100.605 1374.14 100.605ZM1399.03 102V93.6914C1399.03 92.6445 1398.79 91.8633 1398.32 91.3477C1397.84 90.832 1397.09 90.5742 1396.08 90.5742C1394.73 90.5742 1393.75 90.9375 1393.12 91.6641C1392.5 92.3906 1392.19 93.5898 1392.19 95.2617V102H1390.24V89.1562H1391.82L1392.14 90.9141H1392.23C1392.63 90.2812 1393.19 89.793 1393.91 89.4492C1394.63 89.0977 1395.43 88.9219 1396.31 88.9219C1397.86 88.9219 1399.02 89.2969 1399.8 90.0469C1400.59 90.7891 1400.98 91.9805 1400.98 93.6211V102H1399.03ZM1416.07 95.5664C1416.07 97.6602 1415.54 99.2969 1414.49 100.477C1413.43 101.648 1411.98 102.234 1410.12 102.234C1408.97 102.234 1407.95 101.965 1407.06 101.426C1406.17 100.887 1405.48 100.113 1405 99.1055C1404.51 98.0977 1404.27 96.918 1404.27 95.5664C1404.27 93.4727 1404.79 91.8438 1405.84 90.6797C1406.89 89.5078 1408.34 88.9219 1410.2 88.9219C1412 88.9219 1413.42 89.5195 1414.48 90.7148C1415.54 91.9102 1416.07 93.5273 1416.07 95.5664ZM1406.29 95.5664C1406.29 97.207 1406.61 98.457 1407.27 99.3164C1407.93 100.176 1408.89 100.605 1410.16 100.605C1411.44 100.605 1412.4 100.18 1413.06 99.3281C1413.72 98.4688 1414.05 97.2148 1414.05 95.5664C1414.05 93.9336 1413.72 92.6953 1413.06 91.8516C1412.4 91 1411.43 90.5742 1410.14 90.5742C1408.87 90.5742 1407.91 90.9922 1407.26 91.8281C1406.61 92.6641 1406.29 93.9102 1406.29 95.5664ZM1423.64 100.629C1423.98 100.629 1424.32 100.605 1424.64 100.559C1424.96 100.504 1425.21 100.449 1425.4 100.395V101.883C1425.19 101.984 1424.88 102.066 1424.46 102.129C1424.05 102.199 1423.69 102.234 1423.36 102.234C1420.88 102.234 1419.63 100.926 1419.63 98.3086V90.668H1417.79V89.7305L1419.63 88.9219L1420.45 86.1797H1421.58V89.1562H1425.3V90.668H1421.58V98.2266C1421.58 99 1421.76 99.5938 1422.13 100.008C1422.5 100.422 1423 100.629 1423.64 100.629ZM1433.4 102.234C1431.5 102.234 1430 101.656 1428.9 100.5C1427.81 99.3438 1427.26 97.7383 1427.26 95.6836C1427.26 93.6133 1427.77 91.9688 1428.79 90.75C1429.81 89.5312 1431.18 88.9219 1432.9 88.9219C1434.51 88.9219 1435.78 89.4531 1436.72 90.5156C1437.66 91.5703 1438.12 92.9648 1438.12 94.6992V95.9297H1429.28C1429.32 97.4375 1429.7 98.582 1430.41 99.3633C1431.14 100.145 1432.16 100.535 1433.47 100.535C1434.86 100.535 1436.22 100.246 1437.57 99.668V101.402C1436.89 101.699 1436.23 101.91 1435.62 102.035C1435.01 102.168 1434.27 102.234 1433.4 102.234ZM1432.88 90.5508C1431.84 90.5508 1431.02 90.8867 1430.4 91.5586C1429.79 92.2305 1429.43 93.1602 1429.32 94.3477H1436.04C1436.04 93.1211 1435.77 92.1836 1435.22 91.5352C1434.67 90.8789 1433.89 90.5508 1432.88 90.5508ZM1273.85 121.277C1273.85 121.816 1273.99 122.332 1274.27 122.824C1274.55 123.309 1275.04 123.895 1275.71 124.582C1276.72 123.996 1277.42 123.457 1277.81 122.965C1278.21 122.465 1278.41 121.891 1278.41 121.242C1278.41 120.641 1278.21 120.152 1277.8 119.777C1277.4 119.395 1276.87 119.203 1276.2 119.203C1275.5 119.203 1274.93 119.391 1274.5 119.766C1274.07 120.141 1273.85 120.645 1273.85 121.277ZM1275.67 133.488C1277.55 133.488 1279.11 132.887 1280.36 131.684L1275.23 126.715C1274.37 127.246 1273.75 127.688 1273.39 128.039C1273.04 128.383 1272.77 128.754 1272.6 129.152C1272.43 129.551 1272.34 130.004 1272.34 130.512C1272.34 131.426 1272.64 132.152 1273.24 132.691C1273.85 133.223 1274.66 133.488 1275.67 133.488ZM1270.32 130.559C1270.32 129.543 1270.59 128.645 1271.13 127.863C1271.68 127.082 1272.66 126.293 1274.06 125.496C1273.4 124.754 1272.95 124.191 1272.7 123.809C1272.47 123.426 1272.28 123.027 1272.14 122.613C1272 122.199 1271.93 121.77 1271.93 121.324C1271.93 120.152 1272.31 119.238 1273.08 118.582C1273.84 117.926 1274.91 117.598 1276.28 117.598C1277.54 117.598 1278.54 117.926 1279.27 118.582C1279.99 119.23 1280.36 120.137 1280.36 121.301C1280.36 122.137 1280.09 122.91 1279.56 123.621C1279.03 124.324 1278.15 125.039 1276.92 125.766L1281.69 130.348C1282.13 129.863 1282.48 129.297 1282.73 128.648C1283 127.992 1283.22 127.277 1283.4 126.504H1285.37C1284.84 128.738 1284.04 130.434 1282.97 131.59L1286.47 135H1283.79L1281.62 132.914C1280.7 133.742 1279.76 134.336 1278.81 134.695C1277.86 135.055 1276.79 135.234 1275.62 135.234C1273.94 135.234 1272.64 134.82 1271.71 133.992C1270.79 133.164 1270.32 132.02 1270.32 130.559ZM1305.91 128.566C1305.91 130.66 1305.39 132.297 1304.33 133.477C1303.28 134.648 1301.82 135.234 1299.96 135.234C1298.81 135.234 1297.79 134.965 1296.9 134.426C1296.01 133.887 1295.32 133.113 1294.84 132.105C1294.36 131.098 1294.11 129.918 1294.11 128.566C1294.11 126.473 1294.64 124.844 1295.68 123.68C1296.73 122.508 1298.18 121.922 1300.04 121.922C1301.84 121.922 1303.27 122.52 1304.32 123.715C1305.38 124.91 1305.91 126.527 1305.91 128.566ZM1296.13 128.566C1296.13 130.207 1296.46 131.457 1297.11 132.316C1297.77 133.176 1298.73 133.605 1300.01 133.605C1301.28 133.605 1302.25 133.18 1302.9 132.328C1303.57 131.469 1303.9 130.215 1303.9 128.566C1303.9 126.934 1303.57 125.695 1302.9 124.852C1302.25 124 1301.27 123.574 1299.98 123.574C1298.71 123.574 1297.75 123.992 1297.1 124.828C1296.45 125.664 1296.13 126.91 1296.13 128.566ZM1313.48 133.629C1313.83 133.629 1314.16 133.605 1314.48 133.559C1314.8 133.504 1315.05 133.449 1315.24 133.395V134.883C1315.03 134.984 1314.72 135.066 1314.3 135.129C1313.9 135.199 1313.53 135.234 1313.2 135.234C1310.72 135.234 1309.48 133.926 1309.48 131.309V123.668H1307.64V122.73L1309.48 121.922L1310.3 119.18H1311.42V122.156H1315.15V123.668H1311.42V131.227C1311.42 132 1311.61 132.594 1311.97 133.008C1312.34 133.422 1312.84 133.629 1313.48 133.629ZM1326.61 135V126.691C1326.61 125.645 1326.37 124.863 1325.89 124.348C1325.42 123.832 1324.67 123.574 1323.66 123.574C1322.3 123.574 1321.32 123.941 1320.69 124.676C1320.07 125.41 1319.77 126.613 1319.77 128.285V135H1317.82V116.766H1319.77V122.285C1319.77 122.949 1319.73 123.5 1319.67 123.938H1319.79C1320.17 123.32 1320.71 122.836 1321.42 122.484C1322.13 122.125 1322.94 121.945 1323.84 121.945C1325.41 121.945 1326.59 122.32 1327.37 123.07C1328.16 123.812 1328.55 124.996 1328.55 126.621V135H1326.61ZM1337.99 135.234C1336.09 135.234 1334.59 134.656 1333.49 133.5C1332.39 132.344 1331.85 130.738 1331.85 128.684C1331.85 126.613 1332.36 124.969 1333.37 123.75C1334.39 122.531 1335.77 121.922 1337.48 121.922C1339.09 121.922 1340.37 122.453 1341.3 123.516C1342.24 124.57 1342.71 125.965 1342.71 127.699V128.93H1333.86C1333.9 130.438 1334.28 131.582 1335 132.363C1335.73 133.145 1336.75 133.535 1338.06 133.535C1339.44 133.535 1340.81 133.246 1342.16 132.668V134.402C1341.47 134.699 1340.82 134.91 1340.2 135.035C1339.59 135.168 1338.86 135.234 1337.99 135.234ZM1337.46 123.551C1336.43 123.551 1335.61 123.887 1334.99 124.559C1334.38 125.23 1334.02 126.16 1333.91 127.348H1340.62C1340.62 126.121 1340.35 125.184 1339.8 124.535C1339.26 123.879 1338.48 123.551 1337.46 123.551ZM1351.9 121.922C1352.47 121.922 1352.98 121.969 1353.43 122.062L1353.16 123.867C1352.63 123.75 1352.16 123.691 1351.76 123.691C1350.72 123.691 1349.83 124.113 1349.09 124.957C1348.35 125.801 1347.98 126.852 1347.98 128.109V135H1346.04V122.156H1347.64L1347.87 124.535H1347.96C1348.44 123.699 1349.01 123.055 1349.68 122.602C1350.36 122.148 1351.09 121.922 1351.9 121.922ZM1367.86 123.668H1364.59V135H1362.64V123.668H1360.35V122.789L1362.64 122.086V121.371C1362.64 118.215 1364.02 116.637 1366.78 116.637C1367.46 116.637 1368.26 116.773 1369.17 117.047L1368.67 118.605C1367.92 118.363 1367.28 118.242 1366.75 118.242C1366.01 118.242 1365.47 118.488 1365.12 118.98C1364.77 119.465 1364.59 120.246 1364.59 121.324V122.156H1367.86V123.668ZM1372.15 135H1370.2V122.156H1372.15V135ZM1370.04 118.676C1370.04 118.23 1370.15 117.906 1370.37 117.703C1370.59 117.492 1370.86 117.387 1371.19 117.387C1371.5 117.387 1371.77 117.492 1372 117.703C1372.22 117.914 1372.34 118.238 1372.34 118.676C1372.34 119.113 1372.22 119.441 1372 119.66C1371.77 119.871 1371.5 119.977 1371.19 119.977C1370.86 119.977 1370.59 119.871 1370.37 119.66C1370.15 119.441 1370.04 119.113 1370.04 118.676ZM1381.7 135.234C1379.8 135.234 1378.3 134.656 1377.2 133.5C1376.11 132.344 1375.56 130.738 1375.56 128.684C1375.56 126.613 1376.07 124.969 1377.08 123.75C1378.11 122.531 1379.48 121.922 1381.2 121.922C1382.8 121.922 1384.08 122.453 1385.02 123.516C1385.95 124.57 1386.42 125.965 1386.42 127.699V128.93H1377.57C1377.61 130.438 1377.99 131.582 1378.71 132.363C1379.44 133.145 1380.46 133.535 1381.77 133.535C1383.15 133.535 1384.52 133.246 1385.87 132.668V134.402C1385.18 134.699 1384.53 134.91 1383.91 135.035C1383.3 135.168 1382.57 135.234 1381.7 135.234ZM1381.17 123.551C1380.14 123.551 1379.32 123.887 1378.7 124.559C1378.09 125.23 1377.73 126.16 1377.62 127.348H1384.34C1384.34 126.121 1384.06 125.184 1383.52 124.535C1382.97 123.879 1382.19 123.551 1381.17 123.551ZM1391.7 135H1389.75V116.766H1391.7V135ZM1404.56 133.277H1404.46C1403.56 134.582 1402.21 135.234 1400.43 135.234C1398.75 135.234 1397.44 134.66 1396.5 133.512C1395.57 132.363 1395.11 130.73 1395.11 128.613C1395.11 126.496 1395.57 124.852 1396.51 123.68C1397.45 122.508 1398.75 121.922 1400.43 121.922C1402.17 121.922 1403.5 122.555 1404.43 123.82H1404.59L1404.5 122.895L1404.46 121.992V116.766H1406.4V135H1404.82L1404.56 133.277ZM1400.67 133.605C1402 133.605 1402.96 133.246 1403.55 132.527C1404.16 131.801 1404.46 130.633 1404.46 129.023V128.613C1404.46 126.793 1404.15 125.496 1403.54 124.723C1402.94 123.941 1401.98 123.551 1400.65 123.551C1399.51 123.551 1398.63 123.996 1398.02 124.887C1397.42 125.77 1397.12 127.02 1397.12 128.637C1397.12 130.277 1397.42 131.516 1398.02 132.352C1398.62 133.188 1399.51 133.605 1400.67 133.605ZM1418.82 131.496C1418.82 132.691 1418.38 133.613 1417.49 134.262C1416.6 134.91 1415.35 135.234 1413.74 135.234C1412.04 135.234 1410.71 134.965 1409.75 134.426V132.621C1410.37 132.934 1411.03 133.18 1411.73 133.359C1412.45 133.539 1413.13 133.629 1413.79 133.629C1414.8 133.629 1415.58 133.469 1416.13 133.148C1416.68 132.82 1416.95 132.324 1416.95 131.66C1416.95 131.16 1416.73 130.734 1416.29 130.383C1415.86 130.023 1415.02 129.602 1413.76 129.117C1412.57 128.672 1411.71 128.285 1411.21 127.957C1410.71 127.621 1410.33 127.242 1410.08 126.82C1409.84 126.398 1409.72 125.895 1409.72 125.309C1409.72 124.262 1410.14 123.438 1411 122.836C1411.85 122.227 1413.02 121.922 1414.5 121.922C1415.88 121.922 1417.23 122.203 1418.55 122.766L1417.86 124.348C1416.57 123.816 1415.41 123.551 1414.36 123.551C1413.44 123.551 1412.74 123.695 1412.27 123.984C1411.8 124.273 1411.57 124.672 1411.57 125.18C1411.57 125.523 1411.66 125.816 1411.83 126.059C1412.01 126.301 1412.29 126.531 1412.68 126.75C1413.07 126.969 1413.82 127.285 1414.93 127.699C1416.46 128.254 1417.48 128.812 1418.02 129.375C1418.55 129.938 1418.82 130.645 1418.82 131.496Z" fill="black"/>
<path d="M96.3555 222.242C96.3555 223.789 95.7969 225.008 94.6797 225.898C93.5703 226.789 92.0234 227.234 90.0391 227.234C88.2109 227.234 86.5938 226.891 85.1875 226.203V222.828C86.3438 223.344 87.3203 223.707 88.1172 223.918C88.9219 224.129 89.6562 224.234 90.3203 224.234C91.1172 224.234 91.7266 224.082 92.1484 223.777C92.5781 223.473 92.793 223.02 92.793 222.418C92.793 222.082 92.6992 221.785 92.5117 221.527C92.3242 221.262 92.0469 221.008 91.6797 220.766C91.3203 220.523 90.582 220.137 89.4648 219.605C88.418 219.113 87.6328 218.641 87.1094 218.188C86.5859 217.734 86.168 217.207 85.8555 216.605C85.543 216.004 85.3867 215.301 85.3867 214.496C85.3867 212.98 85.8984 211.789 86.9219 210.922C87.9531 210.055 89.375 209.621 91.1875 209.621C92.0781 209.621 92.9258 209.727 93.7305 209.938C94.543 210.148 95.3906 210.445 96.2734 210.828L95.1016 213.652C94.1875 213.277 93.4297 213.016 92.8281 212.867C92.2344 212.719 91.6484 212.645 91.0703 212.645C90.3828 212.645 89.8555 212.805 89.4883 213.125C89.1211 213.445 88.9375 213.863 88.9375 214.379C88.9375 214.699 89.0117 214.98 89.1602 215.223C89.3086 215.457 89.543 215.688 89.8633 215.914C90.1914 216.133 90.9609 216.531 92.1719 217.109C93.7734 217.875 94.8711 218.645 95.4648 219.418C96.0586 220.184 96.3555 221.125 96.3555 222.242ZM106.375 227.234C104.836 227.234 103.629 226.676 102.754 225.559H102.566C102.691 226.652 102.754 227.285 102.754 227.457V232.766H99.1797V213.898H102.086L102.59 215.598H102.754C103.59 214.301 104.828 213.652 106.469 213.652C108.016 213.652 109.227 214.25 110.102 215.445C110.977 216.641 111.414 218.301 111.414 220.426C111.414 221.824 111.207 223.039 110.793 224.07C110.387 225.102 109.805 225.887 109.047 226.426C108.289 226.965 107.398 227.234 106.375 227.234ZM105.32 216.512C104.438 216.512 103.793 216.785 103.387 217.332C102.98 217.871 102.77 218.766 102.754 220.016V220.402C102.754 221.809 102.961 222.816 103.375 223.426C103.797 224.035 104.461 224.34 105.367 224.34C106.969 224.34 107.77 223.02 107.77 220.379C107.77 219.09 107.57 218.125 107.172 217.484C106.781 216.836 106.164 216.512 105.32 216.512ZM119.793 216.195C119.035 216.195 118.441 216.438 118.012 216.922C117.582 217.398 117.336 218.078 117.273 218.961H122.289C122.273 218.078 122.043 217.398 121.598 216.922C121.152 216.438 120.551 216.195 119.793 216.195ZM120.297 227.234C118.188 227.234 116.539 226.652 115.352 225.488C114.164 224.324 113.57 222.676 113.57 220.543C113.57 218.348 114.117 216.652 115.211 215.457C116.312 214.254 117.832 213.652 119.77 213.652C121.621 213.652 123.062 214.18 124.094 215.234C125.125 216.289 125.641 217.746 125.641 219.605V221.34H117.191C117.23 222.355 117.531 223.148 118.094 223.719C118.656 224.289 119.445 224.574 120.461 224.574C121.25 224.574 121.996 224.492 122.699 224.328C123.402 224.164 124.137 223.902 124.902 223.543V226.309C124.277 226.621 123.609 226.852 122.898 227C122.188 227.156 121.32 227.234 120.297 227.234ZM140.641 227H137.066V219.348C137.066 218.402 136.898 217.695 136.562 217.227C136.227 216.75 135.691 216.512 134.957 216.512C133.957 216.512 133.234 216.848 132.789 217.52C132.344 218.184 132.121 219.289 132.121 220.836V227H128.547V213.898H131.277L131.758 215.574H131.957C132.355 214.941 132.902 214.465 133.598 214.145C134.301 213.816 135.098 213.652 135.988 213.652C137.512 213.652 138.668 214.066 139.457 214.895C140.246 215.715 140.641 216.902 140.641 218.457V227ZM148.469 227.234C146.93 227.234 145.719 226.637 144.836 225.441C143.961 224.246 143.523 222.59 143.523 220.473C143.523 218.324 143.969 216.652 144.859 215.457C145.758 214.254 146.992 213.652 148.562 213.652C150.211 213.652 151.469 214.293 152.336 215.574H152.453C152.273 214.598 152.184 213.727 152.184 212.961V208.766H155.77V227H153.027L152.336 225.301H152.184C151.371 226.59 150.133 227.234 148.469 227.234ZM149.723 224.387C150.637 224.387 151.305 224.121 151.727 223.59C152.156 223.059 152.391 222.156 152.43 220.883V220.496C152.43 219.09 152.211 218.082 151.773 217.473C151.344 216.863 150.641 216.559 149.664 216.559C148.867 216.559 148.246 216.898 147.801 217.578C147.363 218.25 147.145 219.23 147.145 220.52C147.145 221.809 147.367 222.777 147.812 223.426C148.258 224.066 148.895 224.387 149.723 224.387ZM180.238 218.27C180.238 221.09 179.434 223.25 177.824 224.75C176.223 226.25 173.906 227 170.875 227H166.023V209.867H171.402C174.199 209.867 176.371 210.605 177.918 212.082C179.465 213.559 180.238 215.621 180.238 218.27ZM176.465 218.363C176.465 214.684 174.84 212.844 171.59 212.844H169.656V224H171.215C174.715 224 176.465 222.121 176.465 218.363ZM188.934 216.195C188.176 216.195 187.582 216.438 187.152 216.922C186.723 217.398 186.477 218.078 186.414 218.961H191.43C191.414 218.078 191.184 217.398 190.738 216.922C190.293 216.438 189.691 216.195 188.934 216.195ZM189.438 227.234C187.328 227.234 185.68 226.652 184.492 225.488C183.305 224.324 182.711 222.676 182.711 220.543C182.711 218.348 183.258 216.652 184.352 215.457C185.453 214.254 186.973 213.652 188.91 213.652C190.762 213.652 192.203 214.18 193.234 215.234C194.266 216.289 194.781 217.746 194.781 219.605V221.34H186.332C186.371 222.355 186.672 223.148 187.234 223.719C187.797 224.289 188.586 224.574 189.602 224.574C190.391 224.574 191.137 224.492 191.84 224.328C192.543 224.164 193.277 223.902 194.043 223.543V226.309C193.418 226.621 192.75 226.852 192.039 227C191.328 227.156 190.461 227.234 189.438 227.234ZM206.828 223.109C206.828 224.453 206.359 225.477 205.422 226.18C204.492 226.883 203.098 227.234 201.238 227.234C200.285 227.234 199.473 227.168 198.801 227.035C198.129 226.91 197.5 226.723 196.914 226.473V223.52C197.578 223.832 198.324 224.094 199.152 224.305C199.988 224.516 200.723 224.621 201.355 224.621C202.652 224.621 203.301 224.246 203.301 223.496C203.301 223.215 203.215 222.988 203.043 222.816C202.871 222.637 202.574 222.438 202.152 222.219C201.73 221.992 201.168 221.73 200.465 221.434C199.457 221.012 198.715 220.621 198.238 220.262C197.77 219.902 197.426 219.492 197.207 219.031C196.996 218.562 196.891 217.988 196.891 217.309C196.891 216.145 197.34 215.246 198.238 214.613C199.145 213.973 200.426 213.652 202.082 213.652C203.66 213.652 205.195 213.996 206.688 214.684L205.609 217.262C204.953 216.98 204.34 216.75 203.77 216.57C203.199 216.391 202.617 216.301 202.023 216.301C200.969 216.301 200.441 216.586 200.441 217.156C200.441 217.477 200.609 217.754 200.945 217.988C201.289 218.223 202.035 218.57 203.184 219.031C204.207 219.445 204.957 219.832 205.434 220.191C205.91 220.551 206.262 220.965 206.488 221.434C206.715 221.902 206.828 222.461 206.828 223.109ZM214.938 227.234C210.859 227.234 208.82 224.996 208.82 220.52C208.82 218.293 209.375 216.594 210.484 215.422C211.594 214.242 213.184 213.652 215.254 213.652C216.77 213.652 218.129 213.949 219.332 214.543L218.277 217.309C217.715 217.082 217.191 216.898 216.707 216.758C216.223 216.609 215.738 216.535 215.254 216.535C213.395 216.535 212.465 217.855 212.465 220.496C212.465 223.059 213.395 224.34 215.254 224.34C215.941 224.34 216.578 224.25 217.164 224.07C217.75 223.883 218.336 223.594 218.922 223.203V226.262C218.344 226.629 217.758 226.883 217.164 227.023C216.578 227.164 215.836 227.234 214.938 227.234ZM229.281 213.652C229.766 213.652 230.168 213.688 230.488 213.758L230.219 217.109C229.93 217.031 229.578 216.992 229.164 216.992C228.023 216.992 227.133 217.285 226.492 217.871C225.859 218.457 225.543 219.277 225.543 220.332V227H221.969V213.898H224.676L225.203 216.102H225.379C225.785 215.367 226.332 214.777 227.02 214.332C227.715 213.879 228.469 213.652 229.281 213.652ZM232.715 210.512C232.715 209.348 233.363 208.766 234.66 208.766C235.957 208.766 236.605 209.348 236.605 210.512C236.605 211.066 236.441 211.5 236.113 211.812C235.793 212.117 235.309 212.27 234.66 212.27C233.363 212.27 232.715 211.684 232.715 210.512ZM236.441 227H232.867V213.898H236.441V227ZM247.398 227.234C245.859 227.234 244.652 226.676 243.777 225.559H243.59C243.715 226.652 243.777 227.285 243.777 227.457V232.766H240.203V213.898H243.109L243.613 215.598H243.777C244.613 214.301 245.852 213.652 247.492 213.652C249.039 213.652 250.25 214.25 251.125 215.445C252 216.641 252.438 218.301 252.438 220.426C252.438 221.824 252.23 223.039 251.816 224.07C251.41 225.102 250.828 225.887 250.07 226.426C249.312 226.965 248.422 227.234 247.398 227.234ZM246.344 216.512C245.461 216.512 244.816 216.785 244.41 217.332C244.004 217.871 243.793 218.766 243.777 220.016V220.402C243.777 221.809 243.984 222.816 244.398 223.426C244.82 224.035 245.484 224.34 246.391 224.34C247.992 224.34 248.793 223.02 248.793 220.379C248.793 219.09 248.594 218.125 248.195 217.484C247.805 216.836 247.188 216.512 246.344 216.512ZM260.91 224.387C261.535 224.387 262.285 224.25 263.16 223.977V226.637C262.27 227.035 261.176 227.234 259.879 227.234C258.449 227.234 257.406 226.875 256.75 226.156C256.102 225.43 255.777 224.344 255.777 222.898V216.582H254.066V215.07L256.035 213.875L257.066 211.109H259.352V213.898H263.02V216.582H259.352V222.898C259.352 223.406 259.492 223.781 259.773 224.023C260.062 224.266 260.441 224.387 260.91 224.387ZM265.668 210.512C265.668 209.348 266.316 208.766 267.613 208.766C268.91 208.766 269.559 209.348 269.559 210.512C269.559 211.066 269.395 211.5 269.066 211.812C268.746 212.117 268.262 212.27 267.613 212.27C266.316 212.27 265.668 211.684 265.668 210.512ZM269.395 227H265.82V213.898H269.395V227ZM276.004 220.426C276.004 221.723 276.215 222.703 276.637 223.367C277.066 224.031 277.762 224.363 278.723 224.363C279.676 224.363 280.359 224.035 280.773 223.379C281.195 222.715 281.406 221.73 281.406 220.426C281.406 219.129 281.195 218.156 280.773 217.508C280.352 216.859 279.66 216.535 278.699 216.535C277.746 216.535 277.059 216.859 276.637 217.508C276.215 218.148 276.004 219.121 276.004 220.426ZM285.062 220.426C285.062 222.559 284.5 224.227 283.375 225.43C282.25 226.633 280.684 227.234 278.676 227.234C277.418 227.234 276.309 226.961 275.348 226.414C274.387 225.859 273.648 225.066 273.133 224.035C272.617 223.004 272.359 221.801 272.359 220.426C272.359 218.285 272.918 216.621 274.035 215.434C275.152 214.246 276.723 213.652 278.746 213.652C280.004 213.652 281.113 213.926 282.074 214.473C283.035 215.02 283.773 215.805 284.289 216.828C284.805 217.852 285.062 219.051 285.062 220.426ZM300.109 227H296.535V219.348C296.535 218.402 296.367 217.695 296.031 217.227C295.695 216.75 295.16 216.512 294.426 216.512C293.426 216.512 292.703 216.848 292.258 217.52C291.812 218.184 291.59 219.289 291.59 220.836V227H288.016V213.898H290.746L291.227 215.574H291.426C291.824 214.941 292.371 214.465 293.066 214.145C293.77 213.816 294.566 213.652 295.457 213.652C296.98 213.652 298.137 214.066 298.926 214.895C299.715 215.715 300.109 216.902 300.109 218.457V227Z" fill="black"/>
<path d="M673.719 218.41C673.719 221.246 673.016 223.426 671.609 224.949C670.203 226.473 668.188 227.234 665.562 227.234C662.938 227.234 660.922 226.473 659.516 224.949C658.109 223.426 657.406 221.238 657.406 218.387C657.406 215.535 658.109 213.359 659.516 211.859C660.93 210.352 662.953 209.598 665.586 209.598C668.219 209.598 670.23 210.355 671.621 211.871C673.02 213.387 673.719 215.566 673.719 218.41ZM661.215 218.41C661.215 220.324 661.578 221.766 662.305 222.734C663.031 223.703 664.117 224.188 665.562 224.188C668.461 224.188 669.91 222.262 669.91 218.41C669.91 214.551 668.469 212.621 665.586 212.621C664.141 212.621 663.051 213.109 662.316 214.086C661.582 215.055 661.215 216.496 661.215 218.41ZM686.27 227L685.789 225.324H685.602C685.219 225.934 684.676 226.406 683.973 226.742C683.27 227.07 682.469 227.234 681.57 227.234C680.031 227.234 678.871 226.824 678.09 226.004C677.309 225.176 676.918 223.988 676.918 222.441V213.898H680.492V221.551C680.492 222.496 680.66 223.207 680.996 223.684C681.332 224.152 681.867 224.387 682.602 224.387C683.602 224.387 684.324 224.055 684.77 223.391C685.215 222.719 685.438 221.609 685.438 220.062V213.898H689.012V227H686.27ZM698.281 224.387C698.906 224.387 699.656 224.25 700.531 223.977V226.637C699.641 227.035 698.547 227.234 697.25 227.234C695.82 227.234 694.777 226.875 694.121 226.156C693.473 225.43 693.148 224.344 693.148 222.898V216.582H691.438V215.07L693.406 213.875L694.438 211.109H696.723V213.898H700.391V216.582H696.723V222.898C696.723 223.406 696.863 223.781 697.145 224.023C697.434 224.266 697.812 224.387 698.281 224.387ZM710.387 227.234C708.848 227.234 707.641 226.676 706.766 225.559H706.578C706.703 226.652 706.766 227.285 706.766 227.457V232.766H703.191V213.898H706.098L706.602 215.598H706.766C707.602 214.301 708.84 213.652 710.48 213.652C712.027 213.652 713.238 214.25 714.113 215.445C714.988 216.641 715.426 218.301 715.426 220.426C715.426 221.824 715.219 223.039 714.805 224.07C714.398 225.102 713.816 225.887 713.059 226.426C712.301 226.965 711.41 227.234 710.387 227.234ZM709.332 216.512C708.449 216.512 707.805 216.785 707.398 217.332C706.992 217.871 706.781 218.766 706.766 220.016V220.402C706.766 221.809 706.973 222.816 707.387 223.426C707.809 224.035 708.473 224.34 709.379 224.34C710.98 224.34 711.781 223.02 711.781 220.379C711.781 219.09 711.582 218.125 711.184 217.484C710.793 216.836 710.176 216.512 709.332 216.512ZM727.66 227L727.18 225.324H726.992C726.609 225.934 726.066 226.406 725.363 226.742C724.66 227.07 723.859 227.234 722.961 227.234C721.422 227.234 720.262 226.824 719.48 226.004C718.699 225.176 718.309 223.988 718.309 222.441V213.898H721.883V221.551C721.883 222.496 722.051 223.207 722.387 223.684C722.723 224.152 723.258 224.387 723.992 224.387C724.992 224.387 725.715 224.055 726.16 223.391C726.605 222.719 726.828 221.609 726.828 220.062V213.898H730.402V227H727.66ZM739.672 224.387C740.297 224.387 741.047 224.25 741.922 223.977V226.637C741.031 227.035 739.938 227.234 738.641 227.234C737.211 227.234 736.168 226.875 735.512 226.156C734.863 225.43 734.539 224.344 734.539 222.898V216.582H732.828V215.07L734.797 213.875L735.828 211.109H738.113V213.898H741.781V216.582H738.113V222.898C738.113 223.406 738.254 223.781 738.535 224.023C738.824 224.266 739.203 224.387 739.672 224.387ZM765.312 218.27C765.312 221.09 764.508 223.25 762.898 224.75C761.297 226.25 758.98 227 755.949 227H751.098V209.867H756.477C759.273 209.867 761.445 210.605 762.992 212.082C764.539 213.559 765.312 215.621 765.312 218.27ZM761.539 218.363C761.539 214.684 759.914 212.844 756.664 212.844H754.73V224H756.289C759.789 224 761.539 222.121 761.539 218.363ZM774.008 216.195C773.25 216.195 772.656 216.438 772.227 216.922C771.797 217.398 771.551 218.078 771.488 218.961H776.504C776.488 218.078 776.258 217.398 775.812 216.922C775.367 216.438 774.766 216.195 774.008 216.195ZM774.512 227.234C772.402 227.234 770.754 226.652 769.566 225.488C768.379 224.324 767.785 222.676 767.785 220.543C767.785 218.348 768.332 216.652 769.426 215.457C770.527 214.254 772.047 213.652 773.984 213.652C775.836 213.652 777.277 214.18 778.309 215.234C779.34 216.289 779.855 217.746 779.855 219.605V221.34H771.406C771.445 222.355 771.746 223.148 772.309 223.719C772.871 224.289 773.66 224.574 774.676 224.574C775.465 224.574 776.211 224.492 776.914 224.328C777.617 224.164 778.352 223.902 779.117 223.543V226.309C778.492 226.621 777.824 226.852 777.113 227C776.402 227.156 775.535 227.234 774.512 227.234ZM791.902 223.109C791.902 224.453 791.434 225.477 790.496 226.18C789.566 226.883 788.172 227.234 786.312 227.234C785.359 227.234 784.547 227.168 783.875 227.035C783.203 226.91 782.574 226.723 781.988 226.473V223.52C782.652 223.832 783.398 224.094 784.227 224.305C785.062 224.516 785.797 224.621 786.43 224.621C787.727 224.621 788.375 224.246 788.375 223.496C788.375 223.215 788.289 222.988 788.117 222.816C787.945 222.637 787.648 222.438 787.227 222.219C786.805 221.992 786.242 221.73 785.539 221.434C784.531 221.012 783.789 220.621 783.312 220.262C782.844 219.902 782.5 219.492 782.281 219.031C782.07 218.562 781.965 217.988 781.965 217.309C781.965 216.145 782.414 215.246 783.312 214.613C784.219 213.973 785.5 213.652 787.156 213.652C788.734 213.652 790.27 213.996 791.762 214.684L790.684 217.262C790.027 216.98 789.414 216.75 788.844 216.57C788.273 216.391 787.691 216.301 787.098 216.301C786.043 216.301 785.516 216.586 785.516 217.156C785.516 217.477 785.684 217.754 786.02 217.988C786.363 218.223 787.109 218.57 788.258 219.031C789.281 219.445 790.031 219.832 790.508 220.191C790.984 220.551 791.336 220.965 791.562 221.434C791.789 221.902 791.902 222.461 791.902 223.109ZM800.012 227.234C795.934 227.234 793.895 224.996 793.895 220.52C793.895 218.293 794.449 216.594 795.559 215.422C796.668 214.242 798.258 213.652 800.328 213.652C801.844 213.652 803.203 213.949 804.406 214.543L803.352 217.309C802.789 217.082 802.266 216.898 801.781 216.758C801.297 216.609 800.812 216.535 800.328 216.535C798.469 216.535 797.539 217.855 797.539 220.496C797.539 223.059 798.469 224.34 800.328 224.34C801.016 224.34 801.652 224.25 802.238 224.07C802.824 223.883 803.41 223.594 803.996 223.203V226.262C803.418 226.629 802.832 226.883 802.238 227.023C801.652 227.164 800.91 227.234 800.012 227.234ZM814.355 213.652C814.84 213.652 815.242 213.688 815.562 213.758L815.293 217.109C815.004 217.031 814.652 216.992 814.238 216.992C813.098 216.992 812.207 217.285 811.566 217.871C810.934 218.457 810.617 219.277 810.617 220.332V227H807.043V213.898H809.75L810.277 216.102H810.453C810.859 215.367 811.406 214.777 812.094 214.332C812.789 213.879 813.543 213.652 814.355 213.652ZM817.789 210.512C817.789 209.348 818.438 208.766 819.734 208.766C821.031 208.766 821.68 209.348 821.68 210.512C821.68 211.066 821.516 211.5 821.188 211.812C820.867 212.117 820.383 212.27 819.734 212.27C818.438 212.27 817.789 211.684 817.789 210.512ZM821.516 227H817.941V213.898H821.516V227ZM832.473 227.234C830.934 227.234 829.727 226.676 828.852 225.559H828.664C828.789 226.652 828.852 227.285 828.852 227.457V232.766H825.277V213.898H828.184L828.688 215.598H828.852C829.688 214.301 830.926 213.652 832.566 213.652C834.113 213.652 835.324 214.25 836.199 215.445C837.074 216.641 837.512 218.301 837.512 220.426C837.512 221.824 837.305 223.039 836.891 224.07C836.484 225.102 835.902 225.887 835.145 226.426C834.387 226.965 833.496 227.234 832.473 227.234ZM831.418 216.512C830.535 216.512 829.891 216.785 829.484 217.332C829.078 217.871 828.867 218.766 828.852 220.016V220.402C828.852 221.809 829.059 222.816 829.473 223.426C829.895 224.035 830.559 224.34 831.465 224.34C833.066 224.34 833.867 223.02 833.867 220.379C833.867 219.09 833.668 218.125 833.27 217.484C832.879 216.836 832.262 216.512 831.418 216.512ZM845.984 224.387C846.609 224.387 847.359 224.25 848.234 223.977V226.637C847.344 227.035 846.25 227.234 844.953 227.234C843.523 227.234 842.48 226.875 841.824 226.156C841.176 225.43 840.852 224.344 840.852 222.898V216.582H839.141V215.07L841.109 213.875L842.141 211.109H844.426V213.898H848.094V216.582H844.426V222.898C844.426 223.406 844.566 223.781 844.848 224.023C845.137 224.266 845.516 224.387 845.984 224.387ZM850.742 210.512C850.742 209.348 851.391 208.766 852.688 208.766C853.984 208.766 854.633 209.348 854.633 210.512C854.633 211.066 854.469 211.5 854.141 211.812C853.82 212.117 853.336 212.27 852.688 212.27C851.391 212.27 850.742 211.684 850.742 210.512ZM854.469 227H850.895V213.898H854.469V227ZM861.078 220.426C861.078 221.723 861.289 222.703 861.711 223.367C862.141 224.031 862.836 224.363 863.797 224.363C864.75 224.363 865.434 224.035 865.848 223.379C866.27 222.715 866.48 221.73 866.48 220.426C866.48 219.129 866.27 218.156 865.848 217.508C865.426 216.859 864.734 216.535 863.773 216.535C862.82 216.535 862.133 216.859 861.711 217.508C861.289 218.148 861.078 219.121 861.078 220.426ZM870.137 220.426C870.137 222.559 869.574 224.227 868.449 225.43C867.324 226.633 865.758 227.234 863.75 227.234C862.492 227.234 861.383 226.961 860.422 226.414C859.461 225.859 858.723 225.066 858.207 224.035C857.691 223.004 857.434 221.801 857.434 220.426C857.434 218.285 857.992 216.621 859.109 215.434C860.227 214.246 861.797 213.652 863.82 213.652C865.078 213.652 866.188 213.926 867.148 214.473C868.109 215.02 868.848 215.805 869.363 216.828C869.879 217.852 870.137 219.051 870.137 220.426ZM885.184 227H881.609V219.348C881.609 218.402 881.441 217.695 881.105 217.227C880.77 216.75 880.234 216.512 879.5 216.512C878.5 216.512 877.777 216.848 877.332 217.52C876.887 218.184 876.664 219.289 876.664 220.836V227H873.09V213.898H875.82L876.301 215.574H876.5C876.898 214.941 877.445 214.465 878.141 214.145C878.844 213.816 879.641 213.652 880.531 213.652C882.055 213.652 883.211 214.066 884 214.895C884.789 215.715 885.184 216.902 885.184 218.457V227Z" fill="black"/>
<path d="M1186.72 218.41C1186.72 221.246 1186.02 223.426 1184.61 224.949C1183.2 226.473 1181.19 227.234 1178.56 227.234C1175.94 227.234 1173.92 226.473 1172.52 224.949C1171.11 223.426 1170.41 221.238 1170.41 218.387C1170.41 215.535 1171.11 213.359 1172.52 211.859C1173.93 210.352 1175.95 209.598 1178.59 209.598C1181.22 209.598 1183.23 210.355 1184.62 211.871C1186.02 213.387 1186.72 215.566 1186.72 218.41ZM1174.21 218.41C1174.21 220.324 1174.58 221.766 1175.3 222.734C1176.03 223.703 1177.12 224.188 1178.56 224.188C1181.46 224.188 1182.91 222.262 1182.91 218.41C1182.91 214.551 1181.47 212.621 1178.59 212.621C1177.14 212.621 1176.05 213.109 1175.32 214.086C1174.58 215.055 1174.21 216.496 1174.21 218.41ZM1199.27 227L1198.79 225.324H1198.6C1198.22 225.934 1197.68 226.406 1196.97 226.742C1196.27 227.07 1195.47 227.234 1194.57 227.234C1193.03 227.234 1191.87 226.824 1191.09 226.004C1190.31 225.176 1189.92 223.988 1189.92 222.441V213.898H1193.49V221.551C1193.49 222.496 1193.66 223.207 1194 223.684C1194.33 224.152 1194.87 224.387 1195.6 224.387C1196.6 224.387 1197.32 224.055 1197.77 223.391C1198.21 222.719 1198.44 221.609 1198.44 220.062V213.898H1202.01V227H1199.27ZM1211.28 224.387C1211.91 224.387 1212.66 224.25 1213.53 223.977V226.637C1212.64 227.035 1211.55 227.234 1210.25 227.234C1208.82 227.234 1207.78 226.875 1207.12 226.156C1206.47 225.43 1206.15 224.344 1206.15 222.898V216.582H1204.44V215.07L1206.41 213.875L1207.44 211.109H1209.72V213.898H1213.39V216.582H1209.72V222.898C1209.72 223.406 1209.86 223.781 1210.14 224.023C1210.43 224.266 1210.81 224.387 1211.28 224.387ZM1223.39 227.234C1221.85 227.234 1220.64 226.676 1219.77 225.559H1219.58C1219.7 226.652 1219.77 227.285 1219.77 227.457V232.766H1216.19V213.898H1219.1L1219.6 215.598H1219.77C1220.6 214.301 1221.84 213.652 1223.48 213.652C1225.03 213.652 1226.24 214.25 1227.11 215.445C1227.99 216.641 1228.43 218.301 1228.43 220.426C1228.43 221.824 1228.22 223.039 1227.8 224.07C1227.4 225.102 1226.82 225.887 1226.06 226.426C1225.3 226.965 1224.41 227.234 1223.39 227.234ZM1222.33 216.512C1221.45 216.512 1220.8 216.785 1220.4 217.332C1219.99 217.871 1219.78 218.766 1219.77 220.016V220.402C1219.77 221.809 1219.97 222.816 1220.39 223.426C1220.81 224.035 1221.47 224.34 1222.38 224.34C1223.98 224.34 1224.78 223.02 1224.78 220.379C1224.78 219.09 1224.58 218.125 1224.18 217.484C1223.79 216.836 1223.18 216.512 1222.33 216.512ZM1240.66 227L1240.18 225.324H1239.99C1239.61 225.934 1239.07 226.406 1238.36 226.742C1237.66 227.07 1236.86 227.234 1235.96 227.234C1234.42 227.234 1233.26 226.824 1232.48 226.004C1231.7 225.176 1231.31 223.988 1231.31 222.441V213.898H1234.88V221.551C1234.88 222.496 1235.05 223.207 1235.39 223.684C1235.72 224.152 1236.26 224.387 1236.99 224.387C1237.99 224.387 1238.71 224.055 1239.16 223.391C1239.61 222.719 1239.83 221.609 1239.83 220.062V213.898H1243.4V227H1240.66ZM1252.67 224.387C1253.3 224.387 1254.05 224.25 1254.92 223.977V226.637C1254.03 227.035 1252.94 227.234 1251.64 227.234C1250.21 227.234 1249.17 226.875 1248.51 226.156C1247.86 225.43 1247.54 224.344 1247.54 222.898V216.582H1245.83V215.07L1247.8 213.875L1248.83 211.109H1251.11V213.898H1254.78V216.582H1251.11V222.898C1251.11 223.406 1251.25 223.781 1251.54 224.023C1251.82 224.266 1252.2 224.387 1252.67 224.387ZM1278.31 218.27C1278.31 221.09 1277.51 223.25 1275.9 224.75C1274.3 226.25 1271.98 227 1268.95 227H1264.1V209.867H1269.48C1272.27 209.867 1274.45 210.605 1275.99 212.082C1277.54 213.559 1278.31 215.621 1278.31 218.27ZM1274.54 218.363C1274.54 214.684 1272.91 212.844 1269.66 212.844H1267.73V224H1269.29C1272.79 224 1274.54 222.121 1274.54 218.363ZM1287.01 216.195C1286.25 216.195 1285.66 216.438 1285.23 216.922C1284.8 217.398 1284.55 218.078 1284.49 218.961H1289.5C1289.49 218.078 1289.26 217.398 1288.81 216.922C1288.37 216.438 1287.77 216.195 1287.01 216.195ZM1287.51 227.234C1285.4 227.234 1283.75 226.652 1282.57 225.488C1281.38 224.324 1280.79 222.676 1280.79 220.543C1280.79 218.348 1281.33 216.652 1282.43 215.457C1283.53 214.254 1285.05 213.652 1286.98 213.652C1288.84 213.652 1290.28 214.18 1291.31 215.234C1292.34 216.289 1292.86 217.746 1292.86 219.605V221.34H1284.41C1284.45 222.355 1284.75 223.148 1285.31 223.719C1285.87 224.289 1286.66 224.574 1287.68 224.574C1288.46 224.574 1289.21 224.492 1289.91 224.328C1290.62 224.164 1291.35 223.902 1292.12 223.543V226.309C1291.49 226.621 1290.82 226.852 1290.11 227C1289.4 227.156 1288.54 227.234 1287.51 227.234ZM1304.9 223.109C1304.9 224.453 1304.43 225.477 1303.5 226.18C1302.57 226.883 1301.17 227.234 1299.31 227.234C1298.36 227.234 1297.55 227.168 1296.88 227.035C1296.2 226.91 1295.57 226.723 1294.99 226.473V223.52C1295.65 223.832 1296.4 224.094 1297.23 224.305C1298.06 224.516 1298.8 224.621 1299.43 224.621C1300.73 224.621 1301.38 224.246 1301.38 223.496C1301.38 223.215 1301.29 222.988 1301.12 222.816C1300.95 222.637 1300.65 222.438 1300.23 222.219C1299.8 221.992 1299.24 221.73 1298.54 221.434C1297.53 221.012 1296.79 220.621 1296.31 220.262C1295.84 219.902 1295.5 219.492 1295.28 219.031C1295.07 218.562 1294.96 217.988 1294.96 217.309C1294.96 216.145 1295.41 215.246 1296.31 214.613C1297.22 213.973 1298.5 213.652 1300.16 213.652C1301.73 213.652 1303.27 213.996 1304.76 214.684L1303.68 217.262C1303.03 216.98 1302.41 216.75 1301.84 216.57C1301.27 216.391 1300.69 216.301 1300.1 216.301C1299.04 216.301 1298.52 216.586 1298.52 217.156C1298.52 217.477 1298.68 217.754 1299.02 217.988C1299.36 218.223 1300.11 218.57 1301.26 219.031C1302.28 219.445 1303.03 219.832 1303.51 220.191C1303.98 220.551 1304.34 220.965 1304.56 221.434C1304.79 221.902 1304.9 222.461 1304.9 223.109ZM1313.01 227.234C1308.93 227.234 1306.89 224.996 1306.89 220.52C1306.89 218.293 1307.45 216.594 1308.56 215.422C1309.67 214.242 1311.26 213.652 1313.33 213.652C1314.84 213.652 1316.2 213.949 1317.41 214.543L1316.35 217.309C1315.79 217.082 1315.27 216.898 1314.78 216.758C1314.3 216.609 1313.81 216.535 1313.33 216.535C1311.47 216.535 1310.54 217.855 1310.54 220.496C1310.54 223.059 1311.47 224.34 1313.33 224.34C1314.02 224.34 1314.65 224.25 1315.24 224.07C1315.82 223.883 1316.41 223.594 1317 223.203V226.262C1316.42 226.629 1315.83 226.883 1315.24 227.023C1314.65 227.164 1313.91 227.234 1313.01 227.234ZM1327.36 213.652C1327.84 213.652 1328.24 213.688 1328.56 213.758L1328.29 217.109C1328 217.031 1327.65 216.992 1327.24 216.992C1326.1 216.992 1325.21 217.285 1324.57 217.871C1323.93 218.457 1323.62 219.277 1323.62 220.332V227H1320.04V213.898H1322.75L1323.28 216.102H1323.45C1323.86 215.367 1324.41 214.777 1325.09 214.332C1325.79 213.879 1326.54 213.652 1327.36 213.652ZM1330.79 210.512C1330.79 209.348 1331.44 208.766 1332.73 208.766C1334.03 208.766 1334.68 209.348 1334.68 210.512C1334.68 211.066 1334.52 211.5 1334.19 211.812C1333.87 212.117 1333.38 212.27 1332.73 212.27C1331.44 212.27 1330.79 211.684 1330.79 210.512ZM1334.52 227H1330.94V213.898H1334.52V227ZM1345.47 227.234C1343.93 227.234 1342.73 226.676 1341.85 225.559H1341.66C1341.79 226.652 1341.85 227.285 1341.85 227.457V232.766H1338.28V213.898H1341.18L1341.69 215.598H1341.85C1342.69 214.301 1343.93 213.652 1345.57 213.652C1347.11 213.652 1348.32 214.25 1349.2 215.445C1350.07 216.641 1350.51 218.301 1350.51 220.426C1350.51 221.824 1350.3 223.039 1349.89 224.07C1349.48 225.102 1348.9 225.887 1348.14 226.426C1347.39 226.965 1346.5 227.234 1345.47 227.234ZM1344.42 216.512C1343.54 216.512 1342.89 216.785 1342.48 217.332C1342.08 217.871 1341.87 218.766 1341.85 220.016V220.402C1341.85 221.809 1342.06 222.816 1342.47 223.426C1342.89 224.035 1343.56 224.34 1344.46 224.34C1346.07 224.34 1346.87 223.02 1346.87 220.379C1346.87 219.09 1346.67 218.125 1346.27 217.484C1345.88 216.836 1345.26 216.512 1344.42 216.512ZM1358.98 224.387C1359.61 224.387 1360.36 224.25 1361.23 223.977V226.637C1360.34 227.035 1359.25 227.234 1357.95 227.234C1356.52 227.234 1355.48 226.875 1354.82 226.156C1354.18 225.43 1353.85 224.344 1353.85 222.898V216.582H1352.14V215.07L1354.11 213.875L1355.14 211.109H1357.43V213.898H1361.09V216.582H1357.43V222.898C1357.43 223.406 1357.57 223.781 1357.85 224.023C1358.14 224.266 1358.52 224.387 1358.98 224.387ZM1363.74 210.512C1363.74 209.348 1364.39 208.766 1365.69 208.766C1366.98 208.766 1367.63 209.348 1367.63 210.512C1367.63 211.066 1367.47 211.5 1367.14 211.812C1366.82 212.117 1366.34 212.27 1365.69 212.27C1364.39 212.27 1363.74 211.684 1363.74 210.512ZM1367.47 227H1363.89V213.898H1367.47V227ZM1374.08 220.426C1374.08 221.723 1374.29 222.703 1374.71 223.367C1375.14 224.031 1375.84 224.363 1376.8 224.363C1377.75 224.363 1378.43 224.035 1378.85 223.379C1379.27 222.715 1379.48 221.73 1379.48 220.426C1379.48 219.129 1379.27 218.156 1378.85 217.508C1378.43 216.859 1377.73 216.535 1376.77 216.535C1375.82 216.535 1375.13 216.859 1374.71 217.508C1374.29 218.148 1374.08 219.121 1374.08 220.426ZM1383.14 220.426C1383.14 222.559 1382.57 224.227 1381.45 225.43C1380.32 226.633 1378.76 227.234 1376.75 227.234C1375.49 227.234 1374.38 226.961 1373.42 226.414C1372.46 225.859 1371.72 225.066 1371.21 224.035C1370.69 223.004 1370.43 221.801 1370.43 220.426C1370.43 218.285 1370.99 216.621 1372.11 215.434C1373.23 214.246 1374.8 213.652 1376.82 213.652C1378.08 213.652 1379.19 213.926 1380.15 214.473C1381.11 215.02 1381.85 215.805 1382.36 216.828C1382.88 217.852 1383.14 219.051 1383.14 220.426ZM1398.18 227H1394.61V219.348C1394.61 218.402 1394.44 217.695 1394.11 217.227C1393.77 216.75 1393.23 216.512 1392.5 216.512C1391.5 216.512 1390.78 216.848 1390.33 217.52C1389.89 218.184 1389.66 219.289 1389.66 220.836V227H1386.09V213.898H1388.82L1389.3 215.574H1389.5C1389.9 214.941 1390.45 214.465 1391.14 214.145C1391.84 213.816 1392.64 213.652 1393.53 213.652C1395.05 213.652 1396.21 214.066 1397 214.895C1397.79 215.715 1398.18 216.902 1398.18 218.457V227Z" fill="black"/>
<path d="M632.648 100.062H630.105V104H628.242V100.062H619.91V98.3633L628.043 86.7734H630.105V98.293H632.648V100.062ZM628.242 98.293V92.5977C628.242 91.4805 628.281 90.2188 628.359 88.8125H628.266C627.891 89.5625 627.539 90.1836 627.211 90.6758L621.855 98.293H628.242ZM646.57 104.234C644.711 104.234 643.27 103.664 642.246 102.523C641.23 101.375 640.723 99.7539 640.723 97.6602C640.723 95.5117 641.238 93.8516 642.27 92.6797C643.309 91.5078 644.785 90.9219 646.699 90.9219C647.316 90.9219 647.934 90.9883 648.551 91.1211C649.168 91.2539 649.652 91.4102 650.004 91.5898L649.406 93.2422C648.977 93.0703 648.508 92.9297 648 92.8203C647.492 92.7031 647.043 92.6445 646.652 92.6445C644.043 92.6445 642.738 94.3086 642.738 97.6367C642.738 99.2148 643.055 100.426 643.688 101.27C644.328 102.113 645.273 102.535 646.523 102.535C647.594 102.535 648.691 102.305 649.816 101.844V103.566C648.957 104.012 647.875 104.234 646.57 104.234ZM663.961 97.5664C663.961 99.6602 663.434 101.297 662.379 102.477C661.324 103.648 659.867 104.234 658.008 104.234C656.859 104.234 655.84 103.965 654.949 103.426C654.059 102.887 653.371 102.113 652.887 101.105C652.402 100.098 652.16 98.918 652.16 97.5664C652.16 95.4727 652.684 93.8438 653.73 92.6797C654.777 91.5078 656.23 90.9219 658.09 90.9219C659.887 90.9219 661.312 91.5195 662.367 92.7148C663.43 93.9102 663.961 95.5273 663.961 97.5664ZM654.176 97.5664C654.176 99.207 654.504 100.457 655.16 101.316C655.816 102.176 656.781 102.605 658.055 102.605C659.328 102.605 660.293 102.18 660.949 101.328C661.613 100.469 661.945 99.2148 661.945 97.5664C661.945 95.9336 661.613 94.6953 660.949 93.8516C660.293 93 659.32 92.5742 658.031 92.5742C656.758 92.5742 655.797 92.9922 655.148 93.8281C654.5 94.6641 654.176 95.9102 654.176 97.5664ZM669.328 104H667.383V91.1562H669.328V104ZM667.219 87.6758C667.219 87.2305 667.328 86.9062 667.547 86.7031C667.766 86.4922 668.039 86.3867 668.367 86.3867C668.68 86.3867 668.949 86.4922 669.176 86.7031C669.402 86.9141 669.516 87.2383 669.516 87.6758C669.516 88.1133 669.402 88.4414 669.176 88.6602C668.949 88.8711 668.68 88.9766 668.367 88.9766C668.039 88.9766 667.766 88.8711 667.547 88.6602C667.328 88.4414 667.219 88.1133 667.219 87.6758ZM682.242 104V95.6914C682.242 94.6445 682.004 93.8633 681.527 93.3477C681.051 92.832 680.305 92.5742 679.289 92.5742C677.945 92.5742 676.961 92.9375 676.336 93.6641C675.711 94.3906 675.398 95.5898 675.398 97.2617V104H673.453V91.1562H675.035L675.352 92.9141H675.445C675.844 92.2812 676.402 91.793 677.121 91.4492C677.84 91.0977 678.641 90.9219 679.523 90.9219C681.07 90.9219 682.234 91.2969 683.016 92.0469C683.797 92.7891 684.188 93.9805 684.188 95.6211V104H682.242ZM696.48 100.496C696.48 101.691 696.035 102.613 695.145 103.262C694.254 103.91 693.004 104.234 691.395 104.234C689.691 104.234 688.363 103.965 687.41 103.426V101.621C688.027 101.934 688.688 102.18 689.391 102.359C690.102 102.539 690.785 102.629 691.441 102.629C692.457 102.629 693.238 102.469 693.785 102.148C694.332 101.82 694.605 101.324 694.605 100.66C694.605 100.16 694.387 99.7344 693.949 99.3828C693.52 99.0234 692.676 98.6016 691.418 98.1172C690.223 97.6719 689.371 97.2852 688.863 96.957C688.363 96.6211 687.988 96.2422 687.738 95.8203C687.496 95.3984 687.375 94.8945 687.375 94.3086C687.375 93.2617 687.801 92.4375 688.652 91.8359C689.504 91.2266 690.672 90.9219 692.156 90.9219C693.539 90.9219 694.891 91.2031 696.211 91.7656L695.52 93.3477C694.23 92.8164 693.062 92.5508 692.016 92.5508C691.094 92.5508 690.398 92.6953 689.93 92.9844C689.461 93.2734 689.227 93.6719 689.227 94.1797C689.227 94.5234 689.312 94.8164 689.484 95.0586C689.664 95.3008 689.949 95.5312 690.34 95.75C690.73 95.9688 691.48 96.2852 692.59 96.6992C694.113 97.2539 695.141 97.8125 695.672 98.375C696.211 98.9375 696.48 99.6445 696.48 100.496Z" fill="black"/>
<path d="M1146.52 104H1144.62V91.7891C1144.62 90.7734 1144.65 89.8125 1144.71 88.9062C1144.55 89.0703 1144.36 89.2422 1144.16 89.4219C1143.96 89.6016 1143.03 90.3633 1141.37 91.707L1140.34 90.3711L1144.88 86.8672H1146.52V104ZM1165.3 104.234C1163.44 104.234 1162 103.664 1160.98 102.523C1159.96 101.375 1159.45 99.7539 1159.45 97.6602C1159.45 95.5117 1159.97 93.8516 1161 92.6797C1162.04 91.5078 1163.52 90.9219 1165.43 90.9219C1166.05 90.9219 1166.66 90.9883 1167.28 91.1211C1167.9 91.2539 1168.38 91.4102 1168.73 91.5898L1168.14 93.2422C1167.71 93.0703 1167.24 92.9297 1166.73 92.8203C1166.22 92.7031 1165.77 92.6445 1165.38 92.6445C1162.77 92.6445 1161.47 94.3086 1161.47 97.6367C1161.47 99.2148 1161.79 100.426 1162.42 101.27C1163.06 102.113 1164 102.535 1165.25 102.535C1166.32 102.535 1167.42 102.305 1168.55 101.844V103.566C1167.69 104.012 1166.61 104.234 1165.3 104.234ZM1182.69 97.5664C1182.69 99.6602 1182.16 101.297 1181.11 102.477C1180.05 103.648 1178.6 104.234 1176.74 104.234C1175.59 104.234 1174.57 103.965 1173.68 103.426C1172.79 102.887 1172.1 102.113 1171.62 101.105C1171.13 100.098 1170.89 98.918 1170.89 97.5664C1170.89 95.4727 1171.41 93.8438 1172.46 92.6797C1173.51 91.5078 1174.96 90.9219 1176.82 90.9219C1178.62 90.9219 1180.04 91.5195 1181.1 92.7148C1182.16 93.9102 1182.69 95.5273 1182.69 97.5664ZM1172.91 97.5664C1172.91 99.207 1173.23 100.457 1173.89 101.316C1174.55 102.176 1175.51 102.605 1176.79 102.605C1178.06 102.605 1179.02 102.18 1179.68 101.328C1180.34 100.469 1180.68 99.2148 1180.68 97.5664C1180.68 95.9336 1180.34 94.6953 1179.68 93.8516C1179.02 93 1178.05 92.5742 1176.76 92.5742C1175.49 92.5742 1174.53 92.9922 1173.88 93.8281C1173.23 94.6641 1172.91 95.9102 1172.91 97.5664ZM1188.06 104H1186.11V91.1562H1188.06V104ZM1185.95 87.6758C1185.95 87.2305 1186.06 86.9062 1186.28 86.7031C1186.5 86.4922 1186.77 86.3867 1187.1 86.3867C1187.41 86.3867 1187.68 86.4922 1187.91 86.7031C1188.13 86.9141 1188.25 87.2383 1188.25 87.6758C1188.25 88.1133 1188.13 88.4414 1187.91 88.6602C1187.68 88.8711 1187.41 88.9766 1187.1 88.9766C1186.77 88.9766 1186.5 88.8711 1186.28 88.6602C1186.06 88.4414 1185.95 88.1133 1185.95 87.6758ZM1200.97 104V95.6914C1200.97 94.6445 1200.73 93.8633 1200.26 93.3477C1199.78 92.832 1199.04 92.5742 1198.02 92.5742C1196.68 92.5742 1195.69 92.9375 1195.07 93.6641C1194.44 94.3906 1194.13 95.5898 1194.13 97.2617V104H1192.18V91.1562H1193.77L1194.08 92.9141H1194.18C1194.57 92.2812 1195.13 91.793 1195.85 91.4492C1196.57 91.0977 1197.37 90.9219 1198.25 90.9219C1199.8 90.9219 1200.96 91.2969 1201.75 92.0469C1202.53 92.7891 1202.92 93.9805 1202.92 95.6211V104H1200.97Z" fill="black"/>
<path d="M87.9453 129.551H82.1328L79.2617 135H77.0469L86.4102 117.867H88.4492L90.6055 135H88.6133L87.9453 129.551ZM87.7344 127.723L87.3242 124.219C87.1367 122.82 87.0234 121.453 86.9844 120.117C86.6953 120.805 86.3789 121.488 86.0352 122.168C85.6992 122.848 84.7266 124.699 83.1172 127.723H87.7344ZM94.3906 135H92.4219L96.3125 116.766H98.2812L94.3906 135ZM100.508 135H98.5391L101.281 122.156H103.25L100.508 135ZM101.832 118.875C101.832 118.438 101.957 118.082 102.207 117.809C102.457 117.527 102.781 117.387 103.18 117.387C103.867 117.387 104.211 117.738 104.211 118.441C104.211 118.871 104.078 119.234 103.812 119.531C103.555 119.828 103.254 119.977 102.91 119.977C102.598 119.977 102.34 119.883 102.137 119.695C101.934 119.5 101.832 119.227 101.832 118.875ZM109.871 135.234C108.355 135.234 107.18 134.816 106.344 133.98C105.508 133.145 105.09 131.965 105.09 130.441C105.09 128.879 105.379 127.438 105.957 126.117C106.535 124.797 107.332 123.77 108.348 123.035C109.371 122.293 110.52 121.922 111.793 121.922C112.863 121.922 113.91 122.121 114.934 122.52L114.383 124.172C113.445 123.773 112.59 123.574 111.816 123.574C110.941 123.574 110.141 123.875 109.414 124.477C108.695 125.07 108.129 125.902 107.715 126.973C107.309 128.035 107.105 129.191 107.105 130.441C107.105 131.441 107.363 132.219 107.879 132.773C108.402 133.328 109.121 133.605 110.035 133.605C110.598 133.605 111.129 133.527 111.629 133.371C112.129 133.215 112.621 133.031 113.105 132.82V134.496C112.137 134.988 111.059 135.234 109.871 135.234ZM120.512 135.234C119.074 135.234 117.945 134.809 117.125 133.957C116.305 133.105 115.895 131.926 115.895 130.418C115.895 128.949 116.184 127.543 116.762 126.199C117.348 124.848 118.121 123.797 119.082 123.047C120.043 122.297 121.102 121.922 122.258 121.922C123.453 121.922 124.352 122.184 124.953 122.707C125.555 123.223 125.855 123.945 125.855 124.875C125.855 126.281 125.207 127.387 123.91 128.191C122.613 128.988 120.758 129.387 118.344 129.387H117.957L117.91 130.324C117.91 131.348 118.148 132.148 118.625 132.727C119.109 133.297 119.855 133.582 120.863 133.582C121.355 133.582 121.859 133.512 122.375 133.371C122.898 133.23 123.547 132.973 124.32 132.598V134.309C123.586 134.652 122.938 134.891 122.375 135.023C121.812 135.164 121.191 135.234 120.512 135.234ZM122.141 123.598C121.336 123.598 120.578 123.965 119.867 124.699C119.164 125.434 118.625 126.453 118.25 127.758H118.391C120.172 127.758 121.535 127.527 122.48 127.066C123.434 126.598 123.91 125.922 123.91 125.039C123.91 124.625 123.766 124.281 123.477 124.008C123.195 123.734 122.75 123.598 122.141 123.598Z" fill="black"/>
<path d="M646.176 119.867C649.551 119.867 651.238 121.18 651.238 123.805C651.238 124.906 650.898 125.836 650.219 126.594C649.539 127.352 648.582 127.844 647.348 128.07V128.188C648.246 128.438 648.934 128.871 649.41 129.488C649.895 130.098 650.137 130.832 650.137 131.691C650.137 133.348 649.543 134.648 648.355 135.594C647.168 136.531 645.578 137 643.586 137H638.16L641.781 119.867H646.176ZM642.238 127.203H645.145C646.363 127.203 647.336 126.918 648.062 126.348C648.789 125.777 649.152 125 649.152 124.016C649.152 123.203 648.891 122.598 648.367 122.199C647.852 121.793 647.035 121.59 645.918 121.59H643.445L642.238 127.203ZM640.516 135.301H643.633C645.047 135.301 646.133 134.988 646.891 134.363C647.648 133.73 648.027 132.84 648.027 131.691C648.027 130.785 647.734 130.094 647.148 129.617C646.57 129.133 645.734 128.891 644.641 128.891H641.875L640.516 135.301ZM659.055 123.992C660.539 123.992 661.711 124.434 662.57 125.316C663.43 126.191 663.859 127.398 663.859 128.938C663.859 130.406 663.578 131.793 663.016 133.098C662.453 134.402 661.691 135.41 660.73 136.121C659.77 136.832 658.684 137.188 657.473 137.188C655.973 137.188 654.797 136.746 653.945 135.863C653.094 134.98 652.668 133.773 652.668 132.242C652.668 130.758 652.953 129.363 653.523 128.059C654.094 126.746 654.863 125.742 655.832 125.047C656.801 124.344 657.875 123.992 659.055 123.992ZM661.82 128.668C661.82 127.77 661.574 127.043 661.082 126.488C660.598 125.926 659.938 125.645 659.102 125.645C658.25 125.645 657.484 125.934 656.805 126.512C656.133 127.09 655.609 127.895 655.234 128.926C654.867 129.949 654.684 131.09 654.684 132.348C654.684 133.371 654.93 134.164 655.422 134.727C655.922 135.281 656.637 135.559 657.566 135.559C658.379 135.559 659.109 135.273 659.758 134.703C660.406 134.133 660.91 133.324 661.27 132.277C661.637 131.223 661.82 130.02 661.82 128.668ZM671.383 137.234C670.625 137.234 669.957 137.035 669.379 136.637C668.809 136.238 668.379 135.695 668.09 135.008H667.973L667.152 137H665.688L669.555 118.766H671.523C671.125 120.656 670.816 122.105 670.598 123.113C670.387 124.113 670.094 125.285 669.719 126.629H669.824C670.551 125.707 671.266 125.031 671.969 124.602C672.68 124.164 673.41 123.945 674.16 123.945C675.262 123.945 676.121 124.332 676.738 125.105C677.355 125.879 677.664 126.941 677.664 128.293C677.664 129.926 677.395 131.438 676.855 132.828C676.324 134.211 675.578 135.293 674.617 136.074C673.664 136.848 672.586 137.234 671.383 137.234ZM673.562 125.574C672.812 125.574 672.047 125.945 671.266 126.688C670.492 127.43 669.875 128.363 669.414 129.488C668.961 130.613 668.734 131.766 668.734 132.945C668.734 133.805 668.949 134.465 669.379 134.926C669.816 135.379 670.445 135.605 671.266 135.605C672.039 135.605 672.758 135.289 673.422 134.656C674.094 134.023 674.633 133.125 675.039 131.961C675.445 130.789 675.648 129.547 675.648 128.234C675.648 126.461 674.953 125.574 673.562 125.574Z" fill="black"/>
<path d="M1156.95 131.551H1151.13L1148.26 137H1146.05L1155.41 119.867H1157.45L1159.61 137H1157.61L1156.95 131.551ZM1156.73 129.723L1156.32 126.219C1156.14 124.82 1156.02 123.453 1155.98 122.117C1155.7 122.805 1155.38 123.488 1155.04 124.168C1154.7 124.848 1153.73 126.699 1152.12 129.723H1156.73ZM1163.39 137H1161.42L1165.31 118.766H1167.28L1163.39 137ZM1169.51 137H1167.54L1170.28 124.156H1172.25L1169.51 137ZM1170.83 120.875C1170.83 120.438 1170.96 120.082 1171.21 119.809C1171.46 119.527 1171.78 119.387 1172.18 119.387C1172.87 119.387 1173.21 119.738 1173.21 120.441C1173.21 120.871 1173.08 121.234 1172.81 121.531C1172.55 121.828 1172.25 121.977 1171.91 121.977C1171.6 121.977 1171.34 121.883 1171.14 121.695C1170.93 121.5 1170.83 121.227 1170.83 120.875ZM1178.87 137.234C1177.36 137.234 1176.18 136.816 1175.34 135.98C1174.51 135.145 1174.09 133.965 1174.09 132.441C1174.09 130.879 1174.38 129.438 1174.96 128.117C1175.54 126.797 1176.33 125.77 1177.35 125.035C1178.37 124.293 1179.52 123.922 1180.79 123.922C1181.86 123.922 1182.91 124.121 1183.93 124.52L1183.38 126.172C1182.45 125.773 1181.59 125.574 1180.82 125.574C1179.94 125.574 1179.14 125.875 1178.41 126.477C1177.7 127.07 1177.13 127.902 1176.71 128.973C1176.31 130.035 1176.11 131.191 1176.11 132.441C1176.11 133.441 1176.36 134.219 1176.88 134.773C1177.4 135.328 1178.12 135.605 1179.04 135.605C1179.6 135.605 1180.13 135.527 1180.63 135.371C1181.13 135.215 1181.62 135.031 1182.11 134.82V136.496C1181.14 136.988 1180.06 137.234 1178.87 137.234ZM1189.51 137.234C1188.07 137.234 1186.95 136.809 1186.12 135.957C1185.3 135.105 1184.89 133.926 1184.89 132.418C1184.89 130.949 1185.18 129.543 1185.76 128.199C1186.35 126.848 1187.12 125.797 1188.08 125.047C1189.04 124.297 1190.1 123.922 1191.26 123.922C1192.45 123.922 1193.35 124.184 1193.95 124.707C1194.55 125.223 1194.86 125.945 1194.86 126.875C1194.86 128.281 1194.21 129.387 1192.91 130.191C1191.61 130.988 1189.76 131.387 1187.34 131.387H1186.96L1186.91 132.324C1186.91 133.348 1187.15 134.148 1187.62 134.727C1188.11 135.297 1188.86 135.582 1189.86 135.582C1190.36 135.582 1190.86 135.512 1191.38 135.371C1191.9 135.23 1192.55 134.973 1193.32 134.598V136.309C1192.59 136.652 1191.94 136.891 1191.38 137.023C1190.81 137.164 1190.19 137.234 1189.51 137.234ZM1191.14 125.598C1190.34 125.598 1189.58 125.965 1188.87 126.699C1188.16 127.434 1187.62 128.453 1187.25 129.758H1187.39C1189.17 129.758 1190.54 129.527 1191.48 129.066C1192.43 128.598 1192.91 127.922 1192.91 127.039C1192.91 126.625 1192.77 126.281 1192.48 126.008C1192.2 125.734 1191.75 125.598 1191.14 125.598Z" fill="black"/>
<path d="M529.061 136.061C529.646 135.475 529.646 134.525 529.061 133.939L519.515 124.393C518.929 123.808 517.979 123.808 517.393 124.393C516.808 124.979 516.808 125.929 517.393 126.515L525.879 135L517.393 143.485C516.808 144.071 516.808 145.021 517.393 145.607C517.979 146.192 518.929 146.192 519.515 145.607L529.061 136.061ZM422 136.5H528V133.5H422V136.5Z" fill="black"/>
</svg>
