<svg width="220" height="25" viewBox="0 0 220 25" fill="none" xmlns="http://www.w3.org/2000/svg">
<path d="M37.4582 11.7446L36.2634 9.67065L32.2058 2.64489L31.3341 1.13454C31.1838 0.871544 30.9058 0.713745 30.5977 0.713745H18.3496C18.0491 0.713745 17.771 0.879058 17.6132 1.13454L16.6364 2.82523L12.3458 10.2568C12.2631 10.3995 12.0828 10.4747 11.925 10.4296C11.7597 10.3845 11.647 10.2342 11.647 10.0689V6.53723C11.647 3.32868 9.03204 0.713745 5.82349 0.713745H0.849103C0.383224 0.713745 0 1.09697 0 1.56285V6.53723C0 8.85912 1.38261 10.933 3.52415 11.8272C3.66692 11.8873 3.75709 12.0226 3.75709 12.1729C3.75709 12.3232 3.66692 12.4584 3.52415 12.5185C1.39764 13.4052 0.0150284 15.4641 0 17.7709V17.7935V21.4303V22.7754C0 23.2413 0.383224 23.6245 0.849103 23.6245H5.82349C9.03204 23.6245 11.647 21.0095 11.647 17.801V14.2693C11.647 14.0965 11.7597 13.9462 11.925 13.9086C11.9551 13.9011 11.9926 13.8936 12.0227 13.8936C12.1579 13.8936 12.2782 13.9688 12.3458 14.0815L16.9069 21.9864L17.6057 23.1962C17.756 23.4592 18.034 23.617 18.3421 23.617H30.5977C30.8983 23.617 31.1838 23.4517 31.3341 23.1962L32.6341 20.9494L35.6848 15.667L35.7299 15.5918L37.1276 13.1647L37.4657 12.5786C37.6085 12.3307 37.6085 12.0076 37.4582 11.7446ZM24.5639 16.6213C22.1743 16.6213 20.2282 14.6225 20.2282 12.1729C20.2282 9.71573 22.1743 7.72448 24.5639 7.72448C26.9534 7.72448 28.8995 9.72325 28.8995 12.1729C28.8995 14.6225 26.9534 16.6213 24.5639 16.6213Z" fill="white"/>
<path d="M92.5599 0.127686C85.3688 0.127686 80.3493 5.37258 80.3493 12.0752C80.3493 18.7779 85.3688 24.0228 92.5599 24.0228C99.7509 24.0228 104.77 18.7779 104.77 12.0752C104.77 5.37258 99.7509 0.127686 92.5599 0.127686ZM92.7778 20.3709C89.8397 20.446 88.0889 17.6808 87.9537 12.2481C87.7959 6.26677 89.4114 3.85472 92.3119 3.77958C95.3251 3.70444 97.0233 6.06389 97.1811 12.0076C97.3163 17.4779 95.7459 20.2957 92.7778 20.3709Z" fill="white"/>
<path d="M54.1997 0.525879H44.6942C44.1683 0.525879 43.8376 0.856502 43.8376 1.38249V2.63736C43.8376 3.20093 44.033 3.3963 44.5289 3.59167L45.1526 3.8246C45.8439 4.0876 46.0769 4.44828 46.0769 5.17716V18.9732C46.0769 19.7021 45.8439 20.0627 45.1526 20.3257L44.5289 20.5587C44.033 20.7541 43.8376 20.9569 43.8376 21.513V22.7679C43.8376 23.2938 44.1683 23.6245 44.6942 23.6245H54.1997C54.7257 23.6245 55.0563 23.2938 55.0563 22.7679V21.513C55.0563 20.9494 54.8609 20.7541 54.365 20.5587L53.7413 20.3257C53.05 20.0627 52.8171 19.7021 52.8171 18.9732V5.17716C52.8171 4.44828 53.05 4.0876 53.7413 3.8246L54.365 3.59167C54.8609 3.3963 55.0563 3.19341 55.0563 2.63736V1.38249C55.0563 0.856502 54.7257 0.525879 54.1997 0.525879Z" fill="white"/>
<path d="M79.5976 20.5889L79.2369 20.3935C78.3427 19.8976 77.689 19.5369 76.8248 18.1844L73.7215 13.2025C73.5562 12.9395 73.6539 12.7366 73.9544 12.6765C76.5618 11.9852 78.0497 10.4673 78.0497 7.76221C78.0497 2.65257 74.0671 0.533569 65.5461 0.533569L57.9793 0.601197C57.4533 0.668825 57.1903 0.961877 57.1903 1.45781V2.71268C57.1903 3.27624 57.3857 3.47161 57.814 3.63692L58.5729 3.93749C59.1966 4.20049 59.4295 4.53111 59.4295 5.19236V18.9884C59.4295 19.7173 59.1966 20.0779 58.5053 20.3409L57.8816 20.5739C57.3857 20.7693 57.1903 20.9721 57.1903 21.5282V22.7831C57.1903 23.309 57.5209 23.6397 58.0469 23.6397H67.5523C68.1159 23.6397 68.409 23.309 68.409 22.7831V21.5282C68.409 20.9646 68.2136 20.7693 67.7177 20.5739L67.094 20.3409C66.4027 20.0779 66.1697 19.7173 66.1697 18.9884V13.8712C66.1697 13.5782 66.2674 13.473 66.5004 13.473C66.7634 13.473 66.9287 13.6684 67.1616 14.0666L71.6851 22.2495C72.2487 23.2715 72.677 23.6322 73.8267 23.6322H79.6051C80.1686 23.6322 80.3941 23.3316 80.3941 22.9033V21.7085C80.3941 21.1825 80.2288 20.9496 79.5976 20.5889ZM67.387 10.6927H66.6582C66.3876 10.6927 66.1923 10.4974 66.1923 10.2269V3.92246C66.1923 3.65195 66.3876 3.45658 66.6582 3.45658H67.4171C69.9869 3.45658 71.5724 4.38834 71.5724 6.9657C71.5799 9.54307 70.3476 10.6852 67.387 10.6927Z" fill="white"/>
<path d="M218.685 3.8246L219.309 3.59167C219.805 3.3963 220 3.19341 220 2.63736V1.38249C220 0.856502 219.699 0.525879 219.143 0.525879H209.638C209.112 0.525879 208.781 0.856502 208.781 1.38249V2.63736C208.781 3.20093 208.977 3.3963 209.473 3.59167L210.096 3.8246C210.788 4.0876 211.021 4.44828 211.021 5.17716V9.3325C211.021 9.56544 210.855 9.73075 210.622 9.73075H203.627C203.394 9.73075 203.228 9.56544 203.228 9.3325V5.17716C203.228 4.44828 203.461 4.0876 204.153 3.8246L204.776 3.59167C205.272 3.3963 205.468 3.19341 205.468 2.63736V1.38249C205.468 0.856502 205.167 0.525879 204.611 0.525879H195.106C194.58 0.525879 194.249 0.856502 194.249 1.38249V2.63736C194.249 3.20093 194.444 3.3963 194.94 3.59167L195.564 3.8246C196.255 4.0876 196.488 4.44828 196.488 5.17716V18.9732C196.488 19.7021 196.255 20.0627 195.564 20.3257L194.94 20.5587C194.444 20.7541 194.249 20.9569 194.249 21.513V22.7679C194.249 23.2938 194.58 23.6245 195.106 23.6245H204.611C205.175 23.6245 205.468 23.2938 205.468 22.7679V21.513C205.468 20.9494 205.272 20.7541 204.776 20.5587L204.153 20.3257C203.461 20.0627 203.228 19.7021 203.228 18.9732V13.4954C203.228 13.2624 203.394 13.0971 203.627 13.0971H210.622C210.855 13.0971 211.021 13.2624 211.021 13.4954V18.9732C211.021 19.7021 210.788 20.0627 210.096 20.3257L209.473 20.5587C208.977 20.7541 208.781 20.9569 208.781 21.513V22.7679C208.781 23.2938 209.112 23.6245 209.638 23.6245H219.143C219.707 23.6245 220 23.2938 220 22.7679V21.513C220 20.9494 219.805 20.7541 219.309 20.5587L218.685 20.3257C217.994 20.0627 217.761 19.7021 217.761 18.9732V5.17716C217.761 4.44828 217.986 4.0876 218.685 3.8246Z" fill="white"/>
<path d="M185.683 8.97201L181.655 7.78477C179.672 7.19115 178.62 6.49985 178.62 5.34266C178.62 4.22305 179.679 3.5092 181.295 3.49417C183.564 3.47915 185.585 4.5161 188.493 7.64951C188.891 8.07782 189.32 8.24314 189.913 7.91251L190.605 7.51426C191.198 7.18363 191.289 6.69521 191.003 6.19176L188.118 1.20986C187.787 0.623756 187.554 0.21799 186.863 0.21799H186.547C185.758 0.21799 185.653 0.578671 184.864 0.578671C183.842 0.578671 182.745 0.18042 180.874 0.18042C175.689 0.18042 172.323 2.69016 172.323 7.1085C172.323 10.8055 174.998 12.8869 178.296 13.9765L182.587 15.3966C184.699 16.0879 185.818 16.8844 185.818 18.3347C185.818 19.8826 184.631 20.5814 182.685 20.5814C179.717 20.5814 177.139 18.8982 174.434 15.3365C174.006 14.773 173.578 14.6753 173.014 14.9383L171.924 15.4643C171.429 15.6972 171.293 16.1931 171.594 16.8168L174.63 23.0536C174.908 23.6172 175.291 23.8426 175.749 23.8426H176.14C176.869 23.8426 177.365 23.3466 178.018 23.3466C179.243 23.3466 180.461 23.9403 183.203 23.9403C188.681 23.9403 192.573 21.4005 192.573 16.5163C192.581 12.0077 189.575 10.0916 185.683 8.97201Z" fill="white"/>
<path d="M168.971 0.525879H159.466C158.94 0.525879 158.609 0.856502 158.609 1.38249V2.63736C158.609 3.20093 158.805 3.3963 159.301 3.59167L159.924 3.8246C160.616 4.0876 160.849 4.44828 160.849 5.17716V18.9732C160.849 19.7021 160.616 20.0627 159.924 20.3257L159.301 20.5587C158.805 20.7541 158.609 20.9569 158.609 21.513V22.7679C158.609 23.2938 158.94 23.6245 159.466 23.6245H168.971C169.497 23.6245 169.828 23.2938 169.828 22.7679V21.513C169.828 20.9494 169.633 20.7541 169.137 20.5587L168.513 20.3257C167.822 20.0627 167.589 19.7021 167.589 18.9732V5.17716C167.589 4.44828 167.822 4.0876 168.513 3.8246L169.137 3.59167C169.633 3.3963 169.828 3.19341 169.828 2.63736V1.38249C169.828 0.856502 169.505 0.525879 168.971 0.525879Z" fill="white"/>
<path d="M154.634 0.623678C154.417 0.240455 154.206 0 153.71 0H153.056C152.696 0 152.493 0.0826571 152.215 0.300568C151.914 0.533508 151.659 0.533509 151.013 0.533509H138.719C138.193 0.533509 137.863 0.864132 137.863 1.39012V2.64499C137.863 3.20855 138.058 3.40392 138.554 3.59929L139.178 3.83223C139.869 4.09523 140.102 4.45591 140.102 5.18478V18.9808C140.102 19.7097 139.869 20.0704 139.178 20.3334L138.554 20.5663C138.058 20.7617 137.863 20.9646 137.863 21.5206V22.7755C137.863 23.3015 138.193 23.6321 138.719 23.6321H148.683C149.247 23.6321 149.54 23.3015 149.54 22.7755V21.5206C149.54 20.957 149.375 20.694 148.849 20.5663L147.759 20.2657C147.03 20.0704 146.835 19.7022 146.835 18.9808V13.1724C146.835 12.9394 147 12.7741 147.233 12.7741H147.797C150.374 12.7741 151.952 14.0966 153.575 15.9751C153.808 16.2381 154.101 16.3358 154.499 16.1405L155.326 15.7121C155.686 15.5168 155.822 15.1937 155.656 14.8555L153.102 9.60312C152.959 9.30256 152.771 9.12222 152.395 9.12222H151.989C151.711 9.12222 151.531 9.19736 151.283 9.40024C151.058 9.58058 150.78 9.70081 150.426 9.70081H147.248C147.015 9.70081 146.85 9.53549 146.85 9.30256V5.07959C146.85 3.89235 147.308 3.42647 148.563 3.42647C150.712 3.42647 153.643 5.30501 155.363 7.02576C155.664 7.31881 156.025 7.38644 156.423 7.16102L157.317 6.59745C157.618 6.40208 157.813 6.08649 157.618 5.74084L154.634 0.623678Z" fill="white"/>
<path d="M128.846 20.8517L128.087 20.5887C127.395 20.3558 127.162 19.9651 127.162 19.2362V4.8841C127.162 4.15523 127.395 3.79455 128.087 3.53155L128.71 3.29861C129.206 3.10324 129.402 2.90036 129.402 2.34431V1.39001C129.402 0.864018 129.101 0.533395 128.545 0.533395H122.211C121.685 0.533395 121.354 0.864018 121.354 1.39001V2.34431C121.354 2.90788 121.549 3.10324 122.045 3.29861L122.669 3.53155C123.36 3.79455 123.593 4.15523 123.593 4.8841V12.9694C123.593 13.1046 123.48 13.2173 123.345 13.2173C123.27 13.2173 123.202 13.1798 123.157 13.1272L114.734 1.32238C114.524 0.999273 114.313 0.788875 114.088 0.683676C113.87 0.578477 113.562 0.525879 113.179 0.525879H106.889C106.363 0.525879 106.033 0.856502 106.033 1.38249V2.63736C106.033 3.20093 106.228 3.3963 106.724 3.59167L107.348 3.8246C108.039 4.0876 108.272 4.44828 108.272 5.17716V19.2662C108.272 19.9951 108.039 20.3558 107.348 20.6188L106.724 20.8517C106.228 21.0471 106.033 21.25 106.033 21.806V22.7603C106.033 23.2863 106.363 23.617 106.889 23.617H113.224C113.787 23.617 114.08 23.2863 114.08 22.7603V21.806C114.08 21.2425 113.885 21.0471 113.389 20.8517L112.765 20.6188C112.074 20.3558 111.841 19.9951 111.841 19.2662V10.1741C111.841 10.0388 111.954 9.92612 112.089 9.92612C112.164 9.92612 112.232 9.96369 112.277 10.0163L121.602 22.8355C121.812 23.1511 122.023 23.369 122.248 23.4742C122.466 23.5794 122.774 23.632 123.157 23.632H128.673C129.236 23.632 129.529 23.3014 129.529 22.7754V21.8211C129.537 21.25 129.342 21.017 128.846 20.8517Z" fill="white"/>
</svg>
