<?xml version="1.0" standalone="no"?>
<!DOCTYPE svg PUBLIC "-//W3C//DTD SVG 1.1//EN" "http://www.w3.org/Graphics/SVG/1.1/DTD/svg11.dtd" >
<svg xmlns="http://www.w3.org/2000/svg" xmlns:xlink="http://www.w3.org/1999/xlink" version="1.1">
<metadata></metadata>
<defs>
<font id="_.book" horiz-adv-x="1626" >
<font-face units-per-em="2048" ascent="1597" descent="-451" />
<missing-glyph horiz-adv-x="557" />
<glyph unicode="&#xfb01;" horiz-adv-x="1376" d="M43 852v172h279v195q0 215 215 215h313v-174h-244q-45 0 -64.5 -19.5t-19.5 -66.5v-150h692v-1024h-200v852h-492v-852h-200v852h-279zM1004 1208v226h221v-226h-221z" />
<glyph unicode="&#xfb02;" horiz-adv-x="1386" d="M43 852v172h279v195q0 215 215 215h688v-1434h-201v1260h-418q-45 0 -64.5 -19.5t-19.5 -66.5v-150h287v-172h-287v-852h-200v852h-279z" />
<glyph horiz-adv-x="0" />
<glyph unicode="&#xd;" horiz-adv-x="681" />
<glyph unicode=" "  horiz-adv-x="557" />
<glyph unicode="&#x09;" horiz-adv-x="557" />
<glyph unicode="&#xa0;" horiz-adv-x="557" />
<glyph unicode="!" horiz-adv-x="575" d="M158 0v250h256v-250h-256zM182 973v461h213v-461l-55 -584h-102z" />
<glyph unicode="&#x22;" horiz-adv-x="778" d="M129 1270v164h199v-164l-64 -277h-82zM455 1270v164h198v-164l-63 -277h-82z" />
<glyph unicode="#" horiz-adv-x="1644" d="M94 356v179h295l94 364h-301v178h346l93 357h188l-92 -357h393l88 357h188l-88 -357h252v-178h-297l-92 -364h303v-179h-346l-90 -356h-188l90 356h-398l-92 -356h-188l92 356h-250zM578 535h395l92 364h-393z" />
<glyph unicode="$" horiz-adv-x="1488" d="M80 461h225q4 -106 70.5 -175t179.5 -98l92 445l-35 6q-236 39 -344 130t-108 280q0 102 61.5 194t191.5 151.5t335 59.5h36.5t36.5 -2l47 227h181l-54 -254q176 -45 277.5 -153.5t118.5 -267.5h-226q-25 172 -209 235l-90 -426l15 -2q481 -76 481 -408 q0 -205 -155.5 -314t-448.5 -109h-33.5t-34.5 2l-47 -228h-180l51 248q-203 41 -316.5 155.5t-117.5 303.5zM373 1055q0 -88 67.5 -136t210.5 -71l41 -6l88 424h-16h-33q-172 0 -265 -60.5t-93 -150.5zM731 168h8h33q201 0 289 60.5t88 158.5q0 82 -71.5 135t-241.5 80 l-15 2z" />
<glyph unicode="%" horiz-adv-x="1988" d="M78 1030q0 188 101.5 301t287.5 113q176 0 282.5 -112.5t106.5 -301.5q0 -188 -106.5 -301.5t-282.5 -113.5q-188 0 -288.5 113.5t-100.5 301.5zM238 1030q0 -129 54 -204.5t167 -75.5h16q104 0 162.5 75.5t58.5 204.5q0 133 -59 206t-162 73h-16q-113 0 -167 -76 t-54 -203zM391 0l1024 1434h186l-1024 -1434h-186zM1133 405q0 188 101.5 301t287.5 113q176 0 282.5 -112.5t106.5 -301.5q0 -188 -106.5 -301.5t-282.5 -113.5q-188 0 -288.5 113.5t-100.5 301.5zM1293 405q0 -129 54 -204.5t167 -75.5h16q104 0 162.5 75.5t58.5 204.5 q0 133 -59 206t-162 73h-16q-113 0 -167 -76t-54 -203z" />
<glyph unicode="&#x26;" horiz-adv-x="1560" d="M117 379q0 92 38 159.5t96 112.5t122 72q-100 41 -173 123t-73 213q0 113 62.5 196.5t165 131t220.5 47.5h332v-179h-311q-109 0 -188.5 -55t-79.5 -162q0 -106 74.5 -163.5t193.5 -57.5h418v246h205v-246h286v-178h-286v-639h-646q-123 0 -227 48t-166.5 133t-62.5 198z M317 408q0 -106 79 -168t212 -62h406v461h-406q-133 0 -212 -66.5t-79 -164.5z" />
<glyph unicode="'" horiz-adv-x="448" d="M129 1270v164h195v-164l-62 -277h-82z" />
<glyph unicode="(" horiz-adv-x="876" d="M106 717q0 178 34 349t113 313.5t217 236.5t347 115v-183q-166 -29 -266 -110.5t-151.5 -197.5t-69 -252t-17.5 -271t17.5 -271.5t69 -252t151.5 -197.5t266 -111v-182q-211 16 -349 108.5t-217 237t-112 317.5t-33 351z" />
<glyph unicode=")" horiz-adv-x="876" d="M59 -115q166 29 266.5 111t151.5 197.5t68.5 252t17.5 271.5t-17.5 271t-68.5 252t-151.5 197.5t-266.5 110.5v183q211 -16 349.5 -108.5t217.5 -237t111.5 -317.5t32.5 -351t-34 -349t-112.5 -313.5t-217 -235.5t-347.5 -116v182z" />
<glyph unicode="*" horiz-adv-x="956" d="M113 1135v122h247l-131 187l101 69l149 -210l148 210l100 -69l-131 -187h248v-122h-248l131 -187l-100 -69l-148 211l-149 -211l-101 69l131 187h-247z" />
<glyph unicode="+" horiz-adv-x="1286" d="M96 436v182h443v406h209v-406h442v-182h-442v-405h-209v405h-443z" />
<glyph unicode="," horiz-adv-x="587" d="M74 -150h106q123 0 123 119v31h-147v250h276v-291q0 -123 -68.5 -184.5t-183.5 -61.5h-106v137z" />
<glyph unicode="-" horiz-adv-x="929" d="M147 528v183h635v-183h-635z" />
<glyph unicode="." horiz-adv-x="575" d="M150 0v250h276v-250h-276z" />
<glyph unicode="/" horiz-adv-x="1017" d="M68 0l665 1434h215l-665 -1434h-215z" />
<glyph unicode="0" horiz-adv-x="1552" d="M123 717q0 252 88 414.5t236.5 242.5t328.5 80t328.5 -80t238 -242.5t89.5 -414.5t-88.5 -415t-237 -242.5t-330.5 -79.5q-180 0 -328.5 79.5t-236.5 242.5t-88 415zM332 717q0 -166 41 -274.5t105.5 -171t139 -88t144.5 -25.5h29q70 0 145.5 25.5t140 88t105.5 171 t41 274.5t-41 274.5t-105.5 171t-140.5 88t-145 25.5h-29q-70 0 -144.5 -25.5t-139 -88t-105.5 -171t-41 -274.5z" />
<glyph unicode="1" horiz-adv-x="888" d="M70 840v233l450 361h160v-1434h-201v1163z" />
<glyph unicode="2" horiz-adv-x="1357" d="M119 0v231l583 437q109 80 178.5 138t103.5 112.5t34 119.5q0 111 -91 174.5t-231 63.5h-28q-147 0 -231.5 -80t-88.5 -190h-215q4 135 77 235t195.5 156.5t276.5 56.5q158 0 280.5 -48t193.5 -139t71 -220q0 -109 -49.5 -193t-135 -159.5t-196.5 -157.5l-469 -349h860 v-188h-1118z" />
<glyph unicode="3" horiz-adv-x="1404" d="M109 375h215q18 -106 119.5 -161.5t234.5 -55.5h29q158 0 257 67.5t99 173.5q0 109 -90 169.5t-252 60.5h-205v178h205q164 0 248 69.5t84 167.5q0 111 -93.5 171.5t-252.5 60.5h-29q-131 0 -223.5 -63.5t-104.5 -157.5h-215q4 113 75 203t195.5 143t290.5 53 q174 0 300 -49t196 -137t70 -205q0 -96 -38 -162.5t-96.5 -108.5t-117.5 -67q68 -18 127 -62.5t97 -110t38 -153.5q0 -131 -72 -225t-201 -144t-303 -50q-168 0 -299 48t-206.5 137t-81.5 210z" />
<glyph unicode="4" horiz-adv-x="1452" d="M63 322v208l811 904h228v-936h280v-176h-280v-322h-201v322h-838zM264 498h637v706z" />
<glyph unicode="5" horiz-adv-x="1353" d="M84 379h215q29 -106 126 -163.5t224 -57.5h29q166 0 259 82t93 209q0 121 -95 193.5t-247 72.5h-29q-84 0 -173 -31t-138 -100h-213l174 850h893v-189h-741l-96 -461q70 55 163 82t195 27q152 0 268.5 -56.5t182 -154.5t65.5 -227q0 -143 -71.5 -251t-200.5 -166 t-303 -58q-156 0 -282 45t-204 134t-94 220z" />
<glyph unicode="6" horiz-adv-x="1466" d="M121 649q0 172 50 318.5t142.5 256t219 170t280.5 60.5q147 0 264 -45t189.5 -127t89.5 -197h-215q-16 70 -95 130.5t-219 60.5h-28q-127 0 -230.5 -65.5t-169 -183.5t-84.5 -275q72 96 194 144t263 48q150 0 277 -54t204.5 -159.5t77.5 -259.5q0 -152 -74.5 -262.5 t-209 -169.5t-312.5 -59q-186 0 -324.5 70.5t-214 218t-75.5 380.5zM348 463q0 -100 52.5 -169t138.5 -102.5t186 -33.5h29q96 0 180 33.5t135 101t51 168.5q0 102 -51 169.5t-135 101.5t-180 34h-29q-98 0 -184 -34t-139.5 -100.5t-53.5 -168.5z" />
<glyph unicode="7" horiz-adv-x="1275" d="M51 1245v189h1157v-205q-322 -162 -484.5 -446.5t-162.5 -741.5v-41h-209v59q0 287 78 516.5t215 398.5t316 271h-910z" />
<glyph unicode="8" horiz-adv-x="1372" d="M119 1049q0 119 72.5 210t200.5 143t294 52q168 0 295 -51t199.5 -142.5t72.5 -211.5q0 -102 -48 -175t-118.5 -117t-136.5 -61q57 -18 115.5 -63t98.5 -111.5t40 -152.5q0 -119 -66.5 -206t-183 -135t-268.5 -48q-150 0 -267.5 48t-184 135t-66.5 206q0 86 40 152.5 t98.5 111.5t115.5 63q-66 16 -136.5 60.5t-118.5 117t-48 175.5zM328 1038q0 -113 93 -179t251 -66h28q158 0 251 66.5t93 178.5q0 113 -93 175.5t-251 62.5h-28q-158 0 -251 -62.5t-93 -175.5zM377 379q0 -100 80 -160.5t215 -60.5h28q135 0 215 60.5t80 160.5 q0 102 -79.5 168.5t-215.5 66.5h-28q-135 0 -215 -66.5t-80 -168.5z" />
<glyph unicode="9" horiz-adv-x="1466" d="M111 348h215q16 -70 95 -130t218 -60h29q129 0 231 65.5t168 183t84 275.5q-70 -94 -192.5 -143.5t-264.5 -49.5q-150 0 -276.5 54.5t-204.5 161t-78 258.5q0 154 75 263t210 168.5t311 59.5q186 0 324.5 -69.5t214.5 -218t76 -382.5q0 -172 -50.5 -318.5t-142.5 -256 t-219 -169.5t-281 -60q-147 0 -264 45t-189.5 128t-88.5 195zM346 973q0 -100 51.5 -169t135.5 -102.5t180 -33.5h28q98 0 184.5 33.5t139.5 101t53 168.5q0 102 -52 169.5t-138 101.5t-187 34h-28q-96 0 -180 -34t-135.5 -100.5t-51.5 -168.5z" />
<glyph unicode=":" horiz-adv-x="571" d="M150 0v250h276v-250h-276zM150 774v250h276v-250h-276z" />
<glyph unicode=";" horiz-adv-x="643" d="M115 -150h106q123 0 123 119v31h-147v250h276v-291q0 -123 -68.5 -184.5t-183.5 -61.5h-106v137zM197 774v250h276v-250h-276z" />
<glyph unicode="&#x3c;" horiz-adv-x="1245" d="M98 444v164l994 359v-199l-703 -238l703 -231v-213z" />
<glyph unicode="=" horiz-adv-x="1449" d="M158 252v178h1134v-178h-1134zM158 625v178h1134v-178h-1134z" />
<glyph unicode="&#x3e;" horiz-adv-x="1247" d="M154 84v199l702 237l-702 232v213l993 -359v-164z" />
<glyph unicode="?" horiz-adv-x="1122" d="M86 1245v189h539q125 0 219 -47.5t148.5 -132.5t54.5 -203q0 -176 -129.5 -278.5t-342.5 -102.5h-2q-51 0 -70.5 -16.5t-19.5 -55.5v-188h-202v239q0 109 50 154t158 45h125q102 0 163 55t61 148q0 92 -63.5 143t-180.5 51h-508zM256 0v250h256v-250h-256z" />
<glyph unicode="@" horiz-adv-x="2185" d="M113 623q0 281 128 475t352 295.5t515 101.5q301 0 516 -100.5t328.5 -272.5t113.5 -387q0 -176 -65.5 -297t-171 -182t-230.5 -61h-227v127q-39 -51 -123 -99.5t-205 -48.5q-123 0 -224 52.5t-160.5 151.5t-59.5 236q0 139 60.5 234.5t162 145.5t224.5 50 q125 0 203.5 -47t111.5 -94v121h180v-676h47q66 0 129.5 38t105.5 124t42 225q0 158 -82 290t-249 212t-427 80q-252 0 -429 -86t-271.5 -241.5t-94.5 -366.5q0 -328 201 -514.5t578 -186.5h651v-178h-662q-287 0 -506 98.5t-340.5 294t-121.5 486.5zM801 614 q0 -123 67.5 -203.5t196.5 -80.5h10q86 0 150.5 39t100.5 104.5t36 140.5q0 115 -74 195t-203 80h-10q-129 0 -201.5 -76t-72.5 -199z" />
<glyph unicode="A" d="M6 0l670 1434h274l668 -1434h-234l-167 367h-816l-168 -367h-227zM487 555h643l-321 698z" />
<glyph unicode="B" horiz-adv-x="1581" d="M199 0v1434h794q123 0 220.5 -46.5t154.5 -130t57 -202.5q0 -123 -67.5 -207t-159.5 -119q111 -25 186.5 -113t75.5 -227q0 -119 -59.5 -206t-159.5 -135t-223 -48h-819zM410 188h567q125 0 197.5 58.5t72.5 171.5q0 102 -72.5 158.5t-197.5 56.5h-567v-445zM410 821h553 q117 0 183 56.5t66 156.5t-66.5 155.5t-182.5 55.5h-553v-424z" />
<glyph unicode="C" horiz-adv-x="1667" d="M106 717q0 211 95.5 377t269.5 263t412 97q205 0 351 -64.5t232 -172t105 -234.5h-225q-31 137 -156 210t-291 73h-33q-172 0 -293.5 -73t-187.5 -198t-66 -278q0 -154 66 -278t187.5 -197.5t293.5 -73.5h33q166 0 290 70.5t157 212.5h225q-20 -137 -109.5 -244 t-235.5 -167t-343 -60q-242 0 -416 95t-267.5 261t-93.5 381z" />
<glyph unicode="D" horiz-adv-x="1703" d="M199 0v1434h665q225 0 388 -85t252 -246t89 -386t-89 -386t-252 -246t-388 -85h-665zM410 188h434q264 0 400 134.5t136 394.5q0 262 -136 395t-400 133h-434v-1057z" />
<glyph unicode="E" horiz-adv-x="1544" d="M199 0v1434h1226v-189h-1015v-414h893v-188h-893v-455h1036v-188h-1247z" />
<glyph unicode="F" horiz-adv-x="1443" d="M199 0v1434h1185v-189h-974v-454h860v-189h-860v-602h-211z" />
<glyph unicode="G" horiz-adv-x="1755" d="M106 717q0 215 95.5 382t273.5 261t424 94q223 0 377 -64.5t236.5 -176t93.5 -250.5h-226q-8 68 -54 138t-144.5 117.5t-266.5 47.5h-32q-168 0 -295 -64.5t-198 -187.5t-71 -297t72 -297t199 -187.5t293 -64.5h32q166 0 281 47t173 124t58 167v37h-522v188h547 q84 0 129 -46t45 -130v-555h-199v180q-29 -39 -94 -86t-172.5 -80.5t-263.5 -33.5q-246 0 -423 93t-272.5 260t-95.5 384z" />
<glyph unicode="H" horiz-adv-x="1738" d="M199 0v1434h211v-621h919v621h211v-1434h-211v625h-919v-625h-211z" />
<glyph unicode="I" horiz-adv-x="608" d="M199 0v1434h211v-1434h-211z" />
<glyph unicode="J" horiz-adv-x="966" d="M59 0v199h324q100 0 142 42t42 142v1051h211v-1076q0 -184 -87 -271t-271 -87h-361z" />
<glyph unicode="K" horiz-adv-x="1601" d="M199 0v1434h211v-729l852 729h309l-717 -611l750 -823h-287l-625 688l-282 -242v-446h-211z" />
<glyph unicode="L" horiz-adv-x="1437" d="M199 0v1434h211v-1246h991v-188h-1202z" />
<glyph unicode="M" horiz-adv-x="2127" d="M199 0v1434h354l512 -1250l512 1250h352v-1434h-211v1266l-518 -1266h-274l-516 1260v-1260h-211z" />
<glyph unicode="N" horiz-adv-x="1732" d="M199 0v1434h290l834 -1198v1198h211v-1434h-291l-833 1198v-1198h-211z" />
<glyph unicode="O" horiz-adv-x="1796" d="M106 717q0 229 103.5 394t284 254t405.5 89q227 0 405.5 -89t282 -254t103.5 -394t-103.5 -394t-282 -254t-405.5 -89q-225 0 -405.5 89t-284 253.5t-103.5 394.5zM319 717q0 -174 77 -297t206 -187.5t281 -64.5h32q154 0 281 64.5t204 187.5t77 297t-77 297t-204 187.5 t-281 64.5h-32q-152 0 -281 -64.5t-206 -187.5t-77 -297z" />
<glyph unicode="P" horiz-adv-x="1513" d="M199 0v1434h739q145 0 259 -51.5t179.5 -148.5t65.5 -235q0 -139 -65.5 -237t-179.5 -148.5t-259 -50.5h-528v-563h-211zM410 752h497q322 0 322 247q0 246 -322 246h-497v-493z" />
<glyph unicode="Q" horiz-adv-x="1796" d="M106 717q0 229 103.5 394t284 254t405.5 89q227 0 405.5 -89t282 -254t103.5 -394q0 -215 -89.5 -373t-247 -250t-360.5 -110v-101q0 -47 18.5 -65.5t63.5 -18.5h393v-188h-493q-84 0 -134 45t-50 129v201q-199 20 -353.5 113.5t-243 250t-88.5 367.5zM319 717 q0 -174 77 -297t206 -187.5t281 -64.5h32q154 0 281 64.5t204 187.5t77 297t-77 297t-204 187.5t-281 64.5h-32q-152 0 -281 -64.5t-206 -187.5t-77 -297z" />
<glyph unicode="R" horiz-adv-x="1603" d="M199 0v1434h778q137 0 242.5 -51.5t166 -139.5t60.5 -201q0 -92 -33 -163.5t-85 -118.5t-111 -68q113 0 156.5 -51t43.5 -160v-481h-211v430q0 84 -30.5 113.5t-114.5 29.5h-651v-573h-211zM410 762h536q135 0 211 69.5t76 176.5q0 115 -76 176t-211 61h-536v-483z" />
<glyph unicode="S" horiz-adv-x="1488" d="M80 461h225q6 -145 123 -219t311 -74h33q201 0 289 60.5t88 158.5q0 82 -71.5 135t-241.5 80l-224 37q-236 39 -344 130t-108 280q0 102 61.5 194t191.5 151.5t335 59.5q289 0 455.5 -121t187.5 -329h-226q-18 127 -123.5 194.5t-277.5 67.5h-33q-172 0 -265 -60.5 t-93 -150.5q0 -88 67.5 -136.5t210.5 -70.5l230 -37q481 -76 481 -408q0 -205 -155.5 -314t-448.5 -109q-311 0 -492.5 120.5t-185.5 360.5z" />
<glyph unicode="T" horiz-adv-x="1472" d="M37 1245v189h1399v-189h-594v-1245h-211v1245h-594z" />
<glyph unicode="U" d="M182 565v869h211v-852q0 -203 103.5 -308.5t300.5 -105.5h32q197 0 300.5 105.5t103.5 308.5v852h211v-869q0 -268 -160 -426.5t-471 -158.5q-317 0 -474 158.5t-157 426.5z" />
<glyph unicode="V" horiz-adv-x="1640" d="M6 1434h238l579 -1256l576 1256h233l-669 -1434h-285z" />
<glyph unicode="W" horiz-adv-x="2160" d="M39 1434h217l342 -1221l350 1221h281l340 -1235l342 1235h217l-424 -1434h-285l-338 1204l-348 -1204h-284z" />
<glyph unicode="X" horiz-adv-x="1499" d="M10 0l608 733l-577 701h266l445 -541l448 541h262l-579 -699l604 -735h-266l-471 573l-478 -573h-262z" />
<glyph unicode="Y" horiz-adv-x="1460" d="M20 1434h254l459 -641l455 641h252l-604 -830v-604h-211v604z" />
<glyph unicode="Z" horiz-adv-x="1435" d="M88 0v182l971 1063h-950v189h1218v-183l-971 -1063h992v-188h-1260z" />
<glyph unicode="[" horiz-adv-x="788" d="M188 -297v2028h539v-179h-338v-1671h338v-178h-539z" />
<glyph unicode="\" horiz-adv-x="1017" d="M70 1434h215l665 -1434h-215z" />
<glyph unicode="]" horiz-adv-x="788" d="M61 -119h338v1671h-338v179h539v-2028h-539v178z" />
<glyph unicode="^" horiz-adv-x="1226" d="M86 584l420 850h215l420 -850h-203l-328 678l-329 -678h-195z" />
<glyph unicode="_" horiz-adv-x="1359" d="M137 0h1086v-178h-1086v178z" />
<glyph unicode="`" horiz-adv-x="464" d="M55 1434h221l136 -277h-154z" />
<glyph unicode="a" horiz-adv-x="1232" d="M86 283q0 111 54.5 178t146.5 102t205 41l389 25v30q0 111 -74 164.5t-203 53.5h-33q-100 0 -170.5 -39t-81.5 -111h-204q10 92 71.5 164t165 112.5t236.5 40.5q242 0 367.5 -109.5t125.5 -279.5v-430q0 -45 4.5 -108.5t10.5 -116.5h-191q-4 27 -8 62.5t-5 65.5t-1 34 q-35 -70 -141 -126t-258 -56q-197 0 -301.5 86t-104.5 217zM289 293q0 -63 52 -104.5t171 -41.5h29q82 0 159.5 26t129 79t51.5 137v84l-324 -18q-150 -8 -209 -50.5t-59 -111.5z" />
<glyph unicode="b" horiz-adv-x="1406" d="M162 0v1434h200v-566q49 74 157 125t239 51q162 0 285.5 -60t195.5 -178t72 -294q0 -166 -71 -286t-196.5 -183t-289.5 -63q-111 0 -221.5 46t-170.5 124v-150h-200zM362 512q0 -117 48.5 -199t132.5 -124t186 -42h29q154 0 252 94.5t98 270.5t-98.5 270.5t-251.5 94.5 h-29q-102 0 -186 -42t-132.5 -123t-48.5 -200z" />
<glyph unicode="c" horiz-adv-x="1263" d="M96 512q0 150 67.5 270.5t194.5 191t308 70.5q211 0 349 -96t161 -262h-205q-18 90 -97 140.5t-194 50.5h-29q-119 0 -196.5 -51.5t-116.5 -134.5t-39 -179t39 -179t116.5 -134.5t196.5 -51.5h29q115 0 192.5 54.5t98.5 136.5h205q-14 -102 -83 -184t-177.5 -128 t-249.5 -46q-190 0 -316.5 67.5t-190 188t-63.5 276.5z" />
<glyph unicode="d" horiz-adv-x="1406" d="M96 512q0 176 72 294t196.5 178t284.5 60q131 0 238.5 -51t156.5 -125v566h201v-1434h-201v150q-59 -78 -169.5 -124t-221.5 -46q-164 0 -289.5 63t-196.5 183t-71 286zM299 512q0 -176 98 -270.5t252 -94.5h29q104 0 187 42t131 124t48 199q0 119 -48 200t-131 123 t-187 42h-29q-154 0 -252 -94.5t-98 -270.5z" />
<glyph unicode="e" horiz-adv-x="1267" d="M96 520q0 129 47 227.5t127 165t179.5 99t203.5 32.5q162 0 278 -62t177 -172t61 -255v-78h-868q10 -111 60.5 -184.5t126 -109.5t159.5 -36h29q106 0 178 41t98 115h205q-18 -100 -85.5 -173t-173 -111.5t-234.5 -38.5q-160 0 -288 60t-204 181t-76 299zM311 635h645 q-8 133 -92 187.5t-196 54.5h-29q-133 0 -216 -64.5t-112 -177.5z" />
<glyph unicode="f" horiz-adv-x="880" d="M43 852v172h279v195q0 215 217 215h354v-174h-287q-45 0 -64.5 -19.5t-19.5 -66.5v-150h309v-172h-309v-852h-200v852h-279z" />
<glyph unicode="g" horiz-adv-x="1378" d="M68 -133h208q23 -74 114 -112t224 -38h29q104 0 189.5 36t134.5 110t49 184v127q-47 -63 -142.5 -118.5t-238.5 -55.5t-266 55.5t-198 171t-75 295.5t74 295t196.5 171t266.5 56q145 0 244.5 -54t138.5 -116v150h201v-1001q0 -131 -67 -239t-196.5 -171.5t-324.5 -63.5 q-256 0 -399.5 90.5t-161.5 227.5zM299 522q0 -125 45 -203.5t122 -114.5t167 -36h29q88 0 168.5 43t133 122t52.5 189q0 111 -49 191t-127 122t-168 42h-29q-90 0 -169 -36t-127 -114t-48 -205z" />
<glyph unicode="h" horiz-adv-x="1343" d="M162 0v1434h200v-580q55 82 151.5 136t242.5 54q141 0 238.5 -54t148.5 -149.5t51 -217.5v-623h-201v573q0 135 -62.5 219.5t-195.5 84.5h-28q-88 0 -167 -45.5t-128.5 -126t-49.5 -189.5v-516h-200z" />
<glyph unicode="i" horiz-adv-x="528" d="M152 1204v230h225v-230h-225zM164 0v1024h201v-1024h-201z" />
<glyph unicode="j" horiz-adv-x="544" d="M-260 -201h360q47 0 64.5 18.5t17.5 63.5v1143h201v-1188q0 -215 -215 -215h-428v178zM170 1204v230h225v-230h-225z" />
<glyph unicode="k" horiz-adv-x="1251" d="M162 0v1434h200v-871l566 461h293l-537 -424l557 -600h-268l-441 481l-170 -135v-346h-200z" />
<glyph unicode="l" horiz-adv-x="524" d="M162 0v1434h200v-1434h-200z" />
<glyph unicode="m" horiz-adv-x="2138" d="M162 0v1024h200v-143q55 74 144.5 118.5t222.5 44.5q127 0 235.5 -49t159.5 -155q66 113 179.5 158.5t226.5 45.5q164 0 264 -57t147.5 -155.5t47.5 -223.5v-608h-201v580q0 131 -64.5 214t-203.5 83h-29q-137 0 -226 -99.5t-89 -269.5v-508h-201v580q0 131 -65.5 214 t-204.5 83h-29q-137 0 -225.5 -99.5t-88.5 -269.5v-508h-200z" />
<glyph unicode="n" horiz-adv-x="1343" d="M162 0v1024h200v-170q55 82 151.5 136t242.5 54q141 0 238.5 -54t148.5 -149.5t51 -217.5v-623h-201v573q0 135 -62.5 219.5t-195.5 84.5h-28q-88 0 -167 -45.5t-128.5 -126t-49.5 -189.5v-516h-200z" />
<glyph unicode="o" horiz-adv-x="1351" d="M94 512q0 162 74 281.5t205 185t303 65.5t303 -65.5t204.5 -185t73.5 -281.5t-73.5 -281.5t-204.5 -185t-303 -65.5t-303 65.5t-205 185t-74 281.5zM297 512q0 -113 47 -194.5t130.5 -126t187.5 -44.5h28q104 0 186 44.5t130.5 126t48.5 194.5q0 115 -48.5 195.5 t-130 125t-186.5 44.5h-28q-104 0 -187.5 -44.5t-130.5 -125t-47 -195.5z" />
<glyph unicode="p" horiz-adv-x="1406" d="M162 -410v1434h200v-150q59 78 170 124t222 46q164 0 289.5 -63t196.5 -183t71 -286q0 -174 -72 -293t-195.5 -179t-285.5 -60q-131 0 -238.5 51t-157.5 125v-566h-200zM362 512q0 -117 48.5 -199t132.5 -124t186 -42h29q154 0 252 94.5t98 270.5t-98.5 270.5 t-251.5 94.5h-29q-102 0 -186 -42t-132.5 -123t-48.5 -200z" />
<glyph unicode="q" horiz-adv-x="1406" d="M96 512q0 166 71 286t196.5 183t289.5 63q111 0 221.5 -46t169.5 -124v150h201v-1434h-201v566q-49 -74 -156.5 -125t-238.5 -51q-160 0 -284.5 60t-196.5 179t-72 293zM299 512q0 -174 98 -269.5t252 -95.5h29q104 0 187 43t131 124t48 198t-48 199t-131 124t-187 42 h-29q-154 0 -252 -94.5t-98 -270.5z" />
<glyph unicode="r" horiz-adv-x="878" d="M162 0v1024h190v-215q41 109 115 162t211 53h158v-193h-172q-143 0 -222.5 -79.5t-79.5 -237.5v-514h-200z" />
<glyph unicode="s" horiz-adv-x="1150" d="M76 317h205q8 -88 88 -129t186 -41h29q119 0 187.5 30t68.5 97q0 47 -42 79t-159 55l-170 32q-160 31 -252 95.5t-92 195.5q0 102 59.5 172t160.5 105.5t224 35.5q240 0 361 -92t133 -245h-205q-8 72 -76.5 121t-197.5 49h-29q-111 0 -169 -36t-58 -93q0 -45 39 -73 t163 -52l160 -31q162 -31 257 -99.5t95 -205.5t-126 -222t-347 -85q-233 0 -358 91t-135 246z" />
<glyph unicode="t" horiz-adv-x="927" d="M33 852v172h264v332h201v-332h329v-172h-329v-592q0 -45 18.5 -63.5t63.5 -18.5h292v-178h-350q-106 0 -165.5 59.5t-59.5 165.5v627h-264z" />
<glyph unicode="u" horiz-adv-x="1325" d="M150 385v639h200v-592q0 -137 59.5 -211t190.5 -74h29q88 0 163.5 42t123 121t47.5 188v526h200v-1024h-200v186q-47 -86 -142.5 -146t-245.5 -60q-209 0 -317 110.5t-108 294.5z" />
<glyph unicode="v" horiz-adv-x="1226" d="M25 1024h221l366 -829l377 829h215l-471 -1024h-241z" />
<glyph unicode="w" horiz-adv-x="1806" d="M31 1024h211l278 -803l273 803h219l284 -819l269 819h211l-373 -1024h-227l-273 788l-274 -788h-226z" />
<glyph unicode="x" horiz-adv-x="1189" d="M33 0l436 518l-422 506h258l293 -352l295 352h250l-420 -502l434 -522h-258l-307 369l-309 -369h-250z" />
<glyph unicode="y" horiz-adv-x="1263" d="M37 1024h227l391 -758l365 758h227l-497 -973v-215q-1 -215 -218 -215h-426v178h361q47 0 64.5 18.5t17.5 63.5v162z" />
<glyph unicode="z" horiz-adv-x="1155" d="M90 0v174l698 678h-688v172h944v-174l-698 -678h729v-172h-985z" />
<glyph unicode="{" horiz-adv-x="825" d="M78 571v291h98q61 0 82 28t21 103v420q0 162 59 240t197 78h225v-179h-164q-76 0 -96.5 -32.5t-20.5 -116.5v-492q0 -100 -47 -137t-117 -37h-53v-41h53q70 0 117 -36.5t47 -137.5v-491q0 -84 20.5 -117t96.5 -33h164v-178h-225q-137 0 -196.5 78t-59.5 239v420 q0 78 -20.5 104.5t-82.5 26.5h-98z" />
<glyph unicode="|" horiz-adv-x="581" d="M188 -174v1782h205v-1782h-205z" />
<glyph unicode="}" horiz-adv-x="825" d="M66 -117h163q78 0 97.5 33t19.5 117v491q0 100 47 137t117 37h53v41h-53q-70 0 -117 37t-47 137v492q0 84 -19.5 116.5t-97.5 32.5h-163v179h225q139 0 197.5 -78t58.5 -240v-420q0 -76 20.5 -103.5t81.5 -27.5h99v-291h-99q-61 0 -81.5 -26.5t-20.5 -104.5v-419 q0 -162 -58.5 -240t-197.5 -78h-225v178z" />
<glyph unicode="~" horiz-adv-x="1153" d="M168 727v53q0 90 56.5 151.5t144.5 61.5q59 0 110 -16t117 -49l43 -21q39 -18 74 -32.5t67 -14.5q31 0 50.5 27.5t19.5 85.5h151v-53q0 -88 -54 -150.5t-136 -62.5q-55 0 -111.5 19t-121.5 50l-52 25q-35 16 -63.5 27.5t-61.5 11.5q-35 0 -58.5 -27t-23.5 -86h-151z" />
<glyph unicode="&#xa1;" horiz-adv-x="546" d="M147 774v250h256v-250h-256zM166 51l55 584h103l55 -584v-461h-213v461z" />
<glyph unicode="&#xa2;" horiz-adv-x="1296" d="M106 512q0 150 68 269.5t195 191t305 71.5l45 226h178l-47 -244q141 -33 232.5 -120t107.5 -220h-211q-12 66 -55 105.5t-109 58.5l-135 -692h12q115 0 190.5 52t96.5 128h211q-25 -162 -163 -260t-349 -98h-33l-45 -226h-178l49 252q-180 49 -272.5 184.5t-92.5 321.5z M311 512q0 -102 48.5 -192.5t146.5 -131.5l133 678q-111 -4 -183.5 -54t-108.5 -128t-36 -172z" />
<glyph unicode="&#xa3;" horiz-adv-x="1343" d="M102 0v178h101q72 0 104.5 37t40.5 107l27 245l-269 -55v184l287 60l27 248q23 207 118 318.5t308 111.5h315v-179h-315q-119 0 -164 -69.5t-59 -192.5l-21 -192l307 63v-184l-327 -68l-29 -272q-6 -63 -28.5 -98t-59.5 -64h799v-178h-1162z" />
<glyph unicode="&#xa4;" horiz-adv-x="1593" d="M127 147l180 172q-45 66 -71.5 143t-26.5 163q0 166 92 293l-174 174l123 127l180 -172q74 53 167 81.5t196 28.5q106 0 199 -30.5t169 -84.5l185 177l122 -127l-180 -181q41 -59 64.5 -131.5t23.5 -154.5q0 -84 -24.5 -160t-69.5 -139l186 -179l-122 -127l-187 179 q-76 -55 -169 -86t-197 -31q-102 0 -194.5 29.5t-166.5 83.5l-182 -175zM410 625q0 -106 52 -190.5t139.5 -131.5t191.5 -47h10q104 0 188 47t134.5 131t50.5 191q0 106 -50.5 186t-134.5 126t-188 46h-21q-104 0 -189 -45t-134 -125t-49 -188z" />
<glyph unicode="&#xa5;" horiz-adv-x="1550" d="M68 1434h258l454 -635l6 2l449 633h252l-422 -578l219 43v-176l-369 -74l-32 -45v-137l340 65v-176l-340 -65v-291h-211v250l-346 -68v176l346 68v176l-408 -82v176l297 60z" />
<glyph unicode="&#xa6;" horiz-adv-x="593" d="M195 -174v758h204v-758h-204zM195 870v738h204v-738h-204z" />
<glyph unicode="&#xa7;" horiz-adv-x="1226" d="M102 666q0 80 44 144t128 118q-63 47 -83.5 105.5t-20.5 117.5q0 135 92 209t254 74h494v-179h-492q-72 0 -115 -21.5t-43 -74.5q0 -49 34 -78.5t116 -52.5l309 -80q145 -39 229.5 -105.5t84.5 -197.5q0 -80 -44.5 -143.5t-127.5 -116.5q63 -45 83.5 -105.5t20.5 -119.5 q0 -133 -92 -208t-254 -75h-535v178h533q72 0 114.5 24.5t42.5 76.5q0 49 -33.5 78.5t-115.5 50.5l-309 77q-145 37 -229.5 105t-84.5 199zM293 686q0 -70 63.5 -102.5t145.5 -55.5l286 -73q100 41 127 85t27 85q0 72 -63.5 104.5t-145.5 52.5l-287 74q-100 -39 -126.5 -84 t-26.5 -86z" />
<glyph unicode="&#xa8;" horiz-adv-x="774" d="M59 1206v219h236v-219h-236zM479 1206v219h236v-219h-236z" />
<glyph unicode="&#xa9;" horiz-adv-x="2134" d="M109 717q0 172 71.5 317.5t201.5 254t305 168t380 59.5t380 -59.5t305 -168t201.5 -254t71.5 -317.5t-71.5 -317.5t-201.5 -254t-305 -168t-380 -59.5t-380 59.5t-305 168t-201.5 254t-71.5 317.5zM272 717q0 -137 59.5 -254t167 -205t253 -137t315.5 -49t315.5 49 t253 137t167 205t59.5 254t-59.5 253.5t-167 205t-253 137.5t-315.5 49t-315.5 -49t-253 -137.5t-167 -205t-59.5 -253.5zM668 729q0 201 113.5 303.5t293.5 102.5q174 0 269.5 -80t103.5 -195h-170q-29 131 -195 131h-16q-121 0 -176 -76.5t-55 -185.5q0 -106 55 -184 t176 -78h16q84 0 132.5 38t66.5 93h166q-12 -70 -56 -132.5t-122 -102t-195 -39.5q-180 0 -293.5 103t-113.5 302z" />
<glyph unicode="&#xaa;" horiz-adv-x="854" d="M115 1016q0 84 63.5 131t177.5 55l195 12v13q0 92 -129 92h-16q-53 0 -86 -20.5t-39 -49.5h-148q8 82 85 138.5t196 56.5q133 0 210.5 -61.5t77.5 -165.5v-232q0 -27 3.5 -66.5t7.5 -68.5h-144q-4 8 -6 26.5t-4 45.5q-35 -45 -89.5 -63.5t-111.5 -18.5q-106 0 -174.5 48 t-68.5 128zM266 1026q0 -27 27 -45t76 -18h16q72 0 119 30.5t47 81.5v35l-158 -12q-68 -4 -97.5 -22.5t-29.5 -49.5z" />
<glyph unicode="&#xab;" horiz-adv-x="1249" d="M80 584l366 440h242l-358 -440l358 -441h-242zM553 584l367 440h241l-358 -440l358 -441h-241z" />
<glyph unicode="&#xac;" horiz-adv-x="1341" d="M158 541v178h1018v-463h-205v285h-813z" />
<glyph unicode="&#xad;" horiz-adv-x="929" d="M147 528v183h635v-183h-635z" />
<glyph unicode="&#xae;" horiz-adv-x="2134" d="M109 717q0 172 71.5 317.5t201.5 254t305 168t380 59.5t380 -59.5t305 -168t201.5 -254t71.5 -317.5t-71.5 -317.5t-201.5 -254t-305 -168t-380 -59.5t-380 59.5t-305 168t-201.5 254t-71.5 317.5zM272 717q0 -137 59.5 -254t167 -205t253 -137t315.5 -49t315.5 49 t253 137t167 205t59.5 254t-59.5 253.5t-167 205t-253 137.5t-315.5 49t-315.5 -49t-253 -137.5t-167 -205t-59.5 -253.5zM748 344v770h407q121 0 187.5 -60.5t66.5 -152.5q0 -82 -47 -130t-117 -64q78 0 116 -26t38 -93v-244h-154v197q0 90 -100 90h-244v-287h-153z M901 764h205q70 0 109.5 26.5t39.5 83.5q0 53 -36.5 75t-114.5 22h-203v-207z" />
<glyph unicode="&#xaf;" horiz-adv-x="788" d="M61 1206v158h666v-158h-666z" />
<glyph unicode="&#xb0;" horiz-adv-x="958" d="M100 1075q0 109 50.5 194t136.5 135t192 50q109 0 194 -50t135 -135t50 -194q0 -106 -50 -192t-135 -136.5t-194 -50.5q-106 0 -192 50.5t-136.5 136.5t-50.5 192zM283 1075q0 -86 57 -147.5t139 -61.5t139.5 61.5t57.5 147.5t-57.5 147.5t-139.5 61.5t-139 -61.5 t-57 -147.5z" />
<glyph unicode="&#xb1;" horiz-adv-x="1400" d="M154 0v178h1093v-178h-1093zM154 582v178h444v264h205v-264h444v-178h-444v-254h-205v254h-444z" />
<glyph unicode="&#xb2;" horiz-adv-x="823" d="M74 850v149l372 263q61 43 89 70.5t36.5 49t8.5 45.5q0 47 -44 77t-112 30h-16q-70 0 -119 -32t-53 -87h-156q2 76 46 132.5t120 89t170 32.5q139 0 231 -67.5t92 -171.5q0 -88 -53 -149.5t-137 -119.5l-254 -176h448v-135h-669z" />
<glyph unicode="&#xb3;" horiz-adv-x="831" d="M70 1083h157q6 -51 50.5 -80.5t121.5 -29.5h17q80 0 127 30.5t47 77.5t-42 77t-126 30h-131v133h131q78 0 120 31.5t42 81.5q0 47 -43 74.5t-125 27.5h-17q-72 0 -113.5 -33t-45.5 -80h-156q-2 106 89 176t237 70q152 0 242.5 -62.5t90.5 -164.5q0 -55 -35.5 -104.5 t-97.5 -77.5q63 -27 100.5 -76t37.5 -103q0 -111 -90 -176t-248 -65q-154 0 -247 65.5t-93 177.5z" />
<glyph unicode="&#xb4;" horiz-adv-x="464" d="M53 1157l135 277h222l-203 -277h-154z" />
<glyph unicode="&#xb5;" horiz-adv-x="1398" d="M193 -410v1434h200v-592q0 -137 59.5 -212t190.5 -75h29q88 0 164 42t123 122t47 189v526h201v-1024h-201v186q-47 -86 -142.5 -146t-244.5 -60q-129 0 -226 45v-435h-200z" />
<glyph unicode="&#xb6;" horiz-adv-x="1548" d="M70 1018q0 115 59 209t158.5 150.5t220.5 56.5h934v-179h-174v-1665h-193v1665h-291v-1665h-192v1012h-82q-121 0 -221.5 56.5t-159.5 151.5t-59 208z" />
<glyph unicode="&#xb7;" horiz-adv-x="571" d="M148 594v250h276v-250h-276z" />
<glyph unicode="&#xb8;" horiz-adv-x="526" d="M61 -342h148q66 0 91.5 18.5t25.5 51.5q0 74 -109 73h-65v230h116v-123q90 -6 147.5 -55.5t57.5 -128.5q0 -106 -77.5 -156.5t-186.5 -50.5h-148v141z" />
<glyph unicode="&#xb9;" horiz-adv-x="608" d="M49 1286v166l305 207h125v-809h-160v618z" />
<glyph unicode="&#xba;" horiz-adv-x="886" d="M102 1141q0 135 95.5 219t244.5 84q150 0 246 -83t96 -220q0 -135 -96 -218t-246 -83t-245 84t-95 217zM256 1141q0 -80 49 -127t131 -47h15q82 0 131 47t49 127q0 82 -49.5 129t-130.5 47h-15q-82 0 -131 -48t-49 -128z" />
<glyph unicode="&#xbb;" horiz-adv-x="1249" d="M88 143l358 441l-358 440h242l366 -440l-366 -441h-242zM561 143l359 441l-359 440h242l366 -440l-366 -441h-242z" />
<glyph unicode="&#xbc;" horiz-adv-x="1935" d="M49 1061v166l305 207h125v-809h-160v618zM215 0l1024 1434h186l-1024 -1434h-186zM1034 176v141l471 492h154v-500h147v-133h-147v-176h-150v176h-475zM1204 309h305v316z" />
<glyph unicode="&#xbd;" horiz-adv-x="1912" d="M49 1061v166l305 207h125v-809h-160v618zM215 0l1024 1434h186l-1024 -1434h-186zM1114 0v149l372 263q61 43 89 70.5t36.5 49t8.5 45.5q0 47 -44 77t-112 30h-16q-70 0 -119 -32t-53 -87h-156q2 76 46 132.5t120 89t170 32.5q139 0 231 -67.5t92 -171.5 q0 -88 -53 -149.5t-137 -119.5l-254 -176h448v-135h-669z" />
<glyph unicode="&#xbe;" horiz-adv-x="2113" d="M70 858h157q6 -51 50.5 -80.5t121.5 -29.5h17q80 0 127 30.5t47 77.5t-42 77t-126 30h-131v133h131q78 0 120 31.5t42 81.5q0 47 -43 74.5t-125 27.5h-17q-72 0 -113.5 -33t-45.5 -80h-156q-2 106 89 176t237 70q152 0 242.5 -62.5t90.5 -164.5q0 -55 -35.5 -104.5 t-97.5 -77.5q63 -27 100.5 -76t37.5 -103q0 -111 -90 -176t-248 -65q-154 0 -247 65.5t-93 177.5zM438 0l1024 1434h186l-1024 -1434h-186zM1257 176v141l471 492h154v-500h147v-133h-147v-176h-150v176h-475zM1427 309h305v316z" />
<glyph unicode="&#xbf;" horiz-adv-x="1107" d="M70 -27q0 176 129 278.5t342 102.5h2q51 0 70.5 16.5t19.5 55.5v188h203v-239q0 -106 -50.5 -152.5t-158.5 -46.5h-125q-100 0 -161.5 -55t-61.5 -148q0 -92 63.5 -143t179.5 -51h508v-189h-538q-123 0 -218.5 47.5t-149.5 133.5t-54 202zM604 774v250h256v-250h-256z " />
<glyph unicode="&#xc0;" d="M6 0l670 1434h274l668 -1434h-234l-167 367h-816l-168 -367h-227zM487 555h643l-321 698zM494 1823h266l139 -267h-178z" />
<glyph unicode="&#xc1;" d="M6 0l670 1434h274l668 -1434h-234l-167 367h-816l-168 -367h-227zM487 555h643l-321 698zM723 1556l139 267h264l-227 -267h-176z" />
<glyph unicode="&#xc2;" d="M6 0l670 1434h274l668 -1434h-234l-167 367h-816l-168 -367h-227zM387 1556l287 267h274l287 -267h-201l-221 142l-225 -142h-201zM487 555h643l-321 698z" />
<glyph unicode="&#xc3;" d="M6 0l670 1434h274l668 -1434h-234l-167 367h-816l-168 -367h-227zM387 1577v51q0 88 61.5 148.5t157.5 60.5q66 0 109 -14.5t94 -40.5l68 -35q29 -14 57.5 -25.5t50.5 -11.5q37 0 59.5 25.5t22.5 81.5h170v-52q0 -88 -61.5 -148.5t-157.5 -60.5q-63 0 -107.5 14.5 t-95.5 41.5l-67 35q-29 16 -57.5 26t-51.5 10q-37 0 -59.5 -25.5t-22.5 -80.5h-170zM487 555h643l-321 698z" />
<glyph unicode="&#xc4;" d="M6 0l670 1434h274l668 -1434h-234l-167 367h-816l-168 -367h-227zM475 1595v211h225v-211h-225zM487 555h643l-321 698zM926 1595v211h225v-211h-225z" />
<glyph unicode="&#xc5;" d="M6 0l670 1434h274l668 -1434h-234l-167 367h-816l-168 -367h-227zM487 555h643l-321 698zM582 1724q0 84 65.5 135.5t163.5 51.5t164.5 -51.5t66.5 -135.5t-66.5 -136t-164.5 -52t-163.5 52t-65.5 136zM711 1724q0 -33 26.5 -55t75.5 -22t74.5 22.5t25.5 54.5 q0 33 -25.5 54.5t-74.5 21.5t-75.5 -21.5t-26.5 -54.5z" />
<glyph unicode="&#xc6;" horiz-adv-x="2363" d="M-25 0l1012 1434h1192v-185h-874l57 -420h756v-184h-732l64 -461h852v-184h-1028l-51 369h-750l-260 -369h-238zM606 557h590l-96 703z" />
<glyph unicode="&#xc7;" horiz-adv-x="1667" d="M106 717q0 211 95.5 377t269.5 263t412 97q205 0 351 -64.5t232 -172t105 -234.5h-225q-31 137 -156 210t-291 73h-33q-172 0 -293.5 -73t-187.5 -198t-66 -278q0 -154 66 -278t187.5 -197.5t293.5 -73.5h33q166 0 290 70.5t157 212.5h225q-20 -131 -101 -233.5 t-215.5 -164t-314.5 -71.5v-74q90 -6 147.5 -55.5t57.5 -128.5q0 -106 -78 -156.5t-186 -50.5h-148v141h148q66 0 91 18.5t25 51.5q0 74 -108 73h-66v181q-225 12 -386 109t-246 259t-85 367z" />
<glyph unicode="&#xc8;" horiz-adv-x="1544" d="M199 0v1434h1226v-189h-1015v-414h893v-188h-893v-455h1036v-188h-1247zM494 1823h266l139 -267h-178z" />
<glyph unicode="&#xc9;" horiz-adv-x="1544" d="M199 0v1434h1226v-189h-1015v-414h893v-188h-893v-455h1036v-188h-1247zM723 1556l139 267h264l-227 -267h-176z" />
<glyph unicode="&#xca;" horiz-adv-x="1544" d="M199 0v1434h1226v-189h-1015v-414h893v-188h-893v-455h1036v-188h-1247zM387 1556l287 267h274l287 -267h-201l-221 142l-225 -142h-201z" />
<glyph unicode="&#xcb;" horiz-adv-x="1544" d="M199 0v1434h1226v-189h-1015v-414h893v-188h-893v-455h1036v-188h-1247zM475 1595v211h225v-211h-225zM926 1595v211h225v-211h-225z" />
<glyph unicode="&#xcc;" horiz-adv-x="608" d="M-14 1823h266l139 -267h-178zM199 0v1434h211v-1434h-211z" />
<glyph unicode="&#xcd;" horiz-adv-x="608" d="M199 0v1434h211v-1434h-211zM215 1556l139 267h264l-227 -267h-176z" />
<glyph unicode="&#xce;" horiz-adv-x="608" d="M-121 1556l287 267h274l287 -267h-201l-221 142l-225 -142h-201zM199 0v1434h211v-1434h-211z" />
<glyph unicode="&#xcf;" horiz-adv-x="608" d="M-33 1595v211h226v-211h-226zM199 0v1434h211v-1434h-211zM418 1595v211h225v-211h-225z" />
<glyph unicode="&#xd0;" horiz-adv-x="1761" d="M35 625v184h221v625h666q225 0 388 -85t252 -246t89 -386t-89 -386t-252 -246t-388 -85h-666v625h-221zM467 188h434q264 0 400.5 134.5t136.5 394.5q0 262 -136.5 395t-400.5 133h-434v-436h401v-184h-401v-437z" />
<glyph unicode="&#xd1;" horiz-adv-x="1732" d="M199 0v1434h290l834 -1198v1198h211v-1434h-291l-833 1198v-1198h-211zM440 1577v51q0 88 61.5 148.5t157.5 60.5q66 0 109 -14.5t94 -40.5l68 -35q29 -14 57.5 -25.5t50.5 -11.5q37 0 59.5 25.5t22.5 81.5h170v-52q0 -88 -61.5 -148.5t-157.5 -60.5q-63 0 -107 14.5 t-96 41.5l-67 35q-29 16 -57.5 26t-51.5 10q-37 0 -59.5 -25.5t-22.5 -80.5h-170z" />
<glyph unicode="&#xd2;" horiz-adv-x="1796" d="M106 717q0 229 103.5 394t284 254t405.5 89q227 0 405.5 -89t282 -254t103.5 -394t-103.5 -394t-282 -254t-405.5 -89q-225 0 -405.5 89t-284 253.5t-103.5 394.5zM319 717q0 -174 77 -297t206 -187.5t281 -64.5h32q154 0 281 64.5t204 187.5t77 297t-77 297t-204 187.5 t-281 64.5h-32q-152 0 -281 -64.5t-206 -187.5t-77 -297zM580 1823h266l139 -267h-178z" />
<glyph unicode="&#xd3;" horiz-adv-x="1796" d="M106 717q0 229 103.5 394t284 254t405.5 89q227 0 405.5 -89t282 -254t103.5 -394t-103.5 -394t-282 -254t-405.5 -89q-225 0 -405.5 89t-284 253.5t-103.5 394.5zM319 717q0 -174 77 -297t206 -187.5t281 -64.5h32q154 0 281 64.5t204 187.5t77 297t-77 297t-204 187.5 t-281 64.5h-32q-152 0 -281 -64.5t-206 -187.5t-77 -297zM809 1556l139 267h264l-227 -267h-176z" />
<glyph unicode="&#xd4;" horiz-adv-x="1796" d="M106 717q0 229 103.5 394t284 254t405.5 89q227 0 405.5 -89t282 -254t103.5 -394t-103.5 -394t-282 -254t-405.5 -89q-225 0 -405.5 89t-284 253.5t-103.5 394.5zM319 717q0 -174 77 -297t206 -187.5t281 -64.5h32q154 0 281 64.5t204 187.5t77 297t-77 297t-204 187.5 t-281 64.5h-32q-152 0 -281 -64.5t-206 -187.5t-77 -297zM473 1556l287 267h274l287 -267h-201l-221 142l-225 -142h-201z" />
<glyph unicode="&#xd5;" horiz-adv-x="1796" d="M106 717q0 229 103.5 394t284 254t405.5 89q227 0 405.5 -89t282 -254t103.5 -394t-103.5 -394t-282 -254t-405.5 -89q-225 0 -405.5 89t-284 253.5t-103.5 394.5zM319 717q0 -174 77 -297t206 -187.5t281 -64.5h32q154 0 281 64.5t204 187.5t77 297t-77 297t-204 187.5 t-281 64.5h-32q-152 0 -281 -64.5t-206 -187.5t-77 -297zM473 1577v51q0 88 61.5 148.5t157.5 60.5q66 0 109 -14.5t94 -40.5l68 -35q29 -14 57.5 -25.5t50.5 -11.5q37 0 59.5 25.5t22.5 81.5h170v-52q0 -88 -61.5 -148.5t-157.5 -60.5q-63 0 -107.5 14.5t-95.5 41.5l-67 35 q-29 16 -57.5 26t-51.5 10q-37 0 -59.5 -25.5t-22.5 -80.5h-170z" />
<glyph unicode="&#xd6;" horiz-adv-x="1796" d="M106 717q0 229 103.5 394t284 254t405.5 89q227 0 405.5 -89t282 -254t103.5 -394t-103.5 -394t-282 -254t-405.5 -89q-225 0 -405.5 89t-284 253.5t-103.5 394.5zM319 717q0 -174 77 -297t206 -187.5t281 -64.5h32q154 0 281 64.5t204 187.5t77 297t-77 297t-204 187.5 t-281 64.5h-32q-152 0 -281 -64.5t-206 -187.5t-77 -297zM561 1595v211h225v-211h-225zM1012 1595v211h225v-211h-225z" />
<glyph unicode="&#xd7;" horiz-adv-x="1374" d="M195 221l354 307l-352 308l118 135l369 -322l373 324l121 -137l-355 -308l353 -307l-119 -135l-369 322l-373 -324z" />
<glyph unicode="&#xd8;" horiz-adv-x="1814" d="M111 61l176 172q-82 92 -126 214t-44 270q0 229 103.5 394t283.5 254t405 89q279 0 480 -131l186 182l131 -133l-174 -172q80 -92 124 -214t44 -269q0 -229 -103.5 -394t-281.5 -254t-406 -89q-137 0 -260 33.5t-221 97.5l-186 -183zM330 717q0 -100 27.5 -185.5 t76.5 -150.5l811 799q-143 86 -319 86h-33q-152 0 -281 -64.5t-205.5 -187.5t-76.5 -297zM573 254q139 -86 320 -86h33q154 0 280.5 64.5t203.5 187.5t77 297q0 102 -27.5 186t-77.5 150z" />
<glyph unicode="&#xd9;" d="M182 565v869h211v-852q0 -203 103.5 -308.5t300.5 -105.5h32q197 0 300.5 105.5t103.5 308.5v852h211v-869q0 -268 -160 -426.5t-471 -158.5q-317 0 -474 158.5t-157 426.5zM494 1823h266l139 -267h-178z" />
<glyph unicode="&#xda;" d="M182 565v869h211v-852q0 -203 103.5 -308.5t300.5 -105.5h32q197 0 300.5 105.5t103.5 308.5v852h211v-869q0 -268 -160 -426.5t-471 -158.5q-317 0 -474 158.5t-157 426.5zM723 1556l139 267h264l-227 -267h-176z" />
<glyph unicode="&#xdb;" d="M182 565v869h211v-852q0 -203 103.5 -308.5t300.5 -105.5h32q197 0 300.5 105.5t103.5 308.5v852h211v-869q0 -268 -160 -426.5t-471 -158.5q-317 0 -474 158.5t-157 426.5zM387 1556l287 267h274l287 -267h-201l-221 142l-225 -142h-201z" />
<glyph unicode="&#xdc;" d="M182 565v869h211v-852q0 -203 103.5 -308.5t300.5 -105.5h32q197 0 300.5 105.5t103.5 308.5v852h211v-869q0 -268 -160 -426.5t-471 -158.5q-317 0 -474 158.5t-157 426.5zM475 1595v211h225v-211h-225zM926 1595v211h225v-211h-225z" />
<glyph unicode="&#xdd;" horiz-adv-x="1460" d="M20 1434h254l459 -641l455 641h252l-604 -830v-604h-211v604zM643 1556l139 267h265l-228 -267h-176z" />
<glyph unicode="&#xde;" horiz-adv-x="1540" d="M199 0v1434h211v-283h528q145 0 259 -51t178.5 -148.5t64.5 -234.5q0 -139 -64.5 -237.5t-178.5 -148.5t-259 -50h-528v-281h-211zM410 469h497q322 0 322 248q0 246 -322 246h-497v-494z" />
<glyph unicode="&#xdf;" horiz-adv-x="1282" d="M162 -379v1366q0 133 59.5 238.5t172 167t268.5 61.5q160 0 265 -53t157.5 -137t52.5 -181q0 -86 -35 -152.5t-85 -107.5t-97 -57q49 -12 111.5 -54t108.5 -114t46 -178q0 -137 -63.5 -231.5t-172 -141.5t-243.5 -47h-207v178h178q143 0 224 65.5t81 182.5 q0 115 -77 181.5t-214 66.5h-192v168h182q100 0 157.5 32.5t81 84t23.5 104.5q0 100 -72.5 161.5t-199.5 61.5h-21q-80 0 -146.5 -33.5t-107.5 -102.5t-41 -175v-1354h-194z" />
<glyph unicode="&#xe0;" horiz-adv-x="1232" d="M86 283q0 111 54.5 178t146.5 102t205 41l389 25v30q0 111 -74 164.5t-203 53.5h-33q-100 0 -170.5 -39t-81.5 -111h-204q10 92 71.5 164t165 112.5t236.5 40.5q242 0 367.5 -109.5t125.5 -279.5v-430q0 -45 4.5 -108.5t10.5 -116.5h-191q-4 27 -8 62.5t-5 65.5t-1 34 q-35 -70 -141 -126t-258 -56q-197 0 -301.5 86t-104.5 217zM289 293q0 -63 52 -104.5t171 -41.5h29q82 0 159.5 26t129 79t51.5 137v84l-324 -18q-150 -8 -209 -50.5t-59 -111.5zM328 1434h221l135 -277h-154z" />
<glyph unicode="&#xe1;" horiz-adv-x="1232" d="M86 283q0 111 54.5 178t146.5 102t205 41l389 25v30q0 111 -74 164.5t-203 53.5h-33q-100 0 -170.5 -39t-81.5 -111h-204q10 92 71.5 164t165 112.5t236.5 40.5q242 0 367.5 -109.5t125.5 -279.5v-430q0 -45 4.5 -108.5t10.5 -116.5h-191q-4 27 -8 62.5t-5 65.5t-1 34 q-35 -70 -141 -126t-258 -56q-197 0 -301.5 86t-104.5 217zM289 293q0 -63 52 -104.5t171 -41.5h29q82 0 159.5 26t129 79t51.5 137v84l-324 -18q-150 -8 -209 -50.5t-59 -111.5zM530 1157l136 277h221l-203 -277h-154z" />
<glyph unicode="&#xe2;" horiz-adv-x="1232" d="M86 283q0 111 54.5 178t146.5 102t205 41l389 25v30q0 111 -74 164.5t-203 53.5h-33q-100 0 -170.5 -39t-81.5 -111h-204q10 92 71.5 164t165 112.5t236.5 40.5q242 0 367.5 -109.5t125.5 -279.5v-430q0 -45 4.5 -108.5t10.5 -116.5h-191q-4 27 -8 62.5t-5 65.5t-1 34 q-35 -70 -141 -126t-258 -56q-197 0 -301.5 86t-104.5 217zM199 1157l286 277h246l287 -277h-170l-238 154l-241 -154h-170zM289 293q0 -63 52 -104.5t171 -41.5h29q82 0 159.5 26t129 79t51.5 137v84l-324 -18q-150 -8 -209 -50.5t-59 -111.5z" />
<glyph unicode="&#xe3;" horiz-adv-x="1232" d="M86 283q0 111 54.5 178t146.5 102t205 41l389 25v30q0 111 -74 164.5t-203 53.5h-33q-100 0 -170.5 -39t-81.5 -111h-204q10 92 71.5 164t165 112.5t236.5 40.5q242 0 367.5 -109.5t125.5 -279.5v-430q0 -45 4.5 -108.5t10.5 -116.5h-191q-4 27 -8 62.5t-5 65.5t-1 34 q-35 -70 -141 -126t-258 -56q-197 0 -301.5 86t-104.5 217zM193 1178v53q0 90 58 151.5t150 61.5q66 0 109 -15.5t94 -42.5l68 -34q29 -14 57.5 -25.5t50.5 -11.5q37 0 59.5 25.5t22.5 82.5h160v-53q0 -88 -58.5 -150.5t-150.5 -62.5q-63 0 -106 15.5t-97 41.5l-67 35 q-29 16 -57.5 26.5t-51.5 10.5q-37 0 -59.5 -25.5t-22.5 -82.5h-159zM289 293q0 -63 52 -104.5t171 -41.5h29q82 0 159.5 26t129 79t51.5 137v84l-324 -18q-150 -8 -209 -50.5t-59 -111.5z" />
<glyph unicode="&#xe4;" horiz-adv-x="1232" d="M86 283q0 111 54.5 178t146.5 102t205 41l389 25v30q0 111 -74 164.5t-203 53.5h-33q-100 0 -170.5 -39t-81.5 -111h-204q10 92 71.5 164t165 112.5t236.5 40.5q242 0 367.5 -109.5t125.5 -279.5v-430q0 -45 4.5 -108.5t10.5 -116.5h-191q-4 27 -8 62.5t-5 65.5t-1 34 q-35 -70 -141 -126t-258 -56q-197 0 -301.5 86t-104.5 217zM281 1206v219h235v-219h-235zM289 293q0 -63 52 -104.5t171 -41.5h29q82 0 159.5 26t129 79t51.5 137v84l-324 -18q-150 -8 -209 -50.5t-59 -111.5zM700 1206v219h236v-219h-236z" />
<glyph unicode="&#xe5;" horiz-adv-x="1232" d="M86 283q0 111 54.5 178t146.5 102t205 41l389 25v30q0 111 -74 164.5t-203 53.5h-33q-100 0 -170.5 -39t-81.5 -111h-204q10 92 71.5 164t165 112.5t236.5 40.5q242 0 367.5 -109.5t125.5 -279.5v-430q0 -45 4.5 -108.5t10.5 -116.5h-191q-4 27 -8 62.5t-5 65.5t-1 34 q-35 -70 -141 -126t-258 -56q-197 0 -301.5 86t-104.5 217zM289 293q0 -63 52 -104.5t171 -41.5h29q82 0 159.5 26t129 79t51.5 137v84l-324 -18q-150 -8 -209 -50.5t-59 -111.5zM387 1350q0 86 62.5 139t156.5 53t157.5 -53t63.5 -139t-63.5 -139.5t-157.5 -53.5 t-156.5 53.5t-62.5 139.5zM506 1350q0 -33 26.5 -56.5t75.5 -23.5t75 23.5t26 56.5q0 35 -26 57.5t-75 22.5t-75.5 -23t-26.5 -57z" />
<glyph unicode="&#xe6;" horiz-adv-x="2072" d="M86 283q0 109 55.5 177t146.5 103t201 41l390 25v30q0 109 -70 164.5t-199 55.5h-32q-100 0 -175 -42t-86 -110h-204q10 92 74.5 164t169 112.5t237.5 40.5q166 0 270.5 -51t151.5 -141q80 96 197.5 144t242.5 48q162 0 277.5 -61t177 -167.5t61.5 -242.5v-96h-868 q8 -109 58 -183.5t127 -111.5t161 -37h29q100 0 178 41t104 117h203q-33 -154 -170 -238.5t-328 -84.5q-152 0 -275.5 55t-199.5 164q-72 -100 -192.5 -159.5t-315.5 -59.5q-190 0 -293.5 87t-103.5 216zM287 295q0 -66 53 -108t170 -42h29q76 0 153.5 27t132 85t54.5 153 v65l-340 -22q-131 -8 -191.5 -50.5t-60.5 -107.5zM1116 635h645q-10 133 -94 188.5t-197 55.5h-28q-109 0 -202 -58.5t-124 -185.5z" />
<glyph unicode="&#xe7;" horiz-adv-x="1263" d="M96 512q0 150 67.5 270.5t194.5 191t308 70.5q211 0 349 -96t161 -262h-205q-18 90 -97 140.5t-194 50.5h-29q-119 0 -196.5 -51.5t-116.5 -134.5t-39 -179t39 -179t116.5 -134.5t196.5 -51.5h29q115 0 192.5 54.5t98.5 136.5h205q-14 -100 -78 -179t-166.5 -127 t-235.5 -52v-72q90 -6 147.5 -55.5t57.5 -128.5q0 -106 -78 -156.5t-186 -50.5h-148v141h148q66 0 91.5 18.5t25.5 51.5q0 74 -109 73h-65v183q-242 23 -363 167t-121 361z" />
<glyph unicode="&#xe8;" horiz-adv-x="1267" d="M96 520q0 129 47 227.5t127 165t179.5 99t203.5 32.5q162 0 278 -62t177 -172t61 -255v-78h-868q10 -111 60.5 -184.5t126 -109.5t159.5 -36h29q106 0 178 41t98 115h205q-18 -100 -85.5 -173t-173 -111.5t-234.5 -38.5q-160 0 -288 60t-204 181t-76 299zM311 635h645 q-8 133 -92 187.5t-196 54.5h-29q-133 0 -216 -64.5t-112 -177.5zM375 1434h221l135 -277h-153z" />
<glyph unicode="&#xe9;" horiz-adv-x="1267" d="M96 520q0 129 47 227.5t127 165t179.5 99t203.5 32.5q162 0 278 -62t177 -172t61 -255v-78h-868q10 -111 60.5 -184.5t126 -109.5t159.5 -36h29q106 0 178 41t98 115h205q-18 -100 -85.5 -173t-173 -111.5t-234.5 -38.5q-160 0 -288 60t-204 181t-76 299zM311 635h645 q-8 133 -92 187.5t-196 54.5h-29q-133 0 -216 -64.5t-112 -177.5zM578 1157l135 277h221l-203 -277h-153z" />
<glyph unicode="&#xea;" horiz-adv-x="1267" d="M96 520q0 129 47 227.5t127 165t179.5 99t203.5 32.5q162 0 278 -62t177 -172t61 -255v-78h-868q10 -111 60.5 -184.5t126 -109.5t159.5 -36h29q106 0 178 41t98 115h205q-18 -100 -85.5 -173t-173 -111.5t-234.5 -38.5q-160 0 -288 60t-204 181t-76 299zM246 1157 l286 277h246l287 -277h-170l-238 154l-241 -154h-170zM311 635h645q-8 133 -92 187.5t-196 54.5h-29q-133 0 -216 -64.5t-112 -177.5z" />
<glyph unicode="&#xeb;" horiz-adv-x="1267" d="M96 520q0 129 47 227.5t127 165t179.5 99t203.5 32.5q162 0 278 -62t177 -172t61 -255v-78h-868q10 -111 60.5 -184.5t126 -109.5t159.5 -36h29q106 0 178 41t98 115h205q-18 -100 -85.5 -173t-173 -111.5t-234.5 -38.5q-160 0 -288 60t-204 181t-76 299zM311 635h645 q-8 133 -92 187.5t-196 54.5h-29q-133 0 -216 -64.5t-112 -177.5zM328 1206v219h235v-219h-235zM748 1206v219h235v-219h-235z" />
<glyph unicode="&#xec;" horiz-adv-x="524" d="M-18 1434h221l135 -277h-154zM162 0v1024h200v-1024h-200z" />
<glyph unicode="&#xed;" horiz-adv-x="524" d="M162 0v1024h200v-1024h-200zM184 1157l135 277h222l-203 -277h-154z" />
<glyph unicode="&#xee;" horiz-adv-x="524" d="M-147 1157l286 277h246l287 -277h-170l-238 154l-241 -154h-170zM162 0v1024h200v-1024h-200z" />
<glyph unicode="&#xef;" horiz-adv-x="524" d="M-66 1206v219h236v-219h-236zM162 0v1024h200v-1024h-200zM354 1206v219h236v-219h-236z" />
<glyph unicode="&#xf0;" horiz-adv-x="1370" d="M96 479q0 141 68.5 253t194.5 176.5t298 64.5q57 0 127 -13.5t136.5 -44t113.5 -84.5q-20 98 -71.5 175t-126.5 131l-226 -119l-61 123l139 76q-154 53 -342 53h-18v166q322 12 551 -117l260 141l63 -129l-192 -102q121 -104 186.5 -255t65.5 -345q0 -307 -147.5 -478 t-444.5 -171q-178 0 -306 63t-198 177t-70 259zM299 479q0 -111 48 -184.5t130 -111.5t180 -38h21q92 0 176 38t138.5 112t54.5 184q0 111 -54.5 183.5t-138.5 108.5t-176 36h-21q-98 0 -180 -36t-130 -108.5t-48 -183.5z" />
<glyph unicode="&#xf1;" horiz-adv-x="1343" d="M162 0v1024h200v-170q55 82 151.5 136t242.5 54q141 0 238.5 -54t148.5 -149.5t51 -217.5v-623h-201v573q0 135 -62.5 219.5t-195.5 84.5h-28q-88 0 -167 -45.5t-128.5 -126t-49.5 -189.5v-516h-200zM279 1178v53q0 90 58 151.5t150 61.5q66 0 109 -15.5t94 -42.5l68 -34 q29 -14 57.5 -25.5t50.5 -11.5q37 0 59.5 25.5t22.5 82.5h160v-53q0 -88 -58.5 -150.5t-150.5 -62.5q-63 0 -106 15.5t-97 41.5l-67 35q-29 16 -57.5 26.5t-51.5 10.5q-37 0 -59.5 -25.5t-22.5 -82.5h-159z" />
<glyph unicode="&#xf2;" horiz-adv-x="1351" d="M94 512q0 162 74 281.5t205 185t303 65.5t303 -65.5t204.5 -185t73.5 -281.5t-73.5 -281.5t-204.5 -185t-303 -65.5t-303 65.5t-205 185t-74 281.5zM297 512q0 -113 47 -194.5t130.5 -126t187.5 -44.5h28q104 0 186 44.5t130.5 126t48.5 194.5q0 115 -48.5 195.5 t-130 125t-186.5 44.5h-28q-104 0 -187.5 -44.5t-130.5 -125t-47 -195.5zM395 1434h221l136 -277h-154z" />
<glyph unicode="&#xf3;" horiz-adv-x="1351" d="M94 512q0 162 74 281.5t205 185t303 65.5t303 -65.5t204.5 -185t73.5 -281.5t-73.5 -281.5t-204.5 -185t-303 -65.5t-303 65.5t-205 185t-74 281.5zM297 512q0 -113 47 -194.5t130.5 -126t187.5 -44.5h28q104 0 186 44.5t130.5 126t48.5 194.5q0 115 -48.5 195.5 t-130 125t-186.5 44.5h-28q-104 0 -187.5 -44.5t-130.5 -125t-47 -195.5zM598 1157l135 277h221l-202 -277h-154z" />
<glyph unicode="&#xf4;" horiz-adv-x="1351" d="M94 512q0 162 74 281.5t205 185t303 65.5t303 -65.5t204.5 -185t73.5 -281.5t-73.5 -281.5t-204.5 -185t-303 -65.5t-303 65.5t-205 185t-74 281.5zM266 1157l287 277h246l286 -277h-170l-237 154l-242 -154h-170zM297 512q0 -113 47 -194.5t130.5 -126t187.5 -44.5h28 q104 0 186 44.5t130.5 126t48.5 194.5q0 115 -48.5 195.5t-130 125t-186.5 44.5h-28q-104 0 -187.5 -44.5t-130.5 -125t-47 -195.5z" />
<glyph unicode="&#xf5;" horiz-adv-x="1351" d="M94 512q0 162 74 281.5t205 185t303 65.5t303 -65.5t204.5 -185t73.5 -281.5t-73.5 -281.5t-204.5 -185t-303 -65.5t-303 65.5t-205 185t-74 281.5zM260 1178v53q0 90 58.5 151.5t150.5 61.5q66 0 109 -15.5t94 -42.5l67 -34q29 -14 57.5 -25.5t51.5 -11.5 q37 0 59.5 25.5t22.5 82.5h160v-53q0 -88 -58.5 -150.5t-150.5 -62.5q-63 0 -106.5 15.5t-96.5 41.5l-68 35q-29 16 -57.5 26.5t-50.5 10.5q-37 0 -59.5 -25.5t-22.5 -82.5h-160zM297 512q0 -113 47 -194.5t130.5 -126t187.5 -44.5h28q104 0 186 44.5t130.5 126t48.5 194.5 q0 115 -48.5 195.5t-130 125t-186.5 44.5h-28q-104 0 -187.5 -44.5t-130.5 -125t-47 -195.5z" />
<glyph unicode="&#xf6;" horiz-adv-x="1351" d="M94 512q0 162 74 281.5t205 185t303 65.5t303 -65.5t204.5 -185t73.5 -281.5t-73.5 -281.5t-204.5 -185t-303 -65.5t-303 65.5t-205 185t-74 281.5zM297 512q0 -113 47 -194.5t130.5 -126t187.5 -44.5h28q104 0 186 44.5t130.5 126t48.5 194.5q0 115 -48.5 195.5 t-130 125t-186.5 44.5h-28q-104 0 -187.5 -44.5t-130.5 -125t-47 -195.5zM348 1206v219h236v-219h-236zM768 1206v219h236v-219h-236z" />
<glyph unicode="&#xf7;" horiz-adv-x="1368" d="M137 438v178h1094v-178h-1094zM565 59v240h240v-240h-240zM565 756v239h240v-239h-240z" />
<glyph unicode="&#xf8;" horiz-adv-x="1359" d="M100 512q0 162 74 281.5t205 185t303 65.5q190 0 332 -81l131 133l117 -113l-121 -123q59 -68 91 -156t32 -192q0 -162 -74 -281.5t-205 -185t-303 -65.5q-94 0 -177 20t-153 59l-129 -131l-108 121l110 113q-59 68 -92 156t-33 194zM303 512q0 -123 57 -213l525 532 q-86 45 -189 46h-28q-104 0 -187.5 -44.5t-130.5 -125t-47 -195.5zM481 190q81 -43 187 -43h28q104 0 186.5 44.5t130.5 126t48 194.5q0 123 -57 209z" />
<glyph unicode="&#xf9;" horiz-adv-x="1325" d="M150 385v639h200v-592q0 -137 59.5 -211t190.5 -74h29q88 0 163.5 42t123 121t47.5 188v526h200v-1024h-200v186q-47 -86 -142.5 -146t-245.5 -60q-209 0 -317 110.5t-108 294.5zM377 1434h221l135 -277h-153z" />
<glyph unicode="&#xfa;" horiz-adv-x="1325" d="M150 385v639h200v-592q0 -137 59.5 -211t190.5 -74h29q88 0 163.5 42t123 121t47.5 188v526h200v-1024h-200v186q-47 -86 -142.5 -146t-245.5 -60q-209 0 -317 110.5t-108 294.5zM580 1157l135 277h221l-203 -277h-153z" />
<glyph unicode="&#xfb;" horiz-adv-x="1325" d="M150 385v639h200v-592q0 -137 59.5 -211t190.5 -74h29q88 0 163.5 42t123 121t47.5 188v526h200v-1024h-200v186q-47 -86 -142.5 -146t-245.5 -60q-209 0 -317 110.5t-108 294.5zM248 1157l287 277h245l287 -277h-170l-238 154l-241 -154h-170z" />
<glyph unicode="&#xfc;" horiz-adv-x="1325" d="M150 385v639h200v-592q0 -137 59.5 -211t190.5 -74h29q88 0 163.5 42t123 121t47.5 188v526h200v-1024h-200v186q-47 -86 -142.5 -146t-245.5 -60q-209 0 -317 110.5t-108 294.5zM330 1206v219h235v-219h-235zM750 1206v219h235v-219h-235z" />
<glyph unicode="&#xfd;" horiz-adv-x="1263" d="M37 1024h227l391 -758l365 758h227l-497 -973v-215q-1 -215 -218 -215h-426v178h361q47 0 64.5 18.5t17.5 63.5v162zM565 1157l135 277h222l-203 -277h-154z" />
<glyph unicode="&#xfe;" horiz-adv-x="1404" d="M162 -410v1844h200v-560q59 78 170 124t222 46q164 0 288.5 -63t195.5 -183t71 -286q0 -174 -71 -293t-195.5 -179t-284.5 -60q-131 0 -238.5 51t-157.5 125v-566h-200zM362 512q0 -117 48.5 -199t132.5 -125t186 -43h29q154 0 250 95.5t96 271.5t-96.5 271.5 t-249.5 95.5h-29q-102 0 -186 -43t-132.5 -124t-48.5 -200z" />
<glyph unicode="&#xff;" horiz-adv-x="1263" d="M37 1024h227l391 -758l365 758h227l-497 -973v-215q-1 -215 -218 -215h-426v178h361q47 0 64.5 18.5t17.5 63.5v162zM315 1206v219h236v-219h-236zM735 1206v219h236v-219h-236z" />
<glyph unicode="&#x152;" horiz-adv-x="2852" d="M106 717q0 229 103.5 394t284 254t405.5 89q207 0 360.5 -71.5t247.5 -204.5v256h1227v-189h-1016v-414h893v-188h-893v-455h1037v-188h-1248v264q-94 -137 -247.5 -210.5t-360.5 -73.5q-225 0 -405.5 89t-284 253.5t-103.5 394.5zM319 717q0 -174 77 -297t206 -187.5 t281 -64.5h32q154 0 281 64.5t204 187.5t77 297t-77 297t-204 187.5t-281 64.5h-32q-152 0 -281 -64.5t-206 -187.5t-77 -297z" />
<glyph unicode="&#x153;" horiz-adv-x="2226" d="M94 512q0 162 74 281.5t204 185t302 65.5q168 0 289.5 -63t189.5 -178q72 121 194.5 181t262.5 60q162 0 277.5 -61t177 -167.5t61.5 -242.5v-96h-869q8 -109 58.5 -183.5t127.5 -111.5t161 -37h28q100 0 178 41t105 117h203q-33 -154 -170.5 -238.5t-327.5 -84.5 q-160 0 -281.5 60t-187.5 179q-68 -113 -189.5 -176t-287.5 -63q-172 0 -302 65.5t-204 185t-74 281.5zM295 512q0 -113 47 -196t130 -127t187 -44h29q104 0 186 44t130.5 127t48.5 196q0 115 -48.5 197t-130 126t-186.5 44h-29q-104 0 -187 -44t-130 -126t-47 -197z M1270 635h645q-10 133 -94 188.5t-197 55.5h-29q-109 0 -201.5 -58.5t-123.5 -185.5z" />
<glyph unicode="&#x178;" horiz-adv-x="1460" d="M20 1434h254l459 -641l455 641h252l-604 -830v-604h-211v604zM395 1595v211h226v-211h-226zM846 1595v211h225v-211h-225z" />
<glyph unicode="&#x2c6;" horiz-adv-x="909" d="M45 1157l287 277h246l286 -277h-170l-237 154l-242 -154h-170z" />
<glyph unicode="&#x2dc;" horiz-adv-x="927" d="M49 1178v53q0 90 58.5 151.5t150.5 61.5q66 0 109 -15.5t94 -42.5l67 -34q29 -14 57.5 -25.5t51.5 -11.5q37 0 59.5 25.5t22.5 82.5h160v-53q0 -88 -58.5 -150.5t-150.5 -62.5q-63 0 -106.5 15.5t-96.5 41.5l-68 35q-29 16 -57.5 26.5t-50.5 10.5q-37 0 -59.5 -25.5 t-22.5 -82.5h-160z" />
<glyph unicode="&#x2000;" horiz-adv-x="955" />
<glyph unicode="&#x2001;" horiz-adv-x="1911" />
<glyph unicode="&#x2002;" horiz-adv-x="955" />
<glyph unicode="&#x2003;" horiz-adv-x="1911" />
<glyph unicode="&#x2004;" horiz-adv-x="637" />
<glyph unicode="&#x2005;" horiz-adv-x="477" />
<glyph unicode="&#x2006;" horiz-adv-x="318" />
<glyph unicode="&#x2007;" horiz-adv-x="318" />
<glyph unicode="&#x2008;" horiz-adv-x="238" />
<glyph unicode="&#x2009;" horiz-adv-x="382" />
<glyph unicode="&#x200a;" horiz-adv-x="106" />
<glyph unicode="&#x2010;" horiz-adv-x="929" d="M147 528v183h635v-183h-635z" />
<glyph unicode="&#x2011;" horiz-adv-x="929" d="M147 528v183h635v-183h-635z" />
<glyph unicode="&#x2012;" horiz-adv-x="929" d="M147 528v183h635v-183h-635z" />
<glyph unicode="&#x2013;" horiz-adv-x="1380" d="M147 528v183h1086v-183h-1086z" />
<glyph unicode="&#x2014;" horiz-adv-x="2158" d="M147 528v183h1864v-183h-1864z" />
<glyph unicode="&#x2018;" horiz-adv-x="612" d="M145 897v291q0 123 68.5 184.5t183.5 61.5h107v-138h-107q-123 0 -123 -118v-31h148v-250h-277z" />
<glyph unicode="&#x2019;" horiz-adv-x="610" d="M125 901v137h106q123 0 123 119v31h-147v250h276v-291q0 -123 -68.5 -184.5t-183.5 -61.5h-106z" />
<glyph unicode="&#x201a;" horiz-adv-x="587" d="M74 -150h106q123 0 123 119v31h-147v250h276v-291q0 -123 -68.5 -184.5t-183.5 -61.5h-106v137z" />
<glyph unicode="&#x201c;" horiz-adv-x="1079" d="M145 897v291q0 123 70.5 184.5t185.5 61.5h107v-138h-107q-123 0 -122 -118v-31h147v-250h-281zM608 897v291q0 123 70.5 184.5t185.5 61.5h107v-138h-107q-123 0 -123 -118v-31h148v-250h-281z" />
<glyph unicode="&#x201d;" horiz-adv-x="1077" d="M125 901v137h106q123 0 123 119v31h-147v250h280v-291q0 -123 -70.5 -184.5t-185.5 -61.5h-106zM588 901v137h106q123 0 123 119v31h-148v250h281v-291q0 -123 -70.5 -184.5t-185.5 -61.5h-106z" />
<glyph unicode="&#x201e;" horiz-adv-x="1054" d="M74 -150h106q123 0 123 119v31h-147v250h280v-291q0 -123 -70.5 -184.5t-185.5 -61.5h-106v137zM537 -150h106q123 0 123 119v31h-148v250h281v-291q0 -123 -70.5 -184.5t-185.5 -61.5h-106v137z" />
<glyph unicode="&#x2022;" horiz-adv-x="1130" d="M166 717q0 102 53 188t143.5 138.5t202.5 52.5q113 0 203 -52.5t143.5 -138.5t53.5 -188t-53.5 -188.5t-143.5 -138.5t-203 -52t-203 52t-143 138t-53 189z" />
<glyph unicode="&#x2026;" horiz-adv-x="1824" d="M150 0v250h276v-250h-276zM775 0v250h276v-250h-276zM1399 0v250h276v-250h-276z" />
<glyph unicode="&#x202f;" horiz-adv-x="382" />
<glyph unicode="&#x2039;" horiz-adv-x="776" d="M80 584l366 440h242l-358 -440l358 -441h-242z" />
<glyph unicode="&#x203a;" horiz-adv-x="776" d="M88 143l358 441l-358 440h242l366 -440l-366 -441h-242z" />
<glyph unicode="&#x205f;" horiz-adv-x="477" />
<glyph unicode="&#x20ac;" horiz-adv-x="1646" d="M104 307v176l199 39q-8 41 -11 85t-5 89l-183 -34v176l193 36q41 272 210 426t431 154q254 0 410.5 -118.5t179.5 -331.5h-215q-18 133 -110.5 202.5t-256.5 69.5h-20q-158 0 -263.5 -94.5t-146.5 -263.5l467 92v-176l-487 -97v-20q0 -82 12 -156l389 76v-176l-340 -66 q53 -113 147.5 -175t221.5 -62h20q164 0 256 70.5t111 201.5h215q-23 -211 -179.5 -330.5t-410.5 -119.5q-209 0 -359.5 98t-226.5 276z" />
<glyph unicode="&#x2122;" horiz-adv-x="2293" d="M80 1270v164h829v-164h-325v-615h-178v615h-326zM1083 655v779h263l260 -588l249 588h263v-779h-179v572l-251 -572h-164l-262 582v-582h-179z" />
<glyph unicode="&#x25fc;" horiz-adv-x="1024" d="M0 0v1024h1024v-1024h-1024z" />
</font>
</defs>
</svg>
