<svg xmlns="http://www.w3.org/2000/svg" width="246" height="233" fill="none"><g clip-path="url(#a)"><path fill="#E2FFB4" d="M91.541 124.4c.205-.327.41-.65.6-.984.266-.471.521-.949.772-1.432.236-.451.487-.89.716-1.342.231-.459.448-.921.649-1.396.2-.478.406-.953.599-1.431.193-.483.367-.973.541-1.463.174-.486.36-.964.553-1.443.383-.957.738-1.925 1.152-2.87.348-.751.73-1.486 1.078-2.237l.159-.346c.035-.078.073-.156.108-.237 0 0-.004.008-.008.008l.008-.02c0-.008.004-.012.008-.015.255-.545.51-1.086.815-1.607.17-.264.337-.54.534-.786.015-.015.03-.035.05-.054.085-.089-.054-.222-.14-.132-.192.202-.34.455-.494.688-.185.284-.379.568-.556.86-.38.618-.731 1.248-1.106 1.867-.44.696-.89 1.381-1.291 2.096-.263.467-.514.942-.789 1.401-.259.431-.53.855-.792 1.283a48.646 48.646 0 0 0-1.515 2.699c-.445.837-.87 1.681-1.195 2.571-.305.837-.51 1.704-.765 2.556-.147.463-.302.918-.456 1.377 0 .004-.004.011-.008.015 0 .008-.004.012-.008.016-.015.05-.035.097-.046.148v.004a.03.03 0 0 1-.008.019v.008-.008c0-.008.004-.012.008-.019l-.012.027c-.015.043-.027.081-.042.12-.305.872-.642 1.727-1.075 2.544-.332.603-.676 1.198-1.02 1.793a.199.199 0 0 0 .054.269c.03.019.07.031.104.031a.2.2 0 0 0 .163-.086c.324-.498.641-.999.958-1.501.263-.42.518-.844.754-1.284v-.008a85.732 85.732 0 0 1 .356-.676c.004-.008.007-.016.015-.028.174-.338.356-.669.56-.991l.012-.004Zm-.77-.354c0-.004 0-.012.005-.016 0 .008-.004.012-.008.02l.004-.004ZM112.983 104.754c.023-.008.046-.012.069-.016.816-.276 1.616-.595 2.436-.856 3.374-1.027 6.478-2.8 9.795-3.913.297-.108.579-.213.858-.319a.612.612 0 0 1 .378-.159c-.019-.016-.034-.031-.054-.043-1.016-.622-2.006-1.334-3.146-1.7-1.442-.45-2.957-.653-4.387-1.14-.433-.14-.831-.299-1.214-.528a.473.473 0 0 1-.108-.058c-3.321-.821-6.668-1.763-10.058-2.039-3.796-.37-7.754-.124-11.527.082-3.13.222-6.27.3-9.4.537-2.71.257-5.412.342-8.04.463-5.041.45-10.155.638-15.15 1.423-1.952.4-3.907.798-5.855 1.23-1.253.466-2.451.956-3.72 1.403-2.516 1.02-4.935 2.513-6.748 4.563a36.344 36.344 0 0 0-2.122 3.162c1.844.451 3.455 1.431 4.55 3.458.73-.638 1.689-1.19 2.09-1.342 2.25-1.007 5.258-1.365 7.283.237 1.055-3.111 4.233-4.819 7.066-6.106 5.408-2.599 11.001-4.94 16.915-6.06 3.8-.813 7.739-1.23 11.616-1.225 5.728.03 11.782 1.548 14.344 7.047.986.086 1.995-.112 2.969.105.615.117.792.771.955 1.292.077.167.147.33.209.498l-.004.004Z"/><path fill="#E2FFB4" d="M111.692 105.197a1.907 1.907 0 0 1-.29-.249c-.592-.331-1.187-.14-1.771.086.379 1.454.499 3.014.549 4.496.847-.051 1.558-.089 2.389-.167-.24-.988-.498-2.011-.587-3.007 0-.408-.14-.789-.29-1.163v.004ZM101.363 114.738c.101-.191.201-.377.309-.564.055-.097.113-.191.167-.288l.015-.027a.083.083 0 0 0 .035-.039.179.179 0 0 0 .015-.039c0-.008.008-.012.008-.015.012-.02.019-.039.031-.059a.334.334 0 0 0 .031-.066c.012-.031 0-.07-.027-.093-.027-.024-.046-.031-.074-.031-.092 0-.189.12-.243.179-.131.14-.244.287-.352.443-.232.323-.44.661-.645 1-.429.7-.824 1.419-1.233 2.131-.418.72-.808 1.455-1.16 2.209-.352.747-.634 1.521-.95 2.283-.167.401-.341.798-.523 1.191-.185.396-.379.789-.568 1.182a.29.29 0 0 0 .132.381.294.294 0 0 0 .12.027.27.27 0 0 0 .239-.128c.186-.323.367-.646.541-.972.159-.296.31-.595.456-.899.275-.564.526-1.139.789-1.707.174-.381.36-.755.54-1.132.19-.397.376-.794.561-1.19.34-.743.669-1.486 1.021-2.221v.008l.112-.23c0-.008.004-.012.008-.016 0-.003.004-.007.007-.015.008-.016.016-.027.02-.039a58.795 58.795 0 0 1 .626-1.249l-.008-.015ZM78.267 126.839a.32.32 0 0 0 .41-.121c.228-.377.41-.778.607-1.175.2-.381.44-.75.684-1.112.15-.218.302-.436.456-.654.375-.532.8-1.015 1.21-1.52.24-.296.468-.603.65-.942.173-.319.309-.661.432-1.007.441-1.256.735-2.559 1.14-3.827v-.028c.252-.735.526-1.458.785-2.189.26-.724.526-1.44.812-2.155 0-.004 0-.008.008-.016 0-.008.008-.019.011-.027.256-.642.515-1.28.781-1.918.248-.599.499-1.19.727-1.797.313-.805.684-1.59 1.063-2.368.127-.234.255-.467.386-.696.082-.148.163-.292.22-.452.043-.116-.142-.175-.185-.058-.007.019-.015.035-.019.054a1.54 1.54 0 0 1-.1.214v.008a50.688 50.688 0 0 1-1.087 1.875 36.913 36.913 0 0 0-1.082 1.91c-.143.264-.282.529-.421.797-.6 1.151-1.148 2.334-1.724 3.497a72.824 72.824 0 0 1-.878 1.715c-.301.568-.599 1.136-.947 1.673v.011l-.081.117s-.004.008-.008.012v.003c-.525.759-1.078 1.502-1.457 2.35-.39.875-.688 1.785-.974 2.699-.236.755-.449 1.521-.696 2.272 0 .004 0 .007-.004.011-.089.269-.205.529-.286.802-.066.217-.127.431-.2.645-.117.323-.244.642-.372.957a.329.329 0 0 0 .159.432l-.02.008Zm3.885-10.242-.027.039c0 .004-.008.012-.012.016.012-.02.024-.035.039-.055Zm-.05.07v-.004c-.008.016-.02.028-.027.039.007-.011.015-.027.027-.039v.004ZM82.372 130.432a.167.167 0 0 0 .159-.101c.15-.299.29-.599.437-.902.158-.319.332-.626.525-.926.097-.148.19-.292.282-.439.41-.642.777-1.307 1.145-1.976 0-.004.004-.008.007-.012 0-.008.008-.015.012-.019.313-.506.657-.988.97-1.494.321-.51.584-1.05.862-1.583.321-.615.704-1.202 1.06-1.797.71-1.198 1.472-2.369 2.148-3.59.325-.583.607-1.19.859-1.809a52.618 52.618 0 0 0 .893-2.314c.25-.716.545-1.42.784-2.139.236-.708.483-1.404.773-2.093.213-.486.422-.972.627-1.458 0-.004 0-.008.003-.012v.008c.313-.716.685-1.404 1.056-2.093.39-.727.78-1.455 1.202-2.162.104-.176.212-.343.328-.506.043-.055.085-.105.132-.16.011-.007.02-.019.035-.027h.007s.008-.008.016-.008c.123-.019.085-.21-.039-.19-.124.019-.209.148-.286.237-.14.167-.263.346-.383.521-.259.374-.506.763-.757 1.144a43.37 43.37 0 0 1-1.589 2.318c-.808 1.073-1.565 2.178-2.338 3.275-.41.583-.816 1.167-1.18 1.785a64.28 64.28 0 0 0-1.097 1.961c0-.008.007-.016.011-.024-.259.486-.506.977-.765 1.463a22.693 22.693 0 0 0-.8 1.672l.062-.151c-.155.365-.31.727-.449 1.096-.112.308-.208.615-.309.926-.197.611-.429 1.206-.642 1.809-.224.634-.42 1.279-.626 1.921-.174.541-.328 1.085-.53 1.614v.02h-.003c-.194.47-.433.914-.654 1.373-.25.529-.51 1.05-.76 1.583-.225.474-.472.937-.697 1.408-.243.517-.46 1.046-.692 1.567-.07.152.07.284.205.284h-.004ZM78.124 114.302c-.147.366-.29.732-.437 1.097-.174.428-.351.852-.521 1.276-.043.101-.008.222.092.272.027.016.055.02.085.02a.208.208 0 0 0 .186-.117c.216-.432.429-.867.653-1.299.143-.257.294-.51.449-.759.158-.256.309-.513.463-.774.167-.276.333-.552.491-.832.155-.276.294-.564.426-.852.162-.358.328-.712.475-1.077.15-.374.294-.755.448-1.128.155-.377.321-.747.491-1.12.078-.168.163-.343.21-.518.018-.074.038-.147.022-.225a.724.724 0 0 0-.015-.09.791.791 0 0 1-.016-.093c-.023-.124-.212-.093-.19.027l.024.148s0 .012-.004.019l-.008.02c-.026.054-.061.105-.092.155-.217.327-.43.658-.634.992-.197.319-.387.646-.596.961a1.84 1.84 0 0 1-.042.066c-.008.008-.012.02-.02.027v.016c0 .008-.007.012-.01.019l-.407.596s0 .003-.008.007a1.064 1.064 0 0 1-.023.035s.004-.007.008-.007a9.908 9.908 0 0 0-.545.925c-.367.716-.65 1.474-.947 2.217l-.008-.004Z"/><path fill="#A4D357" d="M57.761 67.437c.68.467 1.48.724 2.157 1.198.224.125.51.26.727.436 1.755.058 3.506.206 5.257.33 3.525.055 7.05.191 10.576.32 5.663.132 11.325.245 16.973.73 2.033.187 4.07.355 6.096.6 2.535.416 4.998.945 7.545 1.194 3.506.65 7.047 1.104 10.545 1.804 2.323.397 4.576 1.117 6.896 1.525 2.184.385 4.387.591 6.582.88 2.177.306 4.334.711 6.502 1.092 2.265.374 4.534.545 6.711.93 4.027.79 8.016 1.777 11.982 2.82 2.204.583 4.403 1.264 6.653 1.61 3.088.502 6.142 1.143 9.227 1.602 2.508.662 4.851 1.311 7.278 2.14 1.473.362 2.961.65 4.445.96 2.559.203 5.323-.672 6.985-2.637.008-.007.02-.007.027-.015-.317-2.377-.738-4.75-1.399-7.052-.595-1.906-1.438-3.715-2.06-5.609-1.45-4.228-2.381-8.6-3.29-12.968-.394-1.894-.827-3.78-1.194-5.682-.793-4.936-1.098-9.934-1.635-14.901-.186-1.28-.48-2.536-.754-3.8-.387-1.72-.533-3.489-.924-5.208-.634-2.136-.862-4.395-1.844-6.399-.695-1.21-1.376-2.458-2.311-3.5-2.725-2.633-6.498-3.59-9.919-4.96-1.739-.73-3.401-1.637-5.164-2.298-2.37-.934-4.84-1.529-7.294-2.178-2.872-.953-5.852-1.494-8.794-2.167-1.415-.365-2.818-.805-4.244-1.132-3.216-.66-6.456-1.194-9.675-1.835-1.624-.32-3.236-.728-4.886-.891-1.434-.16-2.88-.132-4.314-.23-1.434-.097-2.83-.466-4.225-.79-2.679-.598-5.416-.824-8.133-1.166-4.476-.86-9.03-1.007-13.568-.689-2.903.214-5.829.16-8.712.607-1.84.33-3.657.829-5.427 1.432-2.211.949-4.643 1.692-6.123 3.73-2.377 2.73-2.416 6.573-2.497 9.996-.213 3.57-.6 7.25-2.091 10.537a57.84 57.84 0 0 1-1.88 3.885c-1.043 1.922-2.477 3.649-3.61 5.5-1.31 2.132-2.748 4.178-4.263 6.169-2.752 3.765-4.774 7.974-6.413 12.326-.038.101-.07.202-.104.303a.62.62 0 0 1-.143.432c-.495 3.944.394 8.545 3.738 11.008l-.012.011ZM178.343 48.69c-.951-.358-.491-1.708.453-1.307.95.357.487 1.711-.453 1.307Zm-.742-16.757c1.179 3.87 1.164 7.935 1.434 11.934.031.886-1.275.972-1.353.077-.32-4.251-.177-8.673-1.778-12.695-1.434-.77.878-2.863 1.697.684Zm-13.884 47.6a.685.685 0 0 1 .854-.431c1.357.436 2.713.856 4.086 1.245 3.393 1.054 6.81 1.894 10.363 1.781.85-.113 1.09 1.147.243 1.338a5.296 5.296 0 0 1-.896.043c-3.707-.027-7.325-.972-10.835-2.081-1.141-.3-2.258-.68-3.386-1.03-.352-.11-.545-.518-.429-.86v-.004Zm-2.787-1.715c.367 0 .657.37.634.72-.024.389-.348.638-.716.638-.367 0-.657-.37-.634-.72.024-.389.348-.638.716-.638Zm-79.818-41.94a.69.69 0 0 1-.68-.677c0-.37.305-.685.672-.685a.69.69 0 0 1 .68.677c0 .37-.305.684-.672.684Zm12.126-10.91c-.437.552-.924 1.05-1.438 1.528-1.515 1.443-3.24 2.645-4.832 3.994-.722.607-1.322 1.175-2.021 1.786a.677.677 0 0 1-.955-.008c-.247-.253-.27-.72.008-.965.483-.42.95-.855 1.43-1.28 2.052-1.843 4.418-3.364 6.312-5.375.333-.42.793-1.085 1.38-.638.29.23.344.665.116.957Zm-18.662 9.284c.313-.25.549-.58.812-.88 3.096-3.473 6.926-6.242 10.68-8.907 2.485-1.851 4.716-4.196 6.2-6.939.827-2.026 1.446-4.484.692-6.608-1.357-3.446-3.587-2.937-6.135-1.066-.649.327-1.434 1.56-2.172.813-.228-.28-.201-.735.097-.957.873-.66 1.747-1.334 2.636-1.816 1.983-1.319 4.63-1.202 5.987.93 1.35 1.836 1.5 4.17 1.025 6.34-.337 2.166-1.38 4.165-2.803 5.807-2.064 2.753-4.85 4.76-7.665 6.67a93.52 93.52 0 0 0-6.042 5.037c-.707.661-1.322 1.404-1.952 2.136-.351.389-.784.84-1.345.793-.367-.027-.641-.381-.607-.743a.68.68 0 0 1 .588-.607l.004-.003Z"/><path fill="#E2FFB4" d="M150.771 106.313c.387-.299.793-.583 1.171-.894.661-1.272.252-2.793-.467-3.968a.895.895 0 0 1-.263-.257 4.945 4.945 0 0 1-.719-.381 5.41 5.41 0 0 0-2.138-.883h-.007a21.782 21.782 0 0 0-1.674 0 6.099 6.099 0 0 0-1.098.907c-.959 1.058-1.879 2.154-2.675 3.341-.444.505-1.519 2.652-2.474 3.31.155.591.313 1.182.464 1.777 1.477-.175 2.984-.179 4.426-.575 1.964-.483 3.889-1.051 5.454-2.381v.004Zm-3.015-3.796c.932.136.63 1.82-.27 1.672-.928-.136-.638-1.816.27-1.672Z"/><path fill="#A4D357" d="M140.555 105.287c.823-1.261 1.658-2.548 2.597-3.738-.201-.374-.239-.887-.881-.821-.425.086-.7.117-1.063.218-.491.19-.939.474-1.399.723-.163.152-.321.362-.499.533.151 1.264.418 2.513.727 3.75.182-.218.352-.444.518-.665ZM155.22 113.556c2.571-.903 5.114-2.307 7.48-3.668.317-.249.665-.471.951-.759.978-1.641.951-4.103-.885-5.052-.75-.529-1.72-.766-2.594-.821-.789-.097-1.616-.187-2.4-.039a4.107 4.107 0 0 0-.391.187c-.27.276-.73.471-1.09.657h-.008c-.34.23-.668.475-.993.724-1.16.653-7.194 6.771-9.756 7.654.514.23 1.043.424 1.553.673 2.54 1.097 5.486 1.229 8.133.444Zm-.278-3.727c1.048-.579 2.277-.832 3.204-1.618.712-.521 1.504.561.801 1.097-.82.712-1.871 1.015-2.838 1.467-.452.245-1.109.583-1.441-.024-.17-.315-.058-.762.274-.922Zm-1.821 1.125c.654.672-.603 1.898-1.248 1.217-.653-.673.603-1.902 1.248-1.217Z"/><path fill="#E2FFB4" d="M46.057 101.677c.042-.047.092-.093.135-.14-.035.027-.074.047-.112.074-.012.023-.016.043-.027.066h.004ZM56.393 74.139c1.426.517 2.965.75 4.472.813.05 0 .097.008.143.015.36.008.723.008 1.082.016 6.858.078 13.765.354 20.584.89 4.167.296 8.345.378 12.508.755 3.058.4 6.116.805 9.169 1.23 11.929 2.1 23.947 3.651 35.895 5.631 4.48.906 8.875 2.182 13.351 3.127 7.58 1.517 15.261 2.494 22.833 4.046 1.956.404 3.885.917 5.802 1.466a.933.933 0 0 1 .224.039c1.697.233 3.483.222 5.122-.288.522-.264 1.005-.638 1.48-.96.128-.102.24-.215.356-.331-1.867-.79-3.835-1.237-5.81-1.65-.564-.027-1.229-.081-1.635-.338-1.612-.338-3.216-.712-4.762-1.287-1.929-.479-3.777-1.16-5.694-1.556-2.335-.311-4.638-.797-6.954-1.214-1.944-.31-3.842-.638-5.732-1.159-4.983-1.365-9.996-2.652-15.068-3.629-3.328-.455-6.78-.875-10.061-1.528-3.441-.611-6.943-.813-10.375-1.494-6.324-1.595-12.775-2.606-19.223-3.497-4.047-.82-8.11-1.28-12.23-1.528-5.996-.537-12.018-.479-18.025-.708-3.803-.237-7.607-.113-11.399-.494-3.011-.198-6.018-.109-9.022.136-.363.035-.734.031-1.102.05 1.025 1.502 2.331 2.824 4.075 3.443l-.004.004Zm40.49-.203c4.716.487 9.393.743 13.951 1.965.881.074.811 1.388-.082 1.361-4.572-1.178-9.269-1.517-13.95-1.964-.881-.078-.808-1.397.081-1.362Zm-3.75-.66c.368 0 .658.369.635.719-.023.389-.348.638-.715.638-.368 0-.657-.37-.634-.72.023-.389.347-.638.715-.638ZM170.44 106.508v.009s-.004 0-.009-.004l.009-.005Z"/><path fill="#A4D357" d="M64.251 85.68c4.708.077 9.552-.203 14.225.201 5.964.393 11.948.168 17.92.316 9.242.237 18.481.645 27.711 1.159 9.548.898 19.134 1.497 28.651 2.687 5.957.755 11.836 1.992 17.773 2.86 4.956.738 9.857 1.78 14.813 2.492 2.153.362 4.325.603 6.47.992-.719-.21-1.438-.42-2.153-.634a.682.682 0 0 1-.208-.062c-2.559-.762-5.118-1.536-7.689-2.268-7.162-2.116-14.592-2.956-21.921-4.282-6.49-.95-12.802-2.75-19.191-4.177-7.894-1.373-15.837-2.424-23.746-3.703-3.85-.642-7.735-1.07-11.561-1.836-2.857-.525-5.756-.778-8.62-1.23-4.322-.563-8.69-.602-13.034-.882-5.806-.42-11.508-.798-17.31-.868-1.855-.07-3.71-.105-5.566-.12-.074.004-.15.008-.232.004-.023 0-.043-.004-.066-.008-2.837-.02-5.678 0-8.515.008-1.72-.097-3.572-.381-5.25-.257-7.131.587-14.228 1.77-21.26 3.034-3.173.75-6.405 1.517-9.532 2.392-3.216 1.042-6.285 2.544-9.172 4.251-1.434.875-2.872 1.805-4.129 2.933.94-.16 1.906-.23 2.834-.338 1.538-.152 3.25-.195 4.739.042 2.423.218 4.863.191 7.286-.027 4.271-.093 8.458-1.027 12.698-1.501 5.516-.366 11.044-.576 16.525-1.144 5.837-.144 11.673-.081 17.51-.039v.004Zm-10.537-4.342a25.185 25.185 0 0 1 2.234-.007c2.787.1 5.566.396 8.354.412 2.029.031 3.98.148 5.98.035.359-.09.726.171.8.525.108 1.14-1.43.883-2.161.88-3.398-.028-6.7-.083-10.074-.328-1.395-.077-2.794-.194-4.1-.186-.596-.012-1.566.256-1.663-.6-.027-.361.259-.711.626-.727l.004-.004Zm-5.763-.143a.681.681 0 0 1 .943.167c.541.778-.963 1.847-1.504 1.058-.36-.521.128-.98.56-1.23v.005ZM164.513 177.111c-2.567-1.851-5.416-3.582-8.628-3.843-2.188-.288-4.209.681-6.1 1.645-.483.199-1.016.242-1.48.479-.158.097-.317.21-.475.319.363.128.719.268 1.074.408 2.03.743 3.951 1.743 5.682 3.046 1.894 1.279 3.607 2.839 5.683 3.827 2.079 1.081 4.808 1.855 7.263 1.614.038-.031.073-.066.12-.089.231-.311.448-.658.603-1.023-.213-2.583-1.933-4.683-3.742-6.379v-.004Zm1.032 3.773a.69.69 0 0 1-.7.657c-.367 0-.665-.346-.653-.704a.689.689 0 0 1 .7-.657c.367 0 .664.346.653.704Z"/><path fill="#E2FFB4" d="M112.855 189.149c.41-.241.804-.517 1.187-.797a.668.668 0 0 1 .224-.086c.425-.307.85-.614 1.272-.922 1.43-1.221 2.713-2.606 4.051-3.928 2.01-1.918 3.761-3.932 5.145-6.336 2.3-3.606 4.201-7.507 5.469-11.603.51-2.038 1.071-4.111 1.651-6.122.243-1.276.583-2.532 1.105-3.718a13.547 13.547 0 0 0-2.435-.199c-.081.195-.162.389-.247.58-.356.805-.712 1.614-1.152 2.377a.68.68 0 0 1-.924.245c-.607-.37-.217-1.023.054-1.482.545-1.136 1.079-2.284 1.511-3.466.484-1.626.913-3.298 1.09-4.986.174-3.454-.359-7.021-1.843-10.156-.77-.303-.414-1.466.398-1.311.641.136 1.19 1.241 1.627 2.602.333-.066.68-.097.928-.175.889-.167 1.728-.463 2.551-.809-.046-.937.53-2.458.479-3.076.17-2.556-.255-5.1-.375-7.639-.239-1.813-.247-3.641-.518-5.454-.239-1.345-.436-2.703-.645-4.056-.506-3.89-1.987-7.566-2.563-11.443a.676.676 0 0 1-.12-.179c-.827-1.136-1.036-2.529-1.561-3.797a11.74 11.74 0 0 0-1.67.627c-3.147 1.209-6.359 2.645-9.443 3.936-1.141.428-2.32.797-3.448 1.221-.217.047-.464.16-.712.253.163.72.008 1.346-.927 1.443a43.14 43.14 0 0 1-2.787.206c.239 5.558-.793 11.066-2.289 16.399-1.461 4.846-4.267 9.373-8.337 12.411-2.072 1.809-4.732 2.824-7.438 2.944-9.439-.256-19.458-9.047-25.38-15.919-2.18-2.614-6.563-7.173-7.143-10.432-.499-1.758-1.036-3.621-.99-5.473a1.156 1.156 0 0 1-.143-.089c-.379-.518-.958-.809-1.538-1.054-2.32-.603-4.998.202-6.73 1.839-.046.059-.104.117-.158.175.282 1.062.355 2.319.247 3.559a11.1 11.1 0 0 1 .603-.731c.657-.583 1.565.397.912 1.004-.835 1.023-1.538 2.158-2.38 3.177-.163.35-.349.673-.554.953a.657.657 0 0 1-.421.179c-1.801 2.085-3.715 4.049-5.524 6.126-2.083 2.167-4.093 4.466-5.392 7.192.688-.152 1.33.401 1.364 1.089.213 1.338-2.55 3.069-3.42 1.844v-.008l-.182.128c-.905.599-1.968.868-2.926 1.354-1.5 1.241-2.262 3.154-3.526 4.613-1.028 1.322-2.4 2.33-3.525 3.539.147-.027.298-.05.449-.062 3.908-.75 7.862-.338 11.77.234 5.918.645 11.608 2.407 17.394 3.714 6.939 1.377 13.993 2.062 20.94 3.384 2.582.447 5.21.56 7.811.887 3.549.482 7.105.922 10.665 1.334 2.907.296 5.81.665 8.67 1.268 3.885.817 7.642 2.762 7.607 7.289.186 2.275-.402 4.524-1.248 6.616-.387 1.307-1.249 2.384-2.288 3.232-1.38 1.124-3.073 1.786-4.778 2.221-3.154 1.14-6.502 1.377-9.83 1.323-4.557-.062-9.095-.611-13.59-1.342-6.104-1.319-12.038-3.345-18.083-4.889a56.582 56.582 0 0 0-5.678-1.268c-3.394-.755-6.83-1.424-10.317-1.404-1.056-.024-2.123-.098-3.193-.172-.166.098-.387.148-.673.098-1.967.05-3.931.315-5.844.785-1.083.245-2.18.689-2.826 1.642-.796 1.046-.8 2.512-.32 3.699.25.408.409.844.571 1.291v.016c3.49 3.543 5.184 8.553 8.651 12.162 3.947 4.493 9.412 4.189 14.82 3.641 4.643-.012 9.27-.762 13.9-.903 1.485-.07 2.969-.26 4.461-.237 1.426.02 2.833.284 4.248.424 4.179.56 8.233 1.68 12.28 2.801.368.066.735.12 1.106.155 3.22.362 6.537-.229 9.675-.859 3.815-.829 7.77-1.595 11.148-3.633v-.016Zm18.531-63.543c-.015.381-.332.653-.703.653-.372 0-.665-.346-.65-.708.016-.381.333-.653.704-.653.371 0 .665.346.649.708Zm-2.613-14.983c1.109-.292 1.017 1.229 1.075 1.945.031.552.096 1.093.185 1.637.306 1.599.599 3.201.87 4.808.127.778.201 1.567.263 2.353a.688.688 0 0 1-.607.743c-.356.035-.711-.241-.738-.611-.201-3.31-1.249-6.453-1.384-9.755-.139-.416-.151-.945.336-1.124v.004Zm-2.083 30.066c1.395-.844 1.523 1.708 1.642 2.571.089.969.186 1.941.159 2.914a.684.684 0 0 1-.704.653c-.649-.039-.684-.688-.645-1.198a26.79 26.79 0 0 0-.259-3.049c-.062-.315-.108-.638-.232-.934-.232-.284-.24-.696.039-.957Zm.448 8.11c.367 0 .665.346.649.708-.015.381-.332.653-.703.653-.371 0-.665-.346-.65-.708.016-.381.333-.653.704-.653Zm-78.294-10.381c-.685-.086-1.249-.665-1.396-1.33-.286-1.125 1.593-3.517 2.667-2.311 3.035-.117.646 3.995-1.271 3.641Zm16.42-4.998c-.043.925.1 1.863-.182 2.765-.533 2.672-3.065 4.104-5.454 4.835-.63.187-1.198.692-1.863.681-1.001-.172-.87-1.724.209-1.432 1.913-.937 4.298-1.303 5.42-3.341.714-1.283.405-2.699.575-4.076a.684.684 0 0 1 .765-.576c.569.082.638.681.53 1.148v-.004Zm22.5 12.353a.687.687 0 0 1-.691-.665c-.008-.366.294-.696.66-.696.368 0 .685.291.693.665.007.365-.294.696-.661.696Zm19.336-8.701c-.29.949-1.044 1.665-1.659 2.411-.692.775-1.407 1.568-2.161 2.264-3.084 2.801-7.792 4.749-11.963 4.679-.41-.042-.777-.14-1.171-.194-.874-.128-.739-1.435.147-1.354.197.031.347.059.545.094 1.94.373 4.062-.304 5.852-.918 3.34-1.043 6.053-3.345 8.226-6.045.309-.392.661-.77.858-1.233a.685.685 0 0 1 .823-.525c.352.086.595.463.499.821h.004ZM45.26 170.88c-.436-.793.893-1.552 1.326-.743.433.79-.893 1.552-1.326.743Zm13.058 3.116c-1.77-.409-3.386-1.373-5.145-1.778-1.64-.405-3.313-.665-4.967-1.003a.688.688 0 0 1-.553-.786c.062-.362.418-.626.78-.556.84.155 1.667.342 2.51.482 1.445.268 2.736.533 4.081.988 1.4.599 2.815 1.171 4.303 1.509.37-.074.757.121.846.506.147 1.104-1.198.902-1.855.634v.004Zm36.203 17.281c-.367 0-.692-.253-.715-.638-.019-.354.267-.72.634-.72.368 0 .692.253.715.638.02.354-.266.72-.634.72Zm3.61-.728c-.111-.602.48-.828.963-.89 1.26-.304 2.463-.798 3.711-1.152a57.015 57.015 0 0 0 4.994-1.874 2.13 2.13 0 0 0 .433-.343c.267-.256.727-.19.955.082.688 1.159-1.33 1.704-2.103 2.023-1.31.501-2.609 1.038-3.954 1.435-1.407.404-2.768.968-4.21 1.26-.355.074-.723-.183-.788-.544v.003Z"/><path fill="#E2FFB4" d="M85.187 193.377c-.023-.008-.047-.012-.07-.019.011.015.023.035.035.055l.035-.036Z"/><path fill="#A4D357" d="M94.974 196.995c-.054-.354-.14-.716-.348-1.008-.07-.07-.136-.14-.197-.218-1.396-.136-2.718-.587-4.051-1.015-.692-.132-1.38-.28-2.072-.424-.414-.167-1.129-.152-1.635-.323-.862.479-1.322 1.07-1.531 1.735.008.21-.023.412-.116.564-.162 1.42.53 3.084.738 4.609.124 1.393-.463 2.696-.355 4.069.143.801.394 1.781 1.013 2.322.343 0 .691-.179.954-.276 1.044-.378 2.13-.856 3.259-.743 1.38.221 3.034.521 4.376.058 1.623-1.599.29-4.905-.02-6.865-.127-.825.09-1.653-.015-2.485ZM83.78 195.578c-.194-1.497-1.933-2.092-3.155-1.166-.471.416-.719 1.147-.974 1.688a3.97 3.97 0 0 0-.27 1.077c.085.7.212 1.416.262 2.139-.054 2.392-1.132 4.96.186 7.18-.02-.023-.035-.046-.054-.07a.81.81 0 0 0 .1.129c.263.113.56.074.862.035.155-.02.31-.043.46-.043.108 0 .217.012.321.039.711.117 1.388.517 2.122.311.255-.07.41-.315.623-.463a.711.711 0 0 1 .088-.062l-.058-.152c-.606-1.61.04-3.271.128-4.904-.108-1.945-1.23-3.785-.646-5.741l.004.003ZM104.255 199.542c-2.416-1.381-5.323-1.618-7.724-3.03-.046.358-.123.731-.054 1.015.17 1.082.804 2.019 1.396 2.91 1.956 2.392 4.236 4.508 5.856 7.164 1.449 2.019 2.168 3.843 1.72 6.36.023.432-.298.867-.754.817-.568-.055-.684-.619-.583-1.097.15-2.509-1.67-6.589-4.349-7.06-.379-.054-.816.016-1.256.086-.433.07-.87.14-1.253.089-.035.84-.193 1.68-.216 2.521.07 4.547 3.946 7.627 5.311 11.731.692 2.641.491 5.519-.348 8.098-.541 1.703 1.272-.673 1.577-.946 1.368-1.637 2.953-3.076 4.295-4.741 1.298-1.447 2.767-3.115 2.504-5.212-.498-2.446-1.225-4.905-1.175-7.425.039-.906.225-1.809.136-2.719-.321-1.591-1.203-3.022-1.921-4.457-.874-1.486-1.659-3.155-3.159-4.104h-.003ZM139.341 108.655c-.394-1.731-.924-3.435-1.229-5.181a.526.526 0 0 1-.089-.175c-.398-.961-1.5-1.397-2.223-.494-.1.101-.181.218-.255.338.074.393.17.782.271 1.167.27 1.081 2.783 7.044.641 6.912-.274-.055-.425-.214-.49-.42a.76.76 0 0 1-.151-.218c-.209-.657-.101-1.385-.294-2.05-.56-1.68-1.581-3.22-1.84-4.982-.058-1.074-.328-2.746-1.747-2.462-.294.19-.564.591-.885.758.344 2.388 1.248 4.671 1.534 7.079.627 2.801 1.562 5.527 2.045 8.359.394 2.89 1.036 5.748 1.129 8.673.178 2.389.518 4.785.603 7.181a.736.736 0 0 1 .1.221c.128.626.19 1.26.426 1.848.355.988 1.047 1.486 1.523.241.289-1.062.077-2.209.069-3.295-.027-1.571-.332-3.1-.147-4.64a8.491 8.491 0 0 0-.062-.708c-.092-.836 1.063-1.05 1.307-.323.294.471.135 1.035.116 1.576 0 .097 0 .19.008.284v.007c0 .028.007.055.011.086.081.362.097.809.116 1.268.139.564.236 1.136.29 1.711.131.277.329.502.622.646 1.079.031 1.562-1.447 1.597-2.357.073-.443-.004-1.155.228-1.56a67.9 67.9 0 0 0-.847-8.199c-.866-3.749-1.407-7.561-2.373-11.287l-.004-.004Z"/><path fill="#E2FFB4" d="M157.768 166.889c.823-.548 1.646-1.097 2.477-1.637.105-.191.333-.327.654-.424.351-.226.703-.447 1.059-.665 2.389-1.385 4.468-3.174 6.544-4.979 2.192-1.75 4.244-3.656 6.216-5.655.661-.619 1.352-1.229 1.998-1.875.216-.533.599-1.097.688-1.505 1.067-2.214.634-4.594.139-6.889-.931-4.165-3.645-7.549-6.672-10.412-1.086-.887-2.16-1.789-3.254-2.676-.317-.288-.878-.65-1.106-1.074a37.607 37.607 0 0 0-.742-.463 203.875 203.875 0 0 0-1.913-1.536c-1.307-.821-2.652-1.583-3.928-2.454-1.983-1.607-4.109-3.015-6.196-4.473a27.082 27.082 0 0 0-1.33-.91c-1.955-.786-4.031-1.836-6.153-1.525-.58.101-1.245.082-1.709.494-.696.533-1.125 1.233-1.248 2.096-.016.14-.039.292-.078.432.124.766.224 1.537.302 2.314.313 3.058.506 6.119.483 9.195 0 .304.035.778.008 1.233.181-.093.367-.186.552-.276 2.602-1.077 5.694-1.575 8.245-.163 2.436 1.447 3.286 4.259 1.786 6.414 2.652.412 5.184 2.057 5.783 4.745.398 2.077-.993 4.006-2.486 5.298a10.058 10.058 0 0 1-2.214 1.509c.978 1.47 1.372 3.633.634 5.212-1.593 3.465-6.089 4.383-9.525 3.792-1.681-.229-3.27-.751-4.836-1.361-.815 1.839-1.542 3.804-2.18 5.678-.336.969-.645 1.945-.978 2.914.012.26-.054.548-.081.797-.216 1.816.7 3.746 2.18 4.784.916.735 1.979 1.272 3.174 1.229a6.457 6.457 0 0 0 1.905-.148c1.21-.692 2.382-1.458 3.568-2.178 2.772-1.567 5.493-3.22 8.23-4.85l.004-.008Zm4.456-7.814c1.728-1.501 3.472-3.038 5.261-4.453.487-1.097 1.86-.378 1.226.641-.959.965-2.509 2.182-3.599 3.085-.835.486-3.092 3.434-3.954 2.26-.472-.798.587-1.128 1.066-1.533Zm-3.092 1.852c.932.179.565 1.975-.352 1.781-.931-.171-.564-1.976.352-1.781ZM113.613 107.896c.158-.05.313-.097.444-.14.642-.214 1.11-.404 1.717-.61 1.894-.603 3.564-1.362 5.353-2.163 1.906-.828 3.846-1.567 5.767-2.357a7.09 7.09 0 0 1 .538-.237l.019-.012c.159-.128.317-.299.387-.498-.07-.276-.128-.712-.402-.848-.209-.128-.441-.151-.677-.171l-.688.257c-3.49 1.167-6.745 3.01-10.247 4.08-.665.222-1.326.459-1.983.7-.151.082-.333.14-.51.16.034.21.054.427.061.645.051.401.132.79.225 1.183l-.004.011Z"/><path fill="#A4D357" d="M139.434 160.938c.019-.105-.046-.295-.046-.327-.271-.991-.704-2.049-1.485-2.703 0 .129-.008.261-.019.389-.363 2.482-2.002 4.508-2.764 6.846a9.807 9.807 0 0 0-.386 2.065c-.031.37-.41.63-.762.584-.46-.102-.584-.424-.58-.813a.69.69 0 0 1-.069-.308c.282-1.742 1.055-3.372 1.573-5.052.348-1.07.889-2.093.587-3.205-.618-.21-1.352.058-1.747.568a.617.617 0 0 1-.502.284c-.657 2.442-1.257 4.904-1.96 7.331-1.291 3.773-3.003 7.422-5.141 10.786a29.539 29.539 0 0 1-5.33 6.725c-1.52 1.494-2.958 3.077-4.604 4.43-2.223 1.622-4.503 3.229-7.001 4.396-1.264.544-2.57.98-3.857 1.458-.452.117-.909.238-1.365.362-.332.369-1.105.467-1.349.972-.096.21-.317.471-.247.704.325.413.8.545 1.26.681.34.07.773.016 1.055.171 1.4-.249 2.803-.509 4.105-1.124 4.801-2.19 8.601-5.916 12.238-9.658.302-.284.634-.521.971-.762a.669.669 0 0 1 .378-.124c.572 0 .986.82.387 1.244-2.076 1.583-3.668 3.726-5.678 5.395-2.061 1.688-4.241 3.396-6.637 4.617-.283.292-.785.49-1.106.657-.568.296-1.129.599-1.635.996-.259.226-.572.436-.618.801 0 .144.027.288.042.432.143-.016.282-.035.406-.074 2.273-.393 4.43-1.256 6.544-2.155 4.631-2.166 8.496-5.787 11.875-9.518 2.528-3.01 4.526-6.429 6.517-9.813 1.214-2.532 2.582-4.994 3.529-7.647 1.376-3.034 2.261-6.18 3.39-9.253a.721.721 0 0 1 .019-.37l.012.012Z"/><path fill="#E2FFB4" d="M19.748 122.148c.147-.432.229-.876.34-1.315.082-.319.178-.63.294-.937v-.016c0-.008 0-.012.008-.019v-.008c.132-.335.263-.661.406-.992.131-.303.263-.603.383-.91.08-.206-.252-.339-.333-.132-.023.058-.054.112-.08.167-.059.101-.117.202-.175.299-.212.358-.433.712-.669 1.054l-.166.238c-.05.066-.108.132-.154.206-.039.046-.074.097-.113.148-.123.163-.24.326-.344.505a5.548 5.548 0 0 0-.51 1.159v.004c-.19.603-.348 1.214-.522 1.82a.484.484 0 0 0 .263.561.476.476 0 0 0 .587-.191c.086-.148.167-.296.244-.447v-.008s.008 0 .008-.004c.1-.198.193-.401.29-.603.089-.194.178-.385.247-.587l-.003.008ZM23.397 126.158v-.004l.476-.836c-.012.019-.02.039-.031.062.228-.409.464-.813.68-1.225.155-.296.306-.592.426-.907.08-.214.154-.431.224-.649.147-.455.29-.918.39-1.389.093-.439.159-.883.255-1.318.105-.42.232-.829.379-1.237.278-.766.588-1.521.943-2.26.155-.315.306-.63.449-.945v-.016c.042-.097.088-.19.131-.284.077-.163-.186-.268-.259-.105-.02.043-.039.082-.054.125-.205.416-.483.797-.73 1.19-.263.416-.51.84-.77 1.26-.259.416-.533.825-.812 1.233-.27.397-.556.782-.823 1.179a25.176 25.176 0 0 0-.982 1.61c-.348.611-.688 1.221-.955 1.875-.498 1.217-.695 2.512-1.005 3.784-.112.432-.22.868-.351 1.296-.132.427-.294.847-.441 1.268-.15.435-.305.867-.456 1.303-.159.458-.282.925-.398 1.392-.027.124.073.202.174.202a.163.163 0 0 0 .158-.113c.14-.435.286-.867.456-1.287.236-.58.499-1.151.804-1.7.356-.587.715-1.174 1.083-1.75.348-.556.676-1.128 1-1.7.012-.015.02-.031.028-.046l.011-.008ZM24.758 134.816c.29-.556.626-1.081.94-1.626.297-.513.59-1.027.888-1.54.31-.521.634-1.039.924-1.571.29-.537.534-1.09.773-1.65.186-.416.383-.824.56-1.244.213-.502.384-1.019.561-1.537.34-.984.739-1.944 1.013-2.948.14-.502.247-1.011.398-1.513.143-.482.29-.968.445-1.447.185-.576.398-1.143.626-1.704 0-.003 0-.007.004-.011v-.008c0-.008.008-.012.008-.016.197-.455.405-.906.603-1.361.193-.451.37-.91.556-1.365v-.016c.27-.634.595-1.248.843-1.894.108-.284-.34-.436-.44-.152-.043.117-.082.23-.124.347-.182.424-.399.836-.588 1.256-.329.727-.638 1.458-1.02 2.159-.372.688-.747 1.373-1.122 2.057-.17.307-.344.611-.53.906-.212.339-.436.666-.645 1.008-.42.684-.82 1.381-1.237 2.069-.2.327-.394.654-.568.992-.193.381-.375.77-.556 1.159-.143.315-.29.63-.449.937-.154.296-.317.584-.471.879a15.264 15.264 0 0 0-1.002 2.393 30.539 30.539 0 0 0-.599 2.252 27.986 27.986 0 0 1-.564 2.096c-.015.043-.027.086-.043.128v.004c-.015.047-.03.09-.046.133a.289.289 0 0 0-.015.054.19.19 0 0 0-.016.043c-.02.054-.035.105-.054.159v.012c0 .008-.004.015-.008.023v-.008.008c0 .012-.007.02-.011.031-.004.012-.008.028-.016.043 0-.012.008-.019.008-.031 0 .012-.008.019-.012.031a.031.031 0 0 1-.007.016c-.286.77-.627 1.509-.967 2.252a.421.421 0 0 0 .186.56c.058.027.12.043.185.043.136 0 .271-.063.344-.179.456-.724.843-1.482 1.237-2.241l.008.012ZM33.274 126.648c-.155.416-.321.824-.484 1.241-.173.439-.351.875-.545 1.303-.177.369-.37.727-.58 1.081-.235.397-.475.793-.714 1.19a.347.347 0 0 0 .108.471c.054.035.116.05.177.05a.35.35 0 0 0 .29-.159c.491-.72.978-1.443 1.404-2.202.386-.688.715-1.408 1.105-2.092l.016-.028c.007-.007.011-.019.015-.027.344-.591.738-1.147 1.078-1.742.368-.642.658-1.315.948-1.996.351-.832.71-1.66 1.005-2.516.154-.455.29-.918.436-1.373.14-.432.298-.856.472-1.272.008-.016.015-.031.02-.047 0-.008.007-.015.007-.019.015-.039.035-.078.05-.117.09-.202.178-.404.263-.611.047-.108.085-.221.116-.338a.222.222 0 0 0-.027-.179v-.008c-.023-.058-.089-.097-.166-.062-.066.035-.081.101-.058.152-.012.019-.02.043-.035.058-.15.23-.31.455-.468.681-.154.222-.305.451-.456.677-.29.431-.576.867-.843 1.318-.042.066-.077.132-.116.195-.355.595-.71 1.19-1.047 1.797-.162.291-.325.583-.464.886-.154.327-.29.662-.421 1-.174.443-.352.879-.534 1.315-.193.451-.363.914-.537 1.373h-.015Z"/><path fill="#A4D357" d="M78.078 198.216a4.014 4.014 0 0 1-.058-.984 9.748 9.748 0 0 1-.066-.588c-.483-.19-.997-.49-1.368-.513a3.61 3.61 0 0 0-.452-.027c-.89 0-1.775.299-2.57.673-.558.311-.886.914-1.454 1.209-.657.35-1.334.65-2.022.93-1.52.428-2.783 1.373-3.858 2.509-.958.953-1.29 2.376-1.816 3.574-.518 2.762.058 5.624.912 8.265 1.635 4.011 1.268 8.733-1.334 12.245 1.948-.696 4.032-1.054 5.914-1.922 1.747-1.085 3.371-2.329 4.728-3.862a12.886 12.886 0 0 0 2.072-8.724c-.05-1.393-.491-2.894.011-4.232.02-.051.039-.101.058-.156-.1-.175-.135-.412-.066-.715.109-.677.256-1.342.418-2.011a5.311 5.311 0 0 0-.483-1.447c-.669-1.268-2.698-.735-3.526.097-.834.84-1.519 1.832-2.13 2.847a.627.627 0 0 1-.567.288c-.573 1.544-.774 3.221-.476 4.846.03.281.062.561-.062.821-.27.568-1.183.447-1.283-.187-.236-2.236-.217-4.613.87-6.662.595-.973 1.16-1.996 1.932-2.844 1.597-1.532 4.028-3.174 6.2-1.855.248.109.453.245.623.401l.07-.479a7.27 7.27 0 0 0-.078-1.194.642.642 0 0 1-.135-.299l-.004-.004ZM76.597 191.794a.83.83 0 0 1-.259.233c-.278.308-.483.677-.668 1.047.912.361 1.797.754 2.42 1.497a5.06 5.06 0 0 1 .803-1.591c.178-.233.395-.533.646-.785-.974-.164-1.952-.3-2.938-.405l-.004.004ZM72.168 195.816c.038-.012.077-.02.116-.031.552-.284 1.151-.697 1.349-1.28.104-.264.042-.552.023-.825-.329-.171-.657-.346-.986-.517-.158-.124-.394-.292-.638-.486a.955.955 0 0 1-.525-.148c-.464-.12-1.029-.272-1.554-.272-.526 0-1.048.163-1.35.7.561 1.389 1.91 1.84 3.074 2.548.174.089.336.19.49.319v-.008ZM38.322 166.562c1.252 0 2.505.082 3.761.168 1.26.081 2.524.167 3.784.167 3.162.078 6.282.681 9.362 1.377 1.728.299 3.448.634 5.138 1.116 6.153 1.529 12.176 3.571 18.356 4.987 2.579.486 5.192.77 7.797 1.061 4.816.37 9.803.813 14.484-.626 2.883-.778 6.331-1.921 7.224-5.146 1.117-2.804 1.89-6.663-.031-9.265-3.266-3.127-9.16-3.166-13.448-3.8-4.449-.451-8.867-1.135-13.308-1.606-4.302-.331-8.527-1.183-12.783-1.859-4.442-.65-8.89-1.218-13.297-2.085-5.713-1.179-11.287-3.034-17.097-3.707-3.127-.404-6.281-.91-9.436-.743-1.495.253-3.053.288-4.48.825a.679.679 0 0 1-.278.027c-.58 1.081-.665 2.427-.502 3.61.127.509.065 1.143.432 1.551.159.179.468.417.808.681a.984.984 0 0 1 .167-.023c.556 0 1.032.346 1.569.455 1.709.284 3.42.062 5.114-.171 5.914-.774 12.064-1.424 17.905.101 4.541 1.213 8.855 3.174 13.374 4.446 3.99 1.334 8.172 1.785 12.362 1.583 2.833-.09 5.55.867 8.345 1.132 1.635.124 3.262.295 4.886.513 2.44.389 4.897.965 7.364.556 2.748-.319 7.808.183 7.166 4.03-.626 2.217-3.112 3.111-5.094 3.734-3.066.918-6.15 1.077-9.27.638a145.067 145.067 0 0 1-17.251-3.816c-4.596-1.498-9.188-3.034-13.904-4.115a75.926 75.926 0 0 0-10.1-1.327c-3.986-.178-8.014-.381-11.956.319-1.898.362-3.56.568-5.389.833a.767.767 0 0 1-.263.046c-.216.14-.51.191-.784.187-.38.031-.754.062-1.129.117-.661.311-1.295.696-1.921 1.034-.534.424-.166 1.237-.29 1.825-.012.758.085 1.734.711 2.228.02.016.043.028.066.039 1.078.335 2.184.02 3.258-.155 2.069-.335 4.136-.794 6.236-.821.78-.086 1.565-.117 2.346-.117l-.004-.004Zm31.113-10.435c-.63.023-1.26 0-1.89-.047-1.26-.097-2.52-.194-3.77-.404-.888-.16-3.783-.199-2.81-1.731a.68.68 0 0 1 .955.023c.031.035.155.062.197.078a52.25 52.25 0 0 0 5.343.657c.688.058 1.33.09 1.936.062.452-.066 1.005.055 1.055.599.039.607-.502.806-1.016.759v.004Zm3.873-.082c-.367 0-.665-.346-.653-.704a.69.69 0 0 1 .7-.657c.367 0 .664.346.653.704a.69.69 0 0 1-.7.657Z"/><path fill="#E2FFB4" d="M185.293 173.494c-2.551-1.743-5.547-2.82-8.465-3.769-3.235-1.058-6.505-1.957-9.899-2.14-4.117-.233-8.075 1.389-11.55 3.47 1.415.323 2.806.805 4.159 1.299 5.199 1.953 9.826 5.099 14.294 8.355 1.423 1.042 2.768 2.213 4.341 3.026 2.184.894 4.639 1.241 6.962.828.062-.046.131-.089.201-.12.599-.444 1.14-.813 1.538-1.42 1.38-2.334 1.152-5.29-.031-7.635-.394-.728-.974-1.311-1.546-1.894h-.004Zm-18.936-1c-.368 0-.665-.346-.654-.704a.69.69 0 0 1 .7-.657c.367 0 .665.346.653.704a.689.689 0 0 1-.699.657Zm8.991 4.936c-1.848-1.513-4.086-2.435-6.259-3.365-.34-.14-.487-.568-.34-.898a.684.684 0 0 1 .893-.342c.634.26 1.272.513 1.887.813 1.696.871 3.579 1.618 4.913 3.014.367.692-.565 1.361-1.094.782v-.004ZM182.638 120.67a.682.682 0 0 1-.294.144c-.978.377-1.975.688-2.988.953-1.48.462-2.969.886-4.472 1.268-3.611.929-7.317 1.559-11.048 1.575.116.078.232.151.352.225 1.43.969 2.934 1.801 4.43 2.653 2.976 1.443 6.034 2.696 9.192 3.633 3.776 1.042 7.684 1 11.519.762.87-.093 1.743-.198 2.609-.323 3.75-.84 7.445-1.944 11.148-2.952 4.507-.945 8.941-2.26 13.417-3.36.506-.374 1.426-.56 1.817-.875 1.271-.611 2.45-1.416 3.591-2.245 1.832-1.322 3.111-3.162 4.19-5.115.711-1.217 1.465-2.458 1.658-3.885.309-1.891.363-3.96-.433-5.726-.039-.151-.124-.287-.197-.424-.959-.999-2.064-1.777-3.436-2.213-2.316-.898-4.794-.89-7.233-.77-3.421.09-6.54 1.548-9.516 3.147-.112.214-.298.334-.58.315l-.58.315c-5.176 3.267-10.243 6.896-15.674 9.72a72.069 72.069 0 0 1-7.468 3.174l-.004.004Zm30.135.548c2.164-1.07 4.198-2.318 5.945-3.967.591-.518 1.225-1.008 1.585-1.723a.681.681 0 0 1 .931-.226c.754.525-.038 1.389-.437 1.879-1.805 1.785-3.815 3.364-6.064 4.547-.936.544-1.922.988-2.942 1.342a.683.683 0 0 1-.87-.401c-.278-1.058 1.229-1.043 1.852-1.447v-.004Zm-4.245 1.867c.634.669-.572 1.883-1.213 1.19-.634-.669.572-1.882 1.213-1.19ZM150.93 133.785a5.74 5.74 0 0 0-1.709-.249h-.008c-1.453 0-2.91.479-4.248.992-1.546.747-2.849 1.778-4.333 2.606-2.253 1.502-4.692 2.758-7.275 3.582-.293.09-.587.168-.885.23.955.77 2.057 1.264 3.224 1.637 2.857.771 5.841-.202 8.55-.98 2.656-.855 5.396-1.917 7.113-4.2.58-.798 1.314-1.716 1.268-2.746-.004-.024-.008-.047-.008-.07a4.095 4.095 0 0 0-1.689-.798v-.004Zm-4.631 5.24a.71.71 0 0 1-.483.163c-.368 0-.657-.37-.634-.724a.68.68 0 0 1 .236-.474.705.705 0 0 1 .483-.163c.367 0 .657.369.634.723a.69.69 0 0 1-.236.475ZM145.139 152.751c-1.221-.031-2.431-.218-3.637-.455-1.233-.175-2.466-.347-3.707-.459h-.062c-1.983 0-4.016.431-5.62 1.626-.221.143-.464.4-.723.634 2.404.143 4.774.836 7.027 1.66 4.364 1.743 9.212 4.353 13.9 2.377.959-.377 1.697-.906 2.204-1.537-.642-3.831-5.872-3.597-8.856-3.8-.178-.015-.352-.027-.53-.046h.004Zm3.325 3.041a.685.685 0 0 1 .761.452c.213.723-.56 1.042-1.152.871-.858-.199-4.53-.276-4.101-1.642.452-1.038 1.778.086 2.574.074.642.063 1.284.156 1.921.245h-.003Z"/><path fill="#E2FFB4" d="M185.266 101.91c-3.668 0-6.915 1.863-10.092 3.497-3.75 2.116-7.468 4.294-11.345 6.169-.356.175-.712.35-1.075.521-.205.175-.421.303-.642.296-2.512 1.151-5.137 2.147-7.758 2.894-1.113.396-2.207.847-3.335 1.186l.429.292a27.34 27.34 0 0 0 1.871 1.225c.444.093.939.486 1.322.638 1.43.676 2.779 1.33 4.271 1.836 3.579 1.446 7.476 1.664 11.275 1.555 3.066-.198 6.096-.957 9.049-1.626a74.957 74.957 0 0 0 5.767-2.112c4.38-1.691 8.385-4.099 12.316-6.627.023-.183.112-.366.216-.525.19-.526.116-1.058-.077-1.552a.721.721 0 0 1-.209-.347 70.707 70.707 0 0 1-.081-.245 6.697 6.697 0 0 0-.24-.381.618.618 0 0 1-.073-.443 12.643 12.643 0 0 0-1.017-1.929c-2.195-3.485-6.726-4.485-10.564-4.329l-.008.007Zm-14.047 17.472c-.367 0-.664-.346-.653-.704a.69.69 0 0 1 .7-.657c.367 0 .665.346.653.704a.689.689 0 0 1-.7.657Zm9.084-2.388c-1.627.595-3.243 1.202-4.948 1.552-.529.175-1.306.599-1.6-.144a.687.687 0 0 1 .398-.875c1.032-.401 2.122-.595 3.181-.902.611-.203 1.207-.444 1.81-.669.954-.386 2.021-.483 2.868-1.105.309-.202.719-.16.947.152.692 1.233-1.871 1.723-2.656 1.987v.004Z"/><path fill="#A4D357" d="M158.722 143.509c-1.167-1.789-3.243-2.785-5.349-2.777-1.871.027-3.785.778-5.528 1.249-3.425.882-6.668 2.341-10.131 3.041a87.31 87.31 0 0 1-4.129.689c-.378.058-.95.194-1.383.112.092 1.28.046 2.564-.116 3.832a6.499 6.499 0 0 1 1.105-.086c.677 0 1.361.082 2.026.171 2.292.214 4.507.836 6.76 1.26h.016c.614.09 1.225.172 1.84.242.39.058.784.101 1.179.136h.015c1.14.046 2.273-.016 3.413-.09 2.826-.221 5.818-.583 8.098-2.419 1.562-1.214 3.329-3.318 2.173-5.36h.011Zm-11.627 5.924a.71.71 0 0 1-.483.163c-.367 0-.657-.369-.634-.723a.69.69 0 0 1 .236-.475.71.71 0 0 1 .483-.163c.367 0 .657.369.634.723a.69.69 0 0 1-.236.475Zm5.578-.887c-.916.467-1.948.459-2.934.65a.687.687 0 0 1-.796-.533c-.17-1.264 2.118-.786 2.887-1.229 1.473-.627 2.88-1.428 4.125-2.447.22-.766 1.299-.54 1.322.156v-.008.078a.618.618 0 0 1-.016.12c.012-.042.012-.081.016-.12v-.07c.019.805-.878 1.178-1.419 1.61a17.094 17.094 0 0 1-3.185 1.793ZM240.639 128.157c-.514-.253-.947-.681-1.481-.906-.893-.342-1.786-.552-2.713-.724-2.053-.447-4.071-1.131-6.173-1.299-1.67-.233-3.332-.066-4.983.199-2.13.136-4.213.638-6.335.793-.383.043-.758.113-1.141.144a.754.754 0 0 1-.166-.016c-3.154.751-6.281 1.634-9.397 2.459-1.538.4-3.096.723-4.65 1.069-3.023.778-6.007 1.696-9.03 2.462a.694.694 0 0 1-.386.226c-.634.121-1.268.222-1.906.319-.754.163-1.507.319-2.273.451a47.769 47.769 0 0 1-7.012.895c-2.334.202-4.684.556-7.019.132-.371-.058-.742-.117-1.113-.179.46.545.904 1.105 1.356 1.661.712.731 1.284 1.579 1.802 2.458 1.109 1.778 2.118 3.726 2.242 5.858a17.043 17.043 0 0 1-.31 5.348c-.382.914-.954 1.715-1.619 2.454.9-.323 1.813-.61 2.748-.84 6.544-1.626 13.355-1.529 20.046-1.272 7.321.42 14.608 1.194 21.921 1.642 9.231.431 17.356-.172 20.819-10.222 1.226-3.789 1.16-8.312-1.442-11.498a39 39 0 0 0-1.774-1.614h-.011Zm-11.921 19.491c-.368 0-.665-.347-.654-.704a.69.69 0 0 1 .7-.658c.367 0 .665.346.653.704a.689.689 0 0 1-.699.658Zm12.516-6.955c-1.701 2.591-4.032 4.831-6.877 6.083-.719.222-2.346 1.249-2.686.129-.135-.607.464-.848.947-.93.475-.152.935-.327 1.391-.529a14.46 14.46 0 0 0 6.158-5.679c.023-.427.112-.863.63-.918.99-.027.839 1.268.437 1.844ZM203.82 164.824a1.325 1.325 0 0 1-.44-.226c-4.403-1.186-8.829-2.271-13.259-3.174a116.057 116.057 0 0 0-4.047-.824c-.22.035-.468.004-.684-.055-2.246-.12-4.519-.385-6.765-.233-2.597.152-4.932.922-7.336 1.793-1.832.743-3.73 1.358-5.47 2.314-.297.148-.607.269-.908.405 2.934.346 6.27 1.128 6.977 1.377 2.853.805 5.655 1.789 8.423 2.855 3.173 1.373 6.281 2.971 9.362 4.527 2.845 1.214 5.319 3.116 8.129 4.392 3.139 1.166 6.703 2.15 9.822.501.124-.066.24-.136.359-.21 1.176-1.489 1.199-3.586 1.141-5.406-.391-3.322-2.463-6.34-5.304-8.04v.004Zm-4.92 10.906c-.955-.218-.576-1.524.324-1.408.959.218.572 1.525-.324 1.408Zm4.062 1.175c-.44-.055-.877-.136-1.318-.195-.87-.163-.661-1.462.22-1.341.855.128 1.709.272 2.575.241.506-.055 1.078-.012 1.523-.288.278-.249.703-.276.97.012 1.005 1.793-2.992 1.719-3.974 1.571h.004Z"/><path fill="#E2FFB4" d="M236.259 165.139a.685.685 0 0 1-.042-.311c-.024-.152-.047-.304-.074-.451-1.194-4.018-5.272-8.499-8.991-10.343-1.094-.618-2.331-.817-3.502-1.163-10.591-.474-21.19-2.178-31.781-1.742a.76.76 0 0 1-.263.066c-.758.031-1.489.268-2.235.397-4.541.871-9.126 2.061-13.154 4.399-1.117.704-2.242 1.404-3.285 2.213 1.643-.082 3.293-.027 4.94.074 3.343.046 6.683.63 9.953 1.283 5.157.988 10.255 2.264 15.346 3.559 4.167 1.198 8.373 2.276 12.485 3.649 4.55 1.493 9.022 3.43 13.877 3.154 2.273-.086 4.867-1.202 6.599-2.96.031-.058.061-.113.096-.167.12-.541.101-1.097.031-1.645v-.012Zm-43.996-7.554c-.367 0-.665-.346-.653-.704a.689.689 0 0 1 .699-.657c.367 0 .665.346.653.704a.689.689 0 0 1-.699.657Zm11.728 2.4c-2.026-.33-4.075-.439-6.073-.937-.684-.253-2.18-.144-1.971-1.225.286-.825 1.198-.323 1.789-.21 1.202.256 2.412.509 3.63.676 1.349.02 2.659.448 4.001.432.367-.047.703.253.738.615-.004 1.085-1.419.743-2.114.645v.004Z"/><path fill="#000" d="M50.115 134.777c-1.074-1.206-2.953 1.186-2.667 2.311.147.665.712 1.244 1.396 1.33 1.917.354 4.306-3.758 1.271-3.641ZM64.734 132.276a.682.682 0 0 0-.765.576c-.17 1.381.14 2.793-.576 4.076-1.12 2.038-3.51 2.404-5.42 3.341-1.078-.292-1.21 1.26-.208 1.432.665.007 1.233-.498 1.863-.681 2.389-.731 4.92-2.163 5.454-4.835.283-.898.14-1.84.182-2.765.112-.467.039-1.062-.53-1.148v.004ZM90.772 124.042l.008-.02c0 .004 0 .012-.004.016l-.004.004ZM82.152 116.597s-.027.035-.039.055c0-.004.008-.012.012-.016.008-.015.02-.027.027-.039ZM96.675 102.817l-.004.004h.004v-.004ZM74.599 35.597c.56.047.993-.404 1.345-.793.63-.732 1.245-1.478 1.952-2.136a94.834 94.834 0 0 1 6.042-5.037c2.81-1.91 5.6-3.916 7.665-6.67 1.422-1.645 2.466-3.64 2.803-5.807.475-2.17.324-4.504-1.025-6.34-1.357-2.132-4.004-2.248-5.987-.93-.89.482-1.763 1.155-2.637 1.817-.293.221-.32.68-.096.956.738.747 1.523-.482 2.172-.813 2.547-1.87 4.774-2.376 6.135 1.066.753 2.124.135 4.582-.692 6.608-1.485 2.743-3.715 5.088-6.2 6.94-3.754 2.664-7.584 5.433-10.68 8.907-.264.295-.5.63-.812.879a.688.688 0 0 0-.588.606c-.035.362.24.716.607.743l-.004.004Z"/><path fill="#000" d="m242.208 127.721-.444-.385a.68.68 0 0 0-.41-.35c-.893-.747-1.813-1.463-2.837-2.019-1.562-.774-3.22-1.233-4.925-1.602a14.808 14.808 0 0 0-1.101-.144c.668-1.175.819-2.548 1.047-3.866.263-1.502-.062-3.007-.274-4.497-.147-1.17-.418-2.326-.905-3.403-.904-1.995-2.601-3.427-3.954-5.099-.046-.055-.097-.105-.143-.16a.834.834 0 0 0-.124-.136c-2.81-3.108-7.375-3.683-11.353-3.446-1.105.051-2.203.194-3.297.346-1.461.288-2.822.937-4.202 1.482-.78.342-1.542.712-2.288 1.112a9.888 9.888 0 0 0-.657-2.17c-.657-1.521-1.821-2.703-3.189-3.582a14.937 14.937 0 0 0-2.366-1.474c-3.076-1.758-6.501-2.645-9.868-3.649.386-.824.599-1.925.765-2.544.348-1.579.688-3.173.75-4.795.07-1.902-.332-3.777-.649-5.644-.429-2.882-1.38-5.628-2.474-8.316-1.941-5.107-2.988-10.455-4.109-15.811-1.133-4.38-1.45-8.884-1.995-13.36-.232-3.108-.44-6.228-1.221-9.258-.549-2.812-.908-5.66-1.724-8.413-.321-1.404-.646-2.874-1.395-4.13-.7-1.214-1.4-2.451-2.347-3.49-3.1-3.146-7.592-4.014-11.48-5.775-3.657-1.868-7.7-3.132-11.701-4.1-2.868-.96-5.844-1.463-8.778-2.155-1.423-.37-2.83-.805-4.26-1.136-4.77-.867-9.513-1.89-14.294-2.687-1.546-.226-3.12-.152-4.677-.273-1.4-.081-2.753-.49-4.121-.778-2.98-.665-6.034-.855-9.049-1.303-4.151-.8-8.554-.832-12.783-.575-4.21.284-8.489.155-12.555 1.474-1.422.366-2.795.887-4.128 1.51-1.276.544-2.582 1.076-3.576 2.084-3.297 2.831-3.935 7.355-3.912 11.482-.1 2.777-.42 5.515-1.117 8.215-.66 2.166-1.704 4.196-2.744 6.203-1.179 2.062-2.683 3.906-3.893 5.948-1.264 2.061-2.725 3.986-4.155 5.927-2.296 3.236-4.105 6.791-5.59 10.467-1.627 3.831-2.531 7.95-2.883 12.093-.166 2.901-.904 5.842-.49 8.743.061.16.096.358.13.557-1.213-.105-2.438-.222-3.664-.14-7.905.704-15.76 1.855-23.525 3.523-3.185.837-6.451 1.428-9.528 2.626-3.193 1.128-6.185 2.804-9.05 4.597-.564.467-4.097 2.65-4.406 3.972-.576.505-.178 1.377.406 1.703 1.747.938 3.784 1.128 5.686 1.587 1.16.238 2.447.646 3.618 1.004 2.416.723 4.905 1.147 7.368 1.672 2.466.354 4.859.988 7.29 1.513 1.248.237 2.52.385 3.765.662 3.29.781 6.563 1.649 9.787 2.672 1.31.688 2.633 1.345 4.059 1.773.707.245 1.434.413 2.165.568-.043.21-.082.42-.136.619-.089.707-1.047 2.512-.734 3.395-1.322-.152-2.725-.117-4.113-.062-1.175-.082-2.285.268-3.413.533-.963.136-1.94.148-2.903.319-2.142.249-4.248.607-6.324 1.194-1.295.113-2.563.381-3.811.735-.828.214-1.682.276-2.517.455-1.295.307-2.52.852-3.8 1.217-1.584.463-3.235.969-4.623 1.91-2.23 1.642-3.664 4.353-3.656 7.145-.422 4.329.982 8.554 2.597 12.501.468 1.354 1.176 2.591 1.786 3.874.68 1.79 1.867 3.45 3 4.995 1.646 2.621 4.205 4.589 7.232 5.126a6.24 6.24 0 0 0-.63 1.459c-.348 1.606-.44 4.181.61 5.519.704.657 1.512 1.202 2.142 1.941a.682.682 0 0 0 .294.186c.406 1.043 1.036 1.969 1.705 2.863.433.778.861 1.556 1.283 2.342-.29.097-.576.214-.858.342-.754.121-1.48.35-2.095.832-.607.312-1.18.743-1.407 1.412-.398 1.074-.766 2.455-.1 3.489.293.467.718.836.996 1.311.29 1 .17 2.116.766 3.03.607 1.023 1.608 1.684 2.493 2.439.92.953 2.045 1.637 3.07 2.462 1.07 1.073 1.978 2.302 2.84 3.547 3.95 6.538 7.202 12.987 15.752 13.357 2.238.074 4.46-.23 6.695-.346 1.554-.047 3.15-.066 4.708-.199 1.484-.128 2.969-.291 4.453-.424.112.498.58 1.054.854 1.389.53.681 1.113 1.388 1.81 1.921.788.798 2.02.821 2.879 1.451-.472.284-.993.49-1.508.704-2.72.848-5.218 2.886-6.103 5.667-.974 1.715-.835 3.796-.707 5.737.2 2.322 1.063 4.504 1.708 6.733.39 1.556.36 3.155.108 4.745a11.132 11.132 0 0 1-1.194 3.155c-.564 1.038-2.551 3.17-.178 3.306 1.16.043 2.203-.568 3.301-.852 1.64-.467 3.367-.813 4.766-1.855a52.404 52.404 0 0 0 1.763-1.323c1.117-.918 2.296-1.855 2.996-3.154.649-1.256 1.24-2.563 1.588-3.94.572-2.338.22-4.73.062-7.091-.046-.583-.104-1.167.197-1.696.097-.167.186-.35.228-.533.097.238.213.471.352.701.522.945 1.6.836 2.513.742.53.028 1 .3 1.526.362.661.082 1.392.02 1.945-.381.093-.07.197-.152.294-.237.282.466.657.844 1.205.972 1.191.148 2.192-.677 3.352-.891.792-.287 1.562.067 2.362.113 1.063.035 2.145.175 3.192-.07a3.03 3.03 0 0 0 .828-.428c-.004.035-.008.07-.016.109-1.403 8.997 7.951 10.634 5.014 20.732-.275.988-.638 1.96-.955 2.944-.155.478-.348 1.105-.035 1.56.17.214.356.299.545.299.738 0 1.585-1.299 2.099-1.715 1.801-1.828 3.456-3.789 5.245-5.628 5.76-6.297 3.823-6.068 2.811-13.587-.163-1.361.239-2.711.104-4.072-.097-.852-.437-1.641-.796-2.411-.739-1.478-1.438-3.077-2.366-4.485.081-.016.159-.035.232-.058 1.415-.23 2.775-.646 4.105-1.167 3.912-1.229 7.387-3.536 10.417-6.278a40.808 40.808 0 0 0 8.462-9.879 72.818 72.818 0 0 0 1.902-3.085.61.61 0 0 0 .131-.074c.479-.179.974-.311 1.442-.517 1.832-.661 3.626-1.42 5.462-2.069.819-.347 1.654-.669 2.489-.992.375-.02.812-.195 1.129-.284.359-.132.715-.284 1.067-.44a.722.722 0 0 0 .193.055c.298.023.599.054.897.109 2.47.645 4.886 1.629 7.077 2.96 3.823 2.687 7.53 5.947 12.343 6.522 2.172.234 4.557.137 6.412-1.139.882-.677 1.887-1.428 2.362-2.458 1.365 1.042 2.741 2.065 4.287 2.812 1.326.537 2.768.797 4.19.937 4.689.463 9.946-2.194 11.596-6.779.112-.312.29-1.027.36-1.731.966.564 1.944 1.116 2.961 1.591 1.983.848 4.008 1.326 6.169 1.583a9.278 9.278 0 0 0 5.257-1.163.984.984 0 0 0 .475-.288 8.495 8.495 0 0 0 1.597-1.334c1.519-1.595 3.061-3.31 3.695-5.473.48-1.396.596-2.909.282-4.36-.027-.093-.05-.195-.077-.3 4.175 1.354 8.303 3.077 12.721 3.47 2.227.124 4.561.008 6.587-1.027 1.16-.568 2.284-1.318 3.231-2.24a.868.868 0 0 0 .368-.378c.715-.77 1.302-1.645 1.693-2.621.912-3.656.29-7.674-1.183-11.097-.499-.813-.978-1.676-1.593-2.412 1.651-.626 3.197-1.485 4.473-2.718 4.36-4.189 6.737-11.545 4.244-17.274-.595-1.49-1.515-2.8-2.779-3.784l.007.019Zm-36.424-19.95.58-.315c.282.02.468-.101.58-.315 2.976-1.598 6.096-3.057 9.517-3.146 2.439-.121 4.917-.133 7.232.77 1.372.432 2.478 1.213 3.436 2.213.074.136.159.272.197.424.797 1.766.743 3.839.433 5.725-.197 1.428-.947 2.665-1.658 3.886-1.074 1.953-2.354 3.792-4.19 5.115-1.14.828-2.315 1.633-3.591 2.244-.39.315-1.314.502-1.817.875-4.476 1.101-8.91 2.416-13.417 3.361-3.703 1.007-7.398 2.116-11.148 2.952-.865.124-1.739.23-2.609.323-3.834.237-7.742.28-11.519-.763-3.162-.937-6.215-2.189-9.192-3.632-1.496-.852-3.003-1.681-4.43-2.653-.119-.07-.235-.148-.351-.226 3.73-.015 7.437-.645 11.047-1.575a83.252 83.252 0 0 0 4.472-1.268 27.74 27.74 0 0 0 2.988-.953.688.688 0 0 0 .294-.144 71.519 71.519 0 0 0 7.468-3.174c5.431-2.823 10.499-6.452 15.675-9.72l.003-.004Zm-9.953-1.536a12.68 12.68 0 0 1 1.017 1.929.637.637 0 0 0 .073.444c.081.12.166.249.24.381l.081.245a.69.69 0 0 0 .209.346c.193.494.266 1.027.077 1.552a1.26 1.26 0 0 0-.217.525c-3.931 2.528-7.935 4.936-12.315 6.628a76.671 76.671 0 0 1-5.767 2.112c-2.953.669-5.984 1.431-9.049 1.626-3.8.109-7.692-.113-11.276-1.556-1.488-.506-2.841-1.159-4.271-1.836-.383-.152-.877-.544-1.322-.638a27.96 27.96 0 0 1-1.871-1.225 108.59 108.59 0 0 1-.429-.292c1.133-.338 2.223-.793 3.336-1.186a55.29 55.29 0 0 0 7.758-2.894c.22.008.433-.12.642-.295.359-.172.719-.347 1.074-.522 3.881-1.874 7.596-4.053 11.345-6.168 3.178-1.634 6.425-3.497 10.093-3.497 3.838-.156 8.365.844 10.564 4.329l.008-.008Zm-47.379 45.049c-1.14.078-2.276.14-3.413.089h-.015a18.623 18.623 0 0 1-1.179-.136 57.512 57.512 0 0 1-1.84-.241h-.016c-2.257-.424-4.472-1.046-6.76-1.26-.665-.09-1.346-.171-2.026-.171a6.57 6.57 0 0 0-1.105.085 19.01 19.01 0 0 0 .116-3.831c.433.082 1.005-.054 1.383-.113 1.38-.194 2.76-.424 4.129-.688 3.463-.7 6.706-2.159 10.131-3.042 1.743-.47 3.657-1.221 5.528-1.248 2.106-.008 4.178.988 5.349 2.777 1.152 2.042-.61 4.146-2.172 5.36-2.285 1.836-5.272 2.193-8.098 2.419h-.012Zm6.077 5.309c-.507.63-1.245 1.159-2.204 1.537-4.688 1.975-9.539-.638-13.9-2.377-2.253-.825-4.623-1.517-7.027-1.661.255-.233.502-.49.723-.634 1.6-1.194 3.637-1.626 5.62-1.626h.062c1.241.113 2.474.284 3.707.459 1.206.238 2.416.424 3.637.455l.53.047c2.984.198 8.214-.035 8.856 3.8h-.004Zm-3.166-19.195c-1.716 2.287-4.457 3.345-7.112 4.201-2.714.778-5.694 1.75-8.551.98-1.163-.373-2.265-.871-3.224-1.637.298-.066.592-.144.886-.23 2.582-.824 5.021-2.081 7.274-3.582 1.485-.829 2.787-1.859 4.334-2.606 1.337-.51 2.794-.992 4.248-.992h.007c.572 0 1.145.074 1.709.249a4.098 4.098 0 0 1 1.689.797c0 .024 0 .047.008.07.046 1.031-.688 1.949-1.268 2.746v.004Zm-9.026-7.701c-.035.91-.518 2.388-1.596 2.357a1.328 1.328 0 0 1-.623-.646 12.923 12.923 0 0 0-.289-1.711c-.02-.459-.035-.906-.116-1.268a4.541 4.541 0 0 1-.012-.086v-.007c0-.094-.004-.187-.008-.284.016-.541.178-1.109-.116-1.576-.243-.723-1.399-.513-1.306.323.031.234.05.471.062.708-.186 1.54.119 3.069.146 4.64.008 1.086.221 2.233-.069 3.295-.476 1.244-1.167.747-1.523-.241-.236-.584-.298-1.222-.425-1.848a.73.73 0 0 0-.101-.222c-.085-2.396-.429-4.792-.603-7.18-.093-2.925-.734-5.783-1.128-8.673-.484-2.832-1.415-5.559-2.045-8.359-.286-2.408-1.195-4.687-1.535-7.079.317-.167.588-.564.885-.759 1.419-.283 1.689 1.389 1.747 2.463.263 1.765 1.28 3.306 1.84 4.982.194.665.085 1.393.294 2.05a.794.794 0 0 0 .151.218c.07.202.216.361.491.42 2.137.132-.371-5.831-.642-6.912a14.95 14.95 0 0 1-.27-1.167c.073-.12.154-.237.255-.338.723-.903 1.828-.467 2.222.494a.776.776 0 0 0 .089.175c.306 1.742.835 3.45 1.229 5.181.967 3.722 1.504 7.538 2.374 11.287.456 2.711.723 5.453.846 8.199-.235.405-.154 1.117-.228 1.56l.004.004Zm-3.023-27.499c.174-.171.337-.381.499-.533.464-.249.912-.533 1.399-.724.368-.101.638-.132 1.063-.217.642-.067.681.447.882.82-.944 1.191-1.775 2.478-2.598 3.738-.166.222-.336.447-.518.665-.309-1.24-.576-2.485-.727-3.749Zm1.585 7.063a89.085 89.085 0 0 0-.464-1.777c.955-.658 2.03-2.805 2.474-3.31.797-1.191 1.713-2.287 2.675-3.341.333-.347.696-.65 1.098-.907.56-.023 1.117-.027 1.674 0h.007a5.396 5.396 0 0 1 2.138.883c.228.148.468.272.719.381a.92.92 0 0 0 .263.257c.719 1.175 1.132 2.696.468 3.967-.379.315-.785.599-1.172.895-1.561 1.334-3.49 1.898-5.454 2.38-1.442.397-2.949.401-4.426.576v-.004Zm4.643 3.17c2.562-.883 8.592-6.997 9.756-7.654.325-.249.653-.494.993-.724h.008c.36-.187.823-.381 1.09-.657.128-.066.259-.129.391-.187.784-.148 1.608-.058 2.4.039.874.054 1.844.296 2.594.821 1.836.953 1.863 3.411.885 5.052-.286.288-.638.51-.951.759-2.366 1.361-4.909 2.765-7.48 3.667-2.647.786-5.593.658-8.132-.443-.511-.249-1.04-.443-1.554-.673Zm24.905-5.931s.003 0 .007.003v-.007l-.007.004ZM54.024 56.43a.632.632 0 0 0 .143-.432l.104-.304c1.643-4.356 3.66-8.56 6.413-12.326a73.34 73.34 0 0 0 4.263-6.169c1.133-1.855 2.567-3.578 3.61-5.5a59.845 59.845 0 0 0 1.88-3.885c1.491-3.287 1.874-6.966 2.09-10.537.082-3.423.12-7.266 2.498-9.996 1.484-2.038 3.911-2.781 6.122-3.73 1.77-.603 3.587-1.1 5.427-1.432 2.884-.447 5.81-.388 8.713-.606 4.538-.32 9.092-.171 13.568.688 2.717.342 5.454.568 8.133 1.167 1.395.323 2.791.696 4.225.79 1.438.093 2.883.07 4.313.23 1.651.166 3.263.57 4.886.89 3.22.638 6.459 1.174 9.675 1.836 1.427.326 2.826.766 4.245 1.132 2.945.669 5.922 1.213 8.794 2.166 2.454.653 4.924 1.245 7.294 2.178 1.766.661 3.428 1.564 5.164 2.299 3.421 1.369 7.193 2.322 9.919 4.96.935 1.041 1.615 2.29 2.311 3.5.982 1.999 1.206 4.263 1.844 6.398.394 1.72.537 3.485.924 5.208.274 1.26.568 2.52.754 3.8.537 4.967.842 9.965 1.635 14.901.367 1.898.8 3.785 1.194 5.683.908 4.368 1.844 8.743 3.29 12.968.622 1.894 1.465 3.702 2.06 5.608.661 2.299 1.082 4.675 1.399 7.052-.008.008-.019.008-.027.016-1.662 1.964-4.426 2.839-6.985 2.637-1.484-.312-2.976-.6-4.445-.961-2.428-.832-4.77-1.478-7.279-2.14-3.084-.458-6.138-1.1-9.226-1.602-2.25-.346-4.453-1.027-6.653-1.61-3.966-1.043-7.959-2.026-11.983-2.82-2.176-.385-4.445-.556-6.71-.93-2.165-.38-4.322-.785-6.502-1.093-2.195-.287-4.399-.493-6.583-.879-2.319-.408-4.572-1.128-6.896-1.524-3.498-.7-7.035-1.156-10.544-1.805-2.548-.249-5.01-.778-7.546-1.194-2.025-.241-4.062-.412-6.096-.6-5.647-.485-11.31-.594-16.973-.73-3.521-.129-7.046-.265-10.575-.32-1.752-.128-3.503-.276-5.258-.33-.216-.175-.502-.311-.726-.436-.677-.474-1.473-.73-2.157-1.198-3.348-2.462-4.237-7.063-3.738-11.007l.012-.012Zm-.603 14.216c3.003-.242 6.014-.335 9.022-.136 3.791.38 7.595.256 11.399.493 6.007.23 12.029.172 18.024.708 4.117.25 8.179.708 12.23 1.529 6.448.895 12.903 1.902 19.223 3.497 3.433.68 6.935.883 10.375 1.493 3.278.654 6.73 1.074 10.062 1.529 5.071.976 10.089 2.264 15.067 3.629 1.89.525 3.788.848 5.733 1.159 2.315.416 4.623.902 6.954 1.213 1.917.393 3.761 1.074 5.693 1.556 1.547.576 3.151.95 4.763 1.288.409.257 1.07.31 1.635.338 1.975.409 3.942.856 5.809 1.65-.112.116-.228.229-.355.33-.476.323-.959.696-1.481.96-1.642.51-3.424.522-5.121.288a.976.976 0 0 0-.225-.038c-1.917-.553-3.846-1.062-5.802-1.467-7.572-1.552-15.253-2.528-22.833-4.045-4.472-.941-8.871-2.217-13.351-3.127-11.948-1.984-23.966-3.532-35.894-5.632-3.054-.424-6.111-.829-9.17-1.23-4.162-.377-8.34-.458-12.508-.754-6.814-.537-13.726-.813-20.583-.89-.36-.008-.723-.012-1.082-.016a.595.595 0 0 0-.143-.016c-1.508-.062-3.043-.295-4.473-.813-1.743-.618-3.05-1.94-4.074-3.442.367-.023.738-.02 1.102-.05l.004-.004ZM30.22 86.86c-4.237.47-8.424 1.408-12.699 1.502-2.423.213-4.862.24-7.286.027-1.488-.237-3.2-.198-4.739-.043-.924.109-1.89.175-2.833.338 1.256-1.124 2.694-2.057 4.128-2.932 2.887-1.712 5.957-3.21 9.173-4.252 3.127-.875 6.358-1.637 9.532-2.392 7.031-1.264 14.128-2.446 21.26-3.033 1.677-.125 3.529.159 5.249.256 2.841-.004 5.678-.027 8.515-.008.024 0 .043.004.066.008.077 0 .155 0 .232-.004 1.855.016 3.71.05 5.566.12 5.806.07 11.504.444 17.31.868 4.344.276 8.712.32 13.034.883 2.868.455 5.763.708 8.62 1.23 3.83.766 7.711 1.193 11.561 1.835 7.909 1.284 15.852 2.334 23.746 3.703 6.393 1.427 12.702 3.228 19.192 4.177 7.328 1.327 14.758 2.167 21.92 4.283 2.571.731 5.126 1.505 7.689 2.267.062.031.131.051.209.063.719.214 1.434.424 2.153.634-2.146-.393-4.318-.63-6.471-.992-4.96-.712-9.861-1.754-14.812-2.493-5.938-.864-11.817-2.105-17.774-2.86-9.516-1.19-19.103-1.788-28.65-2.687-9.231-.513-18.469-.926-27.712-1.159-5.972-.148-11.955.078-17.92-.315-4.673-.405-9.517-.12-14.225-.202-5.836-.043-11.673-.105-17.51.039-5.481.564-11.013.778-16.525 1.143v-.004Zm81.599 16.103c-.971-.218-1.98-.019-2.969-.105-2.559-5.5-8.616-7.017-14.345-7.048a56.11 56.11 0 0 0-11.615 1.225c-5.914 1.12-11.508 3.458-16.916 6.06-2.833 1.288-6.01 2.995-7.065 6.107-2.026-1.603-5.033-1.249-7.283-.237-.402.151-1.36.704-2.091 1.341-1.098-2.026-2.706-3.002-4.55-3.457a36.358 36.358 0 0 1 2.122-3.163c1.813-2.049 4.233-3.543 6.75-4.562 1.267-.443 2.466-.937 3.718-1.404 1.948-.432 3.904-.829 5.856-1.23 4.998-.785 10.108-.972 15.149-1.423 2.632-.12 5.33-.206 8.04-.463 3.13-.24 6.266-.319 9.4-.536 3.773-.21 7.728-.452 11.527-.082 3.394.276 6.738 1.217 10.058 2.038.035.02.07.043.108.058.379.226.777.39 1.214.53 1.43.486 2.946.688 4.387 1.139 1.141.366 2.13 1.077 3.147 1.7.019.015.038.027.054.043a.605.605 0 0 0-.379.159c-.274.105-.56.21-.858.319-3.317 1.112-6.42 2.886-9.795 3.913-.819.264-1.62.579-2.435.856a.22.22 0 0 0-.07.015 6.593 6.593 0 0 0-.209-.498c-.162-.521-.34-1.174-.954-1.291l.004-.004Zm.753 6.398c-.831.078-1.542.117-2.388.168-.047-1.486-.171-3.042-.549-4.497.583-.229 1.179-.416 1.77-.085.089.089.186.179.29.249.155.373.29.75.29 1.163.089.995.344 2.018.587 3.006v-.004Zm-11.851 6.659c0 .004-.004.008-.008.016 0 .008-.004.011-.008.015-.034.078-.073.152-.112.23v-.008c-.351.735-.68 1.482-1.02 2.221a54.96 54.96 0 0 1-.56 1.19c-.182.377-.368.751-.542 1.132-.263.568-.514 1.147-.788 1.708a28.43 28.43 0 0 1-.997 1.87.275.275 0 0 1-.24.129.252.252 0 0 1-.12-.027.287.287 0 0 1-.132-.382c.194-.392.387-.785.569-1.182.181-.393.355-.79.522-1.19.317-.763.599-1.537.95-2.283.352-.755.746-1.49 1.16-2.21.41-.708.808-1.431 1.233-2.131.209-.339.414-.677.646-1 .108-.151.22-.303.351-.443.055-.059.151-.179.244-.179.027 0 .05.008.073.031a.101.101 0 0 1 .027.093.34.34 0 0 1-.03.067c-.008.019-.02.038-.031.058 0 .004-.008.012-.008.015-.004.012-.012.024-.016.039a.081.081 0 0 1-.034.039c-.008.008-.012.02-.016.027-.054.098-.112.191-.166.288-.108.187-.209.374-.309.564-.221.424-.433.848-.642 1.28.004-.008.008-.02.016-.031-.008.011-.012.027-.02.039l.008.015Zm-9.737 9.37s-.008.016-.016.027c-.011.024-.027.047-.034.07l-.016.028c0 .004-.004.007-.007.011-.097.191-.198.381-.298.568v.008c-.232.439-.487.867-.754 1.284-.317.501-.634 1.007-.959 1.501a.202.202 0 0 1-.162.085.168.168 0 0 1-.104-.031c-.09-.058-.109-.179-.054-.268.344-.595.691-1.19 1.02-1.793.433-.817.765-1.673 1.075-2.544.015-.039.027-.082.042-.12 0-.008.008-.02.012-.028l-.008.02a.03.03 0 0 1 .008-.02v-.004l.046-.147c0-.008 0-.012.008-.016 0-.004 0-.012.008-.015.15-.459.309-.915.456-1.377.255-.852.46-1.72.765-2.556.325-.891.746-1.735 1.194-2.567.484-.914.975-1.824 1.516-2.703.263-.428.533-.852.792-1.284.275-.459.526-.933.789-1.4.402-.716.85-1.404 1.29-2.096.38-.619.728-1.249 1.106-1.867.178-.292.367-.576.557-.86.154-.233.301-.486.495-.688.085-.09.228.042.139.132-.02.015-.035.035-.05.054-.197.241-.364.521-.534.786a19.58 19.58 0 0 0-.815 1.606c0 .008-.008.012-.008.016l-.008.019s0-.007.008-.007c-.035.077-.074.159-.108.237-.055.116-.105.229-.159.346-.348.751-.73 1.486-1.078 2.236-.414.946-.77 1.91-1.152 2.871-.194.478-.379.961-.553 1.443-.174.49-.352.98-.541 1.462-.193.483-.398.957-.6 1.432-.2.474-.417.937-.649 1.396-.228.451-.479.895-.715 1.342-.247.478-.502.957-.773 1.431-.19.335-.394.662-.599.984-.205.323-.387.658-.56.992l-.012.004Zm-11.376-14.224.023-.035.008-.008c.131-.198.27-.396.406-.595l.011-.019v-.008c.008-.012.012-.019.02-.027a.427.427 0 0 0 .042-.066c.209-.315.398-.638.595-.961.205-.335.418-.665.634-.992.035-.054.066-.101.093-.156l.008-.019s0-.012.004-.016l-.023-.151c-.024-.125.166-.152.189-.027a.77.77 0 0 1 .015.093.727.727 0 0 0 .016.089c.015.078-.008.152-.023.226-.047.179-.132.35-.209.517-.17.37-.336.743-.491 1.12-.155.374-.298.755-.448 1.128-.147.366-.313.72-.476 1.078-.131.288-.27.575-.425.852-.159.28-.325.556-.49.832-.155.257-.306.517-.465.774-.154.249-.305.502-.448.758-.228.432-.437.864-.653 1.3a.21.21 0 0 1-.186.116.218.218 0 0 1-.085-.019c-.104-.051-.135-.167-.093-.272.174-.424.352-.848.522-1.276.147-.366.29-.731.437-1.097.301-.743.58-1.501.947-2.217.162-.319.348-.626.545-.926 0 0-.004.008-.008.008l.008-.004Zm-1.5 15.232c.128-.319.255-.638.371-.957.078-.214.135-.428.201-.646.081-.272.197-.533.286-.801 0-.004 0-.008.004-.012.248-.751.46-1.517.696-2.271.286-.914.584-1.825.974-2.7.379-.844.932-1.591 1.457-2.349v-.004s.004-.008.008-.012l.081-.116v-.012c.352-.537.646-1.108.947-1.672.302-.568.592-1.14.878-1.716.58-1.163 1.124-2.341 1.724-3.496.139-.269.282-.533.421-.798.348-.645.704-1.283 1.082-1.91.375-.618.739-1.24 1.087-1.874v.004-.004c.038-.078.07-.148.1-.222.008-.019.015-.035.02-.054.042-.117.227-.059.185.058a2.721 2.721 0 0 1-.22.451c-.132.23-.26.463-.387.696a33.338 33.338 0 0 0-1.063 2.369c-.228.603-.48 1.198-.727 1.797-.266.638-.521 1.276-.78 1.918 0 .007-.008.019-.012.027 0 .008-.004.011-.008.015a69.338 69.338 0 0 0-.812 2.155c-.259.731-.533 1.455-.784 2.19v.027c-.406 1.268-.696 2.571-1.14 3.828-.12.346-.26.684-.433 1.007-.182.334-.41.646-.65.941-.406.506-.835.992-1.21 1.521-.15.218-.305.432-.456.653-.24.362-.483.732-.684 1.113-.197.393-.383.793-.607 1.175a.32.32 0 0 1-.41.12.328.328 0 0 1-.158-.432l.02-.007Zm4.059 3.745c.232-.521.448-1.05.692-1.567.224-.471.471-.934.695-1.408.248-.529.51-1.054.762-1.583.22-.459.46-.903.653-1.373 0 0 0-.012.004-.016v-.004c.201-.529.36-1.073.53-1.614.205-.642.402-1.287.626-1.921.213-.603.444-1.202.642-1.809.1-.311.197-.619.309-.926.139-.369.294-.735.448-1.097l-.062.152c.244-.572.507-1.128.8-1.672.26-.487.507-.977.766-1.463 0 .008-.008.016-.012.023.356-.657.72-1.318 1.098-1.96.363-.614.77-1.202 1.179-1.785.773-1.097 1.535-2.202 2.339-3.275.564-.751 1.078-1.533 1.588-2.318.248-.382.499-.767.758-1.144a8.47 8.47 0 0 1 .383-.521c.077-.09.158-.218.286-.237.123-.016.162.175.038.19h-.023l-.035.035c-.046.055-.089.105-.131.16-.116.167-.224.334-.329.505-.421.708-.811 1.436-1.202 2.163-.37.688-.742 1.377-1.055 2.092v-.007c0 .004 0 .007-.004.011-.209.487-.414.973-.626 1.459-.29.688-.537 1.385-.773 2.093-.24.719-.534 1.419-.785 2.139l.046-.136c-.29.828-.606 1.641-.939 2.45a16.449 16.449 0 0 1-.858 1.809c-.676 1.221-1.438 2.392-2.15 3.59-.355.599-.737 1.182-1.058 1.797-.279.533-.541 1.077-.862 1.583-.317.502-.657.988-.97 1.493-.004.008-.008.016-.012.02 0 0-.008.008-.008.012a36.552 36.552 0 0 1-1.144 1.975c-.093.148-.19.292-.282.44a9.444 9.444 0 0 0-.526.926c-.147.299-.286.603-.437.902a.173.173 0 0 1-.158.101c-.132 0-.275-.132-.205-.284h.004Zm-36.111-28.471a.426.426 0 0 1 .027-.066c.035-.028.073-.047.112-.074a3.687 3.687 0 0 0-.135.14h-.004Zm67.784 4.232a50.738 50.738 0 0 1 1.983-.701c3.502-1.069 6.757-2.913 10.247-4.08l.688-.256c.236.019.468.042.677.171.271.132.332.568.402.848-.07.194-.228.369-.387.497-.007 0-.011.008-.019.012a7.49 7.49 0 0 0-.537.237c-1.921.79-3.862 1.529-5.767 2.357-1.79.802-3.46 1.56-5.354 2.163-.607.202-1.075.397-1.716.611-.132.042-.286.085-.445.14a11.924 11.924 0 0 1-.224-1.183 5.016 5.016 0 0 0-.062-.645c.178-.02.36-.078.51-.16l.004-.011Zm-79.075 17.051c.143-.303.302-.595.464-.887a76.469 76.469 0 0 1 1.163-1.991c.263-.451.553-.883.843-1.319.15-.225.302-.455.456-.676.159-.226.317-.451.468-.681.015-.019.023-.039.035-.058a.113.113 0 0 1 .058-.152c.077-.035.143.004.166.062v.012a.222.222 0 0 1 .027.179 2.47 2.47 0 0 1-.116.338c-.085.202-.174.405-.263.611-.015.039-.035.078-.05.117 0 .007-.008.015-.008.019a16.11 16.11 0 0 0-.49 1.319c-.148.459-.283.917-.438 1.373-.293.855-.653 1.684-1.005 2.516-.286.681-.58 1.354-.947 1.995-.336.592-.73 1.152-1.078 1.743l-.016.027c-.003.008-.011.016-.015.027-.39.685-.719 1.405-1.106 2.093-.429.758-.912 1.482-1.403 2.202a.355.355 0 0 1-.29.159.335.335 0 0 1-.177-.051.35.35 0 0 1-.109-.47c.24-.397.48-.794.716-1.19.208-.354.402-.712.58-1.082.197-.431.374-.863.544-1.303.163-.412.329-.824.483-1.241.174-.458.345-.921.538-1.373.185-.435.363-.875.533-1.314.132-.335.267-.669.422-1l.015-.004Zm-15.55.378v.011c-.082.152-.163.3-.248.448a.472.472 0 0 1-.406.225.474.474 0 0 1-.181-.035.475.475 0 0 1-.263-.56c.174-.603.332-1.217.522-1.82v-.004c.127-.401.293-.798.51-1.159a6.409 6.409 0 0 1 .456-.654c.046-.074.104-.14.154-.206.058-.078.112-.159.167-.237.235-.342.456-.7.668-1.054.058-.097.116-.199.174-.3.031-.054.058-.109.082-.167.08-.202.413-.07.332.132-.12.308-.255.611-.383.911a27.77 27.77 0 0 0-.406.991v.008c0 .008-.003.012-.007.02v.015a9.377 9.377 0 0 0-.294.938c-.108.439-.193.882-.34 1.314-.07.202-.159.393-.248.588-.096.202-.19.404-.29.602v-.007Zm2.067 6.316c-.305.545-.568 1.12-.804 1.7-.174.424-.317.856-.456 1.287a.163.163 0 0 1-.158.113c-.1 0-.205-.078-.174-.202.112-.471.236-.937.398-1.392.15-.436.305-.868.456-1.303.147-.424.31-.841.44-1.268.132-.428.24-.864.352-1.296.31-1.272.51-2.567 1.006-3.784.266-.654.606-1.264.954-1.875.31-.545.634-1.085.982-1.61.267-.397.553-.786.823-1.179.279-.404.553-.813.812-1.233.26-.42.507-.848.77-1.26.247-.393.525-.77.73-1.19.02-.043.039-.082.054-.125.074-.167.332-.062.26.105-.043.094-.09.187-.132.284v.016c-.147.319-.298.634-.449.949a23.91 23.91 0 0 0-.943 2.26c-.147.408-.274.816-.379 1.237-.096.435-.162.882-.255 1.318-.1.471-.24.934-.39 1.389-.07.218-.143.435-.224.649-.12.311-.271.611-.426.907-.216.412-.452.816-.68 1.225.012-.02.02-.043.031-.062-.155.28-.317.556-.476.836v.008a53.952 53.952 0 0 1-1.028 1.746c-.367.579-.726 1.167-1.082 1.75h-.012Zm1.89 7.585a.436.436 0 0 1-.185-.043.424.424 0 0 1-.186-.56c.345-.743.685-1.482.967-2.252 0 0 .004-.016.008-.019 0-.012.007-.02.011-.032 0 .008-.008.02-.008.032a.178.178 0 0 1 .016-.043l.012-.031v-.008.008s.007-.016.007-.024v-.008c.02-.054.039-.105.054-.159a.19.19 0 0 1 .016-.043c.004-.019.011-.035.015-.054.016-.047.027-.09.047-.132.015-.047.027-.09.042-.133.217-.696.398-1.392.565-2.096.177-.759.367-1.513.599-2.252.263-.829.603-1.622 1-2.392.152-.296.318-.584.472-.879.159-.308.306-.623.449-.938.178-.389.36-.778.556-1.159.174-.342.368-.669.569-.992.421-.684.82-1.384 1.237-2.069.208-.342.433-.669.645-1.007.186-.296.36-.599.53-.907.378-.684.75-1.369 1.12-2.057.38-.7.693-1.432 1.021-2.159.19-.42.406-.832.588-1.256.046-.113.085-.23.123-.346.1-.284.55-.133.441.151-.247.646-.572 1.257-.843 1.895v.011c-.185.455-.36.914-.556 1.365-.197.456-.406.907-.603 1.362l-.008.015v.004s0 .008-.004.012a23.44 23.44 0 0 0-.626 1.704c-.155.478-.305.964-.445 1.446-.146.502-.258 1.008-.398 1.513-.274 1.004-.672 1.965-1.012 2.949-.174.517-.345 1.034-.56 1.536-.179.42-.376.833-.561 1.245-.24.56-.488 1.112-.773 1.649-.29.533-.615 1.05-.924 1.571-.298.514-.596 1.027-.89 1.541-.313.54-.649 1.069-.939 1.625-.394.759-.784 1.517-1.237 2.241a.404.404 0 0 1-.344.179l-.007-.004Zm6.568 30.265c-1.075.175-2.184.49-3.259.155a.566.566 0 0 1-.065-.039c-.627-.494-.72-1.47-.712-2.229.124-.587-.243-1.4.29-1.824.627-.338 1.26-.719 1.921-1.034a21.58 21.58 0 0 1 1.13-.117c.274 0 .567-.047.784-.187a.875.875 0 0 0 .263-.046c1.828-.265 3.49-.467 5.388-.833 3.947-.7 7.97-.498 11.956-.319 3.317.21 6.8.662 10.1 1.327 4.716 1.081 9.308 2.617 13.904 4.115a145.063 145.063 0 0 0 17.252 3.815c3.12.44 6.204.28 9.269-.637 1.98-.619 4.468-1.517 5.095-3.734.641-3.843-4.422-4.349-7.167-4.03-2.466.408-4.924-.167-7.364-.556a86.253 86.253 0 0 0-4.885-.514c-2.799-.264-5.513-1.221-8.346-1.131-4.19.202-8.372-.253-12.361-1.584-4.52-1.271-8.833-3.228-13.375-4.445-5.84-1.525-11.99-.875-17.905-.101-1.693.233-3.405.455-5.114.171-.537-.105-1.012-.451-1.569-.455a.728.728 0 0 0-.166.023c-.34-.265-.65-.502-.808-.681-.367-.408-.31-1.042-.433-1.552-.162-1.182-.077-2.528.503-3.609.092.008.185 0 .278-.027 1.426-.541 2.984-.572 4.48-.825 3.154-.167 6.308.335 9.435.743 5.814.673 11.384 2.528 17.097 3.707 4.407.863 8.856 1.435 13.297 2.085 4.26.676 8.481 1.528 12.783 1.859 4.442.47 8.86 1.155 13.309 1.606 4.287.638 10.182.673 13.448 3.8 1.921 2.602 1.144 6.465.031 9.265-.893 3.225-4.337 4.372-7.225 5.146-4.68 1.439-9.667.992-14.484.626-2.605-.295-5.218-.575-7.796-1.062-6.18-1.415-12.203-3.457-18.357-4.986-1.69-.482-3.41-.817-5.137-1.116-3.077-.693-6.2-1.299-9.362-1.377-1.26 0-2.524-.082-3.785-.168-1.252-.081-2.504-.167-3.76-.167-.781 0-1.562.035-2.347.117-2.099.027-4.167.482-6.235.821l.004.004Zm38.863 25.449c.302-.537.804-.7 1.35-.7.544 0 1.093.151 1.553.272a.955.955 0 0 0 .526.148c.24.194.479.362.638.486.328.171.657.346.985.517.02.277.081.564-.023.825-.201.583-.796.996-1.35 1.28-.038.011-.076.019-.115.031a2.814 2.814 0 0 0-.49-.319c-1.164-.708-2.513-1.155-3.074-2.548v.008Zm9.617 7.238a2.276 2.276 0 0 0-.622-.4c-2.172-1.315-4.604.326-6.2 1.855-.77.848-1.334 1.871-1.933 2.843-1.086 2.05-1.105 4.427-.87 6.663.097.634 1.013.755 1.284.187.123-.261.096-.541.062-.821-.298-1.626-.097-3.302.475-4.846a.63.63 0 0 0 .568-.288c.61-1.015 1.291-2.007 2.13-2.847.827-.836 2.857-1.369 3.525-.097.228.455.402.945.484 1.446a25.53 25.53 0 0 0-.418 2.011c-.07.304-.035.545.066.716-.02.054-.043.105-.058.156-.503 1.338-.062 2.839-.012 4.231a12.883 12.883 0 0 1-2.072 8.725c-1.356 1.532-2.98 2.777-4.727 3.862-1.883.867-3.966 1.229-5.914 1.921 2.597-3.512 2.968-8.234 1.333-12.244-.854-2.641-1.43-5.504-.912-8.265.526-1.202.858-2.622 1.817-3.575 1.074-1.135 2.342-2.081 3.858-2.508.688-.277 1.364-.58 2.021-.93.572-.296.897-.899 1.454-1.21.796-.373 1.681-.673 2.57-.673.15 0 .302.008.452.028.371.019.886.322 1.369.513.015.195.038.393.065.587-.019.327-.004.658.058.984.02.113.07.214.136.3.054.397.089.793.077 1.194-.02.16-.043.319-.07.478l.004.004Zm-.135-5.62c-.622-.747-1.508-1.14-2.42-1.498.19-.369.39-.739.669-1.046a.747.747 0 0 0 .259-.233c.986.105 1.964.241 2.938.404-.252.249-.468.553-.646.786a5.05 5.05 0 0 0-.804 1.591l.004-.004Zm6.208 11.653.058.152a.719.719 0 0 0-.09.062c-.208.148-.366.393-.621.463-.735.206-1.411-.195-2.123-.311a1.238 1.238 0 0 0-.32-.039c-.151 0-.306.019-.46.043-.302.042-.6.081-.862-.035 0 0-.055-.063-.1-.129.019.024.034.047.053.07-1.318-2.221-.24-4.788-.185-7.18-.05-.723-.178-1.439-.263-2.139.035-.37.135-.735.27-1.078.26-.54.503-1.271.975-1.688 1.221-.925 2.96-.334 3.154 1.167-.584 1.953.537 3.796.645 5.741-.089 1.634-.734 3.295-.127 4.905l-.004-.004Zm10.711.121c-1.345.462-2.996.163-4.376-.059-1.132-.113-2.215.366-3.258.743-.267.097-.615.276-.955.276-.618-.54-.87-1.52-1.013-2.322-.108-1.373.48-2.676.356-4.068-.209-1.525-.897-3.19-.739-4.609.093-.152.124-.354.117-.564.204-.665.664-1.257 1.53-1.735.507.171 1.222.156 1.635.323.688.144 1.38.295 2.072.424 1.334.432 2.656.879 4.051 1.015.062.078.128.148.197.218.209.295.294.657.348 1.007.105.832-.112 1.657.016 2.486.309 1.96 1.642 5.266.019 6.865Zm-9.892-12.984c.023.008.047.012.07.02l-.035.035c-.011-.02-.023-.035-.035-.055Zm6.916.28a10.614 10.614 0 0 1-1.106-.155c-4.047-1.12-8.106-2.241-12.28-2.801-1.415-.14-2.822-.4-4.249-.424-1.488-.023-2.972.168-4.46.238-4.631.14-9.258.89-13.9.902-5.408.548-10.87.856-14.82-3.641-3.464-3.609-5.16-8.619-8.651-12.162v-.016c-.159-.447-.317-.883-.572-1.291-.48-1.183-.48-2.653.32-3.699.646-.953 1.74-1.397 2.826-1.642a27.453 27.453 0 0 1 5.845-.785c.286.046.506 0 .672-.097 1.071.073 2.138.147 3.193.171 3.487-.02 6.923.649 10.317 1.404 1.913.319 3.807.754 5.678 1.268 6.046 1.544 11.98 3.57 18.083 4.889 4.491.731 9.033 1.28 13.59 1.342 3.329.054 6.676-.179 9.83-1.323 1.705-.435 3.398-1.1 4.778-2.221 1.04-.847 1.902-1.925 2.288-3.232.847-2.092 1.434-4.341 1.249-6.616.035-4.527-3.722-6.472-7.607-7.289-2.861-.603-5.764-.972-8.67-1.268-3.56-.408-7.117-.848-10.665-1.334-2.602-.327-5.23-.436-7.812-.887-6.95-1.326-14-2.007-20.94-3.384-5.782-1.307-11.476-3.069-17.394-3.714-3.908-.572-7.862-.984-11.77-.234-.15.012-.301.035-.448.063 1.125-1.21 2.5-2.217 3.525-3.54 1.264-1.455 2.025-3.368 3.525-4.613.959-.486 2.022-.755 2.926-1.354l.182-.128v.008c.87 1.221 3.634-.506 3.421-1.844-.035-.688-.676-1.244-1.364-1.089 1.298-2.726 3.308-5.021 5.392-7.192 1.809-2.073 3.722-4.041 5.523-6.126a.688.688 0 0 0 .422-.179c.205-.28.39-.602.553-.953.842-1.019 1.546-2.154 2.38-3.177.654-.607-.255-1.587-.912-1.004-.212.234-.413.479-.603.731.113-1.236.035-2.493-.247-3.559.054-.058.112-.112.159-.175 1.731-1.637 4.41-2.442 6.73-1.839.579.241 1.159.536 1.538 1.054a.93.93 0 0 0 .143.089c-.047 1.852.49 3.715.99 5.473.58 3.263 4.963 7.818 7.143 10.432 5.921 6.872 15.94 15.663 25.38 15.92 2.706-.117 5.365-1.136 7.437-2.945 4.07-3.041 6.877-7.565 8.338-12.411 1.492-5.333 2.528-10.841 2.288-16.399a43.088 43.088 0 0 0 2.787-.206c.936-.097 1.09-.723.928-1.443.247-.093.495-.206.711-.253 1.129-.424 2.308-.793 3.448-1.221 3.085-1.291 6.297-2.727 9.443-3.936.545-.245 1.094-.471 1.67-.627.522 1.272.735 2.661 1.562 3.797.035.07.073.128.12.179.572 3.877 2.056 7.553 2.562 11.443.209 1.353.406 2.711.646 4.056.267 1.809.278 3.641.518 5.454.12 2.543.545 5.087.375 7.639.05.618-.526 2.139-.479 3.076-.824.347-1.663.642-2.552.809-.247.078-.595.109-.927.175-.437-1.361-.986-2.466-1.628-2.602-.811-.155-1.167 1.008-.398 1.311 1.484 3.135 2.018 6.702 1.844 10.156-.178 1.688-.607 3.36-1.09 4.986-.433 1.186-.966 2.334-1.511 3.466-.271.459-.661 1.112-.055 1.482a.679.679 0 0 0 .924-.245c.437-.763.793-1.576 1.152-2.377.085-.19.166-.385.248-.579.815-.008 1.631.054 2.435.198-.522 1.186-.862 2.443-1.106 3.718-.58 2.007-1.14 4.084-1.65 6.123-1.268 4.095-3.17 7.996-5.47 11.602-1.384 2.404-3.135 4.419-5.145 6.336-1.337 1.323-2.617 2.707-4.051 3.929-.421.311-.846.618-1.271.921a.816.816 0 0 0-.225.086c-.386.28-.777.552-1.186.797-3.383 2.035-7.333 2.801-11.148 3.633-3.139.626-6.455 1.222-9.675.86v.015Zm17.305 14.466c.089.91-.097 1.812-.135 2.718-.05 2.521.676 4.975 1.175 7.426.259 2.096-1.206 3.765-2.505 5.212-1.337 1.668-2.926 3.103-4.294 4.741-.306.276-2.119 2.649-1.577.945.838-2.579 1.039-5.453.347-8.098-1.364-4.103-5.237-7.184-5.31-11.731.023-.844.185-1.68.216-2.52.382.046.82-.02 1.252-.09.44-.07.878-.14 1.256-.085 2.679.47 4.5 4.554 4.349 7.059-.1.479.016 1.043.584 1.097.46.055.777-.385.753-.817.453-2.516-.27-4.34-1.72-6.359-1.619-2.657-3.9-4.773-5.856-7.165-.591-.894-1.221-1.832-1.395-2.909-.07-.288.007-.661.054-1.015 2.396 1.412 5.303 1.645 7.723 3.03 1.5.953 2.285 2.617 3.158 4.103.719 1.439 1.6 2.867 1.921 4.458h.004Zm23.158-29.896c-1.987 3.384-3.989 6.803-6.517 9.814-3.379 3.73-7.244 7.351-11.875 9.518-2.118.894-4.271 1.762-6.544 2.154a2.105 2.105 0 0 1-.406.074c-.019-.144-.042-.288-.042-.431.046-.37.359-.576.618-.802.506-.396 1.067-.7 1.635-.995.321-.168.824-.366 1.106-.658 2.396-1.221 4.576-2.929 6.637-4.617 2.01-1.668 3.602-3.811 5.678-5.394.599-.424.182-1.245-.387-1.245a.647.647 0 0 0-.378.124 8.806 8.806 0 0 0-.971.763c-3.637 3.741-7.437 7.468-12.238 9.657-1.298.615-2.705.876-4.105 1.125-.282-.156-.715-.102-1.055-.172-.46-.14-.932-.272-1.26-.68-.07-.234.151-.494.247-.704.244-.51 1.017-.607 1.349-.973.456-.124.913-.245 1.365-.361 1.291-.479 2.594-.914 3.858-1.459 2.497-1.163 4.777-2.769 7-4.395 1.647-1.358 3.081-2.941 4.604-4.43a29.539 29.539 0 0 0 5.33-6.725c2.138-3.365 3.854-7.013 5.141-10.786.704-2.431 1.303-4.889 1.96-7.332a.641.641 0 0 0 .502-.284c.395-.509 1.129-.778 1.747-.568.298 1.113-.239 2.139-.587 3.205-.522 1.68-1.291 3.31-1.573 5.053 0 .116.027.221.069.307 0 .389.12.712.58.813.352.047.731-.214.762-.584.065-.7.177-1.396.386-2.065.762-2.341 2.401-4.368 2.764-6.845.012-.129.019-.261.019-.389.781.653 1.21 1.711 1.485 2.703 0 .031.065.221.046.326a.67.67 0 0 0-.019.37c-1.133 3.073-2.014 6.216-3.39 9.253-.947 2.653-2.316 5.115-3.529 7.647l-.012-.012Zm11.577-4.146c-1.195.047-2.261-.494-3.174-1.229-1.476-1.038-2.396-2.968-2.18-4.784.023-.249.093-.533.081-.797.329-.969.638-1.945.978-2.914.642-1.874 1.369-3.839 2.18-5.678 1.562.61 3.155 1.135 4.836 1.361 3.437.591 7.932-.331 9.525-3.792.742-1.58.344-3.742-.634-5.212.784-.397 1.53-.895 2.215-1.51 1.492-1.287 2.883-3.22 2.485-5.297-.595-2.688-3.131-4.333-5.783-4.745 1.496-2.155.65-4.967-1.786-6.414-2.547-1.412-5.643-.914-8.244.163-.186.09-.372.179-.553.276.027-.455 0-.929-.008-1.233.023-3.076-.17-6.134-.483-9.195a38.531 38.531 0 0 0-.302-2.314c.039-.14.062-.292.078-.432.123-.863.552-1.563 1.248-2.096.464-.412 1.129-.393 1.709-.494 2.122-.315 4.198.735 6.153 1.525.445.287.886.587 1.33.91 2.088 1.462 4.21 2.87 6.196 4.473 1.276.875 2.621 1.637 3.928 2.454.641.51 1.279 1.019 1.913 1.536.251.152.499.308.742.463.228.42.789.786 1.106 1.074 1.09.883 2.168 1.785 3.255 2.676 3.026 2.866 5.74 6.246 6.671 10.412.495 2.295.932 4.679-.139 6.889-.089.408-.471.972-.688 1.505-.645.649-1.334 1.256-1.998 1.875-1.972 1.995-4.024 3.905-6.216 5.655-2.076 1.801-4.155 3.594-6.544 4.979-.356.217-.708.439-1.059.665-.321.093-.549.233-.654.424-.831.54-1.654 1.089-2.477 1.637-2.737 1.63-5.458 3.283-8.23 4.85-1.186.72-2.358 1.486-3.568 2.179a6.48 6.48 0 0 1-1.905.147l-.004.008Zm23.579 10.448c-.046.023-.085.058-.12.089-2.454.241-5.183-.533-7.263-1.614-2.076-.992-3.788-2.548-5.682-3.827-1.732-1.303-3.653-2.303-5.682-3.046-.356-.14-.715-.276-1.075-.408.162-.109.317-.222.476-.319.463-.238 1.001-.277 1.48-.479 1.89-.964 3.912-1.933 6.1-1.645 3.216.261 6.065 1.995 8.627 3.843 1.805 1.696 3.529 3.796 3.742 6.379a4.848 4.848 0 0 1-.603 1.023v.004Zm19.223-1.494c-.394.607-.939.972-1.539 1.42a.99.99 0 0 0-.201.12c-2.323.413-4.777.066-6.961-.828-1.57-.813-2.919-1.984-4.341-3.026-4.469-3.256-9.099-6.399-14.295-8.355-1.352-.49-2.744-.976-4.159-1.299 3.479-2.081 7.434-3.703 11.55-3.47 3.394.183 6.664 1.082 9.9 2.14 2.918.949 5.914 2.026 8.465 3.769.572.583 1.152 1.166 1.546 1.894 1.183 2.345 1.411 5.301.031 7.635h.004Zm21.113-4.745a5.294 5.294 0 0 1-.36.21c-3.119 1.649-6.683.665-9.822-.502-2.81-1.276-5.284-3.178-8.129-4.391-3.08-1.556-6.188-3.155-9.362-4.528-2.767-1.069-5.57-2.053-8.423-2.855-.703-.249-4.043-1.03-6.977-1.377.302-.136.611-.256.909-.404 1.735-.957 3.633-1.571 5.469-2.314 2.405-.872 4.739-1.642 7.337-1.793 2.246-.152 4.515.112 6.764.233.217.058.464.089.685.054 1.349.249 2.698.525 4.047.825 4.429.902 8.855 1.987 13.258 3.174.132.101.286.183.441.225 2.841 1.7 4.913 4.718 5.303 8.04.058 1.82.035 3.917-1.14 5.407v-.004Zm28.245-11.486c-.035.054-.066.113-.097.167-1.732 1.758-4.322 2.874-6.598 2.96-4.855.276-9.328-1.661-13.877-3.154-4.117-1.373-8.323-2.451-12.486-3.649-5.09-1.295-10.185-2.571-15.345-3.559-3.267-.653-6.606-1.233-9.954-1.283-1.647-.101-3.297-.152-4.94-.074 1.048-.809 2.169-1.509 3.286-2.213 4.031-2.338 8.616-3.528 13.154-4.399.746-.129 1.476-.362 2.234-.397a.624.624 0 0 0 .263-.066c10.591-.436 21.19 1.268 31.781 1.742 1.176.346 2.409.545 3.503 1.163 3.714 1.844 7.796 6.325 8.99 10.343.028.147.051.299.074.451a.692.692 0 0 0 .042.311c.066.552.086 1.108-.03 1.645v.012Zm7.626-25.52c-3.463 10.051-11.589 10.654-20.819 10.222-7.317-.451-14.6-1.221-21.921-1.641-6.691-.257-13.502-.354-20.046 1.272-.936.225-1.848.517-2.749.84.665-.739 1.237-1.54 1.62-2.454a17.01 17.01 0 0 0 .309-5.349c-.123-2.131-1.132-4.08-2.242-5.857-.518-.875-1.09-1.723-1.801-2.458-.456-.557-.897-1.117-1.357-1.661.371.062.742.12 1.114.179 2.334.424 4.684.066 7.019-.133a47.767 47.767 0 0 0 7.012-.894 49.884 49.884 0 0 0 2.273-.451 46.173 46.173 0 0 0 1.906-.319.67.67 0 0 0 .386-.226c3.023-.766 6.007-1.684 9.03-2.462 1.554-.342 3.108-.665 4.65-1.07 3.115-.824 6.243-1.707 9.397-2.458.05.012.108.016.166.016.383-.031.758-.105 1.14-.144 2.122-.156 4.21-.658 6.336-.794 1.65-.264 3.312-.435 4.982-.198 2.107.167 4.121.852 6.173 1.299.928.171 1.821.381 2.714.723.533.222.97.654 1.48.907a39.025 39.025 0 0 1 1.775 1.614c2.601 3.185 2.667 7.709 1.441 11.497h.012Z"/><path fill="#000" d="M175.904 31.245c1.601 4.022 1.458 8.444 1.778 12.695.074.895 1.384.81 1.353-.077-.27-3.999-.251-8.063-1.434-11.934-.815-3.547-3.131-1.454-1.697-.684ZM178.343 48.69c.943.404 1.403-.946.453-1.307-.944-.405-1.404.949-.453 1.306ZM93.122 24.01c-.587-.451-1.043.214-1.38.638-1.894 2.015-4.26 3.532-6.312 5.375-.48.424-.947.856-1.43 1.28-.279.241-.251.712-.008.965.251.268.7.26.955.007.7-.61 1.299-1.178 2.021-1.785 1.593-1.35 3.317-2.551 4.832-3.994a13.414 13.414 0 0 0 1.438-1.529.691.691 0 0 0-.116-.957ZM81.108 34.512a.684.684 0 0 0-.672.684c0 .374.309.677.68.677a.682.682 0 0 0-.008-1.361ZM164.146 80.393c1.128.35 2.242.731 3.386 1.03 3.51 1.105 7.128 2.055 10.835 2.082.301 0 .599 0 .896-.043.847-.19.607-1.45-.243-1.338-3.553.117-6.97-.727-10.363-1.781a117.186 117.186 0 0 1-4.086-1.245.685.685 0 0 0-.854.432c-.116.346.077.754.429.86v.003ZM160.848 79.176c.368 0 .692-.25.716-.638.019-.354-.267-.72-.634-.72-.368 0-.692.25-.716.638-.019.354.267.72.634.72ZM96.802 75.298c4.681.451 9.374.785 13.95 1.964.893.031.963-1.287.082-1.361-4.558-1.222-9.231-1.482-13.95-1.965-.89-.035-.963 1.284-.082 1.362ZM93.053 74.637c.367 0 .692-.25.715-.638.019-.354-.267-.72-.634-.72-.368 0-.692.25-.715.638-.02.354.266.72.634.72ZM54.75 82.665c1.31-.008 2.706.112 4.101.186 3.375.245 6.68.3 10.073.327.727.004 2.27.26 2.161-.879-.073-.354-.444-.615-.8-.525-2.002.117-3.95-.004-5.98-.035-2.787-.016-5.57-.311-8.353-.412a26.722 26.722 0 0 0-2.234.007c-.367.016-.653.366-.626.728.096.856 1.063.587 1.662.599l-.004.004ZM48.894 81.366a.677.677 0 0 0-.943-.168c-.433.25-.924.705-.56 1.23.54.79 2.044-.28 1.503-1.058v-.004ZM129.821 121.502c.027.369.382.646.738.611a.688.688 0 0 0 .607-.743 25.48 25.48 0 0 0-.263-2.354 222.908 222.908 0 0 0-.87-4.807 15.486 15.486 0 0 1-.185-1.638c-.058-.715.034-2.24-1.075-1.944-.487.179-.475.708-.336 1.124.135 3.302 1.183 6.445 1.384 9.755v-.004ZM130.033 125.555c-.015.362.282.708.65.708a.69.69 0 0 0 .703-.654c.016-.361-.282-.708-.649-.708a.69.69 0 0 0-.704.654ZM126.883 142.579c.147 1.008.228 2.035.259 3.05-.039.513-.008 1.163.645 1.198a.688.688 0 0 0 .704-.654c.027-.972-.07-1.944-.159-2.913-.119-.863-.243-3.415-1.642-2.571-.279.261-.271.673-.039.957.124.296.17.618.232.933ZM127.088 150.16a.689.689 0 0 0 .703-.653c.016-.362-.282-.708-.649-.708a.69.69 0 0 0-.704.653c-.015.362.282.708.65.708ZM106.605 136.251a.69.69 0 0 0-.824.525c-.197.467-.552.84-.858 1.233-2.168 2.7-4.886 5.002-8.225 6.045-1.79.614-3.912 1.287-5.853.918-.197-.035-.351-.063-.545-.094-.885-.081-1.024 1.225-.147 1.354.395.054.762.151 1.172.194 4.17.066 8.879-1.878 11.963-4.679.75-.696 1.469-1.494 2.161-2.264.615-.746 1.368-1.462 1.658-2.411.097-.358-.147-.735-.498-.821h-.004ZM87.738 144.411c-.368 0-.67.327-.661.697.007.373.32.665.692.665.37 0 .668-.327.66-.697a.687.687 0 0 0-.691-.665ZM59.327 172.852c-1.492-.338-2.903-.91-4.303-1.509-1.349-.455-2.636-.72-4.081-.988-.843-.14-1.67-.327-2.51-.482-.362-.07-.718.194-.78.556a.693.693 0 0 0 .553.786c1.654.338 3.324.598 4.967 1.003 1.759.405 3.374 1.369 5.145 1.778.657.264 2.002.466 1.855-.634-.089-.386-.48-.58-.846-.506v-.004ZM45.264 170.88c.43.809 1.755.051 1.326-.743-.429-.809-1.759-.05-1.326.743ZM69.4 154.769c-.603.028-1.249 0-1.937-.062a52.382 52.382 0 0 1-5.342-.657c-.042-.016-.166-.047-.197-.078a.68.68 0 0 0-.955-.023c-.977 1.532 1.922 1.567 2.81 1.73 1.25.21 2.505.308 3.77.405.63.051 1.26.07 1.89.047.514.046 1.055-.152 1.016-.759-.05-.544-.603-.669-1.055-.599v-.004ZM73.358 154.684a.687.687 0 0 0-.7.657c-.011.362.283.704.654.704a.684.684 0 0 0 .7-.657c.011-.362-.283-.704-.654-.704ZM107.084 188.399c.773-.319 2.791-.864 2.103-2.023-.228-.272-.688-.335-.955-.082-.135.125-.27.253-.433.343a58.326 58.326 0 0 1-4.994 1.874c-1.249.35-2.451.848-3.71 1.152-.488.062-1.075.287-.963.89.065.362.433.619.788.545 1.442-.288 2.803-.856 4.21-1.26 1.345-.397 2.644-.934 3.954-1.436v-.003ZM94.444 189.919c-.367 0-.657.362-.634.72.02.385.344.638.715.638s.657-.362.634-.72c-.02-.385-.344-.638-.715-.638ZM165.112 158.348c1.09-.899 2.64-2.12 3.599-3.085.634-1.019-.739-1.738-1.226-.641-1.789 1.415-3.529 2.952-5.261 4.453-.479.401-1.538.735-1.066 1.533.862 1.178 3.119-1.774 3.954-2.26ZM158.78 162.708c.92.191 1.288-1.603.352-1.781-.92-.195-1.283 1.61-.352 1.781ZM157.277 145.139c-.023-.696-1.102-.922-1.322-.156-1.245 1.015-2.652 1.821-4.125 2.447-.769.443-3.053-.035-2.887 1.229a.687.687 0 0 0 .796.533c.986-.191 2.022-.183 2.934-.65a17.094 17.094 0 0 0 3.185-1.793c.541-.432 1.438-.805 1.419-1.61ZM146.697 148.235a.71.71 0 0 0-.483.163.682.682 0 0 0-.236.475c-.023.354.263.723.634.723a.71.71 0 0 0 .483-.163.682.682 0 0 0 .236-.475c.023-.354-.263-.723-.634-.723ZM145.901 137.83a.706.706 0 0 0-.483.164.67.67 0 0 0-.236.474c-.023.354.263.724.634.724a.706.706 0 0 0 .483-.164.678.678 0 0 0 .236-.474c.023-.354-.263-.724-.634-.724ZM143.976 155.477c-.429 1.366 3.243 1.439 4.101 1.642.591.171 1.368-.148 1.152-.872a.682.682 0 0 0-.762-.451c-.637-.085-1.279-.183-1.921-.245-.796.016-2.118-1.112-2.574-.074h.004ZM240.801 138.853c-.518.055-.607.49-.63.918a14.46 14.46 0 0 1-6.158 5.679c-.456.202-.916.377-1.391.529-.487.082-1.083.323-.947.929.34 1.121 1.967.098 2.686-.128 2.849-1.252 5.176-3.493 6.877-6.083.398-.576.549-1.871-.437-1.844ZM228.768 146.286a.69.69 0 0 0-.7.657c-.015.362.282.704.654.704a.686.686 0 0 0 .699-.657c.016-.362-.282-.704-.653-.704ZM205.367 158.725c-1.342.016-2.652-.416-4.001-.432-1.218-.163-2.428-.42-3.63-.676-.591-.113-1.507-.619-1.789.21-.209 1.081 1.287.968 1.971 1.225 1.998.498 4.047.607 6.072.937.692.094 2.111.436 2.115-.645-.035-.362-.371-.662-.738-.615v-.004ZM192.313 156.224a.69.69 0 0 0-.7.657c-.015.362.283.704.654.704a.686.686 0 0 0 .699-.657c.016-.362-.282-.704-.653-.704ZM205.962 175.326c-.445.276-1.017.237-1.523.287-.866.028-1.72-.112-2.575-.241-.881-.12-1.093 1.179-.22 1.342.441.055.878.136 1.318.195.982.144 4.979.221 3.974-1.572-.271-.284-.692-.26-.97-.011h-.004ZM199.224 174.322c-.9-.113-1.283 1.19-.324 1.408.9.113 1.283-1.19.324-1.408ZM171.525 173.63c-.615-.3-1.253-.549-1.887-.813a.687.687 0 0 0-.893.342c-.146.331 0 .759.341.899 2.172.929 4.41 1.855 6.258 3.364.529.58 1.461-.093 1.094-.782-1.334-1.396-3.216-2.143-4.913-3.014v.004ZM166.403 171.133a.69.69 0 0 0-.7.657c-.015.362.283.704.654.704a.686.686 0 0 0 .699-.657c.016-.362-.282-.704-.653-.704ZM164.188 180.833c-.015.362.282.704.653.704a.687.687 0 0 0 .7-.657c.016-.362-.282-.704-.653-.704a.688.688 0 0 0-.7.657ZM211.791 123.066a16.818 16.818 0 0 0 2.942-1.342c2.249-1.183 4.259-2.762 6.064-4.547.402-.49 1.191-1.358.437-1.879a.683.683 0 0 0-.931.226c-.36.715-.994 1.209-1.585 1.723-1.747 1.649-3.777 2.898-5.945 3.967-.623.405-2.13.389-1.852 1.447.132.354.53.525.87.401v.004ZM208.525 123.085c-.646-.692-1.852.521-1.214 1.19.645.693 1.851-.521 1.214-1.19ZM182.012 114.855c-.847.622-1.914.719-2.869 1.104-.603.226-1.198.467-1.809.669-1.059.308-2.149.498-3.181.903a.687.687 0 0 0-.398.875c.298.743 1.071.323 1.6.144 1.701-.35 3.321-.957 4.948-1.552.785-.265 3.348-.755 2.656-1.988-.225-.311-.634-.354-.947-.152v-.003ZM171.266 118.017a.69.69 0 0 0-.7.657c-.015.362.282.704.653.704a.687.687 0 0 0 .7-.657c.015-.362-.282-.704-.653-.704ZM156.109 110.775c.967-.452 2.018-.755 2.838-1.467.703-.537-.085-1.618-.801-1.097-.927.786-2.156 1.039-3.204 1.618-.332.16-.445.607-.274.922.332.607.989.269 1.441.024ZM153.121 110.953c-.645-.684-1.901.545-1.248 1.218.645.681 1.902-.545 1.248-1.218ZM147.486 104.19c.904.147 1.202-1.537.27-1.673-.908-.144-1.198 1.536-.27 1.673Z"/></g><defs><clipPath id="a"><path fill="#fff" d="M0 0h246v233H0z"/></clipPath></defs></svg>