<svg xmlns="http://www.w3.org/2000/svg" width="174" height="224" fill="none"><g clip-path="url(#a)"><path fill="#E2FFB4" d="M105.851 56.208s0-.024-.004-.04c-.023.012-.047.028-.074.04h.078ZM94.582 48.598c1.778.027 2.925.195 3.626-1.814a.698.698 0 0 1 .112-.463c.02-.494-.007-.989-.042-1.487-.004-.226-.024-.506-.004-.77-.64-4.068.468-6.91 3.466-9.704 2.189-2.02 1.62-3.97 1.097-6.554-.302-2.892.17-5.87 1.313-8.54.244-.735.519-1.46.825-2.164.039-.163.12-.33.217-.494a23.102 23.102 0 0 1 1.813-3.285c.623-1.152 1.468-2.16 2.204-3.23-1.465.245-3.018.003-4.459-.265-1.212-.082-2.436.046-3.653.011v-.015c-.433.14-.813.697-1.216 1.086 1.356 1.456 1.801 3.48 1.162 5.858-.275 1.412-1.193 2.522-1.828 3.771-.376 1.04-.407 2.16-.515 3.254-.07.708-.186 1.97-1.162 1.83a.676.676 0 0 1-.306-1.183c.31-1.682.14-3.523 1.038-5.05.492-.75.964-1.529 1.278-2.366-.015.02-.027.04-.043.055-.995 1.082-2.564 1.432-3.974 1.148-1.069-.136-2.053-.623-3.114-.798-1.042-.011-2.103-.284-3.134-.116-.77.253-1.309.782-1.882 1.307-1.193 1.14-2.925 1.69-4.544 1.34-1.456-.227-2.998-.865-3.45-2.138-.164 1.795.243 3.581.646 5.321.29 1.059 1.03 1.9 1.507 2.869.662 1.315 1.27 2.681 1.572 4.133.496 1.927 0 4.005.698 5.877.825 1.697 1.673 3.422 2.308 5.208.655 1.238.938 2.635 1.62 3.869.6.946 1.63 2.312 2.827 1.467.844-.802 1.48-1.83 1.728-2.973.112-.405.371-.724.615-1.051.16-.308.287-.635.508-.907.015-.02.035-.035.054-.055.283-1.117.86-2.156 1.038-3.3.066-1.156-.093-2.46-.89-3.348-1.074-1.179-2.515-.755-3.243.545-.515.934-.767 1.985-1.061 3.005-.1.358-.527.537-.864.424-.364-.124-.52-.506-.422-.864.468-1.564.829-3.343 2.157-4.421.81-.635 1.953-1.004 2.944-.592 2.328.853 3.025 3.608 2.653 5.838-.197 1.063-.763 2.009-.999 3.056a.602.602 0 0 1-.058.311c0 .024-.012.047-.012.07-.22 1.939.008 3.896-.081 5.843a2.061 2.061 0 0 1-.074.463l.004-.012Zm-.255-18.29c-.368 0-.694-.264-.71-.646-.019-.358.276-.712.644-.712s.693.265.709.646c.019.358-.275.712-.643.712Zm1.421-5.538c-.186.74-.038 2.841-1.17 2.635a.684.684 0 0 1-.51-.814c.274-1.136.375-2.304.433-3.468.081-.829.298-1.63.488-2.44a.68.68 0 0 1 .81-.514.686.686 0 0 1 .51.814c-.36 1.241-.503 2.506-.56 3.79v-.003Z"/><path fill="#E2FFB4" d="M106.648 16.85c-.108.155-.213.357-.329.544-1.193 2.775-2.235 5.671-2.223 8.723.395-.203.898-.331 1.208-.452 1.499-.782 2.777-2.004 4.377-2.592.399-.132 1.298-.203 1.987-.043.748-.817 1.716-1.518 2.975-2.199.732-.564 1.088-1.463 1.174-2.366.085-.732.127-1.538.255-2.316a.817.817 0 0 1-.457-.25c-.6-.926-1.259-1.844-2.103-2.533-.283.03-.593-.144-.887-.257a1.826 1.826 0 0 0-.538-.059.681.681 0 0 1-.609.106 7.759 7.759 0 0 0-.759.276c-1.878.514-2.986 1.911-4.071 3.421v-.004ZM97.445 7.944c-.008-.031-.012-.058-.016-.086.29.775.845 1.429 1.484 1.927.02.027.035.055.054.082a2.25 2.25 0 0 1 .109-.09c.507-.482.976-1.12 1.696-1.269 1.224-.081 2.46-.042 3.692-.077 1.847.218 3.687.762 5.453.05a1.85 1.85 0 0 0 .182-.253c.113-.397.21-.798.283-1.203a2.286 2.286 0 0 0-.352-1.132c-1.526-2.374-7.108-1.082-9.517-.821-.326.011-.651.02-.977.02-.085.15-.193.283-.371.338-.868.677-1.798 1.156-1.743 2.428 0 .012.007.02.011.032 0 .019.008.038.012.058v-.004ZM83.764 12.175c-.717.02-1.414-.156-2.096-.362-.19-.043-.391-.094-.58-.05-.016.007-.028.015-.043.023a.636.636 0 0 1-.155.568c-.357.381-.818.805-.84 1.358.123.253.274.475.398.728.504.887.229 1.888.22 2.841.152.709.98.938 1.585 1.133 1.003.296 2.084.44 3.064-.02 2.026-1.066 2.7-2.961 5.454-2.448 1.03.098 2.084.05 3.068.425 1.8.677 4.144 1.101 5.213-.938.465-.475.546-1.137.67-1.768a.622.622 0 0 1 .09-.221c-.423-1.476-1.608-2.534-3.332-3.04-1.007-.471-1.793-1.359-2.82-1.771-.43-.07-.89-.261-1.324-.203-.237.086-.426.074-.59.21a.63.63 0 0 1-.259.106c-.592.829-1.336 1.549-2.207 2.07-1.678.907-3.634 1.215-5.512 1.359h-.004ZM109.631 69.487c-.024.008-.043.008-.066.012.058.047.12.094.178.14-.035-.05-.077-.097-.112-.151ZM135.378 27.981h-.171c.012.023.027.047.035.07.043-.023.089-.043.132-.066l.004-.004Z"/><path fill="#E2FFB4" d="M112.896 23.657c-1.239 1.269-1.801 3.016-2.072 4.737-.167.817-1.333.65-1.34-.117a1.016 1.016 0 0 1-.117-.362c-1.092-1.876-3.548-.424-4.233 1.059-.24.412-.364.88-.349 1.358a.697.697 0 0 1-.108.444c.011.276.015.552-.008.833-.271 3.39-4.207 4.799-4.9 8.021-.407 1.265-.326 2.6-.182 3.932a.71.71 0 0 1 .073.253c0 .124-.003.245-.003.37.248 2.156.48 4.277-1.116 6.071a.743.743 0 0 1-.34.253l-.063.074c2.072.798 4.141 1.592 6.26 2.285.732.335 1.584.681 2.138 1.276.058-.011.116-.027.17-.038 5.338-1.6 4.42.085 8.843 1 4.006.521 6.957-1.331 10.474-2.783 3.2-1.355 6.628-1.9 10.005-2.596 1.441-.417 2.847-1.207 3.92-2.23.942-.993 1.523-2.281 2.592-3.16 1.41-1.235 3.075-2.118 4.702-3.021 1.522-.84 3.258-1.191 4.792-2.013-1.038-2.202-2.057-4.48-3.483-6.457-.72-.95-1.553-1.767-2.39-2.565a.817.817 0 0 1-.577-.361c-1.061-.993-2.316-1.943-3.769-2.184-2.173.031-4.346.677-6.263 1.69-1.007.696-1.677 1.805-2.491 2.708-.379.237-1.073.775-1.688.985-1.484.961-3.432 1.28-5.152.81-.868-.191-.608-1.5.263-1.34 1.278.324 2.743.215 3.897-.435.12-.152.302-.265.5-.331.267-.21.511-.452.72-.736.841-.899.701-2.129.98-3.242 0-.46-.12-.942.147-1.358.566-.86 1.205-1.71 1.658-2.632.341-.665.852-1.424.67-2.199-.488-.914-1.7-.638-2.552-.798-1.697-.218-2.832-1.627-4.071-2.662-.694-.54-1.515-.88-2.356-1.117-1.069-.26-2.285-.265-3.106-1.105-.62-.576-1.212-1.184-1.867-1.717-.79-.623-1.933-.327-2.739.117-1.564 1.425-.736 3.978-1.561 5.78-.612 1.837-2.61 2.312-3.892 3.507l-.016-.004Zm15.796 4.305c.384-.514.779-1.032 1.058-1.612.29-.805.325-1.607.813-2.296.209-.296.492-.53.705-.821.507-.724 1.611.035 1.116.77-.229.347-.566.6-.791.946-.244.502-.313 1.07-.48 1.6-.225.74-.717 1.362-1.154 1.985-.415.498-.988 1.588-1.736.985-.584-.573.113-1.11.469-1.561v.004Zm-1.363 1.28c.805.401.135 1.724-.659 1.312-.802-.397-.139-1.724.659-1.312Zm-6.055 21.384c.853-.144 1.689-.413 2.503-.708 2.041-.946 3.993-2.273 6.228-2.698.872-.323 1.368.962.484 1.28-.65.16-1.297.324-1.925.565-1.723.7-3.273 1.818-5.051 2.382-.747.144-2.506 1.102-2.785-.027a.688.688 0 0 1 .546-.794Zm-1.204.257c.724.517-.047 1.654-.787 1.148-.724-.514.051-1.654.787-1.148Zm-.872-13.821c.19 3.098-2.572 6.048-4.958 7.69-1.987 1.316-4.408 1.818-6.465 2.959-1.398.825-2.537 2.028-3.645 3.137-.321.284-.612.735-1.092.7-.782-.042-.84-1.19-.128-1.409 1.116-1.082 2.169-2.253 3.452-3.145 2.072-1.447 4.628-1.899 6.797-3.175 2.735-1.398 7.809-7.906 2.108-8.587-.911.024-1.647.654-2.352 1.16-2.095 1.674-4.098 3.464-6.216 5.11-.291.23-.702.23-.957-.062-.233-.268-.229-.731.062-.961 1.181-.919 2.328-1.884 3.478-2.841 1.856-1.378 3.575-3.632 6.023-3.768 1.821.05 3.765 1.207 3.893 3.184v.008ZM95.121 61.991a.583.583 0 0 1-.082-.008v.012c.028 0 .051 0 .079-.004h.004ZM111.622 222.174c.066.008.135.012.201.02 0-.016-.004-.031-.008-.051-.062.008-.127.02-.193.031ZM166.121 208.015c-.36-.121-.573-.483-.557-.857.015-.358.232-.661.282-1.012.047-.583-.189-1.163-.461-1.662a4.096 4.096 0 0 0-2.525-2.113c-.318.047-.631.035-.949.019-.07.008-.143.024-.221.039-1.58.966-3.323 1.674-4.923 2.62-.101.082-.201.163-.298.249-1.166 1.109-2.259 2.296-3.452 3.375l-.046.058a.637.637 0 0 1-.476.525c-.225.187-.481.308-.795.288-.368-.042-.631-.401-.584-.763a.678.678 0 0 1 .515-.572c.077-.081.143-.171.217-.257.054-.077.116-.151.186-.221.352-.46.658-.954 1.03-1.398.809-1.004 1.848-1.759 2.94-2.425.833-.723 1.708-1.377 2.576-2.062 1.228-.826 2.649-1.553 3.842-2.394.899-.693 1.67-1.608 2.371-2.476a6.82 6.82 0 0 1 1.077-1.409c.062-.132.139-.264.228-.381l.039-.097c.407-1.37.108-2.814.058-4.173-.139-1.806.36-3.577.473-5.371.123-1.576.089-3.121.092-4.698 0-1.685.051-3.437-.085-5.106-.201-2.526-1.022-4.947-1.813-7.337a13.299 13.299 0 0 0-.213-.537c-.321-.366-.515-.88-.844-1.246-1.367-1.755-2.247-3.814-3.54-5.612-1.879-2.573-5.26-4.772-8.119-2.312-.217.229-.461.303-.674.28-1.786 2.499-3.223 5.352-3.459 8.45.469.697-.511 1.436-1.085.86-.724-.86.206-3.546.5-4.589.782-2.269 2.041-4.375 3.502-6.266 1.386-1.409 2.645-2.912 3.722-4.578 2.905-3.713 4.609-7.476 4.179-12.276-.178-2.175-.704-4.297-1.007-6.453-.348-2.067-.608-4.145-.918-6.216-.186-.179-.263-.471-.278-.735-.407-1.475-1.538-2.604-2.859-3.309 0 0 .008.004.012.008-1.608-.946-3.316-1.043-4.718.308-.012.007-.027.011-.039.019-.903 1.604-1.832 3.196-2.712 4.815-.674 1.463-1.057 2.841-1.487 4.347-.201.713-.391 1.433-.697 2.106-.147.307-.372.596-.728.646a.684.684 0 0 1-.767-.576.69.69 0 0 1 .263-.638c.868-2.266 1.251-4.725 2.39-6.858 1.267-2.316 2.626-4.581 3.963-6.854.689-1.203 1.274-2.484 2.13-3.581 2.014-3.418 1.987-7.45 2.622-11.249 1.023-4.865 5.113-8.4 3.409-13.767-.252-.875-.604-1.74-1.185-2.448-1.046-1.109-2.27-1.977-3.335-3.059-1.829-1.623-2.828-3.853-4.091-5.897-1.352-1.6-2.936-3.172-4.725-4.258a2.304 2.304 0 0 1-.488-.249 8.084 8.084 0 0 1-1.782-1.16c-.643-.79-1.445-1.37-2.479-1.49-2.754-.62-5.636-.958-8.228-2.126-1.828-.875-3.52-2.016-5.314-2.962-4.427-2.35-9.715-1.572-14.463-2.666a.904.904 0 0 1-.361.234c-.302.237-.464.572-.414.957-.167.907.407 1.666 1.061 2.219.837.782 1.867 1.308 2.932 1.7.237.121.488.18.713.277 3.068 1.012 6.05 2.176 8.673 4.114 1.507 1.148 2.75 2.6 4.172 3.846 3.482 3.25 8.742 3.304 13.158 2.432.864-.113 1.084 1.203.19 1.347-2.123.413-4.277.619-6.434.416-5.516-.494-7.375-2.677-11.086-6.285-1.728-1.499-3.8-2.57-5.899-3.441a78.86 78.86 0 0 0-3.072-1.098c-.012 0-.019 0-.031-.004l-.124-.046a87.912 87.912 0 0 0-3.017-.942 8.432 8.432 0 0 1-3.959-2.223c-.887-.778-1.503-1.817-2.173-2.783-.535-.79-.786-1.72-1.085-2.607-.441.039-1.003-.261-1.429-.292-3.56-1.032-6.457.498-5.59 4.542.14.514.33 1.043.581 1.526.225.323.45.646.678.965.984 1.031 2.015 2.04 2.72 3.293 1.1 2.004 1.967 4.164 2.626 6.356.403 1.467.468 3.098.345 4.589-.07.965-.214 1.93-.423 2.872-.116.65-.492 1.541-1.282 1.035-.596-.506.058-1.269.078-1.895.929-4.577-.182-7.364-2.057-11.443-.724-1.635-2.073-2.795-3.184-4.134a.808.808 0 0 1-.112-.09 6.695 6.695 0 0 1-.48-.723c-1.41-2.098-2.91-4.25-3.088-6.846 0-.012 0-.024-.004-.036-.116-.16-.236-.311-.321-.49-.713-1.518-2.657-1.872-4.18-1.748-.251 0-.511.012-.767.043a24.811 24.811 0 0 1-.93.207c-.491.175-.933.455-1.254.918-.078.109-.16.218-.24.33-.21 1.052-.334 2.134-.895 3.076-.953 2.355-1.135 4.328.46 6.437.52.662 1.085 1.304 1.415 2.087.608 1.463.2 3.238-.698 4.476-.372.494-.953 1.097-1.627.887-.751-.253-.573-1.42.237-1.362 1.231-1.207 1.379-3.273.166-4.542a9.56 9.56 0 0 1-1.507-2.324.653.653 0 0 1-.329-.463c-.209-.424-.678-.502-1.088-.596-.84-.408-1.786-.202-2.634.055-.504.132-.93.37-1.375.56a.707.707 0 0 1-.388.168c-1.987 1.545-4.09 2.958-5.771 4.834-1.58 1.989-2.661 4.752-1.774 7.259.422 1.117 1.6 1.568 2.487 2.245 1.115.666 2.444.14 3.652.121a.688.688 0 0 1 .717.638.686.686 0 0 1-.635.72c-1.007.043-1.829.273-2.8.2-1.496-.102-2.743-1.239-3.867-2.138-2.196-2.565-1.173-6.671.643-9.174 1.697-2.53 4.474-3.997 6.717-5.974 1.646-1.102 2.882-2.694 3.765-4.441.132-.226.33-.728.581-1.32a3.89 3.89 0 0 1-.275.292c-2.448 2.57-6.116 3.22-8.742 5.527-1.066.86-1.682 1.903-2.623 2.834-.627.587-1.386 1.039-2.142 1.436A.683.683 0 0 1 67 74.62c-.418-.872.76-1.117 1.279-1.514.743-.47 1.351-1.105 1.859-1.821 1.057-1.312 2.397-2.351 3.811-3.25 2.065-1.156 4.366-1.911 6.136-3.554.62-.483 1.007-1.136 1.402-1.79-.263 0-.527-.008-.794-.02-1.913.86-4.129 1.063-6.116 1.728a20.993 20.993 0 0 0-6.934 3.476c-1.258.856-2.308 1.95-3.33 3.067-1.229 1.277-2.623 2.27-3.39 3.846-.504 1.16-.77 2.42-1.422 3.514-.48.872-1.208 1.565-1.782 2.367-.468.716-.782 1.518-1.088 2.312-1.336 4.682-2.417 8.333-6.992 10.793-1.282.677-2.676 1.12-4.024 1.646-.535.199-1.32.635-1.642-.097-.136-.335.027-.76.375-.884.732-.268 1.46-.54 2.185-.817 2.026-.673 3.99-1.79 5.45-3.347 1.208-1.246 1.782-2.931 2.398-4.52.662-2.054 1.084-4.25 2.355-6.04 1.007-1.206 1.89-2.296 2.331-3.799.055-.241.128-.47.202-.696a.705.705 0 0 1 .12-.417c.143-.405.33-.794.476-1.195.33-1.21.48-3.117-.96-3.62-.779-.151-1.433.11-2.193.168a.704.704 0 0 1-.182-.012c-2.285.845-4.648 1.557-6.298 3.414-1.39 1.553-.817 4.53.345 6.068.976.342.65 1.662-.349 1.362-1.84-.919-2.316-4.188-2.08-6.053.926-4.448 6.252-5.133 9.715-6.815a18.004 18.004 0 0 0 3.94-2.506c2.075-1.35 4.326-2.538 6.75-3.102a1.363 1.363 0 0 0-.073-.837.481.481 0 0 0-.081-.23c-2.08-.07-4.172-.109-6.217.382-1.612.435-3.324.544-4.834 1.303-2.077 1.16-3.765 2.927-5.981 3.865-2.897 1.53-5.45 3.616-8.274 5.27-1.421.938-2.858 1.853-4.183 2.931-1.445 1.195-2.642 2.464-4.183 3.484-1.538 1.117-2.805 2.304-4.191 3.51-2.317 1.853-4.366 3.967-5.656 6.656-1.332 2.53-1.193 5.395-.81 8.139.253 2.705.725 5.383.996 8.084.492 5.776.864 11.669.326 17.441-.47 4.476.248 8.956-.09 13.424-.286 3.612-.747 7.224-.743 10.848.155 1.829.635 3.627.697 5.468.112 2.795-1.79 5.181-2.254 7.87-.395 1.771-.21 3.577-.008 5.36.046 2.129.236 4.273.074 6.399-.465 3.063-2 5.85-2.743 8.85-1.015 3.387-1.375 6.936-2.502 10.291-.922 2.464-2.041 4.862-3.451 7.084-.802 1.405-1.441 2.896-2.363 4.231-1.228 2.024-2.952 3.639-4.563 5.344-1.375 1.627-2.847 3.188-4.621 4.386 1.964.191 3.42 1.608 4.88 2.853a.796.796 0 0 1 .155.117c.012.012.016.024.024.031.178.152.356.3.538.44 1.817 1.514 3.877 2.69 5.969 3.772 2.068 1.062 4.512 1.311 6.767 1.405 1.828.101 3.664.163 5.496.066 5.384-.405 10.788-.451 16.176-.829 5.5-.206 11.008-.599 16.513-.444 5.333.191 10.586 1.335 15.923 1.514 5.133.265 10.273.72 15.37 1.149 5.799.225 11.528-.541 17.276-1.106 2.735-.261 5.419-.973 8.169-1.035 2.673-.027 5.295.576 7.921.996 2.286.319 4.602.296 6.903.308 3.296-.195 6.596-.572 9.869-1.004a59.686 59.686 0 0 1 9.978-2.048c3.32-.506 6.663-1.066 10.021-.611 3.967.109 7.794-.572 11.717.07-.399-2.576-1.146-5.048-2.494-7.278-.697-1.561-2.266-2.242-3.858-2.437l-.016.02Zm-14.68-5.013c.79-.806 1.658-1.518 2.51-2.258 1.294-1.109 2.688-2.098 3.873-3.336.454-.443.918-.875 1.345-1.342.247-.273.704-.257.96-.004.775.837-1.069 1.876-1.538 2.495-1.444 1.475-3.16 2.635-4.69 4.013-.523.447-1.015.899-1.496 1.389a.683.683 0 0 1-.96.004.687.687 0 0 1 0-.965l-.004.004Zm-5.543-83.986c.759-1.312 1.379-2.655 1.929-4.037.554-1.233.926-2.51 1.019-3.864.228-1.88.867-3.675 1.231-5.527a.685.685 0 0 1 .756-.592c.941.179.484 1.273.341 1.903-.291 1.133-.593 2.266-.833 3.41-.233 1.203-.24 2.456-.651 3.62-.441 1.148-.864 2.335-1.425 3.429a27.22 27.22 0 0 1-1.383 2.685c-.318.533-.632 1.588-1.433 1.172-.849-.592.193-1.534.449-2.195v-.004Zm-1.917 2.662c.596-.09.817.51.836 1.004.12.88-1.2 1.078-1.34.199-.135-.487-.101-1.102.504-1.203Zm-11.408-41.872c-2.215-1-4.346-2.281-5.942-4.15-.387-.326-.898-.684-.538-1.245.879-1.133 2.254 1.39 3.076 1.818 1.22.973 2.595 1.708 4.009 2.355.79.4.193 1.607-.601 1.222h-.004Zm2.317.039c-.182-.9 1.336-1.172 1.503-.284.182.899-1.333 1.175-1.503.284ZM53.988 73.39c.318-1.385 2.882 0 2.99.989.314.786-.379 3.3-1.506 2.713-.907-.635.403-1.456.232-2.242-.1-.475-.709-.63-1.13-.689-.369-.035-.628-.413-.582-.767l-.004-.004Zm-1.77.187c.368 0 .678.315.674.685 0 .374-.31.677-.681.677a.683.683 0 0 1-.675-.685c0-.373.31-.677.682-.677ZM29.23 87.294c.907.008.895 1.573-.02 1.553-.91-.007-.894-1.572.02-1.553Zm.496 20.711c.228.774.031 1.63.14 2.428.139 2.075.635 4.118.615 6.205.027 1.63-.155 3.253-.155 4.884-.019.892-1.332.907-1.355.012.011-2.043.255-4.083.12-6.13-.267-2.285-.678-4.581-.624-6.897-.29-.81.91-1.3 1.259-.506v.004Zm.21 16.631c0 .37-.307.685-.675.685a.688.688 0 0 1-.682-.677c0-.37.306-.685.674-.685.368 0 .678.303.682.677Zm-3.293 84.247c-.515-.927.925-1.553 1.232-.537a.23.23 0 0 0-.016-.055c-.008-.019-.02-.039-.027-.062.434.809-.748 1.471-1.193.654h.004Zm3.482-5.792a8.797 8.797 0 0 1-1.255-.58.621.621 0 0 1-.263.074c-.961.008-1.685.732-2.286 1.401a1.19 1.19 0 0 1-.375.681c-.016.666.19 1.312.7 1.822.496.732-.604 1.491-1.123.763-1.813-1.997-.786-5.2 1.248-6.625.011-.035.027-.066.038-.101-1.824-3.476 2.685-7.936 3.572-6.34.38.77-.713 1.09-1.112 1.455-.508.425-.93.95-1.19 1.565-1.072 2.433.485 3.865 2.65 4.663.794.405.205 1.592-.6 1.222h-.004Zm12.1-126.516c-.267.83-1.018 1.366-1.63 1.93-.542.48-1.05.993-1.6 1.468a570.27 570.27 0 0 1-4.38 3.74 112.77 112.77 0 0 1-2.766 2.51.68.68 0 0 1-.957-.026c-.248-.265-.252-.716.023-.962.624-.576 1.274-1.117 1.894-1.693 2.623-2.522 5.69-4.597 8.104-7.31.228-.883 1.541-.552 1.313.343Zm76.61 21.05c.368 0 .693.248.717.638.023.354-.268.72-.636.72s-.693-.25-.716-.639c-.023-.354.267-.72.635-.72ZM98.89 76.994c1.189 1.02 1.247 2.799 1.638 4.227.403 2.048 0 4.153-.143 6.205-.147.723.159 2.288-.938 2.241-1.018-.206-.36-1.494-.426-2.175.144-1.732.345-3.29.322-4.99-.124-1.238-.45-2.448-.81-3.635-.108-.284-.201-.611-.465-.787-.697-.544.113-1.615.822-1.085Zm-.117 15.203c-.801-.626.062-1.77.83-1.105.793.619-.059 1.779-.83 1.105ZM71.923 81.95c-.357-.844.898-1.382 1.247-.537.356.845-.899 1.378-1.248.537Zm3.18-4.297c-.632.584-1.46 1.082-1.685 1.97-.113.358-.477.58-.833.478-.864-.284-.368-1.276-.047-1.817.55-.802 1.372-1.382 2.104-2.009.984-.786 2.049-1.46 3.118-2.125a1.12 1.12 0 0 0 .438-.463.681.681 0 0 1 .93-.233c.778.533-.028 1.475-.597 1.813-1.186.736-2.36 1.491-3.432 2.386h.004Zm-19.81 95.34c-.367 0-.654-.37-.63-.724.023-.389.352-.635.72-.635s.654.37.631.724c-.023.389-.352.635-.72.635Zm17.152-12.841a147.468 147.468 0 0 1-3.64 4.741c-1.198 1.234-1.964 2.818-3.208 4.005-1.061.794-2.11 1.413-3.346 1.826-.748.229-1.507.439-2.259.661-.344.105-.736-.05-.863-.416-.117-.339.062-.763.418-.868 1.189-.382 2.452-.6 3.552-1.215.507-.299 1.003-.564 1.468-.891.995-.841 1.557-2.071 2.41-3.044 1.486-1.724 2.83-3.522 4.182-5.34.539-.537 1.34-2.296 2.212-1.595.732.786-.565 1.494-.925 2.14v-.004Zm36.225 32.395a1.971 1.971 0 0 1-.604.529c-.074.074-.147.144-.221.222-1.348 1.491-2.87 3.021-3.502 4.971-.275.992-.333 2.012-.375 3.036-.012.369-.361.657-.721.634a.686.686 0 0 1-.631-.724c.031-.821.081-1.639.221-2.452.186-1.172.705-2.246 1.367-3.219-1.344-1.206-3.285-1.494-5.028-1.506a9.843 9.843 0 0 0-2.25.342c-.597.144-1.51.732-1.84-.105a.691.691 0 0 1 .418-.868 11.827 11.827 0 0 1 2.898-.685c1.425-.132 2.87.028 4.241.444a.62.62 0 0 1 .232-.144c.519-.117 1.097.019 1.596-.019.771-.067 1.538-.281 2.173-.732.198-.129.434-.203.643-.315.124-.109.252-.215.376-.32a.729.729 0 0 1 .174-.14c2.286-1.759 4.893-2.183 8.247-.288.36.074.6.44.531.802-.182.755-.992.572-1.484.245-2.227-1.273-4.544-1.226-6.442.253-.007.008-.011.02-.015.027l-.004.012Zm1.968 3.379c-.616-.658.469-1.659 1.073-.993.616.658-.465 1.658-1.073.993Zm8.076 1.097h.008l-.051-.004h.039c-.55-.085-1.026-.42-1.503-.693-1.224-.521-2.541-.879-3.865-.708-.888.062-1.019-1.249-.132-1.354 2.026-.257 3.951.467 5.686 1.412.852.176.655 1.425-.182 1.347Zm8.812-57.869c-2.506 3.301-5.051 6.574-7.882 9.602-2.39 2.678-4.404 5.675-6.868 8.29-1.627 1.709-3.23 3.519-5.218 4.811-1.936 1.113-4.334.841-6.476.689-1.689-.183-3.385-.249-5.082-.346-1.743-.113-3.475-.339-5.225-.207-2.166.164-4.494.358-6.442-.794-1.58-.996-2.634-2.619-3.904-3.954-.705-.576-1.503-1.032-2.135-1.693-1.138-1.277-2.072-2.729-3.431-3.799-.504-.393-1.073-.887-1.76-.763-.902 1.141-1.626 2.394-2.315 3.667-1.372 2.21-2.646 4.479-3.978 6.714-2.146 3.522-6.31 4.729-10.157 5.094-2.521.148-5.043.335-7.568.168-1.662-.039-2.68-.035-2.332-2.071.015-2.401.26-4.779.488-7.165.077-4.648.604-9.264 1.115-13.88.074-1.269.659-2.464 1.794-3.094 1.332-.806 3.188-.413 4.253-1.717-1.046-.393-2.204-.327-3.238-.763-1.616-.657-2.692-2.171-3.277-3.771-1.147-2.223-1.248-4.737-1.422-7.181-.201-2.639-.201-5.286.143-7.909.012-.37-.015-.814.268-1.09.275-.265.635-.307.995-.335a30.62 30.62 0 0 1 2.227-.097c3.793.105 7.654-.214 11.427-.401 4.017-.377 6.407-.841 8.622 3.188 1.011 2.152 1.484 4.519 2.363 6.726.314 1.062.271 2.292 1.058 3.156 1.092 1.351 1.983-.444 2.641-1.277.67-.883 1.228-1.798 1.759-2.763.941-1.872 2.072-3.639 3.172-5.422.942-1.366 1.898-2.876 3.417-3.643 3.745-1.627 7.925-2.043 11.969-2.254 3.006-.159 6-.389 9.006-.517a.648.648 0 0 1 .364-.113c.987.039 1.874.607 2.7 1.101l-.008-.003c2.487 1.681 5.113 3.168 7.355 5.188 1.104 1.125 2.348 2.074 3.521 3.118 1.186 1.202 2.301 2.483 3.549 3.627 2.339 1.985 3.892 4.647 5.113 7.43.952 1.857.751 2.9-.601 4.449v.004Zm-.399-32.632c-.449.405-1.398.564-1.569-.195-.069-.362.171-.736.535-.802.81-.428 1.054-1.852 1.239-2.705.52-2.946-2.494-4.596-5.07-4.246a.687.687 0 0 1-.716-.638c-.024-.362.267-.709.635-.72.821-.028 1.642-.028 2.452.14 1.413.284 2.638 1.222 3.435 2.409 1.279 1.985.609 5.103-.937 6.761l-.004-.004Zm15.254 65.4c-.043-1.097-.415-2.164-.36-3.269.31-3.266 1.425-6.422 3.052-9.252a21.016 21.016 0 0 1 2.297-3.503c.391-.533.871-1.035 1.092-1.67.252-.848 1.526-.521 1.309.351a3.8 3.8 0 0 1-.48.996c-2.626 3.32-4.807 7.08-5.647 11.28-.12.72-.279 1.451-.275 2.183.062.962.352 1.896.368 2.861-.004.887-1.321.915-1.356.016v.007Zm1.228 2.62a.689.689 0 0 1-.686-.674.682.682 0 0 1 .67-.688c.372 0 .682.299.686.673a.683.683 0 0 1-.67.689Zm5.736 31.706c-.027.369-.402.634-.755.591-.631-.078-.627-.755-.55-1.249.027-.37.403-.635.755-.592.632.078.628.755.55 1.25Z"/><path fill="#A4D357" d="M124.811 131.288c-1.464-2.156-3.606-3.713-5.311-5.663-.925-1.075-2.041-1.935-3.126-2.834-.937-.907-1.882-1.81-2.939-2.576-.957-.798-2.03-1.425-3.092-2.075-1.309-.891-2.471-1.818-3.916-2.417-.17.086-.375.074-.557.023-.357-.054-.818-.027-1.108-.011-2.371.198-4.722.241-7.065.436-3.862.159-7.902.506-11.567 1.77-1.739.456-2.854 2.102-3.784 3.48-.906 1.483-1.867 2.943-2.68 4.484-.701 1.358-1.465 2.689-2.386 3.908-.802 1.121-1.991 2.868-3.572 2.144-1.537-.654-2.169-2.351-2.335-3.907-.442-1.557-1.046-3.071-1.507-4.624-.52-1.873-1.348-3.741-3.002-4.811-2.313-.782-4.85.062-7.232.015-2.006.102-4.013.176-5.988.32-1.89.042-3.789-.109-5.675.066-.368 2.954-.337 6.072-.07 9.01.128 1.394.19 2.822.64 4.157.704 1.783 1.405 3.97 3.424 4.601.848.249 1.743.26 2.583.529 1.387.315 1.856 1.436.732 2.452-.91.961-2.196 1.32-3.466 1.495-.996.167-1.953.86-2.034 1.934-.248 1.635-.298 3.293-.57 4.924-.375 3.328-.515 6.671-.654 10.014-.302 2.351-.395 4.714-.484 7.08 1.406.098 2.82.156 4.23.117 4.532-.214 9.939-.179 12.964-4.118 1.557-2.289 2.773-4.795 4.288-7.115.593-1.059 1.166-2.125 1.875-3.11.414-.607.852-1.366 1.68-1.374 1.438-.116 2.55.981 3.518 1.896 1.166 1.031 1.906 2.448 3.064 3.479 3.842 2.414 3.881 6.197 9.343 5.749 3.765-.377 7.522.183 11.287.354 2.824.25 5.915.755 8.049-1.564 3.889-3.394 6.872-7.73 10.21-11.611 2.03-2.288 4.071-4.503 5.857-6.982.914-1.386 2.328-2.6 2.956-4.122-.035-.716-.419-1.366-.701-2.009-.57-1.202-1.163-2.397-1.887-3.514h.008Zm-14.072 8.516c-.233 1.113-.341 2.261-.686 3.347-1.119 3.355-3.622 5.975-6.93 7.131-1.491.763-3.141.883-4.772.591-3.2-.253-6.46-.899-9.2-2.662-.99-.576-2.04-1.277-2.354-2.456-.202-1.101-.899-1.958-1.356-2.946a10.492 10.492 0 0 1-.748-3.39 6.98 6.98 0 0 1-.949.276c-1.034.249-2.107.198-3.153.385-.883.074-1.045-1.23-.158-1.354 1.518-.222 3.09-.164 4.497-.872 1.003-.514 1.905-1.347 2.99-1.666-.155-.821.02-1.623.372-2.374.786-3.083 3.226-4.391 6.023-5.329.794-.408 1.472-1.054 2.344-1.311a6.595 6.595 0 0 1 2.134-.288c3.277 0 6.53 1.269 9.044 3.367.33.311 1.042 1.008 1.41 1.673.585.44.988 1.098 1.387 1.721.325.556.763 1.07.906 1.708.14 1.514-.55 2.978-.809 4.449h.008Z"/><path fill="#E2FFB4" d="M72.163 49.36c-.864-.844-1.82-1.614-2.843-2.171-2.255-1.133-5.156-1.168-6.845-3.27-.6-.642.345-1.587.972-.953 1.344 1.642 3.614 1.845 5.485 2.553.151.055.299.113.442.18a.674.674 0 0 1 .306-.02c.639.222 1.313-.339 1.809-.7 1.03-.783 1.053-2.32 1.177-3.469a.86.86 0 0 0 .012-.14c-.035-.292-.066-.584-.1-.872-.43-1.961-1.097-3.904-2.089-5.647-.383-.565-.898-.95-1.394-1.39-.833-.802-1.766-1.494-2.84-1.942-.86-.3-1.754-.518-2.548-.977-.848-.463-1.542-1.148-2.243-1.802-.271-.253-.24-.712.012-.961.275-.269.69-.242.957.011.666.62 1.328 1.265 2.146 1.678 1.007.49 2.153.638 3.11 1.25.705.369 1.352.828 1.917 1.385 1.127.93 2.115 1.814 2.638 3.168.752 1.662 1.425 3.503 1.716 5.282v.004c.09.218.105.502.09.798.127 1.187.266 2.424.522 3.534.066.342.112.692.151 1.043.457 1.514 1.1 3.2 2.468 4.06 1.998.307 1.677-2.153 1.576-3.45-.538-1.447-.972-2.91-.914-4.48-.012-1.05.445-2 .705-2.996.724-2.822-1.441-5.052-2.553-7.423-1.065-2.199.082-4.69-.321-6.994-.453-2.534-1.468-4.853-2.262-7.267-.384-1.37-.83-2.72-1.217-4.09-.29-1.483-1.01-2.892-2.448-3.523-1.08-.67-1.944-1.689-2.525-2.81-.248-.416-.752-.533-1.193-.63-2.038-.386-4.296-1.316-6.225-.078a47.09 47.09 0 0 1-2.766 1.942c-.422.358-.627.887-.925 1.339-.45.7-1.24 1.05-1.91 1.498-1.073.545-2.328.32-3.49.386-1.294.152-2.595.23-3.877.444 1.743 2.288 2.626 5.06 2.58 7.936-.05 2.168.243 4.3.844 6.379.678 2.787 1.352 6.091 3.811 7.835 1.46 1.047 3.161 1.646 4.877 2.012 1.472.288 2.979.592 4.238 1.46 1.727 1.136 3.153 2.654 4.458 4.246.318.284.31.818-.035 1.075-.31.23-.713.147-.949-.14-1.743-2.071-3.738-4.368-6.457-4.983-1.766-.366-3.544-.735-5.183-1.53-4.195-1.735-5.368-6.281-6.244-10.337-.678-2.059-.643-4.204-.743-6.333a1.044 1.044 0 0 1-.318-.525c-.318-.381-.782-.658-1.251-.81-1.964-.482-3.684.97-4.861 2.375-.341.381-.527 1.171-.95 1.498-.139.296-.286.592-.449.876.71.751 1.526 1.409 2.17 2.222 1.18 1.433 2.018 3.106 2.947 4.706 2.24 3.71 3.742 7.85 6.527 11.221 2.785 3.02 6.1 5.613 9.928 7.142.984.335 2.064.79 3.044 1.043 1.368.25 2.723.538 4.025 1.032.492.21 1.01.393 1.51.603a.708.708 0 0 1 .337.016c.179.043.368-.027.547-.059.724-.136.925-.813.918-1.46h-.004Zm-1.058-21.982c-.391-.304-.685-.86-.248-1.261.28-.257.698-.222.957.042.976.674.205 1.943-.709 1.219ZM69.684 16.39c1.499 2.09 1.723 4.694 2.208 7.142.178.868-1.124 1.16-1.325.288-.446-2.152-.612-4.382-1.759-6.317a2.362 2.362 0 0 0-.352-.455c-.655-.927.685-1.635 1.228-.658Zm-16.141 8.037c-.337.121-.748-.062-.864-.412-1.216-2.76-.608-5.967-2.1-8.598-.046-.074-.088-.152-.146-.218a.69.69 0 0 1-.214-.938c.736-.922 1.562.362 1.833 1.043 1.034 2.149.925 4.55 1.417 6.807.117.724 1.046 1.857.078 2.316h-.004Zm1.007 3.756c-.368 0-.662-.354-.647-.712.02-.381.341-.65.709-.65.368 0 .662.354.647.712-.02.382-.341.65-.709.65Zm2.274 13.11c-1.05-1.16-2.646-1.491-3.618-2.71-.368-.447-1.209-.938-.701-1.584.228-.276.682-.338.953-.09.515.456.918 1.028 1.48 1.433 1.006.615 2.076 1.14 2.885 2.028.593.654-.387 1.565-1 .918v.004Zm2.308 1.552c-.368 0-.662-.354-.646-.712.019-.381.34-.65.708-.65.368 0 .663.354.647.712-.02.382-.34.65-.709.65Z"/><path fill="#E2FFB4" d="m71.086 8.925-.012.05c.29.187.573.386.81.643 1.084 1.008 1.418 2.495 1.782 3.872.716 2.51 1.603 5.13 2.463 7.54.53 1.732 1.104 3.49.988 5.32-.113 1.378-.349 2.78-.124 4.161.333.915.86 1.744 1.356 2.577.58.934 1.138 1.899 1.429 2.97.581 1.774.073 3.584-.504 5.281-.042.28-.062.56-.07.84.067.094.117.211.132.355.05.926.299 1.818.609 2.69.344 1.19.774 2.409 1.774 3.207 1.026.704 2.622.591 3.253-.588.585-1.012.457-2.238.43-3.375-.085-.389-.15-.801-.03-1.101a19.079 19.079 0 0 0-.442-1.48c-.221-.423-.446-.848-.682-1.26a.676.676 0 0 1-.085-.728c-.659-1.452-1.492-2.834-1.91-4.379-.36-1.895-.023-3.876-.608-5.745-.542-1.922-1.58-3.627-2.56-5.34-.674-1.634-.891-3.437-1.073-5.184-.062-1.016.038-2.11.36-3.067.147-.662.414-1.355.232-2.032-.108-.358-.27-.72-.209-1.097.09-.518.422-.974.744-1.378.407-.51.88-.989 1.503-1.215.887-.303 1.762.242 2.645.331 1.337-.035 2.793-.183 4.098-.646.105-.234.318-.452.52-.627.561-.677 1.003-1.49 1.444-2.23.651-1.533.748-3.67-.31-5.032l-.035-.036a6.17 6.17 0 0 0-1.134-.47c-1.763-.366-3.471.49-5.195.735-1.39.362-2.789.16-4.14-.265-1.472-.26-2.944-.657-4.432-.794-.302.253-.794.413-1.092.612-1.747 1.156-2.773 3.452-2.274 5.519.086.459.299.899.341 1.362l.008.004Z"/><path fill="#A4D357" d="M72.418 60.228c.694 0 1.53.21 2.173.265 1.186.128 2.402.062 3.568.342.685.171 1.355.405 2.06.471h.16c.061-.031.123-.054.181-.085.306-.296.83-.506 1.023-.884.151-.19.151-.487.066-.705-.039-.058-.078-.116-.105-.179l-.263.024c-1.05.124-2.107.432-3.169.296a30.09 30.09 0 0 1-2.63-.569c-.356-.093-.554-.51-.445-.852.112-.366.492-.541.848-.448 1.596.48 3.176.697 4.815.284a15.7 15.7 0 0 1 6.252.444c1.181.386 2.223 1.11 3.424 1.436 2.32.288 4.656.545 6.984.748 1.429.183 2.816.591 4.183 1.047 1.131.327 2.231 1.031 3.44.957.538-.124 1.138-.463 1.243-1.05.201-1.102.352-2.247.256-3.364-.144-.731-.337-.988-1.1-.794-.686.098-1.372.012-2.046-.105a9.666 9.666 0 0 1-1.297-.155.534.534 0 0 1-.155-.028c-.829-.151-1.65-.358-2.487-.478-1.41-.203-2.832-.409-4.172-.923-.925-.33-1.747-.829-2.637-1.226-.907-.335-1.871-.46-2.828-.584-1.615-.194-3.215.175-4.803.417-1.495.171-2.994.475-4.292 1.273-.407.225-.852.451-1.325.28-.344-.129-.561-.487-.45-.853.102-.327.474-.56.81-.459 1.705-1.059 3.66-1.467 5.629-1.674 2.11-.443 4.276-.556 6.383-.054 1.344.21 2.471.989 3.703 1.502 1.437.596 2.963.783 4.49 1 .697.13 1.39.273 2.087.401.442-.393.814-.922.818-1.533a1.506 1.506 0 0 1-.02-.681c-.62-.199-1.251-.378-1.859-.596-1.387-.475-2.7-1.14-4.09-1.607-2.344-.782-4.486-1.977-6.872-2.328-1.623-.21-3.172.53-4.652 1.102-1.851 1.016-3.912 1.471-5.957 1.93-2.162.608-4.327 1.145-6.57 1.32-1.603.101-2.46 1.724-2.808 3.133-.298.708.198 2.748-.151 3.713.864.012 1.724-.187 2.584-.179l.003.008Z"/><path fill="#E2FFB4" d="M108.755 133.3a.675.675 0 0 1-.565-.42c-.035-.016-.07-.039-.105-.055a.654.654 0 0 1-.391-.763 7.846 7.846 0 0 0-1.658-1.518c-1.569-.942-3.269-1.798-5.082-2.109a1.046 1.046 0 0 1-.782.167c-.59.031-1.178.039-1.767.105-.325.082-.74.273-1.076.238-.04.011-.074.023-.113.031-1.67.521-3.18 1.51-4.52 2.58a2.655 2.655 0 0 0-.84 3.013c.379.665.98 1.191 1.487 1.748.22.175.503.42.674.688 1.421.475 2.932.958 3.962 2.098.609.639-.329 1.588-.96.962-1.51-1.468-3.742-1.857-5.667-2.413-.988-.191-2.01-.211-3.01-.187-.546.206-1.038.545-1.545.84-.12.086-.244.168-.368.246a.706.706 0 0 1-.365.369c-.065 1.694.496 3.383 1.438 4.78.55.958.48 2.281 1.576 2.857 2.239 1.596 4.834 2.382 7.519 2.771 1.615.086 3.3.619 4.876.132 3.475-1.097 5.996-3.074 7.247-6.581.392-1.199.477-2.472.767-3.698.256-1.086.597-2.164.736-3.273.066-.487-.329-.86-.546-1.257-.31-.444-.561-.962-.926-1.351h.004Zm-9.63 8.703c-.75-.697.257-1.771.946-.996.751.692-.256 1.767-.945.996Z"/><path fill="#000" d="M171.757 209.451c-.387-.774-1.057-1.21-1.445-2-.561-1.526-.523-3.247-1.162-4.761-.453-1.179-1.235-2.179-1.785-3.308-.306-.416-.488-1.02-.895-1.351a.587.587 0 0 0 .015-.167c0-.051-.015-.097-.027-.144.581-1.14 1.151-2.3 1.22-3.616.097-1.452-.197-2.896-.147-4.347.132-1.6.469-3.18.527-4.788.066-3.359.186-6.694-.109-10.05-.325-2.549-1.065-4.982-1.998-7.348a.622.622 0 0 0-.202-.502c-.639-1.565-1.359-3.094-2.103-4.608-1.425-3.285-2.673-6.687-4.609-9.715-.31-.53-.663-1.02-1.023-1.511a.864.864 0 0 0-.298-.416c2.847-4.776 3.052-9.018 1.692-15.335a310.582 310.582 0 0 1-.991-6.52c-.298-2.179-.542-4.406-1.507-6.414-.577-1.242-1.344-2.382-2.08-3.534a27.2 27.2 0 0 1-.995-1.728c-.086-.362-.14-.732-.303-1.071 1.166-3.02 1.283-6.309 1.771-9.493 1.104-4.935 4.9-8.111 3.602-13.716-.693-4.044-3.416-4.997-5.895-7.75-1.581-1.646-2.22-3.958-3.738-5.639-.628-.557-3.289-3.48-4.9-4.064a15.233 15.233 0 0 1-1.267-.708c-.434-.292-.724-.735-1.115-1.074-1.004-.934-2.406-1.067-3.688-1.316-1.782-.428-3.598-.727-5.349-1.26-2.537-.892-4.691-2.581-7.108-3.73-4.857-2.315-10.455-1.389-15.529-2.837-1.197-.311-2.153-1.113-3.25-1.619.426-.576.682-1.339.678-2.258.128-1.288.364-2.907-.55-3.989.143-.39.016-.954-.077-1.382 3.819-1.062 3.346-.584 6.875.767 2.39.673 4.993.385 7.333-.358 2.85-1.105 5.562-2.565 8.529-3.367 3.959-1.12 8.522-.973 11.419-4.382.565-.658.98-1.433 1.545-2.087.86-.934 1.813-1.564 2.929-2.245.987-.584 1.979-1.172 3.029-1.643 1.077-.56 4.54-1.238 4.667-2.526.024-.315-.081-.619-.22-.895-.454-.954-.884-1.923-1.376-2.857-.747-1.452-1.483-2.915-2.537-4.173-1.166-1.47-2.75-2.782-4.121-4.16-2.611-2.896-4.013-2.265-7.352-1.254-.906.098-1.712-.51-2.618-.451-.117-.004-.256 0-.403.012 1.088-1.627 2.405-3.92 1.011-5.34-1.1-1.246-2.932-.506-4.218-1.328-.953-.58-1.658-1.483-2.561-2.133-.805-.58-1.731-.98-2.688-1.222-.755-.226-1.635-.163-2.301-.623-.716-.615-1.355-1.323-2.095-1.915-1.248-1.043-3.146-.755-4.432.074-.464.35-.786.794-1.014 1.289a.883.883 0 0 0-.194-.05c-.802-1.22-1.863-2.332-3.161-3.006-.937-.33-1.96-.186-2.932-.346-.035 0-.074-.008-.112-.012.534-.724 1.014-1.479 1.231-2.366.26-.463.38-.997.384-1.541.039-.242.035-.471-.047-.658-.205-1.254-1.007-2.445-2.208-2.869-1.371-.603-2.889-.63-4.357-.525-1.437.027-2.859.19-4.269.47-.635.063-1.27.07-1.91.075a1.5 1.5 0 0 0-.437 0c-.717 0-1.437.007-2.154.085-.712.016-1.425-.14-2.134-.062-.566.058-1.03.374-1.453.736v-.008C92.066 2.355 89.962.763 87.8.35c-1.964-.272-3.839.615-5.764.876-1.348.327-2.642-.237-3.947-.486-2.402-.42-4.931-1.203-7.332-.374-1.438.646-4.358 2.865-4.021 4.748-2.344-.556-4.892-1.432-7.186-.276-.801.413-1.456 1.047-2.211 1.538-.488.3-1.023.58-1.414 1.008-.496.482-.697 1.183-1.166 1.677-.659.417-1.286 1.004-2.107.97-1.34-.008-2.677.054-4.005.252-.852-.027-1.678.277-2.53.257-.39-.097-.81-.155-1.05.25-.209.346-.061.692.125 1.011.34.572.728 1.114 1.092 1.67.066.101.128.206.194.307-.6-.085-1.182-.077-1.484.012-2.138.409-3.722 2.265-4.57 4.18-.299 1.635-.682 3.215-1.593 4.644-.321 1.016 1.03 1.728 1.596 2.401 1.74 1.658 2.758 3.87 3.967 5.909 1.506 2.425 2.521 5.114 4.02 7.543 1.368 2.218 2.905 4.305 4.947 5.943 2.638 2.468 5.845 4.398 9.269 5.535 1.87.806 4.083.903 5.988 1.693.783.374 1.67.596 2.367 1.11-.504.33-.91.813-1.302 1.295-1.173 1.569-1.185 3.402-1.103 5.247a.715.715 0 0 0-.248.821c-2.038-.1-4.083-.085-6.093.343-2.084.525-4.323.68-6.178 1.864-1.054.642-1.988 1.452-2.987 2.168-1.17.825-2.518 1.35-3.734 2.098-3.273 2.191-6.62 4.266-9.866 6.496-1.766 1.183-3.106 2.697-4.814 3.99-1.709 1.187-3.235 2.51-4.784 3.911-1.879 1.518-3.672 3.196-5.036 5.208-2.134 3.013-2.816 6.543-2.22 10.155.473 4.573 1.24 9.002 1.426 13.622.225 3.165.353 6.341.17 9.509-.17 2.639-.375 5.286-.371 7.932 0 2.597.34 5.189.14 7.785-.299 3.585-.686 7.235-.822 10.84-.011 2.331.787 4.588.717 6.924-.198 1.923-1.344 3.592-1.825 5.453-.825 2.269-.747 4.826-.43 7.196.055 1.799.155 3.815.12 5.66-.174 2.331-1.293 4.398-1.967 6.62-.659 2.013-1.236 4.052-1.677 6.127-.764 4.382-2.003 8.66-4.343 12.482-1.487 2.433-2.575 5.099-4.466 7.271-.848 1.023-1.859 1.891-2.742 2.884-1.17 1.35-2.351 2.709-3.78 3.791-.67.525-1.337.926-2.03 1.459-.469.312-.732.938-.233 1.355.407.299.942.214 1.418.187 1.627-.183 2.905.836 4.102 1.868-.941.436-1.7 1.226-2.487 1.907-1.03.911-2.208 1.639-3.327 2.421a.734.734 0 0 0-.085.93c.406.491 1.13.448 1.708.553.213.202.519.23.786.105.008-.004.02-.008.027-.016 2.44.187 4.788 1.016 7.24 1.106a43.4 43.4 0 0 0 5.213-.549c.527-.051 1.256-.148 1.825-.093a.54.54 0 0 0 .21-.028c.723.156 1.46.265 2.21.304 4.42.467 8.84.082 13.256-.175 1.278-.024 2.556-.066 3.834-.121a.673.673 0 0 0 .299.148c1.65.125 3.292.308 4.93.494 3.305.526 6.644.822 9.975 1.125 2.231.284 4.485.144 6.763.257 5.113.008 10.23-.113 15.339-.272 3.075-.055 6.116-.646 9.219-.417.27.059.557.043.782-.05 1.29.101 2.576.214 3.866.362 5.21.626 10.439.07 15.641-.397.318.249.906.206 1.313.198.651.023 1.298.113 1.972.101 3.59.105 7.204.65 10.799.798 1.383.051 2.754-.222 4.129-.303 1.793-.051 3.536-.479 5.314-.647a.66.66 0 0 0 .5-.404c3.471.194 6.918-.175 10.362-.572 2.692-.071 5.225-.935 7.812-1.573 4.099-.666 8.216-1.46 12.368-1.654 1.53.027 3.099.268 4.672.214 2.607-.129 5.202-.323 7.824-.187 1.015.004 2.03.323 3.025.327.593-.136.701-.825.632-1.343-.376-2.861-.903-5.803-2.228-8.391l.012-.016ZM109.631 69.488c.034.054.077.1.112.151-.058-.046-.12-.093-.178-.14l.066-.011Zm25.746-41.51c-.042.023-.089.042-.131.065l-.035-.07h.17l-.004.004Zm-18.588-7.828c.825-1.802 0-4.351 1.561-5.78.805-.447 1.948-.74 2.738-.117.655.534 1.248 1.145 1.867 1.717.821.84 2.038.844 3.107 1.105.84.242 1.658.576 2.355 1.117 1.239 1.036 2.374 2.445 4.071 2.663.852.16 2.064-.117 2.553.797.185.775-.326 1.534-.671 2.2-.457.922-1.096 1.77-1.657 2.63-.268.417-.148.9-.148 1.36-.279 1.112-.139 2.342-.98 3.241-.209.284-.453.53-.72.736-.198.066-.38.179-.5.33-1.154.65-2.614.756-3.896.437-.872-.16-1.128 1.148-.264 1.339 1.72.47 3.668.151 5.152-.81.616-.21 1.313-.747 1.689-.985.813-.903 1.479-2.012 2.49-2.709 1.922-1.016 4.095-1.658 6.264-1.689 1.452.245 2.711 1.195 3.769 2.184.162.23.371.338.577.362.836.798 1.669 1.615 2.39 2.565 1.425 1.977 2.444 4.254 3.482 6.457-1.534.82-3.265 1.171-4.792 2.012-1.626.903-3.292 1.79-4.702 3.02-1.069.88-1.65 2.168-2.591 3.16-1.073 1.024-2.479 1.815-3.92 2.231-3.382.697-6.806 1.238-10.005 2.596-3.518 1.452-6.469 3.305-10.474 2.783-4.424-.91-3.506-2.596-8.843-1-.055.011-.113.023-.171.039-.554-.596-1.406-.942-2.138-1.277-2.119-.693-4.187-1.487-6.26-2.285a.574.574 0 0 0 .063-.074.724.724 0 0 0 .34-.253c1.596-1.79 1.364-3.915 1.116-6.072 0-.124 0-.245.004-.37a.798.798 0 0 0-.074-.252c-.143-1.331-.224-2.666.182-3.931.694-3.223 4.629-4.632 4.9-8.022a5.52 5.52 0 0 0 .008-.833.703.703 0 0 0 .108-.444 2.575 2.575 0 0 1 .349-1.358c.686-1.483 3.141-2.935 4.234-1.059.019.144.062.265.116.362.008.767 1.174.934 1.34.117.267-1.717.829-3.468 2.072-4.737 1.286-1.195 3.281-1.666 3.893-3.507l.016.004ZM105.85 56.207h-.077l.073-.038c0 .011 0 .023.004.038ZM94.737 42.293c0-.024.012-.047.012-.07a.602.602 0 0 0 .058-.312c.236-1.047.802-1.992 1-3.055.371-2.23-.326-4.986-2.654-5.838-.988-.413-2.134-.043-2.944.591-1.329 1.082-1.689 2.857-2.157 4.422-.101.358.058.74.422.864.337.117.759-.066.864-.424.29-1.02.546-2.067 1.06-3.005.729-1.304 2.17-1.728 3.243-.545.798.891.953 2.195.89 3.347-.177 1.145-.755 2.188-1.037 3.3-.016.02-.035.036-.055.055-.22.273-.344.6-.507.907-.244.327-.504.646-.616 1.051-.248 1.144-.883 2.168-1.727 2.974-1.197.844-2.228-.522-2.828-1.468-.682-1.23-.965-2.627-1.62-3.869-.634-1.786-1.483-3.51-2.308-5.207-.697-1.872-.201-3.95-.697-5.877-.302-1.452-.91-2.818-1.573-4.134-.476-.97-1.216-1.81-1.506-2.869-.403-1.74-.81-3.526-.647-5.32.453 1.273 1.995 1.91 3.451 2.137 1.62.354 3.35-.199 4.544-1.34.573-.525 1.111-1.058 1.882-1.307 1.03-.163 2.092.105 3.134.117 1.057.175 2.041.661 3.114.798 1.406.284 2.979-.067 3.974-1.149.016-.019.027-.038.043-.054-.314.837-.79 1.611-1.278 2.366-.9 1.526-.729 3.367-1.038 5.049a.649.649 0 0 0-.23.385.681.681 0 0 0 .535.798c.977.14 1.097-1.117 1.163-1.83.108-1.09.139-2.214.515-3.253.635-1.25 1.553-2.36 1.828-3.772.639-2.378.194-4.402-1.162-5.858.403-.389.782-.945 1.216-1.086v.016c1.216.035 2.44-.09 3.653-.012 1.441.273 2.99.51 4.458.265-.74 1.07-1.584 2.078-2.204 3.23a23.609 23.609 0 0 0-1.813 3.285c-.096.164-.178.331-.216.495a29.274 29.274 0 0 0-.826 2.164 17.344 17.344 0 0 0-1.313 8.54c.523 2.584 1.093 4.534-1.096 6.554-2.998 2.794-4.106 5.636-3.467 9.703-.019.265 0 .545.004.77.035.495.062.99.043 1.487a.698.698 0 0 0-.112.464c-.698 2.008-1.844 1.84-3.626 1.813.046-.147.062-.307.074-.463.089-1.946-.14-3.9.081-5.842l-.004.012Zm15.978-28.865c.248-.101.5-.202.759-.276.21.074.434.02.608-.105.179-.008.357.008.539.058.294.117.608.288.887.257.848.685 1.503 1.604 2.103 2.534.155.156.31.23.457.249-.128.778-.166 1.588-.255 2.316-.089.903-.442 1.802-1.174 2.366-1.263.685-2.227 1.386-2.975 2.2-.685-.16-1.588-.09-1.987.042-1.596.584-2.878 1.806-4.377 2.592-.31.121-.813.25-1.208.452-.012-3.052 1.03-5.947 2.223-8.723.116-.186.221-.385.329-.544 1.085-1.51 2.192-2.908 4.071-3.422v.004ZM99.161 5.426c.174-.055.286-.187.371-.339.326 0 .651-.008.977-.02 2.409-.26 7.991-1.552 9.517.822.217.335.333.732.352 1.133-.073.404-.17.805-.283 1.202-.054.09-.112.176-.182.253-1.77.717-3.606.168-5.454-.05-1.227.035-2.467-.004-3.691.078-.72.148-1.193.786-1.697 1.268a2.198 2.198 0 0 0-.108.09c-.015-.027-.03-.055-.054-.082-.64-.498-1.193-1.152-1.484-1.926.004.027.012.054.016.085l-.012-.058c0-.012-.008-.02-.011-.031-.055-1.273.875-1.752 1.743-2.429v.004ZM91.48 8.742a.601.601 0 0 0 .259-.105c.167-.132.352-.12.589-.21.43-.059.895.132 1.325.202 1.026.413 1.812 1.3 2.82 1.771 1.723.506 2.908 1.565 3.33 3.04a.621.621 0 0 0-.088.222c-.124.626-.202 1.288-.67 1.767-1.074 2.04-3.413 1.619-5.214.938-.984-.374-2.038-.327-3.068-.424-2.754-.514-3.428 1.381-5.454 2.448-.98.46-2.057.315-3.064.02-.604-.195-1.433-.425-1.584-1.133.008-.954.283-1.95-.22-2.842-.125-.253-.276-.47-.4-.727.023-.557.48-.977.84-1.359a.65.65 0 0 0 .156-.568l.042-.024c.19-.042.395.008.581.051.682.206 1.38.382 2.096.362 1.878-.148 3.835-.451 5.512-1.358.871-.518 1.615-1.242 2.208-2.071h.004ZM73.019 2.04c.298-.199.786-.358 1.092-.611 1.487.14 2.963.533 4.431.794 1.352.428 2.75.626 4.14.264 1.728-.245 3.433-1.101 5.195-.735.36.105.748.268 1.135.47.012.012.02.024.035.036 1.057 1.362.957 3.503.31 5.032-.438.74-.883 1.553-1.445 2.23-.201.176-.414.394-.519.627-1.305.463-2.762.615-4.098.646-.88-.09-1.759-.634-2.646-.33-.623.225-1.092.704-1.503 1.214-.321.4-.654.856-.743 1.378-.066.377.096.74.209 1.097.182.677-.081 1.37-.233 2.032-.321.953-.422 2.047-.36 3.067.178 1.748.395 3.553 1.073 5.184.98 1.713 2.018 3.414 2.56 5.34.585 1.869.248 3.85.609 5.745.418 1.546 1.25 2.927 1.91 4.38a.683.683 0 0 0 .084.727c.24.412.465.837.682 1.261.163.486.314.977.442 1.479-.124.3-.054.712.03 1.102.024 1.136.152 2.362-.43 3.374-.63 1.18-2.222 1.288-3.253.588-1-.798-1.425-2.016-1.774-3.207-.31-.872-.558-1.76-.608-2.69a.743.743 0 0 0-.132-.354c.004-.28.027-.56.07-.84.577-1.698 1.085-3.508.504-5.283-.291-1.07-.853-2.035-1.43-2.97-.496-.836-1.022-1.661-1.355-2.576-.225-1.382.011-2.783.123-4.16.113-1.83-.457-3.59-.987-5.321-.86-2.41-1.747-5.029-2.464-7.54-.364-1.377-.697-2.86-1.782-3.872a3.902 3.902 0 0 0-.81-.642c0-.02.009-.032.012-.051-.042-.463-.251-.907-.34-1.362-.5-2.063.526-4.363 2.273-5.52l-.007-.003Zm-2.32 48.839a.76.76 0 0 0-.338-.016c-.503-.21-1.018-.393-1.51-.603-1.302-.494-2.661-.782-4.025-1.031-.98-.253-2.06-.713-3.044-1.043-3.827-1.53-7.143-4.122-9.928-7.143-2.785-3.366-4.288-7.512-6.527-11.22-.93-1.597-1.766-3.274-2.948-4.707-.643-.817-1.46-1.47-2.169-2.222.163-.284.31-.576.45-.876.422-.327.608-1.117.949-1.498 1.177-1.41 2.897-2.857 4.86-2.374.466.155.934.428 1.252.81.054.205.167.396.318.525.104 2.132.065 4.273.743 6.332.876 4.056 2.05 8.602 6.244 10.338 1.635.79 3.417 1.164 5.183 1.53 2.715.618 4.71 2.915 6.457 4.982.236.284.643.37.95.14.344-.257.355-.79.034-1.075-1.305-1.592-2.735-3.11-4.458-4.246-1.255-.868-2.766-1.172-4.238-1.46-1.72-.365-3.416-.965-4.877-2.012-2.46-1.747-3.133-5.052-3.811-7.835a21.167 21.167 0 0 1-.845-6.38c.043-2.876-.836-5.65-2.58-7.935 1.283-.214 2.584-.292 3.878-.444 1.162-.066 2.413.16 3.49-.385.67-.448 1.46-.798 1.91-1.499.298-.451.5-.985.925-1.339a44.129 44.129 0 0 0 2.766-1.942c1.929-1.234 4.187-.307 6.225.078.441.097.945.21 1.193.63.58 1.121 1.445 2.141 2.525 2.81 1.437.631 2.162 2.044 2.448 3.523.388 1.37.833 2.72 1.217 4.09.794 2.418 1.808 4.737 2.262 7.267.399 2.308-.744 4.796.321 6.995 1.112 2.366 3.281 4.6 2.553 7.422-.26.997-.717 1.946-.705 2.997-.058 1.569.376 3.036.914 4.48.1 1.296.422 3.756-1.577 3.449-1.367-.864-2.01-2.55-2.467-4.06-.043-.35-.085-.697-.151-1.043-.26-1.113-.395-2.347-.523-3.534.016-.296 0-.58-.09-.798v-.004c-.29-1.779-.964-3.62-1.715-5.282-.523-1.354-1.51-2.238-2.638-3.168a8.013 8.013 0 0 0-1.917-1.386c-.953-.61-2.1-.755-3.11-1.249-.818-.413-1.476-1.063-2.147-1.677-.27-.253-.685-.28-.956-.012-.256.249-.283.708-.012.961.701.654 1.395 1.343 2.243 1.802.794.46 1.689.677 2.549.977 1.073.448 2.002 1.14 2.839 1.942.496.44 1.01.825 1.394 1.39.992 1.748 1.662 3.69 2.088 5.648.035.291.07.58.1.871 0 .047-.007.094-.01.14-.125 1.153-.148 2.686-1.178 3.468-.496.362-1.17.923-1.81.701a.673.673 0 0 0-.305.02c-.144-.063-.29-.121-.442-.18-1.87-.708-4.14-.91-5.485-2.553-.623-.634-1.572.308-.972.954 1.689 2.102 4.59 2.133 6.845 3.27 1.022.56 1.979 1.326 2.843 2.171.007.646-.194 1.323-.918 1.46-.178.03-.368.1-.546.058h.003Zm-.713 5.815c.344-1.409 1.204-3.028 2.808-3.133 2.243-.175 4.408-.713 6.57-1.32 2.04-.459 4.101-.914 5.957-1.93 1.48-.572 3.029-1.312 4.652-1.102 2.39.35 4.528 1.545 6.871 2.328 1.39.463 2.704 1.132 4.091 1.607.608.218 1.239.397 1.859.596-.05.202-.031.444.019.68 0 .612-.379 1.141-.817 1.534-.697-.128-1.394-.272-2.088-.4-1.526-.222-3.052-.41-4.49-1-1.231-.515-2.358-1.29-3.702-1.503-2.111-.502-4.276-.386-6.384.054-1.967.207-3.923.615-5.628 1.674-.337-.097-.709.132-.81.46-.112.369.101.723.45.852.469.17.918-.055 1.325-.28 1.297-.798 2.796-1.102 4.291-1.273 1.592-.242 3.188-.611 4.804-.417.952.125 1.917.245 2.827.584.891.397 1.712.895 2.638 1.226 1.34.514 2.758.72 4.172.922.836.121 1.658.328 2.487.48.05.015.104.023.154.026.43.074.86.133 1.298.156.678.113 1.36.203 2.045.105.763-.194.957.059 1.1.794.097 1.121-.054 2.262-.255 3.363-.105.592-.705.926-1.244 1.051-1.204.07-2.304-.63-3.439-.957-1.364-.456-2.754-.864-4.184-1.047a190.46 190.46 0 0 1-6.984-.748c-1.2-.323-2.242-1.05-3.424-1.436a15.622 15.622 0 0 0-6.251-.444c-1.635.413-3.22.195-4.815-.284-.357-.093-.732.082-.849.448-.104.342.09.759.446.852.868.23 1.747.424 2.63.568 1.061.137 2.119-.175 3.168-.295.09-.012.179-.016.264-.024.027.063.066.12.105.18.085.217.085.517-.066.704-.194.377-.717.587-1.023.883-.058.032-.12.059-.182.086h-.159c-.705-.066-1.375-.3-2.06-.471-1.166-.28-2.383-.214-3.568-.343-.647-.054-1.483-.268-2.173-.264-.864-.008-1.72.19-2.584.179.35-.965-.147-3.005.152-3.713l-.004-.008Zm25.138 5.293c-.027 0-.05 0-.077.004v-.011c.027 0 .054.003.081.007h-.004Zm16.501 160.188c.066-.012.132-.024.194-.031 0 .015.004.031.008.05-.066-.008-.136-.012-.202-.019Zm49.135-4.519c-3.358-.459-6.701.101-10.02.611a59.743 59.743 0 0 0-9.978 2.047c-3.277.432-6.574.81-9.87 1.004-2.301-.011-4.617.012-6.902-.307-2.627-.42-5.249-1.028-7.922-.996-2.75.062-5.434.774-8.169 1.035-5.748.564-11.477 1.331-17.275 1.105-5.098-.428-10.238-.887-15.37-1.148-5.338-.183-10.587-1.323-15.924-1.514-5.505-.16-11.012.237-16.513.444-5.388.373-10.791.424-16.175.829-1.833.101-3.669.035-5.497-.066-2.254-.094-4.694-.343-6.767-1.406-2.091-1.082-4.152-2.261-5.969-3.771-.182-.14-.36-.288-.538-.44-.008-.012-.012-.023-.024-.031a.64.64 0 0 0-.154-.117c-1.457-1.245-2.917-2.662-4.881-2.853 1.774-1.195 3.246-2.759 4.621-4.386 1.611-1.705 3.335-3.32 4.563-5.344.922-1.335 1.561-2.826 2.363-4.231 1.41-2.223 2.53-4.62 3.451-7.084 1.127-3.351 1.488-6.905 2.502-10.291.744-3.001 2.278-5.784 2.743-8.851.162-2.129-.027-4.269-.074-6.399-.201-1.778-.387-3.584.008-5.359.465-2.686 2.37-5.072 2.254-7.87-.062-1.841-.542-3.635-.697-5.469-.004-3.623.457-7.239.744-10.847.337-4.472-.38-8.948.089-13.424.538-5.773.166-11.661-.326-17.441-.275-2.702-.743-5.38-.995-8.085-.384-2.743-.523-5.608.81-8.138 1.29-2.686 3.338-4.803 5.655-6.656 1.387-1.206 2.653-2.393 4.19-3.51 1.546-1.024 2.743-2.293 4.184-3.484 1.321-1.078 2.762-1.989 4.184-2.93 2.823-1.655 5.38-3.741 8.273-5.27 2.216-.939 3.905-2.706 5.98-3.866 1.508-.759 3.224-.868 4.835-1.304 2.045-.49 4.137-.451 6.217-.381.043.07.077.14.081.23.116.28.132.564.074.836-2.425.56-4.675 1.752-6.752 3.102a18.002 18.002 0 0 1-3.939 2.507c-3.463 1.681-8.789 2.363-9.715 6.815-.236 1.865.24 5.134 2.08 6.053 1 .303 1.325-1.016.35-1.363-1.167-1.533-1.74-4.51-.346-6.068 1.65-1.856 4.01-2.569 6.299-3.413.058.012.12.016.182.012.759-.059 1.413-.32 2.192-.168 1.445.502 1.29 2.41.96 3.62-.146.405-.332.79-.476 1.195a.706.706 0 0 0-.12.416 6.59 6.59 0 0 0-.201.697c-.446 1.502-1.329 2.588-2.332 3.799-1.27 1.79-1.697 3.986-2.355 6.04-.616 1.589-1.193 3.274-2.398 4.52-1.46 1.556-3.424 2.673-5.45 3.347-.724.276-1.456.549-2.184.817-.35.125-.512.549-.376.884.321.731 1.108.295 1.642.097 1.352-.522 2.743-.97 4.025-1.647 4.574-2.456 5.655-6.11 6.991-10.793.306-.794.62-1.595 1.089-2.312.573-.805 1.301-1.494 1.782-2.366.65-1.094.918-2.359 1.421-3.515.767-1.576 2.158-2.565 3.39-3.845 1.022-1.117 2.072-2.21 3.33-3.067a21.066 21.066 0 0 1 6.934-3.476c1.987-.665 4.203-.868 6.116-1.728.264.008.527.015.794.02-.39.653-.778 1.307-1.402 1.79-1.766 1.638-4.07 2.397-6.135 3.553-1.414.9-2.75 1.939-3.812 3.25-.511.716-1.115 1.347-1.86 1.822-.518.397-1.692.638-1.277 1.514.182.335.6.432.921.265.756-.397 1.515-.849 2.142-1.437.942-.93 1.558-1.973 2.623-2.833 2.626-2.308 6.294-2.958 8.742-5.527.097-.093.19-.19.275-.292-.248.592-.45 1.094-.58 1.32-.88 1.747-2.116 3.335-3.766 4.44-2.242 1.978-5.02 3.445-6.716 5.975-1.817 2.507-2.84 6.609-.643 9.174 1.123.9 2.37 2.036 3.865 2.137.977.074 1.794-.152 2.8-.199a.686.686 0 0 0 .636-.72.682.682 0 0 0-.717-.638c-1.208.02-2.54.549-3.652-.12-.887-.678-2.065-1.13-2.487-2.247-.887-2.506.194-5.27 1.774-7.258 1.681-1.877 3.785-3.29 5.772-4.835.139-.02.275-.07.387-.167.445-.19.871-.428 1.375-.56.852-.261 1.793-.464 2.634-.055.414.093.883.171 1.088.596.043.225.17.377.33.463.38.848.91 1.634 1.506 2.323 1.209 1.27 1.062 3.336-.166 4.543-.814-.063-.992 1.109-.236 1.362.678.214 1.255-.393 1.627-.888.902-1.237 1.305-3.008.697-4.476-.333-.782-.895-1.424-1.414-2.086-1.596-2.11-1.414-4.083-.461-6.438.562-.942.686-2.027.895-3.074.081-.11.162-.218.24-.331.321-.46.763-.744 1.255-.919.228-.046.457-.093.682-.148.08-.02.162-.039.248-.058.255-.027.51-.043.766-.043 1.523-.124 3.463.23 4.18 1.748.085.179.205.33.321.49 0 .012 0 .023.004.035.175 2.596 1.677 4.749 3.087 6.846.148.254.306.499.48.725a.752.752 0 0 0 .113.089c1.112 1.339 2.46 2.503 3.184 4.133 1.875 4.08 2.987 6.87 2.057 11.444-.019.626-.674 1.385-.078 1.895.791.51 1.162-.385 1.283-1.035a19.42 19.42 0 0 0 .422-2.873c.124-1.49.058-3.117-.345-4.589-.662-2.19-1.53-4.351-2.626-6.355-.705-1.258-1.736-2.262-2.72-3.293-.228-.32-.453-.642-.677-.966a7.686 7.686 0 0 1-.581-1.525c-.864-4.044 2.03-5.574 5.589-4.543.426.032.988.331 1.429.292.299.892.55 1.818 1.085 2.608.67.965 1.286 2.005 2.173 2.783a8.437 8.437 0 0 0 3.959 2.222c1.015.3 2.022.612 3.017.942.043.016.081.032.124.047.012 0 .019 0 .031.004 1.027.343 2.049.708 3.072 1.098 2.099.871 4.171 1.942 5.899 3.44 3.711 3.608 5.57 5.796 11.086 6.286 2.161.203 4.315-.004 6.434-.416.894-.144.67-1.464-.19-1.347-4.416.868-9.676.817-13.158-2.433-1.422-1.245-2.665-2.697-4.172-3.845-2.626-1.942-5.605-3.102-8.673-4.114-.224-.097-.476-.156-.712-.276-1.066-.394-2.096-.919-2.933-1.701-.658-.553-1.227-1.312-1.061-2.219-.05-.385.112-.72.415-.957a.868.868 0 0 0 .36-.234c4.749 1.094 10.036.311 14.463 2.666 1.794.946 3.483 2.087 5.315 2.962 2.591 1.168 5.473 1.507 8.227 2.125 1.034.121 1.84.701 2.479 1.491a8.13 8.13 0 0 0 1.782 1.16 2.3 2.3 0 0 0 .488.249c1.793 1.082 3.374 2.658 4.725 4.258 1.259 2.04 2.263 4.274 4.091 5.897 1.065 1.086 2.289 1.95 3.335 3.06.581.707.933 1.572 1.185 2.447 1.704 5.364-2.386 8.902-3.408 13.767-.64 3.799-.613 7.835-2.623 11.248-.856 1.098-1.441 2.379-2.13 3.581-1.337 2.273-2.692 4.539-3.963 6.854-1.139 2.137-1.522 4.593-2.39 6.858a.688.688 0 0 0-.263.639c.05.37.407.63.767.576.36-.051.581-.343.728-.646.306-.674.5-1.394.697-2.106.426-1.506.814-2.884 1.488-4.348.879-1.619 1.809-3.211 2.711-4.814.012-.008.027-.012.039-.02 1.398-1.35 3.11-1.253 4.718-.307 0 0-.008-.004-.012-.008 1.321.705 2.452 1.829 2.859 3.308.015.265.089.557.279.736.313 2.071.573 4.149.918 6.216.302 2.156.829 4.277 1.007 6.453.434 4.803-1.271 8.563-4.18 12.276-1.077 1.666-2.335 3.168-3.722 4.577-1.46 1.892-2.719 3.998-3.502 6.267-.29 1.043-1.22 3.729-.499 4.589.577.576 1.557-.168 1.084-.86.236-3.103 1.673-5.952 3.459-8.45.217.023.457-.051.674-.281 2.859-2.459 6.24-.26 8.119 2.312 1.294 1.799 2.173 3.858 3.54 5.613.329.362.519.876.845 1.245.069.179.147.355.213.538.79 2.389 1.611 4.81 1.812 7.336.136 1.674.082 3.425.086 5.107-.004 1.576.031 3.118-.093 4.698-.113 1.794-.612 3.565-.473 5.371.051 1.358.353 2.802-.058 4.172l-.039.098a2.134 2.134 0 0 0-.228.381 7.053 7.053 0 0 0-1.077 1.409c-.701.864-1.472 1.783-2.371 2.476-1.193.84-2.614 1.568-3.842 2.393-.868.685-1.743 1.339-2.576 2.063-1.092.666-2.13 1.421-2.94 2.425-.372.444-.682.938-1.03 1.397-.066.07-.128.144-.186.222-.07.086-.14.175-.217.257a.686.686 0 0 0-.515.572c-.047.362.221.724.585.763.317.023.573-.101.794-.288a.647.647 0 0 0 .476-.525l.047-.059c1.193-1.082 2.285-2.265 3.451-3.374.097-.086.197-.168.298-.249 1.6-.946 3.343-1.655 4.923-2.62.078-.015.155-.027.221-.039.318.016.632.027.949-.019a4.084 4.084 0 0 1 2.526 2.113c.275.498.507 1.078.461 1.662-.051.35-.268.658-.283 1.012-.02.374.197.736.558.856 1.592.195 3.16.876 3.858 2.437 1.344 2.226 2.091 4.702 2.494 7.278-3.92-.642-7.747.039-11.717-.07l.015-.019Z"/><path fill="#000" d="M54.573 74.158c.422.058 1.03.214 1.131.689.175.786-1.139 1.611-.232 2.242 1.127.588 1.824-1.927 1.507-2.713-.109-.989-2.67-2.374-2.99-.989-.047.355.212.736.58.767l.004.004ZM52.218 74.936a.69.69 0 0 0 .682-.677.688.688 0 0 0-.674-.685.69.69 0 0 0-.682.677c0 .37.306.685.674.685ZM79.143 73.446a.685.685 0 0 0-.93.233c-.097.199-.252.35-.438.463-1.069.666-2.134 1.34-3.118 2.126-.732.626-1.553 1.206-2.103 2.008-.322.541-.817 1.534.046 1.818.357.1.72-.121.833-.48.225-.887 1.054-1.385 1.685-1.969 1.073-.895 2.247-1.65 3.432-2.385.566-.343 1.371-1.281.597-1.814h-.004ZM71.934 81.939c.349.84 1.604.307 1.247-.537-.348-.841-1.603-.308-1.247.537ZM123.033 127.267c-1.247-1.144-2.363-2.421-3.548-3.627-1.174-1.043-2.417-1.993-3.521-3.118-2.243-2.02-4.873-3.507-7.356-5.188l.008.004c-.825-.495-1.716-1.059-2.7-1.102a.66.66 0 0 0-.364.113c-3.006.128-6 .362-9.006.518-4.044.21-8.22.626-11.969 2.253-1.522.767-2.479 2.277-3.416 3.643-1.1 1.783-2.231 3.546-3.173 5.422a21.794 21.794 0 0 1-1.758 2.764c-.659.836-1.55 2.631-2.642 1.276-.786-.864-.744-2.094-1.057-3.156-.884-2.207-1.352-4.578-2.363-6.726-2.216-4.028-4.606-3.565-8.623-3.188-3.776.187-7.634.506-11.426.401-.744.008-1.488.035-2.227.097-.36.028-.725.074-.996.335-.287.277-.256.72-.267 1.09-.345 2.623-.345 5.27-.143 7.909.174 2.444.278 4.959 1.421 7.181.589 1.6 1.662 3.114 3.277 3.772 1.038.436 2.196.369 3.238.762-1.069 1.304-2.92.911-4.253 1.717-1.135.627-1.72 1.825-1.793 3.094-.508 4.616-1.038 9.229-1.116 13.88-.224 2.386-.472 4.764-.488 7.165-.349 2.032.67 2.028 2.332 2.071 2.525.171 5.05-.019 7.569-.167 3.846-.366 8.01-1.577 10.156-5.095 1.332-2.234 2.607-4.504 3.978-6.714.693-1.273 1.418-2.526 2.316-3.667.686-.124 1.251.37 1.759.763 1.356 1.074 2.293 2.526 3.432 3.799.631.662 1.433 1.117 2.134 1.693 1.27 1.335 2.324 2.958 3.905 3.954 1.948 1.153 4.28.954 6.441.794 1.747-.132 3.482.094 5.225.207 1.693.097 3.393.159 5.082.346 2.142.152 4.536.424 6.477-.689 1.987-1.296 3.591-3.102 5.217-4.811 2.464-2.615 4.478-5.612 6.868-8.29 2.832-3.028 5.376-6.301 7.883-9.602 1.355-1.549 1.553-2.592.6-4.449-1.224-2.783-2.774-5.445-5.113-7.43v-.004Zm1.414 13.67c-1.786 2.479-3.827 4.697-5.857 6.982-3.339 3.881-6.321 8.217-10.21 11.611-2.135 2.323-5.226 1.813-8.049 1.564-3.762-.171-7.523-.731-11.288-.354-5.461.448-5.496-3.336-9.343-5.749-1.162-1.031-1.901-2.448-3.064-3.479-.968-.915-2.08-2.013-3.517-1.896-.829.008-1.266.767-1.68 1.374-.713.985-1.287 2.051-1.875 3.11-1.515 2.32-2.731 4.83-4.288 7.115-3.03 3.939-8.433 3.9-12.965 4.118-1.41.039-2.824-.02-4.23-.117.09-2.366.182-4.729.484-7.08.14-3.343.28-6.687.655-10.014.271-1.635.322-3.289.57-4.924.08-1.074 1.038-1.767 2.033-1.934 1.27-.176 2.557-.534 3.467-1.495 1.12-1.016.654-2.137-.732-2.452-.84-.269-1.74-.28-2.584-.53-2.018-.626-2.719-2.817-3.424-4.6-.45-1.335-.511-2.764-.64-4.157-.266-2.939-.297-6.052.07-9.01 1.887-.176 3.785-.024 5.675-.067 1.976-.144 3.982-.218 5.989-.319 2.382.051 4.919-.794 7.231-.015 1.654 1.07 2.483 2.938 3.002 4.81.461 1.557 1.066 3.068 1.507 4.624.167 1.557.798 3.254 2.336 3.908 1.58.724 2.77-1.023 3.571-2.144.922-1.223 1.689-2.55 2.386-3.908.81-1.542 1.77-3.001 2.68-4.484.93-1.374 2.046-3.024 3.785-3.48 3.66-1.265 7.7-1.615 11.566-1.771 2.344-.194 4.695-.237 7.065-.436.295-.011.752-.042 1.108.012.186.051.391.066.558-.023 1.445.599 2.607 1.526 3.916 2.417 1.058.65 2.13 1.276 3.091 2.074 1.058.767 2.003 1.67 2.94 2.577 1.085.899 2.2 1.763 3.126 2.834 1.704 1.95 3.842 3.506 5.31 5.663.725 1.117 1.317 2.312 1.887 3.514.283.646.67 1.293.701 2.009-.631 1.522-2.041 2.736-2.956 4.122h-.007Z"/><path fill="#000" d="M110.642 133.643c-.399-.623-.802-1.281-1.387-1.721-.368-.665-1.077-1.362-1.41-1.673-2.514-2.098-5.768-3.367-9.044-3.367a6.594 6.594 0 0 0-2.135.288c-.871.261-1.55.903-2.343 1.312-2.797.942-5.237 2.245-6.023 5.328-.353.747-.527 1.553-.372 2.374-1.089.319-1.991 1.152-2.99 1.666-1.407.709-2.983.65-4.498.872-.883.121-.72 1.428.16 1.354 1.045-.186 2.118-.136 3.152-.385.326-.07.64-.163.95-.276.05 1.16.32 2.316.747 3.39.457.992 1.154 1.849 1.355 2.946.314 1.176 1.36 1.88 2.355 2.456 2.739 1.763 6 2.41 9.2 2.663 1.627.291 3.277.171 4.772-.592 3.308-1.156 5.81-3.776 6.93-7.131.344-1.089.449-2.234.685-3.347.256-1.475.949-2.938.81-4.449-.143-.638-.581-1.156-.907-1.708h-.007Zm-.419 2.269c-.139 1.109-.48 2.187-.736 3.273-.29 1.226-.375 2.495-.767 3.698-1.251 3.507-3.772 5.48-7.247 6.581-1.58.487-3.261-.046-4.876-.132-2.685-.389-5.28-1.179-7.519-2.771-1.096-.572-1.03-1.9-1.576-2.857-.938-1.397-1.503-3.087-1.437-4.78a.68.68 0 0 0 .364-.369c.124-.078.248-.16.368-.246.503-.295.995-.634 1.545-.84 1-.024 2.022 0 3.01.187 1.929.56 4.156.949 5.667 2.413.631.626 1.569-.323.96-.962-1.03-1.144-2.54-1.627-3.962-2.098-.17-.268-.45-.513-.674-.689-.511-.556-1.108-1.082-1.488-1.747a2.649 2.649 0 0 1 .841-3.013c1.34-1.07 2.85-2.063 4.52-2.58.039-.012.074-.024.113-.031.337.035.747-.156 1.076-.238.59-.066 1.178-.074 1.767-.105.263.047.569-.008.782-.167 1.813.315 3.513 1.167 5.082 2.109.616.429 1.193.931 1.658 1.518a.654.654 0 0 0 .391.763c.039.016.07.035.105.055a.682.682 0 0 0 .565.42c.364.389.612.907.926 1.351.217.397.612.77.546 1.257h-.004Z"/><path fill="#000" d="M99.126 142.007c.69.775 1.697-.304.945-.996-.69-.775-1.697.299-.945.996ZM109.286 37.642c-1.15.96-2.297 1.922-3.478 2.84-.291.23-.295.694-.062.962.255.292.666.292.956.062 2.119-1.646 4.122-3.436 6.217-5.11.705-.51 1.441-1.137 2.352-1.16 5.701.681.627 7.185-2.108 8.586-2.169 1.273-4.725 1.728-6.798 3.176-1.282.892-2.335 2.063-3.451 3.145-.713.214-.654 1.366.128 1.41.476.034.771-.417 1.092-.701 1.108-1.11 2.243-2.312 3.645-3.137 2.057-1.14 4.478-1.643 6.465-2.959 2.386-1.642 5.148-4.592 4.958-7.69-.128-1.978-2.072-3.134-3.893-3.184-2.448.132-4.168 2.39-6.023 3.767v-.008ZM123.517 51.447c1.778-.568 3.327-1.681 5.051-2.382.628-.237 1.275-.405 1.925-.564.883-.32.388-1.604-.484-1.28-2.235.423-4.191 1.75-6.228 2.696-.814.296-1.647.56-2.503.709a.69.69 0 0 0-.546.794c.279 1.129 2.038.171 2.785.027ZM119.287 52.03c.74.503 1.511-.634.787-1.147-.74-.506-1.511.634-.787 1.148ZM129.963 28.538c.437-.627.933-1.246 1.154-1.985.166-.53.232-1.098.48-1.6.225-.346.562-.6.79-.946.492-.74-.608-1.498-1.115-.77-.213.291-.496.525-.705.82-.488.69-.523 1.495-.814 2.297-.279.584-.674 1.098-1.057 1.612-.353.451-1.054.988-.469 1.56.748.604 1.321-.486 1.736-.984v-.004ZM126.674 30.554c.794.412 1.464-.911.659-1.312-.795-.413-1.461.91-.659 1.312ZM95.802 20.166a.684.684 0 0 0-.81.513c-.189.81-.406 1.612-.487 2.44-.054 1.168-.155 2.332-.434 3.469a.686.686 0 0 0 .511.813c1.128.206.984-1.895 1.17-2.635.058-1.284.205-2.55.562-3.79a.686.686 0 0 0-.511-.814v.004ZM94.265 28.95c-.368 0-.663.354-.643.713.02.38.34.646.709.646.367 0 .662-.355.642-.713-.019-.381-.34-.646-.708-.646ZM53.47 22.116c-.489-2.258-.384-4.66-1.418-6.808-.271-.685-1.096-1.966-1.833-1.043a.69.69 0 0 0 .213.938c.059.066.101.144.148.218 1.491 2.631.883 5.834 2.1 8.598.115.354.526.533.863.412.968-.455.039-1.588-.078-2.316h.004ZM54.612 26.821c-.368 0-.69.269-.709.65-.015.358.28.712.647.712.368 0 .69-.268.709-.65.015-.358-.279-.712-.647-.712ZM54.945 38.346c-.562-.405-.964-.977-1.48-1.432-.27-.25-.728-.187-.952.09-.512.65.329 1.136.7 1.583.973 1.215 2.565 1.55 3.618 2.71.612.645 1.596-.265 1-.92-.81-.887-1.879-1.412-2.886-2.027v-.004ZM59.194 41.483c-.368 0-.69.269-.709.65-.015.358.28.712.647.712.368 0 .69-.268.71-.65.015-.358-.28-.712-.648-.712ZM68.812 17.503c1.143 1.935 1.313 4.165 1.759 6.317.201.872 1.503.58 1.324-.288-.484-2.448-.708-5.052-2.207-7.142-.539-.973-1.883-.268-1.228.658.143.152.232.257.352.455ZM70.861 26.12c-.438.401-.143.958.248 1.262.918.724 1.689-.545.709-1.219-.26-.264-.678-.3-.957-.042ZM98.08 78.07c.263.175.356.506.465.786.36 1.187.685 2.398.81 3.635.023 1.701-.179 3.258-.322 4.99.066.681-.593 1.97.426 2.176 1.096.05.79-1.514.937-2.242.14-2.051.547-4.157.144-6.204-.392-1.429-.45-3.207-1.639-4.227-.709-.53-1.518.54-.821 1.086ZM98.785 92.19c.77.67 1.623-.486.829-1.105-.767-.665-1.63.479-.829 1.106ZM40.92 76.225c-2.418 2.713-5.486 4.787-8.104 7.31-.62.58-1.27 1.116-1.894 1.692-.275.25-.271.701-.023.962.26.276.681.272.956.027a121.26 121.26 0 0 0 2.766-2.51c1.464-1.242 2.932-2.48 4.38-3.74.547-.472 1.058-.99 1.6-1.468.617-.568 1.368-1.102 1.631-1.93.229-.892-1.084-1.227-1.313-.343ZM29.218 88.843c.91.02.925-1.545.019-1.553-.914-.019-.926 1.546-.02 1.553ZM133.178 78.58c-1.414-.647-2.785-1.382-4.009-2.355-.822-.428-2.197-2.95-3.076-1.818-.36.565.151.919.538 1.246 1.6 1.864 3.731 3.148 5.942 4.149.798.385 1.391-.822.601-1.223h.004ZM134.893 79.84c.171.892 1.685.616 1.503-.283-.166-.888-1.688-.615-1.503.284ZM145.453 121.207c.801.416 1.115-.638 1.433-1.172.519-.868.964-1.763 1.383-2.685.557-1.094.98-2.281 1.425-3.429.411-1.164.414-2.413.651-3.62.236-1.144.542-2.277.833-3.41.143-.63.6-1.724-.341-1.903a.686.686 0 0 0-.756.592c-.36 1.849-.999 3.647-1.231 5.527-.093 1.354-.465 2.631-1.019 3.865a30.353 30.353 0 0 1-1.929 4.036c-.256.662-1.294 1.6-.449 2.195v.004ZM144.821 122.678c-.019-.49-.24-1.094-.837-1.004-.608.097-.639.712-.503 1.203.139.879 1.46.681 1.34-.199ZM143.756 171.899c-.015-.965-.306-1.896-.368-2.861 0-.732.155-1.463.275-2.183.841-4.2 3.021-7.96 5.648-11.28a3.93 3.93 0 0 0 .48-.996c.213-.872-1.058-1.199-1.309-.351-.221.635-.701 1.137-1.093 1.67a20.729 20.729 0 0 0-2.297 3.503c-1.623 2.826-2.742 5.982-3.052 9.252-.054 1.105.318 2.172.36 3.269.035.899 1.352.868 1.356-.015v-.008ZM143.609 173.172a.688.688 0 0 0-.67.689.688.688 0 0 0 .685.673.688.688 0 0 0 .67-.689.687.687 0 0 0-.685-.673ZM152.405 203.959c.481-.49.973-.942 1.496-1.389 1.53-1.378 3.246-2.542 4.69-4.013.469-.619 2.313-1.658 1.538-2.495-.256-.253-.709-.269-.961.004-.426.467-.89.899-1.344 1.343-1.185 1.237-2.575 2.226-3.873 3.335-.852.74-1.72 1.452-2.51 2.258-.26.264-.26.7 0 .965a.684.684 0 0 0 .961-.004l.003-.004ZM148.811 204.994c-.353-.043-.728.222-.755.592-.078.49-.082 1.168.55 1.249.352.043.728-.222.755-.591.077-.491.081-1.168-.55-1.25ZM29.098 115.4c.135 2.047-.109 4.083-.12 6.13.023.895 1.336.88 1.355-.012 0-1.63.182-3.253.155-4.884.016-2.086-.48-4.13-.616-6.204-.108-.802.09-1.655-.14-2.429-.348-.798-1.549-.304-1.258.506-.05 2.316.356 4.608.623 6.897v-.004ZM28.586 124.64c0 .374.314.677.682.677a.688.688 0 0 0 .674-.685.685.685 0 0 0-.682-.677.688.688 0 0 0-.674.685ZM71.175 159.596c-1.352 1.817-2.696 3.616-4.183 5.34-.853.973-1.41 2.199-2.41 3.044-.464.327-.96.595-1.468.891-1.1.615-2.362.833-3.552 1.214-.356.105-.534.53-.418.868.128.366.519.522.864.417.751-.222 1.51-.428 2.258-.662 1.236-.413 2.282-1.031 3.347-1.825 1.24-1.188 2.01-2.768 3.207-4.006a148.545 148.545 0 0 0 3.641-4.74c.36-.646 1.658-1.355.926-2.141-.872-.704-1.674 1.059-2.212 1.596v.004ZM55.398 171.623c-.368 0-.697.249-.72.634-.023.354.263.724.631.724s.697-.249.72-.634c.024-.355-.263-.724-.63-.724ZM115.147 192.259c.492.327 1.301.51 1.483-.245a.686.686 0 0 0-.531-.802c-3.354-1.895-5.961-1.471-8.246.288a.642.642 0 0 0-.174.14 7.386 7.386 0 0 0-.376.319c-.209.113-.446.187-.643.316-.635.447-1.402.665-2.173.731-.5.039-1.077-.097-1.596.02a.645.645 0 0 0-.232.144 11.176 11.176 0 0 0-4.242-.444c-.992.097-1.964.343-2.897.685a.691.691 0 0 0-.419.868c.33.837 1.244.249 1.84.105a10.068 10.068 0 0 1 2.25-.342c1.748.011 3.688.299 5.029 1.506-.663.973-1.182 2.047-1.368 3.219-.139.809-.19 1.631-.221 2.452a.687.687 0 0 0 .632.724c.36.023.709-.265.72-.635.043-1.023.097-2.047.376-3.035.631-1.95 2.154-3.48 3.502-4.971.073-.078.147-.148.22-.222.233-.136.442-.307.605-.529.007-.008.011-.019.015-.027 1.898-1.479 4.214-1.526 6.442-.253l.004-.012Z"/><path fill="#000" d="M118.912 195.669c-1.736-.942-3.661-1.67-5.687-1.413-.883.105-.751 1.42.132 1.354 1.325-.167 2.646.187 3.866.709.476.268.953.603 1.503.692.836.082 1.034-1.171.182-1.346l.004.004ZM118.742 197.015h-.047l.05.004-.003-.004ZM110.657 195.918c.604.661 1.689-.339 1.073-.993-.604-.661-1.689.339-1.073.993ZM30.736 201.865c-2.165-.798-3.722-2.23-2.65-4.663.256-.615.682-1.14 1.19-1.565.399-.365 1.487-.685 1.111-1.455-.883-1.596-5.395 2.864-3.571 6.34a.6.6 0 0 0-.039.101c-2.033 1.429-3.06 4.632-1.247 6.625.52.728 1.615-.035 1.123-.763-.507-.51-.712-1.16-.7-1.821.193-.164.332-.425.375-.682.6-.665 1.325-1.393 2.285-1.401a.59.59 0 0 0 .264-.074c.368.207.786.401 1.255.58.805.374 1.394-.813.6-1.222h.004ZM27.87 208.283s.007.039.015.055c-.306-1.016-1.747-.389-1.232.537.446.817 1.627.156 1.193-.654l.027.062h-.003ZM124.648 97.348c-.809-.168-1.631-.168-2.452-.14-.368.011-.658.358-.635.72.023.377.349.65.717.638 2.575-.35 5.589 1.3 5.07 4.247-.186.852-.426 2.28-1.24 2.705a.687.687 0 0 0-.534.801c.17.759 1.119.6 1.569.195 1.545-1.658 2.215-4.776.937-6.76-.798-1.192-2.022-2.126-3.436-2.41l.004.004ZM118.927 98.975c.368 0 .659-.37.635-.72-.023-.39-.348-.638-.716-.638s-.659.37-.636.72c.024.389.349.638.717.638Z"/></g><defs><clipPath id="a"><path fill="#fff" d="M0 0h174v224H0z"/></clipPath></defs></svg>