<svg xmlns="http://www.w3.org/2000/svg" width="255" height="136" fill="none"><g clip-path="url(#a)"><path fill="#A4D357" d="M150.723 98.817c.256-.082.519-.156.786-.211a34.678 34.678 0 0 0-1.947-.97c-.282-.116-.565-.237-.851-.355-1.8-.688-3.674-.946-5.346.192a3.768 3.768 0 0 1-.468.41 2.376 2.376 0 0 0-.066.743c.089.867.062 1.75.229 2.602.398 1.759 1.629 2.114 3.026 1.977.012-.3.093-.617.128-.883.023-1.102.337-1.961 1.316-2.536.952-.602 2.137-.64 3.193-.969ZM118.304 19.469c1.985-.25 3.975-.5 5.949-.79 5.527-.75 11.054-1.531 16.593-2.227.309-.04.623-.078.932-.117-.785-.329-1.54-.762-2.318-1.095-1.2-.437-2.431-.789-3.627-1.242-2.612-1.028-5.209-2.208-7.961-2.798-3.136-.864-6.828-1.133-9.719.598-1.247 1.125-.484 3.005-.326 4.435.186 1.075.647 2.142.484 3.232l-.007.004Zm9.01-6.917c.925.168 1.854.316 2.741.633.839.277 1.625.676 2.415 1.063a.692.692 0 0 1 .693.621c-.051 1.177-1.305.692-1.928.286a13.312 13.312 0 0 0-2.438-.919c-.705-.293-2.369-.016-2.265-1.121a.687.687 0 0 1 .782-.56v-.003Zm-2.392-.274c.368 0 .662.352.65.711a.69.69 0 0 1-.704.657c-.368 0-.662-.352-.65-.711a.69.69 0 0 1 .704-.657ZM240.582 102.94c-.027-.024-.054-.043-.081-.067-.163-.007-.325-.054-.488-.043-.321-.007-.518.219-.712.438.074.078.147.156.221.239 2.852 2.993 4.609 6.866 2.91 10.945-.216.715-.398 1.255-.623 1.927a.606.606 0 0 1-.17.25c-.174.352-.457.688-.647.914-.53.712-1.207 1.227-1.993 1.622-1.401.95-2.949 1.622-4.528 2.224-2.547 1.317-5.551.926-8.322.875a21.69 21.69 0 0 1-2.857-.406c2.063 3.29 4.761 6.233 7.951 8.378 6.924 4.846 16.624 4.705 18.551-5.033 1.343-8.41-3.135-16.808-9.212-22.259v-.004Zm-3.549 27.03a12.057 12.057 0 0 1-6.739-4.06.698.698 0 0 1-.325-.852c.225-.594.975-.523 1.32-.078.519.543 1.022 1.098 1.599 1.579 1.261 1.09 2.856 1.668 4.447 2.079.863.222.565 1.516-.302 1.332Zm3.967.137a.694.694 0 0 1-.704-.656c-.016-.364.282-.712.65-.712.368 0 .689.278.704.657.016.363-.282.711-.65.711Z"/><path fill="#E2FFB4" d="M145.688 15.877c3.03-.347 6.061-.695 9.068-1.215 2.203-.414 4.428-.676 6.646-.98a89.448 89.448 0 0 1 1.997-.321.768.768 0 0 1 .182-.078c-.774-.313-1.521-.723-2.256-1.102-1.498-.794-2.69-2.044-4.211-2.806-2.973-1.59-6.151-2.786-9.309-3.869a19.43 19.43 0 0 0-3.944-.473c-.538.031-1.115.043-1.587.348-.453.27-.623.77-.774 1.243-.085.43-.05.922.027 1.332.515 1.434 1.78 2.42 2.609 3.67.712 1.07 1.443 2.243 1.683 3.517.02.27-.031.512-.127.727l-.004.007Z"/><path fill="#A4D357" d="M235.949 95.421c-.267.121-.577.211-.789.383-.446.262-.658.88-.535 1.368.062.187.132.367.178.55.732.298 1.448.638 2.145 1.013 6.885 3.837 11.991 10.805 13.864 18.492.925 3.622.809 7.272-.279 10.297.635-.661 1.251-1.333 1.796-2.032 0-.008.008-.012.012-.016a.816.816 0 0 1 .073-.152c.778-1.614 1.142-3.373 1.235-5.135.275-9.617-6.123-19.305-14.499-23.564a17.864 17.864 0 0 0-3.205-1.204h.004ZM168.156 12.626c.558-.101 1.115-.2 1.676-.274 3.012-.57 6.046-.988 9.069-1.469 1.301-.137 2.62-.054 3.913-.273a76.212 76.212 0 0 1 4.78-.696c-1.436-.524-2.833-1.2-4.195-1.825-1.982-.938-3.933-1.946-5.899-2.911-1.587-.887-3.066-1.962-4.78-2.603-2.017-.817-8.252-2.56-8.906.543-.089 2.2 1.97 3.392 3.011 5.061.611.805 1.057 1.716 1.223 2.72.143.559.294 1.172.104 1.727h.004Zm3.449-7.859c.151-.336.565-.496.898-.336 1.362.673 2.713 1.372 4.103 1.978.642-.25 1.192.688.662 1.145-.314.293-.771.32-1.146.133-1.424-.606-2.791-1.337-4.184-2.009a.692.692 0 0 1-.333-.907v-.004Zm-1.928-1.54c.368 0 .662.352.651.712a.692.692 0 0 1-.705.657c-.367 0-.662-.352-.65-.712a.692.692 0 0 1 .704-.656Z"/><path fill="#fff" d="M157.334 47.328c4.749 3.493 10.439 5.564 16.28 5.6 8.674.148 15.943-5.788 11.975-14.878-3.731-7.874-12.265-12.587-20.614-13.58-10.609-1.281-19.775 5.75-13.462 16.586 1.494 2.465 3.534 4.552 5.821 6.272Zm9.471-13.838-.027.008s.02-.008.027-.008Zm-.174-.07-.007.023s.007-.016.007-.023Zm-2.307 1.414c.171.293.395.56.674.743.252.168.503.308.786.418.224.082.48.164.72.184.096.007.193.011.29.011.399 0 .797-.07 1.146-.281a2.664 2.664 0 0 0 1.041-1.141c.062-.133.116-.266.158-.407a2.79 2.79 0 0 0 .268-.95c.073-.777-.252-1.523-.79-2.067 4.478-1.676 10.005.551 11.573 5.64 1.908 5.803-2.628 11.688-8.384 11.692a8.704 8.704 0 0 1-1.664-.164c-6.27-1.126-9.181-8.539-5.818-13.674v-.004Z"/><path fill="#A4D357" d="M73.811 34.76c.28-.137.527-.363.817-.336.244-.106.484-.196.639-.297 1.823-.907 3.665-1.774 5.477-2.704a67.306 67.306 0 0 1 1.579-.837c-1.405.098-2.837-.007-4.238.153-1.343.254-2.702.492-3.98.992-.8.403-1.478 1.009-2.19 1.548-1.142.883-1.664 2.227-2.195 3.52.871-.452 1.742-.906 2.61-1.363.479-.258.982-.469 1.478-.676h.003Z"/><path fill="#E2FFB4" d="M113.047 20.157c-1.447-.247-2.91-.708-4.265-1.114-2.233-.454-4.393-1.126-6.634-1.473-2.969-.266-5.957-.384-8.833.425-1.656.614-3.626 1.661-4.157 3.482-.383 1.204-.046 2.564-.491 3.744-.174.895-.422 1.813-.82 2.646 3.734-1.876 7.527-3.643 11.557-4.772 4.447-1.473 9.03-2.294 13.647-2.942l-.004.004Zm-16.837.906c-.367 0-.661-.352-.65-.711a.692.692 0 0 1 .705-.657c.367 0 .662.352.65.712a.692.692 0 0 1-.705.656Z"/><path fill="#A4D357" d="M225.967 114.273c.53.238 1.111.195 1.676.207 2.407.304 4.892-.547 6.417-2.497.817-1.04 1.448-2.216 1.316-3.58-.004-.41-.046-.825-.178-1.215-.139-.375-.337-.551-.391-.903-.766-.903-1.494-1.817-2.558-2.372-1.258-.954-2.791-1.415-4.277-1.856-.588-.114-1.126.187-1.614.48-.72.438-1.424.895-2.09 1.415-1.204 1.082-2.655 2.118-3.236 3.673-.36 1.532-.132 3.338 1.026 4.475 1.172.934 2.574 1.524 3.913 2.169l-.004.004Z"/><path fill="#E2FFB4" d="M73.603 97.371c-1.963 1.934-3.515 4.346-4.32 6.999-.298 2.384-.1 4.877.917 7.058.794 1.809 2.133 3.728 4.13 4.232.1-.024.198-.02.29.007a6.877 6.877 0 0 0 1.97-.961c1.82-1.418 3.434-3.263 4.212-5.475 1.347-4.576 1.145-9.386 2.101-14.037.136-.652.21-1.363.384-2.028-.333.145-.755.207-1.045.332-3.062.81-6.124 1.876-8.647 3.873h.008ZM148.552 100.779c-.283.121-.507.344-.755.523-.251.505-.209 1.091-.298 1.642.778-.196 1.537-.442 2.168-.598 1.916-.504 3.789-1.255 5.744-1.567-1.653-1.9-4.711-.481-6.859 0Z"/><path fill="#A4D357" d="M191.198 109.638c-1.564-.055-2.984.375-4.475.746-.511.203-.932.446-1.432.602a.837.837 0 0 1-.34.117c-2.501 2.071-4.873 4.291-6.751 6.972-.774.942-1.354 2.016-1.861 3.126-.697 1.426-1.378 2.81-1.429 4.385-.069 1.965.198 3.771.848 5.592.565 2.477 2.69 3.966 5.183 3.31.174-.071.344-.149.515-.227-.012-.074-.02-.149-.028-.223-.061-.535-.089-1.082.012-1.618.058-.551.256-1.082.67-1.465.96-.93 2.078-1.673 3.108-2.521 1.552-1.231 3.135-2.43 4.857-3.411 1.703-1.044 3.182-1.606 4.715.105.054.059.1.122.143.192 1.42-.832 2.872-1.614 4.265-2.462a36.714 36.714 0 0 0 4.099-3.173 6.222 6.222 0 0 0-.197-1.098c-1.87-4.905-6.522-9.027-11.895-8.949h-.007Zm-13.412 16.217c-.491-.836.763-1.528 1.192-.648.492.832-.758 1.528-1.192.648Zm5.218-8.253c-.023.301-.24.527-.434.731-.898.938-1.691 1.961-2.276 3.126-.379.574-.363 1.88-1.304 1.688-1.053-.383-.124-1.676.124-2.36.654-1.313 1.579-2.454 2.582-3.513.282-.743 1.401-.473 1.312.324l-.004.004ZM71.687 94.991a60.701 60.701 0 0 0-4.041-.07c-4.092.285-8.454 1.204-11.388 4.33-2.252 2.567-4.303 5.397-5.554 8.613-.077.199-.162.394-.251.59-.07.441-.113.891-.144 1.332-.209 2.744.36 5.749 2.056 7.933.963 1.259 2.303 2.63 3.96 2.689a.662.662 0 0 1 .367.031c.201-.027.403-.058.612-.086 3.499-.606 4.834-2.571 6.432-5.533 3.09-5.307 3.724-11.618 6.371-17.128.217-.438.856-1.708 1.572-2.704l.008.003Zm-16.628 20.571c-.368 0-.693-.266-.712-.648-.016-.36.274-.72.642-.72s.693.266.712.649c.016.36-.275.719-.642.719Zm9.107-6.69c-.364 1.34-1.177 2.517-1.881 3.697-.766 1.176-1.691 2.274-2.914 2.978-.573.308-1.618.969-1.974.062-.233-.824.754-.91 1.257-1.223 1.955-1.18 3.023-3.345 4.041-5.323.159-.492.283-1.129.952-1.004.357.078.608.446.523.809l-.004.004Z"/><path fill="#E2FFB4" d="M165.377 115.703c-1.281.801-2.516 2.137-2.69 3.697.008.09 0 .179-.015.269 1.591-.426 3.325-1.293 4.853-1.915 1.355-.594 2.752-1.039 4.173-1.414-.19-.43-.333-.883-.507-1.321-1.904-.473-4.099-.281-5.818.676l.004.008ZM191.027 126.047c-.607.344-1.207.711-1.796 1.09-2.105 1.497-4.18 3.072-6.142 4.752-.41.449-.403 1.118-.341 1.735 3.395-1.786 6.36-4.345 9.452-6.585a38.049 38.049 0 0 1 1.548-1.012c-.789-1.063-1.838-.504-2.721.02Z"/><path fill="#A4D357" d="M178.928 114.042c.751-.934 1.711-1.731 2.171-2.864.945-2.13.833-4.924-1.281-6.253a.845.845 0 0 1-.375-.254c-3.073-.484-6.185-.688-9.274-1.047a63.18 63.18 0 0 1-4.107-.649.7.7 0 0 1-.344.141c-.631.144-1.219.43-1.777.691-.754.235-1.397.606-1.935 1.188-2.454 2.681-4.672 7.277-4.405 10.974.414 3.247 1.905 4.095 3.774 3.939-.282-.79.372-2.368.755-2.833 1.463-2.56 4.478-3.811 7.327-3.643.917.059 2.005.008 2.74.641.41.567.515 1.321.844 1.942.964-.222 1.935-.425 2.903-.629a7.39 7.39 0 0 1 1.192-.219c.143-.199.399-.332.666-.359a3.307 3.307 0 0 0 1.122-.766h.004Z"/><path fill="#E2FFB4" d="M37.928 121.463c4.598-1.407 6.266-4.474 8.345-8.484 1.072-2.016 2.097-4.056 3.158-6.08.008-.032.015-.067.027-.098a.664.664 0 0 1 .166-.27 99.062 99.062 0 0 1 1.653-3.032 47.749 47.749 0 0 1 7.238-9.782c.434-.43.91-.816 1.393-1.184-2.798-.762-5.724-1.278-8.58-.734-.96.164-1.85.504-2.71.871-1.235.489-2.419.876-3.526 1.493-.372.2-.724.43-1.076.66-3.901 2.615-7.644 5.479-11.565 8.062-.07.086-.144.168-.217.242-4.06 4.35-6.518 11.341-3.333 16.851a9.717 9.717 0 0 0 3.674 1.723c.886.141 1.768.395 2.674.383.917-.074 1.808-.344 2.682-.621h-.003ZM17.2 80.482c.485-.149.96-.348 1.464-.415a.68.68 0 0 1 .159.016c2.14-.868 4.319-1.653 6.494-2.423 2.655-.793 5.318-1.516 7.966-2.286.081-.035.163-.059.252-.074.019-.004.038-.012.058-.016.483-.176.94-.426 1.416-.621a18.822 18.822 0 0 0 6.688-4.49c1.235-1.403 2.044-3.11 2.822-4.803-.29.031-.557.063-.747.11-1.397.187-2.794.41-4.196.566-2.53.23-5.066.156-7.59-.059-.135 0-.27-.011-.406-.035-1.494-.136-2.988-.32-4.47-.52-2.73-.422-5.385-1.223-8.121-1.586-1.355-.133-2.717-.082-4.08-.125-2.128-.219-4.126.266-6.15.832-2.98.82-5.252 2.681-6.096 5.76-.352 1.67-.608 3.119-.712 4.451.073.208.07.462.1.688.349 3.392 3.728 5.526 6.793 6.12 2.83.5 5.717-.063 8.365-1.094l-.008.004ZM30.585 51.017c.17.11.314.273.403.453 1.354.867 2.663 1.817 4.195 2.356 1.189.465 2.396.88 3.62 1.235.197-.058.429-.05.65 0 3.057.207 6.007-.852 8.697-2.227.39-.168.747-.434 1.11-.668a24.465 24.465 0 0 1-5.983-4.12c-1.932-1.762-3.542-3.915-5.822-5.24-1.687-1.219-4.04-1.985-6.115-1.488a.701.701 0 0 1-.515.336c-3.723 2.07-3.135 6.815-.24 9.363Z"/><path fill="#A4D357" d="M22.182 63.006c.023.011.043.031.066.043 2.237.473 4.459 1.016 6.735 1.258.94.106 1.885.203 2.825.29 1.568.038 3.128-.259 4.653-.595 3.77-.926 6.854-3.376 9.63-5.979-1.208-.238-2.408-.5-3.623-.707-2.857-.457-5.628-1.344-8.307-2.427-1.76-.688-3.212-1.91-4.842-2.833-2.852-1.575-5.995-3.275-9.347-2.939-2.357.426-3.51 1.571-4.51 3.701 0 .004-.003.008-.007.012a.637.637 0 0 1-.159.387c-1.323 4.61 2.973 8.405 6.882 9.789h.004Zm3.317-2.11c.124-.368.507-.524.863-.422.635.191 1.196.343 1.835.449 1.42.207 2.864.207 4.289.395a.688.688 0 0 1 .758.281c.43.836-.476 1.243-1.18 1.043-1.045-.234-7.16-.09-6.565-1.747Zm-2.771-2.064c.368 0 .693.266.712.649.015.36-.275.719-.642.719-.368 0-.693-.266-.713-.649-.015-.36.275-.719.643-.719ZM107.95 38.586a.726.726 0 0 1 .24.07c2.117 1.41 4.652 1.892 7.118 2.134 2.81.445 5.132-.274 7.393-1.938.046-.028.092-.055.139-.086-2.516-1.044-4.8-2.595-6.952-4.256-1.176-.938-2.295-1.966-3.595-2.732-2.466-1.535-5.299-1.133-6.84.845a.647.647 0 0 1-.116.297c-.085.12-.097.32-.128.425-.611 2.29.964 4.057 2.745 5.24h-.004Zm2.88-2.224c.282-.426.816-.332 1.161-.043.46.274 1.099.473 1.548.606.457.223 1.08.023 1.401.48.43.802-.476 1.279-1.161.997-.79-.262-3.646-.793-2.949-2.04Zm-1.731-2.317c.368 0 .693.266.713.649.015.36-.275.719-.643.719s-.693-.266-.712-.649c-.016-.36.275-.72.642-.72Z"/><path fill="#E2FFB4" d="M120.432 62.431a2.6 2.6 0 0 0-.321-.175c-1.32-.63-2.725-1.13-4.153-1.427-1.138.13-2.268.324-3.375.524-3.518.672-6.979 1.594-10.443 2.5-.081.02-.162.04-.24.063-.364.305-1.022.454-1.386.708a.25.25 0 0 1-.031.016c.008-.009.02-.013.028-.02-3.275 1.75-6.337 4.27-7.811 7.764-.109.282-.22.567-.287.86a.703.703 0 0 1 .028.254c.317.66.948 1.083 1.567 1.45 1.041.711 2.288.864 3.495.899 1.475.094 2.771-.66 4.018-1.352 4.834-2.9 8.6-7.222 13.655-9.762.701-.379 3.41-1.856 5.252-2.31l.004.008ZM99.558 47.609l.043.012c3.871-.141 7.73.086 11.569-.301.565-.176 1.235-.133 1.781-.325 1.927-.515 3.886-1.02 5.662-1.957.856-.505 1.552-1.083 2.249-1.763.12-.105.24-.25.368-.402a4.677 4.677 0 0 0-.759.011 30.976 30.976 0 0 1-8.256-1.004c-2.67-.676-5.113-1.923-7.714-2.798-1.931-.64-3.952-.98-5.93-1.082-3.019-.098-6.8 1.168-7.504 4.501a.467.467 0 0 1-.016.07.915.915 0 0 1-.004.501c.902 3.736 5.314 4.263 8.511 4.54v-.003Z"/><path fill="#A4D357" d="M117.061 66.156c-.894.109-1.765.328-2.632.566a42.058 42.058 0 0 0-3.634 2.47c-.333.266-.666.531-.995.801-.112.367-.445.754-.6 1.083-.383.805-.569 1.688-.639 2.57-.019 1.056-.038 2.2.504 3.139.023.015.042.035.061.055a7.085 7.085 0 0 0 2.385.113c4.702-1.02 6.235-6.167 9.076-9.453.232-.285.643-.883 1.103-1.368-1.544-.207-3.088-.277-4.629.023Zm-4.18 7.108c-.368 0-.693-.266-.712-.649-.016-.36.275-.719.642-.719.368 0 .693.266.712.649.016.36-.274.719-.642.719Zm4.23-3.064c-.58.367-1.238 1.54-1.962.809-.673-.938 1.049-1.641 1.548-2.247.248-.68 1.278-.524 1.312.207.035.551-.518.922-.898 1.227v.004Z"/><path fill="#C7F182" d="M220.115 85.304c2.074 1.29 4.13 2.595 6.049 4.091.051-.422.186-.836.38-1.215-1.541-1.759-1.967-4.228-2.245-6.514-.248-1.384-.294-2.787-.395-4.19-.089-1.203-.097-2.45.178-3.63-.569-.219-1.064-.625-1.533-1.035-.778-.622-1.482-1.325-2.144-2.068a3.988 3.988 0 0 0-.108-.129c.046.868.069 1.727.042 2.564.016.434.027.871.023 1.309.12 3.294.322 6.6-.131 9.875-.023.273-.035.637-.112.946l-.004-.004Z"/><path fill="#A4D357" d="M201.493 73.932c2.745 1.837 5.559 3.56 8.392 5.248.429.13.851.301 1.293.38 1.126.3 2.333.285 3.44.058 3.468-.473 4.254-3.408 4.359-6.366a44.134 44.134 0 0 0-.163-2.571c-.046-.547-.042-1.102-.093-1.65a.687.687 0 0 1 .027-.456c-2.276-3.35-3.862-7.16-6.251-10.446-.22-.274-.526-.555-.572-.868-2.532 1.016-5.052 2.032-7.815 1.92-2.826.128-4.962-1.423-7.354-2.326-.302.02-.662-.113-.968-.184-1.974-.242-2.961-.441-3.727 1.735-.314 1.278-.503 2.587-.484 3.904-.012.532.166 1.036.197 1.56.504.777 1.309 1.434 2.145 1.805 2.036.653 3.623.246 5.078-1.317.344-.508.902-.465 1.18-.172.02.016.035.023.055.04a.698.698 0 0 1-.051.964c-.456.395-.696.966-.936 1.509-.364.887-.372 1.848-.384 2.794-.069.563.267 1.797.105 2.556a84.082 84.082 0 0 0 2.524 1.88l.003.003ZM87.83 63.58c2.037.84 4.243.926 6.39.59 6.283-.91 12.348-3.169 18.595-4.26.329-.085.708-.113.979-.167 1.471-.31 2.907-.66 4.421-.579.897.07 1.598-.09 2.457-.086.07 0 .136.016.198.035-.043-.222-.089-.445-.124-.672-.205-2.11-.043-4.244-.089-6.366-.035-1.692.093-3.38.337-5.052-2.044.66-4.15 1.016-6.282 1.223a105.91 105.91 0 0 1-3.259.402c-.778.082-1.556.157-2.35.207-7.184.29-14.55-.719-21.01 3.205-2.442 1.493-4.292 4.197-4.001 7.159.275 2.321 1.691 3.533 3.743 4.365l-.004-.004Zm14.384-12.536c1.714-.008 3.487-.195 5.186-.281.848-.13 1.723-.157 2.551-.387.279-.297.762-.313 1.033.004.469.566-.139 1.172-.696 1.332-2.625.532-5.338.594-8.005.7-.886.011-.952-1.31-.066-1.368h-.003Zm-3.333.344c.368 0 .693.266.712.648.016.36-.275.72-.642.72-.368 0-.693-.266-.712-.65-.016-.359.274-.718.642-.718Z"/><path fill="#E2FFB4" d="M48.336 73.612c1.25 2.9 2.701 5.65 4.625 8.144.635.832 1.397 1.582 2.009 2.41.185.29.526.603.704.927.48.43.755 1.051 1.157 1.551.82 1.087 1.835 2.013 2.826 2.939 2.93 2.321 6.758 3.091 10.37 3.576 5.004.246 9.993-.481 14.723-2.103 5.252-2.008 10.353-4.462 15.78-5.975 1.792-.469 3.53-1.145 5.365-1.422 5.465-.7 10.996.219 16.221 1.864 4.641 1.547 8.953 3.978 13.528 5.678 2.616.836 5.248 1.63 7.845 2.528 4.742 1.759 9.348 3.889 14.074 5.694 4.292 1.325 8.674 2.376 13.14 2.896 3.747.406 7.521.629 11.217 1.418 6.324 1.071 12.107 3.892 17.894 6.55 5.31 2.634 10.582 5.342 16.051 7.636 4.025 1.731 8.294 3.212 12.711 3.048 1.827 0 3.653.086 5.252-.798 1.432-.578 2.903-1.102 4.169-2.008.658-.364 1.358-.704 1.811-1.325.372-.27.53-.824.797-1.153.047-.148.101-.285.144-.406 2.891-6.823-1.278-9.699-5.466-14.287-3.123-3.7-6.119-7.476-9.912-10.504-5.098-3.76-10.598-6.816-16.02-10.024-.318-.058-.651-.176-.778-.465a178.247 178.247 0 0 1-3.488-2.126c-4.18-2.634-8.461-5.342-11.646-9.203-1.622-2.09-3.217-4.2-4.788-6.33-.321-.41-.608-.84-.921-1.255a.732.732 0 0 1-.233-.422c-.092-.566.631-1.024 1.08-.637.411.399.689.919 1.053 1.36.085.117.174.23.259.348.093-1.438.252-2.904.713-4.224.499-2.134 1.076-4.252 1.877-6.292.631-1.255 1.262-2.517 1.927-3.755a43.26 43.26 0 0 1 2.598-3.521c1.668-1.786 3.293-3.697 5.438-4.905.367-.199.782-.484 1.215-.383.855.184.693 1.497-.197 1.384-2.385 1.262-4.169 3.396-5.934 5.4l-.042.055a.598.598 0 0 1-.039.281c-.12.223-.31.508-.387.712-.817 1.82-1.56 3.798-1.208 5.807.128 1.04.403 2.172 1.301 2.805.325.188.6.446.832.743.952.422 1.889.946 2.798 1.32 1.506.696 3.213.72 4.8.626 4.23-.59 7.977-3.275 12.231-3.685 1.769-.086 3.518.344 5.167.965a.698.698 0 0 1 .422.868.682.682 0 0 1-.859.426c-1.723-.65-3.616-1.11-5.442-.801-.004.003-.008.011-.016.015-.224.266-.341.614-.499.922-.778 2.29 0 4.81.902 6.952.17.262.325.614.301.919 1.378 2.505 2.841 4.959 4.963 6.846.774.637 1.521 1.54 2.601 1.474 1.025-.067 2.09-.223 3.011-.708a38.582 38.582 0 0 1 2.678-1.57c.306-.212.743-.083.933.222.445.836-.673 1.192-1.239 1.485-1.571 1.11-3.394 1.946-5.333 1.927-.047.199-.078.406-.112.605-.271 2.783.123 5.624.561 8.37.255 1.283.503 2.607 1.246 3.71.6.668 1.115 1.406 1.846 1.856.79.414 1.711.16 2.555.37.863.208.577 1.505-.298 1.333-.414-.03-.801-.05-1.165-.082a.644.644 0 0 1-.109.07c-.201.063-.387.153-.479.356-.283.551-.132 1.227.116 1.763a.647.647 0 0 1 .042.113c.407.406.809.817 1.204 1.235a.66.66 0 0 1 .24-.086c1.866-.235 3.789.015 5.585.535 1.092.336 2.156.774 3.193 1.29.24-1.454.155-2.943.449-4.389.101-.75.252-1.496.368-2.243a.727.727 0 0 1 .116-.496c.318-.492 1.161-.305 1.223.285-.027 1.173-.348 2.161-.48 3.294-.154 1.247-.12 2.58-.344 3.81 0 .137-.035.278-.089.403.464.266.921.547 1.37.844.074-.34.194-.684.232-.945.62-3.205 1.254-6.397 2.106-9.551.94-3.884 1.517-7.937 1.796-11.911.317-3.279.456-6.679-.728-9.805-1.107-4.154-3.851-7.476-6.077-11.051-3.007-4.795-6.193-9.606-9.266-14.342-2.125-3.134-4.083-6.374-6.108-9.57-2.016-3.017-4.222-5.905-6.525-8.703-4.211-4.803-8.02-8.265-14.426-9.601-2.156-.38-4.323-.852-6.51-.88-4.118.051-8.225.461-12.297 1.048-1.931.449-3.909.426-5.875.59-3.112.523-6.247.934-9.348 1.54-1.262.175-2.45.418-3.692.632-.449.012-1.061.168-1.587.196-.449.055-.894.121-1.339.191-2.609.438-5.241.68-7.842 1.177-5.547.941-11.159 1.395-16.733 2.149-5.531.742-11.058 1.5-16.589 2.255-7.176.977-14.452 1.594-21.377 3.841-6.506 1.837-12.478 5.166-18.486 8.167-1.459.75-3.019 1.525-4.486 2.212-.898.442-1.796.887-2.694 1.321a.534.534 0 0 1-.216.05c-.12.056-.24.102-.356.134-.562.238-1.092.523-1.63.813-1.312.68-2.628 1.36-3.936 2.043a.653.653 0 0 1-.561.297c-.976.512-1.947 1.02-2.919 1.54-7.191 3.845-10.481 6.393-14.68 13.595-3.856 6.73-4.835 11.79-1.967 19.18l.012.008Zm171.632 32.974c1.045-1.751 2.655-3.111 4.269-4.314 2.171-1.517 3.278-2.146 5.829-.954 1.695.5 3.228 1.516 4.555 2.673.403.426.751.915 1.154 1.337a.675.675 0 0 1 .263.512c2.671 4.74-2.5 10.371-7.377 10.047-1.44-.02-2.903.007-4.169-.798-1.227-.644-2.574-1.184-3.561-2.184-1.509-1.645-1.807-4.283-.963-6.319Zm.894-39.95c-1.072-1.356-1.978-2.911-2.443-4.587-.062-.727-.747-2.158.295-2.396a.686.686 0 0 1 .77.575c.1.722.193 1.45.449 2.137.518 1.266 1.138 2.364 1.985 3.416.546.695-.491 1.547-1.056.86v-.005Zm20.247 18.371a.69.69 0 0 1 .696.664c.012.364-.29.704-.658.704a.69.69 0 0 1-.696-.665c-.012-.363.29-.703.658-.703Zm-17.526-15.756a.692.692 0 0 1-.693-.669c-.008-.367.294-.7.662-.7.367 0 .685.294.693.67.007.366-.295.699-.662.699Zm.077-35.988a.69.69 0 0 1 .697.665c.011.363-.287.703-.658.703a.686.686 0 0 1-.697-.664c-.012-.364.286-.703.658-.703Zm-6.781-8.202a.685.685 0 0 1 .96-.023c.933.906 1.637 2.024 2.434 3.044.856 1.043 1.734 2.083 2.377 3.278.453.766-.681 1.477-1.154.72-.925-1.712-2.33-3.084-3.421-4.682-.31-.399-.631-.793-.968-1.169-.364-.277-.588-.789-.224-1.168h-.004Zm-53.6 72.146c-.077.352-.46.614-.812.516-3.952-1.086-7.831-2.517-11.488-4.377-.422-.222-.809-.531-1.27-.672-.422-.07-.813-.406-.7-.875.224-.813 1.091-.48 1.633-.22 2.586 1.54 5.349 2.537 8.136 3.588a65.5 65.5 0 0 0 3.994 1.227c.356.102.596.446.507.821v-.008Zm3.55 1.204a.695.695 0 0 1-.705-.657c-.015-.363.283-.71.651-.71.367 0 .688.276.704.656.015.363-.283.71-.65.71Zm11.743-40.888c-1.316.278-2.675.352-4.014.278-2.674-.204-5.411-.04-8-.864-1.301-.379-2.586-.82-3.809-1.407-.333-.16-.491-.563-.333-.906.488-.9 1.456.027 2.125.195 2.044.797 4.2 1.372 6.375 1.446 1.599.05 3.193.156 4.792.203.735-.02 1.471-.09 2.198-.203.449-.149 1.049-.121 1.173.438a.691.691 0 0 1-.507.82Zm3.29-.043c-.368 0-.662-.351-.65-.711a.69.69 0 0 1 .704-.657c.368 0 .662.352.65.712a.69.69 0 0 1-.704.656Zm-19.469-37.863c2.713.04 5.407.27 8.024 1.04 2.705.617 5.194 1.883 7.694 3.024.844.282.453 1.548-.402 1.306-2.125-.891-4.161-2.06-6.406-2.661-2.976-.97-5.895-1.317-8.964-1.34-.879-.06-.84-1.384.058-1.369h-.004Zm-2.16-.007c.368 0 .662.351.651.71a.692.692 0 0 1-.705.657c-.368 0-.662-.351-.65-.71a.691.691 0 0 1 .704-.657Zm-3.565 4.208c5.036-1.512 10.501-.86 15.378.934 8.264 2.986 18.072 11.407 15.56 21.216-1.993 6.596-9.665 8.816-15.835 8.261-5.461-.43-10.798-2.509-15.203-5.772-4.087-3.064-7.672-7.429-8.372-12.661-.805-5.737 3.166-10.485 8.472-11.974v-.004Zm-72.859 30.68c1.583-2.59 4.169-4.24 7.048-5.279-1.672-2.052-1.668-5.498-.855-7.878 1.11-3.119 4.614-4.6 7.699-4.693 1.865-.047 3.746.195 5.565.656a3.43 3.43 0 0 1-.17-.629c-.735-4.678 3.964-8.636 8.361-6.776 1.861.64 3.363 1.965 4.865 3.204 1.594 1.305 3.321 2.458 5.101 3.482.767.422 1.568.782 2.381 1.098a.663.663 0 0 1 .371.024c.395-.669.805-1.325 1.157-2.005a.69.69 0 0 1 .678-.684c1.041.094.662 1.372.205 1.927-1.537 2.38-2.651 5.045-3.437 7.764-.643 2.955-.863 5.929-.766 8.93-.016 2.329-.105 4.666.538 6.928.685 2.627 1.629 5.174 2.674 7.672.321.82-.886 1.363-1.246.531-.287-.688-.561-1.383-.836-2.079-.194.18-.418.344-.581.5-1.653 1.958-3.178 4.228-4.521 6.48-1.726 2.434-4.331 4.77-7.466 4.7-2.175.102-6.034-1.52-6.537-3.88-.562.39-1.131.77-1.719 1.122-1.842 1.164-3.886 1.922-6.084 1.516-1.77-.16-3.53-1.079-4.68-2.45-.561-.856-.894-1.884-.879-2.916.182-2.083.64-4.236 1.677-6.065-.844.02-1.692-.02-2.54-.14-2.09-.41-4.261-1.247-5.728-2.857-1.842-2.317-1.703-5.705-.283-8.206l.008.004ZM69.45 40.893c1.796-.911 3.685-1.618 5.52-2.443.63-.273 1.308-.492 1.873-.899.29-.281.763-.324 1.037.004.558.72-.394 1.259-.956 1.532-2.148.977-4.354 1.817-6.483 2.837-.526.262-1.056.512-1.571.794-.465.28-1.119.789-1.54.16-.612-1.02 1.486-1.56 2.117-1.99l.003.005Zm-4.714 2.86c.368 0 .693.266.712.649.016.36-.275.719-.642.719-.368 0-.693-.266-.713-.649-.015-.36.275-.719.643-.719Zm-.073 44.772c1.358.57 2.755.946 4.176 1.22 1.517.148 3.054.156 4.567.12.507-.105 1.095-.473 1.413.172.375 1.122-1.254 1.224-2.001 1.22-2.334 0-4.66-.02-6.878-.829a14.105 14.105 0 0 1-1.723-.613.688.688 0 0 1-.387-.352c-.267-.512.298-1.16.836-.938h-.004Zm-2.47-1.266c.368 0 .693.266.712.649.016.36-.275.719-.642.719-.368 0-.693-.266-.712-.65-.016-.359.274-.718.642-.718Z"/><path fill="#A4D357" d="M31.797 101.666c2.628-1.759 5.205-3.6 7.81-5.416.933-.669 1.874-1.337 2.818-1.997.116-.137.271-.25.441-.317.136-.09.271-.18.41-.27 2.915-2.004 5.919-3.895 9.14-5.33 1.02-.398 2.012-1.023 3.076-1.254a25.512 25.512 0 0 1-.716-.989.742.742 0 0 1-.24-.309c-1.56-1.938-3.24-3.763-4.52-5.912-1.425-2.376-2.73-4.979-3.6-7.687-3.642 1.466-7.312 2.904-11.07 4.037l-1.208.328a2.663 2.663 0 0 1-.449.121c-8.797 2.4-17.669 5.19-25.232 10.407-4.01 2.833-7.633 7.589-7.021 12.77.6 3.721 2.682 7.617 6.413 8.86 5.81 2.665 12.1-.012 17.267-2.915 2.226-1.235 4.366-2.584 6.468-3.986a.564.564 0 0 1 .216-.145l-.003.004Zm5.701-9.05c1.196-.747 2.38-1.517 3.611-2.212 1.87-1.145 3.782-2.228 5.852-2.959.504-.168 1.216-.531 1.526.118.154.332.011.758-.326.91-3.065.961-5.747 2.732-8.48 4.369-.7.301-1.688 1.579-2.38.715-.194-.3-.12-.758.197-.945v.003Zm-2.493 1.383c.778.516-.166 1.856-.913 1.34-.778-.516.159-1.856.913-1.34Z"/><path fill="#000" d="M89.816 65.558c.848.12 1.695.16 2.54.14-1.038 1.83-1.495 3.986-1.677 6.065-.015 1.032.322 2.056.879 2.915 1.146 1.368 2.907 2.29 4.68 2.45 2.198.403 4.242-.355 6.084-1.516a34.748 34.748 0 0 0 1.719-1.121c.503 2.356 4.362 3.982 6.537 3.88 3.131.067 5.736-2.266 7.466-4.7 1.343-2.248 2.868-4.522 4.521-6.48.163-.16.387-.324.581-.5.271.695.549 1.391.836 2.079.363.832 1.567.289 1.246-.532-1.045-2.497-1.99-5.045-2.675-7.67-.642-2.263-.553-4.604-.538-6.93-.096-3 .128-5.974.767-8.929.785-2.72 1.9-5.385 3.437-7.765.457-.555.836-1.828-.205-1.926a.69.69 0 0 0-.678.684c-.352.68-.766 1.336-1.157 2.005a.706.706 0 0 0-.372-.024 19.047 19.047 0 0 1-2.38-1.098c-1.784-1.024-3.511-2.177-5.101-3.482-1.502-1.239-3.004-2.56-4.866-3.204-4.397-1.857-9.095 2.098-8.36 6.776.035.191.089.422.17.629-1.819-.461-3.7-.703-5.566-.657-3.084.094-6.583 1.575-7.698 4.694-.813 2.38-.817 5.822.855 7.878-2.88 1.043-5.465 2.692-7.048 5.28-1.42 2.496-1.56 5.885.282 8.206 1.468 1.61 3.639 2.446 5.729 2.856l-.008-.004Zm11.705 8.94c-1.247.692-2.543 1.447-4.018 1.353-1.211-.035-2.458-.188-3.495-.9-.62-.366-1.25-.788-1.567-1.449a.704.704 0 0 0-.028-.254c.066-.297.178-.578.287-.86 1.474-3.493 4.536-6.014 7.811-7.764.363-.254 1.021-.403 1.385-.708.082-.02.163-.039.24-.062 3.46-.91 6.925-1.83 10.443-2.501a49.815 49.815 0 0 1 3.375-.524c1.428.293 2.833.797 4.153 1.426.109.047.213.11.321.176-1.842.458-4.551 1.935-5.252 2.31-5.055 2.536-8.821 6.858-13.655 9.761V74.5Zm19.066-7.002c-2.841 3.286-4.374 8.433-9.076 9.453a7.295 7.295 0 0 1-2.385-.114.397.397 0 0 0-.061-.054c-.546-.938-.523-2.083-.504-3.138.074-.887.26-1.767.639-2.572.155-.324.484-.71.6-1.082.329-.27.662-.535.995-.801a43.355 43.355 0 0 1 3.634-2.47c.867-.238 1.738-.457 2.632-.567 1.541-.304 3.085-.234 4.629-.023-.46.489-.871 1.082-1.103 1.368Zm-15.378-34.15c.031-.106.039-.305.128-.427a.606.606 0 0 0 .116-.297c1.541-1.98 4.378-2.38 6.84-.844 1.3.77 2.419 1.794 3.595 2.732 2.152 1.66 4.436 3.212 6.952 4.256-.051.03-.097.058-.14.086-2.26 1.668-4.582 2.387-7.392 1.938-2.462-.242-5.001-.723-7.118-2.134a.666.666 0 0 0-.24-.07c-1.781-1.184-3.356-2.95-2.744-5.24h.003Zm-14.154 9.218c.004-.024.007-.047.015-.07.705-3.334 4.486-4.6 7.505-4.502 1.974.101 3.995.445 5.93 1.082 2.597.876 5.043 2.126 7.714 2.798a30.972 30.972 0 0 0 8.256 1.005c.197-.032.464-.024.759-.012-.128.152-.248.297-.368.402-.697.68-1.394 1.259-2.249 1.763-1.777.938-3.735 1.442-5.663 1.957-.545.192-1.215.149-1.78.325-3.84.387-7.699.16-11.57.3-.015 0-.026-.007-.042-.01-3.193-.274-7.61-.806-8.511-4.542a.914.914 0 0 0 .004-.5v.004Zm-2.961 9.484c6.46-3.923 13.825-2.911 21.009-3.204.794-.051 1.572-.125 2.35-.207.034 0 .069-.008.1-.012 1.045-.113 2.09-.246 3.159-.39 2.132-.208 4.238-.564 6.282-1.224-.244 1.672-.376 3.365-.337 5.053.046 2.118-.112 4.255.089 6.366.035.226.081.449.124.672a.807.807 0 0 0-.198-.035c-.855 0-1.56.156-2.457.086-1.514-.082-2.946.27-4.421.578-.271.055-.65.082-.979.168-6.247 1.09-12.312 3.349-18.594 4.26-2.148.332-4.355.25-6.39-.59-2.052-.833-3.468-2.044-3.743-4.366-.29-2.962 1.564-5.666 4.002-7.159l.004.004Z"/><path fill="#000" d="M100.539 64.612s-.016.008-.024.016-.02.012-.028.02l.056-.032-.004-.004ZM224.492 115.089c1.266.805 2.729.778 4.169.797 4.877.325 10.048-5.306 7.377-10.047a.673.673 0 0 0-.263-.511c-.403-.423-.747-.911-1.154-1.337-1.327-1.157-2.86-2.173-4.555-2.673-2.551-1.192-3.662-.563-5.829.954-1.614 1.203-3.224 2.563-4.269 4.314-.844 2.036-.546 4.674.963 6.319.987 1.004 2.334 1.543 3.561 2.184Zm-3.468-7.46c.581-1.555 2.032-2.591 3.236-3.673.666-.524 1.37-.977 2.09-1.415.488-.293 1.03-.59 1.614-.48 1.49.441 3.023.902 4.277 1.856 1.068.555 1.796 1.469 2.559 2.372.054.352.255.527.39.903.132.39.175.805.178 1.215.132 1.368-.499 2.544-1.315 3.579-1.525 1.95-4.014 2.802-6.418 2.498-.565-.012-1.149.027-1.676-.208-1.339-.644-2.74-1.234-3.913-2.168-1.161-1.138-1.389-2.943-1.026-4.475l.004-.004Z"/><path fill="#000" d="M43.393 119.861c.716-.692 1.316-1.473 1.858-2.302.27.305.557.598.867.871 2.094 1.904 4.776 3.217 7.574 3.6 2.737 0 5.883-.329 8.059-2.154 1.409-1.406 2.5-2.989 3.398-4.677 1.606 1.399 5.09 2.102 6.867 2.215 4.752.192 8.809-3.821 10.206-8.171 1.223-4.431 1.088-9.058 1.974-13.564.252-1.024.186-2.259.863-3.107a.74.74 0 0 0 .155-.238c.55-.191 1.092-.395 1.633-.614 6.02-2.567 12.065-4.966 18.436-6.565 5.202-.879 10.528-.054 15.552 1.403 3.309 1.016 6.448 2.529 9.614 3.924 4.045 2.067 8.473 3.087 12.734 4.584-.367.277-.63.629-.929 1.016a3.36 3.36 0 0 0-.572 1.129v.008c-.252.848-.217 1.778-.113 2.665-.054 2.024.894 4.314 3.097 4.639 1.42.328 2.825-.122 4.168-.551a73.869 73.869 0 0 0 3.658-1.009c1.939-.785 4.01-.957 6.077-1.07.286.066.642.031.921.054 1.146.118 2.272.403 3.36.821-.86.359-1.583.993-2.199 1.704-2.771 3.314-5.345 8.921-4.099 13.275.585 1.688 1.874 3.388 3.759 3.552 2.159.172 4.191-.817 6.158-1.583a38.327 38.327 0 0 1 6.049-2.208c1.719-.32 3.414-.758 5.14-1.008a23.616 23.616 0 0 0-2.171 3.361c-.917 1.883-1.978 3.829-1.927 5.99-.074 2.091.309 4.178 1.045 6.128.545 2.059 2.341 3.802 4.486 3.986 1.381.152 2.74-.195 3.905-.95 2.616-1.27 4.919-3.04 7.226-4.799 1.545-1.137 3.074-2.379 4.761-3.341 1.831-1.141 3.762-2.04 5.547-3.286 3.057-1.946 5.387-4.736 8.163-7.038a.617.617 0 0 0 .185-.274c1.572.751 3.155 1.474 4.761 2.153 2.667 1.169 5.357 2.33 8.159 3.072-.236.66.763 1.579 1.038 2.153 3.464 5.034 8.499 9.379 14.53 10.758 4.644.985 8.205-.218 10.586-2.661.379-.129.766-.535 1.049-.805.971-.754 1.753-1.79 2.655-2.649.631-.692 1.366-1.302 1.827-2.126a1.13 1.13 0 0 0 .213-.383c.658-1.399 1.052-2.923 1.219-4.459.805-8.687-4.06-18.062-11.213-23.459a.621.621 0 0 0 .062-.46c.096-.419.197-.837.286-1.255.55-2.532.917-5.17 1.661-7.675a74.886 74.886 0 0 0 2.237-13.85c.213-2.512.433-5.11-.07-7.608-.341-1.653-.902-3.247-1.486-4.83-1.32-3.517-3.809-6.405-5.725-9.594-3.208-5.142-6.568-10.207-9.92-15.318-3.038-4.639-5.779-9.492-9.262-13.822-2.934-3.83-6.166-7.593-10.211-10.254-3.402-2.326-7.528-3.115-11.522-3.72-2.547-.4-5.125-.13-7.683-.02-.039 0-.082.008-.12.012-1.885-.036-3.708-.821-5.473-1.45-2.93-1.34-5.822-2.779-8.694-4.244-2.469-1.595-5.178-3.04-8.116-3.517-1.788-.282-3.762-.508-5.465.254-1.684.91-2.118 2.774-1.386 4.482.662 1.895 2.535 2.986 3.429 4.764.294.473.387 1.027.515 1.563.019.285.29.742.015.945-1.761.532-3.448-.64-4.977-1.387-1.219-.676-2.199-1.707-3.437-2.36-2.62-1.505-5.415-2.661-8.268-3.634-2.167-.966-4.617-1.317-6.974-1.173-2.272.067-3.492 2.58-2.896 4.62.391 1.434 1.533 2.332 2.396 3.54.743.938 1.459 2.153 1.839 3.325-.012.454-1.096.2-1.397.137-1.506-.45-2.81-1.407-4.343-1.801-2.818-.805-5.311-2.165-8.152-3.025-1.583-.418-3.158-.899-4.772-1.18-2.88-.356-6.193-.266-8.627 1.5-1.913 1.724-.79 5.221-.248 7.398-.008-.024-.016-.047-.02-.07v-.004c.086.437.128.957-.027 1.383-.333.106-.696-.074-1.033-.125-2.35-.602-4.819-1.063-7.149-1.802-2.287-.437-4.509-1.215-6.832-1.45-3.185-.23-6.471-.343-9.529.72-2.822 1.219-4.997 3.177-4.737 6.514a11.448 11.448 0 0 1-1.347 4.592c-.623.57-1.53.695-2.307.957-1.908.54-4.018.192-5.984.434-1.49.266-2.996.543-4.409 1.11-1.737.965-3.41 2.266-4.358 4.064-.402.899-.689 1.837-1.204 2.68-.112.223-.317.474-.483.731-1 .52-2.001 1.044-2.996 1.575-3.166 1.83-6.503 3.482-9.177 6.038-1.669 1.665-3.248 3.591-4.653 5.662a.737.737 0 0 0-.217-.047c-2.883-1.215-5.434-3.204-7.613-5.47-1.95-2.103-4.118-4.092-6.758-5.26-2.044-.684-4.416-1.083-6.39 0-1.25.62-2.578 1.258-3.402 2.446a25.39 25.39 0 0 0-1.614 2.657c-.217.485-.654 1.735-.6 2.607-1.456-.419-2.95-.61-4.479-.391-1.908.379-3.758 1.387-4.671 3.185-2.168 3.321-2.47 7.636-1.142 11.344-.217-.004-.434-.008-.65-.015-2.85.258-5.752.98-8.225 2.477C1.633 66.968.96 70.911.6 74.581c-.167 2.153-.062 4.423.89 6.397 1.103 2.349 2.547 4.607 4.529 6.295-2.927 2.533-5.19 5.714-5.926 9.743-.542 4.072 1.173 8.343 4.11 11.137 1.928 1.696 4.544 2.442 7.01 2.927 3.104.352 6.092-.27 8.953-1.376.011 1.849.832 3.584 1.71 5.178 1.18 2.208 3.124 3.849 5.14 5.248.283.305.585.583.902.837.159.195.349.359.592.453.008 0 .02 0 .027.004 1.53 1.032 3.352 1.606 5.172 1.868 3.12.621 7.404-1.305 9.676-3.443l.008.012Zm20.351-5.037c-1.598 2.966-2.934 4.927-6.433 5.533-.205.027-.41.055-.611.086a.705.705 0 0 0-.368-.031c-1.657-.059-3-1.431-3.96-2.689-1.699-2.184-2.264-5.193-2.055-7.933.031-.445.074-.891.143-1.332.09-.196.175-.391.252-.59 1.25-3.213 3.298-6.046 5.554-8.613 2.93-3.126 7.292-4.045 11.387-4.33a60.519 60.519 0 0 1 4.041.07c-.716.997-1.355 2.267-1.571 2.704-2.648 5.511-3.282 11.818-6.371 17.128l-.008-.003Zm19.167-19.626c-.956 4.65-.755 9.461-2.102 14.037-.778 2.212-2.392 4.057-4.21 5.475a7.036 7.036 0 0 1-1.97.962.594.594 0 0 0-.291-.008c-1.997-.504-3.337-2.423-4.13-4.232-1.018-2.185-1.215-4.678-.917-7.058.805-2.653 2.357-5.064 4.32-6.999 2.523-1.993 5.584-3.064 8.646-3.873.286-.124.712-.191 1.045-.332-.174.665-.248 1.376-.383 2.028h-.008Zm63.303 7.124c-.035.266-.116.587-.128.884-1.393.136-2.628-.215-3.026-1.978-.167-.852-.14-1.735-.229-2.602a2.376 2.376 0 0 1 .066-.743c.174-.125.337-.277.468-.41 1.672-1.141 3.546-.88 5.346-.192.282.118.565.239.851.356.67.3 1.324.64 1.947.97-.267.058-.53.128-.786.21-1.056.328-2.241.368-3.193.97-.979.574-1.293 1.43-1.316 2.535Zm3.449.024c-.635.156-1.394.406-2.168.598.089-.551.047-1.137.298-1.641.248-.18.472-.403.755-.524 2.148-.481 5.206-1.903 6.859 0-1.955.312-3.828 1.063-5.744 1.567Zm17.862 15.408c-1.529.618-3.263 1.485-4.853 1.915.015-.09.023-.179.015-.269.174-1.56 1.409-2.9 2.69-3.697 1.719-.958 3.913-1.153 5.818-.676.174.437.317.891.507 1.321-1.421.371-2.818.816-4.173 1.414l-.004-.008Zm9.615-2.587a6.908 6.908 0 0 0-1.192.219c-.972.2-1.939.403-2.903.629-.329-.617-.434-1.371-.844-1.942-.735-.633-1.827-.582-2.74-.641-2.845-.168-5.864 1.083-7.327 3.642-.384.466-1.038 2.044-.755 2.834-1.87.156-3.356-.692-3.774-3.939-.267-3.697 1.951-8.293 4.405-10.974.538-.582 1.18-.949 1.935-1.188.557-.261 1.146-.547 1.777-.691a.695.695 0 0 0 .344-.141 63.18 63.18 0 0 0 4.107.649c3.089.359 6.2.562 9.274 1.047a.906.906 0 0 0 .375.254c2.113 1.329 2.226 4.119 1.281 6.253-.464 1.137-1.424 1.93-2.171 2.864-.314.336-.705.59-1.123.766-.267.027-.522.156-.665.359h-.004Zm15.06 11.872c-3.092 2.24-6.057 4.799-9.452 6.585-.062-.613-.069-1.282.341-1.735 1.962-1.68 4.033-3.255 6.142-4.752a37.482 37.482 0 0 1 1.796-1.09c.887-.524 1.932-1.083 2.721-.02a33.2 33.2 0 0 0-1.548 1.012Zm6.99-4.181c-1.389.844-2.841 1.63-4.265 2.462a1.398 1.398 0 0 0-.143-.191c-1.533-1.712-3.012-1.149-4.715-.106-1.722.981-3.305 2.181-4.857 3.412-1.03.844-2.148 1.59-3.108 2.52-.414.379-.612.914-.67 1.465-.1.536-.073 1.079-.011 1.618.007.075.015.149.027.223-.171.078-.341.152-.515.227-2.493.66-4.618-.829-5.183-3.31-.65-1.821-.913-3.627-.847-5.592.05-1.571.731-2.959 1.428-4.385.507-1.11 1.084-2.184 1.862-3.126 1.877-2.681 4.249-4.897 6.75-6.972a.818.818 0 0 0 .34-.117c.5-.156.922-.398 1.433-.602 1.49-.371 2.91-.801 4.474-.746 5.372-.078 10.025 4.044 11.894 8.949.105.355.159.731.198 1.098a36.441 36.441 0 0 1-4.099 3.173h.007Zm50.604 2.337c-1.928 9.742-11.627 9.879-18.552 5.033-3.189-2.145-5.887-5.088-7.95-8.378a22.38 22.38 0 0 0 2.857.406c2.771.051 5.771.446 8.321-.875 1.576-.602 3.124-1.274 4.529-2.224.782-.39 1.463-.91 1.993-1.621.19-.227.476-.567.647-.915a.6.6 0 0 0 .17-.25c.225-.672.406-1.211.623-1.926 1.699-4.08-.058-7.953-2.91-10.946a10.239 10.239 0 0 1-.221-.239c.197-.219.391-.445.712-.437.167-.008.325.035.488.043l.081.066c6.077 5.451 10.551 13.849 9.212 22.259v.004Zm3.855-5.006c-.093 1.766-.457 3.525-1.235 5.135a.758.758 0 0 0-.073.152c0 .008-.008.012-.012.016a25.958 25.958 0 0 1-1.796 2.032c1.088-3.025 1.204-6.675.279-10.297-1.873-7.687-6.979-14.654-13.864-18.492a21.907 21.907 0 0 0-2.145-1.012c-.046-.188-.116-.367-.178-.551-.127-.492.089-1.11.534-1.368.209-.172.523-.266.79-.383 1.092.293 2.164.7 3.205 1.204 8.372 4.255 14.774 13.947 14.499 23.564h-.004Zm-86.82-112.01c-1.042-1.668-3.101-2.856-3.012-5.06.654-3.107 6.89-1.36 8.906-.544 1.711.645 3.194 1.72 4.781 2.603 1.966.965 3.917 1.973 5.898 2.911 1.363.622 2.76 1.298 4.196 1.825a76.06 76.06 0 0 0-4.78.696c-1.293.215-2.613.137-3.913.273-3.023.481-6.058.9-9.069 1.47-.561.074-1.119.172-1.676.273.19-.555.039-1.168-.104-1.727-.167-1.004-.616-1.915-1.223-2.72h-.004Zm-22.697 3.45c-.825-1.246-2.094-2.235-2.609-3.669-.074-.41-.108-.902-.027-1.332.155-.473.325-.973.774-1.243.468-.305 1.045-.316 1.587-.348a19.43 19.43 0 0 1 3.944.473c3.158 1.079 6.336 2.278 9.309 3.869 1.521.758 2.713 2.012 4.211 2.806.735.375 1.482.789 2.256 1.102a.6.6 0 0 0-.182.078c-.665.098-1.331.207-1.997.32-2.218.305-4.443.567-6.645.981-3.008.52-6.039.872-9.069 1.216.1-.216.147-.458.128-.727-.24-1.278-.976-2.447-1.684-3.517l.004-.008Zm-25.987.173c2.891-1.732 6.584-1.462 9.719-.598 2.752.59 5.349 1.77 7.961 2.798 1.196.453 2.427.8 3.627 1.242.778.333 1.537.766 2.319 1.095-.31.039-.624.074-.933.117-5.535.695-11.062 1.473-16.593 2.227-1.978.29-3.964.54-5.949.79.166-1.09-.294-2.161-.484-3.232-.155-1.426-.921-3.31.325-4.435l.008-.004Zm-29.482 13.42c.445-1.181.108-2.537.491-3.745.53-1.82 2.5-2.864 4.157-3.481 2.876-.81 5.864-.692 8.833-.426 2.237.343 4.397 1.016 6.634 1.473 1.355.406 2.822.867 4.265 1.114-4.617.648-9.2 1.469-13.647 2.942-4.03 1.13-7.823 2.896-11.558 4.772.399-.833.647-1.751.82-2.646l.005-.004Zm-16.748 8.061c.712-.54 1.393-1.145 2.19-1.548 1.278-.5 2.636-.738 3.98-.992 1.4-.16 2.833-.05 4.238-.152-.53.273-1.06.547-1.58.836-1.81.926-3.653 1.797-5.476 2.704-.155.102-.395.195-.639.297-.29-.027-.538.2-.817.336-.495.207-.998.418-1.478.676-.867.461-1.738.91-2.609 1.364.53-1.297 1.049-2.642 2.195-3.521h-.004Zm-6.928 7.554a259.46 259.46 0 0 1 2.918-1.54c.22 0 .441-.098.561-.297 1.312-.684 2.624-1.364 3.937-2.044.534-.289 1.068-.574 1.63-.813.111-.03.235-.078.355-.132.074 0 .147-.02.217-.051.902-.434 1.796-.88 2.694-1.321a149.012 149.012 0 0 0 4.486-2.212c6.007-3.001 11.98-6.33 18.486-8.167 6.928-2.247 14.204-2.865 21.377-3.842 5.531-.754 11.058-1.516 16.589-2.254 5.57-.755 11.186-1.208 16.732-2.15 2.597-.496 5.233-.738 7.842-1.176.445-.07.894-.137 1.339-.191.527-.028 1.138-.184 1.587-.196 1.243-.215 2.435-.453 3.693-.633 3.1-.606 6.235-1.016 9.347-1.54 1.962-.164 3.94-.14 5.876-.59 4.071-.59 8.182-.996 12.296-1.047 2.187.027 4.359.5 6.511.88 6.405 1.336 10.21 4.798 14.425 9.6 2.303 2.799 4.509 5.687 6.526 8.704 2.024 3.196 3.987 6.436 6.108 9.57 3.073 4.736 6.258 9.543 9.266 14.341 2.225 3.576 4.97 6.898 6.077 11.052 1.188 3.126 1.048 6.526.727 9.805-.278 3.978-.855 8.026-1.796 11.91-.851 3.154-1.486 6.347-2.105 9.551-.035.262-.155.606-.233.946-.449-.3-.909-.578-1.37-.844.054-.125.085-.266.089-.403.225-1.23.19-2.563.345-3.81.131-1.133.453-2.122.48-3.294-.062-.594-.906-.778-1.223-.285a.721.721 0 0 0-.116.496c-.117.746-.268 1.493-.368 2.243-.294 1.442-.209 2.935-.449 4.389a21.404 21.404 0 0 0-3.193-1.29c-1.796-.52-3.72-.774-5.586-.535a.612.612 0 0 0-.24.086 59.117 59.117 0 0 0-1.203-1.235.753.753 0 0 0-.043-.114c-.248-.535-.399-1.211-.116-1.762.093-.203.279-.297.48-.356a.637.637 0 0 0 .108-.07c.364.031.751.05 1.165.082.875.172 1.158-1.13.298-1.332-.843-.208-1.765.043-2.554-.372-.732-.45-1.247-1.188-1.846-1.856-.744-1.098-.987-2.427-1.247-3.709-.437-2.75-.832-5.588-.561-8.37.039-.203.07-.406.112-.606 1.939.024 3.762-.816 5.334-1.926.565-.293 1.68-.649 1.238-1.485-.185-.309-.627-.434-.932-.223a39.975 39.975 0 0 0-2.679 1.571c-.921.485-1.985.64-3.011.707-1.08.067-1.827-.836-2.601-1.473-2.125-1.888-3.584-4.346-4.962-6.847.019-.304-.136-.656-.302-.918-.898-2.137-1.684-4.662-.902-6.952.155-.309.275-.656.499-.922.004-.004.008-.012.016-.016 1.827-.308 3.72.157 5.442.801.344.13.743-.078.859-.426a.69.69 0 0 0-.422-.867c-1.649-.621-3.394-1.055-5.167-.965-4.254.406-8 3.095-12.231 3.685-1.591.094-3.298.07-4.799-.625-.91-.376-1.847-.9-2.799-1.321a2.856 2.856 0 0 0-.832-.743c-.898-.633-1.173-1.766-1.3-2.806-.357-2.008.39-3.986 1.207-5.807.078-.203.267-.488.387-.71a.586.586 0 0 0 .039-.282l.043-.055c1.761-2.005 3.549-4.138 5.933-5.4.894.109 1.057-1.204.197-1.384-.437-.102-.851.184-1.215.383-2.144 1.211-3.774 3.122-5.438 4.904a43.25 43.25 0 0 0-2.597 3.521c-.666 1.24-1.297 2.497-1.928 3.756-.801 2.04-1.381 4.158-1.877 6.291-.461 1.321-.619 2.783-.712 4.225-.085-.118-.174-.23-.259-.348-.364-.442-.643-.962-1.053-1.36-.453-.39-1.177.07-1.08.637a.684.684 0 0 0 .232.422c.314.414.6.848.921 1.254 1.572 2.13 3.166 4.24 4.788 6.331 3.186 3.861 7.467 6.57 11.647 9.203 1.153.723 2.318 1.43 3.487 2.126.132.285.465.402.778.465 5.423 3.212 10.923 6.264 16.02 10.023 3.793 3.029 6.789 6.804 9.913 10.505 4.184 4.591 8.352 7.464 5.465 14.287-.043.117-.097.258-.143.406-.263.332-.426.883-.798 1.153-.452.621-1.153.961-1.811 1.325-1.266.91-2.736 1.43-4.169 2.008-1.598.883-3.425.793-5.252.797-4.416.165-8.685-1.317-12.711-3.048-5.469-2.29-10.741-4.998-16.051-7.636-5.786-2.657-11.569-5.478-17.894-6.549-3.696-.789-7.47-1.012-11.216-1.419-4.467-.519-8.849-1.571-13.141-2.895-4.726-1.806-9.332-3.935-14.073-5.694-2.597-.899-5.229-1.692-7.846-2.528-4.575-1.704-8.887-4.131-13.528-5.678-5.225-1.642-10.756-2.56-16.221-1.865-1.835.278-3.573.958-5.365 1.423-5.426 1.512-10.528 3.966-15.78 5.975a39.407 39.407 0 0 1-14.724 2.102c-3.61-.488-7.439-1.254-10.369-3.575-.99-.926-2.005-1.852-2.825-2.939-.403-.5-.681-1.121-1.157-1.551-.179-.32-.52-.637-.705-.927-.611-.828-1.374-1.574-2.009-2.41-1.923-2.494-3.371-5.245-4.625-8.144-2.868-7.39-1.889-12.45 1.966-19.18 4.2-7.202 7.49-9.75 14.681-13.595l-.011-.008Zm155.371 33.642a23.82 23.82 0 0 0-.023-1.309c.027-.832.008-1.692-.042-2.563.034.043.069.086.108.129.662.742 1.366 1.45 2.144 2.067.469.41.96.817 1.533 1.035-.275 1.18-.263 2.423-.178 3.63.101 1.404.143 2.803.395 4.19.278 2.286.704 4.756 2.245 6.514-.19.383-.325.794-.38 1.216-1.919-1.497-3.979-2.806-6.049-4.092.077-.309.089-.672.112-.946.457-3.278.255-6.58.132-9.875l.003.004Zm-21.493-4.986c.012-.946.02-1.907.383-2.794.24-.543.48-1.114.937-1.509a.697.697 0 0 0 .05-.965.405.405 0 0 0-.054-.039c-.282-.293-.836-.336-1.18.172-1.456 1.563-3.043 1.966-5.078 1.317-.837-.371-1.642-1.028-2.145-1.805-.031-.524-.209-1.028-.197-1.56-.023-1.313.166-2.626.484-3.904.766-2.176 1.753-1.977 3.727-1.735.306.07.666.203.968.184 2.392.903 4.528 2.454 7.354 2.325 2.763.113 5.283-.907 7.814-1.919.047.317.353.598.573.868 2.388 3.286 3.971 7.1 6.251 10.446a.665.665 0 0 0-.027.457c.05.547.047 1.102.093 1.649.081.856.128 1.712.163 2.571-.105 2.962-.891 5.897-4.359 6.366-1.107.227-2.314.242-3.441-.059-.445-.078-.863-.25-1.292-.379-2.834-1.688-5.648-3.411-8.392-5.248a89.488 89.488 0 0 1-2.523-1.88c.162-.758-.175-1.993-.105-2.555l-.004-.004ZM30.821 41.657a.704.704 0 0 0 .515-.336c2.075-.496 4.428.27 6.115 1.49 2.28 1.324 3.894 3.477 5.822 5.24a24.617 24.617 0 0 0 5.984 4.118c-.364.235-.72.5-1.111.669-2.69 1.375-5.64 2.434-8.697 2.227a1.308 1.308 0 0 0-.65 0 42.487 42.487 0 0 1-3.62-1.235c-1.532-.539-2.84-1.489-4.195-2.356a1.16 1.16 0 0 0-.403-.453c-2.899-2.544-3.487-7.288.24-9.364Zm-15.525 11.56a.619.619 0 0 0 .159-.387c0-.004.004-.008.008-.012.998-2.133 2.156-3.275 4.509-3.7 3.356-.337 6.495 1.363 9.347 2.938 1.63.922 3.081 2.146 4.842 2.833 2.679 1.083 5.45 1.974 8.307 2.427 1.211.211 2.415.469 3.622.707-2.775 2.603-5.86 5.053-9.63 5.98-1.524.335-3.084.632-4.652.593-.944-.086-1.885-.183-2.825-.289-2.276-.238-4.502-.781-6.735-1.258-.023-.016-.043-.031-.066-.043-3.905-1.383-8.205-5.178-6.882-9.79h-.004ZM2.044 75.452c-.031-.226-.028-.477-.101-.688.104-1.332.36-2.782.712-4.45.844-3.08 3.116-4.94 6.096-5.76 2.024-.563 4.022-1.052 6.15-.833 1.36.043 2.722-.008 4.08.125 2.737.364 5.396 1.165 8.12 1.587 1.487.199 2.977.383 4.471.52.136.023.271.034.407.034 2.523.216 5.058.29 7.59.06 1.4-.157 2.798-.376 4.195-.567.19-.051.46-.079.747-.11-.778 1.692-1.587 3.4-2.821 4.803-1.854 1.95-4.18 3.497-6.689 4.49-.476.195-.932.445-1.416.621-.02.004-.039.012-.058.016-.09.016-.17.039-.252.074-2.647.77-5.314 1.493-7.965 2.286-2.176.77-4.355 1.552-6.495 2.423a.685.685 0 0 0-.159-.016c-.503.067-.975.266-1.463.415-2.644 1.027-5.531 1.59-8.364 1.094-3.066-.598-6.445-2.728-6.793-6.12l.008-.004Zm23.068 30.345c-5.167 2.903-11.457 5.58-17.266 2.915-3.732-1.243-5.814-5.139-6.414-8.86-.612-5.181 3.015-9.937 7.021-12.77 7.567-5.217 16.439-8.007 25.232-10.407.144-.023.29-.066.45-.12l1.207-.329c3.758-1.13 7.428-2.571 11.07-4.037.87 2.712 2.175 5.311 3.6 7.687 1.28 2.15 2.96 3.974 4.52 5.912.05.118.132.227.24.31.232.331.472.66.716.988-1.064.227-2.059.852-3.077 1.254-3.22 1.434-6.22 3.326-9.138 5.33-.14.09-.279.18-.41.27-.167.067-.326.18-.442.317-.944.66-1.885 1.328-2.818 1.997-2.604 1.817-5.178 3.657-7.81 5.416a.573.573 0 0 0-.217.144c-2.106 1.403-4.242 2.752-6.468 3.986l.004-.003Zm3.79 14.177c-3.182-5.514-.728-12.501 3.332-16.85.073-.071.147-.157.217-.243 3.92-2.587 7.663-5.447 11.565-8.062.352-.23.708-.46 1.076-.66 1.107-.614 2.291-1 3.526-1.493.863-.367 1.75-.707 2.71-.871 2.856-.543 5.778-.028 8.58.734-.487.368-.96.755-1.393 1.184-2.818 2.924-5.245 6.237-7.238 9.782-.573 1-1.115 2.012-1.653 3.032a.7.7 0 0 0-.166.27c-.008.031-.016.066-.027.098-1.06 2.024-2.083 4.064-3.159 6.08-2.078 4.01-3.746 7.077-8.344 8.484-.875.278-1.762.547-2.683.621-.905.012-1.788-.242-2.674-.383a9.717 9.717 0 0 1-3.673-1.723h.003Z"/><path fill="#000" d="M156.568 48.453c4.405 3.263 9.742 5.346 15.203 5.772 6.166.555 13.838-1.665 15.835-8.261 2.516-9.809-7.296-18.23-15.56-21.216-4.877-1.794-10.342-2.442-15.378-.934-5.306 1.489-9.277 6.237-8.472 11.974.704 5.232 4.285 9.597 8.372 12.661v.004Zm8.407-23.982c8.349.992 16.883 5.705 20.614 13.58 3.968 9.089-3.297 15.025-11.975 14.876-5.841-.035-11.531-2.102-16.28-5.6-2.287-1.719-4.327-3.806-5.821-6.271-6.313-10.837 2.853-17.867 13.462-16.585Z"/><path fill="#000" d="M170.142 48.512c.561.11 1.119.164 1.664.164 5.752 0 10.288-5.89 8.384-11.692-1.568-5.085-7.095-7.312-11.573-5.64.538.54.863 1.29.79 2.068a2.79 2.79 0 0 1-.268.95 2.715 2.715 0 0 1-1.199 1.547c-.349.215-.747.281-1.146.281-.097 0-.194-.004-.29-.011a2.704 2.704 0 0 1-.72-.184 3.998 3.998 0 0 1-.786-.418 2.25 2.25 0 0 1-.674-.743c-3.359 5.135-.452 12.548 5.818 13.674v.004Z"/><path fill="#000" d="M166.806 33.49s-.02.008-.028.008l.028-.008ZM166.628 33.42s-.008.015-.008.023c0 0 .004-.015.008-.023ZM217.103 26.225c.337.375.662.77.968 1.169 1.092 1.598 2.497 2.97 3.422 4.681.472.758 1.606.047 1.153-.719-.642-1.195-1.521-2.235-2.376-3.278-.798-1.02-1.502-2.138-2.435-3.044a.681.681 0 0 0-.96.023c-.364.379-.139.895.225 1.168h.003ZM223.703 34.627c.371 0 .665-.344.658-.703a.692.692 0 0 0-.697-.664c-.364 0-.666.343-.658.703a.692.692 0 0 0 .697.664ZM219.933 62.361c-.256-.688-.349-1.414-.449-2.137a.688.688 0 0 0-.77-.575c-1.042.242-.357 1.673-.295 2.396.461 1.676 1.371 3.231 2.443 4.587.565.692 1.602-.16 1.056-.86-.847-1.047-1.467-2.149-1.985-3.415v.004ZM223.556 67.879c-.368 0-.67.332-.662.7.007.379.321.668.693.668a.686.686 0 0 0-.031-1.368ZM241.147 86.37c.368 0 .67-.34.658-.703a.691.691 0 0 0-.696-.664c-.368 0-.67.34-.658.703.011.38.329.665.696.665ZM162.772 96.382a62.013 62.013 0 0 1-3.994-1.227c-2.787-1.05-5.55-2.047-8.136-3.587-.538-.262-1.409-.594-1.633.219-.113.473.278.805.7.875.461.141.844.45 1.27.672 3.657 1.86 7.54 3.29 11.488 4.377.352.102.731-.16.812-.516.086-.375-.151-.719-.507-.82v.007ZM166.775 97.035c-.368 0-.666.348-.651.711a.69.69 0 0 0 .705.657c.371 0 .665-.348.65-.711a.689.689 0 0 0-.704-.657ZM237.339 128.638c-1.591-.407-3.186-.989-4.448-2.079-.576-.481-1.083-1.036-1.598-1.579-.345-.446-1.096-.516-1.32.078a.695.695 0 0 0 .325.852 12.093 12.093 0 0 0 6.739 4.06c.867.184 1.165-1.11.302-1.332ZM240.95 128.739c-.368 0-.666.348-.65.711a.689.689 0 0 0 .704.657c.372 0 .666-.348.65-.711a.69.69 0 0 0-.704-.657ZM181.692 117.278c-1.003 1.059-1.928 2.2-2.582 3.513-.248.684-1.177 1.973-.124 2.36.945.192.929-1.118 1.304-1.688.585-1.165 1.378-2.189 2.276-3.126.194-.204.415-.434.434-.731.089-.797-1.03-1.067-1.312-.325l.004-.003ZM177.786 125.855c.434.88 1.684.184 1.192-.648-.429-.876-1.683-.188-1.192.648ZM102.279 52.408c2.671-.106 5.381-.172 8.005-.7.557-.156 1.165-.762.696-1.332-.27-.317-.754-.301-1.033-.004-.824.23-1.703.258-2.551.387-1.703.086-3.472.273-5.186.281-.887.059-.821 1.38.066 1.368h.003ZM98.947 52.756c.368 0 .662-.36.642-.72-.019-.382-.34-.648-.712-.648-.371 0-.662.36-.642.719.02.383.34.649.712.649ZM113.783 38.406c.685.281 1.591-.195 1.161-.996-.321-.458-.944-.258-1.401-.481-.453-.133-1.088-.332-1.548-.606-.345-.289-.879-.383-1.162.043-.696 1.247 2.16 1.778 2.95 2.04ZM109.165 35.417c.368 0 .662-.36.643-.72-.02-.382-.341-.648-.712-.648-.372 0-.662.36-.643.719.019.383.341.649.712.649ZM116.697 68.762c-.499.606-2.221 1.31-1.548 2.247.724.727 1.382-.442 1.962-.809.376-.309.933-.676.898-1.227-.034-.73-1.06-.887-1.312-.207v-.004ZM112.811 71.896c-.367 0-.662.36-.642.719.019.383.34.649.712.649.372 0 .662-.36.642-.72-.019-.382-.34-.648-.712-.648ZM68.865 42.72c.515-.285 1.045-.531 1.571-.793 2.13-1.02 4.335-1.864 6.484-2.837.56-.274 1.513-.813.956-1.532-.28-.328-.747-.285-1.038-.004-.565.407-1.242.622-1.873.9-1.835.824-3.724 1.53-5.52 2.441-.63.43-2.728.966-2.117 1.99.422.629 1.076.12 1.54-.16l-.003-.005ZM64.793 45.12c.368 0 .662-.36.643-.72-.02-.382-.341-.648-.713-.648-.371 0-.661.36-.642.719.02.383.34.649.712.649ZM64.209 89.813c.565.239 1.134.446 1.722.614 2.222.805 4.548.824 6.878.828.747.008 2.377-.097 2.001-1.219-.317-.645-.91-.281-1.413-.172-1.513.035-3.05.028-4.567-.12-1.416-.27-2.818-.646-4.176-1.22-.538-.223-1.103.426-.836.938a.7.7 0 0 0 .387.351h.004ZM62.25 88.626c.368 0 .662-.36.643-.72-.02-.383-.341-.648-.712-.648-.372 0-.662.36-.643.719.02.383.34.649.712.649ZM39.677 92.85c2.737-1.637 5.415-3.408 8.48-4.37.337-.151.48-.577.326-.91-.314-.648-1.026-.289-1.525-.117-2.071.73-3.983 1.813-5.853 2.958-1.23.692-2.415 1.466-3.61 2.212-.318.188-.396.645-.198.946.693.864 1.68-.414 2.38-.715v-.004ZM34.092 95.339c.747.516 1.691-.825.913-1.34-.75-.516-1.687.824-.913 1.34ZM32.064 62.642c.704.2 1.61-.207 1.18-1.043a.68.68 0 0 0-.758-.281c-1.425-.188-2.868-.188-4.289-.395-.639-.106-1.2-.258-1.835-.45-.356-.105-.739.055-.863.423-.596 1.657 5.52 1.516 6.565 1.746ZM22.794 60.196c.367 0 .662-.36.642-.719-.02-.383-.34-.649-.712-.649-.372 0-.662.36-.643.72.02.382.341.648.713.648ZM63.644 108.059c-.67-.125-.794.512-.953 1.004-1.014 1.978-2.086 4.139-4.04 5.323-.5.313-1.49.399-1.258 1.223.352.911 1.397.25 1.974-.062 1.223-.708 2.148-1.802 2.914-2.978.705-1.18 1.521-2.357 1.881-3.697a.688.688 0 0 0-.522-.809l.004-.004ZM54.993 114.194c-.368 0-.662.36-.643.719.02.383.34.649.712.649.372 0 .662-.359.643-.719-.02-.383-.34-.649-.712-.649ZM171.938 5.678c1.393.672 2.76 1.403 4.184 2.009.375.191.832.16 1.146-.133.53-.457-.024-1.391-.662-1.145-1.394-.606-2.741-1.31-4.103-1.978a.679.679 0 0 0-.898.337.694.694 0 0 0 .333.906v.004ZM169.619 4.6a.692.692 0 0 0 .705-.657c.015-.36-.279-.711-.65-.711a.69.69 0 0 0-.705.656c-.015.364.279.711.65.711ZM128.793 14.232c.84.223 1.656.536 2.438.919.623.406 1.877.89 1.928-.286a.687.687 0 0 0-.693-.621c-.79-.387-1.575-.785-2.415-1.063-.887-.316-1.819-.465-2.741-.633a.68.68 0 0 0-.781.559c-.105 1.11 1.559.828 2.264 1.121v.004ZM124.864 13.642a.692.692 0 0 0 .705-.656c.015-.364-.279-.712-.651-.712a.689.689 0 0 0-.704.657c-.016.363.279.711.65.711ZM96.269 19.691a.692.692 0 0 0-.705.657c-.015.363.279.711.65.711a.69.69 0 0 0 .705-.656c.015-.36-.279-.712-.65-.712ZM162.335 20.981c3.069.024 5.988.371 8.964 1.34 2.249.602 4.285 1.77 6.406 2.662.855.242 1.246-1.028.403-1.305-2.501-1.142-4.99-2.408-7.695-3.025-2.617-.77-5.311-1-8.024-1.04-.898-.015-.936 1.31-.058 1.368h.004ZM160.175 20.973a.692.692 0 0 0 .705-.656c.015-.36-.279-.712-.651-.712a.689.689 0 0 0-.704.657c-.015.363.279.711.65.711ZM177.902 56.257c-.727.11-1.463.18-2.198.203-1.599-.043-3.193-.152-4.792-.203-2.175-.078-4.331-.649-6.375-1.446-.669-.168-1.637-1.09-2.125-.195a.695.695 0 0 0 .333.906c1.223.583 2.512 1.028 3.809 1.407 2.589.825 5.326.664 8 .864 1.34.074 2.698 0 4.014-.278a.691.691 0 0 0 .507-.82c-.124-.563-.724-.587-1.173-.438ZM181.916 56.108a.69.69 0 0 0-.704.657c-.016.363.278.711.65.711a.688.688 0 0 0 .704-.656c.016-.36-.278-.712-.65-.712Z"/></g><defs><clipPath id="a"><path fill="#fff" d="M0 0h255v136H0z"/></clipPath></defs></svg>