<svg width="512" height="728" viewBox="0 0 512 728" fill="none" xmlns="http://www.w3.org/2000/svg">
<path d="M256.213 225.359C191.989 225.379 139.737 277.651 139.716 341.856C139.737 406.081 191.989 457.846 256.213 457.866C320.419 457.846 372.223 406.081 372.223 341.856C372.223 277.651 320.419 225.379 256.213 225.359Z" fill="#752D3C"/>
<path d="M67.3633 61.0943C52.3655 76.1122 43.1422 96.6841 43.1422 119.582C43.1422 142.48 52.3655 163.032 67.3633 178.07C82.4013 193.068 102.953 202.291 125.851 202.291C148.748 202.291 169.32 193.068 184.358 178.07C199.356 163.032 208.579 142.48 208.579 119.582C208.579 96.6841 199.356 76.1122 184.358 61.0943C169.32 46.0763 148.748 36.8731 125.851 36.8531C102.953 36.8731 82.4013 46.0763 67.3633 61.0943ZM6.28911 119.582C6.30916 53.5352 59.8243 0.0200506 125.851 0C191.897 0.0200506 245.413 53.5352 245.413 119.582C245.413 185.609 191.897 239.124 125.851 239.144C59.8243 239.124 6.30916 185.609 6.28911 119.582Z" fill="#C7C9CB"/>
<path d="M325.836 61.0742C310.838 76.1122 301.614 96.6641 301.614 119.562C301.614 142.46 310.838 163.032 325.836 178.07C340.874 193.067 361.426 202.291 384.324 202.291C407.241 202.291 427.794 193.067 442.832 178.07C457.83 163.032 467.053 142.46 467.053 119.562C467.053 96.6641 457.83 76.1122 442.832 61.0742C427.794 46.0763 407.241 36.853 384.324 36.853C361.426 36.853 340.874 46.0763 325.836 61.0742ZM264.761 119.562C264.782 53.5352 318.297 0.0200195 384.324 0.0200195C450.371 0.0200195 503.885 53.5352 503.906 119.562C503.885 185.609 450.371 239.124 384.324 239.124C318.297 239.124 264.782 185.609 264.761 119.562Z" fill="#C7C9CB"/>
<path d="M104.216 111.261H94.7324V98.7493H95.3139C101.028 98.7493 105.46 96.7042 108.607 92.5938C111.775 88.4433 114.101 81.7063 115.585 72.3427H132.568V98.7493H152.579V111.261H132.568V148.074C132.568 150.861 132.989 152.886 133.811 154.149C134.633 155.453 135.897 156.074 137.621 156.074C139.766 156.074 141.249 155.051 142.092 153.026C142.934 151.001 143.356 146.931 143.356 140.856V134.54H155.726V143.723C155.726 153.026 153.782 159.643 149.852 163.553C145.962 167.483 139.466 169.428 130.403 169.428C125.49 169.428 121.199 168.746 117.53 167.302C113.861 165.879 110.873 163.753 108.567 160.986C107.023 159.102 105.921 156.996 105.259 154.63C104.577 152.264 104.216 148.234 104.216 142.46V111.261Z" fill="#C7C9CB"/>
<path d="M361.606 106.469H352.102V93.9572H352.684C358.398 93.9572 362.809 91.892 365.977 87.7816C369.126 83.6512 371.452 76.9142 372.975 67.5505H389.957V93.9572H409.928V106.469H389.957V143.282C389.957 146.049 390.339 148.074 391.161 149.357C391.983 150.64 393.246 151.282 394.991 151.282C397.136 151.282 398.619 150.259 399.482 148.234C400.324 146.209 400.745 142.119 400.745 136.043V129.728H413.096V138.931C413.096 148.234 411.131 154.851 407.241 158.741C403.332 162.671 396.836 164.636 387.773 164.636C382.84 164.636 378.549 163.954 374.9 162.49C371.211 161.087 368.243 158.961 365.958 156.174C364.413 154.31 363.29 152.184 362.629 149.838C361.927 147.472 361.606 143.422 361.606 137.648V106.469Z" fill="#C7C9CB"/>
<path d="M40.8632 526.143L51.7106 525.802V551.427L40.8632 550.806V592.431H7.9601V550.665L0 551.307V525.622L7.9601 526.143V503.646H40.8632V526.143Z" fill="#752D3C"/>
<path d="M103.842 550.525C103.862 548.159 103.1 546.134 101.597 544.39C100.073 542.665 98.1679 541.803 95.9022 541.803C93.5362 541.803 91.7316 542.625 90.4685 544.269C89.2053 545.913 88.5837 547.999 88.5837 550.525H103.842ZM88.5837 564.5C88.5837 567.909 89.105 570.656 90.1476 572.741C91.2103 574.826 93.2555 575.849 96.2831 575.849C97.9674 575.849 99.391 575.328 100.574 574.265C101.757 573.202 102.519 571.859 102.86 570.255H134.56C133.537 574.145 131.753 577.593 129.186 580.581C126.62 583.588 123.572 586.075 120.023 588.06C116.494 590.045 112.725 591.508 108.735 592.491C104.724 593.453 100.754 593.955 96.7844 593.955C91.3908 593.955 86.2779 593.253 81.4256 591.869C76.5934 590.486 72.2625 588.361 68.4729 585.493C64.6833 582.626 61.7159 579.037 59.5704 574.766C57.425 570.455 56.3423 565.543 56.3423 559.989C56.3423 554.595 57.3248 549.663 59.3098 545.151C61.2948 540.66 64.0417 536.81 67.5907 533.662C71.1396 530.494 75.2099 528.088 79.8617 526.404C84.4934 524.72 89.506 523.878 94.8997 523.878C100.614 523.878 105.988 524.74 111 526.484C116.013 528.209 120.384 530.695 124.133 533.943C127.883 537.191 130.81 541.161 132.916 545.833C135.021 550.525 136.084 555.738 136.084 561.473C136.084 561.813 136.024 562.315 135.943 562.996C135.943 563.658 135.943 564.179 135.943 564.5H88.5837Z" fill="#752D3C"/>
<path d="M147.472 592.471H180.041V490H147.472V592.471Z" fill="#752D3C"/>
<path d="M194.591 592.471H227.16V490H194.591V592.471Z" fill="#752D3C"/>
<path d="M277.962 526.143L288.829 525.802V551.427L277.962 550.806V592.431H245.059V550.665L237.099 551.307V525.622L245.059 526.143V503.646H277.962V526.143Z" fill="#752D3C"/>
<path d="M327.667 565.683C329.111 567.528 331.216 568.45 334.023 568.45C336.991 568.45 339.197 567.488 340.62 565.543C342.064 563.598 342.786 561.212 342.786 558.345C342.786 555.738 341.984 553.593 340.379 551.908C338.755 550.224 336.65 549.382 334.023 549.382C331.477 549.382 329.432 550.284 327.868 552.089C326.304 553.893 325.522 556.079 325.522 558.605C325.522 561.473 326.244 563.819 327.667 565.683ZM342.786 583.629H342.024C338.635 587.158 335.447 589.764 332.46 591.448C329.452 593.113 325.803 593.955 321.492 593.955C317.101 593.955 313.131 592.932 309.582 590.927C306.033 588.902 303.045 586.195 300.579 582.847C298.133 579.458 296.288 575.729 295.005 571.598C293.742 567.488 293.12 563.357 293.12 559.227C293.12 554.936 293.742 550.685 295.005 546.475C296.288 542.264 298.173 538.455 300.719 535.066C303.246 531.637 306.354 528.93 310.023 526.905C313.712 524.9 317.823 523.878 322.374 523.878C330.835 523.878 337.372 527.026 342.024 533.322H342.786L341.783 525.361H373.703V592.471H341.783L342.786 583.629Z" fill="#752D3C"/>
<path d="M387.358 592.471H419.927V490H387.358V592.471Z" fill="#752D3C"/>
<path d="M479.009 550.525C479.03 548.159 478.268 546.134 476.763 544.39C475.24 542.665 473.336 541.803 471.05 541.803C468.703 541.803 466.899 542.625 465.636 544.269C464.372 545.913 463.751 547.999 463.751 550.525H479.009ZM463.751 564.5C463.751 567.909 464.273 570.656 465.315 572.741C466.377 574.826 468.422 575.849 471.451 575.849C473.135 575.849 474.558 575.328 475.742 574.265C476.924 573.202 477.686 571.859 478.027 570.255H509.727C508.705 574.145 506.92 577.593 504.353 580.581C501.787 583.588 498.739 586.075 495.191 588.06C491.662 590.045 487.892 591.508 483.882 592.491C479.891 593.453 475.921 593.955 471.951 593.955C466.558 593.955 461.445 593.253 456.592 591.869C451.761 590.486 447.43 588.361 443.64 585.493C439.851 582.626 436.884 579.037 434.737 574.766C432.593 570.455 431.51 565.543 431.51 559.989C431.51 554.595 432.492 549.663 434.477 545.151C436.462 540.66 439.209 536.81 442.758 533.662C446.286 530.494 450.377 528.088 455.009 526.404C459.661 524.72 464.674 523.878 470.067 523.878C475.782 523.878 481.155 524.74 486.168 526.484C491.181 528.209 495.552 530.695 499.3 533.943C503.051 537.191 505.978 541.161 508.083 545.833C510.189 550.525 511.231 555.738 511.231 561.473C511.231 561.813 511.191 562.315 511.111 562.996C511.111 563.658 511.111 564.179 511.111 564.5H463.751Z" fill="#752D3C"/>
<path d="M60.3577 661.971C60.3577 662.392 60.3577 662.693 60.3577 662.853C60.3577 665.219 61.0586 667.104 62.4429 668.487C63.8256 669.891 65.7505 670.573 68.1967 670.573C70.8835 670.573 73.0697 669.69 74.754 667.926C76.4383 666.141 77.5001 663.916 77.9621 661.209C77.9413 660.948 77.9413 660.627 77.9621 660.206C78.0022 659.765 78.0616 659.485 78.0824 659.304C78.0616 657.038 77.4408 655.174 76.2169 653.69C74.9946 652.226 73.2494 651.504 70.9637 651.504C68.3571 651.504 66.0713 652.427 64.0871 654.271C62.1013 656.116 60.8982 658.382 60.478 661.089C60.478 661.329 60.4379 661.63 60.3577 661.971ZM103.726 690.703C102.724 697.019 100.659 702.513 97.5315 707.205C94.4229 711.877 90.5539 715.707 85.9214 718.694C81.2905 721.702 76.1367 723.907 70.5033 725.331C64.8682 726.774 59.0343 727.476 53.0785 727.476C47.9263 727.476 43.1334 727.035 38.6629 726.153C34.2116 725.271 29.6995 723.947 25.1488 722.163L22 721.02L32.7279 698.383C35.3345 701.009 38.6629 703.014 42.7131 704.458C46.7425 705.882 50.8328 706.604 54.9632 706.604C59.2541 706.604 62.9434 705.2 66.012 702.413C69.0998 699.626 71.185 696.077 72.2677 691.786L73.9119 684.949H73.0297C70.9236 688.418 67.8357 691.124 63.8064 693.109C59.7561 695.074 55.6851 696.077 51.5547 696.077C47.6648 696.077 44.2562 695.295 41.2695 693.731C38.2619 692.167 35.7756 690.062 33.8106 687.355C31.8248 684.668 30.3411 681.58 29.3193 678.152C28.3168 674.703 27.8147 671.114 27.8147 667.405C27.8147 665.219 27.9751 663.074 28.3168 660.968C28.9777 656.677 30.301 652.467 32.2258 648.356C34.1715 644.226 36.637 640.477 39.6847 637.108C42.7131 633.74 46.2019 631.053 50.1511 629.028C54.1211 627.023 58.3317 626 62.8038 626C71.2043 626 77.1601 629.689 80.6088 637.088H81.491L82.1327 627.484H113.712L103.726 690.703Z" fill="#C7C9CB"/>
<path d="M151.789 661.991C151.708 662.412 151.668 662.793 151.668 663.114C151.668 665.299 152.249 667.104 153.433 668.507C154.615 669.891 156.379 670.573 158.745 670.573C161.694 670.573 164.06 669.61 165.824 667.665C167.588 665.72 168.69 663.334 169.091 660.467C169.091 660.226 169.091 659.926 169.091 659.585C169.193 659.244 169.233 658.983 169.233 658.823C169.233 656.637 168.551 654.873 167.207 653.509C165.864 652.166 164.039 651.504 161.774 651.504C159.247 651.504 157.061 652.407 155.197 654.211C153.353 656.016 152.209 658.201 151.789 660.728C151.789 660.968 151.789 661.389 151.789 661.991ZM165.062 685.751H164.3C160.43 689.28 156.841 691.886 153.572 693.571C150.284 695.235 146.495 696.077 142.204 696.077C138.414 696.077 135.045 695.295 132.099 693.731C129.151 692.167 126.704 690.062 124.76 687.415C122.815 684.768 121.371 681.761 120.409 678.392C119.446 675.024 118.965 671.495 118.965 667.786C118.965 665.6 119.125 663.455 119.467 661.349C120.128 657.058 121.432 652.808 123.376 648.597C125.301 644.386 127.787 640.577 130.835 637.188C133.863 633.76 137.371 631.053 141.381 629.028C145.372 627.023 149.642 626 154.195 626C162.616 626 168.631 629.148 172.259 635.444H173.021L173.262 627.484H205.223L194.617 694.593H162.656L165.062 685.751Z" fill="#C7C9CB"/>
<path d="M246.628 639.354H247.631C249.575 635.324 252.563 632.075 256.592 629.649C260.643 627.223 264.853 626 269.224 626C274.036 626 277.867 627.243 280.733 629.729C283.581 632.216 285.406 635.725 286.168 640.276H286.909C289.617 635.484 292.785 631.895 296.453 629.549C300.123 627.183 304.473 626 309.526 626C316.003 626 320.855 627.885 324.064 631.614C327.251 635.364 328.855 640.356 328.855 646.592C328.855 648.617 328.694 650.722 328.354 652.908L321.778 694.593H290.197L295.511 661.429C295.752 659.505 295.892 658.021 295.892 657.018C295.892 655.595 295.611 654.492 295.07 653.67C294.509 652.888 293.526 652.487 292.103 652.487C290.077 652.487 288.673 653.289 287.871 654.873C287.069 656.477 286.449 658.663 286.027 661.429L280.733 694.593H249.154L254.448 661.309C254.708 659.364 254.828 657.88 254.828 656.878C254.828 655.434 254.547 654.332 254.007 653.509C253.465 652.727 252.483 652.326 251.039 652.326C249.013 652.326 247.61 653.129 246.808 654.733C246.006 656.337 245.404 658.522 244.984 661.309L239.67 694.593H208.091L218.697 627.484H249.535L246.628 639.354Z" fill="#C7C9CB"/>
<path d="M387.303 652.647C387.282 652.567 387.282 652.306 387.303 651.885C387.383 651.545 387.424 651.304 387.424 651.123C387.424 649.118 386.782 647.414 385.518 646.011C384.256 644.627 382.652 643.925 380.727 643.925C378.361 643.925 376.415 644.747 374.851 646.392C373.287 648.036 372.346 650.121 372.004 652.647H387.303ZM369.739 666.623C369.478 668.367 369.357 669.831 369.357 670.994C369.357 673.159 369.819 674.863 370.742 676.107C371.683 677.35 373.308 677.971 375.674 677.971C377.358 677.971 378.882 677.45 380.225 676.387C381.569 675.325 382.531 673.981 383.112 672.377H414.832C413.148 676.267 410.782 679.716 407.755 682.703C404.727 685.711 401.299 688.197 397.468 690.182C393.639 692.167 389.629 693.631 385.459 694.613C381.288 695.576 377.238 696.077 373.268 696.077C368.395 696.077 363.823 695.495 359.572 694.373C355.303 693.23 351.552 691.485 348.264 689.119C344.976 686.773 342.409 683.826 340.564 680.297C338.701 676.748 337.778 672.678 337.778 668.046C337.778 666.101 337.939 664.136 338.279 662.111C339.121 656.718 340.866 651.785 343.532 647.274C346.179 642.782 349.528 638.933 353.557 635.785C357.608 632.617 362.12 630.211 367.092 628.526C372.044 626.842 377.177 626 382.491 626C387.624 626 392.396 626.702 396.767 628.085C401.157 629.489 404.948 631.534 408.135 634.241C411.343 636.928 413.81 640.236 415.594 644.106C417.358 647.996 418.241 652.286 418.241 657.018C418.241 660.046 417.86 663.254 417.099 666.623H369.739Z" fill="#C7C9CB"/>
<path d="M430.492 668.387L432.276 669.65C434.883 671.415 437.529 672.898 440.216 674.081C442.924 675.244 445.49 675.846 447.936 675.846C449.199 675.846 450.383 675.525 451.465 674.904C452.567 674.262 453.19 673.36 453.369 672.177V671.796C453.45 671.635 453.49 671.495 453.49 671.435C453.49 670.252 453.029 669.45 452.107 669.029C451.164 668.608 449.861 668.307 448.177 668.146L447.434 668.026C441.961 667.184 437.529 665.58 434.161 663.214C430.792 660.868 429.108 657.379 429.108 652.748C429.108 651.745 429.228 650.642 429.49 649.459C430.07 645.429 431.535 641.92 433.84 638.933C436.166 635.945 439.013 633.499 442.382 631.554C445.731 629.609 449.319 628.206 453.109 627.323C456.898 626.441 460.689 626 464.477 626C469.03 626 473.58 626.461 478.112 627.404C482.664 628.326 486.493 629.77 489.621 631.694L478.753 650.301C476.729 648.637 474.483 647.274 471.997 646.271C469.511 645.249 467.044 644.747 464.598 644.747C463.335 644.747 462.212 644.988 461.189 645.449C460.187 645.91 459.606 646.692 459.425 647.775C459.425 649.118 459.927 650.061 460.948 650.562C461.951 651.063 463.595 651.524 465.862 651.946C466.041 651.946 466.322 651.986 466.744 652.066C472.639 653.068 477.189 654.713 480.398 656.978C483.586 659.244 485.19 662.833 485.19 667.705C485.19 668.868 485.07 670.131 484.83 671.475C484.148 675.605 482.624 679.234 480.277 682.402C477.911 685.55 475.005 688.137 471.556 690.142C468.107 692.167 464.378 693.651 460.368 694.613C456.377 695.596 452.407 696.077 448.437 696.077C443.544 696.077 438.692 695.415 433.84 694.112C429.009 692.809 424.015 690.964 418.882 688.618L430.492 668.387Z" fill="#C7C9CB"/>
<path d="M256.22 222.061C190.173 222.081 136.439 275.837 136.418 341.863C136.439 407.91 190.173 461.145 256.22 461.165C322.248 461.144 375.521 407.91 375.521 341.863C375.521 275.837 322.248 222.081 256.22 222.061ZM311.861 252.137C313.497 251.879 315.61 252.137 317.375 252.137C323.911 252.137 328.843 253.46 332.914 256.648C336.983 259.816 339.43 263.947 339.43 269.18C339.43 272.989 338.207 276.338 335.921 278.704C333.676 281.09 330.548 282.213 326.899 282.213C322.969 282.213 319.92 281.07 317.375 279.205C314.827 277.34 313.364 275.055 313.364 272.187C313.364 270.443 313.965 268.759 314.868 267.175C315.71 265.651 316.994 264.027 318.878 262.663C317.897 261.841 317.113 261.46 316.372 261.16C315.629 260.819 314.607 260.658 313.866 260.658C312.481 260.658 311.159 261.46 309.354 261.661C306.708 261.941 303.218 266.453 299.83 271.686C305.143 275.035 309.916 278.784 314.367 283.215C329.365 298.233 338.929 318.965 338.929 341.863C338.929 364.761 329.365 384.992 314.367 400.01C299.329 415.008 279.118 424.552 256.22 424.572C233.303 424.552 212.61 415.008 197.572 400.01C182.574 384.992 173.511 364.761 173.511 341.863C173.511 318.965 182.574 298.253 197.572 283.215C212.61 268.217 233.303 259.154 256.22 259.154C269.454 259.154 281.745 262.162 292.813 267.676C296.863 261.4 301.796 255.485 307.349 253.641C308.884 253.129 310.224 252.395 311.861 252.137Z" fill="#C7C9CB"/>
<path d="M292.813 267.676C287.84 275.355 284.411 283.496 282.787 284.719C277.855 282.473 272.942 280.669 268.752 279.706C264.621 278.704 260.61 278.203 256.22 278.203C242.626 278.203 232.139 281.331 224.64 287.225C217.121 293.14 213.111 301.1 213.111 311.787C213.111 316.62 213.933 320.91 215.618 324.82C217.342 328.65 219.808 332.018 223.137 334.846C218.584 336.57 215.056 339.237 212.61 342.365C210.164 345.553 209.101 349.362 209.101 353.392C209.101 356.581 209.963 359.167 211.608 361.914C213.212 364.641 215.438 367.628 218.625 369.934C215.117 371.278 212.591 373.022 210.605 375.448C208.621 377.854 207.597 380.441 207.597 383.468C207.597 390.225 211.567 395.318 219.628 398.506C227.709 401.715 240.079 403.018 257.223 403.018C274.526 403.018 287.799 400.672 296.321 396C304.882 391.328 308.853 384.331 308.853 374.947C308.853 367.007 306.486 361.072 301.334 357.403C296.161 353.793 287.7 352.39 276.271 352.39C273.544 352.39 268.872 352.209 261.734 352.39C254.556 352.53 248.582 352.891 244.19 352.891C239.038 352.891 236.01 352.57 234.666 351.889C233.342 351.227 232.661 349.663 232.661 347.879C232.661 347.137 233.041 346.615 233.663 345.873C234.265 345.092 235.127 344.37 236.17 343.868C239.017 344.771 241.423 345.472 244.19 345.873C246.897 346.315 250.084 346.375 252.711 346.375C265.504 346.375 275.45 343.548 283.289 337.352C291.089 331.176 295.319 322.795 295.319 312.79C295.319 308.238 294.458 304.268 293.314 300.76C292.111 297.291 290.646 294.404 288.301 291.737C289.523 290.774 294.436 280.007 299.83 271.686C297.524 270.263 295.24 268.879 292.813 267.676ZM254.716 290.734C257.283 290.734 259.067 291.997 260.23 295.246C261.433 298.534 262.235 304.248 262.235 311.787C262.235 319.788 261.473 325.362 260.23 328.83C259.047 332.299 256.883 333.843 254.215 333.843C251.268 333.843 249.504 332.64 248.2 329.332C246.857 326.023 246.195 320.189 246.195 312.79C246.195 304.509 246.897 299.075 248.2 295.747C249.464 292.378 251.569 290.734 254.716 290.734ZM247.699 377.453C251.052 377.225 255.308 377.453 260.23 377.453C269.293 377.453 275.348 378.015 278.777 378.957C282.205 379.859 283.79 381.263 283.79 383.468C283.79 385.814 282.005 387.438 278.276 388.481C274.546 389.564 268.351 389.985 259.729 389.985C250.867 389.985 244.691 389.524 240.681 388.481C236.69 387.459 234.666 385.774 234.666 383.468C234.666 381.183 236.13 379.859 239.678 378.957C241.473 378.486 244.345 377.681 247.699 377.453Z" fill="white"/>
</svg>
