<svg xmlns="http://www.w3.org/2000/svg" width="284" height="334" fill="none"><g clip-path="url(#a)"><path fill="#A4D357" d="M90.401 34.396c.04.126.076.252.096.383a10.33 10.33 0 0 0 1.422 2.599c1.216 1.544 2.916 2.569 4.812 3.018.157.075.278.176.374.282.499-.065.998-.136 1.498-.191a1.05 1.05 0 0 1-.414-.904c.11-1.786.368-3.567.58-5.344.363-2.573 1.039-5.086 1.559-7.63.151-.858 1.417-1.05 1.836-.303.378.747-.122 1.615-.222 2.387-.424 1.797-.818 3.598-1.115 5.425-.237 1.882-.51 3.765-.631 5.657a.909.909 0 0 1-.247.57c.338-.035.681-.07 1.019-.1.061-.45.459-.874.822-1.227.444-.782.787-1.685 1.14-2.422 1.589-4.38 1.609-9.14 2.199-13.716.358-3.18 1.211-6.293 2.346-9.28.161-.414.343-.823.529-1.232.015-.53.202-1.145.222-1.62.121-2.381-1.084-5.015-3.379-5.934a8.83 8.83 0 0 0-2.159-.63.949.949 0 0 1-.358 0c-2.078.388-4.065 1.145-5.805 2.417-2.376 1.756-4.843 3.77-5.655 6.731-.666 2.397-1.256 4.804-1.382 7.287.036 2.685.111 5.38.298 8.06.237 1.932.408 3.834.615 5.727v-.01Zm11.233-12.752c.55 0 1.024.403 1.049.969.02.53-.419 1.05-.968 1.05-.55 0-1.024-.405-1.05-.97-.02-.53.419-1.05.969-1.05Z"/><path fill="#E2FFB4" d="M75.477 42.399c.136.934.948 3.997.862 6.056 3.712-2.246 7.626-4.174 11.707-5.597.03-.525.398-1.125.504-1.635.399-1.998.172-4.077-.08-6.11a1.82 1.82 0 0 1-.076-.627c-.101-.812-.197-1.614-.247-2.402-.182-1.529-.333-3.068-.444-4.607v-.01c-1.1-3.22-3.016-6.358-6.527-7.176a5.252 5.252 0 0 0-1.962-.151.988.988 0 0 1-.338.09 21.276 21.276 0 0 0-2.492 1.938c-3.046 3.265-3.122 10.82-1.997 14.958.383 1.75.691 3.522 1.1 5.273h-.01Zm2.234-5.879c-.59-1.236 1.216-2.124 1.81-.898.596 1.231-1.215 2.124-1.81.898Zm-1.12-7.852c.182-1.15.848-2.15 1.2-3.215.268-1.15 2.003-.938 1.993.238v-.01c0-.056 0-.106-.01-.162 0 .046.01.086.015.131v.03c.035.652-.393 1.222-.67 1.787-.374.848-.647 1.751-.667 2.685-.116.979.46 2.75-.968 2.896-.535.02-1.044-.419-1.05-.969.016-1.135-.08-2.296.167-3.411h-.01ZM250.216 302.98c.076-.408.172-.863.368-1.196v-33.976a1.11 1.11 0 0 1-.111-.308c-.237-1.918-.852-3.83-1.644-5.581-1.135-2.095-2.714-3.906-4.423-5.546-1.549-1.186-3.531-1.439-5.397-1.716-4.202.131-8.413.015-12.615.237-6.088.146-12.171.903-18.254.792-1.705-.126-3.425-.106-5.134-.055-.071 0-.137.005-.207.005v22.047c0 .263.02.565.01.863.676.096 1.372.081 2.063.106 1.649.045 3.298.081 4.943-.061 1.937-.06 3.878.167 5.81.308.01-.207.031-.429.076-.676.202-1.499 1.503-2.357 2.658-3.113 1.549-1.59 3.657-2.498 5.896-2.191 3.138.374 6.265 1.63 8.53 3.871 1.407 1.453 1.694 3.659 1.805 5.596-.469 2.665-2.512 4.774-4.539 6.419-.252.192-.51.369-.777.53 4.847 1.771 6.653 6.025 5.271 11.248-.696 1.459-2.214 2.301-3.354 3.386-1.841 1.716-4.499 2.175-6.936 2.09-2.35-.046-4.438-1.661-5.644-3.593-.307-.773-.928-1.328-1.351-2.024-1.267.081-2.538.182-3.804.252-3.102.142-6.188.525-9.3.465a25.7 25.7 0 0 1-1.357-.076v20.7c-.005.146 0 .313 0 .479 6.148-.02 12.297.212 18.445-.096 4.847.015 9.73-.651 14.552-.55.898-.05 1.795-.07 2.693-.085 2.33-1.464 4.63-3.195 6.078-5.582 1.049-1.64 1.16-3.643 1.907-5.399.842-1.903 2.244-3.477 3.112-5.364.287-.717.302-1.504.63-2.211v.005Zm-33.007-42.823c-2.451.01-4.898-.166-7.349-.101-.877.046-1.76.066-2.643.076-.691.177-1.488-.207-1.473-.989.026-.994 1.049-1.05 1.796-1.034 2.411-.056 4.822-.132 7.233-.006.822.046 1.639.026 2.461.036 1.322.05 1.302 2.003-.025 2.018Zm3.828.283c-.549 0-1.003-.479-.993-1.024.01-.556.474-.995 1.024-.995.549 0 1.003.48.993 1.025-.01.555-.474.994-1.024.994Zm-14.859 60.026c-.55 0-1.014-.449-1.019-.999-.005-.55.449-1.02.999-1.02s1.014.449 1.019.999c.005.55-.449 1.02-.999 1.02Zm.868-3.099c-.485.707-1.73.409-1.806-.459-.197-2.064-.161-4.138-.469-6.192-.106-.837.065-1.69-.045-2.523-.192-.555.075-1.196.66-1.362 1.16-.298 1.463 1.059 1.397 1.942-.08 2.377.369 4.729.384 7.106.025.494.207 1.049-.121 1.483v.005Zm30.182-15.164c-.55 0-1.014-.449-1.019-.999a1.015 1.015 0 0 1 .999-1.019c.55 0 1.014.449 1.019.999a1.015 1.015 0 0 1-.999 1.019Zm.489-2.997c-.706-.086-.993-.798-.852-1.433.096-2.483-.378-5.183-2.295-6.914a1.023 1.023 0 0 1-.807-1.115c.161-1.12 1.574-1.06 2.194-.353.994.979 1.806 2.169 2.3 3.476.449 1.267.56 2.625.621 3.957.065.903.146 2.488-1.156 2.377l-.005.005ZM84.712 190.917a55.829 55.829 0 0 1-2.547-18.485c.554-4.39 1.548-8.906 3.656-12.812-.791-.591-1.66-.722-2.693-.586-.6 1.615-1.23 3.235-2.098 4.719-2.88 4.324-6.825 7.791-10.451 11.47-5.064 5.041-10.189 10.501-11.984 17.622-1.312 5.127-1.927 10.784.438 15.699 1.236 2.856 2.946 5.566 5.06 7.816 3.233 3.134 7.136 5.592 11.303 7.277-.939-1.625-1.392-3.653-.742-5.455.59-1.837 1.483-3.623 2.89-4.95.187-.364.5-.702.762-.934.746-.843 1.483-1.564 2.224-2.382 4.217-5.081 6.018-12.272 4.288-18.666a1.034 1.034 0 0 1-.106-.343v.01ZM61.807 205.95c-.55 0-1.023-.419-1.038-.979-.016-.54.428-1.04.978-1.04s1.024.419 1.039.979c.015.54-.429 1.04-.979 1.04Zm3.208-16.542c.036-.025.066-.045.101-.071.02-.02.046-.04.066-.06-1.987 2.76-2.598 6.459-3.082 9.739-.03.682.177 1.338.282 1.999.182 1.307-1.75 1.625-1.992.318-.54-1.873-.207-3.775.222-5.637.353-1.65.777-3.285 1.412-4.85.485-1.115.939-2.377 1.917-3.149 1.13-.681 2.169.969 1.07 1.711h.004ZM106.335 30.293c.252.666.257 1.625.54 2.18.802 2.634 2.33 5.137 4.559 6.787.394.222.732.389 1.09.666.01 0 .015.01.02.015 2.31.086 4.615.258 6.91.52.081-.161.197-.307.358-.413.545-.58 1.105-1.171 1.543-1.837 1.423-2.423 1.998-5.294 2.765-7.888 1.684-5.94 4.62-11.712 8.766-16.33.171-.338.398-.65.539-1.009 1.292-2.573 1.539-5.753-.232-8.15-.443-.61-.923-1.216-1.538-1.665a.937.937 0 0 1-.535-.308c-3.334-.948-6.96-1.261-10.178-.212-4.999 1.953-9.044 5.98-11.248 10.85a38.188 38.188 0 0 0-2.29 7.716c-.529 3.007-.58 6.06-1.069 9.073v.005Zm14.834-7.686c.534-.918.928-1.902 1.321-2.881 1.287-2.962 3.37-5.556 5.821-7.64.716-1.13 2.406-.076 1.71 1.075-.535.737-1.362 1.216-1.962 1.902-1.231 1.272-2.24 2.735-3.143 4.25-.696 1.362-1.145 2.83-1.916 4.157-.232.49-.848.727-1.342.485-.474-.227-.751-.863-.484-1.342l-.005-.006Zm-1.312 4.275c.55 0 .984.524.964 1.054-.025.57-.505.964-1.054.964-.55 0-.984-.525-.964-1.054.025-.566.505-.964 1.054-.964ZM269.685 313.199c-3.364 1.63-7.016 2.528-10.758 2.195-2.058-.494-4.247-.661-6.053-1.827-.983-.6-1.947-1.407-2.199-2.583-.02-.162-.035-.323-.05-.485a2.563 2.563 0 0 0-.429.621c-.494.979-1.069 1.973-1.256 3.068-.106 3.558 2.023 6.02 5.029 7.62 4.09 2.034 9.013 1.393 13.27.323 2.028-.545 3.965-1.373 5.796-2.402.66-.378 1.311-1.004 1.689-1.64.959-1.463 1.065-3.305.575-4.955-.131-1.01-.413-2.009-1.044-2.826a3.481 3.481 0 0 0-.726-.662c-.595 1.691-2.376 2.67-3.838 3.548l-.006.005Zm-7.258 6.742c-.549 0-1.029-.384-1.059-.954-.025-.53.404-1.06.953-1.06.55 0 1.029.384 1.06.954.025.53-.404 1.06-.954 1.06Zm6.083-.686c-.766.166-1.578.767-2.365.439-.772-.359-.686-1.63.146-1.857 1.281-.399 2.593-.767 3.793-1.373.681-.318 1.175-.984 1.927-1.125.549-.036 1.029.414 1.059.953.005 1.353-3.415 2.589-4.555 2.953l-.005.01Z"/><path fill="#A4D357" d="M258.574 326.299c-1.917-.161-3.803-.681-5.649-1.236.156.59.333 1.176.56 1.726.403 1.297 1.069 2.669 2.244 3.401 4.731 3.618 12.141 1.453 15.263-3.29.509-.767.555-1.691.751-2.559.041-.151.076-.302.111-.454-.721.338-1.472.611-1.876.833-3.606 1.433-7.561 1.801-11.409 1.584l.005-.005Z"/><path fill="#E2FFB4" d="M177.257 143.451c-.717-.605-1.302-.948-2.063-1.392-.036-.026-.061-.056-.091-.081-.262-.01-.53-.015-.792-.035-1.508 0-2.966-.334-4.393-.793-3.264-.696-6.572-1.498-9.927-1.448-.948 0-1.906.091-2.824.318a1.294 1.294 0 0 1-.232.086 73.269 73.269 0 0 1-3.677 3.719c-.177.398-.474.797-.636 1.16-.338.747-.454 1.292-.645 2.024-.147 1.241.06 2.498.877 3.472.263.353.485.767.838 1.034.252.152.554.197.812.344.08.045.151.1.212.156 1.836.414 3.661.883 5.467 1.257 3.637.963 7.278 1.993 11.016 1.105 2.86-.697 5.654-2.251 7.364-4.653.434-.712.736-1.484.958-2.281 0-.227.026-.459-.02-.681-.373-1.307-1.215-2.438-2.239-3.29l-.005-.021Zm-17.427 6.051c-.55 0-.989-.515-.973-1.045.02-.565.494-.974 1.044-.974.549 0 .988.515.973 1.045-.02.565-.494.974-1.044.974ZM181.559 103.702a1035.94 1035.94 0 0 1-2.471 3.704c-2.068 3.401-4.116 6.817-6.204 10.208 0 .081-.01.172-.031.263v.04c0-.015 0-.025.005-.04-.146.595-.196 1.155-.09 1.715.338 1.605 1.281 3.245 2.749 4.022.252.147.539.227.807.333.691.182 1.377.374 2.042.54 2.638.899 5.559 1.272 8.323.777a13.194 13.194 0 0 0 7.364-3.815c4.796-4.284 7.772-10.107 11.641-15.159-1.654.439-3.379.722-5.094.767-1.71-.01-3.38-.469-5.054-.772-2.8-.999-5.372-2.553-8.212-3.472-1.73-.297-4.085-.832-5.452.525a1.384 1.384 0 0 1-.308.374l-.015-.01Zm3.349 16.95c.651.04 1.302-.071 1.947-.121 3.087-.737 5.548-3.033 7.526-5.415.524-.59 1.089-1.65 2.017-1.09.893.606.368 1.509-.232 2.105-.867 1.13-1.871 2.129-2.915 3.093-2.275 2.069-5.261 3.653-8.413 3.452-1.322-.096-1.251-2.044.075-2.019l-.005-.005Zm-4.973.707c-.61-1.121 1.311-2.382 2.063-1.318.857 1.181-1.357 2.63-2.063 1.318ZM96.197 59.895c-5.513.429-9.947 4.531-12.928 8.901-5.402 8.115-7.42 18.167-6.86 27.735.62 9.921 5.483 24.338 17.452 23.97 10.94-1.252 16.897-14.044 18.885-23.662 1.77-9.023 1.346-18.803-2.684-27.12-2.532-5.293-7.601-10.354-13.87-9.824h.005Zm3.919 30.706c-.394 5.183-4.212 20.388-11.016 20.388-.449 0-.908-.066-1.377-.202-7.036-3.356-4.368-20.882-2.043-26.872 1.438-4.057 5.301-12.722 10.774-9.987 1.881 1.318 2.91 3.588 3.435 6.152-.298-.046-.59-.076-.893-.03-.51.075-.989.252-1.427.53a3.903 3.903 0 0 0-1.73 2.639c-.086.52-.101 1.054-.016 1.57.076.448.197.918.44 1.311.236.399.6.656.993.893.383.228.827.434 1.27.505.218.035.425.055.636.055.116 0 .242-.004.364-.02.217-.025.433-.075.64-.141l.177-.06a59.495 59.495 0 0 1-.227 3.275v-.005ZM250.509 79.55v-.01h-.01c0 .005.005.01.01.015v-.005Z"/><path fill="#A4D357" d="M187.132 128.484c-.524-.298-.887-.58-1.331-.787a1.266 1.266 0 0 1-.53-.232c-.141.01-.277.03-.418.035-1.65-.045-3.304-.141-4.928-.434-1.372-.404-2.749-.828-4.141-1.186-.02 0-.041-.01-.061-.015-1.604-.414-3.228-.732-4.897-.807-1.06-.036-2.134.262-3.047.787-.07.04-.146.075-.217.096a191.351 191.351 0 0 1-2.38 3.512c-.399 1.12-.893 2.245-1.09 3.411-.136 1.146 0 2.362.313 3.457.484.873 1.135 1.771 2.159 2.003.03.015.055.036.085.056 1.942.373 3.869.853 5.771 1.352 5.346.717 10.874-.106 14.531-4.41.862-1.085 1.629-2.221 2.113-3.467 0-.136.015-.268.061-.399-.02-1.241-1.054-2.311-2.003-2.982l.01.01Zm-17.946 7.887c-.549 0-.988-.514-.973-1.044.02-.565.494-.974 1.044-.974s.989.515.973 1.044c-.02.566-.494.974-1.044.974Zm11.087.853c-.938.469-2.063.399-3.087.449a18.407 18.407 0 0 1-3.934-.378 1.02 1.02 0 0 1-.827-1.161c.327-1.418 1.967-.575 2.945-.545 1.307.076 2.689.197 3.96-.141 1.18-.596 2.103 1.125.953 1.781l-.01-.005Z"/><path fill="#A4D357" d="M225.173 47.95a1.45 1.45 0 0 1-.565-.278c-4.489 1.035-8.821 3.018-13.018 4.658-4.156 1.66-8.009 3.977-12.186 5.571-6.138 2.311-12.625 3.906-19.222 3.583-10.078.126-19.333-3.457-27.948-8.422-7.929-4.178-16.322-7.615-25.139-9.326-7.207-1.483-14.632-2.099-21.946-1.746-7.843.167-15.701 1.751-22.667 5.45-3.722 1.797-7.5 4.012-10.723 6.48-7.344 6.232-13.517 13.695-19.933 20.846C46.525 80.509 41.022 86.428 33.9 89.9c-3.213 1.393-6.754 1.786-10.224 1.928-4.09.055-8.201-.783-12.105-1.948-1.63-.626-3.274-1.232-4.958-1.696-1.357-.227-3.224-.969-4.177.384-1.024 1.847-.07 4.47 1.826 5.364 2.89 1.62 6.028 2.548 9.17 3.467.418 0 .802.08 1.064.313 2.164.64 4.313 1.312 6.37 2.245 4.5 1.706 8.025 5.092 12.166 7.438 7.082 3.947 15.097 7.353 23.364 6.636 2.28-.146 4.272-1.251 6.375-2.008.524-.172 1.1.121 1.276.641.368 1.166-1.074 1.403-1.846 1.726-2.96 1.488-6.295 1.968-9.583 1.731-10.784-.712-20.352-6.404-28.947-12.535-2.86-1.641-5.901-2.766-8.993-3.745-.671.217-1.594.141-2.174.409-1.412.706-2.75 1.403-3.597 2.745-.585.893-.71 1.978-.56 3.018.076.434.555.666.843.969.363.196.67.464.968.741.142.041.263.112.374.202 3.767.485 7.631.51 11.142 2.09 5.755 2.583 10.793 6.651 15.166 11.137 10.295 9.951 20.791 19.928 33.295 27.073 7.873 4.365 16.403 7.499 25.007 10.088 11.914 3.174 24.842 1.927 36.296-2.397a70.602 70.602 0 0 0 6.34-3.053c.121-.091.263-.172.419-.237 3.112-1.736 6.073-3.73 8.771-6.066 5.967-4.618 11.072-10.249 15.313-16.476 5.498-7.64 10.234-15.78 15.132-23.804.873-1.297 1.74-2.604 2.608-3.906.015-.025.02-.05.035-.075.02-.031.045-.056.066-.081 3.505-5.273 6.98-10.562 10.582-15.77 2.723-3.35 6.229-5.96 9.573-8.654 3.072-2.614 6.325-5.006 9.805-7.045 4.292-2.518 9.054-4.123 13.951-4.975.222-.137.49-.222.772-.228 1.11-.11 2.179-.459 3.289-.57.242-.328.529-.646.696-.938 2.179-3.13 3.959-7.484 1.72-11.042-1.397-2.018-3.112-3.951-5.342-5.051l.005.005Zm-198.35 52.381c-.55 0-.998-.485-.988-1.03.01-.56.479-.989 1.029-.989.55 0 .998.485.988 1.03-.01.56-.479.989-1.029.989Zm14.194 7.927c-4.015-.938-6.981-4.127-10.719-5.707-.509-.207-.726-.848-.504-1.332.232-.515.827-.712 1.332-.505 1.508.621 2.844 1.544 4.221 2.402 2.018 1.191 3.9 2.725 6.235 3.215 1.26.408.706 2.281-.57 1.937l.005-.01Zm41.37-57.346c.933-.444 1.866-.888 2.799-1.337 4.136-2.301 8.761-3.422 13.452-3.77.64-.207 1.442-.494 1.841.273.252.464.091 1.135-.409 1.367-1.412.636-3.026.44-4.519.757-2.582.384-4.999 1.05-7.344 2.13-1.619.797-3.233 1.59-4.862 2.356-.484.233-1.095.091-1.367-.413-.252-.47-.086-1.13.409-1.368v.005Zm-3.793 2.816c.55 0 .988.525.963 1.055-.025.565-.505.963-1.054.963-.55 0-.989-.524-.964-1.054.026-.565.505-.964 1.055-.964Zm-7.667 32.967c.55 0 .998.485.988 1.03-.01.56-.479.989-1.029.989-.55 0-.998-.484-.988-1.03.01-.56.48-.989 1.029-.989Zm-12.353 51.301c-.55 0-.998-.484-.988-1.029.01-.56.479-.989 1.029-.989.55 0 .998.484.988 1.029-.01.56-.479.989-1.029.989Zm11.152 7.065c-.802.01-1.513-.414-2.199-.782-1.18-.696-2.35-1.398-3.51-2.13a28.944 28.944 0 0 1-2.87-1.973c-.434-.333-.48-1.009-.141-1.423.776-.918 1.75.136 2.416.601.842.595 1.73 1.13 2.607 1.665 1.236.656 2.381 1.655 3.733 2.019 1.321.055 1.291 2.013-.036 2.018v.005Zm1.806-27.785c-.731 1.953-2.033 3.649-3.576 5.036-.832.651-2.25 2.367-3.142.934-.404-.858.363-1.307.933-1.716.908-.716 1.75-1.519 2.471-2.432.974-1.337 1.801-2.912 1.952-4.577-.11-1.65-.227-3.245-.887-4.754-1.337-1.801-3.632-2.679-5.73-3.194-1.206-.333-2.447-.449-3.687-.5-1.02-.106-3.062.172-2.89-1.392.14-.677.867-.959 1.482-.727.903.111 1.816.106 2.724.166 2.416.263 4.65.783 6.739 1.958 2.098 1.106 3.672 2.73 3.888 5.188.384 2.013.626 4.098-.277 6.01Zm2.39-39.114c-.357.949-.695 1.842-.907 2.73-.212.949-.464 1.913-.56 2.887-.05.55-.63.923-1.155.843-1.66-.339-.348-3.094-.242-4.214.247-1.045.63-2.034.983-2.962.137-.671.45-1.338 1.261-1.227.949.157 1 1.247.62 1.948v-.005Zm30.885 38.973c-4.429 4.602-11.561 7.085-17.558 4.102-6.8-3.345-10.345-10.829-11.914-17.919-2.88-13.963.197-31.196 11.051-41.107 6.724-6.04 15.899-5.829 21.84 1.12 4.933 5.692 6.966 13.337 7.44 20.725.58 11.763-2.466 24.465-10.865 33.079h.006Zm12.498-41.844a1.02 1.02 0 0 1 .036-1.428c1.573-1.11 2.168 1.423 2.461 2.528 1.276 3.8 1.301 7.847 1.18 11.808-.116 1.08.273 3.967-1.387 3.765a1.018 1.018 0 0 1-.842-1.15c.161-.97.227-1.954.212-2.938.171-4.042-.036-8.134-1.408-11.975-.08-.206-.121-.433-.252-.61Zm2.129 20.26c-.55 0-.999-.484-.989-1.029.01-.56.479-.989 1.029-.989.55 0 .999.485.989 1.03-.01.56-.479.989-1.029.989Zm3.172 27.836c-.484.53-1.331.838-1.841.167-.676-.924.379-1.575 1.009-2.105 1.831-1.614 3.415-3.497 4.782-5.52 6.92-10.613 8.912-24.096 6.592-36.38-.656-3.204-1.664-6.378-3.122-9.3-.338-1.06-2.108-2.563-.792-3.461 1.468-.727 1.992 1.726 2.608 2.589 6.935 14.583 5.22 33.78-3.385 47.324-1.634 2.483-3.566 4.784-5.851 6.686Zm14.441-14.266c-.777 3.149-2.396 6.076-4.101 8.821-.292.47-.923.616-1.387.328-1.185-.848.222-2.084.631-2.982a23.04 23.04 0 0 0 1.866-3.714c.323-.858.736-1.691.989-2.569-.026-.62.549-1.14 1.165-1.039.539.085.933.615.837 1.155Zm-.918-3.305c-1.049-.949.348-2.483 1.367-1.494 1.225 1.004-.323 2.705-1.367 1.494Zm16.69-28.29c.499-.196 1.125.05 1.306.57.636 1.681.727 3.498 1.11 5.244.242.943.399 2.725-1.034 2.588a1.023 1.023 0 0 1-.842-1.155c.065-.237-.041-.656-.056-.802-.121-.682-.267-1.434-.368-1.994-.166-.903-.242-1.832-.54-2.705-.297-.615-.327-1.463.419-1.746h.005Zm2.451 11.985c-.01.56-.479.99-1.029.99-.549 0-.998-.485-.988-1.03.01-.56.479-.99 1.029-.99.55 0 .999.485.988 1.03ZM141.042 147c-.55 0-1.029-.404-1.049-.969-.021-.535.418-1.05.968-1.05s1.029.404 1.049.969c.02.535-.419 1.05-.968 1.05Zm.449-29.491c-.454-.267-.666-.923-.364-1.382a38.679 38.679 0 0 0 2.341-4.002 47.265 47.265 0 0 0 2.3-5.44c2.31-6.727 3.187-13.696 2.754-20.73-.232-3.255-.722-6.263-1.579-9.32a1.021 1.021 0 0 1 .706-1.242c.53-.147 1.09.176 1.241.706.883 3.164 1.412 6.414 1.639 9.659.605 9.23-1.064 18.833-5.18 27.119a39.211 39.211 0 0 1-2.476 4.274c-.273.469-.908.651-1.377.363l-.005-.005Zm16.11 13.666c-1.145 2.069-2.618 3.921-4.081 5.732-.963 1.045-1.8 2.185-2.759 3.235-1.099 1.115-2.33 2.084-3.52 3.098-.873.611-2.149 2.407-3.163 1.106-.323-.51-.106-1.141.388-1.439.787-.59 1.529-1.251 2.285-1.887 2.88-2.235 5.039-5.223 7.284-8.019.766-1.024 1.432-2.124 2.037-3.239.126-.616.757-1.04 1.362-.818 1.019.384.631 1.549.162 2.236l.005-.005Zm2.703-25.075c-.106.64-.661 1.221-1.341 1.019-.515-.141-.873-.717-.702-1.241.55-1.731.999-3.487 1.352-5.203a54.04 54.04 0 0 0 1.009-13.873c.005-1.281 1.912-1.332 2.007-.14.404 6.54-.413 13.17-2.325 19.433v.005Zm4.434-4.688c-.55 0-.999-.485-.989-1.03.01-.56.479-.989 1.029-.989.55 0 .999.484.989 1.029-.01.561-.479.99-1.029.99Zm2.113-7.313a45.339 45.339 0 0 1-.338 2.958c-.075.545-.62.928-1.155.842-1.543-.318-.469-2.543-.555-3.512.232-.802-.348-1.801.399-2.367a1.011 1.011 0 0 1 1.407.222c.388.535.288 1.242.237 1.862l.005-.004Zm34.001-32.382c-.55 0-.989-.525-.964-1.054.026-.566.505-.964 1.055-.964.549 0 .988.525.963 1.054-.025.566-.504.964-1.054.964Zm19.484-8.548c-1.119.338-2.239.686-3.319 1.145-2.653 1.494-5.386 2.841-8.045 4.325-1.039.505-3.631 2.66-4.373 1-.332-.995.611-1.338 1.357-1.616.893-.428 1.715-.963 2.573-1.463 1.785-1.02 3.667-1.862 5.457-2.876 2.048-1.348 4.393-2.09 6.744-2.715.575-.369 1.412-.071 1.558.615.227 1.15-1.13 1.368-1.952 1.585ZM261.242 310.096c2.628-.374 5.089-1.509 7.374-2.806a9.788 9.788 0 0 0 2.966-2.453c.03-.101.081-.191.136-.277v-40.068c-1.473-.52-3.031-.721-4.559-1.065-2.573-.454-5.216-.595-7.763.091-1.518.419-2.991.979-4.464 1.524-.771.252-1.538.863-2.335 1.136v41.783c2.441 1.797 5.659 2.357 8.645 2.135Zm7.294-23.768c-.55 0-1.029-.384-1.06-.954-.025-.53.404-1.06.954-1.06.549 0 1.029.384 1.059.954.025.53-.404 1.06-.953 1.06Zm-.404-18.828c.555-.031 1.019.403 1.059.953.086 1.641.116 3.291.217 4.931.222 2.735.091 5.49.212 8.22.045 1.312-1.902 1.433-2.018.101-.126-2.775.011-5.51-.211-8.281-.101-1.625-.126-3.25-.217-4.875-.036-.55.413-1.029.958-1.059v.01Z"/><path fill="#E2FFB4" d="M98.406 162.32c-3.914-1.721-8.963-1.302-12.171 1.609-.05.091-.121.172-.192.243a24.15 24.15 0 0 0-.6 2.013c-.64 2.089-1.014 4.451-1.276 6.575-.02 1.57.066 3.144.08 4.719.319 3.875.833 7.776 1.973 11.475 1.306 3.881 2.497 7.877 4.706 11.364 2.759 4.295 5.629 8.438 9.422 11.864 6.93 5.914 15.752 9.588 24.805 10.496 3.566.041 7.208.096 10.693-.751 1.236-.147 2.391-.49 3.536-.858a13.338 13.338 0 0 1-.459-.187c-2.668-1.388-4.62-3.82-6.325-6.237-1.639-2.448-3.127-5.279-4.03-7.999-.948-2.962-1.452-6.035-2.154-9.058-1.825-8.558-5.054-15.058-11.02-21.487-3.163-3.709-6.517-7.226-10.552-9.977a177.054 177.054 0 0 0-4.812-2.982c-.56-.212-1.074-.636-1.63-.828l.006.006Zm22.042 29.692c1.447.217 1.079 2.321-.348 1.998-1.443-.217-1.085-2.321.348-1.998Zm-11.904-19.009a48.673 48.673 0 0 1 8.822 10.027c.63 1.16 4.105 5.884 2.153 6.54-.494.191-1.129-.056-1.306-.576-.867-2.548-2.406-4.748-3.969-6.898-1.791-2.447-3.849-4.663-6.043-6.712-.388-.429-.918-.676-1.251-1.13-.54-.994.752-1.978 1.594-1.251ZM279.481 45.114c-8.101-15.886-29.129-16.693-39.075-4.012-.242.757-.984 1.615-1.559 2.25a24.49 24.49 0 0 0-2.123 4.452c-5.604 15.694 6.965 32.17 23.514 31.004 16.529-1.07 26.723-18.939 19.243-33.699v.005ZM243.72 68.423c-1.337-1.13-2.184-2.695-3.057-4.189-.298-.534-.489-1.115-.741-1.67-.374-.429-.364-1.1.09-1.473.631-.525 1.458-.086 1.736.6.807 1.948 1.785 3.815 3.339 5.243.958.893-.384 2.367-1.367 1.489Zm3.107 2.624c-.55 0-1.024-.419-1.039-.979-.015-.54.428-1.04.978-1.04s1.024.42 1.039.98c.015.54-.429 1.039-.978 1.039Zm31.6-18.838c.015.54-.429 1.04-.979 1.04s-1.024-.42-1.039-.98c-.015-.54.429-1.039.978-1.039.55 0 1.024.419 1.04.98Zm-9.775-12.126c-1.312-.162-1.12-2.115.196-2.009 1.236.167 2.124 1.196 2.976 2.019 1.725 1.59 3.117 3.497 4.277 5.526.671 1.064.938 2.29 1.322 3.471.166.525-.162 1.1-.681 1.257-.52.161-1.09-.151-1.256-.681-.646-2.75-2.275-5.127-4.136-7.211-.883-.798-1.634-1.827-2.704-2.372h.006ZM146.454 35.627a165.359 165.359 0 0 0-2.381 3.956c-.05.233-.126.47-.166.707-.243 1.902-.142 4.077 1.336 5.48 1.801 1.953 4.207 2.927 6.83 3.093 1.069-.02 2.179-.126 3.238-.247.166-.04.343-.06.514-.06.051-.04.106-.086.152-.121 3.424-2.236 7.505-3.573 11.575-3.886 4.883-.823 9.962-.727 14.698-2.26 7.662-2.857 13.018-9.685 16.292-16.936 1.059-2.226 1.639-4.608 2.184-7 .983-3.406 1.271-6.948 1.165-10.48-3.163 4.006-8.524 6.928-13.528 7.826-5.992.525-12.09-.04-18.006 1.211-3.597.182-6.91 1.721-9.75 3.825-5.533 4.073-11.031 8.64-14.153 14.897v-.005Zm41.823-3.235c.762-.615 1.418-1.06 2.079-1.72 1.982-2.352 3.359-4.961 4.544-7.721-.181-1.262 1.695-1.63 1.987-.364.197 1.07-.59 2.034-.963 2.993-.827 1.771-1.851 3.446-2.971 5.051-.782 1.186-1.826 2.155-2.971 2.977-.484.485-1.261.823-1.795.212-.353-.398-.343-1.08.085-1.423l.005-.005Zm-3.162 2.357c.55 0 .984.525.963 1.055-.025.565-.504.963-1.054.963s-.983-.524-.963-1.054c.025-.565.504-.964 1.054-.964Z"/><path fill="#A4D357" d="M269.413 244.398c.368-.333.721-.682 1.044-1.045.459-.52.858-1.08 1.145-1.711.025-.106.066-.201.121-.292V86.347c-.363-.252-.681-.59-1.069-.797-.938-.535-1.831-1.277-2.769-1.696-1.665-.706-3.127-1.65-4.903-1.988-3.672-.57-7.742.62-9.709 3.946-.242.288-.444.687-.671 1.015v157.122c.262.085.519.242.731.484 1.387 1.06 2.79 1.872 4.237 2.427 1.251.449 2.542.742 3.849.702 2.063.035 4.146-.606 5.961-1.681-.01-.308.021-.625.031-.888-.026-1.806-.02-3.608.126-5.41-.061-1.584-.071-3.179-.141-4.763-.061-.55.433-1.035.953-1.06 1.362.02 1.064 1.569 1.099 2.483-.005 1.448.182 2.896.036 4.34-.101 1.271-.076 2.538-.076 3.81l.005.005Zm-14.546-69.332c-.021-.953.005-1.912-.046-2.866a1.02 1.02 0 0 1 .954-1.06 1.013 1.013 0 0 1 1.059.954c.04 2.11.091 4.224.085 6.333.016 1.585.071 3.19.066 4.779.01.55-.393 1.03-.953 1.06-.535.03-1.049-.404-1.059-.954-.036-2.75-.036-5.5-.106-8.246Zm1.407 13.181c-.55 0-1.029-.383-1.059-.953-.026-.53.403-1.06.953-1.06.55 0 1.029.383 1.059.954.025.53-.403 1.059-.953 1.059Zm10.9-97.883a1.038 1.038 0 0 1 0-.923c.716-1.126 2.093-.349 2.012.852 0 3.351-.081 6.707.041 10.063.06 1.62.146 3.24.07 4.864-.025.551-.56.964-1.089.919-.984-.091-.964-1.136-.893-1.887-.035-2.715-.161-5.425-.197-8.14.01-1.913.091-3.83.056-5.743v-.005Zm1.079 141.438c-.55 0-1.029-.383-1.059-.954-.025-.53.403-1.059.953-1.059.55 0 1.029.383 1.059.953.026.53-.403 1.06-.953 1.06Zm.232-120.294c-.55 0-1.029-.383-1.059-.954-.025-.529.403-1.059.953-1.059.55 0 1.029.383 1.059.953.026.53-.403 1.06-.953 1.06Z"/><path fill="#E2FFB4" d="M153.334 20.024s.025 0 .035-.005a1.079 1.079 0 0 1-.515-.086c.111.06.227.08.353.09h.127Z"/><path fill="#A4D357" d="M127.64 26.22c-1.291 2.842-1.826 6-2.794 8.963.101.797.333 1.6.62 2.341.752 2.23 2.679 3.538 4.565 4.703l.045.03a.439.439 0 0 0-.05-.03c-.015-.01-.03-.015-.04-.025.095.05.176.106.247.172a88.326 88.326 0 0 1 7.187 2.043 78.33 78.33 0 0 1 2.078.727c0-.01.005-.02.01-.035.596-1.655 1.095-3.245 1.836-4.82.278-.479.535-.923.787-1.362a.894.894 0 0 1 .257-.449c.253-.444.505-.893.772-1.373 1.327-1.947 2.33-4.087 3.642-6.04.933-1.277 1.957-2.488 2.986-3.684 2.063-2.316 4.494-4.274 6.9-6.217.6-.47 1.2-.939 1.816-1.393.126-.201.277-.403.428-.59.429-.596.681-1.282 1.059-1.908 1.12-2.604.555-5.899-1.558-7.806-.207-.197-.479-.298-.711-.45-1.034-.383-2.099-.686-3.213-.847-1.463-.424-2.966-.792-4.499-.722-1.155-.065-2.31-.217-3.45.066-4.091.918-7.642 3.421-10.683 6.227-.439.419-.858.853-1.266 1.297a1.041 1.041 0 0 1-.197.222c-2.88 3.214-4.998 7.034-6.774 10.96Zm15.782.263c.732-.802 1.382-1.675 2.058-2.518 1.882-2.377 4.217-4.4 6.971-5.697 1.044-.742 2.386.292 1.579 1.407-.5.434-1.171.57-1.715.95-2.099 1.14-3.818 2.805-5.306 4.657-.843.782-2.169 3.709-3.481 2.624-.408-.353-.474-1.02-.106-1.423Zm-1.709 3.699c.549 0 .983.525.963 1.055-.025.57-.504.963-1.054.963s-.984-.524-.964-1.054c.026-.565.505-.964 1.055-.964Z"/><path fill="#E2FFB4" d="M273.479 247.935c-.162.621-.116 1.221-.475 1.751-.302.47-.842.641-1.316.888-4.58 2.191-11.914 3.124-16.836 1.878-.873-.227-1.68-.621-2.497-.994a7.036 7.036 0 0 1-.964-.46c-.469.288-.963.576-1.165.974-.741 1.181-1.205 2.619-.766 3.987.686 1.251 1.301 2.891 2.754 3.396 4.776 1.161 9.875.49 14.672-.833 3.607-1.261 7.304-3.411 8.07-6.186.51-1.751.651-4.603-1.235-5.511-.076.374-.187.732-.248 1.11h.006Z"/><path fill="#000" d="M67.926 106.083c-2.088-1.175-4.318-1.695-6.739-1.958-.908-.065-1.82-.06-2.724-.166-.615-.232-1.341.05-1.483.727-.171 1.564 1.867 1.286 2.89 1.392 1.241.051 2.482.167 3.688.5 2.098.515 4.393 1.398 5.73 3.194.66 1.514.776 3.104.887 4.754-.151 1.67-.973 3.24-1.952 4.577-.721.908-1.563 1.711-2.471 2.432-.565.409-1.332.858-.933 1.716.892 1.438 2.305-.283 3.142-.934 1.549-1.382 2.845-3.083 3.576-5.036.908-1.912.666-4.002.277-6.01-.216-2.458-1.79-4.082-3.888-5.188ZM130.031 42.227c.015.01.03.02.05.03l-.045-.03h-.005ZM172.848 117.897v-.02c0 .015 0 .025-.005.04v-.02h.005ZM78.69 226.822s-.02-.006-.03-.011h-.011l.035.011h.005ZM108.226 63.331c-5.941-6.954-15.116-7.166-21.84-1.12-10.854 9.916-13.93 27.144-11.05 41.107 1.568 7.09 5.114 14.574 11.913 17.92 5.997 2.987 13.124.504 17.557-4.103 8.398-8.614 11.445-21.316 10.865-33.079-.474-7.387-2.512-15.032-7.44-20.725h-.005Zm4.52 33.508c-1.983 9.618-7.94 22.41-18.885 23.662-11.969.368-16.831-14.049-17.452-23.97-.56-9.573 1.463-19.62 6.86-27.735 2.976-4.37 7.41-8.472 12.928-8.901 6.264-.53 11.338 4.531 13.87 9.825 4.025 8.316 4.454 18.096 2.684 27.119h-.005ZM131.837 69.377c-.611-.863-1.14-3.316-2.608-2.59-1.317.9.454 2.403.792 3.463 1.457 2.921 2.466 6.096 3.122 9.3 2.32 12.283.328 25.766-6.592 36.379-1.367 2.023-2.951 3.906-4.782 5.52-.63.53-1.685 1.186-1.009 2.105.51.671 1.362.363 1.841-.167 2.285-1.902 4.217-4.203 5.851-6.686 8.6-13.549 10.32-32.74 3.385-47.324ZM150.524 85.757c-.222-3.25-.751-6.5-1.639-9.659a1.022 1.022 0 0 0-1.241-.706 1.021 1.021 0 0 0-.706 1.241c.862 3.058 1.347 6.066 1.579 9.32.433 7.04-.444 14.004-2.754 20.731a46.399 46.399 0 0 1-2.3 5.44 38.161 38.161 0 0 1-2.341 4.002c-.307.459-.09 1.115.364 1.382.469.288 1.104.106 1.377-.363a38.744 38.744 0 0 0 2.476-4.274c4.116-8.286 5.785-17.89 5.18-27.12l.005.006ZM160.622 86.812a54.263 54.263 0 0 1-1.009 13.872 51.573 51.573 0 0 1-1.352 5.203c-.166.525.192 1.1.702 1.241.68.202 1.235-.378 1.341-1.019 1.912-6.263 2.729-12.889 2.325-19.434-.095-1.19-2.002-1.14-2.007.142v-.005Z"/><path fill="#000" d="M99.526 87.528a3.04 3.04 0 0 1-.364.02c-.211 0-.413-.02-.635-.055-.444-.07-.888-.278-1.271-.505-.394-.232-.757-.494-.994-.893-.237-.394-.358-.863-.439-1.312-.09-.52-.07-1.055.016-1.57a3.92 3.92 0 0 1 1.73-2.638c.438-.278.918-.46 1.427-.53.303-.046.595-.016.893.03-.53-2.564-1.559-4.835-3.435-6.151-5.473-2.736-9.336 5.929-10.774 9.986-2.325 5.995-4.993 23.521 2.043 26.872a4.98 4.98 0 0 0 1.377.202c6.804 0 10.622-15.205 11.016-20.387.09-.974.181-2.09.227-3.276l-.177.061a3.458 3.458 0 0 1-.64.141v.005Z"/><path fill="#000" d="M273.741 77.365c.161-.686.308-1.383.661-1.993 0-.01 0-.016.005-.026 7.908-6.368 11.949-17.329 8.15-28.128-7.268-20.336-34.353-22.733-45.359-5.01-.54.6-1.16 1.114-1.927 1.412-1.573.732-3.268 1.085-4.983 1.307-.545 0-1.095.015-1.634.076-1.453.126-2.895.363-4.323.656-4.368.949-8.458 2.83-12.61 4.45-4.095 1.55-7.893 3.75-11.913 5.47-4.176 1.636-8.585 2.993-13.165 3.66-8.307.802-16.972-.117-24.674-3.548-2.351-.954-4.691-2.205-7.011-3.442.03-.08.07-.156.126-.222 1.488-1.912 3.813-3.098 6.078-3.956 4.983-1.902 10.546-1.786 15.792-2.63 7.47-.519 14.219-5.035 18.561-11 2.512-3.411 4.616-7.15 6.023-11.152 1.125-4.032 2.229-8.12 2.365-12.334.041-1.115-.035-2.215.005-3.33-.121-1.105.631-3.25-.928-3.533-.6-.055-.998.394-1.351.813-.56.681-1.06 1.413-1.609 2.104-2.83 3.245-6.825 5.415-10.951 6.53-3.561.52-7.197.394-10.793.53-2.316 0-4.606.252-6.885.605a7.401 7.401 0 0 1-1.478-.721c-2.003-1.156-3.823-2.553-5.675-3.911-1.563-.878-3.147-1.73-4.771-2.488-1.917-.979-4.086-1.135-6.118-1.761-1.15-.323-2.341-.323-3.521-.343-2.391-.363-4.958.277-7.192 1.216-.121.056-.237.116-.359.172-.403-.661-1.266-1.272-1.699-1.731-2.068-1.625-4.605-2.549-7.011-3.563-1.998-.812-4.126-1.211-6.265-1.393-2.143-.191-4.353-.262-6.426.414-2.38.818-4.585 2.08-6.537 3.669-.796-.722-2.118-1.297-2.743-1.585-.984-.393-2.043-.55-3.087-.676-3.511-.323-7.203-.07-10.436 1.423-3.339 1.716-6.618 4.143-8.418 7.509-.903 2.039-1.412 4.138-1.78 6.313-5.075-2.094-9.735.398-13.382 4.007-2.21 2.775-2.688 6.752-2.804 10.198-.106 2.23.252 4.42.802 6.576.494 2.78 1.235 5.672 1.7 8.518.055.782.146 1.574.05 2.356a1.33 1.33 0 0 0-.04.944 90.799 90.799 0 0 0-3.607 2.468c-9.88 8.27-17.497 18.817-26.667 27.81-3.314 3.2-7.01 6.136-11.182 8.13-3.274 1.276-6.845 1.6-10.33 1.63-3.077-.137-6.335-.833-9.351-1.57-3.223-.913-9.654-4.481-12.201-.984-1.398 1.913-1 4.779.282 6.651 1.296 1.615 3.284 2.402 5.125 3.225.232.106.469.201.706.297-2.078 1.035-4.212 2.12-5.412 4.179-1.79 2.563.045 5.914 2.749 6.878 5.19 2.185 11.08 1.15 16.281 3.25 7.495 3.179 13.124 9.199 18.88 14.745 11.731 11.228 24.306 22.234 39.594 28.254.958.389 1.927.772 2.89 1.156a.894.894 0 0 0-.076.494c-.625 2.069-1.458 4.083-2.42 6.021-1.69 2.715-3.83 4.834-6.084 7.135-5.543 5.813-12.18 11.203-15.363 18.798-2.31 5.818-3.627 12.615-1.74 18.716 1.382 4.017 3.56 7.802 6.521 10.86 4.398 4.224 9.957 7.292 15.843 8.871 1.12.303 1.755-1.296.741-1.852-1.805-1.256-3.43-3.451-2.945-5.762.58-1.968 1.518-3.926 3.248-5.127 2.29-1.706 5.478-1.979 7.647-3.932 1.79-1.438 3.142-3.376 3.959-5.515 1.528 2.21 3.208 4.325 4.953 6.358 7.294 7.847 17.775 12.48 28.337 13.681 4.499.252 8.957-.046 13.356-1.07 2.017-.379 4.065-1.549 6.173-1.65 1.342-.025 1.261-2.029 0-2.019-.035 0-.065.005-.1.01a.911.911 0 0 0-.243-.06c-.958-.096-1.921-.157-2.854-.429-3.087-.803-5.039-3.724-6.835-6.167-1.533-2.407-2.824-4.799-3.722-7.569-1.564-5.496-2.285-11.38-4.393-16.734-2.129-5.975-6.149-11.021-10.376-15.653-3.919-4.744-8.776-8.614-14.112-11.657 1.755.242 3.525.398 5.316.434 10.072.227 20.382-1.625 29.431-6.162a47.242 47.242 0 0 0 2.89-1.494c1.624-.318 3.233-.757 4.832-1.186 4.116-.666 8.348.132 12.337 1.212 3.405.686 6.734 1.771 10.179 2.23 4.61.343 9.391-1.156 12.66-4.501 1.876-1.888 2.592-4.557 2.845-7.141.085-1.322.075-2.679-.142-3.991 3.365-1.126 6.29-3.291 8.202-6.641 1.16-1.842 1.649-3.967 1.604-6.127.03-.837.06-1.685-.076-2.518a12.089 12.089 0 0 0 2.214-1.433c4.056-3.214 7.082-7.463 9.906-11.748 1.65-2.437 3.329-4.864 5.211-7.125a31.412 31.412 0 0 1 2.088-2.21c.313-.263.59-.581.58-1.015.01-.696-.782-1.186-1.407-.903-1.478.984-2.81 2.261-4.53 2.841-3.692 1.221-7.868 1.08-11.389-.61-2.688-1.131-5.301-2.786-8.267-3.003a8.303 8.303 0 0 0-2.274-.096c2.849-4.294 5.694-8.584 8.62-12.828 2.754-3.325 6.274-5.879 9.598-8.583a65.861 65.861 0 0 1 9.245-6.611c5.856-3.401 12.575-5.011 19.318-5.36 2.437.278 4.948.652 6.835 2.332.121.116.252.197.383.248a25.36 25.36 0 0 0 7.349 7.251c.262.318.651.585.964.797.872.682 1.624 1.5 2.355 2.322 1.337 1.635 1.806 3.825 2.098 5.894.076.752.031 1.534.091 2.286-.03.141-.025.287.005.429V249.16c-.055.041-.111.081-.161.121-1.281.561-2.083 1.721-2.603 2.973a1.18 1.18 0 0 0-.272-.02c-2.008-.106-4 .206-5.997.348-.777.025-1.559.05-2.336.07a2.733 2.733 0 0 0-.862.026c-2.552.065-5.105.106-7.662.075-6.083.091-12.141.646-18.213.838-3.471.389-6.971-.217-10.431.096a.964.964 0 0 0-.555.484c-.383.106-.701.424-.716.949v23.773c0 .192.06.369.151.525.015.515.389 1.04 1.08 1.095 2.809.328 5.659.252 8.478.106 1.947.056 3.884.242 5.831.373.151.006.283-.015.404-.055.862.177 1.78-.651.928-1.726-.061-.555.121-1.181.58-1.534a20.71 20.71 0 0 0 2.512-1.928c2.844-1.983 7.394-.005 9.896 1.827.65.535 1.281 1.161 1.457 2.019.197.938.55 1.902.449 2.866-.888 2.422-2.865 4.4-5.109 5.637-.323.166-.772.262-1.196.388h-.05c-.328 0-.6.157-.787.374-.277.207-.444.499-.373.964.096.489.59.862 1.084.802.187.04.379.071.555.101 5.064.969 7.162 4.168 5.982 9.189-1.054 1.247-2.421 2.266-3.707 3.265-1.71.853-3.788 1.11-5.659.732-1.029-.338-1.892-1.126-2.593-1.933-.545-.858-1.019-1.746-1.69-2.518a1.097 1.097 0 0 0-.378-.394 1.018 1.018 0 0 0-.999-.641c-1.967.122-3.924.293-5.891.349-3.228.308-6.496.57-9.735.262a.988.988 0 0 0-.665.081 1.018 1.018 0 0 0-.52 1.186c-.01.06-.02.126-.02.191v22.875c0 .55.459 1.01 1.009 1.01.116-.005.217-.026.307-.051 3.072.121 6.174-.171 9.251.076 7.803.126 15.535-.49 23.323-.732 1.19.041 2.38-.035 3.571-.076.222.076.469.061.731-.015.111 0 .222-.005.333-.005 2.683 0 5.362.298 8.04-.01a19.801 19.801 0 0 1 2.255-.166c.287.03.57-.026.807-.162h.131c.04.722.146 1.433.393 2.125.333 1.473.883 2.836 1.508 4.218 1.947 3.2 5.811 4.577 9.417 4.456h-.04c4.469-.096 9.104-2.715 11.248-6.681.539-1.206.595-2.564.958-3.825.04-.55.242-1.413.182-2.115 1.825-1.251 3.177-3.113 3.354-5.465.237-1.317-.187-2.588-.394-3.875-.378-2.024-1.578-3.679-3.419-4.638v-49.05a.716.716 0 0 0-.021-.156 1.66 1.66 0 0 0 .182-.142c.545-.353.973-.726 1.266-1.115.409-.394.797-.807 1.145-1.256 1.074-1.343 1.725-3.048 1.705-4.779-.056-2.362-1.811-5.95-4.187-6.672-.03-.01-.055-.015-.085-.025V77.365h.02ZM170.357 16.91c5.916-1.251 12.014-.686 18.006-1.211 5.004-.893 10.365-3.815 13.528-7.827.106 3.533-.182 7.075-1.165 10.481-.54 2.392-1.12 4.774-2.184 7-3.274 7.251-8.63 14.079-16.292 16.935-4.736 1.534-9.82 1.443-14.698 2.26-4.075.314-8.151 1.65-11.575 3.886-.046.036-.096.081-.152.122-.171 0-.343.02-.514.06-1.059.121-2.164.227-3.238.247-2.623-.166-5.029-1.145-6.83-3.093-1.478-1.403-1.578-3.583-1.336-5.48.04-.238.121-.47.166-.707a165.557 165.557 0 0 1 2.381-3.956c3.122-6.258 8.62-10.825 14.153-14.897 2.84-2.104 6.148-3.638 9.75-3.825v.005Zm-34.48-3.164c3.041-2.8 6.592-5.309 10.683-6.227 1.14-.283 2.3-.126 3.45-.066 1.533-.07 3.036.298 4.499.722 1.109.161 2.174.464 3.213.848.232.151.504.252.711.449 2.113 1.907 2.678 5.203 1.559 7.806-.379.626-.636 1.313-1.06 1.908a7.063 7.063 0 0 0-.428.59c-.611.454-1.216.924-1.816 1.393-2.411 1.943-4.837 3.896-6.9 6.217-1.029 1.201-2.053 2.407-2.986 3.684-1.312 1.958-2.32 4.093-3.642 6.04-.262.48-.514.924-.772 1.373a.894.894 0 0 0-.257.45l-.787 1.362c-.741 1.57-1.235 3.164-1.836 4.819 0 .01-.005.02-.01.035a78.33 78.33 0 0 0-2.078-.727 91.033 91.033 0 0 0-7.187-2.043 1.374 1.374 0 0 0-.247-.172c.015.01.03.015.04.025-1.881-1.165-3.813-2.472-4.565-4.703-.287-.742-.519-1.539-.62-2.341.963-2.962 1.503-6.121 2.794-8.962 1.776-3.927 3.894-7.746 6.774-10.961.076-.066.141-.136.197-.222.408-.444.827-.878 1.266-1.297h.005Zm-26.183-.237c2.204-4.87 6.254-8.892 11.248-10.85 3.213-1.054 6.839-.742 10.178.212a.966.966 0 0 0 .535.308c.61.45 1.095 1.055 1.538 1.665 1.771 2.402 1.524 5.582.232 8.15-.141.358-.368.666-.539 1.01-4.146 4.617-7.082 10.39-8.766 16.33-.767 2.593-1.342 5.464-2.765 7.887-.443.66-.998 1.256-1.543 1.837a1.01 1.01 0 0 0-.358.413 90.347 90.347 0 0 0-6.91-.52c-.01 0-.015-.01-.02-.015-.358-.277-.691-.439-1.09-.666-2.229-1.65-3.757-4.153-4.559-6.787-.278-.555-.288-1.514-.54-2.18.489-3.013.54-6.066 1.069-9.073a38.093 38.093 0 0 1 2.29-7.716v-.005Zm-18.824-.182c.812-2.967 3.279-4.98 5.654-6.732 1.74-1.271 3.728-2.028 5.806-2.417.116.02.232.03.358 0a8.83 8.83 0 0 1 2.159.631c2.295.923 3.5 3.558 3.379 5.934-.015.475-.201 1.09-.222 1.62-.186.404-.368.813-.529 1.232-1.135 2.987-1.988 6.1-2.346 9.28-.595 4.577-.615 9.336-2.199 13.716-.353.736-.696 1.64-1.14 2.422-.358.353-.761.777-.822 1.226-.338.03-.681.07-1.019.101a.903.903 0 0 0 .247-.57c.122-1.893.394-3.775.631-5.657a76.097 76.097 0 0 1 1.115-5.425c.101-.772.6-1.64.222-2.387-.424-.747-1.69-.555-1.836.303-.515 2.548-1.196 5.056-1.559 7.63-.212 1.776-.469 3.558-.58 5.344-.02.363.141.701.414.903-.5.06-1 .127-1.498.192a1.043 1.043 0 0 0-.374-.282c-1.896-.45-3.596-1.474-4.811-3.018a10.02 10.02 0 0 1-1.423-2.599 1.641 1.641 0 0 0-.096-.383c-.206-1.893-.383-3.795-.615-5.728-.187-2.68-.262-5.374-.298-8.059.126-2.483.717-4.89 1.382-7.287v.01Zm-14.496 8.846a20.985 20.985 0 0 1 2.492-1.937c.116-.016.232-.04.338-.091a5.25 5.25 0 0 1 1.962.151c3.51.818 5.427 3.951 6.527 7.176v.01c.11 1.54.262 3.078.444 4.607.05.788.146 1.59.247 2.402-.015.197.02.41.075.626.253 2.039.485 4.113.081 6.111-.106.515-.469 1.11-.504 1.635-4.08 1.423-8 3.351-11.707 5.597.086-2.06-.726-5.122-.863-6.056-.408-1.746-.716-3.522-1.1-5.273-1.119-4.138-1.048-11.688 1.998-14.958h.01Zm4.162 187.753c-.747.818-1.478 1.539-2.225 2.382-.262.237-.575.575-.762.934-1.407 1.322-2.3 3.113-2.89 4.95-.65 1.802-.201 3.83.742 5.455-4.166-1.685-8.07-4.143-11.303-7.277-2.114-2.25-3.824-4.965-5.06-7.816-2.365-4.915-1.75-10.572-.438-15.699 1.8-7.121 6.925-12.581 11.984-17.622 3.626-3.679 7.57-7.141 10.45-11.47.868-1.484 1.494-3.104 2.1-4.719 1.038-.136 1.906-.005 2.692.586-2.108 3.901-3.101 8.422-3.656 12.812a55.829 55.829 0 0 0 2.547 18.485c.02.111.05.227.106.343 1.735 6.394-.07 13.58-4.287 18.666v-.01Zm24.306-43.797c4.035 2.751 7.394 6.268 10.552 9.977 5.967 6.424 9.195 12.929 11.02 21.487.702 3.023 1.206 6.096 2.154 9.058.908 2.72 2.391 5.551 4.03 7.999 1.705 2.417 3.652 4.849 6.325 6.237.152.066.308.126.459.187-1.145.373-2.3.716-3.535.857-3.491.843-7.127.793-10.693.752-9.054-.903-17.876-4.582-24.806-10.496-3.793-3.426-6.658-7.569-9.422-11.864-2.21-3.487-3.4-7.483-4.706-11.364-1.14-3.699-1.654-7.6-1.972-11.475-.02-1.575-.106-3.149-.08-4.719.261-2.124.635-4.486 1.275-6.575.172-.681.378-1.352.6-2.014.071-.07.142-.151.192-.242 3.208-2.917 8.257-3.335 12.17-1.61.55.192 1.07.616 1.63.828 1.624.969 3.238 1.973 4.812 2.982l-.005-.005Zm74.674-18.706c-.222.797-.519 1.569-.958 2.281-1.71 2.407-4.504 3.961-7.364 4.652-3.732.894-7.379-.141-11.016-1.105-1.806-.373-3.626-.837-5.467-1.256a1.515 1.515 0 0 0-.212-.157c-.257-.146-.56-.186-.812-.343-.353-.267-.575-.681-.838-1.034-.822-.974-1.029-2.231-.877-3.472.186-.732.307-1.277.645-2.024.162-.363.459-.762.636-1.16a72.877 72.877 0 0 0 3.677-3.72.996.996 0 0 0 .232-.085 11.83 11.83 0 0 1 2.824-.318c3.355-.046 6.663.752 9.927 1.448 1.427.459 2.885.792 4.393.792.267.02.53.025.792.036.03.025.055.06.091.08.761.444 1.341.788 2.063 1.393 1.024.848 1.866 1.978 2.239 3.29.045.227.025.46.02.682l.005.02Zm9.553-15.558c-.484 1.246-1.255 2.382-2.113 3.467-3.657 4.304-9.185 5.127-14.531 4.41-1.897-.499-3.824-.979-5.771-1.352-.03-.02-.055-.041-.085-.056-1.019-.232-1.675-1.13-2.159-2.003-.313-1.095-.449-2.311-.313-3.457.202-1.171.696-2.291 1.09-3.411a183.235 183.235 0 0 0 2.38-3.512c.071-.026.142-.056.217-.096.913-.525 1.988-.828 3.047-.787 1.664.075 3.288.393 4.897.807l.061.015c1.387.358 2.764.787 4.141 1.186 1.624.288 3.278.389 4.928.434.141-.01.277-.025.418-.035.157.116.333.196.53.232.444.207.807.489 1.332.787.948.671 1.982 1.741 2.002 2.982a.98.98 0 0 0-.06.399l-.011-.01Zm-1.75-29.062c2.84.919 5.412 2.473 8.212 3.472 1.674.303 3.344.762 5.054.772 1.714-.045 3.439-.323 5.094-.767-3.874 5.057-6.845 10.88-11.641 15.159a13.194 13.194 0 0 1-7.364 3.815c-2.764.495-5.685.121-8.323-.777-.666-.171-1.347-.358-2.043-.54-.267-.106-.554-.186-.807-.333-1.467-.772-2.411-2.417-2.748-4.022-.106-.56-.056-1.115.09-1.715.02-.091.031-.177.031-.263 2.088-3.391 4.141-6.802 6.204-10.209a882.41 882.41 0 0 0 2.471-3.704c.121-.106.227-.232.308-.373 1.372-1.357 3.722-.823 5.452-.525l.01.01Zm41.471-38.76c-.162.292-.454.605-.696.938-1.11.116-2.184.46-3.289.57-.282.005-.555.091-.771.227-4.898.853-9.659 2.463-13.952 4.976-3.48 2.039-6.738 4.436-9.805 7.045-3.349 2.695-6.85 5.303-9.573 8.654-3.607 5.203-7.077 10.497-10.582 15.77-.021.03-.046.055-.066.081-.015.025-.025.05-.035.075-.868 1.302-1.735 2.609-2.608 3.906-4.898 8.024-9.634 16.164-15.132 23.804-4.241 6.227-9.346 11.858-15.313 16.476-2.698 2.336-5.659 4.335-8.771 6.066a2.071 2.071 0 0 0-.419.237 70.602 70.602 0 0 1-6.34 3.053c-11.454 4.324-24.382 5.576-36.295 2.397-8.605-2.594-17.135-5.728-25.008-10.088-12.509-7.145-23-17.122-33.295-27.073-4.373-4.486-9.417-8.559-15.167-11.137-3.51-1.58-7.374-1.605-11.141-2.09a1.184 1.184 0 0 0-.374-.202c-.302-.277-.61-.545-.968-.741-.288-.303-.767-.535-.842-.969-.152-1.04-.026-2.13.56-3.018.847-1.342 2.184-2.039 3.596-2.745.58-.268 1.503-.192 2.174-.409 3.092.979 6.133 2.099 8.993 3.745 8.595 6.126 18.163 11.823 28.947 12.535 3.283.237 6.622-.248 9.583-1.731.772-.323 2.214-.56 1.846-1.726a1.02 1.02 0 0 0-1.276-.641c-2.103.757-4.1 1.862-6.376 2.008-8.266.717-16.276-2.689-23.363-6.636-4.14-2.346-7.666-5.732-12.165-7.438-2.058-.933-4.212-1.61-6.37-2.245-.263-.238-.646-.313-1.065-.313-3.143-.924-6.28-1.847-9.17-3.467-1.891-.893-2.845-3.517-1.826-5.364.954-1.353 2.82-.61 4.177-.384 1.684.464 3.328 1.07 4.958 1.696 3.904 1.16 8.014 2.003 12.105 1.948 3.47-.137 7.006-.53 10.224-1.928 7.122-3.472 12.625-9.391 17.926-15.134 6.416-7.15 12.59-14.609 19.933-20.846 3.223-2.468 7.001-4.683 10.723-6.48 6.971-3.699 14.824-5.283 22.668-5.45 7.313-.353 14.743.263 21.945 1.746 8.817 1.711 17.21 5.148 25.139 9.326 8.61 4.965 17.865 8.548 27.948 8.422 6.603.318 13.084-1.271 19.222-3.583 4.182-1.6 8.035-3.91 12.186-5.57 4.202-1.64 8.529-3.624 13.019-4.659.151.121.337.222.564.278 2.23 1.1 3.945 3.033 5.342 5.051 2.239 3.553.464 7.913-1.72 11.042l-.005-.005Zm21.719 15.507s-.005-.01-.01-.015h.01v.015Zm-4.04 231.005c-.752 1.756-.858 3.759-1.907 5.399-1.453 2.382-3.748 4.113-6.078 5.582-.898.015-1.795.035-2.693.085-4.817-.106-9.705.565-14.552.55-6.148.308-12.297.076-18.445.096-.005-.171-.01-.333 0-.479v-20.7c.449.035.903.06 1.357.076 3.112.06 6.199-.328 9.3-.465 1.272-.075 2.538-.171 3.804-.252.423.696 1.044 1.251 1.351 2.024 1.211 1.937 3.294 3.552 5.644 3.593 2.437.085 5.095-.374 6.936-2.09 1.14-1.085 2.658-1.927 3.354-3.386 1.377-5.228-.424-9.477-5.271-11.248.267-.161.525-.338.777-.53 2.032-1.645 4.07-3.754 4.539-6.419-.111-1.937-.403-4.143-1.805-5.596-2.265-2.246-5.392-3.497-8.53-3.871-2.239-.307-4.352.601-5.896 2.191-1.155.756-2.451 1.614-2.658 3.113a5.95 5.95 0 0 0-.076.676c-1.937-.141-3.873-.363-5.81-.308-1.644.142-3.294.106-4.943.061-.691-.025-1.387-.01-2.063-.106.01-.298-.01-.6-.01-.863v-22.047c.07 0 .141 0 .207-.005 1.709-.051 3.429-.071 5.134.055 6.088.111 12.166-.641 18.254-.792 4.207-.217 8.413-.106 12.615-.237 1.866.277 3.848.53 5.397 1.716 1.71 1.645 3.288 3.451 4.423 5.545.792 1.746 1.402 3.664 1.644 5.582.021.111.061.212.111.308v33.976c-.201.328-.292.783-.368 1.196-.328.712-.343 1.494-.63 2.211-.868 1.887-2.27 3.461-3.112 5.364v-.005Zm25.274 13.781c-.201.873-.242 1.797-.751 2.559-3.127 4.743-10.532 6.908-15.263 3.29-1.17-.732-1.836-2.104-2.244-3.401a12.984 12.984 0 0 1-.56-1.726c1.846.555 3.732 1.075 5.649 1.236 3.848.222 7.803-.146 11.409-1.584.404-.222 1.155-.495 1.876-.833-.035.151-.075.303-.11.454l-.006.005Zm2.507-14.029c.631.813.913 1.817 1.044 2.826.49 1.651.384 3.487-.575 4.956-.378.636-1.029 1.261-1.689 1.64-1.826 1.029-3.768 1.862-5.796 2.402-4.257 1.07-9.18 1.711-13.27-.323-3.011-1.6-5.14-4.062-5.029-7.62.187-1.095.767-2.084 1.256-3.068a2.47 2.47 0 0 1 .429-.621c.015.162.03.323.05.485.252 1.175 1.216 1.983 2.199 2.583 1.806 1.166 4 1.333 6.053 1.827 3.748.333 7.399-.565 10.758-2.195 1.463-.878 3.244-1.862 3.839-3.548.267.192.514.399.726.662l.005-.006Zm-21.648-2.351v-41.784c.797-.272 1.564-.888 2.335-1.135 1.473-.545 2.946-1.1 4.464-1.524 2.547-.686 5.185-.545 7.763-.091 1.528.338 3.086.545 4.559 1.065v40.068a1.098 1.098 0 0 0-.136.277 9.803 9.803 0 0 1-2.966 2.453c-2.285 1.292-4.746 2.432-7.374 2.805-2.981.223-6.199-.338-8.645-2.134Zm22.354-55.626c-.766 2.776-4.463 4.926-8.07 6.187-4.797 1.322-9.896 1.988-14.672.833-1.453-.505-2.068-2.145-2.754-3.396-.439-1.368.025-2.806.766-3.987.202-.399.696-.686 1.165-.974.328.197.686.348.964.459.817.374 1.624.767 2.497.995 4.922 1.241 12.256.312 16.836-1.878.474-.247 1.014-.419 1.316-.888.364-.525.313-1.13.475-1.751.06-.378.171-.737.247-1.11 1.886.908 1.745 3.759 1.235 5.51h-.005Zm-5.508-16.092c-.035-.919.263-2.468-1.099-2.483-.525.025-1.019.515-.953 1.06.07 1.584.08 3.179.141 4.763-.146 1.802-.146 3.604-.126 5.41-.01.268-.036.58-.031.888-1.81 1.075-3.898 1.716-5.961 1.681-1.312.04-2.603-.253-3.849-.702-1.447-.555-2.85-1.367-4.237-2.427a1.65 1.65 0 0 0-.731-.485V86.827c.232-.328.429-.722.671-1.015 1.967-3.325 6.037-4.516 9.709-3.946 1.776.338 3.238 1.282 4.903 1.988.938.414 1.831 1.156 2.769 1.696.383.207.706.545 1.069.797V241.35c-.05.091-.096.191-.121.292-.292.631-.691 1.191-1.145 1.711a11.44 11.44 0 0 1-1.044 1.045c0-1.272-.025-2.544.076-3.81.141-1.449-.046-2.892-.035-4.34l-.006-.01Zm-9.21-157.435c-16.549 1.166-29.118-15.31-23.514-31.005a24.66 24.66 0 0 1 2.123-4.45c.575-.636 1.317-1.494 1.559-2.251 9.946-12.681 30.974-11.874 39.075 4.012 7.475 14.76-2.714 32.624-19.243 33.7v-.006Z"/><path fill="#000" d="M189.987 33.603c1.145-.822 2.189-1.791 2.971-2.977 1.125-1.6 2.144-3.28 2.971-5.051.373-.96 1.16-1.923.963-2.993-.292-1.267-2.169-.898-1.987.363-1.185 2.76-2.562 5.375-4.544 7.721-.661.661-1.322 1.105-2.079 1.721-.428.348-.438 1.03-.085 1.423.534.61 1.311.273 1.795-.212l-.005.005ZM185.019 36.762c.55 0 1.029-.393 1.054-.963.025-.53-.413-1.055-.963-1.055s-1.029.394-1.054.964c-.025.53.413 1.054.963 1.054ZM147.009 25.282c1.482-1.847 3.207-3.517 5.306-4.658.544-.378 1.215-.52 1.715-.948.812-1.116-.53-2.15-1.579-1.409-2.754 1.297-5.089 3.321-6.971 5.698-.676.848-1.331 1.716-2.058 2.518-.368.404-.302 1.07.106 1.423 1.312 1.085 2.638-1.842 3.481-2.624Zm6.36-5.268s-.025 0-.035.005h-.126a.853.853 0 0 1-.354-.091c.167.07.338.1.515.086ZM141.617 32.2c.549 0 1.029-.393 1.054-.963.025-.53-.414-1.055-.964-1.055-.549 0-1.029.394-1.054.964-.025.53.414 1.054.964 1.054ZM121.658 23.95c.494.242 1.11 0 1.342-.485.771-1.327 1.22-2.795 1.916-4.158.908-1.514 1.917-2.977 3.143-4.249.6-.686 1.427-1.17 1.962-1.902.701-1.15-.989-2.2-1.71-1.075-2.451 2.084-4.534 4.683-5.821 7.64-.393.979-.787 1.968-1.321 2.881-.267.485.01 1.12.484 1.343l.005.005ZM119.762 28.9c.549 0 1.028-.393 1.054-.964.025-.53-.414-1.054-.964-1.054-.549 0-1.029.393-1.054.963-.025.53.414 1.055.964 1.055ZM101.715 23.662c.549 0 .988-.515.968-1.05-.025-.565-.499-.968-1.049-.968-.55 0-.989.514-.969 1.05.026.564.5.968 1.05.968ZM79.769 25.52c.01.055.01.105.01.16v-.03l-.015-.13h.005Z"/><path fill="#000" d="M76.425 32.08c.005.55.514.988 1.049.968 1.427-.146.852-1.917.968-2.896.025-.934.293-1.837.666-2.685.277-.565.706-1.135.67-1.786v.01c.016-1.176-1.724-1.388-1.992-.238-.353 1.065-1.018 2.064-1.2 3.215-.247 1.115-.156 2.276-.166 3.411h.005ZM77.71 36.52c.596 1.226 2.407.333 1.812-.898-.596-1.226-2.401-.333-1.811.898ZM220.73 50.973c-2.351.625-4.696 1.372-6.744 2.715-1.79 1.009-3.672 1.857-5.457 2.876-.858.5-1.68 1.035-2.573 1.463-.746.278-1.689.621-1.357 1.615.742 1.665 3.334-.49 4.374-.999 2.658-1.484 5.391-2.83 8.044-4.325 1.075-.459 2.2-.807 3.319-1.145.822-.217 2.179-.434 1.952-1.585-.146-.691-.978-.984-1.558-.615ZM200.943 59.708c-.55 0-1.029.399-1.055.964-.025.53.414 1.055.964 1.055s1.029-.4 1.054-.964c.025-.53-.414-1.055-.963-1.055ZM83.345 52.694c1.63-.773 3.243-1.565 4.862-2.357 2.346-1.08 4.767-1.751 7.344-2.13 1.493-.323 3.107-.12 4.519-.757.5-.232.661-.903.409-1.367-.399-.767-1.2-.48-1.841-.273-4.69.348-9.321 1.469-13.452 3.77-.933.449-1.866.893-2.8 1.337-.494.237-.66.904-.408 1.368.267.504.878.646 1.367.414v-.005ZM78.503 55.747c.55 0 1.029-.4 1.054-.964.025-.53-.414-1.055-.963-1.055-.55 0-1.03.399-1.055.964-.025.53.414 1.055.964 1.055ZM157.434 128.943c-.605-.222-1.235.202-1.362.818-.61 1.115-1.271 2.215-2.037 3.24-2.245 2.795-4.399 5.783-7.284 8.018-.751.631-1.493 1.297-2.285 1.887-.494.298-.706.934-.388 1.439 1.014 1.302 2.29-.49 3.163-1.105 1.19-1.015 2.421-1.984 3.52-3.099.959-1.045 1.791-2.19 2.759-3.235 1.463-1.811 2.936-3.658 4.081-5.732.469-.686.852-1.847-.162-2.236l-.005.005ZM140.956 144.985c-.55 0-.989.515-.969 1.05.026.565.5.969 1.05.969.549 0 .988-.515.968-1.05-.025-.565-.499-.969-1.049-.969ZM69.762 143.048c-1.352-.364-2.497-1.363-3.733-2.019-.877-.54-1.765-1.07-2.607-1.665-.666-.464-1.645-1.519-2.416-.601-.338.414-.298 1.085.14 1.423.954.732 1.781 1.307 2.87 1.973 1.16.732 2.336 1.434 3.511 2.13.686.368 1.397.792 2.2.782 1.326-.005 1.356-1.963.035-2.018v-.005ZM58.61 135.983c-.55 0-1.02.434-1.03.989-.01.54.445 1.029.99 1.029.544 0 1.018-.434 1.028-.989.01-.54-.444-1.029-.988-1.029ZM41.587 106.326c-2.34-.49-4.222-2.024-6.235-3.215-1.377-.858-2.713-1.781-4.221-2.402-.51-.207-1.105-.01-1.332.505-.222.489 0 1.125.505 1.332 3.737 1.58 6.703 4.769 10.718 5.707 1.276.349 1.83-1.529.57-1.937l-.005.01ZM26.859 98.312c-.55 0-1.02.434-1.03.99-.01.54.444 1.029.99 1.029.544 0 1.018-.434 1.028-.99.01-.54-.444-1.029-.988-1.029ZM118.965 87.881c.02.984-.051 1.968-.212 2.937a1.015 1.015 0 0 0 .842 1.15c1.66.203 1.271-2.684 1.387-3.764.121-3.961.096-8.013-1.18-11.808-.293-1.105-.888-3.633-2.461-2.528a1.02 1.02 0 0 0-.036 1.428c.136.176.177.409.252.61 1.377 3.84 1.584 7.933 1.408 11.975ZM119.469 93.538c-.55 0-1.019.434-1.029.99-.01.54.439 1.029.989 1.029.549 0 1.019-.434 1.029-.99.01-.54-.439-1.029-.989-1.029ZM73.303 76.22c-.807-.112-1.125.555-1.261 1.226-.353.933-.737 1.917-.984 2.962-.106 1.12-1.417 3.876.242 4.214.52.08 1.1-.293 1.155-.843.096-.974.343-1.933.56-2.887.212-.888.55-1.781.908-2.73.378-.701.328-1.786-.62-1.948v.005ZM70.886 88.72c.55 0 1.02-.435 1.03-.99.01-.54-.44-1.03-.99-1.03-.549 0-1.018.435-1.028.99-.01.54.439 1.03.989 1.03ZM136.205 107.966c-.621-.101-1.191.419-1.166 1.039-.252.878-.665 1.711-.988 2.569a23.331 23.331 0 0 1-1.866 3.714c-.404.898-1.816 2.135-.631 2.982a1.017 1.017 0 0 0 1.387-.328c1.705-2.745 3.324-5.672 4.101-8.821a1.016 1.016 0 0 0-.837-1.155ZM137.496 104.327c-1.019-.989-2.416.545-1.367 1.494 1.044 1.211 2.597-.489 1.367-1.494ZM152.935 81.982c.101.56.247 1.317.368 1.994.02.141.121.56.056.802-.086.54.297 1.07.842 1.156 1.433.13 1.276-1.645 1.034-2.59-.383-1.745-.474-3.562-1.11-5.242-.181-.52-.812-.767-1.306-.57-.751.287-.716 1.13-.419 1.746.298.878.374 1.801.54 2.704h-.005ZM154.282 88.487c-.55 0-1.019.434-1.029.99-.01.54.439 1.029.988 1.029.55 0 1.019-.434 1.029-.99.01-.54-.438-1.029-.988-1.029ZM165.202 92.024c-.747.56-.167 1.56-.399 2.367.081.969-.988 3.2.555 3.512.53.086 1.075-.292 1.155-.842.141-.984.262-1.969.338-2.958.046-.62.151-1.322-.237-1.862a1.013 1.013 0 0 0-1.407-.222l-.005.005ZM164.773 99.397c-.55 0-1.019.434-1.029.989-.01.54.439 1.03.989 1.03.549 0 1.019-.434 1.029-.989.01-.54-.439-1.03-.989-1.03ZM184.833 122.671c3.147.201 6.138-1.383 8.413-3.452 1.049-.959 2.048-1.963 2.915-3.093.6-.596 1.125-1.499.232-2.105-.928-.56-1.493.5-2.017 1.09-1.978 2.382-4.434 4.678-7.526 5.415-.646.05-1.296.166-1.947.121-1.321-.025-1.397 1.923-.075 2.019l.005.005ZM179.935 121.359c.706 1.307 2.92-.142 2.063-1.318-.752-1.064-2.673.197-2.063 1.318ZM179.325 135.443c-1.271.338-2.653.217-3.96.141-.978-.03-2.618-.873-2.945.545-.091.55.287 1.065.827 1.161 1.296.272 2.618.388 3.934.378 1.029-.055 2.149.02 3.087-.449 1.15-.656.227-2.377-.953-1.781l.01.005ZM169.262 134.348c-.55 0-1.024.404-1.044.974-.02.535.424 1.044.974 1.044.549 0 1.023-.403 1.044-.974.02-.534-.424-1.044-.974-1.044ZM159.906 147.483c-.55 0-1.024.404-1.044.974-.021.535.423 1.045.973 1.045s1.024-.404 1.044-.974c.02-.535-.424-1.045-.973-1.045ZM108.201 175.384c2.194 2.049 4.252 4.265 6.043 6.712 1.563 2.15 3.102 4.35 3.969 6.898.172.52.807.767 1.306.576 1.952-.656-1.523-5.38-2.153-6.54a48.803 48.803 0 0 0-8.822-10.027c-.842-.727-2.134.257-1.594 1.251.338.454.863.701 1.251 1.13ZM120.099 194.01c1.423.323 1.796-1.781.349-1.998-1.428-.323-1.791 1.781-.349 1.998ZM63.951 187.697c-.978.778-1.437 2.034-1.916 3.149-.641 1.565-1.065 3.2-1.413 4.85-.428 1.862-.761 3.764-.222 5.637.242 1.307 2.174.984 1.993-.318-.106-.666-.318-1.317-.283-1.999.484-3.28 1.095-6.979 3.082-9.739-.02.02-.045.04-.066.061l-.1.07c1.104-.742.06-2.392-1.07-1.711h-.005ZM61.752 203.931c-.55 0-.994.5-.978 1.04.015.56.489.979 1.039.979.55 0 .993-.5.978-1.04-.015-.56-.49-.979-1.039-.979ZM276.747 50.342c.519-.157.847-.732.681-1.257-.384-1.18-.651-2.412-1.322-3.471-1.16-2.029-2.557-3.942-4.277-5.526-.852-.823-1.74-1.852-2.976-2.019-1.321-.106-1.508 1.847-.196 2.009 1.064.545 1.82 1.574 2.703 2.371 1.866 2.085 3.49 4.462 4.136 7.212.166.53.736.837 1.256.681h-.005ZM276.409 52.265c.015.56.489.979 1.039.979.55 0 .994-.5.979-1.04-.016-.56-.49-.979-1.039-.979-.55 0-.994.5-.979 1.04ZM241.742 61.691c-.277-.686-1.104-1.125-1.735-.6-.454.373-.464 1.04-.09 1.473.257.555.443 1.136.741 1.67.873 1.494 1.72 3.054 3.057 4.189.983.878 2.325-.59 1.367-1.489-1.554-1.423-2.533-3.295-3.34-5.243ZM246.766 69.029c-.55 0-.993.5-.978 1.04.015.56.489.978 1.039.978.55 0 .993-.5.978-1.04-.015-.56-.489-.978-1.039-.978ZM267.315 104.247c-.071.752-.091 1.796.893 1.887.529.045 1.069-.368 1.089-.918.071-1.625-.01-3.245-.07-4.865-.121-3.356-.041-6.707-.041-10.062.081-1.201-1.291-1.978-2.012-.853a1.022 1.022 0 0 0 0 .923c.035 1.913-.046 3.83-.056 5.743.036 2.715.162 5.43.197 8.14v.005ZM268.374 109.495c-.55 0-.983.53-.953 1.06.03.57.509.953 1.059.953.55 0 .984-.53.953-1.059-.03-.571-.509-.954-1.059-.954ZM256.032 184.266c.565-.03.963-.51.953-1.06.005-1.589-.045-3.189-.066-4.779 0-2.109-.045-4.223-.085-6.333a1.012 1.012 0 0 0-1.06-.953 1.012 1.012 0 0 0-.953 1.059c.051.954.02 1.913.046 2.867.07 2.745.07 5.495.106 8.245.01.55.524.984 1.059.954ZM256.168 186.234c-.55 0-.984.53-.953 1.06.03.57.509.953 1.059.953.55 0 .983-.529.953-1.059-.03-.57-.509-.954-1.059-.954ZM268.142 229.789c-.55 0-.984.53-.953 1.059.03.571.509.954 1.059.954.55 0 .984-.53.953-1.06-.03-.57-.509-.953-1.059-.953ZM267.607 281.705c.116 1.327 2.063 1.211 2.018-.101-.116-2.73.01-5.485-.212-8.22-.101-1.645-.126-3.29-.217-4.93a1.015 1.015 0 0 0-1.059-.954c-.54.025-.994.509-.958 1.059.09 1.625.116 3.25.217 4.875.222 2.766.085 5.506.211 8.281v-.01ZM268.435 284.309c-.55 0-.984.53-.954 1.06.031.57.51.954 1.06.954.549 0 .983-.53.953-1.06-.03-.57-.51-.954-1.059-.954ZM272.006 315.349c-.752.136-1.246.807-1.927 1.125-1.2.606-2.512.969-3.793 1.373-.837.227-.918 1.494-.146 1.857.787.328 1.599-.278 2.365-.439 1.14-.364 4.56-1.6 4.555-2.952-.025-.545-.51-.994-1.059-.954l.005-.01ZM262.326 317.927c-.549 0-.983.53-.953 1.06.03.57.51.954 1.059.954.55 0 .984-.53.954-1.06-.031-.57-.51-.954-1.06-.954ZM217.234 258.134c-.822-.015-1.639.01-2.461-.036-2.411-.126-4.822-.05-7.233.006-.747-.016-1.765.045-1.796 1.034-.015.782.782 1.166 1.473.989.883-.005 1.766-.03 2.643-.076 2.451-.07 4.898.111 7.349.101 1.327-.015 1.347-1.968.025-2.018ZM221.063 258.416c-.55 0-1.014.444-1.024.994-.01.545.444 1.025.993 1.025.55 0 1.014-.444 1.024-.994.01-.545-.444-1.025-.993-1.025ZM238.252 292.868c-.494-1.307-1.301-2.498-2.3-3.477-.62-.712-2.033-.767-2.194.353-.066.52.298 1.014.807 1.115 1.922 1.731 2.391 4.431 2.295 6.914-.141.635.146 1.347.852 1.433 1.302.111 1.226-1.474 1.155-2.377-.055-1.332-.171-2.69-.62-3.956l.005-.005ZM237.203 300.18c-.55 0-1.004.469-.999 1.019.005.55.469.999 1.019.999.55 0 1.004-.469.999-1.019a1.022 1.022 0 0 0-1.019-.999ZM206.778 308.768c.061-.883-.242-2.24-1.397-1.942-.585.166-.852.802-.661 1.362.111.833-.06 1.686.046 2.523.308 2.054.272 4.123.469 6.192.076.868 1.321 1.166 1.806.459.327-.434.146-.989.121-1.483-.01-2.382-.459-4.729-.384-7.105v-.006ZM206.153 318.437c-.55 0-1.004.47-.999 1.02.005.55.469.999 1.019.999.55 0 1.004-.47.999-1.02a1.022 1.022 0 0 0-1.019-.999Z"/></g><defs><clipPath id="a"><path fill="#fff" d="M0 0h284v334H0z"/></clipPath></defs></svg>