<svg xmlns="http://www.w3.org/2000/svg" width="239" height="229" fill="none"><g clip-path="url(#a)"><path fill="#A4D357" d="M84.832 80.798c.055-3.474.258-6.936 1.104-10.328-1.548.576-3.34.588-4.693 1.598-2.016 3.282.826 6.075 3.083 8.229.187.153.355.325.503.505l.004-.004Z"/><path fill="#E2FFB4" d="M72.27 111.696a4.273 4.273 0 0 0-1.43 1.277c-.772 1.355-1.95 2.518-3.536 2.796-.62.106-1.236-.047-1.851.027-1.493.306-2.398 1.771-2.963 3.083-.584 1.605-.156 3.391-.534 5.044a6.59 6.59 0 0 1-1.372 2.491c-.23.204-.608.494-1.04.756 2.447.783 5.304-.49 7.097-2.197 1.334-1.853 2.647-3.721 3.594-5.812.842-2.182 2.039-4.179 3.384-6.083.463-.669.966-1.327 1.512-1.942a2.045 2.045 0 0 0-.152-.032c-.959-.368-1.937.051-2.71.592ZM64.962 73.04c.947.904 1.933 1.801 2.779 2.82.463.513.869 1.108.92 1.82.109 1.03-.628 1.869-.99 2.777-.788 1.716-.605 3.608 1.294 4.418.845.384 1.78.231 2.67.22.826-.028 1.652-.122 2.479-.208 1.157-.184 2.346-.4 3.492-.125-2.385-3.885-3.395-8.358-6.104-12.063-1.15-1.543-2.771-2.734-4.397-3.733-.023-.015-.047-.023-.074-.039a.03.03 0 0 1-.008.016c-1.114.96-2.517 2.507-2.065 4.1l.004-.003ZM85.382 67.881c.425.087.866.087 1.294.145.6-1.547 1.474-2.976 2.296-4.414a40.006 40.006 0 0 1 1.641-2.726c-.02 0-.043.008-.058.012-.776.118-1.532.349-2.308.454-1.886.216-3.777-.093-5.648-.29-1.793-.058-2.642-.125-3.126 1.215.02.074.027.157.023.243 0-.028-.003-.055-.003-.083 0 .032.004.063.004.09v.016c.027 1.348.697 2.71 1.621 3.67 1.232.885 2.818 1.285 4.268 1.665l-.004.003Z"/><path fill="#E2FFB4" d="M79.485 62.645c0-.035.004-.066.008-.098v-.012c0 .036 0 .071-.008.11Z"/><path fill="#A4D357" d="M80.44 88.623c-.14-.192-.3-.403-.398-.622a14.143 14.143 0 0 1-.335-.349.734.734 0 0 1-.483-.211c-1.111-1.309-2.76-1.395-4.311-1.113-1.536.275-3.103.314-4.658.372-2.218.028-4.432-1.692-4.588-3.987-.144-1.723.815-3.203 1.43-4.723.028-.834-.877-1.39-1.337-2.005-.76-.999-2.214-1.579-2.4-2.918-.289-1.81.763-3.58 2.073-4.786-1.926-.439-3.621.427-5.044 2.232-.818.842-1.274 1.908-1.47 3.055-.95 3.455.07 6.905.776 10.3.121.804.27 1.599.425 2.386.121.121.23.27.312.439.444.564 1.1.88 1.703 1.245a20.772 20.772 0 0 0 3.493 1.488c.803.192 1.63.278 2.417.545 1.126.4 2.17 1.026 3.239 1.562 3.89 1.826 3.933 6.114.877 8.797-.842.916-1.871 1.614-2.966 2.181-1.934 1.34-3.852 2.703-5.785 4.038-1.247 1.062-2.323 1.755-3.278 3.122-.382.442-.62 1.402-1.064 1.864-.008.028-.02.055-.027.082a25.502 25.502 0 0 1-1.006 3.298c-.538 1.622-1.15 3.235-1.185 4.962-.28 2.448-.698 4.614 1.048 6.29.636-.109 1.201-.552 1.68-.959.316-.427.55-.921.796-1.394.409-1.661.03-3.439.51-5.088.815-2.554 3.04-5.017 5.925-4.485 1.719-.094 2.35-1.778 3.348-2.894.955-.893 2.152-1.66 3.438-1.935.928-.109 1.844.153 2.71.466l.065.024c.254-.219.519-.427.796-.623.19-.274.46-.532.643-.76.966-1.167 1.793-2.443 2.584-3.736 2.374-4.97 2.639-11.233.047-16.167v.007Z"/><path fill="#E2FFB4" d="M108.773 146.275a53.489 53.489 0 0 1-2.038-.462c-1.559-.29-3.033-.823-4.467-1.457h-.004a.798.798 0 0 1-.374.035c-.889-.059-1.774.11-2.64.321a.675.675 0 0 1-.136.227c-1.227 1.077-2.405 2.82-1.496 4.449.374.615.79 1.113 1.47 1.352.07.039.128.082.178.129.41.027.823.039 1.232.043 1.516.024 2.892-.713 3.91-1.798 1.368-1.077 2.74-2.209 4.369-2.839h-.004Z"/><path fill="#A4D357" d="M99.535 143.04c-.463-.235-.927-.474-1.391-.705-1.914-1.003-3.8-2.084-5.574-3.321-.331.011-.655-.063-.986-.13a.846.846 0 0 1-.277.224c-2.499 1.069-3.04 4.312-1.165 6.235.311.035.514.199.615.411.37.117.741.204 1.1.251 1.352-.012 2.518-.764 3.671-1.391a11.43 11.43 0 0 1 4.015-1.566h-.004l-.004-.008Z"/><path fill="#E2FFB4" d="M113.295 79.318c-4.58 12.725 4.014 28.492 18.312 27.69h.019c13.689-1.038 20.721-16.841 15.65-28.795-6.923-16.54-28.053-15.674-33.981 1.105Zm19.165 15.72c-5.48-3.144-5.995-11.816-1.707-16.175 4.958-4.801 11.199-.493 12.044 5.484 1.224 6.039-3.656 13.966-10.337 10.688v.004ZM90.286 137.263a25.015 25.015 0 0 1-2.199-2.084 35.027 35.027 0 0 1-1.313-1.551v-.003a.766.766 0 0 1-.35-.22 62.25 62.25 0 0 0-.488-.211.953.953 0 0 1-.203-.055c-.92.16-1.894.576-2.33 1.457-.367.76-.8 1.707-.25 2.487.015.027.023.055.039.086 1.434 1.155 3.523 1.355 5.172.509a7.796 7.796 0 0 1 1.93-.407l-.008-.008ZM60.475 106.643l-.07.337c.163-.121.331-.239.499-.356.803-.682 1.574-1.406 2.479-1.955a161.426 161.426 0 0 1 6.79-4.617c1.551-1.254 3.247-3.196 2.385-5.327-.666-1.245-2.015-1.81-3.212-2.42-.701-.353-1.391-.733-2.143-.956-.772-.184-1.575-.25-2.331-.509-.764-.258-1.505-.58-2.242-.909a17.44 17.44 0 0 1-1.972-1.053c.378 1.817.729 3.63.885 5.507a46.21 46.21 0 0 1-.016 7.308c-.171 1.688-.69 3.305-1.052 4.958v-.008ZM128.66 149.377a38.46 38.46 0 0 1-5.204-.341h-.003c-.028.016-.051.035-.078.051-.476.219-1.049.18-1.548.356-1.255.412-2.397 1.058-3.492 1.779-1.115 1.323-.721 3.513.693 4.445.18.141.406.2.605.29 2.6-.748 4.888-2.213 6.899-4.015 1.15-.905 2.358-1.805 3.64-2.557h-.003c-.503.008-1.002.008-1.505-.008h-.004Z"/><path fill="#A4D357" d="M120.014 148.472a94.829 94.829 0 0 1-2.346-.49c-1.727-.38-3.465-.689-5.208-1.002h-.011a.648.648 0 0 1-.281.125 9.927 9.927 0 0 0-2.495.513 1.001 1.001 0 0 1-.323.302c-1.298 1.026-1.77 2.953-1.169 4.488.28.599.651 1.281 1.278 1.559a.878.878 0 0 1 .335.235c1.825.039 2.994-.799 4.771-2.248 1.813-1.285 3.497-2.581 5.461-3.478h-.012v-.004Z"/><path fill="#E2FFB4" d="M172.292 66.953a16.814 16.814 0 0 0-5.729-1.73h-.008c-.035.007-.074.019-.113.023-1.867.188-3.458 1.406-4.545 2.882-.6.964-1.22 2.04-1.263 3.2.062.208.055.4.004.564v.008c.702 3.525.869 7.128 1.543 10.657 1.47 5.679 4.14 10.958 7.527 15.713.257.13.48.36.721.517 1.337.822 2.698 1.312 4.237 1.469 1.138.015 2.304-.188 3.317-.701a20.449 20.449 0 0 0 2.744-4.14c5.064-9.796 1.56-23.437-8.442-28.454l.007-.008Zm7.165 17.429c-.035 3.654-2.838 9.905-7.246 7.046-3.485-2.855-3.703-8.856-2.203-12.82 1.271-3.598 5.048-5.427 7.605-1.852 1.544 2.198 1.984 5.002 1.844 7.626ZM107.378 40.086c.007.023.011.047.019.07 1.29 1.485 2.783 2.879 4.471 3.85 1.306.893 2.752 1.551 4.323 1.782.21.06.405.008.619.012.032 0 .063.012.094.02h.008c2.424-.396 4.86-.721 7.324-.337.456.055.912.117 1.364.184-.218-.2-.433-.404-.651-.6-.643-.497-1.263-1.022-1.777-1.656-1.552-1.849-2.815-3.905-4.155-5.906-1.306-1.83-2.452-3.94-4.311-5.236-1.63-1.046-3.594-1.305-5.45-.94-.039.011-.078.027-.124.03-.18.126-.359.251-.503.416-1.033 1.183-1.961 2.71-2.097 4.3 0 .83-.027 1.641.238 2.405.167.572.409 1.07.612 1.606h-.004Z"/><path fill="#A4D357" d="M97.875 43.309c1.921 1.704 3.941 3.47 6.357 4.285.581.172 1.162.391 1.762.474a.662.662 0 0 1 .417.062h.004c2.159-.709 4.362-1.292 6.599-1.684h.004c-1.462-.677-2.81-1.621-4.101-2.577-1.964-1.727-3.742-3.736-5.308-5.816-1.026-1.727-2.932-2.119-4.76-1.84-.206.136-.452.222-.608.446-1.372 1.692-1.766 4.351-.55 6.22a.829.829 0 0 1 .188.434l-.004-.004Z"/><path fill="#E2FFB4" d="M41.555 11.608c2.019.991 4.26 1.489 6.435 2.018 3.391.755 6.825 1.316 10.267 1.786 12.93 1.7 25.96 2.451 38.982 2.902 20.612.642 41.341.446 61.914-.901 11.873-.98 24.139-1.637 35.552-5.053 1.017-.387 4.447-1.53 3.418-2.698-.05-.047-.101-.09-.152-.133a.776.776 0 0 1-.347-.282c-.845-.623-1.874-.98-2.849-1.347-2.019-.694-4.108-1.187-6.155-1.61-15.622-2.977-31.557-3.717-47.386-4.355-20.756-.658-41.547-.47-62.272.889-6.36.434-12.71.987-19.037 1.79-4.985.677-9.9 1.335-14.687 2.698-.202.13-.463.18-.71.239-1.184.423-2.42.85-3.421 1.633-.772.533-.776 1.136-.176 1.825.199.2.402.412.616.611l.008-.011Z"/><path fill="#E2FFB4" d="M209.178 20.456c-4.869-4.383-11.417-6.117-17.868-5.463-.059 0-.109 0-.16-.012-2.81.666-5.66 1.167-8.513 1.598-25.527 3.525-51.397 3.873-77.123 3.517-13.14-.278-26.279-.862-39.356-2.186-6.322-.685-12.684-1.398-18.885-2.855a2.43 2.43 0 0 1-.733.028c-2.284 0-4.576.235-6.844.509-3.325.65-6.47 2.244-9.067 4.37a31.64 31.64 0 0 0-1.068.976 108.665 108.665 0 0 0-10.785 13.528C6.544 52.509.366 74.59 1.867 96.339c2.417 38.308 27.363 70.192 60.432 86.955a.698.698 0 0 1 .121.063 119.025 119.025 0 0 0 22.814 8.734c25.164 6.932 52.414 6.023 77.002-2.597a.808.808 0 0 1 .277-.098 121.319 121.319 0 0 0 21.219-9.862c56.819-33.169 72.473-105.155 28.373-155.878a119.07 119.07 0 0 0-2.924-3.2h-.003ZM7.363 71.96c-.425 0-.76-.408-.745-.819.02-.439.39-.748.815-.748.425 0 .76.407.745.819-.02.438-.39.748-.815.748Zm4.99-16.861c-1.022 2.679-2.09 5.334-2.764 8.135a83.386 83.386 0 0 0-.866 4.034.787.787 0 0 1-.904.63.79.79 0 0 1-.628-.912c.53-2.848 1.201-5.68 2.168-8.41.522-1.24.912-2.537 1.454-3.77.058-.342.343-.631.697-.655a.801.801 0 0 1 .842.948Zm73.442-18.22c.678-.368 1.38-.709 2.109-.971.823-.364 1.77-.266 2.58-.615.893-.615 1.384-1.598 2.086-2.393.546-.615 1.263-1.03 1.968-1.437 1.602-.862 3.489-1.148 5.282-.874a.782.782 0 0 1 .896.243.794.794 0 0 1-.124 1.1c-.542.416-1.248.138-1.868.122-1.083-.05-2.175.212-3.169.638-.643.36-1.43.776-1.898 1.336-.842 1.077-1.606 2.413-2.966 2.875-.803.215-1.645.211-2.425.536-.502.192-.978.427-1.418.65-.413.306-1.03.376-1.326-.129a.793.793 0 0 1 .273-1.073v-.008Zm-2.7 2.671c.424 0 .783.341.79.772a.786.786 0 0 1-.767.795.791.791 0 0 1-.792-.772.787.787 0 0 1 .768-.795ZM55.898 83.638c.32.301.483.72.596 1.14.9 3.415 1.556 6.94 1.446 10.488a.794.794 0 0 1-.814.748c-1.115-.125-.636-1.508-.745-2.272-.12-3.023-.631-6.082-1.547-8.965.004.004.008.008.008.004-.667-.693.32-1.77 1.056-1.143Zm1.621 14.546c-.02.438-.39.748-.814.748-.425 0-.76-.407-.745-.819.02-.438.39-.748.815-.748.425 0 .76.407.744.819Zm20.172 58.803c-3.45.873-6.872 1.88-10.228 3.055a102.657 102.657 0 0 0-6.646 2.588.784.784 0 0 1-1.021-.419.793.793 0 0 1 .417-1.026 104.329 104.329 0 0 1 8.353-3.176 124.86 124.86 0 0 1 8.712-2.538c.986-.243 1.399 1.214.417 1.512l-.004.004Zm7.792-1.739a.79.79 0 0 1-.78-.784c0-.427.355-.783.78-.783.424 0 .78.356.78.783a.79.79 0 0 1-.78.784Zm30.777 39.96a.79.79 0 0 1-.788-.775.79.79 0 0 1 .772-.791c.425 0 .784.344.788.775a.789.789 0 0 1-.772.791Zm16.725-1.453c-.175.646-.919.713-1.477.791-1.15.192-2.315.27-3.473.419-1.13.09-2.225.466-3.364.427-1.403-.031-2.806.122-4.209-.004-.718-.109-2.023.075-1.949-.998.054-.435.444-.717.869-.682 1.968.27 3.949.114 5.925.102 1.068-.157 2.128-.396 3.212-.478 1.099-.121 2.202-.207 3.289-.427.546-.411 1.388.188 1.177.85Zm29.492-35.084a.79.79 0 0 1-.78-.784.79.79 0 0 1 .78-.783.79.79 0 0 1 .779.783.79.79 0 0 1-.779.784Zm18.397 7.778c-3.82-2.17-7.686-3.917-11.759-5.471-.597-.169-1.252-.498-.975-1.238.168-.403.624-.568 1.021-.419 4.3 1.617 8.505 3.497 12.501 5.773.869.536.109 1.848-.788 1.351v.004Zm2.557-73.51a22.47 22.47 0 0 1-4.28 7.661s0 .008-.003.008c0 0-.016.024-.024.031a.517.517 0 0 1-.082.094c-.007.008-.011.016-.019.024a20.342 20.342 0 0 1-3.652 3.294c-.297.231-.663.489-1.006.521 1.524 2.761 2.272 5.957 2.405 9.082-.062 1.457-.023 2.934-.253 4.379a18.64 18.64 0 0 1-2.382 5.749c-1.707 2.836-3.75 5.295-7.059 6.212-.055 1.539-.222 3.098-.628 4.586-.892 2.456-2.588 4.602-4.564 6.274-2.163 1.822-4.857 2.856-7.304 4.23-3.606 1.684-7.625 2.197-11.441 3.173-2.533.438-5.215.54-7.717.759h-.004c-.464.259-1.057.208-1.556.392-3.87 1.273-6.669 4.336-10.009 6.486-1.384.818-2.943 1.304-4.471 1.774-.834.235-1.727.415-2.588.223.012 0 .019.008.031.008l-.043-.012h.012c-1.076-.293-2.132-.74-2.955-1.515-.296-.333-.803-.807-1.021-1.289-.963.505-2.011.807-3.266.658-2.339-.102-4.752-1.183-6.132-3.125a.728.728 0 0 1-.039-.831c-1.188.592-2.654.905-4.79.611-2.163-.172-4.533-1.1-5.484-3.199-.195-.455-.503-1.175-.374-1.688a4.294 4.294 0 0 1-2.437-.228c-3.063-1.077-6.127-3.806-5.78-7.335a.818.818 0 0 1 .105-.357 5.02 5.02 0 0 1-.417-.137c-3.816-1.19-4.775-5.064-4.323-8.659a.783.783 0 0 1 .277-.564 5.519 5.519 0 0 1-1.142-1.665c-1.462-3.387.495-6.783 1.302-10.046.09-.333.144-.669.175-1.01a17.495 17.495 0 0 1-.117-2.217c-.035-1.801.215-3.583.605-5.334a6.085 6.085 0 0 0-2.951.63c-.285.228-.538.447-.795.666a.693.693 0 0 1-.215.227c-.043.024-.082.047-.124.063l-.156.133c-1.665 1.821-2.998 3.948-4.202 6.098-.5 1.203-1.014 2.397-1.645 3.541-.628 1.257-1.411 2.42-2.273 3.525-.393.638-.795 1.284-1.403 1.739-1.808 1.523-4.186 2.498-6.564 2.397-2.475-.028-4.818-1.939-5.457-4.324-.284-1.207-.136-2.476-.054-3.701.167-1.113.167-2.245.409-3.345.37-1.422.873-2.808 1.36-4.195.655-2.467 1.56-4.825 2.086-7.308 1.477-5.009 1.407-10.453.405-15.533-.534-2.35-.986-4.9-1.403-7.222-.76-3.223-1.516-6.545-.663-9.827.292-2.479 1.965-4.516 3.914-5.949 2.128-1.496 4.864-1.093 6.969.231 1.302.819 2.499 1.83 3.621 2.883 1.357 1.43 2.257 3.235 3.212 4.946 1.391 3.204 2.615 6.517 4.556 9.443 1.115 1.586 2.561 3.02 4.327 3.842.261.114.515.274.8.314.065-1.85.061-3.702.065-5.554v-.008c-.463-.513-.604-1.324-1.142-1.802-2.21-2.216-5.235-4.837-4.584-8.314.156-1.215.562-2.021 1.123-2.585-.924-.932-1.715-2.025-2.058-3.306-.476-.956-.628-2.005-.589-3.07 0-1.755.382-3.968 2.093-4.83.07-.02.14-.035.207-.05-.538-1.869-.87-3.91-.207-5.785.593-2.291 1.766-4.52 3.863-5.734.265-.137.53-.235.795-.298a3.95 3.95 0 0 1 .008-.646c-.008-.63.074-1.253.3-1.845 1.213-2.902 2.199-4.923 5.43-5.733a4.212 4.212 0 0 1 2.339-.114c.031-.074.066-.149.09-.223.378-1.5 1.718-2.452 2.806-3.439 1.921-1.234 4.572-1.743 6.778-.99.07-.09.141-.18.203-.267.37-.654.826-1.25 1.31-1.825 1.325-1.489 3.169-2.53 5.129-2.973a.848.848 0 0 1 .168-.031c1.882-.392 3.866-.24 5.609.603.124.047.241.11.362.164.059-.058.121-.113.176-.168a10.25 10.25 0 0 1 2.249-1.774c3.87-2.201 9.195-2.432 12.601.76 2.425 2.608 3.458 6.113 5.138 9.188.861 1.688 1.524 3.513 2.413 5.17.966 1.629 1.894 3.313 3.11 4.77.487.51.982 1.014 1.508 1.484.067.063.133.126.195.196h.004a31.817 31.817 0 0 1 3.317 1.645c3.77 1.774 6.935 4.598 9.655 7.727 1.384 1.516 2.639 3.169 3.493 5.045a.787.787 0 0 1 .331-.2 18.302 18.302 0 0 1 6.439-.846c14.216.705 22.335 16.536 17.954 29.374l.015-.008Zm4.53-14.115a18.696 18.696 0 0 0-5.617-9.427c-.46-.384-1.142-.768-.729-1.465a.787.787 0 0 1 1.076-.246c2.514 1.938 4.42 4.645 5.722 7.535.456 1.05.744 2.158 1.072 3.255.121.41-.191.846-.585.94-.417.102-.815-.173-.932-.588l-.007-.004Zm1.048 5.115c-.425 0-.764-.407-.744-.818.019-.439.389-.748.814-.748.425 0 .764.407.745.818-.02.439-.39.748-.815.748Zm44.143 20.558c.172-.732.347-1.465.491-2.201.69-3.963.749-8.072.25-12.055-.078-.963 1.341-1.12 1.516-.31.351 1.595.288 3.44.324 5.01a35.576 35.576 0 0 1-.418 6.815c-.155 1.022-.405 2.024-.631 3.035-.097.419-.495.709-.912.623-.405-.079-.721-.498-.62-.917Zm-.709 2.722c.339-.227.865-.153 1.079.216.562.611.039 1.621-.787 1.363-.6-.228-.904-1.183-.292-1.579Z"/><path fill="#A4D357" d="M169.147 191.714c-1.98-.434-3.836-.72-5.835-.755-.219-.04-.445.007-.659.019-22.576 7.88-47.425 9.478-70.773 4.351-10.809-2.259-20.974-5.874-30.321-10.602-.32-.07-.64-.195-.96-.231-1.929-.239-3.89-.243-5.8.137-3.238.533-6.5 1.371-9.17 3.353-3.06 2.467-5.735 6.008-5.957 10.038-.199 2.138.647 4.112 1.47 6.016 9.312 9.995 22.627 14.981 35.478 18.505 2.109.549 4.206 1.042 6.303 1.485.16.019.323.059.475.098.137.027.273.055.406.086.557.113 1.114.223 1.672.329.311.063.627.117.94.176 1.882.349 3.772.662 5.667.94.315.047.631.09.947.137l.842.118a175.357 175.357 0 0 0 3.376.423c15.294 1.711 30.714 1.461 45.916-.862 10.559-1.629 25.203-5.182 36.916-11.624.117-.455.39-.94.491-1.312.187-1.089.605-2.135.643-3.247a22.272 22.272 0 0 1 .032-2.099c.101-3.126-.764-6.161-2.569-8.719-2.214-3.399-5.551-5.961-9.53-6.76Zm-120.498-1.253c-.425 0-.772-.376-.768-.795a.79.79 0 0 1 .791-.771c.421 0 .772.376.768.795a.791.791 0 0 1-.791.771Zm12.61-2.526c-.6.137-1.193-.117-1.794-.133-1.683-.094-3.406-.094-5.047.286.015 0 .03-.004.047-.008-.792.168-1.58.38-2.355.599-.58.223-1.438.658-1.785-.145-.156-.384.027-.877.425-1.022 1.048-.427 2.222-.697 3.31-.948a18.54 18.54 0 0 1 6.813-.149c.99-.223 1.368 1.242.385 1.52Zm27.947 35.03c-.425 0-.772-.376-.768-.796a.791.791 0 0 1 .791-.771c.421 0 .772.376.768.795a.792.792 0 0 1-.791.772Zm7.971 1.723c-1.56-.345-3.146-.502-4.697-.862-.413-.098-.647-.572-.534-.971.164-.588.8-.639 1.29-.462 1.54.293 3.091.509 4.627.826.456-.207 1.025.118 1.08.627.07.951-1.076 1.077-1.762.842h-.004Zm60.717-4.661c-.425 0-.772-.376-.768-.795a.79.79 0 0 1 .791-.771c.421 0 .772.376.768.795a.791.791 0 0 1-.791.771Zm14.971-5.021c-2.896 1.195-5.753 2.585-8.762 3.415-.733.204-1.481.349-2.214.56-.401.118-.846-.152-.951-.56a.792.792 0 0 1 .557-.955c1.045-.29 2.113-.49 3.138-.842 2.658-.807 5.134-2.053 7.698-3.094.199-.372.721-.466 1.064-.259.796.505.188 1.516-.53 1.739v-.004ZM119.855 35.954c.553.83 1.099 1.664 1.656 2.49 1.38 2.1 2.779 4.238 4.818 5.75.756.729 1.528 1.445 2.463 1.939a.72.72 0 0 1 .343.168h.004c2.51.525 4.993 1.191 7.449 1.912.772.223 1.54.462 2.304.716-1.961-2.451-3.36-5.37-4.592-8.24-.741-1.672-1.684-3.247-2.397-4.935-.869-1.942-1.817-3.967-3.36-5.463-1.637-1.363-3.691-1.857-5.738-1.724a.804.804 0 0 1-.393.043c-.484.02-.854.404-1.22.678-.979.764-1.458 1.943-1.7 3.118-.179 1.14.055 2.385.343 3.481.012.024.016.051.024.075l-.004-.008ZM85.406 58.764c-.028-.016-.055-.036-.078-.051a8.084 8.084 0 0 0 1.746 1.151c.269-.004.538-.015.803-.047 1.31-.242 2.611-.505 3.929-.7.047-.028.097-.048.148-.067.23-.286.468-.564.713-.834 1.357-1.508 2.795-2.973 4.327-4.328-.823-.028-1.645-.055-2.46-.157-1.586-.2-2.93-1.116-4.33-1.817-1.349-.623-2.526-1.528-3.828-2.229-1.773-1.002-3.188.549-4.151 1.908-.113.23-.222.466-.331.705.038 2.588 1.38 5.005 3.504 6.47l.008-.004ZM85 131.165c-1.302-2.017-2.33-4.203-2.912-6.549-.307-1.171-.635-2.342-.92-3.524-.011.031-.023.062-.038.094-1.712 4.637-1.86 8.079 3.469 9.834.132.055.265.102.405.153l-.004-.008Z"/><path fill="#E2FFB4" d="M91.221 50.343c.18.157.343.356.44.572.43.22.854.443 1.275.678 1.657.877 3.57.661 5.371.79.25-.12.464-.148.644-.11 1.547-1.194 3.188-2.259 4.938-3.117 0 0 .008 0 .012-.003-4.136-1.38-7.028-4.978-10.474-7.512-.947-.682-2.065-.701-3.13-.412-.1.177-.284.263-.44.388-.666.956-1.189 2.186-1.13 3.368.015 1.261.471 2.425 1.13 3.482.374.686.787 1.347 1.36 1.884l.004-.008Z"/><path fill="#A4D357" d="M169.922 101.192c-1.032-1.371-1.894-2.734-2.903-4.074-2.764-4.147-4.803-8.82-6.21-13.606-.764-3.156-.849-6.427-1.391-9.623-.827-3.889-1.205-8.009-3.676-11.248-2.397-3.059-5.145-5.894-8.396-8.037-1.602-.967-3.293-1.774-4.946-2.647-3.356-1.473-6.888-2.472-10.423-3.4-3.134-.72-6.291-1.445-9.511-1.653-2.253-.168-4.455.376-6.665.71-2.374.293-4.72.736-7.008 1.44-2.444.623-4.799 1.563-6.849 3.063-2.475 1.551-4.673 3.466-6.654 5.613-2.151 2.06-3.831 4.512-5.234 7.132-1.524 2.385-2.584 5.072-2.974 7.876-1.018 4.974-.612 10.058-.717 15.098-.152 5.342-.8 10.684-2.234 15.839-.94 3.442-1.93 6.936-2.171 10.512-.21 4.206 1.084 8.244 2.311 12.196 1.778 4.449 4.947 8.279 8.794 11.091 3.656 2.483 7.667 4.634 11.76 6.235 3.874 1.144 7.889 1.638 11.83 2.487 1.867.345 3.784.764 5.632 1.132 3.391.49 6.848.619 10.267.384a128.71 128.71 0 0 1 2.471-.219c3.902-.317 7.811-.556 11.577-1.653 2.88-.623 5.796-1.277 8.396-2.726.358-.207.725-.407 1.091-.603a.859.859 0 0 1 .351-.231l.039-.012c.967-.912 1.497-2.15 1.536-3.478a5.505 5.505 0 0 0-.538-3.27c-.721-1.23-1.637-2.366-2.9-2.977-.378-.164-.928-.254-1.248-.477-1.075-.094-2.147-.216-3.215-.337-1.345-.153-2.592-.701-3.914-.968-1.325-.172-2.518-.81-3.808-1.124-1.337-.474-2.725-.771-4.089-1.163-.892-.254-1.781-.677-2.689-.865-1.022-.157-.842-1.649.171-1.555 1.255.215 2.39.818 3.621 1.108 2.245.505 4.401 1.324 6.599 1.982 1.353.172 2.616.748 3.957.979 1.968.278 3.964.411 5.944.576 1.243.008 2.483-.071 3.722-.114 1.509-.176 2.974-.638 4.413-1.116 1.773-.791 3.757-1.155 5.328-2.346 1.559-1.069 2.506-2.82 3.543-4.336.655-1.112 1.236-2.271 1.618-3.505.432-1.171.616-2.393.604-3.638.253-2.781-.292-5.538-1.138-8.182-.846-2.397-2.499-4.332-4.085-6.263l.011-.007Zm-82.52-2.738c-.597-.944.83-1.774 1.348-.783.596.936-.826 1.778-1.349.783Zm2.233-5.77c-.219.859.28 2.832-1.018 2.82-.417-.038-.752-.426-.701-.853.105-1.36.25-2.722.327-4.085.035-2.201-.082-4.398-.195-6.596-.195-.38.004-.865.374-1.041.99-.384 1.283.806 1.205 1.558.136 2.726.331 5.472.008 8.194v.004Zm3.714 40.921c-.425 0-.767-.392-.752-.811.016-.439.382-.756.807-.756.425 0 .768.392.752.811-.015.439-.382.756-.807.756Zm8.58 6.536c-1.072-.544-8.303-3.618-6.958-5.075.678-.776 1.384.192 1.925.556.87.658 1.829 1.218 2.791 1.715 1.08.517 2.152 1.069 3.259 1.516.472-.067.9.341.881.811-.078.994-1.267.818-1.898.477Zm6.665-63.67a.79.79 0 0 1-.799-.764c-.012-.42.335-.803.76-.803s.787.329.799.763c.012.42-.335.803-.76.803Zm3.956-7.822a15.318 15.318 0 0 1 4.483-3.439.774.774 0 0 1 .869-.391c.842.23.698 1.296.035 1.668-.577.364-1.201.635-1.762 1.026-1.805 1.312-3.231 2.883-4.494 4.692-.374.588-.639 1.65-1.551 1.199-1.427-.823 1.789-3.948 2.416-4.755h.004Zm16.036 59.375c-.425 0-.768-.392-.752-.811.015-.439.382-.756.806-.756.425 0 .768.392.753.811a.793.793 0 0 1-.807.756Zm11.748 2.722c.425-.016.768.403.752.81-.019.717-.838.905-1.387.635-2.101-.678-4.194-1.367-6.307-1.998-.713-.254-1.392-.587-2.082-.892-.463-.134-.744-.651-.537-1.105a.786.786 0 0 1 1.032-.388c2.725 1.289 5.687 1.959 8.529 2.938Zm.249-25.141c-5.039 3.322-11.666 3.937-17.22 1.567-14.948-6.333-17.186-28.18-4.759-38.202 8.754-7.308 21.648-4.923 27.865 4.469 7.016 10.007 4.568 25.524-5.886 32.163v.003Zm22.62 20.727c-.651-.96.682-1.904 1.29-.921.651.964-.682 1.9-1.29.921Zm9.425-11.589c-.082 3.403-.792 7.081-3.567 9.325-.647.501-1.598 1.868-2.417.944-.452-.732.191-1.105.667-1.473 1.185-.998 2.44-2.228 2.923-3.72.834-2.581.998-5.28.741-7.955-.023-.364-.203-.662-.285-1.006-.085-.658.776-1.132 1.271-.674.3.243.386.634.472.995.245 1.167.222 2.381.195 3.568v-.004Z"/><path fill="#000" d="M118.607 68.974c-12.426 10.022-10.189 31.865 4.76 38.202 5.554 2.37 12.18 1.755 17.22-1.567 10.454-6.638 12.906-22.155 5.886-32.162-6.217-9.392-19.111-11.777-27.866-4.469v-.004Zm13.019 38.038h-.019c-14.298.802-22.888-14.966-18.312-27.69 5.928-16.779 27.058-17.644 33.981-1.105 5.071 11.957-1.961 27.761-15.65 28.795ZM79.485 62.441c0 .028 0 .055.004.083v.012c0-.032 0-.063-.004-.09v-.005Z"/><path fill="#000" d="M165.475 63.561a18.3 18.3 0 0 0-6.439.846.877.877 0 0 0-.331.2c-.858-1.876-2.109-3.529-3.493-5.044-2.721-3.13-5.886-5.954-9.655-7.728a31.895 31.895 0 0 0-3.317-1.645h-.004a2.264 2.264 0 0 0-.195-.195c-.522-.47-1.021-.98-1.508-1.485-1.212-1.457-2.144-3.14-3.111-4.77-.888-1.657-1.551-3.482-2.412-5.17-1.68-3.075-2.713-6.58-5.138-9.188-3.407-3.192-8.731-2.961-12.602-.76a10.413 10.413 0 0 0-2.249 1.774c-.058.055-.117.11-.175.169-.121-.055-.238-.118-.362-.165-1.743-.842-3.727-.995-5.609-.603a.883.883 0 0 0-.168.031c-1.965.443-3.804 1.485-5.13 2.973-.479.576-.939 1.167-1.309 1.825-.067.086-.133.176-.203.266-2.21-.752-4.857-.239-6.778.991-1.088.991-2.429 1.939-2.807 3.439-.027.078-.062.149-.09.223a4.248 4.248 0 0 0-2.338.114c-3.232.81-4.218 2.831-5.43 5.734-.226.591-.308 1.214-.3 1.844a3.938 3.938 0 0 0-.008.646c-.265.063-.526.161-.795.298-2.097 1.214-3.27 3.443-3.863 5.734-.666 1.872-.331 3.916.207 5.785-.07.015-.14.031-.207.05-1.71.862-2.097 3.079-2.093 4.83-.039 1.061.113 2.11.589 3.07.343 1.281 1.134 2.374 2.058 3.306-.565.564-.967 1.37-1.123 2.585-.647 3.478 2.378 6.102 4.584 8.315.538.477.678 1.288 1.142 1.801v.008c0 1.852 0 3.705-.066 5.554-.285-.04-.538-.2-.8-.314-1.765-.822-3.211-2.256-4.326-3.842-1.94-2.93-3.165-6.239-4.556-9.443-.955-1.711-1.86-3.517-3.212-4.946-1.123-1.054-2.32-2.064-3.621-2.883-2.105-1.323-4.845-1.727-6.97-.23-1.949 1.437-3.62 3.47-3.913 5.948-.854 3.286-.097 6.608.663 9.827.417 2.323.869 4.872 1.403 7.222 1.005 5.08 1.072 10.524-.406 15.533-.526 2.483-1.43 4.841-2.085 7.308-.487 1.387-.99 2.773-1.36 4.195-.242 1.101-.246 2.232-.41 3.345-.081 1.222-.23 2.495.055 3.701.64 2.385 2.982 4.292 5.457 4.324 2.378.098 4.752-.878 6.564-2.397.608-.455 1.01-1.101 1.403-1.739.862-1.105 1.645-2.268 2.273-3.525.631-1.14 1.146-2.338 1.644-3.541 1.205-2.15 2.538-4.273 4.202-6.098l.156-.133c.043-.015.082-.039.125-.062a.706.706 0 0 0 .214-.228c.258-.219.507-.434.796-.665a6.075 6.075 0 0 1 2.95-.631c-.39 1.751-.639 3.533-.604 5.334-.012.744.035 1.485.117 2.217-.031.341-.09.674-.175 1.011-.807 3.262-2.764 6.662-1.302 10.045a5.521 5.521 0 0 0 1.142 1.665.769.769 0 0 0-.277.564c-.452 3.591.507 7.469 4.323 8.659.144.055.28.098.417.138a.865.865 0 0 0-.105.356c-.347 3.533 2.716 6.259 5.78 7.336a4.302 4.302 0 0 0 2.436.227c-.128.513.18 1.233.374 1.688.948 2.099 3.321 3.027 5.485 3.2 2.136.293 3.597-.016 4.79-.611a.733.733 0 0 0 .039.83c1.384 1.943 3.797 3.024 6.131 3.125 1.256.145 2.304-.152 3.267-.658.218.482.721.96 1.021 1.289.819.775 1.879 1.222 2.955 1.516.861.192 1.754.011 2.588-.224 1.528-.474 3.087-.959 4.471-1.774 3.344-2.15 6.139-5.213 10.009-6.486.499-.184 1.092-.133 1.556-.391h.003c2.507-.22 5.188-.321 7.718-.76 3.816-.975 7.835-1.484 11.44-3.172 2.448-1.371 5.142-2.409 7.305-4.23 1.98-1.673 3.676-3.815 4.564-6.275.402-1.488.569-3.047.628-4.586 3.305-.916 5.348-3.376 7.059-6.212a18.701 18.701 0 0 0 2.381-5.749c.23-1.445.187-2.918.254-4.379-.133-3.125-.885-6.321-2.405-9.082.343-.031.709-.29 1.005-.521a20.428 20.428 0 0 0 3.653-3.29s.011-.016.019-.023a.965.965 0 0 0 .082-.094c.008-.008.016-.02.023-.028 0 0 0-.008.004-.012a22.535 22.535 0 0 0 4.28-7.66c4.381-12.835-3.738-28.665-17.953-29.374l-.016.007Zm-45.987-31.16c.242-1.175.718-2.353 1.7-3.117.366-.274.74-.658 1.22-.678.148.02.277 0 .393-.043 2.051-.129 4.101.36 5.738 1.724 1.544 1.496 2.491 3.52 3.36 5.463.713 1.688 1.657 3.263 2.397 4.935 1.232 2.87 2.635 5.789 4.592 8.24a59.98 59.98 0 0 0-2.304-.716c-2.455-.721-4.938-1.387-7.449-1.912h-.003a.73.73 0 0 0-.343-.168c-.936-.494-1.708-1.21-2.464-1.939-2.035-1.512-3.438-3.65-4.818-5.75-.557-.826-1.099-1.66-1.656-2.49-.008-.024-.012-.047-.024-.075-.288-1.096-.522-2.342-.343-3.481l.004.008Zm-12.96 3.674c.136-1.59 1.06-3.114 2.097-4.3.144-.165.327-.29.503-.415.043-.004.082-.02.125-.032 1.855-.368 3.819-.11 5.449.94 1.859 1.297 3.009 3.408 4.311 5.237 1.341 2.001 2.604 4.057 4.155 5.906.514.634 1.138 1.16 1.777 1.657.219.2.437.399.651.599-.456-.067-.908-.13-1.364-.184-2.463-.384-4.896-.06-7.324.337h-.008c-.031-.008-.062-.016-.093-.02-.215-.004-.41.047-.62-.012-1.571-.235-3.017-.893-4.323-1.782-1.688-.971-3.18-2.365-4.471-3.85-.007-.023-.011-.047-.019-.07-.203-.537-.445-1.038-.612-1.606-.265-.768-.238-1.578-.238-2.405h.004Zm-8.295.58c.156-.223.402-.31.608-.447 1.829-.282 3.735.11 4.76 1.841 1.567 2.08 3.344 4.089 5.309 5.816 1.29.96 2.642 1.904 4.1 2.577h-.004c-2.237.392-4.439.975-6.599 1.684h-.004a.69.69 0 0 0-.417-.062c-.6-.079-1.181-.298-1.762-.474-2.416-.815-4.435-2.581-6.357-4.285a.828.828 0 0 0-.187-.435c-1.216-1.868-.823-4.527.55-6.22l.003.005Zm-8.376 4.954c.156-.125.335-.211.44-.388 1.065-.293 2.183-.27 3.13.412 3.446 2.534 6.338 6.137 10.474 7.512 0 0-.008 0-.012.004-1.75.861-3.391 1.923-4.938 3.117-.176-.035-.39-.012-.643.11-1.805-.13-3.715.086-5.372-.791-.42-.235-.846-.459-1.274-.678a1.744 1.744 0 0 0-.44-.572c-.57-.536-.987-1.198-1.361-1.884-.659-1.057-1.115-2.224-1.13-3.481-.063-1.183.46-2.413 1.13-3.369l-.004.008Zm-7.628 9.983c.963-1.359 2.378-2.906 4.151-1.907 1.298.701 2.48 1.606 3.828 2.229 1.4.7 2.744 1.621 4.33 1.817.819.102 1.637.13 2.46.157-1.532 1.355-2.97 2.82-4.327 4.327-.245.27-.483.549-.713.835-.05.02-.102.039-.148.066-1.318.196-2.62.458-3.93.701a7.888 7.888 0 0 1-.802.047 8.23 8.23 0 0 1-1.746-1.151c.023.015.05.035.078.05-2.125-1.464-3.466-3.88-3.505-6.47.11-.238.219-.473.332-.704l-.008.004Zm-2.736 10.955c0 .031-.004.063-.008.098.008-.04.004-.075.008-.11v-.015a.969.969 0 0 0-.024-.243c.484-1.34 1.337-1.273 3.126-1.214 1.875.195 3.766.505 5.648.29.776-.11 1.532-.341 2.308-.455.02 0 .039-.008.058-.012a40.111 40.111 0 0 0-1.64 2.726c-.823 1.438-1.696 2.867-2.297 4.414-.428-.058-.869-.058-1.294-.145-1.45-.38-3.036-.779-4.268-1.664-.924-.96-1.594-2.327-1.621-3.67h.004Zm4.837 17.75c-2.257-2.154-5.099-4.947-3.083-8.229 1.348-1.01 3.141-1.022 4.693-1.598-.846 3.392-1.053 6.85-1.103 10.328a4.092 4.092 0 0 0-.503-.505l-.004.004ZM67.027 68.939s.008-.012.008-.016c.023.016.047.024.074.04 1.622 1.002 3.247 2.189 4.397 3.732 2.709 3.709 3.715 8.178 6.104 12.063-1.142-.278-2.335-.063-3.492.125-.823.086-1.65.18-2.48.208-.888.015-1.828.164-2.67-.22-1.894-.81-2.081-2.702-1.294-4.417.359-.91 1.096-1.743.99-2.777-.05-.713-.46-1.309-.92-1.822-.845-1.018-1.832-1.915-2.779-2.82-.452-1.593.951-3.144 2.066-4.1l-.004.004Zm6.595 44.139c-1.344 1.908-2.54 3.905-3.383 6.083-.947 2.091-2.26 3.959-3.594 5.812-1.797 1.703-4.65 2.98-7.098 2.197.43-.262.811-.556 1.041-.756a6.56 6.56 0 0 0 1.372-2.491c.378-1.657-.05-3.439.534-5.044.565-1.312 1.47-2.777 2.963-3.083.62-.074 1.235.075 1.85-.027 1.587-.278 2.764-1.437 3.536-2.797a4.28 4.28 0 0 1 1.43-1.276c.776-.541 1.755-.956 2.71-.592.05.008.101.02.152.032a20.686 20.686 0 0 0-1.513 1.942Zm6.775-8.287c-.791 1.292-1.618 2.573-2.584 3.736-.184.227-.456.486-.644.76-.272.192-.537.4-.795.623a1.21 1.21 0 0 1-.066-.024c-.865-.313-1.781-.575-2.709-.466-1.286.274-2.483 1.042-3.438 1.935-.998 1.112-1.63 2.8-3.348 2.894-2.888-.532-5.11 1.927-5.925 4.485-.483 1.649-.101 3.427-.51 5.087-.246.474-.48.972-.796 1.395-.479.411-1.048.849-1.68.959-1.75-1.68-1.329-3.842-1.048-6.29.035-1.727.647-3.345 1.185-4.962.41-1.073.744-2.178 1.005-3.298.008-.027.02-.055.028-.082.444-.462.682-1.422 1.064-1.864.955-1.367 2.03-2.06 3.278-3.122 1.937-1.335 3.851-2.694 5.784-4.038 1.1-.568 2.129-1.265 2.967-2.181 3.056-2.683 3.013-6.972-.877-8.797-1.068-.536-2.11-1.163-3.24-1.563-.787-.266-1.613-.352-2.416-.544-1.209-.384-2.366-.897-3.493-1.488-.604-.364-1.259-.682-1.703-1.246a1.738 1.738 0 0 0-.312-.438 52.448 52.448 0 0 1-.425-2.386c-.705-3.391-1.726-6.842-.775-10.3.19-1.151.65-2.213 1.47-3.055 1.422-1.805 3.117-2.667 5.043-2.232-1.31 1.206-2.362 2.976-2.074 4.786.187 1.34 1.637 1.923 2.401 2.918.46.614 1.368 1.17 1.337 2.005-.62 1.515-1.578 2.996-1.43 4.723.156 2.295 2.37 4.019 4.588 3.987 1.555-.055 3.122-.094 4.657-.372 1.552-.282 3.2-.196 4.312 1.112a.77.77 0 0 0 .483.212c.109.117.222.235.335.349.097.219.257.43.398.622 2.592 4.935 2.327 11.194-.047 16.168v-.008Zm-18.85-10.41c-.16-1.876-.51-3.69-.885-5.507.768.486 1.575.87 1.972 1.054.737.329 1.478.65 2.242.908.752.259 1.559.325 2.33.51.753.223 1.443.602 2.144.955 1.193.611 2.546 1.175 3.212 2.42.862 2.131-.834 4.074-2.385 5.327a162.39 162.39 0 0 0-6.79 4.617c-.905.545-1.676 1.273-2.48 1.955-.167.117-.334.235-.498.356.023-.113.05-.223.07-.337.362-1.648.885-3.27 1.052-4.958.2-2.428.2-4.88.016-7.308v.008Zm19.583 26.801a.867.867 0 0 1 .039-.094c.284 1.182.615 2.357.92 3.524.584 2.346 1.613 4.532 2.911 6.549a7.061 7.061 0 0 1-.405-.153c-5.325-1.754-5.18-5.197-3.47-9.834l.005.008Zm2.058 15.987a1.232 1.232 0 0 0-.04-.086c-.549-.78-.12-1.728.25-2.487.437-.878 1.411-1.297 2.331-1.457.066.027.137.043.203.055.163.07.327.137.487.211a.79.79 0 0 0 .35.219v.004c.426.533.862 1.05 1.314 1.551a24.02 24.02 0 0 0 2.199 2.084 7.796 7.796 0 0 0-1.93.407c-1.648.846-3.742.646-5.172-.509l.008.008Zm8.668 8.836a6.463 6.463 0 0 1-1.099-.251c-.101-.212-.304-.38-.616-.411-1.874-1.923-1.333-5.166 1.166-6.235a.846.846 0 0 0 .277-.224c.327.067.654.141.986.13 1.773 1.237 3.66 2.318 5.574 3.321l1.391.705h.004a11.537 11.537 0 0 0-4.015 1.566c-1.15.627-2.315 1.379-3.671 1.391l.004.008Zm8.638 4.907a22.038 22.038 0 0 1-1.232-.043.909.909 0 0 0-.179-.129c-.678-.235-1.095-.737-1.47-1.352-.907-1.629.27-3.372 1.497-4.449a.673.673 0 0 0 .137-.227c.865-.211 1.75-.384 2.639-.321.128.016.257 0 .374-.035h.004c1.434.634 2.908 1.167 4.467 1.457.678.168 1.356.317 2.038.462-1.629.626-3.001 1.762-4.369 2.839-1.021 1.089-2.393 1.821-3.91 1.798h.004Zm14.071 1.038c-1.773 1.445-2.946 2.287-4.771 2.248a.803.803 0 0 0-.335-.235c-.627-.278-.998-.96-1.278-1.559-.601-1.531-.129-3.462 1.169-4.488a.927.927 0 0 0 .324-.302 9.96 9.96 0 0 1 2.494-.513.65.65 0 0 0 .281-.125h.012c1.738.313 3.476.623 5.207 1.002.78.177 1.563.341 2.347.49h.011c-1.964.893-3.648 2.193-5.461 3.478v.004Zm11.963-.012c-2.008 1.802-4.299 3.267-6.899 4.015-.199-.094-.425-.153-.605-.29-1.414-.932-1.808-3.122-.693-4.446 1.095-.72 2.237-1.366 3.492-1.778.499-.176 1.072-.137 1.548-.356.027-.016.054-.031.078-.051h.003a38.46 38.46 0 0 0 5.204.341c.503.015 1.006.015 1.505.008h.004c-1.283.752-2.495 1.652-3.641 2.557h.004Zm48.614-36.302a10.266 10.266 0 0 1-.604 3.638c-.382 1.234-.967 2.393-1.618 3.505-1.037 1.52-1.988 3.267-3.543 4.336-1.575 1.195-3.555 1.555-5.329 2.346-1.438.478-2.903.944-4.412 1.116-1.243.043-2.483.118-3.722.114-1.984-.169-3.976-.298-5.945-.576-1.344-.231-2.603-.807-3.956-.979-2.194-.658-4.35-1.476-6.599-1.982-1.228-.293-2.362-.893-3.621-1.108-1.013-.094-1.193 1.398-.171 1.555.904.188 1.796.611 2.689.865 1.364.392 2.748.686 4.089 1.164 1.294.313 2.487.951 3.808 1.124 1.318.266 2.569.81 3.913.967 1.068.125 2.14.243 3.216.337.32.223.866.313 1.247.478 1.267.611 2.179 1.746 2.9 2.976.503.983.702 2.166.538 3.27a4.916 4.916 0 0 1-1.535 3.478c-.016 0-.028.008-.039.012a.827.827 0 0 0-.351.231c-.37.196-.733.396-1.092.603-2.599 1.449-5.511 2.104-8.395 2.726-3.766 1.097-7.675 1.336-11.577 1.653-.826.067-1.649.137-2.471.219a48.699 48.699 0 0 1-10.267-.383c-1.844-.369-3.766-.788-5.633-1.132-3.94-.85-7.955-1.344-11.83-2.487-4.092-1.602-8.103-3.752-11.76-6.235-3.847-2.809-7.015-6.643-8.793-11.092-1.232-3.952-2.526-7.99-2.311-12.196.241-3.576 1.235-7.07 2.17-10.512 1.435-5.154 2.082-10.496 2.234-15.839.106-5.04-.3-10.124.718-15.098.39-2.804 1.45-5.49 2.974-7.876 1.403-2.624 3.083-5.072 5.234-7.132 1.98-2.146 4.179-4.062 6.654-5.613 2.05-1.5 4.405-2.44 6.848-3.062 2.288-.705 4.635-1.144 7.009-1.441 2.21-.334 4.412-.878 6.665-.71 3.22.208 6.377.933 9.511 1.653 3.535.929 7.067 1.927 10.423 3.4 1.652.873 3.344 1.68 4.946 2.648 3.251 2.142 5.999 4.977 8.396 8.036 2.471 3.243 2.845 7.36 3.676 11.248.541 3.196.627 6.467 1.391 9.623 1.407 4.782 3.446 9.455 6.209 13.606 1.01 1.34 1.871 2.703 2.904 4.074 1.583 1.931 3.239 3.865 4.085 6.262.846 2.64 1.392 5.401 1.138 8.182l-.011.008Zm5.589-20.23a20.398 20.398 0 0 1-2.744 4.14c-1.013.514-2.183.717-3.317.702-1.54-.157-2.9-.647-4.237-1.47-.242-.156-.464-.387-.721-.516-3.387-4.755-6.057-10.034-7.527-15.713-.674-3.529-.842-7.136-1.543-10.657v-.008a.968.968 0 0 0-.004-.564c.039-1.16.662-2.236 1.263-3.2 1.087-1.476 2.678-2.694 4.545-2.882.039 0 .074-.012.113-.024h.007a16.73 16.73 0 0 1 5.73 1.731c9.998 5.021 13.502 18.659 8.443 28.454l-.008.008Z"/><path fill="#000" d="M170.008 78.609c-1.497 3.963-1.282 9.967 2.202 12.819 4.409 2.859 7.211-3.392 7.247-7.046.14-2.628-.301-5.429-1.844-7.626-2.557-3.576-6.334-1.746-7.605 1.853ZM130.753 78.867c-4.288 4.36-3.773 13.03 1.707 16.175 6.681 3.275 11.561-4.652 10.337-10.688-.845-5.976-7.086-10.288-12.044-5.483v-.004ZM116.823 157.892s-.02-.008-.032-.008h-.012l.044.012v-.004ZM77.27 155.475a124.232 124.232 0 0 0-8.71 2.538 104.343 104.343 0 0 0-8.354 3.176.796.796 0 0 0-.417 1.026.788.788 0 0 0 1.021.419 102.122 102.122 0 0 1 6.646-2.588 120.206 120.206 0 0 1 10.228-3.055c.982-.298.573-1.755-.417-1.512l.004-.004ZM85.48 155.244c.43 0 .78-.351.78-.783a.782.782 0 0 0-.78-.784c-.43 0-.78.351-.78.784 0 .432.35.783.78.783ZM181.659 165.094c-3.996-2.276-8.201-4.156-12.501-5.773a.787.787 0 0 0-1.021.419c-.277.74.378 1.069.975 1.238 4.073 1.554 7.943 3.297 11.759 5.471.897.493 1.657-.815.788-1.351v-.004ZM162.47 158.667c.43 0 .779-.351.779-.784a.781.781 0 0 0-.779-.783.782.782 0 0 0-.78.783c0 .433.349.784.78.784Z"/><path fill="#000" d="M207.392 16.407c-.218-.298-.444-.588-.737-.819-2.541-2.365-4.841-5.005-7.557-7.179-.02-.02-.043-.035-.063-.05-2.058-1.904-7.215-2.946-9.16-3.408-8.497-1.79-17.166-2.628-25.803-3.345C145.413.17 126.68-.188 107.97.086c-20.374.54-40.963 1.01-60.986 5.139-2.455.615-4.989 1.226-7.172 2.554l-.043.03a10.39 10.39 0 0 0-1.55 1.02c-1.21.833-2.117 1.997-3.069 3.101-.693.776-1.547 1.7-2.249 2.558-1.832 2.2-3.933 4.206-5.768 6.438-.414.416-.885 1.1-1.294 1.587a.895.895 0 0 0-.312.583 106.712 106.712 0 0 0-7.098 9.114C-15.584 82.244.487 139.934 42.093 172.387c-.09.121-.18.246-.305.391a.794.794 0 0 0-.51.517c-.285.31-.554.658-.8.862a31.909 31.909 0 0 0-3.078 3.838c-6.467 9.341-4.331 19.371 2.498 27.056a.654.654 0 0 0 .136.152h.004a33.795 33.795 0 0 0 3.119 3.04c10.824 9.207 25.055 14.295 39.22 17.256.043.02.09.035.14.047 4.206.889 8.443 1.594 12.707 2.127.043.007.086.011.125.015.027 0 .05.008.078.012h.05s0 .004.004.004c6.607.818 13.261 1.234 19.914 1.296 22.842-.008 46.556-3.282 66.759-14.573 10.574-5.902 21.753-17.233 17.423-30.4-1.119-3.47-3.11-6.623-5.543-9.318a113.502 113.502 0 0 0 16.496-14.499c37.057-38.66 38.125-98.544 2.116-138.289a110.514 110.514 0 0 0-5.254-5.514ZM41.114 9.177c1.002-.784 2.238-1.21 3.422-1.633.246-.055.507-.11.71-.24 4.786-1.362 9.698-2.02 14.687-2.698 6.326-.803 12.676-1.355 19.037-1.79 20.72-1.355 41.516-1.547 62.272-.889 15.829.639 31.763 1.383 47.386 4.355 2.046.423 4.136.917 6.155 1.61.974.368 2.003.725 2.849 1.347a.772.772 0 0 0 .347.282c.051.047.105.087.152.134 1.029 1.17-2.401 2.314-3.419 2.698-11.416 3.42-23.679 4.073-35.552 5.052-20.573 1.352-41.301 1.547-61.913.901-13.023-.45-26.053-1.202-38.982-2.902-3.442-.47-6.876-1.03-10.267-1.786-2.175-.529-4.416-1.026-6.436-2.017-.21-.2-.413-.411-.615-.61-.6-.69-.597-1.293.175-1.826l-.008.012Zm140.131 198.02c-.054.697-.046 1.398-.031 2.099-.043 1.112-.46 2.158-.643 3.247-.097.372-.37.858-.491 1.312-11.713 6.443-26.361 9.995-36.916 11.624-15.198 2.319-30.622 2.573-45.917.862-.846-.098-1.692-.2-2.534-.309-.28-.036-.56-.075-.842-.114l-.841-.117a154.263 154.263 0 0 1-9.632-1.669 3.896 3.896 0 0 0-.476-.098c-2.1-.442-4.198-.936-6.302-1.484-12.852-3.525-26.167-8.511-35.479-18.506-.822-1.903-1.668-3.877-1.469-6.016.222-4.03 2.896-7.57 5.956-10.038 2.67-1.978 5.932-2.82 9.172-3.352 1.913-.38 3.874-.376 5.8-.137.32.031.639.16.958.231 9.347 4.727 19.513 8.342 30.322 10.602 23.344 5.126 48.196 3.529 70.773-4.352.214-.011.44-.054.658-.019 2.004.035 3.855.325 5.836.756 3.979.799 7.316 3.36 9.53 6.76 1.804 2.557 2.67 5.589 2.568 8.718Zm2.487-27.655a121.378 121.378 0 0 1-21.22 9.862.734.734 0 0 0-.276.098c-24.588 8.62-51.838 9.525-77.002 2.597a119.489 119.489 0 0 1-22.814-8.734 1.159 1.159 0 0 0-.121-.063c-33.07-16.77-58.016-48.655-60.432-86.963-1.5-21.748 4.677-43.826 16.909-61.87A108.307 108.307 0 0 1 29.56 20.943c.347-.333.706-.658 1.068-.975 2.596-2.13 5.741-3.725 9.066-4.371 2.269-.274 4.557-.51 6.845-.51.23.024.495.028.733-.027 6.197 1.457 12.563 2.174 18.885 2.856 13.077 1.323 26.22 1.907 39.356 2.185 25.73.356 51.596.008 77.123-3.517 2.853-.435 5.703-.932 8.513-1.598.051.008.105.012.16.012 6.447-.654 12.999 1.08 17.867 5.463a119.07 119.07 0 0 1 2.924 3.2c44.1 50.723 28.446 122.713-28.373 155.878l.004.004Z"/><path fill="#000" d="M173.392 213.271c-.343-.207-.866-.109-1.065.259-2.564 1.042-5.039 2.291-7.698 3.094-1.025.352-2.093.552-3.138.842a.792.792 0 0 0-.557.956c.105.407.55.677.951.56.733-.212 1.477-.357 2.214-.56 3.009-.831 5.866-2.221 8.762-3.416.714-.223 1.326-1.229.531-1.739v.004ZM157.917 218.464a.786.786 0 0 0-.791.772c-.008.419.343.795.768.795a.786.786 0 0 0 .791-.771c.008-.42-.343-.796-.768-.796ZM60.869 186.419a18.54 18.54 0 0 0-6.814.149c-1.087.247-2.257.521-3.31.948-.397.145-.58.638-.424 1.022.343.803 1.204.368 1.785.145.78-.219 1.563-.427 2.355-.599a.191.191 0 0 0-.047.008c1.645-.38 3.364-.376 5.047-.286.6.016 1.193.27 1.793.133.983-.278.605-1.739-.385-1.52ZM48.672 188.898a.786.786 0 0 0-.791.772c-.008.419.343.795.768.795a.786.786 0 0 0 .791-.772c.008-.419-.343-.795-.768-.795ZM97.855 223.223c-1.535-.321-3.087-.533-4.627-.826-.49-.177-1.122-.126-1.29.462-.113.395.121.869.534.971 1.552.36 3.142.521 4.697.862.682.235 1.832.105 1.762-.842-.05-.506-.62-.835-1.08-.627h.004ZM89.225 221.402a.786.786 0 0 0-.79.771c-.009.419.342.795.767.795a.786.786 0 0 0 .791-.771c.008-.419-.343-.795-.767-.795ZM131.801 192.901c-1.083.216-2.19.306-3.289.427-1.084.082-2.144.317-3.212.478-1.976.016-3.956.168-5.925-.102-.425-.035-.814.247-.869.682-.074 1.077 1.232.893 1.949.998 1.403.126 2.806-.027 4.21.004 1.142.039 2.233-.34 3.363-.427 1.158-.148 2.32-.231 3.473-.419.558-.078 1.302-.141 1.478-.791.21-.666-.636-1.261-1.178-.85ZM116.234 193.638a.789.789 0 0 0-.772.791.788.788 0 0 0 .787.775.789.789 0 0 0 .772-.791.788.788 0 0 0-.787-.775ZM233.773 105.406c.417.086.815-.208.912-.623.222-1.01.476-2.013.632-3.035.358-2.252.495-4.536.417-6.815-.035-1.57.027-3.42-.324-5.01-.175-.81-1.594-.653-1.516.31.499 3.983.436 8.092-.25 12.055a67.364 67.364 0 0 1-.491 2.201c-.097.415.219.838.62.917ZM232.736 108.794c.826.258 1.345-.752.787-1.363-.214-.369-.744-.443-1.079-.216-.608.396-.308 1.351.292 1.579ZM11.507 54.15c-.36.023-.64.313-.698.654-.542 1.234-.932 2.53-1.454 3.772-.967 2.73-1.637 5.561-2.167 8.408a.796.796 0 0 0 .627.913.786.786 0 0 0 .905-.63c.253-1.352.541-2.699.865-4.035.67-2.796 1.742-5.451 2.763-8.134a.801.801 0 0 0-.841-.948ZM7.433 70.392c-.425 0-.795.305-.815.748-.019.411.32.819.745.819s.795-.306.815-.749c.02-.41-.32-.818-.745-.818ZM56.374 93.739c.11.763-.37 2.146.745 2.271.417.02.799-.321.815-.748.109-3.548-.542-7.07-1.447-10.488-.113-.42-.273-.839-.596-1.14-.737-.63-1.727.45-1.056 1.144 0 .003-.004 0-.008-.004.916 2.878 1.427 5.941 1.547 8.965ZM55.957 98.11c-.02.41.32.818.745.818s.795-.305.815-.748c.019-.411-.32-.819-.745-.819s-.795.306-.815.748ZM86.844 38.08c.44-.219.916-.458 1.419-.65.78-.325 1.621-.32 2.424-.536 1.36-.462 2.125-1.798 2.966-2.875.472-.564 1.256-.979 1.899-1.335.994-.423 2.085-.686 3.169-.639.616.016 1.325.294 1.867-.121a.793.793 0 0 0 .124-1.1.793.793 0 0 0-.896-.244c-1.79-.274-3.68.012-5.282.874-.701.407-1.422.822-1.968 1.437-.702.8-1.193 1.778-2.085 2.393-.815.349-1.758.25-2.58.615-.73.262-1.431.603-2.11.971-.37.212-.487.71-.272 1.074.296.505.912.438 1.325.129v.008ZM83.11 41.116a.786.786 0 0 0 .768-.795.791.791 0 0 0-.792-.772.787.787 0 0 0-.767.795c.007.431.366.772.79.772ZM188.893 79.408c.394-.09.71-.529.585-.94-.327-1.097-.612-2.201-1.072-3.255-1.298-2.89-3.204-5.597-5.722-7.535a.787.787 0 0 0-1.076.246c-.413.698.273 1.081.729 1.465a18.701 18.701 0 0 1 5.617 9.427c.121.415.518.69.931.588l.008.004ZM189.076 82.369c-.424 0-.795.31-.814.748-.016.41.319.818.744.818s.795-.31.815-.748c.015-.411-.32-.818-.745-.818ZM171.965 110.18c-.495-.458-1.356.02-1.271.674.082.344.261.642.285 1.006.257 2.675.093 5.374-.741 7.955-.483 1.496-1.742 2.722-2.923 3.72-.472.372-1.119.741-.667 1.473.815.924 1.77-.443 2.417-.944 2.775-2.244 3.485-5.922 3.567-9.325.027-1.187.05-2.401-.195-3.568-.086-.36-.176-.752-.472-.995v.004ZM163.207 126.332c.612.979 1.941.043 1.29-.921-.612-.983-1.941-.039-1.29.921ZM111.685 72.205c1.263-1.81 2.686-3.38 4.494-4.692.561-.391 1.185-.666 1.762-1.026.663-.372.807-1.437-.035-1.668a.784.784 0 0 0-.869.391 15.438 15.438 0 0 0-4.483 3.44c-.631.806-3.843 3.931-2.416 4.754.912.45 1.173-.611 1.551-1.199h-.004ZM108.559 74.9c-.425 0-.772.384-.76.803a.79.79 0 0 0 .799.763c.425 0 .771-.383.76-.802a.792.792 0 0 0-.799-.764ZM102.95 138.857c-1.107-.447-2.179-.999-3.259-1.516-.963-.497-1.922-1.057-2.79-1.715-.539-.365-1.248-1.332-1.926-.556-1.345 1.456 5.885 4.531 6.957 5.075.632.341 1.821.521 1.899-.477.019-.47-.41-.874-.881-.811ZM93.4 132.038a.794.794 0 0 0-.807.756c-.015.415.328.811.753.811a.794.794 0 0 0 .806-.756c.016-.415-.327-.811-.752-.811ZM130.776 128.196c-.206.451.075.971.538 1.105.69.305 1.368.638 2.082.893 2.112.63 4.206 1.319 6.306 1.997.55.27 1.369.082 1.388-.634.016-.408-.327-.827-.752-.811-2.842-.983-5.804-1.649-8.529-2.938a.791.791 0 0 0-1.033.388ZM128.644 126.457a.795.795 0 0 0-.807.756c-.015.415.328.811.753.811a.795.795 0 0 0 .807-.756c.015-.415-.328-.811-.753-.811ZM88.423 82.929c-.37.176-.573.662-.375 1.042.114 2.193.23 4.394.195 6.595-.078 1.363-.222 2.722-.327 4.085-.05.427.288.815.702.854 1.301.015.799-1.962 1.017-2.82.32-2.722.125-5.468-.008-8.194.078-.751-.214-1.946-1.204-1.558v-.004ZM87.401 98.454c.526.995 1.945.153 1.349-.783-.519-.991-1.945-.16-1.349.783Z"/></g><defs><clipPath id="a"><path fill="#fff" d="M0 0h239v229H0z"/></clipPath></defs></svg>