<svg width="44" height="58" viewBox="0 0 44 58" fill="none" xmlns="http://www.w3.org/2000/svg">
<path d="M35.1498 20.0673C40.521 18.0382 44 14.7928 44 11.1378C44 4.98643 34.1461 0 22 0C9.85388 0 0 4.98643 0 11.1378C0 14.7928 3.47904 18.0382 8.85019 20.0673C12.5191 18.6783 17.0697 17.859 22 17.859C26.9303 17.859 31.4809 18.6847 35.1498 20.0673Z" fill="url(#paint0_linear)"/>
<path d="M44 28.9969C44 25.3419 40.521 22.0965 35.1498 20.0674C31.4809 21.4564 26.9303 22.2757 22 22.2757C17.0697 22.2757 12.5191 21.4564 8.85019 20.0674C3.47904 22.1029 0 25.3419 0 28.9969C0 32.6519 3.47904 35.8972 8.85019 37.9263C12.5191 36.5373 17.0697 35.718 22 35.718C26.9303 35.718 31.4809 36.5373 35.1498 37.9263C40.521 35.8972 44 32.6583 44 28.9969Z" fill="url(#paint1_linear)"/>
<path d="M21.9975 22.2756C29.2599 22.2756 35.1473 21.2869 35.1473 20.0673C35.1473 18.8476 29.2599 17.8589 21.9975 17.8589C14.735 17.8589 8.84766 18.8476 8.84766 20.0673C8.84766 21.2869 14.735 22.2756 21.9975 22.2756Z" fill="url(#paint2_linear)"/>
<path d="M21.9975 22.2756C29.2599 22.2756 35.1473 21.2869 35.1473 20.0673C35.1473 18.8476 29.2599 17.8589 21.9975 17.8589C14.735 17.8589 8.84766 18.8476 8.84766 20.0673C8.84766 21.2869 14.735 22.2756 21.9975 22.2756Z" fill="#E59739"/>
<path d="M8.85019 37.9326C3.47904 39.9618 0 43.2071 0 46.8621C0 53.0135 9.8471 58 22 58C34.1529 58 44 53.0135 44 46.8621C44 43.2071 40.521 39.9618 35.1498 37.9326C31.4809 39.3216 26.9303 40.141 22 40.141C17.0697 40.141 12.5191 39.3152 8.85019 37.9326Z" fill="url(#paint3_linear)"/>
<path d="M21.9975 40.1411C29.2599 40.1411 35.1473 39.1524 35.1473 37.9327C35.1473 36.7131 29.2599 35.7244 21.9975 35.7244C14.735 35.7244 8.84766 36.7131 8.84766 37.9327C8.84766 39.1524 14.735 40.1411 21.9975 40.1411Z" fill="url(#paint4_linear)"/>
<path d="M21.9975 40.1411C29.2599 40.1411 35.1473 39.1524 35.1473 37.9327C35.1473 36.7131 29.2599 35.7244 21.9975 35.7244C14.735 35.7244 8.84766 36.7131 8.84766 37.9327C8.84766 39.1524 14.735 40.1411 21.9975 40.1411Z" fill="#0056D3"/>
<defs>
<linearGradient id="paint0_linear" x1="21.9986" y1="0.895572" x2="21.9986" y2="24.4107" gradientUnits="userSpaceOnUse">
<stop stop-color="#FFCD85"/>
<stop offset="1" stop-color="#FCBC68"/>
</linearGradient>
<linearGradient id="paint1_linear" x1="21.9986" y1="40.6907" x2="21.9986" y2="19.49" gradientUnits="userSpaceOnUse">
<stop stop-color="#2C72FF"/>
<stop offset="1" stop-color="#0062FF"/>
</linearGradient>
<linearGradient id="paint2_linear" x1="21.996" y1="-0.75565" x2="21.996" y2="22.7595" gradientUnits="userSpaceOnUse">
<stop stop-color="#FFEC1F"/>
<stop offset="1" stop-color="#EACE00"/>
</linearGradient>
<linearGradient id="paint3_linear" x1="21.9986" y1="35.3127" x2="21.9986" y2="57.6292" gradientUnits="userSpaceOnUse">
<stop stop-color="#1D0070"/>
<stop offset="1" stop-color="#130059"/>
</linearGradient>
<linearGradient id="paint4_linear" x1="21.996" y1="40.6907" x2="21.996" y2="19.49" gradientUnits="userSpaceOnUse">
<stop stop-color="#FFC2E8"/>
<stop offset="1" stop-color="#F47FCD"/>
</linearGradient>
</defs>
</svg>
