<svg width="45" height="54" viewBox="0 0 45 54" fill="none" xmlns="http://www.w3.org/2000/svg">
<path d="M22.8092 46.018C10.2366 46.018 0 35.6761 0 22.9743C0 10.5501 10.0305 0.208226 22.3282 0L22.3969 4.85861C12.7099 5.06684 4.80916 13.1877 4.80916 22.9743C4.80916 32.9692 12.8473 41.1594 22.8092 41.1594C28.6489 41.1594 33.3206 36.3702 33.3206 30.5398C33.3206 24.7095 28.5802 19.9203 22.8092 19.9203V15.0617C31.2595 15.0617 38.1298 22.0026 38.1298 30.5398C38.1298 39.0771 31.2595 46.018 22.8092 46.018Z" fill="#15015C"/>
<path d="M22.1904 54.0001C21.5721 54.0001 20.9538 54.0001 20.2668 53.9307L20.679 49.0721C30.366 49.905 39.0912 42.6171 40.053 32.8304C41.0836 22.905 33.8698 13.9513 24.0454 12.9101C21.2286 12.6325 18.4805 13.4654 16.3507 15.2006C14.1523 17.0052 12.8469 19.504 12.5034 22.3497C12.2286 25.1955 13.053 27.9024 14.7706 30.1235C16.5568 32.3446 19.0301 33.6633 21.8469 34.0104L21.366 38.869C17.3126 38.4525 13.6026 36.4397 11.0607 33.2469C8.44996 30.0541 7.28203 26.0284 7.69424 21.8639C8.10645 17.7687 10.0988 14.0207 13.2591 11.4525C16.4194 8.81501 20.4042 7.63506 24.5263 8.05152C37.0301 9.37028 46.1675 20.6839 44.8622 33.3163C43.6942 45.0464 33.7324 54.0001 22.1904 54.0001Z" fill="url(#paint0_linear)"/>
<defs>
<linearGradient id="paint0_linear" x1="7.65247" y1="30.9726" x2="45.0068" y2="30.9726" gradientUnits="userSpaceOnUse">
<stop stop-color="#FFCD85"/>
<stop offset="1" stop-color="#FCBC68"/>
</linearGradient>
</defs>
</svg>
