<svg width="2000" height="1500" viewBox="0 0 2000 1500" fill="none" xmlns="http://www.w3.org/2000/svg">
<circle cx="303" cy="750" r="74.5" fill="#DAEAD4" stroke="black"/>
<path d="M281.426 752.979C281.426 751.768 281.728 750.539 282.333 749.291C282.939 748.043 283.998 746.889 285.511 745.83C287.024 744.771 288.858 744.26 291.014 744.298C293.359 744.298 295.061 744.808 296.121 745.83C297.18 746.851 297.728 747.986 297.766 749.234C297.766 750.444 297.444 751.333 296.801 751.901C296.158 752.468 295.44 752.771 294.645 752.808C294.154 752.808 293.7 752.657 293.284 752.355C292.868 752.052 292.641 751.56 292.603 750.879C292.603 750.274 292.773 749.745 293.113 749.291C293.454 748.837 293.775 748.496 294.078 748.269C294.381 748.043 294.626 747.929 294.816 747.929C294.853 747.929 294.872 747.91 294.872 747.872C294.872 747.759 294.74 747.589 294.475 747.362C294.21 747.135 293.738 746.927 293.057 746.738C292.376 746.548 291.638 746.435 290.844 746.397C289.028 746.397 287.704 746.889 286.872 747.872C286.04 748.856 285.605 749.858 285.567 750.879C285.567 751.825 285.927 752.487 286.645 752.865C287.364 753.243 288.404 753.565 289.766 753.83C291.128 754.095 292.111 754.378 292.716 754.681C295.213 755.778 296.461 757.593 296.461 760.128C296.461 761.187 296.253 762.246 295.837 763.305C295.421 764.364 294.797 765.423 293.965 766.482C293.132 767.541 291.941 768.373 290.39 768.979C288.839 769.584 287.061 769.905 285.057 769.943C282.144 769.943 280.083 769.395 278.872 768.298C277.662 767.201 277.038 765.915 277 764.44C277 762.965 277.397 761.905 278.191 761.262C278.986 760.619 279.818 760.298 280.688 760.298C281.255 760.298 281.785 760.468 282.277 760.808C282.768 761.149 283.033 761.735 283.071 762.567C283.071 763.551 282.73 764.383 282.05 765.064C281.369 765.745 280.783 766.085 280.291 766.085C280.215 766.123 280.158 766.142 280.121 766.142C280.083 766.142 280.064 766.18 280.064 766.255C280.102 766.369 280.253 766.52 280.518 766.709C280.783 766.898 281.369 767.144 282.277 767.447C283.184 767.749 284.225 767.882 285.397 767.844C286.759 767.844 287.931 767.636 288.915 767.22C289.898 766.804 290.617 766.274 291.071 765.631C291.525 764.988 291.846 764.402 292.035 763.872C292.225 763.343 292.319 762.87 292.319 762.454C292.319 761.395 291.922 760.6 291.128 760.071C290.333 759.541 289.426 759.22 288.404 759.106C287.383 758.993 286.267 758.709 285.057 758.255C283.846 757.801 282.957 757.139 282.39 756.269C281.747 755.324 281.426 754.227 281.426 752.979Z" fill="black"/>
<path d="M307.468 732.667C307.468 732.288 307.544 731.853 307.695 731.362C307.846 730.87 308.073 730.624 308.376 730.624C308.414 730.624 309.775 730.53 312.461 730.34C315.147 730.151 316.527 730.038 316.603 730C317.057 730 317.284 730.151 317.284 730.454C317.284 730.719 316.338 734.671 314.447 742.312C312.555 749.801 311.61 753.678 311.61 753.943C312.329 753.565 312.877 753.206 313.255 752.865C314.163 752.184 315.468 750.993 317.17 749.291C318.872 747.589 320.196 746.435 321.142 745.83C322.655 744.809 324.092 744.298 325.454 744.298C326.589 744.298 327.477 744.657 328.121 745.376C328.764 746.095 329.104 747.116 329.142 748.44C329.142 749.385 329.009 750.18 328.745 750.823C328.48 751.466 328.121 751.939 327.667 752.241C327.213 752.544 326.816 752.752 326.475 752.865C326.135 752.979 325.794 753.035 325.454 753.035C324.697 753.035 324.092 752.827 323.638 752.411C323.184 751.995 322.957 751.447 322.957 750.766C322.957 749.82 323.26 749.045 323.865 748.44C324.47 747.835 325.076 747.437 325.681 747.248L326.589 747.078C326.135 746.624 325.681 746.397 325.227 746.397H325C323.79 746.511 322.598 746.983 321.425 747.816C320.253 748.648 318.872 749.858 317.284 751.447C315.695 753.035 314.447 754.189 313.539 754.908C313.615 754.946 313.898 755.002 314.39 755.078C314.882 755.154 315.336 755.267 315.752 755.418C316.168 755.57 316.66 755.721 317.227 755.872C317.794 756.024 318.305 756.288 318.759 756.667C319.213 757.045 319.629 757.385 320.007 757.688C320.385 757.991 320.707 758.482 320.972 759.163C321.236 759.844 321.35 760.468 321.312 761.035C321.312 761.678 321.217 762.454 321.028 763.362C320.839 764.27 320.726 765.026 320.688 765.631C320.688 767.144 321.199 767.901 322.22 767.901C324.035 767.901 325.511 765.65 326.645 761.149C326.721 760.846 327.099 760.695 327.78 760.695H328.007C328.612 760.695 328.915 760.865 328.915 761.206C328.915 761.395 328.858 761.66 328.745 762C327.194 767.333 324.962 770 322.05 770C320.347 770 318.967 769.508 317.908 768.525C316.849 767.541 316.319 766.123 316.319 764.27C316.319 763.589 316.376 763.002 316.489 762.511C316.603 762.019 316.66 761.565 316.66 761.149C316.66 760.317 316.395 759.598 315.865 758.993C315.336 758.388 314.674 757.953 313.879 757.688C313.085 757.423 312.442 757.215 311.95 757.064C311.459 756.913 311.118 756.856 310.929 756.894H310.816C310.362 758.482 309.964 760.014 309.624 761.489C309.284 762.965 309.019 764.061 308.83 764.78C308.641 765.499 308.47 766.199 308.319 766.879C308.168 767.56 308.035 768.014 307.922 768.241C307.808 768.468 307.676 768.714 307.525 768.979C307.373 769.243 307.165 769.414 306.901 769.489C306.409 769.83 305.879 770 305.312 770C304.669 770 304.177 769.811 303.837 769.433C303.496 769.054 303.326 768.733 303.326 768.468C303.326 768.09 304.026 765.064 305.425 759.39C306.825 753.716 308.206 748.137 309.567 742.652L311.667 734.426C311.704 733.934 311.572 733.631 311.269 733.518C310.967 733.404 310.229 733.31 309.057 733.234H308.773C308.395 733.234 308.149 733.234 308.035 733.234C307.922 733.234 307.79 733.177 307.638 733.064C307.487 732.95 307.43 732.818 307.468 732.667Z" fill="black"/>
<path d="M231.688 882.656C231.688 884.719 230.943 886.344 229.453 887.531C227.974 888.719 225.911 889.312 223.266 889.312C220.828 889.312 218.672 888.854 216.797 887.938V883.438C218.339 884.125 219.641 884.609 220.703 884.891C221.776 885.172 222.755 885.312 223.641 885.312C224.703 885.312 225.516 885.109 226.078 884.703C226.651 884.297 226.938 883.693 226.938 882.891C226.938 882.443 226.812 882.047 226.562 881.703C226.312 881.349 225.943 881.01 225.453 880.688C224.974 880.365 223.99 879.849 222.5 879.141C221.104 878.484 220.057 877.854 219.359 877.25C218.661 876.646 218.104 875.943 217.688 875.141C217.271 874.339 217.062 873.401 217.062 872.328C217.062 870.307 217.745 868.719 219.109 867.562C220.484 866.406 222.38 865.828 224.797 865.828C225.984 865.828 227.115 865.969 228.188 866.25C229.271 866.531 230.401 866.927 231.578 867.438L230.016 871.203C228.797 870.703 227.786 870.354 226.984 870.156C226.193 869.958 225.411 869.859 224.641 869.859C223.724 869.859 223.021 870.073 222.531 870.5C222.042 870.927 221.797 871.484 221.797 872.172C221.797 872.599 221.896 872.974 222.094 873.297C222.292 873.609 222.604 873.917 223.031 874.219C223.469 874.51 224.495 875.042 226.109 875.812C228.245 876.833 229.708 877.859 230.5 878.891C231.292 879.911 231.688 881.167 231.688 882.656ZM242.688 874.594C241.677 874.594 240.885 874.917 240.312 875.562C239.74 876.198 239.411 877.104 239.328 878.281H246.016C245.995 877.104 245.688 876.198 245.094 875.562C244.5 874.917 243.698 874.594 242.688 874.594ZM243.359 889.312C240.547 889.312 238.349 888.536 236.766 886.984C235.182 885.432 234.391 883.234 234.391 880.391C234.391 877.464 235.12 875.203 236.578 873.609C238.047 872.005 240.073 871.203 242.656 871.203C245.125 871.203 247.047 871.906 248.422 873.312C249.797 874.719 250.484 876.661 250.484 879.141V881.453H239.219C239.271 882.807 239.672 883.865 240.422 884.625C241.172 885.385 242.224 885.766 243.578 885.766C244.63 885.766 245.625 885.656 246.562 885.438C247.5 885.219 248.479 884.87 249.5 884.391V888.078C248.667 888.495 247.776 888.802 246.828 889C245.88 889.208 244.724 889.312 243.359 889.312ZM261.453 889.312C256.016 889.312 253.297 886.328 253.297 880.359C253.297 877.391 254.036 875.125 255.516 873.562C256.995 871.99 259.115 871.203 261.875 871.203C263.896 871.203 265.708 871.599 267.312 872.391L265.906 876.078C265.156 875.776 264.458 875.531 263.812 875.344C263.167 875.146 262.521 875.047 261.875 875.047C259.396 875.047 258.156 876.807 258.156 880.328C258.156 883.745 259.396 885.453 261.875 885.453C262.792 885.453 263.641 885.333 264.422 885.094C265.203 884.844 265.984 884.458 266.766 883.938V888.016C265.995 888.505 265.214 888.844 264.422 889.031C263.641 889.219 262.651 889.312 261.453 889.312ZM280.578 871.203C281.224 871.203 281.76 871.25 282.188 871.344L281.828 875.812C281.443 875.708 280.974 875.656 280.422 875.656C278.901 875.656 277.714 876.047 276.859 876.828C276.016 877.609 275.594 878.703 275.594 880.109V889H270.828V871.531H274.438L275.141 874.469H275.375C275.917 873.49 276.646 872.703 277.562 872.109C278.49 871.505 279.495 871.203 280.578 871.203ZM292.594 874.594C291.583 874.594 290.792 874.917 290.219 875.562C289.646 876.198 289.318 877.104 289.234 878.281H295.922C295.901 877.104 295.594 876.198 295 875.562C294.406 874.917 293.604 874.594 292.594 874.594ZM293.266 889.312C290.453 889.312 288.255 888.536 286.672 886.984C285.089 885.432 284.297 883.234 284.297 880.391C284.297 877.464 285.026 875.203 286.484 873.609C287.953 872.005 289.979 871.203 292.562 871.203C295.031 871.203 296.953 871.906 298.328 873.312C299.703 874.719 300.391 876.661 300.391 879.141V881.453H289.125C289.177 882.807 289.578 883.865 290.328 884.625C291.078 885.385 292.13 885.766 293.484 885.766C294.536 885.766 295.531 885.656 296.469 885.438C297.406 885.219 298.385 884.87 299.406 884.391V888.078C298.573 888.495 297.682 888.802 296.734 889C295.786 889.208 294.63 889.312 293.266 889.312ZM311.625 885.516C312.458 885.516 313.458 885.333 314.625 884.969V888.516C313.438 889.047 311.979 889.312 310.25 889.312C308.344 889.312 306.953 888.833 306.078 887.875C305.214 886.906 304.781 885.458 304.781 883.531V875.109H302.5V873.094L305.125 871.5L306.5 867.812H309.547V871.531H314.438V875.109H309.547V883.531C309.547 884.208 309.734 884.708 310.109 885.031C310.495 885.354 311 885.516 311.625 885.516ZM345.234 889H339.734L333.75 879.375L331.703 880.844V889H326.859V866.156H331.703V876.609L333.609 873.922L339.797 866.156H345.172L337.203 876.266L345.234 889ZM354.969 874.594C353.958 874.594 353.167 874.917 352.594 875.562C352.021 876.198 351.693 877.104 351.609 878.281H358.297C358.276 877.104 357.969 876.198 357.375 875.562C356.781 874.917 355.979 874.594 354.969 874.594ZM355.641 889.312C352.828 889.312 350.63 888.536 349.047 886.984C347.464 885.432 346.672 883.234 346.672 880.391C346.672 877.464 347.401 875.203 348.859 873.609C350.328 872.005 352.354 871.203 354.938 871.203C357.406 871.203 359.328 871.906 360.703 873.312C362.078 874.719 362.766 876.661 362.766 879.141V881.453H351.5C351.552 882.807 351.953 883.865 352.703 884.625C353.453 885.385 354.505 885.766 355.859 885.766C356.911 885.766 357.906 885.656 358.844 885.438C359.781 885.219 360.76 884.87 361.781 884.391V888.078C360.948 888.495 360.057 888.802 359.109 889C358.161 889.208 357.005 889.312 355.641 889.312ZM364.141 871.531H369.359L372.656 881.359C372.938 882.214 373.13 883.224 373.234 884.391H373.328C373.443 883.318 373.667 882.307 374 881.359L377.234 871.531H382.344L374.953 891.234C374.276 893.057 373.307 894.422 372.047 895.328C370.797 896.234 369.333 896.688 367.656 896.688C366.833 896.688 366.026 896.599 365.234 896.422V892.641C365.807 892.776 366.432 892.844 367.109 892.844C367.953 892.844 368.688 892.583 369.312 892.062C369.948 891.552 370.443 890.776 370.797 889.734L371.078 888.875L364.141 871.531ZM199.938 915.531C199.938 916.99 199.526 918.182 198.703 919.109C197.891 920.036 196.734 920.656 195.234 920.969V921.094C197.068 921.323 198.427 921.906 199.312 922.844C200.198 923.781 200.641 925.01 200.641 926.531C200.641 928.708 199.885 930.385 198.375 931.562C196.865 932.729 194.719 933.312 191.938 933.312C190.729 933.312 189.62 933.219 188.609 933.031C187.609 932.854 186.635 932.536 185.688 932.078V929.609C186.677 930.099 187.729 930.474 188.844 930.734C189.969 930.984 191.031 931.109 192.031 931.109C195.979 931.109 197.953 929.562 197.953 926.469C197.953 923.698 195.776 922.312 191.422 922.312H189.172V920.078H191.453C193.234 920.078 194.646 919.688 195.688 918.906C196.729 918.115 197.25 917.021 197.25 915.625C197.25 914.51 196.865 913.635 196.094 913C195.333 912.365 194.297 912.047 192.984 912.047C191.984 912.047 191.042 912.182 190.156 912.453C189.271 912.724 188.26 913.224 187.125 913.953L185.812 912.203C186.75 911.464 187.828 910.885 189.047 910.469C190.276 910.042 191.568 909.828 192.922 909.828C195.141 909.828 196.865 910.339 198.094 911.359C199.323 912.37 199.938 913.76 199.938 915.531ZM219.109 933H204.094V930.766L210.109 924.719C211.943 922.865 213.151 921.542 213.734 920.75C214.318 919.958 214.755 919.188 215.047 918.438C215.339 917.688 215.484 916.88 215.484 916.016C215.484 914.797 215.115 913.833 214.375 913.125C213.635 912.406 212.609 912.047 211.297 912.047C210.349 912.047 209.448 912.203 208.594 912.516C207.75 912.828 206.807 913.396 205.766 914.219L204.391 912.453C206.495 910.703 208.786 909.828 211.266 909.828C213.411 909.828 215.094 910.38 216.312 911.484C217.531 912.578 218.141 914.052 218.141 915.906C218.141 917.354 217.734 918.786 216.922 920.203C216.109 921.62 214.589 923.411 212.359 925.578L207.359 930.469V930.594H219.109V933ZM239.875 915.594C242.125 915.594 243.87 916.365 245.109 917.906C246.359 919.438 246.984 921.609 246.984 924.422C246.984 927.234 246.354 929.422 245.094 930.984C243.844 932.536 242.104 933.312 239.875 933.312C238.76 933.312 237.74 933.109 236.812 932.703C235.896 932.286 235.125 931.651 234.5 930.797H234.312L233.766 933H231.906V908.688H234.5V914.594C234.5 915.917 234.458 917.104 234.375 918.156H234.5C235.708 916.448 237.5 915.594 239.875 915.594ZM239.5 917.766C237.729 917.766 236.453 918.276 235.672 919.297C234.891 920.307 234.5 922.016 234.5 924.422C234.5 926.828 234.901 928.552 235.703 929.594C236.505 930.625 237.792 931.141 239.562 931.141C241.156 931.141 242.344 930.562 243.125 929.406C243.906 928.24 244.297 926.568 244.297 924.391C244.297 922.161 243.906 920.5 243.125 919.406C242.344 918.312 241.135 917.766 239.5 917.766ZM248.812 915.875H251.594L255.344 925.641C256.167 927.87 256.677 929.479 256.875 930.469H257C257.135 929.938 257.417 929.031 257.844 927.75C258.281 926.458 259.698 922.5 262.094 915.875H264.875L257.516 935.375C256.786 937.302 255.932 938.667 254.953 939.469C253.984 940.281 252.792 940.688 251.375 940.688C250.583 940.688 249.802 940.599 249.031 940.422V938.344C249.604 938.469 250.245 938.531 250.953 938.531C252.734 938.531 254.005 937.531 254.766 935.531L255.719 933.094L248.812 915.875ZM273.188 931.172C273.646 931.172 274.089 931.141 274.516 931.078C274.943 931.005 275.281 930.932 275.531 930.859V932.844C275.25 932.979 274.833 933.089 274.281 933.172C273.74 933.266 273.25 933.312 272.812 933.312C269.5 933.312 267.844 931.568 267.844 928.078V917.891H265.391V916.641L267.844 915.562L268.938 911.906H270.438V915.875H275.406V917.891H270.438V927.969C270.438 929 270.682 929.792 271.172 930.344C271.661 930.896 272.333 931.172 273.188 931.172ZM286.203 933.312C283.672 933.312 281.672 932.542 280.203 931C278.745 929.458 278.016 927.318 278.016 924.578C278.016 921.818 278.693 919.625 280.047 918C281.411 916.375 283.24 915.562 285.531 915.562C287.677 915.562 289.375 916.271 290.625 917.688C291.875 919.094 292.5 920.953 292.5 923.266V924.906H280.703C280.755 926.917 281.26 928.443 282.219 929.484C283.188 930.526 284.547 931.047 286.297 931.047C288.141 931.047 289.964 930.661 291.766 929.891V932.203C290.849 932.599 289.979 932.88 289.156 933.047C288.344 933.224 287.359 933.312 286.203 933.312ZM285.5 917.734C284.125 917.734 283.026 918.182 282.203 919.078C281.391 919.974 280.911 921.214 280.766 922.797H289.719C289.719 921.161 289.354 919.911 288.625 919.047C287.896 918.172 286.854 917.734 285.5 917.734ZM313.062 915.562C313.823 915.562 314.505 915.625 315.109 915.75L314.75 918.156C314.042 918 313.417 917.922 312.875 917.922C311.49 917.922 310.302 918.484 309.312 919.609C308.333 920.734 307.844 922.135 307.844 923.812V933H305.25V915.875H307.391L307.688 919.047H307.812C308.448 917.932 309.214 917.073 310.109 916.469C311.005 915.865 311.99 915.562 313.062 915.562ZM328.844 933L328.328 930.562H328.203C327.349 931.635 326.495 932.365 325.641 932.75C324.797 933.125 323.74 933.312 322.469 933.312C320.771 933.312 319.438 932.875 318.469 932C317.51 931.125 317.031 929.88 317.031 928.266C317.031 924.807 319.797 922.995 325.328 922.828L328.234 922.734V921.672C328.234 920.328 327.943 919.339 327.359 918.703C326.786 918.057 325.865 917.734 324.594 917.734C323.167 917.734 321.552 918.172 319.75 919.047L318.953 917.062C319.797 916.604 320.719 916.245 321.719 915.984C322.729 915.724 323.74 915.594 324.75 915.594C326.792 915.594 328.302 916.047 329.281 916.953C330.271 917.859 330.766 919.312 330.766 921.312V933H328.844ZM322.984 931.172C324.599 931.172 325.865 930.729 326.781 929.844C327.708 928.958 328.172 927.719 328.172 926.125V924.578L325.578 924.688C323.516 924.76 322.026 925.083 321.109 925.656C320.203 926.219 319.75 927.099 319.75 928.297C319.75 929.234 320.031 929.948 320.594 930.438C321.167 930.927 321.964 931.172 322.984 931.172ZM347.844 933V921.922C347.844 920.526 347.526 919.484 346.891 918.797C346.255 918.109 345.26 917.766 343.906 917.766C342.115 917.766 340.802 918.25 339.969 919.219C339.135 920.188 338.719 921.786 338.719 924.016V933H336.125V915.875H338.234L338.656 918.219H338.781C339.312 917.375 340.057 916.724 341.016 916.266C341.974 915.797 343.042 915.562 344.219 915.562C346.281 915.562 347.833 916.062 348.875 917.062C349.917 918.052 350.438 919.641 350.438 921.828V933H347.844ZM367.438 930.703H367.297C366.099 932.443 364.307 933.312 361.922 933.312C359.682 933.312 357.938 932.547 356.688 931.016C355.448 929.484 354.828 927.307 354.828 924.484C354.828 921.661 355.453 919.469 356.703 917.906C357.953 916.344 359.693 915.562 361.922 915.562C364.245 915.562 366.026 916.406 367.266 918.094H367.469L367.359 916.859L367.297 915.656V908.688H369.891V933H367.781L367.438 930.703ZM362.25 931.141C364.021 931.141 365.302 930.661 366.094 929.703C366.896 928.734 367.297 927.177 367.297 925.031V924.484C367.297 922.057 366.891 920.328 366.078 919.297C365.276 918.255 363.99 917.734 362.219 917.734C360.698 917.734 359.531 918.328 358.719 919.516C357.917 920.693 357.516 922.359 357.516 924.516C357.516 926.703 357.917 928.354 358.719 929.469C359.521 930.583 360.698 931.141 362.25 931.141ZM390.188 924.422C390.188 927.214 389.484 929.396 388.078 930.969C386.672 932.531 384.729 933.312 382.25 933.312C380.719 933.312 379.359 932.953 378.172 932.234C376.984 931.516 376.068 930.484 375.422 929.141C374.776 927.797 374.453 926.224 374.453 924.422C374.453 921.63 375.151 919.458 376.547 917.906C377.943 916.344 379.88 915.562 382.359 915.562C384.755 915.562 386.656 916.359 388.062 917.953C389.479 919.547 390.188 921.703 390.188 924.422ZM377.141 924.422C377.141 926.609 377.578 928.276 378.453 929.422C379.328 930.568 380.615 931.141 382.312 931.141C384.01 931.141 385.297 930.573 386.172 929.438C387.057 928.292 387.5 926.62 387.5 924.422C387.5 922.245 387.057 920.594 386.172 919.469C385.297 918.333 384 917.766 382.281 917.766C380.583 917.766 379.302 918.323 378.438 919.438C377.573 920.552 377.141 922.214 377.141 924.422ZM416.578 933V921.859C416.578 920.495 416.286 919.474 415.703 918.797C415.12 918.109 414.214 917.766 412.984 917.766C411.37 917.766 410.177 918.229 409.406 919.156C408.635 920.083 408.25 921.51 408.25 923.438V933H405.656V921.859C405.656 920.495 405.365 919.474 404.781 918.797C404.198 918.109 403.286 917.766 402.047 917.766C400.422 917.766 399.229 918.255 398.469 919.234C397.719 920.203 397.344 921.797 397.344 924.016V933H394.75V915.875H396.859L397.281 918.219H397.406C397.896 917.385 398.583 916.734 399.469 916.266C400.365 915.797 401.365 915.562 402.469 915.562C405.146 915.562 406.896 916.531 407.719 918.469H407.844C408.354 917.573 409.094 916.865 410.062 916.344C411.031 915.823 412.135 915.562 413.375 915.562C415.312 915.562 416.76 916.062 417.719 917.062C418.688 918.052 419.172 919.641 419.172 921.828V933H416.578ZM257.594 977V965.922C257.594 964.526 257.276 963.484 256.641 962.797C256.005 962.109 255.01 961.766 253.656 961.766C251.865 961.766 250.552 962.25 249.719 963.219C248.885 964.188 248.469 965.786 248.469 968.016V977H245.875V959.875H247.984L248.406 962.219H248.531C249.062 961.375 249.807 960.724 250.766 960.266C251.724 959.797 252.792 959.562 253.969 959.562C256.031 959.562 257.583 960.062 258.625 961.062C259.667 962.052 260.188 963.641 260.188 965.828V977H257.594ZM267.969 959.875V970.984C267.969 972.38 268.286 973.422 268.922 974.109C269.557 974.797 270.552 975.141 271.906 975.141C273.698 975.141 275.005 974.651 275.828 973.672C276.661 972.693 277.078 971.094 277.078 968.875V959.875H279.672V977H277.531L277.156 974.703H277.016C276.484 975.547 275.745 976.193 274.797 976.641C273.859 977.089 272.786 977.312 271.578 977.312C269.495 977.312 267.932 976.818 266.891 975.828C265.859 974.839 265.344 973.255 265.344 971.078V959.875H267.969ZM307.016 977V965.859C307.016 964.495 306.724 963.474 306.141 962.797C305.557 962.109 304.651 961.766 303.422 961.766C301.807 961.766 300.615 962.229 299.844 963.156C299.073 964.083 298.688 965.51 298.688 967.438V977H296.094V965.859C296.094 964.495 295.802 963.474 295.219 962.797C294.635 962.109 293.724 961.766 292.484 961.766C290.859 961.766 289.667 962.255 288.906 963.234C288.156 964.203 287.781 965.797 287.781 968.016V977H285.188V959.875H287.297L287.719 962.219H287.844C288.333 961.385 289.021 960.734 289.906 960.266C290.802 959.797 291.802 959.562 292.906 959.562C295.583 959.562 297.333 960.531 298.156 962.469H298.281C298.792 961.573 299.531 960.865 300.5 960.344C301.469 959.823 302.573 959.562 303.812 959.562C305.75 959.562 307.198 960.062 308.156 961.062C309.125 962.052 309.609 963.641 309.609 965.828V977H307.016ZM322.938 959.594C325.188 959.594 326.932 960.365 328.172 961.906C329.422 963.438 330.047 965.609 330.047 968.422C330.047 971.234 329.417 973.422 328.156 974.984C326.906 976.536 325.167 977.312 322.938 977.312C321.823 977.312 320.802 977.109 319.875 976.703C318.958 976.286 318.188 975.651 317.562 974.797H317.375L316.828 977H314.969V952.688H317.562V958.594C317.562 959.917 317.521 961.104 317.438 962.156H317.562C318.771 960.448 320.562 959.594 322.938 959.594ZM322.562 961.766C320.792 961.766 319.516 962.276 318.734 963.297C317.953 964.307 317.562 966.016 317.562 968.422C317.562 970.828 317.964 972.552 318.766 973.594C319.568 974.625 320.854 975.141 322.625 975.141C324.219 975.141 325.406 974.562 326.188 973.406C326.969 972.24 327.359 970.568 327.359 968.391C327.359 966.161 326.969 964.5 326.188 963.406C325.406 962.312 324.198 961.766 322.562 961.766ZM341.828 977.312C339.297 977.312 337.297 976.542 335.828 975C334.37 973.458 333.641 971.318 333.641 968.578C333.641 965.818 334.318 963.625 335.672 962C337.036 960.375 338.865 959.562 341.156 959.562C343.302 959.562 345 960.271 346.25 961.688C347.5 963.094 348.125 964.953 348.125 967.266V968.906H336.328C336.38 970.917 336.885 972.443 337.844 973.484C338.812 974.526 340.172 975.047 341.922 975.047C343.766 975.047 345.589 974.661 347.391 973.891V976.203C346.474 976.599 345.604 976.88 344.781 977.047C343.969 977.224 342.984 977.312 341.828 977.312ZM341.125 961.734C339.75 961.734 338.651 962.182 337.828 963.078C337.016 963.974 336.536 965.214 336.391 966.797H345.344C345.344 965.161 344.979 963.911 344.25 963.047C343.521 962.172 342.479 961.734 341.125 961.734ZM360.375 959.562C361.135 959.562 361.818 959.625 362.422 959.75L362.062 962.156C361.354 962 360.729 961.922 360.188 961.922C358.802 961.922 357.615 962.484 356.625 963.609C355.646 964.734 355.156 966.135 355.156 967.812V977H352.562V959.875H354.703L355 963.047H355.125C355.76 961.932 356.526 961.073 357.422 960.469C358.318 959.865 359.302 959.562 360.375 959.562Z" fill="black"/>
</svg>
