<svg width="32" height="32" viewBox="0 0 32 32" fill="none" xmlns="http://www.w3.org/2000/svg">
<path d="M4.00016 5.33337C4.00016 4.60004 4.60016 4.00004 5.3335 4.00004H8.00016V1.33337H5.3335C3.12016 1.33337 1.3335 3.12004 1.3335 5.33337V8.00004H4.00016V5.33337Z" fill="black"/>
<path d="M4.00016 26.6667V24H1.3335V26.6667C1.3335 28.88 3.12016 30.6667 5.3335 30.6667H8.00016V28H5.3335C4.60016 28 4.00016 27.4 4.00016 26.6667Z" fill="black"/>
<path d="M26.6667 1.33337H24V4.00004H26.6667C27.4 4.00004 28 4.60004 28 5.33337V8.00004H30.6667V5.33337C30.6667 3.12004 28.88 1.33337 26.6667 1.33337Z" fill="black"/>
<path d="M28 26.6667C28 27.4 27.4 28 26.6667 28H24V30.6667H26.6667C28.88 30.6667 30.6667 28.88 30.6667 26.6667V24H28V26.6667Z" fill="black"/>
<path d="M25.3337 19.8267V12.1734C25.3337 11.2134 24.827 10.3334 24.0003 9.86675L17.3337 6.02675C16.9203 5.78675 16.467 5.66675 16.0003 5.66675C15.5337 5.66675 15.0803 5.78675 14.667 6.02675L8.00033 9.85341C7.17366 10.3334 6.66699 11.2134 6.66699 12.1734V19.8267C6.66699 20.7867 7.17366 21.6667 8.00033 22.1334L14.667 25.9734C15.0803 26.2134 15.5337 26.3334 16.0003 26.3334C16.467 26.3334 16.9203 26.2134 17.3337 25.9734L24.0003 22.1334C24.827 21.6667 25.3337 20.7867 25.3337 19.8267ZM14.667 22.8934L9.33366 19.8267V13.6534L14.667 16.7601V22.8934ZM16.0003 14.4534L10.7203 11.3734L16.0003 8.33341L21.2803 11.3734L16.0003 14.4534ZM22.667 19.8267L17.3337 22.8934V16.7601L22.667 13.6534V19.8267Z" fill="black"/>
</svg>
