<svg width="32" height="32" fill="none" xmlns="http://www.w3.org/2000/svg"><path d="M4 5.333C4 4.6 4.6 4 5.333 4H8V1.333H5.333c-2.213 0-4 1.787-4 4V8H4V5.333ZM4 26.667V24H1.333v2.667c0 2.213 1.787 4 4 4H8V28H5.333C4.6 28 4 27.4 4 26.667ZM26.667 1.333H24V4h2.667C27.4 4 28 4.6 28 5.333V8h2.667V5.333c0-2.213-1.787-4-4-4ZM28 26.667C28 27.4 27.4 28 26.667 28H24v2.667h2.667c2.213 0 4-1.787 4-4V24H28v2.667ZM25.334 19.827v-7.654c0-.96-.507-1.84-1.334-2.306l-6.666-3.84A2.635 2.635 0 0 0 16 5.667c-.466 0-.92.12-1.333.36L8 9.853a2.676 2.676 0 0 0-1.333 2.32v7.654c0 .96.507 1.84 1.333 2.306l6.667 3.84c.413.24.867.36 1.333.36.467 0 .92-.12 1.334-.36L24 22.133a2.639 2.639 0 0 0 1.334-2.306Zm-10.667 3.066-5.333-3.066v-6.174l5.333 3.107v6.133ZM16 14.453l-5.28-3.08L16 8.333l5.28 3.04-5.28 3.08Zm6.667 5.374-5.333 3.066V16.76l5.333-3.107v6.174Z" fill="#000"/></svg>