<svg width="72" height="68" viewBox="0 0 72 68" fill="none" xmlns="http://www.w3.org/2000/svg">
<g clip-path="url(#clip0_1157_5787)">
<path d="M12.9139 30.1082C13.2635 29.9519 13.4355 29.5673 13.4805 29.2078C13.2219 29.444 12.8948 29.7213 12.9139 30.1082Z" fill="#C7F182"/>
<path d="M44.4174 30.9174C46.8545 26.1594 47.0186 20.308 44.631 15.5124C41.8128 9.72833 35.9786 6.01002 29.869 4.76374C22.0216 3.16024 13.4647 5.24765 7.4001 10.566C3.00928 14.3779 0.0393494 20.1608 0.463143 26.1023C0.770029 31.455 3.79954 36.3305 8.07457 39.3652C8.13865 39.4143 8.1645 39.4782 8.16225 39.541C8.31401 39.9781 8.31513 40.4563 8.31176 40.9151C8.16113 42.1191 7.64403 43.2581 7.00104 44.2704C6.72563 44.6642 6.34905 44.97 6.01406 45.309C5.68469 45.6434 5.31598 45.9321 4.93153 46.1958C4.10417 46.7744 3.20038 47.2458 2.2505 47.5767C2.25949 47.5813 2.26736 47.5847 2.27635 47.587C2.88675 47.9146 3.54886 48.1417 4.21883 48.3037C8.18249 49.251 12.4834 48.2341 15.8276 45.9367C16.7764 45.3455 17.6645 44.655 18.4918 43.8984C18.5919 43.8036 18.6784 43.6964 18.7638 43.5902C18.8425 43.5012 18.9482 43.4978 19.0291 43.5412C19.0482 43.5377 19.0674 43.5377 19.0865 43.5412C19.5069 43.5902 19.9284 43.6302 20.3208 43.6564C25.0938 43.976 29.905 43.023 34.1767 40.8831C38.4832 38.7204 42.2411 35.2668 44.4174 30.9197V30.9174ZM36.9949 38.2342C36.8667 38.2273 36.7835 38.1178 36.7835 37.9934C36.7835 37.869 36.9038 37.772 37.0207 37.7788C37.1489 37.7857 37.232 37.8952 37.232 38.0196C37.232 38.144 37.1118 38.241 36.9949 38.2342ZM40.8259 34.7578C40.8169 34.8902 40.7213 34.9941 40.6438 35.0934C40.4268 35.3639 40.1997 35.6252 39.9603 35.8751C39.4409 36.4572 38.9227 37.0427 38.273 37.4809C38.0279 37.6453 37.7795 37.2823 38.0189 37.1043C38.6664 36.6718 39.1633 36.0737 39.6882 35.5042C39.9333 35.2417 40.1739 34.9724 40.3863 34.6825C40.456 34.4269 40.8427 34.4896 40.8259 34.7578ZM12.8543 8.21156C13.3523 7.81211 13.9121 7.50739 14.509 7.29054C14.7552 7.2175 15.2689 6.90479 15.3364 7.33505C15.3386 7.48684 15.206 7.60782 15.0621 7.57815C14.9857 7.60097 14.9104 7.62722 14.8429 7.65119C14.2303 7.86803 13.6401 8.15564 13.132 8.57106C12.8993 8.75025 12.6239 8.39759 12.8555 8.21156H12.8543ZM12.498 15.9209C13.6176 15.679 14.8058 15.1951 15.9243 15.7052C17.5925 16.2302 18.2029 15.4119 19.5968 14.839C20.3489 14.4738 21.2111 14.5514 21.9496 14.9143C22.6196 15.2099 23.2491 15.6094 23.9427 15.8456C24.489 15.9586 25.0837 15.9632 25.5816 15.6881C25.304 15.2122 25.5513 14.645 25.7626 14.1953C26.427 12.7151 28.4201 14.0492 26.3573 15.7338C27.4623 16.2633 28.7393 16.1218 29.8398 15.6505C30.1411 15.5032 30.4345 15.332 30.7616 15.2499C31.2382 15.1506 31.7351 15.1232 32.2173 15.1814C33.3819 15.2784 33.9136 16.4939 35.0782 16.5258C35.846 16.608 36.3249 15.8045 37.0589 15.7338C37.3737 15.6459 38.9542 16.0453 38.6754 16.495C38.6136 16.5977 38.4675 16.6399 38.3663 16.5703C36.38 15.3594 36.4766 17.4697 34.4937 16.8865C32.9154 16.3067 33.1537 15.3332 30.9561 15.6721C30.5312 15.7543 30.1759 16.0294 29.7724 16.1709C28.4999 16.6331 27.1341 16.7107 25.9234 16.0191C25.286 16.4094 24.4856 16.4528 23.7752 16.2702C22.569 15.9038 21.3662 14.7043 20.0498 15.154C18.9707 15.4975 18.0624 16.3911 16.8753 16.3204C16.3144 16.3375 15.7905 16.1286 15.2701 15.9757C14.3652 15.8011 13.4861 16.196 12.6082 16.3615C12.326 16.4277 12.208 15.9985 12.4969 15.9198L12.498 15.9209ZM11.8539 9.06638C11.9741 9.0641 12.0832 9.16567 12.0832 9.29007C12.0832 9.41447 11.9876 9.52061 11.8629 9.5229C11.7426 9.52518 11.6335 9.4236 11.6335 9.2992C11.6335 9.1748 11.7291 9.06866 11.8539 9.06638ZM8.94914 20.9061C9.83382 20.4336 10.8624 20.453 11.8359 20.3765C12.4081 20.324 12.9814 20.34 13.5018 20.6116C14.2044 20.8604 14.9587 21.0225 15.6984 20.8593C16.2953 20.752 16.863 20.4587 17.4205 20.2749C18.122 20.0775 18.8684 20.0581 19.5923 20.0433C20.269 20.0147 20.7401 20.4929 21.2493 20.8638C21.9519 21.3203 22.8107 21.35 23.6133 21.2348C24.2338 21.1629 24.8453 21.0362 25.44 20.8444C26.3 20.5294 27.0756 20.0239 27.9895 19.8858C28.4459 19.8367 28.9147 19.8629 29.3666 19.9405C29.7847 20.0375 30.1624 20.2532 30.566 20.3936C31.1978 20.6595 31.8925 20.7782 32.5512 20.5374C32.7052 20.4804 32.857 20.4085 32.9885 20.3457C33.6933 19.9246 34.4319 20.4336 35.1356 20.5842C35.5425 20.6675 35.9629 20.6287 36.3721 20.6926C36.6531 20.7543 36.933 20.8513 37.223 20.7794C37.7053 20.6493 38.1887 20.5157 38.6923 20.5785C38.8148 20.5831 38.916 20.6835 38.9137 20.8102C38.9115 20.9323 38.8081 21.0396 38.6855 21.035C38.4472 21.027 38.2078 21.0111 37.9717 21.0579C37.5603 21.1629 37.1432 21.3192 36.7127 21.2405C36.5126 21.2017 36.3193 21.1309 36.1135 21.1218C35.5155 21.1081 34.9164 21.0579 34.3577 20.825C33.953 20.6618 33.5134 20.5294 33.1189 20.7851C32.2364 21.2633 31.2326 21.1982 30.3378 20.7919C29.8949 20.6344 29.479 20.3754 29.0012 20.3457C27.9378 20.1734 26.9463 20.6481 26.0178 21.1069C25.1668 21.4619 24.263 21.6296 23.3638 21.7164C22.5712 21.8111 21.7405 21.7015 21.0503 21.2747C20.6917 21.0704 20.4197 20.7269 20.0307 20.5751C19.5541 20.4222 19.0595 20.5215 18.5784 20.5477C18.24 20.5717 17.9005 20.6013 17.5745 20.6995C15.7838 21.4196 14.8688 21.6821 13.0005 20.8992C12.6689 20.7623 12.2586 20.8113 11.9303 20.8239C10.9973 20.8981 10.0002 20.8695 9.15148 21.3078C8.93003 21.4322 8.66024 21.0784 8.94464 20.9026L8.94914 20.9061ZM8.62427 25.8821C9.3482 25.6652 10.1014 25.5694 10.8399 25.4153C11.7639 25.2829 12.652 25.6789 13.5356 25.8912C13.9133 25.9791 14.2932 25.8775 14.6709 25.8478C15.088 25.8102 15.5095 25.8376 15.9243 25.7645C16.4392 25.6641 16.8933 25.4301 17.3902 25.284C18.1737 25.1482 19.0572 24.9576 19.8295 25.227C20.1746 25.3616 20.4635 25.6002 20.7861 25.7771C21.1953 25.9905 21.6506 26.1115 22.107 26.1525C23.0591 26.164 24.0214 26.0281 24.942 25.7862C25.6794 25.5671 26.3528 25.3126 27.1003 25.1642C27.7501 24.9804 28.429 24.8949 29.0956 25.0409C29.6184 25.1528 30.1759 25.2623 30.5941 25.6207C30.9505 25.9996 31.4743 26.1092 31.9723 26.035C32.3792 25.9699 32.8052 25.8832 33.1459 25.6344C32.4838 25.0181 32.857 23.9031 33.4752 23.3986C33.9024 23.0665 34.4262 23.3884 34.5128 23.8837C34.6061 24.4977 34.2059 25.122 33.8518 25.591C34.5308 25.8912 35.2963 25.7348 35.9955 25.6287C36.4272 25.4678 36.8948 25.3011 37.3456 25.4849C37.9683 25.7063 38.6305 25.7086 39.2824 25.704C39.6365 25.7063 39.9906 25.7143 40.3447 25.7303C40.4673 25.736 40.5684 25.8353 40.5662 25.962C40.5639 26.0829 40.4605 26.1925 40.338 26.1868C39.8434 26.1628 39.3488 26.1605 38.853 26.1583C38.1954 26.1822 37.5648 26.0304 36.9375 25.8547C36.6003 25.8512 36.299 26.0373 35.9753 26.1012C35.1603 26.205 34.2587 26.3671 33.5112 25.9243C32.7445 26.5246 31.2618 26.7905 30.4716 26.1103C30.041 25.6801 29.4318 25.5636 28.8585 25.4621C28.1817 25.3285 27.5185 25.5305 26.8643 25.6869C25.9065 25.9015 25.005 26.3272 24.0259 26.4493C22.9624 26.6056 21.8406 26.7609 20.8266 26.2986C20.0768 25.9562 19.7126 25.4507 18.7987 25.5522C18.3288 25.6093 17.8466 25.6196 17.3913 25.7588C16.9045 25.9254 16.429 26.148 15.9176 26.2256C15.4893 26.2929 15.0576 26.2621 14.6428 26.3066C14.2853 26.3477 13.9279 26.4196 13.5682 26.3591C13.0499 26.2644 12.5553 26.0669 12.0405 25.9562C11.4211 25.7714 10.7871 25.8581 10.1711 26.0099C9.73602 26.0955 9.29649 26.1583 8.87045 26.2827C8.06446 26.633 8.15326 25.6401 8.62427 25.8809V25.8821ZM8.43429 44.1814C8.14764 44.2933 7.93631 43.7557 8.2297 43.6462C8.51523 43.5354 8.72769 44.0707 8.43429 44.1814ZM9.41228 41.5348C9.34708 41.981 9.30436 42.433 9.19195 42.8689C9.09527 43.1508 8.68047 43.0196 8.76253 42.7308C8.8637 42.3234 8.9053 41.8988 8.966 41.4823C8.96937 41.1285 9.04019 40.7393 8.9379 40.4015C8.77153 40.1561 9.1245 39.897 9.30324 40.1367C9.46174 40.3478 9.42464 40.6297 9.43588 40.8797C9.43813 41.0977 9.43813 41.3179 9.41228 41.5348ZM32.3185 31.8076C31.4012 31.5611 30.5683 31.0601 29.6397 30.8603C29.2395 30.7759 28.8292 30.7565 28.4234 30.7097C27.8344 30.6526 27.2498 30.5088 26.6563 30.5282C25.7975 30.5784 25.0409 31.0201 24.2147 31.205C23.4155 31.3568 22.5555 31.3454 21.7619 31.1719C21.265 30.9631 20.7614 30.7713 20.2331 30.6595C19.0943 30.3342 17.8578 30.155 16.7269 30.6081C16.048 30.9368 15.3611 31.3089 14.581 31.2141C13.9459 31.14 13.1994 31.1388 12.7105 30.6663C11.7167 30.9596 10.7073 30.6515 9.70792 30.6058C8.89855 30.6766 8.10942 30.93 7.28881 30.8626C6.99541 30.8512 6.99879 30.4095 7.29443 30.4061C8.0712 30.47 8.81762 30.2349 9.58202 30.1573C10.5488 30.1333 11.5211 30.4997 12.4834 30.2532C12.3957 29.8446 12.6104 29.4372 12.8869 29.1518C13.1118 28.959 13.4861 28.4477 13.8053 28.6691C13.9919 28.822 13.9515 29.1051 13.9223 29.3185C13.8503 29.7841 13.6199 30.252 13.1938 30.4769C13.8402 30.7382 14.5844 30.8227 15.2734 30.7222C15.831 30.6093 16.2953 30.2509 16.836 30.0877C17.4722 29.8845 18.1501 29.8583 18.8122 29.896C19.6856 30.0272 20.5579 30.2395 21.3943 30.5305C21.6764 30.6412 21.9507 30.7976 22.2599 30.8056C22.7421 30.8352 23.2266 30.882 23.7089 30.8284C24.5666 30.7428 25.304 30.2965 26.1403 30.1391C26.7575 29.9987 27.3859 30.1094 28.0008 30.1995C28.5977 30.2931 29.2069 30.2966 29.7982 30.4312C30.3041 30.5533 30.7908 30.7439 31.2742 30.9391C31.9138 31.2027 32.5984 31.5714 33.2942 31.2895C33.8867 31.0909 34.4004 30.7177 34.9793 30.4894C35.8022 30.171 36.679 29.9131 37.5659 29.9393C38.2314 29.9816 39.3105 30.1687 39.4522 30.9539C39.4623 31.3773 38.8024 31.3123 38.9654 30.9014C38.0695 30.0192 36.3631 30.4632 35.3154 30.8466C34.3352 31.1982 33.4235 32.0473 32.3196 31.8099L32.3185 31.8076Z" fill="#C7F182"/>
<path d="M59.1153 36.5257C58.9636 35.3821 56.3039 37.7822 57.3122 38.6816C58.1092 38.3791 59.0692 37.417 59.1153 36.5257Z" fill="#99CC45"/>
<path d="M33.9485 23.7478C33.9485 23.7478 33.953 23.7512 33.962 23.757C33.9575 23.7535 33.953 23.7512 33.9485 23.7478Z" fill="#C7F182"/>
<path d="M33.4808 25.3263C33.7686 24.9679 34.0294 24.5365 34.0845 24.072C34.0778 23.9499 34.0373 23.8186 33.9384 23.741C33.9238 23.7319 33.9091 23.7228 33.8934 23.7182L33.8979 23.7136C33.6169 23.7422 33.4584 24.0902 33.3538 24.3231C33.2144 24.678 33.1661 25.0535 33.482 25.3251L33.4808 25.3263Z" fill="#C7F182"/>
<path d="M51.4533 17.4628C51.8546 17.933 52.3279 18.3324 52.8787 18.6075C53.2778 18.8049 53.6746 19.0184 54.1051 19.1336C54.4749 19.2044 54.8403 19.1679 55.1989 19.1405C55.8891 19.0366 56.5917 18.9042 57.2403 18.636C58.6949 17.9136 59.8674 16.3968 59.8134 14.7032C59.7336 13.4272 59.0186 12.2106 58.0126 11.4631C57.7484 11.3307 57.4876 11.1789 57.2009 11.1036C56.9143 11.0556 56.6265 10.994 56.3466 10.9506C56.2297 10.9986 56.0971 10.9381 55.9757 10.9312C55.8003 10.9221 55.626 10.8742 55.4496 10.8627C54.9932 10.7988 54.5705 10.9769 54.1523 11.123C53.3722 11.277 52.7258 11.7598 52.193 12.3407C51.6736 12.8166 51.2442 13.385 51.0273 14.0663C50.581 15.3742 50.5855 16.3352 51.4533 17.4605V17.4628ZM56.8525 17.1021C57.609 16.8088 58.1778 16.1731 58.5521 15.4576C58.5117 15.3023 58.6511 15.1563 58.8039 15.1791C59.0861 15.2396 59.0355 15.5785 58.9029 15.7611C58.5769 16.3478 58.1306 16.8842 57.573 17.2528C57.4381 17.3304 57.2954 17.3909 57.1549 17.4582C57.0312 17.545 56.8491 17.5666 56.7659 17.4126C56.7075 17.3053 56.7446 17.1603 56.8536 17.1021H56.8525ZM55.9712 17.4434C56.0948 17.4457 56.1926 17.5507 56.1926 17.6751C56.1926 17.7995 56.0858 17.9022 55.9644 17.8999C55.8408 17.8976 55.743 17.7926 55.743 17.6682C55.743 17.5438 55.8497 17.4411 55.9712 17.4434Z" fill="#C7F182"/>
<path d="M48.154 6.16297C48.7149 6.18922 49.2511 5.97238 49.7761 5.7989C50.9497 5.39032 51.5028 4.08584 51.5297 2.90347C51.4983 2.24152 51.1296 1.67088 50.6709 1.23148C50.3179 0.856001 49.8525 0.639157 49.3579 0.525028C49.2781 0.587799 49.1545 0.57981 49.0825 0.513616C48.3305 0.301337 47.3379 0.666548 46.7949 1.21665C46.062 2.09886 45.2965 3.34172 45.8597 4.50012C46.279 5.41201 47.1861 6.01689 48.1529 6.16297H48.154ZM47.2525 1.85234C47.4357 1.6218 47.6875 1.45632 47.9449 1.32393C48.0607 1.27143 48.1855 1.20409 48.317 1.22007C48.4272 1.23833 48.5103 1.33534 48.5092 1.44947C48.5081 1.58528 48.3912 1.67658 48.2642 1.68229C48.0348 1.77245 47.8224 1.91169 47.6459 2.08516C47.4784 2.38304 47.058 2.14109 47.2525 1.85234ZM46.9006 2.4869C47.0243 2.48918 47.1221 2.59418 47.1221 2.71858C47.1221 2.84298 47.0153 2.94569 46.8939 2.94341C46.7702 2.94113 46.6724 2.83613 46.6724 2.71173C46.6724 2.58733 46.7792 2.48461 46.9006 2.4869Z" fill="#C7F182"/>
<path d="M58.569 5.76462C59.2446 6.23027 60.1978 6.04652 60.8139 5.55805C61.2849 5.08328 61.6345 4.40878 61.5873 3.72058C61.5693 2.77217 60.7048 2.15132 59.8258 2.13306C59.7122 2.14675 59.5908 2.20039 59.4964 2.11023C59.212 2.15702 58.9669 2.36816 58.7601 2.54392C58.5454 2.72995 58.3318 2.92397 58.2014 3.1819C57.727 4.10177 57.7023 5.08213 58.569 5.76462ZM60.3653 3.09173C60.489 3.09402 60.5868 3.19901 60.5868 3.32341C60.5868 3.44781 60.48 3.55053 60.3586 3.54825C60.2349 3.54597 60.1371 3.44097 60.1371 3.31657C60.1371 3.19217 60.2439 3.08945 60.3653 3.09173Z" fill="#C7F182"/>
<path d="M26.8249 14.2432C26.8249 14.2432 26.8249 14.2477 26.826 14.2512C26.8159 14.0275 26.5259 13.9476 26.3741 14.0868C26.128 14.3756 25.7739 15.1003 25.9672 15.4564C26.3528 15.163 26.7844 14.759 26.8249 14.2432Z" fill="#C7F182"/>
<path d="M56.7243 24.8287C56.6928 24.8435 56.658 24.8504 56.6209 24.847C56.4264 24.8241 56.2308 24.8184 56.0363 24.839C55.3518 24.8835 54.6391 24.9074 53.9837 25.1049C51.9648 25.6641 50.0425 26.5692 48.3676 27.8383C47.5076 28.4249 46.705 29.0902 45.9844 29.8469C45.5281 30.3662 45.0941 30.9209 44.6737 31.471C44.5973 31.5668 44.5512 31.7163 44.468 31.7962C41.9342 36.4607 37.6345 39.969 32.7029 42.0415C32.6209 42.1397 32.45 42.1637 32.3365 42.2241C31.6339 42.6031 30.9842 43.0835 30.3243 43.5343C28.4324 44.8343 27.0351 46.9148 26.7732 49.2351C26.7429 49.6368 26.7204 50.0488 26.7687 50.4471C26.7799 50.5943 26.8665 50.8077 26.8451 50.9675C29.8263 58.4543 37.8031 62.8529 45.5213 63.3219C48.5823 63.5319 51.6759 63.2055 54.6346 62.3826C54.7537 62.3484 54.8526 62.418 54.8942 62.5128C54.9223 62.5458 54.9426 62.5869 54.9549 62.6315C55.0392 62.846 55.1191 63.0617 55.2124 63.2717C55.5597 63.8218 55.9891 64.3445 56.5186 64.7246C57.4471 65.3614 58.3858 66.0005 59.4267 66.4251C59.9224 66.6431 60.4586 66.8987 60.9836 67.0026C61.7874 67.1601 62.581 67.3849 63.3982 67.4545C65.2508 67.6006 67.091 67.6017 68.8828 67.079C69.5123 66.8485 70.1272 66.5803 70.6983 66.2356C69.6326 66.1009 68.5883 65.8019 67.6283 65.3135C66.9763 64.9848 66.3311 64.639 65.8185 64.1037C65.1193 63.4726 64.4481 62.7969 63.8647 62.0528C63.4162 61.5096 62.9834 60.9423 62.6979 60.2918C62.5911 60.0327 62.2707 58.985 62.5326 58.7146C62.5461 58.6803 62.5709 58.6449 62.6068 58.6141C66.186 56.0862 69.1492 52.482 70.5904 48.2912C72.0899 44.0388 71.8258 39.1712 69.8214 35.1448C67.2495 29.8983 62.201 26.3626 56.7232 24.8287H56.7243ZM45.4336 33.6805C46.1328 33.4602 46.8568 33.3335 47.5863 33.2822C48.2878 33.1806 48.9521 33.4203 49.6333 33.5241C49.9785 33.5435 50.3449 33.5561 50.6642 33.3997C51.5342 32.917 52.3976 31.9537 53.4711 32.408C54.1118 32.6031 54.6481 33.0345 55.2641 33.2879C55.7205 33.4602 56.2016 33.5664 56.6872 33.6029C57.1166 33.6565 57.4865 33.5253 57.8394 33.2845C58.2059 33.0756 58.6196 32.9318 59.0445 32.9581C59.6796 33.0106 60.2642 33.313 60.8229 33.604C61.0106 33.7022 61.3388 33.8323 61.1578 34.0959C61.0983 34.1678 61.0083 34.2009 60.9162 34.1735C60.8004 34.113 60.6554 34.0206 60.5553 33.9761C57.9159 32.5141 58.4453 34.4246 56.2173 34.0069C55.6845 33.9156 55.1517 33.7775 54.675 33.5116C54.0545 33.1989 53.4239 32.691 52.6977 32.7595C52.0525 32.917 51.5612 33.4123 50.9958 33.7364C50.5495 34.0069 50.011 34.0206 49.5074 33.9681C48.9296 33.8802 48.3642 33.6634 47.7707 33.7261C47.3525 33.7513 46.9355 33.8003 46.5229 33.8722C46.1924 33.9396 45.8675 34.0252 45.5438 34.1222C45.4258 34.1575 45.2999 34.0742 45.2706 33.9567C45.2392 33.8323 45.3156 33.7147 45.4336 33.6794V33.6805ZM41.8803 37.9877C42.2186 37.9592 42.557 37.9306 42.8965 37.9489C43.2405 37.9523 43.5687 38.0687 43.9071 38.1121C44.3556 38.0973 44.7839 37.9044 45.238 37.9124C46.5162 37.8918 46.4746 38.7969 47.9393 38.5173C48.5935 38.3803 49.0994 37.8838 49.7053 37.6213C50.826 37.0324 52.1649 37.0952 53.3126 37.5723C54.1175 37.8507 54.7414 38.4739 55.5125 38.8117C55.934 38.9692 56.414 38.895 56.8367 38.8117C56.3747 38.0995 56.8007 37.231 57.3133 36.6775C57.6944 36.2632 58.1531 35.8398 58.732 35.777C59.4413 35.696 59.7089 36.4093 59.493 37.0016C59.2086 37.8359 58.551 38.5298 57.8035 38.9612C59.2154 39.4896 60.2338 37.6818 61.6221 37.9512C62.2516 38.0916 62.934 38.8905 62.6001 39.5456C62.4056 39.7898 62.0335 39.5045 62.2392 39.2568C62.2347 38.8071 61.8323 38.4168 61.4007 38.3757C60.8802 38.3552 60.4317 38.6839 59.9933 38.9258C59.1569 39.4702 58.1193 39.7727 57.2212 39.186C55.0415 39.8286 54.7605 38.5709 52.9697 37.9283C52.0873 37.6088 51.0958 37.5266 50.2145 37.893C48.9881 38.3997 48.4395 39.2203 46.9591 38.9875C46.4015 38.9087 46.0092 38.3871 45.4303 38.3746C45.0087 38.3369 44.6018 38.4739 44.1915 38.5469C43.6834 38.6348 43.1977 38.3655 42.6874 38.3986C42.4356 38.3986 42.1838 38.4214 41.9331 38.4419C41.8106 38.4522 41.6982 38.3689 41.6836 38.2422C41.6701 38.1224 41.7577 37.9991 41.8803 37.9888V37.9877ZM57.8619 64.9254C57.6303 65.1765 57.3707 64.7953 57.1818 64.6629C56.8165 64.3651 56.5591 63.9633 56.3163 63.5616C56.0453 63.3756 56.3399 62.9944 56.5939 63.185C56.8659 63.5331 57.0503 63.9576 57.3977 64.2464C57.5359 64.3708 57.6776 64.4917 57.8259 64.6047C57.9237 64.6789 57.9372 64.8296 57.863 64.9254H57.8619ZM62.5866 50.5236C61.6131 50.9116 60.5519 51.0976 59.5065 51.0565C58.5566 50.9858 57.6753 50.543 56.857 50.0819C56.5175 49.8445 56.1296 49.9712 55.7553 50.0111C55.3326 50.0591 54.9077 50.0716 54.4828 50.0705C54.0264 50.0659 53.5723 50.1081 53.117 50.1355C52.3357 50.1618 51.5545 50.0807 50.7721 50.1059C50.2932 50.1184 49.8391 50.2862 49.3669 50.3467C48.8251 50.414 48.2754 50.3866 47.7347 50.3204C47.149 50.2508 46.5757 50.0613 45.9844 50.0568C45.1492 50.1892 44.3061 50.3729 43.4552 50.2987C42.9617 50.2382 42.4592 50.1469 41.9635 50.2439C41.2227 50.4083 40.51 50.7587 39.7343 50.7096C39.1217 50.6868 38.5405 50.4277 38.0785 50.026C37.6839 49.711 37.4793 49.2282 37.1556 48.8561C37.0218 48.7979 36.8802 48.9452 36.752 48.984C36.2777 49.2202 35.8078 49.4645 35.3413 49.7155C34.7646 49.9929 34.2104 50.4437 33.5505 50.4551C33.3707 50.4551 33.1301 50.3626 33.1931 50.1344C33.2279 50.0123 33.3538 49.9484 33.4718 49.9803C33.8608 50.0579 34.2194 49.7749 34.5589 49.6208C34.9939 49.3823 35.4323 49.1495 35.8718 48.9189C36.1506 48.7728 36.4317 48.6325 36.7161 48.4966C36.9836 48.3414 37.3029 48.322 37.5176 48.5742C37.739 48.8276 37.8851 49.1426 38.1055 49.3994C38.5607 49.9621 39.2723 50.2999 39.9918 50.2519C40.7786 50.2211 41.4857 49.7783 42.2715 49.7475C42.9111 49.7155 43.5384 49.905 44.178 49.8502C44.5343 49.8274 44.8884 49.7726 45.2212 49.7281C45.564 49.6665 45.9069 49.5637 46.2576 49.6083C46.9208 49.687 47.5706 49.8685 48.2383 49.9141C48.9476 49.9894 49.6378 49.8422 50.3269 49.6916C51.26 49.5683 52.202 49.7178 53.1384 49.6767C53.9938 49.5877 54.8481 49.6459 55.7014 49.5558C56.1656 49.4896 56.6377 49.3903 57.0582 49.6722C57.6866 50.0203 58.3284 50.3661 59.0344 50.5224C59.8527 50.7016 60.6688 50.5681 61.4737 50.4014C61.7975 50.3284 62.1111 50.2154 62.4214 50.0979C62.536 50.0522 62.6675 50.1093 62.7136 50.2257C62.7586 50.3387 62.7024 50.4768 62.5877 50.5224L62.5866 50.5236ZM63.0778 43.7341C62.8969 43.7284 62.717 43.7386 62.5664 43.7466C61.9121 43.7831 61.2624 43.8779 60.6104 43.9304C59.9078 43.9966 59.212 43.8859 58.5128 43.8402C57.9889 43.8265 57.482 44.0045 56.9626 44.0502C56.1218 44.1974 55.3169 43.9018 54.5255 43.6576C53.9477 43.5366 53.3587 43.6896 52.7944 43.8219C52.2717 43.9475 51.7714 44.1426 51.2723 44.3389C50.0897 44.8331 48.4564 45.2588 47.4908 44.1347C46.7983 44.3458 46.0227 44.4633 45.3437 44.1426C45.0233 44.0023 44.7322 43.7991 44.4028 43.6781C44.1296 43.5743 43.8205 43.5515 43.5541 43.6873C42.6582 44.2157 41.8555 44.267 40.9529 43.7169C40.3133 43.3152 40.1008 42.9934 39.2813 43.1052C38.4944 43.168 37.7019 43.128 36.9173 43.2125C36.2113 43.2616 35.565 43.5594 34.895 43.7546C34.6342 43.806 34.4071 43.6142 34.4431 43.338C34.4498 43.071 34.8298 43.0333 34.8871 43.2912C35.4795 43.0744 36.0753 42.8564 36.7037 42.7765C37.4265 42.6795 38.183 42.7138 38.9059 42.6692C40.5808 42.4878 40.3166 42.9523 41.6206 43.5355C42.4401 43.8687 42.8987 43.4522 43.6227 43.1771C45.0829 42.9055 45.3178 44.3595 47.2401 43.7318C46.8084 42.8564 47.3491 41.625 48.2878 41.3876C48.9195 41.2723 49.7806 41.7505 49.6907 42.4798C49.5681 43.3426 48.6958 43.7386 47.9663 43.9783C49.431 45.1299 51.4072 43.5458 52.9686 43.3095C53.642 43.1474 54.3614 43.0641 55.0201 43.3255C56.3106 43.8482 57.0346 43.5423 58.3026 43.3825C59.0085 43.3746 59.7572 43.5412 60.4519 43.4807C61.1073 43.4385 61.7581 43.3346 62.4146 43.297C62.6743 43.3129 63.2914 43.1246 63.306 43.5069C63.3038 43.6291 63.2004 43.7352 63.0778 43.7318V43.7341ZM69.455 47.3291C69.6911 46.9251 69.8316 46.4834 69.9406 46.0292C70.0114 45.7073 70.1868 45.3923 70.1654 45.058C70.1497 44.9347 70.2419 44.8194 70.3622 44.8046C70.6533 44.784 70.6421 45.1447 70.6005 45.349C70.3835 46.0885 70.2419 46.8635 69.854 47.5357C69.7922 47.7023 69.6585 47.8221 69.4853 47.7251C69.3313 47.6224 69.3696 47.4638 69.4539 47.328L69.455 47.3291ZM69.1504 47.9169C69.274 47.9192 69.3718 48.0242 69.3718 48.1486C69.3718 48.273 69.265 48.3757 69.1436 48.3734C69.02 48.3711 68.9222 48.2661 68.9222 48.1417C68.9222 48.0173 69.0289 47.9146 69.1504 47.9169Z" fill="#99CC45"/>
<path d="M49.2455 42.3611C49.2343 42.1009 48.9802 41.9617 48.7678 41.8806C47.8977 41.5565 47.2502 42.9101 47.6751 43.5994C48.2833 43.3768 49.1747 43.1349 49.2455 42.3622V42.3611Z" fill="#99CC45"/>
<path d="M51.0228 23.4693C49.6839 23.41 48.3676 23.4533 47.0288 23.5903C46.9973 23.5937 46.968 23.604 46.9422 23.6211C46.8905 23.6325 46.8399 23.6474 46.7893 23.661C47.0467 17.473 43.87 11.5748 38.7462 8.06312C28.637 0.995142 13.6154 2.9125 5.29911 11.9937C-1.02296 18.7261 -2.00431 29.0091 4.07381 36.2494C5.14173 37.5482 6.38501 38.6906 7.73508 39.679C7.78566 39.8091 7.81377 39.9449 7.82838 40.0841C7.88458 40.576 7.89133 41.0759 7.7317 41.5495C7.49901 42.4523 7.09208 43.3197 6.57386 44.0912C5.75662 45.0293 4.79213 45.8316 3.7051 46.4274C3.10257 46.7595 2.45733 47.0357 1.80196 47.2445C1.75475 47.256 1.71765 47.2765 1.69067 47.3039C1.62772 47.3096 1.56927 47.345 1.51981 47.4249C1.46248 47.5401 1.51306 47.6702 1.61873 47.7319C2.20777 48.1028 2.83503 48.3641 3.49714 48.5787C7.65864 49.8079 12.299 48.8378 15.885 46.4434C16.4819 46.0462 17.0956 45.6753 17.6408 45.2039C18.1141 44.817 18.6222 44.4564 19.0213 43.9862C19.1022 44.0079 19.1966 44.0124 19.2764 44.0193C21.2212 44.2475 23.2154 44.2407 25.1972 44.0113C25.1972 44.0216 25.1972 44.0307 25.1972 44.0398C25.1331 45.8145 25.3422 47.5984 25.8143 49.308C27.7737 56.5643 34.4184 61.6133 41.4587 63.1746C45.7641 64.1721 50.3033 64.0226 54.566 62.8722C54.6829 63.1655 54.7773 63.4747 54.9628 63.7315C55.3158 64.1812 55.6575 64.6537 56.1195 64.9949C56.6917 65.399 57.2774 65.7836 57.8698 66.1579C58.7185 66.6247 59.6065 67.0401 60.5205 67.3563C61.6592 67.6119 62.8182 67.9212 63.9951 67.9429C65.6127 68.0764 67.2708 67.9771 68.8491 67.564C69.5089 67.362 70.1373 67.063 70.7455 66.7365C71.0164 66.6007 71.239 66.3782 71.5189 66.2595C71.7954 66.1408 71.6189 65.7322 71.3502 65.8361H71.348C71.1872 65.8018 70.9748 65.8292 70.8399 65.8041C70.0968 65.6945 69.3617 65.5165 68.6501 65.2746C67.9925 65.0018 67.3517 64.6777 66.7458 64.2999C65.9421 63.6711 65.2317 62.9167 64.5347 62.1657C64.0333 61.5277 63.4825 60.916 63.1385 60.1685C62.9879 59.8021 62.889 59.3958 62.889 58.9964C62.8946 58.9838 62.8991 58.9712 62.9013 58.9587C67.6654 55.5976 71.3311 50.3135 71.9168 44.3639C73.0679 32.1442 62.2314 23.8414 51.0239 23.4659L51.0228 23.4693ZM20.3207 43.6552C19.9284 43.629 19.5069 43.589 19.0865 43.5399C19.0673 43.5377 19.0482 43.5377 19.0291 43.5399C18.9471 43.4966 18.8425 43.5011 18.7638 43.589C18.6773 43.6952 18.5907 43.8024 18.4918 43.8972C17.6644 44.6538 16.7764 45.3432 15.8276 45.9355C12.4845 48.2318 8.18248 49.2498 4.21882 48.3025C3.54885 48.1405 2.88562 47.9133 2.27634 47.5858C2.26847 47.5824 2.25948 47.5789 2.25049 47.5755C3.20037 47.2457 4.10416 46.7732 4.93152 46.1946C5.31709 45.9309 5.6858 45.6422 6.01405 45.3078C6.34903 44.9688 6.72674 44.663 7.00103 44.2692C7.64515 43.2569 8.16224 42.1168 8.31175 40.9138C8.31512 40.455 8.314 39.9769 8.16224 39.5397C8.16449 39.477 8.13864 39.4131 8.07456 39.364C3.79953 36.3304 0.770019 31.4549 0.463134 26.1023C0.03934 20.1607 3.00927 14.3778 7.40121 10.566C13.4658 5.24757 22.0227 3.16016 29.8702 4.76366C35.9798 6.01109 41.8128 9.72939 44.6321 15.5123C47.0186 20.3091 46.8556 26.1593 44.4185 30.9173C42.2422 35.2645 38.4843 38.7192 34.1778 40.8807C29.9061 43.0207 25.096 43.9736 20.3219 43.6541L20.3207 43.6552ZM70.5915 48.2911C69.1503 52.4819 66.1872 56.0861 62.608 58.614C62.572 58.6448 62.5472 58.6791 62.5338 58.7145C62.2707 58.9861 62.5922 60.0326 62.699 60.2917C62.9857 60.9422 63.4173 61.5095 63.8658 62.0527C64.4481 62.7968 65.1192 63.4736 65.8196 64.1036C66.3322 64.6389 66.9774 64.9847 67.6294 65.3134C68.5894 65.8007 69.6337 66.1008 70.6994 66.2355C70.1272 66.5802 69.5134 66.8472 68.8839 67.0789C67.091 67.6005 65.2508 67.5993 63.3993 67.4544C62.5821 67.3848 61.7885 67.1588 60.9847 67.0025C60.4598 66.8986 59.9224 66.6441 59.4278 66.425C58.3869 66.0004 57.4482 65.3613 56.5197 64.7245C55.9902 64.3444 55.562 63.8228 55.2135 63.2716C55.1202 63.0616 55.0404 62.8459 54.9561 62.6313C54.9437 62.5868 54.9235 62.5457 54.8954 62.5126C54.8538 62.4179 54.7548 62.3472 54.6357 62.3825C51.677 63.2043 48.5834 63.5318 45.5224 63.3218C37.8042 62.8528 29.8274 58.4554 26.8463 50.9674C26.8676 50.8076 26.7822 50.5942 26.7698 50.447C26.7215 50.0475 26.7451 49.6355 26.7743 49.2349C27.0362 46.9147 28.4335 44.8342 30.3254 43.5342C30.9864 43.0834 31.635 42.6029 32.3376 42.224C32.4511 42.1636 32.6209 42.1407 32.7041 42.0414C37.6367 39.9689 41.9354 36.4606 44.4691 31.7961C44.5523 31.7162 44.5984 31.5667 44.6748 31.4709C45.0953 30.9219 45.528 30.3672 45.9856 29.8468C46.7061 29.0901 47.5088 28.4259 48.3687 27.8381C50.0425 26.5702 51.9659 25.664 53.9848 25.1048C54.6391 24.9073 55.3529 24.8834 56.0375 24.8389C56.2319 24.8172 56.4275 24.824 56.622 24.8468C56.658 24.8503 56.694 24.8434 56.7254 24.8286C62.2033 26.3625 67.2517 29.8982 69.8237 35.1447C71.828 39.1711 72.0922 44.0387 70.5926 48.2911H70.5915Z" fill="black"/>
<path d="M51.6208 12.278C50.916 12.9411 50.5405 13.8803 50.3663 14.8242C50.1111 15.8011 50.418 16.8134 50.9969 17.6101C51.5905 18.4078 52.4335 18.9499 53.3317 19.33C54.2085 19.7979 55.2371 19.6393 56.1645 19.427C58.3161 19.096 60.19 17.1615 60.2687 14.9189C60.272 13.74 59.7707 12.5987 58.9827 11.745C58.7331 11.4893 58.5038 11.196 58.1778 11.0385C57.799 10.8377 57.4089 10.6459 56.9784 10.6026C56.6456 10.5466 56.3354 10.4645 55.9914 10.477C55.5417 10.4097 55.0752 10.3412 54.6323 10.4816C54.2018 10.6448 53.7465 10.7441 53.316 10.9153C52.646 11.22 52.1255 11.7518 51.6219 12.278H51.6208ZM52.193 12.343C52.7258 11.7621 53.3722 11.2793 54.1523 11.1253C54.5694 10.9792 54.9932 10.8012 55.4496 10.8651C55.6272 10.8765 55.8003 10.9244 55.9757 10.9335C56.0971 10.9404 56.2297 10.9997 56.3466 10.9529C56.6254 10.9952 56.9132 11.0568 57.2009 11.1059C57.4876 11.1812 57.7484 11.3341 58.0126 11.4654C59.0187 12.2118 59.7347 13.4295 59.8134 14.7055C59.8674 16.3992 58.6949 17.9159 57.2403 18.6383C56.5917 18.9066 55.8891 19.0378 55.1989 19.1428C54.8403 19.1702 54.4749 19.2067 54.1051 19.1359C53.6746 19.0207 53.2778 18.8073 52.8787 18.6098C52.3279 18.3336 51.8546 17.9342 51.4533 17.4651C50.5855 16.3398 50.5799 15.3788 51.0273 14.0709C51.2442 13.3884 51.6736 12.8201 52.193 12.3453V12.343Z" fill="black"/>
<path d="M57.1537 17.4594C57.2942 17.3932 57.437 17.3315 57.5719 17.2539C58.1295 16.8853 58.5757 16.3489 58.9017 15.7623C59.0344 15.5785 59.085 15.2407 58.8028 15.1802C58.6499 15.1574 58.5105 15.3035 58.551 15.4587C58.1767 16.1743 57.6079 16.81 56.8513 17.1033C56.7434 17.1615 56.7052 17.3076 56.7637 17.4137C56.8468 17.5678 57.029 17.5461 57.1526 17.4594H57.1537Z" fill="black"/>
<path d="M55.9655 17.901C56.0869 17.9033 56.1937 17.8006 56.1937 17.6762C56.1937 17.5518 56.0959 17.4468 55.9723 17.4445C55.8509 17.4422 55.7441 17.5449 55.7441 17.6693C55.7441 17.7937 55.8419 17.8987 55.9655 17.901Z" fill="black"/>
<path d="M47.466 6.45969C47.9786 6.66854 48.5429 6.66169 49.0668 6.50305C49.5423 6.36154 50.0335 6.23599 50.4584 5.96779C51.4094 5.40514 51.8546 4.26614 51.9681 3.19904C52.085 2.10454 51.3656 1.13674 50.5349 0.521583C49.5029 -0.133514 48.1124 -0.184872 47.0546 0.441693C46.6151 0.684787 46.2913 1.07625 46.0227 1.49738C45.7315 1.90482 45.473 2.33851 45.3471 2.82926C44.7996 4.38369 46.0114 6.01116 47.4672 6.45854L47.466 6.45969ZM46.7949 1.21663C47.3379 0.666526 48.3305 0.301315 49.0825 0.513594C49.1556 0.579788 49.2781 0.587777 49.3579 0.525007C49.8514 0.637994 50.3168 0.855979 50.6709 1.23146C51.1295 1.672 51.4983 2.2415 51.5297 2.90344C51.5039 4.08581 50.9497 5.39144 49.7761 5.79888C49.2511 5.97236 48.7138 6.18806 48.154 6.16295C47.1861 6.01801 46.279 5.41199 45.8608 4.5001C45.2976 3.3417 46.0631 2.09884 46.7961 1.21663H46.7949Z" fill="black"/>
<path d="M47.6459 2.08517C47.8224 1.9117 48.0348 1.77132 48.2642 1.6823C48.3912 1.67659 48.507 1.58643 48.5092 1.44947C48.5115 1.33535 48.4272 1.23834 48.317 1.22008C48.1866 1.2041 48.0607 1.27029 47.9449 1.32393C47.6875 1.45746 47.4357 1.62181 47.2525 1.85235C47.058 2.13995 47.4784 2.38305 47.6459 2.08517Z" fill="black"/>
<path d="M46.895 2.94337C47.0164 2.94565 47.1232 2.84293 47.1232 2.71853C47.1232 2.59413 47.0254 2.48914 46.9017 2.48685C46.7803 2.48457 46.6735 2.58729 46.6735 2.71169C46.6735 2.83609 46.7713 2.94108 46.895 2.94337Z" fill="black"/>
<path d="M58.8084 6.38893C59.6223 6.6423 60.5879 6.40263 61.2051 5.81144C61.6131 5.36406 61.9211 4.79684 62.0223 4.19196C62.1819 3.1842 61.6053 2.12738 60.6239 1.83178C60.1192 1.67314 59.5425 1.52249 59.0434 1.78385C58.6859 1.98015 58.3802 2.25862 58.0924 2.55307C57.8248 2.83725 57.6821 3.21274 57.5595 3.58023C57.1301 4.65989 57.7045 6.02714 58.8096 6.38893H58.8084ZM58.2003 3.18306C58.3307 2.92513 58.5443 2.73111 58.759 2.54509C58.9669 2.36933 59.2109 2.15819 59.4953 2.1114C59.5897 2.20156 59.7111 2.14792 59.8246 2.13422C60.7037 2.15248 61.567 2.77334 61.5861 3.72175C61.6334 4.40994 61.2838 5.08444 60.8127 5.55922C60.1967 6.04769 59.2435 6.23029 58.5679 5.76579C57.7012 5.0833 57.7259 4.10294 58.2003 3.18306Z" fill="black"/>
<path d="M60.3586 3.54945C60.48 3.55173 60.5868 3.44901 60.5868 3.32461C60.5868 3.20021 60.489 3.09522 60.3653 3.09293C60.2439 3.09065 60.1371 3.19337 60.1371 3.31777C60.1371 3.44217 60.2349 3.54716 60.3586 3.54945Z" fill="black"/>
<path d="M12.6093 16.3626C13.4872 16.1971 14.3652 15.8022 15.2712 15.9768C15.7917 16.1298 16.3155 16.3398 16.8764 16.3215C18.0635 16.3923 18.9729 15.4986 20.051 15.1551C21.3684 14.7054 22.5701 15.9038 23.7763 16.2713C24.4868 16.455 25.2871 16.4117 25.9245 16.0202C27.1352 16.7118 28.4999 16.6342 29.7735 16.172C30.1771 16.0305 30.5323 15.7554 30.9572 15.6732C33.156 15.3343 32.9165 16.3078 34.4948 16.8876C36.4778 17.4708 36.3811 15.3605 38.3674 16.5714C38.4686 16.6411 38.6147 16.5988 38.6765 16.4961C38.9553 16.0464 37.3748 15.6459 37.0601 15.7349C36.3249 15.8056 35.8471 16.608 35.0794 16.5269C33.9148 16.495 33.3819 15.2784 32.2185 15.1825C31.7362 15.1243 31.2382 15.1517 30.7627 15.251C30.4356 15.332 30.1422 15.5043 29.8409 15.6516C28.7416 16.1229 27.4646 16.2656 26.3584 15.7349C28.4201 14.0503 26.4281 12.7162 25.7638 14.1964C25.5524 14.6461 25.3051 15.2122 25.5828 15.6892C25.0837 15.9643 24.489 15.9597 23.9438 15.8467C23.2502 15.6105 22.6207 15.211 21.9507 14.9154C21.2122 14.5525 20.3511 14.4749 19.5979 14.8401C18.204 15.413 17.5925 16.2313 15.9254 15.7063C14.8069 15.1962 13.6187 15.6801 12.4991 15.922C12.2102 16.0019 12.3283 16.4299 12.6104 16.3637L12.6093 16.3626ZM26.3753 14.0869C26.527 13.9476 26.8171 14.0275 26.8272 14.2512C26.8272 14.2489 26.8272 14.2466 26.826 14.2432C26.7856 14.7591 26.3539 15.1631 25.9683 15.4564C25.775 15.0992 26.1291 14.3756 26.3753 14.0869Z" fill="black"/>
<path d="M9.15597 21.3101C10.0047 20.8718 11.0018 20.9003 11.9348 20.8262C12.263 20.8147 12.6733 20.7645 13.005 20.9015C14.8733 21.6844 15.7883 21.4219 17.579 20.7018C17.905 20.6036 18.2445 20.5739 18.5829 20.55C19.064 20.5226 19.5586 20.4244 20.0352 20.5774C20.423 20.7291 20.6962 21.0727 21.0548 21.277C21.745 21.7038 22.5746 21.8134 23.3682 21.7186C24.2675 21.6319 25.1713 21.4641 26.0223 21.1092C26.9508 20.6504 27.9423 20.1756 29.0057 20.348C29.4835 20.3765 29.8994 20.6367 30.3423 20.7942C31.2371 21.2005 32.2409 21.2656 33.1234 20.7874C33.5179 20.5317 33.9563 20.663 34.3622 20.8273C34.9208 21.0601 35.5211 21.1103 36.118 21.124C36.3237 21.1332 36.5171 21.2051 36.7172 21.2427C37.1466 21.3203 37.5648 21.1651 37.9762 21.0601C38.2123 21.0145 38.4517 21.0293 38.69 21.0373C38.8125 21.0419 38.916 20.9346 38.9182 20.8125C38.9205 20.6858 38.8193 20.5853 38.6968 20.5808C38.1932 20.518 37.7098 20.6515 37.2275 20.7816C36.9375 20.8535 36.6576 20.7565 36.3766 20.6949C35.9674 20.6299 35.547 20.6698 35.14 20.5865C34.4363 20.4358 33.6978 19.9257 32.993 20.348C32.8614 20.4107 32.7108 20.4815 32.5557 20.5397C31.8969 20.7805 31.2011 20.6618 30.5705 20.3959C30.1669 20.2555 29.7892 20.0398 29.371 19.9428C28.9192 19.8652 28.4493 19.8401 27.994 19.888C27.0801 20.0261 26.3044 20.5317 25.4445 20.8467C24.851 21.0384 24.2383 21.1651 23.6178 21.237C22.8152 21.3523 21.9563 21.3238 21.2538 20.8661C20.7445 20.4952 20.2735 20.017 19.5968 20.0455C18.8729 20.0604 18.1265 20.0798 17.425 20.2772C16.8674 20.4609 16.2998 20.7543 15.7029 20.8615C14.9632 21.0247 14.2089 20.8615 13.5063 20.6139C12.9858 20.3423 12.4125 20.3263 11.8404 20.3788C10.8669 20.4552 9.83831 20.4358 8.95362 20.9083C8.6681 21.0829 8.93789 21.4379 9.16046 21.3135L9.15597 21.3101Z" fill="black"/>
<path d="M8.87045 26.2815C9.29649 26.1571 9.73602 26.0943 10.1711 26.0087C10.7871 25.8569 11.4211 25.7702 12.0405 25.9551C12.5553 26.0658 13.0499 26.2632 13.5682 26.358C13.9279 26.4184 14.2865 26.3454 14.6428 26.3055C15.0576 26.2598 15.4893 26.2918 15.9176 26.2244C16.429 26.1468 16.9045 25.9243 17.3913 25.7576C17.8466 25.6184 18.3288 25.6081 18.7987 25.5511C19.7126 25.4495 20.0768 25.9551 20.8266 26.2975C21.8406 26.7597 22.9624 26.6045 24.0259 26.4481C25.005 26.326 25.9065 25.9003 26.8643 25.6857C27.5185 25.5294 28.1817 25.3274 28.8585 25.4609C29.4318 25.5625 30.041 25.6789 30.4716 26.1092C31.2618 26.7882 32.7445 26.5223 33.5112 25.9231C34.2587 26.3659 35.1603 26.2027 35.9753 26.1C36.299 26.035 36.6003 25.8501 36.9375 25.8535C37.5648 26.0293 38.1954 26.1811 38.853 26.1571C39.3488 26.1582 39.8434 26.1617 40.338 26.1856C40.4605 26.1913 40.5651 26.0818 40.5662 25.9608C40.5684 25.8341 40.4661 25.7348 40.3447 25.7291C39.9906 25.712 39.6365 25.7051 39.2824 25.7029C38.6305 25.7074 37.9683 25.7051 37.3456 25.4837C36.8948 25.3 36.4272 25.4666 35.9955 25.6275C35.2963 25.7348 34.5308 25.8912 33.8518 25.5899C34.2059 25.1219 34.6072 24.4977 34.5128 23.8825C34.4262 23.3872 33.9024 23.0642 33.4752 23.3975C32.8581 23.9019 32.4837 25.0169 33.1459 25.6332C32.8052 25.8832 32.3792 25.9688 31.9723 26.0338C31.4743 26.1092 30.9493 25.9984 30.5941 25.6195C30.1748 25.26 29.6172 25.1516 29.0956 25.0398C28.429 24.8925 27.7501 24.9781 27.1003 25.163C26.3528 25.3114 25.6794 25.5648 24.942 25.785C24.0202 26.027 23.0591 26.1628 22.107 26.1514C21.6495 26.1103 21.1942 25.9893 20.7861 25.7759C20.4635 25.599 20.1746 25.3605 19.8295 25.2258C19.0572 24.9565 18.1737 25.147 17.3902 25.2829C16.8944 25.4301 16.4403 25.6629 15.9243 25.7633C15.5095 25.8364 15.0891 25.809 14.6709 25.8467C14.2932 25.8775 13.9133 25.9779 13.5356 25.89C12.652 25.6789 11.7651 25.2829 10.8399 25.4141C10.1014 25.5682 9.3482 25.6652 8.62427 25.8809C8.15326 25.6389 8.06445 26.633 8.87045 26.2826V26.2815ZM33.9608 23.757C33.9519 23.7513 33.9496 23.7501 33.9474 23.7478C33.9519 23.7513 33.9563 23.7535 33.9608 23.757ZM33.3527 24.323C33.4572 24.0902 33.6157 23.7421 33.8968 23.7136L33.8923 23.7182C33.9091 23.7227 33.9237 23.7319 33.9372 23.741C34.0362 23.8186 34.0766 23.9487 34.0834 24.072C34.0283 24.5365 33.7675 24.9679 33.4797 25.3262C33.165 25.0546 33.2122 24.6791 33.3516 24.3242L33.3527 24.323Z" fill="black"/>
<path d="M38.9654 30.898C38.8024 31.3078 39.4623 31.374 39.4522 30.9505C39.3105 30.1653 38.2314 29.977 37.5659 29.9359C36.679 29.9085 35.8022 30.1676 34.9793 30.486C34.3993 30.7154 33.8855 31.0875 33.2942 31.2861C32.5973 31.568 31.9138 31.1993 31.2742 30.9357C30.7908 30.7417 30.3041 30.5499 29.7982 30.4278C29.2069 30.2932 28.5977 30.2897 28.0008 30.1961C27.3847 30.1071 26.7563 29.9953 26.1403 30.1357C25.304 30.2932 24.5666 30.7394 23.7089 30.825C23.2266 30.8786 22.7421 30.8307 22.2599 30.8022C21.9496 30.793 21.6764 30.6378 21.3943 30.5271C20.5579 30.2372 19.6856 30.0238 18.8122 29.8926C18.1501 29.8538 17.4722 29.88 16.836 30.0843C16.2953 30.2475 15.831 30.6059 15.2734 30.7189C14.5844 30.8182 13.8413 30.7337 13.1938 30.4735C13.6199 30.2487 13.8492 29.7819 13.9223 29.3151C13.9526 29.1017 13.9919 28.8186 13.8053 28.6657C13.4861 28.4443 13.1106 28.9567 12.8869 29.1485C12.6104 29.4338 12.3946 29.8412 12.4834 30.2498C11.5211 30.4963 10.5488 30.13 9.58202 30.1539C8.81761 30.2315 8.0712 30.4666 7.29443 30.4027C6.99766 30.4061 6.99541 30.8478 7.28881 30.8592C8.10942 30.9266 8.89968 30.6744 9.70792 30.6025C10.7084 30.6492 11.7167 30.9562 12.7104 30.6629C13.1994 31.1354 13.9459 31.1366 14.581 31.2108C15.3611 31.3055 16.048 30.9323 16.7269 30.6047C17.8578 30.1516 19.0943 30.3308 20.2331 30.6561C20.7614 30.7679 21.2639 30.9597 21.7619 31.1685C22.5566 31.342 23.4155 31.3534 24.2147 31.2016C25.0398 31.0167 25.7975 30.5762 26.6563 30.5248C27.2498 30.5054 27.8344 30.6492 28.4234 30.7063C28.8292 30.7531 29.2395 30.7725 29.6397 30.857C30.5682 31.0567 31.4023 31.5566 32.3185 31.8042C33.4224 32.0416 34.3341 31.1925 35.3143 30.841C36.362 30.4575 38.0684 30.0135 38.9643 30.8958L38.9654 30.898ZM12.9139 30.1094C12.8959 29.7214 13.2219 29.4452 13.4805 29.2089C13.4355 29.5696 13.2635 29.9531 12.9139 30.1094Z" fill="black"/>
<path d="M45.5449 34.1232C45.8687 34.0262 46.1935 33.9406 46.524 33.8733C46.9366 33.8014 47.3536 33.7523 47.7718 33.7272C48.3653 33.6644 48.9308 33.8824 49.5086 33.9691C50.0122 34.0216 50.5506 34.0079 50.9969 33.7375C51.5623 33.4133 52.0536 32.918 52.6988 32.7605C53.425 32.692 54.0556 33.1999 54.6762 33.5126C55.1528 33.7774 55.6856 33.9166 56.2184 34.0079C58.4476 34.4257 57.9181 32.5151 60.5564 33.9771C60.6565 34.0216 60.8015 34.1141 60.9173 34.1746C61.0094 34.2008 61.0994 34.1677 61.159 34.097C61.3399 33.8333 61.0117 33.7032 60.824 33.6051C60.2653 33.314 59.6807 33.0116 59.0456 32.9591C58.6207 32.9329 58.207 33.0767 57.8406 33.2855C57.4876 33.5263 57.1177 33.6576 56.6883 33.6039C56.2027 33.5674 55.7216 33.4613 55.2652 33.2889C54.6492 33.0356 54.113 32.6042 53.4722 32.409C52.3987 31.9548 51.5354 32.918 50.6653 33.4008C50.346 33.5583 49.9807 33.5446 49.6345 33.5252C48.9532 33.4213 48.2889 33.1828 47.5874 33.2832C46.8579 33.3346 46.1339 33.4613 45.4347 33.6815C45.3178 33.7169 45.2414 33.8356 45.2717 33.9589C45.301 34.0764 45.428 34.1586 45.5449 34.1244V34.1232Z" fill="black"/>
<path d="M41.9331 38.4408C42.1849 38.4202 42.4356 38.3974 42.6874 38.3974C43.1977 38.3643 43.6845 38.6336 44.1915 38.5458C44.6006 38.4716 45.0087 38.3358 45.4303 38.3734C46.0092 38.386 46.4015 38.9075 46.9591 38.9863C48.4395 39.2191 48.9881 38.3985 50.2145 37.8918C51.0958 37.5266 52.0873 37.6076 52.9697 37.9272C54.7605 38.5697 55.0415 39.8274 57.2212 39.1849C58.1193 39.7715 59.1558 39.4691 59.9932 38.9247C60.4317 38.6827 60.8802 38.354 61.4007 38.3746C61.8323 38.4156 62.2347 38.8048 62.2392 39.2556C62.0346 39.5022 62.4067 39.7886 62.6001 39.5444C62.9351 38.8893 62.2516 38.0904 61.6221 37.95C60.2338 37.6807 59.2154 39.4885 57.8035 38.96C58.551 38.5286 59.2086 37.8336 59.493 37.0005C59.7088 36.4081 59.4413 35.6948 58.732 35.7759C58.1531 35.8386 57.6944 36.262 57.3133 36.6763C56.8019 37.2299 56.3747 38.0984 56.8367 38.8105C56.4129 38.895 55.934 38.968 55.5125 38.8105C54.7413 38.4739 54.1163 37.8496 53.3126 37.5711C52.1649 37.0952 50.8249 37.0313 49.7053 37.6202C49.0994 37.8827 48.5947 38.3791 47.9393 38.5161C46.4746 38.7957 46.515 37.8907 45.238 37.9112C44.785 37.9032 44.3556 38.0961 43.9071 38.1109C43.5687 38.0676 43.2405 37.9511 42.8965 37.9477C42.557 37.9306 42.2186 37.958 41.8803 37.9865C41.7577 37.9968 41.6689 38.1201 41.6836 38.2399C41.6982 38.3666 41.8117 38.4499 41.9331 38.4396V38.4408ZM59.1153 36.5257C59.0681 37.417 58.1092 38.3791 57.3122 38.6816C56.305 37.7834 58.9647 35.3833 59.1153 36.5257Z" fill="black"/>
<path d="M62.4157 43.2992C61.7604 43.3369 61.1084 43.4407 60.453 43.4829C59.7572 43.5434 59.0085 43.3768 58.3037 43.3848C57.0368 43.5446 56.3118 43.8504 55.0213 43.3277C54.3614 43.0664 53.642 43.1497 52.9697 43.3118C51.4072 43.548 49.431 45.131 47.9674 43.9805C48.6958 43.7409 49.5681 43.3449 49.6918 42.482C49.7806 41.7516 48.9207 41.2746 48.2889 41.3898C47.3491 41.6272 46.8096 42.8575 47.2412 43.734C45.319 44.3617 45.0829 42.9077 43.6238 43.1794C42.8999 43.4533 42.4412 43.8698 41.6217 43.5377C40.3177 42.9545 40.5819 42.49 38.907 42.6715C38.1842 42.716 37.4276 42.6818 36.7048 42.7788C36.0764 42.8587 35.4806 43.0766 34.8882 43.2935C34.8298 43.0356 34.451 43.0732 34.4442 43.3403C34.4082 43.6165 34.6353 43.8082 34.8961 43.7569C35.5661 43.5617 36.2125 43.2638 36.9184 43.2147C37.703 43.1314 38.4955 43.1702 39.2824 43.1075C40.1019 42.9956 40.3144 43.3186 40.954 43.7192C41.8567 44.2693 42.6593 44.2179 43.5552 43.6895C43.8216 43.5537 44.1308 43.5777 44.4039 43.6804C44.7333 43.8014 45.0244 44.0045 45.3448 44.1449C46.0238 44.4656 46.7983 44.348 47.4919 44.1369C48.4575 45.2611 50.0909 44.8354 51.2734 44.3412C51.7725 44.1449 52.2739 43.9497 52.7955 43.8242C53.3587 43.6929 53.9488 43.54 54.5266 43.6598C55.318 43.9041 56.1229 44.1997 56.9637 44.0524C57.4831 44.0068 57.9901 43.8288 58.5139 43.8424C59.2131 43.8881 59.9101 43.9988 60.6115 43.9326C61.2646 43.879 61.9144 43.7854 62.5675 43.7489C62.7181 43.7409 62.8991 43.7306 63.079 43.7363C63.2015 43.7397 63.3049 43.6336 63.3072 43.5115C63.2937 43.1303 62.6754 43.3175 62.4157 43.3015V43.2992ZM48.7678 41.8806C48.9802 41.9628 49.2343 42.1009 49.2455 42.3611C49.1736 43.1349 48.2821 43.3768 47.6751 43.5982C47.2502 42.9089 47.8977 41.5565 48.7678 41.8794V41.8806Z" fill="black"/>
<path d="M62.4202 50.0989C62.11 50.2176 61.7963 50.3295 61.4726 50.4025C60.6677 50.5691 59.8516 50.7027 59.0333 50.5235C58.3284 50.3671 57.6854 50.0213 57.057 49.6732C56.6366 49.3913 56.1645 49.4906 55.7002 49.5568C54.8459 49.647 53.9927 49.5888 53.1372 49.6778C52.2008 49.7189 51.2588 49.5694 50.3258 49.6926C49.6367 49.8433 48.9465 49.9894 48.2372 49.9152C47.5695 49.8695 46.9197 49.6881 46.2565 49.6093C45.9058 49.5648 45.5629 49.6687 45.22 49.7292C44.8884 49.7737 44.5343 49.8284 44.1769 49.8513C43.5361 49.9072 42.91 49.7177 42.2703 49.7486C41.4846 49.7805 40.7775 50.2222 39.9906 50.253C39.2712 50.3009 38.5596 49.9631 38.1043 49.4005C37.884 49.1437 37.739 48.8287 37.5164 48.5753C37.3017 48.3231 36.9825 48.3425 36.7149 48.4977C36.4305 48.6324 36.1495 48.7739 35.8707 48.92C35.4312 49.1505 34.9928 49.3833 34.5577 49.6219C34.2183 49.7759 33.8597 50.059 33.4707 49.9814C33.3527 49.9494 33.2268 50.0133 33.1919 50.1355C33.1279 50.3637 33.3695 50.455 33.5494 50.4562C34.2093 50.4436 34.7623 49.9939 35.3401 49.7166C35.8066 49.4655 36.2765 49.2213 36.7509 48.985C36.8791 48.9462 37.0218 48.799 37.1545 48.8572C37.4793 49.2293 37.6839 49.712 38.0774 50.027C38.5394 50.4288 39.1206 50.689 39.7332 50.7107C40.5077 50.7597 41.2204 50.4094 41.9623 50.245C42.4581 50.148 42.9606 50.2393 43.454 50.2998C44.3061 50.374 45.1481 50.1902 45.9833 50.0578C46.5746 50.0624 47.149 50.2519 47.7336 50.3215C48.2743 50.3865 48.824 50.4151 49.3658 50.3477C49.8379 50.2872 50.2921 50.1195 50.771 50.1069C51.5533 50.0807 52.3335 50.1617 53.1159 50.1366C53.5711 50.1092 54.0253 50.0658 54.4817 50.0715C54.9066 50.0715 55.3315 50.0613 55.7542 50.0122C56.1296 49.9722 56.5175 49.8456 56.8558 50.0829C57.6742 50.544 58.5555 50.9868 59.5054 51.0576C60.5508 51.0987 61.612 50.9127 62.5855 50.5246C62.7001 50.4801 62.7563 50.3409 62.7114 50.2279C62.6653 50.1115 62.5338 50.0544 62.4191 50.1001L62.4202 50.0989Z" fill="black"/>
<path d="M69.4865 47.7262C69.6596 47.8232 69.7933 47.7022 69.8552 47.5367C70.243 46.8645 70.3846 46.0896 70.6016 45.35C70.6432 45.1458 70.6544 44.7851 70.3633 44.8057C70.243 44.8205 70.1508 44.9358 70.1666 45.059C70.1879 45.3934 70.0126 45.7084 69.9417 46.0303C69.8327 46.4833 69.6911 46.9262 69.4561 47.3302C69.3707 47.4648 69.3336 47.6246 69.4876 47.7273L69.4865 47.7262Z" fill="black"/>
<path d="M69.1447 48.3733C69.2661 48.3756 69.3729 48.2729 69.3729 48.1485C69.3729 48.0241 69.2751 47.9191 69.1515 47.9168C69.0301 47.9145 68.9233 48.0172 68.9233 48.1416C68.9233 48.266 69.0211 48.371 69.1447 48.3733Z" fill="black"/>
<path d="M29.3002 57.5709C28.9697 57.1646 28.6707 56.7332 28.3796 56.2972C28.2391 56.0895 28.1311 55.8487 27.9221 55.7003C27.8254 55.625 27.6815 55.6433 27.6073 55.7414C27.4387 55.9822 27.7568 56.1021 27.8445 56.2949C28.3065 57.006 28.7753 57.7364 29.3935 58.3207C29.5768 58.4942 29.7645 58.6631 29.9444 58.84C30.032 58.9267 30.1737 58.9313 30.2625 58.8423C30.349 58.7567 30.3524 58.606 30.2647 58.5193C29.9421 58.2043 29.5959 57.9133 29.3002 57.5698V57.5709Z" fill="black"/>
<path d="M31.2787 60.2074C31.4029 60.2074 31.5035 60.1052 31.5035 59.9791C31.5035 59.853 31.4029 59.7509 31.2787 59.7509C31.1545 59.7509 31.0539 59.853 31.0539 59.9791C31.0539 60.1052 31.1545 60.2074 31.2787 60.2074Z" fill="black"/>
<path d="M40.3852 34.6847C40.1727 34.9746 39.9322 35.244 39.6871 35.5065C39.1633 36.076 38.6653 36.6729 38.0178 37.1066C37.7784 37.2846 38.0268 37.6475 38.2719 37.4832C38.9205 37.0449 39.4398 36.4594 39.9592 35.8774C40.1986 35.6274 40.4257 35.3661 40.6426 35.0956C40.7202 34.9963 40.8157 34.8925 40.8247 34.7601C40.8416 34.493 40.4538 34.4291 40.3852 34.6847Z" fill="black"/>
<path d="M37.0207 37.7799C36.9038 37.773 36.7835 37.87 36.7835 37.9944C36.7835 38.1188 36.8678 38.2284 36.9948 38.2353C37.1118 38.2421 37.232 38.1451 37.232 38.0207C37.232 37.8963 37.1477 37.7867 37.0207 37.7799Z" fill="black"/>
<path d="M57.8248 64.6047C57.6764 64.4917 57.5348 64.3708 57.3965 64.2464C57.0492 63.9576 56.8648 63.5331 56.5928 63.185C56.3387 62.9932 56.0442 63.3756 56.3151 63.5616C56.5591 63.9633 56.8154 64.3639 57.1807 64.6629C57.3696 64.7965 57.6292 65.1765 57.8608 64.9254C57.935 64.8296 57.9215 64.6789 57.8237 64.6047H57.8248Z" fill="black"/>
<path d="M9.30436 40.1356C9.12563 39.8959 8.77153 40.155 8.93902 40.4003C9.04244 40.7381 8.9705 41.1273 8.96713 41.4811C8.9053 41.8977 8.86483 42.3223 8.76366 42.7297C8.68047 43.0184 9.0964 43.1497 9.19307 42.8678C9.30549 42.4318 9.3482 41.9787 9.4134 41.5336C9.43926 41.3168 9.43926 41.0965 9.43701 40.8785C9.42689 40.6286 9.46286 40.3478 9.30436 40.1356Z" fill="black"/>
<path d="M8.23082 43.645C7.93743 43.7546 8.14876 44.2921 8.43541 44.1803C8.72881 44.0695 8.51635 43.5343 8.23082 43.645Z" fill="black"/>
<path d="M13.132 8.57107C13.6401 8.15564 14.2303 7.86918 14.8429 7.65119C14.9115 7.62723 14.9857 7.60098 15.0621 7.57815C15.206 7.60782 15.3386 7.48685 15.3364 7.33506C15.2689 6.90479 14.7563 7.21636 14.509 7.29055C13.9121 7.50625 13.3512 7.81211 12.8543 8.21156C12.6239 8.39759 12.8982 8.75139 13.1309 8.57107H13.132Z" fill="black"/>
<path d="M11.864 9.52174C11.9888 9.51945 12.0843 9.41331 12.0843 9.28891C12.0843 9.16451 11.9753 9.06294 11.855 9.06522C11.7302 9.06751 11.6347 9.17365 11.6347 9.29805C11.6347 9.42245 11.7437 9.52402 11.864 9.52174Z" fill="black"/>
</g>
<defs>
<clipPath id="clip0_1157_5787">
<rect width="72" height="68" fill="white"/>
</clipPath>
</defs>
</svg>
