<svg xmlns="http://www.w3.org/2000/svg" width="110" height="101" fill="none"><g clip-path="url(#a)"><path fill="#E2FFB4" d="M47.96 20.145s-.01.002-.01 0c-.005 0-.009.004-.01.006a.102.102 0 0 1 .022-.008l-.002.002ZM11.345 54.607c-.022-.612-.066-1.22-.057-1.827-.01-.02-.023-.04-.03-.066v-.039c-.96.688-1.49 1.782-2.003 2.807-.165.404-.478.744-.624 1.147-.056.801.648 1.265 1.39 1.199.593.014 1.265-.229 1.423-.859.015-.391-.165-.764-.167-1.155-.022-.398.08-.814.066-1.207h.002ZM9.737 49.04a.218.218 0 0 1-.017-.082c0-.103.054-.224.06-.32.02-.195-.082-.382-.157-.551a.249.249 0 0 1-.123-.173 1.649 1.649 0 0 0-.25-.159 4.255 4.255 0 0 0-2.364.04c-.77.345-1.743.586-2.295 1.254-.167.414.392.459.668.508.195.054.34.227.34.43.012.592-.6.938-.713 1.477.008.606.566 1.27 1.182 1.312.762-.1 1.092-.947 1.564-1.45.426-.498.846-1.005 1.301-1.478.241-.293.499-.59.808-.81l-.004.002ZM17.875 51.452c.436-.914 1.337-1.31 2.294-1.43.06-.024.192-.038.19-.114-.902-2.272-2.031-2.435-4.13-1.43-.7.468-1.304 1.05-1.97 1.557a.418.418 0 0 1-.108.206c.659 0 1.35.029 1.934.36.593.283 1.147.697 1.79.851Z"/><path fill="#A4D357" d="M14.136 74.894a.213.213 0 0 1 .05-.035.7.7 0 0 0 .187-.282c.155-.478.084-1.02-.037-1.491-.23-.704-.445-1.516.294-1.995 1.086-.76 2.58-.686 3.807-.359.618.21 1.096.671 1.596 1.071.445.307.95.519 1.397.826.4.245.756.55 1.122.838.437.305.93.585 1.183 1.073.187.364.169.787.274 1.176.088.299.197.59.313.881.352.909 1.423 1.938 2.461 1.66.59-.342.94-1.526.764-2.156a.343.343 0 0 0-.047-.045c-.744-.322-1.213-.964-1.615-1.64-.47-.65-.585-1.44-.824-2.18-.447-.868-.655-1.809-.826-2.762-.342-.97-.525-1.985-.745-2.99-.12-.748.498-1.374 1.052-1.773.667-.367 1.35-.711 2.027-1.061.882-.433 1.817-.015 2.639.352.702.286.815-.033 1.23-.521.506-.69 1.297-1.04 2.12-1.186a9.131 9.131 0 0 1 2.365-.225c2.69.28 2.657-1.697 1.965-3.667-.362-.977-.675-2.602.34-3.277.85-.367 1.852-.523 2.76-.294.764.183 1.487.527 2.278.593.124.01.22-.077.285-.167.718-1.12 1.034-.853 2.17-.604.96.064 1.964.377 2.899.223 1.322-.416.688-2.412 1.466-3.402.058-.252.107-.509.068-.76-.214-.97-.972-1.775-1.887-2.12-.963-.386-2.259.14-2.218-1.406.153-1.355 1.463-2.257 2.744-2.407 1.246-.155 2.051-.116 2.989-1.106-1.028-.96-.73-2.723-1.856-3.604-.326-.163-.717-.074-1.063-.19-1.018-.214-2.068-.243-3.098-.377-.758-.02-1.669.17-1.533-.926.126-1.055 1.156-1.835 1.17-2.9h.005c-.715-.999-2.126-.27-3.024.07-.563.247-1.164.391-1.74.608-1.1.45-2.04.286-3.03-.334-1.105-.575-1.31-1.952-1.626-3.042-.152-.447-.266-1.01-.712-1.254v-.004c-.031-.008-.062-.017-.097-.012l.006-.006a.383.383 0 0 0-.07.022c-.033.017-.066.033-.068.037-.86.721-1.325 1.823-1.708 2.848-.296.923-.434 1.687.299 2.443 1.759 1.769 1.732 2.659.79 4.913-.526 1.106-1.019 2.297-1.88 3.19-1.064.913-2.663 1.502-3.965.74-1.613-.956-.498-2.914-.22-4.29.058-.624-.25-1.217-.608-1.699-.4-.533-1.108-.797-1.357-1.444a6.275 6.275 0 0 1-.365-2.578c.035-.465.2-.873.208-1.312a.763.763 0 0 0-.57-.786c-.517-.157-.987-.45-1.281-.915-.598-.8-.863-1.886-.402-2.817.315-.616.816-1.236 1.477-1.485.554-.132 1.124.095 1.685-.023.486-.065.912-.32 1.347-.533.51-.263 1.17-.375 1.454-.93 1.269-3.506 3.028-1.294 5.448-.711.888.216 2.097.037 2.453-.925.072-.432-.164-.838-.15-1.275-.043-.552.344-.961.62-1.394.445-.737-.173-1.53-.696-2.018-.602-.521-1.135-1.127-1.413-1.882-.217-.556-.324-1.158-.612-1.685-.606-1.077-1.619-.404-2.536-.787a5.632 5.632 0 0 1-1.273-.71c-.418-.286-.805-.692-1.279-.886a.694.694 0 0 1-.338-.006c-1.742.107-3.456.585-5.198.744-1.844.185-3.739.325-5.502.912-1.504.403-2.861 1.174-4.183 1.973-.083.062-.178.146-.276.204C6.4 26.86 1.357 37.45.653 48.694.014 59.01 2.66 68.36 7.582 76.184c.704.57 1.537 1.093 2.48 1.002 1.887-.103 2.09-1.363 3.572-2.065.162-.08.331-.159.502-.225v-.002Zm32.839-32.248c.14 0 .253.13.25.266a.26.26 0 0 1-.266.249c-.14 0-.254-.13-.25-.266a.26.26 0 0 1 .266-.249Zm-3.13 3.02a3.991 3.991 0 0 1 1.85-1.8c.164-.275.59-.054.456.238-.196.32-.647.38-.908.643-.416.313-.717.743-.966 1.196-.07.122-.241.15-.357.078-.123-.078-.148-.234-.078-.356h.002ZM23.645 63.462c.367-.244.754-.468 1.172-.612.554-.218 1.215-.206 1.722-.536.146-.107.342-.183.443-.335a.26.26 0 0 1 .342-.126c.261.128.126.449-.056.585-.71.67-1.711.649-2.564 1.011-.289.138-.513.27-.762.435a.258.258 0 0 1-.359-.064.26.26 0 0 1 .064-.358h-.002ZM33.67 24.401c.395.17 1.223.535 1.168-.216-.04-.328.029-.67.251-.92.241-.281.509-.559.513-.952.002-.186.05-.41-.121-.53-.256-.218.074-.607.333-.393.447.358.338 1.032.177 1.512-.132.36-.513.572-.632.935-.04.234.027.475-.04.708-.104.408-.54.68-.955.616-.346-.048-.608-.175-.91-.293-.305-.142-.093-.601.216-.467Zm-1.806-.674c.152.324-.338.546-.472.21-.153-.323.34-.545.472-.21Zm-10.388 9.614c-.14 0-.253-.13-.25-.266a.26.26 0 0 1 .267-.25c.14 0 .253.13.249.267a.26.26 0 0 1-.266.249Zm.99 31.548c-.347-.01-.335-.64.02-.624.348.01.335.64-.02.624Zm-1.357-35.062c.186-.436.51-.788.754-1.19.058-.17.208-.336.4-.245.494.261-.494 1.139-.61 1.493-.265.573-.385 1.24-.292 1.864.07.327-.425.443-.503.113-.121-.68.012-1.409.251-2.037v.002ZM3.176 39.127c.28-.95.777-1.817 1.092-2.752-.08-.121-.02-.294.103-.358.245-.124.447.169.412.393-.149.678-.532 1.277-.775 1.922-.115.315-.23.628-.34.945a.262.262 0 0 1-.321.17.26.26 0 0 1-.17-.32Zm-.515 1.742a.26.26 0 0 1 .266-.25c.14 0 .253.13.25.266a.26.26 0 0 1-.267.25c-.14 0-.253-.13-.249-.266Zm1.355 25.217c-.348-.735-.58-1.522-.764-2.313-.099-.34-.097-.73-.278-1.035a.261.261 0 0 1 .017-.365c.546-.307.614.696.708 1.03.177.838.416 1.666.775 2.444.15.299-.301.536-.458.237v.002Zm1.034 1.6c-.14 0-.249-.14-.243-.272.009-.146.132-.243.272-.243s.25.14.243.272c-.008.147-.131.243-.272.243ZM5.7 53.24c-.773-.274-1.488-1.16-1.294-2.01.123-.447.546-.742.673-1.189-.552-.03-1.114-.374-1.028-.998.31-.944 1.47-1.178 2.266-1.582.956-.422 2.064-.472 3.07-.208.555.216.922.727 1.28 1.178.336-.004.336.49.033.55-.004.21-.24.26-.4.325-.44.186-.72.591-1.03.937-.366.381-.71.785-1.05 1.19-.7.74-1.287 2.132-2.519 1.809L5.7 53.24Zm5.995 4.368c-.597.838-1.884.906-2.762.51-.597-.315-.945-1.077-.776-1.732.138-.298.344-.566.496-.86.498-.98.97-2.013 1.75-2.807.254-.266.582-.445.827-.709.068-.144.216-.261.379-.183a.26.26 0 0 1 .142.276c.043.132.043.303.041.445.052.271 0 .566-.006.842.142.908.01 1.676.02 2.558.106.554.32 1.182-.11 1.657v.003Zm1.854-7.4c-.08-.127-.043-.325.122-.383.747-.523 1.409-1.161 2.148-1.699 1.508-.822 3.329-1.314 4.408.408.257.535 1.1 1.472.309 1.9-.933.308-1.669.21-2.196 1.238a.521.521 0 0 1-.607.28c-.95-.216-1.694-1.009-2.664-1.149-.408-.022-.811-.078-1.217-.045a.22.22 0 0 1-.155-.064c-.197-.086-.226-.288-.15-.486h.002Z"/><path fill="#E2FFB4" d="M71.276 93.08a1.734 1.734 0 0 0-.66-.38 1.883 1.883 0 0 1-.194-.05l-.161-.043c-.408-.087-.843-.115-1.23-.198-.14-.022-.28-.053-.422-.078-.983-.047-1.975.02-2.937.206-.28.078-.456.26-.688.414-1.432 1.036-3.33.85-4.987.612-1.141-.25-2.317-.429-3.39-.907-.736-.341-1.345-.937-1.654-1.692-.5-1.02-.8-2.148-.674-3.287.085-1.318 1.252-2.175 1.695-3.347.406-.918.598-1.89.664-2.883.024-1.52.183-3.17 1.338-4.283.849-.876 2.118-1.392 2.623-2.566.772-2.284-.713-2.87 2.078-4.593.902-.574 1.862-1.052 2.747-1.651.497-.371.938-.832 1.525-1.063.692-.276 1.396-.544 2.134-.663 1.085-.181 1.965.692 2.585 1.472.375.433.556 1.001.832 1.487.198.262.542.257.834.28.917-.014 1.858-.222 2.748.08 1.782.591 3.151 1.961 4.748 2.882 1.266.541 2.805-.04 3.895.957.61.451 1.155.985 1.736 1.468.783.581 1.615 1.193 2.342 1.819 1.007.95 2.435.385 3.528-.09a5.106 5.106 0 0 1 1.72-.326c1.41.068 1.934-.208 2.857-1.281.552-.618 1.24-1.083 1.84-1.65.712-.755 1.843-2.073 1.614-3.154-.519-1.555-2.14-2.21-3.631-2.474-.478-.08-.989-.305-1.475-.214-.414.14-.632.575-.929.871a5.278 5.278 0 0 1-.906.822c-.552.389-1.652.838-2.056.045-.218-.754.523-1.386 1.071-1.783 1.028-.74 2.499-1.03 3.102-2.243.35-.836-.138-1.081-.842-1.361-.643-.247-1.228-.663-1.916-.777-.519-.045-1.04.019-1.559 0-3.372-.185-3.073.184-3.712 3.19-.317 1.33-1.604 1.506-2.766 1.563-.81.035-1.65.188-2.445-.032-.647-.192-.793-.812-.67-1.41.106-.652.248-1.303.48-1.923.205-.556.47-1.085.72-1.623.206-.401.376-.846.712-1.157.593-.51 1.428-.509 2.142-.747.542-.202 1.261-.388 1.52-.952.149-.58-.729-.764-1.128-.898-.622-.206-1.292-.08-1.83.276-.168.095-.115.34-.22.492-.294.76-1.056 1.329-1.889 1.11-.317-.047-.636-.146-.957-.146-.458.068-.898.375-1.189.723-.397.762.008 1.843-.67 2.486-.405.278-.949.185-1.414.169-1.3-.068-2.39-.871-3.45-1.551-.451-.37-2.017-1.234-1.71-1.89.35-.49 1.01-.73 1.302-1.277a.75.75 0 0 0 .06-.165c-.005-.054.055-.181-.038-.192-.341-.01-.683.052-1.027.066-.573.019-1.193.019-1.698-.286-1.57-1.18 1.387-2.041 2.313-1.9.672.014 1.383 0 1.998.308.427.196.829.488 1.302.546.674-.008 1.036-1.036 1.15-1.592.08-.476.037-.987-.34-1.324-.565-.585-2.044-1.833-.497-2.187a20.337 20.337 0 0 1 4.973-.781c1.983-.084 4.055-.455 5.93.404.951.407 1.952.675 2.935.99 1.37.464 1.582.633 2.96.023.828-.352 1.718-.577 2.618-.422.595.07 1.207.191 1.798.024 1.366-.43 2.48-1.375 3.6-2.23 1.547-1.184 2.738-2.21 2.217-4.347-.194-.933-1.067-2.062-.13-2.86.465-.425 1.034-1.039.748-1.7-.408-.65-1.051-1.05-1.665-1.474-.918-.583-1.903.195-2.78.506-.849.352-1.539 1.034-2.005 1.82-.263.563-.374 1.197-.762 1.7-.364.52-.865.93-1.227 1.452-.414.628-.684 1.367-1.294 1.847-1.073.857-2.659.25-3.868.01-1.049-.346-2.144-.626-3.129-1.132-.692-.348-1.182-.96-1.788-1.42a.513.513 0 0 0-.286-.08c-.694.03-1.427.095-2.07-.216-1.07-.513-.91-1.851-.159-2.584.79-.919 2.015-1.172 3.109-1.553 1.388-.54 2.778-1.08 4.224-1.444.96-.169 1.905-.404 2.806-.778 1.279-.406 2.537-.88 3.645-1.658.38-.264.626-.67.993-.945.375-.31.935-.365 1.236-.75.212-.562.224-1.314.898-1.538 1.333-.532 2.721.276 4.082.218.565-.045 1.028-.424 1.42-.81.09-.263.055-.535.026-.817.002-.07-.01-.144-.014-.212a45.5 45.5 0 0 0-.459-1.125c-2.377-5.665-5.827-10.663-10.035-14.895a.86.86 0 0 1-.334-.004c-1.434-.268-2.876.282-4.064 1.058-.153.149-.305.295-.46.439-.327.268-.696.492-.963.824-.443.628-.7 1.34-1.142 1.968-.547.81-1.2 1.566-2.018 2.113-.904.678-2.083.795-3.049 1.339-1.213.717-2.282 1.693-3.59 2.243-1.059.42-2.208.828-3.36.61-.642-.11-1.213-.489-1.861-.553-.182-.029-.27.128-.326.274-.813 2.284-1.042 2.181-3.118 3.178-.878.515-1.912.681-2.917.568-.558-.018-1.129-.226-1.685-.136-.191.079-.309.268-.393.45-.247.636-.404 1.315-.797 1.886-.464.766-1.314.854-1.71-.023-.375-.945-.255-2.068-.272-3.046.017-.787-.053-1.553.015-2.335.06-.663.175-1.328.391-1.957.325-.832.933-1.552 1.147-2.428.396-1.699-.548-2.986.618-4.63.324-.524.795-.924 1.185-1.393.669-.87.64-2.023.655-3.06 0-.851.494-1.543.918-2.237.252-.472.381-1.05.476-1.555.132-.813-.053-1.629-.288-2.403-.332-.915-.182-1.6.593-2.214a.651.651 0 0 0 .27-.51.24.24 0 0 1-.037-.077l-.025-.358a3.118 3.118 0 0 0-.136-.36c-.253-.685-.688-1.434-.494-2.178A55.64 55.64 0 0 0 57.622.527a59.446 59.446 0 0 0-6.797.27.268.268 0 0 1-.103.132c-.587 1.161-.338 1.9.548 2.778.416.387.85.77 1.244 1.184.039.033.074.066.099.107.414.453.774.95 1.005 1.534.73 1.914.608 4.09.358 6.084-.366 2.3-1.464 4.339-.387 6.66 1.092 2.31 3.63 4.016 3.753 6.722.04 1.59-2.027 3.71-3.633 3.408-1.016-.26-1.553-1.264-2.134-2.049-.682-1.093-1.714-2.004-2.114-3.252-.366-1.124.105-2.457-.671-3.445-.202-.258-.52-.624-.882-.492-.177.103-.251.325-.313.506-.142.575-.327 1.141-.626 1.654-.26.482-.737.79-1.028 1.244-.25.496-.356 1.058-.745 1.479-.567.739-1.593.978-2.458.683-1.687-.63-1.656-4.135-1.493-5.643.173-1.1.387-2.19.577-3.288.356-1.638 1.345-3.646.008-5.073-.787-.96-1.955-1.408-2.927-2.119-.54-.418-.845-1.05-1.294-1.553-.447-.46-1.124-.556-1.728-.673-1.213-.19-2.57.052-3.575-.807a4.123 4.123 0 0 1-.608-.651 56.87 56.87 0 0 0-8.177 4.59 52.98 52.98 0 0 0-3.422 2.49c.742.987 2.06 1.281 3.2 1.466.794.095 1.595.147 2.386.064 1.008-.094 1.998-.356 3.014-.352 1.419-.117 2.255 1.304 3.487 1.734.558.258 1.156.01 1.728.155 1.09.263 1.4 1.441 1.679 2.382.173.523.445 1.022.828 1.421.434.435.906.806 1.23 1.329.411.587.436 1.392.02 1.983-.2.303-.494.587-.467.978.008.334.117.65.164.978.079.898-.784 1.61-1.604 1.757-1.597.37-3.024-.688-4.47-1.166-1.86-.486-1.347 1.905-2.789 2.402-.968.374-1.868 1.052-2.956.961-.315.002-.648-.107-.953-.029-1.551.853-1.761 2.567-.527 3.831.319.327.805.356 1.17.61.704.475.504 1.402.341 2.102-.131.855-.043 2.406.559 3.052.92.672 1.755 1.656 1.736 2.857-.066.89-.56 1.686-.632 2.578-.248 1.367 1.345 1.888 2.426 1.528 1.45-.474 2-1.277 2.655-2.568.453-.86.865-1.755 1.114-2.686.742-2.691-2.754-2.664-1.658-5.702.317-1.044.814-2.06 1.51-2.904.472-.595 1.102-.828 1.636-.154.53.692.603 1.604.879 2.407.16.453.336.925.663 1.285.493.375 1.08.684 1.691.797.72.064 1.383-.282 2.054-.482 1.05-.3 2.025-.912 3.137-.961.649.008 1.516.346 1.572 1.08-.01.755-.515 1.389-.847 2.036-.17.356-.42.745-.323 1.155.022.047.125.056.152.058.8-.027 1.61.07 2.391.18.695.02 1.37.143 2.046.285.47-.01.927.132 1.223.515.923.982.668 2.663 1.766 3.497.228.377-.37.71-.6.937-.436.362-.945.646-1.514.729-1.166.146-2.57.15-3.3 1.235-.263.359-.486.865-.286 1.29a.52.52 0 0 0 .074.098c.266.198.637.105.946.165 1.205.14 2.253.945 2.778 2.027.264.5.301 1.072.157 1.612-.076.22-.066.661-.32.723-.267.816-.142 1.755-.646 2.488-.678.988-1.986.628-2.985.515-.49-.062-.958-.089-1.435-.206-1.255-.552-.909.842-1.951.862-.964-.06-1.833-.533-2.779-.685a4.37 4.37 0 0 0-2.012.33c-.274.16-.328.495-.375.782-.146.865.245 1.664.468 2.48.387 1.21.459 2.944-.919 3.537-.824.375-1.745.132-2.616.215-1.001.133-2.165.183-2.929.92-.416.395-.702 1.071-1.345 1.11-.834.013-1.532-.68-2.373-.646-.58.016-1.056.397-1.557.648-.715.344-1.592.715-1.825 1.549-.018.426.159.836.235 1.252.117.735.37 1.43.56 2.142.126.784.303 1.559.665 2.271.254.513.297 1.092.505 1.619.29.607.651 1.194 1.102 1.695.29.317.832.364.989.803.156.513.029 1.075-.144 1.57-.618 2.01-2.557 1.387-3.59.084-.445-.6-.697-1.335-.862-2.058-.061-.319-.055-.673-.267-.937-.42-.475-1.045-.772-1.506-1.196-.604-.478-1.314-.787-1.95-1.213-.524-.41-1.004-.906-1.667-1.057-1.116-.191-2.616-.344-3.397.643-.136.517.192 1.023.256 1.53.123.737.1 1.67-.626 2.092-.313.192-.68.284-.975.511-.61.482-.669 1.345-.823 2.055-.196.816-.1 1.656-.297 2.468-.019.14-.029.278-.029.42.037.447.155.883.315 1.307.05.202.181.425.13.63 9.926 10.973 24.905 17.588 40.78 17.522 4.45.02 8.885-.478 13.202-1.456.085-.107.23-.196.324-.272.367-.373.81-.65 1.192-1.003.56-.6 1.135-1.184 1.663-1.814.327-.515.64-1.06 1.135-1.438a.222.222 0 0 1 .12-.08c.125-.136.232-.284.296-.46.07-.211.026-.459-.031-.664a.627.627 0 0 0-.02-.066h.005Zm27.177-22.955c.14 0 .253.131.247.267a.262.262 0 0 1-.268.247c-.14 0-.253-.131-.247-.267a.262.262 0 0 1 .268-.247Zm-.87 2.737c.444-.305.785-.832.94-1.347.1-.32.587-.17.49.154-.03.435-1.31 2.38-1.664 1.47a.262.262 0 0 1 .235-.28v.003ZM84.139 46.507c.14 0 .249.136.243.272-.009.146-.132.243-.272.243s-.25-.136-.243-.272c.008-.146.132-.243.272-.243Zm17.631-21.444a.26.26 0 0 1-.257.257.26.26 0 0 1-.258-.257.26.26 0 0 1 .258-.258.26.26 0 0 1 .257.258Zm-2.165-3.198c.734.541 1.249 1.456 1.735 2.222.169.288-.264.552-.441.263-.416-.71-.906-1.435-1.487-2.01-.31-.127-.12-.599.195-.477l-.002.002ZM83.31 45.958c.278.185.004.613-.28.432-.796-.53-1.428-1.363-1.393-2.354-.173-.214.082-.513.328-.393.15.062.175.239.189.379.029.317.027.65.198.933.245.395.57.743.957 1.003Zm-4.246-9.962c.161-.257.425-.05.61.058.325.156.797.354 1.083.033a1.03 1.03 0 0 0 .233-.492c-.014-.111.03-.231.134-.285a.262.262 0 0 1 .332.072c.06.073.04.174.103.246.228.309.601.601.995.628.348-.083.535-.464.673-.764.06-.15.245-.233.387-.145.122.077.147.225.225.336.227.363.663.665 1.104.57.358-.207.531-.638.725-.988.105-.206.41-.19.503.02.26.532.83.884 1.423.853a.262.262 0 0 1 .292.017c.229.187.017.51-.245.494a2.02 2.02 0 0 1-1.707-.78c-.262.438-.61.968-1.19.918-.495-.02-.959-.3-1.245-.696-.566.978-1.465.774-2.167.072-.292.612-1.042.746-1.617.472-.245-.134-.818-.262-.649-.639h-.002Zm-9.267 5.925c.235-.272.484.107.73.165.57.181 1.363-.037 1.546-.66-.166-.432.493-.588.528-.117.63.725 1.47 1.354 1.852.044.172-.311.473-.134.582.127.853 1.273 1.636.972 2.326-.232.44-.511.68.389.894.663.25.261.645.31.98.342.155.002.258.01.39-.002a.266.266 0 0 1 .261.035.262.262 0 0 1 .043.362c-.125.155-.356.117-.535.128-.71 0-1.522-.223-1.79-.956-.381.626-1.143 1.252-1.91.935-.376-.165-.681-.467-.94-.78-.6 1.095-1.644.665-2.324-.09-.499.868-1.838 1.029-2.591.4a.258.258 0 0 1-.044-.36l.002-.004Zm-7.03-14.642c.571.07.017 1.005.015 1.34-.093.47-.165.946-.16 1.426-.005.335-.512.335-.516 0-.004-.832.18-1.648.406-2.443-.025-.16.084-.325.258-.325l-.003.002Zm-.463 3.556a.26.26 0 0 1 .258.258.26.26 0 0 1-.258.257.26.26 0 0 1-.258-.257.26.26 0 0 1 .258-.258Zm-.167 37.73c.425-.259.861-.51 1.232-.844.004-.265.416-.325.496-.068.064.16-.01.324-.134.433-.424.389-.93.68-1.423.974-.39.216-.816.391-1.092.76a.26.26 0 0 1-.362.029c-.43-.468.978-1.096 1.283-1.283Zm-1.78-66.804c.14 0 .254.128.25.265a.26.26 0 0 1-.266.25c-.14 0-.253-.128-.25-.266a.26.26 0 0 1 .267-.25Zm-.4 68.722c.221-.078.345.134.39.315.111.315-.364.49-.484.175-.088-.169-.123-.41.095-.49ZM56.37 2.158c-.29-.037-.806.27-.896-.154-.002-.404.6-.311.875-.36.872-.013 1.728-.101 2.593.043.332.055.252.556-.08.508-.84-.138-1.656-.043-2.492-.037Zm-6.145 25.595c-.11.076-.284.053-.358-.064-.5-.937-1.438-1.596-1.718-2.647-.093-.16-.226-.377-.022-.517.519-.23.535.68.758.958.177.416 1.829 1.956 1.34 2.27Zm.435 1.163c-.391-.113-.268-.653.126-.515.391.114.265.653-.126.515ZM14.51 78.074c-.123.062-.29.016-.347-.113-.093-.17-.198-.418.027-.534.325-.173.636.488.32.647Zm2.23-3.301c-.146.593-.591 1.031-1.036 1.42-.235.165-.493.705-.814.419-.235-.328.282-.556.451-.785 1.007-.782 1.123-1.573.758-2.747a.258.258 0 0 1 .155-.33c.29-.094.375.243.414.46.099.508.216 1.052.07 1.563h.002Zm24.795-4.768c.266-.352.63.16.917.251.64.342 1.339.278 1.483-.535.097-.177.367-.163.455.014.5.427 1.119 1.432 1.846.828.28-.216.416-.568.677-.795.091-.051.21-.039.29.025.091.07.108.183.137.286.23.744 1.176.923 1.763.49.169-.113.32-.249.457-.4.093-.137.264-.257.429-.154.138.08.131.248.179.381.09.388.356.69.745.791.254.118.559.035.8.155.206.15.055.506-.196.457-.727-.004-1.555-.321-1.78-1.077-.772.8-2.19.834-2.766-.206-.867 1.213-1.887.797-2.708-.194-.415.843-1.498.748-2.186.313-.212-.156-.7-.292-.54-.632l-.002.002ZM39.01 58.293c.266.43.181.972.262 1.456.035.354.175 1.895-.412 1.761a.26.26 0 0 1-.17-.323c.168-.523.108-1.075.048-1.61-.053-.328 0-.693-.152-.993-.186-.28.233-.569.424-.29Zm-.79 4.187c.14 0 .252.132.246.268a.262.262 0 0 1-.267.247c-.14 0-.254-.132-.248-.268a.262.262 0 0 1 .268-.247Zm-3.482 33.632c-.14 0-.264-.097-.272-.243-.008-.134.103-.272.243-.272s.264.097.272.243c.008.134-.103.272-.243.272Zm4.709 1.747c-1.312-.384-2.653-.692-3.914-1.232-.294-.156-.064-.608.24-.455 1.243.51 2.555.84 3.849 1.192a.257.257 0 0 1 .294 0c.336.32-.148.608-.471.495h.002Zm.572-23.51c-.735.862-1.998.821-2.54-.219-.813.919-2.127.253-3.046-.146-.305-.136-.113-.603.2-.476.67.276 1.44.73 2.175.499.258-.112.383-.367.534-.581a.271.271 0 0 1 .426.058c.358 1.192 1.39 1.258 2.066.273.1-.183.364-.317.515-.113.082.107.039.241.08.362.177.36.513.73.941.725.526-.057.981-.4 1.383-.71.103-.121.29-.216.43-.095.124.105.105.284.208.404.433.622 1.201.99 1.953.908.476-.43.842.62-.266.53-.855-.032-1.705-.489-2.159-1.222-1.017.801-2.146 1.09-2.9-.204v.006Zm12.785 5.994c-.257.435-.885.352-1.306.256-.576-.165-1.064-.546-1.48-.968-1.343 1.036-2.237.848-3.434-.247-.77 1.209-1.885.558-2.731-.17-.571.567-1.512.63-2.248.394-.234-.113-.725-.183-.61-.537.052-.126.21-.198.339-.138.72.401 1.79.453 2.323-.268.126-.097.29-.052.393.053.847.629 1.562 1.41 2.276.14.155-.17.377-.078.51.068.329.256.654.55 1.019.754.64.321 1.4-.068 1.889-.502.065-.085.133-.188.253-.198a.264.264 0 0 1 .261.14c.507.57 1.277 1.213 2.09.986a.26.26 0 0 1 .364-.115.26.26 0 0 1 .092.352Z"/><path fill="#A4D357" d="M102.465 34.433a1.09 1.09 0 0 1-.311-.093c-.752-.078-1.369.01-1.557.637-.177 1.24-.731 1.165-1.64 1.724-.27.21-.455.51-.72.724-.616.521-1.358.863-2.068 1.236-.73.336-1.52.507-2.262.813-.836.342-1.716.526-2.602.692-1.417.365-2.78.898-4.144 1.424-1.279.434-3.129.831-3.37 2.407a.838.838 0 0 0 .314.67c.681.495 1.55.182 2.31.314.38.122.651.427.934.692.741.775 1.736 1.18 2.747 1.473 1.236.45 2.503.807 3.817.854 1.325.042 1.64-1.466 2.326-2.294.407-.525.894-.918 1.217-1.476.34-.651.437-1.423.958-1.973.597-.8 1.431-1.347 2.36-1.685.678-.255 1.372-.698 2.12-.51.665.154 1.184.642 1.711 1.048.476.397.977.918.903 1.587-.035.556-.369 1.034-.771 1.4-.323.28-.597.606-.445 1.04 1.271 3.141.682 4.542-2.004 6.496-1.357 1.001-2.78 2.323-4.56 2.335-.834-.028-1.677-.294-2.503-.055-.93.212-1.792.867-2.774.76-.521-.087-1.016-.29-1.518-.447-1.306-.365-2.565-.863-3.842-1.304-1.351-.379-2.772-.162-4.152-.09-1.957.072-3.978.253-5.83.912.373.816 1.401 1.215 1.527 2.156.1 1.007-.288 2.237-1.21 2.758-.452.21-.963.012-1.377-.196-.74-.467-1.566-.601-2.41-.57-.727-.027-1.485.131-2.083.556-.459.317.427.558.668.58.688.128 1.392-.136 2.07-.002.266.1.383.412.334.678-.126.762-.87 1.166-1.405 1.635.982 1.06 2.28 1.77 3.528 2.443.435.195 2.019.529 2.324.121.286-.638.113-1.382.362-2.033.36-.737 1.314-1.322 2.142-1.155.456.056 1.003.295 1.413.027.32-.227.55-.58.64-.962a.492.492 0 0 1 .13-.307c.932-.852 2.359-.735 3.395-.136 1.016.608.554 1.675-.367 2.08-.698.375-1.483.526-2.245.709-.222.062-.488.16-.657.315-.375.401-.548.941-.797 1.42-.268.578-.507 1.094-.677 1.69-.077.508-.557 1.655-.145 2.04.247.159.57.17.847.182.746-.002 1.49-.068 2.23-.138 2.717-.054 1.17-3.264 2.932-4.389.894-.546 2.012-.28 3.003-.305.564.009 1.133-.064 1.695.02.83.192 1.56.683 2.352.985 1.19.474.966 1.831.173 2.585-1.003 1.079-2.702 1.252-3.549 2.496-.523 1.003 1.086.296 1.382-.027.684-.472 1.028-1.419 1.87-1.633.777-.099 1.543.25 2.303.383 1.49.3 2.969 1.269 3.385 2.797.148.704-.212 1.396-.552 1.993-.662 1.188-1.772 2.014-2.769 2.894-.667.688-1.324 1.563-2.34 1.692-.632.08-1.277 0-1.907.116-.696.109-1.32.463-1.983.683-1.755.513-2.468-.063-3.73-1.17-.796-.609-1.632-1.173-2.355-1.873-.474-.402-.908-.8-1.46-1.067-.66-.26-1.389-.122-2.079-.237-.605-.072-1.2-.261-1.695-.626-1.03-.748-2.06-1.511-3.18-2.121-.839-.492-1.786-.618-2.736-.488-.996.1-1.977.103-2.317-1.034-.387-.86-1.04-1.641-1.883-2.082-.364-.169-.75-.107-1.118-.019-.636.182-1.277.377-1.872.672-.484.265-.86.684-1.32.986-1.055.696-2.213 1.238-3.237 1.981-.34.26-.696.56-.873.954-.294.968.085 2.047-.401 2.986-.583 1.485-2.3 1.981-3.148 3.252-.743 1.03-.72 2.327-.785 3.542-.107 1.501-.537 3.01-1.427 4.238-.325.472-.688.898-.847 1.45-.191.826-.123 1.713.15 2.514.32.9.697 1.844 1.589 2.299.779.422 1.656.572 2.505.774 1.666.356 3.825.737 5.36-.187.207-.126.4-.27.596-.412.34-.243.763-.276 1.164-.324.622-.08 1.257-.135 1.891-.133a.354.354 0 0 1 .175-.015l.181.023c.515.018 1.024.08 1.523.198.681.224 1.38.212 1.695.772.068.072.13.15.187.235.369.461.45 1.073.748 1.575.208.55.488 1.085 1 1.407.162.092.306.212.475.286a3.7 3.7 0 0 0 .53.123.44.44 0 0 1 .127 0c13.602-5.218 25.17-15.394 30.973-29.13 3.868-8.991 4.729-19.204 2.506-28.71-1.301-2.034-3.477-3.488-5.781-4.123l-.007-.008Zm-4.375 6.738c-.348-.061-.222-.673.12-.607.348.062.22.675-.12.607Zm3.724-2.145a.266.266 0 0 1-.247.177c-.403.138-.772.366-1.166.535-.29.16-.584.311-.88.465-.19.118-.452.386-.644.122-.179-.305.241-.461.441-.6.305-.152.601-.319.904-.477.412-.173.795-.424 1.224-.548.202-.076.441.103.366.323l.002.002Zm-18.37 15.196c-.732-.047-1.412.066-2.137.062-.14.057-.317.008-.368-.149-.097-.358.356-.389.605-.37.412 0 .822-.05 1.234-.066.29.037.912-.153.937.282a.26.26 0 0 1-.272.243v-.002Zm1.31.278c-.14 0-.25-.136-.244-.272.008-.146.132-.243.272-.243s.25.136.243.272c-.008.146-.132.243-.272.243Zm6.72 7.482c-.14 0-.253-.132-.247-.268a.262.262 0 0 1 .268-.247c.14 0 .253.132.247.267a.262.262 0 0 1-.268.248Zm3.364.583c-.546-.28-1.164-.305-1.757-.416-.14-.015-.253-.122-.247-.268.006-.134.127-.262.268-.247.659.11 1.355.154 1.954.465.303.144.087.606-.22.466h.002ZM56.942 85.998c-.14 0-.253-.132-.247-.267a.262.262 0 0 1 .268-.247c.14 0 .253.131.247.267a.262.262 0 0 1-.268.247Zm.952-1.441c-.052.13-.22.181-.342.123a.262.262 0 0 1-.124-.342c.089-.226.157-.459.217-.696.16-.65.245-1.248.255-1.898-.185-.365.37-.558.492-.173.066 1.005-.162 2.038-.496 2.986h-.002Zm19.32-11.867c-.072.114-.242.16-.356.079a5.555 5.555 0 0 0-1.782-.894c-.121-.03-.247-.064-.364 0-.317.107-.484-.373-.167-.488.204-.095.433-.074.643-.014.579.168 1.147.405 1.641.755.186.132.55.282.384.563h.002Zm1.049 1.203c-.192.02-.435-.039-.42-.276.012-.239.263-.26.449-.239.336.023.307.53-.029.515Zm10.32 13.792c-.14 0-.254-.132-.248-.268a.262.262 0 0 1 .268-.247c.14 0 .253.132.247.268a.262.262 0 0 1-.267.247Zm4.422-3.645c-.144.334-.513.515-.775.751-.616.493-1.188 1.028-1.783 1.527-.248.158-.688.751-.97.465-.09-.099-.091-.276.02-.365.284-.214.513-.395.766-.626.503-.403.95-.84 1.446-1.243.274-.235.593-.423.818-.699.134-.29.58-.103.478.19ZM69.278 7.039c.544 1.606.662 3.21-.156 4.753-.251.46-.608.871-.744 1.386-.214.941.015 1.928-.315 2.85-.237 1.055-1.197 1.638-1.74 2.507-.973 1.375-.124 2.782-.478 4.273-.171.795-.61 1.487-1.001 2.189-.65 1.303-.59 2.807-.569 4.22v-.025c.06.698-.261 3.437.633 3.51H64.9a.557.557 0 0 0 .132-.067c.661-.583.731-1.524 1.108-2.273.857-1.609 2.79.61 5.61-1.215.514-.266 1.052-.394 1.466-.779 1.1-1.063.508-3.208 2.698-2.27 1.516.767 3.203.196 4.632-.5 1.21-.669 2.243-1.641 3.506-2.216.64-.294 1.347-.424 1.975-.745 1.716-.88 2.594-2.593 3.494-4.197a2.45 2.45 0 0 1 .379-.42c.051-.12.183-.225.257-.328.285-.319.552-.657.777-1.015.715-1.275 1.085-2.912.457-4.288-5.771-4.58-12.538-7.943-19.71-9.895-.247.173-.502.383-.675.607-.318.418-.56.902-.734 1.395l-.028.103c.053.422-.052.823-.497 1.173-.402.326-.645.748-.472 1.263l.002.004ZM81.04 23.586c-.196-.37.305-.648.461-.255.198.36-.294.65-.461.255Zm2.228-15.161c.025.356-.607.383-.628.035-.025-.354.608-.381.628-.035Zm-.37 14.066a5.95 5.95 0 0 1 1.054-.86c.396-.195.853-.285 1.29-.339.245-.22.568.128.374.375-.107.138-.296.132-.455.15-.28.037-.552.128-.826.202-.5.11-1.755 1.79-2.08 1.227-.181-.364.468-.527.643-.755Zm-.933-15.102c.3.152.078.61-.225.463-.519-.273-.972-.624-1.501-.852a.257.257 0 0 1-.295-.171c-.056-.974 1.668.428 2.02.56Zm-11.115.566c.087.062.126.161.142.262.056.455.089.972.066 1.407-.066.298.045 1.064-.426.988-.371-.123-.056-.686-.089-.978a7.86 7.86 0 0 0-.053-1.304c-.245-.245.109-.597.362-.377l-.002.002Zm-.719 3.258a.26.26 0 0 1 .258.258.26.26 0 0 1-.258.257.26.26 0 0 1-.257-.257.26.26 0 0 1 .257-.258ZM34.557 6.761c.575.04 1.18.043 1.782.18.603.133 1.256.3 1.676.786.363.395.614.877.987 1.262.933.849 2.21 1.23 3.048 2.206 1.417 1.258 1.005 3.33.482 4.918-.267.87-.35 1.78-.53 2.669-.345 1.532-.425 3.132-.129 4.677.206.652.35 1.59 1.104 1.806.81.257 1.669-.128 2.06-.871.216-.398.288-.857.558-1.228.223-.315.534-.552.77-.857.39-.518.583-1.161.742-1.77.165-.748.85-1.193 1.54-.736 1.616 1.133.868 2.813 1.38 4.358.357.877 1.055 1.548 1.57 2.329.544.715.979 1.534 1.667 2.123 1.174 1.05 3.184-.89 3.474-2.038.577-2.322-2.306-4.638-3.338-6.562-1.401-2.38-.612-4.46-.03-6.899.32-1.69.37-3.435.126-5.138-.131-1.213-.725-2.049-1.394-2.751-1.695-1.294-2.808-3.452-5.011-3.95a59.695 59.695 0 0 0-12.775 3.53.26.26 0 0 1-.103.055c-.186.32-.336.68-.217 1.053.042.36.231.687.557.852l.004-.004Zm17.306 4.617a.26.26 0 0 1-.258-.257.26.26 0 0 1 .258-.258.26.26 0 0 1 .258.258.26.26 0 0 1-.258.257Zm-1.351-6.207c.474.256.766.735 1.054 1.172.26.447.528.91.645 1.419.177.725.233 1.47.204 2.216-.008.14-.111.257-.258.257-.135 0-.265-.117-.257-.257.029-.96-.03-1.992-.484-2.848-.307-.548-.62-1.185-1.162-1.516-.286-.171-.033-.612.26-.445l-.002.002ZM42.606 20.82a.26.26 0 0 1-.257-.258.26.26 0 0 1 .257-.257.26.26 0 0 1 .258.257.26.26 0 0 1-.258.258Zm1.117-4.064c.062.184-.048.352-.128.511-.198.4-.325.884-.416 1.295-.117.28.035.923-.398.904a.26.26 0 0 1-.22-.29c.095-.793.286-1.6.66-2.309-.05-.313.411-.418.502-.11Z"/><path fill="#000" d="M13.852 50.758c.406-.03.81.025 1.217.045.97.14 1.714.933 2.664 1.15.247.055.5-.046.607-.28.527-1.026 1.263-.931 2.196-1.238.79-.429-.052-1.366-.31-1.901-1.08-1.724-2.901-1.232-4.407-.408-.74.538-1.4 1.176-2.148 1.7-.167.057-.202.254-.122.382-.078.198-.047.4.15.486a.22.22 0 0 0 .155.064h-.002Zm.408-.723c.667-.508 1.268-1.09 1.969-1.557 2.099-1.005 3.23-.842 4.13 1.43.002.078-.13.09-.19.115-.958.12-1.858.515-2.294 1.429-.643-.154-1.197-.57-1.79-.85-.583-.332-1.275-.36-1.934-.36a.419.419 0 0 0 .109-.207ZM11.786 53.392c.004-.276.058-.57.006-.842.002-.14.002-.313-.041-.445a.257.257 0 0 0-.142-.276c-.163-.08-.311.037-.38.183-.246.264-.574.443-.825.709-.78.795-1.252 1.824-1.75 2.807-.153.292-.36.562-.497.86-.171.655.179 1.417.776 1.732.878.396 2.167.328 2.762-.51.43-.476.219-1.104.112-1.658-.01-.882.121-1.652-.021-2.558v-.002Zm-1.763 4.434c-.742.066-1.446-.398-1.39-1.199.146-.403.459-.743.624-1.147.512-1.025 1.044-2.121 2.004-2.807v.04a.213.213 0 0 0 .029.065c-.009.61.035 1.215.057 1.827.015.391-.088.81-.066 1.207.002.393.182.766.167 1.155-.158.63-.832.873-1.423.859h-.002ZM9.27 50.243c.308-.344.588-.75 1.029-.937.16-.066.398-.115.4-.325.302-.06.302-.554-.033-.55-.36-.451-.725-.962-1.282-1.178-1.005-.264-2.113-.216-3.069.208-.795.404-1.956.638-2.265 1.581-.087.624.475.968 1.027 1-.125.444-.55.74-.673 1.188-.194.848.521 1.734 1.293 2.01 1.232.325 1.82-1.07 2.52-1.809.34-.405.683-.809 1.05-1.19l.002.002Zm-3.204 2.533c-.616-.041-1.174-.708-1.182-1.312.113-.54.725-.887.713-1.476a.448.448 0 0 0-.34-.43c-.276-.05-.835-.095-.668-.51.552-.667 1.525-.908 2.295-1.254a4.274 4.274 0 0 1 2.364-.039c.09.046.171.1.25.159.01.064.047.125.123.173.077.169.177.354.157.552-.006.095-.062.216-.06.319 0 .029.008.056.017.082-.31.22-.565.517-.808.81-.455.473-.873.978-1.302 1.478-.473.503-.8 1.347-1.563 1.45l.004-.002Z"/><path fill="#000" d="M108.727 38.325a46.254 46.254 0 0 0-1.909-6.05c-.011-.033-.021-.064-.037-.093-3.086-7.803-8.268-14.76-15.029-20.182-.018-.025-.04-.047-.061-.07a.3.3 0 0 0-.073-.037c-5.093-4.061-11.077-7.253-17.726-9.29a57.914 57.914 0 0 0-2.097-.61l-.026-.016a.312.312 0 0 0-.118-.023C63.671-.177 55.255-.544 47.103.75a.257.257 0 0 0-.128.02c-7.71 1.24-15.18 3.962-21.821 8.081C7.732 19.362-3.277 40.218.877 60.552c4.198 22.722 25.44 38.596 47.915 40.115 24.048 2.058 49.064-11.549 57.931-34.447 3.644-9.426 4.119-18.916 2.062-27.652.014-.08-.015-.162-.06-.245l.002.002ZM70.247 4.603l.028-.103c.173-.495.416-.979.733-1.395.174-.226.429-.434.676-.607 7.17 1.952 13.937 5.315 19.71 9.895.628 1.374.257 3.011-.457 4.288a7.798 7.798 0 0 1-.777 1.015c-.076.103-.208.21-.257.328-.14.125-.27.263-.38.42-.9 1.604-1.777 3.318-3.493 4.197-.628.321-1.334.449-1.975.745-1.263.575-2.295 1.547-3.506 2.216-1.427.694-3.114 1.265-4.632.5-2.19-.94-1.596 1.208-2.698 2.27-.414.387-.952.513-1.467.779-2.82 1.824-4.752-.394-5.609 1.215-.377.75-.447 1.69-1.108 2.273a.393.393 0 0 1-.132.064h.006c-.891-.07-.572-2.809-.632-3.507v.025c-.023-1.413-.08-2.916.569-4.22.389-.702.83-1.394 1-2.19.355-1.49-.494-2.897.479-4.272.543-.87 1.501-1.452 1.74-2.507.33-.922.101-1.909.315-2.85.136-.515.493-.927.744-1.386.82-1.542.7-3.147.156-4.753-.173-.515.07-.937.472-1.262.445-.35.55-.75.496-1.174l-.002-.004Zm-36.03.255a.237.237 0 0 0 .103-.056 59.935 59.935 0 0 1 12.774-3.53c2.204.499 3.317 2.66 5.012 3.95.67.703 1.26 1.537 1.394 2.752a15.762 15.762 0 0 1-.125 5.138c-.583 2.438-1.372 4.518.029 6.9 1.03 1.923 3.915 4.24 3.338 6.56-.29 1.15-2.3 3.09-3.474 2.04-.688-.59-1.125-1.41-1.667-2.124-.515-.78-1.213-1.452-1.57-2.33-.512-1.544.236-3.224-1.38-4.357-.69-.457-1.375-.012-1.54.735-.159.61-.352 1.252-.741 1.771-.237.303-.548.542-.77.857-.27.37-.345.83-.56 1.227-.39.744-1.25 1.129-2.059.872-.754-.217-.898-1.152-1.104-1.807-.297-1.544-.216-3.144.13-4.676.18-.89.262-1.798.53-2.67.52-1.587.934-3.659-.483-4.917-.838-.976-2.115-1.357-3.048-2.206-.373-.385-.624-.867-.987-1.262-.422-.486-1.073-.655-1.676-.787-.602-.136-1.208-.14-1.782-.18-.326-.162-.515-.491-.556-.852-.12-.372.03-.73.216-1.052l-.004.004Zm13.74 15.287s-.014.004-.022.008l.01-.006h.01l.003-.002ZM7.583 76.181C2.662 68.36.014 59.008.652 48.694c.705-11.244 5.75-21.833 13.358-30.048.1-.058.194-.142.277-.204 1.322-.8 2.68-1.57 4.183-1.973 1.763-.59 3.66-.73 5.502-.912 1.742-.159 3.456-.635 5.198-.744a.695.695 0 0 0 .338.006c.474.196.861.6 1.28.886.393.284.82.533 1.272.71.917.383 1.932-.29 2.536.787.29.527.395 1.129.612 1.685.278.755.813 1.36 1.413 1.882.523.488 1.14 1.283.696 2.018-.276.433-.663.843-.62 1.394-.015.435.224.843.15 1.275-.354.964-1.565 1.143-2.453.925-2.422-.585-4.18-2.797-5.448.71-.284.556-.944.668-1.454.931-.435.212-.861.466-1.347.534-.563.117-1.131-.112-1.685.022-.662.25-1.162.87-1.477 1.485-.462.93-.196 2.016.401 2.817.295.466.765.758 1.282.915a.765.765 0 0 1 .57.786c-.008.439-.173.847-.208 1.312a6.27 6.27 0 0 0 .365 2.578c.249.647.958.91 1.357 1.444.36.48.666 1.075.608 1.7-.276 1.375-1.39 3.331.22 4.289 1.304.762 2.902.173 3.965-.74.861-.893 1.354-2.084 1.88-3.19.944-2.255.969-3.144-.79-4.913-.731-.756-.595-1.518-.299-2.443.383-1.025.849-2.125 1.708-2.848a.418.418 0 0 1 .138-.06l-.006.007a.272.272 0 0 1 .099.012v.004c.446.245.558.81.71 1.254.315 1.09.521 2.468 1.625 3.042.989.62 1.93.785 3.03.334.575-.216 1.176-.36 1.74-.608.899-.34 2.31-1.069 3.024-.07h-.004c-.014 1.063-1.044 1.845-1.17 2.9-.136 1.095.773.908 1.533.926 1.03.132 2.082.163 3.098.377.344.118.737.03 1.063.19 1.124.881.828 2.642 1.855 3.604-.937.99-1.742.951-2.988 1.106-1.282.15-2.59 1.052-2.744 2.407-.041 1.547 1.255 1.022 2.218 1.407.915.342 1.673 1.147 1.887 2.119.037.251-.01.509-.068.76-.778.988-.144 2.986-1.466 3.402-.935.154-1.939-.159-2.898-.223-1.14-.249-1.453-.518-2.171.604-.066.092-.161.177-.285.167-.79-.066-1.514-.41-2.278-.593-.908-.229-1.91-.072-2.76.294-1.015.674-.702 2.3-.34 3.277.692 1.97.725 3.95-1.965 3.667a9.14 9.14 0 0 0-2.364.225c-.824.146-1.615.496-2.122 1.186-.416.488-.527.807-1.23.521-.822-.369-1.757-.785-2.638-.352-.676.35-1.358.694-2.027 1.06-.554.4-1.172 1.024-1.053 1.774.22 1.003.404 2.018.746 2.99.171.953.38 1.894.826 2.761.239.742.354 1.53.824 2.181.402.676.871 1.319 1.615 1.64 0 0 .024.02.047.045.177.632-.175 1.816-.764 2.156-1.038.278-2.11-.752-2.461-1.66-.116-.29-.225-.58-.314-.881-.105-.39-.086-.813-.274-1.176-.253-.49-.745-.77-1.182-1.073-.366-.288-.723-.593-1.122-.838-.45-.307-.952-.52-1.397-.826-.5-.401-.978-.863-1.596-1.07-1.228-.328-2.721-.402-3.807.358-.741.48-.525 1.29-.294 1.995.121.472.191 1.013.037 1.491a.714.714 0 0 1-.188.282.272.272 0 0 0-.049.035c-.17.066-.338.144-.503.225-1.48.702-1.684 1.964-3.571 2.065-.942.09-1.776-.432-2.48-1.003l.004-.006ZM71.328 93.81c-.064.177-.171.325-.297.459a.221.221 0 0 0-.12.08c-.496.377-.807.92-1.134 1.438-.526.63-1.102 1.215-1.662 1.814-.386.35-.828.628-1.193 1.003-.095.076-.24.165-.323.272a58.576 58.576 0 0 1-13.204 1.456c-15.874.066-30.853-6.55-40.779-17.522.052-.206-.08-.43-.13-.63a5.007 5.007 0 0 1-.315-1.308c0-.14.008-.28.029-.42.198-.813.099-1.651.297-2.467.154-.71.214-1.573.823-2.055.295-.229.66-.32.975-.51.727-.42.75-1.354.626-2.093-.064-.507-.391-1.013-.255-1.53.78-.989 2.28-.834 3.396-.643.661.15 1.141.647 1.666 1.057.637.426 1.348.733 1.951 1.213.46.424 1.086.72 1.506 1.196.214.266.206.62.268.937.164.723.416 1.458.86 2.058 1.035 1.303 2.973 1.923 3.59-.085.174-.494.301-1.056.145-1.57-.155-.436-.698-.485-.989-.802a7.155 7.155 0 0 1-1.102-1.695c-.208-.527-.251-1.106-.505-1.619-.362-.712-.54-1.487-.665-2.271-.19-.713-.443-1.41-.56-2.142-.074-.416-.251-.826-.235-1.252.235-.834 1.11-1.205 1.825-1.549.5-.251.976-.632 1.557-.649.84-.03 1.537.661 2.373.647.643-.04.927-.715 1.345-1.11.764-.737 1.93-.787 2.93-.92.87-.083 1.791.162 2.615-.215 1.378-.59 1.306-2.327.919-3.538-.223-.815-.614-1.614-.468-2.48.047-.286.101-.623.375-.782a4.347 4.347 0 0 1 2.012-.33c.946.153 1.815.627 2.78.686 1.041-.018.695-1.414 1.95-.862.477.117.945.146 1.435.205 1.001.114 2.307.474 2.985-.514.505-.734.379-1.673.647-2.488.253-.062.243-.5.319-.723.144-.54.107-1.112-.157-1.613-.525-1.08-1.573-1.886-2.778-2.026-.31-.06-.68.03-.946-.165a.456.456 0 0 1-.074-.099c-.2-.424.023-.93.286-1.289.728-1.085 2.132-1.09 3.3-1.235.569-.08 1.078-.367 1.514-.73.23-.228.828-.56.6-.936-1.098-.834-.843-2.517-1.766-3.497-.296-.383-.754-.526-1.223-.515-.676-.142-1.35-.264-2.046-.284-.78-.114-1.594-.208-2.39-.182-.028 0-.13-.01-.153-.057-.097-.408.152-.8.323-1.156.334-.646.836-1.28.847-2.034-.058-.735-.923-1.073-1.572-1.081-1.112.049-2.087.66-3.137.961-.672.2-1.335.546-2.054.482-.613-.113-1.198-.422-1.69-.797-.328-.36-.503-.832-.664-1.285-.276-.803-.346-1.715-.88-2.407-.533-.674-1.163-.441-1.635.154-.696.845-1.193 1.86-1.51 2.904-1.096 3.038 2.402 3.01 1.658 5.702-.249.933-.66 1.825-1.114 2.686-.655 1.291-1.203 2.094-2.655 2.568-1.081.36-2.674-.16-2.426-1.528.072-.892.566-1.689.632-2.579.018-1.2-.816-2.185-1.736-2.856-.602-.649-.692-2.197-.559-3.052.165-.7.365-1.627-.341-2.103-.365-.253-.851-.284-1.17-.61-1.232-1.264-1.024-2.977.527-3.83.305-.078.638.031.953.03 1.088.09 1.988-.586 2.956-.963 1.442-.496.93-2.887 2.79-2.4 1.445.477 2.873 1.535 4.469 1.165.82-.146 1.683-.861 1.604-1.757-.045-.327-.156-.646-.164-.978-.027-.393.265-.676.467-.978.416-.591.392-1.397-.02-1.984-.324-.523-.795-.895-1.23-1.328a3.747 3.747 0 0 1-.828-1.42c-.278-.942-.591-2.12-1.679-2.383-.572-.147-1.17.102-1.728-.155-1.232-.43-2.068-1.851-3.487-1.734-1.016-.004-2.006.257-3.014.352-.79.082-1.59.031-2.387-.064-1.139-.187-2.457-.482-3.199-1.466a53.112 53.112 0 0 1 3.422-2.49 56.88 56.88 0 0 1 8.177-4.59c.18.233.379.46.608.65 1.007.86 2.362.618 3.575.808.604.117 1.282.214 1.728.673.45.503.754 1.133 1.294 1.553.972.71 2.14 1.16 2.927 2.12 1.337 1.426.348 3.434-.008 5.072-.19 1.097-.404 2.189-.577 3.288-.163 1.508-.194 5.013 1.493 5.643.865.297 1.891.058 2.458-.684.389-.42.496-.984.745-1.478.29-.455.768-.764 1.028-1.244.3-.513.484-1.081.626-1.654.06-.181.136-.404.313-.506.363-.132.68.234.882.492.776.988.305 2.319.671 3.445.398 1.25 1.432 2.158 2.114 3.252.58.785 1.118 1.79 2.134 2.049 1.606.303 3.67-1.818 3.633-3.408-.126-2.706-2.661-4.412-3.753-6.722-1.077-2.321.02-4.362.387-6.66.25-1.994.371-4.17-.358-6.084-.23-.585-.591-1.08-1.005-1.534-.025-.041-.062-.074-.099-.107-.394-.416-.828-.8-1.244-1.184-.886-.878-1.135-1.617-.548-2.778a.26.26 0 0 0 .103-.132 58.98 58.98 0 0 1 6.797-.27A55.64 55.64 0 0 1 69.052 1.85c-.194.744.243 1.493.494 2.177.05.113.099.235.136.36l.025.359c.008.029.02.053.037.074a.651.651 0 0 1-.27.51c-.777.614-.925 1.3-.593 2.215.234.776.42 1.591.288 2.403-.095.504-.224 1.083-.476 1.555-.424.692-.918 1.386-.918 2.236-.017 1.038.012 2.19-.655 3.06-.39.472-.863.872-1.185 1.395-1.168 1.643-.224 2.93-.618 4.63-.214.874-.821 1.597-1.147 2.427-.216.628-.332 1.294-.391 1.957-.07.78 0 1.548-.015 2.335.017.978-.105 2.1.272 3.046.398.875 1.246.786 1.71.023.393-.571.55-1.25.797-1.887.082-.183.202-.37.393-.449.556-.09 1.125.116 1.685.136 1.005.113 2.04-.053 2.917-.568 2.076-.997 2.305-.894 3.118-3.178.056-.146.144-.303.326-.274.649.062 1.22.443 1.862.552 1.151.216 2.303-.192 3.36-.61 1.307-.55 2.376-1.526 3.59-2.242.966-.544 2.144-.66 3.048-1.339.818-.548 1.469-1.303 2.019-2.113.44-.628.698-1.34 1.14-1.969.268-.331.637-.556.965-.823.156-.145.309-.29.459-.439 1.188-.776 2.63-1.328 4.064-1.059.097.021.222.025.334.005 4.208 4.232 7.658 9.23 10.035 14.895.158.373.311.748.459 1.125.006.068.019.142.014.212.029.28.064.552-.026.817-.394.386-.855.767-1.419.81-1.364.06-2.752-.75-4.083-.219-.673.225-.686.979-.898 1.539-.303.385-.863.44-1.236.75-.367.275-.612.681-.993.945-1.108.778-2.364 1.254-3.645 1.657-.903.375-1.846.61-2.806.779-1.446.364-2.836.904-4.224 1.444-1.094.379-2.32.634-3.109 1.552-.751.734-.91 2.072.159 2.585.643.313 1.376.247 2.07.216.117 0 .171.023.286.08.606.46 1.096 1.071 1.788 1.42.985.508 2.079.786 3.129 1.132 1.21.239 2.795.846 3.868-.01.61-.48.88-1.221 1.294-1.847.364-.522.865-.933 1.227-1.452.388-.505.497-1.137.763-1.7.463-.786 1.153-1.466 2.004-1.82.879-.309 1.862-1.09 2.78-.507.614.425 1.259.824 1.665 1.475.284.663-.283 1.275-.748 1.699-.937.799-.064 1.928.13 2.86.521 2.138-.67 3.166-2.217 4.348-1.118.857-2.232 1.802-3.6 2.23-.591.165-1.203.044-1.798-.025-.9-.154-1.792.07-2.618.423-1.378.61-1.59.44-2.96-.023-.985-.317-1.984-.583-2.935-.99-1.877-.86-3.947-.489-5.93-.404a20.34 20.34 0 0 0-4.973.78c-1.546.354-.068 1.602.497 2.187.379.338.422.849.34 1.325-.114.556-.476 1.581-1.15 1.591-.473-.057-.875-.35-1.301-.545-.616-.31-1.327-.295-1.999-.31-.928-.14-3.884.722-2.313 1.902.505.304 1.125.304 1.698.286.342-.015.683-.076 1.028-.066.092.01.03.136.037.192a.743.743 0 0 1-.06.164c-.293.548-.952.787-1.302 1.277-.307.66 1.259 1.522 1.71 1.89 1.058.68 2.148 1.483 3.45 1.551.465.019 1.009.112 1.415-.168.678-.643.272-1.724.67-2.486.288-.346.728-.655 1.188-.723.321 0 .64.097.957.146.833.22 1.595-.35 1.89-1.11.104-.152.05-.397.22-.492.535-.356 1.207-.482 1.829-.276.397.132 1.277.317 1.129.898-.258.564-.977.75-1.52.951-.713.24-1.55.24-2.143.748-.338.31-.509.756-.712 1.157-.25.536-.515 1.067-.72 1.623-.232.62-.374 1.27-.48 1.924-.123.597.023 1.219.67 1.408.795.22 1.636.07 2.445.033 1.164-.057 2.45-.232 2.767-1.563.638-3.009.34-3.375 3.711-3.19.52.017 1.04-.047 1.56 0 .687.113 1.272.531 1.915.777.704.28 1.193.525.843 1.36-.604 1.216-2.075 1.506-3.103 2.243-.547.398-1.289 1.03-1.07 1.784.405.793 1.503.344 2.055-.045a5.2 5.2 0 0 0 .906-.822c.297-.297.515-.73.93-.871.485-.093.996.134 1.474.214 1.491.264 3.112.918 3.631 2.473.229 1.084-.902 2.402-1.614 3.155-.6.567-1.288 1.032-1.84 1.65-.923 1.073-1.448 1.349-2.857 1.28a5.103 5.103 0 0 0-1.72.326c-1.093.476-2.52 1.04-3.528.09-.727-.625-1.56-1.237-2.342-1.818-.583-.486-1.127-1.017-1.736-1.468-1.09-.997-2.626-.416-3.895-.958-1.597-.92-2.966-2.29-4.748-2.88-.89-.303-1.831-.096-2.748-.081-.292-.023-.636-.019-.834-.28-.276-.486-.457-1.055-.832-1.487-.62-.78-1.5-1.654-2.585-1.472-.738.119-1.442.387-2.134.663-.585.23-1.028.694-1.524 1.062-.886.6-1.846 1.077-2.748 1.652-2.79 1.724-1.306 2.308-2.078 4.592-.505 1.176-1.774 1.691-2.622 2.566-1.156 1.117-1.315 2.764-1.34 4.284-.065.993-.257 1.965-.663 2.883-.442 1.172-1.61 2.029-1.695 3.347-.125 1.14.173 2.27.674 3.286.309.754.916 1.351 1.654 1.693 1.073.478 2.251.657 3.39.906 1.656.24 3.557.425 4.987-.611.233-.155.408-.336.688-.414a12.424 12.424 0 0 1 2.937-.206c.14.025.28.055.422.078.387.082.822.113 1.23.198l.16.043c.062.02.128.035.194.05.245.082.472.2.661.38.009.021.015.042.021.066.058.206.099.453.03.666l-.005.002Zm34.414-26.544C99.94 81.002 88.37 91.18 74.77 96.396a.333.333 0 0 0-.128 0 3.769 3.769 0 0 1-.53-.123c-.168-.075-.313-.194-.473-.287-.511-.32-.793-.856-1.001-1.406-.299-.503-.38-1.114-.748-1.576a1.509 1.509 0 0 0-.187-.234c-.316-.56-1.014-.546-1.696-.773a7.871 7.871 0 0 0-1.522-.197c-.06-.009-.12-.015-.181-.023a.356.356 0 0 0-.175.014c-.632 0-1.269.054-1.891.134-.402.048-.824.083-1.164.324-.195.142-.389.286-.597.412-1.535.924-3.693.543-5.36.187-.848-.202-1.726-.352-2.504-.775-.894-.457-1.27-1.398-1.588-2.298-.274-.8-.342-1.689-.15-2.514.158-.55.52-.978.846-1.45.89-1.228 1.32-2.74 1.427-4.238.062-1.213.041-2.51.785-3.542.849-1.271 2.565-1.77 3.147-3.252.486-.94.105-2.019.402-2.986.177-.394.534-.694.873-.954 1.024-.743 2.182-1.287 3.236-1.981.462-.3.837-.72 1.32-.987.596-.294 1.236-.492 1.873-.67.369-.09.754-.151 1.118.018.845.44 1.498 1.22 1.883 2.082.342 1.136 1.32 1.134 2.317 1.034.95-.13 1.897-.005 2.736.488 1.12.61 2.148 1.375 3.18 2.12.496.365 1.09.555 1.695.627.688.115 1.417-.023 2.078.237.552.267.99.665 1.46 1.067.724.7 1.56 1.262 2.355 1.874 1.26 1.105 1.973 1.68 3.73 1.17.664-.221 1.288-.575 1.984-.684.63-.118 1.275-.035 1.907-.116 1.018-.13 1.673-1.005 2.34-1.693.997-.879 2.107-1.707 2.768-2.893.34-.595.701-1.287.553-1.994-.419-1.528-1.895-2.496-3.385-2.796-.758-.134-1.524-.48-2.302-.383-.843.216-1.187 1.161-1.87 1.633-.297.323-1.906 1.03-1.383.027.847-1.244 2.546-1.417 3.55-2.496.794-.754 1.017-2.111-.174-2.585-.793-.303-1.522-.793-2.352-.984-.56-.085-1.129-.015-1.695-.02-.991.024-2.108-.242-3.004.304-1.76 1.124-.214 4.335-2.93 4.388-.742.07-1.486.136-2.231.138-.276-.01-.6-.02-.847-.18-.414-.388.066-1.535.144-2.042.17-.595.408-1.112.678-1.688.25-.48.422-1.022.797-1.421.169-.155.435-.254.657-.316.764-.183 1.547-.333 2.245-.708.921-.404 1.38-1.47.367-2.08-1.038-.6-2.464-.719-3.395.136a.49.49 0 0 0-.13.307c-.088.379-.319.735-.64.962-.41.265-.956.029-1.413-.027-.828-.165-1.782.418-2.142 1.155-.247.65-.074 1.394-.363 2.033-.302.405-1.888.074-2.323-.122-1.248-.673-2.546-1.382-3.528-2.442.535-.468 1.277-.873 1.404-1.635.05-.266-.068-.579-.333-.678-.678-.134-1.382.13-2.07.002-.241-.022-1.125-.263-.668-.58.598-.425 1.358-.585 2.083-.557.844-.033 1.668.103 2.41.57.416.21.924.409 1.378.197.918-.521 1.31-1.751 1.209-2.758-.126-.941-1.154-1.339-1.527-2.156 1.852-.657 3.873-.84 5.83-.912 1.38-.073 2.8-.289 4.152.09 1.277.44 2.538.94 3.841 1.304.503.154.997.36 1.519.447.982.107 1.843-.548 2.774-.76.826-.24 1.668.026 2.503.055 1.78-.01 3.205-1.334 4.56-2.335 2.686-1.955 3.275-3.357 2.004-6.495-.154-.437.122-.76.445-1.04.402-.367.735-.843.77-1.4.075-.67-.426-1.191-.902-1.589-.527-.405-1.046-.891-1.711-1.048-.748-.185-1.442.258-2.12.51-.93.339-1.765.886-2.36 1.685-.522.552-.618 1.325-.958 1.973-.324.559-.81.952-1.218 1.477-.685.828-1 2.337-2.325 2.294-1.314-.047-2.58-.403-3.817-.854-1.011-.293-2.006-.699-2.748-1.473-.28-.266-.554-.57-.933-.692-.762-.132-1.629.183-2.31-.315a.838.838 0 0 1-.314-.67c.241-1.575 2.091-1.972 3.37-2.407 1.364-.525 2.727-1.058 4.144-1.423.886-.167 1.766-.35 2.602-.692.741-.305 1.534-.478 2.261-.813.711-.373 1.453-.715 2.069-1.236.267-.214.453-.515.72-.725.907-.558 1.463-.484 1.64-1.724.187-.626.805-.716 1.557-.636.091.05.212.074.311.093 2.305.634 4.48 2.088 5.782 4.123 2.222 9.506 1.361 19.718-2.507 28.71l.006.008Z"/><path fill="#000" d="M79.715 36.633c.575.273 1.327.14 1.617-.472.703.702 1.6.906 2.167-.072.288.395.75.675 1.244.696.581.05.93-.48 1.19-.918a2.021 2.021 0 0 0 1.708.78c.26.014.474-.307.245-.494a.262.262 0 0 0-.292-.017 1.53 1.53 0 0 1-1.423-.852c-.093-.21-.398-.225-.503-.02-.194.35-.365.78-.725.988-.443.094-.877-.208-1.104-.57-.078-.112-.103-.262-.225-.337-.144-.086-.327-.004-.387.145-.138.3-.327.681-.673.764-.394-.027-.767-.32-.995-.628-.062-.072-.041-.175-.103-.245a.262.262 0 0 0-.332-.073c-.103.054-.146.173-.134.285a1.01 1.01 0 0 1-.233.492c-.286.321-.758.123-1.083-.033-.185-.107-.451-.313-.61-.058-.168.377.404.505.65.639h.001ZM72.434 41.878c.68.756 1.724 1.186 2.323.09.26.313.565.616.941.781.765.317 1.527-.309 1.91-.935.268.733 1.08.956 1.79.956.18-.01.41.028.535-.128a.262.262 0 0 0-.043-.363.27.27 0 0 0-.261-.035c-.132.015-.233.007-.39.002-.336-.03-.73-.08-.98-.341-.214-.274-.453-1.174-.894-.663-.69 1.204-1.473 1.507-2.326.232-.109-.261-.41-.438-.582-.127-.382 1.31-1.222.68-1.852-.044-.037-.47-.694-.315-.528.118-.18.62-.976.84-1.546.659-.246-.058-.495-.435-.73-.165-.084.107-.07.278.044.36.752.626 2.092.468 2.59-.401l-.001.004ZM42.075 70.637c.686.435 1.771.53 2.185-.313.822.99 1.842 1.407 2.71.194.576 1.04 1.993 1.005 2.765.206.225.756 1.05 1.073 1.78 1.077.251.05.402-.307.196-.457-.241-.12-.548-.04-.8-.155-.389-.103-.654-.405-.745-.79-.05-.134-.041-.301-.18-.382-.162-.102-.333.017-.428.155-.138.15-.286.286-.457.4-.587.43-1.532.253-1.763-.49-.03-.104-.046-.217-.136-.287a.266.266 0 0 0-.29-.025c-.262.227-.398.58-.678.795-.73.604-1.345-.401-1.846-.828-.086-.179-.358-.191-.455-.014-.142.814-.843.877-1.483.535-.286-.09-.649-.605-.917-.25-.16.339.328.475.54.632l.002-.003ZM42.917 74.552c.454.733 1.306 1.189 2.16 1.221 1.107.091.74-.96.265-.529-.752.083-1.52-.286-1.953-.908-.105-.121-.084-.299-.208-.404-.14-.121-.327-.026-.43.095-.402.313-.857.653-1.383.71-.428.005-.764-.364-.94-.724-.042-.12 0-.254-.081-.363-.15-.204-.414-.072-.515.114-.676.982-1.706.918-2.066-.274a.269.269 0 0 0-.426-.058c-.15.214-.277.47-.534.58-.737.231-1.508-.224-2.175-.498-.313-.127-.503.34-.2.476.919.4 2.233 1.065 3.047.146.541 1.04 1.804 1.082 2.54.219.751 1.293 1.882 1.005 2.9.203v-.006ZM52.712 79.993a.259.259 0 0 0-.365.116c-.812.228-1.582-.416-2.089-.987a.26.26 0 0 0-.261-.14c-.12.008-.188.111-.254.198-.488.434-1.248.823-1.888.502-.363-.204-.69-.498-1.02-.754-.132-.146-.354-.24-.509-.067-.715 1.268-1.431.488-2.276-.14-.103-.108-.268-.15-.393-.054-.534.719-1.603.67-2.324.268-.127-.06-.284.012-.337.138-.116.354.377.426.61.537.737.237 1.676.173 2.246-.393.849.727 1.961 1.377 2.732.169 1.198 1.095 2.09 1.283 3.433.247.414.422.902.803 1.481.968.422.099 1.049.179 1.306-.256a.26.26 0 0 0-.093-.352ZM70.543 9.638c.033.29-.282.855.089.978.471.076.36-.69.426-.988a8.343 8.343 0 0 0-.066-1.407.383.383 0 0 0-.142-.261c-.253-.22-.608.131-.363.376.048.433.079.87.054 1.304l.002-.002ZM70.133 11.728a.257.257 0 1 0 0-.515.257.257 0 0 0 0 .515ZM84.337 22.019c.272-.074.544-.165.826-.202.159-.016.348-.01.455-.15.194-.25-.13-.597-.374-.375-.44.054-.894.144-1.29.34-.387.239-.731.54-1.054.859-.176.228-.827.39-.643.755.325.563 1.58-1.116 2.08-1.227ZM81.04 23.586c.164.396.659.105.461-.255-.157-.393-.657-.115-.461.255ZM62.623 30.045a7.19 7.19 0 0 1 .16-1.426c.005-.335.557-1.272-.014-1.34-.17 0-.282.163-.257.325-.227.795-.41 1.61-.406 2.443.004.335.511.335.515 0l.002-.002ZM62.308 31.35a.257.257 0 1 0 0-.515.257.257 0 0 0 0 .515ZM50.254 5.616c.544.33.855.968 1.162 1.516.453.854.515 1.888.484 2.848-.008.14.122.257.258.257.146 0 .249-.117.257-.257a7.936 7.936 0 0 0-.204-2.216c-.117-.509-.385-.97-.645-1.419-.288-.439-.58-.916-1.054-1.172-.293-.169-.546.272-.26.445l.002-.002ZM51.863 11.378a.257.257 0 1 0 0-.515.257.257 0 0 0 0 .515ZM42.561 19.175a.26.26 0 0 0 .22.29c.433.019.28-.624.398-.904.09-.412.218-.895.416-1.295.08-.159.19-.327.128-.51-.09-.308-.554-.205-.503.11-.373.709-.564 1.516-.659 2.309ZM42.608 20.818a.257.257 0 1 0 0-.514.257.257 0 0 0 0 .514ZM33.455 24.87c.3.115.564.242.91.292.414.064.851-.208.956-.616.068-.233 0-.474.04-.709.119-.362.5-.574.632-.934.16-.48.27-1.154-.178-1.512-.26-.214-.587.175-.333.393.17.12.123.346.121.53-.004.393-.272.669-.513.951-.222.251-.29.593-.251.92.054.752-.774.388-1.168.217-.307-.134-.519.325-.216.467ZM31.863 23.728c-.132-.333-.622-.113-.472.21.132.336.622.114.472-.21ZM21.36 31.75c-.093-.624.027-1.294.292-1.864.118-.354 1.106-1.232.61-1.493-.192-.09-.342.074-.4.245-.243.402-.568.754-.754 1.19-.24.628-.375 1.358-.25 2.037.077.33.572.212.502-.113v-.002ZM21.494 32.825a.26.26 0 0 0-.266.249c-.004.136.11.266.25.266a.26.26 0 0 0 .265-.25c.004-.136-.11-.265-.25-.265ZM3.347 39.448a.262.262 0 0 0 .321-.171c.108-.317.225-.63.34-.945.243-.645.626-1.244.775-1.922.035-.226-.167-.519-.412-.393-.124.064-.184.237-.103.358-.315.935-.812 1.802-1.092 2.752a.26.26 0 0 0 .171.32ZM3.176 40.885c.004-.136-.109-.265-.249-.265a.26.26 0 0 0-.266.249c-.004.136.11.265.25.265a.26.26 0 0 0 .265-.249ZM43.923 46.02c.113.071.286.042.356-.079.25-.453.548-.881.966-1.197.262-.263.713-.323.908-.642.134-.292-.29-.513-.455-.239a3.991 3.991 0 0 0-1.852 1.8.263.263 0 0 0 .079.356h-.002ZM46.959 43.159a.26.26 0 0 0 .265-.25c.004-.135-.109-.265-.249-.265a.26.26 0 0 0-.266.25c-.004.135.11.265.25.265ZM23.94 63.885c.25-.165.475-.297.763-.435.853-.364 1.854-.342 2.564-1.011.182-.136.317-.457.056-.585a.261.261 0 0 0-.342.126c-.1.154-.297.228-.443.335-.505.328-1.168.318-1.722.536-.418.144-.805.368-1.172.611a.26.26 0 0 0-.064.359.26.26 0 0 0 .359.064h.002ZM22.468 64.888c.354.014.366-.614.018-.624-.354-.015-.366.613-.018.624ZM3.7 63.405c-.095-.334-.163-1.337-.71-1.03a.261.261 0 0 0-.016.364c.182.305.18.697.278 1.036.184.791.417 1.578.765 2.313.156.299.607.062.457-.237-.36-.778-.597-1.608-.775-2.444v-.002ZM5.081 67.171c-.14 0-.263.095-.271.243-.009.134.1.272.243.272.142 0 .263-.095.271-.243.009-.134-.1-.272-.243-.272ZM48.125 24.523c-.202.14-.07.357.022.517.28 1.05 1.215 1.712 1.718 2.646.074.12.247.14.358.064.489-.313-1.165-1.853-1.34-2.27-.223-.28-.24-1.19-.758-.957ZM50.786 28.401c-.394-.138-.515.402-.126.515.391.138.517-.401.126-.515ZM38.736 59.578c.06.536.12 1.088-.047 1.61-.04.135.033.28.169.324.589.134.447-1.409.412-1.76-.08-.483.004-1.026-.262-1.457-.192-.278-.61.013-.424.29.15.301.098.668.152.993ZM38.196 62.995c.14 0 .262-.103.268-.247.006-.136-.107-.268-.247-.268a.262.262 0 0 0-.268.247c-.006.136.107.268.247.268ZM16.256 72.75a.257.257 0 0 0-.155.33c.365 1.174.25 1.962-.758 2.747-.169.229-.688.457-.45.785.318.286.576-.254.813-.418.445-.39.89-.828 1.036-1.421.148-.511.029-1.053-.07-1.563-.04-.215-.126-.554-.414-.46h-.002ZM14.188 77.427c-.225.115-.118.365-.027.534.058.127.226.173.346.113.317-.159.004-.82-.32-.647ZM61.22 69.82c.276-.369.7-.544 1.092-.76.492-.295 1-.585 1.424-.974.123-.11.197-.274.133-.433-.078-.26-.492-.198-.496.068-.37.334-.81.585-1.232.844-.305.19-1.713.816-1.283 1.284a.26.26 0 0 0 .363-.03ZM60.353 70.798c-.047-.181-.169-.393-.389-.315-.218.08-.183.321-.095.49.12.315.596.14.484-.175ZM57.9 81.744a8.134 8.134 0 0 1-.255 1.898c-.058.235-.128.47-.217.697a.258.258 0 0 0 .124.341c.122.058.29.009.342-.123.336-.948.562-1.981.496-2.986-.121-.385-.677-.192-.492.173h.002ZM56.963 85.484a.262.262 0 0 0-.268.247c-.006.136.107.267.248.267.14 0 .261-.103.267-.247.006-.136-.107-.267-.247-.267ZM92.527 83.853c-.225.275-.544.463-.818.698-.496.405-.943.842-1.446 1.243-.251.231-.482.412-.766.627-.111.086-.11.263-.02.364.282.286.722-.307.97-.465.595-.499 1.167-1.034 1.783-1.526.262-.237.63-.418.775-.752.103-.293-.344-.48-.478-.19ZM88.603 87.172a.262.262 0 0 0-.268.247c-.006.136.108.268.248.268s.261-.103.267-.247c.007-.136-.107-.268-.247-.268ZM99.015 71.67c.095-.324-.391-.475-.49-.155-.154.515-.496 1.04-.94 1.347a.26.26 0 0 0-.234.28c.354.91 1.633-1.036 1.664-1.47v-.003ZM98.434 70.637c.14 0 .262-.103.268-.247.006-.136-.107-.267-.247-.267a.262.262 0 0 0-.268.247c-.006.136.107.267.247.267ZM95.058 62.1c-.599-.312-1.297-.355-1.954-.466-.14-.015-.262.113-.268.247-.006.146.107.253.247.267.591.112 1.211.136 1.757.416.305.139.523-.32.22-.465h-.002ZM91.495 61.467a.262.262 0 0 0-.268.247c-.006.136.107.268.248.268.14 0 .261-.103.267-.248.006-.135-.107-.267-.247-.267ZM39.622 97.364c-1.296-.352-2.606-.681-3.85-1.192-.303-.153-.533.299-.239.455 1.26.54 2.602.849 3.914 1.232.32.113.805-.175.471-.495a.257.257 0 0 0-.294 0h-.002ZM34.71 95.597c-.14 0-.25.138-.244.272.008.146.132.243.272.243s.25-.138.243-.272c-.008-.146-.132-.243-.272-.243ZM76.832 72.128c-.495-.35-1.063-.587-1.642-.755-.212-.058-.439-.079-.643.014-.317.115-.15.593.167.488.115-.064.243-.033.365 0 .638.183 1.24.488 1.781.894.114.082.282.037.357-.078.166-.283-.2-.43-.383-.563h-.002ZM78.294 73.382c-.188-.02-.437 0-.45.24-.011.236.232.296.421.275.336.015.365-.492.029-.515ZM82.778 53.699c-.412.018-.822.068-1.234.066-.249-.019-.702.012-.605.37.051.157.226.206.368.149.725.004 1.405-.11 2.136-.062a.26.26 0 0 0 .272-.243c-.022-.433-.647-.245-.937-.282v.002ZM84.78 53.987c-.14 0-.264.097-.272.243-.008.134.101.272.243.272s.264-.097.272-.243c.008-.134-.1-.272-.243-.272ZM82.354 44.955c-.171-.28-.169-.616-.198-.933-.014-.14-.039-.32-.19-.38-.242-.119-.498.18-.327.394-.035.99.598 1.825 1.392 2.354.285.181.559-.247.28-.432a3.272 3.272 0 0 1-.957-1.003ZM84.11 47.02c.14 0 .264-.097.273-.243.008-.134-.101-.272-.243-.272-.143 0-.264.097-.272.243-.009.134.1.272.243.272ZM101.448 38.702c-.429.124-.814.375-1.224.548-.3.159-.599.323-.904.478-.2.138-.62.292-.44.6.19.263.453-.005.644-.122.293-.155.589-.307.88-.466.393-.169.762-.397 1.165-.535a.266.266 0 0 0 .248-.177c.076-.22-.165-.4-.367-.324l-.002-.002ZM98.21 40.564c-.342-.066-.468.546-.12.607.34.068.468-.545.12-.607ZM99.413 22.34c.579.575 1.071 1.298 1.487 2.01.179.289.61.025.441-.263-.484-.766-1.001-1.683-1.735-2.222-.315-.122-.504.35-.195.478l.002-.003ZM101.514 25.32a.257.257 0 1 0 0-.514.257.257 0 0 0 0 .514ZM80.239 7c.53.229.982.579 1.501.853.303.146.525-.311.225-.464-.355-.132-2.077-1.534-2.021-.56a.259.259 0 0 0 .294.17ZM83.27 8.425c-.022-.346-.655-.321-.628.035.023.348.655.321.628-.035ZM58.86 2.195c.334.048.412-.453.08-.508-.863-.145-1.722-.058-2.593-.044-.276.05-.877-.043-.875.36.088.425.605.118.896.155.836-.006 1.652-.1 2.492.037ZM60.347 2.276c.14 0 .262-.107.266-.25.004-.138-.111-.265-.25-.265a.263.263 0 0 0-.265.249c-.004.138.111.266.25.266Z"/></g><defs><clipPath id="a"><path fill="#fff" d="M0 0h110v100.871H0z"/></clipPath></defs></svg>