<svg xmlns="http://www.w3.org/2000/svg" width="72" height="72" fill="none"><g clip-path="url(#a)"><path fill="#C7F182" d="M43.244 24.032a.287.287 0 0 1 .146.106l.024.012c.116.06.24.097.367.128.202.062.401.04.6-.005a.267.267 0 0 1 .124.036c2.055-.602 4.067-1.313 6.126-1.902 2.162-.609 4.342-1.159 6.522-1.712a.325.325 0 0 1 .038-.049.348.348 0 0 0 .098-.242c-.017-.043-.042-.085-.062-.13-2.552-1.56-5.193-2.995-7.736-4.57a78.798 78.798 0 0 1-.906-.538.284.284 0 0 1-.157-.058 1.38 1.38 0 0 0-.412-.104 2.802 2.802 0 0 0-.635-.03c-1.627.4-3.26.787-4.878 1.216-1.45.391-2.884.834-4.353 1.156-1.015.24-2.016.518-3.02.79a.294.294 0 0 1-.065.065c-.12.072-.196.177-.27.28 0 .026.004.054.005.082 2.174 1.38 4.418 2.674 6.544 4.113.622.425 1.228.869 1.837 1.31.02.015.04.032.062.047l.001-.001ZM18.321 34.92c.004-.09.011-.179.022-.265.005-.438 0-.874-.014-1.306-.005-1.346.022-2.693-.03-4.039.04-1.302.127-2.604.21-3.904.03-.894.07-1.788.133-2.68v-.002a2.211 2.211 0 0 0-.261-.631c-.09-.144-.311-.291-.381-.447a.337.337 0 0 1-.077-.057c-2.367-1.623-4.766-3.207-7.135-4.828-.212-.001-.467-.209-.82.293a.137.137 0 0 1-.013.016c-.024 1.41-.036 2.82-.059 4.231.048 1.54 0 3.072-.117 4.609-.094 1.013-.15 2.028-.213 3.043.006.013.01.029.017.043.065.11.152.268.15.403.697.5 1.393 1 2.094 1.492 2.062 1.479 4.164 2.903 6.25 4.348.138-.046.197-.186.244-.317v-.003Zm-1.24-7.98a.267.267 0 0 1-.288-.232c-.012-.138.102-.262.247-.272a.266.266 0 0 1 .29.233c.012.137-.103.261-.248.271Zm.473-1.86c-.004.138-.14.247-.282.24a.261.261 0 0 1-.255-.268c.029-.617.116-1.23.19-1.842-.206-.436.52-.544.542-.084-.055.653-.17 1.299-.195 1.955v-.001Z"/><path fill="#99CC45" d="M25.926 13.063a316.046 316.046 0 0 1 7.447 4.586.635.635 0 0 1 .226.062c.347.12.714.124 1.061.023.124-.016.244-.1.364-.092.503-.137 1.006-.28 1.51-.42 1.196-.297 2.399-.574 3.59-.894 2.282-.675 4.602-1.226 6.918-1.793a.245.245 0 0 1 .08-.04.312.312 0 0 0 .063-.138.296.296 0 0 1 .012-.046c-.897-.56-1.789-1.128-2.688-1.687-1.37-.818-2.711-1.705-4.047-2.56-.485-.31-.976-.608-1.471-.901a.427.427 0 0 1-.218-.11 2.05 2.05 0 0 0-.637-.113c-.098-.019-.198-.016-.296-.019a215.31 215.31 0 0 0-7.257 1.733c-1.444.332-2.865.745-4.298 1.119l-1.172.28c-.123.09-.297.141-.272.313l-.001.02c.36.227.722.452 1.082.678l.004-.001Z"/><path fill="#C7F182" d="M34.82 46.348c-.042-.155-.065-.326-.122-.435-.09-.212-.202-.417-.292-.63-.867-1.531-2.807-2.304-4.589-2.027-.277.08-.554.158-.833.235a.275.275 0 0 1-.289-.1c-.167-.067-.316-.269-.457-.361-.375-.323-.77-.619-1.18-.897-.526-.374-1.05-.75-1.575-1.127a.41.41 0 0 1-.279.074c-.52.044-1.038.073-1.558.117-1.65.152-3.322.316-4.95.597-.095.003-.207.037-.316.06a.428.428 0 0 1-.013.092c-.137 1.917-.117 3.84-.182 5.762-.084 2.58-.168 5.169-.088 7.749.087-.013.181-.018.27-.025.186-.035.373-.067.56-.094l.276-.03c.597-.096 1.195-.19 1.796-.265 1.545-.185 3.063-.408 4.596-.587 1.199-.153 2.416-.229 3.609-.408 1.884-.27 3.751-.535 5.629-.782a.84.84 0 0 1-.037-.339c-.044-1.082.104-2.157.08-3.232.03-1.117-.038-2.233-.058-3.347h.001Zm-15.604.729a.265.265 0 0 1-.274-.247c-.012-.138.122-.255.262-.258a.266.266 0 0 1 .275.247c.012.138-.123.255-.263.258Zm.34-3.473c-.03.626-.099 1.253-.057 1.88-.02.28.15.886-.307.884-.232-.031-.262-.23-.225-.412.007-.193-.004-.388-.012-.582-.032-.669.05-1.335.078-2.003-.04-.143.016-.303.18-.348.373-.076.383.34.345.58h-.001Z"/><path fill="#C7F182" d="M23.13 56.274c-1.011-.74-2.366-.594-3.563-.502l-.192.018c-.316.054-.634.105-.951.143h-.011a1.37 1.37 0 0 1-.398.042.313.313 0 0 1-.163-.04h-.03c-.094-.008-.155-.045-.192-.096-.186-.052-.27-.325-.35-.49-.329-.602-.67-1.201-.992-1.808-.536-.967-1.069-1.934-1.601-2.903a.398.398 0 0 1-.117-.155c-.116-.172-.223-.35-.348-.515-.228-.34-.971-1.371-1.45-1.171-.151.184-.298.325-.39.537-.03.086-.068.199-.12.295.036 1.79.067 3.583.097 5.37-.02 1.08.056 2.162.057 3.242v.095a.296.296 0 0 1 0 .109c0 .07 0 .14-.002.207 0 .066.001.132.004.199.047.283.051.582.164.851.073.114.161.219.24.33a.26.26 0 0 1 .095.093c1.784.823 3.545 1.645 5.275 2.56 1.81.896 3.625 1.762 5.447 2.63l.174.077c.133-1.943.07-3.904.1-5.847.028-.432.044-.866.057-1.3a.468.468 0 0 1 .007-.182l.016-.5-.024-.074c-.126-.49-.388-.935-.834-1.222l-.004.007Zm-8.17-3.126c-.27-.484-.565-.958-.826-1.445-.18-.267.231-.536.433-.299.095.12.14.266.22.395.272.441.521.894.777 1.343.085.199.334.463.066.633-.415.192-.495-.4-.67-.627Zm.878 1.4a.267.267 0 0 1-.283-.239c-.012-.137.11-.259.254-.266a.268.268 0 0 1 .284.239c.012.138-.11.259-.255.267ZM7.828 37.447c.157.181.407.32.624.18.02-.019.04-.04.06-.062a10.585 10.585 0 0 0-.009-.292.22.22 0 0 1 .047-.176c.008-.193.018-.386.033-.58.07-1.656.162-3.31.263-4.966-.006-.397.006-.794.013-1.19a2.01 2.01 0 0 1-.011-.084 2.857 2.857 0 0 0-.218-.63 1.396 1.396 0 0 0-.372-.564 5.82 5.82 0 0 0-.502-.242c-.799-.325-1.82-.316-2.466.291a.452.452 0 0 1-.108.133c-.051.8-.1 1.597-.2 2.385-.038.272-.07.544-.064.818a.192.192 0 0 1-.012.069c.025.049.047.097.074.139a10 10 0 0 0 .381.645c.69 1.027 1.257 2.122 1.916 3.161l.555.964-.004.001Zm.19-6.113c-.022-.137.09-.267.232-.283.326-.026.329.306.326.52-.003.494.013.987-.02 1.48-.003.196-.004.465-.283.467-.145 0-.27-.116-.268-.254.03-.641.06-1.288.012-1.929l.002-.001Z"/><path fill="#C7F182" d="M17.794 42.52c0-.243.03-.483.048-.725l-.004-.022c-.242-.398-.45-.811-.673-1.217-.368-.685-.737-1.367-1.158-2.026-.78-1.213-1.502-2.462-2.284-3.671l-.024-.033c-.018.5-.06 1.01-.07 1.492.012 1.174.106 2.279.11 3.439-.055 1.119.014 2.22-.044 3.335-.053 1.333-.05 2.668-.143 3.999-.005.1-.001.215-.036.306.003.012.005.024.005.036a442.708 442.708 0 0 1 2.646 4.8c.447.82.912 1.631 1.35 2.457.01.015.021.033.03.05-.061-3.042.079-6.086.163-9.127.012-1.032.023-2.062.085-3.09l-.001-.003Z"/><path fill="#99CC45" d="M13.188 39.156c-.01-1.012-.108-2.007-.092-3.012.03-.289.02-.578.03-.867.033-.408.09-.812.01-1.203a.272.272 0 0 1 0-.093 8.094 8.094 0 0 0-.623-.849 15.02 15.02 0 0 1-.63-.97c-.291-.349-.594-.686-.91-1.006-.48-.45-.987-.895-1.572-1.22l-.004.342a.571.571 0 0 1-.003.262l-.01 1.125c-.052.877-.133 1.753-.149 2.63-.05 1-.11 1.999-.15 3-.008.108-.014.217-.02.326v.046c-.005.122-.009.242-.011.363l.001.013c.012.605.024 1.217.234 1.796.012.156.15.363.225.555.682 1.2 1.364 2.4 2.059 3.594.494.86.982 1.722 1.468 2.585.117-2.468.159-4.948.146-7.417Zm-2.006 2.818a.28.28 0 0 1-.35-.13c-.215-.37-.44-.735-.653-1.106-.073-.121-.142-.244-.218-.364a.252.252 0 0 1-.099-.27c.049-.19.323-.26.467-.117.283.388.487.828.751 1.23.113.227.464.582.101.757h.002Zm.422.823c-.14.018-.29-.08-.302-.217a.258.258 0 0 1 .232-.284c.14-.017.289.081.301.218a.258.258 0 0 1-.231.283ZM18.877 34.95c-.001.096-.004.192-.007.287.01.13.026.258.068.38.041.104.127.222.175.337 1.169.8 2.356 1.58 3.525 2.383 1.301.888 2.543 1.851 3.843 2.744.6.45 1.255.87 1.839 1.342a.516.516 0 0 0 .21-.23c.024-.052.048-.104.05-.162a.216.216 0 0 1 .033-.083 1.9 1.9 0 0 1 .03-.23c.146-2.719.312-5.44.515-8.155.07-1.406.203-2.836.165-4.235-.168-.095-.336-.26-.472-.322-.72-.453-1.418-.902-2.117-1.351-2.272-1.506-4.496-3.082-6.741-4.625-.11-.077-.218-.154-.329-.23a.32.32 0 0 1-.047-.023c-.17-.044-.317.102-.396.22a.291.291 0 0 1-.017.035.281.281 0 0 1-.046.194 300.62 300.62 0 0 0-.32 6.208c.055 1.252.031 2.506.026 3.758a31.844 31.844 0 0 1 .017 1.5c.028.06.036.129.014.194l-.02.066.002-.001Z"/><path fill="#C7F182" d="m39.816 8.481-.275.06c-.054.044-.11.084-.153.135a.294.294 0 0 0-.047.096c1.321.797 2.61 1.643 3.903 2.465 1.48.903 2.937 1.836 4.406 2.75.02 0 .042.005.065.01.258.073.507.13.773.137.087-.002.178-.029.264-.032 2.223-.579 4.434-1.2 6.645-1.818 1.46-.405 2.907-.892 4.391-1.214.05-.066.123-.124.16-.2a.216.216 0 0 1-.012-.133c-2.07-1.12-4.16-2.205-6.212-3.358-.823-.451-1.641-.909-2.458-1.372-.166 0-.371-.087-.558-.11-.097.015-.194.033-.29.05a.38.38 0 0 1-.266.05c-1 .196-1.976.47-2.976.684-2.47.54-4.906 1.203-7.36 1.8Z"/><path fill="#99CC45" d="M29.519 28.825a.34.34 0 0 1 .062-.01.29.29 0 0 1 .115-.064c.81-.21 1.615-.438 2.42-.669 3.594-1.095 7.15-2.215 10.743-3.288l.015-.024c.138-.119.128-.21.096-.3-.852-.627-1.728-1.267-2.608-1.83-1.94-1.255-3.923-2.456-5.886-3.681-.06.01-.124 0-.176-.033-.155-.058-.29-.106-.428-.157a2.393 2.393 0 0 0-.762-.106c-1.663.4-3.343.707-5.023 1.036-1.163.255-2.305.588-3.463.86-1.312.287-2.617.63-3.887 1.047-.198.064-.397.124-.596.182-.228.113-.294.329-.204.56 0 .003.002.005.003.008a.247.247 0 0 1 .05.04c1.465 1.01 2.93 2.023 4.396 3.032 1.304.91 2.616 1.808 3.97 2.652.362.231.666.419 1.01.642.045.033.102.066.157.103h-.004ZM37.961 40.197l.014-.004c1.697-.507 3.379-1.024 5.073-1.543l.001-.002c.273-.24.415-.583.487-.914.008-.036.02-.073.03-.108l-.004-.061a.238.238 0 0 1 .038-.25c.048-1.048.047-2.116.086-3.143.002-1.307.089-2.617.005-3.923-.082-1.509-.156-3.02-.172-4.533-.005-.057-.007-.115-.008-.172v-.005c-.112-.107-.211-.267-.374-.285a.613.613 0 0 1-.1.017c-3.805 1.138-7.592 2.348-11.39 3.473-.585.172-1.173.33-1.762.485a93.796 93.796 0 0 1-.32 6.054c-.115 2.097-.259 4.195-.377 6.292.02.088.004.18-.015.27l-.018.335c.004.038.008.075.014.112.013.175.126.315.281.408a.36.36 0 0 1 .089.088l.144-.017c.557-.161 1.111-.327 1.668-.49 1.724-.512 3.363-1.089 5.068-1.625.517-.15 1.032-.304 1.545-.457l-.003-.002Zm4.114-5.082a.267.267 0 0 1-.29-.232c-.011-.138.103-.262.248-.272a.266.266 0 0 1 .29.232c.012.138-.103.262-.248.272Zm-.307-5.043c.424-.113.424.402.439.666.065.788.03 1.582.141 2.366.037.145-.039.3-.202.332-.137.028-.296-.058-.319-.195-.078-.467-.092-.94-.107-1.411-.016-.458-.029-.916-.078-1.371-.103-.128-.04-.338.126-.386v-.001Z"/><path fill="#C7F182" d="M24.459 12.77c-.073-.062-.16-.091-.25-.122a3.277 3.277 0 0 0-.594-.116c-.13-.011-.308.018-.45-.007l-.6.152c-1.994.567-4.033.978-6.03 1.534-1.313.325-2.638.606-3.937.983-.542.209-1.12.335-1.69.477l-.005.012a.631.631 0 0 0-.07.233c-.014.065.036.12.057.18a.25.25 0 0 1 .099.172c.395.274.791.546 1.19.817 2.04 1.353 4.06 2.73 6.076 4.115.01.005.02.01.03.017.475.21 1.019.218 1.52.09a.262.262 0 0 1 .205-.01c.493-.145.977-.308 1.468-.451.976-.339 2-.531 3.004-.778 1.14-.27 2.266-.59 3.411-.849 1.599-.337 3.223-.578 4.805-.985a.134.134 0 0 1 .022-.016.34.34 0 0 0 .217-.229c-.488-.31-.972-.623-1.454-.941a949.8 949.8 0 0 1-6.934-4.245.26.26 0 0 1-.089-.032l-.001-.001Zm4.291 3.85a.268.268 0 0 1 .28.243c.012.138-.117.258-.258.264a.268.268 0 0 1-.28-.243c-.012-.138.117-.258.258-.263Zm-2.46-1.73c.331.28.636.495.984.736.22.145.445.275.67.412.123.074.15.241.067.351a.282.282 0 0 1-.374.063c-.619-.366-1.224-.766-1.76-1.238-.222-.255.185-.575.413-.324Z"/><path fill="#99CC45" d="m30.057 3.474.1.068c1.131.644 2.307 1.193 3.421 1.86.418.22.81.489 1.194.753.912.577 1.892 1.056 2.822 1.61l.43.238c.116-.024.255.038.387.076.245.048.434.06.671.02a.303.303 0 0 1 .13-.004l.076-.017a.296.296 0 0 1 .167-.04c2.663-.632 5.303-1.352 7.98-1.938.83-.183 1.652-.403 2.485-.572.045-.035.09-.07.093-.121a.311.311 0 0 1-.004-.112C47.735 4 45.47 2.692 43.164 1.445c-.48-.26-.9-.636-1.408-.837a.408.408 0 0 1-.095-.063c-3.805.885-7.625 1.648-11.425 2.54l-.253.056c-.037.1-.027.21.052.293.01.012.017.025.023.039l-.001.001ZM8.688 28.648a.534.534 0 0 0 .301-.375.32.32 0 0 1 .036-.088.23.23 0 0 1 .058-.17c.11-1.536.236-3.07.295-4.61-.026-2.154.01-4.306.04-6.458a.26.26 0 0 1-.013-.068 3.434 3.434 0 0 0-.5-1.336c-.032-.056-.075-.109-.107-.163-.968-.68-1.934-1.366-2.913-2.017-1.487-.98-3.005-1.876-4.5-2.828-.085 1.093.02 2.193-.053 3.288-.144 3.1-.212 6.202-.05 9.303-.004.086.008.194.007.297.209.103.37.275.553.411.425.332.892.613 1.343.912 1.156.754 2.22 1.625 3.356 2.404.723.49 1.437.992 2.148 1.498h-.001Zm-.805-6.823c.297-.089.43.2.35.431-.077.435-.133.859-.18 1.293-.02.178-.038.356-.04.535.022.155-.063.323-.247.336-.141.01-.284-.095-.29-.233-.002-.695.134-1.386.235-2.073a.252.252 0 0 1 .172-.29Zm-.33 3.323a.267.267 0 0 1 .29.233c.012.138-.103.262-.248.272a.267.267 0 0 1-.29-.233c-.011-.138.103-.262.248-.272Z"/><path fill="#C7F182" d="M16.28 6.97c.01.01.017.019.025.029.34.249.698.48 1.05.712 2.02 1.272 4.05 2.532 6.077 3.795a.269.269 0 0 1 .18.009c.24.102.48.092.723.097.135-.005.285-.056.402.008l.138-.034a.148.148 0 0 1 .03-.008c4.122-1.04 8.228-2.152 12.389-3.053a.312.312 0 0 1 .052-.05.168.168 0 0 0 .04-.153.208.208 0 0 1-.005-.086c-.912-.515-1.828-1.023-2.734-1.546-.511-.341-.957-.652-1.488-.934-.71-.414-1.443-.795-2.167-1.187-.5-.239-.962-.49-1.406-.784-.077-.021-.155-.062-.232-.1-.223-.083-.512-.153-.742-.13-.121-.005-.256.04-.366.006l-.178.046c.505.33 1.004.674 1.518.991.22.189.834.328.616.69a.284.284 0 0 1-.375.064 34.79 34.79 0 0 1-1.082-.682c-.39-.245-.773-.503-1.15-.763a.249.249 0 0 1-.076-.16c-1.892.492-3.772 1.027-5.672 1.494-1.817.473-3.644.89-5.469 1.318h-.001c-.031.039-.084.064-.096.113-.01.097-.044.185-.006.277a.114.114 0 0 1 .006.02h-.001Zm14.804-1.418a.268.268 0 0 1 .28.243c.012.138-.118.258-.259.263a.268.268 0 0 1-.28-.243c-.012-.137.117-.258.259-.263Z"/><path fill="#99CC45" d="M9.308 15.1c.125.043.257.071.38.117.31.103.674.058.972-.052a.265.265 0 0 1 .248-.008c.353-.09.704-.183 1.051-.287 1.187-.393 2.413-.669 3.636-.948 2.207-.591 4.443-1.08 6.646-1.685l.46-.111a.213.213 0 0 1 .065-.063.468.468 0 0 0 .227-.224l-2.065-1.283c-.917-.55-1.805-1.14-2.71-1.707-.824-.488-1.64-.994-2.398-1.572l-.068-.037c-.087-.043-.187-.073-.277-.106a2.011 2.011 0 0 0-.358-.085c-.128.012-.268-.024-.34-.112-1.001.24-2.001.49-2.998.759-1.506.369-3.01.794-4.502 1.164-1.804.476-3.558.992-5.367 1.404.321.214.65.418.989.609 2.21 1.314 4.308 2.765 6.405 4.225l.004.002ZM11.819 55.617c-.004-1.793-.058-3.579-.073-5.36-.01-.012-.023-.024-.032-.038-.105-.228-.036-.51-.048-.75-.057-.48-.006-.97-.108-1.445-.195-.785-.767-1.33-1.402-1.809-1.338-.638-2.704-1.222-4.055-1.833a99.667 99.667 0 0 1-3.184-1.55 21.177 21.177 0 0 1-2.146-.992c-.065-.04-.14-.072-.215-.105C.548 42.9.61 44.067.57 45.232c-.002 1.39.164 2.774.215 4.163.075 1.525.008 3.054.118 4.578.006.04.008.084.007.127.044.02.087.043.127.063.58.244 1.123.555 1.688.827 1.458.73 2.923 1.445 4.386 2.161 1.407.716 2.792 1.47 4.197 2.188a.485.485 0 0 0 .188-.064l-.017.007c.317-.151.358-.513.393-.813v-.182c0-.024 0-.05-.003-.073 0-.007.003-.012.003-.017 0-.86-.04-1.721-.055-2.579h.001ZM1.574 47.413c-.14.017-.288-.083-.3-.22a.261.261 0 0 1 .234-.282c.14-.016.288.084.3.22a.26.26 0 0 1-.234.282Zm.286-1.968c-.038.263.109.864-.302.877-.385-.026-.233-.438-.24-.678.01-.328-.014-.657.024-.984.045-.329.1-.661.062-.994a.233.233 0 0 1-.04-.255c.223-.35.611-.052.58.275.044.59-.133 1.17-.086 1.76h.002Z"/><path fill="#C7F182" d="M59.131 37.121c-1.269.216-2.544.398-3.82.575a48.41 48.41 0 0 1-2.091.24c-.135.07-.29.08-.43.131-.147.076-.262.085-.361.205-.162.175-.27.372-.336.59v.01a.322.322 0 0 1-.004.16c-.01.31-.024.62-.032.93-.01.513.063 1.024.046 1.537-.085 1.27-.067 2.58-.124 3.844-.05 1.289-.01 2.577-.066 3.866-.01.258-.036.506-.063.75a.238.238 0 0 1-.007.125l.006-.016a.657.657 0 0 1-.011.049c0 .043 0 .087.008.129.022.229.144.44.331.587.04.019.082.04.122.062.497-.044.996-.079 1.495-.104l.11-.016c.799-.06 1.589-.167 2.38-.257a83.075 83.075 0 0 0 4.437-.774c.476-.091.96-.142 1.44-.208a21.866 21.866 0 0 1 2.453-.327c.387-.075.8-.14 1.2-.192.147-.03.293-.055.443-.069.01-.058.017-.112.027-.158.218-1.072.262-2.171.414-3.254.273-2.281.333-4.578.511-6.866.084-.912.15-1.823.225-2.735-.147.009-.299.002-.434.028-.73.049-1.439.224-2.16.322a69.83 69.83 0 0 1-5.709.835v.001Zm6.587 4.282c.047-.556.07-1.084.107-1.632-.06-.137.025-.298.175-.338.344-.076.397.319.352.551-.05.731-.095 1.447-.159 2.166a.273.273 0 0 1-.3.304c-.14-.009-.253-.144-.238-.268.012-.262.042-.52.063-.781v-.002Zm-.118 1.489c.257-.25.752.198.49.448-.257.25-.754-.199-.49-.448Z"/><path fill="#99CC45" d="M55.834 12.687c-1.772.524-3.57.968-5.345 1.483-.437.121-.875.237-1.316.351a.284.284 0 0 1-.044.034.354.354 0 0 0-.192.215c1.917 1.156 3.833 2.31 5.782 3.42.922.531 1.84 1.066 2.746 1.623.167.122.496.31.724.51.117.014.236.034.35 0 .026-.005.034-.006.068-.005.006 0 .014 0 .021.002a228.18 228.18 0 0 0 3.588-.945c.936-.25 1.866-.522 2.813-.738.676-.16 1.314-.427 1.975-.628 1.313-.382 2.62-.881 3.964-1.166-.063-.039-.127-.078-.191-.115a124.37 124.37 0 0 1-4.092-2.373c-1.766-1.026-3.62-1.904-5.415-2.884-.155.001-.331-.037-.46-.033a1.635 1.635 0 0 0-.42.072c-.162.058-.37.135-.504.057-1.37.298-2.707.741-4.053 1.12h.002Z"/><path fill="#C7F182" d="M58.306 55.765a94.566 94.566 0 0 0-.006-1.516.263.263 0 0 1-.004-.118l.002-.017c0-.07 0-.14-.002-.21-.146-.237-.232-.625-.34-.776-.162-.197-.286-.422-.453-.616-.37-.302-.741-.636-1.203-.808-.29-.116-.603-.148-.907-.207a5.36 5.36 0 0 0-.87-.166c-.28.02-.56.052-.842.077-.197.017-.395.032-.593.05-.306.036-.612.073-.92.108a5.939 5.939 0 0 0-.81.188c-.708.292-1.426.71-1.954 1.242-.175.19-.288.414-.39.646.009.08-.009.17-.05.243-.029.07-.065.136-.093.206.047.172-.043.334-.069.5a.926.926 0 0 1-.06.246l-.003.009c-.03 1.918.016 3.838-.055 5.755-.018.82-.02 1.64-.056 2.459.07.229-.006.59.073.775a.515.515 0 0 0 .257.354.46.46 0 0 1 .158.064c.874-.533 1.744-1.07 2.622-1.596 1.938-1.184 3.905-2.325 5.86-3.482.048-.06.103-.118.149-.168a3 3 0 0 0 .4-.57c.11-.263.143-.548.16-.827a.24.24 0 0 1 .013-.093 6.542 6.542 0 0 1-.001-.28.232.232 0 0 1 .006-.141c-.006-.445-.02-.89-.02-1.33h.002Zm-8.384-.6c-.007.575.02 1.15.045 1.724.027.223.077.568-.263.566a.26.26 0 0 1-.253-.267c-.06-.692-.04-1.365-.085-2.045-.005-.378.57-.348.557.023h-.001Zm-.02 2.959c-.294.195-.644-.273-.346-.464.292-.194.643.272.345.464Z"/><path fill="#99CC45" d="M48.17 54.542c-.038-.173-.147-.325-.263-.46-.28-.35-.663-.34-1.055-.28-1.418.8-2.823 1.626-4.25 2.417-.785.44-1.625.788-2.416 1.218-.452.267-.915.517-1.382.76-.32.189-.68.306-.988.51a.217.217 0 0 1 .001.066c-.183 2.934-.38 5.865-.507 8.803-.074 1.117-.07 2.241-.242 3.349-.016.135-.019.27-.02.406.306-.187.612-.377.912-.573 2.886-1.762 5.825-3.426 8.772-5.093.143-.08.286-.163.427-.245.64-.486.8-.961.873-1.709a.294.294 0 0 1 .031-.172c.057-.891.076-1.783.072-2.676.07-1.553.052-3.107.047-4.661.01-.471.018-.944.027-1.417-.022-.078-.023-.164-.04-.243Zm-4.488 12.296c-.147.01-.279-.095-.29-.233-.012-.138.101-.262.248-.272.147-.011.279.095.29.233.011.137-.102.261-.248.272Zm2.74-1.732c-.458.296-.965.576-1.393.9-.191.135-.46.408-.672.149-.087-.117-.05-.269.068-.352.584-.445 1.207-.808 1.83-1.199.088-.238.506-.177.512.08.025.21-.177.325-.344.423ZM66.761 49.186a.246.246 0 0 1-.194.214.262.262 0 0 1-.098.043c-.165.016-.33.04-.496.063-.676.156-1.355.3-2.021.482-.758.166-1.48.46-2.168.774-.532.255-1.051.516-1.462.927-.759.624-1.293 1.363-1.463 2.3-.012.071-.017.116-.024.162l.01 1.3c-.01.734.027 1.464.024 2.192.008.091.023.18.052.267.061.111.144.232.286.25a.317.317 0 0 1 .052.02c.836-.522 1.635-1.057 2.488-1.571 1.787-1.07 3.619-2.072 5.437-3.092a.284.284 0 0 1 .13-.12 16.081 16.081 0 0 0 .358-2.23c.087-.971.202-1.94.298-2.912.075-.828.08-1.659.206-2.483.094-.877.215-1.753.319-2.62.082-.608.108-1.223.215-1.827a.42.42 0 0 0-.057.037c-.35.235-.67.51-1.05.703a.278.278 0 0 1-.083.03c-.014.264-.03.528-.041.792a60.044 60.044 0 0 1-.387 3.83c-.088.828-.16 1.654-.33 2.47Z"/><path fill="#C7F182" d="M57.735 21.526a.157.157 0 0 1-.02-.043c-.015-.052-.03-.106-.06-.153a.402.402 0 0 0-.299-.158.263.263 0 0 1-.06.008c-1.383.348-2.765.7-4.142 1.067-2.918.732-5.737 1.724-8.61 2.576l-.231.069c-.135.15-.232.317-.268.505.032 1.022.053 2.044.087 3.065.057 1.05.155 2.113.13 3.165a176.903 176.903 0 0 1-.1 4.718c-.007.471-.012.944-.042 1.415a.702.702 0 0 0 .138.315c.075.04.142.098.184.163 2.98-.863 5.995-1.63 8.978-2.476a136.36 136.36 0 0 0 2.99-.946.67.67 0 0 1 .157-.185c.11-.1.188-.223.286-.333.11-.158.183-.336.234-.518.097-.953.125-1.91.248-2.86.124-1.455.262-2.911.229-4.373.045-1.335.062-2.643.122-3.972.028-.344.027-.7.049-1.049Z"/><path fill="#99CC45" d="M37.274 58.836a.215.215 0 0 1-.02-.063c-.093-.043-.186-.1-.283-.13-1.26-.4-2.43-1.028-3.63-1.546-.777-.36-1.603-.619-2.37-.998-.924-.41-1.847-.888-2.78-1.253a.81.81 0 0 1-.214-.087c-.532.02-1.04.2-1.536.366-1.358.456-1.735 1.805-1.931 3.013-.027.685-.053 1.372-.066 2.059 0 1.3.014 2.599-.039 3.897-.028.513.018 1.03-.07 1.54 3.266 1.467 6.57 2.86 9.747 4.492.809.392 1.613.788 2.42 1.182l.006.004c.012-.365.06-.728.117-1.091.069-1.216.15-2.434.193-3.651.064-1.991.255-3.974.34-5.962.03-.59.08-1.18.116-1.77v-.002Zm-.92 4.706c-.23.26-.691-.113-.457-.368.232-.26.692.112.458.368Zm.198-2.73c-.016.38-.05.76-.067 1.141-.055.258.089.777-.323.784-.385-.043-.214-.479-.22-.722.01-.523.098-1.047.074-1.57-.128-.348.43-.499.515-.145.043.169.028.34.021.511ZM67.788 18.294c-.977.284-1.913.69-2.915.899-1.423.363-2.839.75-4.252 1.15l-1.905.479a.308.308 0 0 1-.068.062c-.157.135-.296.298-.347.495-.007.069-.01.142-.03.208-.052.63-.037 1.266-.072 1.896-.098 1.578-.065 3.16-.123 4.741-.055 1.265-.193 2.527-.313 3.79-.04.456-.063.913-.098 1.37.008.094-.014.19.004.285a.76.76 0 0 0 .202.462c.025.038.079.048.117.076a.22.22 0 0 1 .07.067c1.16-.38 2.318-.758 3.487-1.115.792-.189 1.57-.425 2.374-.572.349-.06.696-.129 1.04-.202.008-.004.015-.008.023-.01a.258.258 0 0 1 .119-.02c.359-.079.716-.162 1.07-.252.897-.245 1.783-.527 2.668-.807.102-.03.205-.058.307-.085a.173.173 0 0 1 .043-.03c.383-.197.588-.562.701-.939.082-.49.178-.978.256-1.47.146-1.032.269-2.07.444-3.1.145-1.525.297-3.052.42-4.578.106-1.276.157-2.559.403-3.818-.486.11-.985.18-1.457.342-.737.24-1.43.467-2.17.678l.002-.002Zm1.986 4.558a.268.268 0 0 1-.278-.244c-.012-.138.118-.257.26-.262a.268.268 0 0 1 .278.244c.012.138-.118.257-.26.262Zm.465-3.878c-.07.67-.073 1.346-.046 2.017-.023.258.087.763-.32.76a.26.26 0 0 1-.243-.277c.053-.762-.024-1.529.046-2.293.04-.184-.03-.446.187-.543.229-.099.437.127.376.337ZM51.379 49.11c.047-1.205.013-2.442.054-3.642.05-.917.036-1.815.075-2.73.043-.868.075-1.732.008-2.6.002-.398.023-.796.037-1.194-.022-.052-.04-.107-.068-.152-.084-.144-.12-.314-.249-.435a1.3 1.3 0 0 0-.403-.203h-.006c-.315.027-.63.056-.946.088-1.462.155-2.921.336-4.385.483a8.005 8.005 0 0 0-1.217.114c-.094.021-.188.05-.284.059-.095.03-.192.057-.288.086-.164.054-.337.094-.49.17a16.66 16.66 0 0 0-1.641.827c-.435.246-.926.47-1.34.74-.661.418-1.241.934-1.81 1.456-1.209 1.066-2.316 2.321-2.88 3.8-.053.139-.104.278-.145.42a.229.229 0 0 1-.036.18c.027.808.046 1.618.052 2.427.048 1.391-.144 2.774-.068 4.15.003.016.004.03.004.045l.945-.12c2.153-.347 4.303-.645 6.463-.93 1.462-.17 2.907-.41 4.368-.578.512-.048 1.022-.097 1.533-.148l.405-.078a31.268 31.268 0 0 1 1.602-.263c.04-.022.078-.042.11-.062.31-.23.43-.58.514-.927l.001-.016c-.002-.07-.001-.14 0-.208a.227.227 0 0 1 .04-.18c.02-.197.036-.392.042-.58h.003Zm-7.988 1.996a.266.266 0 0 1-.286-.235c-.013-.138.104-.26.25-.27a.266.266 0 0 1 .286.236c.013.137-.105.26-.25.269Zm4.19-.678c-.759.18-1.539.28-2.295.476-.256.05-.517.082-.771.14a.27.27 0 0 1-.318-.197c-.062-.413.647-.335.927-.429.752-.185 1.52-.306 2.277-.467.334-.103.51.358.18.477Z"/><path fill="#000" d="M71.845 16.806a31.817 31.817 0 0 0-.614-.405c-.776-.464-1.587-.88-2.365-1.344-1.444-.867-2.893-1.726-4.4-2.498-1.576-.784-3.117-1.63-4.657-2.477-4.36-2.297-8.656-4.701-12.918-7.154-1.438-.863-2.97-1.583-4.373-2.496-.155-.095-.306-.2-.473-.277a.275.275 0 0 0-.299-.151c-.137.024-.274.049-.411.08-1.37.35-2.772.63-4.153.952-3.838.818-7.665 1.615-11.445 2.663-3.345.907-6.71 1.73-10.092 2.515-3.183.735-6.316 1.599-9.475 2.42-1.634.442-3.3.905-4.96 1.276a.417.417 0 0 0-.162.097c-.16.03-.292.163-.192.37-.096 1.111.006 2.233-.057 3.347-.11 2.507-.203 5.02-.122 7.53-.003.761.068 1.52.067 2.282a.22.22 0 0 0 .06.153.27.27 0 0 0 .223.18 29.58 29.58 0 0 0 2.158 1.492c.541.369 1.06.767 1.584 1.157a.225.225 0 0 0-.01.104 54.835 54.835 0 0 0-.35 3.99c-.065.463-.1.928-.15 1.392-.007.109-.035.258-.031.392a.244.244 0 0 0 .027.157c.023.06.063.111.129.139.322.623.723 1.203 1.097 1.8.499.872 1.018 1.739 1.535 2.607v.012a.346.346 0 0 0 .089.172c.043.09.091.178.148.263-1.016.446-1.969 1.002-2.93 1.543a111.556 111.556 0 0 1-4.04 1.947c-.015 0-.032 0-.048.003-.168.025-.284.2-.216.349-.02.956.024 1.91.025 2.866-.008.78-.048 1.563.034 2.342.074 1.164.145 2.327.198 3.49 0 1.349.017 2.696.091 4.041a.262.262 0 0 0 .003.103.25.25 0 0 0 .163.27.955.955 0 0 1 .141.056c.417.196.789.347 1.204.578 2.137 1.094 4.323 2.102 6.446 3.218 1.222.634 2.425 1.298 3.664 1.899 1.11.55 2.211 1.012 3.34 1.568 2.838 1.42 5.671 2.85 8.563 4.171 2.068.96 4.18 1.83 6.256 2.786 1.743.822 3.46 1.691 5.194 2.528.385.192.773.382 1.159.572.056.029.12.04.179.031.088.098.264.124.37.036.056-.047.12-.085.18-.124.316-.192.637-.386.945-.592 2.547-1.572 5.194-3.039 7.787-4.548 1.99-1.075 3.89-2.284 5.818-3.45 2.011-1.237 4.067-2.41 6.098-3.62a.257.257 0 0 0 .073-.042 96.173 96.173 0 0 0 3.332-2.068c2.059-1.314 4.275-2.414 6.358-3.68a.276.276 0 0 0 .062-.157.247.247 0 0 0 .14-.16 9.62 9.62 0 0 0 .145-.703c.26-1.436.33-2.895.505-4.341.086-1.032.129-2.066.267-3.095.131-.947.244-1.895.35-2.846.047-.49.084-.98.208-1.46.125-.36-.373-.506-.636-.642-.243-.102-.437-.278-.67-.395a1.116 1.116 0 0 0-.344-.133c.098-1.365.211-2.728.31-4.09a.233.233 0 0 0-.063-.158c-.002-.013-.008-.026-.012-.038a.256.256 0 0 0-.091-.16.975.975 0 0 0-.19-.188c-.252-.307-.507-.622-.793-.916-.409-.422-.582-.972-.948-1.434a.814.814 0 0 0-.155-.173 37.212 37.212 0 0 0 3.05-.89c.317-.095.672-.194 1.033-.265a.693.693 0 0 0 .122-.019l.026.007c.14.022.292-.071.31-.208.162-1.223.446-2.428.564-3.657.19-1.204.35-2.403.457-3.617.177-1.85.321-3.739.473-5.595.04-.498.203-.984.24-1.48a.237.237 0 0 0-.155-.204v.004Zm-11.453-5.295c.117-.033.283-.073.419-.072.127-.004.305.034.46.033 1.794.979 3.65 1.858 5.415 2.885 1.35.81 2.709 1.612 4.092 2.372l.191.115c-1.343.285-2.65.783-3.964 1.166-.661.201-1.3.468-1.974.627-.948.217-1.878.489-2.814.74a228.18 228.18 0 0 1-3.588.944l-.021-.002c-.034 0-.042 0-.067.004-.115.035-.233.015-.35 0-.23-.198-.558-.387-.724-.51a117.014 117.014 0 0 0-2.747-1.622c-1.948-1.11-3.865-2.264-5.782-3.42a.35.35 0 0 1 .192-.215c.016-.01.031-.022.045-.034.44-.114.878-.23 1.316-.351 1.775-.515 3.572-.959 5.345-1.483 1.345-.379 2.683-.82 4.053-1.12.134.078.342 0 .504-.057Zm-3.057 19.41c-.123.949-.152 1.908-.248 2.859a1.77 1.77 0 0 1-.234.518c-.098.109-.176.233-.287.333a.7.7 0 0 0-.157.184c-.99.324-1.985.643-2.989.946-2.983.845-5.997 1.614-8.978 2.477a.509.509 0 0 0-.184-.163.696.696 0 0 1-.138-.315c.03-.47.035-.944.042-1.416.055-1.565.086-3.146.1-4.717.024-1.05-.073-2.113-.13-3.165-.035-1.021-.056-2.043-.087-3.065.036-.188.133-.355.268-.506l.231-.068c2.873-.852 5.692-1.844 8.61-2.576 1.376-.37 2.758-.72 4.142-1.067a.264.264 0 0 0 .06-.008.403.403 0 0 1 .299.158c.03.047.044.101.06.153.006.015.011.03.02.043-.02.35-.02.703-.049 1.049-.06 1.329-.077 2.638-.123 3.972.033 1.462-.105 2.918-.228 4.373Zm-6.037 18.948a2.11 2.11 0 0 0 0 .207l-.001.017c-.085.348-.205.695-.514.927-.033.02-.07.042-.11.062a30 30 0 0 0-2.007.341c-.511.05-1.021.1-1.533.148-1.461.167-2.906.407-4.368.577-2.16.286-4.311.584-6.463.93l-.945.12c0-.013 0-.028-.004-.043-.077-1.379.116-2.76.067-4.151a91.28 91.28 0 0 0-.05-2.427.223.223 0 0 0 .034-.18c.042-.142.093-.283.146-.42.564-1.48 1.671-2.734 2.88-3.8.567-.523 1.147-1.038 1.81-1.456.414-.27.904-.494 1.34-.74a16.67 16.67 0 0 1 1.641-.828c.154-.076.326-.115.49-.17l.288-.085c.096-.009.19-.038.284-.06.401-.075.809-.1 1.217-.113 1.462-.147 2.922-.327 4.385-.483a75.152 75.152 0 0 1 .952-.088c.147.038.28.12.403.202.128.122.164.29.25.436.025.045.045.1.066.151-.013.399-.034.797-.036 1.194.067.87.035 1.733-.008 2.6-.038.916-.024 1.814-.075 2.73-.042 1.201-.008 2.438-.054 3.642a7.975 7.975 0 0 1-.043.58.227.227 0 0 0-.04.18h-.002Zm-16.5 3.06a.838.838 0 0 0 .037.338c-1.877.247-3.745.511-5.629.782-1.192.18-2.41.255-3.609.408-1.534.179-3.05.402-4.595.587-.602.075-1.2.17-1.797.264l-.276.03c-.187.029-.374.06-.56.096-.088.006-.181.011-.27.024-.08-2.58.004-5.17.089-7.75.066-1.919.044-3.844.182-5.761.006-.03.01-.06.013-.092.109-.023.22-.057.315-.06 1.628-.282 3.3-.445 4.95-.597.52-.044 1.04-.073 1.559-.117.102.008.2-.016.278-.074.525.377 1.05.753 1.576 1.127.41.28.806.576 1.179.897.14.092.29.294.458.36a.275.275 0 0 0 .289.101c.278-.077.556-.155.833-.235 1.782-.277 3.722.496 4.589 2.028.09.212.201.417.292.63.056.107.079.279.12.434.02 1.116.088 2.231.059 3.347.025 1.074-.124 2.15-.08 3.232H34.8Zm-17.25 1.808-.03-.05c-.439-.824-.905-1.635-1.351-2.457a422.347 422.347 0 0 0-2.646-4.8c0-.012-.003-.023-.005-.036.033-.091.03-.207.036-.306.093-1.33.09-2.666.143-3.999.058-1.115-.011-2.216.044-3.335-.004-1.16-.097-2.265-.11-3.439.01-.481.05-.992.07-1.492a.722.722 0 0 0 .024.033c.782 1.209 1.503 2.458 2.284 3.671.42.66.79 1.34 1.158 2.026.222.408.432.82.673 1.217 0 .008.001.015.004.023-.017.241-.047.482-.048.724a62.353 62.353 0 0 0-.085 3.091c-.086 3.04-.225 6.085-.163 9.126l.001.003ZM11.83 30.89c-.703-.493-1.399-.993-2.094-1.492 0-.136-.085-.294-.151-.404a1.507 1.507 0 0 1-.016-.043c.063-1.013.12-2.03.212-3.043.118-1.536.166-3.07.118-4.608.022-1.413.035-2.82.059-4.232.005-.005.01-.01.013-.015.353-.502.606-.295.82-.294 2.368 1.622 4.768 3.205 7.134 4.829a.268.268 0 0 0 .066.052l.011.005c.07.155.29.302.381.446.118.209.206.387.261.631v.002a71.447 71.447 0 0 0-.132 2.68c-.083 1.301-.17 2.602-.211 3.905.052 1.344.026 2.691.03 4.038.014.433.02.869.014 1.306-.01.088-.018.176-.021.265-.047.131-.107.27-.244.317-2.087-1.445-4.189-2.87-6.25-4.348v.003Zm13.288-18.837 1.172-.28c1.432-.375 2.854-.787 4.298-1.12a215.31 215.31 0 0 1 7.257-1.732c.099.004.198 0 .297.019.215.006.435.038.636.112.062.054.135.1.218.11.495.293.986.592 1.47.902 1.337.855 2.677 1.742 4.049 2.56.897.559 1.79 1.127 2.687 1.687a.165.165 0 0 0-.012.046.295.295 0 0 1-.063.137.243.243 0 0 0-.08.04c-2.316.569-4.636 1.119-6.918 1.794-1.19.32-2.394.596-3.59.894l-1.51.42c-.12-.007-.24.076-.363.091a1.741 1.741 0 0 1-1.062-.023.634.634 0 0 0-.226-.062 311.89 311.89 0 0 0-7.447-4.585c-.36-.227-.721-.452-1.082-.678l.001-.02c-.025-.172.15-.224.272-.313l-.004.002Zm-6.233 22.64v-.069a36.38 36.38 0 0 0-.018-1.432c.005-1.253.029-2.507-.025-3.758.082-2.064.195-4.14.32-6.208.043-.058.049-.125.046-.194.007-.011.013-.023.017-.035.078-.119.226-.266.396-.22a.23.23 0 0 0 .047.023c.11.077.218.154.329.23 2.244 1.543 4.467 3.118 6.741 4.625.699.449 1.396.898 2.117 1.35.136.061.304.228.472.323.04 1.4-.094 2.83-.165 4.235-.203 2.716-.37 5.436-.514 8.155a1.83 1.83 0 0 0-.031.23.216.216 0 0 0-.034.083c-.001.058-.025.108-.048.163a.515.515 0 0 1-.212.228c-.584-.471-1.238-.891-1.838-1.341-1.298-.893-2.54-1.856-3.843-2.745-1.17-.801-2.355-1.582-3.526-2.382-.047-.114-.133-.232-.174-.337a1.5 1.5 0 0 1-.068-.38c.003-.095.006-.19.007-.285l.019-.067a.254.254 0 0 0-.014-.194l-.001.002Zm9.47-6.612c-1.354-.844-2.666-1.743-3.97-2.652-1.467-1.01-2.931-2.022-4.397-3.033a.361.361 0 0 0-.05-.039.016.016 0 0 0-.002-.008c-.09-.231-.023-.447.203-.56.2-.057.398-.116.596-.182a39.968 39.968 0 0 1 3.888-1.047c1.159-.273 2.3-.605 3.462-.86 1.681-.329 3.362-.636 5.024-1.036.258-.014.515.04.761.106.138.05.274.099.428.157a.256.256 0 0 0 .176.033c1.964 1.226 3.946 2.426 5.887 3.681.88.563 1.756 1.203 2.607 1.83.033.09.042.181-.095.3l-.015.024c-3.592 1.073-7.15 2.193-10.744 3.288-.804.23-1.61.46-2.42.67a.28.28 0 0 0-.115.063.212.212 0 0 0-.062.01c-.055-.036-.112-.07-.157-.103-.343-.225-.648-.41-1.01-.642h.004Zm12.994-5.404c-2.124-1.44-4.369-2.733-6.543-4.113a1.733 1.733 0 0 1-.006-.082.942.942 0 0 1 .27-.28.334.334 0 0 0 .065-.064c1.004-.273 2.005-.551 3.02-.79 1.47-.323 2.904-.766 4.353-1.156 1.619-.43 3.251-.816 4.878-1.217a2.73 2.73 0 0 1 .635.03c.142.014.282.048.412.104a.288.288 0 0 0 .158.058c.3.182.601.362.905.539 2.543 1.576 5.184 3.009 7.736 4.57.02.042.045.087.062.13a.36.36 0 0 1-.098.241.241.241 0 0 0-.038.05c-2.178.552-4.36 1.102-6.522 1.71-2.058.59-4.07 1.3-6.126 1.903a.264.264 0 0 0-.123-.036c-.2.044-.399.066-.6.005a1.742 1.742 0 0 1-.368-.127c-.008-.004-.016-.01-.024-.013a.302.302 0 0 0-.145-.106l-.062-.047c-.608-.44-1.214-.885-1.837-1.31h-.002Zm-9.863-5.627c.482.318.966.631 1.453.941a.332.332 0 0 1-.217.23c-.008.004-.014.01-.021.016-1.583.407-3.205.647-4.805.985-1.146.258-2.27.579-3.412.848-1.004.247-2.028.438-3.003.778-.491.143-.977.305-1.468.45a.262.262 0 0 0-.206.01c-.502.13-1.044.12-1.52-.09-.009-.006-.02-.01-.03-.016a451.262 451.262 0 0 0-6.076-4.115c-.398-.27-.794-.544-1.19-.817a.255.255 0 0 0-.098-.172c-.022-.06-.07-.115-.058-.18a.6.6 0 0 1 .07-.232l.006-.013c.569-.142 1.147-.268 1.69-.477 1.297-.375 2.622-.656 3.936-.982 1.997-.557 4.035-.968 6.03-1.534l.6-.152c.142.024.32-.005.45.006.213.02.383.056.594.116.09.03.18.06.25.122.029.016.06.028.09.031a924.073 924.073 0 0 0 6.933 4.246l.002.001Zm-.135 25.23c-.555.164-1.111.33-1.668.49-.049.005-.096.012-.144.018a.338.338 0 0 0-.09-.088c-.154-.093-.266-.232-.28-.408a2.797 2.797 0 0 1-.014-.112c.005-.112.012-.224.018-.335a.614.614 0 0 0 .014-.27c.119-2.097.263-4.194.378-6.292.167-2.018.284-4.03.32-6.054.589-.155 1.177-.313 1.76-.485 3.8-1.125 7.586-2.335 11.392-3.473a.61.61 0 0 0 .1-.017c.162.02.262.177.374.285v.005c0 .057.002.115.008.172.016 1.512.09 3.023.172 4.533.085 1.306-.003 2.615-.005 3.923-.038 1.027-.038 2.094-.087 3.142a.24.24 0 0 0-.038.25c0 .021.004.041.005.062-.01.035-.022.072-.03.108-.072.33-.214.673-.487.913l-.001.003c-1.694.517-3.377 1.036-5.073 1.543l-.014.004c-.512.153-1.03.306-1.545.456-1.705.538-3.344 1.113-5.067 1.625l.002.003ZM50.418 5.949c.096-.018.192-.035.29-.05.186.024.39.112.558.11.817.462 1.636.921 2.458 1.373 2.051 1.15 4.14 2.237 6.212 3.357a.227.227 0 0 0 .012.133c-.038.076-.11.134-.16.2-1.484.322-2.931.81-4.391 1.214-2.21.617-4.422 1.24-6.645 1.819-.086.002-.179.03-.264.031a3.12 3.12 0 0 1-.773-.136.23.23 0 0 0-.065-.01c-1.47-.915-2.927-1.848-4.406-2.751-1.293-.822-2.582-1.67-3.904-2.465a.292.292 0 0 1 .048-.096c.043-.05.1-.091.153-.134l.275-.061c2.455-.597 4.89-1.26 7.36-1.8.999-.215 1.974-.487 2.976-.684.08.017.175.004.266-.05ZM29.981 3.143l.253-.057c3.8-.892 7.62-1.656 11.425-2.54.024.022.05.04.096.063.507.201.927.577 1.407.838 2.304 1.247 4.571 2.554 6.846 3.85a.344.344 0 0 0 .004.11c-.004.051-.049.087-.093.122-.833.17-1.655.39-2.486.572-2.676.586-5.316 1.306-7.98 1.938a.296.296 0 0 0-.166.04l-.076.017a.269.269 0 0 0-.13.004c-.236.04-.425.028-.672-.02-.133-.038-.27-.1-.387-.076-.143-.08-.287-.16-.43-.238-.928-.554-1.908-1.032-2.821-1.61a12.415 12.415 0 0 0-1.194-.753c-1.116-.667-2.29-1.216-3.42-1.86-.034-.022-.068-.044-.102-.068a.231.231 0 0 0-.023-.04c-.079-.081-.087-.191-.052-.291l.001-.001Zm-13.7 3.53c.012-.048.065-.074.096-.112l.001-.001c1.825-.428 3.65-.846 5.469-1.318 1.9-.467 3.78-1.002 5.672-1.494a.248.248 0 0 0 .077.16c.375.259.758.518 1.149.764.355.235.717.46 1.082.681.122.076.289.052.375-.063.218-.362-.397-.502-.616-.69-.514-.32-1.014-.662-1.518-.992l.177-.046c.11.035.245-.011.366-.006.232-.023.521.046.743.13.077.038.155.079.232.1.444.296.907.545 1.406.784.724.392 1.456.772 2.166 1.187.532.282.977.593 1.489.934.905.524 1.822 1.031 2.734 1.546a.204.204 0 0 0 .006.086.167.167 0 0 1-.04.154.269.269 0 0 0-.053.05c-4.161.9-8.267 2.011-12.39 3.052l-.03.008a68.65 68.65 0 0 0-.137.034c-.117-.066-.267-.014-.402-.008-.245-.005-.483.005-.723-.097a.277.277 0 0 0-.18-.009c-2.027-1.263-4.057-2.522-6.077-3.795-.353-.232-.71-.463-1.05-.712l-.025-.03-.007-.02c-.036-.092-.004-.182.007-.278l.001.002Zm-9 2.19c1.493-.37 2.996-.796 4.502-1.165.995-.268 1.995-.519 2.998-.759.071.09.212.124.34.113.125.017.229.043.358.084.09.033.19.064.277.107l.068.036c.756.578 1.573 1.084 2.397 1.572.906.567 1.794 1.157 2.71 1.708.688.428 1.377.856 2.066 1.282a.468.468 0 0 1-.227.224.228.228 0 0 0-.065.063c-.153.037-.306.075-.46.111-2.203.604-4.44 1.094-6.646 1.685-1.222.28-2.45.554-3.636.949-.347.103-.699.196-1.051.287a.265.265 0 0 0-.248.007c-.298.11-.662.156-.973.052-.122-.045-.254-.073-.38-.116-2.096-1.46-4.196-2.912-6.405-4.226a17.573 17.573 0 0 1-.989-.608c1.81-.412 3.564-.928 5.368-1.404l-.004-.002ZM3.184 24.746c-.451-.3-.917-.58-1.343-.912-.183-.136-.345-.308-.553-.41 0-.105-.011-.212-.008-.298-.162-3.101-.093-6.203.05-9.303.073-1.095-.03-2.196.053-3.288 1.495.952 3.013 1.849 4.5 2.828.98.65 1.946 1.336 2.913 2.017.031.054.074.107.108.163.267.402.421.867.5 1.335a.269.269 0 0 0 .013.069c-.031 2.152-.066 4.303-.04 6.457-.06 1.54-.186 3.075-.295 4.611a.237.237 0 0 0-.058.17.283.283 0 0 0-.036.088.534.534 0 0 1-.302.375c-.71-.506-1.425-1.008-2.148-1.498-1.137-.779-2.2-1.652-3.356-2.404h.002Zm2.174 8.576a10.031 10.031 0 0 1-.38-.645c-.027-.043-.05-.091-.075-.14a.193.193 0 0 0 .013-.068 5.214 5.214 0 0 1 .063-.818c.1-.789.15-1.587.2-2.385a.452.452 0 0 0 .108-.133c.646-.607 1.667-.617 2.467-.29.173.07.336.155.502.24.165.16.3.344.37.565.096.202.175.412.219.63l.01.083c-.006.397-.018.794-.011 1.191-.101 1.655-.194 3.31-.264 4.967-.015.192-.024.386-.032.58a.23.23 0 0 0-.048.175c.004.097.007.195.008.292-.018.02-.037.042-.059.062-.216.14-.465.001-.624-.18-.184-.32-.369-.643-.555-.963-.659-1.04-1.225-2.135-1.916-3.162l.004-.001Zm6.515 24.966v.182c-.035.3-.076.662-.393.813l.017-.007a.489.489 0 0 1-.188.064c-1.405-.718-2.79-1.472-4.197-2.188-1.463-.715-2.93-1.43-4.386-2.161-.565-.272-1.107-.582-1.689-.827-.039-.02-.082-.043-.126-.063a.972.972 0 0 0-.007-.127c-.11-1.524-.043-3.053-.118-4.578-.05-1.389-.217-2.773-.216-4.163.04-1.166-.022-2.331-.014-3.497.075.031.15.063.215.105.7.378 1.4.69 2.146.992a99.903 99.903 0 0 0 3.184 1.55c1.351.61 2.717 1.195 4.055 1.834.635.479 1.207 1.024 1.402 1.808.102.476.052.965.107 1.446.013.24-.056.52.049.75.01.015.02.026.032.038.015 1.78.069 3.567.073 5.36.016.858.054 1.718.055 2.578 0 .006-.003.01-.003.016l.003.074-.001.001ZM11.57 43.99a420.387 420.387 0 0 1-2.059-3.595c-.074-.19-.212-.398-.224-.555-.21-.578-.221-1.19-.235-1.796v-.012c.002-.122.006-.242.01-.363a6.624 6.624 0 0 1 .02-.373c.04-1.002.1-2 .15-3 .017-.877.098-1.753.15-2.63.002-.37.006-.747.01-1.125a.553.553 0 0 0 .002-.262l.004-.341c.586.325 1.093.77 1.573 1.219.315.32.618.657.91 1.006.202.33.405.656.63.97.231.267.43.556.622.849a.272.272 0 0 0 0 .094c.08.39.024.794-.01 1.202-.01.289 0 .58-.03.867-.017 1.006.083 2 .092 3.012.012 2.468-.03 4.948-.147 7.418-.485-.864-.975-1.727-1.468-2.586Zm12.403 14.082a.525.525 0 0 0-.006.182c-.014.434-.029.866-.057 1.3-.03 1.943.032 3.903-.1 5.847a10.13 10.13 0 0 0-.174-.078 388.11 388.11 0 0 1-5.448-2.629c-1.73-.917-3.49-1.739-5.275-2.56a.232.232 0 0 0-.095-.093c-.078-.111-.169-.216-.24-.33-.113-.27-.117-.568-.164-.851l-.004-.199c.001-.07.001-.139.003-.207a.292.292 0 0 0 0-.11V58.252c0-1.08-.078-2.163-.058-3.244-.03-1.787-.06-3.579-.097-5.37.052-.096.09-.208.121-.294.091-.213.238-.353.389-.538.479-.198 1.22.831 1.45 1.172.126.165.232.342.348.514.025.06.067.114.117.156a763.45 763.45 0 0 0 1.601 2.902c.323.606.663 1.207.992 1.809.08.164.164.439.35.49.037.051.098.088.192.095h.03c.046.03.102.04.163.04.12.015.266-.014.398-.041h.01c.32-.04.636-.091.952-.143l.192-.019c1.197-.09 2.552-.239 3.564.502.448.287.708.731.834 1.222.006.015.015.043.024.075l-.016.5.004-.007Zm12.843 8.498c-.043 1.218-.122 2.435-.192 3.652a8.538 8.538 0 0 0-.117 1.091l-.007-.004c-.806-.394-1.612-.79-2.42-1.182-3.177-1.634-6.48-3.025-9.746-4.492.087-.509.042-1.026.07-1.54.051-1.3.039-2.598.039-3.897.013-.687.039-1.373.066-2.06.198-1.207.573-2.555 1.93-3.012.497-.167 1.003-.346 1.536-.366.06.038.138.065.214.087.934.365 1.857.842 2.78 1.253.767.38 1.592.639 2.37.998 1.2.519 2.372 1.145 3.63 1.545.098.03.19.088.285.13.002.022.01.044.018.064-.035.59-.086 1.18-.115 1.77-.085 1.989-.277 3.973-.34 5.962v.001Zm11.319-5.704c.004.892-.015 1.785-.072 2.676a.294.294 0 0 0-.03.172c-.075.747-.236 1.222-.874 1.708l-.426.246c-2.949 1.666-5.886 3.33-8.773 5.092-.3.196-.605.386-.912.573 0-.135.004-.27.02-.406.172-1.108.168-2.232.242-3.349.127-2.937.325-5.869.508-8.803a.215.215 0 0 0-.002-.066c.308-.203.67-.321.988-.51.467-.242.93-.491 1.382-.76.791-.43 1.63-.779 2.417-1.218 1.426-.791 2.831-1.616 4.25-2.418.39-.06.774-.068 1.054.281.116.135.225.287.263.46.017.078.019.164.04.243-.008.473-.017.946-.027 1.417.004 1.554.023 3.108-.047 4.661h-.001Zm10.185-3.628c0 .093 0 .186.002.28a.217.217 0 0 0-.014.093c-.016.28-.05.565-.159.826a3.038 3.038 0 0 1-.4.57c-.047.051-.102.108-.149.169-1.955 1.157-3.922 2.3-5.86 3.481-.879.527-1.748 1.065-2.623 1.597a.462.462 0 0 0-.157-.064.51.51 0 0 1-.257-.354c-.08-.186-.006-.546-.073-.775.034-.82.036-1.64.055-2.459.072-1.917.026-3.837.055-5.755 0-.003.003-.005.004-.009a.93.93 0 0 0 .06-.245c.025-.167.115-.33.068-.501.028-.07.065-.137.093-.206a.41.41 0 0 0 .051-.243c.101-.23.214-.457.39-.646.528-.532 1.245-.95 1.954-1.242.265-.084.537-.143.81-.188.307-.035.613-.072.92-.108.197-.018.395-.033.593-.05.281-.026.561-.058.842-.077a5.4 5.4 0 0 1 .87.166c.304.06.617.091.907.207.461.172.834.506 1.203.809.166.193.29.417.452.615.109.15.194.54.34.777 0 .07.002.139.003.209 0 .006-.003.01-.003.017a.263.263 0 0 0 .004.118c.006.506.01 1.01.007 1.516 0 .44.014.884.02 1.33a.23.23 0 0 0-.007.141v.001Zm9.2-15.14a.247.247 0 0 0 .082-.03c.381-.193.7-.47 1.052-.704l.056-.037c-.106.605-.133 1.22-.215 1.828-.104.866-.225 1.741-.32 2.619-.126.825-.13 1.657-.205 2.484-.096.971-.213 1.94-.297 2.911a15.888 15.888 0 0 1-.358 2.231.293.293 0 0 0-.131.119c-1.82 1.02-3.65 2.022-5.437 3.092-.851.515-1.652 1.049-2.488 1.57a.184.184 0 0 0-.052-.02c-.141-.017-.225-.139-.285-.249a1.128 1.128 0 0 1-.053-.266c.003-.729-.033-1.457-.024-2.192l-.01-1.3.025-.162c.17-.938.704-1.678 1.463-2.3.41-.412.93-.672 1.46-.928.69-.315 1.413-.608 2.169-.774.666-.183 1.345-.326 2.02-.481.166-.025.33-.046.498-.064a.27.27 0 0 0 .098-.043.247.247 0 0 0 .194-.213c.17-.816.243-1.642.33-2.47.177-1.273.292-2.551.387-3.831.012-.264.027-.527.041-.792v.002ZM67 35.965c.136-.025.288-.019.435-.028-.075.912-.143 1.824-.225 2.736-.18 2.288-.24 4.584-.511 6.866-.153 1.083-.197 2.182-.415 3.254l-.026.158c-.15.013-.297.038-.443.068-.4.055-.813.118-1.2.193-.827.064-1.64.17-2.454.327-.48.066-.963.118-1.44.208-1.469.303-2.95.55-4.436.774-.793.088-1.581.197-2.38.256-.036.007-.073.012-.11.017-.499.025-.997.06-1.495.103-.039-.022-.082-.043-.122-.062a.854.854 0 0 1-.331-.586.822.822 0 0 1-.008-.13c.002-.016.008-.032.01-.049l-.005.017a.237.237 0 0 0 .007-.125c.027-.245.054-.492.063-.75.055-1.29.016-2.578.066-3.867.056-1.264.039-2.573.124-3.843.016-.513-.057-1.024-.046-1.538.008-.31.022-.62.032-.93a.322.322 0 0 0 .004-.16v-.01c.065-.218.173-.415.335-.59.1-.12.214-.128.362-.204.14-.052.295-.062.43-.13a48.495 48.495 0 0 0 2.09-.24c1.277-.178 2.552-.36 3.821-.576 1.912-.208 3.82-.47 5.709-.835.72-.099 1.43-.273 2.16-.322v-.002Zm4.014-14.871c-.123 1.527-.275 3.053-.42 4.578-.174 1.03-.298 2.068-.445 3.101-.078.49-.172.979-.255 1.47-.115.376-.32.74-.702.938a.251.251 0 0 0-.043.03 8.573 8.573 0 0 0-.306.085c-.886.28-1.77.562-2.668.807-.355.088-.713.173-1.07.252a.256.256 0 0 0-.142.03c-.344.073-.692.142-1.04.202-.804.147-1.581.382-2.374.572-1.17.357-2.328.733-3.487 1.115a.219.219 0 0 0-.07-.067c-.039-.027-.092-.038-.118-.075a.752.752 0 0 1-.202-.463c-.017-.095.004-.191-.004-.285.035-.456.058-.914.098-1.37.119-1.263.259-2.524.314-3.79.058-1.58.023-3.163.122-4.741.035-.63.02-1.266.073-1.896.019-.066.023-.14.03-.207.05-.198.19-.36.347-.496a.306.306 0 0 0 .067-.062l1.906-.48c1.412-.4 2.828-.786 4.252-1.149 1.001-.21 1.938-.615 2.915-.9.738-.21 1.433-.438 2.17-.677.472-.162.972-.233 1.457-.343-.246 1.261-.297 2.542-.402 3.818l-.003.003Z"/><path fill="#000" d="M69.677 19.181c-.07.764.007 1.53-.045 2.293a.26.26 0 0 0 .242.276c.408.004.297-.5.32-.759a14.223 14.223 0 0 1 .046-2.017c.063-.209-.147-.435-.376-.337-.219.097-.148.359-.187.543v.002ZM69.757 22.346c-.143.005-.272.124-.26.262.012.137.128.249.279.244.142-.005.271-.124.26-.262a.267.267 0 0 0-.28-.244ZM41.718 31.827c.015.472.03.945.108 1.412.023.136.182.222.319.194.164-.031.238-.187.202-.331-.112-.784-.078-1.578-.142-2.366-.014-.263-.014-.78-.438-.667-.167.048-.23.26-.127.386.05.455.062.913.078 1.37v.002ZM42.033 34.61c-.145.01-.26.135-.247.273a.266.266 0 0 0 .289.232c.145-.01.26-.134.248-.272a.267.267 0 0 0-.29-.232ZM17.207 23.21c-.074.613-.161 1.226-.19 1.842a.264.264 0 0 0 .255.267c.144.008.278-.101.282-.239.024-.655.14-1.301.195-1.955-.022-.46-.75-.352-.542.083v.002ZM17.04 26.436c-.145.01-.26.134-.247.272a.267.267 0 0 0 .289.232c.145-.01.26-.134.247-.271a.266.266 0 0 0-.289-.233ZM7.764 24.421c.185-.012.27-.18.247-.336.002-.179.02-.358.04-.535.047-.434.104-.858.18-1.293.081-.23-.05-.52-.35-.431a.254.254 0 0 0-.172.29c-.1.688-.237 1.377-.234 2.073.006.137.148.242.29.232ZM7.594 25.653c.145-.01.26-.134.247-.272a.267.267 0 0 0-.29-.233c-.144.01-.259.134-.247.272a.267.267 0 0 0 .29.233ZM31.105 6.058c.141-.005.27-.125.258-.263a.267.267 0 0 0-.28-.243c-.14.005-.27.125-.258.263.012.138.13.248.28.243ZM27.637 16.454a.285.285 0 0 0 .374-.064.245.245 0 0 0-.067-.351c-.223-.137-.45-.268-.67-.411a12.27 12.27 0 0 1-.984-.736c-.228-.252-.635.068-.413.324.536.471 1.14.87 1.76 1.238ZM28.772 17.128c.141-.005.27-.126.258-.263a.268.268 0 0 0-.28-.243c-.141.005-.27.125-.258.263.012.138.129.248.28.243ZM65.895 42.453a.27.27 0 0 0 .3-.305c.063-.718.109-1.434.159-2.165.044-.232-.008-.627-.353-.551-.15.04-.236.202-.175.337-.038.55-.06 1.077-.106 1.633-.022.26-.051.52-.064.782-.013.124.1.259.239.268v.001ZM66.09 43.34c.262-.25-.233-.697-.49-.448-.264.25.233.698.49.448ZM19.212 43.025c-.163.044-.22.205-.18.348-.029.667-.11 1.334-.078 2.003.006.193.019.387.012.582-.038.182-.007.38.225.412.457 0 .288-.606.306-.884-.041-.627.027-1.255.058-1.88.04-.241.029-.656-.344-.58l.001-.001ZM19.203 46.57c-.14.003-.275.122-.263.259.012.138.123.25.275.246.14-.002.274-.12.262-.258a.265.265 0 0 0-.274-.246ZM47.401 49.95c-.756.16-1.526.282-2.277.467-.28.092-.987.016-.927.428a.272.272 0 0 0 .318.198c.254-.058.514-.09.77-.14.757-.195 1.538-.297 2.295-.476.331-.119.155-.58-.179-.477ZM43.355 50.6c-.146.009-.261.133-.25.27.012.137.14.245.286.235.145-.01.261-.133.25-.27a.267.267 0 0 0-.286-.235ZM8.275 33.517c.278-.003.28-.27.282-.467.034-.493.018-.985.02-1.48.003-.215 0-.545-.325-.52-.143.017-.255.147-.232.283.049.64.018 1.287-.012 1.928-.003.138.123.255.268.255h-.001ZM11.082 41.217c-.264-.402-.469-.842-.751-1.23-.144-.143-.419-.074-.467.117a.252.252 0 0 0 .098.27c.075.119.145.243.218.364.214.37.439.736.654 1.105a.28.28 0 0 0 .35.13c.363-.174.012-.53-.101-.756h-.001ZM11.535 42.296a.259.259 0 0 0-.231.284c.012.137.161.235.301.217a.259.259 0 0 0 .231-.283c-.012-.138-.161-.235-.3-.218ZM49.704 57.453c.341.003.292-.342.263-.565-.025-.574-.052-1.148-.045-1.724.013-.37-.561-.402-.557-.022.044.68.024 1.353.084 2.045a.262.262 0 0 0 .253.267h.002ZM49.557 57.658c-.297.193.052.66.346.465.297-.193-.053-.658-.346-.465ZM46.255 64.604c-.623.39-1.246.754-1.83 1.2-.116.082-.154.234-.068.35.212.261.48-.013.672-.149.428-.325.935-.604 1.394-.899.167-.097.367-.212.344-.423-.006-.256-.422-.318-.512-.08v.001ZM43.639 66.333c-.147.011-.259.135-.248.272.012.138.144.243.29.233.146-.012.258-.136.247-.272-.012-.138-.144-.243-.29-.233ZM36.016 60.445c.024.522-.062 1.045-.073 1.569.005.244-.166.68.22.722.412-.007.267-.526.322-.784.016-.38.051-.761.067-1.142.007-.17.022-.343-.021-.51-.085-.355-.643-.204-.515.145ZM35.897 63.174c-.234.255.226.628.458.368.234-.256-.226-.629-.458-.368ZM15.563 53.142c-.256-.449-.505-.902-.777-1.343-.08-.128-.125-.276-.22-.395-.202-.236-.614.032-.434.299.263.487.557.96.826 1.445.175.227.256.819.67.627.268-.17.02-.434-.065-.633ZM15.808 54.044c-.144.008-.265.129-.255.267a.267.267 0 0 0 .284.239c.144-.008.265-.13.255-.267a.267.267 0 0 0-.284-.239ZM1.946 43.684c.03-.328-.36-.625-.58-.276a.233.233 0 0 0 .039.255c.036.334-.016.666-.062.995-.038.327-.015.656-.023.983.008.24-.145.653.24.678.41-.011.263-.613.301-.876-.047-.59.13-1.171.086-1.76h-.001ZM1.51 46.91a.26.26 0 0 0-.234.282c.012.138.16.236.3.22a.26.26 0 0 0 .234-.282c-.012-.138-.16-.237-.3-.22Z"/></g><defs><clipPath id="a"><path fill="#fff" d="M0 0h72v72H0z"/></clipPath></defs></svg>