<svg xmlns="http://www.w3.org/2000/svg" width="68" height="72" fill="none"><g clip-path="url(#a)"><path fill="#fff" d="M17.652 57.717c-.058-.996.095-1.976.171-2.961a.333.333 0 0 1-.03-.098c-.034-.253-.244-.439-.427-.59-.459-.14-.954-.114-1.423-.053-.336.038-.589.275-.788.533-.034.035-.05.08-.065.124a.256.256 0 0 1-.091.114c-.004.065-.006.13-.005.194-.058.772.023 1.528-.006 2.296-.02 1.26.09 2.52.16 3.774a53.85 53.85 0 0 1 2.519-.059c-.025-1.091-.005-2.182-.014-3.274ZM20.91 61.094a52.236 52.236 0 0 0-.035-.621c-.091-1.182-.188-2.363-.25-3.546.005-.718.013-1.435.019-2.15a.288.288 0 0 1-.078-.248c-.037-.166-.092-.335-.206-.464-.375-.225-.852-.133-1.246-.036-.322.107-.536.38-.695.674a.286.286 0 0 1-.04.052c-.036.483-.094.965-.144 1.446-.048.577-.037 1.15-.027 1.727-.003 1.018-.01 2.044.01 3.064.35 0 .699.005 1.05.01.547.021 1.093.08 1.642.09v.002ZM14.617 61.65c-.308.02-.615.04-.922.062-.33.027-.583.098-.891.146-.126.007-.248.006-.371.024.003.253.008.506.017.76.066 1.6.081 3.206.165 4.79v.052a.29.29 0 0 1 .059.106c.076.244.168.478.307.693.087.114.149.27.276.34.556.288 1.255-.182 1.412-.754a.279.279 0 0 1 .091-.188c-.012-.734-.017-1.462-.031-2.208a94.899 94.899 0 0 0-.112-3.824ZM17.68 61.56c-.541.003-1.083.013-1.62.017-.295.008-.59.022-.885.038 0 .034.003.07.005.104.055 1.62.111 3.23.121 4.85-.004.419 0 .836.011 1.254.026.039.043.087.047.147 0 .092.017.182.038.272.057.185.091.4.24.536.38.27.888.36 1.34.267.471-.12.792-.525.994-.953a35.865 35.865 0 0 0-.06-1.895c-.057-1.556-.18-3.092-.228-4.635l-.002-.001Z"/><path fill="#F2B3FF" d="M2.1 42.824c-.608.68-1.157 1.414-1.487 2.276-.078.249-.09.565.022.8.12.238.23.505.497.601.553.24 1.241.25 1.885.162a.723.723 0 0 1 .063-.153c.079-.226.053-.477.043-.712-.03-.58-.333-2.8-1.024-2.974Z"/><path fill="#fff" d="M12.694 61.298c.373-.057.744-.148 1.12-.162.258-.022.515-.038.773-.055l-.04-.773c-.031-1.056-.158-2.106-.11-3.165.019-.483-.023-.966-.02-1.45 0-.26.013-.52.028-.779a.294.294 0 0 1-.132-.192c-.114-.453-1.045-.377-1.347-.177a.687.687 0 0 0-.284.275.29.29 0 0 1-.063.057c-.022.189-.028.384-.063.517a13.351 13.351 0 0 0-.14 2.355c.035 1.187.01 2.373.014 3.56.095-.009.19-.009.267-.01l-.003-.001Zm.966-2.018c-.315-.233.037-.702.34-.45.282.235-.046.67-.34.45Zm-.225-3.3c-.034-.37.498-.433.55-.063.007.738.061 1.475.069 2.214.03.372-.503.434-.55.063-.025-.51-.007-1.023-.055-1.532-.038-.227.004-.456-.014-.681ZM18.894 61.57c-.22-.005-.44-.008-.66-.01.012.4.03.799.054 1.195.032 1.188.156 2.378.18 3.545.025.39.038.783.047 1.175a.554.554 0 0 1 .043.18c.02.036.033.077.036.122 0 .015 0 .032-.003.047.038.104.083.206.112.314.255.607.739.794 1.347.659.389-.147.69-.434.94-.766.034-.045.063-.094.095-.141v-.358c-.064-1.956-.062-3.914-.148-5.869-.683-.011-1.361-.101-2.045-.092h.002Zm.255 1.284c.252.269-.128.661-.392.402-.284-.275.127-.696.392-.402Zm-.349 2.241a7.02 7.02 0 0 1-.067-.989c-.102-.405.47-.546.542-.133.027.352.016.707.075 1.058.033.37-.498.435-.55.063v.001ZM23.866 61.595c-.78-.17-1.582-.047-2.37.036.06 1.474.058 2.952.106 4.426.021.574.038 1.15.037 1.724a.624.624 0 0 1 .024.178c.055.346.345.55.667.587.417.042.833-.024 1.231-.149a1.19 1.19 0 0 0 .077-.13c.365-.848.37-1.817.385-2.725-.01-1.078-.092-2.13-.125-3.2-.01-.25-.02-.498-.033-.747h.001ZM23.439 37.664a6.123 6.123 0 0 1-3.282 6.807c2.758-.48 5.445-1.806 7.08-4.084 0-.07.018-.143.058-.205.084-.231.165-.464.22-.704.187-.686.044-1.427-.285-2.042a.343.343 0 0 1-.063-.123c-1.805-2.235-4.462-3.515-7.242-3.958 1.675.707 3.055 2.195 3.515 4.309h-.002Z"/><path fill="#CE6AE2" d="M25.488 56.74c-.17-1.023-.322-2.05-.532-3.064-.131-.537-.222-1.104-.499-1.586-.567-.48-1.322-.3-1.982-.28-.835.011-1.664-.046-2.499.011-1.428.114-2.839.182-4.258.35-.996.097-1.99.218-2.974.403-.556.13-1.17.109-1.636.465-.507.835-.353 1.89-.402 2.83.018 1.016.008 2.03.026 3.047.123 1.405.076 2.818.058 4.227-.01.875.097 1.728.082 2.6.006.786.013 1.571-.009 2.356a9.15 9.15 0 0 0-.003.546c.007.063.008.127.005.191.003.14.01.281.014.43.035.494.037 1.05.39 1.432.207.25.59.372.877.44.535.127 1.082.168 1.629.187.527.043 1.052.12 1.583.105 2.304.022 4.574-.405 6.875-.4 1.009-.066 2.105-.065 3.017-.547.692-.441.757-1.355.857-2.109.17-2.685-.074-5.37-.27-8.043-.125-1.195-.202-2.396-.345-3.59h-.004Zm-1.32 11.71c-.453 1.084-1.737 1.103-2.722 1.206-1.17.152-2.345.285-3.524.234-1.54-.044-4.139.196-5.447-.609-.552-.498-.342-1.386-.42-2.06-.09-1.669-.095-3.296-.17-4.934-.015-1.1-.018-2.203.002-3.303-.042-1.3-.069-2.607.15-3.894.066-.437.075-.955.478-1.218.662-.342 1.46-.382 2.183-.428.623-.057 1.242-.156 1.868-.19 1.043-.09 2.093-.032 3.135-.11 1.082.02 2.166-.122 3.248-.039 1.035-.416 1.094 3.54 1.18 4.204.137 1.402.205 2.808.293 4.209.034 1.234.115 2.467.148 3.7.007 1.08.007 2.22-.401 3.231Z"/><path fill="#fff" d="M23.838 61.008a98.78 98.78 0 0 0-.216-3.178c-.115-1.02-.111-2.102-.304-3.12-.071-.075-.127-.186-.188-.28-.161-.22-.355-.44-.632-.495-.4-.076-.918-.042-1.149.354a1.147 1.147 0 0 0-.1.377.237.237 0 0 1-.052.103l-.005.471c.007.64-.025 1.278-.008 1.917.091 1.182.162 2.366.265 3.547l.02.36c.785-.098 1.586-.186 2.369-.055v-.001Zm-1.15-5.707c-.372-.166-.137-.716.226-.525.37.17.136.716-.226.525Z"/><path fill="#CE6AE2" d="M18.29 23.858c.352.002.7.016 1.049.043a.36.36 0 0 1 .062-.06l-.024.018c.57-.435 1.192-.78 1.766-1.208.631-.501 1.296-.959 1.951-1.42.255-.264.644.116.4.394-.398.353-.883.58-1.287.922-.639.504-1.313.986-1.981 1.404a.705.705 0 0 0-.069.036c.333.043.664.097.992.163.16-.17.46-.301.597-.433.295-.217.579-.453.895-.639.616-.438 1.22-.896 1.848-1.316.383-.273.743-.586 1.154-.81a.256.256 0 0 1-.008-.087 1.127 1.127 0 0 0-.009-.288c-.08-.463-.253-.938-.587-1.27-.183-.163-.417-.303-.655-.348-.077-.019-.165-.015-.247-.022-.66.406-1.346.775-2.016 1.146-.755.414-1.479.896-2.211 1.34-.635.364-1.274.718-1.912 1.075-.035.048-.073.093-.09.155-.092.298-.093.644.092.899.091.106.177.224.29.307v-.001Zm5.924-3.363c.151 0 .279.12.283.278.003.152-.12.291-.27.291a.283.283 0 0 1-.283-.278c-.004-.152.119-.29.27-.29ZM36.826 19.44c-.435.207-.877.391-1.293.64-.768.408-1.48.914-2.251 1.315-1.825 1.074-3.734 2.018-5.478 3.228-.532.346-1.025.63-1.545.976-.144.097-.286.195-.429.293a16.145 16.145 0 0 1 4.074 3.282c.14-.09.313-.16.422-.224.706-.363 1.412-.733 2.115-1.103 1.78-.938 3.517-1.975 5.417-2.643 1.442-.582 2.766-1.39 4.17-2.05.063-.025.132-.063.205-.1.204-.42.497-.791.656-1.224.238-.682.227-1.44.063-2.135-.083-.285-.192-.554-.364-.777a.34.34 0 0 1-.047-.072 43.183 43.183 0 0 0-.741-.633l-.1-.083c-.059.047-.126.085-.188.12-.16.094-.324.18-.456.252-.296.158-.567.359-.855.535-.289.182-.586.35-.877.529a.274.274 0 0 1-.38-.098c-.187-.388.357-.508.585-.68.297-.18.59-.363.877-.558.288-.19.552-.306.827-.47a10.24 10.24 0 0 0-.721-.49c-.097.09-.229.162-.328.22-.375.243-.783.418-1.169.639-.715.495-1.476.858-2.191 1.309l.002.001Zm1.169.968c-.358-.09-.227-.708.139-.621.357.084.224.712-.14.621ZM35.392 45.98c-.633-.316-1.372-.273-2.032-.076-.135.018-.277.089-.415.096a16.217 16.217 0 0 1-3.602 5.646c1.65-1.122 3.495-1.895 5.257-2.804.67-.277 1.293-.647 1.922-1.007.012-.037.023-.072.031-.11a1.31 1.31 0 0 0-.024-.493c-.245-.51-.65-.976-1.137-1.255v.003ZM44.553 29.977a3.492 3.492 0 0 0-.508.55c-.153.218-.61.956-.982 1.095-.776.857-1.939 1.138-3.03 1.304-.767.158-1.55.201-2.327.29-.617.1-1.242.143-1.848.307-.169.027-.357.104-.539.132a.864.864 0 0 1-.207.092c-.343.128-.673.29-1.013.424-.2.086-.397.176-.592.272-.112.045-.256.135-.396.186.434 1.252.724 2.588.844 3.992.233-.097.564-.128.722-.203.633-.198 1.245-.45 1.848-.728.117-.048.239-.085.355-.133a.272.272 0 0 1 .369.015c.104.105.114.296.005.403-.12.117-.288.153-.439.21-.739.322-1.48.65-2.259.859-.182.015-.387.144-.561.153.012.244.022.49.024.737.26-.103.519-.212.778-.318 1.002-.386 2.006-.77 3.006-1.162 2.24-.92 4.49-1.84 6.666-2.9 1.113-.426 2.19-.99 3.247-1.526.132-.063.266-.122.399-.184a.278.278 0 0 1 .168-.084c.106-1.024.072-2.06.05-3.092a22.79 22.79 0 0 0-.367-2.697c-.675.316-1.304.678-1.952 1.04-.498.294-1.053.541-1.461.965v.001Z"/><path fill="#F2B3FF" d="M28.92 56.045c.192-.078.383-.16.571-.247.92-.488 1.85-.962 2.743-1.5a407.477 407.477 0 0 1 6.25-3.249c1.413-.715 2.878-1.332 4.252-2.128.427-.283.93-.42 1.358-.69a53.884 53.884 0 0 0-.174-.382 14.174 14.174 0 0 1-5.276-.458c-.06.039-.13.072-.2.103l-.01.013c-.138.101-.311.148-.462.23l-.053.024c-.134.081-.28.17-.413.198-.62.31-1.217.671-1.823 1-.994.463-1.97.972-2.964 1.436-.8.433-1.629.812-2.405 1.288-.606.434-1.253.794-1.914 1.129-.058.132-.1.272-.131.413-.1.396-.024.814-.01 1.21a.288.288 0 0 1 0 .086c.227.503.447 1.012.66 1.521v.003ZM46.178 35.434c-.783.365-1.588.675-2.362 1.057-2.178 1.018-4.394 1.929-6.627 2.81-.738.279-1.471.57-2.208.852-.32.132-.64.267-.963.392a16.374 16.374 0 0 1-.799 4.68.573.573 0 0 0 .079-.037c.61-.237 1.17-.547 1.744-.851 2.06-1.09 4.255-1.866 6.408-2.734.972-.366 1.87-.872 2.8-1.326.654-.362 1.345-.638 1.988-1.02.015-.014.03-.022.047-.031.044-.099.113-.195.157-.284.202-.344.392-.695.58-1.048.42-.83.739-1.698.976-2.599.081-.287.145-.575.195-.865a15.08 15.08 0 0 0-.349.164c-.556.277-1.107.567-1.666.84Zm-2.076 2.27c-.307-.234.115-.814.419-.577.307.234-.117.813-.42.577Zm3.12-1.536c-.141.205-.403.211-.603.325-.37.213-.739.432-1.125.616a.28.28 0 0 1-.207.03c-.231-.051-.284-.41-.07-.522.53-.238.999-.608 1.55-.794.255-.27.656.023.453.345h.001ZM22.044 24.198c-.053.04-.107.077-.161.114 1.173.292 2.309.722 3.384 1.275.079-.052.161-.1.223-.148.359-.236.709-.487 1.08-.706 1.601-1.02 3.186-2.07 4.875-2.932 1.242-.697 2.467-1.423 3.694-2.15.409-.225.814-.457 1.25-.627.588-.316 1.161-.68 1.75-.993.542-.383 1.122-.663 1.697-.987a.808.808 0 0 0 .144-.088c-1.083-.595-2.254-1.016-3.448-1.327-.162-.047-.351-.02-.515-.062-.123.02-.256-.037-.306-.2l.007.02c-.469-1.273-.15-2.683.315-3.905.39-1.062.836-2.112 1.4-3.088.272-.491.547-.977.843-1.451.298-.485.583-.985.915-1.448h-.003a34.4 34.4 0 0 0-1.272.52 4.654 4.654 0 0 1-.628.279c-1.314.604-2.582 1.314-3.74 2.19-1.27.937-2.44 1.98-3.425 3.2-.573.636-1.042 1.359-1.44 2.12-.642 1.177-1.31 2.362-1.65 3.677-.281 1.11-.657 2.235-.715 3.384-.02.134.016.225-.05.339-.134.184-.379.23-.56.357-.613.462-1.24.903-1.869 1.342-.586.451-1.213.84-1.795 1.295Zm10.25-13.794c.515-.531 1.135-.936 1.69-1.418.523-.391 1.063-.786 1.663-1.034.3-.068.469.36.202.521-1.104.52-2.012 1.37-2.962 2.13-.18.18-.359.364-.54.545a.273.273 0 0 1-.39.009c-.27-.299.163-.548.338-.753Zm-.91 1.042c.151 0 .279.12.283.279.003.151-.12.29-.27.29a.283.283 0 0 1-.283-.278c-.004-.152.119-.29.27-.29Z"/><path fill="#fff" d="M42.564 31.332c.565-.57.78-1.002.455-1.795-.198-.292-.5-.472-.837-.564a1.482 1.482 0 0 0-.075-.01.393.393 0 0 1-.225-.049 2.469 2.469 0 0 0-1.053.104c-.91.368-1.668 1.024-2.404 1.671-.707.676-1.453 1.307-2.132 2.012-.074.07-.155.13-.235.193 1.331-.274 2.701-.287 4.032-.555.883-.14 1.808-.353 2.476-1.006l-.002-.001Zm-1.855-.442c.349-.141.703-.274 1.025-.475.224-.367.7-.005.452.34-.374.362-.914.505-1.382.705-.14.052-.303-.04-.347-.185-.06-.187.08-.345.253-.384h-.001Zm-1.36.911a.283.283 0 0 1-.29-.27c-.007-.148.112-.298.262-.298.15 0 .283.11.29.27.008.149-.112.298-.262.298ZM46.561 2.888c.661-.288 1.29-.971 1.064-1.76-.05-.139-.181-.225-.293-.31-.198-.117-.405-.274-.642-.26-.978.116-1.686.913-2.458 1.465-.553.415-1.14.785-1.636 1.274.657-.026 1.314.011 1.968-.069a5.326 5.326 0 0 0 1.996-.34h.001Zm-.48-1.07c.175-.086.334-.179.487-.289l-.006.007c.214-.191.578.064.417.359-.151.187-.387.285-.59.402-.186.115-.431.177-.538-.074-.073-.186.064-.35.232-.405h-.001Zm-.896.303c.15 0 .275.133.274.288a.283.283 0 0 1-.28.282.283.283 0 0 1-.273-.287c0-.156.127-.283.279-.283Z"/><path fill="#CE6AE2" d="M13.541 35.455c-3.014 3.794-.106 9.432 4.634 8.995 3.781-.35 6.017-4.65 4.22-8.077-1.771-3.453-6.463-3.926-8.852-.917l-.002-.001Zm.72 2.202c1.014-2.842 4.8-3.298 6.428-.775 1.605 2.434-.11 5.798-2.967 5.824-2.522.069-4.368-2.625-3.46-5.047v-.002Z"/><path fill="#fff" d="M49.208 21.195c.802-.904.321-1.504-.48-2.133-.417-.18-.918-.128-1.358-.068-.531.186-.965.59-1.384.964-.733.626-1.329 1.375-1.928 2.128-.244.28-.503.544-.735.833.79-.07 1.542-.25 2.343-.345 1.23-.21 2.672-.352 3.541-1.379h.001Zm-.672-1.034c.151 0 .283.11.29.27.008.15-.112.299-.262.299a.283.283 0 0 1-.29-.27c-.007-.15.112-.299.262-.299Zm-1.995 1.293a3.948 3.948 0 0 0 1.175-.614c.315-.186.594.283.288.485-.425.337-.93.558-1.44.719-.208.07-.476.155-.567-.13-.086-.347.317-.381.544-.46Z"/><path fill="#F2B3FF" d="M43.715 30.046v.005a.035.035 0 0 1 .006-.007c-.003 0-.005.002-.007.003v-.002ZM44.291 20.904l-.004.014c.003-.002.005-.006.009-.008 0-.003-.003-.004-.004-.005l-.001-.001ZM42.593 23.703c-.102.049-.21.017-.284-.053-.681.326-1.346.685-2.027 1.01-.477.272-.954.543-1.464.744-.948.441-1.951.745-2.88 1.23-1.506.752-2.965 1.605-4.472 2.356-.387.22-.791.408-1.182.619a16.048 16.048 0 0 1 2.631 4.48c.306-.124.595-.286.9-.413.337-.144.674-.287 1.013-.426a.28.28 0 0 1 .065-.096c.074-.103.206-.174.294-.265.23-.193.453-.396.68-.594a.313.313 0 0 1 .085-.046c.263-.276.537-.539.82-.792 1.066-.969 2.08-2.046 3.352-2.731.59-.373 1.462-.502 2.2-.306.554.072 1.102.225 1.662.206 1.163-.075 2.291-.482 3.299-1.073.155-.067.345-.243.522-.293a13.518 13.518 0 0 0-.28-.97 26.97 26.97 0 0 0-.499-1.296c-.424-.383-.872-.75-1.412-.946a7.116 7.116 0 0 0-3.02-.345h-.003Zm-7.109 4.616c-.302-.23.089-.753.383-.524.304.229-.09.752-.383.523Zm3.637-1.707c-.638.247-1.197.662-1.81.965-.253.12-.658.506-.852.114a.295.295 0 0 1 .17-.382c.37-.205.74-.407 1.11-.611.38-.224.753-.468 1.17-.614a.278.278 0 0 1 .362.155.29.29 0 0 1-.15.372Z"/><path fill="#CE6AE2" d="M29.716 40.518c.056-.15.113-.262.137-.4.095-.486-.002-1.01-.415-1.312a.536.536 0 0 0-.293-.128c-.068.018-.13.057-.19.089-.19.144-.312.353-.443.542-1.858 4.017-6.488 5.92-10.635 5.936-2.99.022-6.044-.852-8.428-2.747a9.92 9.92 0 0 1-1.721-1.754 8.74 8.74 0 0 1-.774-1.22c-.009-.015-.014-.031-.019-.047a1.444 1.444 0 0 0-.066-.085.292.292 0 0 1-.139-.148c-.004-.004-.007-.01-.012-.012-.19-.083-.408-.165-.606-.063-.856.28-.526 1.135-.326 1.78.011.028.021.057.03.085 1.997 4.455 7.623 6.214 12.056 6.208 4.334.02 10.126-1.807 11.737-6.361-.014-.118.048-.248.108-.363ZM9.688 43.823c-.383.013-.395-.569-.012-.57.383-.012.396.57.012.57Zm3.662 1.81.041.012c-.77-.181-1.524-.445-2.235-.8-.236-.175-.832-.323-.633-.722a.275.275 0 0 1 .38-.091c.765.515 1.664.817 2.537 1.042.426.038.32.678-.09.56Zm12.132-1.33a.283.283 0 0 1-.297-.262c-.012-.148.103-.301.254-.306a.283.283 0 0 1 .298.262c.012.148-.103.3-.255.306Zm3.048-2.852c-.373.618-.807 1.202-1.34 1.683-.238.18-.695.754-.973.397-.084-.123-.059-.313.067-.396.226-.147.432-.319.624-.51.482-.44.85-.989 1.198-1.54.239-.28.65.073.423.366h.001Z"/><path fill="#F2B3FF" d="M28.828 57.276c-.346-.767-.617-1.565-.987-2.32-.252-.648-.618-1.235-.833-1.878a.277.277 0 0 1 .242-.282.264.264 0 0 1 .087-.121 15.65 15.65 0 0 0 4.514-5.528c3.443-6.991 1.233-15.666-5.077-20.025a15.867 15.867 0 0 0-1.5-.915.264.264 0 0 1-.216-.114 14.66 14.66 0 0 0-6.776-1.66.465.465 0 0 1-.157 0c-7.494.084-14.45 5.932-15.06 14.603-.237 3.478.682 6.98 2.576 9.847.507.77 1.099 1.512 1.737 2.183a.198.198 0 0 1 .087.06c.155.17.333.323.484.496l.089.099c.046.043.092.089.139.13.18.163.363.327.553.48.056.045.088.1.1.155l.562.519c.1.092.126.223.108.35a.267.267 0 0 1 .015.059c.033.154-.045.302-.107.439-.112.246-.2.504-.31.752-.32.762-.567 1.553-.931 2.295-.744 1.74-1.554 3.449-2.294 5.19-.715 1.567-1.474 3.113-2.2 4.671-.364.785-.698 1.521-1.054 2.298-.193.42-.376.846-.574 1.265.149.02.298.064.447.07 1.072-.065 2.143.027 3.214.039 1.09.01 2.254.1 3.24-.466.27-.176.563-.331.77-.588.191-.323.452-.606.59-.958.008-.465.028-.912.017-1.279.023-1.29-.043-2.578-.089-3.858.014-.824.017-1.649.028-2.472-.008-1.026-.11-2.046-.1-3.072.017-1.227-.053-2.46.049-3.681.104-.58.206-1.292.744-1.616.36-.193.8-.273 1.19-.34.752-.173 1.52-.233 2.275-.377 1.83-.202 3.666-.347 5.5-.473.883-.062 1.763-.003 2.647-.014 2.457-.27 2.57.563 3.019 2.776.495 2.43.694 4.908.88 7.38.126 1.632.226 3.279.254 4.897-.009.342-.011.686-.017 1.03.044.268.085.531.195.783.172.612.532 1.149.938 1.624.229.25.473.491.753.68.064.04.136.08.198.129.328.008.655.017.983.022.56.018 1.121-.012 1.682-.04.915-.005 1.842.023 2.755 0-.92-2.276-1.947-4.505-2.814-6.804-.808-2.167-1.75-4.276-2.564-6.439l-.001-.001ZM22.75 31.95c.77.21 1.48.579 2.18.962.437.276.928.464 1.31.824.022.014.039.036.065.041a.286.286 0 0 1 .21.34.28.28 0 0 1-.33.216c-.255-.06-.41-.291-.631-.42-.977-.54-1.916-1.135-2.994-1.429-.338-.13-.159-.651.189-.535l.001.002Zm-.59.03c.113.359-.443.558-.561.195-.11-.358.445-.556.561-.194Zm-10.84.741c.453-.186.905-.374 1.374-.515.498-.182 1.007-.343 1.532-.415.147-.032.295.076.323.227a.288.288 0 0 1-.22.332 6.004 6.004 0 0 0-1.097.268c-.36.13-.728.236-1.083.38-.282.062-.767.472-.959.102-.063-.134-.01-.32.13-.379Zm-.953.758a.282.282 0 0 1 .291.268c.009.152-.11.296-.26.3a.282.282 0 0 1-.292-.268c-.008-.152.11-.297.26-.3ZM8.898 64.827c.026-.44.01-.88.004-1.32.01-.605-.02-1.209 0-1.81-.03-.15.048-.31.2-.349.402-.073.379.444.344.72-.03.401.027.763.014 1.157.005.752-.006 1.503-.013 2.255a.283.283 0 0 1-.281.28c-.426-.045-.231-.634-.268-.933Zm.122 2.242c-.295-.327.17-.747.421-.377.294.326-.17.748-.421.377Zm8.903-19.26c-4.675.003-10.3-1.774-12.529-6.355a6.957 6.957 0 0 1-.17-.409.26.26 0 0 1-.017-.101 2.137 2.137 0 0 1-.038-.133 2.348 2.348 0 0 1-.141-1.23c.114-.592.71-.984 1.266-1.033.193.009.393.05.574.131A8.36 8.36 0 0 1 8 36.8c4.158-5.007 12.283-5.43 17.44-1.86a10.24 10.24 0 0 1 2.267 2.158c.295.39.56.803.787 1.238.148-.111.32-.192.522-.232a.989.989 0 0 1 .138 0l.013-.002a.271.271 0 0 1 .12.02c.44.093.802.481 1.003.885.214.45.173 1.023.029 1.486-.025.057-.05.128-.076.201a.332.332 0 0 1-.014.081c-1.594 5.05-7.603 7.023-12.308 7.037v-.003ZM30.76 66.11c-.239-.521-.4-1.075-.628-1.601-.304-.734-.503-1.512-.835-2.235-.175-.435.423-.605.542-.155.426 1.083.8 2.187 1.223 3.271.05.223.242.423.204.656-.055.234-.4.282-.506.063v.001Zm.703 1.072c.205.035.424.145.361.398a.279.279 0 0 1-.342.196c-.205-.035-.424-.145-.36-.398a.279.279 0 0 1 .342-.196h-.001Z"/><path fill="#CE6AE2" d="M44.712 58.8c-.61.345-1.24.627-1.859.942-.517.258-.988.6-1.486.893-1.747 1.01-3.512 1.992-5.236 3.045-.726.456-1.47.878-2.197 1.33-.377.242-.758.474-1.161.667.503 1.212 1.026 2.414 1.536 3.622.124.33.276.65.406.977.182-.115.42-.2.547-.28.66-.339 1.284-.742 1.922-1.122 1.763-1.05 3.432-2.255 5.15-3.38 1.098-.735 2.173-1.528 3.26-2.27a30.958 30.958 0 0 0 2.734-1.93c.278-.224.554-.453.84-.665.016-.012.032-.025.05-.037-.344-.976-.62-1.962-1.028-2.907l-.257-.628c-.251.189-.566.299-.829.466-.79.442-1.622.8-2.394 1.277h.002Zm.09 1.209c-.15 0-.272-.14-.27-.291a.284.284 0 0 1 .283-.279c.15 0 .273.14.27.291a.284.284 0 0 1-.282.279Zm2.953-1.927c.122.247-.104.397-.294.49-.303.198-.626.361-.934.547-.242.156-.5.282-.745.433-.13.076-.305.018-.374-.118a.29.29 0 0 1 .115-.384c.218-.13.44-.252.658-.377.302-.191.62-.35.891-.522.204-.129.51-.374.682-.068v-.001Z"/><path fill="#fff" d="M7.981 40.135c1.65 2.342 4.298 3.729 7.055 4.273-3.326-1.687-4.377-6.285-1.924-9.314a5.917 5.917 0 0 1 2.232-1.728c-2.842.483-5.684 1.9-7.33 4.366-.027.086-.077.165-.1.255-.077.291-.13.57-.147.87-.02.427.101.842.212 1.248 0 .01 0 .02.002.03Z"/><path fill="#CE6AE2" d="M50.226 41.86c-.485-.02-.967-.147-1.418-.316-.738-.265-1.479-.604-2.01-1.211-.107-.124-.308-.31-.434-.502-.202.11-.404.222-.605.335-1.09.486-2.132 1.087-3.213 1.59-1.208.534-2.454.967-3.672 1.475-.96.396-1.93.777-2.859 1.241-.32.157-.637.325-.953.492.105.079.208.158.314.236.344.287.734.512 1.123.726 1.74.913 3.682 1.379 5.631 1.42 1.91.079 3.815-.349 5.59-1.055 1.37-.58 2.656-1.33 3.901-2.146a29.089 29.089 0 0 0 2.265-1.564c.649-.505 1.308-.984 1.878-1.568.165-.139.328-.28.49-.42a19.87 19.87 0 0 1-1.96.82 11.385 11.385 0 0 1-4.07.446h.002Zm-5.446 4.58c-.15 0-.269-.15-.26-.3a.284.284 0 0 1 .291-.267c.151 0 .27.15.26.3a.284.284 0 0 1-.29.268Zm5.122-1.813c-.88.51-1.78.99-2.76 1.256-.357.108-.716.212-1.082.288a.28.28 0 0 1-.327-.22c-.044-.311.227-.343.452-.392.229-.05.454-.115.676-.182 1.02-.277 1.955-.75 2.855-1.303.106-.11.292-.094.39.016.179.202-.002.45-.204.538v-.002ZM43.423 49.186c-.687.387-1.372.778-2.088 1.107-2.831 1.348-5.611 2.8-8.385 4.265-.72.38-1.414.814-2.142 1.178-.471.25-.93.524-1.424.729-.073.026-.16.07-.248.109.21.517.413 1.038.607 1.562.29.697.576 1.394.86 2.092a.327.327 0 0 1 .047-.024c.306-.117.606-.27.9-.415.542-.267 1.07-.564 1.608-.838 1.922-.998 3.817-2.052 5.734-3.06 1.163-.701 2.437-1.214 3.637-1.82.254-.124.48-.274.721-.422.515-.275 1.044-.518 1.522-.858.31-.185.655-.284.976-.447a.294.294 0 0 1 .12-.094 5.438 5.438 0 0 1-.246-.53c-.203-.482-.377-.98-.598-1.453a56.36 56.36 0 0 1-.695-1.508c-.295.158-.604.288-.91.427h.005Zm-4.995 3.926c-.152 0-.273-.139-.27-.29a.284.284 0 0 1 .282-.279c.15 0 .273.14.27.291a.284.284 0 0 1-.282.278Zm2.848-1.462c-.23.096-.392.18-.603.29a9.34 9.34 0 0 0-.71.375c-.223.107-.55.388-.73.07a.29.29 0 0 1 .114-.385c.282-.141.553-.303.833-.45.34-.178.693-.33 1.035-.505a.274.274 0 0 1 .386.067c.17.276-.1.45-.325.538Z"/><path fill="#F2B3FF" d="M43.8 53.993c-.343.177-.653.411-.996.573-.842.434-1.712.803-2.56 1.224-1.22.684-2.462 1.322-3.69 1.99-1.528.85-3.084 1.646-4.632 2.456-.212.105-.421.213-.635.313-.135.054-.313.165-.472.192.408 1.008.81 2.017 1.198 3.035.176.461.36.92.545 1.377a.928.928 0 0 1 .108-.05c1.155-.654 2.276-1.375 3.418-2.055 1.96-1.205 4.004-2.263 5.95-3.495.963-.562 2-.974 2.952-1.564.63-.362 1.3-.641 1.928-1.007.271-.149.552-.283.799-.468-.449-1.093-.898-2.185-1.325-3.288a7.925 7.925 0 0 0-.246-.477.515.515 0 0 1-.15.11c-.506.215-1.011.425-1.457.76-.236.142-.486.255-.734.374h-.002Zm-6.426 7.594a4.52 4.52 0 0 1-.402.228c-.37.212-.747.412-1.13.602a.276.276 0 0 1-.373-.118c-.069-.133-.022-.317.115-.384.245-.13.496-.248.74-.381.243-.15.5-.272.745-.421.193-.127.507-.33.66-.043.132.31-.145.394-.353.516l-.002.001Z"/><path fill="#000" d="M24.422 61.517c-.086-1.4-.155-2.806-.293-4.21-.087-.663-.145-4.62-1.18-4.203-1.083-.084-2.166.06-3.248.04-1.042.076-2.092.018-3.135.11-.626.033-1.245.132-1.868.189-.723.045-1.52.086-2.183.428-.403.263-.412.781-.478 1.218-.219 1.286-.192 2.594-.15 3.894-.02 1.1-.017 2.202-.003 3.303.075 1.638.08 3.265.171 4.933.078.675-.132 1.563.42 2.061 1.308.805 3.906.566 5.446.609 1.18.05 2.355-.081 3.525-.234.983-.103 2.269-.122 2.723-1.207.407-1.011.407-2.152.401-3.231-.034-1.234-.114-2.466-.148-3.7Zm-12.008-3.77c-.014-.786.015-1.577.14-2.355.036-.134.042-.327.063-.516a.295.295 0 0 0 .063-.057.678.678 0 0 1 .284-.276c.302-.2 1.232-.275 1.347.178a.294.294 0 0 0 .131.192c-.015.26-.027.519-.027.78-.004.482.038.966.02 1.449-.048 1.057.078 2.109.11 3.165l.04.773c-.258.015-.515.033-.773.055-.377.013-.748.106-1.12.161-.076 0-.17 0-.267.01-.005-1.186.021-2.373-.013-3.56l.002.002Zm2.255 10.124c-.157.572-.856 1.042-1.412.754-.127-.07-.189-.227-.276-.34a2.83 2.83 0 0 1-.307-.694.274.274 0 0 0-.058-.106c0-.018 0-.034-.002-.052-.083-1.584-.098-3.189-.164-4.79a38.341 38.341 0 0 1-.017-.76c.123-.017.245-.016.37-.024.308-.048.56-.12.892-.145.307-.022.614-.043.922-.063.06 1.271.104 2.563.111 3.824.015.746.02 1.475.032 2.208a.279.279 0 0 0-.09.188Zm.317-10.595c.03-.768-.052-1.524.007-2.296 0-.065 0-.13.005-.194a.25.25 0 0 0 .09-.114.323.323 0 0 1 .066-.123c.199-.26.452-.496.787-.534.47-.061.965-.086 1.424.053.183.152.393.338.427.59.005.037.016.07.03.098-.076.986-.229 1.965-.171 2.962.009 1.091-.011 2.182.014 3.273-.841.002-1.68.018-2.52.059-.069-1.254-.18-2.514-.16-3.774h.002Zm1.99 11.769a1.755 1.755 0 0 1-1.34-.267c-.15-.134-.184-.35-.24-.536a1.188 1.188 0 0 1-.038-.272.307.307 0 0 0-.047-.147c-.01-.418-.015-.835-.011-1.254-.01-1.62-.066-3.23-.122-4.85l-.005-.104c.295-.016.59-.03.885-.038.537-.003 1.08-.014 1.621-.016.048 1.544.171 3.079.229 4.635.042.629.051 1.259.059 1.895-.202.428-.521.833-.994.953h.002Zm1.233-11.117c-.01-.577-.02-1.152.027-1.727.05-.481.108-.963.144-1.446a.287.287 0 0 0 .04-.052c.16-.294.374-.567.695-.674.393-.097.871-.188 1.246.036.113.13.17.298.206.465a.288.288 0 0 0 .078.246c-.006.718-.014 1.435-.018 2.15.06 1.184.158 2.365.249 3.547.014.207.024.415.036.621-.549-.011-1.094-.07-1.644-.091-.35-.005-.699-.009-1.05-.01-.019-1.02-.012-2.047-.009-3.064v-.002Zm2.876 9.963c-.032.047-.062.096-.095.142-.25.331-.552.618-.94.765-.608.136-1.093-.052-1.347-.659-.03-.107-.072-.21-.112-.314.003-.015.004-.031.003-.046a.285.285 0 0 0-.036-.123.587.587 0 0 0-.043-.18 26.758 26.758 0 0 0-.048-1.175c-.023-1.168-.147-2.357-.18-3.545a38.248 38.248 0 0 1-.053-1.194c.22.001.44.004.66.01.683-.009 1.363.081 2.045.092.086 1.955.083 3.913.147 5.87v.357h-.001Zm.364-7.187c-.104-1.181-.174-2.364-.265-3.547-.017-.639.015-1.278.008-1.916l.005-.472a.237.237 0 0 0 .051-.103c.015-.13.043-.258.101-.377.23-.396.75-.43 1.15-.354.276.054.47.274.631.496.061.094.116.204.188.278.192 1.019.19 2.1.304 3.121.09 1.062.16 2.117.216 3.178-.783-.132-1.584-.043-2.37.054a33.25 33.25 0 0 0-.02-.359v.001Zm2.188 7.565a.96.96 0 0 1-.076.13 3.084 3.084 0 0 1-1.231.149c-.322-.037-.612-.243-.667-.587a.624.624 0 0 0-.024-.179c0-.575-.016-1.15-.037-1.724-.048-1.474-.046-2.951-.107-4.425.79-.082 1.59-.206 2.371-.037.011.248.024.497.033.747.034 1.072.115 2.122.126 3.2-.016.909-.021 1.878-.386 2.726h-.002Z"/><path fill="#000" d="M13.45 56.662c.047.51.029 1.022.054 1.532.048.37.58.309.55-.063-.008-.74-.062-1.476-.069-2.214-.052-.37-.584-.307-.55.063.018.226-.024.455.014.682ZM14 58.83c-.303-.252-.655.217-.34.448.294.22.622-.216.34-.449ZM19.148 62.855c-.265-.294-.676.128-.392.402.263.26.644-.133.392-.402ZM18.731 64.107c.003.332.019.662.068.99.052.371.582.307.55-.064-.06-.35-.049-.706-.076-1.058-.07-.414-.644-.271-.542.133ZM22.914 54.776c-.363-.19-.596.36-.227.525.362.191.597-.354.227-.525ZM9.167 65.76a.282.282 0 0 0 .282-.279c.006-.751.017-1.503.012-2.254.013-.395-.044-.757-.014-1.158.035-.276.058-.793-.344-.72-.152.038-.23.198-.2.348-.02.601.01 1.206 0 1.81.006.44.022.881-.004 1.321.038.299-.158.888.268.933ZM9.02 67.069c.253.37.715-.05.421-.377-.253-.37-.717.049-.421.377ZM31.266 66.05c.038-.234-.153-.433-.204-.656-.424-1.084-.797-2.189-1.223-3.272-.119-.451-.717-.28-.542.156.333.721.531 1.5.835 2.234.227.526.388 1.08.628 1.602.105.219.45.172.506-.064ZM31.121 67.38c-.063.253.155.364.36.398a.28.28 0 0 0 .342-.196c.063-.253-.155-.364-.361-.398a.279.279 0 0 0-.342.196h.001Z"/><path fill="#000" d="M57.418 39.328c-.392.227-.797.453-1.204.666-1.398.665-2.853 1.253-4.414 1.289-.683.057-1.396.06-2.091-.055-.674-.186-1.367-.415-1.963-.81a4.91 4.91 0 0 1-.811-.757c-.05-.062-.092-.14-.137-.211.047-.075.089-.157.128-.228.2-.353.4-.705.589-1.064.673-1.362 1.161-2.84 1.322-4.364.161-1.694.084-3.411-.172-5.091-.3-2.004-1.006-3.91-1.974-5.679l-.02-.034c.16-.03.32-.06.479-.098.872-.204 1.834-.554 2.434-1.267.434-.496.772-1.14.506-1.81-.104-.294-.298-.524-.51-.74-.266-.27-.54-.566-.922-.643-.58-.082-1.22-.124-1.763.144-.854.492-1.558 1.166-2.214 1.896a5.233 5.233 0 0 0-.57-.827c-.667-.825-1.497-1.481-2.301-2.156a11.522 11.522 0 0 0-3.09-1.729c-.815-.331-1.658-.663-2.537-.739a2.784 2.784 0 0 1-.1-.341c-.107-.902.033-1.814.346-2.66.563-1.65 1.352-3.23 2.274-4.7.416-.691.82-1.4 1.348-2.01.136-.157.352-.288.359-.52a.285.285 0 0 0-.34-.308c-.135-.023-.284.04-.413.075-.643.273-1.254.59-1.88.9l-.351.153-.301.14a.847.847 0 0 0-.245.112c-1.5.709-2.948 1.56-4.247 2.613-1.033.813-2 1.709-2.838 2.735-.374.445-.755.886-1.056 1.389-.75 1.262-1.461 2.555-1.995 3.931l-.043.126-.014.007c-.872.423-1.639 1.03-2.453 1.551-.834.544-1.716.992-2.575 1.488-.774.424-1.543.954-2.323 1.405A168.093 168.093 0 0 0 15.46 23.3c-.167.101-.34.197-.516.29a.254.254 0 0 0-.104.043l-.129.08c-.5.256-1.017.502-1.505.784-.336.159-.67.322-.993.506-.12.068-.301.167-.437.241-.119.047-.23.104-.285.193-.534.261-1.063.557-1.585.89-5.34 3.425-7.846 9.422-7.36 15.219-.084.073-.165.15-.243.232-.162.174-.324.349-.485.525a.244.244 0 0 0-.054.059c-.335.37-.655.753-.937 1.17-.383.587-.817 1.229-.827 1.96-.017.445.208.85.45 1.203.393.435 1.006.546 1.558.577.52.032 1.042-.035 1.557-.112.118-.031.284-.053.418-.107a16.008 16.008 0 0 0 3.596 5.015c.07.077.143.154.218.225.343.396.65.835.67 1.389.017.361-.014.727-.106 1.078-.028.135-.1.307-.096.451a25.557 25.557 0 0 1-.786 1.86 225.107 225.107 0 0 1-4.02 8.828c-.488 1.071-.992 2.136-1.473 3.213-.156.343-.31.687-.467 1.028-.085.165-.206.4-.12.563.01.182.193.346.393.25 1.004.107 2.017.023 3.023.059 1.111.013 2.214.138 3.324.183.931.016 1.86-.057 2.792-.049.767.74 2.027.675 3.023.764.541.076 1.087.099 1.631.092 2.225-.008 4.399-.403 6.63-.4.74-.03 1.515-.078 2.246-.24.337-.054.659-.16.943-.321.014.002.028.005.044.005 1.48-.019 2.956.07 4.435.089 1.126-.01 2.25-.056 3.375-.04.28 0 .56-.003.84.002.243-.015.598.106.731-.176a.277.277 0 0 0 .015-.056c.125-.048.253-.15.365-.209a17.37 17.37 0 0 0 1.116-.6c1.44-.87 2.892-1.722 4.252-2.723 1.7-1.082 3.348-2.245 4.995-3.408.606-.415 1.267-.808 1.858-1.256.799-.535 1.526-1.186 2.304-1.752a.29.29 0 0 0 .035-.415c-.476-1.439-.957-2.89-1.58-4.276-.58-1.258-.95-2.611-1.608-3.83-.456-.754-.698-1.613-1.074-2.408-.36-.716-.663-1.478-1.013-2.206a15.467 15.467 0 0 0 3.809-1.116c1.864-.858 3.612-1.97 5.29-3.162.91-.663 1.816-1.336 2.62-2.133.533-.43 1.045-.897 1.466-1.442a.412.412 0 0 0 .057-.174c.098-.21-.082-.486-.318-.42v-.007Zm-9.42-4.032c-.237.901-.556 1.77-.976 2.599-.19.352-.378.703-.58 1.049-.044.088-.113.184-.157.283a.493.493 0 0 0-.047.03c-.643.384-1.335.658-1.987 1.021-.93.453-1.83.96-2.801 1.326-2.154.867-4.349 1.644-6.408 2.734-.576.305-1.135.615-1.744.851a.561.561 0 0 1-.079.037c.488-1.507.763-3.087.799-4.68.323-.125.643-.26.963-.392.737-.283 1.471-.573 2.208-.852 2.233-.88 4.449-1.79 6.627-2.81.775-.382 1.579-.692 2.362-1.056.559-.272 1.108-.562 1.666-.84.096-.046.22-.105.35-.163-.051.29-.115.579-.196.865v-.002Zm-19.74 19.14c-.013-.398-.089-.814.01-1.21.031-.141.075-.28.132-.413.661-.336 1.308-.695 1.914-1.129.778-.474 1.605-.855 2.405-1.288.994-.464 1.969-.973 2.964-1.437.606-.329 1.202-.69 1.823-1 .133-.026.279-.116.413-.197l.053-.024c.15-.082.323-.129.462-.23.005-.004.007-.009.01-.012.07-.03.14-.065.2-.104a14.17 14.17 0 0 0 5.276.458c.059.127.117.254.174.382-.427.268-.931.407-1.358.69-1.374.796-2.837 1.414-4.252 2.128a397.06 397.06 0 0 0-6.25 3.25c-.893.537-1.823 1.011-2.743 1.5-.188.087-.38.168-.571.246a55.276 55.276 0 0 0-.661-1.522.289.289 0 0 0 0-.086v-.002Zm8.295-6.71c-.008.035-.02.072-.03.109-.629.36-1.253.73-1.923 1.007-1.762.91-3.606 1.682-5.257 2.804A16.216 16.216 0 0 0 32.945 46c.138-.007.28-.078.415-.096.66-.199 1.399-.24 2.032.076.487.278.89.743 1.137 1.255.034.158.051.333.024.493v-.002Zm11.782-17.06c.022 1.033.055 2.069-.05 3.092a.285.285 0 0 0-.17.085c-.132.062-.265.12-.397.183-1.059.537-2.135 1.101-3.247 1.527-2.176 1.062-4.427 1.98-6.667 2.9-1 .39-2.004.775-3.006 1.161-.26.107-.517.215-.778.319a18.301 18.301 0 0 0-.024-.738c.173-.01.38-.137.561-.153.778-.207 1.522-.535 2.26-.859.15-.056.318-.092.438-.21.11-.106.1-.297-.005-.402a.272.272 0 0 0-.369-.015c-.116.048-.238.085-.355.133-.603.277-1.214.531-1.848.727-.157.076-.49.106-.722.204a16.614 16.614 0 0 0-.844-3.993c.14-.05.283-.139.396-.186.195-.096.393-.186.592-.272.34-.134.67-.296 1.013-.423a.916.916 0 0 0 .208-.093c.181-.028.37-.105.538-.131.606-.165 1.231-.207 1.848-.306.777-.092 1.56-.133 2.327-.291 1.092-.166 2.255-.446 3.03-1.305.373-.139.829-.877.983-1.094.143-.204.307-.362.507-.55.408-.425.964-.672 1.462-.964.647-.362 1.276-.724 1.951-1.041.18.889.294 1.797.368 2.697v-.002ZM36.058 32.89c.08-.063.161-.122.235-.193.68-.705 1.425-1.336 2.132-2.012.735-.646 1.493-1.303 2.404-1.67a2.468 2.468 0 0 1 1.053-.105.39.39 0 0 0 .225.049c.025.002.05.007.075.01.337.092.64.273.837.564.326.793.11 1.226-.455 1.795-.667.653-1.592.865-2.475 1.006-1.33.267-2.701.28-4.032.555l.001.001Zm7.658-2.847.006-.003-.005.007v-.006l-.001.002Zm3.31-5.05c.18.426.343.86.5 1.295.106.319.198.643.28.97-.177.05-.367.227-.522.294-1.008.59-2.136.998-3.299 1.073-.56.018-1.108-.134-1.661-.207-.74-.196-1.613-.067-2.202.306-1.27.686-2.284 1.764-3.351 2.732-.283.253-.557.516-.82.792a.307.307 0 0 0-.085.045c-.226.199-.45.403-.68.595-.088.09-.22.162-.294.264a.296.296 0 0 0-.066.096c-.339.138-.675.283-1.012.427-.306.126-.595.288-.9.413a16.05 16.05 0 0 0-2.631-4.48c.39-.212.795-.399 1.182-.62 1.507-.75 2.966-1.603 4.471-2.355.93-.485 1.934-.79 2.881-1.23.51-.202.987-.474 1.464-.744.68-.325 1.346-.686 2.026-1.01.075.07.184.101.284.053a7.156 7.156 0 0 1 3.021.344c.54.196.988.563 1.413.947h.002Zm-2.732-4.09.003.005-.008.008.003-.015.002.002Zm-.234 1.18c.6-.753 1.196-1.502 1.928-2.128.418-.372.853-.777 1.384-.964.44-.06.942-.113 1.358.068.8.63 1.281 1.229.48 2.133-.868 1.026-2.31 1.17-3.54 1.38-.802.094-1.553.274-2.344.345.233-.29.492-.555.735-.834Zm-3.544-4.815c.245.153.486.315.721.49-.275.163-.54.28-.827.469a22.17 22.17 0 0 1-.878.558c-.227.172-.77.292-.585.68.077.132.254.18.38.098.291-.177.589-.345.878-.529.287-.176.558-.376.855-.535.133-.07.296-.158.456-.252.062-.035.13-.074.187-.12.033.028.067.054.1.084.249.208.498.417.742.632a.344.344 0 0 0 .046.072c.172.223.282.492.364.777.165.696.176 1.455-.063 2.135-.157.433-.452.804-.656 1.225-.071.037-.141.073-.204.099-1.404.66-2.728 1.468-4.17 2.05-1.9.667-3.637 1.706-5.417 2.643-.704.37-1.409.74-2.115 1.103-.11.065-.282.133-.422.224a16.113 16.113 0 0 0-4.074-3.281l.429-.294c.52-.345 1.012-.63 1.545-.975 1.744-1.21 3.651-2.155 5.477-3.229.772-.4 1.484-.907 2.252-1.314.415-.25.858-.435 1.293-.642.715-.45 1.476-.813 2.191-1.309.386-.22.794-.397 1.169-.639.098-.058.231-.13.328-.219h-.002ZM26.27 21.201c.064-.114.03-.205.05-.339.057-1.149.434-2.273.715-3.384.339-1.314 1.007-2.5 1.649-3.676.398-.763.868-1.484 1.44-2.12.987-1.221 2.155-2.264 3.424-3.201 1.16-.876 2.428-1.586 3.741-2.19.216-.075.426-.17.628-.28.422-.182.846-.354 1.273-.518h.002c-.332.463-.617.963-.914 1.447-.297.476-.572.96-.843 1.451-.565.977-1.01 2.027-1.4 3.088-.466 1.222-.784 2.634-.316 3.905l-.006-.02c.049.163.183.22.306.2.163.043.352.015.515.062 1.193.311 2.364.732 3.447 1.327a1.048 1.048 0 0 1-.144.089c-.575.322-1.155.602-1.697.986-.589.314-1.162.677-1.75.993-.435.17-.84.403-1.25.628-1.227.726-2.45 1.452-3.693 2.15-1.69.86-3.274 1.912-4.876 2.932-.37.218-.72.469-1.08.706-.061.048-.144.096-.223.148a15.777 15.777 0 0 0-3.384-1.276c.054-.036.108-.073.16-.113.583-.456 1.211-.844 1.796-1.296.63-.44 1.256-.88 1.87-1.342.18-.127.424-.172.56-.357Zm-8.36 1.449c.018-.061.055-.108.089-.156.638-.355 1.277-.71 1.912-1.075.733-.444 1.457-.926 2.211-1.34.67-.372 1.357-.741 2.016-1.146.082.008.17.005.247.023.238.044.473.183.655.348.334.331.508.807.587 1.27.013.096.021.19.009.287-.002.03.001.06.009.087-.412.223-.772.537-1.154.81-.63.42-1.233.878-1.849 1.317-.316.186-.6.421-.895.639-.136.131-.437.261-.597.432-.328-.064-.659-.12-.992-.163a.583.583 0 0 1 .07-.035c.669-.42 1.341-.902 1.98-1.405.405-.34.889-.569 1.287-.922.245-.278-.146-.656-.4-.393-.656.46-1.32.918-1.951 1.42-.574.427-1.196.772-1.766 1.207.026-.019.026-.018.024-.018a.316.316 0 0 0-.062.06c-.348-.027-.698-.04-1.049-.043-.111-.085-.199-.201-.29-.307-.185-.256-.184-.603-.092-.899v.002ZM3.08 46.51a.725.725 0 0 0-.063.153c-.644.088-1.332.079-1.885-.162-.266-.096-.375-.363-.497-.602-.113-.234-.1-.55-.022-.8.33-.86.879-1.596 1.486-2.275.69.176.993 2.395 1.024 2.974.01.235.036.486-.043.712Zm23.024 21.862c-.1.754-.165 1.667-.856 2.109-.912.482-2.009.48-3.018.546-2.3-.005-4.57.423-6.875.4-.53.015-1.054-.062-1.583-.105-.547-.019-1.094-.06-1.628-.187-.288-.066-.67-.189-.878-.44-.351-.381-.354-.938-.39-1.433l-.014-.428a.904.904 0 0 0-.005-.191 11.62 11.62 0 0 1 .004-.547c.02-.785.014-1.571.008-2.355.015-.872-.092-1.726-.082-2.6.017-1.41.065-2.821-.058-4.228-.017-1.016-.007-2.03-.025-3.046.049-.941-.105-1.995.401-2.83.466-.357 1.08-.335 1.636-.466a34.078 34.078 0 0 1 2.974-.403c1.42-.167 2.83-.234 4.259-.35.834-.056 1.664 0 2.498-.01.66-.022 1.415-.2 1.983.28.276.482.367 1.049.499 1.585.21 1.016.362 2.042.532 3.065.143 1.193.22 2.394.344 3.59.197 2.672.441 5.357.27 8.044h.004Zm5.346 2.145c-.559.028-1.12.059-1.68.041a64.528 64.528 0 0 1-.984-.023c-.062-.05-.134-.09-.198-.129a4.271 4.271 0 0 1-.753-.68c-.405-.474-.766-1.011-.938-1.624-.11-.251-.151-.514-.195-.783.007-.344.01-.688.017-1.03a83.286 83.286 0 0 0-.253-4.896c-.187-2.472-.386-4.95-.882-7.38-.448-2.213-.561-3.047-3.018-2.776-.884.011-1.765-.048-2.647.014-1.834.126-3.67.27-5.5.473-.755.145-1.523.203-2.275.377-.39.065-.83.145-1.19.34-.537.324-.64 1.035-.745 1.615-.1 1.222-.03 2.455-.047 3.682-.012 1.026.09 2.045.099 3.071-.01.824-.015 1.649-.028 2.472.045 1.28.112 2.568.088 3.859.01.365-.008.813-.016 1.279-.139.351-.4.634-.59.957-.206.257-.501.413-.77.589-.986.565-2.151.475-3.24.465-1.072-.011-2.143-.103-3.214-.038-.15-.006-.298-.052-.447-.07.198-.42.38-.846.574-1.266.356-.776.69-1.514 1.053-2.297.725-1.559 1.485-3.105 2.201-4.67.74-1.741 1.55-3.45 2.294-5.191.363-.743.61-1.534.93-2.295.11-.248.198-.505.31-.753.062-.138.142-.284.108-.439a.4.4 0 0 0-.015-.058c.017-.129-.009-.258-.108-.35l-.562-.519a.275.275 0 0 0-.1-.156c-.19-.153-.373-.316-.554-.48l-.138-.13-.089-.098c-.151-.173-.328-.327-.484-.497a.194.194 0 0 0-.087-.06 15.898 15.898 0 0 1-1.737-2.182c-1.894-2.868-2.814-6.37-2.576-9.847.608-8.671 7.566-14.518 15.06-14.604.053.009.106.01.156 0 2.268-.001 4.58.525 6.777 1.66a.27.27 0 0 0 .216.115c.507.272 1.008.575 1.5.914 6.31 4.36 8.52 13.033 5.077 20.025a15.685 15.685 0 0 1-4.514 5.528.264.264 0 0 0-.088.122.278.278 0 0 0-.242.282c.215.643.583 1.23.834 1.877.37.756.641 1.554.986 2.32.815 2.163 1.758 4.273 2.564 6.44.868 2.298 1.894 4.529 2.815 6.803-.913.023-1.84-.006-2.756 0l.001.002Zm16.74-12.834c.409.945.683 1.933 1.027 2.908-.017.012-.033.025-.05.036-.285.214-.56.442-.839.666a31.233 31.233 0 0 1-2.734 1.929c-1.087.741-2.162 1.534-3.26 2.27-1.719 1.125-3.388 2.33-5.15 3.38-.638.38-1.262.784-1.922 1.123-.127.08-.365.165-.547.28-.13-.328-.282-.647-.406-.977-.51-1.208-1.033-2.41-1.536-3.622.403-.192.784-.425 1.161-.667.728-.453 1.471-.873 2.197-1.33 1.723-1.054 3.487-2.036 5.236-3.045.498-.294.969-.637 1.486-.894.617-.315 1.248-.597 1.858-.942.772-.478 1.604-.835 2.395-1.278.263-.167.577-.277.828-.465l.257.627-.001.001Zm-2.05-4.936c.087.157.17.315.247.477.426 1.102.876 2.195 1.325 3.288-.248.186-.528.32-.8.468-.627.366-1.297.645-1.928 1.007-.95.59-1.987 1.002-2.952 1.564-1.945 1.232-3.99 2.29-5.95 3.495-1.141.68-2.262 1.402-3.417 2.055a.7.7 0 0 0-.108.05 66.57 66.57 0 0 1-.545-1.378 148.613 148.613 0 0 0-1.198-3.035c.158-.027.335-.137.472-.192.215-.1.424-.207.635-.312 1.547-.81 3.103-1.607 4.631-2.457 1.23-.667 2.47-1.304 3.69-1.989.849-.42 1.718-.79 2.56-1.224.344-.163.655-.396.996-.573.249-.12.498-.232.734-.375.446-.334.951-.544 1.458-.759a.486.486 0 0 0 .15-.11Zm-1.114-2.482c.221.473.395.97.599 1.452.07.184.154.358.245.53a.304.304 0 0 0-.12.095c-.32.161-.666.26-.976.447-.48.341-1.008.583-1.521.858-.241.148-.467.298-.722.422-1.2.606-2.474 1.118-3.636 1.82-1.918 1.009-3.813 2.061-5.735 3.06-.538.274-1.066.571-1.608.838-.293.144-.592.298-.9.415a.21.21 0 0 0-.046.024c-.285-.698-.571-1.395-.86-2.092a54.65 54.65 0 0 0-.607-1.563c.087-.038.173-.082.248-.108.491-.204.952-.479 1.423-.73.729-.365 1.422-.797 2.142-1.177 2.774-1.466 5.554-2.917 8.386-4.266.715-.33 1.4-.72 2.088-1.107.305-.139.613-.268.91-.426.226.502.45 1.005.694 1.508h-.004Zm10.738-9.253c-.57.585-1.229 1.063-1.878 1.568a28.864 28.864 0 0 1-2.265 1.563c-1.246.816-2.533 1.568-3.9 2.147-1.776.706-3.682 1.134-5.59 1.054-1.95-.04-3.893-.506-5.632-1.42-.39-.214-.779-.438-1.123-.725a19.394 19.394 0 0 1-.313-.236c.315-.167.631-.335.952-.492.93-.464 1.899-.845 2.859-1.241 1.218-.507 2.464-.941 3.672-1.475 1.081-.504 2.124-1.103 3.213-1.59.201-.113.403-.225.605-.335.125.192.327.378.434.502.531.607 1.272.945 2.01 1.21.45.17.933.296 1.418.317a11.387 11.387 0 0 0 4.07-.446 19.895 19.895 0 0 0 1.96-.82 25.95 25.95 0 0 1-.49.42h-.002Z"/><path fill="#000" d="M48.564 20.73c.152 0 .27-.15.262-.3a.283.283 0 0 0-.29-.269c-.151 0-.27.15-.262.299.008.16.14.27.29.27ZM40.803 31.46c.468-.201 1.008-.343 1.382-.705.248-.345-.227-.707-.453-.34-.322.2-.676.334-1.025.475-.17.04-.31.197-.253.385.044.146.208.237.348.185h.001ZM39.321 31.233c-.151 0-.27.15-.262.299.008.16.14.27.29.27.152 0 .27-.15.262-.3a.283.283 0 0 0-.29-.269ZM46.563 22.042c.51-.16 1.016-.382 1.44-.718.307-.203.027-.672-.287-.486-.35.276-.757.472-1.175.615-.227.078-.63.113-.544.46.09.284.36.199.566.13ZM41.973 3.813c.047.04.107.064.172.064.795-.036 1.595.014 2.388-.078.815.008 1.66-.111 2.403-.468.897-.418 1.594-1.52 1.158-2.519-.22-.378-.63-.6-1.014-.763-1.088-.273-2.055.657-2.863 1.28-.85.652-1.787 1.221-2.488 2.055-.117.18.043.443.244.428Zm2.26-1.789C45.002 1.473 45.71.676 46.69.56c.237-.014.444.143.642.26.111.084.243.17.293.31.225.789-.403 1.473-1.064 1.76a5.33 5.33 0 0 1-1.996.34c-.654.082-1.311.045-1.968.069.497-.488 1.083-.859 1.636-1.274Z"/><path fill="#000" d="M46.388 2.297c.203-.117.439-.213.59-.402.16-.295-.203-.55-.417-.36l.006-.005c-.152.11-.31.202-.486.288-.169.053-.305.218-.233.405.107.253.354.19.539.074ZM45.178 2.692a.283.283 0 0 0 .28-.282c0-.154-.123-.287-.275-.287a.283.283 0 0 0-.279.282c0 .154.123.287.274.287ZM46.181 58.672c-.218.127-.44.25-.658.378a.294.294 0 0 0-.115.384c.07.134.245.194.374.118.245-.15.503-.277.745-.433.31-.186.631-.35.934-.548.189-.092.415-.241.294-.49-.173-.305-.479-.06-.683.069-.271.17-.59.33-.89.521v.002ZM44.815 59.44a.283.283 0 0 0-.283.278c-.004.151.12.29.27.29.152 0 .28-.12.283-.278.004-.152-.12-.29-.27-.29ZM37.068 61.114c-.244.15-.501.27-.746.421-.243.133-.494.252-.74.381-.135.068-.183.252-.114.385.073.141.24.184.374.117.382-.19.758-.388 1.13-.602.137-.07.27-.144.401-.227.21-.122.486-.204.354-.517-.154-.286-.467-.083-.66.043h.001ZM41.215 51.045c-.342.176-.694.328-1.035.505-.28.147-.55.309-.833.45a.291.291 0 0 0-.114.385c.18.316.507.035.73-.07.232-.134.468-.263.71-.375.21-.108.374-.194.603-.29.225-.088.496-.262.325-.538a.274.274 0 0 0-.386-.067ZM38.441 52.543a.283.283 0 0 0-.283.279c-.003.151.12.29.27.29.152 0 .28-.12.284-.278.003-.152-.12-.29-.27-.29ZM49.716 44.074c-.898.552-1.835 1.024-2.855 1.303a8.465 8.465 0 0 1-.676.182c-.225.05-.497.08-.452.392a.28.28 0 0 0 .327.22c.365-.075.724-.18 1.081-.288.982-.266 1.882-.745 2.76-1.257.203-.086.384-.334.206-.537-.099-.11-.285-.127-.391-.017v.002ZM44.81 45.874a.284.284 0 0 0-.291.268c-.01.15.11.3.26.3.15 0 .283-.108.291-.268.009-.15-.11-.3-.26-.3ZM46.768 35.824c-.551.185-1.02.555-1.55.794-.214.112-.162.472.07.522.071.02.141.005.208-.03.384-.184.753-.403 1.124-.615.2-.114.462-.12.602-.326.203-.322-.196-.614-.453-.345h-.001ZM44.52 37.128c-.303-.236-.725.343-.418.577.303.237.726-.343.419-.577ZM38.91 26.086c-.418.145-.79.39-1.172.613-.37.204-.74.406-1.11.611a.295.295 0 0 0-.17.382c.195.394.6.005.854-.114.612-.303 1.17-.72 1.809-.965a.29.29 0 0 0 .15-.372.277.277 0 0 0-.362-.154v-.001ZM35.869 27.795c-.295-.23-.686.296-.384.523.294.23.687-.294.384-.523ZM38.134 19.787c-.366-.089-.497.531-.139.621.363.091.497-.536.139-.621ZM32.348 11.148c.18-.181.358-.364.54-.545.95-.76 1.857-1.61 2.961-2.13.267-.16.097-.589-.201-.52-.603.247-1.141.643-1.663 1.033-.555.483-1.176.887-1.69 1.418-.175.205-.607.453-.338.753.11.108.284.1.39-.01ZM31.398 12.017c.15 0 .272-.14.27-.291a.284.284 0 0 0-.283-.278c-.15 0-.273.139-.27.29a.284.284 0 0 0 .283.279ZM24.227 21.065c.152 0 .273-.14.27-.291a.284.284 0 0 0-.282-.279c-.15 0-.273.14-.27.291a.284.284 0 0 0 .282.279ZM30.231 40.772a.342.342 0 0 0 .014-.081c.027-.073.051-.143.076-.201.144-.465.184-1.036-.028-1.487-.202-.402-.564-.79-1.004-.884a.27.27 0 0 0-.12-.02l-.013.001a1.004 1.004 0 0 0-.138 0c-.201.04-.373.123-.522.233a8.71 8.71 0 0 0-.787-1.239 10.235 10.235 0 0 0-2.266-2.158c-5.158-3.569-13.283-3.146-17.44 1.861a8.361 8.361 0 0 0-1.134 1.88 1.572 1.572 0 0 0-.574-.132c-.557.05-1.153.442-1.266 1.034-.071.417-.007.837.141 1.23.01.039.024.086.039.133 0 .034.003.068.016.1.052.139.109.275.17.41 2.23 4.58 7.854 6.358 12.529 6.354 4.705-.014 10.715-1.986 12.309-7.037l-.002.003Zm-3.065-3.459c.01.04.03.082.063.123.33.615.472 1.356.285 2.042-.055.24-.135.473-.22.704a.367.367 0 0 0-.06.205c-1.634 2.276-4.32 3.605-7.078 4.084a6.123 6.123 0 0 0 3.281-6.807c-.46-2.114-1.84-3.603-3.515-4.31 2.78.444 5.437 1.724 7.243 3.96h.001Zm-4.772-.941c1.797 3.426-.439 7.727-4.22 8.076-4.738.44-7.647-5.2-4.634-8.994 2.39-3.01 7.082-2.537 8.853.917v.001ZM7.767 38.858c.018-.299.07-.578.147-.87.023-.088.073-.167.1-.255 1.646-2.467 4.489-3.883 7.33-4.365-.822.36-1.589.93-2.232 1.728-2.453 3.028-1.402 7.625 1.924 9.313-2.757-.544-5.405-1.93-7.055-4.272 0-.01 0-.02-.002-.03-.11-.405-.233-.822-.212-1.25Zm10.104 8.382c-4.433.006-10.06-1.753-12.055-6.208l-.031-.084c-.2-.645-.53-1.5.326-1.78.198-.104.416-.02.606.063a.113.113 0 0 0 .012.011.283.283 0 0 0 .139.149l.066.084a.32.32 0 0 0 .019.048c.223.43.484.835.774 1.22a9.915 9.915 0 0 0 1.72 1.753c2.386 1.895 5.439 2.77 8.429 2.748 4.147-.017 8.776-1.92 10.635-5.936.132-.19.253-.398.442-.542.062-.032.123-.071.19-.089.099.006.196.05.294.128.413.3.51.826.415 1.312-.024.138-.082.25-.137.4-.061.113-.124.245-.108.362-1.611 4.553-7.404 6.382-11.737 6.361h.001Z"/><path fill="#000" d="M28.108 41.084c-.35.55-.717 1.1-1.199 1.541a3.943 3.943 0 0 1-.624.51c-.125.085-.151.273-.067.396.278.357.735-.218.973-.397.533-.481.967-1.066 1.34-1.683.227-.293-.185-.646-.422-.367h-.002ZM25.44 43.734c-.152.005-.266.157-.255.307.012.16.146.265.297.262.152-.006.266-.157.255-.307a.284.284 0 0 0-.298-.262ZM13.44 45.074c-.876-.226-1.774-.527-2.537-1.042a.275.275 0 0 0-.381.09c-.198.4.397.546.633.723.711.355 1.466.62 2.235.8l-.042-.012c.41.12.515-.52.091-.559ZM9.676 43.252c-.383 0-.371.584.012.571.384 0 .371-.582-.012-.57ZM22.561 32.486c1.078.293 2.015.889 2.994 1.428.221.128.376.36.632.42a.28.28 0 0 0 .329-.216.288.288 0 0 0-.21-.34c-.026-.005-.044-.026-.065-.041-.381-.36-.873-.548-1.31-.824-.699-.383-1.409-.751-2.18-.961-.347-.117-.526.405-.189.535l-.001-.001ZM22.16 31.98c-.116-.36-.673-.162-.561.194.118.362.674.165.561-.193ZM12.149 33c.355-.145.723-.251 1.083-.38a5.998 5.998 0 0 1 1.097-.268.288.288 0 0 0 .22-.333c-.028-.15-.176-.258-.323-.226-.525.073-1.034.232-1.532.415-.469.139-.921.327-1.375.514-.139.061-.192.246-.129.38.192.37.679-.04.959-.103ZM10.397 34.048c.152-.005.27-.15.261-.3a.283.283 0 0 0-.291-.268c-.152.005-.27.15-.26.3a.283.283 0 0 0 .29.268ZM17.721 42.705c2.858-.027 4.573-3.39 2.967-5.825-1.627-2.52-5.413-2.067-6.428.776-.907 2.423.94 5.116 3.46 5.048h.001Z"/></g><path fill="#fff" d="M66.662 31.574c-.537-.028-1.02.307-1.415.647-1.034.843-1.77 1.998-2.49 3.112 1.639-.536 3.376-1.234 4.458-2.674a.97.97 0 0 0-.075-.917c-.12-.132-.315-.146-.478-.17v.002Zm-.434 1.247a.284.284 0 0 1-.201.072c-.152 0-.268-.156-.259-.302a.287.287 0 0 1 .093-.194.284.284 0 0 1 .201-.072c.151 0 .268.156.258.302a.288.288 0 0 1-.092.194Z"/><path fill="#000" d="M66.006 31.1c-.558.194-1.015.58-1.445.982-.684.637-1.26 1.378-1.758 2.174l.022-.032c-.188.296-.387.583-.577.877-.083.14-.263.29-.19.477a.3.3 0 0 0-.039.282c.149.334.536.108.788.054 1.136-.349 2.258-.79 3.262-1.446.629-.449 1.564-1.093 1.756-1.891.194-1.251-.719-1.827-1.816-1.475l-.003-.001Zm1.21 1.56c-1.08 1.439-2.819 2.137-4.458 2.674.72-1.115 1.455-2.27 2.49-3.113.394-.34.877-.676 1.414-.647.165.024.36.038.478.17.172.259.21.632.075.916Z"/><path fill="#000" d="M66.061 32.325a.282.282 0 0 0-.294.266c-.008.146.109.302.259.302a.282.282 0 0 0 .293-.266c.009-.146-.108-.302-.258-.302Z"/><defs><clipPath id="a"><path fill="#fff" d="M0 0h65v72H0z"/></clipPath></defs></svg>