<svg xmlns="http://www.w3.org/2000/svg" width="72" height="66" fill="none"><g clip-path="url(#a)"><path fill="#4EC5D9" d="M41.105 31.814c1.39 4.208 5.588 7.048 9.909 6.697 5.318-.34 9.455-5.2 9.075-10.628-.305-5.48-5.09-9.752-10.414-9.339-6.413.429-10.686 7.077-8.571 13.27h.001Zm7.802 5.979c-.132-.328.409-.55.536-.22.132.327-.408.549-.536.22Zm3.343.007c-.103.203-.36.187-.548.232-.347.051-.697.114-1.048.085-.255-.043-.757.037-.724-.36a.263.263 0 0 1 .297-.22c.584.109 1.183.038 1.753-.109.192-.028.358.19.271.372h-.001Zm-.303-18.63c.345.047 1.848.255 1.826.69-.003.228-.27.326-.44.206-.507-.246-1.061-.33-1.612-.39-.252-.05-.716.111-.734-.283.037-.428.68-.223.96-.225v.001Zm3.654 8.47c.608 3.516-2.132 6.423-5.262 6.423a5.196 5.196 0 0 1-2.282-.534c-2.49-1.213-3.496-4.014-2.834-6.436.097.152.234.282.38.383.15.106.315.178.492.227a1.763 1.763 0 0 0 .441.058c.068 0 .136-.005.201-.014.215-.032.429-.09.627-.182.102-.046.2-.102.288-.171a1.79 1.79 0 0 0 .253-.245c.129-.153.243-.323.335-.5.107-.209.187-.434.176-.673-.01-.213-.04-.43-.11-.631-.069-.206-.184-.4-.33-.557a1.98 1.98 0 0 0-.428-.348 2.064 2.064 0 0 0-.42-.198l.093-.07c3.155-2.36 7.71-.47 8.378 3.47l.002-.001Zm-5.542-8.443c.142 0 .257.13.253.272a.265.265 0 0 1-.265.258c-.142 0-.257-.13-.253-.271a.264.264 0 0 1 .265-.26Z"/><path fill="#9EF1FF" d="m47.544 24.436.006.004.01.006-.016-.01Z"/><path fill="#fff" d="M44.389 37.887c.037-.012.076-.017.116-.012.147.025.307-.06.389-.184a.593.593 0 0 0-.13-.26.325.325 0 0 1-.039-.081 10.372 10.372 0 0 1-3.578-4.079c-2.674-5.46-.25-11.606 4.476-14.117.027-.049.06-.098.062-.156.015-.23-.23-.204-.38-.275a21.55 21.55 0 0 0-5.336 1.924c-3.32 1.701-6.233 4.299-8.177 7.55-.006.011-.014.02-.022.029a1.03 1.03 0 0 0-.008.457c.14.232.283.457.418.663 2.847 4.329 7.322 7.247 12.206 8.542h.003ZM39.613 24.22a8.566 8.566 0 0 1 1.237-2.26c.23-.341.688-.075.469.267-.417.469-.688 1.005-.965 1.55-.096.234-.174.401-.254.624a.26.26 0 0 1-.331.16.27.27 0 0 1-.156-.34v-.001Zm-.102.831c.141 0 .265.1.273.25.008.138-.102.28-.243.28a.265.265 0 0 1-.274-.25c-.008-.138.103-.28.244-.28Z"/><path fill="#9EF1FF" d="M25.81 45.694a4.576 4.576 0 0 1-.863-.975 4.748 4.748 0 0 1-.417-.782.255.255 0 0 1-.074-.113c-.51-.521-1.51-.493-2.19-.467a.836.836 0 0 0-.4.204c-.076.088-.14.198-.23.27.254.902.707 1.733 1.284 2.465.484.729 1.114 1.315 1.794 1.842.238.175.471.34.713.489.055-.056.133-.066.201-.098.136-.086.242-.129.33-.24.17-.35.18-.764.248-1.144.049-.384.09-.796-.123-1.135-.071-.118-.174-.216-.271-.316h-.003Z"/><path fill="#9EF1FF" d="M20.973 43.224c-.786.596-1.574 1.19-2.36 1.787-2.675 2.027-5.35 4.05-8.024 6.078l-7.761 5.878-1.403 1.063c-.005.008-.008.017-.015.025-.042.066-.119.085-.18.126-.176.164-.308.375-.46.562-.214.376-.258.819-.252 1.243.054 1.208.554 2.278 1.18 3.276.492.723 2.013 2.623 2.957 2.117.1-.054.19-.12.279-.188.048-.048.1-.07.151-.076.584-.44 1.167-.883 1.75-1.325 2.522-1.913 5.046-3.821 7.568-5.733 2.62-1.982 5.238-3.968 7.859-5.951 1.182-.897 2.366-1.792 3.55-2.689-2.282-1.04-4.45-3.678-4.84-6.195v.002ZM4.475 57.072a.265.265 0 0 1-.262-.263.265.265 0 0 1 .257-.268c.141 0 .26.117.262.263a.265.265 0 0 1-.257.268Zm4.214-3.31c-.271.381-.727.576-1.061.896-.553.424-1.117.836-1.666 1.267-.214.139-.501.528-.746.244-.084-.113-.067-.288.048-.372.26-.192.508-.4.768-.593.737-.563 1.499-1.107 2.206-1.705.173-.299.611-.045.45.262Zm10.857-.344a.265.265 0 0 1-.262-.263.265.265 0 0 1 .256-.268c.142 0 .26.117.262.263a.265.265 0 0 1-.256.268Zm4.442-3.942c.351.258-.077.563-.296.72-.362.285-.735.56-1.08.866-.51.427-1.056.807-1.58 1.215-.168.123-.299.188-.444.306a.258.258 0 0 1-.363-.049c-.208-.327.25-.498.455-.65.302-.237.61-.465.919-.69.685-.531 1.344-1.095 2.033-1.621a.265.265 0 0 1 .356-.099v.002ZM68.202 31.693c-.233-.18-.54-.259-.813-.147-.047.027-.096.062-.148.087-4.56 5.307-11.767 8.01-18.635 7.485l.035.003a22.848 22.848 0 0 1-3.852-.581.287.287 0 0 1-.166-.041c-4.318-1.066-8.352-3.385-11.305-6.796a.341.341 0 0 0-.02-.023c-.114-.022-.204-.112-.322-.13-.452-.024-.901.342-1.013.787-.055.242-.049.492-.046.74a19.78 19.78 0 0 0 1.526 4.63c3.264 6.937 10.552 11.265 18.041 10.7 8.28-.515 15.396-6.892 17.024-15.197.031-.152.06-.305.087-.457a.396.396 0 0 1-.008-.059c.06-.375-.13-.741-.385-1v-.001Zm-30.191 5.312c-.698-.358-1.316-.787-1.956-1.235-.214-.194-.904-.513-.655-.863.16-.198.378-.065.509.093.326.27.667.509 1.02.72.4.306.847.569 1.292.8.307.15.102.62-.21.485ZM33.551 24.56c.117-.004.24 0 .345-.053a.272.272 0 0 1 .057-.016c7.462-7.952 20.536-9.03 29.374-2.854a21.001 21.001 0 0 1 3.189 2.704c.048.049.094.1.141.15.541.054 1.31-.353 1.31-.957a.296.296 0 0 1 0-.143C65.41 15.446 57.855 9.643 48.953 10.262c-8.041.584-14.17 6.094-16.44 13.07a.305.305 0 0 1-.022.148c-.042.591.467 1.16 1.059 1.08h.002Zm28.847-4.915c.141 0 .255.132.251.274a.265.265 0 0 1-.266.257c-.142 0-.256-.131-.252-.273a.265.265 0 0 1 .267-.258Zm-4.485-2.224c1.159.371 2.283.875 3.29 1.574.12.079.163.24.088.365-.073.122-.239.167-.356.09a11.851 11.851 0 0 0-3.26-1.545c-.161 0-.32-.1-.314-.281.02-.304.34-.281.55-.202l.002-.001Z"/><path fill="#4EC5D9" d="M28.107 42.03c-.252.145-.719.77-.987.434-.224-.354.323-.52.51-.73.47-.392.995-.72 1.45-1.127l-.004.005a19.163 19.163 0 0 1 1.02-.805 1.278 1.278 0 0 0-.161-.12.306.306 0 0 1-.101-.061l-1.602 1.215c-.783.593-1.565 1.184-2.346 1.777l-.736.557a.792.792 0 0 1-.002.168c-.003.65.45 1.168.905 1.567.22.213.495.286.789.303a.236.236 0 0 1 .16-.02l.5-.378c.714-.543 1.43-1.082 2.143-1.624.548-.413 1.094-.827 1.64-1.242.03-.684-.35-1.288-.8-1.774-.81.596-1.564 1.262-2.378 1.854Zm-1.42 1.082a.265.265 0 0 1-.005-.53.265.265 0 0 1 .005.53Z"/><path fill="#fff" d="M55.763 18.853c-.18.07-.425.09-.494.284.057.097.154.171.212.268 2.921 1.751 4.976 4.949 5.131 8.535.225 3.637-1.46 6.967-4.116 9.017-.021.113-.1.22-.061.336.111.263.418.326.667.293.01.003.018.008.027.01 3.715-1.17 7.134-3.306 9.704-6.294a19.386 19.386 0 0 0 2.022-2.828l.025-.036-.008-.155c-2.926-4.95-7.774-8.136-13.11-9.432v.002Zm4.271 15.599a.265.265 0 0 1-.273-.25c-.008-.138.102-.28.243-.28.142 0 .266.1.274.25.008.138-.102.28-.244.28Zm.318-.918a.274.274 0 0 1-.065-.37c.127-.197.246-.395.34-.61.21-.539.428-1.112.445-1.696.03-.327.5-.315.517.008.074.394-.68 3.102-1.237 2.668Z"/><path fill="#4EC5D9" d="M48.768 7.622C34.817 8.61 25.6 22.907 30.13 36.423c3.073 9.244 12.08 15.353 21.58 14.618 9.412-.606 17.495-7.87 19.338-17.322 2.81-14.11-8.267-27.075-22.279-26.1v.002Zm-2.42 1.161c.813-.258 1.634-.45 2.486-.436.206.025.429.008.615.109.196.151.08.484-.165.477-.113-.009-.223-.043-.337-.049-.723-.045-1.41.113-2.086.287-.19.063-.362.114-.524.168-.232.07-.609.296-.718-.058-.074-.382.489-.384.728-.5v.002Zm-1.56.321c.14 0 .258.124.256.268 0 .145-.12.263-.261.263a.264.264 0 0 1-.257-.268c0-.145.12-.263.262-.263ZM30.425 32.462a.264.264 0 0 1-.271-.252c-.007-.14.105-.277.246-.277.141 0 .264.102.27.252.007.14-.104.277-.246.277Zm.183-5.673c-.164 1.036-.253 2.09-.195 3.138.011.325.037.65.063.973a.264.264 0 0 1-.246.277c-.142.008-.26-.107-.27-.252a16.175 16.175 0 0 1 .038-3.531c.04-.31.082-.6.143-.9.053-.194.088-.493.35-.471.411.076.147.51.119.765l-.002.001Zm7.505 19.037c-.597-.303-1.076-.782-1.572-1.227-.175-.228-.733-.543-.424-.856a.257.257 0 0 1 .365.036c.559.594 1.158 1.184 1.873 1.577.296.172.061.626-.242.47Zm1.176.611a.265.265 0 0 1-.265-.259c-.004-.142.111-.271.252-.271.141 0 .262.11.266.258.004.142-.111.272-.253.272Zm22.064.344c-.488.382-.97.762-1.53 1.028-.243.104-.684.41-.81.009-.05-.232.166-.314.337-.37.267-.122.526-.261.781-.406.29-.208.604-.447.875-.655.26-.224.596.157.347.394Zm.894-.852c-.142 0-.254-.135-.25-.276a.266.266 0 0 1 .27-.255c.141 0 .254.136.249.276a.266.266 0 0 1-.27.255ZM49.3 48.956c-7.263-.277-14.05-5.18-16.785-12.061-4.382-10.73 1.338-23.07 12.222-26.387C55.6 7.143 67.1 14.353 69.1 25.794c.143.79.238 1.578.286 2.359.01.038.011.075.006.11.638 11.383-8.633 21.306-20.09 20.694v-.001Zm20.18-26.458c.315.824.653 1.658.722 2.55.052.15-.03.325-.186.36a.263.263 0 0 1-.31-.201c-.08-.882-.39-1.711-.714-2.527-.11-.328.36-.507.487-.182Zm-1.767-3.745c.38.65.78 1.338 1.05 2.029.095.203.25.505-.036.625a.262.262 0 0 1-.333-.158c-.3-.793-.711-1.527-1.141-2.251-.152-.31.293-.55.46-.244v-.001Z"/><path fill="#000" d="M55.25 7.637c-10.6-2.644-21.769 3.505-25.465 14.016-2.088 5.791-1.64 11.807.647 16.915a.263.263 0 0 0-.098.027c-1.361 1.008-2.702 2.048-4.057 3.067l-1.657 1.255c-.197-.064-.434-.037-.633-.075-.742-.086-1.492-.069-2.233-.163a5.172 5.172 0 0 1-.495-.062.271.271 0 0 0-.093.003.261.261 0 0 0-.289.018c-.677.514-1.356 1.027-2.034 1.54l-8.017 6.074c-2.602 1.97-5.205 3.94-7.806 5.911l-2.033 1.54a.196.196 0 0 0-.034.032c-.206.14-.348.384-.509.573-.58.77-.497 1.848-.291 2.743.134.768.504 1.46.886 2.125.25.46.566.88.908 1.273.579.615 1.336 1.446 2.2 1.544.408.052.787-.114 1.097-.375a.274.274 0 0 0 .12-.05c.228-.17.454-.343.68-.514l2.545-1.927 7.533-5.706c2.624-1.986 5.246-3.975 7.87-5.96l1.31-.993c.406-.308.817-.613 1.221-.925a.271.271 0 0 0 .047-.371c.018-.12.048-.281.06-.412.124-.857.192-1.717.286-2.582.003-.08.011-.173.009-.264l.877-.664 2.128-1.612c.768-.582 1.538-1.163 2.305-1.746a.112.112 0 0 1 .017-.011c3.496 5.264 9.156 9.034 15.968 9.657 12.49 1.25 23.59-8.91 23.768-21.762.271-10.378-6.867-19.799-16.742-22.132l.003-.007ZM22.261 52.11c-2.62 1.983-5.238 3.968-7.859 5.951l-7.568 5.733-1.75 1.325a.247.247 0 0 0-.151.076 2.15 2.15 0 0 1-.279.188c-.944.505-2.465-1.394-2.957-2.117-.626-.998-1.126-2.067-1.18-3.276-.006-.426.038-.869.251-1.243.153-.187.285-.398.461-.562.061-.042.139-.06.18-.127.007-.007.01-.017.015-.025l1.402-1.062 7.762-5.879c2.675-2.026 5.35-4.05 8.024-6.077.786-.597 1.572-1.193 2.36-1.787.389 2.518 2.557 5.156 4.839 6.196l-3.55 2.688v-.002Zm3.941-4.962c-.067.379-.078.794-.248 1.143-.087.111-.193.153-.33.24-.068.033-.145.042-.2.098-.241-.148-.476-.316-.714-.49-.68-.527-1.31-1.113-1.794-1.84a7.144 7.144 0 0 1-1.284-2.466c.091-.073.156-.182.23-.27a.835.835 0 0 1 .4-.203c.68-.027 1.68-.055 2.19.466.015.045.04.084.074.113.12.305.303.606.417.783.245.362.529.701.863.975.098.099.2.197.27.315.214.34.174.751.124 1.136h.002Zm5.083-5.197-1.641 1.243-2.144 1.623-.499.378a.228.228 0 0 0-.16.02c-.294-.017-.568-.091-.79-.302-.455-.4-.908-.917-.904-1.568a.65.65 0 0 0 .002-.167l.736-.557 2.346-1.778 1.602-1.215a.315.315 0 0 0 .1.061c.058.035.11.076.163.12a19.202 19.202 0 0 0-1.02.805l.003-.004c-.455.406-.982.735-1.45 1.126-.186.21-.733.377-.51.73.268.336.733-.288.987-.434.814-.592 1.567-1.258 2.378-1.855.45.486.83 1.09.8 1.774Zm39.76-8.228c-1.841 9.453-9.925 16.715-19.336 17.323-9.501.735-18.508-5.375-21.58-14.618C25.6 22.91 34.814 8.612 48.767 7.624c14.012-.975 25.09 11.99 22.279 26.1v-.002Z"/><path fill="#000" d="M47.13 24.242c.147.05.286.117.42.198-.002 0-.005-.003-.006-.004l.016.01a2.02 2.02 0 0 1 .418.342c.145.159.26.352.33.557.069.201.099.419.11.631.01.239-.07.464-.177.672a2.743 2.743 0 0 1-.334.5 1.448 1.448 0 0 1-.541.417c-.199.092-.413.15-.627.182a1.43 1.43 0 0 1-.201.014c-.034 0-.068 0-.1-.004a1.755 1.755 0 0 1-.342-.054 1.575 1.575 0 0 1-.492-.227 1.389 1.389 0 0 1-.38-.383c-.66 2.422.344 5.223 2.834 6.436.757.367 1.53.535 2.283.534 3.129 0 5.868-2.907 5.261-6.422-.668-3.941-5.223-5.83-8.378-3.47a4.381 4.381 0 0 0-.093.07l-.001.001Z"/><path fill="#000" d="M69.393 28.26a.267.267 0 0 0-.007-.11 20.066 20.066 0 0 0-.286-2.358C67.099 14.352 55.6 7.14 44.739 10.505c-10.883 3.317-16.603 15.657-12.223 26.387 2.736 6.882 9.523 11.784 16.786 12.061 11.458.613 20.728-9.311 20.09-20.693Zm-36.9-4.782c.02-.051.026-.102.02-.148 2.273-6.976 8.402-12.485 16.442-13.07 8.902-.618 16.457 5.183 19.015 13.13a.268.268 0 0 0 0 .143c0 .603-.769 1.01-1.31.956l-.142-.15a21.139 21.139 0 0 0-3.188-2.703c-8.837-6.176-21.911-5.099-29.375 2.853a.211.211 0 0 0-.057.016c-.105.053-.229.048-.344.053-.592.08-1.102-.487-1.058-1.08h-.003Zm27.597 4.403c.38 5.427-3.756 10.289-9.075 10.627-4.32.351-8.519-2.489-9.908-6.697-2.116-6.194 2.157-12.841 8.57-13.27 5.323-.415 10.11 3.858 10.414 9.338l-.001.002Zm-28.317.342c.008-.01.015-.017.022-.028 1.944-3.252 4.857-5.85 8.177-7.551a21.564 21.564 0 0 1 5.336-1.923c.15.07.394.043.38.274-.003.059-.034.108-.062.157-4.727 2.512-7.15 8.658-4.477 14.117a10.364 10.364 0 0 0 3.58 4.078c.007.028.02.056.037.081.058.077.112.16.13.26-.081.125-.242.21-.388.184a.264.264 0 0 0-.117.012c-4.885-1.295-9.36-4.214-12.206-8.542a20.954 20.954 0 0 1-.417-.663 1.03 1.03 0 0 1 .008-.457l-.003.001Zm36.823 4.527c-.027.153-.056.305-.087.458-1.628 8.304-8.743 14.681-17.023 15.196-7.49.565-14.778-3.763-18.042-10.7a19.781 19.781 0 0 1-1.526-4.63c-.003-.247-.01-.498.047-.74.111-.445.56-.811 1.012-.787.12.02.208.109.322.13l.02.024c2.954 3.41 6.987 5.73 11.305 6.795.05.032.107.042.166.041 1.267.302 2.559.499 3.852.58l-.035-.002c6.867.526 14.076-2.178 18.636-7.485.05-.025.1-.06.147-.087.273-.111.582-.032.814.147.255.259.445.625.384 1 0 .022.004.04.008.059Zm.26-4.276c-.168.288-.344.57-.527.85a19.724 19.724 0 0 1-1.494 1.977c-2.57 2.989-5.99 5.124-9.705 6.296l-.027-.011c-.25.032-.557-.032-.667-.293-.039-.116.04-.222.06-.336 2.659-2.05 4.344-5.38 4.117-9.017-.156-3.586-2.21-6.784-5.13-8.535-.058-.097-.156-.171-.213-.268.069-.195.315-.215.494-.284 5.336 1.296 10.184 4.482 13.11 9.432l.008.155a.235.235 0 0 0-.024.036l-.002-.002ZM20.679 51.885c-.205.152-.663.323-.455.65.086.114.254.14.363.05.145-.118.276-.183.443-.307.524-.408 1.071-.787 1.581-1.215.346-.306.718-.58 1.08-.866.218-.156.647-.461.296-.72-.126-.074-.281-.022-.356.098-.69.525-1.349 1.09-2.034 1.621-.31.226-.616.454-.918.69v-.002ZM19.54 52.887a.265.265 0 0 0-.257.268c0 .146.12.263.261.263a.265.265 0 0 0 .257-.268.265.265 0 0 0-.262-.263ZM8.238 53.5c-.707.597-1.469 1.14-2.206 1.706-.259.192-.508.4-.768.593-.115.085-.132.26-.048.371.245.284.532-.105.746-.244.55-.431 1.111-.842 1.666-1.267.334-.32.79-.514 1.06-.896.161-.308-.277-.56-.45-.263ZM4.469 56.541a.265.265 0 0 0-.257.268c.001.146.12.263.262.263a.265.265 0 0 0 .256-.268.265.265 0 0 0-.261-.263ZM26.681 42.581a.265.265 0 0 0 .005.53.265.265 0 0 0 .257-.267.265.265 0 0 0-.262-.263Z"/><path fill="#000" d="M39.769 24.56a.26.26 0 0 0 .331-.16c.08-.221.158-.388.254-.623.279-.545.548-1.082.965-1.55.219-.343-.238-.61-.469-.269a8.569 8.569 0 0 0-1.237 2.26.27.27 0 0 0 .156.34v.002ZM39.54 25.58c.142 0 .252-.141.244-.279a.265.265 0 0 0-.273-.25c-.141 0-.251.143-.244.28.008.15.133.25.274.25ZM61.072 30.859c-.016.583-.236 1.156-.446 1.695a4.357 4.357 0 0 1-.34.61.274.274 0 0 0 .066.37c.558.434 1.31-2.273 1.237-2.668-.017-.323-.487-.335-.517-.007ZM60.005 33.922c-.142 0-.252.142-.244.28.008.15.132.25.273.25.142 0 .252-.142.244-.28a.265.265 0 0 0-.273-.25ZM51.979 37.428c-.57.147-1.17.218-1.754.109a.263.263 0 0 0-.296.22c-.032.397.47.317.724.36.35.029.7-.034 1.048-.085.189-.045.446-.03.547-.232.087-.18-.079-.4-.27-.372h.001ZM48.907 37.792c.128.328.667.107.536-.22-.127-.33-.668-.11-.536.22ZM51.72 19.676c.55.06 1.105.143 1.611.39.171.122.438.024.44-.206.023-.435-1.479-.643-1.826-.69-.28.002-.922-.204-.96.225.019.393.482.232.735.282v-.001ZM50.047 19.727a.266.266 0 0 0 .265-.258c.003-.142-.111-.272-.252-.272a.266.266 0 0 0-.013.53ZM30.49 26.023c-.261-.022-.295.276-.35.472-.06.3-.103.589-.142.9a16.174 16.174 0 0 0-.038 3.53c.011.145.128.26.27.252a.265.265 0 0 0 .246-.277c-.025-.324-.05-.648-.063-.973-.058-1.049.031-2.102.195-3.138.029-.255.293-.688-.119-.765l.002-.001ZM30.401 31.932c-.141 0-.252.138-.246.277.006.15.13.252.27.252.142 0 .253-.138.247-.277a.264.264 0 0 0-.27-.252ZM46.337 9.34c.162-.054.333-.104.524-.168.677-.174 1.363-.332 2.086-.287.114.006.224.04.337.05.246.006.361-.327.165-.478-.186-.1-.409-.085-.615-.109-.852-.014-1.673.178-2.487.437-.24.116-.802.116-.728.5.11.354.486.127.718.058V9.34ZM44.785 9.635a.265.265 0 0 0 .005-.53.265.265 0 0 0-.005.53ZM69.709 25.205a.261.261 0 0 0 .31.2c.156-.035.237-.209.186-.359-.069-.891-.407-1.725-.723-2.55-.127-.324-.597-.145-.487.183.324.815.633 1.644.714 2.526ZM68.397 21.246a.261.261 0 0 0 .332.158c.287-.12.131-.422.037-.625-.271-.69-.67-1.378-1.05-2.03-.168-.304-.612-.064-.46.245.43.724.84 1.458 1.14 2.25v.002ZM61.008 46.387c-.27.208-.585.447-.874.655-.255.144-.514.284-.781.406-.171.056-.387.139-.337.37.126.402.566.097.81-.01.56-.265 1.041-.645 1.53-1.027.248-.238-.087-.618-.348-.394ZM62.269 45.397a.266.266 0 0 0-.27.255c-.005.139.108.276.249.276a.266.266 0 0 0 .27-.255c.005-.14-.108-.276-.25-.276ZM38.357 45.356c-.715-.393-1.315-.983-1.873-1.577a.26.26 0 0 0-.366-.036c-.309.312.25.627.424.856.496.445.975.923 1.572 1.227.304.156.538-.298.243-.47ZM39.278 45.907a.265.265 0 0 0 .013.53c.14 0 .255-.131.252-.272a.265.265 0 0 0-.265-.258ZM38.22 36.52a8.895 8.895 0 0 1-1.292-.8 8.444 8.444 0 0 1-1.02-.72c-.132-.157-.348-.29-.508-.093-.25.35.441.67.655.863.64.447 1.258.877 1.956 1.235.312.137.517-.333.21-.485ZM57.676 17.905c1.145.348 2.262.857 3.26 1.545a.258.258 0 0 0 .356-.09.273.273 0 0 0-.087-.365c-1.008-.697-2.133-1.203-3.291-1.574-.211-.08-.531-.102-.55.201-.007.182.152.282.313.282l-.001.001ZM62.384 20.176c.141 0 .263-.11.267-.257.004-.142-.11-.274-.252-.274a.265.265 0 0 0-.266.258c-.004.142.11.273.25.273ZM50.737 4.898c-.031.134-.008.29.116.358l-.007.047a.261.261 0 0 0-.132.219c-.012.298.386.362.538.146.16-.244.133-.568.152-.85 0-.408-.08-.811-.185-1.202-.107-.484-.367-.96-.274-1.473.138-.506.362-.997.323-1.537-.012-.204.032-.513-.207-.593-.228-.07-.384.166-.336.377.022.275-.002.55-.068.817-.507 1.582-.239 1.609.063 3.113.03.191.032.386.017.578ZM47.264 3.228c.07.21.13.424.166.642.069.231-.057.597.212.707-.015.15-.084.299.034.433.118.128.356.109.425-.067.082-.404.156-.846.025-1.248-.091-.257-.241-.48-.392-.703a3.182 3.182 0 0 1-.186-.835c-.007-.18-.16-.34-.34-.293-.25.06-.278.404-.262.618.01.282.163.524.318.748v-.002ZM42.403 2.326c.273.482.143 1.07.354 1.575.225.587.855.851 1.16 1.387.108.18.195.369.272.564.053.134.2.207.334.155.019.04.019.078.012.12a.265.265 0 0 0 .218.273c.728-.01 0-1.166-.22-1.445-.333-.448-.772-.803-1.103-1.252-.343-.506-.05-1.262-.56-1.676-.104-.073-.153-.198-.252-.28-.137-.143-.395-.186-.511.004-.153.25.115.452.299.575h-.003ZM53.557 5.447c.326.084.469-.34.605-.565.5.117.676-1.51.747-1.866.031-.187.151-.345.18-.53.008-.169-.16-.317-.32-.271-.157.046-.258.207-.34.342-.252.389-.354.84-.423 1.295-.087.337-.228.659-.398.96-.36-.01-.335.537-.05.637l-.001-.002ZM56.318 6.506c.536.021 1.566-1.135 1.798-1.62.497-.509.803-1.161 1.039-1.831.081-.209.198-.491.348-.683.201-.154.416-.288.639-.409.137-.074.33-.138.353-.32.008-.545-.67-.268-.92-.07-.529.42-.993.933-1.267 1.564-.237.467-.393.97-.62 1.442-.296.343-.62.662-.928.995a.24.24 0 0 0-.061.159c-.093.074-.19.146-.288.212l-.041.024c-.368-.041-.412.49-.052.537Z"/></g><defs><clipPath id="a"><path fill="#fff" d="M0 0h72v66H0z"/></clipPath></defs></svg>