<svg xmlns="http://www.w3.org/2000/svg" width="72" height="58" fill="none"><g clip-path="url(#a)"><path fill="#FFCD85" d="M41.034 28.98s-.011.011-.015.018c0 .013.02.045.024.05.127.146.318.22.498.277.079-.105.155-.216.188-.345l.005-.028c-.076-.172-.566-.073-.699.029h-.001ZM37.274 23.5c.095.132.269.174.423.168a.226.226 0 0 0-.067-.098c-.1-.074-.235-.082-.356-.07Z"/><path fill="#FFEED6" d="M32.077 19.584c.218.441.403.898.615 1.343.413.9.807 1.805 1.197 2.714.47.847.854 1.734 1.267 2.61.303.684.532 1.4.886 2.063.617 1.278 1.253 2.55 1.906 3.81.316.705.662 1.396 1.009 2.087.392.894.801 1.78 1.19 2.676.61 1.149 1.145 2.352 1.737 3.502a154.5 154.5 0 0 1 2 4.058c.445.866.906 1.725 1.323 2.606l.176.367c.017.02.03.044.041.071.047.044.08.105.101.167.125.318.3.613.422.932.294.615.6 1.23.774 1.892.1.104.096.25.087.4.036.163.086.362.01.479 0 .03 0 .06-.003.09.027.011.052.023.079.036.276-.51.698-.91 1.119-1.301.224-.202.45-.4.68-.595a.316.316 0 0 1 .123-.165c.309-.27.528-.62.727-.976.423-.678.796-1.454.838-2.264.008-.579.02-1.15.057-1.72-.377.136-.695.348-1.024.578-.25.168-.553.19-.834.268-.593.247-1.015.82-1.417 1.292-.135.34-.583.136-.412-.187.43-.551.894-1.132 1.521-1.46.237-.128.513-.13.763-.222.27-.124.534-.363.793-.486.199-.11.41-.188.623-.259a.16.16 0 0 1 .023-.004c.036-.389.083-.778.153-1.167.093-.44.19-.885.337-1.308a.221.221 0 0 1 .068-.111c.157-.548.338-1.087.537-1.617-.264.128-.51.294-.785.4-.36.118-.744.192-1.056.421-.18.136-.292.334-.437.503-.341.371-.809.618-1.297.717-.29.558-.787 1-1.37 1.216-.276.105-.56.18-.844.265a.224.224 0 0 1-.277-.15.229.229 0 0 1 .148-.28c.699-.185 1.405-.404 1.818-1.042-.375-.075-.79-.317-.882-.719a.558.558 0 0 1 .386-.64c.54-.196 1.248.229 1.175.848.273-.092.526-.245.74-.44.27-.31.499-.676.897-.832.292-.145.613-.21.92-.314.36-.195.707-.415 1.108-.523l.015-.003c.664-1.28 1.475-2.483 2.347-3.62.19-.213.384-.424.584-.629-.048.019-.097.039-.147.056a.254.254 0 0 1-.085.009c-.434.19-.87.373-1.313.537-.444.183-.78.57-1.256.68-.552.166-1.16.11-1.674.397-.687.415-1.147 1.28-2.03 1.297-.4.054-.825-.153-1.203.027-.382.255-.637.657-.974.966-.441.46-1.016.774-1.605.985-.224.149-.475-.182-.261-.36.362-.19.791-.303 1.114-.566a5.66 5.66 0 0 0 .807-.76c.259-.275.501-.598.867-.728.467-.166.963.078 1.437-.04.327-.08.581-.317.821-.54.828-.9 1.352-.894 2.467-1.079.34-.061.613-.27.89-.464.324-.206.684-.338 1.045-.458.305-.124.598-.28.905-.399l.037-.012a4.498 4.498 0 0 0-.63-.158c-1.193-.231-2.336-.714-3.382-1.335a12.54 12.54 0 0 1-1.694-1.078c-.413-.267-.798-.57-1.167-.892a.217.217 0 0 1-.251-.078c-1.38-.063-.861.857-1.936 1.163-.355.116-.718.21-1.057.37-.266.116-.447-.28-.185-.408.213-.094.428-.177.65-.246.234-.076.477-.133.699-.245.298-.15.355-.528.607-.732.122-.11.26-.185.414-.24.11-.034.297-.08.488-.104-.231-.22-.458-.446-.684-.673a22.241 22.241 0 0 1-1.572-1.705.226.226 0 0 1-.184.25c-.441.103-.82.267-1.174.536-.582.468-1.01 1.06-1.847.884-.476.498-1.14.725-1.805.813-.16.025-.323.043-.482.077-.157.053-.38.103-.443-.106-.035-.114.03-.248.147-.28.692-.183 1.495-.152 2.07-.645-.365-.137-.808-.542-.521-.95.538-.589 1.966-.35 1.37.664.42.005.693-.365.992-.609.231-.198.477-.38.746-.521.279-.133.575-.242.876-.306a.19.19 0 0 1 .097.007 50.564 50.564 0 0 1-2.133-2.81.21.21 0 0 1-.119.092c-.738.227-1.283.863-2.023 1.085-.302.115-.666.002-.94.195-.2.163-.301.412-.46.613a1.564 1.564 0 0 1-.849.59c-.117.037-.247.05-.357.102-.07.1-.21.124-.31.053-.18-.134-.062-.384.113-.458.261-.115.567-.116.797-.303.33-.241.453-.664.76-.926.42-.368 1.037-.142 1.49-.45.378-.244.756-.49 1.144-.719.134-.055.34-.19.513-.213-.499-.717-.978-1.448-1.427-2.197-1.108.725-.8-.43-2.043.818-.23.216-.464.44-.752.576-.034.601-.517 1.042-1.071 1.172-.232.035-.627.352-.774.059-.049-.108-.004-.252.108-.298.453-.207 1.134-.233 1.268-.82-.424.033-1.036-.352-.822-.837.278-.436 1.11-.243 1.25.234.498-.34.864-.878 1.43-1.113.234-.085.476-.03.709.028.1.008.189-.05.276-.09.066-.036.129-.075.192-.114-.204-.354-.4-.712-.59-1.075a44.462 44.462 0 0 1-1.029-2.259.24.24 0 0 1-.04.011c-.566.05-1.132.211-1.566.6-.19.195-.352.446-.625.527-.299.06-.617.044-.903.17-.452.192-.945.452-1.178.909a1.002 1.002 0 0 0-.007.024c.126.325-.358.467-.426.123-.127-.78 1.282-1.512 1.925-1.603.409-.054.515.018.79-.352.248-.291.59-.47.935-.62.267-.136.561-.16.853-.2a5.836 5.836 0 0 0-.696-.96c-.72-.858-2.348-1.668-3.448-1.27a.234.234 0 0 1-.094.057 6.808 6.808 0 0 0-1.236 1.002c-.559.56-1.084 1.142-1.388 1.877a.215.215 0 0 1-.013.217c.035.063.066.128.093.182l.007-.008ZM45.2 35.25a3.06 3.06 0 0 1 .701-.295c.408-.102.849-.155 1.152-.482.436-.44.873-.945 1.495-1.101.57-.1 1.087-.27 1.625-.466.276-.08.408.333.129.43-.35.113-.693.254-1.047.347-.313.075-.646.094-.932.26-.629.35-.982 1.106-1.704 1.3-.417.103-.847.177-1.22.407-.45.262-.778.606-1.223.853-.468.228-.998.274-1.502.377-.285.039-.358-.39-.07-.444.472-.1.97-.133 1.407-.35.417-.25.761-.606 1.19-.835Zm-3.977-1.565c.464-.174.793-.566 1.234-.78.289-.127.597-.266.919-.238.269.01.486.452.174.57a.224.224 0 0 1-.27-.127c-.741.062-1.21.723-1.872.984-.266.116-.446-.278-.185-.409Z"/><path fill="#FFCD85" d="M40.68 21.247c.785 1.462 1.717 2.857 2.687 4.192.746.994 1.477 2.003 2.307 2.927.805.871 1.67 1.754 2.553 2.528 1.583 1.21 3.272 2.306 5.187 2.868.618.168 1.273.22 1.842.535a.174.174 0 0 1 .035-.004c.04-.08.075-.163.107-.247a.226.226 0 0 1 .072-.092c.22-.582.41-1.172.544-1.777.342-1.01.52-2.105.674-3.148.19-1.457.099-2.97-.113-4.412-.228-1.103-.402-2.22-.719-3.302a29.096 29.096 0 0 0-1.644-4.25c-.14-.3-.28-.6-.426-.9a.27.27 0 0 1-.072-.143 1.344 1.344 0 0 1-.036-.08c-.844-1.718-1.795-3.383-2.991-4.877-.737-1.052-1.577-2.018-2.405-2.994a32.561 32.561 0 0 0-1.506-1.577c-.598-.555-1.26-1.035-1.909-1.524-1.698-1.354-3.67-2.291-5.584-3.286-.421-.184-.852-.346-1.28-.515-.564-.214-1.107-.505-1.708-.602l-.022-.002c-.008.044-.016.087-.022.135a21.696 21.696 0 0 0-.224 1.901c.027.525-.054 1.043-.035 1.565.09 1.452.239 2.898.481 4.331.17 1.369.417 2.743.757 4.076.532 1.94 1.27 3.806 2.069 5.644.434 1.022.868 2.044 1.382 3.026v.005Zm7.578 7.78c-.085.106-.24.101-.336.011-.167-.122-.34-.236-.502-.367-.521-.402-.916-.935-1.314-1.456-.165-.24.19-.5.362-.26.346.446.68.906 1.114 1.27.205.176.43.323.647.484.097.072.102.227.028.317v.001Zm.94.854c-.124-.007-.209-.115-.209-.237 0-.123.118-.22.234-.212.125.006.21.114.21.237 0 .122-.118.219-.234.212Zm-2.54-22.313c.127-.276.636-.047.502.235-.127.278-.636.047-.502-.235Zm-2.517-2.02a.224.224 0 0 1 .258-.18c.454.123.814.555 1.191.801.267.203.55.386.793.617.086.086.072.238-.012.318-.233.206-.48-.208-.663-.295a33.06 33.06 0 0 1-1.075-.815c-.09-.063-.175-.14-.28-.176a.231.231 0 0 1-.212-.269Zm-6.12 1.485c-.092-.815-.154-1.587-.239-2.397-.038-.346-.03-.695-.046-1.042-.021-.15.042-.333.216-.335a.195.195 0 0 1 .095.022c.21-.05.412.137.594.221.321.173.662.29.971.484.76.391 1.486.84 2.234 1.254.725.454 1.395.991 2.098 1.478 1.151.872 2.12 1.958 3.047 3.064 1.31 1.522 2.43 3.2 3.52 4.888 1.842 2.954 3.267 6.203 3.956 9.64a25.96 25.96 0 0 1 .252 5.904c-.026.43-.134.858-.092 1.29a.219.219 0 0 1-.056.152l-.001.004c-.053.104-.195.157-.299.094-.037-.021-.07-.045-.106-.069-.21-.098-.425-.188-.633-.294-.747-.388-1.509-.745-2.182-1.26-.693-.442-1.38-.915-2.005-1.452-1.12-.867-2.213-1.779-3.183-2.82-2.044-2.252-3.436-5-4.68-7.765a38.982 38.982 0 0 1-1.593-3.874c-.678-1.742-1.213-3.54-1.536-5.385-.05-.614-.21-1.207-.337-1.806l.004.004Z"/><path fill="#FFEED6" d="M41.387 16.81a3.379 3.379 0 0 1 .444-1.843c.543-.96 1.544-1.564 2.56-1.895 1.294-.462 2.689-.208 3.955.22.331.12.688.219.992.4-.38-.566-.767-1.125-1.15-1.687-1.064-1.383-2.155-2.77-3.406-3.982-.787-.751-1.684-1.367-2.568-1.994-1.006-.684-2.16-1.294-3.228-1.867-.278-.11-.54-.257-.804-.395.01.466.046.928.103 1.39.015.563.125 1.116.155 1.679.049.38.174.745.236 1.122.1.548.145 1.105.288 1.645.243 1.33.68 2.607 1.118 3.882.41 1.122.834 2.232 1.305 3.324Z"/><path fill="#FFCD85" d="M17.34 28.53a.244.244 0 0 0-.037.017c-.047.028-.027.089-.007.126l-.005-.013a.08.08 0 0 1-.006-.015c.08.15.24.237.387.304.063-.066.137-.139.148-.233-.051-.184-.317-.24-.479-.187ZM45.268 13.316c-2.695.483-4.417 2.634-2.85 5.263.483 1.107 1.532 1.793 2.623 2.186 1.156.337 2.433-.006 3.43-.639a4.663 4.663 0 0 0 1.93-3.285 5.46 5.46 0 0 0-.142-.803c-.055-.17-.145-.329-.173-.506-.012-.246-.13-.463-.247-.66a2.207 2.207 0 0 0-.677-.767c-1.055-.521-2.728-.98-3.892-.789h-.002Zm3.348 4.065a2.01 2.01 0 0 1-.382.674.716.716 0 0 0-.161-.229.904.904 0 0 0-.174-.132 1.558 1.558 0 0 0-.273-.13c.01.003.02.006.028.01-.075-.027-.153-.057-.235-.057a.575.575 0 0 0-.374.127.833.833 0 0 0-.188.23c-.024.041-.05.083-.07.126-.067.139-.127.298-.107.454.016.14.08.263.17.369.041.048.087.093.133.135-.95.357-2.245.303-2.823-.655-.456-.7-.566-1.686-.069-2.392.485-.624 1.484-.946 2.243-1.005.528-.044 1.039.15 1.506.381.364.167.692.48.744.898.06.218.094.453.094.686 0 .174-.02.347-.062.513v-.003ZM19.793 12.392a24.926 24.926 0 0 1-.884-1.071c-.366-.427-.806-.779-1.24-1.13-.811-.704-1.531-1.528-2.49-2.022a.293.293 0 0 0-.093-.014c-.009 0-.017-.003-.024-.004-.228.179-.336.49-.449.753-.12.39-.252.772-.387 1.156-.117.398-.25.795-.361 1.194-.114.51-.152 1.035-.22 1.553-.04.647-.084 1.305-.076 1.957.062.245.14.49.266.71.12.168.25.328.423.444.059.04.126.071.185.112.882-.085 1.767-.074 2.653-.088 1.076-.079 2.155-.037 3.233-.003.178.013.355.029.534.047.542-.374.348-1.091.126-1.63l-.051-.088c-.341-.634-.698-1.318-1.146-1.874v-.002Zm-1.858-.153c-.188.132-.331-.072-.429-.214-.313-.376-.613-.777-.995-1.086-.372 0-.299-.511.063-.454.177.035.307.178.436.296.237.229.448.484.66.738.129.202.537.48.266.72h-.001Zm.845.837a.223.223 0 0 1-.295.108c-.029-.014-.058-.025-.088-.037-.338-.071-.272-.53.064-.457.177.06.416.149.319.386ZM27.415 37.993c.006.31.232.589.503.715-.022-.305-.236-.584-.503-.715ZM48.54 52.678c-.005-.01-.012-.02-.018-.028a.03.03 0 0 0-.005.006l.024.022Z"/><path fill="#FFCD85" d="M12.298 15.896c.683-.246.72-1.322.825-1.936.004-.011.012-.02.018-.03l.015-.372c.06-.94.114-1.902.392-2.807.144-.446.27-.895.434-1.333.172-.524.309-1.076.67-1.505.075-.094.177-.202.307-.194.014 0 .027.002.04.005a.223.223 0 0 1 .102-.02c.666.038 2.034 1.384 2.553 1.88.705.601 1.448 1.165 1.983 1.94.458.507.883 1.043 1.206 1.652.126.228.256.455.386.682a.693.693 0 0 1 .157.275l.067.117c.167.041.234.317.335.444.216.35.472.68.788.941.317.336.736.528 1.179.32.514-.181.406-.864.328-1.287a.21.21 0 0 1 .026-.14 52.314 52.314 0 0 1-.28-.467c-.5-.892-.988-1.802-1.651-2.584-.479-.575-.94-1.16-1.48-1.679-.697-.622-1.417-1.22-2.13-1.824-1.114-.881-2.263-1.79-3.526-2.432-.35-.195-.722-.342-1.065-.55-.074-.053-.184-.088-.286-.13-.358.493-.59 1.07-.81 1.635-.15.413-.195.853-.327 1.271-.376 1.081-.514 2.225-.631 3.359-.18 1.325-.437 2.661-.428 4 .13.377.36.798.802.77l.001-.001ZM59.679 28.01c.085.081.213.087.325.082a.486.486 0 0 0-.28-.09.61.61 0 0 0-.044.006l-.001.001Z"/><path fill="#FFEED6" d="M57.314 44.424c.167.216.4.344.657.41l.224-.062c.755-.161 1.517-.295 2.263-.497.132-.037.263-.077.393-.117.063-.27.676-.377-.309-1.379-.37-.364-.905-.47-1.324-.76-.319-.207-.62-.442-.922-.672-.377-.26-.739-.544-1.12-.791-.026.1-.05.203-.073.305-.029.59-.083 1.16-.178 1.715-.025.674.032 1.394.389 1.848Z"/><path fill="#FFCD85" d="M50.91 48.032c.01-.005.02-.008.029-.011l-.015-.05-.012.01a.378.378 0 0 1-.004.05h.002ZM47.917 16.913c.009.007.018.012.027.02l.003-.024c-.007 0-.012.003-.02.003h-.01Z"/><path fill="#FFEED6" d="M65.5 45.561c-.718.185-1.452.278-2.183.393-1.234.24-2.474.455-3.701.725-2.37.53-4.635 1.38-6.855 2.358-1.322.596-2.65 1.23-3.882 1.985-.226.372-.296.85-.079 1.239.225.289.341.645.556.938.113.153.205.321.327.469.06.056.124.122.155.198.451-.094.898-.218 1.35-.313 1.57-.353 3.134-.737 4.727-.974a63.96 63.96 0 0 0 5.479-1.063c.972-.182 1.94-.38 2.905-.596.74-.233 1.548-.393 2.29-.576.379-.095.764-.231 1.135-.33.806-.188 1.626-.3 2.438-.453.086-.375.074-.767.15-1.146.106-.511.237-1.02.245-1.546.002-.32-.009-.635.018-.952.073-.602.252-1.185.293-1.793.024-.262.03-.501.017-.741-.803.506-1.662.942-2.543 1.286-.936.332-1.866.685-2.84.891l-.001.001Zm-13.754 6.903c-.08.162-.179.428-.406.324-.106-.052-.16-.191-.105-.299.08-.163.18-.428.406-.324.107.052.16.193.105.3Zm2.702-.46c-.581.18-1.206.122-1.787.309-.21.038-.541.262-.66-.029-.039-.112.021-.25.138-.285.312-.096.627-.186.948-.243.417-.083.824-.049 1.218-.177.277-.088.417.324.143.426Zm4.286-2.22c-.086.12-.248.207-.375.094-.088-.075-.11-.23-.026-.317.088-.12.248-.207.376-.093.087.075.11.229.025.317Zm3.492-.518c-.608.255-1.285.3-1.928.426-.244 0-.829.206-.872-.156-.008-.117.085-.238.206-.24.235-.004.468-.03.7-.06.565-.122 1.16-.157 1.699-.374.263-.123.455.265.197.402l-.002.002Zm4.589-2.853c-.13.127-.323.34-.496.152a.229.229 0 0 1 .015-.317c.132-.127.322-.34.496-.152a.23.23 0 0 1-.015.318v-.001Zm2.99-1.601c.114.037.182.17.142.283-.104.25-.384.36-.607.479-.33.157-.668.304-1.005.451-.237.065-.685.433-.833.087-.085-.273.262-.32.43-.4.485-.217.983-.407 1.448-.666.157-.067.225-.304.425-.234Z"/><path fill="#FFEED6" d="M69.362 40.96a2.797 2.797 0 0 1-.098.063c-.06.045-.12.09-.182.134-.275.198-.56.382-.861.538-.075.045-.16.111-.246.15.185.41.596 1.129.432 1.423-.049.07-.127.098-.203.125-.357.158-.67.41-1.044.536-.393.142-.811.128-1.221.114-.462-.015-.924.008-1.385-.03a5.317 5.317 0 0 1-1.307-.218.22.22 0 0 1-.116.089c-1.052.314-2.073.738-3.148.973-.578.141-1.21.242-1.781.377l-.014.016a.663.663 0 0 1-.348.085c-.761.215-1.504.449-2.253.71-.21.315-.448.627-.718.934-.636.76-1.455 1.398-2.434 1.602-.261.068-.53.125-.785.217-.164.074-.4.134-.51-.058-.023-.093-.049-.185-.074-.278-.256.11-.485.283-.719.434-.54.348-1.039.75-1.523 1.173a.297.297 0 0 1-.015.16c.027.043.067.08.11.114a.213.213 0 0 1 .105.016.256.256 0 0 1 .05.029c1.194-.695 2.443-1.289 3.707-1.843 2.283-1.008 4.636-1.857 7.075-2.38 1.231-.239 2.461-.49 3.697-.704.493-.065.983-.138 1.47-.25 2.003-.445 3.952-1.143 5.692-2.25-.236-.233-.366-.56-.575-.818-.142-.376-.393-.682-.612-1.013-.043-.07-.105-.118-.165-.169h-.001Z"/><path fill="#FFCD85" d="M56.58 38.068c-.103-.63-.238-1.255-.49-1.843-.086-.241-.176-.513-.312-.725-.122-.183-.278-.34-.394-.527-.713.655-1.295 1.424-1.818 2.238-.547.74-.999 1.55-1.43 2.363-.249.506-.384 1.06-.564 1.593-.498 1.518-.759 3.126-.657 4.727.065.857.38 1.658.58 2.485.469-.167.97-.235 1.434-.421.812-.353 1.44-1.028 1.965-1.722.877-1.114 1.357-2.374 1.592-3.703.013-.538.075-1.077.146-1.608a1.81 1.81 0 0 1 .035-.17c.011-.295.013-.593.01-.89.01-.601.035-1.205-.096-1.796ZM58.136 40.38c.154.271.438.423.602.684a.44.44 0 0 1 .154.142c.21.136.421.271.628.411.714.406 1.463.762 2.201 1.114.535.216 1.061.46 1.61.635.751.196 1.53.229 2.301.219 1.231.065 1.297.004 2.35-.584-.5-1.31-1.12-2.644-2.088-3.665a7.538 7.538 0 0 0-.56-.557l-.072-.049a.191.191 0 0 1-.05-.057c-.836-.722-1.813-1.289-2.775-1.79-.615-.279-1.27-.45-1.902-.682-.97-.317-1.986-.456-2.969-.723a6.873 6.873 0 0 0-.16-.034c-.365.78-.397 1.466-.29 2.329.157.918.461 1.872 1.021 2.606v.002Zm4.791-1.608a.222.222 0 0 1 .295-.108c.16.064.369.172.276.38-.101.206-.314.112-.464.026a.228.228 0 0 1-.107-.298Zm-2.678-1.943c.245-.037.483.088.704.179.361.174.701.388 1.029.62.178.17.73.398.515.697-.23.25-.488-.164-.67-.258-.469-.304-.956-.718-1.517-.789-.345.09-.411-.41-.06-.45h-.001Z"/><path fill="#FFEED6" d="M48.486 20.65c-1.627.88-3.244.993-4.822-.056a3.961 3.961 0 0 1-.794-.605c.81 1.646 1.713 3.25 2.87 4.667 1.018 1.325 2.283 2.43 3.594 3.445.917.791 1.934 1.442 2.932 2.12.602.336 1.219.649 1.839.95.023.012.048.022.074.034.01-.265.059-.526.079-.79.075-.655.106-1.312.078-1.969-.002-1.607-.096-3.267-.465-4.829a32.527 32.527 0 0 0-1.189-3.756c-.587-1.456-1.319-2.85-2.088-4.212l-.026-.042c.176.434.277.91.27 1.378-.104.76-.401 1.493-.787 2.147a5.344 5.344 0 0 1-1.564 1.516l-.001.002Zm4.544 2.136c0 .122-.118.219-.234.212-.125-.007-.21-.115-.21-.237 0-.122.118-.22.235-.212.125.006.209.114.209.237Zm-.8-2.46c.118.02.178.125.224.226.125.28.226.57.322.863.04.23.268.633-.057.735-.322.046-.28-.38-.361-.587a8.514 8.514 0 0 0-.3-.813c-.236-.135-.088-.479.172-.424ZM53.57 13.748c.049-.042.095-.081.13-.118.316-.281.667-.526 1.048-.71.263-.12.448.28.185.409a4.56 4.56 0 0 0-1.232.916c-.011.01-.022.02-.035.029.046.205.097.407.155.605.055.228.14.447.204.673.76-.568 1.65-.94 2.506-1.34.263-.117.447.284.185.41-.853.393-1.726.76-2.482 1.331a.314.314 0 0 1-.023.081c.094.192.187.386.28.579.327.676.633 1.363.913 2.06.189-.074.354-.21.505-.346.307-.294.543-.674.935-.864.465-.229.967-.392 1.443-.583.194-.122.436.085.328.296-.037.073-.114.104-.185.129-.463.188-.941.34-1.39.56-.226.114-.39.308-.551.5-.24.27-.507.523-.83.687l-.091.04c.35.913.652 1.844.893 2.791.029-.027.059-.051.089-.074.197-.189.327-.463.598-.558.286-.108.616-.089.89.048a3.213 3.213 0 0 1 1.08-.63c.276-.068 1.01-.39 1.005.12-.01.189-.24.32-.388.182-.433.078-.85.245-1.207.506-.142.094-.253.251-.424.292-.102.017-.19-.033-.278-.075-.617-.26-.714.267-1.118.57a.225.225 0 0 1-.142.05c.104.445.195.893.27 1.345.134.586.229 1.18.292 1.778.198-.079.414-.114.603-.22.226-.126.412-.311.602-.484.425-.382.974-.556 1.47-.813.538-.308 1.017-.719 1.599-.948a.223.223 0 0 1 .293.11c.049.108.003.25-.108.298-.525.209-.965.57-1.444.862-.406.24-.858.38-1.256.632-.26.163-.463.4-.706.583-.274.227-.626.3-.948.423a.22.22 0 0 1-.062.017c.045.572.063 1.146.056 1.719a9.5 9.5 0 0 1-.17 1.9c-.104.658-.196 1.321-.371 1.966-.27.873-.463 1.768-.793 2.621a.22.22 0 0 1-.04.174c-.023.04-.046.091-.072.146.066.052.128.116.18.162.037.028.075.056.113.082.658.201 1.342.302 2.007.48.782.198 1.587.312 2.355.557h.001a.21.21 0 0 1 .128-.2c.064-.027.128-.053.19-.084.24-.147.404-.308.629-.455.627-.355 1.384-.354 2.02-.65.415-.251.83-.52 1.3-.648.358-.1 1.838-.428 1.988-.004.045.11.006.245-.109.297a.227.227 0 0 1-.25-.046 4.65 4.65 0 0 0-1.801.287c-.357.145-.667.38-1.007.556-.613.257-1.28.284-1.879.573-.271.173-.483.39-.758.524.594.193 1.191.38 1.761.638.661.335 1.314.709 1.927 1.136a.232.232 0 0 1 .109-.074c.799-.16 1.464-.843 2.314-.729.485.017.936-.2 1.401-.31.117-.03.24.03.277.15.033.113-.03.25-.148.28-.436.112-.862.29-1.313.328-.222.023-.448-.037-.667.012-.538.162-1.012.492-1.55.65.192.147.377.298.558.456.097.058.194.145.281.186.627.452 1.316.776 2.074.873.813.172 1.641.062 2.352-.37.369-.18.678-.464.954-.766-.128-.205-.25-.414-.376-.621-.572-.867-1.089-1.785-1.605-2.675-.806-1.289-1.635-2.563-2.387-3.886-1.025-1.79-1.9-3.665-2.758-5.54-1.035-2.221-2.178-4.386-3.335-6.543-.906-1.759-1.786-3.533-2.777-5.245-.588-1.18-1.255-2.313-1.93-3.444-.212-.38-.384-.778-.579-1.167 0-.004-.003-.007-.004-.01-1.465 1.123-2.005 1.67-1.965 3.7.003.288.028.577.07.865h-.002Zm10.61 15.878a.222.222 0 0 1 .293.11c.049.108.003.25-.108.298a8.487 8.487 0 0 0-.816.397c-.395.208-.737.508-1.142.692-.544.21-1.156.206-1.583.64-.213.194-.311.485-.533.67-.26.198-.602.203-.908.278-.285.07-.601.17-.768.431-.196.383-.489.71-.893.866a.224.224 0 0 1-.294-.11c-.089-.215.117-.312.278-.381.367-.172.457-.606.744-.862.418-.381 1.008-.372 1.513-.542.202-.13.276-.39.443-.557.256-.298.607-.499.974-.617.345-.102.677-.125.99-.296.585-.38 1.164-.76 1.81-1.018Zm-1.517-2.601a.225.225 0 0 1-.216.23c-.418.008-.832.19-1.14.47-.24.26-.475.538-.799.69-.203.628-.876.938-1.463 1.09-.138.038-.28.067-.416.114a.224.224 0 1 1-.2-.402c.526-.181 1.117-.237 1.504-.674-.4.019-.917-.363-.637-.795.297-.364.932-.184 1.154.183.266-.173.438-.452.684-.648a2.46 2.46 0 0 1 .861-.421c.217-.04.635-.172.668.162Z"/><path fill="#FFCD85" d="m70.217 39.618.017-.016-.018.008.001.007v.001ZM20.117 23.072c.068-.062.16-.118.174-.216a.823.823 0 0 0-.322.246c.055.03.106.015.148-.029ZM47.155 40.888c-.085.014-.17.09-.12.177.134.22.402.333.651.338a.632.632 0 0 0 .023-.189c-.026-.25-.334-.376-.554-.326ZM37.411 50.881c-.066-1.47-.764-2.796-1.715-3.882-.18-.041-.321-.19-.487-.268a42.538 42.538 0 0 0-.946-.432 50.1 50.1 0 0 1-1.398-.37c-.59-.1-1.134-.113-1.716-.135-.44-.004-.888-.01-1.317.1-.28.109-.553.237-.814.387.04.12.084.237.139.352.315.463.664.91 1.035 1.33.949.918 2.114 1.587 3.352 2.01.696.323 1.451.445 2.172.69.282.065.571.105.857.15.281.015.561.008.838.067v.001Z"/><path fill="#FFEED6" d="M38.232 48.944a.228.228 0 0 1 .168.03c.282.019.565.048.846.058.794.029 1.552.29 2.313.493.402.088.81.137 1.206.254.096.028.191.063.284.1a.208.208 0 0 1 .185-.048c.114-.079.1-.26.116-.385a.212.212 0 0 1-.016-.09 35.039 35.039 0 0 0-3.529-1.722 20.47 20.47 0 0 0-1.562-.645 35.61 35.61 0 0 0-.583-.18c-.71.012-.71.357-.562.966.115.375.41.648.648.944.13.129.314.175.483.227l.003-.002Z"/><path fill="#FFCD85" d="M34.664 45.986a.144.144 0 0 0 .02.009l-.002-.006-.018-.003ZM27.659 45.858c-.544-.162-1.133-.168-1.691-.143a5.812 5.812 0 0 0-2.166.499c-.124.062-.247.133-.377.178-.038.049-.076.098-.11.15-.334.54-.654 1.093-.866 1.695-.37.957-.653 1.924-.794 2.935a9.077 9.077 0 0 0-.045 1.106c-.018.231-.012.46.018.687.05.044.081.11.083.18.959.074 1.883-.331 2.657-.877.48-.294.966-.579 1.309-1.042.607-.603 1.085-1.317 1.502-2.065.243-.427.492-.857.658-1.322.172-.534.313-1.086.369-1.644-.04-.034-.076-.072-.117-.103a1.377 1.377 0 0 0-.432-.234h.002Zm-2.603 4.375c-.126-.007-.21-.115-.21-.237 0-.123.118-.22.234-.213.125.007.21.115.21.238 0 .122-.118.219-.234.212Zm1.77-2.795c-.167.506-.358 1.013-.641 1.466a.222.222 0 0 1-.306.068.23.23 0 0 1-.067-.31c.269-.447.448-.913.605-1.407a.231.231 0 0 1 .01-.32c.183-.172.443.068.445.272 0 .078-.025.157-.047.23h.001Z"/><path fill="#FFEED6" d="M28.098 48.604c.597-.082 1.226-.163 1.822-.164.043-.002.086-.004.13-.004a6.61 6.61 0 0 1-.44-.46c-.343-.485-.804-.905-.99-1.483 0-.003-.003-.006-.003-.008a8.589 8.589 0 0 1-.415 1.651c-.067.168-.143.33-.223.491.04-.006.08-.014.12-.023ZM7.358 29.909c1.262 1.889 2.492 3.803 3.872 5.608.569.78 1.144 1.553 1.721 2.328.925 1.318 1.823 2.655 2.745 3.974a56.367 56.367 0 0 1 3.075 4.93c.406.747.824 1.493 1.192 2.26.08.082.146.203.206.282.098.144.2.284.297.428.092.163.187.315.378.363.238.082.426-.131.609-.245l.028-.023c.01-.03.017-.062.026-.093.128-.482.273-.965.446-1.439a.192.192 0 0 1 0-.056c.068-.511.055-1.028-.118-1.515-.19-.639-.57-1.183-.877-1.767-.23-.364-.422-.749-.632-1.124l-.194-.3c-.14-.25-.282-.501-.422-.754-.23-.396-.457-.797-.676-1.183a.22.22 0 0 1-.032-.102c-.26-.48-.519-.957-.771-1.43-.45-.736-.835-1.504-1.21-2.28-1.162-2.083-2.183-4.26-3.44-6.281a48.261 48.261 0 0 0-2.483-4.2c-.355-.538-.661-1.107-.967-1.674-.249-.454-.515-.898-.77-1.348-.172-.178-.36-.34-.526-.525-.54-.527-1.084-1.058-1.719-1.468-1.03-.605-2.24-.972-3.43-.888-.51.074-1.125.142-1.513.511 1.063 1.544 1.876 3.252 2.969 4.776a130.66 130.66 0 0 0 2.214 3.232l.002.003Zm-.172-2.163c.125.007.21.115.21.237 0 .123-.118.22-.234.213-.126-.007-.21-.115-.21-.238 0-.122.118-.219.234-.212Zm-2.775-4.44c.285.451.523.933.84 1.366.31.47.56.947.912 1.381.123.213.584.488.346.746-.086.08-.234.08-.313-.012a8.595 8.595 0 0 1-1.037-1.43c-.371-.58-.757-1.148-1.08-1.755-.18-.22.14-.507.332-.296Z"/><path fill="#FFCD85" d="M70.348 49.982c-.01.003-.021.003-.031.003-.064.019-.132.03-.197.039-.216.036-.432.079-.648.119-.546.08-1.09.184-1.628.302-.848.267-1.703.477-2.568.664-.475.13-.945.283-1.43.371-1.371.291-2.752.534-4.113.879-1.835.396-3.7.622-5.54.983-1.414.29-2.817.64-4.226.96-.163.022-.343.117-.497.029-.009-.006-.015-.015-.023-.022a.225.225 0 0 1-.274-.12c-.206-.392-.494-.724-.797-1.04-.208-.177-.415-.363-.63-.542a4.533 4.533 0 0 0-2.03-.791c-.499-.02-.968.225-1.344.542-.241.207-.513.41-.694.664-.011.02-.022.041-.032.064-.004.014-.01.028-.016.042-.017.063-.02.128-.038.191-.043.174-.245.308-.398.174a.215.215 0 0 1-.055-.075 1.65 1.65 0 0 1-.147-.114 6.712 6.712 0 0 0-.767-.524c-.543-.308-1.126-.527-1.72-.709-.373-.108-.75-.204-1.127-.3-.213-.044-.426-.088-.64-.128-.829-.102-1.67-.133-2.5-.09-3.029.263-6.035.8-8.951 1.668-.93.308-1.77.84-2.71 1.12-1.058.329-2.033.87-3.031 1.324-.356.162-.72.487-1.123.43-.251.055-.321-.32-.42-.506-.146-.346-.329-.672-.51-1-.9-1.747-1.835-3.477-2.745-5.217-.83-1.588-1.87-3.056-2.866-4.541-.706-1.099-1.455-2.166-2.202-3.236-.78-1.193-1.575-2.38-2.343-3.582-.534-.868-1.063-1.741-1.657-2.57-.697-1.095-1.561-2.044-2.266-3.132-.573-.912-1.188-1.795-1.796-2.684-.442-.609-.697-1.325-1.085-1.965-.283-.462-.615-.892-.878-1.367a.185.185 0 0 1-.065-.04c-.302-.011-.473.271-.601.507-.08.134-.156.273-.187.427.476.67.892 1.378 1.35 2.06 1.136 1.617 2.013 3.406 3.137 5.035 1.18 1.76 2.327 3.553 3.532 5.294.466.626.887 1.346 1.32 1.978.19.267.38.531.545.815.497.849 1.076 1.646 1.592 2.482a342.16 342.16 0 0 1 3.253 4.998c1.303 2.13 2.56 4.287 3.856 6.422.273.405.511.867.91 1.16.122.07.263.087.404.1.067.003.14.012.21.019a.765.765 0 0 0 .315-.064.199.199 0 0 1 .18.022c.488-.096.952-.313 1.43-.453.958-.416 1.903-.87 2.882-1.239 1.805-.604 3.611-1.217 5.456-1.689 2.077-.443 4.17-.882 6.301-.868 1.195-.011 2.383.014 3.541.316.409.084.803.227 1.194.376.14.057.324.053.413.192.032.055.03.11.025.17-.006.226.042.456.134.66.217.372.552.658.895.906.369.362.85.552 1.34.676.938.318 1.937.176 2.848-.165.325-.135.664-.268.925-.512.073-.062.152-.117.23-.17a.196.196 0 0 1 .21-.005.24.24 0 0 1 .122-.044c.466-.014.922-.143 1.384-.202a47.758 47.758 0 0 0 3.417-.658c3.604-.772 7.154-1.772 10.78-2.443 1.542-.291 3.067-.676 4.623-.872a10.77 10.77 0 0 0 1.079-.225c.24-.07.462-.092.673-.176-.032-.148-.04-.306-.117-.435-.169-.323-.416-.771-.842-.664l-.001-.004ZM48.109 55.45c-.25.325-.98.167-1.35.174-.738-.04-1.536 0-2.192-.4-.177.045-.278-.127-.299-.281-.2-.472.177-1.001.457-1.337.463-.624 1.354-.587 2.008-.33.388.16.702.462.977.775.147.176.229.394.297.612.079.248.227.53.102.787Z"/><path fill="#FFEED6" d="M20.855 55.534c.992-.547 2.028-1.011 3.071-1.45.662-.216 1.315-.446 1.941-.758.638-.304 1.286-.57 1.962-.737 2.067-.552 4.163-1.015 6.286-1.248a25.788 25.788 0 0 1 1.666-.205 5.131 5.131 0 0 1-.385-.102c-.348-.124-.705-.206-1.06-.294-1.12-.367-2.254-.823-3.247-1.481a.92.92 0 0 1-.226-.071c-.17-.058-.349-.087-.515-.157-.508-.125-1.03-.11-1.542-.011a4.492 4.492 0 0 0-.215.044 2.837 2.837 0 0 0-.928.453c-.127.118-.261.232-.364.372a.42.42 0 0 1-.085.098c-.443.722-1.01 1.35-1.59 1.963-.17.177-.385.304-.593.43-.79.512-1.596 1.072-2.554 1.177-.336.024-.729.134-1.034-.048a.21.21 0 0 1-.2-.188c-.1-.388-.083-.781-.074-1.18a7.791 7.791 0 0 1 .051-1.004v-.021c-.067-.201-.312-.153-.466-.097-.099.107-.104.272-.143.407a.89.89 0 0 1-.025.2l.017.289c.066.592.093 1.184.109 1.78.05.482.19.951.145 1.441a6.928 6.928 0 0 0 0 .4l-.002-.002Zm8.956-4.631c.497-.095.977-.29 1.485-.316.198-.008.395-.004.592-.001.121.002.215.12.208.238a.227.227 0 0 1-.233.211c-.336-.007-.674-.014-1.002.07-.321.08-.638.173-.962.238a.225.225 0 0 1-.088-.442v.002Zm-1.194.449c.097-.15.212-.353.416-.23a.23.23 0 0 1 .066.31c-.094.167-.25.4-.455.237a.23.23 0 0 1-.025-.317h-.002ZM38.513 51.137l.02.014.154.025c.111.01.222.024.333.042.2.046.4.095.6.146.363.086.726.18 1.084.29.365.101.727.215 1.074.368.339.123.659.286.984.44.126.06.36.174.54.311.024-.042.05-.084.078-.125.374-.517.847-1.08 1.445-1.31-.215-.138-.452-.234-.675-.358a9.467 9.467 0 0 0-1.244-.683c-.561-.22-1.171-.235-1.742-.418-.781-.234-1.572-.42-2.389-.425-.078-.005-.157-.012-.237-.019-.065.01-.136.007-.197.038-.62.386-.415 1.346.17 1.663l.002.001Zm3.956.237.002-.013c.02.337-.44.38-.448.04-.031-.368.476-.396.447-.027h-.001Zm-2.494-1.124c.532.102 1.018.35 1.485.615a.23.23 0 0 1 .105.3c-.164.295-.47-.014-.673-.1-.376-.219-.796-.324-1.211-.431-.409-.17.05-.752.294-.384ZM3.045 27.648c.273.494.478 1.025.793 1.496.712 1.057 1.435 2.105 2.124 3.178.447.69.996 1.301 1.472 1.968.36.53.723 1.053 1.084 1.58.591.878 1.112 1.803 1.696 2.685.622.914 1.213 1.85 1.826 2.772a130.528 130.528 0 0 1 2.647 3.903c.62.876 1.202 1.78 1.759 2.699.82 1.372 1.515 2.81 2.273 4.217.478.905.947 1.814 1.431 2.714.096.177.178.361.26.545-.002-.225.01-.45.002-.676-.032-.433-.164-.822-.155-1.256.006-.925-.202-1.845-.107-2.77a.196.196 0 0 1-.012-.14c-.019-.055-.035-.11-.055-.162-.224-.632-.548-1.219-.838-1.82-1.485-2.946-3.314-5.685-5.206-8.371-1.422-2.177-3.063-4.19-4.54-6.325a106.654 106.654 0 0 1-2.15-3.195c-1.115-1.627-2.258-3.235-3.324-4.896-.573-.917-1.09-1.843-1.643-2.765-.138-.218-.273-.437-.416-.651.037.326.07.653.03.98a5.03 5.03 0 0 0-.064.694c-.065.63.041 1.26.037 1.889.314.597.743 1.12 1.075 1.709v-.002Zm8.853 11.369c.1-.312.637-.098.5.2-.115.262-.592.072-.5-.2ZM9.46 35.118c.21-.107.318.12.394.263.246.39.539.746.785 1.136.246.393.505.778.798 1.138.118.108.167.3.02.406-.103.074-.234.042-.31-.054-.303-.371-.577-.762-.83-1.17-.241-.389-.531-.742-.78-1.125-.102-.174-.333-.445-.077-.594ZM9.468 23.55c.112.142.215.29.307.45.057.095.144.201.123.318.375.625.724 1.273 1.072 1.91.426.737.91 1.435 1.357 2.16.583.929 1.108 1.894 1.626 2.862.43.732.884 1.449 1.277 2.202.556 1.052 1.096 2.112 1.657 3.161.312.546.614 1.1.877 1.67.518 1.018 1.113 1.99 1.63 3.009.244.414.478.833.705 1.257.175.301.352.603.524.908.5.797.988 1.603 1.47 2.412a.2.2 0 0 1 .127-.055c.069-.048.143-.093.22-.134.44-.305 1.026-.49 1.636-.597a.267.267 0 0 1 .256-.042c.645-.092 1.295-.11 1.805-.107a43.084 43.084 0 0 1 3.122 0c.687.06 1.376.049 2.064.097.54.047 1.078.121 1.616.189 1.652.256 3.293.618 4.879 1.147.03.002.06.004.09.008.05.005.09.03.12.064l.319.113a31.12 31.12 0 0 1 1.878.647c.438.14.829.388 1.243.585.698.3 1.339.716 1.992 1.103.097.065.194.131.29.198.22.127.437.255.654.385.172.114.338.235.5.362l.027.013a.614.614 0 0 1 .047-.046c.152-.19.196-.438.241-.672.04-.475-.053-.945-.183-1.399-.794-1.69-1.701-3.32-2.482-5.018-.519-1.024-1.008-2.006-1.523-3.017-.368-.767-.715-1.544-1.127-2.289-.52-1.08-.968-2.194-1.484-3.276a25.245 25.245 0 0 1-.808-1.678 160.76 160.76 0 0 1-2.215-4.443c-.255-.537-.427-1.11-.682-1.645-.396-.834-.762-1.682-1.209-2.49-.386-.889-.772-1.776-1.173-2.658-.224-.47-.424-.95-.65-1.418-.058-.153-.219-.299-.192-.446a.193.193 0 0 1-.029-.07l-.019-.116c-.705-.53-1.567-.805-2.38-1.092-1.935-.729-3.975-1.051-6.008-1.35-.987-.138-1.977-.298-2.97-.346a41.727 41.727 0 0 0-3.372.023 33.759 33.759 0 0 0-5.674.469c-1.642.204-3.27.55-4.854 1.036.048.066.076.158.11.257.505 1.127 1.201 2.148 1.862 3.184.445.734.89 1.465 1.31 2.207v-.002Zm3.89 2.93c-.2.346-.616-.043-.324-.31a6.926 6.926 0 0 1 1.765-.949c.536-.165 1.073.03 1.6.134.516.067.956-.3 1.455-.367.305-.049.606-.01.908.034.12.016.198.147.176.263a.225.225 0 0 1-.259.178 3.859 3.859 0 0 0-.533-.05c-.501-.005-.92.324-1.41.387-.415.068-.854-.13-1.25-.18-.493-.083-.946.173-1.368.4-.274.16-.519.282-.758.459h-.002Zm26.425 17.095c.29.09.578.184.868.277.115.037.17.18.128.29-.044.12-.17.168-.285.13-.23-.074-.46-.15-.69-.222a5.366 5.366 0 0 1-.525-.183c-.261-.093-.423-.327-.634-.491-.331-.154-.695-.237-.987-.476-.339-.271-.7-.654-1.174-.498-1.125.434-1.435.475-2.409-.305-.802-.624-1.133-.185-1.909.128-.414.142-.898.123-1.27-.123-.213-.132-.412-.3-.654-.374a2.026 2.026 0 0 0-1.154.099c-.342.14-.644.368-1.003.466-.778.268-1.4-.405-2.143-.447-.377-.022-.71.184-1.045.329-.358.16-.747.252-1.14.267a5.092 5.092 0 0 1-1.108-.096c-.14-.03-.298-.05-.396-.169-.191-.245.2-.536.382-.293 1.015.235 1.724.1 2.634-.365.472-.195 1-.14 1.459.063 1.419.814 1.586-.222 2.888-.333.613-.079 1.033.125 1.515.474.554.362 1.147-.044 1.659-.282.76-.38 1.458.232 2.046.656.908.596 1.592-.71 2.644.087.202.153.342.287.54.423.22.152.476.218.72.315.207.085.354.257.512.409.152.126.35.183.53.245v-.001Zm-.955-5.28c.114.042.17.179.129.29-.113.267-.399.076-.591.028-.61-.144-1.256-.337-1.865-.093-.577.178-1.155-.062-1.736-.074-.794-.03-1.01.102-1.605.583-.864.536-1.31-.243-1.968-.638-.76-.4-1.313 1.18-2.97.873a.883.883 0 0 1-1.055.382c-.4-.149-.71-.51-1.147-.569-.649-.092-1.276.146-1.914.215-1.089.103-1.077-.904-2.119-.574-.45.123-.893.293-1.28.558.149.586-.898.27-.4-.244.34-.314.787-.484 1.213-.642.582-.214 1.254-.322 1.742.152.226.204.532.346.835.3.51-.061 1.008-.225 1.525-.232.27-.014.544.019.799.114.445.114.877.782 1.344.408-.506-.184-1.108-1.06-.617-1.52.28-.2.613.036.82.238.255.255.417.616.39.983 1.304.197 1.706-1.019 2.656-.956 1 .115 1.238 1.543 2.288.478.755-.569 1.75-.327 2.609-.218.453.03.865-.235 1.32-.186.54.052 1.085.159 1.595.345h.002Zm-1.905-3.388c.171.056.414.113.344.352-.157.403-.835-.136-1.08-.23a1.255 1.255 0 0 0-.654-.053c-1.654.387-1.5-.905-3.04-.122-1.75.817-1.868-.869-3.654.357-.383.191-.84.17-1.228.01-.415-.2-.828-.462-1.31-.353-.857.154-1.559.769-2.446.765-.654-.009-1.186-.461-1.8-.628-.14-.064-.317.008-.428.064-.229.104-.453.215-.677.328-.655.338-1.34.606-2.026.872-.146.061-.297.117-.435.195-.15.119-.39-.04-.345-.227.038-.238.729-.404.941-.513.721-.266 1.416-.594 2.1-.943.662-.358.904-.294 1.564.018.51.248 1.047.524 1.613.31.855-.263 1.668-.881 2.597-.662.515.13.973.599 1.538.42.256-.08.464-.258.703-.374.294-.153.624-.212.953-.19.399.02.762.197 1.137.314.928.183 1.646-.807 2.628-.365 1.229.747 1.426-.022 2.483.385.179.08.336.204.52.272l.002-.002Zm-1.49-3.328c.215.11.771.242.635.555-.152.29-.467-.008-.646-.077a1.751 1.751 0 0 0-.745-.154c-.367 0-.683-.19-1-.351-.55-.192-1.111.161-1.67.157-.646.063-1.2-.393-1.837-.397-.601.047-1.153.42-1.772.361-.433-.013-.797-.26-1.176-.44-.306-.149-.584.108-.854.226-.28.139-.573.248-.878.308-.715.188-1.243-.623-1.94-.22-.496.225-.955.535-1.469.724-1.421.453-1.526-.73-3.32.2-.561.28-1.184.477-1.696.841-.055.1-.16.163-.275.124-.694-.43 1.13-1.036 1.404-1.199.81-.38 1.658-.797 2.557-.464.279.085.564.2.861.152.932-.122 1.672-1.096 2.646-.917.284.057.533.226.809.31.438.085.862-.15 1.245-.335.377-.252.85-.341 1.25-.086.745.474 1.22.358 2.005.08 1.038-.414 1.68.412 2.633.263.925-.17 1.25-.394 2.134.14.356.128.75.044 1.1.199h-.002Zm-3.49-6.052c.249-.067.509-.026.76.002.12.013.216.113.208.238-.06.406-.613.074-.879.2-.284.056-.372-.371-.09-.441v.001Zm.93 2.508c.348.082.685.204 1.016.338.11.047.154.193.104.3-.06.127-.207.155-.323.095a7.864 7.864 0 0 0-.856-.286c-.845-.275-.938.24-1.674.323a1.624 1.624 0 0 1-.694-.098c-.235-.088-.492-.21-.732-.069a1.734 1.734 0 0 1-.61.18c-.283.026-.547-.082-.794-.184-.431-.168-.897-.05-1.323.072-.445.106-.917.168-1.361.022-.342-.09-.678-.275-1.039-.24-.7.175-1.308 1.008-2.086.67-.83-.51-1.022-.677-1.963-.224-.863.382-1.82.761-2.771.521-.832.544-1.875.525-2.83.548-.29.012-.321-.423-.032-.448.789-.014 1.61-.007 2.348-.323-.43-.233-.631-.87-.098-1.11.564-.266 1.419.319.997.947.684.07 1.387-.196 2.002-.456.631-.308 1.388-.605 2.034-.167.33.201.61.481 1.01.256.755-.389 1.229-.918 2.134-.539.371.13.754.255 1.15.182.554-.084 1.088-.325 1.657-.218.497.082.793.411 1.325.132.653-.405 1.16.249 1.81.067.67-.292.807-.501 1.6-.291Zm-12.615-2.791c.797-.137 1.653-.522 2.425-.094.309.143.637.26.982.254.552-.023 1.055-.26 1.61-.193.55.027 1.07.254 1.622.251.515.02.973-.226 1.455-.358.515-.11.932.284 1.408.384.167 0 .327-.092.482-.13.322-.084.664-.093.993-.043.12.02.198.146.176.263-.025.137-.165.208-.293.173a2.725 2.725 0 0 0-.62.008c-.23.035-.437.163-.67.177-.444.026-.79-.334-1.216-.392-.342-.034-.634.208-.963.268-.47.122-.97.134-1.444.02-.463-.108-.937-.218-1.415-.164-.467.087-.935.237-1.416.166-.371-.038-.71-.207-1.05-.35a1.17 1.17 0 0 0-.596-.082c-.464.071-.919.19-1.38.281-.28.054-.376-.373-.089-.44l-.001.001Zm1.685-5.762c.507-.132 1.05-.115 1.534.098.268.107.509.28.8.277.306.012.576-.128.86-.217.298-.078.655.02.914.13.218.08.398.191.622.238.318.028.626-.108.945-.074.236.012.45.106.664.197.293.147.61.052.918.105.342.068.617.18.944.237.119.024.2.145.176.263a.223.223 0 0 1-.259.179 8.355 8.355 0 0 1-.77-.199c-.28-.09-.574-.017-.86-.068-.168-.03-.326-.106-.482-.172-.445-.23-.92.053-1.383-.03-.204-.039-.389-.143-.581-.22.002 0 .004.001.005.003.002 0 .005.002.005 0-.23-.09-.461-.19-.71-.161-.428.14-.875.331-1.332.197-.278-.076-.526-.238-.8-.329-.526-.184-1.105-.065-1.602.154-.11.049-.243-.027-.282-.137-.1-.329.46-.399.675-.472v.001Zm-1.552 2.862c.428-.107.877-.045 1.295.075.386.105.695.344 1.095.271.578-.079 1.078-.502 1.679-.431.589.04 1.106.421 1.704.393.514-.076.972.194 1.47.182.163-.027.293-.14.438-.212a1.05 1.05 0 0 1 .676-.095c.547.12 1.093.243 1.651.308.348.033.698.055 1.036.143.119.029.2.142.177.263-.082.319-.427.112-.644.102-.784-.058-1.557-.2-2.323-.376-.374-.076-.629.305-.99.318-.38.042-.687-.125-1.04-.175-.224-.026-.451 0-.677-.014-.284-.013-.555-.111-.822-.207-.342-.121-.712-.25-1.075-.15-.734.284-1.435.635-2.195.21-.356-.135-.738-.23-1.12-.203.07.376-.298.77-.646.824-.699-.01-.728-.678-.185-1-.332-.168-.721-.193-1.083-.15-.434.065-.84.297-1.287.269-.383-.025-.737-.203-1.117-.25-.269-.058-.494.112-.72.229-.675.344-1.357.309-2.034.006-.735.272-1.517.588-2.24.855-.101.068-.23.132-.346.05a.229.229 0 0 1-.029-.355c.102-.085.24-.117.359-.17.558-.213 1.12-.415 1.674-.641.364-.162.611-.276.99-.069.616.291 1.274.028 1.825-.286.356-.154.748-.048 1.102.052.206.054.41.13.625.132.318-.015.61-.156.917-.227.624-.146 1.34-.054 1.858.33h.002ZM9.535 20.28c.023-.12.139-.192.229-.26.151-.115.316-.214.477-.314.276-.162.57-.352.899-.353.214.005.402.126.611.155.495.025.943-.239 1.366-.467.545-.323.834.095 1.343.11.553-.018 1.01-.445 1.567-.434.379-.008.7.234 1.06.303.183.028.356-.044.532-.075.23-.04.465.014.68.097.23.088.457.2.683.29.19.078.55.095.471.39-.17.49-1.34-.462-1.754-.336-.8.266-1.023-.15-1.707-.22-.557.064-1.036.48-1.617.431-.246 0-.48-.121-.7-.21-.253-.078-.474.133-.69.234a2.37 2.37 0 0 1-.483.209c-1.45.484-.883-.64-2.538.599-.107.26-.48.122-.427-.15l-.002.001Z"/><path fill="#000" d="M47.71 54.052c-.275-.313-.59-.616-.977-.775-.653-.257-1.543-.295-2.008.33-.28.337-.657.865-.457 1.337.021.153.122.326.3.282.654.4 1.453.358 2.19.399.371-.007 1.1.151 1.351-.174.125-.257-.024-.538-.102-.787-.068-.218-.15-.435-.297-.612ZM41.486 18.1c1.244 2.764 2.636 5.512 4.68 7.765.97 1.04 2.062 1.953 3.183 2.82.625.536 1.312 1.01 2.006 1.452.673.515 1.434.872 2.182 1.26.207.105.423.194.632.294l.106.068c.105.063.245.01.3-.094v-.003a.221.221 0 0 0 .057-.152c-.042-.433.065-.86.092-1.291a25.954 25.954 0 0 0-.253-5.904c-.688-3.435-2.112-6.685-3.956-9.64-1.09-1.688-2.21-3.365-3.52-4.888-.929-1.105-1.896-2.192-3.047-3.064-.704-.486-1.373-1.023-2.098-1.477-.747-.414-1.474-.864-2.233-1.254-.31-.193-.65-.311-.971-.484-.183-.085-.385-.271-.595-.222a.185.185 0 0 0-.095-.021c-.174.001-.236.185-.216.335.015.347.009.695.046 1.041.086.81.148 1.582.239 2.398.127.599.286 1.192.337 1.806.322 1.844.857 3.643 1.536 5.385.455 1.322.999 2.61 1.592 3.874l-.004-.005Zm9.081-2.492.026.042c.77 1.363 1.501 2.756 2.088 4.212a32.54 32.54 0 0 1 1.19 3.756c.368 1.562.46 3.223.464 4.83.027.656-.003 1.313-.078 1.968-.02.264-.07.525-.079.79l-.074-.033a36.573 36.573 0 0 1-1.84-.952c-.997-.677-2.015-1.328-2.931-2.119-1.311-1.014-2.576-2.12-3.593-3.445-1.158-1.418-2.06-3.02-2.871-4.667.223.222.481.422.794.605 1.579 1.05 3.195.936 4.822.056a5.359 5.359 0 0 0 1.564-1.516c.384-.654.683-1.389.786-2.147a3.545 3.545 0 0 0-.269-1.377l.001-.003Zm-.73-.737c.117.198.234.415.246.66.03.178.119.337.174.507.073.262.108.532.14.803a4.662 4.662 0 0 1-1.928 3.285c-.998.634-2.274.978-3.43.64-1.09-.393-2.14-1.08-2.623-2.187-1.567-2.63.155-4.78 2.85-5.263 1.165-.19 2.838.268 3.892.789.278.197.514.46.676.766h.002Zm-11.16-6.914c-.062-.378-.187-.743-.236-1.122-.03-.562-.14-1.116-.155-1.68a14.204 14.204 0 0 1-.103-1.389c.264.138.526.285.804.394 1.068.573 2.22 1.184 3.228 1.868.885.627 1.78 1.242 2.568 1.994 1.25 1.212 2.342 2.599 3.406 3.982.384.562.77 1.121 1.15 1.686-.305-.182-.662-.278-.992-.398-1.266-.43-2.662-.684-3.955-.22-1.016.33-2.017.933-2.56 1.894a3.376 3.376 0 0 0-.444 1.842 61.918 61.918 0 0 1-1.305-3.324c-.436-1.275-.875-2.552-1.118-3.882-.143-.54-.188-1.097-.288-1.645Z"/><path fill="#000" d="M47.84 15.286c-.467-.23-.978-.425-1.506-.381-.76.058-1.758.38-2.243 1.005-.497.706-.387 1.692.069 2.392.578.958 1.873 1.012 2.823.654a1.51 1.51 0 0 1-.133-.134.686.686 0 0 1-.17-.369c-.02-.156.04-.316.106-.454a1.41 1.41 0 0 1 .071-.127.814.814 0 0 1 .188-.229.575.575 0 0 1 .374-.127c.081 0 .16.03.235.056l-.028-.01c.096.034.185.079.273.13a.92.92 0 0 1 .174.133c.07.066.123.143.161.23.17-.204.305-.43.382-.675.044-.164.062-.338.062-.512 0-.234-.034-.469-.094-.687-.053-.418-.38-.73-.744-.897v.002Zm.103 1.646-.026-.02.01-.001c.007 0 .013-.003.02-.003 0 .008-.003.016-.004.024Z"/><path fill="#000" d="M71.437 49.079a2.636 2.636 0 0 0-.585-.44.646.646 0 0 0-.122-.059c.174-.752.307-1.507.268-2.283-.01-.465.13-.931.213-1.388.07-.449.124-.9.12-1.357.005-.15 0-.3-.026-.448.175-.31-.21-.374-.362-.544a6.296 6.296 0 0 0-.418-.635c-.105-.236-.2-.475-.376-.667-.133-.188-.248-.396-.41-.559.173-.124.342-.255.503-.397.542-.511 1.026-1.084 1.553-1.61.127-.106.103-.317-.03-.39a.255.255 0 0 0-.072-.068 9.59 9.59 0 0 1-.215-.339c-.186-.324-.421-.689-.63-1.016-.617-.98-1.172-2.043-1.816-3.013-.555-.921-1.162-1.808-1.68-2.752-1.612-2.743-2.79-5.712-4.237-8.544-1.434-2.685-2.8-5.407-4.243-8.088-.729-1.267-1.353-2.582-2.136-3.82a12.154 12.154 0 0 1-.687-1.292c-.083-.175-.17-.35-.257-.523-.025-.127-.14-.265-.28-.25a.221.221 0 0 0-.181.134l-.018.012a.235.235 0 0 0-.093.061c-.233.154-.47.315-.695.492-.681.355-1.378.682-2.045 1.064-.422.252-.842.472-1.319.596a62.8 62.8 0 0 1-.576-.772c-.4-.572-.856-1.097-1.315-1.62-.756-.925-1.55-1.807-2.436-2.614-.804-.69-1.665-1.31-2.507-1.95-1.107-.708-2.229-1.401-3.416-1.97-.891-.49-1.797-.94-2.756-1.28-.602-.229-1.189-.547-1.833-.626a.215.215 0 0 0-.094-.1c-.337-.13-.366.3-.404.543-.073.44-.13.89-.182 1.343-.088.666-.043 1.338-.103 2.007.066 1.422.207 2.842.43 4.249.198 1.382.39 2.768.733 4.122.187.782.426 1.55.69 2.308-.952.294-1.893.66-2.751 1.176-.961.524-1.737 1.322-2.425 2.168-.124.184-.386.524-.541.847-.842-.734-3.68-1.536-4.111-1.67a19.398 19.398 0 0 0-1.957-.441c-.029-.116-.076-.235-.092-.33-.254-.875-.79-1.625-1.242-2.403-.585-1.046-1.163-2.107-1.963-3.002-.723-.95-1.591-1.775-2.522-2.518-1.432-1.221-2.902-2.431-4.576-3.299-.25-.139-.542-.27-.806-.403-.193-.084-.652-.446-.872-.312a.197.197 0 0 0-.056.017.206.206 0 0 0-.13.146c-.168.218-.31.46-.429.71-.31.641-.578 1.308-.697 2.015-.203.698-.41 1.395-.528 2.114-.129.705-.153 1.383-.275 2.098-.157 1.141-.352 2.288-.365 3.44a.291.291 0 0 0-.017.193c.002.08.01.165.022.252.008.235.022.47.049.704.014.083.024.195.05.295a.23.23 0 0 0-.025.004c-.82.112-1.642.205-2.443.418-.943.167-1.87.408-2.78.704-.113.043-.226.107-.249.239a.342.342 0 0 0 .06.264c-.006.092.038.187.134.221.136.334.297.655.469.969-.323.038-.704.174-.859.21-.408.088-.81.21-1.175.419-.382.155-.828.335-1.18.582-.35.237-.722.453-.988.787-.137.161-.356.269-.454.458-.109.017-.203.109-.186.297.03.41.107.796.09 1.213-.037.297-.08.595-.081.896a5.809 5.809 0 0 0-.01.822c-.199.01-.39.139-.557.234-.308.201-.731.33-.863.712-.158.551.029 1.027.3 1.472a.271.271 0 0 0 .023.038c.141.226.3.444.445.66.472.72.93 1.452 1.426 2.156.688 1.103 1.312 2.244 2.012 3.34.519.848 1.104 1.653 1.64 2.49.34.58.732 1.126 1.105 1.685.995 1.476 1.996 2.948 2.986 4.426 1.093 1.746 2.232 3.468 3.367 5.188.701 1.093 1.422 2.174 2.102 3.282.708 1.158 1.373 2.343 2.095 3.492.498.82.973 1.655 1.476 2.472.321.466.602 1.021 1.106 1.31.124.045.256.082.39.108a.238.238 0 0 0 .08.013c.102.015.204.023.306.02.214.007.429-.008.638-.056.53-.14 1.045-.338 1.564-.514.385-.157.745-.366 1.133-.514.945-.43 1.893-.794 2.887-1.099 1.493-.492 2.993-.989 4.525-1.34 1.94-.396 3.903-.796 5.894-.767 1.57-.044 3.17.114 4.646.71.002.732.514 1.31 1.07 1.716.229.165.423.381.68.503 1.18.582 2.535.73 3.777.265a3.905 3.905 0 0 0 1.505-.805c.009-.005.016-.012.024-.019a.223.223 0 0 0 .112.026c2.934-.362 5.822-1.053 8.694-1.758 2.926-.735 5.888-1.356 8.85-1.932 1.327-.337 2.698-.423 4.02-.77.75-.175 1.007-.23 1.061-1.078.002-.37-.036-.766-.224-1.09-.108-.138-.235-.257-.338-.4l-.001.007Zm-.57-4.955c-.04.608-.22 1.191-.293 1.793-.026.317-.015.633-.018.952-.007.526-.14 1.035-.245 1.546-.076.377-.064.77-.15 1.146-.813.154-1.633.266-2.438.453-.371.099-.756.235-1.135.33-.74.183-1.55.343-2.29.576a85.39 85.39 0 0 1-2.905.596 63.923 63.923 0 0 1-5.479 1.063c-1.593.237-3.156.621-4.728.974-.451.095-.898.219-1.35.313a.607.607 0 0 0-.154-.199c-.122-.147-.214-.315-.327-.468-.215-.293-.331-.65-.556-.938-.217-.389-.147-.869.079-1.24 1.233-.755 2.56-1.388 3.882-1.984 2.22-.977 4.485-1.83 6.855-2.358 1.228-.27 2.468-.484 3.701-.725.73-.117 1.465-.209 2.184-.393.973-.204 1.903-.56 2.839-.89.882-.346 1.74-.782 2.543-1.287.012.24.006.48-.017.741h.003Zm-.727-1.983c.21.258.34.584.575.817-1.74 1.108-3.689 1.806-5.693 2.25-.486.111-.976.186-1.469.25-1.236.214-2.466.466-3.697.705-2.44.522-4.793 1.371-7.075 2.38-1.264.554-2.512 1.147-3.706 1.843a.227.227 0 0 0-.156-.045.463.463 0 0 1-.11-.115.298.298 0 0 0 .016-.16c.484-.422.982-.825 1.522-1.172.234-.151.463-.324.719-.434l.075.277c.11.194.346.133.51.059.254-.092.523-.15.784-.217.98-.205 1.797-.843 2.434-1.602.27-.308.507-.62.719-.935.748-.26 1.491-.493 2.252-.709a.663.663 0 0 0 .349-.085l.013-.016c.571-.135 1.203-.236 1.781-.378 1.076-.234 2.096-.658 3.148-.973a.22.22 0 0 0 .117-.088c.424.121.858.204 1.306.218.46.038.924.014 1.385.03.41.013.828.028 1.222-.115.374-.124.686-.376 1.044-.536.075-.027.155-.055.202-.124.164-.295-.247-1.014-.432-1.423.086-.04.17-.105.246-.15.301-.155.586-.34.862-.538.062-.043.121-.09.181-.134.032-.022.066-.042.098-.063.06.05.123.1.165.168.219.332.471.638.612 1.014l.001.001Zm-13.473-1.39a1.77 1.77 0 0 0-.035.17c-.07.531-.133 1.07-.146 1.609-.235 1.33-.713 2.588-1.591 3.703-.526.693-1.154 1.369-1.966 1.721-.463.187-.964.254-1.435.422-.2-.827-.515-1.628-.579-2.486-.103-1.6.16-3.209.657-4.727.18-.532.315-1.086.563-1.593.432-.813.884-1.622 1.43-2.362.525-.814 1.106-1.584 1.819-2.239.116.187.272.344.394.527.135.213.226.485.311.726.253.589.389 1.212.492 1.843.132.59.106 1.194.096 1.795.005.298 0 .595-.01.89v.001Zm-5.729 7.267-.028.011c0-.016.003-.033.003-.051l.012-.01.015.05h-.002Zm6.165-7.159.072-.306c.382.248.745.53 1.121.791.303.23.603.466.922.672.419.291.954.398 1.324.76.985 1.003.373 1.109.31 1.38-.131.04-.262.08-.394.116-.747.203-1.508.336-2.263.498l-.224.062a1.19 1.19 0 0 1-.657-.41c-.356-.454-.413-1.174-.389-1.848.094-.555.15-1.126.178-1.715Zm.3-5.417.161.035c.983.268 1.999.406 2.969.723.632.232 1.287.403 1.902.682.962.502 1.939 1.068 2.775 1.79.013.02.03.041.05.057l.071.05c.196.176.383.36.56.555.968 1.022 1.59 2.354 2.089 3.665-1.053.588-1.118.65-2.35.585-.771.009-1.551-.023-2.3-.22-.55-.175-1.076-.418-1.61-.634-.74-.352-1.489-.708-2.202-1.114-.207-.14-.418-.275-.629-.41a.438.438 0 0 0-.154-.144c-.163-.26-.446-.412-.6-.683-.561-.736-.865-1.688-1.022-2.606-.107-.862-.075-1.55.29-2.33Zm12.813 4.173v-.007l.016-.007-.016.015ZM55.465 9.183l.004.01c.195.387.367.787.58 1.167.674 1.132 1.341 2.264 1.93 3.444.99 1.712 1.87 3.485 2.776 5.245 1.156 2.157 2.3 4.322 3.335 6.542.858 1.876 1.733 3.752 2.758 5.541.752 1.323 1.581 2.596 2.387 3.886.516.89 1.034 1.806 1.605 2.675.126.207.248.416.376.621-.276.301-.585.584-.954.765-.711.433-1.538.544-2.352.371-.758-.095-1.447-.421-2.074-.873-.087-.041-.184-.128-.281-.186-.18-.159-.368-.31-.558-.456.538-.158 1.012-.488 1.55-.65.22-.05.446.01.667-.012.451-.039.877-.216 1.313-.327.117-.03.181-.168.148-.281a.225.225 0 0 0-.277-.15c-.465.11-.916.327-1.401.31-.85-.113-1.515.57-2.314.728a.23.23 0 0 0-.109.075 15.968 15.968 0 0 0-1.927-1.136c-.57-.258-1.167-.445-1.761-.638.274-.134.487-.35.758-.524.598-.289 1.267-.316 1.88-.573.34-.176.65-.412 1.006-.556a4.632 4.632 0 0 1 1.8-.287.227.227 0 0 0 .251.046.23.23 0 0 0 .109-.297c-.15-.423-1.63-.096-1.988.004-.47.127-.885.397-1.3.647-.635.297-1.394.296-2.02.65-.225.148-.389.309-.63.456-.061.031-.125.057-.19.083a.21.21 0 0 0-.127.201h-.001c-.768-.245-1.573-.36-2.355-.557-.666-.178-1.348-.279-2.008-.48a2.558 2.558 0 0 1-.111-.082c-.053-.046-.116-.11-.18-.162.025-.055.048-.105.07-.146a.216.216 0 0 0 .041-.174c.33-.853.522-1.75.793-2.621.174-.645.267-1.308.372-1.966.114-.601.18-1.273.17-1.9a18.97 18.97 0 0 0-.057-1.72.286.286 0 0 0 .062-.016c.323-.123.674-.196.948-.423.243-.183.447-.42.706-.583.398-.253.852-.392 1.256-.632.479-.292.919-.653 1.443-.862.112-.047.158-.19.109-.298a.222.222 0 0 0-.293-.11c-.58.228-1.06.64-1.598.948-.497.256-1.047.43-1.47.813-.191.173-.377.358-.603.484-.19.106-.404.142-.603.22a15.096 15.096 0 0 0-.292-1.778c-.075-.452-.166-.9-.27-1.345.05 0 .1-.017.142-.05.405-.303.5-.829 1.118-.57.089.043.176.092.278.075.17-.04.281-.198.424-.292a2.911 2.911 0 0 1 1.207-.506c.147.137.378.007.388-.182.004-.51-.73-.188-1.005-.12a3.211 3.211 0 0 0-1.08.63 1.126 1.126 0 0 0-.89-.048c-.27.095-.401.37-.598.558-.03.024-.061.049-.089.074a25.145 25.145 0 0 0-.894-2.79l.091-.041c.325-.164.592-.416.83-.688.161-.192.326-.386.552-.498.449-.222.926-.373 1.39-.561.07-.025.15-.056.185-.13.108-.21-.134-.416-.328-.295-.476.191-.978.354-1.443.583-.392.19-.629.569-.935.864-.151.135-.316.272-.505.346a33.117 33.117 0 0 0-.913-2.06l-.28-.579a.317.317 0 0 0 .023-.08c.755-.572 1.63-.939 2.482-1.332.262-.126.077-.527-.185-.41-.856.4-1.744.77-2.506 1.34-.064-.226-.15-.444-.204-.673a8.19 8.19 0 0 1-.155-.605.25.25 0 0 0 .035-.029c.36-.367.77-.69 1.232-.916.263-.129.078-.528-.185-.408-.38.183-.732.428-1.048.709-.035.037-.081.076-.13.118a6.485 6.485 0 0 1-.07-.864c-.04-2.032.5-2.578 1.965-3.701h.002ZM37.23 12.577a32.686 32.686 0 0 1-.756-4.075 41.472 41.472 0 0 1-.482-4.331c-.018-.523.063-1.042.035-1.566.036-.61.13-1.284.224-1.9l.022-.135.022.002c.6.096 1.144.387 1.709.6.428.17.858.332 1.28.517 1.913.993 3.885 1.93 5.583 3.285.65.49 1.311.97 1.91 1.525a32.048 32.048 0 0 1 1.505 1.576c.828.977 1.668 1.943 2.405 2.994 1.196 1.493 2.147 3.158 2.99 4.877l.037.08a.27.27 0 0 0 .072.143c.145.299.287.599.426.901a29.06 29.06 0 0 1 1.645 4.25c.316 1.081.49 2.198.718 3.301.212 1.442.303 2.954.113 4.413-.154 1.042-.332 2.138-.674 3.148a12.88 12.88 0 0 1-.544 1.776.225.225 0 0 0-.072.092 4.028 4.028 0 0 1-.107.248c-.011 0-.023 0-.034.003-.57-.315-1.225-.368-1.843-.535-1.914-.563-3.603-1.658-5.187-2.867-.883-.774-1.747-1.658-2.552-2.528-.83-.925-1.56-1.934-2.308-2.927-.97-1.335-1.902-2.73-2.686-4.192-.514-.982-.948-2.005-1.382-3.026-.8-1.838-1.537-3.704-2.07-5.644v-.005Zm-5.233 6.608c.302-.736.83-1.317 1.387-1.878.372-.387.79-.717 1.237-1.002a.234.234 0 0 0 .094-.057c1.1-.4 2.728.41 3.448 1.27.26.284.5.624.696.96-.29.04-.586.064-.853.2-.343.15-.688.33-.936.62-.274.37-.38.298-.79.352-.644.09-2.05.822-1.925 1.603.069.344.553.203.427-.122l.006-.025c.234-.457.727-.717 1.178-.91.286-.125.604-.11.904-.169.273-.08.434-.332.624-.528.434-.386 1.001-.55 1.566-.599.014-.002.028-.006.041-.01.327.76.662 1.517 1.03 2.258.187.364.384.722.589 1.075-.063.04-.127.078-.192.114-.087.04-.177.098-.277.09-.232-.057-.475-.112-.708-.028-.566.235-.932.773-1.43 1.113-.14-.477-.972-.67-1.25-.234-.215.486.398.87.822.837-.134.587-.815.613-1.268.82-.112.046-.157.19-.108.298.147.294.542-.024.774-.059.554-.13 1.037-.57 1.071-1.172.288-.136.52-.36.752-.576 1.244-1.248.935-.092 2.043-.818.448.75.928 1.48 1.427 2.197-.173.023-.38.16-.514.213-.387.23-.765.475-1.143.72-.454.307-1.071.081-1.49.449-.307.262-.43.685-.76.926-.23.187-.537.188-.797.303-.175.074-.294.324-.112.458.098.07.239.047.309-.053.11-.053.24-.065.357-.102a1.56 1.56 0 0 0 .85-.59c.157-.2.258-.45.459-.613.274-.193.637-.081.94-.195.74-.222 1.283-.858 2.023-1.085.05-.015.09-.05.118-.091.138.194.276.388.416.58a50.62 50.62 0 0 0 1.718 2.229.19.19 0 0 0-.097-.007 3.994 3.994 0 0 0-.876.306 4.102 4.102 0 0 0-.746.521c-.3.245-.573.614-.992.61.596-1.015-.832-1.255-1.37-.665-.287.408.156.813.52.95-.574.493-1.376.462-2.07.645-.115.033-.18.166-.147.28.064.21.286.16.443.106.16-.034.323-.052.483-.076.664-.09 1.329-.316 1.805-.814.837.175 1.263-.416 1.847-.884a3 3 0 0 1 1.174-.536.226.226 0 0 0 .183-.25 22.262 22.262 0 0 0 1.573 1.705c.226.227.452.453.684.673a3.2 3.2 0 0 0-.488.103 1.271 1.271 0 0 0-.415.24c-.25.206-.309.583-.606.733-.222.111-.465.168-.699.245a5.83 5.83 0 0 0-.65.246c-.262.13-.082.525.185.408.339-.16.702-.253 1.056-.37 1.075-.306.556-1.225 1.937-1.162a.218.218 0 0 0 .251.077c.369.321.754.625 1.167.892.535.41 1.1.756 1.694 1.078 1.046.621 2.19 1.104 3.382 1.335.213.039.425.09.63.158-.012.003-.026.007-.037.012-.308.118-.6.276-.905.4-.361.12-.722.25-1.045.458-.276.193-.55.402-.89.463-1.115.185-1.64.178-2.467 1.08-.241.222-.496.46-.821.538-.474.12-.971-.125-1.438.04-.365.131-.608.454-.867.729-.25.274-.507.54-.807.76-.322.264-.751.376-1.114.566-.212.177.038.509.262.36.589-.21 1.162-.524 1.605-.985.337-.309.592-.711.974-.966.378-.18.802.027 1.202-.027.883-.017 1.344-.882 2.03-1.297.516-.287 1.123-.232 1.675-.396.476-.11.813-.498 1.255-.681.444-.164.88-.346 1.314-.537a.23.23 0 0 0 .085-.01c.05-.017.098-.036.147-.054-.2.203-.395.414-.584.629-.872 1.136-1.685 2.34-2.347 3.619-.005 0-.01 0-.015.003-.401.108-.748.33-1.109.523-.306.105-.627.17-.92.314-.398.156-.626.523-.895.833a2.139 2.139 0 0 1-.741.44c.074-.619-.636-1.045-1.175-.85a.559.559 0 0 0-.386.641c.093.402.507.645.882.72-.413.638-1.12.857-1.818 1.04a.228.228 0 0 0-.148.282c.035.118.16.184.276.15.283-.085.569-.16.844-.266A2.574 2.574 0 0 0 48 41.816a2.425 2.425 0 0 0 1.297-.717c.146-.17.259-.367.438-.503.312-.228.696-.303 1.056-.42.275-.107.52-.273.785-.401-.2.53-.38 1.07-.537 1.617a.216.216 0 0 0-.069.11c-.147.424-.243.87-.336 1.309-.07.39-.117.777-.153 1.167a.173.173 0 0 0-.023.005c-.215.071-.425.149-.623.258-.258.123-.523.362-.793.486-.25.091-.526.094-.763.222-.627.328-1.093.909-1.522 1.46-.17.323.277.527.412.187.402-.472.825-1.045 1.418-1.292.28-.078.583-.1.833-.268.33-.23.647-.442 1.025-.577a33.87 33.87 0 0 0-.057 1.719c-.043.81-.415 1.586-.838 2.264-.2.357-.419.707-.727.976a.328.328 0 0 0-.123.165c-.23.195-.456.394-.68.595-.42.39-.843.79-1.12 1.3l-.078-.035.003-.09c.075-.117.025-.316-.01-.479.009-.15.012-.296-.087-.4-.173-.661-.48-1.277-.774-1.892-.123-.319-.298-.613-.422-.932a.432.432 0 0 0-.101-.166.32.32 0 0 0-.04-.072c-.06-.123-.117-.245-.177-.367-.417-.88-.878-1.74-1.323-2.606a154.19 154.19 0 0 0-2-4.057c-.592-1.151-1.127-2.354-1.737-3.503-.388-.896-.798-1.78-1.19-2.676-.347-.69-.693-1.38-1.009-2.088-.653-1.259-1.29-2.53-1.907-3.81-.353-.661-.582-1.378-.885-2.062-.413-.875-.798-1.763-1.267-2.61-.39-.91-.784-1.815-1.197-2.714-.212-.445-.398-.902-.616-1.343-.026-.054-.057-.12-.093-.182a.215.215 0 0 0 .014-.217l-.007.008Zm5.7 4.483c-.154.006-.328-.037-.423-.168.12-.012.256-.004.357.07.03.024.054.062.066.098Zm4.036 5.284c0 .009-.002.018-.005.028a.987.987 0 0 1-.188.345c-.18-.056-.37-.13-.498-.277a.14.14 0 0 1-.024-.05c.004-.007.01-.012.015-.017.133-.102.625-.201.699-.03Zm5.977 12.263a.64.64 0 0 1-.023.189c-.249-.005-.518-.118-.652-.338-.05-.087.034-.162.12-.177.221-.05.53.076.555.326Zm.831 11.464-.024-.022a.028.028 0 0 0 .005-.006l.018.028h.001ZM11.923 11.125c.117-1.133.256-2.277.631-3.358.13-.418.176-.858.328-1.27.219-.568.452-1.143.81-1.637.101.043.21.078.285.13.343.209.715.356 1.065.551 1.263.642 2.411 1.55 3.527 2.432.713.604 1.432 1.2 2.13 1.824.539.518 1 1.104 1.479 1.679.663.782 1.15 1.692 1.65 2.584l.281.466a.21.21 0 0 0-.025.14c.077.424.186 1.107-.33 1.288-.442.208-.86.017-1.177-.32a3.814 3.814 0 0 1-.789-.941c-.1-.127-.168-.403-.335-.444l-.067-.117a.667.667 0 0 0-.157-.275c-.13-.227-.26-.454-.386-.682-.323-.608-.749-1.145-1.206-1.653-.535-.775-1.278-1.34-1.983-1.94-.518-.494-1.887-1.84-2.552-1.879a.235.235 0 0 0-.102.02.24.24 0 0 0-.041-.005c-.13-.008-.232.1-.307.194-.36.43-.498.98-.67 1.504-.165.439-.29.888-.434 1.334-.277.905-.332 1.866-.392 2.807-.006.123-.01.248-.015.372-.007.01-.014.018-.018.03-.105.613-.142 1.69-.825 1.936-.443.028-.673-.393-.801-.77-.01-1.34.248-2.675.427-4h-.001Zm8.94 4.859a27.538 27.538 0 0 0-.533-.048c-1.077-.033-2.157-.075-3.233.004-.885.013-1.77.003-2.653.087-.059-.041-.126-.072-.185-.11a1.784 1.784 0 0 1-.423-.446 2.764 2.764 0 0 1-.266-.71c-.007-.651.037-1.309.077-1.956.067-.519.104-1.044.219-1.554.112-.399.245-.795.361-1.193.135-.384.268-.766.387-1.156.113-.263.22-.574.449-.753.008 0 .015.003.024.003.031 0 .063.005.093.015.96.494 1.679 1.318 2.49 2.021.434.352.875.704 1.24 1.13.265.349.59.73.884 1.071.449.555.804 1.24 1.146 1.874l.051.088c.223.54.416 1.256-.126 1.63l-.001.003ZM6.296 18.159a.95.95 0 0 0-.11-.258 28.48 28.48 0 0 1 4.854-1.035c1.883-.316 3.76-.471 5.674-.469a41.186 41.186 0 0 1 3.372-.023c.995.048 1.983.207 2.97.346 2.033.297 4.073.62 6.008 1.35.814.287 1.675.562 2.38 1.092.008.038.012.078.02.116a.193.193 0 0 0 .028.07c-.027.147.134.293.193.446.224.468.425.949.65 1.418.401.881.787 1.77 1.172 2.658.447.808.813 1.656 1.21 2.49.254.537.428 1.107.681 1.645a160.333 160.333 0 0 0 2.215 4.443c.252.569.516 1.13.808 1.678.517 1.08.963 2.196 1.484 3.276.413.745.758 1.521 1.127 2.288.515 1.01 1.004 1.994 1.523 3.017.78 1.698 1.688 3.328 2.482 5.02.13.453.222.923.183 1.398-.045.234-.09.482-.24.672a.613.613 0 0 0-.047.046l-.028-.014a7.576 7.576 0 0 0-.5-.361c-.216-.13-.435-.259-.654-.386-.096-.066-.192-.132-.29-.197-.653-.387-1.294-.804-1.992-1.104-.413-.196-.805-.444-1.243-.584a31.98 31.98 0 0 0-1.878-.647l-.319-.114a.19.19 0 0 0-.12-.064l-.09-.008c-1.586-.53-3.228-.892-4.879-1.147-.538-.067-1.076-.142-1.616-.188-.688-.05-1.377-.038-2.064-.097a43.84 43.84 0 0 0-3.122 0 12.43 12.43 0 0 0-1.804.107.267.267 0 0 0-.257.041c-.61.108-1.196.292-1.637.598-.076.04-.15.085-.219.134a.2.2 0 0 0-.126.055c-.483-.81-.971-1.614-1.47-2.413a74.64 74.64 0 0 0-.525-.907c-.227-.424-.46-.844-.706-1.258-.516-1.018-1.111-1.99-1.628-3.007a21.525 21.525 0 0 0-.877-1.671c-.562-1.05-1.102-2.109-1.658-3.162-.393-.753-.847-1.47-1.277-2.2-.519-.97-1.042-1.934-1.626-2.864-.446-.723-.931-1.422-1.356-2.16-.35-.636-.699-1.285-1.073-1.91.02-.116-.064-.223-.123-.317a3.782 3.782 0 0 0-.307-.45c-.42-.742-.865-1.474-1.31-2.207-.66-1.036-1.357-2.058-1.862-3.184l-.001.002Zm14.414 35.533a22.173 22.173 0 0 0-.109-1.78l-.018-.288a.83.83 0 0 0 .026-.2c.038-.136.044-.301.143-.407.155-.056.398-.104.466.097v.021a7.803 7.803 0 0 0-.051 1.005c-.009.398-.028.79.074 1.18.021.123.109.181.2.187.305.183.698.072 1.034.048.957-.105 1.766-.665 2.554-1.177.208-.126.423-.253.594-.43.58-.613 1.147-1.241 1.588-1.964a.448.448 0 0 0 .086-.097c.103-.14.237-.254.364-.372.28-.208.595-.36.928-.453.072-.016.143-.031.215-.045.511-.098 1.034-.113 1.542.011.167.072.345.1.515.158a.92.92 0 0 0 .226.07c.992.659 2.126 1.114 3.246 1.481.356.09.713.171 1.06.295.128.039.257.073.386.102-.554.047-1.11.12-1.666.204-2.123.234-4.219.697-6.286 1.249-.678.166-1.324.432-1.962.737-.626.312-1.279.541-1.941.757-1.043.44-2.08.903-3.071 1.45a6.928 6.928 0 0 1 0-.4c.044-.49-.095-.959-.146-1.441l.003.002Zm7.13-5.853c-.167.465-.415.895-.659 1.322-.418.748-.895 1.462-1.502 2.065-.343.463-.828.748-1.309 1.042-.774.544-1.7.951-2.657.877a.248.248 0 0 0-.083-.18 3.315 3.315 0 0 1-.018-.687c-.001-.38.003-.715.046-1.106.14-1.01.424-1.978.793-2.935.212-.602.532-1.156.866-1.695a3.6 3.6 0 0 1 .11-.15c.13-.047.253-.117.378-.178a5.81 5.81 0 0 1 2.165-.499c.558-.025 1.147-.02 1.691.143.155.054.305.128.433.233.04.032.076.07.116.104-.055.558-.197 1.11-.369 1.644h-.002Zm.778-1.354s0 .005.002.008c.187.578.648.998.99 1.483.14.161.288.314.44.46-.044 0-.087.001-.13.004-.596 0-1.225.083-1.822.164a1.903 1.903 0 0 1-.12.023c.08-.16.157-.323.224-.49a8.67 8.67 0 0 0 .416-1.652Zm7.098 4.177c-.72-.245-1.476-.366-2.172-.69-1.237-.423-2.403-1.09-3.352-2.01-.37-.419-.72-.866-1.035-1.329a3.024 3.024 0 0 1-.139-.352c.26-.15.533-.277.814-.387.429-.11.877-.104 1.317-.1.581.022 1.126.036 1.716.136.465.13.931.252 1.398.37.317.14.634.281.946.43.166.078.307.228.487.27.951 1.085 1.649 2.411 1.715 3.881-.277-.06-.557-.052-.838-.066-.287-.046-.575-.086-.857-.152v-.001Zm-1.052-4.676.018.003.002.006a.146.146 0 0 0-.02-.01Zm2.435 1.786c-.147-.609-.148-.953.563-.965l.582.18c.527.193 1.047.408 1.562.645a34.934 34.934 0 0 1 3.529 1.722c0 .03.004.06.016.09-.016.125-.002.306-.116.384a.207.207 0 0 0-.185.049 3.258 3.258 0 0 0-.284-.1c-.395-.117-.805-.167-1.206-.254-.76-.204-1.52-.464-2.313-.494-.281-.01-.564-.039-.846-.057a.219.219 0 0 0-.168-.03c-.17-.053-.353-.099-.484-.227-.238-.297-.534-.57-.648-.945l-.002.002Zm1.243 1.702c.061-.03.132-.028.197-.038l.238.02c.816.004 1.607.19 2.388.424.57.183 1.181.199 1.742.418.436.193.84.426 1.244.683.224.123.46.22.675.357-.598.23-1.07.794-1.445 1.312-.027.04-.054.082-.078.124-.18-.137-.414-.25-.54-.31-.325-.156-.645-.318-.984-.441a7.837 7.837 0 0 0-1.074-.368c-.357-.11-.72-.204-1.084-.29-.199-.051-.4-.099-.6-.146a4.728 4.728 0 0 0-.333-.042l-.153-.025c-.008-.005-.013-.01-.021-.014-.586-.316-.79-1.278-.17-1.663h-.002ZM3.686 21.39c1.188-.084 2.398.283 3.43.888.635.41 1.18.941 1.719 1.468.167.184.354.347.527.525.256.45.521.893.77 1.348.305.568.612 1.136.966 1.674a48.287 48.287 0 0 1 2.482 4.2c1.258 2.021 2.278 4.199 3.44 6.282.376.775.761 1.544 1.21 2.278.253.475.511.953.773 1.43a.217.217 0 0 0 .032.103c.218.386.446.788.675 1.183l.422.754.194.3c.21.375.403.76.632 1.125.308.582.685 1.127.877 1.766.174.489.186 1.004.118 1.516a.32.32 0 0 0 0 .056c-.174.472-.319.956-.446 1.438l-.025.093a.187.187 0 0 0-.03.024c-.182.113-.371.328-.608.245-.19-.049-.286-.2-.378-.363-.096-.145-.199-.285-.297-.428-.058-.08-.125-.2-.205-.282-.37-.768-.787-1.514-1.193-2.26a56.09 56.09 0 0 0-3.075-4.931c-.922-1.32-1.819-2.657-2.745-3.974-.576-.774-1.153-1.548-1.721-2.328-1.38-1.805-2.61-3.72-3.872-5.608a130.478 130.478 0 0 1-2.215-3.231c-1.093-1.525-1.905-3.233-2.968-4.776.387-.369 1.002-.437 1.512-.512v-.003Zm-1.754 2.66c.003-.233.03-.463.065-.694.038-.326.006-.654-.03-.98.142.214.278.434.415.652.552.922 1.07 1.847 1.643 2.765 1.066 1.66 2.21 3.269 3.324 4.896a104.72 104.72 0 0 0 2.15 3.195c1.477 2.135 3.12 4.148 4.54 6.325 1.892 2.686 3.722 5.425 5.206 8.37.29.602.613 1.189.838 1.821.02.052.037.107.056.162a.189.189 0 0 0 .012.14c-.097.924.111 1.845.106 2.77-.009.434.124.822.155 1.256.007.225-.003.45-.002.675a8.13 8.13 0 0 0-.26-.544c-.485-.9-.953-1.81-1.431-2.714-.757-1.407-1.455-2.844-2.273-4.218a45.363 45.363 0 0 0-1.758-2.699 130.528 130.528 0 0 0-2.648-3.903c-.613-.921-1.203-1.857-1.826-2.772-.584-.881-1.105-1.806-1.696-2.684-.36-.527-.724-1.05-1.084-1.58-.476-.668-1.025-1.28-1.471-1.968-.69-1.073-1.413-2.121-2.125-3.178-.315-.471-.52-1.003-.793-1.496-.331-.586-.76-1.11-1.075-1.709.003-.629-.102-1.26-.037-1.888Zm68.7 27.207a10.74 10.74 0 0 1-1.078.225c-1.556.198-3.081.581-4.624.872-3.625.672-7.176 1.672-10.78 2.444a47.758 47.758 0 0 1-3.416.657c-.462.06-.918.189-1.385.202a.244.244 0 0 0-.121.044.198.198 0 0 0-.21.005c-.078.054-.157.107-.23.17-.262.245-.601.378-.925.513-.91.34-1.91.483-2.847.165-.49-.125-.972-.315-1.341-.677-.342-.247-.678-.533-.895-.905a1.52 1.52 0 0 1-.134-.66.275.275 0 0 0-.025-.17c-.089-.14-.274-.135-.413-.193a7.803 7.803 0 0 0-1.194-.376c-1.158-.302-2.346-.328-3.54-.316-2.132-.014-4.225.424-6.302.869-1.845.472-3.652 1.084-5.456 1.689-.98.37-1.924.823-2.883 1.239-.478.14-.94.356-1.429.453a.198.198 0 0 0-.18-.023c-.101.04-.206.07-.316.064-.07-.007-.14-.017-.21-.019a.991.991 0 0 1-.403-.1c-.399-.292-.636-.754-.91-1.16-1.296-2.134-2.553-4.292-3.856-6.422a353.846 353.846 0 0 0-3.253-4.997c-.516-.837-1.095-1.634-1.592-2.482-.165-.284-.356-.55-.545-.816-.434-.631-.854-1.351-1.32-1.977-1.205-1.742-2.353-3.534-3.532-5.294-1.123-1.63-2-3.418-3.137-5.036-.458-.681-.874-1.39-1.35-2.06.03-.153.106-.293.187-.427.128-.235.299-.517.601-.506.019.019.042.03.065.039.262.475.594.906.878 1.367.389.64.644 1.358 1.085 1.965.608.89 1.223 1.772 1.796 2.685.705 1.087 1.568 2.037 2.266 3.132.595.828 1.122 1.701 1.657 2.57.769 1.202 1.563 2.388 2.343 3.582.746 1.07 1.496 2.138 2.202 3.235.996 1.486 2.038 2.953 2.866 4.542.909 1.74 1.845 3.47 2.746 5.217.18.328.363.654.51 1 .098.187.168.56.419.505.404.057.767-.267 1.123-.43.998-.454 1.973-.996 3.031-1.324.94-.28 1.78-.812 2.71-1.12 2.915-.867 5.922-1.404 8.95-1.667.83-.043 1.672-.013 2.502.09.213.04.426.084.639.128.377.095.754.192 1.127.3.594.182 1.177.4 1.72.709.254.139.529.343.767.523.04.035.091.078.147.115a.213.213 0 0 0 .055.075c.153.134.355 0 .398-.174.018-.063.02-.128.038-.191l.016-.043.032-.064c.182-.253.453-.456.694-.664.376-.317.845-.56 1.343-.541a4.55 4.55 0 0 1 2.031.79c.214.18.422.364.63.542.303.317.592.648.797 1.04.051.104.166.158.274.12.008.007.013.016.023.022.154.089.334-.007.497-.03 1.408-.318 2.811-.668 4.225-.959 1.842-.36 3.706-.586 5.54-.983 1.362-.344 2.742-.586 4.114-.878.485-.088.955-.24 1.43-.371.864-.189 1.72-.399 2.567-.664.54-.118 1.083-.22 1.63-.302.215-.04.43-.083.647-.12a1.23 1.23 0 0 0 .197-.039c.01 0 .021 0 .031-.002.426-.107.673.342.841.664.078.13.085.288.118.435-.212.084-.432.106-.673.176v.004Z"/><path fill="#000" d="M9.963 20.43c1.655-1.239 1.087-.114 2.538-.6a2.37 2.37 0 0 0 .484-.208c.216-.101.436-.31.69-.234.22.089.453.209.7.21.58.05 1.059-.368 1.616-.431.684.07.908.486 1.707.22.414-.127 1.584.826 1.754.336.08-.295-.28-.313-.47-.39-.227-.09-.455-.202-.685-.29-.214-.084-.45-.137-.679-.097-.176.03-.35.103-.531.075-.361-.069-.682-.31-1.06-.303-.558-.01-1.016.415-1.568.434-.508-.015-.798-.434-1.343-.11-.422.228-.871.492-1.366.467-.21-.029-.398-.15-.611-.155-.33 0-.624.19-.9.353-.161.1-.325.198-.477.314-.09.067-.205.14-.228.26-.053.272.32.41.428.15v-.002ZM21.549 20.09c.498-.219 1.076-.338 1.602-.154.274.091.522.252.8.33.457.133.905-.058 1.331-.198.25-.03.481.07.71.162l-.004-.002-.006-.002c.193.076.378.18.582.22.462.082.937-.2 1.383.03.156.066.314.142.482.172.285.051.578-.023.86.068.254.076.51.147.77.199a.223.223 0 0 0 .26-.179.227.227 0 0 0-.177-.263c-.328-.057-.602-.17-.944-.237-.307-.054-.625.042-.918-.105-.214-.091-.43-.184-.665-.197-.32-.034-.627.102-.944.074-.225-.047-.403-.158-.622-.238-.26-.11-.616-.208-.915-.13-.283.09-.553.23-.859.217-.291.003-.534-.17-.8-.277-.484-.213-1.027-.23-1.534-.098-.215.073-.775.143-.675.472.038.11.171.186.282.137h.001ZM18.532 22.014c-.307.07-.6.212-.917.227-.215 0-.419-.077-.624-.132-.356-.1-.747-.207-1.103-.053-.55.315-1.21.578-1.825.287-.38-.207-.626-.093-.99.069-.553.225-1.116.428-1.674.64-.12.054-.257.084-.359.17a.23.23 0 0 0 .029.356c.116.082.245.018.345-.05.725-.268 1.506-.583 2.242-.855.675.303 1.357.337 2.032-.006.227-.117.452-.287.721-.23.38.047.734.226 1.117.25.448.029.853-.204 1.287-.269.362-.043.75-.015 1.083.15-.543.323-.513.99.185 1 .349-.053.716-.448.646-.823.382-.027.764.068 1.12.204.76.424 1.461.073 2.195-.21.364-.102.733.027 1.076.149.265.095.537.193.821.207.226.013.452-.012.678.014.352.048.66.216 1.038.174.362-.012.617-.393.991-.318.765.177 1.538.318 2.323.377.217.01.562.218.644-.102a.229.229 0 0 0-.177-.263c-.338-.088-.688-.11-1.036-.143-.558-.065-1.104-.188-1.65-.308a1.051 1.051 0 0 0-.677.095c-.145.073-.275.186-.439.212-.497.012-.955-.259-1.469-.182-.598.028-1.115-.354-1.704-.393-.601-.07-1.1.354-1.679.431-.4.074-.71-.166-1.095-.27-.418-.121-.867-.182-1.295-.076-.518-.383-1.234-.476-1.858-.33h-.002Zm1.758.842c-.014.098-.106.155-.174.216-.042.044-.093.06-.148.03.08-.113.2-.187.322-.247v.001ZM15.485 25.62c.395.05.833.249 1.249.181.489-.063.909-.392 1.41-.387.19.003.336.021.533.05a.225.225 0 0 0 .259-.178c.022-.116-.057-.247-.176-.263-.302-.044-.604-.084-.908-.034-.5.066-.939.434-1.456.367-.526-.103-1.063-.299-1.599-.133a6.89 6.89 0 0 0-1.765.949c-.292.266.123.654.323.309.24-.175.484-.298.759-.458.42-.229.873-.485 1.368-.401l.003-.002ZM20.346 25.684c.461-.09.916-.21 1.38-.28.192-.027.413.004.596.08.34.143.678.312 1.05.351.481.07.948-.08 1.416-.166.478-.054.952.056 1.415.165.474.112.973.1 1.444-.02.328-.062.62-.303.963-.269.426.058.773.417 1.216.392.233-.013.44-.14.67-.177.205-.027.414-.028.62-.008.128.035.266-.036.293-.173.022-.117-.057-.243-.176-.263-.329-.05-.67-.04-.993.043-.155.038-.315.131-.482.13-.476-.1-.894-.493-1.408-.384-.482.133-.94.378-1.455.358-.552.003-1.072-.224-1.621-.25-.556-.068-1.059.17-1.611.192-.345.005-.674-.11-.982-.254-.772-.428-1.628-.043-2.425.094-.287.067-.19.494.09.44ZM32.031 25.966c.266-.127.818.207.88-.2a.226.226 0 0 0-.209-.237c-.251-.028-.511-.07-.76-.002-.284.07-.195.497.09.44ZM29.462 28.257c-.531.28-.826-.05-1.324-.131-.569-.107-1.102.134-1.656.218-.397.073-.78-.052-1.15-.182-.905-.378-1.38.15-2.136.54-.4.223-.68-.057-1.01-.257-.645-.44-1.403-.142-2.033.167-.615.261-1.318.526-2.002.456.42-.629-.434-1.213-.997-.948-.533.24-.332.877.098 1.11-.74.316-1.56.308-2.349.324-.289.026-.258.46.032.448.955-.023 1.998-.004 2.83-.548.95.24 1.91-.14 2.772-.521.941-.454 1.134-.287 1.963.223.777.338 1.385-.494 2.086-.67.361-.034.698.151 1.039.241.444.146.915.084 1.36-.023.427-.12.893-.238 1.324-.071.248.102.511.21.795.184.213-.016.416-.089.609-.18.24-.14.497-.019.732.069.22.077.459.123.694.097.737-.082.829-.598 1.674-.322.291.079.576.173.856.285.116.061.264.033.323-.094.05-.107.007-.253-.104-.3a7.037 7.037 0 0 0-1.015-.338c-.793-.211-.93-.001-1.6.29-.65.184-1.157-.47-1.81-.067Zm-11.79.692c-.149-.067-.308-.155-.388-.304l.005.015c.003.004.004.009.006.013-.02-.037-.04-.098.007-.126a.235.235 0 0 1 .037-.018c.162-.052.428.003.479.187-.012.094-.086.167-.148.233h.001ZM32.197 31.24c-.953.148-1.595-.678-2.633-.264-.785.279-1.26.395-2.005-.08-.4-.256-.873-.166-1.25.086-.383.184-.807.419-1.246.335-.275-.084-.524-.254-.808-.31-.975-.179-1.715.795-2.646.916-.297.049-.583-.066-.862-.151-.899-.333-1.747.084-2.556.464-.275.163-2.098.768-1.404 1.199.114.039.22-.025.274-.124.513-.364 1.135-.562 1.697-.84 1.794-.93 1.899.253 3.32-.201.514-.19.972-.498 1.47-.724.696-.403 1.225.408 1.938.22.306-.06.598-.17.878-.308.27-.118.548-.375.855-.227.379.18.743.427 1.176.44.619.06 1.17-.311 1.771-.36.637.003 1.19.46 1.837.397.56.004 1.121-.35 1.67-.157.318.162.633.35 1.001.351.258 0 .51.044.744.154.18.069.495.366.647.077.136-.313-.42-.444-.636-.556-.35-.156-.744-.07-1.1-.197-.885-.535-1.21-.31-2.134-.14h.002ZM33.917 34.248c-.982-.441-1.7.548-2.628.365-.375-.117-.738-.294-1.137-.314a1.787 1.787 0 0 0-.953.19c-.24.116-.448.295-.703.374-.565.18-1.023-.288-1.538-.42-.93-.218-1.742.398-2.597.663-.568.214-1.104-.062-1.613-.31-.66-.312-.902-.376-1.564-.019-.685.35-1.379.679-2.1.944-.212.11-.903.274-.94.512-.046.188.194.347.344.227.138-.077.288-.132.435-.194.685-.265 1.37-.535 2.026-.872.223-.113.447-.225.676-.328.111-.056.29-.128.429-.064.613.166 1.146.62 1.8.628.887.003 1.59-.611 2.446-.765.48-.109.895.154 1.31.353.39.16.846.182 1.228-.01 1.786-1.227 1.904.458 3.654-.358 1.54-.783 1.386.51 3.04.123.22-.036.444-.028.654.053.246.094.923.632 1.08.23.07-.24-.173-.298-.344-.353-.185-.067-.342-.19-.52-.272-1.058-.405-1.256.363-2.484-.385l-.001.002ZM35.912 38.135c-.86-.11-1.853-.351-2.609.218-1.05 1.065-1.286-.363-2.288-.478-.95-.063-1.352 1.153-2.657.956.028-.367-.134-.728-.39-.983-.206-.202-.54-.438-.819-.238-.491.46.112 1.336.617 1.52-.467.374-.899-.294-1.344-.408a1.99 1.99 0 0 0-.798-.114c-.519.005-1.016.17-1.526.232-.302.045-.61-.097-.835-.3-.488-.474-1.16-.366-1.742-.153-.426.158-.873.327-1.212.643-.498.515.548.83.398.244.388-.265.833-.435 1.281-.559 1.042-.329 1.03.678 2.119.574.639-.067 1.265-.305 1.914-.214.438.058.747.42 1.147.569a.883.883 0 0 0 1.055-.383c1.657.308 2.21-1.274 2.97-.873.658.396 1.104 1.175 1.969.639.594-.482.81-.615 1.604-.584.581.014 1.158.254 1.736.075.608-.244 1.256-.05 1.865.093.192.048.478.24.591-.028a.228.228 0 0 0-.128-.29 6.415 6.415 0 0 0-1.596-.345c-.455-.048-.867.216-1.32.185l-.002.002Zm-8.497-.142c.267.131.482.41.503.715-.271-.126-.497-.405-.503-.715ZM38.02 42.606c-.198-.136-.338-.272-.54-.423-1.053-.797-1.736.508-2.644-.087-.588-.426-1.287-1.036-2.046-.656-.512.238-1.105.644-1.659.282-.482-.35-.902-.554-1.515-.474-1.3.111-1.468 1.147-2.889.332-.458-.202-.986-.257-1.458-.063-.91.466-1.62.6-2.634.366-.183-.243-.573.05-.382.293.096.119.256.138.397.168.366.066.736.113 1.108.097.392-.016.78-.106 1.14-.267.335-.145.667-.35 1.044-.33.743.043 1.365.716 2.143.448.359-.098.661-.326 1.003-.467a2.035 2.035 0 0 1 1.154-.099c.242.076.44.243.654.375.372.246.856.265 1.27.123.776-.313 1.107-.753 1.91-.128.973.78 1.283.738 2.408.305.474-.157.835.227 1.174.497.291.24.654.323.987.477.211.164.374.396.634.49.172.074.348.129.525.184.23.072.46.148.69.222.115.037.241-.01.285-.13.041-.11-.013-.253-.128-.29-.289-.093-.578-.188-.868-.277-.182-.062-.379-.118-.53-.245-.159-.152-.306-.324-.512-.41-.244-.096-.5-.162-.72-.314v.001ZM41.41 34.095c.66-.261 1.13-.922 1.872-.984.042.103.163.16.269.127.312-.118.095-.56-.174-.57-.321-.029-.63.11-.92.237-.439.215-.769.607-1.233.781-.262.13-.081.524.185.41ZM42.675 36.88c.504-.102 1.034-.148 1.502-.376.447-.247.774-.59 1.223-.852.373-.23.803-.305 1.22-.408.722-.194 1.075-.95 1.704-1.3.285-.166.618-.186.932-.26.356-.093.698-.234 1.047-.347.279-.097.147-.51-.129-.43-.538.197-1.056.366-1.625.466-.621.156-1.058.66-1.495 1.101-.303.327-.744.38-1.151.482-.245.067-.48.17-.701.295-.429.229-.774.586-1.19.834-.436.218-.935.253-1.407.35-.288.056-.215.485.07.444v.002ZM61.38 30.94c-.368.118-.72.32-.975.617-.167.169-.241.427-.443.558-.506.17-1.095.161-1.513.541-.286.257-.377.69-.744.862-.161.07-.367.166-.278.38.05.11.184.162.294.11.404-.154.697-.483.893-.864.167-.263.485-.362.768-.432.306-.075.649-.08.908-.278.222-.185.32-.476.532-.67.428-.434 1.041-.43 1.584-.64.405-.185.747-.485 1.141-.691.263-.145.53-.276.816-.398.112-.047.158-.19.109-.298a.222.222 0 0 0-.293-.11c-.645.257-1.224.638-1.81 1.018-.314.172-.645.194-.99.297v-.002ZM60.45 27.934c-.223-.368-.858-.547-1.156-.183-.28.431.238.813.638.794-.386.437-.979.493-1.503.674a.228.228 0 0 0-.109.298.224.224 0 0 0 .308.104c.135-.048.278-.076.416-.113.588-.152 1.26-.462 1.463-1.091.324-.152.56-.43.798-.689a1.777 1.777 0 0 1 1.14-.47c.121 0 .22-.11.217-.23-.035-.333-.452-.203-.668-.163a2.46 2.46 0 0 0-.861.422c-.246.195-.419.475-.684.648v-.001Zm-.771.076a.558.558 0 0 1 .044-.005c.09 0 .203.028.28.09-.11.004-.239-.003-.325-.084ZM44.355 5.819c.104.037.189.114.279.176.352.28.712.55 1.075.815.184.087.43.5.663.295.085-.08.1-.232.012-.318-.243-.231-.525-.414-.793-.616-.377-.245-.737-.678-1.191-.802a.224.224 0 0 0-.258.18.231.231 0 0 0 .213.269ZM47.16 7.804c.134-.28-.375-.511-.502-.235-.134.282.375.512.502.235ZM48.23 28.711c-.216-.16-.443-.308-.647-.484-.434-.364-.768-.824-1.114-1.27-.172-.239-.527.02-.362.26.398.521.793 1.054 1.315 1.456.16.13.334.245.501.367.094.09.252.095.336-.01.074-.09.068-.245-.028-.318h-.001ZM49.223 29.433c-.116-.007-.233.09-.233.212s.084.23.209.237c.116.007.233-.09.233-.212 0-.123-.084-.23-.209-.237ZM52.056 20.75c.115.265.215.538.3.813.082.207.04.633.362.587.324-.101.096-.506.057-.735a8.446 8.446 0 0 0-.322-.863c-.047-.101-.105-.207-.225-.226-.26-.055-.408.289-.173.424h.002ZM52.588 22.76c0 .123.084.231.21.238.115.007.233-.09.233-.212 0-.123-.084-.23-.21-.237-.116-.007-.233.09-.233.212ZM60.308 37.278c.562.07 1.048.485 1.517.79.182.093.44.507.67.258.214-.302-.337-.529-.515-.697a7.124 7.124 0 0 0-1.03-.621c-.22-.091-.458-.216-.703-.179-.351.04-.285.54.06.45ZM63.032 39.07c.151.085.364.18.465-.028.093-.209-.116-.317-.276-.38a.222.222 0 0 0-.295.108.228.228 0 0 0 .106.3ZM17.01 10.782c-.13-.118-.258-.261-.436-.296-.362-.057-.435.454-.063.454.382.31.682.709.995 1.087.098.141.24.346.429.213.271-.24-.137-.517-.267-.72-.21-.254-.42-.51-.659-.738h.001ZM18.462 12.69c-.335-.073-.402.386-.064.457.03.01.058.023.088.037.111.048.243.005.295-.108.097-.237-.142-.326-.319-.386ZM26.427 46.935a.23.23 0 0 0-.01.32c-.157.494-.336.961-.605 1.407a.23.23 0 0 0 .067.31c.103.066.24.034.306-.068.283-.453.474-.96.641-1.467.022-.073.048-.152.048-.23-.003-.204-.263-.444-.445-.272h-.002ZM25.08 49.785c-.116-.007-.234.09-.234.212 0 .123.084.23.21.237.116.007.233-.09.233-.212 0-.123-.084-.23-.21-.237ZM6.196 26.787c.079.093.227.093.313.012.24-.258-.222-.531-.346-.746-.351-.434-.604-.91-.913-1.38-.316-.433-.554-.917-.839-1.367-.192-.211-.51.077-.332.296.324.608.709 1.177 1.08 1.754a8.6 8.6 0 0 0 1.037 1.43ZM7.162 28.194c.116.007.233-.09.233-.212s-.084-.23-.21-.237c-.115-.007-.233.09-.233.212 0 .123.084.23.21.237ZM10.318 36.838c.254.407.528.799.83 1.17.076.096.207.128.31.053.148-.105.098-.297-.02-.405a11.21 11.21 0 0 1-.798-1.138c-.246-.39-.539-.746-.785-1.136-.076-.143-.183-.37-.394-.263-.254.15-.025.42.078.594.248.383.538.737.78 1.125ZM12.399 39.217c.136-.298-.401-.512-.5-.2-.093.272.384.462.5.2ZM29.898 51.343c.324-.065.64-.158.962-.237.327-.086.666-.078 1.002-.07a.225.225 0 0 0 .233-.212c.007-.118-.087-.236-.208-.238-.198-.002-.395-.007-.592 0-.508.028-.988.222-1.485.317a.227.227 0 0 0-.174.265c.023.12.143.2.262.176v-.001ZM29.098 51.433a.23.23 0 0 0-.066-.311c-.204-.124-.32.08-.416.23a.23.23 0 0 0 .026.317c.205.163.362-.07.455-.236h.001ZM39.681 50.635c.415.107.835.212 1.211.43.203.088.508.396.673.1a.229.229 0 0 0-.105-.298c-.468-.268-.953-.514-1.485-.616-.244-.367-.703.213-.294.384ZM42.471 51.361a.032.032 0 0 1-.002.013c.029-.37-.478-.341-.447.026.009.342.47.298.448-.039h.001ZM67.504 46.11c.147.346.595-.02.832-.087.337-.147.674-.293 1.005-.452.223-.118.503-.229.607-.478a.228.228 0 0 0-.141-.283c-.2-.07-.27.167-.426.234-.465.258-.964.449-1.448.666-.168.08-.515.127-.43.4ZM66.335 46.245a.228.228 0 0 0-.015.317c.173.188.365-.024.496-.151a.23.23 0 0 0 .015-.318c-.173-.188-.364.025-.496.151v.001ZM62.03 48.862c-.538.217-1.133.25-1.698.373a5.84 5.84 0 0 1-.7.06c-.12.003-.213.123-.206.241.043.362.63.155.872.157.643-.127 1.32-.172 1.928-.427.258-.138.067-.526-.197-.403h.002ZM58.333 49.561c-.083.089-.062.242.026.317.127.113.289.026.375-.093.083-.088.062-.242-.025-.317-.128-.115-.288-.026-.376.093ZM54.305 51.579c-.393.128-.8.094-1.218.177a7.836 7.836 0 0 0-.949.243c-.116.035-.176.173-.138.285.118.291.45.066.661.029.582-.187 1.206-.13 1.787-.308.274-.102.134-.513-.143-.426ZM51.642 52.165c-.227-.104-.326.162-.406.324a.227.227 0 0 0 .105.299c.227.104.326-.162.407-.324.055-.108 0-.248-.106-.3v.001Z"/></g><defs><clipPath id="a"><path fill="#fff" d="M0 0h72v58H0z"/></clipPath></defs></svg>