<svg xmlns="http://www.w3.org/2000/svg" width="61" height="72" fill="none"><g clip-path="url(#a)"><path fill="#FFCD85" d="M19.417 7.415a.546.546 0 0 1 .02.082c.074.2.18.392.306.56.261.333.626.554 1.034.651a.26.26 0 0 1 .08.061c.107-.014.215-.03.322-.041a.226.226 0 0 1-.09-.195c.025-.385.08-.77.126-1.152.078-.555.223-1.097.334-1.645.033-.185.305-.226.395-.065.08.16-.026.348-.048.514-.091.388-.176.776-.24 1.17-.05.406-.109.811-.135 1.22a.196.196 0 0 1-.053.122l.219-.022c.013-.096.098-.188.176-.264.096-.168.17-.363.245-.522.341-.944.346-1.97.473-2.957.076-.685.26-1.356.503-2 .035-.09.074-.178.114-.266.003-.114.043-.247.048-.349.026-.513-.233-1.081-.726-1.28a1.89 1.89 0 0 0-.464-.135.203.203 0 0 1-.077 0 3.028 3.028 0 0 0-1.247.52c-.51.38-1.04.814-1.214 1.452-.143.517-.27 1.036-.297 1.57.008.58.024 1.16.064 1.738.05.417.088.827.132 1.235v-.002Zm2.413-2.75a.22.22 0 0 1 .225.21c.005.114-.09.226-.208.226a.22.22 0 0 1-.225-.209c-.005-.114.09-.226.208-.226Z"/><path fill="#FFEED6" d="M16.212 9.14c.029.201.203.861.185 1.305.797-.484 1.638-.9 2.514-1.206.007-.113.086-.243.109-.353.085-.43.036-.879-.018-1.317a.392.392 0 0 1-.016-.135 8.779 8.779 0 0 1-.053-.518c-.04-.33-.072-.661-.095-.993v-.002c-.237-.694-.648-1.37-1.402-1.547a1.124 1.124 0 0 0-.422-.033.212.212 0 0 1-.072.02 4.577 4.577 0 0 0-.535.418c-.655.704-.671 2.332-.43 3.224.083.378.149.76.237 1.137h-.002Zm.48-1.267c-.127-.267.26-.458.388-.194.128.265-.26.458-.389.194ZM16.45 6.18c.039-.248.182-.464.258-.693.057-.248.43-.202.428.051v-.002c0-.012 0-.023-.003-.035 0 .01.003.019.004.028v.007c.007.14-.085.263-.144.385-.08.183-.139.377-.143.579-.025.21.098.593-.208.624-.115.004-.225-.09-.226-.209.004-.245-.017-.495.036-.735h-.002ZM53.744 65.313a.823.823 0 0 1 .079-.258v-7.324a.23.23 0 0 1-.024-.066 4.237 4.237 0 0 0-.353-1.203c-.244-.452-.583-.843-.95-1.196-.333-.256-.759-.31-1.16-.37-.902.028-1.807.003-2.71.051-1.307.032-2.613.195-3.92.171a10.648 10.648 0 0 0-1.103-.012l-.044.001v4.753c0 .056.004.122.002.186.145.02.295.017.443.023.354.01.709.017 1.062-.013.416-.013.833.036 1.248.066.002-.045.006-.092.016-.146.044-.323.323-.508.571-.67.333-.344.785-.54 1.266-.473.674.08 1.346.351 1.832.834.303.314.364.789.388 1.207-.1.574-.54 1.029-.975 1.383a1.88 1.88 0 0 1-.166.115c1.04.382 1.428 1.298 1.132 2.424-.15.315-.476.496-.72.73-.396.37-.967.47-1.49.45-.505-.01-.954-.357-1.213-.774-.066-.166-.2-.286-.29-.436-.272.017-.545.04-.817.054-.666.03-1.33.114-1.998.1a5.171 5.171 0 0 1-.291-.016v4.566c1.32-.005 2.641.045 3.962-.02 1.04.002 2.09-.141 3.125-.12.193-.01.386-.015.579-.018.5-.316.994-.689 1.305-1.203.226-.354.25-.785.41-1.164.18-.41.482-.75.668-1.156.062-.155.065-.325.136-.477v.001Zm-7.09-9.231c-.526.002-1.052-.036-1.578-.022-.189.01-.379.014-.568.016-.149.038-.32-.044-.316-.213.005-.214.225-.226.385-.223.518-.012 1.036-.028 1.554 0 .176.009.352.005.529.007.283.01.279.432-.006.435Zm.822.06a.219.219 0 0 1-.213-.22.22.22 0 0 1 .22-.214c.118 0 .215.103.213.22a.22.22 0 0 1-.22.215Zm-3.191 12.94a.22.22 0 0 1-.22-.215.219.219 0 0 1 .215-.22.22.22 0 0 1 .22.216.219.219 0 0 1-.215.22Zm.186-.667c-.104.152-.371.088-.388-.1-.042-.444-.034-.891-.1-1.334-.023-.18.014-.365-.01-.544-.041-.12.016-.258.142-.294.249-.064.314.229.3.419-.018.512.079 1.02.082 1.532.005.106.044.226-.026.32Zm6.483-3.27a.22.22 0 0 1-.219-.215.218.218 0 0 1 .215-.22.22.22 0 0 1 .218.216.219.219 0 0 1-.214.22Zm.105-.645c-.152-.019-.213-.172-.183-.31.02-.535-.081-1.117-.493-1.49a.22.22 0 0 1-.173-.24c.034-.242.338-.229.47-.076.214.21.389.467.495.75.096.272.12.565.133.852.014.195.032.536-.248.512l-.001.001ZM18.195 41.156a12.077 12.077 0 0 1-.547-3.985c.12-.946.333-1.92.785-2.762-.17-.127-.356-.155-.578-.126-.129.348-.264.697-.45 1.017-.62.932-1.467 1.68-2.246 2.473-1.087 1.086-2.188 2.263-2.574 3.798-.281 1.105-.413 2.325.095 3.385a5.89 5.89 0 0 0 1.086 1.684 7.576 7.576 0 0 0 2.428 1.57c-.201-.351-.299-.788-.16-1.177.128-.396.32-.78.622-1.067a.74.74 0 0 1 .163-.201c.16-.182.319-.337.478-.514.906-1.095 1.293-2.645.92-4.023a.224.224 0 0 1-.022-.074v.002Zm-4.92 3.24a.22.22 0 0 1-.223-.21c-.003-.117.093-.225.21-.225.119 0 .22.09.224.211.003.117-.092.224-.21.224Zm.69-3.566.021-.015.014-.013c-.427.595-.558 1.393-.662 2.1-.006.146.038.288.061.43.04.282-.376.35-.428.069-.116-.404-.044-.814.048-1.215.076-.356.167-.708.303-1.045.104-.24.202-.513.412-.68.242-.146.466.21.23.37ZM22.84 6.53c.054.144.055.35.116.47.172.568.5 1.108.979 1.463.084.048.157.084.234.144.002 0 .003.002.004.003.496.019.991.056 1.484.112a.224.224 0 0 1 .077-.089c.117-.125.237-.252.332-.396.305-.522.429-1.141.594-1.7.361-1.28.992-2.525 1.882-3.52.037-.073.086-.14.116-.218.278-.555.33-1.24-.05-1.757a1.576 1.576 0 0 0-.33-.359.2.2 0 0 1-.115-.066C27.447.412 26.668.345 25.977.57c-1.074.421-1.942 1.29-2.416 2.339a8.259 8.259 0 0 0-.492 1.663c-.113.649-.124 1.307-.23 1.956v.001Zm3.186-1.657c.115-.197.2-.41.284-.62.276-.64.723-1.198 1.25-1.648.154-.243.517-.016.367.232-.115.159-.293.262-.421.41a4.94 4.94 0 0 0-.675.916c-.15.294-.246.61-.412.896a.218.218 0 0 1-.288.105c-.102-.049-.162-.186-.104-.29h-.001Zm-.282.922c.118 0 .211.113.207.227a.22.22 0 0 1-.227.208c-.117 0-.21-.113-.206-.227a.22.22 0 0 1 .226-.208ZM57.925 67.516c-.722.351-1.507.545-2.31.473-.442-.106-.913-.142-1.3-.394-.212-.13-.419-.303-.473-.557l-.01-.104a.55.55 0 0 0-.093.134c-.106.21-.23.425-.27.661-.022.767.435 1.298 1.08 1.643.88.438 1.937.3 2.851.07a5.4 5.4 0 0 0 1.245-.518c.142-.082.281-.217.363-.354.206-.315.228-.712.123-1.068-.028-.218-.089-.433-.224-.61a.75.75 0 0 0-.156-.142c-.128.365-.51.576-.825.765v.001Zm-1.559 1.453c-.118 0-.22-.082-.227-.205-.006-.114.087-.229.205-.229s.22.083.227.206c.006.114-.087.228-.205.228Zm1.307-.148c-.165.036-.34.166-.508.095-.166-.077-.148-.351.031-.4.276-.086.557-.166.815-.296.146-.069.252-.212.414-.243a.22.22 0 0 1 .227.206c.001.291-.733.558-.978.636l-.001.002Z"/><path fill="#FFCD85" d="M55.539 70.34c-.412-.035-.817-.147-1.214-.267.034.128.072.254.12.372.087.28.23.576.483.734 1.016.78 2.607.313 3.278-.71.11-.165.12-.364.161-.551.01-.033.017-.065.024-.098-.155.073-.316.132-.403.18-.774.308-1.624.388-2.45.341v-.001Z"/><path fill="#FFEED6" d="M38.073 30.924a2.798 2.798 0 0 0-.443-.3l-.02-.018c-.056-.002-.114-.003-.17-.008-.324 0-.637-.071-.944-.17-.7-.15-1.411-.323-2.132-.313-.203 0-.41.02-.606.069a.279.279 0 0 1-.05.018c-.254.277-.517.544-.79.802-.038.086-.102.172-.136.25-.073.161-.098.279-.14.436-.03.268.014.539.19.749.056.076.103.165.18.223.053.033.118.042.174.074.017.01.032.022.045.034.395.089.787.19 1.175.27.78.208 1.563.43 2.366.239.614-.15 1.214-.485 1.581-1.003.093-.154.158-.32.206-.492 0-.049.006-.099-.004-.147a1.467 1.467 0 0 0-.481-.709l-.001-.004Zm-3.743 1.304c-.118 0-.213-.111-.21-.225a.22.22 0 0 1 .225-.21c.118 0 .212.11.209.225a.22.22 0 0 1-.224.21ZM38.997 22.355c-.177.266-.353.533-.531.798-.444.734-.884 1.47-1.333 2.201a.27.27 0 0 1-.006.057v.008l.001-.008a.859.859 0 0 0-.02.37c.073.345.276.699.591.866.054.032.116.05.173.072.149.04.296.08.44.117.566.193 1.193.274 1.787.167a2.831 2.831 0 0 0 1.581-.822c1.03-.924 1.67-2.18 2.5-3.268a4.77 4.77 0 0 1-1.093.165c-.368-.002-.726-.1-1.086-.166-.601-.215-1.154-.55-1.764-.749-.371-.064-.877-.18-1.17.114a.297.297 0 0 1-.067.08l-.003-.002Zm.72 3.654c.139.009.279-.015.417-.026.663-.159 1.192-.654 1.617-1.168.113-.127.234-.355.433-.234.192.13.08.325-.05.453-.186.244-.402.46-.626.667-.489.446-1.13.788-1.807.744-.284-.02-.269-.44.016-.435v-.001Zm-1.069.152c-.131-.241.282-.513.443-.284.184.255-.291.567-.443.284ZM20.662 12.911c-1.184.093-2.136.977-2.777 1.92-1.16 1.749-1.593 3.916-1.473 5.978.133 2.139 1.178 5.247 3.748 5.167 2.35-.27 3.63-3.027 4.056-5.1.38-1.946.29-4.054-.576-5.847-.544-1.14-1.633-2.232-2.98-2.118h.002Zm.842 6.62c-.085 1.117-.905 4.395-2.366 4.395-.097 0-.195-.014-.296-.044-1.511-.723-.938-4.501-.439-5.793.309-.874 1.139-2.742 2.314-2.152.404.284.625.773.738 1.326a.63.63 0 0 0-.192-.007.784.784 0 0 0-.306.114.842.842 0 0 0-.372.57 1.041 1.041 0 0 0-.003.338.791.791 0 0 0 .094.283c.05.085.129.14.213.192a.807.807 0 0 0 .273.109.84.84 0 0 0 .215.008.74.74 0 0 0 .138-.031l.037-.013c-.01.257-.029.497-.048.706v-.001Z"/><path fill="#FFCD85" d="M53.807 17.149v-.003h-.003c0 .002.002.003.003.004v-.001ZM40.194 27.697c-.113-.064-.19-.125-.286-.17a.269.269 0 0 1-.114-.05c-.03.003-.06.007-.09.008-.354-.01-.71-.03-1.058-.094-.295-.087-.59-.178-.89-.255l-.013-.003a5.12 5.12 0 0 0-1.052-.174 1.245 1.245 0 0 0-.654.17.221.221 0 0 1-.047.02c-.167.254-.337.507-.51.757-.086.242-.193.484-.235.735-.03.247 0 .51.067.746.104.188.244.381.464.431l.018.012c.418.08.831.184 1.24.292 1.148.154 2.336-.023 3.121-.95.185-.235.35-.48.454-.748 0-.03.003-.058.013-.086-.004-.268-.227-.498-.43-.643l.002.002Zm-3.855 1.7c-.118 0-.212-.11-.209-.225a.22.22 0 0 1 .224-.21c.119 0 .213.111.21.226a.22.22 0 0 1-.225.21Zm2.382.184c-.202.101-.443.086-.663.097a3.941 3.941 0 0 1-.846-.082.22.22 0 0 1-.177-.25c.07-.305.422-.124.633-.117.28.016.577.042.85-.03.254-.129.452.242.205.383h-.002Z"/><path fill="#FFCD85" d="M48.365 10.337a.31.31 0 0 1-.122-.06c-.964.223-1.894.65-2.796 1.004-.893.358-1.72.857-2.617 1.2-1.319.499-2.712.843-4.129.773-2.165.027-4.153-.745-6.003-1.816-1.703-.9-3.506-1.641-5.4-2.01a18.871 18.871 0 0 0-4.713-.376c-1.685.036-3.373.377-4.869 1.175-.8.387-1.61.864-2.303 1.396-1.577 1.344-2.903 2.953-4.281 4.494-1.139 1.238-2.321 2.514-3.85 3.263-.69.3-1.451.385-2.197.415-.878.012-1.761-.168-2.6-.42-.35-.135-.703-.265-1.065-.365-.291-.05-.692-.21-.897.082-.22.399-.015.964.392 1.157.621.349 1.295.55 1.97.747.09 0 .172.018.229.068.464.138.926.282 1.368.484.966.367 1.724 1.097 2.613 1.603 1.521.85 3.243 1.585 5.018 1.43.49-.03.918-.27 1.37-.432a.22.22 0 0 1 .274.138c.079.251-.231.302-.397.372-.636.32-1.352.424-2.058.373-2.317-.153-4.372-1.38-6.218-2.702-.614-.354-1.267-.596-1.931-.807-.144.047-.343.03-.467.088-.304.152-.59.302-.773.592a.935.935 0 0 0-.12.65c.016.094.12.144.18.209.079.042.145.1.209.16.03.009.056.024.08.043.81.105 1.64.11 2.393.45 1.236.558 2.319 1.434 3.258 2.402 2.211 2.145 4.466 4.295 7.151 5.836 1.691.94 3.523 1.616 5.372 2.174 2.558.685 5.335.416 7.795-.516.464-.197.92-.416 1.362-.658a11.196 11.196 0 0 0 1.974-1.359c1.282-.996 2.378-2.21 3.29-3.552 1.18-1.647 2.197-3.402 3.25-5.131l.56-.842.007-.017.014-.017c.753-1.137 1.5-2.277 2.273-3.4.585-.722 1.338-1.284 2.056-1.865.66-.564 1.359-1.08 2.106-1.519.922-.542 1.945-.888 2.997-1.072a.328.328 0 0 1 .166-.05c.238-.023.468-.098.706-.122.052-.07.114-.14.15-.202.467-.675.85-1.614.369-2.38-.3-.436-.669-.852-1.147-1.09v.002ZM5.76 21.628a.219.219 0 0 1-.212-.222.22.22 0 0 1 .221-.213c.118 0 .215.104.212.222a.22.22 0 0 1-.22.213Zm3.049 1.71c-.862-.203-1.5-.89-2.302-1.231-.11-.045-.156-.183-.109-.287a.219.219 0 0 1 .286-.11c.324.135.611.334.907.519.434.256.838.587 1.34.693.27.088.15.491-.123.417v-.002Zm8.886-12.363.601-.288c.888-.496 1.882-.738 2.89-.813.137-.044.31-.106.395.059.054.1.02.245-.088.295-.303.137-.65.094-.97.163a5.708 5.708 0 0 0-1.578.459c-.348.172-.695.343-1.045.508a.22.22 0 0 1-.293-.09c-.054-.1-.018-.243.088-.294v.001Zm-.815.607c.118 0 .212.113.207.227a.22.22 0 0 1-.227.208c-.118 0-.212-.113-.206-.227a.22.22 0 0 1 .226-.208Zm-1.647 7.107c.118 0 .215.104.213.222a.22.22 0 0 1-.221.213.218.218 0 0 1-.213-.222.22.22 0 0 1 .221-.213Zm-2.653 11.059a.218.218 0 0 1-.212-.222.22.22 0 0 1 .22-.213c.119 0 .215.104.213.222a.22.22 0 0 1-.22.213Zm2.395 1.523c-.172.002-.325-.09-.472-.169-.253-.15-.505-.301-.754-.459a6.237 6.237 0 0 1-.616-.425c-.094-.072-.103-.218-.03-.307.166-.198.375.03.518.13.181.128.372.243.56.358.266.142.512.357.802.435.284.012.277.434-.008.436Zm.388-5.99a2.812 2.812 0 0 1-.768 1.086c-.179.14-.483.51-.675.201-.086-.185.078-.282.2-.37.196-.154.377-.327.531-.524.21-.288.387-.628.42-.987-.024-.356-.049-.7-.19-1.025-.288-.388-.78-.577-1.232-.688a3.48 3.48 0 0 0-.792-.108c-.218-.023-.657.037-.62-.3.03-.146.186-.207.318-.157.194.024.39.023.585.036.52.057 1 .169 1.448.422.45.238.788.589.835 1.118.082.435.134.884-.06 1.296Zm.514-8.432c-.077.205-.15.397-.195.589-.046.204-.1.412-.12.622-.011.119-.136.2-.248.182-.357-.073-.075-.667-.053-.909.053-.225.136-.438.212-.638.029-.145.096-.288.27-.264.204.033.215.268.134.42v-.002Zm6.633 8.402c-.95.992-2.483 1.527-3.77.884-1.461-.721-2.223-2.334-2.56-3.863-.619-3.01.042-6.725 2.374-8.861 1.444-1.302 3.415-1.257 4.69.241 1.06 1.227 1.497 2.875 1.599 4.468.124 2.536-.53 5.274-2.334 7.13h.001Zm2.685-9.02a.22.22 0 0 1 .007-.308c.338-.24.466.306.53.545.273.819.279 1.691.253 2.545-.025.233.058.855-.298.812a.22.22 0 0 1-.181-.248c.034-.21.048-.421.045-.634.037-.87-.007-1.753-.302-2.581-.017-.045-.026-.093-.054-.132Zm.457 4.367a.218.218 0 0 1-.212-.222.22.22 0 0 1 .22-.213c.119 0 .215.104.213.222a.22.22 0 0 1-.221.213Zm.681 6c-.104.115-.286.181-.395.036-.145-.199.081-.339.217-.453a6.216 6.216 0 0 0 1.027-1.19c1.486-2.288 1.914-5.195 1.416-7.843a8.187 8.187 0 0 0-.67-2.004c-.073-.229-.454-.553-.171-.747.315-.156.428.373.56.559 1.49 3.143 1.121 7.281-.727 10.201a6.539 6.539 0 0 1-1.257 1.442Zm3.102-3.075c-.167.679-.514 1.31-.88 1.902a.218.218 0 0 1-.299.07c-.254-.182.048-.449.136-.643a4.96 4.96 0 0 0 .4-.8c.07-.185.159-.364.213-.554a.22.22 0 0 1 .25-.224c.116.019.2.133.18.25Zm-.197-.712c-.225-.205.075-.535.293-.322.264.216-.069.583-.293.322Zm3.585-6.099c.107-.042.241.011.28.123.137.363.156.754.239 1.13.052.204.085.588-.222.558a.22.22 0 0 1-.181-.249c.014-.05-.009-.141-.012-.172-.026-.147-.058-.31-.08-.43-.035-.195-.051-.395-.115-.583-.064-.133-.07-.316.09-.377Zm.526 2.584a.22.22 0 0 1-.22.213.218.218 0 0 1-.213-.222.22.22 0 0 1 .221-.213c.118 0 .215.104.212.222Zm-3.056 12.392a.22.22 0 0 1-.225-.208c-.005-.116.09-.227.208-.227a.22.22 0 0 1 .225.21c.005.114-.09.225-.208.225Zm.097-6.357c-.098-.058-.143-.199-.078-.298a8.34 8.34 0 0 0 .502-.863c.19-.38.354-.773.494-1.172.496-1.45.685-2.953.592-4.469a9.94 9.94 0 0 0-.34-2.01.22.22 0 0 1 .152-.267.22.22 0 0 1 .267.152c.19.683.303 1.383.352 2.083.13 1.99-.229 4.06-1.113 5.846a8.455 8.455 0 0 1-.532.92.217.217 0 0 1-.295.08l-.001-.002Zm3.46 2.946c-.246.446-.562.845-.877 1.236-.206.225-.386.47-.592.697-.236.24-.5.45-.756.668-.188.132-.462.519-.68.238-.069-.11-.022-.246.084-.31.169-.127.328-.27.49-.407.62-.482 1.083-1.126 1.565-1.728.165-.221.308-.458.438-.699.027-.132.162-.224.292-.176.219.083.136.334.035.482v-.001Zm.58-5.405c-.022.138-.141.263-.288.22-.11-.031-.187-.155-.15-.268.118-.373.214-.752.29-1.122.203-1.006.272-1.98.217-2.99 0-.277.41-.287.431-.03.087 1.41-.089 2.838-.5 4.189Zm.953-1.011a.218.218 0 0 1-.212-.222.22.22 0 0 1 .22-.213c.119 0 .215.104.213.222a.22.22 0 0 1-.221.213Zm.454-1.576a9.703 9.703 0 0 1-.073.637.22.22 0 0 1-.248.182c-.331-.069-.1-.548-.12-.757.05-.173-.074-.389.087-.51a.217.217 0 0 1 .302.047c.083.116.061.268.05.402l.002-.001Zm7.303-6.98c-.118 0-.213-.114-.207-.228a.22.22 0 0 1 .226-.208c.118 0 .213.113.207.227a.22.22 0 0 1-.226.208Zm4.185-1.844a6.9 6.9 0 0 0-.713.247c-.57.322-1.157.613-1.728.933-.223.108-.78.573-.94.215-.07-.214.132-.288.292-.348.192-.093.368-.208.553-.316.383-.22.787-.401 1.172-.62.44-.29.943-.45 1.448-.585.124-.08.304-.015.335.133.049.248-.243.295-.42.341ZM56.112 66.847c.564-.08 1.093-.325 1.584-.605.246-.13.46-.313.637-.529a.236.236 0 0 1 .029-.06v-8.637c-.316-.112-.651-.155-.98-.23-.552-.097-1.12-.128-1.667.02-.326.09-.642.211-.959.329-.165.054-.33.186-.501.245v9.007c.524.387 1.215.508 1.857.46Zm1.566-5.124c-.118 0-.22-.082-.227-.205-.005-.114.087-.229.205-.229s.22.083.227.206c.006.114-.087.228-.205.228Zm-.086-4.058a.219.219 0 0 1 .227.205c.019.354.025.71.047 1.063.047.59.02 1.184.045 1.772.01.283-.408.31-.433.022-.027-.598.002-1.188-.046-1.785-.021-.35-.027-.7-.046-1.051a.22.22 0 0 1 .206-.228v.002Z"/><path fill="#FFEED6" d="M21.137 34.991c-.841-.37-1.926-.28-2.615.347a.24.24 0 0 1-.04.052 5.263 5.263 0 0 0-.13.434c-.137.45-.218.96-.274 1.418-.004.338.014.677.017 1.017.069.835.18 1.676.424 2.474.28.836.536 1.698 1.01 2.45.593.925 1.21 1.818 2.024 2.557a9.753 9.753 0 0 0 5.328 2.262c.767.01 1.549.021 2.297-.162a3.99 3.99 0 0 0 .76-.184 2.637 2.637 0 0 1-.099-.04c-.573-.3-.992-.824-1.358-1.345a7.429 7.429 0 0 1-.866-1.724c-.204-.64-.312-1.302-.463-1.953-.392-1.845-1.085-3.246-2.367-4.632-.679-.8-1.4-1.558-2.266-2.15a37.967 37.967 0 0 0-1.034-.644c-.12-.045-.23-.137-.35-.178l.002.001Zm4.734 6.4c.31.048.232.501-.075.432-.31-.047-.233-.5.075-.431Zm-2.557-4.097c.73.63 1.363 1.357 1.895 2.161.135.25.882 1.269.462 1.41-.106.042-.242-.012-.28-.124-.186-.55-.517-1.023-.853-1.487a10.348 10.348 0 0 0-1.298-1.447c-.083-.092-.197-.145-.268-.243-.116-.215.161-.427.342-.27ZM60.03 9.725c-1.74-3.424-6.257-3.598-8.394-.865-.052.164-.21.349-.334.486a5.284 5.284 0 0 0-.456.959c-1.204 3.383 1.496 6.935 5.05 6.684 3.55-.231 5.74-4.083 4.133-7.265v.001Zm-7.682 5.025c-.287-.244-.469-.581-.656-.903-.064-.115-.105-.24-.16-.36a.223.223 0 0 1 .02-.318c.135-.113.313-.018.373.13.173.42.383.822.717 1.13.206.192-.083.51-.294.32Zm.668.566a.22.22 0 0 1-.224-.212c-.003-.116.093-.224.21-.224.119 0 .22.09.224.211.003.117-.092.225-.21.225Zm6.787-4.061c.003.116-.092.224-.21.224a.22.22 0 0 1-.224-.211c-.003-.117.093-.224.21-.224.119 0 .22.09.224.21Zm-2.1-2.614c-.281-.035-.24-.456.043-.433.265.036.456.258.639.435.37.343.67.754.919 1.191.143.23.201.494.283.748a.22.22 0 0 1-.146.271.22.22 0 0 1-.27-.147c-.138-.592-.488-1.105-.888-1.554-.19-.172-.351-.394-.58-.511ZM31.457 7.68c-.173.28-.347.567-.512.853-.01.05-.027.101-.035.152-.052.41-.03.88.287 1.182.386.42.903.63 1.466.666.23-.004.469-.027.696-.053a.472.472 0 0 1 .11-.013l.033-.026a5.331 5.331 0 0 1 2.486-.838c1.049-.177 2.14-.156 3.157-.487 1.646-.616 2.796-2.088 3.5-3.65.227-.48.352-.994.469-1.51.21-.734.273-1.498.25-2.259-.68.864-1.831 1.494-2.906 1.687-1.287.113-2.597-.008-3.867.261-.773.04-1.485.371-2.095.825-1.188.878-2.369 1.862-3.04 3.211Zm8.983-.697c.163-.133.304-.229.446-.371.426-.507.722-1.07.976-1.665-.039-.272.364-.35.427-.078.042.23-.127.439-.207.645a7.346 7.346 0 0 1-.638 1.09 2.49 2.49 0 0 1-.638.64c-.104.105-.27.178-.386.047-.076-.086-.073-.233.019-.307v-.001Zm-.68.508c.119 0 .212.113.208.227a.22.22 0 0 1-.227.208c-.118 0-.211-.113-.207-.227a.22.22 0 0 1 .227-.208Z"/><path fill="#FFCD85" d="M57.867 52.684a2.94 2.94 0 0 0 .224-.225c.099-.112.184-.232.246-.368a.215.215 0 0 1 .026-.063V18.614c-.078-.055-.146-.128-.23-.172-.201-.115-.393-.275-.594-.366-.358-.152-.672-.355-1.053-.428-.79-.123-1.663.134-2.086.85-.052.063-.095.148-.144.22v33.87a.353.353 0 0 1 .157.104c.298.229.6.404.91.523.269.097.546.16.827.152.443.007.89-.13 1.28-.363-.002-.066.005-.134.007-.191-.006-.39-.005-.778.027-1.166-.013-.342-.015-.686-.03-1.027-.013-.119.093-.223.204-.229.293.005.229.339.236.536 0 .312.04.624.008.935-.022.274-.016.547-.016.821v.002ZM54.743 37.74c-.005-.206 0-.412-.01-.618a.22.22 0 0 1 .205-.228.218.218 0 0 1 .227.205c.009.455.02.91.018 1.365.004.342.016.688.014 1.03a.22.22 0 0 1-.204.229.218.218 0 0 1-.228-.206c-.007-.593-.007-1.185-.023-1.777Zm.302 2.841c-.118 0-.221-.082-.228-.205-.005-.114.087-.229.205-.229s.221.083.227.206c.006.114-.086.228-.204.228Zm2.34-21.1a.226.226 0 0 1 0-.2c.155-.242.45-.074.433.184 0 .723-.017 1.446.009 2.17.013.349.031.698.015 1.048-.005.119-.12.208-.234.198-.211-.02-.207-.244-.192-.407-.007-.585-.034-1.169-.042-1.754.002-.413.02-.826.012-1.238v-.001Zm.233 30.49c-.118 0-.221-.083-.228-.206-.005-.114.087-.229.205-.229s.221.083.227.206c.006.114-.086.228-.204.228Zm.05-25.932c-.118 0-.221-.083-.228-.206-.005-.114.087-.228.205-.228s.22.082.227.205c.006.114-.086.229-.204.229ZM32.934 4.316h.008a.23.23 0 0 1-.11-.02.183.183 0 0 0 .075.02h.027Z"/><path fill="#FFCD85" d="M27.416 5.652c-.278.613-.393 1.294-.6 1.932.021.172.071.345.133.505.161.48.575.763.98 1.014l.01.006a.093.093 0 0 0-.01-.006c-.004-.002-.007-.003-.01-.006a.24.24 0 0 1 .053.037 18.925 18.925 0 0 1 1.99.598c0-.003.002-.005.003-.008.128-.357.235-.7.394-1.039l.17-.294a.192.192 0 0 1 .054-.096c.055-.096.109-.193.166-.296.285-.42.5-.881.782-1.302.2-.276.42-.537.642-.795.443-.499.965-.92 1.482-1.34.129-.1.258-.202.39-.3a1.31 1.31 0 0 1 .092-.127c.092-.129.146-.277.227-.411.24-.562.12-1.272-.334-1.683-.045-.043-.103-.064-.153-.097a3.36 3.36 0 0 0-.69-.183c-.314-.091-.637-.17-.967-.155-.248-.015-.496-.047-.74.014-.88.198-1.642.737-2.295 1.342a6 6 0 0 0-.272.28.221.221 0 0 1-.042.048c-.619.692-1.074 1.516-1.455 2.362Zm3.39.057c.157-.173.296-.361.441-.543.405-.512.906-.949 1.498-1.228.224-.16.512.063.339.303-.107.094-.252.123-.369.205-.45.246-.82.605-1.14 1.004-.18.169-.465.8-.747.566a.22.22 0 0 1-.023-.307Zm-.368.797c.118 0 .212.113.207.228a.22.22 0 0 1-.226.207c-.118 0-.212-.113-.207-.227a.22.22 0 0 1 .226-.208Z"/><path fill="#FFEED6" d="M58.74 53.447c-.035.134-.025.263-.102.378-.065.1-.18.138-.282.191-.984.472-2.56.673-3.617.405-.187-.05-.36-.134-.536-.215a1.515 1.515 0 0 1-.207-.099c-.1.062-.207.124-.25.21-.16.255-.26.565-.165.86.147.27.28.623.592.732 1.026.25 2.12.105 3.151-.18.775-.272 1.569-.735 1.734-1.333.109-.378.14-.992-.266-1.188-.016.08-.04.157-.053.24h.001Z"/><path fill="#000" d="M14.59 22.868c-.449-.253-.928-.365-1.448-.422-.195-.014-.39-.013-.585-.036-.132-.05-.288.011-.318.157-.037.337.4.277.62.3.267.011.534.036.793.108.45.11.943.301 1.23.688.142.327.167.67.19 1.025-.032.36-.208.699-.418.987a3.28 3.28 0 0 1-.531.524c-.122.088-.286.185-.2.37.191.31.494-.06.674-.201.333-.298.611-.665.768-1.086.195-.412.143-.863.06-1.295-.047-.53-.385-.88-.835-1.119ZM27.93 9.103a.096.096 0 0 0 .01.007l-.01-.007ZM37.126 25.415v-.005l-.001.01v-.005ZM16.901 48.896l-.006-.003h-.002l.007.003h.002ZM23.246 13.652c-1.276-1.499-3.247-1.544-4.691-.241-2.332 2.137-2.992 5.851-2.374 8.861.337 1.529 1.099 3.142 2.56 3.863 1.287.644 2.818.109 3.77-.884 1.804-1.857 2.458-4.595 2.334-7.131-.102-1.593-.54-3.24-1.598-4.468h-.001Zm.97 7.223c-.425 2.074-1.705 4.831-4.056 5.101-2.57.08-3.615-3.028-3.748-5.167-.12-2.064.314-4.23 1.473-5.979.64-.942 1.592-1.826 2.777-1.919 1.346-.114 2.435.977 2.98 2.118.864 1.793.956 3.901.576 5.846h-.002ZM28.317 14.956c-.131-.187-.245-.715-.56-.559-.283.194.097.518.17.747.313.63.53 1.314.67 2.004.499 2.648.071 5.555-1.415 7.843a6.212 6.212 0 0 1-1.027 1.19c-.136.114-.362.255-.217.453.11.145.293.079.395-.035.491-.41.906-.907 1.257-1.442 1.847-2.92 2.217-7.058.727-10.201ZM32.33 18.486c-.047-.7-.16-1.4-.351-2.082a.22.22 0 0 0-.267-.152.22.22 0 0 0-.151.268c.185.659.289 1.307.339 2.009a11.53 11.53 0 0 1-.592 4.469c-.139.399-.304.792-.494 1.172-.14.281-.313.58-.503.863-.066.099-.019.24.079.298.1.062.237.023.295-.078.197-.295.374-.604.532-.922.884-1.786 1.243-3.856 1.113-5.846v.002ZM34.5 18.714a11.738 11.738 0 0 1-.217 2.99c-.076.37-.172.749-.29 1.122-.036.113.04.237.15.267.147.044.266-.081.288-.22.411-1.35.587-2.778.5-4.189-.02-.256-.43-.245-.431.03Z"/><path fill="#000" d="M21.377 18.868a.848.848 0 0 1-.214-.008.805.805 0 0 1-.273-.108.57.57 0 0 1-.214-.193.835.835 0 0 1-.094-.282 1.014 1.014 0 0 1 .003-.339.845.845 0 0 1 .372-.569.767.767 0 0 1 .306-.114.63.63 0 0 1 .192.007c-.114-.553-.335-1.043-.738-1.326-1.175-.59-2.005 1.278-2.314 2.152-.5 1.293-1.072 5.07.439 5.793.102.03.2.044.296.044 1.461 0 2.281-3.278 2.366-4.395.02-.21.039-.45.048-.706l-.037.013a.732.732 0 0 1-.138.03v.001Z"/><path fill="#000" d="M58.796 16.678c.035-.148.066-.298.142-.43l.001-.005c1.699-1.373 2.567-3.736 1.75-6.064-1.56-4.384-7.378-4.9-9.742-1.08-.116.13-.249.24-.414.305-.338.157-.702.233-1.07.281a3.15 3.15 0 0 0-.351.017 8.107 8.107 0 0 0-.928.141c-.939.204-1.817.61-2.709.96-.88.333-1.695.808-2.559 1.179-.897.352-1.844.645-2.827.788-1.785.173-3.646-.025-5.3-.764-.505-.206-1.008-.476-1.506-.742a.162.162 0 0 1 .027-.048c.32-.412.819-.668 1.305-.853 1.07-.41 2.266-.385 3.392-.567 1.605-.112 3.055-1.085 3.987-2.371a9.277 9.277 0 0 0 1.294-2.404c.241-.87.479-1.75.508-2.659.008-.24-.008-.478.001-.718-.026-.238.135-.7-.2-.761-.128-.012-.214.084-.29.175-.12.147-.227.304-.345.453-.608.7-1.466 1.168-2.352 1.408-.765.112-1.546.085-2.319.114-.497 0-.989.055-1.478.13a1.59 1.59 0 0 1-.318-.155c-.43-.249-.821-.55-1.219-.843-.336-.19-.676-.373-1.025-.536-.411-.211-.877-.245-1.314-.38-.247-.07-.502-.07-.756-.074-.513-.078-1.065.06-1.545.262l-.077.037c-.086-.142-.272-.274-.365-.373-.444-.35-.989-.55-1.506-.768a4.573 4.573 0 0 0-1.345-.3c-.46-.041-.935-.057-1.38.09a4.587 4.587 0 0 0-1.405.79c-.17-.156-.454-.28-.589-.342a2.611 2.611 0 0 0-.663-.145c-.754-.07-1.547-.016-2.241.306-.718.37-1.422.894-1.808 1.62a5.64 5.64 0 0 0-.383 1.36c-1.09-.451-2.09.086-2.874.864-.475.598-.578 1.455-.602 2.198-.023.481.054.953.172 1.418.106.6.265 1.222.365 1.836.012.168.031.34.01.508a.288.288 0 0 0-.008.203c-.263.172-.522.35-.774.532-2.123 1.783-3.759 4.057-5.728 5.995-.712.69-1.506 1.323-2.402 1.753-.703.275-1.47.345-2.219.351-.66-.03-1.36-.18-2.008-.338-.693-.197-2.074-.966-2.621-.212-.3.412-.215 1.03.06 1.433.28.349.706.518 1.101.696l.152.064c-.446.223-.905.457-1.162.9-.385.553.01 1.276.59 1.483 1.115.471 2.38.248 3.497.7 1.61.686 2.819 1.984 4.055 3.18 2.52 2.42 5.22 4.792 8.505 6.09.205.084.413.167.62.25a.194.194 0 0 0-.016.106 8.39 8.39 0 0 1-.52 1.298c-.363.585-.822 1.042-1.306 1.538-1.191 1.253-2.617 2.415-3.3 4.052-.497 1.254-.78 2.72-.374 4.035.297.866.765 1.681 1.4 2.34a7.895 7.895 0 0 0 3.403 1.913c.241.065.377-.28.16-.4-.388-.27-.737-.743-.633-1.241.125-.425.326-.847.698-1.106.492-.367 1.176-.426 1.642-.847a2.81 2.81 0 0 0 .85-1.189c.329.476.69.932 1.064 1.37 1.567 1.692 3.818 2.69 6.087 2.95.966.054 1.924-.01 2.869-.23.433-.082.873-.335 1.326-.357.288-.005.27-.437 0-.435l-.022.002a.193.193 0 0 0-.052-.013c-.206-.02-.413-.033-.613-.092-.663-.173-1.083-.803-1.468-1.33-.33-.518-.607-1.034-.8-1.631-.336-1.185-.49-2.453-.943-3.607-.458-1.288-1.321-2.376-2.229-3.375-.842-1.022-1.885-1.857-3.031-2.513.377.053.757.086 1.142.094 2.163.049 4.378-.35 6.321-1.328.211-.1.417-.21.621-.322.349-.069.694-.163 1.038-.256.884-.144 1.793.028 2.65.261.731.148 1.446.382 2.186.48.99.075 2.017-.248 2.72-.97.402-.406.556-.982.61-1.539a3.806 3.806 0 0 0-.03-.86 3.124 3.124 0 0 0 1.762-1.432 2.37 2.37 0 0 0 .344-1.32c.007-.181.013-.364-.016-.543.168-.086.328-.187.475-.31.871-.692 1.521-1.608 2.128-2.532a19.2 19.2 0 0 1 1.12-1.536c.131-.155.294-.328.448-.476.067-.057.126-.125.124-.219.002-.15-.168-.255-.302-.194-.317.212-.603.487-.973.612-.793.263-1.69.233-2.446-.132-.578-.243-1.139-.6-1.776-.647a1.78 1.78 0 0 0-.488-.02c.612-.926 1.223-1.851 1.851-2.766.592-.717 1.348-1.267 2.062-1.85.62-.531 1.285-1.01 1.986-1.425 1.257-.734 2.7-1.08 4.149-1.156.523.06 1.063.14 1.468.503a.248.248 0 0 0 .082.053c.41.618.945 1.153 1.579 1.563.056.07.14.127.207.172.187.147.348.323.505.5.288.353.388.825.451 1.271.016.162.007.331.02.493a.221.221 0 0 0 0 .093v34.596a.871.871 0 0 0-.034.026c-.275.12-.447.37-.559.64a.254.254 0 0 0-.058-.004c-.432-.023-.86.045-1.288.075l-.502.016a.586.586 0 0 0-.185.005c-.549.014-1.097.023-1.646.016-1.307.02-2.608.14-3.912.18-.745.085-1.497-.046-2.24.022a.207.207 0 0 0-.12.104.207.207 0 0 0-.154.204v5.125c0 .042.014.08.033.113a.243.243 0 0 0 .232.236c.603.071 1.215.055 1.821.023.418.012.834.052 1.252.08a.242.242 0 0 0 .087-.011c.185.038.383-.14.2-.372-.014-.12.025-.255.124-.33.19-.126.37-.264.54-.416.61-.428 1.588-.002 2.125.393.14.116.275.25.313.435.042.203.118.41.097.618-.191.523-.616.949-1.098 1.215-.07.036-.166.057-.257.084h-.01a.221.221 0 0 0-.17.08c-.06.045-.095.108-.08.209a.22.22 0 0 0 .233.172c.04.01.081.016.12.022 1.087.21 1.538.899 1.284 1.981-.226.269-.52.489-.796.704-.367.184-.814.24-1.215.158-.222-.073-.407-.243-.557-.417-.117-.185-.22-.376-.363-.543a.236.236 0 0 0-.081-.085.219.219 0 0 0-.215-.138c-.422.026-.843.063-1.265.075-.694.067-1.396.123-2.091.057a.21.21 0 0 0-.143.017.22.22 0 0 0-.112.256.251.251 0 0 0-.004.041v4.931a.22.22 0 0 0 .216.218.292.292 0 0 0 .066-.01c.66.025 1.327-.038 1.987.015 1.676.028 3.337-.105 5.01-.157.256.008.511-.008.767-.017a.26.26 0 0 0 .157-.003l.072-.001c.576 0 1.151.064 1.726-.002.162-.02.322-.035.485-.036a.286.286 0 0 0 .173-.035h.028c.009.156.032.309.085.458.071.318.19.611.324.91.418.69 1.248.986 2.022.96h-.008c.96-.02 1.955-.585 2.416-1.44.115-.26.127-.553.205-.825.009-.118.052-.304.04-.456.392-.27.682-.67.72-1.178.05-.284-.04-.558-.085-.835a1.391 1.391 0 0 0-.734-1V55.701a.167.167 0 0 0-.005-.033.368.368 0 0 0 .04-.03c.116-.077.209-.157.271-.241.088-.085.172-.174.246-.271.231-.29.37-.657.366-1.03-.012-.51-.389-1.283-.899-1.438l-.018-.006V16.678h.004ZM36.59 3.646c1.271-.27 2.581-.148 3.868-.261 1.075-.193 2.226-.823 2.906-1.688.022.762-.04 1.525-.25 2.26-.117.515-.241 1.029-.47 1.509-.703 1.563-1.853 3.035-3.499 3.65-1.017.331-2.11.311-3.157.488a5.328 5.328 0 0 0-2.486.837c-.01.008-.02.018-.033.026a.48.48 0 0 0-.11.013 7.414 7.414 0 0 1-.696.054c-.563-.036-1.08-.247-1.467-.667-.317-.302-.339-.772-.287-1.181.009-.052.026-.102.036-.153.165-.286.34-.572.511-.853.67-1.349 1.852-2.333 3.04-3.21.61-.454 1.32-.785 2.094-.825Zm-7.406-.682c.654-.604 1.416-1.145 2.295-1.343.245-.06.494-.027.741-.014.33-.015.652.064.967.156.238.034.466.1.69.182.05.033.108.055.152.097.454.411.576 1.122.335 1.683-.081.135-.136.283-.227.411-.032.04-.065.084-.093.128-.13.097-.26.199-.39.3-.517.419-1.039.84-1.482 1.34-.22.259-.44.519-.64.794-.283.422-.5.882-.783 1.302-.056.104-.11.2-.166.296a.192.192 0 0 0-.055.097l-.17.294c-.158.338-.265.682-.393 1.039l-.003.007a16.695 16.695 0 0 0-.446-.157 19.497 19.497 0 0 0-1.544-.44.284.284 0 0 0-.053-.037l.009.005c-.404-.25-.82-.533-.98-1.013a2.165 2.165 0 0 1-.134-.505c.207-.639.323-1.32.6-1.932.382-.847.837-1.67 1.455-2.363a.224.224 0 0 0 .043-.048 6.05 6.05 0 0 1 .271-.28h.002Zm-5.623-.052c.473-1.05 1.343-1.916 2.416-2.338.69-.228 1.469-.16 2.186.045a.207.207 0 0 0 .115.067c.13.096.235.227.33.359.38.517.327 1.203.05 1.756-.03.078-.08.144-.116.218-.89.995-1.521 2.24-1.883 3.52-.165.56-.288 1.178-.593 1.7-.096.143-.215.271-.332.396a.216.216 0 0 0-.077.09 19.332 19.332 0 0 0-1.484-.112c-.002 0-.003-.003-.004-.004-.077-.06-.149-.094-.235-.143-.478-.356-.807-.895-.979-1.463-.06-.12-.062-.327-.116-.47.105-.65.116-1.308.23-1.956.105-.568.27-1.13.492-1.663v-.002Zm-4.043-.039c.174-.64.704-1.073 1.214-1.45.374-.275.8-.438 1.247-.522.025.004.05.007.077 0 .165.026.301.068.464.136.493.2.752.767.726 1.28-.004.102-.044.234-.048.349-.04.087-.08.175-.114.265a8.283 8.283 0 0 0-.504 2c-.127.987-.132 2.013-.472 2.957-.076.159-.15.354-.245.522-.077.076-.163.168-.177.265l-.218.021a.196.196 0 0 0 .053-.123c.026-.407.084-.813.135-1.219.064-.394.148-.782.24-1.17.021-.166.129-.353.047-.514-.09-.16-.363-.12-.394.065-.11.55-.257 1.09-.335 1.645-.045.383-.1.767-.124 1.152a.227.227 0 0 0 .088.195l-.321.041a.224.224 0 0 0-.08-.06 1.842 1.842 0 0 1-1.034-.651 2.162 2.162 0 0 1-.305-.56.36.36 0 0 0-.021-.083c-.045-.408-.082-.818-.132-1.235a30.985 30.985 0 0 1-.064-1.737c.027-.535.154-1.054.297-1.57v.001ZM16.404 4.78c.168-.151.347-.293.535-.417a.238.238 0 0 0 .073-.02c.142-.015.284-.005.421.033.754.176 1.166.851 1.402 1.546v.003c.024.331.056.663.095.993.011.17.032.342.053.518A.428.428 0 0 0 19 7.57c.054.439.104.886.017 1.317-.023.11-.1.24-.108.352-.877.307-1.718.723-2.515 1.207.019-.444-.156-1.104-.185-1.306-.088-.376-.154-.759-.236-1.136-.24-.892-.226-2.52.429-3.225h.002Zm.894 40.474c-.16.176-.318.332-.478.513a.775.775 0 0 0-.163.202c-.303.285-.494.67-.621 1.067-.14.388-.044.825.159 1.176a7.577 7.577 0 0 1-2.428-1.569 5.905 5.905 0 0 1-1.086-1.685c-.509-1.06-.376-2.279-.095-3.384.387-1.535 1.488-2.712 2.574-3.799.78-.793 1.627-1.54 2.245-2.472.186-.32.32-.67.45-1.018.224-.029.41 0 .58.127-.454.84-.667 1.815-.786 2.762a12.077 12.077 0 0 0 .547 3.984c.004.024.01.05.023.074.372 1.379-.016 2.928-.921 4.024v-.002Zm5.22-9.441c.867.593 1.589 1.35 2.267 2.15 1.282 1.385 1.975 2.787 2.367 4.632.15.652.259 1.314.463 1.953a7.47 7.47 0 0 0 .865 1.724c.366.521.785 1.046 1.359 1.345l.099.04a3.84 3.84 0 0 1-.76.185c-.75.181-1.53.17-2.297.162a9.746 9.746 0 0 1-5.328-2.263c-.814-.738-1.43-1.632-2.023-2.557-.475-.752-.73-1.613-1.011-2.45-.245-.797-.356-1.638-.424-2.474-.004-.34-.023-.678-.017-1.017.056-.458.136-.967.274-1.417.037-.147.081-.292.129-.434a.242.242 0 0 0 .041-.053c.69-.628 1.774-.719 2.614-.346.118.04.23.132.35.178.349.209.696.425 1.034.643l-.001-.001Zm16.04-4.033a1.902 1.902 0 0 1-.206.492c-.367.519-.967.854-1.582 1.003-.801.192-1.585-.03-2.366-.239-.388-.08-.779-.18-1.174-.27a.304.304 0 0 0-.046-.034c-.055-.032-.12-.04-.174-.074-.076-.058-.124-.147-.18-.223-.176-.21-.221-.48-.188-.748.04-.158.066-.276.138-.437.035-.078.099-.164.137-.25.273-.258.536-.525.79-.802a.21.21 0 0 0 .05-.018c.198-.048.402-.07.606-.069.72-.01 1.431.162 2.132.313.307.099.62.17.944.17.057.005.113.006.17.008.006.005.012.013.02.017.163.096.288.17.442.3.22.183.401.427.481.71.01.049.006.099.005.147v.004Zm2.052-3.354c-.104.269-.27.514-.454.748-.786.928-1.973 1.105-3.121.95a18.67 18.67 0 0 0-1.24-.291l-.018-.012c-.219-.05-.36-.244-.464-.432-.067-.236-.096-.498-.067-.745.043-.252.15-.494.234-.735.173-.25.343-.503.511-.758a.337.337 0 0 0 .047-.02c.196-.113.427-.179.654-.17a5.15 5.15 0 0 1 1.052.174l.013.003c.298.078.594.17.89.256a7.17 7.17 0 0 0 1.058.094l.09-.008a.269.269 0 0 0 .114.05c.095.045.173.105.286.17.203.144.425.375.43.643a.211.211 0 0 0-.013.085l-.002-.002Zm-.376-6.264c.61.198 1.162.533 1.764.748.36.065.718.164 1.085.166.368-.01.739-.07 1.094-.165-.832 1.09-1.47 2.345-2.5 3.268a2.83 2.83 0 0 1-1.582.822c-.594.107-1.22.026-1.788-.167-.143-.037-.289-.078-.438-.117-.058-.022-.12-.04-.174-.071-.315-.167-.517-.521-.59-.867a.863.863 0 0 1 .02-.37.262.262 0 0 0 .006-.057c.449-.73.89-1.466 1.333-2.2l.53-.799a.316.316 0 0 0 .066-.08c.295-.293.8-.178 1.172-.114l.002.003Zm8.907-8.356c-.035.063-.097.13-.15.202-.238.025-.468.1-.706.123a.326.326 0 0 0-.165.05c-1.052.183-2.075.53-2.997 1.072-.747.44-1.447.956-2.106 1.518-.72.581-1.471 1.144-2.056 1.866-.775 1.122-1.52 2.263-2.273 3.4l-.014.017a.12.12 0 0 0-.008.016c-.186.28-.372.563-.56.842-1.052 1.73-2.07 3.485-3.25 5.131-.911 1.343-2.008 2.557-3.29 3.552a11.135 11.135 0 0 1-1.973 1.359c-.442.242-.898.461-1.362.658-2.46.932-5.237 1.202-7.796.517-1.848-.56-3.68-1.235-5.371-2.175-2.687-1.54-4.94-3.69-7.151-5.836-.94-.967-2.023-1.845-3.258-2.4-.754-.341-1.584-.347-2.393-.451a.248.248 0 0 0-.08-.044 1.09 1.09 0 0 0-.208-.16c-.062-.065-.165-.115-.181-.208a.934.934 0 0 1 .12-.651c.182-.29.469-.44.772-.592.125-.057.323-.041.467-.088.664.211 1.318.453 1.932.807 1.846 1.32 3.901 2.549 6.217 2.702.706.051 1.423-.053 2.059-.373.165-.07.475-.12.396-.372a.22.22 0 0 0-.274-.138c-.451.163-.88.402-1.37.433-1.775.155-3.495-.58-5.017-1.43-.89-.506-1.647-1.236-2.613-1.604a10.377 10.377 0 0 0-1.369-.484c-.056-.051-.138-.067-.228-.067-.675-.2-1.35-.399-1.97-.748-.406-.192-.61-.758-.392-1.156.205-.292.606-.132.897-.083.362.1.715.23 1.065.366.838.25 1.721.432 2.6.42.745-.03 1.505-.115 2.196-.416 1.53-.748 2.712-2.024 3.85-3.262 1.378-1.542 2.704-3.15 4.282-4.494a13.511 13.511 0 0 1 2.303-1.397c1.497-.797 3.184-1.139 4.869-1.175 1.57-.076 3.166.057 4.713.377 1.894.368 3.697 1.11 5.4 2.01 1.85 1.07 3.837 1.843 6.003 1.816 1.418.068 2.81-.275 4.129-.773.898-.345 1.725-.843 2.617-1.2.902-.354 1.832-.782 2.796-1.005a.311.311 0 0 0 .121.06c.48.237.848.654 1.148 1.089.48.766.1 1.706-.37 2.38v-.001Zm4.665 3.343s0-.002-.002-.003h.002v.002Zm-.868 49.797c-.161.379-.184.81-.41 1.164-.311.514-.804.887-1.305 1.203-.192.004-.385.008-.578.019-1.035-.023-2.085.122-3.126.119-1.32.066-2.64.016-3.962.02a1.11 1.11 0 0 1 0-.103v-4.462c.097.007.194.013.292.016.668.013 1.331-.07 1.998-.1.273-.017.545-.037.816-.055.092.15.225.27.29.437.26.417.708.765 1.213.774.523.019 1.094-.08 1.49-.45.245-.234.57-.416.72-.73.296-1.127-.09-2.043-1.132-2.425.057-.035.113-.073.167-.114.437-.355.874-.81.975-1.384-.024-.418-.087-.893-.388-1.206-.486-.484-1.158-.754-1.832-.835-.48-.066-.935.13-1.266.472-.248.164-.527.349-.571.672a1.275 1.275 0 0 0-.017.145c-.415-.03-.831-.078-1.247-.066-.354.03-.708.023-1.062.013-.149-.005-.298-.002-.443-.023.002-.064-.003-.13-.003-.186V55.11c.016 0 .03 0 .045-.002.367-.01.737-.015 1.103.012 1.307.024 2.613-.138 3.92-.17.904-.047 1.808-.023 2.71-.051.4.06.827.114 1.16.37.367.354.706.743.95 1.195.17.376.3.79.352 1.203a.23.23 0 0 0 .024.066v7.325a.779.779 0 0 0-.079.257c-.07.154-.073.323-.135.477-.187.407-.488.746-.669 1.156Zm5.43 2.971c-.044.188-.053.387-.162.552-.672 1.022-2.262 1.489-3.279.709-.25-.158-.394-.454-.482-.733a2.8 2.8 0 0 1-.12-.372c.397.12.802.231 1.213.266.827.048 1.676-.031 2.451-.341.087-.048.248-.107.403-.18l-.024.098v.001Zm.538-3.024c.135.175.196.392.224.61.105.355.082.75-.124 1.067a1.058 1.058 0 0 1-.363.354c-.392.222-.809.401-1.244.518-.915.23-1.972.369-2.85-.07-.648-.345-1.105-.876-1.08-1.642.04-.237.164-.45.269-.662a.537.537 0 0 1 .092-.134l.01.105c.055.253.262.427.473.557.388.251.86.287 1.3.394.805.071 1.59-.122 2.311-.474.314-.189.697-.401.825-.764.057.04.11.086.155.142l.002-.001Zm-4.65-.507V57.38c.17-.059.336-.192.501-.245.317-.117.633-.237.96-.328.546-.148 1.113-.118 1.666-.02.329.073.663.117.98.23v8.637a.235.235 0 0 0-.03.06 2.106 2.106 0 0 1-.636.528c-.491.279-1.02.525-1.584.605-.64.048-1.332-.073-1.857-.46Zm4.801-11.991c-.164.598-.959 1.062-1.733 1.334-1.03.285-2.126.428-3.152.18-.312-.11-.444-.463-.591-.733-.094-.295.005-.605.164-.86.044-.085.15-.147.25-.21.071.043.148.076.208.1.175.08.348.165.536.214 1.057.268 2.633.067 3.616-.405.102-.053.218-.09.283-.191.078-.113.067-.244.102-.378.013-.081.037-.158.053-.239.405.196.375.81.265 1.188Zm-1.183-3.47c-.007-.197.056-.531-.236-.534-.113.005-.219.11-.205.228.016.342.018.685.03 1.027-.03.388-.03.777-.026 1.166-.003.058-.008.125-.007.192-.389.231-.837.37-1.28.362a2.232 2.232 0 0 1-.827-.151 3.66 3.66 0 0 1-.91-.524.354.354 0 0 0-.157-.104v-33.87c.05-.07.092-.155.144-.218.422-.717 1.297-.974 2.085-.85.382.072.696.275 1.053.428.202.089.394.249.595.365.082.045.152.118.23.172v33.414a.27.27 0 0 0-.026.063 1.56 1.56 0 0 1-.246.369c-.07.08-.144.154-.224.225 0-.274-.006-.548.016-.821.03-.313-.01-.624-.008-.936v-.002Zm-1.978-33.937c-3.554.251-6.254-3.3-5.05-6.684a5.33 5.33 0 0 1 .455-.96c.124-.136.283-.321.335-.484 2.137-2.734 6.653-2.56 8.393.864 1.606 3.182-.583 7.033-4.133 7.265v-.001Z"/><path fill="#000" d="M40.807 7.244a2.49 2.49 0 0 0 .638-.642c.242-.345.46-.707.638-1.089.08-.207.25-.414.207-.645-.063-.273-.466-.194-.427.078-.254.595-.55 1.159-.976 1.665-.142.142-.284.238-.446.37-.092.076-.094.223-.019.307.115.132.282.06.386-.045ZM39.74 7.925a.22.22 0 0 0 .227-.208c.005-.114-.09-.227-.207-.227a.22.22 0 0 0-.227.208c-.005.114.089.227.207.227ZM31.576 5.45c.318-.398.689-.758 1.14-1.004.117-.082.26-.112.368-.205.174-.24-.114-.463-.34-.303-.59.28-1.092.716-1.497 1.228-.145.183-.285.37-.442.543a.22.22 0 0 0 .023.307c.282.234.567-.397.748-.566Zm1.366-1.136-.008.001h-.027a.182.182 0 0 1-.076-.02.228.228 0 0 0 .11.02ZM30.418 6.941a.22.22 0 0 0 .226-.207c.006-.115-.089-.228-.207-.228a.22.22 0 0 0-.226.208c-.006.114.089.227.207.227ZM26.13 5.163a.22.22 0 0 0 .289-.105c.166-.286.262-.602.412-.896.195-.326.411-.642.675-.916.128-.148.306-.252.421-.41.15-.248-.212-.474-.367-.232-.527.45-.974 1.01-1.25 1.647-.085.211-.17.425-.284.621-.058.105.002.242.104.29ZM25.723 6.23a.22.22 0 0 0 .227-.208c.005-.114-.089-.227-.207-.227a.22.22 0 0 0-.226.208c-.006.114.088.227.206.227ZM21.847 5.1c.118 0 .212-.11.208-.225a.22.22 0 0 0-.225-.21c-.118 0-.212.112-.208.227a.22.22 0 0 0 .225.209ZM17.133 5.501a.185.185 0 0 1 .003.035v-.007l-.004-.028h.001Z"/><path fill="#000" d="M16.415 6.915c.001.119.11.214.226.21.306-.032.183-.414.208-.625.005-.201.062-.396.142-.579.06-.122.152-.245.145-.385v.002c.003-.253-.37-.299-.428-.051-.076.23-.22.445-.258.693-.053.24-.034.49-.036.735h.001ZM16.691 7.873c.128.264.517.071.39-.194-.128-.264-.516-.072-.39.194ZM47.41 10.988c-.505.135-1.008.296-1.448.585-.385.218-.789.4-1.172.62-.185.108-.361.223-.553.316-.16.06-.363.134-.291.348.159.359.716-.105.939-.215.57-.32 1.158-.61 1.728-.933.23-.099.472-.174.713-.247.176-.046.468-.093.419-.341-.031-.15-.21-.212-.335-.133ZM43.16 12.871a.22.22 0 0 0-.226.208c-.006.114.089.227.207.227a.22.22 0 0 0 .226-.207c.006-.115-.089-.228-.207-.228ZM17.901 11.36c.35-.167.697-.338 1.045-.509a5.684 5.684 0 0 1 1.577-.459c.32-.07.668-.026.971-.163.107-.05.142-.195.088-.295-.086-.165-.258-.103-.396-.059-1.007.075-2.002.317-2.89.813l-.6.288c-.107.051-.142.195-.088.295.057.109.188.14.293.09v-.002ZM16.861 12.017a.22.22 0 0 0 .227-.207c.005-.115-.089-.228-.207-.228a.22.22 0 0 0-.226.208c-.006.114.088.227.206.227ZM33.815 27.796c-.13-.048-.265.044-.292.176-.132.24-.273.478-.438.699-.482.602-.945 1.246-1.565 1.728-.16.136-.32.28-.49.407-.106.064-.152.201-.084.31.218.28.492-.105.68-.238.255-.219.52-.428.756-.668.206-.225.384-.472.592-.697.315-.39.63-.789.877-1.236.1-.148.183-.398-.035-.482v.001ZM30.276 31.254c-.118 0-.213.111-.208.227a.22.22 0 0 0 .225.208c.118 0 .213-.11.208-.226a.22.22 0 0 0-.225-.209ZM14.984 30.837c-.29-.079-.536-.294-.802-.436-.188-.116-.379-.23-.56-.358-.143-.1-.353-.328-.519-.13-.072.09-.064.234.03.307.205.158.383.282.617.425.25.158.502.31.754.46.147.079.3.17.472.168.285-.001.292-.423.008-.435v-.001ZM12.589 29.314a.22.22 0 0 0-.221.213.22.22 0 0 0 .212.222.22.22 0 0 0 .221-.213.22.22 0 0 0-.212-.222ZM8.932 22.92c-.502-.105-.906-.436-1.339-.693-.295-.184-.583-.384-.906-.517a.218.218 0 0 0-.286.108c-.048.106 0 .243.108.288.803.34 1.44 1.028 2.302 1.23.274.075.393-.33.122-.418v.003ZM5.769 21.193a.22.22 0 0 0-.221.213.22.22 0 0 0 .212.222.22.22 0 0 0 .221-.213.22.22 0 0 0-.212-.222ZM25.552 18.945c.005.212-.01.424-.045.633a.219.219 0 0 0 .18.248c.357.043.274-.58.299-.812.026-.854.02-1.727-.254-2.545-.063-.239-.19-.784-.529-.545a.22.22 0 0 0-.007.307c.03.038.038.089.054.132.296.828.34 1.71.302 2.582ZM25.66 20.164a.22.22 0 0 0-.22.213.22.22 0 0 0 .212.222.22.22 0 0 0 .221-.213.22.22 0 0 0-.212-.222ZM15.745 16.43c-.174-.023-.242.12-.271.265-.076.201-.159.413-.212.638-.022.242-.304.836.052.909.112.017.237-.063.248-.182.021-.21.074-.417.12-.622.046-.192.119-.384.196-.589.081-.15.07-.385-.133-.42v.002ZM15.226 19.125a.22.22 0 0 0 .22-.213.22.22 0 0 0-.212-.222.22.22 0 0 0-.22.213.22.22 0 0 0 .212.222ZM29.255 23.274a.22.22 0 0 0-.25.224c-.054.19-.143.369-.212.554-.109.28-.245.545-.401.8-.087.194-.39.46-.136.643.1.062.235.03.298-.07.366-.592.714-1.223.881-1.902a.219.219 0 0 0-.18-.249ZM29.533 22.49c-.22-.213-.52.117-.294.322.224.26.558-.106.294-.322ZM32.849 17.673c.021.12.053.284.079.43.004.03.026.12.012.172a.22.22 0 0 0 .18.25c.308.028.275-.355.223-.558-.083-.377-.102-.768-.239-1.13-.039-.113-.174-.166-.28-.124-.162.062-.154.244-.09.377.064.19.08.388.116.583h-.001ZM33.138 19.075a.22.22 0 0 0-.221.213.22.22 0 0 0 .212.222.22.22 0 0 0 .221-.213.22.22 0 0 0-.212-.222ZM35.483 19.838c-.16.12-.035.336-.085.51.017.209-.213.69.12.757a.22.22 0 0 0 .247-.182c.03-.212.056-.424.073-.637.01-.134.032-.285-.051-.402a.217.217 0 0 0-.302-.047h-.002ZM35.391 21.427a.22.22 0 0 0-.22.213.22.22 0 0 0 .212.222.22.22 0 0 0 .22-.213.22.22 0 0 0-.212-.222ZM39.7 26.444c.676.044 1.318-.298 1.807-.744.225-.207.44-.423.626-.667.13-.128.242-.323.05-.454-.2-.12-.32.108-.433.235-.425.514-.953 1.009-1.617 1.168-.138.01-.278.035-.418.026-.284-.006-.3.414-.016.435l.001.001ZM38.648 26.161c.152.282.627-.03.443-.284-.161-.23-.574.043-.443.284ZM38.517 29.197c-.273.073-.57.047-.85.03-.21-.006-.563-.188-.633.118a.22.22 0 0 0 .178.25c.278.06.562.084.844.082.222-.012.462.004.663-.097.248-.141.05-.512-.204-.384l.002.001ZM36.356 28.961a.22.22 0 0 0-.225.21c-.004.115.091.225.21.225a.22.22 0 0 0 .224-.21c.004-.115-.091-.225-.21-.225ZM34.346 31.793a.22.22 0 0 0-.224.21c-.005.115.09.225.209.225a.22.22 0 0 0 .224-.21c.004-.115-.091-.225-.21-.225ZM23.24 37.807c.472.442.914.92 1.298 1.447.336.464.666.938.853 1.487.037.112.173.166.28.124.42-.141-.327-1.16-.462-1.41a10.515 10.515 0 0 0-1.895-2.161c-.18-.157-.458.056-.342.27.072.098.185.151.268.243ZM25.796 41.822c.306.07.386-.384.075-.43-.307-.07-.385.384-.075.43ZM13.736 40.462c-.21.167-.309.438-.412.679-.137.337-.228.69-.303 1.045-.092.401-.164.812-.048 1.215.052.282.467.212.428-.068-.022-.144-.068-.284-.06-.431.104-.707.235-1.505.662-2.1l-.015.013-.021.016c.237-.16.013-.516-.23-.37h-.001ZM13.264 43.961c-.118 0-.214.108-.21.224a.22.22 0 0 0 .223.211c.118 0 .213-.107.21-.224a.22.22 0 0 0-.223-.21ZM59.442 10.852a.22.22 0 0 0 .146-.27c-.082-.255-.14-.52-.284-.75-.249-.436-.549-.849-.918-1.19-.183-.178-.374-.4-.64-.435-.283-.023-.323.398-.042.433.229.117.392.339.581.51.4.45.75.963.888 1.555a.22.22 0 0 0 .27.147ZM59.37 11.267a.22.22 0 0 0 .223.21c.118 0 .213-.107.21-.223a.22.22 0 0 0-.223-.211c-.118 0-.214.107-.21.224ZM51.923 13.299c-.059-.148-.237-.243-.372-.13-.098.08-.1.224-.02.318.056.12.096.245.16.36.187.322.37.658.656.903.211.19.5-.127.294-.321-.334-.307-.544-.71-.718-1.13ZM53.003 14.88c-.118 0-.214.108-.21.224a.22.22 0 0 0 .223.212c.118 0 .213-.108.21-.225a.22.22 0 0 0-.223-.21ZM57.416 22.472c-.015.162-.02.388.192.407.114.01.23-.08.234-.198.015-.35-.002-.7-.015-1.048-.026-.724-.009-1.446-.009-2.17.018-.259-.277-.426-.432-.183a.222.222 0 0 0 0 .199c.008.412-.01.825-.012 1.238.008.585.035 1.17.042 1.754v.001ZM57.644 23.604c-.118 0-.212.114-.205.228.007.123.11.206.227.206.119 0 .212-.114.205-.229-.006-.123-.11-.205-.227-.205ZM54.993 39.722a.22.22 0 0 0 .204-.229c.002-.342-.01-.687-.014-1.03 0-.454-.01-.91-.018-1.365a.218.218 0 0 0-.227-.206.218.218 0 0 0-.205.229c.01.206.004.412.01.618.015.592.015 1.184.022 1.777a.218.218 0 0 0 .228.206ZM55.022 40.146c-.118 0-.211.114-.205.229.007.123.11.205.228.205.118 0 .211-.114.204-.228-.006-.123-.109-.206-.227-.206ZM57.594 49.535c-.118 0-.211.115-.205.229.007.123.11.205.228.205.118 0 .21-.114.204-.228-.006-.123-.109-.206-.227-.206ZM57.479 60.727c.025.286.443.26.433-.022-.024-.588.002-1.182-.045-1.772-.022-.355-.027-.71-.047-1.063a.218.218 0 0 0-.227-.205.22.22 0 0 0-.206.228c.02.35.025.7.047 1.05.047.597.018 1.188.045 1.786v-.002ZM57.657 61.288c-.118 0-.211.114-.205.229.007.123.11.205.227.205.119 0 .212-.114.205-.228-.006-.123-.11-.206-.227-.206ZM58.424 67.98c-.162.029-.268.173-.414.242-.258.13-.54.209-.815.296-.18.049-.197.322-.031.4.169.07.343-.06.508-.095.245-.078.98-.344.978-.636a.217.217 0 0 0-.227-.206v-.002ZM56.345 68.535c-.118 0-.212.115-.205.229.007.123.11.205.227.205.119 0 .212-.114.205-.228-.006-.123-.11-.206-.227-.206ZM46.66 55.646c-.177-.004-.353.002-.53-.008-.517-.027-1.035-.01-1.553.001-.16-.003-.379.01-.385.223-.004.169.167.251.316.213.19 0 .38-.006.568-.016.526-.015 1.052.024 1.578.022.285-.004.29-.425.005-.435ZM47.482 55.706a.22.22 0 0 0-.22.215.219.219 0 0 0 .213.22.22.22 0 0 0 .22-.214.219.219 0 0 0-.213-.22ZM51.174 63.133a2.1 2.1 0 0 0-.494-.75c-.133-.153-.437-.165-.471.077a.22.22 0 0 0 .173.24c.413.373.514.955.493 1.49-.03.138.031.29.183.31.28.023.263-.318.248-.513-.012-.287-.037-.58-.133-.853ZM50.949 64.71a.218.218 0 0 0-.215.22.22.22 0 0 0 .219.214.219.219 0 0 0 .214-.22.22.22 0 0 0-.218-.215ZM44.414 66.56c.013-.19-.052-.482-.3-.418-.126.036-.183.173-.142.294.023.18-.013.363.01.544.066.442.058.888.1 1.334.016.188.284.252.388.1.07-.094.031-.214.026-.32-.002-.514-.099-1.02-.082-1.532v-.001ZM44.28 68.645a.219.219 0 0 0-.215.22.22.22 0 0 0 .219.215.219.219 0 0 0 .214-.22.22.22 0 0 0-.219-.215Z"/></g><defs><clipPath id="a"><path fill="#fff" d="M0 0h61v72H0z"/></clipPath></defs></svg>