<svg xmlns="http://www.w3.org/2000/svg" width="72" height="68" fill="none"><g clip-path="url(#a)"><path fill="#FFCD85" d="M25.556 23.992c.017-1.031.078-2.06.333-3.066-.467.17-1.007.174-1.414.474-.607.975.249 1.804.929 2.444.056.045.106.096.151.15l.001-.002Z"/><path fill="#FFEED6" d="M21.772 33.167c-.17.092-.322.225-.431.38-.233.402-.587.747-1.065.83-.187.031-.373-.014-.558.008-.45.09-.722.526-.892.915-.177.477-.047 1.007-.161 1.498a1.95 1.95 0 0 1-.414.74c-.069.06-.183.146-.313.224.737.233 1.598-.145 2.138-.652.402-.55.797-1.105 1.083-1.726.253-.648.614-1.241 1.019-1.806a6.13 6.13 0 0 1 .456-.577l-.046-.01c-.29-.109-.584.016-.816.176ZM19.57 21.689c.285.268.582.535.837.837.14.152.262.329.277.54.033.307-.189.555-.298.825-.237.51-.182 1.071.39 1.312.255.114.537.069.804.065.25-.008.498-.036.747-.061.349-.055.707-.119 1.052-.038-.718-1.153-1.023-2.481-1.839-3.582-.346-.458-.834-.811-1.324-1.108-.007-.005-.014-.007-.023-.012a.01.01 0 0 1-.002.005c-.336.285-.758.744-.622 1.218l.001-.002ZM25.722 20.157c.128.026.26.026.39.043.18-.46.444-.884.691-1.31.155-.276.319-.549.495-.81l-.018.003c-.234.035-.461.104-.695.135-.568.064-1.138-.028-1.701-.086-.54-.017-.797-.037-.942.36a.24.24 0 0 1 .007.073l-.001-.025v.031c.009.4.21.806.49 1.09.37.263.848.382 1.285.495h-.001Z"/><path fill="#FFEED6" d="M23.945 18.602c0-.01.001-.02.003-.029v-.003c0 .01 0 .02-.003.032Z"/><path fill="#FFCD85" d="M24.233 26.316c-.042-.057-.09-.12-.12-.185a4.29 4.29 0 0 1-.1-.103.222.222 0 0 1-.147-.063c-.334-.389-.83-.414-1.298-.33-.463.081-.935.093-1.403.11-.669.008-1.335-.502-1.383-1.184-.043-.512.246-.951.431-1.402.009-.248-.264-.413-.402-.596-.23-.296-.667-.468-.724-.866-.087-.537.23-1.063.625-1.421-.58-.13-1.09.126-1.52.663-.246.25-.383.566-.442.907-.287 1.025.021 2.05.234 3.058.036.239.08.475.127.709.037.036.07.08.095.13.133.167.33.262.513.37.338.176.688.329 1.052.442.242.056.49.082.728.161.34.119.654.305.976.464 1.171.542 1.184 1.816.264 2.612-.254.272-.564.48-.894.648-.582.398-1.16.803-1.742 1.2-.376.314-.7.52-.988.926-.115.131-.187.416-.32.554l-.009.024c-.078.333-.18.66-.303.98-.162.48-.346.96-.357 1.473-.084.727-.21 1.37.316 1.868.192-.033.362-.164.506-.285.095-.127.166-.274.24-.414.123-.493.01-1.021.154-1.511.245-.758.916-1.49 1.785-1.332.517-.028.708-.528 1.008-.86.288-.264.648-.492 1.036-.574.28-.032.555.046.816.139a.305.305 0 0 1 .02.007c.076-.066.156-.127.24-.185.057-.082.138-.158.193-.226.291-.346.54-.726.779-1.11.715-1.475.795-3.335.014-4.8v.002Z"/><path fill="#FFEED6" d="M32.769 43.435c-.206-.041-.41-.087-.615-.137a6.135 6.135 0 0 1-1.345-.433h-.002a.244.244 0 0 1-.112.01c-.268-.017-.535.033-.795.096a.202.202 0 0 1-.041.068c-.37.32-.725.837-.451 1.32.112.183.238.331.442.402a.28.28 0 0 1 .054.038c.124.009.248.012.372.013.456.007.87-.211 1.177-.533.413-.32.826-.656 1.317-.844h-.002Z"/><path fill="#FFCD85" d="M29.985 42.475c-.14-.07-.279-.141-.419-.21a15.505 15.505 0 0 1-1.679-.986c-.1.004-.197-.019-.297-.038a.251.251 0 0 1-.083.066c-.753.317-.916 1.28-.351 1.851.094.011.155.06.185.123.112.035.223.06.331.074.408-.003.759-.227 1.106-.413.37-.229.78-.387 1.21-.465h-.001l-.002-.002Z"/><path fill="#FFEED6" d="M34.13 23.553c-1.38 3.778 1.21 8.46 5.517 8.222h.006c4.124-.308 6.242-5 4.715-8.55-2.086-4.911-8.451-4.654-10.237.328Zm5.774 4.668c-1.65-.934-1.806-3.509-.514-4.803 1.494-1.426 3.374-.147 3.628 1.628.37 1.793-1.101 4.147-3.114 3.174v.001ZM27.199 40.76a7.534 7.534 0 0 1-.662-.62c-.136-.15-.27-.303-.396-.46v-.001a.23.23 0 0 1-.106-.065l-.146-.063a.275.275 0 0 1-.061-.016c-.278.047-.571.17-.703.432-.11.226-.24.507-.075.739.005.008.007.016.012.025a1.479 1.479 0 0 0 1.558.152 2.37 2.37 0 0 1 .581-.121l-.002-.003ZM18.218 31.667l-.02.1c.049-.036.1-.07.15-.106.242-.202.474-.417.746-.58.67-.475 1.353-.932 2.046-1.371.467-.372.978-.95.719-1.582-.201-.37-.608-.537-.968-.719-.211-.104-.42-.217-.646-.283-.232-.055-.474-.075-.702-.152a7.852 7.852 0 0 1-.675-.27 5.282 5.282 0 0 1-.594-.312c.113.54.22 1.078.266 1.635.055.72.056 1.449-.005 2.17-.051.501-.207.982-.317 1.472v-.002ZM38.76 44.356a11.745 11.745 0 0 1-1.568-.1h-.001c-.009.004-.016.01-.024.014-.143.066-.316.054-.466.106a4.473 4.473 0 0 0-1.052.528c-.336.393-.217 1.043.209 1.32.054.042.122.06.182.086.783-.222 1.472-.657 2.078-1.192.347-.269.71-.536 1.097-.76h-.001a9.787 9.787 0 0 1-.453-.002h-.002Z"/><path fill="#FFCD85" d="M36.155 44.088a29.807 29.807 0 0 1-.707-.146c-.52-.112-1.044-.204-1.569-.297h-.003a.193.193 0 0 1-.085.037 3.034 3.034 0 0 0-.751.152.302.302 0 0 1-.098.09c-.39.304-.533.877-.352 1.333.084.178.196.38.385.462a.263.263 0 0 1 .101.07c.55.012.902-.237 1.437-.667.546-.382 1.054-.767 1.645-1.033h-.003v-.001Z"/><path fill="#FFEED6" d="M51.904 19.881a5.12 5.12 0 0 0-1.726-.514h-.002c-.011.003-.023.006-.035.007-.562.056-1.041.418-1.369.856-.18.286-.367.606-.38.95a.281.281 0 0 1 .001.168v.002c.211 1.047.262 2.117.465 3.165.443 1.686 1.247 3.254 2.267 4.666.078.038.145.107.218.153.402.244.812.39 1.276.436.343.005.694-.056 1-.208.326-.376.603-.79.826-1.23 1.525-2.908.47-6.959-2.543-8.448l.002-.003Zm2.158 5.176c-.01 1.085-.855 2.94-2.183 2.092-1.05-.848-1.115-2.63-.663-3.807.383-1.068 1.52-1.611 2.29-.55.466.653.599 1.485.556 2.265ZM32.348 11.903l.006.021c.389.44.838.855 1.347 1.143.393.265.829.46 1.302.53.063.017.122.002.187.003.01 0 .019.004.028.006h.002c.73-.118 1.465-.214 2.207-.1.137.016.275.035.41.054l-.195-.178a3.145 3.145 0 0 1-.536-.491c-.467-.55-.848-1.16-1.252-1.754-.393-.543-.738-1.17-1.298-1.555-.491-.31-1.083-.387-1.642-.28-.012.004-.023.009-.038.01-.053.037-.108.075-.151.123-.311.352-.59.805-.632 1.277 0 .247-.008.488.072.714.05.17.123.318.184.477Z"/><path fill="#FFCD85" d="M29.485 12.86c.58.506 1.188 1.03 1.916 1.273.175.05.35.116.53.14a.202.202 0 0 1 .126.019h.001c.65-.21 1.314-.384 1.988-.5h.001c-.44-.201-.846-.482-1.235-.765a11.652 11.652 0 0 1-1.6-1.727c-.308-.513-.882-.63-1.433-.547-.062.04-.136.066-.183.133-.414.502-.532 1.292-.166 1.847a.245.245 0 0 1 .056.129v-.002Z"/><path fill="#FFEED6" d="M12.519 3.447c.608.294 1.283.442 1.938.6 1.022.224 2.056.39 3.093.53 3.895.504 7.82.727 11.744.861 6.21.19 12.454.133 18.652-.267 3.576-.291 7.272-.486 10.71-1.5.306-.116 1.34-.455 1.03-.802l-.046-.04a.232.232 0 0 1-.105-.083c-.254-.185-.564-.29-.858-.4a15.344 15.344 0 0 0-1.854-.478C52.117.984 47.316.764 42.548.575 36.295.379 30.03.435 23.788.839c-1.916.129-3.83.293-5.735.531-1.502.201-2.983.397-4.425.801-.06.039-.14.054-.213.071-.357.126-.73.253-1.031.485-.233.158-.234.338-.053.542.06.06.12.122.185.182l.003-.004Z"/><path fill="#FFEED6" d="M63.016 6.074c-1.467-1.301-3.44-1.816-5.383-1.622-.018 0-.033 0-.048-.004a31.97 31.97 0 0 1-2.565.475c-7.69 1.047-15.483 1.15-23.233 1.044-3.959-.082-7.917-.256-11.857-.649-1.904-.203-3.82-.415-5.689-.847a.742.742 0 0 1-.22.008c-.689 0-1.38.07-2.063.15-1.001.194-1.949.667-2.73 1.299-.11.094-.218.19-.323.29a32.348 32.348 0 0 0-3.249 4.016C1.972 15.592.11 22.15.562 28.607c.728 11.375 8.244 20.843 18.206 25.82a36.163 36.163 0 0 0 6.91 2.612c7.58 2.06 15.79 1.79 23.196-.77a.247.247 0 0 1 .084-.03 36.78 36.78 0 0 0 6.392-2.928c17.117-9.849 21.833-31.225 8.548-46.287a35.477 35.477 0 0 0-.881-.95h-.001ZM2.218 21.368c-.128 0-.229-.121-.224-.243.006-.13.117-.223.245-.223s.23.121.225.243c-.006.13-.118.223-.246.223Zm1.503-5.007c-.307.795-.63 1.584-.832 2.415-.098.397-.184.797-.261 1.198a.237.237 0 0 1-.272.188.235.235 0 0 1-.19-.271c.16-.846.362-1.687.653-2.497.158-.369.275-.754.438-1.12a.235.235 0 0 1 .21-.195.24.24 0 0 1 .254.282Zm22.125-5.41c.205-.11.416-.21.636-.289.247-.108.533-.079.777-.182.269-.183.417-.475.628-.71.165-.183.38-.307.593-.428a2.596 2.596 0 0 1 1.591-.26.233.233 0 0 1 .232.399c-.163.124-.375.042-.562.037a2.213 2.213 0 0 0-.954.19c-.194.106-.431.23-.572.396-.254.32-.484.716-.894.854-.242.064-.495.063-.73.159a4.525 4.525 0 0 0-.428.193c-.124.09-.31.112-.399-.038a.234.234 0 0 1 .082-.319v-.002Zm-.814.793c.128 0 .237.101.239.229a.235.235 0 0 1-.47.007.235.235 0 0 1 .232-.236ZM16.84 24.836a.7.7 0 0 1 .18.338c.27 1.014.468 2.06.435 3.114a.238.238 0 0 1-.245.223c-.336-.037-.192-.448-.225-.675a10.058 10.058 0 0 0-.463-2.66c-.201-.207.096-.526.318-.34Zm.488 4.319c-.005.13-.117.222-.245.222s-.23-.12-.224-.243c.005-.13.117-.222.245-.222s.229.12.224.243Zm6.077 17.461c-1.04.26-2.07.558-3.081.907-.677.234-1.345.49-2.002.769a.238.238 0 0 1-.308-.125.234.234 0 0 1 .126-.304 31.745 31.745 0 0 1 2.516-.943 38.176 38.176 0 0 1 2.625-.754c.297-.072.421.36.125.449l-.001.001Zm2.347-.516a.236.236 0 0 1-.235-.233c0-.127.107-.232.235-.232s.235.105.235.232a.236.236 0 0 1-.235.233Zm9.272 11.866a.236.236 0 0 1-.237-.23.236.236 0 0 1 .233-.235c.127 0 .235.102.237.23a.236.236 0 0 1-.233.235Zm5.039-.432c-.053.192-.277.212-.445.235-.347.057-.698.08-1.046.125-.34.026-.67.138-1.014.126-.422-.009-.845.036-1.268 0-.216-.033-.61.021-.587-.297a.238.238 0 0 1 .262-.203c.593.08 1.19.034 1.785.03.321-.046.64-.117.967-.141.331-.036.664-.062.991-.127.165-.122.418.056.355.252Zm8.884-10.418a.236.236 0 0 1-.235-.232c0-.127.107-.233.235-.233s.235.106.235.233a.236.236 0 0 1-.235.232Zm5.543 2.31a25.643 25.643 0 0 0-3.543-1.625c-.18-.05-.377-.148-.294-.367a.24.24 0 0 1 .308-.125 26.498 26.498 0 0 1 3.766 1.715c.262.159.033.548-.237.4v.002Zm.77-21.828a6.648 6.648 0 0 1-1.29 2.274v.003l-.008.01a.183.183 0 0 1-.024.027l-.006.007a6.09 6.09 0 0 1-1.1.978c-.09.069-.2.146-.303.155.459.82.684 1.769.724 2.697-.019.432-.007.87-.076 1.3a5.492 5.492 0 0 1-.718 1.707c-.514.842-1.13 1.573-2.126 1.845-.017.457-.067.92-.19 1.362-.268.729-.779 1.366-1.374 1.863-.652.54-1.463.848-2.2 1.256-1.087.5-2.298.652-3.447.942-.764.13-1.571.16-2.325.225h-.001c-.14.077-.319.062-.469.117-1.166.378-2.009 1.287-3.015 1.926-.417.243-.887.387-1.347.526-.252.07-.52.124-.78.067l.01.002-.014-.003h.004c-.324-.088-.642-.22-.89-.45-.09-.1-.242-.24-.308-.383-.29.15-.606.24-.984.195-.704-.03-1.431-.35-1.847-.928a.213.213 0 0 1-.011-.246c-.359.175-.8.268-1.444.181-.651-.051-1.365-.327-1.652-.95-.058-.135-.151-.349-.113-.501-.236.043-.479.032-.733-.068-.923-.32-1.846-1.13-1.742-2.178a.24.24 0 0 1 .032-.106 1.56 1.56 0 0 1-.126-.04c-1.15-.354-1.438-1.504-1.302-2.572a.231.231 0 0 1 .083-.167 1.642 1.642 0 0 1-.344-.495c-.44-1.006.15-2.014.393-2.983.027-.099.043-.199.052-.3a5.134 5.134 0 0 1-.035-.658 6.599 6.599 0 0 1 .182-1.584 1.855 1.855 0 0 0-.889.187c-.085.068-.162.133-.24.198a.21.21 0 0 1-.064.067c-.013.007-.025.014-.037.019a8.71 8.71 0 0 0-.047.04c-.502.54-.904 1.172-1.266 1.81-.15.357-.306.712-.496 1.052-.189.373-.425.718-.684 1.046-.119.19-.24.382-.423.517-.545.452-1.261.742-1.978.711-.745-.008-1.45-.575-1.643-1.284-.086-.358-.042-.735-.017-1.099.05-.33.05-.666.123-.993.112-.422.263-.834.41-1.245.197-.733.47-1.433.628-2.17.445-1.488.424-3.105.122-4.613-.16-.698-.297-1.455-.422-2.144-.23-.958-.457-1.944-.2-2.918.088-.736.592-1.341 1.18-1.767.64-.444 1.465-.324 2.099.069.392.243.752.543 1.09.856.41.424.68.96.968 1.469.42.95.788 1.935 1.373 2.803.336.471.771.897 1.303 1.141.079.034.155.082.24.093.02-.548.02-1.099.02-1.649v-.002c-.139-.152-.181-.393-.343-.535-.666-.658-1.577-1.436-1.381-2.47.047-.36.169-.6.338-.767-.278-.276-.517-.6-.62-.981a1.845 1.845 0 0 1-.177-.912c0-.521.115-1.178.63-1.434l.063-.015c-.163-.555-.262-1.16-.063-1.718.179-.68.532-1.342 1.164-1.702.08-.041.16-.07.24-.089a1.15 1.15 0 0 1 .002-.192 1.454 1.454 0 0 1 .09-.547c.366-.862.663-1.462 1.636-1.703.247-.083.482-.084.705-.034.009-.022.02-.044.027-.066.114-.445.517-.728.845-1.021.579-.367 1.377-.518 2.042-.294l.061-.08c.112-.194.25-.37.395-.541a2.964 2.964 0 0 1 1.595-.892c.568-.117 1.165-.071 1.69.179.038.014.073.032.11.048.017-.017.036-.033.052-.05.197-.205.431-.383.678-.526 1.166-.654 2.77-.723 3.796.225.73.775 1.042 1.816 1.548 2.729.26.5.459 1.043.727 1.535.29.484.57.984.937 1.416.147.152.296.302.454.441.02.019.04.037.059.058h.001c.342.144.676.306 1 .489 1.135.526 2.088 1.365 2.908 2.294.417.45.795.941 1.052 1.498a.24.24 0 0 1 .1-.06 5.59 5.59 0 0 1 1.94-.25c4.282.209 6.728 4.91 5.408 8.722l.005-.002Zm1.364-4.192a5.535 5.535 0 0 0-1.692-2.799c-.138-.114-.344-.228-.22-.435a.239.239 0 0 1 .325-.073c.757.575 1.331 1.38 1.724 2.237.137.312.224.641.323.967.036.122-.058.251-.177.279-.125.03-.245-.051-.28-.175h-.003Zm.316 1.52c-.128 0-.23-.122-.224-.244.006-.13.117-.222.245-.222s.23.12.225.243c-.006.13-.118.222-.246.222ZM70.24 31.03c.051-.218.104-.435.148-.654.207-1.177.225-2.397.075-3.58-.024-.286.404-.332.456-.091.106.473.087 1.02.098 1.487.023.677-.018 1.355-.126 2.024-.047.303-.122.6-.19.9a.239.239 0 0 1-.275.186c-.122-.023-.217-.148-.186-.272Zm-.214.808c.102-.068.26-.045.325.064.17.181.012.481-.237.405-.18-.068-.272-.352-.088-.469Z"/><path fill="#FFCD85" d="M50.956 56.928a8.872 8.872 0 0 0-1.758-.224c-.065-.012-.133.002-.198.006-6.801 2.34-14.287 2.814-21.32 1.292a37.365 37.365 0 0 1-9.135-3.148c-.096-.021-.193-.059-.289-.069a5.572 5.572 0 0 0-1.747.04c-.976.159-1.959.408-2.763.996-.922.733-1.728 1.784-1.795 2.98-.06.636.195 1.222.443 1.787 2.805 2.968 6.817 4.449 10.688 5.495.635.163 1.267.31 1.899.441.048.006.097.018.143.03a37.246 37.246 0 0 0 .626.123l.283.052c.567.103 1.137.196 1.707.279l.286.04.253.036.254.033a53.473 53.473 0 0 0 14.596-.164c3.18-.484 7.593-1.538 11.121-3.451.035-.135.118-.28.148-.39.056-.323.182-.634.194-.964a6.514 6.514 0 0 1 .01-.623c.03-.929-.23-1.83-.775-2.59-.667-1.009-1.672-1.77-2.87-2.007Zm-36.3-.372a.237.237 0 0 1-.232-.236.237.237 0 0 1 .239-.229c.127 0 .232.112.231.236a.237.237 0 0 1-.238.23Zm3.798-.75c-.18.04-.359-.035-.54-.04-.507-.027-1.026-.027-1.52.085.004 0 .009 0 .014-.002-.239.05-.476.113-.71.178-.175.066-.433.195-.537-.043-.047-.114.008-.26.128-.303.316-.127.669-.208.997-.282a5.666 5.666 0 0 1 2.052-.044c.299-.066.412.369.116.451Zm8.42 10.402a.237.237 0 0 1-.232-.236.237.237 0 0 1 .239-.23c.127 0 .232.112.231.237a.237.237 0 0 1-.238.229Zm2.401.512c-.47-.103-.947-.15-1.415-.256-.124-.03-.195-.17-.16-.289.049-.174.24-.19.388-.137.464.087.931.151 1.394.245a.237.237 0 0 1 .325.186c.021.283-.324.32-.53.25h-.002Zm18.291-1.384a.237.237 0 0 1-.231-.236.237.237 0 0 1 .238-.23c.127 0 .233.112.232.236a.237.237 0 0 1-.239.23Zm4.51-1.491c-.872.354-1.733.767-2.64 1.014-.22.06-.445.103-.666.166a.237.237 0 0 1-.287-.166.235.235 0 0 1 .168-.284c.315-.086.637-.145.946-.25.8-.24 1.546-.61 2.319-.919.06-.11.217-.138.32-.077.24.15.057.45-.16.517v-.001ZM36.107 10.676c.167.247.331.495.499.74.416.623.837 1.258 1.451 1.707.228.216.46.43.742.576a.221.221 0 0 1 .104.05 29.605 29.605 0 0 1 2.939.78c-.59-.728-1.012-1.594-1.383-2.447-.224-.496-.508-.964-.723-1.465-.261-.577-.547-1.178-1.012-1.622-.493-.405-1.112-.552-1.728-.512-.035.013-.074.019-.119.013-.146.006-.257.12-.367.2-.295.228-.44.578-.512.927-.054.338.016.708.103 1.034.004.007.005.015.007.022l-.001-.003ZM25.729 17.45l-.024-.016c.161.138.336.25.527.342.08 0 .162-.004.241-.014.395-.072.787-.15 1.184-.208.014-.008.03-.014.045-.02.069-.084.14-.167.214-.247.41-.448.842-.883 1.304-1.285-.248-.009-.496-.017-.741-.047-.478-.06-.883-.331-1.305-.54-.406-.184-.76-.453-1.153-.661-.534-.298-.96.162-1.25.566a9.047 9.047 0 0 0-.1.21 2.385 2.385 0 0 0 1.056 1.92h.002ZM25.607 38.949a6.415 6.415 0 0 1-.877-1.945c-.093-.348-.192-.695-.277-1.047a.276.276 0 0 1-.012.028c-.516 1.377-.56 2.4 1.045 2.92.04.017.08.03.122.046l-.001-.002Z"/><path fill="#FFEED6" d="M27.48 14.949a.52.52 0 0 1 .133.17c.13.065.258.131.384.201.5.26 1.076.197 1.619.235a.3.3 0 0 1 .193-.033c.466-.354.96-.67 1.488-.925l.004-.002c-1.246-.409-2.117-1.478-3.155-2.23-.286-.203-.623-.208-.944-.122-.03.052-.085.078-.132.115-.201.284-.358.649-.34 1 .004.374.141.72.34 1.034.113.204.237.4.41.56v-.003Z"/><path fill="#FFCD85" d="M51.19 30.048c-.311-.407-.57-.812-.875-1.21-.832-1.231-1.447-2.618-1.87-4.04-.23-.937-.256-1.908-.42-2.857-.248-1.155-.362-2.378-1.107-3.34-.722-.908-1.55-1.75-2.53-2.387-.482-.287-.991-.526-1.49-.786-1.01-.437-2.074-.734-3.14-1.01-.943-.213-1.895-.428-2.864-.49-.68-.05-1.343.112-2.008.21a12.42 12.42 0 0 0-2.112.428c-.736.185-1.445.464-2.063.91a9.834 9.834 0 0 0-2.004 1.666c-.648.612-1.155 1.34-1.577 2.118a5.817 5.817 0 0 0-.896 2.339c-.307 1.477-.185 2.987-.216 4.483-.046 1.587-.241 3.173-.673 4.703-.283 1.023-.581 2.06-.654 3.122-.064 1.249.326 2.448.696 3.622.536 1.32 1.49 2.458 2.65 3.293a18.246 18.246 0 0 0 3.542 1.852c1.167.34 2.377.486 3.564.738.562.102 1.14.227 1.697.336 1.021.146 2.063.184 3.092.114.248-.024.497-.045.745-.065 1.175-.094 2.353-.165 3.487-.49.868-.186 1.747-.38 2.53-.81.108-.062.218-.121.329-.18a.26.26 0 0 1 .105-.068l.012-.003c.291-.271.451-.639.463-1.033.05-.328-.01-.68-.162-.971-.218-.365-.494-.703-.874-.884-.114-.049-.28-.076-.376-.142a38.127 38.127 0 0 1-.969-.1c-.405-.045-.78-.208-1.178-.287-.4-.051-.759-.241-1.148-.334-.402-.14-.82-.23-1.231-.345-.27-.076-.537-.202-.81-.258-.308-.046-.254-.49.051-.461.378.064.72.243 1.09.329.677.15 1.327.393 1.989.588.407.052.788.223 1.192.291.593.083 1.194.122 1.79.171.375.002.748-.02 1.122-.034.454-.052.896-.19 1.33-.331.533-.235 1.131-.343 1.604-.697.47-.317.755-.837 1.068-1.287.197-.33.372-.675.487-1.041.13-.348.185-.71.182-1.08.076-.826-.088-1.645-.343-2.43-.255-.712-.753-1.286-1.23-1.86l.003-.002Zm-24.86-.813c-.18-.28.25-.527.406-.232.18.278-.249.528-.406.232Zm.673-1.713c-.066.255.084.841-.306.838a.234.234 0 0 1-.212-.254c.032-.404.075-.808.099-1.213.01-.654-.025-1.306-.059-1.959-.059-.112.001-.257.113-.309.298-.114.386.24.363.463.04.81.1 1.625.002 2.433v.001Zm1.119 12.151a.234.234 0 0 1-.227-.24.237.237 0 0 1 .243-.225c.128 0 .232.116.227.24a.237.237 0 0 1-.243.225Zm2.584 1.941c-.322-.162-2.5-1.075-2.096-1.507.205-.23.417.057.58.165.262.195.551.362.841.51.326.153.649.317.982.45a.238.238 0 0 1 .265.24c-.023.296-.381.243-.572.142Zm2.009-18.907a.237.237 0 0 1-.241-.226.235.235 0 0 1 .229-.239c.128 0 .237.098.24.227a.235.235 0 0 1-.228.238Zm1.191-2.322c.383-.42.841-.768 1.35-1.021a.235.235 0 0 1 .263-.117c.253.07.21.385.01.496-.174.108-.362.188-.53.305-.544.39-.974.856-1.355 1.393-.112.174-.192.49-.467.356-.43-.245.54-1.173.728-1.412h.001Zm4.831 17.63a.234.234 0 0 1-.227-.24.237.237 0 0 1 .244-.224c.128 0 .23.116.226.24a.237.237 0 0 1-.243.225Zm3.54.81c.127-.006.23.119.226.24-.006.213-.252.269-.418.188-.633-.201-1.264-.406-1.9-.593-.215-.075-.42-.174-.627-.265-.14-.04-.224-.193-.162-.328a.239.239 0 0 1 .311-.115c.82.383 1.713.581 2.57.872Zm.075-7.466a5.647 5.647 0 0 1-5.188.465c-4.504-1.88-5.178-8.368-1.434-11.344 2.637-2.17 6.522-1.462 8.395 1.327 2.113 2.972 1.376 7.58-1.773 9.55v.002Zm6.814 6.154c-.197-.285.205-.565.388-.273.196.286-.205.564-.388.273Zm2.839-3.44c-.025 1.01-.238 2.102-1.075 2.768-.194.149-.48.555-.727.28-.137-.217.057-.328.2-.437.357-.296.735-.662.881-1.105.251-.766.3-1.567.223-2.362-.007-.108-.061-.196-.086-.299-.026-.195.234-.336.383-.2.09.072.116.189.142.296.074.346.067.707.059 1.06v-.002Z"/><path fill="#000" d="M35.731 20.481c-3.743 2.976-3.07 9.462 1.434 11.344a5.647 5.647 0 0 0 5.188-.465c3.149-1.971 3.888-6.579 1.773-9.55-1.873-2.79-5.758-3.498-8.395-1.327v-.002Zm3.922 11.295h-.006c-4.307.239-6.895-4.443-5.516-8.222 1.786-4.982 8.151-5.24 10.237-.328 1.527 3.55-.591 8.243-4.715 8.55ZM23.945 18.541l.001.025v.004V18.54Z"/><path fill="#000" d="M49.85 18.874a5.59 5.59 0 0 0-1.94.251.269.269 0 0 0-.1.06c-.258-.557-.635-1.048-1.052-1.498-.82-.93-1.773-1.768-2.908-2.295a9.653 9.653 0 0 0-1-.488.673.673 0 0 0-.06-.058 8.957 8.957 0 0 1-.454-.441c-.365-.433-.646-.933-.937-1.417-.268-.492-.467-1.034-.727-1.535-.506-.913-.817-1.954-1.547-2.728-1.027-.948-2.63-.88-3.797-.226-.246.143-.48.322-.677.527l-.053.05c-.036-.016-.072-.035-.11-.049-.524-.25-1.122-.295-1.689-.179a2.96 2.96 0 0 0-1.596.892 3.67 3.67 0 0 0-.394.542l-.061.08c-.666-.224-1.463-.072-2.042.293-.328.295-.732.576-.846 1.022-.008.023-.019.044-.027.066a1.297 1.297 0 0 0-.704.034c-.974.24-1.271.84-1.636 1.702-.068.176-.093.36-.09.548a1.15 1.15 0 0 0-.003.192c-.08.018-.159.048-.24.088-.631.36-.985 1.022-1.163 1.703-.201.556-.1 1.163.062 1.717l-.062.016c-.516.256-.632.914-.63 1.434a1.85 1.85 0 0 0 .177.911c.103.38.341.705.62.982-.17.167-.292.407-.339.767-.194 1.033.717 1.813 1.381 2.47.162.141.205.382.344.535v.002c0 .55 0 1.1-.02 1.649-.085-.012-.162-.06-.24-.093-.532-.244-.968-.67-1.304-1.141-.585-.87-.953-1.853-1.372-2.804-.288-.508-.56-1.044-.968-1.469a7.286 7.286 0 0 0-1.09-.856c-.635-.393-1.46-.513-2.1-.068-.587.426-1.091 1.03-1.18 1.766-.256.976-.029 1.962.2 2.918.126.69.262 1.447.423 2.145.303 1.508.323 3.125-.122 4.612-.159.737-.431 1.438-.628 2.17-.147.412-.299.824-.41 1.246-.073.327-.074.663-.123.993-.025.363-.07.74.016 1.099.193.708.898 1.275 1.644 1.284.716.03 1.431-.26 1.977-.712.183-.135.305-.327.423-.516.26-.328.496-.673.685-1.047.19-.338.345-.694.495-1.051.363-.639.765-1.269 1.266-1.81a8.71 8.71 0 0 1 .047-.04.21.21 0 0 0 .102-.086c.078-.066.153-.13.24-.198.273-.133.58-.202.889-.188a6.599 6.599 0 0 0-.182 1.584c-.004.221.01.441.035.659-.01.1-.027.2-.053.3-.243.969-.833 1.978-.392 2.983.088.196.207.357.344.494a.227.227 0 0 0-.084.168c-.136 1.066.153 2.217 1.303 2.571.043.016.084.03.125.04a.256.256 0 0 0-.031.107c-.105 1.049.818 1.858 1.741 2.178.255.1.498.11.734.067-.039.153.054.367.113.502.285.623 1 .899 1.652.95.643.087 1.084-.005 1.443-.182a.215.215 0 0 0 .012.247c.417.577 1.143.898 1.847.928.378.043.694-.046.984-.196.066.144.217.285.307.383.247.23.566.363.89.45.26.057.529.004.78-.066.46-.14.93-.285 1.347-.527 1.008-.638 1.85-1.548 3.016-1.926.15-.054.328-.04.468-.116h.001c.755-.065 1.563-.095 2.325-.226 1.15-.29 2.36-.44 3.447-.942.737-.407 1.548-.715 2.2-1.256.597-.496 1.108-1.133 1.375-1.863.121-.442.172-.905.19-1.362.995-.272 1.61-1.002 2.126-1.844a5.518 5.518 0 0 0 .717-1.708c.07-.429.057-.866.077-1.3-.04-.928-.267-1.877-.725-2.697.104-.01.214-.086.303-.154.406-.28.774-.61 1.1-.977l.006-.007a.256.256 0 0 0 .025-.028l.007-.008.001-.004a6.668 6.668 0 0 0 1.29-2.275c1.32-3.81-1.127-8.512-5.41-8.722l-.004.002ZM35.996 9.621c.073-.348.216-.698.512-.925.11-.082.223-.196.368-.201.045.005.083 0 .119-.013.617-.039 1.235.107 1.728.511.465.445.75 1.046 1.012 1.623.215.501.5.969.722 1.465.371.853.794 1.72 1.384 2.447a29.557 29.557 0 0 0-2.938-.78H38.9a.22.22 0 0 0-.103-.05c-.282-.147-.514-.36-.742-.576-.613-.449-1.036-1.084-1.451-1.707-.168-.246-.331-.493-.5-.74l-.006-.022c-.087-.326-.158-.695-.104-1.034l.002.002Zm-3.904 1.091c.041-.472.32-.924.632-1.277.043-.048.099-.086.151-.123.013-.001.025-.006.038-.01.559-.109 1.15-.032 1.642.28.56.385.906 1.012 1.298 1.555.404.594.785 1.205 1.252 1.754.155.188.343.344.535.492l.197.178c-.138-.02-.274-.039-.412-.055-.742-.114-1.474-.018-2.206.1h-.002a.217.217 0 0 0-.028-.006c-.065-.001-.124.014-.187-.003a3.176 3.176 0 0 1-1.302-.53c-.509-.288-.959-.702-1.347-1.143l-.006-.02c-.061-.16-.134-.309-.184-.478-.08-.228-.072-.468-.072-.714h.001Zm-2.499.172c.047-.066.121-.091.183-.132.551-.084 1.125.032 1.434.546a11.638 11.638 0 0 0 1.6 1.727c.388.285.796.566 1.235.766h-.001c-.674.116-1.338.29-1.988.5h-.002a.21.21 0 0 0-.125-.019c-.181-.023-.356-.088-.53-.14-.729-.242-1.337-.767-1.916-1.273a.245.245 0 0 0-.056-.129c-.367-.555-.248-1.344.165-1.847l.001.002Zm-2.523 1.472c.047-.038.1-.063.133-.115.32-.088.657-.08.942.122 1.038.752 1.91 1.822 3.156 2.23l-.004.001a8.826 8.826 0 0 0-1.488.926.31.31 0 0 0-.193.033c-.544-.039-1.12.025-1.619-.235-.126-.07-.254-.136-.384-.201a.518.518 0 0 0-.132-.17 2.195 2.195 0 0 1-.41-.56c-.198-.314-.336-.66-.34-1.034-.02-.35.138-.716.34-1l-.001.003Zm-2.298 2.964c.29-.403.716-.863 1.25-.566.391.208.747.477 1.154.662.421.208.826.481 1.304.54.247.03.493.037.741.046-.461.402-.895.837-1.303 1.285-.074.08-.146.163-.215.248a.308.308 0 0 0-.045.02c-.397.057-.789.135-1.184.207-.08.01-.16.013-.241.014a2.485 2.485 0 0 1-.527-.342l.024.016a2.386 2.386 0 0 1-1.056-1.922l.1-.209-.002.001Zm-.824 3.253-.003.03c.003-.013.001-.023.003-.034v-.004a.283.283 0 0 0-.008-.072c.146-.398.403-.378.942-.36.565.057 1.134.15 1.702.085.233-.032.461-.1.695-.135l.018-.003c-.177.262-.34.534-.495.81-.248.426-.51.85-.692 1.31-.129-.017-.261-.017-.39-.043-.436-.113-.914-.231-1.285-.494-.278-.285-.48-.691-.489-1.09h.002Zm1.457 5.27c-.68-.639-1.536-1.468-.93-2.443.407-.3.947-.303 1.415-.474-.255 1.007-.317 2.034-.333 3.067a1.22 1.22 0 0 0-.151-.15h-.001Zm-5.213-3.372s.003-.003.003-.005c.007.005.014.007.022.012.488.298.978.65 1.325 1.108.816 1.102 1.119 2.429 1.838 3.582-.344-.082-.703-.018-1.052.038-.247.025-.497.053-.747.061-.267.005-.55.049-.804-.065-.57-.24-.627-.802-.39-1.312.108-.27.33-.517.299-.824-.016-.212-.14-.389-.278-.541-.255-.302-.552-.569-.837-.837-.136-.474.287-.934.622-1.218v.001Zm1.987 13.107c-.405.566-.765 1.16-1.02 1.806-.284.621-.68 1.176-1.082 1.726-.541.506-1.4.885-2.138.652.13-.078.244-.165.313-.224a1.94 1.94 0 0 0 .414-.74c.114-.492-.015-1.02.16-1.498.17-.39.443-.824.893-.915.187-.022.372.022.558-.008.478-.083.832-.427 1.065-.83.11-.155.262-.288.43-.38.235-.16.53-.283.817-.175.015.002.03.006.046.01a6.1 6.1 0 0 0-.456.576Zm2.04-2.461a9.381 9.381 0 0 1-.778 1.11c-.055.067-.137.144-.193.225a2.985 2.985 0 0 0-.24.185l-.02-.007c-.26-.093-.537-.17-.816-.138-.387.081-.748.309-1.036.574-.3.33-.49.832-1.008.86-.87-.159-1.54.572-1.785 1.331-.146.49-.03 1.018-.154 1.511-.074.14-.144.288-.24.414-.144.122-.315.252-.506.285-.527-.499-.4-1.141-.316-1.868.011-.513.195-.993.358-1.473.123-.319.224-.647.302-.98l.009-.024c.134-.137.205-.422.32-.554.288-.405.612-.611.988-.926.583-.397 1.16-.8 1.742-1.2.331-.168.642-.375.894-.647.92-.797.908-2.07-.264-2.612-.322-.16-.636-.346-.976-.464-.237-.08-.486-.105-.728-.162a6.545 6.545 0 0 1-1.052-.442c-.182-.108-.38-.202-.513-.37a.517.517 0 0 0-.094-.13 15.33 15.33 0 0 1-.128-.708c-.213-1.008-.52-2.032-.234-3.059.058-.342.196-.657.443-.907.428-.536.94-.792 1.52-.663-.395.358-.712.884-.625 1.421.056.398.493.571.723.866.138.183.412.348.403.596-.187.45-.476.89-.431 1.403.047.681.714 1.193 1.382 1.183.468-.016.94-.027 1.403-.11.467-.084.964-.058 1.299.33.047.042.097.06.145.063l.101.104c.03.065.078.128.12.184.78 1.466.701 3.324-.014 4.801v-.002Zm-5.678-3.091a13.736 13.736 0 0 0-.266-1.635c.231.144.474.258.594.313.222.097.445.192.675.27.227.076.47.096.702.15.227.067.435.18.646.284.36.182.767.35.968.719.26.633-.252 1.21-.719 1.582a48.83 48.83 0 0 0-2.045 1.37c-.273.162-.505.379-.747.581-.05.035-.101.07-.15.106.006-.034.015-.066.02-.1.11-.49.267-.971.318-1.472.06-.721.06-1.45.004-2.17v.002Zm5.9 7.958a.3.3 0 0 1 .011-.028c.086.351.186.7.278 1.047a6.47 6.47 0 0 0 .877 1.944 2.197 2.197 0 0 1-.122-.045c-1.604-.521-1.561-1.543-1.046-2.92l.002.002Zm.62 4.747a.444.444 0 0 0-.012-.025c-.166-.232-.036-.513.075-.739.132-.26.425-.385.702-.432.02.008.041.013.061.016.05.02.099.04.147.063a.24.24 0 0 0 .106.065v.001c.128.158.26.312.396.46.207.222.43.428.662.62a2.37 2.37 0 0 0-.581.12 1.479 1.479 0 0 1-1.559-.15l.003.001Zm2.611 2.624a1.96 1.96 0 0 1-.33-.074.22.22 0 0 0-.186-.122c-.565-.571-.402-1.534.35-1.852a.251.251 0 0 0 .084-.066c.099.02.197.042.297.038.534.368 1.103.689 1.68.986l.418.21h.002c-.43.078-.839.237-1.21.465-.346.186-.697.41-1.106.413l.001.002Zm2.602 1.457a6.666 6.666 0 0 1-.37-.012.276.276 0 0 0-.055-.039c-.204-.07-.33-.218-.442-.401-.274-.484.08-1.001.45-1.321a.201.201 0 0 0 .042-.068c.26-.062.527-.114.795-.095a.28.28 0 0 0 .112-.01h.002c.432.188.875.346 1.345.432.205.05.409.094.614.137-.49.186-.904.524-1.316.844-.308.323-.721.54-1.178.533h.001Zm4.24.309c-.535.429-.888.679-1.438.667a.244.244 0 0 0-.1-.07c-.19-.082-.301-.285-.386-.463-.18-.454-.039-1.028.352-1.332a.279.279 0 0 0 .098-.09c.216-.074.461-.129.751-.152a.2.2 0 0 0 .085-.037h.003c.524.093 1.048.184 1.57.297.234.053.47.101.706.146h.003c-.591.265-1.099.65-1.645 1.032v.002Zm3.603-.004c-.605.535-1.295.97-2.078 1.192-.06-.028-.128-.045-.182-.086-.426-.277-.545-.927-.21-1.32.33-.214.675-.406 1.053-.528.15-.052.323-.04.466-.106l.024-.015c.52.066 1.042.105 1.568.101.152.005.303.005.453.003h.002a9.78 9.78 0 0 0-1.097.76h.001Zm14.645-10.78a3 3 0 0 1-.182 1.08c-.115.367-.29.711-.487 1.042-.312.45-.599.97-1.067 1.287-.475.355-1.071.462-1.606.697-.433.142-.874.28-1.329.331-.374.013-.748.035-1.121.034-.598-.05-1.198-.089-1.791-.171-.405-.069-.784-.24-1.192-.29-.66-.196-1.31-.44-1.988-.59-.37-.087-.711-.264-1.09-.328-.306-.028-.36.415-.052.461.272.056.541.182.81.257.41.117.828.204 1.232.346.39.093.749.282 1.147.334.397.079.774.24 1.179.287.322.037.645.072.969.1.096.066.26.093.375.142.382.181.657.518.874.883.151.292.211.644.162.972a1.45 1.45 0 0 1-.463 1.032c-.004 0-.008.003-.011.004a.252.252 0 0 0-.106.068c-.112.059-.22.118-.329.18-.783.43-1.66.624-2.53.809-1.133.326-2.311.397-3.487.49-.249.02-.496.042-.744.066-1.03.07-2.072.031-3.093-.114-.556-.11-1.134-.234-1.697-.336-1.187-.253-2.397-.4-3.564-.739a18.24 18.24 0 0 1-3.542-1.851c-1.16-.834-2.114-1.973-2.65-3.294-.37-1.173-.76-2.372-.696-3.621.073-1.062.372-2.1.654-3.122.432-1.53.627-3.117.673-4.703.032-1.497-.09-3.006.216-4.483.118-.833.437-1.63.896-2.339.423-.78.929-1.506 1.577-2.118a9.84 9.84 0 0 1 2.005-1.666c.617-.446 1.326-.725 2.063-.91.689-.21 1.396-.34 2.111-.428.666-.099 1.33-.26 2.008-.21.97.061 1.921.277 2.865.49 1.065.276 2.129.573 3.14 1.01.498.26 1.007.499 1.49.786.98.636 1.807 1.478 2.53 2.387.744.962.857 2.185 1.107 3.34.163.949.189 1.92.419 2.857.424 1.42 1.038 2.808 1.87 4.04.305.398.564.803.875 1.21.477.573.976 1.148 1.231 1.86.255.783.42 1.603.343 2.429l-.004.002Zm1.684-6.007c-.223.44-.501.855-.826 1.23a2.186 2.186 0 0 1-1 .208 2.971 2.971 0 0 1-1.276-.436c-.073-.047-.14-.115-.217-.154-1.02-1.412-1.825-2.98-2.268-4.666-.203-1.047-.254-2.119-.465-3.164v-.002a.281.281 0 0 0-.001-.168c.012-.344.2-.664.38-.95.328-.439.807-.8 1.37-.856.011 0 .022-.003.034-.007h.002c.6.069 1.188.24 1.726.514 3.012 1.491 4.068 5.54 2.544 8.45l-.003.002Z"/><path fill="#000" d="M51.216 23.342c-.451 1.177-.386 2.96.663 3.807 1.328.849 2.173-1.007 2.183-2.092.043-.78-.09-1.612-.555-2.265-.77-1.062-1.908-.518-2.291.55ZM39.39 23.42c-1.292 1.293-1.137 3.868.514 4.802 2.013.973 3.483-1.381 3.114-3.174-.254-1.774-2.134-3.055-3.628-1.628ZM35.194 46.885s-.006-.003-.01-.003h-.004l.014.004v-.001ZM23.278 46.167c-.883.221-1.76.47-2.624.754a31.73 31.73 0 0 0-2.517.943.235.235 0 0 0-.125.305c.049.117.192.173.307.124.66-.28 1.327-.535 2.003-.769a36.634 36.634 0 0 1 3.08-.907c.297-.088.173-.52-.125-.449h.001ZM25.751 46.099c.13 0 .235-.104.235-.233a.234.234 0 0 0-.235-.233.234.234 0 0 0-.235.233c0 .129.106.233.235.233ZM54.726 49.023a26.49 26.49 0 0 0-3.766-1.714.239.239 0 0 0-.308.125c-.083.22.114.317.294.367a25.44 25.44 0 0 1 3.543 1.625c.27.146.498-.242.237-.401v-.002ZM48.945 47.115c.13 0 .235-.104.235-.233a.234.234 0 0 0-.235-.232.234.234 0 0 0-.235.232c0 .129.105.233.235.233Z"/><path fill="#000" d="M62.478 4.872a1.214 1.214 0 0 0-.222-.243c-.766-.703-1.458-1.486-2.277-2.132l-.019-.015c-.62-.565-2.173-.875-2.76-1.012C54.642.94 52.03.69 49.428.477c-5.62-.427-11.264-.533-16.9-.451-6.138.16-12.34.3-18.373 1.526-.74.182-1.503.364-2.16.758l-.013.01a3.136 3.136 0 0 0-.468.302c-.364.247-.637.593-.924.92-.209.23-.466.505-.677.76-.552.654-1.185 1.25-1.738 1.912-.125.123-.267.327-.39.471a.265.265 0 0 0-.094.173 31.752 31.752 0 0 0-2.138 2.707C-4.695 24.422.147 41.553 12.68 51.189c-.027.036-.054.074-.092.117a.237.237 0 0 0-.154.153c-.086.092-.167.195-.24.256-.338.357-.651.736-.928 1.14-1.948 2.773-1.305 5.752.752 8.034a.194.194 0 0 0 .041.045h.002c.287.315.6.616.94.902 3.26 2.735 7.547 4.245 11.814 5.124.013.006.027.011.043.015 1.267.264 2.543.473 3.828.631l.037.005c.009 0 .015.002.024.003h.015l.001.001c1.99.243 3.995.367 6 .385 6.88-.002 14.025-.974 20.11-4.327 3.186-1.753 6.554-5.117 5.25-9.027-.338-1.03-.938-1.967-1.67-2.767a34.052 34.052 0 0 0 4.97-4.305c11.163-11.48 11.485-29.262.637-41.065a33.244 33.244 0 0 0-1.583-1.637ZM12.386 2.725c.302-.232.674-.36 1.03-.485.075-.016.153-.032.214-.07 1.442-.406 2.922-.6 4.425-.802 1.906-.239 3.819-.403 5.735-.532C30.032.434 36.297.377 42.55.572c4.768.19 9.569.41 14.275 1.294.617.125 1.246.272 1.854.478.294.109.604.215.859.4a.231.231 0 0 0 .104.083c.015.014.032.026.046.04.31.348-.723.687-1.03.801-3.44 1.016-7.133 1.21-10.71 1.5-6.198.402-12.443.46-18.652.268-3.923-.134-7.849-.357-11.744-.862a38.07 38.07 0 0 1-3.092-.53c-.656-.157-1.33-.305-1.94-.599-.063-.06-.124-.122-.185-.181-.18-.205-.18-.384.053-.542l-.002.003Zm42.215 58.8a6.11 6.11 0 0 0-.01.624c-.012.33-.138.641-.193.964-.03.11-.112.255-.148.39-3.529 1.913-7.941 2.968-11.121 3.452a53.52 53.52 0 0 1-14.85.13l-.253-.035-.286-.04a47.256 47.256 0 0 1-1.707-.28l-.283-.052a38.88 38.88 0 0 1-.504-.098l-.122-.025a1.177 1.177 0 0 0-.143-.03 41.78 41.78 0 0 1-1.899-.44c-3.872-1.047-7.883-2.527-10.688-5.495-.248-.566-.503-1.152-.443-1.787.067-1.196.873-2.248 1.795-2.98.804-.588 1.787-.838 2.763-.996a5.576 5.576 0 0 1 1.747-.04c.096.009.192.047.289.068a37.361 37.361 0 0 0 9.134 3.148c7.033 1.523 14.52 1.048 21.32-1.292.066-.003.134-.016.2-.006.603.01 1.16.097 1.757.225 1.2.237 2.204.998 2.871 2.007.544.76.805 1.66.774 2.589Zm.75-8.211a36.836 36.836 0 0 1-6.393 2.928.22.22 0 0 0-.084.03c-7.407 2.56-15.616 2.828-23.197.77a36.316 36.316 0 0 1-6.91-2.611C8.807 49.45 1.29 39.983.563 28.607.11 22.15 1.972 15.594 5.656 10.236a32.241 32.241 0 0 1 3.25-4.017c.104-.1.212-.196.321-.29.782-.633 1.73-1.106 2.731-1.298.684-.081 1.373-.15 2.062-.15.07.006.15.007.221-.01 1.867.434 3.785.646 5.69.849 3.939.393 7.898.566 11.856.649 7.75.106 15.543.002 23.233-1.045.86-.129 1.718-.276 2.565-.474a.323.323 0 0 0 .048.003c1.942-.194 3.916.321 5.383 1.623.3.311.593.628.88.95 13.286 15.062 8.57 36.439-8.547 46.287l.001.001Z"/><path fill="#000" d="M52.235 63.33c-.103-.062-.26-.033-.32.076-.773.31-1.519.68-2.32.919-.308.105-.63.164-.945.25a.235.235 0 0 0-.168.284c.032.12.166.201.287.166.22-.063.445-.106.667-.166.906-.247 1.767-.66 2.64-1.014.214-.067.399-.365.16-.517v.001ZM47.573 64.872c-.128 0-.237.1-.238.229a.235.235 0 0 0 .47.007.236.236 0 0 0-.232-.236ZM18.337 55.356a5.663 5.663 0 0 0-2.053.044 6.6 6.6 0 0 0-.996.282c-.12.043-.175.19-.129.303.104.239.363.11.538.043a12.355 12.355 0 0 1 .695-.175c.496-.113 1.014-.112 1.521-.085.18.004.36.08.54.04.296-.083.182-.517-.116-.452ZM14.663 56.092c-.128 0-.237.1-.239.23a.235.235 0 0 0 .47.007.236.236 0 0 0-.231-.237ZM29.48 66.285c-.463-.096-.93-.159-1.394-.246-.148-.052-.339-.037-.39.137-.033.118.037.259.162.289.467.107.946.154 1.415.256.205.07.552.031.53-.25a.237.237 0 0 0-.325-.186h.001ZM26.88 65.744c-.128 0-.238.1-.239.229a.235.235 0 0 0 .47.007.236.236 0 0 0-.231-.236ZM39.706 57.28c-.327.065-.66.091-.991.127-.327.025-.646.095-.968.142-.595.005-1.192.05-1.785-.03a.238.238 0 0 0-.261.203c-.023.32.37.265.587.296.422.037.845-.008 1.268.001.344.012.673-.101 1.013-.127.349-.044.699-.068 1.046-.124.168-.023.393-.042.445-.235.064-.198-.19-.374-.354-.252ZM35.016 57.5a.236.236 0 0 0-.233.234c.002.128.11.23.238.23s.233-.109.232-.234a.236.236 0 0 0-.237-.23ZM70.425 31.3c.126.025.246-.062.275-.185.067-.3.143-.598.19-.902.108-.668.15-1.346.126-2.023-.01-.467.008-1.016-.098-1.488-.052-.24-.48-.194-.456.092.15 1.183.131 2.403-.075 3.58-.045.219-.097.437-.148.653-.03.124.065.25.186.273ZM70.113 32.306c.249.076.405-.224.237-.405-.064-.11-.224-.132-.325-.064-.183.117-.093.401.088.469ZM3.466 16.08a.234.234 0 0 0-.21.194c-.163.366-.28.75-.438 1.12-.291.81-.493 1.651-.653 2.497a.237.237 0 0 0 .19.27.236.236 0 0 0 .272-.187c.076-.4.163-.801.26-1.198.202-.83.525-1.619.833-2.415a.24.24 0 0 0-.254-.282ZM2.24 20.902c-.129 0-.24.091-.246.223-.006.122.096.243.224.243s.24-.091.246-.223c.005-.122-.097-.242-.225-.242ZM16.983 27.835c.033.227-.111.637.224.674a.237.237 0 0 0 .246-.222c.033-1.053-.163-2.099-.436-3.114a.69.69 0 0 0-.18-.338c-.221-.188-.52.133-.318.339l-.002-.001c.276.855.43 1.764.466 2.662ZM16.858 29.133c-.006.122.096.243.224.243s.24-.09.245-.222c.006-.122-.096-.243-.224-.243s-.24.09-.245.222ZM26.162 11.308c.133-.065.276-.136.428-.193.235-.097.488-.096.73-.16.41-.137.64-.534.894-.853.142-.168.378-.291.572-.397.299-.125.628-.203.954-.19.186.005.4.088.563-.035.1-.08.117-.227.037-.327a.242.242 0 0 0-.27-.072 2.597 2.597 0 0 0-1.591.259c-.211.12-.429.244-.593.427-.211.237-.36.528-.628.71-.246.104-.53.075-.778.183-.22.078-.43.179-.635.288a.232.232 0 0 0-.082.319c.09.15.275.13.4.038v.003ZM25.037 12.21c.128 0 .234-.111.232-.237a.235.235 0 0 0-.47.007c.002.128.11.23.238.23ZM56.905 23.58c.119-.027.214-.157.176-.28-.098-.325-.184-.653-.323-.966-.39-.858-.965-1.662-1.724-2.238a.24.24 0 0 0-.324.074c-.124.207.083.32.22.435a5.539 5.539 0 0 1 1.692 2.799c.036.123.156.205.28.174l.003.002ZM56.96 24.459c-.128 0-.24.092-.245.222-.005.122.096.243.224.243s.24-.092.246-.222c.004-.122-.097-.243-.225-.243ZM51.805 32.717c-.149-.136-.408.006-.382.2.024.103.078.191.085.3.078.794.028 1.595-.223 2.361-.145.444-.525.808-.88 1.105-.143.11-.337.22-.201.437.245.275.533-.131.728-.28.836-.666 1.05-1.758 1.074-2.77.008-.351.015-.712-.059-1.059-.025-.107-.052-.223-.142-.295v.001ZM49.167 37.513c.184.291.585.013.389-.273-.185-.292-.585-.012-.39.273ZM33.646 21.44c.38-.536.809-1.003 1.353-1.392.17-.117.357-.198.531-.305.2-.11.243-.427-.01-.495a.237.237 0 0 0-.262.116 4.641 4.641 0 0 0-1.35 1.02c-.19.24-1.158 1.168-.729 1.413.275.133.354-.182.468-.356h-.001ZM32.704 22.241a.235.235 0 0 0-.23.238c.005.13.114.227.242.227a.235.235 0 0 0 .229-.238.237.237 0 0 0-.241-.227ZM31.014 41.233c-.333-.133-.656-.297-.982-.45a5.824 5.824 0 0 1-.84-.51c-.162-.108-.376-.395-.58-.165-.405.433 1.773 1.346 2.096 1.507.19.102.548.155.572-.142a.238.238 0 0 0-.266-.24ZM28.137 39.208a.238.238 0 0 0-.243.224.235.235 0 0 0 .227.241.238.238 0 0 0 .243-.224.235.235 0 0 0-.227-.241ZM39.397 38.067c-.062.134.022.288.162.328.208.09.412.19.627.265.637.187 1.267.392 1.9.593.166.08.412.025.418-.188.005-.121-.098-.245-.226-.24-.856-.293-1.749-.49-2.57-.873a.24.24 0 0 0-.31.115ZM38.755 37.55a.238.238 0 0 0-.243.225.235.235 0 0 0 .226.24.238.238 0 0 0 .243-.224.235.235 0 0 0-.226-.24ZM26.638 24.625c-.112.052-.173.197-.113.31.034.65.07 1.304.059 1.958-.024.405-.067.808-.099 1.213a.235.235 0 0 0 .212.253c.392.005.24-.582.306-.837.096-.808.038-1.623-.002-2.433.023-.223-.065-.578-.363-.463ZM26.33 29.235c.159.296.586.046.406-.232-.156-.295-.585-.048-.406.232Z"/></g><defs><clipPath id="a"><path fill="#fff" d="M0 0h72v68H0z"/></clipPath></defs></svg>