<svg xmlns="http://www.w3.org/2000/svg" width="108" height="121" fill="none"  xmlns:v="https://vecta.io/nano"><path d="M53.92 60v60l52.5-29.5V35l-1.5-3.5-51 28.5z" fill="#cfbe00"/><path d="M52.92 60v60L.42 90.5V35l1.5-3.5 51 28.5z" fill="#ffec1f"/><path d="M1.92 30.5l52-30 52 30L53.42 60 1.92 30.5z" fill="#fff79e"/><g fill="#050034"><path d="M44.44 35.647c.639.633 1.382 1.169 2.152 1.629a15.32 15.32 0 0 0 2.406 1.121c1.691.633 3.486.969 5.287 1.114a22.31 22.31 0 0 0 5.452-.254c1.801-.303 3.568-.866 5.184-1.719 1.561-.825 3.011-1.994 3.905-3.541.44-.763.687-1.609.749-2.489.028-.44-.014-.88-.089-1.313-.082-.461-.248-.894-.433-1.32-.358-.797-.921-1.512-1.54-2.124-.639-.632-1.389-1.169-2.166-1.622-.756-.44-1.561-.797-2.386-1.1-.852-.316-1.726-.55-2.612-.736a21.39 21.39 0 0 0-4.345-.433l-.66.007h-.096l-.509.021-.956.076c-.014 0-.027 0-.041.007-.027 0-.055.007-.082.007s-.062.007-.089.007c-.014 0-.034.007-.048.007-.041.007-.082.007-.124.014h-.027a19.95 19.95 0 0 0-3.534.742l-.667.22c-.639.227-1.265.495-1.87.797a11.23 11.23 0 0 0-1.114.639c-.344.22-.674.454-.99.708l-.076.062-.351.296c-.007.007-.014.014-.021.014-.674.598-1.258 1.313-1.677 2.111-.399.756-.626 1.588-.66 2.441-.041.901.199 1.781.571 2.592.337.77.873 1.437 1.457 2.021zm22.88-1.526a9.25 9.25 0 0 1-1.409 1.382c-.839.633-1.76 1.134-2.722 1.547-1.409.571-2.887.949-4.393 1.162a21.8 21.8 0 0 1-5.562.007c.034.007.069.007.103.014l-.124-.021c-.014 0-.021 0-.034-.007h.027c-1.54-.22-3.059-.605-4.503-1.203-.935-.406-1.829-.901-2.647-1.519a8.65 8.65 0 0 1-1.409-1.389c-.289-.385-.529-.791-.722-1.224a.94.94 0 0 0 .254-.241l.165-.234.062-.082.076-.096.082-.11a9.27 9.27 0 0 1 1.251-1.189c.811-.612 1.705-1.107 2.64-1.513 1.471-.612 3.018-.997 4.592-1.21a21.76 21.76 0 0 1 5.472.014.61.61 0 0 0-.11-.014l.131.021c.007 0 .021 0 .027.007h-.027c1.519.22 3.018.598 4.441 1.182a12.87 12.87 0 0 1 2.674 1.526 8.74 8.74 0 0 1 1.423 1.396 6.99 6.99 0 0 1 .468.708c.069.117.172.192.289.241-.151.296-.316.578-.516.846zm-23.705-3.458c.062-.392.172-.763.316-1.134.193-.426.433-.818.708-1.196a8.61 8.61 0 0 1 1.403-1.382c.014-.014.027-.021.041-.034.007-.007.014-.014.021-.014.014-.014.034-.027.048-.034a.15.15 0 0 0 .034-.027c.014-.007.028-.021.041-.027.014-.014.027-.021.048-.034.014-.007.021-.014.034-.021.021-.014.034-.027.055-.041.007-.007.014-.014.028-.021.021-.014.034-.027.055-.041.007-.007.021-.014.028-.021.021-.014.041-.027.055-.041.007-.007.021-.014.028-.021l.055-.034c.014-.007.021-.014.034-.021.014-.014.034-.021.048-.034.014-.007.027-.014.041-.027.014-.007.028-.021.041-.027.014-.014.034-.021.048-.034.007-.007.021-.014.027-.021l.062-.041a14.18 14.18 0 0 1 1.753-.914c.488-.206.99-.385 1.499-.543l.137-.034c.007 0 .021-.007.028-.007.034-.014.076-.021.11-.034.014-.007.027-.007.034-.014.034-.007.069-.021.103-.027.014-.007.027-.007.048-.014.034-.007.062-.021.096-.028.014-.007.034-.007.048-.014a.51.51 0 0 0 .096-.028c.014-.007.034-.007.048-.014.034-.007.069-.021.103-.027.014-.007.027-.007.041-.014l.11-.027c.014 0 .021-.007.035-.007.041-.007.076-.021.117-.027.007 0 .014-.007.021-.007l.131-.027 1.767-.323.454-.055h.028l.137-.014c.021 0 .041-.007.062-.007.034-.007.069-.007.11-.007.028 0 .055-.007.089-.007.027 0 .055-.007.082-.007.034 0 .069-.007.11-.007.021 0 .048-.007.069-.007.041 0 .083-.007.124-.007.021 0 .034 0 .055-.007.048 0 .089-.007.137-.007h.041l.144-.007h.034l.151-.007h.034l.151-.007h.027l.151-.007h.481l1.458.041h.048c.028 0 .055.007.083.007.034 0 .062.007.096.007h.034l1.21.124.165.027a18.5 18.5 0 0 1 4.276 1.162c.935.406 1.822.894 2.633 1.506.529.419 1.011.88 1.43 1.402.282.371.516.77.708 1.189.144.364.254.742.316 1.128.041.378.041.756 0 1.141l-.048.22c-.894-1.32-2.186-2.331-3.575-3.08-1.471-.797-3.094-1.327-4.73-1.657-1.396-.282-2.826-.412-4.249-.412l-.749.014a20.6 20.6 0 0 0-5.211.825 15.83 15.83 0 0 0-3.458 1.478c-.962.557-1.863 1.258-2.592 2.104-.007.014-.021.021-.028.034-.014.021-.027.034-.048.055-.021.027-.041.055-.069.082a3.67 3.67 0 0 1 0-.777zM20.019 76.698c.736 1.629 1.677 3.142 2.771 4.537a18.86 18.86 0 0 0 3.816 3.692 13.39 13.39 0 0 0 2.289 1.341c.832.378 1.698.667 2.606.797.921.138 1.856.11 2.757-.144.88-.241 1.678-.736 2.324-1.375.667-.66 1.121-1.492 1.444-2.365.323-.866.461-1.815.509-2.736.055-.963-.034-1.918-.186-2.867-.144-.928-.385-1.843-.681-2.729-.584-1.76-1.423-3.444-2.441-4.998-1.004-1.533-2.207-2.949-3.582-4.166-1.409-1.244-3.025-2.276-4.812-2.874-.804-.268-1.664-.419-2.516-.419l-.268.007a5.78 5.78 0 0 0-2.557.708c-.742.406-1.348 1.017-1.836 1.705-.502.715-.825 1.561-1.024 2.406-.199.839-.275 1.712-.268 2.571.007.921.124 1.843.302 2.743.261 1.437.742 2.832 1.354 4.166zm5.067-13.076c.729.103 1.43.316 2.111.591 1.017.44 1.966 1.024 2.846 1.691 1.224.963 2.303 2.076 3.259 3.3 1.086 1.423 2.001 2.977 2.709 4.627.584 1.409 1.018 2.881 1.231 4.393a12.43 12.43 0 0 1 .021 3.032 8.44 8.44 0 0 1-.495 1.87l-.22.44a.56.56 0 0 0-.275-.083h-.254l-.413-.041h-.041c-.027 0-.048-.007-.062-.007l-.454-.089c-.014 0-.027-.007-.041-.007-.014-.007-.034-.007-.048-.014-.014 0-.028-.007-.034-.007s-.014 0-.021-.007c-.021-.007-.034-.007-.055-.014h-.007c-.021-.007-.041-.014-.062-.014l-.557-.158-.165-.055-.612-.234c-.976-.433-1.884-.99-2.736-1.636-1.231-.962-2.317-2.083-3.279-3.314-1.093-1.43-2.008-2.998-2.723-4.647-.584-1.409-1.011-2.874-1.224-4.386-.124-1.004-.144-2.014-.021-3.018.096-.639.254-1.265.495-1.87l.172-.351a4.04 4.04 0 0 1 .956.007zm8.429 19.222c-.007 0-.014-.007-.021-.007.007 0 .014 0 .021.007zm-13.901-14.52a8.42 8.42 0 0 1 .509-1.932 6.17 6.17 0 0 1 .667-1.148c.234-.289.495-.55.784-.784a5.15 5.15 0 0 1 .901-.529c.082-.034.172-.055.261-.082-.406 1.134-.557 2.344-.536 3.554.014.811.11 1.629.254 2.427a17.61 17.61 0 0 0 .639 2.434c.55 1.643 1.327 3.218 2.255 4.682.914 1.437 2.001 2.778 3.231 3.953 1.265 1.21 2.716 2.262 4.324 2.963l.055.021.791.309c.007 0 .014.007.028.007.007 0 .014.007.021.007l.131.041c.007 0 .014.007.021.007l.509.144c.021.007.027.007.034.014.021 0 .028.007.034.007.021.007.048.014.069.014.041.007.076.021.117.028.007 0 .014 0 .021.007.014 0 .021.007.034.007l.378.076c.027 0 .048.007.062.007s.021 0 .027.007c.007 0 .021 0 .028.007h.048c.014 0 .021.007.034.007s.028 0 .041.007c.034.007.069.007.103.014.007 0 .021 0 .034.007.014 0 .021 0 .034.007l.234.021a5.01 5.01 0 0 1-.474.447 4.79 4.79 0 0 1-.928.536 5.29 5.29 0 0 1-1.121.302 6.41 6.41 0 0 1-1.54-.014c-.729-.117-1.437-.33-2.124-.612-.983-.433-1.897-.997-2.757-1.65-1.231-.962-2.317-2.09-3.279-3.314a22.04 22.04 0 0 1-2.709-4.634l-.303-.777c-.007-.028-.021-.048-.027-.076l-.021-.055a18.11 18.11 0 0 1-.777-2.874c0-.014-.007-.027-.007-.041 0-.021-.007-.034-.007-.055l-.076-.481a12.58 12.58 0 0 1-.027-3.011zm70.29-5.108c-.598-.667-1.375-1.141-2.207-1.444-.426-.151-.873-.227-1.32-.275l-.571-.034a6.55 6.55 0 0 0-.894.062c-.454.055-.894.151-1.334.275-.461.131-.907.316-1.347.509-.825.364-1.595.839-2.317 1.361a18.42 18.42 0 0 0-2.117 1.815 20.18 20.18 0 0 0-2.564 3.163l-1.086 1.808a20.88 20.88 0 0 0-1.347 3.059c-.495 1.403-.832 2.867-.956 4.352l-.048 1.141c0 .894.103 1.808.323 2.674l.028.11c.007.041.021.076.034.117.227.804.584 1.588 1.086 2.262a5.51 5.51 0 0 0 2.001 1.684c.832.406 1.753.571 2.667.557.928-.014 1.856-.234 2.723-.564a12.78 12.78 0 0 0 2.42-1.244c1.519-.99 2.853-2.269 3.994-3.671 1.134-1.389 2.097-2.922 2.86-4.544.791-1.671 1.368-3.444 1.65-5.273.282-1.836.275-3.767-.33-5.541-.289-.88-.736-1.677-1.347-2.358zm-16.83 17.208l-.028-.22c0-.034-.007-.062-.007-.083 0-.014 0-.027-.007-.041 0-.014 0-.028-.007-.048 0-.021-.007-.041-.007-.062-.069-.907-.034-1.808.069-2.702.213-1.526.646-3.018 1.231-4.441 0-.007.007-.014.007-.021.632-1.471 1.416-2.86 2.337-4.153.007-.007.014-.014.014-.021l.062-.089.055-.076c.007-.014.014-.021.021-.034l.248-.33c.571-.729 1.183-1.416 1.849-2.056l.082-.076.034-.034c.014-.014.034-.028.048-.048l.083-.076 1.072-.921c.839-.639 1.739-1.189 2.709-1.616.667-.275 1.354-.474 2.063-.584.44-.048.88-.055 1.32-.014a7.12 7.12 0 0 1 .44.811c.254.619.413 1.265.509 1.925 0 .021.007.034.007.055 0 .014 0 .028.007.041 0 .021.007.041.007.062s.007.041.007.062c0 .014 0 .028.007.041 0 .027.007.055.007.082v.021c0 .034.007.062.007.096v.007a13.56 13.56 0 0 1-.069 2.64l-.089.564c0 .007 0 .014-.007.021l-.021.103c-.007.021-.007.041-.014.062s-.007.041-.014.062l-.021.103v.021c-.248 1.286-.646 2.537-1.148 3.754-.736 1.719-1.684 3.341-2.819 4.826-.962 1.231-2.049 2.358-3.279 3.327-.853.653-1.774 1.217-2.757 1.643-.633.254-1.293.447-1.973.55a5.85 5.85 0 0 1-.598.048h-.234c-.007-.007-.014-.021-.027-.028a6.29 6.29 0 0 1-.681-1.182c-.124-.296-.22-.598-.303-.907l-.192-1.066zm17.387-9.756c-.22 1.54-.667 3.039-1.265 4.469a21.9 21.9 0 0 1-2.75 4.682c-.914 1.162-1.946 2.228-3.107 3.142-.846.646-1.76 1.21-2.736 1.636-.646.261-1.313.461-2.001.571-.495.062-.983.069-1.478.014a5.5 5.5 0 0 1-1.141-.309 4.75 4.75 0 0 1-.406-.213c.969-.165 1.904-.509 2.784-.956 1.43-.715 2.716-1.733 3.857-2.846 1.203-1.176 2.248-2.53 3.149-3.953.935-1.485 1.691-3.087 2.262-4.744.44-1.299.749-2.647.88-4.015.124-1.265.089-2.578-.206-3.816a7.7 7.7 0 0 0-.378-1.169 4.06 4.06 0 0 1 .591.371 6.13 6.13 0 0 1 .791.791 6.07 6.07 0 0 1 .688 1.196c.261.646.426 1.32.523 2.001a14.18 14.18 0 0 1-.055 3.149z"/><path d="M3.197 92.015l.153.069c.153.069.272.144.362.227l.515.302.209.124.181.103.279.172.773.46.244.151.174.103.885.509.467.241.348.186 3.002 1.725 2.981 1.712 7.473 4.295 7.473 4.29.585.343 2.911 1.725.871.502.272.158.272.151.32.186 1.128.639.947.502 14.292 8.221.446.213c.174.068.327.172.411.227.118.082.244.158.411.24l.251.124.265.13.104.049a1.36 1.36 0 0 1 .146.068l.056.035.063.034a1.2 1.2 0 0 0 .125.076c.056.027.104.062.16.089l.035.021.313.206.077.055.258.172.118.075.118.076-.063-.09.063.083c.077-.014.139-.041.188-.062l.063-.027.07-.028.07-.027c.056-.021.111-.048.167-.076a2.36 2.36 0 0 1 .132-.062c.16-.069.32-.158.557-.302l.571-.344.306-.192 1.1-.674.16-.103.125-.076.313-.192a18.41 18.41 0 0 1 .508-.282l.244-.131.557-.323.16-.096.669-.371.265-.137.78-.427.634-.385.85-.515c.111-.055.195-.144.258-.261l2.605-1.457 4.82-2.702 1.212-.673 30.228-16.936c.035-.014.069-.034.104-.055l5.057-2.832.035-.021.062-.034.063-.034c.16-.11.258-.296.265-.488 0-.055-.007-.103-.014-.151.007-.028.007-.069.014-.103.007-.014.007-.034.014-.055l-.028.048.035-.082c.013-.076.027-.144.027-.22l.007-.206-.034.034c.041-.082.048-.179.055-.268l.028-.302.021-.199.007-.041c.035-.344.042-.674.028-1.017l.035-.626.007-.186.007-.11.014-.44.013-.536v-.289a12.72 12.72 0 0 0-.02-.894v-.055a12.18 12.18 0 0 1-.021-.715 15.59 15.59 0 0 0-.042-.99l-.077-1.017-.014-.213V66.934l.021-.488.014-1.732v-.399l.021-1.787.035-1.12.077-1.705.006-.577v-.261l.007-.804.028-.907.021-.612.028-1.684.021-.536.035-1.182v-1.196l-.014-.399-.014-.79-.007-.447-.049-1.904-.007-.048v-.069l-.014-.337-.028-.495-.007-.103-.02-.639-.007-.24-.049-1.34-.007-.055a5.2 5.2 0 0 0-.014-.33l-.021-.296-.014-.158-.049-.584v-12.84c0-.179-.083-.351-.223-.467.007-.213-.104-.419-.299-.529l-.251-.144-.25-.144-.189-.11-.167-.096L55.936.873l-.411-.296-.522-.392c-.139-.082-.244-.117-.397-.144-.042-.007-.084-.007-.125 0-.014 0-.035-.007-.049-.007-.07-.021-.125-.034-.174-.034h-.007c-.167 0-.202.014-.362.069L53.7.137l.146-.048-.543.206c-.049.021-.097.027-.153.048l-1.087.467-.3.137-.425.186-1.059.495-1.351.784-.049.034-.098.062-.258.158-.077.048-.063.041c-.898.557-1.776 1.175-2.612 1.835l-.62.488-.216.172-1.316.742-1.323.742-7.104 3.98-.132.062-.098.048-.077.034-.07.027-.334.165a33.23 33.23 0 0 1-1.212.584l-.056.027-.049.021-.334.151-.683.344-.042.021-.063.034-.314.165-.439.234-1.56.852-.689.364-.153.076-.139.076-.07.041-.557.289-1.017.509-.662.323-.557.275-1.114.564-1.574.894-1.177.756-.181.117-.077.048-.571.364-.599.371-.557.344-.181.117-.049.034-.237.144-.954.57-.362.213-.139.082-.098.055-.745.44-.717.399-1.839 1.059-.042.027-.035.027-.042.021-.035.034-.146.076-.167.103.153-.055a5.07 5.07 0 0 0-.613.344l-.237.151-.063.041-.585.371-.063.041-.16.103-.467.296-9.396 5.265c-.223.055-.411.11-.613.192l-.216.089-.32.131c-.153.062-.306.151-.418.22l-.111.069a3.54 3.54 0 0 0-.376.247l-.111.076c-.251.165-.508.364-.578.653-.07.282-.063.55-.049.749-.014.055-.021.103-.021.151v.852c-.007.131-.007.268 0 .399l.014 57.469.202.144c.063.048.125.089.195.131l.077.041.16.089.139.082.049.028.104.055.195.117 1.024.591 1.031.584zm99.543-57.668l.07.021c.279.082.515.172.731.289.293.186.516.357.69.529.153.165.327.351.46.564.153.282.264.557.348.825l.063.33.013.083.028.165.07.364.028.783.063.818.02.241.035.447.258 3.072.077.749v23.267l-.056.68-.077.983-.132 3.347.021 1.835v.055l.021 1.395.048 2.921v.309l.056 1.725v.048l.028.371.028.399v1.656l-.007.419v.302l-.007.289.007.275a1.96 1.96 0 0 1 .007.199v1.093l-.028.268a23.88 23.88 0 0 0-.104 1.003l.007.041-.014.096-.007.076-.007.089v.048c-.007.021-.007.041-.007.069a1.27 1.27 0 0 1-.028.192l-.021.172-.084.488-.014.076-.195.832a3.8 3.8 0 0 1-.397.749l-.062.103-.112.172c-.195.268-.432.529-.724.811l-.181.165a7.76 7.76 0 0 0-.244.227l-.432.412a11.22 11.22 0 0 0-.292.282 6.02 6.02 0 0 1-.3.296l-.062.055-.07.048-.105.083c-.034.027-.062.055-.09.082l-.091.089-.062.055-.098.069-.035.028-.16.11a4.03 4.03 0 0 1-.299.213l-.558.371-46.351 25.968c.021-.055.021-.124.021-.165l.007-.172.007-.096c.007-.103 0-.213 0-.323 0-.089.007-.179.014-.268l.007-.144-.007-.557v-.371c.007-.179 0-.351-.007-.53v-.529c.007-.089.007-.179.007-.268l.007-.295a13.77 13.77 0 0 0-.007-1.306l-.021.151.028-1.409v-.186a41.2 41.2 0 0 0 0-1.306 25.19 25.19 0 0 1 .042-1.698l.014-.316.028-.529a14.26 14.26 0 0 0 .056-.942l.014-.749.007-.591.014-.845v-.427l-.007-.639-.007-.728a24.31 24.31 0 0 0-.028-1.244l-.007-.138-.007-.165v-.055l-.007-.069v-.226l-.021-.358-.007-.103-.021-.625-.007-.234-.028-.825-.07-1.196-.014-.213-.035-.584-.028.048c.021-.144.014-.296.014-.44l-.056-1.237-.028-.406-.014-.192V60.665l.125-.076.132-.076 5.558-3.114 11.785-6.599 1.609-.797.731-.378a2.19 2.19 0 0 0 .174-.096l.042-.021.049-.028.063-.034.09-.048.279-.151.724-.378.063-.034.077-.041.084-.041 1.769-.949.293-.165.035-.021.731-.392.773-.392 1.553-.88.467-.275.118-.069.926-.543 2.946-1.753 1.233-.763.118-.076 1.08-.66 12.46-6.983.147-.062.132-.062.286-.117.243-.096a3.81 3.81 0 0 1 .488-.186h-.007c.153-.041.306-.055.522-.062.216 0 .397.021.551.062l.034.034zM54.473.041l.091.021c-.035-.014-.063-.021-.091-.021zm0 0c.021.007.035.007.056.014-.021-.007-.042-.014-.056-.014zm0 0c.007 0 .014 0 .028.007-.014-.007-.021-.007-.028-.007zm-.007-.007h-.028.028zm-.014 0c-.007 0-.014 0-.021-.007h-.007c.007 0 .014.007.028.007zM4.945 29.913c.007-.021.021-.041.028-.055.118-.158.272-.323.453-.495l.091-.055.508-.337.327-.227.125-.076 1.045-.625 2.87-1.876 1.114-.735a7.13 7.13 0 0 0 .383-.241l.139-.082.418-.261.049-.034.139-.089L35.87 11.699l.376-.186.481-.22.042-.014.258-.117.174-.082.578-.261.752-.344.752-.337.313-.137.049-.021a29.66 29.66 0 0 0 1.184-.557 20.59 20.59 0 0 0 1.498-.839c.829-.495 1.679-1.086 2.751-1.925l.529-.419.348-.192.293-.165 3.51-1.966.16-.076.049-.021c.174-.082.334-.144.495-.199l.167-.048.286-.089.188-.069.091-.034c.258-.082.508-.137.766-.172l.16-.027a4.96 4.96 0 0 1 .446-.062c.042 0 .077 0 .111-.007l.474-.014a4.72 4.72 0 0 1 .557.027l.313.034.766.096c.3.062.627.151 1.024.275l.32.11.292.103.174.055a2.97 2.97 0 0 1 .265.089l.202.082c.077.034.153.062.23.089l.167.062.056.027.355.179.181.089h.007l.028.014c.014.007.021.007.021.007l.042.014v.007l.146.076.063.027.097.048.132.082c.042.021.077.048.118.069l.334.172-.035-.021.272.144.181.089.07.034.049.021v.007l.09.048.035.021.084.041-.056-.041.195.103.146.069.063.027v.007l.153.082.118.082.042.027.063.048.23.165.606.406a46.22 46.22 0 0 1 1.219.818l1.226.777.084.048-.035-.055c.223.172.474.309.69.433l.299.179.453.261.683.378.822.454 1.024.502.146.069.432.206.467.241.118.062.23.124.481.247.278.144.467.254.077.041.766.412.202.103.864.481.62.344.996.516.55.282.279.151.049.027a6.01 6.01 0 0 0 .362.192l.738.385.815.447.07.041.056.027.446.248 1.31.729a23.99 23.99 0 0 0 1.309.701l.641.316.146.069.501.247 2.229 1.155.153.076.139.076.265.137 1.393.715 1.226.632.077.041.098.048.543.302.146.076.077.041.578.316.209.11.063.034 1.114.619-.042-.062.913.619.077.055.278.186.745.467.07.041.077.048.474.296.111.076 1.184.777a30.48 30.48 0 0 1 .961.68l.759.543.042.027 1.33.921.272.179.077.055.46.309.564.344.042.027.237.138.035.021.522.323 2.221 1.272.53.275.459.24c.077.076.154.158.216.241a2.51 2.51 0 0 1 .209.392c.049.144.084.316.112.509l.007.082c.007.096.007.199 0 .296-.028.117-.07.241-.119.364-.062.117-.139.22-.216.33l-.111.151-.042.062-.111.151c-.049.055-.105.103-.16.158l-.056.062-.035.034c-.028.034-.063.062-.091.096l-.215.179c-.042.027-.077.062-.112.096-.049.048-.083.076-.118.103l-.105.082-.048.034-.154.117-.042.027-.069.041-.126.083-.09.048-.272.172-.055.041-.495.268-2.034 1.045-.105.048-.676.33-.801.357-.954.447-.09.048-.55.275a8.45 8.45 0 0 0-.425.241l-.07.041-.042.027-.216.124-.564.33-.864.502-.202.124a21.74 21.74 0 0 0-.536.316 17.52 17.52 0 0 0-.745.495l-.675.461-.125.082-.376.261-1.386.88-.432.268-.042.027-.111.069-.181.117-.23.144-.153.089-15.887 8.894-1.644.811-.815.405-.627.309-.926.454-1.546.715-1.616.735-1.553.763-.439.213-.091.048a20.41 20.41 0 0 0-1.038.522l-1.135.625-.104.062-.202.117-1.442.852-.097.062-.105.062-.724.433-.292.179-.049.027-.348.206-.188.103-.369.206-1.107.694-.035.027-.049.034-.279.192-.167.103-.223.131a4.15 4.15 0 0 1-.418.247 3.02 3.02 0 0 1-.258.131l-.049.028c-.111.055-.216.124-.327.199l-.063.041c-.104-.014-.167-.055-.23-.096a3.85 3.85 0 0 0-.334-.213 7.22 7.22 0 0 1-.488-.309c-.084-.062-.181-.117-.272-.172l-.077-.048-.056-.034-.091-.055-1.017-.653c-.293-.165-.571-.371-.829-.543l-.063-.048-.306-.213-.822-.564-.007-.055-1.825-1.224-1.233-.791-2.396-1.547-.404-.268-.105-.069-.16-.11-1.268-.797-1.254-.729-.174-.096-1.672-.942-.07-.041-.084-.041-1.059-.584a17.36 17.36 0 0 0-.885-.426l-.063-.028-.557-.261-.418-.213-.258-.137-.202-.096-.098-.048-.48-.247-.669-.351-.049-.027-.675-.357-.718-.385-.878-.433-.091-.048-.056-.028-.418-.213a12.76 12.76 0 0 0-.683-.351l-1.504-.694-1.323-.605-2.11-1.127-.07-.041-.146-.083-.662-.371-.571-.302-.091-.048-.056-.027-.71-.371-.48-.254-15.483-8.894-.23-.254c-.153-.179-.279-.378-.39-.55-.035-.062-.077-.117-.104-.179l-.084-.144c-.056-.082-.105-.172-.153-.261-.063-.131-.104-.254-.139-.399-.014-.062-.042-.124-.063-.186a1.48 1.48 0 0 1-.063-.199c-.014-.082-.035-.213-.028-.344a1.47 1.47 0 0 1 .056-.296zM1.783 88.805c-.118-.275-.216-.591-.306-.948l-.063-.268-.035-.131.035-.357a14.64 14.64 0 0 0 .063-.66l.007-.082.014-.138.035-.557.042-.591.084-1.203.132-2 .049-.983.028-.653.014-.344v-.117l.014-.405.014-.357v-.234l.007-.296-.007-1.581-.007-.261-.063-1.402-.014-.22-.014-.227-.007-.089-.007-.124-.084-1.299-.056-.639-.056-.626h-.007c-.014 0-.014.014-.014.034V71.8l-.014-.687-.007-.509.007-1.272.007-.323a2.62 2.62 0 0 1 .007-.234c0-.041 0-.076.007-.117v-.138l.014-.254v-.481a4.78 4.78 0 0 0 0-.447l-.028-.495a1.37 1.37 0 0 0-.021-.227l-.007-.082-.014-.131v-.048l-.007-.11-.042-1.368v-.261l.007-.529v-.186l.007-.302.021-.399c.007-.089-.014-.186-.049-.268.028-.048.035-.117.035-.179l-.021-.612-.014-.515-.014-.385v-.103l-.007-.701-.014-.928v-.089l-.021-.467a5.45 5.45 0 0 0-.014-.337l-.007-.158-.021-.598-.007-.337-.007-.33.014-.577v-.041l.07-1.237.035-.481.007-.082.084-1.643.014-.577.014-1.093-.014-1.705-.028-1.052-.007-.151-.021-.515-.028-1.767v-2.461l.014-1.038v-.818l-.014-2.392-.014-.447v-.138l-.028-.681-.084-1.196-.014-.041.007-.048v-.048a.8.8 0 0 0-.007-.11c-.007-.048-.014-.048-.021-.048l.014-.041.007-.192.021-.344c0-.034.007-.089.014-.151l.007-.11.007-.096.007-.082-.007.014.014-.069c0-.048.007-.089.007-.138l.007-.089c.007-.089.028-.179.042-.268l.014-.062.028-.172c.028-.172.063-.344.118-.509a3.14 3.14 0 0 1 .272-.55 2.49 2.49 0 0 1 .244-.268c.063-.048.125-.089.195-.124.23-.089.467-.138.655-.172a4.19 4.19 0 0 1 .293-.027l.042-.007.202-.014a1.24 1.24 0 0 1 .153.034l.104.028c.098.021.188.048.279.076l.299.103.578.254.543.316.042.028.042.021.648.378.683.44.077.048.077.048.62.392.32.192.39.234.752.461.982.557.453.254.773.481a12.51 12.51 0 0 0 .655.412l2.131 1.21.829.46 1.546.825.982.467.07.034.502.241 1.184.543.056.021.098.041a32.8 32.8 0 0 1 1.421.66l17.043 9.795 2.09 1.196 12.293 7.066.153.083v.839l.028.784v.055a2.67 2.67 0 0 0 .014.248l.007.172.007.138.007.165.007.089.007.151.021.378.014.302.014.282.021.584.014.364.014 1.581v.866a8.13 8.13 0 0 1-.007.715l-.007.11-.028.55v1.196l.049 1.423.028.316.007.11.007.151.021.577.028.674.035.488.007.117.042.612.007.131.014.048-.014.749v2.653l.028 1.705-.007.921-.007.784.021 1.712a26.87 26.87 0 0 1-.007 1.058v.069l-.007.488-.028 1.093v.096l-.014 1.966.028.962.049 1.423.007.103.021 1.327.014 1.375.021.529.007.117.049.997.014.172.014.172v23.837l-.167-.124-.188-.11-.167-.11-.146-.103-.369-.261-.334-.254c-.118-.103-.237-.193-.362-.275l-.167-.117-.09-.062-.077-.055-.035-.021-.627-.419-.683-.392-.32-.178-.564-.296c-.077-.034-.146-.075-.223-.117l-.132-.075-.209-.117-.508-.268-.153-.083-.613-.323-.822-.467-.111-.062-.495-.282-.467-.261-.857-.481-1.456-.811-.759-.44-.759-.433-.369-.206-.369-.207-2.117-1.154-.878-.461-.689-.364-5.147-2.956-2.507-1.436-1.247-.743-1.135-.673-1.518-.846-1.511-.873-.522-.295-2.5-1.471a57.53 57.53 0 0 0-1.435-.838l-.585-.323-.968-.55-.773-.474-.084-.048-.71-.426-.773-.467-.71-.426-1.435-.907c-.432-.282-.919-.536-1.309-.742l-.049-.027-.111-.062-2.278-1.162-.111-.055-.648-.323-.042-.028-.049-.021-3.587-2.062a10.27 10.27 0 0 1-.46-.282l-.07-.048-.077-.055-.139-.096-.404-.282-.042-.021-.167-.117c-.223-.158-.425-.337-.62-.515l-.097-.089-.125-.11-.418-.392-.139-.192c-.042-.062-.077-.117-.125-.172l-.272-.454z"/></g></svg>