<svg xmlns="http://www.w3.org/2000/svg" xmlns:xlink="http://www.w3.org/1999/xlink" width="68" height="32" fill="none" xmlns:v="https://vecta.io/nano"><g clip-path="url(#A)"><path d="M59.097 23.552c.112.021.217.048.329.055l.357.048.861.09.532.014.84-.028 1.085-.076c.077-.007.161-.021.238-.035l.245-.035.308-.014h.238a4.32 4.32 0 0 0 .602-.055l.133-.021.364-.035c.112-.014.224-.034.336-.062.035 0 .07-.007.105-.007a1.12 1.12 0 0 0 .266-.041l.07-.021v.007c.084-.014.14-.028.189-.041.259-.076.441-.353.413-.629-.028-.325-.294-.505-.518-.594-.182-.076-.378-.124-.567-.173l-.238-.062-.203-.083.028-.048c.077-.166.056-.311.028-.456-.028-.138-.175-.283-.273-.38l-.133-.131-.399-.491c-.217-.263-.406-.505-.56-.774l-.154-.387-.091-.256c-.119-.297-.315-.518-.525-.74-.364-.38-.798-.719-1.414-1.106l-.525-.38c-.287-.214-.616-.394-.931-.567l-.441-.221-.434-.214-.658-.387.021.021-.056-.041a2.39 2.39 0 0 0 .462-.228c.126-.069.231-.152.336-.228l.112-.083.112-.076a3.2 3.2 0 0 0 .308-.228c.35-.297.63-.615.847-.947.161-.249.287-.518.413-.788l.126-.27.154-.311.287-.588.217-.449a4.71 4.71 0 0 0 .182-.463l.133-.352c.035-.083.084-.159.126-.235l.042-.069a3.31 3.31 0 0 0 .273-.643l.014-.041.014-.048h.007l.091-.277.028-.083.14-.491c.035-.145.063-.297.084-.449l.028-.2.056-.325.175-.961.14-.608.049-.29c.007-.076.021-.145.035-.221l.042-.256.042-.263c.014-.076.035-.145.056-.214.084-.297-.063-.601-.357-.767-.091-.048-.21-.076-.357-.076-.098 0-.203.014-.294.021l-.455.041-.14.007-.714.035h-.21a2.1 2.1 0 0 0-.294.021l-.105.007-.245.021-.224.021c-.252.021-.504.09-.749.152l-.259.062-.595.145-.203.069-.357.118-.364.138-.105.041-.448.145-.056.014a8.42 8.42 0 0 0-.959.353c-.252.111-.483.263-.7.408l-.245.159-.182.111c-.126.076-.252.145-.364.235l-.525.373a3.63 3.63 0 0 0-.322.249l-.147.097-.511.429-.217.173-.273.221-.42.366-.154.138-.168.138.049-.035-.385.353-.042.041-.567.408-.336.228c-.196.138-.371.29-.525.456-.042.041-.084.083-.119.131l-.203.214-.238.2a.77.77 0 0 0-.133.159l-.511-.27-.959-.401c-.378-.152-.77-.277-1.155-.366l-.168-.035-.658-.159-.154-.055-.364-.124a6.24 6.24 0 0 1-.651-.263c-.112-.055-.231-.097-.35-.145l-.301-.124-.441-.207-.182-.09c-.189-.09-.385-.152-.602-.221-.028-.069-.028-.138-.035-.207V7.59l-.007-.069-.014-.283a1.57 1.57 0 0 1 .077-.359c.049-.152.049-.318.056-.477l.007-.359-.007-.194-.007-.145c-.007-.18-.028-.353-.056-.532l-.035-.277-.063-.843-.021-.263-.021-.408c.014-.145.042-.283.077-.415l.084-.152.147-.242.091-.104c.147-.118.28-.214.35-.359a.61.61 0 0 0 .028-.456.66.66 0 0 0-.308-.346c-.077-.041-.168-.069-.266-.069-.245 0-.497.138-.7.256l-.049.028-.126.069-.392.214-.154.069-.371.173a.54.54 0 0 0-.35-.124h-.063c-.385.048-.735.235-1.071.422l-.203.111c-.287.124-.602.2-.903.277l-.476.124c-.252.076-.49.18-.756.29l-.819.387c-.518.283-.938.691-1.337 1.085l-.322.325-.049.048c-.105.104-.217.221-.28.353-.182.014-.364.055-.567.104l-.329.069-.119.035-.049.014c-.133.021-.273.021-.406.028l-.189.007c-.077 0-.147.007-.224.014l-.378.014h-.056c-.672-.041-1.309-.145-2.072-.277-.413-.069-.777-.104-1.127-.104h-.119a3.33 3.33 0 0 0-.371.021l-.455.021h-.105l-.686-.028-.434.021c-.441.041-.882.145-1.274.242l-.987.263-.371.118-.714.207-.588.124-.546.118-.091.014-.455.09a4.43 4.43 0 0 0-.434.111.61.61 0 0 0-.273-.124c-.035-.014-.077-.014-.119-.014-.105 0-.224.035-.322.055l-.049.014-.084.021c-.042.014-.084.021-.126.035l-.21.062-.273.083-.938.311-1.379.539-.35.145-.609.277-.238.111-.868.415-.966.539-.609.346-.469.277-.56.325.14-.062c-.476.228-.924.518-1.358.802l-.049.035-.371.249-.28.187-.483.304-.182.117-.63.415-.56.394-.182.124-.336.242-.462.346-.546.366-1.085.754-.623.456-.119.076-.126.083-.07.041c-.21.125-.427.263-.462.525-.028.235.056.449.224.588.063.055.147.097.217.138l.245.138c.182.131.35.284.511.429.161.152.364.297.637.456a7.29 7.29 0 0 0 1.295.581l.035.007h.007l-.007-.007h.014v-.007c.014.014.035.021.049.028l.21.069.056.021a4.06 4.06 0 0 1 .805.366 2.62 2.62 0 0 1 .42.387l-.028-.042c.084.104.175.194.266.29l.14.152.497.498c.042.035.077.076.119.111s.077.076.119.111c.091.083.196.145.301.207l.035.021c.21.138.455.297.714.408l.28.117.427.18.357.145.35.145a7.56 7.56 0 0 1 .602.325l.518.332.427.214.049.021a4.79 4.79 0 0 0 .476.214c.161.055.315.125.469.194l.084.042.399.173.49.201a2.82 2.82 0 0 0 .644.214l.14.028.392.083.14.035.231.09c.147.062.301.111.455.159l.357.104.385.104.098.028.147.048.112.035.406.159c.154.069.315.124.476.173l.357.138.588.221c.371.117.763.131 1.148.145h.063l.511.041.371.055.203.035.322.035.21.021.553.062 1.015.09.112.007.196.014.504.035h.042l.161-.007.042.104.224.463c.049.09.119.166.182.242l.035.035c.084.097.147.194.21.297.154.304.273.581.371.843.105.283.231.532.364.74l.196.263.091.117.112.145a1.36 1.36 0 0 1 .119.159l.098.145c.049.076.098.159.154.221.098.111.196.2.301.29l.098.09.364.29c.077.048.147.111.217.166l.217.166c.175.118.357.228.574.339l.063.034c.119.062.238.118.364.166.21.076.413.111.63.145.154.028.294.069.434.104l.168.048.231.055.301.076a4.5 4.5 0 0 0 .532.124l.287.035.238.028.294.055.266.055.091.014.336.055.042.014.378.117.399.111.168.055c.126.041.259.097.385.152l.098.069c.091.035.182.055.266.055.175 0 .336-.069.455-.2.105-.118.161-.283.147-.449a.56.56 0 0 0-.203-.394l-.168-.118-.077-.048-.392-.29-.294-.249-.112-.097-.273-.242-.112-.159c-.028-.069-.056-.145-.07-.214-.014-.062-.021-.124-.028-.187l-.049-.284c-.035-.159-.049-.332-.042-.553a2.01 2.01 0 0 1 .049-.373l.042-.097.063-.166.14-.366.196-.518a1.86 1.86 0 0 0 .049-.187l.035-.145.098-.256.084-.207.133-.422.042-.152.098-.235.105-.256.147-.422c.035-.041.056-.041.084-.041.14-.007.273-.035.399-.055l.098-.014 1.267-.249.504-.083.238-.035.763-.159.189-.041h-.014c.35-.076.756-.173 1.141-.311a2.92 2.92 0 0 1 .35-.104l.189-.055.42-.145.105-.041.294-.097.28-.09.147-.055.42-.159c.287-.117.567-.263.833-.408l.147-.076.728-.359.511-.207.119-.041.63-.263.119-.041c.182-.069.378-.138.553-.235a2.98 2.98 0 0 0 .245-.159l.203-.138.154-.069.287-.138c.154-.076.28-.18.427-.29.266-.214.539-.387.798-.525l-.077.028.574-.311.119-.083c.112.131.224.235.35.325.147.111.315.201.469.29l.14.083c.308.18.637.332.952.484l.287.131.322.152.189.09.021.083c.028.097.098.187.154.27.154.214.294.38.448.505.112.097.245.173.378.249l.133.083.196.117.763.387.371.152.252.104.273.111.294.117a6.46 6.46 0 0 0 .644.221l.875.228.175.041.532.111c.077.007.147.021.217.035z" fill="#361faa"/><g fill="#0d003a"><path d="M33.405 25.184h.007l-.007-.007zm27.792-9.104c.014.007.021.014.021.014 0-.007-.007-.007-.021-.014zm.071.034c.007 0 .014.007.021.007.021.014.049.028.077.042l-.098-.048zm1.742-7.321c0 .014-.007.028-.014.041-.007.021-.007.035-.014.055.014-.028.021-.062.028-.097zm.042-.186c0-.014.007-.021.007-.035 0 .014 0 .021-.007.035zm.679-3.65c0-.007 0-.014.007-.021-.007.014-.007.014-.007.021zm-30.34 14.648zM26.792 9.409h.014zm-3.409.608c-.014 0-.021.007-.035.007.021 0 .028 0 .035-.007z"/><path d="M23.327 10.031h.021c-.007-.007-.014 0-.021 0z"/><use xlink:href="#B"/><path d="M34.427 14.151c.329 0 .616-.228.637-.567.014-.311-.245-.629-.574-.629s-.616.228-.637.567c-.014.318.245.629.574.629zm-.014 1.424c.329 0 .616-.228.637-.567.014-.311-.245-.629-.574-.629s-.616.228-.637.567c-.014.311.245.629.574.629zm-15.159 1.23c-.322.069-.532.394-.462.712 0 .014.007.028.007.035.07.318.399.525.721.456s.532-.394.462-.712c0-.014-.007-.028-.007-.034a.61.61 0 0 0-.588-.47c-.049 0-.091.007-.133.014zM32.979 4.556c.014 0 .028 0 .042.007-.014-.007-.028-.007-.042-.007zm1.224-.325l.056-.021c.014-.007.021-.014.035-.014-.028.014-.063.021-.091.035zm25.132.781l-.154.021.154-.021zm-2.155.505c-.014.007-.021.007-.028.014.007-.007.021-.007.028-.014zM59 14.006l.056-.041c.021-.013.042-.035.07-.048l-.126.09zm-6.103 7.583a.21.21 0 0 0-.049-.035l-.077-.055a.58.58 0 0 1 .126.09zM39.18 24.486c-.021.007-.049.007-.07.007h-.007c.021 0 .049-.007.077-.007zm25.342-.401l-.007.007.007-.007zm-34.343 5.482c-.014-.007-.021-.021-.035-.028-.028-.021-.063-.041-.091-.069l.126.097z"/><path d="M7.747 18.147l1.379.85 1.421.802 1.463.809.763.415.847.394.784.366a8.11 8.11 0 0 0 .952.394l.889.318.826.304.714.242.651.235v.007c.021.007.035.014.042.021-.014-.007-.021-.007-.035-.014.014.007.021.007.035.014l1.596.539.21.055 1.288.429c.371.111.763.18 1.141.27l1.267.256.574.083.63.062 1.274.145.686.048.175.449a8.42 8.42 0 0 0 .308.671l.28.532.399.65a6.94 6.94 0 0 0 .469.65c.14.173.308.332.462.491l.434.477c.147.166.308.297.476.436l.49.366.525.366.112.062c.021.014.042.035.063.048.056.035.119.055.175.083l.777.394c.245.131.511.228.777.325.21.076.427.166.644.207l.672.118.854.145.721.062.357.034.609.076.693.048.427.097c.126.028.259.048.385.007.105-.028.196-.083.273-.152.119-.076.189-.194.203-.318 0-.028-.014-.055-.021-.09.007-.201-.084-.387-.238-.525l-.462-.394c-.175-.166-.329-.353-.476-.539l-.399-.567a5.65 5.65 0 0 1-.294-.581 2.71 2.71 0 0 1-.14-.463l-.021-.429c0-.041-.007-.076-.014-.117.007-.159.028-.311.056-.47l.042-.145.042-.111a3.58 3.58 0 0 1 .245-.415 3.35 3.35 0 0 0 .217-.415c.091-.187.161-.38.238-.567a1.98 1.98 0 0 0 .112-.498l.021-.125a.51.51 0 0 0 .035-.111c.028-.083.042-.166.056-.249.007-.048.014-.104.014-.152.021-.007.042-.007.063-.014l.238-.048c.084.041.175.076.273.069l.602-.069.749-.131c-.042.007-.077.014-.119.014l1.015-.18c.336-.048.665-.152.994-.242.322-.09.658-.138.966-.263l.938-.415.665-.228c.273-.09.539-.207.805-.318l1.26-.574 1.155-.512 1.057-.546.994-.518.98-.477a1.38 1.38 0 0 1 .182-.055h.07l.077.021a1.39 1.39 0 0 1 .259.152c.105.076.224.131.329.207l.371.332c.182.173.392.332.595.484l.182.138-.126-.09.343.27a9.66 9.66 0 0 0 1.358.878l1.365.733c.511.283 1.064.512 1.624.684.525.159 1.057.283 1.603.332l1.225.076h.574l.553.042h.588l.644-.028c.084-.007.168-.021.252-.034h.252c.546-.021 1.085-.069 1.624-.152l.399-.069.455-.111.819-.18.7-.2a.34.34 0 0 1 .049-.021l.525-.117c.168-.048.357-.09.469-.242a.43.43 0 0 0 .035-.422c-.063-.124-.182-.2-.315-.249l-.483-.145-.511-.207-.42-.235c-.084-.048-.161-.117-.231-.173l-.441-.429c-.028-.028-.056-.062-.084-.097-.112-.138-.21-.284-.308-.422-.231-.373-.42-.76-.616-1.154-.112-.221-.245-.422-.378-.629l-.476-.712-.42-.594a5.62 5.62 0 0 0-.539-.539l.007.007c-.007-.007-.014-.014-.028-.021-.014-.014-.035-.028-.049-.048l.021.021a9.49 9.49 0 0 0-.658-.525 5.73 5.73 0 0 0-.742-.456c-.028-.021-.049-.028-.07-.041l-1.351-.643-.525-.221a4.91 4.91 0 0 0 .434-.311l.126-.09-.126.09.42-.311c.14-.111.245-.256.35-.394l.259-.408.238-.346.287-.36c.14-.18.245-.366.35-.567l.462-.912a8.04 8.04 0 0 0 .441-1.044c.098-.284.14-.574.182-.871.007-.055.028-.111.035-.166 0-.007.007-.021.007-.028l.196-.664c0-.007 0-.014.007-.021l.049-.214c0 .007-.007.021-.007.028 0-.014.007-.021.007-.035.007-.021.007-.048.014-.069 0 .014-.007.028-.007.041l.042-.173c0 .014-.007.028-.007.041l.168-.802c.049-.228.07-.463.098-.698.014-.152.049-.304.077-.449.035-.145.056-.29.077-.436l.154-.857.063-.249v-.028l.042-.2-.021.104c.035-.152.091-.304.154-.456l.224-.214c.133-.118.245-.304.273-.491.147-.104.203-.325.126-.484a.4.4 0 0 0-.224-.2c-.042-.014-.084-.021-.133-.021-.007 0-.021.007-.028.007a1.14 1.14 0 0 0-.238-.145c.028.014.056.028.084.035-.028-.014-.056-.028-.091-.035l-.056-.021c.014.007.035.014.049.021-.14-.055-.273-.097-.42-.097h-.056c-.14.007-.273.048-.413.069-.42.055-.826.173-1.246.249l-1.295.304-1.407.339-.651.207-.581.152-.308.083-.49.118c-.448.138-.882.318-1.302.518l-1.316.671-.609.29-.294.159-.294.214-.168.131-1.064.823-.875.823-.469.463-.525.498c-.301.311-.497.691-.742 1.044l-.161-.09c-.035-.062-.084-.118-.154-.145-.112-.055-.231-.097-.35-.145-.021-.007-.042-.021-.063-.028-.007-.007-.014-.007-.021-.014-.007 0-.014-.007-.021-.007-.007-.007-.021-.014-.028-.014l-.245-.138-.399-.228c-.133-.069-.28-.124-.42-.18l-.364-.138-.154-.069-.602-.387c-.259-.173-.532-.304-.805-.442l-.427-.228c-.175-.097-.364-.173-.546-.249-.217-.097-.441-.194-.672-.249 0-.014.007-.028.007-.041.021-.111.07-.207.105-.311.056-.159.063-.332.084-.498.035-.283.014-.581.028-.864l.042-.463.035-.47c0 .021-.007.048-.007.069l.056-.546.035-.29c0-.076.007-.159.014-.235l.07-.318.077-.38c.035-.069.077-.138.105-.214a3.53 3.53 0 0 0 .14-.38 2.12 2.12 0 0 1 .133-.207c.063-.09.112-.187.168-.283.091-.159.196-.318.266-.484a2.71 2.71 0 0 0 .119-.304l.021-.076a.58.58 0 0 0 .021-.159c.028-.097.028-.2-.021-.283-.028-.048-.07-.076-.105-.111-.021-.028-.035-.055-.049-.076C45.184.055 44.995 0 44.82 0c-.028 0-.049 0-.077.007l-.378.048-.574.104-.588.131-.588.145-.581.194-.623.228c.014-.007.021-.007.035-.014l-.322.131.147-.062-.49.194.056-.021-.322.138c.014-.007.021-.007.035-.014l-.567.256-.518.27-.511.242c-.189.09-.364.207-.546.304l-1.204.601-.581.27-.462.228-1.022.47-.385.138a4.39 4.39 0 0 0-.497.2l-.539.249a1.63 1.63 0 0 1-.385.145l-.322-.021-.413-.028-.371-.028-.525-.083a1.38 1.38 0 0 0-.378-.041l-.259.007c-.217.007-.427.035-.644.062-.462.055-.931.035-1.393.062l-.756.028h-.7c-.518 0-1.036-.007-1.547.041l-1.876.256c-.574.124-1.12.325-1.68.484l-1.708.463-1.617.463-1.68.484-1.211.387-1.204.525-.784.325a8.05 8.05 0 0 0-.77.394l-1.47.823-.693.463-.714.505c-.483.36-.931.754-1.386 1.148L8.09 12.312l-1.05.899-.406.366c-.042.035-.084.062-.126.09-.154.117-.294.256-.434.38l-.679.567c-.182.152-.343.332-.511.505-.049.028-.098.048-.14.09a.7.7 0 0 0-.133.207c-.042.048-.077.097-.091.173-.021.104 0 .214.063.304.035.048.077.083.126.111.014.014.021.035.035.048l.532.449s.007.007.021.014c.196.159.378.29.581.408l.595.353 1.274.871zm9.616-10.134l.889-.263 1.652-.477.791-.214 2.52-.705c.371-.131.749-.249 1.141-.339l1.022-.18 1.4-.104h.546c.077.035.168.062.259.069l.77.055c.245.028.49.014.735.035.462.041.931.076 1.393.048.21-.014.413-.041.623-.028l.644.028h.665c.245 0 .504-.041.742-.097l.112-.028.322.048c.07-.014.14-.035.21-.055a.59.59 0 0 0 .518-.159c.014-.014.021-.035.028-.048.028-.014.056-.021.077-.041l.28-.173.196-.145.007-.007c.028-.021.056-.028.084-.048l.77-.29 1.96-.92.602-.29.602-.304.539-.304c.168-.097.35-.18.525-.263l.497-.249.315-.118.623-.235c.007 0 .021-.007.028-.007l.63-.173.728-.221.903-.263-.252.359a6.15 6.15 0 0 0-.518.94 3.49 3.49 0 0 0-.168.477 3.66 3.66 0 0 0-.098.553c-.014.166-.035.325-.028.491a6.31 6.31 0 0 0 .063.636l.084.505.07.38.028.429c0-.035-.007-.069-.007-.111a2.26 2.26 0 0 1 .007.221l-.105.318a2.97 2.97 0 0 1-.112.429c-.014.021-.021.041-.021.055-.007.007-.014.021-.021.028-.063.097-.077.221-.07.339l-.042.332v.021c.091.035.189.062.28.09.021.021.042.048.07.055.154.069.175.069.343.09.035.007.07.007.112.007l.175.055c.035.014.063.028.098.035.021.007.028.014.035.014.021.007.028.007.028.014l.966.373.168.062.343.173c.301.138.588.311.854.505l.469.304c.168.097.343.166.511.249l.399.2c.161.083.329.145.504.207.224.097.434.235.637.359l.231.131.126.076c.063.035.126.048.189.069.014.007.028.014.042.014l.105.076c.14.083.336.117.49.062a.48.48 0 0 0 .105-.048.42.42 0 0 0 .161-.034c.105-.048.154-.124.203-.221l.133-.263.217-.29.301-.47c.028-.035.056-.076.091-.111l.525-.512c.112-.104.21-.214.315-.325l.315-.297 1.183-1.072.679-.498c-.042.028-.077.062-.119.09l.224-.166c.189-.138.413-.242.623-.346l.686-.332.882-.449a.72.72 0 0 0 .266-.069l.203-.069.259-.104.252-.104.336-.145.504-.159.581-.104.294-.041.448-.055.343-.048.448-.055c-.021 0-.035.007-.056.007l.483-.041.525-.041.49-.035.49-.076a2.1 2.1 0 0 0 .301-.055c-.007.014-.021.035-.028.048a3.11 3.11 0 0 0-.189.442l-.133.401a2.41 2.41 0 0 0-.077.449l-.126.684c-.021.214-.014.429-.014.643l-.035 1.279c-.028.173-.077.346-.119.512a4.45 4.45 0 0 0-.091.532c-.056.332-.161.657-.287.968l-.399.823-.245.477-.224.394c-.028.041-.056.083-.091.117l-.455.588-.371.574c-.049.055-.105.104-.161.159l-.28.2-.182.138c-.175.124-.371.214-.56.318a2.13 2.13 0 0 0-.385.27c-.084.069-.154.159-.224.256-.056.042-.091.097-.119.152-.021.021-.056.034-.07.048-.112.111-.175.263-.175.422s.063.311.175.422c.126.124.259.152.427.173l.147.021.553.097a3.07 3.07 0 0 1 .427.138l.896.436.854.56a6.58 6.58 0 0 1 .518.47l.532.539.602.622a6.49 6.49 0 0 1 .567.595c.224.311.357.678.539 1.016.231.442.546.823.882 1.189l.798.802c.021.014.035.028.056.048l-1.015.221c.035-.007.07-.007.112-.014l-.357.048-.7.055-.742.035-1.414.007h-1.386c-.203 0-.406-.028-.609-.041l-.448-.041c-.322-.042-.644-.131-.952-.214a7 7 0 0 1-.91-.304 9.33 9.33 0 0 1-.833-.415l-.854-.449c-.567-.304-1.127-.629-1.645-1.016l-.294-.228.007.007-.007-.007a.84.84 0 0 0-.098-.069l-.007-.007-.441-.366-.385-.339c-.14-.111-.28-.214-.434-.304-.098-.055-.189-.138-.294-.187-.14-.062-.266-.145-.42-.18-.014-.007-.028 0-.042-.007a.46.46 0 0 0-.238-.035c-.147-.007-.287-.007-.434.021-.091.014-.182.055-.266.09l-.448.201-.623.311-.721.366-.749.401c-.49.277-1.015.512-1.533.733l-1.666.747-.679.249c-.091-.021-.189-.028-.28.007-.224.069-.413.207-.623.311l-.581.187c-.203.076-.413.131-.63.173l-.483.076c-.126.035-.252.062-.378.083l-.441.055-.308.055-.455.062-.322.062c-.301.028-.609.014-.91.021-.35.007-.735.021-1.029.228a1.16 1.16 0 0 0-.392.429 1.77 1.77 0 0 0-.161.456 9.17 9.17 0 0 0-.175.975l.021-.159a2.56 2.56 0 0 1-.189.595c-.07.159-.154.325-.245.477l-.168.276c-.077.131-.126.277-.189.415l-.112.277a1.74 1.74 0 0 0-.098.429 1.34 1.34 0 0 0 .014.29c.014.111.014.221.021.339.007.27.035.539.112.795a4.71 4.71 0 0 0 .315.753 3.75 3.75 0 0 0 .406.684l.196.263-.525-.042c.021 0 .035.007.056.007l-.546-.062c-.161-.021-.329-.021-.49-.035l-1.05-.194c-.175-.028-.329-.083-.497-.138l-.497-.18-.525-.263-.56-.277c-.196-.104-.385-.228-.56-.359l-.483-.339-.112-.083c-.217-.173-.399-.394-.588-.608l-.637-.684c-.245-.332-.455-.684-.679-1.037-.098-.159-.182-.332-.266-.498l-.21-.415-.21-.539c-.049-.124-.098-.263-.175-.373a1.2 1.2 0 0 0-.364-.36c-.336-.235-.742-.214-1.134-.256l-.448-.076-.588-.076-.56-.076-.448-.041-.49-.069-.483-.041c-.469-.076-.931-.214-1.4-.318l-.777-.2-.791-.194c-.539-.145-1.057-.353-1.589-.525l-1.456-.511-1.134-.415-1.239-.449-.672-.325-.833-.38c-.532-.249-1.036-.546-1.547-.836l-1.393-.767-1.477-.843-.84-.532-.903-.602-1.47-.933a1.47 1.47 0 0 1 .21-.207l.595-.505.602-.505.63-.567 1.162-.995 1.253-1.099.371-.304.945-.574.511-.325.56-.297.581-.304.581-.318.539-.304.532-.283.896-.47.007-.007h.014c.021-.007.035-.021.056-.028h.007l.567-.263.406-.187c.049.021.133-.007.217-.035zM53.54 20.587l.112.083a.74.74 0 0 1-.084-.069c-.014-.007-.021-.014-.028-.014zm-6.109-5.026c-.021.014-.042.035-.063.048-.007.007-.014.014-.021.014l.084-.062zM36.015 8.849l.119.021c.014 0 .028 0 .042.007l-.161-.028z"/><path d="M16.531 12.084l-.973.339c-.385.131-.742.325-1.106.519l-.476.249-.889.401.098-.041c-.504.214-.973.505-1.456.76-.329.173-.644.353-.945.574.021-.014.042-.028.056-.048l-.126.09-.07.041c-.049.028-.084.055-.126.09l-.133.083c-.133.097-.231.194-.28.359a.58.58 0 0 0 .063.456c.028.041.056.083.091.118.049.083.119.145.21.194l1.897.933.917.435.567.221c.014.007.028.014.049.021.105.048.217.083.322.124l.651.304.917.394 1.54.588c.434.166.882.256 1.316.408l.651.235.637.187 1.505.387.749.187.798.159.875.145.875.18c.175.035.357.048.532.069l.434.048c.259.021.518.035.777.021l.714-.028c.224.007.448.041.665.062.203.021.406.021.609.028l.693.048 1.358.014c.518 0 1.036-.062 1.547-.131l-.161.021.539-.041.518-.041.525-.055.546-.041c.168-.021.336-.021.497-.035l.665-.076c.308-.048.588-.187.896-.235.168-.021.336-.048.504-.097l.56-.131 1.232-.311.602-.173.602-.228c.189-.062.392-.09.588-.138.175-.048.343-.131.511-.207.112-.041.224-.069.343-.104.154-.048.308-.118.455-.18l.609-.249.637-.29.343-.145.322-.166.693-.352.672-.429c.203-.138.385-.311.574-.463l.546-.373.462-.38.434-.339.224-.166.133-.104c-.021.014-.042.034-.063.048l.098-.076.196-.145c.021-.021.049-.034.07-.055l.091-.041c.119-.062.182-.138.259-.242a.55.55 0 0 0 .084-.311c-.007-.117-.021-.166-.056-.249-.007-.187-.133-.346-.315-.387l-.07-.021-.336-.242-.588-.387-.616-.422-.595-.394c-.014-.007-.021-.021-.035-.028-.028-.021-.056-.034-.084-.055l-.63-.429-.588-.38c-.231-.138-.476-.242-.721-.353l-.553-.297-.7-.318-.665-.304-.217-.104-.469-.235-.553-.249-1.064-.484a9.71 9.71 0 0 0-1.302-.463l-.777-.18-.784-.118-.875-.09-.882-.014h-1.631l-.833.041-.392.035-.476.035-1.708.228-.182.014-.406.035-.742.076-.903.118c-.014.007-.035.007-.049.014-.021.007-.042.007-.063.014s-.035.007-.056.014c-.007 0-.014 0-.021.007-.007 0-.014 0-.021.007-.014 0-.035.007-.049.007.007 0 .014 0 .021-.007h-.091l.021-.007h-.007.007c-.021 0-.042.007-.056.007-.028.007-.063.014-.091.014l-.371.076-.119.021-.364.069.105-.021c-.014 0-.035.007-.049.007.014 0 .035-.007.049-.007l-.203.041c-.056.014-.119.021-.182.035l-.378.062c.014 0 .028-.007.035-.007l-.756.124c-.021.007-.042.007-.063.014-.014 0-.028.007-.042.007-.084.021-.175.035-.259.048.021 0 .035-.007.049-.014-.021.007-.035.007-.056.014.021-.007.035-.007.056-.014l-.273.055c.021-.007.035-.007.056-.014-.056.014-.112.021-.161.028-.021 0-.042.007-.056.007.014 0 .035-.007.049-.007-.021.007-.042.007-.063.014h-.007c-.007 0-.014 0-.021.007-.021.007-.021.007-.028.007h-.007.007c-.021.007-.035.007-.056.014-.028.007-.056.007-.084.014l-.098.021c-.007 0-.014 0-.021.007h-.049c-.007 0-.021.007-.028.007.007 0 .014 0 .021-.007-.014 0-.035.007-.049.007h.028l-.133.021c-.007 0-.021 0-.028.007l-.21.042c-.028.007-.056.014-.084.014-.014 0-.028.007-.042.007.007 0 .014 0 .028-.007h-.007c-.007 0-.014 0-.021.007l-.21.041c-.021.007-.035.007-.056.014.007 0 .021-.007.035-.007-.133.028-.252.076-.385.111l-.091.021-.217.048-.91.283-.518.152-.546.187-1.12.353-.175.055-.077.021c-.035.007-.063.021-.098.035l-.756.249-.35.131-.315.111-.462.173zm15.327-2.081l.889-.042c0 .007-.007.021-.007.028-.014.311.245.629.574.629.301 0 .553-.194.616-.484a8.11 8.11 0 0 1 .539 1.037l.112.318c-.091-.062-.189-.111-.301-.111-.329 0-.616.228-.637.567-.014.311.245.629.574.629.28 0 .518-.166.595-.422a9.45 9.45 0 0 1 .259 1.154c.063.456.084.912.07 1.369v.194l-.063.74c-.056.366-.133.733-.231 1.085-.007.028-.014.048-.014.069-.007.035-.007.048-.014.069 0 .007 0 .014-.007.021-.007.014-.007.035-.014.048 0 .007-.007.014-.007.028-.007.014-.007.028-.014.035-.007.014-.007.021-.014.034 0 .007-.007.014-.007.028-.007.014-.007.035-.014.048v.007l-.07.187c-.105-.125-.252-.2-.42-.2-.112 0-.21.034-.301.076-.105-.166-.266-.29-.469-.29-.329 0-.616.228-.637.567-.014.256.168.505.413.588-.301.028-.553.242-.567.553s.245.629.574.629.616-.228.637-.567c.014-.256-.168-.505-.413-.588a.53.53 0 0 0 .231-.069c.105.166.266.29.469.29.028 0 .049-.007.07-.014l-.469.836v.007l-.308.442c-.007.007-.007.014-.014.021l-.056.076.014-.007-.175.214c-.056.069-.091.138-.105.221-.035.007-.063.007-.098.014l-.231.014c.035-.069.056-.145.063-.228.014-.311-.245-.629-.574-.629s-.616.228-.637.567a.59.59 0 0 0 .119.366l-.819.055-.588.007c.035-.069.056-.138.056-.221.014-.228-.119-.449-.322-.553.588-.415 1.106-.94 1.519-1.542.077.221.287.401.539.401.329 0 .616-.228.637-.567.014-.311-.245-.629-.574-.629-.056 0-.105.014-.161.028a5.98 5.98 0 0 0 .462-1.313c.098.187.28.339.497.339.329 0 .616-.228.637-.567.014-.311-.245-.629-.574-.629a.66.66 0 0 0-.448.173c.056-.546.042-1.078-.042-1.604a.5.5 0 0 0 .28.09c.329 0 .616-.228.637-.567.014-.311-.245-.629-.574-.629a.63.63 0 0 0-.532.283c-.119-.373-.273-.733-.462-1.078.049-.076.084-.166.091-.27.014-.311-.245-.629-.574-.629-.035 0-.063.014-.098.014l-.322-.38c.112-.076.189-.187.231-.318l.574-.048zm1.491 9.657zm-.007 0c-.007.007-.007.014-.014.021.007-.007.014-.014.014-.021zm-10.687-.436a5.89 5.89 0 0 0 .735.491l-.763-.145-.245-.055a.53.53 0 0 0 .273-.29zm-2.296-6.775a.67.67 0 0 0 .427-.152c-.14.36-.259.726-.329 1.113a6.43 6.43 0 0 0-.091.885c-.091-.062-.189-.104-.301-.104-.329 0-.616.228-.637.567-.014.311.245.629.574.629a.68.68 0 0 0 .399-.138c.035.249.084.491.147.733-.21.083-.371.27-.378.512-.014.311.245.629.574.629.077 0 .147-.014.21-.035.238.505.546.968.917 1.39-.203.083-.357.263-.371.505-.007.124.042.249.105.352l-.413-.104c.126-.097.217-.242.224-.422.014-.311-.245-.629-.574-.629s-.616.228-.637.567a.55.55 0 0 0 .035.235l-.21-.062c-.07-.104-.161-.187-.294-.235a.53.53 0 0 0-.182-.028.57.57 0 0 0-.21.041l-.28-.097c-.007 0-.014-.007-.021-.007l-.112-.207c-.014-.035-.035-.069-.049-.097l-.063-.118-.189-.401c-.007-.007-.007-.021-.014-.028-.007-.014-.007-.021-.014-.028-.21-.518-.357-1.037-.462-1.569.329 0 .616-.228.63-.567.014-.311-.245-.629-.574-.629a.74.74 0 0 0-.21.035l-.014-.802a.56.56 0 0 0 .427.214c.287 0 .532-.18.602-.449.042.007.077.028.112.028.315.014.637-.242.637-.567v-.076a.6.6 0 0 0-.574-.622h-.028c-.287 0-.574.228-.595.525-.035-.007-.063-.021-.091-.021a.67.67 0 0 0-.441.166l.112-.574.945-.304.84-.242c.119.097.273.187.441.187zm-1.736 5.275h0zm-1.337-1.777c.105.65.28 1.279.518 1.88.007.014.014.028.021.048l.028.069v.007l.091.214c.007.021.021.048.035.069l-.399-.131-1.687-.643-1.008-.47-1.029-.408-1.26-.615-.714-.346c-.014-.007-.028-.014-.035-.021l.476-.256 1.337-.712 1.085-.484 1.337-.629 1.204-.449c-.056.366-.098.733-.112 1.106-.028.595.021 1.189.112 1.77zm11.317 4.244l.602-.256a.6.6 0 0 0 .077.29h-.077l-.602-.035zm6.817-.463l-1.127.173-.147.021c.014-.014.021-.028.028-.034l.287-.408c.014-.021.021-.021.021-.028l.462-.809c.014-.021.014-.035.021-.042.196-.387.364-.788.504-1.203l.224-.809a9.6 9.6 0 0 0 .245-1.839c.028-.657-.028-1.313-.147-1.956-.007-.035-.007-.062-.014-.083-.007-.034-.007-.055-.014-.076 0-.007 0-.014-.007-.021-.007-.021-.007-.048-.014-.069 0-.007-.007-.021-.007-.028 0-.014-.007-.028-.007-.041s-.007-.021-.007-.035-.007-.028-.007-.041c-.007-.021-.014-.041-.014-.069 0-.007 0-.014-.007-.021-.098-.408-.231-.809-.385-1.203-.007-.021-.014-.028-.014-.034a8.55 8.55 0 0 0-.329-.726c-.014-.014-.014-.021-.021-.035 0-.007-.007-.014-.007-.021-.007-.014-.014-.035-.028-.048v-.007c0-.007-.007-.014-.007-.021-.007-.021-.014-.021-.014-.028-.014-.021-.021-.035-.028-.048-.007-.007-.007-.014-.014-.021-.028-.055-.063-.111-.098-.166l1.05.062.665.097.987.214c.385.097.749.249 1.113.394l.665.311.805.36.714.366.819.38 1.526.719c.441.214.826.518 1.239.781l.693.463.63.429.574.387c.014.014.035.021.049.034-.014.014-.035.028-.049.041.014-.014.035-.028.049-.041-.014.007-.021.021-.035.028.014-.007.021-.021.035-.028l-.672.512-.497.401c-.133.097-.28.173-.413.27l-.511.422c-.133.097-.273.18-.413.27l-.49.297c-.161.09-.336.152-.497.235l-.49.242.147-.062-.511.214-.392.18-.616.249c-.133.055-.273.097-.413.138-.161.048-.315.117-.469.187-.315.117-.651.152-.966.27l-.546.207c-.189.062-.385.097-.574.152l-.56.145-.532.131-.959.214-.273.048c-.049.007-.091.028-.133.041-.042.007-.056.014-.077.014zm3.128-9.008c.042.021.084.035.126.048-.028-.007-.049-.021-.077-.035-.014-.007-.028-.007-.049-.014zm7.685 5.752c.021-.021.049-.035.07-.055.007-.007.021-.014.028-.021-.028.028-.063.048-.098.076zM26.917 9.381zm-.07.014h0z"/><path d="M45.52 15.52c.021-.021.049-.035.07-.055.014-.014.035-.028.049-.041a.8.8 0 0 1-.119.097zm-6.551-5.911c.007.007.021.007.028.014a.86.86 0 0 1 .119.048l-.147-.062zm8.083 6.242c-.014.014-.028.021-.042.028l-.084.062.126-.09zM.077 2.931L0 2.89l.077.041z"/></g></g><defs><clipPath id="A"><path fill="#fff" d="M0 0h68v32H0z"/></clipPath><path id="B" d="M32.468 11.448c.329 0 .616-.228.637-.567.014-.311-.245-.629-.574-.629s-.616.228-.637.567c-.014.318.245.629.574.629z"/></defs></svg>