<svg xmlns="http://www.w3.org/2000/svg" xmlns:xlink="http://www.w3.org/1999/xlink" width="106" height="91" fill="none" xmlns:v="https://vecta.io/nano"><g clip-path="url(#A)"><g fill="#361faa"><path d="M92.61 77.87c.16.03.31.07.47.08l.51.07 1.23.13.76.02 1.2-.04 1.55-.11a3.98 3.98 0 0 0 .34-.05l.35-.05.44-.02h.34c.29 0 .58-.04.86-.08l.19-.03.52-.05a4.05 4.05 0 0 0 .48-.09c.05 0 .1-.01.15-.01.13 0 .26-.03.38-.06l.1-.03v.01a2.31 2.31 0 0 0 .27-.06c.37-.11.63-.51.59-.91-.04-.47-.42-.73-.74-.86-.26-.11-.54-.18-.81-.25l-.34-.09-.29-.12.04-.07c.11-.24.08-.45.04-.66-.04-.2-.25-.41-.39-.55l-.19-.19-.57-.71c-.31-.38-.58-.73-.8-1.12l-.22-.56-.13-.37c-.17-.43-.45-.75-.75-1.07-.52-.55-1.14-1.04-2.02-1.6l-.75-.55c-.42-.31-.89-.57-1.34-.82l-.63-.32-.62-.31-.94-.56.03.03-.08-.06c.23-.08.45-.2.66-.33.18-.1.33-.22.48-.33l.16-.12.16-.11c.15-.1.3-.21.44-.33a6.37 6.37 0 0 0 1.21-1.37c.23-.36.41-.75.59-1.14l.18-.39.22-.45.41-.85.31-.65c.11-.24.2-.49.26-.67l.19-.51c.05-.12.12-.23.18-.34l.06-.1a4.82 4.82 0 0 0 .39-.93l.02-.06.02-.07h.01l.13-.4.04-.12.2-.71c.05-.21.09-.43.12-.65l.04-.29.08-.47.25-1.39.2-.88.07-.42c.01-.11.03-.21.05-.32l.06-.37.06-.38c.02-.11.05-.21.08-.31.12-.43-.09-.87-.51-1.11-.13-.07-.3-.11-.51-.11-.14 0-.29.02-.42.03l-.65.06-.19.01-1.02.05h-.3c-.14 0-.28.01-.42.03H95l-.35.03-.32.03c-.36.03-.72.13-1.07.22l-.37.09-.85.21-.29.1-.51.17-.52.2-.15.06-.64.21-.08.02a11.94 11.94 0 0 0-1.37.51c-.36.16-.69.38-1 .59l-.35.23-.26.16c-.18.11-.36.21-.52.34l-.75.54c-.16.11-.31.23-.46.36l-.19.15-.73.62-.31.25-.39.32-.6.53-.22.2-.24.2.07-.05-.55.51-.06.06-.81.59-.48.33c-.28.2-.53.42-.75.66-.06.06-.12.12-.17.19l-.29.31-.34.29a1.11 1.11 0 0 0-.19.23l-.73-.39-1.37-.58c-.54-.22-1.1-.4-1.65-.53l-.24-.05-.94-.23-.22-.08-.52-.18a8.86 8.86 0 0 1-.93-.38c-.16-.08-.33-.14-.5-.21l-.43-.18-.63-.3-.26-.13c-.27-.13-.55-.22-.86-.32-.04-.1-.04-.2-.05-.3v-.1l-.01-.1-.02-.41c.02-.18.05-.35.11-.52.07-.22.07-.46.08-.69l.01-.52-.01-.28-.01-.21a6.7 6.7 0 0 0-.08-.77l-.05-.4-.09-1.22-.03-.38-.03-.59a3.75 3.75 0 0 1 .11-.6l.12-.22.21-.35.13-.15c.21-.17.4-.31.5-.52a.89.89 0 0 0 .04-.66c-.07-.2-.21-.36-.44-.5-.11-.06-.24-.1-.38-.1-.35 0-.71.2-1 .37l-.07.04-.18.1-.56.31-.22.1-.53.25a.77.77 0 0 0-.5-.18h-.09c-.55.07-1.05.34-1.53.61l-.29.16c-.41.18-.86.29-1.29.4l-.68.18c-.36.11-.7.26-1.08.42l-1.17.56c-.73.39-1.33.98-1.91 1.55l-.46.47-.07.07c-.15.15-.31.32-.4.51-.26.02-.52.08-.81.15l-.47.1c-.06.01-.11.03-.17.05l-.07.02c-.19.03-.39.03-.58.04l-.27.01c-.11 0-.21.01-.32.02l-.54.02h-.08c-.96-.06-1.87-.21-2.96-.4-.59-.1-1.11-.15-1.61-.15h-.17a4.71 4.71 0 0 0-.53.03l-.65.03h-.15l-.98-.04-.62.03c-.63.06-1.26.21-1.82.35l-1.41.38-.53.17-1.02.3-.84.18-.78.17-.16.03-.65.13c-.21.04-.42.1-.62.16-.12-.09-.25-.16-.39-.18-.05-.02-.11-.02-.17-.02-.15 0-.32.05-.46.08l-.07.02-.12.03c-.06.02-.12.03-.18.05l-.3.09-.39.12-1.34.45-1.97.78-.5.21-.87.4-.34.16-1.24.6-1.38.78-.87.5-.67.4-.8.47.2-.09c-.68.33-1.32.75-1.94 1.16l-.07.05-.53.36-.4.27-.69.44-.26.17-.9.6-.8.57-.26.18-.48.35-.66.5-.78.53-1.55 1.09-.89.66-.17.11-.18.12-.1.06c-.3.18-.61.38-.66.76a.94.94 0 0 0 .32.85c.09.08.21.14.31.2l.35.2c.26.19.5.41.73.62.23.22.52.43.91.66a10.35 10.35 0 0 0 1.85.84l.05.01h.01l-.01-.01h.02v-.01c.02.02.05.03.07.04l.3.1.08.03a5.77 5.77 0 0 1 1.15.53c.19.14.39.32.6.56l-.04-.06c.12.15.25.28.38.42l.2.22.71.72c.06.05.11.11.17.16s.11.11.17.16c.13.12.28.21.43.3l.05.03c.3.2.65.43 1.02.59l1.01.43.51.21.5.21c.27.13.56.29.86.47l.74.48.61.31.07.03c.23.12.45.22.68.31.23.08.45.18.67.28l.12.06.57.25.7.29a3.99 3.99 0 0 0 .92.31l.2.04.56.12.2.05.33.13c.21.09.43.16.65.23l.51.15.55.15.14.04.21.07.16.05.58.23a5.54 5.54 0 0 0 .68.25l.51.2.84.32c.53.17 1.09.19 1.64.21h.09l.73.06.53.08.29.05.46.05.3.03.79.09 1.45.13.16.01.28.02.72.05h.06l.23-.01.06.15.32.67c.07.13.17.24.26.35l.05.05c.12.14.21.28.3.43.22.44.39.84.53 1.22.15.41.33.77.52 1.07l.28.38.13.17.16.21a1.95 1.95 0 0 1 .17.23l.14.21c.07.11.14.23.22.32.14.16.28.29.43.42l.14.13.52.42c.11.07.21.16.31.24l.31.24c.25.17.51.33.82.49l.09.05c.17.09.34.17.52.24.3.11.59.16.9.21.22.04.42.1.62.15l.24.07.33.08.43.11a6.35 6.35 0 0 0 .76.18l.41.05.34.04.42.08.38.08.13.02.48.08.06.02c.18.06.35.13.54.17l.57.16.24.08a6.3 6.3 0 0 1 .55.22l.15.06a1.08 1.08 0 0 0 .38.08.86.86 0 0 0 .65-.29c.15-.17.23-.41.21-.65-.02-.23-.12-.43-.29-.57l-.24-.17-.11-.07-.56-.42-.42-.36-.16-.14-.39-.35-.16-.23a1.86 1.86 0 0 1-.1-.31c-.02-.09-.03-.18-.04-.27l-.07-.41c-.05-.23-.07-.48-.06-.8.01-.2.03-.37.07-.54l.06-.14.09-.24.2-.53.28-.75a2.68 2.68 0 0 0 .07-.27l.05-.21.14-.37.12-.3.19-.61.06-.22.14-.34.15-.37.21-.61c.05-.06.08-.06.12-.06.2-.01.39-.05.57-.08l.14-.02 1.81-.36.72-.12.34-.05 1.09-.23.27-.06h-.02c.5-.11 1.08-.25 1.63-.45.16-.06.33-.11.5-.15l.27-.08.6-.21.15-.06.42-.14.4-.13.21-.08.6-.23a11.97 11.97 0 0 0 1.19-.59l.21-.11 1.04-.52.73-.3.17-.06.9-.38.17-.06c.26-.1.54-.2.79-.34.12-.07.24-.15.35-.23l.29-.2.22-.1.41-.2c.22-.11.4-.26.61-.42.38-.31.77-.56 1.14-.76l-.11.04.82-.45.17-.12c.16.19.32.34.5.47.21.16.45.29.67.42l.2.12c.44.26.91.48 1.36.7l.41.19.46.22.25.12.03.12c.04.14.14.27.22.39.22.31.42.55.64.73.16.14.35.25.54.36l.19.12.28.17 1.09.56.53.22.36.15.39.16.42.17c.31.13.62.23.92.32l1.25.33.25.06.76.16a1.06 1.06 0 0 0 .33.11zM17.52 42.69a5.54 5.54 0 0 0 .57-.21c.33-.14.58-.44.72-.88.07-.2.06-.45.06-.66l-.03-.62-.03-.53-.03-.62-.11-2-.01-1.09v-.43l-.01-.81c-.01-.16-.03-.32-.07-.48-.04-.18-.14-.35-.23-.51a4.4 4.4 0 0 0-.3-.45l-.06-.09a8.85 8.85 0 0 0-.88-1.07c-.42-.44-.9-.83-1.35-1.21l-.55-.47-.1-.09-.92-.77a9.71 9.71 0 0 0-1-.65l-.98-.51-.86-.4-.05-.03-.32-.16c-.11-.05-.23-.09-.34-.13l-.08-.03c-.09-.06-.17-.09-.24-.11l-.07-.03a.71.71 0 0 0-.21-.03c-.11 0-.21.02-.31.04-.22.04-.42.23-.52.4a.77.77 0 0 0-.1.29 4.39 4.39 0 0 0-.55.35l-.57.47-.2.17-.52.34-.49.33c-.43.31-.78.64-1.09 1.03-.22.28-.48.56-.79.86l-.28.27-.49.46-.08.06c-.21.17-.41.31-.57.49l-.06.07c-.28.01-.62.14-.76.44-.11.23-.16.48-.22.73l-.04.2-.23 1.05-.2.94-.31 1.52c-.14.83-.22 1.64-.23 2.41l-.04.86c-.03.32 0 .65.09 1.02a1.69 1.69 0 0 0 .48.84c.18.17.41.3.73.41.11.04.23.07.34.1l.45.14c.32.15.62.36.92.55l.11.08.6.37c.21.12.39.24.61.41.25.19.51.39.83.55.29.15.61.29.96.43l.5.18.76.29.33.13c.11.04.21.05.33.05.25 0 .5-.09.73-.19s.44-.23.65-.35l.24-.14 1.02-.63.93-.57.12-.07.8-.48.4-.27.62-.41c.58-.36 1.2-.64 1.8-.9l.78-.25zM5.4 12.13l.53.34.41.27.56.33.33.19c.04.02.08.05.12.08l.14.09c.22.13.47.2.75.23.04 0 .08.01.12.01.21 0 .44-.05.72-.16.36-.14.7-.31 1.04-.49l.74-.36c.29-.12.61-.24.95-.31a6.04 6.04 0 0 0 .93-.22c.08-.02.15-.05.23-.09a.92.92 0 0 0 .47-.24l.05-.06a1.42 1.42 0 0 0 .47-.85c.04-.25.06-.47.05-.68 0-.13-.01-.27-.03-.41l-.02-.24-.03-.33-.06-.8-.02-1.17.03-.61.02-.25c.02-.33-.04-.66-.17-1-.1-.25-.2-.5-.34-.73-.25-.41-.65-.7-1.1-.81-.07-.02-.15-.03-.22-.03-.04 0-.08 0-.12.01l-.05-.13-.06-.13-.27-.59a1.59 1.59 0 0 0-.13-.22c-.04-.06-.07-.13-.11-.19l-.04-.07-.2-.37c-.04-.13-.07-.21-.12-.3-.13-.26-.46-.45-.77-.45h-.01c-.21 0-.34.06-.54.15a2.37 2.37 0 0 0-.35.19l-.21.11-.76.45-.91.68.08-.05-1.09.94-.44.39c-.26.23-.46.45-.66.7-.06.08-.11.17-.17.26l-.11.17-.08.1c-.16.2-.26.37-.37.64-.08.17-.1.38-.12.56l-.07.66-.03.41-.06.67-.04.36-.08.8-.03.27-.03.36c-.02.35.09.73.29 1.04.23.34.53.61.99.88zm21.24 7.42l.13.98c.05.22.12.44.23.66.07.15.21.3.34.42l.13.12.19.18c.24.21.45.45.67.68l.12.13.67.68.17.17c.08.08.15.17.23.26.24.33.42.62.56.92l.14.41.09.25c.06.18.13.35.23.51.23.35.57.56.9.56a.75.75 0 0 0 .26-.05c.3-.11.49-.32.69-.54l.12-.13c.23-.25.51-.46.77-.67a5.43 5.43 0 0 1 1.02-.63c.18-.09.35-.19.52-.3.15-.1.31-.2.47-.28.09-.04.19-.07.28-.1.22-.06.36-.16.53-.29.14-.11.22-.3.28-.46l.02-.06c.06-.16.08-.33.11-.5l.08-.59.02-.19-.01.04.03-.16.05-.34.02-.14v-.17l.05-.28.06-.5c.02-.12.03-.24.04-.36l.13-.8.03-.15c.04-.2.08-.43.02-.65-.1-.34-.32-.53-.52-.68-.14-.11-.3-.19-.45-.27-.35-.19-.65-.39-.95-.58l-.46-.3a4.65 4.65 0 0 0-.73-.38l-.3-.11-.09-.03c-.2-.1-.42-.23-.63-.38l-.13-.12c-.11-.1-.22-.2-.35-.28-.12-.08-.27-.12-.42-.12a.92.92 0 0 0-.77.43l-.06.12-.47.14-.63.03-.76.04c-.27.03-.56.07-.84.17-.19.07-.38.16-.57.25-.08.03-.16.05-.24.06l-.22.03c-.19.03-.37.12-.54.27-.28.24-.33.6-.36.91-.03.27-.03.56-.01.85l.1 1.17.01.15z"/></g><g fill="#0d003a"><path d="M55.9 80.22h.01l-.01-.01v.01zm39.71-13.17c.02.01.03.02.03.02s-.01-.01-.03-.02zm.1.05c.01 0 .02.01.03.01a1.09 1.09 0 0 0 .11.06c-.05-.02-.1-.05-.14-.07zm3.52-16.15v-.02c.01 0 0 .01 0 .02z"/><path d="M98.2 56.52c0 .02-.01.04-.02.06-.01.03-.01.05-.02.08.02-.04.03-.09.04-.14zm.06-.27c0-.02.01-.03.01-.05 0 .01 0 .03-.01.05zm.97-5.28c0-.01 0-.02.01-.03-.01.01-.01.02-.01.03zm-52.72 6.42l-.01.01v-.01h.01zm9.37 14.76c.01-.01.01-.01.01-.02 0 .01-.01.02-.01.02zm-14.3-13.86c-.02 0-.03.01-.05.01.03-.01.04-.01.05-.01z"/><use xlink:href="#B"/><path d="M57.36 64.27c.47 0 .88-.33.91-.82.02-.45-.35-.91-.82-.91s-.88.33-.91.82c-.02.46.35.91.82.91zm-.02 2.05c.47 0 .88-.33.91-.82.02-.45-.35-.91-.82-.91s-.88.33-.91.82c-.02.46.35.91.82.91zm-21.66 1.79c-.46.1-.76.57-.66 1.03 0 .02.01.04.01.05.1.46.57.76 1.03.66s.76-.57.66-1.03c0-.02-.01-.04-.01-.05-.09-.4-.45-.68-.84-.68-.06 0-.13 0-.19.02zm19.61-17.72c.02 0 .04 0 .06.01-.02-.01-.04-.01-.06-.01zm1.75-.47l.08-.03c.02-.01.03-.02.05-.02-.04.01-.09.03-.13.05zm35.91 1.12l-.22.03c.07 0 .15-.02.22-.03zm-26.31-5.7l.01-.01-.01.01zm23.23 6.43c-.02.01-.03.01-.04.02.01 0 .03-.01.04-.02zm2.6 12.28c.03-.02.05-.04.08-.06s.06-.05.1-.07l-.18.13zm-8.72 10.98c-.02-.02-.05-.04-.07-.05l-.11-.08c.07.04.13.08.18.13zm-19.6 4.19c-.03.01-.07.01-.1.01h-.01c.03 0 .07-.01.11-.01zm-12.86 7.34c-.02-.01-.03-.03-.05-.04-.04-.03-.09-.06-.13-.1l.18.14z"/><path d="M19.24 70.04l1.97 1.23 2.03 1.16 2.09 1.17 1.09.6 1.21.57 1.12.53c.44.23.9.4 1.36.57l1.27.46 1.18.44 1.02.35.93.34v.01c.01 0 .02 0 .02.01.01 0 .03.01.04.02-.02-.01-.03-.01-.05-.02.02.01.03.01.05.02l2.28.78.3.08 1.84.62c.53.16 1.09.26 1.63.39l1.81.37.82.12.9.09 1.82.21.98.07.25.65a12.03 12.03 0 0 0 .44.97l.4.77.57.94a10.06 10.06 0 0 0 .67.94c.2.25.44.48.66.71l.62.69c.21.24.44.43.68.63l.7.53.75.53.16.09c.03.02.06.05.09.07.08.05.17.08.25.12l1.11.57c.35.19.73.33 1.11.47.3.11.61.24.92.3l.96.17 1.22.21 1.03.09.51.05.87.11.99.07.61.14c.18.04.37.07.55.01.15-.04.28-.12.39-.22a.63.63 0 0 0 .29-.46c0-.04-.02-.08-.03-.13.01-.29-.12-.56-.34-.76l-.66-.57c-.25-.24-.47-.51-.68-.78l-.57-.82c-.16-.27-.29-.55-.42-.84-.09-.22-.15-.44-.2-.67l-.03-.62c0-.06-.01-.11-.02-.17a5.25 5.25 0 0 1 .08-.68l.06-.21.06-.16c.1-.21.22-.4.35-.6.12-.19.22-.4.31-.6.13-.27.23-.55.34-.82.09-.23.13-.47.16-.72l.03-.18a.75.75 0 0 0 .05-.16c.04-.12.06-.24.08-.36.01-.07.02-.15.02-.22.03-.01.06-.01.09-.02l.34-.07c.12.06.25.11.39.1l.86-.1 1.07-.19c-.06.01-.11.02-.17.02l1.45-.26c.48-.07.95-.22 1.42-.35.46-.13.94-.2 1.38-.38l1.34-.6.95-.33c.39-.13.77-.3 1.15-.46l1.8-.83 1.65-.74 1.51-.79 1.42-.75 1.4-.69a1.98 1.98 0 0 1 .26-.08h.1l.11.03a2.01 2.01 0 0 1 .37.22c.15.11.32.19.47.3l.53.48c.26.25.56.48.85.7l.26.2-.18-.13.49.39c.61.47 1.26.91 1.94 1.27l1.95 1.06a12.18 12.18 0 0 0 2.32.99c.75.23 1.51.41 2.29.48l1.75.11h.82l.79.06h.84l.92-.04c.12-.01.24-.03.36-.05h.36a20.02 20.02 0 0 0 2.32-.22l.57-.1.65-.16 1.17-.26 1-.29c.02-.01.04-.02.07-.03l.75-.17c.24-.07.51-.13.67-.35a.63.63 0 0 0 .05-.61c-.09-.18-.26-.29-.45-.36l-.69-.21-.73-.3-.6-.34c-.12-.07-.23-.17-.33-.25l-.63-.62c-.04-.04-.08-.09-.12-.14l-.44-.61c-.33-.54-.6-1.1-.88-1.67-.16-.32-.35-.61-.54-.91l-.68-1.03-.6-.86c-.23-.28-.5-.53-.77-.78l.01.01c-.01-.01-.02-.02-.04-.03-.02-.02-.05-.04-.07-.07l.03.03c-.3-.27-.62-.52-.94-.76-.33-.25-.69-.46-1.06-.66-.04-.03-.07-.04-.1-.06l-1.93-.93-.75-.32a7.01 7.01 0 0 0 .62-.45l.18-.13-.18.13.6-.45c.2-.16.35-.37.5-.57l.37-.59.34-.5.41-.52c.2-.26.35-.53.5-.82l.66-1.32c.24-.49.46-.99.63-1.51.14-.41.2-.83.26-1.26.01-.08.04-.16.05-.24 0-.01.01-.03.01-.04l.28-.96c0-.01 0-.02.01-.03l.07-.31c0 .01-.01.03-.01.04 0-.02.01-.03.01-.05.01-.03.01-.07.02-.1 0 .02-.01.04-.01.06l.06-.25c0 .02-.01.04-.01.06l.24-1.16c.07-.33.1-.67.14-1.01.02-.22.07-.44.11-.65.05-.21.08-.42.11-.63l.22-1.24.09-.36v-.04l.06-.29-.03.15c.05-.22.13-.44.22-.66l.32-.31c.19-.17.35-.44.39-.71a.59.59 0 0 0 .18-.7.57.57 0 0 0-.32-.29.58.58 0 0 0-.19-.03c-.01 0-.03.01-.04.01a1.63 1.63 0 0 0-.34-.21.61.61 0 0 0 .12.05c-.04-.02-.08-.04-.13-.05l-.08-.03c.02.01.05.02.07.03-.2-.08-.39-.14-.6-.14h-.08c-.2.01-.39.07-.59.1-.6.08-1.18.25-1.78.36-.63.11-1.25.29-1.88.43l-2.01.49-.93.3-.83.22-.44.12-.7.17a13.64 13.64 0 0 0-1.86.75l-1.88.97-.87.42-.42.23-.42.31-.23.18-1.52 1.19-1.25 1.19-.67.67-.75.72c-.43.45-.71 1-1.06 1.51-.08-.04-.15-.08-.23-.13a.45.45 0 0 0-.22-.21c-.16-.08-.33-.14-.5-.21-.03-.01-.06-.03-.09-.04-.01-.01-.02-.01-.03-.02-.01 0-.02-.01-.03-.01-.01-.01-.03-.02-.04-.02l-.35-.2-.57-.33c-.19-.1-.4-.18-.6-.26l-.52-.2-.22-.1-.86-.56c-.37-.25-.76-.44-1.15-.64l-.61-.33c-.25-.14-.52-.25-.78-.36-.31-.14-.63-.28-.96-.36 0-.02.01-.04.01-.06.03-.16.1-.3.15-.45.08-.23.09-.48.12-.72.05-.41.02-.84.04-1.25l.06-.67.05-.68c0 .03-.01.07-.01.1l.08-.79.05-.42c0-.11.01-.23.02-.34l.1-.46.11-.55c.05-.1.11-.2.15-.31.08-.18.14-.36.2-.55a3.05 3.05 0 0 1 .19-.3c.09-.13.16-.27.24-.41l.38-.7a3.98 3.98 0 0 0 .17-.44l.03-.11c.02-.07.03-.15.03-.23.04-.14.04-.29-.03-.41-.04-.07-.1-.11-.15-.16-.03-.04-.05-.08-.07-.11-.16-.19-.43-.28-.67-.28-.04 0-.07 0-.11.01l-.54.07-.82.15-.84.19-.84.21-.83.28-.89.33c.02-.01.03-.01.05-.02l-.46.19.21-.09-.7.28.08-.03-.46.2c.02-.01.03-.01.05-.02l-.81.37-.74.39-.73.35c-.27.13-.52.3-.78.44l-1.72.87-.83.39-.66.33-1.46.68-.55.2a6.22 6.22 0 0 0-.71.29l-.77.36a5.01 5.01 0 0 1-.55.17l-.46-.03-.59-.04-.53-.04-.75-.12c-.17-.05-.36-.06-.54-.06l-.37.01c-.31.01-.61.05-.92.09-.66.08-1.33.05-1.99.09l-1.08.04h-1c-.74 0-1.48-.01-2.21.06-.9.08-1.81.18-2.69.38-.82.18-1.6.47-2.4.7l-2.44.67-4.71 1.37-1.73.56-1.72.76-1.12.47a11.45 11.45 0 0 0-1.1.57l-2.1 1.19-.99.67-1.02.73c-.69.52-1.33 1.09-1.98 1.66l-1.64 1.46-1.5 1.3-.58.53c-.06.05-.12.09-.18.13-.22.17-.42.37-.62.55l-.19.16-.78.66c-.26.22-.49.48-.73.73-.07.04-.14.07-.2.13-.08.08-.14.19-.19.3a.5.5 0 0 0-.13.25c-.03.15 0 .31.09.44a.55.55 0 0 0 .18.16c.02.02.03.05.05.07l.76.65s.01.01.03.02l.02.02c.26.21.52.4.81.57l.85.51 1.88 1.31zm13.74-14.65l1.27-.38 2.36-.69 1.13-.31 3.6-1.02 1.64-.48 1.46-.26 2-.15h.78c.11.05.24.09.37.1l1.1.08c.35.04.7.02 1.05.05.66.06 1.33.11 1.99.07.3-.02.59-.06.89-.04l.92.04h.95c.35 0 .72-.06 1.06-.14l.16-.04.46.07c.1-.02.2-.05.3-.08.26.04.53-.02.74-.23.02-.02.03-.05.04-.07.04-.02.08-.03.11-.06l.4-.25.28-.21.01-.01c.04-.03.08-.04.12-.07l1.1-.42 1.24-.59.74-.35.82-.39.86-.42.86-.44.77-.44c.24-.14.5-.26.75-.38l.71-.36.45-.17.89-.34c.01 0 .03-.01.04-.01.3-.1.6-.18.9-.25l1.04-.32 1.29-.38c0 .01-.01.01-.01.02l-.35.5c-.28.43-.54.89-.74 1.36-.09.22-.18.45-.24.69-.07.26-.11.53-.14.8-.02.24-.05.47-.04.71.01.31.05.62.09.92l.12.73.1.55.04.62c0-.05-.01-.1-.01-.16.01.1.01.21.01.32l-.15.46c-.04.21-.09.42-.16.62-.02.03-.03.06-.03.08-.01.01-.02.03-.03.04-.09.14-.11.32-.1.49l-.06.48v.03c.13.05.27.09.4.13.03.03.06.07.1.08.22.1.25.1.49.13a.81.81 0 0 0 .16.01l.25.08c.05.02.09.04.14.05.01 0 .01 0 .02.01.01 0 .02.01.03.01s.01 0 .02.01c.01 0 .02 0 .02.01l1.38.54.24.09.49.25a7.16 7.16 0 0 1 1.22.73l.67.44c.24.14.49.24.73.36l.57.29c.23.12.47.21.72.3.32.14.62.34.91.52l.33.19.18.11c.09.05.18.07.27.1.02.01.04.02.06.02.01 0 .01.01.02.01.04.03.07.06.13.1.2.12.48.17.7.09a.69.69 0 0 0 .15-.07c.08 0 .16-.02.23-.05.15-.07.22-.18.29-.32l.19-.38.31-.42.43-.68c.04-.05.08-.11.13-.16l.75-.74c.16-.15.3-.31.45-.47l.45-.43 1.69-1.55.97-.72c-.06.04-.11.09-.17.13l.32-.24c.27-.2.59-.35.89-.5l.98-.48 1.26-.65a1.02 1.02 0 0 0 .38-.1l.29-.1.37-.15.36-.15.48-.21.72-.23.83-.15.42-.06.64-.08.49-.07.64-.08c-.03 0-.05.01-.08.01l.69-.06.75-.06.7-.05.7-.11a2.97 2.97 0 0 0 .43-.08c-.01.02-.03.05-.04.07-.11.2-.19.42-.27.64l-.19.58c-.06.21-.09.43-.11.65l-.18.99c-.03.31-.02.62-.02.93l-.05 1.85c-.04.25-.11.5-.17.74a6.51 6.51 0 0 0-.13.77c-.08.48-.23.95-.41 1.4l-.57 1.19-.35.69-.32.57c-.04.06-.08.12-.13.17l-.65.85-.53.83c-.07.08-.15.15-.23.23l-.4.29-.26.2c-.25.18-.53.31-.8.46a3.04 3.04 0 0 0-.55.39c-.12.1-.22.23-.32.37-.08.06-.13.14-.17.22-.03.03-.08.05-.1.07-.16.16-.25.38-.25.61s.09.45.25.61c.18.18.37.22.61.25l.21.03.79.14a4.35 4.35 0 0 1 .61.2l1.28.63 1.22.81a9.44 9.44 0 0 1 .74.68l.76.78.86.9a9.36 9.36 0 0 1 .81.86c.32.45.51.98.77 1.47.33.64.78 1.19 1.26 1.72l1.14 1.16a.5.5 0 0 1 .08.07l-1.45.32c.05-.01.1-.01.16-.02l-.51.07-1 .08-1.06.05-2.02.01h-1.98c-.29 0-.58-.04-.87-.06l-.64-.06c-.46-.06-.92-.19-1.36-.31a9.94 9.94 0 0 1-1.3-.44c-.41-.18-.8-.38-1.19-.6l-1.22-.65c-.81-.44-1.61-.91-2.35-1.47l-.42-.33.01.01-.01-.01c-.05-.04-.09-.07-.14-.1l-.01-.01-.63-.53-.55-.49c-.2-.16-.4-.31-.62-.44-.14-.08-.27-.2-.42-.27-.2-.09-.38-.21-.6-.26-.02-.01-.04 0-.06-.01a.66.66 0 0 0-.34-.05 2.58 2.58 0 0 0-.62.03c-.13.02-.26.08-.38.13l-.64.29-.89.45-1.03.53-1.07.58c-.7.4-1.45.74-2.19 1.06l-2.38 1.08-.97.36c-.13-.03-.27-.04-.4.01-.32.1-.59.3-.89.45l-.83.27c-.29.11-.59.19-.9.25l-.69.11a5.23 5.23 0 0 1-.54.12l-.63.08-.44.08-.65.09-.46.09c-.43.04-.87.02-1.3.03-.5.01-1.05.03-1.47.33-.23.16-.44.37-.56.62-.11.21-.18.43-.23.66a13.42 13.42 0 0 0-.25 1.41l.03-.23c-.05.3-.15.58-.27.86-.1.23-.22.47-.35.69l-.24.4c-.11.19-.18.4-.27.6l-.16.4c-.08.21-.11.39-.14.62-.01.14 0 .28.02.42.02.16.02.32.03.49.01.39.05.78.16 1.15.11.38.28.74.45 1.09a5.46 5.46 0 0 0 .58.99l.28.38-.75-.06c.03 0 .05.01.08.01l-.78-.09c-.23-.03-.47-.03-.7-.05l-1.5-.28c-.25-.04-.47-.12-.71-.2l-.71-.26-.75-.38-.8-.4c-.28-.15-.55-.33-.8-.52l-.69-.49-.16-.12c.01 0 .01.01.02.01-.33-.26-.59-.58-.86-.89l-.91-.99c-.35-.48-.65-.99-.97-1.5-.14-.23-.26-.48-.38-.72l-.3-.6-.3-.78c-.07-.18-.14-.38-.25-.54a1.72 1.72 0 0 0-.52-.52c-.48-.34-1.06-.31-1.62-.37l-.64-.11-.84-.11-.8-.11-.64-.06-.7-.1-.69-.06c-.67-.11-1.33-.31-2-.46l-1.11-.29-1.13-.28c-.77-.21-1.51-.51-2.27-.76l-2.08-.74-1.62-.6-1.77-.65-.96-.47-1.19-.55c-.76-.36-1.48-.79-2.21-1.21l-1.99-1.11-2.11-1.22-1.2-.77-1.29-.87-2.1-1.35c.09-.11.19-.21.3-.3l.85-.73.86-.73.9-.82 1.66-1.44 1.79-1.59.53-.44 1.35-.83.73-.47.8-.43.83-.44.83-.46.77-.44.76-.41 1.28-.68.01-.01h.02c.03-.01.05-.03.08-.04h.01l.81-.38.58-.27c.06.02.18-.02.3-.06zm51.69 18.18l.16.12a1.06 1.06 0 0 1-.12-.1c-.02 0-.03-.01-.04-.02zm-8.73-7.26c-.03.02-.06.05-.09.07-.01.01-.02.02-.03.02l.12-.09zM59.63 56.6l.17.03c.02 0 .04 0 .06.01-.08-.02-.16-.03-.23-.04z"/><path d="M31.79 61.28l-1.39.49c-.55.19-1.06.47-1.58.75l-.68.36-1.27.58.14-.06c-.72.31-1.39.73-2.08 1.1-.47.25-.92.51-1.35.83a.27.27 0 0 0 .08-.07l-.18.13-.1.06a1.18 1.18 0 0 0-.18.13l-.19.12c-.19.14-.33.28-.4.52-.06.22-.03.47.09.66a1.09 1.09 0 0 0 .13.17.74.74 0 0 0 .3.28l2.71 1.35 1.31.63.81.32c.02.01.04.02.07.03.15.07.31.12.46.18l.93.44 1.31.57 2.2.85c.62.24 1.26.37 1.88.59l.93.34.91.27 2.15.56 1.07.27 1.14.23 1.25.21 1.25.26c.25.05.51.07.76.1l.62.07c.37.03.74.05 1.11.03l1.02-.04c.32.01.64.06.95.09.29.03.58.03.87.04l.99.07 1.94.02c.74 0 1.48-.09 2.21-.19l-.23.03.77-.06.74-.06.75-.08.78-.06c.24-.03.48-.03.71-.05l.95-.11c.44-.07.84-.27 1.28-.34.24-.03.48-.07.72-.14l.8-.19 1.76-.45.86-.25.86-.33c.27-.09.56-.13.84-.2.25-.07.49-.19.73-.3.16-.06.32-.1.49-.15.22-.07.44-.17.65-.26l.87-.36.91-.42.49-.21.46-.24.99-.51.96-.62c.29-.2.55-.45.82-.67l.78-.54.66-.55.62-.49.32-.24.19-.15c-.03.02-.06.05-.09.07l.14-.11.28-.21c.03-.03.07-.05.1-.08l.13-.06c.17-.09.26-.2.37-.35.08-.1.13-.33.12-.45a.91.91 0 0 0-.08-.36c-.01-.27-.19-.5-.45-.56l-.1-.03-.48-.35-.84-.56-.88-.61-.85-.57c-.02-.01-.03-.03-.05-.04-.04-.03-.08-.05-.12-.08l-.9-.62-.84-.55c-.33-.2-.68-.35-1.03-.51l-.79-.43-1-.46-.95-.44-.31-.15-.67-.34-.79-.36-1.52-.7c-.61-.26-1.22-.5-1.86-.67l-1.11-.26-1.12-.17-1.25-.13-1.26-.02h-2.33c-.4 0-.8.03-1.19.06l-.56.05-.68.05-2.44.33-.26.02-.58.05-1.06.11-1.29.17c-.02.01-.05.01-.07.02-.03.01-.06.01-.09.02s-.05.01-.08.02c-.01 0-.02 0-.03.01-.01 0-.02 0-.03.01-.02 0-.05.01-.07.01.01 0 .02 0 .03-.01h-.13c-.01 0 .01 0 .02-.01h.01c-.03 0-.06.01-.08.01-.04.01-.09.02-.13.02l-.53.11-.17.03-.52.1.15-.03c-.02 0-.05.01-.07.01.02 0 .05-.01.07-.01l-.29.06c-.08.02-.17.03-.26.05l-.54.09c.02 0 .04-.01.05-.01h-.02.02l-1.08.18c-.03.01-.06.01-.09.02-.02 0-.04.01-.06.01-.12.03-.25.05-.37.07.03 0 .05-.01.07-.02-.03.01-.05.01-.08.02.03-.01.05-.01.08-.02l-.39.08c.03-.01.05-.01.08-.02-.08.02-.16.03-.23.04-.03 0-.06.01-.08.01.02 0 .05-.01.07-.01-.03.01-.06.01-.09.02h-.01c-.01 0-.02 0-.03.01 0 0-.01 0-.02.01h-.02c-.03.01-.05.01-.08.02-.04.01-.08.01-.12.02l-.14.03c-.01 0-.02 0-.03.01h-.07c-.01 0-.03.01-.04.01.01 0 .02 0 .03-.01-.02 0-.05.01-.07.01h.02l-.17.03c-.01 0-.03 0-.04.01l-.3.06a.5.5 0 0 1-.12.02c-.02 0-.04.01-.06.01.01 0 .02 0 .04-.01h-.01c-.01 0-.02 0-.03.01l-.3.06c-.03.01-.05.01-.08.02.01 0 .03-.01.05-.01-.19.04-.36.11-.55.16l-.13.03-.31.07-1.3.41-.74.22-.78.27-1.85.59-.11.03c-.05.01-.09.03-.14.05l-1.08.36-.5.19-.45.16-.66.25zm21.9-3.02l1.27-.06c0 .01-.01.03-.01.04-.02.45.35.91.82.91a.88.88 0 0 0 .88-.7 11.78 11.78 0 0 1 .77 1.5l.16.46c-.13-.09-.27-.16-.43-.16-.47 0-.88.33-.91.82-.02.45.35.91.82.91.4 0 .74-.24.85-.61.16.55.28 1.11.37 1.67.09.66.12 1.32.1 1.98v.28l-.09 1.07c-.08.53-.19 1.06-.33 1.57-.01.04-.02.07-.02.1-.01.05-.01.07-.02.1 0 .01 0 .02-.01.03-.01.02-.01.05-.02.07 0 .01-.01.02-.01.04-.01.02-.01.04-.02.05-.01.02-.01.03-.02.05 0 .01-.01.02-.01.04-.01.02-.01.05-.02.07v.01l-.1.27c-.15-.18-.36-.29-.6-.29-.16 0-.3.05-.43.11-.15-.24-.38-.42-.67-.42-.47 0-.88.33-.91.82-.02.37.24.73.59.85-.43.04-.79.35-.81.8s.35.91.82.91.88-.33.91-.82c.02-.37-.24-.73-.59-.85a.75.75 0 0 0 .33-.1c.15.24.38.42.67.42.04 0 .07-.01.1-.02l-.67 1.21v.01l-.44.64c-.01.01-.01.02-.02.03l-.08.11.02-.01-.25.31c-.08.1-.13.2-.15.32-.05.01-.09.01-.14.02l-.33.02c.05-.1.08-.21.09-.33.02-.45-.35-.91-.82-.91s-.88.33-.91.82a.86.86 0 0 0 .17.53l-1.17.08-.84.01a.69.69 0 0 0 .08-.32.86.86 0 0 0-.46-.8 8.85 8.85 0 0 0 2.17-2.23c.11.32.41.58.77.58.47 0 .88-.33.91-.82.02-.45-.35-.91-.82-.91-.08 0-.15.02-.23.04.29-.6.51-1.23.66-1.9.14.27.4.49.71.49.47 0 .88-.33.91-.82.02-.45-.35-.91-.82-.91-.24 0-.47.09-.64.25a8.98 8.98 0 0 0-.06-2.32c.12.08.25.13.4.13.47 0 .88-.33.91-.82.02-.45-.35-.91-.82-.91-.32 0-.6.16-.76.41a8.9 8.9 0 0 0-.66-1.56.82.82 0 0 0 .13-.39c.02-.45-.35-.91-.82-.91-.05 0-.09.02-.14.02l-.46-.55a.86.86 0 0 0 .33-.46l.82-.07zm2.13 13.97zm0 0c0 .01-.01.01-.02.02.01 0 .01-.01.02-.02zm-.01.01c-.01.01-.01.02-.02.03.01-.02.02-.02.02-.03zm-15.26-.63c.33.26.68.5 1.05.71l-1.09-.21-.35-.08c.17-.1.31-.24.39-.42zm-3.29-9.81a.95.95 0 0 0 .61-.22c-.2.52-.37 1.05-.47 1.61-.08.43-.11.86-.13 1.28-.13-.09-.27-.15-.43-.15-.47 0-.88.33-.91.82-.02.45.35.91.82.91a.96.96 0 0 0 .57-.2 9.46 9.46 0 0 0 .21 1.06c-.3.12-.53.39-.54.74-.02.45.35.91.82.91.11 0 .21-.02.3-.05a8.58 8.58 0 0 0 1.31 2.01c-.29.12-.51.38-.53.73-.01.18.06.36.15.51l-.59-.15c.18-.14.31-.35.32-.61.02-.45-.35-.91-.82-.91s-.88.33-.91.82c-.01.11.01.23.05.34l-.3-.09a.84.84 0 0 0-.42-.34c-.08-.03-.17-.04-.26-.04-.1 0-.2.02-.3.06l-.4-.14c-.01 0-.02-.01-.03-.01l-.16-.3c-.02-.05-.05-.1-.07-.14l-.09-.17c0-.01-.01-.02-.01-.02l-.26-.56c-.01-.01-.01-.03-.02-.04-.01-.02-.01-.03-.02-.04 0-.01 0-.01-.01-.02-.29-.73-.5-1.48-.65-2.25.47 0 .88-.33.9-.82.02-.45-.35-.91-.82-.91-.1 0-.2.02-.3.05l-.02-1.16c.15.18.36.31.61.31a.87.87 0 0 0 .86-.65c.06.01.11.04.16.04.45.02.91-.35.91-.82v-.11c0-.24-.06-.44-.22-.62a.85.85 0 0 0-.6-.28h-.04c-.41 0-.82.33-.85.76-.05-.01-.09-.03-.13-.03a.95.95 0 0 0-.63.24l.16-.83 1.35-.44 1.2-.35c.17.14.39.27.63.27zm-2.48 7.64zm-1.91-2.57a13.17 13.17 0 0 0 .74 2.72c.01.02.02.04.03.07 0 .01 0 .01.01.02l.03.08v.01l.13.31c.01.03.03.07.05.1l-.57-.19-2.41-.93-1.44-.68-1.47-.59-1.8-.89-1.02-.5c-.02-.01-.04-.02-.05-.03l.68-.37 1.91-1.03 1.55-.7 1.91-.91 1.72-.65a14.21 14.21 0 0 0-.16 1.6 12.91 12.91 0 0 0 .16 2.56zm16.17 6.14l.86-.37c0 .15.04.29.11.42h-.11l-.86-.05zm9.74-.67l-1.61.25-.21.03c.02-.02.03-.04.04-.05l.41-.59c.01-.01.01-.02.02-.02 0-.01.01-.01.01-.02s.01-.01.01-.02l.65-1.15c0-.01.01-.01.01-.02.01-.01.01-.03.02-.04.28-.56.52-1.14.72-1.74.13-.38.24-.77.33-1.16a14.05 14.05 0 0 0 .35-2.66c.04-.95-.04-1.9-.21-2.83-.01-.05-.01-.09-.02-.12v-.02c-.01-.03-.01-.06-.02-.09 0-.01 0-.02-.01-.03-.01-.03-.01-.07-.02-.1 0-.01-.01-.03-.01-.04 0-.02-.01-.04-.01-.06s-.01-.03-.01-.05-.01-.04-.01-.06c-.01-.03-.02-.06-.02-.1 0-.01 0-.02-.01-.03-.14-.59-.33-1.17-.55-1.74 0-.01 0-.01-.01-.02 0-.01-.01-.02-.01-.03-.14-.36-.3-.71-.47-1.05-.02-.02-.02-.03-.03-.05 0-.01-.01-.02-.01-.03-.01-.02-.02-.05-.04-.07v-.01c0-.01-.01-.02-.01-.03s-.01-.01-.01-.02-.01-.01-.01-.02c-.02-.03-.03-.05-.04-.07-.01-.01-.01-.02-.02-.03-.04-.08-.09-.16-.14-.24l1.5.09.95.14 1.41.31c.55.14 1.07.36 1.59.57l.95.45 1.15.52 1.02.53 1.17.55 2.18 1.04c.63.31 1.18.75 1.77 1.13l.99.67.9.62.82.56c.02.02.05.03.07.05-.02.02-.05.04-.07.06.02-.02.05-.04.07-.06-.02.01-.03.03-.05.04.02-.01.03-.03.05-.04l-.96.74-.71.58c-.19.14-.4.25-.59.39l-.73.61c-.19.14-.39.26-.59.39l-.7.43c-.23.13-.48.22-.71.34l-.7.35.21-.09-.73.31-.56.26-.88.36c-.19.08-.39.14-.59.2-.23.07-.45.17-.67.27-.45.17-.93.22-1.38.39l-.78.3c-.27.09-.55.14-.82.22l-.8.21-.76.19-1.37.31-.39.07c-.07.01-.13.04-.19.06-.07 0-.09 0-.12.01zm4.47-13.04c.06.03.12.05.18.07-.04-.01-.07-.03-.11-.05-.02 0-.04-.01-.07-.02zm10.98 8.33c.03-.03.07-.05.1-.08.01-.01.03-.02.04-.03l-.14.11zm-27.6-10.26h0zm-.1.02h0zm26.68 8.86c.03-.03.07-.05.1-.08.02-.02.05-.04.07-.06-.05.05-.11.09-.17.14z"/><path d="M63.85 57.7c.01.01.03.01.04.02a1.22 1.22 0 0 1 .17.07.95.95 0 0 0-.21-.09zm11.55 9.03c-.02.02-.04.03-.06.04l-.12.09.18-.13zm-62.07-29.5c-.01.01-.02.01-.03.02l-.15.1.18-.12zm-.78.5c-.02.01-.03.02-.05.03.01-.01.03-.02.05-.03z"/><path d="M15.6 45.39l.42-.21c.2-.11.38-.24.57-.36.42-.26.88-.44 1.31-.7l1.24-.71c.41-.22.6-.71.4-1.14v-.02c-.02-.43.03-.86.04-1.29v-.61l.03-.62c.03-.4-.01-.8-.01-1.2l.02-.58-.03-.79.01.23-.04-.66-.02-.49c0 .04 0 .08.01.12-.01-.23.01-.46.01-.69v-.68l.1-1.41c.01-.19 0-.39-.01-.58-.02-.3-.04-.56-.25-.81-.12-.14-.26-.22-.42-.28-.03-.05-.05-.09-.09-.14a1.21 1.21 0 0 0-.19-.2c.02.02.05.04.07.06-.05-.04-.09-.09-.14-.13-.01-.01-.02-.01-.02-.02l.01.01c-.01-.01-.03-.02-.04-.04l-.33-.32c-.18-.16-.35-.27-.56-.37.07.03.13.07.2.1l-.17-.09c-.27-.15-.51-.34-.77-.49l-.56-.29-.09-.06c-.2-.13-.38-.29-.57-.44a5.15 5.15 0 0 0-.74-.47l.2.1-.52-.29c-.19-.11-.4-.19-.6-.28-.02-.01-.05-.02-.07-.04l-.48-.28c-.11-.06-.23-.11-.34-.16l-.75-.59-1.07-.72c-.33-.24-.64-.51-1.02-.67a.74.74 0 0 0-.32-.07c-.3 0-.58.17-.81.35l-.3.24-1.08.64-1.2.7-1.45.85c-.33.2-.63.43-.94.66l-.73.51-.64.46-.6.45-.27.17c-.22.14-.42.3-.63.46-.1.08-.17.18-.22.3-.06.03-.12.06-.16.1-.23.22-.3.47-.33.77l-.06.7-.07.94-.04 1.07-.03 1.12-.09.84-.07.96-.05 1.14c-.01.29-.03.58-.08.87l-.12.73c-.04.39.01.8.05 1.19l.02.55c.02.36.29.61.54.83.27.24.59.41.87.63.35.28.71.53 1.1.75l.55.34.56.31c-.01 0-.02-.01-.02-.01l1.03.58 1.02.58.66.35.56.22a7.91 7.91 0 0 1 .79.35c.03.02.06.03.09.05l.31.16c-.07-.03-.13-.07-.2-.1l.24.12.27.13a.87.87 0 0 0 .16.3.89.89 0 0 0 .88.3c.13-.04.23-.08.35-.13-.02.01-.04.01-.06.02l.31-.12c.07-.03.13-.07.21-.09-.04.01-.07.02-.11.04a3.48 3.48 0 0 0 .63-.26l.68-.4.82-.47c.36-.19.7-.43 1.04-.66l.68-.39.76-.38.76-.45zM4.44 32.41l.52-.39.53-.41c.36-.23.73-.44 1.05-.74l.95-.78c.41-.31.77-.69 1.15-1.04.33-.3.71-.56 1.08-.8l.32-.19.26.21c.23.19.5.33.74.51l.81.54c.11.08.22.14.33.2.03.02.06.04.08.06.31.22.68.37 1.03.53.17.09.33.19.49.3l.61.42.63.4.47.23c.16.1.33.19.48.31l.57.51.46.34-.5.41-.18.13-.94.54c-.41.24-.8.51-1.18.8l-1.87 1.33-.69.44c.01-.01.02-.01.03-.02-.04.03-.08.05-.11.08.01-.01.02-.01.03-.02l-.98.58-.44.24-.18.13-.56-.45-.94-.65-.88-.48c-.25-.15-.47-.34-.72-.49l-.66-.42-.65-.45c-.21-.1-.4-.21-.58-.34l-.59-.45-.34-.3-.37-.27-.01-.01.33-.24.42-.3zm8 3.35l-.29.19c.03-.02.07-.04.1-.07l.19-.12zm-3.49 4.08c.01.49-.04.97-.07 1.45l-.22 2.97-.11 1.51v.01l-.78-.49-.61-.31-.35-.14-.76-.41.2.1-.33-.17.06.03-.56-.31c-.2-.12-.39-.27-.58-.4-.34-.24-.73-.38-1.1-.55l-.63-.32c-.19-.09-.39-.14-.58-.22-.17-.06-.33-.14-.49-.22l.04-.52c.01-.43-.05-.85-.08-1.27l-.03-.36c-.02-.57.03-1.14.07-1.72l.11-1.77.06-.65.11-1.23c.02-.23.06-.45.1-.67l.1.07.63.48c.37.32.75.63 1.17.88.44.26.83.59 1.27.85l.72.48c.3.22.63.38.96.55.37.2.71.45 1.05.7l.68.54-.05 1.11zm4.72 4.64c-.61.27-1.16.66-1.72 1.03l-1.37.77-.36.21.04-.54.11-1.45.22-2.97.08-1.51c0-.4.03-.8.06-1.19l.26-.18.59-.32c.13-.07.25-.16.38-.24l.54-.33.21-.14.59-.37 2.59-1.83.32-.19c.09-.01.17-.03.25-.06.15-.07.3-.15.43-.24a5.05 5.05 0 0 0 .63-.49c.07-.07.15-.13.22-.19.04-.03.09-.06.14-.09l-.03.47-.03 1.42a5.83 5.83 0 0 0 .03.59l.03.62-.01-.23.03.55-.01-.23c.02.39-.01.78 0 1.17l.02.59-.02.64-.03.61-.01.65-.04.64c-.01.18 0 .37.01.55l-.76.44a12.05 12.05 0 0 1-.8.41c-.26.13-.5.29-.74.45-.29.18-.61.31-.91.48l-.94.5z"/><path d="M8.28 48.03c-.03-.01-.07-.03-.11-.05l.11.05zM5.26 13.07l-.13-.12.13.12z"/><path d="M3.29 11.53c.12.08.23.18.35.27l.5.37c.16.11.31.23.46.36.17.15.37.28.54.42l-.03-.03.04.04c.21.18.41.35.64.49l.62.4c.39.25.77.52 1.13.82l.19.19c.13.15.27.27.46.35a.83.83 0 0 0 .56.01h.01c-.01 0-.02.01-.03.01.02-.01.03-.01.04-.01.05 0 .1-.01.16-.03a2.25 2.25 0 0 0 .24-.08l.35-.1.22-.09c.6-.2 1.17-.48 1.73-.78l.79-.35.86-.39.62-.21.61-.28a3.33 3.33 0 0 0 .61-.35c.22-.17.35-.43.38-.71.01-.11-.01-.21-.03-.31l-.02-.41v-.87c.01-.32-.03-.64-.05-.95l-.02-1.19-.01-1.09.02-.54a4.7 4.7 0 0 0-.02-.75c-.01-.13-.05-.25-.1-.37a.99.99 0 0 0-.19-.48l-.34-.47c-.1-.13-.23-.24-.35-.35-.23-.21-.45-.41-.64-.66l-.26-.33-.34-.35-.58-.62c-.12-.11-.21-.25-.31-.39l-.1-.15c-.1-.15-.19-.29-.32-.42-.08-.09-.18-.18-.28-.27.01.02.02.03.04.05l-.06-.06-.14-.15c-.01-.01-.01-.02-.01-.03-.02-.06-.03-.11-.06-.16a.96.96 0 0 0-.53-.46c-.11-.05-.23-.07-.35-.07a1.24 1.24 0 0 0-.33.04c-.27.07-.54.18-.8.3-.26.11-.52.23-.76.37-.27.14-.52.31-.77.48l-.4.23a3.85 3.85 0 0 0-.6.39l-.68.5-.38.24c-.14.09-.26.19-.39.28l-.28.18a1.26 1.26 0 0 0-.2.2l-.29.3c-.01.01-.02.03-.03.04-.06-.01-.11-.03-.17-.03-.29 0-.56.16-.74.38-.21.26-.19.67-.21.99L3.1 6.36c-.04.26-.05.52-.07.78-.02.28-.06.57-.11.85l-.31 1.75c-.04.21-.09.43-.09.64-.01.29.04.6.25.82.15.17.33.24.52.33zm2.99.16l.12.11-.13-.12-.36-.3-.33-.25c-.18-.16-.37-.3-.57-.45l-.56-.43c-.05-.05-.11-.09-.17-.12l.03-.14.15-.8.28-1.79.07-.78.08-.58c.45.44.85.96 1.3 1.42l.67.69c.09.09.17.2.26.29l.34.29.21.23c.05.1.13.18.21.26l-.1.98-.06.67-.09.67-.08 1.03-.56-.36-.71-.52zm2.48 3.54h-.01l.11-.03-.1.03zm4.65-3.78l-.55.25-.56.19-.49.23-.86.37-1.68.79c-.02.01-.04.01-.05.02l.03-.34.1-1.29.09-.64c.04-.22.05-.44.07-.67l.09-.96c0-.02.01-.03.03-.04l1.27-.74.65-.37c.2-.12.39-.27.58-.41.17-.1.35-.17.53-.25l.6-.3.21-.12.01.63.02 1.06.06 1.06-.01.55.02.62a2.81 2.81 0 0 1 .01.29c-.06.02-.12.04-.17.07zM11.27.75c0 .01.01.02.02.03l.03.03c0-.01-.01-.01-.02-.02 0 .02.01.03.02.05-.01-.02-.02-.03-.03-.05l-.03-.03c.01.01.03.02.04.03-.01-.02-.02-.03-.03-.04zm-.02-.01zM5.97 4.35l.54-.37.73-.49.6-.45c.13-.08.26-.14.4-.21.22-.12.42-.27.63-.41a7.73 7.73 0 0 1 .75-.4l.35-.16c0 .02.02.03.03.05.06.07.13.13.19.19a3.33 3.33 0 0 1 .36.39c.29.46.6.91 1 1.29.24.23.48.47.68.74.23.32.53.58.82.84-.03-.02-.05-.04-.08-.07.03.02.04.05.07.07l-.13.09c-.11.07-.21.16-.32.24a8.69 8.69 0 0 1-.81.4c-.17.07-.34.14-.49.24-.17.11-.32.23-.48.35l-1 .58-.57.34c-.11.05-.21.12-.31.18-.16-.19-.35-.35-.54-.51l-.35-.38-.5-.52L7 5.8l-.53-.61-.68-.65c.09-.09.17-.18.27-.25l-.09.06z"/><path d="M9.84 14.89c-.02.01-.05.02-.07.02.02 0 .04-.01.07-.02zm-3.62-3.26l.06.06-.06-.06zm-.75-9.02l.1-.06.09-.06-.19.12zM11.28.77l.01.01-.01-.01zm.64.68c.03.04.05.08.08.12.01.01.01.02.02.03l-.1-.15zm16.55 15.11c-.05.02-.1.03-.15.05.05-.02.1-.03.15-.05z"/><path d="M28.32 16.61c-.02.01-.04.02-.06.02.02-.01.04-.01.06-.02z"/><path d="M26.08 23.16l-.06-.09.45.62.51.68.59.7c.22.28.49.51.76.74.28.28.52.6.79.89l.41.41a2.97 2.97 0 0 1 .27.35c.1.16.21.32.37.41.23.13.47.2.73.14.11-.03.21-.07.32-.11l.55-.22c.26-.11.5-.26.75-.38.28-.14.55-.31.81-.48l.82-.47.79-.44.86-.46c.32-.17.6-.39.89-.6l1.12-.67c.09-.06.13-.11.25-.24.13-.15.15-.33.19-.51.02-.09.02-.19.02-.28l.05-.66.09-1.37.01-.69.06-.77.09-1.41c0-.25-.02-.5-.04-.75-.02-.21-.19-.43-.36-.54l-.1-.06c-.01-.19-.07-.37-.21-.51-.22-.22-.44-.42-.69-.6l-.33-.2c-.11-.07-.21-.16-.31-.23l-.61-.44c-.24-.16-.49-.28-.71-.47-.26-.23-.51-.46-.81-.65-.21-.13-.42-.28-.61-.43-.03-.05-.06-.11-.1-.16-.11-.15-.27-.24-.43-.31-.1-.04-.2-.06-.3-.06-.2 0-.41.07-.6.14-.1.03-.19.09-.28.13a4.51 4.51 0 0 1-.33.13l-.76.3-.82.3c-.05.02-.11.04-.16.05l-.71.27-.51.25c-.1.03-.19.05-.29.07a4.48 4.48 0 0 0-.62.2c-.27.1-.52.23-.78.34l-.61.25c-.14.07-.27.13-.4.23-.18.14-.3.4-.31.63 0 .08.02.15.04.22 0 .02-.01.03-.01.05l-.11 1.27-.08 1.31-.03 1.05-.01.67-.05.36-.09.44c-.05.29.01.55.15.81.09.29.3.56.49.85zm2.05-6.49l.19-.06.74-.26.47-.14.72-.16.77-.16c.17-.04.34-.1.51-.16l-.1.52.05-.23-.21 1.16-.09.4.03-.12-.22.99-.09.73c-.07.03-.14.07-.21.12-.03.02-.06.05-.09.07l-.2.09-.76.26-.45.15-.29.12c-.18.05-.36.08-.55.12-.31.07-.59.2-.88.33-.05.03-.11.04-.17.07l.08-.6.1-1.31.02-.59a6.36 6.36 0 0 1 .01-.62l.01-.42.61-.3zm5.59-.7c.13.11.25.22.4.31l.4.27c.25.2.53.36.79.56l.86.63.37.3-.03.24c-.04.23-.06.46-.08.69l-.06.75-.06.73-.19 1.35c0 .02-.01.03-.01.05a2.5 2.5 0 0 0-.17-.12l-.55-.38c-.25-.25-.47-.54-.78-.72l-.64-.42c-.19-.15-.38-.28-.58-.41-.21-.14-.44-.24-.63-.4l.16.15-.31-.26.11-.82.13-.56.16-.75.11-.62-.05.23.13-.66.08-.4.16.06a2.51 2.51 0 0 1 .32.25c-.01-.02-.03-.04-.04-.05zm-2.4 9.52a1.03 1.03 0 0 0-.17-.35c-.18-.23-.4-.42-.62-.61-.23-.22-.44-.49-.64-.73-.16-.19-.33-.36-.52-.52-.13-.12-.28-.23-.42-.35l-.92-.87.5-.23.63-.14c.28-.07.53-.19.79-.29l.83-.29.49-.17c.14-.05.25-.14.37-.23.02.01.04.03.05.04.08.07.16.15.25.21.08.06.18.1.27.15.18.09.35.21.52.33l.52.39c.17.12.36.21.52.33.23.23.44.48.71.68l.78.55c.02.02.04.04.07.06.03.03.06.05.08.07l-.56.31-.85.44-.71.33-.67.34c-.22.1-.44.17-.66.25s-.43.19-.64.3zm-2.22-2.44c-.03-.03-.06-.05-.09-.08l-.03-.03.12.11z"/><path d="M37.84 24.13c-.01.01-.03.02-.04.03s-.03.02-.04.03c.03-.02.05-.04.08-.06z"/></g></g><defs><clipPath id="A"><path fill="#fff" d="M0 0h105.33v90.09H0z"/></clipPath><path id="B" d="M54.56 60.36c.47 0 .88-.33.91-.82.02-.45-.35-.91-.82-.91s-.88.33-.91.82c-.02.46.35.91.82.91z"/></defs></svg>