<svg width="106" height="91" viewBox="0 0 106 91" fill="none" xmlns="http://www.w3.org/2000/svg">
<g clip-path="url(#clip0)">
<path d="M92.61 77.87C92.77 77.9 92.92 77.94 93.08 77.95C93.25 77.97 93.42 77.99 93.59 78.02C93.99 78.07 94.41 78.13 94.82 78.15C95.07 78.16 95.32 78.17 95.58 78.17C95.98 78.17 96.38 78.16 96.78 78.13C97.3 78.1 97.82 78.07 98.33 78.02C98.44 78.01 98.56 77.99 98.67 77.97C98.78 77.95 98.9 77.93 99.02 77.92C99.17 77.91 99.31 77.9 99.46 77.9C99.54 77.9 99.62 77.9 99.7 77.9H99.8C100.09 77.9 100.38 77.86 100.66 77.82L100.85 77.79C100.95 77.78 101.06 77.77 101.16 77.76L101.37 77.74C101.53 77.72 101.69 77.69 101.85 77.65C101.9 77.65 101.95 77.64 102 77.64C102.13 77.64 102.26 77.61 102.38 77.58L102.48 77.55V77.56C102.6 77.54 102.68 77.52 102.75 77.5C103.12 77.39 103.38 76.99 103.34 76.59C103.3 76.12 102.92 75.86 102.6 75.73C102.34 75.62 102.06 75.55 101.79 75.48C101.68 75.45 101.56 75.42 101.45 75.39C101.35 75.35 101.26 75.32 101.16 75.27L101.2 75.2C101.31 74.96 101.28 74.75 101.24 74.54C101.2 74.34 100.99 74.13 100.85 73.99L100.74 73.88L100.66 73.8C100.46 73.57 100.27 73.33 100.09 73.09C99.78 72.71 99.51 72.36 99.29 71.97C99.21 71.79 99.14 71.6 99.07 71.41C99.03 71.29 98.98 71.16 98.94 71.04C98.77 70.61 98.49 70.29 98.19 69.97C97.67 69.42 97.05 68.93 96.17 68.37C95.91 68.19 95.67 68.01 95.42 67.82C95 67.51 94.53 67.25 94.08 67C93.87 66.89 93.66 66.79 93.45 66.68C93.24 66.58 93.04 66.48 92.83 66.37C92.51 66.2 92.2 66.01 91.89 65.81L91.92 65.84L91.84 65.78C92.07 65.7 92.29 65.58 92.5 65.45C92.68 65.35 92.83 65.23 92.98 65.12L93.14 65L93.3 64.89C93.45 64.79 93.6 64.68 93.74 64.56C94.24 64.13 94.64 63.67 94.95 63.19C95.18 62.83 95.36 62.44 95.54 62.05C95.6 61.92 95.66 61.79 95.72 61.66L95.94 61.21L96.35 60.36L96.45 60.15L96.66 59.71C96.77 59.47 96.86 59.22 96.92 59.04C96.98 58.87 97.04 58.7 97.11 58.53C97.16 58.41 97.23 58.3 97.29 58.19L97.35 58.09C97.5 57.82 97.62 57.54 97.74 57.16C97.74 57.16 97.75 57.13 97.76 57.1L97.78 57.03H97.79L97.92 56.63L97.96 56.51C98.03 56.28 98.1 56.04 98.16 55.8C98.21 55.59 98.25 55.37 98.28 55.15C98.29 55.05 98.31 54.96 98.32 54.86L98.4 54.39C98.47 53.92 98.55 53.46 98.65 53C98.68 52.85 98.71 52.71 98.75 52.56C98.78 52.41 98.82 52.27 98.85 52.12C98.88 51.98 98.9 51.84 98.92 51.7C98.93 51.59 98.95 51.49 98.97 51.38C98.99 51.26 99.01 51.13 99.03 51.01C99.05 50.88 99.07 50.75 99.09 50.63C99.11 50.52 99.14 50.42 99.17 50.32C99.29 49.89 99.08 49.45 98.66 49.21C98.53 49.14 98.36 49.1 98.15 49.1C98.01 49.1 97.86 49.12 97.73 49.13C97.48 49.16 97.28 49.17 97.08 49.19L96.89 49.2C96.59 49.22 96.24 49.25 95.87 49.25C95.79 49.25 95.71 49.25 95.63 49.25H95.57C95.43 49.25 95.29 49.26 95.15 49.28H95L94.65 49.31L94.33 49.34C93.97 49.37 93.61 49.47 93.26 49.56C93.14 49.59 93.01 49.62 92.89 49.65C92.6 49.71 92.31 49.77 92.04 49.86L91.75 49.96C91.58 50.02 91.41 50.07 91.24 50.13C91.06 50.19 90.89 50.26 90.72 50.33L90.57 50.39C90.36 50.47 90.14 50.53 89.93 50.6L89.85 50.62C89.39 50.76 88.93 50.93 88.48 51.13C88.12 51.29 87.79 51.51 87.48 51.72C87.36 51.8 87.25 51.87 87.13 51.95C87.04 52 86.96 52.06 86.87 52.11C86.69 52.22 86.51 52.32 86.35 52.45C86.11 52.64 85.85 52.82 85.6 52.99C85.44 53.1 85.29 53.22 85.14 53.35L84.95 53.5C84.7 53.7 84.46 53.9 84.22 54.12C84.12 54.2 84.02 54.28 83.91 54.37C83.78 54.47 83.65 54.58 83.52 54.69C83.32 54.86 83.12 55.04 82.92 55.22L82.7 55.42L82.58 55.52L82.46 55.62L82.53 55.57C82.34 55.73 82.16 55.91 81.98 56.08L81.92 56.14C81.66 56.35 81.38 56.54 81.11 56.73C80.95 56.84 80.79 56.95 80.63 57.06C80.35 57.26 80.1 57.48 79.88 57.72C79.82 57.78 79.76 57.84 79.71 57.91C79.61 58.01 79.52 58.12 79.42 58.22C79.31 58.32 79.19 58.41 79.08 58.51C79.01 58.57 78.95 58.65 78.89 58.74C78.62 58.58 78.39 58.46 78.16 58.35C77.71 58.15 77.25 57.96 76.79 57.77C76.25 57.55 75.69 57.37 75.14 57.24L74.9 57.19C74.58 57.12 74.27 57.05 73.96 56.96L73.74 56.88C73.57 56.82 73.39 56.76 73.22 56.7C72.87 56.58 72.54 56.44 72.29 56.32C72.13 56.24 71.96 56.18 71.79 56.11C71.64 56.05 71.5 56 71.36 55.93C71.15 55.83 70.94 55.73 70.73 55.63L70.47 55.5C70.2 55.37 69.92 55.28 69.61 55.18C69.57 55.08 69.57 54.98 69.56 54.88V54.78L69.55 54.68C69.54 54.54 69.53 54.41 69.53 54.27C69.55 54.09 69.58 53.92 69.64 53.75C69.71 53.53 69.71 53.29 69.72 53.06C69.73 52.85 69.74 52.7 69.73 52.54C69.73 52.45 69.72 52.35 69.72 52.26L69.71 52.05C69.7 51.79 69.67 51.54 69.63 51.28C69.61 51.15 69.6 51.02 69.58 50.88C69.53 50.39 69.5 50.01 69.49 49.66C69.48 49.54 69.47 49.41 69.46 49.28C69.44 49.08 69.43 48.89 69.43 48.69C69.45 48.48 69.49 48.28 69.54 48.09C69.58 48.01 69.62 47.94 69.66 47.87L69.69 47.82C69.75 47.72 69.8 47.62 69.87 47.52C69.91 47.47 69.95 47.42 70 47.37C70.21 47.2 70.4 47.06 70.5 46.85C70.6 46.64 70.61 46.4 70.54 46.19C70.47 45.99 70.33 45.83 70.1 45.69C69.99 45.63 69.86 45.59 69.72 45.59C69.37 45.59 69.01 45.79 68.72 45.96L68.65 46L68.47 46.1C68.28 46.2 68.1 46.31 67.91 46.41L67.69 46.51C67.51 46.59 67.34 46.67 67.16 46.76C67.02 46.64 66.84 46.58 66.66 46.58C66.63 46.58 66.6 46.58 66.57 46.58C66.02 46.65 65.52 46.92 65.04 47.19L64.75 47.35C64.34 47.53 63.89 47.64 63.46 47.75C63.23 47.81 63.01 47.86 62.78 47.93C62.42 48.04 62.08 48.19 61.7 48.35C61.32 48.52 60.92 48.7 60.53 48.91C59.8 49.3 59.2 49.89 58.62 50.46C58.45 50.63 58.31 50.78 58.16 50.93L58.09 51C57.94 51.15 57.78 51.32 57.69 51.51C57.43 51.53 57.17 51.59 56.88 51.66C56.72 51.69 56.57 51.72 56.41 51.76C56.35 51.77 56.3 51.79 56.24 51.81L56.17 51.83C55.98 51.86 55.78 51.86 55.59 51.87C55.5 51.87 55.41 51.87 55.32 51.88C55.21 51.88 55.11 51.89 55 51.9C54.82 51.91 54.64 51.92 54.46 51.92H54.38C53.42 51.86 52.51 51.71 51.42 51.52C50.83 51.42 50.31 51.37 49.81 51.37H49.64C49.46 51.37 49.29 51.38 49.11 51.4C48.89 51.41 48.68 51.43 48.46 51.43H48.31C47.95 51.41 47.64 51.39 47.33 51.39C47.12 51.39 46.91 51.4 46.71 51.42C46.08 51.48 45.45 51.63 44.89 51.77C44.42 51.89 43.94 52.01 43.48 52.15C43.3 52.2 43.12 52.26 42.95 52.32C42.62 52.43 42.28 52.54 41.93 52.62C41.65 52.68 41.37 52.74 41.09 52.8L40.31 52.97L40.15 53C39.93 53.04 39.72 53.08 39.5 53.13C39.29 53.17 39.08 53.23 38.88 53.29C38.76 53.2 38.63 53.13 38.49 53.11C38.44 53.09 38.38 53.09 38.32 53.09C38.17 53.09 38 53.14 37.86 53.17L37.79 53.19L37.67 53.22C37.61 53.24 37.55 53.25 37.49 53.27L37.19 53.36L36.8 53.48C36.35 53.62 35.9 53.77 35.46 53.93C34.79 54.16 34.13 54.44 33.49 54.71L32.99 54.92C32.7 55.04 32.41 55.18 32.12 55.32L31.78 55.48C31.36 55.68 30.95 55.88 30.54 56.08C30.07 56.32 29.6 56.59 29.16 56.86C28.87 57.03 28.58 57.2 28.29 57.36C28.06 57.49 27.84 57.63 27.62 57.76C27.36 57.92 27.09 58.08 26.82 58.23L27.02 58.14C26.34 58.47 25.7 58.89 25.08 59.3L25.01 59.35C24.83 59.47 24.65 59.59 24.48 59.71L24.08 59.98C23.85 60.13 23.62 60.28 23.39 60.42L23.13 60.59C22.82 60.78 22.53 60.98 22.23 61.19C21.96 61.38 21.69 61.57 21.43 61.76L21.17 61.94C21.01 62.05 20.84 62.17 20.69 62.29C20.45 62.48 20.25 62.64 20.03 62.79C19.77 62.97 19.51 63.14 19.25 63.32C18.73 63.66 18.2 64.02 17.7 64.41C17.42 64.63 17.12 64.86 16.81 65.07C16.75 65.11 16.7 65.14 16.64 65.18C16.58 65.22 16.52 65.26 16.46 65.3L16.36 65.36C16.06 65.54 15.75 65.74 15.7 66.12C15.66 66.46 15.78 66.77 16.02 66.97C16.11 67.05 16.23 67.11 16.33 67.17C16.45 67.24 16.57 67.3 16.68 67.37C16.94 67.56 17.18 67.78 17.41 67.99C17.64 68.21 17.93 68.42 18.32 68.65C18.89 68.98 19.52 69.27 20.17 69.49L20.22 69.5H20.23L20.22 69.49H20.24V69.48C20.26 69.5 20.29 69.51 20.31 69.52L20.61 69.62L20.69 69.65C21.1 69.79 21.5 69.97 21.84 70.18C22.03 70.32 22.23 70.5 22.44 70.74L22.4 70.68C22.52 70.83 22.65 70.96 22.78 71.1L22.98 71.32C23.19 71.55 23.42 71.8 23.69 72.04C23.75 72.09 23.8 72.15 23.86 72.2C23.92 72.25 23.97 72.31 24.03 72.36C24.16 72.48 24.31 72.57 24.46 72.66L24.51 72.69C24.81 72.89 25.16 73.12 25.53 73.28C25.66 73.34 25.8 73.39 25.93 73.45C26.14 73.53 26.34 73.62 26.54 73.71C26.71 73.79 26.88 73.85 27.05 73.92C27.22 73.99 27.39 74.05 27.55 74.13C27.82 74.26 28.11 74.42 28.41 74.6C28.65 74.76 28.89 74.93 29.15 75.08C29.35 75.19 29.55 75.29 29.76 75.39L29.83 75.42C30.06 75.54 30.28 75.64 30.51 75.73C30.74 75.81 30.96 75.91 31.18 76.01L31.3 76.07C31.49 76.16 31.68 76.25 31.87 76.32C32.11 76.41 32.34 76.51 32.57 76.61C32.89 76.76 33.19 76.86 33.49 76.92L33.69 76.96C33.88 77 34.07 77.04 34.25 77.08C34.32 77.1 34.38 77.11 34.45 77.13C34.56 77.17 34.67 77.22 34.78 77.26C34.99 77.35 35.21 77.42 35.43 77.49C35.6 77.54 35.77 77.59 35.94 77.64C36.09 77.68 36.23 77.72 36.38 77.76L36.49 77.79L36.63 77.83L36.84 77.9L37 77.95C37.2 78.02 37.39 78.1 37.58 78.18C37.8 78.28 38.03 78.36 38.26 78.43C38.43 78.49 38.6 78.55 38.77 78.63C39.01 78.73 39.3 78.85 39.61 78.95C40.14 79.12 40.7 79.14 41.25 79.16H41.34C41.58 79.18 41.83 79.2 42.07 79.22C42.25 79.24 42.42 79.27 42.6 79.3C42.7 79.32 42.79 79.33 42.89 79.35C43.04 79.37 43.19 79.39 43.35 79.4C43.45 79.41 43.55 79.42 43.65 79.43C43.92 79.46 44.18 79.49 44.44 79.52C44.92 79.57 45.41 79.61 45.89 79.65L46.05 79.66L46.33 79.68C46.57 79.7 46.81 79.72 47.05 79.73H47.11C47.18 79.73 47.26 79.72 47.34 79.72L47.4 79.87C47.5 80.09 47.6 80.33 47.72 80.54C47.79 80.67 47.89 80.78 47.98 80.89L48.03 80.94C48.15 81.08 48.24 81.22 48.33 81.37C48.55 81.81 48.72 82.21 48.86 82.59C49.01 83 49.19 83.36 49.38 83.66C49.47 83.79 49.56 83.92 49.66 84.04L49.79 84.21C49.84 84.28 49.9 84.35 49.95 84.42C50.01 84.49 50.07 84.57 50.12 84.65C50.17 84.72 50.21 84.79 50.26 84.86C50.33 84.97 50.4 85.09 50.48 85.18C50.62 85.34 50.76 85.47 50.91 85.6L51.05 85.73C51.23 85.89 51.4 86.03 51.57 86.15C51.68 86.22 51.78 86.31 51.88 86.39C51.98 86.47 52.08 86.55 52.19 86.63C52.44 86.8 52.7 86.96 53.01 87.12L53.1 87.17C53.27 87.26 53.44 87.34 53.62 87.41C53.92 87.52 54.21 87.57 54.52 87.62C54.74 87.66 54.94 87.72 55.14 87.77L55.38 87.84C55.49 87.87 55.6 87.9 55.71 87.92C55.85 87.95 56 87.99 56.14 88.03C56.41 88.11 56.66 88.17 56.9 88.21C57.04 88.23 57.17 88.24 57.31 88.26C57.42 88.27 57.54 88.28 57.65 88.3C57.79 88.32 57.93 88.35 58.07 88.38C58.2 88.41 58.32 88.44 58.45 88.46L58.58 88.48C58.74 88.5 58.9 88.52 59.06 88.56L59.12 88.58C59.3 88.64 59.47 88.71 59.66 88.75C59.85 88.8 60.04 88.86 60.23 88.91C60.31 88.94 60.39 88.96 60.47 88.99C60.65 89.05 60.84 89.13 61.02 89.21L61.17 89.27C61.3 89.32 61.43 89.35 61.55 89.35C61.8 89.35 62.03 89.25 62.2 89.06C62.35 88.89 62.43 88.65 62.41 88.41C62.39 88.18 62.29 87.98 62.12 87.84C62.04 87.78 61.96 87.72 61.88 87.67L61.77 87.6C61.58 87.47 61.39 87.33 61.21 87.18C61.07 87.07 60.93 86.94 60.79 86.82L60.63 86.68C60.5 86.57 60.36 86.45 60.24 86.33C60.18 86.25 60.13 86.18 60.08 86.1C60.04 86 60 85.89 59.98 85.79C59.96 85.7 59.95 85.61 59.94 85.52C59.92 85.38 59.9 85.25 59.87 85.11C59.82 84.88 59.8 84.63 59.81 84.31C59.82 84.11 59.84 83.94 59.88 83.77L59.94 83.63C59.97 83.55 60 83.47 60.03 83.39C60.1 83.18 60.16 83.02 60.23 82.86C60.34 82.59 60.43 82.36 60.51 82.11C60.54 82.02 60.56 81.93 60.58 81.84L60.63 81.63C60.67 81.51 60.72 81.39 60.77 81.26L60.89 80.96C60.96 80.76 61.02 80.56 61.08 80.35L61.14 80.13C61.18 80.02 61.23 79.91 61.28 79.79C61.33 79.67 61.39 79.54 61.43 79.42C61.5 79.22 61.58 79.02 61.64 78.81C61.69 78.75 61.72 78.75 61.76 78.75C61.96 78.74 62.15 78.7 62.33 78.67L62.47 78.65C63.08 78.55 63.69 78.42 64.28 78.29C64.53 78.24 64.76 78.21 65 78.17L65.34 78.12C65.71 78.06 66.07 77.97 66.43 77.89L66.7 77.83H66.68C67.18 77.72 67.76 77.58 68.31 77.38C68.47 77.32 68.64 77.27 68.81 77.23L69.08 77.15C69.28 77.09 69.48 77.01 69.68 76.94L69.83 76.88C69.97 76.83 70.11 76.78 70.25 76.74C70.38 76.7 70.52 76.65 70.65 76.61L70.86 76.53C71.06 76.45 71.26 76.38 71.46 76.3C71.87 76.13 72.27 75.92 72.65 75.71L72.86 75.6C73.21 75.43 73.55 75.26 73.9 75.08C74.14 74.97 74.38 74.88 74.63 74.78L74.8 74.72C74.95 74.66 75.1 74.6 75.25 74.53C75.4 74.47 75.55 74.4 75.7 74.34L75.87 74.28C76.13 74.18 76.41 74.08 76.66 73.94C76.78 73.87 76.9 73.79 77.01 73.71C77.11 73.64 77.2 73.57 77.3 73.51L77.52 73.41C77.66 73.35 77.8 73.28 77.93 73.21C78.15 73.1 78.33 72.95 78.54 72.79C78.92 72.48 79.31 72.23 79.68 72.03L79.57 72.07C79.87 71.92 80.14 71.77 80.39 71.62C80.45 71.58 80.5 71.54 80.56 71.5C80.72 71.69 80.88 71.84 81.06 71.97C81.27 72.13 81.51 72.26 81.73 72.39L81.93 72.51C82.37 72.77 82.84 72.99 83.29 73.21L83.7 73.4L84.16 73.62L84.41 73.74C84.42 73.78 84.43 73.82 84.44 73.86C84.48 74 84.58 74.13 84.66 74.25C84.88 74.56 85.08 74.8 85.3 74.98C85.46 75.12 85.65 75.23 85.84 75.34L86.03 75.46C86.12 75.52 86.22 75.58 86.31 75.63C86.63 75.81 86.98 76 87.4 76.19C87.57 76.27 87.75 76.34 87.93 76.41C88.05 76.46 88.17 76.51 88.29 76.56C88.42 76.62 88.55 76.67 88.68 76.72C88.82 76.77 88.96 76.83 89.1 76.89C89.41 77.02 89.72 77.12 90.02 77.21C90.43 77.34 90.86 77.44 91.27 77.54L91.52 77.6C91.77 77.66 92.03 77.72 92.28 77.76C92.41 77.83 92.51 77.85 92.61 77.87Z" fill="#361FAA"/>
<path d="M17.5202 42.69C17.7202 42.63 17.9002 42.56 18.0902 42.48C18.4202 42.34 18.6702 42.04 18.8102 41.6C18.8802 41.4 18.8702 41.15 18.8702 40.94C18.8702 40.72 18.8602 40.52 18.8402 40.32C18.8302 40.14 18.8202 39.97 18.8102 39.79C18.8002 39.58 18.7902 39.38 18.7802 39.17C18.7302 38.51 18.6802 37.84 18.6702 37.17C18.6602 36.81 18.6602 36.44 18.6602 36.08C18.6602 35.94 18.6602 35.8 18.6602 35.65C18.6602 35.38 18.6702 35.11 18.6502 34.84C18.6402 34.68 18.6202 34.52 18.5802 34.36C18.5402 34.18 18.4402 34.01 18.3502 33.85C18.2602 33.69 18.1602 33.55 18.0502 33.4L17.9902 33.31C17.7502 32.96 17.4602 32.61 17.1102 32.24C16.6902 31.8 16.2102 31.41 15.7602 31.03C15.5802 30.88 15.3902 30.72 15.2102 30.56L15.1102 30.47C14.8102 30.21 14.5102 29.95 14.1902 29.7C13.9102 29.49 13.5902 29.28 13.1902 29.05C12.8702 28.87 12.5402 28.7 12.2102 28.54C12.0702 28.47 11.9302 28.41 11.7802 28.34C11.6302 28.27 11.4902 28.21 11.3502 28.14L11.3002 28.11C11.1902 28.06 11.0902 28 10.9802 27.95C10.8702 27.9 10.7502 27.86 10.6402 27.82L10.5602 27.79C10.4702 27.73 10.3902 27.7 10.3202 27.68L10.2502 27.65C10.1902 27.63 10.1102 27.62 10.0402 27.62C9.93016 27.62 9.83016 27.64 9.73016 27.66C9.51016 27.7 9.31016 27.89 9.21016 28.06C9.16016 28.15 9.12016 28.25 9.11016 28.35C8.89016 28.47 8.72016 28.58 8.56016 28.7C8.36016 28.85 8.18016 29.01 7.99016 29.17L7.79016 29.34C7.62016 29.46 7.45016 29.57 7.27016 29.68C7.10016 29.79 6.94016 29.89 6.78016 30.01C6.35016 30.32 6.00016 30.65 5.69016 31.04C5.47016 31.32 5.21016 31.6 4.90016 31.9C4.81016 31.99 4.71016 32.08 4.62016 32.17C4.46016 32.33 4.30016 32.49 4.13016 32.63L4.05016 32.69C3.84016 32.86 3.64016 33 3.48016 33.18L3.42016 33.25C3.14016 33.26 2.80016 33.39 2.66016 33.69C2.55016 33.92 2.50016 34.17 2.44016 34.42L2.40016 34.62C2.32016 34.97 2.24016 35.32 2.17016 35.67C2.11016 35.98 2.04016 36.3 1.97016 36.61C1.86016 37.12 1.75016 37.62 1.66016 38.13C1.52016 38.96 1.44016 39.77 1.43016 40.54C1.43016 40.83 1.41016 41.11 1.39016 41.4C1.36016 41.72 1.39016 42.05 1.48016 42.42C1.56016 42.74 1.72016 43.04 1.96016 43.26C2.14016 43.43 2.37016 43.56 2.69016 43.67C2.80016 43.71 2.92016 43.74 3.03016 43.77C3.18016 43.81 3.33016 43.86 3.48016 43.91C3.80016 44.06 4.10016 44.27 4.40016 44.46L4.51016 44.54C4.71016 44.67 4.91016 44.79 5.11016 44.91C5.32016 45.03 5.50016 45.15 5.72016 45.32C5.97016 45.51 6.23016 45.71 6.55016 45.87C6.84016 46.02 7.16016 46.16 7.51016 46.3C7.67016 46.36 7.84016 46.42 8.01016 46.48C8.26016 46.57 8.52016 46.67 8.77016 46.77C8.90016 46.82 9.00016 46.87 9.10016 46.9C9.21016 46.94 9.31016 46.95 9.43016 46.95C9.68016 46.95 9.93016 46.86 10.1602 46.76C10.3902 46.66 10.6002 46.53 10.8102 46.41L11.0502 46.27C11.3602 46.09 11.7202 45.88 12.0702 45.64C12.3602 45.45 12.6602 45.26 13.0002 45.07L13.1202 45C13.3902 44.85 13.6602 44.69 13.9202 44.52L14.3202 44.25C14.5202 44.11 14.7302 43.98 14.9402 43.84C15.5202 43.48 16.1402 43.2 16.7402 42.94C16.9902 42.85 17.2502 42.77 17.5202 42.69Z" fill="#361FAA"/>
<path d="M5.4 12.13C5.58 12.24 5.76 12.35 5.93 12.47C6.07 12.56 6.2 12.65 6.34 12.74C6.53 12.85 6.72 12.96 6.9 13.07L7.23 13.26C7.27 13.28 7.31 13.31 7.35 13.34C7.4 13.37 7.44 13.4 7.49 13.43C7.71 13.56 7.96 13.63 8.24 13.66C8.28 13.66 8.32 13.67 8.36 13.67C8.57 13.67 8.8 13.62 9.08 13.51C9.44 13.37 9.78 13.2 10.12 13.02C10.36 12.89 10.61 12.77 10.86 12.66C11.15 12.54 11.47 12.42 11.81 12.35C12.15 12.29 12.45 12.23 12.74 12.13C12.82 12.11 12.89 12.08 12.97 12.04C13.15 12.01 13.31 11.92 13.44 11.8L13.49 11.74C13.74 11.52 13.91 11.22 13.96 10.89C14 10.64 14.02 10.42 14.01 10.21C14.01 10.08 14 9.94001 13.98 9.80001L13.96 9.56001L13.93 9.23001C13.91 8.96001 13.88 8.70002 13.87 8.43002C13.85 8.04002 13.85 7.65001 13.85 7.26002C13.85 7.05001 13.86 6.85001 13.88 6.65001L13.9 6.40001C13.92 6.07001 13.86 5.74002 13.73 5.40001C13.63 5.15001 13.53 4.90001 13.39 4.67001C13.14 4.26001 12.74 3.97001 12.29 3.86001C12.22 3.84001 12.14 3.83001 12.07 3.83001C12.03 3.83001 11.99 3.83001 11.95 3.84001L11.9 3.71001L11.84 3.58001C11.76 3.38001 11.67 3.18001 11.57 2.99001C11.53 2.91001 11.49 2.84001 11.44 2.77001C11.4 2.71001 11.37 2.64001 11.33 2.58001L11.29 2.51001C11.22 2.39001 11.15 2.26001 11.09 2.14001C11.05 2.01001 11.02 1.93001 10.97 1.84001C10.84 1.58001 10.51 1.39001 10.2 1.39001H10.19C9.98 1.39001 9.85 1.45001 9.65 1.54001C9.53 1.59001 9.41 1.66001 9.3 1.73001L9.09 1.84001C8.81 1.99001 8.56 2.13001 8.33 2.29001C8.02 2.51001 7.72 2.74001 7.42 2.97001L7.5 2.92001C7.12 3.22001 6.76 3.54001 6.41 3.86001C6.26 3.99001 6.12 4.12001 5.97 4.25001C5.71 4.48001 5.51 4.70001 5.31 4.95001C5.25 5.03001 5.2 5.12001 5.14 5.21001C5.1 5.27001 5.07 5.32001 5.03 5.38001L4.95 5.48001C4.79 5.68001 4.69 5.85001 4.58 6.12001C4.5 6.29001 4.48 6.50001 4.46 6.68001C4.43 6.93001 4.41 7.14002 4.39 7.34001L4.36 7.75001C4.34 7.97001 4.32 8.20002 4.3 8.42001L4.26 8.78001C4.23 9.05001 4.2 9.31001 4.18 9.58001C4.17 9.67001 4.16 9.76001 4.15 9.85001C4.14 9.97001 4.13 10.09 4.12 10.21C4.1 10.56 4.21 10.94 4.41 11.25C4.64 11.59 4.94 11.86 5.4 12.13Z" fill="#361FAA"/>
<path d="M26.6401 19.55C26.6701 19.87 26.7101 20.21 26.7701 20.53C26.8201 20.75 26.8901 20.97 27.0001 21.19C27.0701 21.34 27.2101 21.49 27.3401 21.61L27.4701 21.73L27.6601 21.91C27.9001 22.12 28.1101 22.36 28.3301 22.59L28.4501 22.72C28.6701 22.95 28.8901 23.18 29.1201 23.4L29.2901 23.57C29.3701 23.65 29.4401 23.74 29.5201 23.83C29.7601 24.16 29.9401 24.45 30.0801 24.75C30.1301 24.89 30.1801 25.02 30.2201 25.16L30.3101 25.41C30.3701 25.59 30.4401 25.76 30.5401 25.92C30.7701 26.27 31.1101 26.48 31.4401 26.48C31.5301 26.48 31.6201 26.46 31.7001 26.43C32.0001 26.32 32.1901 26.11 32.3901 25.89L32.51 25.76C32.74 25.51 33.0201 25.3 33.2801 25.09C33.6301 24.82 33.9601 24.62 34.3001 24.46C34.4801 24.37 34.6501 24.27 34.8201 24.16C34.9701 24.06 35.1301 23.96 35.2901 23.88C35.3801 23.84 35.4801 23.81 35.5701 23.78C35.7901 23.72 35.93 23.62 36.1 23.49C36.2401 23.38 36.3201 23.19 36.3801 23.03L36.4001 22.97C36.4601 22.81 36.4801 22.64 36.51 22.47C36.54 22.26 36.5701 22.07 36.5901 21.88L36.6101 21.69L36.6 21.73L36.6301 21.57L36.6801 21.23L36.7001 21.09V21.04V21C36.7001 21 36.7001 20.99 36.7001 20.98V20.97C36.7001 20.96 36.7001 20.95 36.7001 20.95V20.92L36.7501 20.64L36.8101 20.14C36.8301 20.02 36.84 19.9 36.85 19.78C36.89 19.49 36.9401 19.23 36.9801 18.98L37.01 18.83C37.05 18.63 37.0901 18.4 37.0301 18.18C36.93 17.84 36.71 17.65 36.51 17.5C36.37 17.39 36.2101 17.31 36.0601 17.23C35.7101 17.04 35.4101 16.84 35.1101 16.65C34.9601 16.55 34.8001 16.45 34.6501 16.35C34.4001 16.19 34.16 16.07 33.92 15.97C33.82 15.93 33.7201 15.89 33.6201 15.86L33.5301 15.83C33.3301 15.73 33.1101 15.6 32.9001 15.45L32.7701 15.33C32.6601 15.23 32.55 15.13 32.42 15.05C32.3 14.97 32.1501 14.93 32.0001 14.93C31.6901 14.93 31.3901 15.1 31.2301 15.36C31.2101 15.4 31.1901 15.44 31.1701 15.48C31.0001 15.54 30.8501 15.59 30.7001 15.62C30.4901 15.64 30.2801 15.64 30.0701 15.65C29.8201 15.66 29.5601 15.66 29.3101 15.69C29.0401 15.72 28.7501 15.76 28.4701 15.86C28.2801 15.93 28.0901 16.02 27.9001 16.11C27.8201 16.14 27.7401 16.16 27.6601 16.17C27.5901 16.18 27.5101 16.19 27.4401 16.2C27.2501 16.23 27.0701 16.32 26.9001 16.47C26.6201 16.71 26.5701 17.07 26.5401 17.38C26.5101 17.65 26.5101 17.94 26.5301 18.23C26.5501 18.62 26.5901 19.01 26.6301 19.4L26.6401 19.55Z" fill="#361FAA"/>
<path d="M55.8999 80.22H55.9099L55.8999 80.21V80.22Z" fill="#0D003A"/>
<path d="M95.6099 67.05C95.6099 67.05 95.6199 67.05 95.6199 67.06C95.6299 67.06 95.6399 67.07 95.6399 67.07C95.6399 67.07 95.6299 67.06 95.6099 67.05Z" fill="#0D003A"/>
<path d="M95.71 67.1C95.72 67.1 95.73 67.11 95.74 67.11C95.77 67.13 95.81 67.15 95.85 67.17C95.8 67.15 95.75 67.12 95.71 67.1Z" fill="#0D003A"/>
<path d="M99.23 50.95C99.23 50.94 99.23 50.94 99.23 50.93C99.24 50.93 99.23 50.94 99.23 50.95C99.23 50.94 99.23 50.94 99.23 50.95Z" fill="#0D003A"/>
<path d="M98.2001 56.52C98.2001 56.54 98.1902 56.56 98.1802 56.58C98.1702 56.61 98.1702 56.63 98.1602 56.66C98.1802 56.62 98.1901 56.57 98.2001 56.52Z" fill="#0D003A"/>
<path d="M98.2598 56.25C98.2598 56.23 98.2698 56.22 98.2698 56.2C98.2698 56.21 98.2698 56.23 98.2598 56.25C98.2598 56.24 98.2598 56.25 98.2598 56.25Z" fill="#0D003A"/>
<path d="M99.23 50.97C99.23 50.96 99.23 50.95 99.24 50.94C99.23 50.95 99.23 50.96 99.23 50.97Z" fill="#0D003A"/>
<path d="M46.51 57.39L46.5 57.4V57.39H46.51Z" fill="#0D003A"/>
<path d="M55.8799 72.15C55.8899 72.14 55.8899 72.14 55.8899 72.13C55.8899 72.14 55.8799 72.15 55.8799 72.15Z" fill="#0D003A"/>
<path d="M41.5798 58.29C41.5598 58.29 41.5498 58.3 41.5298 58.3C41.5398 58.3 41.5398 58.3 41.5498 58.3C41.5598 58.29 41.5698 58.29 41.5798 58.29Z" fill="#0D003A"/>
<path d="M54.56 60.36C55.03 60.36 55.44 60.03 55.47 59.54C55.49 59.09 55.12 58.63 54.65 58.63C54.18 58.63 53.77 58.96 53.74 59.45C53.72 59.91 54.09 60.36 54.56 60.36Z" fill="#0D003A"/>
<path d="M57.3598 64.27C57.8298 64.27 58.2398 63.94 58.2698 63.45C58.2898 63 57.9198 62.54 57.4498 62.54C56.9798 62.54 56.5698 62.87 56.5398 63.36C56.5198 63.82 56.8898 64.27 57.3598 64.27Z" fill="#0D003A"/>
<path d="M57.3398 66.32C57.8098 66.32 58.2198 65.99 58.2498 65.5C58.2698 65.05 57.8998 64.59 57.4298 64.59C56.9598 64.59 56.5498 64.92 56.5198 65.41C56.4998 65.87 56.8698 66.32 57.3398 66.32Z" fill="#0D003A"/>
<path d="M35.6802 68.11C35.2202 68.21 34.9202 68.68 35.0202 69.14C35.0202 69.16 35.0302 69.18 35.0302 69.19C35.1302 69.65 35.6002 69.95 36.0602 69.85C36.5202 69.75 36.8202 69.28 36.7202 68.82C36.7202 68.8 36.7102 68.78 36.7102 68.77C36.6202 68.37 36.2602 68.09 35.8702 68.09C35.8102 68.09 35.7402 68.09 35.6802 68.11Z" fill="#0D003A"/>
<path d="M55.29 50.39C55.31 50.39 55.33 50.39 55.35 50.4C55.33 50.39 55.31 50.39 55.29 50.39Z" fill="#0D003A"/>
<path d="M57.04 49.92C57.07 49.91 57.1 49.9 57.12 49.89C57.14 49.88 57.15 49.87 57.17 49.87C57.13 49.88 57.08 49.9 57.04 49.92Z" fill="#0D003A"/>
<path d="M92.95 51.04C92.87 51.05 92.8 51.06 92.73 51.07C92.8 51.07 92.88 51.05 92.95 51.04Z" fill="#0D003A"/>
<path d="M66.6401 45.34L66.6501 45.33L66.6401 45.34Z" fill="#0D003A"/>
<path d="M89.8701 51.77C89.8701 51.78 89.8701 51.78 89.8701 51.77C89.8501 51.78 89.8401 51.78 89.8301 51.79C89.8401 51.79 89.8601 51.78 89.8701 51.77Z" fill="#0D003A"/>
<path d="M92.4702 64.05C92.5002 64.03 92.5202 64.01 92.5502 63.99C92.5802 63.97 92.6102 63.94 92.6502 63.92C92.5902 63.96 92.5302 64.01 92.4702 64.05Z" fill="#0D003A"/>
<path d="M83.7498 75.03C83.7298 75.01 83.6998 74.99 83.6798 74.98C83.6398 74.95 83.6098 74.93 83.5698 74.9C83.6398 74.94 83.6998 74.98 83.7498 75.03Z" fill="#0D003A"/>
<path d="M64.15 79.22C64.12 79.23 64.08 79.23 64.05 79.23H64.04C64.07 79.23 64.11 79.22 64.15 79.22Z" fill="#0D003A"/>
<path d="M51.2899 86.56C51.2699 86.55 51.2599 86.53 51.2399 86.52C51.1999 86.49 51.1499 86.46 51.1099 86.42C51.1699 86.47 51.2299 86.52 51.2899 86.56Z" fill="#0D003A"/>
<path d="M19.2398 70.04C19.8898 70.46 20.5398 70.88 21.2098 71.27C21.8898 71.66 22.5598 72.06 23.2398 72.43C23.9398 72.81 24.6298 73.21 25.3298 73.6C25.6898 73.8 26.0498 74 26.4198 74.2C26.8198 74.41 27.2198 74.59 27.6298 74.77C28.0098 74.94 28.3798 75.11 28.7498 75.3C29.1898 75.53 29.6498 75.7 30.1098 75.87C30.5298 76.03 30.9598 76.17 31.3798 76.33C31.7798 76.48 32.1698 76.64 32.5598 76.77C32.8998 76.89 33.2498 77 33.5798 77.12C33.8898 77.23 34.1998 77.35 34.5098 77.46C34.5098 77.46 34.5198 77.46 34.5198 77.47H34.5098C34.5198 77.47 34.5298 77.47 34.5298 77.48C34.5398 77.48 34.5598 77.49 34.5698 77.5C34.5498 77.49 34.5398 77.49 34.5198 77.48C34.5398 77.49 34.5498 77.49 34.5698 77.5C34.5698 77.5 34.5698 77.5 34.5798 77.5C35.3298 77.77 36.0898 78.05 36.8498 78.28C36.9498 78.31 37.0498 78.33 37.1498 78.36C37.7598 78.57 38.3698 78.8 38.9898 78.98C39.5198 79.14 40.0798 79.24 40.6198 79.37C41.2198 79.51 41.8198 79.65 42.4298 79.74C42.6998 79.78 42.9698 79.83 43.2498 79.86C43.5498 79.9 43.8498 79.92 44.1498 79.95C44.7598 80.01 45.3598 80.1 45.9698 80.16C46.2998 80.19 46.6198 80.22 46.9498 80.23C47.0298 80.45 47.1098 80.66 47.1998 80.88C47.3298 81.21 47.4798 81.53 47.6398 81.85C47.7698 82.11 47.8898 82.37 48.0398 82.62C48.2198 82.94 48.4198 83.25 48.6098 83.56C48.8098 83.88 49.0398 84.2 49.2798 84.5C49.4798 84.75 49.7198 84.98 49.9398 85.21C50.1498 85.44 50.3598 85.67 50.5598 85.9C50.7698 86.14 50.9998 86.33 51.2398 86.53C51.4698 86.71 51.6998 86.89 51.9398 87.06C52.1898 87.24 52.4298 87.42 52.6898 87.59C52.7398 87.62 52.7998 87.65 52.8498 87.68C52.8798 87.7 52.9098 87.73 52.9398 87.75C53.0198 87.8 53.1098 87.83 53.1898 87.87C53.5598 88.06 53.9398 88.24 54.2998 88.44C54.6498 88.63 55.0298 88.77 55.4098 88.91C55.7098 89.02 56.0198 89.15 56.3298 89.21C56.6498 89.28 56.9698 89.32 57.2898 89.38C57.6998 89.46 58.0998 89.55 58.5098 89.59C58.8498 89.62 59.1998 89.64 59.5398 89.68C59.7098 89.7 59.8798 89.72 60.0498 89.73C60.3398 89.77 60.6298 89.82 60.9198 89.84C61.2498 89.87 61.5798 89.89 61.9098 89.91C62.1198 89.95 62.3098 90.01 62.5198 90.05C62.6998 90.09 62.8898 90.12 63.0698 90.06C63.2198 90.02 63.3498 89.94 63.4598 89.84C63.4598 89.84 63.4698 89.84 63.4698 89.83C63.6298 89.73 63.7298 89.56 63.7498 89.38C63.7498 89.34 63.7298 89.3 63.7198 89.25C63.7298 88.96 63.5998 88.69 63.3798 88.49C63.1598 88.3 62.9298 88.12 62.7198 87.92C62.4698 87.68 62.2498 87.41 62.0398 87.14C61.8398 86.88 61.6398 86.61 61.4698 86.32C61.3098 86.05 61.1798 85.77 61.0498 85.48C60.9598 85.26 60.8998 85.04 60.8498 84.81C60.8298 84.6 60.8198 84.4 60.8198 84.19C60.8198 84.13 60.8098 84.08 60.7998 84.02C60.8098 83.79 60.8398 83.57 60.8798 83.34C60.8998 83.27 60.9198 83.2 60.9398 83.13C60.9598 83.08 60.9798 83.03 60.9998 82.97C61.0998 82.76 61.2198 82.57 61.3498 82.37C61.4698 82.18 61.5698 81.97 61.6598 81.77C61.7898 81.5 61.8898 81.22 61.9998 80.95C62.0898 80.72 62.1298 80.48 62.1598 80.23C62.1698 80.17 62.1798 80.11 62.1898 80.05C62.2098 80 62.2298 79.95 62.2398 79.89C62.2798 79.77 62.2998 79.65 62.3198 79.53C62.3298 79.46 62.3398 79.38 62.3398 79.31C62.3698 79.3 62.3998 79.3 62.4298 79.29C62.5398 79.27 62.6598 79.24 62.7698 79.22C62.8898 79.28 63.0198 79.33 63.1598 79.32C63.4498 79.3 63.7298 79.26 64.0198 79.22C64.3798 79.17 64.7298 79.08 65.0898 79.03C65.0298 79.04 64.9798 79.05 64.9198 79.05C65.4098 78.98 65.8798 78.86 66.3698 78.79C66.8498 78.72 67.3198 78.57 67.7898 78.44C68.2498 78.31 68.7298 78.24 69.1698 78.06C69.6298 77.88 70.0698 77.66 70.5098 77.46C70.8198 77.34 71.1398 77.24 71.4598 77.13C71.8498 77 72.2298 76.83 72.6098 76.67C73.2098 76.4 73.7998 76.1 74.4098 75.84C74.9698 75.61 75.5198 75.36 76.0598 75.1C76.5798 74.86 77.0698 74.58 77.5698 74.31C78.0398 74.06 78.5098 73.8 78.9898 73.56C79.2298 73.44 79.4598 73.32 79.6998 73.21C79.9298 73.1 80.1498 72.97 80.3898 72.87C80.4698 72.84 80.5599 72.81 80.6498 72.79C80.6798 72.79 80.7098 72.79 80.7498 72.79C80.7898 72.8 80.8198 72.81 80.8598 72.82C80.9898 72.88 81.1098 72.95 81.2299 73.04C81.3799 73.15 81.5498 73.23 81.6998 73.34C81.8798 73.49 82.0599 73.65 82.2299 73.82C82.4899 74.07 82.7898 74.3 83.0798 74.52C83.1698 74.59 83.2598 74.66 83.3398 74.72C83.2798 74.68 83.2198 74.63 83.1599 74.59C83.3199 74.72 83.4898 74.85 83.6498 74.98C84.2598 75.45 84.9098 75.89 85.5898 76.25C86.2398 76.6 86.8998 76.95 87.5398 77.31C88.2699 77.72 89.0598 78.05 89.8598 78.3C90.6098 78.53 91.3699 78.71 92.1498 78.78C92.7299 78.84 93.3198 78.89 93.8998 78.89C94.1698 78.89 94.4398 78.89 94.7198 78.89C94.9799 78.91 95.2399 78.94 95.5098 78.95C95.7898 78.96 96.0698 78.96 96.3498 78.95C96.6598 78.95 96.9598 78.94 97.2698 78.91C97.3898 78.9 97.5098 78.88 97.6298 78.86C97.7498 78.86 97.8698 78.86 97.9898 78.86C98.7698 78.83 99.5398 78.76 100.31 78.64C100.5 78.61 100.69 78.58 100.88 78.54C101.09 78.49 101.31 78.43 101.53 78.38C101.92 78.29 102.31 78.22 102.7 78.12C103.03 78.03 103.37 77.94 103.7 77.83C103.72 77.82 103.74 77.81 103.77 77.8C104.03 77.75 104.27 77.7 104.52 77.63C104.76 77.56 105.03 77.5 105.19 77.28C105.31 77.1 105.33 76.87 105.24 76.67C105.15 76.49 104.98 76.38 104.79 76.31C104.56 76.23 104.33 76.18 104.1 76.1C103.85 76.01 103.6 75.91 103.37 75.8C103.17 75.69 102.97 75.58 102.77 75.46C102.65 75.39 102.54 75.29 102.44 75.21C102.22 75.01 102.02 74.81 101.81 74.59C101.77 74.55 101.73 74.5 101.69 74.45C101.53 74.25 101.39 74.04 101.25 73.84C100.92 73.3 100.65 72.74 100.37 72.17C100.21 71.85 100.02 71.56 99.8298 71.26C99.6098 70.91 99.3799 70.57 99.1498 70.23C98.9598 69.93 98.7699 69.64 98.5499 69.37C98.3198 69.09 98.0498 68.84 97.7798 68.59L97.7898 68.6C97.7798 68.59 97.7698 68.58 97.7498 68.57C97.7299 68.55 97.6998 68.53 97.6798 68.5C97.6898 68.51 97.6998 68.52 97.7098 68.53C97.4098 68.26 97.0898 68.01 96.7698 67.77C96.4398 67.52 96.0798 67.31 95.7098 67.11C95.7098 67.11 95.6998 67.11 95.6998 67.1C95.6698 67.08 95.6398 67.07 95.6098 67.05C94.9799 66.72 94.3399 66.4 93.6798 66.12C93.4298 66.01 93.1798 65.91 92.9298 65.8C93.1498 65.66 93.3499 65.51 93.5499 65.35C93.6098 65.31 93.6699 65.26 93.7299 65.22C93.6699 65.26 93.6098 65.31 93.5499 65.35C93.7498 65.2 93.9499 65.06 94.1498 64.9C94.3498 64.74 94.4998 64.53 94.6498 64.33C94.7798 64.14 94.8898 63.93 95.0198 63.74C95.1298 63.57 95.2398 63.4 95.3598 63.24C95.4998 63.07 95.6398 62.9 95.7698 62.72C95.9698 62.46 96.1198 62.19 96.2698 61.9C96.4998 61.46 96.7198 61.02 96.9298 60.58C97.1698 60.09 97.3898 59.59 97.5598 59.07C97.6998 58.66 97.7598 58.24 97.8198 57.81C97.8298 57.73 97.8598 57.65 97.8699 57.57C97.8699 57.56 97.8798 57.54 97.8798 57.53C97.9898 57.21 98.0899 56.9 98.1599 56.57C98.1599 56.56 98.1598 56.55 98.1698 56.54C98.1898 56.44 98.2198 56.33 98.2398 56.23C98.2398 56.24 98.2299 56.26 98.2299 56.27C98.2299 56.25 98.2398 56.24 98.2398 56.22C98.2498 56.19 98.2498 56.15 98.2598 56.12C98.2598 56.14 98.2498 56.16 98.2498 56.18C98.2698 56.1 98.2898 56.01 98.3098 55.93C98.3098 55.95 98.2999 55.97 98.2999 55.99C98.3898 55.6 98.4698 55.22 98.5398 54.83C98.6098 54.5 98.6398 54.16 98.6798 53.82C98.6998 53.6 98.7498 53.38 98.7898 53.17C98.8399 52.96 98.8699 52.75 98.8998 52.54C98.9698 52.13 99.0299 51.71 99.1199 51.3C99.1498 51.18 99.1798 51.06 99.2098 50.94C99.2098 50.93 99.2098 50.93 99.2098 50.92C99.2098 50.91 99.2098 50.91 99.2098 50.9C99.2298 50.8 99.2498 50.71 99.2698 50.61C99.2598 50.66 99.2498 50.71 99.2398 50.76C99.2898 50.54 99.3699 50.32 99.4598 50.1C99.5698 50 99.6698 49.89 99.7798 49.79C99.9698 49.62 100.13 49.35 100.17 49.08C100.38 48.93 100.46 48.61 100.35 48.38C100.29 48.25 100.17 48.14 100.03 48.09C99.9698 48.07 99.9098 48.06 99.8398 48.06C99.8298 48.06 99.8099 48.07 99.7999 48.07C99.6999 47.99 99.5898 47.92 99.4598 47.86C99.4998 47.88 99.5398 47.9 99.5798 47.91C99.5398 47.89 99.4998 47.87 99.4498 47.86C99.4198 47.85 99.3998 47.84 99.3699 47.83C99.3898 47.84 99.4199 47.85 99.4398 47.86C99.2399 47.78 99.0498 47.72 98.8398 47.72C98.8098 47.72 98.7898 47.72 98.7598 47.72C98.5599 47.73 98.3698 47.79 98.1698 47.82C97.5698 47.9 96.9898 48.07 96.3898 48.18C95.7598 48.29 95.1398 48.47 94.5098 48.61C93.8399 48.77 93.1498 48.88 92.4998 49.1C92.1898 49.2 91.8898 49.32 91.5698 49.4C91.2898 49.47 91.0198 49.55 90.7398 49.62C90.5898 49.66 90.4398 49.7 90.2999 49.74C90.0698 49.79 89.8298 49.84 89.5998 49.91C88.9598 50.11 88.3398 50.37 87.7398 50.66C87.1098 50.97 86.4898 51.31 85.8598 51.63C85.5698 51.77 85.2798 51.91 84.9898 52.05C84.8498 52.12 84.6998 52.2 84.5698 52.28C84.4198 52.38 84.2898 52.49 84.1498 52.59C84.0698 52.65 83.9898 52.71 83.9198 52.77C83.4098 53.16 82.8799 53.52 82.3998 53.96C81.9799 54.35 81.5599 54.75 81.1498 55.15C80.9198 55.37 80.6999 55.59 80.4799 55.82C80.2399 56.07 79.9698 56.29 79.7299 56.54C79.2999 56.99 79.0198 57.54 78.6698 58.05C78.5898 58.01 78.5198 57.97 78.4398 57.92C78.3898 57.83 78.3198 57.75 78.2198 57.71C78.0598 57.63 77.8898 57.57 77.7198 57.5C77.6898 57.49 77.6598 57.47 77.6298 57.46C77.6198 57.45 77.6098 57.45 77.5998 57.44C77.5898 57.44 77.5798 57.43 77.5698 57.43C77.5598 57.42 77.5398 57.41 77.5298 57.41C77.4198 57.34 77.2998 57.27 77.1798 57.21C76.9898 57.1 76.8098 56.98 76.6098 56.88C76.4198 56.78 76.2098 56.7 76.0098 56.62C75.8398 56.55 75.6598 56.49 75.4898 56.42C75.4198 56.39 75.3398 56.35 75.2698 56.32C74.9798 56.14 74.6998 55.95 74.4098 55.76C74.0398 55.51 73.6498 55.32 73.2598 55.12C73.0498 55.01 72.8498 54.9 72.6498 54.79C72.3998 54.65 72.1298 54.54 71.8698 54.43C71.5598 54.29 71.2398 54.15 70.9098 54.07C70.9098 54.05 70.9198 54.03 70.9198 54.01C70.9498 53.85 71.0198 53.71 71.0698 53.56C71.1498 53.33 71.1598 53.08 71.1898 52.84C71.2398 52.43 71.2098 52 71.2298 51.59C71.2498 51.37 71.2898 51.15 71.2898 50.92C71.2998 50.69 71.3098 50.46 71.3398 50.24C71.3398 50.27 71.3298 50.31 71.3298 50.34C71.3598 50.08 71.3798 49.81 71.4098 49.55C71.4298 49.41 71.4498 49.27 71.4598 49.13C71.4598 49.02 71.4698 48.9 71.4798 48.79C71.5098 48.64 71.5498 48.48 71.5798 48.33C71.6198 48.15 71.6398 47.96 71.6898 47.78C71.7398 47.68 71.7998 47.58 71.8398 47.47C71.9198 47.29 71.9798 47.11 72.0398 46.92C72.0998 46.81 72.1598 46.72 72.2298 46.62C72.3198 46.49 72.3898 46.35 72.4698 46.21C72.5998 45.98 72.7498 45.75 72.8498 45.51C72.9198 45.36 72.9698 45.22 73.0198 45.07C73.0298 45.03 73.0398 45 73.0498 44.96C73.0698 44.89 73.0798 44.81 73.0798 44.73C73.1198 44.59 73.1198 44.44 73.0498 44.32C73.0098 44.25 72.9498 44.21 72.8998 44.16C72.8698 44.12 72.8498 44.08 72.8298 44.05C72.6698 43.86 72.3998 43.77 72.1598 43.77C72.1198 43.77 72.0898 43.77 72.0498 43.78C71.8698 43.8 71.6898 43.82 71.5098 43.85C71.2398 43.9 70.9598 43.96 70.6898 44C70.4098 44.05 70.1298 44.13 69.8498 44.19C69.5698 44.25 69.2898 44.33 69.0098 44.4C68.7298 44.48 68.4598 44.58 68.1798 44.68C67.8798 44.78 67.5798 44.89 67.2898 45.01C67.3098 45 67.3198 45 67.3398 44.99C67.1898 45.05 67.0298 45.12 66.8798 45.18C66.9498 45.15 67.0198 45.12 67.0898 45.09C66.9198 45.16 66.7598 45.23 66.5898 45.29C66.5198 45.32 66.4598 45.34 66.3898 45.37C66.4198 45.36 66.4398 45.35 66.4698 45.34C66.3098 45.41 66.1598 45.47 66.0098 45.54C66.0298 45.53 66.0398 45.53 66.0598 45.52C65.7898 45.64 65.5098 45.75 65.2498 45.89C65.0098 46.02 64.7598 46.16 64.5098 46.28C64.2698 46.4 64.0198 46.51 63.7798 46.63C63.5098 46.76 63.2598 46.93 62.9998 47.07C62.4398 47.38 61.8598 47.66 61.2798 47.94C61.0098 48.07 60.7198 48.2 60.4498 48.33C60.2298 48.44 60.0098 48.56 59.7898 48.66C59.2998 48.87 58.8198 49.12 58.3298 49.34C58.1498 49.41 57.9698 49.48 57.7798 49.54C57.5398 49.62 57.2998 49.72 57.0698 49.83C56.8098 49.95 56.5598 50.08 56.2998 50.19C56.1198 50.26 55.9398 50.31 55.7498 50.36C55.5998 50.35 55.4398 50.35 55.2898 50.33C55.2898 50.33 55.2898 50.33 55.2798 50.33H55.2898C55.0898 50.31 54.8998 50.29 54.6998 50.29C54.5198 50.28 54.3498 50.27 54.1698 50.25C53.9198 50.21 53.6698 50.16 53.4198 50.13C53.2498 50.08 53.0598 50.07 52.8798 50.07C52.7498 50.07 52.6298 50.08 52.5098 50.08C52.1998 50.09 51.8998 50.13 51.5898 50.17C50.9298 50.25 50.2598 50.22 49.5998 50.26C49.2398 50.28 48.8798 50.3 48.5198 50.3C48.1898 50.3 47.8498 50.3 47.5198 50.3C46.7798 50.3 46.0398 50.29 45.3098 50.36C44.4098 50.44 43.4998 50.54 42.6198 50.74C41.7998 50.92 41.0198 51.21 40.2198 51.44C39.4098 51.68 38.5898 51.88 37.7798 52.11C37.0098 52.34 36.2398 52.55 35.4698 52.78C34.6698 53.02 33.8698 53.25 33.0698 53.48C32.4898 53.65 31.8998 53.81 31.3398 54.04C30.7598 54.27 30.1898 54.55 29.6198 54.8C29.2498 54.95 28.8698 55.1 28.4998 55.27C28.1198 55.44 27.7598 55.63 27.3998 55.84C26.6998 56.24 25.9798 56.61 25.2998 57.03C24.9598 57.24 24.6298 57.47 24.3098 57.7C23.9798 57.95 23.6298 58.18 23.2898 58.43C22.5998 58.95 21.9598 59.52 21.3098 60.09C20.7598 60.58 20.2098 61.06 19.6698 61.55C19.1798 61.99 18.6498 62.4 18.1698 62.85C17.9798 63.03 17.7798 63.2 17.5898 63.38C17.5298 63.43 17.4698 63.47 17.4098 63.51C17.1898 63.68 16.9898 63.88 16.7898 64.06C16.7298 64.11 16.6598 64.17 16.5998 64.22C16.3498 64.45 16.0798 64.66 15.8198 64.88C15.5598 65.1 15.3298 65.36 15.0898 65.61C15.0198 65.65 14.9498 65.68 14.8898 65.74C14.8098 65.82 14.7498 65.93 14.6998 66.04C14.6398 66.11 14.5898 66.18 14.5698 66.29C14.5398 66.44 14.5698 66.6 14.6598 66.73C14.7098 66.8 14.7698 66.85 14.8398 66.89C14.8598 66.91 14.8698 66.94 14.8898 66.96C15.1398 67.18 15.3898 67.4 15.6498 67.61C15.6498 67.61 15.6498 67.61 15.6398 67.6C15.6498 67.61 15.6598 67.62 15.6798 67.63C15.6898 67.64 15.6898 67.64 15.6998 67.65C15.9598 67.86 16.2198 68.05 16.5098 68.22C16.7898 68.4 17.0798 68.55 17.3598 68.73C18.0298 69.21 18.6198 69.65 19.2398 70.04ZM32.9798 55.39C33.3998 55.26 33.8298 55.14 34.2498 55.01C35.0398 54.78 35.8298 54.56 36.6098 54.32C36.9798 54.21 37.3598 54.11 37.7398 54.01C38.1398 53.9 38.5398 53.78 38.9398 53.67C39.7398 53.46 40.5498 53.26 41.3398 52.99C41.8798 52.81 42.4198 52.63 42.9798 52.51C43.4598 52.4 43.9498 52.32 44.4398 52.25C45.0998 52.17 45.7698 52.12 46.4398 52.1C46.6998 52.1 46.9598 52.1 47.2198 52.1C47.3298 52.15 47.4598 52.19 47.5898 52.2C47.9598 52.22 48.3198 52.24 48.6898 52.28C49.0398 52.32 49.3898 52.3 49.7398 52.33C50.3998 52.39 51.0698 52.44 51.7298 52.4C52.0298 52.38 52.3198 52.34 52.6198 52.36C52.9298 52.38 53.2298 52.39 53.5398 52.4C53.8598 52.4 54.1698 52.4 54.4898 52.4C54.8398 52.4 55.2098 52.34 55.5498 52.26C55.5998 52.25 55.6598 52.23 55.7098 52.22C55.8698 52.24 56.0198 52.26 56.1698 52.29C56.2698 52.27 56.3698 52.24 56.4698 52.21C56.7298 52.25 56.9998 52.19 57.2098 51.98C57.2298 51.96 57.2398 51.93 57.2498 51.91C57.2898 51.89 57.3298 51.88 57.3598 51.85C57.4898 51.77 57.6298 51.69 57.7598 51.6C57.8498 51.53 57.9498 51.46 58.0398 51.39L58.0498 51.38C58.0898 51.35 58.1298 51.34 58.1698 51.31C58.5398 51.17 58.9098 51.04 59.2698 50.89C59.6898 50.71 60.0898 50.48 60.5098 50.3C60.7598 50.19 61.0098 50.08 61.2498 49.95C61.5198 49.81 61.7998 49.69 62.0698 49.56C62.3598 49.42 62.6498 49.29 62.9298 49.14C63.2198 48.99 63.4998 48.85 63.7898 48.7C64.0498 48.56 64.2998 48.41 64.5598 48.26C64.7998 48.12 65.0598 48 65.3098 47.88C65.5498 47.76 65.7898 47.64 66.0198 47.52C66.1698 47.47 66.3198 47.41 66.4698 47.35C66.7598 47.24 67.0598 47.12 67.3598 47.01C67.3698 47.01 67.3898 47 67.3998 47C67.6998 46.9 67.9998 46.82 68.2998 46.75C68.6498 46.66 68.9898 46.55 69.3398 46.43C69.7598 46.29 70.1998 46.18 70.6298 46.05C70.6298 46.06 70.6198 46.06 70.6198 46.07C70.4998 46.23 70.3798 46.4 70.2698 46.57C69.9898 47 69.7298 47.46 69.5298 47.93C69.4398 48.15 69.3498 48.38 69.2898 48.62C69.2198 48.88 69.1798 49.15 69.1498 49.42C69.1298 49.66 69.0998 49.89 69.1098 50.13C69.1198 50.44 69.1598 50.75 69.1998 51.05C69.2298 51.29 69.2698 51.54 69.3198 51.78C69.3498 51.96 69.3998 52.14 69.4198 52.33C69.4298 52.54 69.4398 52.74 69.4598 52.95C69.4598 52.9 69.4498 52.85 69.4498 52.79C69.4598 52.89 69.4598 53 69.4598 53.11C69.4098 53.26 69.3498 53.41 69.3098 53.57C69.2698 53.78 69.2198 53.99 69.1498 54.19C69.1498 54.19 69.1498 54.19 69.1398 54.19C69.1298 54.22 69.1198 54.25 69.1198 54.27C69.1098 54.28 69.0998 54.3 69.0898 54.31C68.9998 54.45 68.9798 54.63 68.9898 54.8C68.9698 54.96 68.9498 55.12 68.9298 55.28C68.9298 55.29 68.9298 55.3 68.9298 55.31C68.9298 55.31 68.9298 55.31 68.9298 55.32C69.0598 55.36 69.1998 55.4 69.3298 55.44C69.3598 55.47 69.3898 55.51 69.4298 55.52C69.6498 55.62 69.6798 55.62 69.9198 55.65C69.9698 55.66 70.0198 55.66 70.0798 55.66C70.1598 55.69 70.2498 55.71 70.3298 55.74C70.3798 55.76 70.4198 55.78 70.4698 55.79C70.4798 55.79 70.4798 55.79 70.4898 55.8C70.4998 55.8 70.5098 55.81 70.5198 55.81C70.5298 55.81 70.5298 55.81 70.5398 55.82C70.5498 55.82 70.5598 55.82 70.5598 55.83C71.0298 56 71.4798 56.18 71.9398 56.37C72.0198 56.4 72.0998 56.43 72.1798 56.46C72.3398 56.55 72.4998 56.63 72.6698 56.71C73.0998 56.91 73.5098 57.16 73.8898 57.44C74.1098 57.6 74.3298 57.75 74.5598 57.88C74.7998 58.02 75.0498 58.12 75.2898 58.24C75.4798 58.33 75.6698 58.43 75.8598 58.53C76.0898 58.65 76.3298 58.74 76.5798 58.83C76.8998 58.97 77.1998 59.17 77.4898 59.35C77.5998 59.42 77.7098 59.47 77.8198 59.54C77.8798 59.58 77.9398 59.62 77.9998 59.65C78.0898 59.7 78.1798 59.72 78.2698 59.75C78.2898 59.76 78.3098 59.77 78.3298 59.77C78.3398 59.77 78.3398 59.78 78.3498 59.78C78.3898 59.81 78.4198 59.84 78.4798 59.88C78.6798 60 78.9598 60.05 79.1798 59.97C79.2398 59.95 79.2798 59.93 79.3298 59.9C79.4099 59.9 79.4898 59.88 79.5598 59.85C79.7098 59.78 79.7798 59.67 79.8498 59.53C79.8998 59.42 79.9598 59.31 80.0098 59.21C80.0199 59.19 80.0298 59.17 80.0398 59.15C80.1498 59.01 80.2598 58.88 80.3498 58.73C80.4898 58.5 80.6298 58.27 80.7798 58.05C80.8198 58 80.8598 57.94 80.9099 57.89C81.1498 57.63 81.4099 57.4 81.6599 57.15C81.8199 57 81.9598 56.84 82.1098 56.68C82.2598 56.53 82.3998 56.39 82.5598 56.25C83.1198 55.73 83.6599 55.18 84.2498 54.7C84.5698 54.46 84.8998 54.23 85.2198 53.98C85.1599 54.02 85.1098 54.07 85.0499 54.11C85.1599 54.03 85.2598 53.95 85.3699 53.87C85.6398 53.67 85.9598 53.52 86.2598 53.37C86.5899 53.21 86.9198 53.06 87.2398 52.89C87.6598 52.68 88.0798 52.45 88.4998 52.24C88.6298 52.23 88.7598 52.2 88.8798 52.14C88.9798 52.11 89.0698 52.08 89.1698 52.04C89.2998 51.99 89.4198 51.94 89.5398 51.89C89.6599 51.84 89.7798 51.79 89.8998 51.74C90.0599 51.67 90.2198 51.6 90.3798 51.53C90.6198 51.44 90.8598 51.37 91.0998 51.3C91.3698 51.24 91.6498 51.19 91.9298 51.15C92.0698 51.13 92.2098 51.11 92.3498 51.09C92.5598 51.06 92.7798 51.04 92.9898 51.01C93.1498 50.99 93.3198 50.96 93.4799 50.94C93.6898 50.91 93.9099 50.89 94.1199 50.86C94.0899 50.86 94.0698 50.87 94.0398 50.87C94.2699 50.84 94.4998 50.82 94.7299 50.81C94.9799 50.8 95.2299 50.77 95.4799 50.75C95.7099 50.73 95.9498 50.73 96.1798 50.7C96.4099 50.67 96.6398 50.62 96.8798 50.59C97.0298 50.57 97.1698 50.55 97.3098 50.51C97.2998 50.53 97.2798 50.56 97.2698 50.58C97.1598 50.78 97.0798 51 96.9998 51.22C96.9298 51.41 96.8698 51.6 96.8098 51.8C96.7498 52.01 96.7198 52.23 96.6998 52.45C96.6498 52.78 96.5498 53.1 96.5198 53.44C96.4898 53.75 96.4998 54.06 96.4998 54.37C96.4998 54.99 96.5098 55.61 96.4498 56.22C96.4098 56.47 96.3398 56.72 96.2798 56.96C96.2198 57.21 96.1798 57.47 96.1498 57.73C96.0698 58.21 95.9198 58.68 95.7398 59.13C95.5598 59.53 95.3698 59.92 95.1698 60.32C95.0598 60.55 94.9398 60.78 94.8198 61.01C94.7198 61.21 94.6199 61.4 94.4998 61.58C94.4598 61.64 94.4199 61.7 94.3699 61.75C94.1498 62.03 93.9198 62.31 93.7198 62.6C93.5398 62.87 93.3799 63.16 93.1898 63.43C93.1199 63.51 93.0398 63.58 92.9598 63.66C92.8298 63.76 92.6898 63.86 92.5598 63.95C92.4698 64.02 92.3898 64.08 92.2999 64.15C92.0499 64.33 91.7698 64.46 91.4998 64.61C91.2999 64.72 91.1198 64.85 90.9498 65C90.8298 65.1 90.7298 65.23 90.6298 65.37C90.5498 65.43 90.4998 65.51 90.4598 65.59C90.4298 65.62 90.3798 65.64 90.3598 65.66C90.1998 65.82 90.1098 66.04 90.1098 66.27C90.1098 66.5 90.1998 66.72 90.3598 66.88C90.5398 67.06 90.7299 67.1 90.9698 67.13C91.0398 67.14 91.1098 67.15 91.1798 67.16C91.4398 67.2 91.7098 67.24 91.9698 67.3C92.1798 67.35 92.3799 67.42 92.5798 67.5C93.0199 67.69 93.4498 67.89 93.8598 68.13C94.2798 68.38 94.6898 68.65 95.0798 68.94C95.3399 69.15 95.5798 69.38 95.8198 69.62C96.0798 69.88 96.3198 70.15 96.5798 70.4C96.8699 70.69 97.1398 71.02 97.4398 71.3C97.7299 71.57 97.9998 71.86 98.2498 72.16C98.5698 72.61 98.7598 73.14 99.0198 73.63C99.3498 74.27 99.7998 74.82 100.28 75.35C100.65 75.75 101.01 76.17 101.42 76.51C101.45 76.53 101.47 76.55 101.5 76.58C101.02 76.69 100.54 76.83 100.05 76.9C100.1 76.89 100.15 76.89 100.21 76.88C100.04 76.9 99.8698 76.93 99.6998 76.95C99.3698 76.99 99.0298 77 98.6998 77.03C98.3498 77.06 97.9898 77.07 97.6398 77.08C96.9698 77.09 96.2898 77.09 95.6199 77.09C94.9598 77.09 94.2999 77.09 93.6398 77.09C93.3498 77.09 93.0598 77.05 92.7698 77.03C92.5598 77.02 92.3398 77 92.1298 76.97C91.6698 76.91 91.2098 76.78 90.7698 76.66C90.3298 76.54 89.8898 76.4 89.4698 76.22C89.0598 76.04 88.6698 75.84 88.2798 75.62C87.8798 75.4 87.4598 75.19 87.0598 74.97C86.2498 74.53 85.4498 74.06 84.7098 73.5C84.5698 73.39 84.4298 73.28 84.2898 73.17L84.2999 73.18L84.2898 73.17C84.2398 73.13 84.1999 73.1 84.1498 73.07L84.1398 73.06C83.9198 72.89 83.6999 72.72 83.5098 72.53C83.3298 72.36 83.1598 72.19 82.9598 72.04C82.7598 71.88 82.5598 71.73 82.3398 71.6C82.1998 71.52 82.0698 71.4 81.9198 71.33C81.7198 71.24 81.5398 71.12 81.3198 71.07C81.2999 71.06 81.2798 71.07 81.2598 71.06C81.1498 71.01 81.0398 71 80.9198 71.01C80.7098 71 80.5098 71 80.2999 71.04C80.1699 71.06 80.0398 71.12 79.9198 71.17C79.6998 71.26 79.4898 71.35 79.2798 71.46C78.9798 71.61 78.6898 71.77 78.3898 71.91C78.0398 72.08 77.6998 72.25 77.3598 72.44C77.0098 72.64 76.6398 72.82 76.2898 73.02C75.5898 73.42 74.8398 73.76 74.0998 74.08C73.2898 74.41 72.5198 74.81 71.7198 75.16C71.3998 75.29 71.0798 75.4 70.7498 75.52C70.6198 75.49 70.4798 75.48 70.3498 75.53C70.0298 75.63 69.7598 75.83 69.4598 75.98C69.1898 76.08 68.9098 76.15 68.6298 76.25C68.3398 76.36 68.0398 76.44 67.7298 76.5C67.4998 76.53 67.2698 76.55 67.0398 76.61C66.8598 76.66 66.6798 76.7 66.4998 76.73C66.2898 76.75 66.0798 76.77 65.8698 76.81C65.7198 76.84 65.5798 76.86 65.4298 76.89C65.2098 76.92 64.9898 76.94 64.7798 76.98C64.6298 77.01 64.4798 77.04 64.3198 77.07C63.8898 77.11 63.4498 77.09 63.0198 77.1C62.5198 77.11 61.9698 77.13 61.5498 77.43C61.3198 77.59 61.1098 77.8 60.9898 78.05C60.8798 78.26 60.8098 78.48 60.7598 78.71C60.6498 79.18 60.5698 79.64 60.5098 80.12C60.5198 80.04 60.5298 79.97 60.5398 79.89C60.4898 80.19 60.3898 80.47 60.2698 80.75C60.1698 80.98 60.0498 81.22 59.9198 81.44C59.8398 81.57 59.7498 81.7 59.6798 81.84C59.5698 82.03 59.4998 82.24 59.4098 82.44C59.3598 82.57 59.2998 82.71 59.2498 82.84C59.1698 83.05 59.1398 83.23 59.1098 83.46C59.0998 83.6 59.1098 83.74 59.1298 83.88C59.1498 84.04 59.1498 84.2 59.1598 84.37C59.1698 84.76 59.2098 85.15 59.3198 85.52C59.4298 85.9 59.5998 86.26 59.7698 86.61C59.9298 86.96 60.1198 87.29 60.3498 87.6C60.4398 87.73 60.5398 87.85 60.6298 87.98C60.3798 87.97 60.1298 87.96 59.8798 87.92C59.9098 87.92 59.9298 87.93 59.9598 87.93C59.6998 87.9 59.4398 87.87 59.1798 87.84C58.9498 87.81 58.7098 87.81 58.4798 87.79C57.9798 87.71 57.4798 87.58 56.9798 87.51C56.7298 87.47 56.5098 87.39 56.2698 87.31C56.0298 87.22 55.7998 87.14 55.5598 87.05C55.2998 86.93 55.0598 86.79 54.8098 86.67C54.5398 86.54 54.2698 86.41 54.0098 86.27C53.7298 86.12 53.4598 85.94 53.2098 85.75C52.9798 85.58 52.7398 85.43 52.5198 85.26C52.4698 85.22 52.4198 85.18 52.3598 85.14C52.3698 85.14 52.3698 85.15 52.3798 85.15C52.0498 84.89 51.7898 84.57 51.5198 84.26C51.2198 83.93 50.8998 83.61 50.6098 83.27C50.2598 82.79 49.9598 82.28 49.6398 81.77C49.4998 81.54 49.3798 81.29 49.2598 81.05C49.1598 80.85 49.0598 80.65 48.9598 80.45C48.8598 80.19 48.7698 79.93 48.6598 79.67C48.5898 79.49 48.5198 79.29 48.4098 79.13C48.2598 78.9 48.1098 78.76 47.8898 78.61C47.4098 78.27 46.8298 78.3 46.2698 78.24C46.0598 78.21 45.8398 78.17 45.6298 78.13C45.3498 78.08 45.0698 78.05 44.7898 78.02C44.5198 77.98 44.2598 77.95 43.9898 77.91C43.7798 77.88 43.5598 77.87 43.3498 77.85C43.1198 77.82 42.8898 77.78 42.6498 77.75C42.4198 77.72 42.1898 77.72 41.9598 77.69C41.2898 77.58 40.6298 77.38 39.9598 77.23C39.5898 77.14 39.2198 77.03 38.8498 76.94C38.4698 76.84 38.0898 76.76 37.7198 76.66C36.9498 76.45 36.2098 76.15 35.4498 75.9C34.7498 75.66 34.0698 75.39 33.3698 75.16C32.8198 74.98 32.2798 74.77 31.7498 74.56C31.1598 74.34 30.5598 74.14 29.9798 73.91C29.6598 73.76 29.3398 73.59 29.0198 73.44C28.6198 73.25 28.2198 73.08 27.8298 72.89C27.0698 72.53 26.3498 72.1 25.6198 71.68C24.9598 71.3 24.2898 70.95 23.6298 70.57C22.9298 70.17 22.2098 69.77 21.5198 69.35C21.1098 69.1 20.7198 68.83 20.3198 68.58C19.8798 68.31 19.4598 68.01 19.0298 67.71C18.3498 67.23 17.5998 66.86 16.9298 66.36C16.9298 66.36 16.9298 66.36 16.9198 66.35C17.0198 66.25 17.1198 66.15 17.2298 66.06C17.5198 65.82 17.7998 65.58 18.0798 65.33C18.3598 65.08 18.6598 64.85 18.9398 64.6C19.2498 64.33 19.5398 64.04 19.8398 63.78C20.3898 63.3 20.9598 62.84 21.4998 62.34C22.0898 61.8 22.6898 61.28 23.2898 60.75C23.4598 60.6 23.6398 60.45 23.8198 60.31C24.2798 60.05 24.7198 59.76 25.1698 59.48C25.4098 59.32 25.6498 59.15 25.8998 59.01C26.1598 58.86 26.4298 58.72 26.6998 58.58C26.9798 58.44 27.2498 58.29 27.5298 58.14C27.8098 57.99 28.0898 57.85 28.3598 57.68C28.6098 57.53 28.8698 57.38 29.1298 57.24C29.3898 57.1 29.6398 56.97 29.8898 56.83C30.3098 56.6 30.7398 56.37 31.1698 56.15L31.1798 56.14H31.1898H31.1998C31.2298 56.13 31.2498 56.11 31.2798 56.1H31.2898C31.5598 55.96 31.8298 55.84 32.0998 55.72C32.2898 55.63 32.4898 55.54 32.6798 55.45C32.7398 55.47 32.8598 55.43 32.9798 55.39ZM84.6698 73.57C84.7198 73.61 84.7798 73.65 84.8298 73.69C84.7898 73.66 84.7498 73.63 84.7098 73.59C84.6898 73.59 84.6798 73.58 84.6698 73.57Z" fill="#0D003A"/>
<path d="M75.9398 66.31C75.9098 66.33 75.8798 66.36 75.8498 66.38C75.8398 66.39 75.8298 66.4 75.8198 66.4C75.8598 66.37 75.8998 66.34 75.9398 66.31Z" fill="#0D003A"/>
<path d="M59.6299 56.6C59.6899 56.61 59.7499 56.62 59.7999 56.63C59.8199 56.63 59.8399 56.63 59.8599 56.64C59.7799 56.62 59.6999 56.61 59.6299 56.6Z" fill="#0D003A"/>
<path d="M31.7901 61.28C31.3301 61.45 30.8601 61.61 30.4001 61.77C29.8501 61.96 29.3401 62.24 28.8201 62.52C28.5901 62.64 28.3701 62.76 28.1401 62.88C27.7201 63.07 27.3001 63.27 26.8701 63.46C26.9201 63.44 26.9601 63.42 27.0101 63.4C26.2901 63.71 25.6201 64.13 24.9301 64.5C24.4601 64.75 24.0101 65.01 23.5801 65.33C23.6101 65.31 23.6401 65.29 23.6601 65.26C23.6001 65.3 23.5401 65.35 23.4801 65.39C23.4501 65.41 23.4101 65.43 23.3801 65.45C23.3101 65.49 23.2601 65.53 23.2001 65.58C23.1401 65.62 23.0701 65.66 23.0101 65.7C22.8201 65.84 22.6801 65.98 22.6101 66.22C22.5501 66.44 22.5801 66.69 22.7001 66.88C22.7401 66.94 22.7801 67 22.8301 67.05C22.9001 67.17 23.0001 67.26 23.1301 67.33C24.0401 67.76 24.9401 68.21 25.8401 68.68C26.2701 68.9 26.7001 69.12 27.1501 69.31C27.4201 69.42 27.6901 69.53 27.9601 69.63C27.9801 69.64 28.0001 69.65 28.0301 69.66C28.1801 69.73 28.3401 69.78 28.4901 69.84C28.8101 69.98 29.1201 70.13 29.4201 70.28C29.8501 70.49 30.2901 70.68 30.7301 70.85C31.4601 71.14 32.1901 71.42 32.9301 71.7C33.5501 71.94 34.1901 72.07 34.8101 72.29C35.1201 72.4 35.4201 72.53 35.7401 72.63C36.0401 72.73 36.3501 72.81 36.6501 72.9C37.3601 73.1 38.0801 73.29 38.8001 73.46C39.1501 73.55 39.5101 73.65 39.8701 73.73C40.2501 73.81 40.6301 73.89 41.0101 73.96C41.4201 74.03 41.8401 74.1 42.2601 74.17C42.6801 74.24 43.1001 74.35 43.5101 74.43C43.7601 74.48 44.0201 74.5 44.2701 74.53C44.4701 74.55 44.6801 74.58 44.8901 74.6C45.2601 74.63 45.6301 74.65 46.0001 74.63C46.3401 74.62 46.6801 74.58 47.0201 74.59C47.3401 74.6 47.6601 74.65 47.9701 74.68C48.2601 74.71 48.5501 74.71 48.8401 74.72C49.1701 74.73 49.5001 74.77 49.8301 74.79C50.4801 74.81 51.1301 74.81 51.7701 74.81C52.5101 74.81 53.2501 74.72 53.9801 74.62C53.9001 74.63 53.8301 74.64 53.7501 74.65C54.0101 74.62 54.2601 74.6 54.5201 74.59C54.7701 74.58 55.0101 74.55 55.2601 74.53C55.5101 74.51 55.7601 74.47 56.0101 74.45C56.2701 74.43 56.5301 74.42 56.7901 74.39C57.0301 74.36 57.2701 74.36 57.5001 74.34C57.8201 74.31 58.1401 74.28 58.4501 74.23C58.8901 74.16 59.2901 73.96 59.7301 73.89C59.9701 73.86 60.2101 73.82 60.4501 73.75C60.7201 73.68 60.9801 73.62 61.2501 73.56C61.8401 73.43 62.4301 73.27 63.0101 73.11C63.3001 73.03 63.5901 72.96 63.8701 72.86C64.1601 72.76 64.4401 72.63 64.7301 72.53C65.0001 72.44 65.2901 72.4 65.5701 72.33C65.8201 72.26 66.0601 72.14 66.3001 72.03C66.4601 71.97 66.6201 71.93 66.7901 71.88C67.0101 71.81 67.2301 71.71 67.4401 71.62C67.7301 71.5 68.0201 71.39 68.3101 71.26C68.6201 71.13 68.9101 70.97 69.2201 70.84C69.3801 70.77 69.5501 70.7 69.7101 70.63C69.8701 70.55 70.0201 70.46 70.1701 70.39C70.5001 70.22 70.8401 70.08 71.1601 69.88C71.4801 69.68 71.8001 69.48 72.1201 69.26C72.4101 69.06 72.6701 68.81 72.9401 68.59C73.2001 68.41 73.4701 68.25 73.7201 68.05C73.9401 67.87 74.1601 67.68 74.3801 67.5C74.5901 67.34 74.7901 67.18 75.0001 67.01C75.1101 66.93 75.2101 66.85 75.3201 66.77C75.3801 66.72 75.4501 66.67 75.5101 66.62C75.4801 66.64 75.4501 66.67 75.4201 66.69C75.4701 66.65 75.5101 66.62 75.5601 66.58C75.6501 66.51 75.7401 66.44 75.8401 66.37C75.8701 66.34 75.9101 66.32 75.9401 66.29C75.9801 66.27 76.0201 66.25 76.0701 66.23C76.2401 66.14 76.3301 66.03 76.4401 65.88C76.5201 65.78 76.5701 65.55 76.5601 65.43C76.5501 65.26 76.5301 65.19 76.4801 65.07C76.4701 64.8 76.2901 64.57 76.0301 64.51C75.9901 64.5 75.9601 64.49 75.9301 64.48C75.7701 64.36 75.6201 64.24 75.4501 64.13C75.1701 63.95 74.8901 63.77 74.6101 63.57C74.3201 63.37 74.0201 63.16 73.7301 62.96C73.4501 62.77 73.1601 62.58 72.8801 62.39C72.8601 62.38 72.8501 62.36 72.8301 62.35C72.7901 62.32 72.7501 62.3 72.7101 62.27C72.4101 62.07 72.1001 61.87 71.8101 61.65C71.5401 61.46 71.2501 61.27 70.9701 61.1C70.6401 60.9 70.2901 60.75 69.9401 60.59C69.6801 60.44 69.4201 60.29 69.1501 60.16C68.8201 60 68.4801 59.85 68.1501 59.7C67.8301 59.55 67.5101 59.41 67.2001 59.26C67.1001 59.21 66.9901 59.16 66.8901 59.11C66.6701 59 66.4501 58.88 66.2201 58.77C65.9601 58.64 65.6901 58.53 65.4301 58.41C64.9201 58.18 64.4201 57.93 63.9101 57.71C63.3001 57.45 62.6901 57.21 62.0501 57.04C61.6801 56.95 61.3101 56.86 60.9401 56.78C60.5701 56.71 60.2001 56.66 59.8201 56.61C59.4001 56.55 58.9901 56.5 58.5701 56.48C58.1501 56.46 57.7301 56.46 57.3101 56.46C57.0501 56.46 56.7901 56.46 56.5301 56.46C56.0101 56.46 55.5001 56.46 54.9801 56.46C54.5801 56.46 54.1801 56.49 53.7901 56.52C53.6001 56.53 53.4201 56.56 53.2301 56.57C53.0001 56.59 52.7801 56.6 52.5501 56.62C51.7301 56.7 50.9201 56.83 50.1101 56.95C50.0201 56.96 49.9401 56.97 49.8501 56.97C49.6601 56.99 49.4601 57.01 49.2701 57.02C48.9201 57.04 48.5601 57.08 48.2101 57.13C47.7801 57.19 47.3501 57.23 46.9201 57.3C46.9201 57.3 46.9201 57.3 46.9301 57.3C46.9001 57.31 46.8701 57.31 46.8501 57.32C46.8201 57.33 46.7901 57.33 46.7601 57.34C46.7301 57.35 46.7101 57.35 46.6801 57.36C46.6701 57.36 46.6601 57.36 46.6501 57.37C46.6401 57.37 46.6301 57.37 46.6201 57.38C46.6001 57.38 46.5701 57.39 46.5501 57.39C46.5601 57.39 46.5701 57.39 46.5801 57.38C46.5701 57.38 46.5701 57.38 46.5601 57.38C46.5501 57.38 46.5501 57.38 46.5401 57.38H46.5301C46.5201 57.38 46.5201 57.38 46.5101 57.38H46.5201C46.5201 57.38 46.5201 57.38 46.5301 57.38H46.5201H46.5101C46.5101 57.38 46.5101 57.38 46.5201 57.38C46.5101 57.38 46.5101 57.38 46.5001 57.38H46.4901H46.4801C46.4801 57.38 46.4701 57.38 46.4601 57.38H46.4501C46.4401 57.38 46.4401 57.38 46.4301 57.38C46.4401 57.38 46.4601 57.38 46.4701 57.37H46.4801H46.4701H46.4801C46.4801 57.37 46.4801 57.37 46.4701 57.37C46.4501 57.37 46.4201 57.38 46.4001 57.38C46.3601 57.39 46.3101 57.4 46.2701 57.4C46.0901 57.44 45.9101 57.47 45.7401 57.51C45.6801 57.52 45.6301 57.53 45.5701 57.54C45.4001 57.57 45.2201 57.6 45.0501 57.64C45.1001 57.63 45.1501 57.62 45.2001 57.61C45.1801 57.61 45.1501 57.62 45.1301 57.62C45.1501 57.62 45.1801 57.61 45.2001 57.61C45.1001 57.63 45.0101 57.65 44.9101 57.67C44.9101 57.67 44.9101 57.67 44.9201 57.67C44.8301 57.69 44.7401 57.7 44.6501 57.72C44.4701 57.75 44.2901 57.78 44.1101 57.81C44.1301 57.81 44.1501 57.8 44.1601 57.8C44.1601 57.8 44.1501 57.8 44.1401 57.8C44.1501 57.8 44.1501 57.8 44.1601 57.8C44.0201 57.83 43.8801 57.85 43.7401 57.87C43.5201 57.91 43.3001 57.94 43.0801 57.98C43.0501 57.99 43.0201 57.99 42.9901 58C42.9701 58 42.9501 58.01 42.9301 58.01C42.8101 58.04 42.6801 58.06 42.5601 58.08C42.5901 58.08 42.6101 58.07 42.6301 58.06C42.6001 58.07 42.5801 58.07 42.5501 58.08C42.5801 58.07 42.6001 58.07 42.6301 58.06C42.5001 58.09 42.3701 58.11 42.2401 58.14C42.2701 58.13 42.2901 58.13 42.3201 58.12C42.2401 58.14 42.1601 58.15 42.0901 58.16C42.0601 58.16 42.0301 58.17 42.0101 58.17C42.0301 58.17 42.0601 58.16 42.0801 58.16C42.0501 58.17 42.0201 58.17 41.9901 58.18H41.9801C41.9701 58.18 41.9601 58.18 41.9501 58.19C41.9501 58.19 41.9501 58.19 41.9601 58.19C41.9501 58.19 41.9401 58.19 41.9301 58.2C41.9201 58.2 41.9201 58.2 41.9101 58.2C41.9201 58.2 41.9201 58.2 41.9301 58.2C41.9201 58.2 41.9201 58.2 41.9101 58.2H41.9001H41.9101C41.8801 58.21 41.8601 58.21 41.8301 58.22C41.7901 58.23 41.7501 58.23 41.7101 58.24C41.6601 58.25 41.6201 58.26 41.5701 58.27C41.5601 58.27 41.5501 58.27 41.5401 58.28C41.5301 58.28 41.5301 58.28 41.5201 58.28C41.5101 58.28 41.5101 58.28 41.5001 58.28C41.4901 58.28 41.4801 58.28 41.4701 58.28C41.4701 58.28 41.4801 58.28 41.4901 58.28C41.4801 58.28 41.4801 58.28 41.4701 58.28C41.4701 58.28 41.4701 58.28 41.4801 58.28H41.4701C41.4601 58.28 41.4401 58.29 41.4301 58.29C41.4401 58.29 41.4501 58.29 41.4601 58.28C41.4401 58.28 41.4101 58.29 41.3901 58.29C41.4001 58.29 41.4001 58.29 41.4101 58.29C41.4201 58.29 41.4301 58.29 41.4301 58.29C41.4201 58.29 41.4101 58.29 41.4101 58.29C41.3501 58.3 41.3001 58.31 41.2401 58.32C41.2301 58.32 41.2101 58.32 41.2001 58.33C41.2001 58.33 41.2001 58.33 41.2101 58.33C41.1001 58.35 41.0001 58.37 40.9001 58.39C40.8601 58.4 40.8201 58.41 40.7801 58.41C40.7601 58.41 40.7401 58.42 40.7201 58.42C40.7301 58.42 40.7401 58.42 40.7601 58.41H40.7501C40.7401 58.41 40.7301 58.41 40.7201 58.42C40.7201 58.42 40.7201 58.42 40.7301 58.42C40.6301 58.44 40.5201 58.46 40.4201 58.48C40.3901 58.49 40.3701 58.49 40.3401 58.5C40.3501 58.5 40.3701 58.49 40.3901 58.49C40.2001 58.53 40.0301 58.6 39.8401 58.65C39.8001 58.66 39.7501 58.67 39.7101 58.68C39.6101 58.7 39.5001 58.73 39.4001 58.75C38.9701 58.88 38.5401 59.02 38.1001 59.16C37.8601 59.24 37.6101 59.3 37.3601 59.38C37.1001 59.46 36.8401 59.56 36.5801 59.65C36.0501 59.84 35.5101 59.98 34.9801 60.16C34.9001 60.19 34.8101 60.22 34.7301 60.24C34.6901 60.25 34.6601 60.26 34.6201 60.27C34.5701 60.28 34.5301 60.3 34.4801 60.32C34.1201 60.44 33.7601 60.55 33.4001 60.68C33.2301 60.74 33.0701 60.8 32.9001 60.87C32.7501 60.92 32.6001 60.97 32.4501 61.03C32.2101 61.13 32.0001 61.2 31.7901 61.28ZM53.6901 58.26C54.1101 58.22 54.5401 58.21 54.9601 58.2C54.9601 58.21 54.9501 58.23 54.9501 58.24C54.9301 58.69 55.3001 59.15 55.7701 59.15C56.2001 59.15 56.5601 58.87 56.6501 58.45C56.9401 58.93 57.2001 59.43 57.4201 59.95C57.4801 60.1 57.5201 60.26 57.5801 60.41C57.4501 60.32 57.3101 60.25 57.1501 60.25C56.6801 60.25 56.2701 60.58 56.2401 61.07C56.2201 61.52 56.5901 61.98 57.0601 61.98C57.4601 61.98 57.8001 61.74 57.9101 61.37C58.0701 61.92 58.1901 62.48 58.2801 63.04C58.3701 63.7 58.4001 64.36 58.3801 65.02V65.03C58.3801 65.06 58.3801 65.08 58.3801 65.11C58.3801 65.13 58.3801 65.14 58.3801 65.16C58.3801 65.18 58.3801 65.19 58.3801 65.21C58.3801 65.24 58.3801 65.26 58.3801 65.29V65.3C58.3601 65.66 58.3301 66.01 58.2901 66.37C58.2101 66.9 58.1001 67.43 57.9601 67.94C57.9601 67.94 57.9601 67.94 57.9601 67.95C57.9501 67.98 57.9401 68.01 57.9401 68.04C57.9401 68.05 57.9401 68.05 57.9401 68.06C57.9301 68.09 57.9301 68.11 57.9201 68.14C57.9201 68.15 57.9201 68.16 57.9101 68.17C57.9001 68.19 57.9001 68.22 57.8901 68.24C57.8901 68.25 57.8801 68.26 57.8801 68.28C57.8701 68.3 57.8701 68.32 57.8601 68.33C57.8501 68.35 57.8501 68.36 57.8401 68.38C57.8401 68.39 57.8301 68.4 57.8301 68.42C57.8201 68.44 57.8201 68.47 57.8101 68.49V68.5C57.7801 68.59 57.7401 68.68 57.7101 68.77C57.5601 68.59 57.3501 68.48 57.1101 68.48C56.9501 68.48 56.8101 68.53 56.6801 68.59C56.5301 68.35 56.3001 68.17 56.0101 68.17C55.5401 68.17 55.1301 68.5 55.1001 68.99C55.0801 69.36 55.3401 69.72 55.6901 69.84C55.2601 69.88 54.9001 70.19 54.8801 70.64C54.8601 71.09 55.2301 71.55 55.7001 71.55C56.1701 71.55 56.5801 71.22 56.6101 70.73C56.6301 70.36 56.3701 70 56.0201 69.88C56.1401 69.87 56.2501 69.84 56.3501 69.78C56.5001 70.02 56.7301 70.2 57.0201 70.2C57.0601 70.2 57.0901 70.19 57.1201 70.18C56.9101 70.59 56.7001 71 56.4501 71.39V71.4C56.3101 71.62 56.1601 71.83 56.0101 72.04C56.0001 72.05 56.0001 72.06 55.9901 72.07C55.9601 72.11 55.9401 72.14 55.9101 72.18C55.9101 72.18 55.9101 72.18 55.9101 72.19C55.9101 72.19 55.9101 72.19 55.9201 72.18L55.9301 72.17C55.8501 72.27 55.7701 72.38 55.6801 72.48C55.6001 72.58 55.5501 72.68 55.5301 72.8C55.4801 72.81 55.4401 72.81 55.3901 72.82C55.2801 72.83 55.1701 72.84 55.0601 72.84C55.1101 72.74 55.1401 72.63 55.1501 72.51C55.1701 72.06 54.8001 71.6 54.3301 71.6C53.8601 71.6 53.4501 71.93 53.4201 72.42C53.4101 72.61 53.4801 72.79 53.5901 72.95C53.2001 72.98 52.8101 73.01 52.4201 73.03C52.1401 73.04 51.8601 73.04 51.5801 73.04C51.6301 72.94 51.6601 72.84 51.6601 72.72C51.6801 72.39 51.4901 72.07 51.2001 71.92C52.0401 71.32 52.7801 70.56 53.3701 69.69C53.4801 70.01 53.7801 70.27 54.1401 70.27C54.6101 70.27 55.0201 69.94 55.0501 69.45C55.0701 69 54.7001 68.54 54.2301 68.54C54.1501 68.54 54.0801 68.56 54.0001 68.58C54.2901 67.98 54.5101 67.35 54.6601 66.68C54.8001 66.95 55.0601 67.17 55.3701 67.17C55.8401 67.17 56.2501 66.84 56.2801 66.35C56.3001 65.9 55.9301 65.44 55.4601 65.44C55.2201 65.44 54.9901 65.53 54.8201 65.69C54.9001 64.9 54.8801 64.13 54.7601 63.37C54.8801 63.45 55.0101 63.5 55.1601 63.5C55.6301 63.5 56.0401 63.17 56.0701 62.68C56.0901 62.23 55.7201 61.77 55.2501 61.77C54.9301 61.77 54.6501 61.93 54.4901 62.18C54.3201 61.64 54.1001 61.12 53.8301 60.62C53.9001 60.51 53.9501 60.38 53.9601 60.23C53.9801 59.78 53.6101 59.32 53.1401 59.32C53.0901 59.32 53.0501 59.34 53.0001 59.34C52.8501 59.15 52.7001 58.97 52.5401 58.79C52.7001 58.68 52.8101 58.52 52.8701 58.33C53.1101 58.32 53.4001 58.29 53.6901 58.26ZM55.8201 72.23C55.8201 72.23 55.8201 72.22 55.8201 72.23C55.8201 72.22 55.8201 72.22 55.8201 72.23ZM55.8201 72.23C55.8201 72.24 55.8101 72.24 55.8001 72.25C55.8101 72.25 55.8101 72.24 55.8201 72.23ZM55.8101 72.24C55.8001 72.25 55.8001 72.26 55.7901 72.27C55.8001 72.25 55.8101 72.25 55.8101 72.24ZM40.5501 71.61C40.8801 71.87 41.2301 72.11 41.6001 72.32C41.2401 72.26 40.8701 72.19 40.5101 72.11C40.3901 72.08 40.2801 72.05 40.1601 72.03C40.3301 71.93 40.4701 71.79 40.5501 71.61ZM37.2601 61.8C37.4901 61.8 37.7001 61.72 37.8701 61.58C37.6701 62.1 37.5001 62.63 37.4001 63.19C37.3201 63.62 37.2901 64.05 37.2701 64.47C37.1401 64.38 37.0001 64.32 36.8401 64.32C36.3701 64.32 35.9601 64.65 35.9301 65.14C35.9101 65.59 36.2801 66.05 36.7501 66.05C36.9601 66.05 37.1601 65.97 37.3201 65.85C37.3701 66.21 37.4401 66.56 37.5301 66.91C37.2301 67.03 37.0001 67.3 36.9901 67.65C36.9701 68.1 37.3401 68.56 37.8101 68.56C37.9201 68.56 38.0201 68.54 38.1101 68.51C38.4501 69.24 38.8901 69.91 39.4201 70.52C39.1301 70.64 38.9101 70.9 38.8901 71.25C38.8801 71.43 38.9501 71.61 39.0401 71.76C38.8401 71.71 38.6401 71.66 38.4501 71.61C38.6301 71.47 38.7601 71.26 38.7701 71C38.7901 70.55 38.4201 70.09 37.9501 70.09C37.4801 70.09 37.0701 70.42 37.0401 70.91C37.0301 71.02 37.0501 71.14 37.0901 71.25C36.9901 71.22 36.8901 71.19 36.7901 71.16C36.6901 71.01 36.5601 70.89 36.3701 70.82C36.2901 70.79 36.2001 70.78 36.1101 70.78C36.0101 70.78 35.9101 70.8 35.8101 70.84C35.6801 70.79 35.5401 70.75 35.4101 70.7C35.4001 70.7 35.3901 70.69 35.3801 70.69C35.3301 70.59 35.2701 70.49 35.2201 70.39C35.2001 70.34 35.1701 70.29 35.1501 70.25C35.1201 70.19 35.0901 70.14 35.0601 70.08C35.0601 70.07 35.0501 70.06 35.0501 70.06C34.9601 69.87 34.8801 69.69 34.7901 69.5C34.7801 69.49 34.7801 69.47 34.7701 69.46C34.7601 69.44 34.7601 69.43 34.7501 69.42C34.7501 69.41 34.7501 69.41 34.7401 69.4C34.4501 68.67 34.2401 67.92 34.0901 67.15C34.5601 67.15 34.9701 66.82 34.9901 66.33C35.0101 65.88 34.6401 65.42 34.1701 65.42C34.0701 65.42 33.9701 65.44 33.8701 65.47C33.8501 65.08 33.8401 64.7 33.8501 64.31C34.0001 64.49 34.2101 64.62 34.4601 64.62C34.8701 64.62 35.2201 64.36 35.3201 63.97C35.3801 63.98 35.4301 64.01 35.4801 64.01C35.9301 64.03 36.3901 63.66 36.3901 63.19C36.3901 63.15 36.3901 63.12 36.3901 63.08C36.3901 62.84 36.3301 62.64 36.1701 62.46C36.0201 62.29 35.8001 62.19 35.5701 62.18C35.5601 62.18 35.5401 62.18 35.5301 62.18C35.1201 62.18 34.7101 62.51 34.6801 62.94C34.6301 62.93 34.5901 62.91 34.5501 62.91C34.3101 62.91 34.0901 63 33.9201 63.15C33.9601 62.87 34.0201 62.6 34.0801 62.32C34.5301 62.17 34.9801 62.03 35.4301 61.88C35.8301 61.75 36.2301 61.65 36.6301 61.53C36.8001 61.67 37.0201 61.8 37.2601 61.8ZM34.7801 69.44C34.7801 69.44 34.7901 69.44 34.7801 69.44C34.7901 69.44 34.7901 69.44 34.7801 69.44ZM32.8701 66.87C32.8701 66.88 32.8701 66.89 32.8701 66.89C33.0201 67.81 33.2701 68.72 33.6101 69.59C33.6201 69.61 33.6301 69.63 33.6401 69.66C33.6401 69.67 33.6401 69.67 33.6501 69.68C33.6601 69.71 33.6701 69.73 33.6801 69.76V69.77C33.7201 69.87 33.7701 69.97 33.8101 70.08C33.8201 70.11 33.8401 70.15 33.8601 70.18C33.6701 70.12 33.4801 70.07 33.2901 69.99C32.4901 69.68 31.6801 69.38 30.8801 69.06C30.4001 68.84 29.9301 68.59 29.4401 68.38C28.9501 68.17 28.4601 67.99 27.9701 67.79C27.3601 67.52 26.7601 67.21 26.1701 66.9C25.8401 66.72 25.4901 66.56 25.1501 66.4C25.1301 66.39 25.1101 66.38 25.1001 66.37C25.3201 66.24 25.5501 66.11 25.7801 66C26.4201 65.67 27.0301 65.26 27.6901 64.97C28.2101 64.74 28.7201 64.5 29.2401 64.27C29.8801 63.98 30.5001 63.64 31.1501 63.36C31.7201 63.13 32.3001 62.93 32.8701 62.71C32.7901 63.24 32.7301 63.77 32.7101 64.31C32.6701 65.17 32.7401 66.02 32.8701 66.87ZM49.0401 73.01C49.3301 72.9 49.6201 72.78 49.9001 72.64C49.9001 72.79 49.9401 72.93 50.0101 73.06C49.9701 73.06 49.9401 73.06 49.9001 73.06C49.6101 73.04 49.3201 73.02 49.0401 73.01ZM58.7801 72.34C58.2401 72.42 57.7001 72.48 57.1701 72.59C57.1001 72.6 57.0301 72.61 56.9601 72.62C56.9601 72.62 56.9601 72.61 56.9701 72.61C56.9801 72.6 56.9901 72.58 57.0001 72.57C57.1401 72.38 57.2801 72.18 57.4101 71.98C57.4201 71.97 57.4201 71.96 57.4301 71.96C57.4301 71.95 57.4401 71.95 57.4401 71.94C57.4401 71.93 57.4501 71.93 57.4501 71.92C57.6801 71.55 57.9001 71.17 58.1001 70.77C58.1001 70.76 58.1101 70.76 58.1101 70.75C58.1201 70.74 58.1201 70.72 58.1301 70.71C58.4101 70.15 58.6501 69.57 58.8501 68.97C58.9801 68.59 59.0901 68.2 59.1801 67.81C59.3801 66.94 59.5001 66.04 59.5301 65.15C59.5701 64.2 59.4901 63.25 59.3201 62.32C59.3201 62.32 59.3201 62.32 59.3201 62.31C59.3101 62.27 59.3101 62.23 59.3001 62.2C59.3001 62.19 59.3001 62.19 59.3001 62.18C59.2901 62.15 59.2901 62.12 59.2801 62.09C59.2801 62.08 59.2801 62.07 59.2701 62.06C59.2601 62.03 59.2601 61.99 59.2501 61.96C59.2501 61.95 59.2401 61.93 59.2401 61.92C59.2401 61.9 59.2301 61.88 59.2301 61.86C59.2301 61.84 59.2201 61.83 59.2201 61.81C59.2201 61.79 59.2101 61.77 59.2101 61.75C59.2001 61.72 59.1901 61.69 59.1901 61.65C59.1901 61.64 59.1901 61.63 59.1801 61.62C59.0401 61.03 58.8501 60.45 58.6301 59.88C58.6301 59.87 58.6301 59.87 58.6201 59.86C58.6201 59.85 58.6101 59.84 58.6101 59.83C58.4701 59.47 58.3101 59.12 58.1401 58.78C58.1401 58.78 58.1401 58.77 58.1301 58.77C58.1201 58.76 58.1201 58.75 58.1101 58.73C58.1101 58.72 58.1001 58.71 58.1001 58.7C58.0901 58.68 58.0801 58.65 58.0601 58.63V58.62C58.0601 58.61 58.0501 58.6 58.0501 58.59C58.0501 58.58 58.0401 58.58 58.0401 58.57C58.0401 58.56 58.0301 58.56 58.0301 58.55C58.0301 58.55 58.0301 58.54 58.0201 58.54C58.0101 58.52 58.0001 58.5 57.9901 58.48C57.9801 58.47 57.9801 58.46 57.9701 58.45C57.9301 58.37 57.8801 58.29 57.8301 58.21C58.3301 58.22 58.8401 58.24 59.3301 58.3C59.6501 58.35 59.9601 58.39 60.2801 58.44C60.7501 58.53 61.2201 58.62 61.6901 58.75C62.2401 58.89 62.7601 59.11 63.2801 59.32C63.6001 59.46 63.9101 59.62 64.2301 59.77C64.6101 59.95 65.0001 60.1 65.3801 60.29C65.7201 60.46 66.0601 60.64 66.4001 60.82C66.7801 61.02 67.1801 61.18 67.5701 61.37C68.2901 61.72 69.0301 62.06 69.7501 62.41C70.3801 62.72 70.9301 63.16 71.5201 63.54C71.8501 63.76 72.1701 64 72.5101 64.21C72.8201 64.41 73.1101 64.62 73.4101 64.83C73.6801 65.02 73.9501 65.21 74.2301 65.39C74.2501 65.41 74.2801 65.42 74.3001 65.44C74.2801 65.46 74.2501 65.48 74.2301 65.5C74.2501 65.48 74.2801 65.46 74.3001 65.44C74.2801 65.45 74.2701 65.47 74.2501 65.48C74.2701 65.47 74.2801 65.45 74.3001 65.44C74.0201 65.65 73.7401 65.87 73.4701 66.08C73.4301 66.11 73.3801 66.15 73.3401 66.18C73.1001 66.37 72.8601 66.57 72.6301 66.76C72.4401 66.9 72.2301 67.01 72.0401 67.15C71.7901 67.34 71.5601 67.55 71.3101 67.76C71.1201 67.9 70.9201 68.02 70.7201 68.15C70.4901 68.3 70.2601 68.45 70.0201 68.58C69.7901 68.71 69.5401 68.8 69.3101 68.92C69.0801 69.04 68.8501 69.16 68.6101 69.27C68.6801 69.24 68.7501 69.21 68.8201 69.18C68.5701 69.28 68.3301 69.39 68.0901 69.49C67.9001 69.57 67.7201 69.67 67.5301 69.75C67.2301 69.87 66.9401 69.99 66.6501 70.11C66.4601 70.19 66.2601 70.25 66.0601 70.31C65.8301 70.38 65.6101 70.48 65.3901 70.58C64.9401 70.75 64.4601 70.8 64.0101 70.97C63.7501 71.07 63.5001 71.19 63.2301 71.27C62.9601 71.36 62.6801 71.41 62.4101 71.49C62.1401 71.57 61.8801 71.63 61.6101 71.7C61.3601 71.77 61.1001 71.83 60.8501 71.89C60.3901 71.99 59.9401 72.12 59.4801 72.2C59.3501 72.22 59.2201 72.24 59.0901 72.27C59.0201 72.28 58.9601 72.31 58.9001 72.33C58.8301 72.33 58.8101 72.33 58.7801 72.34ZM63.2501 59.3C63.3101 59.33 63.3701 59.35 63.4301 59.37C63.3901 59.36 63.3601 59.34 63.3201 59.32C63.3001 59.32 63.2801 59.31 63.2501 59.3ZM74.2301 67.63C74.2601 67.6 74.3001 67.58 74.3301 67.55C74.3401 67.54 74.3601 67.53 74.3701 67.52C74.3301 67.55 74.2801 67.59 74.2301 67.63ZM46.6301 57.37C46.6201 57.37 46.6201 57.37 46.6201 57.37H46.6301ZM46.5301 57.39C46.5401 57.39 46.5401 57.39 46.5301 57.39C46.5401 57.39 46.5501 57.39 46.5501 57.39H46.5601C46.5601 57.39 46.5601 57.39 46.5701 57.39C46.5601 57.39 46.5601 57.39 46.5501 57.39C46.5501 57.39 46.5401 57.39 46.5301 57.39C46.5401 57.39 46.5301 57.39 46.5301 57.39Z" fill="#0D003A"/>
<path d="M73.21 66.25C73.24 66.22 73.28 66.2 73.31 66.17C73.33 66.15 73.36 66.13 73.38 66.11C73.33 66.16 73.27 66.2 73.21 66.25Z" fill="#0D003A"/>
<path d="M63.8501 57.7C63.8601 57.71 63.8801 57.71 63.8901 57.72C63.9501 57.74 64.0001 57.76 64.0601 57.79C63.9901 57.75 63.9201 57.72 63.8501 57.7Z" fill="#0D003A"/>
<path d="M75.4002 66.73C75.3802 66.75 75.3602 66.76 75.3402 66.77C75.3002 66.8 75.2602 66.83 75.2202 66.86C75.2802 66.82 75.3402 66.77 75.4002 66.73Z" fill="#0D003A"/>
<path d="M13.3299 37.23C13.3199 37.24 13.3099 37.24 13.2999 37.25C13.2499 37.28 13.1999 37.32 13.1499 37.35C13.2099 37.31 13.2699 37.27 13.3299 37.23Z" fill="#0D003A"/>
<path d="M12.55 37.73C12.53 37.74 12.52 37.75 12.5 37.76C12.51 37.75 12.53 37.74 12.55 37.73Z" fill="#0D003A"/>
<path d="M15.5999 45.39C15.7399 45.32 15.8799 45.26 16.0199 45.18C16.2199 45.07 16.3999 44.94 16.5899 44.82C17.0099 44.56 17.4699 44.38 17.8999 44.12C18.3099 43.88 18.7199 43.64 19.1399 43.41C19.5499 43.19 19.7399 42.7 19.5399 42.27C19.5399 42.26 19.5399 42.26 19.5399 42.25C19.5199 41.82 19.5699 41.39 19.5799 40.96C19.5799 40.76 19.5799 40.56 19.5799 40.35C19.5899 40.14 19.5999 39.94 19.6099 39.73C19.6399 39.33 19.5999 38.93 19.5999 38.53C19.5999 38.34 19.6199 38.14 19.6199 37.95C19.6199 37.69 19.6099 37.43 19.5899 37.16C19.5899 37.24 19.5999 37.31 19.5999 37.39C19.5899 37.17 19.5799 36.95 19.5599 36.73C19.5499 36.57 19.5399 36.4 19.5399 36.24C19.5399 36.28 19.5399 36.32 19.5499 36.36C19.5399 36.13 19.5599 35.9 19.5599 35.67C19.5599 35.44 19.5499 35.22 19.5599 34.99C19.5799 34.52 19.6299 34.05 19.6599 33.58C19.6699 33.39 19.6599 33.19 19.6499 33C19.6299 32.7 19.6099 32.44 19.3999 32.19C19.2799 32.05 19.1399 31.97 18.9799 31.91C18.9499 31.86 18.9299 31.82 18.8899 31.77C18.8299 31.69 18.7699 31.63 18.6999 31.57C18.7199 31.59 18.7499 31.61 18.7699 31.63C18.7199 31.59 18.6799 31.54 18.6299 31.5C18.6199 31.49 18.6099 31.49 18.6099 31.48L18.6199 31.49C18.6099 31.48 18.5899 31.47 18.5799 31.45C18.4699 31.34 18.3699 31.23 18.2499 31.13C18.0699 30.97 17.8999 30.86 17.6899 30.76C17.7599 30.79 17.8199 30.83 17.8899 30.86C17.8299 30.83 17.7799 30.8 17.7199 30.77C17.4499 30.62 17.2099 30.43 16.9499 30.28C16.7699 30.18 16.5799 30.08 16.3899 29.99C16.3599 29.97 16.3299 29.95 16.2999 29.93C16.0999 29.8 15.9199 29.64 15.7299 29.49C15.4899 29.31 15.2599 29.16 14.9899 29.02C15.0499 29.05 15.1199 29.09 15.1899 29.12C15.0099 29.03 14.8399 28.93 14.6699 28.83C14.4799 28.72 14.2699 28.64 14.0699 28.55C14.0499 28.54 14.0199 28.53 13.9999 28.51C13.8399 28.42 13.6899 28.31 13.5199 28.23C13.4099 28.17 13.2899 28.12 13.1799 28.07C12.9299 27.88 12.6999 27.66 12.4299 27.48C12.0699 27.24 11.7099 27.01 11.3599 26.76C11.0299 26.52 10.7199 26.25 10.3399 26.09C10.2299 26.04 10.1299 26.02 10.0199 26.02C9.71986 26.02 9.43986 26.19 9.20986 26.37C9.10986 26.45 9.00986 26.53 8.90986 26.61C8.55986 26.83 8.18986 27.04 7.82986 27.25C7.42986 27.48 7.02986 27.71 6.62986 27.95C6.14986 28.24 5.65986 28.51 5.17986 28.8C4.84986 29 4.54986 29.23 4.23986 29.46C3.99986 29.64 3.74986 29.8 3.50986 29.97C3.29986 30.13 3.07986 30.27 2.86986 30.43C2.66986 30.58 2.46986 30.74 2.26986 30.88C2.17986 30.94 2.08986 30.99 1.99986 31.05C1.77986 31.19 1.57986 31.35 1.36986 31.51C1.26986 31.59 1.19986 31.69 1.14986 31.81C1.08986 31.84 1.02986 31.87 0.989862 31.91C0.759862 32.13 0.689862 32.38 0.659862 32.68C0.629862 32.91 0.619862 33.15 0.599862 33.38C0.579862 33.69 0.549862 34.01 0.529862 34.32C0.499862 34.68 0.489862 35.03 0.489862 35.39C0.479862 35.77 0.469862 36.14 0.459862 36.51C0.429862 36.79 0.389862 37.07 0.369862 37.35C0.339862 37.67 0.319862 37.99 0.299862 38.31C0.269862 38.69 0.259862 39.07 0.249862 39.45C0.239862 39.74 0.219862 40.03 0.169862 40.32C0.129862 40.56 0.0798619 40.81 0.0498619 41.05C0.00986187 41.44 0.0598619 41.85 0.0998619 42.24C0.109862 42.42 0.0998619 42.61 0.119862 42.79C0.139862 43.15 0.409862 43.4 0.659862 43.62C0.929862 43.86 1.24986 44.03 1.52986 44.25C1.87986 44.53 2.23986 44.78 2.62986 45C2.81986 45.11 2.99986 45.22 3.17986 45.34C3.35986 45.45 3.54986 45.56 3.73986 45.65C3.72986 45.65 3.71986 45.64 3.71986 45.64C4.06986 45.82 4.39986 46.04 4.74986 46.22C5.09986 46.4 5.43986 46.6 5.76986 46.8C5.98986 46.93 6.19986 47.05 6.42986 47.15C6.60986 47.23 6.79986 47.3 6.98986 47.37C7.25986 47.47 7.51986 47.59 7.77986 47.72C7.80986 47.74 7.83986 47.75 7.86986 47.77C7.96986 47.82 8.06986 47.88 8.17986 47.93C8.10986 47.9 8.04986 47.86 7.97986 47.83C8.05986 47.87 8.13986 47.91 8.21986 47.95C8.30986 47.99 8.39986 48.03 8.48986 48.08C8.51986 48.19 8.57986 48.29 8.64986 48.38C8.83986 48.63 9.21986 48.76 9.52986 48.68C9.65986 48.64 9.75986 48.6 9.87986 48.55C9.85986 48.56 9.83986 48.56 9.81986 48.57C9.92986 48.53 10.0299 48.49 10.1299 48.45C10.1999 48.42 10.2599 48.38 10.3399 48.36C10.2999 48.37 10.2699 48.38 10.2299 48.4C10.4499 48.33 10.6599 48.25 10.8599 48.14C11.0899 48.01 11.3099 47.86 11.5399 47.74C11.8199 47.59 12.0899 47.42 12.3599 47.27C12.7199 47.08 13.0599 46.84 13.3999 46.61C13.6199 46.47 13.8499 46.35 14.0799 46.22C14.3299 46.08 14.5899 45.97 14.8399 45.84C15.0699 45.71 15.3299 45.53 15.5999 45.39ZM4.43986 32.41C4.60986 32.27 4.78986 32.14 4.95986 32.02C5.13986 31.89 5.30986 31.74 5.48986 31.61C5.84986 31.38 6.21986 31.17 6.53986 30.87C6.84986 30.59 7.15986 30.34 7.48986 30.09C7.89986 29.78 8.25986 29.4 8.63986 29.05C8.96986 28.75 9.34986 28.49 9.71986 28.25C9.81986 28.19 9.92986 28.12 10.0399 28.06C10.1299 28.13 10.2099 28.2 10.2999 28.27C10.5299 28.46 10.7999 28.6 11.0399 28.78C11.2999 28.97 11.5799 29.13 11.8499 29.32C11.9599 29.4 12.0699 29.46 12.1799 29.52C12.2099 29.54 12.2399 29.56 12.2599 29.58C12.5699 29.8 12.9399 29.95 13.2899 30.11C13.4599 30.2 13.6199 30.3 13.7799 30.41C13.9799 30.56 14.1699 30.7 14.3899 30.83C14.5999 30.96 14.7999 31.11 15.0199 31.23C15.1699 31.31 15.3299 31.39 15.4899 31.46C15.6499 31.56 15.8199 31.65 15.9699 31.77C16.1599 31.95 16.3399 32.12 16.5399 32.28C16.6899 32.4 16.8499 32.5 16.9999 32.62C16.8399 32.76 16.6599 32.89 16.4999 33.03C16.4399 33.07 16.3799 33.12 16.3199 33.16C16.0099 33.35 15.6899 33.51 15.3799 33.7C14.9699 33.94 14.5799 34.21 14.1999 34.5C13.8799 34.74 13.5499 34.96 13.2299 35.19C12.9299 35.41 12.6299 35.62 12.3299 35.83C12.0999 35.98 11.8699 36.12 11.6399 36.27C11.6499 36.26 11.6599 36.26 11.6699 36.25C11.6299 36.28 11.5899 36.3 11.5599 36.33C11.5699 36.32 11.5799 36.32 11.5899 36.31C11.2699 36.51 10.9399 36.71 10.6099 36.89C10.4599 36.97 10.3099 37.04 10.1699 37.13C10.1099 37.17 10.0499 37.22 9.98986 37.26C9.80986 37.11 9.61986 36.96 9.42986 36.81C9.11986 36.58 8.80986 36.36 8.48986 36.16C8.19986 35.99 7.89986 35.85 7.60986 35.68C7.35986 35.53 7.13986 35.34 6.88986 35.19C6.66986 35.05 6.44986 34.91 6.22986 34.77C6.00986 34.62 5.79986 34.46 5.57986 34.32C5.36986 34.22 5.17986 34.11 4.99986 33.98C4.79986 33.84 4.59986 33.69 4.40986 33.53C4.28986 33.43 4.17986 33.33 4.06986 33.23C3.94986 33.14 3.82986 33.05 3.69986 32.96L3.68986 32.95C3.79986 32.87 3.90986 32.8 4.01986 32.71C4.14986 32.62 4.29986 32.52 4.43986 32.41ZM12.4399 35.76C12.3399 35.82 12.2499 35.89 12.1499 35.95C12.1799 35.93 12.2199 35.91 12.2499 35.88C12.3199 35.84 12.3799 35.8 12.4399 35.76ZM8.94986 39.84C8.95986 40.33 8.90986 40.81 8.87986 41.29C8.80986 42.28 8.73986 43.27 8.65986 44.26C8.61986 44.76 8.58986 45.27 8.54986 45.77V45.78C8.28986 45.61 8.03986 45.44 7.76986 45.29C7.56986 45.18 7.36986 45.07 7.15986 44.98C7.03986 44.93 6.92986 44.89 6.80986 44.84C6.55986 44.7 6.30986 44.56 6.04986 44.43C6.10986 44.46 6.17986 44.5 6.24986 44.53C6.13986 44.47 6.02986 44.42 5.91986 44.36C5.93986 44.37 5.95986 44.38 5.97986 44.39C5.78986 44.29 5.59986 44.19 5.41986 44.08C5.21986 43.96 5.02986 43.81 4.83986 43.68C4.49986 43.44 4.10986 43.3 3.73986 43.13C3.52986 43.02 3.32986 42.9 3.10986 42.81C2.91986 42.72 2.71986 42.67 2.52986 42.59C2.35986 42.53 2.19986 42.45 2.03986 42.37C2.04986 42.2 2.06986 42.03 2.07986 41.85C2.08986 41.42 2.02986 41 1.99986 40.58C1.98986 40.46 1.97986 40.34 1.96986 40.22C1.94986 39.65 1.99986 39.08 2.03986 38.5C2.07986 37.91 2.12986 37.32 2.14986 36.73C2.16986 36.51 2.18986 36.29 2.20986 36.08C2.25986 35.67 2.27986 35.26 2.31986 34.85C2.33986 34.62 2.37986 34.4 2.41986 34.18C2.44986 34.2 2.47986 34.22 2.51986 34.25C2.72986 34.42 2.94986 34.56 3.14986 34.73C3.51986 35.05 3.89986 35.36 4.31986 35.61C4.75986 35.87 5.14986 36.2 5.58986 36.46C5.83986 36.61 6.07986 36.77 6.30986 36.94C6.60986 37.16 6.93986 37.32 7.26986 37.49C7.63986 37.69 7.97986 37.94 8.31986 38.19C8.54986 38.36 8.77986 38.54 8.99986 38.73C8.96986 39.09 8.93986 39.46 8.94986 39.84ZM13.6699 44.48C13.0599 44.75 12.5099 45.14 11.9499 45.51C11.4999 45.79 11.0399 46.03 10.5799 46.28C10.4599 46.35 10.3399 46.42 10.2199 46.49C10.2299 46.31 10.2499 46.13 10.2599 45.95C10.2999 45.47 10.3299 44.98 10.3699 44.5C10.4399 43.51 10.5199 42.52 10.5899 41.53C10.6299 41.03 10.6799 40.52 10.6699 40.02C10.6699 39.62 10.6999 39.22 10.7299 38.83C10.8199 38.77 10.8999 38.71 10.9899 38.65C11.1799 38.54 11.3799 38.44 11.5799 38.33C11.7099 38.26 11.8299 38.17 11.9599 38.09C12.1399 37.98 12.3199 37.87 12.4999 37.76C12.5699 37.71 12.6399 37.67 12.7099 37.62C12.9099 37.5 13.1099 37.38 13.2999 37.25C14.1799 36.66 15.0199 36.02 15.8899 35.42C15.9999 35.35 16.1099 35.3 16.2099 35.23C16.2999 35.22 16.3799 35.2 16.4599 35.17C16.6099 35.1 16.7599 35.02 16.8899 34.93C17.1199 34.78 17.3199 34.62 17.5199 34.44C17.5899 34.37 17.6699 34.31 17.7399 34.25C17.7799 34.22 17.8299 34.19 17.8799 34.16C17.8699 34.31 17.8599 34.47 17.8499 34.63C17.8299 34.94 17.8299 35.25 17.8299 35.57C17.8299 35.73 17.8199 35.89 17.8199 36.05C17.8199 36.25 17.8299 36.44 17.8499 36.64C17.8599 36.85 17.8699 37.06 17.8799 37.26C17.8799 37.18 17.8699 37.11 17.8699 37.03C17.8799 37.21 17.8899 37.4 17.8999 37.58C17.8999 37.5 17.8899 37.43 17.8899 37.35C17.9099 37.74 17.8799 38.13 17.8899 38.52C17.8899 38.72 17.9099 38.91 17.9099 39.11C17.9099 39.33 17.8999 39.54 17.8899 39.75C17.8799 39.95 17.8699 40.15 17.8599 40.36C17.8599 40.58 17.8699 40.79 17.8499 41.01C17.8299 41.22 17.8199 41.44 17.8099 41.65C17.7999 41.83 17.8099 42.02 17.8199 42.2C17.5699 42.35 17.3099 42.49 17.0599 42.64C16.7999 42.79 16.5299 42.92 16.2599 43.05C15.9999 43.18 15.7599 43.34 15.5199 43.5C15.2299 43.68 14.9099 43.81 14.6099 43.98C14.2799 44.14 13.9899 44.33 13.6699 44.48Z" fill="#0D003A"/>
<path d="M8.27992 48.03C8.24992 48.02 8.20992 48 8.16992 47.98C8.20992 48 8.24992 48.02 8.27992 48.03Z" fill="#0D003A"/>
<path d="M5.25988 13.07C5.21988 13.03 5.16988 12.99 5.12988 12.95C5.16988 12.99 5.21988 13.03 5.25988 13.07Z" fill="#0D003A"/>
<path d="M3.29024 11.53C3.41024 11.61 3.52024 11.71 3.64024 11.8C3.80024 11.93 3.97024 12.04 4.14024 12.17C4.30024 12.28 4.45024 12.4 4.60024 12.53C4.77024 12.68 4.97024 12.81 5.14024 12.95C5.13024 12.94 5.12024 12.93 5.11024 12.92C5.12024 12.93 5.13024 12.94 5.14024 12.95L5.15024 12.96C5.36024 13.14 5.56024 13.31 5.79024 13.45C6.00024 13.58 6.20024 13.72 6.41024 13.85C6.80024 14.1 7.18024 14.37 7.54024 14.67C7.60024 14.73 7.67024 14.79 7.73024 14.86C7.86024 15.01 8.00024 15.13 8.19024 15.21C8.39024 15.29 8.57024 15.27 8.75024 15.22H8.76024C8.75024 15.22 8.74024 15.23 8.73024 15.23C8.75024 15.22 8.76024 15.22 8.77024 15.22C8.82024 15.22 8.87024 15.21 8.93024 15.19C9.01024 15.17 9.09024 15.14 9.17024 15.11C9.29024 15.08 9.40024 15.05 9.52024 15.01C9.60024 14.98 9.67024 14.95 9.74024 14.92C10.3402 14.72 10.9102 14.44 11.4702 14.14C11.7302 14.01 11.9902 13.91 12.2602 13.79C12.5502 13.67 12.8202 13.51 13.1202 13.4C13.3302 13.34 13.5402 13.28 13.7402 13.19C13.9502 13.1 14.1502 13 14.3502 12.91C14.5702 12.81 14.7702 12.7 14.9602 12.56C15.1802 12.39 15.3102 12.13 15.3402 11.85C15.3502 11.74 15.3302 11.64 15.3102 11.54C15.3102 11.4 15.3002 11.27 15.2902 11.13C15.2802 10.84 15.2802 10.55 15.2902 10.26C15.3002 9.94 15.2602 9.62 15.2402 9.31C15.2202 8.91 15.2302 8.52 15.2202 8.12C15.2002 7.76 15.2202 7.4 15.2102 7.03C15.2102 6.85 15.2302 6.67 15.2302 6.49C15.2402 6.24 15.2402 5.99 15.2102 5.74C15.2002 5.61 15.1602 5.49 15.1102 5.37C15.0902 5.2 15.0302 5.04 14.9202 4.89C14.8102 4.73 14.7002 4.58 14.5802 4.42C14.4802 4.29 14.3502 4.18 14.2302 4.07C14.0002 3.86 13.7802 3.66 13.5902 3.41C13.5002 3.3 13.4202 3.18 13.3302 3.08C13.2202 2.96 13.1002 2.85 12.9902 2.73C12.7902 2.53 12.5902 2.33 12.4102 2.11C12.2902 2 12.2002 1.86 12.1002 1.72C12.0702 1.67 12.0302 1.62 12.0002 1.57C11.9002 1.42 11.8102 1.28 11.6802 1.15C11.6002 1.06 11.5002 0.97 11.4002 0.88C11.4002 0.88 11.4002 0.88 11.3902 0.88C11.4102 0.9 11.4202 0.91 11.4402 0.93C11.4202 0.91 11.4002 0.89 11.3802 0.87C11.3302 0.82 11.2902 0.77 11.2402 0.72C11.2302 0.71 11.2302 0.7 11.2302 0.69C11.2102 0.63 11.2002 0.58 11.1702 0.53C11.0602 0.32 10.8702 0.15 10.6402 0.07C10.5302 0.02 10.4102 0 10.2902 0C10.1802 0 10.0702 0.01 9.96024 0.04C9.69024 0.11 9.42024 0.22 9.16024 0.34C8.90024 0.45 8.64024 0.57 8.40024 0.71C8.13024 0.85 7.88024 1.02 7.63024 1.19C7.50024 1.27 7.36024 1.34 7.23024 1.42C7.02024 1.53 6.82024 1.66 6.63024 1.81C6.41024 1.98 6.18024 2.15 5.95024 2.31C5.82024 2.39 5.69024 2.47 5.57024 2.55C5.43024 2.64 5.31024 2.74 5.18024 2.83C5.08024 2.89 4.99024 2.95 4.90024 3.01C4.83024 3.06 4.76024 3.14 4.70024 3.21C4.60024 3.31 4.50024 3.4 4.41024 3.51C4.40024 3.52 4.39024 3.54 4.38024 3.55C4.32024 3.54 4.27024 3.52 4.21024 3.52C3.92024 3.52 3.65024 3.68 3.47024 3.9C3.26024 4.16 3.28024 4.57 3.26024 4.89C3.22024 5.38 3.18024 5.87 3.10024 6.36C3.06024 6.62 3.05024 6.88 3.03024 7.14C3.01024 7.42 2.97024 7.71 2.92024 7.99C2.82024 8.57 2.72024 9.16 2.61024 9.74C2.57024 9.95 2.52024 10.17 2.52024 10.38C2.51024 10.67 2.56024 10.98 2.77024 11.2C2.92024 11.37 3.10024 11.44 3.29024 11.53ZM6.28024 11.69C6.32024 11.73 6.36024 11.76 6.40024 11.8C6.36024 11.76 6.31024 11.72 6.27024 11.68C6.15024 11.57 6.04024 11.47 5.91024 11.38C5.80024 11.3 5.69024 11.22 5.58024 11.13C5.40024 10.97 5.21024 10.83 5.01024 10.68C4.82024 10.54 4.63024 10.4 4.45024 10.25C4.40024 10.2 4.34024 10.16 4.28024 10.13C4.29024 10.08 4.30024 10.04 4.31024 9.99C4.36024 9.72 4.42024 9.46 4.46024 9.19C4.56024 8.59 4.68024 8 4.74024 7.4C4.77024 7.14 4.78024 6.88 4.81024 6.62C4.83024 6.43 4.87024 6.23 4.89024 6.04C5.34024 6.48 5.74024 7 6.19024 7.46C6.41024 7.69 6.64024 7.92 6.86024 8.15C6.95024 8.24 7.03024 8.35 7.12024 8.44C7.23024 8.54 7.34024 8.64 7.46024 8.73C7.53024 8.8 7.61024 8.88 7.67024 8.96C7.72024 9.06 7.80024 9.14 7.88024 9.22C7.84024 9.54 7.80024 9.87 7.78024 10.2C7.76024 10.42 7.76024 10.65 7.72024 10.87C7.68024 11.09 7.65024 11.31 7.63024 11.54C7.60024 11.88 7.57024 12.22 7.55024 12.57C7.36024 12.45 7.18024 12.33 6.99024 12.21C6.75024 12.03 6.50024 11.88 6.28024 11.69ZM8.76024 15.23H8.75024C8.79024 15.22 8.82024 15.21 8.86024 15.2C8.83024 15.21 8.79024 15.22 8.76024 15.23ZM13.4102 11.45C13.2302 11.53 13.0502 11.63 12.8602 11.7C12.6702 11.76 12.4802 11.81 12.3002 11.89C12.1302 11.96 11.9702 12.04 11.8102 12.12C11.5302 12.25 11.2302 12.35 10.9502 12.49C10.3902 12.76 9.85024 13.06 9.27024 13.28C9.25024 13.29 9.23024 13.29 9.22024 13.3C9.23024 13.19 9.24024 13.07 9.25024 12.96C9.28024 12.53 9.31024 12.1 9.35024 11.67C9.37024 11.46 9.40024 11.24 9.44024 11.03C9.48024 10.81 9.49024 10.59 9.51024 10.36C9.53024 10.04 9.56024 9.72 9.60024 9.4C9.60024 9.38 9.61024 9.37 9.63024 9.36C10.0402 9.1 10.4802 8.87 10.9002 8.62C11.1102 8.49 11.3302 8.37 11.5502 8.25C11.7502 8.13 11.9402 7.98 12.1302 7.84C12.3002 7.74 12.4802 7.67 12.6602 7.59C12.8602 7.5 13.0602 7.4 13.2602 7.29C13.3302 7.25 13.4002 7.21 13.4702 7.17C13.4702 7.38 13.4702 7.59 13.4802 7.8C13.4902 8.15 13.4902 8.51 13.5002 8.86C13.5102 9.21 13.5402 9.56 13.5602 9.92C13.5602 10.1 13.5502 10.29 13.5502 10.47C13.5502 10.68 13.5602 10.88 13.5702 11.09C13.5802 11.19 13.5802 11.28 13.5802 11.38C13.5202 11.4 13.4602 11.42 13.4102 11.45ZM11.2702 0.75C11.2702 0.76 11.2802 0.77 11.2902 0.78C11.3002 0.79 11.3102 0.8 11.3202 0.81C11.3202 0.8 11.3102 0.8 11.3002 0.79C11.3002 0.79 11.3002 0.79 11.2902 0.79C11.3002 0.81 11.3102 0.82 11.3202 0.84C11.3102 0.82 11.3002 0.81 11.2902 0.79C11.2802 0.78 11.2702 0.77 11.2602 0.76C11.2702 0.77 11.2902 0.78 11.3002 0.79C11.2902 0.77 11.2802 0.76 11.2702 0.75ZM11.2502 0.74C11.2502 0.74 11.2402 0.74 11.2502 0.74C11.2402 0.74 11.2502 0.74 11.2502 0.74ZM5.97024 4.35C6.16024 4.23 6.33024 4.1 6.51024 3.98C6.76024 3.82 7.00024 3.67 7.24024 3.49C7.44024 3.34 7.64024 3.19 7.84024 3.04C7.97024 2.96 8.10024 2.9 8.24024 2.83C8.46024 2.71 8.66024 2.56 8.87024 2.42C9.11024 2.27 9.37024 2.14 9.62024 2.02C9.74024 1.97 9.85024 1.91 9.97024 1.86C9.97024 1.88 9.99024 1.89 10.0002 1.91C10.0602 1.98 10.1302 2.04 10.1902 2.1C10.3202 2.22 10.4402 2.35 10.5502 2.49C10.8402 2.95 11.1502 3.4 11.5502 3.78C11.7902 4.01 12.0302 4.25 12.2302 4.52C12.4602 4.84 12.7602 5.1 13.0502 5.36C13.0202 5.34 13.0002 5.32 12.9702 5.29C13.0002 5.31 13.0102 5.34 13.0402 5.36C13.0002 5.39 12.9502 5.42 12.9102 5.45C12.8002 5.52 12.7002 5.61 12.5902 5.69C12.3302 5.84 12.0502 5.97 11.7802 6.09C11.6102 6.16 11.4402 6.23 11.2902 6.33C11.1202 6.44 10.9702 6.56 10.8102 6.68C10.4802 6.88 10.1402 7.07 9.81024 7.26C9.62024 7.37 9.43024 7.49 9.24024 7.6C9.13024 7.65 9.03024 7.72 8.93024 7.78C8.77024 7.59 8.58024 7.43 8.39024 7.27C8.27024 7.15 8.16024 7.02 8.04024 6.89C7.87024 6.71 7.70024 6.55 7.54024 6.37C7.36024 6.18 7.18024 6 7.00024 5.8C6.83024 5.6 6.65024 5.39 6.47024 5.19C6.25024 4.96 6.03024 4.74 5.79024 4.54C5.88024 4.45 5.96024 4.36 6.06024 4.29C6.03024 4.31 6.00024 4.33 5.97024 4.35Z" fill="#0D003A"/>
<path d="M9.84002 14.89C9.82002 14.9 9.79002 14.91 9.77002 14.91C9.79002 14.91 9.81002 14.9 9.84002 14.89Z" fill="#0D003A"/>
<path d="M6.22021 11.63C6.24021 11.65 6.25022 11.66 6.27022 11.68L6.28022 11.69C6.26022 11.67 6.24021 11.65 6.22021 11.63Z" fill="#0D003A"/>
<path d="M5.47021 2.60999C5.50021 2.58999 5.53022 2.56999 5.57022 2.54999C5.60022 2.52999 5.63021 2.50999 5.66021 2.48999C5.59021 2.52999 5.53021 2.56999 5.47021 2.60999Z" fill="#0D003A"/>
<path d="M11.2798 0.769989L11.2898 0.779989L11.2798 0.769989Z" fill="#0D003A"/>
<path d="M11.9199 1.45001C11.9499 1.49001 11.9699 1.53001 11.9999 1.57001C12.0099 1.58001 12.0099 1.59001 12.0199 1.60001C11.9899 1.55001 11.9599 1.50001 11.9199 1.45001Z" fill="#0D003A"/>
<path d="M28.4698 16.56C28.4198 16.58 28.3698 16.59 28.3198 16.61C28.3698 16.59 28.4198 16.58 28.4698 16.56Z" fill="#0D003A"/>
<path d="M28.3198 16.61C28.2998 16.62 28.2798 16.63 28.2598 16.63C28.2798 16.62 28.2998 16.62 28.3198 16.61Z" fill="#0D003A"/>
<path d="M26.0798 23.16C26.0598 23.13 26.0398 23.1 26.0198 23.07C26.1598 23.28 26.3098 23.49 26.4698 23.69C26.6498 23.91 26.7998 24.15 26.9798 24.37C27.1698 24.61 27.3798 24.83 27.5698 25.07C27.7898 25.35 28.0598 25.58 28.3298 25.81C28.6098 26.09 28.8498 26.41 29.1198 26.7C29.2498 26.84 29.3998 26.97 29.5298 27.11C29.6298 27.22 29.7198 27.34 29.7998 27.46C29.8998 27.62 30.0098 27.78 30.1698 27.87C30.3998 28 30.6398 28.07 30.8998 28.01C31.0098 27.98 31.1098 27.94 31.2198 27.9C31.3998 27.83 31.5898 27.75 31.7698 27.68C32.0298 27.57 32.2698 27.42 32.5198 27.3C32.7998 27.16 33.0698 26.99 33.3298 26.82C33.5998 26.65 33.8698 26.5 34.1498 26.35C34.4198 26.21 34.6698 26.04 34.9398 25.91C35.2298 25.76 35.5098 25.61 35.7998 25.45C36.1198 25.28 36.3998 25.06 36.6898 24.85C37.0598 24.62 37.4398 24.42 37.8098 24.18C37.8998 24.12 37.9398 24.07 38.0598 23.94C38.1898 23.79 38.2098 23.61 38.2498 23.43C38.2698 23.34 38.2698 23.24 38.2698 23.15C38.2898 22.93 38.2998 22.71 38.3198 22.49C38.3498 22.03 38.3998 21.58 38.4098 21.12C38.4098 20.89 38.3998 20.66 38.4198 20.43C38.4398 20.17 38.4598 19.92 38.4798 19.66C38.5198 19.19 38.5698 18.72 38.5698 18.25C38.5698 18 38.5498 17.75 38.5298 17.5C38.5098 17.29 38.3398 17.07 38.1698 16.96C38.1398 16.94 38.0998 16.92 38.0698 16.9C38.0598 16.71 37.9998 16.53 37.8598 16.39C37.6398 16.17 37.4198 15.97 37.1698 15.79C37.0598 15.72 36.9498 15.66 36.8398 15.59C36.7298 15.52 36.6298 15.43 36.5298 15.36C36.3298 15.2 36.1298 15.06 35.9198 14.92C35.6798 14.76 35.4298 14.64 35.2098 14.45C34.9498 14.22 34.6998 13.99 34.3998 13.8C34.1898 13.67 33.9798 13.52 33.7898 13.37C33.7598 13.32 33.7298 13.26 33.6898 13.21C33.5798 13.06 33.4198 12.97 33.2598 12.9C33.1598 12.86 33.0598 12.84 32.9598 12.84C32.7598 12.84 32.5498 12.91 32.3598 12.98C32.2598 13.01 32.1698 13.07 32.0798 13.11C31.9698 13.16 31.8598 13.2 31.7498 13.24C31.4998 13.34 31.2498 13.44 30.9898 13.54C30.7198 13.64 30.4498 13.74 30.1698 13.84C30.1198 13.86 30.0598 13.88 30.0098 13.89C29.7698 13.97 29.5298 14.05 29.2998 14.16C29.1298 14.24 28.9598 14.34 28.7898 14.41C28.6898 14.44 28.5998 14.46 28.4998 14.48C28.2898 14.53 28.0798 14.6 27.8798 14.68C27.6098 14.78 27.3598 14.91 27.0998 15.02C26.8998 15.11 26.6898 15.18 26.4898 15.27C26.3498 15.34 26.2198 15.4 26.0898 15.5C25.9098 15.64 25.7898 15.9 25.7798 16.13C25.7798 16.21 25.7998 16.28 25.8198 16.35C25.8198 16.37 25.8098 16.38 25.8098 16.4C25.7698 16.82 25.7298 17.24 25.6998 17.67C25.6698 18.1 25.6198 18.54 25.6198 18.98C25.6198 19.33 25.5898 19.68 25.5898 20.03C25.5898 20.25 25.5898 20.48 25.5798 20.7C25.5598 20.82 25.5498 20.94 25.5298 21.06C25.4998 21.21 25.4698 21.35 25.4398 21.5C25.3898 21.79 25.4498 22.05 25.5898 22.31C25.6798 22.6 25.8898 22.87 26.0798 23.16ZM28.1298 16.67C28.1898 16.65 28.2598 16.63 28.3198 16.61C28.5698 16.53 28.8098 16.43 29.0598 16.35C29.2198 16.3 29.3698 16.25 29.5298 16.21C29.7698 16.15 30.0098 16.11 30.2498 16.05C30.4998 15.99 30.7598 15.95 31.0198 15.89C31.1898 15.85 31.3598 15.79 31.5298 15.73C31.4998 15.9 31.4598 16.08 31.4298 16.25C31.4498 16.17 31.4598 16.1 31.4798 16.02C31.3998 16.41 31.3398 16.79 31.2698 17.18C31.2398 17.31 31.2098 17.45 31.1798 17.58C31.1898 17.54 31.1998 17.5 31.2098 17.46C31.1398 17.79 31.0498 18.11 30.9898 18.45C30.9498 18.69 30.9198 18.93 30.8998 19.18C30.8298 19.21 30.7598 19.25 30.6898 19.3C30.6598 19.32 30.6298 19.35 30.5998 19.37C30.5398 19.4 30.4698 19.43 30.3998 19.46C30.1498 19.54 29.8898 19.63 29.6398 19.72C29.4898 19.77 29.3398 19.82 29.1898 19.87C29.0898 19.91 28.9998 19.95 28.8998 19.99C28.7198 20.04 28.5398 20.07 28.3498 20.11C28.0398 20.18 27.7598 20.31 27.4698 20.44C27.4198 20.47 27.3598 20.48 27.2998 20.51C27.3298 20.31 27.3598 20.11 27.3798 19.91C27.4198 19.48 27.4498 19.04 27.4798 18.6C27.4898 18.4 27.5098 18.21 27.4998 18.01C27.4898 17.8 27.4998 17.59 27.5098 17.39C27.5198 17.25 27.5198 17.11 27.5198 16.97C27.7298 16.86 27.9198 16.75 28.1298 16.67ZM33.7198 15.97C33.8498 16.08 33.9698 16.19 34.1198 16.28C34.2498 16.37 34.3898 16.45 34.5198 16.55C34.7698 16.75 35.0498 16.91 35.3098 17.11C35.5898 17.33 35.8898 17.52 36.1698 17.74C36.2898 17.84 36.4198 17.94 36.5398 18.04C36.5298 18.12 36.5198 18.2 36.5098 18.28C36.4698 18.51 36.4498 18.74 36.4298 18.97C36.4098 19.22 36.3898 19.47 36.3698 19.72C36.3498 19.96 36.3498 20.21 36.3098 20.45C36.2398 20.9 36.1898 21.35 36.1198 21.8C36.1198 21.82 36.1098 21.83 36.1098 21.85C36.0598 21.81 35.9998 21.77 35.9398 21.73C35.7498 21.61 35.5598 21.49 35.3898 21.35C35.1398 21.1 34.9198 20.81 34.6098 20.63C34.3898 20.5 34.1698 20.37 33.9698 20.21C33.7798 20.06 33.5898 19.93 33.3898 19.8C33.1798 19.66 32.9498 19.56 32.7598 19.4C32.8098 19.45 32.8698 19.5 32.9198 19.55C32.8198 19.46 32.7198 19.38 32.6098 19.29C32.6398 19.02 32.6698 18.74 32.7198 18.47C32.7598 18.28 32.8098 18.1 32.8498 17.91C32.9098 17.66 32.9698 17.41 33.0098 17.16C33.0398 16.95 33.0798 16.74 33.1198 16.54C33.0998 16.62 33.0898 16.69 33.0698 16.77C33.1198 16.55 33.1598 16.33 33.1998 16.11C33.2298 15.98 33.2598 15.84 33.2798 15.71C33.3298 15.73 33.3898 15.75 33.4398 15.77C33.5498 15.84 33.6598 15.93 33.7598 16.02C33.7498 16 33.7298 15.98 33.7198 15.97ZM31.3198 25.49C31.2898 25.37 31.2298 25.25 31.1498 25.14C30.9698 24.91 30.7498 24.72 30.5298 24.53C30.2998 24.31 30.0898 24.04 29.8898 23.8C29.7298 23.61 29.5598 23.44 29.3698 23.28C29.2398 23.16 29.0898 23.05 28.9498 22.93C28.6398 22.64 28.3398 22.35 28.0298 22.06C28.1998 21.98 28.3598 21.91 28.5298 21.83C28.7398 21.78 28.9498 21.75 29.1598 21.69C29.4398 21.62 29.6898 21.5 29.9498 21.4C30.2298 21.31 30.4998 21.21 30.7798 21.11C30.9398 21.06 31.1098 21 31.2698 20.94C31.4098 20.89 31.5198 20.8 31.6398 20.71C31.6598 20.72 31.6798 20.74 31.6898 20.75C31.7698 20.82 31.8498 20.9 31.9398 20.96C32.0198 21.02 32.1198 21.06 32.2098 21.11C32.3898 21.2 32.5598 21.32 32.7298 21.44C32.9098 21.57 33.0698 21.71 33.2498 21.83C33.4198 21.95 33.6098 22.04 33.7698 22.16C33.9998 22.39 34.2098 22.64 34.4798 22.84C34.7298 23.03 35.0098 23.18 35.2598 23.39C35.2798 23.41 35.2998 23.43 35.3298 23.45C35.3598 23.48 35.3898 23.5 35.4098 23.52C35.2198 23.62 35.0398 23.73 34.8498 23.83C34.5698 23.98 34.2798 24.13 33.9998 24.27C33.7698 24.39 33.5298 24.49 33.2898 24.6C33.0698 24.71 32.8498 24.83 32.6198 24.94C32.3998 25.04 32.1798 25.11 31.9598 25.19C31.7398 25.27 31.5298 25.38 31.3198 25.49ZM29.0998 23.05C29.0698 23.02 29.0398 23 29.0098 22.97C28.9998 22.96 28.9898 22.95 28.9798 22.94C29.0198 22.98 29.0598 23.01 29.0998 23.05Z" fill="#0D003A"/>
<path d="M37.8398 24.13C37.8298 24.14 37.8098 24.15 37.7998 24.16C37.7898 24.17 37.7698 24.18 37.7598 24.19C37.7898 24.17 37.8098 24.15 37.8398 24.13Z" fill="#0D003A"/>
</g>
<defs>
<clipPath id="clip0">
<rect width="105.33" height="90.09" fill="white"/>
</clipPath>
</defs>
</svg>
