<svg width="74" height="35" viewBox="0 0 74 35" fill="none" xmlns="http://www.w3.org/2000/svg">
<g clip-path="url(#clip0)">
<path d="M9.68804 25.7604C9.56618 25.7831 9.45193 25.8133 9.33007 25.8209C9.20059 25.836 9.07112 25.8511 8.94164 25.8738C8.63699 25.9116 8.3171 25.957 8.00483 25.9721C7.81443 25.9797 7.62402 25.9872 7.42599 25.9872C7.12134 25.9872 6.81669 25.9797 6.51204 25.957C6.11599 25.9343 5.71994 25.9116 5.33151 25.8738C5.24773 25.8663 5.15634 25.8511 5.07256 25.836C4.98878 25.8209 4.89738 25.8058 4.80599 25.7982C4.69175 25.7906 4.58511 25.7831 4.47087 25.7831C4.40994 25.7831 4.34901 25.7831 4.28808 25.7831H4.21192C3.99104 25.7831 3.77017 25.7528 3.55692 25.7226L3.4122 25.6999C3.33604 25.6924 3.25227 25.6848 3.1761 25.6772L3.01616 25.6621C2.8943 25.647 2.77244 25.6243 2.65057 25.5941C2.6125 25.5941 2.57441 25.5865 2.53633 25.5865C2.43732 25.5865 2.33831 25.5638 2.24691 25.5411L2.17075 25.5185V25.526C2.07935 25.5109 2.01842 25.4958 1.9651 25.4806C1.6833 25.3975 1.48528 25.095 1.51575 24.7926C1.54621 24.4372 1.83563 24.2406 2.07935 24.1423C2.27737 24.0592 2.49063 24.0062 2.69627 23.9533C2.78005 23.9306 2.87144 23.908 2.95523 23.8853C3.03139 23.855 3.09994 23.8323 3.1761 23.7945L3.14564 23.7416C3.06186 23.5601 3.0847 23.4014 3.11517 23.2426C3.14564 23.0914 3.30558 22.9326 3.4122 22.8267L3.49599 22.7436L3.55692 22.6831C3.70924 22.5092 3.85395 22.3277 3.99104 22.1462C4.22715 21.8589 4.43279 21.5943 4.60035 21.2994C4.66128 21.1633 4.71459 21.0196 4.76791 20.876C4.79837 20.7852 4.83646 20.687 4.86692 20.5962C4.9964 20.2711 5.20966 20.0291 5.43814 19.7872C5.83419 19.3713 6.3064 19.0008 6.97663 18.5774C7.17466 18.4413 7.35745 18.3052 7.54786 18.1616C7.86013 17.9272 8.21809 17.7306 8.56083 17.5416C8.72077 17.4584 8.88071 17.3828 9.04065 17.2996C9.2006 17.224 9.35292 17.1484 9.51286 17.0652C9.75659 16.9367 9.99269 16.793 10.2288 16.6418L10.2059 16.6645L10.2669 16.6191C10.0917 16.5586 9.92415 16.4679 9.76421 16.3696C9.62711 16.294 9.51286 16.2033 9.39862 16.1201L9.27676 16.0294L9.1549 15.9462C9.04065 15.8706 8.92641 15.7874 8.81978 15.6967C8.43896 15.3716 8.13431 15.0237 7.8982 14.6608C7.72303 14.3886 7.58594 14.0937 7.44885 13.7989C7.40315 13.7006 7.35745 13.6023 7.31175 13.504L7.1442 13.1637L6.83192 12.521L6.75576 12.3623L6.59582 12.0296C6.51204 11.8481 6.44349 11.6591 6.39779 11.523C6.3521 11.3945 6.3064 11.2659 6.25309 11.1374C6.21501 11.0466 6.16169 10.9635 6.11599 10.8803L6.07029 10.8047C5.95605 10.6005 5.86465 10.3888 5.77326 10.1015C5.77326 10.1015 5.76564 10.0788 5.75803 10.0562L5.74279 10.0032H5.73518L5.63617 9.70078L5.6057 9.61005C5.55238 9.43615 5.49907 9.25468 5.45337 9.07322C5.41529 8.91444 5.38483 8.74809 5.36198 8.58175C5.35436 8.50614 5.33913 8.43809 5.33151 8.36248L5.27058 8.00711C5.21727 7.65175 5.15634 7.30394 5.08018 6.95613C5.05733 6.84271 5.03448 6.73686 5.00402 6.62345C4.98117 6.51003 4.9507 6.40418 4.92785 6.29076C4.905 6.18491 4.88977 6.07905 4.87453 5.9732C4.86692 5.89003 4.85169 5.81442 4.83646 5.73124C4.82122 5.64051 4.80598 5.54222 4.79075 5.45149C4.77552 5.35319 4.76029 5.2549 4.74506 5.16417C4.72982 5.081 4.70697 5.00539 4.68412 4.92977C4.59273 4.60465 4.75267 4.27197 5.07256 4.0905C5.17157 4.03757 5.30105 4.00733 5.46099 4.00733C5.56762 4.00733 5.68186 4.02245 5.78088 4.03001C5.97128 4.0527 6.12361 4.06026 6.27594 4.07538L6.42826 4.08294C6.65675 4.09806 6.92332 4.12074 7.20513 4.12074C7.26606 4.12074 7.32698 4.12074 7.38792 4.12074H7.43361C7.54024 4.12074 7.64687 4.12831 7.75349 4.14343L7.86774 4.15099L8.13431 4.17367L8.37803 4.19636C8.65222 4.21904 8.92641 4.29465 9.19298 4.3627C9.28438 4.38538 9.38338 4.40806 9.47478 4.43075C9.69566 4.47611 9.91653 4.52148 10.1222 4.58953L10.343 4.66514C10.4725 4.71051 10.602 4.74831 10.7315 4.79368C10.8686 4.83904 10.998 4.89197 11.1275 4.9449L11.2418 4.99026C11.4017 5.05075 11.5693 5.09612 11.7292 5.14904L11.7901 5.16417C12.1405 5.27002 12.4908 5.39856 12.8336 5.54978C13.1078 5.67076 13.3591 5.8371 13.5952 5.99588C13.6866 6.05637 13.7704 6.1093 13.8618 6.16978C13.9303 6.20759 13.9913 6.25295 14.0598 6.29076C14.1969 6.37393 14.334 6.44954 14.4558 6.54783C14.6386 6.69149 14.8367 6.82759 15.0271 6.95613C15.1489 7.0393 15.2632 7.13003 15.3774 7.22833L15.5374 7.33418C15.7278 7.4854 15.9106 7.63662 16.0933 7.80297C16.1695 7.86345 16.2457 7.92394 16.3295 7.99199C16.4285 8.0676 16.5275 8.15077 16.6265 8.23394C16.7788 8.36248 16.9311 8.49858 17.0835 8.63468L17.251 8.7859L17.3424 8.86151L17.4338 8.93712L17.3805 8.89932C17.5252 9.02029 17.6623 9.15639 17.7994 9.28493L17.8451 9.33029C18.0431 9.48907 18.2564 9.63273 18.462 9.77639C18.5839 9.85957 18.7057 9.94274 18.8276 10.0259C19.0409 10.1771 19.2313 10.3435 19.3988 10.5249C19.4445 10.5703 19.4902 10.6157 19.5283 10.6686C19.6045 10.7442 19.673 10.8274 19.7492 10.903C19.833 10.9786 19.9244 11.0466 20.0081 11.1223C20.0614 11.1676 20.1071 11.2281 20.1528 11.2962C20.3585 11.1752 20.5337 11.0845 20.7088 11.0013C21.0516 10.8501 21.4019 10.7064 21.7523 10.5627C22.1635 10.3964 22.5901 10.2603 23.009 10.162L23.1917 10.1242C23.4355 10.0713 23.6716 10.0183 23.9077 9.9503L24.0752 9.88981C24.2047 9.84444 24.3418 9.79908 24.4713 9.75371C24.7379 9.66298 24.9892 9.55712 25.1796 9.46639C25.3015 9.4059 25.4309 9.36054 25.5604 9.30761C25.6747 9.26224 25.7813 9.22444 25.8879 9.17151C26.0479 9.0959 26.2078 9.02029 26.3677 8.94468L26.5658 8.84639C26.7714 8.74809 26.9847 8.68005 27.2208 8.60443C27.2512 8.52882 27.2512 8.45321 27.2589 8.3776V8.30199L27.2665 8.22638C27.2741 8.12053 27.2817 8.02224 27.2817 7.91638C27.2665 7.78028 27.2436 7.65174 27.1979 7.52321C27.1446 7.35686 27.1446 7.1754 27.137 7.0015C27.1294 6.84272 27.1218 6.7293 27.1294 6.60832C27.1294 6.54027 27.137 6.46466 27.137 6.39661L27.1446 6.23783C27.1522 6.04125 27.1751 5.85222 27.2055 5.65563C27.2208 5.55734 27.2284 5.45905 27.2436 5.35319C27.2817 4.9827 27.3046 4.69538 27.3122 4.43075C27.3198 4.34001 27.3274 4.24172 27.335 4.14343C27.3502 3.99221 27.3579 3.84855 27.3579 3.69733C27.3426 3.53855 27.3122 3.38733 27.2741 3.24367C27.2436 3.18318 27.2132 3.13025 27.1827 3.07732L27.1598 3.03952C27.1141 2.96391 27.0761 2.8883 27.0227 2.81269C26.9923 2.77488 26.9618 2.73708 26.9237 2.69927C26.7638 2.57073 26.6191 2.46488 26.5429 2.3061C26.4668 2.14732 26.4591 1.96585 26.5125 1.80707C26.5658 1.65585 26.6724 1.53487 26.8476 1.42902C26.9314 1.38365 27.0304 1.35341 27.137 1.35341C27.4036 1.35341 27.6777 1.50463 27.8986 1.63317L27.9519 1.66341L28.089 1.73902C28.2337 1.81463 28.3708 1.8978 28.5155 1.97341L28.6831 2.04902C28.8202 2.10951 28.9497 2.17 29.0868 2.23805C29.1934 2.14732 29.3305 2.10195 29.4676 2.10195C29.4904 2.10195 29.5133 2.10195 29.5361 2.10195C29.955 2.15488 30.3358 2.35903 30.7014 2.56317L30.9223 2.68415C31.2346 2.82025 31.5773 2.90342 31.9048 2.98659C32.08 3.03196 32.2475 3.06976 32.4227 3.12269C32.6969 3.20586 32.9558 3.31928 33.2453 3.44025C33.5347 3.56879 33.8393 3.70489 34.1364 3.86367C34.7 4.17367 35.157 4.61977 35.5911 5.05075C35.7206 5.17929 35.8348 5.2927 35.9414 5.40612L35.9948 5.45905C36.109 5.57246 36.2309 5.701 36.2994 5.84466C36.4974 5.85978 36.6955 5.90515 36.9163 5.95808C37.0382 5.98076 37.1524 6.00344 37.2743 6.03369C37.32 6.04881 37.3657 6.06393 37.4038 6.07149L37.4571 6.08661C37.6018 6.1093 37.7541 6.1093 37.8988 6.11686C37.9674 6.11686 38.0359 6.11686 38.1045 6.12442C38.1882 6.12442 38.2644 6.13198 38.3482 6.13954C38.4853 6.1471 38.6224 6.15466 38.7595 6.15466H38.8204C39.5516 6.1093 40.2446 5.99588 41.0748 5.85222C41.5242 5.77661 41.9202 5.73881 42.3011 5.73881H42.4305C42.5676 5.73881 42.6971 5.74637 42.8342 5.76149C43.0018 5.76905 43.1617 5.78417 43.3293 5.78417H43.4435C43.7177 5.76905 43.9538 5.75393 44.1899 5.75393C44.3498 5.75393 44.5098 5.76149 44.6621 5.77661C45.1419 5.82198 45.6218 5.93539 46.0483 6.04125C46.4062 6.13198 46.7718 6.22271 47.1222 6.32857C47.2593 6.36637 47.3964 6.41174 47.5258 6.4571C47.7772 6.54027 48.0361 6.62345 48.3027 6.68393C48.516 6.7293 48.7292 6.77467 48.9425 6.82003L49.5365 6.94857L49.6355 6.96369C49.8031 6.99394 49.9631 7.02418 50.1306 7.06199C50.2906 7.09223 50.4505 7.1376 50.6028 7.18296C50.6942 7.11491 50.7932 7.06198 50.8999 7.04686C50.9379 7.03174 50.9836 7.03174 51.0293 7.03174C51.1436 7.03174 51.2731 7.06955 51.3797 7.09223L51.433 7.10735L51.5244 7.13003C51.5701 7.14516 51.6158 7.15272 51.6615 7.16784L51.89 7.23589L52.187 7.32662C52.5297 7.43248 52.8725 7.54589 53.2076 7.66687C53.7179 7.84077 54.2206 8.05248 54.708 8.25663L55.0888 8.41541C55.3097 8.50614 55.5306 8.612 55.7514 8.71785L56.0104 8.83883C56.3303 8.99005 56.6425 9.14127 56.9548 9.29249C57.3128 9.47395 57.6707 9.6781 58.0059 9.88225C58.2267 10.0108 58.4476 10.1393 58.6685 10.2603C58.8437 10.3586 59.0112 10.4644 59.1788 10.5627C59.3768 10.6837 59.5824 10.8047 59.7881 10.9181L59.6358 10.8501C60.1537 11.0996 60.6411 11.4171 61.1133 11.7271L61.1666 11.7649C61.3037 11.8557 61.4408 11.9464 61.5703 12.0371L61.8749 12.2413C62.0501 12.3547 62.2253 12.4681 62.4005 12.574L62.5985 12.7025C62.8346 12.8462 63.0555 12.9974 63.284 13.1562C63.4896 13.2998 63.6952 13.4435 63.8933 13.5872L64.0913 13.7233C64.2132 13.8064 64.3426 13.8972 64.4569 13.9879C64.6397 14.1315 64.792 14.2525 64.9596 14.3659C65.1576 14.502 65.3556 14.6306 65.5536 14.7667C65.9497 15.0237 66.3533 15.2959 66.7341 15.5908C66.9474 15.7572 67.1759 15.9311 67.412 16.0899C67.4577 16.1201 67.4958 16.1428 67.5415 16.173C67.5872 16.2033 67.6329 16.2335 67.6786 16.2638L67.7547 16.3091C67.9832 16.4452 68.2193 16.5964 68.2574 16.8838C68.2879 17.1408 68.1965 17.3752 68.0137 17.5264C67.9451 17.5869 67.8537 17.6323 67.7776 17.6777C67.6862 17.7306 67.5948 17.776 67.511 17.8289C67.313 17.9725 67.1302 18.1389 66.955 18.2977C66.7798 18.464 66.559 18.6228 66.2619 18.7967C65.8278 19.0462 65.348 19.2655 64.8529 19.4318L64.8148 19.4394H64.8072L64.8148 19.4318H64.7996V19.4243C64.7844 19.4394 64.7615 19.4469 64.7463 19.4545L64.5178 19.5301L64.4569 19.5528C64.1446 19.6587 63.84 19.7948 63.581 19.9535C63.4363 20.0594 63.284 20.1955 63.124 20.377L63.1545 20.3316C63.0631 20.445 62.9641 20.5433 62.8651 20.6492L62.7127 20.8155C62.5528 20.9894 62.3776 21.1784 62.172 21.3599C62.1263 21.3977 62.0882 21.4431 62.0425 21.4809C61.9968 21.5187 61.9587 21.564 61.913 21.6018C61.814 21.6926 61.6998 21.7606 61.5855 21.8287L61.5474 21.8514C61.319 22.0026 61.0524 22.1765 60.7706 22.2975C60.6716 22.3428 60.5649 22.3806 60.4659 22.426C60.306 22.4865 60.1537 22.5545 60.0013 22.6226C59.8719 22.6831 59.7424 22.7284 59.6129 22.7814C59.4834 22.8343 59.354 22.8797 59.2321 22.9401C59.0265 23.0384 58.8056 23.1594 58.5771 23.2955C58.3943 23.4165 58.2115 23.545 58.0135 23.6584C57.8612 23.7416 57.7088 23.8172 57.5489 23.8928L57.4956 23.9155C57.3204 24.0062 57.1528 24.0819 56.9777 24.1499C56.8025 24.2104 56.6349 24.286 56.4674 24.3616L56.376 24.407C56.2313 24.475 56.0866 24.5431 55.9418 24.596C55.7591 24.6641 55.5839 24.7397 55.4087 24.8153C55.165 24.9287 54.9365 25.0043 54.708 25.0497L54.5557 25.0799C54.411 25.1102 54.2663 25.1404 54.1292 25.1706C54.0759 25.1858 54.0302 25.1933 53.9768 25.2085C53.8931 25.2387 53.8093 25.2765 53.7255 25.3067C53.5656 25.3748 53.398 25.4277 53.2304 25.4806C53.101 25.5185 52.9715 25.5563 52.842 25.5941C52.7278 25.6243 52.6211 25.6546 52.5069 25.6848L52.4231 25.7075L52.3165 25.7377L52.1565 25.7907L52.0347 25.8285C51.8824 25.8814 51.7376 25.9419 51.5929 26.0024C51.4254 26.078 51.2502 26.1385 51.075 26.1914C50.9456 26.2368 50.8161 26.2821 50.6866 26.3426C50.5038 26.4182 50.2829 26.5089 50.0468 26.5846C49.6432 26.7131 49.2167 26.7282 48.7978 26.7433H48.7292C48.5464 26.7585 48.356 26.7736 48.1732 26.7887C48.0361 26.8038 47.9066 26.8265 47.7696 26.8492C47.6934 26.8643 47.6248 26.8719 47.5487 26.887C47.4344 26.9021 47.3202 26.9172 47.1983 26.9248C47.1222 26.9324 47.046 26.9399 46.9698 26.9475C46.7642 26.9702 46.5662 26.9929 46.3682 27.0155C46.0026 27.0533 45.6294 27.0836 45.2638 27.1138L45.1419 27.1214L44.9287 27.1365C44.7459 27.1516 44.5631 27.1668 44.3803 27.1743H44.3346C44.2813 27.1743 44.2204 27.1668 44.1594 27.1668L44.1137 27.2802C44.0376 27.4465 43.9614 27.628 43.87 27.7868C43.8167 27.8851 43.7405 27.9682 43.672 28.0514L43.6339 28.0892C43.5425 28.1951 43.474 28.3009 43.4054 28.4143C43.2379 28.747 43.1084 29.0495 43.0018 29.3368C42.8875 29.6468 42.7504 29.919 42.6057 30.1458C42.5372 30.2441 42.4686 30.3424 42.3924 30.4331L42.2934 30.5617C42.2554 30.6146 42.2097 30.6675 42.1716 30.7204C42.1259 30.7734 42.0802 30.8339 42.0421 30.8943C42.004 30.9473 41.9736 31.0002 41.9355 31.0531C41.8822 31.1363 41.8288 31.227 41.7679 31.2951C41.6613 31.4161 41.5547 31.5143 41.4404 31.6126L41.3338 31.7109C41.1967 31.8319 41.0672 31.9378 40.9377 32.0285C40.854 32.0814 40.7778 32.1495 40.7016 32.21C40.6255 32.2705 40.5493 32.3309 40.4655 32.3914C40.2751 32.52 40.0771 32.6409 39.841 32.7619L39.7724 32.7997C39.643 32.8678 39.5135 32.9283 39.3764 32.9812C39.1479 33.0644 38.927 33.1022 38.6909 33.14C38.5234 33.1702 38.371 33.2156 38.2187 33.2534L38.0359 33.3063C37.9521 33.329 37.8684 33.3517 37.7846 33.3668C37.678 33.3895 37.5637 33.4197 37.4571 33.45C37.2514 33.5105 37.061 33.5558 36.8782 33.5861C36.7716 33.6012 36.6726 33.6088 36.566 33.6239C36.4822 33.6314 36.3908 33.639 36.307 33.6541C36.2004 33.6692 36.0938 33.6919 35.9871 33.7146C35.8881 33.7373 35.7967 33.76 35.6977 33.7751L35.5987 33.7902C35.4768 33.8053 35.355 33.8205 35.2331 33.8507L35.1874 33.8658C35.0503 33.9112 34.9209 33.9641 34.7761 33.9944C34.6314 34.0322 34.4867 34.0775 34.342 34.1153C34.2811 34.138 34.2202 34.1531 34.1592 34.1758C34.0221 34.2212 33.8774 34.2817 33.7403 34.3422L33.6337 34.4178C33.5347 34.4556 33.4357 34.4783 33.3443 34.4783C33.1539 34.4783 32.9787 34.4027 32.8492 34.259C32.735 34.1305 32.674 33.949 32.6893 33.7675C32.7045 33.5936 32.7807 33.4424 32.9101 33.3366C32.9711 33.2912 33.032 33.2458 33.0929 33.208L33.1767 33.1551C33.3214 33.0568 33.4661 32.9509 33.6032 32.8375C33.7099 32.7544 33.8165 32.6561 33.9231 32.5653L34.045 32.4595C34.144 32.3763 34.2506 32.2856 34.342 32.1948C34.3877 32.1344 34.4258 32.0814 34.4639 32.0209C34.4943 31.9453 34.5248 31.8622 34.54 31.7865C34.5553 31.7185 34.5629 31.6504 34.5705 31.5824C34.5857 31.4765 34.601 31.3783 34.6238 31.2724C34.6619 31.0985 34.6771 30.9095 34.6695 30.6675C34.6619 30.5163 34.6467 30.3878 34.6162 30.2592L34.5705 30.1534C34.5477 30.0929 34.5248 30.0324 34.502 29.9719C34.4486 29.8131 34.4029 29.6921 34.3496 29.5712C34.2659 29.367 34.1973 29.1931 34.1364 29.0041C34.1135 28.936 34.0983 28.868 34.0831 28.7999L34.045 28.6412C34.0145 28.5504 33.9764 28.4597 33.9384 28.3614L33.847 28.1346C33.7936 27.9833 33.7479 27.8321 33.7022 27.6733L33.6565 27.507C33.6261 27.4238 33.588 27.3407 33.5499 27.2499C33.5118 27.1592 33.4661 27.0609 33.4357 26.9702C33.3824 26.8189 33.3214 26.6677 33.2757 26.5089C33.2376 26.4636 33.2148 26.4636 33.1843 26.4636C33.032 26.456 32.8873 26.4258 32.7502 26.4031L32.6436 26.388C32.179 26.3124 31.7144 26.2141 31.265 26.1158C31.0746 26.078 30.8994 26.0553 30.7167 26.025L30.4577 25.9872C30.1759 25.9419 29.9017 25.8738 29.6275 25.8133L29.4219 25.768H29.4371C29.0563 25.6848 28.6146 25.5789 28.1957 25.4277C28.0738 25.3824 27.9443 25.3445 27.8148 25.3143L27.6092 25.2538C27.4569 25.2085 27.3046 25.148 27.1522 25.095L27.038 25.0497C26.9314 25.0119 26.8247 24.9741 26.7181 24.9438C26.6191 24.9136 26.5125 24.8758 26.4134 24.8455L26.2535 24.785C26.1012 24.7245 25.9488 24.6716 25.7965 24.6111C25.4843 24.4826 25.1796 24.3238 24.8902 24.165L24.7302 24.0819C24.4637 23.9533 24.2047 23.8248 23.9381 23.6887C23.7554 23.6055 23.5726 23.5375 23.3822 23.4619L23.2527 23.4165C23.1384 23.3711 23.0242 23.3258 22.9099 23.2728C22.7957 23.2275 22.6815 23.1745 22.5672 23.1292L22.4377 23.0838C22.2397 23.0082 22.0265 22.9326 21.836 22.8267C21.7447 22.7738 21.6533 22.7133 21.5695 22.6528C21.4933 22.5999 21.4248 22.547 21.3486 22.5016L21.181 22.426C21.0744 22.3806 20.9678 22.3277 20.8688 22.2748C20.7012 22.1916 20.5641 22.0782 20.4042 21.9572C20.1148 21.7228 19.8177 21.5338 19.5359 21.3826L19.6197 21.4128C19.3912 21.2994 19.1856 21.186 18.9952 21.0726C18.9495 21.0423 18.9114 21.0121 18.8657 20.9818C18.7438 21.1255 18.622 21.2389 18.4849 21.3372C18.3249 21.4582 18.1421 21.5565 17.9746 21.6548L17.8223 21.7455C17.4871 21.9421 17.1292 22.1084 16.7864 22.2748L16.4742 22.4184L16.1238 22.5848L15.9182 22.6831C15.9106 22.7133 15.9029 22.7436 15.8953 22.7738C15.8649 22.8797 15.7887 22.9779 15.7278 23.0687C15.5602 23.3031 15.4079 23.4845 15.2403 23.6206C15.1185 23.7265 14.9738 23.8097 14.829 23.8928L14.6843 23.9836C14.6158 24.0289 14.5396 24.0743 14.4711 24.1121C14.2274 24.2482 13.9608 24.3919 13.6409 24.5355C13.5114 24.596 13.3743 24.6489 13.2372 24.7019C13.1458 24.7397 13.0544 24.7775 12.9631 24.8153C12.864 24.8606 12.765 24.8984 12.666 24.9363C12.5594 24.9741 12.4528 25.0194 12.3461 25.0648C12.11 25.1631 11.8739 25.2387 11.6454 25.3067C11.3332 25.405 11.0057 25.4806 10.6934 25.5563L10.503 25.6016C10.3126 25.647 10.1146 25.6924 9.92414 25.7226C9.84037 25.7302 9.7642 25.7453 9.68804 25.7604Z" fill="#361FAA"/>
<path d="M37.6475 27.5448H37.6398L37.6475 27.5373C37.6475 27.5373 37.6475 27.5373 37.6475 27.5448Z" fill="#0D003A"/>
<path d="M7.40283 17.587C7.40283 17.587 7.39522 17.587 7.39522 17.5946C7.3876 17.5946 7.37998 17.6021 7.37998 17.6021C7.37998 17.5946 7.3876 17.5946 7.40283 17.587Z" fill="#0D003A"/>
<path d="M7.32666 17.6247C7.31904 17.6247 7.31143 17.6323 7.30381 17.6323C7.28097 17.6474 7.2505 17.6625 7.22004 17.6777C7.26573 17.655 7.2962 17.6399 7.32666 17.6247Z" fill="#0D003A"/>
<path d="M5.43047 9.61757C5.43047 9.63269 5.43809 9.64781 5.4457 9.66293C5.45332 9.68562 5.45332 9.70074 5.46094 9.72342C5.44571 9.69318 5.43809 9.65537 5.43047 9.61757Z" fill="#0D003A"/>
<path d="M5.38477 9.41351C5.38477 9.39839 5.37714 9.39082 5.37714 9.3757C5.37714 9.39082 5.37715 9.39839 5.38477 9.41351Z" fill="#0D003A"/>
<path d="M4.646 5.42123C4.646 5.41367 4.64599 5.40611 4.63838 5.39854C4.64599 5.41367 4.646 5.41367 4.646 5.42123Z" fill="#0D003A"/>
<path d="M37.6631 21.4431C37.6555 21.4356 37.6555 21.4356 37.6555 21.428C37.6631 21.4356 37.6631 21.4356 37.6631 21.4431Z" fill="#0D003A"/>
<path d="M44.8447 10.2906H44.8371H44.8295C44.8295 10.283 44.8371 10.2906 44.8447 10.2906Z" fill="#0D003A"/>
<path d="M48.5537 10.9559C48.5689 10.9559 48.5766 10.9634 48.5918 10.9634C48.5842 10.9634 48.5842 10.9634 48.5766 10.9634C48.5689 10.9634 48.5613 10.9634 48.5537 10.9559Z" fill="#0D003A"/>
<path d="M48.6147 10.9711C48.6071 10.9711 48.5995 10.9711 48.5919 10.9711C48.5919 10.9711 48.5919 10.9711 48.5843 10.9711C48.5995 10.9635 48.6071 10.9711 48.6147 10.9711Z" fill="#0D003A"/>
<path d="M38.6678 12.521C38.3099 12.521 37.9976 12.2715 37.9748 11.901C37.9595 11.5608 38.2413 11.213 38.5993 11.213C38.9573 11.213 39.2695 11.4625 39.2924 11.833C39.3076 12.1808 39.0258 12.521 38.6678 12.521Z" fill="#0D003A"/>
<path d="M36.5355 15.4774C36.1776 15.4774 35.8653 15.2279 35.8424 14.8574C35.8272 14.5171 36.109 14.1693 36.467 14.1693C36.8249 14.1693 37.1372 14.4188 37.1601 14.7893C37.1753 15.1371 36.8935 15.4774 36.5355 15.4774Z" fill="#0D003A"/>
<path d="M36.5507 17.035C36.1927 17.035 35.8804 16.7855 35.8576 16.415C35.8423 16.0748 36.1241 15.727 36.4821 15.727C36.8401 15.727 37.1523 15.9765 37.1752 16.347C37.1904 16.6872 36.9086 17.035 36.5507 17.035Z" fill="#0D003A"/>
<path d="M53.0476 18.3808C53.398 18.4565 53.6264 18.8118 53.5503 19.1596C53.5503 19.1748 53.5427 19.1899 53.5427 19.1974C53.4665 19.5452 53.1085 19.7721 52.7582 19.6965C52.4078 19.6209 52.1793 19.2655 52.2555 18.9177C52.2555 18.9026 52.2631 18.8874 52.2631 18.8799C52.3317 18.5774 52.6059 18.3657 52.9029 18.3657C52.9562 18.3657 53.0019 18.3733 53.0476 18.3808Z" fill="#0D003A"/>
<path d="M38.1118 4.98276C38.0966 4.98276 38.0813 4.98276 38.0661 4.99032C38.0813 4.98276 38.0966 4.98276 38.1118 4.98276Z" fill="#0D003A"/>
<path d="M36.7788 4.62739C36.756 4.61983 36.7331 4.61227 36.7179 4.60471C36.7026 4.59715 36.695 4.58958 36.6798 4.58958C36.7103 4.60471 36.7483 4.61227 36.7788 4.62739Z" fill="#0D003A"/>
<path d="M9.42912 5.48175C9.49005 5.48931 9.54336 5.49687 9.59668 5.50443C9.54336 5.49687 9.49005 5.48931 9.42912 5.48175Z" fill="#0D003A"/>
<path d="M11.7747 6.03371C11.7899 6.04127 11.7976 6.04127 11.8052 6.04883C11.7976 6.04127 11.7823 6.04127 11.7747 6.03371Z" fill="#0D003A"/>
<path d="M9.79492 15.3187C9.77207 15.3036 9.75684 15.2884 9.73399 15.2733C9.71114 15.2582 9.68829 15.2355 9.65782 15.2204C9.70352 15.2506 9.74922 15.2809 9.79492 15.3187Z" fill="#0D003A"/>
<path d="M16.4362 23.6131C16.4514 23.5979 16.4742 23.5828 16.4895 23.5753C16.5199 23.5526 16.5428 23.5375 16.5732 23.5148C16.5199 23.545 16.4742 23.5753 16.4362 23.6131Z" fill="#0D003A"/>
<path d="M31.3635 26.7812C31.3863 26.7887 31.4168 26.7887 31.4396 26.7887H31.4473C31.4244 26.7887 31.394 26.7812 31.3635 26.7812Z" fill="#0D003A"/>
<path d="M3.78535 26.3427L3.79297 26.3502L3.78535 26.3427Z" fill="#0D003A"/>
<path d="M41.1583 32.3386C41.1736 32.331 41.1812 32.3159 41.1964 32.3083C41.2269 32.2856 41.2649 32.2629 41.2954 32.2327C41.2497 32.2705 41.204 32.3007 41.1583 32.3386Z" fill="#0D003A"/>
<path d="M65.5687 19.8477C65.0736 20.1653 64.5786 20.4828 64.0683 20.7777C63.5504 21.0726 63.0401 21.375 62.5222 21.6548C61.989 21.9421 61.4635 22.2445 60.9304 22.5394C60.6562 22.6906 60.382 22.8419 60.1002 22.9931C59.7955 23.1519 59.4909 23.288 59.1786 23.4241C58.8892 23.5526 58.6074 23.6811 58.3256 23.8248C57.9905 23.9987 57.6401 24.1272 57.2898 24.2558C56.9699 24.3768 56.6424 24.4826 56.3225 24.6036C56.0179 24.717 55.7208 24.838 55.4238 24.9363C55.1648 25.027 54.8983 25.1102 54.6469 25.2009C54.4108 25.2841 54.1747 25.3748 53.9386 25.458C53.9386 25.458 53.931 25.458 53.931 25.4655H53.9386C53.931 25.4655 53.9234 25.4655 53.9234 25.4731C53.9158 25.4731 53.9005 25.4807 53.8929 25.4882C53.9081 25.4807 53.9158 25.4807 53.931 25.4731C53.9158 25.4807 53.9081 25.4807 53.8929 25.4882C53.8929 25.4882 53.8929 25.4882 53.8853 25.4882C53.3141 25.6924 52.7352 25.9041 52.1564 26.078C52.0802 26.1007 52.0041 26.1158 51.9279 26.1385C51.4633 26.2973 50.9987 26.4712 50.5265 26.6073C50.1228 26.7282 49.6963 26.8038 49.285 26.9021C48.8281 27.008 48.3711 27.1138 47.9065 27.1819C47.7008 27.2121 47.4952 27.2499 47.2819 27.2726C47.0535 27.3029 46.825 27.318 46.5965 27.3407C46.1319 27.386 45.6749 27.4541 45.2103 27.4995C44.959 27.5221 44.7153 27.5448 44.4639 27.5524C44.403 27.7187 44.3421 27.8775 44.2735 28.0439C44.1745 28.2934 44.0603 28.5353 43.9384 28.7773C43.8394 28.9739 43.748 29.1705 43.6337 29.3595C43.4966 29.6014 43.3443 29.8358 43.1996 30.0702C43.0473 30.3122 42.8721 30.5541 42.6893 30.7809C42.537 30.97 42.3542 31.1439 42.1866 31.3178C42.0267 31.4917 41.8668 31.6656 41.7144 31.8395C41.5545 32.021 41.3793 32.1646 41.1965 32.3158C41.0214 32.4519 40.8462 32.588 40.6634 32.7166C40.473 32.8527 40.2902 32.9888 40.0922 33.1173C40.0541 33.14 40.0084 33.1627 39.9703 33.1854C39.9475 33.2005 39.9246 33.2232 39.9018 33.2383C39.8408 33.2761 39.7723 33.2988 39.7113 33.329C39.4295 33.4727 39.1401 33.6088 38.8659 33.76C38.5994 33.9037 38.3099 34.0095 38.0205 34.1154C37.792 34.1985 37.5559 34.2968 37.3198 34.3422C37.0761 34.3951 36.8324 34.4254 36.5887 34.4707C36.2764 34.5312 35.9717 34.5993 35.6595 34.6295C35.4005 34.6522 35.1339 34.6673 34.875 34.6976C34.7455 34.7127 34.616 34.7278 34.4866 34.7354C34.2657 34.7656 34.0448 34.8034 33.8239 34.8185C33.5726 34.8412 33.3213 34.8563 33.0699 34.8715C32.91 34.9017 32.7653 34.9471 32.6053 34.9773C32.4682 35.0076 32.3235 35.0302 32.1864 34.9849C32.0722 34.9546 31.9732 34.8941 31.8894 34.8185C31.8894 34.8185 31.8818 34.8185 31.8818 34.811C31.7599 34.7354 31.6838 34.6068 31.6685 34.4707C31.6685 34.4405 31.6838 34.4102 31.6914 34.3724C31.6838 34.1532 31.7828 33.949 31.9503 33.7978C32.1179 33.6541 32.2931 33.518 32.453 33.3668C32.6434 33.1854 32.811 32.9812 32.9709 32.7771C33.1232 32.5805 33.2756 32.3763 33.405 32.1571C33.5269 31.9529 33.6259 31.7412 33.7249 31.5219C33.7935 31.3556 33.8392 31.1892 33.8773 31.0153C33.8925 30.8566 33.9001 30.7053 33.9001 30.5466C33.9001 30.5012 33.9077 30.4634 33.9153 30.418C33.9077 30.2441 33.8849 30.0778 33.8544 29.9039C33.8392 29.8509 33.8239 29.798 33.8087 29.7451C33.7935 29.7073 33.7782 29.6695 33.763 29.6241C33.6868 29.4653 33.5955 29.3217 33.4964 29.1705C33.405 29.0268 33.3289 28.868 33.2603 28.7168C33.1613 28.5126 33.0852 28.3009 33.0014 28.0968C32.9328 27.9229 32.9024 27.7414 32.8795 27.5524C32.8719 27.507 32.8643 27.4617 32.8567 27.4163C32.8414 27.3785 32.8262 27.3407 32.8186 27.2953C32.7881 27.2046 32.7729 27.1138 32.7577 27.0231C32.75 26.9702 32.7424 26.9097 32.7424 26.8568C32.7196 26.8492 32.6967 26.8492 32.6739 26.8417C32.5901 26.8265 32.4987 26.8038 32.4149 26.7887C32.3235 26.8341 32.2245 26.8719 32.1179 26.8643C31.897 26.8492 31.6838 26.819 31.4629 26.7887C31.1887 26.7509 30.9221 26.6829 30.6479 26.6451C30.6936 26.6526 30.7317 26.6602 30.7774 26.6602C30.4042 26.6073 30.0463 26.5165 29.6731 26.4636C29.3075 26.4107 28.9495 26.2973 28.5915 26.199C28.2412 26.1007 27.8756 26.0477 27.5405 25.9116C27.1901 25.7755 26.855 25.6092 26.5199 25.458C26.2838 25.3673 26.0401 25.2916 25.7964 25.2085C25.4993 25.1102 25.2099 24.9816 24.9205 24.8607C24.4635 24.6565 24.0141 24.4297 23.5496 24.2331C23.123 24.0592 22.7041 23.8702 22.2929 23.6736C21.8968 23.4921 21.5236 23.2804 21.1428 23.0763C20.7848 22.8872 20.4269 22.6906 20.0613 22.5092C19.8785 22.4184 19.7033 22.3277 19.5205 22.2445C19.3454 22.1614 19.1778 22.0631 18.995 21.9875C18.9341 21.9648 18.8655 21.9421 18.797 21.927C18.7741 21.927 18.7513 21.927 18.7208 21.927C18.6903 21.9345 18.6675 21.9421 18.637 21.9497C18.538 21.995 18.4466 22.048 18.3552 22.116C18.241 22.1992 18.1115 22.2597 17.9973 22.3428C17.8602 22.4563 17.7231 22.5772 17.5936 22.7058C17.3956 22.8948 17.1671 23.0687 16.9462 23.235C16.8777 23.288 16.8091 23.3409 16.7482 23.3863C16.7939 23.356 16.8396 23.3182 16.8853 23.288C16.7634 23.3863 16.6339 23.4846 16.5121 23.5828C16.0475 23.9382 15.5524 24.2709 15.0345 24.5431C14.5395 24.8077 14.0368 25.0724 13.5493 25.3446C12.9934 25.6546 12.3917 25.9041 11.7824 26.0931C11.2111 26.267 10.6323 26.4031 10.0382 26.456C9.59649 26.5014 9.14712 26.5392 8.70538 26.5392C8.49974 26.5392 8.2941 26.5392 8.08084 26.5392C7.88282 26.5543 7.6848 26.577 7.47916 26.5846C7.2659 26.5921 7.05264 26.5921 6.83939 26.5846C6.60328 26.5846 6.37479 26.577 6.13869 26.5543C6.04729 26.5468 5.95589 26.5316 5.8645 26.5165C5.7731 26.5165 5.68171 26.5165 5.59031 26.5165C4.99624 26.4938 4.40978 26.4409 3.82333 26.3502C3.67862 26.3275 3.53391 26.3048 3.3892 26.2746C3.22926 26.2368 3.0617 26.1914 2.89414 26.1536C2.59711 26.0855 2.30007 26.0326 2.00304 25.957C1.75169 25.889 1.49274 25.8209 1.2414 25.7377C1.22617 25.7302 1.21094 25.7226 1.18809 25.7151C0.990067 25.6773 0.807274 25.6394 0.616867 25.5865C0.434074 25.5336 0.228439 25.4882 0.106575 25.3219C0.0151825 25.1858 -5.34058e-05 25.0119 0.0684891 24.8607C0.137039 24.7246 0.26651 24.6414 0.411224 24.5885C0.586395 24.528 0.761574 24.4902 0.936752 24.4297C1.12716 24.3616 1.31757 24.286 1.49274 24.2029C1.64507 24.1197 1.79739 24.0365 1.94972 23.9458C2.04111 23.8929 2.12489 23.8172 2.20106 23.7568C2.36861 23.6055 2.52094 23.4543 2.68089 23.288C2.71135 23.2577 2.74181 23.2199 2.77229 23.1821C2.89414 23.0309 3.00077 22.8721 3.1074 22.7209C3.35873 22.3126 3.56438 21.8892 3.77763 21.4582C3.8995 21.2162 4.0442 20.997 4.18891 20.7701C4.35647 20.5055 4.53165 20.2484 4.70682 19.9914C4.85152 19.7645 4.99624 19.5453 5.1638 19.3411C5.33897 19.1294 5.54461 18.9404 5.75025 18.7514L5.74263 18.7589C5.75025 18.7514 5.75787 18.7438 5.7731 18.7362C5.78833 18.7211 5.81118 18.706 5.82642 18.6833C5.8188 18.6909 5.81118 18.6984 5.80357 18.706C6.03205 18.5018 6.27578 18.3128 6.5195 18.1313C6.77084 17.9423 7.04502 17.7835 7.32683 17.6323C7.32683 17.6323 7.33445 17.6323 7.33445 17.6248C7.3573 17.6096 7.38014 17.6021 7.40299 17.587C7.88282 17.3374 8.37026 17.0955 8.87294 16.8838C9.06334 16.8006 9.25375 16.725 9.44416 16.6418C9.2766 16.536 9.12428 16.4226 8.97195 16.3016C8.92625 16.2713 8.88056 16.2335 8.83486 16.2033C8.88056 16.2335 8.92625 16.2713 8.97195 16.3016C8.81963 16.1882 8.66729 16.0823 8.51497 15.9613C8.36264 15.8404 8.2484 15.6816 8.13416 15.5304C8.03514 15.3867 7.95137 15.2279 7.85236 15.0843C7.76857 14.9557 7.68479 14.8272 7.5934 14.7062C7.48677 14.5777 7.38014 14.4491 7.28113 14.313C7.12881 14.1164 7.01456 13.9123 6.90032 13.693C6.72514 13.3603 6.55758 13.0277 6.39764 12.695C6.21485 12.3245 6.04729 11.9464 5.91781 11.5533C5.81118 11.2432 5.76548 10.9257 5.71979 10.6006C5.71217 10.5401 5.68933 10.4796 5.68171 10.4191C5.68171 10.4115 5.67409 10.3964 5.67409 10.3889C5.59031 10.1469 5.51415 9.91251 5.46083 9.66299C5.46083 9.65543 5.46083 9.64787 5.45322 9.64031C5.43798 9.5647 5.41514 9.48153 5.3999 9.40592C5.3999 9.41348 5.40752 9.4286 5.40752 9.43616C5.40752 9.42104 5.3999 9.41348 5.3999 9.39836C5.39229 9.37568 5.39229 9.34543 5.38467 9.32275C5.38467 9.33787 5.39229 9.35299 5.39229 9.36811C5.37705 9.30763 5.36182 9.23958 5.34659 9.17909C5.34659 9.19421 5.35421 9.20933 5.35421 9.22445C5.28566 8.92957 5.22473 8.64226 5.17141 8.34738C5.1181 8.09786 5.09525 7.84079 5.06479 7.58371C5.04955 7.41737 5.01147 7.25103 4.981 7.09225C4.94292 6.93346 4.92007 6.77468 4.89722 6.6159C4.84391 6.3059 4.79822 5.98833 4.72968 5.67833C4.70683 5.5876 4.68397 5.49687 4.66113 5.40614C4.66113 5.39857 4.66113 5.39857 4.66113 5.39101C4.66113 5.38345 4.66113 5.38345 4.66113 5.37589C4.64589 5.30028 4.63066 5.23223 4.61543 5.15662C4.62304 5.19443 4.63066 5.23223 4.63828 5.27004C4.60019 5.10369 4.53926 4.93735 4.47071 4.77101C4.38693 4.6954 4.31078 4.61223 4.22699 4.53662C4.08228 4.40808 3.96043 4.20393 3.92995 3.99978C3.77001 3.88637 3.70908 3.64442 3.79286 3.47051C3.83856 3.37222 3.92995 3.28905 4.03658 3.25124C4.08228 3.23612 4.12798 3.22856 4.1813 3.22856C4.18891 3.22856 4.20415 3.23612 4.21176 3.23612C4.28793 3.17563 4.3717 3.1227 4.47071 3.07734C4.44025 3.09246 4.40978 3.10758 4.37932 3.11514C4.40978 3.10002 4.44025 3.0849 4.47833 3.07734C4.50118 3.06978 4.51642 3.06222 4.53926 3.05466C4.52403 3.06222 4.50118 3.06978 4.48595 3.07734C4.63828 3.01685 4.78298 2.97148 4.94292 2.97148C4.96577 2.97148 4.98101 2.97148 5.00386 2.97148C5.15619 2.97905 5.30089 3.02441 5.45322 3.04709C5.9102 3.10758 6.35194 3.23612 6.80892 3.31929C7.2659 3.41002 7.73811 3.53856 8.21793 3.65198C8.72823 3.77295 9.25375 3.85612 9.74881 4.02247C9.98492 4.09808 10.2134 4.18881 10.4571 4.2493C10.6704 4.30223 10.876 4.36271 11.0893 4.41564C11.2035 4.44588 11.3178 4.47613 11.4244 4.50637C11.5996 4.54418 11.7824 4.58198 11.9575 4.63491C12.445 4.78613 12.9172 4.98272 13.3742 5.20199C13.854 5.43638 14.3262 5.69345 14.806 5.93541C15.0269 6.04126 15.2478 6.14712 15.4687 6.25297C15.5753 6.3059 15.6895 6.36639 15.7885 6.42687C15.9028 6.50248 16.0018 6.58566 16.1084 6.66127C16.1694 6.71419 16.2303 6.75956 16.2912 6.80493C16.6796 7.09981 17.0833 7.372 17.4489 7.70469C17.7688 7.99957 18.0887 8.30201 18.4009 8.60445C18.5761 8.77079 18.7437 8.93714 18.9112 9.11104C19.094 9.30007 19.2997 9.46641 19.4824 9.65543C19.8099 9.99568 20.0232 10.4115 20.2898 10.7971C20.3507 10.7669 20.404 10.7367 20.4649 10.6989C20.503 10.6308 20.5563 10.5703 20.6325 10.5401C20.7544 10.4796 20.8838 10.4342 21.0133 10.3813C21.0362 10.3737 21.059 10.3586 21.0819 10.351C21.0895 10.3435 21.0971 10.3435 21.1047 10.3359C21.1123 10.3359 21.12 10.3284 21.1276 10.3284C21.1352 10.3208 21.1504 10.3132 21.158 10.3132C21.2418 10.2603 21.3332 10.2074 21.4246 10.162C21.5693 10.0789 21.7064 9.98812 21.8587 9.91251C22.0034 9.8369 22.1634 9.77641 22.3157 9.71592C22.4452 9.66299 22.5823 9.61763 22.7118 9.5647C22.7651 9.54202 22.826 9.51177 22.8793 9.48909C23.1002 9.35299 23.3134 9.20933 23.5343 9.06567C23.8161 8.87665 24.1132 8.73299 24.4102 8.58177C24.5701 8.4986 24.7225 8.41543 24.8748 8.33225C25.0652 8.2264 25.2708 8.14323 25.4689 8.06006C25.705 7.9542 25.9487 7.84835 26.2 7.78786C26.2 7.77274 26.1924 7.75762 26.1924 7.74249C26.1696 7.62152 26.1162 7.51566 26.0782 7.40225C26.0172 7.22834 26.0096 7.03932 25.9868 6.85785C25.9487 6.54785 25.9715 6.22273 25.9563 5.91272C25.9411 5.74638 25.9106 5.58004 25.9106 5.40614C25.903 5.23223 25.8954 5.05833 25.8725 4.89199C25.8725 4.91467 25.8801 4.94491 25.8801 4.9676C25.8573 4.77101 25.8421 4.56686 25.8192 4.37027C25.804 4.26442 25.7887 4.15857 25.7811 4.05271C25.7811 3.96954 25.7735 3.87881 25.7659 3.79564C25.743 3.68222 25.7126 3.56124 25.6897 3.44783C25.6593 3.31173 25.644 3.16807 25.606 3.03197C25.5679 2.95636 25.5222 2.88075 25.4917 2.79758C25.4308 2.66148 25.3851 2.52538 25.3394 2.38172C25.2937 2.29855 25.248 2.2305 25.1947 2.15489C25.1261 2.0566 25.0728 1.95075 25.0119 1.84489C24.9129 1.67099 24.7986 1.49708 24.7225 1.31562C24.6692 1.2022 24.6311 1.09635 24.593 0.982934C24.5854 0.95269 24.5778 0.930007 24.5701 0.899762C24.5549 0.846835 24.5473 0.786347 24.5473 0.725859C24.5168 0.620004 24.5168 0.506589 24.5701 0.415857C24.6006 0.362929 24.6463 0.332685 24.6844 0.29488C24.7072 0.264636 24.7225 0.234392 24.7377 0.211709C24.8291 0.0604882 25.0347 0 25.2251 0C25.2556 0 25.2785 0 25.3089 0.00756103C25.446 0.0226831 25.5831 0.0378051 25.7202 0.0604882C25.9258 0.0982934 26.1391 0.14366 26.3447 0.173904C26.558 0.211709 26.7712 0.272197 26.9845 0.317563C27.1978 0.362929 27.411 0.423418 27.6243 0.476345C27.8375 0.536833 28.0432 0.612443 28.2564 0.688054C28.4849 0.763664 28.7134 0.846835 28.9343 0.937568C28.919 0.930007 28.9114 0.930007 28.8962 0.922446C29.0104 0.967812 29.1323 1.02074 29.2465 1.06611C29.1932 1.04342 29.1399 1.02074 29.0866 0.998056C29.2161 1.05098 29.3379 1.10391 29.4674 1.14928C29.5207 1.17196 29.5664 1.18708 29.6197 1.20976C29.5969 1.2022 29.5817 1.19464 29.5588 1.18708C29.6807 1.24001 29.7949 1.28537 29.9092 1.3383C29.8939 1.33074 29.8863 1.33074 29.8711 1.32318C30.0767 1.41391 30.29 1.49708 30.488 1.60294C30.6708 1.70123 30.8612 1.80709 31.0516 1.89782C31.2344 1.98855 31.4248 2.07172 31.6076 2.16245C31.8132 2.26075 32.0036 2.38929 32.2017 2.49514C32.6282 2.72953 33.0699 2.94124 33.5117 3.15295C33.7173 3.25124 33.9382 3.34954 34.1438 3.44783C34.3114 3.531 34.4789 3.62173 34.6465 3.69734C35.0197 3.85612 35.3853 4.04515 35.7585 4.21149C35.8956 4.26442 36.0327 4.31735 36.1774 4.36271C36.3602 4.4232 36.543 4.49881 36.7181 4.58198C36.9162 4.67272 37.1066 4.77101 37.3046 4.85418C37.4417 4.92979 37.5788 4.97516 37.7235 5.01296C37.8377 5.0054 37.9596 5.0054 38.0738 4.99028C38.0738 4.99028 38.0738 4.99028 38.0815 4.99028H38.0738C38.2262 4.97516 38.3709 4.96003 38.5232 4.96003C38.6603 4.95247 38.7898 4.94491 38.9269 4.92979C39.1173 4.89955 39.3077 4.86174 39.4981 4.83906C39.6276 4.80125 39.7723 4.79369 39.9094 4.79369C40.0084 4.79369 40.0998 4.80125 40.1912 4.80125C40.4273 4.80881 40.6558 4.83906 40.8919 4.8693C41.3945 4.92979 41.9048 4.90711 42.4075 4.93735C42.6817 4.95247 42.9559 4.9676 43.2301 4.9676C43.4814 4.9676 43.7404 4.9676 43.9917 4.9676C44.5553 4.9676 45.1189 4.96003 45.6749 5.01296C46.3528 5.07345 47.0458 5.1415 47.7161 5.29272C48.3406 5.42882 48.9347 5.64809 49.544 5.82199C50.1609 6.00346 50.7854 6.15468 51.4024 6.32858C51.9888 6.50248 52.5753 6.66127 53.1617 6.83517C53.771 7.01663 54.3803 7.19054 54.9897 7.36444C55.4314 7.49298 55.8808 7.61396 56.3073 7.78786C56.749 7.96176 57.1831 8.17347 57.6173 8.3625C57.8991 8.47591 58.1885 8.58933 58.4703 8.71787C58.7597 8.8464 59.0339 8.99006 59.3081 9.14884C59.8412 9.45129 60.3896 9.73104 60.9075 10.0486C61.1665 10.2074 61.4178 10.3813 61.6615 10.5552C61.9129 10.7442 62.1794 10.9181 62.4384 11.1072C62.9639 11.5003 63.4514 11.9313 63.9464 12.3623C64.3653 12.7328 64.7842 13.0957 65.1955 13.4662C65.5687 13.7989 65.9724 14.1089 66.3379 14.4491C66.4827 14.5852 66.635 14.7138 66.7797 14.8499C66.8254 14.8877 66.8711 14.9179 66.9168 14.9482C67.0843 15.0767 67.2367 15.2279 67.389 15.364C67.4347 15.4018 67.488 15.4472 67.5337 15.485C67.7241 15.6589 67.9297 15.8177 68.1278 15.984C68.3258 16.1504 68.501 16.3469 68.6838 16.536C68.7371 16.5662 68.7904 16.5889 68.8361 16.6343C68.897 16.6948 68.9427 16.7779 68.9808 16.8611C69.0265 16.914 69.0646 16.9669 69.0798 17.0501C69.1027 17.1635 69.0798 17.2845 69.0113 17.3828C68.9732 17.4357 68.9275 17.4735 68.8742 17.5038C68.8589 17.5189 68.8513 17.5416 68.8361 17.5567C68.6457 17.7231 68.4553 17.8894 68.2572 18.0482C68.2572 18.0482 68.2572 18.0482 68.2649 18.0406C68.2572 18.0482 68.2496 18.0557 68.2344 18.0633C68.2268 18.0709 68.2268 18.0709 68.2192 18.0784C68.0211 18.2372 67.8231 18.3809 67.6022 18.5094C67.389 18.6455 67.1681 18.7589 66.9549 18.895C66.4903 19.2201 66.0409 19.5453 65.5687 19.8477ZM55.1039 8.76323C54.784 8.66494 54.4565 8.57421 54.1366 8.47591C53.5349 8.30201 52.9332 8.13567 52.3392 7.9542C52.0574 7.87103 51.768 7.79542 51.4785 7.71981C51.1739 7.63664 50.8692 7.54591 50.5646 7.46274C49.9553 7.30395 49.3384 7.15273 48.7367 6.94859C48.333 6.80493 47.9217 6.67639 47.4952 6.57809C47.1296 6.49492 46.7564 6.43443 46.3832 6.38151C45.8806 6.32102 45.3703 6.28321 44.86 6.26809C44.6619 6.26809 44.4639 6.26809 44.2659 6.26809C44.1821 6.3059 44.0831 6.33614 43.9841 6.3437C43.7023 6.35883 43.4281 6.37395 43.1463 6.40419C42.8797 6.43444 42.6132 6.41931 42.3466 6.442C41.8439 6.48736 41.3336 6.52517 40.8309 6.49492C40.6025 6.4798 40.3816 6.44956 40.1531 6.46468C39.917 6.4798 39.6885 6.48736 39.4524 6.49492C39.2087 6.49492 38.9726 6.49492 38.7288 6.49492C38.4623 6.49492 38.1805 6.44956 37.9215 6.38907C37.8834 6.38151 37.8377 6.36639 37.7997 6.35882C37.6778 6.37395 37.5635 6.38907 37.4493 6.41175C37.3731 6.39663 37.297 6.37395 37.2208 6.35126C37.0228 6.38151 36.8172 6.33614 36.6572 6.17736C36.642 6.16224 36.6344 6.13956 36.6267 6.12443C36.5963 6.10931 36.5658 6.10175 36.543 6.07907C36.444 6.01858 36.3373 5.95809 36.2383 5.89004C36.1698 5.83711 36.0936 5.78419 36.0251 5.73126L36.0174 5.7237C35.987 5.70102 35.9565 5.69345 35.926 5.67077C35.6442 5.56492 35.3624 5.46662 35.0882 5.35321C34.7684 5.21711 34.4637 5.04321 34.1438 4.90711C33.9534 4.82394 33.763 4.74076 33.5802 4.64247C33.3746 4.53662 33.1613 4.44588 32.9557 4.34759C32.7348 4.24174 32.5139 4.14344 32.3007 4.03003C32.0798 3.91661 31.8666 3.81076 31.6457 3.69734C31.4477 3.59149 31.2572 3.47807 31.0592 3.36466C30.8764 3.2588 30.6784 3.16807 30.488 3.07734C30.3052 2.98661 30.1224 2.89587 29.9472 2.80514C29.833 2.76734 29.7188 2.72197 29.6045 2.6766C29.3836 2.59343 29.1552 2.5027 28.9267 2.41953C28.919 2.41953 28.9038 2.41197 28.8962 2.41197C28.6677 2.33636 28.4392 2.27587 28.2107 2.22294C27.9442 2.15489 27.6852 2.07172 27.4186 1.98099C27.0987 1.87514 26.7636 1.79196 26.4361 1.69367C26.4361 1.70123 26.4437 1.70123 26.4437 1.70879C26.5351 1.82977 26.6265 1.95831 26.7103 2.08684C26.9236 2.41197 27.1216 2.75978 27.2739 3.11514C27.3425 3.28149 27.411 3.45539 27.4567 3.63685C27.51 3.83344 27.5405 4.03759 27.5633 4.24174C27.5786 4.4232 27.6014 4.59711 27.5938 4.77857C27.5862 5.01296 27.5557 5.24735 27.5253 5.47418C27.5024 5.65565 27.4719 5.84468 27.4339 6.02614C27.411 6.16224 27.3729 6.29834 27.3577 6.442C27.3501 6.60078 27.3425 6.752 27.3272 6.91078C27.3272 6.87298 27.3349 6.83517 27.3349 6.7898C27.3272 6.86541 27.3272 6.94859 27.3272 7.03176C27.3653 7.14517 27.411 7.25859 27.4415 7.37956C27.4719 7.53835 27.51 7.69713 27.5633 7.84835C27.5633 7.84835 27.5633 7.84835 27.571 7.84835C27.5786 7.87103 27.5862 7.89371 27.5862 7.90884C27.5938 7.9164 27.6014 7.93152 27.609 7.93908C27.6776 8.04493 27.6928 8.18103 27.6852 8.30957C27.7004 8.43055 27.7157 8.55152 27.7309 8.6725C27.7309 8.68006 27.7309 8.68762 27.7309 8.69518C27.7309 8.69518 27.7309 8.69518 27.7309 8.70274C27.6319 8.73299 27.5253 8.76323 27.4262 8.79348C27.4034 8.81616 27.3806 8.8464 27.3501 8.85396C27.1825 8.92957 27.1597 8.92957 26.9769 8.95226C26.9388 8.95982 26.9007 8.95982 26.855 8.95982C26.7941 8.9825 26.7255 8.99762 26.6646 9.02031C26.6265 9.03543 26.5961 9.05055 26.558 9.05811C26.5504 9.05811 26.5504 9.05811 26.5428 9.06567C26.5351 9.06567 26.5275 9.07323 26.5199 9.07323C26.5123 9.07323 26.5123 9.07323 26.5047 9.0808C26.4971 9.0808 26.4894 9.0808 26.4894 9.08836C26.1315 9.21689 25.7887 9.35299 25.4384 9.49665C25.3775 9.51934 25.3165 9.54202 25.2556 9.5647C25.1337 9.63275 25.0119 9.69324 24.8824 9.75373C24.5549 9.90495 24.2426 10.094 23.9532 10.3057C23.7857 10.4267 23.6181 10.5401 23.4429 10.6384C23.2601 10.7442 23.0697 10.8198 22.8869 10.9106C22.7422 10.9786 22.5975 11.0542 22.4528 11.1298C22.2776 11.2206 22.0948 11.2886 21.9044 11.3567C21.6607 11.4625 21.4322 11.6137 21.2113 11.7498C21.1276 11.8028 21.0438 11.8406 20.96 11.8935C20.9143 11.9237 20.8686 11.954 20.8229 11.9767C20.7544 12.0145 20.6858 12.0296 20.6173 12.0523C20.602 12.0598 20.5868 12.0674 20.5716 12.0674C20.564 12.0674 20.564 12.075 20.5563 12.075C20.5259 12.0976 20.503 12.1203 20.4573 12.1506C20.305 12.2413 20.0918 12.2791 19.9242 12.2186C19.8785 12.2035 19.848 12.1884 19.8099 12.1657C19.749 12.1657 19.6881 12.1506 19.6348 12.1279C19.5205 12.075 19.4672 11.9918 19.4139 11.8859C19.3758 11.8028 19.3301 11.7196 19.292 11.644C19.2844 11.6289 19.2768 11.6137 19.2692 11.5986C19.1854 11.4928 19.1016 11.3945 19.0331 11.2811C18.9265 11.1072 18.8198 10.9332 18.7056 10.7669C18.6751 10.7291 18.6447 10.6837 18.6066 10.6459C18.4238 10.4493 18.2258 10.2754 18.0353 10.0864C17.9135 9.973 17.8069 9.85202 17.6926 9.73104C17.5784 9.61763 17.4717 9.51177 17.3499 9.40592C16.9234 9.01275 16.5121 8.59689 16.0627 8.23396C15.819 8.0525 15.5677 7.87859 15.3239 7.68957C15.3696 7.71981 15.4077 7.75762 15.4534 7.78786C15.3696 7.72737 15.2935 7.66688 15.2097 7.6064C15.0041 7.45517 14.7603 7.34176 14.5318 7.22834C14.2805 7.10737 14.0292 6.99395 13.7855 6.86541C13.4656 6.70663 13.1457 6.53273 12.8258 6.37395C12.7268 6.36639 12.6278 6.3437 12.5364 6.29834C12.4602 6.27565 12.3917 6.25297 12.3155 6.22273C12.2165 6.18492 12.1251 6.14712 12.0337 6.10931C11.9423 6.07151 11.8509 6.0337 11.7595 5.9959C11.6377 5.94297 11.5158 5.89004 11.3939 5.83711C11.2111 5.76906 11.0284 5.71614 10.8456 5.66321C10.6399 5.61784 10.4267 5.58004 10.2134 5.5498C10.1068 5.53467 10.0002 5.51955 9.89352 5.50443C9.73358 5.48175 9.56602 5.46662 9.40608 5.44394C9.28422 5.42882 9.15474 5.40614 9.03288 5.39101C8.87294 5.36833 8.70538 5.35321 8.54544 5.33053C8.56828 5.33053 8.58352 5.33809 8.60637 5.33809C8.43119 5.3154 8.25602 5.30028 8.08084 5.29272C7.89043 5.28516 7.70002 5.26248 7.50962 5.24735C7.33444 5.23223 7.15165 5.23223 6.97648 5.20955C6.8013 5.18687 6.62613 5.14906 6.44334 5.12638C6.32909 5.11126 6.22247 5.09613 6.11584 5.06589C6.12346 5.08101 6.13869 5.10369 6.14631 5.11882C6.23008 5.27004 6.29101 5.43638 6.35194 5.60272C6.40525 5.74638 6.45095 5.89004 6.49665 6.04126C6.54235 6.20004 6.5652 6.36639 6.58043 6.53273C6.61852 6.78224 6.69468 7.0242 6.71753 7.28127C6.74038 7.51566 6.73276 7.75005 6.73276 7.98445C6.73276 8.45323 6.72514 8.92201 6.77084 9.38324C6.80131 9.57226 6.85462 9.76129 6.90032 9.94275C6.94601 10.1318 6.97648 10.3284 6.99933 10.525C7.06026 10.8879 7.1745 11.2432 7.3116 11.5835C7.44869 11.8859 7.5934 12.1808 7.74573 12.4833C7.82951 12.6572 7.9209 12.8311 8.01229 13.005C8.08846 13.1562 8.16462 13.2998 8.25602 13.4359C8.28648 13.4813 8.31695 13.5267 8.35503 13.5645C8.52259 13.7762 8.69776 13.9879 8.85009 14.2072C8.98718 14.4113 9.10904 14.6306 9.25375 14.8347C9.30706 14.8952 9.368 14.9482 9.42893 15.0086C9.52794 15.0843 9.63457 15.1599 9.73358 15.2279C9.80213 15.2808 9.86306 15.3262 9.9316 15.3791C10.122 15.5152 10.3353 15.6135 10.5409 15.7269C10.6932 15.8101 10.8303 15.9084 10.9598 16.0218C11.0512 16.0974 11.1274 16.1957 11.2035 16.3016C11.2645 16.3469 11.3025 16.4074 11.333 16.4679C11.3559 16.4906 11.3939 16.5057 11.4092 16.5208C11.531 16.6418 11.5996 16.8082 11.5996 16.9821C11.5996 17.156 11.531 17.3223 11.4092 17.4433C11.2721 17.5794 11.1274 17.6096 10.9446 17.6323C10.8913 17.6399 10.8379 17.6474 10.7846 17.655C10.5866 17.6852 10.381 17.7155 10.1829 17.7609C10.023 17.7987 9.87067 17.8516 9.71835 17.9121C9.38323 18.0557 9.05573 18.207 8.74346 18.3884C8.42358 18.5774 8.11131 18.7816 7.81427 19.0009C7.61625 19.1596 7.43346 19.3335 7.25067 19.515C7.05264 19.7116 6.86985 19.9157 6.67183 20.1048C6.45095 20.324 6.24531 20.5736 6.01682 20.7853C5.79595 20.9894 5.59031 21.2087 5.3999 21.4355C5.15618 21.7758 5.01147 22.1765 4.81345 22.547C4.56211 23.0309 4.21938 23.4468 3.8538 23.8475C3.57199 24.1499 3.29781 24.4675 2.98553 24.7246C2.96269 24.7397 2.94746 24.7548 2.92461 24.7775C3.29019 24.8607 3.65577 24.9665 4.02897 25.0194C3.99088 25.0119 3.9528 25.0119 3.90711 25.0043C4.03658 25.0194 4.16607 25.0421 4.29554 25.0572C4.54688 25.0875 4.80583 25.0951 5.05717 25.1177C5.32374 25.1404 5.59793 25.148 5.8645 25.1555C6.37479 25.1631 6.8927 25.1631 7.40299 25.1631C7.90567 25.1631 8.40834 25.1631 8.91102 25.1631C9.13189 25.1631 9.35277 25.1329 9.57364 25.1177C9.73358 25.1102 9.90114 25.0951 10.0611 25.0724C10.4114 25.027 10.7618 24.9287 11.0969 24.838C11.432 24.7472 11.7671 24.6414 12.087 24.5053C12.3993 24.3692 12.6963 24.218 12.9934 24.0516C13.298 23.8853 13.6179 23.7265 13.9226 23.5602C14.5395 23.2275 15.1488 22.8721 15.7124 22.4487C15.819 22.3655 15.9256 22.2824 16.0323 22.1992L16.0246 22.2067L16.0323 22.1992C16.0703 22.1689 16.1008 22.1463 16.1389 22.1236L16.1465 22.116C16.3141 21.9875 16.4816 21.8589 16.6263 21.7153C16.7634 21.5867 16.8929 21.4582 17.0452 21.3448C17.1976 21.2238 17.3499 21.1104 17.5174 21.0121C17.6241 20.9516 17.7231 20.8609 17.8373 20.808C17.9897 20.7399 18.1267 20.6492 18.2943 20.6114C18.3095 20.6038 18.3248 20.6114 18.34 20.6038C18.4238 20.566 18.5076 20.5584 18.599 20.566C18.7589 20.5584 18.9112 20.5584 19.0712 20.5887C19.1702 20.6038 19.2692 20.6492 19.3606 20.687C19.5281 20.755 19.6881 20.8231 19.848 20.9062C20.0765 21.0197 20.2974 21.1406 20.5259 21.2465C20.7924 21.375 21.0514 21.5036 21.3104 21.6472C21.5769 21.7984 21.8587 21.9345 22.1253 22.0858C22.6584 22.3882 23.2297 22.6453 23.7933 22.8872C24.4102 23.1367 24.9966 23.4392 25.606 23.7038C25.8497 23.8021 26.0934 23.8853 26.3447 23.976C26.4437 23.9533 26.5504 23.9458 26.6494 23.9836C26.8931 24.0592 27.0988 24.2104 27.3272 24.3238C27.5329 24.3994 27.7461 24.4524 27.9594 24.528C28.1803 24.6111 28.4088 24.6716 28.6449 24.717C28.82 24.7397 28.9952 24.7548 29.1704 24.8002C29.3075 24.838 29.4446 24.8682 29.5817 24.8909C29.7416 24.906 29.9016 24.9212 30.0615 24.9514C30.1757 24.9741 30.2824 24.9892 30.3966 25.0119C30.5642 25.0346 30.7317 25.0497 30.8917 25.0799C31.0059 25.1026 31.1202 25.1253 31.242 25.148C31.5695 25.1782 31.9046 25.1631 32.2321 25.1707C32.613 25.1782 33.0318 25.1933 33.3517 25.4202C33.5269 25.5412 33.6868 25.6999 33.7782 25.889C33.862 26.0477 33.9153 26.2141 33.9534 26.388C34.0372 26.7434 34.0981 27.0912 34.1438 27.4541C34.1362 27.3936 34.1286 27.3407 34.121 27.2802C34.1591 27.507 34.2352 27.7187 34.3266 27.9304C34.4028 28.1043 34.4942 28.2858 34.5932 28.4522C34.6541 28.5504 34.7227 28.6487 34.776 28.7546C34.8598 28.8983 34.9131 29.057 34.9816 29.2083C35.0197 29.3065 35.0654 29.4124 35.1035 29.5107C35.1644 29.6695 35.1873 29.8056 35.2101 29.9795C35.2177 30.0853 35.2101 30.1912 35.1949 30.297C35.1796 30.418 35.1796 30.539 35.172 30.6675C35.1644 30.9624 35.1339 31.2573 35.0502 31.5371C34.9664 31.8244 34.8369 32.0966 34.7074 32.3612C34.5856 32.6258 34.4409 32.8754 34.2657 33.1097C34.1971 33.208 34.121 33.2988 34.0524 33.3971C34.2428 33.3895 34.4332 33.3819 34.6237 33.3517C34.6008 33.3517 34.5856 33.3593 34.5627 33.3593C34.7607 33.3366 34.9588 33.3139 35.1568 33.2912C35.332 33.2685 35.5148 33.2685 35.6899 33.2534C36.0708 33.1929 36.4516 33.0946 36.8324 33.0417C37.0228 33.0115 37.1903 32.951 37.3731 32.8905C37.5559 32.8224 37.7311 32.7619 37.9139 32.6939C38.1119 32.6032 38.2947 32.4973 38.4851 32.4066C38.6908 32.3083 38.8964 32.21 39.0944 32.1041C39.3077 31.9907 39.5133 31.8546 39.7037 31.711C39.8789 31.5824 40.0617 31.469 40.2293 31.3405C40.2673 31.3102 40.3054 31.28 40.3511 31.2497C40.3435 31.2497 40.3435 31.2573 40.3359 31.2573C40.5872 31.0607 40.7852 30.8188 40.9909 30.5844C41.2194 30.3348 41.4631 30.0929 41.684 29.8358C41.9505 29.4729 42.179 29.0873 42.4228 28.7017C42.5294 28.5278 42.6208 28.3387 42.7122 28.1573C42.7883 28.0061 42.8645 27.8548 42.9407 27.7036C43.0168 27.507 43.0854 27.3104 43.1691 27.1138C43.2225 26.9778 43.2758 26.8265 43.3596 26.7056C43.4738 26.5316 43.588 26.4258 43.7556 26.3124C44.1212 26.0553 44.5629 26.078 44.9894 26.0326C45.1494 26.0099 45.3169 25.9797 45.4769 25.9494C45.6901 25.9116 45.9034 25.889 46.1167 25.8663C46.3223 25.836 46.5203 25.8134 46.726 25.7831C46.8859 25.7604 47.0535 25.7529 47.2134 25.7377C47.3886 25.7151 47.5638 25.6848 47.7465 25.6621C47.9217 25.6394 48.0969 25.6394 48.2721 25.6168C48.7824 25.5336 49.285 25.3824 49.7953 25.269C50.0771 25.2009 50.3589 25.1177 50.6407 25.0497C50.9302 24.9741 51.2196 24.9136 51.5014 24.838C52.0878 24.6792 52.6514 24.4524 53.2303 24.2633C53.7634 24.0819 54.2813 23.8777 54.8145 23.7038C55.2334 23.5677 55.6447 23.4089 56.0483 23.2502C56.4977 23.0838 56.9547 22.9326 57.3964 22.7587C57.6401 22.6453 57.8838 22.5167 58.1276 22.4033C58.4322 22.2597 58.7369 22.1311 59.0339 21.9875C59.6127 21.7153 60.1611 21.3902 60.7171 21.0726C61.2198 20.7853 61.7301 20.5206 62.2328 20.2333C62.7659 19.9309 63.3143 19.6284 63.8398 19.3109C64.1521 19.1218 64.4491 18.9177 64.7538 18.7287C65.0889 18.5245 65.4088 18.2977 65.7363 18.0709C66.2542 17.7079 66.8254 17.4282 67.3357 17.0501C67.3357 17.0501 67.3357 17.0501 67.3433 17.0426C67.2671 16.9669 67.191 16.8913 67.1072 16.8233C66.8863 16.6418 66.6731 16.4604 66.4598 16.2713C66.2465 16.0823 66.0181 15.9084 65.8048 15.7194C65.5687 15.5152 65.3478 15.296 65.1193 15.0994C64.7004 14.7364 64.2663 14.3886 63.855 14.0106C63.4057 13.6023 62.9487 13.2091 62.4917 12.8084C62.3622 12.695 62.2251 12.5816 62.088 12.4757C61.7377 12.2791 61.4026 12.0598 61.0598 11.8481C60.8771 11.7272 60.6943 11.5986 60.5039 11.4928C60.3058 11.3793 60.1002 11.2735 59.8945 11.1676C59.6813 11.0618 59.4757 10.9484 59.2624 10.835C59.0491 10.7215 58.8359 10.6157 58.6302 10.4871C58.4398 10.3737 58.2418 10.2603 58.0438 10.1545C57.8458 10.0486 57.6554 9.95031 57.4649 9.84446C57.1451 9.67056 56.8176 9.49665 56.4901 9.33031L56.4824 9.32275H56.4748H56.4672C56.4444 9.31519 56.4291 9.30007 56.4063 9.2925H56.3987C56.193 9.18665 55.9874 9.09592 55.7817 9.00519C55.637 8.93714 55.4847 8.86909 55.34 8.80104C55.2867 8.82372 55.1953 8.79348 55.1039 8.76323ZM15.7352 22.5167C15.6971 22.547 15.6514 22.5772 15.6134 22.6075C15.6438 22.5848 15.6743 22.5621 15.7048 22.5319C15.72 22.5243 15.7276 22.5167 15.7352 22.5167Z" fill="#0D003A"/>
<path d="M22.3842 17.0199C22.407 17.035 22.4299 17.0577 22.4527 17.0729C22.4604 17.0804 22.468 17.088 22.4756 17.088C22.4451 17.0653 22.4147 17.0426 22.3842 17.0199Z" fill="#0D003A"/>
<path d="M34.8066 9.67816C34.7609 9.68572 34.7152 9.69328 34.6772 9.70084C34.6619 9.70084 34.6467 9.70084 34.6315 9.70841C34.6924 9.70084 34.7533 9.69328 34.8066 9.67816Z" fill="#0D003A"/>
<path d="M56.0103 13.2166C56.3606 13.3452 56.7186 13.4661 57.069 13.5871C57.4879 13.7308 57.8763 13.9425 58.2723 14.1542C58.4475 14.2449 58.6151 14.3357 58.7902 14.4264C59.1101 14.5701 59.43 14.7213 59.7575 14.8649C59.7194 14.8498 59.689 14.8347 59.6509 14.8196C60.1993 15.054 60.7095 15.3715 61.2351 15.6513C61.593 15.8403 61.9358 16.0369 62.2633 16.2789C62.2404 16.2637 62.2176 16.2486 62.2023 16.2259C62.248 16.2562 62.2937 16.294 62.3394 16.3242C62.3623 16.3393 62.3927 16.3545 62.4156 16.3696C62.4689 16.3998 62.507 16.4301 62.5527 16.4679C62.5984 16.4981 62.6517 16.5284 62.6974 16.5586C62.8421 16.6645 62.9487 16.7703 63.0021 16.9518C63.0478 17.1181 63.0249 17.3072 62.9335 17.4508C62.903 17.4962 62.8726 17.5415 62.8345 17.5793C62.7812 17.6701 62.705 17.7381 62.606 17.7911C61.9129 18.1162 61.2275 18.4564 60.542 18.8118C60.2145 18.9781 59.887 19.1445 59.5443 19.2881C59.3386 19.3713 59.133 19.4545 58.9273 19.5301C58.9121 19.5377 58.8969 19.5452 58.874 19.5528C58.7598 19.6057 58.6379 19.6435 58.5237 19.6889C58.2799 19.7947 58.0438 19.9081 57.8154 20.0216C57.4879 20.1803 57.1527 20.324 56.8176 20.4525C56.2616 20.6718 55.7056 20.8835 55.142 21.0952C54.6698 21.2767 54.1824 21.375 53.7102 21.5413C53.4741 21.6245 53.2456 21.7228 53.0018 21.7984C52.7734 21.874 52.5373 21.9345 52.3088 22.0026C51.768 22.1538 51.2196 22.2974 50.6713 22.426C50.4047 22.494 50.1305 22.5696 49.8563 22.6301C49.5669 22.6906 49.2775 22.7511 48.9881 22.804C48.6758 22.8569 48.3559 22.9099 48.036 22.9628C47.7161 23.0157 47.3963 23.0989 47.084 23.1594C46.8936 23.1972 46.6956 23.2123 46.5051 23.235C46.3528 23.2501 46.1929 23.2728 46.0329 23.2879C45.7511 23.3106 45.4693 23.3257 45.1875 23.3106C44.9286 23.303 44.6696 23.2728 44.4107 23.2804C44.1669 23.2879 43.9232 23.3257 43.6871 23.3484C43.4662 23.3711 43.2454 23.3711 43.0245 23.3787C42.7732 23.3862 42.5218 23.4165 42.2705 23.4316C41.7754 23.4467 41.2804 23.4467 40.7929 23.4467C40.2293 23.4467 39.6657 23.3787 39.1097 23.303C39.1706 23.3106 39.224 23.3182 39.2849 23.3257C39.0869 23.303 38.8965 23.2879 38.6984 23.2804C38.508 23.2728 38.3252 23.2501 38.1348 23.235C37.9444 23.2199 37.754 23.1896 37.5636 23.1745C37.3656 23.1594 37.1676 23.1518 36.9695 23.1291C36.7867 23.1065 36.604 23.1065 36.4288 23.0913C36.1851 23.0687 35.9413 23.046 35.7052 23.0082C35.3701 22.9552 35.0655 22.804 34.7303 22.7511C34.5475 22.7284 34.3648 22.6982 34.182 22.6452C33.9763 22.5923 33.7783 22.5469 33.5727 22.5016C33.1233 22.4033 32.6739 22.2823 32.2322 22.1613C32.0113 22.1008 31.7904 22.0479 31.5772 21.9723C31.3563 21.8967 31.1431 21.7984 30.9222 21.7228C30.7165 21.6547 30.4957 21.6245 30.2824 21.5716C30.092 21.5186 29.9092 21.4279 29.7264 21.3447C29.6046 21.2994 29.4827 21.2691 29.3532 21.2313C29.1857 21.1784 29.0181 21.1028 28.8582 21.0347C28.6373 20.944 28.4164 20.8608 28.1956 20.7625C27.9594 20.6642 27.7386 20.5433 27.5025 20.445C27.3806 20.3921 27.2511 20.3391 27.1293 20.2862C27.0074 20.2257 26.8932 20.1577 26.7789 20.1047C26.5276 19.9762 26.2686 19.8703 26.0249 19.7191C25.7812 19.5679 25.5375 19.4167 25.2937 19.2503C25.0729 19.0991 24.8748 18.9101 24.6692 18.7437C24.4712 18.6076 24.2655 18.4867 24.0751 18.3355C23.9076 18.1994 23.74 18.0557 23.5725 17.9196C23.4125 17.7986 23.2602 17.6776 23.1002 17.5491C23.0165 17.4886 22.9403 17.4281 22.8565 17.3676C22.8108 17.3298 22.7575 17.292 22.7118 17.2542C22.7347 17.2693 22.7575 17.292 22.7804 17.3072C22.7423 17.2769 22.7118 17.2542 22.6737 17.224C22.6052 17.1711 22.5366 17.1181 22.4605 17.0652C22.4376 17.0425 22.4072 17.0274 22.3843 17.0047C22.3539 16.9896 22.3234 16.9745 22.2853 16.9593C22.1558 16.8913 22.0873 16.8081 22.0035 16.6947C21.9426 16.6191 21.9045 16.4452 21.9121 16.3545C21.9197 16.2259 21.935 16.173 21.973 16.0823C21.9807 15.8781 22.1177 15.7042 22.3158 15.6588C22.3462 15.6513 22.3691 15.6437 22.3919 15.6362C22.5138 15.5454 22.628 15.4547 22.7575 15.3715C22.9708 15.2354 23.184 15.0993 23.3973 14.9481C23.6182 14.7969 23.8466 14.6381 24.0675 14.4869C24.2808 14.3432 24.5016 14.1996 24.7149 14.0559C24.7301 14.0483 24.7378 14.0332 24.753 14.0257C24.7834 14.003 24.8139 13.9879 24.8444 13.9652C25.0729 13.814 25.309 13.6627 25.5299 13.4964C25.7355 13.3527 25.9564 13.2091 26.1696 13.0805C26.421 12.9293 26.6875 12.8159 26.9541 12.6949C27.1521 12.5815 27.3501 12.4681 27.5558 12.3698C27.8071 12.2488 28.0661 12.1354 28.3174 12.022C28.5611 11.9086 28.8049 11.8027 29.041 11.6893C29.1171 11.6515 29.2009 11.6137 29.2771 11.5759C29.4446 11.4927 29.6122 11.402 29.7874 11.3188C29.9854 11.2205 30.191 11.1374 30.389 11.0466C30.7775 10.8727 31.1583 10.6837 31.5467 10.5173C32.0113 10.3208 32.4759 10.1393 32.9634 10.0108C33.2452 9.94271 33.527 9.87466 33.8088 9.81417C34.0906 9.76125 34.3724 9.72344 34.6618 9.68564C34.9817 9.64027 35.2939 9.60246 35.6138 9.58734C35.9337 9.57222 36.2536 9.57222 36.5735 9.57222C36.7715 9.57222 36.9695 9.57222 37.1676 9.57222C37.5636 9.57222 37.952 9.57222 38.3481 9.57222C38.6527 9.57222 38.9574 9.5949 39.2544 9.61759C39.3991 9.62515 39.5362 9.64783 39.6809 9.65539C39.8561 9.67051 40.0237 9.67807 40.1988 9.6932C40.8234 9.75368 41.4403 9.85198 42.0572 9.94271C42.1258 9.95027 42.1867 9.95783 42.2552 9.95783C42.4 9.97295 42.5523 9.98808 42.697 9.99564C42.9636 10.0108 43.2377 10.041 43.5043 10.0788C43.8318 10.1242 44.1593 10.1544 44.4868 10.2073C44.4868 10.2073 44.4868 10.2073 44.4792 10.2073C44.5021 10.2149 44.5249 10.2149 44.5401 10.2225C44.563 10.23 44.5858 10.23 44.6087 10.2376C44.6315 10.2452 44.6468 10.2452 44.6696 10.2527C44.6772 10.2527 44.6848 10.2527 44.6925 10.2603C44.7001 10.2603 44.7077 10.2603 44.7153 10.2678C44.7305 10.2678 44.7534 10.2754 44.7686 10.2754C44.761 10.2754 44.7534 10.2754 44.7458 10.2678C44.7534 10.2678 44.7534 10.2678 44.761 10.2678C44.7686 10.2678 44.7686 10.2678 44.7762 10.2678H44.7839C44.7915 10.2678 44.7915 10.2678 44.7991 10.2678H44.7915C44.7915 10.2678 44.7915 10.2678 44.7839 10.2678H44.7915H44.7991C44.7991 10.2678 44.7991 10.2678 44.7915 10.2678C44.7991 10.2678 44.7991 10.2678 44.8067 10.2678H44.8143H44.8219C44.8219 10.2678 44.8296 10.2678 44.8372 10.2678H44.8448C44.8524 10.2678 44.8524 10.2678 44.86 10.2678C44.8524 10.2678 44.8372 10.2678 44.8296 10.2603H44.8219H44.8296H44.8219C44.8219 10.2603 44.8219 10.2603 44.8296 10.2603C44.8448 10.2603 44.8676 10.2678 44.8829 10.2678C44.9133 10.2754 44.9514 10.283 44.9819 10.283C45.119 10.3132 45.2561 10.3359 45.3855 10.3661C45.4312 10.3737 45.4693 10.3812 45.515 10.3888C45.6445 10.4115 45.7816 10.4342 45.9111 10.4644C45.873 10.4569 45.8349 10.4493 45.7968 10.4417C45.8121 10.4417 45.8349 10.4493 45.8501 10.4493C45.8349 10.4493 45.8121 10.4417 45.7968 10.4417C45.873 10.4569 45.9415 10.472 46.0177 10.4871C46.0177 10.4871 46.0177 10.4871 46.0101 10.4871C46.0786 10.5022 46.1472 10.5098 46.2157 10.5249C46.3528 10.5476 46.4899 10.5703 46.627 10.593C46.6118 10.593 46.5965 10.5854 46.5889 10.5854C46.5889 10.5854 46.5965 10.5854 46.6042 10.5854C46.5965 10.5854 46.5965 10.5854 46.5889 10.5854C46.6955 10.6081 46.8022 10.6232 46.9088 10.6383C47.0764 10.6686 47.2439 10.6913 47.4115 10.7215C47.4343 10.7291 47.4572 10.7291 47.48 10.7366C47.4953 10.7366 47.5105 10.7442 47.5257 10.7442C47.6171 10.7669 47.7161 10.782 47.8075 10.7971C47.7847 10.7971 47.7695 10.7895 47.7542 10.782C47.7771 10.7895 47.7923 10.7895 47.8151 10.7971C47.7923 10.7895 47.7771 10.7895 47.7542 10.782C47.8532 10.8047 47.9522 10.8198 48.0513 10.8425C48.0284 10.8349 48.0132 10.8349 47.9903 10.8274C48.0513 10.8425 48.1122 10.85 48.1655 10.8576C48.1883 10.8576 48.2112 10.8652 48.2264 10.8652C48.2112 10.8652 48.1883 10.8576 48.1731 10.8576C48.196 10.8652 48.2188 10.8652 48.2417 10.8727H48.2493C48.2569 10.8727 48.2645 10.8727 48.2721 10.8803C48.2721 10.8803 48.2721 10.8803 48.2645 10.8803C48.2721 10.8803 48.2797 10.8803 48.2874 10.8878C48.295 10.8878 48.295 10.8878 48.3026 10.8878C48.295 10.8878 48.295 10.8878 48.2874 10.8878C48.295 10.8878 48.295 10.8878 48.3026 10.8878H48.3102H48.3026C48.3254 10.8954 48.3407 10.8954 48.3635 10.903C48.394 10.9105 48.4245 10.9105 48.4549 10.9181C48.493 10.9256 48.5235 10.9332 48.5615 10.9408C48.5692 10.9408 48.5768 10.9408 48.5844 10.9483C48.592 10.9483 48.592 10.9483 48.5996 10.9483C48.6072 10.9483 48.6072 10.9483 48.6149 10.9483C48.6225 10.9483 48.6301 10.9483 48.6377 10.9483C48.6377 10.9483 48.6301 10.9483 48.6225 10.9483C48.6301 10.9483 48.6301 10.9483 48.6377 10.9483C48.6377 10.9483 48.6377 10.9483 48.6301 10.9483H48.6377C48.6453 10.9483 48.6606 10.9559 48.6682 10.9559C48.6606 10.9559 48.6529 10.9559 48.6453 10.9483C48.6606 10.9483 48.6834 10.9559 48.6986 10.9559C48.691 10.9559 48.691 10.9559 48.6834 10.9559C48.6758 10.9559 48.6682 10.9559 48.6682 10.9559C48.6758 10.9559 48.6834 10.9559 48.6834 10.9559C48.7291 10.9634 48.7672 10.971 48.8129 10.9786C48.8205 10.9786 48.8357 10.9786 48.8433 10.9861C48.8433 10.9861 48.8433 10.9861 48.8357 10.9861C48.9195 11.0013 48.9957 11.0164 49.0718 11.0315C49.1023 11.0391 49.1328 11.0466 49.1632 11.0466C49.1785 11.0466 49.1937 11.0542 49.2089 11.0542C49.2013 11.0542 49.1937 11.0542 49.1785 11.0466H49.1861C49.1937 11.0466 49.2013 11.0466 49.2089 11.0542C49.2089 11.0542 49.2089 11.0542 49.2013 11.0542C49.2775 11.0693 49.3613 11.0844 49.4374 11.0995C49.4603 11.1071 49.4755 11.1071 49.4984 11.1147C49.4907 11.1147 49.4755 11.1071 49.4603 11.1071C49.605 11.1374 49.7345 11.1903 49.8792 11.2281C49.9096 11.2356 49.9477 11.2432 49.9782 11.2508C50.0543 11.2659 50.1381 11.2886 50.2143 11.3037C50.5418 11.402 50.8693 11.5078 51.2044 11.6137C51.3872 11.6742 51.5776 11.7196 51.768 11.78C51.966 11.8405 52.1641 11.9161 52.3621 11.9842C52.7657 12.1278 53.177 12.2337 53.5807 12.3698C53.6416 12.3925 53.7102 12.4152 53.7711 12.4303C53.8016 12.4378 53.8244 12.4454 53.8549 12.453C53.893 12.4605 53.9234 12.4757 53.9615 12.4908C54.2357 12.5815 54.5099 12.6647 54.7841 12.763C54.9135 12.8083 55.0354 12.8537 55.1649 12.9066C55.2791 12.9444 55.3934 12.9822 55.5076 13.0276C55.6904 13.1032 55.8503 13.1637 56.0103 13.2166ZM39.3306 10.9408C39.0107 10.9105 38.6832 10.903 38.3633 10.8954C38.3633 10.903 38.3709 10.9181 38.3709 10.9256C38.3862 11.2659 38.1044 11.6137 37.7464 11.6137C37.4189 11.6137 37.1447 11.402 37.0762 11.0844C36.8553 11.4474 36.6573 11.8254 36.4897 12.2186C36.444 12.332 36.4135 12.453 36.3678 12.5664C36.4669 12.4983 36.5735 12.4454 36.6953 12.4454C37.0533 12.4454 37.3656 12.6949 37.3884 13.0654C37.4037 13.4057 37.1219 13.7535 36.7639 13.7535C36.4592 13.7535 36.2003 13.572 36.1165 13.2922C35.9946 13.7081 35.9033 14.1315 35.8347 14.5549C35.7662 15.054 35.7433 15.553 35.7585 16.052V16.0596C35.7585 16.0823 35.7585 16.0974 35.7585 16.1201C35.7585 16.1352 35.7585 16.1428 35.7585 16.1579C35.7585 16.173 35.7585 16.1806 35.7585 16.1957C35.7585 16.2184 35.7585 16.2335 35.7585 16.2562V16.2637C35.7738 16.5359 35.7966 16.8006 35.8271 17.0728C35.888 17.4735 35.9718 17.8742 36.0784 18.2598C36.0784 18.2598 36.0784 18.2598 36.0784 18.2674C36.086 18.2901 36.0937 18.3128 36.0937 18.3355C36.0937 18.343 36.0937 18.343 36.0937 18.3506C36.1013 18.3733 36.1013 18.3884 36.1089 18.4111C36.1089 18.4186 36.1089 18.4262 36.1165 18.4337C36.1241 18.4489 36.1241 18.4716 36.1317 18.4867C36.1317 18.4942 36.1394 18.5018 36.1394 18.5169C36.147 18.532 36.147 18.5472 36.1546 18.5547C36.1622 18.5698 36.1622 18.5774 36.1698 18.5925C36.1698 18.6001 36.1774 18.6076 36.1774 18.6228C36.1851 18.6379 36.1851 18.6606 36.1927 18.6757V18.6833C36.2155 18.7513 36.246 18.8194 36.2688 18.8874C36.3831 18.7513 36.543 18.6681 36.7258 18.6681C36.8477 18.6681 36.9543 18.7059 37.0533 18.7513C37.1676 18.5698 37.3427 18.4337 37.5636 18.4337C37.9216 18.4337 38.2338 18.6833 38.2567 19.0538C38.2719 19.3335 38.0739 19.6057 37.8073 19.6964C38.1348 19.7267 38.409 19.9611 38.4242 20.3013C38.4395 20.6416 38.1577 20.9894 37.7997 20.9894C37.4417 20.9894 37.1295 20.7399 37.1066 20.3694C37.0914 20.0896 37.2894 19.8174 37.556 19.7267C37.4646 19.7191 37.3808 19.6964 37.3047 19.6511C37.1904 19.8325 37.0152 19.9686 36.7944 19.9686C36.7639 19.9686 36.741 19.9611 36.7182 19.9535C36.8781 20.2635 37.0381 20.5735 37.2285 20.8684V20.876C37.3351 21.0423 37.4494 21.2011 37.5636 21.3599C37.5712 21.3674 37.5712 21.375 37.5788 21.3825C37.6017 21.4128 37.6169 21.4355 37.6398 21.4657C37.6398 21.4657 37.6398 21.4657 37.6398 21.4733C37.6398 21.4733 37.6398 21.4733 37.6322 21.4657L37.6245 21.4582C37.6855 21.5338 37.7464 21.6169 37.8149 21.6925C37.8759 21.7682 37.914 21.8438 37.9292 21.9345C37.9673 21.9421 37.9977 21.9421 38.0358 21.9496C38.1196 21.9572 38.2034 21.9647 38.2872 21.9647C38.2491 21.8891 38.2262 21.806 38.2186 21.7152C38.2034 21.375 38.4852 21.0272 38.8431 21.0272C39.2011 21.0272 39.5134 21.2767 39.5362 21.6472C39.5438 21.7908 39.4905 21.9269 39.4068 22.0479C39.7038 22.0706 40.0008 22.0933 40.2979 22.1084C40.5111 22.116 40.7244 22.116 40.9376 22.116C40.8995 22.0404 40.8767 21.9647 40.8767 21.874C40.8615 21.6245 41.0062 21.3825 41.227 21.2691C40.5873 20.8155 40.0237 20.2408 39.5743 19.583C39.4905 19.825 39.262 20.0216 38.9879 20.0216C38.6299 20.0216 38.3176 19.772 38.2948 19.4016C38.2795 19.0613 38.5613 18.7135 38.9193 18.7135C38.9802 18.7135 39.0336 18.7286 39.0945 18.7437C38.8736 18.2901 38.706 17.8137 38.5918 17.3072C38.4852 17.5113 38.2872 17.6776 38.051 17.6776C37.6931 17.6776 37.3808 17.4281 37.358 17.0576C37.3427 16.7174 37.6245 16.3696 37.9825 16.3696C38.1653 16.3696 38.3405 16.4376 38.4699 16.5586C38.409 15.9613 38.4242 15.3791 38.5156 14.8045C38.4242 14.8649 38.3252 14.9027 38.211 14.9027C37.853 14.9027 37.5408 14.6532 37.5179 14.2827C37.5027 13.9425 37.7845 13.5947 38.1424 13.5947C38.3862 13.5947 38.5994 13.7157 38.7213 13.9047C38.8508 13.4964 39.0183 13.1032 39.224 12.7252C39.1706 12.642 39.1326 12.5437 39.1249 12.4303C39.1097 12.09 39.3915 11.7422 39.7495 11.7422C39.7876 11.7422 39.818 11.7574 39.8561 11.7574C39.9704 11.6137 40.0846 11.4776 40.2065 11.3415C40.0846 11.2583 40.0008 11.1374 39.9551 10.9937C39.7723 10.9786 39.5515 10.9634 39.3306 10.9408ZM37.7083 21.5035C37.7083 21.5111 37.7159 21.5111 37.7235 21.5186C37.7159 21.5111 37.7159 21.5035 37.7083 21.5035ZM37.7159 21.5035C37.7235 21.5111 37.7235 21.5186 37.7312 21.5262C37.7235 21.5186 37.7159 21.5111 37.7159 21.5035ZM49.346 21.0272C49.0947 21.2238 48.8281 21.4052 48.5463 21.564C48.8205 21.5186 49.1023 21.4657 49.3765 21.4052C49.4679 21.3825 49.5517 21.3599 49.6431 21.3447C49.506 21.2767 49.3993 21.1708 49.346 21.0272ZM51.8442 13.6174C51.669 13.6174 51.5091 13.5569 51.3796 13.451C51.5319 13.8442 51.6614 14.2449 51.7375 14.6684C51.7985 14.9935 51.8213 15.3186 51.8366 15.6362C51.9356 15.5681 52.0422 15.5227 52.1641 15.5227C52.522 15.5227 52.8343 15.7723 52.8571 16.1428C52.8724 16.483 52.5906 16.8308 52.2326 16.8308C52.0727 16.8308 51.9203 16.7703 51.7985 16.6796C51.7604 16.9518 51.7071 17.2164 51.6385 17.4811C51.867 17.5718 52.0422 17.7759 52.0498 18.0406C52.065 18.3808 51.7832 18.7286 51.4253 18.7286C51.3415 18.7286 51.2653 18.7135 51.1968 18.6908C50.9378 19.2428 50.6027 19.7494 50.199 20.2106C50.4199 20.3013 50.5875 20.4979 50.6027 20.7625C50.6103 20.8986 50.557 21.0347 50.4885 21.1482C50.6408 21.1103 50.7931 21.0725 50.9378 21.0347C50.8007 20.9289 50.7017 20.7701 50.6941 20.5735C50.6789 20.2333 50.9607 19.8855 51.3186 19.8855C51.6766 19.8855 51.9889 20.135 52.0117 20.5055C52.0193 20.5886 52.0041 20.6794 51.9736 20.7625C52.0498 20.7399 52.126 20.7172 52.2021 20.6945C52.2783 20.5811 52.3773 20.4903 52.522 20.4374C52.583 20.4147 52.6515 20.4072 52.72 20.4072C52.7962 20.4072 52.8724 20.4223 52.9485 20.4525C53.0475 20.4147 53.1542 20.3845 53.2532 20.3467C53.2608 20.3467 53.2684 20.3391 53.276 20.3391C53.3141 20.2635 53.3598 20.1879 53.3979 20.1123C53.4131 20.0745 53.436 20.0367 53.4512 20.0064C53.4741 19.9611 53.4969 19.9233 53.5198 19.8779C53.5198 19.8703 53.5274 19.8628 53.5274 19.8628C53.5959 19.7191 53.6569 19.583 53.7254 19.4394C53.733 19.4318 53.733 19.4167 53.7406 19.4091C53.7482 19.394 53.7482 19.3864 53.7559 19.3789C53.7559 19.3713 53.7559 19.3713 53.7635 19.3638C53.9844 18.8118 54.1443 18.2447 54.2585 17.6625C53.9006 17.6625 53.5883 17.413 53.5731 17.0425C53.5578 16.7023 53.8396 16.3545 54.1976 16.3545C54.2738 16.3545 54.3499 16.3696 54.4261 16.3923C54.4413 16.0974 54.4489 15.8101 54.4413 15.5152C54.3271 15.6513 54.1671 15.7496 53.9767 15.7496C53.6645 15.7496 53.3979 15.553 53.3217 15.2581C53.276 15.2657 53.238 15.2884 53.1999 15.2884C52.8571 15.3035 52.5068 15.0237 52.5068 14.6684C52.5068 14.6381 52.5068 14.6154 52.5068 14.5852C52.5068 14.4037 52.5525 14.2525 52.6743 14.1164C52.7886 13.9879 52.9562 13.9122 53.1313 13.9047C53.1389 13.9047 53.1542 13.9047 53.1618 13.9047C53.4741 13.9047 53.7863 14.1542 53.8092 14.4793C53.8473 14.4718 53.8777 14.4566 53.9082 14.4566C54.091 14.4566 54.2585 14.5247 54.388 14.6381C54.3576 14.4264 54.3119 14.2223 54.2662 14.0105C53.9234 13.8971 53.5807 13.7913 53.238 13.6779C52.9333 13.5796 52.6287 13.504 52.324 13.4132C52.1945 13.5191 52.027 13.6174 51.8442 13.6174ZM53.733 19.3864C53.7254 19.394 53.7254 19.394 53.733 19.3864V19.3864ZM55.1877 17.4432C55.1877 17.4508 55.1877 17.4584 55.1877 17.4584C55.0735 18.154 54.8831 18.842 54.6241 19.4999C54.6165 19.515 54.6089 19.5301 54.6013 19.5528C54.6013 19.5603 54.6013 19.5603 54.5937 19.5679C54.586 19.5906 54.5784 19.6057 54.5708 19.6284V19.6359C54.5403 19.7116 54.5023 19.7872 54.4718 19.8703C54.4642 19.893 54.4489 19.9233 54.4337 19.9459C54.5784 19.9006 54.7231 19.8628 54.8678 19.8023C55.4771 19.5679 56.0941 19.3411 56.7034 19.0991C57.069 18.9328 57.4269 18.7437 57.8001 18.585C58.1733 18.4262 58.5465 18.2901 58.9197 18.1389C59.3843 17.9347 59.8413 17.7003 60.2906 17.4659C60.542 17.3298 60.8086 17.2089 61.0675 17.0879C61.0827 17.0803 61.098 17.0728 61.1056 17.0652C60.938 16.9669 60.7629 16.8686 60.5877 16.7854C60.1002 16.5359 59.6356 16.2259 59.133 16.0067C58.7369 15.8328 58.3485 15.6513 57.9524 15.4774C57.465 15.2581 56.9928 15.001 56.4977 14.7893C56.0636 14.6154 55.6219 14.4642 55.1877 14.2979C55.2487 14.6986 55.2944 15.0993 55.3096 15.5076C55.3401 16.1579 55.2867 16.8081 55.1877 17.4432ZM42.8722 22.0857C42.6513 22.0025 42.4304 21.9118 42.2172 21.806C42.2172 21.9194 42.1867 22.0252 42.1334 22.1235C42.1639 22.1235 42.1867 22.1235 42.2172 22.1235C42.438 22.116 42.6589 22.1008 42.8722 22.0857ZM35.4539 21.5791C35.8652 21.6396 36.2765 21.685 36.6801 21.7682C36.7334 21.7757 36.7867 21.7833 36.8401 21.7908C36.8401 21.7908 36.8401 21.7833 36.8324 21.7833C36.8248 21.7757 36.8172 21.7606 36.8096 21.753C36.703 21.6094 36.5963 21.4582 36.4973 21.3069C36.4897 21.2994 36.4897 21.2918 36.4821 21.2918C36.4821 21.2843 36.4745 21.2843 36.4745 21.2767C36.4745 21.2691 36.4669 21.2691 36.4669 21.2616C36.2917 20.9818 36.1241 20.6945 35.9718 20.3921C35.9718 20.3845 35.9642 20.3845 35.9642 20.3769C35.9566 20.3694 35.9566 20.3542 35.9489 20.3467C35.7357 19.9233 35.5529 19.4847 35.4006 19.0311C35.3092 18.7362 35.2254 18.4413 35.1569 18.1464C35.0045 17.4886 34.9131 16.8081 34.8903 16.1352C34.8598 15.4169 34.9207 14.6986 35.0502 13.9954C35.0502 13.9954 35.0502 13.9954 35.0502 13.9879C35.0578 13.9576 35.0578 13.9274 35.0655 13.9047C35.0655 13.8971 35.0655 13.8971 35.0655 13.8896C35.0731 13.8669 35.0731 13.8442 35.0807 13.8215C35.0807 13.814 35.0807 13.8064 35.0883 13.7988C35.0959 13.7762 35.0959 13.7459 35.1035 13.7232C35.1035 13.7157 35.1112 13.7005 35.1112 13.693C35.1112 13.6779 35.1188 13.6627 35.1188 13.6476C35.1188 13.6325 35.1264 13.6249 35.1264 13.6098C35.1264 13.5947 35.134 13.5796 35.134 13.5644C35.1416 13.5418 35.1492 13.5191 35.1492 13.4888C35.1492 13.4813 35.1492 13.4737 35.1569 13.4661C35.2635 13.02 35.4082 12.5815 35.5758 12.1505C35.5758 12.143 35.5758 12.143 35.5834 12.1354C35.5834 12.1278 35.591 12.1203 35.591 12.1127C35.6976 11.8405 35.8195 11.5759 35.9489 11.3188C35.9489 11.3188 35.9489 11.3113 35.9566 11.3113C35.9642 11.3037 35.9642 11.2961 35.9718 11.281C35.9718 11.2735 35.9794 11.2659 35.9794 11.2583C35.987 11.2432 35.9946 11.2205 36.0099 11.2054V11.1978C36.0099 11.1903 36.0175 11.1827 36.0175 11.1752C36.0175 11.1676 36.0251 11.1676 36.0251 11.16C36.0251 11.1525 36.0327 11.1525 36.0327 11.1449C36.0327 11.1449 36.0327 11.1374 36.0403 11.1374C36.048 11.1222 36.0556 11.1071 36.0632 11.092C36.0708 11.0844 36.0708 11.0769 36.0784 11.0693C36.1089 11.0088 36.147 10.9483 36.1851 10.8878C35.8042 10.8954 35.4158 10.9105 35.0426 10.9559C34.7989 10.9937 34.5628 11.0239 34.3191 11.0617C33.9611 11.1298 33.6031 11.1978 33.2452 11.2961C32.8263 11.402 32.4302 11.5683 32.0342 11.7271C31.7904 11.833 31.5543 11.9539 31.3106 12.0674C31.0212 12.2035 30.7242 12.3169 30.4347 12.4605C30.1758 12.5891 29.9168 12.7252 29.6579 12.8613C29.3685 13.0125 29.0638 13.1335 28.7668 13.2771C28.2184 13.5418 27.6548 13.7988 27.1064 14.0635C26.6266 14.2979 26.2077 14.6305 25.7583 14.9179C25.507 15.0842 25.2633 15.2657 25.0043 15.4245C24.7682 15.5757 24.5473 15.7345 24.3189 15.8932C24.1132 16.0369 23.9076 16.1806 23.6943 16.3167C23.6791 16.3318 23.6562 16.3393 23.641 16.3545C23.6562 16.3696 23.6791 16.3847 23.6943 16.3998C23.6791 16.3847 23.6562 16.3696 23.641 16.3545C23.6562 16.362 23.6639 16.3771 23.6791 16.3847C23.6639 16.3771 23.6562 16.362 23.641 16.3545C23.8543 16.5132 24.0675 16.6796 24.2732 16.8384C24.3036 16.8611 24.3417 16.8913 24.3722 16.914C24.555 17.0576 24.7378 17.2089 24.9129 17.3525C25.0576 17.4584 25.2176 17.5415 25.3623 17.6474C25.5527 17.7911 25.7279 17.9498 25.9183 18.1086C26.063 18.2145 26.2153 18.3052 26.3676 18.4035C26.5428 18.5169 26.718 18.6303 26.9008 18.7286C27.076 18.8269 27.2664 18.895 27.4415 18.9857C27.6167 19.0764 27.7919 19.1672 27.9747 19.2503C27.9214 19.2277 27.8681 19.205 27.8147 19.1823C28.0051 19.2579 28.1879 19.3411 28.3707 19.4167C28.5154 19.4772 28.6525 19.5528 28.7972 19.6133C29.0257 19.704 29.2466 19.7947 29.4675 19.8855C29.6122 19.9459 29.7645 19.9913 29.9168 20.0367C30.092 20.0896 30.2596 20.1652 30.4271 20.2408C30.7699 20.3694 31.1354 20.4072 31.4782 20.5357C31.6762 20.6113 31.8666 20.7021 32.0723 20.7625C32.2779 20.8306 32.4911 20.8684 32.6968 20.9289C32.9024 20.9894 33.1005 21.0347 33.3061 21.0877C33.4965 21.1406 33.6945 21.186 33.8849 21.2313C34.2353 21.3069 34.578 21.4052 34.9284 21.4657C35.0274 21.4808 35.1264 21.496 35.2254 21.5186C35.2787 21.5262 35.3244 21.5489 35.3701 21.564C35.4158 21.5716 35.431 21.5791 35.4539 21.5791ZM32.0494 11.7271C32.0037 11.7498 31.958 11.7649 31.9123 11.78C31.9428 11.7725 31.9656 11.7574 31.9961 11.7422C32.0113 11.7347 32.0266 11.7347 32.0494 11.7271ZM23.6867 18.0179C23.6639 17.9952 23.6334 17.9801 23.6105 17.9574C23.6029 17.9498 23.5877 17.9423 23.5801 17.9347C23.6105 17.965 23.6486 17.9876 23.6867 18.0179ZM44.7077 10.2603C44.7153 10.2603 44.7153 10.2603 44.7153 10.2603C44.7153 10.2678 44.7077 10.2603 44.7077 10.2603ZM44.7839 10.2754C44.7839 10.2754 44.7762 10.2754 44.7839 10.2754C44.7762 10.2754 44.7686 10.2754 44.7686 10.2754H44.761C44.761 10.2754 44.761 10.2754 44.7534 10.2754C44.761 10.2754 44.761 10.2754 44.7686 10.2754C44.7686 10.2754 44.7762 10.2754 44.7839 10.2754C44.7762 10.2754 44.7839 10.2754 44.7839 10.2754Z" fill="#0D003A"/>
<path d="M24.4634 16.9745C24.4405 16.9518 24.4101 16.9367 24.3872 16.914C24.372 16.8989 24.3491 16.8838 24.3339 16.8686C24.372 16.9064 24.4177 16.9442 24.4634 16.9745Z" fill="#0D003A"/>
<path d="M31.5923 10.5099C31.5847 10.5174 31.5694 10.5174 31.5618 10.525C31.5161 10.5401 31.478 10.5552 31.4323 10.5779C31.4857 10.5552 31.539 10.5325 31.5923 10.5099Z" fill="#0D003A"/>
<path d="M22.796 17.3374C22.8112 17.3525 22.8265 17.3601 22.8417 17.3676C22.8722 17.3903 22.9026 17.413 22.9331 17.4357C22.8874 17.4055 22.8417 17.3752 22.796 17.3374Z" fill="#0D003A"/>
<path d="M73.9162 3.20583C73.9467 3.19071 73.9695 3.17558 74 3.16046C73.9695 3.17558 73.9391 3.19071 73.9162 3.20583Z" fill="#0D003A"/>
</g>
<defs>
<clipPath id="clip0">
<rect width="74" height="35" fill="white" transform="matrix(-1 0 0 1 74 0)"/>
</clipPath>
</defs>
</svg>
