<svg width="106" height="91" viewBox="0 0 106 91" fill="none" xmlns="http://www.w3.org/2000/svg">
<g clip-path="url(#clip0)">
<path d="M12.7201 77.87C12.5601 77.9 12.4101 77.94 12.2501 77.95C12.0801 77.97 11.9101 77.99 11.7401 78.02C11.3401 78.07 10.9201 78.13 10.5101 78.15C10.2601 78.16 10.0101 78.17 9.75011 78.17C9.35011 78.17 8.95012 78.16 8.55012 78.13C8.03012 78.1 7.51012 78.07 7.00011 78.02C6.89011 78.01 6.77012 77.99 6.66012 77.97C6.55012 77.95 6.43012 77.93 6.31012 77.92C6.16012 77.91 6.02012 77.9 5.87012 77.9C5.79012 77.9 5.71012 77.9 5.63012 77.9H5.53011C5.24011 77.9 4.95011 77.86 4.67011 77.82L4.48012 77.79C4.38012 77.78 4.27011 77.77 4.17011 77.76L3.96011 77.74C3.80011 77.72 3.64012 77.69 3.48012 77.65C3.43011 77.65 3.38012 77.64 3.33012 77.64C3.20012 77.64 3.07012 77.61 2.95012 77.58L2.85011 77.55V77.56C2.73011 77.54 2.65012 77.52 2.58012 77.5C2.21011 77.39 1.95012 76.99 1.99012 76.59C2.03012 76.12 2.41012 75.86 2.73012 75.73C2.99012 75.62 3.27012 75.55 3.54012 75.48C3.65012 75.45 3.77012 75.42 3.88012 75.39C3.98012 75.35 4.07011 75.32 4.17011 75.27L4.13012 75.2C4.02012 74.96 4.05012 74.75 4.09012 74.54C4.13012 74.34 4.34012 74.13 4.48012 73.99L4.59012 73.88L4.67011 73.8C4.87011 73.57 5.06012 73.33 5.24012 73.09C5.55012 72.71 5.82011 72.36 6.04012 71.97C6.12012 71.79 6.19012 71.6 6.26012 71.41C6.30012 71.29 6.35011 71.16 6.39011 71.04C6.56011 70.61 6.84011 70.29 7.14011 69.97C7.66011 69.42 8.28012 68.93 9.16012 68.37C9.42012 68.19 9.66012 68.01 9.91012 67.82C10.3301 67.51 10.8001 67.25 11.2501 67C11.4601 66.89 11.6701 66.79 11.8801 66.68C12.0901 66.58 12.2901 66.48 12.5001 66.37C12.8201 66.2 13.1301 66.01 13.4401 65.81L13.4101 65.84L13.4901 65.78C13.2601 65.7 13.0401 65.58 12.8301 65.45C12.6501 65.35 12.5001 65.23 12.3501 65.12L12.1901 65L12.0301 64.89C11.8801 64.79 11.7301 64.68 11.5901 64.56C11.0901 64.13 10.6901 63.67 10.3801 63.19C10.1501 62.83 9.97012 62.44 9.79012 62.05C9.73012 61.92 9.67011 61.79 9.61012 61.66L9.39011 61.21L8.98012 60.36L8.88012 60.15L8.67011 59.71C8.56011 59.47 8.47012 59.22 8.41012 59.04C8.35012 58.87 8.29012 58.7 8.22012 58.53C8.17011 58.41 8.10011 58.3 8.04012 58.19L7.98012 58.09C7.83012 57.82 7.71012 57.54 7.59012 57.16C7.59012 57.16 7.58012 57.13 7.57011 57.1L7.55012 57.03H7.54012L7.41012 56.63L7.37012 56.51C7.30012 56.28 7.23011 56.04 7.17011 55.8C7.12011 55.59 7.08012 55.37 7.05012 55.15C7.04012 55.05 7.02012 54.96 7.01012 54.86L6.93011 54.39C6.86012 53.92 6.78011 53.46 6.68011 53C6.65012 52.85 6.62012 52.71 6.58012 52.56C6.55012 52.41 6.51012 52.27 6.48012 52.12C6.45012 51.98 6.43011 51.84 6.41012 51.7C6.40012 51.59 6.38011 51.49 6.36012 51.38C6.34012 51.26 6.32011 51.13 6.30012 51.01C6.28012 50.88 6.26012 50.75 6.24012 50.63C6.22012 50.52 6.19012 50.42 6.16012 50.32C6.04012 49.89 6.25011 49.45 6.67011 49.21C6.80011 49.14 6.97012 49.1 7.18011 49.1C7.32011 49.1 7.47012 49.12 7.60011 49.13C7.85011 49.16 8.05012 49.17 8.25011 49.19L8.44012 49.2C8.74012 49.22 9.09011 49.25 9.46011 49.25C9.54012 49.25 9.62012 49.25 9.70012 49.25H9.76012C9.90012 49.25 10.0401 49.26 10.1801 49.28H10.3301L10.6801 49.31L11.0001 49.34C11.3601 49.37 11.7201 49.47 12.0701 49.56C12.1901 49.59 12.3201 49.62 12.4401 49.65C12.7301 49.71 13.0201 49.77 13.2901 49.86L13.5801 49.96C13.7501 50.02 13.9201 50.07 14.0901 50.13C14.2701 50.19 14.4401 50.26 14.6101 50.33L14.7601 50.39C14.9701 50.47 15.1901 50.53 15.4001 50.6L15.4801 50.62C15.9401 50.76 16.4001 50.93 16.8501 51.13C17.2101 51.29 17.5401 51.51 17.8501 51.72C17.9701 51.8 18.0801 51.87 18.2001 51.95C18.2901 52 18.3701 52.06 18.4601 52.11C18.6401 52.22 18.8201 52.32 18.9801 52.45C19.2201 52.64 19.4801 52.82 19.7301 52.99C19.8901 53.1 20.0401 53.22 20.1901 53.35L20.3801 53.5C20.6301 53.7 20.8701 53.9 21.1101 54.12C21.2101 54.2 21.3101 54.28 21.4201 54.37C21.5501 54.47 21.6801 54.58 21.8101 54.69C22.0101 54.86 22.2101 55.04 22.4101 55.22L22.6301 55.42L22.7501 55.52L22.8701 55.62L22.8001 55.57C22.9901 55.73 23.1701 55.91 23.3501 56.08L23.4101 56.14C23.6701 56.35 23.9501 56.54 24.2201 56.73C24.3801 56.84 24.5401 56.95 24.7001 57.06C24.9801 57.26 25.2301 57.48 25.4501 57.72C25.5101 57.78 25.5701 57.84 25.6201 57.91C25.7201 58.01 25.8101 58.12 25.9101 58.22C26.0201 58.32 26.1401 58.41 26.2501 58.51C26.3201 58.57 26.3801 58.65 26.4401 58.74C26.7101 58.58 26.9401 58.46 27.1701 58.35C27.6201 58.15 28.0801 57.96 28.5401 57.77C29.0801 57.55 29.6401 57.37 30.1901 57.24L30.4301 57.19C30.7501 57.12 31.0601 57.05 31.3701 56.96L31.5901 56.88C31.7601 56.82 31.9401 56.76 32.1101 56.7C32.4601 56.58 32.7901 56.44 33.0401 56.32C33.2001 56.24 33.3701 56.18 33.5401 56.11C33.6901 56.05 33.8301 56 33.9701 55.93C34.1801 55.83 34.3901 55.73 34.6001 55.63L34.8601 55.5C35.1301 55.37 35.4101 55.28 35.7201 55.18C35.7601 55.08 35.7601 54.98 35.7701 54.88V54.78L35.7801 54.68C35.7901 54.54 35.8001 54.41 35.8001 54.27C35.7801 54.09 35.7501 53.92 35.6901 53.75C35.6201 53.53 35.6201 53.29 35.6101 53.06C35.6001 52.85 35.5901 52.7 35.6001 52.54C35.6001 52.45 35.6101 52.35 35.6101 52.26L35.6201 52.05C35.6301 51.79 35.6601 51.54 35.7001 51.28C35.7201 51.15 35.7301 51.02 35.7501 50.88C35.8001 50.39 35.8301 50.01 35.8401 49.66C35.8501 49.54 35.8601 49.41 35.8701 49.28C35.8901 49.08 35.9001 48.89 35.9001 48.69C35.8801 48.48 35.8401 48.28 35.7901 48.09C35.7501 48.01 35.7101 47.94 35.6701 47.87L35.6401 47.82C35.5801 47.72 35.5301 47.62 35.4601 47.52C35.4201 47.47 35.3801 47.42 35.3301 47.37C35.1201 47.2 34.9301 47.06 34.8301 46.85C34.7301 46.64 34.7201 46.4 34.7901 46.19C34.8601 45.99 35.0001 45.83 35.2301 45.69C35.3401 45.63 35.4701 45.59 35.6101 45.59C35.9601 45.59 36.3201 45.79 36.6101 45.96L36.6801 46L36.8601 46.1C37.0501 46.2 37.2301 46.31 37.4201 46.41L37.6401 46.51C37.8201 46.59 37.9901 46.67 38.1701 46.76C38.3101 46.64 38.4901 46.58 38.6701 46.58C38.7001 46.58 38.7301 46.58 38.7601 46.58C39.3101 46.65 39.8101 46.92 40.2901 47.19L40.5801 47.35C40.9901 47.53 41.4401 47.64 41.8701 47.75C42.1001 47.81 42.3201 47.86 42.5501 47.93C42.9101 48.04 43.2501 48.19 43.6301 48.35C44.0101 48.52 44.4101 48.7 44.8001 48.91C45.5301 49.3 46.1301 49.89 46.7101 50.46C46.8801 50.63 47.0201 50.78 47.1701 50.93L47.2401 51C47.3901 51.15 47.5501 51.32 47.6401 51.51C47.9001 51.53 48.1601 51.59 48.4501 51.66C48.6101 51.69 48.7601 51.72 48.9201 51.76C48.9801 51.77 49.0301 51.79 49.0901 51.81L49.1601 51.83C49.3501 51.86 49.5501 51.86 49.7401 51.87C49.8301 51.87 49.9201 51.87 50.0101 51.88C50.1201 51.88 50.2201 51.89 50.3301 51.9C50.5101 51.91 50.6901 51.92 50.8701 51.92H50.9501C51.9101 51.86 52.8201 51.71 53.9101 51.52C54.5001 51.42 55.0201 51.37 55.5201 51.37H55.6901C55.8701 51.37 56.0401 51.38 56.2201 51.4C56.4401 51.41 56.6501 51.43 56.8701 51.43H57.0201C57.3801 51.41 57.6901 51.39 58.0001 51.39C58.2101 51.39 58.4201 51.4 58.6201 51.42C59.2501 51.48 59.8801 51.63 60.4401 51.77C60.9101 51.89 61.3901 52.01 61.8501 52.15C62.0301 52.2 62.2101 52.26 62.3801 52.32C62.7101 52.43 63.0501 52.54 63.4001 52.62C63.6801 52.68 63.9601 52.74 64.2401 52.8L65.0201 52.97L65.1801 53C65.4001 53.04 65.6101 53.08 65.8301 53.13C66.0401 53.17 66.2501 53.23 66.4501 53.29C66.5701 53.2 66.7001 53.13 66.8401 53.11C66.8901 53.09 66.9501 53.09 67.0101 53.09C67.1601 53.09 67.3301 53.14 67.4701 53.17L67.5401 53.19L67.6601 53.22C67.7201 53.24 67.7801 53.25 67.8401 53.27L68.1401 53.36L68.5301 53.48C68.9801 53.62 69.4301 53.77 69.8701 53.93C70.5401 54.16 71.2001 54.44 71.8401 54.71L72.3401 54.92C72.6301 55.04 72.9201 55.18 73.2101 55.32L73.5501 55.48C73.9701 55.68 74.3801 55.88 74.7901 56.08C75.2601 56.32 75.7301 56.59 76.1701 56.86C76.4601 57.03 76.7501 57.2 77.0401 57.36C77.2701 57.49 77.4901 57.63 77.7101 57.76C77.9701 57.92 78.2401 58.08 78.5101 58.23L78.3101 58.14C78.9901 58.47 79.6301 58.89 80.2501 59.3L80.3201 59.35C80.5001 59.47 80.6801 59.59 80.8501 59.71L81.2501 59.98C81.4801 60.13 81.7101 60.28 81.9401 60.42L82.2001 60.59C82.5101 60.78 82.8001 60.98 83.1001 61.19C83.3701 61.38 83.6401 61.57 83.9001 61.76L84.1601 61.94C84.3201 62.05 84.4901 62.17 84.6401 62.29C84.8801 62.48 85.0801 62.64 85.3001 62.79C85.5601 62.97 85.8201 63.14 86.0801 63.32C86.6001 63.66 87.1301 64.02 87.6301 64.41C87.9101 64.63 88.2101 64.86 88.5201 65.07C88.5801 65.11 88.6301 65.14 88.6901 65.18C88.7501 65.22 88.8101 65.26 88.8701 65.3L88.9701 65.36C89.2701 65.54 89.5801 65.74 89.6301 66.12C89.6701 66.46 89.5501 66.77 89.3101 66.97C89.2201 67.05 89.1001 67.11 89.0001 67.17C88.8801 67.24 88.7601 67.3 88.6501 67.37C88.3901 67.56 88.1501 67.78 87.9201 67.99C87.6901 68.21 87.4001 68.42 87.0101 68.65C86.4401 68.98 85.8101 69.27 85.1601 69.49L85.1101 69.5H85.1001L85.1101 69.49H85.0901V69.48C85.0701 69.5 85.0401 69.51 85.0201 69.52L84.7201 69.62L84.6401 69.65C84.2301 69.79 83.8301 69.97 83.4901 70.18C83.3001 70.32 83.1001 70.5 82.8901 70.74L82.9301 70.68C82.8101 70.83 82.6801 70.96 82.5501 71.1L82.3501 71.32C82.1401 71.55 81.9101 71.8 81.6401 72.04C81.5801 72.09 81.5301 72.15 81.4701 72.2C81.4101 72.25 81.3601 72.31 81.3001 72.36C81.1701 72.48 81.0201 72.57 80.8701 72.66L80.8201 72.69C80.5201 72.89 80.1701 73.12 79.8001 73.28C79.6701 73.34 79.5301 73.39 79.4001 73.45C79.1901 73.53 78.9901 73.62 78.7901 73.71C78.6201 73.79 78.4501 73.85 78.2801 73.92C78.1101 73.99 77.9401 74.05 77.7801 74.13C77.5101 74.26 77.2201 74.42 76.9201 74.6C76.6801 74.76 76.4401 74.93 76.1801 75.08C75.9801 75.19 75.7801 75.29 75.5701 75.39L75.5001 75.42C75.2701 75.54 75.0501 75.64 74.8201 75.73C74.5901 75.81 74.3701 75.91 74.1501 76.01L74.0301 76.07C73.8401 76.16 73.6501 76.25 73.4601 76.32C73.2201 76.41 72.9901 76.51 72.7601 76.61C72.4401 76.76 72.1401 76.86 71.8401 76.92L71.6401 76.96C71.4501 77 71.2601 77.04 71.0801 77.08C71.0101 77.1 70.9501 77.11 70.8801 77.13C70.7701 77.17 70.6601 77.22 70.5501 77.26C70.3401 77.35 70.1201 77.42 69.9001 77.49C69.7301 77.54 69.5601 77.59 69.3901 77.64C69.2401 77.68 69.1001 77.72 68.9501 77.76L68.8401 77.79L68.7001 77.83L68.4901 77.9L68.3301 77.95C68.1301 78.02 67.9401 78.1 67.7501 78.18C67.5301 78.28 67.3001 78.36 67.0701 78.43C66.9001 78.49 66.7301 78.55 66.5601 78.63C66.3201 78.73 66.0301 78.85 65.7201 78.95C65.1901 79.12 64.6301 79.14 64.0801 79.16H63.9901C63.7501 79.18 63.5001 79.2 63.2601 79.22C63.0801 79.24 62.9101 79.27 62.7301 79.3C62.6301 79.32 62.5401 79.33 62.4401 79.35C62.2901 79.37 62.1401 79.39 61.9801 79.4C61.8801 79.41 61.7801 79.42 61.6801 79.43C61.4101 79.46 61.1501 79.49 60.8901 79.52C60.4101 79.57 59.9201 79.61 59.4401 79.65L59.2801 79.66L59.0001 79.68C58.7601 79.7 58.5201 79.72 58.2801 79.73H58.2201C58.1501 79.73 58.0701 79.72 57.9901 79.72L57.9301 79.87C57.8301 80.09 57.7301 80.33 57.6101 80.54C57.5401 80.67 57.4401 80.78 57.3501 80.89L57.3001 80.94C57.1801 81.08 57.0901 81.22 57.0001 81.37C56.7801 81.81 56.6101 82.21 56.4701 82.59C56.3201 83 56.1401 83.36 55.9501 83.66C55.8601 83.79 55.7701 83.92 55.6701 84.04L55.5401 84.21C55.4901 84.28 55.4301 84.35 55.3801 84.42C55.3201 84.49 55.2601 84.57 55.2101 84.65C55.1601 84.72 55.1201 84.79 55.0701 84.86C55.0001 84.97 54.9301 85.09 54.8501 85.18C54.7101 85.34 54.5701 85.47 54.4201 85.6L54.2801 85.73C54.1001 85.89 53.9301 86.03 53.7601 86.15C53.6501 86.22 53.5501 86.31 53.4501 86.39C53.3501 86.47 53.2501 86.55 53.1401 86.63C52.8901 86.8 52.6301 86.96 52.3201 87.12L52.2301 87.17C52.0601 87.26 51.8901 87.34 51.7101 87.41C51.4101 87.52 51.1201 87.57 50.8101 87.62C50.5901 87.66 50.3901 87.72 50.1901 87.77L49.9501 87.84C49.8401 87.87 49.7301 87.9 49.6201 87.92C49.4801 87.95 49.3301 87.99 49.1901 88.03C48.9201 88.11 48.6701 88.17 48.4301 88.21C48.2901 88.23 48.1601 88.24 48.0201 88.26C47.9101 88.27 47.7901 88.28 47.6801 88.3C47.5401 88.32 47.4001 88.35 47.2601 88.38C47.1301 88.41 47.0101 88.44 46.8801 88.46L46.7501 88.48C46.5901 88.5 46.4301 88.52 46.2701 88.56L46.2101 88.58C46.0301 88.64 45.8601 88.71 45.6701 88.75C45.4801 88.8 45.2901 88.86 45.1001 88.91C45.0201 88.94 44.9401 88.96 44.8601 88.99C44.6801 89.05 44.4901 89.13 44.3101 89.21L44.1601 89.27C44.0301 89.32 43.9001 89.35 43.7801 89.35C43.5301 89.35 43.3001 89.25 43.1301 89.06C42.9801 88.89 42.9001 88.65 42.9201 88.41C42.9401 88.18 43.0401 87.98 43.2101 87.84C43.2901 87.78 43.3701 87.72 43.4501 87.67L43.5601 87.6C43.7501 87.47 43.9401 87.33 44.1201 87.18C44.2601 87.07 44.4001 86.94 44.5401 86.82L44.7001 86.68C44.8301 86.57 44.9701 86.45 45.0901 86.33C45.1501 86.25 45.2001 86.18 45.2501 86.1C45.2901 86 45.3301 85.89 45.3501 85.79C45.3701 85.7 45.3801 85.61 45.3901 85.52C45.4101 85.38 45.4301 85.25 45.4601 85.11C45.5101 84.88 45.5301 84.63 45.5201 84.31C45.5101 84.11 45.4901 83.94 45.4501 83.77L45.3901 83.63C45.3601 83.55 45.3301 83.47 45.3001 83.39C45.2301 83.18 45.1701 83.02 45.1001 82.86C44.9901 82.59 44.9001 82.36 44.8201 82.11C44.7901 82.02 44.7701 81.93 44.7501 81.84L44.7001 81.63C44.6601 81.51 44.6101 81.39 44.5601 81.26L44.4401 80.96C44.3701 80.76 44.3101 80.56 44.2501 80.35L44.1901 80.13C44.1501 80.02 44.1001 79.91 44.0501 79.79C44.0001 79.67 43.9401 79.54 43.9001 79.42C43.8301 79.22 43.7501 79.02 43.6901 78.81C43.6401 78.75 43.6101 78.75 43.5701 78.75C43.3701 78.74 43.1801 78.7 43.0001 78.67L42.8601 78.65C42.2501 78.55 41.6401 78.42 41.0501 78.29C40.8001 78.24 40.5701 78.21 40.3301 78.17L39.9901 78.12C39.6201 78.06 39.2601 77.97 38.9001 77.89L38.6301 77.83H38.6501C38.1501 77.72 37.5701 77.58 37.0201 77.38C36.8601 77.32 36.6901 77.27 36.5201 77.23L36.2501 77.15C36.0501 77.09 35.8501 77.01 35.6501 76.94L35.5001 76.88C35.3601 76.83 35.2201 76.78 35.0801 76.74C34.9501 76.7 34.8101 76.65 34.6801 76.61L34.4701 76.53C34.2701 76.45 34.0701 76.38 33.8701 76.3C33.4601 76.13 33.0601 75.92 32.6801 75.71L32.4701 75.6C32.1201 75.43 31.7801 75.26 31.4301 75.08C31.1901 74.97 30.9501 74.88 30.7001 74.78L30.5301 74.72C30.3801 74.66 30.2301 74.6 30.0801 74.53C29.9301 74.47 29.7801 74.4 29.6301 74.34L29.4601 74.28C29.2001 74.18 28.9201 74.08 28.6701 73.94C28.5501 73.87 28.4301 73.79 28.3201 73.71C28.2201 73.64 28.1301 73.57 28.0301 73.51L27.8101 73.41C27.6701 73.35 27.5301 73.28 27.4001 73.21C27.1801 73.1 27.0001 72.95 26.7901 72.79C26.4101 72.48 26.0201 72.23 25.6501 72.03L25.7601 72.07C25.4601 71.92 25.1901 71.77 24.9401 71.62C24.8801 71.58 24.8301 71.54 24.7701 71.5C24.6101 71.69 24.4501 71.84 24.2701 71.97C24.0601 72.13 23.8201 72.26 23.6001 72.39L23.4001 72.51C22.9601 72.77 22.4901 72.99 22.0401 73.21L21.6301 73.4L21.1701 73.62L20.9201 73.74C20.9101 73.78 20.9001 73.82 20.8901 73.86C20.8501 74 20.7501 74.13 20.6701 74.25C20.4501 74.56 20.2501 74.8 20.0301 74.98C19.8701 75.12 19.6801 75.23 19.4901 75.34L19.3001 75.46C19.2101 75.52 19.1101 75.58 19.0201 75.63C18.7001 75.81 18.3501 76 17.9301 76.19C17.7601 76.27 17.5801 76.34 17.4001 76.41C17.2801 76.46 17.1601 76.51 17.0401 76.56C16.9101 76.62 16.7801 76.67 16.6501 76.72C16.5101 76.77 16.3701 76.83 16.2301 76.89C15.9201 77.02 15.6101 77.12 15.3101 77.21C14.9001 77.34 14.4701 77.44 14.0601 77.54L13.8101 77.6C13.5601 77.66 13.3001 77.72 13.0501 77.76C12.9201 77.83 12.8201 77.85 12.7201 77.87Z" fill="#361FAA"/>
<path d="M87.8099 42.69C87.6099 42.63 87.4299 42.56 87.2399 42.48C86.9099 42.34 86.6599 42.04 86.5199 41.6C86.4499 41.4 86.4599 41.15 86.4599 40.94C86.4599 40.72 86.4699 40.52 86.4899 40.32C86.4999 40.14 86.5099 39.97 86.5199 39.79C86.5299 39.58 86.5399 39.38 86.5499 39.17C86.5999 38.51 86.6499 37.84 86.6599 37.17C86.6699 36.81 86.6699 36.44 86.6699 36.08C86.6699 35.94 86.6699 35.8 86.6699 35.65C86.6699 35.38 86.6599 35.11 86.6799 34.84C86.6899 34.68 86.7099 34.52 86.7499 34.36C86.7899 34.18 86.8899 34.01 86.9799 33.85C87.0699 33.69 87.1699 33.55 87.2799 33.4L87.3399 33.31C87.5799 32.96 87.8699 32.61 88.2199 32.24C88.6399 31.8 89.1199 31.41 89.5699 31.03C89.7499 30.88 89.9399 30.72 90.1199 30.56L90.2199 30.47C90.5199 30.21 90.8199 29.95 91.1399 29.7C91.4199 29.49 91.7399 29.28 92.1399 29.05C92.4599 28.87 92.7899 28.7 93.1199 28.54C93.2599 28.47 93.3999 28.41 93.5499 28.34C93.6999 28.27 93.8399 28.21 93.9799 28.14L94.0299 28.11C94.1399 28.06 94.2399 28 94.3499 27.95C94.4599 27.9 94.5799 27.86 94.6899 27.82L94.7699 27.79C94.8599 27.73 94.9399 27.7 95.0099 27.68L95.0799 27.65C95.1399 27.63 95.2199 27.62 95.2899 27.62C95.3999 27.62 95.4999 27.64 95.5999 27.66C95.8199 27.7 96.0199 27.89 96.1199 28.06C96.1699 28.15 96.2099 28.25 96.2199 28.35C96.4399 28.47 96.6099 28.58 96.7699 28.7C96.9699 28.85 97.1499 29.01 97.3399 29.17L97.5399 29.34C97.7099 29.46 97.8799 29.57 98.0599 29.68C98.2299 29.79 98.3899 29.89 98.5499 30.01C98.9799 30.32 99.3299 30.65 99.6399 31.04C99.8599 31.32 100.12 31.6 100.43 31.9C100.52 31.99 100.62 32.08 100.71 32.17C100.87 32.33 101.03 32.49 101.2 32.63L101.28 32.69C101.49 32.86 101.69 33 101.85 33.18L101.91 33.25C102.19 33.26 102.53 33.39 102.67 33.69C102.78 33.92 102.83 34.17 102.89 34.42L102.93 34.62C103.01 34.97 103.09 35.32 103.16 35.67C103.22 35.98 103.29 36.3 103.36 36.61C103.47 37.12 103.58 37.62 103.67 38.13C103.81 38.96 103.89 39.77 103.9 40.54C103.9 40.83 103.92 41.11 103.94 41.4C103.97 41.72 103.94 42.05 103.85 42.42C103.77 42.74 103.61 43.04 103.37 43.26C103.19 43.43 102.96 43.56 102.64 43.67C102.53 43.71 102.41 43.74 102.3 43.77C102.15 43.81 102 43.86 101.85 43.91C101.53 44.06 101.23 44.27 100.93 44.46L100.82 44.54C100.62 44.67 100.42 44.79 100.22 44.91C100.01 45.03 99.8299 45.15 99.6099 45.32C99.3599 45.51 99.0999 45.71 98.7799 45.87C98.4899 46.02 98.1699 46.16 97.8199 46.3C97.6599 46.36 97.4899 46.42 97.3199 46.48C97.0699 46.57 96.8099 46.67 96.5599 46.77C96.4299 46.82 96.3299 46.87 96.2299 46.9C96.1199 46.94 96.0199 46.95 95.8999 46.95C95.6499 46.95 95.3999 46.86 95.1699 46.76C94.9399 46.66 94.7299 46.53 94.5199 46.41L94.2799 46.27C93.9699 46.09 93.6099 45.88 93.2599 45.64C92.9699 45.45 92.6699 45.26 92.3299 45.07L92.2099 45C91.9399 44.85 91.6699 44.69 91.4099 44.52L91.0099 44.25C90.8099 44.11 90.5999 43.98 90.3899 43.84C89.8099 43.48 89.1899 43.2 88.5899 42.94C88.3399 42.85 88.0799 42.77 87.8099 42.69Z" fill="#361FAA"/>
<path d="M99.9301 12.13C99.7501 12.24 99.5701 12.35 99.4001 12.47C99.2601 12.56 99.1301 12.65 98.9901 12.74C98.8001 12.85 98.6101 12.96 98.4301 13.07L98.1001 13.26C98.0601 13.28 98.0201 13.31 97.9801 13.34C97.9301 13.37 97.8901 13.4 97.8401 13.43C97.6201 13.56 97.3701 13.63 97.0901 13.66C97.0501 13.66 97.0101 13.67 96.9701 13.67C96.7601 13.67 96.5301 13.62 96.2501 13.51C95.8901 13.37 95.5501 13.2 95.2101 13.02C94.9701 12.89 94.7201 12.77 94.4701 12.66C94.1801 12.54 93.8601 12.42 93.5201 12.35C93.1801 12.29 92.8801 12.23 92.5901 12.13C92.5101 12.11 92.4401 12.08 92.3601 12.04C92.1801 12.01 92.0201 11.92 91.8901 11.8L91.8401 11.74C91.5901 11.52 91.4201 11.22 91.3701 10.89C91.3301 10.64 91.3101 10.42 91.3201 10.21C91.3201 10.08 91.3301 9.94001 91.3501 9.80001L91.3701 9.56001L91.4001 9.23001C91.4201 8.96001 91.4501 8.70002 91.4601 8.43002C91.4801 8.04002 91.4801 7.65001 91.4801 7.26002C91.4801 7.05001 91.4701 6.85001 91.4501 6.65001L91.4301 6.40001C91.4101 6.07001 91.4701 5.74002 91.6001 5.40001C91.7001 5.15001 91.8001 4.90001 91.9401 4.67001C92.1901 4.26001 92.5901 3.97001 93.0401 3.86001C93.1101 3.84001 93.1901 3.83001 93.2601 3.83001C93.3001 3.83001 93.3401 3.83001 93.3801 3.84001L93.4301 3.71001L93.4901 3.58001C93.5701 3.38001 93.6601 3.18001 93.7601 2.99001C93.8001 2.91001 93.8401 2.84001 93.8901 2.77001C93.9301 2.71001 93.9601 2.64001 94.0001 2.58001L94.0401 2.51001C94.1101 2.39001 94.1801 2.26001 94.2401 2.14001C94.2801 2.01001 94.3101 1.93001 94.3601 1.84001C94.4901 1.58001 94.8201 1.39001 95.1301 1.39001H95.1401C95.3501 1.39001 95.4801 1.45001 95.6801 1.54001C95.8001 1.59001 95.9201 1.66001 96.0301 1.73001L96.2401 1.84001C96.5201 1.99001 96.7701 2.13001 97.0001 2.29001C97.3101 2.51001 97.6101 2.74001 97.9101 2.97001L97.8301 2.92001C98.2101 3.22001 98.5701 3.54001 98.9201 3.86001C99.0701 3.99001 99.2101 4.12001 99.3601 4.25001C99.6201 4.48001 99.8201 4.70001 100.02 4.95001C100.08 5.03001 100.13 5.12001 100.19 5.21001C100.23 5.27001 100.26 5.32001 100.3 5.38001L100.38 5.48001C100.54 5.68001 100.64 5.85001 100.75 6.12001C100.83 6.29001 100.85 6.50001 100.87 6.68001C100.9 6.93001 100.92 7.14002 100.94 7.34001L100.97 7.75001C100.99 7.97001 101.01 8.20002 101.03 8.42001L101.07 8.78001C101.1 9.05001 101.13 9.31001 101.15 9.58001C101.16 9.67001 101.17 9.76001 101.18 9.85001C101.19 9.97001 101.2 10.09 101.21 10.21C101.23 10.56 101.12 10.94 100.92 11.25C100.69 11.59 100.39 11.86 99.9301 12.13Z" fill="#361FAA"/>
<path d="M78.69 19.55C78.66 19.87 78.62 20.21 78.56 20.53C78.51 20.75 78.44 20.97 78.33 21.19C78.26 21.34 78.12 21.49 77.99 21.61L77.86 21.73L77.67 21.91C77.43 22.12 77.22 22.36 77 22.59L76.88 22.72C76.66 22.95 76.44 23.18 76.21 23.4L76.04 23.57C75.96 23.65 75.89 23.74 75.81 23.83C75.57 24.16 75.39 24.45 75.25 24.75C75.2 24.89 75.15 25.02 75.11 25.16L75.02 25.41C74.96 25.59 74.89 25.76 74.79 25.92C74.56 26.27 74.22 26.48 73.89 26.48C73.8 26.48 73.71 26.46 73.63 26.43C73.33 26.32 73.14 26.11 72.94 25.89L72.82 25.76C72.59 25.51 72.31 25.3 72.05 25.09C71.7 24.82 71.37 24.62 71.03 24.46C70.85 24.37 70.68 24.27 70.51 24.16C70.36 24.06 70.2 23.96 70.04 23.88C69.95 23.84 69.85 23.81 69.76 23.78C69.54 23.72 69.4 23.62 69.23 23.49C69.09 23.38 69.01 23.19 68.95 23.03L68.93 22.97C68.87 22.81 68.85 22.64 68.82 22.47C68.79 22.26 68.76 22.07 68.74 21.88L68.72 21.69L68.73 21.73L68.7 21.57L68.65 21.23L68.63 21.09V21.04V21C68.63 21 68.63 20.99 68.63 20.98V20.97C68.63 20.96 68.63 20.95 68.63 20.95V20.92L68.58 20.64L68.52 20.14C68.5 20.02 68.49 19.9 68.48 19.78C68.44 19.49 68.39 19.23 68.35 18.98L68.32 18.83C68.28 18.63 68.24 18.4 68.3 18.18C68.4 17.84 68.62 17.65 68.82 17.5C68.96 17.39 69.12 17.31 69.27 17.23C69.62 17.04 69.92 16.84 70.22 16.65C70.37 16.55 70.53 16.45 70.68 16.35C70.93 16.19 71.17 16.07 71.41 15.97C71.51 15.93 71.61 15.89 71.71 15.86L71.8 15.83C72 15.73 72.22 15.6 72.43 15.45L72.56 15.33C72.67 15.23 72.78 15.13 72.91 15.05C73.03 14.97 73.18 14.93 73.33 14.93C73.64 14.93 73.94 15.1 74.1 15.36C74.12 15.4 74.14 15.44 74.16 15.48C74.33 15.54 74.48 15.59 74.63 15.62C74.84 15.64 75.05 15.64 75.26 15.65C75.51 15.66 75.77 15.66 76.02 15.69C76.29 15.72 76.58 15.76 76.86 15.86C77.05 15.93 77.24 16.02 77.43 16.11C77.51 16.14 77.59 16.16 77.67 16.17C77.74 16.18 77.82 16.19 77.89 16.2C78.08 16.23 78.26 16.32 78.43 16.47C78.71 16.71 78.76 17.07 78.79 17.38C78.82 17.65 78.82 17.94 78.8 18.23C78.78 18.62 78.74 19.01 78.7 19.4L78.69 19.55Z" fill="#361FAA"/>
<path d="M49.4302 80.22H49.4202L49.4302 80.21V80.22Z" fill="#0D003A"/>
<path d="M9.72021 67.05C9.72021 67.05 9.71021 67.05 9.71021 67.06C9.70021 67.06 9.69022 67.07 9.69022 67.07C9.69022 67.07 9.70021 67.06 9.72021 67.05Z" fill="#0D003A"/>
<path d="M9.62012 67.1C9.61012 67.1 9.60012 67.11 9.59012 67.11C9.56012 67.13 9.52012 67.15 9.48012 67.17C9.53012 67.15 9.58012 67.12 9.62012 67.1Z" fill="#0D003A"/>
<path d="M6.1001 50.95C6.1001 50.94 6.1001 50.94 6.1001 50.93C6.0901 50.93 6.1001 50.94 6.1001 50.95C6.1001 50.94 6.1001 50.94 6.1001 50.95Z" fill="#0D003A"/>
<path d="M7.12993 56.52C7.12993 56.54 7.13993 56.56 7.14993 56.58C7.15993 56.61 7.15992 56.63 7.16992 56.66C7.14992 56.62 7.13993 56.57 7.12993 56.52Z" fill="#0D003A"/>
<path d="M7.07031 56.25C7.07031 56.23 7.06032 56.22 7.06032 56.2C7.06032 56.21 7.06031 56.23 7.07031 56.25C7.07031 56.24 7.07031 56.25 7.07031 56.25Z" fill="#0D003A"/>
<path d="M6.1001 50.97C6.1001 50.96 6.1001 50.95 6.0901 50.94C6.1001 50.95 6.1001 50.96 6.1001 50.97Z" fill="#0D003A"/>
<path d="M58.8201 57.39L58.8301 57.4V57.39H58.8201Z" fill="#0D003A"/>
<path d="M49.4502 72.15C49.4402 72.14 49.4402 72.14 49.4402 72.13C49.4402 72.14 49.4502 72.15 49.4502 72.15Z" fill="#0D003A"/>
<path d="M63.7503 58.29C63.7703 58.29 63.7803 58.3 63.8003 58.3C63.7903 58.3 63.7903 58.3 63.7803 58.3C63.7703 58.29 63.7603 58.29 63.7503 58.29Z" fill="#0D003A"/>
<path d="M50.77 60.36C50.3 60.36 49.89 60.03 49.86 59.54C49.84 59.09 50.21 58.63 50.68 58.63C51.15 58.63 51.56 58.96 51.59 59.45C51.61 59.91 51.24 60.36 50.77 60.36Z" fill="#0D003A"/>
<path d="M47.9702 64.27C47.5002 64.27 47.0902 63.94 47.0602 63.45C47.0402 63 47.4102 62.54 47.8802 62.54C48.3502 62.54 48.7602 62.87 48.7902 63.36C48.8102 63.82 48.4402 64.27 47.9702 64.27Z" fill="#0D003A"/>
<path d="M47.9903 66.32C47.5203 66.32 47.1103 65.99 47.0803 65.5C47.0603 65.05 47.4303 64.59 47.9003 64.59C48.3703 64.59 48.7803 64.92 48.8103 65.41C48.8303 65.87 48.4603 66.32 47.9903 66.32Z" fill="#0D003A"/>
<path d="M69.6499 68.11C70.1099 68.21 70.4099 68.68 70.3099 69.14C70.3099 69.16 70.2999 69.18 70.2999 69.19C70.1999 69.65 69.7299 69.95 69.2699 69.85C68.8099 69.75 68.5099 69.28 68.6099 68.82C68.6099 68.8 68.6199 68.78 68.6199 68.77C68.7099 68.37 69.0699 68.09 69.4599 68.09C69.5199 68.09 69.5899 68.09 69.6499 68.11Z" fill="#0D003A"/>
<path d="M50.04 50.39C50.02 50.39 50 50.39 49.98 50.4C50 50.39 50.02 50.39 50.04 50.39Z" fill="#0D003A"/>
<path d="M48.29 49.92C48.26 49.91 48.23 49.9 48.21 49.89C48.19 49.88 48.18 49.87 48.16 49.87C48.2 49.88 48.25 49.9 48.29 49.92Z" fill="#0D003A"/>
<path d="M12.3801 51.04C12.4601 51.05 12.5301 51.06 12.6001 51.07C12.5301 51.07 12.4501 51.05 12.3801 51.04Z" fill="#0D003A"/>
<path d="M38.6899 45.34L38.6799 45.33L38.6899 45.34Z" fill="#0D003A"/>
<path d="M15.46 51.77C15.46 51.78 15.46 51.78 15.46 51.77C15.48 51.78 15.49 51.78 15.5 51.79C15.49 51.79 15.47 51.78 15.46 51.77Z" fill="#0D003A"/>
<path d="M12.8599 64.05C12.8299 64.03 12.8099 64.01 12.7799 63.99C12.7499 63.97 12.7199 63.94 12.6799 63.92C12.7399 63.96 12.7999 64.01 12.8599 64.05Z" fill="#0D003A"/>
<path d="M21.5803 75.03C21.6003 75.01 21.6303 74.99 21.6503 74.98C21.6903 74.95 21.7203 74.93 21.7603 74.9C21.6903 74.94 21.6303 74.98 21.5803 75.03Z" fill="#0D003A"/>
<path d="M41.18 79.22C41.21 79.23 41.25 79.23 41.28 79.23H41.29C41.26 79.23 41.22 79.22 41.18 79.22Z" fill="#0D003A"/>
<path d="M54.0402 86.56C54.0602 86.55 54.0702 86.53 54.0902 86.52C54.1302 86.49 54.1802 86.46 54.2202 86.42C54.1602 86.47 54.1002 86.52 54.0402 86.56Z" fill="#0D003A"/>
<path d="M86.0902 70.04C85.4402 70.46 84.7902 70.88 84.1202 71.27C83.4402 71.66 82.7702 72.06 82.0902 72.43C81.3902 72.81 80.7002 73.21 80.0002 73.6C79.6402 73.8 79.2802 74 78.9102 74.2C78.5102 74.41 78.1102 74.59 77.7002 74.77C77.3202 74.94 76.9502 75.11 76.5802 75.3C76.1402 75.53 75.6802 75.7 75.2202 75.87C74.8002 76.03 74.3702 76.17 73.9502 76.33C73.5502 76.48 73.1602 76.64 72.7702 76.77C72.4302 76.89 72.0802 77 71.7502 77.12C71.4402 77.23 71.1302 77.35 70.8202 77.46C70.8202 77.46 70.8102 77.46 70.8102 77.47H70.8202C70.8102 77.47 70.8002 77.47 70.8002 77.48C70.7902 77.48 70.7702 77.49 70.7602 77.5C70.7802 77.49 70.7902 77.49 70.8102 77.48C70.7902 77.49 70.7802 77.49 70.7602 77.5C70.7602 77.5 70.7602 77.5 70.7502 77.5C70.0002 77.77 69.2402 78.05 68.4802 78.28C68.3802 78.31 68.2802 78.33 68.1802 78.36C67.5702 78.57 66.9602 78.8 66.3402 78.98C65.8102 79.14 65.2502 79.24 64.7102 79.37C64.1102 79.51 63.5102 79.65 62.9002 79.74C62.6302 79.78 62.3602 79.83 62.0802 79.86C61.7802 79.9 61.4802 79.92 61.1802 79.95C60.5702 80.01 59.9702 80.1 59.3602 80.16C59.0302 80.19 58.7102 80.22 58.3802 80.23C58.3002 80.45 58.2202 80.66 58.1302 80.88C58.0002 81.21 57.8502 81.53 57.6902 81.85C57.5602 82.11 57.4402 82.37 57.2902 82.62C57.1102 82.94 56.9102 83.25 56.7202 83.56C56.5202 83.88 56.2902 84.2 56.0502 84.5C55.8502 84.75 55.6102 84.98 55.3902 85.21C55.1802 85.44 54.9702 85.67 54.7702 85.9C54.5602 86.14 54.3302 86.33 54.0902 86.53C53.8602 86.71 53.6302 86.89 53.3902 87.06C53.1402 87.24 52.9002 87.42 52.6402 87.59C52.5902 87.62 52.5302 87.65 52.4802 87.68C52.4502 87.7 52.4202 87.73 52.3902 87.75C52.3102 87.8 52.2202 87.83 52.1402 87.87C51.7702 88.06 51.3902 88.24 51.0302 88.44C50.6802 88.63 50.3002 88.77 49.9202 88.91C49.6202 89.02 49.3102 89.15 49.0002 89.21C48.6802 89.28 48.3602 89.32 48.0402 89.38C47.6302 89.46 47.2302 89.55 46.8202 89.59C46.4802 89.62 46.1302 89.64 45.7902 89.68C45.6202 89.7 45.4502 89.72 45.2802 89.73C44.9902 89.77 44.7002 89.82 44.4102 89.84C44.0802 89.87 43.7502 89.89 43.4202 89.91C43.2102 89.95 43.0202 90.01 42.8102 90.05C42.6302 90.09 42.4402 90.12 42.2602 90.06C42.1102 90.02 41.9802 89.94 41.8702 89.84C41.8702 89.84 41.8602 89.84 41.8602 89.83C41.7002 89.73 41.6002 89.56 41.5802 89.38C41.5802 89.34 41.6002 89.3 41.6102 89.25C41.6002 88.96 41.7302 88.69 41.9502 88.49C42.1702 88.3 42.4002 88.12 42.6102 87.92C42.8602 87.68 43.0802 87.41 43.2902 87.14C43.4902 86.88 43.6902 86.61 43.8602 86.32C44.0202 86.05 44.1502 85.77 44.2802 85.48C44.3702 85.26 44.4302 85.04 44.4802 84.81C44.5002 84.6 44.5102 84.4 44.5102 84.19C44.5102 84.13 44.5202 84.08 44.5302 84.02C44.5202 83.79 44.4902 83.57 44.4502 83.34C44.4302 83.27 44.4102 83.2 44.3902 83.13C44.3702 83.08 44.3502 83.03 44.3302 82.97C44.2302 82.76 44.1102 82.57 43.9802 82.37C43.8602 82.18 43.7602 81.97 43.6702 81.77C43.5402 81.5 43.4402 81.22 43.3302 80.95C43.2402 80.72 43.2002 80.48 43.1702 80.23C43.1602 80.17 43.1502 80.11 43.1402 80.05C43.1202 80 43.1002 79.95 43.0902 79.89C43.0502 79.77 43.0302 79.65 43.0102 79.53C43.0002 79.46 42.9902 79.38 42.9902 79.31C42.9602 79.3 42.9302 79.3 42.9002 79.29C42.7902 79.27 42.6702 79.24 42.5602 79.22C42.4402 79.28 42.3102 79.33 42.1702 79.32C41.8802 79.3 41.6002 79.26 41.3102 79.22C40.9502 79.17 40.6002 79.08 40.2402 79.03C40.3002 79.04 40.3502 79.05 40.4102 79.05C39.9202 78.98 39.4502 78.86 38.9602 78.79C38.4802 78.72 38.0102 78.57 37.5402 78.44C37.0802 78.31 36.6002 78.24 36.1602 78.06C35.7002 77.88 35.2602 77.66 34.8202 77.46C34.5102 77.34 34.1902 77.24 33.8702 77.13C33.4802 77 33.1002 76.83 32.7202 76.67C32.1202 76.4 31.5302 76.1 30.9202 75.84C30.3602 75.61 29.8102 75.36 29.2702 75.1C28.7502 74.86 28.2602 74.58 27.7602 74.31C27.2902 74.06 26.8202 73.8 26.3402 73.56C26.1002 73.44 25.8702 73.32 25.6302 73.21C25.4002 73.1 25.1802 72.97 24.9402 72.87C24.8602 72.84 24.7702 72.81 24.6802 72.79C24.6502 72.79 24.6202 72.79 24.5802 72.79C24.5402 72.8 24.5102 72.81 24.4702 72.82C24.3402 72.88 24.2202 72.95 24.1002 73.04C23.9502 73.15 23.7802 73.23 23.6302 73.34C23.4502 73.49 23.2702 73.65 23.1002 73.82C22.8402 74.07 22.5402 74.3 22.2502 74.52C22.1602 74.59 22.0702 74.66 21.9902 74.72C22.0502 74.68 22.1102 74.63 22.1702 74.59C22.0102 74.72 21.8402 74.85 21.6802 74.98C21.0702 75.45 20.4202 75.89 19.7402 76.25C19.0902 76.6 18.4302 76.95 17.7902 77.31C17.0602 77.72 16.2702 78.05 15.4702 78.3C14.7202 78.53 13.9602 78.71 13.1802 78.78C12.6002 78.84 12.0102 78.89 11.4302 78.89C11.1602 78.89 10.8902 78.89 10.6102 78.89C10.3502 78.91 10.0902 78.94 9.82023 78.95C9.54023 78.96 9.26023 78.96 8.98023 78.95C8.67023 78.95 8.37023 78.94 8.06023 78.91C7.94023 78.9 7.82024 78.88 7.70023 78.86C7.58023 78.86 7.46024 78.86 7.34023 78.86C6.56023 78.83 5.79023 78.76 5.02023 78.64C4.83023 78.61 4.64024 78.58 4.45023 78.54C4.24023 78.49 4.02023 78.43 3.80023 78.38C3.41023 78.29 3.02023 78.22 2.63023 78.12C2.30023 78.03 1.96024 77.94 1.63023 77.83C1.61024 77.82 1.59023 77.81 1.56023 77.8C1.30023 77.75 1.06023 77.7 0.810234 77.63C0.570236 77.56 0.300232 77.5 0.140228 77.28C0.0202255 77.1 0.000236511 76.87 0.0902328 76.67C0.180229 76.49 0.350227 76.38 0.54023 76.31C0.770233 76.23 1.00023 76.18 1.23023 76.1C1.48023 76.01 1.73022 75.91 1.96023 75.8C2.16022 75.69 2.36024 75.58 2.56023 75.46C2.68024 75.39 2.79023 75.29 2.89023 75.21C3.11023 75.01 3.31023 74.81 3.52023 74.59C3.56023 74.55 3.60023 74.5 3.64023 74.45C3.80023 74.25 3.94023 74.04 4.08023 73.84C4.41023 73.3 4.68023 72.74 4.96023 72.17C5.12023 71.85 5.31023 71.56 5.50023 71.26C5.72023 70.91 5.95023 70.57 6.18023 70.23C6.37023 69.93 6.56023 69.64 6.78023 69.37C7.01023 69.09 7.28024 68.84 7.55023 68.59L7.54023 68.6C7.55023 68.59 7.56023 68.58 7.58023 68.57C7.60023 68.55 7.63023 68.53 7.65023 68.5C7.64023 68.51 7.63023 68.52 7.62023 68.53C7.92023 68.26 8.24023 68.01 8.56023 67.77C8.89024 67.52 9.25023 67.31 9.62023 67.11C9.62023 67.11 9.63023 67.11 9.63023 67.1C9.66023 67.08 9.69023 67.07 9.72023 67.05C10.3502 66.72 10.9902 66.4 11.6502 66.12C11.9002 66.01 12.1502 65.91 12.4002 65.8C12.1802 65.66 11.9802 65.51 11.7802 65.35C11.7202 65.31 11.6602 65.26 11.6002 65.22C11.6602 65.26 11.7202 65.31 11.7802 65.35C11.5802 65.2 11.3802 65.06 11.1802 64.9C10.9802 64.74 10.8302 64.53 10.6802 64.33C10.5502 64.14 10.4402 63.93 10.3102 63.74C10.2002 63.57 10.0902 63.4 9.97023 63.24C9.83023 63.07 9.69023 62.9 9.56023 62.72C9.36024 62.46 9.21024 62.19 9.06023 61.9C8.83023 61.46 8.61023 61.02 8.40023 60.58C8.16023 60.09 7.94023 59.59 7.77023 59.07C7.63023 58.66 7.57023 58.24 7.51023 57.81C7.50023 57.73 7.47023 57.65 7.46023 57.57C7.46023 57.56 7.45023 57.54 7.45023 57.53C7.34023 57.21 7.24023 56.9 7.17023 56.57C7.17023 56.56 7.17023 56.55 7.16023 56.54C7.14024 56.44 7.11023 56.33 7.09023 56.23C7.09023 56.24 7.10023 56.26 7.10023 56.27C7.10023 56.25 7.09023 56.24 7.09023 56.22C7.08023 56.19 7.08023 56.15 7.07023 56.12C7.07023 56.14 7.08023 56.16 7.08023 56.18C7.06023 56.1 7.04023 56.01 7.02023 55.93C7.02023 55.95 7.03023 55.97 7.03023 55.99C6.94023 55.6 6.86023 55.22 6.79023 54.83C6.72023 54.5 6.69023 54.16 6.65023 53.82C6.63023 53.6 6.58023 53.38 6.54023 53.17C6.49023 52.96 6.46023 52.75 6.43023 52.54C6.36023 52.13 6.30022 51.71 6.21023 51.3C6.18023 51.18 6.15023 51.06 6.12023 50.94C6.12023 50.93 6.12023 50.93 6.12023 50.92C6.12023 50.91 6.12023 50.91 6.12023 50.9C6.10023 50.8 6.08023 50.71 6.06023 50.61C6.07024 50.66 6.08023 50.71 6.09023 50.76C6.04023 50.54 5.96023 50.32 5.87023 50.1C5.76023 50 5.66023 49.89 5.55023 49.79C5.36023 49.62 5.20023 49.35 5.16023 49.08C4.95023 48.93 4.87023 48.61 4.98023 48.38C5.04023 48.25 5.16023 48.14 5.30023 48.09C5.36023 48.07 5.42023 48.06 5.49023 48.06C5.50024 48.06 5.52023 48.07 5.53023 48.07C5.63023 47.99 5.74023 47.92 5.87023 47.86C5.83023 47.88 5.79023 47.9 5.75023 47.91C5.79023 47.89 5.83023 47.87 5.88023 47.86C5.91023 47.85 5.93023 47.84 5.96023 47.83C5.94023 47.84 5.91022 47.85 5.89023 47.86C6.09023 47.78 6.28024 47.72 6.49023 47.72C6.52023 47.72 6.54023 47.72 6.57023 47.72C6.77023 47.73 6.96024 47.79 7.16023 47.82C7.76023 47.9 8.34023 48.07 8.94023 48.18C9.57023 48.29 10.1902 48.47 10.8202 48.61C11.4902 48.77 12.1802 48.88 12.8302 49.1C13.1402 49.2 13.4402 49.32 13.7602 49.4C14.0402 49.47 14.3102 49.55 14.5902 49.62C14.7402 49.66 14.8902 49.7 15.0302 49.74C15.2602 49.79 15.5002 49.84 15.7302 49.91C16.3702 50.11 16.9902 50.37 17.5902 50.66C18.2202 50.97 18.8402 51.31 19.4702 51.63C19.7602 51.77 20.0502 51.91 20.3402 52.05C20.4802 52.12 20.6302 52.2 20.7602 52.28C20.9102 52.38 21.0402 52.49 21.1802 52.59C21.2602 52.65 21.3402 52.71 21.4102 52.77C21.9202 53.16 22.4502 53.52 22.9302 53.96C23.3502 54.35 23.7702 54.75 24.1802 55.15C24.4102 55.37 24.6302 55.59 24.8502 55.82C25.0902 56.07 25.3602 56.29 25.6002 56.54C26.0302 56.99 26.3102 57.54 26.6602 58.05C26.7402 58.01 26.8102 57.97 26.8902 57.92C26.9402 57.83 27.0102 57.75 27.1102 57.71C27.2702 57.63 27.4402 57.57 27.6102 57.5C27.6402 57.49 27.6702 57.47 27.7002 57.46C27.7102 57.45 27.7202 57.45 27.7302 57.44C27.7402 57.44 27.7502 57.43 27.7602 57.43C27.7702 57.42 27.7902 57.41 27.8002 57.41C27.9102 57.34 28.0302 57.27 28.1502 57.21C28.3402 57.1 28.5202 56.98 28.7202 56.88C28.9102 56.78 29.1202 56.7 29.3202 56.62C29.4902 56.55 29.6702 56.49 29.8402 56.42C29.9102 56.39 29.9902 56.35 30.0602 56.32C30.3502 56.14 30.6302 55.95 30.9202 55.76C31.2902 55.51 31.6802 55.32 32.0702 55.12C32.2802 55.01 32.4802 54.9 32.6802 54.79C32.9302 54.65 33.2002 54.54 33.4602 54.43C33.7702 54.29 34.0902 54.15 34.4202 54.07C34.4202 54.05 34.4102 54.03 34.4102 54.01C34.3802 53.85 34.3102 53.71 34.2602 53.56C34.1802 53.33 34.1702 53.08 34.1402 52.84C34.0902 52.43 34.1202 52 34.1002 51.59C34.0802 51.37 34.0402 51.15 34.0402 50.92C34.0302 50.69 34.0202 50.46 33.9902 50.24C33.9902 50.27 34.0002 50.31 34.0002 50.34C33.9702 50.08 33.9502 49.81 33.9202 49.55C33.9002 49.41 33.8802 49.27 33.8702 49.13C33.8702 49.02 33.8602 48.9 33.8502 48.79C33.8202 48.64 33.7802 48.48 33.7502 48.33C33.7102 48.15 33.6902 47.96 33.6402 47.78C33.5902 47.68 33.5302 47.58 33.4902 47.47C33.4102 47.29 33.3502 47.11 33.2902 46.92C33.2302 46.81 33.1702 46.72 33.1002 46.62C33.0102 46.49 32.9402 46.35 32.8602 46.21C32.7302 45.98 32.5802 45.75 32.4802 45.51C32.4102 45.36 32.3602 45.22 32.3102 45.07C32.3002 45.03 32.2902 45 32.2802 44.96C32.2602 44.89 32.2502 44.81 32.2502 44.73C32.2102 44.59 32.2102 44.44 32.2802 44.32C32.3202 44.25 32.3802 44.21 32.4302 44.16C32.4602 44.12 32.4802 44.08 32.5002 44.05C32.6602 43.86 32.9302 43.77 33.1702 43.77C33.2102 43.77 33.2402 43.77 33.2802 43.78C33.4602 43.8 33.6402 43.82 33.8202 43.85C34.0902 43.9 34.3702 43.96 34.6402 44C34.9202 44.05 35.2002 44.13 35.4802 44.19C35.7602 44.25 36.0402 44.33 36.3202 44.4C36.6002 44.48 36.8702 44.58 37.1502 44.68C37.4502 44.78 37.7502 44.89 38.0402 45.01C38.0202 45 38.0102 45 37.9902 44.99C38.1402 45.05 38.3002 45.12 38.4502 45.18C38.3802 45.15 38.3102 45.12 38.2402 45.09C38.4102 45.16 38.5702 45.23 38.7402 45.29C38.8102 45.32 38.8702 45.34 38.9402 45.37C38.9102 45.36 38.8902 45.35 38.8602 45.34C39.0202 45.41 39.1702 45.47 39.3202 45.54C39.3002 45.53 39.2902 45.53 39.2702 45.52C39.5402 45.64 39.8202 45.75 40.0802 45.89C40.3202 46.02 40.5702 46.16 40.8202 46.28C41.0602 46.4 41.3102 46.51 41.5502 46.63C41.8202 46.76 42.0702 46.93 42.3302 47.07C42.8902 47.38 43.4702 47.66 44.0502 47.94C44.3202 48.07 44.6102 48.2 44.8802 48.33C45.1002 48.44 45.3202 48.56 45.5402 48.66C46.0302 48.87 46.5102 49.12 47.0002 49.34C47.1802 49.41 47.3602 49.48 47.5502 49.54C47.7902 49.62 48.0302 49.72 48.2602 49.83C48.5202 49.95 48.7702 50.08 49.0302 50.19C49.2102 50.26 49.3902 50.31 49.5802 50.36C49.7302 50.35 49.8902 50.35 50.0402 50.33C50.0402 50.33 50.0402 50.33 50.0502 50.33H50.0402C50.2402 50.31 50.4302 50.29 50.6302 50.29C50.8102 50.28 50.9802 50.27 51.1602 50.25C51.4102 50.21 51.6602 50.16 51.9102 50.13C52.0802 50.08 52.2702 50.07 52.4502 50.07C52.5802 50.07 52.7002 50.08 52.8202 50.08C53.1302 50.09 53.4302 50.13 53.7402 50.17C54.4002 50.25 55.0702 50.22 55.7302 50.26C56.0902 50.28 56.4502 50.3 56.8102 50.3C57.1402 50.3 57.4802 50.3 57.8102 50.3C58.5502 50.3 59.2902 50.29 60.0202 50.36C60.9202 50.44 61.8302 50.54 62.7102 50.74C63.5302 50.92 64.3102 51.21 65.1102 51.44C65.9202 51.68 66.7402 51.88 67.5502 52.11C68.3202 52.34 69.0902 52.55 69.8602 52.78C70.6602 53.02 71.4602 53.25 72.2602 53.48C72.8402 53.65 73.4302 53.81 73.9902 54.04C74.5702 54.27 75.1402 54.55 75.7102 54.8C76.0802 54.95 76.4602 55.1 76.8302 55.27C77.2102 55.44 77.5702 55.63 77.9302 55.84C78.6302 56.24 79.3502 56.61 80.0302 57.03C80.3702 57.24 80.7002 57.47 81.0202 57.7C81.3502 57.95 81.7002 58.18 82.0402 58.43C82.7302 58.95 83.3702 59.52 84.0202 60.09C84.5702 60.58 85.1202 61.06 85.6602 61.55C86.1502 61.99 86.6802 62.4 87.1602 62.85C87.3502 63.03 87.5502 63.2 87.7402 63.38C87.8002 63.43 87.8602 63.47 87.9202 63.51C88.1402 63.68 88.3402 63.88 88.5402 64.06C88.6002 64.11 88.6702 64.17 88.7302 64.22C88.9802 64.45 89.2502 64.66 89.5102 64.88C89.7702 65.1 90.0002 65.36 90.2402 65.61C90.3102 65.65 90.3802 65.68 90.4402 65.74C90.5202 65.82 90.5802 65.93 90.6302 66.04C90.6902 66.11 90.7402 66.18 90.7602 66.29C90.7902 66.44 90.7602 66.6 90.6702 66.73C90.6202 66.8 90.5602 66.85 90.4902 66.89C90.4702 66.91 90.4602 66.94 90.4402 66.96C90.1902 67.18 89.9402 67.4 89.6802 67.61C89.6802 67.61 89.6802 67.61 89.6902 67.6C89.6802 67.61 89.6702 67.62 89.6502 67.63C89.6402 67.64 89.6402 67.64 89.6302 67.65C89.3702 67.86 89.1102 68.05 88.8202 68.22C88.5402 68.4 88.2502 68.55 87.9702 68.73C87.3002 69.21 86.7102 69.65 86.0902 70.04ZM72.3502 55.39C71.9302 55.26 71.5002 55.14 71.0802 55.01C70.2902 54.78 69.5002 54.56 68.7202 54.32C68.3502 54.21 67.9702 54.11 67.5902 54.01C67.1902 53.9 66.7902 53.78 66.3902 53.67C65.5902 53.46 64.7802 53.26 63.9902 52.99C63.4502 52.81 62.9102 52.63 62.3502 52.51C61.8702 52.4 61.3802 52.32 60.8902 52.25C60.2302 52.17 59.5602 52.12 58.8902 52.1C58.6302 52.1 58.3702 52.1 58.1102 52.1C58.0002 52.15 57.8702 52.19 57.7402 52.2C57.3702 52.22 57.0102 52.24 56.6402 52.28C56.2902 52.32 55.9402 52.3 55.5902 52.33C54.9302 52.39 54.2602 52.44 53.6002 52.4C53.3002 52.38 53.0102 52.34 52.7102 52.36C52.4002 52.38 52.1002 52.39 51.7902 52.4C51.4702 52.4 51.1602 52.4 50.8402 52.4C50.4902 52.4 50.1202 52.34 49.7802 52.26C49.7302 52.25 49.6702 52.23 49.6202 52.22C49.4602 52.24 49.3102 52.26 49.1602 52.29C49.0602 52.27 48.9602 52.24 48.8602 52.21C48.6002 52.25 48.3302 52.19 48.1202 51.98C48.1002 51.96 48.0902 51.93 48.0802 51.91C48.0402 51.89 48.0002 51.88 47.9702 51.85C47.8402 51.77 47.7002 51.69 47.5702 51.6C47.4802 51.53 47.3802 51.46 47.2902 51.39L47.2802 51.38C47.2402 51.35 47.2002 51.34 47.1602 51.31C46.7902 51.17 46.4202 51.04 46.0602 50.89C45.6402 50.71 45.2402 50.48 44.8202 50.3C44.5702 50.19 44.3202 50.08 44.0802 49.95C43.8102 49.81 43.5302 49.69 43.2602 49.56C42.9702 49.42 42.6802 49.29 42.4002 49.14C42.1102 48.99 41.8302 48.85 41.5402 48.7C41.2802 48.56 41.0302 48.41 40.7702 48.26C40.5302 48.12 40.2702 48 40.0202 47.88C39.7802 47.76 39.5402 47.64 39.3102 47.52C39.1602 47.47 39.0102 47.41 38.8602 47.35C38.5702 47.24 38.2702 47.12 37.9702 47.01C37.9602 47.01 37.9402 47 37.9302 47C37.6302 46.9 37.3302 46.82 37.0302 46.75C36.6802 46.66 36.3402 46.55 35.9902 46.43C35.5702 46.29 35.1302 46.18 34.7002 46.05C34.7002 46.06 34.7102 46.06 34.7102 46.07C34.8302 46.23 34.9502 46.4 35.0602 46.57C35.3402 47 35.6002 47.46 35.8002 47.93C35.8902 48.15 35.9802 48.38 36.0402 48.62C36.1102 48.88 36.1502 49.15 36.1802 49.42C36.2002 49.66 36.2302 49.89 36.2202 50.13C36.2102 50.44 36.1702 50.75 36.1302 51.05C36.1002 51.29 36.0602 51.54 36.0102 51.78C35.9802 51.96 35.9302 52.14 35.9102 52.33C35.9002 52.54 35.8902 52.74 35.8702 52.95C35.8702 52.9 35.8802 52.85 35.8802 52.79C35.8702 52.89 35.8702 53 35.8702 53.11C35.9202 53.26 35.9802 53.41 36.0202 53.57C36.0602 53.78 36.1102 53.99 36.1802 54.19C36.1802 54.19 36.1802 54.19 36.1902 54.19C36.2002 54.22 36.2102 54.25 36.2102 54.27C36.2202 54.28 36.2302 54.3 36.2402 54.31C36.3302 54.45 36.3502 54.63 36.3402 54.8C36.3602 54.96 36.3802 55.12 36.4002 55.28C36.4002 55.29 36.4002 55.3 36.4002 55.31C36.4002 55.31 36.4002 55.31 36.4002 55.32C36.2702 55.36 36.1302 55.4 36.0002 55.44C35.9702 55.47 35.9402 55.51 35.9002 55.52C35.6802 55.62 35.6502 55.62 35.4102 55.65C35.3602 55.66 35.3102 55.66 35.2502 55.66C35.1702 55.69 35.0802 55.71 35.0002 55.74C34.9502 55.76 34.9102 55.78 34.8602 55.79C34.8502 55.79 34.8502 55.79 34.8402 55.8C34.8302 55.8 34.8202 55.81 34.8102 55.81C34.8002 55.81 34.8002 55.81 34.7902 55.82C34.7802 55.82 34.7702 55.82 34.7702 55.83C34.3002 56 33.8502 56.18 33.3902 56.37C33.3102 56.4 33.2302 56.43 33.1502 56.46C32.9902 56.55 32.8302 56.63 32.6602 56.71C32.2302 56.91 31.8202 57.16 31.4402 57.44C31.2202 57.6 31.0002 57.75 30.7702 57.88C30.5302 58.02 30.2802 58.12 30.0402 58.24C29.8502 58.33 29.6602 58.43 29.4702 58.53C29.2402 58.65 29.0002 58.74 28.7502 58.83C28.4302 58.97 28.1302 59.17 27.8402 59.35C27.7302 59.42 27.6202 59.47 27.5102 59.54C27.4502 59.58 27.3902 59.62 27.3302 59.65C27.2402 59.7 27.1502 59.72 27.0602 59.75C27.0402 59.76 27.0202 59.77 27.0002 59.77C26.9902 59.77 26.9902 59.78 26.9802 59.78C26.9402 59.81 26.9102 59.84 26.8502 59.88C26.6502 60 26.3702 60.05 26.1502 59.97C26.0902 59.95 26.0502 59.93 26.0002 59.9C25.9202 59.9 25.8402 59.88 25.7702 59.85C25.6202 59.78 25.5502 59.67 25.4802 59.53C25.4302 59.42 25.3702 59.31 25.3202 59.21C25.3102 59.19 25.3002 59.17 25.2902 59.15C25.1802 59.01 25.0702 58.88 24.9802 58.73C24.8402 58.5 24.7002 58.27 24.5502 58.05C24.5102 58 24.4702 57.94 24.4202 57.89C24.1802 57.63 23.9202 57.4 23.6702 57.15C23.5102 57 23.3702 56.84 23.2202 56.68C23.0702 56.53 22.9302 56.39 22.7702 56.25C22.2102 55.73 21.6702 55.18 21.0802 54.7C20.7602 54.46 20.4302 54.23 20.1102 53.98C20.1702 54.02 20.2202 54.07 20.2802 54.11C20.1702 54.03 20.0702 53.95 19.9602 53.87C19.6902 53.67 19.3702 53.52 19.0702 53.37C18.7402 53.21 18.4102 53.06 18.0902 52.89C17.6702 52.68 17.2502 52.45 16.8302 52.24C16.7002 52.23 16.5702 52.2 16.4502 52.14C16.3502 52.11 16.2602 52.08 16.1602 52.04C16.0302 51.99 15.9102 51.94 15.7902 51.89C15.6702 51.84 15.5502 51.79 15.4302 51.74C15.2702 51.67 15.1102 51.6 14.9502 51.53C14.7102 51.44 14.4702 51.37 14.2302 51.3C13.9602 51.24 13.6802 51.19 13.4002 51.15C13.2602 51.13 13.1202 51.11 12.9802 51.09C12.7702 51.06 12.5502 51.04 12.3402 51.01C12.1802 50.99 12.0102 50.96 11.8502 50.94C11.6402 50.91 11.4202 50.89 11.2102 50.86C11.2402 50.86 11.2602 50.87 11.2902 50.87C11.0602 50.84 10.8302 50.82 10.6002 50.81C10.3502 50.8 10.1002 50.77 9.85023 50.75C9.62022 50.73 9.38023 50.73 9.15023 50.7C8.92023 50.67 8.69023 50.62 8.45023 50.59C8.30023 50.57 8.16023 50.55 8.02023 50.51C8.03024 50.53 8.05023 50.56 8.06023 50.58C8.17023 50.78 8.25023 51 8.33023 51.22C8.40023 51.41 8.46024 51.6 8.52023 51.8C8.58023 52.01 8.61024 52.23 8.63023 52.45C8.68024 52.78 8.78024 53.1 8.81023 53.44C8.84023 53.75 8.83023 54.06 8.83023 54.37C8.83023 54.99 8.82024 55.61 8.88023 56.22C8.92023 56.47 8.99023 56.72 9.05023 56.96C9.11023 57.21 9.15023 57.47 9.18023 57.73C9.26023 58.21 9.41023 58.68 9.59023 59.13C9.77023 59.53 9.96024 59.92 10.1602 60.32C10.2702 60.55 10.3902 60.78 10.5102 61.01C10.6102 61.21 10.7102 61.4 10.8302 61.58C10.8702 61.64 10.9102 61.7 10.9602 61.75C11.1802 62.03 11.4102 62.31 11.6102 62.6C11.7902 62.87 11.9502 63.16 12.1402 63.43C12.2102 63.51 12.2902 63.58 12.3702 63.66C12.5002 63.76 12.6402 63.86 12.7702 63.95C12.8602 64.02 12.9402 64.08 13.0302 64.15C13.2802 64.33 13.5602 64.46 13.8302 64.61C14.0302 64.72 14.2102 64.85 14.3802 65C14.5002 65.1 14.6002 65.23 14.7002 65.37C14.7802 65.43 14.8302 65.51 14.8702 65.59C14.9002 65.62 14.9502 65.64 14.9702 65.66C15.1302 65.82 15.2202 66.04 15.2202 66.27C15.2202 66.5 15.1302 66.72 14.9702 66.88C14.7902 67.06 14.6002 67.1 14.3602 67.13C14.2902 67.14 14.2202 67.15 14.1502 67.16C13.8902 67.2 13.6202 67.24 13.3602 67.3C13.1502 67.35 12.9502 67.42 12.7502 67.5C12.3102 67.69 11.8802 67.89 11.4702 68.13C11.0502 68.38 10.6402 68.65 10.2502 68.94C9.99023 69.15 9.75023 69.38 9.51023 69.62C9.25023 69.88 9.01023 70.15 8.75023 70.4C8.46023 70.69 8.19023 71.02 7.89023 71.3C7.60023 71.57 7.33023 71.86 7.08023 72.16C6.76023 72.61 6.57024 73.14 6.31023 73.63C5.98023 74.27 5.53024 74.82 5.05023 75.35C4.68023 75.75 4.32024 76.17 3.91023 76.51C3.88023 76.53 3.86023 76.55 3.83023 76.58C4.31023 76.69 4.79023 76.83 5.28023 76.9C5.23022 76.89 5.18023 76.89 5.12023 76.88C5.29023 76.9 5.46024 76.93 5.63023 76.95C5.96024 76.99 6.30023 77 6.63023 77.03C6.98023 77.06 7.34023 77.07 7.69023 77.08C8.36023 77.09 9.04023 77.09 9.71023 77.09C10.3702 77.09 11.0302 77.09 11.6902 77.09C11.9802 77.09 12.2702 77.05 12.5602 77.03C12.7702 77.02 12.9902 77 13.2002 76.97C13.6602 76.91 14.1202 76.78 14.5602 76.66C15.0002 76.54 15.4402 76.4 15.8602 76.22C16.2702 76.04 16.6602 75.84 17.0502 75.62C17.4502 75.4 17.8702 75.19 18.2702 74.97C19.0802 74.53 19.8802 74.06 20.6202 73.5C20.7602 73.39 20.9002 73.28 21.0402 73.17L21.0302 73.18L21.0402 73.17C21.0902 73.13 21.1302 73.1 21.1802 73.07L21.1902 73.06C21.4102 72.89 21.6302 72.72 21.8202 72.53C22.0002 72.36 22.1702 72.19 22.3702 72.04C22.5702 71.88 22.7702 71.73 22.9902 71.6C23.1302 71.52 23.2602 71.4 23.4102 71.33C23.6102 71.24 23.7902 71.12 24.0102 71.07C24.0302 71.06 24.0502 71.07 24.0702 71.06C24.1802 71.01 24.2902 71 24.4102 71.01C24.6202 71 24.8202 71 25.0302 71.04C25.1602 71.06 25.2902 71.12 25.4102 71.17C25.6302 71.26 25.8402 71.35 26.0502 71.46C26.3502 71.61 26.6402 71.77 26.9402 71.91C27.2902 72.08 27.6302 72.25 27.9702 72.44C28.3202 72.64 28.6902 72.82 29.0402 73.02C29.7402 73.42 30.4902 73.76 31.2302 74.08C32.0402 74.41 32.8102 74.81 33.6102 75.16C33.9302 75.29 34.2502 75.4 34.5802 75.52C34.7102 75.49 34.8502 75.48 34.9802 75.53C35.3002 75.63 35.5702 75.83 35.8702 75.98C36.1402 76.08 36.4202 76.15 36.7002 76.25C36.9902 76.36 37.2902 76.44 37.6002 76.5C37.8302 76.53 38.0602 76.55 38.2902 76.61C38.4702 76.66 38.6502 76.7 38.8302 76.73C39.0402 76.75 39.2502 76.77 39.4602 76.81C39.6102 76.84 39.7502 76.86 39.9002 76.89C40.1202 76.92 40.3402 76.94 40.5502 76.98C40.7002 77.01 40.8502 77.04 41.0102 77.07C41.4402 77.11 41.8802 77.09 42.3102 77.1C42.8102 77.11 43.3602 77.13 43.7802 77.43C44.0102 77.59 44.2202 77.8 44.3402 78.05C44.4502 78.26 44.5202 78.48 44.5702 78.71C44.6802 79.18 44.7602 79.64 44.8202 80.12C44.8102 80.04 44.8002 79.97 44.7902 79.89C44.8402 80.19 44.9402 80.47 45.0602 80.75C45.1602 80.98 45.2802 81.22 45.4102 81.44C45.4902 81.57 45.5802 81.7 45.6502 81.84C45.7602 82.03 45.8302 82.24 45.9202 82.44C45.9702 82.57 46.0302 82.71 46.0802 82.84C46.1602 83.05 46.1902 83.23 46.2202 83.46C46.2302 83.6 46.2202 83.74 46.2002 83.88C46.1802 84.04 46.1802 84.2 46.1702 84.37C46.1602 84.76 46.1202 85.15 46.0102 85.52C45.9002 85.9 45.7302 86.26 45.5602 86.61C45.4002 86.96 45.2102 87.29 44.9802 87.6C44.8902 87.73 44.7902 87.85 44.7002 87.98C44.9502 87.97 45.2002 87.96 45.4502 87.92C45.4202 87.92 45.4002 87.93 45.3702 87.93C45.6302 87.9 45.8902 87.87 46.1502 87.84C46.3802 87.81 46.6202 87.81 46.8502 87.79C47.3502 87.71 47.8502 87.58 48.3502 87.51C48.6002 87.47 48.8202 87.39 49.0602 87.31C49.3002 87.22 49.5302 87.14 49.7702 87.05C50.0302 86.93 50.2702 86.79 50.5202 86.67C50.7902 86.54 51.0602 86.41 51.3202 86.27C51.6002 86.12 51.8702 85.94 52.1202 85.75C52.3502 85.58 52.5902 85.43 52.8102 85.26C52.8602 85.22 52.9102 85.18 52.9702 85.14C52.9602 85.14 52.9602 85.15 52.9502 85.15C53.2802 84.89 53.5402 84.57 53.8102 84.26C54.1102 83.93 54.4302 83.61 54.7202 83.27C55.0702 82.79 55.3702 82.28 55.6902 81.77C55.8302 81.54 55.9502 81.29 56.0702 81.05C56.1702 80.85 56.2702 80.65 56.3702 80.45C56.4702 80.19 56.5602 79.93 56.6702 79.67C56.7402 79.49 56.8102 79.29 56.9202 79.13C57.0702 78.9 57.2202 78.76 57.4402 78.61C57.9202 78.27 58.5002 78.3 59.0602 78.24C59.2702 78.21 59.4902 78.17 59.7002 78.13C59.9802 78.08 60.2602 78.05 60.5402 78.02C60.8102 77.98 61.0702 77.95 61.3402 77.91C61.5502 77.88 61.7702 77.87 61.9802 77.85C62.2102 77.82 62.4402 77.78 62.6802 77.75C62.9102 77.72 63.1402 77.72 63.3702 77.69C64.0402 77.58 64.7002 77.38 65.3702 77.23C65.7402 77.14 66.1102 77.03 66.4802 76.94C66.8602 76.84 67.2402 76.76 67.6102 76.66C68.3802 76.45 69.1202 76.15 69.8802 75.9C70.5802 75.66 71.2602 75.39 71.9602 75.16C72.5102 74.98 73.0502 74.77 73.5802 74.56C74.1702 74.34 74.7702 74.14 75.3502 73.91C75.6702 73.76 75.9902 73.59 76.3102 73.44C76.7102 73.25 77.1102 73.08 77.5002 72.89C78.2602 72.53 78.9802 72.1 79.7102 71.68C80.3702 71.3 81.0402 70.95 81.7002 70.57C82.4002 70.17 83.1202 69.77 83.8102 69.35C84.2202 69.1 84.6102 68.83 85.0102 68.58C85.4502 68.31 85.8702 68.01 86.3002 67.71C86.9802 67.23 87.7302 66.86 88.4002 66.36C88.4002 66.36 88.4002 66.36 88.4102 66.35C88.3102 66.25 88.2102 66.15 88.1002 66.06C87.8102 65.82 87.5302 65.58 87.2502 65.33C86.9702 65.08 86.6702 64.85 86.3902 64.6C86.0802 64.33 85.7902 64.04 85.4902 63.78C84.9402 63.3 84.3702 62.84 83.8302 62.34C83.2402 61.8 82.6402 61.28 82.0402 60.75C81.8702 60.6 81.6902 60.45 81.5102 60.31C81.0502 60.05 80.6102 59.76 80.1602 59.48C79.9202 59.32 79.6802 59.15 79.4302 59.01C79.1702 58.86 78.9002 58.72 78.6302 58.58C78.3502 58.44 78.0802 58.29 77.8002 58.14C77.5202 57.99 77.2402 57.85 76.9702 57.68C76.7202 57.53 76.4602 57.38 76.2002 57.24C75.9402 57.1 75.6902 56.97 75.4402 56.83C75.0202 56.6 74.5902 56.37 74.1602 56.15L74.1502 56.14H74.1402H74.1302C74.1002 56.13 74.0802 56.11 74.0502 56.1H74.0402C73.7702 55.96 73.5002 55.84 73.2302 55.72C73.0402 55.63 72.8402 55.54 72.6502 55.45C72.5902 55.47 72.4702 55.43 72.3502 55.39ZM20.6602 73.57C20.6102 73.61 20.5502 73.65 20.5002 73.69C20.5402 73.66 20.5802 73.63 20.6202 73.59C20.6402 73.59 20.6502 73.58 20.6602 73.57Z" fill="#0D003A"/>
<path d="M29.3903 66.31C29.4203 66.33 29.4503 66.36 29.4803 66.38C29.4903 66.39 29.5003 66.4 29.5103 66.4C29.4703 66.37 29.4303 66.34 29.3903 66.31Z" fill="#0D003A"/>
<path d="M45.7002 56.6C45.6402 56.61 45.5802 56.62 45.5302 56.63C45.5102 56.63 45.4902 56.63 45.4702 56.64C45.5502 56.62 45.6302 56.61 45.7002 56.6Z" fill="#0D003A"/>
<path d="M73.54 61.28C74 61.45 74.47 61.61 74.93 61.77C75.48 61.96 75.99 62.24 76.51 62.52C76.74 62.64 76.96 62.76 77.19 62.88C77.61 63.07 78.03 63.27 78.46 63.46C78.41 63.44 78.37 63.42 78.32 63.4C79.04 63.71 79.71 64.13 80.4 64.5C80.87 64.75 81.32 65.01 81.75 65.33C81.72 65.31 81.69 65.29 81.67 65.26C81.73 65.3 81.79 65.35 81.85 65.39C81.88 65.41 81.92 65.43 81.95 65.45C82.02 65.49 82.07 65.53 82.13 65.58C82.19 65.62 82.26 65.66 82.32 65.7C82.51 65.84 82.65 65.98 82.72 66.22C82.78 66.44 82.75 66.69 82.63 66.88C82.59 66.94 82.55 67 82.5 67.05C82.43 67.17 82.33 67.26 82.2 67.33C81.29 67.76 80.39 68.21 79.49 68.68C79.06 68.9 78.63 69.12 78.18 69.31C77.91 69.42 77.64 69.53 77.37 69.63C77.35 69.64 77.33 69.65 77.3 69.66C77.15 69.73 76.99 69.78 76.84 69.84C76.52 69.98 76.21 70.13 75.91 70.28C75.48 70.49 75.04 70.68 74.6 70.85C73.87 71.14 73.14 71.42 72.4 71.7C71.78 71.94 71.14 72.07 70.52 72.29C70.21 72.4 69.91 72.53 69.59 72.63C69.29 72.73 68.98 72.81 68.68 72.9C67.97 73.1 67.25 73.29 66.53 73.46C66.18 73.55 65.82 73.65 65.46 73.73C65.08 73.81 64.7 73.89 64.32 73.96C63.91 74.03 63.49 74.1 63.07 74.17C62.65 74.24 62.23 74.35 61.82 74.43C61.57 74.48 61.31 74.5 61.06 74.53C60.86 74.55 60.65 74.58 60.44 74.6C60.07 74.63 59.7 74.65 59.33 74.63C58.99 74.62 58.65 74.58 58.31 74.59C57.99 74.6 57.67 74.65 57.36 74.68C57.07 74.71 56.78 74.71 56.49 74.72C56.16 74.73 55.83 74.77 55.5 74.79C54.85 74.81 54.2 74.81 53.56 74.81C52.82 74.81 52.08 74.72 51.35 74.62C51.43 74.63 51.5 74.64 51.58 74.65C51.32 74.62 51.07 74.6 50.81 74.59C50.56 74.58 50.32 74.55 50.07 74.53C49.82 74.51 49.57 74.47 49.32 74.45C49.06 74.43 48.8 74.42 48.54 74.39C48.3 74.36 48.06 74.36 47.83 74.34C47.51 74.31 47.19 74.28 46.88 74.23C46.44 74.16 46.04 73.96 45.6 73.89C45.36 73.86 45.12 73.82 44.88 73.75C44.61 73.68 44.35 73.62 44.08 73.56C43.49 73.43 42.9 73.27 42.32 73.11C42.03 73.03 41.74 72.96 41.46 72.86C41.17 72.76 40.89 72.63 40.6 72.53C40.33 72.44 40.04 72.4 39.76 72.33C39.51 72.26 39.27 72.14 39.03 72.03C38.87 71.97 38.71 71.93 38.54 71.88C38.32 71.81 38.1 71.71 37.89 71.62C37.6 71.5 37.31 71.39 37.02 71.26C36.71 71.13 36.42 70.97 36.11 70.84C35.95 70.77 35.78 70.7 35.62 70.63C35.46 70.55 35.31 70.46 35.16 70.39C34.83 70.22 34.49 70.08 34.17 69.88C33.85 69.68 33.53 69.48 33.21 69.26C32.92 69.06 32.66 68.81 32.39 68.59C32.13 68.41 31.86 68.25 31.61 68.05C31.39 67.87 31.17 67.68 30.95 67.5C30.74 67.34 30.54 67.18 30.33 67.01C30.22 66.93 30.12 66.85 30.01 66.77C29.95 66.72 29.88 66.67 29.82 66.62C29.85 66.64 29.88 66.67 29.91 66.69C29.86 66.65 29.82 66.62 29.77 66.58C29.68 66.51 29.59 66.44 29.49 66.37C29.46 66.34 29.42 66.32 29.39 66.29C29.35 66.27 29.31 66.25 29.26 66.23C29.09 66.14 29 66.03 28.89 65.88C28.81 65.78 28.76 65.55 28.77 65.43C28.78 65.26 28.8 65.19 28.85 65.07C28.86 64.8 29.04 64.57 29.3 64.51C29.34 64.5 29.37 64.49 29.4 64.48C29.56 64.36 29.71 64.24 29.88 64.13C30.16 63.95 30.44 63.77 30.72 63.57C31.01 63.37 31.31 63.16 31.6 62.96C31.88 62.77 32.17 62.58 32.45 62.39C32.47 62.38 32.48 62.36 32.5 62.35C32.54 62.32 32.58 62.3 32.62 62.27C32.92 62.07 33.23 61.87 33.52 61.65C33.79 61.46 34.08 61.27 34.36 61.1C34.69 60.9 35.04 60.75 35.39 60.59C35.65 60.44 35.91 60.29 36.18 60.16C36.51 60 36.85 59.85 37.18 59.7C37.5 59.55 37.82 59.41 38.13 59.26C38.23 59.21 38.34 59.16 38.44 59.11C38.66 59 38.88 58.88 39.11 58.77C39.37 58.64 39.64 58.53 39.9 58.41C40.41 58.18 40.91 57.93 41.42 57.71C42.03 57.45 42.64 57.21 43.28 57.04C43.65 56.95 44.02 56.86 44.39 56.78C44.76 56.71 45.13 56.66 45.51 56.61C45.93 56.55 46.34 56.5 46.76 56.48C47.18 56.46 47.6 56.46 48.02 56.46C48.28 56.46 48.54 56.46 48.8 56.46C49.32 56.46 49.83 56.46 50.35 56.46C50.75 56.46 51.15 56.49 51.54 56.52C51.73 56.53 51.91 56.56 52.1 56.57C52.33 56.59 52.55 56.6 52.78 56.62C53.6 56.7 54.41 56.83 55.22 56.95C55.31 56.96 55.39 56.97 55.48 56.97C55.67 56.99 55.87 57.01 56.06 57.02C56.41 57.04 56.77 57.08 57.12 57.13C57.55 57.19 57.98 57.23 58.41 57.3C58.41 57.3 58.41 57.3 58.4 57.3C58.43 57.31 58.46 57.31 58.48 57.32C58.51 57.33 58.54 57.33 58.57 57.34C58.6 57.35 58.62 57.35 58.65 57.36C58.66 57.36 58.67 57.36 58.68 57.37C58.69 57.37 58.7 57.37 58.71 57.38C58.73 57.38 58.76 57.39 58.78 57.39C58.77 57.39 58.76 57.39 58.75 57.38C58.76 57.38 58.76 57.38 58.77 57.38C58.78 57.38 58.78 57.38 58.79 57.38H58.8C58.81 57.38 58.81 57.38 58.82 57.38H58.81C58.81 57.38 58.81 57.38 58.8 57.38H58.81H58.82C58.82 57.38 58.82 57.38 58.81 57.38C58.82 57.38 58.82 57.38 58.83 57.38H58.84H58.85C58.85 57.38 58.86 57.38 58.87 57.38H58.88C58.89 57.38 58.89 57.38 58.9 57.38C58.89 57.38 58.87 57.38 58.86 57.37H58.85H58.86H58.85C58.85 57.37 58.85 57.37 58.86 57.37C58.88 57.37 58.91 57.38 58.93 57.38C58.97 57.39 59.02 57.4 59.06 57.4C59.24 57.44 59.42 57.47 59.59 57.51C59.65 57.52 59.7 57.53 59.76 57.54C59.93 57.57 60.11 57.6 60.28 57.64C60.23 57.63 60.18 57.62 60.13 57.61C60.15 57.61 60.18 57.62 60.2 57.62C60.18 57.62 60.15 57.61 60.13 57.61C60.23 57.63 60.32 57.65 60.42 57.67C60.42 57.67 60.42 57.67 60.41 57.67C60.5 57.69 60.59 57.7 60.68 57.72C60.86 57.75 61.04 57.78 61.22 57.81C61.2 57.81 61.18 57.8 61.17 57.8C61.17 57.8 61.18 57.8 61.19 57.8C61.18 57.8 61.18 57.8 61.17 57.8C61.31 57.83 61.45 57.85 61.59 57.87C61.81 57.91 62.03 57.94 62.25 57.98C62.28 57.99 62.31 57.99 62.34 58C62.36 58 62.38 58.01 62.4 58.01C62.52 58.04 62.65 58.06 62.77 58.08C62.74 58.08 62.72 58.07 62.7 58.06C62.73 58.07 62.75 58.07 62.78 58.08C62.75 58.07 62.73 58.07 62.7 58.06C62.83 58.09 62.96 58.11 63.09 58.14C63.06 58.13 63.04 58.13 63.01 58.12C63.09 58.14 63.17 58.15 63.24 58.16C63.27 58.16 63.3 58.17 63.32 58.17C63.3 58.17 63.27 58.16 63.25 58.16C63.28 58.17 63.31 58.17 63.34 58.18H63.35C63.36 58.18 63.37 58.18 63.38 58.19C63.38 58.19 63.38 58.19 63.37 58.19C63.38 58.19 63.39 58.19 63.4 58.2C63.41 58.2 63.41 58.2 63.42 58.2C63.41 58.2 63.41 58.2 63.4 58.2C63.41 58.2 63.41 58.2 63.42 58.2H63.43H63.42C63.45 58.21 63.47 58.21 63.5 58.22C63.54 58.23 63.58 58.23 63.62 58.24C63.67 58.25 63.71 58.26 63.76 58.27C63.77 58.27 63.78 58.27 63.79 58.28C63.8 58.28 63.8 58.28 63.81 58.28C63.82 58.28 63.82 58.28 63.83 58.28C63.84 58.28 63.85 58.28 63.86 58.28C63.86 58.28 63.85 58.28 63.84 58.28C63.85 58.28 63.85 58.28 63.86 58.28C63.86 58.28 63.86 58.28 63.85 58.28H63.86C63.87 58.28 63.89 58.29 63.9 58.29C63.89 58.29 63.88 58.29 63.87 58.28C63.89 58.28 63.92 58.29 63.94 58.29C63.93 58.29 63.93 58.29 63.92 58.29C63.91 58.29 63.9 58.29 63.9 58.29C63.91 58.29 63.92 58.29 63.92 58.29C63.98 58.3 64.03 58.31 64.09 58.32C64.1 58.32 64.12 58.32 64.13 58.33C64.13 58.33 64.13 58.33 64.12 58.33C64.23 58.35 64.33 58.37 64.43 58.39C64.47 58.4 64.51 58.41 64.55 58.41C64.57 58.41 64.59 58.42 64.61 58.42C64.6 58.42 64.59 58.42 64.57 58.41H64.58C64.59 58.41 64.6 58.41 64.61 58.42C64.61 58.42 64.61 58.42 64.6 58.42C64.7 58.44 64.81 58.46 64.91 58.48C64.94 58.49 64.96 58.49 64.99 58.5C64.98 58.5 64.96 58.49 64.94 58.49C65.13 58.53 65.3 58.6 65.49 58.65C65.53 58.66 65.58 58.67 65.62 58.68C65.72 58.7 65.83 58.73 65.93 58.75C66.36 58.88 66.79 59.02 67.23 59.16C67.47 59.24 67.72 59.3 67.97 59.38C68.23 59.46 68.49 59.56 68.75 59.65C69.28 59.84 69.82 59.98 70.35 60.16C70.43 60.19 70.52 60.22 70.6 60.24C70.64 60.25 70.67 60.26 70.71 60.27C70.76 60.28 70.8 60.3 70.85 60.32C71.21 60.44 71.57 60.55 71.93 60.68C72.1 60.74 72.26 60.8 72.43 60.87C72.58 60.92 72.73 60.97 72.88 61.03C73.12 61.13 73.33 61.2 73.54 61.28ZM51.64 58.26C51.22 58.22 50.79 58.21 50.37 58.2C50.37 58.21 50.38 58.23 50.38 58.24C50.4 58.69 50.03 59.15 49.56 59.15C49.13 59.15 48.77 58.87 48.68 58.45C48.39 58.93 48.13 59.43 47.91 59.95C47.85 60.1 47.81 60.26 47.75 60.41C47.88 60.32 48.02 60.25 48.18 60.25C48.65 60.25 49.06 60.58 49.09 61.07C49.11 61.52 48.74 61.98 48.27 61.98C47.87 61.98 47.53 61.74 47.42 61.37C47.26 61.92 47.14 62.48 47.05 63.04C46.96 63.7 46.93 64.36 46.95 65.02V65.03C46.95 65.06 46.95 65.08 46.95 65.11C46.95 65.13 46.95 65.14 46.95 65.16C46.95 65.18 46.95 65.19 46.95 65.21C46.95 65.24 46.95 65.26 46.95 65.29V65.3C46.97 65.66 47 66.01 47.04 66.37C47.12 66.9 47.23 67.43 47.37 67.94C47.37 67.94 47.37 67.94 47.37 67.95C47.38 67.98 47.39 68.01 47.39 68.04C47.39 68.05 47.39 68.05 47.39 68.06C47.4 68.09 47.4 68.11 47.41 68.14C47.41 68.15 47.41 68.16 47.42 68.17C47.43 68.19 47.43 68.22 47.44 68.24C47.44 68.25 47.45 68.26 47.45 68.28C47.46 68.3 47.46 68.32 47.47 68.33C47.48 68.35 47.48 68.36 47.49 68.38C47.49 68.39 47.5 68.4 47.5 68.42C47.51 68.44 47.51 68.47 47.52 68.49V68.5C47.55 68.59 47.59 68.68 47.62 68.77C47.77 68.59 47.98 68.48 48.22 68.48C48.38 68.48 48.52 68.53 48.65 68.59C48.8 68.35 49.03 68.17 49.32 68.17C49.79 68.17 50.2 68.5 50.23 68.99C50.25 69.36 49.99 69.72 49.64 69.84C50.07 69.88 50.43 70.19 50.45 70.64C50.47 71.09 50.1 71.55 49.63 71.55C49.16 71.55 48.75 71.22 48.72 70.73C48.7 70.36 48.96 70 49.31 69.88C49.19 69.87 49.08 69.84 48.98 69.78C48.83 70.02 48.6 70.2 48.31 70.2C48.27 70.2 48.24 70.19 48.21 70.18C48.42 70.59 48.63 71 48.88 71.39V71.4C49.02 71.62 49.17 71.83 49.32 72.04C49.33 72.05 49.33 72.06 49.34 72.07C49.37 72.11 49.39 72.14 49.42 72.18C49.42 72.18 49.42 72.18 49.42 72.19C49.42 72.19 49.42 72.19 49.41 72.18L49.4 72.17C49.48 72.27 49.56 72.38 49.65 72.48C49.73 72.58 49.78 72.68 49.8 72.8C49.85 72.81 49.89 72.81 49.94 72.82C50.05 72.83 50.16 72.84 50.27 72.84C50.22 72.74 50.19 72.63 50.18 72.51C50.16 72.06 50.53 71.6 51 71.6C51.47 71.6 51.88 71.93 51.91 72.42C51.92 72.61 51.85 72.79 51.74 72.95C52.13 72.98 52.52 73.01 52.91 73.03C53.19 73.04 53.47 73.04 53.75 73.04C53.7 72.94 53.67 72.84 53.67 72.72C53.65 72.39 53.84 72.07 54.13 71.92C53.29 71.32 52.55 70.56 51.96 69.69C51.85 70.01 51.55 70.27 51.19 70.27C50.72 70.27 50.31 69.94 50.28 69.45C50.26 69 50.63 68.54 51.1 68.54C51.18 68.54 51.25 68.56 51.33 68.58C51.04 67.98 50.82 67.35 50.67 66.68C50.53 66.95 50.27 67.17 49.96 67.17C49.49 67.17 49.08 66.84 49.05 66.35C49.03 65.9 49.4 65.44 49.87 65.44C50.11 65.44 50.34 65.53 50.51 65.69C50.43 64.9 50.45 64.13 50.57 63.37C50.45 63.45 50.32 63.5 50.17 63.5C49.7 63.5 49.29 63.17 49.26 62.68C49.24 62.23 49.61 61.77 50.08 61.77C50.4 61.77 50.68 61.93 50.84 62.18C51.01 61.64 51.23 61.12 51.5 60.62C51.43 60.51 51.38 60.38 51.37 60.23C51.35 59.78 51.72 59.32 52.19 59.32C52.24 59.32 52.28 59.34 52.33 59.34C52.48 59.15 52.63 58.97 52.79 58.79C52.63 58.68 52.52 58.52 52.46 58.33C52.22 58.32 51.93 58.29 51.64 58.26ZM49.51 72.23C49.51 72.23 49.51 72.22 49.51 72.23C49.51 72.22 49.51 72.22 49.51 72.23ZM49.51 72.23C49.51 72.24 49.52 72.24 49.53 72.25C49.52 72.25 49.52 72.24 49.51 72.23ZM49.52 72.24C49.53 72.25 49.53 72.26 49.54 72.27C49.53 72.25 49.52 72.25 49.52 72.24ZM64.78 71.61C64.45 71.87 64.1 72.11 63.73 72.32C64.09 72.26 64.46 72.19 64.82 72.11C64.94 72.08 65.05 72.05 65.17 72.03C65 71.93 64.86 71.79 64.78 71.61ZM68.07 61.8C67.84 61.8 67.63 61.72 67.46 61.58C67.66 62.1 67.83 62.63 67.93 63.19C68.01 63.62 68.04 64.05 68.06 64.47C68.19 64.38 68.33 64.32 68.49 64.32C68.96 64.32 69.37 64.65 69.4 65.14C69.42 65.59 69.05 66.05 68.58 66.05C68.37 66.05 68.17 65.97 68.01 65.85C67.96 66.21 67.89 66.56 67.8 66.91C68.1 67.03 68.33 67.3 68.34 67.65C68.36 68.1 67.99 68.56 67.52 68.56C67.41 68.56 67.31 68.54 67.22 68.51C66.88 69.24 66.44 69.91 65.91 70.52C66.2 70.64 66.42 70.9 66.44 71.25C66.45 71.43 66.38 71.61 66.29 71.76C66.49 71.71 66.69 71.66 66.88 71.61C66.7 71.47 66.57 71.26 66.56 71C66.54 70.55 66.91 70.09 67.38 70.09C67.85 70.09 68.26 70.42 68.29 70.91C68.3 71.02 68.28 71.14 68.24 71.25C68.34 71.22 68.44 71.19 68.54 71.16C68.64 71.01 68.77 70.89 68.96 70.82C69.04 70.79 69.13 70.78 69.22 70.78C69.32 70.78 69.42 70.8 69.52 70.84C69.65 70.79 69.79 70.75 69.92 70.7C69.93 70.7 69.94 70.69 69.95 70.69C70 70.59 70.06 70.49 70.11 70.39C70.13 70.34 70.16 70.29 70.18 70.25C70.21 70.19 70.24 70.14 70.27 70.08C70.27 70.07 70.28 70.06 70.28 70.06C70.37 69.87 70.45 69.69 70.54 69.5C70.55 69.49 70.55 69.47 70.56 69.46C70.57 69.44 70.57 69.43 70.58 69.42C70.58 69.41 70.58 69.41 70.59 69.4C70.88 68.67 71.09 67.92 71.24 67.15C70.77 67.15 70.36 66.82 70.34 66.33C70.32 65.88 70.69 65.42 71.16 65.42C71.26 65.42 71.36 65.44 71.46 65.47C71.48 65.08 71.49 64.7 71.48 64.31C71.33 64.49 71.12 64.62 70.87 64.62C70.46 64.62 70.11 64.36 70.01 63.97C69.95 63.98 69.9 64.01 69.85 64.01C69.4 64.03 68.94 63.66 68.94 63.19C68.94 63.15 68.94 63.12 68.94 63.08C68.94 62.84 69 62.64 69.16 62.46C69.31 62.29 69.53 62.19 69.76 62.18C69.77 62.18 69.79 62.18 69.8 62.18C70.21 62.18 70.62 62.51 70.65 62.94C70.7 62.93 70.74 62.91 70.78 62.91C71.02 62.91 71.24 63 71.41 63.15C71.37 62.87 71.31 62.6 71.25 62.32C70.8 62.17 70.35 62.03 69.9 61.88C69.5 61.75 69.1 61.65 68.7 61.53C68.53 61.67 68.31 61.8 68.07 61.8ZM70.55 69.44C70.55 69.44 70.54 69.44 70.55 69.44C70.54 69.44 70.54 69.44 70.55 69.44ZM72.46 66.87C72.46 66.88 72.46 66.89 72.46 66.89C72.31 67.81 72.06 68.72 71.72 69.59C71.71 69.61 71.7 69.63 71.69 69.66C71.69 69.67 71.69 69.67 71.68 69.68C71.67 69.71 71.66 69.73 71.65 69.76V69.77C71.61 69.87 71.56 69.97 71.52 70.08C71.51 70.11 71.49 70.15 71.47 70.18C71.66 70.12 71.85 70.07 72.04 69.99C72.84 69.68 73.65 69.38 74.45 69.06C74.93 68.84 75.4 68.59 75.89 68.38C76.38 68.17 76.87 67.99 77.36 67.79C77.97 67.52 78.57 67.21 79.16 66.9C79.49 66.72 79.84 66.56 80.18 66.4C80.2 66.39 80.22 66.38 80.23 66.37C80.01 66.24 79.78 66.11 79.55 66C78.91 65.67 78.3 65.26 77.64 64.97C77.12 64.74 76.61 64.5 76.09 64.27C75.45 63.98 74.83 63.64 74.18 63.36C73.61 63.13 73.03 62.93 72.46 62.71C72.54 63.24 72.6 63.77 72.62 64.31C72.66 65.17 72.59 66.02 72.46 66.87ZM56.29 73.01C56 72.9 55.71 72.78 55.43 72.64C55.43 72.79 55.39 72.93 55.32 73.06C55.36 73.06 55.39 73.06 55.43 73.06C55.72 73.04 56.01 73.02 56.29 73.01ZM46.55 72.34C47.09 72.42 47.63 72.48 48.16 72.59C48.23 72.6 48.3 72.61 48.37 72.62C48.37 72.62 48.37 72.61 48.36 72.61C48.35 72.6 48.34 72.58 48.33 72.57C48.19 72.38 48.05 72.18 47.92 71.98C47.91 71.97 47.91 71.96 47.9 71.96C47.9 71.95 47.89 71.95 47.89 71.94C47.89 71.93 47.88 71.93 47.88 71.92C47.65 71.55 47.43 71.17 47.23 70.77C47.23 70.76 47.22 70.76 47.22 70.75C47.21 70.74 47.21 70.72 47.2 70.71C46.92 70.15 46.68 69.57 46.48 68.97C46.35 68.59 46.24 68.2 46.15 67.81C45.95 66.94 45.83 66.04 45.8 65.15C45.76 64.2 45.84 63.25 46.01 62.32C46.01 62.32 46.01 62.32 46.01 62.31C46.02 62.27 46.02 62.23 46.03 62.2C46.03 62.19 46.03 62.19 46.03 62.18C46.04 62.15 46.04 62.12 46.05 62.09C46.05 62.08 46.05 62.07 46.06 62.06C46.07 62.03 46.07 61.99 46.08 61.96C46.08 61.95 46.09 61.93 46.09 61.92C46.09 61.9 46.1 61.88 46.1 61.86C46.1 61.84 46.11 61.83 46.11 61.81C46.11 61.79 46.12 61.77 46.12 61.75C46.13 61.72 46.14 61.69 46.14 61.65C46.14 61.64 46.14 61.63 46.15 61.62C46.29 61.03 46.48 60.45 46.7 59.88C46.7 59.87 46.7 59.87 46.71 59.86C46.71 59.85 46.72 59.84 46.72 59.83C46.86 59.47 47.02 59.12 47.19 58.78C47.19 58.78 47.19 58.77 47.2 58.77C47.21 58.76 47.21 58.75 47.22 58.73C47.22 58.72 47.23 58.71 47.23 58.7C47.24 58.68 47.25 58.65 47.27 58.63V58.62C47.27 58.61 47.28 58.6 47.28 58.59C47.28 58.58 47.29 58.58 47.29 58.57C47.29 58.56 47.3 58.56 47.3 58.55C47.3 58.55 47.3 58.54 47.31 58.54C47.32 58.52 47.33 58.5 47.34 58.48C47.35 58.47 47.35 58.46 47.36 58.45C47.4 58.37 47.45 58.29 47.5 58.21C47 58.22 46.49 58.24 46 58.3C45.68 58.35 45.37 58.39 45.05 58.44C44.58 58.53 44.11 58.62 43.64 58.75C43.09 58.89 42.57 59.11 42.05 59.32C41.73 59.46 41.42 59.62 41.1 59.77C40.72 59.95 40.33 60.1 39.95 60.29C39.61 60.46 39.27 60.64 38.93 60.82C38.55 61.02 38.15 61.18 37.76 61.37C37.04 61.72 36.3 62.06 35.58 62.41C34.95 62.72 34.4 63.16 33.81 63.54C33.48 63.76 33.16 64 32.82 64.21C32.51 64.41 32.22 64.62 31.92 64.83C31.65 65.02 31.38 65.21 31.1 65.39C31.08 65.41 31.05 65.42 31.03 65.44C31.05 65.46 31.08 65.48 31.1 65.5C31.08 65.48 31.05 65.46 31.03 65.44C31.05 65.45 31.06 65.47 31.08 65.48C31.06 65.47 31.05 65.45 31.03 65.44C31.31 65.65 31.59 65.87 31.86 66.08C31.9 66.11 31.95 66.15 31.99 66.18C32.23 66.37 32.47 66.57 32.7 66.76C32.89 66.9 33.1 67.01 33.29 67.15C33.54 67.34 33.77 67.55 34.02 67.76C34.21 67.9 34.41 68.02 34.61 68.15C34.84 68.3 35.07 68.45 35.31 68.58C35.54 68.71 35.79 68.8 36.02 68.92C36.25 69.04 36.48 69.16 36.72 69.27C36.65 69.24 36.58 69.21 36.51 69.18C36.76 69.28 37 69.39 37.24 69.49C37.43 69.57 37.61 69.67 37.8 69.75C38.1 69.87 38.39 69.99 38.68 70.11C38.87 70.19 39.07 70.25 39.27 70.31C39.5 70.38 39.72 70.48 39.94 70.58C40.39 70.75 40.87 70.8 41.32 70.97C41.58 71.07 41.83 71.19 42.1 71.27C42.37 71.36 42.65 71.41 42.92 71.49C43.19 71.57 43.45 71.63 43.72 71.7C43.97 71.77 44.23 71.83 44.48 71.89C44.94 71.99 45.39 72.12 45.85 72.2C45.98 72.22 46.11 72.24 46.24 72.27C46.31 72.28 46.37 72.31 46.43 72.33C46.5 72.33 46.52 72.33 46.55 72.34ZM42.08 59.3C42.02 59.33 41.96 59.35 41.9 59.37C41.94 59.36 41.97 59.34 42.01 59.32C42.03 59.32 42.05 59.31 42.08 59.3ZM31.1 67.63C31.07 67.6 31.03 67.58 31 67.55C30.99 67.54 30.97 67.53 30.96 67.52C31 67.55 31.05 67.59 31.1 67.63ZM58.7 57.37C58.71 57.37 58.71 57.37 58.71 57.37H58.7ZM58.8 57.39C58.79 57.39 58.79 57.39 58.8 57.39C58.79 57.39 58.78 57.39 58.78 57.39H58.77C58.77 57.39 58.77 57.39 58.76 57.39C58.77 57.39 58.77 57.39 58.78 57.39C58.78 57.39 58.79 57.39 58.8 57.39C58.79 57.39 58.8 57.39 58.8 57.39Z" fill="#0D003A"/>
<path d="M32.1201 66.25C32.0901 66.22 32.0501 66.2 32.0201 66.17C32.0001 66.15 31.9701 66.13 31.9501 66.11C32.0001 66.16 32.0601 66.2 32.1201 66.25Z" fill="#0D003A"/>
<path d="M41.48 57.7C41.47 57.71 41.45 57.71 41.44 57.72C41.38 57.74 41.33 57.76 41.27 57.79C41.34 57.75 41.41 57.72 41.48 57.7Z" fill="#0D003A"/>
<path d="M29.9299 66.73C29.9499 66.75 29.9699 66.76 29.9899 66.77C30.0299 66.8 30.0699 66.83 30.1099 66.86C30.0499 66.82 29.9899 66.77 29.9299 66.73Z" fill="#0D003A"/>
<path d="M92.0002 37.23C92.0102 37.24 92.0202 37.24 92.0302 37.25C92.0802 37.28 92.1302 37.32 92.1802 37.35C92.1202 37.31 92.0602 37.27 92.0002 37.23Z" fill="#0D003A"/>
<path d="M92.7801 37.73C92.8001 37.74 92.8101 37.75 92.8301 37.76C92.8201 37.75 92.8001 37.74 92.7801 37.73Z" fill="#0D003A"/>
<path d="M89.7302 45.39C89.5902 45.32 89.4502 45.26 89.3102 45.18C89.1102 45.07 88.9302 44.94 88.7402 44.82C88.3202 44.56 87.8602 44.38 87.4302 44.12C87.0202 43.88 86.6102 43.64 86.1902 43.41C85.7802 43.19 85.5902 42.7 85.7902 42.27C85.7902 42.26 85.7902 42.26 85.7902 42.25C85.8102 41.82 85.7602 41.39 85.7502 40.96C85.7502 40.76 85.7502 40.56 85.7502 40.35C85.7402 40.14 85.7302 39.94 85.7202 39.73C85.6902 39.33 85.7302 38.93 85.7302 38.53C85.7302 38.34 85.7102 38.14 85.7102 37.95C85.7102 37.69 85.7202 37.43 85.7402 37.16C85.7402 37.24 85.7302 37.31 85.7302 37.39C85.7402 37.17 85.7502 36.95 85.7702 36.73C85.7802 36.57 85.7902 36.4 85.7902 36.24C85.7902 36.28 85.7902 36.32 85.7802 36.36C85.7902 36.13 85.7702 35.9 85.7702 35.67C85.7702 35.44 85.7802 35.22 85.7702 34.99C85.7502 34.52 85.7002 34.05 85.6702 33.58C85.6602 33.39 85.6702 33.19 85.6802 33C85.7002 32.7 85.7202 32.44 85.9302 32.19C86.0502 32.05 86.1902 31.97 86.3502 31.91C86.3802 31.86 86.4002 31.82 86.4402 31.77C86.5002 31.69 86.5602 31.63 86.6302 31.57C86.6102 31.59 86.5802 31.61 86.5602 31.63C86.6102 31.59 86.6502 31.54 86.7002 31.5C86.7102 31.49 86.7202 31.49 86.7202 31.48L86.7102 31.49C86.7202 31.48 86.7402 31.47 86.7502 31.45C86.8602 31.34 86.9602 31.23 87.0802 31.13C87.2602 30.97 87.4302 30.86 87.6402 30.76C87.5702 30.79 87.5102 30.83 87.4402 30.86C87.5002 30.83 87.5502 30.8 87.6102 30.77C87.8802 30.62 88.1202 30.43 88.3802 30.28C88.5602 30.18 88.7502 30.08 88.9402 29.99C88.9702 29.97 89.0002 29.95 89.0302 29.93C89.2302 29.8 89.4102 29.64 89.6002 29.49C89.8402 29.31 90.0702 29.16 90.3402 29.02C90.2802 29.05 90.2102 29.09 90.1402 29.12C90.3202 29.03 90.4902 28.93 90.6602 28.83C90.8502 28.72 91.0602 28.64 91.2602 28.55C91.2802 28.54 91.3102 28.53 91.3302 28.51C91.4902 28.42 91.6402 28.31 91.8102 28.23C91.9202 28.17 92.0402 28.12 92.1502 28.07C92.4002 27.88 92.6302 27.66 92.9002 27.48C93.2602 27.24 93.6202 27.01 93.9702 26.76C94.3002 26.52 94.6102 26.25 94.9902 26.09C95.1002 26.04 95.2002 26.02 95.3102 26.02C95.6102 26.02 95.8902 26.19 96.1202 26.37C96.2202 26.45 96.3202 26.53 96.4202 26.61C96.7702 26.83 97.1402 27.04 97.5002 27.25C97.9002 27.48 98.3002 27.71 98.7002 27.95C99.1802 28.24 99.6702 28.51 100.15 28.8C100.48 29 100.78 29.23 101.09 29.46C101.33 29.64 101.58 29.8 101.82 29.97C102.03 30.13 102.25 30.27 102.46 30.43C102.66 30.58 102.86 30.74 103.06 30.88C103.15 30.94 103.24 30.99 103.33 31.05C103.55 31.19 103.75 31.35 103.96 31.51C104.06 31.59 104.13 31.69 104.18 31.81C104.24 31.84 104.3 31.87 104.34 31.91C104.57 32.13 104.64 32.38 104.67 32.68C104.7 32.91 104.71 33.15 104.73 33.38C104.75 33.69 104.78 34.01 104.8 34.32C104.83 34.68 104.84 35.03 104.84 35.39C104.85 35.77 104.86 36.14 104.87 36.51C104.9 36.79 104.94 37.07 104.96 37.35C104.99 37.67 105.01 37.99 105.03 38.31C105.06 38.69 105.07 39.07 105.08 39.45C105.09 39.74 105.11 40.03 105.16 40.32C105.2 40.56 105.25 40.81 105.28 41.05C105.32 41.44 105.27 41.85 105.23 42.24C105.22 42.42 105.23 42.61 105.21 42.79C105.19 43.15 104.92 43.4 104.67 43.62C104.4 43.86 104.08 44.03 103.8 44.25C103.45 44.53 103.09 44.78 102.7 45C102.51 45.11 102.33 45.22 102.15 45.34C101.97 45.45 101.78 45.56 101.59 45.65C101.6 45.65 101.61 45.64 101.61 45.64C101.26 45.82 100.93 46.04 100.58 46.22C100.23 46.4 99.8902 46.6 99.5602 46.8C99.3402 46.93 99.1302 47.05 98.9002 47.15C98.7202 47.23 98.5302 47.3 98.3402 47.37C98.0702 47.47 97.8102 47.59 97.5502 47.72C97.5202 47.74 97.4902 47.75 97.4602 47.77C97.3602 47.82 97.2602 47.88 97.1502 47.93C97.2202 47.9 97.2802 47.86 97.3502 47.83C97.2702 47.87 97.1902 47.91 97.1102 47.95C97.0202 47.99 96.9302 48.03 96.8402 48.08C96.8102 48.19 96.7502 48.29 96.6802 48.38C96.4902 48.63 96.1102 48.76 95.8002 48.68C95.6702 48.64 95.5702 48.6 95.4502 48.55C95.4702 48.56 95.4902 48.56 95.5102 48.57C95.4002 48.53 95.3002 48.49 95.2002 48.45C95.1302 48.42 95.0702 48.38 94.9902 48.36C95.0302 48.37 95.0602 48.38 95.1002 48.4C94.8802 48.33 94.6702 48.25 94.4702 48.14C94.2402 48.01 94.0202 47.86 93.7902 47.74C93.5102 47.59 93.2402 47.42 92.9702 47.27C92.6102 47.08 92.2702 46.84 91.9302 46.61C91.7102 46.47 91.4802 46.35 91.2502 46.22C91.0002 46.08 90.7402 45.97 90.4902 45.84C90.2602 45.71 90.0002 45.53 89.7302 45.39ZM100.89 32.41C100.72 32.27 100.54 32.14 100.37 32.02C100.19 31.89 100.02 31.74 99.8402 31.61C99.4802 31.38 99.1102 31.17 98.7902 30.87C98.4802 30.59 98.1702 30.34 97.8402 30.09C97.4302 29.78 97.0702 29.4 96.6902 29.05C96.3602 28.75 95.9802 28.49 95.6102 28.25C95.5102 28.19 95.4002 28.12 95.2902 28.06C95.2002 28.13 95.1202 28.2 95.0302 28.27C94.8002 28.46 94.5302 28.6 94.2902 28.78C94.0302 28.97 93.7502 29.13 93.4802 29.32C93.3702 29.4 93.2602 29.46 93.1502 29.52C93.1202 29.54 93.0902 29.56 93.0702 29.58C92.7602 29.8 92.3902 29.95 92.0402 30.11C91.8702 30.2 91.7102 30.3 91.5502 30.41C91.3502 30.56 91.1602 30.7 90.9402 30.83C90.7302 30.96 90.5302 31.11 90.3102 31.23C90.1602 31.31 90.0002 31.39 89.8402 31.46C89.6802 31.56 89.5102 31.65 89.3602 31.77C89.1702 31.95 88.9902 32.12 88.7902 32.28C88.6402 32.4 88.4802 32.5 88.3302 32.62C88.4902 32.76 88.6702 32.89 88.8302 33.03C88.8902 33.07 88.9502 33.12 89.0102 33.16C89.3202 33.35 89.6402 33.51 89.9502 33.7C90.3602 33.94 90.7502 34.21 91.1302 34.5C91.4502 34.74 91.7802 34.96 92.1002 35.19C92.4002 35.41 92.7002 35.62 93.0002 35.83C93.2302 35.98 93.4602 36.12 93.6902 36.27C93.6802 36.26 93.6702 36.26 93.6602 36.25C93.7002 36.28 93.7402 36.3 93.7702 36.33C93.7602 36.32 93.7502 36.32 93.7402 36.31C94.0602 36.51 94.3902 36.71 94.7202 36.89C94.8702 36.97 95.0202 37.04 95.1602 37.13C95.2202 37.17 95.2802 37.22 95.3402 37.26C95.5202 37.11 95.7102 36.96 95.9002 36.81C96.2102 36.58 96.5202 36.36 96.8402 36.16C97.1302 35.99 97.4302 35.85 97.7202 35.68C97.9702 35.53 98.1902 35.34 98.4402 35.19C98.6602 35.05 98.8802 34.91 99.1002 34.77C99.3202 34.62 99.5302 34.46 99.7502 34.32C99.9602 34.22 100.15 34.11 100.33 33.98C100.53 33.84 100.73 33.69 100.92 33.53C101.04 33.43 101.15 33.33 101.26 33.23C101.38 33.14 101.5 33.05 101.63 32.96L101.64 32.95C101.53 32.87 101.42 32.8 101.31 32.71C101.18 32.62 101.03 32.52 100.89 32.41ZM92.8902 35.76C92.9902 35.82 93.0802 35.89 93.1802 35.95C93.1502 35.93 93.1102 35.91 93.0802 35.88C93.0102 35.84 92.9502 35.8 92.8902 35.76ZM96.3802 39.84C96.3702 40.33 96.4202 40.81 96.4502 41.29C96.5202 42.28 96.5902 43.27 96.6702 44.26C96.7102 44.76 96.7402 45.27 96.7802 45.77V45.78C97.0402 45.61 97.2902 45.44 97.5602 45.29C97.7602 45.18 97.9602 45.07 98.1702 44.98C98.2902 44.93 98.4002 44.89 98.5202 44.84C98.7702 44.7 99.0202 44.56 99.2802 44.43C99.2202 44.46 99.1502 44.5 99.0802 44.53C99.1902 44.47 99.3002 44.42 99.4102 44.36C99.3902 44.37 99.3702 44.38 99.3502 44.39C99.5402 44.29 99.7302 44.19 99.9102 44.08C100.11 43.96 100.3 43.81 100.49 43.68C100.83 43.44 101.22 43.3 101.59 43.13C101.8 43.02 102 42.9 102.22 42.81C102.41 42.72 102.61 42.67 102.8 42.59C102.97 42.53 103.13 42.45 103.29 42.37C103.28 42.2 103.26 42.03 103.25 41.85C103.24 41.42 103.3 41 103.33 40.58C103.34 40.46 103.35 40.34 103.36 40.22C103.38 39.65 103.33 39.08 103.29 38.5C103.25 37.91 103.2 37.32 103.18 36.73C103.16 36.51 103.14 36.29 103.12 36.08C103.07 35.67 103.05 35.26 103.01 34.85C102.99 34.62 102.95 34.4 102.91 34.18C102.88 34.2 102.85 34.22 102.81 34.25C102.6 34.42 102.38 34.56 102.18 34.73C101.81 35.05 101.43 35.36 101.01 35.61C100.57 35.87 100.18 36.2 99.7402 36.46C99.4902 36.61 99.2502 36.77 99.0202 36.94C98.7202 37.16 98.3902 37.32 98.0602 37.49C97.6902 37.69 97.3502 37.94 97.0102 38.19C96.7802 38.36 96.5502 38.54 96.3302 38.73C96.3602 39.09 96.3902 39.46 96.3802 39.84ZM91.6602 44.48C92.2702 44.75 92.8202 45.14 93.3802 45.51C93.8302 45.79 94.2902 46.03 94.7502 46.28C94.8702 46.35 94.9902 46.42 95.1102 46.49C95.1002 46.31 95.0802 46.13 95.0702 45.95C95.0302 45.47 95.0002 44.98 94.9602 44.5C94.8902 43.51 94.8102 42.52 94.7402 41.53C94.7002 41.03 94.6502 40.52 94.6602 40.02C94.6602 39.62 94.6302 39.22 94.6002 38.83C94.5102 38.77 94.4302 38.71 94.3402 38.65C94.1502 38.54 93.9502 38.44 93.7502 38.33C93.6202 38.26 93.5002 38.17 93.3702 38.09C93.1902 37.98 93.0102 37.87 92.8302 37.76C92.7602 37.71 92.6902 37.67 92.6202 37.62C92.4202 37.5 92.2202 37.38 92.0302 37.25C91.1502 36.66 90.3102 36.02 89.4402 35.42C89.3302 35.35 89.2202 35.3 89.1202 35.23C89.0302 35.22 88.9502 35.2 88.8702 35.17C88.7202 35.1 88.5702 35.02 88.4402 34.93C88.2102 34.78 88.0102 34.62 87.8102 34.44C87.7402 34.37 87.6602 34.31 87.5902 34.25C87.5502 34.22 87.5002 34.19 87.4502 34.16C87.4602 34.31 87.4702 34.47 87.4802 34.63C87.5002 34.94 87.5002 35.25 87.5002 35.57C87.5002 35.73 87.5102 35.89 87.5102 36.05C87.5102 36.25 87.5002 36.44 87.4802 36.64C87.4702 36.85 87.4602 37.06 87.4502 37.26C87.4502 37.18 87.4602 37.11 87.4602 37.03C87.4502 37.21 87.4402 37.4 87.4302 37.58C87.4302 37.5 87.4402 37.43 87.4402 37.35C87.4202 37.74 87.4502 38.13 87.4402 38.52C87.4402 38.72 87.4202 38.91 87.4202 39.11C87.4202 39.33 87.4302 39.54 87.4402 39.75C87.4502 39.95 87.4602 40.15 87.4702 40.36C87.4702 40.58 87.4602 40.79 87.4802 41.01C87.5002 41.22 87.5102 41.44 87.5202 41.65C87.5302 41.83 87.5202 42.02 87.5102 42.2C87.7602 42.35 88.0202 42.49 88.2702 42.64C88.5302 42.79 88.8002 42.92 89.0702 43.05C89.3302 43.18 89.5702 43.34 89.8102 43.5C90.1002 43.68 90.4202 43.81 90.7202 43.98C91.0502 44.14 91.3402 44.33 91.6602 44.48Z" fill="#0D003A"/>
<path d="M97.0502 48.03C97.0802 48.02 97.1202 48 97.1602 47.98C97.1202 48 97.0802 48.02 97.0502 48.03Z" fill="#0D003A"/>
<path d="M100.07 13.07C100.11 13.03 100.16 12.99 100.2 12.95C100.16 12.99 100.11 13.03 100.07 13.07Z" fill="#0D003A"/>
<path d="M102.04 11.53C101.92 11.61 101.81 11.71 101.69 11.8C101.53 11.93 101.36 12.04 101.19 12.17C101.03 12.28 100.88 12.4 100.73 12.53C100.56 12.68 100.36 12.81 100.19 12.95C100.2 12.94 100.21 12.93 100.22 12.92C100.21 12.93 100.2 12.94 100.19 12.95L100.18 12.96C99.9698 13.14 99.7698 13.31 99.5398 13.45C99.3298 13.58 99.1298 13.72 98.9198 13.85C98.5298 14.1 98.1498 14.37 97.7898 14.67C97.7298 14.73 97.6598 14.79 97.5998 14.86C97.4698 15.01 97.3298 15.13 97.1398 15.21C96.9398 15.29 96.7598 15.27 96.5798 15.22H96.5698C96.5798 15.22 96.5898 15.23 96.5998 15.23C96.5798 15.22 96.5698 15.22 96.5598 15.22C96.5098 15.22 96.4598 15.21 96.3998 15.19C96.3198 15.17 96.2398 15.14 96.1598 15.11C96.0398 15.08 95.9298 15.05 95.8098 15.01C95.7298 14.98 95.6598 14.95 95.5898 14.92C94.9898 14.72 94.4198 14.44 93.8598 14.14C93.5998 14.01 93.3398 13.91 93.0698 13.79C92.7798 13.67 92.5098 13.51 92.2098 13.4C91.9998 13.34 91.7898 13.28 91.5898 13.19C91.3798 13.1 91.1798 13 90.9798 12.91C90.7598 12.81 90.5598 12.7 90.3698 12.56C90.1498 12.39 90.0198 12.13 89.9898 11.85C89.9798 11.74 89.9998 11.64 90.0198 11.54C90.0198 11.4 90.0298 11.27 90.0398 11.13C90.0498 10.84 90.0498 10.55 90.0398 10.26C90.0298 9.94 90.0698 9.62 90.0898 9.31C90.1098 8.91 90.0998 8.52 90.1098 8.12C90.1298 7.76 90.1098 7.4 90.1198 7.03C90.1198 6.85 90.0998 6.67 90.0998 6.49C90.0898 6.24 90.0898 5.99 90.1198 5.74C90.1298 5.61 90.1698 5.49 90.2198 5.37C90.2398 5.2 90.2998 5.04 90.4098 4.89C90.5198 4.73 90.6298 4.58 90.7498 4.42C90.8498 4.29 90.9798 4.18 91.0998 4.07C91.3298 3.86 91.5498 3.66 91.7398 3.41C91.8298 3.3 91.9098 3.18 91.9998 3.08C92.1098 2.96 92.2298 2.85 92.3398 2.73C92.5398 2.53 92.7398 2.33 92.9198 2.11C93.0398 2 93.1298 1.86 93.2298 1.72C93.2598 1.67 93.2998 1.62 93.3298 1.57C93.4298 1.42 93.5198 1.28 93.6498 1.15C93.7298 1.06 93.8298 0.97 93.9298 0.88C93.9298 0.88 93.9298 0.88 93.9398 0.88C93.9198 0.9 93.9098 0.91 93.8898 0.93C93.9098 0.91 93.9298 0.89 93.9498 0.87C93.9998 0.82 94.0398 0.77 94.0898 0.72C94.0998 0.71 94.0998 0.7 94.0998 0.69C94.1198 0.63 94.1298 0.58 94.1598 0.53C94.2698 0.32 94.4598 0.15 94.6898 0.07C94.7998 0.02 94.9198 0 95.0398 0C95.1498 0 95.2598 0.01 95.3698 0.04C95.6398 0.11 95.9098 0.22 96.1698 0.34C96.4298 0.45 96.6898 0.57 96.9298 0.71C97.1998 0.85 97.4498 1.02 97.6998 1.19C97.8298 1.27 97.9698 1.34 98.0998 1.42C98.3098 1.53 98.5098 1.66 98.6998 1.81C98.9198 1.98 99.1498 2.15 99.3798 2.31C99.5098 2.39 99.6398 2.47 99.7598 2.55C99.8998 2.64 100.02 2.74 100.15 2.83C100.25 2.89 100.34 2.95 100.43 3.01C100.5 3.06 100.57 3.14 100.63 3.21C100.73 3.31 100.83 3.4 100.92 3.51C100.93 3.52 100.94 3.54 100.95 3.55C101.01 3.54 101.06 3.52 101.12 3.52C101.41 3.52 101.68 3.68 101.86 3.9C102.07 4.16 102.05 4.57 102.07 4.89C102.11 5.38 102.15 5.87 102.23 6.36C102.27 6.62 102.28 6.88 102.3 7.14C102.32 7.42 102.36 7.71 102.41 7.99C102.51 8.57 102.61 9.16 102.72 9.74C102.76 9.95 102.81 10.17 102.81 10.38C102.82 10.67 102.77 10.98 102.56 11.2C102.41 11.37 102.23 11.44 102.04 11.53ZM99.0498 11.69C99.0098 11.73 98.9698 11.76 98.9298 11.8C98.9698 11.76 99.0198 11.72 99.0598 11.68C99.1798 11.57 99.2898 11.47 99.4198 11.38C99.5298 11.3 99.6398 11.22 99.7498 11.13C99.9298 10.97 100.12 10.83 100.32 10.68C100.51 10.54 100.7 10.4 100.88 10.25C100.93 10.2 100.99 10.16 101.05 10.13C101.04 10.08 101.03 10.04 101.02 9.99C100.97 9.72 100.91 9.46 100.87 9.19C100.77 8.59 100.65 8 100.59 7.4C100.56 7.14 100.55 6.88 100.52 6.62C100.5 6.43 100.46 6.23 100.44 6.04C99.9898 6.48 99.5898 7 99.1398 7.46C98.9198 7.69 98.6898 7.92 98.4698 8.15C98.3798 8.24 98.2998 8.35 98.2098 8.44C98.0998 8.54 97.9898 8.64 97.8698 8.73C97.7998 8.8 97.7198 8.88 97.6598 8.96C97.6098 9.06 97.5298 9.14 97.4498 9.22C97.4898 9.54 97.5298 9.87 97.5498 10.2C97.5698 10.42 97.5698 10.65 97.6098 10.87C97.6498 11.09 97.6798 11.31 97.6998 11.54C97.7298 11.88 97.7598 12.22 97.7798 12.57C97.9698 12.45 98.1498 12.33 98.3398 12.21C98.5798 12.03 98.8298 11.88 99.0498 11.69ZM96.5698 15.23H96.5798C96.5398 15.22 96.5098 15.21 96.4698 15.2C96.4998 15.21 96.5398 15.22 96.5698 15.23ZM91.9198 11.45C92.0998 11.53 92.2798 11.63 92.4698 11.7C92.6598 11.76 92.8498 11.81 93.0298 11.89C93.1998 11.96 93.3598 12.04 93.5198 12.12C93.7998 12.25 94.0998 12.35 94.3798 12.49C94.9398 12.76 95.4798 13.06 96.0598 13.28C96.0798 13.29 96.0998 13.29 96.1098 13.3C96.0998 13.19 96.0898 13.07 96.0798 12.96C96.0498 12.53 96.0198 12.1 95.9798 11.67C95.9598 11.46 95.9298 11.24 95.8898 11.03C95.8498 10.81 95.8398 10.59 95.8198 10.36C95.7998 10.04 95.7698 9.72 95.7298 9.4C95.7298 9.38 95.7198 9.37 95.6998 9.36C95.2898 9.1 94.8498 8.87 94.4298 8.62C94.2198 8.49 93.9998 8.37 93.7798 8.25C93.5798 8.13 93.3898 7.98 93.1998 7.84C93.0298 7.74 92.8498 7.67 92.6698 7.59C92.4698 7.5 92.2698 7.4 92.0698 7.29C91.9998 7.25 91.9298 7.21 91.8598 7.17C91.8598 7.38 91.8598 7.59 91.8498 7.8C91.8398 8.15 91.8398 8.51 91.8298 8.86C91.8198 9.21 91.7898 9.56 91.7698 9.92C91.7698 10.1 91.7798 10.29 91.7798 10.47C91.7798 10.68 91.7698 10.88 91.7598 11.09C91.7498 11.19 91.7498 11.28 91.7498 11.38C91.8098 11.4 91.8698 11.42 91.9198 11.45ZM94.0598 0.75C94.0598 0.76 94.0498 0.77 94.0398 0.78C94.0298 0.79 94.0198 0.8 94.0098 0.81C94.0098 0.8 94.0198 0.8 94.0298 0.79C94.0298 0.79 94.0298 0.79 94.0398 0.79C94.0298 0.81 94.0198 0.82 94.0098 0.84C94.0198 0.82 94.0298 0.81 94.0398 0.79C94.0498 0.78 94.0598 0.77 94.0698 0.76C94.0598 0.77 94.0398 0.78 94.0298 0.79C94.0398 0.77 94.0498 0.76 94.0598 0.75ZM94.0798 0.74C94.0798 0.74 94.0898 0.74 94.0798 0.74C94.0898 0.74 94.0798 0.74 94.0798 0.74ZM99.3598 4.35C99.1698 4.23 98.9998 4.1 98.8198 3.98C98.5698 3.82 98.3298 3.67 98.0898 3.49C97.8898 3.34 97.6898 3.19 97.4898 3.04C97.3598 2.96 97.2298 2.9 97.0898 2.83C96.8698 2.71 96.6698 2.56 96.4598 2.42C96.2198 2.27 95.9598 2.14 95.7098 2.02C95.5898 1.97 95.4798 1.91 95.3598 1.86C95.3598 1.88 95.3398 1.89 95.3298 1.91C95.2698 1.98 95.1998 2.04 95.1398 2.1C95.0098 2.22 94.8898 2.35 94.7798 2.49C94.4898 2.95 94.1798 3.4 93.7798 3.78C93.5398 4.01 93.2998 4.25 93.0998 4.52C92.8698 4.84 92.5698 5.1 92.2798 5.36C92.3098 5.34 92.3298 5.32 92.3598 5.29C92.3298 5.31 92.3198 5.34 92.2898 5.36C92.3298 5.39 92.3798 5.42 92.4198 5.45C92.5298 5.52 92.6298 5.61 92.7398 5.69C92.9998 5.84 93.2798 5.97 93.5498 6.09C93.7198 6.16 93.8898 6.23 94.0398 6.33C94.2098 6.44 94.3598 6.56 94.5198 6.68C94.8498 6.88 95.1898 7.07 95.5198 7.26C95.7098 7.37 95.8998 7.49 96.0898 7.6C96.1998 7.65 96.2998 7.72 96.3998 7.78C96.5598 7.59 96.7498 7.43 96.9398 7.27C97.0598 7.15 97.1698 7.02 97.2898 6.89C97.4598 6.71 97.6298 6.55 97.7898 6.37C97.9698 6.18 98.1498 6 98.3298 5.8C98.4998 5.6 98.6798 5.39 98.8598 5.19C99.0798 4.96 99.2998 4.74 99.5398 4.54C99.4498 4.45 99.3698 4.36 99.2698 4.29C99.2998 4.31 99.3298 4.33 99.3598 4.35Z" fill="#0D003A"/>
<path d="M95.4901 14.89C95.5101 14.9 95.5401 14.91 95.5601 14.91C95.5401 14.91 95.5201 14.9 95.4901 14.89Z" fill="#0D003A"/>
<path d="M99.1099 11.63C99.0899 11.65 99.0799 11.66 99.0599 11.68L99.0499 11.69C99.0699 11.67 99.0899 11.65 99.1099 11.63Z" fill="#0D003A"/>
<path d="M99.8599 2.60999C99.8299 2.58999 99.7999 2.56999 99.7599 2.54999C99.7299 2.52999 99.6999 2.50999 99.6699 2.48999C99.7399 2.52999 99.7999 2.56999 99.8599 2.60999Z" fill="#0D003A"/>
<path d="M94.0503 0.77002L94.0403 0.78002L94.0503 0.77002Z" fill="#0D003A"/>
<path d="M93.4102 1.45001C93.3802 1.49001 93.3602 1.53001 93.3302 1.57001C93.3202 1.58001 93.3202 1.59001 93.3102 1.60001C93.3402 1.55001 93.3702 1.50001 93.4102 1.45001Z" fill="#0D003A"/>
<path d="M76.8603 16.56C76.9103 16.58 76.9603 16.59 77.0103 16.61C76.9603 16.59 76.9103 16.58 76.8603 16.56Z" fill="#0D003A"/>
<path d="M77.0103 16.61C77.0303 16.62 77.0503 16.63 77.0703 16.63C77.0503 16.62 77.0303 16.62 77.0103 16.61Z" fill="#0D003A"/>
<path d="M79.2503 23.16C79.2703 23.13 79.2903 23.1 79.3103 23.07C79.1703 23.28 79.0203 23.49 78.8603 23.69C78.6803 23.91 78.5303 24.15 78.3503 24.37C78.1603 24.61 77.9503 24.83 77.7603 25.07C77.5403 25.35 77.2703 25.58 77.0003 25.81C76.7203 26.09 76.4803 26.41 76.2103 26.7C76.0803 26.84 75.9303 26.97 75.8003 27.11C75.7003 27.22 75.6103 27.34 75.5303 27.46C75.4303 27.62 75.3203 27.78 75.1603 27.87C74.9303 28 74.6903 28.07 74.4303 28.01C74.3203 27.98 74.2203 27.94 74.1103 27.9C73.9303 27.83 73.7403 27.75 73.5603 27.68C73.3003 27.57 73.0603 27.42 72.8103 27.3C72.5303 27.16 72.2603 26.99 72.0003 26.82C71.7303 26.65 71.4603 26.5 71.1803 26.35C70.9103 26.21 70.6603 26.04 70.3903 25.91C70.1003 25.76 69.8203 25.61 69.5303 25.45C69.2103 25.28 68.9303 25.06 68.6403 24.85C68.2703 24.62 67.8903 24.42 67.5203 24.18C67.4303 24.12 67.3903 24.07 67.2703 23.94C67.1403 23.79 67.1203 23.61 67.0803 23.43C67.0603 23.34 67.0603 23.24 67.0603 23.15C67.0403 22.93 67.0303 22.71 67.0103 22.49C66.9803 22.03 66.9303 21.58 66.9203 21.12C66.9203 20.89 66.9303 20.66 66.9103 20.43C66.8903 20.17 66.8703 19.92 66.8503 19.66C66.8103 19.19 66.7603 18.72 66.7603 18.25C66.7603 18 66.7803 17.75 66.8003 17.5C66.8203 17.29 66.9903 17.07 67.1603 16.96C67.1903 16.94 67.2303 16.92 67.2603 16.9C67.2703 16.71 67.3303 16.53 67.4703 16.39C67.6903 16.17 67.9103 15.97 68.1603 15.79C68.2703 15.72 68.3803 15.66 68.4903 15.59C68.6003 15.52 68.7003 15.43 68.8003 15.36C69.0003 15.2 69.2003 15.06 69.4103 14.92C69.6503 14.76 69.9003 14.64 70.1203 14.45C70.3803 14.22 70.6303 13.99 70.9303 13.8C71.1403 13.67 71.3503 13.52 71.5403 13.37C71.5703 13.32 71.6003 13.26 71.6403 13.21C71.7503 13.06 71.9103 12.97 72.0703 12.9C72.1703 12.86 72.2703 12.84 72.3703 12.84C72.5703 12.84 72.7803 12.91 72.9703 12.98C73.0703 13.01 73.1603 13.07 73.2503 13.11C73.3603 13.16 73.4703 13.2 73.5803 13.24C73.8303 13.34 74.0803 13.44 74.3403 13.54C74.6103 13.64 74.8803 13.74 75.1603 13.84C75.2103 13.86 75.2703 13.88 75.3203 13.89C75.5603 13.97 75.8003 14.05 76.0303 14.16C76.2003 14.24 76.3703 14.34 76.5403 14.41C76.6403 14.44 76.7303 14.46 76.8303 14.48C77.0403 14.53 77.2503 14.6 77.4503 14.68C77.7203 14.78 77.9703 14.91 78.2303 15.02C78.4303 15.11 78.6403 15.18 78.8403 15.27C78.9803 15.34 79.1103 15.4 79.2403 15.5C79.4203 15.64 79.5403 15.9 79.5503 16.13C79.5503 16.21 79.5303 16.28 79.5103 16.35C79.5103 16.37 79.5203 16.38 79.5203 16.4C79.5603 16.82 79.6003 17.24 79.6303 17.67C79.6603 18.1 79.7103 18.54 79.7103 18.98C79.7103 19.33 79.7403 19.68 79.7403 20.03C79.7403 20.25 79.7403 20.48 79.7503 20.7C79.7703 20.82 79.7803 20.94 79.8003 21.06C79.8303 21.21 79.8603 21.35 79.8903 21.5C79.9403 21.79 79.8803 22.05 79.7403 22.31C79.6503 22.6 79.4403 22.87 79.2503 23.16ZM77.2003 16.67C77.1403 16.65 77.0703 16.63 77.0103 16.61C76.7603 16.53 76.5203 16.43 76.2703 16.35C76.1103 16.3 75.9603 16.25 75.8003 16.21C75.5603 16.15 75.3203 16.11 75.0803 16.05C74.8303 15.99 74.5703 15.95 74.3103 15.89C74.1403 15.85 73.9703 15.79 73.8003 15.73C73.8303 15.9 73.8703 16.08 73.9003 16.25C73.8803 16.17 73.8703 16.1 73.8503 16.02C73.9303 16.41 73.9903 16.79 74.0603 17.18C74.0903 17.31 74.1203 17.45 74.1503 17.58C74.1403 17.54 74.1303 17.5 74.1203 17.46C74.1903 17.79 74.2803 18.11 74.3403 18.45C74.3803 18.69 74.4103 18.93 74.4303 19.18C74.5003 19.21 74.5703 19.25 74.6403 19.3C74.6703 19.32 74.7003 19.35 74.7303 19.37C74.7903 19.4 74.8603 19.43 74.9303 19.46C75.1803 19.54 75.4403 19.63 75.6903 19.72C75.8403 19.77 75.9903 19.82 76.1403 19.87C76.2403 19.91 76.3303 19.95 76.4303 19.99C76.6103 20.04 76.7903 20.07 76.9803 20.11C77.2903 20.18 77.5703 20.31 77.8603 20.44C77.9103 20.47 77.9703 20.48 78.0303 20.51C78.0003 20.31 77.9703 20.11 77.9503 19.91C77.9103 19.48 77.8803 19.04 77.8503 18.6C77.8403 18.4 77.8203 18.21 77.8303 18.01C77.8403 17.8 77.8303 17.59 77.8203 17.39C77.8103 17.25 77.8103 17.11 77.8103 16.97C77.6003 16.86 77.4103 16.75 77.2003 16.67ZM71.6103 15.97C71.4803 16.08 71.3603 16.19 71.2103 16.28C71.0803 16.37 70.9403 16.45 70.8103 16.55C70.5603 16.75 70.2803 16.91 70.0203 17.11C69.7403 17.33 69.4403 17.52 69.1603 17.74C69.0403 17.84 68.9103 17.94 68.7903 18.04C68.8003 18.12 68.8103 18.2 68.8203 18.28C68.8603 18.51 68.8803 18.74 68.9003 18.97C68.9203 19.22 68.9403 19.47 68.9603 19.72C68.9803 19.96 68.9803 20.21 69.0203 20.45C69.0903 20.9 69.1403 21.35 69.2103 21.8C69.2103 21.82 69.2203 21.83 69.2203 21.85C69.2703 21.81 69.3303 21.77 69.3903 21.73C69.5803 21.61 69.7703 21.49 69.9403 21.35C70.1903 21.1 70.4103 20.81 70.7203 20.63C70.9403 20.5 71.1603 20.37 71.3603 20.21C71.5503 20.06 71.7403 19.93 71.9403 19.8C72.1503 19.66 72.3803 19.56 72.5703 19.4C72.5203 19.45 72.4603 19.5 72.4103 19.55C72.5103 19.46 72.6103 19.38 72.7203 19.29C72.6903 19.02 72.6603 18.74 72.6103 18.47C72.5703 18.28 72.5203 18.1 72.4803 17.91C72.4203 17.66 72.3603 17.41 72.3203 17.16C72.2903 16.95 72.2503 16.74 72.2103 16.54C72.2303 16.62 72.2403 16.69 72.2603 16.77C72.2103 16.55 72.1703 16.33 72.1303 16.11C72.1003 15.98 72.0703 15.84 72.0503 15.71C72.0003 15.73 71.9403 15.75 71.8903 15.77C71.7803 15.84 71.6703 15.93 71.5703 16.02C71.5803 16 71.6003 15.98 71.6103 15.97ZM74.0103 25.49C74.0403 25.37 74.1003 25.25 74.1803 25.14C74.3603 24.91 74.5803 24.72 74.8003 24.53C75.0303 24.31 75.2403 24.04 75.4403 23.8C75.6003 23.61 75.7703 23.44 75.9603 23.28C76.0903 23.16 76.2403 23.05 76.3803 22.93C76.6903 22.64 76.9903 22.35 77.3003 22.06C77.1303 21.98 76.9703 21.91 76.8003 21.83C76.5903 21.78 76.3803 21.75 76.1703 21.69C75.8903 21.62 75.6403 21.5 75.3803 21.4C75.1003 21.31 74.8303 21.21 74.5503 21.11C74.3903 21.06 74.2203 21 74.0603 20.94C73.9203 20.89 73.8103 20.8 73.6903 20.71C73.6703 20.72 73.6503 20.74 73.6403 20.75C73.5603 20.82 73.4803 20.9 73.3903 20.96C73.3103 21.02 73.2103 21.06 73.1203 21.11C72.9403 21.2 72.7703 21.32 72.6003 21.44C72.4203 21.57 72.2603 21.71 72.0803 21.83C71.9103 21.95 71.7203 22.04 71.5603 22.16C71.3303 22.39 71.1203 22.64 70.8503 22.84C70.6003 23.03 70.3203 23.18 70.0703 23.39C70.0503 23.41 70.0303 23.43 70.0003 23.45C69.9703 23.48 69.9403 23.5 69.9203 23.52C70.1103 23.62 70.2903 23.73 70.4803 23.83C70.7603 23.98 71.0503 24.13 71.3303 24.27C71.5603 24.39 71.8003 24.49 72.0403 24.6C72.2603 24.71 72.4803 24.83 72.7103 24.94C72.9303 25.04 73.1503 25.11 73.3703 25.19C73.5903 25.27 73.8003 25.38 74.0103 25.49ZM76.2303 23.05C76.2603 23.02 76.2903 23 76.3203 22.97C76.3303 22.96 76.3403 22.95 76.3503 22.94C76.3103 22.98 76.2703 23.01 76.2303 23.05Z" fill="#0D003A"/>
<path d="M67.4903 24.13C67.5003 24.14 67.5203 24.15 67.5303 24.16C67.5403 24.17 67.5603 24.18 67.5703 24.19C67.5403 24.17 67.5203 24.15 67.4903 24.13Z" fill="#0D003A"/>
</g>
<defs>
<clipPath id="clip0">
<rect width="105.33" height="90.09" fill="white" transform="matrix(-1 0 0 1 105.33 0)"/>
</clipPath>
</defs>
</svg>
