<svg width="68" height="32" viewBox="0 0 68 32" fill="none" xmlns="http://www.w3.org/2000/svg">
<g clip-path="url(#clip0)">
<path d="M59.0973 23.5524C59.2093 23.5731 59.3143 23.6008 59.4262 23.6077C59.5452 23.6215 59.6642 23.6354 59.7832 23.6561C60.0631 23.6907 60.3571 23.7321 60.644 23.746C60.819 23.7529 60.994 23.7598 61.1759 23.7598C61.4559 23.7598 61.7358 23.7529 62.0158 23.7321C62.3797 23.7114 62.7436 23.6907 63.1006 23.6561C63.1776 23.6492 63.2616 23.6353 63.3385 23.6215C63.4155 23.6077 63.4995 23.5939 63.5835 23.587C63.6885 23.58 63.7865 23.5731 63.8914 23.5731C63.9474 23.5731 64.0034 23.5731 64.0594 23.5731H64.1294C64.3324 23.5731 64.5353 23.5455 64.7313 23.5178L64.8643 23.4971C64.9343 23.4902 65.0112 23.4833 65.0812 23.4764L65.2282 23.4625C65.3402 23.4487 65.4522 23.428 65.5641 23.4003C65.5991 23.4003 65.6341 23.3934 65.6691 23.3934C65.7601 23.3934 65.8511 23.3727 65.9351 23.3519L66.0051 23.3312V23.3381C66.0891 23.3243 66.145 23.3104 66.194 23.2966C66.453 23.2206 66.635 22.9441 66.607 22.6675C66.579 22.3426 66.313 22.1629 66.0891 22.073C65.9071 21.997 65.7111 21.9486 65.5222 21.9002C65.4452 21.8795 65.3612 21.8587 65.2842 21.838C65.2142 21.8103 65.1512 21.7896 65.0812 21.755L65.1092 21.7066C65.1862 21.5407 65.1652 21.3956 65.1372 21.2504C65.1092 21.1121 64.9623 20.967 64.8643 20.8702L64.7873 20.7941L64.7313 20.7388C64.5913 20.5798 64.4583 20.4139 64.3324 20.248C64.1154 19.9853 63.9264 19.7434 63.7725 19.4738C63.7165 19.3493 63.6675 19.218 63.6185 19.0866C63.5905 19.0037 63.5555 18.9138 63.5275 18.8309C63.4085 18.5336 63.2126 18.3124 63.0026 18.0912C62.6387 17.711 62.2047 17.3722 61.5888 16.9851C61.4069 16.8607 61.2389 16.7362 61.0639 16.6049C60.777 16.3906 60.448 16.2109 60.1331 16.038C59.9861 15.962 59.8392 15.8929 59.6922 15.8168C59.5452 15.7477 59.4052 15.6786 59.2583 15.6025C59.0343 15.485 58.8173 15.3537 58.6004 15.2154L58.6214 15.2361L58.5654 15.1947C58.7264 15.1393 58.8803 15.0564 59.0273 14.9665C59.1533 14.8974 59.2583 14.8144 59.3632 14.7384L59.4752 14.6554L59.5872 14.5794C59.6922 14.5103 59.7972 14.4342 59.8951 14.3513C60.2451 14.054 60.525 13.736 60.742 13.4042C60.903 13.1553 61.0289 12.8857 61.1549 12.6161C61.1969 12.5263 61.2389 12.4364 61.2809 12.3465L61.4349 12.0354L61.7218 11.4478L61.7918 11.3027L61.9388 10.9985C62.0158 10.8326 62.0788 10.6598 62.1208 10.5353C62.1628 10.4178 62.2047 10.3003 62.2537 10.1828C62.2887 10.0998 62.3377 10.0238 62.3797 9.94773L62.4217 9.8786C62.5267 9.69195 62.6107 9.49839 62.6947 9.2357C62.6947 9.2357 62.7017 9.21496 62.7086 9.19422L62.7226 9.14583H62.7296L62.8206 8.86931L62.8486 8.78636C62.8976 8.62736 62.9466 8.46145 62.9886 8.29554C63.0236 8.15037 63.0516 7.99828 63.0726 7.8462C63.0796 7.77707 63.0936 7.71485 63.1006 7.64572L63.1566 7.32081C63.2056 6.99591 63.2616 6.67791 63.3315 6.35991C63.3525 6.25622 63.3735 6.15944 63.4015 6.05575C63.4225 5.95205 63.4505 5.85527 63.4715 5.75158C63.4925 5.6548 63.5065 5.55801 63.5205 5.46123C63.5275 5.38519 63.5415 5.31606 63.5555 5.24002C63.5695 5.15706 63.5835 5.0672 63.5975 4.98424C63.6115 4.89437 63.6255 4.8045 63.6395 4.72155C63.6535 4.64551 63.6745 4.57638 63.6955 4.50725C63.7795 4.20999 63.6325 3.90582 63.3385 3.73991C63.2476 3.69152 63.1286 3.66387 62.9816 3.66387C62.8836 3.66387 62.7786 3.67769 62.6877 3.68461C62.5127 3.70535 62.3727 3.71226 62.2327 3.72608L62.0928 3.733C61.8828 3.74682 61.6378 3.76756 61.3789 3.76756C61.3229 3.76756 61.2669 3.76756 61.2109 3.76756H61.1689C61.0709 3.76756 60.973 3.77448 60.875 3.7883L60.77 3.79521L60.525 3.81595L60.3011 3.83669C60.0491 3.85743 59.7972 3.92656 59.5522 3.98878C59.4682 4.00952 59.3772 4.03025 59.2933 4.05099C59.0903 4.09247 58.8873 4.13395 58.6984 4.19617L58.4954 4.26529C58.3764 4.30677 58.2574 4.34134 58.1385 4.38281C58.0125 4.42429 57.8935 4.47268 57.7745 4.52107L57.6695 4.56255C57.5226 4.61785 57.3686 4.65933 57.2216 4.70772L57.1656 4.72155C56.8437 4.81833 56.5217 4.93585 56.2068 5.07411C55.9548 5.18472 55.7239 5.3368 55.5069 5.48197C55.4229 5.53727 55.346 5.58567 55.262 5.64097C55.199 5.67553 55.143 5.71701 55.08 5.75158C54.954 5.82762 54.828 5.89675 54.7161 5.98662C54.5481 6.11796 54.3661 6.24239 54.1912 6.35991C54.0792 6.43596 53.9742 6.51891 53.8692 6.60878L53.7222 6.70556C53.5473 6.84382 53.3793 6.98208 53.2113 7.13416C53.1413 7.18947 53.0714 7.24477 52.9944 7.30699C52.9034 7.37612 52.8124 7.45216 52.7214 7.5282C52.5814 7.64572 52.4415 7.77015 52.3015 7.89459L52.1475 8.03285L52.0635 8.10198L51.9795 8.1711L52.0285 8.13654C51.8956 8.24715 51.7696 8.37158 51.6436 8.4891L51.6016 8.53058C51.4196 8.67575 51.2237 8.8071 51.0347 8.93844C50.9227 9.01448 50.8108 9.09053 50.6988 9.16657C50.5028 9.30483 50.3278 9.45691 50.1739 9.62282C50.1319 9.6643 50.0899 9.70578 50.0549 9.75417C49.9849 9.8233 49.9219 9.89934 49.8519 9.96847C49.7749 10.0376 49.6909 10.0998 49.614 10.1689C49.565 10.2104 49.523 10.2657 49.481 10.3279C49.292 10.2173 49.131 10.1344 48.9701 10.0583C48.6551 9.92008 48.3332 9.78873 48.0112 9.65739C47.6333 9.5053 47.2414 9.38087 46.8564 9.291L46.6885 9.25644C46.4645 9.20805 46.2476 9.15966 46.0306 9.09744L45.8766 9.04214C45.7576 9.00066 45.6317 8.95918 45.5127 8.9177C45.2677 8.83475 45.0368 8.73797 44.8618 8.65501C44.7498 8.59971 44.6308 8.55823 44.5119 8.50984C44.4069 8.46836 44.3089 8.4338 44.2109 8.38541C44.0639 8.31628 43.917 8.24715 43.77 8.17802L43.588 8.08815C43.3991 7.99828 43.2031 7.93607 42.9861 7.86694C42.9581 7.79781 42.9581 7.72868 42.9511 7.65955V7.59042L42.9441 7.52129C42.9371 7.42451 42.9301 7.33464 42.9301 7.23786C42.9441 7.11343 42.9651 6.99591 43.0071 6.87839C43.0561 6.7263 43.0561 6.56039 43.0631 6.40139C43.0701 6.25622 43.0771 6.15253 43.0701 6.04192C43.0701 5.9797 43.0631 5.91057 43.0631 5.84836L43.0561 5.70319C43.0491 5.52345 43.0281 5.35063 43.0001 5.17089C42.9861 5.08102 42.9791 4.99115 42.9651 4.89437C42.9301 4.55564 42.9091 4.29295 42.9021 4.05099C42.8951 3.96804 42.8881 3.87817 42.8811 3.7883C42.8672 3.65004 42.8602 3.5187 42.8602 3.38044C42.8742 3.23527 42.9021 3.09701 42.9371 2.96566C42.9651 2.91036 42.9931 2.86197 43.0211 2.81358L43.0421 2.77901C43.0841 2.70988 43.1191 2.64075 43.1681 2.57162C43.1961 2.53706 43.2241 2.50249 43.2591 2.46793C43.4061 2.35041 43.539 2.25363 43.609 2.10846C43.679 1.96329 43.686 1.79737 43.637 1.6522C43.588 1.51394 43.49 1.40334 43.3291 1.30656C43.2521 1.26508 43.1611 1.23743 43.0631 1.23743C42.8182 1.23743 42.5662 1.37569 42.3632 1.49321L42.3142 1.52086L42.1883 1.58999C42.0553 1.65912 41.9293 1.73516 41.7963 1.80429L41.6424 1.87342C41.5164 1.92872 41.3974 1.98402 41.2714 2.04624C41.1735 1.96329 41.0475 1.92181 40.9215 1.92181C40.9005 1.92181 40.8795 1.92181 40.8585 1.92181C40.4736 1.9702 40.1236 2.15685 39.7877 2.3435L39.5847 2.4541C39.2978 2.57854 38.9828 2.65458 38.6819 2.73062C38.5209 2.7721 38.3669 2.80666 38.206 2.85505C37.954 2.9311 37.7161 3.03479 37.4501 3.1454C37.1842 3.26292 36.9042 3.38735 36.6313 3.53252C36.1133 3.81595 35.6934 4.22382 35.2945 4.61785C35.1755 4.73537 35.0705 4.83907 34.9725 4.94276L34.9236 4.99115C34.8186 5.09485 34.7066 5.21237 34.6436 5.34371C34.4616 5.35754 34.2797 5.39902 34.0767 5.44741C33.9647 5.46815 33.8597 5.48888 33.7478 5.51654C33.7058 5.53036 33.6638 5.54419 33.6288 5.5511L33.5798 5.56493C33.4468 5.58567 33.3068 5.58567 33.1739 5.59258C33.1109 5.59258 33.0479 5.59258 32.9849 5.59949C32.9079 5.59949 32.8379 5.6064 32.7609 5.61332C32.635 5.62023 32.509 5.62714 32.383 5.62714H32.327C31.6551 5.58567 31.0182 5.48197 30.2554 5.35063C29.8425 5.2815 29.4785 5.24693 29.1286 5.24693H29.0096C28.8836 5.24693 28.7646 5.25384 28.6387 5.26767C28.4847 5.27458 28.3377 5.28841 28.1837 5.28841H28.0788C27.8268 5.27458 27.6098 5.26076 27.3929 5.26076C27.2459 5.26076 27.0989 5.26767 26.959 5.2815C26.518 5.32297 26.0771 5.42667 25.6852 5.52345C25.3562 5.6064 25.0203 5.68936 24.6984 5.78614C24.5724 5.82071 24.4464 5.86218 24.3274 5.90366C24.0965 5.9797 23.8585 6.05575 23.6136 6.11105C23.4176 6.15253 23.2216 6.194 23.0257 6.23548L22.4798 6.353L22.3888 6.36683C22.2348 6.39448 22.0878 6.42213 21.9338 6.4567C21.7869 6.48435 21.6399 6.52583 21.4999 6.5673C21.4159 6.50509 21.325 6.4567 21.227 6.44287C21.192 6.42904 21.15 6.42904 21.108 6.42904C21.003 6.42904 20.884 6.46361 20.7861 6.48435L20.7371 6.49817L20.6531 6.51891C20.6111 6.53274 20.5691 6.53965 20.5271 6.55348L20.3171 6.61569L20.0442 6.69865C19.7292 6.79543 19.4143 6.89912 19.1063 7.00973C18.6374 7.16873 18.1755 7.36229 17.7276 7.54894L17.3777 7.69411C17.1747 7.77707 16.9717 7.87385 16.7688 7.97063L16.5308 8.08124C16.2369 8.2195 15.9499 8.35775 15.663 8.49601C15.334 8.66192 15.0051 8.84857 14.6971 9.03522C14.4942 9.15274 14.2912 9.27026 14.0882 9.38087C13.9273 9.47074 13.7733 9.56752 13.6193 9.65739C13.4373 9.76799 13.2484 9.8786 13.0594 9.9823L13.1994 9.92008C12.7235 10.1482 12.2756 10.4385 11.8416 10.722L11.7926 10.7565C11.6667 10.8395 11.5407 10.9225 11.4217 11.0054L11.1418 11.1921C10.9808 11.2958 10.8198 11.3994 10.6588 11.4962L10.4769 11.6137C10.2599 11.7451 10.0569 11.8834 9.84698 12.0285C9.65802 12.1599 9.46905 12.2912 9.28708 12.4226L9.10511 12.547C8.99313 12.623 8.87415 12.706 8.76917 12.7889C8.6012 12.9203 8.46123 13.0309 8.30725 13.1346C8.12529 13.259 7.94332 13.3765 7.76135 13.501C7.39742 13.736 7.02648 13.9849 6.67654 14.2545C6.48058 14.4066 6.27061 14.5656 6.05365 14.7107C6.01166 14.7384 5.97667 14.7591 5.93467 14.7868C5.89268 14.8144 5.85069 14.8421 5.8087 14.8697L5.73871 14.9112C5.52874 15.0357 5.31178 15.1739 5.27679 15.4366C5.24879 15.6716 5.33278 15.8859 5.50075 16.0242C5.56374 16.0795 5.64772 16.121 5.71771 16.1625C5.8017 16.2109 5.88568 16.2523 5.96267 16.3007C6.14464 16.4321 6.31261 16.5842 6.47358 16.7293C6.63455 16.8814 6.83751 17.0266 7.11047 17.1856C7.5094 17.4137 7.95032 17.6142 8.40524 17.7663L8.44023 17.7732H8.44723L8.44023 17.7663H8.45423V17.7594C8.46823 17.7732 8.48922 17.7801 8.50322 17.787L8.71318 17.8561L8.76917 17.8769C9.05612 17.9737 9.33607 18.0981 9.57403 18.2433C9.70701 18.34 9.84698 18.4645 9.99396 18.6304L9.96596 18.5889C10.0499 18.6926 10.1409 18.7825 10.2319 18.8792L10.3719 19.0313C10.5189 19.1903 10.6798 19.3632 10.8688 19.5291C10.9108 19.5636 10.9458 19.6051 10.9878 19.6397C11.0298 19.6742 11.0648 19.7157 11.1068 19.7503C11.1977 19.8332 11.3027 19.8955 11.4077 19.9577L11.4427 19.9784C11.6527 20.1167 11.8976 20.2757 12.1566 20.3863C12.2476 20.4277 12.3455 20.4623 12.4365 20.5038C12.5835 20.5591 12.7235 20.6213 12.8634 20.6835C12.9824 20.7388 13.1014 20.7803 13.2204 20.8287C13.3394 20.8771 13.4583 20.9186 13.5703 20.9739C13.7593 21.0637 13.9623 21.1743 14.1722 21.2988C14.3402 21.4094 14.5082 21.5269 14.6901 21.6306C14.8301 21.7066 14.9701 21.7758 15.1171 21.8449L15.166 21.8656C15.327 21.9486 15.481 22.0177 15.642 22.0799C15.8029 22.1352 15.9569 22.2044 16.1109 22.2735L16.1949 22.315C16.3278 22.3772 16.4608 22.4394 16.5938 22.4878C16.7618 22.55 16.9227 22.6191 17.0837 22.6883C17.3077 22.792 17.5176 22.8611 17.7276 22.9026L17.8676 22.9302C18.0005 22.9579 18.1335 22.9855 18.2595 23.0132C18.3085 23.027 18.3505 23.0339 18.3995 23.0478C18.4765 23.0754 18.5534 23.11 18.6304 23.1376C18.7774 23.1998 18.9314 23.2482 19.0854 23.2966C19.2043 23.3312 19.3233 23.3657 19.4423 23.4003C19.5473 23.428 19.6453 23.4556 19.7502 23.4833L19.8272 23.504L19.9252 23.5317L20.0722 23.58L20.1842 23.6146C20.3241 23.663 20.4571 23.7183 20.5901 23.7736C20.7441 23.8427 20.905 23.898 21.066 23.9464C21.185 23.9879 21.304 24.0294 21.4229 24.0847C21.5909 24.1538 21.7939 24.2368 22.0108 24.3059C22.3818 24.4234 22.7737 24.4373 23.1586 24.4511H23.2216C23.3896 24.4649 23.5646 24.4787 23.7325 24.4926C23.8585 24.5064 23.9775 24.5271 24.1035 24.5479C24.1735 24.5617 24.2364 24.5686 24.3064 24.5824C24.4114 24.5963 24.5164 24.6101 24.6284 24.617C24.6984 24.6239 24.7684 24.6308 24.8383 24.6377C25.0273 24.6585 25.2093 24.6792 25.3912 24.6999C25.7272 24.7345 26.0701 24.7622 26.4061 24.7898L26.518 24.7967L26.714 24.8105C26.882 24.8244 27.0499 24.8382 27.2179 24.8451H27.2599C27.3089 24.8451 27.3649 24.8382 27.4209 24.8382L27.4629 24.9419C27.5329 25.094 27.6028 25.2599 27.6868 25.4051C27.7358 25.4949 27.8058 25.571 27.8688 25.647L27.9038 25.6816C27.9878 25.7784 28.0508 25.8751 28.1138 25.9788C28.2677 26.283 28.3867 26.5595 28.4847 26.8222C28.5897 27.1056 28.7157 27.3545 28.8486 27.5619C28.9116 27.6518 28.9746 27.7416 29.0446 27.8246L29.1356 27.9421C29.1706 27.9905 29.2126 28.0389 29.2476 28.0873C29.2895 28.1357 29.3315 28.191 29.3665 28.2463C29.4015 28.2947 29.4295 28.3431 29.4645 28.3915C29.5135 28.4675 29.5625 28.5504 29.6185 28.6127C29.7165 28.7233 29.8145 28.8131 29.9194 28.903L30.0174 28.9929C30.1434 29.1035 30.2624 29.2003 30.3814 29.2832C30.4583 29.3316 30.5283 29.3938 30.5983 29.4491C30.6683 29.5044 30.7383 29.5597 30.8153 29.615C30.9902 29.7326 31.1722 29.8432 31.3892 29.9538L31.4522 29.9883C31.5711 30.0506 31.6901 30.1059 31.8161 30.1543C32.0261 30.2303 32.229 30.2649 32.446 30.2994C32.6 30.3271 32.7399 30.3686 32.8799 30.4031L33.0479 30.4515C33.1249 30.4722 33.2019 30.493 33.2788 30.5068C33.3768 30.5276 33.4818 30.5552 33.5798 30.5829C33.7688 30.6382 33.9437 30.6796 34.1117 30.7073C34.2097 30.7211 34.3007 30.728 34.3986 30.7419C34.4756 30.7488 34.5596 30.7557 34.6366 30.7695C34.7346 30.7833 34.8326 30.8041 34.9306 30.8248C35.0215 30.8455 35.1055 30.8663 35.1965 30.8801L35.2875 30.8939C35.3995 30.9078 35.5115 30.9216 35.6234 30.9492L35.6654 30.9631C35.7914 31.0045 35.9104 31.0529 36.0434 31.0806C36.1763 31.1152 36.3093 31.1566 36.4423 31.1912C36.4983 31.2119 36.5543 31.2258 36.6103 31.2465C36.7362 31.288 36.8692 31.3433 36.9952 31.3986L37.0932 31.4677C37.1842 31.5023 37.2751 31.523 37.3591 31.523C37.5341 31.523 37.6951 31.4539 37.814 31.3225C37.919 31.205 37.975 31.0391 37.961 30.8732C37.947 30.7142 37.877 30.5759 37.7581 30.4792C37.7021 30.4377 37.6461 30.3962 37.5901 30.3616L37.5131 30.3132C37.3801 30.2234 37.2471 30.1266 37.1212 30.0229C37.0232 29.9469 36.9252 29.857 36.8272 29.774L36.7152 29.6773C36.6243 29.6012 36.5263 29.5183 36.4423 29.4353C36.4003 29.38 36.3653 29.3316 36.3303 29.2763C36.3023 29.2072 36.2743 29.1311 36.2603 29.062C36.2463 28.9998 36.2393 28.9376 36.2323 28.8754C36.2183 28.7786 36.2043 28.6887 36.1833 28.5919C36.1483 28.4329 36.1343 28.2601 36.1413 28.0389C36.1483 27.9006 36.1623 27.7831 36.1903 27.6656L36.2323 27.5688C36.2533 27.5135 36.2743 27.4582 36.2953 27.4029C36.3443 27.2577 36.3863 27.1471 36.4353 27.0365C36.5123 26.8499 36.5753 26.6909 36.6313 26.518C36.6522 26.4558 36.6662 26.3936 36.6802 26.3314L36.7152 26.1862C36.7432 26.1033 36.7782 26.0203 36.8132 25.9304L36.8972 25.7231C36.9462 25.5848 36.9882 25.4465 37.0302 25.3014L37.0722 25.1493C37.1002 25.0732 37.1352 24.9972 37.1702 24.9142C37.2052 24.8313 37.2471 24.7414 37.2751 24.6585C37.3241 24.5202 37.3801 24.3819 37.4221 24.2368C37.4571 24.1953 37.4781 24.1953 37.5061 24.1953C37.6461 24.1884 37.779 24.1607 37.905 24.14L38.003 24.1262C38.4299 24.057 38.8569 23.9672 39.2698 23.8773C39.4448 23.8427 39.6057 23.822 39.7737 23.7943L40.0117 23.7598C40.2706 23.7183 40.5226 23.6561 40.7745 23.6008L40.9635 23.5593H40.9495C41.2994 23.4833 41.7054 23.3865 42.0903 23.2482C42.2023 23.2067 42.3212 23.1722 42.4402 23.1445L42.6292 23.0892C42.7692 23.0478 42.9091 22.9924 43.0491 22.9441L43.1541 22.9026C43.2521 22.868 43.3501 22.8335 43.4481 22.8058C43.539 22.7781 43.637 22.7436 43.728 22.7159L43.875 22.6606C44.0149 22.6053 44.1549 22.5569 44.2949 22.5016C44.5818 22.3841 44.8618 22.2389 45.1278 22.0938L45.2747 22.0177C45.5197 21.9002 45.7576 21.7827 46.0026 21.6583C46.1706 21.5822 46.3385 21.52 46.5135 21.4509L46.6325 21.4094C46.7375 21.3679 46.8424 21.3264 46.9474 21.278C47.0524 21.2366 47.1574 21.1882 47.2624 21.1467L47.3814 21.1052C47.5633 21.0361 47.7593 20.967 47.9343 20.8702C48.0182 20.8218 48.1022 20.7665 48.1792 20.7112C48.2492 20.6628 48.3122 20.6144 48.3822 20.5729L48.5361 20.5038C48.6341 20.4623 48.7321 20.4139 48.8231 20.3655C48.9771 20.2895 49.1031 20.1858 49.25 20.0752C49.516 19.8609 49.7889 19.6881 50.0479 19.5498L49.9709 19.5775C50.1809 19.4738 50.3698 19.3701 50.5448 19.2664C50.5868 19.2387 50.6218 19.2111 50.6638 19.1834C50.7758 19.3148 50.8877 19.4185 51.0137 19.5083C51.1607 19.6189 51.3287 19.7088 51.4826 19.7987L51.6226 19.8816C51.9306 20.0614 52.2595 20.2134 52.5744 20.3655L52.8614 20.4969L53.1833 20.649L53.3723 20.7388C53.3793 20.7665 53.3863 20.7941 53.3933 20.8218C53.4213 20.9186 53.4913 21.0084 53.5473 21.0914C53.7012 21.3057 53.8412 21.4716 53.9952 21.596C54.1072 21.6928 54.2401 21.7689 54.3731 21.8449L54.5061 21.9279C54.5691 21.9693 54.6391 22.0108 54.7021 22.0454C54.926 22.1698 55.171 22.3012 55.4649 22.4325C55.5839 22.4878 55.7099 22.5362 55.8359 22.5846C55.9198 22.6191 56.0038 22.6537 56.0878 22.6883C56.1788 22.7298 56.2698 22.7643 56.3608 22.7989C56.4588 22.8334 56.5567 22.8749 56.6547 22.9164C56.8717 23.0063 57.0886 23.0754 57.2986 23.1376C57.5856 23.2275 57.8865 23.2966 58.1735 23.3657L58.3484 23.4072C58.5234 23.4487 58.7054 23.4902 58.8803 23.5178C58.9573 23.5247 59.0273 23.5386 59.0973 23.5524Z" fill="#361FAA"/>
<path d="M33.4048 25.1839H33.4118L33.4048 25.1769C33.4048 25.1769 33.4048 25.1769 33.4048 25.1839Z" fill="#0D003A"/>
<path d="M61.1973 16.0796C61.1973 16.0796 61.2043 16.0796 61.2043 16.0865C61.2113 16.0865 61.2183 16.0934 61.2183 16.0934C61.2183 16.0865 61.2113 16.0865 61.1973 16.0796Z" fill="#0D003A"/>
<path d="M61.2676 16.114C61.2746 16.114 61.2816 16.1209 61.2886 16.1209C61.3096 16.1348 61.3376 16.1486 61.3656 16.1624C61.3236 16.1417 61.2956 16.1278 61.2676 16.114Z" fill="#0D003A"/>
<path d="M63.0099 8.79321C63.0099 8.80704 63.0029 8.82086 62.9959 8.83469C62.9889 8.85543 62.9889 8.86925 62.9819 8.88999C62.9959 8.86234 63.0029 8.82778 63.0099 8.79321Z" fill="#0D003A"/>
<path d="M63.0518 8.60665C63.0518 8.59282 63.0588 8.58591 63.0588 8.57208C63.0588 8.58591 63.0588 8.59282 63.0518 8.60665Z" fill="#0D003A"/>
<path d="M63.7305 4.95653C63.7305 4.94962 63.7305 4.9427 63.7375 4.93579C63.7305 4.94962 63.7305 4.94962 63.7305 4.95653Z" fill="#0D003A"/>
<path d="M33.3906 19.6051C33.3976 19.5982 33.3976 19.5982 33.3976 19.5913C33.3906 19.5982 33.3906 19.5982 33.3906 19.6051Z" fill="#0D003A"/>
<path d="M26.7915 9.40853H26.7985H26.8055C26.8055 9.40162 26.7985 9.40853 26.7915 9.40853Z" fill="#0D003A"/>
<path d="M23.3831 10.0168C23.3691 10.0168 23.3621 10.0237 23.3481 10.0237C23.3551 10.0237 23.3551 10.0237 23.3621 10.0237C23.3691 10.0237 23.3761 10.0237 23.3831 10.0168Z" fill="#0D003A"/>
<path d="M23.3267 10.0307C23.3337 10.0307 23.3407 10.0307 23.3477 10.0307C23.3477 10.0307 23.3477 10.0307 23.3547 10.0307C23.3407 10.0238 23.3337 10.0307 23.3267 10.0307Z" fill="#0D003A"/>
<path d="M32.4675 11.4478C32.7964 11.4478 33.0834 11.2197 33.1044 10.881C33.1184 10.5699 32.8594 10.2519 32.5305 10.2519C32.2016 10.2519 31.9146 10.48 31.8936 10.8188C31.8796 11.1367 32.1386 11.4478 32.4675 11.4478Z" fill="#0D003A"/>
<path d="M34.427 14.1507C34.7559 14.1507 35.0429 13.9226 35.0639 13.5839C35.0779 13.2728 34.8189 12.9548 34.49 12.9548C34.161 12.9548 33.8741 13.1829 33.8531 13.5216C33.8391 13.8396 34.098 14.1507 34.427 14.1507Z" fill="#0D003A"/>
<path d="M34.4128 15.5749C34.7418 15.5749 35.0287 15.3468 35.0497 15.008C35.0637 14.697 34.8048 14.379 34.4758 14.379C34.1469 14.379 33.8599 14.6071 33.8389 14.9458C33.8249 15.2569 34.0839 15.5749 34.4128 15.5749Z" fill="#0D003A"/>
<path d="M19.2537 16.8053C18.9318 16.8745 18.7218 17.1994 18.7918 17.5174C18.7918 17.5312 18.7988 17.545 18.7988 17.5519C18.8688 17.8699 19.1977 18.0773 19.5197 18.0082C19.8416 17.9391 20.0516 17.6141 19.9816 17.2961C19.9816 17.2823 19.9746 17.2685 19.9746 17.2616C19.9116 16.9851 19.6596 16.7915 19.3867 16.7915C19.3377 16.7915 19.2957 16.7984 19.2537 16.8053Z" fill="#0D003A"/>
<path d="M32.9785 4.55566C32.9925 4.55566 33.0065 4.55566 33.0205 4.56258C33.0065 4.55566 32.9925 4.55566 32.9785 4.55566Z" fill="#0D003A"/>
<path d="M34.2031 4.23079C34.2241 4.22388 34.2451 4.21697 34.2591 4.21005C34.2731 4.20314 34.2801 4.19623 34.2941 4.19623C34.2661 4.21005 34.2311 4.21697 34.2031 4.23079Z" fill="#0D003A"/>
<path d="M59.3351 5.0119C59.2791 5.01881 59.2301 5.02573 59.1812 5.03264C59.2301 5.02573 59.2791 5.01881 59.3351 5.0119Z" fill="#0D003A"/>
<path d="M57.1798 5.51654C57.1658 5.52345 57.1589 5.52345 57.1519 5.53037C57.1589 5.52345 57.1728 5.52345 57.1798 5.51654Z" fill="#0D003A"/>
<path d="M58.9995 14.0056C59.0205 13.9918 59.0345 13.978 59.0555 13.9642C59.0765 13.9503 59.0975 13.9296 59.1255 13.9158C59.0835 13.9434 59.0415 13.9711 58.9995 14.0056Z" fill="#0D003A"/>
<path d="M52.8965 21.5891C52.8825 21.5752 52.8615 21.5614 52.8475 21.5545C52.8195 21.5338 52.7985 21.5199 52.7705 21.4992C52.8195 21.5269 52.8615 21.5545 52.8965 21.5891Z" fill="#0D003A"/>
<path d="M39.1795 24.4857C39.1585 24.4926 39.1305 24.4926 39.1095 24.4926H39.1025C39.1235 24.4926 39.1515 24.4857 39.1795 24.4857Z" fill="#0D003A"/>
<path d="M64.5216 24.0847L64.5146 24.0916L64.5216 24.0847Z" fill="#0D003A"/>
<path d="M30.1787 29.5667C30.1647 29.5598 30.1577 29.546 30.1437 29.539C30.1157 29.5183 30.0807 29.4976 30.0527 29.4699C30.0947 29.5045 30.1367 29.5321 30.1787 29.5667Z" fill="#0D003A"/>
<path d="M7.74749 18.1465C8.20241 18.4368 8.65733 18.7272 9.12624 18.9968C9.60216 19.2664 10.0711 19.5429 10.547 19.7987C11.0369 20.0614 11.5198 20.3379 12.0097 20.6075C12.2617 20.7457 12.5136 20.884 12.7726 21.0223C13.0526 21.1674 13.3325 21.2919 13.6195 21.4163C13.8854 21.5338 14.1444 21.6513 14.4033 21.7827C14.7113 21.9417 15.0332 22.0592 15.3551 22.1767C15.6491 22.2873 15.95 22.3841 16.244 22.4947C16.5239 22.5984 16.7969 22.709 17.0698 22.7989C17.3078 22.8818 17.5528 22.9579 17.7837 23.0408C18.0007 23.1169 18.2176 23.1998 18.4346 23.2759C18.4346 23.2759 18.4416 23.2759 18.4416 23.2828H18.4346C18.4416 23.2828 18.4486 23.2828 18.4486 23.2897C18.4556 23.2897 18.4696 23.2966 18.4766 23.3035C18.4626 23.2966 18.4556 23.2966 18.4416 23.2897C18.4556 23.2966 18.4626 23.2966 18.4766 23.3035C18.4766 23.3035 18.4766 23.3035 18.4836 23.3035C19.0085 23.4902 19.5404 23.6837 20.0723 23.8427C20.1423 23.8635 20.2123 23.8773 20.2823 23.898C20.7092 24.0432 21.1361 24.2022 21.57 24.3266C21.941 24.4372 22.3329 24.5064 22.7108 24.5962C23.1308 24.693 23.5507 24.7898 23.9776 24.852C24.1666 24.8797 24.3556 24.9142 24.5515 24.935C24.7615 24.9626 24.9714 24.9765 25.1814 24.9972C25.6083 25.0387 26.0283 25.1009 26.4552 25.1424C26.6861 25.1631 26.9101 25.1838 27.1411 25.1908C27.1971 25.3428 27.253 25.488 27.316 25.6401C27.407 25.8682 27.512 26.0894 27.624 26.3107C27.715 26.4904 27.7989 26.6701 27.9039 26.8429C28.0299 27.0642 28.1699 27.2785 28.3029 27.4928C28.4428 27.714 28.6038 27.9352 28.7718 28.1426C28.9118 28.3154 29.0797 28.4744 29.2337 28.6334C29.3807 28.7924 29.5276 28.9514 29.6676 29.1104C29.8146 29.2763 29.9756 29.4076 30.1435 29.5459C30.3045 29.6703 30.4655 29.7948 30.6334 29.9123C30.8084 30.0367 30.9764 30.1612 31.1584 30.2787C31.1933 30.2994 31.2353 30.3202 31.2703 30.3409C31.2913 30.3547 31.3123 30.3755 31.3333 30.3893C31.3893 30.4238 31.4523 30.4446 31.5083 30.4722C31.7673 30.6036 32.0332 30.728 32.2852 30.8663C32.5301 30.9976 32.7961 31.0944 33.062 31.1912C33.272 31.2672 33.4889 31.3571 33.7059 31.3986C33.9299 31.447 34.1538 31.4746 34.3778 31.5161C34.6647 31.5714 34.9447 31.6336 35.2316 31.6613C35.4696 31.682 35.7146 31.6958 35.9525 31.7235C36.0715 31.7373 36.1905 31.7511 36.3094 31.758C36.5124 31.7857 36.7154 31.8203 36.9183 31.8341C37.1493 31.8548 37.3803 31.8687 37.6112 31.8825C37.7582 31.9101 37.8912 31.9516 38.0381 31.9793C38.1641 32.0069 38.2971 32.0277 38.4231 31.9862C38.5281 31.9585 38.619 31.9032 38.696 31.8341C38.696 31.8341 38.703 31.8341 38.703 31.8272C38.815 31.758 38.885 31.6405 38.899 31.5161C38.899 31.4884 38.885 31.4608 38.878 31.4262C38.885 31.2257 38.794 31.0391 38.64 30.9008C38.4861 30.7695 38.3251 30.6451 38.1781 30.5068C38.0031 30.3409 37.8492 30.1542 37.7022 29.9676C37.5622 29.7879 37.4222 29.6012 37.3033 29.4007C37.1913 29.2141 37.1003 29.0205 37.0093 28.82C36.9463 28.668 36.9043 28.5159 36.8694 28.3569C36.8554 28.2117 36.8484 28.0735 36.8484 27.9283C36.8484 27.8868 36.8414 27.8522 36.8344 27.8108C36.8414 27.6518 36.8624 27.4997 36.8903 27.3407C36.9043 27.2923 36.9183 27.2439 36.9323 27.1955C36.9463 27.1609 36.9603 27.1264 36.9743 27.0849C37.0443 26.9397 37.1283 26.8084 37.2193 26.6701C37.3033 26.5388 37.3733 26.3936 37.4362 26.2553C37.5272 26.0687 37.5972 25.8751 37.6742 25.6885C37.7372 25.5295 37.7652 25.3636 37.7862 25.1908C37.7932 25.1493 37.8002 25.1078 37.8072 25.0663C37.8212 25.0318 37.8352 24.9972 37.8422 24.9557C37.8702 24.8728 37.8842 24.7898 37.8982 24.7069C37.9052 24.6585 37.9122 24.6032 37.9122 24.5548C37.9332 24.5479 37.9542 24.5478 37.9752 24.5409C38.0521 24.5271 38.1361 24.5064 38.2131 24.4925C38.2971 24.534 38.3881 24.5686 38.4861 24.5617C38.689 24.5478 38.885 24.5202 39.088 24.4925C39.3399 24.458 39.5849 24.3958 39.8368 24.3612C39.7948 24.3681 39.7598 24.375 39.7178 24.375C40.0608 24.3266 40.3897 24.2437 40.7327 24.1953C41.0686 24.1469 41.3975 24.0432 41.7265 23.9533C42.0484 23.8635 42.3844 23.8151 42.6923 23.6906C43.0143 23.5662 43.3222 23.4141 43.6302 23.2759C43.8471 23.1929 44.0711 23.1238 44.295 23.0477C44.568 22.9579 44.8339 22.8404 45.0999 22.7297C45.5198 22.5431 45.9327 22.3357 46.3597 22.156C46.7516 21.997 47.1365 21.8242 47.5145 21.6444C47.8784 21.4785 48.2213 21.2849 48.5713 21.0983C48.9002 20.9255 49.2292 20.7457 49.5651 20.5798C49.7331 20.4969 49.894 20.4139 50.062 20.3379C50.223 20.2618 50.377 20.172 50.5449 20.1028C50.6009 20.0821 50.6639 20.0614 50.7269 20.0475C50.7479 20.0475 50.7689 20.0475 50.7969 20.0475C50.8249 20.0544 50.8459 20.0614 50.8739 20.0683C50.9649 20.1097 51.0488 20.1581 51.1328 20.2204C51.2378 20.2964 51.3568 20.3517 51.4618 20.4277C51.5877 20.5314 51.7137 20.642 51.8327 20.7596C52.0147 20.9324 52.2246 21.0914 52.4276 21.2435C52.4906 21.2919 52.5536 21.3402 52.6096 21.3817C52.5676 21.3541 52.5256 21.3195 52.4836 21.2919C52.5956 21.3817 52.7146 21.4716 52.8265 21.5615C53.2535 21.8864 53.7084 22.1905 54.1843 22.4394C54.6392 22.6814 55.1011 22.9233 55.5491 23.1722C56.06 23.4556 56.6129 23.6837 57.1728 23.8566C57.6977 24.0156 58.2296 24.14 58.7755 24.1884C59.1814 24.2299 59.5943 24.2644 60.0003 24.2644C60.1892 24.2644 60.3782 24.2644 60.5742 24.2644C60.7561 24.2782 60.9381 24.299 61.1271 24.3059C61.323 24.3128 61.519 24.3128 61.715 24.3059C61.9319 24.3059 62.1419 24.299 62.3588 24.2782C62.4428 24.2713 62.5268 24.2575 62.6108 24.2437C62.6948 24.2437 62.7788 24.2437 62.8628 24.2437C63.4087 24.2229 63.9476 24.1746 64.4865 24.0916C64.6194 24.0709 64.7524 24.0501 64.8854 24.0225C65.0324 23.9879 65.1863 23.9464 65.3403 23.9119C65.6133 23.8496 65.8862 23.8013 66.1592 23.7321C66.3901 23.6699 66.6281 23.6077 66.8591 23.5316C66.8731 23.5247 66.887 23.5178 66.908 23.5109C67.09 23.4763 67.258 23.4418 67.433 23.3934C67.6009 23.345 67.7899 23.3035 67.9019 23.1514C67.9859 23.027 67.9999 22.868 67.9369 22.7297C67.8739 22.6053 67.7549 22.5293 67.6219 22.4809C67.4609 22.4256 67.3 22.391 67.139 22.3357C66.964 22.2735 66.7891 22.2044 66.6281 22.1283C66.4881 22.0523 66.3481 21.9762 66.2082 21.8933C66.1242 21.8449 66.0472 21.7758 65.9772 21.7205C65.8232 21.5822 65.6833 21.4439 65.5363 21.2919C65.5083 21.2642 65.4803 21.2296 65.4523 21.1951C65.3403 21.0568 65.2423 20.9116 65.1444 20.7734C64.9134 20.4001 64.7244 20.013 64.5285 19.6189C64.4165 19.3977 64.2835 19.1972 64.1505 18.9898C63.9966 18.7479 63.8356 18.5129 63.6746 18.2778C63.5416 18.0704 63.4087 17.8699 63.2547 17.6833C63.0937 17.4897 62.9048 17.3169 62.7158 17.1441L62.7228 17.151C62.7158 17.1441 62.7088 17.1372 62.6948 17.1303C62.6808 17.1164 62.6598 17.1026 62.6458 17.0819C62.6528 17.0888 62.6598 17.0957 62.6668 17.1026C62.4568 16.916 62.2329 16.7431 62.0089 16.5772C61.778 16.4044 61.526 16.2592 61.267 16.121C61.267 16.121 61.26 16.121 61.26 16.1141C61.239 16.1002 61.2181 16.0933 61.1971 16.0795C60.7561 15.8514 60.3082 15.6302 59.8463 15.4366C59.6713 15.3606 59.4964 15.2914 59.3214 15.2154C59.4754 15.1186 59.6153 15.0149 59.7553 14.9043C59.7973 14.8766 59.8393 14.8421 59.8813 14.8144C59.8393 14.8421 59.7973 14.8766 59.7553 14.9043C59.8953 14.8006 60.0353 14.7038 60.1752 14.5932C60.3152 14.4826 60.4202 14.3374 60.5252 14.1992C60.6162 14.0678 60.6931 13.9227 60.7841 13.7913C60.8611 13.6738 60.9381 13.5563 61.0221 13.4457C61.1201 13.3281 61.218 13.2106 61.309 13.0862C61.449 12.9065 61.554 12.7198 61.659 12.5193C61.8199 12.2152 61.9739 11.911 62.1209 11.6068C62.2889 11.2681 62.4428 10.9224 62.5618 10.563C62.6598 10.2795 62.7018 9.9892 62.7438 9.69194C62.7508 9.63664 62.7718 9.58134 62.7788 9.52603C62.7788 9.51912 62.7858 9.50529 62.7858 9.49838C62.8628 9.27717 62.9327 9.06286 62.9817 8.83474C62.9817 8.82782 62.9817 8.82091 62.9887 8.814C63.0027 8.74487 63.0237 8.66883 63.0377 8.5997C63.0377 8.60661 63.0307 8.62044 63.0307 8.62735C63.0307 8.61352 63.0377 8.60661 63.0377 8.59278C63.0447 8.57205 63.0447 8.54439 63.0517 8.52365C63.0517 8.53748 63.0447 8.55131 63.0447 8.56513C63.0587 8.50983 63.0727 8.44761 63.0867 8.39231C63.0867 8.40614 63.0797 8.41996 63.0797 8.43379C63.1427 8.16418 63.1987 7.90149 63.2477 7.63189C63.2967 7.40376 63.3177 7.16872 63.3457 6.93368C63.3597 6.78159 63.3947 6.62951 63.4227 6.48434C63.4577 6.33917 63.4787 6.19399 63.4996 6.04882C63.5486 5.76539 63.5906 5.47505 63.6536 5.19162C63.6746 5.10866 63.6956 5.02571 63.7166 4.94275C63.7166 4.93584 63.7166 4.93584 63.7166 4.92893C63.7166 4.92201 63.7166 4.92201 63.7166 4.9151C63.7306 4.84597 63.7446 4.78375 63.7586 4.71463C63.7516 4.74919 63.7446 4.78375 63.7376 4.81832C63.7726 4.66623 63.8286 4.51415 63.8916 4.36207C63.9686 4.29294 64.0386 4.21689 64.1155 4.14776C64.2485 4.03024 64.3605 3.84359 64.3885 3.65695C64.5355 3.55325 64.5915 3.33204 64.5145 3.17304C64.4725 3.08317 64.3885 3.00713 64.2905 2.97256C64.2485 2.95874 64.2065 2.95183 64.1575 2.95183C64.1505 2.95183 64.1365 2.95874 64.1295 2.95874C64.0595 2.90343 63.9826 2.85504 63.8916 2.81357C63.9196 2.82739 63.9476 2.84122 63.9756 2.84813C63.9476 2.83431 63.9196 2.82048 63.8846 2.81357C63.8636 2.80665 63.8496 2.79974 63.8286 2.79283C63.8426 2.79974 63.8636 2.80665 63.8776 2.81357C63.7376 2.75826 63.6046 2.71679 63.4577 2.71679C63.4367 2.71679 63.4227 2.71679 63.4017 2.71679C63.2617 2.7237 63.1287 2.76518 62.9887 2.78592C62.5688 2.84122 62.1629 2.95874 61.743 3.03478C61.323 3.11774 60.8891 3.23526 60.4482 3.33895C59.9793 3.44956 59.4964 3.5256 59.0414 3.67768C58.8245 3.74681 58.6145 3.82977 58.3905 3.88507C58.1946 3.93346 58.0056 3.98877 57.8097 4.03716C57.7047 4.06481 57.5997 4.09246 57.5017 4.12011C57.3407 4.15468 57.1728 4.18924 57.0118 4.23763C56.5639 4.37589 56.1299 4.55563 55.71 4.7561C55.2691 4.9704 54.8352 5.20544 54.3943 5.42666C54.1913 5.52344 53.9883 5.62022 53.7854 5.717C53.6874 5.76539 53.5824 5.8207 53.4914 5.876C53.3864 5.94513 53.2954 6.02117 53.1975 6.0903C53.1415 6.13869 53.0855 6.18017 53.0295 6.22165C52.6726 6.49125 52.3016 6.74012 51.9657 7.04429C51.6717 7.31389 51.3778 7.59041 51.0908 7.86693C50.9299 8.01901 50.7759 8.1711 50.6219 8.33009C50.4539 8.50292 50.265 8.655 50.097 8.82782C49.7961 9.13891 49.6001 9.51912 49.3551 9.87168C49.2991 9.84403 49.2502 9.81637 49.1942 9.78181C49.1592 9.71959 49.1102 9.66429 49.0402 9.63664C48.9282 9.58134 48.8092 9.53986 48.6903 9.49147C48.6693 9.48455 48.6483 9.47073 48.6273 9.46381C48.6203 9.4569 48.6133 9.4569 48.6063 9.44999C48.5993 9.44999 48.5923 9.44308 48.5853 9.44308C48.5783 9.43616 48.5643 9.42925 48.5573 9.42925C48.4803 9.38086 48.3963 9.33247 48.3123 9.29099C48.1794 9.21495 48.0534 9.13199 47.9134 9.06286C47.7804 8.99374 47.6334 8.93843 47.4935 8.88313C47.3745 8.83474 47.2485 8.79326 47.1295 8.74487C47.0805 8.72413 47.0246 8.69648 46.9756 8.67574C46.7726 8.55131 46.5766 8.41996 46.3737 8.28862C46.1147 8.11579 45.8418 7.98445 45.5688 7.84619C45.4218 7.77014 45.2819 7.6941 45.1419 7.61806C44.9669 7.52128 44.778 7.44524 44.596 7.36919C44.379 7.27241 44.1551 7.17563 43.9241 7.12033C43.9241 7.1065 43.9311 7.09268 43.9311 7.07885C43.9521 6.96824 44.0011 6.87146 44.0361 6.76777C44.0921 6.60877 44.0991 6.43595 44.1201 6.27004C44.1551 5.98661 44.1341 5.68935 44.1481 5.40592C44.1621 5.25383 44.1901 5.10175 44.1901 4.94275C44.1971 4.78375 44.2041 4.62476 44.225 4.47267C44.225 4.49341 44.2181 4.52106 44.2181 4.5418C44.239 4.36207 44.253 4.17542 44.274 3.99568C44.288 3.8989 44.302 3.80212 44.309 3.70534C44.309 3.62929 44.316 3.54634 44.323 3.4703C44.344 3.3666 44.372 3.25599 44.393 3.1523C44.421 3.02787 44.435 2.89652 44.47 2.77209C44.505 2.70296 44.547 2.63383 44.575 2.55779C44.631 2.43335 44.673 2.30892 44.715 2.17758C44.757 2.10153 44.799 2.03932 44.8479 1.97019C44.9109 1.88032 44.9599 1.78354 45.0159 1.68676C45.1069 1.52776 45.2119 1.36876 45.2819 1.20285C45.3309 1.09916 45.3659 1.00238 45.4008 0.898682C45.4078 0.87103 45.4148 0.850292 45.4218 0.82264C45.4358 0.774249 45.4428 0.718946 45.4428 0.663642C45.4708 0.566861 45.4708 0.463167 45.4218 0.380212C45.3938 0.331821 45.3519 0.304169 45.3169 0.269605C45.2959 0.241953 45.2819 0.214301 45.2679 0.193562C45.1839 0.0553035 44.9949 0 44.8199 0C44.792 0 44.771 0 44.743 0.00691294C44.617 0.0207388 44.491 0.0345647 44.365 0.0553035C44.1761 0.0898682 43.9801 0.131346 43.7911 0.158998C43.5952 0.193562 43.3992 0.248866 43.2032 0.290343C43.0073 0.331821 42.8113 0.387125 42.6153 0.435515C42.4194 0.490819 42.2304 0.559948 42.0344 0.629078C41.8245 0.698207 41.6145 0.774249 41.4115 0.857205C41.4255 0.850292 41.4325 0.850292 41.4465 0.843379C41.3416 0.884856 41.2296 0.933247 41.1246 0.974725C41.1736 0.953986 41.2226 0.933247 41.2716 0.912508C41.1526 0.960899 41.0406 1.00929 40.9216 1.05077C40.8726 1.07151 40.8307 1.08533 40.7817 1.10607C40.8027 1.09916 40.8167 1.09224 40.8376 1.08533C40.7257 1.13372 40.6207 1.1752 40.5157 1.22359C40.5297 1.21668 40.5367 1.21668 40.5507 1.20976C40.3617 1.29272 40.1658 1.36876 39.9838 1.46554C39.8158 1.55541 39.6409 1.65219 39.4659 1.73515C39.2979 1.8181 39.123 1.89415 38.955 1.9771C38.766 2.06697 38.591 2.18449 38.4091 2.28127C38.0171 2.49557 37.6112 2.68913 37.2053 2.8827C37.0163 2.97256 36.8134 3.06243 36.6244 3.1523C36.4704 3.22834 36.3164 3.3113 36.1625 3.38043C35.8195 3.5256 35.4836 3.69842 35.1407 3.85051C35.0147 3.8989 34.8887 3.94729 34.7557 3.98877C34.5878 4.04407 34.4198 4.1132 34.2588 4.18924C34.0768 4.2722 33.9019 4.36207 33.7199 4.43811C33.5939 4.50724 33.4679 4.54871 33.335 4.58328C33.23 4.57637 33.118 4.57637 33.013 4.56254C33.013 4.56254 33.013 4.56254 33.006 4.56254H33.013C32.8731 4.54871 32.7401 4.53489 32.6001 4.53489C32.4741 4.52798 32.3551 4.52106 32.2292 4.50724C32.0542 4.47959 31.8792 4.44502 31.7043 4.42428C31.5853 4.38972 31.4523 4.3828 31.3263 4.3828C31.2353 4.3828 31.1514 4.38972 31.0674 4.38972C30.8504 4.39663 30.6404 4.42428 30.4235 4.45193C29.9616 4.50724 29.4927 4.4865 29.0307 4.51415C28.7788 4.52798 28.5268 4.5418 28.2749 4.5418C28.0439 4.5418 27.806 4.5418 27.575 4.5418C27.0571 4.5418 26.5392 4.53489 26.0283 4.58328C25.4054 4.63858 24.7685 4.7008 24.1526 4.83906C23.5787 4.96349 23.0328 5.16397 22.4729 5.32296C21.906 5.48887 21.3321 5.62713 20.7652 5.78613C20.2263 5.94513 19.6874 6.0903 19.1485 6.2493C18.5886 6.41521 18.0287 6.57421 17.4688 6.7332C17.0628 6.85072 16.6499 6.96133 16.258 7.12033C15.8521 7.27933 15.4531 7.47289 15.0542 7.64571C14.7952 7.74941 14.5293 7.8531 14.2703 7.97062C14.0044 8.08814 13.7524 8.21949 13.5005 8.36466C13.0106 8.64118 12.5066 8.89695 12.0307 9.1873C11.7928 9.33247 11.5618 9.49147 11.3379 9.65046C11.1069 9.82329 10.8619 9.98229 10.624 10.1551C10.1411 10.5146 9.69314 10.9086 9.23822 11.3027C8.85329 11.6414 8.46836 11.9732 8.09043 12.3119C7.74749 12.6161 7.37655 12.8995 7.04061 13.2106C6.90764 13.3351 6.76766 13.4526 6.63468 13.577C6.59269 13.6116 6.5507 13.6392 6.50871 13.6669C6.35473 13.7844 6.21476 13.9227 6.07478 14.0471C6.03279 14.0817 5.9838 14.1231 5.94181 14.1577C5.76684 14.3167 5.57787 14.4619 5.3959 14.614C5.21393 14.766 5.05296 14.9458 4.88499 15.1186C4.836 15.1463 4.78701 15.167 4.74502 15.2085C4.68903 15.2638 4.64704 15.3398 4.61204 15.4159C4.57005 15.4642 4.53505 15.5126 4.52106 15.5887C4.50006 15.6924 4.52106 15.803 4.58405 15.8928C4.61904 15.9412 4.66103 15.9758 4.71002 16.0035C4.72402 16.0173 4.73102 16.038 4.74502 16.0518C4.91999 16.2039 5.09496 16.356 5.27692 16.5012C5.27692 16.5012 5.27692 16.5012 5.26993 16.4943C5.27692 16.5012 5.28392 16.5081 5.29792 16.515C5.30492 16.5219 5.30492 16.5219 5.31192 16.5288C5.49389 16.674 5.67585 16.8054 5.87882 16.9229C6.07478 17.0473 6.27775 17.151 6.47371 17.2754C6.90064 17.5727 7.31356 17.8699 7.74749 18.1465ZM17.3638 8.0121C17.6577 7.92223 17.9587 7.83927 18.2526 7.74941C18.8055 7.59041 19.3584 7.43832 19.9043 7.27241C20.1633 7.19637 20.4292 7.12724 20.6952 7.05811C20.9752 6.98207 21.2551 6.89911 21.5351 6.82307C22.095 6.6779 22.6619 6.53964 23.2148 6.35299C23.5857 6.22165 23.9636 6.10413 24.3556 6.01426C24.6915 5.93822 25.0344 5.88291 25.3774 5.83452C25.8393 5.77922 26.3082 5.74465 26.7771 5.73083C26.9591 5.73083 27.1411 5.73083 27.323 5.73083C27.4 5.76539 27.491 5.79304 27.582 5.79996C27.8409 5.81378 28.0929 5.82761 28.3519 5.85526C28.5968 5.88291 28.8418 5.86909 29.0867 5.88983C29.5486 5.9313 30.0176 5.96587 30.4795 5.93822C30.6894 5.92439 30.8924 5.89674 31.1024 5.91056C31.3193 5.92439 31.5293 5.9313 31.7463 5.93822C31.9702 5.93822 32.1872 5.93822 32.4111 5.93822C32.6561 5.93822 32.915 5.89674 33.153 5.84143C33.188 5.83452 33.23 5.8207 33.265 5.81378C33.377 5.82761 33.4819 5.84143 33.5869 5.86217C33.6569 5.84835 33.7269 5.82761 33.7969 5.80687C33.9789 5.83452 34.1678 5.79304 34.3148 5.64787C34.3288 5.63405 34.3358 5.61331 34.3428 5.59948C34.3708 5.58566 34.3988 5.57874 34.4198 5.558C34.5108 5.5027 34.6087 5.4474 34.6997 5.38518C34.7627 5.33679 34.8327 5.2884 34.8957 5.24001L34.9027 5.2331C34.9307 5.21236 34.9587 5.20544 34.9867 5.18471C35.2456 5.08792 35.5046 4.99806 35.7565 4.89436C36.0505 4.76993 36.3304 4.61093 36.6244 4.4865C36.7994 4.41046 36.9743 4.33441 37.1423 4.24454C37.3313 4.14776 37.5272 4.06481 37.7162 3.97494C37.9192 3.87816 38.1221 3.78829 38.3181 3.6846C38.5211 3.5809 38.717 3.48412 38.92 3.38043C39.102 3.28365 39.2769 3.17995 39.4589 3.07626C39.6269 2.97948 39.8088 2.89652 39.9838 2.81357C40.1518 2.73061 40.3197 2.64766 40.4807 2.5647C40.5857 2.53014 40.6907 2.48866 40.7957 2.44718C40.9986 2.37114 41.2086 2.28818 41.4185 2.21214C41.4255 2.21214 41.4395 2.20523 41.4465 2.20523C41.6565 2.1361 41.8665 2.0808 42.0764 2.0324C42.3214 1.97019 42.5593 1.89415 42.8043 1.81119C43.0982 1.71441 43.4062 1.63837 43.7071 1.5485C43.7071 1.55541 43.7001 1.55541 43.7001 1.56232C43.6162 1.67293 43.5322 1.79045 43.4552 1.90797C43.2592 2.20523 43.0773 2.52322 42.9373 2.84813C42.8743 3.00022 42.8113 3.15921 42.7693 3.32512C42.7203 3.50486 42.6923 3.69151 42.6713 3.87816C42.6573 4.04407 42.6363 4.20307 42.6433 4.36898C42.6503 4.58328 42.6783 4.79758 42.7063 5.00497C42.7273 5.17088 42.7553 5.3437 42.7903 5.50961C42.8113 5.63405 42.8463 5.75848 42.8603 5.88983C42.8673 6.035 42.8743 6.17326 42.8883 6.31843C42.8883 6.28386 42.8813 6.2493 42.8813 6.20782C42.8883 6.27695 42.8883 6.35299 42.8883 6.42903C42.8533 6.53273 42.8113 6.63642 42.7833 6.74703C42.7553 6.8922 42.7203 7.03737 42.6713 7.17563C42.6713 7.17563 42.6713 7.17563 42.6643 7.17563C42.6573 7.19637 42.6503 7.21711 42.6503 7.23094C42.6433 7.23785 42.6363 7.25167 42.6293 7.25859C42.5663 7.35537 42.5523 7.4798 42.5593 7.59732C42.5453 7.70793 42.5313 7.81854 42.5174 7.92914C42.5174 7.93606 42.5174 7.94297 42.5174 7.94988C42.5174 7.94988 42.5174 7.94988 42.5174 7.95679C42.6083 7.98445 42.7063 8.0121 42.7973 8.03975C42.8183 8.06049 42.8393 8.08814 42.8673 8.09505C43.0213 8.16418 43.0423 8.16418 43.2102 8.18492C43.2452 8.19183 43.2802 8.19183 43.3222 8.19183C43.3782 8.21257 43.4412 8.2264 43.4972 8.24714C43.5322 8.26096 43.5602 8.27479 43.5952 8.2817C43.6022 8.2817 43.6022 8.2817 43.6092 8.28862C43.6162 8.28862 43.6232 8.29553 43.6302 8.29553C43.6372 8.29553 43.6372 8.29553 43.6442 8.30244C43.6512 8.30244 43.6581 8.30244 43.6581 8.30935C43.9871 8.42687 44.302 8.55131 44.624 8.68265C44.68 8.70339 44.736 8.72413 44.792 8.74487C44.9039 8.80709 45.0159 8.86239 45.1349 8.91769C45.4358 9.05595 45.7228 9.22878 45.9887 9.42234C46.1427 9.53294 46.2967 9.63664 46.4577 9.72651C46.6256 9.82329 46.8006 9.89242 46.9686 9.97537C47.1015 10.0376 47.2345 10.1067 47.3675 10.1758C47.5285 10.2588 47.6964 10.321 47.8714 10.3832C48.0954 10.48 48.3053 10.6183 48.5083 10.7427C48.5853 10.7911 48.6623 10.8257 48.7393 10.8741C48.7812 10.9017 48.8232 10.9294 48.8652 10.9501C48.9282 10.9847 48.9912 10.9985 49.0542 11.0192C49.0682 11.0261 49.0822 11.0331 49.0962 11.0331C49.1032 11.0331 49.1032 11.04 49.1102 11.04C49.1382 11.0607 49.1592 11.0814 49.2012 11.1091C49.3411 11.192 49.5371 11.2266 49.6911 11.1713C49.7331 11.1575 49.7611 11.1437 49.7961 11.1229C49.8521 11.1229 49.908 11.1091 49.957 11.0884C50.062 11.04 50.111 10.9639 50.16 10.8671C50.195 10.7911 50.237 10.7151 50.272 10.6459C50.279 10.6321 50.286 10.6183 50.293 10.6045C50.37 10.5077 50.4469 10.4178 50.5099 10.3141C50.6079 10.1551 50.7059 9.99611 50.8109 9.84403C50.8389 9.80946 50.8669 9.76798 50.9019 9.73342C51.0698 9.55368 51.2518 9.39469 51.4268 9.22186C51.5388 9.11817 51.6367 9.00756 51.7417 8.89695C51.8467 8.79326 51.9447 8.69648 52.0567 8.5997C52.4486 8.24022 52.8265 7.86001 53.2395 7.52819C53.4634 7.36228 53.6944 7.20328 53.9183 7.03046C53.8763 7.05811 53.8414 7.09268 53.7994 7.12033C53.8763 7.06502 53.9463 7.00972 54.0233 6.95442C54.2123 6.81616 54.4362 6.71247 54.6462 6.60877C54.8772 6.49816 55.1081 6.39447 55.3321 6.27695C55.626 6.13178 55.92 5.97278 56.2139 5.82761C56.3049 5.8207 56.3959 5.79996 56.4799 5.75848C56.5499 5.73774 56.6129 5.717 56.6828 5.68935C56.7738 5.65478 56.8578 5.62022 56.9418 5.58566C57.0258 5.55109 57.1098 5.51653 57.1938 5.48196C57.3057 5.43357 57.4177 5.38518 57.5297 5.33679C57.6977 5.27457 57.8656 5.22618 58.0336 5.17779C58.2226 5.13631 58.4185 5.10175 58.6145 5.0741C58.7125 5.06027 58.8105 5.04645 58.9085 5.03262C59.0554 5.01188 59.2094 4.99806 59.3564 4.97732C59.4684 4.96349 59.5873 4.94275 59.6993 4.92893C59.8463 4.90819 60.0003 4.89436 60.1472 4.87362C60.1262 4.87362 60.1122 4.88054 60.0912 4.88054C60.2522 4.8598 60.4132 4.84597 60.5742 4.83906C60.7491 4.83215 60.9241 4.81141 61.0991 4.79758C61.26 4.78375 61.428 4.78375 61.589 4.76302C61.75 4.74228 61.9109 4.70771 62.0789 4.68697C62.1839 4.67315 62.2819 4.65932 62.3798 4.63167C62.3728 4.6455 62.3588 4.66623 62.3518 4.68006C62.2749 4.81832 62.2189 4.9704 62.1629 5.12249C62.1139 5.25383 62.0719 5.38518 62.0299 5.52344C61.9879 5.66861 61.9669 5.8207 61.9529 5.97278C61.9179 6.20091 61.8479 6.42212 61.8269 6.65716C61.8059 6.87146 61.8129 7.08576 61.8129 7.30007C61.8129 7.72867 61.8199 8.15727 61.7779 8.57896C61.75 8.75178 61.701 8.92461 61.659 9.09052C61.617 9.26334 61.589 9.44308 61.568 9.62281C61.512 9.95463 61.407 10.2795 61.281 10.5906C61.1551 10.8671 61.0221 11.1367 60.8821 11.4133C60.8051 11.5723 60.7211 11.7313 60.6371 11.8903C60.5672 12.0285 60.4972 12.1599 60.4132 12.2843C60.3852 12.3258 60.3572 12.3673 60.3222 12.4018C60.1682 12.5954 60.0073 12.7889 59.8673 12.9894C59.7413 13.1761 59.6293 13.3765 59.4964 13.5632C59.4474 13.6185 59.3914 13.6669 59.3354 13.7222C59.2444 13.7913 59.1464 13.8604 59.0554 13.9227C58.9924 13.9711 58.9365 14.0125 58.8735 14.0609C58.6985 14.1854 58.5025 14.2752 58.3136 14.3789C58.1736 14.455 58.0476 14.5448 57.9286 14.6485C57.8446 14.7177 57.7747 14.8075 57.7047 14.9043C57.6487 14.9458 57.6137 15.0011 57.5857 15.0564C57.5647 15.0771 57.5297 15.0909 57.5157 15.1048C57.4037 15.2154 57.3407 15.3675 57.3407 15.5265C57.3407 15.6855 57.4037 15.8375 57.5157 15.9482C57.6417 16.0726 57.7747 16.1002 57.9426 16.121C57.9916 16.1279 58.0406 16.1348 58.0896 16.1417C58.2716 16.1694 58.4605 16.197 58.6425 16.2385C58.7895 16.2731 58.9295 16.3215 59.0694 16.3768C59.3774 16.5081 59.6783 16.6464 59.9653 16.8123C60.2592 16.9851 60.5462 17.1717 60.8191 17.3722C61.0011 17.5174 61.1691 17.6764 61.337 17.8423C61.519 18.022 61.687 18.2087 61.8689 18.3815C62.0719 18.582 62.2609 18.8101 62.4708 19.0037C62.6738 19.1903 62.8628 19.3908 63.0377 19.5982C63.2617 19.9093 63.3947 20.2757 63.5766 20.6144C63.8076 21.0568 64.1225 21.437 64.4585 21.8034C64.7174 22.0799 64.9694 22.3703 65.2563 22.6053C65.2773 22.6191 65.2913 22.633 65.3123 22.6537C64.9764 22.7297 64.6404 22.8265 64.2975 22.8749C64.3325 22.868 64.3675 22.868 64.4095 22.8611C64.2905 22.8749 64.1715 22.8957 64.0525 22.9095C63.8216 22.9371 63.5836 22.944 63.3527 22.9648C63.1077 22.9855 62.8558 22.9924 62.6108 22.9994C62.1419 23.0063 61.666 23.0063 61.1971 23.0063C60.7351 23.0063 60.2732 23.0063 59.8113 23.0063C59.6083 23.0063 59.4054 22.9786 59.2024 22.9648C59.0554 22.9579 58.9015 22.944 58.7545 22.9233C58.4325 22.8818 58.1106 22.792 57.8027 22.709C57.4947 22.6261 57.1868 22.5293 56.8928 22.4048C56.6059 22.2804 56.3329 22.1421 56.06 21.9901C55.78 21.838 55.4861 21.6928 55.2061 21.5407C54.6392 21.2366 54.0793 20.9116 53.5614 20.5245C53.4634 20.4485 53.3654 20.3724 53.2675 20.2964L53.2745 20.3033L53.2675 20.2964C53.2325 20.2687 53.2045 20.248 53.1695 20.2273L53.1625 20.2204C53.0085 20.1028 52.8545 19.9853 52.7215 19.854C52.5956 19.7364 52.4766 19.6189 52.3366 19.5152C52.1966 19.4046 52.0567 19.3009 51.9027 19.2111C51.8047 19.1558 51.7137 19.0728 51.6087 19.0244C51.4688 18.9622 51.3428 18.8792 51.1888 18.8447C51.1748 18.8378 51.1608 18.8447 51.1468 18.8378C51.0698 18.8032 50.9929 18.7963 50.9089 18.8032C50.7619 18.7963 50.6219 18.7963 50.4749 18.8239C50.384 18.8378 50.293 18.8792 50.209 18.9138C50.055 18.976 49.908 19.0382 49.7611 19.1143C49.5511 19.218 49.3481 19.3286 49.1382 19.4254C48.8932 19.5429 48.6553 19.6604 48.4173 19.7917C48.1724 19.93 47.9134 20.0544 47.6684 20.1927C47.1785 20.4692 46.6536 20.7043 46.1357 20.9255C45.5688 21.1536 45.0299 21.4301 44.47 21.6721C44.246 21.7619 44.0221 21.838 43.7911 21.9209C43.7001 21.9002 43.6022 21.8933 43.5112 21.9278C43.2872 21.997 43.0982 22.1352 42.8883 22.2389C42.6993 22.3081 42.5034 22.3564 42.3074 22.4256C42.1044 22.5016 41.8945 22.5569 41.6775 22.5984C41.5165 22.6191 41.3556 22.633 41.1946 22.6744C41.0686 22.709 40.9426 22.7367 40.8167 22.7574C40.6697 22.7712 40.5227 22.7851 40.3757 22.8127C40.2707 22.8334 40.1728 22.8473 40.0678 22.868C39.9138 22.8887 39.7598 22.9026 39.6129 22.9302C39.5079 22.951 39.4029 22.9717 39.2909 22.9924C38.99 23.0201 38.682 23.0063 38.3811 23.0132C38.0311 23.0201 37.6462 23.0339 37.3523 23.2413C37.1913 23.3519 37.0443 23.4971 36.9603 23.6699C36.8833 23.8151 36.8344 23.9672 36.7994 24.1262C36.7224 24.4511 36.6664 24.7691 36.6244 25.1009C36.6314 25.0456 36.6384 24.9972 36.6454 24.9419C36.6104 25.1493 36.5404 25.3428 36.4564 25.5364C36.3864 25.6954 36.3025 25.8613 36.2115 26.0134C36.1555 26.1033 36.0925 26.1931 36.0435 26.2899C35.9665 26.4213 35.9175 26.5664 35.8545 26.7047C35.8195 26.7946 35.7775 26.8913 35.7425 26.9812C35.6866 27.1264 35.6656 27.2508 35.6446 27.4098C35.6376 27.5066 35.6446 27.6034 35.6586 27.7002C35.6726 27.8108 35.6726 27.9214 35.6796 28.0389C35.6866 28.3085 35.7146 28.5781 35.7915 28.8339C35.8685 29.0966 35.9875 29.3454 36.1065 29.5874C36.2185 29.8293 36.3514 30.0575 36.5124 30.2718C36.5754 30.3616 36.6454 30.4446 36.7084 30.5345C36.5334 30.5275 36.3584 30.5206 36.1835 30.493C36.2045 30.493 36.2185 30.4999 36.2395 30.4999C36.0575 30.4792 35.8755 30.4584 35.6936 30.4377C35.5326 30.4169 35.3646 30.4169 35.2036 30.4031C34.8537 30.3478 34.5038 30.2579 34.1538 30.2095C33.9789 30.1819 33.8249 30.1266 33.6569 30.0713C33.4889 30.0091 33.328 29.9538 33.16 29.8916C32.978 29.8086 32.8101 29.7118 32.6351 29.6289C32.4461 29.539 32.2572 29.4491 32.0752 29.3523C31.8792 29.2486 31.6903 29.1242 31.5153 28.9929C31.3543 28.8754 31.1864 28.7717 31.0324 28.6541C30.9974 28.6265 30.9624 28.5988 30.9204 28.5712C30.9274 28.5712 30.9274 28.5781 30.9344 28.5781C30.7034 28.3984 30.5215 28.1771 30.3325 27.9628C30.1225 27.7347 29.8986 27.5135 29.6956 27.2785C29.4507 26.9466 29.2407 26.5941 29.0167 26.2415C28.9188 26.0825 28.8348 25.9097 28.7508 25.7438C28.6808 25.6055 28.6108 25.4673 28.5408 25.329C28.4708 25.1493 28.4078 24.9695 28.3309 24.7898C28.2819 24.6654 28.2329 24.5271 28.1559 24.4165C28.0509 24.2575 27.9459 24.1607 27.792 24.057C27.456 23.822 27.0501 23.8427 26.6582 23.8013C26.5112 23.7805 26.3572 23.7529 26.2102 23.7252C26.0143 23.6906 25.8183 23.6699 25.6223 23.6492C25.4334 23.6215 25.2514 23.6008 25.0624 23.5731C24.9155 23.5524 24.7615 23.5455 24.6145 23.5316C24.4535 23.5109 24.2926 23.4833 24.1246 23.4625C23.9636 23.4418 23.8027 23.4418 23.6417 23.421C23.1728 23.345 22.7108 23.2067 22.2419 23.103C21.983 23.0408 21.724 22.9648 21.4651 22.9026C21.1991 22.8334 20.9332 22.7781 20.6742 22.709C20.1353 22.5638 19.6174 22.3564 19.0855 22.1836C18.5956 22.0177 18.1197 21.8311 17.6297 21.6721C17.2448 21.5476 16.8669 21.4025 16.4959 21.2573C16.083 21.1052 15.6631 20.9669 15.2572 20.808C15.0332 20.7043 14.8092 20.5867 14.5853 20.483C14.3053 20.3517 14.0254 20.2342 13.7524 20.1028C13.2205 19.854 12.7166 19.5567 12.2057 19.2664C11.7438 19.0037 11.2749 18.7617 10.8129 18.499C10.323 18.2225 9.81912 17.946 9.33621 17.6556C9.04926 17.4828 8.77631 17.2962 8.49636 17.1234C8.18841 16.9367 7.89446 16.7293 7.59352 16.5219C7.1176 16.1901 6.59269 15.9343 6.12377 15.5887C6.12377 15.5887 6.12377 15.5887 6.11678 15.5818C6.18676 15.5126 6.25675 15.4435 6.33374 15.3813C6.5367 15.2154 6.73267 15.0495 6.92863 14.8766C7.1246 14.7038 7.33456 14.5448 7.53053 14.372C7.74749 14.1854 7.95045 13.9849 8.16041 13.8051C8.54535 13.4733 8.94428 13.1553 9.32221 12.8097C9.73514 12.4364 10.1551 12.0769 10.575 11.7105C10.694 11.6068 10.8199 11.5031 10.9459 11.4064C11.2679 11.2266 11.5758 11.0261 11.8908 10.8326C12.0587 10.722 12.2267 10.6045 12.4017 10.5077C12.5836 10.404 12.7726 10.3072 12.9616 10.2104C13.1575 10.1136 13.3465 10.0099 13.5425 9.90624C13.7384 9.80255 13.9344 9.70577 14.1234 9.58825C14.2983 9.48455 14.4803 9.38086 14.6623 9.28408C14.8442 9.1873 15.0192 9.09743 15.1942 9.00065C15.4881 8.84165 15.7891 8.68265 16.09 8.53057L16.097 8.52365H16.104H16.111C16.132 8.51674 16.146 8.50292 16.167 8.496H16.174C16.363 8.39922 16.5519 8.31627 16.7409 8.23331C16.8739 8.17109 17.0139 8.10888 17.1468 8.04666C17.1958 8.0674 17.2798 8.03975 17.3638 8.0121ZM53.5404 20.5867C53.5754 20.6144 53.6174 20.642 53.6524 20.6697C53.6244 20.649 53.5964 20.6282 53.5684 20.6006C53.5544 20.5936 53.5474 20.5867 53.5404 20.5867Z" fill="#0D003A"/>
<path d="M47.4307 15.5611C47.4097 15.5749 47.3887 15.5957 47.3677 15.6095C47.3607 15.6164 47.3537 15.6233 47.3467 15.6233C47.3747 15.6026 47.4027 15.5818 47.4307 15.5611Z" fill="#0D003A"/>
<path d="M36.0151 8.84863C36.0571 8.85555 36.0991 8.86246 36.1341 8.86937C36.1481 8.86937 36.1621 8.86937 36.1761 8.87628C36.1201 8.86937 36.0641 8.86246 36.0151 8.84863Z" fill="#0D003A"/>
<path d="M16.5308 12.0837C16.2089 12.2013 15.8799 12.3119 15.558 12.4225C15.1731 12.5538 14.8161 12.7474 14.4522 12.941C14.2912 13.0239 14.1372 13.1069 13.9763 13.1898C13.6823 13.3212 13.3884 13.4594 13.0874 13.5908C13.1224 13.5769 13.1504 13.5631 13.1854 13.5493C12.6815 13.7636 12.2126 14.0539 11.7297 14.3097C11.4007 14.4825 11.0858 14.6623 10.7848 14.8835C10.8058 14.8697 10.8268 14.8558 10.8408 14.8351C10.7988 14.8627 10.7568 14.8973 10.7149 14.925C10.6939 14.9388 10.6659 14.9526 10.6449 14.9664C10.5959 14.9941 10.5609 15.0217 10.5189 15.0563C10.4769 15.084 10.4279 15.1116 10.3859 15.1393C10.2529 15.236 10.1549 15.3328 10.106 15.4987C10.064 15.6508 10.085 15.8236 10.1689 15.955C10.1969 15.9965 10.2249 16.0379 10.2599 16.0725C10.3089 16.1555 10.3789 16.2177 10.4699 16.2661C11.1068 16.5633 11.7367 16.8744 12.3666 17.1993C12.6675 17.3514 12.9685 17.5035 13.2834 17.6348C13.4724 17.7109 13.6613 17.7869 13.8503 17.8561C13.8643 17.863 13.8783 17.8699 13.8993 17.8768C14.0043 17.9252 14.1162 17.9597 14.2212 18.0012C14.4452 18.098 14.6622 18.2017 14.8721 18.3054C15.1731 18.4506 15.481 18.5819 15.789 18.6994C16.2999 18.8999 16.8108 19.0935 17.3287 19.287C17.7626 19.4529 18.2105 19.5428 18.6444 19.6949C18.8614 19.7709 19.0714 19.8608 19.2953 19.9299C19.5053 19.9991 19.7223 20.0544 19.9322 20.1166C20.4291 20.2548 20.933 20.3862 21.437 20.5037C21.6819 20.5659 21.9339 20.6351 22.1858 20.6904C22.4518 20.7457 22.7177 20.801 22.9837 20.8494C23.2706 20.8977 23.5646 20.9461 23.8585 20.9945C24.1525 21.0429 24.4464 21.119 24.7334 21.1743C24.9083 21.2088 25.0903 21.2227 25.2653 21.2434C25.4053 21.2572 25.5522 21.278 25.6992 21.2918C25.9582 21.3125 26.2171 21.3263 26.4761 21.3125C26.714 21.3056 26.952 21.278 27.1899 21.2849C27.4139 21.2918 27.6379 21.3263 27.8548 21.3471C28.0578 21.3678 28.2607 21.3678 28.4637 21.3747C28.6947 21.3817 28.9256 21.4093 29.1566 21.4231C29.6115 21.437 30.0664 21.437 30.5144 21.437C31.0323 21.437 31.5502 21.3747 32.0611 21.3056C32.0051 21.3125 31.9561 21.3194 31.9001 21.3263C32.0821 21.3056 32.257 21.2918 32.439 21.2849C32.614 21.278 32.782 21.2572 32.9569 21.2434C33.1319 21.2296 33.3069 21.2019 33.4818 21.1881C33.6638 21.1743 33.8458 21.1673 34.0277 21.1466C34.1957 21.1259 34.3637 21.1259 34.5246 21.112C34.7486 21.0913 34.9726 21.0706 35.1895 21.036C35.4975 20.9876 35.7774 20.8494 36.0854 20.801C36.2533 20.7802 36.4213 20.7526 36.5893 20.7042C36.7782 20.6558 36.9602 20.6143 37.1492 20.5728C37.5621 20.483 37.975 20.3724 38.381 20.2618C38.5839 20.2065 38.7869 20.1581 38.9829 20.0889C39.1858 20.0198 39.3818 19.9299 39.5848 19.8608C39.7737 19.7986 39.9767 19.7709 40.1726 19.7225C40.3476 19.6742 40.5156 19.5912 40.6836 19.5152C40.7955 19.4737 40.9075 19.446 41.0265 19.4115C41.1805 19.3631 41.3344 19.2939 41.4814 19.2317C41.6844 19.1488 41.8873 19.0727 42.0903 18.9829C42.3073 18.893 42.5102 18.7824 42.7272 18.6925C42.8392 18.6441 42.9582 18.5957 43.0701 18.5473C43.1821 18.492 43.2871 18.4298 43.3921 18.3814C43.623 18.2639 43.861 18.1671 44.085 18.0289C44.3089 17.8906 44.5329 17.7524 44.7568 17.6003C44.9598 17.462 45.1418 17.2892 45.3307 17.1371C45.5127 17.0127 45.7017 16.9021 45.8766 16.7638C46.0306 16.6394 46.1846 16.508 46.3386 16.3836C46.4855 16.273 46.6255 16.1624 46.7725 16.0449C46.8495 15.9896 46.9195 15.9343 46.9964 15.879C47.0384 15.8444 47.0874 15.8098 47.1294 15.7753C47.1084 15.7891 47.0874 15.8098 47.0664 15.8236C47.1014 15.796 47.1294 15.7753 47.1644 15.7476C47.2274 15.6992 47.2904 15.6508 47.3604 15.6024C47.3814 15.5817 47.4094 15.5679 47.4304 15.5471C47.4584 15.5333 47.4864 15.5195 47.5214 15.5057C47.6403 15.4434 47.7033 15.3674 47.7803 15.2637C47.8363 15.1946 47.8713 15.0356 47.8643 14.9526C47.8573 14.8351 47.8433 14.7867 47.8083 14.7038C47.8013 14.5171 47.6753 14.3581 47.4934 14.3166C47.4654 14.3097 47.4444 14.3028 47.4234 14.2959C47.3114 14.2129 47.2064 14.13 47.0874 14.0539C46.8915 13.9295 46.6955 13.8051 46.4995 13.6668C46.2966 13.5286 46.0866 13.3834 45.8836 13.2451C45.6877 13.1138 45.4847 12.9824 45.2887 12.8511C45.2747 12.8442 45.2677 12.8303 45.2537 12.8234C45.2258 12.8027 45.1978 12.7889 45.1698 12.7681C44.9598 12.6299 44.7428 12.4916 44.5399 12.3395C44.3509 12.2082 44.1479 12.0768 43.952 11.9593C43.721 11.8211 43.4761 11.7174 43.2311 11.6068C43.0491 11.5031 42.8672 11.3994 42.6782 11.3095C42.4472 11.1989 42.2093 11.0952 41.9783 10.9915C41.7544 10.8878 41.5304 10.791 41.3134 10.6873C41.2435 10.6528 41.1665 10.6182 41.0965 10.5836C40.9425 10.5076 40.7885 10.4246 40.6276 10.3486C40.4456 10.2587 40.2566 10.1827 40.0747 10.0997C39.7177 9.94073 39.3678 9.76791 39.0109 9.61583C38.5839 9.43609 38.157 9.27018 37.7091 9.15266C37.4501 9.09044 37.1912 9.02823 36.9322 8.97292C36.6733 8.92453 36.4143 8.88997 36.1484 8.8554C35.8544 8.81393 35.5675 8.77936 35.2735 8.76554C34.9796 8.75171 34.6856 8.75171 34.3917 8.75171C34.2097 8.75171 34.0277 8.75171 33.8458 8.75171C33.4818 8.75171 33.1249 8.75171 32.761 8.75171C32.481 8.75171 32.2011 8.77245 31.9281 8.79319C31.7951 8.8001 31.6691 8.82084 31.5362 8.82775C31.3752 8.84158 31.2212 8.84849 31.0603 8.86232C30.4864 8.91762 29.9195 9.00749 29.3526 9.09044C29.2896 9.09736 29.2336 9.10427 29.1706 9.10427C29.0376 9.11809 28.8976 9.13192 28.7647 9.13883C28.5197 9.15266 28.2677 9.18031 28.0228 9.21488C27.7218 9.25635 27.4209 9.28401 27.12 9.3324C27.12 9.3324 27.12 9.3324 27.1269 9.3324C27.106 9.33931 27.085 9.33931 27.071 9.34622C27.05 9.35314 27.029 9.35313 27.008 9.36005C26.987 9.36696 26.973 9.36696 26.952 9.37387C26.945 9.37387 26.938 9.37387 26.931 9.38079C26.924 9.38079 26.917 9.38079 26.91 9.3877C26.896 9.3877 26.875 9.39461 26.861 9.39461C26.868 9.39461 26.875 9.39461 26.882 9.3877C26.875 9.3877 26.875 9.3877 26.868 9.3877C26.861 9.3877 26.861 9.3877 26.854 9.3877H26.847C26.84 9.3877 26.84 9.3877 26.833 9.3877H26.84C26.84 9.3877 26.84 9.3877 26.847 9.3877H26.84H26.833C26.833 9.3877 26.833 9.3877 26.84 9.3877C26.833 9.3877 26.833 9.3877 26.826 9.3877H26.819H26.812C26.812 9.3877 26.805 9.3877 26.798 9.3877H26.791C26.784 9.3877 26.784 9.3877 26.777 9.3877C26.784 9.3877 26.798 9.3877 26.805 9.38079H26.812H26.805H26.812C26.812 9.38079 26.812 9.38079 26.805 9.38079C26.791 9.38079 26.77 9.3877 26.756 9.3877C26.728 9.39461 26.693 9.40153 26.665 9.40153C26.5391 9.42918 26.4131 9.44992 26.2941 9.47757C26.2521 9.48448 26.2171 9.49139 26.1751 9.49831C26.0561 9.51905 25.9302 9.53978 25.8112 9.56744C25.8462 9.56052 25.8812 9.55361 25.9162 9.5467C25.9022 9.5467 25.8812 9.55361 25.8672 9.55361C25.8812 9.55361 25.9022 9.5467 25.9162 9.5467C25.8462 9.56052 25.7832 9.57435 25.7132 9.58817C25.7132 9.58817 25.7132 9.58817 25.7202 9.58817C25.6572 9.602 25.5942 9.60891 25.5312 9.62274C25.4053 9.64348 25.2793 9.66422 25.1533 9.68496C25.1673 9.68496 25.1813 9.67804 25.1883 9.67804C25.1883 9.67804 25.1813 9.67804 25.1743 9.67804C25.1813 9.67804 25.1813 9.67804 25.1883 9.67804C25.0903 9.69878 24.9923 9.71261 24.8943 9.72643C24.7404 9.75409 24.5864 9.77482 24.4324 9.80248C24.4114 9.80939 24.3904 9.80939 24.3694 9.8163C24.3554 9.8163 24.3414 9.82321 24.3274 9.82321C24.2435 9.84395 24.1525 9.85778 24.0685 9.87161C24.0895 9.87161 24.1035 9.86469 24.1175 9.85778C24.0965 9.86469 24.0825 9.86469 24.0615 9.87161C24.0825 9.86469 24.0965 9.86469 24.1175 9.85778C24.0265 9.87852 23.9355 9.89234 23.8445 9.91308C23.8655 9.90617 23.8795 9.90617 23.9005 9.89926C23.8445 9.91308 23.7885 9.92 23.7395 9.92691C23.7186 9.92691 23.6976 9.93382 23.6836 9.93382C23.6976 9.93382 23.7186 9.92691 23.7325 9.92691C23.7116 9.93382 23.6906 9.93382 23.6696 9.94073H23.6626C23.6556 9.94073 23.6486 9.94073 23.6416 9.94765C23.6416 9.94765 23.6416 9.94765 23.6486 9.94765C23.6416 9.94765 23.6346 9.94765 23.6276 9.95456C23.6206 9.95456 23.6206 9.95456 23.6136 9.95456C23.6206 9.95456 23.6206 9.95456 23.6276 9.95456C23.6206 9.95456 23.6206 9.95456 23.6136 9.95456H23.6066H23.6136C23.5926 9.96147 23.5786 9.96147 23.5576 9.96839C23.5296 9.9753 23.5016 9.9753 23.4736 9.98221C23.4386 9.98913 23.4106 9.99604 23.3756 10.003C23.3686 10.003 23.3616 10.003 23.3546 10.0099C23.3476 10.0099 23.3476 10.0099 23.3406 10.0099C23.3336 10.0099 23.3336 10.0099 23.3266 10.0099C23.3196 10.0099 23.3126 10.0099 23.3056 10.0099C23.3056 10.0099 23.3126 10.0099 23.3196 10.0099C23.3126 10.0099 23.3126 10.0099 23.3056 10.0099C23.3056 10.0099 23.3056 10.0099 23.3126 10.0099H23.3056C23.2986 10.0099 23.2846 10.0168 23.2776 10.0168C23.2846 10.0168 23.2916 10.0168 23.2986 10.0099C23.2846 10.0099 23.2636 10.0168 23.2496 10.0168C23.2566 10.0168 23.2566 10.0168 23.2636 10.0168C23.2706 10.0168 23.2776 10.0168 23.2776 10.0168C23.2706 10.0168 23.2636 10.0168 23.2636 10.0168C23.2216 10.0237 23.1866 10.0306 23.1447 10.0375C23.1377 10.0375 23.1237 10.0375 23.1167 10.0444C23.1167 10.0444 23.1167 10.0444 23.1237 10.0444C23.0467 10.0583 22.9767 10.0721 22.9067 10.0859C22.8787 10.0928 22.8507 10.0997 22.8227 10.0997C22.8087 10.0997 22.7947 10.1066 22.7807 10.1066C22.7877 10.1066 22.7947 10.1066 22.8087 10.0997H22.8017C22.7947 10.0997 22.7877 10.0997 22.7807 10.1066C22.7807 10.1066 22.7807 10.1066 22.7877 10.1066C22.7177 10.1205 22.6407 10.1343 22.5708 10.1481C22.5498 10.155 22.5358 10.155 22.5148 10.1619C22.5218 10.1619 22.5358 10.155 22.5498 10.155C22.4168 10.1827 22.2978 10.2311 22.1648 10.2656C22.1368 10.2726 22.1018 10.2795 22.0738 10.2864C22.0039 10.3002 21.9269 10.3209 21.8569 10.3348C21.5559 10.4246 21.255 10.5214 20.947 10.6182C20.7791 10.6735 20.6041 10.715 20.4291 10.7703C20.2472 10.8256 20.0652 10.8947 19.8832 10.9569C19.5123 11.0883 19.1344 11.1851 18.7634 11.3095C18.7074 11.3302 18.6444 11.351 18.5885 11.3648C18.5605 11.3717 18.5395 11.3786 18.5115 11.3855C18.4765 11.3925 18.4485 11.4063 18.4135 11.4201C18.1615 11.5031 17.9096 11.5791 17.6576 11.669C17.5386 11.7104 17.4267 11.7519 17.3077 11.8003C17.2027 11.8349 17.0977 11.8694 16.9927 11.9109C16.8248 11.9801 16.6778 12.0354 16.5308 12.0837ZM31.8581 10.003C32.1521 9.9753 32.453 9.96839 32.747 9.96147C32.747 9.96839 32.74 9.98221 32.74 9.98913C32.726 10.3002 32.9849 10.6182 33.3139 10.6182C33.6148 10.6182 33.8668 10.4246 33.9297 10.1343C34.1327 10.4661 34.3147 10.8118 34.4687 11.1712C34.5106 11.2749 34.5386 11.3855 34.5806 11.4892C34.4897 11.427 34.3917 11.3786 34.2797 11.3786C33.9507 11.3786 33.6638 11.6068 33.6428 11.9455C33.6288 12.2566 33.8878 12.5746 34.2167 12.5746C34.4966 12.5746 34.7346 12.4087 34.8116 12.1529C34.9236 12.5331 35.0076 12.9202 35.0705 13.3073C35.1335 13.7636 35.1545 14.2198 35.1405 14.6761V14.683C35.1405 14.7038 35.1405 14.7176 35.1405 14.7383C35.1405 14.7521 35.1405 14.7591 35.1405 14.7729C35.1405 14.7867 35.1405 14.7936 35.1405 14.8074C35.1405 14.8282 35.1405 14.842 35.1405 14.8627V14.8697C35.1265 15.1185 35.1055 15.3605 35.0775 15.6093C35.0216 15.9757 34.9446 16.3421 34.8466 16.6947C34.8466 16.6947 34.8466 16.6947 34.8466 16.7016C34.8396 16.7223 34.8326 16.7431 34.8326 16.7638C34.8326 16.7707 34.8326 16.7707 34.8326 16.7776C34.8256 16.7984 34.8256 16.8122 34.8186 16.8329C34.8186 16.8398 34.8186 16.8468 34.8116 16.8537C34.8046 16.8675 34.8046 16.8882 34.7976 16.9021C34.7976 16.909 34.7906 16.9159 34.7906 16.9297C34.7836 16.9435 34.7836 16.9574 34.7766 16.9643C34.7696 16.9781 34.7696 16.985 34.7626 16.9988C34.7626 17.0058 34.7556 17.0127 34.7556 17.0265C34.7486 17.0403 34.7486 17.0611 34.7416 17.0749V17.0818C34.7206 17.144 34.6926 17.2062 34.6716 17.2685C34.5666 17.144 34.4197 17.068 34.2517 17.068C34.1397 17.068 34.0417 17.1025 33.9507 17.144C33.8458 16.9781 33.6848 16.8537 33.4818 16.8537C33.1529 16.8537 32.8659 17.0818 32.8449 17.4205C32.8309 17.6763 33.0129 17.9252 33.2579 18.0081C32.9569 18.0358 32.705 18.2501 32.691 18.5612C32.677 18.8723 32.9359 19.1902 33.2649 19.1902C33.5938 19.1902 33.8808 18.9621 33.9018 18.6234C33.9158 18.3676 33.7338 18.1187 33.4888 18.0358C33.5728 18.0289 33.6498 18.0081 33.7198 17.9667C33.8248 18.1326 33.9857 18.257 34.1887 18.257C34.2167 18.257 34.2377 18.2501 34.2587 18.2432C34.1117 18.5266 33.9647 18.81 33.7898 19.0796V19.0866C33.6918 19.2386 33.5868 19.3838 33.4818 19.529C33.4748 19.5359 33.4748 19.5428 33.4678 19.5497C33.4468 19.5774 33.4328 19.5981 33.4118 19.6258C33.4118 19.6258 33.4118 19.6258 33.4118 19.6327C33.4118 19.6327 33.4118 19.6327 33.4188 19.6258L33.4258 19.6189C33.3698 19.688 33.3139 19.764 33.2509 19.8332C33.1949 19.9023 33.1599 19.9714 33.1459 20.0544C33.1109 20.0613 33.0829 20.0613 33.0479 20.0682C32.9709 20.0751 32.8939 20.082 32.8169 20.082C32.8519 20.0129 32.8729 19.9368 32.8799 19.8539C32.8939 19.5428 32.635 19.2248 32.306 19.2248C31.9771 19.2248 31.6901 19.4529 31.6691 19.7917C31.6621 19.923 31.7111 20.0475 31.7881 20.1581C31.5152 20.1788 31.2422 20.1995 30.9693 20.2134C30.7733 20.2203 30.5773 20.2203 30.3814 20.2203C30.4164 20.1511 30.4374 20.082 30.4374 19.9991C30.4514 19.7709 30.3184 19.5497 30.1154 19.446C30.7033 19.0313 31.2212 18.5059 31.6342 17.9044C31.7111 18.1257 31.9211 18.3054 32.1731 18.3054C32.502 18.3054 32.789 18.0773 32.8099 17.7385C32.8239 17.4274 32.565 17.1095 32.236 17.1095C32.1801 17.1095 32.1311 17.1233 32.0751 17.1371C32.278 16.7223 32.432 16.2868 32.537 15.8236C32.635 16.0103 32.8169 16.1624 33.0339 16.1624C33.3629 16.1624 33.6498 15.9343 33.6708 15.5955C33.6848 15.2844 33.4258 14.9664 33.0969 14.9664C32.9289 14.9664 32.768 15.0287 32.649 15.1393C32.705 14.5931 32.691 14.0608 32.607 13.5355C32.691 13.5908 32.782 13.6253 32.8869 13.6253C33.2159 13.6253 33.5028 13.3972 33.5238 13.0585C33.5378 12.7474 33.2789 12.4294 32.9499 12.4294C32.726 12.4294 32.53 12.54 32.418 12.7128C32.299 12.3395 32.1451 11.9801 31.9561 11.6344C32.0051 11.5584 32.0401 11.4685 32.0471 11.3648C32.0611 11.0537 31.8021 10.7357 31.4732 10.7357C31.4382 10.7357 31.4102 10.7495 31.3752 10.7495C31.2702 10.6182 31.1652 10.4938 31.0533 10.3693C31.1652 10.2933 31.2422 10.1827 31.2842 10.0513C31.4522 10.0375 31.6552 10.0237 31.8581 10.003ZM33.3489 19.6603C33.3489 19.6672 33.3419 19.6672 33.3349 19.6742C33.3419 19.6672 33.3419 19.6603 33.3489 19.6603ZM33.3419 19.6603C33.3349 19.6672 33.3349 19.6742 33.3279 19.6811C33.3349 19.6742 33.3419 19.6672 33.3419 19.6603ZM22.6547 19.2248C22.8857 19.4045 23.1307 19.5705 23.3896 19.7156C23.1377 19.6742 22.8787 19.6258 22.6267 19.5705C22.5428 19.5497 22.4658 19.529 22.3818 19.5152C22.5078 19.4529 22.6057 19.3562 22.6547 19.2248ZM20.3591 12.4501C20.5201 12.4501 20.6671 12.3948 20.7861 12.298C20.6461 12.6575 20.5271 13.0239 20.4571 13.411C20.4011 13.7083 20.3801 14.0055 20.3661 14.2959C20.2752 14.2337 20.1772 14.1922 20.0652 14.1922C19.7363 14.1922 19.4493 14.4203 19.4283 14.7591C19.4143 15.0701 19.6733 15.3881 20.0022 15.3881C20.1492 15.3881 20.2892 15.3328 20.4011 15.2499C20.4361 15.4987 20.4851 15.7407 20.5481 15.9826C20.3382 16.0656 20.1772 16.2522 20.1702 16.4942C20.1562 16.8053 20.4151 17.1233 20.7441 17.1233C20.8211 17.1233 20.8911 17.1095 20.954 17.0887C21.192 17.5934 21.4999 18.0565 21.8709 18.4782C21.6679 18.5612 21.5139 18.7409 21.4999 18.9829C21.4929 19.1073 21.5419 19.2317 21.6049 19.3354C21.465 19.3009 21.325 19.2663 21.192 19.2317C21.318 19.1349 21.409 18.9898 21.416 18.81C21.43 18.499 21.171 18.181 20.8421 18.181C20.5131 18.181 20.2262 18.4091 20.2052 18.7478C20.1982 18.8239 20.2122 18.9068 20.2402 18.9829C20.1702 18.9621 20.1002 18.9414 20.0302 18.9206C19.9602 18.817 19.8692 18.734 19.7363 18.6856C19.6803 18.6649 19.6173 18.658 19.5543 18.658C19.4843 18.658 19.4143 18.6718 19.3443 18.6994C19.2533 18.6649 19.1554 18.6372 19.0644 18.6026C19.0574 18.6026 19.0504 18.5957 19.0434 18.5957C19.0084 18.5266 18.9664 18.4575 18.9314 18.3883C18.9174 18.3538 18.8964 18.3192 18.8824 18.2916C18.8614 18.2501 18.8404 18.2155 18.8194 18.174C18.8194 18.1671 18.8124 18.1602 18.8124 18.1602C18.7494 18.0289 18.6934 17.9044 18.6305 17.7731C18.6235 17.7662 18.6235 17.7524 18.6165 17.7454C18.6095 17.7316 18.6095 17.7247 18.6025 17.7178C18.6025 17.7109 18.6025 17.7109 18.5955 17.704C18.3925 17.1993 18.2455 16.6809 18.1405 16.1486C18.4695 16.1486 18.7564 15.9204 18.7704 15.5817C18.7844 15.2706 18.5255 14.9526 18.1965 14.9526C18.1265 14.9526 18.0566 14.9664 17.9866 14.9872C17.9726 14.7176 17.9656 14.4549 17.9726 14.1853C18.0775 14.3097 18.2245 14.3996 18.3995 14.3996C18.6864 14.3996 18.9314 14.2198 19.0014 13.9502C19.0434 13.9572 19.0784 13.9779 19.1134 13.9779C19.4283 13.9917 19.7503 13.7359 19.7503 13.411C19.7503 13.3834 19.7503 13.3626 19.7503 13.335C19.7503 13.1691 19.7083 13.0308 19.5963 12.9064C19.4913 12.7889 19.3373 12.7197 19.1764 12.7128C19.1694 12.7128 19.1554 12.7128 19.1484 12.7128C18.8614 12.7128 18.5745 12.941 18.5535 13.2382C18.5185 13.2313 18.4905 13.2175 18.4625 13.2175C18.2945 13.2175 18.1405 13.2797 18.0216 13.3834C18.0496 13.1898 18.0915 13.0032 18.1335 12.8096C18.4485 12.7059 18.7634 12.6091 19.0784 12.5054C19.3583 12.4156 19.6383 12.3464 19.9182 12.2635C20.0372 12.3603 20.1912 12.4501 20.3591 12.4501ZM18.6235 17.7247C18.6305 17.7316 18.6305 17.7316 18.6235 17.7247V17.7247ZM17.2867 15.9481C17.2867 15.955 17.2867 15.9619 17.2867 15.9619C17.3917 16.5979 17.5666 17.227 17.8046 17.8284C17.8116 17.8422 17.8186 17.8561 17.8256 17.8768C17.8256 17.8837 17.8256 17.8837 17.8326 17.8906C17.8396 17.9114 17.8466 17.9252 17.8536 17.9459V17.9528C17.8816 18.022 17.9166 18.0911 17.9446 18.1671C17.9516 18.1879 17.9656 18.2155 17.9796 18.2363C17.8466 18.1948 17.7136 18.1602 17.5806 18.1049C17.0207 17.8906 16.4538 17.6832 15.8939 17.462C15.558 17.3099 15.2291 17.1371 14.8861 16.9919C14.5432 16.8468 14.2002 16.7223 13.8573 16.5841C13.4304 16.3974 13.0104 16.1831 12.5975 15.9688C12.3666 15.8444 12.1216 15.7338 11.8836 15.6232C11.8696 15.6163 11.8556 15.6093 11.8486 15.6024C12.0026 15.5126 12.1636 15.4227 12.3246 15.3467C12.7725 15.1185 13.1994 14.8351 13.6613 14.6346C14.0253 14.4756 14.3822 14.3097 14.7461 14.1507C15.1941 13.9502 15.628 13.7152 16.0829 13.5216C16.4818 13.3626 16.8878 13.2244 17.2867 13.0723C17.2307 13.4387 17.1887 13.8051 17.1747 14.1784C17.1467 14.7729 17.1957 15.3674 17.2867 15.9481ZM28.6037 20.1926C28.8067 20.1166 29.0096 20.0336 29.2056 19.9368C29.2056 20.0405 29.2336 20.1373 29.2826 20.2272C29.2546 20.2272 29.2336 20.2272 29.2056 20.2272C29.0026 20.2203 28.7997 20.2065 28.6037 20.1926ZM35.4205 19.7295C35.0426 19.7848 34.6646 19.8262 34.2937 19.9023C34.2447 19.9092 34.1957 19.9161 34.1467 19.923C34.1467 19.923 34.1467 19.9161 34.1537 19.9161C34.1607 19.9092 34.1677 19.8954 34.1747 19.8885C34.2727 19.7571 34.3707 19.6189 34.4617 19.4806C34.4687 19.4737 34.4687 19.4668 34.4757 19.4668C34.4757 19.4599 34.4827 19.4599 34.4827 19.4529C34.4827 19.446 34.4896 19.446 34.4896 19.4391C34.6506 19.1833 34.8046 18.9206 34.9446 18.6441C34.9446 18.6372 34.9516 18.6372 34.9516 18.6303C34.9586 18.6234 34.9586 18.6096 34.9656 18.6026C35.1615 18.2155 35.3295 17.8146 35.4695 17.3998C35.5535 17.1302 35.6304 16.8606 35.6934 16.591C35.8334 15.9896 35.9174 15.3674 35.9384 14.7521C35.9664 14.0954 35.9104 13.4387 35.7914 12.7958C35.7914 12.7958 35.7914 12.7958 35.7914 12.7889C35.7844 12.7612 35.7844 12.7336 35.7774 12.7128C35.7774 12.7059 35.7774 12.7059 35.7774 12.699C35.7704 12.6783 35.7704 12.6575 35.7634 12.6368C35.7634 12.6299 35.7634 12.623 35.7564 12.616C35.7494 12.5953 35.7494 12.5677 35.7424 12.5469C35.7424 12.54 35.7354 12.5262 35.7354 12.5193C35.7354 12.5054 35.7284 12.4916 35.7284 12.4778C35.7284 12.464 35.7214 12.457 35.7214 12.4432C35.7214 12.4294 35.7144 12.4156 35.7144 12.4017C35.7074 12.381 35.7004 12.3603 35.7004 12.3326C35.7004 12.3257 35.7004 12.3188 35.6934 12.3119C35.5955 11.904 35.4625 11.5031 35.3085 11.109C35.3085 11.1021 35.3085 11.1021 35.3015 11.0952C35.3015 11.0883 35.2945 11.0814 35.2945 11.0745C35.1965 10.8256 35.0845 10.5836 34.9656 10.3486C34.9656 10.3486 34.9656 10.3417 34.9586 10.3417C34.9516 10.3348 34.9516 10.3279 34.9446 10.314C34.9446 10.3071 34.9376 10.3002 34.9376 10.2933C34.9306 10.2795 34.9236 10.2587 34.9096 10.2449V10.238C34.9096 10.2311 34.9026 10.2242 34.9026 10.2173C34.9026 10.2103 34.8956 10.2103 34.8956 10.2034C34.8956 10.1965 34.8886 10.1965 34.8886 10.1896C34.8886 10.1896 34.8886 10.1827 34.8816 10.1827C34.8746 10.1689 34.8676 10.155 34.8606 10.1412C34.8536 10.1343 34.8536 10.1274 34.8466 10.1205C34.8186 10.0652 34.7836 10.0099 34.7486 9.95456C35.0985 9.96147 35.4555 9.9753 35.7984 10.0168C36.0224 10.0513 36.2393 10.079 36.4633 10.1136C36.7922 10.1758 37.1212 10.238 37.4501 10.3279C37.8351 10.4246 38.199 10.5767 38.5629 10.7219C38.7869 10.8187 39.0039 10.9293 39.2278 11.033C39.4938 11.1574 39.7667 11.2611 40.0327 11.3925C40.2706 11.51 40.5086 11.6344 40.7465 11.7588C41.0125 11.8971 41.2924 12.0077 41.5654 12.139C42.0693 12.381 42.5872 12.616 43.0911 12.858C43.5321 13.0723 43.917 13.3765 44.3299 13.6392C44.5609 13.7912 44.7848 13.9572 45.0228 14.1023C45.2398 14.2406 45.4427 14.3858 45.6527 14.5309C45.8416 14.6623 46.0306 14.7936 46.2266 14.9181C46.2406 14.9319 46.2616 14.9388 46.2756 14.9526C46.2616 14.9664 46.2406 14.9803 46.2266 14.9941C46.2406 14.9803 46.2616 14.9664 46.2756 14.9526C46.2616 14.9595 46.2546 14.9734 46.2406 14.9803C46.2546 14.9734 46.2616 14.9595 46.2756 14.9526C46.0796 15.0978 45.8836 15.2499 45.6947 15.395C45.6667 15.4158 45.6317 15.4434 45.6037 15.4642C45.4357 15.5955 45.2677 15.7338 45.1068 15.8651C44.9738 15.9619 44.8268 16.0379 44.6938 16.1347C44.5189 16.2661 44.3579 16.4112 44.1829 16.5564C44.05 16.6532 43.91 16.7362 43.77 16.826C43.609 16.9297 43.4481 17.0334 43.2801 17.1233C43.1191 17.2131 42.9442 17.2754 42.7832 17.3583C42.6222 17.4413 42.4612 17.5242 42.2933 17.6003C42.3423 17.5795 42.3913 17.5588 42.4402 17.5381C42.2653 17.6072 42.0973 17.6832 41.9293 17.7524C41.7964 17.8077 41.6704 17.8768 41.5374 17.9321C41.3274 18.015 41.1245 18.098 40.9215 18.181C40.7885 18.2363 40.6486 18.2777 40.5086 18.3192C40.3476 18.3676 40.1936 18.4367 40.0397 18.5059C39.7247 18.6234 39.3888 18.658 39.0738 18.7755C38.8919 18.8446 38.7169 18.9276 38.5279 18.9829C38.339 19.0451 38.143 19.0796 37.954 19.1349C37.7651 19.1902 37.5831 19.2317 37.3941 19.2801C37.2192 19.3285 37.0372 19.37 36.8622 19.4115C36.5403 19.4806 36.2253 19.5705 35.9034 19.6258C35.8124 19.6396 35.7214 19.6534 35.6304 19.6742C35.5815 19.6811 35.5395 19.7018 35.4975 19.7156C35.4555 19.7225 35.4415 19.7295 35.4205 19.7295ZM38.5489 10.7219C38.5909 10.7426 38.6329 10.7565 38.6749 10.7703C38.6469 10.7634 38.6259 10.7495 38.5979 10.7357C38.5839 10.7288 38.5699 10.7288 38.5489 10.7219ZM46.2336 16.4735C46.2546 16.4527 46.2826 16.4389 46.3036 16.4182C46.3106 16.4112 46.3246 16.4043 46.3316 16.3974C46.3036 16.4251 46.2686 16.4458 46.2336 16.4735ZM26.917 9.38079C26.91 9.38079 26.91 9.38079 26.91 9.38079C26.91 9.3877 26.917 9.38079 26.917 9.38079ZM26.847 9.39461C26.847 9.39461 26.854 9.39461 26.847 9.39461C26.854 9.39461 26.861 9.39461 26.861 9.39461H26.868C26.868 9.39461 26.868 9.39461 26.875 9.39461C26.868 9.39461 26.868 9.39461 26.861 9.39461C26.861 9.39461 26.854 9.39461 26.847 9.39461C26.854 9.39461 26.847 9.39461 26.847 9.39461Z" fill="#0D003A"/>
<path d="M45.52 15.5195C45.541 15.4988 45.569 15.4849 45.59 15.4642C45.604 15.4504 45.625 15.4366 45.639 15.4227C45.604 15.4573 45.562 15.4919 45.52 15.5195Z" fill="#0D003A"/>
<path d="M38.9692 9.60901C38.9762 9.61592 38.9902 9.61592 38.9972 9.62284C39.0392 9.63666 39.0742 9.65049 39.1162 9.67123C39.0672 9.65049 39.0182 9.62975 38.9692 9.60901Z" fill="#0D003A"/>
<path d="M47.0522 15.8513C47.0383 15.8651 47.0243 15.8721 47.0103 15.879C46.9823 15.8997 46.9543 15.9204 46.9263 15.9412C46.9683 15.9135 47.0103 15.8859 47.0522 15.8513Z" fill="#0D003A"/>
<path d="M0.0769864 2.931C0.0489913 2.91718 0.0279951 2.90335 0 2.88953C0.0279951 2.90335 0.0559901 2.91718 0.0769864 2.931Z" fill="#0D003A"/>
</g>
<defs>
<clipPath id="clip0">
<rect width="68" height="32" fill="white"/>
</clipPath>
</defs>
</svg>
