<svg xmlns="http://www.w3.org/2000/svg" width="74" height="35" fill="none"  xmlns:v="https://vecta.io/nano"><g clip-path="url(#A)"><path d="M9.688 25.76c-.122.023-.236.053-.358.061l-.388.053-.937.098-.579.015a12.29 12.29 0 0 1-.914-.03l-1.181-.083c-.084-.008-.175-.023-.259-.038l-.267-.038-.335-.015h-.259c-.221 0-.442-.03-.655-.061l-.145-.023-.396-.038a3.11 3.11 0 0 1-.366-.068c-.038 0-.076-.008-.114-.008-.099 0-.198-.023-.289-.045l-.076-.023v.008a1.75 1.75 0 0 1-.206-.045c-.282-.083-.48-.386-.449-.688.03-.355.32-.552.564-.65.198-.083.411-.136.617-.189l.259-.068.221-.091-.03-.053c-.084-.181-.061-.34-.03-.499.03-.151.19-.31.297-.416l.084-.083.061-.061.434-.537c.236-.287.442-.552.609-.847l.168-.423.099-.28c.129-.325.343-.567.571-.809.396-.416.868-.786 1.538-1.21l.571-.416c.312-.234.67-.431 1.013-.62l.48-.242.472-.234.716-.423-.023.023.061-.045a2.59 2.59 0 0 1-.503-.25c-.137-.076-.251-.166-.366-.249l-.122-.091-.122-.083c-.114-.076-.228-.159-.335-.249-.381-.325-.685-.673-.922-1.036-.175-.272-.312-.567-.449-.862l-.137-.295-.168-.34-.312-.643-.076-.159-.16-.333a5.18 5.18 0 0 1-.198-.507l-.145-.386c-.038-.091-.091-.174-.137-.257l-.046-.076c-.114-.204-.206-.416-.297-.703l-.015-.045-.015-.053h-.008l-.099-.302-.03-.091-.152-.537c-.038-.159-.069-.325-.091-.491l-.03-.219-.061-.355-.19-1.051-.152-.665-.053-.318c-.008-.083-.023-.159-.038-.242l-.046-.28-.046-.287c-.015-.083-.038-.159-.061-.234-.091-.325.069-.658.388-.839a.82.82 0 0 1 .388-.083c.107 0 .221.015.32.023l.495.045.152.008.777.038h.228c.107 0 .213.008.32.023l.114.008.267.023.244.023c.274.023.548.098.815.166l.282.068.647.159.221.076.389.129.396.151.114.045.487.159.061.015c.35.106.701.234 1.043.386.274.121.525.287.762.446l.267.174.198.121c.137.083.274.159.396.257l.571.408c.122.083.236.174.35.272l.16.106.556.469.236.189.297.242.457.401.168.151.183.151-.053-.038.419.386.046.045c.198.159.411.302.617.446l.366.25c.213.151.404.318.571.499a1.17 1.17 0 0 1 .13.144l.221.234.259.219c.053.045.099.106.145.174l.556-.295 1.044-.439a8.65 8.65 0 0 1 1.257-.401l.183-.038.716-.174.168-.06.396-.136a6.77 6.77 0 0 0 .708-.287c.122-.06.251-.106.381-.159l.327-.136.48-.227.198-.098c.206-.098.419-.166.655-.242.03-.076.03-.151.038-.227v-.076l.008-.076.015-.31a1.72 1.72 0 0 0-.084-.393c-.053-.166-.053-.348-.061-.522l-.008-.393.008-.212.008-.159a5.04 5.04 0 0 1 .061-.582l.038-.302.069-.922.023-.287.023-.446c-.015-.159-.046-.31-.084-.454l-.091-.166-.16-.265-.099-.113c-.16-.129-.305-.234-.381-.393a.67.67 0 0 1-.03-.499c.053-.151.16-.272.335-.378a.61.61 0 0 1 .289-.076c.267 0 .541.151.762.28l.053.03.137.076.427.234.168.076.404.189c.107-.091.244-.136.381-.136h.069c.419.053.8.257 1.165.461l.221.121c.312.136.655.219.983.302l.518.136c.274.083.533.197.823.318l.891.423c.564.31 1.021.756 1.455 1.187l.35.355.053.053c.114.113.236.242.305.386.198.015.396.06.617.113l.358.076.13.038.053.015c.145.023.297.023.442.03l.206.008c.084 0 .16.008.244.015l.411.015h.061c.731-.045 1.424-.159 2.254-.302.449-.076.845-.113 1.226-.113h.129c.137 0 .267.008.404.023l.495.023h.114l.746-.03.472.023c.48.045.96.159 1.386.265l1.074.287.404.129.777.227.64.136.594.129.099.015.495.098c.16.03.32.076.472.121.091-.068.19-.121.297-.136.038-.015.084-.015.129-.015.114 0 .244.038.35.06l.053.015.091.023c.046.015.091.023.137.038l.229.068.297.091 1.021.34 1.5.59.381.159.663.302.259.121.944.454 1.051.59.663.378.51.302.609.355-.152-.068c.518.25 1.005.567 1.477.877l.053.038.404.272.305.204.526.333.198.129.685.454.609.431.198.136.366.265.503.378.594.401 1.18.824.678.499.129.083.137.091.076.045c.228.136.465.287.503.575.03.257-.061.491-.244.643-.069.061-.16.106-.236.151l-.267.151c-.198.144-.381.31-.556.469-.175.166-.396.325-.693.499a7.91 7.91 0 0 1-1.409.635l-.038.008h-.008l.008-.008H64.8v-.008c-.015.015-.038.023-.053.03l-.229.076-.061.023c-.312.106-.617.242-.876.401-.145.106-.297.242-.457.424l.03-.045c-.091.113-.19.212-.289.318l-.152.166-.541.544c-.046.038-.084.083-.13.121s-.084.083-.13.121c-.099.091-.213.159-.327.227l-.038.023c-.228.151-.495.325-.777.446l-.769.325-.388.159-.381.159a8.29 8.29 0 0 0-.655.355l-.564.363-.465.234-.053.023a5.22 5.22 0 0 1-.518.234c-.175.061-.343.136-.51.212l-.091.045-.434.189-.533.219c-.244.113-.472.189-.701.234l-.152.03-.427.091-.152.038-.251.098c-.16.068-.327.121-.495.174l-.388.114-.419.113-.107.03-.16.053-.122.038-.442.174c-.167.076-.343.136-.518.189l-.388.151-.64.242c-.404.129-.83.144-1.249.159h-.069l-.556.045-.404.061-.221.038-.35.038-.229.023-.602.068-1.104.098-.122.008-.213.015-.548.038h-.046c-.053 0-.114-.008-.175-.008l-.046.113-.244.507c-.053.098-.13.181-.198.265l-.038.038c-.091.106-.16.212-.228.325-.167.333-.297.635-.404.922-.114.31-.251.582-.396.809l-.213.287-.099.129-.122.159a1.49 1.49 0 0 0-.13.174l-.107.159c-.053.083-.107.174-.168.242-.107.121-.213.219-.328.317l-.107.098-.396.318c-.084.053-.16.121-.236.181l-.236.181c-.19.129-.388.25-.624.37l-.069.038a3.72 3.72 0 0 1-.396.181c-.228.083-.449.121-.685.159-.167.03-.32.076-.472.113l-.183.053-.251.06-.328.083c-.206.06-.396.106-.579.136l-.312.038-.259.03-.32.06-.289.061-.099.015-.366.061-.046.015c-.137.045-.266.098-.411.129l-.434.121-.183.061a4.83 4.83 0 0 0-.419.166l-.107.076c-.099.038-.198.06-.289.06-.19 0-.366-.076-.495-.219-.114-.129-.175-.31-.16-.492.015-.174.091-.325.221-.431l.183-.129.084-.053.427-.318.32-.272.122-.106.297-.265.122-.174a1.4 1.4 0 0 0 .076-.234c.015-.068.023-.136.031-.204l.053-.31c.038-.174.053-.363.046-.605-.008-.151-.023-.28-.053-.408l-.046-.106-.069-.181-.152-.401-.213-.567c-.023-.068-.038-.136-.053-.204l-.038-.159-.107-.28-.091-.227-.145-.461-.046-.166-.107-.257-.114-.28-.16-.461c-.038-.045-.061-.045-.091-.045-.152-.008-.297-.038-.434-.061l-.107-.015-1.379-.272-.548-.091-.259-.038-.83-.174-.206-.045h.015a9.95 9.95 0 0 1-1.241-.34c-.122-.045-.251-.083-.381-.113l-.206-.061-.457-.159-.114-.045-.32-.106-.305-.098-.16-.061-.457-.174c-.312-.128-.617-.287-.906-.446l-.16-.083-.792-.393-.556-.227-.13-.045-.686-.287-.13-.045c-.198-.076-.411-.151-.602-.257a3.23 3.23 0 0 1-.266-.174l-.221-.151-.168-.076-.312-.151c-.168-.083-.305-.197-.465-.318a5.55 5.55 0 0 0-.868-.575l.084.03-.625-.34-.13-.091c-.122.144-.244.257-.381.355-.16.121-.343.219-.51.318l-.152.091c-.335.197-.693.363-1.036.529l-.312.144-.35.166-.206.098-.023.091c-.03.106-.107.204-.168.295-.168.234-.32.416-.488.552-.122.106-.266.189-.411.272l-.145.091-.213.129-.83.423-.404.166-.274.113-.297.121-.32.129c-.236.098-.472.174-.701.242l-.952.25-.19.045-.579.121c-.084.008-.16.023-.236.038z" fill="#361faa"/><g fill="#0d003a"><path d="M37.648 27.545h-.008l.008-.008zM7.403 17.587c-.015.008-.023.015-.023.015 0-.008.008-.008.023-.015zm-.076.038c-.008 0-.015.008-.023.008a.8.8 0 0 1-.084.045l.107-.053zM5.43 9.618c0 .015.008.03.015.045.008.023.008.038.015.06a.41.41 0 0 1-.03-.106zm-.045-.204c0-.015-.008-.023-.008-.038 0 .015 0 .023.008.038zm-.739-3.993c0-.008 0-.015-.008-.023.008.015.008.015.008.023zm33.017 16.022zm7.182-11.152h-.015zm3.709.665c.015 0 .023.008.038.008-.023 0-.03 0-.038-.008z"/><path d="M48.615 10.971h-.023c.008-.008.015 0 .023 0zm-9.947 1.55c-.358 0-.67-.25-.693-.62-.015-.34.267-.688.624-.688s.67.25.693.62c.015.348-.267.688-.625.688zm-2.132 2.956c-.358 0-.67-.249-.693-.62-.015-.34.267-.688.625-.688s.67.249.693.62c.015.348-.267.688-.625.688zm.015 1.558c-.358 0-.67-.25-.693-.62-.015-.34.267-.688.625-.688s.67.249.693.62c.015.34-.267.688-.624.688zm16.497 1.346a.66.66 0 0 1 .503.779c0 .015-.008.03-.008.038-.076.348-.434.575-.785.499a.66.66 0 0 1-.503-.779c0-.015.008-.03.008-.038.069-.302.343-.514.64-.514.053 0 .099.008.145.015zM38.112 4.983c-.015 0-.031 0-.046.008.015-.008.031-.008.046-.008zm-1.333-.356l-.061-.023c-.015-.008-.023-.015-.038-.015.03.015.069.023.099.038zm-27.35.855l.168.023-.168-.023zm2.346.552c.015.008.023.008.03.015-.008-.008-.023-.008-.03-.015zm-1.98 9.285c-.023-.015-.038-.03-.061-.045s-.046-.038-.076-.053l.137.098zm6.641 8.294a.25.25 0 0 1 .053-.038l.084-.06a.63.63 0 0 0-.137.098zm14.928 3.168c.023.008.053.008.076.008h.008c-.023 0-.053-.008-.084-.008zm-27.579-.438l.008.008-.008-.008zm37.373 5.996c.015-.008.023-.023.038-.03.031-.023.069-.045.099-.076l-.137.106z"/><path d="M65.569 19.848l-1.5.93-1.546.877-1.592.885-.83.454-.922.431-.853.401c-.335.174-.686.302-1.036.431l-.967.348-.899.333-.777.265-.708.257v.008c-.023.008-.038.015-.046.023.015-.008.023-.008.038-.015-.015.008-.023.008-.038.015l-1.736.59-.228.061-1.401.469c-.404.121-.83.197-1.242.295l-1.378.28-.625.091-.685.068-1.386.159-.746.053-.19.492a9.09 9.09 0 0 1-.335.733l-.305.582-.434.711a7.59 7.59 0 0 1-.51.711c-.152.189-.335.363-.503.537l-.472.522c-.16.181-.335.325-.518.476l-.533.401-.571.401-.122.068c-.023.015-.046.038-.069.053-.061.038-.13.06-.191.091l-.845.431c-.267.144-.556.25-.845.355-.228.083-.465.181-.701.227l-.731.129-.929.159-.785.068-.388.038-.663.083-.754.053-.465.106c-.137.03-.282.053-.419.008a.72.72 0 0 1-.297-.166c-.13-.083-.206-.212-.221-.348 0-.03.015-.06.023-.098a.74.74 0 0 1 .259-.575l.503-.431c.19-.181.358-.386.518-.59l.434-.62a6.18 6.18 0 0 0 .32-.635c.069-.166.114-.333.152-.507l.023-.469c0-.045.008-.083.015-.129-.008-.174-.03-.34-.061-.514l-.046-.159-.046-.121a3.82 3.82 0 0 0-.267-.454c-.091-.144-.168-.303-.236-.454-.099-.204-.175-.416-.259-.62a2.16 2.16 0 0 1-.122-.544l-.023-.136a.56.56 0 0 1-.038-.121c-.031-.091-.046-.181-.061-.272-.008-.053-.015-.113-.015-.166-.023-.008-.046-.008-.069-.015l-.259-.053c-.091.045-.19.083-.297.076l-.655-.076-.815-.144c.046.008.084.015.13.015l-1.104-.197c-.366-.053-.724-.166-1.082-.265-.35-.098-.716-.151-1.051-.287l-1.021-.454-.724-.249c-.297-.098-.586-.227-.876-.348l-1.371-.628-1.257-.559-1.15-.597-1.082-.567-1.066-.522c-.061-.023-.13-.045-.198-.061h-.076l-.084.023a1.53 1.53 0 0 0-.282.166c-.114.083-.244.144-.358.227l-.404.363a7.2 7.2 0 0 1-.647.529l-.198.151.137-.098-.373.295c-.465.355-.96.688-1.478.96l-1.485.802c-.556.31-1.158.559-1.767.749-.571.174-1.15.31-1.744.363l-1.333.083h-.625l-.602.045h-.64a7.47 7.47 0 0 1-.701-.03l-.274-.038H5.59a15.36 15.36 0 0 1-1.767-.166l-.434-.076-.495-.121-.891-.197-.762-.219c-.015-.008-.03-.015-.053-.023l-.571-.129c-.183-.053-.388-.098-.51-.265-.091-.136-.107-.31-.038-.461.069-.136.198-.219.343-.272l.526-.159.556-.227.457-.257c.091-.053.175-.129.251-.189l.48-.469a1.25 1.25 0 0 0 .091-.106l.335-.461c.251-.408.457-.832.67-1.263.122-.242.267-.461.411-.688l.518-.779.457-.65c.175-.212.381-.401.586-.59l-.008.008c.008-.008.015-.015.03-.023.015-.015.038-.03.053-.053l-.023.023a10.35 10.35 0 0 1 .716-.575c.251-.189.526-.348.807-.499.03-.023.053-.03.076-.045l1.47-.703.571-.242a5.32 5.32 0 0 1-.472-.34l-.137-.098.137.098-.457-.34c-.152-.121-.267-.28-.381-.431l-.282-.446-.259-.378-.312-.393a3.99 3.99 0 0 1-.381-.62l-.503-.998a8.84 8.84 0 0 1-.48-1.142c-.107-.31-.152-.628-.198-.953-.008-.06-.03-.121-.038-.181 0-.008-.008-.023-.008-.03l-.213-.726c0-.008 0-.015-.008-.023l-.05-.239c0 .008.008.023.008.03 0-.015-.008-.023-.008-.038-.008-.023-.008-.053-.015-.076 0 .015.008.03.008.045l-.046-.189c0 .015.008.03.008.045l-.183-.877c-.053-.25-.076-.507-.107-.764-.015-.166-.053-.333-.084-.491a5.2 5.2 0 0 1-.084-.476l-.168-.938-.069-.272v-.03l-.046-.219.023.113a3.15 3.15 0 0 0-.168-.499l-.244-.234C4.082 4.408 3.96 4.204 3.93 4c-.16-.113-.221-.355-.137-.529.046-.098.137-.181.244-.219a.45.45 0 0 1 .145-.023c.008 0 .023.008.03.008a1.24 1.24 0 0 1 .259-.159c-.03.015-.061.03-.091.038a.4.4 0 0 1 .099-.038l.061-.023c-.015.008-.038.015-.053.023a1.22 1.22 0 0 1 .457-.106h.061c.152.008.297.053.449.076.457.06.899.189 1.356.272l1.409.333 1.531.37.708.227.632.166.335.091.533.129a10.43 10.43 0 0 1 1.417.567l1.432.733.663.318.32.174.32.234.183.144 1.158.9.952.9.51.507.571.544c.328.34.541.756.807 1.142a1.92 1.92 0 0 0 .175-.098c.038-.068.091-.129.168-.159.122-.061.251-.106.381-.159.023-.008.046-.023.069-.03.008-.008.015-.008.023-.015.008 0 .015-.008.023-.008.008-.008.023-.015.03-.015l.267-.151.434-.249c.145-.076.305-.136.457-.197l.396-.151.168-.076.655-.423c.282-.189.579-.333.876-.484l.465-.25c.19-.106.396-.189.594-.272.236-.106.48-.212.731-.272 0-.015-.008-.03-.008-.045-.023-.121-.076-.227-.114-.34-.061-.174-.069-.363-.091-.544-.038-.31-.015-.635-.03-.945l-.046-.507-.038-.514c0 .023.008.053.008.076l-.061-.597-.038-.318c0-.083-.008-.174-.015-.257l-.076-.348-.084-.416c-.038-.076-.084-.151-.114-.234-.061-.136-.107-.272-.152-.416-.046-.083-.091-.151-.145-.227-.069-.098-.122-.204-.183-.31l-.289-.529a3 3 0 0 1-.13-.333L24.57.9a.64.64 0 0 1-.023-.174c-.03-.106-.03-.219.023-.31.03-.053.076-.083.114-.121.023-.03.038-.06.053-.083.091-.151.297-.212.487-.212.03 0 .053 0 .084.008l.411.053.625.113.64.144.64.159.632.212.678.25c-.015-.008-.023-.008-.038-.015l.35.144-.16-.068.533.212-.061-.023.35.151c-.015-.008-.023-.008-.038-.015l.617.28.564.295.556.265c.206.098.396.227.594.333l1.31.658.632.295.503.25 1.112.514.419.151a4.75 4.75 0 0 1 .541.219l.587.272c.137.076.274.121.419.159l.799-.053.404-.03.571-.091c.13-.038.274-.045.411-.045l.282.008c.236.008.465.038.701.068.503.06 1.013.038 1.516.068l.823.03h.762l1.683.045 2.041.28c.625.136 1.219.355 1.828.529l1.858.507 3.587 1.036 1.318.423 1.31.575.853.355a8.83 8.83 0 0 1 .838.431l1.599.9.754.507.777.552c.526.393 1.013.824 1.508 1.255l1.249 1.104 1.142.983.442.401c.046.038.091.068.137.098.168.129.32.28.472.416l.145.121.594.499c.198.166.373.363.556.552.053.03.107.053.152.098a.78.78 0 0 1 .145.227c.046.053.084.106.099.189.023.113 0 .234-.069.333-.038.053-.084.091-.137.121-.015.015-.023.038-.038.053l-.579.492s-.008.008-.023.015l-.015.015a4.99 4.99 0 0 1-.617.431l-.647.386-1.386.953zM55.104 8.763l-.967-.287-1.797-.522-.861-.234-2.742-.771a11.06 11.06 0 0 0-1.242-.37l-1.112-.197-1.523-.113h-.594a.86.86 0 0 1-.282.076l-.838.06c-.267.03-.533.015-.8.038-.503.045-1.013.083-1.516.053-.228-.015-.449-.045-.678-.03l-.701.03h-.724a3.6 3.6 0 0 1-.807-.106l-.122-.03-.35.053c-.076-.015-.152-.038-.229-.06a.64.64 0 0 1-.564-.174c-.015-.015-.023-.038-.031-.053-.03-.015-.061-.023-.084-.045l-.305-.189-.213-.159-.008-.008c-.03-.023-.061-.03-.091-.053l-.838-.318-.944-.446-.564-.265-.624-.295-.655-.318-.655-.333-.587-.333c-.183-.106-.381-.197-.571-.287l-.541-.272-.343-.129-.678-.257c-.008 0-.023-.008-.03-.008-.229-.076-.457-.136-.686-.189l-.792-.242-.983-.287.274.393a6.75 6.75 0 0 1 .564 1.028c.069.166.137.34.183.522.053.197.084.401.107.605.015.181.038.355.03.537a6.92 6.92 0 0 1-.069.696l-.091.552-.076.416-.03.469c0-.038.008-.076.008-.121-.008.076-.008.159-.008.242l.114.348a3.23 3.23 0 0 0 .122.469c.015.023.023.045.023.06.008.008.015.023.023.03.069.106.084.242.076.37l.046.363v.023c-.099.038-.206.068-.305.098-.023.023-.046.053-.076.06-.168.076-.19.076-.373.098-.038.008-.076.008-.122.008l-.19.06c-.038.015-.069.03-.107.038-.023.008-.03.015-.038.015-.023.008-.03.008-.03.015l-1.051.408-.183.068-.373.189c-.328.151-.64.34-.929.552l-.51.333c-.183.106-.373.181-.556.272l-.434.219a4.35 4.35 0 0 1-.548.227c-.244.106-.472.257-.693.393l-.251.144-.137.083c-.069.038-.137.053-.206.076-.015.007-.03.015-.046.015l-.114.083c-.152.091-.366.128-.533.068-.046-.015-.076-.03-.114-.053-.061 0-.122-.015-.175-.038-.114-.053-.168-.136-.221-.242l-.122-.242-.023-.045-.236-.317-.328-.514c-.03-.038-.061-.083-.099-.121l-.571-.559c-.122-.113-.228-.234-.343-.355l-.343-.325-1.287-1.172-.739-.544c.046.03.084.068.13.098l-.244-.181c-.206-.151-.449-.265-.678-.378l-.746-.363-.96-.491a.78.78 0 0 1-.289-.076l-.221-.076-.282-.113-.274-.113-.366-.159-.548-.174-.632-.113-.32-.045-.487-.06-.373-.053-.487-.06c.023 0 .038.008.061.008l-.526-.045-.571-.045-.533-.038-.533-.083c-.114-.015-.221-.03-.327-.06l.03.053c.084.151.145.318.206.484l.145.439c.046.159.069.325.084.491l.137.749c.023.234.015.469.015.703l.038 1.399c.03.189.084.378.129.56.046.189.076.386.099.582a5.15 5.15 0 0 0 .312 1.059l.434.9.267.522.244.431c.03.045.061.091.099.129l.495.643.404.627c.053.061.114.114.175.174l.305.219.198.151c.19.136.404.234.609.348a2.32 2.32 0 0 1 .419.295c.091.076.168.174.244.28a.45.45 0 0 1 .13.166c.023.023.061.038.076.053a.65.65 0 0 1 0 .922c-.137.136-.282.166-.465.189l-.16.023-.602.106a3.33 3.33 0 0 0-.465.151l-.975.476-.929.613a7.16 7.16 0 0 0-.564.514l-.579.59-.655.68c-.221.204-.427.423-.617.65-.244.34-.388.741-.586 1.111-.251.484-.594.9-.96 1.3l-.868.877a.38.38 0 0 0-.061.053l1.104.242c-.038-.008-.076-.008-.122-.015l.388.053.762.06.807.038 1.538.008h1.508c.221 0 .442-.03.663-.045l.487-.045c.35-.045.701-.144 1.036-.234a7.62 7.62 0 0 0 .99-.333 10.11 10.11 0 0 0 .906-.454l.929-.491c.617-.333 1.226-.688 1.79-1.111l.32-.249-.008.008.008-.008a.91.91 0 0 1 .107-.076l.008-.008.48-.401.419-.37c.152-.121.305-.234.472-.333.107-.061.206-.151.32-.204.152-.068.289-.159.457-.197.015-.008.03 0 .046-.008a.51.51 0 0 1 .259-.038c.16-.008.312-.008.472.023.099.015.198.061.289.098l.487.219.678.34.785.401.815.439c.533.302 1.104.559 1.668.801l1.813.817.739.272a.52.52 0 0 1 .305.008c.244.076.449.227.678.34l.632.204a4.18 4.18 0 0 0 .686.189l.526.083c.137.038.274.068.411.091l.48.061.335.061.495.068.35.068c.328.03.663.015.99.023.381.008.8.023 1.12.25a1.26 1.26 0 0 1 .426.469c.084.159.137.325.175.499.084.355.145.703.19 1.066l-.023-.174a2.81 2.81 0 0 0 .206.65 4.83 4.83 0 0 0 .267.522l.183.302c.084.144.137.302.206.454l.122.302a1.91 1.91 0 0 1 .107.469c.008.106 0 .212-.015.317-.015.121-.015.242-.023.37a3.34 3.34 0 0 1-.122.87c-.084.287-.213.56-.343.824a4.15 4.15 0 0 1-.442.749l-.213.287.571-.045c-.023 0-.038.008-.061.008l.594-.068c.175-.023.358-.023.533-.038l1.142-.212c.19-.03.358-.091.541-.151l.541-.197.571-.287.609-.302c.213-.113.419-.25.609-.393l.526-.37.122-.091c.236-.189.434-.431.64-.665l.693-.749c.267-.363.495-.748.739-1.134.107-.174.198-.363.289-.544l.228-.454.228-.59c.053-.136.107-.287.191-.408a1.29 1.29 0 0 1 .396-.393c.366-.257.807-.234 1.234-.28l.487-.083.64-.083.609-.083.487-.045.533-.076.526-.045c.51-.083 1.013-.234 1.523-.348l.845-.219.861-.212c.586-.159 1.15-.386 1.729-.575l1.584-.559 1.234-.454 1.348-.491.731-.355.906-.416c.579-.272 1.127-.597 1.683-.915l1.516-.839 1.607-.922.914-.582.983-.658 1.599-1.021a1.61 1.61 0 0 0-.228-.227l-.647-.552-.655-.552-.686-.62-1.264-1.089-1.363-1.202-.404-.333-1.028-.628-.556-.355-.609-.325-.632-.333-.632-.348-.586-.333-.579-.31-.975-.514-.008-.008h-.015c-.023-.008-.038-.023-.061-.03h-.008l-.617-.287-.442-.204c-.053.023-.145-.008-.236-.038zM15.735 22.517l-.122.091.091-.076c.015-.008.023-.015.03-.015zm6.649-5.497c.023.015.046.038.069.053.008.008.015.015.023.015l-.091-.068zm12.423-7.342l-.129.023c-.015 0-.03 0-.046.008l.175-.03z"/><path d="M56.01 13.217l1.059.37c.419.144.807.355 1.203.567l.518.272.967.439-.107-.045c.548.234 1.059.552 1.584.832a7.93 7.93 0 0 1 1.028.628c-.023-.015-.046-.03-.061-.053l.137.098.076.045c.053.03.091.061.137.098l.145.091c.145.106.251.212.305.393.046.166.023.355-.069.499-.031.045-.061.091-.099.128a.56.56 0 0 1-.228.212l-2.064 1.021-.998.476-.617.242a.37.37 0 0 1-.053.023c-.114.053-.236.091-.35.136l-.708.333-.998.431-1.676.643c-.472.182-.96.28-1.432.446l-.708.257-.693.204-1.637.423-.815.204-.868.174-.952.159-.952.197c-.19.038-.388.053-.579.076l-.472.053c-.282.023-.564.038-.845.023l-.777-.03c-.244.008-.487.045-.724.068-.221.023-.442.023-.663.03l-.754.053-1.478.015c-.564 0-1.127-.068-1.683-.144l.175.023-.587-.045-.564-.045-.571-.061-.594-.045c-.183-.023-.365-.023-.541-.038l-.724-.083c-.335-.053-.64-.204-.975-.257a3.5 3.5 0 0 1-.548-.106l-.609-.144-1.34-.34-.655-.189-.655-.25c-.206-.068-.427-.098-.64-.151-.19-.053-.373-.144-.556-.227-.122-.045-.244-.076-.373-.113-.168-.053-.335-.129-.495-.197l-.663-.272-.693-.317-.373-.159-.35-.181-.754-.386-.731-.469c-.221-.151-.419-.34-.625-.507l-.594-.408-.503-.416-.472-.37-.244-.181-.145-.113c.023.015.046.038.069.053l-.107-.083-.213-.159c-.023-.023-.053-.038-.076-.061l-.099-.045c-.13-.068-.198-.151-.282-.265-.061-.076-.099-.25-.091-.34.008-.129.023-.182.061-.272.008-.204.145-.378.343-.424l.076-.023.366-.265.64-.423.67-.461.647-.431c.015-.008.023-.023.038-.03.03-.023.061-.038.091-.061l.686-.469.64-.416c.251-.151.518-.265.785-.386l.602-.325.762-.348.724-.333.236-.113.51-.257.602-.272 1.158-.529c.465-.197.929-.378 1.417-.507l.845-.197.853-.129.952-.098.96-.015h1.775c.305 0 .609.023.906.045l.427.038.518.038 1.858.25.198.015.442.038.807.083.983.129c.015.008.038.008.053.015.023.008.046.008.069.015s.038.008.061.015c.008 0 .015 0 .023.008.008 0 .015 0 .023.007.015 0 .038.008.053.008-.008 0-.015 0-.023-.008h.099l-.023-.007c.023 0 .046.007.061.007.03.008.069.015.099.015l.404.083.13.023.396.076-.114-.023c.015 0 .038.008.053.008-.015 0-.038-.008-.053-.008l.221.045c.061.015.13.023.198.038l.411.068c-.015 0-.031-.008-.038-.008l.823.136c.023.008.046.008.069.015.015 0 .031.008.046.008.091.023.19.038.282.053-.023 0-.038-.008-.053-.015.023.008.038.008.061.015-.023-.008-.038-.008-.061-.015l.297.06c-.023-.008-.038-.008-.061-.015.061.015.122.023.175.03.023 0 .046.008.061.008-.015 0-.038-.008-.053-.008.023.008.046.008.069.015h.008c.008 0 .015 0 .023.008.023.008.023.008.03.008h0c.023.008.038.008.061.015.03.008.061.008.091.015l.107.023c.008 0 .015 0 .023.008h.053c.008 0 .023.008.03.008-.008 0-.015 0-.023-.008.015 0 .038.008.053.008h-.03l.145.023c.008 0 .023 0 .03.008l.229.045c.03.008.061.015.091.015.015 0 .03.008.046.008-.008 0-.015 0-.03-.008h.008c.008 0 .015 0 .023.008l.228.045c.023.008.038.008.061.015-.008 0-.023-.008-.038-.008.145.03.274.083.419.121l.099.023.236.053.99.31.564.166.594.204 1.219.386.19.061.084.023c.038.008.069.023.107.038l.823.272.381.144.343.121.503.189zm-16.68-2.276l-.967-.045c0 .008.008.023.008.03.015.34-.267.688-.624.688a.67.67 0 0 1-.67-.529 8.89 8.89 0 0 0-.587 1.134l-.122.348a.58.58 0 0 1 .328-.121c.358 0 .67.25.693.62.015.34-.267.688-.624.688-.305 0-.564-.182-.647-.461a10.41 10.41 0 0 0-.282 1.263c-.069.499-.091.998-.076 1.497v.212l.069.809c.061.401.145.801.251 1.187.008.03.015.053.015.076.008.038.008.053.015.076 0 .008 0 .015.008.023.008.015.008.038.015.053 0 .008.008.015.008.03.008.015.008.03.015.038.008.015.008.023.015.038 0 .008.008.015.008.03.008.015.008.038.015.053v.008l.076.204a.59.59 0 0 1 .457-.219c.122 0 .229.038.328.083.114-.181.289-.318.51-.318.358 0 .67.25.693.62.015.28-.183.552-.449.643.328.03.602.265.617.605s-.267.688-.624.688-.67-.25-.693-.62c-.015-.28.183-.552.449-.643-.091-.008-.175-.03-.251-.076-.114.181-.289.317-.51.317-.031 0-.053-.008-.076-.015l.51.915v.008l.335.484c.008.008.008.015.015.023l.061.083-.015-.007.19.234c.061.076.099.151.114.242.038.008.069.008.107.015l.251.015c-.038-.076-.061-.159-.069-.25-.015-.34.267-.688.624-.688s.67.25.693.62c.008.144-.046.28-.129.401l.891.061.64.008a.52.52 0 0 1-.061-.242.65.65 0 0 1 .35-.605c-.64-.454-1.203-1.028-1.653-1.686-.084.242-.312.439-.586.439-.358 0-.67-.25-.693-.62-.015-.34.267-.688.624-.688.061 0 .114.015.175.03-.221-.454-.388-.93-.503-1.436-.107.204-.305.37-.541.37-.358 0-.67-.25-.693-.62-.015-.34.267-.688.625-.688.183 0 .358.068.487.189-.061-.597-.046-1.179.046-1.754a.54.54 0 0 1-.305.098c-.358 0-.67-.249-.693-.62-.015-.34.267-.688.625-.688.244 0 .457.121.579.31a6.7 6.7 0 0 1 .503-1.18.62.62 0 0 1-.099-.295c-.015-.34.267-.688.625-.688.038 0 .069.015.107.015l.35-.416a.65.65 0 0 1-.251-.348l-.625-.053zm-1.622 10.563c0 .008.008.008.015.015-.008-.008-.008-.015-.015-.015zm.008 0c.008.008.008.015.015.023-.008-.008-.015-.015-.015-.023zm11.63-.476a6.4 6.4 0 0 1-.8.537l.83-.159.267-.061a.58.58 0 0 1-.297-.317zm2.498-7.41c-.175 0-.335-.06-.465-.166.152.393.282.794.358 1.217.061.325.084.65.099.968a.57.57 0 0 1 .328-.114c.358 0 .67.25.693.62.015.34-.267.688-.625.688-.16 0-.312-.061-.434-.151a7.1 7.1 0 0 1-.16.802c.228.091.404.295.411.559.015.34-.267.688-.624.688a.72.72 0 0 1-.228-.038c-.259.552-.594 1.059-.998 1.52a.63.63 0 0 1 .404.552c.008.136-.046.272-.114.386l.449-.113c-.137-.106-.236-.265-.244-.461-.015-.34.267-.688.625-.688s.67.25.693.62c.008.083-.008.174-.038.257l.229-.068a.64.64 0 0 1 .32-.257.57.57 0 0 1 .198-.03c.076 0 .152.015.229.045l.305-.106c.008 0 .015-.008.023-.008l.122-.227c.015-.038.038-.076.053-.106l.069-.128.206-.439c.008-.008.008-.023.015-.03.008-.015.008-.023.015-.03a9.38 9.38 0 0 0 .503-1.716c-.358 0-.67-.25-.685-.62-.015-.34.267-.688.625-.688.076 0 .152.015.228.038l.015-.877c-.114.136-.274.234-.465.234-.312 0-.579-.197-.655-.491-.046.008-.084.03-.122.03-.343.015-.693-.265-.693-.62v-.083a.66.66 0 0 1 .168-.469.65.65 0 0 1 .457-.212h.03c.312 0 .624.249.647.575.038-.008.069-.023.099-.023.183 0 .35.068.48.181l-.122-.628-1.028-.333-.914-.265c-.13.106-.297.204-.48.204zm1.889 5.769h0zm1.455-1.943c-.114.711-.305 1.399-.564 2.057-.008.015-.015.03-.023.053l-.031.076v.008l-.099.234a.35.35 0 0 1-.038.076l.434-.144 1.836-.703 1.097-.514 1.12-.446 1.371-.673.777-.378c.015-.008.03-.015.038-.023l-.518-.28-1.455-.779-1.181-.529-1.455-.688-1.31-.491c.061.401.107.801.122 1.21.03.65-.023 1.3-.122 1.936zm-12.315 4.642l-.655-.28a.66.66 0 0 1-.084.317h.084l.655-.038zm-7.418-.507l1.226.189.16.023c-.015-.015-.023-.03-.03-.038l-.312-.446c-.008-.008-.008-.015-.015-.015-.008-.023-.015-.023-.015-.03l-.495-.87c-.015-.023-.015-.038-.023-.045-.213-.423-.396-.862-.548-1.316l-.244-.885a10.54 10.54 0 0 1-.267-2.011c-.031-.718.03-1.437.16-2.14.008-.038.008-.068.015-.091.008-.038.008-.06.015-.083 0-.008 0-.015.008-.023.008-.023.008-.053.015-.076 0-.008.008-.023.008-.03 0-.015.008-.03.008-.045s.008-.023.008-.038.008-.03.008-.045c.008-.023.015-.045.015-.076 0-.008 0-.015.008-.023.107-.446.251-.885.419-1.316.008-.023.015-.03.015-.038a9.37 9.37 0 0 1 .358-.794c.015-.015.015-.023.023-.038 0-.008.008-.015.008-.023.008-.015.015-.038.031-.053v-.008c0-.008.008-.015.008-.023.008-.023.015-.023.015-.03.015-.023.023-.038.031-.053.008-.008.008-.015.015-.023.03-.06.069-.121.107-.181l-1.142.068-.724.106-1.074.234c-.419.106-.815.272-1.211.431l-.724.34-.876.393-.777.401-.891.416-1.66.786c-.48.234-.899.567-1.348.854l-.754.507-.685.469-.625.424c-.015.015-.038.023-.053.038.015.015.038.03.053.045-.015-.015-.038-.03-.053-.045.015.007.023.023.038.03-.015-.008-.023-.023-.038-.03l.731.559.541.438c.145.106.305.189.449.295l.556.461c.145.106.297.197.449.295l.533.325c.175.098.366.166.541.257l.533.265-.16-.068.556.234.427.197.67.272c.145.06.297.106.449.151a4.21 4.21 0 0 1 .51.204c.343.129.708.166 1.051.295l.594.227c.206.068.419.106.625.166l.609.159.579.144 1.044.234.297.053c.053.008.099.03.145.045.046.008.061.015.084.015zm-3.404-9.852c-.046.023-.091.038-.137.053.03-.007.053-.023.084-.038.015-.008.031-.008.053-.015zm-8.363 6.291c-.023-.023-.053-.038-.076-.061-.008-.008-.023-.015-.03-.023.03.03.068.053.107.083zm21.021-7.758zm.076.015h-.023.023z"/><path d="M24.463 16.975c-.023-.023-.053-.038-.076-.06-.015-.015-.038-.03-.053-.045a.88.88 0 0 0 .13.106zm7.129-6.465c-.008.008-.023.008-.03.015a.93.93 0 0 0-.13.053l.16-.068zm-8.796 6.827a.14.14 0 0 0 .046.03l.091.068-.137-.098zm51.12-14.131L74 3.16l-.084.045z"/></g></g><defs><clipPath id="A"><path fill="#fff" transform="matrix(-1 0 0 1 74 0)" d="M0 0h74v35H0z"/></clipPath></defs></svg>