<svg xmlns="http://www.w3.org/2000/svg" width="18" height="20" fill="none"  xmlns:v="https://vecta.io/nano"><path d="M4.029 17.501H.297V5.817h3.732v11.684zM2.161 4.224C.968 4.224 0 3.263 0 2.103A2.07 2.07 0 0 1 .633.617c.405-.394.955-.615 1.528-.615s1.123.221 1.528.615a2.07 2.07 0 0 1 .633 1.486c0 1.16-.968 2.121-2.161 2.121zm15.835 13.277h-3.724v-5.688c0-1.355-.028-3.094-1.94-3.094-1.94 0-2.238 1.473-2.238 2.996v5.785H6.367V5.817h3.579v1.594h.052c.498-.918 1.715-1.887 3.531-1.887 3.777 0 4.471 2.418 4.471 5.559l-.004 6.418z" fill="#05f"/></svg>