<svg width="3831" height="2052" viewBox="0 0 3831 2052" fill="none" xmlns="http://www.w3.org/2000/svg">
<g clip-path="url(#clip0)">
<path d="M912.026 -1183.3C1044.14 -1905.9 1876.13 -2053 1876.13 -2053C1876.13 -2053 1400.62 -1899.4 1311.65 -1301.25C1138.79 -139.123 3904.97 -608.41 3776.55 562.572C3662.3 1604.3 1007.79 1510.81 971.359 2561.19C932.242 3688.93 3527.96 3692.48 3776.55 4778.2C4120.23 6279.25 227.411 6157.92 227.411 6157.92C227.411 6157.92 3260.39 6110.59 3097.29 4840.42C2964.87 3809.07 324.84 3605.14 348.968 2561.19C371.743 1575.76 2830.24 1596.89 2934.52 619.601C3051.69 -478.404 714.541 -103.203 912.026 -1183.3Z" fill="#B22778"/>
<path d="M911.999 -1182.36C1044.11 -1904.97 1875.93 -2052.72 1875.93 -2052.72C1875.93 -2052.72 1236.25 -1841.43 1147.28 -1243.28C1103.16 -946.694 1241.08 -763.965 1468.36 -636.67C2264.46 -495.888 3610.3 -700.51 3530.19 50.2744C3520.94 136.97 3486.53 214.89 3431.64 285.978C3446.76 353.677 3449.69 429.136 3438.37 513.646C3299.54 1550.77 858.353 1195.23 772.187 2423.52C744.945 2811.85 903.667 3040.97 1161.38 3182.73C2105.23 3309.78 3506.5 2815.45 3596.97 3520.05C3605.95 3590.02 3603.7 3660.28 3591.42 3730.61C3700.62 3811.03 3777.55 3916.6 3809.81 4057.54C4153.48 5558.61 219.581 6161.6 219.581 6161.6C219.581 6161.6 3380.78 4937.16 3591.42 3730.61C3068.54 3345.57 1805.64 3537.11 1161.38 3182.73C723.684 3123.81 384.356 2931.25 319.745 2423.52C141.861 1025.65 2867.71 1016.26 3431.64 285.978C3289.37 -350.819 2067.92 -300.864 1468.36 -636.67C1100.15 -701.782 849.548 -840.781 911.999 -1182.36Z" fill="#FFEB25"/>
<path d="M303.84 -1244.91C435.945 -1967.47 1875.04 -2053 1875.04 -2053C1875.04 -2053 784.56 -1843.03 695.597 -1244.91C522.752 -82.8466 3195.8 -600.063 3067.39 570.857C2953.15 1612.53 461.671 1644.12 425.242 2694.44C386.13 3822.12 3540.26 3217.17 3788.82 4302.84C4132.47 5803.8 222.321 6161.38 222.321 6161.38C222.321 6161.38 3326.97 5572.95 3163.89 4302.84C3031.48 3271.55 -24.0258 3738.33 0.0996285 2694.44C22.8727 1709.06 2379.39 1548.1 2483.66 570.857C2600.81 -527.089 106.376 -164.869 303.84 -1244.91Z" fill="#1B2C71"/>
<path fill-rule="evenodd" clip-rule="evenodd" d="M327.264 2127.96C563.164 1935.47 897.871 1777.53 1233.55 1619.12C1713.71 1392.54 2195.86 1165.02 2393.68 834.125C2644.36 749.02 2878.33 662.479 3068.2 563.099C3067.94 565.682 3067.67 568.272 3067.39 570.872C3034.05 874.82 2798.32 1092.77 2480.24 1275.12C2380.98 1307.43 2278.74 1338.35 2175.96 1369.43C1676.88 1520.36 1164.99 1675.17 919.31 2012.16C634.44 2190.06 435.349 2403.05 425.242 2694.46C424.376 2719.44 425.076 2743.56 427.276 2766.87C374.008 2672.66 337.037 2559.34 319.745 2423.46C306.23 2317.25 309.477 2219.06 327.264 2127.96ZM231.512 6159.64C409.372 6124.7 3109.72 5575.76 3169.1 4437.25C3329.04 4273.34 3454.46 4104.94 3528.35 3935.49C3661.37 4030.84 3753.85 4150.12 3788.82 4302.87C3798.6 4345.56 3804.93 4387.31 3808.01 4428.17C3511.16 5615.32 446.939 6125.2 231.512 6159.64Z" fill="#004E8B"/>
<path fill-rule="evenodd" clip-rule="evenodd" d="M228.863 6157.89C228.924 6157.86 228.984 6157.84 229.046 6157.82C231.56 6157.77 236.946 6157.66 245.016 6157.46C243.432 6157.71 241.92 6157.96 240.479 6158.19C234.718 6158.05 230.815 6157.94 228.863 6157.89ZM1820.52 -595.03C2028.5 -505.684 2278.2 -439.118 2528.65 -372.352C2909.84 -270.735 3292.75 -168.655 3532.95 14.9007C3532.39 26.4342 3531.47 38.2071 3530.19 50.2247C3520.94 136.92 3486.53 214.839 3431.64 285.927C3340.77 -120.794 2809.66 -247.363 2281.53 -373.224C1982.78 -444.421 1684.98 -515.391 1468.36 -636.717C1577.16 -617.476 1696.22 -604.688 1820.52 -595.03ZM1859.92 -2047C1760.4 -2009.56 1227.87 -1785.18 1147.28 -1243.32C1103.16 -946.739 1241.08 -764.012 1468.36 -636.717C1100.15 -701.829 849.548 -840.826 911.998 -1182.4C1041.28 -1889.52 1840.6 -2046.16 1874.8 -2052.55C1872.53 -2051.78 1867.43 -2049.97 1859.92 -2047ZM2108.19 1389.95C2538.92 1202.96 2890.48 981.123 2933.51 628.423C3151.56 529.863 3328.06 420.054 3431.64 285.927C3446.76 353.625 3449.69 429.085 3438.37 513.594C3372.23 1007.67 2783.59 1185.68 2175.96 1369.43C2153.39 1376.26 2130.79 1383.09 2108.19 1389.95ZM1231.27 1736.64C752.709 1936.32 358.03 2169.05 348.968 2561.14C348.879 2564.96 348.827 2568.76 348.81 2572.55C456.37 2969.98 769.436 3129.9 1161.38 3182.66C1251.58 3232.28 1353.9 3271.19 1464.61 3302.48C1411.37 3268.96 1361.21 3234.19 1314.76 3197.88C1262.53 3194.37 1211.32 3189.38 1161.38 3182.66C903.667 3040.9 744.945 2811.78 772.187 2423.45C794.479 2105.69 974.388 1893.93 1231.27 1736.64ZM3358.44 4218.95C3263.47 4344.64 3144.77 4468.64 3009.57 4589.49C3055.44 4667.61 3085.8 4750.87 3097.29 4840.35C3118.92 5008.76 3084.36 5155.67 3008.13 5283.83C3328.74 5099.24 3589.9 4883.02 3726.86 4632.84C3652.67 4472.22 3522.76 4337.41 3358.44 4218.95Z" fill="#D9581D"/>
<path fill-rule="evenodd" clip-rule="evenodd" d="M238.999 6158.16C240.007 6157.96 241.06 6157.75 242.157 6157.53C248.818 6157.37 257.668 6157.13 268.57 6156.79C262.606 6157.41 257.19 6157.97 252.34 6158.47C247.081 6158.35 242.624 6158.25 238.999 6158.16ZM1388.69 -473.402C1542.6 -403.379 1718.91 -345.642 1896.16 -287.597C2440.15 -109.455 2993 71.5886 2934.52 619.575C2882.92 1103.22 2254.74 1342.34 1630.54 1579.94C993.43 1822.45 360.472 2063.39 348.968 2561.15C345.357 2717.37 401.409 2854.78 499.791 2978.97C448.169 2898.59 421.414 2804.82 425.242 2694.46C443.642 2163.95 1088.37 1893.34 1736.74 1621.2C2372.04 1354.54 3010.85 1086.41 3067.38 570.872C3131.56 -14.2778 2496.11 -177.843 1865.84 -340.078C1702.34 -382.163 1539.19 -424.159 1388.69 -473.402ZM659.74 3141.65C912.289 3322.17 1339.94 3409.3 1799.84 3483.22C1896.22 3528.95 1997 3572.99 2099.87 3616.35C1921.77 3576.51 1733.91 3542.04 1546.75 3507.7C1386.68 3478.33 1227.12 3449.05 1074.62 3416.59C917.908 3330.56 775.818 3240.14 659.74 3141.65ZM3029.85 4021.23C3388.38 4206.35 3676.02 4426.55 3766.14 4737.92C3631.18 5112.03 3201.33 5394.07 2685.26 5604.12C2965.81 5418.51 3139.73 5170.82 3097.29 4840.35C3093.57 4811.36 3087.87 4783.01 3080.29 4755.29C3152.41 4615.42 3184.67 4464.68 3163.89 4302.87C3149.82 4193.28 3102.74 4100.6 3029.85 4021.23Z" fill="#008CBA"/>
</g>
<defs>
<clipPath id="clip0">
<rect width="4137" height="8214" fill="white" transform="translate(-1 -2052)"/>
</clipPath>
</defs>
</svg>
