<svg width="3831" height="2054" viewBox="0 0 3831 2054" fill="none" xmlns="http://www.w3.org/2000/svg">
<g clip-path="url(#clip0)">
<path d="M913.026 -3235.3C1045.14 -3957.9 1877.13 -4105 1877.13 -4105C1877.13 -4105 1401.62 -3951.4 1312.65 -3353.25C1139.79 -2191.12 3905.97 -2660.41 3777.55 -1489.43C3663.3 -447.7 1008.79 -541.187 972.359 509.189C933.242 1636.93 3528.96 1640.48 3777.55 2726.2C4121.23 4227.25 228.411 4105.92 228.411 4105.92C228.411 4105.92 3261.39 4058.59 3098.29 2788.42C2965.87 1757.07 325.84 1553.14 349.968 509.189C372.743 -476.245 2831.24 -455.107 2935.52 -1432.4C3052.69 -2530.4 715.541 -2155.2 913.026 -3235.3Z" fill="#B22778"/>
<path d="M912.999 -3234.36C1045.11 -3956.97 1876.93 -4104.72 1876.93 -4104.72C1876.93 -4104.72 1237.25 -3893.43 1148.28 -3295.28C1104.16 -2998.69 1242.08 -2815.97 1469.36 -2688.67C2265.46 -2547.89 3611.3 -2752.51 3531.19 -2001.73C3521.94 -1915.03 3487.53 -1837.11 3432.64 -1766.02C3447.76 -1698.32 3450.69 -1622.86 3439.37 -1538.35C3300.54 -501.227 859.353 -856.771 773.187 371.516C745.945 759.847 904.667 988.966 1162.38 1130.73C2106.23 1257.78 3507.5 763.446 3597.97 1468.05C3606.95 1538.02 3604.7 1608.28 3592.42 1678.61C3701.62 1759.03 3778.55 1864.6 3810.81 2005.54C4154.48 3506.61 220.581 4109.6 220.581 4109.6C220.581 4109.6 3381.78 2885.16 3592.42 1678.61C3069.54 1293.57 1806.64 1485.11 1162.38 1130.73C724.684 1071.81 385.356 879.25 320.745 371.516C142.861 -1026.35 2868.71 -1035.74 3432.64 -1766.02C3290.37 -2402.82 2068.92 -2352.86 1469.36 -2688.67C1101.15 -2753.78 850.548 -2892.78 912.999 -3234.36Z" fill="#FFEB25"/>
<path d="M304.84 -3296.91C436.945 -4019.47 1876.04 -4105 1876.04 -4105C1876.04 -4105 785.56 -3895.03 696.597 -3296.91C523.752 -2134.85 3196.8 -2652.06 3068.39 -1481.14C2954.15 -439.47 462.671 -407.883 426.242 642.438C387.13 1770.12 3541.26 1165.17 3789.82 2250.84C4133.47 3751.8 223.321 4109.38 223.321 4109.38C223.321 4109.38 3327.97 3520.95 3164.89 2250.84C3032.48 1219.55 -23.0258 1686.33 1.09963 642.438C23.8727 -342.944 2380.39 -503.903 2484.66 -1481.14C2601.81 -2579.09 107.376 -2216.87 304.84 -3296.91Z" fill="#1B2C71"/>
<path fill-rule="evenodd" clip-rule="evenodd" d="M328.264 75.9575C564.164 -116.529 898.871 -274.474 1234.55 -432.878C1714.71 -659.458 2196.86 -886.979 2394.68 -1217.88C2645.36 -1302.98 2879.33 -1389.52 3069.2 -1488.9C3068.94 -1486.32 3068.67 -1483.73 3068.39 -1481.13C3035.05 -1177.18 2799.32 -959.231 2481.24 -776.878C2381.98 -744.567 2279.74 -713.649 2176.96 -682.566C1677.88 -531.636 1165.99 -376.833 920.31 -39.8396C635.44 138.062 436.349 351.053 426.242 642.464C425.376 667.438 426.076 691.561 428.276 714.872C375.008 620.656 338.037 507.344 320.745 371.455C307.23 265.25 310.477 167.059 328.264 75.9575ZM232.512 4107.64C410.372 4072.7 3110.72 3523.76 3170.1 2385.25C3330.04 2221.34 3455.46 2052.94 3529.35 1883.49C3662.37 1978.84 3754.85 2098.12 3789.82 2250.87C3799.6 2293.56 3805.93 2335.31 3809.01 2376.17C3512.16 3563.32 447.939 4073.2 232.512 4107.64Z" fill="#004E8B"/>
<path fill-rule="evenodd" clip-rule="evenodd" d="M229.863 4105.89C229.924 4105.86 229.984 4105.84 230.046 4105.82C232.56 4105.77 237.946 4105.66 246.016 4105.46C244.432 4105.71 242.92 4105.96 241.479 4106.19C235.718 4106.05 231.815 4105.94 229.863 4105.89ZM1821.52 -2647.03C2029.5 -2557.68 2279.2 -2491.12 2529.65 -2424.35C2910.84 -2322.74 3293.75 -2220.66 3533.95 -2037.1C3533.39 -2025.57 3532.47 -2013.79 3531.19 -2001.78C3521.94 -1915.08 3487.53 -1837.16 3432.64 -1766.07C3341.77 -2172.79 2810.66 -2299.36 2282.53 -2425.22C1983.78 -2496.42 1685.98 -2567.39 1469.36 -2688.72C1578.16 -2669.48 1697.22 -2656.69 1821.52 -2647.03ZM1860.92 -4099C1761.4 -4061.56 1228.87 -3837.18 1148.28 -3295.32C1104.16 -2998.74 1242.08 -2816.01 1469.36 -2688.72C1101.15 -2753.83 850.548 -2892.83 912.998 -3234.4C1042.28 -3941.52 1841.6 -4098.16 1875.8 -4104.55C1873.53 -4103.78 1868.43 -4101.97 1860.92 -4099ZM2109.19 -662.046C2539.92 -849.037 2891.48 -1070.88 2934.51 -1423.58C3152.56 -1522.14 3329.06 -1631.95 3432.64 -1766.07C3447.76 -1698.37 3450.69 -1622.92 3439.37 -1538.41C3373.23 -1044.33 2784.59 -866.321 2176.96 -682.566C2154.39 -675.74 2131.79 -668.905 2109.19 -662.046ZM1232.27 -315.362C753.709 -115.683 359.03 117.053 349.968 509.145C349.879 512.957 349.827 516.759 349.81 520.55C457.37 917.982 770.436 1077.9 1162.38 1130.66C1252.58 1180.28 1354.9 1219.19 1465.61 1250.48C1412.37 1216.96 1362.21 1182.19 1315.76 1145.88C1263.53 1142.37 1212.32 1137.38 1162.38 1130.66C904.667 988.902 745.945 759.784 773.187 371.455C795.479 53.6922 975.388 -158.068 1232.27 -315.362ZM3359.44 2166.95C3264.47 2292.64 3145.77 2416.64 3010.57 2537.49C3056.44 2615.61 3086.8 2698.87 3098.29 2788.35C3119.92 2956.76 3085.36 3103.67 3009.13 3231.83C3329.74 3047.24 3590.9 2831.02 3727.86 2580.84C3653.67 2420.22 3523.76 2285.41 3359.44 2166.95Z" fill="#D9581D"/>
<path fill-rule="evenodd" clip-rule="evenodd" d="M239.999 4106.16C241.007 4105.96 242.06 4105.75 243.157 4105.53C249.818 4105.37 258.668 4105.13 269.57 4104.79C263.606 4105.41 258.19 4105.97 253.34 4106.47C248.081 4106.35 243.624 4106.25 239.999 4106.16ZM1389.69 -2525.4C1543.6 -2455.38 1719.91 -2397.64 1897.16 -2339.6C2441.15 -2161.45 2994 -1980.41 2935.52 -1432.43C2883.92 -948.783 2255.74 -709.665 1631.54 -472.061C994.43 -229.546 361.472 11.3916 349.968 509.145C346.357 665.369 402.409 802.78 500.791 926.969C449.169 846.589 422.414 752.824 426.242 642.464C444.642 111.954 1089.37 -158.659 1737.74 -430.803C2373.04 -697.462 3011.85 -965.592 3068.38 -1481.13C3132.56 -2066.28 2497.11 -2229.84 1866.84 -2392.08C1703.34 -2434.16 1540.19 -2476.16 1389.69 -2525.4ZM660.74 1089.65C913.289 1270.17 1340.94 1357.3 1800.84 1431.22C1897.22 1476.95 1998 1520.99 2100.87 1564.35C1922.77 1524.51 1734.91 1490.04 1547.75 1455.7C1387.68 1426.33 1228.12 1397.05 1075.62 1364.59C918.908 1278.56 776.818 1188.14 660.74 1089.65ZM3030.85 1969.23C3389.38 2154.35 3677.02 2374.55 3767.14 2685.92C3632.18 3060.03 3202.33 3342.07 2686.26 3552.12C2966.81 3366.51 3140.73 3118.82 3098.29 2788.35C3094.57 2759.36 3088.87 2731.01 3081.29 2703.29C3153.41 2563.42 3185.67 2412.68 3164.89 2250.87C3150.82 2141.28 3103.74 2048.6 3030.85 1969.23Z" fill="#008CBA"/>
</g>
<defs>
<clipPath id="clip0">
<rect width="4137" height="8214" fill="white" transform="translate(0 -4104)"/>
</clipPath>
</defs>
</svg>
