<svg width="3831" height="2052" viewBox="0 0 3831 2052" fill="none" xmlns="http://www.w3.org/2000/svg">
<g clip-path="url(#clip0)">
<path d="M912.026 -5289.3C1044.14 -6011.9 1876.13 -6159 1876.13 -6159C1876.13 -6159 1400.62 -6005.4 1311.65 -5407.25C1138.79 -4245.12 3904.97 -4714.41 3776.55 -3543.43C3662.3 -2501.7 1007.79 -2595.19 971.359 -1544.81C932.242 -417.072 3527.96 -413.522 3776.55 672.204C4120.23 2173.25 227.411 2051.92 227.411 2051.92C227.411 2051.92 3260.39 2004.59 3097.29 734.417C2964.87 -296.927 324.84 -500.859 348.968 -1544.81C371.743 -2530.24 2830.24 -2509.11 2934.52 -3486.4C3051.69 -4584.4 714.541 -4209.2 912.026 -5289.3Z" fill="#B22778"/>
<path d="M911.999 -5288.36C1044.11 -6010.97 1875.93 -6158.72 1875.93 -6158.72C1875.93 -6158.72 1236.25 -5947.43 1147.28 -5349.28C1103.16 -5052.69 1241.08 -4869.97 1468.36 -4742.67C2264.46 -4601.89 3610.3 -4806.51 3530.19 -4055.73C3520.94 -3969.03 3486.53 -3891.11 3431.64 -3820.02C3446.76 -3752.32 3449.69 -3676.86 3438.37 -3592.35C3299.54 -2555.23 858.353 -2910.77 772.187 -1682.48C744.945 -1294.15 903.667 -1065.03 1161.38 -923.272C2105.23 -796.215 3506.5 -1290.55 3596.97 -585.945C3605.95 -515.984 3603.7 -445.715 3591.42 -375.386C3700.62 -294.969 3777.55 -189.403 3809.81 -48.4604C4153.48 1452.61 219.581 2055.6 219.581 2055.6C219.581 2055.6 3380.78 831.16 3591.42 -375.386C3068.54 -760.432 1805.64 -568.888 1161.38 -923.272C723.684 -982.194 384.356 -1174.75 319.745 -1682.48C141.861 -3080.35 2867.71 -3089.74 3431.64 -3820.02C3289.37 -4456.82 2067.92 -4406.86 1468.36 -4742.67C1100.15 -4807.78 849.548 -4946.78 911.999 -5288.36Z" fill="#FFEB25"/>
<path d="M303.84 -5350.91C435.945 -6073.47 1875.04 -6159 1875.04 -6159C1875.04 -6159 784.56 -5949.03 695.597 -5350.91C522.752 -4188.85 3195.8 -4706.06 3067.39 -3535.14C2953.15 -2493.47 461.671 -2461.88 425.242 -1411.56C386.13 -283.883 3540.26 -888.83 3788.82 196.838C4132.47 1697.8 222.321 2055.38 222.321 2055.38C222.321 2055.38 3326.97 1466.95 3163.89 196.838C3031.48 -834.452 -24.0258 -367.666 0.0996285 -1411.56C22.8727 -2396.94 2379.39 -2557.9 2483.66 -3535.14C2600.81 -4633.09 106.376 -4270.87 303.84 -5350.91Z" fill="#1B2C71"/>
<path fill-rule="evenodd" clip-rule="evenodd" d="M327.264 -1978.04C563.164 -2170.53 897.871 -2328.47 1233.55 -2486.88C1713.71 -2713.46 2195.86 -2940.98 2393.68 -3271.88C2644.36 -3356.98 2878.33 -3443.52 3068.2 -3542.9C3067.94 -3540.32 3067.67 -3537.73 3067.39 -3535.13C3034.05 -3231.18 2798.32 -3013.23 2480.24 -2830.88C2380.98 -2798.57 2278.74 -2767.65 2175.96 -2736.57C1676.88 -2585.64 1164.99 -2430.83 919.31 -2093.84C634.44 -1915.94 435.349 -1702.95 425.242 -1411.54C424.376 -1386.56 425.076 -1362.44 427.276 -1339.13C374.008 -1433.34 337.037 -1546.66 319.745 -1682.54C306.23 -1788.75 309.477 -1886.94 327.264 -1978.04ZM231.512 2053.64C409.372 2018.7 3109.72 1469.76 3169.1 331.253C3329.04 167.342 3454.46 -1.06445 3528.35 -170.509C3661.37 -75.1582 3753.85 44.1245 3788.82 196.874C3798.6 239.556 3804.93 281.315 3808.01 322.167C3511.16 1509.32 446.939 2019.2 231.512 2053.64Z" fill="#004E8B"/>
<path fill-rule="evenodd" clip-rule="evenodd" d="M228.863 2051.89C228.924 2051.86 228.984 2051.84 229.046 2051.82C231.56 2051.77 236.946 2051.66 245.016 2051.46C243.432 2051.71 241.92 2051.96 240.479 2052.19C234.718 2052.05 230.815 2051.94 228.863 2051.89ZM1820.52 -4701.03C2028.5 -4611.68 2278.2 -4545.12 2528.65 -4478.35C2909.84 -4376.74 3292.75 -4274.66 3532.95 -4091.1C3532.39 -4079.57 3531.47 -4067.79 3530.19 -4055.78C3520.94 -3969.08 3486.53 -3891.16 3431.64 -3820.07C3340.77 -4226.79 2809.66 -4353.36 2281.53 -4479.22C1982.78 -4550.42 1684.98 -4621.39 1468.36 -4742.72C1577.16 -4723.48 1696.22 -4710.69 1820.52 -4701.03ZM1859.92 -6153C1760.4 -6115.56 1227.87 -5891.18 1147.28 -5349.32C1103.16 -5052.74 1241.08 -4870.01 1468.36 -4742.72C1100.15 -4807.83 849.548 -4946.83 911.998 -5288.4C1041.28 -5995.52 1840.6 -6152.16 1874.8 -6158.55C1872.53 -6157.78 1867.43 -6155.97 1859.92 -6153ZM2108.19 -2716.05C2538.92 -2903.04 2890.48 -3124.88 2933.51 -3477.58C3151.56 -3576.14 3328.06 -3685.95 3431.64 -3820.07C3446.76 -3752.37 3449.69 -3676.92 3438.37 -3592.41C3372.23 -3098.33 2783.59 -2920.32 2175.96 -2736.57C2153.39 -2729.74 2130.79 -2722.91 2108.19 -2716.05ZM1231.27 -2369.36C752.709 -2169.68 358.03 -1936.95 348.968 -1544.86C348.879 -1541.04 348.827 -1537.24 348.81 -1533.45C456.37 -1136.02 769.436 -976.099 1161.38 -923.337C1251.58 -873.725 1353.9 -834.812 1464.61 -803.519C1411.37 -837.038 1361.21 -871.811 1314.76 -908.12C1262.53 -911.633 1211.32 -916.615 1161.38 -923.337C903.667 -1065.1 744.945 -1294.22 772.187 -1682.55C794.479 -2000.31 974.388 -2212.07 1231.27 -2369.36ZM3358.44 112.952C3263.47 238.638 3144.77 362.641 3009.57 483.493C3055.44 561.609 3085.8 644.866 3097.29 734.351C3118.92 902.76 3084.36 1049.67 3008.13 1177.83C3328.74 993.24 3589.9 777.022 3726.86 526.845C3652.67 366.224 3522.76 231.407 3358.44 112.952Z" fill="#D9581D"/>
<path fill-rule="evenodd" clip-rule="evenodd" d="M238.999 2052.16C240.007 2051.96 241.06 2051.75 242.157 2051.53C248.818 2051.37 257.668 2051.13 268.57 2050.79C262.606 2051.41 257.19 2051.97 252.34 2052.47C247.081 2052.35 242.624 2052.25 238.999 2052.16ZM1388.69 -4579.4C1542.6 -4509.38 1718.91 -4451.64 1896.16 -4393.6C2440.15 -4215.45 2993 -4034.41 2934.52 -3486.43C2882.92 -3002.78 2254.74 -2763.66 1630.54 -2526.06C993.43 -2283.55 360.472 -2042.61 348.968 -1544.85C345.357 -1388.63 401.409 -1251.22 499.791 -1127.03C448.169 -1207.41 421.414 -1301.18 425.242 -1411.54C443.642 -1942.05 1088.37 -2212.66 1736.74 -2484.8C2372.04 -2751.46 3010.85 -3019.59 3067.38 -3535.13C3131.56 -4120.28 2496.11 -4283.84 1865.84 -4446.08C1702.34 -4488.16 1539.19 -4530.16 1388.69 -4579.4ZM659.74 -964.351C912.289 -783.828 1339.94 -696.699 1799.84 -622.782C1896.22 -577.052 1997 -533.014 2099.87 -489.646C1921.77 -529.486 1733.91 -563.957 1546.75 -598.3C1386.68 -627.671 1227.12 -656.95 1074.62 -689.413C917.908 -775.442 775.818 -865.864 659.74 -964.351ZM3029.85 -84.7676C3388.38 100.348 3676.02 320.55 3766.14 631.92C3631.18 1006.03 3201.33 1288.07 2685.26 1498.12C2965.81 1312.51 3139.73 1064.82 3097.29 734.351C3093.57 705.356 3087.87 677.014 3080.29 649.29C3152.41 509.419 3184.67 358.678 3163.89 196.874C3149.82 87.2788 3102.74 -5.39795 3029.85 -84.7676Z" fill="#008CBA"/>
</g>
<defs>
<clipPath id="clip0">
<rect width="4137" height="8214" fill="white" transform="translate(-1 -6158)"/>
</clipPath>
</defs>
</svg>
