<svg width="3831" height="2052" viewBox="0 0 3831 2052" fill="none" xmlns="http://www.w3.org/2000/svg">
<g clip-path="url(#clip0)">
<path d="M912.026 868.697C1044.14 146.102 1876.13 -1 1876.13 -1C1876.13 -1 1400.62 152.605 1311.65 750.75C1138.79 1912.88 3904.97 1443.59 3776.55 2614.57C3662.3 3656.3 1007.79 3562.81 971.359 4613.19C932.242 5740.93 3527.96 5744.48 3776.55 6830.2C4120.23 8331.25 227.411 8209.92 227.411 8209.92C227.411 8209.92 3260.39 8162.59 3097.29 6892.42C2964.87 5861.07 324.84 5657.14 348.968 4613.19C371.743 3627.76 2830.24 3648.89 2934.52 2671.6C3051.69 1573.6 714.541 1948.8 912.026 868.697Z" fill="#B22778"/>
<path d="M911.999 869.641C1044.11 147.033 1875.93 -0.720703 1875.93 -0.720703C1875.93 -0.720703 1236.25 210.566 1147.28 808.722C1103.16 1105.31 1241.08 1288.03 1468.36 1415.33C2264.46 1556.11 3610.3 1351.49 3530.19 2102.27C3520.94 2188.97 3486.53 2266.89 3431.64 2337.98C3446.76 2405.68 3449.69 2481.14 3438.37 2565.65C3299.54 3602.77 858.353 3247.23 772.187 4475.52C744.945 4863.85 903.667 5092.97 1161.38 5234.73C2105.23 5361.78 3506.5 4867.45 3596.97 5572.05C3605.95 5642.02 3603.7 5712.28 3591.42 5782.61C3700.62 5863.03 3777.55 5968.6 3809.81 6109.54C4153.48 7610.61 219.581 8213.6 219.581 8213.6C219.581 8213.6 3380.78 6989.16 3591.42 5782.61C3068.54 5397.57 1805.64 5589.11 1161.38 5234.73C723.684 5175.81 384.356 4983.25 319.745 4475.52C141.861 3077.65 2867.71 3068.26 3431.64 2337.98C3289.37 1701.18 2067.92 1751.14 1468.36 1415.33C1100.15 1350.22 849.548 1211.22 911.999 869.641Z" fill="#FFEB25"/>
<path d="M303.84 807.088C435.945 84.5321 1875.04 -1 1875.04 -1C1875.04 -1 784.56 208.975 695.597 807.088C522.752 1969.15 3195.8 1451.94 3067.39 2622.86C2953.15 3664.53 461.671 3696.12 425.242 4746.44C386.13 5874.12 3540.26 5269.17 3788.82 6354.84C4132.47 7855.8 222.321 8213.38 222.321 8213.38C222.321 8213.38 3326.97 7624.95 3163.89 6354.84C3031.48 5323.55 -24.0258 5790.33 0.0996285 4746.44C22.8727 3761.06 2379.39 3600.1 2483.66 2622.86C2600.81 1524.91 106.376 1887.13 303.84 807.088Z" fill="#1B2C71"/>
<path fill-rule="evenodd" clip-rule="evenodd" d="M228.863 8209.89C228.924 8209.86 228.984 8209.84 229.046 8209.82C231.56 8209.77 236.946 8209.66 245.016 8209.46C243.432 8209.71 241.92 8209.96 240.479 8210.19C234.718 8210.05 230.815 8209.94 228.863 8209.89ZM1820.52 1456.97C2028.5 1546.32 2278.2 1612.88 2528.65 1679.65C2909.84 1781.26 3292.75 1883.34 3532.95 2066.9C3532.39 2078.43 3531.47 2090.21 3530.19 2102.22C3520.94 2188.92 3486.53 2266.84 3431.64 2337.93C3340.77 1931.21 2809.66 1804.64 2281.53 1678.78C1982.78 1607.58 1684.98 1536.61 1468.36 1415.28C1577.16 1434.52 1696.22 1447.31 1820.52 1456.97ZM1859.92 5.00056C1760.4 42.4375 1227.87 266.821 1147.28 808.678C1103.16 1105.26 1241.08 1287.99 1468.36 1415.28C1100.15 1350.17 849.548 1211.17 911.998 869.597C1041.28 162.479 1840.6 5.83673 1874.8 -0.552734C1872.53 0.22277 1867.43 2.02519 1859.92 5.00056ZM2108.19 3441.95C2538.92 3254.96 2890.48 3033.12 2933.51 2680.42C3151.56 2581.86 3328.06 2472.05 3431.64 2337.93C3446.76 2405.63 3449.69 2481.08 3438.37 2565.59C3372.23 3059.67 2783.59 3237.68 2175.96 3421.43C2153.39 3428.26 2130.79 3435.09 2108.19 3441.95ZM1231.27 3788.64C752.709 3988.32 358.03 4221.05 348.968 4613.14C348.879 4616.96 348.827 4620.76 348.81 4624.55C456.37 5021.98 769.436 5181.9 1161.38 5234.66C1251.58 5284.28 1353.9 5323.19 1464.61 5354.48C1411.37 5320.96 1361.21 5286.19 1314.76 5249.88C1262.53 5246.37 1211.32 5241.38 1161.38 5234.66C903.667 5092.9 744.945 4863.78 772.187 4475.45C794.479 4157.69 974.388 3945.93 1231.27 3788.64ZM3358.44 6270.95C3263.47 6396.64 3144.77 6520.64 3009.57 6641.49C3055.44 6719.61 3085.8 6802.87 3097.29 6892.35C3118.92 7060.76 3084.36 7207.67 3008.13 7335.83C3328.74 7151.24 3589.9 6935.02 3726.86 6684.84C3652.67 6524.22 3522.76 6389.41 3358.44 6270.95Z" fill="#D9581D"/>
<path fill-rule="evenodd" clip-rule="evenodd" d="M238.999 8210.16C240.007 8209.96 241.06 8209.75 242.157 8209.53C248.818 8209.37 257.668 8209.13 268.57 8208.79C262.606 8209.41 257.19 8209.97 252.34 8210.47C247.081 8210.35 242.624 8210.25 238.999 8210.16ZM1388.69 1578.6C1542.6 1648.62 1718.91 1706.36 1896.16 1764.4C2440.15 1942.55 2993 2123.59 2934.52 2671.57C2882.92 3155.22 2254.74 3394.34 1630.54 3631.94C993.43 3874.45 360.472 4115.39 348.968 4613.15C345.357 4769.37 401.409 4906.78 499.791 5030.97C448.169 4950.59 421.414 4856.82 425.242 4746.46C443.642 4215.95 1088.37 3945.34 1736.74 3673.2C2372.04 3406.54 3010.85 3138.41 3067.38 2622.87C3131.56 2037.72 2496.11 1874.16 1865.84 1711.92C1702.34 1669.84 1539.19 1627.84 1388.69 1578.6ZM659.74 5193.65C912.289 5374.17 1339.94 5461.3 1799.84 5535.22C1896.22 5580.95 1997 5624.99 2099.87 5668.35C1921.77 5628.51 1733.91 5594.04 1546.75 5559.7C1386.68 5530.33 1227.12 5501.05 1074.62 5468.59C917.908 5382.56 775.818 5292.14 659.74 5193.65ZM3029.85 6073.23C3388.38 6258.35 3676.02 6478.55 3766.14 6789.92C3631.18 7164.03 3201.33 7446.07 2685.26 7656.12C2965.81 7470.51 3139.73 7222.82 3097.29 6892.35C3093.57 6863.36 3087.87 6835.01 3080.29 6807.29C3152.41 6667.42 3184.67 6516.68 3163.89 6354.87C3149.82 6245.28 3102.74 6152.6 3029.85 6073.23Z" fill="#008CBA"/>
</g>
<defs>
<clipPath id="clip0">
<rect width="4137" height="8214" fill="white" transform="translate(-1)"/>
</clipPath>
</defs>
</svg>
